<!--
  SVG Music Logos
  Zakk Sabbath - ZS v1.0.0
  https://github.com/tiagoporto/svg-music-logos
  Copyright (c) 2016-2019 Tiago Porto (http://tiagoporto.com)
-->
<svg xmlns="http://www.w3.org/2000/svg" viewBox="0 0 200 170" class="zakk-sabbath--zs">
  <path class="s-letter" d="M67.941 67.857L46.849 93.921 82.857 126.614 82.857 152.227 28.167 104.317 48.054 79.759 11.142 46.312 25.606 29.589z"/>
  <path class="s-outer" d="M56.792,93.77l20.64-25.763L25.455,19.043L1.5,46.312l37.816,34.501l-20.49,23.955l71.112,62.825v-44.445 L56.792,93.77z M85.267,157.048l-60.566-52.58l19.887-24.106L7.376,46.312l18.079-20.339l45.951,42.034L50.615,93.318 l34.652,32.091V157.048z"/>
  <path class="z-letter" d="M132.059 67.857L153.151 93.921 117.143 126.614 117.143 152.227 171.833 104.317 151.946 79.759 188.858 46.312 174.394 29.589z"/>
  <path class="z-outer" d="M110.062,123.149v44.445l71.112-62.825l-20.49-23.955L198.5,46.312l-23.955-27.27l-51.978,48.965 l20.64,25.763L110.062,123.149z M114.733,125.409l34.652-32.091l-20.791-25.311l45.951-42.034l18.079,20.339l-37.213,34.049 l19.887,24.106l-60.566,52.58V125.409z"/>
  <path class="cross" d="M100.239,97.219c6.328,0.009,8.682,0.017,8.079-7.215c-0.603-7.232-2.355-42.482-2.411-44.746 c-0.075-3.051,0.452-3.767,3.164-3.164c2.712,0.603,18.983,2.712,20.49,2.712s2.109-0.719,2.411-2.845 c0.301-2.127,0.749-9.933,0.767-11.897c0.023-2.524-1.558-3.506-3.517-3.506c-1.959,0-17.891,3.032-20,3.032 s-1.959-1.043-1.356-5.262c0.603-4.218,2.196-16.66,2.196-18.919c0-1.521-0.162-2.335-3.853-2.335c-1.205,0-11.906,0-13.413,0 c-1.507,0-3.311,0.452-2.859,3.465c0.452,3.013,2.545,19.268,2.674,20.301c0.226,1.808-0.392,3.075-3.351,2.661 c-4.333-0.607-16.311-2.661-18.909-2.661s-3.164,2.034-3.164,3.39s0.654,11.845,0.904,13.22c0.339,1.864,2.712,1.13,5.311,1.017 s14.381-2.09,18.135-2.662c2.48-0.377,2.314,1.082,2.314,3.681c0,2.599-2.031,43.802-2.144,46.024 c-0.113,2.222,0.452,4.787,2.938,5.426S99.184,97.218,100.239,97.219z"/>
</svg>
