<?xml version="1.0" encoding="utf-8"?>
<!-- Generator: Adobe Illustrator 19.0.0, SVG Export Plug-In . SVG Version: 6.00 Build 0)  -->
<svg version="1.1" id="Layer_1" xmlns="http://www.w3.org/2000/svg" xmlns:xlink="http://www.w3.org/1999/xlink" x="0px" y="0px"
	 width="200px" height="160px" viewBox="0 0 200 160" style="enable-background:new 0 0 200 160;" xml:space="preserve">
<style type="text/css">
	.st0{fill-rule:evenodd;clip-rule:evenodd;}
</style>
<g>
	<path class="st0" d="M63.894,63.559c2.14,0.421,0.723,1.436,0.455,2.731C63.072,65.501,63.921,65.098,63.894,63.559z"/>
	<path class="st0" d="M66.17,65.835c-0.242,1.395-2.215,2.563-3.187,1.82C63.768,66.772,64.673,66.008,66.17,65.835z"/>
	<path class="st0" d="M67.535,67.655c-1.257,0.868-3.809,0.439-4.552,1.821c0.897,1.985,2.465,3.3,3.642,5.006
		c0.848,0.436,1.521-1.363,1.82,0c-0.353,0.103-0.898,0.013-0.91,0.455c2.341,0.197,1.201-0.962,1.821-1.82
		c-0.861-0.103-1.005,0.513-1.821,0.455c1.474-1.434-1.186-0.341-1.365-1.365c1.158-0.056,1.765-0.662,1.82-1.82
		C65.574,71.661,67.565,69.116,67.535,67.655z M64.349,69.477c-1.095-1.542,2.132,0.986,1.821,0
		c0.941,0.253-0.614,1.761-1.821,1.365C64.341,70.175,66.268,69.398,64.349,69.477z"/>
	<path class="st0" d="M24.751,71.297C26.751,69.627,26.48,72.556,24.751,71.297L24.751,71.297z"/>
	<path class="st0" d="M139.904,74.938c-0.915,1.651-3.058,0.324-4.097-0.455C136.995,73.033,137.779,75.818,139.904,74.938z"/>
	<path class="st0" d="M186.33,77.214c0.971-0.213,0.866,0.65,0.91,1.365c-0.369-0.086-0.454-0.457-0.91-0.455V77.214z"/>
	<path class="st0" d="M16.103,80.399c-1.607-0.258-0.232-2.141,0.91-2.275C17.083,79.257,16.298,79.533,16.103,80.399z"/>
	<path class="st0" d="M21.565,80.855C20.139,79.355,22.685,78.025,21.565,80.855L21.565,80.855z"/>
	<path class="st0" d="M182.233,79.034c0.995,0.066,0.978,1.146,0.91,2.275C182.467,80.924,182.484,79.845,182.233,79.034z"/>
	<path class="st0" d="M147.641,79.944c1.704-0.035,1.553,1.785,1.82,3.187C147.915,83.009,148.04,81.215,147.641,79.944z"/>
	<path class="st0" d="M180.413,80.855c1.071,0.244,0.278,2.153-0.456,0.911C180.044,81.397,180.414,81.312,180.413,80.855z"/>
	<path class="st0" d="M109.864,109.529c1.785,0.833,2.71,3.785,3.186,4.552c-1.089,1.034-1.824,2.423-3.641,2.73
		C111.545,114.255,110.324,111.63,109.864,109.529z"/>
	<path class="st0" d="M88.472,111.35c0.067-0.124,0.979-0.841,1.365-0.455C90.152,111.21,88.042,112.148,88.472,111.35z"/>
	<path class="st0" d="M77.093,126.825c-0.514,1.003-0.523,2.511-1.821,2.73C76.269,129.035,74.822,126.071,77.093,126.825z"/>
	<path class="st0" d="M112.595,134.107c0.697,0.006,1.496,1.242,0,0.91c1.305,2.249,3.441,6.203,0,7.738
		C111.203,140.785,110.342,135.87,112.595,134.107z"/>
	<path class="st0" d="M24.751,50.36c0.114,1.962-1.941,1.429-0.91,3.186c-1.604,0.056-0.125,0.662-0.911,1.82
		c-0.951,0.193-1.205-0.312-1.82-0.455c0.086-0.517,0.457-0.252,0.455,0C22.811,53.162,22.163,51.986,24.751,50.36z"/>
	<path class="st0" d="M184.509,64.925c-0.213,1.427,1.145,1.282,1.821,1.82c-1.051,1.458-2.03-0.969-3.642-0.455
		c-0.181,1.091,2.073-0.253,1.365,1.365h-2.275c0.33,1.036,2.595,0.136,2.275,1.821c-0.734-1.331-2.346,0.726-2.731-0.456
		c0.11,0.837-0.711,1.538-1.366,2.731c-0.773,0.167-0.858-0.354-0.91-0.91c-0.457,1.829-2.139,1.226-1.82,3.641
		c-0.674-0.236-1.148-0.673-1.82-0.91c2.09-0.944,2.33-3.738,5.007-4.096c-0.144-2.676,1.087-6.569,0.455-9.559
		c-0.221-1.039-2.73-1.938-0.455-2.731c-0.68-0.685-2.041-0.69-1.821-2.275c2.92,0.452,2.918,3.316,2.731,3.642
		c1.776,0.53,0.202,1.587,2.731,1.365c-0.109,0.801-0.783,1.037-1.82,0.91c0.092,0.61,1.891,0.848,0,0.91
		c1.039,0.63,2.41,0.928,3.641,1.365c-0.689,1.377-1.997-0.377-3.186,0c-1.277,0.006,1.084,1.242-0.91,0.911
		C183.898,64.509,182.599,65.59,184.509,64.925z"/>
	<path class="st0" d="M20.199,57.187c0.458,0.908,2.013,0.719,1.821,2.276c-0.673,0.527-1.147,0.527-1.821,0
		c1.853-0.184,1.058-0.71-0.455-1.82c0.514-0.853,0.539-2.193,2.276-1.821c0.096,0.779-0.776,1.179,0,1.365
		C21.721,58.55,21.047,56.752,20.199,57.187z"/>
	<path class="st0" d="M19.744,59.918c0.712-1.199,0.216,3.537,2.276,3.186c0.127,1.189,0.154,2.278-1.366,1.821
		c0.557,0.657,1.737,0.69,2.276,1.365c-0.258,0.425-1.265,0.69-0.455,0.91c0.083,0.388-0.178,0.43-0.455,0.455h-0.91
		c-0.155-0.913,0.093-1.424,0.91-1.365c-0.057-1.006-1.931-0.193-2.731-0.455c0.761-0.43,1.594-1.683-0.455-1.365
		c0.191-1.014,2.415-0.356,2.731,0c-0.413-0.952-1.343-1.388-2.731-1.366C19.678,61.678,19.969,61.004,19.744,59.918z"/>
	<path class="st0" d="M185.874,64.47C184.677,65.593,183.237,63.156,185.874,64.47L185.874,64.47z"/>
	<path class="st0" d="M191.336,71.297c0.087-0.517,0.457-0.253,0.455,0c0.534-0.074,0.385-0.83,0.456-1.365
		c0.759,2.149,1.006,3.636,0.455,6.372c-0.006,0.028-0.629-0.554-0.455-0.911c-0.736,1.509-1.19,4.697-1.366,6.828
		c-1.533-0.287-1.186-2.456-1.365-4.097c0.928-0.254,0.893-1.369,1.82-0.455c0.046-1.411-0.206-2.524-0.91-3.187
		c0.296-0.463,1.047-0.471,0.91-1.365c0.534,0.074,0.385,0.83,0.455,1.365C192.786,74.037,191.73,71.856,191.336,71.297z"/>
	<path class="st0" d="M7,71.297c0.772,1.2,1.348,2.597,1.365,4.552C7.239,75.088,7.382,73.665,7,71.297z"/>
	<path class="st0" d="M11.096,76.304c-1.618-0.708-0.274,1.546-1.365,1.365c-0.416-0.798-0.157-2.271-0.91-2.731
		c-0.989,1.698-0.436,2.233-0.911,4.097c0.353,0.103,0.898,0.013,0.911,0.455c0.678,5.391,3.68,8.458,5.917,12.289
		c0.377-1.188-1.377-2.497,0-3.186v1.365c0.783,0.18,1.167-0.676,1.365,0c0.053,1.616-0.329,3.666,1.365,3.641
		c0.083-1.181-1.455-3.048-0.455-3.641c0.322,2.712,2.41,3.659,3.641,5.462c0.174-2.616-2.184-3.036-0.91-4.552
		c-0.399,1.461,1.181,0.943,1.366,1.82c-1.018,0.33-0.221,2.596,0.91,2.276c0.592-1.131-1.335-1.89,0-2.276
		c-0.204,1.873,1.925,1.413,1.365,3.642c1.479,0.341,2.817,0.824,4.097,1.365c-0.063-1.774-2.278-3.768-1.366-5.007
		c1.005,2.313,1.539,3.784,3.186,4.552c0.436-0.848-1.363-1.521,0-1.82c-0.186,1.097,0.832,0.989,0.456,2.275h2.731
		c-0.02-0.627,0.214-0.999,0.456-1.365c-0.554-0.963-1.713-1.322-1.821-2.731c0.457,0.002,0.542-0.368,0.91-0.455
		c0.088,2.037,1.165,3.084,2.276,4.097c0.576-1.529-1.783-2.407-0.455-3.186c0.292,1.376,0.711,2.626,2.276,2.73
		c0.625-1.037-1.174-1.711,0-1.82c0.396,0.666,0.681,1.442,1.82,1.365c-0.214-3.124-2.49-4.186-4.096-5.917
		c2.606,0.732,3.292,3.384,5.006,5.007c1.287,0.376,1.18-0.642,2.276-0.455c-0.346-1.778-2.081-2.168-2.276-4.097
		c0.65,0.178,0.768,0.546,1.366,0c-1.327,1.552,1.038,2.168,1.365,2.275c-0.479,0.025-0.358,0.584,0.456,0.455
		c0.489-1.116-1.287-2.388-2.276-4.096c-0.868-1.5-2.912-4.18-1.366-5.007c-0.843,1.66,1.688,3.317,1.821,5.462
		c1.489-0.545,2.397,3.323,4.551,1.82c-0.552,0.14-1.569-1.314-0.455-1.365c-0.12,1.025,1.209,1.072,2.731,0.455
		c-0.445-2.741-3.438-2.935-4.096-5.462c0.221-0.538,0.485-1.032,0.91-1.365c-0.708,2.675,2.422,4.647,4.552,5.917
		c0.102-0.353,0.012-0.898,0.455-0.91c0.578,1.369,1.826,1.563,2.731,0.91c-0.556-0.052-1.078-0.136-0.911-0.91
		c0.905,0.758,0.579-0.041,1.821,0c-0.035-2.394-1.7-3.155-3.186-4.097c-0.376,1.286,0.642,1.18,0.455,2.275
		c-0.655,0.243-1.11-1.773-1.365-0.455c0.948,1.721,2.309,1.265,3.186,2.276c-0.905-0.759-0.579,0.041-1.821,0
		c-0.978-1.299-2.169-2.383-2.731-4.097c0.778,1.734,3.323-0.258,1.366-0.91c-0.071,0.535,0.078,1.292-0.455,1.365
		c-0.413-2.301-0.627-5.56-1.366-8.647c-0.556,0.798,0.499,3.173-0.455,4.551c0.675,0.137,1.959,1.915,0.91,2.276
		c-1.411-2.079-1.844-5.135-3.186-7.282c-0.249,0.661,0.532,2.352-0.455,2.275c-0.262-0.8,0.55-2.674-0.455-2.73
		c-0.119,0.64-0.999,0.519-1.366,0.91c-0.681,1.925,1.89,2.925,0.456,4.096c-0.691-3.01-2.208-2.842-4.552-3.641
		c-0.542,1.256-0.491,2.398-1.365,2.275c0.26,0.412,1.876,1.676,0.91,1.82c-0.393-1.22-1.688-1.815-2.276-0.455
		c-0.251-0.81-0.234-1.89-0.91-2.275c-0.056,1.686-0.663,1.145-1.821,0.91c-0.247,1.547,0.972,3.383,0.455,4.552
		c-0.152-1.061-0.466-1.961-1.365-2.275c-0.569,1.812,1.608,3.205,0.455,4.096c-0.958-1.621-0.947-4.211-2.276-5.462
		c0.067,1.249,0.084,2.347-0.91,1.366c-0.377,1.188,1.377,2.497,0,3.186c-0.668-2.525-0.913-2.303-1.365-3.642
		c-0.631,1.694-0.069-1.339-0.911-0.91c-1.196,0.776-0.459,3.486-1.365,4.552c-0.291-1.682,0.589-4.533-0.455-5.462
		c-0.675,1.787-0.708,0.087-1.366-0.455c0.168,1.989-1.982,1.66-1.365,4.097c1.791,0.729,0.158-1.966,1.365-1.821
		c0.071,1.74-0.024,3.314-0.91,4.097c0.79-3.124-1.925-0.103-1.821-2.73c2.067,0.943-0.077-3.209-0.455-4.097
		c-1.575,3.092-0.167,5.963-1.82,8.192c0.654-1.522-2.138-4.365,0-6.372c0.6,1.411-1.349,2.525,0,3.187
		c-0.08-1.324,1.599-3.216,0.455-4.097c-1.395,0.905-2.74,1.715-4.097,0.455c-0.249,0.661,0.532,2.353-0.455,2.276
		c-0.096-0.551-0.505-0.28-0.91,0c0.704-0.662,0.401-2.33,0.455-3.642c-2.069-0.222-0.746,2.624-1.365,2.73
		c-1.434-0.991,0.996-3.203,0-3.641c-0.678,1.143-1.134,2.507-2.276,3.186c-0.066-0.537-0.811-1.032,0-1.365
		c0.102,0.354,0.012,0.898,0.455,0.91C10.045,78.59,11.237,78.113,11.096,76.304z M42.047,81.31c0.811,0.334,0.065,0.828,0,1.366
		C41.236,82.342,41.981,81.848,42.047,81.31z M11.096,82.676c0.524-1.473,0.515,1.222,0.456,1.82
		C11.027,85.969,11.036,83.273,11.096,82.676z M29.302,82.676c1.085,1.19,1.054,3.497,1.821,5.006
		C29.995,87.436,29.233,84.937,29.302,82.676z M15.648,83.586c0.166-0.54,0.601,3.615,0,5.007
		C13.891,88.059,15.435,84.956,15.648,83.586z M19.289,84.951c0.677,0.386,0.659,1.466,0.91,2.275
		C19.204,87.16,19.222,86.08,19.289,84.951z M12.917,85.861c0.296-1.283,0.528,1.048,0.455,1.365
		C13.161,88.141,12.517,87.594,12.917,85.861z M20.654,86.316c0.516,0.217,1.097,3.056,1.366,4.097
		C20.785,89.827,20.64,88.151,20.654,86.316z M27.482,85.861c0.713,1.259,1.414,2.531,1.82,4.097
		c0.971,0.212,0.867-0.65,0.911-1.365c0.655,0.103,0.159,1.358,0.91,1.365c0.572-0.113,0.459-0.905,0-0.91
		c0.456-1.405,0.75,0.987,1.365,0.91c-0.103,0.655-1.358,0.158-1.365,0.91c-0.083,0.387,0.178,0.43,0.455,0.455
		c0.754,0.336-3.167-1.091-1.82,0C28.345,90.179,28.124,88.376,27.482,85.861z M17.013,86.772c0.938,0.124,0.108,2.016,1.366,1.821
		c-0.299,1.363-0.973-0.436-1.821,0C16.911,88.188,17.047,87.565,17.013,86.772z M19.289,89.048c0.689-1.608,0.863,0.838,0.455,0.91
		C19.475,90.006,19.173,89.318,19.289,89.048z M22.475,90.413c0.255-1.318,0.71,0.698,1.366,0.455
		c-0.48,2.755,1.052,3.499,1.365,5.462C23.596,95.057,23.657,92.113,22.475,90.413z M27.027,92.233
		C27.847,89.612,28.911,95.873,27.027,92.233L27.027,92.233z"/>
	<path class="st0" d="M49.329,80.855c1.643-0.482,0.701-3.548,2.731-3.641c-0.378,2.06-2.46,4.808-0.91,7.282
		c-2.426,1.412-0.905-2.175-3.186-2.275c0.187-2.999-0.594-6.967,0.91-8.648c1.873,0.521,0.311,2.618-0.455,3.187
		C49.419,79.02,50.804,77.83,49.329,80.855z"/>
	<path class="st0" d="M54.791,91.323c0.491-1.163-1.96-1.593-0.455-2.275c2.27,2.585,2.388,7.321,3.186,11.379
		c-0.067-0.605,1.531-1.694,0.455-1.821c-1.402-0.235,3.01-5.458,0.455-4.096c0.486-0.425,0.141-1.68,1.365-1.366
		c2.961,1.535,0.701,6.609,5.007,8.193c-2.015-4.677-5.13-13.175-1.365-18.206c-2.107,0.472-2.854,2.305-3.642,4.096
		c-0.167-2.968,0.449-1.955,1.366-2.73c0.372-0.314,0.548-1.017,0.91-1.365c4.68-4.503,17.253-1.558,20.937-1.821
		c-0.278,0.026-0.539,0.068-0.455,0.456c5.913,0.465,7.92,2.603,12.744,4.551c-2.591-0.461-1.096,4.006,0.455,3.642
		c0.591-1.129-1.016-2.209,0-2.276c-0.139,1.051,1.315,0.506,1.366,1.366c-0.677,0.688-0.733,1.997-0.911,3.185
		c-7.77,2.549-7.591,15.469-14.109,17.751c0.673-0.236,1.147-0.673,1.82-0.91c-1.444-4.046,5.626-5.473,3.186-10.469
		c-3.658,2.038-5.651,6.848-8.192,8.648c0.804-3.899,3.361-6.045,5.462-8.648c-3.813,1.802-10.075,1.152-12.745,4.097
		c2.175,0.337,4.007-2.038,5.462-0.91c-0.255,0.655-0.711,1.11-1.365,1.365c-5.837,0.985-11.162,1.046-15.02,3.187
		c-0.031,2.244-0.222,4.33-2.276,4.551c1.071-0.68,1.365-3.466,0-4.096c-2.603,0.834-4.091,3.302-5.462,5.006
		c-1.057,1.313-3.477,2.76-1.82,5.462c1.53,2.497,6.049,6.712,9.558,6.827c3.172-3.139,3.865-6.626,8.192-8.647
		c-0.206,0.097,0.872,0.595,1.366,0.455c3.409-0.959,3.875-5.476,7.282-5.917c-1.369-0.271-2.583,1.921-1.365,2.731
		c0.237-0.176,0.673-2.211,0.91-0.911c-1.804,1.686-2.873,4.106-4.551,5.917c0.352-2.565,2.517-2.905,1.82-5.006
		c-1.114,1.465-2.282,2.876-4.096,3.641c0.725,1.096,1.242,2.399,2.731,2.731c0.248-1.876,1.497-2.751,2.731-3.642
		c-1.209,1.522-2.828,2.634-2.276,5.917c2.451-0.976,1.517,1.255,1.82,2.275c-0.659-2.216,0.83,1.367,0.456,0.911
		c1.603-2.035,0.966,2,0.91,1.82c0.397,1.269,2.144,0.44,0.455,1.82c0.783,0.18,1.167-0.676,1.366,0
		c-4.386,2.45-0.42,6.446-3.187,10.469c1.021,0.496,0.8,2.234,1.821,2.73c0.445-2.114-0.59-2.747-0.91-4.096
		c3.288,2.325,6.353,4.873,8.648,8.192c-0.356-2.025,0.606-2.731,0.455-4.552c-1.326-1.008-1.782-0.245-2.276-2.275
		c1.785,2.175,1.021-1.08,2.731-1.365c-1.837,3.499,2.804,9.212,5.462,9.558c-2.045-2.376-1.294-4.754-2.276-8.192
		c0.456-0.607,0.75-1.374,1.365-1.82c0.283,2.751,0.629,5.439,2.276,6.827c1.286-2.632,2.484-7.893-0.91-9.103
		c-0.535,1.207,0.872,2.681,0,2.731c-0.221-0.811-0.485,0.197-0.91,0.455c0.019-0.627-0.214-1-0.456-1.366
		c-0.032-1.701,0.731-2.605,1.821-3.186c-0.991,1.045,1.211,1.463,1.821,2.275c0.476-1.951,0.852-4.002,3.186-4.096
		c-0.856,2.307-1.729,3.415,0,4.551c-0.86,0.051-0.316,1.505-1.366,1.366c-0.053-1.161-0.086-2.343-1.365-2.276
		c-0.216,4.617,1.08,7.719,3.186,10.014c0.876-5.568,1.072-12.444,2.731-13.654c-0.593,0.605-0.28,1.374,0.455,1.82
		c1.506-1.072,1.278-3.88,3.641-4.097c1.008,0.841,1.296,2.075,2.275,1.821c-0.615,1.378-3.839,2.63-1.365,3.186
		c-0.528,0.382-1.22,0.601-2.275,0.455c0.842-1.594-0.41-1.433-1.365-2.275c-0.812,4.218-0.29,7.949,1.365,11.379
		c1.496-3.534,3.135-7.704,3.186-11.379c0.149,1.672,0.521,3.12,1.366,4.096h-1.366c0.45,3.344,2.504,5.082,2.276,9.104
		c2.203-0.376,1.061-4.097,2.275-5.462c-0.535-0.071-1.292,0.078-1.365-0.455c1.568-0.425-0.624-3.37,0.455-4.552
		c-0.604-1.114-1.693,0.501-1.82-0.455c1.496-0.021,1.089-1.945,2.73-1.82v2.275c1.918-1.179,2.096-0.885,3.642-0.91
		c-0.593-1.323-0.575-3.215,0.455-4.097c-0.495,3.226,1.698,3.764,1.82,6.372c-1.027-0.489-1.326-1.708-2.275-2.275
		c-1.022,1.466,1.332,2.705,0.91,5.007c1.76,0.235,1.795-2.622,3.186-1.365c-0.271,1.142-0.365,1.524-0.91,3.186
		c2.322,0.185,3.388-3.27,5.462-1.82c-2.533-0.106-2.887,1.969-5.007,2.275c1.39,5.605-0.743,10.083-2.275,14.11
		c4.528-1.792,6.467-6.853,7.282-12.289c0.179-1.193-0.723-2.88,0.91-3.642c-0.024,0.783,0.351,1.167,0.91,1.365
		c-0.53-2.436,0.157-2.265,0.456-4.552c2.092,1.19,2.247-4.513,1.365-6.372c2.424,1.61-0.442-2.947,2.275-1.365
		c0.102-0.86-0.513-1.004-0.455-1.82c-0.895-0.136-0.902,0.614-1.365,0.91c0.349-1.021-2.103-1.451-0.455-2.275
		c-0.024,0.783,0.35,1.166,0.91,1.365c1.182-6.453-3.785-11.961-7.737-13.199c1.278-0.729-0.987-1.701-0.911-2.731
		c-1.771,0.753-3.512-3.366-4.551-4.551c0.171,0.195-0.626,0.413,0-0.911c-4.111-3.93-7.462-8.62-10.469-13.654
		c0.729-0.611,0.144-3.759-0.91-4.097c-0.18,0.783,0.676,1.167,0,1.366c-0.906-2.279-2.742-3.631-3.186-6.372
		c0.892,1.474,1.465-1.187,0.455-1.366c-0.899,1.309-0.711,1.973-2.731,1.366c0.109,1.777-1.691,1.646-2.731,2.275
		c-4.215-1.552-8.432-6.361-14.11-6.827c-1.943-0.159-8.933-0.063-8.192,1.365c-0.409-0.805-1.099-1.329-1.366-2.275
		c-2.157,0.433-5.337,2.234-6.372,2.275c1.465-0.634-2.205-0.198-0.455-1.365c-1.956-0.215-0.583,1.225-1.366,1.365
		c-2.052-1.127-4.506,1.248-5.917,2.276c-0.227-2.357-2.296,1.965-3.641,0c-1.754,3.573,1.818,3.409,0.455,6.372
		c-0.005-0.697-1.242-1.496-0.91,0C54.742,88.777,51.48,90.724,54.791,91.323z M119.423,128.646c-2.48,1.07-1.228,8.266,0.91,8.648
		c-0.296,0.462-1.047,0.471-0.91,1.365c-1.924-1.111-0.551-5.519-2.731-6.372c1.118-1.971,0.725-4.539-0.91-5.917
		c2.812,0.076,5.811,3.896,7.282,6.827c1.708-0.357-1.197-2.817,0.91-2.275c-0.649,2.791,1.961,4.178,0.455,6.372
		c-1.933-0.039,0.112-4.058-1.82-4.097c-0.948,0.254,0.676,1.369-0.91,0.455c0.28,2.17,1.275,2.73,0,4.552
		c-1.574-0.942-0.905-5.755-0.91-7.737c-0.425,0.333-0.69,0.827-0.91,1.365C118.77,131.46,120.78,129.432,119.423,128.646z
		 M100.306,90.868c-0.573,0.113-0.46,0.905,0,0.91c-0.315,0.609-1.214-0.225-2.276,0.455c0.68-0.533,0.536-1.891,1.821-1.82
		c0.785-2.855-2.253-4.306-1.366-6.827c2.374,2.633,3.636,6.378,5.007,10.013C103.857,94.415,101.801,89.922,100.306,90.868z
		 M60.708,92.233C59.014,93.822,58.398,90.992,60.708,92.233L60.708,92.233z M95.299,93.144c0.665,0.397,1.762,0.362,1.366,1.821
		h-1.821C94.786,94.148,95.401,94.005,95.299,93.144z M123.973,121.818c-1.889,3.035,3.434,5.892,0.455,8.648
		c-1.018-0.196-0.185-2.244-0.455-3.187c-3.111-3.734-3.216-9.248-9.558-10.469c-1.281-0.221-1.025,1.626-1.821,2.276
		c0.267-0.218-2.587-0.749-0.91,0.455c-1.541,1.632-6.767-3.051-7.282,0.455c-0.425-0.258-0.689-1.266-0.91-0.455
		c-0.349-1.283-0.773-1.98-1.82-5.007c1.406,0.602,3.166,2.642,5.006,1.365c-0.304-2.188-1.17-1.447-3.186-1.365
		c-0.463-1.661-1.129-3.119-1.82-4.552c-0.41,0.404-0.037,1.386-1.821,1.365c0.012-0.442,0.557-0.353,0.91-0.455
		c-1.325-1.337-2.238,1.628-2.276,1.821c-0.599,3.011,4.779,7.851,2.276,11.834c-2.503-4.325-2.013-11.643-4.096-16.386
		c-2.729-0.042-3.658-0.729-4.552,1.365c1.516-0.121,3.127-1.652,4.552-0.455c-0.93,5.451-3.969,5.115-6.828,7.282
		c0.446,1.071,2.626,0.408,3.186,1.365c0.005,2.098-5.912-1.651-3.186-2.275c0.047-0.826-1.113-0.128-0.91,0
		c-0.12-0.075-1.461-2.18-1.365-1.82c-1.802-6.738,7.29-13.884,9.103-17.751c0.58,0.634,2.229,0.198,2.275,1.365
		c1.54-1.422,3.161-0.803,4.552-0.91c2.163,4.583,3.68,8.739,5.917,12.289c0.829-2.356-2.01-4.961-2.276-7.737
		c3.443,4.598,5.451,10.631,9.104,15.02c1.778-0.426,0.217-2.522-0.455-3.186C118.662,113.783,120.085,120.243,123.973,121.818z
		 M79.369,100.882c-0.049,0.923-1.499,3.403-2.731,5.007c-1.755,2.283-4.075,4.133-5.007,6.827
		C72.076,108.454,77.096,104.831,79.369,100.882z M69.356,112.261c-0.928,0.253-0.893,1.369-1.821,0.455
		c0.872-0.948,1.744-1.897,3.186-2.276c0.13,0.803-2.144,1.41-0.91,1.821C69.724,112.776,69.354,112.514,69.356,112.261z
		 M78.459,112.261c1.402,0.453-0.507,1.229-0.911,1.365C76.143,113.169,78.855,113.195,78.459,112.261z M63.439,115.446
		c0.173-0.866,0.579,0.291,0.455,0.91C63.721,117.223,63.315,116.066,63.439,115.446z M83.92,117.267
		c0.292,0.322-0.374,3.548-1.82,3.642C82.204,119.654,82.931,118.68,83.92,117.267z M114.416,118.178
		c0.185-1.134,1.764-0.027,1.365,0.91C115.183,118.927,115.065,118.286,114.416,118.178z M89.837,118.633
		c0.952,0.564,1.711,1.323,2.276,2.275c0.246,2.37-0.874,3.374-0.91,5.462C90.625,124.033,91.675,120.589,89.837,118.633z
		 M95.299,120.908c-0.124,0.938-2.015,0.108-1.821,1.365C92.135,121.617,94.021,120.441,95.299,120.908z M81.645,121.818
		c0.793,0.505-2.131,4.464-3.186,5.007C78.949,124.584,81.021,123.926,81.645,121.818z M119.423,126.37
		c2.012,2.047-2.19-0.474-2.276-1.82c-3.729,0.199-6.138-0.136-9.103,1.365c1.076,1.13,0.004,2.679,0,4.096
		c-1.388-1.219-0.004-2.396-0.911-4.096c-1.578-0.365-1.749,0.678-3.186,0.455c5.238-2.276,14.88-4.976,18.206,1.365
		C120.541,127.981,121.034,126.124,119.423,126.37z M98.94,125.915c0.241-0.366,0.475-0.739,0.455-1.365
		c1.92-0.009,0.171,3.649,0.911,3.641C98.493,129.164,100.785,125.537,98.94,125.915z M114.871,125.46
		c-0.808-1.215,1.17,1.165,0.91,2.275c-0.442-0.013-0.354-0.557-0.455-0.91c-0.388-0.084-0.43,0.178-0.455,0.455
		C113.697,127.171,115.496,126.497,114.871,125.46z M111.229,126.37c0.411-1.233,1.019,1.04,1.82,0.91
		c-0.55,0.906-0.374,1.944,0,2.275c-1.145,1.694-0.957-1.729-0.91-2.73c-0.387-0.084-0.429,0.178-0.455,0.455
		C110.972,127.119,112.083,126.479,111.229,126.37z M85.286,127.735c0.798,0.416,1.582,0.847,1.365,2.275
		C85.27,130.179,85.706,128.528,85.286,127.735z M83.01,130.467c0.531,0.683,1.315,1.112,1.366,2.275
		C82.953,132.95,82.92,131.77,83.01,130.467z M97.575,130.922c0.424,0.485,1.679,0.142,1.365,1.365
		C97.948,132.369,97.492,131.914,97.575,130.922z M81.645,131.832c2.373-0.046,0.933,5.161,1.82,4.096
		c1.396,0.447-0.523,1.215-0.455,1.821c-0.548-1.727-0.949-3.603-1.821-5.007C81.632,132.73,81.543,132.186,81.645,131.832z
		 M86.196,135.473c1.427-0.213,1.283,1.145,1.821,1.821c0.366-0.241,0.738-0.475,1.365-0.455
		C88.713,138.792,86.556,136.604,86.196,135.473z M86.196,139.569c1.242-0.331,0.916,0.904,1.821,0.91
		C87.731,141.587,85.717,140.721,86.196,139.569z M103.947,135.473c-1.344-0.652,1.056-0.349,0.455,0.91
		C104.049,137.214,103.913,136.111,103.947,135.473z"/>
	<path class="st0" d="M81.189,143.211c1.284-1.326,0.568,1.361,2.276,0.91c-0.056,4.607,1.12,7.983,3.186,10.469
		c-1.791,0.051-6.308-3.312-5.462-5.917c-0.144,1.561-4.006-4.838-4.096-5.917c-0.098-1.173,0.531-2.216,0.91-3.187
		C79.368,140.346,82.459,141.252,81.189,143.211z"/>
	<path class="st0" d="M52.97,78.124c0.978,1.305-0.75,3.785-1.82,4.552C51.179,80.581,52.682,79.96,52.97,78.124z"/>
	<path class="st0" d="M189.06,82.221c-0.582-5.843-0.326-3.568-0.91-0.911c0.248-1.13-1.712,1.439-1.365,1.821
		c-0.055-0.757,0.248-4.122-0.455-2.732c-0.078,0.682,0.162,1.68-0.456,1.821c-0.221-0.538-0.485-1.032-0.91-1.366
		c-1.154,1.273-1.248,3.606-1.82,5.462c-0.277-1.088,0.571-3.303-0.455-3.641c-1.195,2.516,0.636,5.232-1.365,6.827
		c-0.221-3.268,1.317-4.905-0.455-6.827c0.026,1.999-0.184,3.762-0.911,5.006v-5.006c-1.485,0.576-1.11,3.023-2.275,0.455
		c-0.921,1.657-1.758,3.4-2.73,5.007c-0.212-0.871,1.402-1.96-0.455-1.821c-0.206,2.177-0.206,1.921,0,4.097
		c-1.333-0.119-1.398,1.029-2.732,0.91c1.756-1.438,2.816-5.975,1.82-8.647c-0.679,0.533-0.535,1.891-1.82,1.82
		c-0.008-0.666,1.92-1.442,0-1.365c-1.244-0.62-2.954,2.19-5.007,2.275c0.033,1.701-0.73,2.606-1.82,3.187
		c1.213-2.224,0.544-1.145-0.455-1.366c0.037-1.32,1.045-2.187,0.455-3.186c0.139,1.2-0.95,1.174-1.82,1.365
		c0.199-0.503,2.01-2.361,0.91-1.365c-1.584,1.452-0.906-0.303-3.186,0.455c-0.007,1.207,0.253,2.681-0.91,2.73
		c-0.271-0.81,1.334-1.89,0-2.275c-0.711,0.828-1.191,4.24-2.275,3.187c0.015-1.084,2.331-2.172,0.91-3.187
		c-0.501,2.077-2.195,2.963-3.186,4.552c0.51-1.833,1.982-2.786,0.911-4.097c-0.009,2.384-2.946,4.203-0.911,5.917
		c-1.35,0.167-2.245,0.789-2.73,1.82c2.306-1.101,5.743-1.358,5.917-3.641c1.096,0.142,2.204-1.986,3.187-0.455
		c-2.183,1.915-5.025,3.168-7.738,4.551c0.973,0.998,4.366-1.188,5.007-0.455c-0.673,0.237-1.147,0.674-1.82,0.911
		c-3.202,0.488,1.334,0.488,2.275,0c-1.231,1.459,2.081,1.288,3.187,1.82c2.332-1.179,3.375-1.707,5.462-3.642
		c-0.675,2.208-3.113,2.653-4.552,4.097c1.867,1.719,5.459-0.089,6.827,1.365c2.046-1.392,5.582,0.128,7.282-0.91
		c0.792-0.483,0.758-2.771,2.275-1.365c0.687-0.83,0.483-2.552,1.366-3.187c0.411,0.503,1.018,0.315,1.82,0
		c0.487-2.442-0.289-3.869,0.91-5.007c0.07,2.074,0.377,1.786,0,3.642c2.258-0.018-0.175-4.727,1.365-5.462
		c0.185,1.355-0.44,5.873,0.455,5.007c0.054-2.333-0.328-3.044,1.366-1.82c0.031-1.953,1.263-4.126,1.365-2.276
		c0.22-1.449,1.433-1.904,1.365-3.641C189.617,82.573,189.073,82.663,189.06,82.221z M159.02,87.682
		c1.134,0.186,0.027,1.765-0.91,1.366C158.271,88.45,158.912,88.332,159.02,87.682z M170.854,86.316
		c-0.135,0.927-0.912,1.213-1.365,1.821C168.747,88.083,169.923,86.196,170.854,86.316z M179.047,86.772
		c-1.254,1.81-0.314,3.528-1.82,5.462C176.77,91.152,177.513,87.375,179.047,86.772z M168.579,88.593
		c1.145,0.457-0.362,2.013-1.366,1.82C167.347,89.485,168.445,89.521,168.579,88.593z M163.572,90.868
		c1.508-0.25-5.79,4.133-1.365,0.91C162.674,91.439,163.021,91.113,163.572,90.868z M160.841,91.323
		C162.301,90.697,157.354,92.817,160.841,91.323L160.841,91.323z M170.399,94.055c1.249,0.77,1.252-3.416,3.186-1.821
		c-0.086,0.517-0.456,0.253-0.455,0c-0.862,1.262-1.752,2.495-2.73,3.642c-1.318-0.255,0.698-0.711,0.455-1.365
		C170.938,94.122,170.677,94.08,170.399,94.055z M176.771,93.599c1.417,1.802-1.385,2.829-2.275,2.731
		C174.119,95.063,176.873,95.8,176.771,93.599z M168.579,95.875c0.652-1.345,0.349,1.056-0.911,0.455
		C166.838,95.977,167.94,95.841,168.579,95.875z"/>
	<path class="st0" d="M153.558,91.323c-0.533-0.073-0.384-0.83-0.455-1.365c-1.828,0.144-0.653,3.291-3.185,2.731
		c0.498-1.625,1.56-2.688,3.185-3.186c-0.045-2.169,0.848-3.4,1.365-5.007c-2.116,0.034-1.956,4.799-3.641,5.917
		c-1.283-1.313,1.263-2.659,1.365-4.097c-0.194-0.889-1.301,0.744-0.91-1.365c-1.542,1.189-0.395,3.176-1.365,5.462
		c-1.019-0.196-0.185-2.243-0.456-3.187c0.043,5.202-2.742,7.574-5.917,9.559c0.795-0.928-0.339-0.893,0.456-1.82
		c-2.263,1.219-1.63,3.322-4.097,3.641c-0.106-2.381,1.59-2.962,1.365-5.462c-3.413,3.205-0.834,9.622-6.827,10.014
		c3.407-3.146,6.273-11.075,3.642-17.296c2.352,0.039,2.293,2.271,2.73,4.552c3.307-5.737-4.417-7.018-8.192-9.559
		c-7.289,2.06-17.115,1.618-23.668,4.097c-0.392,0.148-0.395,0.449-0.455,0.91c-1.478,0.265-2.118-0.311-3.187-0.455
		c-0.343,1.708,1.739,0.992,1.82,2.275c0.331,1.393-0.785,1.339-0.455,2.731c-0.675-0.641-0.979-1.452-0.91,0.455
		c-1.024-0.396-2.465-4.533-0.91-4.552c-0.76-1.667-2.166-2.688-2.73-4.551c1.496,0.324,1.531,2.109,3.185,2.275
		c1.538,0.173,1.942-0.789,2.731-1.365c7.27-0.785,11.716-1.718,17.751-3.187c1.885,0.214,4.772,1.87,5.461-0.455
		c1.44,0.625,1.521,0.1,3.186,0c0.296,0.463,1.046,0.471,0.91,1.365c3.976-0.703,7.081,5.122,10.469,5.007
		c0.236,0.674,0.673,1.147,0.91,1.82c0.945-0.116,0.124-1.999,0.91-2.275c1.876,1.125,0.855-0.987,2.731-0.91
		c-0.343,1.908,1.738-0.618,1.82,1.365c1.587-0.537,1.155-3.092,3.186-3.186C155.977,84.918,154.688,88.154,153.558,91.323z"/>
	<path class="st0" d="M17.924,93.599C20.022,94.501,17.373,96.553,17.924,93.599L17.924,93.599z"/>
	<path class="st0" d="M133.987,108.619c-3.41-3.417-7.948-5.707-11.834-8.648c-0.793-0.034-1.416,0.102-1.82,0.456
		c-2.035-1.381-5.744-3.254-8.648-2.276c0.559,2.679,2.23,4.675,4.552,6.372c-0.129-0.094,0.221-0.71,0.455-0.455
		c0.235,0.256-0.586,0.723-0.455,0.91c1.576,2.261,4.926,5.712,8.192,6.372c0.068,0.014,0.379-0.777,0.911-0.455
		c2.655,1.613,3.76,4.015,4.551,6.827c-1.319-1.42-2.536-5.34-4.551-4.551c3.309,1.697,3.828,6.185,5.916,9.103
		c2.045-1.068,0.225-2.769,0.911-4.096c0.062,0.848,0.299,1.521,0.91,1.82c-0.25-1.696-1.141-5.625-2.276-3.642
		c1.191-2.26-2.223-4.452-2.275-4.552c-0.77-1.43-0.408-5.528-4.097-5.006c1.476-0.267,0.852-0.957,1.366-1.366
		c3.419,4.016,5.51,9.358,8.647,13.655c1.12-0.539-0.932-1.72,0.455-2.276c-0.063,1.732,1.317,2.02,2.731,2.276
		C138.174,114.933,135.078,112.43,133.987,108.619z M126.25,111.35C124.276,111.16,126.729,108.708,126.25,111.35L126.25,111.35z
		 M126.705,105.433C128.085,103.75,128.238,106.815,126.705,105.433L126.705,105.433z M121.243,106.344
		c0.858,1.417,2.648,1.903,3.641,3.186C123.903,110.034,121.179,108.396,121.243,106.344z M132.167,112.261
		c2.804,2.983,2.429,5.215,0.91,2.275C132.464,113.35,132.356,114.207,132.167,112.261z"/>
	<path class="st0" d="M101.672,109.074c0.958-2.518,6.389,1.239,1.82-0.455C102.676,108.562,102.532,109.177,101.672,109.074z"/>
	<path class="st0" d="M106.223,109.529c0.734-1.422,1.792,0.584,2.276,0.91C109.608,111.353,106.809,109.793,106.223,109.529z"/>
	<path class="st0" d="M137.173,74.027c0.213-0.971-0.65-0.866-1.365-0.91c0.439-1.789,2.65-0.344,3.642,0
		c-0.373-1.144-0.596-2.438-2.276-2.275c0.396-1.324,0.682-0.513,1.821-0.455c-0.296-0.464-1.047-0.471-0.91-1.366
		c1.332,0.119,1.398-1.028,2.73-0.91c1.396,1.817,0.436,3.759-0.455,5.917H137.173z"/>
	<path class="st0" d="M138.084,106.799c0.945,0.428,2.123,0.052,4.096,0c5.159,1.213,6.916,5.828,11.379,7.737
		c-0.306,6.583-4.346,11.446-10.924,10.469c-0.875-2.008-1.22-4.546-4.096-4.552c0.751-5.74-3.64-13.45-8.648-16.386
		C132.221,103.269,138.795,104.557,138.084,106.799z"/>
	<path class="st0" d="M116.236,139.114c1.232,0.777,0.345,4.188-0.455,5.917c-0.649,1.402-2.276,2.044-2.275,3.186
		C111.465,144.509,114.467,141.571,116.236,139.114z"/>
</g>
<g>
	<path d="M160.747,5.703c-0.41,0.169-0.82,0.253-1.229,0.253l-0.615-0.062l-1.722,0.922l-0.922,0.154
		c-0.513,0.512-0.922,0.871-1.229,1.076c-1.127,0.431-2.06,1.056-2.798,1.875c-0.102,0.819-0.461,1.486-1.076,1.998
		c-0.102,0.717-0.358,1.281-0.769,1.69v3.413c0,1.885,0.103,3.176,0.308,3.873l-0.308,1.23v10.36l0.154,0.615
		c0,1.229,0.256,2.931,0.769,5.103v2.613l0.769,1.722v0.461l0.153,0.768v8.945c1.968,4.038,4.755,6.876,8.361,8.515h2.613
		c2.459,0,4.263-0.153,5.41-0.461c1.66-1.127,2.9-2.521,3.72-4.181v-2.152l0.153-0.615v-2.644l0.154-0.461l-0.154-7.87l0.154-1.721
		l0.153-0.462l0.154-1.69l0.153-1.23v-2.182l-0.153-0.615l0.153-0.461c0-0.615-0.102-1.178-0.308-1.691
		c0.143-0.348,0.216-0.666,0.216-0.953l-0.062-0.431l-0.61-0.461h-7.657c-0.733,0.553-1.486,0.83-2.259,0.83l-0.671-0.062
		l-0.327,0.461v1.168v0.983v1.691l0.151,0.492l0.152,4.918c1.314,0.205,2.438,0.625,3.369,1.26l0.152,0.461v1.537v0.799v0.892v1.015
		c0,0.635-0.071,1.229-0.212,1.783c-0.403,0.513-0.816,0.922-1.239,1.23l-1.666-0.154c-1.412-1.537-2.37-3.24-2.872-5.108
		l-0.787-0.922v-4.646c0-0.512,0.046-0.924,0.142-1.231c0.112-1.558,0.356-2.851,0.732-3.877l-0.078-2
		c0-3.876,1.055-7.229,3.166-10.061c1.66,0,3.105-0.308,4.334-0.922c1.845,0,3.393-0.307,4.643-0.924l0.153-0.768l-0.153-4.491
		l0.153-1.723c0.267-0.82,0.399-1.642,0.399-2.461l-0.092-1.231l0.153-0.922L171.26,6.78c-0.819,0-1.496-0.256-2.028-0.77
		l-0.615-0.154L160.747,5.703z"/>
	<path d="M135.044,7.728c0,1.541,0.277,2.907,0.83,4.097l0.154,16.018c0.532,1.315,0.86,2.516,0.983,3.603l-0.185,0.648v0.985
		l0.185,0.494l0.153,8.686l0.154,0.985v0.801c0.164,0.514,0.246,1.018,0.246,1.51l-0.061,0.617l0.307,4.896
		c-0.107,0.844-0.107,1.778,0,2.804c0,2.032,0.113,3.501,0.339,4.404h4.888h0.86c0.554,0,1.086-0.071,1.599-0.215l0.153-0.338
		v-5.534l0.984-3.597l-0.038-1.629v-4.088l0.038-6.056c0-0.308,0.051-0.523,0.153-0.646v-2.767l-0.153-0.646l-0.038-1.322
		c0-2.726,0.012-4.088,0.038-4.088c0.102-0.758,0.266-1.404,0.491-1.936v-0.492l0.154-0.83l0.338-1.138v-4.088
		c0.533-1.414,0.86-2.602,0.983-3.566c-0.737-1.803-1.106-3.576-1.106-5.318c0-0.574,0.041-1.148,0.123-1.722l-0.338-1.291
		c-0.902,0.266-1.763,0.399-2.582,0.399c-1.21,0-2.306-0.309-3.29-0.929l-2.767-0.191L135.044,7.728z"/>
	<path d="M109.697,9.255l-0.154,0.676v5.684c-0.553,1.496-0.83,2.908-0.83,4.239c0,1.168,0.216,2.274,0.646,3.318
		c-0.103,1.353,0.062,2.583,0.492,3.688h7.224l0.861,0.861l-0.338,3.692v0.492c-0.8,1.909-1.138,3.704-1.015,5.385l-1.015,1.169
		v0.492c0,1.026-0.051,1.928-0.153,2.707l-0.677,1.354c-0.553,3.344-1.619,6.194-3.197,8.553l-0.338,1.508v0.676
		c0,0.904,0.113,1.631,0.338,2.185v3.538l0.185,0.492l0.154,3.354c0.901,0.574,1.793,0.861,2.674,0.861
		c1.455,0,2.694-0.295,3.72-0.887c0.328,0,0.543-0.053,0.646-0.158h2.521l1.169-0.185c1.127,0,2.142-0.164,3.043-0.491
		c1.004,0.327,1.896,0.553,2.675,0.676c0.553-0.451,1.004-0.902,1.353-1.352v-2.183c0.45-1.455,0.676-2.797,0.676-4.027
		l-0.338-0.338l-0.861-1.015l-4.026-0.154l-1.168,0.031c-1.189,0-2.255-0.123-3.197-0.369l0.522-0.832
		c0.225-0.902,0.563-1.692,1.015-2.369l0.491-1.662l0.339-0.34c0.327-0.451,0.491-0.902,0.491-1.354l0.677-0.83
		c0.226-0.902,0.614-1.692,1.168-2.371c0.226-1.106,0.625-2.112,1.199-3.016c0-0.676,0.051-1.24,0.153-1.692
		c0.45-0.553,0.728-0.994,0.83-1.323c0.123-1.23,0.461-2.246,1.015-3.047v-1.324c0.676-1.127,1.065-2.194,1.168-3.2l0.522-0.492
		c0.554-1.805,1.332-3.262,2.336-4.371v-0.676l0.339-1.848l-0.154-0.676l0.492-1.354c0-1.229,0.112-2.235,0.338-3.016v-6.893
		c-1.578-1.004-3.197-1.456-4.857-1.354c-1.005-0.615-1.998-0.924-2.982-0.924c-0.983,0-1.957,0.325-2.92,0.974h-2.183l-3.351-0.974
		h-7.04L109.697,9.255z"/>
	<path d="M103.241,6.386c-0.758-0.102-1.496-0.154-2.213-0.154c-1.455,0-2.838,0.215-4.15,0.646l0.174,2.121l0.145,0.953
		c0.096,0.738,0.299,1.721,0.608,2.951c0,1.619,0.105,2.757,0.319,3.413v0.922c0,1.373,0.254,2.634,0.765,3.781v16.108
		c-0.262,1.004-0.492,1.506-0.692,1.506c-0.223,0-0.422-0.656-0.603-1.967l-0.782-2.306c-0.109-1.291-0.282-2.367-0.52-3.228
		c-0.434-0.943-0.663-1.865-0.683-2.767c-0.087-3.771-0.779-6.917-2.077-9.438v-4.734c-0.632-1.517-0.898-2.931-0.796-4.242
		l-1.13-0.308h-2.753l-1.774,0.154l-5.84-0.154l-0.336,0.154c-1.163,0.533-2.345,0.861-3.547,0.983
		c0.533,0.963,0.861,1.834,0.984,2.613v8.3c0.533,1.066,0.86,2.09,0.983,3.074l-0.092,1.69c0,1.824,0.297,3.484,0.891,4.98
		l-0.799,1.476v8.607c0.533,0.881,0.851,1.701,0.953,2.459c-0.103,0.533-0.267,0.963-0.492,1.291v0.983
		c0.123,0.431,0.236,1.138,0.338,2.121v3.75l0.154,1.783v4.396c0,0.963-0.051,1.824-0.154,2.582l0.339,0.338h3.719l0.707,0.109
		c1.25,0,1.875-0.892,1.875-2.676c0-0.451-0.041-0.943-0.123-1.478c-0.332-0.554-0.546-1.045-0.649-1.476
		c0.194-0.861,0.451-1.621,0.765-2.276l0.146-15.628l0.65-0.492l0.296,0.308c0,0.758,0.118,1.742,0.357,2.951
		c0.646,1.25,0.927,2.552,0.845,3.904c-0.021,0.307,0.029,0.522,0.15,0.646c0.541,1.086,0.762,2.111,0.663,3.074
		c0.521,0.779,0.892,1.435,1.114,1.967l0.15,1.783l0.553,1.138v0.983l0.103,0.338c0,1.394,0.164,2.531,0.493,3.412l0.494,0.308
		l1.79,0.184l3.27-0.184c1.008-0.062,1.819,0,2.438,0.184c1.851,0.102,3.486-0.062,4.907-0.492l0.493-1.32V52.93
		c0.102-0.43,0.153-0.974,0.153-1.629c0.291-1.474,0.291-2.888,0-4.24l-0.307-1.29l0.153-1.137v-2.12l0.153-0.492l0.339-5.192
		l-0.154-0.492l0.154-0.492v-5.684l0.153-1.138l0.185-9.77l0.153-1.783l0.339-1.781V15.2l0.307-1.781V7.55
		c-0.532-0.656-1.178-1.148-1.937-1.476l-0.491-0.154L103.241,6.386z"/>
	<path d="M65.307,9.091l-2.121,0.983c-0.431-0.102-0.861-0.379-1.291-0.83h-6.486c-0.103,0.225-0.318,0.451-0.646,0.676
		c0.144,0.471,0.215,1.047,0.215,1.723l-0.061,1.168l0.185,2.46c-0.123,0.76-0.235,1.354-0.338,1.785l-0.492,0.646
		c0.082,0.225,0.123,0.44,0.123,0.646c0,0.328-0.092,0.646-0.276,0.953l-0.154,1.138l0.953,1.969c0,0.43,0.061,0.963,0.185,1.598
		c-0.779,1.17-1.168,2.471-1.168,3.906c0,0.574,0.062,1.168,0.185,1.783c-0.468,1.518-0.701,3.066-0.701,4.644
		c0,1.559,0.232,3.147,0.701,4.766c0.103,1.416-0.277,2.769-1.138,4.06v20.112l0.154,0.984c0.656,0.164,1.322,0.246,1.997,0.246
		c1.025,0,2.091-0.196,3.198-0.586l0.338-2.279l0.953-0.803l-0.082-1.232c0-1.027,0.254-2.074,0.765-3.144l0.147-1.48l-0.147-1.448
		l0.791-0.832h4.018c0.629,0.554,1.38,0.935,2.253,1.139l0.152,3.26l0.147,0.954c0.215,0.759,0.422,1.304,0.618,1.632v0.86
		c0,1.23,0.349,2.461,1.045,3.692l0.799,0.062c0.82,0,1.629-0.236,2.429-0.707c0.451,0,0.994-0.062,1.629-0.185h1.291
		c0.123-0.204,0.348-0.42,0.676-0.646l-0.3-8.761l0.081-0.461l-0.765-1.967c0.103-0.758,0.431-1.568,0.984-2.429
		c-0.123-0.758-0.451-1.67-0.984-2.736c0-0.881,0.115-1.967,0.346-3.258v-0.492l0.288-0.307l0.131-1.137v-4.55l0.219-0.492
		c-0.224-0.533-0.55-1.076-0.977-1.629l-0.152-3.566L74.84,30.67v-1.137c0.304-1.271,0.376-2.51,0.212-3.72l-0.492-3.597
		l-0.339-0.646c0.103-0.656,0.154-1.353,0.154-2.09c0-0.758-0.051-1.568-0.154-2.428c0.493-1.373,0.738-2.89,0.738-4.55
		l-0.092-1.783l-1.291-1.475h-6.64L65.307,9.091z M63.642,22.893l0.803,0.184c0.205,0.678,0.309,1.387,0.309,2.126
		c0,0.471-0.041,0.965-0.123,1.477l0.153,0.309c0,0.555,0.215,1.11,0.646,1.664l0.184,8.192l0.153,0.832l-0.218,0.647
		c-0.687,0.184-1.313,0.276-1.878,0.276c-1.03,0-1.858-0.307-2.483-0.924c0.1-0.985,0.374-2.248,0.821-3.788l0.151-0.34l0.154-4.251
		c0.021-0.758,0.133-1.467,0.34-2.125c0.432-0.779,0.596-1.662,0.494-2.649L63.642,22.893z"/>
	<path d="M27.509,4.5c-0.41,0.431-0.613,0.851-0.613,1.259l0.154,1.72V7.94c0.533,1.045,0.851,2.027,0.953,2.948v3.132l0.154,0.615
		v4.975l0.154,0.951v1.228l0.461,3.132l-0.153,1.076c-0.109,0.677-0.109,1.392,0,2.148c0.143,0.984,0.215,1.64,0.215,1.966
		l-0.062,0.892l0.154,1.228v14.187c0,0.82,0.051,1.546,0.154,2.181v0.461c0.144,0.758,0.215,1.423,0.215,1.995l-0.062,0.799V55.6
		l0.154,1.074l-0.062,1.013c0,0.655,0.071,1.261,0.215,1.811l0.799,0.308l2.183-0.792h9.806c1.046-0.818,2.029-1.381,2.951-1.688
		l1.26-1.872l0.154-1.411l0.769-1.566l0.154-2.177c0.676-1.821,1.014-3.59,1.014-5.308l-0.062-1.228l0.922-2.792
		c0.102-1.349,0.359-2.432,0.769-3.252l0.338-3.589l0.153-0.767l0.153-1.105v-2.177c0.411-1.247,0.564-2.332,0.462-3.253V13.574
		c-0.619-1.123-0.926-2.259-0.926-3.405L49.79,9.401c-1.03-0.736-1.914-1.626-2.656-2.669c-0.948-0.102-1.679-0.408-2.193-0.921
		h-1.419c-0.619,0-1.186-0.136-1.7-0.41h-1.266c-0.816-0.308-1.593-0.523-2.327-0.646c-1.165,0.704-2.33,1.055-3.493,1.055
		L33.88,5.749c-1.493-0.702-2.922-1.054-4.291-1.054L28.61,4.756L27.509,4.5z M41.348,23.416c1.122,1.394,1.725,2.9,1.809,4.519
		l-0.085,1.66l-0.164,0.43L42.744,32.3c-0.188,2.111-0.259,3.361-0.219,3.75l-0.328,0.615c-0.328,0.799-0.547,1.455-0.656,1.967
		v2.398l-0.121,0.461c-0.341,0.943-0.593,2.295-0.753,4.058l-0.135,1.66l-0.268,1.045l-0.243,2.428v0.892
		c0,0.43-0.025,0.984-0.077,1.66c-0.051,0.676-0.077,1.127-0.077,1.353c-0.82,0.717-1.629,1.168-2.429,1.353
		c-0.492-0.697-0.789-1.445-0.892-2.244l0.154-0.615l0.277-2.244l-0.031-0.953c0-0.676,0.038-1.26,0.112-1.752V35.159l0.437-1.66
		v-2.705l0.187-0.307l0.185-1.045l0.186-1.66c-0.205-1.312-0.461-2.418-0.769-3.32c0.089-0.492,0.27-0.84,0.54-1.045H41.348z"/>
</g>
</svg>
