<!--
  SVG Music Logos
  Guns N' Roses - Appetite For Destruction v1.1.0
  https://github.com/tiagoporto/svg-music-logos
  Copyright (c) 2016-2018 Tiago Porto (http://tiagoporto.com)
-->
<svg xmlns="http://www.w3.org/2000/svg" viewBox="0 0 200 43" class="guns-n-roses--appetite-for-destruction">
  <g class="guns-n-roses__shadow" fill="#606060">
    <path
      d="M10.107 23.284v.982c0 .343.014.363.533.363h1.706v11.858c0 1.873-.713 2.81-2.19 2.81-1.387 0-2.056-.937-2.056-2.81V5c0-1.96.735-2.942 2.256-2.942 1.344 0 1.99.98 1.99 2.942v8.202h5.383V2.07s-.827-.836-.827 0v1.938c-1.62-1.763-3.66-2.644-6.084-2.644-5.488 0-8.2 2.292-8.2 6.875v25.45c0 2.335.688 3.987 2.098 4.957 1.19.838 2.996 1.333 5.464 1.333 3.337 0 5.562-.96 6.72-2.725v2.578s.826.83.826 0V22.93H10.64c-.474 0-.533.058-.533.354z" />
    <path
      d="M20.24 2.488h-1.05c-.836 0-.83-.826 0-.826h6.537v32.953c0 2.38.64 3.57 1.917 3.57 1.94 0 2.677-1.432 2.677-4.297V1.66h6.538c.83 0 .836.827 0 .827h-1.05v36.225h1.05c.836 0 .83.826 0 .826H30.32V37.83c-1.365 1.41-2.808 2.193-5.1 2.193-3.216 0-4.98-1.83-4.98-5.178V2.488z" />
    <path
      d="M95.765 2.52h-.735c-.836 0-.83-.825 0-.825h3.284s.836.826 0 .826h-.93.002v37.02h-5.784L84.96 8.075v30.637h.93c.835 0 .828.826 0 .826h-3.285c-.83 0-.836-.827 0-.827h.737-.002V2.488h-.735c-.836 0-.83-.826 0-.826h6.27l6.892 32.803V2.52h-.002z" />
    <path
      d="M107.032 3.038c0 .815-.297 1.532-.892 2.148l-5.95 6.214c-.198.22-.375.33-.53.33-.22 0-.33-.12-.33-.363 0-.132.033-.286.1-.463l3.238-7.932c.507-1.212 1.366-1.818 2.578-1.818 1.19 0 1.786.628 1.786 1.884z" />
    <path
      d="M148.174 33.69c0 4.142-2.556 6.213-7.668 6.213-2.468 0-4.297-.418-5.487-1.256-1.41-.97-2.116-2.622-2.116-4.958V8.24c0-4.584 2.59-6.876 7.767-6.876 2.226 0 4.01.584 5.355 1.752 1.432 1.212 2.148 2.92 2.148 5.123v25.45zm-5.487 2.643V5c0-1.96-.672-2.942-2.016-2.942-1.52 0-2.28.98-2.28 2.942v31.333c0 1.873.694 2.81 2.082 2.81 1.477 0 2.215-.937 2.215-2.81z" />
    <path
      d="M184.736 37.29v2.017c0 .83-.826.836-.826 0v-11.17h5.387V36.3c0 1.96.672 2.942 2.016 2.942 1.212 0 1.818-.98 1.818-2.942v-9.75c0-1.19-.54-2.28-1.62-3.272-.197-.176-1.387-1.046-3.57-2.61-1.41-1.014-2.38-1.896-2.908-2.645-.815-1.168-1.223-2.677-1.223-4.528V8.24c0-4.606 2.588-6.91 7.766-6.91 2.776 0 4.814.893 6.115 2.678V2.07s.827-.83.827 0v11.094h-5.387v-8.19c0-1.06-.066-1.745-.198-2.054-.22-.596-.76-.895-1.62-.895-1.344 0-2.016.982-2.016 2.944v6.55c0 1.256.143 2.22.43 2.894.286.673 1.046 1.472 2.28 2.398l3.438 2.514c2.115 1.72 3.173 3.54 3.173 5.458v8.237c0 4.61-2.578 6.915-7.734 6.915-2.71 0-4.76-.88-6.147-2.644z" />
    <path
      d="M168.965 2.488h-.875c-.83 0-.836-.826 0-.826h13.234v6.63c0 .83-.826.837-.826 0V3.348h-6.05V19.41h6.05v-3.305c0-.836.826-.83.826 0v8.33c0 .828-.826.835-.826 0v-3.34h-6.05v16.758h6.05v-4.945s.826-.83.826 0v6.63H168.09c-.83 0-.836-.825 0-.825h.878l-.003-36.225z" />
    <path
      d="M52.557 2.52h-.736c-.836 0-.83-.825 0-.825h3.284c.83 0 .836.826 0 .826h-.93.002v37.02h-5.784L41.75 8.075v30.637h.93s.83.826 0 .826h-3.284c-.83 0-.836-.827 0-.827h.737-.002V2.488h-.734c-.836 0-.83-.826 0-.826h6.27l6.892 32.803V2.52z" />
    <path
      d="M119.525 39.54h-6.61c-.83 0-.836-.827 0-.827h1.123V2.488h-1.123c-.83 0-.836-.826 0-.826h9.353c2.225 0 3.723.297 4.495.892 1.3 1.014 1.95 2.556 1.95 4.627v8.066c0 1.543-.375 2.7-1.124 3.47-.464.463-1.037.826-1.72 1.09l-.892.332c0 .044.397.187 1.19.43.947.31 1.686.683 2.214 1.124 1.035.838 1.553 2.193 1.553 4.065v12.178c0 .592.214.778.888.778.836 0 .83.826 0 .826h-6.375V24.4v-1.685c-.066-.595-.31-1.046-.727-1.355-.33-.242-1.112-.364-2.346-.364h-1.85V39.54zm3.702-22.014V5c0-.925-.11-1.53-.33-1.818-.332-.44-.893-.66-1.687-.66h-1.686v17.65h1.983c.617 0 1.102-.243 1.454-.728.18-.243.267-.882.267-1.918z" />
    <path
      d="M151.797 37.29v2.017c0 .83-.826.836-.826 0v-11.17h5.388V36.3c0 1.96.672 2.942 2.016 2.942 1.212 0 1.818-.98 1.818-2.942v-9.75c0-1.19-.54-2.28-1.62-3.272-.198-.176-1.388-1.046-3.57-2.61-1.41-1.014-2.38-1.896-2.91-2.645-.814-1.168-1.222-2.677-1.222-4.528V8.24c0-4.606 2.59-6.91 7.767-6.91 2.776 0 4.814.893 6.115 2.678V2.07s.826-.83.826 0v11.094h-5.387v-8.19c0-1.06-.065-1.745-.197-2.054-.22-.596-.76-.895-1.62-.895-1.344 0-2.016.982-2.016 2.944v6.55c0 1.256.143 2.22.43 2.894.286.673 1.046 1.472 2.28 2.398l3.438 2.514c2.115 1.72 3.173 3.54 3.173 5.458v8.237c0 4.61-2.578 6.915-7.734 6.915-2.71 0-4.76-.88-6.147-2.644z" />
    <path
      d="M57.944 37.29v2.017c0 .83-.826.836-.826 0v-11.17h5.387V36.3c0 1.96.672 2.942 2.016 2.942 1.213 0 1.82-.98 1.82-2.942v-9.75c0-1.19-.54-2.28-1.62-3.272-.2-.176-1.39-1.046-3.57-2.61-1.41-1.014-2.38-1.896-2.91-2.645-.815-1.168-1.223-2.677-1.223-4.528V8.24c0-4.606 2.59-6.91 7.767-6.91 2.776 0 4.814.893 6.115 2.678V2.07s.825-.83.825 0v11.094h-5.387v-8.19c0-1.06-.066-1.745-.198-2.054-.22-.596-.76-.895-1.62-.895-1.344 0-2.016.982-2.016 2.944v6.55c0 1.256.143 2.22.43 2.894.286.673 1.046 1.472 2.28 2.398l3.438 2.514c2.115 1.72 3.173 3.54 3.173 5.458v8.237c0 4.61-2.578 6.915-7.734 6.915-2.71 0-4.758-.88-6.146-2.644z" />
  </g>
  <g class="guns-n-roses__lettering">
    <path id="XMLID_523_"
      d="M9.49 23.98v.98c0 .344.013.364.532.364h1.706v11.86c0 1.872-.713 2.808-2.19 2.808-1.387 0-2.056-.936-2.056-2.81V5.696c0-1.96.735-2.942 2.256-2.942 1.344 0 1.99.98 1.99 2.942v8.202h5.383V2.765s-.825-.836-.825 0v1.938C14.662 2.94 12.623 2.06 10.2 2.06 4.713 2.06 2 4.35 2 8.933v25.45c0 2.336.69 3.988 2.1 4.958 1.19.838 2.995 1.333 5.463 1.333 3.337 0 5.562-.96 6.72-2.725v2.578s.826.83.826 0V23.626h-7.09c-.472 0-.53.057-.53.353z" />
    <path id="XMLID_522_"
      d="M19.623 3.183h-1.05c-.837 0-.83-.826 0-.826h6.536V35.31c0 2.38.638 3.57 1.916 3.57 1.94 0 2.677-1.432 2.677-4.297V2.356h6.537c.83 0 .836.826 0 .826h-1.05v36.225h1.05s.83.826 0 .826h-6.537v-1.708c-1.366 1.41-2.81 2.193-5.1 2.193-3.217 0-4.98-1.83-4.98-5.178V3.183z" />
    <path id="XMLID_521_"
      d="M95.148 3.216h-.735c-.836 0-.83-.826 0-.826h3.284s.836.826 0 .826h-.93.002v37.018h-5.785L84.34 8.77V39.41h.93c.837 0 .83.826 0 .826h-3.283c-.83 0-.836-.826 0-.826h.737-.002V3.183h-.735c-.836 0-.83-.826 0-.826h6.27L95.15 35.16V3.216h-.002z" />
    <path
      d="M106.415 3.732c0 .815-.297 1.532-.892 2.148l-5.95 6.214c-.197.22-.374.33-.528.33-.22 0-.33-.12-.33-.363 0-.13.032-.285.098-.462l3.24-7.932c.506-1.212 1.365-1.818 2.577-1.818 1.19 0 1.785.628 1.785 1.884z" />
    <path
      d="M147.556 34.384c0 4.143-2.556 6.214-7.668 6.214-2.468 0-4.297-.418-5.487-1.256-1.41-.97-2.114-2.622-2.114-4.958V8.934c0-4.583 2.59-6.875 7.767-6.875 2.225 0 4.01.583 5.354 1.75 1.432 1.213 2.148 2.92 2.148 5.124v25.45zm-5.486 2.644V5.695c0-1.96-.672-2.942-2.016-2.942-1.52 0-2.28.98-2.28 2.942v31.333c0 1.873.693 2.81 2.08 2.81 1.477 0 2.216-.937 2.216-2.81z" />
    <path
      d="M184.118 37.986v2.016c0 .83-.826.836-.826 0v-11.17h5.387v8.163c0 1.96.67 2.942 2.015 2.942 1.212 0 1.818-.98 1.818-2.942v-9.75c0-1.19-.54-2.28-1.62-3.272-.198-.176-1.388-1.046-3.57-2.61-1.41-1.014-2.38-1.896-2.91-2.645-.814-1.168-1.222-2.677-1.222-4.528V8.934c0-4.605 2.59-6.908 7.768-6.908 2.776 0 4.814.892 6.115 2.677V2.765s.826-.83.826 0V13.86h-5.388V5.67c0-1.06-.066-1.746-.198-2.055-.22-.596-.76-.895-1.62-.895-1.344 0-2.016.982-2.016 2.944v6.55c0 1.257.143 2.222.43 2.895.286.672 1.046 1.47 2.28 2.397l3.438 2.514c2.115 1.722 3.173 3.54 3.173 5.46v8.236c0 4.61-2.58 6.914-7.735 6.914-2.71 0-4.76-.88-6.147-2.644z" />
    <path
      d="M168.347 3.183h-.875c-.83 0-.836-.826 0-.826h13.234v6.63c0 .83-.826.837-.826 0V4.043h-6.05v16.063h6.05V16.8s.826-.83.826 0v8.33c0 .828-.826.835-.826 0v-3.34h-6.05V38.55h6.05v-4.945c0-.836.826-.83.826 0v6.63h-13.234c-.83 0-.836-.825 0-.825h.878l-.003-36.225z" />
    <path
      d="M51.94 3.216h-.736s-.83-.826 0-.826h3.284s.836.826 0 .826h-.93.002v37.018h-5.784L41.133 8.77V39.41h.93s.83.826 0 .826H38.78c-.83 0-.837-.826 0-.826h.736-.002V3.183h-.735s-.83-.826 0-.826h6.27l6.89 32.803V3.216z" />
    <path
      d="M118.908 40.234h-6.61c-.83 0-.836-.826 0-.826h1.123V3.183H112.3s-.836-.826 0-.826h9.353c2.226 0 3.724.297 4.496.892 1.3 1.013 1.95 2.555 1.95 4.626v8.065c0 1.544-.375 2.7-1.124 3.47-.463.464-1.036.827-1.72 1.092l-.89.33c0 .045.396.188 1.19.43.946.31 1.685.684 2.213 1.125 1.035.838 1.553 2.193 1.553 4.065V38.63c0 .592.214.778.888.778.836 0 .83.826 0 .826h-6.375V25.096 23.41c-.065-.595-.308-1.046-.726-1.355-.33-.242-1.113-.364-2.347-.364h-1.85v18.544zm3.7-22.013V5.696c0-.925-.11-1.53-.33-1.818-.33-.44-.892-.66-1.686-.66h-1.686v17.65h1.983c.616 0 1.1-.243 1.453-.728.178-.244.266-.883.266-1.92z" />
    <path
      d="M151.18 37.986v2.016c0 .83-.827.836-.827 0v-11.17h5.387v8.163c0 1.96.672 2.942 2.016 2.942 1.212 0 1.818-.98 1.818-2.942v-9.75c0-1.19-.54-2.28-1.62-3.272-.198-.176-1.388-1.046-3.57-2.61-1.41-1.014-2.38-1.896-2.91-2.645-.814-1.168-1.222-2.677-1.222-4.528V8.934c0-4.605 2.59-6.908 7.767-6.908 2.775 0 4.813.892 6.114 2.677V2.765s.826-.83.826 0V13.86h-5.387V5.67c0-1.06-.066-1.746-.198-2.055-.22-.596-.76-.895-1.62-.895-1.344 0-2.016.982-2.016 2.944v6.55c0 1.257.142 2.222.43 2.895.285.672 1.045 1.47 2.28 2.397l3.437 2.514c2.115 1.722 3.173 3.54 3.173 5.46v8.236c0 4.61-2.578 6.914-7.734 6.914-2.71 0-4.758-.88-6.147-2.644z" />
    <path
      d="M57.326 37.986v2.016c0 .83-.826.836-.826 0v-11.17h5.387v8.163c0 1.96.672 2.942 2.016 2.942 1.212 0 1.818-.98 1.818-2.942v-9.75c0-1.19-.54-2.28-1.62-3.272-.197-.176-1.387-1.046-3.57-2.61-1.41-1.014-2.38-1.896-2.908-2.645-.815-1.168-1.223-2.677-1.223-4.528V8.934c0-4.605 2.588-6.908 7.766-6.908 2.776 0 4.814.892 6.115 2.677V2.765s.827-.83.827 0V13.86H65.72V5.67c0-1.06-.066-1.746-.198-2.055-.22-.596-.76-.895-1.62-.895-1.344 0-2.016.982-2.016 2.944v6.55c0 1.257.143 2.222.43 2.895.286.672 1.046 1.47 2.28 2.397l3.438 2.514c2.115 1.722 3.173 3.54 3.173 5.46v8.236c0 4.61-2.578 6.914-7.734 6.914-2.71 0-4.758-.88-6.147-2.644z" />
  </g>
</svg>