<!--
  SVG Music Logos
  Arch Enemy - Stigmata v1.0.0
  https://github.com/tiagoporto/svg-music-logos
  Copyright (c) 2016-2018 Tiago Porto (http://tiagoporto.com)
-->
<svg xmlns="http://www.w3.org/2000/svg" viewBox="0 0 200 20.5">
  <path d="M10.867 17.676c.559-.041 2.896-.083 3.496-.083 1.096 0 3.185.041 3.434.083l-.062-.434a25.29 25.29 0 0 1-1.82-.29c-.952-1.82-2.234-5.295-2.813-6.888-.786-2.172-1.924-5.42-2.172-6.33a11.853 11.853 0 0 1 1.572-.269l.062-.434c-.6.041-2.668.083-3.537.083a71.23 71.23 0 0 1-2.689-.083l.021.434c.495.062 1.178.145 1.633.269-.29.786-4.406 11.915-5.151 13.218-.558.124-1.179.228-1.779.29L1 17.676a44.572 44.572 0 0 1 2.399-.083c.6 0 2.482.041 3.124.083l-.083-.434c-.579-.062-1.262-.145-1.779-.29.207-1.593 1.324-5.502 1.448-5.792.765-.124 4.054-.269 4.778-.269.331.6 1.799 4.986 2.172 6.061-.641.145-1.365.228-2.089.29l-.103.434zm-.124-7.405l-4.344-.083c.207-.683 1.551-4.261 2.192-6.102h.041c.352 1.137 1.656 4.819 2.111 6.185z"/>
  <path d="M24.974 10.126c0 2.172-.021 6.226-.104 6.826-.579.145-1.903.269-2.193.29l-.083.434c.476-.041 2.648-.083 3.496-.083.951 0 3.041.041 3.558.083l-.083-.434c-.455-.041-1.82-.186-2.172-.29-.062-.951-.103-4.137-.103-5.482v-.538c.352 0 1.2-.062 1.986-.124.331.434 5.833 6.785 7.281 7.447l.91-.145c-2.151-2.275-5.482-7.695-5.709-8.212 1.593-.889 2.916-2.607 2.916-3.91 0-1.138-.682-1.924-1.779-2.358-1.407-.558-3.868-.579-5.833-.579l-4.468.021.062.434c.455.041 1.862.165 2.213.248.083.393.104 4.365.104 5.11v1.262h.001zm2.317-.476c0-1.469.041-5.171.103-6.02 3.578 0 4.778 1.614 4.778 2.937 0 2.048-1.469 3-2.358 3.331-.889.331-1.779.393-2.524.393V9.65h.001z"/>
  <path d="M57.202 7.768c.021-1.965.145-4.116.455-6.392l-.476.103c-.062.248-.31 1.572-.434 1.841-.579-.165-2.503-.538-4.323-.538-2.089 0-4.013.269-6.164 1.717-1.82 1.22-3.268 3.33-3.268 6.185 0 2.648 1.593 5.006 4.282 6.33 1.676.827 3.93.91 4.696.91 3.248 0 5.337-.848 5.813-1.241l.289-.889c-1.469.869-3.33 1.117-4.902 1.117-4.365 0-7.695-3.413-7.695-7.447 0-3.227 2.379-5.957 6.144-5.957 2.668 0 4.592 1.489 4.985 2.399.062.352.124 1.324.124 1.717l.474.145z"/>
  <path d="M66.717 10.932c0 1.572-.021 5.047-.103 6.02-.393.083-1.676.269-2.151.29l-.124.434c.621-.041 2.565-.083 3.641-.083.889 0 2.937.041 3.372.083l-.103-.434a16.593 16.593 0 0 1-2.006-.29c-.083-.765-.166-3.413-.166-5.523v-.724c.29-.062 7.613-.455 8.585-.476v1.2c0 2.193 0 4.82-.124 5.523-.372.083-1.738.269-2.048.29l-.104.434a91.867 91.867 0 0 1 3.537-.083c.972 0 3.082.041 3.475.083l-.103-.434c-.414-.021-1.675-.207-2.089-.29-.145-.703-.186-4.116-.186-6.516V8.988c0-.558.041-4.82.145-5.234.6-.083 1.696-.248 2.11-.289l.124-.434c-.372.041-2.11.083-3.455.083-1.282 0-3.206-.041-3.558-.083l.104.434c.6.041 1.696.207 2.048.289.124.517.124 3.165.124 4.778v.952c-.828.145-8.067.062-8.585.062V8.533c0-1.779.083-4.22.166-4.778.331-.083 1.427-.248 2.006-.289l.103-.434c-.331.041-2.089.083-3.372.083-1.324 0-3.289-.041-3.641-.083l.103.434c.517.041 1.8.207 2.172.289.083.683.103 4.572.103 5.234v1.943z"/>
  <path d="M101.448 10.498c0 2.275-.062 6.082-.145 6.454-.559.145-1.8.269-2.131.29l-.103.434a86.175 86.175 0 0 1 3.144-.083c1.303 0 5.895.083 6.496.186.02.331.02.703.02 1.262l.434.083c.083-1.034.538-4.179.683-4.778l-.476.124c-.124.455-.228 1.096-.455 1.82-.952.538-2.896.703-4.965.703-.062-.6-.145-5.109-.145-6.371v-.413c1.779 0 3.392.124 4.034.455 0 .414-.021.952-.041 1.386l.393.166c.103-.662.476-3.496.538-3.868l-.434.041c-.041.29-.103.579-.207.89-.496.186-2.503.331-4.282.331v-.415c0-1.22.083-5.213.145-5.502 1.097 0 4.282.269 4.654.869.02.414 0 1.345 0 1.49l.455.145c.041-.641.31-3.848.414-4.282l-.476.083a7.948 7.948 0 0 1-.165.972c-.559.145-5.42.145-6.082.145-.455 0-1.138-.021-1.82-.021-.683-.02-1.365-.041-1.862-.062l.083.434c.496.062 1.758.207 2.151.289.083.641.145 3.93.145 5.792v.951z"/>
  <path d="M116.921 3.548c.786.041 1.799.145 2.275.248 0 .683-.228 12.287-.579 13.156-.476.145-1.138.207-1.717.29l-.062.434c.6-.041 2.214-.083 2.813-.083.538 0 2.689.041 3.062.083l-.062-.434c-.393-.041-1.944-.186-2.255-.29-.269-.745-.517-11.604-.455-12.018.683.786 4.613 5.585 4.902 5.896.476.538 6.206 7.219 6.826 7.798.124-.828.289-9.516.352-10.488.041-.662.145-3.579.393-4.385.559-.083 1.303-.248 1.572-.289l.083-.434c-.434.041-2.151.083-2.606.083-.455 0-2.689-.041-3.082-.083l.103.434c.579.041 1.676.207 2.089.289.414 1.076.435 8.336.435 10.633-.662-.559-3.951-4.551-4.489-5.13-.352-.372-4.51-5.585-4.964-6.288-1.613.083-3.558.104-4.716.145l.082.433z"/>
  <path d="M142.922 10.498c0 2.275-.062 6.082-.145 6.454-.559.145-1.8.269-2.131.29l-.103.434a86.175 86.175 0 0 1 3.144-.083c1.303 0 5.896.083 6.496.186.021.331.021.703.021 1.262l.434.083c.083-1.034.538-4.179.683-4.778l-.476.124c-.124.455-.228 1.096-.455 1.82-.952.538-2.896.703-4.965.703-.062-.6-.145-5.109-.145-6.371v-.413c1.779 0 3.392.124 4.034.455 0 .414-.021.952-.041 1.386l.393.166c.104-.662.476-3.496.538-3.868l-.434.041a5.01 5.01 0 0 1-.207.89c-.496.186-2.503.331-4.282.331v-.415c0-1.22.083-5.213.145-5.502 1.097 0 4.282.269 4.655.869.02.414 0 1.345 0 1.49l.455.145c.041-.641.31-3.848.414-4.282l-.476.083a7.76 7.76 0 0 1-.165.972c-.559.145-5.42.145-6.082.145-.455 0-1.137-.021-1.82-.021-.683-.02-1.365-.041-1.862-.062l.083.434c.497.062 1.758.207 2.151.289.083.641.145 3.93.145 5.792v.951h-.002z"/>
  <path d="M172.502 17.676c.6-.041 2.875-.083 3.827-.083.972 0 2.213.041 2.917.083l-.103-.434c-.372-.062-1.2-.165-1.717-.29-.352-1.303-2.317-10.881-2.71-13.197.435-.103 1.448-.248 1.738-.289l.062-.434c-.476.041-2.213.083-2.875.083a59.38 59.38 0 0 1-2.793-.083l.103.434c.373.062 1.013.145 1.407.289-.041.476-3.62 9.04-4.22 10.219-.641-1.572-3.165-8.336-3.765-10.219.393-.083.973-.227 1.552-.289l.083-.434c-.579.041-2.213.083-3.103.083-1.096 0-2.71-.041-2.979-.083l.124.434c.227.041 1.49.207 2.048.289-.311 1.696-2.565 11.915-3.02 13.218-.455.124-1.117.207-1.469.269l-.145.434a48.186 48.186 0 0 1 2.296-.083c.393 0 2.793.041 3.082.083l-.083-.434c-.31-.041-1.469-.207-1.841-.29-.083-2.668 1.137-8.419 1.675-11.584h.083c.248.786 4.137 11.108 4.716 12.391.621-1.179 4.695-11.108 5.254-12.37h.083c.248 1.531 2.048 10.839 2.089 11.604-.414.042-1.986.228-2.275.248l-.041.435z"/>
  <path d="M190.085 13.042c0 1.324-.021 3.599-.103 3.909-.476.124-1.427.248-1.821.29l-.103.434a58.348 58.348 0 0 1 2.834-.083c1.407 0 3.268.041 3.703.083l-.041-.434c-.393-.062-1.758-.228-2.007-.29-.083-.517-.104-3.289-.104-3.847v-.786c0-.496.021-1.117.083-1.469.289-.91 4.55-6.95 5.006-7.095.435-.124 1.097-.227 1.407-.289l.061-.434c-.476.041-1.551.083-2.503.083-1.138 0-2.296-.041-2.606-.083l.062.434c.269.041 1.179.186 1.613.289-.062.848-3.248 5.668-3.578 6.268-.641-1.097-2.751-4.117-3.972-6.268.476-.103 1.406-.207 1.779-.289l.103-.434c-.29.041-1.676.083-2.854.083-1.882 0-3.248-.041-3.599-.083l.083.434c.414.083 1.179.165 1.448.289.952.889 4.882 6.723 5.047 7.261.062.538.062 1.075.062 1.365v.662z"/>
</svg>
