<!--
  SVG Music Logos
  Blind Guardian - Battalions Of Fear v1.0.0
  https://github.com/tiagoporto/svg-music-logos
  Copyright (c) 2016-2018 Tiago Porto (http://tiagoporto.com)
-->
<svg xmlns="http://www.w3.org/2000/svg" class="blind-guardian" viewBox="0 0 200 42.667">
  <path d="M197.667 33.084c-1.053-.937-1.85-1.898-1.85-4.175 0-1.493.046-15.8.046-15.8v-.014c-.1-1.156.138-1.93.6-2.273.13-.092.365-.214.365-.48 0-.295-.498-.515-.842-.582 0 0-.298-.087-.434-.14l-.016-.007c-2.32-.963-3.227-2.435-4.6-4.224 0 0-7.943 4.61-8.377 4.902-.103.08-.207.13-.322.13-.14 0-.223-.174-.223-.367v-3.11c0-.377.036-.536-.04-.795v-.003c-.048-.107-.15-.18-.268-.188-.147.01-.29.056-.418.133l.01-.006c-.167.095-.33.198-.486.31l-.035.023c-.14.096-.28.188-.426.275l.024-.014-5.963 3.49.007 5.57 2.133-1.102V29.63l7.588-5.3v-3.076l-2.13 1.556v-8.874s3.857-2.313 4.38-2.615c.525-.3 1.107-.756 1.492-.756.307 0 .53.236.62.304.468.35.897.747 1.28 1.188.435.393.588 1.058.588 1.697v7.238L173.38 32.84h-72.956l.598 3.277h75.91l13.443-9.23c0 2.256-.16 4.593-1.838 6.168l.006-.005 4.697 4.69-.28.274c1.534-1.497 3.02-3.04 4.46-4.626l.247-.304"/>
  <path d="M184.27 34.292c.358-.276.675-.602.94-.968l.003-.002c.12-.3.03-.643-.22-.847-.24-.282-.617-.405-.978-.317l.01-.005c-.38.182-.734.413-1.054.687l-.007.008-4.323 2.992 2.206 2.068 3.427-3.618-.004.002"/>
  <path d="M173.367 27.96c-.8-.723-1.25-1.756-1.233-2.83l.043-8.093.942-1.998-5.374-1.4c-1.758-.465-3.622.244-4.63 1.762l-1.438 2.6c-.557 1.015-.97 2.104-1.22 3.235-.073.32-.113.644-.123.97-.01.376.007.752.057 1.124l.002.013c.427 3.166 2.248 5.976 4.962 7.66l.01.006 2.26-2.25 2.542 2.394 3.21-3.186-.01-.008zm-5.197-8.64l-.165 6.184v.003c0 .343-.146.672-.403.902-.185.123-.42.14-.62.045l-.013-.008c-.644-.394-1.17-.954-1.522-1.62v.003c-1.19-1.726-1.624-3.865-1.198-5.927v.003l.002-.013c0 .003 0 .007-.002.01.494-2.33 3.927-1.966 3.92.418z"/>
  <path d="M159.47 4.615l-.003-.01c-.028-.1-.12-.312-.268-.312-.2 0-.318.13-.46.34l-5.073 7.535 6.878-4.102-1.075-3.45z"/>
  <path d="M159.128 16.317c.11-.084.852-.597.852-.722 0-.063-.005-.13-.055-.17L156.8 12.68l-.36.263c-1.29.934-3.543 2.482-3.543 2.482l1.582 1.514v9.47c0 .508-.105.647-.18.71 0 0-.407.32-.505.41 0 0-.32.233-.32.344 0 .11.04.148.093.198l3.242 3.164 2.855-2.965c.117-.116.213-.26.213-.42 0-.235-.676-.765-.676-.765-.25-.256-.375-.374-.375-.71v-9.03c-.002-.73.14-.85.3-1.028z"/>
  <path d="M145.407 3.853h-4.633l3.58 8.886-3.57 3c.122 4.174.01 8.352-.332 12.513l6.68 2.92 5.995-7.74-7.72-19.58zm-.373 20.33l-.028-7.373c0-.553.77-.688.96-.17l3.006 8.18v.002c-.724 2.175-3.94 1.653-3.938-.64z"/>
  <path d="M138.163 27.338c0-.07-.067-.06-.095-.063-.044-.004-.66.065-1.043.005-1.323-.205-2.296-1.433-2.288-2.793v.007l.013-7.592c1.406.105 2.478 1.297 2.433 2.708 0 0-.038 2.225-.07 2.475-.04.33-.13.62-.13.66s.002.08.075.08.322-.187.438-.332l-.004.004c.15-.177.29-.364.417-.558l.003-.007.178-.265-.02.03c.754-1.1 1.284-2.336 1.56-3.64l.007-.03c.15-.572.098-1.173-.142-1.71l.025.046c-.428-.798-.9-1.572-1.413-2.32l-.045-.065c-.074-.113-.143-.228-.21-.344l.013.022c-.115-.237-.278-.446-.478-.617l-.004-.002c-.05-.03-.103-.052-.16-.064-.11-.017-.224.006-.32.065-.248.218-.45.484-.592.782v.004c-.11.19-.235.372-.376.54-.374.415-.954.576-1.488.412l-.003-.002c-.57-.275-1.008-.762-1.224-1.356l.002.008c-.126-.29-.416-.476-.732-.47h.002c-.286.065-.554.195-.78.38l-.37.272c-.998.733-2.653 1.9-2.653 1.9 1.085.494 1.774 1.585 1.753 2.782v-.01s-.04 7.438-.04 7.88c0 .694-.077.858-.298 1.055 0 0-.438.405-.52.492l-.005.005c-.065.067-.114.147-.143.236-.013.065.008.13.055.176l3.11 3.024c1.474-.99 5.41-3.613 5.41-3.613s.15-.116.15-.2z"/>
  <path d="M128.53 27.867c-.853-.455-1.38-1.348-1.363-2.313v.006l.034-7.32v-.02c-.03-.72.076-1.44.31-2.12 0 0-.002 0-.002.002l.005-.013-.002.01c.074-.146.166-.28.276-.397h-.002c.133-.132.242-.286.323-.455.024-.067.03-.14.015-.21-.023-.094-.085-.173-.172-.217-.217-.067-.446-.09-.672-.07h-.012c-.17.004-.337-.01-.502-.045l.006.002-.008-.002-4.406-1.108.008.002c-1.308-.29-2.668.17-3.534 1.192-1.356 1.584-2.402 3.41-3.082 5.38l-.007.02c-.962 2.57-.432 5.464 1.38 7.526l.016.02 3 3.422 2.47-2.356 2.62 2.38 3.31-3.31-.007-.007zm-5.425-8.7l-.11 7.383-.006-.003c-3.088-1.333-4.635-4.815-3.555-8 .694-2.012 3.676-1.508 3.67.62v-.003.004z"/>
  <path d="M107.962 28.576c.533-.138 1.1-.022 1.537.314l2.326 2.267 2.947-2.91c.09-.086.13-.21.108-.333-.094-.246-.25-.463-.45-.633l-.02-.02c-.096-.094-.19-.19-.28-.29l.017.02c-.074-.087-.13-.188-.162-.298l-.002-.012c-.064-.39-.074-.783-.03-1.176v-8.53c0-.49.125-.625.268-.72.144-.097.574-.37.685-.45l.003-.002c.082-.054.225-.15.225-.232 0-.06-.027-.11-.078-.147l-3.253-2.71c-.933.65-2.392 1.742-2.768 1.996-.376.253-.762.564-.762.564-.02.03-.04.06-.053.092-.035.078-.034.168 0 .246.12.184.28.342.465.46v.002c.113.084.218.176.316.275.45.51.687 1.173.664 1.855v-.01l-.073 7.59v.006c-.003.838-.683 1.513-1.52 1.51-.836-.003-1.51-.682-1.51-1.518v.003s-.016-7.875-.016-8.41c0-.63.062-.832.293-1.006.11-.09.562-.407.673-.495l.012-.01c.083-.062.15-.144.2-.237v-.002c.02-.068-.002-.142-.058-.186l-3.122-2.727c-.878.602-1.742 1.224-2.59 1.867 0 0-1.01.762-1.01.93 0 .246.286.36.607.592.53.414.837 1.054.824 1.728v-.003l-.032 8.105v.01c-.004.106-.013.212-.03.318l.002-.013c-.037.17-.046.345-.027.517v.006c.007.03.007.06 0 .088-.035.095-.09.18-.165.246l-.002.002c-.094.092-.192.18-.293.263l.012-.01c-.102.08-.198.168-.29.26l-.007.005c-.073.07-.13.153-.166.247-.018.07.003.146.055.196l3.417 3.413.002-.01c.468-1.44 1.647-2.535 3.12-2.896l-.01.002"/>
  <path d="M83.77 32.838c-.257 0-.37.057-.37.144 0 .178.67.794.67.794.913.834 2.28 1.378 3.133 1.38 2.094.006 4.832-1.72 5.512-2.32H83.77z"/>
  <path d="M94.41 37.57c.59-.526 1.2-1.026 1.834-1.497.242-.165.548-.202.822-.1.442.255.81.62 1.063 1.064l-.008-.012c.363.558.865 1.012 1.457 1.315l.01.006.27.14c.257.16.552.25.855.267h.002c.072-.01.14-.036.197-.08.083-.067.13-.17.13-.275-.016-.146-.063-.287-.14-.412l.008.013c-.092-.16-.19-.316-.296-.467l-.02-.028c-.107-.155-.206-.315-.296-.48l-.01-.022c-.846-1.695-1.25-3.436-1.25-5.433s.03-17.442.03-17.442l-9.67 7.13-.06 3.41 5.45-4.006V30.443c-.003.508-.06 1.015-.17 1.51l.003-.02c-.08.354-.21.693-.393 1.006l-.003.005c-2.91 5.002-10.223 4.74-12.77-.457l.012.023-2.77 1.97-.006-.01c2.487 4.55 7.957 6.56 12.8 4.71h-.003c1.043-.39 2.023-.93 2.91-1.6l.01-.01"/>
  <path d="M75.503 36.116l12.81-9.672.147-16.853v-.006c.007-1.685 1.94-2.628 3.273-1.598.332.24.62.533.854.868l-.003-.003c.227.33.51.62.833.856l-.01-.007c.927.68 2.077.984 3.225.85h-.005c.39-.044.77-.16 1.118-.345l.01-.005c.098-.045.186-.114.253-.2.032-.053.035-.12.01-.175v.002c-.06-.096-.14-.175-.237-.233l.01.006c-.126-.08-.256-.158-.388-.228l-.03-.017c-.11-.06-.22-.122-.325-.187-1.183-.755-2.098-1.862-2.617-3.165l.01.025c.056-1.63-1.713-2.68-3.12-1.85h-.003L76.845 12.73l-.002 5.5 5.983-3.418v9.597l-11.148 8.43H30.33l-1.67 3.276h46.843"/>
  <path d="M79.237 22.08c.04-.167.09-.33.145-.493l-.003.008c.134-.32.195-.667.177-1.014v-.003c-.01-.06-.03-.12-.06-.172-.035-.053-.095-.082-.158-.078-.076.012-.148.04-.21.083-.09.06-.172.124-.25.196l.014-.013c-.188.178-.367.366-.535.562l-.012.014-.264.304.014-.016c-1.718 1.96-2.486 4.576-2.1 7.163l.002.013 3.308-2.58-.008-.028c-.332-1.3-.352-2.658-.058-3.966l-.005.02"/>
  <path d="M66.632 3.853H62l3.58 8.886-3.57 3c.12 4.174.01 8.352-.333 12.513l6.68 2.92 5.995-7.74-7.72-19.58zm-.372 20.33l-.028-7.373c0-.553.77-.69.96-.17l3.006 8.18v.002c-.725 2.175-3.94 1.653-3.938-.64z"/>
  <path d="M51.172 25.022l.108-7.34v-.002c.003-.836.68-1.51 1.515-1.51.837.003 1.514.682 1.51 1.52v-.003l.023 8.672c0 .066-.01.132-.03.196v.002c-.11.26-.267.497-.465.698l.014-.016c-.11.12-.218.246-.32.374l-.012.014c-.084.103-.148.22-.188.347-.028.13.015.262.112.35l3.102 2.962 3.272-3.146-.01-.006c-.75-.603-1.178-1.52-1.162-2.48v.006l.045-11.014-.015.002c-1.63.196-3.228-.547-4.128-1.92l.008.013-3.163 2.102-2.292-2.01-2.816 2.477v-.002c-.105.09-.156.226-.134.362.083.234.22.445.397.62.09.1.175.203.256.308.06.085.104.18.13.28.046.384.046.77 0 1.154v-.006 8.12l.002-.01c-.035.22-.05.44-.047.665v.005c.007.064.024.125.05.183.024.053.025.113.002.165-.05.085-.117.158-.198.213l-.01.006c-.102.072-.208.14-.317.2l.01-.006c-.106.06-.21.125-.312.194-.075.048-.14.112-.188.19-.025.057-.01.125.038.168l3.216 3.235 3.183-3.09-.012-.013c-.782-.894-1.2-2.047-1.176-3.228"/>
  <g>
    <path d="M43.83 25.127l.037-7.542v-.005c.005-.12.022-.238.05-.354l-.002.01c.048-.153.07-.31.07-.47v-.005c-.003-.018-.002-.038.002-.057.035-.092.09-.175.165-.24.098-.095.2-.187.304-.275l-.012.01c.108-.09.21-.185.31-.285l.008-.01c.077-.073.135-.165.17-.266v-.002c.016-.072-.012-.147-.07-.193l-3.054-2.585-.163.122c-1.278.953-2.568 1.89-3.87 2.81l.166-.118c1.01.48 1.644 1.507 1.624 2.628v-.01l-.043 8.068c.003.287-.054.762-.098.85s-.147.188-.147.188l-.51.498c-.07.075-.182.197-.182.266 0 .07.05.13.1.177l3.184 2.945 3.11-3.16-.01-.01c-.745-.82-1.15-1.89-1.135-2.996v.01"/>
    <path d="M44.625 5.175c-.07-.222-.214-.717-.374-.717-.21 0-.666.62-.762.784l-4.766 7.055 6.875-4.094s-.9-2.807-.972-3.028z"/>
  </g>
  <path d="M37.932 27.75c-1.346-.406-2.257-1.658-2.232-3.064v.007l.056-13.486v-.023c.008-1.828.542-3.615 1.537-5.148l.013-.017c.383-.52.792-1.022 1.227-1.5l-.03.035c.02-.03.04-.06.057-.09l.002-.002c.01-.018.017-.04.02-.06l-.023-.035c-.02-.004-.038-.003-.056 0-.027.007-.055.015-.082.025h.004c-.08.03-.156.063-.23.102l.02-.01c-.2.103-.397.21-.59.326l-.025.016-.32.188-7.09 4.122-.027.018c-.364.238-.745.45-1.14.633l.033-.015c-.09.04-.18.087-.263.142l-.003.002c-.043.027-.08.065-.103.11-.008.024-.003.05.014.068.026.023.056.04.09.05h-.002c.048.015.098.025.148.03h-.005c.133.014.27.016.402.007h.003c1.198-.076 2.212.873 2.212 2.074v14.648c0 .306-.687.72-.828.826-.142.107-.194.166-.194.257 0 .048.015.095.05.13l3.28 3.377 4.088-3.738-.012-.003"/>
  <g>
    <path d="M22.975 32.84h-7.62c-.446.005-.892-.002-1.338-.02l.095.005c-.068-.003-.134 0-.2.008-.042.006-.083.02-.12.04-.037.024-.06.067-.056.112.007.05.025.1.053.14h-.002c.037.06.08.115.125.167l-.01-.012c.113.126.233.246.36.36l-.025-.022.15.137.032.03c.655.595 1.442 1.027 2.297 1.26l-.01-.006c2.346.867 4.974-.055 6.262-2.194l.005-.006"/>
    <path d="M9.572 22.064c.042-.164.093-.326.15-.486l-.004.014c.142-.32.204-.668.18-1.017-.01-.062-.032-.12-.064-.175-.036-.05-.097-.08-.16-.075-.077.013-.15.043-.212.09-.088.06-.17.128-.248.203-.186.185-.362.38-.527.582l-.24.29c-1.63 1.975-2.37 4.54-2.042 7.08v.01l3.383-2.506-.007-.024c-.442-1.285-.514-2.667-.207-3.99v.004"/>
    <path d="M29.664 25.85c-.533-3.952-2.73-7.49-6.035-9.724l-.035-.015c3.19-1.926 3.832-6.276 1.34-9.044l-.01-.01-2.94-3.294L6.19 14.582v5.79l6.98-4.81v8.847L2.2 32.67v3.447h4.738s.715-.034.908-.16c.193-.127.23-.36.142-.585l-.002-.005c-.087-.352-.108-.776.195-1.005l10.476-7.918V8.437c1.51-.346 3.033.527 3.498 2.006.587 1.93.234 4.022-.955 5.652l.004-.006-1.268 1.288.002-.002c-.135.19-.21.415-.218.648v.003l-.003 3.624 2.942-2.003c4.815 3.598 5.212 10.668.828 14.782v-.002c-3.58 3.368-9.388 2.407-11.693-1.935l-2.723 1.954c2.437 4.544 7.875 6.57 12.68 4.732l.02-.01c5.424-2.06 8.7-7.606 7.89-13.352l.002.032"/>
  </g>
</svg>
