<!--
  SVG Music Logos
  Cálix - A Roda v1.0.0
  https://github.com/tiagoporto/svg-music-logos
  Copyright (c) 2016 Tiago Porto (http://tiagoporto.com)
-->
<svg xmlns="http://www.w3.org/2000/svg" viewBox="0 0 200 82">
  <path d="M78.334 26.095c4.483-4.713 2.11-15.063 1.12-16.447 1.056-1.187.924-4.483.33-6.065-.724.79-2.702 2.175-4.68 3.032C66.42 3.352 51.64 3.643 42.87 6.088c-10.482-2.77-26.04 13.514-26.5 14.173-.462.66.546 1.72 1.205 1.193.66-.527 4.15-3.334 9.192-6.73C11.36 29.094 9.56 41.294 10.37 54.474c-3.955 9.427-.956 13.547.626 15.425-3.856 3.89-5.504 4.318-9.542 4.35-.692 1.138-.388 2.275-.388 2.275s21.697-.742 29.508-.05c7.812.693 18.49.495 22.545-3.114 6.922-.427 16.92-10.14 17.303-12.213.115-.626-.443-1.163-1.45-1.78-1.17-.717-1.27 1.73-5.735 4.466-5.018 3.074-9.302 4.134-16.645 2.9-2.446 2.097-4.48 4.14-10.58 4.054-8.318-.118-13.34-11.657-13.34-24.292 0-8.473 4.91-13.524 8.594-15.16 1.78-.792 4.548-.1 6.032-2.176 4.545-6.366 15.342-16.712 26.4-16.712 7.812 0 3.362 13.645 3.362 13.645h11.272zM43 17.162c.067-2.043 1.517-5.274 2.045-6.328 3.23-1.912 9.23-2.77 12.195-1.978-6.065.66-12.46 6.13-14.24 8.306z"/>
  <path d="M114.425 20.557c-2.274 1.68-9.84 7.86-10.48 8.158-.644.297-2.65.115-2.028-.396 1.467-1.204 4.57-5.233 5.516-7.596.293-.732 4.29-.515 6.992-.167z"/>
  <path d="M157.908 18.577c.99 0 2.825 2.272 2.825 5.966 0 2.574-2.538 2.838-5.01 2.837-1.582 0-5.933.132-5.933-2.44s2.884-5.965 5.323-5.965c1.187 0 1.74-.398 2.795-.398z"/>
  <path d="M151.9 33.445c1.45-.066 3.098.264 3.823.923.725.66-4.68 8.108-6.46 9.954-1.78 1.846-10.745 13.843-7.844 13.843 2.9 0 6.822-2.85 7.514-4.285.643.1 1.78.148 1.78.148s8.767-7.037 9.525-8.586c.757-1.55.955.1.526.89s-13.415 15.49-21.72 15.49c-5.44 0-5.896-2.257-5.896-4.877 0-1.862 2.546-5.577 4.564-9.748 2.22-4.59 5.033-8.47 5.362-10.693.336-2.274-4.608-2.375-5.465-2.375-.856 0-.576-1.146-.246-1.146s5.883.082 8.372-.428c1.9-.39 5.405-.46 5.768-.33s.56.757.396 1.22z"/>
  <path d="M113.93 44.882c-.79.94-6.28 8.207-7.812 8.85-1.533.643-4.153 4.038-6.493 4.038-1.74 0 0-2.9 0-4.483s11.474-19.545 12.13-20.7c.212-.374-4.994-.065-5.588-.114-.593-.05-1.73.84-2.818.84s-2.62-1.434-3.66-1.434-3.873.493-5.405 1.004c-10.07.83-19.61 11.643-20.204 19.084-.395.198-2.867 3.856-3.658 5.372.494.396 3.494 1.846 5.11 2.142.675 1.69 2.3 2.975 4.234 2.975 3.527 0 9.773-4.458 11.85-6.106 0 .792.065 6.165 3.723 6.165 8.48 0 18.95-17.133 19.33-17.732l-.74.1zM100.087 33.61c.527.427.198 1.482-.165 2.47-.198-1.35-1.912-2.108-2.57-2.174.725-.198 2.208-.725 2.735-.297zm-6.69 16.743l-2.21-.824c-2.422 4.943-8.24 7.415-9.74 7.415-1.235 0-1.68-1.236-.743-3.69C83.75 45.28 92.942 35.07 95.784 35.07c1.558 0 2.77 1.805 2.77 4.623 0 2.82-3.526 9.575-5.158 10.663z"/>
  <path d="M141.83 19.915c.462-.363 3.15-5.85.874-5.85-3.098 0-11.042 7.746-12.92 10.482-1.88-1.12-9.623.687-10.682.78-.72.062-.557.587-.178 1.015 2.868-.222 4.49.478 4.49 1.533s-1.08 2.34-1.343 2.9c-.263.56.474 1.116-.37 3.21-1.244 3.085-1.836 2.886-3.517 5.407-1.68 2.52-5.836 12.94-5.836 14.817 0 1.878.494 3.155 1.41 3.946-.443 5.405 3.83 4.82 6.5 3.486 3.387.396 6.798-.47 8.133-1.137 1.203-.602.955-1.31-.157-.815-1.112.494-3.675.295-5.207.098.766-.148 3.115-3.14 3.436-3.955.32-.816-.396-.717-.84-.074s-2.917 2.817-4.3 3.386c-.693-.05-1.41-.717-1.36-1.36 4.767-1.093 10.98-7.68 14.118-11.968l-.54-.078c-4.286 4.84-12.17 12.393-14.345 10.292 1.31-1.83 2.843-6.452 2.398-8.232 5.587-4.4 21.12-26.54 21.385-27.067.264-.528-.026-.752-1.147-.818zm-6.912 4.128c-.445.494-4.944 5.488-5.61 7.02-.668 1.533-1.954 3.387-2.67 3.387s.172-2.423.79-3.288 5.438-6.674 6.056-7.292c.618-.618 2.15-2.72 2.694-2.72s-.815 2.398-1.26 2.893zm5.067-5.01c-.198.24-1.162.684-1.903.882.396-.915 1.36-1.88 1.78-1.755s.32.63.123.872z"/>
  <path d="M195.642 38.392c1.095 0 3.358-1.095 3.358-2.74 0-1.66-1.144-2.834-2.34-2.834-3.51 0-5.85 2.044-6.312 2.076-.46.033-.212-1.252-.212-1.977-4.35-2.373-9.033 1.812-11.01 4.086-.1-1.253.658-2.933 1.054-3.494-.79-.166-3.663 1.08-6.207.76-1.744-.222-2.066-2.046-2.132-3.365-1.845-.387-3.08 1.258-4.712 2.01-1.26.582-5.834 1.336-6.394 1.336-.56 0-.363 1.17 0 1.5.363.33 1.187-.296 2.373-.625 1.187-.33 5.208-.692 5.208 2.736 0 3.71-3.046 4.613-3.823 5.67-.412.56.016.974.824 1.055.494-1.088 2.637-1.615 3.475-3.425 1.01 1.035 1.543 2.678 1.543 5.106 0 3.724-7.507 9.254-8.528 9.254-1.376 0-1.4-1.047-1.498-2.07-4.417-.856-6.922 4.253-6.922 5.472 0 1.71.975 2.45 3.332 2.586-3.494 2.175-7.485 13.73-7.485 15.904 0 1.336 1.71 1.142 2.173.548.853-7.015 10.946-18.673 18.625-25.005.165.66.033 1.846.857 3.362s.99-1.088 3.428 3.032c2.44 4.12 7.506 1.848 8.866.427 3.692-3.856 12.097-12.657 15.59-15.26l-1.186-1.154c-3.66 7.317-14.305 5.307-17.765 1.714 3.428-1.788 7.613-7.68 11.963-7.68 2.273.003 2.57.995 3.86.995zm-3.67 10.753c-1.913 2.44-8.533 7.356-11.425 7.356-2.015 0-2.196-5.262-3.398-7.565 3.552 1.95 9.918 1.837 14.82.21zm-11.43-6.97c-.728.836-3.13 1.62-3.362.795-.23-.824.89-1.285 1.55-2.538.658-1.252 1.122-2.398 1.855-2.933.815-.595 2.725-1.32 3.714-1.254.988.066 1.35.206 1.35.775 0 .957-3.278 3.05-5.11 5.155z"/>
</svg>
