<!--
  SVG Music Logos
  Black Sabbath - Master Of Reality v1.0.0
  https://github.com/tiagoporto/svg-music-logos
  Copyright (c) 2016 Tiago Porto (http://tiagoporto.com)
-->
<svg xmlns="http://www.w3.org/2000/svg" viewBox="0 0 200 102">
  <path d="M167.986 42.503c3.74 1.094 7.588 1.756 11.595 1.786.1 4.177.103 8.258.01 12.243 1.365.078 2.73.083 4.096.16.083-4.064.083-8.13-.1-12.193 4.304.633 8.4.433 12.438 0-.35 3.774.434 7.853.002 11.785-.595 5.412-1.227 10.712-.916 15.483.256 3.926-.372 8-1.616 11.102l-12.86-.632c1.677-3.736 2.276-8.692 2.384-14.206l-4.07.08c-.163 5.572-.666 10.766-2.53 14.126-3.765-.48-7.722-.666-11.87-.56 4.237-11.33 2.092-25.74 3.438-39.175z"/>
  <path d="M144.21 45.338c5.223-.937 12.452-4.37 21.272-3.05-.508 4.396.59 8.71.825 13.19-1.903-.528-3.896-.79-6.02-.66-.025 9.594-.47 18.768-2.637 26.22l-12.037-.166c1.5-8.52 2.336-17.14 2.226-25.888-2.117-.027-4.123.275-6.02.907 1.017-3.186 1.814-6.704 2.39-10.552z"/>
  <path d="M135.433 46.065l-12.8.158c-3.863 13.59-8.965 25.414-14.694 36.343 4.74-1.135 9.48-1.72 14.22-2.054-.083-1.232.233-2.465.948-3.692 2.844-.514 5.688-.702 8.532-.416.85 1.475 1.165 2.95.948 4.424 4.055-.316 8.11-.21 12.167.316 1.146-12.484-6.612-23.07-9.322-35.08zm-9.245 21.87c.433-1.83 1.132-3.53 2.097-5.093.866 1.598 1.33 3.196 1.398 4.794l-3.495.3z"/>
  <path d="M105.87 66.744c7.08-5.852 5.234-17.087-3.41-19.6-6.108-.05-12.216.593-18.323 1.553.04 13.36-.398 26.117-1.41 38.635 13.94-1.585 26.53-3.262 28.144-13.28.23-3.665-1.564-5.867-5-7.308zm-10.028-9.65c4.27.104 3.612 4.556-.08 4.894l.08-4.894zm-.05 19.726v-4.4c4.275.126 3.77 4.357 0 4.4z"/>
  <path d="M77.15 67.84c6.637-4.98 5.677-15.3-.17-17.074-6.67.548-12.33 4.546-19.49 4.226-.563 10.01-5.82 21.696-3.45 34.323 5.834-.575 11.67-.805 17.505-.69C82.192 87.62 86.715 73.44 77.15 67.84zM66.89 78.88v-5.09c3.94-.525 4.52 5.135 0 5.09zm.516-15.006l.43-4.14c3.85.18 2.325 4.35-.43 4.14z"/>
  <path d="M49.007 76.845c-.694-7.013-1.74-13.99-5.253-20.722-4.228.706-7.898 1.74-10.8 3.21-2.744 4.69-5.157 9.824-7.296 15.324-.845 3.45-2.03 6.64-2.218 10.23-.238 4.53-1.93 8.463-3.182 11.806 3.57-1.987 7.05-3.663 10.215-4.232l.73-3.064c2.235-1.562 4.79-2.323 7.588-2.48.207 1.2.246 2.326.123 3.395 4.728-.832 9.453-.998 14.18-.914-1.68-4.184-2.97-8.367-4.086-12.55zm-10.687 3.49c-.862.124-1.723.452-2.58.985.33-2.086 1.038-3.982 2.58-5.46v4.474z"/>
  <path d="M23.896 63.7c-.678 3.73-1.767 7.257-3.457 10.483-1.286-1.093-3.503-.493-2.752 1.636 8.178 13.245 3.144 21-5.5 24.46-3.198.242-6.395.178-9.592-.336.62-3.85 1.604-7.653 3.234-11.375 2.4 2.055 4.785.222 3.792-2.566-4.857-7.74-3.156-19.448 7.472-21.797l6.802-.507z"/>
  <path d="M141.054 4.02c-1.063 13.224-1.12 26.45-.345 39.674 4.454-1.064 8.594-1.81 12.59-2.415l.172-9.315 3.622 8.452c4.57-.547 8.825-.144 12.936.69-2.264-7.045-4.67-13.796-7.39-19.9l8.886-17.132c-4.41-.072-8.82-.076-13.23 0l-4.652 9.78V3.506l-12.59.514z"/>
  <path d="M138.594 18.097l.158-15.01c-26.253-2.396-35.086 46.19-.79 41.556l.79-15.8c-2.16.97-4.32 1.74-6.478 1.105-5.574-1.558-4.967-10.72.732-12.7 1.993-.25 3.858.034 5.588.85z"/>
  <path d="M110.712 7.585l-11.973.948c-4.63 13.227-10.27 26.05-16.48 38.645 4.348-1.146 8.695-1.818 13.04-2.015-.038-1.344.396-2.687 1.305-4.03l7.23-.475c.436 1.304.712 2.608.83 3.912 4.706-.12 9.25-.12 13.634-.237-4.11-11.775-6.64-24.025-7.588-36.748zm-11 23.71c.86-1.74 1.635-3.565 2.37-5.43.063 1.77.245 3.54.687 5.31l-3.06.12z"/>
  <path d="M67.28 19.007c3.506-1.054 6.835-2.465 10.083-4.038-2.78 6.944-3.233 15.463-2.55 24.29 3.746-.483 7.313-1.468 10.802-2.574l-4.337 10.572c-2.76.663-5.472 1.552-8.207 2.696-3.624 1.516-7.543 2.18-11.58 2.59.358-9.08-.31-18.51 2.118-23.346 1.87-3.728 2.583-7.17 3.67-10.19z"/>
  <path d="M57.23 34.37c6.477-6.367 9.48-11.626 1.193-13.638-6.92.034-13.94.16-21.376.443l-.097 22.382c-.47 4.85-1.35 9.537-3.12 13.866 4.66-2.464 10.06-4.195 16.77-4.56 5.144-.804 8.157-3.74 9.403-8.44.836-4.036 1.086-7.843-2.774-10.053zM46.25 45.26l1.66-3.437h1.78c-.615 2.345-1.76 3.49-3.44 3.438zm3.81-11.345l.594-4.386c3.58-.91 4.297 4.747-.593 4.385z"/>
</svg>
