<!--
  SVG Music Logos
  Guns N' Roses - #GnFnR v1.1.0
  https://github.com/tiagoporto/svg-music-logos
  Copyright (c) 2016 Tiago Porto (http://tiagoporto.com)
-->
<svg xmlns="http://www.w3.org/2000/svg" viewBox="0 46.75 200 108.5" fill="red">
  <path d="M50.226 107.525c.118-.012.316.057.344.201s-.215.316-.344.258c-.129-.057-.287-.43 0-.459z" />
  <path d="M65.53 104.643c.13-.026.43 0 .445.114s-.063.43-.246.445-.384-.523-.199-.559z" />
  <path
    d="M197.95 114.637c-.158-.409-1.054-1.037-1.481-.986-.489.058-.958-.028-1.435-.093-.387-.053-.64-.216-.699-.626-.059-.408-.352-.504-.62-.28-.684.574-1.388.547-2.148.222a1.144 1.144 0 0 0-.406-.063c-1.164-.036-2.326 0-3.492-.088-1.079-.081-2.171-.033-3.258.053-1.325.106-2.629-.167-3.927-.375-1.114-.179-2.24-.24-3.352-.425-.495-.082-.979-.006-1.474.058-.651.084-1.099.623-1.755.668a41.157 41.157 0 0 1-3.548.068c-1.017-.018-1.978-.353-2.973-.445-1.426-.132-2.858.003-4.288.04-2.711.07-5.423.09-8.134.127-.424.006-.838.098-1.273.016-1.035-.197-2.09-.386-3.12-.491-1.289-.131-2.622.203-3.906.506-.997.235-1.973.478-3.005.24a3.45 3.45 0 0 0-.862-.065c-1.252.034-2.503.083-3.754.128-.756.027-1.532-.043-2.262.107a29.31 29.31 0 0 0-3.778 1.024c-1.28.449-2.548.845-3.92.871-2.16.04-4.286.548-6.459.46-.932-.037-1.87-.071-2.8.09-.609.105-1.222.284-1.831.277-1.082-.011-2.125.26-3.188.364-1.44.141-2.851.579-4.318.604a.482.482 0 0 0-.268.091c-.335.262-.735.306-1.131.337a8.854 8.854 0 0 0-1.539.276c-.553.144-1.11.242-1.706.207-1.179-.07-2.396-.329-3.536-.068-1.332.304-2.69.374-4.018.676-2.287.52-4.589.975-6.885 1.456-.094.02-.19.031-.286.036-.168.009-.297-.064-.365-.218-.077-.175.025-.301.158-.381.163-.099.344-.168.52-.245.169-.074.453-.088.406-.324-.053-.269-.343-.221-.557-.214-.374.014-.614.275-.882.491-.174.14-.39.256-.598.067-.197-.18-.129-.401-.025-.608.186-.373.568-.458.906-.597.566-.232.95-.972.79-1.558-.059-.214-.179-.394-.4-.181-.294.283-.65.529-.774.948-.132.448-.481.788-.868.788-.854.001-1.553.853-2.464.41-.03-.015-.086 0-.12.019-.616.342-1.319.616-1.523 1.38-.112.42-.403.574-.73.745-.54.282-1.146.287-1.721.417-1.285.289-2.566.66-3.869.795-2.137.221-4.224.636-6.301 1.158-.587.148-1.144.399-1.741.494a4.196 4.196 0 0 0-1.497.563c-.225.135-.446.165-.697.193-1.03.113-2.054-.038-3.087.441-1.529.709-3.217 1.011-4.869 1.377-.687.152-1.408.132-2.035.581-.668.478-1.584.439-2.255.956-.027.021-.082.015-.121.007-1.019-.198-1.93.339-2.807.626-1.217.399-2.402.912-3.665 1.203-.467.108-.913.172-1.378.014a1.249 1.249 0 0 0-.774-.02c-1.255.39-2.488.871-3.766 1.161-1.441.326-2.587 1.371-4.079 1.552-.305.037-.62.195-.937.285-.46.13-.959.264-1.3.6-1.04 1.026-2.438 1.316-3.72 1.785-1.129.413-2.261.807-3.358 1.304-.674.305-1.354.695-2.066.792-.914.125-1.682.634-2.585.769-.418.063-.88.107-1.275.305-1.752.877-3.638 1.462-5.342 2.443a6.486 6.486 0 0 1-1.156.526c-.791.269-1.575.578-2.327.942-.789.383-1.533.859-2.304 1.279-.661.36-1.348.676-1.999 1.054-.617.358-.918.305-1.255-.313-.026-.048-.048-.101-.083-.142-.148-.177-.342-.243-.555-.162-.178.067-.363.155-.39.383-.034.292.228.265.386.336.244.109.448.233.371.55-.146.601-.736.787-1.192.372-.151-.137-.321-.282-.502-.115-.533.49-1.212.808-1.635 1.431-.237.349-.484.727-.816.968-.54.393-.996.84-1.392 1.374-.68.917-1.615 1.616-2.242 2.581-.106.163-.343.296-.222.535.128.254.392.236.622.211.403-.044.735.031.952.412a.32.32 0 0 0 .393.153c.273-.084.712-.878.654-1.169-.085-.429-.095-.852.139-1.242.187-.312.493-.3.766-.187.301.125.153.361.052.557-.092.177-.136.347-.06.549.233.614.765.802 1.363.464.355-.201.593-.53.874-.811.314-.313.699-.621 1.125-.493.745.224 1.242-.054 1.701-.576.172-.195.392-.348.554-.55.441-.548 1.173-.673 1.653-1.141.965-.943 2.21-1.406 3.364-2.021 1.14-.607 2.375-1.055 3.458-1.747 1.411-.901 2.929-1.63 4.259-2.66.3-.232.655-.436 1.016-.537 1.854-.519 3.528-1.426 5.169-2.388 1.257-.736 2.54-1.423 3.808-2.138 1.36-.768 2.761-1.46 4.105-2.261 1.243-.741 2.725-.871 4.078-1.354 1.035-.37 2.118-.665 3.196-.943.892-.23 1.724-.699 2.692-.559a.355.355 0 0 0 .2-.043c.776-.406 1.666-.311 2.479-.561.252-.078.547-.043.819-.02.307.025.61.013.899-.077 1.041-.322 2.138-.272 3.199-.682.951-.368 1.932-.786 3.006-.912.86-.101 1.707-.397 2.591-.439.401-.019.8-.071 1.165-.242.557-.26 1.187-.358 1.751-.394 1.214-.077 2.359-.458 3.474-.796 1.128-.342 2.271-.263 3.392-.512.797-.177 1.637-.315 2.452-.469 1.004-.189 2.063-.107 3.017-.564.079-.038.19-.007.287-.011 1.035-.037 2.034-.289 3.047-.476.865-.16 1.694-.454 2.57-.574 1.358-.186 2.703-.455 3.947-1.076.233-.116.447-.266.708-.329 1.063-.257 2.155-.436 3.176-.809 1.642-.6 3.388-.487 5.059-.881 1.003-.237 2.026-.417 2.999-.747 1.502-.51 2.986-1.042 4.551-1.365 2.43-.502 4.887-.519 7.343-.604.398-.014.798.029 1.194-.044 1.634-.3 3.293-.418 4.932-.715 1.533-.278 3.113-.351 4.683-.389.852-.021 1.725-.01 2.547-.194 1.685-.377 3.355-.833 5.063-1.094a31.875 31.875 0 0 1 3.486-.35 27.66 27.66 0 0 0 3.439-.37c.925-.155 1.855-.215 2.788-.296 2.116-.183 4.235.224 6.36-.159 1.022-.184 2.11-.157 3.168-.167 2.169-.021 4.339.015 6.506-.115 3.037-.182 6.077-.181 9.117-.2.603-.004 1.216.162 1.808.097 2.156-.237 4.317-.125 6.474-.157a75.696 75.696 0 0 1 7.662.274c1.959.169 3.922.3 5.883.458 2.281.183 4.577.074 6.862.358 1.231.153 2.502-.042 3.688.188.606-.055 1.157-.08 1.699-.164.443-.066.648-.472.496-.866zM17.661 142.162a9.144 9.144 0 0 0-1.556.714c-.212.124-.34.309-.508.466-.261.245-.612.27-.853.03-.287-.284-.036-.566.211-.706.653-.37 1.313-.724 1.944-1.134.172-.112.414-.137.687-.095.104.045.367-.141.395.191.021.256-.037.434-.32.534zm2.539-1.271c-.012.309-.139.499-.488.452-.29-.027-.573-.1-.54-.467.035-.387.355-.451.668-.462.324-.011.37.22.36.477zm8.232-3.054c-1.37.518-2.775.966-4.087 1.606-.936.457-1.98.666-2.844 1.274-.072.051-.183.046-.257.063-.287-.043-.59-.086-.648-.381-.063-.318.192-.473.466-.586 1.572-.646 3.131-1.322 4.713-1.94.803-.313 1.668-.451 2.458-.82.197-.092.506-.088.587.207.085.301-.103.469-.388.577zm26.803-8.816c-.468.304-1.021.376-1.405.493-.369.014-.573-.016-.62-.281-.048-.27.099-.436.348-.465.504-.058.885-.447 1.387-.49.213-.018.477-.09.583.167.11.266-.103.452-.293.576zm1.365-.452c-.251.006-.431-.077-.415-.315.03-.442.428-.326.689-.396.17-.046.315.059.282.243-.056.309-.291.437-.556.468zm6.878-1.723c-.214.181-.455.335-.734.345-1.061.037-2.022.62-3.106.549-.314-.021-.527.361-.879.303-.198-.044-.482.049-.537-.252-.047-.256.179-.344.364-.435 1.049-.514 2.202-.648 3.322-.9.376-.084.75-.159 1.094-.343.24-.129.455-.089.603.153.14.229.063.419-.127.58zm1.442-.03c-.223-.034-.47-.098-.44-.401.028-.287.124-.602.484-.605.268-.003.529.139.512.463-.017.309-.171.546-.556.543zm4.187-.939c-.321-.031-.703-.126-.69-.504.015-.464.449-.469.809-.506.264.055.627-.033.641.398.008.311-.409.646-.76.612zm20.139-4.394a5.11 5.11 0 0 1-.718.184c-.964.155-1.944.362-2.803.772-1.453.694-3.014.807-4.534 1.143-.884.195-1.734.508-2.616.714-.855.2-1.717.196-2.521.287-.636-.077-1.173.066-1.695.309-.575.268-1.241.211-1.819.499a.424.424 0 0 1-.548-.174c-.11-.199.057-.337.185-.455.177-.163.19-.307.03-.493-.178-.208-.218-.453.071-.579.279-.123.537-.597.881-.215.225.25.125.572-.195.767-.081.049-.173.114-.12.229.05.109.17.108.253.078.435-.159.916-.268.99-.855.028-.223.14-.401.394-.399.896.005 1.708-.386 2.572-.546 1.153-.213 2.343-.154 3.467-.447.937-.244 1.927-.053 2.841-.52.666-.34 1.461-.364 2.215-.423.766-.06 1.515-.128 2.244-.447.395-.173.888-.132 1.339-.162.192-.013.347.104.387.306.047.237-.1.365-.3.427z" />
  <path
    d="M126.977 67.649a.76.76 0 0 1 .377-.155c1.109-.133 1.746-1.213 1.852-2.333a2.84 2.84 0 0 1 .849-1.77c.564-.541 1.152-1.069 1.636-1.677.313-.393.633-.702 1.094-.891.698-.286 1.374-.59 1.902-1.182.42-.47.916-.866 1.199-1.454.086-.179.256-.371.496-.266.256.111.192.378.103.54-.238.433-.169.949-.412 1.374-.159.277-.175.57-.118.88a3.943 3.943 0 0 1-.142 2.033c-.241.714-.47 1.44-.609 2.179-.166.887-.318 1.779-.324 2.692a6.503 6.503 0 0 1-.219 1.673c-.336 1.233-.743 2.46-.926 3.717-.254 1.742-.649 3.453-.937 5.185-.15.901-.528 1.766-.358 2.72.061.342-.116.69-.467.853-.527.245-.795.746-1.169 1.141a.351.351 0 0 0 .005.492c.14.153.298.093.449.002.118-.071.231-.153.357-.205.166-.069.351-.137.486.053.142.2.1.408-.068.56-.254.23-.513.495-.855.555-.477.083-.754.398-.975.757-.539.878-1.387 1.465-2.048 2.228-.407.47-1.047.703-1.485 1.168-.289.307-.345.817-.085 1.047.291.257.665.384.968.079.764-.768 1.647-1.415 2.303-2.295.248-.333.487-.722.987-.737.294-.009.633.121.502.411-.347.766-.264 1.6-.492 2.375-.175.597-.167 1.19-.083 1.798.103.751.042 1.455-.422 2.125-.526.759-.674 1.627-.291 2.51.154.354.215.702.193 1.081-.014.232-.04.485.034.695.24.675.087 1.334-.015 1.998-.053.347-.231.587-.604.631-.155.018-.263.081-.279.247-.015.155.052.273.194.331.398.162.472.514.505.876a2.55 2.55 0 0 1-.107 1.061c-.125.367-.186.747-.198 1.245.006.055.002.225.048.381.127.428.676.685.934.414.266-.28.569-.568.586-1.009.012-.324.135-.617.3-.891.181-.3.25-.634.344-.966.279-.989.044-2.012.636-2.855.805-1.147.608-2.89.69-4.286.065-1.105-.083-2.216.136-3.321.131-.658.255-1.319.349-1.987.089-.629.178-1.285.599-1.823.184-.236.402-.376.671-.234.578.305 1.233.399 1.812.676 1.162.556 2.352 1.054 3.528 1.573.815.36 1.671.668 2.42 1.129 1.951 1.203 4.064 2.067 6.105 3.08.39.193.455.405.16.726a23.715 23.715 0 0 0-2.548 3.328c-.169.266-.192.628-.474.81-.587.376-.692.957-.724 1.579-.012.233.007.456.283.525.25.062.52.075.671-.175.531-.877 1.343-1.482 2.06-2.181.827-.807 1.649-1.625 2.126-2.707.371-.843.961-1.011 1.7-.447.292.223.603.396.959.451.718.111 1.257.605 1.905.865.175.07.297.261.262.476-.034.207-.228.223-.386.248-.341.054-.602.261-.884.431-.51.308-.503.525-.009.867.562.389 1.165.73 1.475 1.401.143.311.443.325.699.128.247-.191.455-.208.705-.021.245.183.49.131.716-.06.2-.171.388-.351.505-.592.096-.199.249-.29.471-.231.425.112.872.861.763 1.296-.055.218-.097.429.178.502.26.069.525.092.651-.245.047-.127.094-.287.194-.355.643-.438.836-1.174 1.199-1.792.208-.354.316-.805.078-1.177-.229-.358-.931-.387-1.375-.119-.364.219-.714.209-1.035-.049-.342-.275-.601-.611-.523-1.094.036-.221.093-.461-.134-.6-.21-.128-.449-.055-.62.087-.563.464-1.04.218-1.577-.083-.495-.278-.886-.766-1.471-.846-.392-.054-.638-.237-.807-.554-.166-.311-.344-.453-.717-.282-.232.107-.528.118-.724-.122-.199-.242-.153-.526-.036-.782a1.18 1.18 0 0 1 .309-.378c1.357-1.158 2.447-2.561 3.606-3.902.128-.148.238-.318.091-.519-.216-.296-1.008-.433-1.273-.191-1.486 1.35-3.09 2.579-4.303 4.211-.384.517-.782.663-1.31.327-.786-.501-1.669-.792-2.493-1.195-1.308-.639-2.569-1.362-3.856-2.035-.669-.349-1.439-.434-2.056-.921-.585-.462-1.404-.491-2.007-.945-.44-.331-.942-.506-1.46-.654a18.517 18.517 0 0 1-2.811-1.068c-.519-.244-1.032-.503-1.463-.904-.349-.325-.363-.627.021-.916.198-.149.407-.286.589-.451 1.399-1.269 2.958-2.322 4.507-3.393.598-.413 1.272-.712 1.805-1.224.327-.314.677-.604 1.026-.894 1.352-1.125 2.918-1.959 4.246-3.118.321-.28.624-.603.991-.806.97-.538 1.631-1.42 2.443-2.13.763-.667 1.401-1.449 1.825-2.412.29-.658.823-1.205 1.153-1.851.941-1.843 1.407-3.835 1.708-5.869.076-.51.057-1.021.336-1.505.166-.288.257-.49.625-.391.191.051.405.039.5-.175.113-.255-.061-.401-.248-.542-.575-.433-.682-.772-.48-1.466.027-.092.047-.19.095-.272.221-.381.086-.618-.29-.777-.206-.087-.395-.22-.504-.414-.487-.871-.821-1.815-1.287-2.699-.154-.292-.254-.607-.523-.807-.803-.598-1.406-1.403-2.213-2.016-.938-.714-1.961-1.179-3.058-1.119-1.265.069-2.623.023-3.734.872-.053.04-.124.057-.188.083-.717.294-1.456.539-2.127.935-.393.232-.771.469-1.244.516a.887.887 0 0 0-.473.231c-.443.409-.986.679-1.511.912-1.403.622-2.386 1.79-3.621 2.624a.424.424 0 0 0-.153.192c-.249.668-.836 1.07-1.243 1.608-1.324 1.753-2.758 3.419-4.001 5.24-.81 1.185-1.861 2.205-2.808 3.295-.37.426-.418.798-.072 1.177.436.468.644.803 1.257.302zm4.146 29.04c.214.056.488.215.462.409-.026.194-.23.409-.462.301-.232-.108-.239-.773 0-.71zm.324 2.936c-.249.015-.316-.217-.324-.39-.005-.336.113-.543.414-.556.237-.011.331.169.331.385 0 .288-.114.542-.421.561zm.104-3.636c-.149.235-.427.32-.547.016-.178-.453-.406-.902-.438-1.395.014-.122-.078-.494.099-.578.535-.253.562-.751.878-1.242.17-.264.524-.172.658.124.023.05.049.408.026.611s-.111 1.574-.676 2.464zm.578-5.251c-.287-.038-.555-.155-.544-.506.008-.264.144-.526.43-.511.342.019.437.324.478.593-.01.27-.093.459-.364.424zm23.827 8.02c.016.204-.037.366-.285.341-.403-.04-.656-.264-.717-.666-.036-.236.131-.303.353-.314.365.044.618.226.649.639zM139.2 53.655c.641-.216.952-.879 1.574-1.112.149-.056.277-.126.42-.026.143.1.216.244.21.503-.108.354-.51.461-.84.613-.231.106-.468.13-.635.382-.173.259-.46.223-.703.044-.164-.121-.2-.345-.026-.404zm-2.208 9.898c.219-.714.403-1.428.374-2.185-.016-.413.204-.767.346-1.137a8.758 8.758 0 0 0 .523-2.033c.08-.636-.095-.895-.721-1.058-.169-.044-.376-.063-.42-.279-.042-.206.109-.374.253-.438.668-.293 1.079-.82 1.415-1.433a.376.376 0 0 1 .354-.182c1.032.061 1.856-.593 2.807-.824.726-.176.787-.635.271-1.183-.123-.131-.271-.251-.184-.462.085-.207.236-.364.464-.353.724.037 1.277-.357 1.853-.699.195-.116.411-.16.629-.187.709-.088 1.418-.197 2.131-.241.714-.044 1.334.29 1.937.624.311.172.612.374.888.599.337.275.254.476-.08.739-.674.53-1.337.624-2.131.266-.429-.193-.899.028-1.304.237-.284.147-.22.486.104.636.365.169.76.079 1.137.121 1.017-.088 1.87.222 2.549.998.238.272.529.347.889.16.366-.19.656-.039.765.349.112.396.193.8.36 1.18.079.179.015.352-.081.511-.372.614-.315 1.24-.02 1.854.152.316.226.614.061.945-.075.151-.068.304.102.39.171.087.244-.058.328-.165.085-.108.168-.241.332-.188.174.056.187.228.204.375a.5.5 0 0 1-.04.282c-.539.986-.212 2.156-.678 3.157-.475 1.02-.565 2.165-1.129 3.178-.352.631-.717 1.259-1.068 1.893-.227.411-.539.541-.959.369-.399-.163-.609-.033-.835.325-.424.671-.872 1.331-1.503 1.846-.564.461-1.097.961-1.638 1.449a4.28 4.28 0 0 1-1.017.692c-.543.262-.827.825-1.274 1.207-.606.517-1.184 1.065-1.781 1.592-.187.166-.411.142-.622.043-.261-.123-.464-.034-.684.12-1.416.993-2.482 2.368-3.801 3.466-.559.465-1.15.89-1.732 1.327-.165.124-.339.09-.496-.03-.142-.108-.238-.257-.163-.43.299-.689.392-1.439.519-2.158.207-1.173.53-2.331.585-3.53.007-.164.023-.331.062-.49.575-2.337 1.005-4.703 1.342-7.083.13-.923.208-1.853.385-2.773.091-.48.251-.931.392-1.389zm-4.133-4.654c.643-.956 1.598-1.636 2.261-2.573.122-.172.301-.294.483-.114.258.254.686.436.511.929-.08.223-.23.407-.403.565-.628.571-1.259 1.138-1.89 1.706a.85.85 0 0 1-.605.217c-.204.006-.379-.04-.475-.248-.091-.197.013-.326.118-.482z" />
  <path
    d="M25.634 99.375c-.065.678.007 1.348.108 2.016.103.68.22 1.359.299 2.042a4.63 4.63 0 0 0 .455 1.531c.375.762.713 1.542 1.101 2.297.517 1.007 1.398 1.701 2.272 2.349.451.334 1 .565 1.434.948.424.374.943.557 1.447.775.227.098.473.168.676.304.892.598 2.005.722 2.89 1.309.284.188 1.129-.108 1.664.091.518.192 1.142.103 1.675.29 1.055.371 2.264.328 3.347.059.755-.188 1.518-.241 2.277-.356.775-.118 1.579-.227 2.258-.694.278-.191.594-.244.841-.011.457.431.762.198 1.115-.143.448-.432.755-1.033 1.421-1.216.211-.058.409-.3.634-.055.212.231.128.493.02.736-.134.301-.36.578-.364.913-.009.73-.319 1.37-.5 2.051-.239.893-.77 1.634-1.041 2.495-.191.606-.573 1.103-1.022 1.52-.416.386-.837.881-.819 1.379.013.343-.596.717-.485 1.026.111.309.219.757-.19 1.263-.132.164-.086.406.069.58.168.189.369.133.572.061.188-.066.313-.224.475-.321.992-.59 1.086-.794 1.834.143.468.586 1.09 1.004 1.748 1.358a.682.682 0 0 0 .439.087c.225-.037.386-.15.418-.389.034-.252-.168-.284-.337-.336-.7-.219-1.187-.728-1.673-1.233-.123-.128-.207-.316-.155-.497.234-.827.005-1.748.524-2.521.133-.199.092-.457.041-.687a1.801 1.801 0 0 1 .168-1.241c.079-.156.175-.354.142-.506-.152-.696-.016-1.179.466-1.596.124-.107.292-.391.376-.533.351-.591.319-1.084-.109-1.62-.167-.208-.211-.453-.062-.651.325-.432.457-.939.615-1.434.224-.7.522-1.124 1.048-1.644.28-.277.507-.605.845-.865.295-.227.7-.386.954-.605.852-.731 1.689-1.484 2.42-2.346.568-.67.983-1.463 1.655-2.05.106-.092.121-.246.025-.379-.077-.107-.204-.145-.288-.066-.295.28-.794.345-.986.63-.4.595-1.046.951-1.408 1.543-.599.981-1.512 1.619-2.359 2.336-.133.113-.29.175-.458.093-.172-.083-.199-.249-.199-.422a.805.805 0 0 1 .231-.6c.172-.172.273-.377.314-.615.059-.344.22-.638.381-.946.22-.418.488-.827.52-1.332.051-.812.434-1.485.933-2.106 1.178-1.467 2.281-2.944 2.19-4.999a5.154 5.154 0 0 1 .485-2.41c.2-.423.338-.889.325-1.355-.011-.394.054-.697.384-.931.103-.073.24-.167.095-.334-.141-.162-1.388-.5-1.564-.371-.639.471-1.316.897-1.868 1.481-.867.917-1.685 1.883-2.697 2.652-.229.174-.54.257-.699.502-.433.662-1.171.969-1.717 1.511-.725.72-1.553 1.347-2.257 2.097-.26.277-.519.392-.875.267-.287-.1-.552 0-.6.264-.108.602-.525.891-.989 1.167-.814.484-1.214 1.39-1.958 1.936-.632.464-1.045 1.08-1.403 1.75-.089.167-.197.319-.382.348-.498.078-.669.498-.892.847a.586.586 0 0 0 .069.732c.195.212.437.122.653.028.333-.146.631-.35.796-.689.358-.735 1.306-.918 1.593-1.715.684-.133 1.007-.713 1.452-1.153.982-.971 2.016-1.891 2.977-2.882.422-.435.805-.887 1.368-1.147.105-.048.176-.168.264-.254.749-.726 1.429-1.546 2.261-2.158 1.507-1.109 2.691-2.522 3.946-3.873.192-.207.397-.286.658-.237.227.042.286.234.343.422.076.251-.028.425-.228.564-.495.343-.998.675-1.334 1.2a2.201 2.201 0 0 1-.733.716c-.486.286-.639.895-1.146 1.162-.062.033-.126.2-.096.25.31.522-.059.878-.29 1.268-.095.162-.164.346-.056.507.127.188.322.084.49.038.497-.136.698.059.606.571-.077.43-.332.782-.484 1.178-.542 1.409-.883 2.898-2.112 3.973-.489.428-.835 1.046-1.282 1.552-.347.392-.599.83-.313 1.387a.503.503 0 0 1-.047.548c-.364.491-.501 1.151-1.11 1.465-.091.047-.153.202-.176.317-.073.369-.336.488-.656.516a2.033 2.033 0 0 0-.782.235c-.299.155-.612.191-.868-.096-.183-.205-.389-.425-.661-.228-.278.202-.09.479.017.707.258.55.19.826-.412.914-.847.124-1.661.375-2.498.53-1.338.248-2.693-.058-4.028.178-.155.027-.325-.039-.489-.056-.727-.074-1.409-.379-2.118-.477-.82-.113-1.598-.252-2.387-.546a15.926 15.926 0 0 1-3.524-1.858c-.756-.524-1.542-1.01-2.26-1.583-1.091-.871-1.612-2.137-2.064-3.394-.498-1.382-.878-2.811-.704-4.319a1.641 1.641 0 0 0-.061-.572c-.304-1.218.03-2.407.187-3.596.165-1.252.975-2.293 1.262-3.517.077-.33.271-.631.381-.955.352-1.042 1.267-1.726 1.713-2.709.04-.088.153-.158.248-.205.799-.395.819-.663.751-1.578-.026-.351-.096-.509.333-.657.184-.063.439-.205.461-.386.097-.791.53-1.404.987-2.012.199-.264.193-.493-.123-.686-.229-.14-.327-.387-.141-.599.433-.494.739-1.089 1.264-1.513.357-.289.672-.455 1.101-.143.292.212.664.215.841-.102.319-.572.862-.922 1.245-1.42.308-.4.717-.548 1.182-.569.947-.042.944-.033 1.234-.947a.975.975 0 0 1 .214-.344c.473-.515.745-.475 1.08.141.132.241.301.466.406.717.184.439.496.451.837.258.31-.175.618-.376.869-.624.491-.484 1.22-.729 1.472-1.457.066-.191.191-.345.433-.288.258.061.362.24.332.492-.034.282.067.511.24.722.277.338.524.697.849.999.334.31.705.706.664 1.148-.062.672.247 1.298.127 1.96-.035.192-.008.415.222.479.243.068.539.228.746.034.359-.337.764-.721.727-1.256-.076-1.102.315-1.381.124-2.077-.094-.344.021-.862.05-1.25.049-.659-.218-1.279-.208-1.922.015-.988-.357-1.096-.415-1.589-.064-.539-.278-.69-.613-1.037-.197-.204-.426-.329-.663-.47-.59-.352-1.24-.456-1.889-.624-.534-.138-.947-.299-1.238.321-.037.078-.144.123-.217.184-.584.49-1.284.776-1.951 1.124-.522.273-1.117.436-1.547.856-.617.603-1.211 1.215-1.925 1.722a11.6 11.6 0 0 0-1.972 1.805c-.337.383-.658.842-1.112 1.083-.847.449-1.39 1.207-1.998 1.881-.761.843-1.617 1.564-2.486 2.278-.24.198-.317.331-.014.521.246.155.415.381.205.651-.42.54-.642 1.199-1.11 1.717-.344.381-.602.853-.845 1.312-.542 1.027-.806 2.182-1.419 3.176-.317.513-.352 1.122-.59 1.641-.458.999-.711 2.049-.97 3.098-.311 1.271-.092 2.576-.185 3.86zm27.514 6.086c.219.031.283.194.273.393-.023.489-.326.858-.683.825-.304-.028-.304-.265-.314-.443.015-.32.488-.808.724-.775zm-1.035 1.613c.096-.133.286-.314.496-.185.195.121.315.471.288.653-.022.153-.265.301-.361.513-.097.212-.125.517-.206.747-.043.122-.21.11-.335.073-.2-.06-.367-.19-.373-.397-.017-.524.193-.991.491-1.404zm-4.78-31.018c.238-.076.386.076.459.301.09.279.106.565.085.855-.03.369.12.733.02 1.105-.129.481-.409.588-.764.258a4.965 4.965 0 0 1-.909-1.163c-.079-.136-.139-.306-.053-.432.288-.424.663-.765 1.162-.924zm-3.211-2.91c.325-.124.671-.117 1.09-.099.225-.022.528-.066.815.069.139.065.273.152.294.318.02.164-.291.046-.469.342-.559.932-.927.249-1.692.43-.292.069-.339-.219-.397-.452-.079-.307.092-.506.359-.608zm-5.198 3.393a.654.654 0 0 1 .237-.377c.956-.712 1.872-1.478 2.901-2.089.127-.075.255-.083.377-.101.215 0 .415.037.47.263.052.215-.129.315-.283.405-.613.362-1.224.725-1.844 1.074-.238.134-.403.325-.546.546-.217.335-.511.578-.894.689-.347.101-.505-.064-.418-.41zm-8.549 9.434c.108-.063.352-.118.473 0 .062.06.301.378.161.453-.14.075-.43.194-.527.129-.096-.064-.214-.519-.107-.582z" />
  <path
    d="M3.876 105.055c.868-.232 1.748.429 2.593-.09.053-.033.171-.002.239.036.506.28.971.168 1.44-.108.303-.179.534.036.786.19.347.212.325.513.196.814-.172.401.365.531.452.882.044.179-.14.312-.108.699.007.086.33.344.405.443.255.339.431.713.398 1.145-.043.561.108 1.047.428 1.511.288.419 1.03.73 1.411.477.477-.317.093-.715.024-1.076-.023-.117-.103-.223-.162-.332-.2-.365-.385-.744-.381-1.166.005-.525-.146-1.013-.345-1.475-.282-.655-.189-1.357-.346-1.944-.011-.644.248-1.075.623-1.024.416.057.74-.06 1.083-.273.226-.14.512-.206.78-.25.307-.051.596.155.517.426-.176.604.113 1.079.31 1.574.33.831-.134 1.81.502 2.575.015.019.008.055.018.08.134.316.236.652.415.941.182.293.468.495.841.306.321-.163.558-.435.397-.803-.467-1.069-.505-2.237-.814-3.341-.107-.382-.04-.794-.231-1.167-.405-.792.006-1.35.921-1.311.742.032 1.421-.272 2.107-.497.169-.056.295-.116.451-.018.26.163.496.11.722-.073a1.46 1.46 0 0 1 .592-.277c.411-.099.753-.335 1.068-.605.382-.329.3-.678-.176-.869-.533-.215-.994-.021-1.448.227-.205.112-.415.288-.651.173-.308-.151-.582-.08-.873.016-.313.103-.643.166-.944.296-.649.28-1.392.081-2.033.455-.28.163-.559-.167-.53-.574.013-.177.118-.392.051-.522-.392-.759-.06-1.518-.043-2.275.005-.215.127-.37.35-.398 1.648-.205 3.174-.865 4.763-1.285.654-.173 1.188-.566 1.748-.911.181-.111.305-.277.18-.523-.272-.538-1.048-.727-1.557-.408-.335.21-.606.645-.995.611-.448-.039-.799.125-1.171.265-.43.162-.859.264-1.321.296a3.738 3.738 0 0 0-1.499.415c-.282.151-.556.362-.795.034-.269-.37-.868-.675-.498-1.257.25-.393.149-.716-.093-.97-.557-.584-.674-1.301-.751-2.046-.018-.178-.026-.359-.066-.532-.07-.301-.256-.574-.553-.597-.31-.024-.486.275-.616.533-.095.189-.062.406-.029.61.043.274.054.546.022.822-.106.907.135 1.819-.037 2.727a.277.277 0 0 0 .042.199c.35.453.133.868-.052 1.303-.111.26-.244.367-.531.313-.374-.07-.756-.081-1.029.251-.312.379-.789.251-1.174.405-.048.019-.169-.046-.204-.104-.168-.281-.426-.562-.452-.861-.052-.581-.43-1.008-.581-1.533-.069-.239-.255-.418-.519-.394-.252.023-.511.143-.571.407-.124.547-.39 1.134.258 1.568.078.052.118.182.144.284.272 1.051.27 1.052-.769 1.375-.603.187-.834.756-.514 1.263.308.488.826.517 1.289.073.166-.159.327-.394.587-.299.28.103.199.387.199.614 0 .41.092.783.362 1.112.24.293.244.627-.032.892-.303.291-.591.731-1.115.416-.258-.155-.471-.147-.729-.008-.808.434-1.61.869-2.56.951-.404.035-.89.15-.955.675-.037.284.643.649 1.139.516zm5.907-5.614c.433-.011.834-.127 1.238-.281.786-.3 1.649.201 1.802 1.013.059.313.142.614.337.877.117.157.188.337.181.404-.041.522-.196.69-.625.799-.853.216-1.678.061-2.516.029-.354-.013-.566-.194-.625-.54-.097-.569-.182-1.14-.276-1.71-.063-.384.104-.582.484-.591z" />
  <path
    d="M81.302 78.851c.439-.334.773-.738.941-1.272a.927.927 0 0 1 .211-.349 15.088 15.088 0 0 1 2.071-1.799c.258-.186.483-.183.639.138.064.131.161.382.284.288.497-.381 1.083-.502 1.655-.677.059-.018.09-.133.132-.203.138-.229.273-.484.606-.333.311.141.373.384.299.719-.19.857-.353 1.721-.516 2.585a1.491 1.491 0 0 1-.301.671c-.56.693-1.104 1.401-1.701 2.061-.28.31-.369.564-.168.942.123.231.2.554-.146.663-.543.171-.7.66-.969 1.057-.118.175-.137.401.018.58.162.187.374.21.604.131.214-.074.399-.189.522-.384.175-.276.423-.462.716-.249.303.221.277.579.063.847-.211.264-.286.55-.35.862-.187.914-.331 1.835-.482 2.755-.156.949-.393 1.858-.107 2.839.131.448.226.861.703.939.45.074.711-.31.923-.646.278-.441.189-.75-.277-.958-.352-.157-.471-.403-.413-.756.079-.478.1-.958.095-1.44-.002-.223.02-.442.144-.635.177-.275.249-.583.27-.901.084-1.256.527-2.442.707-3.679.023-.159.064-.351.282-.35.206.001.264.182.307.339.144.525.05 1.037-.11 1.543-.158.499-.301 1.003-.318 1.53-.007.22-.012.503.276.517.276.013.372-.246.411-.488.04-.243.012-.509.1-.731.271-.684.259-1.424.265-2.111.011-1.242.607-1.999 1.581-2.584.801-.481 1.639-.893 2.42-1.414.764-.51 1.563-.995 2.406-1.353 1.016-.431 1.879-1.118 2.883-1.562.34-.15.454-.512.301-.888-.155-.383-.481-.322-.775-.244-.461.122-.884.372-1.301.575-1.474.721-2.893 1.555-4.33 2.352-.684.38-1.239.968-1.987 1.247-.143.053-.294.11-.42-.03-.116-.128-.104-.283-.045-.428.369-.895.53-1.815.372-2.781-.044-.268.051-.477.353-.493.486-.027.572-.32.473-.709-.108-.425-.018-.793.152-1.192.264-.617.487-1.259.646-1.911.139-.571.485-1.01.932-1.252 1.101-.598 2.046-1.433 3.172-1.987.785-.386 1.412-1.08 2.265-1.317.971-.27 1.76-.888 2.68-1.253 1.176-.467 2.175-1.347 3.489-1.504.119-.014.233-.082.344-.137.493-.246.975-.511 1.518-.639a.765.765 0 0 0 .464-.326c.147-.22.224-.472.031-.687-.195-.217-.447-.172-.675-.018-.218.147-.438.306-.703.333-.905.095-1.701.56-2.517.873-1.042.399-2.039.962-3.078 1.418-1.289.566-2.527 1.249-3.777 1.9-.753.392-1.488.836-2.194 1.289-.976.627-1.932 1.303-2.885 1.975-.185.13-.395.23-.617.124-.235-.112-.179-.345-.168-.549 0-.082.014-.168-.002-.246-.078-.362-.264-.688-.651-.698-.376-.009-.448.356-.495.658a3.904 3.904 0 0 0-.027.658c.007.33-.083.624-.279.888-.744.999-1.694 1.8-2.614 2.618-.944.84-1.979 1.578-2.98 2.354-.789.612-1.357 1.437-2.058 2.134a.654.654 0 0 0-.01.908c.237.249.493.026.72-.147z" />
  <path
    d="M108.818 72.386c-.372.661-.76 1.311-.935 2.052-.197.838-.73 1.588-.677 2.498.018.232.005.471.06.694.104.422.502.616.816.377.42-.32.879-.63.935-1.244.018-.201.122-.392.175-.591.26-.979.927-1.817.976-2.874.013-.29.24-.518.432-.737.293-.333.549-.361.819.042.611.911 1.487 1.366 2.567 1.492 1.379.161 2.751.056 4.116-.101 1.201-.138 2.39-.369 3.586-.554a.653.653 0 0 0 .358-.183c.562-.522.659-1.231.3-2.047-.47-1.066-1.084-2.105-.7-3.352.016-.05-.002-.11.003-.165.109-1.295-.203-2.575-.131-3.869.012-.212-.114-.359-.266-.489-.449-.386-.96-.692-1.107-1.362-.081-.367-.594-.452-.993-.268-.314.144-.457.403-.308.704.154.309.247.641.405.944.407.779.454 1.641.319 2.445-.155.924-.48 1.843-.876 2.697-.29.625-.33 1.3-.593 1.917-.07.164.013.302.16.38.157.083.254-.011.333-.144.21-.353.438-.691.587-1.083.138-.364.208-.739.306-1.11.048-.18.155-.343.369-.329.212.013.299.187.332.369.029.161.028.329.024.493-.008.324.002.686.211.908.414.439.468 1.01.686 1.518.227.529-.053.916-.62.954a27.24 27.24 0 0 0-1.823.168c-.937.127-1.876.271-2.814.409-.685.1-1.378.032-2.057-.072-.919-.141-1.663-1.128-1.871-2.325-.183-1.056-.416-2.104-.627-3.155-.059-.292-.185-.523-.521-.549-.371-.029-.758.064-.861.422-.155.535-.437.994-.66 1.489-.231.513-.462.952-1.023 1.157-.24.088-.466.278-.293.571.17.288.4.135.597-.01.165-.122.341-.203.53-.072.187.13.292.365.213.543-.211.466-.215 1.008-.459 1.442z" />
  <path
    d="M68.98 83.737c.28.504.569 1.004.952 1.441.552.629 1.011 1.342 1.708 1.836.294.208.622.26.942.155.325-.106.216-.432.239-.682.008-.082.004-.166.017-.247.278-1.766.565-3.531 1.061-5.252.048-.166.085-.323 0-.479-.323-.59-.311-1.216-.193-1.849.077-.414.008-.818-.02-1.23-.065-.971-.197-1.939-.239-2.908-.032-.728.213-1.462.087-2.205 0-.11-.003-.22.001-.33.01-.312-.047-.703.378-.757.421-.054.538.299.611.639.009.04.022.08.032.12.082.32.25.629.612.505.356-.122.289-.485.201-.787-.082-.28-.328-.435-.519-.63-.413-.423-.82-.853-1.25-1.258-.368-.347-.557-.268-.815.127-.263.402-.298.796-.237 1.248.047.351.025.714.005 1.071a.799.799 0 0 1-.517.735c-.49.204-.593.576-.445 1.045.09.286.075.541-.133.769-.195.213-.481.45-.225.737.274.306.473-.073.692-.192.163-.088.331-.164.504-.053.186.119.152.308.108.485-.071.284-.136.571.013.846.177.327.202.676.221 1.037.054 1.047.102 2.098-.159 3.12-.243.949-.054 2.022-.809 2.831-.15.161-.067.39-.01.594.086.307-.039.553-.303.697-.252.138-.451-.013-.606-.206-.378-.471-.792-.922-1.032-1.485-.153-.359-.358-.51-.729-.302-.378.212-.31.513-.143.814z" />
  <path
    d="M64.475 91.025c.323.109.929-.303.99-.754.111-.814.103-1.644.334-2.347-.056-.368.025-.606.13-.854.634-1.489 1.332-2.957 1.641-4.564.036-.186.072-.393.303-.45.224-.055.357.094.49.237.165.177.343.358.596.157.248-.197.425-.425.281-.781-.356-.879-.429-1.841-.78-2.724-.066-.166-.027-.382-.009-.572.093-.977.618-1.852.662-2.849.015-.334.182-.656-.231-.845-.315-.144-.897.046-.972.4-.163.772-.679 1.454-.559 2.298.045.316.007.659-.32.835-.311.167-.405.434-.428.747-.035.48-.074.96-.083 1.441-.03 1.679-.34 3.301-1.045 4.826-.359.777-.395 1.637-.757 2.417-.308.664-.34 1.436-.699 2.102-.269.502-.026 1.118.456 1.28z" />
  <path
    d="M30.747 98.962c.159-.204.235-.461.047-.686-.207-.248-.4-.041-.572.077-.328.225-.551.148-.73-.196-.442-.846-.342-1.168.515-1.579.26-.125.467-.3.346-.607-.135-.344-.421-.221-.671-.139a.527.527 0 0 0-.217.115c-.511.54-1.372.753-1.526 1.633-.016.093-.128.174-.207.25-.444.429-.378.568.154.818.874.41 1.528.932 1.193 1.803-.094.244-.41.366-.4.607.025.621-.134 1.195-.335 1.71.022.461.17.816.437 1.106.197.215.293.45.327.735.052.431.361.545.689.254.224-.2.392-.457.647-.632.156-.107.251-.26.145-.462-.106-.202-.279-.259-.487-.21-.12.028-.231.088-.349.126-.299.098-.423-.118-.548-.318-.142-.227-.273-.465-.065-.72.178-.218.363-.092.554-.002.221.104.469.166.642-.059.175-.228-.01-.422-.15-.582-.17-.195-.339-.396-.245-.66.124-.349.172-.685.058-1.045-.048-.149.04-.292.103-.432.158-.346.417-.613.645-.905z" />
  <path
    d="M185.063 119.849c.605.246 1.203-.046 1.747.131.236.011.434-.016.539-.207.114-.206-.026-.366-.145-.519-.221-.284-.501-.364-.841-.236-.298.112-.601.219-.922.113-.342-.114-.675-.08-1.013.009-.392.103-.777.118-1.171-.032-.382-.145-1.326.539-1.337.947a.416.416 0 0 0 .048.197c.179.346.487.597.852.543.448-.067 1.02.199 1.323-.401.186-.371.557-.692.92-.545z" />
  <path
    d="M23.657 87.825c.349.122.712.208 1.074.289.207.046.474.146.595-.106.13-.271-.023-.52-.249-.679-.255-.18-.434-.419-.615-.66-.126-.168-.131-.352.041-.476.443-.319.724-.789 1.112-1.157.182-.173.287-.365.266-.581.003-.489-.212-.709-.66-.68-.473.03-.718.338-.889.748-.38.913-.235 1.996-.952 2.808-.186.211.066.421.277.494z" />
  <path
    d="M98.241 53.639c-.159.402-.014.678.418.758.336.062.683.062 1.026.09l.002-.053c.261 0 .524.02.783-.005.361-.034.549-.366.336-.604-.235-.262-.458-.568-.823-.665-.546-.146-.77-.456-.648-1.034.098-.462-.248-.664-.602-.817-.358-.155-.43.197-.596.368-.251.26-.313.547-.059.846.288.34.325.706.163 1.116z" />
  <path
    d="M27.898 80.23c.208.203.503-.035.723.025.679.027.822-.124.774-.782a2.525 2.525 0 0 0-.041-.286c-.085-.417.116-.482.491-.405.16.033.324.054.487.058.143.004.226-.076.221-.234-.017-.465-.614-.808-1.038-.597-.495.247-1.012.403-1.573.404-.493.001-.773.393-.604.866.125.35.297.694.56.951z" />
  <path
    d="M150.857 79.768c.252.093.516.194.685-.146.124-.249.057-.476-.183-.597-.349-.175-.586-.457-.783-.767-.203-.32-.487-.419-.831-.438-.4-.021-.584.187-.444.604.128.381.145.665-.213.934-.164.123-.233.444.028.5.351.075.526.314.755.519.16.143.367.223.571.156.192-.063.152-.272.155-.429.005-.309.017-.426.26-.336z" />
  <path
    d="M61.532 100.438c.109-.04.237-.063.336-.128.63-.419 1.189-.97 2.046-.916.217.014.327-.247.301-.47-.031-.261-.248-.263-.445-.244-.341.033-.656.017-.903-.272-.161-.189-.377-.315-.62-.186-.285.151-.105.383-.043.58.052.166.091.324-.066.451-.153.123-.308.076-.461-.008-.269-.148-.534-.159-.751.081-.174.193-.391.422-.262.692.159.331.542.319.868.42z" />
  <path
    d="M174.162 119.714c-.239.136-.481.268-.713.416-.333.213-.644.247-.995.012-.382-.255-.671-.131-.841.293-.089.221-.027.431-.007.649.024.27.118.479.389.575.26.093.407-.082.57-.234.531-.493 1.13-.828 1.933-.8.236-.002.554.061.689-.294a.516.516 0 0 0-.144-.604c-.283-.243-.585-.181-.881-.013z" />
  <path
    d="M187.298 121.584c.084-.153.127-.351-.079-.421-.36-.122-.704-.316-1.172-.31-.426.031-.895.183-1.366.329-.235.073-.301.213-.251.434.053.237.189.365.442.309.187-.041.373-.091.556-.15.416-.135.673.012.851.406.152.335.359.646.545.965.09.154.221.251.409.2.188-.051.239-.21.259-.381.02-.169-.001-.339-.11-.469-.243-.29-.264-.585-.084-.912z" />
  <path
    d="M94.116 83.896c-.557.002-.902.132-1.228.315-.223.126-.511.235-.383.578.122.327.35.463.717.339.405-.137.638.023.653.463.002.055 0 .11.008.164.025.167-.029.394.231.411.23.014.27-.188.337-.355.075-.19.146-.385.25-.559.164-.273.383-.533.181-.866-.211-.345-.544-.487-.766-.49z" />
  <path
    d="M20.371 119.783c-.132.517.127.731.636.558.441-.15.875-.312 1.349-.34.274-.016.41-.198.403-.476.005-.207-.105-.353-.231-.507-.511-.622-1.105-.264-1.666-.142-.48.104-.406.572-.491.907z" />
  <path
    d="M71.651 132.79a3.28 3.28 0 0 1-1.51.605c-.246.037-.362.175-.344.389.004.375.185.599.473.75.139.073.333.145.415-.001.323-.579.935-.729 1.442-1.037.233-.142.307-.367.164-.602-.158-.262-.411-.275-.64-.104z" />
  <path
    d="M62.297 80.41c.317.192.627.405 1.003.347.448.027.819-.068 1.042-.468.101-.182.191-.386.054-.58a.527.527 0 0 0-.619-.212 4.052 4.052 0 0 1-1.327.23c-.193-.001-.323.144-.372.332-.049.185.087.271.219.351z" />
  <path
    d="M144.975 80.342a9.632 9.632 0 0 0-.443.088c-.189.044-.388.09-.423.326-.037.249.039.466.254.609.316.209.666.316 1.05.306.314-.016.683.017.662-.457-.032-.733-.386-1.003-1.1-.872z" />
  <path
    d="M18.744 75.907c.293-.094.497-.292.488-.702-.022-.054-.042-.188-.116-.277a2.007 2.007 0 0 1-.414-.926c-.032-.164-.108-.326-.305-.342-.215-.018-.315.14-.386.31-.248.59-.126 1.085.205 1.594.118.18.197.449.528.343z" />
  <path
    d="M66.053 102.257c-.071-.194-.234-.214-.404-.205-.215.011-.418.069-.498.293-.176.492.188 1.426.642 1.692.128.075.255.103.389.036.159-.08.179-.229.165-.523-.064-.318-.34-.731-.271-1.215.003-.024-.013-.052-.023-.078z" />
  <path
    d="M104.812 51.771c.537.169 1.027.044 1.483-.256.194-.128.337-.309.253-.553-.093-.269-.343-.237-.559-.214-.297.031-.571.204-.883.144-.054 0-.109.002-.164 0-.307-.012-.501.132-.553.432-.056.321.2.377.423.447z" />
  <path
    d="M60.27 105.623c.043.493.514.375.803.418.355.052.694-.105.718-.543.028-.513-.351-.539-.724-.552-.447-.012-.832.282-.797.677z" />
  <path
    d="M101.474 53.517c.315.211.565.064.577-.356-.006-.252-.155-.485-.297-.721-.162-.271-.367-.421-.673-.202-.315.226-.359.522-.132.819.14.181.333.331.525.46z" />
  <path
    d="M147.73 78.806c-.003.263.193.252.348.267.395-.006.751-.304.722-.602-.022-.23-.154-.376-.398-.383-.29-.008-.669.4-.672.718z" />
  <path
    d="M31.336 101.931c.271.043.28-.232.315-.44-.049-.285-.107-.589-.474-.606-.242-.011-.43.15-.422.404.009.359.255.591.581.642z" />
  <path
    d="M34.287 81.895c-.232.168-.456.347-.622.584-.062.089-.126.188-.061.301.063.109.179.111.326.12.426-.046.485-.46.659-.768.049-.086.057-.191-.035-.259-.088-.065-.188-.035-.267.022z" />
  <path
    d="M60.382 104.636c.356.055.859-.272.89-.552.028-.255-.101-.388-.418-.43-.206-.028-.709.429-.728.669-.015.181.105.29.256.313z" />
  <path
    d="M147.7 65.127c.106.092.209.017.304-.031.311-.158.605-.33.698-.709.05-.206.144-.393.391-.426.248-.033.378.126.49.308.143.233.376.305.557.134.361-.341.538-.811.729-1.195-.018-.212-.045-.373-.178-.427-.337-.135-.611-.365-.917-.545-.191-.112-.46-.068-.487.197-.074.711-.578 1.09-1.063 1.493-.286.237-.428.567-.572.893-.044.1-.049.224.048.308z" />
  <path
    d="M146.383 69.319c.416-.231.712-.603 1.036-.937.18-.185.082-.388-.093-.537-.162-.138-.297-.283-.31-.511-.012-.216.021-.479-.326-.443-.315.032-.408.253-.393.528.025.449-.027.873-.287 1.26-.064.096-.066.234-.081.291.007.439.137.525.454.349z" />
  <path
    d="M147.434 63.083c.106.162.181.374.428.278.235-.091.277-.321.212-.521a2.037 2.037 0 0 1-.044-1.056c-.015-.136-.013-.277-.05-.407-.074-.262-.191-.515-.526-.462-.316.05-.369.323-.338.573.069.537-.001 1.104.318 1.595z" />
</svg>
