<!--
  SVG Music Logos
  Overdose - Addicted to Reality v1.1.0
  https://github.com/tiagoporto/svg-music-logos
  Copyright (c) 2016-2018 Tiago Porto (http://tiagoporto.com)
-->
<svg xmlns="http://www.w3.org/2000/svg" viewBox="0 0 200 50" class="overdose--addicted-to-reality">
  <g class="overdose__shadow" fill="#666666">
    <path
      d="M15.527 34.957c-1.054-.782-1.76-2.326-2.388-2.846-.3-.246-.605-.513-.822-.83-1.5-2.187-1.34-4.426-.214-6.72 1.586-3.232 4.286-5.393 7.046-7.53 1.836-1.42 3.832-2.492 6.038-3.177 1.327-.412 2.67-.777 4.01-1.136.212-.056.46.045.694.05.454.014.908.024 1.36.007.144-.006.28-.14.424-.154 2.803-.25 5.62-.813 8.357.41.26.116.778.15.883.005.168-.23.15-.648.1-.97-.07-.44-.232-.867-.38-1.29-.344-.984.422-2.11 1.55-2.324.4-.074.777-.265 1.166-.395.397-.133.798-.255 1.195-.386.388-.13.82-.19 1.152-.407 1.1-.714 2.102-.512 2.608.722.388.947.68 1.963.824 2.976.398 2.806.733 5.62 1.02 8.44.183 1.82.223 3.653.358 5.478.036.48.186.954.283 1.43l.302.01c.104-.23.26-.45.305-.692.6-3.277 1.156-6.556 1.006-9.913-.105-2.36.054-2.596 2.42-3.18 1.1-.273 2.276-.4 3.404-.34.507.026 1.162.575 1.428 1.063.38.696.565.538 1.062.167.94-.702 1.877-1.53 3.21-1.225.444.1.866.315 1.312.374 1.67.22 3.32.165 4.976-.25.454-.115 1.024.224 1.54.363.81.218 1.62.444 2.43.662.262.07.584.052.78.202 1.316 1.01 2.732.522 4.12.284.232-.04.623-.48.583-.562-.186-.383-.454-.945-.772-1.002-.76-.136-1.194-.68-1.13-1.203.074-.62.463-1.45.97-1.73 2.245-1.24 4.656-2.02 7.28-1.664 1.624.22 3.283.364 4.842.827 1.603.476 3.104 1.297 4.65 1.97.276.12.538.31.826.36.207.037.56-.042.642-.187.11-.195.123-.588-.005-.742-.305-.365-1.093-6.67-.55-6.71 3.6-.256 6.862.847 9.978 2.496 1.373.726 2.758 1.452 4.036 2.326 1.402.96 2.718 2.053 4.007 3.162.572.492 1.01.68 1.672.194 3.5-2.575 7.554-3.87 11.68-4.978 1.982-.533 3.953-1.16 5.97-1.49 1.162-.19 2.406.13 3.612.223.393.03.8.024 1.175.13.475.136.935.345 1.37.582.088.048.11.48.033.53-1.26.81-1.327 2.33-2.086 3.406-.663.94-1.697 1.613-2.56 2.41-.248.227-.478.474-.924.92 1.097.097 1.894.19 2.695.232 2.114.11 3.874 1.142 5.63 2.163.754.44 1.42.445 1.674-.333.784-2.402 2.875-3.388 4.782-4.523 1.425-.85 2.946-1.672 4.534-2.083 2.74-.71 5.563-1.008 8.424-.937 2.056.05 3.988.364 5.785 1.423 1.41.832 2.066 2.174 2.348 3.635.244 1.26-1.485 2.818-2.78 3.03-1.962.322-3.686-.29-5.508-.858-1.814-.565-3.76-.9-5.657-.946-1.376-.034-2.833.403-4.135.926-1.504.605-1.536 1.24-.476 2.925 1.09 1.73 2.76 2.403 4.724 2.688 2.014.292 3.997.8 5.998 1.19 2.152.422 4.314.79 6.46 1.234 1.037.214 2.046.56 3.073.825 1 .257 11.51-2.598 14.876-2.564 1.922.02 5.994.492 7.545.442.54-.017 2.815-.386 3.304-.114.527.294-.917 1.27-1.468 1.61-.582.356-2.288.722-3.25.514s-2.908.768-3.65 1.423c-.428.378-2.103.29-2.684.442-.794.205-1.898.306-2.99 1.02-1.775 1.158-2.28 1.027-4.114 1.767-.28.113.862.826 1.503.963.766.164 1.54.43 2.31.426 1.775-.008 9.056-.403 10.258.04.388.142 2.852-.006 3.705 1.087.297.385 1.697-.283 1.697.078 0 .36-1.446.995-2.197 1.243-1.266.418-1.785.017-3.094.298-.772.165-1.27.622-1.75 1.217-.322.4-.84.662-1.306.917-.52.285-1.14.414-1.62.748-1.647 1.146-3.395 1.028-5.167.474-.488-.153-.812-.17-1.246.146-1.658 1.204-3.455 1.303-5.273.41-.574-.282-.944-.2-1.375.21-1.478 1.406-2.826 3.01-4.782 3.773-1.496.584-3.04 1.257-4.607 1.394-3.07.27-6.166.162-9.216-.496-3.158-.682-7.967-2.916-11.124-3.605-.604-.132-3.483-3.182-3.616-3.06-2.885 2.625-7.32 5.148-11.02 6.174-2.808.778-5.54 1.852-8.523 1.987-3.746.17-7.365-.318-10.878-1.592-1.143-.415-2.233-.974-3.37-1.403-.344-.13-.802-.143-1.15-.033-.872.275-1.71.653-2.563.988-.783.308-.914.672-.502 1.403.8 1.417.527 2.835-.73 3.885-.558.467-1.08.98-1.653 1.428-2.49 1.94-3.26 1.26-5.135-.778-1.728-1.88-3.106-4.075-4.754-6.033-1.602-1.904-2.652-4.205-4.343-6.033-.156-.168-.908-.55-1.322-.872-.058.7-.315 1.97-.283 2.45.147 2.14-.652 2.892-2.79 2.718-1.818-.148-2.5-.973-3.98-1.887-.425-.263-.443-1.453-.612-2.107-.025-.1-.754-.71-1.19-.46-1.816 1.05-4.637 1.656-6.883 1.684-1.31.016-2.635.09-3.924.312-1.095.19-2.133.692-3.223.934-1.004.222-2.052.414-3.066.358-.546-.03-1.087-.574-1.59-.942-1.387-1.013-2.456-2.15-2.547-4.077-.07-1.45.995-2.092 1.607-3.05.366-.575.892-1.013 1.77-.73.288.093 1.043-.365 1.102-.666.102-.52-.162-1.118-.297-1.677-.024-.1-.165-.174-.258-.253-1.374-1.165-1.443-1.82-.485-3.332.452-.712 4.4-.19 5.358-.034 1.682.272 4.247.555 5.948.665 1.258 0 5.048 1.297 5.302 1.85.204.444-1.325 1.047-2.345 1.597-1.86 1.003-3.29.66-5.438.646-.65-.004-1.265.103-1.873.427-1.067.567-2.128 1.05-3.38 1-.27-.01-.55.228-.827.352.163.305 1.992 1.352 2.72 1.293 2.1-.168 4.193-.448 6.277-.754.718-.105 1.233-.016 1.655.617.612.92 1.575.797 2.492.716.607-.054 1.207-.206 1.815-.237.707-.037.903-.407.986-1.052.163-1.263.506-2.506.62-3.77.192-2.15.277-4.31.38-6.465.038-.76-.02-1.525-.002-2.287.018-.723-.27-.925-.932-.758-2.444.617-4.533 1.584-7.007 2.047-2.184.41-4.936.854-7.137 1.19-1.708.26-5.104-.463-5.262.132-.986 3.706-1.92 7.426-2.94 11.123-.686 2.493-1.458 4.963-2.24 7.43-.354 1.12-1.31 1.653-2.346 2.01-.884.305-1.876-.816-2.342-1.43-.415-.547-2.87-6.444-3.22-8.035-.38-1.733-2.173-5.3-2.322-5.057-.875 1.427-1.32 3.208-2.388 4.465-1.41 1.656-3.665 3.6-5.302 5.047-1.228 1.085-2.8 2.128-4.18 3.008-5.048 3.22-10.52 3.602-16.38 3.382-1.53-.057-3.107-.017-4.428-.874-2.215-1.437-3.648-3.24-5.075-5.6-.607-1.005-1.905-1.718-2.447-2.754-.86-1.643-1.142-3.25-1.132-5.056.01-1.978.466-3.782 1.404-5.573 1.018-1.944 1.954-3.903 3.356-5.616 1.717-2.098 3.586-4.03 5.796-5.61 1.684-1.202 3.338-2.462 5.108-3.525 1.794-1.076 3.677-2.027 5.596-2.86.92-.4 2.013-.3 2.86.428.99.85 1.95 1.747 2.24 3.105.04.18 0 .42-.096.577-1.025 1.68-2.41 2.766-4.41 3.247-3.134.754-5.944 2.32-8.614 4.097-.622.414-1.127 1.03-1.616 1.61-1.334 1.588-2.774 3.112-3.905 4.835-1.486 2.263-2.236 4.825-1.842 7.576.103.72-.918 3.06-.905 3.17.22 1.99 3.516 2.026 5.172 2.618.572.205 1.09.578 1.68.717 1.44.34 2.515-.16 3.203-.278 1.737-.296 3.453-.716 5.187-1.036 2.634-.487 4.927-1.67 7.13-3.16 2.87-1.947 5.46-4.17 7.562-6.934.574-.754 1.353-1.483 1.572-2.343.265-1.037.177-2.23-.05-3.296-.097-.46-.875-.985-1.425-1.1-1.447-.308-2.96-.648-4.41-.534-2.482.195-4.974.573-7.392 1.16-2.512.61-4.427 2.29-6.033 4.28-.858 1.063-1.73 2.13-2.435 3.295-.792 1.308-.163 2.408 1.33 2.662 2.5.426 4.62-.36 6.488-1.98.226-.195.447-.442.558-.712.105-.255 4.315-6.632 6.776-6.165 1.58.3 3.11 1.837 3.214 1.976.71.93.698 1.694.314 2.45-1.835 3.618-5.517 5.818-9.147 7.396-3.097 1.346-8.895 3.023-11.376 2.75zm147.553 1.167c.942-.07 1.883-.156 2.826-.21 2.435-.14 4.517-1.168 6.397-2.622.673-.52 1.145-1.376.71-2.19-.624-1.17-1.385-2.296-2.628-2.962-2.308-1.236-4.825-1.64-7.383-1.91-4.032-.428-10.94-.932-12.27-1.783-1.328-.85-2.86-2.634-3.21-2.796-.988-.456-3.016 6.36-2.975 6.578.198 1.05 5.914 5.132 8.614 5.988 3.232 1.023 6.5 1.822 9.92 1.908zm-21.917-8.644c1.142-1.66 1.21-3.544.86-5.37-.346-1.802-1.86-2.834-3.513-3.22-1.437-.337-3.023-.364-4.493-.16-2.82.39-6.236 2.188-7.948 2.837s-3.12 2.05-6.152 4.972c-.558.77 1.534 1.094 2.467.838 1.793-.492 5.624-2.1 6.152-2.31 1.3-.523 2.566-3.112 3.915-3.48.744-.203 1.597-.232 2.35-.082.38.076.625.746.972 1.107.273.284.622.493.912.762.51.474 1.06.922 1.483 1.466.52.67.383 2.918-.082 3.617-1.484 2.23 1.26 1.66 3.075-.977zm-38.46-15.744c0 1.84-.034 3.444.013 5.046.022.758.293 1.512.287 2.266-.02 2.318-.152 4.635-.178 6.952-.034 3.017-.02 6.036.01 9.053.003.317.233.896.38.903.606.03 1.237-.06 1.824-.227.2-.058.417-.482.41-.732-.012-.473-.172-.944-.284-1.413-.17-.707-.514-1.415-.498-2.115.045-1.95.143-3.906.948-5.743.377-.86.643-1.77 1.033-2.624.828-1.814 1.652-3.635 2.584-5.397.615-1.162.974-2.48-.104-3.208-1.31-.886-1.578-1.41-2.958-2.19-.518-.293-2.577-.204-3.47-.572zM89.552 13.5c-1.084-.09-2.134-.042-2.716 1.057-.28.53-.565 1.13-.586 1.71-.066 1.822-.038 3.65.007 5.475.046 1.828.743 1.748 2.327 1.385.257-.06.495-.236.72-.39 1.88-1.303 3.534-2.82 4.498-4.95.23-.506.286-1.09.506-1.604.308-.718.116-1.234-.568-1.67-1.29-.822-2.72-.986-4.188-1.014zm5.907 22.62c.23-.64.5-1.053.51-1.47.057-2.76.068-5.522.067-8.282 0-.357-.15-.714-.264-1.213-.593.463-.98.85-1.44 1.11-1.4.794-2.817 1.557-4.247 2.293-.53.273-.562.59-.25 1.017.305.416.302 1.625.496 2.085.937 2.23 3.198 2.777 5.128 4.46z" />
    <path
      d="M180.582 9.66c1.66-.02 3.327-.266 4.976-.51 1.417-.21 2.768-.4 4.21.085 1.104.372.747.97 1.904 1.225 1.002.222 1.95.86 2.906 1.25.25.1 1.835.078 1.835.578 0 .223-.918.594-1.937.418-1.338-.23-3.076.216-4 .518-1.38.45-2.244.837-3.726.297-.836-.304-1.602-.07-2.3.503-.346.284-.78.543-1.212.624-2 .375-5.094 1.558-6.173.687-.918-.74-2.64-1.39-3.236-2.372s1.245-2.136 1.612-2.136c0 .007 3.257-1.143 5.14-1.165z" />
  </g>
  <g class="overdose__lettering">
    <path
      d="M13.248 31.63c-.487-.383-1.115-.632-1.743-1.15-.3-.248-.604-.515-.82-.83-1.5-2.19-1.34-4.428-.215-6.72 1.586-3.234 4.286-5.395 7.046-7.532 1.836-1.42 3.832-2.492 6.038-3.177 1.327-.41 2.67-.776 4.01-1.135.212-.056.46.045.694.05.454.014.908.024 1.36.007.144-.006.28-.14.424-.154 2.803-.25 5.62-.813 8.357.41.26.116.777.15.882.005.168-.23.15-.648.1-.97-.07-.44-.232-.867-.38-1.29-.344-.984.422-2.11 1.55-2.324.4-.076.777-.267 1.166-.397.397-.133.798-.255 1.195-.386.388-.128.82-.19 1.152-.406 1.1-.713 2.103-.51 2.61.723.387.947.68 1.963.823 2.976.398 2.804.733 5.62 1.02 8.438.183 1.82.223 3.653.358 5.478.036.48.186.954.283 1.43l.3.01c.105-.23.262-.45.306-.692.6-3.277 1.156-6.556 1.006-9.913-.105-2.358.054-2.595 2.42-3.18 1.1-.272 2.276-.4 3.404-.34.507.027 1.162.576 1.428 1.064.38.696.565.538 1.062.167.94-.7 1.877-1.528 3.21-1.224.444.1.866.315 1.312.374 1.67.22 3.32.165 4.976-.25.454-.115 1.024.224 1.54.363.81.218 1.62.444 2.43.662.262.07.584.052.78.202 1.316 1.012 2.732.523 4.12.285.232-.04.623-.48.583-.562-.187-.383-.455-.945-.773-1.002-.76-.136-1.194-.68-1.13-1.203.074-.62.463-1.45.97-1.73 2.245-1.24 4.656-2.02 7.28-1.664 1.624.22 3.283.365 4.842.828 1.603.476 3.104 1.297 4.65 1.97.276.12.538.31.826.36.207.037.56-.042.642-.187.11-.194.123-.587-.005-.74-.306-.367-.684-.704-1.097-.94-.713-.407-1.033-.96-1.056-1.78-.013-.46-.213-.915-.33-1.372-.03-.117-.075-.234-.084-.353-.045-.548 1.474-2.228 2.016-2.267 3.6-.256 6.862.847 9.978 2.496 1.372.726 2.757 1.452 4.035 2.326 1.402.96 2.718 2.053 4.007 3.162.572.492 1.01.68 1.672.194 3.5-2.575 7.554-3.87 11.68-4.978 1.982-.533 3.953-1.16 5.97-1.49 1.162-.19 2.406.13 3.612.223.393.032.8.025 1.175.132.474.135.934.344 1.37.58.087.05.11.48.032.53-1.26.81-1.327 2.332-2.086 3.407-.662.937-1.696 1.61-2.56 2.407-.247.228-.477.475-.923.922 1.097.095 1.894.188 2.695.23 2.113.11 3.873 1.142 5.628 2.163.755.44 1.422.445 1.675-.333.785-2.402 2.877-3.388 4.783-4.523 1.425-.85 2.946-1.67 4.534-2.082 2.74-.71 5.563-1.008 8.424-.937 2.057.05 3.99.364 5.786 1.423 1.41.833 2.067 2.175 2.35 3.636.243 1.26-1.486 2.818-2.78 3.03-1.963.322-3.687-.29-5.51-.858-1.813-.565-3.76-.9-5.656-.946-1.376-.034-2.833.403-4.135.926-1.504.605-1.536 1.24-.476 2.925 1.09 1.73 2.76 2.403 4.723 2.688 2.014.293 3.997.8 5.998 1.192 2.153.42 4.315.79 6.46 1.233 1.038.214 2.047.56 3.074.825 1 .257 1.193.114 1.193-.938 0-.88-.116-1.736.48-2.54 1.073-1.45 2.64-1.655 3.892-.36.935.967 2.016.577 2.99.3 1.257-.357 2.426-.356 3.677-.012.712.195 1.512.18 2.26.112 1.914-.172 3.82-.443 5.73-.642 1.547-.16 3.096-.33 4.648-.38.54-.017 1.133.234 1.62.506.528.294.596.837.044 1.176-.583.357-1.26.555-1.882.85-.618.295-1.303.527-1.81.96-.92.787-1.966.825-3.02.655-.956-.155-1.69.007-2.432.662-.43.377-1.082.546-1.664.696-.794.205-1.616.3-2.424.45-.24.045-.53.05-.702.19-1.643 1.337-3.784 1.172-5.617 1.912-.28.113-.538.558-.577.877-.02.158.458.456.756.555.62.207 1.265.336 1.906.473.767.164 1.54.43 2.31.426 1.775-.01 3.553-.124 5.325-.26.71-.056 1.456-.173 2.095-.46 1.155-.522 2.257-.634 3.46-.192.387.143.9.096 1.316-.016 1.108-.3 2.134-.514 2.987.58.304.388 1.194.586 1.194.947s-1.35.948-2.102 1.196c-1.266.418-2.603.478-3.91.76-.772.164-1.255.815-1.736 1.41-.322.4-.84.662-1.306.917-.52.285-1.14.414-1.62.748-1.647 1.147-3.395 1.03-5.167.475-.49-.153-.813-.17-1.247.146-1.66 1.205-3.456 1.304-5.274.41-.575-.28-.945-.198-1.376.212-1.478 1.405-2.826 3.01-4.782 3.772-1.496.583-3.04 1.256-4.607 1.393-3.07.27-6.166.162-9.216-.496-3.16-.68-6.335-1.282-9.492-1.97-.604-.133-1.173-.476-1.727-.78-.772-.423-1.56-.842-2.26-1.374-.537-.41-.913-1.027-1.427-1.477-.194-.17-.713-.285-.846-.164-2.885 2.626-6.31 4.25-10.01 5.275-2.807.78-5.538 1.853-8.522 1.988-3.746.17-7.365-.318-10.878-1.592-1.143-.415-2.233-.974-3.37-1.403-.344-.13-.802-.142-1.15-.032-.872.276-1.71.654-2.563.99-.783.307-.914.67-.502 1.402.798 1.417.526 2.835-.73 3.885-.56.467-1.08.98-1.654 1.428-2.49 1.94-3.26 1.258-5.135-.78-1.728-1.878-3.106-4.074-4.754-6.032-1.603-1.903-2.937-3.75-4.628-5.576-.156-.168-.63-.744-1.02-.574-.387.17-.334 1.22-.3 1.696.146 2.14-.653 2.892-2.792 2.718-1.817-.148-3.388-.947-4.87-1.86-.424-.264-.417-1.238-.586-1.892-.025-.098.115-.23.11-.342-.028-.52-.08-1.04-.124-1.56-.478.18-.99.295-1.426.546-1.816 1.048-3.522 2.31-5.768 2.338-1.31.016-2.635.09-3.924.312-1.096.19-2.134.692-3.224.934-1.004.222-2.052.414-3.066.358-.547-.03-1.088-.574-1.59-.942-1.388-1.013-2.457-2.15-2.548-4.077-.07-1.45.995-2.09 1.607-3.05.367-.574.893-1.012 1.772-.73.287.094 1.042-.364 1.1-.665.103-.52-.16-1.118-.296-1.677-.024-.098-.165-.173-.258-.252-1.374-1.165-1.443-1.82-.485-3.332.452-.712.805-1.493 1.143-2.27.286-.656.63-.75 1.14-.195.326.36.598.767.92 1.128.783.873 1.893.546 2.852.702 1.682.272 3.386.436 5.088.546.706.046 1.427-.22 2.145-.24.884-.026 1.776.008 2.653.112.598.07 1.18.294 1.763.472.262.08.507.217.76.33-.18.222-.313.524-.544.656-1.005.575-2.042 1.096-3.062 1.646-1.86 1.003-3.812 1.58-5.96 1.566-.65-.004-1.34.376-1.948.7-1.067.567-2.128 1.05-3.38 1-.27-.01-.55.228-.827.352.163.305.263.8.5.88.713.236 1.492.472 2.22.414 2.1-.168 4.193-.448 6.277-.754.718-.105 1.233-.016 1.655.617.613.92 1.576.796 2.493.715.607-.054 1.207-.206 1.815-.237.707-.036.903-.406.986-1.05.164-1.264.507-2.507.62-3.772.193-2.15.278-4.308.382-6.464.037-.762-.02-1.526-.003-2.288.016-.723-.272-.925-.934-.758-2.444.617-4.88 1.292-7.355 1.756-2.184.41-4.423.514-6.624.85-1.708.26-3.255-.033-4.804-1.027-.22.624-.465 1.196-.623 1.79-.988 3.707-1.923 7.427-2.94 11.124-.688 2.493-1.46 4.963-2.24 7.43-.356 1.12-1.313 1.653-2.348 2.01-.884.305-1.462-.27-1.927-.883-.415-.547-.814-.884-1.577-.88-.383.002-.928-.422-1.115-.796-.3-.603-.445-1.316-.515-1.997-.17-1.635-.08-3.318-.428-4.908-.38-1.733-1.13-3.386-1.746-5.064-.057-.157-.39-.377-.444-.34-.236.155-.462.368-.61.61-.875 1.427-1.56 3.01-2.63 4.267-1.41 1.656-3.072 3.11-4.71 4.556-1.227 1.086-2.52 2.126-3.9 3.006-5.046 3.22-10.673 4.032-16.53 3.812-1.532-.057-3.11-.017-4.43-.874-2.22-1.448-4.52-2.814-5.947-5.176-.607-1.004-1.326-1.947-1.868-2.983-.86-1.643-.853-3.457-.843-5.262.01-1.978.466-3.782 1.404-5.573 1.018-1.944 1.954-3.903 3.356-5.616 1.717-2.098 3.586-4.03 5.796-5.61 1.684-1.202 3.338-2.462 5.108-3.525 1.794-1.077 3.677-2.028 5.596-2.862.92-.4 2.013-.298 2.86.43.99.85 1.95 1.746 2.24 3.104.04.18 0 .42-.096.577-1.025 1.68-2.41 2.765-4.41 3.246-3.134.755-5.944 2.32-8.614 4.098-.622.414-1.127 1.03-1.616 1.61-1.334 1.588-2.774 3.112-3.905 4.835-1.485 2.262-2.235 4.824-1.84 7.575.102.72.527 1.39.808 2.084.045.11.15.21.16.322.22 1.99 1.64 2.79 3.297 3.38.572.206 1.09.58 1.68.718 1.44.34 1.808-.36 2.496-.478 1.738-.296 4.16-.517 5.895-.836 2.634-.486 4.927-1.67 7.13-3.16 2.87-1.946 5.46-4.168 7.562-6.933.574-.754 1.353-1.483 1.572-2.343.264-1.037.176-2.23-.05-3.296-.098-.46-.876-.985-1.426-1.1-1.448-.308-2.96-.648-4.412-.534-2.48.195-4.973.573-7.39 1.16-2.513.61-4.428 2.29-6.034 4.28-.858 1.063-1.73 2.13-2.435 3.295-.792 1.308-.163 2.408 1.33 2.662 2.5.426 4.62-.36 6.488-1.98.227-.195.448-.442.56-.712.104-.255.413-.724.32-.97-.04-.113-.58-.216-.815-.17-.64.122-1.445.65-2.064.613-.717-.044-1.548-.233-2.088-.662-.633-.504-.5-1.314.027-1.977 1.336-1.683 2.932-3.03 5.01-3.674 2.317-.72 4.664-1.24 7.125-.772 1.58.3 2.424 1.217 2.44 2.792 0 .214-.104.522.033.63.978.77.04 1.638-.344 2.396-1.835 3.617-4.86 5.874-8.49 7.452-3.093 1.345-6.258 2.027-9.64 1.32-.7-.148-1.888.117-2.376-.265zm148.2 2.86c.94-.07 1.882-.155 2.825-.21 2.435-.138 4.517-1.167 6.397-2.62.673-.52 1.145-1.377.71-2.19-.624-1.17-1.385-2.297-2.628-2.963-2.308-1.236-4.825-1.64-7.383-1.91-4.033-.428-8.106-.555-12.05-1.634-.378-.104-.787-.135-1.137-.297-.987-.457-1.315-.306-1.29.75.032 1.346-.286 2.593-.875 3.79-.1.204-.153.476-.112.695.198 1.05.67 1.992 1.592 2.548 1.302.786 2.613 1.626 4.03 2.135 3.19 1.143 6.498 1.822 9.92 1.908zm-48.02-.567c-.388-.16-.943-.265-1.22-.62-.22.323-.473.612-.437.654.177.206.802.46 1.31.57.637.136 1.547.47 2.328.5.78.033 1.718.057 2.133.082 2.264.137 4.516.21 6.68-.688 2.105-.872 4.23-1.686 6.5-2.055.595-.097 1.21-.282 1.732-.575 2.73-1.532 5.264-3.31 7.078-5.945 1.142-1.66 1.21-3.544.86-5.37-.346-1.802-1.86-2.834-3.513-3.22-1.437-.337-3.023-.364-4.493-.16-2.82.39-5.528 1.267-7.948 2.837-2.807 1.82-5.243 4.08-7.464 6.568-.22.246-.392.815-.26 1.022.157.24.688.37 1.032.33.962-.11 1.93-.266 2.863-.522 1.793-.492 3.57-1.045 5.336-1.624.298-.098.51-.45.763-.687-.3-.173-.583-.392-.903-.514-1.255-.48-1.447-1.377-.417-2.23.442-.364.94-.7 1.47-.912 1.3-.522 2.612-1.04 3.96-1.408.745-.203 1.598-.232 2.35-.082.382.076.626.746.973 1.107.272.285.62.494.91.763.51.474 1.06.922 1.484 1.466.522.668.425 1.407-.04 2.105-1.484 2.23-3.53 3.772-5.775 5.213-2.317 1.486-4.78 2.417-7.397 3.012-2.312.526-6.4.79-7.315.79s-2.19-.247-2.58-.407zm-12.36-23.82c0 1.84-.032 3.444.015 5.046.022.757.293 1.51.287 2.265-.02 2.318-.152 4.635-.178 6.952-.034 3.017-.02 6.036.01 9.053.003.317.233.896.38.903.606.03 1.237-.06 1.824-.227.2-.057.418-.48.41-.73-.01-.474-.17-.945-.283-1.414-.17-.707-.514-1.415-.498-2.115.045-1.95.143-3.906.948-5.743.377-.86.643-1.77 1.033-2.624.83-1.814 1.653-3.635 2.585-5.397.616-1.162.624-1.97-.454-2.698-1.31-.886-2.702-1.657-4.082-2.435-.517-.294-1.102-.47-1.995-.837zm-13.15 1.763c-1.082-.09-2.132-.04-2.714 1.058-.28.53-.565 1.13-.586 1.71-.067 1.822-.04 3.65.006 5.475.046 1.827.743 1.747 2.327 1.384.258-.06.496-.236.72-.39 1.88-1.303 3.535-2.82 4.5-4.95.23-.506.285-1.09.505-1.604.308-.718.116-1.234-.568-1.67-1.29-.822-2.72-.986-4.188-1.014zm5.91 22.62c.23-.64.5-1.052.51-1.47.056-2.76.067-5.52.066-8.28 0-.358-.15-.715-.264-1.214-.593.463-.98.85-1.44 1.11-1.4.794-2.817 1.557-4.247 2.293-.53.273-.562.59-.25 1.017.305.416.85.602 1.044 1.062.937 2.23 2.65 3.8 4.58 5.482zm36.506-22.547l.01-.4c-.58-.177-1.148-.39-1.735-.524-2.007-.455-4.004-.61-5.855.54-1.58.984-3.168 1.962-4.674 3.05-.522.38-.855 1.057-1.177 1.65-.1.184.043.683.22.785.234.135.658.12.92-.003 1.345-.634 2.65-1.353 3.998-1.984 1.902-.89 3.812-1.75 5.894-2.186.828-.173 1.6-.61 2.4-.928zm-18.387 9.335l-.446-.844c-.226.153-.528.255-.666.466-.768 1.165-1.51 2.347-2.222 3.547-.116.196-.032.51-.04.77.257-.09.597-.108.756-.287.68-.766 1.33-1.564 1.945-2.384.267-.353.425-.788.674-1.267z" />
    <path
      d="M173.294 7.703c1.885.12 3.772.348 5.656.325 1.66-.02 3.327-.267 4.976-.512 1.417-.21 2.768-.4 4.21.086 1.104.372 2.36.265 3.517.52 1.002.223 1.97.624 2.924 1.014.25.102.4.456.594.695-.26.097-.517.217-.786.286-1.7.44-3.432.784-5.098 1.328-1.38.45-2.687.983-4.168.443-.836-.305-1.602-.07-2.3.502-.346.283-.78.542-1.212.623-2 .375-5.094 1.558-6.173.687-.918-.74-1.94-.765-3.288-1.147-.106-.03-.6-.477-.618-.58-.182-1.008-.392-2.014-.5-3.03-.084-.794.473-1.145 1.172-1.254.357-.057.73-.01 1.097-.01-.002.007-.002.015-.003.023z" />
  </g>
</svg>