<!--
  SVG Music Logos
  Sextrash - XXX v1.0.0
  https://github.com/tiagoporto/svg-music-logos
  Copyright (c) 2016 Tiago Porto (http://tiagoporto.com)
-->
<svg xmlns="http://www.w3.org/2000/svg" viewBox="0 0 200 94">
  <path d="M173.427 40.695c-.057-.907-.694-1.008-1.247-1.134-.712-.16-.567-.056-.794.228s.53 3.194-.283 3.062c-.336-.055-2.117-3.78-6.407-3.78-3.326 0-5.046 2.533-5.84 3.213-.794.68-2.438 5.046-.68 7.258 1.758 2.212 7.258 6.01 9.582 8.166 2.325 2.155 3.515 4.593 3.856 5.046.34.454 3.29 3.8 3.29 3.005 0-.794-1.305-14.345-1.475-17.01-.173-2.666.054-7.145-.003-8.052zm-9.145.558c.083-.706 2.39-.188 3.76 1.124 1.36 1.304 1.996 2.59 2.21 2.684.813.36 1.144-.25 1.455.303.17.302-2.306 2.04-3.79 2.117-.386.02-3.807-4.763-3.635-6.227zm-4.576 5.66c0-2.09 1.73-4.693 2.637-4.63 1.926.13 4.62 4.932 4.62 5.31 0 .492-7.257.64-7.257-.68zm10.816 10.595c-1.658-1.575-4.706-4.793-7.972-6.537-.563-.3.11-1.24 1.012-1.77 1.062-.625 2.797-1.116 4.045-1.116 2.856 0 3.94.99 3.966 1.45.182 3.23.834 5.687.834 6.696 0 .486-1.462 1.68-1.885 1.278zm2.553 2.937c-.284 0-1.405-1.833-2.038-2.274-.233-.16 1.35-1.26 1.483-.22.17 1.326.84 2.495.555 2.495z"/>
  <path d="M198.8 36.952c-.705-.437-3.288-.88-4.96-.586-2.143.375-8.014-.076-8.62-.076s-1.965-.038-1.965 1.852c0 1.89 1.36 2.192 2.155 2.42.794.226 1.436-.303 1.89.037.454.34-.302.906-.076 1.36.227.454 1.002.435 1.172 1.172.17.737-.01 2.816-.01 2.816-.455.227-2.11 2.23-3.222 2.23-.966 0-1.928-.964-3.345-2.38s-2.326-3.133-2.326-4.153c0-1.02 1.626-1.215 2.117-2.16.257-.492.417-2.23.19-2.854-.227-.623-2.914-.642-3.837-.642-1.493 0-3.46.397-3.515-.057-.057-.453 1.074-1.412 1.23-1.984.188-.7-.833-.964-1.853-1.077-1.02-.114-2.25.358-2.76.868-.51.51-1.666.908-2.853 1.318-.437.15-.454.704-.624 1.1-.17.398-.397.02-2.552-.717-2.155-.738-5.86.528-7.39 1.776-1.53 1.247-2.21 2.977-2.665 3.827s-3.552 4.356-3.722 4.073-.397-4.082-.284-4.933 2.155-1.172 2.155-2.495c0-1.02-2.458-1.247-5.217-1.247-7.92 0-10.66.096-10.66 1.116 0 1.55 2.854 2.552 2.854 3.837 0 .98-2.325 7.258-4.158 13.74-1.135-.396-3.535-2.286-3.913-4.006-.224-1.02.794-2.608.964-5.387.17-2.778-2.21-6.776-5.67-8.675-2.022-1.11-11.282-1.134-13.267-1.134.983-1.568 1.72-3.624.17-3.987-2.098-.49-5.675 4.196-9.412 4.27-2.437.05-10.66.51-10.545.058.113-.453 1.21-4.44-1.02-4.44-2.382 0-5.37 4.61-6.05 4.554s-10.45.17-11.755.057c-1.304-.112-1.357-.868-2.21-1.02-1.173-.208-3.8-.057-5.274-.17-1.474-.113-2.722.51-2.608 1.814-.567-.113-3.44-.132-4.687-.246.34-1.077-1.095-1.512-2.683-1.57-1.258-.044-7.455-.004-8.533-.004s-3.95-3.1-4.903-3.1c-1.343 0-1.844 2.85-2.95 2.935-.565.042-7.938.112-8.62-.17-.68-.285-1.076-2.61-1.303-3.346-.227-.737.454-.85.51-1.588.057-.737-.737-2.665-.737-4.48s2.325-5.442 2.325-7.503c0-2.06-3.09-4.516-4.99-7.635-2.964-4.866-3.515-8.62-6.86-8.62-2.184 0-5.527 4.032-8.91 10.774-1.936 3.858-7.99 12.788-7.99 17.012 0 2.892 2.432 6.234 3.46 7.626 1.36 1.843 6.098 5.93 6.18 6.492.112.765-.767 1.382-1.956 1.985C8.342 47.84 1 52.687 1 53.907c0 1.155 4.31 2.21 4.366 2.947.057.737-.907 1.53-.907 3.515 0 1.26 1.484 2.857 2.976 4.648.857 1.03 1.754 2.396 2.277 3.1 1.436 1.928 5.67 7.636 7.75 7.636 2.078 0 5.688-4.854 6.255-5.307s7.314-1.497 7.125-1.08c-.19.415-2.268 2.588-2.42 3.307-.15.718.36 1.928.89 2.117.528.19 11.623-1 12.908-.925.077.49 1.578 4.007 2.723 4.007.653 0 3.667-2.76 4.12-3.667.643-.076 10.206.18 11 .15 1.01-.037 1.247-1.36 1.663-1.398.416-.038 1.172.756 1.55 1.058.378.302 6.54-.113 8.96-.113 2.418 0 17.463.268 18.483.227 1.026-.042 1.797-.143 1.717.116-.092.3.327.43 1.864.398 1.362-.03 2.345-.595 4.877-.595 2.533 0 4.394.495 6.02.495 1.625 0 1.952-1.498 2.293-1.46.34.038.302.718.717 1.134s3.416.174 5.117.023c1.7-.15 6.804.227 8.203.076 1.4-.152 1.696-.913 1.734-1.178.04-.265-.278-.317-.43-.58-.15-.266.036-.503.603-.352.567.15 3.008.445 3.764.52.756.077.747.628 3.478 5.67 2.665 4.923 5.16 7.94 7.522 10.7 2.03 2.37 4.65 3.325 4.99 3.136.34-.19-1.096-2.57-2.344-4.27s-4.692-10.74-5.25-11.804c-.61-1.162-.463-1.635-.198-1.673.265-.04 4.994.093 6.43.13 1.19.032 1.23-.15 1.693-.557.302-.265.057-1.3.397-1.375.34-.076 1.63-.156 1.744.298s-.398.624-.143 1.177c.462 1 7.857.652 8.576.662 1.36.018 1.633.396 1.87.84.327.61.153 1.052.228 1.603.214 1.573.965 2.608 1.55 2.608.908 0 4.544-4.328 4.657-4.706.113-.378-.125-.61-.238-.95-.072-.213-.197-.78-.003-.813.37-.065.866 2.06 4.164 2.06 2.08 0 2.874-.902 3.365-.902.49 0 .332.173.605.624.406.67 4.905-.024 6.275-.19 2.107-.255 4.562.333 4.744-1.19.226-1.9-2.666-2.92-2.704-3.724-.015-.31.425-.284.69-.586.265-.302.315-1.81.37-3.383.018-.568.49-5.027.49-5.708s.378-1.022 2.91-1.06c2.534-.037 4.934.908 5.482 1.93.295.548-.113 5.215-.19 7.257-.075 2.04-.83 1.928-2.116 1.928-.537 0-1.883.49-2.99 1.135-.71.413-.904 1.055-.904 1.85 0 2.346 5.254 2.042 6.615 1.89 1.36-.15 4.575-.5 5.783-.594 1.87-.144 2.722-.602 2.722-1.588 0-1.39-1.55-1.484-1.74-2.013-.188-.53.34-1.36.34-1.928s-.982-4.054-1.284-11.567c-.127-3.148.354-5.368.586-6.577.37-1.918.028-4.338.652-7.57.418-2.164 1.673-3.43 2.532-3.816.44-.2.614-2.508.247-2.735zm-12.5 11.715c.226-.64 1.63-2.063 2.14-2.02.23.02-.383 3.8-.837 3.8-.737 0-1.635-.847-1.304-1.78zm-2.572-.28c.54.094 3.137 2.1 3.25 2.457.114.357-5.16 2.156-5.442 2.1-.284-.057 1.783-4.628 2.192-4.557zm-.718-.49c0 .85-1.644 4.547-1.87 4.626-.228.08-2.867-3.083-2.893-3.55-.033-.605-.265-3.875-.02-4.366.29-.578 4.783 2.438 4.783 3.29zm-2.25 5.048c0 .432-2.097 1.112-2.21 1s-.132-3.174-.132-3.174c.113-.096 2.343 1.606 2.343 2.175zM58.366 40.795c0-.752.81-1.626 1.292-1.886.575-.31 1.576-.245 2.372-.245.83 0 2.41.187 2.41 2.48 0 1.42-2.884 7.142-3.338 7.232-.453.09-2.737-5.414-2.737-7.583zm3.157 30.504c-.854 0-3.954-1.707-3.5-2.69.454-.983 1.285-1.283 1.436-2.116.15-.833.907-5.973 1.588-6.125.668-.15 2.873 6.373 3.326 7.08.454.706.432 1.915.33 2.293-.102.38-2.326 1.556-3.18 1.556zm31.39-.036c-1.436 1.202-3.514 1.693-6.804 1.693-7.503 0-12.867-2.932-12.867-3.62 0-1.948 7.42-5.816 8.597-5.7 4.952.494 11.455 1.388 12.87 2.876.72.755 0 1.442-.17 1.782-.17.34.548 1.274-.396 1.47-.803.164-.986 1.297-1.228 1.5zm-20.526-4.09c-.92 0-2.287-2.155-.624-3.1.893-.507 7.314-.79 7.768-.433.454.36-5.953 3.534-7.144 3.534zm26.196 5.103c-.87.038-3.175.794-3.478.68-.302-.113.34-1.21.718-1.285.378-.076.076-.567.718-.605.643-.038.983-.302.983-.567 0-.265-.718-.68-.605-.983s.567 0 .605-1.134c.038-1.134 0-2.948-.15-3.137-.152-.19-8.434-2.267-11.095-2.702-3.544-.58-9.77-.85-10.68-.813-.906.04-.32-.51-.52-.566-.197-.057-1.048-.057-1.246-.142s-1.042-.056-1.106.113c-.19.5 1.134.043 1.09.404-.005.053-.2.183-.523.228-1.353.187-4.772.2-5.07.36-.368.197-1.39.103-1.28.812.11.71 1.224 2.382 1.37 3.02.346 1.496.616 2.717 1.238 3.255 2.75 2.374 4.216 2.344 4.17 2.778-.023.205-3.573.085-5.303.17s-3.9.458-3.912.113c-.02-.473 1.597-.938 2.04-1.05.87-.216 2.61-.167 2.742-.443.208-.435-2.306-.813-2.256-1.285.038-.348.2-1.37-.086-1.796-.286-.425-3.1-7.447-4.48-9.573-.277-.43-.87-1.428-1.19-1.428-.926 0-2.908 5.594-3.26 7.097-.21.898-1.59 3.194-1.87 4.28-.143.548.235 1.342-.228 1.616-.25.15-1.8.456-1.843.765-.077.568 2.162.933 3.497 1.286.633.167 1.115.302 1.04.548-.083.27-5.273-.246-6.01-.246-1.247 0-2.552.184-2.552-.198 0-.425 1.926-1.402 2.495-1.87.372-.308 2.494-3.225 2.494-4.444 0-1.22-3.912-4.232-7.06-5.593-3.146-1.36-3.004-1.39-3.43-1.304-.424.084-1.19 1.388-1.813 1.33-.624-.056-1.106-1.246-1.02-1.813s-1.022-2.778-1.702-2.92c-.68-.142-2.807-.142-3.317-.028-.51.112-.595.736-.54 1.388.058.652.823 10.263.795 10.887-.028.624-.142.907-.34 1.077-.198.17-1.266.803-1.332 1.673-.032.424.37.54 1.106.085.737-.454 3.63-.37 4.508-.425.88-.057 3.714-.454 4.11-.624.398-.17 1.078-.17 1.107.086.027.255-.653 1.39-.483 1.673.17.283.624.594 1.19.17s2.95-2.694 3.26-2.496c.313.198-.878 1.39-1.445 2.098s-2.577 4.167-3.12 4.168c-.68 0-.414-2.013-.878-2.778-.625-1.03-1.503-.794-3.374-.794-1.87 0-10.403 1.55-10.63 1.19-.398-.623 1.543-1.468 2.324-1.587 1.427-.216 1.154-1.112 1.295-2.41.226-2.096-.19-1.842-3.082-1.842s-8.59 1.843-9.072 2.268c-.482.425-2.948 4.82-4.394 4.82s-3.912-4.65-5.954-7.23c-2.04-2.58-2.268-3.798-3.147-4.365s-1.93-1.19-1.93-2.58.92-2.693.88-3.543c-.086-1.814-3.43-1.655-3.43-2.466 0-1.048 9.24-6.907 10.29-6.746 1.26.193-1.294 2.183-3.204 3.827-1.156.996-1.858 1.674-1.956 2.297-.085.54.85 1.276 1.134 1.276s.602-.363.765-.284c.736.358-.398.65-.34.85.056.198.17.454-.058.794-.227.34-1.02 1.18-1.02 2.4s3.174 6.502 4.677 8.43c1.502 1.928 1.445 2.466 1.672 2.75.227.284 1.05.88 1.786.68.737-.198 3.714-3.912 5.13-5.87 1.42-1.955 3.46-6.973 3.46-9.78 0-2.807-1.36-4.224-3.63-6.606C20.563 45.288 8.656 34.552 7.673 31.3s.416-5.97.907-6.917c.388-.748 6.763-13.312 10.324-18.81 1.233-1.904 1.92-2.207 2.527-2.207 2.505 0 5.05 6.89 6.578 9.148 2.42 3.572 3.78 4.31 3.78 5.897s-2.42 5.217-2.42 6.654 1.116 3.893 1.116 4.574-.397 1.077-.397 1.644 1.758 5.67 2.552 5.67h10.715s1.474-.454 1.53-.794c.03-.18-.26-.695-.323-1.116-.056-.378.106-.67.267-.698.34-.057 2.607 1.87 3.004 2.948.397 1.077 3.653 5.5 3.37 5.556s-4.277-3.628-4.39-4.535-.85-.737-1.02-.567c-.17.17-.208 1.592-.568 1.758-.354.163-.664-1.21-2.948-1.19-1.475.012-5.67-.114-6.35-.114s-1.022.397-.68.794c.34.397 1.87.624 2.04 1.758.17 1.134-.567 3.175-.51 3.912s-.454 5.046.34 5.046 3.062-.567 3.63-.454.68-.113 1.133-1.02c.455-.908 1.362-4.82 2.496-4.48s.397 2.892.454 3.46.737 1.7 2.325 1.87c1.588.17 3.78.227 3.818.454.038.227-2.703.888-3.497 1.115-.794.227-2.268.87-2.42 1.512-.15.643-.68 4.082-.49 4.574.19.492 3.137 2.345 4.082 2.874.945.53 6.35 3.123 6.955 3.166.808.057 1.02-.482 1.36-1.314.34-.832 2.628-5.383 2.78-6.366.15-.983-1.968-4.422-2.155-4.786-.36-.7-2.854-.643-2.854-.945 0-.492 1.966-.455 2.155-.795.188-.34-.19-.87-.455-1.588-.265-.718-3.1-6.955-3.856-7.787-.757-.832-3.252-1.512-3.063-1.928.19-.416.983-.454 1.55-.416.567.038 4.952-.076 4.99.227.038.302-1.36.416-1.7.378-.34-.037-.87.114-.795.606.076.49.832.983 1.625 1.096.794.113.87.718.907 1.474.038.756.567 2.495.68 2.797.113.302 2.76 5.972 3.024 6.69.265.72.686 2.754 1.027 2.83.34.076.863-.825 1.28-2.035.415-1.21 2.34-5.454 2.947-6.54.447-.8 1.755-3.453 1.852-3.76.208-.663-.036-1.39.19-1.57.472-.378 2.394-.495 3.136-1.172.643-.586-1.747-.185-1.512-.756.132-.32 1.253-.12 2.306-.095.54.013 1.21-.134 1.57-.02 1.057.34 2.02.946 2.664.946.643 0 12.625-.34 13.457-.188s1.02-.227 1.172-.53c.15-.3 1.928-3.477 2.608-3.477.68 0-.15 1.814 0 2.797.15.983.515 1.652 1.838 1.69 1.323.037 4.43-.122 12.262-.708 3.67-.274 5.538-3.534 5.935-3.1.2.218.076 1.096-.567 1.663-.643.567-4.876 6.228-5.292 6.2-.69-.048-.037-1.89-.226-2.307-.19-.416-2.646-.038-3.213.076s-1.133 1.588-1.927 1.7c-.794.114-2.155.644-2.155 1.55s1.172 2.08 1.134 2.76c-.038.68.076 1.966.34 2.268.265.302 8.62 4.914 8.656 5.33.038.416-1.588-.49-2.646-.945-1.058-.455-2.986-1.513-4.385-1.626-1.4-.113-2.42-.378-2.42.567 0 .946-.34 6.01-.226 7.372.114 1.36-.037 6.653.19 7.333.227.68.832 1.474.794 1.74-.038.264-1.285 1.057-1.21 1.587.076.53 4.612 2.57 4.574 2.835-.036.27-4.496-.298-5.366-.26zm-52.56-10.49c1.095.34 5.102 2.268 5.102 3.032 0 .644-2.722 2.883-2.91 2.883-.6 0-.38-.983-1.853-.983-1.21 0-2.513.775-2.683.548-.17-.226 1.872-5.627 2.344-5.48zM42.136 67.4c-.54.114-2.353.398-2.693 0s-.567-5.782-.567-6.293c0-.926.345-2.01.775-1.87.58.19 1.29 2.313 2.06 2.702 1.682.85 3.326-.096 3.383.188.056.283-2.42 5.16-2.958 5.273zM16.345 49.37c0-1.39.71-1.863 1.55-1.863 2.042 0 6.074 3.763 6.21 6.144.135 2.382-.425 4.622-.765 4.565s-6.995-7.23-6.995-8.845zm6.768 9.64c0 2.068-4.366 7.03-5.387 7.03s-2.837-2.38-2.95-3.29c-.112-.906-1.746-2.88-1.757-3.393-.022-1.01 3.477-6.002 4.667-6.756.512.382 4.916 6.013 5.426 6.41zm-5.84-6.748c-2.04 2.38-3.753 5.16-4.253 5.16-.813 0 .284-1.83.284-2.59 0-.982-.737-1.457-.737-1.986 0-.96.926-2.284 2.04-2.284 1.42 0 2.118.68 2.666 1.7zm35.268 2.72c-.283-.793-1.132-3.174-.736-3.344.608-.26 1.98-.51 2.436 0 .456.51 2.61 1.758 2.668 2.552s-1.304 4.99-1.87 5.046-2.213-3.46-2.497-4.253zm.455 4.707c-.964.056-5.527-3.245-5.542-4.4-.015-1.157.212-2.688 1.403-2.858 1.068-.153 1.89 1.292 2.845 2.857.955 1.564 2.26 4.343 1.295 4.4zm1.022-11.864c-.85.293-6.06.3-6.565-.595-.713-1.262-.28-4.456.97-4.456.68 0 1.057 1.058 1.97 1.34.614.19 2.187.946 2.83 1.76.38.48 1.417 1.738.795 1.952zm-15.084-2.503c-.057-.772.113-3.494 0-4.458-.06-.52 1.19-.51 1.928-.454.738.058 1.702.285 1.702.738 0 .454-1.588 1.87-1.814 2.892-.227 1.02-.737 3.63-1.814 3.46-1.078-.17.056-1.405 0-2.177zM102.72 67.95c-.476-.785-1.06-2.253-.736-2.888.26-.51.992-.796 1.758-.912 1.455-.22 3.882-.19 4.46-.19 1.134 0 1.644.228.36.858-.4.196-4.596 4.095-5.463 4.095-.53 0-.155-.596-.38-.964zm3.895-4.594c-2.552 0-5.14-.59-4.912-1.672.227-1.08-.108-8.138 1.057-8.138 1.89 0 6.637.837 7.71 3.043.582 1.192.674 4.148.474 4.746-.38 1.132-2.635 2.02-4.33 2.02zm4.1-18.976c0 .794.757 7.258.644 7.598-.114.34-.492.643-1.21.53s-4.465-1.876-4.407-2.507c.06-.63.45-5.09.575-5.355.693-.34 3.415-3.326 3.83-3.704.402-.364.568 2.646.568 3.44zm-9.08-.53c.167-.842.84-.378 1.294-.717.453-.34 1.056-1.474 1.51-1.474 1.302 0 .59 2.343.814 2.683.225.34.562.088.567.548.012 1.097-1.088 4.473-1.454 4.29-.756-.375-2-1.924-1.966-2.758.076-1.77-.926-1.77-.766-2.57zm6.643 27.35c-.845.22-1.19-.04-1.588.065-.397.105-.624.73-1.02.56-.398-.17-2.137-1.194-1.608-1.797 1.928-2.192 5.216-5.594 6.35-5.708.29-.03.833.586.833 2.57 0 .788-.1 1.647-.454 2.344-.563 1.108-1.993 1.83-2.512 1.966zm15.744-1.078c-.34.113-2.192.212-2.23.427-.038.214-.425.91-.704.714-.28-.197-1.417-1.188-3.018-1.568-.436-.103.13-.797.17-1.49.037-.693-.875-5.525-.8-5.966.066-.378 2.66 2.21 4.315 4.312.442.564 2.607 3.457 2.267 3.57zm-6.69-19.883c-.114-.68.188-.984.868-1.248.68-.265 5.753-2.866 6.54-2.306 1.115.794-.304 2.883-.535 3.212-2.092 2.987-5.776 5.86-6.194 5.86-.63 0-.565-4.838-.68-5.52zm9.45 19.845c-.113.378-.76.68-1.193.265-.434-.416-6.713-7.485-6.71-9.488.002-.273 3.743.19 4.31 1.02.567.83 3.705 7.825 3.592 8.203zm16.825 1.158c-.69 0-2.82-.807-2.82-1.385 0-1.474 4.914-6.217 6.9-6.217.906 0 1.304 2.105 1.587 2.854.548 1.452.02 1.927.075 2.39.095.797.392 1.1-.007 1.276-.994.438-2.092 1.083-5.736 1.083zm-3.406-2.708c-.65 0-1.16-1.685-.82-2.657.34-.972.51-4.36 1.16-4.777.492-.314 2.798.574 5.614.716 0 0 .005 1.446-.99 2.202-1.35 1.028-4.198 4.517-4.963 4.517zm56.197-30.027c-.68.284-2.69 1.77-3.03 3.415-.34 1.644-.49 4.668-.887 6.653s-.964 4.48-.794 5.613c.17 1.133 1.077 4.422 1.247 6.293.17 1.87.34 4.933.454 6.18s.68 2.778.51 3.12c-.17.34-1.307.67-1.375 1.346-.1.99 2.523 1.487 2.523 1.828 0 .34-2.112.34-3.586.34-1.475 0-6.752.244-6.975 0-.312-.34 2.495-.907 3.686-.794s2.723-.113 2.723-.567-.397-2.438-.17-4.48c.227-2.04.392-6.31-.113-7.71-.737-2.04-5.33-2.268-7.655-2.268s-4.763-.114-5.273 1.36c-.51 1.474-.227 7.768-.454 9.186-.227 1.418-1.573 2.548-1.588 2.948-.013.363-.216.91.7 1.08.933.17 2.26.73 2.293.867.156.647-2.54.21-4.07.152-1.532-.057-3.66.058-3.717-.282-.057-.34 1.732-.965 2.13-1.532s1.757-1.928 1.757-3.12c0-1.19-1.53-1.19-2.098-1.19-.567 0-.68.454-1.077 1.304-.397.85-1.304 4.876-5.727 4.876s-4.766-2.17-5.84-1.87c-.812.226-.698 1.152-.472 1.435.227.284.643.832.643 1.172 0 .34-1.417 3.062-2.078 2.98-.394-.05.02-3.13-.094-5.116-.113-1.986-.88-4.848-.246-4.99.463-.105.746.177.96.49.76 1.12 1.804 2.837 3.84 3.515 2.984.995 7.428.205 7.428-5.182 0-3.402-3.95-7.52-4.31-7.52-.66 0-.793.34-1.643.908-.85.568-7.54 5.444-8.278 6.295-.738.85-1.73 1.763-1.645 2.438.082.65.17 1.436.728 2.368.502.837.982 1.704 1.653 2.113 1.304.794 1.186 1.07.28 1.07-.908 0-7.48-.39-8.33-.333-.426.028-1.003-.01-1.003-.17 0-.336 4.404-1.02 4.857-1.077.323-.04 1.4-.35 1.4-.624 0-.512-1.244-.708-1.868-1.332-.624-.624.185-.37.07-2.128-.112-1.758-1.088-5.876-3.06-6.974-2.345-1.304-7.463-.893-7.165-1.796.36-1.096 2.91-2.287 4.442-2.4 1.53-.113 2.664-1.19 2.72-1.928.058-.737-1.246-5.84-1.53-7.428-.283-1.588-1.02-3.515-1.02-4.536 0-1.02-.17-2.608-.814-2.608-.51 0-1.885 2.19-2.476 4.253-.62 2.162-1.323 3.837-1.38 4.46-.057.624-.834 1.04-.778 2.23s-1.358 6.748-1.642 8.28c-.283 1.53-.853 1.286-.853 2.36 0 1.074-.667 3.222-.716 3.687-.207 1.985-.68 2.003-.566 2.4.113.397.888.907.832 1.19-.057.285-2.235.742-2.325 1.437-.075.586 1.034.888 1.702 1.058 1.598.407 4.253 1.115 3.97 1.36-.178.154-5.67-.112-6.18-.112s-1.917.22-2.212-.057c-.284-.265-.056-1.2.775-2.23.87-1.077 1.247-2.512 1.417-3.646s1.626-4.67 1.607-6.428c-.007-.57-2.817-2.117-4.235-2.797s-3.837-2.21-6.426-2.21c-1.702 0-4.386 1.83-4.386 2.4 0 .793 1.323.736 2.23.68.907-.058 2.21-.02 3.12 1.68.906 1.702 4.525 10.91 5.215 13.004 2.085 6.33 6.463 13.38 6.01 13.437-.455.057-2.44-2.892-4.367-6.18-1.928-3.29-6.747-13.608-7.485-15.876-.737-2.267-1.304-4.422-2.38-4.705-1.078-.284-3.558-.47-4.863-.243-1.304.227-1.464-.206-.374-1.344 1.286-1.342 3.894-2.66 5.16-3.944 1.016-1.03 4.253-3.88 3.46-8.72-1.286-1.095-4.21-.22-5.142.043-2.25.638-6.936 2.66-7.05 3-.113.34.756 11.385.756 12.97 0 1.585-.397 6.417-.227 6.87.17.454.424.925-.06 1.155-.496.237-.772.586-.772.95 0 .435 4.517 1.796 4.46 2.192-.057.397-2.04.34-3.005.284-.964-.057-3.093-.427-3.83-.257-.737.17-2.596.508-2.596.163 0-.53 2.072-1.138 2.476-1.758.567-.87.85-3.72.983-5.18.078-.848-.208-9.298-.208-9.752 0-.454-3.062-1.474-3.062-1.758s2.183.51 2.594.454c.41-.058.55-2.788.365-4.422-.37-3.25-.332-10.21-.514-10.513-.27-.45-1.235-.597-1.197-1.1.075-.988 2.61-1.156 7.09-1.203 5.386-.057 10.6 1.365 11.68 7.905.65 3.946-.852 4.428-.852 5.307 0 .572 1.505 2.522 3.213 4.14 1.682 1.59 3.562 2.85 4.096 3.636 1.077 1.588.46-.69 1.254-2.673.375-.937.825-2.285 1.04-3.648.222-1.41.808-2.93.907-3.67.123-.912 2.76-6.84 2.646-8.63-.03-.46-.326-.666-1.573-.808-.408-.046-.7-.465-.738-.7-.09-.557 1.31-.4 3.446-.292 1.307.066 4.408.24 5.09.24.68 0 .906.388.396.61-.51.223-1.006 1.135-.893 1.986s1.22 7.425 2.127 7.697c.907.272 3.544-3.274 4.508-4.125s2.816-3.97 4.48-5.5c.867-.8 3.288-1.87 5.215-1.87 2.003 0 3.175 1.326 4.026 1.598.85.272 1.153-.37 1.285-.92.06-.245-.434-.434-.093-1.133.175-.36 2.155-1.758 2.495-1.53.34.226-.85 2.437-.737 2.834.113.397 1.36.057 2.21.113.852.057 6.028-.534 6.087.02.094.887-2.483 1.167-2.854 1.68-.87 1.206-1.342 5.88-1.096 8.468.28 2.962.076 5.935.36 6.502s.906 1.814 1.757 1.814c.85 0 3.628-1.87 5.386-2.04 1.758-.17 5.863-1.563 6.35-2.836.926-2.42 1.148-6.12 1.247-6.634.662-3.402-.69-3.922-.435-4.177.255-.255 1.21 0 1.342-.813.223-1.372-6.256-.756-6.143-1.455.082-.505.757-.465 1.72-.417 2.646.132 7.408-.283 8.373-.32 1.438-.058 1.387.402.707.685zm-34.16 29.913c-.188-.037-3.288-2.308-3.288-3.684 0-.68 3.703-3.365 5.612-4.14.25.718-.347 4.693-1.04 5.557-.605.756-.9 1.418-1.284 2.268zm.814.242c-.197.17-.647-.007-.644-.177.003-.17.664-1.263.956-1.255.228.007-.112 1.262-.31 1.432zm1.57-3.076c.19-.605.586-2.892.473-4.888 1.36.692 3.073 2.563 3.073 4.924 0 2.837-2.326 3.706-2.94 3.706-1.523 0-.795-3.137-.606-3.742zm-21.598-12.888c.384-.752.524-2.874 1.033-4.897.24-.947.382-1.917.738-1.7.227.14.067 1.577.407 3.163s1.067 2.696.935 4.02c-.03.287-1.088.543-1.928.963-1.134.567-1.72 1.134-2.022 1.134-.567 0 .45-1.922.837-2.682zm-9.247 10.734c.076.567-.82 4.642-1.247 4.51-.747-.23-1.908-3.992-2.268-4.624-.662-1.162-.865-2.896-1.134-3.553-.68-1.663-3.29-2.457-3.515-2.722-.222-.26 1.4-.302 2.156.15.756.455 3.818 2.156 4.498 2.27.68.112 1.89 1.196 1.966 1.637.074.442-.53 1.765-.455 2.332z"/>
  <path d="M155.85 50.183c-.95-1.435-.567-4.536-.227-5.632-.964.625-4.82 6.408-4.933 7.09-.113.68.933 3.667.567 4.365-.416.794-3.483 1.36-4.234 1.455-1.178.15-2.968.36-2.967.87 0 .178 4.933.34 5.954.453 1.02.113 1.928 2.155 2.495 3.63.567 1.473.567 2.664 1.247 2.664.68 0 7.088-4.536 7.995-5.103.907-.567 3.024-2.495 2.684-2.892-.34-.398-6.5-3.762-8.58-6.9zm-.992 12.426c-.652 0-1.418-3.11-1.956-3.74-.54-.627-1.24-1.134-.927-1.28.312-.148 1.182-.878 1.182-1.445s-.737-3.97-.737-4.31.71-2.154 1.106-2.154c.305 0 .822 3.205 2.892 4.792 2.07 1.588 5.018 2.58 5.018 3.572 0 .993-5.926 4.565-6.578 4.565z"/>
  <path d="M34.482 44.437c.312-.142.227-2.722 0-3.742s-1.503-2.155-2.155-2.38c-.652-.228-2.552-.398-2.608-.71-.058-.312.424-.624.424-1.134 0-.51.036.23-.17-2.106-.397-4.498-2.722-5.783-3.29-6.766-.566-.983-3.47-3.13-2.532-3.364.605-.15 2.857 2.216 3.175 2.174 1.26-.17-.227-2.478.605-2.778.385-.14.794-1.19.85-1.644.058-.454.738-2.136.738-3.27 0-.69-1.603-2.695-2.835-4.64-.79-1.245-1.725-3.012-2.108-3.572-.983-1.436-2.16-3.77-3.068-3.77-.87 0-3.443 4.61-5.863 9.827-2.42 5.217-5.717 10.67-5.802 12.54-.085 1.872 6.89 9.583 10.036 12.163s5.444 3.8 7.91 4.026 6.38-.71 6.692-.853zm-5.267-5.014c.307.053 1.78.506 2.205.733s1.27 1.115 1.27 1.768c0 1.418-2.342 1.452-3.253 1.452-1.296 0-1.033-.494-.997-1.292.032-.693.487-2.71.775-2.66zM26.08 16.597c.804 0 1.75 2.647 1.635 3.204-.51 2.458-1.483 1.56-1.634 2.392-.068.38-.188 1.285-.49 1.172-.302-.113-1.588-1.096-2.04-1.134-.455-.038-.833-.113-.38-.68s2.258-4.953 2.91-4.953zm-7.56-.68c.058-1.078.455-1.475.965-2.27.51-.793.718-3.57 1.777-3.57.964 0 2.384 2.31 2.816 3.155.473.926.662 1.833.34 3.76-.207 1.243-1.917 5.386-2.153 5.388-.493.003-1.306-.983-1.873-1.777-.567-.793-1.928-3.61-1.87-4.687zm-4.498 15.1c-1.21-.15-1.006-2.93-.87-3.95.555-4.152 2.193-6.047 2.723-6.917.53-.87 1.172-2.192 1.625-2.155.454.038 1.134 1.323 1.474 1.777.34.454 1.55 2.003 2.515 2.93.22.21-1.388 2.516-1.797 3.08-2.534 3.497-4.46 5.387-5.67 5.236zm13.212 11.87c-1.23 0-10.64-7.986-10.923-9.167-.26-1.08.05-2.015.5-2.903.208-.412 4.606-6.448 4.737-7.166.058-.316.495 1.677 1.418 2.472.923.795 5.08 5.893 5.08 8.28 0 1.1-.914 2.16-.99 2.722-.2 1.446 1.407 1.56 1.52 2.046.114.486-.544 3.717-1.34 3.717z"/>
  <path d="M43.734 46.762c-.416-.076-.49.87-.832 1.436s-.113 2.117-.643 2.38c-.53.266-.795.077-1.89 0-1.097-.075-3.025.53-4.46.72-1.437.188-1.475-.152-1.702-.492-.227-.34.416-2.003.477-2.495s-.087-2.683-.628-2.683c-4.158 0-7.07 2.306-7.182 3.213-.113.907 2.42 3.553 2.42 6.842s-4.99 8.997-5.066 9.677c-.077.68 1.21 1.095 3.25 1.133 2.04.038 5.107-1.157 5.973-1.4 1.257-.35 1.233-1.737 1.233-3.25 0-3.364-.76-6.18-.213-7.41.166-.37 1.7-.528 2.91-.528h3.857s1.096 1.474 1.058 2.08c-.038.604.53 1.72 1.02 1.587.33-.088.303-3.704.266-4.385-.038-.68.49-2.835.49-3.402s.075-2.948-.34-3.023zM32.702 62.128c-.176 2.155-3.89 2.324-5.223 2.325-1.163 0 .02-1.503.708-2.24.688-.737 3.183-5.47 3.204-6.492.034-1.706-.17-3.604-.54-3.99-.63-.66-.558-1.3-.235-1.51.734-.474 1.814.34 1.928.908.113.567.208 2.835.15 3.8-.056.962.095 6.125.007 7.2z"/>
  <path d="M100.283 39.76c-.457-.375-8.052.538-9.64.538-1.587 0-3.25 2.797-3.74 2.457s1.21-2.76 1.51-2.986c.303-.228.597-.876-.264-1.06-1.333-.283-5.956 1.103-9.15 2.23-3.168 1.12-5.026 1.456-13.532 6.276-.56.317-2.797 6.35-2.797 7.03 0 .68.38 2.685 1.437 3.138 1.058.454 4.814 2.447 8.222 2.873 8.646 1.08 18.143 1.02 20.24 1.077s3.743-.68 4.027-1.247c.284-.567.907-12.02.737-14.175-.17-2.155-1.035-2.577-.88-3.29.157-.706 4.623-2.214 3.83-2.863zm-6.39 1.78c.624.228-.98 1.31-.81 1.763.09.245 1.003 1.19 1.502 2.58.427 1.19.454 3.09-.028 3.09-.634 0-4.593-4.14-4.593-5.67 0-1.53 2.917-2.13 3.93-1.762zM69.835 57.975c-.794-.057-4.902-1.656-4.902-4.28 0-2.352 1.925-5.662 4.36-6.463 1.125 4.312 1.44 6.95 1.62 8.825.142 1.485-.284 1.975-1.078 1.92zm23.7.958c-4.997 1.322-16.732.753-18.73.135-3.03-.937-4.51-9.458-4.97-12.066 3.052-1.703 13.5-6.834 15.78-6.618 1.06.1-1.953 2.508-1.22 3.91.595 1.132 2.18.045 3.187.316 3.03.816 5.954 4.91 6.804 7.814.33 1.126.026 2.314-.056 3.366-.13 1.66.58 2.78-.796 3.144z"/>
  <path d="M118.287 39.21c-1.172-.185-3.3.785-3.752 1.39-.454.605.34 2.42.378 3.326.038.907-.284 3.553.057 3.553s5.254-2.382 6.48-3.365c1.625-1.305 3.52-2.863 3.065-3.326-.805-.823-5.057-1.395-6.228-1.58zm1.88 3.47c-.72.49-2.912 2.097-3.176 1.965-.264-.132-.47-2.547-.075-2.986.49-.55 3.335-.675 4.234 0 .377.282-.265.528-.984 1.02z"/>
  <path d="M172.3 64.82c.132.064 1.155 1.05 1.212 1.277s-1.118.255-1.21.17c-.094-.085-.148-1.517 0-1.446z"/>
  <path d="M152.43 47.48c.146.042-.077.737-.17.756-.095.02-.303-.283-.284-.378.02-.095.32-.416.453-.378z"/>
  <path d="M151.637 48.48c.055.055.188.21.17.285-.02.076-1.078 1.285-1.173 1.285-.094 0-.34-.624-.185-.773.186-.18 1.035-.948 1.187-.797z"/>
  <path d="M153.932 65.63c-.066.154.085.39.16.428.077.038.53-.356.697-.548.13-.15-.167-.342-.272-.307-.304.1-.513.256-.586.427z"/>
  <path d="M133.038 56.155c.098.057 1.09.832 1.197.964s-.082.528-.196.528-1.4-.945-1.38-1.077c.018-.13.183-.53.378-.415z"/>
  <path d="M128.426 52.564c.12.094 2.306 2.438 2.363 2.533s.112.435-.303.435c-.132 0-3.213-1.493-3.175-1.57.037-.075.964-1.515 1.114-1.398z"/>
  <path d="M123.682 43.246c.107.04.378.17.378.397s-1.077.926-1.21.964-.378-.284-.302-.397c.075-.113.947-1.035 1.134-.964z"/>
  <path d="M101.02 49.483c.11.025.85.234.88.415s-.167.408-.212.436-.583-.1-.668-.333c-.085-.233-.2-.562 0-.517z"/>
  <path d="M95.472 61.982c.243.025.356.09.4.534.044.445.11.993 0 1.12-.11.125-4.493-.675-4.45-1.143.046-.466 3.405-.578 4.05-.51z"/>
  <path d="M89.472 61.73c.113.005.813.04.926.096.113.057.094.397 0 .416-.095.02-.87-.02-.926-.095-.056-.076-.115-.42 0-.416z"/>
  <path d="M90.477 62.562c.117.057.267.244.083.285-.207.046-.463-.04-.444-.163s.26-.17.36-.122z"/>
  <path d="M84.13 61.603c.01-.127.858-.028 1.057 0s2.693.184 2.85.255.24.435.056.388c-.184-.047-2.764-.118-3.02-.147-.255-.03-.963-.17-.942-.497z"/>
  <path d="M83.594 38.39s-.113.49 0 .51c.113.018 1.74-.417 1.852-.51s-1.738-.096-1.852 0z"/>
  <path d="M82.044 39.088c.018.146-2.797 1.002-2.91 1.002-.114 0-.266-.68-.19-.7.076-.018 2.552-.754 2.722-.717s.36.264.378.415z"/>
  <path d="M74.92 40.92c0 .14-7.486 4.083-7.77 4.083-.283 0-.245-.53 0-.926.247-.397 1.72-2.816 2.023-2.91.303-.094 5.746-.643 5.746-.246z"/>
  <path d="M74.352 38.483c.377.027 1.625.132 1.682.53.057.396-.982.85-1.455.85-1.248 0-2.307-.227-2.212-.69.094-.463 1.518-.723 1.984-.69z"/>
  <path d="M77.924 39.617c.084.043.49.36.49.473 0 .113-2.607 1.058-2.758 1.058-.15 0-.033-.624.38-.85.414-.227 1.764-.744 1.888-.68z"/>
  <path d="M77.622 38.767c.175.072.34.35.265.402s-.624.372-.794.353c-.17-.02-.252-.416-.088-.49.163-.077.49-.318.617-.266z"/>
  <path d="M78.624 38.48c.125-.032.304.04.3.128-.002.087-.215.353-.3.29-.086-.06-.112-.39 0-.418z"/>
  <path d="M80.183 38.228c.126.022.496.113.54.17s-.908.44-1.007.425c-.1-.014-.085-.487 0-.506.084-.018.26-.126.467-.09z"/>
  <path d="M45.7 50.258c.077-.017.774-.076.925 0 .15.076-.813.567-.926.53-.114-.038-.17-.493 0-.53z"/>
  <path d="M65.563 59.633c.018-.267.53-.47.926-.396.396.075 1.19.453 1.04.774-.152.322-.908.506-1.248.358-.34-.15-.737-.452-.72-.735z"/>
  <path d="M66.95 61.03c.044-.064.41-.094.825-.13s1.002.056 1.304.094.245.29.245.343-1.833.22-2.04.203c-.21-.017-.4-.417-.336-.51z"/>
  <path d="M68.512 59.954c.134.027.397-.076.605 0 .208.076.368.373.212.413-.156.04-.76.12-.818.052s-.19-.504 0-.466z"/>
  <path d="M69.76 60.186c.133.015.377.122.434.18.057.06-.473.157-.51.08-.038-.076-.057-.275.075-.26z"/>
  <path d="M69.76 60.89c.117-.017 1.137.15 1.22.325.083.175-.98.232-1.053.194-.073-.04-.318-.498-.168-.52z"/>
  <path d="M55.112 63.48c.146-.026.378-.03.397.197.018.227-.247.473-.303.473s-.36-.416-.32-.49c.036-.077.07-.15.225-.18z"/>
</svg>
