<!--
  SVG Music Logos
  Iron Maiden - Virtual XI v1.0.0
  https://github.com/tiagoporto/svg-music-logos
  Copyright (c) 2016-2018 Tiago Porto (http://tiagoporto.com)
-->
<svg xmlns="http://www.w3.org/2000/svg" viewBox="0 0 200 42">
  <polygon points="190.523,12.352 183.024,4.535 175.392,4.535 179.343,8.97 179.343,27.946 184.817,27.946 184.817,15.096 190.523,20.854 190.523,27.946 195.997,27.946 195.997,4.535 190.523,4.535"/>
  <polygon points="160.559,23.084 164.31,27.946 172.851,27.946 172.851,22.479 166.033,22.479 166.033,18.395 172.851,18.395 172.851,12.921 165.931,12.921 165.931,10.11 172.851,10.11 172.851,4.636 160.559,4.636"/>
  <path d="M146.727,4.535h-8.026v23.411h15.121l4.156-6.585L146.727,4.535z M144.175,22.479V10.061l8.248,12.418H144.175z"/>
  <rect x="129.842" y="4.535" width="5.474" height="23.411"/>
  <path d="M119.824,4.535l-5.999,8.377l-2.839-3.3l-3.36,4.488l2.951,3.43l-4.299,5.799l3.577,3.878l4.394-5.408l5.289,6.148h6.918 V4.535H119.824z M120.983,21.232l-3.458-4.02l3.458-4.583V21.232z"/>
  <polygon points="94.665,9.806 90.002,4.535 81.893,4.535 85.035,8.184 85.035,27.946 90.002,27.946 90.002,12.34 94.462,17.813 98.82,12.644 98.82,27.946 104.294,27.946 104.294,11.123 98.415,4.738"/>
  <polygon points="68.614,12.352 61.115,4.535 53.483,4.535 57.434,8.97 57.434,27.946 62.907,27.946 62.907,15.096 68.614,20.854 68.614,27.946 74.087,27.946 74.087,4.535 68.614,4.535"/>
  <path d="M42.607,4.94L29.632,22.374l4.397,5.572h16.952l4.296-5.572L42.607,4.94z M36.388,22.231l6.103-8.068l5.928,8.068H36.388z"/>
  <path d="M18.203,21.629l5.014,6.317h7.012l-4.509-5.715l5.04-6.772L22.252,4.332l-4.049,4.056V4.535h-5.474v23.411h5.474V21.629z M21.642,13.211l2.744,3.183h-5.64C18.746,16.394,21.642,13.211,21.642,13.211z"/>
  <rect x="3.492" y="4.535" width="5.474" height="23.411"/>
</svg>
