<!--
  SVG Music Logos
  Ramones - Seal v1.0.0
  https://github.com/tiagoporto/svg-music-logos
  Copyright (c) 2016 Tiago Porto (http://tiagoporto.com)
-->
<svg xmlns="http://www.w3.org/2000/svg" viewBox="0 0 200 200">
  <g class="ramones__names">
    <path d="M105.626 9.392c3.192 5.125 6.295 10.34 9.685 15.267.16-1.72.39-3.96.66-6.24.26-2.17 1.12-4.78.66-6.24-.35-1.15-1.52-.8-2.3-1.64 2.26.15 4.51.3 6.4.82-.35.6-1.35-.03-2.13.49-1.31.87-1.37 6.58-1.64 8.7-.47 3.64-.85 6.77-1.15 9.19-.84-.17-1.24-1.16-1.64-1.81-2.96-4.74-6.07-10-9.35-14.61-.05 1.82-.48 4.24-.82 6.89-.28 2.25-1.11 5.57-.33 6.73.57.83 1.56.34 2.14 1.15-1.71-.05-4.6-.32-6.4-.82.16-.69 1.21.12 1.81-.33 1.37-.83 1.37-4.46 1.81-7.88.16-1.21.35-2.44.5-3.61.18-1.45.49-3.03.33-3.78-.34-1.6-2.08-2.14-3.28-2.63-.02-.19.04-.29.17-.33 1.57.29 3.35.37 4.92.65z"/>
    <path d="M94.792 9.392c-.503.602-1.94.496-2.298 1.477.678 5.56 1.634 10.84 2.79 15.92.57.62 1.988.36 2.627.49-.32.55-1.18.53-1.8.65-1.85.37-4.29.85-6.07.82.51-.62 1.99-.45 2.3-1.48-.05-2.9-.77-5.14-1.15-7.72-2.77.57-5.58 1.09-8.53 1.47.45 2.73.66 5.69 1.64 7.88.66.46 1.9.16 2.47.32-.29.62-1.17.53-1.8.65-1.85.37-4.29.84-6.07.82.5-.62 1.98-.45 2.3-1.48-.1-2.82-.84-5.57-1.31-8.21-.49-2.75-.6-5.49-1.64-7.88-.55-.49-2-.21-2.46-.33.3-.64 1.16-.53 1.81-.66 1.85-.37 4.29-.89 6.08-.82-.5.62-1.98.44-2.29 1.47-.02 2.75.84 4.63.99 7.22 3.09-.3 5.88-.9 8.7-1.47-.41-2.38-.8-4.78-1.31-7.06-.49-.78-2.05-.57-2.79-.66.23-.58 1.11-.55 1.64-.66 1.76-.36 4.46-.85 6.24-.82z"/>
    <path d="M131.07 14.81c1.372 5.96 3.13 11.534 4.598 17.4 1.077-2.18 2.7-5.835 3.94-8.7.967-2.233 1.875-3.95-.82-4.76.89-.49 2.082.36 3.118.82 1.02.454 2.165.946 2.955 1.477-.32.673-1.09-.405-2.13-.164-1.13.262-1.73 2.506-2.3 3.776-1.77 3.98-4.03 9.17-5.74 12.47-.56-.52-.78-1.43-.98-2.14-1.55-5.5-2.86-11.23-4.43-16.75-1.24 2.25-2.75 6.15-4.1 9.19-.96 2.17-2.27 4.1.66 4.92-.88.52-2.11-.37-3.12-.82-1.04-.48-2.34-.89-2.95-1.65.66-.17 1.33.52 2.14.33 1.54-.37 2.94-5.24 3.61-6.73 1.31-2.94 2.35-5.21 3.28-7.06-.26-1.53-1.54-2.88-2.46-3.45-.04-.3.16-.34.17-.17 1.68.5 3.09 1.29 4.6 1.97z"/>
    <path d="M26.995 46.82c.442.578-.073 1.624 0 2.462.162 1.87 1.594 3.526 2.462 5.253.916 1.82 1.75 3.454 2.462 5.09 1.82.383 5.34 4.422 7.38 2.462.22-.215.2-1.162.82-.82-1.09 2.19-2.63 5.063-3.94 6.73-.61-.333.55-.98.33-2.134-.17-.858-1.44-1.448-2.63-2.134-.9-.53-2.03-1.46-2.96-1.65-1.33-.27-3.36.23-5.42.33-3.62.17-6.69-.07-8.21 1.64.22-1.09 1.09-2.38 1.8-3.61.71-1.25 1.39-2.63 2.13-3.29.64.09-.76 1.54 0 2.3 2.29 1.02 7.03-.01 9.35 0-.25-1.08-1.28-2.44-2.13-4.11-.7-1.37-1.34-3.59-2.46-3.78-1.06-.17-1.18.63-2.14.98.79-2.17 2.14-3.77 3.12-5.75z"/>
    <path d="M177.2 53.058c.215.058.257.29.49.33.882 2.406 2.932 4.503 3.448 6.73-1.07-.698-.853-1.513-1.97-1.642-.947-.11-2.55 1.125-3.447 1.64-1.06.612-2.17 1.253-3.11 1.807-2.03 1.192-4.48 3.015-6.56 3.283-2.22.286-5.08-.777-5.41-3.12-.46-3.212 2.63-3.43 2.96-1.64.27 1.44-1.42 1.6-1.15 3.118 1.46.808 2.94-.466 4.11-1.15 3.6-2.11 7.7-4.22 11-6.73.34-1.26-.65-1.915-.33-2.626z"/>
    <path d="M177.035 67.34c5.648-.55 10.647 3.668 10.178 9.684-.435 5.577-5.403 8.7-10.178 8.7-8.587 0-12.085-10.12-6.895-15.43 1.502-1.536 3.833-2.657 6.895-2.955zm-4.76 4.924c-1.442.9-3.597 2.4-3.612 5.09-.022 3.953 3.455 5.977 7.55 5.58 3.922-.38 8.883-2.85 9.686-5.58 1.53-5.204-2.91-7.605-7.06-7.224-2.74.252-4.58.892-6.57 2.134z"/>
    <path d="M14.355 70.787h.493c.175.765-.43 1.295 0 1.806C15.242 73.93 17 73.96 19.28 74.4c1.305.25 2.615.597 3.776.82 3.173.61 5.94 1.367 7.715 1.313 1.32-.04 1.13-1.86 1.97-2.298-.27 2.075-.7 4.3-1.14 6.238-.12.544.04 1.425-.65 1.642-.07-.75.17-1.808-.16-2.298-1.83-1.3-4.42-1.335-6.89-1.806-2.42-.46-4.91-1.09-7.22-1.47 1.9 1.81 4.46 3.38 6.9 5.09 1.17.82 2.28 1.79 3.45 2.63 1.19.85 2.6 1.47 3.45 2.63-5.27 1.68-11.24 2.65-16.58 4.27 4.54.89 9.36 2.35 14.12 2.47.87-.28.61-1.69 1.32-2.13.01 1.88-.68 4.46-1.15 6.4-.84-.23.25-1.42-.32-1.97-.54-.96-2-1.19-3.45-1.47-2.57-.51-5.36-.89-8.37-1.48-2.74-.53-5.42-1.53-5.74 1.48-.55-.28-.16-1.64 0-2.46.18-.89.6-1.74.49-2.62 5.03-1.49 10.39-2.63 15.6-3.94-1.68-1.67-4.05-3.16-6.24-4.76-2.21-1.61-4.59-3.07-6.56-4.76.13-1.84.73-3.22.82-5.09z"/>
    <path d="M189.347 89.008h.492c.09 4.89.3 9.66.49 14.446-1.4-.078-3.03.47-4.11.164.88-1.075 2.21-.576 2.79-1.97.77-1.866-.29-4.647 0-7.06-2.26-.507-4.77.156-7.22 0-.09 1.874-.59 4.727.33 6.075.63.928 1.38.654 2.46 1.15-.56.64-1.98.277-3.12.327-1.23.054-2.51.43-3.45 0 .63-.83 1.81-.272 2.46-1.313.85-1.372-.23-3.875.16-6.074-2.16-.07-5.61-.036-7.88.328-.77.65-.35 1.7-.33 2.63.04 1.53-.15 3.25.33 4.43.74 1.83 2.76 1.93 3.61 3.29-1.78-.25-3.11-.94-4.76-1.31-.04-4.78-.6-9.91-.33-14.44.61.48.29 2 1.15 2.46 5.16.12 11.47-.01 16.41-.65.42-.56.59-1.38.49-2.46z"/>
    <path d="M27.652 99.186h.492c.3 2.6 1.245 5.43 1.15 7.88-.625-.488-.447-2.004-1.478-2.3-5.04.433-9.386 1.56-14.118 2.3 5.36 1.644 11.103 2.904 16.58 4.43-.627 1.427-2.286 1.993-3.447 2.792-3.5 2.41-7.12 5.046-10.67 7.55 2.39-.508 5.02-.87 7.56-1.312 2.52-.44 5.12-.687 7.06-1.806.33-.8-.19-1.513.17-2.134.57.172.41 1.04.49 1.477.28 1.387.81 3.338.66 4.76-.66-.542-.54-1.868-1.47-2.134-3.49.23-8.27 1.23-12.47 1.97-2.47.43-4.34.74-3.94 3.44-.7-.56-.48-1.54-.65-2.46-.15-.81-.65-1.84-.49-2.47.2-.78 2.2-1.99 3.12-2.63 3.24-2.26 7.29-4.9 10.01-6.73-1.14-.73-2.61-.8-3.94-1.15-3.6-.96-7.78-2.11-11.65-3.12-.06-1.8-.93-3.66-.65-5.25.62.5.45 1.98 1.48 2.29 2.84-.1 5.68-.84 8.38-1.31 2.78-.49 5.59-.61 7.88-1.81.24-.58.24-1.72 0-2.3z"/>
    <path d="M189.347 110.677c.132.087.267.17.492.164-.71 2.52-1.01 5.45-1.97 7.72-.58.09.06-1.03-.17-1.64-.21-.34-.48-.61-.82-.82-3.28.56-5.62 2.05-8.7 2.79.6.94 1.77 2.1 3.12 3.45 1.1 1.1 2.53 2.95 3.77 2.79 1.18-.15.69-1.09 1.8-1.47-.2 1.04-.56 2.15-.82 3.29-.26 1.08-.18 2.44-.99 3.12.04-1.22-.28-2.3-.99-3.28-1.92-2.64-5.33-5.16-7.23-7.55-2.38-.25-4.02-1.24-6.73-1.15-.92.28-.73 1.68-1.48 2.13.17-2.02 1.05-5.92 1.81-7.71.55.32-.14 1.29.16 1.97.31.7 1.71 1.18 2.95 1.48 1.17.29 2.61.72 3.61.66 1.35-.08 3.36-1.19 5.42-1.97 3.01-1.13 5.86-1.4 6.73-3.94z"/>
    <path d="M171.125 126.93c1.252 1.1 1.957 2.747 3.283 3.775 1.44-.477 2.752-1.08 4.268-1.477-.76 1.43-1.49 2.89-2.463 4.104.802 1.332 1.632 2.637 2.627 3.776-1.236.14-2.8-.81-4.104-1.15-1.273.862-1.674 2.595-2.627 3.777-.32-1.267-.38-2.8-.5-4.268-1.34-.855-3.14-1.244-4.76-1.806 1.26-.81 3.03-1.12 4.43-1.8-.06-1.63-.25-3.14-.16-4.92z"/>
    <path d="M28.472 127.75c8.366-.977 13.62 8.865 7.88 15.1-3.384 3.678-9.797 4.665-13.79 1.478-2.746-2.192-4.548-7.97-1.805-12.148 1.296-1.972 4.017-4 7.715-4.43zm-3.94 4.924c-1.505 1.025-3.593 2.596-3.94 4.596-.762 4.41 2.633 7.093 6.896 6.566 3.84-.474 9.792-4.03 10.014-8.208.228-4.294-3.798-5.95-6.73-5.58-2.64.33-4.274 1.288-6.24 2.626z"/>
    <path d="M161.932 136.614c-.165.694-.978 1.108-.82 2.298.14 1.076 1.827 1.908 2.954 2.79 2.264 1.774 3.952 3.18 6.402 5.09 1.02.794 2.376 2.286 3.447 2.298 1.243.014 1.614-1.23 2.298-1.313.08.655-.588 1.14-.985 1.642-2.374 3-5.947 9.22-10.506 9.85-3.58.49-6.568-1.06-8.536-3.12-1.228-1.29-2.904-3.79-2.462-7.39.575-4.69 5.6-8.54 7.715-12.15h.49zm3.94 9.85c-2.09-1.643-4.235-3.224-6.402-4.76-.036-.13-.137-.192-.328-.165-1.524 1.67-3.134 3.03-3.447 5.41-.704 5.35 4.536 9.75 8.865 9.85 3.786.08 5.868-2.47 7.387-5.26-1.883-1.82-4.01-3.47-6.075-5.09z"/>
    <path d="M63.11 17.6c2.99-.452 6.205.8 7.88 2.462 3.21 3.186 4.245 9.97.985 13.79-1.974 2.31-5.32 3.44-8.536 2.954-7.02-1.06-10.56-11.603-5.42-16.744 1.14-1.14 3.03-2.152 5.09-2.462zm-5.253 7.715c.453 4.65 4.62 10.32 8.536 10.342 3.384.02 5.738-2.642 5.417-6.566-.326-3.99-4.264-10.58-8.7-10.34-3.718.21-5.634 2.66-5.253 6.57z"/>
    <path d="M134.354 162.55c-.413.737-1.49.808-1.806 1.643.513 2.928 1.757 5.63 2.79 8.208 1.043 2.6 1.942 5.29 3.612 7.39 1.018.2 1.648-.68 2.298-.33-.846.94-2.148 1.03-3.283 1.48-3.156 1.27-6.624 3-10.178 4.11-.284-1.46-1.28-2.22-1.477-3.77 1.29.5 1.178 1.74 2.462 1.97 2.338.42 5.1-2.15 7.223-2.46-.918-2.31-1.886-4.57-2.79-6.89-1.522 1.06-5.076 1.17-5.746 2.96-.29.76.2 1.38 0 2.3-.8-.65-1.06-1.9-1.48-2.95-.42-1.03-1.11-2.14-.99-3.12.8.35.86 1.44 1.64 1.81 2.72.1 3.96-1.28 6.07-1.8-.86-2.65-1.73-5.28-3.12-7.39-4.07.92-7.94 2.02-8.05 6.9-.95-.85-.3-3.31-.66-4.76 4.31-1.87 8.87-3.49 13.13-5.41.19-.03.29.03.33.16z"/>
    <path d="M80.51 168.46c-2.565-1.21-3.343.807-4.268 3.12-1.103 2.756-2 4.918-3.12 7.715-.478 1.198-1.468 3.163-1.312 4.104.17 1.02 1.548 1.42 1.806 1.8-.127.54-.977-.14-1.477-.33-3.69-1.43-8.09-3.25-11.82-4.76.34-1.35.69-2.7 1.31-3.78.73.4.03 1.34.16 2.13.41 2.48 5.13 2.71 7.06 4.1 1.27-1.95 1.83-4.63 2.95-6.73-1.03-.39-4.02-2.43-5.75-2.14-1.22.21-1.06 1.21-2.14 1.81-.08-.98.72-2.04 1.15-3.12.42-1.06.49-2.48 1.48-2.96-1.07 4.12 3.24 4.02 5.58 5.25.66-1.04.91-2.2 1.48-3.62.38-.96 1.57-2.52 1.31-3.61-.22-.91-4.44-2.61-5.75-2.79-2.48-.35-3.42 1.26-4.93 1.97.24-1.42 2.12-2.58 2.95-3.94.14-.03.15.06.16.16 3.34 1.3 6.76 2.57 10.18 3.94.99.4 2.23.8 2.95 1.64z"/>
    <path d="M97.747 170.923c-.224.706-1.753.107-2.298.492-1.01 1.628-1.07 4.82-1.48 7.88-.41 2.97-1.29 6.005-1.15 8.044.07 1.07 1.49 1.45 2.46 1.64-.31.66-1.21.21-1.64.16-3.79-.41-8.6-1.3-12.64-1.81.01-1.47.15-2.8.33-4.11.86.57.48 1.64.82 2.3 1.16 2.21 5.36 1.22 7.88 2.13.5-2.35.62-5.07 1.15-7.39-2.05-.12-4.14-.97-6.24-.49-.81.34-.87 1.43-1.32 2.13-.7-.15-.21-1.03-.17-1.48.14-1.55.42-3.57.82-4.93.63.59.22 1.41.66 2.13 1 1.67 4.14 1.02 6.24 1.64.46-2.44.89-4.91.98-7.72-.57-.88-2.02-.83-3.12-.99-1.19-.18-2.51-.5-3.61-.33-1.96.31-2.61 2.11-3.78 2.95-.57-.26.37-1.24.65-1.81.42-.85.76-1.75 1.15-2.63 4.7.77 9.67 1.26 14.28 2.13z"/>
    <path d="M118.266 168.79c-.354.903-2.073.443-2.298 1.476.39 5.793 1.134 11.233 2.298 16.252.528.457 1.81.16 2.463.492-.24.5-1.08.43-1.48.492-5.65.878-12.92 2.336-16.25-1.642-2.72-3.24-3.21-9.76.16-13.133 3.03-3.03 9.47-3.143 15.1-3.938zm-7.058 18.712c1.69.042 2.518-.487 4.104-.82-.586-5.434-1.51-10.53-2.134-15.924-12.452-1.98-11.643 16.502-1.97 16.744z"/>
    <path d="M40.456 40.253c.19-.027.292.036.328.164.098 1.49-.203 3.377.164 4.596 1.366.55 2.866.965 4.432 1.313-1.262.98-3.142 1.345-4.597 2.134.087 1.62-.098 2.966-.164 4.432-1.04-1.044-1.76-2.405-2.63-3.61-1.48.494-2.74 1.196-4.27 1.64.72-1.3 1.44-2.61 2.3-3.775-.84-1.457-1.8-2.798-2.79-4.104 1.3-.095 3.07.758 4.43 1.15 1.02-1.222 1.9-2.59 2.79-3.94z"/>
    <path d="M44.888 144.82h.493c1.57 2.048 3.59 3.636 5.09 5.747-.82.092-1.07-.985-2.13-.985-.96 0-2.51 1.576-3.44 2.463-2.84 2.69-6.37 6.128-8.86 8.372.91 1.015 1.89 3.08 3.61 3.283 1.15.135 1.94-.75 2.96-.82-.74 1.28-2.19 1.856-3.12 2.954-3.69-3.47-6.9-7.435-10.5-11 .95-1.18 1.8-2.468 3.29-3.118-.44 1.086-1.54 2.307-.66 3.94.61 1.108 2.4 2.95 2.47 2.955.36.02 2.42-2.12 3.12-2.79 2.12-2.01 3.63-3.48 5.91-5.58.89-.81 2.65-2.12 2.79-2.95.22-1.32-.94-1.87-.98-2.46z"/>
    <path d="M159.306 167.147c.206.73-.758.847-1.15 1.15-3.172 2.447-6.975 5.27-10.505 7.55-.61-1.25-1.8-1.914-2.29-3.283 1.37.188 1.38 1.24 2.63 1.313 2.36.136 4.59-3.343 6.57-4.104-1.31-2.136-2.96-3.93-4.27-6.074-1.85 1.71-6.34 2.94-4.27 6.56-.58-.05-1-.76-1.31-1.15-.93-1.19-1.84-2.72-2.79-4.11 1.06-.25 1.07.97 1.97 1.15 2.27.44 3.98-2.55 5.75-3.12-.73-1.12-1.35-2.15-2.3-3.45-.49-.68-1.82-2.85-2.62-2.96-.58-.08-2.07.99-2.95 1.64-1.34.97-3.04 2.15-3.28 4.1-.14 1.19.42 2.02 0 2.95-.51-.49-.75-1.37-.98-2.14-.24-.8-.38-1.7-.65-2.46 3.84-2.79 7.72-5.53 11.49-8.38.19-.03.29.03.33.16-.09.4-1.22 1.03-1.31 1.8-.16 1.35 1.35 2.69 2.14 3.77 1.82 2.5 3.14 4.27 4.92 6.73.78 1.07 1.72 2.96 2.63 3.12 1.15.19 1.59-.81 2.3-.82z"/>
    <path d="M53.424 157.79c.57 1.51.853 3.306 1.313 4.925 1.665.032 3.196.196 4.76.33-1.375.922-2.602 1.993-4.103 2.79.226 1.524.417 3.084.82 4.43-.708.156-1.106-.82-1.64-1.312-.598-.55-1.326-.968-1.807-1.477-1.3.726-2.495 1.554-3.61 2.462-.14-1.236.81-2.8 1.148-4.104-.938-1.47-2.292-2.523-3.61-3.61 1.266-.28 3.14.25 4.76.163.748-1.44 1.318-3.06 1.97-4.597z"/>
    <path d="M155.694 28.926c-.507.245-1.503-1.026-2.462-.328-1.167 2.335-.665 6.34-1.313 9.193 1.12-.27 2.91-.81 4.76-1.47 1.57-.56 3.79-1.21 3.94-2.3.13-1.03-.95-1.17-.82-1.97 1.93 1.19 3.67 2.57 5.25 4.11-.91.1-1.42-.67-3.12-.49-1.34.15-3.14.96-5.09 1.64-1.92.67-4.04 1.26-4.93 1.81-.74.46-1.54 1.65-2.3 2.63-.74.95-1.85 2.16-1.81 3.12.05 1.18 1.19 1.19 1.15 2.14-1.66-1.16-3.28-2.31-4.93-3.61-.46-.36-1.16-.84-1.32-1.48 1.03.22 1.15.89 2.13.82 1.96-.12 3.16-3.94 4.59-4.92.09-2.68.66-6.22.82-9.19.11-2.04-.05-3.46-.99-4.59 1.24.21 2.16 1.42 3.28 2.3 1.06.83 2.45 1.5 3.12 2.63z"/>
    <path d="M168.663 44.357c-.322 1.32-1.94 2.766-2.626 4.268.74 1.286 1.416 2.633 2.298 3.776-1.24.04-2.807-1.02-4.104-1.47-1.29.9-1.69 2.69-2.95 3.61-.08-1.45.18-3.24-.16-4.43-1.38-.81-3.02-1.36-4.59-1.97 1.36-.66 3.13-.92 4.6-1.48-.09-1.79.29-3.1.17-4.92 1.17 1.14 1.83 2.77 2.96 3.94 1.58-.33 3.08-.75 4.44-1.31z"/>
    <path d="M51.62 43.208c1.176.08 1.694.822 2.79.985.385-.052.367-.508.657-.657-.84-2.483-2.82-4.358-4.925-7.06-.71-.91-1.632-1.99-2.627-3.282-.76-.986-1.763-2.97-2.79-3.12-.9-.128-1.644.797-2.3.822-.165-.67.79-.855 1.15-1.15 1.486-1.21 3.2-2.64 4.76-3.94.266-.045.284.156.493.165-2.338 1.46-1.057 3.27.493 5.26.71.9 1.59 1.88 2.3 2.79 1.53 1.97 3.72 4.19 4.27 6.08.35 1.2.27 3.02-.16 3.94-.31.67-1.44 2.02-2.79 2.14-2.64.24-2.9-2.2-1.31-2.95z"/>
  </g>
  <g class="ramones__eagle">
    <path d="M99.553 47.805c1.285 2.052 2.166 4.51 3.12 6.895-.836-.15-1.396-.575-2.3-.657-.912 6.217.648 13.81-.163 20.52-.024.195.225 1.034-.492.82-1.128.05-.657-1.94-.657-2.954 0-6.05.1-12.24.17-18.39-1.02.01-1.57.51-2.46.65.84-2.4 1.95-4.52 2.79-6.9z"/>
    <path d="M91.51 48.133c1.33 2.06 2.418 4.367 3.775 6.402-.7.473-1.532-.324-2.463-.164.37 6.64 1.802 14.51 2.134 21.18-.343-.07-.435.12-.657.17-.65-.62-.57-1.63-.66-2.46-.65-6.03-1.19-12.61-1.97-18.71-.48-.14-1.58.5-2.14.82.18-2.22 1.3-4.93 1.97-7.22z"/>
    <path d="M108.09 48.297c.94 2.122 1.388 4.74 2.297 6.895-.735.293-1.702-.593-2.463-.82-.67 5.293-1.207 10.86-1.805 16.25-.19 1.696-.31 3.503-.83 5.09-.35.07-.44-.112-.66-.164-.5-.176-.19-.877-.17-1.15.63-6.268 1.72-13.59 2.46-20.026-.99-.06-1.48.387-2.47.328 1.15-2.184 2.28-4.392 3.61-6.403z"/>
    <path d="M83.137 49.446c1.82 1.682 2.95 4.055 4.596 5.91-.65.478-1.68-.067-2.462 0 1.19 6.695 3.26 13.923 4.6 21.012-.53-.095-.76.112-1.15.164-1.3-7.12-3.14-13.708-4.43-20.848-1.05.042-1.38.807-2.3.985.25-2.55.92-4.67 1.15-7.23z"/>
    <path d="M116.625 49.446c.65 2.36.932 5.087 1.477 7.55-.793-.41-1.56-.847-2.298-1.312-1.643 5.88-2.81 12.593-4.432 19.042-.124.494-.157 2.203-1.313 1.64-.66-.125-.05-.734 0-.984 1.14-6.528 3.34-13.093 4.59-19.7-.56-.495-1.41.118-2.14 0-.56-.11.33-.852.65-1.312 1.03-1.478 2.39-3.326 3.44-4.924z"/>
    <path d="M82.316 74.07c-1.838-5.495-3.84-10.824-5.58-16.416-.914.075-1.558 1.284-2.135 1.15-.05-2.52.34-4.59.33-7.06.21-.507.91.545 1.32.985 1.19 1.28 3.01 3.21 3.78 4.43-.75.07-1.8-.17-2.3.16 1.71 5.74 4.26 12.04 6.24 18.05.81.77 1.82 1.65 2.79 2.62 1.19 1.19 2.91 2.54 2.96 4.59.02.66-.45 2.55-.65 3.12-.19.53-.55 1.15-.98 1.64-1.13 1.26-3.71 2.2-1.8 4.43 2.93-.36 3.21-3.36 4.76-5.09-.56-2.17 1.22-3.07 3.12-3.28.91.68 1.6 1.58 2.96 1.8.4.64.74 1.34.83 2.3-1.69-1.08-5.83-1.43-5.91 1.31-.39-.21-.53-.67-.65-1.15-1.56 1.47-1.98 6.09-4.59 6.57-1.56.28-3.01-.67-3.28-2.14-.27-1.44.95-2.56 1.15-4.27.4-3.44-1.32-5.58-2.95-7.23-3.18-3.21-7.46-4.9-12.14-6.73-.23-.97-.27-2.14-.33-3.29-1.41-.72-3.91-1.98-4.27-3.78-.31-1.58.45-4.54 1.32-5.91.56-.9 1.53-1.36 2.3-1.64 1.62.63.63 3.85 1.15 5.58 1.43.81 3.36 1.13 4.93 1.81-.12 1.32.2 2.21.17 3.44 2.6 1.23 5.38 2.28 7.55 3.94zm-12.148-.657c.443.416 1.377.71 1.97.492.223-.88-.805-.51-.985-.985.124-.697.383-1.258.328-2.134-.21-.01-.22-.21-.49-.164-.47.735-.49 1.913-.82 2.79zm2.627.985c.693.876 2.485.265 2.79 0-.595 2.818 3.54 2.52 3.284.164-.09-.82-.78-1.273-1.81-1.477-.57-.066-1.08.77-1.32.492.07-.564-.07-.92-.17-1.313-1.35-1.65-4.11.204-2.79 2.134zm5.253 2.79c.48.64.97-.543 1.15-.163.26.504.096 1.435.82 1.477.38-.462.05-1.267 0-1.806.28-.487 1.518-.014 1.477-.82-.32-.58-.824-.12-1.477-.165.05-.38.32-.67 0-.98-1.12.36-1.53 1.43-1.97 2.47zM83.3 80.8c1.955-.213 1.982-3.986-.656-3.283-2.264.604-1 3.464.657 3.283zm.658 1.806c.83 1.033 2.918.01 3.12-1.477-1.117-.13-1.403 1.43-2.463.82-.02-1.17 1.34-.96 1.477-1.97-.234-.04-.277-.27-.492-.33-1.06.58-2.5 1.88-1.642 2.95zm3.283.82c-.69.403-1.92.263-1.97 1.314.98.336 2.22-1.103 3.12 0 .19-.727-.18-2.193-1.15-2.298-.18.517-.01.372 0 .985zm4.11 2.3c.31-.194 1.14-.715.82-.986-.29.307-.97.23-.82.985z"/>
    <path d="M74.93 72.756c.17 1.048-.266 1.486-1.314 1.313-.94-.83.452-2.33 1.313-1.32z"/>
    <path d="M78.048 74.562c.02 1.163-1.394 1.486-1.806.493-.02-1.163 1.395-1.486 1.806-.493z"/>
    <path d="M121.057 75.71c.7.52.656 2.004-.82 1.643-.537-.566-.478-1.99.82-1.642z"/>
    <path d="M83.958 78.83c-.097.67-.48 1.052-1.15 1.15-1.615-.682.468-2.765 1.15-1.15z"/>
    <path d="M114 80.636h.327c.077.35-.234.313-.492.328.03-.133.164-.163.164-.328z"/>
    <path d="M114.82 81.293h.492c.07.343-.113.435-.164.657-.29-.04-.375-.283-.33-.657z"/>
    <path d="M106.61 88.516c.55.56.17 1.982 0 2.79-1.047-.285.183-1.812 0-2.79z"/>
    <path d="M92.494 90.485c.488.388.316 1.435.492 2.134-.36.46-.972.67-1.642.82-.48-1.56.21-2.4 1.15-2.96z"/>
    <path d="M105.626 91.142c.615-.013.496.707 1.313.492-.06.603.14 1.453-.17 1.806-.61-.544-1.18-1.124-1.15-2.298z"/>
    <path d="M104.15 92.455c.447-.12.33.326.656.33-.088.46-.24.852-.328 1.312-.686.14-.65-.444-.985-.657.142-.404.726-.367.656-.985z"/>
    <path d="M90.688 92.784c.617.203.296 1.658.164 2.134-1.132.454-2.135 1.038-2.79 1.97-.532-2.12 2.243-2.352 2.626-4.104z"/>
    <path d="M90.36 108.707h5.745c-.554 1.198-1.265 2.237-1.806 3.447.28.376.92-.268 1.47-.164-.32 1.158-1.05 1.91-1.48 2.955.31.412 1-.193 1.47-.164-.42 1.07-1.04 1.92-1.48 2.96.2.3.88-.3 1.47-.16-.33 1.15-1.07 1.89-1.48 2.96.28.38.92-.27 1.47-.16-.47.96-.94 1.91-1.48 2.79.34.49.86-.22 1.47 0-.37 1.12-1.06 1.9-1.48 2.96.16.26.98-.2 1.47-.16-.44.99-.99 1.86-1.48 2.79.4.45 1.12-.18 1.64-.16-.61 1.1-1.19 2.21-1.81 3.29H92.3c-.647-1.05-1.313-2.08-1.807-3.28.41.2.966.24 1.477.33.08-.85-1.107-1.84-1.314-2.95.59.01.95.26 1.48.33-.364-1.28-1.276-2.01-1.64-3.28.45.26 1.19.23 1.64.5-.423-1.11-.96-2.1-1.64-2.95.386-.43 1.035.27 1.64.17-.45-1.08-1.013-2.05-1.64-2.95.387-.43 1.234.07 1.64.17-.46-1.07-.95-2.11-1.64-2.96.287-.33 1.08.23 1.64.17-.48-1.05-1.03-2.03-1.64-2.95.4-.44 1.123.18 1.64.16-.436-1.37-1.365-2.24-1.803-3.61z"/>
    <path d="M97.255 108.707h5.58c-.5 1.304-1.266 2.344-1.805 3.61.58-.074.948-.364 1.642-.327-.49 1.097-1.152 2.023-1.642 3.12.592-.065 1.1-.214 1.642-.33-.58.954-1.062 2.003-1.642 2.956.352.394.904-.4 1.642-.164-.555 1.032-1.14 2.034-1.642 3.12.588-.015.95-.256 1.477-.33-.33 1.147-1.006 1.95-1.477 2.956.14.182 1.18-.125 1.477-.33.062.996-1.128 2.155-1.477 3.284.53-.073.89-.314 1.477-.328-.33 1.146-1.006 1.95-1.477 2.955.553-.05 1.12-.09 1.477-.33.063.99-1.17 2.11-1.477 3.28h-1.97c-.38-1.26-1.2-2.09-1.642-3.29.58.07.948.36 1.642.33-.388-1.09-1.133-1.83-1.477-2.96.588.01.95.25 1.477.33-.353-1.29-1.242-2.04-1.642-3.29.45.26 1.19.23 1.642.49-.265-1.27-1.187-1.88-1.477-3.12.53.07.89.31 1.477.33-.404-1.13-1.038-2.03-1.642-2.96.388-.43 1.235.07 1.642.16-.424-1.11-.96-2.11-1.642-2.96.387-.43 1.036.27 1.642.16-.452-1.08-1.014-2.05-1.642-2.96.403-.45 1.124.18 1.642.16-.44-1.37-1.367-2.25-1.805-3.61z"/>
    <path d="M105.79 123.48c-.015-.806-.967-2.094-1.476-2.954.318-.412 1 .193 1.477.164 0-.87-1.17-1.996-1.47-3.12.61-.01 1.04.167 1.48.33.02-.9-1.13-2.036-1.47-3.12.53.074.89.315 1.48.33-.03-.85-1.19-1.976-1.47-3.12.59.014.95.255 1.48.328-.11-.984-1.22-2.387-1.8-3.447 1.59-.38 3.89-.05 5.75-.16-.44 1.37-1.28 2.33-1.8 3.61.58-.07.95-.36 1.64-.32-.48 1.1-1.12 2.05-1.64 3.12.6-.06 1.1-.21 1.65-.33-.56.98-1.04 2.02-1.64 2.96.23.27 1.05-.26 1.64-.16-.49 1.1-1.15 2.03-1.64 3.12.66 0 .99-.33 1.64-.33-.58.96-1.06 2.01-1.64 2.96.14.18 1.18-.12 1.48-.33.1 1.03-1.13 2.15-1.47 3.29.53-.07.89-.31 1.48-.33-.36 1.12-.95 2-1.48 2.96.7.04 1.06-.25 1.64-.33-.43 1.21-1.16 2.12-1.64 3.29H106c-.56-1.08-1.08-2.21-1.806-3.12.334-.38.98.32 1.64.16-.096-.67-.97-1.98-1.475-2.79.31-.41 1 .19 1.47.16-.09-.84-1.04-2.24-1.64-3.12.27-.26 1.27.15 1.64.33z"/>
    <path d="M110.88 108.87c.768-.38 2.24-.056 3.282-.163v23.146h-1.313c-.56-1.09-1.05-2.24-1.81-3.12.33-.375.98.322 1.64.165-.07-.698-.96-1.995-1.48-2.79.32-.368 1.14.16 1.64.163-.56-1.08-1.08-2.2-1.81-3.11.34-.27 1.31.22 1.8.33-.44-1.1-1.06-2-1.65-2.95.32-.41 1 .2 1.47.17 0-.88-1.14-2.03-1.48-3.12.69-.03 1.06.26 1.64.33-.48-1.05-1.06-2-1.65-2.95.28-.37.92.27 1.47.16-.01-.87-1.18-1.99-1.48-3.12.59.02.95.26 1.48.33-.13-.96-1.18-2.42-1.8-3.44z"/>
    <path d="M91.837 131.69c-1.04.38-2.79.055-4.104.163 1.267-.822 2.565-.495 4.104-.164z"/>
    <path d="M98.568 131.69c-.987.38-2.68.055-3.94.163 1.204-.76 2.522-.577 3.94-.164z"/>
    <path d="M105.462 131.69c-1.04.38-2.79.055-4.104.163 1.32-.68 2.63-.633 4.104-.164z"/>
    <path d="M112.357 131.69c-1.04.38-2.79.055-4.104.163 1.32-.68 2.63-.633 4.104-.164z"/>
    <path d="M95.12 133.166c.367.07.067.81.164 1.15.254-.24.344-.64.328-1.15.393.298.087 1.28-.164 1.477-.687-.244-.29-.828-.328-1.477z"/>
    <path d="M96.27 133.33c.517.445.2 1.09.163 1.807.33-.22.366-.73.492-1.15.367.326-.16 1.144-.164 1.643-.86-.163-.65-1.557-.49-2.3z"/>
    <path d="M103.492 133.987c.422.593.033 1.778-.82 1.642v-.99c.2.07.336.21.327.49.41-.14.23-.87.49-1.15z"/>
    <path d="M93.807 134.152c.526.185.465.957.657 1.477.37-.07.005-.88.328-.99.304.15.277 1.36-.164 1.31-.65-.23-.824-.93-.82-1.81z"/>
    <path d="M97.42 134.152c.52.3.498 1.143.656 1.806.244-.303.314-.78.328-1.313.38.337.114 1.418 0 1.806-.863-.23-.972-1.21-.985-2.29z"/>
    <path d="M105.298 134.644c.254-.502.145.712.164.985.398-.1.365-.62.492-.99.39.35.09 1.39-.492 1.31-.253-.24-.144-.84-.164-1.32z"/>
    <path d="M102.18 134.644c.542.22.08 2.115-.822 1.97-.19-.46-.19-.854 0-1.313.223.06.136.42.164.66.5-.16.358-.95.657-1.31z"/>
    <path d="M112.357 143.508c-1.953-2.37-4.052-4.593-6.074-6.895.08-.576.245-1.07.164-1.806 4.01 2.12 6.604 5.653 7.715 10.67-3.67-.727-6.69-3.28-8.536-6.238-.533-.86-1.435-2.08-.657-3.12 2.65 2.27 4.7 5.15 7.38 7.38z"/>
    <path d="M95.777 135.136c.107-.463.19.378.164.492-.07.33-.3.133-.16-.492z"/>
    <path d="M99.224 134.972c.243.086.414.243.657.328-.05.598.03 1.068.17 1.477.37-.07.07-.81.17-1.15.47.137.43-.23.82-.163-.22.703-.29 1.57-.82 1.97-.86-.212-1.42-1.485-.98-2.462z"/>
    <path d="M104.642 134.972c.38.392.145 1.56-.493 1.477.13-.57-.25-.64-.17-1.15.49-.17.29.36.33.65.27-.17.18-.7.33-.99z"/>
    <path d="M103.657 135.465c.296.414.083 1.718-.328 1.97-.72.11-.45-.762-.5-1.313.27.166.18.697.33.985.24-.467.23-1.188.49-1.642z"/>
    <path d="M117.282 74.727c2.335-1.605 4.86-3.02 7.88-3.94.053-1.26.256-2.37.163-3.776 1.676-.56 3.276-1.21 5.09-1.64.8-1.73-.63-4.98 1.148-5.91 3.217.67 3.415 4.36 3.94 7.72-1.046 1.64-2.123 3.24-4.432 3.61-.11 1.26-.34 2.39-.32 3.78-3.79 1.64-10.44 3.79-13.46 6.9-.59.61-2.12 2.22-1.97 3.29.17 1.14 1.84 1.28 2.3 2.47 4.5-6.64 11.72-10.48 18.88-14.61 2.36-1.36 4.69-2.99 7.39-3.61-.54 4.77-3.84 6.77-6.56 9.36.23.43 1.07.25 1.31.66-.1 2.09-1.57 2.81-2.62 3.94.48.29 1.22.32 1.48.82-.13 1.57-1.29 2.1-2.13 2.96.28.44 1.19.24 1.32.82-.46 1.95-2.22 2.59-3.28 3.94 1.02.13 2.11.19 2.46.99-.31 1.44-1.84 1.66-2.79 2.46.73.58 2.23.4 2.46 1.48-.4.91-1.59 1.04-2.62 1.31.64.77 1.71.68 1.64 1.64-.07 1-1.49.97-2.46 1.48.3.96 1.43 1.09 1.15 2.63-.57.47-1.57.51-2.46.66.1.83.79 1.07.66 2.13-.59.25-1.03.28-1.64.16.19.74.64 1.23.5 2.3-.83.38-1.89.05-2.46-.33.14.94.82 2.1.33 3.12-.87.17-1.14-.28-1.64-.49-.19.34.48 1.62 0 2.3-.8.39-1.5-.22-2.13-.49-.29.43.28 1.82-.17 2.46-.76.05-1.42 0-1.8-.32-.4.53.07 1.93-.49 2.3-.68.09-1.11-.09-1.47-.32-.2.3.22 1.45-.33 1.81-1.06.08-1.49-.48-2.13-.82-.53.51-.24 1.84-.82 2.3-.71.11-.92-.28-1.31-.49-.31.95-.665 1.86-.494 3.29.92.77 2.49.9 2.95 2.14 1.51.35 2.456 1.27 3.286 2.3-.54 1.44 1.05 1.37.82 2.96 1.44.86 3 1.6 5.25 1.64.64-1.21 1.8-3.3 3.61-2.3 1.73-3.36 3.1-7.16 4.76-11.16 3.7-8.93 7.68-18.73 11.49-28.07 1.18-2.88 1.9-7.27 5.42-7.38 2.97-.09 4.8 2.09 6.23 3.94.1 3.57-1.65 5.26-3.12 7.88-6.64 11.84-14.06 24.46-20.35 36.44.27.71 1.16.81 1.48 1.48.19 1.34-.46 1.84-.982 2.468-.48-1.18-1.96-.54-2.79-1.15.37.29 1.01.3.82 1.15.22-.05.138-.41.16-.66h1.15c.49.76.74 1.77.66 3.12-.59.45-1.06 1.02-2.14.98.27-.83.22-1.86-.49-2.14 1.07.87.09 2.82-1.15 3.45-.69.09-1.11-.09-1.48-.322-1.39 1.894-2.12 4.44-3.12 6.73.25.955 1.43.985 1.15 2.46-1.77 1.558-7.54-.692-7.55-3.94.39-.68 1.805-.54 2.63-.33 1.42-1.91 2.7-3.97 3.77-6.232-.247-.75-1.07-1.77-.496-2.79-1.46-1.44-4.244-1.56-6.24-2.46.03 1.01-1.64.33-1.64 1.31-1.53.29-3.51-.1-4.93-.66-.71-.275-1.29-.85-1.97-.99-1.77-.35-3.43.25-5.744 0-.59.29-.48 1.28-1.316 1.31-.1-.39.21-1.19-.16-1.31-.37.728-.15 2.04-1.15 2.138v-.82c.48.79.47-.96.82-1.31-3.25-.01-7.31.01-10.02 0-.55 0-.17.93-.5 1.15-.41-.25-.75-.57-.82-1.15h-4.6c-1.906.99-3.757 2.04-6.73 1.97-.43-.45-1.03-.73-1.81-.82-.14-.47.23-.43.16-.82-2.2.65-4.48 1.21-6.4 2.14.11 2.065 1.93 3.435 2.79 5.09 1.05 2.03 2.18 5.506.82 8.043-.53.092-.765-.115-1.15-.167-.63-.88-.03-2.96-.17-4.43-.24-2.61-1.616-4.07-2.63-5.91-1.286 1.51-5.97 3.63-6.4 0-.56.06.246.9-.166.82-2.513.24-2.38-2.62-1.473-4.11-.29.04-.37.28-.32.66-.58.03-.54-.56-.99-.66-.19 4.07-3.89 4.64-5.41 7.38-1.21-1.9-.56-5.365.49-6.9 2.997-.67 2.95-4.384 6.4-4.6-2.31 1.46-4.28 3.27-5.09 6.236 1.21-2.67 2.67-5.095 5.58-6.07-2.84-1.23-3.68 2.47-5.58 3.775-1.72 1.18-4.56 1.314-7.06.49 2.51-1.05 3.09-4.02 5.91-4.76.09.28-.2.96.16.98-1.12.95-2.24 1.914-3.44 2.79 1.06-.2 2.18-1.76 3.28-2.46.58.02.59.6 1.31.49.67-.1 1.05-.48 1.15-1.15 1.12.24 1.08-.67 1.97-.66-.308-.19-.42-1.23 0-1.48-.59-1.05-1.47-1.81-3.12-1.8-.15-1.09-1-1.48-2.13-1.15-.34.1-.3 1.68-.33 2.13-2.7.87-7.36 1.12-9.03-.82 1.11-.53 2.55-.73 3.45-1.48-.15-.4-.48.37-.98.16-.96-.62-1.89-1.29-1.97-2.79 2.46 1.2 7.16.18 9.85 1.15.31-.72-.57-1.09-.82-1.64-.11-.23.08-.69 0-.82-.55-.87-1.19-1-1.97-1.64-.31.26.69.61.98.82-.7.18-1.31.443-1.64.985-4.38.16-7.06-1.38-7.88-4.76 1.01.62 2.78.5 4.43.49-2.3-.31-3.55-2.23-3.12-4.76 1.11.96 1.65 1.33 3.61 1.64 2.11.34 3.7 2.17 4.43 4.27.062-1.66-1.988-2.61-2.3-4.43.334-.32.8-.515.82-1.15.11-.82-.457-.97-.66-1.48v-3.28c-.29 1.046-.26 2.23-.16 3.28-1.38-.033-1.43-1.41-2.3-1.97-.09.49 1.1 1.09 1.32 1.81-.27.76-1.1 1.11-.66 2.13-3.07-1.523-4.76-4.43-4.598-9.19 1.75 2.19 5.3 2.58 5.91 5.91.5-1.274-1.24-1.804-1.65-3.12-.73-2.38.46-5.14 1.64-6.73.2 1.774 1.52 2.42 1.64 4.27.82-1.204 1.43-2.62 3.12-2.956-.96 1.46.06 4.365-.16 6.4-.33 3.086-3.6 4.89-2.46 8.047.33-.17.26-.73.82-.66-.08 1.51.2 2.646.498 3.778 1.07-.9.32-3.625 1.15-4.76.07-.62-.514-.58-.66-.987.47-2.49 1.9-4.01 4.107-4.76-1 3.16.26 8.58-2.79 9.69-.04-.7.43-.89.33-1.65-.193 1.12-.894 1.73-1.64 2.3-.06 1.42.5 2.23.82 3.29.475-.123-.15-1.35.33-1.475 1.22.246-.01 1.69-.17 2.136.384 1.26 1.82 1.47 2.136 2.79.2-.1-.17-1.02-.33-1.31 1.2-.5 1.25-2.5-.166-2.79.32-3.784 2.52-5.69 4.27-8.045.11 2.68.81 6.95-.66 9.197-1.07-.08-1.94.037-1.97.99-.38-.55-.06-1.8-.17-2.625-.45 1.44-.01 3.4.17 4.76.49-.25-.14-.72 0-1.15.81.216.45 1.06.65 1.64.4 1.12.94 1.9 1.806 2.464.35-.14.14-.85.49-.99.7.02-.34.75 0 1.48.16 1.103 1.71.81 2.14 1.64.89-.775 1.254-1.81 2.46-1.81 1.39.01 2.03 1.51 2.63 2.63 2.19.056 3.403-.86 5.09-1.31.023-1.415 1.503-1.626.98-3.12 1.253-1.54 3.25-2.335 4.925-3.45.04-1.69.13-3.42-.66-4.27-.23-.33-.53.66-1.31.33-.343-.59-.59-1.28-.49-2.3-1.02.08-1.22.97-2.47.82-.33-.39-.434-1.1-.166-1.64-.33-.31-1.172.52-1.8 0-.14-.63-.22-1.32-.166-2.14-.56.15-.96.46-1.802.325-.56-.43-.3-1.77-.16-2.46-.75.19-1.394.942-2.3.49-.25-.78-.11-1.618.167-2.3-.61.15-.853.67-1.804.49-.44-1.017.12-2.088.33-2.96-.32-.14-1.9.843-2.464 0-.12-.94.3-1.34.49-1.97-.28-.21-1.13.025-1.64-.33-.11-.98.43-1.32.653-1.97-.6-.49-1.95-.24-2.46-.82-.16-1.47.8-1.82 1.31-2.626-1.02-.36-2.25-.49-2.63-1.48.03-1.007 1.107-.975 1.64-1.48-.84-.53-2.2-.537-2.63-1.477.29-.97 1.47-1.05 2.47-1.314-.7-1.06-2.39-1.12-2.79-2.47.15-.99 1.4-.894 2.29-1.15-.45-1.3-3.06-1.86-2.955-4.264.31-.18.773-.21 1.15-.33-.69-1.06-2.01-1.5-2.137-3.12.31-.4.81-.614 1.48-.66-.807-1.43-2.57-1.91-2.628-4.1.32-.28.92-.28 1.32-.49-2.46-2.74-6.333-4.93-6.4-9.52 4.07 1.55 8.66 4.29 13.14 7.06 4.25 2.63 8.59 5.47 11.33 8.7 1.01 1.2 2.15 2.83 2.3 4.6.24 2.86-1.55 4.18-2.46 6.24.41 1.53-.09 3.215-.99 3.94.99 1.2 2.04 2.33 2.46 4.11 1.04-.05 1.66.31 2.62.33.38-1.807.057-4.32.166-6.4h6.57c1.38-.76 2.24-2.03 3.61-2.79v.98c.68.51.83 1.526 1.32 1.81.67.05.09-.35.16-.66.603-.11.82-.61 1.15-.99-.41-.24-.8.95-1.64.82-.42-.44.1-.86 0-1.48-.306-.5-.25.73-.82.49-.03-1.51.924-2.03 1.474-2.95.14.36-.03 1.27.49 1.64.624-.36 1.25-.72 1.643-1.31-.53-.35-.956.79-1.48.98-.61-.3-.146-1.6-.165-1.8.02-.77.24.18.66 0 .62-.3 1.21-.65 1.15-1.64-.56.326-.37 1.39-1.32 1.314v-.82c.07-.42.8-.16.98-.83-.02-.47.09-1.07-.16-1.31-.22.46.075 1.08-.33 1.64-1.14-.71-1.52-2.19-2.79-2.79.01 1.87-.57 3.15-2.13 3.45-.33-1.63.84-2.21.324-4.1.77-.49 1.58-.217 2.63-.17-1.08.51 1.62.95 2.14 1.32.61-.3.433-1.22.16-1.81-.35.476.352 1.996-.82 1.31.12-.29.3-.02.49 0 .04-.69-.01-1.16-.16-1.64-.25-.8-1.02-1.13-.98-1.64-.64-.344-1.47-.49-1.64-1.31-.56.31.28.575.17.98-.48-.234-.68-.744-.82-1.31 3.17-2.59 8.83-.01 11.32 1.64-.05.23-.41.14-.66.17.8 1.09 1.85 2.892.82 4.43-1.07-.3-.95-1.28-.82-2.46-.53.29-.29 1.35-.66 1.802-.72.24-.43-.55-.98-.49.17.87.832.823 1.48.49.05.663.62.81.98 1.15.08.52-.3.58-.17 1.15-.814 0-.855-.78-1.31-1.15-.21.84 1.48 1.5.49 2.79-1.07-.21-.66-1.01-.653-2.13-.784.47.04 2.56-1.15 2.623-.91-.35-.186-1.47-.163-2.3-.65.17-.355 1.28-.66 1.8-.72.17-.54-.56-1.15-.49.18.59.616.92 1.48.82.33.78 1.65 1.89.66 2.95-.63-.08-.555-.86-.984-1.15-.28 1 1.27 1.28.66 2.79.02.37.69.07.98.17-.1-.61-.62-.802-.66-1.474.64-.02.6-.71.658-1.31.468.687.53 1.77.82 2.62.26-.32-.14-1.38-.16-1.97.75.19.7 1.16.66 2.14h.82c.45-.4-.56-.74-.49-1.31.26-.02.63.08.66-.17-.68.11-1.37-.82-1.8-1.47.11-.65.346-1.18.49-1.8.49.65.506 1.79.82 2.626.42-.92-.35-2.053-.49-2.953.89.6 1.435 1.82.98 3.28.67-.64.46-2.162.82-3.12.28.33.18 1.03.33 1.48.54.77 2.04 1.39 2.95.82.82-.762.556-2.62.988-3.773 1.22-.42 2.71-.57 2.955-1.97-1.61-1.73-4.56-1.89-4.76-5.09-.23-3.82 4.14-5.62 5.91-8.04 2.17-6.2 4.52-12.22 6.73-18.38-.49-.38-1.69-.06-2.46-.165 1.57-2.04 3.43-3.79 5.09-5.74.3 2.38.47 4.9.49 7.55-.69-.45-1.35-.94-1.97-1.47-2.28 5.42-4.08 11.33-6.22 16.91zM94.3 132.837c-.356-.027-.074.583-.164.822.355.02.074-.59.164-.83zM80.346 95.41c.437-1.647 1.938-2.87 2.298-4.268.68-2.64-1.188-5.79-4.432-5.253-.455 1.62 1.053 1.87 1.15 2.62 0 0-.632.6-.658.82-.076.64.24.42.328 1.15-.46-.19-.853-.19-1.313 0-.28.83.89 1.06.49 1.47-.39-.39-.81.02-1.32 0 .08.79.71 1.04 1.15 1.47-.13.36-.78.21-.82.65.33.27.76.44.82.98-.38-.05-.63.02-.82.16 0 .6.46.73.65 1.15-1.11.54.02 1.63-.99 2.46.19.24.62.25.82.49.12 1.26-1.46 1.39-1.15 3.28.63.09.8-.3 1.47-.17-.26.61-.68 1.07-.66 1.97.43.38 1.12.03 1.64 0-.11.68-.47 1.34-.17 1.97 1.17-.14 1.61-1.01 2.3-1.64-.08 1.21 1.15.73 1.8.49-.13.62-.31 1.41.16 1.8.33-.27.86-.35 1.15-.66.26.12-.04.8.49.66v-2.62c-.99-.11-1.69-.51-2.79-.49-.79-1.57-1.91-2.8-2.63-4.43.88-1.1.56-2.49.98-4.11zM59.662 71.772c-.362-.02-.07-.697-.164-.985-1.003-.42-1.738-1.107-2.955-1.313.85 4.617 4.9 6.98 7.88 9.685 3.086 2.8 6.103 5.98 9.685 7.71-1.41-.99-2.508-2.25-3.447-3.45-1.29-1.66-2.42-2.68-3.94-4.11-2.89-2.73-5.87-5.41-8.37-8.37.42.19 1 1.07 1.32.82zm73.707 7.223c-.94.867-2.05 1.743-2.8 2.626-.53.64-.81 1.52-1.32 2.14-1.04 1.27-2.48 1.99-3.29 3.29 3.35-2.33 6.64-5 9.68-7.71 2.99-2.67 6.68-5.34 7.71-9.85-1.33.54-3.02.7-3.12 2.47.6.11.82-1.03 1.15-.65-2.37 2.73-5.43 5.3-8.04 7.72zm-70.59-5.582c2.57 1.737 5.09 3.59 7.55 5.58 1.16.94 2.42 1.888 3.77 2.627 1.37.75 2.86 1.603 4.43 1.806-4.27-3.38-8.99-6.63-13.63-9.52-1.66-1.033-3.27-2.233-4.93-2.627 1.44 2.93 4.57 5.39 7.06 7.38.78.62 1.9 1.96 2.95.98-2.57-2.08-5.3-4-7.55-6.4.16 0 .19.13.32.16zm67.14 6.402c1.23.674 2.15-.505 2.95-1.15 2.67-2.135 5.73-4.413 7.06-7.55-6.76 3.588-12.9 7.79-18.55 12.476 6.6-2.2 10.58-7.03 16.08-10.34-2.21 2.5-5.12 4.29-7.55 6.57zm-5.09-5.417c-.57-.2-.55-.983-1.48-.82-.14.408-.22.878-.17 1.476-.57-.2-.55-.983-1.48-.82.34 1.245 1.13 2.045 2.13 2.626.58-.43.05-.96.16-1.806.61.262.73 1.02 1.48 1.15.68-.715.02-2.25 0-3.284h-.5c-.28.273-.13.965-.17 1.478zm-5.75 1.477c-.93 2.986 3.69 3.05 3.28.328-.15-.96-.68-1.577-2.14-1.15-.68.2-1.02.385-1.15.822zm-2.46 3.94c.09-.508.88-.325.65-1.15-.41-.532-.87.77-1.32.165.18-.416.79-.412.65-1.15-1 .046-1.44.64-1.81 1.314.63.683 1.15 1.477 1.8 2.134.68-.295 1.81-.87 1.48-1.642-.67-.17-.96.888-1.48.33zm3.28-1.477c-.69-.138-.78.32-1.32.328-.44-.657-.68-1.508-1.48-1.806-.5 1.195.88 1.826 1.15 2.79.83-.152 1.58-.387 1.64-1.312zM69.84 84.74c-2.7-1.84-4.118-4.966-8.044-5.58.26 2.24 1.96 3.19 3.447 4.267 1 .724 2.12 1.75 3.283 1.477-1.968-1.643-4.19-3.032-5.745-5.09 2.37 1.35 5.36 4.025 7.06 4.926zm61.56.328c3.195-1.017 5.64-2.786 6.893-5.745-2.79-.378-4.046 1.99-5.58 3.283-1.055.888-2.174 1.31-2.627 2.298 2.325-1.724 4.6-3.498 7.06-5.09-1.513 2.156-3.937 3.398-5.747 5.254zm-15.103-3.775c-.657-1.31-2.678-2.318-3.447-.492.52.96 1.266 1.69 2.298 2.14.464-.46.986-.87 1.15-1.64zm-40.547 3.61c-.34-.317-.313-1-.492-1.476-1.767-1.085-3.183-3.374-5.746-3.12.85 3.144 3.693 5.172 5.746 6.567-.713-2.46-3.473-3.75-4.268-5.58 1.446 1.234 3.266 2.97 4.76 3.61zm49.083 1.15c.596.105-.38.767.164.82 1.118-.77 2.1-1.916 3.12-2.954.945-.97 2.51-2.03 2.133-3.78-2.485.51-5.866 2.63-5.745 4.92 1.364-1.43 3.103-2.48 4.596-3.78-1.3 1.7-2.9 3.11-4.26 4.76zm-44.487-.328c-1.336-1.236-3-2.142-4.925-2.79.35 1.353 1.08 2.32 2.14 2.954.07-.57-.93-.92-.49-1.32.41.96 2.57 1.04 3.29 1.15zm42.025.164c1.12-.59 1.81-1.6 2.14-2.96-1.79.67-4.16 1.63-4.76 2.95.67-.32 1.44-.54 2.46-.5.27-.39.46-.86.99-.99-.23.53-.61.92-.82 1.48zm-59.59-1.97c.71 1.92 2.86 3.27 4.6 3.61-.95-1.02-2.64-2.17-3.12-3.12.89.26 1.32.98 2.3 1.15-.05-1.03-2.17-2.18-3.77-1.64zm70.59 1.64c1.11-.15 1.42-1.1 2.63-1.15-.58.45-1.19 1.06-1.8 1.64-.58.55-1.55 1.07-1.47 1.8 1.64-1.15 3.75-1.84 4.43-3.94-1.58-.42-3.35.34-3.77 1.64zm-32.83-.33c-.05.33-.44.32-.49.65.69.03.58-.74.99-.99.44.17 1.26.31 1.48-.17-.67-.04-1.44.01-1.47-.66-.92.39-2.5.25-3.28.33.93-.05.77 1.85 1.65 1.31-.19-.06-.77-.51-.33-.66.13 1.09 1.4-.01 1.48.16zM73.13 91.3c-.948-2.008-3.436-3.35-4.432-4.76.812.177 1.713 1.13 2.463.82-.35.028-.07-.582-.16-.82-1-.58-2.19-.983-3.77-.986.86 3.027 3.27 4.502 5.91 5.745zm5.09-3.61c-.66-.983-1.228-2.057-2.792-2.135.077 2.222 1.395 3.202 2.792 4.104-.015-1.41-.87-1.98-1.313-2.96.595.06.78 1.4 1.313.98zm43.5 1.97c1.482-.72 2.915-2.326 2.792-4.105-1.558.14-2.17 1.22-2.79 2.3.73.065.83-1.35 1.31-.987-.603.766-1.13 1.608-1.313 2.79zm5.254 1.64c2.478-1.352 4.954-2.706 5.745-5.745-1.66.257-3.84-.003-3.78 1.97.96-.244 1.54-.86 2.62-.985-1.62 1.395-3.96 2.938-4.6 4.76zm-9.193-3.61c.47 1.177-.29 2.255-.49 3.282.55 1.43 1.87 2.708 2.3 4.432.38 1.49.26 3.045.99 4.43-.98 1.267-1.75 2.736-2.62 4.105-1.03 0-1.76.31-2.62.49.11.82-.21 2.07.17 2.62.02-.31.11-.55.33-.66.34.25.96.77 1.32.49v-1.65c.43.18.81.4 1.48.33.09-.29.09-.68.33-.82.59.67 1.01 1.51 2.14 1.64.56-.56-.4-1.61 0-1.97.49.06 1.19.4 1.48.16.07-1.06-.42-1.55-.65-2.3.44.16.87.33 1.48.32.71-1.59-2.36-2.68-.33-3.78-.91-.98.03-1.88-.99-2.63.31-.24.73-.37.66-.99-.1-.29-.78.01-.82-.33.17-.43.65-.55.82-.99-.19-.24-.62-.26-.82-.49.44-.44 1.07-.69 1.15-1.48-.46-.2-1.01-.2-1.48 0 .2-.51.77-.66.66-1.48-.33-.53-1.07.31-1.31-.17.57-.59.34-1.71-.33-1.97.75-.43 1.42-1.54 1.15-2.46-2-.08-3.28.54-3.94 1.8zm-42.51 3.12c-1.07-.958-2.61-2.316-2.95-3.448.83.144 1.31 1.367 1.97 1.15.04-.128.01-.325.17-.33-.04-.67-1.88-1.837-3.12-1.312.57 1.95 1.72 4.187 3.94 3.94zM126 88.675c.46-.58 1-1.08 1.806-1.314-.805 1.44-2.11 2.38-3.12 3.61 2.438-.29 3.45-2.02 3.94-4.26-1.54-.08-3.83.84-2.626 1.97zM70.83 90.48c-1.973-1.282-4.047-3.25-7.06-2.954 1.195 2.853 3.987 4.11 7.06 5.09-.1-1.416-1.53-1.733-2.463-2.3-1.02-.62-2.073-1.3-2.955-1.97 1.8.61 3.73 1.96 5.418 2.134zm58.27 2.14c3.084-.968 5.898-2.203 7.06-5.09-3.014-.244-5.25 1.618-7.06 3.12 1.888-.523 3.814-1.88 5.42-2.135-1.778 1.397-4.506 1.843-5.418 4.104zm-51.543-2.79c-.807-.563-1.46-1.277-2.79-1.314.04 1.656 1.032 2.36 2.46 2.627-.114-.98-1.074-1.114-1.312-1.97.72.06 1.048 1.455 1.642.656zm44.815.163c.8.39.94-.786 1.81-.82-.4.75-1.323.972-1.475 1.97 1.45-.25 2.45-.946 2.463-2.628-1.323.1-2.162.685-2.79 1.478zM77.07 93.605c.146-1.103-.866-2.397-2.462-2.298-.27 1.274 1.355 1.876 2.463 2.298zm36.77 3.94c.446.1 1.304-.21 1.478.163v6.238c.963-.022 1.588-.383 2.627-.328.466-1.723 1.437-2.94 2.46-4.104-.79-.78-1.386-2.31-.984-3.776-.83-1.408-1.52-2.962-2.3-4.432-.94 2.227-1.99 4.355-3.28 6.238zm9.03-3.94c1.165-.422 2.377-.797 2.626-2.134-1.397-.44-2.642.62-2.626 2.14zm-48.098 0c-.725-.534-1.547-.97-2.3-1.477.92-.154 1.113.42 1.806.492-.133-1.29-1.688-1.158-3.12-1.15.21 1.598 2.24 2.245 3.612 2.135zm50.89-.986c.6-.01 1.19-.88 1.804-.33-.897.36-1.732.78-2.297 1.47 1.62-.35 3.35-.59 3.61-2.3-1.43-.01-2.95-.11-3.12 1.15zm-61.233 0c1.36 1.55 3.92 2.72 6.56 2.46-.69-1.61-3.2-1.4-4.43-2.47 1.13-.14 2.33.51 3.12.16-1.11-.75-4.13-1.38-5.25-.17zm65.82.32c1.08.09 2.21-.63 3.12-.17-1.5.69-3.45.93-4.43 2.13 1.09.48 2.62.09 3.77-.33 1.2-.44 2.31-1.24 2.79-2.14-1.4-.88-4.3-.54-5.26.49zm-59.1 1.48c.61.92 1.65 1.41 2.95 1.64.05-1.14-1.26-.93-1.64-1.64 1.26.19 1.91.74 2.62-.33-1.13-.11-3.32-.53-3.94.33zm4.76-.33c-.08.73.49.82 1.15.82-.02-.62-.65-1.2-1.15-.82zm46.95.82c.65 0 1.22-.09 1.15-.82-.51-.38-1.14.2-1.15.82zm1.97-.49c.81-.21.7.51 1.31.49.13-.38 1.13-.72 1.48-.33-.81.28-1.69.5-1.81 1.47 1.31-.27 2.5-.68 2.95-1.81-.84-.43-3.35-.64-3.94.16zm-50.4.82c.41.88 1.72 1.64 2.79 1.31-.16-.83-1.57-.41-1.81-1.15.28.01.42-.13.49-.33-.37-.11-1.38-.43-1.48.16zm49.74-.16c-.51.16.47.15.33.49-.47.46-1.54.32-1.81.98 1.04.24 2.59-.34 2.79-1.48-.24-.24-1.08-.24-1.32 0zm-59.1.98c.76 2.07 4.29 1.4 6.56 1.15-.88-.99-3.32-.4-4.6-.99 1.47-.06 2.99-.08 4.26-.33-1.72-.84-4.72-.86-6.24.16zm35.13 1.47c.28-.63 0-1.93-.5-2.3.19.74.24 1.62.49 2.3zm28.4-1.48c1.6-.02 3.13.04 4.43.33-1.65.24-3.96-.06-4.76.82 2.35.33 5.6.72 6.73-.99-1.34-1.26-4.85-1.24-6.41-.17zm-27.9 1.48c.4.02.79.02.98-.17.02-.68-.38-.94-.66-1.32-.09.51-.14 1.07-.33 1.48zm6.24 0h1.64c-.3-.58-.86-.9-1.32-1.31-.23.32-.16.94-.33 1.31zm-35.13.33c1.09.87 3.61 1.2 4.43-.17-.99-.11-2.41.21-3.12-.17.53-.57 2.09-.1 2.79-.49-1.29-.9-3.55-.69-4.11.82zm26.59-.33c.4.02.79.02.98-.17-.1-.45-.33-.77-.66-.99-.03.46-.3.68-.33 1.15zm25.61-.33c1.13.01 2.43-.14 2.95.49h-3.12c.67 1.41 3.31 1.04 4.27.16-.49-1.52-3.07-1.84-4.11-.66zm-30.87.32h.49c-.03-.25.06-.61-.17-.66-.07.25-.52.14-.33.65zM65.9 99.35c1.257 1.725 5.465.997 6.566-.328-1.475.223-4.018.25-5.253.164 1.494-.312 3.268-.343 4.432-.985-1.765-.66-4.96-.23-5.745 1.15zm62.38-.985c1.47.39 3.238.483 4.596.985-1.553-.307-3.743.022-5.253-.328 1.06 1.55 5.023 1.76 6.566.492-.66-1.49-4.35-2.166-5.91-1.15zm-43.01.164v33.98h29.55c.046-10.36-.003-22.44 0-34.48H85.434c-.19.02-.178.26-.164.49zm-10.34 1.31c.786.27 1.8.46 2.133-.33-.44-.42-.865.1-1.477 0 .155-.5.8-.52.82-1.15-.838.15-1.45.52-1.477 1.48zm49.246-.33c-.518.08-.58-.3-1.15-.17-.263 1.03 1.54.67 1.97.49.016-.84-.816-1.7-1.476-1.32.122.32.96.77.656.98zm-52.858 1.31c.894.9 3.498.55 3.776-.66-.79-.02-1.793.61-2.462.16.682-.36 1.82-.26 1.806-1.32-1.47.17-2.632.65-3.12 1.8zm54.17-1.64c.11.93 1.398.68 1.807 1.31-.904-.03-1.633-.23-2.462-.33.36 1.19 2.602 1.43 3.776.82-.21-1.35-1.94-1.98-3.12-1.81zm-58.438 3.78c1.574 1.43 4.935.23 5.745-1.15-1.555-.02-2.974.96-4.268.65.847-.63 2.41-.55 2.298-2.14-1.647.48-3.2 1.06-3.775 2.62zm62.05-1.97c.48.83 1.705.92 2.3 1.64-1.566-.13-2.667-.73-4.27-.82.824 1.34 4.17 2.61 5.746 1.15-.52-1.56-2.076-2.09-3.61-2.63-.053.22-.235.31-.165.65zm-52.694-.33c-1.655.53-3.19 1.19-3.12 3.45 1.525-.01 3.346-.42 2.792-1.97-.764 0-1.396 1-1.806.82.87-.61 1.438-1.52 2.134-2.3zm47.442 1.48c-.48 1.54 1.218 1.97 2.79 1.97.296-1.82-1.383-2.97-2.954-3.45.283.92 1.707 1.57 1.642 2.3-.406-.36-.84-.7-1.478-.82zm-51.053.65c-1.863.49-3.502 1.2-3.94 3.12 1.53.52 3.617-.64 3.61-1.65-.792.19-1.84 1-2.46.82.994-.7 2.154-1.24 2.79-2.3zm56.963 2.46c-.722-.27-1.788-1.06-2.463-.82.746.91 2.156 1.98 3.776 1.47-.43-1.92-2.04-2.66-3.94-3.12.52 1.07 2.39 1.66 2.63 2.46zm-74.692-1.15c.022-.22.025-1.19-.164-.66-.022.21-.025 1.19.164.65zm21.997-.82c-1.69.71-2.524 2.29-2.79 4.43 1.386-.49 3.046-1.53 3.12-2.79-1.054.15-1.208 1.2-2.135 1.47.557-1.09 1.518-1.77 1.805-3.12zm45.472 1.64c.073 1.26 1.733 2.3 3.12 2.79-.213-2.2-1.125-3.69-2.79-4.43.185 1.4 1.747 2.3 1.805 3.28-.715-.55-1.108-1.41-2.135-1.65zm-64.022-.49c.38.14.377-.84.164-.33-.09.14-.493.72-.164.33zm-3.447.82c.026-.12-.057-.96-.164-.5-.144.62.088.82.164.49zm19.37-.66c-2.255.48-4.015 1.45-4.43 3.77 2.02-.12 3.5-.77 3.94-2.47-.953.3-1.612.9-2.463 1.31.833-1.03 2.104-1.62 2.954-2.63zm51.546 1.31c.458 1.67 1.904 2.36 3.94 2.46-.355-2.33-2.16-3.2-4.268-3.78.772 1.2 2.196 1.74 3.12 2.79-.963-.46-1.704-1.14-2.792-1.48zm-67.797-1.15c-.69 1.27.213.75 0 0zm-.82.98c.025-.12-.058-.96-.165-.49-.144.62.088.82.164.49zm21.01-.49c-1.165.65-2.03 2.43-1.64 4.1 1.1-.29 2.265-1.32 2.133-2.3-.92-.04-1.075 1.54-1.642 1.31.425-1 1.11-1.74 1.15-3.12zm44.324 3.28c-.69-.36-.67-1.42-1.65-1.48.1 1.38 1.05 1.9 2.13 2.29.56-1.68-.68-2.92-1.15-4.11h-.49c.02 1.45.86 2.09 1.15 3.28zm-67.31-1.64c.01.17.21.13.16-.17-.51-1.55-.58-1.03-.17.16zm62.21-.82c.1 1.37 1.11 1.84 2.29 2.13.42-1-.16-2.04-.82-2.47.01.3-.13.35-.33.16-.08.74.81 1.37.49 1.8-.46-.64-.82-1.38-1.64-1.64zm-59.76.33c.04-.23-.1-.64-.17-.33-.05.22.1.64.16.33zM80 108.2c1.32-.215 2.138-.93 2.464-2.134-1.05-.116-1.226 1.506-1.807 1.313.033-.47.76-1.09.33-1.48-.63-.04-1.4 1.26-.986 2.3zm-22.324.33c-.008-.924.09-1.952-.328-2.463.1.73.082 2.43.322 2.47zm-1.97-.494c.023-.216.026-1.188-.163-.657-.024.21-.027 1.19.162.65zm26.594 2.3c1.14-.27 2.7-1.557 1.81-2.79-.434.442-.875 1.742-1.31 1.64.23-.53.41-1.12.49-1.806-1.705-.355-1.454 2.11-.985 2.954zm33.33-2.79c-.456 1.454.78 2.45 1.97 2.79.47-.845.746-3.34-.987-2.957-.05.71.673 1.5.33 1.97-.346-.7-.644-1.44-1.316-1.81zm-41.534.326c-.326 0-.21-.447-.657-.327-.68.777-1.94 2.432-1.15 3.61.91-.62 1.97-1.088 2.29-2.297-.62-.44-1.17 1.31-1.64.99.45-.585.9-1.175 1.15-1.97zm1.97-.327c-.82 1.75-2.235 2.91-2.298 5.417 1.723-.256 3.175-1.62 3.12-3.12-.76-.093-1.6 2.013-2.3 1.97.65-1.155 1.99-2.494 1.476-4.266zm46.95 2.3c.18 1.896 1.42 2.74 3.12 3.12-.065-2.564-1.395-3.86-2.464-5.42-.016 2.043 1.03 3.024 1.644 4.433-.92-.555-1.184-1.77-2.3-2.135zm2.297-.986c.367 1.13 1.593 2.21 2.626 2.14-.09-1.67-.53-2.98-1.81-3.45-.87.82.93 1.79.66 2.46-.42-.4-.92-1.42-1.48-1.15zm-46.457 1.97c1.02-.32 2.438-1.03 2.136-2.13-.97-.09-1.24 1.38-1.808 1.15.014-.75.418-1.12.33-1.97h-.494c-.43.89-.576 1.98-.167 2.95zm40.056-2.13c-.268 1.12 1.16 1.88 2.3 2.13.073-1.08.46-2.81-.82-2.96-.13.9.57 1.83.33 2.29-.64-.46-.71-1.48-1.81-1.48zm-61.397.99c.03-.12-.058-.96-.165-.5-.14.63.09.82.167.49zm20.355-.33c-.584 1.57-2.462 3.52-1.474 5.58 1.43-.66 3.03-1.99 2.956-3.61-1.24.51-1.58 1.92-2.627 2.62.536-1.27 1.81-2.68 1.15-4.6zm3.61 0c-.67.6-.86 2.32-.49 3.44 1.268-.18 2.39-1.3 2.3-2.3-1.12-.08-1.3 1.65-1.97 1.47.25-.81 1.077-2.05.164-2.63zm39.07 1.97c-.02 1.67 1.59 3.11 3.287 3.61.088-2.61-.92-4.12-1.97-5.58-.24 2.21.726 3.21 1.315 4.59-1.046-.71-1.364-2.14-2.627-2.63zm-1.97.82c-.76-.44-.85-1.56-1.97-1.65.14 1.39 1.058 2.01 2.3 2.3.3-1.11.48-2.83-.655-3.28-.68.77.224 1.68.33 2.62zm-34.31-2.3c-.672 1.35-1.34 2.71-1.15 4.92 1.036.1 1.687-1.05 1.15-1.97-.182.21-.4 1.22-.655.82.283-1.09 1.06-2.55.655-3.78zm31.19 2.95c-.16 1.25.25 1.94 1.315 1.97.136-2.22-.344-3.82-1.315-4.93-.17 1.59.897 2.82.658 3.94-.06-.49-.286-.81-.658-.99zm-58.11-2.3c.046-.23-.1-.64-.163-.33-.043.22.104.64.166.32zm-.163.82c.047-.22-.1-.64-.162-.33-.044.22.1.64.165.33zm4.106.98c.09-.41.77-1.08.49-1.32-.22.27-.903 1.96-.49 1.31zm-4.27 0c.03-.12-.053-.96-.16-.49-.145.62.087.82.163.49zm23.31-.49c-1.41.94-2.152 2.55-2.13 4.92 1.57-.46 2.8-2.13 2.79-3.61-.846.41-1.29 2.1-1.97 2.13.616-.97 1.24-1.93 1.313-3.45zm38.417 1.31c.485 1.7 1.29 3.08 2.955 3.61.08-2.44-.75-3.96-2.134-4.93.14 1.61.9 2.6 1.48 3.77-.95-.63-1.13-2.04-2.29-2.46zm-61.887 1.64c-.07-.54.163-2.24-.167-1.97.07.54-.166 2.24.164 1.97zm4.265-.99c0-.24.064-1.34-.162-.82 0 .24-.06 1.34.164.82zm19.044 4.43c1.26-.49 2.806-1.57 2.298-3.28-.45.65-1.11 1.95-1.64 1.97.107-.61.894-1.35 1.15-2.13.13-.41.41-1.36 0-1.48-.58 1.56-2.27 2.85-1.805 4.92zm37.1-3.28c0 1.97 1.137 2.8 2.626 3.28-.034-2.32-1.19-3.52-2.133-4.93.062 1.74.95 2.66 1.476 3.94-.79-.63-1.19-1.65-1.96-2.3zM54.24 117.4c-.217-.02-1.19-.023-.66.166h.66c-.14.465.23.426.16.822-.56-.123-.27.604-.66.656-1.94-.077-1.58.254.168.163.123 2.312 2.27.777 2.955.657-.658.09-.748-1.496-.327-1.475 1.243.29 1.54 1.52 2.298 2.29-.41-1.18-1.33-1.84-2.13-2.63.68-1.68-1.766-2.27-2.463-.99-.9-.47-2.65-2.02-2.79-2.14.63 1.12 2 1.5 2.79 2.46zm6.894-.82c-.053-.393.14-1.874-.164-1.475.05.395-.14 1.875.16 1.477zm22.16 3.12c.385-.28 1.115-1.07.658-1.64-.144.094-.393.884-.49.49.1-1.102.15-2.26.33-3.283-1.39.484-1.375 3.45-.493 4.433zm32.176-1.15c.205-.78.32-2.52 0-3.282-.157.834-.36 2.486 0 3.283zm.982 0c-.43.05-.128-.64-.656-.49.06.865.41 1.45 1.15 1.64.442-1.435.39-3.327-.33-4.432h-.497c.19 1.01.3 2.11.33 3.28zm-31.68 0c.112-1.152-.28-1.8-.165-2.954-.036-.127-.14-.19-.33-.163.117 1.09-.32 2.73.494 3.12zm-21.17 1.48c.01.172.21.13.163-.164.187-1.36 1.65-3.66 1.642-3.94.002.054 0 .11 0 .16-.95.97-1.44 2.39-1.806 3.94zm-11.656-1.15c-1.833-.407-.075.484 0 0zm32.834 1.32c-.035-.31.11-1.622-.165-1.15.033.31-.11 1.623.164 1.15zm-21.178.82c.026-.113-.057-.954-.164-.49-.144.623.088.82.164.49zm53.516 3.776c.024-.796-1.202-1.198-1.806-.82.56.314.984.766 1.806.82zm-59.26-.492c-.608.105-1.636-.213-1.97.164.605-.104 1.634.213 1.97-.164zm26.428.82c.488.196.705-.69.33-.82-.072.313-.47.297-.33.82zm-29.22-.492c-2.32.615 1.83-.485 0 0zm4.104 0c-.303.027-1.345-.388-.985 0 .42-.178.783.5.985 0zm56.142 1.15c.216 1.753 2.067 1.872 3.94 1.97-.112-.655-.823-.71-1.313-.986-.7-.942-1.66-1.623-2.63-2.298-.3 1.506 1.82 1.46 1.64 2.298-.54-.34-.99-.767-1.65-.985zm-55.32-.822c-.953-.473-.433.406 0 0zm-6.24.165c-1.423.586.954-.393 0 0zm8.373 1.15c-.402-.356-1.814-1.3-1.806-.986.53.22 1.88 1.22 1.8.98zm55.485-.986c-.04-.26-.27-.03-.328.16.86 1.05 2.396 1.43 3.61 2.13-.476-1.39-1.66-2.06-3.282-2.3zm-58.933.32c-.553.1-1.525-.21-1.806.16.56-.11 1.53.21 1.81-.17zm21.833 2.13c1.475-.44 2.877-.96 3.61-2.14-1.754.16-2.89.94-3.61 2.13zm-23.802-1.97c-1.052-.19-.36.5 0 0zm28.07 0c-1.026.56-1.675 1.49-2.626 2.13.722.14 1.742-.02 2.627-.17-.1-.34.2-1.08-.17-1.15-.02.22-.64.64-.66.33.34-.32.86-.45.82-1.15zm-29.384.16c-.017 0 .013.15 0 .16-.9.63 1.162-.56 0-.17zm-1.477.98c.18-.37.806-.29.985-.66-.34.08-1.703.57-.985.66zm10.178.65c.01.17.21.13.164-.17-.51-1.55-.58-1.03-.17.17zm51.217.82c.307.04 1.088.42 1.313 0-.676-.26-.772-1.09-1.313-1.48v1.47zm3.94 0c.727.26 1.425.54 1.642 1.31-1.206-.71-2.267-1.57-3.94-1.81.612 1.79 2.715 2.8 4.924 2.46-.136-1.62-1.347-2.16-2.298-2.96.39.66-.262.4-.328.98zm-39.727 2.3c2.172.35 4.23-.8 4.925-2.47-1.746.12-2.603 1.12-3.94 1.64.14-.68.992-.65 1.15-1.31-.09-.24.19-.85-.165-.82-.805.83-1.86 1.42-1.97 2.95zm35.787-.33c.968.38 2.682.5 3.283-.33-.994-.49-1.698-1.26-3.283-1.15v1.47zm-32.503.16c.48.28 1.14.38 1.97.32v-1.64c-.88.22-1.33.87-1.97 1.31zm-17.41-.66c-.29.09-.97-.2-.99.16.29-.09.96.2.98-.16zm53.02 1.15c.54.38 1.06.79 2.13.65-.05-.95-1.64-1.61-2.14-.66zm-48.43 0c.03 1.06.92 1.26.98 2.29.99-.74.36-3.51-.99-2.3zm60.57 2.29c-.16-1.03.64-1.11.82-1.8-.58-2.26-2.43 1.2-.82 1.8zm-49.74-1.47c.9.29 1.74-.14 2.13-.82-.95-.33-1.94-.06-2.14.82zm34.47.33c.21.19 1.29.33 1.47 0-.78-.15-.49-1.38-1.48-1.31v1.31zm1.47-.82c.41.66 1.09 1.25 2.13.82-.48-.67-1.23-1.44-2.14-.82zm-34.31 1.15c1.21.12 2.03-.16 2.13-1.15-1.22-.12-1.61.58-2.14 1.15zm-15.92.98c1.03-.23 1.71-.8 2.95-.82-.49-1.21-4.34-.76-2.96.82zm65.5-.82c1.12.08 1.81.6 2.79.82.03-.19.18-.26.33-.33.31-1.62-2.79-1.42-3.12-.49zm-13.62.32c.44.27 1.62.59 1.97 0-.67-.53-1.21-.47-1.97 0zm0 1.15c-.26-1.4-1.65-1.31-2.79-1.48.36 1.05 1.42 1.41 2.79 1.47zm-37.27-.49c.84.02 1.65 0 1.8-.66-.95-.1-1.66-.33-1.81.65zm4.76.16c.65-.22 1.32-.43 1.64-.99-1.06-.18-1.51.25-1.65.98zm19.86-.33c.05-.1.41-.63 0-.66-.05.1-.41.63 0 .65zm9.69-.17c-.08-.38-.95-.79-1.32-.33.39.06.94.79 1.31.33zm-32.67.98c1.55.17 2.46-.28 2.79-1.32-1.46-.09-2.21.53-2.79 1.32zm-14.44-.17c-.6-.11-.88.11-1.15.33-.34.09-1.08-.21-1.15.16.47.02 1.07-.09 1.31.16-.09-.59.49-.5.99-.5-.23.72-.05 1.01.32 1.47 1.08-.18.79-1.73 1.31-2.46-.93-.11-.91.74-1.64.82zm64.51 1.64c.91-1.19-.27-2.59-1.48-2.3.72.53.23 2.28 1.47 2.3zm-62.71.98c.95 1.51 2.53-.92 1.47-1.97.03 1.17-1.45.84-1.48 1.97zm61.23-.17c-.44-.71-1.45-.85-1.64-1.81-.9 1.47.82 3.49 1.64 1.8zm-62.71-.17c-.47-.13-.43.23-.82.17-.09.24-.26.4-.5.49.06.81.29-.42.66-.33.19-.14.44-.22.82-.16-.05.2.03 1.01.16.49-.24-.59.52-.99.16-1.15-.09.24-.26.4-.5.49zm64.02.66c.02-.19-.03-.47.16-.49.13-.04.32 0 .33-.16-.63.28-1.25-.77-.99-.33.24.25.22.76.49.98zm-72.07.98c.67-1.72-.19-.78-.33.49-.93 1.61.01.33.33-.49zm8.87.49c.58 1.42-.4-.95 0 0zm62.54-.16c-.13-.23-.42.78-.82.82.47-.08.74-.35.82-.82zM52.9 109.48c-.12.03-2.43-2.244-2.3-2.465.36 1.22 1.25 1.92 2.3 2.46z"/>
    <path d="M88.882 122.99c-.035.842-1.133 2.04-1.477 3.118.165.26.99-.204 1.477-.164-.446.976-1.047 1.8-1.477 2.79.403.446 1.125-.178 1.642-.163-1.094.99-.728 3.44-2.955 3.29v-23.15h3.12c-.608 1.15-1.265 2.24-1.807 3.45.165.26.99-.2 1.477-.16-.365 1.12-1.06 1.9-1.477 2.96.318.41 1-.19 1.477-.16-.44 1.04-1.064 1.89-1.477 2.96.206.3.888-.31 1.477-.17-.414 1.07-1.037 1.92-1.477 2.96.28.38.925-.27 1.477-.16-.44.99-.992 1.86-1.477 2.79.27.37 1.174-.02 1.477-.16z"/>
    <path d="M71.482 122.168c1.023-1.003 3.262-2.21 6.238-1.806-1.592 1.14-1.403 3.36-2.955 4.432-.87.6-2.315.776-3.447 1.313-1.21.574-1.874 1.378-2.955 1.806 1.67-2.6 3.7-4.836 6.566-6.238-1.48.21-3.84 2.48-4.77 3.447-.08.084-.59 1.19-.33.328.66-.87 1.25-1.807 1.64-2.955-1.02 1.878-2.16 3.637-3.45 5.253.29-.99-.41-2.763.33-4.104-.38.498-.46 1.295-.66 1.97-.2-.19-.58-.186-.99-.164.83-4.093 1.52-8.33 5.74-9.03-1.2 1.405.17 4.018-.99 5.748zm-1.806-1.806c.264-.7 1.395-2.172 1.15-2.298-.336.628-1.427 2.14-1.15 2.298zm-.985 2.462c.12-.59.96-2.038.66-1.97-.26.446-.96 2.03-.65 1.97zm6.57-1.313c.2-.08.37-.17.49-.32-.22-.02-.9.26-.49.33z"/>
    <path d="M95.285 135.136c-.22-.375.577.762.492 1.313-.61.01-.473-.73-.492-1.32z"/>
    <path d="M87.897 144.165c2.456-1.758 4.383-5.466 7.06-7.55.016.42.61.263.82.49-2.152 3.813-4.465 7.465-9.03 8.866.652-3.43 2.59-6.16 4.76-8.37.633-.64 1.42-1.47 2.3-1.64.225.81-.695 1.59-1.15 2.14-1.548 1.86-3.268 4.04-4.76 6.08z"/>
    <path d="M97.42 136.12c.59.12.17 1.252.49 1.643.408-.195.004-1.2.658-1.15.07.783-.025 1.398-.492 1.643-.695-.236-.705-1.157-.657-2.135z"/>
    <path d="M102.343 136.286c.425.49.05 1.574-.164 1.97-.69-.026-.62-.807-.83-1.313.51-.075.52.35.49.82.44-.217.27-1.04.49-1.477z"/>
    <path d="M98.896 136.942c.425.177.61.593 1.15.657v1.14c.205-.56.63-.9.82-1.48.48.76-.073 1.89-.657 2.13-.91-.36-1.38-1.15-1.32-2.47z"/>
    <path d="M111.208 147.612c-.99-1.363-1.686-3.02-2.79-4.268 1.198.116 2.183 1.865 3.94 1.97-.093 1.426.418 2.683 0 3.94-5.325-1.68-7.844-6.164-9.52-11.49.476.638 1.1.045 1.148-.658 2.162 3.746 4.588 7.23 7.222 10.506z"/>
    <path d="M89.867 146.792c1.924-2.614 4.227-6.367 6.402-9.357.52.13.71.596 1.14.82-1.91 4.712-4.24 9-9.03 10.835-.1-1.307.14-2.27.33-3.283.92-.5 1.68-1.158 2.29-1.97.12.832-.79 2.05-1.15 2.955z"/>
    <path d="M95.285 152.373c1.447-2.9 2.556-7.65 3.61-11.49.14-.507.073-1.24.658-1.478-.12 6.94-1.07 13.046-5.253 15.923-.622-1.2-1.262-2.625-.985-3.94.373-1.77 3.158-2.954 3.283-4.76.047 1.744-.908 3.906-1.313 5.745z"/>
    <path d="M99.39 145.97c.416 2.812.13 6.326.49 9.194.384-2.572.056-5.855.165-8.7.617 2.392 1.49 4.53 2.79 6.238-.432 1.81-1.588 2.9-2.79 3.94-1.55-.64-2.17-2.207-3.12-3.447 1.35-1.88 1.88-4.58 2.464-7.224z"/>
    <path d="M96.27 135.957c-.217-.487.372.598.327.985.39-.103-.025-1.01.328-1.15.485.39-.198.996-.164 1.478-.42-.172-.53-.667-.49-1.313z"/>
    <path d="M106.447 146.135c1.173.36 2.306 2.18 3.776 2.79-.19 1.233-.392 2.454-.985 3.284-5.02-2.15-6.652-7.69-7.88-13.63.35-.33 1.115.59 1.15-.49 1.592 4.59 3.763 8.6 5.91 12.64-.255-1.28-1.322-3.17-1.97-4.6z"/>
    <path d="M93.643 145.807c-.062.925-1.006 2.385-1.477 3.447 1.812-2.404 3.13-5.354 4.596-8.208.454-.885.916-1.96 1.806-2.462-.57 5.83-2.868 11.358-7.715 13.46-.47-.91-.382-2.25-.328-3.282.903-1.12 2.265-1.784 3.118-2.955z"/>
    <path d="M103.657 147.448c.563.365.917 1.17 1.642 2.134.55.735 1.69 1.608 1.8 2.298.16 1.047-.77 1.744-.99 2.955-4.61-2.508-6.1-8.13-6.24-15.102.54-.007 1.16.067 1.15-.493.58 1.2.62 2.54.98 3.776.97 3.32 2.18 6.998 3.28 10.506-.05-1.874-1.06-4.194-1.65-6.074z"/>
  </g>
  <g class="ramones__stars">
    <path d="M91.673 31.39c.697.396.693 1.494 1.15 2.133h2.462c-.473.73-1.388 1.02-1.806 1.806.13.9.68 1.39.82 2.29-.72-.21-1.16-.71-1.81-.99-.78.31-1.34.85-1.81 1.47-.5-.44-.29-1.58-.33-2.47-.6-.5-1.26-.93-1.97-1.32.67-.26 1.61-.25 2.46-.33.37-.78.72-1.58.82-2.63z"/>
    <path d="M83.137 32.866c.533.725 1.11 1.408 1.477 2.298.73-.2 1.437-.424 2.298-.492-.257.837-.903 1.286-1.313 1.97.13.902.84 1.232.98 2.134-.72-.214-1.45-.41-1.97-.82-.87.39-.98 1.54-1.97 1.805.12-.89-.26-1.27-.17-2.13-.41-.63-1.22-.86-1.97-1.15.48-.56 1.54-.53 2.29-.82 0-1.03.32-1.75.33-2.79z"/>
    <path d="M117.282 33.03c.252.624.273 1.478.328 2.298.594.39 1.486.484 2.298.657-.553.596-1.51.787-2.298 1.15v2.46c-.616-.423-.914-1.164-1.313-1.805-.85.3-1.6.7-2.462.985.32-.774.81-1.38 1.15-2.134-.277-.92-1.038-1.37-1.314-2.29.65.34 1.56.41 2.14.82.68-.52.99-1.42 1.48-2.13z"/>
    <path d="M125.49 35.493c.5.673-.135 1.61 0 2.462.59.45 1.433.645 2.297.82-.446.76-1.806.603-2.463 1.15.023.898-.116 1.635-.328 2.298-.492-.547-.83-1.248-1.15-1.97-.91.13-1.614.464-2.46.657.416-.733.902-1.396 1.476-1.97-.385-.764-.917-1.38-1.15-2.298.708.278 1.45.52 2.135.82.533-.67 1.258-1.15 1.642-1.97z"/>
    <path d="M74.765 35.657c.8.46 1.2 1.318 1.806 1.97.79-.307 1.61-.583 2.47-.82-.36.785-.95 1.347-1.31 2.133.39.71.82 1.37 1.32 1.97-.55.433-1.21-.424-1.97-.328-.85.294-1.03 1.26-1.47 1.97-.48-.607-.54-1.643-.82-2.462-.63-.294-1.43-.427-2.13-.657.59-.453 1.3-.782 2.14-.985v-2.79z"/>
    <path d="M133.37 39.104c.35.685-.27 1.807-.33 2.626.518.576 1.343.846 2.134 1.15-.576.408-1.672.297-2.298.656-.45.59-.645 1.434-.82 2.298-.55-.49-.673-1.408-.986-2.134-.717.213-1.53.33-2.462.328.418-.676 1-1.19 1.477-1.806.035-1.02-.547-1.423-.657-2.298.83.154 1.24.73 1.97.985.886-.38 1.36-1.16 1.97-1.81z"/>
    <path d="M67.05 39.268c.663.54 1.27 1.138 1.97 1.642.74-.3 1.563-.516 2.134-.985.23.62-.57 1.614-.82 2.298.318.83 1.048 1.25 1.64 1.806-.493.32-1.53-.22-2.297-.17-.475.67-.858 1.44-1.15 2.3-.57-.64-.692-1.72-1.148-2.46-.83.05-1.15-.39-1.97-.33.47-.56 1.17-.9 1.97-1.15.05-1.15-.22-1.98-.33-2.96z"/>
    <path d="M140.428 43.865c.58.258-.395 1.64-.493 2.298.64.564 1.284 1.123 2.134 1.477-.68.252-1.56.3-2.47.328-.48.674-.86 1.44-1.15 2.298-.35-.64-.56-1.408-.66-2.298h-2.3c.42-.677 1.11-1.073 1.64-1.64.02-.956-.44-1.428-.5-2.3.77.265 1.2.874 1.8 1.314.78-.37 1.43-.868 1.97-1.477z"/>
    <path d="M59.827 44.03c.73.363 1.34.847 1.97 1.312.927-.276 1.37-1.037 2.298-1.313-.355.79-.55 1.74-.82 2.62.617.53 1.275 1.02 1.97 1.47-.482.36-1.42-.22-2.3 0-.448.59-.644 1.43-.82 2.3-1.043-.93-1.386-2.56-3.61-2.3.538-.56 1.307-.88 1.805-1.48-.048-1-.418-1.67-.493-2.63z"/>
    <path d="M51.126 55.028c.378.442.058 1.583.164 2.298.514.635 1.51.788 2.298 1.15-.473.565-1.8.28-2.462.656.11.985-.15 1.602-.164 2.462-.786-.418-1.075-1.333-1.806-1.806-.696.125-1.438.204-2.134.328.418-.676 1-1.19 1.477-1.806-.19-1.014-.95-1.467-1.15-2.462.82.215 1.57.5 2.29.82.49-.547 1.02-1.06 1.48-1.64z"/>
    <path d="M46.037 61.43c.252.624.273 1.478.328 2.298.54.553 1.504.684 2.298.985-.538.502-1.61.47-2.298.82.04.89.263 1.6.164 2.628-.74-.47-1.32-1.09-1.97-1.64-.61.22-1.26.39-1.97.49.21-.72.7-1.15.98-1.8-.21-.94-.78-1.51-1.32-2.13.57-.35 1.67.19 2.3.33.59-.56.98-1.31 1.47-1.97z"/>
    <path d="M158.814 68.16c.6.66.822 1.695 1.313 2.462.808-.177 1.53-.44 2.462-.492-.55.663-1.14 1.27-1.65 1.97.23.695.46 1.393.82 1.97-.8.262-1.26-.738-2.14-.657-.84.08-1.28 1.06-1.97 1.477-.21-.486.26-1.707.49-2.298-.56-.652-1.57-.843-2.3-1.313.62-.26 1.33-.42 2.13-.5.6-.55.64-1.65.82-2.63z"/>
    <path d="M41.605 68.653c.457.583.378 1.702.657 2.463.95-.02 1.55.31 2.462.328-.6.495-1.443.746-2.134 1.15.186.852.33 1.75.493 2.626-.746-.403-1.412-.886-2.134-1.313-.85.085-1.32.543-2.14.657.4-.69.65-1.534 1.15-2.134-.55-.71-1.18-1.337-1.97-1.806.76-.606 1.52.183 2.13 0 .9-.272.91-1.168 1.47-1.97z"/>
    <path d="M38.158 76.04c.383.766.816 1.482.985 2.463 1.002-.127 1.536.215 2.462.164-.49.494-1.123.846-1.806 1.15.06 1.08.43 1.86.65 2.79-.69-.403-1.54-.654-2.14-1.15-.79.256-1.28.807-2.14.986.25-.73.46-1.507.65-2.298-.59-.618-1.33-1.084-1.97-1.642.44-.378 1.58-.058 2.3-.164.57-.53.7-1.49.98-2.3z"/>
    <path d="M164.723 83.755c.594.5.377 1.81.656 2.626 1.05-.12 1.61.25 2.62.17-.62.53-1.38.92-2.14 1.32.02.91.35 1.51.33 2.46-.66-.48-1.31-.99-1.97-1.47-.91.14-1.51.58-2.14.99-.23-.51.66-1.3.82-1.97-.35-.74-.86-1.33-1.48-1.81.49-.37 1.62.02 2.13.17.62-.57.91-1.49 1.15-2.46z"/>
    <path d="M35.695 84.083c.495.708.916 1.492 1.313 2.298.694-.18 1.562-.18 2.462-.16-.364.73-1.277.91-1.642 1.64.152 1 .763 1.54.985 2.46-.787-.3-1.606-.58-2.462-.82-.7.23-1.17.69-1.64 1.15-.44-.61.33-1.41.17-2.3-.55-.65-1.44-.96-2.13-1.47.55-.38 1.69-.17 2.3-.49.32-.67.49-1.48.66-2.3z"/>
    <path d="M166.365 91.963c.38.497.058 1.693.164 2.463.47.566 1.79.28 2.46.657-.68.475-1.44.858-2.3 1.15.16.658.2 1.44.16 2.297-.81-.284-1.12-1.072-1.81-1.477-.98.01-1.55.427-2.46.492.48-.615.9-1.28 1.47-1.806-.35-.86-1.17-1.25-1.48-2.14.61.26 1.47.27 2.13.49.77-.48 1.18-1.34 1.64-2.14z"/>
    <path d="M34.382 92.29c.494.602.93 1.26 1.313 1.97 1.095.11 1.652-.317 2.627-.327-.45.7-1.192 1.106-1.642 1.806.487.6.784 1.4 1.313 1.97-.64.46-1.47-.28-2.298-.17-.774.26-1.14.94-1.642 1.47-.303-.42-.23-1.87 0-2.3-.674-.53-1.563-.85-2.462-1.15.66-.44 1.66-.53 2.47-.82-.04-.98.25-1.61.33-2.47z"/>
    <path d="M34.054 100.663c.494.655 1.147 1.15 1.642 1.806.95-.04 1.392-.58 2.298-.66-.364.73-.848 1.34-1.313 1.97.44.71 1.15 1.15 1.48 1.97-.86.03-1.64-.01-2.3-.17-.53.51-.92 1.15-1.31 1.8-.25-.63-.27-1.48-.33-2.3-.58-.63-1.72-.69-2.62-.99.68-.53 1.74-.67 2.46-1.15v-2.3z"/>
    <path d="M166.2 108.707c.305.584-.387 1.577-.327 2.463.674.475 1.44.858 2.298 1.15-.54.495-1.79.28-2.46.656-.49.494-.46 1.508-.65 2.298-.45-.645-.91-1.27-1.15-2.134h-2.62c.37-.674 1.14-.944 1.64-1.477-.13-.855-.42-1.552-.82-2.134.67-.34 1.45.62 2.14.82.7-.51 1.37-1.04 1.97-1.65z"/>
    <path d="M160.29 116.915c.682.468 1.453.846 2.135 1.313.816-.278 1.315-.874 1.97-1.313.21.543-.386 1.69-.657 2.298.586.618 1.383 1.025 2.134 1.477-.673.257-1.61.25-2.463.328-.38.614-.54 1.433-.83 2.134-.41-.582-.69-1.28-.82-2.134-.79-.198-1.75-.223-2.63-.328.49-.495 1.04-.927 1.8-1.15-.03-1.068-.47-1.72-.66-2.625z"/>
    <path d="M157.664 124.466c.894.31 1.33 1.078 2.134 1.477.698-.342 1.393-.687 1.97-1.15.25.638-.687 1.5-.985 2.135.38.88 1.237 1.28 1.97 1.806-.497.38-1.693.058-2.462.164-.39.532-.7 1.16-.98 1.806-.52-.354-.46-1.287-.65-1.97-.48-.665-1.68-.614-2.62-.82.5-.6 1.55-.638 2.14-1.15-.29-.633-.26-1.596-.49-2.298z"/>
    <path d="M154.053 131.525c.705-.154 1.397 1.118 1.97 1.642.68-.36 1.49-.59 2.298-.82-.33.76-.91 1.274-1.31 1.97.31.95 1.01 1.51 1.64 2.133-.49.217-1.71-.25-2.46-.328-.55.546-.98 1.202-1.31 1.97-.4-.525-.28-1.575-.49-2.298-.42-.782-1.89-.518-2.29-1.313.83-.1 1.45-.41 2.14-.65-.1-.71.22-1.85-.16-2.3z"/>
    <path d="M46.53 131.525c.404.522.075 1.71 0 2.298.54.553 1.504.684 2.298.985-.605.544-1.552.747-2.298 1.15.074.894-.293 1.348-.164 2.297-.66-.543-.923-1.485-1.477-2.134-.87.18-1.67.42-2.63.5.45-.69.94-1.35 1.47-1.97-.44-.66-.82-1.37-1.15-2.13.7.28 1.45.52 2.13.82.91-.28 1.16-1.24 1.8-1.8z"/>
    <path d="M50.962 138.09c.708.113.15 1.49.328 2.135.498.596 1.69.497 2.462.82-.733.472-1.392 1.017-2.298 1.314v2.46c-.68-.47-.96-1.34-1.477-1.97-.855.29-1.633.66-2.627.82.42-.62.76-1.32 1.15-1.97-.218-.88-.866-1.33-1.314-1.97.41-.19 1.735.12 2.298.33.7-.45 1.04-1.26 1.478-1.97z"/>
    <path d="M144.532 143.673c.532.617.917 1.38 1.313 2.134h2.462c-.307.904-1.845.93-1.97 1.642-.07.4 1.14 1.6 1.313 2.13-.705.37-1.5-.58-2.298-.66-.693.29-1.155.81-1.642 1.31-.288-.41.043-1.6.164-2.14-.477-.84-1.713-.92-2.134-1.81 2.38.57 2.736-.88 2.792-2.63z"/>
    <path d="M138.622 148.926c.714.435.82 1.478 1.15 2.298.948-.128 1.402.238 2.297.164-.56.59-1.32.984-1.97 1.477.34.748.56 1.628.98 2.298-.7.254-1.46-.84-2.3-.985-.8.24-1.13.95-1.97 1.15.24-.688.25-1.61.65-2.135-.5-.76-1.33-1.193-1.97-1.806.56-.496 1.41.117 2.13 0 .63-.52.75-1.544.98-2.46z"/>
    <path d="M132.22 153.194c.488.66.568 1.73.82 2.627.9-.02 1.563.19 2.3.33-.6.5-1.444.75-2.135 1.15.172.92.28 1.91.492 2.79-.693-.45-1.245-1.05-1.97-1.47-.872.12-1.325.65-2.134.82.317-.66.444-1.52.82-2.13-.38-.82-1.074-1.33-1.64-1.97.443-.27 1.493.25 2.133.33.634-.63.954-1.56 1.314-2.46z"/>
    <path d="M68.527 153.358c.473.676.707 1.59 1.15 2.298.873-.057 1.588-.272 2.46-.33-.48.723-1.007 1.4-1.64 1.97.313.78.715 1.474.984 2.3-.77-.32-1.38-.81-2.13-1.15-.83.32-1.25 1.05-1.8 1.642-.45-.57.01-1.624 0-2.298-.49-.603-1.31-.88-1.97-1.313.64-.29 1.47-.39 2.3-.492.28-.82.5-1.695.66-2.627z"/>
    <path d="M75.586 156.97c.415.68.91 1.277 1.15 2.133.986-.107 1.7-.49 2.626-.657-.365.785-.845 1.454-1.313 2.134.36.73.85 1.33 1.14 2.134-.86-.242-1.57-.617-2.3-.985-.73.53-.99 1.53-1.81 1.97v-2.3c-.52-.52-1.34-.74-2.14-.99.52-.46 1.29-.68 2.13-.82.32-.72.36-1.72.49-2.63z"/>
    <path d="M125.16 156.97c.32.61.446 1.415.493 2.297.607.487 1.643.546 2.463.82-.603.492-1.464.726-2.298.986v2.627c-.67-.533-1.272-1.135-1.806-1.806-.724.26-1.37.6-2.134.82.23-.863.74-1.448.985-2.297-.347-.802-1.053-1.245-1.313-2.134.623.252 1.276.475 1.97.656.914-.29 1.048-1.36 1.64-1.97z"/>
    <path d="M82.973 159.596c.517.632 1.1 1.2 1.477 1.97.706-.388 1.696-.493 2.298-.985.265.6-.633 1.45-.82 2.14.182 1.02 1.066 1.34 1.312 2.3-.796-.24-1.544-.53-2.462-.65-.6.55-.675 1.63-1.477 1.97.01-.88-.25-1.49-.32-2.3-.56-.37-1.33-.52-2.13-.65.52-.57 1.35-.84 2.14-1.15v-2.63z"/>
    <path d="M117.774 159.596c.352.578.344 1.516.328 2.462.557.482 1.364.715 2.134.985-.494.49-1.508.462-2.298.657-.17.87-.32 1.76-.328 2.79-.59-.668-1.09-1.426-1.642-2.133-.663.212-1.302.45-2.134.493.453-.642.777-1.41 1.313-1.97-.313-.836-.878-1.42-1.15-2.298.74.3 1.564.516 2.135.985.57-.635 1.197-1.213 1.642-1.97z"/>
    <path d="M90.524 161.402c.922.227.99 1.308 1.806 1.642.657-.493 1.598-.7 2.134-1.313.308.59-.29 1.68-.492 2.3.32.83 1.05 1.25 1.642 1.81-.614.39-1.684-.17-2.463-.16-.47.68-.85 1.44-1.14 2.3-.59-.5-.49-1.69-.82-2.46-.8-.07-1.53-.22-2.3-.33.53-.62 1.38-.92 1.97-1.47-.29-.58-.03-1.72-.33-2.3z"/>
    <path d="M110.06 161.402c.378.496.057 1.693.163 2.462.586.454 1.176.903 1.97 1.15-.447.482-1.613.246-2.298.49-.485.555-.516 1.565-.657 2.463-.637-.513-1.015-1.283-1.313-2.134-.895-.074-1.35.293-2.298.164.297-.797 1.016-1.173 1.477-1.806-.284-.7-.45-1.52-.82-2.13.478-.2 1.39.58 1.805.99.89-.3 1.21-1.19 1.97-1.64z"/>
    <path d="M98.896 35c-.6-.603-1.273-1.135-1.97-1.642.443-.378 1.583-.058 2.298-.164.536-.613.583-1.715.985-2.462.37.716.65 1.54.82 2.462h2.62c-.57.688-1.46 1.063-1.97 1.806-.03.954.43 1.427.49 2.298-.58-.518-1.35-.84-1.81-1.477-.76.4-1.31.99-1.97 1.48-.15-.42.4-1.56.49-2.3z"/>
    <path d="M108.253 36.314c-.684.355-1.363.716-1.97 1.15-.25-.53.432-1.534.657-2.135-.47-.79-1.096-1.43-1.806-1.97.583-.36 1.53.32 2.462.16.635-.52.788-1.51 1.15-2.3.49.6.485 1.7.656 2.62.927-.05 1.46.29 2.463.16-.523.68-1.42.99-2.134 1.47.03.9.08 1.78.33 2.46-.61.12-1.11-1.3-1.8-1.64z"/>
    <path d="M147.322 49.282c.147.643-.687 1.717-.985 2.462.633.46 1.008 1.18 1.806 1.477-.497.38-1.693.06-2.462.17-.64.51-.61 1.69-1.47 1.97.04-.86 0-1.64-.16-2.3-.92.05-1.46-.29-2.46-.16.59-.62 1.39-1.02 2.14-1.47-.23-.75-.28-1.68-.49-2.46.68.53 1.22 1.19 1.97 1.65.8-.35 1.49-.81 2.13-1.31z"/>
    <path d="M53.096 49.61c.58-.14 1.524.77 2.298.985.76-.336 1.242-.947 1.806-1.477.42.592-.194 1.552-.164 2.298.262.887 1.306.992 1.97 1.477-.454.367-1.3.34-2.134.33-.596.442-.47 1.608-.657 2.46-.666-.537-1.098-1.31-1.642-1.97h-1.97c.394-.645 1.083-.995 1.477-1.64-.292-.857-.51-1.786-.984-2.463z"/>
    <path d="M153.396 55.52c.013.51-.888 1.517-1.313 2.134.295.854.99 1.307 1.477 1.97-.43.205-1.66-.195-2.298-.328-.618.585-1.084 1.323-1.642 1.97-.503-.62.204-1.43 0-2.298-.63-.354-1.56-.41-2.463-.492.518-.576 1.343-.846 2.134-1.15v-2.79c.56.702 1.15 1.367 1.65 2.134.78-.432 1.78-.637 2.47-1.15z"/>
    <path d="M158.32 62.415c.082.63-.957 1.556-1.312 2.298.298.687.615 1.355 1.15 1.806-.575.34-1.492-.37-2.135-.5-.885.37-1.358 1.16-1.97 1.8-.323-.5.214-1.53.164-2.3-.51-.59-1.57-.62-2.298-.99.53-.51 1.55-.52 2.29-.82.3-.74.07-2.14.33-2.47.58.57.93 1.36 1.47 1.97.85-.19 1.61-.48 2.3-.82z"/>
    <path d="M160.947 80.144c-.362-.842-1.216-1.192-1.97-1.642.515-.415 1.916.056 2.462-.33.64-.504.36-1.93 1.14-2.297.08.904.5 1.463.65 2.298h2.62c-.57.688-1.46 1.063-1.97 1.806.16.76.49 1.36.65 2.13-.75-.29-1.45-.63-1.97-1.15-.77.43-1.7.71-2.3 1.31-.19-.47.47-1.49.65-2.14z"/>
    <path d="M164.067 103.618c-.494-.6-.716-1.473-1.313-1.97.602-.27 1.592.483 2.298.657.69-.513 1.135-1.273 1.642-1.97.507.68-.186 1.56 0 2.462.613.536 1.714.584 2.462.985-.716.378-1.54.65-2.462.82-.07.752-.25 1.393-.164 2.3-.87-.28-1.046-1.253-1.642-1.807-.596.334-1.712.148-2.298.493-.187-.682 1.138-1.265 1.477-1.97z"/>
    <path d="M38.65 109.364c.146.48-.608 1.467-.82 2.134.404.8 1.017 1.39 1.64 1.97-.44.378-1.582.058-2.297.164-.705.39-.603 1.585-1.477 1.806.01-.885-.256-1.496-.328-2.298-.91-.02-1.51-.35-2.462-.328.396-.698 1.158-1.03 1.97-1.313.05-.93-.29-1.46-.164-2.47.676.42 1.19 1 1.806 1.47.69-.41 1.533-.66 2.132-1.15z"/>
    <path d="M40.456 117.08c.187.52-.59 1.483-.657 2.297.4.744 1.29 1.007 1.97 1.477-.56.432-1.6.373-2.3.657-.59.46-.71 1.37-.99 2.14-.51-.53-.52-1.56-.82-2.3-.7-.28-1.85-.12-2.79-.16.43-.71 1.25-1.05 1.8-1.64 0-.93-.42-1.44-.33-2.46.59.56 1.44.86 1.97 1.48.7-.5 1.49-.92 2.13-1.48z"/>
    <path d="M43.082 124.466c.095.375-.213 1.753-.493 2.298.52.62 1.36.938 2.13 1.313-.58.574-1.82.48-2.46.985.05.87-.29 1.357-.33 2.134-.48-.676-.71-1.59-1.15-2.298-1.05-.114-1.58.278-2.63.164.52-.624 1.02-1.277 1.8-1.642-.3-.85-.74-1.56-.99-2.463.69.403 1.53.654 2.13 1.15.73-.47 1.31-1.092 1.97-1.64z"/>
    <path d="M151.262 142.852c-.768.272-1.05 1.03-1.477 1.642-.255-.62-.32-1.43-.328-2.298-.496-.653-1.542-.756-2.134-1.313.595-.335 1.624-.236 2.298-.492v-2.62c.83.44 1.05 1.47 1.81 1.97.89.02 1.37-.38 2.3-.33-.57.59-.98 1.32-1.64 1.81.47.85 1.09 1.54 1.64 2.3-.51.13-1.68-.5-2.46-.65z"/>
    <path d="M54.245 147.612c-.478-.616-1.026-1.163-1.64-1.642.577-.407 1.515.23 2.46 0 .416-.68.912-1.277 1.15-2.134.47.623.228 1.96.657 2.626.858-.037 1.64.003 2.298.164-.508.64-1.237 1.06-1.97 1.477.073.803.338 1.413.328 2.298-.81-.28-1.116-1.07-1.806-1.47-.858.29-1.624.68-2.298 1.15-.12-.56.52-1.77.82-2.46z"/>
    <path d="M62.29 154.015c-1 .26-1.33 1.188-2.3 1.477.248-.683.343-1.52.493-2.298-.295-.745-1.074-1.006-1.642-1.477.32-.56 1.51-.247 2.3-.328.65-.51.37-1.94 1.15-2.3-.01.94.47 1.39.5 2.3h2.63c-.5.75-1.3 1.21-1.8 1.97.35.52.3 1.45.66 1.97-.57.13-1.38-.92-1.97-1.32z"/>
    <path d="M98.403 162.222c.575-.132 1.378.917 1.97 1.313.743-.46 1.273-1.135 2.134-1.477-.297.634-.264 1.596-.493 2.298.344.805 1.22 1.078 1.806 1.642-.42.303-1.865.23-2.298 0-.52.684-.67 1.738-.985 2.627-.513-.69-.718-1.69-1.15-2.463h-1.805c-.34-.73 1.123-.91 1.313-1.642-.047-.882-.17-1.688-.492-2.298z"/>
  </g>
  <path d="M100.12 2.666c-53.368 0-96.63 43.263-96.63 96.63 0 53.37 43.262 96.632 96.63 96.632 53.368 0 96.63-43.263 96.63-96.63 0-53.37-43.262-96.632-96.63-96.632zm0 190.368c-51.77 0-93.737-41.968-93.737-93.737 0-51.77 41.968-93.737 93.737-93.737 51.77 0 93.737 41.968 93.737 93.737 0 51.77-41.968 93.737-93.737 93.737z"/>
</svg>
