<!--
  SVG Music Logos
  Counting Crows - August and Everything After v1.0.0
  https://github.com/tiagoporto/svg-music-logos
  Copyright (c) 2016 Tiago Porto (http://tiagoporto.com)
-->
<svg xmlns="http://www.w3.org/2000/svg" viewBox="0 0 200 111.384">
  <path d="M197.848 99.098c-.997.084-1.996-.098-2.97-.312-.75-.368-1.49-.764-2.25-1.11l-.014-.4c1.178-.596 1.982-1.658 2.98-2.485.658-.896.958-2.007 1.238-3.073.12-2.113-.056-4.24.15-6.35.113-1.18.052-2.36.055-3.538-.282-1.322.02-2.728-.52-4-.348.02-.88-.13-1.02.302-.23.638-.802 1.023-1.19 1.545-.986 1.21-2.2 2.2-3.173 3.418-.424.536-.55 1.237-.95 1.784-.4.384-.903.686-1.444.823-.883.256-1.635.918-2.58.964-.548.056-1.066.294-1.62.308-1.107.025-2.218.196-3.315.004-.22-.036-.343-.253-.482-.397-.427-.56-.827-1.157-1.072-1.816-.122-.68-.145-1.448-.584-2.005-.273-.382-.754-.263-1.15-.273-.273.56-.678 1.082-.68 1.738-.117.498.17.953.213 1.444.278 1.29.11 2.653-.318 3.894-.12.435-.032.92-.217 1.34-.538.647-.468 1.54-.76 2.298-.59 1.44-1.696 2.63-3.03 3.414-.62.47-1.268.908-1.97 1.248-.924.112-1.87.28-2.768-.077-.223-.705-.652-1.466-.314-2.202.137-.813.652-1.48.747-2.296.42-.638.413-1.44.845-2.065.435-.77.626-1.672 1.12-2.415.67-.63.99-1.504 1.38-2.314.36-.648.456-1.402.82-2.05.35-.683-.245-1.304-.422-1.938-.067-.354-.444-.596-.778-.427-.398.287-.46.82-.7 1.223-.38.918-1.088 1.654-1.445 2.583-.167.356-.436.654-.6 1.012-.32.64-.318 1.38-.51 2.058-.284.687-.402 1.448-.836 2.068-.207.344-.55.645-.55 1.08-.047.302.002.65-.21.9-.5.632-.882 1.347-1.384 1.982-.36.435-.512.992-.756 1.493-.704.943-1.48 1.847-2.403 2.58-.668.095-1.35.75-2.01.305-.77-.375-1.472-.978-1.764-1.802.088-1.34.565-2.618 1.218-3.778.7-1.384 1.546-2.692 2.182-4.11.757-.96 1.667-1.876 2.033-3.072.064-.52.03-1.04.025-1.56-.017-.613-.398-1.164-.33-1.78.017-.264-.078-.513-.148-.758-1.232-.172-2.397-.733-3.663-.67-.708-.045-1.392.155-2.094.19-.575.025-1.118.46-1.698.217-.876-.235-1.775.11-2.652-.063-1.51-.137-3.01.196-4.446.62-.91.267-1.846-.097-2.767.025-.543.137-1.05.42-1.614.46-.71.07-1.42.136-2.11.304-.59.17-1.16-.132-1.748-.125-.747-.238-1.448-.6-2.16-.922-1.164-.266-2.316-.603-3.485-.855-.39.01-.773.13-1.146.238-.645.26-.756 1.097-1.397 1.346-.678.266-1.35.55-1.977.915-.36.312-.776.533-1.206.722-1.33.76-2.71 1.534-3.69 2.743-.185.235-.496.266-.758.357-.18.386-.347.82-.715 1.062-.283.15-.584.266-.868.414-.778.427-1.688.435-2.533.634-.43.2-.835.515-1.012.968-.31.785-.3 1.69-.83 2.383-.38.734-.64 1.547-1.21 2.17-.792.832-1.722 1.522-2.68 2.143-.86.28-1.596 1.206-2.574.9-.335.225-.617.55-1.016.653-.263-.024-.38-.294-.473-.5-.252-.604-.646-1.15-.787-1.796-.237-1.258.102-2.562.796-3.624.266-.73.648-1.416.917-2.148.123-.56.53-.992.72-1.525.22-.57.47-1.13.73-1.68.427-.9.59-1.892.846-2.842.53-1.24.57-2.673.233-3.97-.355-.515-.675-1.048-.996-1.584-.466-.45-.973-.86-1.52-1.202-.527-.456-1.05-.94-1.715-1.188-.59-.228-1.13-.75-1.808-.613-.505.007-1.057.14-1.325.61-.35.624-.66 1.276-.94 1.935-.304.69-.374 1.47-.786 2.114-.24.364-.043.84-.228 1.227-.46 1.103-.946 2.207-1.61 3.202-.07.848-.456 1.61-.91 2.314-.746 1.812-1.613 3.628-3 5.044-.827.757-2.03 1.023-2.714 1.952-.018.16-.018.326 0 .49.442.043.95.18 1.33-.13.84-.58 1.824-.91 2.617-1.562 1.204-.995 2.49-2.02 3.083-3.516.607-1.24 1.292-2.443 1.965-3.652.145-.273.37-.487.596-.698.644-.796.95-1.8 1.538-2.636.077-.473-.205-1.216.403-1.416.646.025 1.23.29 1.69.74.967.494 1.472 1.62 1.47 2.667-.33 1.762-.95 3.462-1.58 5.134-.57 1.493-1.258 2.965-1.547 4.55-.337 1.893.62 3.75 1.912 5.08.477.63 1.283.963 2.066.872.94-.018 1.53-.838 2.204-1.367.603-.404 1.043-1 1.65-1.396.903-.638 1.83-1.272 2.54-2.13.74-.684 1.16-1.61 1.616-2.486.782.256 1.68-.413 2.35.19.694.508.34 1.45.454 2.173.128.685-.088 1.365-.044 2.048.145.73.317 1.51.873 2.054 1.136 1.122 2.06 2.44 3.14 3.61.898.56 1.772 1.328 2.873 1.398.384.077.738.288 1.143.273.553-.028 1.035.27 1.518.5.827.316 1.514.926 2.384 1.154 2.07.694 4.28.256 6.362-.144 1.517-.58 2.245-2.152 3.46-3.127.924-1.006 1.84-2.02 2.707-3.077.525-.608.734-1.4 1.133-2.08.314-.866.417-1.83.926-2.618.358-.568.908-1.062.99-1.767.217-1.013-.3-1.963-.57-2.906-.03-.734.474-1.333.945-1.838.41-.61.76-1.265 1.15-1.893.492-.836.754-1.873 1.567-2.47 1.067-.06 2.02-.697 3.104-.644.238 0 .354.23.5.382.114-.112.23-.22.35-.333.62.196 1.338.19 1.865.613.192.182.056.428 0 .638-.356 1.146-.928 2.212-1.366 3.326-.29.49-.585.988-.69 1.556-.08.49-.634.79-.58 1.307.052.782-.258 1.51-.443 2.254-.057.595.104 1.18.157 1.772-.016 1.33-.068 2.66-.018 3.99.195.724.688 1.327 1.084 1.958.387.357.748.743 1.118 1.122.895.53 1.993.235 2.946.046.456-.33.81-.8 1.283-1.115.51-.848 1.287-1.483 1.808-2.32-.044-.207-.086-.414-.126-.62.403-.308.778-.65 1.155-.992.233.373.542.71.66 1.144.166.753.867 1.178 1.226 1.826 1.057.452 2.29.705 3.39.228.584-.3 1.325.056 1.83-.413 1.138-.764 2.1-1.787 2.88-2.91.537-.45.827-1.1 1.263-1.636.422-.513.613-1.16.776-1.796.11-.403-.016-.855.205-1.23.277-.522.463-1.086.585-1.66-.11-.78-.027-1.585.243-2.32.137-.44.198-.937.557-1.263.87.67 1.956.85 2.988 1.115 1.318.046 2.636.098 3.952.053.69-.168 1.325-.508 2.003-.715.995-.677 2.278-.946 3.07-1.907.553-.687 1.128-1.353 1.66-2.057.234-.246.612-.124.842.07.482.556.398 1.35.282 2.02-.23 1.042.078 2.13-.22 3.16-.194.595 0 1.408-.635 1.783-.598.368-.827 1.104-1.44 1.444-.912.438-1.715 1.293-2.812 1.142-.992-.018-1.51-1.25-2.543-1.017-.075.403-.154.83.007 1.224.466 1.507 1.556 2.737 2.88 3.56 1.045.586 2.125 1.115 3.238 1.574.88.45 1.888.537 2.857.66.692-.028 1.514.05 2.035-.508.12-.136.292-.444.01-.504zm-69.288-12.66c.333-.372.73-.676 1.113-.992.67-.326 1.416-.47 2.142-.607.322.062.63.192.934.318-.227.522-.826.66-1.18 1.066-.528.655-1.343.94-2.035 1.377-.65.247-1.236-.58-.975-1.162zm18.134 11.693c-.373.38-.778.748-1.024 1.23-.45.91-1.41 1.382-2.1 2.08-.358.448-.888.77-1.047 1.352-.277.32-.677.536-.917.904-1.17-.137-2.196.593-3.347.65-1.422.023-2.866.076-4.247-.3-.47-.27-.983-.38-1.52-.37-1.053-.817-2.537-.855-3.457-1.875-.384-.5-1.03-.672-1.44-1.135-.846-1.86-1.312-3.92-1.09-5.962.39-.06.82-.148 1.173.098.844.5 1.795.755 2.684 1.165.708.337 1.45.677 2.255.624 1.415.297 2.836.57 4.25.89.625.136 1.27.055 1.895-.057 1.63-.095 3.223-.575 4.72-1.22.548-.214 1.116-.375 1.688-.515.57.08 1.297-.025 1.684.5.5.555.305 1.435-.163 1.943zm16.81 2.462c-.475.427-.945.918-1.572 1.108.086-.782 1.002-1.136 1.642-1.43l-.07.322z"/>
  <path d="M77.52 35.18c.224-.01.522-.123.702.063.463.725.713 1.55.944 2.37-.112.654-.487 1.243-.54 1.913-.096.757-.17 1.514-.23 2.27.085 1.14 1.02 1.89 1.624 2.77.284.41.72.666 1.17.87.463-.225.893-.59 1.037-1.1.138-1.15.72-2.2.832-3.352-.062-.806-.05-1.64.232-2.408.177-.494.256-1.052.63-1.448.785-.838 1.45-1.78 2.102-2.723.34-.41.745-.768 1.18-1.073.474-.088.94-.19 1.39-.364.676.102.96.827 1.128 1.406.277 1.058.576 2.138.494 3.242.12 1.076.19 2.162.458 3.218.052 1.125.755 2.06 1.35 2.97.765.798 1.37 1.9 2.53 2.165.894.356 1.633-.407 2.258-.937 1.406-1.052 2.308-2.618 3.68-3.708.328-.764.887-1.4 1.195-2.173.083-.266.32-.403.557-.522 1.09 1.388 2.026 3.007 3.6 3.905 1.312.7 3.13.813 4.265-.277.44-.473 1.035-.817 1.305-1.43.2-.43.72-.568.953-.97.245-.383.472-.807.87-1.053.865-.46 1.36-1.35 1.892-2.127.16-.22.422-.55.715-.323.463.63.636 1.423.94 2.138.304 1.244 1.338 2.086 2.05 3.095.31.498.872.733 1.268 1.146.298.51.62 1.006.866 1.542.404.046.81.098 1.217.147.443-.084.792-.414 1.113-.715.19-.295.55-.568.452-.96-.074-.533-.242-1.062-.514-1.528-.25-.238-.564-.39-.86-.557.413-.985.97-1.91 1.428-2.877.58-.81 1.143-1.67 1.372-2.646.114-.694.764-1.122.934-1.798.63-1.29 1.07-2.685 1.93-3.852.385-.364.798-.697 1.154-1.093.315-.31.634-.698 1.114-.72.366.804.2 1.697.296 2.545.07.57-.132 1.15-.013 1.72.377 1.333-.322 2.774.265 4.07.356.593.836 1.125 1.423 1.497.173-.285.38-.562.455-.895.067-.54-.058-1.1.114-1.63.222-.915.863-1.644 1.227-2.5.372-.928.878-1.79 1.35-2.666.345-.846.772-1.652 1.3-2.395.192-.662.567-1.28 1.208-1.59.915.164 1.677.78 2.22 1.513.376.483.462 1.114.767 1.637.496.83.557 1.823.827 2.734.344 1.023.784 2.025 1.403 2.912.512.6.922 1.41 1.716 1.665.544.182.998-.526 1.504-.25.275.327.452.73.762 1.035.393.4.51.967.83 1.42.367.515.614 1.104.912 1.665.525.894 1.183 1.7 1.82 2.516.98.968 2.295 1.458 3.585 1.872.655.175 1.218.6 1.905.68.254.463.214 1.013.004 1.49-.458 1.03-.796 2.114-1.134 3.193-.128.417-.362.79-.636 1.13-.226 1.285-.8 2.477-1.294 3.676-.48 1.027-.66 2.166-1.15 3.19-.186.554-.377 1.108-.63 1.633-.97 2.737-2.386 5.303-4.082 7.655-.293.45-.748.782-.943 1.297-.72 1.23-1.75 2.232-2.572 3.388-.218.323-.58.487-.86.743-.922 1.203-1.793 2.514-3.102 3.338-.694.526-1.535.792-2.285 1.227-2.213.733-4.626-.36-6.102-2.04-.626-.67-.786-1.612-.875-2.49.12-.535.15-1.078.15-1.625.194-1.086.64-2.107 1.068-3.12.312-.325.56-.686.63-1.145.108-.757 1.196-.648 1.345-1.37.15-.687.268-1.433.796-1.95.79-.71 1.383-1.615 2.22-2.284.68-.497 1.33-1.043 2.067-1.46.907-.825 1.9-1.557 2.926-2.227 2.166-1.006 4.008-2.587 6.216-3.51-.19-.14-.422-.226-.627-.07-1.712.698-3.323 1.62-5.002 2.395-1.705.477-3.125 1.584-4.657 2.426-1.1.827-2.432 1.367-3.31 2.474-.99 1.006-1.748 2.208-2.664 3.28-.43.656-1.006 1.22-1.243 1.985-1.07 1.987-1.754 4.245-1.57 6.516.104.535.393 1.016.62 1.51.77.887 1.533 1.823 2.577 2.415.68.606 1.498 1.03 2.355 1.336.782.166 1.586.04 2.378.075.722-.02 1.47.066 2.172-.123.566-.365 1.23-.547 1.774-.95.722-.557 1.25-1.33 2-1.858 1.38-1.016 2.4-2.447 3.792-3.435.475-.548.878-1.157 1.402-1.66 1.016-.81 1.756-1.895 2.582-2.88.394-.354.89-.613 1.158-1.09.45-.764 1.246-1.234 1.725-1.98.354-.548.917-.912 1.283-1.452.265-.368.687-.62.857-1.058.224-.54.468-1.104.953-1.465.608-.46.86-1.206 1.18-1.868.23-.59.903-.827 1.182-1.388.216-.457.607-.79.88-1.21.41-.645.946-1.21 1.56-1.66.346-.25.46-.713.827-.94.645-.245.887-.954 1.265-1.476.43-1.002.677-2.078.98-3.123.11-.945.436-1.843.71-2.747.215-.87.243-1.77.404-2.65.287-1.668.84-3.277 1.328-4.893-.098-1.525.627-2.948.57-4.465.1-.915.163-1.85-.052-2.755-.202-.978-.116-2.1-.78-2.913-.427-.677-.726-1.49-1.41-1.963-.68-.494-1.336-1.016-1.974-1.563-.568-.343-1.136-.683-1.696-1.037-.245-.168-.59.02-.678.277-.275.543-.075 1.192-.368 1.732-.454.995-1.343 1.735-1.695 2.79-.336 1.153-1.19 2.033-1.752 3.067-.447.826-.974 1.597-1.528 2.35-.328.53-.813.923-1.313 1.273-.556-.754-.673-1.718-.946-2.59-.26-.754.613-1.342.37-2.075-.14-.66-.607-1.304-.27-1.988.38-.136.767-.277 1.087-.53.338-.465.272-1.08.46-1.597 1.095-1.01 2.476-1.588 3.84-2.138-.553-.75-1.568-.866-2.427-.873-.585.098-1.09-.266-1.64-.38-.523-.045-1.05-.006-1.574-.016-1.052.02-2.124-.11-3.144.203-1.13.917-1.91 2.165-2.827 3.28-.56.88-1.332 1.63-1.75 2.597-.59.754-.937 1.654-1.152 2.58-.15.642.24 1.224.503 1.777.176.417.58.778.472 1.272-.167-.042-.324-.094-.473-.164-.534-.617-.92-1.343-1.29-2.064-.267-.656-.304-1.378-.544-2.044-.248-.61-.414-1.25-.71-1.844-.346-1.048-1.11-1.882-1.78-2.737-.685-.603-1.38-1.304-2.296-1.525-.796-.214-1.42.505-1.92 1.017-1.01 1.286-1.556 2.853-2.288 4.3-.31.614-.557 1.403-1.22 1.712-.054-.65 0-1.297-.038-1.945-.13-.897-.38-1.78-.728-2.615-.326-.37-.706-.69-1.088-1-.566-.476-1.444-.388-1.99.082-1.147.868-2.235 1.878-2.966 3.132-.244.393-.607.726-.724 1.188-.216.796-.738 1.45-1.006 2.226-.43.655-.692 1.406-1.164 2.037-.077.757-.603 1.318-.945 1.96-.56 1.068-1.362 1.98-1.97 3.013-.112.34-.67.315-.722-.046-.254-.715-.57-1.406-.83-2.12-.117-1.55.155-3.08.38-4.606.41-1.03.47-2.162.41-3.26-.017-.375-.274-.677-.414-1.013-.28-.654-1.01-.89-1.57-1.247-.048.182-.096.365-.14.55-.095.035-.286.102-.382.14.058.782-.094 1.553-.12 2.33-.26 1.424-1.07 2.658-1.904 3.814-1.546 2.03-3.495 3.694-5.4 5.373-.906.8-2.124 1.336-3.347 1.128-.494-.116-.68-.64-.9-1.037-.187-.35-.06-.77-.2-1.13-.253-.64-.344-1.35-.248-2.03.353-1.61 1.014-3.13 1.39-4.736.236-.845.817-1.577.884-2.475.068-.667.39-1.277.46-1.946.17-.96.16-1.952.51-2.87.23-.597.246-1.287.59-1.83 1.473-.63 3.06-.89 4.575-1.385 1.093-.502 2.318-.54 3.457-.89.696-.187 1.37-.548 2.114-.467-.185.543-.642.985-.54 1.602.407.347.82.7 1.29.964.45.16.82-.166 1.222-.31.403.208.57.664.846 1 .237 0 .473-.003.712-.01.208-.848.258-1.756.705-2.534.412-.925 1.258-1.58 2.142-2.02.75-.06 1.48-.255 2.23-.307 1.06.048 2.136.132 3.19-.047.744-.063 1.49.046 2.23.088.45-.048.894-.157 1.346-.21-.24-.286-.67-.132-1-.18-1.02.13-2.046.006-3.068.055-.65.098-1.29-.073-1.933-.063-.767.196-1.53-.06-2.262-.277-.463.084-.75.62-1.27.568-.96-.02-1.913.347-2.867.108-.487-.104-1.08-.43-1.493.02-.754.728-1.805 1.054-2.835 1.037-.796.42-1.702.536-2.578.64-.708.176-1.336.6-2.072.66-.927.378-2.064.466-2.942-.084-.293-.182-.776-.35-.752-.764.115-.478.397-.898.51-1.378.195-.84.616-1.616.744-2.475.16-.803.787-1.45 1.577-1.65.802-.197 1.45-.758 2.256-.94.89-.217 1.763-.557 2.69-.557.985-.08 1.945-.414 2.937-.32.396.025.743-.202 1.123-.272 1.5-.112 3.018.137 4.5-.158.82-.077 1.655.074 2.463-.12.74-.143 1.517-.048 2.237-.304.834-.263 1.716-.365 2.53-.697.984-.387 2.028-.608 3-1.03.928-.614 1.986-.986 2.95-1.54.79-.483 1.74-.68 2.46-1.29-.68.06-1.306.336-1.955.52-1.635.598-3.318 1.068-5.025 1.412-.592.056-1.167.203-1.747.322-1.556.112-3.127-.084-4.676.126-1.446.084-2.905-.15-4.33.14-.854-.08-1.71.08-2.555-.077-.79.14-1.59.15-2.385.238-.78.225-1.605.145-2.39.324-.91.294-1.89.26-2.802.55-.28.05-.64.29-.83-.042-.003-.715.47-1.325.574-2.023.075-.614.708-1.01.697-1.645-.053-.59-.338-1.125-.534-1.675-.125-.37-.394-.673-.733-.862-.344-.298-1.02-.277-1.11.25-.145.742-.196 1.506-.493 2.214-.244 1.493-.643 2.962-1.11 4.402-.088.315-.32.61-.662.652-1.677.305-3.242 1.034-4.912 1.378-1.097.22-2.09.764-3.142 1.118-.866.168-1.697.473-2.547.697-.766.133-1.544.22-2.29.458-.764.308-1.637.112-2.38.497-1.323.193-2.688-.108-4.002.193-1.686.102-3.396-.112-5.063.25-.242.136-.58.343-.514.668.746.733 1.866.82 2.858.848.794.168 1.586.33 2.4.29.86.246 1.76.075 2.628.267 1.218-.003 2.45.18 3.65-.097 1.33.063 2.563-.53 3.855-.726 1.21-.024 2.335-.505 3.506-.743.838-.382 1.68-.796 2.597-.946.923-.147 1.73-.764 2.683-.757.09.99-.42 1.862-.654 2.79-.552 1.582-1.09 3.17-1.55 4.775-.4.69-.247 1.532-.553 2.264-.038.693-.343 1.324-.46 2-.512 1.255-.722 2.65-1.448 3.806-.368 1.294-1.093 2.443-1.7 3.63-.34.453-.638.93-.8 1.477-.898 1.28-1.748 2.6-2.812 3.75-.407.666-1.085 1.062-1.614 1.612-.673.568-1.355 1.136-2.087 1.63-.26.217-.693.077-.777-.245-.436-1.2-.366-2.506-.153-3.736.077-.912-.284-1.777-.336-2.678-.506-1.65-1.39-3.207-2.64-4.406-.754-.41-1.397-.992-2.137-1.423-.878-.606-1.898-1.248-3.014-1.076-.84.225-1.64.64-2.224 1.295-.952.767-1.517 1.88-1.995 2.98-.11.227-.224.483-.475.584-.34-.078-.486-.44-.734-.642-.5-.427-1.16-.624-1.623-1.1-.466-.463-1.16-.512-1.688-.876-.356-.256-.812-.172-1.218-.154-.215.165-.41.36-.63.526-.027.414-.1.824-.164 1.234.03 1.192-.486 2.31-.442 3.505.043.6-.297 1.122-.527 1.65-.198.44-.212.933-.403 1.38-.776 1.36-1.905 2.47-3.104 3.47-.927.79-1.707 1.755-2.727 2.44-.215.17-.565.122-.712-.113-.478-.9-.943-1.84-1.003-2.878-.004-.827-.137-1.703.258-2.47-.027-.895.12-1.782.464-2.61.138-.33.436-.64.31-1.023-.145-.64-.055-1.287-.088-1.932-.003-.585-.57-.904-.883-1.328-.342-.438-.843-.705-1.318-.97-.474.994-.758 2.06-.928 3.15-.385.985-.72 1.99-.983 3.015-.15.8-.11 1.623-.315 2.415-.13.954-.648 1.777-1.097 2.604-.613.834-1.176 1.707-1.872 2.482-.587.557-1.297.968-1.96 1.43-.292.158-.747.326-.947-.053-.292-.817-.464-1.668-.725-2.492-.186-1.71.046-3.49-.512-5.148-.19-.725-.226-1.483-.32-2.222-.032-.585.255-1.255-.166-1.76-.63-.747-1.43-1.724-2.534-1.43-.964.417-1.688 1.23-2.594 1.756-.802.722-1.783 1.174-2.775 1.574-.976.785-2.283.754-3.442 1.058-1.085.305-2.205.505-3.33.537-.738.21-1.437-.15-2.138-.323-.65-.15-1.132-.753-1.832-.74-.722-.07-1.24.544-1.784.92-.5.448-1.226.54-1.678 1.05-.705.8-1.44 1.564-2.154 2.35-.363.402-.968.507-1.257.984-.367.585-.88 1.07-1.242 1.654-.21.85-.682 1.588-.976 2.405-.084.722-.028 1.454-.03 2.18.282 1.28 1.225 2.257 2.065 3.21.517.76 1.17 1.417 1.696 2.17.69.674 1.258 1.473 1.618 2.374.716 1.32 1.864 2.323 2.907 3.385.496.49 1.088.87 1.707 1.185 1.074.683 2.353 1.07 3.637 1 1.09.02 2.274.027 3.198-.64.74-.3 1.04-1.11 1.717-1.496.393-.235.785-.484 1.085-.84.483-.53 1.204-1.01 1.195-1.813-.03-1.184.145-2.358.093-3.543.1-1.455-.18-2.895-.2-4.346-.026-.928-.587-1.713-.862-2.572.256-1.002.74-1.92 1.202-2.843.205-.824.885-1.367 1.344-2.044.46-.546.636-1.26 1.08-1.814.282-.46.754-.743 1.074-1.167.25-.3.463-.632.776-.863.645 1.363.258 2.905.657 4.33.253.798.153 1.685.553 2.446.314.62.45 1.318.796 1.924.523.747 1.038 1.52 1.81 2.043.49.456 1.164.708 1.834.613.94-.483 1.5-1.434 2.27-2.124.557-.653 1.32-1.052 2.005-1.546.096-.873.373-2.047 1.356-2.29 1.127 1.322 2.122 2.833 3.67 3.695.48.164.974.304 1.47.402.59-.084 1.19-.32 1.577-.792.708-.897 1.406-1.805 2.108-2.71.4-.5.78-1.072 1.39-1.338.488-.168.567-.732.802-1.128.365-.83 1.22-1.367 1.44-2.27.476-1.337.994-2.68 1.166-4.098.06-.355.056-.79.403-.986zm78.264-10.543l.01.42c-.417.323-.874.593-1.342.828-.578.158-.916-.477-1.237-.834.608-.732 1.733-.596 2.57-.413zM41.374 48.09c-.002.987-.17 1.962-.31 2.936-.103.957-1.008 1.504-1.783 1.9-.71.312-1.303.943-2.128.915-.056-.54-.12-1.113.144-1.615.412-.887.754-1.854.6-2.85-.213-.42-.66-.693-.795-1.163.012-.33.134-.645.173-.974-.047-.607-.228-1.196-.403-1.774.037-.72.154-1.426.447-2.082-.116-.862-.6-1.616-.9-2.422.47-.407 1.065-.676 1.676-.767.427.12.66.533.93.848.356.5.82.926 1.082 1.487.314.64.69 1.25.99 1.9.385 1.17.552 2.45.28 3.662z"/>
  <path d="M28.348 61.128c-.36.242-.84.02-1.192.27-.617.4-1.384.217-2.07.333-1.565.166-3.086-.293-4.637-.374-1.22-.344-2.495-.48-3.67-.974-1.89-.438-3.462-1.742-4.622-3.25-1.28-1.327-2.245-2.908-3.335-4.388-.49-.722-.74-1.577-1.24-2.296-.33-.452-.392-1.01-.406-1.553-.33-1.174-.552-2.376-.747-3.582-.084-1.05.077-2.124-.187-3.16-.22-.78.1-1.557.373-2.28.395-.873.676-1.812 1.275-2.573.362-.694.942-1.237 1.296-1.935.42-.78 1.22-1.248 1.772-1.924 1.095-1.608 2.555-2.94 3.633-4.56.253-.34.606-.574.907-.858.29-.375.375-.876.708-1.223.88-.726 1.616-1.648 2.64-2.195.59-.288.95-.866 1.47-1.25.537-.373 1.163-.566 1.757-.814.356-.378.45-.914.784-1.307.403-.48.44-1.136.76-1.658.565-.445 1.242-.736 1.918-.967.524-.18.832-.673 1.286-.96.56-.224 1.144-.385 1.73-.533.693-.256.873-1.062 1.352-1.535.745-.354 1.562-.515 2.36-.697.804-.308 1.615-.683 2.18-1.356.17-.288.623-.214.627.144.28 2.598-.954 5.01-1.228 7.55-.052.576.802.818 1.113.383.447-.43.745-.985 1.083-1.5.81-1 1.51-2.103 2.492-2.948.096-.86-.298-1.665-.293-2.517.26-1.493 1.27-2.877.917-4.448-.3-.578-.66-1.153-1.223-1.507-.705-.463-1.19-1.216-1.966-1.58-.705-.085-1.113.802-1.844.753-.485-.354-.966-.883-1.633-.75-1.37.035-2.426.974-3.62 1.507-1.186.866-2.425 1.66-3.706 2.384-.968.333-1.816.932-2.51 1.675-.783.54-1.56 1.097-2.232 1.784-.734.743-1.674 1.216-2.492 1.85-.866.905-1.752 1.8-2.764 2.542-.757.585-1.21 1.475-2.024 2-.295.625-1.066.74-1.38 1.34-.41.697-1.084 1.174-1.622 1.763-.918 1.087-1.604 2.35-2.438 3.503-1.365 2.148-2.534 4.413-3.836 6.603-.258.536-.58 1.038-.84 1.574-.28 1.094-.814 2.117-.926 3.253-.3 1.34.198 2.674.22 4.013.078.603.166 1.21.264 1.81.165 1.18.743 2.25.91 3.43C4 49.2 4.532 50.257 5.172 51.25c.49.896 1.12 1.706 1.54 2.642.895.785 1.47 1.843 2.262 2.72.345.508.834.883 1.207 1.367.46.655 1.095 1.156 1.62 1.755.968 1.072 2.304 1.668 3.476 2.468.987.63 2.17.817 3.244 1.24.654.267 1.372.187 2.056.323.548.077 1.064.33 1.62.333 1.126-.008 2.25.013 3.373.003.827-.01 1.536-.494 2.304-.733.645-.186 1.153-.65 1.684-1.034.517-.463 1.174-.733 1.652-1.237.365-.4.938-.727.95-1.323-.943.315-1.842.754-2.755 1.143-.36.043-.744-.016-1.057.208z"/>
  <path d="M134.443 17.69c.016.55.463-.253 0 0z"/>
  <path d="M114.53 26.287c-.74-.21-1.514-.256-2.277-.224-.305.273-.598.57-1.048.575-.175.41-.46.76-.638 1.167-.047.613-.086 1.248.107 1.84.243.242.45.52.527.86.16.017.32.038.48.06.026.083.07.255.096.343.287-.06.515.126.768.224.328-.024.664-.05.948.158.506-.26 1.195-.144 1.572-.635.503-.375.692-1.01 1.13-1.45-.1-.404-.088-.82-.088-1.238-.34-.698-.933-1.26-1.576-1.68z"/>
  <path d="M140.397 43.925c.32-.54-.138-1.356-.797-1.13-.755.07-.69 1.245-.04 1.442.297.04.726.04.837-.312z"/>
  <path d="M123.777 47.76c.86-.232 1.463-1.29.94-2.09-.34-.234-.777-.54-1.206-.44-.323.126-.68.25-.9.533-.296.26-.152.673-.203 1.013.088.65.787.927 1.37.984z"/>
  <path d="M126.872 53.245c.394-.298.244-.848.233-1.27-.344-.45-.89-.875-1.483-.616-.475.065-.647.55-.846.914-.033.533.217 1.034.36 1.54.592-.134 1.31-.06 1.736-.57z"/>
  <path d="M65.022 57.665c-.21-.032-.42-.063-.633-.084-.025.194-.045.39-.064.586.193 0 .384-.014.575-.032.16-.098.084-.318.122-.47z"/>
  <path d="M128.122 60.574c.53-.133 1.174-.466 1.15-1.108.15-.442-.056-.96-.52-1.1-.69-.38-1.464.136-1.766.78.114.64.367 1.393 1.136 1.428z"/>
  <path d="M103.96 99.102c-1.443.284-2.808.89-4.273 1.083-1.43.375-2.91.49-4.355.79-.77.07-1.553-.085-2.306.108-1.067.193-2.185-.126-3.234.228-1.204.23-2.646.365-3.644-.5-1.206-.757-2.042-1.928-3.035-2.92-.932-.973-1.125-2.37-1.83-3.476-.38-1.195-.72-2.398-1.077-3.6-.012-1.767-.067-3.54.058-5.3-.21-1.14.074-2.275.212-3.403.05-.704.4-1.335.613-2 .486-1.213.486-2.622 1.27-3.712.403-.88.864-1.735 1.204-2.643.482-.694 1.143-1.262 1.884-1.672.524-.29.736-.873 1.083-1.318.926-.617 1.653-1.486 2.6-2.075.475-.158.98-.252 1.43-.487.32-.214.553-.526.85-.768.75-.168 1.47-.466 2.25-.484.64-.448 1.26-.938 2.01-1.205.41.028.817.186 1.234.11.73-.16 1.038-.937 1.632-1.323.27.04.54.09.817.116.56-.074.855-.753 1.446-.722.902.003 1.786-.204 2.69-.162.327-.22.625-.53 1.035-.575.727-.04 1.378-.404 2.103-.464.375-.053 1.073-.266 1.15.284-.25.77-1.007 1.206-1.338 1.928-.843 1.227-1.385 2.682-1.348 4.185.066.477.19 1.034.692 1.227.536-.883.887-1.907 1.684-2.6.56-.53.87-1.277 1.512-1.722.568-.407.908-1.038 1.227-1.644.223-.83-.177-1.637-.32-2.44-.362-.54-.478-1.3-1.123-1.588-1.29-.29-2.524.273-3.79.42-1.145-.045-2.234.46-3.383.345-.672-.048-1.26.376-1.923.41-.836.05-1.57.548-2.408.58-.806.017-1.573.272-2.34.483-1.044.214-2.127.407-3.04.985-.787.445-1.69.627-2.57.796-.872.97-2.264 1.136-3.326 1.82-.506.35-.987.742-1.52 1.05-1.077.6-1.774 1.666-2.775 2.367-.537.32-.827.898-1.193 1.378-.673 1.237-1.41 2.44-2.134 3.642-.417.79-.463 1.714-.906 2.492-.32.515-.31 1.146-.535 1.7-.114.308-.29.603-.333.932-.117 1.82-.594 3.603-.516 5.437-.058 1.697.205 3.387.573 5.04.09.355-.002.758.203 1.077.31.466.438 1.027.505 1.574-.12.183-.26.35-.396.523.14.3.243.62.364.932.35.414.885.712 1.02 1.27.277.837.666 1.636 1.148 2.37.298.476.43 1.033.753 1.5.328.5.36 1.166.833 1.576.585.548.967 1.273 1.54 1.834.46.34.91.697 1.38 1.023.757.25 1.19.953 1.772 1.44.385.26.754.54 1.155.78 1 .307 2.16.574 3.11-.04 1.005-.638 2.235-.596 3.327-1 .812-.206 1.548-.62 2.33-.9.543-.242 1.163-.378 1.58-.827.307-.354.785-.424 1.204-.57.72-.24 1.215-.877 1.937-1.112 1.773-.8 3.535-1.616 5.324-2.376.005-.098.012-.294.016-.396l-.303-.31c-.49.197-.994.338-1.49.506z"/>
  <path d="M128.756 62.97c.312-.1.775-.234.787-.637.05-.407.018-1.002-.475-1.11-.29-.043-.626-.117-.878.066-.363.2-.385.65-.36 1.02.234.3.457.802.926.66z"/>
  <path d="M129.238 65.075c-.233.27-.612.725-.2 1.02.396.536 1.034.14 1.42-.186-.088-.31-.058-.684-.307-.923-.228-.305-.73-.23-.912.088z"/>
  <path d="M29.313 69.666c-.438.196-.752.63-1.097.964-.394.694-.198 1.658.414 2.17.273.204.436.617.818.624.536.09.97-.315 1.48-.39.29-.718.636-1.562.24-2.305-.436-.573-1.035-1.334-1.855-1.064z"/>
  <path d="M43.198 72.547c-.754-.095-1.52-.028-2.236.228-.514.603-1.248.932-1.854 1.426.14.233.268.467.393.71-.213.273-.483.493-.78.668.125.21.258.41.395.617-.163.137-.326.27-.494.4.26-.025.518-.025.776.013-.24.442-.373.926-.273 1.427.214-.112.424-.224.638-.34.316.28.532.66.643 1.062-.102.4-.475.655-.698.988.512-.084.82-.484 1.164-.82.662-.116.348.655.318 1.023.46-.3.882-.68 1.425-.83.25.248.49.504.734.76.042-.554.167-1.097.433-1.59.228.03.455.073.683.115.1-.427.153-.88.405-1.248.44-.66.322-1.5.347-2.254-.282-1.02-.958-2.03-2.017-2.353z"/>
  <path d="M51.533 80.763c.42-.26.885-.484 1.22-.855.193-.34.39-.68.543-1.034.1-.697.04-1.47-.396-2.05-.533-.415-1.22-.57-1.877-.408-.526.25-.878.743-1.386 1.016-.568-.007-1.195-.26-1.726.05-.6.43-1.056 1.142-1 1.9.198.356.37.728.605 1.065.363.238.8.007 1.192-.014.357.497 1.02.245 1.47.035l.327.445c.32-.18.675-.17 1.03-.15z"/>
  <path d="M57.137 79.33c-.713-.417-1.514.014-2.255.102-.63.028-1.062.54-1.414 1.006-.058.46-.09.922-.14 1.384.015.55.266 1.055.408 1.577-.466.083-1.002-.046-1.4.27-.37.258-.828.465-1.005.914-.42.655-.28 1.465-.262 2.205.237.335.708.38.946.72.187.218.244.506.336.768.396-.277.847-.042 1.278-.084.578-.683 1.302-1.388 1.262-2.36.12-.71-.273-1.32-.52-1.948.342.077.693.13 1.037.228.31.172.53.463.78.708.084-.368-.056-.806.196-1.122.212-.305.62-.28.945-.364.19-.49.405-.97.72-1.4.004-.45.137-.9.095-1.345-.22-.493-.573-.934-1.006-1.26z"/>
  <path d="M67.888 79.59c-.013.25-.014.504-.005.76.167-.07.335-.148.503-.222-.007-.16-.012-.32-.014-.48-.162-.02-.323-.038-.484-.06z"/>
  <path d="M65.366 82.067c.293-.57.063-1.216.21-1.823l-.44-.014c-.263.214-.44.638-.806.66-.317-.218-.643-.432-1.044-.295-.032.172-.06.344-.09.515.194.088.392.175.592.263.058.34.058.722.288 1.006.434.104 1.027.13 1.29-.313z"/>
  <path d="M60.105 82.754c.056-.63-.727-.918-1.193-.575-.48.304-.643 1.114-.09 1.44.596.39 1.07-.396 1.283-.866z"/>
  <path d="M66.93 83.05l.2-.464c-.24-.245-.556-.21-.852-.11l.03.572c.207.004.414.004.62 0z"/>
  <path d="M62.323 83.308c-.184-.295-.58-.144-.862-.186-.267.308-.575.65-.507 1.094-.03.438.32.747.655.96 0 .267.01.537.027.803.352.115.795.167 1-.218.337-.263.202-.715.006-1.017-.336-.424.062-1.034-.317-1.437z"/>
  <path d="M66.298 84.114c-.43.16-.454.767-.89.894-.887.22-1.377 1.353-1 2.173.246.383.728.635 1.175.45.757-.123 1.01-.926 1.207-1.553.347-.445.892-1.04.517-1.623-.13-.45-.646-.403-1.01-.34z"/>
  <path d="M59.588 85.148c-.478.44-.013 1.567.694 1.24.547-.143.62-.763.76-1.22-.417-.283-1.08-.472-1.454-.02z"/>
  <path d="M56.1 93.855l-.12.298c.097 0 .292-.003.392-.007-.005-.098-.01-.294-.013-.393-.067.025-.197.074-.26.102z"/>
</svg>
