<!--
  SVG Music Logos
  The Strokes v1.0.0
  https://github.com/tiagoporto/svg-music-logos
  Copyright (c) 2016 Tiago Porto (http://tiagoporto.com)
-->
<svg xmlns="http://www.w3.org/2000/svg" viewBox="0 0 200 144">
  <path d="M65.883 30.325l15.6-3.9c.2 0 .3.1.4.2v5.4c0 .1-.1.3-.2.3l-4.2 1.1-1.3 20.7c0 .1-.1.3-.3.3l-6 1.5c-.2 0-.3-.1-.4-.2v-.1l1.3-20.5-4.7 1.2c-.2 0-.3-.1-.4-.2v-5.4c-.1-.2 0-.3.2-.4z"/>
  <path d="M114.783 39.825l-10.9 2.7v-2.2l8.1-2c.1 0 .2-.2.2-.3l.5-11.2v-.1c0-.2-.2-.3-.4-.2l-11.5 2.9c-1.6.4-1.9.9-2 3.8l-.5 10.2-1.8.3.1-10.4c0-1.5-1.1-2.5-2.6-2.1l-4.9 1.2.5-7.3v-.1c0-.2-.2-.3-.4-.2l-5.5 1.4c-.1 0-.2.2-.2.3l-1.8 26.4v.1c.1.2.2.3.4.2l5.5-1.4c.1 0 .2-.2.2-.3l.9-13.4c.2 0 .7-.1.9-.1.2 0 .5 0 .6.2.2.1.3.3.3.5v.4l-.5 11.8v.1c0 .2.2.3.4.2l5.8-1.4c.1 0 .2-.1.2-.2l1.8-3.4c0 .3.1.7.1 1 .1.4.3.8.5 1.1.3.3.6.5.9.5h.3l12.5-3.1c.1 0 .2-.1.2-.2l2.3-4.9v-.2c.2-.6 0-.7-.2-.6zm-10.3-6.2s0-.1.1-.1l1.8-.5v2s0 .1-.1.1l-1.8.5v-2z"/>
  <path d="M188.083 39.925c0-.2-.2-.3-.4-.2l-5.8 1.4-6.1 1.5s-3.7.9-5.7 1.4-2.9 1.3-3.1 3.8-1 12.7-1 12.7c-.2 2.2.7 2.9 1.9 2.6s11.8-2.9 11.8-2.9v3.9l-29 7.2v-3.9l12.1-3c.1 0 .2-.2.2-.3l.8-18.2c0-.3-.2-.4-.4-.3l-17.5 4.3c-.2.1-.5.2-.7.3s-.4.3-.6.6c-1 1.1-1.7 3-1.8 5.1l-.9 19.9c-.2 4.5 2.1 4.9 2.8 4.7l17.6-4.4c.1 0 .2-.1.2-.2l2.4-4.9.1.2c.8 1.6 1.9 3.8 4.1 3.2l13.5-3.4c.2-.1.4-.1.7-.2.2-.1.4-.2.6-.4 1-.7 1.7-1.9 1.8-3.1l.7-12.1c.1-1.8-.4-3-2.5-2.5l-10.4 2.6.2-4.2 13.1-3.2c.1 0 .2-.1.2-.3l.9-7.6c.2 0 .2-.1.2-.1zm-36.6 16.9c0-.1.2-.4.3-.4l3.1-.8c.1 0 .1 0 .1.1l-.1 3.3s0 .3-.3.4l-3.1.8c-.1 0-.1 0-.1-.1l.1-3.3z"/>
  <path d="M40.683 84.625s-13.9 3.4-14.3 3.6c-1.7.5-3.9 1-5.7.9-2.2-.1-3.9-1.3-3.7-4.7l1.2-19.9c.1-2.4 1.6-4.8 3.5-6.2.4-.3.8-.5 1.2-.7s.8-.4 1.3-.5l29.1-7.2c.2-.1.3 0 .4.2v.1l-.7 9.4c0 .1-.1.3-.2.3l-24.3 6-1.1 12.4 20.3-5c1.3-.3 2.1.1 2.6.9.5.7.6 1.7.8 2.5v.1l-1.3 20.1c-.4 3-1.6 5-3.4 6.5s-4.1 2.4-6.7 3l-26.9 6.7h-.2l-10.9-6.5c-.2-.1-.2-.3-.1-.4 0-.1.1-.1.2-.2l38.2-9.5.7-11.9z"/>
  <path d="M114.683 47.225c0-.2-.2-.3-.4-.2l-48.8 12.1.7-11.6v-.1c0-.2-.2-.3-.4-.2l-9.4 2.3c-.1 0-.2.2-.2.3l-.7 11.8-13.3 3.3c-.1 0-.2.2-.2.3l-.1 7.6v.1c0 .2.2.3.4.2l12.7-3.1-2 32.9v.1c0 .2.2.3.4.2l9.4-2.3c.1 0 .1-.1.2-.1.2-.3 3.4-4.4 5.4-6.9l-.3 5.3v.1c0 .2.2.3.4.2l7.8-1.9c.1 0 .2-.2.2-.3l1.3-22.7 3.5-.9v4.1c0 .3.2.4.4.3l8.2-2c.3-.1.3-1.6.4-1.9.2-6.7.6-10.9-5.4-9.4l-14.8 3.7c-.1 0-.2.2-.2.3l-1.3 23c-.7.2-1.7.4-2.7.7-.8.2-1.6.4-2.3.6l1.6-25.5 48.9-12.3c.1 0 .2-.2.2-.3l.4-7.8z"/>
  <path d="M113.583 57.425c-3.5.9-7.1 1.8-10.7 2.7-1.8.4-3.6.9-5.3 1.3-3.9 1.1-4.5 2.1-4.8 6.3l-1.6 21.8c-.2 2.6 2.3 3.7 6.7 2.6l11.4-2.8c1.4-.3 2.1-.9 2.5-1.8.4-.8.5-1.8.5-3l.6-9.3c.4-5.8.8-11.6.9-17.5v-.1c.2-.1 0-.2-.2-.2zm-9.6 25.5l-3.4.8.5-14.4 3.4-.8-.5 14.4z"/>
  <path d="M124.583 85.525l-9.4 2.3c-.2 0-.3 0-.4-.2v-.1l3.3-53.1c0-.1.1-.3.2-.3l9.4-2.3c.2 0 .3.1.4.2v.1l-2 33 5.1-11.3c0-.1.1-.2.2-.2l10.9-2.7c.3-.1.5.2.4.4l-8.9 19.7 17 20.2 40.4-10c.2 0 .3.1.4.2v.2l-5.3 8.9c0 .1-.1.1-.2.2l-29.9 7.4-7.9 2c-.1 0-.3 0-.3-.1l-22.2-25-.7 10.1c-.2.3-.3.4-.5.4z"/>
  <path d="M162.683 35.025l25.1-6.2c.2 0 .3.1.4.2v7.7c0 .2-.1.3-.2.3l-58 14.3c-.2 0-.3-.1-.4-.2v-.1l.4-7.7c0-.1.1-.3.2-.3l22.2-5.5c-27-40.1-90-33.1-107.8 11.8 0 .1-.1.2-.2.2l-10.7 2.7c-.2 0-.3-.1-.4-.2v-.2c17.2-58.2 98-68.8 129.4-16.8z"/>
  <path d="M16.083 114.625l115.6-28.6c.1 0 .2 0 .3.1l5.4 6.3c.1.1.1.3 0 .5l-.1.1-112 27.7h-.3l-9-5.4c-.2-.1-.2-.3-.1-.4.1-.3.1-.3.2-.3z"/>
  <path d="M146.983 82.125l51.1-12.7c.2 0 .3.1.4.2v.3l-5.3 8.9c0 .1-.1.1-.2.1l-40.5 10c-.1 0-.2 0-.3-.1l-5.3-6.3c-.1-.1-.1-.3 0-.5 0 .2.1.1.1.1z"/>
  <path d="M138.883 94.225c.1 0 .2 0 .3.1l5.5 6.2c.1.1.1.3 0 .5l-.1.1-79.5 19.7c29.3 21.8 72.1 13 90.1-19.2 0-.1.1-.1.2-.2l11.7-2.9c.2 0 .3.1.4.2v.2c-18.4 44.1-77.6 59-114.4 24.8l-15.9 3.9h-.3l-9-5.4c-.2-.1-.2-.5.1-.6l110.9-27.4z"/>
</svg>
