<!--
  SVG Music Logos
  Extreme - III Sides to Every Story v1.0.0
  https://github.com/tiagoporto/svg-music-logos
  Copyright (c) 2016-2019 Tiago Porto (http://tiagoporto.com)
-->
<svg xmlns="http://www.w3.org/2000/svg" viewBox="0 0 200 29.75">
  <path d="M1.5 2.231H27.428V9.042H1.5z"/>
  <path d="M113.388 2.231L87.46 2.231 87.46 9.043 104.556 9.043 97.164 16.664 108.537 27.694 113.256 22.828 106.434 16.212 113.388 9.043z"/>
  <path d="M1.5 12.061H27.428V18.839H1.5z"/>
  <path d="M1.5 21.244H27.428V28.022H1.5z"/>
  <path d="M115.887 2.231H141.815V9.042H115.887z"/>
  <path d="M115.887 12.061H141.815V18.839H115.887z"/>
  <path d="M115.887 21.244H141.815V28.022H115.887z"/>
  <path d="M172.572 2.231H198.5V9.042H172.572z"/>
  <path d="M172.572 12.061H198.5V18.839H172.572z"/>
  <path d="M172.572 21.244H198.5V28.022H172.572z"/>
  <path d="M163.165 2.231H169.94299999999998V28.107H163.165z"/>
  <path d="M153.868 2.231H160.646V28.107H153.868z"/>
  <path d="M144.185 2.231H150.963V28.107H144.185z"/>
  <path d="M30.461 7.114L36.918 13.364 41.776 8.637 35.319 2.387z"/>
  <path d="M56.575 7.292L51.782 2.499 30.351 23.229 35.144 28.022 43.415 20.022 51.607 28.135 56.465 23.407 48.287 15.309z"/>
  <path d="M58.821 2.231H66.404V9.042H58.821z"/>
  <path d="M84.748 2.231L69.115 2.231 69.115 28.107 75.894 28.107 75.894 9.043 84.748 9.043z"/>
</svg>
