<!--
  SVG Music Logos
  Megadeth - Nuclear Symbol v1.0.0
  https://github.com/tiagoporto/svg-music-logos
  Copyright (c) 2016-2018 Tiago Porto (http://tiagoporto.com)
-->
<svg xmlns="http://www.w3.org/2000/svg" viewBox="0 0 200 200" class="megadeth--nuclear-symbol">
  <path class="symbol"
    d="M100 5C47.533 5 5 47.533 5 100s42.533 95 95 95 95-42.533 95-95-42.533-95-95-95zm13.535 95c0 7.475-6.06 13.535-13.535 13.535-7.475 0-13.535-6.06-13.535-13.535 0-7.475 6.06-13.535 13.535-13.535 7.475 0 13.535 6.06 13.535 13.535zM10.057 97.448c.893-31.978 18.447-59.774 44.307-75.02l37.424 63.11c-4.324 2.46-7.425 6.8-8.213 11.91H10.057zM100 190.008c-16.448 0-31.852-4.433-45.12-12.14l37.914-62.886c2.183 1.052 4.62 1.66 7.206 1.66 3.213 0 6.203-.927 8.747-2.505l37.432 63.123c-13.504 8.09-29.296 12.748-46.18 12.748zm16.425-92.56c-.682-4.423-3.098-8.263-6.54-10.813l37.915-62.89c24.672 15.5 41.275 42.627 42.143 73.703h-73.518z" />
</svg>