<!--
  SVG Music Logos
  Alice Cooper - Dirty Diamonds v1.0.0
  https://github.com/tiagoporto/svg-music-logos
  Copyright (c) 2016 Tiago Porto (http://tiagoporto.com)
-->
<svg xmlns="http://www.w3.org/2000/svg" viewBox="0 0 200 74">
  <path d="M104.255 8.918l-1.07 1.07h-9.29v-1.4S92.25 8.426 91.59 9.74c0 0-2.303-2.303 2.138-5.263L90.852 1.6l-5.345 5.344s-.822.822-3.29.822c0 0-1.808 5.756 1.975 5.92 0 0 .164 4.935-1.316 5.428 0 0 7.4-4.605 1.48-8.717 0 0 .165-1.81 2.632-2.138 0 0-1.81 6.413 4.276 7.893v9.374l-1.48 1.15S92.416 36.71 99.98 44.606l-5.426 5.592-4.112-3.783-2.632.987s-.493 7.896 4.605 11.514l3.454.164s-6.415 5.1-2.797 13.322c0 0-.165-10.855 13.157-14.473V53.98s-6.743 3.783-11.348 2.796l-1.48-2.467 3.29 1.643s3.946-9.868 12.17-13.486c0 0 .657-8.223-3.948-10.69l-3.783 2.96s-1.48 3.125 1.975 3.947c0 0-.987-1.81.165-2.632 0 0 2.796 2.63-1.15 6.907 0 0-6.415-4.935-6.58-17.27 0 0 .165-11.512 5.264-12.664 0 0 2.632-.165 2.632 2.796 0 0-1.316 3.618-3.783.658 0 0-.987 2.96 2.138 4.605l4.77-4.77c-.002.004.162-6.246-2.305-7.397z"/>
  <path d="M122.84 17.964c-.658-2.303-3.29-2.467-3.29-2.467l-.164 1.81-2.796-.166-1.974-1.48-1.645 1.48c-4.933.494-2.96-2.3-2.96-2.3-5.426 3.453-3.617 5.59-3.617 5.59 3.29.988 2.467 2.633 2.467 2.633-.493 3.125-4.44 1.645-4.44 1.645-.66 2.303-4.77 1.644-4.77 1.644 2.466 2.796 4.275 1.645 4.275 1.645 3.947-1.316 4.44 1.645 4.44 1.645l-.82 1.644c-.166 4.934 5.92 10.526 5.92 10.526 1.15.987 1.48 3.947 1.48 3.947-.165-2.14.822-3.62.822-3.62 6.743-5.59 6.578-11.182 6.578-11.182-4.44-5.263.165-10.69.165-10.69l.33-2.304zm-8.223 19.242c-5.592-5.263-3.783-13.65-3.783-13.65 2.303-8.223 3.947-.165 3.947-.165 2.468-8.716 3.948.494 3.948.494.872 10.216-4.11 13.322-4.11 13.322z"/>
  <path d="M141.095 24.707s-3.947 1.48-4.44-1.645c0 0-.823-1.645 2.467-2.632 0 0 1.81-2.138-3.618-5.592 0 0 1.974 2.796-2.96 2.302l-1.644-1.48-1.974 1.48-2.796.165-.164-1.81s-2.632.165-3.29 2.468l.33 2.303s4.605 5.427.164 10.69c0 0-.165 5.592 6.578 11.183 0 0 .987 1.48.822 3.617 0 0 .33-2.96 1.48-3.947 0 0 6.085-5.592 5.92-10.526l-.82-1.644s.492-2.96 4.44-1.645c0 0 1.808 1.15 4.275-1.645 0 0-4.113.66-4.77-1.643zm-10.197 12.5s-5.057-3.404-4.112-13.323c0 0 1.48-9.21 3.947-.493 0 0 1.644-8.058 3.948.166 0 0 1.81 8.387-3.782 13.65z"/>
  <path d="M145.042 49.047s2.303-2.302 4.77-2.796v-3.946l-2.467-1.645v-12.5l5.263-8.223v-2.96l2.878-2.878-1.892-5.017s-5.427 2.138-9.21-1.316c0 0-7.566 5.592-10.36 3.454 0 0 .163-3.946 3.617-3.946 0 0 .166 1.974-1.643 2.467 0 0 1.152 1.317 4.275-1.48 0 0-.823-3.617-2.138-3.946 0 0-5.92 4.934-7.73 4.934l2.633 5.592 5.92-1.974s-1.15 2.96 1.81 4.605c0 0-1.645-2.63 2.466-1.808v9.374s1.974 1.15 4.44 0c0 0-.82 4.276-5.92 4.605l-4.44 6.908s1.152 4.44 2.632 5.263c0 0-1.48 4.77-6.414 4.277l-.986.822s3.454 5.097 2.302 6.577l4.934-1.644.165-3.454s-.988 1.973-1.81 1.973c0 0-.493-6.25 9.21-5.92 0 0 .33 2.137-5.262 2.3l-.33 2.633 3.455 2.96 6.907-2.796s-.164 4.44-8.388 5.098l-.493 2.138 2.138 1.974s-5.593 6.414.822 11.348c0 0-4.112-7.4 2.632-11.513l-.823-1.974s7.237.33 8.717-7.893l1.315-.493v-2.138s-5.757-.986-12.993 2.96zm1.974-27.794v-8.88s6.25-3.455 0 8.88zm-3.618 18.09s-5.264-2.795 0-8.55v8.55z"/>
  <path d="M197.507 36.877h-7.566s-5.425-1.316-13.156-10.197h1.645s4.604-7.236 6.742-8.552c0 0-.164-3.454-2.96-5.098v1.316h-8.388l-.165-2.302s-2.138 1.316-2.632 2.632c0 0-.493-2.796 1.974-5.098l-1.316-2.138s-3.29.33-7.07 4.605c0 0-.33-2.467-2.304-4.112 0 0 .165 4.44-.822 4.934l2.796 1.974 4.112-3.617.822.658-2.302 3.784 1.645 4.276 2.796-.493.164 5.592-2.797 1.643 2.632 2.303.164 7.565-3.947-6.413-.823.33s-.33 7.4-2.796 7.4c0 0-2.632 1.644-4.112-4.605 0 0-.657-5.263 5.757-5.263 0 0 .164-2.14.987-2.96h-6.58s-.492-5.43 2.797-5.757c0 0 1.974-.165 1.81 1.48 0 0-.823 1.81-2.467.165l-.165 2.96h1.645l3.454-2.632s-.165-3.454-2.467-5.263l-4.934 2.467s-2.138-2.63-4.277-2.467c0 0-2.138 5.92-3.454 6.58l1.48 3.453s1.316.165 2.303-.987l.146-.173c-.084.604-.576 2.78-3.27 2.64 0 0 7.564 2.795-.66 12.005l3.29 3.454s2.632-1.81 4.605-1.974c0 0-2.467 3.947-.164 5.756 0 0 1.316-5.263 6.085-5.756h4.605s-.164 1.644-1.48 1.974c0 0 3.782 4.605 5.592 7.73 0 0 1.15-7.072 5.92-9.374 0 0-.164-2.467-2.796-4.112 0 0 .822 2.96-.493 3.125 0 0-1.315-.164-1.315-1.316v-7.895l10.196 8.552.33 2.632s6.907-2.632 11.677-2.96l-.493-2.473zM156.39 22.733l-.822.165c-3.947 2.138.165-3.29.165-3.29l.657.165v2.96zm19.407-4.44c3.783-3.784 3.782.657 3.782.657-.66 3.29-3.783 5.427-3.783 5.427v-6.085z"/>
  <path d="M42.83 30.175c.04.35.06.71.06 1.078 0 3.183-1.562 5.763-3.49 5.763-1.666 0-3.06-1.93-3.406-4.512l-.028-.192c-.513-3.498-.8-7.442-.8-11.614 0-.597.007-1.896.022-1.902 1.737-.782 2.95-2.525 2.95-4.554 0-.7-.147-1.368-.408-1.974-.765 1.777-2.53 3.022-4.59 3.022-2.057 0-3.823-1.245-4.588-3.022-.26.606-.407 1.272-.407 1.974 0 2.03 1.212 3.77 2.95 4.554.013.63 2.475 15.12-2.02 19.617h-1.508v-7.31c0-1.667.71-3.062 1.668-3.452-.958-.39-1.668-1.784-1.668-3.45h-.003v-8.26c0-4.774 1.314-4.388 1.314-4.388l-1.257-2.32c-5.924 2.096-9.027.503-9.027.503 0-2.543-1.258-3.55-1.258-3.55 0 4.08-2.907 3.912-2.907 3.912-.53 4.164-6.12 6.01-6.12 6.01v3.213c3.035 1.09 4.644 2.427 5.483 3.416-2.95.49-5.204 3.05-5.204 6.142 0 .324.032.64.08.95.826-1.275 2.104-2.23 3.607-2.636C10.087 46.067 2 48.202 2 48.202L8.825 60.17c2.303-.082 11.05 5.315 11.05 5.315-1.735-1.1-3.575-2.578-5.347-4.353-4.17-4.176-6.686-8.724-6.525-11.367.002-.08.013-.16.024-.238.012-.096.03-.187.05-.276.263-1.018 1.178-1.773 2.277-1.773 1.302 0 2.358 1.056 2.358 2.358 0 .278-.052.543-.14.79-.153.325-.344.627-.57.9.347.092.71.146 1.085.146 2.36 0 4.27-1.91 4.27-4.27 0-2.144-1.583-3.915-3.644-4.218l2.993-15.73 5.727 3.565-.123 5.016s-2.055 3.947-4.852 5.88c0 0-1.028 2.425 1.974 4.727 0 0-.4-3.012 3.45-1.848-.565.773-.9 1.722-.9 2.752 0 2.59 2.098 4.687 4.686 4.687 2.348 0 4.287-1.727 4.628-3.98-.828.736-1.913 1.186-3.107 1.186-.877 0-1.694-.245-2.396-.664.285-1.84 1.87-3.248 3.79-3.248.198 0 .39.02.58.048l-.004-.003h.003v-3.66c-12.746-.82-2.598-1.726-2.598-1.726h5.288s-1.572 2.417.366 4.16c0 0 .903-3.38 5.187-3.38h6.738s2.79-.605 3.53-3.38l-5.846-7.41zm-28.23-10.3l-3.7-2.198c.8-3.918 4.873-3.496 4.873-3.496.075 4.003-1.173 5.696-1.173 5.696zm8.417 4.98l-4.498-2.66s-.752-7.588 2.352-10.152c0 0 1.818 1.083 2.63 3.618l-.485 9.194z"/>
  <path d="M52.992 38.433l2.24-1.867c-1.922-1.8-3.526-4.608-4.335-7.953-.88-3.636-.63-7.134.47-9.682.09-.14.14-.29.14-.443 0-.84-1.422-1.524-3.22-1.58.098-3.11 2.07-5.638 4.585-5.95-2.58-.32-4.595-2.968-4.595-6.19h-.453c0 3.222-2.014 5.87-4.595 6.19 2.515.312 4.487 2.84 4.585 5.95-1.8.056-3.22.74-3.22 1.58 0 .1.022.198.06.293h-.007c.986 2.182 1.33 5.097.854 8.206l-2.055 2.268 6.88 8.198-.016.082c-.503 2.793-3.782 4.44-3.782 4.44 4.704-1 11.348.823 11.348.823-3.35 5.075-12.93 7.228-12.93 7.228-.567 1.94 1.657 2.744 1.657 2.744l-3.36 5.204c4.78 2.46 3.55 8.044 3.55 8.044 2.46-3.36.228-8.914.228-8.914.56-3.472 4.606-3.673 4.606-3.673v-1.753c8.62-.43 11.183-7.615 11.183-7.615h1.915c-3.168-4.493-11.733-5.63-11.733-5.63z"/>
  <path d="M87.81 36.054l-5.1-8.388-.657.33c1.645 8.88-3.454 8.55-3.454 8.55-4.113-.492-4.77-5.262-4.77-5.262-.493-6.25 6.578-6.907 6.578-6.907l1.48-2.96h-7.565c.493-7.072 3.454-6.414 3.454-6.414 2.138.33 1.81 1.48 1.81 1.48-.166 2.796-2.797.493-2.797.493-.822 3.125 1.15 3.947 1.15 3.947l4.113-3.783.165-1.15-2.303-4.442h-1.15l-4.606 2.96-3.29-2.467h-1.645c-.658 2.633-3.947 7.237-3.947 7.237l2.138 3.29 2.96-1.317c0 1.866-3.634 3.106-4.557 3.39.046 0 .09-.003.13-.003 2.77 0 5.016 2.246 5.016 5.017 0 2.155-1.36 3.994-3.268 4.704-.18.067-.003-.335.31-.9-.606-4.092-2.895-5.63-2.895-5.63l-3.618 3.784c-1.316 1.974.987 3.783.987 3.783-.493-1.316 1.15-2.467 1.15-2.467 1.975.493-.328 4.44-.328 4.44-6.58-1.808-6.414-11.018-6.414-11.018-.493-10.032 5.098-10.69 5.098-10.69 1.316.822.164 3.618.164 3.618-2.138.658-2.138-.987-2.138-.987-.987 2.96 1.48 3.948 1.48 3.948l4.934-6.25-3.125-3.947c-3.783 5.757-8.552 0-8.552 0-4.77 4.113-.986 5.428-.986 5.428.658 7.4-1.48 11.84-1.48 11.84C62.81 46.91 67.25 39.84 67.25 39.84l2.14 2.137c.82-1.48 3.617-1.644 3.617-1.644-.658 4.113 1.15 5.593 1.15 5.593-.986-2.632 5.1-6.743 5.1-6.743h6.577c2.797 0 1.975-3.126 1.975-3.126zM69.88 17.964h-.987l-.165 1.316s-2.467-1.81 1.15-4.11v2.794z"/>
</svg>
