<!--
  SVG Music Logos
  Megadeth - Cryptic Writing Symbol v1.0.0
  https://github.com/tiagoporto/svg-music-logos
  Copyright (c) 2016 Tiago Porto (http://tiagoporto.com)
-->
<svg xmlns="http://www.w3.org/2000/svg" viewBox="0 0 200 200">
  <path d="M196.023 80.986l-.988-.602h-1.03l-1.12-.516h-4.038l-2.147.516h-2.02l-.472.602-1.03 1.03-1.118.474-1.246 1.03.73-2.533 1.118-2.62 1.03-2.536V74.2H182.062l-1.245 2.663-.773 1.976-.988 2.663-1.03 2.49h-3.395l1.245-2.49 1.03-3.136.603-2.535.515-2.148H176.39v1.632l-.987 1.547-1.03 2.49-2.02 4.64H169.218v-.987l.258-.516v-.988l1.246-1.117v-2.02l.516-1.503-.515-1.03v-1.633h-1.502l-.515 2.147-.472 2.02-.515 2.018v2.105l-.515.516-.515.988-.602.515-.516 1.03-7.174 1.117-4.167.988H150.7l-4.124.516-1.03-2.018-.603-2.62-.515-2.02-1.03-2.664h-.473v-.472l-.516-.515-.516-.515V75.83l-.472-.515v-1.117l-.516-.515h-.515l-.514-.472-1.633-.515V70.16l-.988-1.633-1.03-.988-.99-1.505-1.117-1.547h-1.03v-.602l-.516-.515v-.514l-.472-.472-4.167-3.652-2.535-2.02-.988-1.03-.515-.988-5.155-2.664-3.137-2.02-.988-.47-1.03-1.032-5.156-.602-5.156-.515-5.156-.987-4.683-.516-.472-1.503V42.75l-.515-1.03V39.7l-.515-.987v-7.821l2.018-2.02.774-.987 1.246-1.03 1.117-.603 1.503-2.535.774-.988.988-1.03.773-.603v-2.532h-4.64l-2.535.515-1.503.472-1.633.258-1.03-4.382 1.632-2.792.516-.73 1.03-.515H96.485v2.534h-1.76l-.516.473h-.774l.515 1.03v.516h.517l.473 1.117.515-.515h2.149l.515-1.117V10.874l-.515-.602v-.516l-.515-.515-.604-.472h-1.03l-1.247-.516h-1.76l-1.032-1.03-1.117-.99-.516-.515-1.503-1.634h-1.504L85.66 5.72l-.516 1.503-.99 1.547-.773 1.503-.256.602-.988.515h-.516l-.515.515-.602.515v.472l-.516.516v2.535l.516.602v1.03l.602.474h2.018v-.989l.257-.516v-1.117l-.257-.516v-.987l-.516-.515h2.535l1.89 1.246.988 1.29v1.632l.516 2.492-4.64 1.03-1.29.602h-1.502l-1.118.516.516.515v.988l1.117 1.03.987.99 1.29 1.632 2.877 2.02.988 1.502.773 1.633.515 1.03.472 2.02v2.62l.773 2.535v5.67l-4.038 1.504-4.125 1.633-4.167 1.503-4.425 1.504-1.246 1.633-1.504 1.03-1.632 1.505-1.762.988-2.276 3.137-1.633 2.02-1.246 1.03-.772 1.118-.515 1.03V67.54l-.472.474-.514 1.03-1.116 1.118-1.03 1.03-1.246.99-.258 1.503-.988 1.632-.516 1.547-1.03 1.504-1.118 5.155-.515 2.622-.474 1.503-1.03 1.547v3.136l-.473 3.522-.515 3.137v3.136l-4.167 1.03h-3.136l-4.553.516h-7.775l-1.03-.516-.474-.516-.772-1.117c-.774-.514-1.376-1.03-1.89-1.503-.345-.515-.516-1.203-.516-2.02 0-.17 1.074-.6 3.18-1.288.644 0 1.16.17 1.503.515v2.018c-.172.344-.258.602-.258.773 0-.172.172-.257.516-.257h.214v.256h.515l.516-.515.515-.514v-2.018l-.515-.603-1.504-.516-1.03-.516H26.37l-.515.515-.515.515-.472.602-.515.515-.258.516-.258.988v1.505l.257 1.03.515.602.472 1.03 1.29.99v.514h-.516v.516l-1.503.472h-4.641l-1.03-.472-.99-.516-.515-.515-1.118-1.503-.516-1.117V99.502H16.664l1.03-.515h.473v3.136l.515.515H20.185V100.02l.515-.515-.515-.515-.73-.516-.258-.988-.515-.515h-2.017l-.603-.603-.516.602-.515.514-.514.516-.472.988v2.02l-.258 1.63v4.04l-3.91.257c.345-.344.732-.687 1.118-1.03.172-.344.43-.645.773-.99l-.773-.514-2.105 2.793-.774-3.78h-.99l.215 3.265-2.362-2.02-.258.26c-.344 0-.6.085-.773.257l2.148 2.018-2.88.602v1.503l2.622-.214-1.117 1.976.86 1.03 2.276-2.79v3.048l1.03.603v-1.89c-.17-.988-.343-1.503-.514-1.503l2.277 1.503.86-.472-1.376-1.504 4.167-.257.215.472v3.048l.515 1.118.515.988.516 1.03 1.118 1.505.516 1.116h.988l.515-.602h2.018l.603-1.03V116l.516-.514v-1.503l-.516-.516h-1.631v.988l-.472.516v1.032l-.516-.515h-.515l-.515-.515-.472-.516v-4.638l.472-.517 1.03-.472.99-.516h5.154v3.522l.514 1.118.515 1.03 1.118.99 2.02 2.018 1.502-.516 1.03-1.76c-.17-.173-.428-.56-.772-1.247-.515-.602-.902-.86-1.246-.86l-1.03 1.118c.17 0 .342-.086.514-.258.343 0 .6.172.773.516v1.503l-1.03-.515c-.515-.17-.73-.343-.73-.515l-.516-2.62v-.99l.516-.514v-2.018l.988-.515 1.503-.602 1.032-.515 1.118-.515h4.64l4.038-.515 4.683-.472 4.125-.516V108.315l1.03 1.503.99 2.018.514 2.62 1.632 2.536h.988l-.472-1.504-.516-1.503-1.03-2.15-.603-1.502V105.177l.6-.516.517-.515h1.03l1.762-.988h2.878l2.75-.517 4.424-.515 6.916-1.375c-.343.516-.6 1.16-.73 1.89-.343.516-.6 1.074-.773 1.762.172 0 .858-.172 2.02-.516 1.074-.173 2.233-.302 3.393-.473.988-.172 1.848-.344 2.535-.515 0 1.332.086 2.02.344 2.02-.258-.173-.43-.26-.602-.26-1.03 0-1.504.173-1.504.517l.473.987c.344-.172.687-.258 1.03-.258.388-.173.69-.258.86-.258l.258 2.148 1.247-.86v-1.504l2.277-.515v-1.03l-2.277.516-.473-1.762 6.66-1.374c-.173-.344-.43-.687-.774-1.03-.3-.13-.644-.388-.988-.73l3.78-.516 6.788-.988v.472l.515.516v.515l.472 3.135.516 2.535v4.123h-.988l-.515.517h-.515l-.602 1.03-.515.99-.516.515-.73 1.117v3.522l.73.515.516 1.116v.516l.515.515 2.62 1.504 1.247.99.773 1.03.515.602 1.118 5.155.515 6.186.516 5.155v2.534l-2.664.473h-3.007l-2.664.516h-2.49l-5.67-1.503-3.652-.988-3.652-1.548-6.186-2.112v-1.03L70.278 134l-3.136-2.536-3.137-2.02-2.534-2.147-.987-1.503-1.03-2.02-1.118-1.632-1.246-2.02h-.516l-.258-.47H55.8l2.02 4.123 1.03 2.02 1.12 1.502.987 1.633 3.05 2.534 2.62 2.02 4.168 3.136 6.66 4.683.772.472h1.246l1.03.515h.603l1.03.515 1.763.473 3.393 1.03 6.143 1.118H99.108l2.534.516h2.622l.773 4.64.515 5.155 2.363 7.947.515 4.64c-.172 0-1.203-.56-3.136-1.76l-2.534-1.89-.516 1.288c1.203.902 2.62 1.89 4.295 2.878 1.762.86 2.664 1.418 2.664 1.76l.473 2.665-6.66-4.167c0 1.332.087 2.02.26 2.02.17 0 1.245.6 3.263 1.89 2.105 1.16 3.137 1.846 3.137 2.018l.257 2.62-6.4-3.65-.516 1.29 7.174 3.865v2.02l-6.4-3.78v2.276l6.658 4.167.988 4.64-3.007-1.375-.258 1.375 3.006 1.246c-.473.17-1.074.343-1.762.514-.644.172-1.074.258-1.246.258v.773c0 .13.086.387.258.73l3.007-.988c-.344.472-.644 1.117-.988 1.805-.344.73-.6 1.074-.773 1.074l.257.258c.17.17.257.343.257.515l1.762-2.923.772 3.394h1.633c-.172-.644-.257-1.245-.257-1.76 0-.73-.086-1.46-.258-2.105.515.3.988.56 1.504.73.515.344 1.03.687 1.503 1.03l.773-.772-3.265-1.76 3.523-.774v-1.246l-4.296 1.246c.516-.3 1.03-.645 1.504-.988.343-.172.773-.43 1.29-.773l-.516-1.376-2.277 1.375-1.117-4.9 4.382-3.393c0-1.332-.086-2.02-.258-2.02l-4.382 3.266-.515-2.233c0-.344.644-1.074 1.89-2.148 1.16-.86 2.105-1.504 2.792-2.02v-1.245l-4.683 4.124-.515-2.62 4.167-4.425v-1.504l-3.91 3.653-.73-2.406c0-.172.473-.73 1.503-1.76 1.074-.817 1.977-1.548 2.62-2.106l-.47-1.288-3.652 3.91-.774-4.898-1.502-8.205-.515-6.274v-4.64l2.018-.515 2.02-.514 1.633-.516 2.02-.473.257-.515 1.246-.515 1.633-.472 2.79-1.03v-.516l.73-.603v-.516h.516l.516-.514h1.117l.987-.472.773-1.03 1.762-.99 2.148-1.63 3.007-2.02 1.633-2.02 1.503-1.632 2.535-3.05 1.632-3.136 1.03-3.007.99-2.665.515-1.503 2.018-7.174 1.118-4.124.516-2.148.472-1.03v-2.492l.515-2.664V90.7l3.652-.515 4.64-.988 4.553-.516 3.652-.514-.258 1.504-.258 1.03-.515 1.12-.473 1.502V96.975h1.502V95.85l.515-1.03v-.473l.472-1.03.515-1.504.516-1.118 1.117-1.503.515-1.03h2.277l-.515 3.135-.258 2.02v2.018h1.502l.515-2.02 1.117-2.018.515-2.105.515-2.02h1.504l.515-.515h.47v.988l.516 1.03v2.02l-.515 1.118-.73.515-.514.988v2.02H175.87l.516-.99 1.118-2.018.515-2.664 1.503-3.523.515-.6h2.02l1.117.6.515.516h.515l.473.516h2.02l1.63.472H191.38l.472-.472h.515l.515-.516h.602L194 85.54l.514-.516.516-1.03.472-.473.515-.514h.773l.73-.516v-.988l-1.497-.516zM86.517 12.42c-.902-.514-1.547-.858-1.89-1.03l.773-2.148c.73-1.332 1.29-2.49 1.633-3.523l1.246 9.192c-.517-1.16-1.076-2.02-1.763-2.49zm1.503 13.834c.172.17.344.386.516.602l.773-1.118v3.136l-6.187-6.143 5.928-.772v2.02l-2.018-1.247-.515.73c.515.172 1.03.344 1.503.516.344.172.773.344 1.29.515l-1.763 1.247c.173.174.3.346.473.517zm1.032-16.24c-.515-2.706-.773-4.124-.773-4.295.342.686.858 1.417 1.502 2.276.688.988 1.246 1.503 1.633 1.503-.387.17-.773.73-1.117 1.632-.516.86-.773 1.847-.773 3.05l-.473-4.167zm-72.13 98.295c-.345.515-.774.987-1.377 1.503 0-2.988-.13-4.674-.39-5.065l3.01 2.186c-.47.558-.9 1.03-1.244 1.375zM91.07 21.7l7.302-1.117c-.687.773-1.804 2.062-3.437 3.91-1.504 2.104-2.406 3.307-2.75 3.65-.343-1.288-.6-2.147-.772-2.663h1.03c.516 0 .73.172.73.516.173 0 .26-.258.26-.773v-.472l-1.504-.515 1.504-1.245c-.172-.172-.258-.344-.258-.516-.13-.172-.215-.344-.215-.515l-1.546 2.018c-.215-.988-.344-1.676-.344-2.02V21.7zm-14.866 80.68l3.007-9.537c.344.472 1.074 1.418 2.148 2.75 1.032 1.588 1.677 2.748 2.02 3.393.516.515.988 1.116 1.504 1.76l-8.678 1.634zm20.278-13.19v7.175l-3.523.602-3.908.515-2.792.516-7.52-7.56c-.686 1.416-1.46 3.05-2.275 4.896l-1.633 3.136-2.534.516-2.02.515-2.62.516-2.534.472-3.137.516h-9.324l-.73-.988-.516-1.03V95.333l1.76-6.143 1.12-4.167.514-3.007.517-3.18.472-.47.514-.516.258-.516.515-.988.73-.516v-1.117l.516-1.03v-.99l1.633-2.018 1.503-1.632 1.502-2.02 1.633-2.018 3.523-3.137 3.652-2.534 2.534-2.62 1.117-1.032 5.07-.988 3.65-1.03 3.138-.603 4.64-.514.515 4.167.515 4.124.472 3.65 1.03 7.69-2.533-.515c-1.933-.3-3.05-.472-3.394-.472v.73c-.172.344-.258.687-.258 1.03l5.67 1.247-5.67.773.258 2.105 5.413-.988-3.394 3.78c.344.172.86.473 1.633.86l.773.773c0-.172.3-.902.988-2.148.688-.988 1.075-1.503 1.246-1.503l.258 4.638v1.504l.516 1.547.515 1.632v2.02zm2.104-.515l-.472-3.65L97.6 81.5l-.514-4.424 3.78 1.03c.172-.343.258-.686.258-1.03.172-.172.257-.387.257-.73l-3.78-1.03c.688 0 1.505-.216 2.535-.603.988-.172 1.805-.258 2.363-.258v-1.76l-4.64.73 2.75-3.008c-.344-.344-.645-.773-.99-1.375l-.514-.516-2.88 3.136-.772-7.776-.73-3.522v-4.167l-.515-4.167h1.762l2.147-.472h1.246l2.276-.516 1.632.516h5.67l2.492.988 2.664 1.118 2.49 1.03 2.665.516 2.02 1.504 2.62 1.504 2.02 1.632 2.018 1.504 1.633 1.504 1.03 1.632 1.505 1.547.472 1.504h1.546l.602.474h.515l.515.515v.515l.472.515.515.602v3.05l.258.472.515.515h2.363V76.862l1.032 1.976.516 1.547.988 1.632.258 1.976v1.03l.515 1.118v2.02h-.516l-.258.515h-.515l-.47.516-4.426.473-3.394 1.03-3.522.603-4.167.516-.515-.516c-.13-.387-1.03-1.117-2.62-2.105-1.504-1.03-2.708-1.546-3.523-1.546-.344 0-.515.086-.515.258-.73.344-1.633 1.03-2.62 2.02-.86 1.245-1.505 2.233-2.02 2.92l-.516.473-2.62.516-2.02.516-2.663.472-2.49.515H99.62l-.515-3.522-.517-3.135zm19.892 6.4c.687-.17 1.29-.256 1.76-.256l.516 1.288V98.256l-4.167-2.922c.687-.17 1.33-.258 1.89-.258zm-2.106-2.017c.13-.472.56-1.203 1.246-2.105l.602-1.03c.172 0 .43.343.773 1.03l.258 1.375-2.88.73zm4.125-3.652l3.393 2.664-2.88.258-.514-2.922zm4.896 4.425l-1.246 1.504c-.73 1.418-1.203 2.32-1.375 2.664-.17 0-.343-.43-.515-1.29-.344-.9-.558-1.632-.73-2.105l3.866-.772zm-21.61 24.273l-1.03.515-.516 1.03h-1.633l-.472-.514h-.515v-.516h-.515l-.516-1.632-.473-.988v-3.05l.472-.602h.515l1.03-.516H104.262l.515.516V116.47l-.515 1.03-.473.603zm41.157-22.77v1.032l-.515 1.117-.515 2.534-1.246 5.628-2.277 8.806-1.632 3.05-1.504 3.137-1.504 3.136-1.633 3.05-3.05 2.62-2.62 2.536-3.05 2.62-3.137 2.534-2.49.988-1.548 1.03-1.117.603-1.504 1.03-2.018.516-2.148.473h-2.02l-2.104.515-.516-.515v-.988l-.515-.516-.517-.516v-3.652l-.472-2.62-.515-2.02-.515-2.534V120.636l.773-.516.515-.988 1.246-1.03.516-1.118v-4.038l-.516-1.118-.515-.515-1.247-.988-.258-.515-.515-.516h-.988l-.515-.472-.516-.516-.6-2.148v-2.49l-.516-2.15-.773-2.533 2.923-.988 2.02-1.03h2.018l3.137-1.12h.988l1.03.517h2.622c.172 0 1.29.602 3.394 1.89 2.02 1.16 3.266 1.76 3.78 1.76.516-.17 1.29-.944 2.407-2.275.988-1.59 1.59-2.58 1.76-2.923l.99-.988 4.166-.517 3.652-.988 3.523-.515 5.155-.516.515 2.02.515 1.03v.99zm47.428-10.31c-.686.774-1.674 1.118-3.006 1.118-1.59 0-3.308-.514-5.155-1.632l9.28-.988c-.217.344-.604.817-1.12 1.504zm-8.934-1.503c.344-.343 1.074-.86 2.276-1.504.988-.687 2.363-1.03 4.124-1.03 1.203 0 2.578.428 4.167 1.245l-10.567 1.29z"/>
  <path d="M101.64 113.98h-1.032l-.73.47v2.021h2.878l.516-.472V114.45l-.516-.47z"/>
</svg>
