<!--
  SVG Music Logos
  Roger Waters - The Wall Live v1.0.0
  https://github.com/tiagoporto/svg-music-logos
  Copyright (c) 2016 Tiago Porto (http://tiagoporto.com)
-->
<svg xmlns="http://www.w3.org/2000/svg" viewBox="0 0 200 122">
  <path d="M194.986 3.08h.236c.018.64-.833.565-1.18.706-3.32 1.36-6.526 3.45-9.55 5.306-1.713 1.052-3.465 2.182-5.07 3.42-1.598 1.233-3.287 2.316-4.834 3.536-4.75 3.75-9.52 7.28-13.795 11.555-1.4 1.4-3.166 2.445-4.244 4.127-3.57 2.68-6.01 6.488-9.08 9.668-.626.44-.98 1.14-1.533 1.65-.516.477-1.294.81-1.415 1.652-1.504.658-1.89 2.433-3.302 3.183-1.213 2.245-3.494 3.424-4.598 5.778-1.407 1.07-2.218 2.735-3.773 3.656-.077.47-.55.546-.826.825-1.25 1.263-2.693 2.78-3.89 4.246-.49.597-.968 1.142-1.416 1.77-2.668 3.727-5.62 7.238-8.372 10.964-.925 1.253-1.703 2.593-2.594 3.89-.875 1.275-1.777 2.552-2.594 3.892-1.165 1.912-2.317 3.553-3.537 5.542-2.264 3.69-4.298 7.842-6.484 11.908-1.214 2.26-2.35 4.653-3.42 7.075-1.07 2.425-2.272 4.954-2.593 7.664-.318.312-1.097.16-1.415.472-.173 1.156.374 1.59.354 2.594-.423.775-1.644 1.016-2.476.472.167-1.21.184-2.567.47-3.655-.194-.59-1.08-.49-.824-1.532.44-.215.27.205.354.708 1.017-.66.807-2.092.943-3.065 2.374-16.986 7.286-32.236 12.615-46.337-.47-.017-.614.546-.826.825-.624.824-1.435 1.697-2.123 2.595-2.673 3.487-5.554 6.982-8.254 10.61-3.58 4.815-7.135 9.728-10.258 14.975.222.393-.112.662.236.825-.275.55-.914.736-.825 1.65-.815.403-1.02 1.35-1.532 2.123-.443.67-1.085 1.292-1.533 2.004-2.252 3.587-4.437 7.52-6.485 11.437-.223.426-.42.78-.59 1.178-.45 1.053-.716 1.654-1.415 2.712-.822 1.246-1.615 1.493-3.066.59.176-.738.647-1.537 1.06-2.476 1.084-2.45 2.087-5.296 3.067-8.018 3.24-9 6.23-18.3 9.316-27.826.22-.68.567-1.716.943-2.712.392-1.04 1-2.07.825-2.594-.185-.555-.912-.61-1.533-1.06-.608-.442-1.156-1.216-1.768-1.77-3.512-3.172-6.96-6.917-11.32-9.55-1.417-.857-1.775-1.23-3.3-.943-.404.077-.85.035-1.06.12-1.566.62-1.996 2.716-2.83 3.89 1.828-.057 3.886-.907 5.776-1.297-.22.66-1.435 1.028-2.24 1.297-.476.16-.948.168-1.414.354-.803.32-1.877.825-3.066 1.06-1.678 2.213-3.01 4.772-4.127 7.547-.176.36-.354.066-.59.237-.448.416-.48 1.25-1.178 1.415-.092-.8.397-1.553.707-2.24.915-2.027 2.114-4.22 3.184-6.25-1.636.566-3.21 1.194-5.07 1.534.256.177.664.2 1.06.236-.656.364-1.608.196-2.593.236-2.346.094-5.596.262-7.31-.944-1.523-1.07-2.324-3.345-1.297-5.66-1.323-.017-2.797.27-4.01-.236-1.058-.442-2.142-1.728-2.12-2.948.022-1.358 1.324-2.757 2.24-3.773 2.73-3.035 6.816-5.767 10.02-7.664.323-.107-.208-.413.12-.59 1.41.092 2.492-1.405 3.89-1.297.547.042 1.068.306 1.18.825.16.752-1.03 1.935-1.652 2.36-.297.202-.418.426-.825.235-.408-.563.933-.796.47-1.415-.608-.318-1.164.114-1.65.354-2.215 1.094-4.475 2.634-6.367 4.245-.762.648-1.4 1.59-2.476 1.768-.626.862-1.546 1.473-2.24 2.476-.342.494-1.307 2.22-1.18 2.948.326 1.85 3.858 1.423 5.543 1.297 1.1-1.18 2.164-2.396 3.183-3.656-1.02.324-2.035.343-2.948.707-.75.3-1.493 1.163-2.358.472 1.64-1.78 4.186-2.524 6.84-3.3 3.388-.994 6.854-1.643 10.73-2.36.836-.154 1.97-.54 2.71.12-.35.943-1.615 1.06-2.475 1.296-1.99.545-3.984.977-6.013 1.533-.48.132-.93.366-1.416.473-.574.126-1.222.067-1.65.236-1.6.63-2.053 2.447-3.42 3.182-.353 2.025-3.405 2.735-2.593 5.895.508 1.977 2.558 2.507 4.717 3.066-.098-.897-1.327-1.263-1.533-2.24-.663-3.158 2.8-5.06 3.655-7.074-.65.136-1.22.352-1.77.59-.135-.69.673-1.027 1.18-1.298.582-.312 1.33-.486 1.886-.826.74-.45 1.133-1.184 1.886-1.415.204.072-.01.56.236.59 2.804-1.045 6.61-1.717 10.14-2.593 1.157-.287 2.492-.292 3.42-.707.44-.197 1.036-.82 1.532-1.297 1.405-1.35 2.923-2.68 4.598-3.89 2.347-1.7 5.032-3.605 7.547-3.892 2-.227 3.766.622 3.773 2.595.002.613-.395 1.322-.708 1.887-.68 1.225-1.78 2.748-2.594 3.537-1.538 1.492-3.317 2.2-4.598 3.654-1.432.52-2.708 1.37-4.245 1.887-1.53.515-3.166.815-4.834 1.298 3.922 2.754 7.506 5.927 10.964 9.55.42.442 1.124.984 1.768 1.652.77.796.94 1.654 1.768 1.533.652-.096.77-.972 1.06-2.24.542-2.343 1.534-5.588 2.124-7.546 2.067-6.87 3.597-13.073 5.07-20.633.996-5.115 2.038-9.788 1.65-15.564-.216-3.232-.853-6.382-2.71-7.9-.362-.295-1.26-.41-.826-1.06.255-.468.96-.23 1.297-.12.29.097.742.457.943.59 1.74 1.15 2.508 2.828 2.83 5.424.273 2.2.23 5.037-.118 7.428-.218 1.495-.236 3.05-.47 4.598-.606 3.976-1.205 7.897-2.124 11.673-.087.356-.288.675-.354 1.06-.047.277.068.722 0 1.062-.3 1.496-.965 2.728-1.297 4.362-.087.432-.343 1.03 0 1.415-.484.378-.538 1.068-.707 1.65-.563 1.94-1.31 4.43-1.768 6.722-.826 1.618-1.176 4.163-1.77 6.013-.535 1.672-.968 3.295-1.532 4.834.2.783 1.267.7 1.415 1.534-.534.264-1.015-.136-1.415-.354-.5.86-.763 1.875-1.06 2.83-.063.2-.312.374-.355.59-.048.24.068.476 0 .707-.503 1.708-1.26 3.802-1.886 5.66-.385 1.142-.673 2.33-1.06 3.42-1.208 3.385-2.336 6.67-3.538 9.903-1.18 3.173-2.422 6.577-3.538 9.904.9-.912 1.453-2.113 2.122-3.184.672-1.074 1.566-2.09 1.886-3.42 2.215-2.5 3.71-5.72 5.66-8.49.273-.26-.04-.46 0-.824 1.382-1.33 2.694-3.418 3.89-5.188 2.82-4.172 5.64-8.484 8.608-12.616 1.987-2.765 3.963-5.507 6.013-8.135 2.053-2.63 4.574-4.896 6.132-7.9.975-.18 1.562.483 1.65 1.06.118.76-1.685 2.63-2.24 3.184-.53 1.67-1.205 3.25-1.886 4.953-2.43 6.077-4.558 12.866-6.485 19.572-.883 3.077-1.335 6.308-2.12 9.55-1.033 4.255-1.807 8.708-2.36 13.206.39-.38.63-.938.826-1.414 3.042-7.407 6.89-14.346 10.966-20.987 4.327-7.05 8.602-14.064 13.56-20.517.417-.093.85-.17 1.06-.472.35.3.146-.4.354-.47.217-.076.395.292.472.235.25-.186.295-.66.59-1.06.593-.81 1.8-1.73 2.122-2.83 1.378-1.046 2.17-2.66 3.3-4.01 1.904-2.27 4.014-4.833 6.014-7.192.334-.395.728-.686 1.06-1.06.17-.192.184-.52.355-.71.147-.162.44-.193.59-.353 1.313-1.41 2.368-3.042 3.772-4.363 1.404-1.72 3.084-3.228 4.598-4.952.112-.127.362-.08.472-.236.083-.12.02-.37.118-.473.653-.67 1.554-1.176 2.24-1.886 1.35-1.398 2.668-2.733 4.127-4.126.327-.312.73-.618 1.06-.943.594-.582.842-1.19 1.77-1.414 1.4-1.784 3.314-3.053 4.952-4.6.245-.256.335.06.706 0 5.815-4.925 12.44-10.184 19.337-14.62 3.936-2.53 8.498-5.354 13.44-6.72.167-.046.22-.05.353-.117zM85.096 44.7c-.8.412-1.854.602-2.83 1.06-1.184.56-2.426 1.22-3.418 1.77-1.222.675-2.24 1.418-3.184 2.122-.163.623-.69.88-.708 1.65.946.12 1.78-.497 2.594-.117-1.94 1.597-6.623.452-6.72 3.89.2.192.676.11.588.59-.648.553-2.023.667-2.475 1.062.726.368 1.3.51 2.122.354 1.25-.238 3.04-.916 3.89-1.296 4.693-2.1 10.082-4.86 11.556-9.668.164-.387.737-.364.59-1.06-.266-.526-1.818-.452-2.003-.356zm-20.75 10.022c-1.645.798-3.715 1.12-5.66 1.65-.82.225-1.996.464-2.475.826-.393.297-.456.826-.707 1.18-.425.596-1.098 1.01-1.18 1.767 4.236-1.66 8.694-3.098 13.442-4.244.512-.667 1.1-1.26 1.65-1.886-.015-.236.802-.548.237-.59-1.778.425-3.226 1.177-5.306 1.298zm1.533 2.83c-1.183.247-2.242 1.11-3.538 1.532-.236.077-.58.02-.826.118-.562.222-1.03.713-1.65.943-.164.06-.64.026-.943.118-1.006.308-2.18.967-3.537 1.533-1.36.568-3.75 1.33-3.183 3.066.6.62 1.57.676 2.712.59 2.317-.176 4.95-1.042 6.84-1.415.587-.577.908-1.363 1.414-2.122.628-.942 1.693-1.83 1.65-2.83.538-.053 1.668-1.25 1.18-1.533h-.12z"/>
  <path d="M35.812 15.46c.118.354-.262.208-.472.235.08-.158.253-.22.472-.236z"/>
  <path d="M17.537 50.005c6.25 1.99 8.957 5.12 11.91 10.376 2.76 4.918 2.623 12.103 5.776 16.39.69.938 1.454 1.788 2.476 2.476.168.114.492.102.707.236.223.14.297.387.47.472.83.402 2.046.78 3.067 1.06.285.08.853-.13.943.355-2.488-.252-4.352-.733-6.13-1.652-.546-.282-1.236-.523-1.652-.825-2.46-1.79-3.702-5.063-4.598-8.253-.94-3.345-1.383-6.95-3.066-9.786-.12-.272-.79.003-.706-.47h.47c-2.514-4.06-5.717-8.445-11.553-9.198-.78-.1-1.755-.26-2.475 0-.72.26-1.49 1.53-2.122 2.358-.707.93-1.28 1.858-1.77 2.594-.604.91-1.332 1.637-1.885 2.476-.583.884-.915 1.94-1.77 2.594-.503 1.42-1.224 2.626-2.12 3.655-.615 1.115-.693 2.767-2.005 3.183-.048-1.623.88-3.007 1.533-4.363 1.966-4.087 4.206-8.057 6.72-11.673-.275-.47-1.443-.05-1.65-.59.574-.878 1.72-1.186 2.948-1.414 2.78-3.374 5.876-7.438 9.904-10.965 1.886-1.65 3.86-3.102 6.013-4.48 2.178-1.39 4.494-2.903 7.193-3.182 2.986-.31 5.01 2.446 3.537 4.834-.47.762-1.3 1.53-2.004 2.24-2.045 2.06-4.44 4.104-6.956 5.777-3.503 2.326-7.483 4.14-11.203 5.775zm16.98-16.624c-1.27.25-2.104.827-3.185 1.416-1.607.875-2.762 1.873-4.127 2.83-.708.496-1.493.917-2.122 1.415-1.993 1.578-3.705 3.335-5.424 4.953-.638.6-1.09 1.314-1.652 1.886-1.018 1.034-2.238 1.708-3.065 2.71-.213.258-.887.946-.472 1.062 1.157-.062 1.792-.645 2.95-.707 3.476-1.445 7.354-3.015 10.728-5.306 1.474-1.002 3.04-2.208 4.48-3.538 1.262-1.164 2.995-3 3.538-4.48.255-.694.31-1.36.118-2.122-.558-.24-1.19-.234-1.768-.12z"/>
  <path d="M187.44 41.634c.895-.05 1.39.727 1.06 1.533-.46.233-.776-.195-1.18-.354.034-.4-.09-.956.12-1.18z"/>
  <path d="M177.77 43.167c.346.008.44.27.59.472.227-.05.093-.458.47-.355.342.327.85.227 1.18.472.414.305.327.87.826 1.06.097 1.06-.12 1.758-.826 1.887-.71.13-1.052-.508-1.65-.707-.073-.87-.665-1.222-.826-2.005.105.092.267.127.472.118.09-.48-.38-.406-.235-.943z"/>
  <path d="M174.824 45.76c.126.515-1.31.396-1.06 1.416-1.063.314-2.302.45-3.067 1.06-1.935.265-3.837 1.255-5.66 1.77-1.116.315-2.13.25-2.947.825-.557.394-.93 1.085-1.415 1.652-1.358 1.584-2.783 3.27-4.362 4.716-.063.41-.316.628-.354 1.06-2.19 1.735-4.003 4.176-6.014 6.368-.543.59-1.233 1.938-2.358 1.18.826-2.258 2.737-3.562 4.127-5.307.854-1.072 1.32-2.454 2.24-3.538-.483.07-.692.194-.707-.118-1.644 1.296-5.525.97-6.957 2.594-.124.142-.19.418-.353.59-.39.412-1 .703-1.297 1.06-.564.682-.95 1.564-1.533 2.24-.724.842-1.663 1.48-2.594 2.24-.626 1.144-1.532 2.006-2.476 2.83-.235.436.028.833-.118 1.18-.998-.21-1.632-.074-2.124.472.162-1.195.99-2.088 1.65-2.948 1.942-2.53 4.144-4.922 6.132-7.546-1.373.044-3.26.778-4.834 1.18-.843.214-1.78.22-2.594.47-.78.24-1.49.618-2.24.827-.757.21-1.553 1.26-2.24 2.004-1.73 1.873-3.867 4.055-4.835 6.603-.688-.02-.722-.693-1.18-.944 1.3-2.866 3.57-4.762 5.543-6.956-.483-.244-1.794.437-2.24-.118.75-1.144 2.446-1.094 3.655-1.65.995-.46 1.674-1.26 2.358-1.887 2.783-1.366 4.378-3.356 7.31-5.66.835-.655 1.87-1.37 3.067-2.122 1.012-.636 2.708-1.676 3.537-1.533.825.143 1.758 1.5 1.887 2.358.25 1.677-1.13 2.603-1.297 4.01-.342.09-.678.185-.825.47 1.05-.008 2.108-.27 3.183-.47 1.034-.193 2.32-.21 3.185-.59 1.332-.59 2.13-2.69 3.183-3.656-1.587.36-5.175 1.388-4.952-.943 7.92-1.004 14.278-3.568 21.578-5.19zm-29.95 7.665c-.732.456-1.605.82-2.24 1.297-.584.44-1.064 1.078-1.65 1.533-.678.526-1.473.895-1.886 1.297-.265.258-.345.698-.59.943-.09.09-.46.127-.59.236-.224.193-.3.314-.353.59 2.55-.79 5.446-1.235 8.018-2.003.896-1.856 2.33-3.17 2.83-5.424-1.65.14-2.308.766-3.538 1.532z"/>
  <path d="M181.78 45.76c1.843-.38 2.59 2.048 1.297 2.24-.882.132-1.242-1.016-1.533-1.768.208-.028.27-.203.236-.47z"/>
  <path d="M36.99 48.826c1.645-.73 3.464 1.266 3.54 2.594.04.745-.656 1.95-1.062 2.712-.46.86-1.436 2.083-2.123 2.594-.743.552-2.07 1.273-3.42 1.06-1.42-.222-2.613-1.692-2.357-3.772.044-.356.44-1.315.707-1.886.69-1.485 2.836-2.828 4.716-3.302zm-3.654 7.193c1.994.896 3.656-.666 4.598-2.123.69-1.065 1.22-2.604.708-3.655-3.397-.278-5.618 2.724-5.306 5.777z"/>
  <path d="M174.588 61.796c1.134 1.7 2.577 3.615 4.01 5.542 1.358 1.827 2.815 3.858 4.598 4.952 1.837 1.128 4.045 1.557 6.838 1.65-.846.39-1.898.302-2.712.237-5.294-.422-8.066-2.732-10.61-6.013-1.57-2.022-2.423-4.492-4.835-5.542-1.4 1.037-2.67 2.727-3.773 4.48-.548.87-.637 1.904-2.004 1.77-.18-1.043.68-1.812 1.178-2.595 1.477-2.323 3.17-4.74 5.07-6.72.43-.186-.274-.176-.118-.472 1.54-.623 2.288-2.036 3.655-2.83.24-.075.078-.55.354-.59.896-.624 3.417-1.82 5.305-2.357 1.083-.308 3.132-1.105 4.245-.236.367.287.73 1.192.707 1.65-.068 1.363-1.526 1.52-2.122 2.595-1.527.58-2.946 1.56-4.716 2.358-1.652.743-3.284 1.54-5.072 2.12zm6.25-6.25c-2.062-.392-3.045 1.268-4.6 1.77-.1.606-.455.96-1.06 1.06.068.384-.08.55-.12.826-.466.402-1.728 1.118-1.296 1.65 3.328-1.348 6.398-2.955 9.315-4.715.162-.35.247-.775.47-1.06-.893-.667-2.096-.27-2.71.47z"/>
  <path d="M163.15 53.542c.102.376-.185.365-.235.59-.33-.022-.502-.205-.47-.59.15-.16.555-.16.706 0z"/>
  <path d="M198.17 53.896c.286.677.443 1.35.235 2.24-.83.567-2.59 3.698-3.42 1.415.385-.754 1.375-.904 1.77-1.65-.606-.82-1.626-.187-2.24 0-1.038.316-2.215.56-3.303 1.06-1.49.685-2.7 1.418-3.655 2.477 1.908 1.713 6.977.878 6.25 4.834-1.733.94-3.15 2.198-5.66 2.36-.287.067.055.762-.354.706-.436.083-.293-.413-.47-.59-1.568.677-4.893-.77-2.95-2.83.217-.23.815-.508 1.18-.707.404-.22.807-.58 1.18-.355-.082.548-.767.492-.71 1.18-.544.358-1.257.55-1.296 1.414.234.42.945.137 1.18-.12 2.168-.19 5.222-.723 6.484-2.24-1.634-.854-3.902-.792-5.305-1.885-.743-.58-1.844-1.802-.943-3.066.158-.223.768-.564 1.18-.944.334-.31.627-.808.943-1.06.37-.297 1.05-.52 1.532-.826.42-.265.773-.69 1.06-.825.755-.353 1.878-.47 2.83-.707 1.68-.415 3.154-.538 4.482.118z"/>
  <path d="M175.06 53.896h.353c-.218.608-.927.514-1.415.707-1.17.463-2.303 1.164-3.3 1.77-.32-.086.083.555-.237.47-5.24 2.62-12.1 3.62-15.445 8.136 4.012-1.828 8.498-3.632 12.852-4.953.48-.146.863-.558 1.415-.354.02.53-.65.383-.943.59-.175.123-.154.39-.355.47-1.423.268-2.64.74-3.3 1.77-2.78 1.142-5.796 2.66-8.608 4.01-1.877.9-3.615 1.33-4.127 3.536.105.248.36.347.354.707.592.068 1.43.185 1.886-.354 3.76-.838 6.252-2.945 9.55-4.244-.494.762-1.352 1.162-2.122 1.65-1.022 1.027-3 2.157-5.306 3.183-1.424.634-3.167 1.898-4.717 1.533-1.138-.268-1.605-1.704-1.06-2.948-1.044.136-1.092 1.267-2.24 1.297.065-.725.818-1.055 1.296-1.415.486-.366 1.147-.645 1.534-1.06.86-.926 1.103-2.234 2.004-3.185-.06-.452-.694-.328-.707-.825-.067-.794 1.403-1.02 1.77-1.77 1.285-.218 1.634-1.422 2.476-2.475 1.065-1.33 2.208-2.522 3.42-3.773.548-.567 1.11-1.456 2.122-1.415-.432 1.113-1.44 1.83-2.123 2.712-.714.924-1.27 1.918-2.005 2.83 3.386-1.66 7.008-3.123 10.848-4.48 1.734-.614 3.474-1.162 5.07-2.005.54.037.655.12 1.06-.12z"/>
  <path d="M181.308 60.97c.503.048.255.846.943.708.41 1.17.177 2.552-1.65 2.358-.224-.247-.32-.622-.825-.59.125-.714-.377-.802-.59-1.178.382-.134.76-.34.472-.825.163.174.56.06.47-.354.283.082 1.096.31 1.18-.12z"/>
  <path d="M81.088 62.385c-1.094-1.178.897-1.687.825-.59-.025.396-.277.533-.825.59z"/>
  <path d="M170.107 80.425c.057.45-.033.753-.236.943-.992.158-1.216-.986-.942-1.415.455-.308.658.473 1.18.472z"/>
  <path d="M122.473 91.862v.707c-.47.2-1.073-.08-1.18-.59.042-.57.944-.34 1.18-.118z"/>
  <path d="M88.044 95.4c.32.07.462.323.472.706-.142.133-.214.336-.59.236.072-.282.17-.537.118-.943z"/>
  <path d="M87.1 95.87c.528-.014.558.467.59.944-.4-.085-.755-.662-.59-.943z"/>
  <path d="M86.866 96.46c.076.626-.296.805-.59 1.06-.107-.393-.156-.377-.236-.942.372.058.416-.212.826-.118z"/>
  <path d="M119.997 97.993v.59c-.542.414-1.153-.224-1.06-.472.22-.414.707-.33 1.06-.117z"/>
  <path d="M116.342 98.818c.426.014 1.352 0 1.533.59-.042.35-.188.598-.354.825-.922.097-1.3-.35-1.414-1.06.252.054.225-.17.236-.355z"/>
  <path d="M120.587 100.823c-.348.263-1.075.115-.943-.472.348-.26 1.075-.114.943.473z"/>
  <path d="M114.81 107.308c-.106.052-.212.103-.237.236-.446.013-.634-.23-.708-.59.105-.64 1.114-.305.944.354z"/>
</svg>
