<svg xmlns="http://www.w3.org/2000/svg" width="864.744" height="221.727">
  <path d="M850.571 196.284h-18.885c-9.621 0-17.423-7.798-17.423-17.424V49.026c0-19.249-15.604-34.853-34.853-34.853l-695.78.005c-18.623 0-33.79 14.618-34.764 32.997h-.09v13.886c0 9.624-7.807 17.421-17.431 17.421H14.174v9.99h17.171c9.624 0 17.43 7.802 17.43 17.426v66.8c0 19.251 15.6 34.856 34.853 34.856H200.42l102.02-.01h361.889c.017 0 .033-.01.052-.01l186.188-.01v-11.265h.003zm-620.45-17.478V105.9c0-9.628 7.802-17.43 17.423-17.43h78.883c9.63 0 17.437 7.802 17.437 17.425v72.91c0 9.626-7.806 17.43-17.437 17.43l-78.883.01c-9.624 0-17.423-7.806-17.423-17.432zm285.112 0v-72.907c0-9.624 7.808-17.426 17.426-17.426h78.886c9.625 0 17.43 7.802 17.43 17.426v72.907c0 9.625-7.805 17.43-17.43 17.43H532.66c-9.621 0-17.426-7.804-17.426-17.43zm231.443.054c0 9.626-7.805 17.427-17.43 17.427h-39.269c5.713-6.209 9.202-14.488 9.202-23.59v-59.355c0-19.253-15.607-34.858-34.85-34.858H485.537c-19.252 0-34.856 15.606-34.856 34.858v59.355c0 9.102 3.49 17.385 9.203 23.593H404.86c5.71-6.208 9.201-14.491 9.201-23.593V113.34c0-19.252-15.597-34.858-34.849-34.858l-178.793.003c-19.255 0-34.854 15.606-34.854 34.856v59.357c0 9.102 3.49 17.384 9.202 23.594h-47.13c-9.624 0-17.43-7.804-17.43-17.427v-72.967c0-9.625 7.807-17.427 17.43-17.427h17.172v-9.99h-17.171c-9.625 0-17.43-7.796-17.43-17.421V42.87c0-9.624 7.807-17.428 17.43-17.428h601.608c9.627-.005 17.433 7.8 17.433 17.424V178.86h-.003z"/>
</svg>
