<?xml version="1.0" encoding="UTF-8" standalone="no"?>
<!-- Created with Inkscape (http://www.inkscape.org/) -->

<svg
   xmlns:dc="http://purl.org/dc/elements/1.1/"
   xmlns:cc="http://creativecommons.org/ns#"
   xmlns:rdf="http://www.w3.org/1999/02/22-rdf-syntax-ns#"
   xmlns:svg="http://www.w3.org/2000/svg"
   xmlns="http://www.w3.org/2000/svg"
   xmlns:sodipodi="http://sodipodi.sourceforge.net/DTD/sodipodi-0.dtd"
   xmlns:inkscape="http://www.inkscape.org/namespaces/inkscape"
   id="svg2"
   version="1.1"
   inkscape:version="0.48.2 r9819"
   width="3000"
   height="600"
   sodipodi:docname="Amaranthe - Logo.svg"
   inkscape:export-filename="C:\Users\York\Pictures\Yorks Bilder\Musik\Amaranthe - Logo.png"
   inkscape:export-xdpi="62.142101"
   inkscape:export-ydpi="62.142101">
  <metadata
     id="metadata8">
    <rdf:RDF>
      <cc:Work
         rdf:about="">
        <dc:format>image/svg+xml</dc:format>
        <dc:type
           rdf:resource="http://purl.org/dc/dcmitype/StillImage" />
        <dc:title></dc:title>
      </cc:Work>
    </rdf:RDF>
  </metadata>
  <defs
     id="defs6" />
  <sodipodi:namedview
     pagecolor="#ffffff"
     bordercolor="#666666"
     borderopacity="1"
     objecttolerance="10"
     gridtolerance="10"
     guidetolerance="10"
     inkscape:pageopacity="0"
     inkscape:pageshadow="2"
     inkscape:window-width="1680"
     inkscape:window-height="988"
     id="namedview4"
     showgrid="false"
     inkscape:zoom="0.5"
     inkscape:cx="1500"
     inkscape:cy="300"
     inkscape:window-x="-8"
     inkscape:window-y="-8"
     inkscape:window-maximized="1"
     inkscape:current-layer="svg2" />
  <path
     style="fill:#000000"
     d="m 1276.7459,435.91433 c -6.0926,-1.43593 -13.1156,-5.47427 -17.0028,-9.77691 -6.8759,-7.6108 -8.7213,-13.30875 -12.6962,-39.20036 -6.7305,-43.8408 -17.2501,-64.50684 -37.7884,-74.23561 L 1202.5,309.5 l -20.7917,-0.32286 -20.7917,-0.32286 0.2917,52.82286 0.2917,52.82286 2.4452,4.26974 c 2.7197,4.74899 10.4842,9.23026 15.9929,9.23026 2.4065,0 3.0619,0.43287 3.0619,2.02237 0,1.99366 -0.511,2.02137 -36,1.95274 -33.9267,-0.0656 -36,-0.17292 -36,-1.86323 0,-1.35574 1.3276,-2.09072 5.4379,-3.01057 6.6778,-1.49443 11.3036,-4.50103 14.008,-9.10471 2.0298,-3.45517 2.0578,-4.69342 2.3627,-104.4966 0.1697,-55.55 0.02,-103.82171 -0.3318,-107.27047 -0.4804,-4.70438 -1.2966,-7.05032 -3.2677,-9.3929 -3.0014,-3.56689 -11.3868,-7.81239 -15.4591,-7.82686 -2.1059,-0.007 -2.75,-0.49174 -2.75,-2.06751 l 0,-2.05773 59.25,0.35739 c 66.7989,0.40294 63.739,0.0844 80.6825,8.39809 15.8971,7.80021 27.4567,21.38691 31.4833,37.00433 2.2697,8.80301 2.0826,23.53137 -0.401,31.57245 -6.8706,22.24423 -30.243,38.87994 -59.1284,42.08564 l -9.7623,1.08341 6.9724,1.77067 c 9.8193,2.49362 19.6522,7.97193 26.2785,14.64083 13.1362,13.22042 19.1438,27.37519 29.6348,69.82373 3.3573,13.58432 6.8022,26.0893 7.6552,27.78884 2.2996,4.58173 5.279,6.54264 9.9792,6.56785 7.6956,0.0413 11.3579,-5.67215 14.0878,-21.97776 l 0.9208,-5.5 1.3418,3 c 1.828,4.08701 2.4959,17.91947 1.0915,22.60682 -1.467,4.8966 -5.6158,9.79871 -9.7573,11.52915 -3.6609,1.52964 -18.558,1.69832 -24.5829,0.27836 z m -66.9593,-138.94962 c 28.9317,-4.69498 48.8086,-29.71075 45.2626,-56.96471 -1.6997,-13.06426 -7.1871,-24.05723 -16.3203,-32.69505 -11.0301,-10.43183 -14.775,-11.27802 -49.9789,-11.29308 L 1161,196 l 0,50.33333 c 0,27.68334 0.3,50.63334 0.6667,51 1.0631,1.06312 41.1915,0.75572 48.1199,-0.36862 z M 40,429.96635 C 40,428.40624 40.685595,428 43.318499,428 c 8.421247,0 21.196034,-6.26624 27.566527,-13.52183 2.477861,-2.82213 9.171301,-22.10504 40.233814,-115.90826 20.4938,-61.88762 37.40275,-112.38166 37.57543,-112.20898 0.50505,0.50506 4.4164,11.86403 24.32385,70.63907 10.339,30.525 26.27368,77.55 35.4104,104.5 9.13673,26.95 17.63313,50.43623 18.88089,52.19163 4.88091,6.86659 14.07618,11.78355 25.94059,13.87113 2.81059,0.49453 3.75,1.14347 3.75,2.59047 0,1.87927 -1.02872,1.92288 -38.65523,1.63871 -35.92172,-0.2713 -38.67336,-0.41569 -38.91152,-2.04194 -0.18866,-1.28828 0.44594,-1.75579 2.40523,-1.77196 4.19701,-0.0346 10.64689,-3.44657 13.14358,-6.95285 4.4466,-6.24467 4.02061,-8.88048 -6.71121,-41.52519 l -9.86237,-30 -36.40026,0 -36.40026,0 -9.832702,30.89796 c -8.731942,27.43896 -9.714289,31.25675 -8.774959,34.10295 1.88131,5.70042 8.693302,10.16564 19.249701,12.61805 4.34642,1.00974 5.75,1.77036 5.75,3.116 0,1.67472 -2.13293,1.77775 -36,1.73897 -35.114022,-0.0402 -36,-0.0896 -36,-2.00758 z m 134,-92.8184 c 0,-1.94748 -31.41522,-99.13781 -32.04647,-99.14324 -0.41772,-0.004 -29.0887,86.42472 -32.42517,97.74529 l -0.66314,2.25 32.56739,0 C 159.34468,338 174,337.61658 174,337.14795 z m 199,93.01366 c 0,-1.45268 1.35017,-2.06403 6.75,-3.05635 8.78107,-1.6137 14.52803,-4.21218 18.36287,-8.30275 C 404.33168,412.16901 404,418.40093 404,308.1894 l 0,-100.87483 -2.32617,-4.40729 c -1.2794,-2.424 -4.14961,-5.80131 -6.37825,-7.50512 C 391.34798,192.38419 380.90753,189 375.54448,189 373.66667,189 373,188.47599 373,187 c 0,-1.95491 0.66667,-2 29.57118,-2 l 29.57119,0 12.53799,25.75 c 16.04668,32.956 55.01076,113.04427 74.07178,152.25 l 8.50814,17.5 1.76565,-4 c 0.97111,-2.2 7.60872,-17.5 14.75025,-34 35.47466,-81.96169 39.97802,-92.34493 59.6358,-137.5 l 8.48912,-19.5 25.04945,-0.26717 c 24.54216,-0.26176 25.04945,-0.22632 25.04945,1.75 0,1.60461 -0.6647,2.02166 -3.25,2.03913 -6.68645,0.0452 -14.39997,5.26654 -16.68339,11.29314 -0.73138,1.93034 -1.06144,36.03101 -1.05016,108.5 l 0.0165,105.6849 2.23355,4 c 2.48527,4.4508 10.94287,9.5 15.91286,9.5 2.1347,0 2.82069,0.47661 2.82069,1.95972 0,1.90897 -0.93204,1.96114 -36,2.01469 -34.41903,0.0526 -36,-0.0265 -36,-1.80058 0,-1.43075 1.24498,-2.13419 5.43792,-3.07252 6.10812,-1.36694 10.86679,-4.23651 13.97013,-8.42425 2.08602,-2.81494 2.09272,-3.11092 2.36512,-104.47317 0.15486,-57.62282 -0.10329,-101.22873 -0.59601,-100.67706 C 610.6991,214.06207 598.6927,241.725 584.49625,275 c -43.90456,102.90772 -65.32798,152.8769 -66.2487,154.52213 -0.65682,1.17368 -3.92365,-4.78775 -12.72528,-23.22154 C 474.19622,340.69252 448.45382,286.86064 440.82156,271 c -4.63162,-9.625 -12.20364,-25.4875 -16.82669,-35.25 -4.62306,-9.7625 -8.76315,-17.75 -9.20021,-17.75 -0.43706,0 -0.78478,42.8625 -0.7727,95.25 0.021,91.21039 0.10192,95.41964 1.90718,99.25 3.96424,8.41122 12.62332,13.83061 24.31,15.21473 3.73104,0.44189 4.76086,0.9576 4.76086,2.38417 0,1.72617 -1.86186,1.82182 -36,1.84947 -34.1275,0.0276 -36,-0.0653 -36,-1.78676 z m 405,-0.0324 c 0,-1.5429 1.04378,-1.98893 5.95464,-2.54453 7.78836,-0.88115 18.61225,-6.30623 23.79076,-11.92426 3.83073,-4.15585 5.14618,-7.83684 34.7499,-97.23987 16.92265,-51.10628 33.67852,-101.8386 37.23527,-112.73848 3.55675,-10.89989 6.653,-19.6318 6.88055,-19.40425 0.22755,0.22755 2.93791,7.79564 6.02302,16.81798 6.94036,20.29689 36.31636,106.85484 48.83817,143.90424 18.10967,53.58268 21.56261,63.40508 23.17979,65.93834 4.50576,7.05814 12.87924,11.82289 25.0979,14.28141 4.08951,0.82285 5.25,1.47053 5.25,2.93005 0,1.80384 -1.44397,1.86393 -38.73652,1.61194 -35.97686,-0.24309 -38.76052,-0.38641 -39.07333,-2.01174 -0.25739,-1.33742 0.33782,-1.75 2.52464,-1.75 7.6597,0 16.2487,-8.19015 16.25482,-15.5 10e-4,-1.65 -4.396,-16.5 -9.77197,-33 l -9.77448,-30 -36.41791,0 -36.41792,0 -9.2817,29 c -5.10493,15.95 -9.54149,30.35231 -9.85902,32.00514 -1.24976,6.50539 7.8163,14.14059 19.80339,16.67791 4.41948,0.93547 5.75,1.6336 5.75,3.01703 0,1.6999 -2.00057,1.79992 -36,1.79992 -34.50483,0 -36,-0.0777 -36,-1.87083 z m 133.71386,-94.11538 c -2.15792,-8.25187 -31.359,-98.00948 -31.88631,-98.01138 -0.36984,-0.001 -1.12997,1.46009 -1.68916,3.24759 -0.55919,1.7875 -7.79409,23.98537 -16.07755,49.32859 C 853.77738,315.92182 847,336.95932 847,337.32859 847,337.69787 861.67748,338 879.61663,338 c 32.04881,0 32.60759,-0.0346 32.09723,-1.98621 z M 1428,430.13768 c 0,-1.51914 1.045,-1.98514 5.671,-2.52883 3.119,-0.36658 7.711,-1.56892 10.2044,-2.67187 6.3426,-2.80565 14.7997,-9.40795 16.6607,-13.00677 1.3037,-2.52104 23.813,-69.86147 67.4075,-201.66059 4.2261,-12.77672 7.8843,-23.43087 8.1293,-23.6759 0.2451,-0.24503 7.7989,21.23364 16.7862,47.73038 50.9101,150.09408 60.1713,176.90824 61.9673,179.41503 4.7797,6.67119 12.5034,10.91887 24.4571,13.45015 4.2846,0.90731 5.7065,1.62457 5.4865,2.76771 -0.2606,1.35409 -5.0397,1.57211 -39.0335,1.78073 -37.1825,0.22817 -38.7365,0.16309 -38.7365,-1.6222 0,-1.40844 1.0094,-2.02132 4.1587,-2.5249 5.3439,-0.85452 8.8827,-2.9778 11.6192,-6.97141 4.2515,-6.20472 4.1024,-7.09563 -6.7662,-40.4364 L 1565.8465,349 l -36.252,0 -36.2519,0 -9.6713,30.34557 c -5.3192,16.69006 -9.6713,31.33741 -9.6713,32.54966 0,3.22053 2.5147,7.55675 5.5269,9.53046 3.7163,2.43498 15.0469,6.57431 17.9959,6.57431 1.8105,0 2.4772,0.53825 2.4772,2 0,1.96296 -0.6667,2 -36,2 -34.4462,0 -36,-0.0804 -36,-1.86232 z M 1561.5775,336.25 c -0.3065,-0.9625 -7.1399,-22.225 -15.1853,-47.25 -8.0453,-25.025 -15.0762,-47.07181 -15.6241,-48.99292 l -0.9963,-3.49292 -1.3312,3.49292 c -0.7322,1.92111 -8.1615,24.41792 -16.5096,49.99292 -8.3481,25.575 -15.3743,46.8375 -15.6137,47.25 -0.2394,0.4125 14.4715,0.75 32.6911,0.75 31.0946,0 33.0922,-0.10734 32.5691,-1.75 z m 344.1016,95.09577 c -1.7942,-1.79422 -0.2877,-3.11355 4.1564,-3.63988 8.5135,-1.0083 16.3575,-4.31529 20.0049,-8.43391 6.6272,-7.48365 6.1944,0.2808 5.9146,-106.10487 l -0.255,-96.91305 -14.1771,21.12297 C 1848.5604,345.7885 1800.9651,416.85018 1796.6693,423.48997 L 1791.5,431.47994 1791,317.98997 1790.5,204.5 l -2.1586,-3 c -5.321,-7.39494 -12.0025,-11.06534 -22.4757,-12.34676 -3.9669,-0.48535 -5.4256,-1.10301 -5.6757,-2.40324 -0.3157,-1.6409 1.9434,-1.75 36.2367,-1.75 35.0053,0 36.5733,0.0798 36.5733,1.86232 0,1.51148 -1.0322,1.98364 -5.4793,2.50631 -11.6627,1.37072 -21.6479,7.47197 -24.4612,14.94647 -0.7139,1.89675 -1.0569,28.81022 -1.0514,82.5 l 0.01,79.6849 14.2419,-21.52303 c 7.8331,-11.83767 21.6472,-32.76267 30.6981,-46.5 9.0509,-13.73733 29.6244,-44.88947 45.7188,-69.22697 l 29.2626,-44.25 27.4242,0 c 23.1887,0 27.5112,0.22672 27.9875,1.46797 0.7163,1.86651 0.2216,2.1217 -5.81,2.99749 -10.9259,1.58641 -18.1942,5.76352 -22.6807,13.03454 -1.77,2.86848 -1.8513,7.50683 -1.8549,105.79966 0,113.83575 -0.5207,105.29022 6.7628,111.8704 3.565,3.22078 12.2993,6.44502 21.7335,8.02284 1.1,0.18397 2,1.00333 2,1.8208 0,1.28229 -4.8824,1.52232 -35.5709,1.74874 -19.564,0.14434 -35.8765,-0.0432 -36.25,-0.41667 z M 2166,430.06192 c 0,-1.39879 0.9689,-2.0519 3.75,-2.52771 5.3176,-0.90979 12.2344,-4.63277 14.6717,-7.89704 2.0708,-2.77334 2.0792,-3.17683 2.3415,-111.86573 0.2918,-120.99779 0.7697,-112.45037 -6.4196,-114.82306 -5.2568,-1.7349 -39.4335,-0.70018 -48.8479,1.47891 -8.8653,2.052 -16.3045,6.28246 -20.8916,11.88039 -4.9783,6.07536 -10.9383,19.28128 -14.1913,31.44447 -1.508,5.63869 -2.8332,10.13869 -2.9448,10 -0.1446,-0.17965 2.7835,-52.38095 3.4779,-62.00215 0.03,-0.4125 47.3041,-0.75 105.0541,-0.75 l 105,0 0.016,4.25 c 0.01,2.3375 0.6765,15.69483 1.4837,29.68295 0.8073,13.98812 1.2501,25.65062 0.984,25.91667 -0.266,0.26604 -0.4837,-0.35004 -0.4837,-1.36906 0,-8.62891 -9.2834,-30.20684 -16.0286,-37.25594 -10.6294,-11.10846 -19.0291,-13.43092 -49.1933,-13.60166 l -21.722,-0.12296 -2.778,2.77278 -2.7781,2.77279 0,108.22721 0,108.22722 2.2635,4.23654 c 2.5877,4.84347 7.7344,7.95877 14.7333,8.91808 3.4805,0.47705 4.5032,1.03469 4.5032,2.45533 0,1.7501 -1.7236,1.8381 -36,1.8381 -34.6089,0 -36,-0.0729 -36,-1.88613 z m 260,0.0972 c 0,-1.41295 1.2641,-2.12376 5.4379,-3.05782 6.1083,-1.36699 10.867,-4.23661 13.9702,-8.42449 2.0917,-2.82289 2.0919,-2.83394 2.0919,-109 0,-58.39725 -0.3311,-107.35467 -0.7358,-108.79426 C 2445.1912,195.28692 2435.4336,189 2428.3219,189 c -1.6552,0 -2.3219,-0.57425 -2.3219,-2 0,-1.96296 0.6667,-2 36,-2 35.3333,0 36,0.037 36,2 0,1.59641 -0.6667,2 -3.3037,2 -1.817,0 -5.6147,1.15168 -8.4395,2.5593 -3.9554,1.97106 -5.6094,3.53762 -7.1963,6.81572 -1.9968,4.12474 -2.0605,5.80908 -2.0605,54.4407 l 0,50.18428 57.526,0 57.5261,0 -0.2761,-51.92008 -0.276,-51.92008 -2.5,-2.67724 c -3.219,-3.44717 -8.735,-6.25669 -13.9082,-7.08392 -3.099,-0.49555 -4.0918,-1.10854 -4.0918,-2.52649 0,-1.79492 1.4859,-1.87219 36,-1.87219 35.3333,0 36,0.037 36,2 0,1.58774 -0.6699,2.00201 -3.25,2.00977 -1.7875,0.005 -5.5867,1.09771 -8.4427,2.42742 -4.0009,1.8628 -5.7221,3.4097 -7.5,6.74024 L 2621.5,202.5 l 0,106 c 0,101.73362 0.075,106.13846 1.874,109.44011 1.0307,1.89206 2.8307,4.23618 4,5.20915 2.5368,2.1109 10.0514,4.85074 13.3041,4.85074 1.6638,0 2.3219,0.57322 2.3219,2.02237 0,1.99366 -0.511,2.02137 -36,1.95274 -34.1568,-0.066 -36,-0.16306 -36,-1.89456 0,-1.33479 1.0072,-1.98713 3.75,-2.42882 5.7312,-0.92294 12.482,-4.77281 14.9919,-8.54961 l 2.2581,-3.39789 0,-50.85211 0,-50.85212 -57.5,0 -57.5,0 0,50.03212 c 0,40.51809 0.2651,50.6665 1.3939,53.36818 2.2373,5.35471 10.7757,10.5997 17.2553,10.5997 1.6841,0 2.3508,0.56719 2.3508,2 0,1.96296 -0.6667,2 -36,2 -34.296,0 -36,-0.0871 -36,-1.84087 z m 333,0 c 0,-1.41295 1.2641,-2.12376 5.4379,-3.05782 6.6778,-1.49443 11.3036,-4.50103 14.008,-9.10471 2.0308,-3.45697 2.0573,-4.65667 2.3357,-105.85 0.1851,-67.28995 -0.072,-104.26585 -0.7505,-107.93601 -1.5157,-8.19918 -7.3189,-13.27353 -16.9393,-14.81191 -3.099,-0.49555 -4.0918,-1.10854 -4.0918,-2.52649 0,-1.81548 2.6805,-1.87219 88.5,-1.87219 48.675,0 88.5047,0.3375 88.5105,0.75 0.01,0.4125 0.6737,11.55 1.4843,24.75 1.9053,31.02701 1.8647,33.02684 -0.4909,24.18649 -2.5747,-9.66249 -9.0039,-22.29841 -14.4563,-28.41233 -5.1841,-5.8131 -13.5217,-10.35809 -22.5476,-12.29122 -3.4178,-0.73202 -19.8861,-1.34998 -43.5,-1.63232 -35.1771,-0.4206 -38.259,-0.3205 -41.4861,1.34751 -1.9173,0.99103 -4.0482,2.92687 -4.7352,4.30187 -0.9496,1.90038 -1.2528,14.80238 -1.264,53.79267 l -0.015,51.29266 29.4287,-0.29266 c 27.8382,-0.27685 29.5811,-0.40352 32.25,-2.34374 3.9485,-2.87056 8.1209,-11.55536 8.9124,-18.55118 0.453,-4.00429 1.1073,-5.89775 2.0381,-5.89775 1.133,0 1.3708,5.6388 1.3708,32.5 0,26.37224 -0.2507,32.5 -1.3297,32.5 -0.847,0 -1.9412,-2.81345 -3.0141,-7.75 -2.1123,-9.7185 -5.1618,-15.23596 -9.6713,-17.49845 -3.0714,-1.54097 -6.8371,-1.74863 -31.7349,-1.75 L 2809,314 l 0,46.85078 c 0,32.37767 0.3507,47.85686 1.1353,50.10757 2.0117,5.77061 3.8631,6.04255 41.0826,6.03406 48.23,-0.011 58.7547,-1.72437 67.8309,-11.04251 5.5568,-5.70497 11.9716,-17.6953 16.4832,-30.8099 l 3.3163,-9.64 0.049,5 c 0.027,2.75 -0.6019,16.925 -1.3971,31.5 -0.7952,14.575 -1.4581,27.2875 -1.4729,28.25 -0.026,1.65328 -4.9184,1.75 -88.5271,1.75 -85.2833,0 -88.5,-0.0669 -88.5,-1.84087 z"
     id="path2987"
     inkscape:connector-curvature="0" />
</svg>
