<?xml version="1.0" encoding="UTF-8"?><svg id="a" xmlns="http://www.w3.org/2000/svg" viewBox="0 0 1470.06 134.34"><path d="m340.38,6.08c.31.27.65.57,1.44,1.25V3.19c1.08-.12,1.87-.21,2.83-.32V.27c.75-.09,1.47-.41,1.95-.2,1.8.82,3.62,1.27,5.29.86,1.41.99,2.57,1.79,3.85,2.69.44,3.03-.09,6.07-1.85,8.96.29,1.24.85,2.59.89,3.95.12,4.63.04,9.26.04,13.82-1.87,1.76-2.2,3.93-1.99,6.23.48,5.34-1.17,10.31-2.68,15.3-.49,1.63-1.07,3.44-1.14,4.93-.19,3.86-1.07,7.43-2.04,11.13-1.19,4.55-1.11,9.38-2.04,14.07-.81,4.11-.02,8.34,1.31,12.32.64,1.92.66,3.48-.11,5.43-2.11,5.33-3.3,6.94-8.28,9.65-1.91,1.03-3.65,1.66-5.72.06-1.29-1-3.04-1.45-4.63-2.02-.59-.21-1.32-.03-1.99-.03-.88-1.26-1.77-2.52-2.79-3.98.26-.41.6-.93.95-1.48-1.8-2.37-2.6-5.4-4.55-7.91-1.81-2.34-2.58-5.52-3.64-8.39-1.53-4.11-3.97-7.71-6.43-11.25-2.73-3.94-5.85-7.61-9.07-11.21-2.9-3.25-5.28-6.97-8.2-10.9-.41.83-.67,1.43-.99,1.99-1.29,2.21-1.46,4.72-1.96,7.15-.66,3.21-1.07,6.46-1.74,9.68-.53,2.58-.89,5.3-1.21,7.98-.25,2.09.34,4.51-.54,6.23-.99,1.95.62,4.37-1.49,5.86.34,2.92-.58,5.7-.94,8.54-.65,5.1-.92,10.25-1.36,15.56h-4.24c-1.51,3.31-2.73,6.61-5.43,8.51-1.07-1.06-2.17-2.16-4.01-3.99,0-3.84-.09-8.95.05-14.05.05-2.02.7-4.02.93-6.05.23-2.04-.45-4.18.97-6.08.32-.43.29-1.42,0-1.93-1.79-3.23-.89-6.7-.91-10.04-.11-13.58.05-27.16-.13-40.74-.03-2.64.96-5.01,1.06-7.54.1-2.48.08-4.97-.01-7.45-.03-.88-.42-1.75-.61-2.5.65-1.65,1.33-3.35,2.1-5.29,2.22-1.17,5.76-1.04,6.36-4.9,1.78-.26,3.06.03,4.69.57,5.97,1.98,9.98,6.87,15.37,9.66,1.07.56,1.54,2.27,2.45,3.7-1.11.83-2.07,1.54-3.28,2.44,6.25,4.53,10.92,10.84,15.83,16.82,5,6.09,11.32,11.07,15.61,19,.25-1.2.38-1.83.51-2.46,1.09-4.87,2.82-10.01,4.39-15.23.73-2.42.63-5.15.47-7.72-.07-1.09-.66-1.99.03-3.2.5-.88-.24-2.16.72-3.2.55-.6.52-6.2.35-7.45-.42-3.18.91-6.52-.88-9.58.63-2.03.68-4.67,2.03-5.93,1.56-1.46,2.48-3.51,4.4-4.55Z"/><path d="m456.74,50.73c-.23-3.39.3-6.55,1.94-9.63,1.57-2.94,1-6.29,1.06-9.66-.9-1.31-1.87-2.74-2.85-4.18,1.89-1.6.3-3.93,1.3-6.9,1.87-1.77,4.46-4.23,6.89-6.53,1.45.46,2.46,1,3.51,1.06.97.06,1.96-.57,2.95-.57.9,0,1.8.45,2.71.63,2.01.39,4.04-.48,6.16.86,1.58,1,3.94-.12,6.07.98,1.57.81,3.92.06,5.9.19,2.05.13,4.23-.7,6.12.92.38.33,1.42.29,1.93,0,2.59-1.41,5.39-.74,8.09-.99,1.71-.16,3.43-.5,5.07-.99,2.49-.75,4.98-1.12,7.58-1.02.43.02.9-.77,1.41-1.24,1.83,1.19,3.4,2.22,5.18,3.38.38-.26.89-.6,1.38-.93,1.17.84,2.39,1.72,3.69,2.65-1.14,2.17-2.56,3.74-5.73,3.06.68,1.34.96,1.89,1.26,2.49-.94,1.37-1.83,3-3.03,4.35-1.18,1.33-2.67,2.38-4.66,4.11-3.51-.44-7.31,1.59-11.17,3.15-2.2.89-4.49,1.24-6.72,1.8-1.8.45-3.83.01-5.55,1.09-1.72-1.81-3.35.92-5.21.11-.7-.3-1.96.66-3.11,1.11-.2,7.28-3.42,14.08-4.17,21.74,2.4-.4,4.71.72,6.7-1.07.09-.08.32-.03.49,0,6.07.66,12.03-1.24,18.05-.91,4.07.22,8.16,1.01,12.13,2.01,1.73.44,3.15,2.06,5.35,3.59-1.49.17-2.25.25-3.43.38-.48.62-1.18,1.53-2.31,3v2.63c-.6.12-1.06.21-1.82.37.3.73.6,1.47.93,2.28-1.67.6-3.29,1.08-4.79,1.79-.71.33-1.2,1.13-1.86,1.79-1.61-.37-3.54.75-5.02-.99-.21-.24-.97-.11-1.45-.02-1.7.3-3.39.63-5.08.99-1.71.37-3.62-.8-5.2.73-.28.27-.91.21-1.38.25-4.66.4-9.32.8-14.48,1.24-2.06,6.2-4.47,12.51-5.41,19.65.44,1.16,1.09,2.88,1.89,5,1.65-.44,3.52.77,5.32-.95.52-.5,1.92-.08,2.92-.08,7.99,0,15.97.02,23.96-.03,1.05,0,2.1-.36,3.76-.67.91,1,3.15.57,4.87,2.1,1.33,1.19,3.76,1.16,6.7,1.94-2.01.93-3.17,1.47-4.6,2.14-.56.8-1.36,1.96-2.38,3.42.2.69.48,1.7.69,2.43-2.84,3.41-7,5.33-10.29,8.74-6.85-.46-13.82-1.71-20.88-1.17-3.86.29-7.72,1.01-11.56.91-7.95-.21-12.8-1.38-17.86-7.41-.53-.63-1.17-1.18-1.93-1.94v-6.49h-2.03c.33-.69.7-1.37.98-2.08.11-.29.02-.65.02-1.25-.6-.68-1.33-1.5-2.03-2.29.36-1.12.69-2.14,1.03-3.16,0,0-1-4.72-1.05-4.94,2.99-4.97,2.5-10.98,3.99-16.52.07-.26-.6-.72-.92-1.08.31-.34.92-.7.92-1.06.07-3.97.06-7.94.03-11.91,0-.44-.14-.96-.39-1.32-.96-1.34-.65-2.64-.17-4.05.99-2.95.81-4.89-.42-7Z"/><path d="m60.51,91.49c-1.8,0-3.63.13-5.45-.04-1.71-.16-3.57-.28-5.04-1.03-2.91-1.49-5.98-2.51-9.07-3.39-3.13-.89-5.86-3.26-9.46-2.58-.36.07-.89-.75-1.66-1.44-1.08,1.58-2.25,2.72-2.73,4.11-.66,1.9-.15,4.66-1.34,5.8-1.59,1.52-1.7,3.44-2.49,5.05-.78,1.6-1.51,3.36-2.13,5.06-1.22,3.38-3.4,5.6-6.73,7.27h-6.39c-2.31-1.37-4.46-2.63-6.87-4.05-.41-1.82.39-4.05-1.06-5.84-.26-.32.02-1.28.31-1.79,2.43-4.2,3.05-9.01,4.64-13.49,2.05-5.77,3.97-11.61,6.38-17.23.78-1.81.02-4.1,2.25-5.63,1.3-.89,1.53-3.25,2.37-4.88.92-1.78,2.45-3.38,2.88-5.25.81-3.55,4.66-5.2,5.1-8.84,4.2-4.91,6.21-10.98,9.08-16.61,3.06-6,7.14-11.34,13.73-14.02,3.47-1.41,6.81-3.38,10.87-2.75.99.15,2.09-.4,3.63-.73.3.12,1.14.66,2.02.75,3.36.33,4.8,2.47,5.66,5.4.69,2.34,1.61,4.62,2.58,7.35,0,.01-.3.47-.74,1.13.34.57.73,1.22,1.19,1.97-.34.62-.71,1.29-1.19,2.17.32.43.69.93,1.26,1.69-.87,9.88.65,19.84,2.67,29.76.02,1.42-1.33,2.39-.4,4.38,1.09,2.31,1.25,5.15,1.77,7.74.71,3.54.74,7.02.84,10.55.01.45.15.93.37,1.33,1.96,3.54,1.56,7.6,2.56,11.36.73,2.76,1.3,5.57,1.15,8.52-.07,1.35-1.23,2.48-.28,4.23.63,1.17-.56,3.26-.79,4.96-.2,1.52.38,3.19-.9,4.5,1.55,1.23-.07,2.35-.48,3.04-1.27,2.16-2.18,4.26-1.48,6.61-1.23,1.23-2.29,2.28-3.51,3.49h-4.09c-1.69-.87-3.34-1.71-5.32-2.73.41-1.62-1.61-3.01-.14-4.98-.35-.6-.73-1.27-1.11-1.93.39-1.41,2.06-2.6.41-4.34-.53-.56-.38-1.83-.39-2.78-.04-4.14-.25-8.29.06-12.41.21-2.83-1.3-5.27-1.2-8.02.02-.45-.87-.93-1.37-1.43Zm-2.4-17.43c-.8-4.67-2.34-8.58-2.92-12.58-.64-4.39-3.18-8.13-3.44-12.54-5.04,3.22-10.53,14.61-10.49,18.63,3.55-.13,6.73.83,9.68,2.98,1.94,1.41,4.35,2.17,7.17,3.51Z"/><path d="m235.89,75.03c-2.11,2.53-4.65,3.57-8.04,3.67-3.32.11-6.35-1.06-9.58-1.18-3.13-.12-6.2-.81-9.18-1.89-1.29-.47-2.74-.5-4.72-.84.02-.01-.48.35-1.03.75-1.1-.3-2.28-.69-3.49-.94-1.18-.24-2.39-.35-4.1-.59-.18.56-.69,1.55-.8,2.58-.59,5.57-1.1,11.15-2.31,16.63-.06.27-.45.47-.67.69,1.84,2.14.51,4.71,1.12,7.41,3.34-.33,6.87,1.12,10.28-.81.38-.22.97-.06,1.46-.09,1.96-.1,4.28.42,5.78-.46,1.63-.95,3.68.41,4.99-1.46.33-.47,1.9-.07,2.9-.07,4.5,0,8.99.07,13.49-.03,1.88-.04,3.91.63,5.63-.91.37-.33,1.42-.29,1.93,0,3.21,1.72,6.71.53,10.04,1.11.53.59,1.04,1.17,2.03,2.27-3.86.45-4.91,3.59-6.87,5.55-2.12,2.11-4.12,4.52-6.34,6.99-1.53-.45-3.43.76-4.9-.95-1.31,1.31-2.99.85-4.54.89-1.83.05-4.09-.66-5.39.17-1.82,1.16-3.52.42-5.18.87-1.63.44-3.17,1.17-4.77,1.74-.44.15-.94.19-1.41.21-6.52.34-13.05.58-19.57,1.04-2.66.19-5.01-.75-7.47-1.32-1.04-.24-2.04-.69-3.23-1.1-1.99-3.03-4.32-6.05-4.01-10.14-3.31-9.65-1.56-19.65-2-29.5,2.12-12.74.45-25.58,1.03-38.35.09-2.03.76-4.02.93-6.05.17-1.97-.23-4.02.11-5.95.39-2.25,1.32-4.41,2.06-6.77,2.02-.85,4.15-1.74,6.68-2.8.26-.46.81-1.4,1.27-2.19,1.61-.25,2.98-.46,4.93-.76,1.24.63,3.13,1.59,5.03,2.56.72-.39,1.39-.76,2.26-1.23,1.14,1.14,2.27,2.26,3.32,3.3,5.91-2.74,11.72-4.69,17.75-6.22,5.24-1.33,10.42-.52,15.61-.85,2.15-.14,4.33-.02,5.61-.02,3.97,1.71,7.2,3.1,10.92,4.71-.98.72-1.64,1.2-2.47,1.8.44,2.13,2.03,4.52-.02,6.93.61.65,1.27,1.34,1.92,2.03,0,.19.06.39,0,.51-1.09,1.87-2.2,3.73-3.65,6.17-3.85.65-8.2,1.39-13.12,2.22-5.2,3.61-12.22,4.15-18.59,6.48-.38-.35-.74-.68-1.1-1.01-.88,1.4-2.47,1.32-3.53.89-2.34-.95-5.01-.87-7.14-2.01-1.93-1.03-3.66-.83-5.56-.8-.87,5.5-1.71,10.86-2.54,16.13,4.52,2.27,9.33,1.12,13.73,2.6,4.12,1.39,8.44,2.19,13.1,2.85.16-.11.68-.45,1.41-.93,1.85,1.47,3.91,1.71,5.97.13,1.11-.1,2.02,2.23,3.28.28,2.15.67,4.29,1.35,6.62,2.08v1.73c-2.05,2.24-3.93,4.29-5.84,6.38v5.87Z"/><path d="m924.43,115.35h-4.41c-2.21-1.73-4.35-3.43-6.46-5.08.95-2.59,2.35-4.89,1.7-7.77-.6.29-1.05.52-1.67.82v-6.53c.47-.47,1.06-1.05,1.63-1.62-.3-.76-.61-1.51-1.21-3.01,1.17.67,1.6.92,2.24,1.28v-4.94c2.6-3.4,3.63-7.01,5.11-10.38.42-.95.09-2.09.95-3.13.44-.53-.24-1.99-.5-3.5.11-2.78,3.45-4.7,3.79-8.25.12-1.27,1.14-2.31.2-3.84-.46-.74,1.45-1.93-.13-3.14-.52-.4-.23-1.85-.32-2.88,1.75-1.88,3.3-3.81,3.14-6.66-.06-1.15.58-2.35.94-3.66-.49-.11-.94-.23-1.39-.3-.46-.08-.93-.11-1.31-.15.58-2.45,1.36-4.78,1.63-7.17.28-2.45.06-4.96.06-7.45,0-2.65.06-5.3-.02-7.95-.07-2.32.51-4.71-1.09-7.71,1.64,1.05,2.64,1.68,3.75,2.39.28-.27.74-.69,1.29-1.21-.27-.33-.54-.67-1.12-1.39,1.07.13,1.8.22,3.12.38.06-.12.4-.82.63-1.29,1.62.37,2.75.62,3.94.9.44-1.76.85-3.38,1.32-5.25,1.52.78,2.56,1.31,3.7,1.89.9-.54,1.99-1.8,2.8.21,4.31,0,8.48-.14,12.63.04,4.89.21,9.13-2.09,13.67-3.21.28-.07.48-.45.88-.84,2.68.47,5.47-.37,8.43.88,2.56,1.07,3.7,3.48,6.59,4.93-2.98-.05-4.71.99-5.61,3.37-.32.85-1.14,1.58-1.88,2.19-2.22,1.82-4.51,3.56-6.78,5.34-.2-.17-.56-.49-1.07-.92-1.8.6-2.62,2.38-4.02,3.45-1.37,1.04-2.66,2.22-4.14,3.06-1.47.83-3.08,1.35-4.77,1.79-1.9.5-3.72.78-5.63.8-1.8.02-3.6,0-5.75,0,.49,3.07-.67,6.01,1.06,8.83-.58,1.57-1.22,3.3-1.96,5.31-.03.88,2.68,2.05-.15,3.19,2.42,1.22,4.45,2.5,7,3.1,1.83.43,4.05.94,5.18.27,2.68-1.58,5.58-.57,8.35-1.6,3.12-1.15,6.68-1.23,9.84-2.81,1.21-.61,2.85-.37,4.37-.53.19.56.34.99.53,1.51,1.1.55,2.3,1.17,3.54,1.74,1.1.51,2.24.94,3.72,1.56-1.2,1.43-2.32,2.75-3.54,4.2.29.85.6,1.71.96,2.76-1.99,2.9-7.56,2.65-7.76,7.69-5.14,2.89-10.65,4.82-16.24,6.55-.73.23-1.6.48-2.06,1.01-3.1,3.59-7.23,3.01-11.23,2.9-2.02-1.22-4.03-2.43-6.47-3.9h-2.93c-3.2,6.95-7.39,13.78-7.08,22.41.77.61,1.67,1.32,2.56,2.02,3.68-1.44,8.39.4,11.97-2.58,2.6.22,5.08-.28,7.59-.97,6.26-1.71,12.7-.81,19.01-1.05,3.57,2.32,8.21,2.12,11.45,5.06.43.9.87,1.79,1.4,2.89-1.77-.41-3.21-.75-5.67-1.32,1.14,1.84,1.75,2.84,2.44,3.96-.56.93-1.26,2.11-2.03,3.4-.48-.39-.81-.66-1.38-1.11-.81.36-1.77.79-2.66,1.18-.49-.45-.85-.77-1.21-1.09-.47.47-.94.94-1.4,1.39.31.52.62,1.05.92,1.57-.89.65-1.78,1.3-2.78,2.03h-2.79c-.34.7-.66,1.35-1.05,2.15-1.38-.7-2.6-1.33-4.27-2.18-2,.31-4.66-.8-6.99.98-2.53-1.56-5.07-1.4-7.63.28-.28-.83-.48-1.41-.69-2.04-.22.06-.48.07-.68.17-3.19,1.67-6.21,3.53-9.04,5.83-1.7,1.38-4.16,1.85-6.28,2.71-1.42.57-2.85,1.1-4.39,1.69-.4-.79-.93-1.83-1.6-3.14.76-.33,1.42-.61,2.5-1.08-.72-.35-1.28-.63-1.87-.92-1.13.13-2.63.23-4.11.5-.47.09-.86.62-1.29.96Z"/><path d="m160.37,7.71c.55-.21,2.59,1.12,3.98-.63,1.21,1.34,2.95.77,4.68.96-.42,2.77.53,5.31-1,7.79-.43.7.29,2.1.49,3.18.2,1.09.39,2.18.56,3.1-1.46,1.06-2.73,1.98-4.03,2.93-.07,1.22-.13,2.33-.18,3.41-.62.62-1.21,1.21-1.62,1.61-.45,3.19-1.04,6.16-1.24,9.16-.14,2.02-.69,3.72-2.12,5.1-3.13,3.05-4.6,7-5.87,10.99-.7,2.19-2.78,3.98-2.06,6.61-2.18,1.57.2,4.56-1.92,6.18-.17.13-.06.62-.08.94-.33,4.33-.28,8.74-1.09,12.98-1.1,5.72-1.06,11.93-5.54,16.57-1.08,4.63-4.65,8.01-6.25,12.32-.95,2.54-2.49,4.39-4.49,6.3h-3.95c-2.37-1.21-4.57-2.33-7.23-3.68-.47-1.39-.95-3.17-1.67-4.85-1.86-4.37-4.1-8.59-5.68-13.05-2.45-6.94-5.82-13.58-7.12-20.93-.28-1.61-1.48-3.05-1.91-4.66-1.38-5.23-2.97-10.41-4.26-15.67-.85-3.49-1.62-7.21-3.24-10.54-1.61-3.31-3.35-6.56-4.91-9.9-1.23-2.64-2.64-5.18-3.78-7.88-.94-2.23-.77-3.82.43-5.62,2.43-1.37,5-2.81,7.39-4.15,1.73.23,3.44.38,5.12.69,1.53.28,3.03.72,4.65,1.12,2.64,2.39,5.39,4.89,8.57,7.77-.17.62-.48,1.77-.87,3.25.19.48.29,1.57.89,2.14,2.36,2.22,2.75,5.81,5.55,7.67.72,3.64,3.34,6.66,3.42,10.52.02,1.1.42,2.19.44,3.28.07,4.77,2.92,9.02,2.54,13.86-.11,1.46.23,2.75.93,4.09.64,1.21-.51,2.82.71,4.2.52.59.23,1.85.37,2.8.35,2.5.68,5,1.16,7.48.11.55.81.98,1.43,1.69.84-4.28,1.42-8.31,2.45-12.22,1.33-5.05,1.95-10.31,4.48-15.04.93-1.73,1.2-3.8,1.82-5.7,1.43-4.37,3.97-8.3,5.06-12.84.21-.88.53-1.79.56-2.72.23-7.47,2.85-16.46,7.05-23.42.7-1.16,1.98-1.96,2.99-2.93,1.21-1.17,2.42-2.34,4.39-4.25Z"/><path d="m568.67,125.29v-1.76c-3.95-.85-6.8,2.56-10.7,2.95-1.03,1.06-2.28,2.36-3.43,3.56-4.1.82-8.27-.8-12.07,1.22-.52-.33-1.04-.66-1.77-1.13-1.81.87-3.74,1.8-6.22,3-1.15.18-3,.46-5.35.83-.4-.55-1.15-1.61-1.9-2.66-.07.13-.13.25-.2.38-.44-1.13-.89-2.27-1.33-3.4h2.06c-.39-.65-.63-1.05-1.08-1.82.54-1.12.95-2.68,2.86-3.97v-2.06c1.91-3.28,4.07-6.18,6.94-6.82,3.06-.68,5.85-2.22,8.88-2.46,2.52-1.99,2.01-5.05,3.01-7.53-1.24-1.22.86-2.02.36-3.3-.55-1.41.49-2.7.9-4.05.37-1.2.1-2.62.59-3.73.52-1.15-1.65-1.97-.04-3.23.62-.49.28-2.12.5-3.2.25-1.2.77-2.36.96-3.57,1.33-8.44,2.4-16.9,2.05-25.48-.02-.57.37-1.15.66-1.98-.38-.74-.93-1.79-1.64-3.17.25-1.29-.83-3.21.93-4.63-.32-.36-.65-.71-.72-.79.35-2.56.68-4.9,1-7.26-2.22-1.76-4.22-3.34-6.22-4.93.24-.23.47-.47.78-.77-.64-1.04-1.3-2.1-2.35-3.81,1.55.64,2.3.95,3.01,1.23,1.3-1.86-.04-3.17-.78-4.74,1.22-.22,2.14-.38,2.65-.47,1.97-1.99,3.7-3.74,5.64-5.69v-1.9c1.7-.5,3.47-1.02,6.18-1.82.28-.35,1.21-1.49,2.29-2.82,1.16.84,2.05,1.48,3.23,2.33h2.9c2.51,2.92,5.14,5.97,7.33,8.52,3.88,1.49,7.48,1.15,10.87,1.92,3.13.71,6.1,2.11,9.19,3.06,4.27,1.32,8.51,2.64,12.58,4.54,5.12,2.39,8.28,6.68,11.03,11.22.95,1.57,1.17,3.79,1.75,5.69.81,2.65,2.24,5.01,2.8,7.84.64,3.2,1.24,6.08-.15,9.16-.31.68-.04,1.61-.04,2.5-2.46.51-4.77,1.06-5.05,4.18-.09,1.01-.58,2.25-1.32,2.88-2.9,2.46-3.99,5.96-5.59,9.15-2.71,5.38-6.06,10.23-10.13,14.74-2.81,3.11-6.08,5.75-8.62,9.18-2.53,3.43-5.93,6.24-9.08,9.18-1.95,1.82-4.17,3.37-7.03,5.65.38-1.93.57-2.88.95-4.75-2.55,1.81-4.29,3.14-6.12,4.31-1.86,1.19-3.81,2.3-5.95.49Zm10.49-21.86c-.67.66-.56.54-.43.43,4.73-3.8,7.94-8.89,11.62-13.58.47-.59.86-1.32,1.05-2.04,1.5-5.81,4.66-10.95,5.54-17.14,1.07-7.56.73-7.21-1.36-12.18-1.67-3.99-4.47-7.37-8.6-9.14-3.81-1.63-7.79-2.86-11.69-4.27-1.37,3.04-1.95,5.98-1.6,9.03.32,2.78-.63,5.4-1.43,7.87-1.67,5.16-2.87,10.32-2.59,15.32-2.25,3.83-2.84,7.66-3.2,11.56-.62.58-1.23,1.14-1.8,1.67v13.61c-.48.94-.83,1.6-1.13,2.19.68.67,1.15,1.14,1.54,1.53.57-.31,1.09-.64,1.66-.89,3.59-1.55,7.63-1.43,12.42-3.98Zm-10.5,21.78c-.65.13-1.3.25-1.95.38.03.21.05.43.08.64.64-.05,1.28-.11,1.92-.16-.01-.29-.03-.57-.04-.86Z"/><path d="m753.54,109.39c1.26-2.32,1.36-3.29,1.04-6.86-.05-.52.52-1.09.82-1.68-1.33-1.18-1.21-2.8-.44-4.25,1.48-2.79,1.7-5.72,1.58-8.76-.16-3.99,1.01-7.75,1.95-11.57,1.12-4.51,3.13-8.83,3.04-13.61,1.85-2.04.22-5.02,1.95-7.14.28-.34-.07-1.18-.14-1.88-.77.45-1.29.75-1.81,1.05v-9.37c-2.4-1.97-4.77-3.92-6.6-5.42-.51-2.2-.86-3.71-1.34-5.81.56-.34,1.55-.93,2.54-1.53.91-.84,2.3-.84,3.42-2.1.85-.96,2.4-1.31,3.86-2.04v-4.61c1.38.89,2.43,1.58,3.88,2.52v-4.71c.68-.74,1.22-1.33,1.7-1.85,2.09.89,3.93,1.66,6.74,2.86.48.51,1.71,1.84,3.1,3.33,2.82-.57,5.59.41,8.55-.93,2.34-1.06,5.41.52,8.06-1.05.63-.38,2,.47,3.51.89,2.04-3.16,6.24-2.23,9.52-3.9,2.76,1.94,7.87-.39,9.23,4.51,2,.56,3.93,1.1,5.65,1.58-1.17,1.88-2.23,3.59-3.51,5.64h-1.71c-.65.64-1.12,1.11-1.61,1.6.32.35.63.69.95,1.04-2.03.5-2.24,2.83-3.99,3.9v4.37c-1.85,1.01-3.62,1.98-5.75,3.15-2.17-.1-4.77-.14-6.8,2.06-3.57-.75-6.85.65-9.97,2.12-1.11.53-2.09.59-3.17.82-1.04.22-2,.76-3.52,1.38-.23,1.9-.5,4.06-.76,6.22-.22,1.85-.42,3.71-.72,6.46-.18-.11.37.48.97.53,4.1.34,7.83,2.59,12.05,2.29,1.58-.11,3.08,0,4.64-.91,1.26-.73,3.14.45,4.62-.98.45-.43,1.97.24,3.36.46-.04.04.32-.28.66-.59,3.48.71,5.22,3.55,8.01,5.98-.97.55-1.55.88-2.55,1.45.42,3.38-1.61,5.98-3.68,8.97-2.15,3.1-4.88,4.76-8.43,6.48-2.76,0-6.1-.16-9.41.08-1.29.09-2.52,1.07-4.23,1.85-.2-.75-.46-1.72-.72-2.69-.34.38-.68.76-1.01,1.14-3-.83-5.99-1.67-8.96-2.49-.54.91-1.37,1.69-1.42,2.51-.15,2.71-1.73,5.05-2.05,7.59-.47,3.75-.12,7.6-.12,11.4.48.48.95.94,1.52,1.51,3.76-.17,7.59-.44,11.46-.81,7.25-.7,14.63-.19,21.95-.22,1.05,0,1.79.68,2.61.91,2.99.82,4.86,3.17,7.72,4.62-.96.35-1.53.57-2.41.9.28.68.56,1.34.88,2.13-.45.22-1.08.52-1.73.84v2.38c-2.18.53-4.43,1.07-6.96,1.68-.03.46-.07,1.25-.13,2.28-1.71.49-3.5,1-5.92,1.69-.27.25-1.08,1-2.29,2.13-.47-1.14-.74-1.78-1.18-2.85-.38.88-.63,1.47-.88,2.05-2.18,1.29-4.48-3.38-6.3.41-2.47-1.93-5.01-1.2-7.38-1.2-2.38,0-4.91-.75-7.05,1.08-.59-.42-1.1-.77-1.69-1.19-2.23.9-4.51,1.82-7.84,3.16-4.08.18-8.06-2.79-12.06-5.45-1.12-.74-1.46-2.64-2.17-4.02.35-.61.72-1.24,1.2-2.07-.84-.28-1.41-.46-2.33-.77v-5.7c1.37-1,1.37-1.98,0-2.98Zm62.29-70.58v.99h.33v-.99h-.33Z"/><path d="m447.07,61.25c-.46,1.25-.78,2.11-1.32,3.57,0,1.48.63,3.9-.17,5.71-.84,1.89-.96,3.91-1.62,5.78-1.08,3.08-.64,6.66-1.27,9.94-.68,3.54-.85,7.14-1.67,10.69-.51,2.23-1.29,4.56-1.29,6.97,0,1.4.26,2.75-.89,4.13-1.19,1.41,1.2,3.27.09,5,1.86,1.64.12,3.81,1.02,5.48-1.29,1.1-3.37,1.13-3.18,3.45-4.59.6-7.08,4.95-11.36,6.52-4.82-1.78-7.03-5.32-7.68-10.17-.18-1.35-.8-2.63-1.17-3.78-3.07.28-5.92.63-8.77.79-4.68.27-8.98-1.29-13.25-2.96-5.49-2.15-10.24-5.34-14.66-9.25-6.19-5.48-8.99-9.1-11.55-16.56-1.92-5.61-1.92-11.9-.59-18.84,1.2-6.28,2.46-12.56,4.17-18.69,2.39-8.56,5.85-16.72,12.39-23.22,4.34-4.32,8.92-8.29,14.34-11.2,1.5-.81,2.88-1.72,4.8-1.77,1.42-.04,2.81-1.15,4.37-1.86.53.27,1.17.76,1.89.97,6.27,1.74,6.2,1.8,10.54,5.92,4.81,4.57,8.98,9.6,12.41,15.7-.35.14-.93.39-1.51.63.13.17.25.34.38.5h-5.54c-1.52-1.16-3.17-2.41-5.04-3.84h-3.99c-.51.53-1.18,1.25-1.72,1.81-1.73-.35-3.39-.68-5.09-1.02-2.06,2.44-3.93,4.66-5.99,7.1-.18-.49-.36-.95-.64-1.71h-3.4c-5.64,4.09-7.01,11.21-10.78,17.36-2.17,0-3.15,2.31-3.41,4.03-.59,3.91-3.46,7.01-3.52,11.03,0,.24-.41.48-.57.66,1.01,4.28,2,8.51,3.08,13.06,1.65,1.64,3.66,3.38,5.35,5.39,1.77,2.1,4.46,2.25,6.51,3.57,2.23,1.44,4.7,1.63,6.98,2.5,2.63,1.01,5.13.46,7.64.84,2.68.41,4.95-.87,7.44-1.36,1.42-2.59,2.78-4.76,1.26-8.02-.89-1.91-1.09-4.7.51-6.97.38-.54.13-1.52.17-2.27-1.9-.57-3.36.48-4.76.55-5.53.26-10.99,2-16.55,1.1-2.51-.4-4.79-1.48-5.72-4.28-.63-1.9-1.51-3.72-2.34-5.73,1.22-.87,2.28-1.62,3.34-2.38.93-.61,2.25-.9,3.65-1.32,7.4-2.21,14.28-5.84,22-7.3,4.27-.81,8.55-1.29,12.57-.59,3.91.68,8.34-.08,11.79,2.75.61.5,1.3.9,2.3,1.58Zm-21.22-32.49c-.07.06-.13.13-.2.19.23.27.46.54.7.81.11-.1.21-.21.32-.31-.27-.23-.54-.46-3.38-1.75.72.78.93,1.15,1.07,1.13.48-.07.94-.28,1.4-.43-.6-.17-1.2-.34.09.36Zm-22.98,13.13c.27-.23.54-.46.82-.69-.11-.1-.21-.21-.32-.31-.23.27-.46.54-.7.81l.2.19Zm-.18-.21c-.27.23-.54.46-.82.69.11.1.21.21.32.31.23-.27.46-.54.7-.81-.07-.06-.13-.13-.2-.19Z"/><path d="m1119.3,50.73c0-.5-.21-1.18.03-1.46,2.15-2.37,2.21-5.18,1.84-8.29h-2.64c-.52-6.35-.03-12.55-.29-18.83-1.2-.75-2.39-1.5-3.71-2.33.74-2.09,1.6-3.89,3.73-4.91,1.81-.87,3.43-2.6,5.27-2.81,3.08-.35,5.3-1.42,6.7-4.64,1.4,1.37,2.54,2.47,3.79,3.69,1.01-.3,2-.6,3.2-.96,1.45,2.54,2.98,5.21,4.95,8.66.42.29,1.69,1.17,2.94,2.04,3.38-1.89,7.05-.74,10.57-.86.64-.02,1.5,1.05,2.57.88.95-.15,2.39.11,2.76-.41.92-1.3,1.4.8,2.27.01.61-.55,2.03-.25,2.58-.82,1-1.04,2.11-.68,3.2-.79,3.35-.33,6.71-.62,10.05-1.03.72-.09,1.37-.7,2.09-.94,1.47-.5,2.97-.91,5.1-1.56.25-.23,1.06-.98,1.72-1.58,1.65,1.66,3.02,3.05,4.66,4.7.38-1.12.58-1.7.83-2.42h2.41c.7.74-.5.83-.63,1.39,2.35,2.42,6.17,3.14,8.21,6.61-.81.47-1.59.82-2.26,1.32-.63.47-1.14,1.1-1.83,1.78-.7-.51-1.2-.88-1.88-1.37-1.46,1.96-2.96,3.97-4.47,5.99.42.66.74,1.15,1.05,1.64-1.78.6-3.44,2.69-5.29.55-.9.79-1.76,1.53-2.21,1.93-.13,2.95,3.21,2.86,3.83,4.85-1.45,2.37-3.08-.24-4.14.56-1.4,1.05-3.03.09-4.58,1.14-1.16.79-2.96.9-3.89,2.28-1.59,0-3.08,0-4.58,0,.26-.33.46-.78.8-.98,3.24-1.82,6.95-2.48,10.3-4.04.47-.22.67-1,1.24-1.92-6.53-.22-11.06,2.09-14.34,6.93-.76.15-1.91-.49-2,.99-.33.33-.67.66-1,.99-2.19.69-4.59,1.02-6.5,2.17-1.63.98-2.92.78-4.55.63.45-.77.75-1.29,1.06-1.81.98-.38,2.53.92,3-1.01,2.25.44,2.66-1.59,3.58-3.08-1.21.5-2.43.99-3.58,1.46v1.62c-.98.39-2.53-.9-3,1.01h-6.02c3.29-1.57,5.28-2.91,7.21-4.45,1.71-1.36,4.26-1.66,6.39-2.53,1.55-.63,3.03-1.43,4.38-2.55-3.49.94-7.46.34-10.47,3.53-2.88.26-6.31-.73-9.04,2.07-3.74-.8-6.62,1.93-10.11,2.68-.39-.25-.9-.59-1.49-.96-.62.55-1.1.97-1.55,1.37-1.27,6.06.62,11.94.83,18.4.64.53,1.63,1.36,2.79,2.32,2.2,0,4.79-.43,7.18.08,7.17,1.52,14.4.57,21.58.98,1.64.09,3.23.97,5.86,1.8,2.01.31,5.14.8,8.62,1.33-2.78,7.64-9.67,10.17-16.33,13.7h-2.37c-.66,1.3-1.33,2.61-2.21,4.36-.21-1.37-.34-2.28-.5-3.35-3.05-.14-2.91,4.13-5.77,3.97.05-1.64.18-3.31-2.37-4.14-3.58,1.51-7.37,3.63-11.59,4.66-.55.13-.95.89-1.61,1.55-.67-1.05-1.31-2.05-1.94-3.04-.45.45-.92.91-1.57,1.56.99,4.1-1.31,7.83-1.92,11.85-1.6,1.02-.33,3.02-1.14,3.95-1.21,1.38-.59,2.78-.84,4.16-.37,1.99-.72,3.99-1.19,5.96-.32,1.35-.8,2.65-1.29,4.22-.85.04-1.97.1-2.99.16-.51,1.16-.75,2.56-1.58,3.31-.83.76-2.24.87-3.51,1.31-.28-.49-.67-1.18-1.42-2.48-.98,1.85-1.65,3.12-2.32,4.39-2.69-.63-5.5-1.29-8.09-1.9-1.13-1.42-2.21-2.78-3.43-4.32.81-1.19,1.75-2.58,2.84-4.19,0-.68,0-1.67,0-2.66.59-.58,1.18-1.17,1.88-1.87v-6.74c.14.03.28.05.41.08.83-2.45,1.66-4.91,2.53-7.48-.18-.2-.49-.54-.8-.89,1.56-1.16,2.07-3.33,3.95-4.25.07-.04-.23-.81-.37-1.29-.45.41-.8.72-1.85,1.66.56-1.73.86-2.67,1.26-3.91-.21-.25-.59-.72-.75-.92.84-3.65,1.63-7.09,2.41-10.49-.22-1.47-.33-3.02-.7-4.51-.4-1.58,1.04-2.9.19-4.71-.52-1.11.44-2.98.93-4.44.49-1.44,1.22-2.8,1.93-4.37-.45-.9-.99-1.95-1.65-3.26-.64,1.85-1.19,3.45-1.82,5.27-1.83-3.48-1.68-7.03-1.46-10.73.6-.4,1.25-.84,2.31-1.29.1,0-.21.01-.51.02.13.98.26,1.95.39,2.93.22-.02.45-.04.67-.06-.05-.97-.09-1.94-.94-2.89Zm9.9-37.52h-3.03c.15.72.24,1.16.43,2.11.84-.68,1.39-1.13,2.6-2.11Zm4.92,45.65c-.29.01-.57.03-.86.04.12.56.24,1.12.37,1.68.16-.02.33-.04.49-.07v-1.65Zm28.24,34.57c1.01.53,1.68.87,2.36,1.23.55-1.13.98-2.01,1.41-2.89-1.3-.35-2.44-.65-3.38-.91-1.81,1.07-3.59,2.13-5.41,3.21,2.03,1.18,3.68-.18,5.02-.64Zm8.9-48.68c-.09,1.49-1.24.84-2,.99-.33.33-.67.66-1,.99.12.68.23,1.37.39,2.28,1.46-.71,2.54-1.24,3.28-1.6.53-1.07.93-1.87,1.32-2.67h-2Zm-22.09,2.55c-.83.87-1.37,1.44-2.22,2.33h4.04c-.87-1.12-1.27-1.63-1.82-2.33Zm42.07-5.78h2v-.5h-2v.5Zm-79.2,69.84v-1.99h-.5v1.99h.5Zm86.19-80.86h1v-.33h-1v.33Zm-41.06,59.88c-.27.23-.54.46-.82.69.1.1.21.21.31.31.23-.27.46-.54.7-.81-.07-.06-.13-.13-.19-.19Zm-41.22-28.73v-.99h-.33v.99h.33Z"/><path d="m1089.32,46.75c-1.74,1.75-3.48,3.5-5.43,5.45,1.08.39,1.66.6,2.6.94-3.24,2.14-2.82,6.08-5.01,8.99.16.22.4.53.78,1.04-.86,2.88-1.77,5.93-2.71,9.07,1.76,1.39.09,2.88-.11,4.48-.22,1.74-.48,3.38-1.04,5.06-.59,1.76-.58,3.72-1.1,5.52-.46,1.6-1.72,3.07-1.85,4.66-.15,1.87-.98,3.26-1.75,4.57.28,1.59.54,3.04.76,4.27-.98.98-1.69,1.68-2.49,2.48-.45-.28-.92-.58-1.7-1.06-1.11,1-2.3,2.06-3.53,3.17-2.33-.17-4,.91-5.21,3.23-.67-.42-1.31-.83-1.45-.92-2.44.32-4.43.59-6.43.85-1.81-3.58-4.18-6.2-7.17-8.33v-2.74c-1.41-2.5-3.79-4.15-4.17-7.05.01.02.08.08.14.15.27-.23.54-.46.82-.69-.11-.1-.21-.21-.31-.31-.23.27-.46.54-.64.86-.69-.5-1.44-1.05-2.32-1.69.55-.76.92-1.26,1.08-1.49-.99-2.53-1.94-4.94-3.01-7.66-1.59-.43-3.39-.91-5.42-1.45-2.07-2.9-4.35-6.08-6.92-9.68-.19.59-.39,1.19-.59,1.79l-.76-.46c0,1.12-.06,2.24.01,3.36.23,3.71-1.28,7.19-1.59,10.7-.4,4.63-2.96,8.76-2.48,13.5.12,1.14-.64,2.36-.92,3.56-.29,1.22-.06,2.42-.57,3.74-.73,1.88-.43,4.15-.59,6.61-.67.03-1.45.07-2.51.13-.34,3.22-2.23,5.69-4.45,7.53-1.33-.25-2.46-.46-3.57-.67-.21.79-.33,1.24-.44,1.69-.12.12-.24.23-.35.35-1.05-2.04-3.38-.22-4.86-1.63-.71-.68-1.66-1.08-1.96-2.16-.65.32-1.29.64-2.05,1.01-.73-2.3-1.41-4.46-2.09-6.63.99-.98,2.25-2.21,3.17-3.12,1.17-6.13,2.83-11.54,3.29-17.18,1.89-1.45.58-3.86,1.82-5.75.91-1.39.16-3.86.2-5.85,0-.45.24-.89.38-1.33,2.07-6.4,1.93-6.96.7-14.85-.36-2.3-.75-4.87.46-7.21.28-.54.49-1.22.41-1.8-.65-5.07,1.25-9.96,1.05-15-.09-2.06,1.43-3.82,1.06-6.06-.33-2-.04-4.04.78-6.09.48-1.21-.5-2.98-.9-4.85,1.33-1.83,2.82-3.87,4.13-5.67,1.56.8,2.9,1.5,4.75,2.45.4.51,1.2,1.56,2.27,2.94.49-.9.92-1.31.85-1.62-.28-1.36-.71-2.69-1.21-4.46.54-.61,1.14-1.29,1.56-1.76.95.37,1.47.46,1.48.6.26,2.32,1.84,2.79,3.67,2.73,1.2,2.07,2.01,4.45,3.63,5.96,1.45,1.35,1.96,3.82,4.5,4.07.5.05,1.1.81,1.36,1.37,1.72,3.76,4.07,7.42,4.86,11.38,1.2,6.04,3.84,11.38,6.56,16.71,2.15,4.22,4.77,8.2,7.03,12.04,2.35-2.38,4.53-4.59,6.71-6.8.29.21.57.42.86.63,0-.63-.27-1.53.04-1.86,2.41-2.49,2.64-5.9,3.91-8.85,1.21-2.81,2-5.8,3.06-8.68.48-1.29,1.18-2.5,1.85-3.89.14-2.55.28-5.32.48-8.09.02-.25.41-.47.58-.65-1.46-1.78-1.37-3.49.07-5.2-1.27-1.55.29-3.1-.04-4.87-.49-.4-1.12-.92-1.76-1.44v-5.48c1.25,2.48,2.19,4.34,3.42,6.79.29-.83.55-1.56.81-2.29.19.19.38.37.56.56v-2.98c2.09-.47,2.27-2.8,3.81-3.83,1.45-.97,2.82-2.06,4.19-3.06v-2.57c.52.3,1.05.61,1.56.9.32-.27.66-.56.92-.78.75,1.87,1.49,3.71,2.22,5.55,1.48-.34,2.6-.6,3.93-.9.21-.45.52-1.12.86-1.85.8,1.91,2.36,2.68,4.31,3.21.82,2.49-.48,4.45-1.63,6.17.38,2.18.72,4.16,1.11,6.39h-2.61c-.31.43-.6.66-.65.94-.29,1.53.02,3.01-.71,4.67-.77,1.75-.6,4.27.02,6.18.69,2.12,1.21,3.8-.21,5.81-.47.66-.07,1.92-.07,2.87-.71.56-1.38,1.08-2.04,1.6Zm-55.87,27.73l-.19.2c.23.27.46.54.69.81.11-.1.21-.21.31-.31-.27-.23-.54-.46-.91-.59-.15-.75.5-1.9-1.09-1.88.06-.07.13-.13.19-.2-.23-.27-.46-.54-.69-.81-.11.1-.21.21-.31.31.27.23.54.46.91.59.15.75-.5,1.9,1.09,1.88Zm-25.74-21.77h.33v-.99h-.33v.99Zm27.65,24.52v-.33h-1v.33h1Zm52.9-24.76c.22.09.44.17.65.26.79-1.19,1.58-2.38,2.24-3.38-.5-.99-.92-1.8-1.56-3.06-.52,2.39-.93,4.28-1.33,6.17Zm-5.82-46.5c-.13-.98-.26-1.95-.39-2.93-.22.02-.45.04-.67.06.05.97.09,1.93.14,2.9.3-.01.61-.02.91-.03Zm2-1.4c.65-.32,1.32-.64,1.99-.97-1.83-.66-2.44-.24-1.99.97Zm-69.06,12.02h1v-.33h-1v.33Z"/><path d="m909.53,53c-1.4,5.03-5.18,8.37-7.51,12.56-1.88-.2-1.17,1.36-1.66,2.2-1.86,3.23-3.87,6.41-6.09,9.41-1.87,2.52-3.29,5.32-5.05,7.82-2.63,3.73-3.14,8.54-6.55,11.75.61,2.46-2.04,3.4-2.54,5.42-.47,1.9-1.7,3.6-2.34,5.48-.31.91-.04,2.01.41,3.01-.31.98-.62,1.95-1.08,3.42-1.77,2.16-3.89,4.76-6.01,7.34-.54-.48-.91-.8-1.33-1.17-2.33,1.28-4.63,2.55-7.33,4.03-1.09-.44-2.7-1.01-4.22-1.74-1.53-.73-3.87-1.32-4.28-2.51-.68-1.97-3.1-1.62-3.54-3.84.93-1.47,2.01-3.16,3.27-5.14-.42-.8-.91-1.76-1.39-2.67-.87.49-1.52.86-2.63,1.47-.08-1.67-.14-2.9-.2-4.06.8-.29,1.38-.5,2.42-.87-.58-1.24-1.1-2.38-1.83-3.95-.46,1.22-.67,1.79-.91,2.41-.26-.22-.59-.37-.64-.58-.9-3.66-1.2-7.43-1.83-11.12-.74-4.38-.85-9.13.9-13.43.92-2.25,1.42-4.02,0-6.22-.51-.79-.08-2.19-.79-3.33-.18,1.29-.37,2.58-.58,4.06-.64-.61-1.1-1.04-1.44-1.36-.43-4.28-.42-8.54-1.44-12.53-.61-2.41-.44-4.76-.92-7.06-.49-2.35-.89-4.64-1-7.05-.1-2.17-.74-4.33-1.11-6.5-.8-4.8-.97-4.74-.02-8.74.55-2.28.76-4.65,1.12-6.96,1.05-1.1,2.75-2.07,2.92-3.26.28-1.88,2.31-1.04,2.63-2.35.35.31.71.63,1.31,1.16.57-.78,1.16-1.58,1.91-2.6,1.72.77,3.26,1.46,4.94,2.2.16-.14.5-.45,1.08-.96,1.34,2.49,2.65,4.93,3.99,7.41-.23.76-.72,1.59-.67,2.39.19,3.51-.74,7.11.9,10.54.39.81.03,1.96.06,2.95.05,1.58.41,3.05.84,4.6.99,3.6,2.19,7.21,2.21,11.05,0,1.52.72,3.02.92,4.56.18,1.41-.3,2.94,1.03,4.05-1.22,1.71.13,3.42.06,5.14-.05,1.3,1.03,2.98.51,3.86-.97,1.65-.39,3.19-.54,4.76-.14,1.48-.03,2.98-.03,4.47v2.92c2.76-3.73,5.1-6.47,6.95-9.5,3.71-6.06,7.13-12.29,10.71-18.43,1.95-3.34,4.09-6.58,5.94-9.98.71-1.32,1.76-2.61,1.43-4.4-.23-1.27-.05-2.62-.05-3.67,1.45-1.06,2.72-2,4.07-2.98v-6.79c1.54.48,2.82.88,4.32,1.34,1.18-1.65,2.32-3.24,3.43-4.8-.28-.38-.52-.69-.81-1.07.53-.15.83-.31,1.13-.3,1.43.09,1.61,2.7,3.97,1.59-.83-.82-1.51-1.63-2.33-2.27-.46-.36-1.13-.44-1.74-.65.89-.76,1.71-1.47,3.33-2.85,1.86-.57,2.87,2.67,5.5,2.94-.18-.75-.39-1.63-.66-2.8,3.09.31,4.73,2.56,6.67,4.41.88,3.2-2.58,3.78-3.51,5.89-.84,2.11-1.2,4.36-2.51,6.41-2.11,3.31-2.63,6.98-1.14,10.87-.53,1-1.17,2.23-1.87,3.56.39.32.72.59,1.24,1.01Zm-59.06,43.14v-.33h-1v.33h1Zm.33,15.24v.99h.33v-.99h-.33Z"/><path d="m749.35,21.23c-1.45-.84-2.9-1.69-4.47-2.6-1.81,1.22-3.49,2.35-5.18,3.48-.1.86-.19,1.64-.27,2.41-3.42,1.04-6.46,3.14-10.44,3.41-.47-.66-1.04-1.46-1.21-1.7-2.63-.9-4.99.7-6.53-1.12-3.66,1.1-7.07,2.26-10.25,4.52-3.13,2.24-5.27,5.33-8.27,7.38-.25,4.18-2.81,8.16.45,12.56.2.12.99.6,1.79,1.05.67.38,1.4.68,2.03,1.11,3.92,2.65,8.58,3.42,12.94,4.9,6.99,2.37,13.29,5.91,19.25,10.14,2.15,3.79,5.31,6.95,7.06,11-.75,2.86,2.48,5.36.44,8.58-1.08,1.7-.72,4.28-1.04,6.6-3.59,3.06-6.24,7.1-10,10.05.23.26.55.6,1.02,1.11-1.54,1.82-3.07,3.64-4.55,5.39-1.27-.5-2.27-.89-3.44-1.35-3.18,2.95-7.61,3.54-10.89,6.33-.75-.41-1.42-.78-2.41-1.31-.74.68-1.55,1.43-2.51,2.31-.49-.22-1.05-.48-1.89-.87-.2.13-.71.74-1.12.68-3.95-.57-7.69.99-11.58,1.1-1.5.04-3.57.32-4.34,1.3-1.5,1.91-3.48,1.44-5.41,1.71.54.93.91,1.57,1.57,2.69-3.53.57-6.63,1.07-9.6,1.55-2.86-2.97-5.72-4.69-9.46-2.06-.38-1.85-.69-3.35-1.06-5.12.07-.09.44-.59.75-1-1.25-1.13-2.34-2.11-4.12-3.71,2.24-.25,3.42-.38,4.8-.53.13-.84.27-1.75.44-2.9.49.38.82.64,1.42,1.11.45-.51.94-1.07,1.51-1.71-.45-.91-.86-1.72-1.45-2.9,2.61-.84,5.05-1.62,7.59-2.44.33.27.7.57,1.08.87.6-.34,1.24-.69,1.84-1.02.54.49.9.82,1.26,1.16,5.34-2.42,11.62.73,16.79-2.78,5.33-.5,9.98-3.4,15.46-4.31,2.4-2.54,4.95-5.26,7.22-7.66,0-1.93.23-3.3-.05-4.56-.51-2.34-1.44-4.86-3.96-5.44-3.45-.79-5.72-3.17-8.8-5.04h-3.01c-.8-.89-1.79-1.99-2.57-2.86-7.96-1.61-14.63-4.66-18.56-11.64.42-1.5.77-2.79,1.13-4.08-.88-.23-1.33-.35-1.78-.46-.13-.28-.36-.56-.36-.84-.03-1.82.14-3.66-.06-5.46-.2-1.85.2-3.6,1.14-5,1.36-2.02.64-4.69,1.74-5.8,1.46-.85,2.12-1.24,2.61-1.52.26-.48.5-.74.54-1.03.15-1.24.21-2.35.87-3.63,1.8-3.49,3.56-6.81,7.09-8.94,1.24-.75,2.14-2.06,3.21-3.11,4.09-4.03,8.94-6.98,13.85-9.88,1.84-1.09,3.85-1.18,5.78-1.74,3.2-.93,6.34-2.07,9.81-1.57,2.38,2.86,6.64,3.63,8.37,7.28,3.49,1.65,5.4,4.96,7.8,7.87Zm-81.65,94.03c-.23-.27-.46-.54-.7-.81-.11.1-.21.21-.32.31.27.23.54.46.82.69.07-.06.13-.13.2-.19Zm-.21.18c.23.27.46.54.7.81.11-.1.21-.21.32-.31-.27-.23-.54-.46-.82-.69-.07.06-.13.13-.2.19Z"/><path d="m1359.92,108.59c.23.69.43,1.26.71,2.1,1.66-.92,3.15-1.74,4.5-2.49v-3.95c.57-1.09.99-1.91,1.42-2.73,1.3,1.27,3.33.82,4.94,1.39-.03-.46.07-.92.28-1.33-2.51-3.01-6.51-3.76-9.59-6.28-7.74.56-15.72.98-23.51,3.13-.33-.3-.69-.62-.86-.77-.84.29-1.55.7-2.29.77-4.85.48-9.82-.95-14.59.97-.45.18-1.18-.28-1.77-.46-1.02-.3-2.03-.6-2.93-.87-.22-2.15-.06-4.01.89-5.79.24-.45-.09-1.19-.15-1.65-.99.35-1.77.62-2.93,1.03,1.97-3.36,2.66-6.5,3.19-9.69,3.16-2.13,1.68-6.8,4.91-8.84-.35-.4-.92-.76-.94-1.14-.1-1.65.42-3.51-.17-4.91-.64-1.52,1.58-2.18.42-3.86-.78-1.13-.83-3.51-.13-4.72.76-1.34-.04-2.58.69-3.91.7-1.28.38-3.27.09-4.88-.31-1.76,1-2.96,1.1-4.57.2-3.35.61-6.69.98-10.03.05-.44.3-.87.49-1.28,1.59-3.44,1.78-7.03.93-10.56-.61-1.24-1.22-2.47-2-4.03-.77-.87-1.86-2.08-2.87-3.21-.61.4-1.12.74-1.93,1.28-.35-.75-.58-1.26-.92-2-.67-.35-1.62-.86-2.58-1.35-.13-.07-.33,0-.28,0-1.1.94-2.08,1.77-2.62,2.22.35,3.52.65,6.48.98,9.82-1.12-.18-1.69-.27-2.52-.41.58-1.25,1.01-2.2,1.56-3.39-1.2-.19-2.12-.34-3.18-.52-.64-1.11-1.31-2.26-1.75-3.02.33-1.07.54-1.74.86-2.8-1.16.55-1.8.86-2.21,1.06-1.02-.42-1.81-.75-3.19-1.33.37,1.89.61,3.1.87,4.4-1.31-.39-2.4-.71-3.33-.99.59,3.02,1.44,5.73,1.58,8.48.14,2.75-.44,5.54-.71,8.32.8-.07.84-1.31,1.59-.7,1.31,8.56-2.03,16.96-.12,25.41.35-.78.02-1.86.42-2.28.77-.82.95-1.62.94-2.64,0-.57.24-1.13.38-1.7.52,2.37.19,4.6.19,6.83,0,2.15-.67,4.19-.72,6.36-.05,2.23-1.12,4.45-1.85,7.01,2.69-.14-.48,3.12,1.92,3.44.18-.32.41-.59.64-.86.11.1.21.21.32.31-.27.23-.54.46-.82.69-.07-.06-.13-.13-.14-.15-.57,1.94-2.29,3.42-2.07,5.63-2.77.24-1.68,3.3-3.39,4.56-1.55,1.14-2.38,3.24-3.51,4.88.99,2.49-1.04,8.99-3.14,11.57-1.02,3.15,1.62,5.47-.7,7.61.8,1.54,1.58,3.05,2.27,4.39h2.38c.25-.74.44-1.3.77-2.24,1.3.57,2.43,1.07,3.96,1.75-1.44.95-2.44,1.6-3.43,2.25,3.2,1.58,5.69-.75,8.48-1.77.28.79.49,1.37.78,2.18,4.57.23,8.63-3.28,13.12-1.95.85-.85,1.43-1.44,2.02-2.03,1.42,1.8,3.37.68,4.69.96,1.54-.79,2.78-1.43,3.69-1.89,4.51,2.03,6.9-1.29,9.86-2.97h3.89c1.3,1.32,2.58,2.62,3.29,3.34.76-.26,1.5-.52,2.22-.77-.67-.67-.91-.9-1.21-1.21.75-.56,1.5-1.12,2.07-1.55.89.62,1.51,1.05,2.12,1.48-.54.54-.78.78-1.14,1.13.39.21.73.39,1.25.67.69-1.06,1.35-2.06,2.08-3.18h4.32c.17-.27.65-1.01,1.13-1.76Zm-41.91-43.59c.16.95.66,2.25-2.22,1.11.89-.44,1.56-.78,2.22-1.11Zm-2.51,7.6h.33v.99h-.33v-.99Zm-5.5-47.88c-.16.02-.33.04-.49.07-.12-.56-.25-1.12-.37-1.68.29-.01.57-.03.86-.04v1.65Zm-7.81,96.39c-.97.05-1.94.09-2.91.14-.02-.22-.04-.44-.06-.66.98-.13,1.96-.26,2.94-.38.01.3.02.61.03.91Zm1.98-1.79c-.09,1.49-1.24.84-2,.99.09-1.49,1.24-.84,2-.99Zm-15.32-13.92v.99h-.33v-.99h.33Zm0,2.98v.99h-.33v-.99h.33Zm15.22,10.85c.23-.27.46-.54.7-.81.11.1.21.21.31.31-.27.23-.54.46-.82.69-.07-.06-.13-.13-.2-.19Z"/><path d="m1219.23,106.4c-2.66.37-5.54-1.04-8.08,1.4-.7-1.09-1.12-2.07-1.83-2.73-.77-.71-1.76-1.31-2.77-1.6-1.61-.48-2.53-1.27-2.31-3.03.52.3,1.05.6,1.86,1.08.11-2.42.7-4.73-1.09-7.17.68-.74,1.41-1.55,2.2-2.41v-4.76c-.45-.59-.9-1.18-1.88-2.46-.14,2.58.13,4.39-1.09,5.78-1.85-1.86-2.1-4.25-1.99-6.6-.81-.29-1.39-.49-2.19-.77.53-1.19,1.01-2.28,1.52-3.44.75-.08,1.53-.16,2.48-.26v-2.59c1.38-.14,2.62-.27,3.84-.4,1.3-3.47,1.77-7.16,3.27-10.54.1-.23-.61-.82-.94-1.25,1.04-2.99,3.96-5.17,3.86-9.54-1.64,2.11-2.84,3.63-4.2,5.38h-2.55c2.06-4.07,3.59-8.18,5.17-12.29.59-1.53.12-4.43,3.3-4.66.61-.04,1.08-2.05,1.86-3.65-1.08.34-1.64.51-2.52.78.17-1.98,2.46-3.93-.13-5.63,1.34-1.93,2.59-3.74,3.95-5.71.31-2.21.65-4.68.96-6.86,1.29-.62,2.11-1.01,2.95-1.41.52.52,1.11,1.11,1.88,1.88.61-.85,1.2-1.67,1.98-2.74,1.58-.29,3.56-.65,6.04-1.1.42.37,1.22,1.07,2,1.76.51-1.39.98-2.68,1.67-4.53,1.63,2.16,2.85,3.77,4.13,5.47.47-.29.94-.58,1.75-1.08.74.66,1.57,1.39,2.39,2.11,1.41-2.27,4.15-3.44,6.85-3.09.87.11,1.9-.03,2.67-.42,1.25-.63,2.32-2.18,3.51-2.23,1.75-.07,2.65-.96,3.78-1.89.42-.35,1.24-.22,2.07-.34,1.41,2.33,2.83,4.67,4.52,7.46,1.05.54,2.57,1.31,4.08,2.09,0,.83,0,1.66,0,2.48h-1.95c1.23,2.19,1.66,4.43,2.81,6.57,1.2,2.24,3.26,4.08,3.28,7.13.02,2.36,1.72,4.55,1.95,7.11.16,1.74,1.27,3.4,2.18,5.65.64-3.04.17-6.68-1.28-11.37-1.03-3.34-1.93-6.74-4.25-9.57,2.4,1.37,6.12,6.54,6.21,8.57.14,3.03,1.14,5.77,1.96,8.63.71,2.48-.53,4.92-1.53,7.25-.24.56-.47,1.13-.71,1.7-.9.16-1.8.32-2.96.52.37.82.62,1.38,1,2.22-1.71,2.55-3.58,5.35-5.63,8.41-.96,3.7-2.67,7.26-6.97,9.37.08-.12-.11.04-.08.13.81,2.36-2.26,3.04-2.21,5.06-4.18,4.35-8.89,8.22-12.39,13.21-.11.16-.63.05-.5.04-2.48,3.4-4.78,6.55-7.42,10.17-.5-.96-.93-1.78-1.6-3.08-.89,1.41-1.31,2.08-1.68,2.65h-3.96c-.52.72-1.09,1.49-1.56,2.13-.75-.47-1.27-.8-2.23-1.41-.24,1.23-.41,2.08-.6,3.09-.68.68-1.5,1.5-2.2,2.19-2.11.63-4.43-.85-5.82.71-1.24-.1-2.16-.17-3.08-.25-.01.16-.03.32-.04.48-.8-.34-1.6-.68-1.99-.84.81-.81,1.78-1.77,2.53-2.51-.89-2.05-2.84-2.57-2.24-4.4.33-.33.67-.66.98-1,.16.16.34.33.51.5.46-.7.92-1.41,1.52-2.34-.67-.04-1.21-.08-1.91-.13-.06.8-.1,1.38-.13,1.97-.32.33-.65.66-.98,1Zm33.48-81.02c.17.18.33.35.5.53.59-.04,1.18-.09,1.98-.14-.05-.7-.08-1.23-.13-1.9-.94.6-1.64,1.06-1.75,2.1-.07-.06-.13-.13-.2-.19-.27.23-.54.46-.82.69.11.1.21.21.31.31.23-.27.46-.54.1-1.4Zm11.42,13.42c-3.28-1.73-5.84-3.03-8.8-3.74-.03.49-.05.93-.09,1.57h2.35c.75.85,1.4,1.57,1.94,2.18,1.38,0,2.53,0,3.55-.6.45,4.09,2.43,5.93,6.43,6.68-.68-1.7-1.16-2.89-1.45-3.62-1.81-1.11-3.21-1.98-3.92-2.46Zm-15.47,3.98c-4.12-.76-7.26-4.41-12.11-3.95-1.23,1.57-2.67,3.27-3.93,5.08-1.85,2.66-2.15,6.07-4.31,8.65-.8.96-.86,2.62-1.04,3.99-.13.98-.58,1.76-.89,2.61-1.46,4.07-3.62,8.01-3.2,12.59.06.69-.64,1.41-.73,2.15-.65,5.6-.32,11.06,2.51,15.95,2.02,1,3.73,2.32,5.9,1.37,1.53-.59,1.99-2.3,3.82-2.88,1.85-.59,3.39-2.31,4.9-3.72,3.75-3.48,4.99-8.68,8.46-12.36.54-4.34,3.64-7.17,6.16-10.35,0-.66-.19-1.39.03-1.97.78-2.07.96-3.83.19-6.2-.83-2.54-.81-5.75.74-8.26-1.09-2.43-3.55-2.62-5.59-3.56-.21.19-.57.52-.93.84Zm14.02-21.12c-1.26.63-2.43,1.2-3.66,1.81.28.64.45,1.05.71,1.65,1.27-.63,2.43-1.2,3.66-1.81-.28-.64-.45-1.05-.71-1.65Zm-54.91,56.2q-2.12.84-2.21,3.01c.8-1.09,1.36-1.85,2.21-3.01Zm49.44-54.3v-.33h-1v.33h1Zm-32.46,92.75c-1.47.5-2.93,1-4.54,1.55.67.61,1.12,1.02,1.54,1.42,1.24-.82,2.38-1.57,3.52-2.33l-.52-.64Zm-20.79-15.87v-3.9c-.15,0-.3,0-.45,0v3.9c.15,0,.3,0,.45,0Zm6.28-35.82c-.59.04-1.18.09-1.98.14.05.7.08,1.23.13,1.9.94-.6,1.64-1.06,2.35-1.51-.17-.18-.33-.35-.5-.53Zm-6.08,25.9c.13.65.25,1.3.38,1.94.22-.03.43-.06.65-.09-.05-.63-.11-1.27-.16-1.9-.29.01-.58.03-.86.04Zm70.14-60.75c-.23-.27-.46-.54-.69-.81-.11.1-.21.21-.31.31.27.23.54.46.82.69.06-.07.13-.13.19-.2Zm-.2.19c.23.27.46.54.69.81.11-.1.21-.21.31-.31-.27-.23-.54-.46-.82-.69-.06.07-.13.13-.19.2Zm-59.19,12.83v-.99h-.33v.99h.33Zm33.64,64.62v.99h.33v-.99h-.33Zm-43.3-36.12h1v-.33h-1v.33Zm66.85-44.31c.23.27.46.54.69.81.11-.1.21-.21.31-.31-.27-.23-.54-.46-.82-.69-.06.07-.13.13-.19.2Z"/><path d="m1458.39,38.2c-.56.26-1.12.52-1.74.81-.41-.86-.73-1.54-.73-1.55-2.07-.98-3.76-1.48-5.08-2.47-1.43-1.07-3.11-1.45-4.56-2.25-3.32-1.83-7.06-2.21-10.52-3.56-4.29-1.68-8.4-3.99-12.91-4.94-3.49-.74-6.55-1.86-9.27-4.23-1.21-1.06-3-1.58-4.61-2.05-4.79-1.4-9.61-2.68-13.57-5.87-.31.85-.48,1.33-.74,2.06-1.23-1.7-2.21-3.05-3.15-4.35-2.46,1.14-4.89,1.41-6.45,3.56-1.34-1.33-2.4-2.38-3.42-3.39-.7.69-1.05,1.04-1.45,1.44.3.34.6.68.9,1.03-1.66.62-3.35,1.25-5.17,1.92v4.86c-1.14-.54-1.96-.92-2.78-1.3.33,1.02.7,2.04.97,3.08.06.22-.25.54-.39.82-.43-.28-.85-.55-1.93-1.24.67,1.8,1.06,2.86,1.5,4.03-1.3.21-2.21.36-3.12.51v3.28c1.13,1.07,2.33,2.2,3.54,3.34.27-.24.62-.55.91-.82.64.97,1.29,1.93,2.04,3.07.73-1.73,1.04-3.46,3.75-2.99-1.8,3.3-1.39,6.51-.97,11.06,1.07-1.79,1.55-2.6,2.16-3.63.61,1.85,1.05,3.17,1.45,4.38-2.45,5.21.63,11.03-1.93,16.16,0,6.63,0,13.25,0,19.88,0,.14.13.28.2.41.59.59,1.18,1.17,1.95,1.94-1.04,3.08-2.11,6.29-3.18,9.47.32.51.61.98.93,1.47-.7.25-1.28.46-2.07.74,1.4,5.51-3.94,6.47-6.45,9.69,0,.09,0,.18,0,.28,0,.02,0,.04,0,.06.01.04.02.09.03.14.02.1.06.2.09.29.04.09.02.18,0,.27.18.18.35.38.5.64-.79,1.72-1.48,3.24-.46,5.34.79,1.61.51,3.73.69,5.58.67.21,1.22.38,1.96.6-1.77,1.64-3.11,3.66-4.97,4.41-3.02,1.23-4.97,3.49-7.18,5.56.55.8,1.54,1.32,2.05,2.49h-2.57c-.69-.63-1.42-1.3-2.14-1.96-.17.17-.34.34-.52.51.32.75.64,1.5,1.05,2.48-1.2,0-2.21-.13-3.15.06-.4.08-.66.83-1.19,1.58,1.34.23,2.25.39,3.22.56.15.92.3,1.84.43,2.63h5.52c.25-.72.45-1.3.71-2.06,3.02,1.18,5.86,2.76,9.16,2.09.59-.59,1.18-1.17,1.82-1.81h1.84c.68.7,1.36,1.4,1.98,2.03,2.9-1.73,5.57-3.32,8.29-4.94.39.29.87.65,1.52,1.13,4.85-4.02,10.85-5.23,17.11-7.84,1.05-1.06,2.68-2.72,4.43-4.48,1.07.25,2.18.5,3.26.74.11-.51.2-.97.26-1.26.89-.87,2.62.57,2.84-1.33h-1.93c.99-1.16,1.79-2.09,2.57-3.01,1.48.17,2.72,2.1,4.35.49,0-.82,0-1.64.02-2.48-.84.39-1.65.79-2.6,1.24-.22-.68-.36-1.11-.52-1.6.96-.51,1.85-.98,2.96-1.57.06.71.12,1.33.15,1.93,2.68-2.07,5.38-4.16,8.32-6.44-1.12-.4-1.7-.6-2.52-.89,4.73-4.57,10.5-8.03,12.44-14.54.92,0,1.88.28,2.19-.05,1.86-1.99,3.57-4.12,5.33-6.21.06-.07.03-.23.02-.12-.39-.69-.7-1.22-.96-1.68,1.52-1.16,2.87-2.19,4.22-3.22-.43-.49-.73-.84-1.11-1.26.71-.48,1.37-.92,2.03-1.35-.81-2.28,2.94-2.78,2.05-5.16-.09-.25.48-.76.78-1.13,1.68-2.09,3.36-4.18,5.04-6.26-.24-.24-.48-.47-.68-.68,1.41-2.24,2.81-4.44,4.69-7.42v5.48c-1.51,2.11-3.07,4.27-4.6,6.46-.09.13.09.46.2.92,1.03-.47,1.98-.9,2.63-1.2.97.51,1.63.86,2.56,1.35.6-2.09,1.12-3.87,1.81-6.27.18-.18.85-.89,1.5-1.57-.32-5.88-9.45-22.98-11.67-21.91Zm-79.52,72.18h-.5v-1.99h.5v1.99Zm22.08-53.04c0,1.25.31,2.29-.07,2.95-.55.97-.69.26-.9-.2-.25-1.52.2-1.98.96-2.75Zm-3.02,43.91c-.16.03-.32.05-.48.08-.13-.54-.26-1.08-.39-1.62.29-.04.58-.07.86-.11v1.65Zm17.27,1.12c-.03-.21-.06-.43-.09-.64.65-.13,1.29-.25,1.94-.38-.63.91-1.24.97-1.85,1.02Zm2.57-1.17c1.19-1.94,2.08-3.74,5.02-3.76-2.1,1.62-3.03,3.5-5.02,3.76Zm10.31,4.88h-1v-.33h1v.33Zm3.49-21.61c-.73,1.08-1.84,1.9-2.29,2.34-2.15.92-3.97,1.27-5.22,2.31-5.48,4.56-10.79,9.32-15.25,13.2-2.56,1.31-4.07,2.08-6.03,3.08-.07,0-.77.05-1.34-.19-.59-.24-1.05-.78-1.46-1.1.27-1.87,2.15-3.17.37-5.11-.77-.84-.73-2.8.71-4-.43-.46-.85-.91-1.31-1.39-1.23.95-2.45,1.9-3.66,2.84-.13.19-.23.32-.31.43.12.32.23.63.28.96.02.15-.35.35-1.14,1.07,1.17-4.6,1.17-6.73,1.17-9.01.53-.18,1.09-.37,2.04-.7-.12-.8-.24-1.67-.4-2.54-.2-1.07-.4-2.13-.65-3.19-.21-.88-.48-1.75-.85-3.07.63-2.14,1.52-4.73,2.03-7.51.7-3.84.75-7.63.87-11.46,0-.25.53-.48.88-.72.69,1.24,1.02,1.88,1.03,2.51.1,4.47.57,9.03-.12,13.39-.54,3.37-.78,6.68-.82,10.05,0,.61.12,1.22.23,2.23,2.07-4,.89-8.21,2.7-11.78-1.39-1.39-1.11-2.58-.08-4.21.44-.7-.13-2.28-.01-3.58.23-2.47.7-5.08-.73-7.59-.51-.89.85-2.74.45-3.82-.5-1.33-.76-2.2.08-3.48.47-.71.18-1.88.38-2.81.13-.6.55-1.15.92-1.89h-1.49c-.31.65-.63,1.33-.98,2.07-.51-.13-.95-.24-1.81-.45,1.71-2.65,3.28-5.1,4.92-7.64,5.12,1.89,10.52,2.31,15.88,2.02.72.71,1.31,1.3,1.67,1.66,2.15-.72,4.17-1.4,5.99-2.01.95.96,1.53,1.55,2.27,2.3h5.02c1.59,1.58,3,2.99,4.49,4.46v4.21c-.54.4-1.33.99-1.91,1.42v2.39c-1.3,1.26-2.61,2.53-3.89,3.77-.11,2.51.08,5.01-.44,7.36-.38,1.72-1.68,3.25-2.76,5.21,1.71-.35,3.25-.67,4.79-.98.09.2.18.41.27.61-1.03.74-2.05,1.47-3.26,2.33.46.62.83,1.12,1.11,1.5-.77,1.51-1.4,3.11-2.34,4.5Zm2.65,12.02c-.04-.66-.08-1.2-.13-1.9.8-.06,1.39-.1,1.98-.14,0,0,.01.01.02.02,0,0,0,.01-.01.02-.21.95-.92,1.41-1.85,2.01Zm2.09-2.33c-.23-.87-.24-1.55-.24-2.4,1.13-.67,2.39-1.41,4-2.36,0,2.89-2.54,3.33-3.76,4.76Zm3.85-21.45c-.07-.06-.13-.13-.2-.19-.02.45-.26.72-.49.99-.11-.1-.21-.21-.32-.31.27-.23.54-.46.82-.69.07.06.13.13.2.19.02-.45.26-.72.49-.99.1.1.21.21.31.31-.27.23-.54.46-.82.69Zm-1.22-33.39c1.96-1.24,2.19.48,3.27.95-1.96,1.24-2.19-.48-3.27-.95Zm13.79,4.45h-.33v-.99h.33v.99Zm1.58,4.07v-1.62c.54.25,1.22.56,2.55,1.18-1.42.25-1.86.32-2.55.44Zm6.28,12.21c-.67-1.59-1.19-2.82-1.96-4.63,1.24-.91,2.24-1.65,3.17-2.33.34.72.81,1.67,1.32,2.74-.76,1.27-1.55,2.59-2.53,4.22Zm-8.82,23.01c.6,2.85,0,4.18-2.65,4.61.19-.88.16-1.61.49-2.13.49-.79,1.22-1.42,2.17-2.48Zm-73.9-33.88v2.94c-.68-.84-1.07-1.32-1.73-2.13.5-.24,1.18-.56,1.73-.81Zm2.36-4.6c-.72,1.39-1.18,2.27-1.93,3.72-.09-1.45-.15-2.32-.21-3.32.63-.12,1.07-.2,2.14-.4Zm78.83,27.02c-.67.66-1.33,1.33-2,1.99v-1.99c.83,0,1.42,0,2,0Zm-5,3.98c.67-.33,1.33-.66,2-.99v2.58c-1.05-.83-1.52-1.21-2-1.59Zm1.03,6.74c-.64.05-1.27.11-1.91.16-.03-.21-.06-.43-.09-.64.65-.13,1.3-.25,1.95-.38.01.29.03.57.04.86Zm-36.03,33.25c.64-.05,1.27-.11,1.91-.16.03.21.06.43.09.64-.65.13-1.3.25-1.95.38-.01-.29-.03-.57-.04-.86Zm-42.94-60.62h2v.5h-2v-.5Zm78.84,26.5c.23-.27.46-.54.7-.81.11.1.21.21.31.31-.27.23-.54.46-.82.69l-.2-.19Zm-79.84-28.41h1v.33h-1v-.33Zm84.84,17.47c.23-.27.46-.54.7-.81.1.1.21.21.31.31-.27.23-.54.46-.82.69l-.2-.19Zm-.89,1.08c.33-.33.67-.66,1-.99-.33.33-.67.66-1,.99Zm-86.03-53.58c-.27-.23-.54-.46-.82-.69.11-.1.21-.21.31-.31.23.27.46.54.69.81-.06.07-.13.13-.19.2Zm83.03,56.56c.33-.33.67-.66,1-.99-.33.33-.67.66-1,.99Zm-32.85,11.13h3.03c-2.99,2.49-5.71,4.77-8.44,7.04.08-1.87,1.36-2.74,2.34-3.81,1.11-1.21,2.26-2.38,3.07-3.24Zm-21.96,4.3c-.49.86-.98,1.71-1.5,2.62-.61-.61-1.06-1.06-1.77-1.76.66-.16,1.19-.18,1.6-.41.39-.22.66-.66.98-1.01.23.19.46.37.69.56Zm-2.15-9.8h-1v-.33h1v.33Zm29.88,1.24c.23-.27.46-.54.7-.81.11.1.21.21.31.31-.27.23-.54.46-.82.69-.07-.06-.13-.13-.2-.19Zm.21.18c-.23.27-.46.54-.7.81-.11-.1-.21-.21-.31-.31.27-.23.54-.46.82-.69.06.06.13.13.19.19Zm-13.43,10.85v.99h-.33v-.99h.33Z"/></svg>