<?xml version="1.0" encoding="UTF-8" standalone="no"?>
<svg
   xmlns:dc="http://purl.org/dc/elements/1.1/"
   xmlns:cc="http://creativecommons.org/ns#"
   xmlns:rdf="http://www.w3.org/1999/02/22-rdf-syntax-ns#"
   xmlns:svg="http://www.w3.org/2000/svg"
   xmlns="http://www.w3.org/2000/svg"
   xmlns:sodipodi="http://sodipodi.sourceforge.net/DTD/sodipodi-0.dtd"
   xmlns:inkscape="http://www.inkscape.org/namespaces/inkscape"
   version="1.1"
   width="595.27557"
   height="841.88977"
   id="svg9"
   viewBox="0 0 595.27557 841.88977"
   sodipodi:docname="badfinger.cdr">
  <metadata
     id="metadata15">
    <rdf:RDF>
      <cc:Work
         rdf:about="">
        <dc:format>image/svg+xml</dc:format>
        <dc:type
           rdf:resource="http://purl.org/dc/dcmitype/StillImage" />
      </cc:Work>
    </rdf:RDF>
  </metadata>
  <defs
     id="defs13" />
  <sodipodi:namedview
     pagecolor="#ffffff"
     bordercolor="#666666"
     borderopacity="1"
     objecttolerance="10"
     gridtolerance="10"
     guidetolerance="10"
     inkscape:pageopacity="0"
     inkscape:pageshadow="2"
     inkscape:window-width="640"
     inkscape:window-height="480"
     id="namedview11" />
  <g
     id="Layer1000">
    <path
       d="m 257.6262,345.1547 c 4.8512,9.9714 11.8514,12.4089 20.9999,7.3122 8.049,-7.5322 7.6113,-15.0324 -1.3127,-22.5003 -8.7188,-3.6805 -16.2814,-1.9927 -22.6871,5.063 -8.4628,9.6551 -12.5861,26.375 -12.3707,50.1574 h -17.4407 v 12.7499 h 17.9271 c 0.7059,10.9259 2.1671,23.082 4.3841,36.4677 4.3495,24.6793 5.7246,44.9294 4.125,60.7502 -4.8813,-9.1052 -11.9123,-10.9177 -21.0932,-5.4372 -5.3901,5.3493 -5.9213,11.7244 -1.5936,19.1254 7.2944,6.6923 15.3567,6.6297 24.1869,-0.1882 11.2263,-11.5722 14.1015,-43.3222 8.625,-95.2501 -0.8351,-5.4176 -1.5645,-10.5738 -2.187,-15.4678 h 16.4381 V 385.187 l -17.8781,-3e-4 c -1.6897,-17.4047 -1.7311,-30.7494 -0.123,-40.032 z"
       style="fill:#e30016;fill-rule:evenodd"
       id="path2" />
    <path
       d="m 69.0231,385.7638 h 21.6371 c 5.8927,0 10.0516,0.6571 12.4452,1.9899 2.3942,1.3139 4.4198,3.6417 6.0772,6.9829 1.6418,3.3228 2.4707,7.1147 2.4707,11.3196 0,3.8857 -0.7061,7.3961 -2.1178,10.531 -1.4119,3.1348 -3.238,5.4626 -5.4785,6.9641 3.2074,1.3893 5.7084,3.7732 7.5192,7.1521 1.8264,3.3602 2.7317,7.4713 2.7317,12.3146 0,5.8566 -1.1664,10.8312 -3.4682,14.8671 -2.302,4.0547 -5.0331,6.5515 -8.179,7.5087 -2.1946,0.6571 -7.274,0.995 -15.2382,0.995 H 69.0231 Z m 10.8799,13.4218 v 18.6406 h 7.1972 c 4.312,0 6.982,-0.0941 8.0101,-0.2818 1.857,-0.3566 3.2995,-1.3138 4.3586,-2.872 1.0434,-1.5579 1.565,-3.6794 1.565,-6.3635 0,-2.3842 -0.4145,-4.3178 -1.2736,-5.8006 -0.8595,-1.483 -1.8876,-2.4029 -3.0997,-2.7782 -1.2127,-0.3569 -4.6959,-0.5445 -10.4505,-0.5445 z m 0,32.0624 v 21.5501 h 10.1282 c 4.4348,0 7.2737,-0.2818 8.5323,-0.8447 1.2583,-0.5633 2.317,-1.6895 3.1765,-3.3602 0.8438,-1.6708 1.2736,-3.7732 1.2736,-6.3451 0,-2.6467 -0.4607,-4.8056 -1.366,-6.5137 -0.9205,-1.7082 -2.1331,-2.8908 -3.6369,-3.5292 -1.5191,-0.6381 -4.619,-0.9572 -9.284,-0.9572 z m 92.3499,35.1408 h -11.8621 l -4.7265,-18.3212 h -21.5759 l -4.4504,18.3212 h -11.6011 l 21.0388,-80.625 h 11.5551 z m -20.0874,-31.8935 -7.4274,-29.9222 -7.3199,29.9222 z m 25.8111,-48.7315 h 19.9035 c 5.0332,0 8.839,0.6945 11.4018,2.0648 2.5628,1.3705 4.9258,3.698 7.0741,6.9644 2.164,3.2477 3.852,7.49 5.095,12.6899 1.2277,5.2185 1.8414,11.6759 1.8414,19.4099 0,6.9832 -0.6443,13.0278 -1.9335,18.1899 -1.2892,5.1435 -2.931,9.2169 -4.9105,12.2392 -1.9797,3.0036 -4.3582,5.2563 -7.1665,6.7768 -2.8083,1.5205 -6.3992,2.2901 -10.8187,2.2901 h -20.4866 z m 10.8649,13.6471 v 53.3872 h 8.1947 c 3.4988,0 6.046,-0.3943 7.6113,-1.2016 1.5806,-0.8071 2.8695,-2.0274 3.8673,-3.6604 1.0126,-1.633 1.8411,-4.2049 2.501,-7.7341 0.6599,-3.5104 0.9822,-8.147 0.9822,-13.9098 0,-5.9695 -0.3376,-10.6813 -1.0128,-14.1353 -0.6752,-3.4353 -1.7189,-6.1571 -3.1459,-8.128 -1.4269,-1.99 -3.1459,-3.2851 -5.1868,-3.9048 -1.5344,-0.4878 -4.481,-0.7132 -8.8543,-0.7132 z"
       style="fill:#131510;fill-rule:evenodd"
       id="path4" />
    <path
       d="m 284.8241,465.3859 v -80.2565 h 11.5047 v 80.2565 z m 22.6689,0 v -80.2565 h 11.2292 l 23.3824,53.5915 v -53.5915 h 10.7425 v 80.2565 h -11.6022 l -23.0097,-52.3395 v 52.3395 z m 84.1034,-29.5053 V 422.352 h 24.8595 v 31.9717 c -2.499,3.401 -6.0525,6.3159 -10.6446,8.7639 -4.5922,2.4477 -9.2007,3.6623 -13.8413,3.6623 -5.631,0 -10.6124,-1.5882 -14.9125,-4.7834 -4.3166,-3.1955 -7.7403,-7.979 -10.2555,-14.351 -2.5152,-6.372 -3.7808,-13.8464 -3.7808,-22.4606 0,-8.8384 1.2821,-16.3877 3.8296,-22.6661 2.5475,-6.2785 5.8578,-10.9687 9.9306,-14.0706 4.0731,-3.102 8.9572,-4.6528 14.6202,-4.6528 6.8157,0 12.284,1.9993 16.3894,5.9981 4.1054,3.9988 6.734,9.8476 7.9024,17.6023 l -11.4074,3.0084 c -0.8439,-4.1295 -2.418,-7.2876 -4.7058,-9.4737 -2.272,-2.1863 -4.9978,-3.2887 -8.1786,-3.2887 -4.9002,0 -8.892,2.2048 -11.9265,6.5959 -3.0506,4.3914 -4.5595,11.0996 -4.5595,20.1249 0,9.6607 1.6387,17.0231 4.9326,22.0495 2.8236,4.3541 6.6532,6.5214 11.4562,6.5214 2.2555,0 4.5921,-0.6165 7.0262,-1.8312 2.4177,-1.2333 4.576,-2.8961 6.4908,-5.0076 v -10.1841 z m 35.553,29.5053 v -80.2565 h 42.417 v 13.5848 h -30.9121 v 17.7891 h 28.7212 v 13.5099 h -28.7212 v 21.8441 h 31.9502 v 13.5286 z m 53.24,0 v -80.2565 h 24.2915 c 6.2149,0 10.6611,0.7288 13.3222,2.1677 2.6612,1.4386 4.8518,3.9427 6.5557,7.4931 1.7198,3.5688 2.5637,7.8293 2.5637,12.7811 0,6.2785 -1.298,11.3426 -3.9104,15.173 -2.6289,3.8308 -6.3448,6.2413 -11.1481,7.2128 2.4664,2.0557 4.5111,4.2792 6.1174,6.7084 1.6229,2.4291 3.8297,6.7831 6.6209,13.0615 l 6.9288,15.6589 h -13.728 l -8.3732,-17.4713 c -3.0019,-6.2972 -5.0465,-10.2589 -6.1333,-11.8472 -1.0712,-1.5882 -2.2232,-2.6719 -3.4243,-3.2887 -1.2007,-0.5978 -3.1314,-0.8969 -5.7926,-0.8969 h -2.3853 v 33.5041 z m 11.505,-46.3227 h 8.5677 c 5.2248,0 8.5513,-0.2616 9.9793,-0.7849 1.4279,-0.5232 2.5801,-1.5882 3.4725,-3.1952 0.8762,-1.6069 1.3306,-3.7559 1.3306,-6.4094 0,-2.56 -0.4544,-4.6154 -1.3306,-6.1662 -0.8924,-1.5511 -2.0931,-2.6161 -3.6184,-3.1955 -1.0712,-0.411 -4.2027,-0.5978 -9.3629,-0.5978 h -9.0382 z"
       style="fill:#131510;fill-rule:evenodd"
       id="path6" />
  </g>
</svg>
