<?xml version="1.0" encoding="UTF-8" standalone="no"?>
<svg
   xmlns:dc="http://purl.org/dc/elements/1.1/"
   xmlns:cc="http://creativecommons.org/ns#"
   xmlns:rdf="http://www.w3.org/1999/02/22-rdf-syntax-ns#"
   xmlns:svg="http://www.w3.org/2000/svg"
   xmlns="http://www.w3.org/2000/svg"
   xmlns:sodipodi="http://sodipodi.sourceforge.net/DTD/sodipodi-0.dtd"
   xmlns:inkscape="http://www.inkscape.org/namespaces/inkscape"
   width="190.39464mm"
   height="22.373051mm"
   viewBox="0 0 190.39464 22.373051"
   version="1.1"
   id="svg8"
   inkscape:version="1.0.2 (e86c870879, 2021-01-15, custom)"
   sodipodi:docname="batushka_logo.svg">
  <defs
     id="defs2" />
  <sodipodi:namedview
     id="base"
     pagecolor="#ffffff"
     bordercolor="#666666"
     borderopacity="1.0"
     inkscape:pageopacity="0.0"
     inkscape:pageshadow="2"
     inkscape:zoom="0.49497475"
     inkscape:cx="389.73719"
     inkscape:cy="193.05113"
     inkscape:document-units="mm"
     inkscape:current-layer="layer1"
     inkscape:document-rotation="0"
     showgrid="false"
     inkscape:window-width="1680"
     inkscape:window-height="988"
     inkscape:window-x="-8"
     inkscape:window-y="-8"
     inkscape:window-maximized="1"
     inkscape:snap-global="true"
     fit-margin-top="0"
     fit-margin-left="0"
     fit-margin-right="0"
     fit-margin-bottom="0" />
  <metadata
     id="metadata5">
    <rdf:RDF>
      <cc:Work
         rdf:about="">
        <dc:format>image/svg+xml</dc:format>
        <dc:type
           rdf:resource="http://purl.org/dc/dcmitype/StillImage" />
        <dc:title></dc:title>
      </cc:Work>
    </rdf:RDF>
  </metadata>
  <g
     inkscape:label="Ebene 1"
     inkscape:groupmode="layer"
     id="layer1"
     transform="translate(-9.802682,-137.31348)">
    <path
       style="fill:#000000;stroke-width:0.352778"
       d="m 14.12853,158.71633 c -0.614028,-0.52836 -1.207517,-1.4369 -1.318865,-2.01899 -0.321512,-1.68073 -1.288691,-8.91284 -1.592657,-11.90913 -0.174274,-1.71787 -0.494067,-2.97605 -0.858887,-3.37917 -0.7057542,-0.77985 -0.7369306,-1.47364 -0.105051,-2.33779 0.363922,-0.49769 1.341139,-0.75912 4.145139,-1.10891 2.017926,-0.25173 4.496671,-0.46528 5.508322,-0.47454 1.736391,-0.0159 1.889452,0.0569 2.734028,1.29977 1.166969,1.71735 1.144471,4.02639 -0.05236,5.37406 -0.08025,0.0904 -0.896073,-0.6517 -1.812951,-1.64901 -2.281913,-2.4821 -4.024726,-2.83666 -5.152793,-1.04831 -0.285978,0.45337 -0.186487,0.95111 0.418376,2.09309 0.436467,0.82405 0.793135,1.77609 0.792597,2.11564 -7.41e-4,0.4722 0.293462,0.61736 1.251261,0.61736 1.822224,0 2.888921,0.68434 5.73208,3.67745 2.292774,2.4137 2.540678,2.8139 2.540678,4.10157 0,1.09363 0.220322,1.63108 0.943341,2.30115 1.50222,1.39221 0.774995,1.64925 -5.209578,1.84134 -4.609626,0.14797 -5.44942,0.26359 -6.013841,0.82801 -0.360818,0.36082 -0.69572,0.65176 -0.744227,0.64654 -0.04851,-0.005 -0.590581,-0.44178 -1.204608,-0.97013 z m 7.378219,-2.76927 c 0.449584,-0.13051 0.617361,-0.54713 0.617361,-1.53302 0,-1.22826 -0.144884,-1.43873 -1.562125,-2.26929 -2.461944,-1.44279 -2.832234,-1.29426 -3.315785,1.33007 -0.61039,3.31271 -0.69546,3.16048 1.614716,2.88944 1.115659,-0.1309 2.306284,-0.31864 2.645833,-0.4172 z m 18.425689,2.32654 c -0.12374,-0.20022 -0.898861,-0.68079 -1.722493,-1.06794 -0.823632,-0.38715 -2.073602,-1.29491 -2.777711,-2.01723 -1.087006,-1.11512 -1.343025,-1.69481 -1.696531,-3.84137 l -0.416335,-2.52806 1.830112,-2.77409 c 1.192368,-1.8074 2.355647,-3.10657 3.338225,-3.72819 l 1.508113,-0.95411 -0.360616,-1.76042 c -0.198339,-0.96823 -0.259328,-1.8617 -0.13553,-1.9855 0.1238,-0.1238 0.976347,0.0309 1.89455,0.34375 0.918207,0.31287 2.006918,0.56885 2.419361,0.56885 0.9317,0 2.567023,1.68791 4.101454,4.23333 0.643301,1.06715 1.67186,2.65465 2.28569,3.52778 0.613826,0.87312 1.93657,3.28206 2.939429,5.3532 1.002855,2.07113 2.295409,4.2272 2.872341,4.79125 l 1.048964,1.02556 -0.976316,0.4711 c -0.956875,0.46171 -4.167184,0.53599 -5.562424,0.12869 -0.388055,-0.11328 -1.183933,-0.65944 -1.768619,-1.21369 l -1.063061,-1.00772 -2.111939,0.54447 c -1.161564,0.29946 -2.775204,0.9292 -3.585867,1.39942 -1.67453,0.9713 -1.752437,0.98986 -2.060797,0.49092 z m 3.897683,-3.84681 c 1.352596,-0.56971 2.504292,-1.25136 2.559322,-1.51478 0.08275,-0.39611 -1.137917,-2.50919 -4.283657,-7.41536 -0.485105,-0.75658 -1.924565,-0.80034 -2.93964,-0.0893 -0.605775,0.4243 -0.801714,1.03886 -0.997561,3.12883 -0.17223,1.83796 -0.112557,2.84718 0.203442,3.44074 0.568888,1.06857 2.498825,3.48575 2.783107,3.48575 0.118643,0 1.322388,-0.46612 2.674987,-1.03583 z m 113.272159,3.19744 c -0.49215,-0.54382 -0.61959,-1.58854 -0.72081,-5.90903 -0.0676,-2.88663 -0.20242,-5.56591 -0.29954,-5.95397 -0.0971,-0.38805 -0.0667,-1.34055 0.0675,-2.11666 0.13765,-0.79566 0.0889,-1.67177 -0.11177,-2.00874 -0.26278,-0.44127 -0.19847,-0.77158 0.24581,-1.2625 0.33093,-0.36568 0.6017,-1.07824 0.6017,-1.58346 0,-1.60375 2.80456,-1.73767 4.72671,-0.22571 1.01632,0.79944 1.11746,1.50969 0.50572,3.55149 -0.65081,2.17223 0.0544,2.39076 1.60573,0.49758 0.7172,-0.87524 1.25794,-1.65926 1.20166,-1.74227 -0.20675,-0.30496 1.25935,-1.63619 1.80444,-1.63844 0.30947,-0.001 1.03893,-0.31773 1.62102,-0.70323 1.33732,-0.88568 1.62028,-0.87973 2.6238,0.0552 0.73778,0.68734 0.79513,0.96579 0.59442,2.88607 -0.23786,2.27572 -0.83439,3.49931 -2.01372,4.13046 -1.02083,0.54634 -1.14456,0.27797 -0.64327,-1.39521 0.23857,-0.79625 0.34639,-1.53509 0.23961,-1.64187 -0.27087,-0.27087 -3.56095,1.29114 -3.90518,1.85404 -0.15516,0.25372 -0.48468,0.46132 -0.73226,0.46132 -0.24757,0 -0.835,0.40967 -1.30538,0.91037 -0.83784,0.89185 -0.84131,0.92057 -0.17046,1.41111 0.37663,0.27541 0.81963,0.50074 0.98443,0.50074 0.32631,0 1.54423,0.81222 4.42446,2.95066 2.43847,1.81045 3.96049,4.06463 3.96049,5.86565 0,0.75493 -0.11906,1.44061 -0.26458,1.52373 -0.14552,0.0831 -1.2615,-0.0179 -2.47995,-0.22446 -1.67362,-0.28375 -2.19579,-0.50972 -2.1353,-0.92406 0.044,-0.30166 -0.1164,-1.34221 -0.35652,-2.31235 -0.34685,-1.40135 -0.85948,-2.18082 -2.49412,-3.79236 -1.13164,-1.11566 -2.21092,-2.02848 -2.39838,-2.02848 -0.19708,0 -0.36803,1.81141 -0.40529,4.29458 -0.0377,2.5095 -0.22587,4.48907 -0.45279,4.7625 -0.60988,0.73486 -3.59954,0.60145 -4.31823,-0.19269 z m 39.99961,0.28695 c -0.48507,-0.14386 -1.58476,-0.27739 -2.44376,-0.29673 -1.29996,-0.0293 -1.71816,-0.22245 -2.49441,-1.15227 l -0.9326,-1.1171 -2.39919,0.60266 c -1.31956,0.33146 -3.01966,0.91919 -3.778,1.30607 -1.2572,0.64137 -1.44702,0.65563 -2.15225,0.16167 -0.4254,-0.29796 -1.01594,-0.54272 -1.31232,-0.54392 -0.29637,-10e-4 -1.3435,-0.75525 -2.32694,-1.67569 -1.64422,-1.53889 -1.82262,-1.86681 -2.21752,-4.07598 l -0.42945,-2.40245 1.31019,-2.15681 c 1.41908,-2.33605 3.6417,-4.69292 4.76049,-5.04801 0.58345,-0.18518 0.65735,-0.4081 0.44363,-1.33818 -0.37585,-1.63566 -0.36254,-2.52928 0.0374,-2.51078 0.19403,0.009 1.42602,0.14672 2.73775,0.30608 l 2.38498,0.28976 1.43779,1.98698 c 3.02837,4.18508 4.59821,6.68745 6.22205,9.91815 0.92473,1.83978 1.80228,3.50665 1.95012,3.70416 0.14783,0.19751 0.7452,0.97883 1.32747,1.73627 0.58227,0.75743 1.01694,1.41193 0.96593,1.45444 -0.73729,0.61433 -2.37257,1.06486 -3.09136,0.85168 z m -9.96969,-3.73584 c 1.31173,-0.51398 2.51412,-1.04795 2.67199,-1.18661 0.26988,-0.23704 -1.56471,-3.60289 -3.79521,-6.96291 -1.68674,-2.54089 -3.76443,-1.87289 -4.37725,1.40734 -0.45719,2.44724 -0.007,4.51329 1.35301,6.20528 0.65035,0.80927 1.31296,1.4714 1.47248,1.4714 0.15951,0 1.36325,-0.42052 2.67498,-0.9345 z m -84.48656,2.63589 c -0.63059,-0.17075 -1.14653,-0.45561 -1.14653,-0.63303 0,-0.17742 -0.89505,-1.28935 -1.989,-2.47094 -1.09395,-1.1816 -2.02619,-2.50033 -2.071645,-2.93053 -0.04545,-0.43019 -0.102902,-0.9991 -0.127667,-1.26423 -0.03579,-0.38317 -0.533562,-0.43 -2.426271,-0.22827 -1.309688,0.1396 -2.629426,0.38594 -2.932751,0.54743 -0.580376,0.309 -1.388777,3.19613 -1.388777,4.95988 0,1.12133 -1.233396,2.00847 -2.250003,1.61836 -1.376732,-0.5283 -1.705027,-1.8291 -1.684471,-6.67429 0.01425,-3.35618 -0.140586,-5.19542 -0.547359,-6.50237 -0.475559,-1.52795 -0.494394,-1.99824 -0.116558,-2.91042 0.412206,-0.99515 0.5908,-1.08798 2.093249,-1.08798 1.380102,0 2.312141,0.33946 3.523068,1.28313 0.07479,0.0583 -0.1235,0.50198 -0.440647,0.98601 -0.535235,0.81687 -0.53254,1.02321 0.03754,2.87457 l 0.614169,1.99452 1.943142,-0.20416 c 2.942766,-0.30918 4.105829,-0.82875 4.616849,-2.06246 0.632244,-1.52638 3.710632,-4.49567 5.465742,-5.27204 1.09234,-0.48319 1.90935,-0.59679 3.1093,-0.43231 1.34121,0.18383 1.62764,0.12519 1.62764,-0.33321 0,-1.15838 0.8251,-0.9809 2.35908,0.50743 2.55055,2.47465 4.75798,5.54362 5.28807,7.35193 0.45365,1.54756 0.43262,1.84125 -0.26886,3.75454 -0.93843,2.55958 -4.45062,6.13261 -6.02817,6.13261 -0.52564,0 -1.06438,0.17585 -1.19722,0.39078 -0.15002,0.24274 -0.76204,0.30754 -1.61554,0.17106 -0.87092,-0.13926 -1.7266,-0.0432 -2.33694,0.26237 -0.67733,0.3391 -1.30296,0.39 -2.10944,0.17162 z m 7.67613,-3.13886 c 3.17294,-1.88501 3.66706,-2.65782 3.42266,-5.35313 -0.20964,-2.31188 -0.73053,-3.07956 -3.20835,-4.72835 -0.79874,-0.5315 -1.81586,-1.33217 -2.26028,-1.77926 -0.96072,-0.96652 -3.7457,-1.13563 -4.85718,-0.29495 -0.37663,0.28487 -0.95029,0.52299 -1.27479,0.52917 -0.76798,0.0146 -1.45107,2.08733 -1.45107,4.40302 0,3.27698 1.72824,5.75679 5.08435,7.29541 0.70367,0.3226 1.38773,0.76182 1.52013,0.97605 0.3386,0.54786 0.33804,0.54805 3.02453,-1.04796 z m 12.78498,2.92981 c -0.82462,-0.31889 -1.49931,-0.76936 -1.49931,-1.00104 0,-0.23168 0.37492,-1.23046 0.83315,-2.21951 0.89616,-1.93426 0.85793,-2.74686 -0.32675,-6.94585 -0.27852,-0.98719 -0.5064,-2.54486 -0.5064,-3.46149 0,-1.69155 0.89515,-5.00806 1.44311,-5.34672 0.38597,-0.23855 2.37458,0.7659 3.43839,1.73673 1.56199,1.42547 1.87641,2.83183 1.82451,8.16082 -0.0736,7.55876 0.10975,7.93717 3.34816,6.90966 l 1.76389,-0.55966 0.11291,-3.88055 c 0.17609,-6.05191 0.16563,-6.25754 -0.40086,-7.88237 -0.4004,-1.14843 -0.44405,-1.7911 -0.17424,-2.56508 0.47221,-1.35459 1.24016,-1.72339 3.58861,-1.72339 h 1.93809 l 0.24427,1.95508 c 0.28699,2.29697 0.0226,12.418 -0.34673,13.27551 -0.40472,0.93955 0.82134,1.36913 2.9481,1.03294 1.00853,-0.15943 2.00623,-0.46241 2.21712,-0.6733 0.24106,-0.24107 0.40796,-2.65213 0.44952,-6.494 0.0719,-6.64634 0.44274,-8.32758 1.78543,-8.09432 0.37981,0.066 1.08743,0.11893 1.5725,0.11765 1.89161,-0.005 2.11744,0.64616 2.10827,6.07887 -0.007,4.1429 -0.1449,5.44014 -0.82667,7.7762 -0.72351,2.47906 -0.93704,2.84191 -1.84369,3.13284 -0.56398,0.18098 -1.26354,0.52843 -1.55458,0.77212 -0.39636,0.33188 -3.05247,0.44754 -10.58333,0.46088 -8.51364,0.0151 -10.2839,-0.071 -11.55347,-0.56202 z m -54.914293,-0.0313 c -0.102951,-0.16658 -0.37357,-2.52751 -0.60138,-5.24651 -0.301911,-3.6034 -0.31199,-5.74431 -0.03718,-7.89697 0.207363,-1.62433 0.337009,-2.99334 0.2881,-3.04225 -0.04891,-0.0489 -0.830446,-0.19056 -1.736743,-0.31478 l -1.647815,-0.22586 v 1.75716 c 0,2.22599 -0.685937,2.92485 -2.870767,2.92485 -2.243371,0 -2.68011,-0.47641 -2.961619,-3.23065 -0.302162,-2.9563 -0.117578,-3.07559 4.421275,-2.85734 1.843264,0.0886 6.883577,0.12573 11.200695,0.0824 7.039472,-0.0706 7.849305,-0.0196 7.849305,0.49397 0,0.31499 -0.164673,0.5727 -0.365936,0.5727 -0.408347,0 -3.514619,3.09217 -3.514619,3.49866 0,0.51643 -1.721425,1.86089 -2.090551,1.63276 -0.208393,-0.12879 -0.378894,-0.99395 -0.378894,-1.92256 0,-2.44987 -1.39199,-3.54533 -3.00567,-2.36538 -0.600241,0.43891 -0.662781,0.91371 -0.592465,4.49792 0.04324,2.20397 0.253851,5.35659 0.468026,7.00582 0.28164,2.16871 0.282914,3.26711 0.0046,3.96875 -0.354238,0.89307 -0.537993,0.97014 -2.312998,0.97014 -1.060506,0 -2.01242,-0.13629 -2.115372,-0.30286 z"
       id="path54"
       inkscape:export-xdpi="96"
       inkscape:export-ydpi="96" />
  </g>
</svg>
