<?xml version="1.0" encoding="utf-8"?>
<!-- Generator: Adobe Illustrator 13.0.0, SVG Export Plug-In . SVG Version: 6.00 Build 14948)  -->
<!DOCTYPE svg PUBLIC "-//W3C//DTD SVG 1.1//EN" "http://www.w3.org/Graphics/SVG/1.1/DTD/svg11.dtd">
<svg version="1.1" xmlns="http://www.w3.org/2000/svg" xmlns:xlink="http://www.w3.org/1999/xlink" x="0px" y="0px" width="350px"
	 height="400px" viewBox="0 0 350 400" enable-background="new 0 0 350 400" xml:space="preserve">
<g id="Layer_1">
	<rect width="350" height="400"/>
</g>
<g id="Layer_2">
	<g>
		<path fill="#FFFFFF" d="M191.031,204.592c0,0-0.59,12.219,2.169,17.158c2.166,3.883,9.123,7.902,16.613,12.732
			c5.531,3.568,10.746,8.261,14.811,11.649c14.522,12.095,29.074,34.492,29.074,57.792c0,34.133-26.187,75.416-75.308,75.416
			c-50.934,0-76.396-40.967-76.396-70.495l38.197-0.136c2.167,21.354,19.234,32.417,38.559,32.417
			c22.214,0,37.021-18.059,37.021-37.747c0-8.126-3.178-18.847-13.545-27.449c-10.37-8.604-18.123-14.05-22.673-17.964
			c-6.404-5.514-12.269-10.157-15.612-17.071c-5.52-11.415-5.53-32.55-5.417-36.303H191.031z"/>
	</g>
	<path fill="#FFFFFF" d="M191.212,172.086c0-8.681-7.032-15.712-15.712-15.712c-8.677,0-15.712,7.031-15.712,15.712
		c0,8.678,7.035,15.712,15.712,15.712C184.18,187.798,191.212,180.764,191.212,172.086z"/>
	<rect x="21.628" y="156.374" fill="#FFFFFF" width="116.307" height="31.424"/>
	<rect x="213.064" y="156.374" fill="#FFFFFF" width="116.307" height="31.424"/>
	<rect x="160.147" y="19.661" fill="#FFFFFF" width="31.424" height="116.307"/>
</g>
</svg>
