<?xml version="1.0" encoding="utf-8"?>
<!-- Generator: Adobe Illustrator 19.0.0, SVG Export Plug-In . SVG Version: 6.00 Build 0)  -->
<svg version="1.1" id="Layer_1" xmlns="http://www.w3.org/2000/svg" xmlns:xlink="http://www.w3.org/1999/xlink" x="0px" y="0px"
	 width="200px" height="46px" viewBox="-319 258 200 46" style="enable-background:new -319 258 200 46;" xml:space="preserve">
<g>
	<path d="M-280.8,275.7c0.1-0.2,0.2-0.4,0.2-0.7c0-0.5-0.3-1-1-1.5c-0.7-0.5-1.5-1-2.6-1.4c-1.1-0.4-2.3-0.8-3.7-1
		c-1.4-0.3-2.9-0.4-4.4-0.4c-2,0-3.9,0.2-5.6,0.7c-1.7,0.5-3.1,1.2-4.3,2.1c-1.2,0.9-2.1,2-2.7,3.2c-0.7,1.3-1,2.7-1,4.2
		c0,3.1,1.2,5.5,3.5,7.3c2.3,1.8,5.6,2.7,9.7,2.7c2,0,3.8-0.2,5.5-0.5c1.7-0.3,3.5-1.1,5.6-2.2c0.4-0.2,0.7-0.4,0.9-0.6
		c0.2-0.2,0.3-0.4,0.3-0.8c0-0.3-0.1-0.7-0.2-1.1l0.9-0.5l7.3,11.9l-0.9,0.4c-0.6-0.6-1.1-0.9-1.4-0.9s-0.9,0.2-1.7,0.7
		c-0.9,0.4-2,0.9-3.4,1.5c-1.4,0.6-3.2,1.1-5.3,1.5c-2.1,0.4-4.5,0.7-7.3,0.7c-4,0-7.5-0.5-10.6-1.5c-3.1-1-5.6-2.4-7.7-4.2
		c-2.1-1.8-3.7-3.9-4.7-6.3c-1.1-2.4-1.6-5.1-1.6-7.9c0-2.8,0.5-5.4,1.6-7.8c1.1-2.4,2.6-4.5,4.7-6.3c2-1.8,4.5-3.2,7.4-4.2
		c2.9-1,6.3-1.5,10-1.5c2.3,0,4.4,0.2,6.3,0.5c1.9,0.3,3.5,0.7,4.9,1.1c1.4,0.4,2.6,0.8,3.5,1.1c0.9,0.3,1.7,0.5,2.2,0.5
		c0.6,0,1.2-0.4,1.8-1.2l0.9,0.4l-6.1,12.3L-280.8,275.7z"/>
	<path d="M-233.8,299.3c0.9-0.2,1.4-0.6,1.4-1.3c0-0.3-0.1-0.9-0.4-1.7l-1.5-4.2h-17.8l-1.5,4.2c-0.2,0.4-0.3,0.9-0.3,1.2
		c0,0.9,0.5,1.5,1.5,1.8v1h-13.1v-1c1.1-0.5,1.8-1.3,2.2-2.2c0.4-0.9,0.8-1.9,1.2-3.1l10.1-27.6c0.4-1.2,0.7-1.9,0.7-2.3
		c0-0.7-0.4-1.1-1.1-1.2v-1h19.1v1c-0.7,0-1.1,0.4-1.1,1.2c0,0.3,0.2,1.1,0.7,2.3l12.2,30.7c0.2,0.5,0.4,0.9,0.6,1.2
		c0.2,0.3,0.6,0.6,1.3,0.9v1h-14C-233.8,300.3-233.8,299.3-233.8,299.3z M-237,285.8l-6.6-16.9l-6.2,16.9H-237z"/>
	<path d="M-186.7,265.9c1.2-1,1.8-1.7,1.8-2c0-0.6-0.4-0.9-1.2-0.9v-1h18.6v1c-1,0.2-1.8,0.5-2.4,0.9c-0.6,0.4-1.1,0.8-1.6,1.2
		l-12.3,10.9l12.1,19c0.7,1.1,1.4,2.1,2,2.8c0.6,0.8,1.4,1.3,2.4,1.5v1h-16.3v-1c0.8-0.2,1.2-0.7,1.2-1.2c0-0.3-0.1-0.7-0.4-1
		c-0.2-0.3-0.5-0.7-0.7-1.1l-8.3-13.1l-7.5,6.7v7.5c0,0.7,0.1,1.2,0.4,1.4c0.2,0.3,0.8,0.5,1.5,0.7v1h-14.5v-1
		c0.8-0.2,1.3-0.4,1.5-0.7c0.2-0.3,0.3-0.7,0.3-1.4v-32c0-0.7-0.1-1.2-0.3-1.4c-0.2-0.3-0.7-0.5-1.5-0.7v-1h14.5v1
		c-0.8,0.2-1.3,0.4-1.5,0.7c-0.2,0.3-0.4,0.7-0.4,1.4V277L-186.7,265.9z"/>
	<path d="M-124.3,291.3c0.7,0,1.2-0.1,1.4-0.4c0.3-0.2,0.5-0.8,0.7-1.5h1v12.8h-1c-0.2-0.8-0.4-1.3-0.7-1.5
		c-0.3-0.2-0.7-0.3-1.4-0.3h-34.6v-1c0.8-0.2,1.3-0.4,1.5-0.7c0.2-0.3,0.3-0.7,0.3-1.4v-32c0-0.7-0.1-1.2-0.3-1.4
		c-0.2-0.3-0.7-0.5-1.5-0.7v-1h34.7c0.7,0,1.2-0.1,1.4-0.4c0.3-0.2,0.5-0.8,0.7-1.5h1v12.8h-1c-0.2-0.8-0.4-1.3-0.7-1.5
		c-0.3-0.2-0.7-0.4-1.4-0.4h-22v5.5h13.2c0.7,0,1.2-0.1,1.4-0.3c0.3-0.2,0.5-0.7,0.7-1.5h1.1v12h-1.1c-0.2-0.8-0.4-1.3-0.7-1.5
		c-0.3-0.2-0.7-0.4-1.4-0.4h-13.2v6.6C-146.3,291.3-124.3,291.3-124.3,291.3z"/>
</g>
</svg>
