<?xml version="1.0" encoding="UTF-8" ?>
<!DOCTYPE svg PUBLIC "-//W3C//DTD SVG 1.1//EN" "http://www.w3.org/Graphics/SVG/1.1/DTD/svg11.dtd">
<svg width="1163pt" height="367pt" viewBox="0 0 1163 367" version="1.1" xmlns="http://www.w3.org/2000/svg">
<g id="#000000ff">
<path fill="#000000" opacity="1.00" d=" M 801.76 22.60 C 804.53 15.45 805.99 7.69 809.64 0.94 C 811.90 8.15 814.32 15.31 816.62 22.50 C 824.78 22.50 832.94 22.50 841.10 22.51 C 834.85 27.74 827.94 32.11 821.40 36.96 C 823.85 44.72 826.60 52.39 828.90 60.20 C 821.89 56.02 815.76 50.54 808.97 46.03 C 802.44 50.67 795.94 55.37 789.35 59.93 C 791.54 52.16 794.58 44.67 796.84 36.92 C 790.50 32.14 783.66 27.90 777.82 22.54 C 785.80 22.52 793.78 22.41 801.76 22.60 M 806.19 22.50 C 808.04 22.51 809.91 22.52 811.79 22.53 C 811.05 19.71 810.21 16.92 809.06 14.24 C 807.80 16.88 806.93 19.68 806.19 22.50 M 791.19 27.31 C 793.45 28.96 795.73 30.59 797.96 32.30 C 799.27 30.93 799.57 29.02 800.11 27.28 C 797.13 27.28 794.15 27.30 791.19 27.31 M 804.49 27.30 C 803.64 29.88 802.78 32.46 801.88 35.02 C 804.27 36.96 806.80 38.73 809.31 40.53 C 811.51 38.89 813.71 37.26 815.97 35.69 C 815.27 32.86 814.35 30.10 813.43 27.34 C 810.45 27.28 807.46 27.27 804.49 27.30 M 818.26 27.33 C 818.78 29.08 819.33 30.82 819.96 32.55 C 822.45 30.94 824.82 29.14 827.11 27.26 C 824.16 27.27 821.20 27.30 818.26 27.33 M 812.99 43.14 C 815.30 44.97 817.67 46.71 820.08 48.41 C 819.26 45.57 818.42 42.74 817.56 39.92 C 815.97 40.89 814.44 41.98 812.99 43.14 M 797.35 49.08 C 800.13 47.50 802.57 45.41 805.23 43.64 C 803.92 42.05 802.19 40.90 800.53 39.75 C 799.33 42.81 798.34 45.95 797.35 49.08 Z" />
<path fill="#000000" opacity="1.00" d=" M 626.37 27.89 C 626.94 27.09 627.52 25.84 628.80 26.14 C 633.84 25.95 638.90 26.07 643.95 26.14 C 642.31 28.57 640.55 30.93 639.10 33.48 C 641.40 33.48 643.69 33.48 646.01 33.53 C 637.79 41.83 629.36 49.94 620.90 58.00 C 623.04 51.30 626.65 45.18 629.01 38.56 C 625.70 38.59 622.40 38.60 619.10 38.55 C 621.44 34.94 624.05 31.52 626.37 27.89 Z" />
<path fill="#000000" opacity="1.00" d=" M 603.49 36.59 C 607.73 32.79 612.45 29.24 618.10 27.92 C 618.21 28.50 618.43 29.66 618.55 30.24 C 616.18 34.77 611.90 37.87 609.12 42.12 C 587.56 73.90 563.40 103.78 540.89 134.87 C 537.76 139.04 534.79 145.03 538.07 149.96 C 548.25 165.48 559.08 180.58 568.39 196.65 C 569.31 197.92 569.39 199.48 569.59 200.98 C 565.33 206.27 561.40 211.82 557.23 217.18 C 555.32 219.80 552.68 222.44 553.18 225.98 C 552.63 267.98 553.19 309.99 553.00 352.00 C 542.66 352.00 532.33 352.00 522.00 352.00 C 521.99 308.34 522.01 264.68 521.99 221.03 C 522.01 219.03 522.07 216.91 523.18 215.17 C 525.95 210.32 529.09 205.67 531.67 200.71 C 532.36 199.20 533.07 197.36 532.22 195.76 C 528.05 186.46 521.87 178.27 515.41 170.46 C 504.20 184.68 494.02 199.75 483.01 214.13 C 481.49 215.36 480.50 213.24 479.77 212.29 C 470.53 198.28 461.17 184.36 451.88 170.39 C 446.12 177.85 440.52 185.46 434.99 193.09 C 436.73 200.22 442.19 206.10 444.74 213.05 C 446.80 217.43 445.88 222.35 445.91 227.00 C 445.62 268.66 446.28 310.33 446.01 351.99 C 435.67 352.01 425.34 352.00 415.00 352.00 C 414.88 311.99 415.41 271.97 414.31 231.98 C 414.31 230.52 413.56 229.23 412.99 227.94 C 407.82 217.51 400.87 208.11 394.30 198.54 C 405.99 179.00 416.84 158.98 428.19 139.25 C 429.59 136.67 431.10 133.33 429.32 130.55 C 422.19 118.89 414.22 107.78 406.28 96.66 C 392.18 75.26 378.02 53.79 365.91 31.18 C 370.75 33.78 375.43 36.74 379.57 40.38 C 402.77 60.57 426.16 80.54 449.78 100.24 C 454.95 104.89 460.45 109.14 466.04 113.27 C 471.70 117.53 476.86 122.57 483.07 126.04 C 486.83 126.65 489.76 123.76 492.63 121.83 C 529.94 93.89 568.34 67.29 603.49 36.59 Z" />
<path fill="#000000" opacity="1.00" d=" M 104.02 33.04 C 104.41 32.78 105.19 32.26 105.58 32.00 C 119.30 43.81 132.90 55.76 146.80 67.37 C 147.26 87.24 146.87 107.12 147.00 127.00 C 155.66 127.01 164.32 127.00 172.99 127.00 C 177.06 127.03 181.20 126.66 185.19 127.71 C 175.21 142.75 166.43 158.55 156.35 173.53 C 152.24 173.85 148.12 174.03 144.00 174.03 C 143.97 218.69 144.06 263.36 143.95 308.02 C 143.43 327.68 144.42 347.35 143.81 367.00 L 143.48 367.00 C 140.54 363.47 136.04 361.53 132.84 358.18 C 122.45 349.53 112.27 340.64 102.04 331.81 C 101.95 278.87 102.03 225.94 102.00 173.00 C 88.33 172.99 74.66 173.01 60.99 172.99 C 57.67 172.93 54.25 173.49 51.05 172.34 C 59.88 156.60 70.06 141.66 79.16 126.07 C 87.44 125.91 95.72 126.05 104.00 126.00 C 104.02 95.01 103.98 64.03 104.02 33.04 Z" />
<path fill="#000000" opacity="1.00" d=" M 0.00 33.88 C 0.90 33.66 1.79 33.45 2.69 33.23 C 8.00 37.25 12.86 41.80 17.87 46.19 C 26.51 53.72 35.25 61.14 43.94 68.61 C 44.08 87.74 43.96 106.87 44.00 126.00 C 53.77 126.04 63.55 125.92 73.32 126.07 C 72.99 127.36 72.62 128.67 71.89 129.81 C 62.90 145.25 52.43 159.77 43.39 175.17 C 43.29 175.88 43.09 177.30 42.99 178.01 C 42.97 211.80 43.08 245.60 42.93 279.39 C 27.84 268.20 14.33 255.00 0.00 242.89 L 0.00 33.88 Z" />
<path fill="#000000" opacity="1.00" d=" M 1001.16 51.09 C 1001.78 51.20 1003.04 51.41 1003.67 51.52 C 1021.09 82.29 1036.43 114.21 1054.66 144.51 C 1079.09 145.94 1103.60 144.69 1128.07 145.00 C 1137.97 145.03 1147.89 144.93 1157.80 145.06 C 1152.40 151.61 1145.06 156.25 1138.54 161.62 C 1128.19 169.78 1118.42 178.76 1107.57 186.24 C 1098.24 187.61 1088.76 186.72 1079.40 187.53 C 1107.34 240.30 1135.12 293.15 1162.93 345.99 C 1149.05 345.91 1135.16 346.20 1121.29 345.85 C 1105.63 316.56 1089.91 287.29 1073.75 258.27 C 1062.45 236.70 1050.81 215.31 1039.19 193.91 C 1037.92 191.70 1036.71 189.46 1035.92 187.04 C 1010.89 187.12 985.86 187.00 960.82 186.98 C 935.23 225.49 909.53 263.93 883.89 302.41 C 882.46 301.78 880.91 301.28 879.98 299.97 C 864.30 282.20 849.17 263.94 833.74 245.94 C 834.30 231.29 833.95 216.61 834.00 201.95 C 834.01 165.26 833.98 128.57 834.01 91.88 C 848.79 79.03 862.95 65.48 877.74 52.65 C 897.92 77.37 916.85 103.07 936.78 127.98 C 923.90 128.02 911.02 127.99 898.14 128.00 C 890.98 119.98 884.58 111.34 877.97 102.88 C 874.56 105.54 870.97 108.02 867.99 111.18 C 868.02 146.81 867.98 182.44 868.01 218.07 C 867.84 219.37 868.67 220.44 869.33 221.47 C 873.34 227.34 877.38 233.20 881.27 239.16 C 897.16 214.99 912.40 190.36 928.04 166.02 C 952.40 127.70 976.81 89.41 1001.16 51.09 M 984.10 145.95 C 993.96 146.03 1003.83 145.96 1013.70 145.99 C 1009.51 137.85 1004.89 129.95 1000.69 121.83 C 994.96 129.72 989.67 137.94 984.10 145.95 Z" />
<path fill="#000000" opacity="1.00" d=" M 780.32 52.54 C 795.80 69.67 807.84 89.60 823.14 106.91 C 824.97 108.49 824.46 111.06 824.67 113.22 C 825.36 136.15 824.83 159.11 825.00 182.05 C 824.77 213.63 825.20 245.21 824.93 276.79 C 820.21 272.21 816.16 266.99 811.84 262.03 C 801.92 250.16 791.80 238.45 781.73 226.70 C 780.86 225.65 779.70 224.57 780.00 223.05 C 780.06 166.22 779.82 109.38 780.32 52.54 Z" />
<path fill="#000000" opacity="1.00" d=" M 708.46 54.88 C 713.95 58.86 717.39 65.06 722.29 69.72 C 733.75 84.85 745.73 99.62 756.92 114.93 C 757.17 126.65 756.83 138.38 757.07 150.10 C 761.94 157.63 768.08 164.37 772.93 171.92 C 773.04 188.24 773.11 204.57 772.90 220.89 C 772.51 221.07 771.72 221.41 771.32 221.59 C 766.63 216.51 761.83 211.56 757.03 206.59 C 756.92 226.76 757.12 246.94 756.92 267.10 C 744.01 288.08 728.89 307.65 714.81 327.86 C 714.54 328.52 713.99 329.84 713.71 330.49 C 713.03 330.49 711.68 330.49 711.00 330.49 C 711.00 305.35 711.03 280.21 710.82 255.07 C 710.47 218.04 709.58 181.01 710.10 143.97 C 710.21 141.52 708.06 139.87 706.89 137.95 C 697.61 124.76 687.13 112.49 677.29 99.72 C 667.20 86.81 657.31 73.73 647.18 60.84 C 646.57 60.02 646.13 59.12 645.86 58.14 C 658.85 57.83 671.86 58.06 684.86 58.02 C 693.23 67.50 699.62 78.58 708.16 87.90 C 708.53 76.90 708.16 65.89 708.46 54.88 Z" />
<path fill="#000000" opacity="1.00" d=" M 585.84 139.86 C 601.49 112.88 617.97 86.39 634.02 59.66 C 655.18 80.61 671.23 105.95 690.02 128.93 C 689.98 130.59 689.96 132.25 689.95 133.92 C 679.29 134.12 668.64 133.92 657.99 134.03 C 656.09 134.07 654.20 133.85 652.35 133.52 C 648.23 127.32 643.51 121.51 638.31 116.20 C 629.88 127.35 623.71 139.94 616.44 151.82 C 636.55 152.68 656.70 151.45 676.82 152.32 C 669.79 164.93 661.91 177.04 653.85 189.01 C 637.45 189.20 621.02 188.56 604.64 189.66 C 614.42 206.88 628.30 221.24 639.50 237.48 C 649.09 252.00 661.65 264.29 671.09 278.92 C 672.34 280.61 674.84 280.31 676.67 280.92 C 680.97 274.70 685.93 268.97 690.29 262.78 C 690.70 263.10 691.51 263.74 691.92 264.06 C 691.98 275.71 692.03 287.36 692.00 299.01 C 691.93 303.08 692.67 307.53 690.16 311.08 C 686.27 317.32 681.61 323.05 677.53 329.17 C 670.19 324.01 665.58 316.06 660.29 309.00 C 638.83 280.79 617.35 252.59 595.33 224.82 C 584.41 209.92 573.97 194.66 562.41 180.24 C 570.21 166.77 578.25 153.45 585.84 139.86 Z" />
<path fill="#000000" opacity="1.00" d=" M 339.71 61.39 C 341.36 61.25 343.01 61.17 344.68 61.14 C 361.39 88.10 380.40 113.52 398.48 139.55 C 400.48 141.92 400.66 145.10 401.27 148.00 C 393.11 162.14 385.32 176.53 376.20 190.08 C 360.71 189.88 345.23 190.06 329.74 190.02 C 348.90 216.56 368.09 243.10 387.29 269.61 C 387.45 269.96 387.77 270.64 387.93 270.98 C 388.10 287.68 387.94 304.40 388.01 321.10 C 388.31 322.67 387.06 323.76 386.21 324.85 C 354.21 283.54 324.10 240.82 292.68 199.08 C 288.59 204.64 285.01 210.56 281.32 216.39 C 267.44 238.86 253.78 261.47 240.02 284.03 C 239.22 285.40 238.31 286.74 236.97 287.67 C 218.57 266.92 203.95 243.19 186.77 221.47 C 176.94 209.35 167.69 196.77 158.26 184.33 C 160.42 180.51 162.52 176.65 164.90 172.95 C 188.09 138.04 207.48 100.79 230.30 65.64 C 232.56 66.52 235.39 66.84 236.80 69.07 C 253.15 90.19 268.30 112.22 284.99 133.08 C 286.24 134.75 285.69 137.05 286.01 138.99 C 273.76 138.97 261.51 139.08 249.27 138.94 C 244.20 133.25 240.71 126.41 235.97 120.50 C 228.40 132.83 221.43 145.53 214.02 157.97 C 232.76 158.05 251.50 157.97 270.24 158.01 C 263.95 169.52 257.58 181.15 249.13 191.24 C 232.69 193.69 215.89 191.86 199.31 192.64 C 201.69 198.53 204.96 204.08 209.08 208.93 C 217.22 218.50 223.59 229.46 232.18 238.67 C 236.99 235.37 238.94 229.57 241.84 224.76 C 248.08 213.01 255.35 201.85 262.75 190.80 C 274.42 171.41 286.31 152.13 297.44 132.42 C 310.72 108.27 326.54 85.61 339.71 61.39 M 322.34 153.99 C 336.89 154.00 351.43 154.03 365.98 153.96 C 358.18 143.16 350.29 132.42 342.65 121.52 C 335.67 132.20 329.04 143.12 322.34 153.99 Z" />
</g>
</svg>
