<?xml version="1.0" encoding="utf-8"?>
<!-- Generator: Adobe Illustrator 28.2.0, SVG Export Plug-In . SVG Version: 6.00 Build 0)  -->
<svg version="1.1" id="Layer_1" xmlns:serif="http://www.serif.com/"
	 xmlns="http://www.w3.org/2000/svg" xmlns:xlink="http://www.w3.org/1999/xlink" x="0px" y="0px" viewBox="0 0 150 120"
	 style="enable-background:new 0 0 150 120;" xml:space="preserve">
<style type="text/css">
	.st0{fill-rule:evenodd;clip-rule:evenodd;}
</style>
<g id="Calque-1" transform="matrix(4.16667,0,0,4.16667,0,0)" serif:id="Calque 1">
	<g transform="matrix(1,0,0,1,492.624,0.0018)">
		<path class="st0" d="M-457.9,15.3c-0.2,0-0.3-0.1-0.5-0.2c-0.1-0.1-0.2-0.3-0.2-0.5v-1.2h1.2c0.2,0,0.3,0.1,0.5,0.2
			c0.1,0.1,0.2,0.3,0.2,0.5v0.5h-1.5c0,0.2,0.2,0.4,0.4,0.4h1.1v0.4C-456.6,15.3-457.3,15.3-457.9,15.3 M-457,14.2
			c0-0.1,0-0.2-0.1-0.3c-0.1-0.1-0.2-0.1-0.3-0.1h-0.8v0.4L-457,14.2L-457,14.2z"/>
	</g>
	<g transform="matrix(1,0,0,1,280.816,0.0018)">
		<path class="st0" d="M-261,15.3c-0.2,0-0.3-0.1-0.5-0.2c-0.1-0.1-0.2-0.3-0.2-0.5v-1.2h1.2c0.2,0,0.3,0.1,0.5,0.2
			c0.1,0.1,0.2,0.3,0.2,0.5v0.5h-1.5c0,0.2,0.2,0.4,0.4,0.4h1.1v0.4C-259.8,15.3-260.5,15.3-261,15.3 M-260.1,14.2
			c0-0.1,0-0.2-0.1-0.3c-0.1-0.1-0.2-0.1-0.3-0.1h-0.8v0.4L-260.1,14.2L-260.1,14.2z"/>
	</g>
	<g transform="matrix(1,0,0,1,403.998,26.8468)">
		<path class="st0" d="M-375.5-13.4c0.2,0,0.3,0.1,0.5,0.2c0.1,0.1,0.2,0.3,0.2,0.5v1.2h-1.2c-0.2,0-0.3-0.1-0.5-0.2
			c-0.1-0.1-0.2-0.3-0.2-0.5v-0.5h1.5c0-0.2-0.2-0.4-0.4-0.4h-1.1v-0.4C-376.7-13.4-376-13.4-375.5-13.4 M-376.4-12.3
			c0,0.1,0,0.2,0.1,0.3c0.1,0.1,0.2,0.1,0.3,0.1h0.8v-0.4H-376.4z"/>
	</g>
	<g transform="matrix(1,0,0,1,41.5576,0.0018)">
		<path class="st0" d="M-38.6,15.3c-0.2,0-0.3-0.1-0.5-0.2c-0.1-0.1-0.2-0.3-0.2-0.5v-1.2h1.2c0.2,0,0.3,0.1,0.5,0.2
			c0.1,0.1,0.2,0.3,0.2,0.5v0.5h-1.5c0,0.2,0.2,0.4,0.4,0.4h1.1v0.4C-37.4,15.3-38.1,15.3-38.6,15.3 M-37.7,14.2
			c0-0.1,0-0.2-0.1-0.3c-0.1-0.1-0.2-0.1-0.3-0.1h-0.8v0.4L-37.7,14.2L-37.7,14.2z"/>
	</g>
	<g transform="matrix(1,0,0,1,82.2925,26.8468)">
		<path class="st0" d="M-76.5-13.4c0.2,0,0.3,0.1,0.5,0.2c0.1,0.1,0.2,0.3,0.2,0.5v1.2h-1.2c-0.2,0-0.3-0.1-0.5-0.2
			c-0.1-0.1-0.2-0.3-0.2-0.5v-0.5h1.5c0-0.2-0.2-0.4-0.4-0.4h-1.1v-0.4C-77.7-13.4-77-13.4-76.5-13.4 M-77.4-12.3
			c0,0.1,0,0.2,0.1,0.3c0.1,0.1,0.2,0.1,0.3,0.1h0.8v-0.4H-77.4z"/>
	</g>
	<g transform="matrix(1,0,0,1,239.259,0.0186)">
		<path class="st0" d="M-222.4,15.3v-1.9h0.4v0.8h1.2v-0.8h0.4v1.9h-0.4v-0.8h-1.2v0.8H-222.4z"/>
	</g>
	<g transform="matrix(1,0,0,1,216.131,0.0006)">
		<path class="st0" d="M-200.9,15.3c-0.2,0-0.3-0.1-0.5-0.2c-0.1-0.1-0.2-0.3-0.2-0.5v-1.2h1.9v0.4h-1.5v0.8c0,0.1,0,0.2,0.1,0.3
			c0.1,0.1,0.2,0.1,0.3,0.1h1.1v0.4H-200.9z"/>
	</g>
	<g transform="matrix(1,0,0,1,0,-0.0204)">
		<rect x="9.1" y="14.2" class="st0" width="0.9" height="0.4"/>
	</g>
	<g transform="matrix(1,0,0,1,97.0195,0.0006)">
		<path class="st0" d="M-90.2,15.3v-1.9h1.1c0.4,0,0.8,0.4,0.8,0.8v1.1h-0.4v-0.9c0-0.4-0.3-0.6-0.6-0.6h-0.5v1.5H-90.2z"/>
	</g>
	<g transform="matrix(1,0,0,1,147.127,0.0006)">
		<path class="st0" d="M-136.7,15.3v-1.9h2.4c0.4,0,0.6,0.3,0.6,0.6v1.2h-0.4v-0.9c0-0.4-0.3-0.6-0.6-0.6h-0.2v1.5h-0.4v-1.5h-1.2
			v1.5H-136.7z"/>
	</g>
	<g transform="matrix(1,0,0,1,451.066,0.0006)">
		<path class="st0" d="M-419.2,15.3v-1.2c0-0.2,0.1-0.4,0.2-0.5c0.1-0.1,0.3-0.2,0.5-0.2h1.2v1.1h-0.4v-0.8h-0.8
			c-0.2,0-0.4,0.2-0.4,0.4v1.1H-419.2z"/>
	</g>
	<g transform="matrix(1,0,0,1,419.015,0.0006)">
		<path class="st0" d="M-389.5,15.3v-1.2c0-0.2,0.1-0.4,0.2-0.5c0.1-0.1,0.3-0.2,0.5-0.2h1.2v1.1h-0.4v-0.8h-0.8
			c-0.2,0-0.4,0.2-0.4,0.4v1.1H-389.5z"/>
	</g>
	<g transform="matrix(1,0,0,1,380.876,26.848)">
		<path class="st0" d="M-354-13.4v1.2c0,0.2-0.1,0.3-0.2,0.5c-0.1,0.1-0.3,0.2-0.5,0.2h-1.2v-1.1h0.4v0.8h0.8c0.1,0,0.2,0,0.3-0.1
			c0.1-0.1,0.1-0.2,0.1-0.3v-1.1H-354z"/>
	</g>
	<g transform="matrix(1,0,0,1,26.8301,26.848)">
		<path class="st0" d="M-24.9-13.4v1.2c0,0.2-0.1,0.3-0.2,0.5c-0.1,0.1-0.3,0.2-0.5,0.2h-1.2v-1.1h0.4v0.8h0.8c0.1,0,0.2,0,0.3-0.1
			c0.1-0.1,0.1-0.2,0.1-0.3v-1.1H-24.9z"/>
	</g>
	<g transform="matrix(1,0,0,1,308.903,11.1717)">
		<path class="st0" d="M-287.1,3.4c0,0.1,0,0.2,0.1,0.3c0.1,0.1,0.2,0.1,0.3,0.1h1.1v0.4h-1.2c-0.2,0-0.3-0.1-0.5-0.2
			c-0.1-0.1-0.2-0.3-0.2-0.5V2.3h0.4V3.4z"/>
	</g>
	<g transform="matrix(1,0,0,1,0,0.0186)">
		<rect x="13.9" y="13.4" class="st0" width="0.4" height="1.9"/>
	</g>
</g>
</svg>
