<?xml version="1.0" encoding="UTF-8" standalone="no"?>
<!DOCTYPE svg PUBLIC "-//W3C//DTD SVG 1.0//EN" "http://www.w3.org/TR/2001/REC-SVG-20010904/DTD/svg10.dtd">
<!-- Created with Inkscape (http://www.inkscape.org/) -->
<svg
   xmlns:svg="http://www.w3.org/2000/svg"
   xmlns="http://www.w3.org/2000/svg"
   version="1.0"
   width="890"
   height="350"
   id="svg2">
  <defs
     id="defs5" />
  <path
     d="M 341.62557,342.88344 C 332.56151,338.09922 332.18685,328.68007 340.66656,318.77344 C 347.43954,310.86073 348.04823,313.74708 341.62557,323.32101 C 336.08119,331.58574 335.87845,334.50317 340.52557,339.15029 C 345.88658,344.5113 351.98995,343.74186 356.03619,337.19491 C 360.64798,329.73287 357.56423,322.60688 344.79147,311.21039 C 337.22319,304.4576 335.83283,302.55029 338.47858,302.55029 C 340.86117,302.55029 356.85581,318.3616 359.04232,322.87832 C 365.09679,335.38518 353.23418,349.01073 341.62557,342.88344 z M 528.16046,342.70866 C 521.15291,338.95048 519.03874,329.7869 523.44467,322.26876 C 526.39594,317.23279 541.41461,302.55029 543.61461,302.55029 C 546.35307,302.55029 545.21447,304.1331 537.4705,311.09143 C 528.40695,319.23546 524.12557,325.46977 524.12557,330.52356 C 524.12557,343.20655 542.28348,346.2814 544.66805,334.00222 C 545.22092,331.15529 544.17986,328.93053 537.10777,317.84577 C 534.54664,313.83146 537.26351,313.98005 540.84742,318.05029 C 553.92253,332.89966 544.39581,351.41578 528.16046,342.70866 z M 657.37557,322.88801 C 655.22452,322.02004 656.0104,320.55029 658.62557,320.55029 C 660.73009,320.55029 661.12557,320.08128 661.12557,317.58547 C 661.12557,313.49049 658.17963,312.13553 649.87041,312.40876 C 643.77828,312.60908 642.86039,312.37602 640.51854,310.03417 C 638.0412,307.55683 637.90611,306.45225 639.58387,302.39211 C 640.13685,301.05393 639.20005,300.42315 634.72954,299.12354 C 631.6828,298.23783 623.4317,295.0723 616.39378,292.08904 C 593.31169,282.30491 577.97444,282.71737 558.61555,293.64285 C 552.40648,297.14703 549.97959,296.7118 554.62557,292.92729 C 568.21712,281.85594 590.74197,279.47122 610.18404,287.04529 C 650.65704,302.81239 663.66025,301.71051 671.11239,281.88225 C 678.36349,262.5889 666.70994,243.50842 652.24409,250.989 C 642.16694,256.2001 643.55379,271.18966 654.09116,270.95276 C 660.53301,270.80793 663.91534,263.48291 659.55414,259.12172 C 656.56112,256.1287 654.88497,257.52196 657.7157,260.64989 C 661.29126,264.60084 656.19328,269.13512 651.57661,266.11017 C 647.5298,263.45859 648.41101,259.96387 653.82591,257.18982 C 659.72643,254.16699 664.12557,257.43044 664.12557,264.83052 C 664.12557,277.1413 646.37672,277.62414 643.08588,265.40289 C 638.01227,246.56094 663.99961,240.04157 673.63221,257.73982 C 680.33455,270.05423 676.92105,286.85668 666.06591,294.98379 C 662.53442,297.62776 662.29467,298.07966 663.63664,299.56253 C 667.12379,303.41578 664.62257,304.62044 658.47133,302.05029 C 649.02829,298.10474 637.92743,301.57451 641.08968,307.48323 C 642.63011,310.36154 645.95737,310.12288 647.12557,307.05029 C 648.27773,304.01989 650.11685,303.80095 650.85061,306.60685 C 651.2291,308.05418 651.86789,308.4533 653.00699,307.95415 C 655.68533,306.78052 659.40204,306.96821 659.86129,308.30029 C 660.11569,309.03819 659.43874,309.55029 658.2089,309.55029 C 654.98008,309.55029 655.74942,311.27105 659.53714,312.52111 C 664.61464,314.19683 665.86832,319.21621 661.90306,321.99359 C 659.55083,323.64115 659.34354,323.6821 657.37557,322.88801 z M 219.32557,321.35029 C 217.4241,319.44882 217.86761,314.75871 220.05983,313.58547 C 222.66102,312.19336 223.79967,312.27619 222.32557,313.75029 C 219.98521,316.09065 220.83779,320.55029 223.62557,320.55029 C 225.00057,320.55029 226.12557,321.00029 226.12557,321.55029 C 226.12557,322.95693 220.77483,322.79955 219.32557,321.35029 z M 404.12557,319.91972 C 392.73075,317.73749 366.12557,304.15016 366.12557,300.51303 C 366.12557,298.76599 367.81669,299.49184 376.61313,305.01441 C 404.21779,322.34515 426.59187,321.35482 435.97648,302.38683 C 438.29384,297.70303 438.04201,296.55029 434.70141,296.55029 C 433.43304,296.55029 431.2096,295.61763 429.76043,294.47771 C 424.70506,290.50116 427.16742,282.55029 433.45431,282.55029 C 437.06482,282.55029 436.84356,280.91959 432.36282,274.50598 C 424.07871,262.64833 411.85964,259.74188 397.8522,266.29722 C 390.97099,269.51755 382.33162,277.44924 359.6882,301.33509 C 347.5637,314.12485 348.59376,310.52683 361.21034,296.01827 C 388.64235,264.47255 404.98961,255.20609 421.24415,261.98808 C 422.39059,262.46641 423.0618,261.99059 423.54521,260.35685 L 424.22769,258.05029 L 425.14441,260.30029 C 426.13463,262.73072 428.68103,263.32834 429.40533,261.30029 C 429.65087,260.61279 430.22587,260.40029 430.68311,260.82807 C 431.14035,261.25585 430.55343,262.56687 429.37885,263.74146 L 427.24324,265.87707 L 431.24697,270.42554 C 433.44902,272.92721 436.46004,277.574 437.93813,280.75174 C 441.25102,287.87413 440.93988,287.92221 444.91598,279.67336 C 446.7257,275.91889 449.53786,271.57141 451.16522,270.01231 L 454.12404,267.17757 L 451.9542,264.86787 C 449.76865,262.54146 450.13777,260.16249 452.34224,262.36696 C 454.16762,264.19234 456.12557,263.7697 456.12557,261.55029 C 456.12557,259.1504 456.99659,258.99164 458.54505,261.10929 C 459.45899,262.35917 460.23729,262.45831 462.47039,261.60929 C 478.34389,255.5742 494.10165,264.99016 521.77839,297.04844 C 533.33994,310.44031 534.26211,314.02687 523.01664,301.86431 C 504.52047,281.85974 490.87843,269.32956 484.18397,266.19662 C 468.6714,258.93688 454.6435,263.84559 446.7369,279.30029 L 445.07421,282.55029 L 448.54319,282.55029 C 452.53941,282.55029 455.12557,285.35943 455.12557,289.70022 C 455.12557,292.88893 451.04475,296.55029 447.49071,296.55029 C 440.02753,296.55029 451.8392,313.3205 461.56256,316.5295 C 471.826,319.91673 489.08238,315.40836 505.63801,305.01441 C 510.42485,302.00914 514.7428,299.55029 515.23346,299.55029 C 517.51532,299.55029 515.62942,301.81242 510.37557,305.37731 C 479.18439,326.54144 451.95972,324.56072 443.41614,300.50571 C 442.44814,297.78023 441.41738,295.55029 441.12557,295.55029 C 440.83376,295.55029 439.803,297.78023 438.835,300.50571 C 433.85772,314.51957 419.08204,322.78405 404.12557,319.91972 z M 439.12557,292.55029 C 441.49957,288.11444 434.71483,282.80205 430.98572,286.17686 C 428.64669,288.29365 428.66138,288.69045 431.19815,291.91543 C 433.6865,295.07885 437.6044,295.39261 439.12557,292.55029 z M 451.03098,291.94342 C 454.58383,287.42669 450.41438,282.82059 445.61785,285.96339 C 443.21659,287.53676 442.13551,292.2269 443.79224,293.88362 C 445.30863,295.40001 449.1144,294.37995 451.03098,291.94342 z M 225.12608,311.71696 C 227.09885,311.05903 226.07584,309.55029 223.65695,309.55029 C 221.81166,309.55029 221.34236,309.14893 221.79831,307.96073 C 222.39978,306.39332 223.46916,306.41444 228.93465,308.10164 C 230.7734,308.66926 231.3573,308.38017 231.80128,306.68237 C 232.54119,303.85294 233.54999,303.9916 234.97473,307.11857 C 236.6171,310.72319 240.49924,310.15205 240.94783,306.23982 C 241.59793,300.57012 232.3308,298.34857 223.47133,302.05029 C 217.63822,304.48752 214.56937,302.91664 218.61099,299.56239 C 219.87866,298.51032 219.35827,297.66594 215.0612,293.80251 C 194.64515,275.44673 208.66993,238.97654 232.34132,248.86708 C 244.83658,254.08793 240.01255,276.1918 226.8319,274.11146 C 217.06897,272.57054 213.91734,260.9432 222.07868,256.57538 C 228.30365,253.24388 236.3905,262.36492 230.58461,266.16909 C 225.83451,269.28147 220.34356,264.10404 224.62557,260.55029 C 226.3056,259.15599 226.61145,257.55029 225.197,257.55029 C 221.20292,257.55029 219.71945,266.14417 223.12557,269.55029 C 229.5606,275.98532 239.44028,266.91891 235.95931,257.77299 C 230.09913,242.37589 208.12557,251.35823 208.12557,269.15084 C 208.12557,294.07551 228.31,304.15842 256.12557,293.12873 C 261.35057,291.05686 269.22557,288.01819 273.62557,286.37613 C 291.8705,279.56721 314.61114,282.32605 327.62557,292.92729 C 332.56456,296.95047 329.65883,297.07825 322.21252,293.16532 C 302.67831,282.90038 288.57459,282.4807 267.14618,291.52671 C 260.80984,294.2016 252.55856,297.37473 248.80999,298.57812 C 243.29465,300.34869 242.12395,301.07937 242.67344,302.4082 C 245.61301,309.51689 242.17247,312.60988 231.68709,312.28473 C 227.52881,312.15579 224.57636,311.90029 225.12608,311.71696 z M 289.3072,308.43177 C 281.41833,307.11946 274.95035,303.96638 270.1832,299.10901 C 265.86637,294.71048 265.93076,292.03601 270.27129,295.45027 C 289.1469,310.29783 315.01661,310.36688 334.27164,295.6211 C 345.29185,287.18166 349.65545,287.2922 340.22399,295.77189 C 327.7866,306.95418 308.80139,311.67463 289.3072,308.43177 z M 568.12557,308.51574 C 558.25875,306.76314 548.82857,302.08301 541.43867,295.27124 C 532.78515,287.29471 537.04536,287.48055 547.70322,295.54452 C 565.71053,309.16926 588.68251,310.36624 606.89627,298.62883 C 615.71704,292.94451 618.00382,293.00971 612.4662,298.78764 C 604.13131,307.48424 585.42436,311.58844 568.12557,308.51574 z M 210.37557,306.88801 C 208.03807,306.0606 206.12557,304.92298 206.12557,304.35997 C 206.12557,303.76979 206.86663,303.6497 207.87557,304.07638 C 208.83807,304.48342 211.53807,305.28238 213.87557,305.85185 C 216.21307,306.42131 218.12557,307.26143 218.12557,307.71877 C 218.12557,308.92078 215.24639,308.61215 210.37557,306.88801 z M 664.12557,307.71877 C 664.12557,307.26143 666.03807,306.42131 668.37557,305.85185 C 670.71307,305.28238 673.41307,304.48342 674.37557,304.07638 C 675.41196,303.63809 676.12557,303.77192 676.12557,304.40456 C 676.12557,304.9921 673.79389,306.16524 670.94407,307.01155 C 664.99707,308.77762 664.12557,308.86801 664.12557,307.71877 z M 684.40166,304.89671 C 674.52123,301.39804 672.55128,292.90493 680.04682,286.12156 C 682.41418,283.97913 683.76685,284.71088 684.29089,288.41747 C 684.56047,290.3242 685.88988,291.24297 691.12557,293.14098 C 706.14735,298.58659 718.97806,291.03487 720.79692,275.67743 C 721.33735,271.11434 721.66595,270.55029 723.78391,270.55029 C 726.36038,270.55029 726.35743,270.35068 723.92394,280.03354 C 718.9186,299.94973 701.45565,310.93553 684.40166,304.89671 z M 180.16984,302.97292 C 170.45203,298.75736 162.89345,288.51764 159.74296,275.30029 C 158.45503,269.89704 162.66677,271.81114 164.14369,277.30029 C 167.6716,290.41216 180.2765,296.36168 193.58367,291.19596 C 198.65833,289.22602 199.66342,288.41359 200.36226,285.71669 C 201.51585,281.26485 204.63607,282.70188 208.00061,289.23455 C 213.17557,299.28239 193.75826,308.86754 180.16984,302.97292 z M 341.1007,283.93355 C 321.35394,268.08616 323.28308,269.12468 318.02417,271.51069 C 312.54313,273.99748 300.04841,274.36718 298.1654,272.09828 C 294.8415,268.09322 300.9196,263.5988 305.29003,266.83 C 308.72724,269.37124 317.34616,267.35676 314.61721,264.64999 C 313.35926,263.40225 295.45825,256.55029 293.45646,256.55029 C 290.34999,256.55029 292.93542,254.03705 296.34066,253.74661 C 299.03667,253.51667 302.21022,254.64366 309.41146,258.38829 L 318.92178,263.33364 L 323.02368,259.15411 C 329.48798,252.56747 334.19287,254.49617 279.62557,241.36365 C 216.73566,226.22816 170.58574,232.42078 164.58557,256.80029 C 163.94999,259.38276 160.58543,260.67681 158.89686,258.98825 C 156.86243,256.95382 162.41063,243.39196 168.0763,236.55029 C 170.12588,234.07529 172.32495,231.06827 172.96313,229.86801 C 173.6013,228.66776 175.13052,227.36611 176.36139,226.97544 C 177.59225,226.58478 180.18023,225.27453 182.11245,224.06378 C 184.04466,222.85302 186.86557,221.10516 188.38113,220.17965 C 192.06615,217.9293 189.98339,214.42521 183.48588,211.94379 C 176.15122,209.14266 168.61587,211.88028 149.12557,224.42701 C 129.6241,236.98094 115.34736,241.23693 96.130039,240.22534 C 62.602869,238.46049 38.055319,221.67239 33.943849,197.69613 C 31.913809,185.85786 33.163529,181.97578 48.115429,153.67396 C 55.171379,140.31807 55.998079,134.86281 51.673319,130.19631 C 48.710259,126.99912 29.714509,126.26488 20.637449,128.99669 C 2.9672488,134.31462 2.8929488,156.9665 20.537149,159.55444 L 25.625569,160.30078 L 19.910349,160.42553 C 4.6202488,160.7593 -0.80105118,141.26549 11.958349,131.83203 C 13.586649,130.6282 14.852849,128.93928 14.772249,128.07888 C 14.653749,126.81543 16.114249,126.42966 22.364549,126.0735 C 30.915309,125.58624 34.412109,124.27669 33.924419,121.7443 C 33.508999,119.58724 30.478519,119.01248 28.440169,120.70415 C 27.566049,121.42961 25.450169,122.0603 23.738249,122.10568 C 22.026249,122.15107 19.811249,122.55311 18.815949,122.99912 C 17.448349,123.61195 16.876149,123.31232 16.473449,121.77262 C 16.180449,120.65204 15.082249,119.51072 14.033149,119.23636 C 11.894649,118.67715 11.495349,115.58055 13.325549,113.75029 C 14.776449,112.29937 19.125549,112.1494 19.125549,113.55029 C 19.125549,114.10029 18.252149,114.55029 17.184549,114.55029 C 14.484449,114.55029 13.809749,116.09161 15.687849,117.96967 C 17.571149,119.85298 18.995749,119.91103 26.474099,118.40916 C 32.879239,117.12283 36.764209,118.96275 35.572319,122.71807 C 35.047789,124.37072 35.658949,124.55244 41.808179,124.57225 C 53.316899,124.60933 61.039789,129.98062 64.597669,140.42242 C 67.322779,148.42019 66.119399,154.15681 58.067889,171.55029 C 46.759089,195.98043 47.493159,212.75999 60.436979,225.70381 C 74.327519,239.59434 105.3993,238.97643 125.09053,224.41808 C 129.62156,221.06814 128.94722,220.63547 119.37557,220.75127 C 106.53178,220.90665 98.541599,216.42697 92.411559,205.63393 C 89.092689,199.79048 87.520999,198.55029 83.434439,198.55029 C 79.258999,198.55029 79.290499,198.27387 83.980349,193.76023 L 87.835129,190.05029 L 88.479189,142.55029 C 89.688189,53.386711 89.880729,56.410091 82.490359,48.509201 C 77.821219,43.517511 77.944809,42.170811 83.023169,42.703501 C 90.246629,43.461191 91.474629,35.664051 85.130919,29.320351 C 81.402629,25.592061 80.885869,25.379561 77.380919,26.133381 C 68.969589,27.942451 58.278499,26.034411 55.628669,22.251261 C 50.598029,15.069011 58.271989,6.3471809 65.988419,10.476891 C 68.379399,11.756501 68.841729,13.550291 66.780559,13.550291 C 63.888319,13.550291 61.713869,17.351281 62.996129,20.165551 C 65.856849,26.444141 81.756069,21.799871 97.991739,9.9430909 C 107.06665,3.3157609 106.40132,3.2657209 109.21413,10.787091 C 110.7319,14.845581 113.04472,18.522071 115.83605,21.313401 C 120.87401,26.351371 120.93698,26.550291 117.49365,26.550291 C 113.27537,26.550291 107.9407,32.862551 108.32279,37.401731 C 108.59867,40.679241 109.14287,41.262791 114.44804,43.969931 L 120.27052,46.941031 L 115.85164,49.186771 C 107.99306,53.180611 108.05779,52.881661 108.35948,83.789671 C 108.5905,107.45737 108.82327,110.99502 110.12557,110.63097 C 119.12063,108.11642 128.79932,112.25646 123.74065,116.45479 C 122.69504,117.32256 121.22367,117.30139 117.73522,116.36837 C 111.84894,114.79403 109.09238,116.71024 110.69361,121.26332 C 112.02613,125.05233 115.49913,126.52091 123.12557,126.52024 C 132.37578,126.51942 132.42685,126.45578 131.17673,116.48589 C 125.3719,70.191521 144.59215,25.932541 173.08069,19.992511 C 195.39383,15.340091 213.55392,35.069201 204.06998,53.659251 C 200.13786,61.366841 191.92258,64.222511 188.53867,59.058011 C 186.1175,55.362841 187.3201,53.550291 192.19298,53.550291 C 203.27662,53.550291 204.58823,41.683041 194.10564,36.244911 C 169.8247,23.648531 126.36668,89.575091 138.33663,120.84745 C 140.8095,127.308 151.15779,128.15174 158.31693,122.47652 C 163.31391,118.5153 164.12557,118.75469 164.12557,124.18969 C 164.12557,129.77715 166.731,134.36633 178.52364,149.55029 C 198.03449,174.67207 201.51165,191.89148 189.49938,203.90375 L 186.93975,206.46338 L 191.09666,211.28926 L 195.25358,216.11515 L 204.93957,212.85082 C 210.26687,211.05544 215.75057,209.57221 217.12557,209.55474 C 227.38928,209.42436 226.34086,204.60982 212.29019,187.34984 C 202.46395,175.27917 196.12557,161.59844 196.12557,152.46017 C 196.12557,125.82053 213.3178,88.148661 228.85704,80.738521 C 233.10619,78.712241 233.84858,79.539681 234.98812,87.572031 C 235.80601,93.337091 236.9222,95.629271 245.12693,108.39278 C 268.67483,145.02454 266.46373,165.09071 234.82836,201.85444 C 228.47131,209.24202 227.45956,208.75347 255.62557,211.89684 C 268.82557,213.36998 284.12557,215.64558 289.62557,216.95374 C 343.50985,229.76997 340.34393,229.58064 341.40471,220.05029 C 344.18731,195.05079 340.80173,190.82599 326.80288,201.8289 C 323.41615,204.49084 322.81025,204.66354 321.49002,203.34332 C 319.24991,201.1032 323.57983,196.53711 333.48976,190.68905 L 341.62557,185.88793 L 341.90427,149.46911 C 342.23569,106.1607 341.82788,103.96164 333.11001,102.04687 C 328.53919,101.04295 328.65812,100.23309 334.71229,91.135731 L 340.3665,82.639381 L 346.49603,86.757841 C 349.86728,89.022991 354.32359,92.199091 356.39894,93.815841 C 361.35213,97.674471 362.7779,97.232831 373.7279,88.448001 C 387.2101,77.631671 390.99785,76.847191 388.15539,85.459931 C 386.41293,90.739651 388.77365,102.50142 394.89466,119.03676 C 407.96951,154.35727 404.89628,176.25835 383.36563,201.19722 C 377.79924,207.64474 378.5515,207.59587 370.95479,202.00349 C 361.69417,195.1862 360.69344,195.73485 360.33908,207.82358 C 360.10242,215.89694 360.40602,218.39588 362.08459,222.19056 L 364.1166,226.78424 L 370.87108,226.08768 C 384.15297,224.71796 388.86168,222.72613 413.06236,208.24039 L 421.49915,203.1904 L 416.58649,198.86749 L 411.67384,194.54458 L 413.52719,191.10311 C 415.2795,187.84927 415.34023,185.5188 414.64116,148.35597 C 413.84312,105.9315 413.83298,105.85712 408.23811,101.38828 L 405.31101,99.050291 L 412.08999,91.758281 L 418.86898,84.466261 L 423.13452,89.560981 C 425.58164,92.483791 429.574,95.757311 432.49957,97.239811 C 437.53411,99.791001 437.57059,99.842851 435.36233,101.30908 L 433.12557,102.79423 L 433.12557,146.04982 C 433.12557,194.42173 432.64493,191.40365 440.48914,192.2878 C 448.94921,193.24137 448.39028,201.94404 446.04366,105.80207 C 444.81394,55.420171 444.82965,55.273851 452.27746,47.751591 C 462.53002,37.396531 487.12557,34.828951 487.12557,44.113721 C 487.12557,47.280511 485.85373,47.810881 482.47965,46.051141 C 475.72558,42.528591 468.66924,46.615641 465.97499,55.610691 C 464.48782,60.575771 463.99979,109.75411 465.42353,111.18025 C 467.25941,113.01921 482.54611,95.870111 483.79985,90.565121 C 485.3596,83.965311 491.20637,82.120911 490.96405,88.305121 C 490.87207,90.652421 491.97688,94.566061 493.91133,98.745441 C 502.70994,117.75488 501.56301,129.57714 489.90319,140.06032 L 484.95242,144.51149 L 489.90954,149.33987 C 495.41985,154.70708 500.76355,164.93699 503.60084,175.55029 C 506.33447,185.77584 510.0005,192.54822 516.45135,199.28944 L 522.42175,205.52859 L 518.53091,207.15429 C 502.76088,213.74343 490.55167,202.38718 483.80352,174.85303 C 479.45271,157.10062 478.15053,154.37195 472.63254,151.44466 C 467.56132,148.75439 467.65538,148.32898 474.03636,145.0955 C 483.70521,140.19592 486.84281,134.07434 485.87364,122.00051 C 484.78419,108.4283 481.18551,106.40748 471.18668,113.75312 L 463.97621,119.05029 L 464.30089,152.05029 L 464.62557,185.05029 L 467.47912,189.90506 L 470.33268,194.75983 L 465.47912,199.07432 C 459.64426,204.26113 458.43078,202.89987 479.62557,214.94358 C 501.88371,227.59152 503.28907,227.97501 531.62557,229.13283 C 549.01463,229.84334 552.51968,229.28606 592.62557,219.43417 C 607.54351,215.76962 655.02184,210.13076 663.12557,211.0611 C 671.20179,211.98827 679.6578,214.31828 686.95604,217.62746 C 694.89314,221.22632 694.87842,221.22646 694.33985,217.55689 C 693.57187,212.32433 695.05829,207.9083 699.15354,203.25586 C 701.53411,200.55138 702.9029,198.13361 702.55973,197.23931 C 702.24418,196.417 702.93648,193.8811 704.09818,191.60398 C 706.15591,187.57049 706.20613,186.39295 706.04637,145.92144 C 705.85696,97.935321 706.18274,99.592781 696.86966,99.233371 C 691.17008,99.013411 690.9682,99.554771 699.83599,91.279181 C 708.54413,83.152581 707.46396,83.198711 716.79363,90.555061 C 721.53802,94.295961 724.82697,96.243881 725.51736,95.721811 C 726.12688,95.260911 730.57866,92.044971 735.41021,88.575271 L 744.19485,82.266751 L 746.91021,84.635581 C 762.9608,98.637841 761.57223,92.920701 761.92345,146.4496 C 762.16988,184.00851 762.4702,192.20423 763.66243,193.90638 C 764.96218,195.76203 764.87041,196.21332 762.7269,198.50707 C 758.86775,202.63671 758.63423,205.01746 761.84008,207.54815 C 767.31797,211.87236 777.87648,208.78402 780.69749,202.03239 C 782.43813,197.86646 782.89035,50.847821 781.1724,47.637801 C 779.82438,45.118991 774.30356,40.550291 772.60786,40.550291 C 769.82042,40.550291 770.07786,38.462881 772.99053,37.447521 C 776.56623,36.201031 780.09174,31.763341 782.44225,25.550291 C 785.24156,18.150911 785.65606,17.772941 788.3229,20.187761 C 797.3998,28.406881 815.44122,37.480341 822.80414,37.529201 C 829.01443,37.570411 831.12446,32.267771 826.38213,28.537461 C 823.68488,26.415801 823.67225,26.354721 825.63213,24.909091 C 830.07518,21.631841 838.12931,25.531181 838.1206,30.955281 C 838.10861,38.425481 827.23106,43.156861 815.91452,40.614211 C 811.26083,39.568591 809.81295,40.094451 806.00236,44.214231 L 803.37915,47.050291 L 802.73072,122.05865 C 802.01288,205.09641 801.95244,204.14442 808.23759,208.79123 C 811.7068,211.35613 811.90837,212.54689 808.87557,212.56006 C 805.66206,212.57401 796.12266,217.20209 792.82889,220.34518 L 790.03222,223.01391 L 785.32889,217.8957 L 780.62557,212.77749 L 771.37557,212.74283 C 760.44608,212.70188 760.22206,213.11369 768.25553,218.47824 C 787.21682,231.1401 819.24248,230.50459 830.68867,217.23934 C 842.89239,203.09616 843.32332,187.61594 832.18325,163.55029 C 818.41339,133.80359 823.7913,118.94701 849.37557,116.0561 C 853.31246,115.61125 855.12557,114.96718 855.12557,114.01352 C 855.12557,111.19632 859.01053,110.25259 865.20036,111.56616 C 873.37798,113.30157 881.70953,109.82329 874.12557,107.84004 C 873.02557,107.55238 872.12557,106.87073 872.12557,106.32525 C 872.12557,103.94331 879.05591,107.32044 879.11026,109.72886 C 879.13275,110.72548 876.13446,113.55029 875.05414,113.55029 C 874.54343,113.55029 874.12557,114.22529 874.12557,115.05029 C 874.12557,116.84893 873.06148,116.93384 869.70224,115.40327 C 867.78142,114.52809 866.83881,114.54339 865.72492,115.46783 C 864.54262,116.44906 864.05496,116.28687 863.16013,114.61486 C 861.87868,112.22045 857.61809,111.82442 856.77505,114.02135 C 855.77094,116.63801 858.92225,118.37179 865.86643,119.02321 C 869.58395,119.37195 873.52557,119.75639 874.62557,119.87752 C 875.73692,119.99991 876.49154,120.71147 876.32392,121.47898 C 876.15802,122.23864 877.59372,124.47795 879.51438,126.45523 C 891.99725,139.30609 882.3404,157.22787 864.88559,153.60427 C 850.41536,150.60026 849.43834,135.58222 863.79057,136.77242 C 872.00409,137.45354 875.90974,142.72068 871.29683,146.8953 C 868.682,149.26169 866.30409,149.1155 868.47058,146.72155 C 872.77172,141.96885 866.02383,135.38903 860.22743,138.6837 C 851.88812,143.42374 857.64015,152.54468 868.97128,152.54874 C 883.98679,152.55411 887.51482,132.13707 873.87922,124.14607 C 868.28734,120.86901 848.52175,117.326 843.5264,118.70528 C 832.5876,121.72563 833.63392,131.52839 847.5125,156.05029 C 857.32698,173.39137 859.09525,182.23063 855.22284,194.59271 C 843.69382,231.39738 787.22156,244.4438 746.62557,219.68124 C 717.57986,201.96407 709.74718,199.74832 702.09127,207.08315 C 694.10117,214.73816 700.28215,224.4365 710.44476,220.19028 C 717.72997,217.14633 719.73266,223.48031 712.61377,227.05029 C 710.42026,228.15029 708.4414,229.15946 708.2163,229.2929 C 707.9912,229.42633 710.36026,232.2123 713.48088,235.48395 C 719.19264,241.47214 725.1233,252.07465 725.12478,256.30029 C 725.1264,260.91971 720.6508,259.14266 717.29132,253.18999 C 706.16677,233.47836 664.82422,229.61428 607.12557,242.89335 C 556.40764,254.56584 557.88322,254.0278 563.03987,258.96818 L 565.95416,261.76025 L 574.25111,257.6075 C 580.18688,254.63655 583.53313,253.53949 586.00951,253.75252 C 589.42431,254.04628 591.8114,256.55029 588.67664,256.55029 C 586.78944,256.55029 571.04124,262.4215 569.74206,263.60944 C 566.54995,266.52824 578.22056,269.40733 581.8074,266.58592 C 584.02708,264.83992 584.54594,264.77962 586.47481,266.04346 C 587.88706,266.96881 589.15756,267.14855 590.11284,266.55816 C 590.92019,266.05919 593.46739,265.90953 595.77328,266.22559 C 603.60516,267.29907 608.18474,261.7764 604.62557,255.55029 C 602.86755,252.47495 602.71111,247.36475 604.32557,245.75029 C 607.66109,242.41477 614.92263,247.4627 612.45462,251.40128 C 611.03645,253.66447 607.52771,254.04065 606.7496,252.01292 C 605.86354,249.70388 606.78263,248.64785 609.14143,249.26469 C 610.71181,249.67535 611.01378,249.42255 610.51269,248.11671 C 610.08883,247.01216 608.97743,246.54562 607.24782,246.74619 C 603.66213,247.16202 603.41238,250.22025 606.5826,254.89184 C 611.74664,262.50148 606.75937,268.85957 596.02408,268.35251 L 589.62557,268.05029 L 589.32173,271.17264 C 589.10702,273.37908 589.51568,274.48601 590.71486,274.94618 C 592.90679,275.7873 593.82933,274.85405 592.3089,273.33362 C 590.46001,271.48473 590.91236,270.38091 593.37557,270.73074 C 596.49163,271.17329 596.94807,275.03974 594.06631,276.58201 C 592.25531,277.55122 591.40434,277.39318 589.04612,275.64967 C 586.80991,273.99637 584.74659,273.55029 579.33554,273.55029 C 573.99026,273.55029 571.37214,272.99609 567.54505,271.05448 C 560.63348,267.54801 563.82419,265.81346 534.71919,288.89938 C 528.86095,293.5461 525.55283,295.54448 524.43131,295.11412 C 523.15852,294.6257 523.9354,293.7177 527.80845,291.16699 C 530.57507,289.34496 536.21802,284.97333 540.34836,281.45225 C 544.47869,277.93117 550.37165,273.25029 553.44382,271.05029 C 560.17724,266.22845 560.30683,265.41854 554.96421,261.54836 C 550.39192,258.23621 547.95715,257.4593 534.62557,255.05846 C 523.58232,253.06973 511.69894,248.33237 499.51463,241.06135 C 488.49151,234.48327 489.12557,234.57306 489.12557,239.59013 C 489.12557,249.6289 481.04558,256.4039 470.545,255.16977 C 467.14647,254.77034 465.12557,254.90898 465.12557,255.54155 C 465.12557,257.63793 463.167,256.35417 456.71758,250.03048 C 450.9945,244.41897 449.79351,243.65764 448.09685,244.56566 C 444.35965,246.56575 446.71314,250.99391 450.92761,249.89181 C 452.64923,249.44159 453.12557,249.74945 453.12557,251.31234 C 453.12557,252.58654 454.20977,253.75674 456.12557,254.55029 C 457.77557,255.23374 459.12557,256.46844 459.12557,257.29406 C 459.12557,258.43646 458.80488,258.52903 457.78356,257.68141 C 457.04546,257.06884 456.17012,256.83907 455.83837,257.17083 C 455.0869,257.92229 446.36099,250.8587 445.077,248.45953 C 443.91892,246.29565 444.84475,243.55029 446.73256,243.55029 C 448.89167,243.55029 448.42876,242.26767 444.40628,237.10463 L 440.68699,232.33076 L 437.42115,236.19052 C 433.68092,240.61097 433.49793,241.37086 435.77303,243.03446 C 439.6494,245.86893 431.08591,255.66804 424.22382,256.25008 C 421.4972,256.48135 422.40621,255.10916 426.29139,253.12899 C 427.72037,252.40067 428.49998,251.2315 428.30172,250.11411 C 428.04108,248.64515 428.47534,248.384 430.52658,248.77612 C 434.2111,249.48046 436.8886,246.45618 434.60355,244.17113 C 432.50916,242.07674 431.04174,242.88107 423.60545,250.19949 C 420.17229,253.57824 417.5891,255.44088 417.34637,254.71268 C 417.04976,253.82285 415.33673,253.64295 411.27931,254.07554 C 401.06769,255.16427 393.08713,248.81621 392.48722,239.12753 C 392.34837,236.88505 392.21019,234.94338 392.18017,234.81271 C 392.15014,234.68204 389.53807,236.23524 386.37557,238.26426 C 383.21307,240.29327 376.43249,243.84599 371.30762,246.15918 C 362.77406,250.01094 359.04354,251.1802 344.75037,254.48303 C 339.55906,255.68263 331.16928,260.73063 327.09597,265.10542 L 324.62557,267.75866 L 328.10294,270.40447 C 330.0155,271.85967 335.73317,276.51829 340.80889,280.75695 C 345.8846,284.99561 351.85728,289.66791 354.08151,291.13983 C 358.14275,293.82743 359.22448,295.55029 356.8507,295.55029 C 356.14951,295.55029 349.06201,290.32276 341.1007,283.93355 z M 479.20389,251.27649 C 490.65039,243.5627 488.76968,229.508 475.63075,224.57411 C 470.10168,222.49784 465.32226,228.24678 468.24637,233.45644 C 471.83333,239.84705 478.77897,239.95919 478.47366,233.62156 C 478.34842,231.02195 478.56793,230.67252 479.72366,231.6317 C 482.91188,234.27768 480.52924,240.55387 476.34039,240.5437 C 466.11488,240.51888 461.11619,226.7628 469.69863,222.266 L 472.22142,220.94418 L 466.95556,216.50395 C 464.05934,214.06182 458.26105,208.85727 454.07048,204.93829 C 441.68548,193.35598 437.43364,193.26451 427.71478,204.37133 C 425.15392,207.29791 420.35511,211.9423 417.05076,214.69221 L 411.04285,219.69204 L 414.08421,223.15596 C 419.13785,228.91174 415.83998,237.07796 407.62974,239.1386 C 402.68311,240.38012 398.54349,233.55896 402.18877,230.17313 C 403.1159,229.312 403.27101,229.57556 402.85428,231.30394 C 402.52034,232.68894 403.02274,234.42343 404.15771,235.80394 L 406.00453,238.05029 L 409.7842,236.05029 C 414.5284,233.53991 416.38906,228.60392 413.70795,225.64132 C 410.51711,222.11549 408.48836,222.47379 401.61983,227.77622 C 392.25324,235.00713 391.82569,239.17596 399.60656,247.40701 C 408.77045,257.10111 423.74858,251.64162 437.33972,233.65337 L 439.90628,230.25645 L 449.76593,240.25304 C 462.75637,253.42391 471.28066,256.61595 479.20389,251.27649 z M 472.11019,233.73892 C 469.00462,231.22418 470.03532,228.29225 473.86988,228.73332 C 476.17514,228.99848 476.62557,229.52703 476.62557,231.96696 C 476.62557,235.59064 475.12445,236.17972 472.11019,233.73892 z M 405.12557,232.05029 C 405.12557,230.67529 405.01307,229.26434 404.87557,228.91484 C 404.23826,227.29495 409.13786,226.70544 410.65223,228.21981 C 412.09743,229.665 412.04088,230.01153 410.00653,232.177 C 407.11071,235.25946 405.12557,235.20793 405.12557,232.05029 z M 129.7904,215.84866 C 133.54319,214.40859 135.33215,205.71794 132.66088,201.90416 C 130.15341,198.32425 134.63852,197.11999 139.02808,200.19456 C 141.13716,201.67182 141.31945,202.3828 140.82284,207.19456 C 140.16922,213.52747 139.84174,213.43059 147.52947,209.17866 C 150.88233,207.32427 155.31307,205.26437 157.37557,204.60111 C 160.32272,203.65337 161.12557,202.8849 161.12557,201.01169 C 161.12557,197.64038 164.86261,194.33919 167.2392,195.6111 C 168.77765,196.43446 168.88695,196.9799 167.93301,199.07358 C 166.49838,202.22223 166.42385,202.17563 173.93435,202.82545 C 185.89917,203.86066 185.83877,190.12946 173.79596,171.36536 C 156.92587,145.07982 141.85415,132.45405 125.07162,130.54837 C 120.42629,130.02089 114.68087,129.29961 112.30402,128.94553 L 107.98247,128.30174 L 108.32147,156.17602 C 108.7029,187.538 108.93142,188.66573 115.50129,191.60714 L 119.41774,193.36059 L 115.52165,195.34903 C 99.267729,203.64453 112.40582,222.51976 129.7904,215.84866 z M 739.12557,197.15949 C 739.12557,196.39456 740.01569,193.80706 741.10361,191.40949 C 743.11729,186.97175 744.28487,116.5968 742.49343,107.63959 C 741.02077,100.27629 734.4026,96.804311 728.07591,100.07597 L 725.12557,101.60165 L 725.12931,144.82597 C 725.13355,193.84527 724.88031,192.23999 733.26364,196.38962 C 738.38494,198.92459 739.12557,199.02186 739.12557,197.15949 z M 384.7285,188.03354 C 393.88611,174.05726 392.80079,154.34495 381.57993,130.84736 C 378.11227,123.58575 373.81411,113.79825 372.02846,109.09736 C 368.39055,99.520231 367.83798,99.188321 363.30967,103.86034 L 360.10144,107.1704 L 360.36351,145.52638 L 360.62557,183.88236 L 370.12557,187.13779 C 381.77676,191.13039 382.66372,191.1848 384.7285,188.03354 z M 241.01219,183.9673 C 254.33281,167.03287 250.94,146.08606 230.31365,117.91588 C 219.1786,102.70832 219.00907,102.61426 216.58849,110.30029 C 209.1152,134.03006 213.68278,157.14622 230.21994,179.28793 C 236.08381,187.13911 237.89837,187.92588 241.01219,183.9673 z M 181.30144,285.52699 C 176.74672,280.23929 174.82747,279.96441 173.33689,284.3863 L 172.43888,287.05029 L 171.68505,284.70644 C 171.10899,282.91533 171.52883,281.7362 173.46534,279.70644 C 176.74994,276.26366 175.85481,274.62434 167.87357,269.46581 C 157.87843,263.00564 146.28345,265.55542 146.15737,274.24127 C 146.11485,277.17064 147.95839,278.16118 149.5082,276.04169 C 151.05316,273.92883 154.48153,274.44457 154.94666,276.85981 C 155.47367,279.59636 153.2358,281.55029 149.57455,281.55029 C 139.32876,281.55029 141.34683,268.63041 152.15327,265.04109 C 160.49709,262.26972 170.05145,265.36274 176.02283,272.76835 C 177.96542,275.17752 178.95378,275.63465 181.23405,275.17859 C 184.5092,274.52356 186.11881,276.10027 183.14009,277.04568 C 180.22022,277.97241 180.62438,281.48657 184.14157,285.75354 C 188.73667,291.32819 186.11858,291.11936 181.30144,285.52699 z M 697.54765,286.37029 C 701.62266,281.60955 702.18926,278.02267 699.02491,277.01834 C 697.63391,276.57685 697.25981,276.01605 697.91755,275.35831 C 698.57529,274.70057 699.59891,274.73325 700.94757,275.45503 C 702.68945,276.38725 703.3926,276.054 705.80493,273.15289 C 716.79176,259.93993 739.12557,261.31296 739.12557,275.20137 C 739.12557,280.61309 731.99018,284.0149 728.32557,280.35029 C 724.97247,276.99719 728.67441,272.92703 732.18644,276.10538 C 734.71444,278.39318 736.65172,276.78277 735.74025,273.15118 C 733.36646,263.69324 718.66617,264.08858 710.15668,273.8392 L 706.85005,277.62811 L 709.0822,280.00413 C 711.32496,282.39143 711.24173,286.55029 708.95119,286.55029 C 708.37941,286.55029 708.16562,285.88831 708.47609,285.07923 C 709.01076,283.68589 706.75935,280.50154 705.30414,280.59289 C 704.93093,280.61631 702.90519,282.86631 700.80251,285.59289 C 698.69983,288.31946 696.30226,290.55029 695.47459,290.55029 C 694.4654,290.55029 695.14823,289.17347 697.54765,286.37029 z M 261.73256,285.9685 C 259.73795,280.77063 262.42958,271.62898 267.56146,266.17171 C 271.41187,262.07716 273.28091,264.14665 269.85904,268.7157 C 265.15429,274.9977 263.88757,278.47754 264.59305,283.182 C 265.26335,287.6519 263.16349,289.69745 261.73256,285.9685 z M 617.65809,283.182 C 618.36357,278.47754 617.09685,274.9977 612.3921,268.7157 C 609.13731,264.36975 610.78768,262.00519 614.28609,266.0021 C 619.93492,272.45587 622.11862,279.24282 620.49528,285.30029 C 619.30702,289.73427 616.94048,287.96737 617.65809,283.182 z M 287.70796,276.23419 C 285.32722,274.49335 286.04576,271.13593 288.88579,270.73074 C 291.33977,270.38063 291.78883,271.48703 289.94224,273.33362 C 288.46138,274.81448 289.32404,275.79509 291.40512,274.99651 C 297.76302,272.55676 293.4113,267.25341 285.72672,268.07636 C 275.23749,269.19966 270.37881,262.65805 275.71419,254.59574 C 278.92847,249.73864 278.33335,246.26971 274.36685,246.74215 C 270.81365,247.16537 270.18409,249.55029 273.62557,249.55029 C 276.49306,249.55029 276.62735,251.20041 273.89987,252.92086 C 270.16412,255.27731 267.54019,249.29502 270.95431,246.20528 C 276.60712,241.08955 281.76325,248.31218 277.62557,255.55029 C 274.05073,261.80381 278.64464,267.29925 286.5422,266.21677 C 294.01484,265.19253 297.93109,270.74477 293.12557,275.55029 C 290.77093,277.90493 290.10739,277.9887 287.70796,276.23419 z M 280.66924,262.20588 C 277.55749,259.93051 283.51835,248.48891 287.77557,248.5656 C 290.52602,248.61515 291.53074,250.4451 289.83581,252.31798 C 287.48498,254.91561 287.68992,256.79239 290.62557,259.55029 C 292.00057,260.84204 293.12557,262.27048 293.12557,262.7246 C 293.12557,264.08991 282.64916,263.65363 280.66924,262.20588 z M 589.12557,262.7246 C 589.12557,262.27048 590.25057,260.84204 591.62557,259.55029 C 594.56122,256.79239 594.76616,254.91561 592.41533,252.31798 C 590.93996,250.68771 590.90563,250.30135 592.16533,249.50455 C 596.93389,246.48832 606.1242,258.88447 601.5819,262.20588 C 599.60198,263.65363 589.12557,264.08991 589.12557,262.7246 z M 273.83652,203.07559 C 268.06217,196.61843 268.05138,196.59444 269.58652,193.6258 C 270.89786,191.08995 271.12557,184.63595 271.12557,150.00432 C 271.12557,103.3982 271.66043,106.17176 261.70114,101.13282 C 254.76301,97.622441 254.70207,98.055501 263.2473,90.143921 C 271.95081,82.085821 272.26267,82.075901 279.61451,89.623371 C 289.22771,99.492401 291.75579,99.380651 301.18372,88.669971 C 304.14644,85.304141 307.08504,82.550291 307.71395,82.550291 C 309.20294,82.550291 323.12557,97.442241 323.12557,99.034901 C 323.12557,101.29482 309.1169,116.55029 307.04168,116.55029 C 304.43877,116.55029 303.54658,114.00065 305.12044,111.05988 C 309.15303,103.52492 298.60516,96.745331 291.85351,102.53263 C 290.69823,103.5229 290.25593,114.94416 290.1489,146.55029 C 289.99132,193.08433 289.75081,188.95146 292.82934,192.61009 L 295.53312,195.82334 L 288.33562,202.68682 C 279.64292,210.9761 280.87213,210.94314 273.83652,203.07559 z M 590.86849,207.95988 C 590.54377,207.63516 590.91877,205.55358 591.70183,203.33415 C 593.61534,197.91068 593.76486,168.1782 591.87557,168.78529 C 587.88748,170.0668 580.87392,186.94923 579.11963,199.49029 C 577.82928,208.71478 578.15102,208.47439 572.51548,204.42443 C 546.50046,185.72883 544.14517,129.04398 568.39938,105.36209 C 574.15082,99.746371 574.19574,99.658641 571.92531,98.476641 C 570.66045,97.818151 569.42456,97.101821 569.17888,96.884811 C 568.64163,96.410251 584.27622,80.550291 585.2813,80.550291 C 585.66776,80.550291 588.46739,83.137791 591.5027,86.300291 C 595.91355,90.895961 598.68812,92.741751 605.32351,95.494631 C 609.88964,97.389021 613.79903,99.062471 614.01103,99.213421 C 614.22303,99.364371 613.66053,100.61108 612.76103,101.9839 C 611.31878,104.18505 611.12557,109.01855 611.12557,142.89874 L 611.12557,181.31757 L 615.04233,184.85613 L 618.9591,188.39469 L 614.85697,191.10934 C 612.6008,192.60241 606.8276,197.13742 602.02763,201.18715 C 593.56697,208.3254 592.11516,209.20654 590.86849,207.95988 z M 586.00045,165.05029 L 593.09513,156.05029 L 593.11035,131.88578 L 593.12557,107.72128 L 588.61311,105.19922 C 580.74017,100.79895 580.45942,100.82247 575.154,106.32675 C 562.77892,119.16567 562.13912,150.49415 573.87982,168.7174 C 578.3866,175.71257 577.34761,176.02692 586.00045,165.05029 z M 662.68401,206.30029 C 663.11945,205.06279 663.65142,195.96637 663.86616,186.08602 L 664.25659,168.12174 L 662.15133,170.02698 C 656.88784,174.79037 650.19004,193.62779 650.14293,203.80029 C 650.12275,208.15964 649.94975,208.22278 645.52254,205.48662 C 618.62883,188.86539 615.14421,128.09887 639.79295,105.57131 C 645.79563,100.0852 646.19566,99.035681 642.62557,98.139651 C 639.04474,97.240911 639.24564,96.881501 648.44324,87.731671 L 656.76092,79.457201 L 662.69324,85.795851 C 667.66462,91.107741 669.96195,92.683651 676.87557,95.524591 C 685.42664,99.038401 686.05525,99.737051 683.59377,102.99142 C 682.36271,104.61902 682.12557,111.06416 682.12557,142.89503 L 682.12557,180.85751 L 686.37557,184.83702 C 689.00148,187.2958 690.14567,188.98931 689.36974,189.26868 C 687.88222,189.80426 679.02631,196.5297 670.62557,203.50356 C 663.98339,209.01756 661.40887,209.92421 662.68401,206.30029 z M 657.02256,165.61104 L 664.16077,156.67178 L 663.89317,131.86104 L 663.62557,107.05029 L 657.81868,104.14791 L 652.01179,101.24554 L 647.52225,105.64791 C 633.2398,119.65308 632.91186,148.77103 646.78847,170.80029 C 649.75088,175.50314 648.69661,176.03771 657.02256,165.61104 z M 529.34016,200.96085 C 522.43007,193.63396 522.26397,193.12491 525.17408,188.19265 C 527.10069,184.92729 527.16262,184.01639 526.2149,172.88549 C 525.66068,166.37613 524.96311,149.12529 524.66476,134.55029 C 524.36641,119.97529 523.87407,102.20029 523.57067,95.050291 C 522.0314,58.775341 529.33446,43.346731 548.78329,41.785571 C 554.24712,41.346981 555.55934,41.614451 559.62066,43.994551 C 565.26301,47.301181 565.03081,49.147551 559.01801,48.786641 C 550.01846,48.246471 548.21412,49.101191 545.52691,55.177461 L 543.09197,60.683291 L 543.09408,121.68937 C 543.09608,179.63435 543.19236,182.91285 545.0128,187.02826 L 546.92941,191.36108 L 541.51003,199.45569 C 535.05673,209.0946 536.80704,208.87812 529.34016,200.96085 z M 27.625569,158.38331 C 34.376489,154.64951 35.879819,150.07534 31.490709,146.62287 C 25.527369,141.93211 15.875549,147.30153 20.695949,152.62808 C 23.381949,155.596 21.591449,156.1071 18.686149,153.20181 C 13.104249,147.61984 22.354549,140.53 30.680579,144.00883 C 38.805429,147.40361 36.531699,159.64207 27.798849,159.51988 C 25.671089,159.49011 25.667459,159.4663 27.625569,158.38331 z M 23.247349,152.37371 C 21.750949,149.97749 24.027649,147.18453 26.999039,147.77139 C 29.818929,148.32832 30.752839,151.3669 28.603489,152.99159 C 25.895789,155.03832 24.835019,154.91595 23.247349,152.37371 z M 861.11514,145.74293 C 858.27402,143.44233 860.77611,140.0122 864.48094,141.12874 C 868.15688,142.23658 868.65571,143.40773 866.36187,145.54477 C 863.74802,147.97994 863.87195,147.97526 861.11514,145.74293 z M 420.25166,72.800291 C 419.19865,70.737791 416.49358,67.569861 414.24039,65.760441 C 408.93635,61.501061 408.32202,58.878301 411.2535,53.008591 C 415.9486,43.607571 423.31438,39.812691 423.95075,46.466921 C 424.1367,48.411351 425.74227,51.787601 427.70075,54.352541 C 432.78974,61.017391 431.46729,72.156311 425.18805,75.516851 C 422.44051,76.987291 422.36933,76.948111 420.25166,72.800291 z"
     id="path3315"
     style="fill:#000000" />
</svg>
