<?xml version="1.0" encoding="UTF-8" standalone="no"?>
<svg
   xmlns:dc="http://purl.org/dc/elements/1.1/"
   xmlns:cc="http://creativecommons.org/ns#"
   xmlns:rdf="http://www.w3.org/1999/02/22-rdf-syntax-ns#"
   xmlns:svg="http://www.w3.org/2000/svg"
   xmlns="http://www.w3.org/2000/svg"
   xmlns:sodipodi="http://sodipodi.sourceforge.net/DTD/sodipodi-0.dtd"
   xmlns:inkscape="http://www.inkscape.org/namespaces/inkscape"
   width="1529"
   height="412"
   id="svg2"
   version="1.1"
   inkscape:version="0.48.5 r10040"
   sodipodi:docname="Maneskin.svg">
  <metadata
     id="metadata20">
    <rdf:RDF>
      <cc:Work
         rdf:about="">
        <dc:format>image/svg+xml</dc:format>
        <dc:type
           rdf:resource="http://purl.org/dc/dcmitype/StillImage" />
      </cc:Work>
    </rdf:RDF>
  </metadata>
  <defs
     id="defs18" />
  <sodipodi:namedview
     pagecolor="#ffffff"
     bordercolor="#666666"
     borderopacity="1"
     objecttolerance="10"
     gridtolerance="10"
     guidetolerance="10"
     inkscape:pageopacity="0"
     inkscape:pageshadow="2"
     inkscape:window-width="1536"
     inkscape:window-height="801"
     id="namedview16"
     showgrid="false"
     inkscape:zoom="0.39333333"
     inkscape:cx="250"
     inkscape:cy="-5.0847458"
     inkscape:window-x="-8"
     inkscape:window-y="-8"
     inkscape:window-maximized="1"
     inkscape:current-layer="g3026" />
  <g
     id="g3026"
     transform="translate(-17.79661,493.35593)">
    <path
       style="fill:#030303"
       d="m 465.64682,-84.442215 c 6.24694,-2.821022 18.0412,-13.818039 25.11761,-23.419755 4.80251,-6.51637 8.56257,-12.98878 7.54564,-12.98878 -0.29923,0 -2.73345,1.14381 -5.40935,2.5418 -7.10788,3.71342 -10.75884,4.0001 -16.08341,1.26285 -10.64451,-5.47211 -18.40937,-23.90004 -23.91614,-56.75889 -7.09165,-42.31587 -9.44938,-90.54129 -8.86578,-181.34329 0.38807,-60.38341 0.49083,-63.25751 2.52452,-70.60807 2.49591,-9.02122 5.13081,-14.4819 9.24929,-19.16856 1.64661,-1.87379 2.99384,-3.68473 2.99384,-4.02434 0,-0.33959 -6.97496,-0.61744 -15.49991,-0.61744 -16.53407,0 -17.9688,-0.49309 -13.35869,-4.59105 3.18739,-2.8333 5.81195,-9.30797 5.83677,-14.39914 0.0671,-13.75331 -8.86528,-23.63235 -22.34527,-24.71347 -14.20322,-1.13911 -25.63248,9.2245 -25.63248,23.24256 0,6.07343 1.73488,11.12175 5.53091,16.09432 1.35797,1.77887 2.46904,3.48912 2.46904,3.80055 0,0.31142 -9.22494,0.56623 -20.49988,0.56623 -12.09017,0 -20.49987,0.38429 -20.49987,0.93678 0,0.51522 2.26128,2.16647 5.02508,3.66942 5.27264,2.86727 8.30714,6.74484 9.42855,12.04807 1.55623,7.35956 -8.3887,29.74263 -25.72445,57.89804 -40.56328,65.87981 -64.6779,124.03897 -72.33083,174.44601 -1.14664,7.55253 -1.44555,15.17863 -1.1273,28.76165 0.3874,16.53506 0.75111,19.69554 3.44942,29.9741 4.10939,15.65367 7.56392,24.00859 13.89811,33.61298 9.25589,14.034544 20.01938,22.056352 32.73681,24.398069 18.08936,3.330881 35.90181,-9.108 51.19322,-35.749519 1.01538,-1.76905 1.60873,-3.45366 1.31856,-3.74358 -0.29017,-0.28992 -4.00321,1.26988 -8.25119,3.46623 -6.25364,3.23335 -8.76626,3.99337 -13.20189,3.99337 -5.71166,0 -11.46843,-1.86333 -14.78022,-4.784 -6.5665,-5.79099 -13.21954,-21.24446 -17.30742,-40.20106 -2.51182,-11.64801 -2.49615,-45.2587 0.0291,-62.42212 2.32521,-15.80381 6.09986,-35.17599 9.70586,-49.81221 5.55673,-22.55399 5.5877,-22.60566 7.87097,-13.1334 0.66232,2.74763 2.60777,7.18951 4.32322,9.87086 3.18553,4.97916 10.30075,11.00333 11.85938,10.04087 0.47581,-0.29382 -0.22033,-2.67442 -1.547,-5.29023 -6.66409,-13.13968 -4.88605,-29.78692 4.09042,-38.29743 3.85,-3.65013 10.85472,-6.60569 17.50708,-7.38687 16.16065,-1.89774 29.84499,10.30164 35.46352,31.61521 1.47641,5.60067 1.78505,14.91923 2.3643,71.38543 0.61741,60.18329 0.82147,65.78614 2.78385,76.43395 3.74364,20.31297 7.92696,31.06903 16.51768,42.469945 10.47541,13.902116 21.47097,17.281027 35.54832,10.92391 z M 343.80372,-323.09977 c 0,-1.80162 25.34022,-59.04746 39.37958,-88.96203 9.74577,-20.76594 7.24872,-18.9619 26.76254,-19.33511 15.66482,-0.29961 16.51983,-0.21578 18.34433,1.79854 1.68166,1.85663 1.76212,2.50044 0.66358,5.30993 -6.89759,17.64041 -11.37432,38.44093 -14.23534,66.14275 -2.95498,28.61145 -2.93552,28.47539 -4.07291,28.47539 -0.5694,0 -3.0748,-1.79372 -5.56754,-3.98605 -2.49276,-2.19233 -7.06178,-5.22721 -10.15339,-6.74417 -4.71504,-2.31354 -6.91064,-2.75812 -13.62107,-2.75812 -10.68691,0 -18.06421,3.43342 -28.64406,13.33104 -6.95062,6.50242 -8.85572,7.94976 -8.85572,6.72783 z m 62.07071,-135.21092 c -4.97862,-2.53649 -7.40436,-6.34374 -7.40436,-11.62128 0,-9.90048 9.86325,-16.29258 18.68567,-12.10966 10.27494,4.87161 10.03139,19.71447 -0.39189,23.88146 -5.07276,2.02798 -6.65641,2.00609 -10.88942,-0.15052 z M 69.227054,-84.283602 c 9.491354,-5.557528 17.185058,-21.934318 22.593876,-48.093238 1.132143,-5.47544 7.670144,-48.84674 14.52889,-96.38066 6.85874,-47.53393 12.71693,-87.50198 13.0182,-88.81789 1.25649,-5.48841 3.21958,1.01291 10.86697,35.9891 9.34539,42.74213 13.72004,73.29572 13.93002,97.29036 0.16092,18.38787 -1.05276,24.9199 -5.58941,30.08244 -2.62367,2.98562 -3.56016,3.38864 -7.8742,3.38864 -2.69302,0 -4.89638,0.38439 -4.89638,0.8542 0,1.5601 10.58079,10.88119 14.78345,13.02338 2.73528,1.39424 6.01356,2.10861 9.67656,2.10861 5.10666,0 5.84492,-0.30485 9.44207,-3.89891 8.17554,-8.16854 12.50474,-21.21562 17.10606,-51.55317 10.61361,-69.97791 21.80177,-119.15947 30.46862,-133.93566 2.77465,-4.73051 3.93854,-5.40869 4.91573,-2.86434 0.33385,0.86923 0.6148,49.98928 0.62435,109.15567 0.0187,115.83642 0.0276,116.05058 5.19425,125.286836 3.70772,6.628143 8.79582,10.065003 15.63218,10.559076 6.89613,0.498389 11.83277,-1.611008 18.81107,-8.037875 7.29478,-6.718324 23.37795,-32.241677 21.86146,-34.693277 -0.30542,-0.49378 -2.5908,-0.19872 -5.11392,0.66026 -5.53893,1.88569 -12.57755,1.29229 -16.26688,-1.37138 -1.44966,-1.04664 -3.98573,-4.58057 -5.63572,-7.85317 l -2.99999,-5.95018 -0.33795,-41.96374 c -0.43713,-54.27826 2.1059,-99.54401 7.94262,-141.37782 6.76708,-48.50203 17.72359,-74.9294 33.86655,-81.68691 7.9426,-3.3248 18.12204,0.5752 24.27826,9.30161 1.72431,2.4442 3.55034,4.44401 4.05783,4.44401 0.53623,0 0.63523,-2.40641 0.23639,-5.74504 -3.16087,-26.45856 -16.28266,-44.37521 -37.48913,-51.18816 -31.24967,-10.0395 -61.52618,21.05387 -80.24612,82.41118 -9.68102,31.73088 -23.23286,92.65871 -30.39703,136.66212 -1.70261,10.45772 -3.13378,16.63113 -3.80382,16.40798 -3.49322,-1.16341 -23.70389,-85.75099 -29.76964,-124.59471 -2.9243,-18.72646 -3.16866,-50.1856 -0.50448,-64.94388 3.20897,-17.7761 7.95982,-28.0073 14.59772,-31.43695 3.70166,-1.91256 11.74999,-1.9317 15.06929,-0.0359 3.2286,1.84406 3.99998,1.83975 3.99998,-0.0223 0,-2.71711 -8.07161,-10.35677 -13.85706,-13.1155 -4.87571,-2.32492 -6.9343,-2.69544 -15.14277,-2.72549 -13.3147,-0.0488 -21.55494,2.92472 -34.49979,12.44911 -7.587607,5.58271 -21.533194,20.4493 -27.439789,29.25198 -8.281531,12.3421 -20.486728,38.51314 -18.763869,40.23452 0.340698,0.34041 2.100958,-0.62917 3.911677,-2.15464 6.76702,-5.70098 14.803752,-7.0327 21.581942,-3.57621 11.147483,5.68456 13.286991,16.31443 9.174445,45.58213 -5.264979,37.46917 -29.646484,141.04722 -41.154575,174.83379 -4.545973,13.3465 -11.250143,26.8284 -14.843142,29.84911 -3.551109,2.9855 -8.895987,3.44888 -12.966213,1.12412 -5.220539,-2.98177 -5.319608,-0.96659 -0.430927,8.76607 7.606115,15.142698 15.846596,24.043397 26.197824,28.296731 7.876063,3.236284 16.131624,3.237782 21.654521,0.004 z m 695.471056,0.863064 c 11.20673,-2.639389 19.50324,-7.747365 30.68257,-18.890552 11.98638,-11.94762 18.07702,-20.89802 27.91383,-41.02023 7.34873,-15.03258 15.07393,-35.26656 14.32343,-37.51615 -0.22056,-0.6611 -2.58594,2.56385 -5.25639,7.16657 -10.00452,17.24347 -20.68276,28.33275 -33.259,34.53921 -7.70303,3.8015 -7.71345,3.80344 -20.25416,3.77424 -14.63858,-0.0341 -19.39633,-1.46989 -31.35074,-9.46117 -23.50327,-15.71146 -40.98195,-43.3699 -50.19735,-79.43277 -4.54065,-17.76906 -5.77005,-29.08492 -5.35253,-49.26678 0.4541,-21.95038 0.0568,-21.42667 12.92902,-17.04123 10.99218,3.74492 25.40661,4.94217 34.83681,2.8935 14.74146,-3.20251 29.85149,-14.40593 40.12233,-29.74894 6.45868,-9.64826 6.39407,-11.42216 -0.22561,-6.1941 -10.24191,8.08882 -21.19913,11.89074 -34.34888,11.91833 -31.2475,0.0655 -51.08954,-24.53398 -49.14837,-60.93256 1.14926,-21.54956 9.31576,-37.08751 24.90741,-47.38997 26.2152,-17.32215 66.9644,-11.31368 76.51135,11.28161 2.34212,5.5432 1.9012,15.32477 -1.11323,24.69663 -4.97998,15.48275 -15.37891,27.43447 -29.74974,34.19205 -4.32393,2.03324 -7.86302,4.034 -7.86465,4.44615 -0.009,2.29571 21.27969,-1.10392 30.91037,-4.93612 25.21111,-10.0319 42.68401,-34.63302 42.44301,-59.75798 -0.1497,-15.6064 -6.84484,-25.83466 -21.44249,-32.75801 -14.16519,-6.71823 -14.02498,-6.70788 -90.86102,-6.70788 -37.9787,0 -69.05218,0.24019 -69.05218,0.53376 0,0.29357 2.81248,3.16534 6.24996,6.3817 6.18881,5.79073 14.24339,17.90946 16.65378,25.05691 4.01558,11.90728 3.36009,35.62355 -2.4163,87.42445 -5.37008,48.15725 -6.49367,60.62162 -7.16022,79.43136 -1.97958,55.86183 14.35153,113.89291 40.6301,144.37524 16.63052,19.290898 39.03394,27.866228 59.93889,22.942732 z m 325.64639,-1.044987 c 4.7763,-1.993957 12.5361,-9.301992 16.6065,-15.639635 3.5788,-5.5723 9.9914,-20.70493 9.2689,-21.873 -0.253,-0.40892 -2.9718,0.57669 -6.0419,2.19023 -13.9494,7.33154 -23.5215,1.37927 -27.8633,-17.32654 -2.8603,-12.32269 -2.8987,-60.17023 -0.048,-60.17023 0.9443,0 7.4009,10.43431 30.3047,48.97426 18.0052,30.29708 31.0901,45.97562 47.2133,56.57164 21.3031,14.000162 41.8315,10.876721 56.7172,-8.62965 6.0495,-7.92741 10.8445,-18.06433 12.8899,-27.24985 3.0091,-13.51358 0.7429,-37.95929 -4.6985,-50.68281 -1.206,-2.81992 -1.3196,-2.46495 -1.9195,5.99482 -0.8872,12.5116 -4.5682,19.01905 -13.4749,23.821 -3.4362,1.85262 -5.6208,2.15656 -15.4999,2.15656 -10.9175,0 -11.8501,-0.16569 -18.4147,-3.27174 -20.7865,-9.83526 -42.3995,-32.21696 -67.2726,-69.66524 -9.6827,-14.57764 -15.3124,-24.12131 -15.3124,-25.95775 0,-0.75451 2.5875,-2.83056 5.75,-4.61342 20.5682,-11.59544 48.4569,-32.02883 68.0784,-49.87943 37.8602,-34.44333 62.4343,-78.12309 58.4437,-103.88221 -4.0525,-26.15929 -27.47,-40.74006 -72.2265,-44.97152 -5.7498,-0.5436 -10.8312,-0.61165 -11.2921,-0.1512 -0.4608,0.46043 2.0338,2.24965 5.5436,3.97604 11.2034,5.51067 19.3726,16.16767 23.3698,30.48668 2.1109,7.56163 2.8737,28.98317 1.3648,38.32851 -4.8829,30.24364 -28.2595,64.34475 -65.4626,95.49522 -15.226,12.74897 -29.4597,22.14543 -31.0853,20.52121 -0.2011,-0.20091 0.4806,-5.3944 1.5149,-11.54109 7.3999,-43.97804 10.9985,-123.66003 6.6998,-148.34908 -3.4045,-19.55302 -11.4509,-29.76294 -23.4561,-29.76294 -14.3336,0 -28.1457,8.93284 -35.1002,22.7008 -3.1774,6.2903 -6.4504,16.29014 -5.6076,17.13228 0.29,0.28979 1.8204,-0.23628 3.4009,-1.16906 4.1501,-2.44944 6.5438,-2.10359 9.4674,1.36788 2.7864,3.30855 4.9189,9.64532 6.7028,19.91629 0.764,4.39891 1.3705,45.18008 1.8796,126.39078 0.735,117.23296 0.9639,125.20278 4.0996,142.75211 1.1645,6.5172 5.3356,18.71177 7.7272,22.591311 2.3466,3.806491 7.3234,8.911689 10.7695,11.047463 7.6852,4.763074 18.8768,5.747314 26.9636,2.371311 z m 190.2192,0.602799 c 8.5414,-3.873582 21.0603,-18.616624 28.6224,-33.707624 3.8515,-7.68602 3.6362,-8.38853 -2.047,-6.67959 -12.4569,3.74575 -20.0999,-0.31234 -23.7561,-12.61322 -1.4015,-4.71547 -1.5828,-17.06874 -1.5674,-106.81295 0.018,-107.82849 0.047,-108.5507 4.7812,-119.24295 1.052,-2.37622 3.4067,-6.02059 5.2328,-8.09862 4.4407,-5.05328 3.3721,-5.5777 -11.4038,-5.59674 -10.4388,-0.0135 -11.7221,-0.19626 -10.6275,-1.51401 0.6847,-0.82428 1.7144,-1.4987 2.2884,-1.4987 2.5167,0 15.7941,-9.39781 21.0381,-14.89075 14.573,-15.26519 16.844,-35.94711 5.2224,-47.55884 -13.1548,-13.14356 -36.4919,-8.12153 -49.8699,10.73181 -5.0154,7.06804 -9.6789,15.88222 -9.6789,18.2934 0,1.08467 1.7994,0.009 5.5017,-3.2875 7.1674,-6.3827 13.6453,-9.54956 20.5679,-10.055 4.7843,-0.34932 5.9657,-0.0663 8.3783,2.00725 3.5642,3.06314 4.4035,9.79983 2.2467,18.033 -3.9202,14.96444 -15.4088,25.67679 -30.8721,28.78598 -8.3865,1.68628 -8.2486,1.52442 -4.8734,5.721 4.2796,5.32081 6.7634,13.12269 7.9949,25.11294 0.674,6.56251 1.056,50.91488 1.056,122.62043 0,120.2778 0.049,121.57588 4.9845,131.188725 5.1187,9.970584 16.3771,13.780102 26.7808,9.061959 z m 72.7341,-0.939348 c 6.0958,-3.534246 12.823,-10.405498 18.6636,-19.063356 5.5314,-8.19928 11.4924,-19.66018 10.6587,-20.49308 -0.3492,-0.34895 -2.3647,-0.15458 -4.4787,0.43195 -2.1141,0.58651 -6.2592,1.0689 -9.2113,1.07196 -4.8796,0.005 -5.7112,-0.33761 -9.1452,-3.76871 -7.1811,-7.175 -6.9871,-4.49839 -6.9871,-96.37969 0,-49.67503 0.3622,-81.58318 0.9221,-81.23743 0.5071,0.31316 1.9165,3.59938 3.1321,7.3027 10.6525,32.45418 32.0927,77.93133 55.2249,117.13792 25.4019,43.05349 51.848,76.82508 69.5502,88.815338 10.0343,6.796547 14.6028,8.481261 23.1698,8.544357 12.4028,0.09132 22.1691,-5.766087 31.4734,-18.876535 5.1622,-7.274 10.5263,-17.71551 10.5263,-20.49005 0,-2.01008 0,-2.01012 -3.25,-0.0323 -4.7314,2.88239 -10.8381,2.62485 -14.6976,-0.61982 -7.3953,-6.21749 -15.9882,-30.14652 -28.4843,-79.32206 -19.8486,-78.1095 -28.8031,-123.33915 -28.9788,-146.37351 -0.072,-9.49305 0.2143,-11.54792 2.1047,-15.08165 6.4704,-12.09513 18.7942,-14.67055 29.6226,-6.19045 2.0989,1.64377 4.1089,2.69615 4.4668,2.33863 1.8325,-1.83091 -9.8789,-27.05864 -18.606,-40.07958 -13.0487,-19.46864 -33.3195,-36.15534 -49.0398,-40.36863 -4.9069,-1.31518 -17.2511,-1.59698 -22.3041,-0.50917 -6.506,1.40055 -13.2332,5.91788 -17.5826,11.80659 -3.5322,4.78233 -2.9341,5.86804 2,3.63031 5.3541,-2.42827 9.1289,-2.43601 14.4338,-0.0296 10.3483,4.69427 13.2327,14.2842 30.8193,102.46799 14.0837,70.61907 21.227,116.76554 22.194,143.3761 0.5384,14.81479 0.4697,15.59498 -1.5822,17.98446 l -2.145,2.49784 -5.1208,-5.49525 c -11.9839,-12.86037 -41.3155,-54.76405 -54.9009,-78.43222 -13.4267,-23.39178 -25.9246,-51.50308 -32.4278,-72.9392 -8.7653,-28.89296 -11.8703,-70.42747 -7.0141,-93.82436 2.2474,-10.82758 4.8142,-17.27549 9.5865,-24.08253 4.7186,-6.73011 4.3168,-7.46016 -4.0926,-7.43638 -14.454,0.0409 -25.1817,3.08984 -32.1569,9.13949 -8.0551,6.98625 -14.4571,20.1838 -17.8511,36.79935 -2.1273,10.41504 -2.1372,11.15529 -2.0296,151.34449 0.1176,153.189323 -0.033,148.95801 5.6816,159.449004 3.7434,6.872011 8.8821,9.885717 16.8561,9.885827 4.8059,6e-5 6.9951,-0.576852 11,-2.898825 z m -702.20645,0.432616 c 9.55748,-2.487271 17.99306,-9.229974 25.32247,-20.240662 4.29221,-6.44801 9.84152,-18.11869 9.01022,-18.94927 -0.33678,-0.33649 -2.97706,0.68332 -5.8673,2.26625 -4.1518,2.27387 -6.54819,2.88459 -11.41512,2.90915 -8.43169,0.0426 -13.53835,-3.48183 -18.11215,-12.50017 -4.93288,-9.72634 -6.28308,-18.34825 -6.92141,-44.19761 -0.57125,-23.13308 0.20265,-42.11034 3.69651,-90.64379 5.8297,-80.98085 6.88715,-122.05304 3.66994,-142.54297 -4.8724,-31.03158 -15.27624,-41.5006 -41.1835,-41.44149 -9.10743,0.0208 -12.47864,0.48711 -19.49988,2.69734 -4.66885,1.46971 -10.09398,3.48673 -12.05584,4.48226 -5.61564,2.8496 -15.35516,13.99106 -19.35611,22.14227 -3.57134,7.27595 -7.57669,20.8281 -7.57669,25.63584 0,2.33067 0.45032,2.06762 5.47283,-3.19689 6.26631,-6.56823 10.43666,-8.65462 17.29914,-8.65462 14.87693,0 26.88627,19.99575 32.70415,54.45295 5.04156,29.85933 6.94008,70.74534 6.26828,134.99237 -0.5242,50.13339 -0.89832,55.11352 -4.06244,54.07882 -1.88639,-0.61687 -14.08806,-15.08301 -24.91521,-29.53915 -44.0982,-58.87882 -71.71708,-115.99109 -78.35592,-162.02989 -2.13971,-14.83836 -1.4928,-34.96321 1.49343,-46.45985 4.23519,-16.30497 14.46457,-32.88786 26.09585,-42.3041 3.02498,-2.4489 5.66203,-4.87158 5.86012,-5.38371 0.21857,-0.56508 -9.01997,-0.80134 -23.49986,-0.60095 -22.95503,0.31769 -24.04965,0.42306 -28.85999,2.77861 -11.50629,5.63444 -19.95966,18.18974 -25.25986,37.51706 l -2.73997,9.99137 0,114.9007 c 0,106.85631 0.12518,115.43333 1.78797,122.50824 3.01298,12.8198 7.9076,18.64114 17.06835,20.29999 5.22146,0.94551 13.37679,-3.04654 18.41327,-9.01332 7.40897,-8.77751 21.65132,-35.2921 19.89813,-37.04379 -0.25894,-0.25871 -2.83862,0.23219 -5.73264,1.09089 -9.18116,2.72417 -15.81955,-0.80315 -19.63243,-10.43171 -1.61526,-4.07899 -1.80259,-9.75957 -2.08359,-63.18123 -0.30387,-57.77299 0.0752,-65.25507 2.75849,-54.45295 11.30414,45.50634 51.22476,125.70138 88.35648,177.49601 22.8703,31.90151 41.81527,48.907695 58.6649,52.661222 7.22957,1.610498 6.72927,1.614005 13.28938,-0.09322 z m 306.91453,-1.802282 c 41.28191,-10.927448 67.82002,-40.91672 74.45382,-84.13627 2.2567,-14.70268 1.3443,-37.76502 -2.0044,-50.66203 -4.8691,-18.75239 -13.5149,-33.67791 -26.8277,-46.31277 -12.29392,-11.66803 -21.16378,-16.1958 -68.32739,-34.87884 -30.64393,-12.13905 -42.84212,-17.89884 -54.94087,-25.94215 -24.1776,-16.07343 -32.30894,-37.99562 -23.95776,-64.59045 6.61559,-21.06776 23.00476,-33.90293 46.46303,-36.38751 18.64239,-1.9745 44.22332,7.76149 53.51002,20.36567 6.85833,9.30832 7.88156,13.5676 7.82836,32.58594 -0.0435,15.53668 -0.27823,17.74029 -2.75261,25.83731 -3.08301,10.08865 -6.56001,15.67964 -13.38692,21.5261 -6.0003,5.13858 -4.46727,5.2458 9.28145,0.64913 30.72008,-10.27077 47.99359,-26.36427 51.44119,-47.92717 2.1619,-13.52119 -2.368,-29.55974 -11.73523,-41.54954 -16.66165,-21.32651 -50.87163,-34.36546 -81.65301,-31.12158 -18.20402,1.91841 -32.81179,7.63996 -45.71732,17.90647 -12.01681,9.55952 -19.44743,19.93561 -26.04785,36.37312 -10.54775,26.26785 -10.24509,49.61068 0.89155,68.76256 4.72373,8.12346 16.59186,20.1664 25.77635,26.15602 12.5883,8.2094 30.99127,17.61738 47.64749,24.35837 32.75958,13.25825 49.98345,23.48324 65.45696,38.85868 14.39362,14.3024 21.56806,27.42797 24.32976,44.51123 2.2926,14.18173 0.3772,32.28317 -4.8854,46.16737 -6.21129,16.3875 -22.12957,32.87363 -37.93847,39.29185 -31.70419,12.871517 -64.71515,1.24171 -78.97659,-27.82358 -5.8594,-11.94164 -7.24096,-18.07796 -7.84748,-34.85545 -0.9702,-26.83677 3.58822,-45.42698 14.82382,-60.45472 2.13936,-2.86143 3.88975,-5.41531 3.88975,-5.6753 0,-0.84202 -5.38166,1.04032 -11.00914,3.85068 -13.4649,6.72435 -28.33811,20.43127 -35.271,32.50519 -5.99821,10.44614 -9.69511,25.3234 -9.71245,39.08524 -0.01,7.79452 2.62627,22.11447 5.19771,28.23527 9.85957,23.46887 32.61142,41.100381 60.79482,47.112845 4.54676,0.969982 11.75859,1.290625 23.99986,1.067058 14.95183,-0.273064 18.9131,-0.69368 27.20565,-2.888743 z"
       id="path3028"
       inkscape:connector-curvature="0"
       sodipodi:nodetypes="csssssssssssssssssssssssssssssssssssscsssssssccssssssssssssssssscsssssssssssssssssscssscssssssssssssssssssssssssssssccsssssssssssssssssssscssssssssssssscsssssssssssscssssscsssscssssccsssssssssscscsssssssscscssssscscscccssccsssssccsccscssssssssscsssscssssssccssssssssssssssssssssssssssscsssscsssssssssssssssssssssssssssssssssssssscssss" />
  </g>
</svg>
