<?xml version="1.0" encoding="utf-8"?>
<!-- Generator: Adobe Illustrator 16.0.0, SVG Export Plug-In . SVG Version: 6.00 Build 0)  -->
<!DOCTYPE svg PUBLIC "-//W3C//DTD SVG 1.1//EN" "http://www.w3.org/Graphics/SVG/1.1/DTD/svg11.dtd">
<svg version="1.1" id="Moonspell_Curved_Trident" xmlns="http://www.w3.org/2000/svg" xmlns:xlink="http://www.w3.org/1999/xlink"
	 x="0px" y="0px" width="841.89px" height="967.55px" viewBox="0 0 841.89 967.55" enable-background="new 0 0 841.89 967.55"
	 xml:space="preserve">
<metadata><?xpacket begin="﻿" id="W5M0MpCehiHzreSzNTczkc9d"?>
<x:xmpmeta xmlns:x="adobe:ns:meta/" x:xmptk="Adobe XMP Core 5.3-c011 66.145661, 2012/02/06-14:56:27        ">
   <rdf:RDF xmlns:rdf="http://www.w3.org/1999/02/22-rdf-syntax-ns#">
      <rdf:Description rdf:about=""
            xmlns:xmp="http://ns.adobe.com/xap/1.0/"
            xmlns:xmpGImg="http://ns.adobe.com/xap/1.0/g/img/">
         <xmp:CreatorTool>Adobe Illustrator CS6 (Windows)</xmp:CreatorTool>
         <xmp:CreateDate>2013-09-01T02:20:05+02:00</xmp:CreateDate>
         <xmp:ModifyDate>2013-09-01T02:20:11+02:00</xmp:ModifyDate>
         <xmp:MetadataDate>2013-09-01T02:20:11+02:00</xmp:MetadataDate>
         <xmp:Thumbnails>
            <rdf:Alt>
               <rdf:li rdf:parseType="Resource">
                  <xmpGImg:width>224</xmpGImg:width>
                  <xmpGImg:height>256</xmpGImg:height>
                  <xmpGImg:format>JPEG</xmpGImg:format>
                  <xmpGImg:image>/9j/4AAQSkZJRgABAgEASABIAAD/7QAsUGhvdG9zaG9wIDMuMAA4QklNA+0AAAAAABAASAAAAAEA&#xA;AQBIAAAAAQAB/+4ADkFkb2JlAGTAAAAAAf/bAIQABgQEBAUEBgUFBgkGBQYJCwgGBggLDAoKCwoK&#xA;DBAMDAwMDAwQDA4PEA8ODBMTFBQTExwbGxscHx8fHx8fHx8fHwEHBwcNDA0YEBAYGhURFRofHx8f&#xA;Hx8fHx8fHx8fHx8fHx8fHx8fHx8fHx8fHx8fHx8fHx8fHx8fHx8fHx8fHx8f/8AAEQgBAADgAwER&#xA;AAIRAQMRAf/EAaIAAAAHAQEBAQEAAAAAAAAAAAQFAwIGAQAHCAkKCwEAAgIDAQEBAQEAAAAAAAAA&#xA;AQACAwQFBgcICQoLEAACAQMDAgQCBgcDBAIGAnMBAgMRBAAFIRIxQVEGE2EicYEUMpGhBxWxQiPB&#xA;UtHhMxZi8CRygvElQzRTkqKyY3PCNUQnk6OzNhdUZHTD0uIIJoMJChgZhJRFRqS0VtNVKBry4/PE&#xA;1OT0ZXWFlaW1xdXl9WZ2hpamtsbW5vY3R1dnd4eXp7fH1+f3OEhYaHiImKi4yNjo+Ck5SVlpeYmZ&#xA;qbnJ2en5KjpKWmp6ipqqusra6voRAAICAQIDBQUEBQYECAMDbQEAAhEDBCESMUEFURNhIgZxgZEy&#xA;obHwFMHR4SNCFVJicvEzJDRDghaSUyWiY7LCB3PSNeJEgxdUkwgJChgZJjZFGidkdFU38qOzwygp&#xA;0+PzhJSktMTU5PRldYWVpbXF1eX1RlZmdoaWprbG1ub2R1dnd4eXp7fH1+f3OEhYaHiImKi4yNjo&#xA;+DlJWWl5iZmpucnZ6fkqOkpaanqKmqq6ytrq+v/aAAwDAQACEQMRAD8A9U4q7FXYq7FXYq7FXYq7&#xA;FXYq7FXkX5zf85GeWPy89TS7RV1fzRxBGno/GODkKhrmQV47bhB8R9ga4q+R/OP57fmn5supJdQ1&#xA;64tbZ68dPsHe1tlX+XhGQX+chY++KsKl1XU5g4mvJ5BJXmHkduVetanfFUMCQQQaEbgjrXFWRaL+&#xA;Y/n/AERlOk+Y9Rs1U1EUV1KIz84+XA/SMVep+Tf+cwfzM0eSOPXkt/MVkCOfqottc8fBZYVCfS8b&#xA;Yq+mfyz/AD6/L/8AMBVt9OuzZayRVtIveMc5p1MRBKSj/UNfEDFXouKuxV2KuxV2KuxV2KuxV2Ku&#xA;xV2KuxV2KuxV2KuxV2KuxV2KuxV4n/zkl+eY8haOuhaHID5r1SMlJBQ/U7c1X1yP9+MaiMexY9AG&#xA;VfDlzc3F1cS3NzK89xMxkmmkYu7uxqzMzVJJPUnFVLFXs/5V/wDOL3njzrFFqepH/D2gygPFc3MZ&#xA;a4mUgEGG3JQ8WHR2IHccsVfR/lT/AJxW/KDQPTluNOk1u7QbzalIZEJ7/uEEcJHsynFXoNv5D8jW&#xA;0Rit/LumQxMoVo47O3VSoFACAgFKYqk+tfkr+U+tRGO/8qab8QoZLeBbWXpT+9t/Sf8A4bFXiX5h&#xA;f84bpEG1T8u9SkhvIW9WPSryT9pTUehdDiyMKfDzrv8AtDFU+/In889dfWP+Vc/mUj2Pmm2Ih0+8&#xA;ugUkuWHSGauxlI+w/SQf5W7KvoTFXYq7FXYq7FXYq7FXYq7FXYq7FXYq7FXYq7FXYq7FXYqkPnrz&#xA;lpXkzynqPmTUyTa6fFzESkBpZGIWOJK/tO5C/jir84vOHmvVvNnmbUPMOrPzvtRlMsgFeKL0SNK/&#xA;sxoAq+wxVK7W1ubu5itbWJ57md1iggjUs7u54qqqNyzE0AGKvsj8h/8AnF/T/L0Vv5j87W8d75gN&#xA;JLXS34yW9p3Uv1WSX/hV7VO+KvofFXYq7FXYq7FWLeb/AMsPI/m+9sL/AF3TEuNQ02RJLO9RminT&#xA;025qpkjKsyBt+LVFcVZTirsVdirsVdirsVdirsVdirsVdirsVdirsVdirsVdirsVfJP/ADmh+YJu&#xA;NS03yLZy1isgNQ1UL/v+RStvGfDjGzOR/lrir5hxV9f/APOKP5I22n6Zb/mDr0Ik1K+TloVvIoIg&#xA;t26XO/8AuyUfY8E/1tlX0rirsVdirsVdirsVdirsVdirsVdirsVdirsVdirsVdirsVdirsVdirsV&#xA;dirsVdir83vznvpb782vN88hJZdWvIFJNfhgmaFN/wDVjGKsMxV+ovl+2gtdB022gQRwQWsEcUY6&#xA;KiRqqgfIDFUfirsVfFv54f8AOTvmrVtevdE8m6g+l+X7ORoBfWrcLi6ZCVaQTL8SRk/Y4EEjc+AV&#xA;eQaf+Y/5gafd/W7LzJqcFwTyaRbuf4iP5wWo3+yxV9GfkV/zlTq+qa3ZeVfPPpzSX7rb2GtxqIm9&#xA;ZzxjjuI1AQ82+EOoFD1BrUKvqXFXYq7FXYq7FXYq7FXYq7FXYq7FXYq7FXYq7FXYq7FXYq7FXYq/&#xA;MTzpM8/nHXZ3pzl1G7dqdKtO5NMVSbFX6jaFMk+iafMn2JbaF1rsaNGCMVR2KsN/OTzJc+W/yv8A&#xA;MmsWtfrVvZOluw6rJORCj/7BpA30Yq/N3FXYqiNPuHtr+2uYwxeCVJECmjVRgwoR32xV+pmKuxV2&#xA;KuxV2KuxV2KuxV2KuxV2KuxV2KuxV2KuxV2KuxV2KuxV+YfnKGSHzfrkMq8ZYtQukdfBlnYEbYqk&#xA;+Kv0l/KDWk1r8rvK2oq3NpNNto5mqT+9hjEMvWp/vEbFWX4qkfnjytbea/KGr+XLlvTj1O2kgEtK&#xA;+m5FY5Kd+DgNT2xV+b3mvyrrnlXXrvQtctmtdRs34yIfssP2XRv2kcbqw6jFUoxV6n/zj5+U+q+e&#xA;vO1lcNbsPLmkzx3Gq3bqfTb0iHW2U9GeWgBHZanwqq/QHFXYq7FXYq7FXYq7FXYq7FXYq7FXYq7F&#xA;XYq7FXYq7FXYq7FXYq/Pn/nJLyxL5f8Azi19CnGDU5Rqls38y3fxyH6JvUX6MVeY4q+v/wDnC/z9&#xA;Hd6BqPki6l/0rTXa+05D3tpmAmVf+Mcx5H/XxV9K4q7FWM+d/wAtfJHne0W38zaVFfGMEQXHxRzx&#xA;V/33NGVkUV341oe4xV5zZf8AOIP5O214txJDf3caty+qzXVIjvWh9NY5Kf7LFXr+jaLpGiabDpmk&#xA;WcNhp9uvGG2t0EaKPkO56k9TiqNxV2KvM/Mf5yQWv5saB+XOiQR6hqN7Iz63KSSLSARNLxHEj96V&#xA;Xma9Fpt8Wyr0zFXYq7FXYq7FXYq7FXYq7FXYq7FXYq7FXYq7FXYq7FXjf/OSn5MT/mD5ch1DRkU+&#xA;ZtGDm1jNF+swPu9uWNAGqOUZO1aj9quKvhW7s7uzupbS7he3uoGMc0EqlHR1NCrK1CCPfFU08m+b&#xA;dY8o+ZbDzDo8vp31hIHQGvF1OzxuB1V1JVsVfoV+V/5n+XPzD8txavpMqpcqqrqOmlgZrWYjdHGx&#xA;Kmh4PSjD6QFWYYq7FXYq7FXYq8o/P787rH8uNA+rWTJP5r1GNhptsaMIV+ybmUb/AAqfsqftNt0D&#xA;UVYB/wA4h+QdQcar+ZWvepLqGsNJBp809S8iM/O5uST19WQBQ3+S3jir6WxV2KuxV2KuxV2KuxV2&#xA;KuxV2KuxV2KuxV2KuxV2KuxV2KvJPz+/I7SfP+gT6jYW6Q+b7GIvY3SAK1wEFfq0xA+INSiE/Zb2&#xA;qCq+ByCCQRQjYg9a4qn3knzz5m8la7Frfl68a1vI/hkX7UUsZNTHKnR0NOn0ih3xV9dfl7/zl95D&#xA;1u3it/NSt5d1SgDyFXms3bpVJEDOlfB1oP5jir2jQ/M/lvX7f6xoeqWmpwUqZLSeOYD58C1PpxVM&#xA;8VSrzB5r8s+XLX61r2q2umQfsvdTJFy9lDEFj7DFXgP5lf8AOZGgWMM1h5Etm1O+IKrqt0rRWsZ6&#xA;ckiakkp/1go+fTFXln5Oflb5m/OXzlc+Z/NdzPPokMwfVdQlYh7mQbrawnoABTlx2RNhT4cVfcNn&#xA;aWtlaQ2dpEsFrbosUEEYCoiIOKqoHQACmKquKuxV2KuxV2KuxV2KuxV2KuxV2KuxV2KuxV2KuxV2&#xA;KuxV2Kvzd/OPSodK/NXzXZQKFhTU7l4kXoqyyGRVGw+yHpirDcVdiqpBcXFvKs1vK8MybpJGxVgf&#xA;YihxVPYvzE/MCGEwQ+ZtWjhYANEl9cqpC7gcQ9NsVSO5urq6mae6meeZvtSysXY/NmJOKozy7BpF&#xA;x5g0yDWZnt9Imu4E1GeOnOO2aRRK61qKqlSMVfpj5c8v6L5e0Oz0bRbdLXS7KMR20KbgL1JJNSzM&#xA;TyZjuTviqZYq7FXYq7FXYq7FXYq7FXYq7FXYq7FXYq7FXYq7FXYq7FXYq7FX51/n9/5OTzZ/zHN/&#xA;xFcVef4q+odL/wCcU/I+ufllp3mrTdfv7a8utLjv5/XEM1uJfR9SVAiJE6qrgr9piPfFXy9ir1v/&#xA;AJxw/Kny5+Y3mvULDX57iO00+z+tJDausbyOZVT4mZX+ABjWlDWm+KvS/wDnI/8A5x88j+Vfy7j8&#xA;w+U7B7KfTbmNNQLTSzCWC4PpBm9VnoyylAONBufbFXyzir9FfyE8ySeYvyh8s6jM3O4S1+qTsTVi&#xA;9m7W3JvdhFy+nFWf4q7FXYq7FXYq7FXYq7FXYq7FXYq7FXYq7FXYq7FXYq7FXYq7FX55/wDORkKR&#xA;fnX5qRF4g3Mbkb9Xt43J38S2KvN8Vfbv5Fa2Zv8AnGGd3HNtLs9WhYbAkJ6syjv+zIBir4ixV7t/&#xA;zhtfG3/NuaDteaVcwkdqrJDL/wAy8Ve6/wDOWPnLTNE/Ku70aY8tR8xMltZQin2YZElmlb/JVVA/&#xA;1mGKvhTFX6Bf84xaXPp/5J+XUnBWS5W4uuJ7JNcyPH98fE/Tir1LFXYq7FXYq7FXYq7FXYq7FXYq&#xA;7FXYq7FXYq7FXYq7FXYq7FXYq/Pz/nJu5guPzy80SQuHRXtYyR/PFZQRuPoZSMVeXYq+yvyF06e0&#xA;/wCcXdenlBC38GsXENRT4BA0H/EoTir41xV63/zirOI/zx0BKV9aO9jB8KWUz1/4TFVv/OTvnl/N&#xA;P5rajDFJy07Qv9xdovblCT67bfzTFhXwAxV5roWj3eta3p+j2Yrd6jcxWkA7c5nCLWnu2Kv050bS&#xA;rXSNIsdKtBxtNPt4rW3XwjhQRoNv8lcVRmKuxV2KuxV2KuxV2KuxV2KuxV2KuxV2KuxV2KuxV2Ku&#xA;xV2KuxV+X3me/utR8y6tqF03O6u7y4nnfxeSVmY/ecVX+U/Ld/5n8y6Z5fsCq3ep3EdtE8myKXNC&#xA;7U34qNzTFX6B+ZtDtPKf5H63o+nAG30fy7eQwlhTmYbN/jYDu7Dk3ucVfnNir0j/AJx41NNK/NvS&#xA;dUcVSwttUuWG+4h0u6c9P9XFXnlzcz3NxLc3DmSed2klkbqzueTMfmTir2f/AJxF8rxaz+bMd/Og&#xA;eHQrSa+XluPWYrBFt4j1S491xV90Yq7FXYq7FXYq7FXYq7FXYq7FXYq7FXYq7FXYq7FXYq7FXYq7&#xA;FXYq/LbVv+Oref8AGeT/AImcVeh/8402oufzw8rxkKeMtxL8QqP3VpNJ9/wbe+KvuL8y4En/AC58&#xA;1QOSEl0e/RiOtGtZAaYq/M/FWS/l9K8Ou3ciLy/3Da2jV6ASaRdRk/8ADYqxrFX05/zg96P6d811&#xA;p6/1W14ePD1JOX48cVfXGKuxV2KuxV2KtMyqpZiFVRVmOwAHc4q8A8+/85ieTPL+pyad5f06TzK8&#xA;DFJ7tJ1trWo2Iil4TtJTxCcfAnFUV5G/5y+/LvX547PXYJvLV3JsJLhhPaVPb10CsvzeNV98Ve42&#xA;l3a3ltHdWk0dxbTKHhniYPG6noyspII+WKquKuxV2KuxV2KuxV2KuxV2KqV3eWlnbSXV5PHbWsK8&#xA;pp5mWONFHdmYgAfPFVPT9T03UrYXWnXcN7asSFnt5FljJHUBkJGKonFX5lef9Cn0Hzxr2jTA87G/&#xA;uIQx25IsjcH+TpRh88VZ1/ziv6P/ACvPy96lefC99Gn831Gbr/seWKvtv8w/+UA8zf8AbKvv+oZ8&#xA;VfmXir0j8idCl1rzLrlpEpaX/DmsCNRQ/FLaNAux6/FMMVeb4q9S/wCcePzU038uvO02oaukr6Rq&#xA;Fq1pd+god0PNZI5ApK14lKH2JxV9Q2P/ADll+SlzIEl1S4swTQPPaTlf+SSyYqz/AMq/mL5F82VX&#xA;y7rlnqUqrze3hlHrqm3xNC3GRRv1K4qyLFXYq7FXzV+d3njz1+YWvX35Y/llbyXcFiOPma/hdYlL&#xA;E8TbmZ2RVjU1DitXIKjYGqrHfy9/5wv1G5Mlx591E2MNKQWOlyI85P8ANJNIkkageCq1fEYqr+bf&#xA;+cJLxA83lLzAk3UrZ6ohjag/4vhDAn/nkPnirzqLWvzo/IDzBBp006xQXSC5GmSSC6sJ0LFWIVSC&#xA;jcloSvFvoxV9M/lN/wA5JeSfPrw6bOf0J5jkoo064cGOZv8Al2m+EP8A6pAbwB64q9cxV2KuxV2K&#xA;uxV2KuxV2Kvi3/nLL827zXPNMvkrTLhk0PRXCagqN8NxejdudOqwH4Qp/a5Hwoq8n/Ln8yPM3kHz&#xA;DBq+i3LKgZfrtiWPo3MQPxRyr0NR0PVeoxV+j2jaraavpFjq1m3Kz1C3iurZj1Mc6CRD/wAC2Kvj&#xA;D/nMbyqNK/M2DWolpBr9mkrmlP8ASLb9xIP+RYjP04qxj/nGGZIfzz8sO/QtdoKeL2M6D8WxV9xf&#xA;mH/ygHmb/tlX3/UM+KvzLxV9Gf8AOEtgZPPev39KrBpf1cnen7+4jenSn+6MVeR/m35Jm8l/mHrW&#xA;gMhS2gnaWwPZrWb95AQe9EYKf8oEYqw/FXYq9O/5xv0DWNY/OHQP0bJJANOm+v308RpxtoP7xWI/&#xA;ZlqIiO/LFX6DYq7FXnf59fmKfIf5cahqls/DVruljpPiLiYH95/zyRWf5gDvir4z/Jr85dX/AC08&#xA;xXOpQ2q6lZaigj1O0kco7hWLK6S0bi6lj1BBBO3QhV9R/lt/zlT5T87ea7Ty3+i7rS7u+Di0mmeO&#xA;SNpUUv6ZK0K8lU8T47d8Ve24q+HP+cw7zUp/zdMN0jJa2un20dgSKK8Tc5HceP713Wvtirw9WZWD&#xA;KSrKaqw2IIxV+kH5OeaLPzJ+Wnl2/h1BdRu00+2h1OXmHkW7jhVZ1l7h/UB69evfFXz7+Zf/ADmL&#xA;5hh8wXem+SbS0TS7SRoV1K6RppZ2QlTJGoZERCfsghidjt0xV59L/wA5W/ne9wJV1qGNBX9wtlaF&#xA;DXpu0bPt/rYqyzyR/wA5l+dbPU4I/NtpbappLsq3M1tH6F0i9C6cT6TU68Sor4jFX1/pOq6fq+l2&#xA;uqabOtzYXsST2s6fZeOQclP3HFUXiqncXFvbQSXFzKkNvCpeaaRgiIiirMzGgAA6k4qpabqWn6nY&#xA;w3+nXMV5Y3C8oLqB1kikWtOSOpIYbdRirwC5/wCcNPKt3qeq6lf6/qF3LeyTz20QEURWSYsy+rIR&#xA;KZKFtyAtcVfGhBBodiMVfo/+SpJ/KTygSan9E2g38BEAMVeaf85meWP0j+XFlrkaVm0O9X1H/lt7&#xA;sek/3yiLFXzJ+ReoLYfnB5SnZuIbUoYK9P8Aeg+h/wAzMVffX5h/8oB5m/7ZV9/1DPir8y8VfV//&#xA;ADg5YUt/N+oMPtvYwRtQ7cBO7iv+zXFXtf5m/kx5H/MeK3/T8Esd7aApbajaOIrhUJqY+TLIjLXe&#xA;jKaHpSpqq8c8/wD/ADjV+R/kXyZqWuarqWqkxRsLMy3NuJJLgr+6hiVYFVizDupoKnoNlXyRir7v&#xA;/wCcYPyq/wAF+SF1TUIeHmDzAqXF0HFHhtwKwQb9DRub+5ofsjFXsuKuxV8c/wDOa2vapP5y0XQ3&#xA;ieLS7KyN1A5FFlmuJCsjA9DwWJV9jXxxV844qmPlzXLzQdf07W7I0utMuYrqHegLQuHAPsaUOKv0&#xA;40fVLTVtJstVs252eoW8V1bP4xzIJEP0q2KpF58/LTyX5709bLzLpyXYiqba5UmO4hLdTHKtGFaC&#xA;q/ZPcHFXkMv/ADhP+XLTFo9Z1dIiQQhe2Ygdxy9AfqxVmXkH/nGz8uvJGtW+taU+ozalbcvSnuLo&#xA;j7Q4nksCwKwp+ywI9sVfBWrWD6dqt5p7mr2c8sDHxMTlD1p4Yqz7zR+Q/nLRfJlh50tGh1ry5fW0&#xA;V291Y82e3WVA59eJlVlCmqlhUD9qmKvNsVe0fkd/zkhq/wCXsX6F1aCTVvK7MWjgRgLi1ZjVjAW+&#xA;Eqx3MbECu4I3qq9h8x/85q+SLayJ8v6PfajfMDxW79O1hXwLMrTOfkF+kYq+f/Of5t/mf+a+r22j&#xA;3FwxhvZ0hsdBsQY7cySMAgZalpGr+1Ixp2pir7z8neXLfyz5V0ny/bnlFpdpDaiSlObRoAz08Xar&#xA;H54qnGKvzM/MLQp9A89a/o0y8Xsr+4iX/KQSExuK9mQhh88Vfen5BXyXv5N+U5kIISwSA08bdmhP&#xA;4x4qjPzls9Ivfyt8zWerXMVnazWEwSedgiLOil4Nz1PqotANz2xV+c+nX9xp+oWt/bNwubSaOeFv&#xA;B4mDqfvGKv0h83ajb6n+VutalbGtve6Hc3EJ8UltGdfwbFX5q4q+zP8AnCa14/l7rl3QfvdWaLl3&#xA;PpW0LUP/ACNxV9EYq+DP+coPzB1bzN+ZmoaTJIyaR5dlaysbUH4fUSgnmbxZ3FK/ygD5qsC/Le48&#xA;tW3nzQrnzO3HQYLyKW/PFpB6cZ5UZFBLKWADADpir6e/MP8A5zM8u2Mb2nkeybVrw1A1G8V4bVPA&#xA;rEeM0nyPD5nFXi0v/OUv53SagLwa8sag1Folra+hx/loYyxHuWr74q+nvyB/PmH8zLK5stQtVsfM&#xA;emosl1HCSYJomPH1ogxLLRtmUk0qNzXZV6D5t8keU/N+njT/ADLpcGp2qktGJQQ8ZPUxyKVkjJpu&#xA;UYYq8wvf+cQfybuHLQwX9mCahILtiAKdP3yyn8cVfOv/ADkf+Vnkr8utf0rTPLl3eTT3ls91e214&#xA;ySCJOfpwsjokZ+MpJUGvT3xV9Mf84q+Y21r8m9MjkfnNpE0+myN7RsJYh/sYZkGKvXcVdirsVfA/&#xA;/OR35W675T8/6rqv1SR/L2s3Ml7ZX6KTErXDc5IXYbIySMQAeq0OKvQf+cS/zitLYH8uPMMi/VLt&#xA;3bQppacA8u8lo1dqSElkr+0SO6jFV/56f84qakuoy+Yfy8tFns7gl7zQUKo8LnctahqK0Z/33Wqn&#xA;7NRsqrx2x/IX8472YRQ+UtQRj3njFuv/AAcxjX8cVegeWv8AnDT8ytQAk1q8sdEjPWNnN1OD/qw/&#xA;uv8Akpir3j8of+ca/KX5eX/6YkuX1vX1UrBfTRiGOEMKMYYQ0nFmBoWZmNOlKmqr17FXYq+U/wDn&#xA;L38n76W8H5iaLbmaIxpD5gijBLp6Q4x3VB1XgAj/AMtFPSpCryr8uv8AnI78wPIXll/LukpZ3Nj6&#xA;jy2rXsckj25k3cRcJIxQt8VGB3r44qw3zl+YHnHznf8A13zJqk2oSAkxROeMMVe0UK8Y0/2IxVIo&#xA;IJriaOCCNpZ5WCRRICzs7GiqqjcknYAYq/QnRNO1ry//AM4/R2OqDjquneXJVmibf02jtGKxtT/f&#xA;Yop+WKvzyxV9v/8AOG1t6P5RzScOP1jVbmWv81IoY6/8k6Yq91xV8uf85J/845a5rGuT+dPJtv8A&#xA;XZ7yjavpKUEvqIoX14ASA/IL8afa5bitTRV8yTeUvNUF59Sm0a+ivKkfVntpllqOo4FeX4YqyfS/&#xA;yJ/NfULG51D/AA7c2NhZwSXM9zqAFkojiQuxAuDGzbDbiPwxVgWKvqn/AJwm8nXSya95xmQpbui6&#xA;XZMR9s8lmnI9l4xj7/DFX1XirsVfBX/OVHmfSdf/ADcu20uZbiDTbaGwknjIZGmiLPJxI/kaTgfc&#xA;HFXqv/OD2qF9M816UzbQTWl1Gv8AxmSSNyP+RK4q+oMVdirsVYT+cfnvQPJnkLUtS1hYrgTxPa2W&#xA;nyqHW6uJUISIoeqd3/yQcVfnHHJJFIskbFJEIZHUkMGBqCCOhGKvvf8A5xr/ADWvfP8A5Icaseeu&#xA;6K6Wt9PT+/RlrDOe3JwpDe4r3pir1vFXYq7FXYq7FVskccsbRyKHjcFXRgCrKRQgg9QcVfEX5zeS&#xA;vyCg80X0XlvzYNHvopGW90oWdxdWUcwJDrFNCvwUPVRzA6ClKYqp/lV/zjx5V8+TyLbefrOdrdRJ&#xA;PY2drP8AWeFaE8boWxABI+IIwrir6V/Lf/nHb8uPId4mpWNtLqOsR/3Wo6gyyvET1MSKqRoe3ILy&#xA;p364qyD8350h/Kjzi7AkHRb9NvGS2dB+LYq/NnFX3l/ziZbiL8lNLkAI+sXN5ISehpcNHt7fBir2&#xA;LFXYq7FWEfnddT235RebpYAWkOl3EZ49eMqGNz36KxOKvzmgiM00cQIUyMEDMaKCxpUnwxV+mnkj&#xA;yjpnlDyppvlzTVpa6dCI+dKGSQ/FLK3+VJIWY/PFU4ubm3tbeW5uZVht4EaSaaQhUREHJmZjsAAK&#xA;k4q+Svz3/wCcqDqkE/lnyBNJDYvWO+14VjkmUijR2wIDIh7ybMe1BuVXmfkH/nHP80fOXpzwaadK&#xA;0t6H9I6lWBCp7xxkGWTboVXj7jFX15+Sv5I6P+V+m3iQXkmparqXp/X711Ea0i5cEijBbioLsd2J&#xA;P3AKvScVdirsVYr+Yv5aeVfzB0WLSfMUMjwQTC4t5YHMUscgUpVWoRurGoII+4Yq80sv+cNvyjt3&#xA;DTTareCteE1zEBTw/cwxGn04q9W8leQ/KnkrSP0T5asFsbNnMsoDM7ySEULySOWdjQU3O3bFU/xV&#xA;2KuxV2KuxV2Kvlr/AJyp/K78r/LPlGTzHp2lGz8xarqEcUUkE0oiLyc5pnaFmaMAqhHwgbkYq+c/&#xA;y9866h5J846Z5lsV9WWwk5SW5YoJYnBSWIkVpyRiK0NDvir6n03/AJzZ8hSgDUtC1S1Y0r6H1e4U&#xA;Hbu0kBp17Yqk35yf85R+Q/Mf5b6poXlwXrapqyLb/v4REkUTODKXbk1aopUBa9cVfJ2Kvr/8hfz8&#xA;/KXyt+VOiaBruttZapY/WRcQNaXctPVupZlIeGKVCOMg74q9A/6Gj/In/qZv+nHUP+yfFXf9DR/k&#xA;T/1M3/TjqH/ZPirJfJX5v/lv52upbPyzrkV9eQrze2ZJreUoKVZY7hImdRXcqDTFWUalp9nqWnXW&#xA;nXsYms72GS3uYj0eKVSjqfmrEYq+J/Pn/OI35kaLqE7+W4k8waQWLW7xyRxXKITsssUrJVh0rGWr&#xA;126BV9RfkdcefJPy7sYfPFnJaa3Zs9qDMQZZoIqCKWQAmjEfCa7mnLvirMtZ0ix1nSL3SNQQyWGo&#xA;wSWt3GrMhaKZCjryUhhVWPQ4qwzyP+RH5YeS5vrWkaOkt+GLJf3h+szpvUemz7R08UAOKs/xV2Ku&#xA;xV2KuxV2KuxV2KuxV2KuxV2KuxV2KsG/OX8rrL8yPJkuhyzfVb2GQXWmXZFVjuEVlHMDco6uVanz&#xA;6jFXwL5y8geb/JuovYeY9MmsZVYrHK6kwyj+aKUfA4NOxxVj2KuxV2Kro45JHCRqXdtlVQSSfYDF&#xA;UyTyt5ndFdNIvWRgCrC3lIIO4IIXFVK80HXLKEz3mnXVtACAZZoZI0qeg5MoGKsk/JrWJdI/Nbyn&#xA;exy+iP0pbQzSV4gQ3EghlqfD05Grir9IcVdirsVdirsVdirsVdirsVdirsVdirsVdirsVdirsVdi&#xA;rsVdiqncW9vcRNDcRJNC+zxyKGUj3BqMVS7/AAn5V/6s1j/0jQ/804q8u/5yO/Lnybc/lTrmpxaN&#xA;ZW+qaZElzaXsMKQyoUkUOOcahmVkJHE7dPAEKvhHFX6Af84z+XtM0v8AJ/QLm3tYorzUIpLm7uEU&#xA;epK0kzFS79TRAop2pir1TFVk8EE8LwzxrLDICskTgMrKeoKnYjFXi3mn/nEb8q9b1X9IWn1vQ+bc&#xA;p7TT3jWBiTUlElST0/klFHhir2qGJYokiSvGNQq1JJoBQVJ3OKrsVdirsVdirsVdirsVdirsVdir&#xA;sVdirsVdirsVdirsVdirsVdirsVecf8AORV7Bafkt5pkmagktkhT3eaZI1A+lsVfnlir9KPyksTY&#xA;fld5StWFHTSLIyDbZ3gV2G3+UxxVlmKuxV2KuxV2KuxV2KuxV2KuxV2KuxV2KuxV2KuxV2KuxV2K&#xA;uxV2KuxV2KuxV2Kvmr/nNzVdVg8s+W9NgJXTL26uJb0jvLbonoKfakshp7Yq+RrO1lu7uC1hFZri&#xA;RYox4s7BR0r3OKv1HsLOKysbezi/uraJIY/9WNQo/AYqr4q7FXYq7FXYq7FXYq7FXYq7FXYq7FXY&#xA;q7FXYq7FXYq7FXYq7FXYq7FXYq7FXYq8Q/5zB0UX/wCUD3oX4tIv7a65eCyFrYj5EzjFXyd+S+kf&#xA;pb82PKdlTkp1O3mkU9Clu4ncfSsZxV+kGKuxV2KuxV2KuxV2KuxV2KuxV2KuxV2KuxV2KuxV2Kux&#xA;V2KuxV2KuxV2KuxV2KuxV53/AM5DWyXH5L+a426LaCTbfeKVJB+K4q+Xf+cP9FN/+cEV6QeOkWF1&#xA;dcu3KQLagV9xcHFX3NirsVdirsVdirsVdirsVdirsVdirsVdirsVdirsVdirsVdirsVdirsVdirs&#xA;VdirsVYv+aWmyan+WvmmwiqZrjSr1YgO8noOUHQ9WAxV83/84PQRtrvmu4I/ex2trGp/yXkkLfig&#xA;xV9cYq7FXYq7FXYq7FXYq7FXYq7FXYq7FXYq7FXYq7FXYq7FXYq7FXYq7FXYq7FXYq7FWnRJEaNw&#xA;GRwVZT0IOxBxV8t/84d6Y2lecvP+ltXlYPDatXrWGedN6f6uKvqXFXYq7FXYq7FXYq7FXYq7FXYq&#xA;7FXYq7FXYq7FXYq7FXYq7FXYq7FXYq7FXYq7FXYq7FXhH5RaLeaL/wA5CfmhavEyW956OoIxHwt9&#xA;akadSG+crj518MVe74q7FXYq7FXYq7FXYq7FXYq7FXYq7FXYq7FX/9k=</xmpGImg:image>
               </rdf:li>
            </rdf:Alt>
         </xmp:Thumbnails>
      </rdf:Description>
      <rdf:Description rdf:about=""
            xmlns:dc="http://purl.org/dc/elements/1.1/">
         <dc:format>image/svg+xml</dc:format>
         <dc:title>
            <rdf:Alt>
               <rdf:li xml:lang="x-default">Moonspell Trident Curved</rdf:li>
            </rdf:Alt>
         </dc:title>
      </rdf:Description>
      <rdf:Description rdf:about=""
            xmlns:xmpTPg="http://ns.adobe.com/xap/1.0/t/pg/"
            xmlns:stDim="http://ns.adobe.com/xap/1.0/sType/Dimensions#"
            xmlns:xmpG="http://ns.adobe.com/xap/1.0/g/">
         <xmpTPg:NPages>1</xmpTPg:NPages>
         <xmpTPg:HasVisibleTransparency>False</xmpTPg:HasVisibleTransparency>
         <xmpTPg:HasVisibleOverprint>False</xmpTPg:HasVisibleOverprint>
         <xmpTPg:MaxPageSize rdf:parseType="Resource">
            <stDim:w>296.999959</stDim:w>
            <stDim:h>341.330070</stDim:h>
            <stDim:unit>Millimeters</stDim:unit>
         </xmpTPg:MaxPageSize>
         <xmpTPg:PlateNames>
            <rdf:Seq>
               <rdf:li>Black</rdf:li>
            </rdf:Seq>
         </xmpTPg:PlateNames>
         <xmpTPg:SwatchGroups>
            <rdf:Seq>
               <rdf:li rdf:parseType="Resource">
                  <xmpG:groupName>Default Swatch Group</xmpG:groupName>
                  <xmpG:groupType>0</xmpG:groupType>
               </rdf:li>
            </rdf:Seq>
         </xmpTPg:SwatchGroups>
      </rdf:Description>
      <rdf:Description rdf:about=""
            xmlns:xmpMM="http://ns.adobe.com/xap/1.0/mm/"
            xmlns:stEvt="http://ns.adobe.com/xap/1.0/sType/ResourceEvent#">
         <xmpMM:DocumentID>xmp.did:BED1EB439C12E31198F4E09CF690D1F6</xmpMM:DocumentID>
         <xmpMM:InstanceID>xmp.iid:BED1EB439C12E31198F4E09CF690D1F6</xmpMM:InstanceID>
         <xmpMM:OriginalDocumentID>xmp.did:BED1EB439C12E31198F4E09CF690D1F6</xmpMM:OriginalDocumentID>
         <xmpMM:DerivedFrom rdf:parseType="Resource"/>
         <xmpMM:History>
            <rdf:Seq>
               <rdf:li rdf:parseType="Resource">
                  <stEvt:action>saved</stEvt:action>
                  <stEvt:instanceID>xmp.iid:BED1EB439C12E31198F4E09CF690D1F6</stEvt:instanceID>
                  <stEvt:when>2013-09-01T02:20:11+02:00</stEvt:when>
                  <stEvt:softwareAgent>Adobe Illustrator CS6 (Windows)</stEvt:softwareAgent>
                  <stEvt:changed>/</stEvt:changed>
               </rdf:li>
            </rdf:Seq>
         </xmpMM:History>
      </rdf:Description>
   </rdf:RDF>
</x:xmpmeta>
                                                                                                    
                                                                                                    
                                                                                                    
                                                                                                    
                                                                                                    
                                                                                                    
                                                                                                    
                                                                                                    
                                                                                                    
                                                                                                    
                                                                                                    
                                                                                                    
                                                                                                    
                                                                                                    
                                                                                                    
                                                                                                    
                                                                                                    
                                                                                                    
                                                                                                    
                                                                                                    
                           
<?xpacket end="w"?>
	</metadata>
<g>
	<path fill-rule="evenodd" clip-rule="evenodd" d="M408.132,581.252c0-20.889,0.084-41.779-0.021-62.668
		c-0.133-26.479-0.653-52.958-0.572-79.436c0.072-23.54,0.698-47.079,1.186-70.616c0.066-3.201,1.016-6.391,1.023-9.586
		c0.003-1.425-1.065-3.855-2.079-4.11c-5.272-1.325-10.654-2.363-16.057-2.984c-5.389-0.62-6.723,1.4-5.596,6.75
		c3.551,16.873,7.186,33.856,5.671,51.16c-0.641,7.32-3.742,14.521-6.38,21.527c-1.318,3.503-4.187,6.406-6.192,9.68
		c-0.626,1.022-0.963,2.357-1.028,3.569c-0.8,14.828-2.167,29.663-2.102,44.49c0.078,17.633,0.83,35.311,2.398,52.871
		c0.99,11.081,3.93,21.997,6.149,32.957c1.195,5.897,3.014,11.682,3.931,17.614c0.343,2.22-0.457,5.163-1.796,7.003
		c-7.146,9.81-16.281,16.762-28.582,19.091c-8.481,1.605-16.549,4.819-25.484,4.734c-8.177-0.078-15.444-2.641-21.514-7.22
		c-6.93-5.228-13.365-11.473-18.764-18.27c-5.354-6.74-8.325-14.951-10.952-23.379c-3.324-10.663-2.923-21.59-4.564-32.338
		c-0.856-5.604-2.752-6.356-7.866-4.21c-4.222,1.771-9.03,2.488-13.643,2.864c-2.944,0.24-4.615-2.118-3.582-5.205
		c4.172-12.464,9.654-24.202,19.45-33.397c4.92-4.617,10.217-2.531,15.304-0.51c13.509,5.368,19.424,16.411,20.731,29.988
		c0.843,8.755-0.091,17.667,0.261,26.49c0.295,7.387,0.921,14.812,2.154,22.091c0.608,3.59,2.65,7.054,4.595,10.24
		c0.742,1.216,3.087,2.198,4.591,2.062c3.872-0.351,7.961-0.746,11.458-2.276c8.296-3.63,16.344-7.842,24.361-12.067
		c0.935-0.493,1.728-2.72,1.439-3.851c-4.423-17.328-8.958-34.628-13.639-51.889c-2.661-9.812-5.833-19.487-8.383-29.325
		c-1.328-5.122-2.417-10.449-2.549-15.709c-0.344-13.58-0.409-27.186,0.079-40.757c0.177-4.923,1.761-9.963,3.554-14.622
		c2.82-7.33,2.59-14.743,2.182-22.309c-0.59-10.913-1.108-21.833-1.383-32.756c-0.285-11.358,0.466-22.784-0.508-34.072
		c-1.566-18.135-7.849-33.437-24.81-43.779c-11.194-6.827-19.172-17.653-24.029-30.515c-9.372-24.815-8.476-50.276-6.03-75.951
		c0.571-6,0.695-12.042,1.243-18.045c0.198-2.172,0.745-4.414,1.628-6.405c4.868-10.974,9.615-22.018,14.971-32.754
		c2.728-5.467,6.878-10.204,9.98-15.509c10.226-17.484,23.826-32.018,40.248-43.514c12.309-8.616,25.887-14.846,41.751-14.689
		c11.864,0.117,23.79-2.087,35.598-1.481c12.072,0.619,24.145,2.873,36.017,5.367c17.437,3.663,33.276,11.437,48.448,20.661
		c10.098,6.138,17.89,14.771,25.875,23.213c1.805,1.909,3.642,3.936,4.81,6.24c0.667,1.317,0.646,3.947-0.227,4.808
		c-0.869,0.857-3.421,0.77-4.825,0.157c-2.526-1.1-5.104-2.545-7.027-4.478c-6.007-6.037-13.048-10.427-20.399-14.616
		c-20.932-11.926-43.547-14.848-66.982-12.688c-6.861,0.632-13.492,3.575-20.28,5.249c-16.818,4.146-30.885,13.274-44.576,23.482
		c-14.299,10.661-26.676,23.11-37.379,37.235c-5.651,7.457-8.851,15.695-8.695,25.633c0.283,18.086-0.377,36.228,2.911,54.081
		c2.048,11.12,5.853,21.73,10.855,32.071c7.445,15.391,19.182,26.986,31.734,37.639c10.331,8.768,22.58,14.954,36.05,18.106
		c7.863,1.839,15.625,4.491,23.591,5.411c9.268,1.069,19.022,2.259,28.005,0.511c15.878-3.092,31.235-8.539,45.59-16.455
		c11.847-6.532,20.24-16.671,28.74-26.665c7.43-8.736,14.273-17.969,21.476-26.902c0.763-0.945,2.2-1.347,3.323-2.002
		c0.5,1.355,1.575,2.794,1.392,4.047c-0.521,3.539-1.012,7.256-2.496,10.445c-4.057,8.713-7.585,17.954-13.22,25.585
		c-8.604,11.653-18.784,22.144-28.34,33.09c-1.471,1.685-3.006,3.404-4.807,4.694c-3.94,2.824-4.146,5.991-2.205,10.217
		c2.497,5.434,4.788,11.033,6.426,16.772c1.724,6.043,3.339,12.304,3.596,18.527c0.265,6.465-0.336,13.218-2.002,19.458
		c-3.571,13.381-7.712,26.641-12.282,39.719c-6.228,17.824-6.814,35.882-3.619,54.233c0.498,2.856,1.461,5.798,2.949,8.25
		c0.823,1.355,3.142,2.376,4.864,2.506c5.992,0.453,12.076-0.019,18.016,0.733c8.428,1.067,16.909,2.368,25.053,4.678
		c3.401,0.965,6.08,4.69,8.893,7.366c0.653,0.621,0.971,2.235,0.663,3.121c-1.698,4.88-3.114,9.967-5.598,14.443
		c-6.711,12.096-14.157,23.787-20.766,35.935c-1.913,3.518-2.249,8.003-2.804,12.114c-0.432,3.2,1.682,4.763,4.746,4.142
		c3.264-0.662,6.586-1.465,9.602-2.83c7.273-3.293,14.092-7.905,21.636-10.2c8.186-2.49,17.021-3.399,25.029,1.767
		c1.991,1.284,4.067,2.452,5.969,3.856c11.69,8.629,8.762,19.676,3.912,30.419c-3.268,7.236-7.316,14.116-10.902,21.213
		c-4.282,8.47-1.536,15.716,4.089,22.439c1.336,1.598,2.719,3.252,3.604,5.107c1.881,3.944-0.145,7.767-4.517,7.629
		c-4.931-0.154-9.995-0.897-14.695-2.363c-6.907-2.155-13.258-5.851-16.438-12.708c-2.006-4.328-3.807-9.271-3.753-13.914
		c0.087-7.475,1.594-14.962,2.87-22.38c0.757-4.393-0.758-6.505-4.694-4.554c-6.712,3.328-13.912,3.938-20.996,5.451
		c-12.896,2.754-24.955,0.969-35.61-6.778c-5.313-3.863-9.355-9.217-11.454-15.719c-2.648-8.212,1.137-14.903,5.555-21.074
		c3.979-5.556,9.042-10.325,13.203-15.764c1.545-2.02,1.886-4.959,2.775-7.479c-2.975-0.803-5.927-2.139-8.929-2.262
		c-3.156-0.129-6.354,0.951-9.544,1.421c-14.63,2.156-22.114-2.356-28.262-15.818c-7.433-16.275-9.965-33.464-10.206-51.048
		c-0.315-22.933,3.418-45.221,12.646-66.365c2.788-6.387,5.53-12.927,9.351-18.696c4.65-7.021,3.192-13.879,1.378-20.962
		c-1.142-4.458-2.382-8.937-4.16-13.161c-0.707-1.681-3.189-4.011-4.517-3.805c-7.249,1.125-14.466,2.689-21.488,4.789
		c-1.139,0.34-1.894,4.166-1.724,6.292c0.737,9.205,1.99,18.367,2.851,27.564c0.728,7.785,1.46,15.588,1.691,23.398
		c0.78,26.217,1.423,52.447-1.151,78.612c-2.11,21.464-4.485,42.902-6.577,64.369c-0.815,8.366-1.249,16.772-1.729,25.168
		c-1.317,23.073-2.56,46.15-3.85,69.225c-0.322,5.765,0.645,7.355,6.544,7.532c13.417,0.401,26.847,0.43,40.271,0.468
		c11.351,0.032,22.707-0.385,34.049-0.122c7.027,0.163,13.48,6.488,14.736,13.483c0.421,2.344,1.023,4.724,0.962,7.072
		c-0.151,5.769,0.449,11.066,4.885,15.477c1.891,1.879,1.176,4.102-1.4,5.466c-6.75,3.573-12.696,1.144-18.58-2.286
		c-6.385-3.723-12.522-8.228-20.269-8.535c-7.546-0.301-15.11-0.302-22.662-0.188c-6.44,0.096-12.898,0.285-19.303,0.906
		c-5.263,0.511-10.57,1.339-15.62,2.828c-1.66,0.489-3.269,3.349-3.687,5.375c-0.759,3.667-0.55,7.526-0.845,11.298
		c-0.617,7.933-1.146,15.876-1.997,23.783c-0.854,7.937-1.931,15.854-3.135,23.746c-2.21,14.5-4.553,28.98-6.902,43.46
		c-1.903,11.735-4.869,23.396-5.606,35.2c-0.915,14.644-0.096,29.403,0.133,44.11c0.092,5.885,0.648,11.761,0.896,17.645
		c0.058,1.377,0.072,2.966-0.549,4.099c-0.577,1.056-1.997,2.201-3.1,2.257c-1.002,0.051-2.473-1.093-3.026-2.1
		c-0.927-1.686-1.546-3.641-1.845-5.552c-2.615-16.729-4.5-33.6-7.851-50.176c-3.415-16.897-2.256-34.099-4.817-50.979
		c-1.571-10.354-3.577-20.662-5.917-30.869c-1.143-4.987,0.052-9.434,2.243-13.358c3.914-7.013,5.271-14.502,5.396-22.221
		c0.155-9.627-0.279-19.267-0.613-28.896c-0.107-3.106-2.237-4.314-5.149-5.168c-11.739-3.443-23.712-1.398-35.552-1.623
		c-12.027-0.228-22.99-2.882-32.468-10.357c-2.817-2.223-4.996-5.261-7.437-7.951c-6.13-6.756-4.518-14.018-1.595-21.519
		c2.426-6.226,1.319-7.593-5.465-7.896c-1.659-0.074-3.496-0.093-4.912-0.808c-2.514-1.271-6.685-1.049-6.318-5.485
		c0.247-2.987,4.976-7.037,8.376-7.381c3.48-0.352,7.007-0.9,10.465-0.665c5.233,0.356,10.784,0.395,15.547,2.245
		c6.727,2.613,10.227,8.604,11.848,15.704c0.339,1.487,2.073,3.594,3.389,3.773c12.34,1.688,24.725,3.062,37.109,4.416
		c2.068,0.227,4.362,0.398,6.247-0.268c1.753-0.619,4.016-2.136,4.453-3.703c1.384-4.966,2.53-10.109,2.848-15.24
		c1.095-17.631,1.799-35.285,2.652-52.929C408.611,581.267,408.372,581.26,408.132,581.252z"/>
	<path fill-rule="evenodd" clip-rule="evenodd" d="M773.453,537.969c-8.928,1.383-17.512,0.133-25.269-4.234
		c-11.794-6.641-13.197-12.598-9.951-23.084c1.272-4.111,2.048-8.404,2.707-12.667c0.444-2.881-1.224-4.589-4.165-4.515
		c-8.821,0.226-16.479-3.957-24.67-6.157c-6.301-1.692-12.86-4.597-19.539-0.97c-1.097,0.595-2.265,1.212-3.103,2.1
		c-3.404,3.608-7.516,4.781-12.436,5.046c-3.929,0.212-7.961,1.52-11.608,3.116c-3.84,1.68-3.585,10.748,0.125,14.28
		c5.515,5.25,12.048,7.219,19.646,6.547c6.938-0.613,8.756,1.038,10.804,7.604c3.396,10.887,7.233,21.642,10.413,32.589
		c2.45,8.435,4.391,17.037,6.152,25.647c1.313,6.426,1.981,12.984,2.932,19.485c1.458,9.986-0.061,13.416-9.347,17.638
		c-12.847,5.842-25.922,11.182-38.894,16.748c-4.625,1.985-9.228,4.021-13.854,6.004c-3.166,1.357-5.955,0.642-7.687-2.257
		c-1.832-3.065-1.808-6.324,1.361-8.629c4.849-3.528,10.123-6.513,14.74-10.308c5.728-4.707,10.893-10.093,16.445-15.022
		c5.252-4.661,7.4-10.564,6.838-17.311c-0.444-5.328,0.425-10.065,2.717-14.948c3.715-7.917,1.534-10.428-7.339-10.765
		c-9.907-0.374-19.924-0.648-29.639-2.387c-6.992-1.252-13.931-4.294-18.368-10.635c-0.823-1.177-1.427-3.244-0.97-4.463
		c3.52-9.388,6.951-18.841,11.123-27.946c7.897-17.238,19.054-32.192,33.318-44.738c15.611-13.728,25.149-14.967,45.238-5.169
		c16.034,7.821,31.361,17.116,46.83,26.056c5.424,3.135,10.305,7.203,15.491,10.761c2.215,1.519,2.568,3.331,1.835,5.821
		c-2.632,8.942,2.084,16.304,11.24,17.802c1.238,0.203,2.708,0.195,3.624,0.88c1.372,1.027,2.349,2.583,3.493,3.913
		c-1.37,0.63-2.686,1.621-4.116,1.83c-8.672,1.269-17.369,2.359-26.058,3.508C773.495,538.749,773.475,538.359,773.453,537.969z"/>
	<path fill-rule="evenodd" clip-rule="evenodd" d="M106.594,535.425c7.287,0.676,13.726,0.913,20.038,1.941
		c10.466,1.704,17.103,8.374,22.341,17.33c2.587,4.422,6.695,8.188,10.764,11.441c3.664,2.93,8.011,5.344,12.443,6.855
		c2.892,0.987,6.668,0.615,9.711-0.287c15.104-4.474,28.895-11.772,42.081-20.309c1.364-0.883,3.262-0.941,4.912-1.382
		c0.022,1.748,0.499,3.644-0.013,5.218c-2.023,6.229-3.876,12.586-6.677,18.474c-5.221,10.973-12.905,18.789-26.096,20.204
		c-7.433,0.797-14.593,3.881-21.98,5.438c-6.973,1.471-14.051,2.625-21.142,3.311c-8.809,0.851-16.161-2.06-22.586-8.629
		c-7.691-7.864-16.133-15.023-24.568-22.107c-2.22-1.865-5.551-2.565-8.49-3.374c-3.388-0.932-5.02,0.433-4.383,3.858
		c0.497,2.675,1.625,5.346,2.987,7.724c3.042,5.316,6.051,10.715,9.716,15.598c6.551,8.729,13.659,17.039,20.346,25.67
		c1.595,2.059,2.724,4.598,3.579,7.084c1.625,4.726-3.188,11.081-9.447,12.001c-8.015,1.177-16.099,2.278-24.176,2.481
		c-4.588,0.115-9.333-1.276-13.797-2.663c-3.048-0.946-4.419-3.584-2.21-6.675c2.67-3.737,5.688-7.232,8.247-11.041
		c1.437-2.138,2.717-4.599,3.23-7.088c0.738-3.582-0.561-6.645-4.25-8.208c-0.515-0.219-0.986-0.554-1.513-0.732
		c-14.174-4.783-17.602-16.302-18.619-29.442c-0.354-4.583-0.767-9.223-1.813-13.683c-2.755-11.749,5.254-24.466,17.163-26.238
		C90.675,536.961,99.038,536.271,106.594,535.425z"/>
	<path fill-rule="evenodd" clip-rule="evenodd" d="M488.984,198.563c1.331,15.113-4.436,27.574-16.122,36.411
		c-9.813,7.42-20.708,12.381-34.315,9.191c-10.772-2.525-19.419-7.72-25.747-15.923c-7.819-10.139-10.872-21.894-5.776-34.665
		c1.812-4.541,2.879-9.385,4.775-13.884c3.777-8.962,10.419-14.913,19.597-18.386c15.229-5.765,29.045-1.286,42.116,6.013
		c9.221,5.148,14.844,13.418,15.164,24.524C488.741,194.086,488.88,196.324,488.984,198.563z"/>
</g>
</svg>
