<?xml version="1.0" encoding="utf-8"?>
<!-- Generator: Adobe Illustrator 20.1.0, SVG Export Plug-In . SVG Version: 6.00 Build 0)  -->
<svg version="1.1" id="logos" xmlns="http://www.w3.org/2000/svg" xmlns:xlink="http://www.w3.org/1999/xlink" x="0px" y="0px"
	 viewBox="0 0 125 40" enable-background="new 0 0 125 40" xml:space="preserve">
<g id="Layer_2_1_">
</g>
<g>
	<path d="M4.88,10.119L0,8.343v21.436l2.44,0.888v-9.716l2.493,0.907c0.993,0.361,1.475,0.446,1.877,0.167
		c0.617-0.413,0.645-1.436,0.645-3.227V14.73c0-0.912,0.052-2.076-0.483-3.031C6.328,10.524,5.068,10.188,4.88,10.119z
		 M4.933,18.366c0,0.729-0.213,0.864-0.884,0.619L2.466,18.41v-6.558l1.529,0.556c0.778,0.283,0.938,0.614,0.938,1.404V18.366z"/>
	<path d="M17.136,7.935l-2.681,20.46l2.439,0.888l0.43-3.791l2.842,1.035l0.482,4.123l2.44,0.888L20.166,9.038L17.136,7.935z
		 M17.592,22.979l1.045-10.763l1.206,11.583L17.592,22.979z"/>
	<path d="M37.925,25.15c0-1.762-0.026-2.651-0.456-3.567c-0.536-1.136-1.314-1.298-1.716-1.535c0.402,0.086,1.475,0.506,1.931-0.451
		c0.187-0.418,0.269-1.056,0.295-1.593c0.054-0.83,0.054-1.68,0.054-2.501c0-1.457-0.054-2.539-0.161-3.125
		c-0.375-2.079-1.635-2.629-2.305-2.934c-0.295-0.138-0.617-0.255-0.939-0.372l-4.075-1.483v21.436l2.494,0.908v-9.868l1.019,0.371
		c0.295,0.107,0.562,0.265,0.804,0.566c0.321,0.45,0.402,0.996,0.456,1.532c0.08,0.757,0.107,1.527,0.107,2.255v1.518
		c0,2.034,0.052,2.509,0.375,4.63l2.601,0.947c-0.43-1.492-0.483-1.967-0.483-4.396V25.15z M35.433,17.624
		c-0.161,0.701-0.537,0.746-1.18,0.512l-1.18-0.43v-6.619l1.26,0.459c0.483,0.176,0.751,0.273,0.912,0.513
		c0.161,0.211,0.241,0.483,0.269,0.948c0.026,0.465,0.054,0.93,0.054,1.386C35.566,15.881,35.539,17.146,35.433,17.624z"/>
	<path d="M48.155,7.935l-2.681,20.46l2.439,0.888l0.43-3.791l2.842,1.035l0.482,4.123l2.44,0.888L51.184,9.038L48.155,7.935z
		 M48.61,22.979l1.045-10.763l1.206,11.583L48.61,22.979z"/>
	<path d="M85.987,10.635c-0.939-1.193-2.064-1.602-2.466-1.748c-1.341-0.488-2.146-0.234-2.601-0.006
		c-1.475,0.739-1.475,2.591-1.475,4.504v10.687c0,1.215,0.028,1.619,0.189,2.316c0.402,1.816,1.527,2.954,2.037,3.352
		c0.643,0.508,1.367,0.771,1.582,0.85c0.563,0.205,3.03,1.133,3.834-1.094c0.269-0.723,0.322-1.583,0.322-2.403V16.89
		c0-2.399-0.028-3.532-0.563-4.79C86.738,11.819,86.469,11.235,85.987,10.635z M83.386,28.299c-1.286-0.468-1.447-1.619-1.447-2.773
		V14.05c0-1.609-0.054-2.509,0.617-2.751c0.348-0.147,0.777-0.021,0.912,0.028c0.669,0.244,0.991,0.726,1.153,1.057
		c0.295,0.623,0.295,1.443,0.295,2.749v10.808C84.914,27.217,84.994,28.885,83.386,28.299z"/>
	<path d="M103.278,25.15c0-1.762-0.026-2.651-0.456-3.567c-0.536-1.136-1.314-1.298-1.716-1.535
		c0.402,0.086,1.475,0.506,1.931-0.451c0.187-0.418,0.269-1.056,0.295-1.593c0.054-0.83,0.054-1.68,0.054-2.501
		c0-1.457-0.054-2.539-0.161-3.125c-0.375-2.079-1.635-2.629-2.305-2.934c-0.295-0.138-0.617-0.255-0.939-0.372l-4.075-1.483v21.436
		l2.494,0.908v-9.868l1.019,0.371c0.295,0.107,0.562,0.265,0.804,0.566c0.321,0.45,0.402,0.996,0.456,1.532
		c0.08,0.757,0.107,1.527,0.107,2.255v1.518c0,2.034,0.052,2.509,0.375,4.63l2.601,0.947c-0.43-1.492-0.483-1.967-0.483-4.396V25.15
		z M100.786,17.624c-0.161,0.701-0.537,0.746-1.18,0.512l-1.18-0.43v-6.619l1.26,0.459c0.483,0.176,0.751,0.273,0.912,0.513
		c0.161,0.211,0.241,0.483,0.269,0.948c0.026,0.465,0.054,0.93,0.054,1.386C100.919,15.881,100.892,17.146,100.786,17.624z"/>
	<polygon points="117.938,12.828 117.938,10.155 111.691,7.882 111.691,29.317 117.938,31.591 117.938,28.889 114.237,27.542 
		114.237,20.437 117.535,21.638 117.535,18.966 114.211,17.756 114.211,11.471 	"/>
	<polygon points="68.513,9.877 68.415,9.841 66.234,17.566 64.053,8.253 63.955,8.218 61.644,7.376 61.641,7.375 61.641,28.811 
		63.955,29.653 63.955,16.783 65.728,24.816 65.767,24.984 66.701,25.324 66.74,25.185 68.513,18.442 68.513,31.312 70.827,32.155 
		70.827,10.719 70.825,10.718 	"/>
</g>
<rect x="0" y="0" fill="none" width="125" height="40"/>
</svg>
