<svg xmlns="http://www.w3.org/2000/svg" fill="black" viewBox="0 0 300 282">
    <path
        d="M176.35 64.566c0-1.573 0-2.772-2.382-2.772-4.711 4.326-15.365 9.455-11.821 18.104 0 3.538 2.76 4.715 5.929 4.715 9.851-1.177 7.486-13.364 8.274-20.047Zm-27.596 17.295c-7.11-10.612-3.151-23.603-7.899-34.592-5.101-7.88-13.395-12.991-23.244-11.812-3.544 1.18-7.879 4.717-9.475 8.256-4.709 11.006 1.972 20.853 7.112 29.11 8.272 7.861 16.545 20.066 30.355 17.314 3.151-1.574 3.151-4.324 3.151-8.276Zm147.438 33.04c-12.233 19.284-13.395 44.068-11.443 68.066-.79 3.931-.79 7.469-4.335 9.827h-5.123c-7.091-4.715-5.926-13.386-7.091-20.461l-1.574-23.997c0-2.752-1.97-3.539-3.153-2.752-2.363 5.11-2.363 9.847-4.746 14.956-5.121 23.998-11.425 46.424-25.607 66.867-1.181 1.574 1.577 2.75 1.577 3.537 7.088 0 16.564-1.963 21.665 4.718.791 3.95 0 5.896-1.181 8.648-9.849 11.026-23.242 11.812-36.264 15.743-19.305 4.735-39.809 8.274-56.77 21.248-2.363 0-5.514 1.573-8.272 0-1.577-.787-1.577-3.539-1.577-5.899 12.609-8.254 4.335-25.963 15.778-33.844 9.851-3.127 20.488-1.946 31.536-1.946v-1.181c-1.575-2.769-8.292-3.537-5.929-9.45 3.549-6.291 13.022-12.599 11.033-20.461-3.92-5.093-9.849-1.556-13.396-2.754-36.266-2.339-63.86-25.552-91.852-44.439l-33.11-25.946c-11.033-6.325-18.536-16.941-28.385-22.838-2.365-1.551-4.728 1.201-5.514 2.358-2.366 10.241-2.366 20.48-1.577 29.896-.789 22.426 21.687 33.04 37.445 44.46h3.564c3.546-3.931 0-7.469 0-11.42 0-1.965 0-3.909 2.346-5.504 5.123-1.159 9.868-2.355 13.415 0 5.907 5.504 13.393 9.455 18.533 16.924 0 1.966-1.594 4.718-4.352 6.289-3.546 1.966-9.849-4.323-9.849 1.966 2.756 1.181 7.484 1.181 11.443 1.181 7.879-1.181 18.912-5.899 26.396 2.355 4.73 4.718 11.032 9.847 9.475 15.334-2.775 3.95-7.505 2.769-10.657 2.769-5.121-3.931-12.605-2.769-17.335-2.769-1.198 0-1.574 1.198-1.198 2.769 7.503 2.36 17.352 0 24.445 5.112 11.05 4.718 14.201 15.349 15.382 26.75 0 5.109 0 11.398-4.332 14.562-7.506 1.573-13.81-4.323-18.143-9.453-8.666-7.861-16.154-17.691-21.275-27.141-2.758-1.574-4.352-2.358-5.14-1.574-1.577 0-1.577 2.75-1.577 3.537 7.506 13.366 19.326 24.392 29.173 34.631 2.365 2.752 3.152 9.043 1.182 10.989-4.728 3.95-11.029 4.737-15.756 2.771-22.083-6.308-20.508-29.896-22.083-48.391-1.181-1.963-1.181-4.321-3.151-4.321-1.181-1.181-2.758.784-2.758.784-.788 7.487 7.484 14.151 1.576 22.032-2.364 3.539-4.747 5.897-9.87 4.326-9.454-.787-16.938-9.455-20.484-18.103-1.182-1.966-1.182-5.505 0-8.255 3.546-5.896 9.847-7.075 13.786-12.973.808-.804 0-3.539-2.756-4.718-26.81-3.95-54.406-20.459-63.467-48.389-9.06-29.894-5.121-66.867 9.06-93.614 3.547-4.72 8.67-7.078 16.173-7.078 3.152 0 5.515 2.358 7.88 3.931l14.596 15.332 31.536 30.305c15.363 9.024 28.385 25.178 46.901 28.717 2.363.787 5.517.787 7.091-1.198 1.201-3.537-2.343-6.289-3.544-7.47-26.417-13.385-46.901-40.115-61.89-64.132-4.336-15.312-12.608-38.133 2.775-52.3C94.74-4.265 129.822-1.516 155.053 4.775c13.022 5.502 27.599 15.351 32.327 28.323 3.939 17.709-.789 34.614-2.365 52.714-2.363 9.436-4.331 20.05-11.048 29.088-1.164 1.966 1.594 4.326 2.382 4.326 13.394-.787 24.446-5.483 34.69-10.612 6.695-6.291 6.695-14.155 5.514-22.802-5.514-5.129-10.637 1.16-16.942-2.377-5.929-2.752-7.503-9.435-7.503-15.724 0-4.72 1.574-9.454 5.928-10.616 8.668-1.59 11.011 9.024 17.333 11.795 2.365-1.178 0-2.771 0-4.325l-12.211-19.674c-1.199-5.502 0-11.793 4.727-15.726 2.365-2.377 3.154-4.343 5.91-3.535 2.758 0 5.121 2.356 6.698 3.535 3.151 11.008 1.181 23.982 3.151 35.4l2.382 1.554.788-1.554c0-13.758 0-26.357-.788-38.934 0-2.38.788-4.738 3.547-5.505 11.011-4.342 17.728 6.662 24.032 14.15 2.756 3.932 6.305 7.078 3.547 12.992-3.547 5.88-10.244 5.88-15.368 9.827-1.2 2.752-5.118 2.752-3.959 5.897 0 1.573 2.759 0 3.959 0 9.476-4.735 19.325-16.92 29.962-8.274 2.363 3.539 3.544 8.274.788 11.4-1.574 7.882-10.637 2.772-15.382 6.703 3.957 2.752 6.32 3.539 7.503 7.076 1.164 5.915 1.164 11.81-2.758 15.35-3.171 4.324-6.717 5.11-11.838 4.324-4.728-2.752-7.093-9.435-12.234-11.009-4.706 3.145 1.599 6.686 0 11.795 1.599 8.257 0 18.082-5.887 24.784-5.124 5.11-14.204 7.468-13.022 15.332 3.546 5.11 9.456 7.862 15.78 9.435 1.97 0 4.728-1.573 5.888-4.325 2.382-7.862 1.2-21.228 13.021-23.98 5.121 0 8.292 1.573 13.02 2.752 4.335-5.129-1.97-9.455-3.153-14.153-1.575-2.75 0-5.127 1.183-7.879 4.709-7.075 15.758-5.504 23.638-5.504 2.758-2.36 3.941-6.683 7.898-5.112.789 0 1.948 0 3.154 1.18 2.36 8.257-2.365 14.565-3.154 22.013Z">
        </path>
</svg>