<?xml version="1.0" encoding="UTF-8" standalone="no"?>
<!-- Created with Inkscape (http://www.inkscape.org/) -->
<svg
   xmlns:svg="http://www.w3.org/2000/svg"
   xmlns="http://www.w3.org/2000/svg"
   version="1.0"
   width="300"
   height="50.603409"
   id="svg2">
  <defs
     id="defs5" />
  <path
     d="M 3.990746,50.49761 C 3.990746,50.40863 4.144213,49.69419 4.331784,48.90996 C 4.519354,48.12573 4.727567,46.91548 4.794479,46.22051 C 4.872045,45.41488 4.916136,39.81437 4.916136,30.76764 C 4.916136,14.65889 4.982688,15.81902 3.936681,13.69386 C 3.065032,11.92294 1.987502,10.99011 0.560962,10.77148 L 0,10.6855 L 0.867553,10.48212 C 2.007934,10.21478 3.577077,10.2161 4.432482,10.48512 C 5.705993,10.88563 6.742828,11.80845 7.560061,13.26876 C 7.641071,13.41352 7.75047,13.37224 8.204762,13.02547 C 10.084706,11.59047 13.01794,10.36792 15.4918,9.98827 C 16.888913,9.77387 19.39822,9.83451 20.850455,10.11778 C 25.373256,10.99999 29.174831,14.02967 30.7975,18.04511 C 31.480853,19.73613 31.747106,21.28902 31.749485,23.59745 C 31.752374,26.40006 31.279898,28.51398 30.133615,30.82707 C 29.277958,32.5537 28.30698,33.85257 26.759063,35.34118 C 24.347478,37.66037 21.656738,39.11653 18.623482,39.74395 C 17.047343,40.06997 14.011386,40.04639 12.615392,39.69728 C 11.512047,39.42136 9.778403,38.6563 8.923263,38.06795 C 8.636846,37.87089 8.353529,37.70966 8.293671,37.70966 C 8.230804,37.70966 8.158527,38.79668 8.122544,40.2834 C 8.034258,43.93095 7.649452,46.1196 6.771262,47.96904 C 6.148224,49.28113 5.306493,50.15915 4.30756,50.53895 C 4.055855,50.63464 3.990746,50.62615 3.990746,50.49761 z M 17.235396,38.747 C 21.4385,38.2726 24.672205,35.83584 26.309315,31.90934 C 27.239843,29.67753 27.59598,27.74126 27.672466,24.49808 C 27.734577,21.86449 27.649285,20.83247 27.233067,19.18134 C 26.189675,15.04226 23.196437,12.17035 19.029883,11.31068 C 18.113101,11.12152 17.610894,11.09234 16.020821,11.13586 C 14.381586,11.18071 13.967493,11.23164 13.086914,11.49671 C 10.74944,12.20031 9.030802,13.4057 8.409348,14.77737 C 8.22912,15.17517 8.21284,16.07398 8.21284,25.6268 C 8.21284,35.42254 8.225108,36.06123 8.418949,36.35709 C 9.09435,37.38799 11.623858,38.45592 14.054367,38.7363 C 15.288694,38.87869 16.046001,38.88124 17.235396,38.747 z M 298.01573,41.17314 C 297.68996,40.98923 295.94527,40.6142 294.85252,40.49318 C 294.27993,40.42977 291.96356,40.32389 289.70503,40.2579 C 287.4465,40.1919 284.70604,40.10671 283.61511,40.06858 L 281.6316,39.99926 L 281.9232,39.36229 C 282.15284,38.86071 282.23697,38.42524 282.31902,37.31349 C 282.37632,36.53697 282.40864,28.8258 282.39085,20.17754 C 282.35497,2.74132 282.4104,3.96622 281.60209,2.7459 C 281.08204,1.96077 280.49735,1.58879 278.91184,1.03437 C 277.31021,0.4743 276.86524,0.27391 276.86524,0.1127 C 276.86524,0.04153 278.48479,-5.6843419e-14 281.26084,-5.6843419e-14 L 285.65645,-5.6843419e-14 L 285.65645,19.09143 L 285.65645,38.18287 L 285.93086,38.45728 C 286.34438,38.8708 286.94396,39.00333 288.6865,39.06635 C 292.50923,39.20461 297.074,38.08686 299.50839,36.41644 C 299.77877,36.23091 300,36.12993 300,36.19205 C 300,36.34914 298.36591,41.10368 298.27826,41.20159 C 298.2391,41.24534 298.12096,41.23254 298.01573,41.17314 z M 90.10989,40.76071 C 89.05998,40.60193 87.816326,40.30934 87.102371,40.05314 C 82.936772,38.55839 79.366431,34.974 77.854834,30.76923 C 77.199445,28.94615 76.973527,27.45479 76.974313,24.95664 C 76.975196,22.15854 77.364046,20.19368 78.315106,18.18161 C 79.043534,16.64055 79.777693,15.59328 80.970211,14.39417 C 83.104115,12.24846 85.903067,10.77131 89.1845,10.05907 C 90.628507,9.74565 94.496614,9.61257 95.956805,9.82608 C 99.465663,10.33914 102.06548,11.79018 103.77951,14.19218 L 104.3084,14.93336 L 105.33759,13.83677 C 105.90365,13.23364 106.69105,12.49442 107.08738,12.19405 C 108.04396,11.46909 109.67364,10.70401 110.86988,10.41829 C 113.02832,9.90276 116.57614,9.81868 118.56564,10.23591 C 121.02049,10.75073 122.84838,11.74924 124.70873,13.59167 C 127.00384,15.86465 128.23233,18.13538 128.93295,21.39965 C 129.15659,22.44159 129.19364,22.9595 129.19364,25.04338 C 129.19364,27.09812 129.15514,27.65082 128.94384,28.62926 C 128.59186,30.25919 128.29998,31.11129 127.61811,32.49951 C 125.06185,37.70384 119.41489,41.11983 113.89576,40.80051 C 112.53528,40.72179 111.43161,40.3682 110.17467,39.60834 C 109.21617,39.02891 108.12211,38.08624 107.80219,37.56419 C 107.62698,37.27827 107.71013,37.31013 108.60435,37.87154 C 110.53329,39.08257 112.52629,39.6169 114.79925,39.53243 C 117.20618,39.44299 118.74502,38.79353 120.52252,37.11698 C 122.66237,35.09866 124.15492,32.28512 124.89334,28.8777 C 125.2388,27.28362 125.27129,23.07849 124.95069,21.45749 C 123.99553,16.62827 121.50245,13.13194 118.10119,11.85171 C 115.6959,10.94636 112.57434,10.99001 110.18116,11.96245 C 108.44125,12.66943 106.58615,14.34926 105.84607,15.88796 C 105.0816,17.47736 105.08965,17.33493 105.08965,29.27565 L 105.08965,40.02313 L 103.47021,40.02313 L 101.85078,40.02313 L 101.85078,30.02961 C 101.85078,23.94197 101.80378,19.57806 101.73052,18.86421 C 101.19757,13.67072 98.249665,10.86886 93.324715,10.87486 C 90.149977,10.87872 87.506397,11.99307 85.251591,14.27791 C 83.117306,16.44063 81.758224,19.09079 81.184099,22.20937 C 80.893636,23.78714 80.921116,26.89751 81.241364,28.6906 C 82.266613,34.43108 85.809016,38.37007 90.86818,39.39518 C 92.28144,39.68155 94.303691,39.58046 95.604396,39.15844 C 96.856322,38.75225 98.03339,38.17168 98.843262,37.56093 L 99.479468,37.08114 L 99.09635,37.5657 C 98.014914,38.93348 96.305806,40.04795 94.596497,40.49996 C 93.713329,40.7335 90.98023,40.89234 90.10989,40.76071 z M 147.94679,40.7064 C 141.42264,39.92336 136.11181,35.63423 134.48419,29.83373 C 133.67161,26.9379 133.69556,22.83968 134.54212,19.91839 C 136.09673,14.55375 140.82409,10.56325 146.99412,9.40732 C 148.67984,9.09151 152.51326,9.11988 154.21227,9.46073 C 157.79625,10.17974 160.76699,11.77058 163.0535,14.19526 C 165.79936,17.10705 167.01687,20.42169 167.01687,24.98554 C 167.01687,27.85426 166.6203,29.87916 165.64087,32.01147 C 164.34165,34.83998 161.67067,37.51702 158.60984,39.05842 C 157.51525,39.60965 155.34958,40.31106 154.01966,40.54508 C 152.71176,40.77522 149.27976,40.86639 147.94679,40.7064 z M 152.86333,39.37997 C 156.51469,38.68732 159.65787,36.25258 161.36626,32.79352 C 162.03327,31.44298 162.4667,30.0979 162.78266,28.39792 C 163.05586,26.92801 163.04698,23.03607 162.76698,21.52303 C 162.35129,19.27673 161.52914,17.2288 160.36975,15.5517 C 159.60216,14.44134 157.88504,12.79599 156.77095,12.10333 C 153.92423,10.33342 150.32629,9.86102 147.01071,10.82184 C 145.7085,11.1992 144.88893,11.57906 143.79218,12.31358 C 141.94394,13.55138 140.50916,15.2151 139.49777,17.29323 C 138.26411,19.8281 137.88054,21.92625 137.97523,25.62175 C 138.04243,28.24364 138.24451,29.45785 138.92822,31.3476 C 140.48287,35.64458 144.08141,38.71185 148.46732,39.47839 C 149.22183,39.61026 151.97419,39.54864 152.86333,39.37997 z M 213.07114,40.7606 C 209.30983,40.36017 205.97032,38.84033 203.4957,36.40275 C 201.56002,34.49606 200.39374,32.35528 199.76489,29.55466 C 199.48375,28.30256 199.41388,24.95777 199.64009,23.57941 C 200.15041,20.46977 201.59316,17.65622 203.8134,15.44094 C 206.31327,12.94662 209.71606,11.49023 213.53383,11.2806 L 214.69057,11.21708 L 213.9228,11.44609 C 210.25954,12.53875 207.58747,14.38201 205.85537,17.01122 C 204.74781,18.69242 204.05353,20.60875 203.70736,22.94012 C 203.46787,24.55304 203.47088,27.61595 203.71338,29.04266 C 204.44517,33.34812 206.81366,36.8642 210.08715,38.50468 C 211.52939,39.22745 212.63751,39.47136 214.74841,39.53067 C 218.05997,39.62371 220.49101,38.97658 222.56119,37.45094 C 226.13913,34.81416 228.02909,29.98845 227.78298,24.11799 C 227.47289,16.72117 224.13194,12.68853 216.82087,10.88633 C 213.82825,10.14864 211.40123,9.95066 205.21744,9.9398 C 201.04855,9.93247 200.62428,9.91483 201.03132,9.7657 C 202.18468,9.34316 203.4832,7.93246 204.35432,6.15565 L 204.82413,5.19735 L 205.15597,5.72061 C 206.11001,7.22496 208.04992,8.36179 210.19109,8.67129 C 210.62995,8.73472 211.58762,8.78821 212.31926,8.79016 C 215.41916,8.79838 218.95097,9.40273 221.57316,10.37365 C 226.96434,12.36984 230.4346,16.14813 231.46684,21.14551 C 232.66239,26.93359 231.09349,31.85197 226.69653,36.09998 C 224.26326,38.45082 221.73623,39.82274 218.62176,40.48376 C 217.48778,40.72444 214.24884,40.88598 213.07114,40.7606 z M 249.11245,39.89865 C 248.666,37.81694 248.61326,34.75152 248.98636,32.57019 C 249.78851,27.88047 252.6434,23.09259 256.68016,19.66708 C 257.72113,18.78373 259.56891,17.50308 260.43763,17.06286 L 261.01414,16.77072 L 260.72152,16.10659 C 260.16536,14.8443 259.03811,12.87726 258.49632,12.22362 C 257.607,11.15069 256.40162,10.35212 255.23637,10.06387 C 254.98359,10.00134 256.16614,9.97126 258.35743,9.98449 C 261.61389,10.00414 261.91382,10.02293 262.25365,10.22856 C 262.78375,10.54933 263.82806,12.78152 268.09281,22.70963 C 272.85474,33.79516 274.82156,37.70287 276.51345,39.43987 L 277.08157,40.02313 L 274.4575,40.01994 L 271.83343,40.01674 L 271.44922,38.83428 C 271.23791,38.18393 270.76943,36.96753 270.40816,36.13117 C 269.46973,33.95868 263.86731,22.32817 263.77359,22.35797 C 263.68939,22.38474 262.79235,23.50898 254.89321,33.48756 C 252.0729,37.05032 249.64812,40.08861 249.50482,40.23932 L 249.24427,40.51334 L 249.11245,39.89865 z M 258.04652,28.28389 L 263.40313,21.57663 L 262.52863,19.73871 C 262.04766,18.72785 261.59577,17.8782 261.52442,17.85061 C 261.45307,17.82301 260.78449,18.07671 260.03867,18.41438 C 258.77284,18.98751 258.6197,19.09373 257.7361,20.01157 C 254.81253,23.04839 252.77191,26.89397 252.16893,30.503 C 252.03105,31.32826 251.98406,32.13909 252.01252,33.2018 C 252.04863,34.54988 252.07873,34.73957 252.27988,34.8866 C 252.40455,34.97772 252.54781,35.03853 252.59823,35.02172 C 252.64866,35.00491 255.10039,31.97289 258.04652,28.28389 z M 37.43219,39.53748 C 37.941493,38.53916 38.014337,36.58655 37.972901,25.04338 C 37.935307,14.57022 37.933838,14.51326 37.681944,13.76518 C 37.278252,12.56628 36.162315,10.99862 35.284297,10.39699 C 34.755189,10.03444 34.926747,9.95189 36.213823,9.94972 C 37.977191,9.94674 39.355864,10.55023 40.042202,11.62554 C 40.773592,12.77142 40.656481,12.72712 41.364939,12.12587 C 42.626738,11.05502 44.278731,10.17101 45.872443,9.71384 C 47.064245,9.37196 49.551704,9.27342 50.621357,9.52572 C 52.803525,10.04042 54.437674,11.36536 55.065526,13.12898 C 55.321132,13.84696 55.356766,15.74119 55.131895,16.65703 C 54.371275,19.75481 51.590281,22.54324 46.963563,24.8472 C 46.072874,25.29074 45.219792,25.69129 45.067824,25.73733 C 44.815964,25.81362 44.854869,25.85488 45.507564,26.20361 C 47.20956,27.11297 48.294723,28.13667 52.758271,33.04368 C 54.561683,35.02626 56.371804,36.93224 56.780761,37.27918 C 58.160401,38.44962 59.733946,39.30488 61.422788,39.80225 L 62.11683,40.00665 L 58.669188,40.01489 L 55.221545,40.02313 L 54.562768,39.57426 C 53.741102,39.01439 52.359144,37.77211 51.45909,36.78427 C 50.454848,35.68208 49.848315,34.94497 47.437426,31.89683 C 46.242233,30.38571 44.943951,28.85905 44.552359,28.50425 C 43.633802,27.67199 42.604361,26.98629 42.048914,26.83672 C 41.183563,26.60371 41.23712,26.25516 41.242789,32.08294 C 41.24881,38.27252 41.287874,38.73483 41.906374,39.93638 C 41.930936,39.98409 40.878545,40.02313 39.567728,40.02313 L 37.184425,40.02313 L 37.43219,39.53748 z M 42.857143,24.72714 C 45.525173,23.8837 47.004469,23.0969 48.424802,21.76582 C 49.515704,20.74348 50.276824,19.63404 50.717611,18.42373 C 51.732333,15.63752 51.380979,12.95459 49.868806,11.94231 C 49.025906,11.37806 48.197919,11.16723 46.847889,11.1731 C 45.548965,11.17875 44.583699,11.39042 43.45319,11.91749 C 42.428517,12.39521 41.883343,12.86201 41.535985,13.55907 L 41.23771,14.15763 L 41.23771,19.69505 L 41.23771,25.23248 L 41.497976,25.1535 C 41.641122,25.11007 42.252747,24.9182 42.857143,24.72714 z M 66.545024,39.30017 C 66.76716,38.75556 66.864698,38.24 66.940406,37.21028 C 66.995682,36.45846 67.025243,31.0189 67.006098,25.12236 C 66.96768,13.29001 67.006908,13.92024 66.232864,12.69995 C 65.727549,11.90332 65.142407,11.54374 63.365008,10.93758 C 61.746799,10.38572 61.43377,10.23302 61.546562,10.05051 C 61.581595,9.99383 63.54733,9.94795 65.940893,9.94795 L 70.271833,9.94795 L 70.287063,14.43031 C 70.29544,16.8956 70.33448,23.41527 70.373818,28.91845 L 70.445344,38.92423 L 70.755304,39.47368 L 71.065264,40.02313 L 68.657704,40.02313 L 66.250142,40.02313 L 66.545024,39.30017 z M 172.65486,39.53748 C 173.16416,38.53916 173.237,36.58655 173.19557,25.04338 C 173.15798,14.57022 173.15651,14.51326 172.90462,13.76518 C 172.50093,12.56628 171.38499,10.99862 170.50696,10.39699 C 169.97786,10.03444 170.14942,9.95189 171.4365,9.94972 C 173.19986,9.94674 174.57853,10.55023 175.26487,11.62554 C 175.99626,12.77142 175.87916,12.72712 176.58761,12.12587 C 177.84942,11.05502 179.5014,10.17101 181.09512,9.71384 C 182.28692,9.37196 184.77438,9.27342 185.84403,9.52572 C 188.0262,10.04042 189.66035,11.36536 190.2882,13.12898 C 190.54381,13.84696 190.57943,15.74119 190.35456,16.65703 C 190.12854,17.57758 189.41847,19.03433 188.79459,19.85744 C 187.2837,21.85079 184.36855,23.92968 180.95072,25.45117 L 180.06223,25.8467 L 180.75426,26.21644 C 182.42971,27.11162 183.53365,28.15455 187.98094,33.04368 C 189.78435,35.02626 191.59447,36.93224 192.00344,37.27918 C 193.38308,38.44962 194.95662,39.30488 196.64546,39.80225 L 197.3395,40.00665 L 193.88226,40.01489 L 190.425,40.02313 L 189.52009,39.3716 C 187.75643,38.10175 186.41771,36.64275 182.66153,31.89683 C 181.46554,30.38571 180.16663,28.85905 179.77503,28.50425 C 178.85647,27.67199 177.82703,26.98629 177.27159,26.83672 C 176.40657,26.6038 176.45965,26.26163 176.46662,32.0251 C 176.47414,38.25156 176.5154,38.74425 177.12905,39.93638 C 177.1536,39.98409 176.10121,40.02313 174.7904,40.02313 L 172.4071,40.02313 L 172.65486,39.53748 z M 178.30582,24.64778 C 181.0284,23.75028 182.25507,23.08097 183.7336,21.6862 C 185.20665,20.29661 186.09083,18.62604 186.4122,16.62524 C 186.75464,14.49341 186.25478,12.72105 185.09147,11.94231 C 184.24858,11.37806 183.42059,11.16723 182.07056,11.1731 C 180.77164,11.17875 179.80637,11.39042 178.67586,11.91749 C 177.65119,12.39521 177.10602,12.86201 176.75866,13.55907 L 176.46038,14.15763 L 176.46038,19.68726 C 176.46038,22.72855 176.48717,25.21689 176.51991,25.21689 C 176.55264,25.21689 177.3563,24.96079 178.30582,24.64778 z M 238.89898,39.30017 C 239.12112,38.75556 239.21866,38.24 239.29437,37.21028 C 239.34965,36.45846 239.3792,31.0189 239.36006,25.12236 C 239.32164,13.29001 239.36087,13.92024 238.58682,12.69995 C 238.08152,11.90332 237.49637,11.54374 235.71897,10.93758 C 234.10076,10.38572 233.78773,10.23302 233.90052,10.05051 C 233.93556,9.99383 235.9013,9.94795 238.29485,9.94795 L 242.6258,9.94795 L 242.64103,14.43031 C 242.6494,16.8956 242.68844,23.41527 242.72778,28.91845 L 242.79931,38.92423 L 243.10927,39.47368 L 243.41922,40.02313 L 241.01166,40.02313 L 238.60411,40.02313 L 238.89898,39.30017 z"
     id="path2384"
     style="fill:#000000" />
</svg>
