<svg xmlns="http://www.w3.org/2000/svg" width="246" height="246" viewBox="0 0 246 246"><g fill="#3D3D3D"><path d="M61.437 165.076c.83-1.254 1.83-1.882 2.995-1.882 1.802 0 3.145.77 4.028 2.306.193-.265.428-.543.702-.834.273-.292.71-.61 1.312-.954.6-.345 1.22-.517 1.855-.517 1.412 0 2.596.543 3.55 1.63.954 1.087 1.43 2.885 1.43 5.393v4.638c0 .407-.012.71-.038.914-.027.204-.11.438-.252.703-.23.477-.91.715-2.04.715-1.114 0-1.794-.247-2.04-.742-.125-.265-.2-.5-.227-.702-.026-.203-.04-.508-.04-.914v-4.638c0-1.537-.548-2.306-1.643-2.306-.62 0-1.038.203-1.26.61-.22.406-.33.98-.33 1.722v4.638c0 .424-.014.733-.04.927-.026.195-.11.424-.252.69-.247.476-.937.714-2.067.714-1.11 0-1.792-.247-2.04-.742-.123-.265-.198-.5-.225-.702-.026-.203-.04-.508-.04-.914v-4.64c0-1.536-.547-2.305-1.643-2.305-1.06 0-1.59.77-1.59 2.306v4.69c0 .408-.014.712-.04.916s-.11.437-.252.702c-.265.46-.954.69-2.066.69-1.113 0-1.794-.24-2.04-.716-.125-.265-.2-.495-.227-.69-.026-.193-.04-.502-.04-.926v-9.328c0-.406.014-.71.04-.915.027-.203.11-.428.252-.676.265-.477.892-.715 1.88-.715s1.635.16 1.936.477c.3.316.45.775.45 1.376zM85.102 177.133c-1.784 0-3.264-.676-4.438-2.027-1.176-1.352-1.763-3-1.763-4.943v-4.637c0-.424.015-.733.04-.928.027-.194.103-.424.227-.69.247-.476.936-.715 2.066-.715 1.236 0 1.96.336 2.173 1.007.106.283.16.733.16 1.352v4.638c0 .725.207 1.29.622 1.696.415.407.972.61 1.67.61.697 0 1.263-.212 1.695-.636.434-.424.65-.98.65-1.67v-4.69c0-.406.013-.71.04-.914s.11-.438.25-.702c.23-.46.91-.69 2.04-.69 1.114 0 1.794.24 2.042.717.123.266.198.5.226.703.027.204.04.508.04.915v9.38c0 .39-.013.686-.04.89-.026.202-.11.427-.25.675-.267.46-.946.69-2.042.69-1.078 0-1.74-.213-1.987-.637-.176-.3-.264-.663-.264-1.086-.07.124-.23.3-.478.53-.247.23-.486.424-.716.583-.6.386-1.253.58-1.96.58zM94.537 175.94c-.336-.21-.504-.546-.504-1.006s.336-1.157 1.007-2.094c.194-.3.508-.45.94-.45.434 0 1.02.216 1.763.648.742.433 1.413.65 2.015.65 1.077 0 1.616-.213 1.616-.637 0-.334-.592-.582-1.775-.74-1.114-.16-2.22-.575-3.314-1.247-.513-.318-.937-.817-1.272-1.498-.336-.68-.503-1.488-.503-2.425 0-2.79 1.917-4.187 5.75-4.187 1.256 0 2.545.3 3.87.9.618.284.928.637.928 1.06 0 .425-.194.946-.583 1.564-.39.62-.786.928-1.192.928-.212 0-.605-.132-1.18-.397s-1.196-.397-1.868-.397c-1.042 0-1.563.195-1.563.584 0 .53.6.875 1.802 1.033 1.166.124 2.297.46 3.393 1.007.512.248.94.676 1.285 1.285s.517 1.373.517 2.29c0 .92-.173 1.702-.518 2.346-.345.645-.826 1.126-1.444 1.444-1.13.548-2.55.82-4.253.82-1.707.005-3.346-.49-4.918-1.48zM111.218 160.637c-.132.256-.366.438-.702.543s-.78.16-1.338.16-1.003-.054-1.34-.16-.568-.292-.7-.557-.213-.5-.24-.702-.04-.507-.04-.914c0-.406.015-.71.04-.914s.103-.428.227-.676c.247-.477.936-.716 2.066-.716 1.114 0 1.785.24 2.016.716.14.265.225.5.25.702.028.203.04.508.04.915s-.012.71-.04.914c-.026.204-.105.434-.238.69zm-4.36 4.916c0-.406.015-.71.04-.915.027-.203.103-.437.227-.702.247-.46.936-.69 2.066-.69.85 0 1.45.15 1.804.452.3.248.46.627.477 1.14.02.176.027.432.027.768v9.275c0 .408-.013.712-.04.916-.026.203-.11.437-.25.702-.23.46-.91.69-2.042.69-1.113 0-1.793-.24-2.04-.716-.124-.265-.2-.495-.226-.69-.027-.193-.04-.502-.04-.926v-9.303zM117.46 170.204c0 .75.246 1.334.74 1.75.495.415 1.02.622 1.577.622s1.078-.163 1.563-.49c.486-.327.88-.49 1.18-.49.53 0 1.175.468 1.935 1.405.406.514.61.973.61 1.38 0 .67-.487 1.297-1.458 1.88-1.008.707-2.244 1.06-3.71 1.06-1.644 0-3.225-.59-4.744-1.775-.725-.565-1.316-1.32-1.775-2.266-.46-.946-.69-1.99-.69-3.128 0-1.14.23-2.173.69-3.1.46-.928 1.05-1.674 1.775-2.24 1.466-1.166 3.03-1.75 4.69-1.75.67 0 1.325.094 1.96.28.638.185 1.105.366 1.406.542l.423.265c.317.21.564.38.742.503.46.354.688.755.688 1.206s-.186.957-.557 1.523c-.636.972-1.245 1.458-1.828 1.458-.336 0-.813-.193-1.432-.582-.317-.3-.772-.45-1.364-.45-.593 0-1.145.21-1.656.635-.51.422-.767 1.01-.767 1.76zM132.432 158.98c0-.406.013-.71.04-.914.026-.203.1-.438.225-.703.247-.477.937-.715 2.067-.715 1.077 0 1.75.238 2.014.715.142.265.226.503.252.716.026.21.04.52.04.926v12.27c0 .636.053 1.038.158 1.206.106.168.34.252.703.252.362 0 .605.013.73.04.123.027.273.102.45.226.354.23.53.857.53 1.88 0 1.114-.177 1.794-.53 2.042-.46.318-1.555.37-3.286.16-1.36-.177-2.243-.628-2.65-1.353-.494-.866-.74-2.245-.74-4.135V158.98zM142.396 164.97c1.484-1.378 3.18-2.067 5.088-2.067s3.596.685 5.063 2.054c1.466 1.37 2.2 3.114 2.2 5.234 0 1.467-.38 2.77-1.14 3.91s-1.684 1.98-2.77 2.518c-1.087.54-2.214.808-3.38.808s-2.297-.287-3.392-.86c-1.096-.575-2.02-1.423-2.77-2.545-.75-1.12-1.126-2.388-1.126-3.802 0-2.12.743-3.87 2.226-5.248zm3.312 7.142c.565.433 1.14.65 1.723.65s1.167-.222 1.75-.664c.583-.44.875-1.095.875-1.96 0-.866-.274-1.51-.822-1.936-.547-.424-1.14-.636-1.775-.636-.636 0-1.228.22-1.775.662-.548.442-.82 1.09-.82 1.948s.28 1.503.845 1.936zM164.79 175.438c-.672.884-1.74 1.325-3.207 1.325-1.467 0-2.84-.676-4.12-2.027s-1.922-2.93-1.922-4.73c0-1.802.646-3.383 1.936-4.744 1.29-1.36 2.703-2.04 4.24-2.04.6 0 1.147.11 1.643.33.493.22.834.424 1.02.61.186.185.33.357.438.516.053-.495.233-.87.543-1.126.31-.256.81-.384 1.498-.384.69 0 1.192.053 1.51.16s.544.286.677.542c.133.256.212.482.238.676.026.195.04.495.04.9v10.972c0 2.03-.707 3.67-2.12 4.916-1.414 1.246-3.004 1.868-4.77 1.868-1.344 0-2.624-.327-3.844-.98-1.22-.654-1.83-1.246-1.83-1.775 0-.69.266-1.3.796-1.83.336-.37.597-.626.782-.768.186-.143.4-.213.648-.213s.504.106.77.318c.848.653 1.766.98 2.756.98.67 0 1.22-.265 1.643-.795.424-.53.636-1.166.636-1.908v-.794zm-4.718-5.42c0 .574.226 1.09.676 1.55.45.46.998.69 1.644.69.645 0 1.18-.235 1.603-.703.425-.468.637-.98.637-1.537s-.204-1.078-.61-1.563-.953-.73-1.643-.73-1.246.24-1.67.717c-.426.476-.638 1.002-.638 1.576zM172.74 164.97c1.483-1.378 3.18-2.067 5.087-2.067 1.908 0 3.596.685 5.063 2.054 1.466 1.37 2.2 3.114 2.2 5.234 0 1.467-.38 2.77-1.14 3.91s-1.684 1.98-2.77 2.518c-1.087.54-2.214.808-3.38.808s-2.297-.287-3.392-.86c-1.096-.575-2.02-1.423-2.77-2.545-.75-1.12-1.126-2.388-1.126-3.802 0-2.12.743-3.87 2.227-5.248zm3.31 7.142c.566.433 1.14.65 1.724.65s1.166-.222 1.75-.664c.582-.44.874-1.095.874-1.96 0-.866-.274-1.51-.822-1.936-.547-.424-1.14-.636-1.775-.636s-1.227.22-1.774.662c-.548.442-.82 1.09-.82 1.948s.28 1.503.845 1.936zM186.387 175.94c-.336-.21-.504-.546-.504-1.006s.336-1.157 1.007-2.094c.194-.3.508-.45.94-.45.434 0 1.02.216 1.763.648.742.433 1.413.65 2.015.65 1.077 0 1.616-.213 1.616-.637 0-.334-.592-.582-1.775-.74-1.114-.16-2.22-.575-3.314-1.247-.513-.318-.937-.817-1.272-1.498-.336-.68-.503-1.488-.503-2.425 0-2.79 1.917-4.187 5.75-4.187 1.256 0 2.545.3 3.87.9.618.284.928.637.928 1.06 0 .425-.194.946-.583 1.564-.39.62-.786.928-1.192.928-.212 0-.605-.132-1.18-.397s-1.196-.397-1.868-.397c-1.042 0-1.563.195-1.563.584 0 .53.6.875 1.802 1.033 1.166.124 2.297.46 3.393 1.007.512.248.94.676 1.285 1.285s.517 1.373.517 2.29c0 .92-.173 1.702-.518 2.346-.345.645-.826 1.126-1.444 1.444-1.13.548-2.55.82-4.253.82-1.707.005-3.346-.49-4.918-1.48z"/></g><g fill="#333"><path d="M60.167 93.186c-.14 1.25-.18 2.57-.12 3.94-3.88-1.33-7.79-3.1-11.72-5.39-.11-1.71-.17-2.56-.28-4.27 4.06 2.43 8.1 4.31 12.12 5.72zM86.606 96.656c-.57 1.33-1.3 2.49-2.17 3.49-.09.1-.17.2-.26.29-3.3.14-6.6.07-9.92-.25.01-.88.12-1.66.33-2.34.16-.51.34-.97.55-1.39 3.84.37 7.66.41 11.47.2zM113.556 91.996l.21 3.14c-1.26.34-2.52.68-3.78 1 .26-.56.54-1.1.85-1.6.49-.81.87-1.54 1.49-2.23.41-.1.82-.2 1.23-.31zM131.357 87.386c.06.96.09 1.9.12 2.82-1.51.4-3.03.82-4.54 1.24l-.19-2.88c1.53-.4 3.07-.79 4.61-1.18zM145.147 84.386c.56-.1 1.12-.19 1.67-.28-.05.13-.1.27-.15.41-.26.75-.5 1.51-.72 2.28-.24.04-.47.08-.71.13-.02-.84-.05-1.68-.09-2.54zM196.417 93.726c-3.3-1.92-6.59-3.48-9.86-4.72.11-.15.21-.29.3-.44.2-.32.38-.65.52-1 2.96 1.22 5.94 2.71 8.93 4.5.04.66.06.99.11 1.66zM61.606 106.096c.17.55.34 1.1.54 1.64-4.34-1.19-8.7-2.92-13.11-5.31-.11-1.71-.17-2.57-.28-4.28 4.08 2.28 8.13 3.99 12.15 5.24.2.92.43 1.82.7 2.71zM114.077 99.835l.21 3.13c-2.02.64-4.05 1.27-6.07 1.87-.02-1.18.05-2.31.21-3.37 1.88-.52 3.77-1.07 5.65-1.63zM127.216 95.775c1.42-.44 2.85-.88 4.27-1.3-.01.98-.05 1.94-.09 2.88l-3.99 1.29-.19-2.87zM160.027 88.476c.18.87.48 1.6.84 2.21-.57.05-1.14.1-1.71.16.18-.81.4-1.59.65-2.35.07-.01.14-.02.22-.02zM196.686 97.875c-4.84-2.62-9.63-4.45-14.39-5.64.45-.19.86-.39 1.25-.61.34-.19.66-.39.97-.61 3.99 1.24 8.01 2.94 12.06 5.2.05.67.07 1 .11 1.66zM64.926 114.355c.79 1.56 1.64 3.04 2.54 4.4-5.84-.87-11.74-2.66-17.72-5.65-.12-1.71-.17-2.56-.29-4.27 5.21 2.69 10.36 4.48 15.47 5.52zM95.607 115.465c.13.44.27.88.42 1.3-3.68.91-7.37 1.63-11.08 2.09-.13-.11-.26-.23-.39-.35-.55-.52-1.11-1.05-1.67-1.61.39.04.78.04 1.18.01.96-.06 1.96-.3 2.98-.69 1.09-.43 2.19-1.03 3.28-1.81 1.59-.28 3.18-.6 4.77-.95.14.69.32 1.36.51 2.01zM114.596 107.666l.21 3.12c-1.63.6-3.27 1.19-4.9 1.76-.24-.43-.6-1.15-.97-2.27-.07-.2-.13-.42-.18-.64 1.95-.63 3.89-1.29 5.84-1.97zM127.697 102.985c1.13-.41 2.25-.81 3.38-1.2-.09 1.02-.21 2.02-.33 2.99-.96.35-1.91.71-2.86 1.07l-.19-2.86zM177.207 93.666l-.18.25c-1.05.07-2.01.58-2.77 1.26-.15.13-.42.37-.59.59-.01.02-.02.03-.04.05-5.14-.26-10.23.12-15.29.96.03-.78.1-1.57.19-2.36 2.06-.3 4.13-.52 6.198-.65.75.28 1.56.46 2.41.53 1.34.13 2.77.14 4.36.06l.49-.03c1.17-.08 2.34-.21 3.48-.38l.26-.03c.49-.08.96-.16 1.43-.25h.052zM196.966 102.036c-4.17-2.08-8.3-3.59-12.39-4.59l-.01-.01c-.01-.01-.02-.01-.03-.02-.63-.56-1.29-1.06-1.94-1.49-.73-.48-1.42-.84-2.08-1.08-.36-.14-.72-.26-1.08-.36-.01-.01-.02-.01-.03-.01-.05-.02-.11-.16-.17-.25.06 0 .11 0 .17.01.01 0 .02.12.03.13 5.74.98 11.54 2.91 17.42 5.95.04.66.06 1.06.11 1.72zM72.887 125.706c1.05 1.15 2.1 2.27 3.16 3.32-8.37.22-16.88-1.23-25.59-5.23-.12-1.71-.17-2.57-.29-4.28 7.53 3.58 14.91 5.26 22.19 5.59.17.2.35.4.53.6zM98.126 121.496c.63 1.09 1.3 2.06 2.01 2.9-2.45.8-4.9 1.52-7.36 2.15-.13-.17-.27-.34-.41-.51-.71-.85-1.47-1.68-2.31-2.5 2.7-.56 5.39-1.25 8.07-2.04zM128.176 110.166c.62-.25 1.24-.5 1.87-.75-.21 1.13-.46 2.21-.72 3.24-.32.13-.64.27-.96.41l-.19-2.9zM144.357 104.056c.1.87.21 1.71.34 2.53l-.78.27c.15-.92.29-1.85.41-2.79.01 0 .02-.01.03-.01zM172.966 100.456c.03.2.11.36.13.49-4.84.02-9.65.61-14.4 1.63-.11-.73-.2-1.5-.27-2.31 4.71-.92 9.45-1.44 14.24-1.39v.1c0 .39.19.85.3 1.48zM187.667 102.686c0-.61-.2-1.24-.45-1.85 3.27.89 6.58 2.1 9.91 3.69.05.67.07 1 .11 1.67-3.21-1.48-6.41-2.61-9.57-3.42v-.09zM82.986 137.886c-1.29.22-2.58.4-3.88.54-.5-.77-1.28-1.69-2.56-2.13-.58-.2-1.19-.28-1.8-.24-.89.06-1.74.36-2.53.91-.68.46-1.27 1.06-1.78 1.78-6.31-.23-12.73-1.53-19.27-4.27-.12-1.71-.18-2.56-.29-4.27 10.37 4.5 20.43 5.41 30.3 4.15.49.61.89 1.2 1.22 1.8.29.53.49 1.09.59 1.73zM115.636 123.326l.21 3.14c-6.39 2.98-12.79 5.77-19.25 7.94-.25-1.16-.59-2.25-1.03-3.25 3.12-.96 6.23-2.08 9.33-3.29.77.75 1.57.42 2.39.37.93-.07 1.83-.29 2.68-.78 1.12-.66 2.13-1.55 2.98-2.74.07-.1.14-.19.2-.29.83-.36 1.66-.73 2.49-1.1zM146.077 112.326c.03.09.06.17.09.25-1.24.49-2.49 1-3.73 1.52.24-.97.47-1.96.68-2.96.78-.31 1.56-.61 2.34-.9.18.72.39 1.42.62 2.09zM159.457 105.916c4.42-1.03 8.87-1.69 13.36-1.86-.11.41-.25.83-.43 1.25-.12.3-.26.59-.43.89-3.92.28-7.81.92-11.67 1.86-.3-.62-.58-1.34-.83-2.14zM197.516 110.346c-3.4-1.42-6.76-2.45-10.09-3.14-.01-.56 0-1.16.02-1.8 3.29.75 6.61 1.83 9.96 3.28.04.67.07 1 .11 1.66z"/></g><path fill="#333" d="M135.05 85.9c-.133-1.967-.284-3.637-.456-5.01-.173-1.372-.343-2.515-.51-3.428-.17-.914-.313-1.65-.432-2.21-.12-.56-.188-.996-.21-1.308-.024-.39.16-.777.553-1.16s.883-.656 1.468-.824c1.353-.39 2.365-.393 3.038-.044.673.35 1.162 1.072 1.48 2.137.136.45.272.936.4 1.452.13.518.25 1.12.363 1.807.113.688.22 1.472.32 2.354.097.882.185 1.917.263 3.1.296 4.455.322 8.715.082 12.827s-.686 8-1.334 11.692c-.647 3.69-1.478 7.154-2.492 10.398-1.017 3.245-2.14 6.174-3.374 8.774-1.234 2.6-2.563 4.848-3.993 6.72-1.432 1.87-2.887 3.258-4.37 4.12-.573.335-1.188.563-1.84.682-.655.12-1.27.045-1.84-.222-.573-.268-1.065-.78-1.48-1.536-.416-.754-.67-1.85-.766-3.274l-3.203-48.31c-1.81.842-3.502 1.92-5.076 3.25-1.573 1.33-2.917 2.895-4.025 4.715-1.11 1.824-1.944 3.897-2.505 6.24-.562 2.345-.746 4.95-.558 7.807.12 1.827.403 3.424.844 4.78.442 1.355.934 2.465 1.478 3.322.543.857 1.07 1.478 1.583 1.866.513.39.9.53 1.163.435.238-.086.46-.226.663-.42.202-.192.41-.33.622-.41.42-.158.656.12.703.84.06.92-.07 1.877-.396 2.876-.325 1-.762 1.88-1.305 2.64-.544.757-1.156 1.34-1.832 1.736-.677.396-1.33.437-1.934.184-.722-.3-1.563-.858-2.444-1.72-.88-.86-1.715-2-2.498-3.407-.782-1.408-1.46-3.07-2.03-4.975s-.94-4.044-1.095-6.398c-.217-3.26-.063-6.23.465-8.897.525-2.667 1.31-5.036 2.345-7.126 1.036-2.09 2.288-3.936 3.748-5.566 1.46-1.628 3.014-3.046 4.664-4.27 1.647-1.225 3.336-2.262 5.064-3.113 1.73-.85 3.387-1.527 4.976-2.02.424-.13.84-.17 1.25-.117.408.054.77.19 1.08.41.312.22.575.52.79.895.214.375.337.807.37 1.297 1.096 16.532 2.19 33.065 3.288 49.598.035.544.143.83.32.86.177.028.345-.002.5-.09.393-.216.902-.874 1.533-1.962s1.294-2.575 1.996-4.443c.7-1.868 1.387-4.084 2.056-6.634.668-2.55 1.236-5.403 1.703-8.56s.792-6.595.977-10.327c.185-3.733.136-7.734-.148-12.033zM177.665 114.033c-.192-.072-3.503 3.03-5.564 4.13-2.062 1.102-4.353 1.843-6.866 2.237-2.544.398-4.824.446-6.856-.053-2.034-.5-3.78-1.465-5.246-3-1.467-1.538-2.644-3.6-3.535-6.216-.89-2.613-1.453-5.707-1.688-9.247-.167-2.507-.06-5.17.323-7.952.383-2.78 1.032-5.532 1.95-8.2.917-2.667 2.08-5.192 3.495-7.506 1.414-2.314 3.07-4.273 4.968-5.8 1.9-1.527 4.033-2.572 6.408-3.033 2.376-.46 4.974-.217 7.802.843 1.524.57 2.97 1.392 4.337 2.42 1.365 1.026 2.56 2.195 3.574 3.446 1.014 1.25 1.84 2.56 2.467 3.884.628 1.324.983 2.593 1.063 3.795.076 1.142-.12 2.065-.584 2.803-.464.737-1.124 1.32-1.97 1.79-.847.47-1.844.835-2.986 1.13-1.144.297-2.344.54-3.602.733-1.258.195-2.546.33-3.866.403-1.32.07-2.592.067-3.814-.043-1.006-.092-1.885-.396-2.64-.952-.75-.554-1.166-1.402-1.243-2.56-.017-.25-.013-.524.008-.817.022-.294.064-.565.13-.813.064-.247.145-.454.242-.62.096-.165.227-.24.39-.232.135.007.268.054.394.14.13.088.296.178.505.272.21.095.494.194.853.305.357.112.852.198 1.48.278 1.062.134 2.187.086 3.377-.11 1.19-.194 2.285-.494 3.285-.914 1-.42 1.815-.953 2.446-1.64.63-.685.913-1.522.844-2.557-.024-.38-.142-.82-.352-1.326-.208-.502-.527-1.024-.954-1.558-.427-.533-.982-1.06-1.664-1.563-.68-.504-1.51-.93-2.476-1.24-1.767-.57-3.45-.658-5.047-.276-1.595.382-3.058 1.163-4.386 2.31-1.33 1.147-2.525 2.605-3.585 4.34-1.06 1.736-1.942 3.664-2.642 5.742s-1.204 4.258-1.516 6.503c-.312 2.245-.394 4.442-.253 6.56.174 2.644.563 4.962 1.168 6.945s1.367 3.596 2.288 4.853c.922 1.257 1.975 2.142 3.16 2.69s2.433.718 3.745.553c1.397-.174 2.67-.512 3.826-1.028 1.155-.514 2.183-1.125 3.08-1.856.898-.73 1.67-1.545 2.31-2.463.644-.917 1.17-1.854 1.578-2.83.407-.974.702-1.95.88-2.946.176-.995.234-1.936.175-2.83-.024-.342-.075-.74-.16-1.193-.083-.454-.134-.798-.15-1.034-.02-.32.04-.544.18-.67.14-.125.332-.192.574-.2.242-.005.53.037.86.13.33.092.676.204 1.035.338.388.145.837.38 1.346.712.508.33.998.713 1.474 1.14.474.426.88.865 1.223 1.31.34.444.545.866.545 1.193-.002 1.493-.14 3.16-.096 4.67.047 1.51.122 3.06.228 4.65.1 1.486.216 3.04.35 4.66.136 1.62-.08 4.767.395 5.34.218.26 1.576.463 2.34.774.766.31 1.503.632 2.195.968 1.002.484 1.675 1.112 2.003 1.776.328.664.407 1.24.236 1.733-.17.492-.533.828-1.088 1.032-.554.204-1.22.137-1.96-.2-.64-.29-1.247-.553-1.814-.765-.568-.213-1.706-.622-1.762-.58-.188.142-.048 2.334-.133 3.5-.085 1.168-.275 2.27-.57 3.32-.295 1.05-.707 2.008-1.228 2.896-.522.888-1.196 1.64-2.018 2.284-.822.645-1.83 1.152-3.02 1.565-1.188.413-2.59.665-4.202.81-1.398.126-2.677.116-3.84-.087s-2.164-.557-3.01-1.098c-.848-.542-1.517-1.25-2.008-2.14-.492-.892-.778-1.938-.857-3.136-.12-1.797.2-3.514.96-5.088.76-1.576 1.808-3.005 3.146-4.216s2.9-2.198 4.695-2.876c1.795-.678 3.647-1.09 5.56-1.21l-.045-.638c-.094-1.408-.204-2.66-.33-3.76-.13-1.1-.27-2.833-.27-2.833zm-4.188 21.86c.915-.055 1.688-.343 2.313-.878.627-.536 1.13-1.246 1.5-2.14.374-.896.645-1.92.812-3.08.165-1.162.456-3.54.28-3.702-.513-.473-4.79 1.238-6.178 2.538-1.387 1.3-2.018 2.894-1.902 4.612.07 1.048.406 1.76 1.015 2.153.606.39 1.325.546 2.16.497zM81.894 152.05c-1.774-.248-3.27-.822-4.486-1.62-1.215-.8-2.193-1.655-2.924-2.502-.732-.848-1.257-1.623-1.57-2.287-.315-.664-.478-1.082-.49-1.25-.04-.6.03-1.192.208-1.78.177-.585.414-1.1.708-1.544.295-.445.622-.792.984-1.042s.696-.323 1-.217c.387.135.692.64 1.012 1.206.044.08.21.292.448.62s.566.692.983 1.078c.417.387.93.768 1.534 1.128.605.36 1.305.615 2.1.746 1.72.285 3.08-.224 4.083-1.39 1.004-1.165 1.436-2.818 1.297-4.908-.096-1.457-.474-2.762-1.133-3.944-.66-1.183-1.5-2.318-2.52-3.444-1.02-1.125-2.18-2.292-3.48-3.543-1.298-1.25-2.633-2.627-4.004-4.146s-2.727-3.2-4.065-5.04c-1.338-1.842-2.555-3.89-3.647-6.1-1.092-2.208-2.014-4.575-2.76-7.048-.745-2.474-1.205-5.057-1.38-7.704-.15-2.273.024-4.31.525-6.13.5-1.816 1.258-3.345 2.268-4.636 1.01-1.29 2.23-2.35 3.657-3.245s2.99-1.57 4.688-2.078c1.696-.508 3.48-.822 5.35-.97 1.868-.15 3.758-.067 5.67.24 1.64.264 3.13.707 4.472 1.37 1.342.666 2.492 1.495 3.453 2.533.96 1.038 1.73 2.26 2.312 3.693.583 1.435.93 3.045 1.052 4.855.113 1.72-.04 3.44-.468 5.16-.43 1.72-1.035 3.37-1.824 4.938-.787 1.566-1.7 3.02-2.733 4.337-1.034 1.32-2.11 2.442-3.223 3.358-1.115.917-2.214 1.587-3.294 2.008-1.08.42-2.046.545-2.893.395-.738-.13-1.417-.47-2.035-1.01-.617-.54-1.145-1.168-1.584-1.878-.44-.71-.79-1.435-1.056-2.167-.265-.733-.414-1.362-.448-1.88-.028-.423 0-.683.09-.78.088-.1.222-.11.403-.04.18.073.412.19.692.353.28.16.6.293.958.39 1.156.308 2.4.13 3.734-.555 1.333-.683 2.563-1.695 3.694-3 1.13-1.305 2.052-2.8 2.77-4.446.713-1.646 1.018-3.264.914-4.838-.106-1.605-.535-2.876-1.29-3.848s-1.958-1.523-3.623-1.765c-1.037-.15-2.15-.123-3.34.063s-2.38.502-3.566.95c-1.187.445-2.324 1.028-3.41 1.762-1.086.734-2.03 1.604-2.826 2.638-.797 1.036-1.413 2.25-1.846 3.666-.434 1.416-.588 3.052-.465 4.91.13 1.96.548 3.877 1.25 5.714.704 1.835 1.592 3.6 2.66 5.25 1.07 1.65 2.26 3.2 3.57 4.61 1.31 1.413 2.64 2.744 3.995 3.99 1.353 1.248 2.677 2.44 3.97 3.593 1.293 1.153 2.46 2.337 3.502 3.587 1.042 1.25 1.902 2.6 2.582 4.088.68 1.485 1.084 3.204 1.215 5.184.128 1.918-.065 3.778-.58 5.578-.518 1.8-1.283 3.406-2.3 4.777-1.018 1.372-2.256 2.467-3.72 3.215-1.467.75-3.07 1.04-4.816.795z"/><path fill="#3D3D3D" d="M234.667 236.666h-223v-225h223v225zm-218-5h213v-215h-213v215z"/></svg>
