<?xml version="1.0" encoding="UTF-8"?>
<!DOCTYPE svg PUBLIC "-//W3C//DTD SVG 1.1//EN" "http://www.w3.org/Graphics/SVG/1.1/DTD/svg11.dtd">
<!-- Creator: CorelDRAW -->
<svg xmlns="http://www.w3.org/2000/svg" xml:space="preserve" width="105mm" height="45mm" style="shape-rendering:geometricPrecision; text-rendering:geometricPrecision; image-rendering:optimizeQuality; fill-rule:evenodd; clip-rule:evenodd"
viewBox="0 0 105 45"
 xmlns:xlink="http://www.w3.org/1999/xlink">
 <defs>
  <style type="text/css">
   <![CDATA[
    .str0 {stroke:white;stroke-width:0.0762}
    .fil0 {fill:#1F1A17}
   ]]>
  </style>
 </defs>
 <g id="Layer_x0020_1">
  <metadata id="CorelCorpID_0Corel-Layer"/>
  <path id="Sabato_n_" class="fil0 str0" d="M89.984 21.2745l2.898 -3.402 2.1211 2.3939 2.4568 -2.4358 2.0576 1.8899 0.777 -0.777 0.8399 0.126 0.5251 0.8189 -0.882 1.029 -0.0839 7.2025 1.8058 1.8479 -3.7377 2.877 -2.0998 -2.457 0.0417 -7.5175 -0.8608 -0.8819 -0.7769 0.8819 -0.042 6.5515 0.3781 1.197 -2.478 2.226 -2.4989 -2.1633 0 -0.6927 0.2732 -0.2517 0.0418 -7.5596 -0.7561 -0.903zm-8.2408 0.345l1.8505 1.0079 0.0618 6.7873 -1.8271 -1.1325 -0.0852 -6.6627zm-4.0744 0.1351l0 8.5852c3.4405,1.6526 3.4405,1.6526 4.8955,3.0246 1.1538,-0.9668 2.1714,-2.8503 5.332,-2.5467l0 -10.1649c-2.7464,0.3004 -3.4611,-0.6862 -5.3744,-2.3911 -1.9003,1.9233 -2.5031,2.4012 -4.8531,3.4929zm-11.1355 -0.5971l6.2362 -7.4837 0.0477 5.375 3.3676 -0.0295 -0.0295 3.0289 -3.356 0.0299 0.0597 7.6022 1.7816 -1.3661 1.4849 1.6037 -4.6624 3.8904 -4.0092 -3.237 0.7722 -0.891 -0.0892 -6.9191 -1.6036 -1.6037zm-10.6176 -1.8828l4.6979 -2.0162 2.5465 1.9538 2.4425 -0.7067 0.9459 0.8314 -1.2473 1.5384 0 7.7851 1.5488 0.8312 -3.8042 4.0954 -2.1351 -2.2646 -3.0307 2.8571 -2.7959 -3.0247 -0.1767 -2.7334 0.4782 -2.7337 2.4944 -2.5571 -1.9643 -3.856zm3.3486 1.9037l1.8481 1.2143 -0.2908 1.0395 -0.9875 -0.4154 -0.5698 -1.8384zm0.5488 4.4782l1.2993 0.0623 0.0935 2.401 -1.2472 1.0394 -0.1456 -3.5027zm-11.4201 -3.6691l1.0679 -0.946 0 7.837 -1.1328 -0.6549 0.0649 -6.2361zm-5.9748 -8.3108l2.7916 0.0266 0.4468 1.3929 1.3094 -1.424 3.6796 0.0625 -1.8399 1.954 -0.1247 3.565 2.4429 -2.1309 2.9103 2.609 -0.0062 10.9239 -1.1269 0.0623 -3.8041 3.6275 -4.3864 -3.5025 -1.3719 -0.5409 0 -1.4859 0.3534 -0.239 -0.0519 -12.5872 -1.222 -2.3133zm-10.9988 5.4791l4.6981 -2.0165 2.5466 1.9541 2.4426 -0.7067 0.946 0.8314 -1.2474 1.5384 0 7.785 1.5486 0.8316 -3.804 4.0952 -2.1353 -2.2648 -3.0304 2.8573 -2.7962 -3.0247 -0.1766 -2.7334 0.4779 -2.7337 2.4949 -2.5571 -1.9648 -3.8561zm3.3489 1.9039l1.8483 1.2143 -0.2912 1.0394 -0.9873 -0.4157 -0.5698 -1.838zm0.549 4.4779l1.2993 0.0624 0.0934 2.4011 -1.2473 1.0392 -0.1454 -3.5027zm-10.5081 -2.9801c-0.5084,-1.3612 -1.9679,-1.8664 -3.2059,-0.4195l-2.0384 7.1119c0.1014,-0.0201 0.2062,-0.0307 0.3135,-0.0307 0.3006,0 0.5819,0.0827 0.8225,0.2265l4.1083 -6.8882zm1.9198 1.8167c-0.2663,-1.1774 -0.5488,-1.6635 -1.9198,-1.8167l-4.1083 6.8882c0.1281,0.0766 0.2446,0.1705 0.3464,0.2785l5.6817 -5.35zm1.0097 2.8807c0.2376,-1.7522 0.2376,-1.7522 -1.0097,-2.8807l-5.6817 5.35c0.1202,0.1276 0.2197,0.2749 0.2933,0.4365l6.3981 -2.9058zm2.9698 8.1961c-0.8316,-3.1478 -1.0088,-5.7685 -2.9698,-8.1961l-6.3981 2.9058c0.0921,0.2025 0.1434,0.4273 0.1434,0.6641 0,0.157 -0.0226,0.3088 -0.0647,0.4522 3.2063,0.9682 5.835,1.9813 9.2892,4.174zm-10.8301 -3.0206c-0.8866,0 -1.6056,-0.719 -1.6056,-1.6056 0,-0.8866 0.719,-1.6056 1.6056,-1.6056 0.8866,0 1.6056,0.719 1.6056,1.6056 0,0.8866 -0.719,1.6056 -1.6056,1.6056zm1.7249 -10.2924c-1.5129,-2.031 -3.8535,-3.8896 -8.181,-6.9995l2.8572 -3.6509c1.453,1.9053 2.6334,2.6465 5.1078,3.623 3.1373,6.762 4.6123,7.2496 8.3746,9.6812 -1.8615,-3.5078 -3.7121,-5.786 -1.188,-10.869 -6.1427,-1.6963 -9.5959,-5.1599 -13.126,-12.2352 -1.5878,7.9474 -6.1174,9.503 -10.9877,13.0072 6.9059,3.8754 11.6044,9.8681 14.5979,14.7497 0.1541,-0.0918 0.3249,-0.1585 0.5067,-0.1946l2.0385 -7.1119zm-4.8714 21.1733c5.6617,-9.3403 7.3531,-9.6235 8.7471,-10.6155 -1.3213,-0.5484 -2.6334,-0.9881 -4.0597,-1.4188 -0.1954,0.6665 -0.8113,1.1534 -1.5409,1.1534 -0.4772,0 -0.9059,-0.2084 -1.2,-0.5391 -0.8972,0.9872 -1.6205,2.2544 -2.6365,3.9478 -0.5499,-3.0265 -3.0112,-3.5157 -5.1078,-4.9297l0.9502 -0.3564c-1.5143,-5.3962 -4.8728,-7.5649 -9.3841,-9.5031 1.7993,3.8719 1.7223,6.9194 1.7093,10.463 6.2489,3.318 8.6898,6.9834 12.5224,11.7984z"/>
 </g>
</svg>
