<?xml version="1.0" encoding="utf-8"?>
<!-- Generator: Adobe Illustrator 28.2.0, SVG Export Plug-In . SVG Version: 6.00 Build 0)  -->
<svg version="1.1" id="Layer_1" xmlns="http://www.w3.org/2000/svg" xmlns:xlink="http://www.w3.org/1999/xlink" x="0px" y="0px"
	 viewBox="0 0 200 200" style="enable-background:new 0 0 200 200;" xml:space="preserve">
<style type="text/css">
	.st0{fill:#CE392B;}
	.st1{fill:#82898F;}
	.st2{fill:#EDEFEF;}
</style>
<rect width="200" height="200"/>
<g>
	<path class="st0" d="M144.1,22.9c0,0,0.1-0.1,0.2-0.2c0,0.3,0,0.6,0,0.9c-1,0.6-1.6,1.6-2.1,2.5c-0.4,0-0.8-0.1-1.1-0.4
		c-0.1-0.2,0-0.5,0.3-0.6C142.3,24.6,143.2,23.8,144.1,22.9L144.1,22.9z M141.8,25.9L141.8,25.9C141.8,26.6,142.4,25.6,141.8,25.9
		L141.8,25.9z"/>
	<path class="st0" d="M144.8,24.9c0.1-0.6,0.1-1.3,0.7-1.8c0,1.1,0.5,2.4,0.1,3.5c0-0.6-0.1-1.1-0.1-1.7c-0.5,0.4-0.5,1.1-0.6,1.7
		l-0.2,0c0-0.3,0.1-0.7,0.1-1c-0.1-0.1-0.3-0.3-0.4-0.3c0-0.3,0-0.5,0-0.8C144.5,24.6,144.6,24.8,144.8,24.9L144.8,24.9z"/>
	<path class="st0" d="M142.6,26.3c0.4-0.3,0.7-0.5,1.1-0.8c-0.1,0.4-0.2,0.7-0.4,1.1C143.1,26.5,142.9,26.4,142.6,26.3L142.6,26.3z"
		/>
	<path class="st0" d="M50.8,26.9c0.2-0.2,0.4-0.4,0.6-0.6c0.5,0.2,0.8,0.6,1.2,0.9c-0.6,0.2,0.1,0.8,0.2,0.3
		c0.3,0.4,0.6,0.9,0.9,1.3c-0.2,0.1-0.4,0.2-0.6,0.4c-0.6-0.7-1.2-1.5-1.9-2.1c0.3,0.7,0.7,1.4,1.3,2c-0.2,0.1-0.4,0.3-0.6,0.4
		C51.5,28.7,50.9,27.9,50.8,26.9L50.8,26.9z"/>
	<path class="st0" d="M140.5,26.6c0.3-0.1,0.5-0.2,0.8-0.2l-0.1,0.1c-0.1,0.1-0.2,0.2-0.3,0.3c0.1,0.6,0.2,1.3,0.5,1.9
		c0.1-0.5,0.1-1,0.1-1.6c0.4,0.8,0.6,1.7,0.6,2.6c-0.2,0-0.5-0.1-0.7-0.1C141.1,28.6,140.7,27.6,140.5,26.6L140.5,26.6z"/>
	<path class="st0" d="M49.2,28.4c0.2-0.4,0.4-0.8,0.6-1.2c0.4,0.9,0.5,2,0.8,3c-0.2,0.2-0.4,0.4-0.6,0.5l0-0.2
		c-0.2-0.7-0.3-1.4-0.6-2L49.2,28.4L49.2,28.4z"/>
	<path class="st0" d="M143.7,27.3c0.2,0.1,0.5,0.2,0.7,0.3c-0.2,0.6-0.6,1.1-0.5,1.7c-0.1,0.2-0.1,0.3-0.2,0.5l-0.1,0
		c-0.2-0.1-0.4-0.1-0.6-0.2c0-0.3,0-0.6,0-0.9C143.3,28.1,143.5,27.7,143.7,27.3L143.7,27.3z"/>
	<path class="st0" d="M137.5,27.9c0.1,0.4,0.3,0.8,0.5,1.2c-0.6,0.3-1.2,0.6-1.8,0.9c-0.3-0.2-0.7-0.3-1-0.4
		C136.4,29.8,136.9,28.6,137.5,27.9L137.5,27.9z"/>
	<path class="st0" d="M52.4,30.3c0.4-0.7,1.3-0.8,2-0.9c-0.2,1.1-0.4,2.3-1,3.3c-0.3-0.1-0.5-0.2-0.8-0.2c0.1-0.1,0.3-0.2,0.4-0.2
		c-0.3-0.4-0.6-0.8-0.6-1.3c0.1,0.2,0.3,0.5,0.4,0.7c0.1,0,0.3,0,0.3,0c0.4-0.6,0.6-1.3,0.9-1.9c-0.5,0.2-0.9,0.4-1.4,0.6
		c-0.5,0.1-1.1,0-1.7,0.1c0.1,0.2,0.3,0.3,0.4,0.5c0,0.1-0.1,0.2-0.1,0.3c0.3,0.8,0.9,1.5,0.7,2.4l-0.1-0.1c-0.3-0.4-0.8-0.8-1-1.3
		c-0.1-0.5,0-0.9,0-1.4c0-0.4,0-0.8,0.1-1.2c0.1,0.2,0.2,0.5,0.4,0.7c0.1-0.2,0.3-0.4,0.4-0.5C51.8,30.1,52.1,30.2,52.4,30.3
		L52.4,30.3z"/>
	<path class="st0" d="M140.7,29.9c0.5,0.3,1.4,0.6,1.2,1.4c-0.4,0.4-1.1,0.4-1.6,0.5c0-0.4,0-0.9,0-1.3
		C140.5,30.3,140.7,30.2,140.7,29.9L140.7,29.9z"/>
	<path class="st0" d="M146.2,31.7c0.8,0.1,0.8-1,1.5-1.2c0,0.2,0.1,0.5,0.2,0.7c0.2-0.1,0.5-0.1,0.7-0.2c0.1,0.4,0.2,0.8,0.3,1.2
		c-1.5-0.3-3-0.2-4.5-0.2C144.9,31.8,145.5,31.7,146.2,31.7L146.2,31.7z"/>
	<path class="st0" d="M142.9,30.9c0.3-0.1,0.7-0.1,1.1-0.1c-0.1,0.3-0.2,0.6-0.2,0.9c-0.3,0-0.6,0-0.9-0.1
		C142.8,31.4,142.8,31.1,142.9,30.9L142.9,30.9z"/>
	<path class="st0" d="M58.2,31c0.2,0.2,0.4,0.5,0.6,0.7c-0.2,0.2,0,0.6,0.3,0.6c-0.2,0.1-0.5,0.2-0.7,0.3c-0.3-0.4-0.6-0.8-1.1-1.1
		C57.6,31.4,57.9,31.2,58.2,31L58.2,31z"/>
	<path class="st0" d="M140.3,32.4c0.6-0.1,1.6-0.4,1.9,0.3C141.5,32.9,140.8,32.9,140.3,32.4L140.3,32.4z"/>
	<path class="st0" d="M53.6,35.2c-0.1-0.7-0.1-1.5,0.7-1.7c0.5,0.4,0,1.1,0,1.7C54.1,35.1,53.8,35.1,53.6,35.2L53.6,35.2z"/>
	<path class="st0" d="M142.5,34.3c0.5,0,1,0,1.6,0c-0.4,0.7-0.7,1.6-0.9,2.4c-0.4-0.1-0.5,0.4-0.3,0.6c0,0.3-0.1,0.6-0.1,0.9
		c-0.5-0.2-0.6,0.6,0,0.5c-0.1,0.5-0.2,1-0.3,1.5c-0.7,0-1.3-0.2-1.9-0.6c0.5-0.6,1-1.3,1.6-1.8c-0.6,0-1.2-0.1-1.8-0.2
		c0.3-0.5,0.9-0.5,1.4-0.6c0-0.1,0-0.2,0.1-0.3c-0.4-0.2-0.8-0.3-1.2-0.5c0.3,0.1,0.4-0.1,0.4-0.4c0.5,0,0.9-0.1,1.4-0.1
		C142.5,35.1,142.5,34.7,142.5,34.3L142.5,34.3z"/>
	<path class="st0" d="M52.6,34.4l0.1,0c-0.2,0.7-0.8,1.2-1.5,1.5c-0.2-0.2-0.4-0.4-0.7-0.6C51.2,34.9,51.9,34.7,52.6,34.4L52.6,34.4
		z"/>
	<path class="st0" d="M47,34.9c0.6,0.1,1.1,0.2,1.7,0.3c-0.4,0-0.8,0.1-1.1,0.4c0.5,0,1.1,0,1.6-0.1c0.1,0,0.3-0.1,0.4-0.1
		c0.2,0.1,0.3,0.2,0.5,0.3c-0.4,0.2-0.9,0.5-1.3,0.5c-0.4-0.1-0.7-0.4-1-0.4c-0.5,0.1-0.6,0.7-0.8,1.1c-0.3-0.2-0.5-0.3-0.8-0.5
		C46.5,35.9,46.8,35.4,47,34.9L47,34.9z"/>
	<path class="st0" d="M55.9,35.3c0.2,0.2,0.4,0.4,0.4,0.6c0.5,2,1.2,4,2.1,5.9C58.2,41.9,58,42,57.8,42c-0.2-1.2-0.8-2.2-1.2-3.3
		C56.4,37.6,55.8,36.5,55.9,35.3L55.9,35.3z"/>
	<path class="st0" d="M54.2,35.9c0.1,0.1,0.2,0.2,0.2,0.3c-0.4,0.1-0.8,0.3-1.2,0.4C53.6,36.4,53.9,36.1,54.2,35.9L54.2,35.9z"/>
	<path class="st0" d="M51.2,38.1c0.2-0.1,0.3-0.3,0.5-0.4c0.4,0.3,0.9,0.5,1.3,0.7c0,0,0.1,0.1,0.2,0.1c-0.1,0.4-0.1,0.7-0.2,1.1
		c0.3-0.2,0.5-0.4,0.8-0.6c0.1,0,0.2,0.1,0.2,0.2c0.1,0.1,0.3,0.2,0.4,0.3c-0.4,0.3-0.7,0.7-1.1,1c0.2,0,0.5,0.1,0.6,0.1
		c0.1,0.4,0.7,0.2,0.3-0.1c0.1,0.1,0.4,0.4,0.5,0.5c-0.7,0.6-1.3,1.1-1.9,1.7C52.3,41.1,51.9,39.6,51.2,38.1L51.2,38.1z"/>
	<path class="st0" d="M129.9,39.4c0.7,0.1,0.8,0.8,1.1,1.3c0.2,0.3,0.5,0.5,0.8,0.7c0,0.8-0.7,1.9-1.6,1.5c0-0.3-0.1-0.5-0.4-0.4
		C130,41.5,129.9,40.4,129.9,39.4L129.9,39.4z"/>
	<path class="st0" d="M137.5,40.8c0.2-0.3,0.4-0.5,0.7-0.8c0.4,0.4,0.7,0.8,1.1,1.2c-0.2,0.5-0.5,1.1-0.8,1.6
		c-0.6-0.5-0.1-1.3-0.3-2c-0.5,0-0.7,0.6-0.9,1c-0.1-0.3-0.1-0.6-0.2-0.8c-0.2,0-0.5,0-0.6-0.1c0,0.7,0,1.4,0,2.1
		c-0.9-0.6-2-0.4-2.9-1.1c0-0.1,0-0.2,0-0.3c0.8-0.1,1.5,0,2.3,0.1c0.2-0.3,0.2-0.8,0.5-0.9C136.7,40.8,137.1,40.8,137.5,40.8
		L137.5,40.8z"/>
	<path class="st0" d="M140.2,40.8c0.9-0.2,1.6,0.5,2.1,1.1c-0.2,0.2-0.4,0.4-0.6,0.6c-0.7-0.2-1.2-0.7-1.8-1.1
		C140,41.2,140.1,41,140.2,40.8L140.2,40.8z"/>
	<path class="st0" d="M65.2,42.4c0.3-0.6,0.9-1,1.4-1.5c0,0.1,0.1,0.3,0.2,0.3c-0.3,0.4-0.6,0.8-0.8,1.2c0.5,0.5,0.8,1.1,1.3,1.7
		c0,0.1-0.1,0.4-0.1,0.5c-0.5,0.3-1.3,0.6-1.8,0C64.7,44,65,43.1,65.2,42.4L65.2,42.4z"/>
	<path class="st0" d="M55,42.6c0.2-0.1,0.4-0.2,0.6-0.3c0,0.3,0.3,0.5,0.6,0.4C55.8,42.9,55.4,42.7,55,42.6L55,42.6z"/>
	<path class="st0" d="M140.2,43.6c0.1-0.4,0.2-0.8,0.3-1.1c0.5,0.2,0.9,0.3,1.4,0.4c0.3,0.8,1.3,1,1.7,1.6c-0.9,0.3-1.6-0.4-2.5-0.6
		C140.8,43.8,140.5,43.7,140.2,43.6L140.2,43.6z"/>
	<path class="st0" d="M52.9,42.7c0.5,0.1,1,0.2,1.6,0.3c-0.3,0.5-0.6,1-1.1,1.4C52.8,44.2,53,43.3,52.9,42.7L52.9,42.7z"/>
	<path class="st0" d="M57.3,42.9c0.7-0.2,1.3,0.1,1.7,0.6c0,0.3,0,0.6,0,0.9c0.3,0,0.7,0,1,0c0,0.4,0,0.9-0.1,1.3
		c-0.7,0.1-1.4,0.5-2,0.4c-0.7-0.6-0.7-1.5-0.9-2.3c0.4,0,0.6-0.4,0.4-0.7L57.3,42.9L57.3,42.9z"/>
	<path class="st0" d="M62.7,43.7c0.4-0.2,0.7-0.4,1.1-0.6c0.2,0.4,0.3,0.8,0.5,1.2c-0.4-0.1-0.7-0.5-1.1-0.3
		c-0.7,0.3-1.5,0.3-2.2,0.5c-0.1-0.1-0.2-0.3-0.2-0.4c0,0,0.1-0.1,0.1-0.2C61.5,43.7,62.1,43.8,62.7,43.7L62.7,43.7z"/>
	<path class="st0" d="M55.3,44.2c0.3,0,0.5,0,0.8-0.1c0.2,0.9,0.5,1.8,0.8,2.6c-0.4,0.1-0.9,0.1-1.4,0.1c0.1-0.3,0.3-0.5,0.4-0.8
		c-0.4-0.3-0.8-0.2-1.3,0c0-0.3-0.1-0.4-0.4-0.3c0.4-0.2,0.9-0.2,1.1-0.6C55.4,44.9,55.3,44.5,55.3,44.2L55.3,44.2z"/>
	<path class="st0" d="M146.8,45.5c0.6-0.4,1.1-0.7,1.8-0.7c0.2,0.1,0.4,0.2,0.5,0.3c-0.3,0.5-0.6,0.9-0.8,1.5c-0.1,0.5,0,1,0,1.5
		c-0.3,0-0.7,0.1-1-0.2c-0.3-0.3-0.5-0.8-0.7-1.1c-0.4-0.3-1-0.1-1.4-0.4c-0.5-0.4-0.9-0.8-1.3-1.3c0.4,0.2,0.7,0.3,1,0.5
		C145.6,45.1,146.2,45.3,146.8,45.5L146.8,45.5z"/>
	<path class="st0" d="M63.7,44.9c0.2,0.2,0.3,0.3,0.5,0.4c0.2,0.1,0.3,0.3,0.5,0.4c-0.4,0.2-0.7,0.5-1,0.8c0-0.2,0-0.5,0-0.7
		c-0.4,0.2-0.6,0.5-0.8,0.8c-0.2,0.1-0.3,0.3-0.4,0.5c-0.3-0.6-0.3-1.3-0.1-1.9C62.8,45.2,63.2,45,63.7,44.9L63.7,44.9z"/>
	<path class="st0" d="M141.9,45c0.6,0.1,1.2,0.3,1.7,0.7c-0.4,0.6-0.7,1.2-0.9,1.9c-0.1,0-0.3,0-0.4,0c-0.2-0.5-0.4-0.9-0.6-1.4
		C141.7,45.7,141.8,45.3,141.9,45L141.9,45z M141.9,45.2L141.9,45.2C141.6,45.8,142.6,45.2,141.9,45.2L141.9,45.2z"/>
	<path class="st0" d="M48.2,48.2c0-0.7,0.9-0.2,1.3-0.2c0.2,1,1.1,1.9,1,3c0,0.5-0.2,0.9-0.5,1.2c-0.2-0.8-0.2-1.8-0.9-2.3
		c-0.4-0.2-0.9-0.2-1.4-0.3c0-0.4-0.1-0.7-0.1-1.1l0.1,0.1C48,48.9,48.2,48.5,48.2,48.2L48.2,48.2z"/>
	<path class="st0" d="M51.4,48.5c0.2-0.3,0.4-0.6,0.9-0.6c0,0.3,0.1,0.6,0.1,0.9C52.1,48.6,51.7,48.5,51.4,48.5L51.4,48.5z"/>
	<path class="st0" d="M53.7,50.8c-0.4-0.7-0.8-1.8,0.1-2.3C54,49.3,54.2,50.2,53.7,50.8L53.7,50.8z"/>
	<path class="st0" d="M144.1,66.4c0.7,0.6,1,1.6,1.6,2.3c1.2,1.8,2.5,3.5,3.6,5.3c1.2,1.4,2,3.1,3.2,4.5c0.9,1.2,1.7,2.6,2.7,3.8
		c1.2,1.6,2.2,3.4,3.4,5.2c0.2,0.3,0.4,0.6,0.3,0.9c-0.5,0.6-1.3,0.8-2,1.1c-2.1,1.1-4.2,2-6.3,3c-0.7,0.3-1.5,0.5-2,1.1
		c0,0.6,0.4,1,0.6,1.6c0.8,2.2,1.5,4.3,2.1,6.5c0.4,1.6,1.1,3.1,1.6,4.7c0.7,2.2,1.4,4.4,2.1,6.6c0.2,0.9,0.6,1.8,0.6,2.7
		c-0.3,0.6-1.1,0.3-1.6,0.4c-0.5-1.1-0.8-2.3-1.1-3.4c-1-2.7-1.8-5.5-2.9-8.2c-0.7-2-1.2-4-2-5.9c-0.5-1.3-0.9-2.8-1.6-4
		c-2.5,0.9-4.9,2.3-7.4,3.2c-0.7,0.2-1.3,0.7-2,1c-0.4,0.1-0.4,0.5-0.5,0.9c-0.5,2.1-1.4,4.1-1.7,6.2c-0.5,1.5-1,3.1-1.4,4.7
		c-0.4,2.2-1.4,4.4-1.8,6.6c-0.1,0.6-0.9,0.7-1.4,0.9c-0.1,0-0.3,0-0.4,0c-0.2-0.6-0.4-1.2-0.2-1.8c0.7-2.4,1.3-4.8,2.1-7.2
		c0.3-0.8,0.5-1.6,0.7-2.4c0.4-1,0.7-1.9,0.9-2.9c0.5-2,1.4-3.9,1.8-5.9c0.2-1.1,0.6-2.2,0.9-3.3c0.3-1.6,1-3,1.2-4.5
		c1-3.5,2.1-7,3-10.6c0.3-1.6,1-3.1,1.4-4.7C142.5,72,143.1,69.2,144.1,66.4L144.1,66.4z M144.2,72L144.2,72c-0.6,2-0.9,4-1.6,5.9
		c-0.4,1.8-1,3.5-1.4,5.3c-1.1,3.7-2,7.6-3.3,11.3c-0.2,0.6-0.2,1.2-0.2,1.8c0.7-0.3,1.4-0.6,2.1-1c0.8-0.4,1.6-0.7,2.4-1.1
		c4.4-2.4,9-4.3,13.3-6.9c-0.1-0.3-0.2-0.6-0.4-0.9c-0.7-1-1.4-2-2-3.1c-0.6-1.1-1.5-2.2-2.2-3.3c-1.5-2.4-3.1-4.8-4.7-7.1
		c-0.5-0.7-1-1.5-1.6-2.2C144.3,71,144.4,71.6,144.2,72L144.2,72z"/>
	<path class="st0" d="M135.6,67.8c0.1,0,0.3-0.1,0.4-0.1c-0.1,0.2-0.3,0.4-0.4,0.6c0.5-0.2,0.9-0.4,1.3-0.7c0.1,0.5,0.4,0.9,0.4,1.4
		c-0.5,0.8-1.4,1.1-2.3,1.1C135.2,69.3,135.4,68.5,135.6,67.8L135.6,67.8z"/>
	<path class="st0" d="M87.5,72.3c0.4-0.5,1.1-0.6,1.7-0.7c0.4,1,0.2,2.2,0.5,3.2c0.3,1.1,0.3,2.3,0.4,3.4c0.2,1.5,0.4,3,0.3,4.5
		c0,0.8-1,1.7-1.7,1.1c-0.2-2.4-0.4-4.9-0.7-7.3c0-0.2-0.1-0.3-0.3-0.5c-0.4,0.1-0.5,0.5-0.6,0.8c-0.6,1.1-1.3,2.2-1.7,3.3
		c-1.1,2-2.2,3.9-3.2,5.9c-1.4,2.4-2.6,5-4,7.3c-0.5,1.1-1.2,2-1.7,3.1c-0.3,0.8-0.9,1.5-1.1,2.3c1.5,0.3,3,0.1,4.5,0
		c1.6-0.3,3.2-0.1,4.9-0.3c1.7-0.1,3.3,0,5-0.1c0.4,0,0.5-0.4,0.7-0.7c-0.2,0-0.5,0.1-0.6,0.1c0-0.3,0-0.6,0-0.9
		c0.6-1.1,0.1-2.4,0-3.6c-0.1,0.1-0.3,0.2-0.4,0.3c-0.1-0.6-0.1-1.2-0.2-1.8c0.1,0.2,0.3,0.3,0.4,0.5c0-0.6,0-1.2,0.1-1.8
		c0.5-0.5,1-1.2,1.8-1.1c0.1,1.3,0,2.6,0.3,3.9c0.5,1.6,0.1,3.4,0.8,5c0.3,0,0.6,0,0.9,0c0,0.5,0.2,1-0.1,1.5
		c-0.3,0.1-0.6,0.2-0.8,0.3c0,1.8,0.4,3.6,0.4,5.4c0,1.1,0.3,2.2,0.4,3.3c0.2,1.7,0.3,3.5,0.5,5.2c0.3,1.8,0.3,3.6,0.6,5.3
		c0.2,1.2,0.2,2.4,0.2,3.6c-0.5-0.1-1-0.1-1.6-0.2c-0.3-1.4-0.3-2.8-0.6-4.2c-0.3-1.5-0.3-3.1-0.6-4.6c-0.3-1.7-0.1-3.5-0.4-5.2
		c-0.4-1.8-0.3-3.7-0.7-5.5c-0.2-1,0-2.1-0.3-3c-2-0.3-4,0-6,0c-1.9,0.2-3.7,0.1-5.6,0.3c-1.4,0.1-2.9,0-4.3,0.2
		c-0.7,0.1-0.9,0.8-1.3,1.3c-1.5,2.7-2.8,5.4-4.4,8c-0.6,1-0.9,2.2-1.9,2.9c-0.5,0.1-1-0.1-1.6-0.1c0.2-0.6,0.3-1.2,0.6-1.7
		c1.7-2.7,3.1-5.6,4.7-8.3c0.3-0.6,0.7-1.2,0.8-1.9c-0.9-0.1-1.7,0-2.6-0.1c-0.4-0.4,0-1.1,0-1.7c1.2-0.1,2.4,0,3.5-0.1
		c0.6-0.1,0.8-0.7,1.1-1.2c1-2.3,2.4-4.4,3.5-6.6c0.5-0.9,0.9-1.9,1.5-2.8c1-1.6,1.7-3.3,2.7-4.9c0.6-0.9,1-2,1.5-2.9
		c0.9-1.5,1.6-3,2.5-4.5C85.9,74.9,86.6,73.6,87.5,72.3L87.5,72.3z"/>
	<path class="st0" d="M125.7,72.1c0.6-0.2,1.2-0.5,1.9-0.7c0.5,0.2,0.2,0.7,0.1,1c-0.3,0.7-0.9,1.2-1.6,1.5c-1.2,0.5-2.3,1-3.5,1.4
		c-1.2,0.4-2.4,1.1-3.6,1.4c-0.8,0.3-2,0.3-2.3,1.3c-0.8,2.1-1.3,4.4-2,6.5c-1.3,4-2.5,8.1-3.9,12.2c-0.2,0.4,0.1,0.8,0.5,0.6
		c1.8-0.3,3.5-0.1,5.3-0.4c1.8,0,3.6-0.4,5.3,0c0.3,0.5,0.2,1.1,0.3,1.7c-1.4,0-2.8,0.2-4.2,0.2c-0.4,0.1-0.9-0.1-1,0.4
		c1.2,0.1,2.3,0,3.5,0c-3.4,0.2-6.7,0.5-10.1,0.7l-0.1,0c0.8,0,1.5-0.2,2.2-0.5c1.3-0.3,2.8,0.3,4.1-0.2c-1.6-0.1-3.2-0.1-4.8,0.1
		c-0.5,0.1-1.2-0.1-1.6,0.3c-0.5,0.4-0.6,1.1-0.8,1.7c-0.6,1.8-1,3.6-1.7,5.4c-0.5,1.8-1.2,3.6-1.7,5.4c-0.4,1.8-1.2,3.5-1.7,5.2
		c-0.3,1.2-1,2.3-0.9,3.6c0.8,0,1.6-0.1,2.4-0.2c2.6-0.2,5.1-0.2,7.7-0.4c1.8-0.3,3.7-0.2,5.6-0.4c1.5,0,3-0.4,4.5-0.2
		c0.3,0.4,0.6,1.2,0.1,1.5c-1.2,0.5-2.5,0.2-3.7,0.4c-2.3,0.5-4.8,0.1-7.1,0.5c-2.5,0.4-5,0.4-7.4,0.4c-1.6,0.2-3.1,0.2-4.7,0.3
		c0-0.4,0.1-0.8,0.2-1.1c1.1-3.2,1.9-6.4,3-9.5c0.5-1.1,0.7-2.4,1.2-3.5c0.7-2.5,1.5-4.9,2.4-7.4c0.3-1.3,0.7-2.5,1.2-3.7
		c0.9-2.3,1.3-4.7,2.2-6.9c0.3-1.1,0.6-2.1,1-3.1c0.4-2,1.2-3.8,1.7-5.7c0.3-1.2,0.9-2.4,1.2-3.6c0.2-0.6,0.2-1.3,0.8-1.7
		c1.2-1,2.7-1.3,4.1-1.9C121.6,74,123.5,72.8,125.7,72.1L125.7,72.1z"/>
	<path class="st0" d="M57.6,72.3c0.4-0.3,1-0.2,1.4-0.1c-0.3,2.6-1.1,5.2-1.7,7.8c-0.5,2.3-1,4.7-1.7,7c-0.3,2.2-1,4.3-1.5,6.5
		c-0.4,2.1-1,4.2-1.5,6.3c-0.3,2-1,3.9-1.4,5.9c2.2-0.4,4.3-0.8,6.4-1.3c0,1.7-0.7,3.4-1,5.1c-0.2,1-0.7,2-0.8,3
		c-0.4,2.1-1,4.2-1.5,6.3c-0.7,2.1-0.8,4.3-1.6,6.4c-0.5,2.4-1,4.7-1.7,7c-0.5,1.6-0.7,3.4-1.2,5c-0.3,1.1-0.6,2.1-0.8,3.2
		c-0.6,0-1.2,0-1.7,0c-0.1-0.5,0-1.1,0.2-1.6c0.7-3.4,1.6-6.7,2.3-10.1c0.9-2.9,1.2-6,2.1-8.9c0.6-2.9,1.4-5.7,2-8.6
		c0.3-1.3,0.7-2.5,0.9-3.8c-1.6-0.1-3.1,0.4-4.7,0.6c-0.1,0.1-0.3,0.4-0.3,0.5c0.7,0.1,1.4-0.1,2-0.2c-0.9,0.2-1.7,0.4-2.6,0.6
		c-0.4-1-0.3-2,0.1-3c0.6-3.2,1.5-6.4,2.3-9.6c0.6-2.7,1.2-5.4,1.9-8c0.2-1,0.4-2,0.7-3c0.6-2.3,1.1-4.7,1.7-7
		c0.3-1.6,0.9-3.1,1.2-4.7C57.1,73,57.2,72.4,57.6,72.3L57.6,72.3z"/>
	<path class="st0" d="M93.4,73.4c0.5,0,1,0,1.4,0c0.4,1.1,0.2,2.4,0.4,3.6c0.4,2.1,0.3,4.3,0.7,6.4c0.4,1.4,0.2,2.9,0.4,4.3
		c0.3,1.6,0.3,3.2,0.6,4.9c0.3,2.4,0.5,4.8,0.8,7.2c0.2,1.1,0.2,2.2,0.3,3.3c0.1,1.9,0.4,3.8,0.6,5.8c0.2,0,0.4,0,0.6,0.1
		c0.5-1.2,0.8-2.5,1.2-3.7c1.1-3.3,2.1-6.6,3.3-9.9c2-6.3,4.2-12.4,6-18.7c0.2-0.5,1-0.8,1.4-0.4c0.3,0.2,0.2,0.6,0.1,0.9
		c-0.3,1.1-0.7,2.2-1.1,3.3c-0.7,2.7-1.9,5.3-2.5,8.1c-0.5,1.5-0.9,3.1-1.5,4.6c-0.5,1.8-1.1,3.6-1.8,5.3c-0.3,0.7-0.5,1.3-0.6,2
		c-0.3,1.3-0.9,2.5-1.2,3.8c-0.4,1.7-1.2,3.4-1.6,5.1c-0.4,1.2-1,2.4-1.2,3.7c-0.2,1.2-0.8,2.2-1.1,3.4c-0.2,1.2-0.7,2.2-1,3.4
		c-1.4,3.9-2.5,8-3.9,11.9c-0.3,1.1-0.7,2.2-1.3,3.3c-0.4-0.2-0.8-0.3-1.2-0.5c-0.1-1.4,0.7-2.7,1.1-4c0.6-1.7,1.1-3.4,1.7-5.1
		c0.2-0.8,1.3-1.1,1.3-2c0-1.1-0.1-2.3,0.4-3.4c0.6-1.5,1-3.1,1.5-4.6c0.3-0.8,0-1.7,0-2.5c-0.1-2.3-0.6-4.6-0.7-6.9
		c0-1.4-0.5-2.7-0.5-4c0-1.6-0.3-3.2-0.5-4.8c-0.1-1.1,0-2.3-0.3-3.4c-0.3-1.2-0.3-2.5-0.4-3.7c-0.1-0.9-0.4-1.8-0.4-2.7
		c0-1.9-0.4-3.8-0.5-5.7c-0.1-1.8-0.5-3.6-0.6-5.5C93.2,75.3,92.9,74.3,93.4,73.4L93.4,73.4z"/>
	<path class="st0" d="M67.7,83.6c0.4-0.2,0.9-0.2,1.4-0.1c0,0.6-0.2,1.1-0.3,1.7c-0.3,1.5-0.6,2.9-1,4.3c-0.3,1.8-1,3.5-1.2,5.3
		c-0.4,1.2-0.6,2.5-1,3.7c-0.5,1.3-0.5,2.6-0.9,3.9c-0.7,3.2-1.7,6.4-2.3,9.7c-0.3,1.4-0.9,2.8-1.1,4.2c-0.2,1-0.3,2-0.7,2.9
		c-0.7,2.7-1.3,5.5-2,8.2c-0.1,0.3-0.1,0.7-0.1,1c0.5,0.1,0.8-0.6,1.3-0.6c0.8-0.1,1.4-0.7,2.1-0.9c1.3-0.4,2.5-1.2,3.8-1.8
		c1.5-0.6,2.9-1.5,4.5-2c2.2-0.9,4.3-2.1,6.5-3c1.2-0.5,2.3-1.3,3.6-1.6c0.1,0.7,0.2,1.7-0.5,2.1c-2.8,1.4-5.6,2.6-8.4,3.8
		c-3.3,1.7-6.8,3.1-10.1,4.7c-1.3,0.7-2.7,1.1-4,1.9c-0.4,0.3-0.9,0.4-1.4,0.5c0-1.7,0.7-3.3,1-4.9c1.3-6.1,3-12.1,4.3-18.2
		c1.2-5,2.5-9.9,3.6-14.9c0.9-2.7,1.2-5.5,2.2-8.1C67.2,84.7,67.1,83.9,67.7,83.6L67.7,83.6z"/>
	<path class="st0" d="M174.5,117.8c-0.7,0.3-0.6-1-0.1-1.2c0.2,0.3,0.4,0.5,0.6,0.8C174.9,117.6,174.7,117.7,174.5,117.8
		L174.5,117.8z"/>
	<path class="st0" d="M176.2,117.8c0.2-0.1,0.5-0.1,0.7-0.2c0.1,0.4,0.2,0.7,0.3,1.1c-0.4,0.6-1,1-1.6,1.5c0.1,0.3,0.3,0.5,0.4,0.8
		c-0.3,0-0.5,0-0.8-0.1c-0.1-0.8-0.7-1.4-1-2.1c0.8,0.1,1.5,0.3,2.3,0.2c0.4-0.2,0.2-0.7,0.1-1c0.1-0.1,0.3-0.2,0.4-0.3
		C176.7,117.8,176.4,117.8,176.2,117.8L176.2,117.8z"/>
	<path class="st0" d="M171.7,120c0.2-0.5,0.3-1,0.7-1.3c0.2,1,0.5,2,0.1,3c-0.1-0.1-0.2-0.4-0.3-0.6c-0.4,0.1-0.7,0.2-1.1,0.4
		c0,0.1,0,0.3,0,0.4c-0.3-0.3-0.5-0.6-0.8-0.8C170.9,120.8,171.4,120.5,171.7,120L171.7,120z"/>
	<path class="st0" d="M173.7,120.5c0.2-0.1,0.4-0.2,0.5-0.3c-0.1,0.3-0.1,0.6-0.2,0.9C173.9,120.9,173.8,120.7,173.7,120.5
		L173.7,120.5z"/>
	<path class="st0" d="M172.2,123c0.1,0,0.4,0,0.6,0c-0.1,0.3-0.2,0.6-0.5,0.8C172.3,123.5,172.3,123.2,172.2,123L172.2,123z"/>
	<path class="st0" d="M28.4,124.3c0.4-0.2,0.8-0.4,1.1-0.6c0.1,0.4,0.1,0.9,0.1,1.3c-0.3,0.3-0.6,0.5-0.8,0.8c0.3,0,0.6-0.1,0.9-0.1
		c0.1,0.1,0.2,0.3,0.2,0.5c-0.9,0.6-2.1,0.6-3.1,0.2c0.1-0.3,0.2-0.5,0.3-0.8c-0.4-0.2-0.8-0.5-1.2-0.8c0.1-0.1,0.3-0.2,0.5-0.3
		c0.2,0.1,0.3,0.2,0.5,0.3c0.3,0.2,0.6,0.3,0.9,0.3c0-0.1,0.1-0.4,0.1-0.5C28,124.5,28.2,124.4,28.4,124.3L28.4,124.3z"/>
	<path class="st0" d="M170.7,125.2c0.1-0.5,0.5-0.9,1.1-1c0.3,0.1,0.4,0.6,0.6,0.8l0.1,0.1c-0.2,0.1-0.4,0.2-0.6,0.2
		c0,0.1,0.1,0.3,0.1,0.4c0,0.1,0.1,0.3,0.1,0.4c0.5,0.1,1.1,0.2,1.6,0.3c-0.3,0.3-0.4,0.9-0.8,0.9c-0.3-0.1-0.5-0.2-0.8-0.2
		c-0.1,0.1-0.2,0.3-0.3,0.5c0.1,0,0.4,0.1,0.5,0.1c-0.5,0.8-0.9,1.6-1.4,2.3c-0.6,0-0.6-0.9-1.1-1.1c-0.3,0.5-0.5,1-0.6,1.5
		c0,0.1,0,0.3-0.1,0.4c-0.1-0.2-0.2-0.4-0.4-0.6c0,0.3-0.1,0.6-0.1,0.9c-0.5,0-0.9,0.2-1.2,0.6c-0.5,0.6-1,1.2-1.6,1.7
		c0.3,0.7,0.2,1.5,0.2,2.3c-0.3,0.1-0.6,0.1-0.9,0.2c-0.2-0.7-0.3-1.4-0.7-2c-0.3-0.3-0.7-0.4-1.1-0.5c0-0.1,0-0.3-0.1-0.4l0.1-0.1
		c0.3-0.2,0.7-0.3,1-0.5c0.3-0.1,0.5-0.1,0.8-0.1c0-0.2,0-0.4-0.1-0.6c0.7-0.1,1.8,0.4,2.1-0.5c0.7-1.3,1.4-2.5,2.3-3.7
		c0.3-0.1,0.6-0.2,0.9-0.4c0.3,0,0.5,0,0.8,0.1C171,126.6,170.6,125.9,170.7,125.2L170.7,125.2z"/>
	<path class="st0" d="M174.3,125.3c0.4,0.1,0.7,0.2,1,0.4c1.4,1,2.8,1.7,4.1,2.8c0.5,0.3,1,0.6,1.5,0.9c-0.4,0.5-0.8,1.1-1.2,1.6
		c-0.3,0.6-1,0.9-1.4,1.4c-0.5,0.4-0.7,1-0.9,1.6c-1.7-1.2-3.5-2.3-5.4-3.2c0.3-0.7,0.6-1.4,0.8-2.1c0.4,0.1,0.5-0.5,0.2-0.7
		l-0.1-0.1c0.1,0,0.3,0.1,0.4,0.2c0.1,0.8-0.1,1.7-0.1,2.5c0.1,0,0.3-0.1,0.4-0.1c0.2-0.6,0.5-1.1,0.8-1.7c0.2,0.1,0.3,0.1,0.5,0.2
		c-0.3,0.7-0.5,1.4-0.5,2.1c0.7-0.3,0.5-1.4,1.3-1.3c-0.1,0.6-0.3,1.2-0.3,1.8c0.6-0.3,0.7-0.9,0.9-1.5c0.1,0.3,0.3,0.6,0.4,0.9
		c0.3-0.3,0.5-0.6,0.8-0.8c0.4,0.6-0.2,1.1-0.5,1.6c0,0.2,0,0.5,0.1,0.7c1.2-0.5,1.6-1.9,2.6-2.6c-0.2-0.4-0.5-0.9-1-1.2
		c-1-0.5-2.1-1.1-2.9-1.9c-0.4-0.5-1-0.8-1.6-0.9C174.3,125.7,174.3,125.4,174.3,125.3L174.3,125.3z M176.1,130.9L176.1,130.9
		c0,0.4,0.1,0.9,0.3,1.3c0.2-0.4,0.3-0.8,0.4-1.3C176.6,130.9,176.3,130.9,176.1,130.9L176.1,130.9z"/>
	<path class="st0" d="M31,125.9l0.1,0.1c0,0,0.1,0.1,0.2,0.2c0.4,0.4,0.7,0.9,1.3,1.2c0.5,0.3,1.1,0.1,1.4-0.4
		c-0.3,1.1-1.5,1.4-1.7,2.5c-0.5,0-0.8-0.4-1.1-0.8c0.3,0,0.5-0.4,0.3-0.6c0.4-0.5-0.3-0.8-0.4-1.2C31,126.5,31,126.2,31,125.9
		L31,125.9z"/>
	<path class="st0" d="M29.3,127.7c0.8,0.3,1.1,1.1,1.4,1.9C29.9,129.3,29.6,128.5,29.3,127.7L29.3,127.7z"/>
	<path class="st0" d="M165.1,127.8c0.6,0.2,1.2,0.3,1.8,0.2c0.4-0.1,0.8,0.2,0.7,0.6c0,1-0.9,1.6-1.7,1.9c0.1-0.5,0.2-0.9,0.3-1.3
		c-0.1,0-0.3-0.1-0.5-0.2C165.2,128.8,165.1,128.3,165.1,127.8L165.1,127.8z"/>
	<path class="st0" d="M183.6,128.9c0.2-0.3,0.3-0.6,0.5-0.9c0.4,0.1,0.9,0.2,1.3,0.3l0.1,0c0,0.3-0.1,0.6-0.1,1
		C184.8,129.5,184.1,129.5,183.6,128.9L183.6,128.9z"/>
	<path class="st0" d="M30.7,130.7c0.4,0,0.9,0.1,1.2,0.4c-0.2,0.5-0.4,1-0.6,1.4c0.4,0.1,0.8,0.1,1.2,0.2c-0.1-0.5-0.3-1-0.4-1.5
		c0.3,0.2,0.6,0.4,0.9,0.6c0.3,0.2,0.2,0.6,0.3,0.9c-0.4,0.3-0.7,0.6-1.1,0.8c-0.4,0.2-0.8-0.1-1.3-0.2c0-0.1,0.1-0.4,0.1-0.5
		c-0.1-0.1-0.3-0.3-0.4-0.4C30.3,132,30.7,131.3,30.7,130.7L30.7,130.7z"/>
	<path class="st0" d="M180.5,131.1c0.8-0.1,1.1,0.8,1.5,1.3c-0.4,0.4-0.9,0.7-1.4,1c0-0.2-0.1-0.4-0.1-0.6c-0.1-0.4-0.1-0.8-0.1-1.3
		C180.9,131.9,181.1,131,180.5,131.1L180.5,131.1z"/>
	<path class="st0" d="M182.8,132.3c0.8,0,1.6-0.1,2.4-0.1c-0.2,0.2-0.4,0.5-0.6,0.7c-0.7,0.2-1.4,0.2-2.2,0.1
		C182.6,132.8,182.7,132.6,182.8,132.3L182.8,132.3z"/>
	<path class="st0" d="M28.2,133.4c0.3-0.4,0.8-1.1,1.3-0.7c0.1,0,0.3,0.1,0.4,0.2c-0.7,0.5-1.6,0.8-2.1,1.5
		c-0.7,0.6-1.3,1.5-2.3,1.6c0.4-1,1.5-1.4,2.2-2.2C27.9,134,28.2,133.7,28.2,133.4L28.2,133.4z"/>
	<path class="st0" d="M186.1,132.7c1,1.2,1.6,2.7,1.9,4.2c-0.4-0.3-0.8-0.6-1.3-0.9c0.1,0,0.3,0,0.4,0c-0.3-0.9-0.6-1.9-1.3-2.6
		C185.8,133.2,186,132.9,186.1,132.7L186.1,132.7z"/>
	<path class="st0" d="M29.9,133.5c0.5,0.2,0.9,0.5,1.4,0.8c0,0.3,0,0.5,0,0.8C30.5,134.9,30.1,134.1,29.9,133.5L29.9,133.5z"/>
	<path class="st0" d="M178.5,133.9c0.5-0.1,1.1-0.6,1.7-0.3c0,0.1,0,0.3,0,0.4c-0.3,0.2-0.7,0.4-0.9,0.8c-0.1,0.7-0.1,1.4-0.5,1.9
		c-0.4,0.6,0,1.4,0.2,2c-0.3-0.2-0.6-0.4-1-0.4c0,0.2,0,0.5-0.1,0.6c-0.1-0.1-0.2-0.3-0.3-0.5c-0.2-0.1-0.5-0.2-0.7-0.3
		c0.3,0.2,0.6-0.3,0.2-0.4c0.3-0.2,0.7-0.2,0.8-0.6c0.3-0.8,0.5-1.7,0.6-2.6C178.7,134.2,178.6,134.1,178.5,133.9L178.5,133.9z"/>
	<path class="st0" d="M32.8,133.9c0.1-0.1,0.3-0.2,0.4-0.2c0.4-0.1,0.8-0.1,1.1-0.2c0.4,0.5,1,0.9,1.2,1.5c-0.4,0.3-0.8-0.1-1.2-0.3
		c-0.3,0.7-0.8,1.2-1.5,1.4l0-0.2C32.7,135.3,32.6,134.6,32.8,133.9L32.8,133.9z"/>
	<path class="st0" d="M181.6,133.9c0.8,0.5,0.9,1.4,0.9,2.2C181.7,135.7,181.7,134.7,181.6,133.9L181.6,133.9z"/>
	<path class="st0" d="M37.9,134.3L37.9,134.3c0.1,0.2,0.2,0.3,0.3,0.4c0.4,0.5,0.6,1,0.9,1.5c-0.2,0.2-0.5,0.5-0.8,0.3
		c-0.8-0.1-1.3-0.7-1.9-1.1c0.3-0.2,0.6-0.5,0.9-0.8l0-0.1c0.1,0.1,0.2,0.4,0.3,0.6C37.7,134.8,37.8,134.5,37.9,134.3L37.9,134.3z"
		/>
	<path class="st0" d="M19.5,135.1c0.3,0,0.7,0,1,0c-0.1,0.2-0.3,0.4-0.4,0.6c0.2,0,0.4,0.1,0.6,0.1c0.4,0,0.7,0.4,0.7,0.8
		c-0.1,0.3,0,0.6,0.3,0.8c-0.3,0-0.6,0-0.8,0c-0.2-0.4-0.4-0.8-0.5-1.2c-0.4,0.2-0.8,0.3-1.2,0.4c0-0.4,0-0.8,0.2-1.2
		C19.4,135.4,19.5,135.2,19.5,135.1L19.5,135.1z"/>
	<path class="st0" d="M24.3,136c0.3-0.1,0.6-0.1,0.9-0.1c-0.4,0.4-0.8,0.9-1.4,1C23.9,136.6,24,136.2,24.3,136L24.3,136z"/>
	<path class="st0" d="M35.7,135.9c0.1,0,0.3,0,0.4,0c0.3,0.4,0.6,0.9,0.9,1.2c-0.5-0.3-1-0.3-1.6-0.2
		C35.5,136.6,35.6,136.3,35.7,135.9L35.7,135.9z"/>
	<path class="st0" d="M184.8,136.2c0.3-0.2,0.5-0.2,0.5,0.2C185.1,136.4,184.9,136.3,184.8,136.2L184.8,136.2z"/>
	<path class="st0" d="M30.8,136.3c0.3,0,0.5,0.2,0.7,0.4c0.3-0.1,0.7-0.2,1-0.2c0,0.1,0.1,0.4,0.1,0.6c-1.6,1-2.9,2.3-4.5,3.3
		c-0.4-0.3-0.7-0.7-1-1.1c0.1-0.2,0.3-0.4,0.4-0.6c0.1-0.2,0.3-0.3,0.4-0.5c0.1,0,0.4,0,0.6,0.1c0.1,0,0.3,0,0.4,0
		c0-0.2,0-0.4,0-0.7c0.2-0.1,0.4-0.2,0.7-0.2c0.1-0.2,0.1-0.4,0.1-0.7c0.3,0.1,0.6,0.2,1,0.4C30.7,136.8,30.7,136.6,30.8,136.3
		L30.8,136.3z"/>
	<path class="st0" d="M185.8,136.6c0.2-0.3,1-0.1,0.8,0.4C186.3,136.9,186,136.8,185.8,136.6L185.8,136.6z"/>
	<path class="st0" d="M184.2,136.6c0.7,0.1,1.3,0.3,1.9,0.6c-0.5,0-1.1,0-1.6-0.1C184.4,137,184.3,136.8,184.2,136.6L184.2,136.6z"
		/>
	<path class="st0" d="M187,137.1l0.1-0.1c0.2,0.2,0.3,0.4,0.5,0.6c-0.4-0.1-0.8-0.2-1.2-0.3C186.6,137.4,186.8,137.2,187,137.1
		L187,137.1z"/>
	<path class="st0" d="M22.6,137.5c0.1-0.4,0.7-0.1,0.5,0.2c-0.1,0.1-0.2,0.3-0.2,0.4C22.6,138.1,22.6,137.7,22.6,137.5L22.6,137.5z"
		/>
	<path class="st0" d="M37.8,140.9c-0.4-0.9-0.2-1.9,0-2.8c0.6,0.3,1.2-0.1,1.9-0.1c0.3,0.1,0.5,0.4,0.8,0.6
		c-0.3-0.2-0.5,0.2-0.2,0.4c-0.5,0.1-1.2,0.1-1.5,0.6c-0.2,0.4-0.2,1-0.2,1.4C38.3,140.9,38.1,140.9,37.8,140.9L37.8,140.9z"/>
	<path class="st0" d="M23,138.2c0.1,0.1,0.4,0.2,0.5,0.2c0.1,0.1,0.2,0.2,0.3,0.2c0,0.3,0.3,0.6,0.6,0.4l0.1-0.1
		c0,0.1-0.1,0.4-0.1,0.6c-0.5,0.2-0.9,0.2-1.3-0.1c0.1-0.2,0.2-0.4,0.4-0.6C23.2,138.5,23.1,138.4,23,138.2L23,138.2z"/>
	<path class="st0" d="M25.3,138.3c0.5,0.2,1,0.6,1,1.2C25.6,139.5,25.2,138.9,25.3,138.3L25.3,138.3z"/>
	<path class="st0" d="M24,140.5c0.4-0.2,0.8-0.5,1.2-0.7c0.2,0.4,0.4,0.7,0.5,1.1c-0.1,0.2-0.1,0.4-0.2,0.7
		c-0.1,0.2-0.2,0.5-0.4,0.3c-0.4-0.2-0.6-0.5-0.9-0.9C24.6,140.9,24.4,140.3,24,140.5L24,140.5z"/>
	<path class="st0" d="M26.5,139.6c0.5,0,0.9,0.4,1.3,0.7c-0.1,0.3-0.1,0.6-0.2,0.9C26.9,140.9,26.7,140.2,26.5,139.6L26.5,139.6z"/>
	<path class="st0" d="M19.2,140.2c1.4,0,2.7-0.2,4.1,0.1c-0.2,0.5-0.4,0.9-0.6,1.4c0.1,0.1,0.4,0.2,0.5,0.3
		c-0.3,0.2-0.7,0.2-1.1,0.3c0.1-0.3,0.2-0.7,0.3-1c0-0.1,0.1-0.3,0.1-0.4c-1,0-1.9,0.3-2.9,0.4c-0.1-0.1-0.3-0.3-0.4-0.4
		C19.2,140.7,19.2,140.4,19.2,140.2L19.2,140.2z M19.4,140.3L19.4,140.3C19.4,141,20,140,19.4,140.3L19.4,140.3z"/>
	<path class="st0" d="M25.5,142.2c0.4,0.2,0.7,0.5,1,0.7c0.2,0,0.3,0,0.5,0.1c0.1,0,0.3,0,0.4,0c-0.1,0.5,0,1,0.2,1.5
		c-0.2,0-0.3,0.1-0.5,0.1C26.4,143.8,26,143,25.5,142.2L25.5,142.2z"/>
	<path class="st0" d="M22.8,144.2c0.2-0.6,0.5-1.3,0.8-1.8C23.4,143,23.2,143.7,22.8,144.2L22.8,144.2z"/>
	<path class="st0" d="M21,142.8c0-0.4,0.2-0.4,0.5-0.3C21.4,142.7,21.2,142.8,21,142.8L21,142.8z"/>
	<path class="st0" d="M19,144.9c0.5-0.4,1.1-0.8,1.7-1.1c0.3,0.2,0.5,0.4,0.8,0.6c-0.6,0.3-1.2,0.6-1.8,1c0.1,0,0.2,0,0.3,0.1l0.2,0
		c-0.7,0.1-1.4,0.2-2.1,0.3C18.4,145.4,18.7,145.2,19,144.9L19,144.9z"/>
	<path class="st0" d="M27.7,144.9c0.5,0.4,1,0.7,1.2,1.3c-0.7-0.2-1.5-0.3-2.3-0.2c-0.3,0-0.5-0.3-0.8-0.4
		C26.5,145.2,27.1,145,27.7,144.9L27.7,144.9z"/>
	<path class="st0" d="M93.9,145.7c0.4-0.1,0.9-0.7,1.2-0.2c0.9,3.4,2.3,6.6,3.3,9.9c0.5,1.5,1.2,2.9,1.2,4.5c-0.8,0.1-1.8-0.1-2.1-1
		c-0.3-1-0.7-1.9-1.2-2.9c-0.6-1.8-1.4-3.4-2-5.2c-0.3-0.7-0.6-1.5-0.6-2.3C93.7,147.7,93.8,146.7,93.9,145.7L93.9,145.7z"/>
	<path class="st0" d="M94.7,159.5c0.7,0,1.4,0,2.1,0.1c0.4,0.2,0.6,0.6,0.8,1c0.9,0,1.8,0,2.6,0c0.2-0.3,0.4-0.5,0.6-0.8
		c0.9,0,1.8,0,2.7,0c-0.1,0.5-0.2,0.9-0.3,1.4c-0.5,0.1-1.2,0.1-1.2,0.8c-0.2,1,1.1,1.3,0.9,2.2c0,0.3,0,0.6,0,0.9l-0.1,0.1
		c-0.2,0.2-0.4,0.3-0.5,0.5c-0.1-0.7,0-1.5-0.5-2.1c-0.4,0.8-0.8,1.7-0.9,2.6c-0.1,0.6-0.2,1.3-0.3,1.9c-0.3,1.2-0.2,2.5-0.4,3.7
		c-0.2,0.7,0,1.4-0.1,2c-0.2,1.1,0,2.2-0.2,3.3c-0.1,0.8-0.3,1.5-0.4,2.3c-0.2-0.4-0.5-0.9-0.5-1.4c-0.1-1,0.5-1.8,0.4-2.8
		c-0.1-1.5-0.2-3-0.3-4.5c0-0.8,0.3-1.6,0.1-2.3c-0.2-1.1-0.1-2.3-0.1-3.4c-0.3-0.1-0.6-0.2-0.8-0.4c-0.1-0.8,0-1.7,0.5-2.4
		c0.5,0.5,0.7,1.1,0.9,1.7c0-0.8,0-1.7,0.5-2.4c-1,0.5-2.1,0.1-3.1,0.3c-0.1,0.8-0.4,1.5-0.5,2.3c0-0.1,0-0.2,0-0.2
		c-0.1,0-0.2-0.1-0.3-0.2c-0.1-0.7-0.1-1.4-0.5-2.1c-0.4-0.3-0.9-0.5-1.4-0.8C94.6,160.2,94.6,159.9,94.7,159.5L94.7,159.5z
		 M101.3,163.3L101.3,163.3c0.2-0.5,0.3-0.9,0.5-1.4c-0.1-0.1-0.4-0.3-0.5-0.5C101.1,162,100.8,162.8,101.3,163.3L101.3,163.3z"/>
	<path class="st0" d="M97.2,163.8c0.1,0,0.3-0.1,0.4-0.1c-0.6,0.6-0.3,1.5-0.2,2.2c-0.1,0.6,0,1.4-0.5,1.8
		C97.1,166.4,97,165.1,97.2,163.8L97.2,163.8z"/>
	<path class="st0" d="M104.5,171.5c0.3,0.1,0.6,0.1,1,0.2c-0.2,0.7-0.5,1.4-0.8,2.1C104.4,173,104.4,172.2,104.5,171.5L104.5,171.5z
		"/>
	<path class="st0" d="M103.1,172.2c-0.5,0.3-0.5-0.8,0-0.6C103.1,171.7,103.1,172,103.1,172.2L103.1,172.2z"/>
	<path class="st0" d="M100.8,176.6c0.3,1,0.3,2.1,0.4,3.2c-0.2-0.2-0.5-0.4-0.5-0.7C100.6,178.3,100.6,177.4,100.8,176.6
		L100.8,176.6z"/>
	<path class="st0" d="M99.6,184.5c0.2,0.1,0.4,0.3,0.5,0.5c0.1,0.6,0.1,1.2,0.1,1.9c0-0.4-0.1-0.8-0.1-1.2c-0.3,0.4-0.4,0.9-0.5,1.3
		C99.6,186.2,99.6,185.4,99.6,184.5L99.6,184.5z"/>
</g>
<g>
	<path class="st1" d="M51.4,27.1c0.7,0.6,1.3,1.4,1.9,2.1c-0.1,0-0.4-0.1-0.6-0.1C52.1,28.4,51.7,27.8,51.4,27.1L51.4,27.1z"/>
	<path class="st1" d="M52.9,27.5c-0.2,0.6-0.8-0.1-0.2-0.3C52.7,27.3,52.8,27.4,52.9,27.5L52.9,27.5z"/>
	<path class="st1" d="M142.6,28.2c-0.4,0.1-0.4-0.9,0-0.8C142.6,27.6,142.6,27.9,142.6,28.2L142.6,28.2z"/>
	<path class="st1" d="M140.2,30.3c-0.3-0.1-0.3-0.2,0-0.3C140.2,30.1,140.2,30.2,140.2,30.3L140.2,30.3z"/>
	<path class="st1" d="M142.9,37.2c-0.2-0.2-0.1-0.7,0.3-0.6C143.3,36.9,143.2,37.1,142.9,37.2L142.9,37.2z"/>
	<path class="st1" d="M96.2,39.7c2.7-1.8,6-2.2,9.1-1.9c-0.1,0.3-0.3,0.4-0.5,0.4c-2.1,0.2-4.2,0.3-6.1,1.2
		c-0.9,0.4-1.8,0.7-2.6,1.3c-1.6,1.1-3.3,1.9-5.1,2.6c-2.1,0.7-4.3,1.2-6.4,1.9c-0.3,0.1-0.5,0.3-0.5,0.6c1.5-0.2,2.8-0.9,4.3-1.1
		c2.5-0.5,5-0.9,7.6-1.1c1-0.1,2.1-0.3,3.1,0c-1.2,0.3-2.3,0.1-3.5,0.3c-3.3,0.4-6.7,0.9-9.9,1.9c-3.5,0.8-6.8,2.2-10.1,3.7
		c-0.9,0.4-1.7,0.9-2.5,1.3c-3.6,1.8-6.8,4.2-9.9,6.8c-1.5,1.3-2.9,2.7-4.3,4c-2.1,2.3-4.2,4.6-5.9,7.1c-1.5,2-2.6,4.1-3.9,6.3
		c-1.6,3.1-3.1,6.3-4.1,9.6c-2.5,7.6-3.6,15.7-2.9,23.7c0.5,6.1,2,12.2,4.3,17.9c0.2,0.7,0.7,1.3,0.5,2.1c-0.6,2.5-1.1,5-1.7,7.4
		c-0.6-0.6-0.8-1.4-1.2-2.2c-4-7.5-6.4-15.9-7.1-24.4c-0.9-10.2,0.7-20.6,4.5-30.1c2.1-5.2,4.9-10.1,8.2-14.6
		c4.2-5.6,9.3-10.5,15.1-14.6c1.3-0.9,2.7-1.9,4.2-2.6c-0.1,0.7-0.3,1.3-0.2,2c1.2-0.5,1.8-1.7,2.3-2.9c0.1-0.4,0.5-0.6,0.9-0.8
		c6.8-3.6,14.4-5.9,22.1-6.8c0.8-0.1,1.5-0.2,2.3-0.3c-0.4,0.6-1.1,0.9-1.7,1.4c-1.2,0.9-2.7,1.4-4.1,2c-1,0.5-2.1,0.8-3.1,1.1
		c-1.1,0.5-2.3,1-3.4,1.4c0,0.1,0,0.4-0.1,0.5c2.4-0.8,4.7-1.7,7.1-2.4C92.6,41.9,94.3,40.7,96.2,39.7L96.2,39.7z"/>
	<path class="st1" d="M142.7,38.6c-0.5,0.2-0.5-0.7,0-0.5C142.7,38.2,142.7,38.5,142.7,38.6L142.7,38.6z"/>
	<path class="st1" d="M107.2,39.7c1.4-0.5,2.8-0.9,4.3-0.7c4.8,0.8,9.5,2.1,14,3.9c0.1,0.6,0.1,1.4,0.5,1.9c0.5,0.5,1.3,0.9,2,1
		c-0.1-0.8-1.1-1.3-0.8-2.2c2.2,0.9,4.3,2,6.4,3.2c5.4,3.1,10.3,7.1,14.6,11.5c5.1,5.3,9.2,11.5,12.3,18.2
		c3.4,7.4,5.3,15.5,5.7,23.7c0.4,9.1-1.1,18.4-4.4,26.9c-0.6,1.5-1.2,3-1.9,4.4c-0.5-0.1-0.4-0.7-0.7-1c-0.2-0.1-0.5,0.1-0.5,0.4
		c-0.1,0.7,0.3,1.3,0.4,2c-0.2,0.8-0.8,1.5-1.2,2.3c-7.8,13.8-20.7,24.5-35.7,29.7c-6.8,2.2-13.9,3.5-21,3.4
		c0.1-0.4,0.5-0.4,0.8-0.5c0.1-0.8,0-1.6,0.4-2.3c0.2-0.2,0.4-0.3,0.5-0.5c0,0.7-0.1,1.6,0.7,1.9c0.4-0.8,0.6-1.8,0.3-2.7
		c-0.2-0.5,0.1-0.9,0.2-1.4c7.6-0.5,15.2-2.2,22.1-5.4c6.9-3.3,13.4-7.8,18.6-13.5c5.3-5.6,9.4-12.3,12.2-19.5
		c1.3-3.4,2.2-6.9,2.9-10.4c1.5-8.1,1.2-16.5-0.7-24.6c0.4-0.3,0.8-0.5,1.2-0.8c-0.6-0.9-1.3-1.8-1.9-2.7c-0.4-0.6-0.5-1.4-0.8-2.1
		c-2.6-7.5-6.7-14.4-12-20.3c-4.8-5.4-10.5-9.8-16.9-13.2c-4-2.1-8.2-3.7-12.5-4.9c-2.7-0.4-5.3-1.2-8-1.4c-0.4,0-0.8,0-1.1-0.3
		c2.8-0.1,5.5,0.6,8.2,1.3c0.1-0.1,0.2-0.3,0.3-0.4c-1.9-0.8-4-1-5.9-1.6c-0.4-0.1-0.5-0.6-0.8-0.8c-0.4-0.3-0.8-0.6-1.3-0.9
		c0.4-0.3,0.7-0.6,1.1-0.8c-0.7-0.4-1.5-0.3-2.3-0.4C106.6,40,106.9,39.8,107.2,39.7L107.2,39.7z"/>
	<path class="st1" d="M54,40.5c0.1,0,0.2-0.1,0.3-0.1C54.7,40.7,54.1,41,54,40.5L54,40.5z"/>
	<path class="st1" d="M55.7,42.3c0.2-0.3,0.8,0.1,0.6,0.4C56,42.9,55.6,42.6,55.7,42.3L55.7,42.3z"/>
	<path class="st1" d="M126.5,42.3c0.3-0.1,0.4,0,0.3,0.3C126.5,42.8,126.4,42.7,126.5,42.3L126.5,42.3z"/>
	<path class="st1" d="M129.8,42.5c0.3,0,0.4,0.1,0.4,0.4C129.8,43,129.7,42.8,129.8,42.5L129.8,42.5z"/>
	<path class="st1" d="M143.4,42.7c0.3-0.1,0.4,0,0.3,0.3C143.4,43.2,143.3,43.1,143.4,42.7L143.4,42.7z"/>
	<path class="st1" d="M67.1,44.6c0-0.1,0.1-0.4,0.1-0.5C67.7,44,67.5,44.8,67.1,44.6L67.1,44.6z"/>
	<path class="st1" d="M53.3,46.2c0.3-0.1,0.4,0,0.3,0.3C53.3,46.5,53.2,46.4,53.3,46.2L53.3,46.2z"/>
	<path class="st1" d="M144.2,46.4C144.9,46.5,143.9,47,144.2,46.4L144.2,46.4z"/>
	<path class="st1" d="M52.1,46.8C52.7,46.4,52.1,47.4,52.1,46.8L52.1,46.8z"/>
	<path class="st1" d="M62.5,47.2c0.1-0.2,0.2-0.4,0.4-0.5C63.4,46.9,62.8,47.7,62.5,47.2L62.5,47.2z"/>
	<path class="st1" d="M141.8,47.8c0.1,0,0.3,0.1,0.3,0.1l0,0.2C142,48,141.8,47.8,141.8,47.8L141.8,47.8z"/>
	<path class="st1" d="M47.7,48.7c0-0.3,0.2-0.5,0.5-0.4C48.2,48.5,48,48.9,47.7,48.7L47.7,48.7z"/>
	<path class="st1" d="M48.8,52c0-0.3,0-0.6,0.1-0.9C49.2,51.2,49.2,52,48.8,52L48.8,52z"/>
	<path class="st1" d="M146.3,73.8C146.3,73.8,146.3,73.9,146.3,73.8C146.3,73.9,146.3,73.8,146.3,73.8L146.3,73.8z"/>
	<path class="st1" d="M26,124.8c-0.6-0.3,0.5-0.9,0.5-0.3C26.3,124.6,26.1,124.7,26,124.8L26,124.8z"/>
	<path class="st1" d="M172.6,125.3c0.1,0,0.3,0.1,0.4,0.2l-0.2,0.1l-0.2-0.1L172.6,125.3L172.6,125.3z"/>
	<path class="st1" d="M29.7,125.7c0.3-0.3,0.6,0.4,0.2,0.5C29.9,126.1,29.8,125.9,29.7,125.7L29.7,125.7z"/>
	<path class="st1" d="M32.8,126.6c-0.1,0.5-1.1-0.1-0.6-0.4C32.4,126.3,32.6,126.4,32.8,126.6L32.8,126.6z"/>
	<path class="st1" d="M182.2,130c0.3-0.1,0.4,0,0.3,0.3C182.2,130.4,182.1,130.3,182.2,130L182.2,130z"/>
	<path class="st1" d="M181.1,130.4c0.3-0.1,0.4,0,0.3,0.3C181.1,130.8,181,130.7,181.1,130.4L181.1,130.4z"/>
	<path class="st1" d="M163.4,133.1c0.2-0.4,0.5-0.8,1-0.5C164.1,132.7,163.8,132.9,163.4,133.1L163.4,133.1z"/>
	<path class="st1" d="M19.3,135.1l0.2-0.1c0,0.1-0.1,0.3-0.1,0.4C19.4,135.4,19.3,135.2,19.3,135.1L19.3,135.1z"/>
	<path class="st1" d="M162.6,135c0.5,0.2,1,0.5,1.5,0.8c-0.5,0-1.1,0.1-1.7,0C162.5,135.5,162.5,135.2,162.6,135L162.6,135z"/>
	<path class="st1" d="M49.9,140.7c0.2-1.8,0.6-3.6,1.2-5.4c3.7,5.5,8.1,10.6,13.4,14.7c5.5,4.3,11.8,7.8,18.4,10
		c3.2,1,6.6,1.8,9.9,2.4c0.9,0.1,1.8,0.2,2.7,0.4c0.1,1.2,0,2.4-0.2,3.5c-0.1,0.4,0,0.7,0.1,1.1c0.1,0,0.4,0,0.6,0
		c0.1-1.3,0-2.6,0.3-3.8c0.1,0,0.2,0.1,0.3,0.2c0,0.1,0,0.2,0,0.2c0.1,1.3-0.2,2.6-0.1,3.9c0.1,0,0.3-0.1,0.4-0.1
		c0.5-0.5,0.4-1.2,0.5-1.8c0.1-0.5,0.2-0.9,0.2-1.4c0.3,1.3,0.7,2.5,0.7,3.9c-7.5-0.3-14.9-2.1-21.9-4.9
		c-7.9-3.3-15.1-8.2-21.1-14.2c-1.1-1.3-2.4-2.5-3.5-3.8c-1-1.2-2-2.3-2.9-3.6C49.3,141.4,49.7,141.1,49.9,140.7L49.9,140.7z"/>
	<path class="st1" d="M182.5,136.1c0.3-0.2,0.7-0.4,1-0.6c0.1,0.1,0.2,0.2,0.3,0.2c-0.3,0.3-0.7,0.6-1,0.9
		C182.8,136.4,182.6,136.2,182.5,136.1L182.5,136.1z"/>
	<path class="st1" d="M177,137.9c0.1-0.1,0.2-0.2,0.3-0.3c0.4,0.1,0.1,0.7-0.2,0.4L177,137.9L177,137.9z"/>
	<path class="st1" d="M40.2,138.9c-0.3-0.1,0-0.6,0.2-0.4c0,0.1,0,0.2-0.1,0.3L40.2,138.9L40.2,138.9z"/>
	<path class="st1" d="M39.1,140.2c0.3-0.1,0.4,0,0.3,0.3C39.1,140.6,39,140.5,39.1,140.2L39.1,140.2z"/>
	<path class="st1" d="M19.4,140.3C20,140,19.4,141,19.4,140.3L19.4,140.3z"/>
	<path class="st1" d="M29.4,140.5C29.4,140.5,29.4,140.4,29.4,140.5C29.4,140.4,29.4,140.5,29.4,140.5L29.4,140.5z"/>
	<path class="st1" d="M23.5,141.8c0-0.3,0.1-0.4,0.3-0.1C23.7,141.7,23.6,141.8,23.5,141.8L23.5,141.8z"/>
	<path class="st1" d="M27,142.9c-0.1-0.4,0.7-0.4,0.4,0C27.3,143,27.1,142.9,27,142.9L27,142.9z"/>
	<path class="st1" d="M103.7,172.2c0.1,0.4,0,0.7-0.1,1c-0.2-0.3-0.3-0.6-0.5-0.8c0.2,0.1,0.4,0.2,0.6,0.2
		C103.7,172.5,103.7,172.3,103.7,172.2L103.7,172.2z"/>
	<path class="st1" d="M98.7,177.9c0-0.1,0.1-0.3,0.2-0.4l0.1,0.2l-0.1,0.2L98.7,177.9L98.7,177.9z"/>
</g>
<g>
	<path class="st2" d="M144.3,21.1c0.6-0.4,1-1,1.7-1.2c0.4,1.7,0.4,3.6,0.8,5.3c0.1,0.6,0.2,1.2,0.2,1.7c-0.6,0.9-1.4,1.7-1.8,2.8
		c1,0.5,1.9-0.2,2.6-0.8c0.4,0.1,0.8,0.2,1.2,0.3c0.7-1,0.2-2.2,0.4-3.3c1.2,0,1.9,1.2,2.3,2.3c0.4,0.9,0,1.9-0.2,2.8
		c-0.3,0.6-0.3,1.3-0.6,1.8c-0.2,0.4-0.7,0.5-1.1,0.6c-1.4,0.3-2.7,0.7-4.1,0.9c-0.7,0-0.8,0.9-1.1,1.5c-0.4,1.5-0.8,3-0.6,4.5
		c0,0.8,0.9,1.1,1.4,1.5c1.3,0.4,2.7,0.7,4,1.1c1,0.3,1.5,1.2,2,2.1c0.6,1.4,1.2,3.1,0.3,4.5c-0.5,1.2-1.7,2.1-3,2.1
		c-0.5,0-0.8-0.4-1.2-0.7c0.5-0.7,1.3-1.2,1.6-2c-0.6,0-1.2,0.3-1.8,0.4c-0.7-0.1-1.3-0.7-1.8-1.1c-0.4,0.5-0.7,1-0.9,1.5
		c1.2,1,2.6,1.8,3.7,3c1.5,1.3,3,2.7,4.3,4.3c3.9,4.2,7.1,9,9.7,14c1.8,3.4,3.3,6.9,4.4,10.6c1.3,3.9,2.4,7.9,2.9,11.9
		c0.6,3.4,0.8,6.8,0.8,10.2c0.1,2-0.3,4.1-0.3,6.1c0,1.2-0.3,2.5-0.3,3.7c0.9-0.3,1.7-1.1,2.7-1.2c1.1-0.3,2.2,0.4,3.2,0.9
		c1.3,0.6,2.1,2,2.3,3.4c0.2,0.7,0.9,1.2,0.7,1.9c0,0.9-0.8,1.4-0.9,2.2c-0.1,0.4-0.2,0.8-0.5,1.1c-0.7,0.7-1.4,1.4-1.7,2.3
		c0,0.4,0.4,0.5,0.7,0.7c1.6,0.9,2.9,2.1,4.4,3.1c0.2,0.1,0.6,0.4,0.8,0.1c0.8-0.7,1.3-1.6,2.4-1.9c1.5-0.4,3.2-0.4,4.4,0.7
		c0.9,0.9,1.5,2.1,1.5,3.4c-0.1,0.8-0.7,1.3-1.3,1.8c-0.3-0.2-0.6-0.5-0.9-0.7c0.2-0.3,0.3-0.7,0.5-1c-0.3-0.5-0.5-1-1-1.3
		c-0.5,0.1-0.5,0.7-0.7,1c-0.4,0.8-1.3,0.7-2,0.8c0,0.1,0,0.4,0,0.5c0.8,0.1,1.6-0.2,2.3,0.1c0.8,1.3,1.4,2.7,2.1,4
		c0.6,1,1,2.2,1.6,3.3c-1.4,0.2-2.9,0.1-4.3-0.2c-1.3-0.2-2.6-0.3-3.8-0.9c-0.7-0.5-0.7-1.4-1.2-2.1c-0.1,0-0.2,0-0.3,0
		c-0.2,0.6-0.4,1.2-0.6,1.8c0.2,0.6,0.3,1.3,0,1.9c0.5,0.6,1.2,0.8,1.9,0.7c0.7-0.1,1.4,0.2,1.6,0.8c-1,1.1-2.5,1.8-4,1.7
		c-1.6-0.4-3-1.7-3.7-3.2c-0.4-1.4,0.6-2.8,0.8-4.1c-1.2-1.2-2.9-1.8-4.3-2.7c-0.3-0.2-0.8-0.5-1.1-0.2c-0.7,0.6-1,1.4-1.5,2.2
		c-0.4,0.5-1,0.8-1.5,1.1c-0.1,0.3-0.1,0.7-0.2,1c-0.5,0.5-1.3,0.6-2,0.9c-0.6,0.1-1.2,0.4-1.7,0c-0.6-0.5-1.4-0.2-2.1-0.5
		c-1.1,1.7-2,3.4-3.1,5.1c-2.1,3.2-4.7,6-7.2,8.8c-2.7,2.9-5.6,5.5-8.8,7.8c-2.6,1.6-5.2,3.4-7.8,4.9c-2.7,1.5-5.5,2.8-8.4,4
		c-6,2.4-12.2,4.5-18.6,4.8c-0.3,0-0.6-0.1-0.8,0.1c-0.3,0.3-0.4,0.7-0.6,1c-0.4,0.9-1.1,1.7-1.1,2.8c0,0.6-0.7,0.7-1.1,1.1
		c-0.5,0.6-0.7,1.4-1.3,2c-0.1,0.2-0.4,0.2-0.6,0.2c0-1.2-0.3-2.4,0-3.6c0.1-0.5,0.2-1,0.2-1.5c-0.2-0.6-0.6-1.1-1.1-1.5
		c-0.1,0.8-0.3,1.6,0,2.3c0.3,1,0.2,2,0.2,3c0,0.9,0.5,1.8,0.4,2.8c-0.1,0.6-0.7,0.9-1.2,1.2c-0.3-0.3-0.6-0.5-0.9-0.7
		c-0.1,0.6,0.2,1.2,0.2,1.7c0.1,1.5,0.4,3.1,0,4.7c-0.1,0.5-0.6,0.8-0.9,1c-0.8-0.5-1.1-1.5-1.2-2.4c0-1.5,0.4-3.1,0-4.6
		c-0.2-0.7-0.1-1.4-0.2-2.1c-0.2-0.6,0-1.3,0.1-1.9c0.3-1.4,0.4-2.9,0.2-4.4c0-0.4,0-1.1-0.5-1.1c-2.4-0.2-4.9-0.4-7.3-0.8
		c-4.1-0.7-8.3-1.5-12.2-3.1c-7.1-2.9-14-6.7-20-11.5c-2.3-2-4.8-3.8-6.9-6.1c-1.8-1.7-3.4-3.6-4.9-5.7c-0.3-0.4-0.5-1.1-1.1-1.1
		c-0.9-0.1-1.7,0-2.6-0.2c-0.2-0.6,0.5-1.3,0-1.7c-1.4,0.6-3,0.6-4.5,0.5c-1.2-0.3-2.1-1.1-2.9-2c-0.5-0.9-1-1.8-1.8-2.4
		c-1.8,0.9-3.2,2.3-4.7,3.6c0.3,0.4,0.6,0.7,0.7,1.2c0.3,1.1,0.8,2.2,0.9,3.3c-0.1,0.5-0.5,0.8-0.8,1.2c-0.5,0.6-0.6,1.5-1.4,1.9
		c-1.2,0.7-2.7,0.8-4.1,0.7c-0.9-0.1-1.7-0.6-2.4-1.1c-0.3-0.1-0.2-0.7,0.1-0.7c1-0.1,2.1,0.1,3.1-0.1c0.3-0.2,0.6-0.4,0.6-0.8
		c-0.3-0.5-1-0.6-1.2-1.3c-0.2-0.7,0.8-1.3,0.5-2c-0.1,0-0.3-0.1-0.4-0.1c-0.6,0.7-0.8,1.7-1.3,2.4c-2.8,0-5.4,1.2-8.2,1.5
		c0.6-2.6,1.3-5.2,2.1-7.8c0.1-0.2,0.2-0.5,0.4-0.6c0.9-0.1,1.8-0.1,2.7-0.2c0.1-0.1,0.3-0.2,0.5-0.3c-0.8-0.5-1.7-0.5-2.5-0.9
		c-0.2-0.1-0.5-0.3-0.8-0.1c-1,0.8-1.6,2-2,3.1c-1-0.9-1-2.5-0.7-3.8c0.1-1,0.9-1.8,1.7-2.4c0.4-0.3,0.8-0.6,1.3-0.7
		c0.9-0.1,1.8-0.6,2.8-0.4c0.9,0.2,1.7,0.7,2.3,1.3c1.9-0.9,3.8-2.1,5.1-3.9c0.1-0.3-0.2-0.5-0.3-0.8c-0.7-1-1.3-2-2.2-2.9
		c-0.8-0.9-1.5-2.2-1.2-3.5c0.7-0.9,0.7-2.2,1.4-3.1c0.6-1.2,1.9-2,3.2-2c1.9-0.3,4.2,0.4,5.1,2.2c-1.2,0-2.6,0.1-3.6,0.9
		c-0.1,0.3,0.2,0.5,0.4,0.7c0.4,0.5,0.6,1.1,0.8,1.7c0.6,0,1.3,0.1,1.9-0.3c0.6-0.4,1.3-0.4,2-0.5c-0.3-1.2-0.7-2.3-1-3.5
		c-0.3-1.7-0.7-3.5-0.9-5.3c-0.6-2.8-0.6-5.7-0.8-8.6c-0.1-5.6,0.3-11.3,1.5-16.8c1.2-5.8,3.1-11.4,5.7-16.7c1.2-2,2.2-4.1,3.5-6.1
		c1.9-3,3.9-5.8,6.2-8.5c0.2-0.3,0.6-0.6,0.4-1c-0.5-0.3-1.2-0.5-1.6-1c-1.3-1.2-1.8-3.1-2-4.8c0.2-0.9,0.2-1.8,0.1-2.6
		c0.2-1.1,1.2-1.9,2.2-2.2c0.5-0.1,0.9-0.6,1.3-0.9c0.5-0.4,1.2-0.4,1.6-0.8c0.2-0.4,0.1-0.9,0.1-1.3c-0.2-1.7-0.6-3.4-1.5-4.8
		c-0.7,0-1.3-0.2-1.8-0.7c-1-0.1-2.1,0.7-2.9-0.1c-0.8-0.9-2-1.6-2.2-2.9c-0.5-1.3-0.8-2.8,0-4c0.6-0.9,1.2-2.2,2.3-2.6
		c-0.1,1.3-0.2,2.7,0.2,4c0.2,0.6,0.8,1.1,1.4,0.9c1-0.3,1.9,1.2,2.8,0.4c-0.8-0.9-1.9-1.4-2.6-2.3c0.5-1.8,1.1-3.6,1.5-5.5
		c0.1-0.9,0.4-1.9,0.7-2.8c1.8,1,3.3,2.5,4.7,4c0.5,0.6,1.1,1,1.5,1.7c0.2,0.8-0.4,1.6-0.4,2.5c0.4,0,0.8-0.3,0.9-0.7
		c0.3-0.9,1.4-0.8,1.9-1.5c0.2-0.7-0.1-1.4-0.4-2c-0.3-0.4-0.8-0.7-1-1.2c-0.1-0.5,0.5-0.9,1-0.8c1.1,0.1,1.9,1,2.4,1.9
		c0.3,0.4,0.4,1,0.4,1.5c-0.5-0.7-0.8-1.6-1.5-2.2c-0.4-0.5-1.1-0.7-1.8-0.6c0.5,0.7,1.1,1.2,1.2,2.1c0.1,0.7,0.2,1.4-0.2,2.1
		c-0.4,0.2-0.8,0.3-1.2,0.5c-0.5,0.2-0.2,1.1-0.8,1.3c-0.6,0.2-1.2,0.5-1.7,0.8c0-1.1,0.5-2.1,0.7-3.1c-0.3-0.6-0.9-1-1.3-1.6
		c-0.6-0.8-1.5-1.4-2.1-2.1c-0.6-0.5-1.2-1.2-2-1.4c-0.6,2.4-1.3,4.8-1.7,7.3c0.7,1.1,2,1.5,2.8,2.5c-0.6,0.3-1.2,0.8-1.8,0.6
		c-0.7,0-1.3-0.4-1.8-0.7c-0.4,0.1-0.8,0.3-1.2,0.3c-0.5-0.3-0.8-0.9-1-1.4c-0.4-0.9-0.2-1.9-0.2-2.9c-0.7,0.3-0.9,1-1.2,1.6
		c-0.6,1.3-0.3,2.8,0.4,4c0.5,0.7,1.3,1.2,1.8,1.8c0.5,0.8,1.6,0.3,2.3,0.3c0.5-0.1,0.8,0.2,1.3,0.4c0.4,0,0.8-0.1,1.2-0.2
		c1,2.3,2.2,4.7,2,7.3c-0.4,0.3-0.9,0.4-1.4,0.7c-0.8,0.4-1.4,1.2-2.3,1.4c-1.1,0.3-2.1,1.5-1.9,2.7c0.2,1-0.2,2,0.1,3
		c0.4,1.4,1.1,3,2.5,3.7c0.8,0.5,1.7,0.3,2.6,0.2c-0.1,0.1-0.2,0.4-0.3,0.5c-5.3,5.6-9.6,12.3-12.6,19.4
		c-6.6,15.2-7.3,32.9-1.9,48.6c-1.2-0.9-2.8-0.8-4.1-0.2c-0.7,0.3-1.6,0.2-2.3,0.3c-0.2-0.7-0.2-1.5-0.7-2c-0.3-0.4-0.7-0.8-1-1.1
		c0.8-1.3,2.4-1.6,3.9-1.5c-0.6-1-1.9-1-2.9-1.1c-2.1-0.1-4,1.5-4.1,3.6c0,0.6-0.6,0.9-0.5,1.4c0,0.7,0.2,1.5,0.8,2.1
		c1,1.2,2,2.5,2.6,3.9c0.1,0.4,0.4,0.8,0,1.1c-0.8,0.9-1.5,1.9-2.5,2.5c-1,0.6-2,1.3-3.2,1.8c-1-0.2-1.3-1.6-2.4-1.7
		c-0.9-0.3-1.8,0.2-2.6,0.4c-1.1,0.3-2.2,1.1-2.5,2.2c-0.2,0.8-0.5,1.7-0.3,2.6c0.1,0,0.3,0.1,0.4,0.2c0.3-0.6,0.3-1.3,0.8-1.8
		c0.5-0.4,0.9-1,1.6-1.1c0.7,0.4,1.3,0.9,2,1c0.7,0,1.1,0.6,1.7,0.9c0.3,0.2,0.7,0.7,0.2,0.9c-1.3,0.3-2.7,0-4,0.5
		c-0.5,1.1-0.6,2.4-1,3.6c-0.2,1-0.6,2-0.6,3c1.2-0.1,2.4-0.5,3.6-0.7c1.1-0.3,2.2-0.3,3.3-0.6c0.7-0.8,0.9-2,1.4-2.9
		c0.8,0.2,1.1,1,1.5,1.7c-0.3,0.5-0.8,1-0.6,1.6c0.2,0.5,0.8,0.8,1.2,1.2c0.5,0.6-0.3,1.2-0.7,1.5c-0.9,0.5-1.9,0.2-2.8,0.2
		c0,0.1,0.1,0.4,0.1,0.5c0.9,0.3,1.8,0.3,2.7,0.2c0.8-0.1,1.6-0.2,2.2-0.7c0.7-0.4,1.1-1.2,1.6-1.8c0.4-0.3,0.1-0.8,0-1.2
		c-0.3-0.8-0.4-1.7-0.8-2.5c-0.4-0.4-0.8-0.8-1.2-1.2c0.4-0.6,1.1-1,1.7-1.5c0,0,0,0,0.1-0.1c1-0.8,1.9-1.8,3.2-2.2
		c0.5-0.2,0.7-0.7,1-1c0.2,0,0.4,0,0.5,0.2c0.7,0.6,1.3,1.4,1.7,2.3c0.7,1.2,2.1,2.4,3.6,2c1,0.4,2.2,0.3,3.2-0.2
		c0.6-0.3,0.9-1,1.5-1.3c-0.1,1-0.5,1.9-0.4,2.9c0.8,0.1,1.6,0.2,2.5,0.1c0.4,0,0.6,0.4,0.8,0.6c3,4.1,6.6,7.8,10.4,11.1
		c4.2,3.6,8.9,6.8,13.9,9.2c8.4,4.3,17.8,6.6,27.3,7.1c0.4,0.1,0.3,0.6,0.3,0.9c0.2,1.7,0.2,3.5,0,5.3c0,0.1-0.1,0.3-0.2,0.4
		c0,0.4-0.1,0.9,0,1.3c0.3,1.1,0.2,2.3,0.4,3.5c0.3,1.4-0.2,2.9-0.1,4.3c0,0.4,0.3,0.7,0.6,1c0.1,0,0.3-0.1,0.4-0.1
		c0.1-0.3,0.2-0.7,0.2-1c0.1-0.6,0-1.2-0.1-1.9c-0.3-1.9-0.5-3.8-0.6-5.7c0.1-0.8,0.2-1.5,0.4-2.3c0.2-1.1,0.1-2.2,0.2-3.3
		c0.5,1.2,0.3,2.7,0.2,4c-0.1,1.2,0.3,2.5,0.9,3.5c0.2-0.1,0.4-0.2,0.6-0.3c0-1.2-0.4-2.4-0.4-3.6c0-1-0.5-2-0.4-3
		c0-0.9-0.1-1.8-0.1-2.6c0.1-0.4,0.7-0.4,0.9,0c0.4,0.7,0.8,1.4,1.3,2.1c0.3,0.4,0.2,1,0.1,1.4c-0.3,1.1-0.4,2.2-0.7,3.3
		c0.9-0.2,1.2-1.3,1.6-2c0.1-0.4,0.5-0.2,0.8-0.3c-0.2-0.9,0.3-1.7,0.7-2.5c0.4-0.9,0.8-1.8,1.3-2.6c8.1-0.7,16.1-2.8,23.5-6.4
		c6.4-3.1,12.4-7.2,17.5-12.1c5.3-4.9,9.6-10.7,13.1-17c0.8,0.4,1.6,0.6,2.5,0.7c1,0.5,2.3,0.5,3.3-0.1c0.5-0.3,0.1-1,0.4-1.4
		c0.5-0.5,1.4-0.5,1.8-1.2c0.4-1,1-2.1,2-2.5c2.3,0.9,4.3,2.2,6.3,3.7c-0.6,0.9-0.6,2-1,3c-0.5,0.9,0.3,1.8,0.8,2.5
		c1,1,2.4,1.8,3.8,1.4c0.6-0.2,1.4-0.5,1.7-1.1c-0.7,0-1.3,0.2-2-0.1c-0.6-0.2-1-0.7-1.4-1.1c0.4-0.7,0.4-1.4-0.1-2
		c0.3-0.4,0.5-0.9,0.6-1.4c0-0.6,0.4-1.4,1.1-1.5c0.7,0.8,0.6,2,1.4,2.8c1.3,0.6,2.8,0.6,4.2,0.9c0.9,0.1,1.8,0.3,2.7,0.2
		c0-0.1,0.1-0.2,0.1-0.3c-1-2-1.8-4.2-2.9-6.2c-0.5-0.2-1.1,0-1.6,0c-0.7,0-1.4,0-2.1,0.1c0.4-0.4,0.7-0.9,0.9-1.4
		c0.6-0.1,1.3-0.2,1.9-0.5c0.6-0.3,0.7-1,1-1.5c0.3-0.3,0.6,0,0.9,0.2c0.6,0.4,0.8,1,1.1,1.6c-0.2,0.4-0.4,0.8-0.4,1.2
		c0.4-0.1,0.9-0.4,1-0.9c0.5-1.5-0.6-3-1.8-3.8c-0.9-0.6-2-0.3-2.9-0.4c-1.3,0.3-1.8,1.5-2.7,2.3c-0.2,0.3-0.6,0.2-0.8,0.1
		c-2.2-1.3-4.2-3-6.5-4.2c0.4-1.3,1.3-2.4,2.2-3.4c0.5-0.4,0.3-1.2,0.8-1.7c0.5-0.6,0.7-1.7,0.1-2.3c-0.5-0.4-0.2-1.2-0.5-1.7
		c-0.7-1.6-2.4-2.8-4.1-2.9c-0.8-0.1-1.4,0.3-2,0.7c-0.5,0.3-1,0.7-1.3,1.3c0.1,0.1,0.2,0.2,0.3,0.3c0.9-0.2,1.7-1,2.6-0.7
		c0.9,0.2,1.4,0.9,1.8,1.6c0,0.4-0.5,0.6-0.6,1c-0.5,0.8-0.1,1.7-0.1,2.6c-0.4-0.5-0.8-1-1.4-1.2c-0.3,0.2-0.5,0.4-0.8,0.5
		c-0.6-0.4-1.2-0.7-1.9-0.7c-0.6-0.1-1.2,0.2-1.8,0.3c0.6-3,1.1-5.9,1.3-8.9c0.4-3,0.2-6,0.2-8.9c-0.2-4.7-1-9.5-2.2-14.1
		c-3.1-12.2-9.7-23.4-18.8-32c-1.6-1.5-3.2-2.9-4.8-4.3c0-0.1,0-0.2,0-0.3c0.9-0.6,1.6-1.5,1.9-2.5c0.9,0.3,1.4,1.1,2.2,1.5
		c0.8,0.2,1.5-0.5,2.3-0.5c0.5,1.2-1,1.8-1.4,2.8c1.3,0,2.6-0.7,3.1-1.9c0.4-1,0.5-2.2-0.1-3.1c-0.4-0.6-0.4-1.4-1-1.9
		c-0.5-0.4-1.2-0.7-1.8-0.8c-1.1-0.1-2-0.8-3-0.9c-0.7-0.3-1.6-0.3-2-1c-0.4-0.4-0.4-1-0.3-1.5c0.1-2,0.7-3.9,1.6-5.7
		c0.2-0.5,0.8-0.4,1.2-0.5c1.2-0.2,2.5-0.3,3.8-0.6c0.7-0.3,0.9-1.1,1.1-1.7c0.5-0.9,0.7-2,0.4-3c-0.2-0.7-0.7-1.5-1.5-1.6
		c0,1.1,0.1,2.2-0.5,3.2c-0.5,0.4-1.2,0-1.7-0.1c-0.5,0.2-0.8,0.7-1.2,0.9c-0.7,0.1-1.4-0.2-2-0.5c0.6-1.1,1.4-2,2.1-3
		c0.1-0.9-0.2-1.9-0.2-2.8c0-1.1-0.3-2.2-0.6-3.3c-2.1,1.5-4.3,2.9-5.9,4.9c0,1.1,0.5,2.2,0.8,3.2c-0.1,0.4-0.7,0.4-1.1,0.4
		c-0.7-0.3-1.1-0.9-1.4-1.5c-0.5-0.7-1.1-1.3-1.9-1.6c0-0.5,0-1.1,0.2-1.5c0.3-0.6,1.1-1,1.2-1.7c-0.5-0.1-1,0.3-1.4,0.5
		c-1.3,0.7-1.9,2.2-2,3.6c0.1,0.8-0.1,1.7,0.4,2.5c0.6,0.7,1.5,0.9,2.2,1.4c0.5,0.4,1.1,0.6,1.7,0.8c-0.3,2-0.7,4-1.6,5.9
		c-0.3,0.5-0.4,1-0.6,1.5c-0.6,0-1.3-0.1-1.9-0.4c-0.9-0.4-1.9-0.2-2.7-0.5c-0.5-0.1-1.1-0.5-1.7-0.3c-0.5,0.2-0.8,0.9-1.4,1.1
		c-0.6,0.2-1.2,0.6-1.8,1c-7.7-3.1-15.9-4.8-24.1-5c-11-0.2-22,2.2-31.9,7.2c-0.2-0.3-0.5-0.6-0.8-0.9c-0.4-0.3-0.9-0.3-1.3-0.5
		c-0.5-0.3-0.8-0.9-1.4-1c-1,0-1.9,0.4-2.7,0.9c-1,0.6-2.3,0.4-3.4,0.9c-0.6,0-1.2,0.2-1.8,0.1c-0.7-0.5-1.1-1.5-1.5-2.3
		c-0.6-1.6-1-3.2-1.1-4.9c0.5-1.1,2-1.1,2.7-2.1c0.9-1,0.5-2.3,0.6-3.5c0.6,0.6,0.4,1.5,0.3,2.2c-0.1,1.5-1.4,2.5-2.5,3.2
		c-0.9,0.7-0.2,1.9-0.1,2.7c0.5,1.4,1,2.8,1.7,4c0.7-0.2,1.5,0,2.2-0.3c0.7-0.2,1.4-0.3,2.1-0.4c1-0.4,2-1,3.2-1.1
		c1,0.1,1.6,1,2.5,1.3c0.4,0.1,0.7,0.4,1,0.6c1.9-1,3.8-1.7,5.8-2.5c7.6-3,15.9-4.5,24.1-4.5c4.8-0.1,9.5,0.4,14.2,1.3
		c3.9,0.7,7.8,1.9,11.5,3.3c0.2,0.1,0.5,0.2,0.8,0.1c0.7-0.3,1.4-0.7,2-1.2c0.5-0.5,1.4-0.7,2-0.4c1,0.4,2.1,0.3,3.1,0.7
		c0.5,0.1,1,0.4,1.5,0.2c0.5-0.8,1.2-1.5,1.4-2.5c0.3-1.1,0.6-2.2,0.6-3.4c-0.6-0.4-1.1-0.8-1.6-1.2c-0.7-0.6-1.7-0.9-2-1.9
		c-0.6-1-0.3-2.2-0.1-3.3c0.4-1.3,1-2.6,2.3-3.2c0.7-0.3,1.7-0.8,2.4,0c-0.5,0.9-1.2,1.6-1.6,2.6c0.7,0.5,1.2,1.2,1.6,2
		c0.2,0.6,0.7,1.2,1.4,1.2c-0.3-1-0.6-2.1-0.7-3.2c0-0.3,0.3-0.4,0.5-0.6C141.2,23.6,142.7,22.4,144.3,21.1L144.3,21.1z
		 M171.3,114.7L171.3,114.7c-0.7,0.4-1.4,0.7-2.1,1c-0.1,0.5-0.3,0.9-0.4,1.4c0.8,0.3,1.5,0.6,2.3,0.9c0.2-0.1,0.4-0.2,0.6-0.4
		c0.3,0.2,0.7,0.3,1,0.4c0.2-0.4,0.2-0.9,0.3-1.4c0.2-0.3,0.4-0.6,0.6-0.9C173.2,115,172.2,114.3,171.3,114.7L171.3,114.7z"/>
	<path class="st2" d="M142.8,23.6c0.4-0.3,0.8-0.8,1.4-0.7c-0.9,0.8-1.8,1.7-2.9,2.3C141.5,24.5,142.2,24.1,142.8,23.6L142.8,23.6z"
		/>
	<path class="st2" d="M142.6,26.3c0.4-0.8,1.1-1.4,1.7-2.1l0,0.2c0,0.3,0,0.5,0,0.8c-0.1,0.5-0.3,0.9-0.4,1.4c-0.1,0-0.4,0-0.5,0
		c0.1-0.4,0.2-0.7,0.4-1.1C143.4,25.8,143,26.1,142.6,26.3L142.6,26.3z"/>
	<path class="st2" d="M144.8,26.6c0.1-0.6,0.1-1.3,0.6-1.7c0.1,0.6,0.1,1.1,0.1,1.7C145.3,26.6,144.9,26.6,144.8,26.6L144.8,26.6z"
		/>
	<path class="st2" d="M134.8,26.9c0.2-0.5,0.1-1.3,0.7-1.5c0,0.4,0,0.7,0,1.1c0,0.6,0.7,1,0.5,1.6c-0.1,0.2-0.3,0.3-0.4,0.5
		C135.4,28,134.6,27.6,134.8,26.9L134.8,26.9z"/>
	<path class="st2" d="M141.8,25.9C142.4,25.6,141.8,26.6,141.8,25.9L141.8,25.9z"/>
	<path class="st2" d="M50.3,25.9c0.5,0.2,0.4,0.6,0.5,1c0.1,1,0.7,1.8,1.2,2.6c-0.1,0.1-0.2,0.3-0.3,0.3c-0.1,0.2-0.3,0.4-0.4,0.5
		c-0.1-0.2-0.2-0.5-0.4-0.7C50.6,28.4,50.3,27.2,50.3,25.9L50.3,25.9z"/>
	<path class="st2" d="M140.9,26.7c0.1-0.1,0.2-0.2,0.3-0.3c0.1,0.1,0.2,0.4,0.3,0.6c0,0.5-0.1,1-0.1,1.6
		C141.1,28,141,27.4,140.9,26.7L140.9,26.7z"/>
	<path class="st2" d="M142.6,27.4c0-0.7,0.8-0.2,1.2-0.2l-0.1,0.1c-0.2,0.4-0.5,0.9-0.7,1.3c-0.1,0-0.3,0.1-0.4,0.1
		c0-0.1,0-0.4,0-0.5C142.6,27.9,142.6,27.6,142.6,27.4L142.6,27.4z"/>
	<path class="st2" d="M144.6,27.4c0.3,0,0.6-0.1,0.9-0.1c-0.3,0.8-0.7,1.5-1.4,2c-0.1-0.6,0.3-1.1,0.5-1.7L144.6,27.4L144.6,27.4z"
		/>
	<path class="st2" d="M58.9,27.5c0.4,0.2,0.5,0.7,0.7,1.1c0.2,0.8,0.3,1.7,0,2.5c-0.3-0.2-0.5-0.4-0.8-0.6
		C59.1,29.5,59,28.5,58.9,27.5L58.9,27.5z"/>
	<path class="st2" d="M136.9,27.7c0.2,0.1,0.4,0.1,0.6,0.2c-0.6,0.8-1.1,2-2.3,1.7c0-0.5,0.5-0.5,0.9-0.7
		C136.4,28.6,136.6,28.1,136.9,27.7L136.9,27.7z"/>
	<path class="st2" d="M150.4,28.4c0.5,0.2,0.5,0.9,0.4,1.4c-0.1,0.8-0.5,1.4-0.9,2c-0.6,0.2-0.7-0.6-0.4-0.9
		C149.9,30.1,150.3,29.3,150.4,28.4L150.4,28.4z"/>
	<path class="st2" d="M49.3,28.5c0.4,0.6,0.5,1.3,0.6,2c-0.4,0.2-0.7,0.3-1.1,0.5C48.8,30.1,49,29.3,49.3,28.5L49.3,28.5z"/>
	<path class="st2" d="M143,29.4c0.2,0.1,0.4,0.1,0.6,0.2c-0.2,0.2-0.5,0.4-0.9,0.5C142.9,29.9,142.9,29.7,143,29.4L143,29.4z"/>
	<path class="st2" d="M52.7,30.3c0.5-0.2,0.9-0.4,1.4-0.6c-0.2,0.7-0.5,1.3-0.9,1.9c-0.1-0.3-0.2-0.6-0.3-0.8c-0.1,0-0.4,0-0.5,0
		l0,0.1c0,0.5,0.3,0.9,0.6,1.3c-0.1,0.1-0.3,0.2-0.4,0.2c-0.5-0.5-0.7-1.1-1.2-1.6c-0.1-0.2-0.3-0.3-0.4-0.5
		C51.6,30.4,52.1,30.5,52.7,30.3L52.7,30.3z"/>
	<path class="st2" d="M140.2,30c0.1,0,0.4-0.1,0.5-0.1c0,0.3-0.1,0.4-0.4,0.5l-0.1-0.1C140.2,30.2,140.2,30.1,140.2,30L140.2,30z"/>
	<path class="st2" d="M57.3,31.6c-0.3-0.4,0.1-0.7,0.4-0.9c0.1,0.1,0.4,0.2,0.5,0.3C57.9,31.2,57.6,31.4,57.3,31.6L57.3,31.6z"/>
	<path class="st2" d="M48.7,31.5c0.7-0.2,1.4-0.7,2.2-0.7c0,0.5-0.1,0.9,0,1.4c0.2,0.5,0.6,0.9,1,1.3c-0.6,0.1-1-0.3-1.5-0.6
		C49.9,32.4,49.2,32.1,48.7,31.5L48.7,31.5z"/>
	<path class="st2" d="M59.1,32.3c-0.3,0.1-0.5-0.4-0.3-0.6C59.2,31.5,59.5,32.1,59.1,32.3L59.1,32.3z"/>
	<path class="st2" d="M55.3,33.3c0.2-0.6,0.8-0.8,1.3-1C56.4,32.9,55.8,33.2,55.3,33.3L55.3,33.3z"/>
	<path class="st2" d="M138.8,32.7c0.1,0,0.3-0.1,0.4-0.1c-0.3,2-0.8,4.1-1.7,5.9c-0.1,0.3-0.3,0.4-0.6,0.5c0.1-0.9,0.6-1.7,0.9-2.6
		C138.5,35.3,138.6,34,138.8,32.7L138.8,32.7z"/>
	<path class="st2" d="M43.9,33.2c0.4,0.3,0.6,0.7,0.9,1.1c0.3,0.4,0.8,0.7,1.1,1.1c-0.2,0.3-0.7,0.1-1,0C44.1,35,43.9,34,43.9,33.2
		L43.9,33.2z"/>
	<path class="st2" d="M141.8,34c0.6-0.2,1.4-0.1,2,0c0.1,0.1,0.2,0.2,0.2,0.3c-0.5,0-1,0-1.6,0C142.2,34.3,141.9,34.3,141.8,34
		L141.8,34z"/>
	<path class="st2" d="M49.7,35.3c0.7-0.5,1.5-0.9,2.4-1.3c0.1,0.1,0.4,0.3,0.5,0.4c-0.7,0.2-1.4,0.5-2,0.8c-0.1,0.1-0.3,0.2-0.5,0.3
		C50,35.5,49.8,35.4,49.7,35.3L49.7,35.3z"/>
	<path class="st2" d="M47.7,35.5c0.3-0.3,0.7-0.4,1.1-0.4c0.1,0.1,0.4,0.2,0.5,0.3C48.8,35.5,48.2,35.6,47.7,35.5L47.7,35.5z"/>
	<path class="st2" d="M140.7,36c-0.1-0.4,0.1-0.5,0.4-0.4C141.1,36,141,36.1,140.7,36L140.7,36z"/>
	<path class="st2" d="M53.2,36c0.3-0.3,0.6-0.2,1-0.2c-0.3,0.3-0.6,0.5-1,0.8c-0.5,0.4-1,0.7-1.5,1.1c-0.2,0.1-0.3,0.3-0.5,0.4
		c0-0.1-0.1-0.3-0.1-0.4C51.7,36.9,52.6,36.6,53.2,36L53.2,36z"/>
	<path class="st2" d="M53.3,38.1c0.3,0.3,0.6,0.6,0.8,1c-0.1,0-0.2-0.1-0.2-0.2c-0.2-0.2-0.4-0.3-0.6-0.5c0,0-0.1-0.1-0.2-0.1
		C53.1,38.3,53.2,38.2,53.3,38.1L53.3,38.1z"/>
	<path class="st2" d="M136.3,40.1c0.7-0.1,1.5-0.4,2.3-0.3c0.5,0.3,0.7,0.8,0.7,1.3c-0.4-0.4-0.7-0.8-1.1-1.2
		c-0.2,0.3-0.4,0.6-0.7,0.8c-0.4,0-0.7,0-1.1,0C136.3,40.6,136.3,40.2,136.3,40.1L136.3,40.1z"/>
	<path class="st2" d="M128.4,40.1c0.2-0.2,0.7,0,0.5,0.3C128.6,40.8,127.8,40.4,128.4,40.1L128.4,40.1z"/>
	<path class="st2" d="M133,40.2c0.6-0.3,0.3,0.8-0.1,0.3C133,40.4,133,40.2,133,40.2L133,40.2z"/>
	<path class="st2" d="M128.8,41.1c0.2-0.3,0.7,0.1,0.4,0.3C129.1,41.8,128.6,41.4,128.8,41.1L128.8,41.1z"/>
	<path class="st2" d="M67.6,42.4c0.5-0.1,1.1-0.4,1.5,0.1c0.2,0.3,0.4,0.7,0.5,1.1c-0.6-0.2-1.1-0.3-1.7-0.4
		C67.6,43.2,67.3,42.7,67.6,42.4L67.6,42.4z"/>
	<path class="st2" d="M69.8,42.3c0.8,0.9,0.9,2.4,0.3,3.4c-0.3-0.3-0.4-0.7-0.4-1.2c0.1-0.3,0.5-0.6,0.3-1
		C69.8,43.2,69.7,42.8,69.8,42.3L69.8,42.3z"/>
	<path class="st2" d="M132.5,42.7c0.7,0,1.5,0,2.1,0.4c0.3,0.2,0.1,0.6,0,0.8C133.9,43.6,133,43.4,132.5,42.7L132.5,42.7z"/>
	<path class="st2" d="M56.9,43.8C56.7,43.5,57,43,57.3,43C57.5,43.3,57.3,43.8,56.9,43.8L56.9,43.8z"/>
	<path class="st2" d="M135.9,43.6c0.6,0.1,1.5-0.3,1.9,0.3c0,0.6-0.1,1.3-0.3,1.9c-0.7-0.3-1.4-0.8-2-1.3
		C135.7,44.2,135.7,43.8,135.9,43.6L135.9,43.6z"/>
	<path class="st2" d="M54.2,44.5c0.3-0.8,1.1-0.9,1.9-0.9c0,0.1,0,0.4,0,0.5c-0.3,0-0.5,0-0.8,0.1C55,44.3,54.6,44.4,54.2,44.5
		L54.2,44.5z"/>
	<path class="st2" d="M61,44.5c-0.3,0.7-0.9-0.4-0.2-0.4C60.9,44.2,61,44.4,61,44.5L61,44.5z"/>
	<path class="st2" d="M139,44.1c0.6,0.3,1.2,0.5,1.8,0.6c0,1-0.4,1.9-0.7,2.9c-0.6-0.3-1.2-0.7-1.6-1.1
		C138.5,45.7,138.9,44.9,139,44.1L139,44.1z"/>
	<path class="st2" d="M148.6,44.8c0.3-0.1,0.5-0.2,0.8-0.3c0,0.2,0,0.5-0.1,0.6c-0.1,0-0.2-0.1-0.2-0.1
		C149,44.9,148.8,44.9,148.6,44.8L148.6,44.8z"/>
	<path class="st2" d="M60.8,45.8c0.7-0.8,1.8-1.2,2.9-0.9c-0.4,0.1-0.9,0.3-1.3,0.4C61.8,45.4,61.4,46.2,60.8,45.8L60.8,45.8z"/>
	<path class="st2" d="M64.2,45.3c0.2,0,0.4-0.1,0.6-0.1c0,0.2-0.1,0.3-0.1,0.5C64.5,45.6,64.3,45.5,64.2,45.3L64.2,45.3z"/>
	<path class="st2" d="M141.9,45.2C142.6,45.2,141.6,45.8,141.9,45.2L141.9,45.2z"/>
	<path class="st2" d="M83.7,48.2c5.4-1.8,11.1-2.7,16.8-2.8c1.5-0.1,3,0.1,4.5,0.1c8.9,0.5,17.7,3.3,25.4,7.8
		c1.9,1.2,3.7,2.3,5.5,3.6c3.2,2.5,6.2,5.2,8.8,8.2c2.9,3.3,5.4,7.1,7.5,10.9c0.2,0.3,0.3,0.6,0.4,0.9c-0.2-0.1-0.4-0.3-0.6-0.5
		c-2.5-3.7-5-7.3-7.5-11c-0.1-0.3-0.5-0.4-0.7-0.3c-0.5,0.4-1,0.9-1.5,1.3c-1.6-1.8-3.4-3.3-5.1-5c0.2-0.8,0.8-1.7,0.2-2.5
		c-0.8-1.1-2-1.8-3-2.7c-0.7-0.6-1.5-1-2.3-1.2c-0.7,0.3-0.6,1.2-0.8,1.8c-0.5,0-0.9-0.3-1.2-0.7c0.5-0.4,1-0.8,1.4-1.3
		c-0.5-1.1-1.6-1.6-2.6-2.1c-0.9,0.3-1.4,1-2.2,1.5c-6.5-3.4-13.7-5.6-21-6.1c-1-0.2-2.1-0.1-3.2-0.2c-1.7-0.1-3.4,0.1-5.1,0.1
		c-4.8,0.3-9.7,1.3-14.3,2.9c-3.5,1.2-6.9,2.9-10.1,4.7c-1.1,0.6-2,1.5-3,2c-0.8-0.4-1.5-0.9-2.2-1.4c0.9-1,2.1-1.6,3.2-2.3
		C75,51.7,79.3,49.7,83.7,48.2L83.7,48.2z"/>
	<path class="st2" d="M54.2,45.7c0.3-0.1,0.4,0,0.4,0.3C54.3,46.2,54.2,46.1,54.2,45.7L54.2,45.7z"/>
	<path class="st2" d="M149.5,45.9c0.7-0.5,1.4,0.4,1.5,1c-0.1,0-0.4,0-0.5,0.1C150.2,46.5,149.9,46.2,149.5,45.9L149.5,45.9z"/>
	<path class="st2" d="M58.1,46.9c0.6-0.2,1.3-0.3,2-0.3c0.3,0.7,0.5,1.3,0.8,2c-0.5,0.5-1,1-1.6,1.4C58.8,49,58.5,47.9,58.1,46.9
		L58.1,46.9z"/>
	<path class="st2" d="M148.9,46.6c0.5,0.4,1.2,0.7,1.3,1.3c-0.6-0.2-1.1-0.6-1.5-1C148.7,46.9,148.9,46.7,148.9,46.6L148.9,46.6z"/>
	<path class="st2" d="M61.2,46.8c0.6,0.2,0.8,0.8,0.9,1.3C61.4,48,61.2,47.3,61.2,46.8L61.2,46.8z"/>
	<path class="st2" d="M54.3,48.3c0.2-0.7,1.1-0.7,1.7-0.6c0.4,0.1,0.5,0.5,0.6,0.8c0.3,0.9,0.7,1.9,1.1,2.8c-0.5,0.6-1.1,1-1.6,1.5
		c-0.5-0.5-0.6-1.3-0.9-1.9C54.9,50,54.4,49.2,54.3,48.3L54.3,48.3z"/>
	<path class="st2" d="M141.2,47.6c0.1,0,0.4,0,0.6,0l0,0.1c0.1,0.1,0.2,0.2,0.3,0.3c0.3,0.1,0.5,0.2,0.7,0.3
		c-0.2,0.3-0.4,0.5-0.7,0.8c-0.4-0.3-0.8-0.6-1.1-0.9C141,48,141.1,47.8,141.2,47.6L141.2,47.6z"/>
	<path class="st2" d="M51,48.9c0.3-0.1,0.5,0.5,0.2,0.6C50.9,49.5,50.7,48.9,51,48.9L51,48.9z"/>
	<path class="st2" d="M150,49.3c0.1,0,0.3-0.1,0.4-0.1c0,0.1,0,0.3-0.1,0.4c-0.2,0.1-0.4,0.2-0.6,0.3
		C149.9,49.8,149.9,49.6,150,49.3L150,49.3z"/>
	<path class="st2" d="M48.5,50.4c0.2,0.2,0.6,0.4,0.4,0.7c-0.1,0.3-0.1,0.6-0.1,0.9c-0.1,0.5-0.3,0.9-0.4,1.4c-0.2,0-0.5,0-0.7,0
		c-0.1-0.3-0.1-0.5-0.2-0.8c0.2,0,0.5,0.1,0.7,0.1c-0.3-0.1-0.5-0.1-0.8-0.2c0.1-0.6-0.4-1.5,0.4-1.8c0,0.5-0.1,1,0.3,1.3
		C48.3,51.5,48.4,50.9,48.5,50.4L48.5,50.4z"/>
	<path class="st2" d="M51.3,51.2c0.6,0.4,1.2,0.8,1.5,1.4c0.4,0.7,1,1.1,1.7,1.5c-0.7,0.8-1.4,1.5-2.1,2.2c-1.2-0.7-2.7-1.4-3.1-2.9
		c-0.1-0.5,0.5-0.6,0.8-0.8C50.8,52.5,51,51.7,51.3,51.2L51.3,51.2z M50.4,53.1L50.4,53.1c-0.2,0.1-0.6,0.1-0.6,0.4
		c0.2,0.9,1,1.4,1.6,1.9c0.4-0.5,1-0.9,1.4-1.4c-0.3-0.7-0.7-1.5-1.2-2C51.2,52.4,50.9,52.9,50.4,53.1L50.4,53.1z"/>
	<path class="st2" d="M54,52.5c-0.2-0.3-0.2-0.7,0.2-0.8c0.5,0.5,0.8,1.1,1,1.7C54.6,53.4,54.3,52.9,54,52.5L54,52.5z"/>
	<path class="st2" d="M114.3,65C119,61,124,57.2,129,53.6c0.7,0.3,1.3,0.7,1.8,1.3c-1.9,1.8-3.8,3.6-5.9,5.3
		c-6.3,5.2-12.4,10.5-18.7,15.6c-3.2,2.6-6.4,5.3-9.6,7.9c-0.3-1.3-0.3-2.6-0.5-3.9c-0.1-0.5,0.4-0.9,0.8-1.1
		C102.8,74.2,108.5,69.5,114.3,65L114.3,65z"/>
	<path class="st2" d="M48.3,53.9c0.6,0.3,0.7,1,1.2,1.3c0.4,0.4,1,0.5,1.1,1.1c-0.7-0.1-1.4-0.5-1.9-1.1
		C48.5,54.8,48.4,54.3,48.3,53.9L48.3,53.9z"/>
	<path class="st2" d="M132.6,56.3c0.4-0.2,1,0.3,1.3,0.6c-0.4,1.3-0.6,2.7-0.9,4.1c-0.1,0.4,0.3,0.8,0.2,1.2
		c-1,3.6-1.7,7.2-2.7,10.7c-1,4.1-2.1,8.2-3.1,12.3c-0.7,2.8-1.5,5.5-2.1,8.3c0.7,0,0.7-0.7,0.8-1.2c0.6-2.2,1.1-4.3,1.7-6.5
		c1.2-4.6,2.4-9.1,3.6-13.6c0.5-2,1.1-4,1.6-6c0.7-2.8,1.5-5.6,2.2-8.5c0.7,0.5,1.1,1.1,1.6,1.8c0.3,0.3,0,0.7,0,1
		c-0.2,1.1-0.6,2.2-0.9,3.4c-0.4,2.1-1.2,4.2-1.7,6.3c-1.9,6.7-3.7,13.4-5.6,20c-2.7,9.7-5.4,19.4-8.2,29.1
		c-0.3,0.2-0.6,0.1-0.8,0.2c-1,0-2,0.2-2.9,0.1c1.5-5.9,3-11.9,4.5-17.8c0.2-1.1,0.9-2,1.7-2.8c-0.1-0.8-0.7-1.5-0.3-2.3
		C125.9,83.1,129.2,69.7,132.6,56.3L132.6,56.3z"/>
	<path class="st2" d="M66.9,57.3c0.3-0.3,0.6-0.1,0.9,0.1c3.7,2,7.1,4.4,10.7,6.6c2.8,1.9,5.7,3.6,8.5,5.5c0.7,0.5,1.6,0.9,2.2,1.6
		c-0.7,0.1-1.4,0.2-2.1,0.6c-0.3,0.2-0.7,0.5-1.1,0.2C80,67.7,74,63.5,67.9,59.5c-0.5-0.3-1.1-0.7-1.6-1.1
		C66,58,66.6,57.6,66.9,57.3L66.9,57.3z"/>
	<path class="st2" d="M63.4,60c0.5-0.9,1.4-1.3,2.1-2c0.1,1,1.1,1.3,1.7,1.9c-0.4,0.4-0.9,0.7-1.4,1.1c-0.3-0.5-0.6-1-1.1-1.4
		C64.3,59.7,63.9,59.9,63.4,60L63.4,60z"/>
	<path class="st2" d="M62.9,61.1c0.4-0.3,1-0.6,1.5-0.7c0.5,0.3,0.5,0.9,0.7,1.4c3.4,9.3,6.7,18.6,9.9,27.9c-0.3,1.1-1,2-1.5,3.1
		c-0.4,0.6-0.6,1.4-1.2,1.9c-1-2.8-2.2-5.5-3.2-8.2c0.1-0.9,0.3-1.7,0.6-2.5c0.1,0,0.2-0.1,0.3-0.2c0.5,1.6,1.1,3.3,1.8,4.8
		c0.1,0.3,0.3,0.5,0.6,0.6c0-0.8-0.5-1.5-0.7-2.2c-0.8-2.4-1.7-4.7-2.5-7C67.1,73.7,64.9,67.4,62.9,61.1L62.9,61.1z"/>
	<path class="st2" d="M60.4,64c0.2-0.8,0.7-1.4,1.4-1.9c0.8,2,1.5,4.1,2.3,6.1c1.8,4.5,3.5,9.1,5.2,13.7c0.1,0.3,0.2,0.6,0.2,0.9
		c-0.6,0-1.2,0.1-1.7,0c-1-2.2-1.8-4.5-2.7-6.8c-1.3-3.3-2.6-6.5-3.8-9.8C60.9,65.5,60.5,64.8,60.4,64L60.4,64z"/>
	<path class="st2" d="M55.6,68.2c1.3-1.6,2.5-3.2,4-4.6c0.1,1,0.4,1.9,0.7,2.8c-1.5,1.6-2.8,3.3-4,5.1c-0.4,0.7-1.2,0.8-1.9,1.2
		c-0.7,1.2-0.6,2.6-1.3,3.8c-2.6,4.7-4.5,9.8-5.7,15.1c-1,4.3-1.5,8.8-1.4,13.3c0.1,1.5-0.5,2.9-0.7,4.3c-0.1,0.7-0.5,1.3-0.3,2
		c0.6,0.3,1.2-0.3,1.8,0c0.4,1.9,0.7,3.7,1.1,5.6c-0.8,0.5-1.5,1.2-1.4,2.2c0.1,1.5,0.7,2.9,1.3,4.3c0.2,0.3,0.1,0.7-0.2,0.9
		c-1.3-3-2.1-6.2-2.8-9.4C41.4,98.7,45.4,81.2,55.6,68.2L55.6,68.2z"/>
	<path class="st2" d="M141.4,68.6c0.5-0.6,1.1-1.1,1.8-1.5c-0.4,1.5-0.7,3.1-1.2,4.6c-1.2,4.4-2.5,8.8-3.7,13.1
		c-0.9,3.1-1.7,6.1-2.6,9.2c-0.4,1.8-1,3.5-1.5,5.3c-0.2,1.2-0.7,2.4-1,3.6c-0.9,3.1-1.8,6.2-2.7,9.3c-0.6,1.5-0.9,3-1.4,4.5
		c-0.2,0.6-0.1,1.2-0.6,1.7c-0.5,0.6-1.1,1.3-1.8,1.7c0.1-0.8,0.4-1.5,0.6-2.3c1.2-4,2.3-8,3.4-12c0.4-1.7,1.1-3.4,1.5-5.1
		c1.2-4.5,2.5-8.9,3.7-13.4c1.1-4.1,2.3-8.1,3.4-12.1C140,72.8,140.7,70.7,141.4,68.6L141.4,68.6z"/>
	<path class="st2" d="M136,67.7c0.3-0.1,0.6-0.1,0.9,0c-0.4,0.2-0.9,0.5-1.3,0.7C135.8,68.1,135.9,67.9,136,67.7L136,67.7z"/>
	<path class="st2" d="M134.7,71c0.6-0.2,1.1-0.5,1.7-0.7c0,0.5-0.4,0.9-0.7,1.3c-0.4,0.5-0.8,1.1-1.5,1.2
		C134.3,72.2,134.5,71.6,134.7,71L134.7,71z"/>
	<path class="st2" d="M90,71.4c0.9,0.4,1.7,1,2.5,1.6c-0.5,0.8-1.3,1.3-2.1,1.9C90.2,73.7,90,72.6,90,71.4L90,71.4z"/>
	<path class="st2" d="M144.5,74.2c-0.2-0.7,0.2-1.4,0.5-2.1c0.5,0.5,0.9,1.1,1.3,1.7c0,0,0,0,0,0.1c1.5,2.3,3.1,4.6,4.6,6.9
		c0.7,1,1.4,1.9,1.9,2.9c0.6,1,1.4,1.9,1.8,3c-0.9-0.3-1.8-0.6-2.5-1.2C149.5,81.8,147,77.9,144.5,74.2L144.5,74.2z"/>
	<path class="st2" d="M54.5,73.8c0.2-0.8,1.2-0.9,1.8-1.1c-1.6,7.1-3.4,14.2-5.1,21.4c-1.2,4.8-2.4,9.6-3.5,14.4
		c-0.6,0.6-1.2,1.1-1.9,1.6c0.8-4,1.7-7.9,2.7-11.8C50.5,90.1,52.4,82,54.5,73.8L54.5,73.8z"/>
	<path class="st2" d="M84.1,74.4c0.4-1,1.5-1.5,2.4-1.7c-0.1,0.3-0.2,0.5-0.3,0.8c-3.8,7-7.6,14.1-11.4,21.1c-0.7,1.2-1.4,2.4-2,3.6
		c-0.2,0.6-1.1,0.6-1.6,0.3c1.2-2.7,2.8-5.1,4.1-7.8C78.2,85.2,81.1,79.8,84.1,74.4L84.1,74.4z"/>
	<path class="st2" d="M91.2,75.2c0.2-0.6,0.8-0.9,1.3-1.1c0.2,1.1,0.3,2.2,0.4,3.3c0.4,4.5,0.9,8.9,1.4,13.4
		c0.1,1.7,0.4,3.4,0.6,5.1c0.1,1.7,0.3,3.4,0.5,5.1c0,1.5,0.4,3,0.5,4.5c0.2,3,0.6,6.1,0.9,9.1c-0.3,0.3-0.7,0.2-1.1,0
		c-0.4-0.2-0.3-0.6-0.4-1c-0.5-4-0.9-8-1.3-12c-0.1-0.6,0.5-1.2,0.3-1.8c-0.1-0.6-0.1-1.2-0.2-1.7c-0.2-0.3-0.4-0.5-0.5-0.8
		c-0.7-5-1.3-10-1.7-15C91.5,79.9,91.3,77.5,91.2,75.2L91.2,75.2z"/>
	<path class="st2" d="M124.6,75.1c0.9-0.4,1.7-0.8,2.6-1c-0.1,0.6-0.2,1.2-0.5,1.7c-0.8,0.6-1.7,0.8-2.5,1.3
		c-2.1,0.9-4.1,1.7-6.2,2.5c-0.4,0.2-0.8,0.3-1.3,0.3c0.2-0.8,0.3-2,1.2-2.2C120.1,76.9,122.4,75.9,124.6,75.1L124.6,75.1z"/>
	<path class="st2" d="M95.8,75.2c0.9,0.3,1.7,1,2.5,1.5c-0.6,0.6-1.4,1.2-2.1,1.7C95.7,77.4,95.8,76.3,95.8,75.2L95.8,75.2z"/>
	<path class="st2" d="M107.3,77.9c0.6-0.6,1.1-1.3,2-1.5c0,0.2-0.1,0.5-0.1,0.7c-2.4,7.2-4.6,14.4-7.1,21.5
		c-0.9,2.6-1.7,5.2-2.6,7.8c0,0.2-0.2,0.4-0.4,0.5c-0.1-1.1-0.4-2.1-0.3-3.2c2.4-7.8,4.8-15.6,7.4-23.3
		C106.5,79.5,106.5,78.5,107.3,77.9L107.3,77.9z"/>
	<path class="st2" d="M112.4,78.9c0.3-0.9,0.9-1.6,1.7-1.9c0,1-0.4,1.9-0.7,2.8c-1.1,3.6-2.3,7.2-3.4,10.8c-1.1,3.3-2.2,6.6-3.2,10
		c-1.1,3.5-2.3,6.9-3.3,10.4c-1.3,3.8-2.5,7.6-3.8,11.4c-0.4,1.1-1.3,1.9-1.9,2.8c-0.1,0.1-0.3,0.2-0.4,0.2c0.8-3.1,1.9-6,2.8-9.1
		c2.5-7.6,4.9-15.2,7.3-22.9c1-2.8,1.8-5.7,2.8-8.6C111.1,82.9,111.7,80.9,112.4,78.9L112.4,78.9z"/>
	<path class="st2" d="M86.8,79.4c-0.1-0.8,0.3-1.5,0.7-2.1c0.4,1.5,0.3,3.2,0.6,4.7c0.2,0.9,0.2,1.7,0.4,2.6c-0.3,0.3-0.7,0.6-1,0.8
		c-0.3-0.8-0.3-1.7-0.3-2.6C87,81.8,86.9,80.6,86.8,79.4L86.8,79.4z"/>
	<path class="st2" d="M102.3,79.8c0.5-0.5,1,0.1,1.4,0.3c0.6,0.4,1.7,0.8,1.4,1.7c-0.3,0.8-0.4,1.7-0.9,2.4
		c-1.3-0.9-2.7-1.8-3.9-2.8C101,80.9,101.6,80.3,102.3,79.8L102.3,79.8z"/>
	<path class="st2" d="M79.5,92.7c3.9-3.1,7.8-6.3,11.8-9.4c0.4,1.4,0.5,3,0.6,4.4c-4,3.5-8.1,6.9-12.3,10.3
		c-0.2,0.2-0.5,0.4-0.8,0.4c-0.8,0-1.5,0.1-2.3-0.1c0.8-0.7,1.7-1.3,2.5-2.1c0.5-0.4,1.1-0.7,1.4-1.3c-0.1,0-0.4,0-0.5,0.1
		c-1.1,0.7-2,1.7-3.2,2.1c0.2-0.7,0.6-1.2,1-1.8C78.2,94.4,78.6,93.3,79.5,92.7L79.5,92.7z"/>
	<path class="st2" d="M65,85.3c0.3-0.5,0.8-1,1.4-1.3c-0.1,0.9-0.4,1.7-0.5,2.5c-3,12.9-6.3,25.8-9.4,38.7c-0.5,2-1,4.1-1.4,6.1
		c-0.1,0.5-0.5,0.9-0.8,1.2c-0.3,0.3-0.6,0.7-1,0.9c0.9-4.2,1.9-8.3,3-12.5c0.4-2,1-3.9,1.4-5.9c0.4-1.8,1-3.6,1.4-5.5
		c1.6-6.9,3.5-13.8,5.1-20.7C64.4,87.7,64.6,86.5,65,85.3L65,85.3z"/>
	<path class="st2" d="M109.6,84.5c0.1-0.1,0.3-0.2,0.4-0.3c-0.3,1.1-0.6,2.2-1,3.2c-0.1-0.1-0.2-0.2-0.3-0.3
		C109,86.2,109.3,85.4,109.6,84.5L109.6,84.5z"/>
	<path class="st2" d="M152,86.8c0.8-0.5,1.6,0.2,2.4,0.5c-1.5,0.8-2.9,1.6-4.4,2.3c-2.6,1.3-5.1,2.6-7.7,3.8
		c-1.3,0.5-2.4,1.4-3.7,1.7c0.1-0.6,0.2-1.2,0.5-1.8c0.7-0.5,1.5-0.8,2.2-1.2C144.7,90.4,148.3,88.5,152,86.8L152,86.8z"/>
	<path class="st2" d="M113.3,90.5c0.3-1.2,0.7-2.4,1.2-3.6c2.1,1.4,4.3,2.8,6.4,4.1c0.5,0.3,1,0.6,1.5,1c0.2,0.3,0,0.6,0,0.9
		c-0.3,1-0.4,2.1-0.8,3.1C118.8,94.3,116.1,92.4,113.3,90.5L113.3,90.5z"/>
	<path class="st2" d="M155,91.4c0.7-0.5,1.6-0.8,2.4-1.2c0.3,1,0.4,2,0.6,2.9c0.6,2.8,0.7,5.6,1,8.4c0.2,8.7-1.5,17.5-5,25.5
		c-3.3,7.4-8.1,14-14.1,19.4c-4.5,3.9-9.4,7.3-14.8,9.6c0.4-1,1.5-1.2,2.3-1.8c0.6-0.5,1.7-0.7,1.9-1.5c-0.6,0.1-1.1,0.5-1.7,0.7
		c-0.4,0.1-0.8,0.2-1.2,0.3c0.2-0.3,0.3-0.5,0.5-0.8c-0.4,0.2-0.9,0.3-1.3,0.4c0.1-0.7,0.9-0.7,1.4-1.1c3.2-1.7,6.2-3.6,9-5.8
		c2.3-1.9,4.5-4,6.6-6.2c5.3-5.9,9.2-13,11.6-20.5c0.4-0.5,1.3-0.2,1.7-0.7c0.7-0.8,1-1.9,1.3-2.9c0.2-0.8,0.4-1.6,0.3-2.5
		c-0.4-0.5-1-0.8-1.5-1.2c0.5-3.9,0.8-7.8,0.6-11.7C156.1,97.6,155.8,94.5,155,91.4L155,91.4z M131.7,150.6L131.7,150.6
		c0,0.1-0.1,0.3-0.1,0.5c0.1,0,0.4-0.1,0.5-0.1c0-0.1,0-0.3,0-0.4C132,150.6,131.8,150.6,131.7,150.6L131.7,150.6z M129.9,151.6
		L129.9,151.6c0,0.2-0.1,0.4-0.1,0.6c0.2,0,0.4-0.1,0.6-0.1c0-0.2,0.1-0.4,0.1-0.6C130.3,151.6,130.1,151.6,129.9,151.6L129.9,151.6
		z"/>
	<path class="st2" d="M87.9,92c0.3-0.4,0.7-0.7,1.2-0.9c0,0.2,0.1,0.5,0.1,0.7c0.1,0.6,0.2,1.2,0.2,1.8c0.1,1.1,0.2,2.2,0.4,3.3
		c0,0.3,0,0.6,0,0.9c-0.4,0.1-0.8,0.2-1.1,0.1c-0.3-0.2-0.3-0.6-0.3-0.9C88.2,95.4,88.1,93.7,87.9,92L87.9,92z"/>
	<path class="st2" d="M144.8,96.1c0.4-0.3,0.9-0.5,1.4-0.7c1.4,3.6,2.5,7.3,3.8,10.9c1,2.9,1.9,5.8,2.9,8.7c0.2,0.6,0.5,1.2,0.5,1.8
		c-0.2,0.4-0.5,0.7-0.7,1.1C150,110.6,147.4,103.3,144.8,96.1L144.8,96.1z"/>
	<path class="st2" d="M128,95.6c1.3,0.7,2.6,1.6,3.8,2.4c0.4,0.2,0.3,0.7,0.2,1c-0.3,1.1-0.6,2.1-0.9,3.2c-0.1,0-0.2,0.1-0.2,0.1
		c-1.4-0.8-2.7-1.8-4-2.7C127,98.3,127.6,96.9,128,95.6L128,95.6z"/>
	<path class="st2" d="M120.5,99.4c0.4,0,0.8-0.1,1.2-0.1c-0.2,0.5-0.6,1-1.1,1.3c-1.6,0.2-3.2,0.3-4.8,0.4c-1.9,0.2-3.9,0.3-5.8,0.3
		c0-0.4,0.2-0.8,0.4-1.1C113.7,99.9,117.1,99.6,120.5,99.4L120.5,99.4z"/>
	<path class="st2" d="M66.1,102.4c-0.3-1.5,1.1-2.5,2.4-2.8c0,0.4,0.1,0.9-0.1,1.3C67.7,101.6,66.9,102.1,66.1,102.4L66.1,102.4z"/>
	<path class="st2" d="M93.1,100.6c0.3-0.1,0.4,0,0.3,0.3C93.1,101,93,100.9,93.1,100.6L93.1,100.6z"/>
	<path class="st2" d="M82.7,100.9c1.1,0,2.2-0.1,3.2-0.1c1.2,0,2.4-0.3,3.6-0.2c-0.3,0.5-0.6,0.9-1,1.2c-1.1,0.3-2.2,0.2-3.3,0.3
		c-2.3,0.2-4.6,0.1-6.9,0.2c0.2,0.1,0.4,0.2,0.6,0.4c-0.3-0.1-0.6-0.3-1-0.3c-1.4,0-2.7,0.1-4.1,0c0.2-0.4,0.3-0.9,0.8-1.2
		c0.9-0.1,1.8,0,2.7-0.1C79,101,80.9,101.1,82.7,100.9L82.7,100.9z"/>
	<path class="st2" d="M88.8,102.4c0.3-0.5,0.7-0.9,1.2-1.3c0.3,1.2,0.3,2.4,0.4,3.6c0.7,6.2,1.2,12.4,2,18.6c-0.4,0.5-0.9,1-1.5,1.3
		c-0.3-1.7-0.3-3.5-0.6-5.2c-0.1-1.3-0.3-2.7-0.3-4c-0.3-1.4-0.3-2.9-0.5-4.3C89.4,108.2,88.9,105.3,88.8,102.4L88.8,102.4z"/>
	<path class="st2" d="M136.7,101.2c3.9,2.3,7.7,4.8,11.5,7.3c0.2,0.2,0.5,0.3,0.6,0.6c0.3,0.8,0.7,1.6,0.8,2.4
		c-0.4-0.1-0.8-0.3-1.1-0.5c-1.2-0.8-2.6-1.5-3.8-2.3c-0.3-0.2-0.6-0.4-1-0.5c0,0.1,0.1,0.4,0.2,0.5c1.3,0.9,2.6,1.7,3.9,2.6
		c0.8,0.6,1.7,1,2.4,1.7c0.5,1,0.8,2,1.1,3c-0.5-0.2-1-0.5-1.5-0.8c-4.6-3-9.1-6.2-13.7-9.3c-0.3-0.2-0.7-0.5-0.6-0.9
		C135.9,103.8,136.2,102.5,136.7,101.2L136.7,101.2z"/>
	<path class="st2" d="M66.8,102.7c0.8-0.9,2.1-1.4,3.3-1.2C69.4,102.6,68,102.9,66.8,102.7L66.8,102.7z"/>
	<path class="st2" d="M68.3,103.8c0.4-0.8,1.3-1.2,2.1-1.5c-0.1,0.3-0.2,0.6-0.3,0.8c-1,1.9-2.1,3.8-3.1,5.7c-0.8,1.3-1.4,2.7-2.3,4
		c-0.6,0.5-1.1,1.2-1.9,1.3C64.6,110.6,66.4,107.2,68.3,103.8L68.3,103.8z"/>
	<path class="st2" d="M75.7,103c1.3-0.2,2.6,0,3.9-0.1c3.3,9.2,6.6,18.3,9.8,27.5c0.1,0.3,0.2,0.5,0.1,0.8c-0.3,1.3-0.7,2.5-1.1,3.7
		c-0.1,0-0.2,0-0.3,0c-0.6-1.9-1.4-3.6-2.1-5.5c-3-7.8-6.1-15.7-9.2-23.5C76.4,104.9,76,103.9,75.7,103L75.7,103z"/>
	<path class="st2" d="M66.3,103.3c0.5-0.1,1,0,1.5,0c-0.5,0.9-0.8,1.9-1.6,2.6c-0.7,0.6-1.3,1.3-2.2,1.7c0.2-0.9,0.4-1.8,0.6-2.7
		C64.9,104.1,65.7,103.6,66.3,103.3L66.3,103.3z"/>
	<path class="st2" d="M51.7,108.1c0.6-0.2,1.2-0.2,1.7-0.2c-0.9,0.9-1.8,1.9-3.1,2.1c-1.3,0.2-2.5,0.5-3.8,0.5
		c0.7-0.8,1.5-1.7,2.6-1.8C49.9,108.5,50.8,108.3,51.7,108.1L51.7,108.1z"/>
	<path class="st2" d="M51.8,109.9c0.7-0.6,1.3-1.3,2.1-1.7c-0.2,1-0.4,2.1-0.7,3.1c-2.2,9.7-4.5,19.3-6.8,29c-0.5,0.8-1.2,1.5-2,2
		c2.1-10.4,4.6-20.7,6.9-31C51.4,110.8,51.4,110.2,51.8,109.9L51.8,109.9z"/>
	<path class="st2" d="M63.9,109.4c0.4-0.3,0.7-0.7,1.2-0.9c-0.5,1-1,1.9-1.5,2.8c-0.1,0-0.3,0.1-0.4,0.2
		C63.3,110.8,63.3,109.9,63.9,109.4L63.9,109.4z"/>
	<path class="st2" d="M56.8,111.1c0.2-0.9,1-1.3,1.7-1.7c-0.2,1-0.4,1.9-0.7,2.9c-0.4,0.5-1,0.8-1.5,1
		C56.5,112.6,56.7,111.8,56.8,111.1L56.8,111.1z"/>
	<path class="st2" d="M171.5,113.4c0.6-0.5,1.4-0.2,2-0.1c0.9,0.5,2.1,0.9,2.7,1.9c-0.1,0.1-0.3,0.2-0.4,0.3
		c0.2,0.6,0.3,1.2,0.4,1.8c-0.4,0-0.8,0-0.9-0.4c-0.3-1-1-1.8-1.7-2.6C173.1,113.7,172.3,113.7,171.5,113.4L171.5,113.4z"/>
	<path class="st2" d="M62.2,115.4c0.8-0.7,1.7-1.5,2.7-2c0.7,0,1.5,0,2.2,0.3c-0.6,0.5-1.3,1-1.9,1.6
		C64.3,116,63.1,115.8,62.2,115.4L62.2,115.4z"/>
	<path class="st2" d="M155.8,113.4c0.3,0.1,0.7,0.3,0.9,0.6c0.2,0.4,0,0.9,0,1.4C156.1,115,156.1,114.1,155.8,113.4L155.8,113.4z"/>
	<path class="st2" d="M95,115.6c0.4-0.5,1.1-0.3,1.6-0.3c-0.3,1.5-0.8,3-1.4,4.5c-0.4-0.6-0.3-1.3-0.4-1.9
		C94.8,117.1,94.6,116.2,95,115.6L95,115.6z"/>
	<path class="st2" d="M55.2,118.1c0.1-1.2,0.9-2.2,1.9-2.7c-0.1,0.5-0.2,1-0.4,1.4C56.3,117.3,55.8,117.8,55.2,118.1L55.2,118.1z"/>
	<path class="st2" d="M47.7,118c0.5-0.4,1-1,1.7-1.3c-0.1,0.6-0.2,1.2-0.4,1.7c-0.4,0.5-0.9,0.8-1.5,1C47.5,119,47.3,118.3,47.7,118
		L47.7,118z"/>
	<path class="st2" d="M153.1,118.5c0.2-1.1,1.2-1.5,2.2-1.5c0,0.2-0.1,0.7-0.2,0.9c0.3-0.1,0.5-0.3,0.8-0.4
		c-0.1,0.2-0.3,0.5-0.4,0.7c-0.1-0.1-0.3-0.2-0.4-0.3C154.7,118.6,153.8,118.5,153.1,118.5L153.1,118.5z"/>
	<path class="st2" d="M174.5,117.8c0.2-0.1,0.3-0.3,0.5-0.4c0.4,0.3,0.7,0.6,1.2,0.4c0.2,0,0.5-0.1,0.7-0.1
		c-0.1,0.1-0.3,0.2-0.4,0.3c-0.2,0.2-0.4,0.3-0.6,0.5C175.5,118.2,175,118.1,174.5,117.8L174.5,117.8z"/>
	<path class="st2" d="M129.2,118.3c0.1,0,0.4,0,0.6,0c0.1,0,0.3,0,0.4,0c0.3,0.1,0.5,0.1,0.8,0.2c-0.3,0.6-0.8,1.1-1.2,1.6
		c-0.2,0.2-0.4,0.6-0.7,0.7c-0.7,0-1.5-0.1-2.2-0.3C127.7,119.7,128.4,118.9,129.2,118.3L129.2,118.3z"/>
	<path class="st2" d="M168.7,118.4c1-0.1,1.6,1,2.6,1.1c-0.2,0.3-0.5,0.5-0.9,0.6C170,119.3,169.1,119,168.7,118.4L168.7,118.4z"/>
	<path class="st2" d="M167.1,119.6c0.6-1,1.9-0.5,2.4,0.3c0.1,0.5,0,1,0,1.4C168.7,120.8,167.9,120.2,167.1,119.6L167.1,119.6z"/>
	<path class="st2" d="M27.2,121.4c0.6-1.4,2.4-1.4,3.7-1.4c-0.1,0.3-0.4,0.5-0.8,0.4c-0.7,0-1.4,0.2-2.1,0.3c0,0.2-0.1,0.4-0.1,0.6
		C27.7,121.4,27.4,121.4,27.2,121.4L27.2,121.4z"/>
	<path class="st2" d="M170,120.5c0.6-0.1,1.1-0.3,1.7-0.5c-0.3,0.5-0.8,0.8-1.4,1c-0.1,0-0.2,0-0.3,0.1
		C170.1,120.9,170,120.7,170,120.5L170,120.5z"/>
	<path class="st2" d="M166.4,122.7c0.2-0.8,0.4-1.6,0.7-2.4c0.9,0.5,1.7,1.3,2.6,1.8c0.5,0.3,1,0.6,1.4,1c0.1,0.3-0.3,0.5-0.4,0.7
		c-0.4,0.3-0.5,0.8-0.7,1.3C168.8,124.3,167.5,123.6,166.4,122.7L166.4,122.7z"/>
	<path class="st2" d="M77.1,122.4c0.9-0.4,1.8-0.9,2.8-1.2c-0.2,0.7-0.4,1.5-1.2,1.7c-4.9,2.2-9.8,4.4-14.8,6.6
		c-2.6,1.3-5.2,2.4-7.8,3.6c-0.7,0.3-1.3,0.6-2,0.8c0.5-0.8,1.3-1.3,2-1.8c3.9-1.9,7.9-3.6,11.8-5.5C71,125.2,74,123.8,77.1,122.4
		L77.1,122.4z"/>
	<path class="st2" d="M171.1,121.4c0.4-0.1,0.7-0.3,1.1-0.4c0.1,0.2,0.2,0.5,0.3,0.6c-0.3,0.3-0.5,0.7-0.8,1c-0.2,0-0.4-0.1-0.6-0.1
		c0-0.2,0-0.5,0-0.7C171.1,121.7,171.1,121.5,171.1,121.4L171.1,121.4z"/>
	<path class="st2" d="M27.3,122.9c0-0.4,0.2-0.8,0.6-1C27.8,122.3,27.9,122.9,27.3,122.9L27.3,122.9z"/>
	<path class="st2" d="M105.6,123.2c5.6-0.5,11.3-0.7,16.9-1.2c0.3,0,0.6,0,0.9,0c-0.4,0.7-1,1.2-1.4,1.8c-0.6,0.7-1.6,0.6-2.4,0.7
		c-1.3,0.2-2.5,0.1-3.8,0.2c-3.9,0.5-7.8,0.6-11.7,1c-1.9,0.1-3.9,0.2-5.8,0.3c0.4-0.9,1.1-1.7,1.8-2.3
		C101.9,123.4,103.7,123.4,105.6,123.2L105.6,123.2z"/>
	<path class="st2" d="M28.8,123.1c0.3,0.1,0.5,0.4,0.7,0.6c-0.4,0.2-0.8,0.4-1.1,0.6C28.5,123.9,28.6,123.5,28.8,123.1L28.8,123.1z"
		/>
	<path class="st2" d="M27.1,124.1c0.1-0.4,0.3-0.6,0.8-0.7c0,0.2,0,0.6,0,0.8C27.6,124.1,27.3,124.1,27.1,124.1L27.1,124.1z"/>
	<path class="st2" d="M91.7,124.8c0.4-0.5,0.9-1,1.5-1.4c0.5-0.1,1,0.1,1.6,0.2c-0.4,0.5-0.7,1-1.2,1.4
		C93,125,92.4,124.9,91.7,124.8L91.7,124.8z"/>
	<path class="st2" d="M165.3,126.2c0-0.8,0.5-1.7,0.8-2.4c1,0.5,2,1.2,2.9,1.9c0.3,0.2,0.8,0.1,1.1,0.1c0,0.2,0.1,0.5,0.1,0.6
		c-0.9,0.3-1.6,0.9-2.3,1.6C167.1,127.3,166.1,126.9,165.3,126.2L165.3,126.2z"/>
	<path class="st2" d="M26.9,124.9c0.4-0.1,0.7-0.1,1.1-0.2c0,0.1-0.1,0.4-0.1,0.5C27.5,125.2,27.2,125.1,26.9,124.9L26.9,124.9z"/>
	<path class="st2" d="M115.8,125.2c1,0,1.9-0.2,2.9-0.2c0.1,0.2,0,0.5,0,0.8c-3.1,11-6.2,22.1-9.3,33.1c-0.8,0.3-1.6,0.2-2.5,0.1
		c0.1-1,0.4-2,0.7-2.9c2.5-10,5-20.1,7.5-30.1C115.1,125.6,115.4,125.2,115.8,125.2L115.8,125.2z"/>
	<path class="st2" d="M172.3,125c0.4,0.2,1.4-0.1,1.3,0.6c-0.1,0-0.4-0.1-0.6-0.1c-0.1,0-0.3-0.1-0.4-0.2c-0.1,0-0.2-0.1-0.2-0.2
		L172.3,125L172.3,125z"/>
	<path class="st2" d="M32.2,126.2c0.5-0.7,1.3-1,2.1-1.1c-0.3,0.7-1,1-1.5,1.5C32.6,126.4,32.4,126.3,32.2,126.2L32.2,126.2z"/>
	<path class="st2" d="M34.1,126.1c0.7-0.5,1.5-0.9,2.4-0.7c0,0.1,0,0.2,0.1,0.3c-0.6,0.6-1.3,1.1-1.9,1.7
		C34.5,126.9,34.3,126.5,34.1,126.1L34.1,126.1z"/>
	<path class="st2" d="M31.1,126c-0.1-0.3,0.3-0.6,0.6-0.4c0.2,0.2-0.1,0.6-0.4,0.6C31.2,126.1,31.2,126,31.1,126L31.1,126z"/>
	<path class="st2" d="M91.7,125.8c0.2-0.6,1-0.4,1.4-0.2c0.3,0.2,0,0.6,0,0.8c-0.9,2.7-1.7,5.4-2.7,8.1c-0.4,0.8-1.1,1.6-2,1.8
		c0.3-1.7,1-3.3,1.5-5C90.5,129.5,91.1,127.6,91.7,125.8L91.7,125.8z"/>
	<path class="st2" d="M172,125.8c0.6,0,1.6,0,1.8,0.8c-0.5-0.1-1.1-0.2-1.6-0.3C172.1,126.1,172,125.9,172,125.8L172,125.8z"/>
	<path class="st2" d="M36.3,126.6c0.3-0.3,0.7-0.5,1.1-0.6c0.3,0.9,0.6,1.7,1,2.6c-1.1,1.1-2.4,2-3.8,2.8c-0.3,0.1-0.6,0.3-0.9,0.2
		c-0.4-0.6-0.8-1.2-1.2-1.8C33.7,128.8,35.1,127.8,36.3,126.6L36.3,126.6z"/>
	<path class="st2" d="M164.9,126.8c0.1,0,0.4,0,0.6,0c0.1,0.2,0.1,0.3,0.2,0.5c-0.2,0-0.5,0-0.7,0
		C164.9,127.1,164.9,126.9,164.9,126.8L164.9,126.8z"/>
	<path class="st2" d="M32.6,127.4c0.5-0.2,0.9-0.4,1.4-0.4C33.7,127.5,33.1,127.7,32.6,127.4L32.6,127.4z"/>
	<path class="st2" d="M169.6,127.6c0.1-0.4,0.6-0.9,0.9-0.4C170.2,127.4,169.9,127.5,169.6,127.6L169.6,127.6z"/>
	<path class="st2" d="M184.1,127c0.2,0,0.4-0.1,0.6-0.1c0.1,0.6,0.4,1,0.8,1.4c-0.5-0.1-0.9-0.2-1.3-0.3c-0.2,0.3-0.3,0.6-0.5,0.9
		c-0.1-0.1-0.2-0.2-0.3-0.3c0.2-0.3,0.5-0.6,0.8-0.9C184.1,127.5,184.1,127.3,184.1,127L184.1,127z"/>
	<path class="st2" d="M186,126.9c0.1,0,0.3,0,0.5,0c0,0.1,0.1,0.4,0.2,0.5c0.7,0.1,1.5,0.3,1.6,1.1c-0.5-0.3-1.1-0.6-1.7-0.8
		C186.4,127.5,186.2,127.2,186,126.9L186,126.9z"/>
	<path class="st2" d="M172.1,127.2c0.3,0.1,0.5,0.2,0.8,0.2c-0.1,0.1-0.4,0.3-0.6,0.4c-0.1,0-0.4-0.1-0.5-0.1
		C171.9,127.5,172,127.3,172.1,127.2L172.1,127.2z"/>
	<path class="st2" d="M31.1,128.7c-0.4-0.2-0.1-0.8,0.3-0.6C31.6,128.3,31.5,128.7,31.1,128.7L31.1,128.7z"/>
	<path class="st2" d="M172.9,128.7c-0.2-0.3-0.1-0.5,0.2-0.7C173.4,128.3,173.2,128.8,172.9,128.7L172.9,128.7z"/>
	<path class="st2" d="M163.6,128.6c0.5,0.1,1.1,0.2,1.6,0.4c-0.1,0.2-0.1,0.4-0.2,0.6C164.5,129.4,163.8,129.2,163.6,128.6
		L163.6,128.6z"/>
	<path class="st2" d="M165.8,128.9c0.1,0,0.3,0.1,0.5,0.2c-0.1,0.4-0.2,0.9-0.3,1.3c-0.4,0-0.7,0-1.1,0
		C165.3,130,165.8,129.6,165.8,128.9L165.8,128.9z"/>
	<path class="st2" d="M52.4,129.5c0.4,0.5,1.1,1.1,0.8,1.8c-0.3,1-0.4,2-0.8,2.9c-0.4-0.3-1-0.8-0.9-1.4
		C51.9,131.8,52.1,130.6,52.4,129.5L52.4,129.5z"/>
	<path class="st2" d="M163.9,129.6c0.4,0.5,0.7,1,1.3,1.4c-0.3,0.1-0.6,0.3-0.8,0.5c-0.7,0.8-1.7,1.4-1.9,2.5
		c-0.3-0.1-0.4-0.4-0.2-0.6C162.8,132.2,163.4,130.9,163.9,129.6L163.9,129.6z"/>
	<path class="st2" d="M30.6,130.2c1-0.1,2.1,0.7,2.4,1.6c-0.3-0.2-0.6-0.4-0.9-0.6l-0.2-0.1c-0.3-0.3-0.8-0.4-1.2-0.4l-0.2,0
		C30.6,130.6,30.6,130.3,30.6,130.2L30.6,130.2z"/>
	<path class="st2" d="M36.4,132.7c0.7-0.9,1.6-1.7,2.5-2.3c0.2,0.4,0.4,0.7,0.6,1.1c-0.6,0.6-1.4,1.1-2,1.7
		c-0.4,0.4-0.8,0.8-1.4,0.9C36.1,133.6,36.1,133.1,36.4,132.7L36.4,132.7z"/>
	<path class="st2" d="M169.1,131c0-0.1,0-0.3,0.1-0.4C169.9,130.4,169.6,131.6,169.1,131L169.1,131z"/>
	<path class="st2" d="M165.5,130.9c0.3,0,0.6,0.1,0.9,0.1C166.1,131.3,165.6,131.4,165.5,130.9L165.5,130.9z"/>
	<path class="st2" d="M180.4,131.6c0-0.1,0.1-0.4,0.1-0.5C181.1,131,180.9,131.9,180.4,131.6L180.4,131.6z"/>
	<path class="st2" d="M38.5,133.1c0.4-0.4,0.8-0.7,1.3-1c0.3,0.6,0.7,1.3,0.9,2C40,133.7,39.4,133.2,38.5,133.1L38.5,133.1z"/>
	<path class="st2" d="M185.3,132.2l0.1-0.1c0.1,0,0.3,0,0.4,0.1c-0.1,0.3-0.5,0.7-0.4,1c0.1,0,0.2,0.1,0.3,0.2
		c0.7,0.7,1,1.7,1.3,2.6c-0.1,0-0.3,0-0.4,0c-0.7-0.2-1.3-0.5-1.9-0.9c0.1-0.3,0.2-0.5,0.2-0.8c0.6,0.3,0.9,1.2,1.7,1.2
		c-0.3-0.8-1.2-1.2-1.3-2.1c-0.6,0-0.7,0.9-1,1.3c-0.7-0.4-1.4-1-1.8-1.7c0.7,0,1.5,0.1,2.2-0.1
		C184.9,132.7,185.1,132.5,185.3,132.2L185.3,132.2z"/>
	<path class="st2" d="M30.7,132.5c0.1,0.1,0.3,0.3,0.4,0.4c0,0.1-0.1,0.4-0.1,0.5C30.5,133.3,30.5,132.8,30.7,132.5L30.7,132.5z"/>
	<path class="st2" d="M178.2,134c-0.1-0.7,0.5-1.1,1-1.5c0.4,0.1,0.8,0.3,1.3,0.4c0,0.2,0.1,0.4,0.1,0.6c0,0.1,0,0.3,0,0.4
		c-0.1,0-0.3-0.1-0.4-0.2c-0.6-0.3-1.1,0.2-1.7,0.3L178.2,134L178.2,134z"/>
	<path class="st2" d="M33.2,133.7c0.2-0.3,0.5-0.8,1-0.5c0,0.1,0.1,0.3,0.2,0.4C34,133.6,33.6,133.6,33.2,133.7L33.2,133.7z"/>
	<path class="st2" d="M159.8,133c0.8,0.3,1.3,1.1,2.1,1.4c0.7,0.4,1.5-0.5,2.1,0.1c0.5,0.3,0.4,1,0,1.3c-0.5-0.3-1-0.6-1.5-0.8
		c0,0.3-0.1,0.5-0.1,0.8c-0.3-0.2-0.7-0.4-1-0.5c0.2-0.1,0.4-0.3,0.7-0.4c-0.5-0.4-1.1-0.6-1.7-0.8C160,133.9,159.9,133.4,159.8,133
		L159.8,133z"/>
	<path class="st2" d="M27.6,133.7c0.1-0.3,0.3-0.4,0.6-0.3C28.2,133.7,27.9,134,27.6,133.7L27.6,133.7z"/>
	<path class="st2" d="M181.5,133.4c1,0.2,1.6,1.2,2.1,2c-0.4,0.2-0.7,0.4-1,0.6c0-0.8-0.2-1.7-0.9-2.2
		C181.6,133.8,181.5,133.5,181.5,133.4L181.5,133.4z"/>
	<path class="st2" d="M37.9,134.3c0.4-0.4,1-0.7,1.6-0.5c-0.1,0.6-0.9,0.6-1.3,0.9C38.1,134.6,38,134.5,37.9,134.3L37.9,134.3z"/>
	<path class="st2" d="M32.8,136c-0.9-0.4-0.9-1.6,0-2.1C32.6,134.6,32.7,135.3,32.8,136L32.8,136z"/>
	<path class="st2" d="M52.9,135.3c0.7-0.6,1.6-0.8,2.4-1.2c5.8,8.5,13.9,15.4,23.3,19.7c0.3,0.1,0.5,0.4,0.6,0.7
		c-0.8-0.2-1.6-0.8-2.5-0.8c0.1,0.5,0.6,0.8,0.7,1.3c-1.3-0.5-2.2-1.7-3.6-2c0,0.1-0.1,0.4-0.1,0.5c1.4,1.1,3.1,1.8,4.7,2.6
		c0.3,0.1,0.4,0.3,0.5,0.6c-1.1-0.3-2.1-1-3.2-1.4c-4-2-7.7-4.4-11.2-7.1c-1.6-1.3-3.2-2.6-4.6-4.1
		C57.4,141.4,54.9,138.5,52.9,135.3L52.9,135.3z M70.5,151L70.5,151c0,0.1,0,0.4,0,0.5c0.1,0,0.4,0.1,0.5,0.1c0-0.1-0.1-0.4-0.1-0.6
		C70.9,151,70.7,151,70.5,151L70.5,151z M71.9,151.8L71.9,151.8c0.1,0.6,0.7,1.1,1.4,1.1c0-0.1,0-0.4,0-0.5
		C72.8,152.2,72.4,151.9,71.9,151.8L71.9,151.8z M73.8,152L73.8,152c0,0.1,0,0.3,0,0.4c0.2,0.1,0.4,0.2,0.7,0.2
		c0-0.2-0.1-0.4-0.1-0.6C74.2,152,74,152,73.8,152L73.8,152z M75.9,153.2L75.9,153.2c0,0.1,0.1,0.3,0.1,0.4c0.1,0,0.3,0.1,0.4,0.1
		c0-0.1,0-0.4,0-0.5C76.2,153.2,76,153.2,75.9,153.2L75.9,153.2z"/>
	<path class="st2" d="M36.4,135.4c-0.3-0.6,0.4-0.7,0.9-0.8C37.1,134.9,36.8,135.2,36.4,135.4L36.4,135.4z"/>
	<path class="st2" d="M39.2,134.9c0.6-0.1,1.2-0.2,1.8-0.3C40.7,135.3,39.4,135.9,39.2,134.9L39.2,134.9z"/>
	<path class="st2" d="M16.4,136.7c0.2-1,1.3-1.4,2.2-1.4c0,0.1,0,0.4,0.1,0.6C18,136.2,17.2,136.4,16.4,136.7L16.4,136.7z"/>
	<path class="st2" d="M20.1,135.7c0.1-0.2,0.3-0.4,0.4-0.6c0.1,0.2,0.2,0.5,0.2,0.7C20.5,135.8,20.3,135.7,20.1,135.7L20.1,135.7z"
		/>
	<path class="st2" d="M39.5,137c0.4-0.8,1.3-1.1,1.9-1.6c0.7,1.1,1.3,2.2,1.9,3.3c-0.5,0.5-1.2,0.9-2,0.6c-0.3-0.4-0.4-1-0.8-1.4
		C40.3,137.5,39.9,137.3,39.5,137L39.5,137z M40.7,136.7L40.7,136.7c0,0.1,0,0.2,0,0.3c0.4,0.6,0.8,1.1,1.1,1.7
		c0.4,0.4,0.6-0.3,0.4-0.6c-0.4-0.6-0.6-1.2-1.1-1.7C41,136.6,40.8,136.7,40.7,136.7L40.7,136.7z"/>
	<path class="st2" d="M88.4,137.3c0.8-0.7,1.5-1.4,2.4-1.9c0.4,0,0.9,0.1,1.3,0.2c-0.5,1-1.5,1.6-2.3,2.2
		C89.3,137.7,88.8,137.5,88.4,137.3L88.4,137.3z"/>
	<path class="st2" d="M183.8,135.7c0.3,0.1,0.6,0.3,0.9,0.5c0.2,0.1,0.3,0.2,0.5,0.2c0.1,0.1,0.3,0.2,0.4,0.3
		c0.2,0.2,0.5,0.3,0.8,0.4c0.1,0,0.3,0.1,0.4,0.2c-0.1,0.1-0.4,0.2-0.6,0.3c-0.1,0-0.3-0.1-0.3-0.2c-0.6-0.3-1.2-0.5-1.9-0.6
		c-0.5,0-1,0-1.5,0.1l0.1-0.1C183.2,136.3,183.5,136,183.8,135.7L183.8,135.7z"/>
	<path class="st2" d="M21.7,137.4c-0.3-0.1-0.4-0.5-0.3-0.8C21.8,136.5,22.1,137.2,21.7,137.4L21.7,137.4z"/>
	<path class="st2" d="M89.7,138.5c0.7-0.6,1.4-1.1,2.1-1.7c0.4,1.1,0.8,2.2,1.2,3.3c-0.3,0.1-0.5,0.1-0.8,0.2c0,0.5,0.1,0.9,0.3,1.3
		c0.3-0.1,0.6-0.3,0.9-0.4c0.3,1.3,0.5,2.6,0.8,3.9c-0.6,0-0.6-0.7-0.8-1.2c-0.1,0-0.4,0-0.5,0c0.2,1,0.5,2,0.6,3
		c0.1,0.3-0.1,0.5-0.3,0.6c-1.1-2.8-2.2-5.6-3.3-8.4C89.7,138.9,89.5,138.6,89.7,138.5L89.7,138.5z M91.2,139.4L91.2,139.4
		c0,0.3,0.1,0.6,0.1,0.9c0.2-0.1,0.5,0,0.6-0.2c0-0.2,0-0.4,0-0.6C91.7,139.4,91.5,139.4,91.2,139.4L91.2,139.4z M91.7,141.7
		L91.7,141.7c0,0.3,0,0.6,0,0.9c0.2-0.1,0.4-0.3,0.7-0.4c0,0.1,0,0.4,0,0.5c-0.2,0-0.4,0-0.7-0.1c0.1,0.2,0.2,0.5,0.4,0.7
		c0.1,0,0.4,0,0.5,0c0.3-0.6,0-1.2-0.3-1.8C92.1,141.6,91.8,141.6,91.7,141.7L91.7,141.7z"/>
	<path class="st2" d="M27.6,137.4c0.4,0.1,0.7,0.4,0.8,0.8c-0.1,0-0.4,0-0.6-0.1C27.8,137.9,27.7,137.7,27.6,137.4L27.6,137.4z"/>
	<path class="st2" d="M37.8,138c0.3-0.6,1-0.5,1.6-0.5c0.1,0.1,0.2,0.3,0.3,0.4C39,137.9,38.4,138.3,37.8,138L37.8,138z"/>
	<path class="st2" d="M22.9,138c0.1-0.1,0.2-0.3,0.2-0.4c0.3,0,0.5,0.5,0.3,0.7c-0.1-0.1-0.4-0.2-0.5-0.2L22.9,138L22.9,138z"/>
	<path class="st2" d="M26.7,138.3c0.3,0.1,0.5,0.2,0.8,0.4c-0.1,0.2-0.3,0.4-0.4,0.6c-0.1-0.1-0.3-0.3-0.4-0.4
		C26.7,138.7,26.7,138.4,26.7,138.3L26.7,138.3z"/>
	<path class="st2" d="M23.7,138.6c0.3-0.1,0.5,0,0.6,0.4C24,139.2,23.7,138.9,23.7,138.6L23.7,138.6z"/>
	<path class="st2" d="M36.9,138.6c0.3-0.1,0.4,0,0.3,0.3C36.9,139.1,36.8,139,36.9,138.6L36.9,138.6z"/>
	<path class="st2" d="M177.2,139.3c0.4,0.3,0.7,0.6,0.9,1.1C177.7,140.2,177.3,139.8,177.2,139.3L177.2,139.3z"/>
	<path class="st2" d="M40,139.5c0.8,0.2,1.6,0.4,2.4,0.6C41.6,140.8,40.3,140.4,40,139.5L40,139.5z"/>
	<path class="st2" d="M178.2,139.5c0.6,0.3,1,0.8,1.6,1.1c0.4,0.2,0.8,0.3,1.2,0.6c-0.5,0.2-1.2,0.3-1.6-0.1
		C179,140.5,178.3,140.2,178.2,139.5L178.2,139.5z"/>
	<path class="st2" d="M24,140.5c0.3-0.2,0.5,0.4,0.2,0.5l-0.2-0.1C24,140.8,24,140.6,24,140.5L24,140.5z"/>
	<path class="st2" d="M45.1,142.7c0.7-0.8,1.5-1.8,2.6-1.9c0.3,0,0.6-0.1,1-0.1c-0.1,0.9-0.9,1.5-1.6,1.9
		C46.5,142.7,45.8,142.7,45.1,142.7L45.1,142.7z"/>
	<path class="st2" d="M19.5,141.3c1-0.1,1.9-0.4,2.9-0.4c0,0.1-0.1,0.3-0.1,0.4c-0.6,0.4-1.4,0.5-2,1.1c-0.6,0.6-1.4,1.1-1.9,1.7
		c-0.4,0.4-0.7,0.9-1.3,1.2c0.2-1.2,0.7-2.3,1-3.5c0.1-0.3,0.2-0.6,0.4-0.8c0.5,0.5,0.8,1.1,1.4,1.4C19.8,142,19.6,141.6,19.5,141.3
		L19.5,141.3z"/>
	<path class="st2" d="M25.5,141.5c0.1-0.2,0.1-0.4,0.2-0.7c0.1,0.1,0.4,0.4,0.5,0.6C26.1,141.4,25.7,141.5,25.5,141.5L25.5,141.5z"
		/>
	<path class="st2" d="M39.8,141c0.8-0.2,1.6-0.1,2.3,0.1C41.4,141.4,40.4,141.7,39.8,141L39.8,141z"/>
	<path class="st2" d="M23.2,142c0.1,0,0.2-0.1,0.3-0.2c0.1,0,0.2-0.1,0.3-0.1c0,0.2-0.1,0.4-0.2,0.7c-0.3,0.6-0.6,1.2-0.8,1.8
		l-0.1,0.2c-0.4,0-0.8-0.1-1.1-0.5c0.4-0.4,0.8-0.8,1-1.4c-0.5,0.2-0.8,0.6-1.3,0.9c-0.3-0.1-0.5-0.2-0.6-0.5l0.2,0
		c0.2,0,0.4-0.1,0.5-0.3c0.1-0.2,0.3-0.3,0.5-0.3C22.4,142.2,22.8,142.2,23.2,142L23.2,142z"/>
	<path class="st2" d="M19.2,144.1c0.4-0.4,0.8-0.9,1.4-0.9c0,0.2,0.1,0.5,0.1,0.6c-0.6,0.4-1.2,0.7-1.7,1.1
		C18.9,144.6,19,144.3,19.2,144.1L19.2,144.1z"/>
	<path class="st2" d="M19.7,145.3c0.6-0.3,1.2-0.6,1.8-1c0.3,0.2,0.4,0.4,0.5,0.7c-0.7,0.1-1.3,0.2-2,0.3
		C20,145.4,19.8,145.3,19.7,145.3L19.7,145.3z"/>
	<path class="st2" d="M27.1,144.6c0.2,0,0.3-0.1,0.5-0.1c0,0.1,0.1,0.3,0.1,0.4c-0.6,0.2-1.2,0.4-1.8,0.6
		C26,144.9,26.6,144.7,27.1,144.6L27.1,144.6z"/>
	<path class="st2" d="M27.1,148.3c0.2-0.6,0.4-1.2,0.7-1.7c0.2,0.2,0.8,0.4,0.6,0.8C28.2,147.9,27.7,148.2,27.1,148.3L27.1,148.3z"
		/>
	<path class="st2" d="M79.7,155.2c0.2-0.2,0.7,0.1,0.5,0.4C80,155.8,79.5,155.5,79.7,155.2L79.7,155.2z"/>
	<path class="st2" d="M87.6,159.6c0.9-0.6,2.1-1,2.8-1.9c0.6,0.3,1.2,0.7,1.8,0.7c0.4,0.1,0.8,0,1.1,0.2c0.3,0.4,0.5,0.9,0.8,1.3
		c-0.6,0.2-1.2,0.7-1.9,0.5C90.7,160.2,89.2,159.9,87.6,159.6L87.6,159.6z M90.4,158.8L90.4,158.8c0,0.1,0,0.3,0,0.4
		c0.7,0.4,1.6,0.7,2.5,0.6c0-0.1,0-0.4,0-0.6C92.1,159,91.3,158.7,90.4,158.8L90.4,158.8z"/>
	<path class="st2" d="M95.7,158.8c0.2-0.4,0.5-0.4,0.9-0.4c0,0.2,0,0.5-0.1,0.7C96.2,159.1,95.8,159.2,95.7,158.8L95.7,158.8z"/>
	<path class="st2" d="M97.4,165.8c-0.1-0.7-0.4-1.6,0.2-2.2c0,0.2,0,0.6,0,0.8C97.6,164.9,97.5,165.4,97.4,165.8L97.4,165.8z"/>
	<path class="st2" d="M105.5,171.7c0.1-0.3,0.3-0.4,0.6-0.4c-0.4,0.9-0.5,2-1.4,2.5C105,173.1,105.2,172.4,105.5,171.7L105.5,171.7z
		"/>
	<path class="st2" d="M103.1,171.6c0.3,0,0.5,0.3,0.6,0.6c0,0.1,0,0.3,0,0.4c-0.1-0.1-0.4-0.2-0.6-0.2l0-0.2
		C103.1,172,103.1,171.7,103.1,171.6L103.1,171.6z"/>
	<path class="st2" d="M103.7,175.3c0.1,0,0.4,0,0.5,0c-0.1,0.5-0.4,1-0.8,1.4C103.4,176.2,103.5,175.8,103.7,175.3L103.7,175.3z"/>
</g>
</svg>
