<?xml version="1.0" encoding="utf-8"?>
<!-- Generator: Adobe Illustrator 28.2.0, SVG Export Plug-In . SVG Version: 6.00 Build 0)  -->
<svg version="1.1" id="Layer_1" xmlns="http://www.w3.org/2000/svg" xmlns:xlink="http://www.w3.org/1999/xlink" x="0px" y="0px"
	 viewBox="0 0 150 120" style="enable-background:new 0 0 150 120;" xml:space="preserve">
<g>
	<path d="M65.8,19.9c0.3,0,0.5,0.1,0.8,0.1c0.1,0.5,0,0.9,0.2,1.4c0.3,0.1,0.2-0.2,0.3-0.4c0.2-0.1,0.4,0.1,0.5,0.2
		c0.1-0.1,0.3-0.3,0.4-0.1c0.1,0.2,0,0.5,0,0.7c-0.2,1.1-0.3,2.2-0.1,3.3c0,0.2,0.1,0.3,0.2,0.4c1-1.3,1.7-2.9,2.9-4.1
		c0.3-0.3,0.6-0.6,1.1-0.6c0.1,1.2-0.3,2.3-0.9,3.2c-0.9,1.4-2,2.6-2.4,4.2c-0.2,0.1-0.4,0.1-0.5,0.2c-0.2,0.3-0.4,0.6-0.4,0.9
		c0.1,0,0.2,0.1,0.3,0.1c-0.1,0.5,0,1-0.2,1.4c0.1,0.8,0.2,1.5,0.2,2.3c0.1,0.4,0.1,0.8,0.2,1.3c0,0.2,0.3,0.2,0.4,0.4
		c0,0.2,0,0.3,0,0.5c-0.1,0.1-0.2,0.1-0.3,0.2c0,0.2-0.2,0.3-0.3,0.5c0.2,1.7,0.3,3.4,0.5,5.2c0.2,0,0.5-0.1,0.7-0.1
		c0,1-0.8,1.9-0.7,2.9c0,0.4,0,0.9,0.4,1c0.8,0.4,1.7,0.2,2.6,0.3c0.1,0,0.3,0.1,0.3-0.1c0.1-0.6,0-1.1,0.1-1.7c0-1-0.1-2-0.4-3
		c-0.1-0.4-0.2-0.8-0.3-1.1c0.3,0.1,0.5,0,0.7-0.2c0.3,0.3,0.3,0.8,0.5,1.1c0.2-0.6,0.2-1.2,0.4-1.8c0.2-0.2,0.4-0.1,0.6-0.1
		c0.1,0.7,0,1.5,0.1,2.2c0,1.5,0,3,0,4.5c0.1,1.2,0,2.3,0.1,3.5c0.1,2.3,0.3,4.6,1,6.7c0,0.3,0.5,0.2,0.5,0.5
		c0.1,2.9,1.2,5.7,1.5,8.6c0.1,0,0.3,0.1,0.4,0.1c0,0.3,0.1,0.6,0.1,0.9c-0.2,0.1-0.6,0.2-0.4,0.6c0.4,0.1,0.5-0.3,0.6-0.6
		c0.2-0.4,0.5-0.8,0.7-1.2c0.3-0.2,0.6-0.1,0.9,0.1c0.1-0.2,0.2-0.4,0.3-0.6c-0.3-0.1-0.7-0.2-0.8-0.5c0.3,0,0.6,0.1,0.8,0.1
		c0-0.2,0-0.3,0-0.5c0.1,0,0.3-0.1,0.4-0.1c-0.1-0.1-0.1-0.2-0.2-0.3c0.2-0.2,0.5-0.1,0.6-0.4c1-2.1,2.1-4.1,2.9-6.4
		c0.2-0.7,0.4-1.4,0.4-2.1c0.1,0,0.2-0.1,0.4-0.1c0.1-0.4,0.2-0.8,0.3-1.2c0.1-0.1,0.3-0.1,0.4-0.2c0.1-0.2,0.1-0.5,0.2-0.8
		c0.1,0,0.2-0.1,0.4-0.1c0.3-1.2,0.9-2.2,1.2-3.4c0.1-0.3,0-0.7,0-1c0.1-0.1,0.3-0.1,0.4-0.2c0-0.1-0.1-0.3,0-0.4
		c2-3.4,2.8-7.4,4.4-11c-0.1-0.1-0.2-0.1-0.3-0.2c-0.1-0.2,0-0.3,0-0.5c0.3,0,0.6,0,0.9,0.1c0.2,0,0.2,0.5,0.4,0.5
		c0.4-0.7,0.5-1.6,0.8-2.4c0.1-0.2,0.3-0.1,0.5-0.1c0,0.4-0.1,0.8-0.2,1.1c-0.2,0.6-0.3,1.3-0.5,1.9c-0.2,0-0.4,0-0.6,0.1
		c0,0.2,0.2,0.3,0.4,0.3c-0.6,2.3-1,4.7-1.7,6.9c-0.5,1.8-1,3.6-2,5.3c-0.2,0.2-0.3,0.6-0.6,0.6c0.1-0.4,0.3-0.8,0.3-1.3
		c-0.1,0.1-0.2,0.3-0.2,0.4c-0.1,0.1-0.4,0.2-0.4,0.4c0,0.3,0,0.5-0.2,0.7c-0.2,0.3,0.4,0.5,0.2,0.8c-0.1,0-0.2,0.1-0.3,0.1
		c0.1,0.3-0.2,0.5-0.4,0.7c-0.4,0.5-0.7,1.1-1.1,1.6c-1,2-1.8,4-2.6,6.1c-0.5,1.4-1,2.8-1.4,4.3c0.2,0.1,0.5,0.2,0.7,0.3
		c0.1,0.1,0.1,0.3,0.1,0.5c-0.4,0-0.7,0-1.1,0.1c-0.1,0.6-0.3,1.2-0.4,1.8c0,0.3-0.4,0.4-0.6,0.5c-0.9,0.7-1.1,1.8-1.2,2.9
		c0,2.3,0.7,4.6,1.2,6.8c-0.1,0-0.3,0-0.4,0c-0.2-1-0.4-2.1-0.6-3.1c-0.2-1.2-0.5-2.5-0.7-3.7c0-0.2-0.2,0-0.2,0.1
		c-0.9,1.6-2,3.1-3,4.6C75,75.2,73.8,77,72.6,79c-1.1,1.9-2.2,3.9-2.5,6.1c-0.1,0-0.3,0.1-0.4,0.1c-1.4,3.5-3.3,6.8-4.4,10.5
		c0,0,0,0.1,0.1,0.1c0.6,0.5,1.3,0.8,1.8,1.5c0.1,0.1,0.1,0.2,0.1,0.4c-1-0.1-1.7-1-2.7-1.2c-0.3,1-0.6,2-1.3,2.8
		c-0.2-0.5-0.1-1.1,0-1.6c-0.1-0.1-0.2-0.2-0.2-0.4c0.3-0.1,0.7-0.3,0.8-0.7c0.1-0.2,0.1-0.5,0-0.7c-0.3-0.1-0.5-0.2-0.8-0.2
		c-0.5,0.8-0.9,1.6-1.3,2.4c0,0.2-0.2,0.2-0.3,0.2c0-1.3,0.6-2.5,1.2-3.6c0.1-0.1,0.3-0.1,0.4-0.1c0.2-0.7,0.4-1.5,0.7-2.2
		c0.2,0,0.4,0,0.4-0.3c0.8-2.2,2.4-4,2.9-6.4c0-0.2,0.3-0.1,0.4-0.2c0.2-1.3,0.6-2.5,1.1-3.7c0.3-0.6,0.4-1.3,0.4-2
		c-0.1-1-0.4-2-0.7-2.9c-0.1-0.1-0.5-0.1-0.4-0.3c0-0.4,0.5-0.4,0.7-0.4c0.2,1.3,0.9,2.5,1.5,3.6c1-2.1,2.3-4.2,2.9-6.5
		c0.3-0.1,0.4-0.5,0.7-0.5c0.3-1.4,0.4-2.9,0.5-4.3c0.1-6.1-1.4-12-1.9-18c-0.1,0-0.2,0-0.4-0.1c0-0.2,0-0.4,0-0.6
		c0.1,0,0.3,0,0.3,0c0-0.9-0.1-1.8-0.2-2.8c0-0.5,0-0.9-0.1-1.4c-1,0.4-2.1,0.3-3.2,0.4c0,0.1-0.1,0.3-0.1,0.4c-0.2,0-0.3,0-0.5,0.1
		c0,0.1,0,0.2,0,0.3c0.1,0,0.3,0,0.4,0c0.2,3.7,0.5,7.4,0.7,11.1c0.3,5.4,0.6,10.8,1.1,16.1c-0.2,0-0.4,0.1-0.5-0.2
		c-0.6-4.1-0.8-8.3-1.3-12.4c0,0.1-0.1,0.2-0.1,0.4c0.1,0.8,0,1.5,0.1,2.3c0,0.7,0,1.3,0.1,2c0,2.9,0.1,5.8,0.2,8.6
		c-0.1,0.2-0.3,0-0.4-0.1c0,0.3-0.1,0.6-0.3,0.8c0,0.1-0.1,0.1-0.2,0.1c-0.2-0.3-0.2-0.7-0.2-1.1c-0.1-0.6,0-1.2-0.3-1.8
		c-0.1,2.8-0.3,5.7-0.4,8.5c-0.1,0.2-0.3,0.1-0.5,0.1c0.2-2.6,0.4-5.1,0.6-7.7c0-0.7,0.1-1.3,0.1-2c0-1.4,0.1-2.8,0-4.1
		c0-0.5-0.1-0.9-0.3-1.4c-0.1,0-0.2,0-0.3,0c0-1.6-0.1-3.3-0.1-4.9c-0.2,0-0.4,0-0.7,0c0-0.3,0-0.7-0.1-1c0.2-0.3,0.5-0.6,0.6-1
		c0.2-0.8-0.1-1.7-0.1-2.6c0-0.2,0.2-0.3,0.4-0.4c0-1.5-0.1-2.9-0.2-4.4c-0.1-1.7-0.1-3.4-0.2-5.1c-0.8-0.1-1.6-0.1-2.4-0.1
		c-0.2,0-0.2,0.2-0.3,0.3c-0.5,0-0.5,0.6-0.6,1c-0.1,0-0.3,0-0.4,0c0-0.4,0.2-0.8,0-1.2c0-0.2-0.4-0.2-0.4,0c0,0.2,0,0.3-0.1,0.5
		c-0.1,0-0.2,0-0.4,0c-0.1-0.1-0.1-0.3-0.2-0.4c-1.7,0-3.4-0.4-5.1-0.2c-0.9,0.1-1.8,0.3-2.5,1c-0.4,0.4-0.7,1-0.8,1.6
		c-0.3,0.1-0.6,0.2-0.7,0.6c0.4,0,0.8-0.2,1.3-0.2c0,0.1,0,0.3,0,0.4c-0.5,0-1,0.1-1.4,0.5c-0.3,0.3-0.7,0.5-1,0.7
		c-0.1,0.4,0.1,0.8,0,1.2c-0.2-0.1-0.6-0.4-0.8-0.1c-0.7,0.9-1.5,1.7-2.2,2.7c-0.4,0.6-0.9,1.3-1,2c0.8,0.3,1.6,0.5,2.4,0.8
		c0,0.2-0.1,0.4-0.2,0.5c-0.4,0-0.7,0-1.1,0c-0.1,0.1-0.2,0.2-0.3,0.3c-0.5-0.3-0.9-0.6-1.3-0.8c-0.1-0.1-0.2-0.2-0.3,0
		c-1.5,1.6-2.8,3.3-3.7,5.2c0,0.1-0.2,0.2-0.3,0.3c-0.5,0.3-0.8,0.7-1.1,1.1c-0.6,0.8-1.2,1.7-1.6,2.6c0.1,0.1,0.2,0.1,0.3,0.2
		c-0.1,0.2-0.1,0.4-0.3,0.4c-0.3,0.1-0.7,0-0.8,0.3c-0.2,0.3-0.1,0.6-0.1,0.9c-0.2,0-0.4,0-0.5-0.2c-0.1-0.6,0.4-1.2,0.5-1.8
		c-0.1,0-0.3,0-0.4,0c0-0.2,0-0.3,0-0.5c0.1,0,0.2-0.1,0.4-0.1c0.1-0.2,0.2-0.4,0.2-0.6c0.1-0.2,0.5-0.2,0.5-0.4
		c0.1-0.2-0.1-0.6-0.4-0.5c-0.4,0.1-0.6,0.4-0.9,0.6c-0.2,0,0-0.3,0-0.4c0.8-1.2,1.6-2.3,2.3-3.6c0.1,0,0.2,0,0.4,0
		c0.1-0.2,0.1-0.4,0.2-0.6c0.1-0.1,0.3-0.1,0.4-0.1c0.1-0.3,0.2-0.6,0.4-0.8c0.9-0.5,1.5-1.2,2.1-1.9c2.5-2.9,4.7-6,6.9-9.1
		c0.2-0.3,0.3-0.8,0.8-0.8c0.1-0.3,0.1-0.6,0.1-0.8c-0.1,0-0.3,0-0.3,0c0,0.1-0.1,0.2-0.1,0.3c-0.1,0-0.2,0-0.3,0
		c-0.1-0.1,0-0.4-0.2-0.4c-0.5-0.2-1-0.3-1.5-0.4c-0.1,0-0.3-0.1-0.2-0.3c0.4-0.1,0.9-0.1,1.3-0.1c0-0.2,0-0.4,0-0.6
		c0.5,0,0.9,0,1.4,0c0-0.2-0.1-0.5,0-0.7c0.2-0.1,0.4-0.2,0.6-0.3c0.1,0.2,0.1,0.5,0.1,0.8c0.4-0.2,0.6-0.5,1-0.7
		c0.1,0.1,0.2,0.2,0.2,0.3c1.4-1.5,2.8-3,4-4.6c0.7-0.9,1.3-1.9,1.5-3c0.2-0.2,0.6-0.3,0.7-0.6c1.2-1.5,1.7-3.5,3-5
		c0.3-0.3,0.6-0.5,0.9-0.7c0.1-0.2,0.2-0.4,0.3-0.6c0.2-0.4,0.5-0.6,0.8-0.9c0-0.8-0.2-1.6-0.2-2.3c0.1,0,0.3,0,0.4,0
		c0,0.5,0.1,1,0.1,1.5c0,0.1,0.1,0.2,0.2,0.3c-0.1-0.3,0.1-0.5,0.2-0.6c0-0.5,0-1,0-1.5c0.2,0,0.4,0,0.6,0
		C66.5,24.2,65.9,22.1,65.8,19.9L65.8,19.9z M70.5,23.6L70.5,23.6c0.4-0.2,0.7-0.6,0.7-1.1C70.9,22.8,70.7,23.2,70.5,23.6L70.5,23.6
		z M68,26.5L68,26.5c0,0.2,0,0.5,0,0.7c-0.1,0-0.3,0-0.3,0c0,0.1-0.1,0.4,0.1,0.4c0.3-0.1,0.6-0.4,0.9-0.6c0.1-0.1,0.1-0.2,0.1-0.3
		c-0.1,0-0.2-0.1-0.3-0.1c0-0.1-0.1-0.2-0.1-0.3C68.2,26.4,68.1,26.5,68,26.5L68,26.5z M65.7,31.6L65.7,31.6c-0.1,0-0.3,0-0.4,0.2
		c-0.5,0.7-1,1.2-1.6,1.8c0,0.1,0.1,0.2,0.1,0.3c-0.3,0.1-0.6,0.3-0.8,0.4c0,0.2,0,0.3,0,0.5c-0.1,0-0.2,0.1-0.4,0.1
		c-0.4,1.3-1.7,2-2.1,3.3c-0.1,0-0.2,0-0.3,0.1c-0.2,0.5-0.5,0.9-0.8,1.3c0,0.1,0.1,0.2,0.1,0.3c-0.5,0.3-0.8,1-1.1,1.5
		c-0.2,0.3-0.6,0.3-0.7,0.6c-0.3,0.9-1,1.6-1.6,2.3c-0.1,0.2,0.1,0.3,0.3,0.3c0.7-0.1,1.4-0.1,2.2-0.2c0,0,0-0.1,0-0.1
		c-0.4,0-0.9,0-1.3,0c0.1-0.1,0.2-0.2,0.3-0.2c2.8-0.7,5.8-0.7,8.7-0.8c0-0.3,0-0.6,0-0.9c0-1.2,0.1-2.4-0.3-3.5
		c0.1-0.1,0.4,0,0.4-0.2c0-0.7,0.2-1.4,0.1-2.1c-0.1-0.5,0-1.1-0.2-1.6c-0.1-0.2-0.2-0.4-0.1-0.6c0.1-0.8,0.2-1.5,0.2-2.3
		c0-0.3,0-0.7,0-1C65.8,31.1,65.7,31.4,65.7,31.6L65.7,31.6z M73.3,40.7L73.3,40.7c0,0.2,0,0.4-0.1,0.6c-0.1,0.3-0.1,0.7,0,1.1
		c0,0.2,0,0.5,0.1,0.7C73.4,42.3,73.3,41.5,73.3,40.7L73.3,40.7L73.3,40.7z M64.6,43.9L64.6,43.9c-1.2,0-2.5,0.1-3.7,0.2
		c-0.3,0-0.6,0-0.9,0.2c0.8,0.2,1.7,0.1,2.5,0.2c0.9-0.1,1.8-0.1,2.7-0.3c0.2,0.1,0.2,0.5,0.5,0.5c0.2,0,0.4,0.1,0.5-0.1
		c0-0.2,0-0.4,0-0.7C65.6,43.8,65.1,43.9,64.6,43.9L64.6,43.9z M46.8,54.4L46.8,54.4c-0.4,0.2-0.4,0.7-0.5,1c-0.1,0-0.3,0-0.3,0
		c0,0.1,0,0.2,0,0.4c0.4-0.3,0.6-0.8,1-1.2c0.2-0.3,0.5-0.5,0.6-0.9C47.1,53.8,47.1,54.3,46.8,54.4L46.8,54.4z M67.6,57.9L67.6,57.9
		c-0.1,0.5-0.1,1-0.1,1.5c-0.1,0.9-0.1,1.8,0,2.7c0.1,2.1,0.3,4.1,0.6,6.1c0,0,0.1,0,0.1,0c0-1.8-0.2-3.6-0.2-5.3
		c-0.1-1.3-0.1-2.7-0.2-4C67.7,58.5,67.7,58.2,67.6,57.9L67.6,57.9z M44,58.3L44,58.3c-0.3,0.2-0.3,0.6-0.3,0.9
		c-0.2,0-0.3,0-0.5,0.1c-0.1,0.3-0.3,0.7-0.1,1c0.5-0.5,0.9-1.1,1.4-1.7C44.4,58.2,44.1,58.1,44,58.3L44,58.3z M41.9,61.1L41.9,61.1
		c-0.1,0.2-0.1,0.4-0.1,0.6c0,0,0.1,0,0.2,0c0.3-0.3,0.6-0.7,0.7-1.1C42.4,60.7,42.2,60.9,41.9,61.1L41.9,61.1z M78.1,66.2
		L78.1,66.2c-0.1,0.4-0.3,0.8-0.3,1.2c0.4-0.3,0.5-0.8,0.6-1.2C78.5,66,78.1,66.1,78.1,66.2L78.1,66.2z"/>
	<path d="M30.5,25.8c0.2-0.1,0.5-0.1,0.7,0.2c0.3,0.4,0.8,0.8,1.4,0.9c-0.1,0.3-0.4,0.5-0.5,0.8C32,27.8,32,28.1,32,28.4
		c-0.3,0.1-0.7,0.2-0.9,0.5c-0.1,0.3-0.4,0.2-0.7,0.2c0.1-0.4,0.6-0.6,0.5-1.1c-0.3,0.2-0.4,0.6-0.7,0.9c-0.1,0.1-0.3,0.2-0.4,0.4
		c-0.1,0.2-0.2,0.4-0.2,0.5c0.2,0,0.4,0,0.5,0c0,0.3-0.1,0.6,0,1c0.5-0.1,0.8-0.4,1.2-0.7c0.6-0.6,1.1-1.3,1.6-2
		c0.1-0.2,0.4-0.2,0.6-0.2c0,0.1-0.1,0.2-0.2,0.3C31.8,30,30,31.7,29,33.9c-0.2,0.1-0.4,0-0.5,0.2c-0.8,1.5-1.8,2.9-2.6,4.4
		c-0.2,0-0.4-0.1-0.7-0.2c0,0.2,0,0.3,0,0.5c-0.1,0.1-0.4,0-0.4,0.2c-0.5,1.4-1.6,2.5-2.2,3.9c-0.1,0.2-0.4,0.1-0.5,0.3
		c-0.2,0.4-0.4,0.7-0.6,1.1c-0.2,0.2-0.5,0.3-0.7,0.4c-0.6,1-1.2,1.9-1.9,2.8c-0.1,0.2-0.3,0.4-0.5,0.5c0,0.2,0.1,0.4,0.1,0.6
		c-0.1,0-0.2,0-0.3,0c0,0.2,0,0.3-0.1,0.5c-0.1,0-0.2,0-0.4,0.1c0,0.2,0,0.3,0,0.5c-0.2,0.1-0.5,0-0.6,0.3c-0.2,0.4-0.2,0.8-0.3,1.2
		c0.2-0.1,0.3-0.3,0.4-0.5c0.3,0.3,0.7,0.5,1.2,0.5c0.1,0.4-0.4,0.6-0.6,0.9c0,0.2,0,0.4,0.2,0.5c0.2,0.1,0.4,0.2,0.6,0.3
		c0.2-0.2,0.2-0.5,0.3-0.8c0.1,0,0.2,0,0.4,0c0,0.2,0,0.3,0,0.5c0.1,0,0.2,0.1,0.2,0.2c-0.1,0.2-0.2,0.5-0.2,0.7
		c0.4,0.1,0.8,0.1,1.2,0.3c0.1,0.1,0.1,0.3,0.2,0.4c0.2,0.1,0.4,0.2,0.6,0.3c0.2,0.3-0.1,0.6-0.1,0.9c0.5,0,1.1-0.1,1.5,0.2
		c0.2,0.1,0.3,0.4,0.5,0.6c0.4,0.1,0.8-0.1,1.2,0c0,0.1,0,0.2,0,0.3c-0.1,0.1-0.3,0.1-0.4,0.2c0.3,0.2,0.7,0.4,1,0.6
		c0.4,0.3,0.9,0.6,1.4,0.8c0.1-0.2,0.1-0.4,0.4-0.3c0.2,0,0.1,0.3,0.1,0.4c-0.1,0.2,0.1,0.4,0.2,0.5c0.1,0,0.2-0.1,0.3-0.2
		c0.8-1,1.1-2.3,1.8-3.4c0.1-0.1,0.2-0.4,0.3-0.2c0,0.2-0.1,0.4-0.1,0.6c-0.3,1-0.8,2-1.2,2.9c0,0.1,0,0.2,0,0.2
		c0.1,0,0.3,0,0.4-0.2c0.3-0.4,0.5-0.8,0.7-1.3c0-0.1,0.1-0.1,0.2-0.1c0.1,0.2-0.1,0.4-0.1,0.6c-0.2,0.5-0.6,1-0.7,1.6
		c0.2-0.1,0.5-0.2,0.7-0.2c0.4-0.4,0.7-0.8,1-1.2c0.2-0.2,0.3-0.4,0.5-0.4c0,0.5-0.3,1-0.6,1.5c-0.1,0.2-0.4,0.1-0.5,0.3
		c-0.3,0.4-0.5,0.9-1,1.2c0.3,0,0.7-0.2,0.9,0.2c0.6,0.8,1.6,1,2.4,1.6c0.2,0.2,0.6,0.4,0.5,0.8c-0.4,0-0.7-0.2-1-0.4
		c-1-0.5-1.8-1.1-2.8-1.6c0,0.3,0,0.6,0,0.9c0.6,0.2,0.9,0.8,1.4,1.1c0,0.1-0.1,0.3,0,0.4c0.2,0.3,0.6,0.3,0.6,0.7
		c0.1,0.1,0.3,0.1,0.4,0.2c0,0.2,0,0.4,0,0.6c-0.1,0-0.3-0.1-0.4-0.1c-0.2-0.1-0.2-0.4-0.4-0.5c-0.2-0.1-0.4-0.2-0.5-0.3
		c0-0.1,0-0.3,0-0.4c-0.2,0-0.4,0-0.5,0c-0.4-0.2-0.8-0.5-1.2-0.7c-1.1,1.8-2.1,3.6-3.2,5.3c-2.4,3.8-4.8,7.7-6.9,11.8
		c-0.1,0.2-0.3,0.1-0.4,0.2c-1.4,2.5-3,4.9-4.6,7.3c-0.3-0.2-0.1-0.6,0-0.8c0.2-0.5,0.5-1,0.8-1.5c0.2,0,0.4,0,0.5-0.2
		c1-1.8,2.4-3.4,3.2-5.4c0-0.2,0.3-0.2,0.4-0.3c0-0.1,0-0.3,0-0.4c0.1-0.2,0.4-0.3,0.6-0.5c0.5-0.6,0.8-1.2,1.2-1.9
		c0.4-0.8,0.8-1.7,0.8-2.6c-0.2,0.1-0.4,0.3-0.5,0.5c-3.5,6.9-8.4,13-12.3,19.7c-0.6,1-1.1,2-1.6,3c-0.1,0.2-0.3,0.2-0.5,0.2
		c-0.2,0.2-0.3,0.6-0.4,0.8C5.1,98.1,5,98,4.9,98c-0.1-0.3,0-0.6,0-0.9c-0.2,0-0.6,0.2-0.7-0.1c1.1-1.3,2.3-2.6,3.1-4.1
		c0.7-1.4,0.7-2.9,0.4-4.4c0-0.3-0.2-0.7-0.2-1c0.5,0.1,0.7,0.6,1,1c0.1,0.2,0.4,0.3,0.6,0.3c0.9-1.5,2-2.9,2.8-4.5
		c0.5-0.9,0.9-1.8,1.1-2.7c0-0.1,0-0.3,0.1-0.4c0.2-0.1,0.4-0.2,0.6-0.3c1.9-3.2,3.8-6.4,5.6-9.7c0.9-1.7,1.9-3.5,2.6-5.4
		c0.2-0.4,0.2-0.9,0.3-1.4c0.2,0,0.5,0,0.7,0c0.1-0.4,0.2-0.8,0.4-1.2c0.2-0.1,0.6-0.1,0.7-0.4c0.3-0.7,0.6-1.3,0.8-2
		c-0.1-0.2-0.3-0.3-0.5-0.4c-1-0.7-2-1.5-3.2-1.9c-0.2-0.1-0.4-0.1-0.6-0.2c-0.2-0.2-0.4-0.6-0.6-0.8c-0.7-0.7-1.6-1.2-2.6-1.6
		c-0.1,0-0.1-0.2-0.2-0.3c0.2,0,0.4,0,0.5-0.1c-0.3-0.3-0.7-0.4-1-0.6c0-0.1-0.1-0.3-0.1-0.4c-0.2,0-0.4-0.1-0.6-0.1
		c-0.1,0.1-0.1,0.2-0.2,0.3c-0.6-0.1-1-0.4-1.5-0.8c-0.5,0.1-0.5,0.8-1,0.9c0-0.5,0.3-0.9,0.4-1.3c-0.4,0.1-0.7,0.5-0.8,0.9
		c-0.6,0.2-0.7,0.8-0.9,1.3c-0.2,0-0.4-0.1-0.6-0.2c0-0.2,0.1-0.3,0.2-0.5c0.2-0.4,0.4-0.7,0.6-1.1c0.1-0.1,0.3-0.1,0.4-0.2
		c-0.2-0.3-0.2-0.7-0.2-1.1c-0.2,0-0.4-0.1-0.5-0.1c-0.1-0.1-0.2-0.2,0-0.3c0.2-0.1,0.5-0.1,0.6-0.3c-0.7-0.4-1.4-0.8-2.1-1.1
		c0,0.1,0,0.3,0,0.4c-0.2,0-0.4,0.1-0.5,0c0-0.2,0-0.4,0-0.6c-0.3-0.1-0.6-0.1-0.9-0.2c0-0.1,0-0.3,0-0.4c0.3,0,0.5,0.1,0.7,0.2
		c0.9,0.4,1.8,0.9,2.8,0.9c-0.1-0.2-0.3-0.3-0.5-0.4c-0.5-0.3-1-0.5-1.5-0.8c-0.2-0.1-0.1-0.3-0.2-0.4c-0.9-0.3-1.8-0.9-2.6-1.4
		c-0.1-0.1-0.1-0.1-0.1-0.2c0.6,0,1.2,0.3,1.7,0.5c1.1,0.6,2.1,1.5,3.3,1.8c0-0.1,0-0.3,0-0.4c0.6,0.2,1.2,0,1.7-0.3
		c0.1-0.3,0.1-0.6,0.2-0.9c4.1-6.1,8.5-12.1,12.1-18.6c0.1-0.1,0.3-0.1,0.4-0.1c0.6-1.2,1.1-2.4,1.9-3.4c0.3-0.3,0.5-0.6,0.9-0.8
		c0.1,0.1,0.1,0.3,0.2,0.4C30.2,26.2,30.3,25.9,30.5,25.8L30.5,25.8z M30.7,26.5L30.7,26.5c-0.1,0.2-0.2,0.5-0.1,0.8
		c0.2-0.2,0.7-0.4,0.5-0.7C31.1,26.4,30.8,26.4,30.7,26.5L30.7,26.5z M28.7,30.6L28.7,30.6c-0.1,0.4-0.1,0.8-0.2,1.2
		c0.2,0,0.3,0,0.4-0.2c0.1-0.2,0.4-0.1,0.6-0.2c0-0.3,0-0.6-0.1-0.9C29.1,30.6,28.9,30.6,28.7,30.6L28.7,30.6z M27.6,32.7L27.6,32.7
		c0.2,0,0.4-0.1,0.6-0.2c0.1-0.2,0.2-0.5,0.2-0.8C28,31.8,27.7,32.3,27.6,32.7L27.6,32.7z M27.2,33L27.2,33
		c-0.2,0.4-0.3,0.9-0.5,1.3c-0.1,0-0.3,0-0.4,0c0.1,0.3,0.1,0.7,0.2,1c0.2-0.2,0.4-0.5,0.7-0.6c0.3-0.2,0.6-0.3,0.8-0.4
		c0-0.3,0.1-0.5,0.1-0.8c-0.1-0.1-0.4-0.1-0.5-0.1c0-0.2,0-0.4-0.1-0.6C27.4,32.9,27.3,33,27.2,33L27.2,33z M18.7,53.8L18.7,53.8
		c0,0.1,0.1,0.2,0.2,0.3c0.5,0.3,0.9,0.6,1.4,0.9c0.1,0.1,0.3-0.2,0.2-0.3c-0.4-0.3-0.8-0.5-1.2-0.6c0-0.1-0.1-0.2-0.1-0.3
		C19,53.7,18.8,53.7,18.7,53.8L18.7,53.8z M26.1,64.7L26.1,64.7c-0.2,0.6-0.5,1.2-0.7,1.8c-0.1,0.2-0.4,0.1-0.5,0.2
		c0,0.3,0.2,0.6,0.2,0.8c-0.3,0.2-0.3-0.6-0.6-0.3c-0.7,1.4-1.9,2.5-2.4,4.1c0,0.1-0.2,0.5,0.1,0.4c0.4-0.5,0.6-1.1,0.8-1.7
		c0.1-0.3,0.3,0.3,0.5,0.1c0.2-0.3,0.1-0.7,0.3-1c0.2-0.1,0.4-0.1,0.5-0.3c0.1-0.2,0.4-0.1,0.6-0.2c0.6-1.4,1.5-2.7,2.1-4.2
		C26.6,64.4,26.3,64.5,26.1,64.7L26.1,64.7z M21.5,72L21.5,72c-0.3,0.3-0.3,0.7-0.3,1c-0.1,0.1-0.3,0-0.5,0.1
		c-0.1,0.1-0.1,0.3-0.1,0.5c0.6-0.2,1-0.7,1-1.3c0.1-0.1,0.2-0.2,0.3-0.3C21.8,72,21.6,72,21.5,72L21.5,72z M15.1,80.3L15.1,80.3
		c-0.1,0.3-0.3,0.7-0.4,1c0.2-0.2,0.5-0.5,0.7-0.8C15.6,80.4,15.2,80.1,15.1,80.3L15.1,80.3z M11.4,86.5L11.4,86.5
		c-0.4,0.6-0.8,1.3-0.9,2c0.4-0.1,0.4-0.6,0.5-0.9c0.2-0.1,0.4-0.1,0.5-0.3c0.3-0.9,0.8-1.6,1.1-2.5C12.1,85.3,11.7,85.9,11.4,86.5
		L11.4,86.5z"/>
	<path d="M50.5,33.1c0.2,0,0.4,0.1,0.5,0.3c0.1,0,0.3,0,0.4,0c0,0.2,0,0.3,0,0.5C51.3,34,51,34,50.9,34.2c-0.4,0.7-0.9,1.3-1,2
		c0.1,0,0.3,0,0.4,0c-0.1-0.4,0.3-0.6,0.5-0.8c0.3-0.2,0.5-0.6,0.9-0.6c-0.2,0.6-0.5,1.1-0.7,1.7c-0.2,0.7-0.1,1.5-0.1,2.2
		c-0.1,0.2-0.3,0.4-0.5,0.7c-0.4,0.8-0.6,1.7-1.2,2.3c-0.3,0.2-0.2,0.6-0.3,0.8c-0.3,0.7-0.7,1.4-1.1,2.1c-0.1,0.2-0.4,0.1-0.5,0.3
		c-0.5,1.6-1.6,2.9-2.6,4.3c-0.8,1.2-1.6,2.4-2,3.8c-0.7,0.3-1.2,1-1.6,1.7c-0.4,0.6-0.7,1.3-0.7,2.1c-0.2,0-0.5,0-0.7,0
		c-0.7,1.8-1.6,3.4-2.6,5.1c-0.9,1.6-1.9,3.2-2.4,5c-0.1,0.3-0.4,0.2-0.6,0.4c-0.1,0.2-0.2,0.4-0.3,0.7c-0.2,0.5-0.6,1-0.7,1.6
		c-0.1,0.1-0.3,0.1-0.4,0.2c-0.1,0.3-0.1,0.5-0.2,0.8c-0.1,0-0.3,0-0.4,0.1c-0.9,1.3-1.3,2.8-2.4,4c-0.1,0.4-0.2,0.8-0.4,1.2
		c0.8,0.1,1.7-0.1,2.5-0.2c0,0.1,0,0.2,0.1,0.3c0.2,0,0.3,0,0.5,0c0-0.2,0.1-0.4,0.3-0.4c1-0.1,2-0.1,2.9-0.2c0.9,0,1.9-0.2,2.8-0.1
		c0-0.1,0.1-0.2,0.1-0.3c0.4,0,0.8-0.2,1.1-0.4c0.1,0.1,0.2,0.2,0.3,0.2c0.1-0.2,0-0.6,0.3-0.6c0.3-0.1,0.3,0.3,0.4,0.4
		c0.2,0,0.4,0.1,0.7,0.1c0-0.2,0-0.4,0-0.7c0.1,0,0.3,0,0.4,0c0,0.2,0,0.3,0,0.5c3.9-0.4,7.8-1.2,11.7-1.6c0-0.5-0.1-1,0-1.4
		c0.2-0.1,0.3,0,0.3,0.2c0.1,0.3,0,0.6,0.1,0.8c0.3,0.1,0.6,0,0.9,0c0.1-0.1,0.1-0.2,0.2-0.4c0.3,0.2,0.7,0.4,1.1,0.4
		c1.4-0.1,2.7-0.7,4.1-1c0.3-0.1,0.5,0.2,0.8,0.3c0,0.2,0,0.4,0,0.6c-0.1,0-0.3,0.1-0.4,0.1c-0.1,0.2-0.1,0.4-0.4,0.4
		c-1.4,0.2-2.8,0.3-4.2,0.5c-0.1,0-0.2,0.3,0,0.3c0.1,0,0.2,0,0.2,0.1c0,0.2,0.1,0.4-0.1,0.6c-0.5,0.1-1.1,0-1.5,0.3
		c0,0.3,0,0.6,0,1c-0.2,0-0.3-0.1-0.4-0.2c-0.1-0.2-0.1-0.4-0.2-0.6c-0.5,0.1-1,0.1-1.5,0.3c-0.2,0.1-0.2,0.5-0.4,0.5
		c-2.4,0.3-4.8,0.9-7.3,1c0,0.1-0.1,0.2-0.1,0.4c-0.8-0.1-1.7-0.1-2.6,0c-4.4,0.3-8.7,1.1-12.8,2.6c-1.4,0.6-2.9,1.2-4.1,2.1
		c-0.1,0.2,0,0.5-0.1,0.8c-0.1-0.1-0.3-0.2-0.4-0.2c-0.1,0.3-0.2,0.6-0.4,0.9c-0.1,0.1-0.2,0.1-0.3,0.1c0,0.1,0,0.2-0.1,0.3
		c-0.3,0-0.5,0-0.8,0c0-0.1,0-0.2,0.1-0.4c-0.1-0.1-0.2-0.2-0.3-0.2c0.4-1.6,1.3-3,1.9-4.5c0.2-0.1,0.4,0,0.5-0.2
		c0.1-0.2,0.2-0.5,0.2-0.8c-1,0-1.9,0-2.9,0c0-0.1,0-0.2-0.1-0.3c1.1-0.2,2.3-0.2,3.4-0.4c0.4-0.7,0.8-1.4,1-2.2
		c0-0.3,0.4-0.2,0.4-0.5c0.4-1.5,1.6-2.7,2-4.2c0-0.2,0.3-0.2,0.4-0.2c0.7-1.6,1.7-3.1,2.7-4.6c1.3-2.1,2.6-4.1,3.6-6.3
		c0.4-0.8,0.7-1.7,0.6-2.6c0.3,0.1,0.6,0.1,0.9-0.1c0.2-0.4,0.3-0.9,0.4-1.3c0.1-0.1,0.4-0.1,0.4-0.2c1-1.7,1.6-3.6,2.5-5.3
		c0.5-0.9,1-1.9,1.9-2.3c0.1-0.3,0-0.6,0.1-0.8c0.5-1.5,1.7-2.6,2.2-4.1c0.1,0,0.3-0.1,0.4-0.1c0.9-2,1.7-4,2.8-5.9
		c0.4-0.8,0.9-1.6,1.5-2.4c0.1-0.2,0.3,0,0.5-0.1C50.4,33.3,50.5,33.2,50.5,33.1L50.5,33.1z M53,73.8L53,73.8c0.1,0,0.2,0.1,0.3,0.1
		c0,0.1,0.1,0.2,0.1,0.3c0.7-0.3,1.4-0.3,2.1-0.5c0.1-0.2,0-0.3-0.2-0.2C54.6,73.6,53.8,73.6,53,73.8L53,73.8z"/>
	<path d="M119.6,34.7c0.1-0.1,0.2-0.2,0.3-0.3c0.1,0.1,0.2,0.2,0.2,0.3c-0.1,0.4-0.5,0.9-0.2,1.4c0.1,0.4,0.6,0.4,0.9,0.5
		c-0.2-0.3-0.5-0.5-0.7-0.6c-0.2-0.1,0-0.3-0.1-0.4c0.3,0.1,0.6,0.2,0.8,0.3c0.2,0.1,0.2,0.4,0.4,0.5c3.5,1.8,7,3.6,10.4,5.4
		c1.7,0.9,3.4,1.9,5.1,2.9c0.5,0.3,0.9,0.6,1.3,1c1.6,0.1,3.2-0.6,4.8-0.9c-0.1,0.2-0.1,0.5-0.3,0.5c-1.3,0.4-2.7,0.8-3.5,1.9
		c0.3,0.2,0.7,0.2,1.1,0.2c-0.1-0.2-0.3-0.3-0.5-0.5c0.4,0,0.7,0.3,1,0.4c1.8,0.8,3.5,1.7,5.3,2.7c0.2,0.1,0.6,0.2,0.7,0.6
		c-2.3-0.2-4-2.2-6.3-2.3c0.2,0.3,0.5,0.4,0.8,0.6c0.5,0.4,1,0.7,1.6,0.9c0.2,0.1,0.1,0.3,0.1,0.5c-0.4-0.1-0.7-0.3-1.1-0.5
		c-1-0.5-2-1.1-3-1.7c-0.2-0.1-0.2-0.5-0.5-0.5c0,0.2,0.1,0.3,0.1,0.5c-0.4,0-0.9-0.2-1.3-0.3c-0.2,0.3-0.4,0.5-0.7,0.7
		c-0.1,0.1-0.4,0.1-0.5,0.3c0.4,0.4,1,0.5,1.3,1c-0.3,0.1-0.6-0.1-0.9-0.1c-0.8-0.1-1.6-0.3-2.4-0.5c-0.6,0.2-1.1,0.6-1.6,0.8
		c-2.2,1.1-4.3,2.3-6.5,3.4c-1.5,0.8-3,1.6-4.4,2.5c0.2,0.5,0.5,1,0.8,1.6c0.1,0,0.3,0,0.4,0.1c0.6,1.3,1.5,2.4,1.9,3.8
		c-0.1,0.1-0.2,0.1-0.3,0.2c2.3,3.3,4.7,6.6,6.7,10.1c0.7,1.2,1.4,2.5,1.8,3.8c0.1,0,0.2,0,0.3,0.1c1,1.7,2.3,3.3,2.9,5.2
		c0.1,0.2,0,0.4-0.2,0.5c1.1,1.6,2.3,3.3,3.2,5c0.3,0.7,0.6,1.3,0.8,2.1c-0.2,0-0.4,0.1-0.5-0.1c-0.9-1.6-1.6-3.2-2.8-4.6
		c-0.4-0.4-0.8-0.8-1.3-1c0,0.3,0.2,0.8-0.1,1c-0.1,0.1-0.2,0.1-0.3,0c-0.1-0.2-0.2-0.4-0.2-0.6c0.1-0.1,0.3-0.3,0.2-0.5
		c-0.2-0.1-0.5-0.1-0.7-0.2c-0.2-0.2-0.3-0.4-0.4-0.7c-0.3,0.1-0.7,0.5-0.5,0.9c0,0.1,0.1,0.2,0.1,0.3c-0.4,0-0.8,0-1.2,0
		c0,0-0.1-0.1-0.1-0.1c0.1-0.3,0.2-0.5,0.2-0.8c-0.9-1.7-1.7-3.5-2.8-5.1c-0.5-0.7-1-1.4-1.6-1.9c0-0.1,0.1-0.3,0-0.4
		c-1.8-3.2-3.8-6.3-5.6-9.6c-0.7-1.2-1.3-2.5-1.8-3.7c-0.1,0-0.3-0.1-0.4-0.1c-0.1-0.2-0.1-0.4-0.2-0.6c-0.1,0-0.2-0.1-0.4-0.1
		c-0.3-0.8-0.9-1.5-1.3-2.2c-0.1-0.2-0.3-0.2-0.5-0.2c-0.1,0.1,0,0.4-0.2,0.4c-0.9,0.2-1.7,0.6-2.5,0.9c-0.2,0.1-0.4,0.1-0.5-0.1
		c0-0.2,0.2-0.3,0.3-0.4c0.8-0.7,1.8-1.1,2.6-1.7c-0.1-0.1-0.1-0.2-0.2-0.3c-0.9,0-1.7,0.6-2.5,1.1c-0.2,0.1-0.3,0.4-0.4,0.6
		c-0.4,0.1-0.8,0.1-1.1,0.2c-0.1,0.2-0.2,0.4-0.2,0.6c-0.7,2.3-1.9,4.4-2.5,6.7c-0.2,0.9-0.4,1.8-0.4,2.7c-0.1,0-0.2,0-0.4,0.1
		c-0.2,0.8-0.6,1.6-0.5,2.4c0.1,0.2-0.2,0.2-0.3,0.3c0,0.3,0.1,0.6,0,0.9c-0.1,0.1-0.2,0.1-0.4,0.2c-0.5,2.2-1.5,4.2-1.8,6.4
		c-0.1,0-0.2,0.1-0.3,0.1c0.1,0.3,0.2,0.5,0.3,0.8c-0.1,0.1-0.3,0.2-0.3,0.4c0,0.3,0.1,0.7-0.2,0.8c-0.7,0.3-0.9,1.1-1.1,1.8
		c-0.3,0.9-0.3,1.9-0.6,2.9c-0.1,0.1-0.2,0.1-0.3,0.2c0,0.3,0,0.6-0.2,0.9c-0.3,0.3-0.6,0.7-0.7,1.1c-0.3,0-0.7,0-0.9-0.2
		c-0.1-0.2,0.3-0.3,0.5-0.4c-0.2-1.1-0.2-2.2,0-3.3c-0.2,0-0.3,0-0.5,0c0.1-0.4,0.3-0.7,0.5-1.1c1.8-4,2.9-8.3,4-12.5
		c0.2-0.8,0.4-1.7,0.8-2.4c0.9-2.1,1.7-4.3,2.4-6.6c0.2-0.8,0.5-1.7,0.5-2.5c-0.3,0.1-0.6,0.3-0.9,0.4c-0.2,0-0.2-0.2-0.2-0.4
		c0.6-0.2,1.3-0.5,1.6-1.1c0.3-0.6,0.1-1.3,0-2c0.2,0,0.5,0,0.7,0c-0.1-0.7-0.3-1.3-0.3-2c0.1,0,0.3,0,0.4,0c0,0.3,0,0.7,0.1,1
		c0,0,0.1,0,0.2,0c1.7-3.9,3.3-7.9,4.5-11.9c0.4-1.3,0.8-2.6,1.1-3.9c-2.7,0.1-5.3,0.8-8.1,0.7c-1.2,0-2.4-0.2-3.5-0.7
		c-0.1,0.2-0.3,0.3-0.5,0.3c0-0.2-0.1-0.3-0.1-0.4c-0.1,0.1-0.2,0.3-0.2,0.4c-1.1,0-2.3,0-3.4,0c-1.5,3.9-3.3,7.8-4.9,11.7
		c0.5,0,0.9,0,1.4,0c0.7,0.1,1.5-0.1,2.2,0.1c0,0,0,0.1,0,0.2c-0.6,0.2-1.2,0-1.7,0.2c-0.1,0.1-0.1,0.3-0.2,0.4c0.7,0,1.3,0,2,0
		c0.1-0.1,0.1-0.4,0.4-0.3c0.1,0.2,0,0.3,0,0.5c0.3,0,0.8-0.2,1,0.3c-0.4,0.1-0.9,0-1.3,0.2c0.5,0.2,1,0.2,1.5,0.3
		c0-0.2,0-0.5,0.1-0.7c0.2-0.1,0.4-0.1,0.5-0.1c0,0.2,0,0.4,0,0.6c0.5,0,1,0.1,1.5,0.1c0-0.2,0-0.4,0-0.5c0.3,0,0.6,0,0.9,0
		c0.2,0.2,0.3,0.4,0.6,0.5c0.4,0.1,0.8,0.2,1.2,0.4c0,0.1,0,0.2,0,0.2c-0.4,0.1-0.4,0.6-0.7,0.7c-0.4,0.2-0.6,0.6-0.7,1
		c-0.2,0.6-0.3,1.2-0.4,1.8c-0.2,0-0.4,0-0.5,0c-0.1-1,0.4-1.9,0.7-2.8c-0.5,0-1.1,0.1-1.6,0.2c-0.1,0.1-0.1,0.3-0.1,0.5
		c-0.1,0.8-0.5,1.6-0.8,2.3c-0.1,0.4-0.6,0.2-0.9,0.2c0.1-0.4,0.2-0.7,0.4-1.1c0.3-0.7,0.6-1.4,0.8-2.1c-2.3,0-4.6,0-6.9,0
		c-0.3,0-0.6,0-0.9,0c-0.7,1.2-1.4,2.3-2,3.5c-0.9,1.6-1.9,3.2-2.4,5c0,0.1-0.1,0.3-0.1,0.4c0.2,0.1,0.5,0.1,0.7,0.1
		c0.2,0.1,0.1,0.3,0.1,0.5c-0.4,0-0.8-0.1-1.1,0.1c-0.5,0.4-0.3,1.2-0.3,1.7c0.2,0,0.4,0,0.5,0c0,0.3-0.1,0.6-0.3,0.9
		c0.9,0,1.9,0,2.8,0c0.1-0.1,0-0.3,0.1-0.5c0.2,0,0.4,0.1,0.6,0.1c0.7,0.1,1.4,0.2,2,0.2c0.6,0.1,1.2,0.1,1.7,0c2.3,0,4.6-0.3,7-0.3
		c0.6-0.1,1.2-0.1,1.8,0c0,0.1,0,0.3,0,0.4c-0.3,0-0.6,0-1,0c-0.1,0.1-0.2,0.2-0.2,0.3c-0.2-0.1-0.4-0.2-0.7-0.3
		c-1.2-0.2-2.4,0-3.5,0c0,0.2,0.1,0.3,0.2,0.2c1,0,2,0.1,2.9,0.1c0,0.2,0.1,0.5-0.2,0.5c-4.8,0.2-9.6,0.2-14.3,1
		c0,0.1-0.1,0.2-0.1,0.4c-0.7,0-1.3,0-2,0.1c-0.4,0-0.8,0.1-1,0.4c-0.2,0.3-0.3,0.6-0.5,0.9c-0.3,0.9-0.8,1.7-1.3,2.5
		c-0.1,0.2-0.4,0.1-0.6,0.1c0-0.3,0-0.5,0-0.8c0.1,0,0.3-0.1,0.4-0.1c0.1-0.4,0.2-0.7,0.3-1.1c-0.3,0-0.6,0.1-0.9,0.2
		c0,0-0.1-0.1-0.1-0.1c0.1-0.5,0.2-0.9,0.1-1.4c0-0.4-0.2-0.7-0.3-1.1c0.2,0,0.5,0,0.7,0c0.1-0.3-0.1-0.8,0.2-1
		c0.6-0.5,1-1.2,1.4-1.9c0.3-0.6,0.7-1.2,0.8-2c-0.2,0-0.5,0-0.7,0c0-0.4,0.3-0.7,0.5-1c0.2-0.2,0.3-0.5,0.6-0.6
		c0.1,0,0.2,0.1,0.2,0.2c0-0.1,0-0.2,0-0.3c0.1,0,0.3-0.1,0.4-0.1c0-0.2,0.1-0.5,0.1-0.7c-0.2,0-0.4,0.1-0.7,0.1
		c0.1-0.3,0.3-0.6,0.3-0.9c0.2,0,0.3-0.1,0.5-0.1c0.1-0.2,0.2-0.3,0.3-0.5c-0.1-0.2-0.2-0.4-0.2-0.6c0.1-0.1,0.3-0.2,0.4-0.3
		c0.1-0.2,0.2-0.4,0.3-0.5c0.2-0.2,0.6-0.1,0.8-0.3c0-0.3,0-0.7,0.1-1c0.1-0.1,0.2-0.1,0.4-0.2c0.1-0.2,0.2-0.4,0.3-0.6
		c0.1-0.1,0.3-0.1,0.4-0.1c0.1-0.8,0.1-1.5,0.4-2.3c0.1-0.1,0.1-0.3,0.2-0.3c0.1,0,0.3,0,0.4,0c-0.1-0.1-0.2-0.2-0.3-0.3
		c0.5-1,0.9-2,1.2-3c0.2-0.1,0.4,0,0.5-0.2c0.5-1,0.9-2.1,1.8-2.9c0.2-0.2,0.1-0.5,0.2-0.8c0.1,0,0.3,0,0.4-0.1
		c0.1-0.2,0.2-0.6,0.5-0.5c-0.1,0.9-0.6,1.6-1,2.3c-0.1,0.1-0.1,0.2,0,0.3c0.2,0,0.3-0.1,0.4-0.2c0.5-0.5,0.7-1.1,0.7-1.7
		c0-0.1,0.1-0.2,0.2-0.3c0.6-0.3,0.9-1,1.2-1.6c0.8-1.7,1.3-3.5,1.8-5.3c0,0-0.1-0.1-0.1-0.1c-0.7,0-1.4-0.1-2.1-0.2
		c-0.1,0-0.3-0.1-0.3-0.2c0.1-0.1,0.2-0.1,0.3-0.2c0-0.2,0-0.3,0.1-0.5c0.8,0.1,1.6,0.1,2.4,0.2c0-0.1,0-0.2,0.1-0.3
		c0.2-0.1,0.4-0.1,0.5-0.1c0.4-0.5,0.5-1.1,0.6-1.7c0-0.2,0.3-0.1,0.5-0.2c0,0.6-0.2,1.1-0.2,1.7c0.3-0.1,0.4-0.5,0.7-0.7
		c0.1-0.1,0.3,0,0.5,0c-0.2,0.3-0.3,0.6-0.3,0.9c0.5,0.1,1-0.2,1.4,0.1c1,0.1,1.9,0.1,2.9,0.2c-0.1-0.1-0.1-0.3-0.1-0.4
		c0.6-0.1,1.2,0,1.8,0.2c0,0.2,0.1,0.3,0.2,0.5c0.1-0.1,0.2-0.3,0.2-0.5c0.5,0,1,0,1.4,0c0,0.1,0,0.3,0,0.4c1.2,0,2.5,0.1,3.7-0.2
		c0.2-0.1,0.1,0.3,0.2,0.4c0.2,0,0.5,0,0.7,0c0.1-0.1,0.2-0.2,0.2-0.3c1.1,0.1,2.1,0.5,3.1,0.7c0.2-0.2,0.1-0.5,0.3-0.7
		c0.2,0,0.3-0.1,0.5-0.1c0-0.3,0.2-0.7-0.1-0.9c-0.1,0.1-0.2,0.2-0.3,0.3c-0.3-0.4-0.5-0.9-0.8-1.3c-0.3-0.2-0.7-0.3-0.8-0.7
		c0.9,0.1,1.7,0.6,2.6,0.7c0.3-0.2,0.6-0.4,0.7-0.8C119.3,34.6,119.5,34.6,119.6,34.7L119.6,34.7z M118.6,37.1L118.6,37.1
		c0.5,0.2,0.9,0.7,1.5,0.5c-0.2-0.1-0.3-0.3-0.5-0.4c0.6-0.2,1.1,0.3,1.6,0.3c-0.3-0.3-0.8-0.4-1.1-0.7c-0.3-0.2-0.6,0.1-0.9,0.1
		c-0.1-0.2,0-0.5-0.3-0.5C118.7,36.6,118.7,36.9,118.6,37.1L118.6,37.1z M119.7,39.3L119.7,39.3c-1.2,1.4-2.2,3.2-2,5.1
		c-0.2,0-0.4,0-0.6,0c0,0.2-0.1,0.4-0.1,0.6c0.1,0,0.2,0,0.3,0c-0.4,2.9-1.6,5.6-2.5,8.4c1-0.2,1.9-0.8,2.9-0.9c0,0.2,0,0.4,0.1,0.5
		c0.7-0.3,1.3-0.5,2-0.8c3.6-1.5,7.1-3.6,11-4.5c0.2-0.1,0.1-0.4,0.1-0.6c0.1,0,0.2,0,0.3,0c0.1,0.1,0.2,0.3,0.3,0.4
		c0.5,0,1-0.3,1.5-0.4c0,0-0.1-0.1-0.1-0.1c-0.8-0.5-1.6-1.1-2.4-1.6c-0.3-0.2-0.8-0.3-0.7-0.8c-1.9-1.4-3.9-2.8-6-4
		c-0.8-0.4-1.6-0.8-2.5-0.8c-0.3,0-0.4,0.3-0.6,0.5c-0.2,0-0.4-0.1-0.5-0.3c0.1-0.3,0.3-0.5,0.3-0.8C120.4,39.2,120,39.1,119.7,39.3
		L119.7,39.3z M127.6,40.4L127.6,40.4c0.9,0.7,1.8,1.1,2.8,1.6c0.2,0.1,0.1,0.4,0.3,0.5c1.2,0.6,2.3,1.6,3.6,1.8
		c0,0.1,0.1,0.2,0.1,0.4c0.4,0.1,0.8,0.5,1.2,0.7c0.2-0.1,0.5-0.1,0.5-0.3c-0.3-0.4-0.7-0.6-1.1-0.9c-1.7-1.1-3.5-2-5.3-2.9
		C129,41,128.3,40.6,127.6,40.4L127.6,40.4z M129.5,44L129.5,44c0.1,0.1,0.2,0.2,0.3,0.2c1.3,0.9,2.6,1.9,3.9,2.8
		c0.4,0.1,0.8-0.2,1.1-0.3c-0.9-0.7-1.9-1.2-2.8-1.7C131.2,44.6,130.4,44.2,129.5,44L129.5,44z M135,47.7L135,47.7
		c0.4-0.1,0.7-0.2,1.1-0.3c0.1,0,0.1-0.2,0.2-0.3C135.8,47.1,135.3,47.3,135,47.7L135,47.7z M97.3,51.7L97.3,51.7c0.2,0,0.5,0,0.7,0
		c-0.2-0.2-0.4-0.3-0.6-0.5C97.3,51.3,97.3,51.5,97.3,51.7L97.3,51.7z M123.1,63.9L123.1,63.9c0,0.1,0,0.2,0,0.3
		c0.3,0.8,0.7,1.6,1.2,2.4c0.1,0,0.2,0,0.4,0c0.4,0.8,0.5,1.8,1.3,2.4c0.2,0.1,0.2,0.3,0.3,0.5c0.2,0.5,0.4,1,0.6,1.6
		c0.2,0,0.3,0,0.5,0c0,0.1,0.1,0.2,0.1,0.3c0.1,0,0.2,0,0.3,0c0-0.1,0-0.2,0-0.4c-0.1,0-0.3-0.1-0.4-0.1c0-0.1,0-0.3,0-0.4
		c-0.1,0-0.2-0.1-0.4-0.1c-0.1-0.4-0.2-0.9-0.3-1.3c-0.2-0.2-0.4-0.3-0.6-0.4c-0.6-0.5-0.7-1.3-0.8-2c-0.2-0.2-0.6-0.4-0.7-0.6
		C123.9,65.4,123.6,64.6,123.1,63.9L123.1,63.9z M128.6,73.5L128.6,73.5c0,0.1,0,0.3,0,0.4c0.2,0.8,0.7,1.6,1,2.4c0.1,0,0.2,0,0.3,0
		c0-0.8-0.5-1.4-0.8-2C128.9,74,128.8,73.7,128.6,73.5L128.6,73.5z M131.7,74.4L131.7,74.4c0.2,0.6,0.5,1.1,0.8,1.5
		c0.1,0,0.2,0,0.2,0C132.4,75.4,132.1,74.8,131.7,74.4L131.7,74.4z M133,76.5L133,76.5c0.2,0.6,0.6,1.2,0.9,1.7
		c0.2,0.2,0.2,0.6,0.6,0.6c-0.1-0.4-0.3-0.7-0.5-1C133.7,77.4,133.4,76.9,133,76.5L133,76.5z M131.7,79.5L131.7,79.5
		c0.1,0.5,0.4,0.9,0.6,1.4c0.1,0.2,0.2,0.5,0.5,0.5c0.1-0.3-0.2-0.6-0.3-0.9C132.3,80.2,132.1,79.8,131.7,79.5L131.7,79.5z"/>
	<path d="M69.9,58.7c0.1,0,0.2,0,0.4,0c0.1,0.3,0.1,0.7,0.1,1.1c0.4,5.3,1,10.5,0.9,15.8c0,0.2-0.3,0.5-0.4,0.2
		c0.2-5.6-0.6-11.2-1-16.8C69.9,58.9,69.9,58.8,69.9,58.7L69.9,58.7z"/>
	<path d="M37.4,68.1c0.1-0.1,0.3-0.1,0.4,0c0,0.3,0.1,0.5,0,0.8c-0.2,0.2-0.6,0.1-0.8,0.2C37.1,68.7,37.3,68.4,37.4,68.1L37.4,68.1z
		"/>
</g>
</svg>
