<?xml version="1.0" encoding="utf-8"?>
<!-- Generator: Adobe Illustrator 28.2.0, SVG Export Plug-In . SVG Version: 6.00 Build 0)  -->
<svg version="1.1" id="Layer_1" xmlns="http://www.w3.org/2000/svg" xmlns:xlink="http://www.w3.org/1999/xlink" x="0px" y="0px"
	 viewBox="0 0 200 200" style="enable-background:new 0 0 200 200;" xml:space="preserve">
<style type="text/css">
	.st0{fill-rule:evenodd;clip-rule:evenodd;fill:#AF2930;}
</style>
<path class="st0" d="M90.8,60l10.1-1.8l-0.5,32.8l12-25.6l10.4-1.8L83,151.7l-10.6-5.1l9.7-18.4l-3.5,0.6L80,99.2l-15-0.7l-9.8,16.4
	l-8.3-2.5l-2.8,7.8l24.4-7.4l3.7,12.2l-46.1,13.4L54.6,66l9.9-2.1L51.2,101l28.6-45.7l9.5-1.4l0.4,60.1l1.5-2.8L90.8,60L90.8,60z
	 M20.5,149.3l22.4-58.9l-7.1,0.2l16.1-41.6l-13.4,0.2l-20.1,54.3l8.3-0.7l-15.2,46.7L20.5,149.3L20.5,149.3z M71,88.5L81.4,71
	l-0.8,17.7L71,88.5L71,88.5z M92.7,132.7l31.8-69.5l37.1-8.8l-6,14.1l-25.1,4.4l-8.1,19.7l10.2,0.8l-4.6,9.9l-9.7-0.6l-7.6,18.4
	l20.1-0.5l-0.7,13.6L92.7,132.7L92.7,132.7z M132.4,129.7l31.8-76.9L187.3,90l-15.6,4.9l6.1,32.5l-12,3.2l-6.6-31.7l-4,1.3
	L145,129.5L132.4,129.7L132.4,129.7z M160,87.2l5.5-13.2l4.2,10.4L160,87.2L160,87.2z"/>
</svg>
