<?xml version="1.0" encoding="utf-8"?>
<!-- Generator: Adobe Illustrator 27.5.0, SVG Export Plug-In . SVG Version: 6.00 Build 0)  -->
<svg version="1.1" id="Layer_1" xmlns="http://www.w3.org/2000/svg" xmlns:xlink="http://www.w3.org/1999/xlink" x="0px" y="0px"
	 width="535.8px" height="438px" viewBox="0 0 535.8 438" style="enable-background:new 0 0 535.8 438;" xml:space="preserve">
<g>
	<path fill="#a99863" d="M374.5,388.4c-3.4-3.2-6.9-6.4-10.2-9.7c-7.1-7.1-14.1-14.4-21.3-21.5c-0.7-0.7-2-1-3-1.4c-0.2,1-0.7,2-0.7,3
		c-0.1,25.2-0.1,50.4-0.1,75.6c0,1.1-0.6,2.1-0.9,3.2c-1-0.6-2.1-1-2.9-1.7c-3.3-3.1-6.6-6.2-9.7-9.6c-1.1-1.2-2-3.2-2-4.9
		c-0.2-10,0-20,0-30c0-13.3-0.1-26.5-0.2-39.8c0-3.3,0.3-6.5,0-9.8c-0.2-2.1-0.9-4.6-2.3-6.1c-10.2-10.5-20.7-20.7-31-31.1
		c-6.2-6.2-12.4-12.5-18.5-18.8c-3.1-3.2-3.7-3.2-6.8-0.2c-5.8,5.7-11.7,11.3-17.4,17.1c-10.4,10.4-20.7,20.9-31.1,31.4
		c-2.4,2.5-3.7,5.2-3.7,9c0.1,25.5-0.1,51.1-0.1,76.6c0,2.9-0.6,5.3-2.7,7.3c-3.5,3.3-6.8,6.6-10.3,9.9c-0.4,0.4-1.1,0.5-2.2,1
		c-0.2-1.7-0.5-3-0.5-4.3c0.1-17.4,0.3-34.8,0.4-52.1c0-7.8-0.2-15.6-0.3-23.5c0-0.8-0.6-1.5-0.9-2.3c-0.9,0.4-1.9,0.5-2.5,1.1
		c-6,6-11.9,12-17.8,18c-4,4-8,8-12,11.9c-0.6,0.6-1.6,0.8-2.4,1.2c-0.3-0.9-0.8-1.8-0.8-2.6c-0.1-13.9-0.1-27.8-0.1-41.7
		c-0.1-22.4-0.2-44.8-0.2-67.1c0-11.8,0.4-23.7,0.4-35.5c0-21.3-0.2-42.6-0.2-63.9c0-4.4-3.9-6.2-6.2-9c-2.3-2.7-5-5.1-7.6-7.6
		c-0.9-0.8-2.1-1.3-3.1-1.9c-0.4,1.2-1.1,2.3-1.1,3.5c-0.1,20.5,0,41.1,0,61.6c0,23.4,0,46.7,0.1,70.1c0,3.1-0.8,5.4-3.1,7.5
		c-3.3,3.1-6.5,6.4-9.8,9.6c-0.5,0.5-1.5,0.8-2.2,0.7c-0.3,0-0.7-1.2-0.7-1.9c0-9.6,0-19.1,0-28.7c0-9.5-0.1-19.1,0-28.6
		c0-16.7,0.1-33.4,0.1-50.2c0-7.3-0.1-14.5-0.1-21.8c0-12.2,0-24.3-0.1-36.5c0-1.8-0.7-4-1.9-5.3c-7.5-7.8-15.2-15.5-22.8-23.1
		c-0.3-0.3-0.8-0.3-1.6-0.7c-0.2,1.3-0.5,2.4-0.5,3.5c0,21,0,41.9,0,62.9c0,37.3,0,74.6,0,111.8c0,34,0,68,0.1,102
		c0,6.1-0.2,11.8-5.9,15.8c-2.4,1.6-4.1,4.2-6.2,6.2c-0.6,0.6-1.6,0.9-2.4,1.3c-0.4-0.9-1.2-1.8-1.2-2.8c-0.1-4.6-0.1-9.1-0.1-13.7
		c0-9.6-0.1-19.1,0-28.7c0.1-15.4,0.2-30.8,0.3-46.3c0-17-0.1-34.1-0.1-51.1c0-23.2,0-46.5,0-69.7c0-24.3,0.1-48.7,0.2-73
		c0-4.6,0-9.1-0.1-13.7c0-1.1-0.4-2.2-0.6-3.2c-0.4-0.2-0.7-0.4-1.1-0.5C55.4,142.3,28.8,169,2.2,195.6c-0.4-0.1-0.7-0.3-1.1-0.4
		c-0.4-2.1-1-4.1-1.1-6.2c-0.1-3.2,0.2-6.5,0.1-9.7c0-3.4,1.3-5.9,3.7-8.3c12.4-12.3,24.8-24.6,37.1-37
		c13.4-13.4,26.8-26.9,40.2-40.3c20.5-20.6,41.1-41.1,61.6-61.7c9.2-9.2,18.4-18.4,27.6-27.6c1.3-1.3,2.7-2.4,4.8-4.2
		c0.3,2.2,0.7,3.6,0.7,5c0.1,8.1,0,16.3,0,24.4c0,14.7,0,29.3,0,44c0,27.3,0,54.5,0,81.8c0,11.9,0,11.9,8.4,20.3
		c3.5,3.4,6.9,6.9,10.4,10.3c1.9,1.9,2.6,1.6,3.4-1c1.3-4.1,2.4-8.3,3.8-12.4c4-11.5,11.4-20.6,20.4-28.5c1.7-1.5,2.2-2.9,1.5-5.1
		c-4.6-13.9-9.1-27.9-13.5-41.8c-0.3-0.9-0.1-2-0.1-3.1c1,0.1,2.1,0,3,0.4c4.5,2.1,9.1,4.2,13.3,6.8c1.6,0.9,2.8,3,3.4,4.9
		c2.7,7.9,5.1,15.9,7.7,23.9c0.5,1.5,0.8,3.5,3.1,2.8c2.2-0.6,1.7-2.3,1.5-4c-2.6-16.8-5.1-33.7-7.6-50.5c-0.2-1.7,0.4-3.5,0.6-5.2
		c1.5,0.7,3.1,1.2,4.5,2.1c2.7,1.8,5.2,3.9,8,5.5c3.3,1.9,4.4,4.9,4.8,8.3c1.6,11.5,3.2,23,4.8,34.5c0.2,1.3,0.9,2.5,1.3,3.8
		c0.4-0.1,0.8-0.2,1.2-0.2c0.2-1.6,0.5-3.1,0.5-4.7c0-18-0.1-36.1-0.1-54.1c0-4.8-0.6-9.6,0.2-14.3c0.9-5,3-9.9,4.8-14.8
		c0.6-1.6,1.8-3,2.8-4.4c0.9,1.4,1.8,2.8,2.5,4.3c4.5,8.2,5.3,16.9,4.8,26.1c-0.5,8,0.1,16.1,0.1,24.1c0,11.6-0.1,23.2,0,34.9
		c0,1,0.9,2.1,1.4,3.1c0.5-1.1,1.3-2.1,1.4-3.2c1.9-12.6,3.6-25.1,5.5-37.7c0.1-0.9,0.4-2.1,1.1-2.6c5.1-3.9,10.3-7.7,16.3-12.2
		c0.1,2.2,0.4,3.2,0.2,4.2c-1.9,13.1-3.8,26.2-5.7,39.3c-0.7,4.8-1.5,9.7-1.9,14.5c-0.1,1.1,1.1,2.4,1.8,3.6c0.8-0.8,2-1.5,2.4-2.5
		c2.8-8.3,5.5-16.7,8.3-25c0.5-1.4,1.3-3,2.4-3.6c4.6-2.6,9.4-5,14.2-7.3c0.8-0.4,2-0.1,3-0.1c-0.1,0.9,0.1,1.9-0.2,2.8
		c-4.5,14-8.9,28.1-13.5,42.1c-0.7,2.2-0.2,3.7,1.6,5.1c11.1,8.8,18.2,20.2,22.1,33.7c0.7,2.6,1.5,5.2,2.3,7.8
		c0.6,2.2,1.7,1.9,3,0.6c5.8-5.9,11.6-11.7,17.3-17.7c0.9-0.9,1.3-2.5,1.3-3.8c0.2-9.1,0.2-18.2,0.2-27.4
		c0.1-17.6,0.1-35.2,0.1-52.8c0-19.9-0.2-39.8-0.3-59.6c0-6.9,0-13.9,0-20.8c0-1.1,0.5-2.2,1-4.4c3.4,3.2,6.2,5.8,8.9,8.5
		c5,5,10,10.2,15,15.3c6.7,6.8,13.5,13.5,20.2,20.2c7.9,7.9,15.9,15.7,23.8,23.6c8.5,8.5,17,17,25.5,25.5
		c14.4,14.3,28.8,28.6,43.1,42.9c7.5,7.5,15.1,15,22.6,22.5c4.7,4.7,9.3,9.3,13.8,14.1c1,1.1,1.6,2.8,1.7,4.3c0.2,5,0.2,10,0.1,15
		c0,1-0.6,2.1-1,3.1c-1-0.6-2.2-0.9-3-1.7c-14.6-14.5-29.1-29.1-43.6-43.7c-10.6-10.6-21.2-21.2-31.8-31.7c-0.9-0.9-2-1.5-3.5-2.7
		c-0.2,1.9-0.5,3.2-0.5,4.4c0,25.1,0,50.2,0,75.3c0,17.8,0,35.6,0,53.5c0,24.4,0.1,48.9,0.1,73.3c0,15.2-0.1,30.4-0.1,45.6
		c0,15.9,0,31.7,0,47.6c0,1.1-0.5,2.2-0.7,3.3c-1.1-0.6-2.2-1-3.2-1.7c-1-0.7-1.6-1.8-2.6-2.4c-8.6-5.5-9.3-13.6-9.2-22.9
		c0.4-29.3,0.1-58.7,0.2-88c0-24.7,0.2-49.3,0.2-74c0-26.3-0.1-52.6-0.2-78.9c0-10.2,0-20.4,0-30.6c0-1.4-0.3-2.9-0.5-5.1
		c-1.6,1.3-2.7,2-3.6,2.9c-6.5,6.5-12.9,13.1-19.5,19.5c-2.4,2.4-3.3,4.9-3.3,8.4c0.2,20.2,0.1,40.4,0,60.6c0,23.6,0,47.1,0,70.7
		c0,10.5,0.1,21.1,0,31.6c0,1.1-0.6,2.2-0.9,3.3c-1-0.5-2.2-0.9-3-1.6c-3.3-3-6.8-5.8-9.6-9.2c-1.5-1.8-2.4-4.6-2.4-7
		c-0.1-10.6,0.3-21.2,0.3-31.8c0-10.4-0.3-20.8-0.3-31.2c0-8.2,0.1-16.5,0.1-24.7c0-15.4-0.1-30.8-0.2-46.2c0-0.4-0.2-0.8-0.5-2
		c-1.7,1.4-3.1,2.3-4.4,3.5c-3.6,3.5-7.4,7-10.7,10.8c-1.2,1.4-2.1,3.6-2.2,5.4c-0.2,14.9-0.1,29.8-0.1,44.7
		c0,39.2-0.1,78.4-0.1,117.7c0,14.8,0,29.6,0,44.3c0,1.1,0,2.3,0,3.4C375.3,388,374.9,388.2,374.5,388.4z M324,197.9
		c-1-5.1-1.4-10.4-3.1-15.3c-6.6-19.2-19.6-31.9-39.2-37.5c-10.8-3.1-21.4-2.4-31.9,1.4c-9.8,3.6-17.7,9.7-24.4,17.7
		c-9.2,11-13.1,23.7-12.7,37.9c0,1.2,0.6,2.6,1.4,3.5c4.5,4.7,9.3,9.1,13.9,13.7c4.8,4.7,9.4,9.6,14.2,14.3
		c7.7,7.8,15.5,15.5,23.2,23.3c2,2.1,3.6,1.8,5.4-0.2c2.4-2.5,5-4.8,7.4-7.2c13.8-13.7,27.4-27.5,41.3-41.1
		C322.6,205.3,324.1,202.2,324,197.9z M196.9,271.1c-0.1,0-0.1,0-0.2,0c0-1,0-2,0-2.9c0-17.5,0.1-35,0.1-52.4c0-2-0.3-4.7-1.5-6
		c-5.2-5.8-10.8-11.2-16.4-16.7c-1.4-1.4-2.6-1-2.7,1.1c-0.1,0.9-0.1,1.7-0.1,2.6c-0.1,23.7-0.1,47.3-0.2,71c0,16.6,0,33.2,0,49.8
		c0,9.8,0,19.6,0,29.3c0,0.9,0.5,1.8,0.7,2.7c0.8-0.3,1.7-0.3,2.2-0.8c5.4-5.3,10.9-10.6,16.1-16.1c1-1,1.8-2.8,1.8-4.3
		C197,309.3,196.9,290.2,196.9,271.1z M359.5,191.4c-1.7,1.4-3,2.4-4.2,3.6c-4.6,4.6-8.9,9.5-13.6,14c-1.8,1.7-2.5,3.3-2.4,5.6
		c0.1,5.9,0.1,11.7,0.1,17.6c0,31.8,0,63.7,0.1,95.5c0,1.7,0.8,3.7,1.9,4.9c5.3,5.6,10.7,11,16.2,16.4c0.5,0.5,1.3,0.6,2,0.9
		c0.3-0.8,0.8-1.5,0.8-2.3c0.1-4.1,0-8.2,0-12.3c0-12.9-0.1-25.8-0.1-38.7c0-30,0.1-59.9,0.2-89.9c0-4.1-0.1-8.2-0.2-12.4
		C360.2,193.5,359.8,192.8,359.5,191.4z M212.6,313.2c0.4,0.1,0.8,0.3,1.2,0.4c0.8-0.7,1.6-1.3,2.3-2c12.4-12.4,24.8-24.9,37.2-37.3
		c3.4-3.4,3.4-3.8,0.2-7c-12.3-12.3-24.7-24.6-37.1-36.9c-0.7-0.7-1.8-1-2.7-1.5c-0.4,0.9-1,1.9-1,2.8c-0.1,7.7,0,15.4,0,23.1
		c0,16.9-0.1,33.9-0.2,50.8C212.6,308.2,212.6,310.7,212.6,313.2z M323.5,271C323.6,271,323.6,271,323.5,271
		c0.1-12.8,0.1-25.6,0-38.4c0-1.2-0.5-2.4-0.7-3.6c-1.2,0.5-2.5,1-3.7,1.6c-0.4,0.2-0.6,0.6-0.9,0.9c-8.7,8.8-17.3,17.6-26,26.4
		c-3.5,3.5-7,7-10.6,10.6c-1.6,1.7-1.8,3.1,0.1,4.9c12.7,12.6,25.3,25.3,37.9,37.9c0.8,0.8,1.9,1.2,2.9,1.7c0.3-1.1,0.9-2.2,0.9-3.2
		C323.6,296.9,323.5,284,323.5,271z M375.8,94.6c0,0,0.1,0,0.1,0c0,17.4,0,34.7,0,52.1c0,1,0.6,1.9,0.9,2.9c0.9-0.5,2-0.8,2.7-1.5
		c4.2-4.2,8.5-8.4,12.5-12.8c1.2-1.4,2.1-3.6,2.1-5.4c0.2-12.9,0.2-25.7,0-38.6c-0.1-11.3-0.3-22.5-0.7-33.8c0-1.3-0.7-2.8-1.5-3.7
		c-4.1-4.3-8.3-8.5-12.5-12.7c-0.7-0.7-1.7-1.2-2.5-1.7c-0.4,1-1.1,2.1-1.1,3.1C375.8,59.9,375.8,77.2,375.8,94.6z M159.8,38.8
		c-0.6-0.4-1.2-0.8-1.8-1.2c-0.3,1-0.4,2.2-1,2.9c-3.5,3.7-7,7.5-10.8,10.7c-2.9,2.5-4.1,5.2-4.1,9c0.1,23.8,0.1,47.6,0.3,71.3
		c0,1.3,0.6,2.9,1.4,3.8c4.4,4.5,9,8.8,13.5,13.1c0.5,0.5,1.3,0.7,1.9,1c0.3-0.7,1-1.4,1-2.2c0.1-6.5,0.2-13,0.2-19.5
		c0-12.1-0.2-24.3-0.2-36.4c0-16.5,0.1-33,0.1-49.5C160.3,40.8,160,39.8,159.8,38.8z M409.8,115.7c0.4,0.2,0.7,0.4,1.1,0.6
		c1.6-1.4,3.3-2.7,4.7-4.2c5-5,9.8-10.1,14.8-15c1.9-1.8,1.9-3,0.1-4.8c-5.8-5.8-11.4-11.8-17.2-17.6c-0.6-0.6-1.7-0.8-2.5-1.2
		c-0.3,0.9-0.8,1.7-0.9,2.6c-0.1,9.6-0.2,19.3-0.2,28.9C409.8,108.7,409.8,112.2,409.8,115.7z M125.4,116.3c0.4-0.2,0.7-0.3,1.1-0.5
		c0-10.9,0-21.9,0-32.8c0-2.6,0-5.2-0.2-7.8c0-0.7-0.5-1.5-1-1.9c-0.3-0.2-1.3,0.1-1.6,0.5c-6.1,6.2-12.1,12.4-18.2,18.5
		c-1.8,1.8-1.5,3.1,0.1,4.7c4.5,4.5,9,9.1,13.5,13.5C121,112.6,123.2,114.4,125.4,116.3z"/>
</g>
</svg>
