<?xml version="1.0" encoding="UTF-8"?>
<svg id="cdr_x5F_layer2" xmlns="http://www.w3.org/2000/svg" version="1.1" viewBox="0 0 580 580">
  <!-- Generator: Adobe Illustrator 29.0.1, SVG Export Plug-In . SVG Version: 2.1.0 Build 192)  -->
  <defs>
    <style>
      .st0 {
        fill-rule: evenodd;
      }
    </style>
  </defs>
  <path class="st0" d="M558,151.7h-76v-3.6c3-4.4,26.9-7,29.4-13.9V55.3c8.5-.2,18.4-.6,21.9,5.2v35.7h-9v22.7l9,8h25.5V49.7h-72.9v84.5c0,3.6-5.2,7.2-8.6,8.7v34.9h80.7v-26.1h0ZM329.4,151.7h29.4v-3.6c-3-4.4-26.9-7-29.4-13.9V55h-19.7v-5.2h72.9v5.2h-21.3c-.9,0-1.3,0-2.1.5-1.6,1-2.9,2.4-3.8,4-.4.7-.4,1-.4,1.8v72.9c0,3.6,5.1,7.2,8.6,8.7v34.9h-34.1v-26.1h0ZM388.1,151.7h29.4v-3.6c-3-4.4-26.9-7-29.4-13.9V49.7h25.5l9,8v22.7h-9v20h21.6v-50.8h25.5l9,8v22.7h-9v53.7c0,3.6,5.1,7.2,8.6,8.7v34.9h-34.1v-26.1h29.4v-3.6c-3-4.4-26.9-7-29.4-13.9v-19.5h-21.6v19.5c0,3.6,5.1,7.2,8.6,8.7v34.9h-34.1v-26.1.2Z"/>
  <path class="st0" d="M174.3,318.9h-25.5l-9-8v-22.7h9v-99.2h125.2v86.3c-2.6,6.9-26.4,9.5-29.4,13.9v3.6h29.4v26.1h-34.1v-34.9c3.4-1.5,8.6-5.1,8.6-8.7v-75.3c-5-7.5-18.7-6.9-26.3-6.6v81.9c-2.5,6.9-26.4,9.5-29.4,13.9v3.6h29.4v26.1h-34.1v-34.9c3.4-1.5,8.6-5.1,8.6-8.7v-74.4c-3.7-6.9-13.6-7.5-22.3-7.5v125.5h-.1ZM506.9,318.9h-25.5v-54.5c6.2,7.3,16.4,11.4,25.5,13.3v23.8c3.4-3.5,12.8-15.8,12.8-15.8l13.6,15.1v-29.5c-3.7-5-16.5-7-26.4-10.3-14.9-4.2-25.5-13.4-25.5-22.1v-50h28.5c7.5,4.2,15.8,9,23.4,13.3v-13.3h25.5v62.3c-5.9-7-25.5-13.3-25.5-13.3v-20.1c-5.8-10.6-15.6-15.4-26.4-15v41.5c7.8,12.1,16.9,13.3,26.4,16.2,16,3.5,25.5,9.2,25.5,20.1v38.3h-25.5l-13.3-17-13.1,17h0ZM292.1,188.9h72.7v86.4c0,3.6,5.1,7.2,8.6,8.7v34.9h-34.1v-26.1h29.4v-3.6c-3-4.4-26.9-7-29.4-13.9v-20.6h-21.7v20.6c0,3.6,5.1,7.2,8.6,8.7v34.9h-34.1v-26.1h29.4v-3.6c-3-4.4-26.9-7-29.4-13.9v-86.4ZM339.3,241.3v-46.4c-8.5-.2-18.3-.5-21.7,5.6v40.8s21.7,0,21.7,0ZM466.6,188.9h-72.8v99.3h-9v22.7l9,8h25.5v-124.1c8.5-.2,18.3-.6,21.8,5.5v75c0,3.6-5.1,7.2-8.6,8.7v34.9h34.1v-26.1h-29.4v-3.6c3-4.4,26.9-7,29.4-13.9v-86.4Z"/>
  <path class="st0" d="M65.4,364H27.2v4.6c6.4,9.5,33.3,6,38.4,18.2v103.7c10.2.4,21.8,1.2,28.8-5.5v-98.3c0-4.6-6.7-9.4-11.1-11.3v-45.3h44.2v33.8h-38.2v4.6c6.4,9.5,33.3,6,38.4,18.2v111.5H32.2v-111.6c0-4.6-6.6-9.4-11.1-11.3v-45.3h44.2v34ZM145.3,330.2h98.2v168.1h-98.2v-168.1ZM209.3,385v58.2c10.3,6.7,23.4,12.1,23.6,16.9,0,4.3-3.2,4.5-5.9,4.7h-65.1c-2.7-.2-5.9-.4-5.9-4.7.3-4.9,13.2-10.5,23.6-17.5v-57c-10.4-7-23.4-12.6-23.6-17.5,0-4.3,3.2-4.5,5.9-4.7h65.1c2.7.2,5.9.4,5.9,4.7-.3,4.8-13.3,10.2-23.6,16.9ZM299.5,330.2h-33.5v168.1h96.6v-32.8h-82.6c-5.5-1.2-5.4-9.4,1.2-12.3,6.6-4.1,13.3-6.4,18.3-10.6v-112.4ZM349.1,330.2h94.1v6.8h-27.3c-1.4,0-2,0-3.2.8-1.7,1.1-3.1,2.6-4.2,4.3-.5.8-.5,1.1-.5,2v98.4c0,4.5,6.5,9.2,10.9,11.1v44.7h-43.4v-33.2h37.4v-4.8c-3.8-5.7-34.4-9-37.7-17.7v-105.6h-26.2v-6.8h0ZM515.2,330.2h32.7v112.3c0,4.5,6.5,9.2,10.9,11.1v44.7h-43.4v-33.2h37.4v-4.8c-3.8-5.7-34.4-9-37.7-17.7v-28h-27.9v28c0,4.5,6.5,9.2,10.9,11.1v44.7h-43.4v-33.2h37.4v-4.8c-3.8-5.7-34.4-9-37.7-17.7v-112.5h60.8ZM515.2,397.7v-60.6c-11-.3-23.5-.6-27.9,7.2v53.4h27.9Z"/>
</svg>