<?xml version="1.0" encoding="UTF-8"?>
<svg id="Layer_1" xmlns="http://www.w3.org/2000/svg" version="1.1" viewBox="0 0 223.4 78.4">
  <!-- Generator: Adobe Illustrator 29.0.1, SVG Export Plug-In . SVG Version: 2.1.0 Build 192)  -->
  <path d="M122.2,76.5v-13.7c-.3,0-.4.3-.5.5-2.7,3.5-5.9,6.5-9.6,9-4.6,3.1-9.6,5-15.1,5.7-6.2.8-12.3.5-18.3-1.4-5.7-1.8-10.6-4.8-14.8-9-4.7-4.6-8.2-10-10.2-16.3-.8-2.4-1.2-4.8-1.5-7.3,0-.1,0-.2-.1-.4-1.1,2.7-2,5.4-3,8.2-1,2.8-2,5.5-3,8.2s-2,5.5-3,8.2c-1,2.8-2,5.5-3,8.2h-13.7C17.6,51.7,8.8,26.8,0,1.9h14.6c6.2,17.6,12.5,35.2,18.7,52.8h.1s0,0,0,0c0,0,0,0,0-.1,6.3-17.5,12.6-35,18.9-52.5,0,0,0,0,0,0h14.5c-1,3-2.1,5.8-3.1,8.8C72.6,2.9,82.6-.8,94.2.1c11.7.9,20.7,6.7,27.9,15.9V2c.5-.1,13.3-.2,14.2,0v60.9c.6.2,18.4.2,20.4,0,7.8-20.3,15.7-40.7,23.5-61.1h14.5c9.6,24.8,19.1,49.7,28.7,74.6h-14.8c-1.9-5.1-3.9-10.2-5.8-15.3h-30.5c-2,5.1-4,10.2-6.1,15.3-14.7,0-29.3,0-44.1,0ZM89.9,64.7c3.6,0,6-.3,8.4-1.1,6.9-2.3,11.7-6.8,14.8-13.3,2.4-5,2.8-10.3,1.9-15.8-1.3-7.7-5.5-13.5-12.2-17.5-5.7-3.4-11.9-3.9-18.2-2.4-7.9,1.8-15.1,8.6-17.3,17.2-1,3.8-1.2,7.6-.7,11.4.4,3.3,1.3,6.5,3.1,9.3,4.9,7.9,12.1,11.8,20.3,12.1ZM187.6,21.7c-.8,1.6-9.8,25.1-9.9,25.5h19.7c-3.3-8.5-6.5-17-9.8-25.5Z"/>
</svg>