<?xml version="1.0" encoding="UTF-8" standalone="no"?>


<svg
   xmlns:dc="http://purl.org/dc/elements/1.1/"
   xmlns:cc="http://creativecommons.org/ns#"
   xmlns:rdf="http://www.w3.org/1999/02/22-rdf-syntax-ns#"
   xmlns:svg="http://www.w3.org/2000/svg"
   xmlns="http://www.w3.org/2000/svg"
   xmlns:sodipodi="http://sodipodi.sourceforge.net/DTD/sodipodi-0.dtd"
   xmlns:inkscape="http://www.inkscape.org/namespaces/inkscape"
   id="svg2"
   version="1.1"
   inkscape:version="0.48.2 r9819"
   width="473"
   height="689"
   sodipodi:docname="While She Sleeps - Emblem.svg"
   inkscape:export-filename="C:\Users\York\Pictures\Yorks Bilder\Musik\While She Sleeps - Emblem.png"
   inkscape:export-xdpi="391.34854"
   inkscape:export-ydpi="391.34854">
  <metadata
     id="metadata8">
    <rdf:RDF>
      <cc:Work
         rdf:about="">
        <dc:format>image/svg+xml</dc:format>
        <dc:type
           rdf:resource="http://purl.org/dc/dcmitype/StillImage" />
        <dc:title></dc:title>
      </cc:Work>
    </rdf:RDF>
  </metadata>
  <defs
     id="defs6" />
  <sodipodi:namedview
     pagecolor="#ffffff"
     bordercolor="#666666"
     borderopacity="1"
     objecttolerance="10"
     gridtolerance="10"
     guidetolerance="10"
     inkscape:pageopacity="0"
     inkscape:pageshadow="2"
     inkscape:window-width="1680"
     inkscape:window-height="988"
     id="namedview4"
     showgrid="false"
     inkscape:zoom="0.96880813"
     inkscape:cx="236.5"
     inkscape:cy="344.5"
     inkscape:window-x="-8"
     inkscape:window-y="-8"
     inkscape:window-maximized="1"
     inkscape:current-layer="svg2" />
  <path
     style="fill:#000000"
     d="m 124.53219,679.40829 c -18.55868,-2.88278 -69.761858,-16.9736 -79.368938,-21.84188 -6.67873,-3.38437 -10.85338,-7.1018 -13.24932,-11.79822 -2.49308,-4.88684 -4.83397,-15.55754 -4.88511,-22.26819 -0.021,-2.75 -0.94584,-10.4 -2.05532,-17 -1.10947,-6.6 -2.27606,-18.3 -2.59241,-26 -0.52325,-12.73577 -0.38051,-14.51222 1.58073,-19.67228 4.34729,-11.43785 17.04305,-17.99593 25.93581,-13.39731 4.04829,2.09345 6.96199,6.87189 17.4206,28.56959 8.87451,18.4113 14.38335,27.14088 20.87703,33.08282 1.55245,1.42055 4.30743,3.93395 6.12217,5.58532 8.849948,8.05328 27.674638,19.02711 42.502398,24.77672 13.54785,5.25332 21.28243,6.87691 33.21236,6.97171 9.59503,0.0762 23,-1.839 23,-3.28614 0,-0.32795 -4.46198,-5.10396 -9.91551,-10.61336 -16.04644,-16.21081 -26.57361,-32.89617 -33.96169,-53.82866 -5.60654,-15.8849 -7.46756,-27.21635 -7.50362,-45.68841 -0.0339,-17.38537 0.84369,-23.91765 5.03226,-37.45582 3.66803,-11.85571 13.61397,-31.10298 21.49666,-41.60008 3.80463,-5.0665 6.79025,-9.29684 6.63471,-9.40076 -0.15555,-0.10391 -4.10781,-2.89127 -8.78281,-6.19413 -4.675,-3.30286 -13.45,-9.38829 -19.5,-13.52317 -6.05,-4.13489 -13.925,-9.62184 -17.5,-12.19323 -3.575,-2.57138 -8.525,-6.10625 -11,-7.85525 C 98.184472,390.75184 73.683342,367.39975 63.182312,352.5 c -10.2753,-14.57946 -17.75103,-31.40993 -21.32056,-48 -1.88258,-8.74963 -1.61426,-34.02392 0.47323,-44.5762 5.69143,-28.77031 18.88571,-52.54002 40.54371,-73.04019 8.28943,-7.84627 23.194748,-18.39736 28.476978,-20.1581 1.28898,-0.42966 1.75948,0.79087 -13.386238,-34.72551 -18.76119,-43.994527 -36.79763,-84.8662 -41.19306,-93.345968 -4.97653,-9.600845 -11.61433,-17.031469 -20.22685,-22.642746 -5.12545,-3.339359 -6.51733,-4.775073 -6.51733,-6.7225826 0,-2.367989 0.20791,-2.451312 4.75,-1.903683 18.27935,2.203898 34.02373,2.8003086 57.75,2.187619 25.475918,-0.65787 26.025298,-0.6302 27.255218,1.3727616 1.06386,1.732537 0.95763,2.34175 -0.69682,3.996202 -5.16883,5.168823 -7.04277,14.746811 -5.19618,26.558397 1.59185,10.182124 28.60806,83.11397 44.63692,120.5 3.655,8.525 7.25185,17.075 7.99298,19 0.74114,1.925 6.37655,15.2 12.52313,29.5 6.14658,14.3 11.41014,26.7875 11.69681,27.75 0.54826,1.84083 2.28794,2.43819 2.28794,0.78562 0,-1.01398 18.62841,-48.26908 24.00356,-60.89037 l 3.13224,-7.35475 -4.24546,-10.64525 C 207.9852,140.24288 198.28502,117.56188 185.49521,89 178.47606,73.325 170.62046,55.775 168.03833,50 c -8.58605,-19.202882 -16.56571,-29.163528 -28.062,-35.028497 -2.50944,-1.28022 -3.85886,-2.745075 -4.20715,-4.567032 l -0.51275,-2.6822896 8.63788,0.665548 c 29.71556,2.2895826 38.35231,2.5387056 55.94228,1.6136246 25.81993,-1.3579056 24.68376,-1.4201266 25.97905,1.422709 0.88838,1.949786 0.79016,2.683487 -0.502,3.75 -3.4621,2.857506 -5.64403,10.000266 -5.61139,18.369403 0.0421,10.809492 1.03139,14.446564 12.04237,44.275365 5.21396,14.124643 9.71413,26.468669 10.00038,27.431169 0.92079,3.09611 1.73001,1.87493 4.65484,-7.024521 C 247.97704,93.426464 252.21021,81.4 255.80688,71.5 264.423,47.783738 266.03219,41.856536 266.03219,33.836742 c 0,-11.045803 -3.41068,-16.483829 -12.16148,-19.390377 -2.66119,-0.883904 -4.83852,-1.774759 -4.83852,-1.979679 0,-0.204919 0.5394,-1.556442 1.19867,-3.0033836 1.08207,-2.374871 1.5928,-2.576172 5.25,-2.069226 16.43033,2.277505 35.25713,2.7762096 58.80338,1.55765 13.61362,-0.70453 24.98672,-1.046293 25.27354,-0.759473 1.26543,1.265429 -1.09704,3.9401026 -5.8654,6.6405216 -10.4512,5.918734 -21.49475,19.747115 -31.03492,38.860939 -6.00506,12.031191 -14.03857,30.852567 -29.31152,68.672696 l -12.46481,30.86642 4.20249,10.13358 c 20.93305,50.4765 32.16033,76.63719 32.88298,76.62064 1.28876,-0.0295 32.73849,-81.05976 47.54007,-122.48705 4.71624,-13.2 12.36559,-34.575 16.99856,-47.5 4.63297,-12.925 8.93495,-26.11741 9.55996,-29.316467 1.40567,-7.194737 0.46952,-14.627123 -2.38342,-18.922681 -2.0315,-3.058754 -7.92395,-6.81482 -12.61576,-8.041756 -1.86047,-0.486524 -1.94649,-0.816649 -0.84359,-3.237262 l 1.22815,-2.6954896 11.54081,0.856828 c 14.72531,1.093255 46.68648,1.101365 63.79082,0.01619 16.95923,-1.075973 17.1992,-0.04259 2.25,9.6892296 -4.74626,3.089778 -8.25374,6.559618 -13,12.860485 C 412.73539,43.550999 410.30421,48.651959 387.81581,103 c -3.29993,7.975 -7.02574,16.975 -8.27957,20 -3.92483,9.4691 -13.63839,33.2863 -15.57087,38.17907 l -1.84808,4.67908 9.78493,6.01306 c 32.85706,20.19138 54.14347,52.81036 60.76599,93.1169 2.23203,13.58481 1.38299,33.28041 -1.99546,46.28924 -7.92483,30.51479 -32.12798,62.11575 -67.64056,88.31517 -3.025,2.2317 -8.875,6.55035 -13,9.597 -4.125,3.04666 -13.35,9.49623 -20.5,14.33238 -7.15,4.83615 -15.25,10.43628 -18,12.44473 -2.75,2.00845 -6.72347,4.91293 -8.82993,6.4544 l -3.82992,2.80268 2.42873,2.63814 c 8.36921,9.09084 20.89152,31.41688 25.5977,45.63815 4.73788,14.31709 6.48848,27.39674 5.87387,43.88673 -1.35312,36.30405 -15.81961,69.32651 -41.78745,95.38764 -5.63067,5.65091 -10.06106,10.42202 -9.84529,10.60247 1.034,0.86479 10.16826,2.57795 16.89229,3.1682 14.55061,1.2773 31.88115,-2.93033 51.5,-12.50353 20.13857,-9.8268 38.83107,-24.70396 46.91236,-37.33704 1.96856,-3.07735 7.15904,-13.32625 11.53441,-22.77534 8.8216,-19.05124 11.61895,-23.65066 15.93482,-26.20011 8.40537,-4.96517 21.25397,1.19396 26.13756,12.52934 2.1195,4.91961 2.2217,6.1632 1.66334,20.24164 -0.32719,8.25 -1.30218,19.05 -2.16665,24 -0.86446,4.95 -1.94999,13.725 -2.41228,19.5 -1.58298,19.77472 -6.13899,27.9673 -18.77729,33.76522 -13.03857,5.98154 -60.72715,18.90465 -80.41706,21.7922 -9.09205,1.33335 -16.41728,1.55425 -38.32486,1.15572 -30.28078,-0.55085 -40.49033,-2.05112 -61.83435,-9.08643 l -10.75,-3.54337 -10.56812,3.46186 c -12.47034,4.08498 -20.33905,5.92944 -33.93188,7.95376 -13.10455,1.9516 -55.2138,1.89545 -68,-0.0907 z M 242.787,607.25 c 8.30799,-13.01432 11.60982,-22.99042 13.21114,-39.91597 1.6008,-16.92009 -1.67666,-35.73037 -8.68297,-49.83403 -2.91913,-5.87618 -9.55018,-16.47867 -10.31402,-16.49125 -0.29208,-0.005 -2.85955,3.92875 -5.7055,8.74125 -9.6215,16.26994 -13.26346,29.76378 -13.26346,49.14247 0,13.86658 1.68293,23.10687 6.29641,34.57105 3.07583,7.64322 11.34566,21.53648 12.81939,21.53648 0.38039,0 2.91795,-3.4875 5.63901,-7.75 z m 13.99424,-231.93947 c 33.92834,-24.37542 49.87981,-36.99074 67.80575,-53.62462 15.23881,-14.14041 22.32977,-22.82689 27.90673,-34.18591 6.74173,-13.7314 8.00529,-19.51647 7.97222,-36.5 -0.0261,-13.41901 -0.23327,-15.02185 -2.77856,-21.5 -2.65154,-6.74857 -9.46261,-18.26536 -12.0935,-20.4488 -0.98592,-0.81824 -2.13439,1.03613 -5.07587,8.19564 -2.0909,5.08924 -7.70748,18.70316 -12.48129,30.25316 -4.77381,11.55 -12.41935,30.45 -16.99008,42 -4.57074,11.55 -9.21001,21.99944 -10.30949,23.22098 -2.62156,2.91258 -8.01599,4.63085 -12.12076,3.86079 C 283.03076,315.5339 280.38706,311.59067 273.14144,293.5 266.99388,278.15093 247.74559,233.46687 240.188,217 l -2.98323,-6.5 -1.93005,4.5 c -4.94705,11.53424 -21.10813,50.86894 -29.94987,72.89544 -10.90186,27.15868 -11.67474,28.27123 -19.63989,28.27123 -7.44285,0 -10.97423,-2.83936 -14.24401,-11.45271 -2.79546,-7.3639 -17.65033,-42.87796 -32.41986,-77.50733 -4.67749,-10.96707 -8.71119,-19.13253 -9.34672,-18.92069 -1.95569,0.6519 -10.05952,13.41351 -12.33391,19.42299 -7.75126,20.48062 -4.76855,45.62846 7.87291,66.37816 10.24098,16.80954 50.72919,52.75118 87.81882,77.95733 1.925,1.30823 7.96508,5.6768 13.4224,9.70792 5.45732,4.03113 10.51939,7.10024 11.24905,6.82024 0.72966,-0.27999 9.31457,-6.24791 19.0776,-13.26205 z M 23.270662,471.7388 7.0318717,455.4776 23.496022,439.03612 c 9.05529,-9.04281 16.81786,-16.11305 17.25017,-15.71165 0.4323,0.4014 7.87141,7.80224 16.53134,16.44631 l 15.74534,15.71649 -16.23397,16.25636 C 47.860212,480.68463 40.319702,488 40.032192,488 c -0.2875,0 -7.83019,-7.31754 -16.76153,-16.2612 z m 394.000008,0 -16.2388,-16.2612 16.50017,-16.47744 16.50016,-16.47743 16.50016,16.47743 16.50017,16.47744 -16.2388,16.2612 C 441.86239,480.68246 434.3197,488 434.0322,488 c -0.2875,0 -7.83019,-7.31754 -16.76153,-16.2612 z"
     id="path2987"
     inkscape:connector-curvature="0" />
</svg>
