<!--
  SVG Music Logos
  Saxon - Wheels Of Steel v1.0.0
  https://github.com/tiagoporto/svg-music-logos
  Copyright (c) 2016 Tiago Porto (http://tiagoporto.com)
-->
<svg xmlns="http://www.w3.org/2000/svg" version="1.1" viewBox="0 0 668 348">
  <g fill="#ff0000">
    <path d="M644.6,223.8c0-7.1-5.7-10-5.7-10v19s5.7-3.4,5.7-9Z"/>
    <path d="M300.1,146.7l-6.4,29.6s18.8,1.3,22.7-.8c-2.5-5.2-11.4-28.9-11.4-28.9h-4.9v.1h0ZM299.9,171.2c.8-5.9,2.8-11.1,3.1-15.6,1.4,3.3,6.5,15.9,6.5,15.9,0,0-6.9.4-9.6-.3h0Z"/>
    <path d="M648.1,200.8v-74.4c0-12.5-4.1-25.3-13-27.4l-81.1.5c-13.1,2.8-21.7,19.4-23,30.4,0,0,13.5-1.7,13.5,17.3v56.3c-1.4,8-6.4,10.4-10.8,10,2-7.6,4.9-22.8,4.4-46.2-.8-39.4-25.4-68.2-43.9-68.2-32.347,0-48.379,48.9-49.5,62.7-2.6,31.9,5.8,49.3,5.8,49.3,0,0-5,5-31.2-36,28.6-45.2,24.2-35.2,29.9-44.4,5.7-9.2,9.4-24.8-2.3-31.6h-83.2c-19.9,0-30.4,20.8-23.3,37.4,4.9-4.5,10.5-4.9,17.2,1.6s11.5,12.8,20.1,24.3c-11.4,17.3-21.1,32.2-21.1,32.2,0,0-9.5-6.2-15.9-6.6-7.6-21.3-13.3-36.2-13.3-36.2,15.1-9.9,1.1-38-6.2-52.6h-52.7s-9.4,20.2-8.7,34.4c.7,14.2,7.4,16.3,7.4,16.3l-9,36.5c-7.1-9.5-19.9-13.3-26.4-18.1,4.5-7.3,9.5-23.2,9.9-25.2s-3.8-3.7-3.8-3.7c0,0,4-1,4.8-3.1,1.4-3.9,2.2-18.7,2-20.7s-3.6-3.2-3.6-3.2c0,0,5.9-1,5.6-2.5-3.192-16.639-11.626-35.712-20.321-50.156-1.842-3.06-3.992-3.887-6.679-2.544-9.2,4.8-13.3,7-15.3,8.1s-1.4,1.3-1.8,3.7c-1.8,12.6-9.9,28.2-26.4,28.2s-17.6-9.9-17.6-19.4c0-1.456-1.053-2.1-2.1-2v-8.9c0-2-2.8-1.9-2.8-7.3s5.3-5.5,4.4-7.8l-18.9-47.4s-17.9,45.4-19,48.2,4.6,4.7,4.6,7.6-2.4,2.5-2.4,5.5,1.2,5-.7,10.2c-2.5,0-1,5.3-8.8,8.4s-51.2-5.1-68.3,16.6c-21.3,27-8,52.8-8,52.8,0,0-28.7,20.3-28.8,64.7s5.2,3.5,5.2,3.5c0,0-4.6,1.4-4.7,3-.3,4.2.6,15.5,1.5,18.1s5.5,2.1,5.5,2.1c0,0-5.1,2.9-4.5,5,3.9,13.7,16.3,38.2,22.6,44.5s4.6-2.1,4.6-2.2c-.6.8-1.6,5.3-.9,6.2,1.6,2,23.9,19.3,35.5,22.2l10.4-29.4s-13.5-9-9.7-27c1.9-9.1,7.8-13.1,14.9-13.1,12.7,0,7.4,15.5,11.5,15.5.4,3.3-.8,9.4-.7,11.2s4.6,1.7,4.6,5.9c0,6.1-7.3,4.6-5.8,8.4s15.1,42.7,15.1,42.7c0,0,16.1-36.9,18.3-41.6s-4.7-3.1-4.7-8.8,3.2-2.2,3.2-5.7.3-6.2.3-11c2.8,0,1.5-6.8,5.6-6.8s8.8-1.1,15.5,1.5,5.1,1.8,7.8,2.7c31.4,10.9,76.8,23.5,100.8-15h183c11.1,0,19.2-15.4,19.2-15.4,0,0,12.9,16.8,30.7,16.8s30.7-18.7,30.7-18.7c3.6,9.1,11.2,17.3,18.4,17.3,28.9-.2,106.7,0,106.7,0,0,0,11.7-12.305,11.7-26.5,0-15.664-12-23-12-23h0ZM588,108.4c11.9,0,19.6,13.2,19.6,18.4v40l-36-38.2c0-10.6,7.9-18.2,16.5-20.1h0s-.1-.1-.1-.1ZM394,107.9c3.7,1.1,13.4,10.2,9.5,16.6-3.9,6.4-8.9,12.4-8.9,12.4-15.7-15.5-10.9-21.6-.7-29,0,0,.1,0,.1,0ZM130.2,65.3c5.8-2.8,6.2-10.2-.9-13.2l10.2-24.7,9.5,24.1c-4.4,3.2-4.6,10.4-2,12.8v11.3h-16.8v-10.4h0v.1ZM44.2,115.7c16.2-39,71.1-8,81.5-31.9h25.2s-.1,21.9,27.3,21.9,30.7-33.4,30.7-33.4l11.6-5.6c7,9,14.2,28.2,16.9,41-8.2,5.6-8.5,4.9-.7,8,.9,5.3.7,12.3-1.6,19.3-8.7,1.6-8.1.8-1.8,8.1,0,0-8.7,26.8-24.4,42.8-7.8-1.5-6.7-2-6,5.3-14.8,12-30.6,20.2-48.7,25.4l-3.2-16.2s33.6-29.2,33.6-58.1-23.7-25.9-32.8-12.5h-24.3c0-10.9-8-23.2-22.4-23.2-27.7,0-33,45.4-2.3,56.2,30.8,10.8,63,8.9,63,8.9,0,0-7.6,10.9-15,17.4-23.9-2.7-55.1-7-73.6-11.7-26.9-10.4-45.8-30.6-32.9-61.4v-.3h-.1,0ZM101.1,197.2v14.9c-2.5,3.5-6.4,6-12.8,3.8-13-4.5-4.7-28.5-4.7-28.5,0,0,34.2,6.7,59.4,8,0,0,2.1,29.7,5.8,30.6,6.9-.5,26-8.3,26-8.3-1.5,5.4-9.8,14.1-21.7,14.1s-16.6-7.1-19-16.7c-.2-.8-3.2,0-3.3-.9-.6-8.5.6-16.7.6-16.7l-30.2-.3h-.1ZM122.8,204.7v8.5h-14v-8.5h14ZM107.6,119.5l-13.1,2c1.9-4.5,6.6-6.2,10.5-6.2,9,0,14.5,7.9,14.5,24.4h2.8c0,9.4.6,16.4.6,16.4,11.5,1.6,34.3,1.7,34.1-.4s-.7-12.9-.7-16.4c1.5-.7,2.9-1.8,5.1-6.9,5.9-4.6,14.8,4,14.8,9.8,0,10.3-5.6,21-5.6,21,0,0-11.8.6-31.3-1.1-19.5-1.7-28.8-5-28.8-5l6.6-7.2s-9.5-30.4-9.5-30.4ZM106.9,146.8c-1.3,1.4-6.5,4.7-6.5,4.7-8.6-4.5-10.2-12.7-10.2-19.5l11.6-2.4,5.1,17.1h0v.1h0ZM131.8,149v-9.3h16.7l.4,9.4h-17.1v-.1h0ZM114.3,312s-6.8-16.5-7.9-19.5c-1.8-4.7,4.8-2.7,4.8-9.2s-4.6-4.1-4.6-7v-8.8h14.6v9c0,2.2-3.4,2.1-3.4,7.4s6.3,6.1,5.1,8.9-8.6,19.2-8.6,19.2ZM207.9,267.9c-38.1.3-68.5-29.7-83.5-9.8h-18.3c0-.4-4.7-15.8-18.6-15.8-24.5,0-27.8,38.6-14.4,50.3l-5.1,16.1c-6.4-2.1-19.7-10.1-23.8-14.8,2.8-10.6,4.3-9.9-5.8-7.9-4.2-5.9-14-22.9-17.7-37,8-9.1,6.9-6.4-2-7.6-.8-2.8-1.6-11.9-1.3-16,7.6-4.4,7.9-3.9-2.2-9.7,0,0-.5-24.7,24.8-55.6,8.1,10.6,19.9,20.1,34.3,24.3-4.4,20.2-3.3,36.2,10,40.3,13.2,4.1,15.5-2.8,15.5-2.8h26.7s2.3,16.4,26.2,17.3c24,.9,32-17.1,30.4-26.6,20.8-10.4,25.3-15.6,25.3-15.6l.4-4.7,3.3,1.2c5.5-4,10.4-11.3,13.5-16.8,8.9,1.7,17.8,6.7,27.9,16.2,0,0-21.3,27.8-12.6,54.7.8,2.4,1,2.6,2.7,2.6h3.7c1.1,0,1.5.4.8,2.1-2.1,4.6-10.3,15.4-40.3,15.6h.1ZM402.5,240.4s-13.4-12.5-10.7-23l11.1-18.8,9.7,15.8c7.2,12.8-10.2,26-10.2,26h.1ZM441.5,241.1c-16.2,0-28.5.8-28.5.8,4.5-5.2,16.2-13.4,8.3-30.9-7.2-11.5-19.2-27.6-19.2-27.6l-19.2,30.2c-5.2,15.4,9.4,28.5,9.4,28.5h-76.2s10.6-12.4,11.4-27.7-8.4-29.5-8.4-29.5h-29.5s-11.3,35.5,8.9,57h-49.8s-8.9-20.8,18.7-51.6c5.9-30.3,8.4-44,8.4-44-8.6-8.4-10.1-20.8,0-40.6h41.8c8.2,15.9,11.1,35.6.8,43.5l17.7,48.9s13.5-1.9,21.6,9.5l29.4-44s-14.8-21.8-24-33c-4.4-5.4-12.3-8.4-16.9-4.7,0-17.6,13.5-20.4,21.4-20.4h17.7c-10.5,4.2-13.1,13.2-10.8,19.6,8.1,10.8,20.5,26.8,20.5,26.8,0,0,11-15.4,17.6-25.1,5.1-12.9-7.2-21.3-7.2-21.3h34.2c7.4,3.5,6.1,14-.6,24.7s-30,43.5-30,43.5c0,0,22.1,30.4,28.9,39.8s20.5,8.6,20.5,8.6c-1.7,6.5-9.5,19-17,19h.1ZM308,240.1c-19.2-23.6-10.8-47.2-10.8-47.2h15s13.9,23.8-4.1,47.2h-.1ZM492.7,243c-21.7,0-40.7-29.9-40.7-67.7s19.1-67.6,40.8-67.6,39,29.9,39,67.7-17.4,67.6-39.1,67.6h0ZM588.9,239.9s-16.3-11-16.3-24.8v-39.7l32.3,33.3c0,10.9-4.4,25.2-16,31.2ZM641.3,242.1h-45.1s17.6-6.7,16.8-38c-35.6-40.2-48.6-50.9-48.6-50.9v66.4c0,8.2,8.2,19.3,13.6,22.6h-31.5c-8.9,0-17.2-7.5-18.2-20.4,0,0,22,4,23-17.5-.3-30.5,0-55.4,0-64.3s-5-13-11.4-15c2-6.5,10.2-17.9,18.6-19.1h17.5c-16.1,6.8-16.8,23.9-12.4,28.8,12.8,14.5,51.8,53.6,51.8,53.6v-55c0-17.2-6.1-23.7-15.8-27.4h30.6c6.8,2.7,8.8,10.9,8.8,22.9v76.8s11.618,2.96,11.618,19.054c0,11.153-9.318,17.446-9.318,17.446h0Z"/>
    <path d="M492.7,123.1c-9.3,0-19,16.4-19,37.6s8.6,38.7,19,38.7,19.9-18.3,19.9-39.4-11.1-36.8-19.9-36.8h0v-.1h0ZM492.7,191.9c-6.9,0-11.7-14.1-11.7-31.4s4.8-30.9,11.7-30.9,13.2,13.6,13.2,30.9-6.3,31.4-13.2,31.4Z"/>
    <path d="M346.5,221.5l4.5-7.2c-6.2-5.8-7.3-6.6-13.2-7-.5,10.3,8.7,14.1,8.7,14.1h0v.1h0Z"/>
    <path d="M317.4,125.5c-1.8-6-8.7-6-8.7-6l5.8,19.8s5.5-4.9,2.8-13.8h.1Z"/>
    <path d="M274.4,126.8c-1,5.4,3.8,10.5,3.8,10.5l3.6-18.8s-6.1,1.1-7.4,8.2h0v.1Z"/>
    <path d="M255.1,219.9c-1.1,7.1,3.8,10.3,3.8,10.3,1.1-2.6,5.1-17.7,4.3-20.5,0,0-7,3.2-8.1,10.3h0v-.1h0Z"/>
  </g>
</svg>
