<!--
  SVG Music Logos
  Saxon - Saxon v1.0.0
  https://github.com/tiagoporto/svg-music-logos
  Copyright (c) 2016 Tiago Porto (http://tiagoporto.com)
-->
<svg xmlns="http://www.w3.org/2000/svg" version="1.1" viewBox="0 0 668 348">
  <path class="saxon__shadow" d="M648.1,200.8h0v-74.4c0-12.5-4.1-25.3-13-27.4l-81.1.5c-13.1,2.8-21.7,19.4-23,30.4,0,0,13.5-1.7,13.5,17.3v56.3c-1.4,8-6.4,10.4-10.8,10,2-7.6,4.9-22.8,4.4-46.2-.8-39.4-25.4-68.2-43.9-68.2-32.347,0-48.379,48.9-49.5,62.7-2.6,31.9,5.8,49.3,5.8,49.3,0,0-5,5-31.2-36,28.6-45.2,24.2-35.2,29.9-44.4,5.7-9.2,9.4-24.8-2.3-31.6h-83.2c-19.9,0-30.4,20.8-23.3,37.4,4.9-4.5,10.5-4.9,17.2,1.6s11.5,12.8,20.1,24.3c-11.4,17.3-21.1,32.2-21.1,32.2,0,0-9.5-6.2-15.9-6.6-7.6-21.3-13.3-36.2-13.3-36.2,15.1-9.9,1.1-38-6.2-52.6h-52.7s-9.4,20.2-8.7,34.4,7.4,16.3,7.4,16.3l-9,36.5c-7.1-9.5-19.9-13.3-26.4-18.1,4.5-7.3,9.5-23.2,9.9-25.2.4-2-3.8-3.7-3.8-3.7,0,0,4-1,4.8-3.1,1.4-3.9,2.2-18.7,2-20.7s-3.6-3.2-3.6-3.2c0,0,5.9-1,5.6-2.5-3.192-16.639-11.626-35.712-20.321-50.156-1.842-3.06-3.992-3.887-6.679-2.544-9.2,4.8-13.3,7-15.3,8.1s-1.4,1.3-1.8,3.7c-1.8,12.6-9.9,28.2-26.4,28.2s-17.6-9.9-17.6-19.4c0-1.456-1.053-2.1-2.1-2v-8.9c0-2-2.8-1.9-2.8-7.3s5.3-5.5,4.4-7.8l-18.9-47.4s-17.9,45.4-19,48.2c-1.1,2.8,4.6,4.7,4.6,7.6s-2.4,2.5-2.4,5.5,1.2,5-.7,10.2c-2.5,0-1,5.3-8.8,8.4-7.8,3.1-51.2-5.1-68.3,16.6-21.3,27-8,52.8-8,52.8,0,0-28.7,20.3-28.8,64.7-.033,14.505.511,19.904,1.258,20.601.229,1.793.485,3.256.742,3.999.9,2.6,5.5,2.1,5.5,2.1,0,0-5.1,2.9-4.5,5,3.9,13.7,16.3,38.2,22.6,44.5,1.652,1.652,2.751,2.288,3.477,2.332-.048.758.005,1.387.223,1.668,1.6,2,23.9,19.3,35.5,22.2l10.4-29.4s-13.5-9-9.7-27c1.9-9.1,7.8-13.1,14.9-13.1,12.7,0,7.4,15.5,11.5,15.5.4,3.3-.8,9.4-.7,11.2.1,1.8,4.6,1.7,4.6,5.9,0,6.1-7.3,4.6-5.8,8.4s15.1,42.7,15.1,42.7c0,0,16.1-36.9,18.3-41.6s-4.7-3.1-4.7-8.8,3.2-2.2,3.2-5.7.3-6.2.3-11c2.8,0,1.5-6.8,5.6-6.8s8.8-1.1,15.5,1.5c6.7,2.6,5.1,1.8,7.8,2.7,31.4,10.9,76.8,23.5,100.8-15h183c11.1,0,19.2-15.4,19.2-15.4,0,0,12.9,16.8,30.7,16.8s30.7-18.7,30.7-18.7c3.6,9.1,11.2,17.3,18.4,17.3,28.9-.2,106.7,0,106.7,0,0,0,11.7-12.305,11.7-26.5,0-15.664-12-23-12-23ZM153.1,231.8c-11.9,0-16.6-7.1-19-16.7-.2-.8-3.2,0-3.3-.9-.6-8.5.6-16.7.6-16.7l-30.2-.3h-.1v14.9c-2.5,3.5-6.4,6-12.8,3.8-13-4.5-4.7-28.5-4.7-28.5,0,0,34.2,6.7,59.4,8,0,0,2.1,29.7,5.8,30.6,6.9-.5,26-8.3,26-8.3-1.5,5.4-9.8,14.1-21.7,14.1ZM170.6,163.2s-11.8.6-31.3-1.1-28.8-5-28.8-5l6.6-7.2s-9.5-30.4-9.5-30.4l-13.1,2c1.9-4.5,6.6-6.2,10.5-6.2,9,0,14.5,7.9,14.5,24.4h2.8c0,9.4.6,16.4.6,16.4,11.5,1.6,34.3,1.7,34.1-.4s-.7-12.9-.7-16.4c1.5-.7,2.9-1.8,5.1-6.9,5.9-4.6,14.8,4,14.8,9.8,0,10.3-5.6,21-5.6,21ZM303,155.6c1.4,3.3,6.5,15.9,6.5,15.9,0,0-6.9.4-9.6-.3.8-5.9,2.8-11.1,3.1-15.6ZM308.1,240.1h-.1c-19.2-23.6-10.8-47.2-10.8-47.2h15s13.9,23.8-4.1,47.2ZM393.9,107.9h.1c3.7,1.1,13.4,10.2,9.5,16.6-3.9,6.4-8.9,12.4-8.9,12.4-15.7-15.5-10.9-21.6-.7-29ZM402.455,240.358c.028.027.045.042.045.042h-.1s.02-.015.055-.042c-.826-.785-13.266-12.805-10.655-22.958l11.1-18.8,9.7,15.8c6.967,12.385-9.096,25.143-10.145,25.958ZM492.7,191.9c-6.9,0-11.7-14.1-11.7-31.4s4.8-30.9,11.7-30.9,13.2,13.6,13.2,30.9-6.3,31.4-13.2,31.4ZM588.9,239.9s-16.3-11-16.3-24.8v-39.7l32.3,33.3c0,10.9-4.4,25.2-16,31.2ZM607.6,166.8l-36-38.2c0-10.6,7.9-18.2,16.5-20.1l-.1-.1c11.9,0,19.6,13.2,19.6,18.4v40Z"/>

  <g class="saxon__letters">
    <g class="S">
      <path d="M130.2,65.3c5.8-2.8,6.2-10.2-.9-13.2l10.2-24.7,9.5,24.1c-4.4,3.2-4.6,10.4-2,12.8v11.3h-16.8v-10.4h0v.1Z"/>
      <path d="M44.2,115.7c16.2-39,71.1-8,81.5-31.9h25.2s-.1,21.9,27.3,21.9,30.7-33.4,30.7-33.4l11.6-5.6c7,9,14.2,28.2,16.9,41-8.2,5.6-8.5,4.9-.7,8,.9,5.3.7,12.3-1.6,19.3-8.7,1.6-8.1.8-1.8,8.1,0,0-8.7,26.8-24.4,42.8-7.8-1.5-6.7-2-6,5.3-14.8,12-30.6,20.2-48.7,25.4l-3.2-16.2s33.6-29.2,33.6-58.1-23.7-25.9-32.8-12.5h-24.3c0-10.9-8-23.2-22.4-23.2-27.7,0-33,45.4-2.3,56.2,30.8,10.8,63,8.9,63,8.9,0,0-7.6,10.9-15,17.4-23.9-2.7-55.1-7-73.6-11.7-26.9-10.4-45.8-30.6-32.9-61.4v-.3h-.1,0Z"/>
      <rect x="108.8" y="204.7" width="14" height="8.5"/>
      <path d="M106.9,146.8c-1.3,1.4-6.5,4.7-6.5,4.7-8.6-4.5-10.2-12.7-10.2-19.5l11.6-2.4,5.1,17.1h0v.1h0Z"/>
      <polygon points="131.8 149 131.8 139.7 148.5 139.7 148.9 149.1 131.8 149.1 131.8 149 131.8 149"/>
      <path d="M114.3,312s-6.8-16.5-7.9-19.5c-1.8-4.7,4.8-2.7,4.8-9.2s-4.6-4.1-4.6-7v-8.8h14.6v9c0,2.2-3.4,2.1-3.4,7.4s6.3,6.1,5.1,8.9-8.6,19.2-8.6,19.2Z"/>
      <path d="M207.9,267.9c-38.1.3-68.5-29.7-83.5-9.8h-18.3c0-.4-4.7-15.8-18.6-15.8-24.5,0-27.8,38.6-14.4,50.3l-5.1,16.1c-6.4-2.1-19.7-10.1-23.8-14.8,2.8-10.6,4.3-9.9-5.8-7.9-4.2-5.9-14-22.9-17.7-37,8-9.1,6.9-6.4-2-7.6-.8-2.8-1.6-11.9-1.3-16,7.6-4.4,7.9-3.9-2.2-9.7,0,0-.5-24.7,24.8-55.6,8.1,10.6,19.9,20.1,34.3,24.3-4.4,20.2-3.3,36.2,10,40.3,13.2,4.1,15.5-2.8,15.5-2.8h26.7s2.3,16.4,26.2,17.3c24,.9,32-17.1,30.4-26.6,20.8-10.4,25.3-15.6,25.3-15.6l.4-4.7,3.3,1.2c5.5-4,10.4-11.3,13.5-16.8,8.9,1.7,17.8,6.7,27.9,16.2,0,0-21.3,27.8-12.6,54.7.8,2.4,1,2.6,2.7,2.6h3.7c1.1,0,1.5.4.8,2.1-2.1,4.6-10.3,15.4-40.3,15.6h.1Z"/>
    </g>
    <path class="AX" d="M458.4,222.1s-13.7.8-20.5-8.6c-6.8-9.4-28.9-39.8-28.9-39.8,0,0,23.3-32.8,30-43.5,6.7-10.7,8-21.2.6-24.7h-34.2s12.3,8.4,7.2,21.3c-6.6,9.7-17.6,25.1-17.6,25.1,0,0-12.4-16-20.5-26.8-2.3-6.4.3-15.4,10.8-19.6h-17.7c-7.9,0-21.4,2.8-21.4,20.4,4.6-3.7,12.5-.7,16.9,4.7,9.2,11.2,24,33,24,33l-29.4,44c-8.1-11.4-21.6-9.5-21.6-9.5l-17.7-48.9c10.3-7.9,7.4-27.6-.8-43.5h-41.8c-10.1,19.8-8.6,32.2,0,40.6,0,0-2.5,13.7-8.4,44-27.6,30.8-18.7,51.6-18.7,51.6h49.8c-20.2-21.5-8.9-57-8.9-57h29.5s9.2,14.2,8.4,29.5-11.4,27.7-11.4,27.7h76.2s-14.6-13.1-9.4-28.5l19.2-30.2s12,16.1,19.2,27.6c7.9,17.5-3.8,25.7-8.3,30.9,0,0,12.3-.8,28.5-.8h-.1c7.5,0,15.3-12.5,17-19ZM258.9,230.2s-4.9-3.2-3.8-10.299h0s0,0,0,0c0,0,0,0,0,0v.099c1.1-7.1,8.1-10.3,8.1-10.3.8,2.8-3.2,17.9-4.3,20.5ZM278.2,137.3s-4.8-5.1-3.8-10.5v-.1c1.3-7.1,7.4-8.2,7.4-8.2l-3.6,18.8ZM293.7,176.3l6.4-29.6v-.1h4.9s8.9,23.7,11.4,28.9c-3.9,2.1-22.7.8-22.7.8ZM314.5,139.3l-5.8-19.8s6.9,0,8.7,6h-.1c2.7,8.9-2.8,13.8-2.8,13.8ZM346.5,221.5v-.1s-9.2-3.8-8.7-14.1c5.9.4,7,1.2,13.2,7l-4.5,7.2Z"/>
    <path class="O" d="M492.8,107.7c-21.7,0-40.8,29.8-40.8,67.6s19,67.7,40.7,67.7,39.1-29.8,39.1-67.6-17.3-67.7-39-67.7ZM492.7,199.4c-10.4,0-19-17.5-19-38.7s9.7-37.6,19-37.6h0v.1c8.8,0,19.9,15.7,19.9,36.8s-9.5,39.4-19.9,39.4Z"/>
    <path class="N" d="M639,205.6v-76.8c0-12-2-20.2-8.8-22.9h-30.6c9.7,3.7,15.8,10.2,15.8,27.4v55s-39-39.1-51.8-53.6c-4.4-4.9-3.7-22,12.4-28.8h-17.5c-8.4,1.2-16.6,12.6-18.6,19.1,6.4,2,11.4,6.1,11.4,15s-.3,33.8,0,64.3c-1,21.5-23,17.5-23,17.5,1,12.9,9.3,20.4,18.2,20.4h31.5c-5.4-3.3-13.6-14.4-13.6-22.6v-66.4s13,10.7,48.6,50.9c.8,31.3-16.8,38-16.8,38h45.1s9.318-6.293,9.318-17.446c0-16.094-11.618-19.054-11.618-19.054ZM638.9,232.8v-19s5.7,2.9,5.7,10c0,5.6-5.7,9-5.7,9Z"/>
  </g>
</svg>
