<!--
  SVG Music Logos
  Rigs - Dead Metaphors v1.0.0
  https://github.com/tiagoporto/svg-music-logos
  Copyright (c) 2016-2018 Tiago Porto (http://tiagoporto.com)
-->
<svg xmlns="http://www.w3.org/2000/svg" viewBox="0 0 200 180">
  <path d="M81.788 100.162c.066-1.652.415-3.24.882-4.808.352-1.183.675-2.376 1.078-3.54.423-1.223.8-2.488 1.434-3.6.49-.86 1.34-1.52 2.046-2.256.062-.065.302-.072.357-.012.365.394.61.11.822-.146.904-1.088 1.795-2.187 2.685-3.286.197-.244.392-.62.736-.37.356.26.14.613-.044.94-.115.204-.5.467-.222.785.19.217.523.02.794-.328.38-.49.898-.99 1.378-1.453.148-.144.42-.314.633-.233.213.08.12.5.036.68-.723 1.546-1.174 3.266-2.223 4.61-.152.196-.352.324-.128.472.223.146.282-.26.345-.336.778-.96 1.504-1.966 2.33-2.88 1.713-1.898 3.466-3.758 5.225-5.612 1.34-1.413 2.722-2.786 4.065-4.195.126-.133.344-.435.163-.604-.182-.17-.526-.012-.684.113-1.943 1.538-3.864 3.103-5.796 4.654-.303.244-.51.465-.26.887.188.317 0 .528-.332.59-.754.14-1.416.43-1.962 1-.12.125-.547.27-.705.13-.157-.138 0-.52.095-.686.93-1.598 2.26-2.84 3.77-3.844.948-.63 1.052-1.73 1.828-2.392.18-.152.192-.333.104-.4-.088-.066-.352.044-.498.157-.146.114-.607.55-.962.86-.23.2-.48.46-.737.157-.086-.103.042-.506.187-.67 2.083-2.386 4.186-4.753 6.283-7.126.306-.345.22-.673-.052-1.002-.69-.833-.6-1.557.27-2.174 2.258-1.604 4.444-3.325 6.797-4.776 2.45-1.51 5.01-2.866 7.614-4.09 1.92-.905 3.95-1.658 6.008-2.17 2.16-.538 4.41-.717 6.622-1.035.39-.056.586.195.714.56.155.44.31.914.604 1.255.22.256.648.384 1.003.436.092.013.31-.466.378-.742.338-1.387.645-2.78.965-4.173.017-.077.04-.16.088-.218.158-.184.328-.356.493-.533.14.18.29.352.414.542.084.13.11.3.2.424.058.083.19.174.274.16.077-.01.16-.15.192-.248.346-1.048.966-1.236 1.89-.58.647.457 1.063 1.03 1.06 1.86 0 .177.107.354.165.53.19-.07.403-.108.57-.217.618-.407.97-.398 1.186.292.342 1.093.557 2.235.725 3.37.12.812.078.83.836.524.185-.074.503-.053.643.065.13.11.13.404.14.62.015.24-.096.51-.024.727.58 1.748 1.215 3.482 1.407 5.33.05.48 0 .97-.033 1.456-.19 2.864-.387 5.728-.58 8.592-.01.137-.013.276-.028.412-.25 2.343-.51 4.686-.747 7.03-.232 2.306-.41 4.617-.666 6.92-.23 2.068-.54 4.126-.796 6.19-.13 1.054-.21 2.114-.34 3.168-.212 1.734-.428 3.468-.68 5.197-.256 1.767-.558 3.528-.837 5.292-.132.834-.245 1.67-.384 2.504-.218 1.295-.426 2.592-.682 3.88-.202 1.018-.467 2.023-.707 3.033-.157.668-.283 1.345-.488 1.998-.75 2.39-1.503 4.78-2.306 7.154-.633 1.872-1.322 3.726-2.026 5.573-.418 1.097-.888 2.177-1.377 3.245-.873 1.906-1.713 3.83-2.687 5.685-1.216 2.314-2.56 4.56-4.564 6.317-.162.142-.26.39-.32.61-.448 1.656-1.425 2.997-2.534 4.256-.2.227-.298.39-.193.718.065.203-.04.558-.198.72-4.594 4.72-9.174 9.457-13.83 14.118-1.633 1.636-3.396 3.164-5.4 4.358-.53.316-1.155.47-1.707.755-.623.322-1.227.687-1.815 1.07-1.74 1.13-3.462 2.292-5.208 3.416-.657.423-1.405.252-2.115.154-.314-.043-.412-.295-.203-.575.198-.267.444-.503.62-.783.09-.145.072-.356.102-.537-.175-.028-.354-.093-.525-.078-.348.032-.69.12-1.04.163-.608.076-.704.218-.536.802.088.3.184.603.22.91.056.484-.298.98-.704.986-.497.008-.58-.36-.63-.76-.06-.447-.268-.584-.74-.403-.43.165-.907.26-1.367.275-.98.032-1.962-.008-2.942-.018-.02 0-.044.002-.058-.008-1.05-.818-2.288-.29-3.43-.46-1.325-.2-2.444-.704-3.25-1.784-.393-.527-.867-.816-1.502-1.022-2.448-.795-4.616-2.13-6.597-3.75-1.107-.908-2.088-1.97-3.188-2.888-1.173-.978-2.45-1.83-3.628-2.804-3.78-3.12-7.185-6.588-9.554-10.93-.782-1.434-1.34-2.99-2.023-4.477-.153-.334-.42-.614-.607-.935-.124-.215-.253-.453-.28-.693-.106-.937-.058-.944.798-1.327.363-.163.68-.452.982-.724.43-.388.572-.386.837.098.835 1.527 1.644 3.07 2.513 4.576.898 1.56 1.78 3.138 2.813 4.607.584.832 1.42 1.505 2.206 2.172 2.292 1.94 4.667 3.787 6.913 5.78 1.416 1.257 3.133 1.81 4.815 2.473.36.142.82.034 1.232.034.176 0 .373-.08.523-.025 1.263.473 2.54.112 3.79.008 1.06-.088 2.11-.414 3.134-.732 1.358-.42 2.737-.832 4.016-1.44 1.763-.84 3.477-1.798 5.147-2.812 3.22-1.954 6.072-4.392 8.838-6.933 3.47-3.188 6.69-6.615 9.45-10.433 2.312-3.197 4.557-6.45 6.652-9.792 1.592-2.538 2.972-5.218 4.315-7.9 1.157-2.314 2.194-4.694 3.16-7.094.765-1.906 1.394-3.87 1.988-5.84.635-2.102 1.178-4.232 1.718-6.36.247-.97.403-1.962.568-2.95.03-.184-.088-.395-.137-.593-.144.128-.317.234-.428.387-.3.412-.556.857-.862 1.264-2.424 3.23-5.017 6.318-7.867 9.18-2.28 2.286-4.7 4.42-7.46 6.13-3.46 2.14-7.153 3.44-11.287 2.955-2.15-.254-4.062-1.162-5.813-2.42-3.074-2.208-5.182-5.235-7.09-8.42-1.594-2.665-2.907-5.476-4.066-8.354-.192-.472-.133-1.04-.19-1.564zm39.627-11.622c-.095.117-.095.43.185.33s.436-.448.59-.65c1.553-2.003 3.16-3.97 4.62-6.042 2.22-3.155 4.196-6.456 5.13-10.26.13-.52.236-1.116.1-1.607-.113-.402-.192-.718-.033-1.103.08-.196.11-.42.13-.634.148-1.76.257-3.522.443-5.277.116-1.09-.096-1-1.035-.956-.153.007-.306.064-.452.117-1.07.39-2.15.755-3.2 1.188-2.01.827-4.022 1.65-5.996 2.557-2.12.972-4.013 2.32-5.804 3.8-2.758 2.277-5.533 4.538-8.212 6.907-2.428 2.148-4.72 4.45-7.104 6.654-3.182 2.94-5.63 6.386-7.25 10.41-.262.653-.472 1.33-.672 2.005-.04.13-.232.493.06.58.292.085.41-.19.52-.295.274-.252.503-.55.762-.818.614-.635 1.23-1.268 1.856-1.89.138-.138.29-.57.467-.535.178.033.157.578.17.775.01.146-.05.32-.133.444-.873 1.282-1.406 2.715-1.842 4.183-.458 1.54-.898 3.086-1.282 4.646-.228.924.152 1.37 1.09 1.167 1.255-.27 2.52-.614 3.694-1.13 2.116-.928 3.977-2.295 5.768-3.748 5.11-4.147 9.58-8.913 13.676-14.048.203-.254.565-.422.887-.525.21-.067.566-.022.697.12.117.126.037.46 0 .694-.027.17-.13.328-.19.495-.256.713-.158.916.575 1.196.534.206.923.012 1.196-.523.667-1.31 1.338-2.62 2.045-3.91.472-.86.657-.88 1.566-.562.48.17.578.405.31.83-.588.93-1.174 1.862-1.74 2.804-.533.882-1.496 2.493-1.59 2.61zM95.78 173.577c1.517-.976 3.058-1.917 4.537-2.947 3.572-2.49 6.85-5.33 9.875-8.46 1.638-1.696 3.324-3.352 4.603-5.354.136-.213.443-.727.27-.727s-.456.262-.63.444c-1.304 1.363-2.55 2.785-3.902 4.098-1.493 1.45-3.062 2.825-4.63 4.194-1.836 1.6-3.668 3.208-5.573 4.723-1.625 1.29-3.353 2.453-5.028 3.683-.105.077-.294.234-.216.366.14.233.583.05.695-.023zm4.537-92.418c.43.122.51-.51.565-.583.713-1.226 1.01-1.26 1.566-2.004.067-.09.3-.28.154-.405-.232-.2-.397.06-.5.153-.16.144-.44.292-.57.456-.45.56-.755.893-1.16 1.484-.09.13-.46.783-.055.9zm-10.434 8.428c.34.01.18-.694.254-.886.073-.192.313-.232.4-.415.134-.283-.006-.463.144-.738.094-.173.274-.286.357-.462.054-.114.092-.554-.254-.554-.157 0-.22.38-.216.63.004.207-.306.316-.4.5-.105.21-.132.612-.252.846-.13.254-.385.36-.485.7-.056.19.094.368.453.378zm37.05 4.317c-.07.154-.06.437.156.52.214.085.237-.168.264-.224.237-.488.473-.98.666-1.486.044-.116.056-.395-.12-.444-.178-.05-.467 0-.507.288-.04.29-.39 1.193-.46 1.347zm2.884-11.11c-.176 0-.233.342-.28.457-.202.48-.278.825-.505 1.295-.094.196-.336.25-.18.456.184.24.374-.195.43-.228.206-.12.464-.552.534-.98.056-.345.253-.576.253-.655 0-.183-.077-.344-.253-.344zm-22.196-18.44l-.593.527c.112.072.25.227.332.202.234-.075.447-.222.668-.34-.108-.106-.218-.21-.407-.39zm-1.493 1.798l.4-.35c-.128-.074-.26-.21-.385-.204-.14.008-.27.147-.405.23.115.097.232.193.39.323z"/>
  <path d="M170.88 114.85c1.367.218 2.333-.54 3.392-.964 1.434-.573 2.854-1.186 4.265-1.814.243-.108.61-.185.617-.573.008-.39-.37-.455-.76-.77-.065-.054-.36.004-.468.043-1.546.57-3.154.37-4.737.387-.342.004-.71-.16-1.017-.314-.264-.106-.553-.13-.714-.093-.354.084-.438.466-.754.415-.263-.042-.43-.36-.738-.43-.21-.048-.45.105-.654.337-.234.267-.542-.135-.753-.228-.396-.176-.67-.18-1.052.137-.47.39-1.054.68-1.634.888-.88.313-1.796.528-2.702.764-.91.237-3.025.705-3.755.902-.73.197-1.384-.075-2.053-.646-.31-.265-.688-.452-1.04-.664-.305-.183-.424-.368-.05-.6.33-.205.354-.444.18-.796-.282-.568-.062-.994.546-1.188.394-.125.985.242 1.084.687.038.172-.11.79.25.96.103.048.575-.027.71-.05 2.516-.428 5.035-.83 7.543-1.298 1.23-.23 2.447-.54 3.648-.892 1.46-.43 2.91-.905 4.338-1.433.673-.25 1.29-.66 1.92-1.012.103-.057.323-.2.323-.306 0-.107-.283-.14-.387-.153-.396-.055-.488-.27-.484-.653.013-1.144.71-1.88 1.47-2.58 1.32-1.217 2.977-1.877 4.525-2.72.347-.19.6-.55.896-.83-.32-.23-.617-.513-.967-.683-2.217-1.074-4.59-1.705-6.963-2.294-1.88-.467-3.802-.758-5.708-1.112-1.33-.247-2.663-.49-4-.7-1.338-.208-2.68-.502-4.027-.528-2.02-.04-3.643-.864-5.08-2.158-1.735-1.563-2.934-3.522-3.958-5.594-1.2-2.43-2.17-4.95-2.887-7.567-.45-1.643-.865-3.295-1.304-4.94-.066-.247-.215-.474-.255-.722-.076-.458-.205-.944-.125-1.385.5-2.766 2.005-4.907 4.245-6.552.742-.545 1.55-1.006 2.27-1.576.467-.368.892-.38 1.254 0 .557.587 1.09.518 1.77.23 2.473-1.056 4.737-2.452 6.863-4.08 1.2-.92 2.275-2.035 3.563-2.797 1.59-.94 3.315-1.675 5.033-2.37 1.48-.598 3.017-1.07 4.557-1.502 2.752-.77 5.584-.83 8.416-.75.418.013.894.205 1.23.46 1.682 1.28 3.022 2.88 3.937 4.777.256.532.26 1.302.104 1.89-.29 1.097.084 1.86.845 2.554.144.132.277.282.388.443.233.337.18.583-.2.814-1.59.963-3.137 2-4.758 2.907-.6.336-1.352.443-2.05.55-2.248.35-4.332 1.17-6.415 2.04-3.814 1.587-7.358 3.674-10.912 5.748-1 .583-1.986 1.19-2.974 1.79-.11.067-.304.152-.29.264s.216.236.348.278c1.045.333 2.086.686 3.147.958 1.767.452 3.546.856 5.323 1.263.973.222 1.966.368 2.93.627 1.074.29 2.132.65 3.186 1.013 2.34.805 4.595 1.804 6.718 3.074 2.89 1.73 5.564 3.73 7.196 6.773.67 1.246 1.118 2.62 1.586 3.963.488 1.4.91 2.825 1.3 4.255.433 1.58.798 3.18 1.186 4.774.148.605.206 1.243.43 1.818.374.96.164 1.886.015 2.832-.544 3.45-2.76 5.652-5.534 7.44-.213.137-.446.245-.66.385-.494.324-.95.464-1.495.027-.177-.142-.626-.116-.858.007-1.174.628-2.422 1.006-3.73 1.174-.26.033-.594.116-.836-.195-.306-.395-.744-.79-1.19-.97-.664-.268-1.398-.527-2.093-.504-.67.022-1.35.362-1.988.646-.436.194-1.008.125-1.275-.217-.612-.78-1.385-1.347-1.847-1.36-.294-.008-.445.154-.73.257-.4.143-.964.237-1.68.372-.937.175-2.18.397-3.372.612-.358.064-.764.028-.755-.487.01-.5.387-.516.767-.492.158.01.315.002.354.002z"/>
  <path d="M14.272 121.02c-.68.19-1.205-.205-1.716-.817-2.427-2.91-4.963-5.73-7.31-8.702-1.14-1.444-2.015-3.116-2.88-4.754-.318-.6-.42-1.418-.34-2.105.15-1.313.46-2.614.778-3.902.372-1.513.803-3.012 1.243-4.506.397-1.348.846-2.68 1.26-4.023.368-1.194.712-2.394 1.077-3.588.4-1.307.818-2.61 1.215-3.916.402-1.327.796-2.656 1.184-3.988.436-1.498.91-2.987 1.276-4.502.408-1.688.714-3.4 1.063-5.103.413-2.01.85-4.017 1.23-6.034.256-1.364.422-2.744.648-4.113.236-1.428.474-2.857.76-4.275.058-.292.294-.582.52-.798.422-.406.893-.763 1.353-1.13 1.164-.932 1.988-.888 3.038.15 1.89 1.868 3.655 3.845 5.11 6.077.306.47.566.99.745 1.52.154.455.38.448.693.252.465-.29.91-.613 1.37-.914 2.64-1.73 5.335-3.37 8.24-4.623 1.85-.796 3.713-1.57 5.61-2.24 1.305-.458 2.674-.734 4.022-1.06 1.064-.26 2.134-.498 3.212-.69.674-.118 1.045-.222 2.05-.19 1.005.03 2.387-.235 3.583-.263.3-.007.683.277.895.536.21.255.15.57-.33.544-.472-.026-1.298-.075-1.605-.03-.308.047-.548.326-.394.665.155.34.5.28.688.24.708-.146 1.808-.562 2.32-.562.512 0 .522.273.306.806-.667 1.646-1.865 2.167-3.52 2.292-.68.05-.79.32-.58.99.112.355.23.71.308 1.073.074.348-.08.595-.454.6-.326.004-.64-.075-.687-.49-.008-.076.02-.16.003-.233-.068-.28.008-.866-.328-.94-.336-.076-.443.325-.615.537-.258.317-.507.632-.692 1-.208.41-.347.546-.71.317-.162-.103-.572-.413-.78-.303-.21.11-.018.415.368.907.553.705.815 1.028.815 1.293s-.8.534-1.124.69c-.795.385-2.176 1.133-2.796 1.386-.328.133-.223.464.07.667.766.532.778.904-.04 1.325-1.598.823-3.588 2.02-4.996 2.25-.372.062-.154.372-.038.592.2.38.417.754.622 1.132.193.356.48.286.763.16 1.576-.93 2.61-1.224 4.067-1.847.42-.18 1.625-.485 1.874-.348.447.246-1.624 1.603-2.324 2.11s-3.798 2.67-5.87 4.29c-.47.368-.67 1.11-.927 1.71-.854 1.995-1.885 3.837-3.78 5.06-.803.52-1.685.708-2.6.856-.336.054-.704.154-.972.35-2.108 1.53-3.714 3.5-4.818 5.85-.647 1.38-1.25 2.788-1.732 4.23-.464 1.387-.75 2.834-1.107 4.255-.17.683-.325 1.37-.494 2.055-.727 2.942-1.48 5.877-2.175 8.826-.416 1.77-.733 3.562-1.11 5.34-.195.918-.447 1.825-.63 2.745-.242 1.223-.433 2.458-.67 3.683-.048.25-.147.53-.316.71-.55.58-1.645.918-2.912.917zm29.933-60.64c-.215 0-.45.16-.262.6s-.3.99.21 1.127c.51.138.777-.294 1.62-.192.18.022.677-.195.605-.595-.073-.405-.405-.523-.89-.57-.483-.05-.868-.37-1.283-.37z"/>
  <path d="M79.31 67.435c.14.792-.49 7.546-1.163 10.645-.493 2.276-.995 4.553-1.582 6.806-.395 1.514-.92 2.997-1.43 4.478-.985 2.85-6.012 15.168-7.217 17.62-1.636 3.326-3.34 6.62-5.065 9.9-1.085 2.066-2.25 4.09-3.395 6.122-.283.502-1.135.74-1.642.508-.342-.155-.424-.89-.102-1.33.98-1.342 1.332-2.51 1.822-3.973.486-1.45.636-3.12.962-4.43.055-.22.253-.432.434-.592.323-.285.36-.55.14-.927-.316-.536-.615-1.09-.846-1.666-.238-.597-.41-.704-.902-.252-.693.637-1.38 1.296-1.973 2.023-.642.788-1.17 1.67-1.764 2.5-.115.16-.2.377-.47.377s-.502-.145-.502-.483c0-.375.747-.89 1.03-1.3.283-.41.784-1.738.96-2.986.078-.546-.28-.782-.894-.47-.8.408-1.594.863-2.302 1.412-.85.66-1.613 1.437-2.406 2.17-.38.352-1.254.545-1.703.333-.43-.204-.33-.502-.13-.83.71-1.17 1.403-2.097 2.047-3.304.57-1.066.865-2.47.83-3.685-.004-.176-.048-.757-.294-.757-.554 0-.257 1.305-.934 2.134s-3.773 3.916-5.814 5.734c-.107.096-.496.072-.576-.033-.754-.987-1.175-1.338-.56-2.745.757-1.737 1.37-3.536 2.082-5.293.494-1.216 1.056-2.404 1.582-3.606.698-1.596 1.386-3.197 2.088-4.792.67-1.523 1.377-3.03 2.023-4.564.615-1.46 1.2-2.933 1.75-4.42.714-1.927 1.398-3.867 2.063-5.813.47-1.372.89-2.762 1.32-4.146.372-1.197.755-2.39 1.088-3.597.385-1.396.727-2.804 1.076-4.21.222-.894.43-1.792.632-2.69.637-2.815 1.214-5.64 1.33-8.535.016-.43.078-.862.144-1.29.18-1.15.313-2.295-.347-3.356-.232-.375-.066-.626.225-.852.79-.615 1.628-.942 2.675-.704 1.782.406 3.434 1.132 4.964 2.078 2.164 1.34 4.258 2.793 6.355 4.236 1.05.723 2.06 1.51 3.045 2.322.25.205.425.597.48.928.227 1.414.036 1.89.25 3.306.155 1.476.48 1.207.616 2z"/>
  <path d="M62.615 18.545c-.04-1.517.176-2.982.503-4.477.724-3.3 2.26-6.104 4.567-8.516.717-.75 1.495-1.442 2.263-2.14.148-.136.372-.248.568-.26 2.04-.114 3.965.302 5.78 1.252 2.052 1.072 3.58 2.684 4.935 4.526.487.66 1.233 1.128 1.864 1.68 1.486 1.305 2.835 2.72 3.572 4.6.326.832.388 1.61-.282 2.392-1.714 1.998-3.22 4.155-4.31 6.56-.666 1.467-1.217 2.992-1.743 4.518-.335.975-.59 1.988-.772 3.003-.144.805-.12 1.64-.168 2.462-.024.425.073.93-.604.914-.642-.017-.605-.467-.595-.925.023-1.1.04-2.204.016-3.305-.006-.245-.15-.525-.312-.72-.54-.65-1.118-1.263-1.676-1.896-.393-.447-.777-.38-.993.196-.46 1.226-.932 2.45-1.36 3.687-.168.487-.485.407-.846.367-.374-.042-.518-.252-.508-.596.045-1.523-.248-1.658-.344-2.49-.032-.28-.007-.584.066-.857.202-.752.45-1.493.665-2.243.12-.415.282-.86-.254-1.128-.542-.273-1.01-.065-1.372.392-.295.373-.222.537-.277.82-.07.36-.228.54-.622.56-.526.028-.745-.123-.71-.697.052-.882.033-1.77.01-2.655-.003-.184.028-.465-.23-.546-.26-.08-.363.218-.478.375-.622.855-1.198 1.747-1.848 2.58-.184.236-.668.514-.83.427-.316-.167-.674-.48-.766-.93-.092-.45 0-1.535.018-2.32.004-.182.15-.355.205-.54.062-.208.41-.517.14-.64-.27-.12-.433.14-.62.256-.247.155-.467.357-.698.54-.313.25-.614.228-.896-.044-.7-.675-1.03-1.514-1.055-2.473-.018-.57-.005-1.142-.005-1.712z"/>
  <path d="M162.955 118.62c-.22 0-.567-.465-.84-.47-.51-.008-1.04.285-1.574.364-.21.03-.43-.018-.645-.01-.367.013-.77.132-.923-.375-.143-.477.053-1.06.53-1.244.887-.343 1.796-.635 2.71-.903 1.748-.512 3.53-.73 5.342-.422.266.046.676.17.724.34.066.237-.064.665-.26.81-.49.366-1.04.702-1.616.9-.806.274-1.55.622-2.49.612-.435-.004-.6.4-.957.4z"/>
  <path d="M127.052 79.94c-.19.31-.56.397-.8.112-.136-.163-.16-.568-.05-.757.19-.33.51-.59.806-.847.093-.08.185-.16.418-.058s-.15 1.188-.374 1.55z"/>
</svg>
