<!--
  SVG Music Logos
  David Guetta - One Love v1.0.0
  https://github.com/tiagoporto/svg-music-logos
  Copyright (c) 2016 Tiago Porto (http://tiagoporto.com)
-->
<svg xmlns="http://www.w3.org/2000/svg" viewBox="0 0 200 95">
  <path d="M92.227 10.34v34.92h7.18V2.32h-3.97"/>
  <path d="M85.033 2.32l-1.568 4.423-9.85 25.82c-3.468-10.09-8.37-20.148-11.797-30.243h-7.983l17.398 42.94h4.623L92.624 2.32h-7.59z"/>
  <path d="M134.943 11.974c-2.092-3.487-4.758-5.998-7.997-7.552-3.228-1.544-8.177-2.32-14.836-2.32h-10.333v42.94h10.482c5.936 0 10.11-.35 12.51-1.046 2.41-.707 4.64-1.973 6.71-3.796 2.06-1.833 3.676-4.135 4.855-6.905 1.168-2.78 1.753-5.818 1.753-9.126 0-4.654-1.053-8.72-3.145-12.196zm-6.085 20.407c-1.304 2.194-2.97 3.75-5.01 4.678-2.04.93-5.323 1.393-9.85 1.393h-4.588V9.116h3.356c6.156 0 10.623 1.23 13.4 3.672 3.09 2.722 4.634 6.557 4.634 11.493 0 3.208-.65 5.908-1.942 8.1z"/>
  <path d="M46.694 2.32l-8.386 21.476c-.055-4.498-1.105-8.438-3.14-11.822-2.093-3.487-4.76-5.998-7.997-7.552-3.228-1.544-8.177-2.32-14.835-2.32H2v42.94h10.482c5.937 0 10.11-.35 12.51-1.046 2.412-.707 4.642-1.973 6.713-3.796.104-.092.206-.186.307-.28l-2.086 5.34h7.59l1.57-4.424 9.85-25.82L60.73 45.26h7.983L51.317 2.32h-4.623zM29.08 32.38c-1.303 2.194-2.968 3.75-5.008 4.678-2.04.93-5.324 1.393-9.85 1.393H9.634V9.116h3.356c6.157 0 10.623 1.23 13.4 3.672 3.09 2.722 4.634 6.557 4.634 11.493 0 3.208-.65 5.908-1.943 8.1z"/>
  <path d="M70.195 49.266h7.352V76.67c0 2.4.243 4.08.628 5.08 2.2 5.72 11.19 5.87 13.444-.248.377-1.024.597-2.97.597-5.848V49.266h7.05v25.22c0 4.315-.25 7.314-.727 8.988-.488 1.674-1.414 3.288-2.79 4.842-1.374 1.564-2.958 2.71-4.742 3.467-1.793.747-3.876 1.116-6.247 1.116-3.118 0-5.828-.708-8.13-2.143-2.31-1.425-3.955-3.218-4.95-5.37-.69-1.502-1.14-3.727-1.35-6.672-.433 1.29-1.003 2.562-1.734 3.823-1.942 3.368-4.463 5.938-7.552 7.712-3.098 1.773-6.725 2.65-10.89 2.65-12.218 0-22.442-9.157-22.442-22.766 0-12.477 10.576-21.67 21.985-21.67 9.84 0 14.65 4.615 19.854 12.41l-8.428.055c-5.888-7.266-15.398-7.19-21.757-.92-2.85 2.8-4.274 6.208-4.274 10.213 0 8.537 6.196 15.84 15.384 15.84 5.44 0 10.8-4.152 13.14-9.104H44.175l2.46-6.917h23.558V49.266z"/>
  <path d="M180.773 49.283h-4.623L161.728 84.88V55.954h8.57l2.79-6.742h-70.98v42.942h23.443v-6.827h-16.197V73.763h14.23l2.387-6.677h-16.746l.046-11.128 23.336-.002v36.26h7.18v-36.26l14.762-.002v36.263h4.208l-.003.007h7.983c3.426-10.095 8.33-20.152 11.797-30.243l9.85 25.82 1.568 4.424h7.592l-16.77-42.94z"/>
  <path d="M191.84 49.21h-8.477l2.79 6.743 3.022.002v.003h3.013v-.003l3.022-.002L198 49.21h-6.16"/>
</svg>
