<!--
  SVG Music Logos
  Blink-182 - The Mark, Tom and Travis Show v1.0.0
  https://github.com/tiagoporto/svg-music-logos
  Copyright (c) 2016 Tiago Porto (http://tiagoporto.com)
-->
<svg xmlns="http://www.w3.org/2000/svg" viewBox="0 0 200 55">
  <path d="M28.31 5.163c-4.502 4.723-9.003 11.22-13.536 19.462L3.87 45.292l-.824 1.997c-.16.696.095 1.362.73 2.028l1.49.35 1.584-.033c.222.317.444.793.666 1.395.095.666.444 1.014 1.014 1.014 3.075 1.014 6.466.92 10.08-.35 3.043-1.013 5.8-2.884 8.336-5.483 6.91-8.462 9.446-15.15 7.608-20.095-.888-1.49-2.314-2.124-4.28-1.997-.474-.032-2.06.317-4.722 1.078l-4.85 1.775c1.68-3.96 3.582-7.384 5.737-10.332l3.803-5.04c.792-.76 1.553-1.014 2.25-.792.92.19 1.68-.285 2.314-1.395.476-1.108.476-2.218.095-3.264-.507-1.236-1.49-1.933-3.01-2.06-1.428-.096-2.6.253-3.583 1.077zM24.536 39.27c-3.138 4.247-6.308 6.942-9.604 8.083-1.648.38-2.6.127-2.885-.792-.095-4.437 4.026-9.508 12.235-15.245 2.473-1.395 3.804-1.87 4.057-1.427.254 2.567-1.045 5.673-3.803 9.382z"/>
  <path d="M59.88 10.456c-.38-.666-1.014-1.14-1.87-1.426-1.014-.285-1.997-.222-2.884.158-2.568 1.205-4.66 2.98-6.308 5.325-1.965 2.63-4.533 6.815-7.67 12.616-2.886 5.42-5.485 9.54-7.735 12.33-.253.57-.285 1.267-.16 2.028.19.92.255 1.553.223 1.997-.38.983-.38 1.933 0 2.884.285 1.077.887 1.806 1.807 2.186 1.87.634 3.804.76 5.832.444 2.092-.412 3.74-1.33 5.04-2.694.983 1.33 2.63 2.124 4.882 2.282 2.41-.35 4.31-1.33 5.642-2.948-.033 1.268.348 2.06 1.11 2.41 2.44.696 4.34.03 5.736-1.934l2.694-6.213c1.205-2.346 2.63-4.057 4.28-5.103l-2.98 6.276c-1.078 2.63-1.11 4.69-.032 6.276.73.888 1.807 1.205 3.202 1.014l3.296-.792-.222.95c.38.57 1.14.857 2.22.857.57 0 1.394-.158 2.472-.506.507-.285 1.11-1.236 1.87-2.726l1.395-3.867c.983 2.505 2.03 3.995 3.17 4.44 1.46 1.013 3.678 1.3 6.658.855 2.282-.793 4.31-2.124 6.086-3.962 1.87-1.934 3.043-4.026 3.614-6.213l-3.423-.92c-.792.318-1.52 1.11-2.25 2.41l-2.22 3.233c-.887.95-2.028 1.395-3.454 1.3-1.045-.095-1.71-.793-1.964-2.092-.285-2.598.95-4.85 3.804-6.72l3.867-2.123c1.522-.73 2.694-1.395 3.55-2.03.158-.348.222-.792.158-1.362-.127-.444-.412-.856-.824-1.14-1.87-.16-3.898.443-6.085 1.806l-5.547 3.55c1.3-3.423 4.628-8.747 9.92-15.88.635-1.172.54-2.123-.284-2.884-1.33-.76-2.377-.92-3.138-.444-2.6 2.22-4.913 5.072-6.942 8.59L78.36 38.604c-1.173 2.25-2.473 3.74-3.93 4.47l-.888-.095c-.222-.223-.285-.508-.158-.794l5.484-10.936c.57-1.395.38-2.22-.54-2.504-1.552-.412-3.17-.158-4.785.697l-4.152 2.662-.126-.095-.158-.507c-.095-1.268-.793-1.902-2.06-1.902-1.11 0-1.965.223-2.504.698-1.046.888-1.997 2.06-2.853 3.55L59.406 38c-1.807 3.328-4.09 5.325-6.783 5.99-.57-.22-.824-.633-.793-1.203.35-.856 1.618-2.948 3.805-6.213 1.648-2.41 2.377-4.248 2.155-5.452-.285-.76-.824-1.236-1.616-1.395-.634-.16-1.236-.063-1.87.222-1.775 1.362-3.71 3.803-5.705 7.29-2.252 3.898-4.058 6.56-5.453 7.955-.444.54-1.078.856-1.807.92-.76.094-1.33-.19-1.712-.825-.158-3.93 1.84-7.86 6.086-11.823l5.325-4.945c2.09-2.03 3.517-3.867 4.373-5.484 1.965-3.36 3.138-5.452 3.487-6.308 1.138-2.533 1.424-4.625.98-6.274zm-5.325 5.452c-.666 1.68-1.807 3.582-3.423 5.77l-4.248 5.546c2.726-5.04 5.293-8.81 7.67-11.316z"/>
  <path d="M62.606 21.55l-1.712.508c-1.014.317-1.87.887-2.536 1.743-.856.92-1.204 1.808-1.078 2.632.127.602.54.983 1.3 1.14.792.065 1.553-.03 2.25-.284 2.916-1.68 4.12-3.392 3.582-5.04-.38-.634-.982-.856-1.806-.697z"/>
  <path d="M110.565 34.166c-3.423.35-5.642 1.268-6.657 2.79-.38.6-.507 1.14-.35 1.552.254.666.603 1.078 1.047 1.205 2.82 1.458 6.213 1.426 10.175-.095.792-.222 1.426-.666 1.902-1.395.54-.76.697-1.458.475-2.092-.95-1.742-3.17-2.376-6.592-1.964z"/>
  <path d="M134.718 7.16l-9.16 3.645c-.413.158-.635.602-.698 1.395-.127.634-.095 1.268.063 1.933.35.634.983.92 1.87.824l2.25-.285-10.3 26.69c-.508 1.52-1.46 2.63-2.854 3.296-2.25 1.046-3.424 1.648-3.583 1.838-1.173 1.458-1.363 2.79-.602 3.93 1.14 1.364 3.423 1.903 6.815 1.617 2.346-.285 4.628-.792 6.847-1.585 1.553-.73 2.282-2.03 2.282-3.9-.286-.95-1.08-1.68-2.347-2.218l11.062-27.26c1.173-2.6 1.807-5.04 1.87-7.26-.095-.886-.475-1.615-1.14-2.186l-2.377-.474z"/>
  <path d="M155.1 5.607c-3.582 1.014-6.783 2.948-9.636 5.8-3.043 2.95-4.723 6.087-5.072 9.48-.317 2.66 1.014 4.88 4.025 6.687-3.233 1.236-5.96 3.17-8.178 5.706-4.28 5.77-5.516 10.745-3.773 14.93.856 1.52 2.187 2.472 4.057 2.884 3.392.253 6.878-.095 10.428-1.078 3.55-.983 6.75-2.6 9.54-4.818 2.283-1.997 4.026-4.28 5.23-6.752 1.3-2.948 1.554-5.674.825-8.273-.54-1.807-2.536-3.106-5.96-3.9 1.998-1.013 3.868-2.376 5.58-4.025 1.87-1.84 3.01-3.804 3.487-5.833.507-2.884.064-5.262-1.363-7.132-2.756-3.137-5.83-4.373-9.19-3.676zm-5.643 11c.887-1.015 2.187-2.093 3.93-3.203.824-.634 1.743-.95 2.758-.95 1.268.062 2.155.475 2.758 1.235 1.046 2.503-1.33 5.166-7.1 7.987-2.187.57-3.455.38-3.772-.57-.126-1.585.35-3.075 1.427-4.5zM139.44 43.39c-.633-1.49-.316-3.01.952-4.596.507-.856 1.775-2.092 3.772-3.772 6.244-4.564 10.11-4.723 11.538-.38.222 2.03-1.14 3.994-4.12 5.864l-8.052 3.55c-2.25.73-3.614.507-4.09-.666z"/>
  <path d="M195.292 20.25c.507-1.204.92-2.376 1.236-3.518.634-2.187.634-4.438-.032-6.72-.697-2.504-1.965-4.5-3.804-6.022-2.314-1.712-4.66-2.156-6.974-1.3-4.564 1.807-8.495 4.882-11.76 9.16-1.268 1.65-2.41 3.424-3.392 5.326-1.268 2.44-2.346 5.103-3.17 7.956-.476 1.33-.095 2.22 1.11 2.6 1.426.38 2.408.126 3.01-.762 2.22-3.487 4.374-6.435 6.466-8.875 3.9-4.564 7.512-7.29 10.904-8.178.317-.19.697.032 1.14.697.572.475.73.92.508 1.268-.792 2.472-1.87 4.913-3.265 7.354-1.364 2.377-3.012 4.818-4.946 7.26-3.075 3.612-7.164 7.638-12.204 12.107l-6.562 4.596c-2.314 1.837-3.2 3.74-2.694 5.673.666 1.426 2.377 1.87 5.072 1.3l3.74-.857c.792-.222 2.06-.475 3.772-.666l7.386.792c2.948 0 4.913-1.046 5.896-3.17.634-1.87.412-3.075-.602-3.74-1.553-.697-3.423-.888-5.547-.602l-6.18.602c5.262-3.582 9.668-7.354 13.25-11.285 3.458-3.8 5.994-7.478 7.642-10.996z"/>
</svg>
