<!--
  SVG Music Logos
  Foo Fighters - Echoes, Silence, Patience & Grace v1.0.0
  https://github.com/tiagoporto/svg-music-logos
  Copyright (c) 2016 Tiago Porto (http://tiagoporto.com)
-->
<svg xmlns="http://www.w3.org/2000/svg" viewBox="0 0 200 58.857">
  <path d="M18.026 9.665h8.714V2.753H2v25.042h16.026v-9.116h8.748v-6.811h-8.748z"/>
  <path d="M41.848 2.769V27.78c6.433-.543 11.486-5.933 11.486-12.506S48.281 3.311 41.848 2.769"/>
  <path d="M28.226 15.274c0 6.572 5.053 11.963 11.486 12.506V2.769c-6.433.542-11.486 5.932-11.486 12.505"/>
  <path d="M68.358 2.769V27.78c6.433-.543 11.486-5.933 11.486-12.506S74.791 3.311 68.358 2.769"/>
  <path d="M54.736 15.274c0 6.572 5.053 11.963 11.486 12.506V2.769c-6.433.542-11.486 5.932-11.486 12.505"/>
  <path d="M18.064 37.941h8.715V31.03H2.038v25.041h16.026v-9.116h8.748v-6.81h-8.748z"/>
  <path d="M136.391 37.866h8.715v-6.811h-24.742v25.016h24.742v-6.987h-8.715V46.88h8.748v-6.81h-8.748z"/>
  <path d="M28.247 31.03h11.352v25.04H28.247z"/>
  <path d="M54.624 44.118h11.494v11.986H53.562l-.015.001-.016-.001h-.535v-.013c-6.677-.289-12.003-5.792-12.003-12.541 0-6.933 5.621-12.554 12.555-12.554 6.18 0 11.315 4.469 12.357 10.35.038.21.067.421.095.635H54.624v-3.147h-2.136v9.232h2.136v-3.948z"/>
  <path d="M81.167 31.03h11.352v25.041H81.167v-9.115h-2.27v9.115H67.545V31.03h11.352v9.115h2.27z"/>
  <path d="M93.979 31.064h25.141v6.811h-4.557v18.162H98.537V37.875h-4.558z"/>
  <path d="M197.674 40.713h-11.301v-2.137h10.601c-1.926-4.459-6.362-7.58-11.528-7.58-6.934 0-12.554 5.621-12.554 12.554 0 1.097.141 2.159.406 3.174h11.222v2.137h-10.45c2.001 4.278 6.341 7.244 11.376 7.244 6.933 0 12.554-5.621 12.554-12.554 0-.977-.116-1.925-.326-2.838"/>
  <path d="M172.35 37.741c0-3.553-2.753-6.451-6.24-6.711h-19.57v25.04l11.251.033V37.967h2.138v18.136h13.238l-6.528-11.706c3.232-.499 5.711-3.284 5.711-6.656"/>
</svg>
