<!--
  SVG Music Logos
  Metallica - S&M² v1.0.0
  https://github.com/tiagoporto/svg-music-logos
  Copyright (c) 2016-2019 Tiago Porto (http://tiagoporto.com)
-->
<svg xmlns="http://www.w3.org/2000/svg" viewBox="0 0 167 200">
  <path d="M135.756 1L100.883 47.426 116.147 36.615 108.727 54.634 104.911 54.634 84.136 105.83 76.61 107.738 75.762 110.494 80.32 109.434 42.692 199 104.593 111.766 86.044 127.241 93.676 105.194 88.959 106.572 89.966 103.604 97.809 101.378 113.391 56.33 118.797 63.643 125.368 53.044 123.778 90.354 142.54 66.187 139.148 44.564 142.54 43.928 139.466 19.655 124.52 44.246 121.87 40.43z"/>
  <path d="M149.516,30.921v-3.564l2.881-2.473c4.357-3.897,6.171-5.255,6.232-7.587c0-1.626-0.982-2.915-3.283-2.915 c-1.482,0-3.656,0.432-4.91,1.292v-3.916c1.457-0.827,3.811-1.353,5.989-1.353c4.511,0,7.561,2.732,7.561,6.352 c0,3.345-3.117,6.155-6.001,8.732l-1.841,1.534v0.061h7.518v3.836H149.516z"/>
  <path d="M82.281,72.229l-1.026-0.903c-0.935,0.876-3.055,1.398-5.163,1.398c-5.329,0-7.926-2.323-7.926-4.664 c0-2.216,0.733-3.489,3.171-4.734c-1.228-1.206-2.358-2.252-2.358-3.791c0-2.813,2.056-4.371,7.605-4.371 c4.408,0,6.811,1.552,6.811,3.922c0,1.563-1.111,2.718-3.816,3.975l2.012,1.578c0.391-0.359,0.612-0.809,0.744-1.498h6.201 c-0.583,2.305-1.774,3.779-2.801,4.815l4.675,4.274H82.281z M77.723,68.311l-2.808-2.495c-0.461,0.247-1.113,0.874-1.113,1.581 c0,1.016,1.192,1.581,1.996,1.581C76.275,68.979,77.301,68.735,77.723,68.311z M74.524,59.235c0,0.728,1.09,1.476,1.839,1.953 c1.377-0.728,1.661-1.179,1.661-2.014c0-0.685-0.528-1.122-1.652-1.122C75.276,58.052,74.524,58.486,74.524,59.235z"/>
  <path d="M37.605,80.493c1.837,0.495,1.589,1.742,0.671,4.993c-0.568,2.009-17.242,58.694-18.232,62.217	c-1.13,4.023-1.837,8.687-0.141,12.362c2.675,5.797,7.897,9.204,10.6,7.243c-3.16-2.076-4.755-5.28-4.642-8.282	c0.179-4.793,3.765-9.706,10.791-8.715c5.512,0.777,8.055,4.878,8.055,9.047c0,6.996-5.57,15.388-15.475,14.309	c-10.706-1.166-18.02-13.179-14.964-24.882c2.598-9.95,17.932-58.749,18.992-61.716C34.922,82.409,35.669,79.972,37.605,80.493z"/>
  <path d="M50.641,42.02c1.783,0.799,7.208-4.285,7.208-11.099c0-10.749-6.438-19.11-15.157-19.11	c-10.812,0-18.761,12.403-18.761,24.274c0,10.068,5.124,24.395,11.074,34.946c8.243,14.615,18.392,27.682,18.392,42.394	c0,14.075-11.35,22.4-23.107,22.4c-8.904,0-20.987-6.36-20.987-18.443s8.9-16.641,15.26-16.641c6.996,0,13.343,7.102,13.343,14.466	c0,8.641-6.203,11.503-6.485,13.373c-0.254,1.679,1.273,2.002,3.321,1.31c3.604-1.219,11.306-8.374,11.306-16.677	c0-9.561-7.066-20.422-19.362-20.422c-12.917,0-23.672,11.872-23.672,22.612c0,17.834,15.924,28.259,30.88,28.314	c12.752,0.047,22.931-8.539,27.041-14.373c3.264-4.632,5.707-11.75,5.707-17.918c0-5.519-1.286-11.585-4.687-17.892	c-8.219-15.243-30.18-42.189-30.18-59.041c0-10.929,4.668-14.002,10.282-13.779c5.335,0.212,10.055,5.924,10.055,11.442	c0,5.977-2.017,7.213-2.209,8.344C49.835,40.901,49.873,41.676,50.641,42.02z"/>
</svg>