<?xml version="1.0" encoding="utf-8"?>
<!-- Generator: Adobe Illustrator 16.0.0, SVG Export Plug-In . SVG Version: 6.00 Build 0)  -->
<!DOCTYPE svg PUBLIC "-//W3C//DTD SVG 1.1//EN" "http://www.w3.org/Graphics/SVG/1.1/DTD/svg11.dtd">
<svg version="1.1" id="Layer_1" xmlns="http://www.w3.org/2000/svg" xmlns:xlink="http://www.w3.org/1999/xlink" x="0px" y="0px"
	 width="944.667px" height="192.667px" viewBox="0 0 944.667 192.667" enable-background="new 0 0 944.667 192.667"
	 xml:space="preserve">
<metadata><?xpacket begin="﻿" id="W5M0MpCehiHzreSzNTczkc9d"?>
<x:xmpmeta xmlns:x="adobe:ns:meta/" x:xmptk="Adobe XMP Core 5.3-c011 66.145661, 2012/02/06-14:56:27        ">
   <rdf:RDF xmlns:rdf="http://www.w3.org/1999/02/22-rdf-syntax-ns#">
      <rdf:Description rdf:about=""
            xmlns:xmpRights="http://ns.adobe.com/xap/1.0/rights/">
         <xmpRights:Marked>True</xmpRights:Marked>
      </rdf:Description>
      <rdf:Description rdf:about=""
            xmlns:dc="http://purl.org/dc/elements/1.1/">
         <dc:title>
            <rdf:Alt>
               <rdf:li xml:lang="x-default">Moonspell logo</rdf:li>
            </rdf:Alt>
         </dc:title>
         <dc:creator>
            <rdf:Seq>
               <rdf:li>Adriano Esteves</rdf:li>
            </rdf:Seq>
         </dc:creator>
         <dc:description>
            <rdf:Alt>
               <rdf:li xml:lang="x-default">Moonspell logo, firstly used on album Night Eternal. &#xA;Made by Adriano Esteves (http://burocratik.com/)&#xA;Font type used - PF Monumenta Pro Regular&#xA;Vectorised by Dominik Matus for www.moonspell.cz</rdf:li>
            </rdf:Alt>
         </dc:description>
         <dc:subject>
            <rdf:Bag>
               <rdf:li>moonspell</rdf:li>
               <rdf:li>logo</rdf:li>
               <rdf:li>burocratik</rdf:li>
            </rdf:Bag>
         </dc:subject>
         <dc:format>image/svg+xml</dc:format>
      </rdf:Description>
      <rdf:Description rdf:about=""
            xmlns:xmp="http://ns.adobe.com/xap/1.0/"
            xmlns:xmpGImg="http://ns.adobe.com/xap/1.0/g/img/">
         <xmp:CreatorTool>Adobe Illustrator CS6 (Windows)</xmp:CreatorTool>
         <xmp:CreateDate>2013-09-01T00:54:22+02:00</xmp:CreateDate>
         <xmp:Thumbnails>
            <rdf:Alt>
               <rdf:li rdf:parseType="Resource">
                  <xmpGImg:width>256</xmpGImg:width>
                  <xmpGImg:height>44</xmpGImg:height>
                  <xmpGImg:format>JPEG</xmpGImg:format>
                  <xmpGImg:image>/9j/4AAQSkZJRgABAgEAtAC0AAD/7QAsUGhvdG9zaG9wIDMuMAA4QklNA+0AAAAAABAAtAAAAAEA&#xA;AQC0AAAAAQAB/+4ADkFkb2JlAGTAAAAAAf/bAIQABgQEBAUEBgUFBgkGBQYJCwgGBggLDAoKCwoK&#xA;DBAMDAwMDAwQDA4PEA8ODBMTFBQTExwbGxscHx8fHx8fHx8fHwEHBwcNDA0YEBAYGhURFRofHx8f&#xA;Hx8fHx8fHx8fHx8fHx8fHx8fHx8fHx8fHx8fHx8fHx8fHx8fHx8fHx8fHx8f/8AAEQgALAEAAwER&#xA;AAIRAQMRAf/EAaIAAAAHAQEBAQEAAAAAAAAAAAQFAwIGAQAHCAkKCwEAAgIDAQEBAQEAAAAAAAAA&#xA;AQACAwQFBgcICQoLEAACAQMDAgQCBgcDBAIGAnMBAgMRBAAFIRIxQVEGE2EicYEUMpGhBxWxQiPB&#xA;UtHhMxZi8CRygvElQzRTkqKyY3PCNUQnk6OzNhdUZHTD0uIIJoMJChgZhJRFRqS0VtNVKBry4/PE&#xA;1OT0ZXWFlaW1xdXl9WZ2hpamtsbW5vY3R1dnd4eXp7fH1+f3OEhYaHiImKi4yNjo+Ck5SVlpeYmZ&#xA;qbnJ2en5KjpKWmp6ipqqusra6voRAAICAQIDBQUEBQYECAMDbQEAAhEDBCESMUEFURNhIgZxgZEy&#xA;obHwFMHR4SNCFVJicvEzJDRDghaSUyWiY7LCB3PSNeJEgxdUkwgJChgZJjZFGidkdFU38qOzwygp&#xA;0+PzhJSktMTU5PRldYWVpbXF1eX1RlZmdoaWprbG1ub2R1dnd4eXp7fH1+f3OEhYaHiImKi4yNjo&#xA;+DlJWWl5iZmpucnZ6fkqOkpaanqKmqq6ytrq+v/aAAwDAQACEQMRAD8A9U4q7FXYq7FXYq7FXYqo&#xA;XmoWFknqXlzFbRno8zrGNqd2I8cVas9R0++j9SyuYrqMdXhdZB1I6qT4HFUj86+arnRLNI9Oggut&#xA;Vum9O3W7uY7S1i2/vbmVzyCD+WNWduwpVgq8z1L8jvNXnxPrfnD8xLm7gl3/AEZoaLb6fGCPsJV5&#xA;PVpt8brypirzrzV/zht5j0eA6n5G8wNeX9uOSWc4+qTsR/vq4R+HI9g3Ef5WKoD8rP8AnJ3zf5Q1&#xA;n/C/5lrcXVjBJ9Xmu7lG/SFmwoP3tfimQdW5VfuCdlxV9e2N9ZX9lBfWM6XNncostvcRMHR0cVVl&#xA;YbEEYqr4q7FXYqsmnggT1JpFiTpychRU+5xV0M0MyCSGRZIz0dCGG3uMVX4q7FXYq7FXYqtkkjij&#xA;aSRgkaAs7sQFVQKkknoBiro5I5Y1kjYPG4DI6kFWUioII6g4quxV2KuxV2KuxV2KsQ/ML8tND85a&#xA;VdQymSx1d4ilpq9rI8E8bqCY+bRlfURWY/A9RuaUO+Kvkj8hvzB8weTPzkj0jzLd3DRXsr6Hqcdz&#xA;K0npTCTjG3xk04TjiT4E4q+5sVdir4n/AOcofzTv9a/MsaDpGoyWmmeXa2jTQSMga6kI+suxQgn0&#xA;6COnYq3jir678reSvLvlm0ig0y2pLHEIXvZmaa5kGxPOaQs55MKkVp7Yq+f/AMw/z882ecvPEP5c&#xA;flVKsDXExtp9fU1dygJlaBqH04YlVi0gqzU+Gn7Sr0LS/wDnH/8AKzy/pU+rebUPmLUIYmn1XXta&#xA;lkmJWNSzvwdmREUV8T4k4q+aY9Bh/M38zLi2/KHR18s2ljbyzLeCe4iLrHsssh5OITK/FERB3qe5&#xA;Cqz8ovMfkjRvNlx5a/NHy1bXn1m5a2udXvQ7XNpcBuDCYsxUxhloWFCu5qRir2P80P8AnG2TQbSf&#xA;zX+Ud3eaNq1opmn0m1uJaTRqOTfV25GTn39MsVboKdCqs/5x6/5yavfMWpW/lHzq6HVbiiaXq6qs&#xA;Ynem0M6rRRI37DKAG6Ur1VSr/nLrykdc8/8AknT9Lhhj1jW0nsxO4CeowkjEKyOATRS5p4VxVIf+&#xA;cdvzn1HyFr0n5e+djJaaUbhoYGuahtPui1DG9fswyN17K3xdCxxV9jggio3B6HFXnX5wfl/5d1Xy&#xA;b5i1Vbf6lrkFhPdQaraM1vP61tCzx+o8RUyL8AUh67fRirwH8vdT0/yv+QeqfmJrCPr2v3V61hpM&#xA;OoSyT28bfCqVhdih4nnI21SABtirLf8AnH78vLL8xtIuPzA/MaaTzPqF1cywWFteu0lvBHEQGYQg&#xA;hAWeoC04gDYb4qnf5s/kdpOg6XJ51/LxpPLGr6OVur+KwlkgguLSJuUwKhgqFEq+woQCCN6hVM/+&#xA;cjvIWkf8q41vzHpKSaXrlhS9FzYyvbiUtKon9ZI2RH5qxbkRy5b+NVXl/wDziz5S0bz9pXmYeb/r&#xA;WrC0ltFtfUvLtPTDrKW4+nKm54jfFW/zn8i+ffyee281eRPM2pr5ceZYprKa4eYW0rVMYdHrHLC1&#xA;OI5rsaA1qMVSjzP5m07zt+Rtx51sEbQfN2gX0NtrCabLLbW863LUEghRuHxl+XiGVu2Ksi/5xs/L&#xA;XSvP/ka+1nzFqeryXtvqctnGYNQniX0kt4JBVQTvylbfFU6/OX/nG+G18mahqvlbXNVE9jEZrrTb&#xA;28e4t57dBWUfFRlZV+LckGlKd8Ves+f/AMsPK+ueW79FthZarHZNHZatbM0FzG0MVIeUsXFnVeCj&#xA;i1RTbFXyn/zjHpl351/Mo2Ovale3em6fYzag9o13OqSskkUKK/FgSoaflSorTfbYqvtzTtN0/TbV&#xA;bTT7aO1tkJKwwqEWrGrNQdSx3J6k4qoa15f0PXLQWmsWMN9bg8kSdA/FqU5ITurUPVd8VfDP5x6T&#xA;q/lz85L7ypo2s38OmzXFr9SV7ud/SW8SNuBJapCPIQOp4074q+2fLHkfy15agiTS7QCeOL0DfTM0&#xA;906VBYPPIWkPJlDEVpXtiqe4q4kAVOwHU4q/Ozzx5b1TUtDn/NJWaS013X9RilIFBGWZZoW26cy0&#xA;o9uI8cVfbf5K+fF88flxpGuO4e/Ef1XVAOou4PgkJ8Oe0g9mGKq35v8An2PyN+X+qa8KNeqn1fTI&#xA;jvzu5vgiFO4U/Gw/lU4q+Jvzr/LefyPc+WYLsu+panpCXusSyEsxv5LiZpwW6HgrInvSvfFX1R+c&#xA;X5gXGl/847jXLSUre67p9nb20wO9b+JTIwIJ39EuQQeuKvJP+cItDt7jzL5l1t1DTadaW9rCTuV+&#xA;uSO7Ee9LWn04qz3/AJzL833OleQdP0C2k9N9fumFwQaFra0Cu6beMjx1+7viqG/5wo0K3t/Imta3&#xA;xH1rUNR+rFu/o2sKMg/4Od8VeXf85jeVbfSvzLttYtkCR69ZrNPQUBuIGMTnw3jEZPvXFX0h/wA4&#xA;4eZ7jzF+T2gXN05ku7ON7CZzUk/VXMcZJPUmIJX3xV8f/n15dHlD85Nbg00G1i+sR6jYNHVPT+sK&#xA;s/7unThKzBadKYq9x/MDXm8w+f8A8htdagk1MQ3cqjYB5mtndfoYkYqnv/OTf5EL5t05/Nvl23H+&#xA;J7CP/S7aMfFe26DpQdZox9nuw+H+XFUg/wCcWPz4N7FB5A80XP8ApsKiPQL2U7yoo2tXY/toP7vx&#xA;Hw9QKqvfPzD/AOUA8zf9sq+/6hnxV81eS/Imo+dP+cSbjTdLQzanaalPf2duvWV4H+KMf5TRs3Ed&#xA;2pirBfyH/P3UfyzvJtF1e3ku/LNzMXubZdri1m2V5Ig1K7LR4zTpsQa1VfbHlvzR5a826JHqmh3k&#xA;OpaZcqVLoeQFR8UciHdWAPxIwrirF/z+/wDJNebP+YFv+JLirx//AJwc/wCOV5u/4z2X/EJsVep/&#xA;85Jz6fF+SnmYXxX05IYkhU9WmNxGYqDuQ4B+iuKvmPy95Y1LTv8AnFzzfrd0hit9a1HTxYqwoXjt&#xA;ZwrSj/JLyMo/1Tir1z/nDfXNFsPyx1OG+1C2tJW1ud1jnmjjYqbS1HIBiDSoOKvZ9U/Mbybp81hb&#xA;fpS2ur3Uru3sbOztp4pJnkuJRHyCBvsICXY+A8aAqp3q3/HKvf8AjBL/AMQOKvjX/nCr/wAmnqv/&#xA;AGw7j/qMtMVfamKuxV8Qf85Cf+tLj/jPpX/JuHFX2/irsVY1+Zes/oX8vPMuqhuMlppt1JCa0/e+&#xA;iwjFfdyBirzX8tvy0svMf/OMGm+Vb1QrapZS3UMxFTHPNO9zby9vsEpXxG2KvLf+cRvN155a8+av&#xA;+X2shrc6g0npW8mxj1CzqskfzeNWr7oBir03zIW/Mn8/dN8uRH1fK/5fhdS1kjeOTUn3giNNiUov&#xA;XwkGKsG/5zj08CfyhqKjd1vreQ/6hgdP+Jtiq/z8bjXv+cN/Ld/Cea6Z9T9c9aJbSPYeJ6MV/sxV&#xA;A/8AOD2rW8Wt+a9JYgXF5bWl1GvcpavKj0+m5XFU6/5zi0y4k0jylqig/VrW4vLWRqbc7lInTf5W&#xA;zYqnf/OFerW9x+XOq6YGH1mx1R5HQdfSuIY/TY/No3H0Yqwf/nOC7hfzF5Xswf30NnczOP8AJllV&#xA;V/GJsVewf84raRc6d+S2jtcKUe+kubtEOxEckzKh/wBkqBh7HFXzX/zlrdwz/nTqMcZq1ta2kUvT&#xA;ZjCJKf8AAyDFXpHmjSbjSPNP/OPem3IK3NrDbR3CHYrIDbc138GqMVfU+Kvkf/nKL8kJ9Fvn/Mby&#xA;nG0Nq8om1m3t6q1tcFqreRcaEKzfbp9lvi6E8VWfflD+eMH5g/lzrWkaxIq+bdN0y4+tLsou4RCy&#xA;i5RRtWpAkUdDv0NAqmX/ADiKhX8mbQ1B53t2wANSP3lKHwO2Kr/zm/5xq8sefPX1fSimj+aWBY3S&#xA;L/o9y3/Lyij7R/34vxePLFXyt5Z8zfmD+Sf5gSwTRyWtxbSKmraTIx9C7gr7fC1VNY5B0+8Yq+wv&#xA;zj1e01n8gdd1iyJNnqWkJd2xYUJinCSJUf6rDFXkP/OGEmqx+XfOL6VbwXV8J7H0oLqd7aJvhmry&#xA;ljhuWXb/AIrOKvVfMP5R+YfP+oWkn5iarCdBsZfWt/LGkLIkDyAUD3N1KRLLsSKKiUHSm9VUu/5y&#xA;isbOw/IbUbKyhS2s7aSxit7eJQqJGlxGqqqjYAAYq8+/5xS/LDyB5r/LvUdQ8xaJbalexavNbxzz&#xA;BiyxLbWzhAQRsGkY/Tir1Cb/AJx48gaVr+geYPKulDTNS0m/inl9OaVkltzVZFZZXcVUNyBXfamK&#xA;vTdW/wCOVe/8YJf+IHFXxr/zhV/5NPVf+2Hcf9Rlpir7UxV2KviD/nIT/wBaXH/GfSv+TcOKvt/F&#xA;XYq8Y/5yz802uj/lHeaaZlS+12aG0tov22SORZpmA/lCR8Sf8oeIxV6X5Et7a28keXra1dZLWDTL&#xA;OOCRTVWjS3RVIO2xAxV8uf8AOVXlTUPJn5i6R+ZGgf6Mb6WOSSZB8Kaja0ZSw6UmjUbftcWr1xV7&#xA;n/zj55GvPLHkKO71fk/mTzFK2r61NIP3pluPiRHPWqofiH8xbFXnf/Obiwf4M8usWpONRcRp4oYG&#xA;5mnsQuKpt/zjHDpXmz8gJfLWoD17NJr7TbyEH4lSc+v8Na8T/pFVPjirwH9Heb/yA/Nyzvry3eex&#xA;glcQ3CgrFf2D/DIEb7IcIwJU/YeldqVVfWvmXTfKH50/ldcW2mX0c9lqCLLY3ibtbXcfxR+on2kZ&#xA;T8Lod+JI74q+Vvyn8167+R35pXGmebbWWz067AtNYj4sw4Bj6N3FT+8VGrQrWqlqb4qmNxouvf8A&#xA;OQ35z3mpWMU1t5Ttnjt31B1osFjBXioJFPWnPJ1Tehbf4QTir638x+Y/Kn5eeTTfXzpY6NpNusNp&#xA;bLQMwjTjFbwqT8TsFoo+k7VOKvlL8ofy21783fzMu/zA8yWrReWjevezGQHhcyK9YrSImnKOMAK7&#xA;fyjj1OKvSP8AnIDU7K3/ADz/ACnSWUK0F4skwP7KTXUKIx9iyN92KvonFVO5tre6t5ba5iWa3nRo&#xA;5oZAGR0ccWVlOxBBoRir4c/PP8o9a/KjzUnmLyzLLF5dvXcWF0hq1rJKrCS1kO9VZCwXl9pdjUg1&#xA;VT7/AJxX/ND/AAZdfoDzIj2XlrzNKZ9J1SYFLdbyOkMlZGovF+CozV+FlWuxqFX2SCGAINQdwR0I&#xA;xV8ef85ey2fmL8y/L/l/QIRf+Yobf6tdRW/xyGSeTlBA1P2lHJqdg2+KvZfzQ0qPyt/zjNfaLcyr&#xA;y03RbXT3kB+F5l9KGor/ADydMVedf84OTw/UvN9vzHrCWxk9PvxKziv3jFX1Hirxz/nLW4hi/JXU&#xA;kkcK891Zxwg/tOJ1eg/2KMfoxVh//OEmq2LeUtf0n6wv1+O/W6NqT8XpSQogkA7jlEQaf0xV9Ba/&#xA;5i0Ty9pU+q61exWGn26lpZ5mCjYVovdmPZRue2Kse8ueaZ9Z/LSXzTqX+j299bXl/ArAJ6Vgxke2&#xA;50J+L6sEZj41xV8l/wDOIfmLSdF/NeRdSuY7VdS02eytpJmCIZmmhmVOTbVYQkDxO3XFX3K7pGhe&#xA;RgiKKszGgA8STirCLL8yNM1v8yI/Kfl+8hvYdPsp77XbmBlljR+aQwWwdeQ58nZ3HbiB3xV8l/8A&#xA;OR2q2kH/ADkRe3gb1I9Pl05p+O+8UELsu1dxir7i0rVtM1bT4NR0y6jvLG5QSQXMLB0dWFQQRirE&#xA;PzM/MzSPLGl/UrW+gbzVqciWGiaeGSSU3dwwijkeKtfTjduTV+XUjFXk/wCZf/Qun6eX/lYn6e/T&#xA;Hpj0v0h+k/7uv+6eP7rhy/338NcVehfk/wD4F/Rtp/gf9OfoD4/q/wBc+ufUeNDX0/rm3Hl/vr9r&#xA;6cVZB+aH+Av8PW3+N/T/AET+kbL0PV6fWvXX0f8AY9fU/wCK+VdsVZbJX02pWtD9n7XTtXvir5+/&#xA;MX/oXn9OQf8AKzv019d9Nvqn6W/S/o0qvP0Pq37rrTl6fw+PbFVT8tv+VB/pW8/5Vl+nfUon1r9F&#xA;/pb6tWnwer9Y/dVrWnq+9NsVer+f/wDAH+FZf8efU/0D8PqfpHjT1KfDx/a9Xw4fF4Yq+XLD/lUv&#xA;+IJ/+VTf47+s/wDHx/h6n1f096cvX/f08PU/Xiqaaz/yqz9K2/8AyuL/ABv6/F/qX+IKfU6fteh9&#xA;Q+Ll05cdumKpf5U/wn9en/5VT/ysX9H+p+//AEb9X+o+ptSvP4en+/fi+jFWR6f/AMqU/wAR2v8A&#xA;ytH/ABR+m/8Aj1/xvz+qV2r6XofuPTr/AD/D44q+jpf0d/hxP0Vy/R3pR/U/0T6f9zVeP1fj8HHj&#xA;/L+z0xV87eef+hXf8Sz/AONP05/iH4fW/SP6W9fj+xTn+xT7PHbwxV7j5D+ofVo/0d+nPqPo/uv0&#xA;19Y6VWn+9n+kcqdK7UrirLsVY7+Yf+EP8F6v/jH0/wDDf1dv0j6tacNqcePxc+VOHH4uVKb4q8k/&#xA;Kv8A5VV/0L5F/in0P8G/Xr/6r+l+Hq8PrUvo/Y39fh/vr4q144qxWD/Bn1KT/CP/ACtT/C1B6X6E&#xA;5/o7hyNfQ+sfv+P83Ht1xVnH5Ef9C/fpGb/BnL/FlH+t/pfn+lf+Laett4+p6P8AssVVPzh/5VR6&#xA;X/ISf0/+jfrT+hz+u/UPVq3Dh9V/cfZr6fL4+P04qxT8uP8AoWv/ABEv+AP07+mvTPL9HfpXl6VR&#xA;X1ePw+nypXn8NaYq+jNK5fo+Dl6/Ljv9a4+v1/b47VxV4X+a3/KmPWj/AOVm/wCI+HrSfUvrv176&#xA;py7+h9W/0fp4fFTrirBrD/oTT63H+j/0n9br+69D9K+pX/J4fFiq3Xf+hQua/pD9N/WPUNfV/SXq&#xA;dfjr9Y9/tU3xV6r58/5Vh/hiP9P/AKe/wV9UtPqv1D67+i/qnoL6Nfqf7HGlfW/a+jFXkn/WEv8A&#xA;y/f9zPFXf9YS/wDL9/3M8VZz+Vv/ACob6hqv/Ku/05z5D9M/UPrn1z0eMno9P3vp15cfQ+LlTn2x&#xA;Vh+pf9CbfpC5/SX6U/SPqv8AXPrP6V9b1uR9T1efxc+VeXLeuKob/rCX/l+/7meKp9+Xv/Qo3+Pd&#xA;H/w99Z/Tfrx/on619d9D63zHpf3m3qcqceXw1p3xV//Z</xmpGImg:image>
               </rdf:li>
            </rdf:Alt>
         </xmp:Thumbnails>
         <xmp:MetadataDate>2013-09-01T00:54:22+02:00</xmp:MetadataDate>
         <xmp:ModifyDate>2013-09-01T00:54:22+02:00</xmp:ModifyDate>
      </rdf:Description>
      <rdf:Description rdf:about=""
            xmlns:xmpTPg="http://ns.adobe.com/xap/1.0/t/pg/"
            xmlns:stDim="http://ns.adobe.com/xap/1.0/sType/Dimensions#"
            xmlns:xmpG="http://ns.adobe.com/xap/1.0/g/">
         <xmpTPg:MaxPageSize rdf:parseType="Resource">
            <stDim:w>333.257694</stDim:w>
            <stDim:h>67.968806</stDim:h>
            <stDim:unit>Millimeters</stDim:unit>
         </xmpTPg:MaxPageSize>
         <xmpTPg:NPages>1</xmpTPg:NPages>
         <xmpTPg:HasVisibleTransparency>False</xmpTPg:HasVisibleTransparency>
         <xmpTPg:HasVisibleOverprint>False</xmpTPg:HasVisibleOverprint>
         <xmpTPg:PlateNames>
            <rdf:Seq>
               <rdf:li>Cyan</rdf:li>
               <rdf:li>Magenta</rdf:li>
               <rdf:li>Yellow</rdf:li>
               <rdf:li>Black</rdf:li>
            </rdf:Seq>
         </xmpTPg:PlateNames>
         <xmpTPg:SwatchGroups>
            <rdf:Seq>
               <rdf:li rdf:parseType="Resource">
                  <xmpG:groupName>Default Swatch Group</xmpG:groupName>
                  <xmpG:groupType>0</xmpG:groupType>
               </rdf:li>
            </rdf:Seq>
         </xmpTPg:SwatchGroups>
      </rdf:Description>
      <rdf:Description rdf:about=""
            xmlns:xmpMM="http://ns.adobe.com/xap/1.0/mm/"
            xmlns:stEvt="http://ns.adobe.com/xap/1.0/sType/ResourceEvent#">
         <xmpMM:DerivedFrom rdf:parseType="Resource"/>
         <xmpMM:DocumentID>xmp.did:22090CF98212E311BCD985F08FC05E56</xmpMM:DocumentID>
         <xmpMM:InstanceID>xmp.iid:22090CF98212E311BCD985F08FC05E56</xmpMM:InstanceID>
         <xmpMM:OriginalDocumentID>xmp.did:22090CF98212E311BCD985F08FC05E56</xmpMM:OriginalDocumentID>
         <xmpMM:History>
            <rdf:Seq>
               <rdf:li rdf:parseType="Resource">
                  <stEvt:action>saved</stEvt:action>
                  <stEvt:instanceID>xmp.iid:22090CF98212E311BCD985F08FC05E56</stEvt:instanceID>
                  <stEvt:when>2013-09-01T00:54:22+02:00</stEvt:when>
                  <stEvt:softwareAgent>Adobe Illustrator CS6 (Windows)</stEvt:softwareAgent>
                  <stEvt:changed>/</stEvt:changed>
               </rdf:li>
            </rdf:Seq>
         </xmpMM:History>
      </rdf:Description>
   </rdf:RDF>
</x:xmpmeta>
                                                                                                    
                                                                                                    
                                                                                                    
                                                                                                    
                                                                                                    
                                                                                                    
                                                                                                    
                                                                                                    
                                                                                                    
                                                                                                    
                                                                                                    
                                                                                                    
                                                                                                    
                                                                                                    
                                                                                                    
                                                                                                    
                                                                                                    
                                                                                                    
                                                                                                    
                                                                                                    
                           
<?xpacket end="w"?>
	</metadata>
<g>
	<g>
		<g>
			<path d="M188.785,167.376c-2.608-0.164-5.191-0.299-7.743-0.408c-2.555-0.106-5.053-0.188-7.498-0.244
				c-2.445-0.053-4.646-0.082-6.602-0.082c-5.109,0-9.89,0.109-14.344,0.326c-4.457,0.219-8.965,0.488-13.529,0.814v-1.141
				c3.041-0.434,5.649-0.922,7.824-1.467c2.172-0.543,3.965-1.33,5.379-2.364c1.411-1.03,2.47-2.417,3.179-4.155
				c0.705-1.738,1.113-4.076,1.222-7.01c0.107-1.521-0.028-4.426-0.407-8.721c-0.382-4.291-0.843-8.99-1.386-14.1
				c-0.545-5.105-1.115-10.213-1.711-15.322c-0.599-5.105-1.06-9.234-1.386-12.387c-0.109-1.412-0.3-3.232-0.57-5.46
				c-0.272-2.226-0.545-4.455-0.815-6.683c-0.272-2.226-0.517-4.263-0.733-6.112c-0.219-1.847-0.326-3.097-0.326-3.749h-0.652
				c-3.043,6.52-5.435,11.736-7.172,15.648c-1.74,3.912-3.235,7.335-4.483,10.269c-1.25,2.934-2.526,5.814-3.83,8.639
				c-1.304,2.828-3.016,6.438-5.135,10.84c-2.119,4.402-4.864,10.025-8.231,16.871c-3.37,6.847-7.771,15.705-13.203,26.57h-1.141
				c-6.303-14.019-12.823-27.898-19.56-41.646c-6.739-13.746-13.203-27.629-19.397-41.646h-0.489l-2.282,15.974
				c-0.652,4.563-1.386,9.591-2.201,15.076c-0.815,5.49-1.658,10.678-2.526,15.566c-0.652,3.912-1.25,7.771-1.793,11.573
				c-0.545,3.805-0.871,6.629-0.978,8.476c-0.11,1.956,0.082,3.777,0.57,5.461c0.489,1.686,1.439,3.178,2.853,4.481
				c1.411,1.304,3.367,2.419,5.868,3.341c2.498,0.926,5.705,1.549,9.617,1.875v1.305c-2.501-0.217-6.141-0.434-10.921-0.652
				c-4.783-0.217-9.617-0.326-14.507-0.326c-4.783,0-9.047,0.109-12.796,0.326c-3.749,0.219-6.874,0.436-9.372,0.652v-1.142
				c2.824-0.433,5.379-1.085,7.661-1.956c2.282-0.868,4.292-2.172,6.031-3.912c1.737-1.736,3.204-3.966,4.401-6.684
				c1.194-2.715,2.172-6.193,2.934-10.432l11.736-68.296c-0.761-1.737-1.467-3.423-2.119-5.053c-0.545-1.304-1.088-2.633-1.63-3.993
				c-0.545-1.358-0.978-2.364-1.304-3.016c-1.956-4.128-4.429-7.144-7.417-9.046c-2.99-1.9-6.548-3.123-10.677-3.667v-1.141
				c1.085,0.109,2.417,0.191,3.994,0.245c1.574,0.056,3.204,0.109,4.89,0.163c1.683,0.056,3.285,0.082,4.808,0.082
				c1.521,0,2.825,0,3.912,0c2.825,0,5.567-0.025,8.231-0.082c2.662-0.053,4.972-0.188,6.928-0.407
				c3.367,7.391,6.736,15.052,10.106,22.983c3.367,7.934,6.765,15.893,10.188,23.879c3.423,7.986,6.818,15.949,10.188,23.879
				c3.367,7.934,6.683,15.541,9.943,22.82c3.693-7.279,7.442-14.834,11.247-22.657c3.803-7.824,7.58-15.729,11.329-23.716
				s7.498-15.946,11.247-23.879c3.749-7.931,7.47-15.702,11.166-23.309c0.868,0.109,1.928,0.191,3.178,0.245
				c1.248,0.056,2.552,0.109,3.912,0.163c1.357,0.056,2.662,0.11,3.912,0.163c1.248,0.056,2.307,0.082,3.178,0.082
				c2.934,0,5.567-0.053,7.906-0.163c2.335-0.107,4.482-0.27,6.438-0.489v1.141c-3.37,0.326-6.141,0.79-8.313,1.385
				c-2.175,0.599-3.94,1.441-5.297,2.526c-1.36,1.088-2.364,2.501-3.016,4.238c-0.652,1.739-1.034,3.912-1.141,6.52
				c0,0.436,0.025,1.222,0.082,2.363c0.053,1.141,0.135,2.038,0.245,2.689c0.542,5.216,1.194,10.868,1.956,16.952
				c0.759,6.087,1.492,12.037,2.2,17.849c0.706,5.813,1.357,11.14,1.956,15.974c0.596,4.838,1.06,8.559,1.386,11.166
				c0.326,3.154,0.652,6.142,0.978,8.965c0.216,2.393,0.461,4.701,0.733,6.928c0.27,2.229,0.514,3.777,0.733,4.646
				c0.433,2.281,0.95,4.211,1.548,5.787c0.596,1.576,1.602,2.879,3.016,3.912c1.411,1.033,3.313,1.875,5.705,2.525
				c2.389,0.652,5.542,1.141,9.454,1.467v1.305C193.838,167.677,191.393,167.539,188.785,167.376z"/>
		</g>
		<g>
			<path d="M315.603,106.985c0,9.128-1.63,17.604-4.89,25.429c-3.26,7.823-7.824,14.588-13.692,20.293
				c-5.868,5.705-12.824,10.162-20.864,13.365c-8.043,3.204-16.789,4.809-26.243,4.809c-9.78,0-18.61-1.686-26.488-5.053
				c-7.88-3.367-14.588-7.877-20.13-13.529c-5.542-5.648-9.808-12.225-12.795-19.723c-2.99-7.498-4.482-15.322-4.482-23.472
				c0-7.824,1.439-15.457,4.319-22.901c2.878-7.442,7.09-14.071,12.632-19.886c5.542-5.812,12.388-10.514,20.538-14.1
				c8.15-3.586,17.495-5.379,28.036-5.379c9.235,0,17.767,1.413,25.591,4.238c7.824,2.827,14.589,6.846,20.293,12.062
				c5.705,5.216,10.16,11.52,13.366,18.908C313.998,89.437,315.603,97.75,315.603,106.985z M254.478,165.175
				c4.671,0,9.316-1.059,13.937-3.184c4.617-2.121,8.72-5.387,12.307-9.793c3.586-4.406,6.52-10.064,8.802-16.978
				c2.282-6.91,3.423-15.154,3.423-24.729c0-8.16-1.087-15.779-3.26-22.854c-2.175-7.073-5.244-13.221-9.209-18.444
				c-3.968-5.224-8.721-9.36-14.263-12.406s-11.629-4.572-18.256-4.572c-5.651,0-10.868,1.225-15.648,3.672
				c-4.783,2.45-8.939,5.96-12.47,10.529c-3.532,4.572-6.275,10.177-8.231,16.814s-2.934,14.093-2.934,22.362
				c0,8.379,1.113,16.188,3.342,23.426c2.226,7.238,5.323,13.55,9.291,18.936c3.965,5.387,8.774,9.604,14.425,12.65
				C241.381,163.653,247.631,165.175,254.478,165.175z"/>
		</g>
		<g>
			<path d="M367.256,106.985c0,9.128-1.63,17.604-4.89,25.429c-3.26,7.823-7.824,14.588-13.692,20.293s-12.824,10.162-20.864,13.365
				c-8.043,3.204-16.789,4.809-26.242,4.809c-9.78,0-18.61-1.686-26.488-5.053c-7.88-3.367-14.588-7.877-20.13-13.529
				c-5.542-5.648-9.808-12.225-12.795-19.723c-2.99-7.498-4.482-15.322-4.482-23.472c0-7.824,1.439-15.457,4.319-22.901
				c2.878-7.442,7.09-14.071,12.632-19.886c5.542-5.812,12.388-10.514,20.538-14.1c8.15-3.586,17.495-5.379,28.036-5.379
				c9.234,0,17.767,1.413,25.591,4.238c7.824,2.827,14.589,6.846,20.293,12.062c5.705,5.216,10.16,11.52,13.366,18.908
				C365.652,89.437,367.256,97.75,367.256,106.985z M306.131,165.175c4.671,0,9.316-1.059,13.938-3.184
				c4.616-2.121,8.72-5.387,12.307-9.793c3.586-4.406,6.521-10.064,8.802-16.978c2.282-6.91,3.423-15.154,3.423-24.729
				c0-8.16-1.087-15.779-3.26-22.854c-2.175-7.073-5.244-13.221-9.209-18.444c-3.968-5.224-8.721-9.36-14.263-12.406
				s-11.629-4.572-18.256-4.572c-5.651,0-10.868,1.225-15.648,3.672c-4.783,2.45-8.939,5.96-12.47,10.529
				c-3.532,4.572-6.275,10.177-8.231,16.814s-2.934,14.093-2.934,22.362c0,8.379,1.113,16.188,3.342,23.426
				c2.226,7.238,5.323,13.55,9.291,18.936c3.965,5.387,8.774,9.604,14.425,12.65C293.035,163.653,299.285,165.175,306.131,165.175z"
				/>
		</g>
		<g>
			<path d="M559.304,121.736c-2.168-3.855-4.957-7.389-8.369-10.595c-3.414-3.204-7.148-6.166-11.211-8.884
				c-4.063-2.715-7.99-5.485-11.779-8.313c-2.818-1.956-5.283-3.803-7.395-5.542c-2.113-1.737-3.928-3.477-5.445-5.216
				c-1.518-1.737-2.654-3.53-3.412-5.379c-0.76-1.846-1.137-3.912-1.137-6.194c0-2.715,0.516-5.323,1.549-7.824
				c1.031-2.499,2.445-4.646,4.238-6.438s3.912-3.232,6.357-4.319c2.443-1.085,5.078-1.63,7.902-1.63
				c2.391,0,4.975,0.407,7.742,1.222c2.771,0.815,5.406,2.201,7.906,4.157c2.498,1.956,4.699,4.592,6.602,7.905
				c1.9,3.316,3.232,7.473,3.994,12.47l1.469-0.489c-0.221-3.802-0.465-7.661-0.734-11.573c-0.271-3.912-0.355-7.768-0.244-11.573
				c-1.74-1.085-3.748-2.037-6.031-2.853c-2.281-0.815-4.645-1.467-7.09-1.956c-2.445-0.489-4.865-0.841-7.254-1.06
				c-2.391-0.217-4.564-0.326-6.521-0.326c-5.543,0-10.568,0.79-15.076,2.364c-4.512,1.576-8.369,3.695-11.572,6.357
				c-3.207,2.664-5.68,5.814-7.416,9.454c-1.74,3.642-2.609,7.58-2.609,11.818c0,5.325,1.004,9.943,3.016,13.855
				c2.01,3.912,4.617,7.417,7.824,10.513c3.205,3.097,6.791,5.978,10.758,8.64c3.967,2.664,7.85,5.354,11.654,8.067
				c3.15,2.282,5.869,4.401,8.15,6.356c2.281,1.957,4.129,3.859,5.543,5.705c1.41,1.85,2.443,3.777,3.096,5.787
				c0.652,2.012,0.979,4.319,0.979,6.928c0,2.828-0.518,5.517-1.549,8.068c-1.033,2.555-2.525,4.809-4.482,6.766
				c-1.955,1.955-4.293,3.531-7.008,4.727c-2.719,1.197-5.705,1.793-8.967,1.793c-8.801,0-15.947-2.273-22.131-7.044
				c-5.541-5.106-15.279-16.374-16.148-26.589l-1.664-0.02l0,0l0.25-20.627l0.164-29.177c0-3.477,0.025-6.52,0.082-9.128
				c0.053-2.608,0.135-4.833,0.244-6.683c0.104-2.608,0.514-4.781,1.223-6.52c0.705-1.737,1.764-3.15,3.178-4.238
				c1.41-1.085,3.26-1.928,5.543-2.526c2.281-0.596,5.105-1.06,8.475-1.385v-1.141c-3.152,0.219-6.656,0.436-10.514,0.652
				c-3.857,0.219-8.014,0.326-12.469,0.326c-1.85,0-3.859-0.054-6.031-0.163c-2.176-0.107-4.375-0.245-6.602-0.408
				c-2.229-0.163-4.43-0.27-6.602-0.326c-2.175-0.054-4.131-0.082-5.867-0.082v0.978c3.041,0.436,5.729,0.924,8.067,1.467
				c2.337,0.545,4.291,1.332,5.867,2.364c1.574,1.034,2.797,2.419,3.668,4.156c0.869,1.74,1.357,4.075,1.468,7.009
				c0.105,2.282,0.188,4.836,0.242,7.661c0.057,2.827,0.082,5.761,0.082,8.802c0,3.043,0,6.059,0,9.046c0,2.99,0,5.787,0,8.396
				c0,3.479,0.025,7.498,0.082,12.061c0.055,4.564,0.105,8.912,0.162,13.041c0.057,4.131,0.082,7.66,0.082,10.595s0,4.563,0,4.89
				c0,0.219-0.107,0.326-0.326,0.326h-0.162c-2.282-2.607-4.837-5.596-7.661-8.965c-2.826-3.367-5.814-6.953-8.966-10.758
				c-3.151-3.803-6.356-7.688-9.616-11.654c-3.261-3.966-6.438-7.824-9.535-11.572c-3.098-3.75-6.031-7.308-8.803-10.677
				c-2.771-3.367-5.244-6.301-7.416-8.802c-7.173-8.257-13.691-15.946-19.561-23.064c-5.868-7.116-11.735-13.229-17.604-18.337
				c-5.868-5.106-11.98-9.128-18.338-12.062c-6.356-2.934-13.609-4.401-21.76-4.401c-9.234,0-18.146,2.065-26.731,6.194
				c-8.583,4.131-16.19,9.4-22.82,15.811l0.815,0.652c5.761-3.477,11.683-6.248,17.767-8.313c6.087-2.063,12.225-3.097,18.419-3.097
				c3.805,0,7.417,0.273,10.839,0.815c3.423,0.545,6.902,1.604,10.433,3.178c3.529,1.577,7.226,3.777,11.084,6.602
				c3.855,2.827,8.121,6.466,12.795,10.921c0.106,2.392,0.162,5.46,0.162,9.209s0,7.636,0,11.655c0,4.021,0,7.905,0,11.654
				s0,6.765,0,9.046c0,2.607,0.025,6.63,0.082,12.063c0.055,5.435,0.082,11.166,0.082,17.197c0,6.03-0.027,11.682-0.082,16.951
				c-0.056,5.271-0.138,9.047-0.244,11.329c-0.109,2.935-0.57,5.272-1.386,7.009c-0.814,1.739-2.012,3.125-3.586,4.156
				c-1.577,1.033-3.532,1.82-5.868,2.363c-2.338,0.545-5.026,1.035-8.067,1.468v0.978c3.477-0.216,7.522-0.408,12.144-0.57
				c4.617-0.162,8.827-0.244,12.632-0.244c4.128,0,8.396,0.082,12.796,0.244c4.4,0.164,8.339,0.354,11.816,0.57v-1.141
				c-3.912-0.326-7.118-0.814-9.617-1.467c-2.501-0.652-4.481-1.493-5.949-2.526c-1.467-1.032-2.525-2.336-3.178-3.911
				c-0.651-1.574-1.087-3.505-1.304-5.787c-0.219-1.848-0.326-4.564-0.326-8.15s0-7.116,0-10.596l-0.163-23.961l0.163-34.393
				c0-3.041,0-5.649,0-7.824c0-2.173,0.053-3.966,0.163-5.379c7.498,8.585,15.131,17.632,22.901,27.139
				c7.77,9.509,15.565,19.099,23.391,28.77c7.824,9.673,15.701,19.208,23.635,28.606c7.933,9.4,15.813,18.283,23.638,26.649
				l1.955-0.489v-3.423c0-0.978,0.023-2.012,0.082-3.097c0.053-1.085,0.08-2.063,0.08-2.934l0.131-10.672
				c0.004,0.065,0.008,0.111,0.008,0.111c4.563,3.805,15.92,11.023,21.463,13.25c5.541,2.227,11.246,3.342,17.115,3.342
				c5.32,0,10.482-0.708,15.482-2.119c4.998-1.41,9.408-3.558,13.234-6.438c3.824-2.879,6.895-6.52,9.209-10.922
				c2.314-4.4,3.475-9.535,3.475-15.403C562.554,130.024,561.468,125.595,559.304,121.736z"/>
		</g>
		<g>
			<path d="M655.792,81.23c0,6.087-1.453,11.629-4.359,16.626c-2.906,5-6.654,9.237-11.248,12.714
				c-4.592,3.479-9.738,6.112-15.443,7.905s-11.385,2.526-17.033,2.2v-1.467c4.346-0.433,8.396-1.356,12.143-2.771
				c3.75-1.411,6.953-3.396,9.617-5.948c2.662-2.553,4.754-5.625,6.275-9.21s2.283-7.768,2.283-12.551
				c0-4.454-0.709-8.746-2.119-12.877c-1.414-4.128-3.451-7.768-6.113-10.921c-2.664-3.15-5.895-5.73-9.697-7.743
				c-3.807-2.009-8.043-3.122-12.715-3.341c-2.502-0.216-4.727-0.216-6.684,0l-1.141,2.119v37.001l-0.162,17.279l0.162,23.961
				c0,3.479,0,7.008,0,10.594s0.107,6.304,0.326,8.15c0.217,2.282,0.652,4.213,1.305,5.787c0.65,1.576,1.711,2.881,3.178,3.912
				c1.467,1.034,3.449,1.875,5.949,2.525c2.498,0.652,5.705,1.142,9.617,1.468v1.142c-1.74-0.107-3.83-0.217-6.275-0.326
				c-2.445-0.107-5.027-0.188-7.742-0.244c-2.719-0.055-5.379-0.107-7.986-0.164c-2.607-0.053-4.947-0.082-7.01-0.082
				c-1.957,0-4.186,0.029-6.684,0.082c-2.5,0.057-5.027,0.138-7.578,0.246c-2.555,0.108-5.055,0.19-7.498,0.244
				c-2.445,0.056-4.539,0.137-6.277,0.244v-0.978c3.041-0.433,5.73-0.923,8.07-1.468c2.334-0.541,4.262-1.33,5.785-2.363
				c1.521-1.031,2.715-2.417,3.586-4.156c0.869-1.736,1.357-4.074,1.467-7.009c0.107-2.282,0.164-5.787,0.164-10.513
				c0-4.728,0-9.78,0-15.159c0-5.38,0-10.515,0-15.403c0-4.89,0-8.639,0-11.246c0-2.609,0-5.38,0-8.314c0-2.934,0-5.921,0-8.965
				c0-3.041-0.029-5.949-0.082-8.72c-0.057-2.771-0.137-5.297-0.244-7.58c-0.109-2.934-0.545-5.27-1.305-7.009
				c-0.762-1.737-1.902-3.151-3.422-4.238c-1.523-1.085-3.424-1.9-5.705-2.445c-2.283-0.542-4.947-1.032-7.988-1.467v-1.304
				c1.305,0.109,2.936,0.191,4.891,0.245c1.957,0.056,4.104,0.109,6.439,0.163c2.334,0.056,4.809,0.11,7.42,0.163
				c2.611,0.056,5.168,0.082,7.674,0.082l23.361-0.652c4.574,0,9.363,0.436,14.373,1.304c5.01,0.871,9.613,2.473,13.805,4.809
				c4.193,2.338,7.68,5.57,10.455,9.699C654.402,69.388,655.792,74.71,655.792,81.23z"/>
		</g>
		<g>
			<path d="M728.689,163.599c-0.438,1.564-0.953,2.65-1.551,3.266c-0.598,0.613-1.656,0.918-3.178,0.918
				c-5.869-0.107-11.846-0.27-17.93-0.488c-6.088-0.217-13.15-0.326-21.191-0.326c-5.215,0-11.385,0.109-18.5,0.326
				c-7.119,0.219-14.156,0.381-21.107,0.488v-1.304c3.041-0.433,5.678-0.922,7.904-1.467c2.229-0.542,4.074-1.33,5.543-2.363
				c1.469-1.032,2.58-2.417,3.342-4.157c0.76-1.736,1.193-4.074,1.305-7.009c0.105-2.282,0.164-5.787,0.164-10.515
				c0-4.727,0-9.723,0-14.995c0-5.271,0-10.351,0-15.24s0-8.64,0-11.247s0-5.405,0-8.395c0-2.988,0-5.975,0-8.965
				c0-2.987-0.029-5.893-0.082-8.72c-0.057-2.825-0.139-5.379-0.244-7.661c-0.109-2.934-0.545-5.27-1.305-7.009
				c-0.764-1.737-1.875-3.123-3.342-4.157c-1.469-1.031-3.344-1.818-5.623-2.363c-2.281-0.542-4.945-1.032-7.986-1.467v-1.304
				c2.389,0.219,5.322,0.382,8.801,0.489c3.477,0.11,7.063,0.219,10.758,0.326c3.693,0.109,7.279,0.163,10.758,0.163
				c3.477,0,6.465,0,8.965,0l24.287-0.163c2.715,0,5.08,0,7.092,0c2.01,0,3.748-0.135,5.215-0.408
				c1.467-0.27,2.689-0.733,3.668-1.385c0.98-0.652,1.846-1.63,2.607-2.934l1.143,0.815c-0.652,2.501-1.061,5.053-1.223,7.661
				c-0.164,2.608-0.355,4.51-0.57,5.705c-0.111,1.197-0.221,2.526-0.326,3.993c-0.107,1.467-0.189,2.962-0.246,4.483
				c-0.055,1.523-0.107,2.962-0.162,4.319c-0.057,1.36-0.082,2.473-0.082,3.341h-1.467c-0.545-6.084-2.391-10.812-5.541-14.181
				c-3.152-3.367-7.986-5.16-14.508-5.379l-8.477-0.163h-14.344v46.619c1.195,0,3.314,0,6.357,0c3.041,0,6.193-0.054,9.453-0.164
				c3.803,0,7.932-0.053,12.389-0.162c2.172,0,3.938-0.246,5.297-0.734c1.357-0.489,2.471-1.141,3.342-1.956
				c0.869-0.815,1.574-1.793,2.119-2.934c0.543-1.141,1.086-2.471,1.631-3.994c0.217,0,0.432,0.109,0.652,0.326l0.326,0.326
				c-0.221,1.087-0.408,2.31-0.572,3.667c-0.162,1.359-0.324,2.746-0.488,4.156c-0.162,1.414-0.301,2.746-0.408,3.993
				c-0.109,1.251-0.162,2.257-0.162,3.017c0,1.196,0,2.526,0,3.993c0,1.468,0.025,2.909,0.082,4.319
				c0.053,1.414,0.08,2.718,0.08,3.912c0,1.197,0,2.119,0,2.771l-1.467-0.164c-0.109-1.41-0.301-2.934-0.57-4.563
				c-0.271-1.63-0.814-3.123-1.629-4.481c-0.816-1.357-2.012-2.5-3.586-3.424c-1.578-0.922-3.668-1.386-6.275-1.386l-26.57-0.489
				v14.139l0.164,22.262c0,2.926,0.271,5.445,0.814,7.557c0.543,2.113,1.492,3.846,2.852,5.201c1.361,1.355,3.232,2.328,5.625,2.924
				c2.391,0.596,5.486,0.84,9.291,0.73c1.629,0,2.877-0.024,3.748-0.082c0.869-0.053,1.686-0.106,2.445-0.162
				c0.76-0.055,1.521-0.107,2.281-0.163c0.76-0.054,1.848-0.188,3.262-0.407c2.389-0.326,4.588-0.841,6.6-1.549
				c2.012-0.706,3.857-1.818,5.543-3.342c1.686-1.521,3.285-3.557,4.811-6.112c1.52-2.552,2.986-5.786,4.398-9.698l1.307,0.652
				L728.689,163.599z"/>
		</g>
		<g>
			<path d="M806.369,159.796c2.824-0.217,5.297-0.623,7.416-1.223c2.119-0.596,4.047-1.574,5.787-2.934
				c1.734-1.357,3.313-3.286,4.727-5.787c1.41-2.499,2.824-5.705,4.238-9.617l1.303,0.652l-4.4,21.027
				c-0.326,1.522-0.953,2.908-1.875,4.156c-0.924,1.25-2.961,1.818-6.111,1.711c-6.846-0.216-13.611-0.433-20.293-0.652
				c-6.684-0.217-13.559-0.325-20.621-0.325c-7.172,0-14.236,0.108-21.189,0.325c-6.955,0.22-14.018,0.437-21.188,0.652v-1.304
				c3.26-0.433,6.109-0.922,8.557-1.468c2.445-0.541,4.482-1.329,6.113-2.362c1.629-1.032,2.877-2.417,3.748-4.157
				c0.869-1.736,1.355-4.074,1.467-7.009c0.107-2.282,0.164-5.787,0.164-10.515c0-4.727,0-9.723,0-14.995c0-5.271,0-10.351,0-15.24
				s0-8.64,0-11.247s0-5.405,0-8.395c0-2.988,0-6.031,0-9.128c0-3.097-0.027-6.057-0.082-8.884
				c-0.057-2.824-0.137-5.379-0.244-7.661c-0.109-2.934-0.598-5.27-1.467-7.009c-0.871-1.737-2.094-3.123-3.668-4.156
				c-1.576-1.032-3.533-1.819-5.867-2.364c-2.338-0.542-5.027-1.031-8.068-1.467v-0.978c1.736,0,3.855,0.028,6.355,0.082
				c2.5,0.056,5.08,0.163,7.744,0.326c2.66,0.163,5.24,0.301,7.742,0.408c2.498,0.109,4.67,0.163,6.52,0.163
				c2.172,0,4.508-0.025,7.01-0.082c2.498-0.054,4.996-0.135,7.498-0.245c2.498-0.107,4.861-0.216,7.09-0.326
				c2.227-0.107,4.156-0.216,5.787-0.326v1.141c-3.371,0.326-6.195,0.79-8.477,1.385c-2.283,0.599-4.131,1.441-5.543,2.526
				c-1.412,1.088-2.475,2.501-3.178,4.238c-0.709,1.739-1.115,3.912-1.225,6.52c-0.107,1.849-0.189,4.075-0.244,6.683
				c-0.057,2.608-0.082,5.652-0.082,9.128l-0.16,32.927c0,1.303,0.023,3.206,0.078,5.704c0.057,2.501,0.082,5.244,0.082,8.231
				c0,2.99,0.025,6.005,0.082,9.046c0.055,3.043,0.082,5.813,0.082,8.313c0,2.174,0.244,4.213,0.732,6.112
				c0.488,1.901,1.387,3.562,2.689,4.972c1.305,1.414,3.041,2.5,5.217,3.26c2.172,0.761,4.889,1.086,8.15,0.978
				c2.063,0,3.855-0.024,5.379-0.082c1.52-0.054,2.934-0.106,4.236-0.163c1.305-0.054,2.553-0.135,3.75-0.244
				C803.326,160.016,804.738,159.906,806.369,159.796z"/>
		</g>
		<g>
			<path d="M899.087,159.796c2.824-0.217,5.299-0.623,7.418-1.223c2.117-0.596,4.047-1.574,5.785-2.934
				c1.738-1.357,3.314-3.286,4.727-5.787c1.412-2.499,2.826-5.705,4.238-9.617l1.305,0.652l-4.4,21.027
				c-0.326,1.522-0.953,2.908-1.875,4.156c-0.924,1.25-2.963,1.818-6.113,1.711c-6.846-0.216-13.609-0.433-20.293-0.652
				c-6.684-0.217-13.557-0.325-20.619-0.325c-7.172,0-14.238,0.108-21.188,0.325c-6.957,0.22-14.021,0.437-21.191,0.652v-1.304
				c3.26-0.433,6.113-0.922,8.559-1.468c2.445-0.541,4.482-1.329,6.111-2.362c1.631-1.032,2.879-2.417,3.75-4.157
				c0.867-1.736,1.357-4.074,1.467-7.009c0.107-2.282,0.162-5.787,0.162-10.515c0-4.727,0-9.723,0-14.995c0-5.271,0-10.351,0-15.24
				s0-8.64,0-11.247s0-5.405,0-8.395c0-2.988,0-6.031,0-9.128c0-3.097-0.027-6.057-0.08-8.884c-0.057-2.824-0.139-5.379-0.246-7.661
				c-0.109-2.934-0.598-5.27-1.467-7.009c-0.871-1.737-2.094-3.123-3.666-4.156c-1.578-1.032-3.533-1.819-5.869-2.364
				c-2.338-0.542-5.027-1.031-8.068-1.467v-0.978c1.736,0,3.855,0.028,6.357,0.082c2.498,0.056,5.078,0.163,7.742,0.326
				c2.662,0.163,5.242,0.301,7.742,0.408c2.498,0.109,4.672,0.163,6.52,0.163c2.174,0,4.51-0.025,7.01-0.082
				c2.498-0.054,4.998-0.135,7.498-0.245c2.498-0.107,4.861-0.216,7.09-0.326c2.227-0.107,4.158-0.216,5.787-0.326v1.141
				c-3.369,0.326-6.193,0.79-8.477,1.385c-2.281,0.599-4.131,1.441-5.541,2.526c-1.414,1.088-2.473,2.501-3.18,4.238
				c-0.707,1.739-1.115,3.912-1.221,6.52c-0.111,1.849-0.191,4.075-0.246,6.683c-0.057,2.608-0.08,5.652-0.08,9.128l-0.164,32.927
				c0,1.303,0.023,3.206,0.082,5.704c0.053,2.501,0.082,5.244,0.082,8.231c0,2.99,0.023,6.005,0.08,9.046
				c0.055,3.043,0.082,5.813,0.082,8.313c0,2.174,0.242,4.213,0.732,6.112c0.488,1.901,1.385,3.562,2.689,4.972
				c1.303,1.414,3.041,2.5,5.215,3.26c2.174,0.761,4.891,1.086,8.15,0.978c2.063,0,3.855-0.024,5.379-0.082
				c1.521-0.054,2.934-0.106,4.238-0.163c1.305-0.054,2.553-0.135,3.748-0.244C896.044,160.016,897.458,159.906,899.087,159.796z"/>
		</g>
	</g>
</g>
</svg>
