<?xml version="1.0" encoding="utf-8"?>
<!-- Generator: Adobe Illustrator 16.0.0, SVG Export Plug-In . SVG Version: 6.00 Build 0)  -->
<!DOCTYPE svg PUBLIC "-//W3C//DTD SVG 1.1//EN" "http://www.w3.org/Graphics/SVG/1.1/DTD/svg11.dtd">
<svg version="1.1" id="Layer_1" xmlns="http://www.w3.org/2000/svg" xmlns:xlink="http://www.w3.org/1999/xlink" x="0px" y="0px"
	 width="1750px" height="309.512px" viewBox="0 0 1750 309.512" enable-background="new 0 0 1750 309.512" xml:space="preserve">
<metadata><?xpacket begin="﻿" id="W5M0MpCehiHzreSzNTczkc9d"?>
<x:xmpmeta xmlns:x="adobe:ns:meta/" x:xmptk="Adobe XMP Core 5.3-c011 66.145661, 2012/02/06-14:56:27        ">
   <rdf:RDF xmlns:rdf="http://www.w3.org/1999/02/22-rdf-syntax-ns#">
      <rdf:Description rdf:about=""
            xmlns:xmpRights="http://ns.adobe.com/xap/1.0/rights/">
         <xmpRights:Marked>True</xmpRights:Marked>
      </rdf:Description>
      <rdf:Description rdf:about=""
            xmlns:dc="http://purl.org/dc/elements/1.1/">
         <dc:title>
            <rdf:Alt>
               <rdf:li xml:lang="x-default">Moonspell logo</rdf:li>
            </rdf:Alt>
         </dc:title>
         <dc:creator>
            <rdf:Seq>
               <rdf:li>Wojtek Blasiak</rdf:li>
            </rdf:Seq>
         </dc:creator>
         <dc:description>
            <rdf:Alt>
               <rdf:li xml:lang="x-default">Moonspell logo firstly used on Moonspell's album Darkness and Hope. Font type - Mason serif alt regular.</rdf:li>
            </rdf:Alt>
         </dc:description>
         <dc:subject>
            <rdf:Bag>
               <rdf:li>moonspell</rdf:li>
               <rdf:li>logo</rdf:li>
            </rdf:Bag>
         </dc:subject>
         <dc:format>image/svg+xml</dc:format>
      </rdf:Description>
      <rdf:Description rdf:about=""
            xmlns:xmp="http://ns.adobe.com/xap/1.0/"
            xmlns:xmpGImg="http://ns.adobe.com/xap/1.0/g/img/">
         <xmp:CreatorTool>Adobe Illustrator CS6 (Windows)</xmp:CreatorTool>
         <xmp:CreateDate>2013-09-01T00:56:48+02:00</xmp:CreateDate>
         <xmp:Thumbnails>
            <rdf:Alt>
               <rdf:li rdf:parseType="Resource">
                  <xmpGImg:width>256</xmpGImg:width>
                  <xmpGImg:height>36</xmpGImg:height>
                  <xmpGImg:format>JPEG</xmpGImg:format>
                  <xmpGImg:image>/9j/4AAQSkZJRgABAgEAtAC0AAD/7QAsUGhvdG9zaG9wIDMuMAA4QklNA+0AAAAAABAAtAAAAAEA&#xA;AQC0AAAAAQAB/+4ADkFkb2JlAGTAAAAAAf/bAIQABgQEBAUEBgUFBgkGBQYJCwgGBggLDAoKCwoK&#xA;DBAMDAwMDAwQDA4PEA8ODBMTFBQTExwbGxscHx8fHx8fHx8fHwEHBwcNDA0YEBAYGhURFRofHx8f&#xA;Hx8fHx8fHx8fHx8fHx8fHx8fHx8fHx8fHx8fHx8fHx8fHx8fHx8fHx8fHx8f/8AAEQgAJAEAAwER&#xA;AAIRAQMRAf/EAaIAAAAHAQEBAQEAAAAAAAAAAAQFAwIGAQAHCAkKCwEAAgIDAQEBAQEAAAAAAAAA&#xA;AQACAwQFBgcICQoLEAACAQMDAgQCBgcDBAIGAnMBAgMRBAAFIRIxQVEGE2EicYEUMpGhBxWxQiPB&#xA;UtHhMxZi8CRygvElQzRTkqKyY3PCNUQnk6OzNhdUZHTD0uIIJoMJChgZhJRFRqS0VtNVKBry4/PE&#xA;1OT0ZXWFlaW1xdXl9WZ2hpamtsbW5vY3R1dnd4eXp7fH1+f3OEhYaHiImKi4yNjo+Ck5SVlpeYmZ&#xA;qbnJ2en5KjpKWmp6ipqqusra6voRAAICAQIDBQUEBQYECAMDbQEAAhEDBCESMUEFURNhIgZxgZEy&#xA;obHwFMHR4SNCFVJicvEzJDRDghaSUyWiY7LCB3PSNeJEgxdUkwgJChgZJjZFGidkdFU38qOzwygp&#xA;0+PzhJSktMTU5PRldYWVpbXF1eX1RlZmdoaWprbG1ub2R1dnd4eXp7fH1+f3OEhYaHiImKi4yNjo&#xA;+DlJWWl5iZmpucnZ6fkqOkpaanqKmqq6ytrq+v/aAAwDAQACEQMRAD8AAf8AOT3lHQdB88+To/Lt&#xA;sNBXWneK/GmUtVYiaJBIEjogekrfFx371xV6BP8AkN+Zfllfrn5ffmJqPrxVK6XrLfWLaTvQn4o1&#xA;J/4w/SMVTP8AL7/nIBZtZk8m/mTZp5W85WpCVlbhZ3RP2WidiQhb9kcirfssemKvZQQRUbg9Dirs&#xA;VdirsVdirsVdirsVdirsVdirsVdirsVdirsVdirsVdirsVdirsVdirsVdirsVdirsVdir5g/5y3/&#xA;AOU+/Lj/AIzyf9RNvir6fxV8mfnl5c0zzL/zlD5b0HVFZ9P1GztYLhY2KPxLT/ZYdDtirPIf+cdP&#xA;PHl7935G/MzVNM09D+5028T6zEgHSlHSMeBpFvirEPy41382dY/OrUvy+8yedbyW00iKaS5lsY7e&#xA;BpjCYwFVzEWRSZd6b7duuKvqG0t/q1rDb+pJN6Max+tM3KR+IA5O21WNKk4qx/zz+YfljyVYQ3Wt&#xA;TOZ7t/R07TrZDNd3UuwEcEK7sakDsBUVO+KsUk/Mn83poDd6Z+VdxLZEcoRe6vZ2d0y/5VuUlKGn&#xA;7LNXFUB5Z/5yU8tXXmAeWvN+l3nkvX3IWO31MfuGLGigT0SnKmzMoU9jir1/FUs8y+ZtB8s6Ncaz&#xA;rt7HYabbCstxJWlTsFVQCzMx2CqCTirAYPzX/MDWYRe+VPy3vr7SnUtBd6pfW2kvKOxjgkE0nFuq&#xA;saAjFUn/AOhlI9C1iLSvzH8p6h5OknJWG8ZlvrQ0O59aJU5Ad/TVqYq9jsb6zv7OG9sp47mzuUWW&#xA;3uImDxujCqsrLUEEYqxb8xfP135J0qbWpdCudU0W0jEl9dWksIkhq/D+5lZGZRUVKnb5A4qx7Rf+&#xA;ckfymvvLFprt9rUGkm69Tlplw6y3sXpytH+8gtzM68uHJdvskHFUk8wf85ZflzpdmLu0sdX1O1kY&#xA;JBeRWZgtnYjkAJbkwndQTspOKvTvJ2u61rmkR6lqekfodblUltLdrhbiUxSLyBk4Kqo2/wBkFsVY&#xA;35q/Nk2HnGPyT5Z0aTzL5r9H61eWiTpaW9pbmhD3Fw4fiTyUhQhO48RVVbD+aOvadrelaR5w8o3O&#xA;ivrVyLPT9RtLmDULH1mFVSWUC3kjZqbAx79q70VZ1qU97b2Ms1la/XbpADFa+osXM1AI5tsu2+Kv&#xA;JtP/AOchrnVfNl55P0nyTql15m071Df2Lz2MKxrEwV29ZpvTIDOtKHeu2Ko1v+cgNJ0fzBb6F560&#xA;LUPJ9zeGlneXvozWUm4B/wBJt3dNiRU9F/aIxV6Rq93qNtp7z6bY/pK6Wnp2glSHmCd6SP8ACKDf&#xA;FXk2lf8AOSlvq+v6j5f0zyXrl5rGktImoWcItGaJoZPSk5fvqfDJ8OxxVkGn/nBdya3pemav5N1v&#xA;Q4tWuBZ2+oXqQfV1mZGZEdo5XI58KDbFWba5farZWJn0zTTqtyGA+qLNHAxWhJIeWiV2pQnFXmvk&#xA;n8/v8a61faPoHlTUWvNLampm7ltreOD4yhDN6jktyUjiF7HFXrWKpR5m1jVtJsfrenaPLrPphmnt&#xA;4JYopQiitUEpVXY9l5DFWC/ln+ecf5jTSny95cvV0+0kSK/v7uW3iSIybjiiu7yHiCSAP14q9RxV&#xA;8wf85b/8p9+XH/GeT/qJt8VfT+KvmD8y/wD1sDyb/wAYLT/iVxir6fxV8wflp/62B5y/4wXf/Erf&#xA;FX0/ir56/Im5H5ifmj5w/MTVh9Y/Rcy6b5ajejJbW7GSpQH7L+mq1YDqzeOKvoXFXmH/ADkL+Wem&#xA;+dvy91BzAv6b0eGS90q5AHqBolLvDXrxlVeNOnKh7Yqln/OKnnPUPM35VQx6jK095ol1JpvrOeTv&#xA;CiJLCWP+SkvAf6uKsb1W6H5i/wDOT8flfUALjy15ItTffo9qGGa7CxVklU/a4SXKLQ/yeDNVV9DY&#xA;qkPnnyVoXnTy1eeX9ahEtrdIQklAXhlA+CaI/suh3H3HYnFXhP8AziLrmtadqfmz8uNVlMv6AnZ7&#xA;VCaiJ45mgukWv7BkCsAO9fHFXqv5/f8AkmvNn/MC3/ElxVi3/OLvlbyyfye8vau2kWR1Wf656+oG&#xA;3iNw/C+nReUvHmaKoA36DFUs/wCc0Lb1fypsZRsbfWLdztU0a3uEpXtuwxV7D5JufrXkzQLr/f8A&#xA;p1pLuan44Ebr364q+efzE1jzb+Tv536n+YB0xtV8peZooYLmRNuBVI1MfqUIjlVoeScvhZTTrXiq&#xA;9q8lfmL+XX5m6Ysuk3EV81tJDdS6bdKFubaaGRZIpHiatCkigq6krXocVZtir5r/ACn/APWuPzB/&#xA;5gbr/qJs8VTb/nL6Sw1Lyronle1h+vebNR1KJ9JsIQHuOASRJHAG4RiwX3P+qaKvaPKGl3ekeU9E&#xA;0q8k9W70+wtbW4lrXnJDCsbtX3Za4q+YvIHnnyx5P/5yN/Ma+8w3b2lrcS3cELpBcXJMn1tGpxt4&#xA;5WGyncimKvZ/KP51flx5/wDNl35X09GvJdP9K8s5rm2kEcrwnm0iLKgaJ4HC0LhTX7OKvTMVfNf/&#xA;ADi//wCTT/NP/mOP/UZc4q+lMVdir5r/AOcIf+UW8y/8x0P/ACZxV9KYq+YP+ct/+U+/Lj/jPJ/1&#xA;E2+Kvp/FXzB+Zf8A62B5N/4wWn/ErjFX0/ir5g/LT/1sDzl/xgu/+JW+Kvp/FXyb+QurL+Vv5yeZ&#xA;Py88wUs7bVplj024k2RpInY2pDHbjcQzbH+ai9cVfWWKsX/M7zbp3lPyHrWt30iosFrItujGhluJ&#xA;FKwxL4l3IHy37Yqwr/nFvyRf+VPyrt/0jEYL/Wbh9TkhcUeOOREjhVtqj93EHoenLFXl3nG/k/Kr&#xA;/nKZPNWpI0flrzIo9S6AJURzRpFOajvFOgkZRvxp44q+q4J4LiCOeCRZYJVDxSoQyOjCqsrDYgjc&#xA;EYqsvr2zsLKe+vZkt7O1jaa4nkIVEjjBZ3YnoFAqcVeDf840aRc6v5l87/mbLbtb2PmS/lj0USLx&#xA;Zrf13kdt+orwWo/aVvDFXoH5/f8AkmvNn/MC3/ElxVKf+cXP/JE+Wf8Ao+/7qFxiqB/5y0tTN+Su&#xA;pyCtLa5s5TQVFDOse/gP3mKsy/Jq6Fz+U3k+QUoukWUXwmorFAsZ+n4N8VT23vtC8w22pWXCO9t7&#xA;aeTT9StZ4+SeoiqzxujijKUdT4EHFXy7+f35Y2X5Tano35jeQZpNKdr9beTT1YtGsrxvKPTrv6Ui&#xA;xOrxkkb0FBtir6yt5Hlt4pXQxPIis0Z6qSKlTWnTFXzJ+XmmW2p/85U/mNY3LzxwzWNxze1uJ7SY&#xA;cbuyYcZ7Z4pU3XfiwqNjsTir37y/+X/k/QL6bUdM01E1O4ULPqU7yXV46gAcWubhpZiNhtzxVkOK&#xA;vmr8kP8A1pv8zP8Ao7/6jY8Ve/3UHljQZdR8x3K22nSXKxDUtTfjGXWP4IRJIaVoX4r86Yqm2Kvm&#xA;v/nF/wD8mn+af/Mcf+oy5xV9C69rulaDo93rGrXC2unWUZluJ2rQKNgABUszEhVUbk0A3xVFWtwt&#xA;zaw3KK6LMiyKkqlHUOAQHRqFWFdwemKvnD/nCH/lFvMv/MdD/wAmcVfQHmPzLo/l3Tf0hqsxigaW&#xA;O3hREaSWWeZgkUUUaBnd3Y0CqMVfIf8AzkT/AIi/xPYf8rK+sev6DfoD9Cej9V+3+9p6v77ly4V5&#xA;b9MVfTHk7/lbH+D7r/EH1H/EPpD9F86/b9P/AI+/R+CvLr6eKvl7zp/ir/ldVl+nPr//ACsr61Z/&#xA;ob6r9U+o05j6vxr/ALr+1y5+/Lvir6pb/laf+CV4/ov/ABfy+KvqfVvT5Hp/xZx/2NcVfLHk3/Fn&#xA;/K7rn9DfX/8AlZX1i6/TX136p9R47+vy4f7q+zw4e3Htir7O0z9Jfo20/SfpfpL0Y/r31fl6Pr8B&#xA;6vpc/i4c68a70xV4v/zlB/ypn9BW/wDjj1f05wb9Dfo3j+keNd/t/B6PLr6u3Xj8WKsE/Lv/AKG4&#xA;/RC/oav6BoP0Z/iL6v8AWPR/Y+1+/wDs0+38Phiqc6Py/wAY6b/yv769+mPWP+Hvrf1f/Dfq9uH1&#xA;b9361P8Af/070xV9J4qwH87P+VY/4HuP+VicP0PyH1elfrP1ih4fVePx+rSvTaleXw1xV87/AJXf&#xA;8r6o/wDyqj9If4EqfqP+I/qvp07+ny7cv98fDXrirKdb/wCVgfW4v+V+fpD/AAX6kdP0H6P6K51H&#xA;/HR+rf6X6dfor0xV9IaJ+hv0PZfoT0P0R6KfUPqnH0PQ4j0/S4fDw49KYq8m/wCcmf8AG3+Cr/6n&#xA;6X+Dvq6fpz6vx/SFPW+Pj6v7v0uPD7Pxfa7Yqln/ADi5/jL/AApZ/VeH/Kvud1+jfr3H69/fPy9P&#xA;0fg4+vyrz96Yqqf85U/4y/wZc8/q3+AK2v6Z+r8/0pz+sLw48/3Hpep6f+VX2xVNv+ccP8R/4J0z&#xA;++/wn9Xk/RP170PrXH1fh/uP2PtceW9PoxVjWv8A/Kwv+V0+Yv8AlU3qfWaW3+Lv0p6X6G+sfVU9&#xA;D0eP771fS48+O/KtdsVS69/xJ/ysby9/yvr/AI5/rj/C/wCjeH6E+v7U+t/7v51px9T4f9jyxV9C&#xA;eYv0/wDoW7/w/wDV/wBMcP8AQ/rfL0eVRXlw3+zXj70rtir5N8h/4w/5XlrP6E+s/wDKxK3P6f8A&#xA;rn1b9Geh6iepy9L956fL0uHHfpir6/tfrP1aL61w+tcF9f0q+n6lPi4ct+NelcVSzzX/AIr/AEJN&#xA;/hX6n+map6P6Q9T0OHIep/d78+FeFdq9dsVfHfkv/Ff/ACsbzJ/h/wDT/wDjv1rv/EX1H9HenX60&#xA;fVp6/wAHH1aUp9G2Kswsf+Vs/wCMvKv/ACs79M/4Y/S0HH619S+qfWq/6L9Y+qdvW4U57VxV9G+d&#xA;P8a/ob/nT/qX6V9Qc/r/AD4ejxbl6fDb1OXGnL4aVrir4z8g/wDKxP8AFOu/4D/TX+Jecn+KPT+o&#xA;cfV9dq19X93/AHnLpv1ptirO7L/laH+OPKP/ACtf9Mf4a/SkXp/W/qf1P65xb6p6/wBV+H++405+&#xA;+KvoD8zf+VhfoB/8F/VfrHCX656/L6xw4fD9U/3X6lf9+bYq+Rvym/5WL9Uv/wDlVX6b+o8ov0px&#xA;/R/H6xxNKevt08N/HFXpXkT/AB9/yt7yz/ytX9K04XX+Hf0h9W+p/XvTNP8AeX916vp8+PL4q0pi&#xA;r//Z</xmpGImg:image>
               </rdf:li>
            </rdf:Alt>
         </xmp:Thumbnails>
         <xmp:MetadataDate>2013-09-01T00:56:48+02:00</xmp:MetadataDate>
         <xmp:ModifyDate>2013-09-01T00:56:48+02:00</xmp:ModifyDate>
      </rdf:Description>
      <rdf:Description rdf:about=""
            xmlns:xmpTPg="http://ns.adobe.com/xap/1.0/t/pg/"
            xmlns:stDim="http://ns.adobe.com/xap/1.0/sType/Dimensions#"
            xmlns:xmpG="http://ns.adobe.com/xap/1.0/g/">
         <xmpTPg:MaxPageSize rdf:parseType="Resource">
            <stDim:w>617.361111</stDim:w>
            <stDim:h>109.188856</stDim:h>
            <stDim:unit>Millimeters</stDim:unit>
         </xmpTPg:MaxPageSize>
         <xmpTPg:NPages>1</xmpTPg:NPages>
         <xmpTPg:HasVisibleTransparency>False</xmpTPg:HasVisibleTransparency>
         <xmpTPg:HasVisibleOverprint>False</xmpTPg:HasVisibleOverprint>
         <xmpTPg:PlateNames>
            <rdf:Seq>
               <rdf:li>Cyan</rdf:li>
               <rdf:li>Magenta</rdf:li>
               <rdf:li>Yellow</rdf:li>
               <rdf:li>Black</rdf:li>
            </rdf:Seq>
         </xmpTPg:PlateNames>
         <xmpTPg:SwatchGroups>
            <rdf:Seq>
               <rdf:li rdf:parseType="Resource">
                  <xmpG:groupName>Default Swatch Group</xmpG:groupName>
                  <xmpG:groupType>0</xmpG:groupType>
               </rdf:li>
            </rdf:Seq>
         </xmpTPg:SwatchGroups>
      </rdf:Description>
      <rdf:Description rdf:about=""
            xmlns:xmpMM="http://ns.adobe.com/xap/1.0/mm/"
            xmlns:stEvt="http://ns.adobe.com/xap/1.0/sType/ResourceEvent#">
         <xmpMM:DerivedFrom rdf:parseType="Resource"/>
         <xmpMM:DocumentID>xmp.did:23090CF98212E311BCD985F08FC05E56</xmpMM:DocumentID>
         <xmpMM:InstanceID>xmp.iid:23090CF98212E311BCD985F08FC05E56</xmpMM:InstanceID>
         <xmpMM:OriginalDocumentID>xmp.did:23090CF98212E311BCD985F08FC05E56</xmpMM:OriginalDocumentID>
         <xmpMM:History>
            <rdf:Seq>
               <rdf:li rdf:parseType="Resource">
                  <stEvt:action>saved</stEvt:action>
                  <stEvt:instanceID>xmp.iid:23090CF98212E311BCD985F08FC05E56</stEvt:instanceID>
                  <stEvt:when>2013-09-01T00:56:48+02:00</stEvt:when>
                  <stEvt:softwareAgent>Adobe Illustrator CS6 (Windows)</stEvt:softwareAgent>
                  <stEvt:changed>/</stEvt:changed>
               </rdf:li>
            </rdf:Seq>
         </xmpMM:History>
      </rdf:Description>
   </rdf:RDF>
</x:xmpmeta>
                                                                                                    
                                                                                                    
                                                                                                    
                                                                                                    
                                                                                                    
                                                                                                    
                                                                                                    
                                                                                                    
                                                                                                    
                                                                                                    
                                                                                                    
                                                                                                    
                                                                                                    
                                                                                                    
                                                                                                    
                                                                                                    
                                                                                                    
                                                                                                    
                                                                                                    
                                                                                                    
                           
<?xpacket end="w"?>
	</metadata>
<g>
	<path d="M76.725,49.617v193.006c0,6.596,1.588,11.37,4.774,14.322c3.181,2.957,8.978,4.892,17.391,5.797h3.751v4.773l-4.753-0.341
		l-26.475-1.705H58.508l-26.476,1.705H27.28l0.341-4.433h3.751c8.408-0.906,14.205-2.729,17.391-5.456
		c3.181-2.728,4.774-7.614,4.774-14.663V55.073c0-6.82-1.311-11.647-3.921-14.493c-2.616-2.84-7.673-4.715-15.175-5.626l-6.82-0.682
		v-4.433l7.806,0.682l44.81,3.41c14.935,0,29.907,3.298,44.911,9.889c13.411,5.915,26.369,14.099,38.874,24.552
		c11.365,9.324,25.005,16.256,40.92,20.801c15.91,4.55,33.53,6.82,52.855,6.82c5.456,0,11.306-0.224,17.562-0.682
		c6.25-0.453,11.876-0.906,16.879-1.364h7.502v4.433h-6.564c-7.374,0.911-12.447,2.728-15.207,5.456
		c-2.765,2.728-4.145,7.619-4.145,14.663v124.124c0,6.596,1.587,11.37,4.774,14.322c3.181,2.957,8.978,4.892,17.391,5.797h3.751
		v4.773l-4.752-0.341l-26.476-1.705h-12.905l-26.475,1.705h-4.753l0.341-4.433h3.751c8.408-0.906,14.205-2.729,17.391-5.456
		c3.181-2.728,4.774-7.614,4.774-14.663V111.679c-13.416,0-26.315-1.306-38.703-3.922c-12.394-2.61-24.611-6.761-36.658-12.446
		v147.312c0,6.596,1.588,11.37,4.774,14.322c3.181,2.957,8.978,4.892,17.391,5.797h3.751v4.773l-4.752-0.341l-26.476-1.705h-12.905
		l-26.476,1.705h-4.752v-4.433h3.799c8.52-0.906,14.391-2.729,17.62-5.456c3.224-2.728,4.838-7.614,4.838-14.663V79.965
		c-9.095-8.637-19.437-15.568-31.031-20.801C106.957,52.803,92.182,49.617,76.725,49.617z"/>
	<path d="M526.158,188.063c0,22.735-8.472,42.231-25.404,58.481c-16.938,16.256-38.139,24.382-63.597,24.382
		c-25.234,0-46.264-7.044-63.085-21.142c-17.508-14.775-26.257-33.759-26.257-56.947c0-22.506,8.524-41.943,25.574-58.311
		c17.051-16.368,38.305-24.552,63.768-24.552c25.234,0,46.376,7.22,63.426,21.653C517.633,146.066,526.158,164.875,526.158,188.063z
		 M504.675,190.45c-2.274-19.778-10.006-36.146-23.188-49.104c-13.869-13.64-31.031-20.46-51.491-20.46
		c-18.19,0-32.854,5.914-43.989,17.732c-11.141,11.823-16.709,26.598-16.709,44.33c0,3.186,0.112,5.685,0.341,7.502
		c2.046,19.554,9.942,36.093,23.7,49.614c13.752,13.528,30.743,20.291,50.979,20.291c17.956,0,32.564-5.967,43.817-17.902
		s16.88-26.77,16.88-44.5C505.017,194.771,504.899,192.271,504.675,190.45z"/>
	<path d="M748.831,188.063c0,22.735-8.472,42.231-25.404,58.481c-16.938,16.256-38.139,24.382-63.597,24.382
		c-25.234,0-46.264-7.044-63.085-21.142c-17.508-14.775-26.257-33.759-26.257-56.947c0-22.506,8.524-41.943,25.575-58.311
		c17.05-16.368,38.304-24.552,63.767-24.552c25.233,0,46.376,7.22,63.426,21.653C740.306,146.066,748.831,164.875,748.831,188.063z
		 M727.348,190.45c-2.274-19.778-10.006-36.146-23.188-49.104c-13.869-13.64-31.031-20.46-51.491-20.46
		c-18.189,0-32.854,5.914-43.989,17.732c-11.141,11.823-16.709,26.598-16.709,44.33c0,3.186,0.112,5.685,0.341,7.502
		c2.047,19.554,9.942,36.093,23.7,49.614c13.752,13.528,30.743,20.291,50.979,20.291c17.956,0,32.564-5.967,43.817-17.902
		s16.881-26.77,16.881-44.5C727.689,194.771,727.572,192.271,727.348,190.45z"/>
	<path d="M837.491,143.051v99.514c0,7.069,1.135,11.972,3.41,14.705c2.27,2.739,7.385,4.562,15.345,5.473h3.751v4.773l-4.748-0.341
		c-6.788-0.548-11.317-0.911-13.576-1.092s-5.424-0.272-9.495-0.272h-11.2c-3.617,0-7.405,0.182-11.364,0.549
		c-3.958,0.357-7.859,0.635-11.706,0.815h-4.748l0.341-4.433h3.751c7.955-0.911,13.07-2.68,15.345-5.303
		c2.271-2.621,3.41-7.586,3.41-14.887V138.548c0-7.14-1.141-12.095-3.41-14.86c-2.274-2.765-7.39-4.609-15.345-5.53H793.5v-4.774
		l4.737,0.341c6.767,0.682,11.273,1.14,13.533,1.364c2.254,0.229,5.413,0.341,9.479,0.341h16.24l-0.032,16.187l72.383-13.475
		c8.626-1.769,16.458-3.165,23.497-4.177c7.033-1.012,12.254-1.774,15.665-2.286h4.77v4.763l-3.757,0.677
		c-7.735,1.364-12.51,3.346-14.333,5.957c-1.821,2.611-2.728,7.769-2.728,15.473l7.134,103.397c0,7.305,1.364,12.372,4.098,15.196
		c2.733,2.823,8.088,4.235,16.06,4.235h3.756l0.682,4.433h-4.773c-3.188,0-6.085,0-8.701,0s-5.062,0-7.332,0
		c-3.187,0-5.573,0-7.161,0h-11.258c-3.682,0-7.534,0.518-11.563,1.551c-4.027,1.033-7.991,1.992-11.897,2.883h-4.833v-4.773
		l3.814-0.683c8.084-1.364,13.05-3.353,14.897-5.968c1.849-2.61,2.776-7.784,2.776-15.516l-7.849-113.553L837.491,143.051z"/>
	<path d="M1091.875,226.596c0,11.823-5.115,22.165-15.345,31.031c-10.23,8.866-23.188,13.299-38.874,13.299
		c-8.413,0-16.485-1.48-24.211-4.433c-4.55-2.046-9.095-4.204-13.641-6.479l-5.456-32.054h4.774
		c5.456,22.964,18.297,34.44,38.533,34.44c10.229,0,18.584-2.498,25.063-7.502c6.479-4.998,9.718-12.047,9.718-21.142
		c0-8.407-3.298-15.687-9.889-21.823c-5.232-4.774-15.345-11.254-30.349-19.438c-11.142-6.362-19.438-12.389-24.894-18.073
		c-7.049-7.502-10.57-15.567-10.57-24.211c0-12.5,4.033-22.335,12.104-29.497c8.066-7.161,18.925-10.741,32.565-10.741
		c5.908,0,13.752,1.822,23.528,5.456c5.456,2.046,10.23,3.069,14.322,3.069l4.433,24.552h-4.433
		c-3.847-9.319-9.724-16.027-17.642-20.119c-6.106-3.181-13.342-4.774-21.707-4.774c-7.241,0-13.348,2.387-18.323,7.161
		c-4.978,4.774-7.459,10.688-7.459,17.732c0,7.502,4.545,14.322,13.64,20.46c1.817,1.364,7.386,4.662,16.709,9.89
		c20.46,11.141,33.472,20.348,39.044,27.621C1089.088,208.299,1091.875,216.824,1091.875,226.596z"/>
	<path d="M1163.054,115.43c1.359,0,6.458-0.283,15.303-0.853c8.839-0.565,16.433-0.853,22.784-0.853
		c16.55,0,29.814,3.708,39.789,11.125c9.976,7.417,14.963,16.491,14.963,27.216c0,14.38-6.256,26.246-18.756,35.603
		c-12.506,9.355-27.396,14.034-44.672,14.034h-7.16v-4.433h4.435c12.274,0,22.729-3.555,31.371-10.668
		c8.637-7.106,12.959-16.746,12.959-28.904c0-10.092-3.582-18.691-10.742-25.804c-7.16-7.108-17.221-10.667-30.178-10.667
		c-6.367,0-10.689,0.229-12.959,0.688c-2.275,0.458-3.41,3.777-3.41,9.958v110.606c0,7.097,1.135,12.021,3.41,14.77
		c2.27,2.75,7.385,4.577,15.346,5.494h3.75v4.773l-4.746-0.341c-6.789-0.682-11.318-1.14-13.577-1.364
		c-2.259-0.224-5.424-0.341-9.495-0.341h-11.2c-3.618,0-7.405,0.229-11.364,0.683c-3.958,0.453-7.859,0.793-11.706,1.022h-4.748
		l0.341-4.433h3.751c7.955-0.911,13.069-2.68,15.345-5.307c2.27-2.627,3.41-7.599,3.41-14.908V138.373
		c0-7.081-1.141-11.994-3.41-14.732c-2.275-2.739-7.39-4.566-15.345-5.482h-3.751v-4.774l4.764,0.341
		c6.798,0.682,11.328,1.14,13.598,1.364c2.27,0.229,5.444,0.341,9.526,0.341L1163.054,115.43L1163.054,115.43z"/>
	<path d="M1364.326,187.04h-30.689v55.455c0,5.968,0.564,9.644,1.705,11.019c1.136,1.381,4.434,2.067,9.89,2.067h26.257
		c8.637,0,14.663-1.156,18.073-3.47c3.409-2.313,7.613-7.741,12.616-16.299l7.502-0.691c-4.321,7.049-7.391,13.188-9.207,18.414
		c-0.911,2.504-2.163,6.82-3.751,12.958l-38.874-0.683h-40.579c-3.639,0-7.447,0.225-11.424,0.683
		c-3.979,0.453-7.9,0.794-11.764,1.022h-4.774l0.341-4.433h3.751c7.955-0.917,13.07-2.69,15.346-5.323
		c2.271-2.632,3.409-7.607,3.409-14.939v-104.4c0-7.097-1.14-12.015-3.409-14.764c-2.274-2.75-7.391-4.582-15.346-5.499h-3.751
		l-0.341-4.774l4.774,0.341c6.818,0.682,11.364,1.14,13.64,1.364c2.271,0.229,5.456,0.341,9.548,0.341h79.112l5.797,27.28
		l-5.456-0.341c-2.046-7.726-4.15-12.5-6.309-14.322c-2.163-1.817-6.879-2.728-14.151-2.728h-42.625v52.173h30.689
		c2.729,0,5.228-1.247,7.502-3.751c2.271-2.499,3.976-5.115,5.114-7.844h2.047c2.951,7.278,8.066,12.41,15.346,15.404v2.083
		c-7.278,3.005-12.395,8.2-15.346,15.591h-2.047c-1.14-2.809-2.845-5.5-5.114-8.072
		C1369.554,188.329,1367.055,187.04,1364.326,187.04z"/>
	<path d="M1490.494,242.559c0,5.941,0.563,9.597,1.705,10.965c1.135,1.375,4.433,2.058,9.889,2.058h25.234
		c8.866,0,14.887-0.806,18.073-2.419c3.181-1.609,7.726-6.219,13.64-13.816l8.184-10.363h7.843
		c-5.913,7.871-10.688,15.394-14.32,22.565c-2.729,5.323-4.774,10.646-6.14,15.968l-68.882-1.705h-11.594
		c-3.639,0-7.448,0.225-11.424,0.683c-3.979,0.453-7.901,0.794-11.764,1.022h-4.774l0.341-4.433h3.751
		c7.955-0.917,13.07-2.69,15.345-5.323c2.271-2.632,3.41-7.607,3.41-14.939v-104.4c0-7.097-1.14-12.015-3.41-14.764
		c-2.273-2.75-7.39-4.582-15.345-5.499h-3.751v-4.774l4.747,0.341c6.788,0.682,11.313,1.14,13.571,1.364
		c2.259,0.229,5.43,0.341,9.5,0.341h11.198c3.613,0,7.401-0.224,11.36-0.682c3.958-0.453,7.864-0.794,11.711-1.023h4.747
		l-0.341,4.433h-3.751c-7.96,0.917-13.075,2.685-15.345,5.312c-2.275,2.632-3.41,7.598-3.41,14.908L1490.494,242.559
		L1490.494,242.559z"/>
	<path d="M1644.624,242.559c0,5.941,0.564,9.597,1.705,10.965c1.135,1.375,4.433,2.058,9.889,2.058h25.234
		c8.866,0,14.887-0.806,18.073-2.419c3.181-1.609,7.726-6.219,13.64-13.816l8.184-10.363h7.844
		c-5.914,7.871-10.688,15.394-14.321,22.565c-2.729,5.323-4.774,10.646-6.14,15.968l-68.882-1.705h-11.594
		c-3.639,0-7.448,0.225-11.424,0.683c-3.979,0.453-7.901,0.794-11.764,1.022h-4.774l0.341-4.433h3.751
		c7.955-0.917,13.07-2.69,15.345-5.323c2.271-2.632,3.41-7.607,3.41-14.939v-104.4c0-7.097-1.14-12.015-3.41-14.764
		c-2.273-2.75-7.39-4.582-15.345-5.499h-3.751v-4.774l4.747,0.341c6.788,0.682,11.313,1.14,13.571,1.364
		c2.259,0.229,5.43,0.341,9.5,0.341h11.198c3.613,0,7.401-0.224,11.36-0.682c3.958-0.453,7.864-0.794,11.711-1.023h4.747
		l-0.341,4.433h-3.751c-7.96,0.917-13.075,2.685-15.345,5.312c-2.275,2.632-3.41,7.598-3.41,14.908L1644.624,242.559
		L1644.624,242.559z"/>
</g>
</svg>
