<!--
  SVG Music Logos
  Kaihoro - Mainheadskull v1.0.0
  https://github.com/tiagoporto/svg-music-logos
  Copyright (c) 2016-2019 Tiago Porto (http://tiagoporto.com)
-->
<svg xmlns="http://www.w3.org/2000/svg" viewBox="0 0 200 59">
  <path d="M53,4.5v5h2.424C54.002,11.5,53,14.452,53,17.6v15.9h7v-12h6v12h6v-29H53z M66,16.5h-5.913	c0-2,2.913-6.069,5.913-6.069V16.5z"/>
  <path d="M74.66 4.511H81.94V33.494H74.66z"/>
  <path d="M95 4.5L95 12.5 91 12.5 91 4.5 83 4.5 83 33.5 91 33.5 91 18.5 95 18.5 95 33.5 103 33.5 103 4.5z"/>
  <path d="M105,4.5v5h2.72c-2.206,3-3.72,4.24-3.72,9.203V33.5h21v-29H105z M117,27.5h-5V15.98	c0-2.547,2-5.801,5-5.801V27.5z"/>
  <path d="M127,4.5v29h7V19.753c4,0.19,5,4.125,5,6.336c0,3.703,0,7.411,0,7.411h8c0,0,0-1.896,0-6.958	c0-7.073-3.141-8.772-5.608-9.849c4.116-3.013,6.507-6.193,5.365-12.193H127z M134,14.032V10.5h5.135	C139.135,12.5,137,14.032,134,14.032z"/>
  <path d="M46.532 40.5L153.249 40.5 147.675 34.5 52.288 34.5z"/>
  <path d="M45.731,14.783C49.666,13.775,51.352,8.5,51.352,4.5h-8.036c0,4,0.684,8.058-5.316,8.058V4.5h-0.248H3.315	l5.133,6H31v2H10.825l5.133,6H31v2H18.257l5.133,5H31v28.917l12-11.65V33.16L38,37V18.349c4,0.394,6,1.457,6,6.618	c0,4.569,0,15.944,0,15.944l7-7.417v-8.982C51,19.583,50.482,16.87,45.731,14.783z"/>
  <path d="M190.999,10.5l5.133-6H149v5h2.983c-2.285,2-2.983,5.248-2.983,9.912v14.082l20,20.631V25.5h7.057l5.133-5	H169v-2h14.489l5.133-6H169v-2H190.999z M161,37.374l-6-6.246v-14.67c0-2.429,3-5.79,6-5.79V37.374z"/>
</svg>