<!--
  SVG Music Logos
  Prince - Love Symbol v1.0.0
  https://github.com/tiagoporto/svg-music-logos
  Copyright (c) 2016 Tiago Porto (http://tiagoporto.com)
-->
<svg xmlns="http://www.w3.org/2000/svg" viewBox="0 0 172.11 200">
  <path d="M167.21 52.11c-16.53 16.53-32.336 21.4-60.26 22.227 10.39-7.085 17.232-19.148 17.232-32.844C124.182 19.68 106.832 2 85.432 2 64.03 2 46.68 19.68 46.68 41.493c0 14.652 7.834 27.43 19.46 34.247-.57.062-1.128.126-1.67.194C34 79.88 3.728 94.89 3.728 116.922c0 0-1.854 18.046 18.918 18.046 10.784 0 15.338-7.94 15.338-12.824 0-6.873-5.968-10.306-11.98-10.306-5.336 0-10.076 1.842-10.076 7.5 0 3.71 1.945 6.734 7.425 6.734 4.575 0 6.045-2.543 6.045-5.338s-2.288-5.083-2.288-5.083 6.353 1.525 6.353 6.355-5.338 8.388-10.167 8.388c-9.694 0-13.725-4.066-13.725-12.454.613-26.478 53.508-32.03 69.64-32.03l-.004 29.036-7.045.005-6.48-5.97v26.05l6.423-5.972h7.107l.003 40.732-11.183-7.37L86.585 198l18.302-35.59-10.677 7.378-.004-40.73h7.114l5.596 5.956v-26.05l-5.592 5.986-7.12-.008.003-29.29 23.64.007c28.517 0 50.578 24.4 50.578 24.4s-15.83-25.292-1.214-57.95zM85.687 66.85c-13.248 0-24.027-11.14-24.027-24.832s10.778-24.832 24.026-24.832c13.25 0 24.028 11.14 24.028 24.832 0 13.693-10.78 24.833-24.028 24.833z"/>
</svg>
