<!--
  SVG Music Logos
  Tool - Sober v1.0.0
  https://github.com/tiagoporto/svg-music-logos
  Copyright (c) 2016 Tiago Porto (http://tiagoporto.com)
-->
<svg xmlns="http://www.w3.org/2000/svg" viewBox="0 0 200 58">
  <path d="M198 56.136H2V1.864h196v54.272zM3.438 54.699h193.125V3.301H3.438v51.398z"/>
  <polygon points="53.835 19.215 53.835 12.204 14.2 12.204 14.2 19.215 26.828 19.215 26.828 46.152 44.735 46.152 44.735 39.208 41.533 39.208 41.533 19.215"/>
  <path d="M174.202 36.327v2.239h-7.849V12.137h-18.635v6.697s2.895.493 2.895 1.799v25.519h32.383v-9.826h-8.794z"/>
  <path d="M82.387 11.469h-12.89c-5.035 0-13.365 3.906-13.365 8.101v18.78c0 4.41 7.12 8.113 16.689 8.113h8.993c7.395 0 15.37-3.284 15.37-8.113 0-3.46.024-14.985.024-18.68 0-4.442-8.987-8.201-14.821-8.201zm-.573 25.4c0 2.646-3.546 3.349-5.274 3.425-1.794.079-5.276-1.262-5.276-3.425V20.587c0-1.651 3.243-2.714 5.56-2.714 1.988 0 4.99 1.041 4.99 2.714v16.282z"/>
  <path d="M130.554 11.469h-13.387c-5.035 0-13.365 3.906-13.365 8.101v18.78c0 4.41 7.12 8.113 16.689 8.113h8.993c7.395 0 15.37-3.284 15.37-8.113 0-3.46.024-14.985.024-18.68-.001-4.442-8.829-8.201-14.324-8.201zm-1.07 25.4c0 2.646-3.546 3.349-5.274 3.425-1.794.079-5.276-1.262-5.276-3.425V20.587c0-1.651 3.243-2.714 5.56-2.714 1.988 0 4.99 1.041 4.99 2.714v16.282z"/>
</svg>
