<!--
  SVG Music Logos
  Tool - 10000 Days v1.0.0
  https://github.com/tiagoporto/svg-music-logos
  Copyright (c) 2016-2024 Tiago Porto (http://tiagoporto.com)
-->
<svg xmlns="http://www.w3.org/2000/svg" viewBox="0 0 800 200">
  <path d="M757.8 160.1V45.4c0-17-14.6-30.8-32.7-30.8H73.3c-17.4 0-31.7 12.9-32.6 29.2h-.1V56c0 8.5-7.3 15.4-16.3 15.4H8.2v8.8h16.1c9 0 16.3 6.9 16.3 15.4v59c0 17 14.6 30.8 32.7 30.8h718.4v-9.9H774c-8.9 0-16.2-6.9-16.2-15.4zm-440.7-.1c0 8.5-7.3 15.4-16.3 15.4h-73.9c-9 0-16.3-6.9-16.3-15.4V95.6c0-8.5 7.3-15.4 16.3-15.4h73.9c9 0 16.3 6.9 16.3 15.4V160zm267.1 0c0 8.5-7.3 15.4-16.3 15.4H494c-9 0-16.3-6.9-16.3-15.4V95.6c0-8.5 7.3-15.4 16.3-15.4h73.9c9 0 16.3 6.9 16.3 15.4V160zm110.2.1c0 8.5-7.3 15.4-16.3 15.4h-36.8c5.4-5.5 8.6-12.8 8.6-20.8v-52.4c0-17-14.6-30.8-32.6-30.8H449.8c-18 0-32.7 13.8-32.7 30.8v52.4c0 8 3.3 15.4 8.6 20.8h-51.5c5.3-5.5 8.6-12.8 8.6-20.8v-52.4c0-17-14.6-30.8-32.6-30.8H182.7c-18 0-32.7 13.8-32.7 30.8v52.4c0 8 3.3 15.4 8.6 20.8h-44.2c-9 0-16.3-6.9-16.3-15.4V95.6c0-8.5 7.3-15.4 16.3-15.4h16.1v-8.8h-16.1c-9 0-16.3-6.9-16.3-15.4V39.9c0-8.5 7.3-15.4 16.3-15.4H678c9 0 16.3 6.9 16.3 15.4v120.2z"/>
</svg>