<!--
  SVG Music Logos
  Cavalera Conspiracy - CC v1.0.0
  https://github.com/tiagoporto/svg-music-logos
  Copyright (c) 2016 Tiago Porto (http://tiagoporto.com)
-->
<svg xmlns="http://www.w3.org/2000/svg" viewBox="0 0 200 85.333">
  <polygon points="70.332 36.068 70.332 10.497 3.361 10.497 3.361 36.068 70.332 36.068"/>
  <polygon points="70.027 56.159 3.969 56.159 3.969 81.426 70.027 81.426 70.027 56.159"/>
  <polygon points="74.289 10.497 74.289 81.426 97.729 81.426 97.729 10.497 74.289 10.497"/>
  <polygon points="101.991 5.018 101.991 75.946 125.43 75.946 125.43 5.018 101.991 5.018"/>
  <polygon points="129.083 5.322 129.083 30.284 195.75 30.284 195.75 5.322 129.083 5.322"/>
  <polygon points="195.446 50.68 129.083 50.68 129.083 75.642 195.446 75.642 195.446 50.68"/>
</svg>
