<!--
  SVG Music Logos
  Sepultura - Dante XXI v1.0.0
  https://github.com/tiagoporto/svg-music-logos
  Copyright (c) 2016 Tiago Porto (http://tiagoporto.com)
-->
<svg xmlns="http://www.w3.org/2000/svg" viewBox="0 0 200 40">
  <g class="sepultura__background">
    <path
      d="M17.56 2.08c.86.224.43 3.418 1.878 5.42 2.807 3.88 5.776 3.27 5.776 4.344s-.428 1.887-2.002 1.69c-1.086-.136-4.83-2.71-5.794-5.445-.268 2.306-1.788 5.328-4.524 6.49 1.877 1.18 5.753 5.133 7.206 5.57 1.806.545 3.206.416 5.64.363 1.69-.037 2.872-.033 2.872 1.13 0 2.432-1.814 1.25-5.033 2.378-3.22 1.127-4.446 6.814-4.57 11.695-.068 2.63-1.166 2.275-2.898 2.414-2.736.218-4.59.513-4.88-.806-.43-1.95.15-6.396-1.853-9.007-3.892-5.072-7.196-3.134-7.374-4.958-.11-1.123 1.358-1.503 2.324-1.396 1.903.21 6.08 1.833 8.082 7.295.635-3.423 1.77-7.118 4.452-8.19-2.253-2.575-5.525-5.686-7.617-6.062s-6.494 0-7.03-.805-.105-1.985 1.826-2.092 5.31-2.412 5.9-4.45c.59-2.038.806-5.632 1.968-5.507 1.32.14 4.203-.448 5.65-.072z" />
    <path
      d="M38.267 1.598c.805 0 1.23 1.27 1.556 2.52 1.198 4.614 5.257 6.52 7.725 6.6 1.716.055 2.092.053 2.092.535 0 .483-.47 1.478-1.287 1.556-1.985.187-3.403.02-6.062-1.664-1.477-.936-2.672-2.436-3.86-4.506-.697.858-2.2 3.004-2.95 3.11 3.218-.16 5.182 2.705 6.593 3.426 3.17 1.617 6.977-.126 6.977 1.617 0 1.128-1.96 1.89-3.192 1.824-3.996-.215-6.187-2.73-8.51-3.883 2.146 2.682 4.272 7.852 4.218 12.358 1.287-2.36 4.853-6 6.677-6 1.17 0 1.664.287 1.664 1.036 0 1.423-.85 1.718-2.19 2.04-1.34.322-4.73 2.817-5.374 6.464s.43 9.012-1.663 9.12-5.793.428-5.847-.86c-.054-1.286-.054-12.337-1.61-17.54-1.555-5.203-5.98-5.82-6.087-6.68-.107-.857.56-1.478 2.034-1.424 1.877.068 5.637-2.65 7.434-5.736 1.223-2.097-.697-3.914 1.663-3.914z" />
    <path
      d="M197.515 34.838c-.5-1.645-6.795-25.677-7.08-27.25-.287-1.574-1.423-5.436-2.424-5.436-1.143 0-.938.572-1.724 2.217-.787 1.644-9.298 28.537-9.87 30.11-.572 1.574-1.216 3.362 0 3.553.753.12 2.55-.744 5.22-2.445 1.82-1.158 4.65-1.15 6.94-1.11 5.362.098 6.562 3.078 7.92 3.508 2.136.676 1.52-1.502 1.02-3.148zm-13.66-2.324c2.002-4.578 6.078-17.38 6.078-17.38s5.078 18.203 5.436 19.347c-3.148-2.86-8.226-3.11-11.516-1.966z" />
    <path
      d="M172.624 22.465c-.085-4.68-3.356-5.903-7.295-4.077 0 0 6.624-12.168 7.125-13.17.5-1 1.135-2.172-.188-2.207-1.18-.03-1.86 2.29-4.363 3.076-2.503.787-5.257-1.153-5.615-2.155-.36-1-.394-1.42-1.825-1.42-1.43 0-3.576.07-4.506 0-.93-.073-1.288.5-1.288 1.5v30.47c0 2.074-.268 3.56.715 3.56.5 0 4.29.16 4.935 0 .644-.16 1.216-.628 1.216-1.415s.215-7.27.215-10.058c.787-1.144 4.05-6.262 5.767-6.262s3.174.943 3.353 2.945c.102 1.14.215 6.223.18 12.016-.012 1.788.428 2.432.857 2.432s1.287-.858 1.287-1.574c0-.713-.5-9.725-.573-13.66zm-11.23.143l.117-16.13c1.6 1.53 4.464 2.76 7.395 1.54l-7.51 14.59z" />
    <path
      d="M70.346 4.267c-1.34-.926-1.46-.352-2.575.522-1.876 1.474-4.147 1.438-5.506.938-1.36-.5-2.27-2.503-4.072-2.968-.915-.236-2.89.038-3.916.038s-1.42 1.25-1.15 2.34c.146.585.484 28.913.27 30.727-.216 1.814.996 2.364 1.5 2.482.672.157 1.132-.064 2.04-.165.932-.105 1.854-.11 2.18-.314.644-.403 1.216-1.313 1.073-2.672-.144-1.36-.573-8.583-.573-8.583S70.274 7.588 70.632 6.658c.357-.93.484-1.86-.286-2.39zM67.474 8.84c-.143.5-7.785 13.974-7.785 13.974V9.304c0-1 .142-1.93 0-3.146 2.69 3.165 5.563 2.123 7.25 1.69.938-.242.677.49.534.992z" />
    <path
      d="M90.3 2.52c.73-.142 1.437.696 1.366 3.772s-.564 23.826-.213 26.33c.35 2.503.28 5.245-.293 5.247-1.314.004-3.03-2.736-4.99-3.04-1.697-.264-6.025-.635-7.74.08-1.718.715-3.577 3.485-4.507 2.958-.93-.527-1.287-1.814-1.287-5.39 0-3.576-.143-24.604 0-25.963.143-1.36-.322-3.03.823-3.362 1.143-.332 2.324-.072 3.04-.286.714-.215 1.43-.552 2.43-.347 1.002.204.788 1.706.86 3.637.07 1.93 0 25.248.142 25.748.143.5.035.59.876.402 1.044-.232 6.357-.59 7.75.966 1.555 1.734 1.03-.51.958-2.226-.072-1.717-.787-18.095-.644-20.098.143-2.004.072-6.703.215-7.322.14-.617.427-.955 1.214-1.108z" />
    <path
      d="M113.853 33.034c.35 2.503-.695 4.263-1.267 4.237-.572-.025-2.558-2.42-4.25-2.718-2.076-.367-5.188-.304-6.904.41-.9.376-2.525 1.084-3.243 1.902-.86.98-1.52 1.12-2.336.942-1.064-.233-.892-1.752-.892-5.33 0-3.575-.143-24.603 0-25.962.143-1.36-.26-4.52.892-4.475 1.19.045 3.36.017 4.8.003 1.022-.01 1.214.58 1.286 2.51.072 1.93-.23 26.672-.087 27.172.143.5.482.632 1.323.447 1.303-.286 6.153-.604 7.836 1.005 1.59 1.518 1.138.237.988-2.24-.115-1.9-.465-5.775 1.314-5.775 1.102.003.188 5.37.54 7.872z" />
    <path
      d="M150.31 2.52c.73-.142 1.363.776 1.143 4.996-.16 3.072-.344 22.6.007 25.105.35 2.504.278 5.29-.293 5.248-.593-.042-1.542-.65-2.274-1.555-1.115-1.376-2.044-1.776-5.352-1.862-1.837-.047-3.986-.006-5.105.46-1.717.715-3.576 3.485-4.506 2.958s-1.288-1.814-1.288-5.39c0-3.576-.143-24.604 0-25.963.143-1.36-.25-3.083.894-3.415 1.144-.332 2.745 0 3.46-.215.715-.215 1.12-.512 2.12-.308 1.002.204.607 1.65.678 3.58s0 25.248.143 25.748.286.572 1.144.5c.86-.07 5.72-.71 7.658.82 1.186.937.876.065.783-2.178-.07-1.717-.786-18.095-.643-20.098.143-2.004.072-6.703.215-7.322s.43-.955 1.217-1.108z" />
    <path
      d="M110.74 4.555c0-.274 0-1.4.965-1.51.966-.106 17.22-.374 17.756-.267.537.107 1.557 1.3 1.288 1.777-.268.476-5.58.423-6.17.423-.59 0-.32 4.88-.32 5.954s.053 12.41-.055 13.75.054 10.335.054 11.354c0 1.02-.697 1.972-1.448 1.898-.752-.074-4.346-.128-4.83-.235-.482-.108-.804-1.18-.696-3.756.107-2.575.054-19.848.16-22.584s-.115-5.42-.198-5.843c-.105-.54-4.68-.292-5.005-.272-.572.036-1.502-.07-1.5-.69z" />
  </g>
  <g class="sepultura__foreground" fill="#FF0000">
    <path
      d="M187.93 7.302c.31.214.787 5.22.787 5.865s-6.51 18.882-6.723 19.526-2.575 1.87-3.076 1.654c-.1-.043-.268-.59.373-2.54 2.084-6.338 6.924-22.245 7.21-22.93.358-.86.966-1.897 1.43-1.575z" />
    <path
      d="M157.03 4.12c.696-.062 2.175.026 2.765.294.59.268.402.402.402 1.314v29.02s-.054 1.288-.697 1.288h-2.038s-.805-.062-.858-1.533c-.054-1.47-.033-28.096-.033-28.525 0-.428-.176-1.803.46-1.86z" />
    <path
      d="M15.094 3.636c.59-.054 1.02.373 1.02 1.02 0 3.468-3.1 8.22-4.17 8.433-1.074.214-3.233.04-3.233-.39 0-.428.323-.59 1.235-1.555S12.412 7.91 12.5 6.197c.083-1.613.36-2.386.842-2.328.482.057 1.752-.234 1.752-.234z" />
    <path
      d="M18.74 22.358c.807 0 2.524-.134 2.524.805 0 .295-1.476 1.525-2.577 3.567-.94 1.743-1.515 4.058-1.663 7.108-.073 1.502-.107 1.824-.43 1.877-.32.054-1.608.15-1.984.15s-.927.064-.916-1.223c.015-1.666 1.077-8.207 2.15-9.763s1.878-2.522 2.897-2.522z" />
    <path
      d="M33.87 12.094c2.145 1.895 5.202 7.85 5.9 11.015s.483 10.084.483 10.728.054 2.03-.644 2.03h-1.932s-.79.063-.79-1.332-.145-9.035-.63-11.8c-.59-3.354-3.76-8.416-4.373-8.96-.626-.553-.787-1.072-.268-1.233.324-.1.967-.428 1.234-.644.375-.307.634-.146 1.02.194z" />
    <path
      d="M57.295 4.73c.263.324.606.927.606 2.072v26.964s0 1.912-.357 2.1c-.358.188-2.074.168-2.29 0-.214-.17-.428-1.957-.428-3.96s-.31-24.568-.095-25.355c.215-.786-.048-1.894.668-1.966.715-.07 1.544-.288 1.897.146z" />
    <path
      d="M76.783 4.8c.342.295.992.2.865 1.358-.094.856.127 24.917.127 25.775 0 1.046-.635 1.19-.992 1.475-.358.286-1.93 1.93-2.003.286-.072-1.645 0-15.45 0-17.738s-.135-8.654-.032-9.37c.103-.715-.183-1.717.747-1.788.717-.055.7-.51 1.288 0z" />
    <path
      d="M99.492 4.555c.286.244.25 1.28.18 2.14s.31 24.532.303 25.39c-.007.858-.16 1.158-1.283 1.627-.715.3-1.513 1.627-1.585-.018-.072-1.645 0-15.45 0-17.738s-.135-8.654-.032-9.37c.103-.715-.265-2.148.45-2.22.715-.07 1.68-.054 1.967.19z" />
    <path
      d="M136.79 4.8c.343.295.93.786.86 1.644s.265 24.604.258 25.462-.76 1.216-1.118 1.502c-.358.286-1.93 1.93-2.003.286-.072-1.645 0-15.45 0-17.738s-.006-8.647-.032-9.37c-.04-1.1.032-1.717.747-1.788s.7-.51 1.29 0z" />
    <path
      d="M122.068 5.03c.372.258.463.556.392 1.414-.072.858.007 27.5 0 28.36-.007.857-1.273.447-1.695.626-.567.24-1.345.63-1.417-1.015s.25-16.17.25-18.46-.134-8.653-.03-9.37c.102-.714.04-1.626.47-1.69.71-.103 1.662-.118 2.03.136z" />
  </g>
</svg>
