<!--
  SVG Music Logos
  Viper - Projeto SP Metal v1.0.0
  https://github.com/tiagoporto/svg-music-logos
  Copyright (c) 2016 Tiago Porto (http://tiagoporto.com)
-->
<svg xmlns="http://www.w3.org/2000/svg" viewBox="0 0 200 148">
  <path d="M127.908 3.42c15.516 7.234 43.292 21.543 43.292 52.114 0 7.017-5.255 12.04-10.054 12.516-4.742.47-9.028-3.53-9.028-10.464v-30.98C115.598 63.945 72.92 59.637 43.58 29.27v78.377C29.75 93.814 22.248 79.83 22.757 64.664c.78-23.234 21.03-49.14 51.19-61.245-27.8 4.822-44.573 14.747-55.652 26.365l-.05 4.54-1.694.19-1.54 1.655 1.078 2.693-3.32.07C6.3 50.396 4.744 63.853 5.03 75.026l1.9 1.653-1.926 1 .003 1.576 2.23.77-2.23 2.538c7.385 25.93 22.393 41.28 46.702 51.55 14.388 6.078 12.695 9.13 20.184 10.464-5.18-5.672-10.594-14.186-10.86-31.725 8.272-8.78 19.5-11.48 36.97-12.285-2.95-2.283-5.058-5.54-5.058-10.002V82.78h11.086v17.244c14.346.473 27.735 4.75 33.934 12.563l-.006.6c-.25 20.078-3.54 25.254-8.002 30.57 12.068-4.292 24.828-9.65 35.598-17.08v-1.85c-6.668.36-11.08-4.332-11.08-11.57v-18.46c0-4.738.72-6.335 2.77-6.335 5.746 0 12.475 24.62 12.475 34.944 9.12-7.163 16.712-16.126 21.38-27.66-7.848.308-17.03-2-17.03-12.105 0-8.155 13.696-5.334 17.03 7.9C193.975 85.59 195 79.834 195 73.792c0-.96-.01-1.918-.035-2.872l-1.247-2 1.227-1.335.055-3.254-1.334-1.384c-1.323-10.137-4.103-21.62-8.925-30.494l-3.077-.41.667-2.36-2-.103.308-3.386c-8.823-9.438-27.037-19.967-52.73-22.774zm-66.17 99.202l-2.54 1.017c-.005-.342-.005-.714 0-1.12.288-22.03 0-48.704 0-53.345.567.31 1.155.613 1.76.912.457.64.78 1.553.78 2.986v49.55zm16.928-10.464c0 2.462-.605 5.914-.913 6.837-1.95-1.847-2.677-3.657-2.677-7.453v-27.71c0-2.77.41-7.426 1.603-8.772 1.05 1.488 1.987 4.54 1.987 8.58v28.518zm13.696-22.86v-3.044c2.436 0 4.052-.23 4.052 1.6 0 1.452-1.488 1.445-4.052 1.445zm40.983 30.4V87.913c-9.752 3.938-15.03 2.216-15.03-3.5 0-6.02 10.398-6.446 15.03-.052V66.82c-5.694 3.487-15.234 5.744-15.9-1.232-.82-8.578 10.463-5.847 15.054-2.308V50.867c0-3.77.986-5.944 3.1-7.72.098 8.713 2.38 43.21 2.384 66.246-2.26-2.253-4.64-5.598-4.64-9.695z"/>
</svg>
