<!--
  SVG Music Logos
  AC/DC - Powerage v1.0.0
  https://github.com/tiagoporto/svg-music-logos
  Copyright (c) 2016 Tiago Porto (http://tiagoporto.com)
-->
<svg xmlns="http://www.w3.org/2000/svg" viewBox="0 0 200 67">
  <path d="M186.422 46.42c-.313.458-.638.905-.985 1.342-.347.436-.75.873-1.186 1.31-.435.435-.894.838-1.375 1.207-.48.38-.985.715-1.5 1.017-.525.313-1.085.548-1.678.727-.593.168-1.197.28-1.835.324-.638.045-1.298 0-2.003-.134l1.32-3.805c-.404.133-.795.268-1.187.402-.392.123-.795.257-1.21.392-.413.134-.827.246-1.22.358-.39.112-.805.168-1.24.168-.527 0-1.008-.078-1.444-.235-.437-.157-.84-.37-1.21-.65-.38-.29-.704-.637-.984-1.05-.29-.415-.537-.85-.76-1.31-.214-.46-.426-.95-.617-1.477-.202-.526-.36-1.04-.493-1.544-.134-.503-.258-1.007-.358-1.51-.113-.505-.236-.975-.37-1.41l-2.82 3.546c-.168-.48-.324-.962-.46-1.444-.122-.48-.234-.974-.323-1.477-.09-.505-.146-1.03-.168-1.58-.024-.536-.046-1.05-.09-1.532 0-.918.066-1.925.223-3.02.157-1.087.38-2.217.694-3.38.302-1.153.694-2.33 1.175-3.503.48-1.186 1.03-2.305 1.645-3.38.604-1.074 1.276-2.07 1.992-3.01.726-.94 1.487-1.768 2.293-2.462.817-.705 1.667-1.242 2.562-1.645.895-.392 1.846-.582 2.853-.582.347 0 .75.056 1.208.157.46.112.873.28 1.253.492.368.224.648.504.85.85.19.358.224.75.09 1.186l1.778-.133c.962.09 1.746.358 2.36.817.605.46 1.098 1.04 1.467 1.746.38.694.66 1.51.862 2.45.19.94.38 1.96.548 3.056l3.682-.727 1.04 4.262 6.693-1.175c-.045-.873-.1-1.723-.168-2.562-.067-.828-.146-1.645-.257-2.45-.112-.818-.28-1.6-.492-2.362-.224-.772-.504-1.544-.85-2.328l-2.82 2.686c-.134-1.095-.324-2.092-.56-2.987-.235-.895-.515-1.69-.817-2.395-.313-.694-.65-1.31-1.018-1.835-.37-.526-.783-.985-1.242-1.377s-.94-.727-1.443-1.007c-.504-.292-1.052-.538-1.645-.762-.593-.213-1.197-.414-1.835-.593-.627-.168-1.298-.325-2.003-.46l.593-1.174c-.694-.346-1.433-.57-2.193-.66-.76-.088-1.522-.145-2.26-.19-1.746-.044-3.424.18-5.013.684-1.6.503-3.11 1.22-4.532 2.137-1.42.918-2.74 2.015-3.96 3.313-1.232 1.287-2.34 2.674-3.347 4.163-1.007 1.477-1.89 3.055-2.652 4.722-.772 1.656-1.42 3.335-1.97 5.047-.548 1.7-.95 3.368-1.22 5.013-.256 1.634-.39 3.2-.39 4.69.044.96.1 1.957.167 2.975.067 1.03.19 2.037.392 3.02.2.986.436 1.97.727 2.955.28.985.638 1.936 1.074 2.853l2.36-1.778c.437 1.096.952 2.104 1.545 3.02.594.92 1.266 1.702 2.026 2.362.772.65 1.634 1.152 2.596 1.51.962.348 2.037.516 3.212.516.705 0 1.376-.056 2.036-.19.65-.134 1.31-.224 1.958-.268l-1.5 3.02c2.138 0 4.264-.256 6.357-.782 2.104-.526 4.062-1.365 5.897-2.53 1.835-1.152 3.503-2.673 4.99-4.553 1.49-1.88 2.71-4.152 3.67-6.826l-5.64.47c-.268.395-.548.82-.85 1.28z"/>
  <path d="M162.978 9.894c-1.074.85-2.08 1.79-3.02 2.82-.94 1.03-1.825 2.138-2.653 3.346-.828 1.197-1.59 2.44-2.294 3.704-.693 1.265-1.32 2.55-1.868 3.872-.548 1.31-1.018 2.596-1.41 3.86-.392 1.277-.694 2.485-.917 3.65-.213 1.15-.37 2.237-.46 3.244L166.36 7.77c-1.186.558-2.305 1.274-3.38 2.124z"/>
  <path d="M144.65 21.006l-2.62 2.954c-.3-1.533-.67-2.965-1.085-4.297-.414-1.332-.985-2.507-1.7-3.536-.728-1.03-1.646-1.87-2.754-2.53-1.118-.648-2.506-1.096-4.162-1.308l.593-.918c-.793-.436-1.566-.76-2.338-.985-.76-.213-1.522-.347-2.294-.392-.76-.045-1.51-.023-2.26.067-.74.09-1.5.212-2.26.392-.76.18-1.522.358-2.26.56-.74.19-1.5.39-2.26.58-.773.203-1.523.38-2.26.527-.75.158-1.49.26-2.24.303l1.97-4.655-9.568 2.876-3.67 19.28 7.34-10.227-6.098 36.458 5.964-7.285-1.31 8.862 14.358-2.428-2.025 4.062c2.44-.257 4.7-.795 6.78-1.61 2.08-.807 3.96-1.847 5.673-3.112 1.7-1.265 3.212-2.697 4.52-4.297 1.31-1.59 2.452-3.323 3.414-5.18.962-1.86 1.723-3.795 2.294-5.83.572-2.037.963-4.085 1.176-6.167.224-2.07.258-4.14.1-6.2-.156-2.047-.49-4.04-1.017-5.964zM123.24 47.493c-1.466.448-3.156.705-5.08.795l2.495-15.734-6.423 9.434 3.603-22.425c.526-.123 1.04-.28 1.544-.46.493-.167.986-.323 1.467-.458.48-.123.962-.235 1.443-.324.48-.088.962-.156 1.443-.2.347 0 .705.034 1.052.1.347.068.683.147 1.018.236.324.09.65.168.985.257.324.09.66.18 1.007.27l-.392 1.9c.705-.088 1.332-.077 1.902.024.57.112 1.085.302 1.544.56.458.268.872.58 1.24.95.37.37.706.794.986 1.253.29.46.515.94.694 1.432.168.503.313 1.007.425 1.51.112.505.157 1.008.157 1.512s-.034.996-.123 1.477c-.135.65-.26 1.433-.37 2.33-.1.894-.246 1.823-.425 2.785-.168.962-.403 1.958-.683 2.977-.29 1.03-.683 2.025-1.186 2.988-.504.962-1.108 1.88-1.835 2.753-.715.873-1.61 1.667-2.685 2.36-1.073.704-2.337 1.264-3.803 1.7zm15.017-13.506c-.068 1.007-.158 2.014-.258 3.02-.112 1.008-.28 1.993-.492 2.955-.224.962-.57 1.88-1.052 2.753-.48.828-.985 1.645-1.51 2.45-.527.818-1.12 1.556-1.803 2.24-.683.67-1.466 1.264-2.36 1.767-.896.503-1.982.84-3.246 1.018l11.077-19.146c-.168.962-.29 1.947-.358 2.943z"/>
  <path d="M82.364 19.63c.962.09 1.746.358 2.36.817.605.46 1.098 1.04 1.467 1.746.38.694.66 1.51.863 2.45.19.94.38 1.96.548 3.056l3.683-.728 1.04 4.263 6.693-1.175c-.045-.873-.1-1.723-.168-2.562-.067-.828-.146-1.645-.257-2.45-.11-.818-.28-1.6-.492-2.362-.224-.772-.504-1.544-.85-2.328l-2.82 2.686c-.134-1.096-.324-2.093-.56-2.988-.235-.895-.515-1.69-.817-2.395-.312-.693-.648-1.308-1.017-1.834-.37-.526-.783-.985-1.242-1.377s-.94-.728-1.442-1.008c-.504-.29-1.052-.537-1.645-.76-.593-.214-1.197-.415-1.835-.594-.627-.168-1.298-.325-2.003-.46l.593-1.174c-.694-.347-1.433-.57-2.193-.66-.76-.09-1.522-.146-2.26-.19-1.746-.045-3.424.18-5.013.683-1.6.503-3.11 1.22-4.532 2.137-1.42.917-2.74 2.014-3.96 3.312-1.232 1.287-2.34 2.674-3.347 4.163-1.007 1.476-1.89 3.054-2.652 4.72-.77 1.657-1.42 3.336-1.968 5.048-.55 1.7-.95 3.368-1.22 5.013-.257 1.635-.392 3.2-.392 4.69.045.962.1 1.958.168 2.976.067 1.03.19 2.037.392 3.02.2.986.436 1.97.727 2.955.28.986.638 1.937 1.074 2.854l2.362-1.78c.436 1.097.95 2.105 1.544 3.022.593.918 1.265 1.7 2.025 2.36.773.65 1.635 1.153 2.597 1.512.962.347 2.036.515 3.212.515.704 0 1.375-.056 2.035-.19.65-.134 1.31-.224 1.958-.268l-1.5 3.02c2.138 0 4.264-.256 6.357-.782 2.104-.526 4.062-1.365 5.897-2.53 1.835-1.152 3.503-2.673 4.99-4.553 1.49-1.88 2.71-4.152 3.67-6.826l-5.64.47c-.267.392-.547.817-.85 1.276-.312.46-.637.906-.984 1.343-.347.436-.75.873-1.186 1.31-.436.435-.895.838-1.376 1.207-.48.38-.984.716-1.498 1.018-.526.313-1.086.548-1.68.727-.592.168-1.196.28-1.834.324-.638.044-1.298 0-2.003-.135l1.32-3.805c-.403.134-.794.27-1.186.403-.393.123-.796.257-1.21.392-.414.134-.828.246-1.22.358-.392.112-.806.168-1.242.168-.526 0-1.007-.077-1.443-.234-.436-.157-.84-.37-1.208-.65-.38-.29-.705-.637-.985-1.05-.29-.415-.537-.85-.76-1.31-.214-.46-.426-.95-.617-1.477-.2-.527-.358-1.042-.492-1.545-.134-.503-.258-1.007-.358-1.51-.112-.505-.235-.975-.37-1.41l-2.82 3.546c-.167-.48-.323-.96-.458-1.443-.123-.48-.235-.974-.324-1.477-.09-.504-.146-1.03-.168-1.578-.023-.537-.045-1.052-.09-1.533 0-.92.067-1.926.224-3.022.156-1.086.38-2.216.693-3.38.302-1.152.694-2.328 1.175-3.502.48-1.186 1.03-2.305 1.645-3.38.604-1.074 1.276-2.07 1.992-3.01.727-.94 1.488-1.768 2.294-2.462.816-.705 1.666-1.242 2.56-1.645.896-.393 1.847-.583 2.854-.583.347 0 .75.056 1.208.157.46.112.873.28 1.253.492.37.224.65.504.85.85.19.358.225.75.09 1.186l1.78-.132z"/>
  <path d="M64.494 9.894c-1.074.85-2.08 1.79-3.02 2.82-.94 1.03-1.825 2.138-2.653 3.346-.827 1.197-1.588 2.44-2.293 3.704-.694 1.265-1.32 2.55-1.87 3.872-.547 1.31-1.017 2.596-1.41 3.86-.39 1.277-.693 2.485-.917 3.65-.213 1.15-.37 2.237-.46 3.244L67.874 7.768c-1.186.56-2.305 1.276-3.38 2.126z"/>
  <path d="M41.833 47.236L38.42 23.893l-3.144 3.872-2.943-17.054-5.64 1.053.582-4.13-7.14 1.512L2.5 51.5l18.094-29.375L5.97 59.042l6.758-1.444 4.062-9.903 8.124-1.835-2.092 4.588 11.604-2.753.985 8.65 1.378-.123 2.227-2.954 1.052 6.1 7.206-1.836-1.89-14.424-3.55 4.128zm-21.63-7.408l6.95-17.446 1.174 15.41-8.124 2.036zm7.206 2.495l4.923-8.527 1.04 7.408-5.964 1.12z"/>
</svg>
