<!--
  SVG Music Logos
  Ozzy Osbourne - Blizzard Of Ozz v1.0.0
  https://github.com/tiagoporto/svg-music-logos
  Copyright (c) 2016 Tiago Porto (http://tiagoporto.com)
-->
<svg xmlns="http://www.w3.org/2000/svg" viewBox="0 0 200 119">
  <path d="M74.047 80.927h-5.88v9.257l7.31-6.7c2.47-2.105 1.078-2.56-1.43-2.557z"/>
  <path d="M105.378 90.095h4.708c-.078-4.815-4.673-8.087-10.098-8.242-6.478.084-10.2 3.934-10.313 10.145.014 12.705 19.303 14.296 20.41 1.903h-7.136l2.428-3.805zm-5.442 9.67c-10.852-1.71-7.6-17.105 4.137-11.953l-4.252 6.32.116 5.633z"/>
  <path d="M180.907 106.466v-9.313l3.827-1.025 3.748-7.937h-7.573v-5.718l6.104-4.636h1.24l5.56-7.96h-20.4V51.95l6.028-6.413 7.418-12.21h-12.21l17-30.29h-14.22l-11.048 17.54-9.66-17.386H142.12l-4.713 8.886h-20.168L111.21 22.12v-9.968l-27.878.068C57.3-9.517 27.546 8.097 22.632 33.512h-6.125L10.09 45.324l8.75 7.316h6.463C30.358 64.528 40.207 71.486 51.25 75h-5.644c-12.87-9.263-31.483-4.48-35.36 13.497h-3.04L2.5 96.035l9.012 3.422c4.814 15.445 28.17 21.58 40.914 10.448H77.57c5-.36 7.992-3.04 10.07-6.773 6.496 8.314 19.49 7.62 25.964-.084 4.907 7.37 12.23 8.89 17.543 3.837v3.13h7.98l3.197-4.306 3.785 4.22h13.407l3.11-2.32v2.607h2.43v6.38h21.417l6.723-2.673 4.304-7.456h-16.593zM154.017 4.948l12.017 20.242 12.984-20.242h8.71l-17.34 31.532h11.21l-4.355 6.935h-6.695v26.048l-3.99 3.99h-5.12V43.497H149.58l4.274-7.097h7.665l-10.73-21.13 1.827-3.162h-3.764l-3.062-7.16h8.228zm-35.845 10.43h28.643l-12.71 21.052h8.155l-4.65 7.094h-7.694l-8.533 13.61h26.094l-4.284 6.9h-35.107l12.732-20.45h-6.366l4.612-7.107h6.293l8.32-13.612h-19.71l4.205-7.488zm7.133 16.265l-.99 1.717h-6.176l-7.987 11.2v7.328h2.14l-1.118 1.94H96.73v-1.292l7.99-11.022v-8.398l4.445-7.327v5.854h16.14zM106.21 15.377L93.5 36.43h8.155l-4.65 7.095H89.31l-8.532 13.61h26.094l-4.284 6.9H67.48l12.733-20.45h-6.366l4.612-7.107h6.292l8.32-13.612h-19.71l4.205-7.488h28.642zm-56.966 18.19h-4.992c3.108-9.986 14.182-14.45 25.7-10.262v3.605l2.404 4.715h11.927l-1.11 1.94h-6.195l-7.395 11.28 3.605 5.546-6.656 9.8c-6.856 4.788-19.09 1.253-20.8-7.396h2.964l7.02-10.54-6.472-8.687zM25.147 43.613H14.3l3.685-6.942h7.078C29.61 3.043 64.295-1.234 79.405 12.498l-3.936.15-2.542 4.6c-19.584-7.795-34.507-.67-38.156 19.768H45.23l-3.554 6.815h-7.094c3.127 16.028 14.24 22.47 28.54 21.034l4.324 7.49c-20.89 3.44-36.482-5.57-42.3-28.74zm36.577 35.7v5.32l-3.158-5.32h3.158zM11.96 94.895H5.507l2.255-3.692 3.942-.073c2.604-13.833 16.234-23.548 29.085-15.726h-6.36v1.133c-9.158.36-16.136 3.572-17.14 14.615h5.897L20.64 95.01h-3.275c1.835 10.227 9.082 13.496 19.068 13.244l2.038 4.003c-15.273.932-24.175-5.316-26.51-17.36zm23.97 10.78h-4.806c-2.28-1.326-3.205-3.328-3.513-5.64h2.22l4.53-6.563-6.933-4.715c1.94-4.414 5.085-6.926 9.984-6.656l4.287 6.62-3.73 6.23 6.38 5.732H33.436l2.496 4.992zm40.3.13H63.578V94.382H53.31l7.507 11.508H38.3l-1.64-3.46h16.48l-5.178-8.047H40.54l2.504-3.98h2.243L37.09 77.77h16.048l2.847 3.807h-10.53l5.354 8.653h12.77V77.597h12.08c5.908.785 6.253 4.146 1.637 8.653l-3.537 4.02c11.5-.457 15.783 13.745 2.47 15.535zm7.69-15.32l-3.932-3.166c4.683-3.732 3.738-9.13-1.22-11.765l3.97-3.018h56.51l6.565-7.385 7.077-11.487h-26.256l1.026-1.744h7.692l10.872-18.665-5.948.038 3.385-5.577 6.052 10.46L141.2 51.92h12.52V77.25c-.62-.926-1.614-1.503-2.996-1.74h-22.96l-2.667 4.41v7.076h-2.247V75.613h-7.497l-2.87 5.363c-10.604-9.617-26.28-5.3-28.564 9.51zm41.405.736v6.95c.145 2.4-2.257 1.98-1.974.156v-3.79l1.975-3.316zm7.55 6.38c.018 4.518-2.933 8.737-7.827 8.74-5.246-.006-8.783-3.704-8.802-8.803v-3.634h-2.132c-.555 7.297-7.007 11.92-14.494 12.15-7.8-.1-13.594-5.493-13.637-13.77.286-8.867 5.86-14.036 13.918-14.093 7.185.08 13.36 3.93 13.92 11.77h2.346V77.64l4.845.04v12.286h2.3l-2.422 4.198v3.266c.222 2.426.917 4.56 3.88 4.644 2.906-.008 3.532-1.486 3.63-4.393v-20h4.476v19.923zm16.657 8.022l-7.172-12.538-3.067 2.46v10.194h-3.97V77.69h11.727c7.03.513 6.12 5.688 2.032 8.983l-3.475 3.36 8.128 15.59h-4.203zm11.37-20.096v20.358H156.6l.057-28.21h4.77l7.56 9.54V77.79h3.898v28.096h-4.014v-10.47l-7.967-9.888zm30.63 27.225h-18.67v-2.438l2.106-1.216V76.01l-2.12-1.224.082-2.545h16.88l-2.373 3.33h-9.49v14.958h6.575l-1.998 3.46h-4.578v15.17h15.66l-2.073 3.593z"/>
  <path d="M146.23 80.615l-6.707.03v10.458l7.256-6.403c3.183-2.577 3.076-4.058-.55-4.085z"/>
  <path d="M75.556 94.198h-7.382v8.205h7.382c7.652-.48 7.116-8.193 0-8.205z"/>
</svg>
