<!--
  SVG Music Logos
  Zakk Sabbath v1.0.0
  https://github.com/tiagoporto/svg-music-logos
  Copyright (c) 2016-2019 Tiago Porto (http://tiagoporto.com)
-->
<svg xmlns="http://www.w3.org/2000/svg" viewBox="0 0 200 68.5" class="zakk-sabbath">
  <g class="lettering">
    <path d="M187.951 16.5L182.515 16.5 182.515 9.49 176.462 14.686 176.462 47.998 182.515 47.998 182.515 21.443z"/>
    <path d="M192.774 15.908L190.977 17 190.977 2.215 184.924 7.384 184.924 15.973 189.657 15.973 184.924 21.094 184.924 47.998 190.977 47.998 190.977 23.669 192.947 25.379 192.947 65.584 199 60.352 199 22.156z"/>
    <path d="M41.424,15.952l-6.577,6.752v19.05l5.064,4.275l1.94-1.677v4.134h5.974V23.669L41.424,15.952z M40.372,42.285 V24.658l1.929,2.244v13.674L40.372,42.285z"/>
    <path d="M41.424,15.952l-6.577,6.752v19.05l5.064,4.275l1.94-1.677v4.134h5.974V23.669L41.424,15.952z M40.372,42.285 V24.658l1.929,2.244v13.674L40.372,42.285z"/>
    <path d="M121.46,15.952l-6.577,6.05v28.411l7.004-6.061v4.134h5.974V23.669L121.46,15.952z M120.408,42.285V24.658 l1.929,2.244v13.674L120.408,42.285z"/>
    <path d="M168.06,15.952l-6.577,6.05v28.411l7.004-6.061v4.134h5.974V23.669L168.06,15.952z M167.007,42.285V24.658 l1.929,2.244v13.674L167.007,42.285z"/>
    <path d="M63.872 18.933L57.82 23.997 57.82 28.836 56.421 30.818 56.421 2.977 50.368 8.06 50.368 48.486 56.421 48.486 56.421 37.783 57.82 39.793 57.82 60.3 63.872 56.617 63.872 37.677 61.812 34.52 63.872 30.903z"/>
    <path d="M80.325 18.933L74.272 23.997 74.272 28.836 72.874 30.818 72.874 2.977 66.821 8.06 66.821 48.486 72.874 48.486 72.874 37.783 74.272 39.793 74.272 60.3 80.325 56.617 80.325 37.677 78.264 34.52 80.325 30.903z"/>
    <path d="M153.358,15.952l-1.532,1.328V2.215l-6.053,5.442v42.757l13.504-10.961v-16.31L153.358,15.952z M151.826,42.036V24.787l1.279,1.527v14.519L151.826,42.036z"/>
    <path d="M137.766,15.952l-1.532,1.328V2.215l-6.053,5.442v42.757l13.504-10.961v-16.31L137.766,15.952z M136.234,42.036V24.787l1.279,1.527v14.519L136.234,42.036z"/>
    <path d="M20.642 34.586L29.455 23.669 11.566 7.359 4.99 14.461 20.736 28.787 12.356 39.058 35.505 59.577 35.505 48.486z"/>
    <path d="M100.591 34.586L91.779 23.669 109.667 7.359 116.244 14.461 100.498 28.787 108.878 39.058 85.728 59.577 85.728 48.486z"/>
  </g>
  <g class="outer">
    <path d="M24.588,34.542l8.769-10.698L11.347,2.977L1,14.461l16.31,14.732L8.103,39.277l30.516,27.008V47.257 L24.588,34.542z M36.601,61.901L10.909,39.452l8.506-10.26L3.543,14.637l7.717-8.769l19.554,17.801l-8.857,10.962l14.644,13.59 V61.901z"/>
    <path d="M82.615,47.257v19.028l30.515-27.008l-9.207-10.084l16.31-14.732L109.886,2.977l-22.01,20.867l8.769,10.698 L82.615,47.257z M84.632,48.221l14.644-13.59L90.42,23.669l19.554-17.801l7.717,8.769l-15.872,14.556l8.506,10.26L84.632,61.901 V48.221z"/>
  </g>
</svg>
