<!--
  SVG Music Logos
  Emigrate - Silent So Long v1.0.0
  https://github.com/tiagoporto/svg-music-logos
  Copyright (c) 2016-2019 Tiago Porto (http://tiagoporto.com)
-->
<svg xmlns="http://www.w3.org/2000/svg" viewBox="0 0 200 28">
  <path d="M25.308 7.232L25.308 1.802 1 1.802 1 26.198 25.308 26.198 25.308 20.768 6.43 20.768 6.43 16.715 25.308 16.715 25.308 11.285 6.43 11.285 6.43 7.232z"/>
  <path d="M199 7.232L199 1.802 174.692 1.802 174.692 26.198 199 26.198 199 20.768 180.123 20.768 180.123 16.715 199 16.715 199 11.285 180.123 11.285 180.123 7.232z"/>
  <path d="M72.811 20.768L72.811 7.232 91.688 7.232 91.688 1.802 67.381 1.802 67.381 26.198 91.688 26.198 91.688 11.285 79.95 11.285 79.95 16.715 86.258 16.715 86.258 20.768z"/>
  <path d="M57.655 1.846H63.085V26.198H57.655z"/>
  <path d="M28.432 1.846L28.432 26.198 33.862 26.198 33.862 7.277 38.15 7.277 38.15 26.198 43.58 26.198 43.58 7.277 47.868 7.277 47.868 26.198 53.298 26.198 53.298 1.846z"/>
  <path d="M121.118,1.846v24.352h5.43v-6.281h13.414v6.281h5.43V1.846H121.118z M139.962,14.486h-13.414v-7.21h13.414V14.486z"/>
  <path d="M118.706 1.846L94.326 1.846 94.326 26.198 99.757 26.198 99.757 7.277 118.706 7.277z"/>
  <path d="M172.445 1.846L148.106 1.846 148.106 7.277 157.56 7.277 157.56 26.198 162.991 26.198 162.991 7.277 172.445 7.277z"/>
</svg>
