<!--
  SVG Music Logos
  ZZ Top - Eliminator v1.0.0
  https://github.com/tiagoporto/svg-music-logos
  Copyright (c) 2016 Tiago Porto (http://tiagoporto.com)
-->
<svg xmlns="http://www.w3.org/2000/svg" viewBox="0 0 200 46" class="zz-top--eliminator">
  <polygon class="zz-top__line" points="84.763 31.61 78.56 37.402 178.185 37.402 183.82 31.61"/>
  <g class="zz-top__top">
    <polygon points="127.294 14.985 108.321 14.985 103.943 19.415 109.989 19.415 100.711 28.745 107.592 28.745 116.869 19.415 122.916 19.415"/>
    <path d="M129.144 14.985l-13.708 13.76h18.608l13.708-13.76h-18.608zm2.997 9.46h-6.254l5.16-5.16h6.255l-5.16 5.16z"/>
    <path d="M150.332 14.985l-14.386 13.76h6.335l4.17-4.092h12.273l9.747-9.67h-18.138zm6.515 5.5h-6.226l1.2-1.2h6.226l-1.2 1.2z"/>
  </g>
  <polygon class="zz-top__first-z" points="15.702 8.672 108.538 8.672 78.816 37.402 197 37.402 190.887 43.12 52.749 43.12 83.058 14.219 9.617 14.219"/>
  <polygon class="zz-top__second-z" points="95.522 2.88 8.859 2.88 3 8.672 69.806 8.672 36.74 37.61 58.662 37.61"/>
</svg>
