<!--
  SVG Music Logos
  Doyle Wolfgang von Frankenstein - Skull v1.0.0
  https://github.com/tiagoporto/svg-music-logos
  Copyright (c) 2016-2019 Tiago Porto (http://tiagoporto.com)
-->
<svg xmlns="http://www.w3.org/2000/svg" viewBox="0 0 126 200" class="doyle-wolfgang-von-frankenstein">
  <g class="doyle-wolfgang-von-frankenstein__skull">
    <path d="M65.396,72.828c0.328,0.02,0.511,0.266,0.963,0.53c0.875,0.511,1.434,0.225,1.35,1.064	c-0.084,0.839-0.556,1.824-1.141,2.201c-0.585,0.377-0.824,0.49-1.214,0.238c-0.198-0.128-0.12-1.055-0.105-1.999	C65.264,73.944,64.976,72.803,65.396,72.828z"/>
    <path d="M65.653,70.027c0.317,0.007,0.411-0.693,0.872-1.364c0.245-0.357,0.395-1.249,0.38-1.537	c-0.036-0.684-0.394-1.052-0.335-1.509c0.084-0.65,0.503-1.174,0.818-1.111c0.314,0.063,1.321,1.425,2.054,1.53	c0.734,0.105,1.635-0.063,1.824-0.503s0.482-0.818,0.419-1.405c-0.023-0.213-0.608-0.734-0.566-0.964	c0.042-0.231,0.155-0.461,0.57-0.356c0.415,0.105,2.386,2.773,3.769,2.746c2.18-0.042,3.815-3.836,4.884-3.815	c1.069,0.021,1.593,1.866,2.578,1.719s3.813-1.838,4.107-3.242s-0.69-1.516-0.564-2.229c0.126-0.713,2.851-2.872,3.668-4.549	c0.818-1.677,1.994-2.951,1.74-4.591c-0.099-0.639-0.88-1.069-1.237-1.048c-0.356,0.021-1.467,0.713-1.635,0.398	s-0.314-0.839,0.419-1.824c0.734-0.985,0.985-0.985,1.153-1.761s0.44-2.998,0.147-3.731c-0.293-0.734-1.153-0.901-1.425-0.901	s-0.566,0.545-0.797,0.293c-0.231-0.252-0.21-1.635-0.273-2.117c-0.063-0.482-0.587-0.524-0.608-1.132s0.147-1.425-0.147-2.054	c-0.293-0.629-2.312-2.567-2.411-3.061c-0.168-0.839-0.252-2.788,0.335-2.788s2.956,2.599,4.339,3.962	c1.384,1.363,4.046,4.654,4.36,6.498c0.314,1.845-0.273,7.023-0.273,7.777s0.184,6.008-0.105,6.813	c-0.482,1.342,0.084,3.375-0.524,4.276c-0.608,0.901-0.566,1.321-1.425,1.509c-0.859,0.189-1.488,0.587-1.635,1.467	c-0.147,0.88,0.335,1.467-0.063,2.264c-0.398,0.797-2.054,2.264-2.683,2.641c-0.629,0.377-1.195,0.901-1.3,1.698	s0.461,1.74-0.252,2.243c-0.713,0.503-1.887,0.692-2.264,0.44c-0.377-0.252-1.09-0.314-1.467-0.147	c-0.377,0.168-1.069,0.503-1.467,0c-0.398-0.503-0.797-1.321-1.384-1.3s-2.012,1.971-2.746,2.033	c-0.734,0.063-1.09-0.608-1.74-0.566c-0.65,0.042-1.53,0.734-1.803,1.53c-0.273,0.797,0,1.216-0.88,1.258	c-0.88,0.042-1.614,0.608-1.677,1.174c-0.063,0.566-0.021,1.132,0.482,1.656c0.503,0.524,1.09,0.88,0.88,1.258	c-0.21,0.377-0.545,0.356-0.566,0.88s0.587,1.425,1.677,1.446c1.09,0.021,2.075-0.503,2.474-1.09s1.237-1.676,1.761-1.656	c1.111,0.042,0.44,2.243,1.824,2.285c1.384,0.042,1.845-0.901,2.012-1.425c0.168-0.524,0.252-1.342,0.65-1.342	s0.901,1.425,1.593,1.3s1.95-1.991,2.495-3.144s1.509-3.061,2.285-3.04c0.776,0.021,1.006,1.363,1.635,1.425	c0.629,0.063,0.44-0.524,1.3-0.335c0.859,0.189,2.453,2.453,3.165,2.453s1.782,0.084,1.74-1.069	c-0.042-1.153-0.566-1.929-0.922-2.39c-0.356-0.461-0.776-0.901-0.587-1.363s0.682-1.15,1.437-0.835	c0.755,0.314,3.765,2.513,4.412,4.001c0.839,1.929,1.74,2.851,1.782,3.857c0.042,1.006-0.692,3.941-0.608,4.717	c0.084,0.776,1.342,2.264,2.285,2.264s1.216-1.153,1.153-1.95c-0.063-0.797-0.044-3.074,0.304-3.577	c0.348-0.503,1.405-1.431,1.405-2.584c0-2.453-1.855-2.035-1.939-3.041c-0.023-0.271-0.027-0.608,0.664-1.111	c0.947-0.69,1.726-1.677,2.481-1.971c0.526-0.205,1.179-0.04,1.719-0.252c0.587-0.231,1.53-1.237,1.656-2.264	c0.126-1.027-0.063-2.704,0.398-3.375c0.461-0.671,0.931-1.688,0.768-2.447c-0.304-1.415-2.235-2.291-3.472-4.324	s-1.384-5.136-1.384-6.582s0.818-5.031,1.132-5.744c0.314-0.713,1.174-2.704,1.614-3.857c0.44-1.153,0.849-1.404,0.702-2.138	c-0.147-0.734-0.912-1.111-0.744-1.95c0.168-0.839,1.237-1.845,1.405-2.39c0.168-0.545,1.069-1.803,1.111-2.537	s-0.356-1.258-0.335-1.824c0.021-0.566,0.231-2.746-0.461-2.851c-0.692-0.105-2.327,1.908-2.516,2.914s-1.384,2.453-1.384,4.381	s-0.943,4.234-1.216,4.234c-0.273,0-0.503-1.153-0.398-2.222c0.105-1.069,0.839-3.144,0.943-4.465	c0.105-1.321,1.153-3.333,1.467-4.276c0.314-0.943,0.755-1.782,0.671-2.599c-0.084-0.818-1.467-0.21-1.761,0.398	c-0.293,0.608-1.761,2.39-1.866,3.082c-0.105,0.692-0.335,1.656-0.713,1.467c-0.377-0.189-0.818-1.509-0.671-2.516	c0.147-1.006,0.755-3.836,0.797-5.052c0.042-1.216-0.755-1.971-1.551-1.866c-0.797,0.105-1.908,0.671-2.348,1.803	c-0.44,1.132-0.44,2.557-1.09,2.914c-0.65,0.356-1.174,0.126-1.111-0.943c0.063-1.069,0.419-2.767-0.105-2.914	s-2.348,1.74-2.62,1.572c-0.273-0.168-0.063-1.048,0.189-1.635c0.252-0.587,0.461-3.019,0.566-3.585	c0.105-0.566,0.398-2.956,0.063-3.207c-0.335-0.252-0.561,0.241-0.797,0.147c-0.943-0.377-0.943-1.489-1.467-1.488	c-0.923,0.001-1.803,1.384-2.159,2.306c-0.356,0.922-0.084,3.417-0.168,4.486c-0.084,1.069-0.859,1.467-1.048,1.991	c-0.189,0.524-0.44,1.593-0.818,1.363c-0.377-0.231-0.608-0.776-0.356-1.614c0.252-0.839,0.44-1.887,0.356-2.662	c-0.084-0.776-0.839-2.264-1.153-2.264c-0.314,0-0.985,0.901-1.384,1.971c-0.398,1.069-0.608,1.929-1.153,2.411	c-0.545,0.482-0.776,0.692-0.88,1.153c-0.105,0.461-0.335,0.65-0.461,0.65s-0.335-0.818-0.126-1.572s0.293-2.201,0.189-2.893	c-0.105-0.692-0.797-2.243-1.425-2.243s-0.713,0.713-1.258,1.991c-0.545,1.279-2.285,4.214-2.809,4.214s-0.859-0.713-0.608-1.446	c0.252-0.734,0.356-1.405,0.147-1.971s-0.587-0.776-0.985-0.734s-0.587,0.419-0.839,0.293c-0.252-0.126-0.713-0.629-0.629-1.216	c0.084-0.587,0.231-2.788-0.21-2.788c-0.44,0-2.411,2.746-2.537,3.48c-0.126,0.734,0.629,1.572,0.419,2.264	c-0.21,0.692-0.901,0.189-0.985,0.021c-0.084-0.168-0.755-0.566-0.901-0.147c-0.147,0.419-1.488,3.773-1.698,4.863	c-0.21,1.09-1.782,4.444-1.887,5.241s-0.461,3.941-0.44,5.283c0.021,1.342,0.067,2.926-0.314,2.956	c-0.818,0.063-0.314-1.384-0.797-1.3s-0.44,0.943-0.566,1.782c-0.126,0.839-0.587,5.932-0.524,6.519	c0.063,0.587-0.629,7.484-0.671,8.385c-0.042,0.901-0.273,6.876-0.44,7.882c-0.168,1.006,0.009,3.479,0.021,3.752	c0.021,0.482-0.293,0.734-0.377,1.845C65.373,68.467,65.314,70.019,65.653,70.027z"/>
    <path d="M77.302,87.062c-0.091,1.272,1.006,1.467,2.809,1.551c1.803,0.084,4.486,0,5.241-0.419c0.755-0.419,3.779-1.887,3.629-2.851	c-0.15-0.964-1.734-2.342-2.665-2.348c-1.199-0.007-1.574,2.069-2.851,2.39c-0.898,0.226-1.929-1.509-2.893-1.342	S77.386,85.888,77.302,87.062z"/>
    <path d="M46.194,86.013c0,0.839-0.839,1.971-1.593,2.012c-0.755,0.042-2.337,0.128-2.966,0.337c-0.629,0.21-3.135,0.619-4.078,0.459	c-1.237-0.21-3.773-1.719-3.773-2.599c0-1.216,2.075-1.93,2.935-1.929c1.764,0.002,2.432,1.971,3.27,1.971s2.683-1.3,3.354-1.3	C44.013,84.965,46.194,85.091,46.194,86.013z"/>
    <path d="M101.577,135.926c0.504,0,0.692,0.566,0.786,1.069c0.094,0.503,0.063,1.069-0.157,1.446s-1.038,1.635-1.101,2.736	c-0.063,1.101-0.535,2.327-0.472,2.924c0.063,0.597,0.314,1.226,0.377,1.824s0.189,2.453,0.346,2.39	c0.157-0.063,0.503-0.44,0.503-0.786s-0.364-1.981-0.339-2.516c0.025-0.535,0.245-2.232,0.371-2.893	c0.126-0.661,0.314-2.987,1.132-3.019c0.818-0.031,4.088-0.157,4.434-0.189s1.101-0.189,1.101,0.031s-0.597,1.038-0.566,1.415	c0.031,0.377,0.252,1.069,0.566,1.101s0.252-0.377,0.503-0.818c0.252-0.44,1.321-1.069,1.509-1.321	c0.189-0.252,0.472-0.786,0.943-0.66s1.289,0.786,1.352,1.258s0.157,3.113-0.22,3.113c-0.377,0-0.786-0.975-0.597-1.195	s0.189-1.132-0.314-1.132c-0.503,0-1.21,1.705-1.384,2.767c-0.283,1.729,0.189,2.767,0.503,2.767c0.314,0,0.597-0.597,1.069-0.597	s0.597,0.786,0.377,1.163s-0.865,1.209-1.46,1.209c-0.729,0-0.773-0.58-1.402-0.517c-0.629,0.063-5.974-0.157-6.383-0.126	c-0.409,0.031-0.503,0.283-0.535,0.597c-0.031,0.314-0.629,2.075-1.258,2.075c-0.629,0-2.071-1.42-2.201-2.233	c-0.283-1.761-0.148-2.804-0.063-4.465c0.054-1.057,0.104-2.503,0.251-3.286C99.627,138.048,100.854,135.926,101.577,135.926z"/>
    <path d="M88.245,127.855c0.88,0,1.509,1.216,1.509,1.929c0,0.713-0.587,2.851-2.138,3.396c-1.551,0.545-3.522,1.971-3.648,3.144	c-0.126,1.174-0.103,2.559,0,3.228c0.252,1.635,1.216,3.103,1.216,3.941c0,0.839,0.126,2.054-0.503,2.264	c-0.629,0.21-1.635,0.671-2.264,1.425c-0.629,0.755-1.425,1.593-1.929,1.551c-0.503-0.042-0.797-0.671-0.755-1.3	c0.042-0.629,1.09-1.887,1.3-2.599s0.922-1.006,0.922-1.635c0-0.629-1.719-2.599-1.719-3.941s0.482-1.349,0.608-2.816	c0.126-1.467,1.447-1.46,2.387-2.919c0.821-1.274,1.528-1.239,2.372-2.021C87.323,129.91,87.239,127.855,88.245,127.855z"/>
    <path d="M77.386,142.781c0.461,0,1.342,0.671,1.3,1.761c-0.042,1.09-1.551,3.008-2.385,3.008c-0.592,0-0.55-0.744-0.424-1.541	s0.503-1.006,0.587-1.384C76.548,144.248,76.422,142.781,77.386,142.781z"/>
    <path d="M64.641,136.198c0.561,0.272,0.807,0.633,0.729,1.095c-0.127,0.755-0.897,1.504-0.897,2.133	c0,0.629-0.293,2.306-0.713,2.222c-0.419-0.084-0.419-1.425-0.335-2.012s-0.088-1.803-0.044-2.18	C63.425,137.079,64.195,135.982,64.641,136.198z"/>
    <path d="M76.799,150.044c0.536,0.104,1.509,0.367,1.384,0.996c-0.126,0.629-1.174,1.971-1.677,2.012	c-0.503,0.042-1.09-0.168-1.3-0.713C74.997,151.795,76.251,149.938,76.799,150.044z"/>
    <path d="M66.066,144.542c0.339,0.186,1.635,1.132,1.677,1.677c0.042,0.545,0.252,2.432-0.503,3.48s-1.099,1.898-1.87,1.85	s-1.089-0.12-1.34-1c-0.252-0.88-0.018-3.156-0.102-3.449c-0.084-0.293-0.18-1.457-0.042-2.096c0.293-0.163,0.629,0.671,0.922,0.545	S65.61,144.292,66.066,144.542z"/>
    <path d="M73.026,143.745c0.373,0.059,1.425,0.222,1.425,0.761c0,0.539-0.629,2.929-1.425,3.767c-0.797,0.839-1.677,1.698-2.39,1.771	c-0.713,0.073-1.342-2.065-1.3-2.819c0.042-0.755,0.587-2.065,1.258-2.06C71.265,145.171,72.412,143.647,73.026,143.745z"/>
    <path d="M68.288,136.17c0.275,0.007,0.918,0.321,1.046,1.495s0.128,4.486-0.208,4.947c-0.335,0.461-1.132,0.912-1.761,0.372	c-0.629-0.54-1.788-2.426-1.712-2.93c0.077-0.503,0.706-0.964,0.957-1.551C66.863,137.917,67.24,136.142,68.288,136.17z"/>
    <path d="M73.697,136.408c0.51,0.019,1.258-1.342,1.803-1.3c0.545,0.042,1.287,0.839,1.189,2.138c-0.099,1.3-2.195,5.534-3.746,5.534	s-2.222-1.342-2.264-2.39s0.335-1.803,0.252-2.516c-0.084-0.713,0.129-1.887,0.758-1.95	C72.316,135.863,72.565,136.366,73.697,136.408z"/>
    <path d="M55.92,135.737c0.621,0.102,1.887,0.797,2.012,1.551c0.126,0.755-0.129,2.271,0.016,2.893	c0.173,0.744-0.142,1.411-0.55,1.47c-0.409,0.06-1.195,0.689-1.635,0.594c-0.44-0.094-1.163-1.195-1.163-1.792	s0.252-1.478,0.22-1.95c-0.031-0.472-0.189-1.478-0.031-1.824C54.946,136.335,55.603,135.685,55.92,135.737z"/>
    <path d="M51.581,134.888c0.535,0.016,1.777,1.177,1.95,1.918c0.346,1.489-0.208,1.962-0.377,2.484	c-0.377,1.163-0.031,2.39-0.22,2.704c-0.189,0.314-0.409,0.755-0.975,0.786c-0.566,0.031-3.113-3.113-3.082-4.276	s0.723-1.069,0.786-1.509C49.726,136.555,50.512,134.856,51.581,134.888z"/>
    <path d="M46.739,133.033c0.723,0.028,1.887,0.975,1.887,1.572s-0.189,1.384-0.157,1.729s-0.094,1.163-0.566,1.195	s-2.044-0.88-2.138-2.248C45.67,133.914,45.921,133.002,46.739,133.033z"/>
    <path d="M47.185,142.781c0.073-0.561,0.34-1.252,0.906-1.129c0.566,0.123,1.729,1.475,1.761,2.481s-0.44,1.352-0.818,1.352	S47.034,143.944,47.185,142.781z"/>
    <path d="M51.967,145.907c0.63,0.196,0.935,0.658,0.935,1.644s-0.566,2.086-1.258,1.96s-1.604-0.619-1.541-1.866	S51.466,145.751,51.967,145.907z"/>
    <path d="M55.952,144.497c0.41,0.05,1.352,0.233,1.604,0.296c0.252,0.063,0.126,1.101,0.126,1.541s0.236,4.968,0.189,5.597	c-0.377,0.126-1.195-0.031-1.761-1.478c-0.566-1.446-1.761-2.233-1.698-4.025C54.474,144.636,55.478,144.44,55.952,144.497z"/>
    <path d="M63.719,155.82c-0.461,0.545-0.219,2.725-0.345,4.444c-0.126,1.719-0.662,7.169-0.662,8.134	c0.83,0.503,1.138,1.226,1.66,1.3c1.485,0.21,1.904-1.845,2.701-1.677c0.797,0.168,1.216,0.587,1.971,0.545	c0.755-0.042,0.755-0.587,1.803-0.545s1.425,0.042,2.054-1.216c0.629-1.258-0.063-3.144,0.786-3.857	c0.849-0.713,2.987-2.767,4.245-3.48c1.258-0.713,1.803-1.425,2.012-2.306c0.21-0.88,1.593-1.258,2.012-1.719	s0.964-1.929,0.797-2.809c-0.168-0.88-1.342-1.368-1.719-1.083c-0.377,0.286-1.551,1.879-2.012,2.089	c-0.461,0.21-1.761,0.839-2.054,1.425s-1.509,1.509-2.18,1.803c-0.671,0.293-2.206,1.132-2.474,1.803	c-0.267,0.671-0.629,1.995-1.3,1.92c-0.671-0.075-1.048-0.872-1.3-1.752c-0.252-0.88-1.174-1.3-0.964-1.929	c0.21-0.629,1.048-0.713,1.677-1.174c0.629-0.461,1.761-0.88,1.719-2.348c-0.042-1.467-1.3-1.425-2.012-1.174	c-0.713,0.252-2.058,1.258-2.601,1.425c-0.543,0.168-1.172,1.803-1.675,1.971C65.354,155.778,64.473,156.155,63.719,155.82z"/>
    <path d="M22.506,136.45c0.132-0.626,0.671-0.713,1.048-0.461c0.279,0.186,0.973,0.6,1.051,1.528	c0.016,0.186,0.164,1.228,0.217,1.633c0.06,0.461,0.385,1.263,0.396,1.478c0.084,1.551,0.138,2.551,0.18,3.862	c0.042,1.311-0.293,6.782-2.054,6.782c-0.556,0-0.826-0.341-0.826-0.844s0.601-0.377,0.936-1.215s0.523-4.49,0.5-5.691	s-0.107-3.381-0.61-3.884c-0.503-0.503-0.671-0.151-0.839-0.641C22.338,138.504,22.338,137.247,22.506,136.45z"/>
    <path d="M21.269,139.982c0.811,0,0.986,0.022,1.111,0.535c0.093,0.379,0.241,1.238,0.291,1.876c0.032,0.419-0.208,0.642-0.196,1.059	c0.015,0.532,0.184,0.697,0.163,1.057c-0.009,0.156-0.11,0.601-0.11,0.799c0,0.314,0.229,0.889,0.231,1.038	c0.013,1.108-0.062,1.859-0.377,2.096c-0.419,0.314-0.828,0.314-1.834,0.314s-5.063,0.189-5.597,0.189	c-0.535,0-2.398,0.074-2.096-1.268c0.094-0.419,0.59-0.197,0.787-0.497c0.305-0.465,0.555-1.664,0.555-2.765	c0-1.101-0.126-2.65-0.597-2.681c-0.472-0.031-0.377,0.545-0.346,0.797s0.25,0.954-0.064,0.954s-0.712-0.797-0.712-1.708	c0-0.912,0.803-1.463,1.275-1.463c1.3,0,1.22,1.609,1.817,1.683c0.281,0.035,0.369-0.15,0.358-0.376	c-0.012-0.255-0.202-0.604-0.336-0.704c-0.252-0.189-0.366-0.736-0.012-0.743C16.08,140.16,20.586,139.982,21.269,139.982z"/>
    <path d="M57.721,155.937c0.061,1.321-0.282,3.426-0.04,4.654c0.407,2.063,0.211,3.95-0.02,5.145	c-0.099,0.509-0.192,2.685-0.085,4.093c-1.436-0.225-2.238-0.838-2.804-2.112c-0.316-0.711-1.454,0.134-2.044-0.928	c-0.943-1.698,0.173-2.799-0.393-3.85c-0.251-0.465-0.36-0.844-0.589-1.058c-0.358-0.334-0.748-0.202-1.298-0.485	c-1.018-0.523-2.629-2.201-3.264-2.516c-0.635-0.314-3.591-3.27-4.031-4.78c-0.44-1.509-2.091-2.121-2.091-3.915	c0-1.794,0.802-2.437-0.11-3.82c-1.229-1.865-3.773-2.182-3.333-4.11s1.572-0.73,1.572-2.555c0-1.825-2.83-3.21-2.956-4.813	c-0.126-1.603-0.19-1.961-0.756-2.59c-0.566-0.629-1.446,0.342-1.776-2.441c-0.119-1.005-0.566-1.163-0.629-2.484	c-0.025-0.518,0.153-1.072,0.519-1.635c0.818-1.258,1.759-0.963,2.199-1.152c0.44-0.189,1.109-0.548,1.675-0.422	c0.566,0.126,0.7,1.033,0.385,1.599c-0.314,0.566-1.052,0.877-0.864,2.092c0.189,1.216,0.566,1.467,1.384,1.971	s1.202,2.132,1.635,2.641c1.069,1.258,2.379,1.314,2.694,2.194c0.314,0.88-0.284,1.824-0.178,2.208	c0.252,0.913,0.653,0.661,0.653,1.163c0,0.803-0.33,1.484-0.913,2.068c-0.322,0.323-0.747,0.763-0.243,2.156	c0.204,0.565,0.204,2.233,0.582,2.233c1.037,0,0.33-1.519,1.304-1.257c0.381,0.102,0.88,0.679,0.88,1.562	c0,1.509,0.762,1.415,0.956,2.516c0.109,0.62-0.763,1.005-0.642,1.427c0.131,0.457,0.299,0.784,0.68,0.91	c0.497,0.164,0.893,0.465,0.969,0.996c0.126,0.88-0.549,1.321-0.423,2.139s0.976,1.941,1.478,2.012c0.77,0.11,1.839-0.66,2.799,0	c0.656,0.452,0.972,2.655,1.729,2.673c1.306,0.031,1.66-0.427,2.233-0.723c0.635-0.328,0-1.855,0.847-2.185	C56.071,154.302,56.716,155.622,57.721,155.937z"/>
    <path d="M101.577,88.642c0.893,0.232,1.677,1.145,1.719,1.606c0.042,0.461,0.168,1.509,0.419,2.012	c0.252,0.503,0.708,1.674,0.713,2.725c0.009,1.929-1.467,3.564-2.432,4.696c-0.964,1.132-1.971,2.851-2.138,3.648	c-0.168,0.797-0.964,2.348-0.419,2.851c0.545,0.503,1.467-0.168,2.054-1.132c0.587-0.964,1.551-1.342,2.096-1.174	c0.545,0.168,1.509,0.755,1.425,1.719c-0.084,0.964-1.887,1.845-2.39,2.222c-0.503,0.377-1.845,1.132-2.306,2.096	c-0.461,0.964-0.755,2.683-0.503,3.312c0.252,0.629,0.964,1.3,0.88,1.845c-0.084,0.545-0.921,1.509-1.446,1.845	s-1.321,2.222-2.118,2.222c-0.797,0-1.3-0.252-1.719-1.425c-0.419-1.174-1.09-1.467-1.635-1.425s-1.887,1.216-2.767,1.09	c-0.88-0.126-2.474-1.006-2.474-2.264s0.629-0.671,0.545-1.719c-0.084-1.048-1.3-1.803-2.012-1.887	c-0.713-0.084-0.713,1.342-0.755,1.467c-0.042,0.126-0.335,1.048-1.006,1.006c-0.671-0.042-1.761-0.755-2.306-0.335	c-0.545,0.419-1.677,1.551-1.803,2.599s-0.461,2.474-1.674,2.599c-0.665,0.069-1.387-1.09-1.89-0.922	c-0.503,0.168-0.618,1.459-0.545,2.054c0.252,2.054,3.354,3.899,3.312,4.612s-0.553,1.551-0.675,2.348	c-0.122,0.797-0.667,2.557-1.463,2.809c-0.797,0.252-0.612-0.107-1.194,0c-0.965,0.178-1.24,1.318-1.657,1.258	c-1.163-0.168-0.881-2.038-1.73-1.845c-1.981,0.451-0.849,3.073-2.379,3.061c-0.6-0.005-1.708-0.912-1.509-2.096	c0.147-0.877,0.028-1.509-0.384-1.887s-1.254-2.348-1.881-2.306c-0.627,0.042-0.963,1.509-0.921,2.683	c0.042,1.174-0.168,3.186-0.545,3.354c-0.377,0.168-1.279,0.472-2.012,0.255c0-1.974,0.049-6.46,0.318-7.718	c0.269-1.258,0.059-6.205,0.269-6.876c0.21-0.671,0.755-1.132,1.3-1.048c0.545,0.084,0.629,0.671,1.132,1.551	s0.629,2.516,1.384,2.516s0.671-1.006,1.216-1.3c0.545-0.293,0.587-0.713,0.503-1.384c-0.084-0.671-0.671-1.593-0.042-2.599	c0.629-1.006,1.342-0.797,1.761-0.419c0.419,0.377,1.006,0.755,1.467,0s1.195-1.195,1.153-1.656s-0.482-0.755-0.88-0.461	c-0.243,0.179-0.943,0.356-1.363,0.314c-0.419-0.042-1.132-0.293-1.048-1.216c0.084-0.922,1.048-1.09,1.09-2.012	c0.042-0.922-1.635-1.677-1.635-2.39c0-0.713,0.252-1.425-0.042-2.054s-2.054-1.509-2.264-2.18c-0.21-0.671-0.592-0.964-1.053-1.384	s-1.415-0.597-2.28-1.619c0-1.467,0.319-3.076,0.338-3.663c0.354,0.042,0.899,0.126,1.192-0.377	c0.293-0.503,1.719-1.593,2.557-1.342c0.839,0.252,2.641,1.551,2.767,2.474s0.419,2.683,0.335,3.354	c-0.084,0.671-0.21,1.929,0.168,2.012c0.377,0.084,2.138-1.425,2.641-1.593s2.222,0.042,2.893-0.461	c0.671-0.503,2.977-1.635,4.193-1.509s4.109,0.293,4.528,0.964c0.419,0.671,0.755,1.3,1.006,2.264	c0.252,0.964,1.09,0.671,1.593,1.048c0.503,0.377,0.88,1.048,1.342,1.048c1.048,0,0.335-0.629,0.755-1.216s1.887-1.551,2.222-2.432	c0.335-0.88-0.134-1.208,0.285-1.879c0.419-0.671,1.979-2.011,2.566-2.137s1.3,0.201,2.012-0.093s2.012-0.964,2.39-2.432	c0.377-1.467-0.587-2.264-0.839-2.641c-0.252-0.377-1.006-0.671-0.922-1.467C99.146,89.409,101.015,88.496,101.577,88.642z"/>
    <path d="M56.801,130.58c0.269-0.25,0.723-0.157,0.723,0.189s0.22,0.723,0.393,0.818c0.142-1.446-0.079-4.78,0-6.1	c0.079-1.321-0.016-5.22,0-5.88c-0.519-0.063-1.085,0.189-1.305,0.472c-0.22,0.283-0.283,0.503-0.786,0.377	c-0.503-0.126-0.723-0.597-0.472-1.163c0.252-0.566,1.069-1.824,1.478-2.358s1.135-1.258,1.165-2.264	c0.03-1.006-1.101-1.258-1.699-1.258s-1.521,0.461-1.615,1.342s-0.43,2.369-0.901,3.061c-0.472,0.692-1.384,1.415-1.509,1.887	c-0.126,0.472-0.377,1.038-0.723,1.038c-0.346,0-0.636-1.074-0.503-2.044c0.241-1.761,1.226-2.201,1.226-3.648	c0-1.289-1.006-1.352-1.478-1.352c-0.472,0-1.226,0.566-1.541,0.566c-0.314,0-0.975-0.346-0.88-1.132	c0.094-0.786-0.094-2.327-0.692-2.83c-0.597-0.503-0.22-0.975,0.157-1.163c0.377-0.189,1.446-0.912,2.012-1.635	c0.566-0.723,0.818-0.975,1.384-0.943c0.566,0.031,1.446-1.038,1.698-1.761c0.252-0.723,1.321-0.912,1.446-1.604	c0.126-0.692-0.535-1.604-0.283-2.453s0.849-1.824,0.975-2.295c0.126-0.472,0.66-1.038,1.132-0.975	c0.472,0.063,1.719,0.016,2.128-0.01c0.278-1.562,0.199-6.215,0.136-7.064c-0.409,0.031-0.597,0.377-0.723,1.006	c-0.126,0.629-0.22,2.704-0.472,2.767c-0.252,0.063-0.377,0.566-0.849,0.157s-1.792-1.446-2.453-1.415	c-0.66,0.031-1.509,0.346-2.044,0.912c-0.535,0.566-2.044,2.107-1.981,2.767c0.063,0.66,0.566,0.975,1.038,1.352	c0.472,0.377,0.818,0.943,0.849,1.446c0.031,0.503-0.22,0.818-0.252,1.132c-0.031,0.314,0.566,1.226-0.409,1.258	c-0.975,0.031-2.704-1.069-3.27-1.509c-0.566-0.44-1.226-0.44-1.415-0.818c-0.189-0.377-1.132-1.415-1.887-1.321	c-0.755,0.094-1.667,1.258-2.516,2.264s-2.578,3.302-3.207,3.365s-1.195-0.912-1.981-0.88c-0.786,0.031-2.075,0.786-2.547,1.352	c-0.472,0.566-1.132,1.509-1.729,1.321c-0.597-0.189-0.975-0.912-0.88-2.044c0.094-1.132,0-1.446-0.692-2.516	c-0.692-1.069-1.855-0.723-2.421-1.226c-0.566-0.503-1.572-1.635-2.547-1.698s-1.824,1.289-2.547,1.163	c-0.723-0.126-0.849-1.069-0.786-1.761c0.063-0.692-0.755-1.541-0.66-2.861c0.094-1.321,1.855-2.295,1.824-3.522	s-0.786-1.258-1.446-1.289c-0.66-0.031-1.729,0.786-1.887,1.352s-0.094,1.541-0.22,1.761c-0.126,0.22-0.299,0.915-0.346,1.226	c-0.157,1.038,0.723,1.698,0.692,2.327c-0.031,0.629-0.377,2.39-0.346,3.019c0.031,0.629,1.321,2.201,2.264,2.83	c0.943,0.629,1.384,0.975,1.226,1.667s-0.472,1.352-0.535,1.729c-0.063,0.377-0.229,0.619-0.723,0.503	c-1.069-0.252-1.704-1.792-2.597-1.855s-1.145,0.566-1.176,1.132c-0.031,0.566,0.849,3.019,1.887,4.025	c1.038,1.006,2.463,2.611,2.516,3.176c0.094,1.006-0.566,1.384-0.566,1.95s2.075,2.736,3.396,2.736c1.792,0,1.541-2.327,2.484-2.295	c0.943,0.031,0.786,1.258,2.641,1.352c1.855,0.094,2.987-0.723,3.302-1.352c0.314-0.629,0.252-1.572,0.818-1.855	c0.566-0.283,1.478-1.226,1.761-2.201c0.283-0.975,1.226-0.693,1.415-0.331c0.189,0.362-0.072,2.091,0.184,2.469	c0.256,0.377,0.885,0.943,1.263,0.912c0.377-0.031,1.635-1.132,2.012-1.101c0.377,0.031,0.786,0.189,0.755,0.44	c-0.031,0.252-1.226,1.604-1.321,2.327c-0.094,0.723-0.094,1.384,1.478,1.572s1.698-1.038,2.295-1.038	c0.597,0,0.912,0.975,1.541,1.006c0.629,0.031,0.723-0.503,1.069-0.283c0.346,0.22,0.818,1.226,0.346,2.421	c-0.472,1.195-1.62,2.484-2.539,2.83s-2.523,1.541-2.523,2.327c0,1.289,1.008,1.687,1.307,2.735c0.237,0.832,0.746,1.86,1.806,2.738	c1.025,0.849,1.044-1.542,1.95-1.354c0.4,0.083,0.366,1.891,0.786,2.547c0.692,1.082,0.976,1.085,1.62,1.085	c0.975,0,1.494-1.022,1.714-1.651c0.22-0.629,0.122-1.78,0.279-2.534c0.157-0.755,1.764-2.654,2.456-2.528	c0.692,0.126,0.773,2.637,0.414,3.587c-0.281,0.745-1.106,2.009-1.106,2.513c0,0.849,0.186,1.16,0.849,1.163	C56.235,132.881,56.361,130.989,56.801,130.58z"/>
    <path d="M62.335,171.584c-0.034,0.541,0.035,1.457-0.021,2.557c-0.048,0.946-0.43,2.062-0.419,2.704	c0.042,2.557-0.503,3.331-0.189,4.36c0.231,0.755-0.071,1.328-0.105,2.117c-0.029,0.675,0.152,1.477,0.105,1.635	c-0.157,0.524-0.503,0.293-0.545,0.797c-0.042,0.503,0.084,1.132-0.21,1.216s-0.755,0.168-0.755,0.587s0.025,1.249,0,1.635	c-0.042,0.65-0.461,0.713-0.419,1.048c0.042,0.335,0.119,1.971-0.003,2.222c-0.123,0.252-0.081,0.839-0.332,0.839	c-0.252,0-0.335-1.384-0.545-2.096s-0.974-2.15-0.797-3.144c0.273-1.53-0.284-3.564-0.184-4.654c0.1-1.09,0.249-3.608,0.184-4.612	c-0.063-0.964-0.365-1.274-0.353-2.266c0.013-1.001-0.251-1.838-0.192-3.981c-1.635,0-3.564-1.509-4.193-1.467	c-0.629,0.042-1.044,0.372-1.719,0.335c-1.544-0.084-1.635-0.922-2.348-1.174c-0.713-0.252-1.258,0.03-1.593-0.53	c-0.335-0.56-1.258-1.608-1.258-2.698c0-1.09-0.713-4.276-1.3-5.241c-0.587-0.964-1.971-3.648-2.935-4.36	c-0.964-0.713-2.096-2.683-2.516-2.809c-0.419-0.126-0.042-0.922-0.377-1.174c-0.335-0.252-1.425-1.879-2.641-2.851	c-1.877-1.5-4.738-4.077-4.821-5.414c-0.084-1.336,0.468-2.626,0.309-3.469c-0.335-1.778-1.944-4.24-2.028-5.036	c-0.084-0.797,0.042-2.096,0-2.767s-0.353-1.677-0.03-2.557c0.323-0.88,0.071-2.809-0.599-4.486s-3.262-4.193-4.105-4.612	c-0.843-0.419-2.436-0.964-3.023-1.384c-0.587-0.419-2.557-0.587-3.228-0.503s-1.971-0.503-2.474-0.839	c-0.503-0.335-1.258-0.21-1.761-0.629s-0.839-1.761-0.713-2.39s-0.084-2.222-0.21-2.893s-0.134-2.22-0.252-2.767	c-0.252-1.174-2.516-3.48-2.893-4.444c-0.377-0.964-2.177-2.391-2.641-3.564c-0.797-2.012-0.503-2.809-0.545-4.193	c-0.042-1.384-0.713-1.677-0.587-2.599c0.126-0.922,1.425-3.312,2.264-3.941c0.839-0.629,1.635-2.222,2.348-3.019	c0.713-0.797,1.596-1.427,1.551-2.138c-0.084-1.342,1.006-0.587,0.797-2.306c-0.127-1.041-1.174-0.88-1.509-0.797	c-0.335,0.084-0.922,1.3-1.551,1.258c-0.629-0.042-0.839-0.419-0.461-0.797c0.377-0.377,0.084-1.132,0.377-1.384	c0.293-0.252,1.048-1.006,1.132-2.264c0.084-1.258-1.006-2.18-1.174-3.438c-0.168-1.258-0.503-2.977-0.922-3.773	c-0.419-0.797-0.88-2.516-0.713-3.522c0.168-1.006,0.713-2.767,0.587-4.486c-0.126-1.719-0.643-3.654-0.252-4.486	c0.671-1.425,0-3.48,0.629-4.444c0.629-0.964,0.503-2.767,0.671-3.522s0.461-3.354-0.461-4.193	c-0.922-0.839-1.048-0.126-1.467-0.419c-0.419-0.293-0.755-2.054-0.587-2.935s-0.042-1.887-0.629-2.599	c-0.587-0.713-1.233-2.555-1.233-3.141S5.5,38.763,5.5,36.939c0-0.756-0.335-1.85-0.755-2.311s-0.1-2.951,0.236-3.621	s0.557-2.002,1.258-2.809c0.928-1.069,0.763-1.475,1.163-2.343c0.258-0.559,0.591-0.974,0.849-1.478	c0.66-1.289,0.629-2.594,0.922-3.223c0.293-0.629,1.719-2.893,3.144-3.019s2.641,0.042,3.312-0.377s0.421-2.406,1.41-3.129	c0.409-0.299,0.55-1.053,0.928-1.242c0.336-0.168,0.582,0.051,0.975-0.126c0.629-0.283,0.818-0.88,1.352-0.88	c0.535,0,1.038,0.304,1.792,0.22c0.755-0.084,3.417-2.809,4.339-2.809s1.006,0.797,2.054,0.776c1.048-0.021,1.509-1.572,2.159-1.991	c0.65-0.419,4.172-1.677,5.702-1.677c1.53,0,1.384,0.797,2.18,0.755c0.797-0.042,1.237-1.09,2.348-1.174	c1.111-0.084,1.677,0.168,2.138-0.293c0.461-0.461,2.075-1.782,4.004-1.719c1.929,0.063,3.773,1.363,5.471,1.488	c1.698,0.126,2.348-0.147,3.291,0.314c0.943,0.461,1.887,1.509,3.459,1.719s4.234-0.964,5.01-0.943	c0.36,0.01,0.996-0.336,1.646-0.419c0.751-0.096,1.523,0.047,1.939-0.335c1.47-1.351,1.753-0.493,4.79-0.608	c5-0.189,5.146,1.153,6.111,1.216c0.964,0.063,1.09-0.692,1.782-0.776s1.572-0.147,2.054-0.482c0.482-0.335,1.593-1.178,2.096-1.176	c0.503,0.002,1.551,0.694,2.096,0.673c0.545-0.021,1.326-0.88,2.225-0.922c0.899-0.042,1.066,0.021,1.527,0.105	s4.38-0.102,5.115,0.042c1.069,0.21,2.201,1.195,2.516,1.635c0.314,0.44,1.048,1.656,2.18,1.866c1.132,0.21,2.18,0.922,2.474,1.279	s1.908,0.419,2.264,0.818s2.306,2.18,3.04,2.432c0.734,0.252,1.551,0.859,1.95,0.839c0.398-0.021,1.048,0.377,1.509,1.216	c0.461,0.839,3.061,2.935,3.731,3.375c0.671,0.44,1.627,0.849,1.908,1.069c0.858,0.673,1.74,1.09,2.222,2.348	c0.482,1.258,1.593,2.306,1.95,2.62c0.356,0.314,1.324,1.908,1.342,2.62c0.029,1.144-0.44,1.74-0.839,2.264s-0.335,1.761-0.797,2.18	c-0.198,0.18-0.899,0.671-1.251,1.221c-0.483,0.755-1.128,1.109-1.139,1.42c-0.042,1.174-0.995,2.002-1.132,2.285	c-0.335,0.692,0.013,1.598-0.042,1.866c-0.21,1.027-1.139,1.346-1.216,1.971c-0.126,1.027,0.252,1.74,0.231,2.599	c-0.021,0.859-0.44,2.054-0.44,2.704s0.168,1.719-0.566,1.908c-0.734,0.189-2.033-1.321-2.495-1.006s-0.518,1.488-0.437,2.306	c0.081,0.818-0.045,2.809-0.15,3.731c-0.105,0.922-0.692,2.18-0.608,3.354c0.084,1.174,0.88,2.516,1.258,3.207	c0.377,0.692,0.356,1.929,0.797,2.474c0.44,0.545,0.985,1.155,1.195,2.056c0.094,0.404,0.388,0.774,0.672,1.176	c0.314,0.442,0.616,0.922,0.627,1.527c0.021,1.153-0.755,2.285-0.922,3.291c-0.168,1.006-0.671,3.773-1.153,5.304	c-0.482,1.53-1.111,2.096-1.279,3.144s-0.859,1.719-0.818,3.123c0.042,1.405,1.318,1.796,1.507,2.809	c0.189,1.014,0.024,1.74,0.066,2.096c0.042,0.356,0.083,1.43-0.419,1.384c-0.681-0.063-0.99-0.408-1.074-1.069	c-0.084-0.661-1.001-1.425-1.651-1.258c-0.65,0.168-0.896,1.383-0.859,1.908c0.084,1.195,0.147,1.939,1.787,2.73	c0.545,0.263,1.327,0.37,1.698,0.314c0.654-0.098,1.443-0.307,1.63-0.655c0.293-0.545,0.084-1.635,0.314-3.082	c0.103-0.647,0.671-2.411,0.629-3.165s-0.314-3.941-0.084-4.8c0.231-0.859,0.672-2.036,0.734-2.683	c0.147-1.53,0.084-3.878,0.335-4.675c0.252-0.797,1.677-2.725,1.698-3.962s-0.734-1.216-0.608-2.39	c0.126-1.174-1.048-0.943-1.111-2.033c-0.063-1.09-0.734-1.761-0.985-2.662c-0.252-0.901-0.901-1.698-0.88-3.082	c0.021-1.384-0.461-1.3-0.776-2.683c-0.314-1.384-0.482-4.318,0.461-4.255c0.943,0.063,1.593,1.111,2.306,1.132	c0.713,0.021,0.922-1.132,1.027-2.599c0.105-1.467-0.193-2.786-0.126-3.438c0.126-1.216,0.797-1.389,0.943-2.039	c0.147-0.65-0.524-1.378-0.419-2.09c0.105-0.713,0.859-1.761,1.006-2.222c0.147-0.461,0.126-1.467,0.545-1.782	c0.419-0.314,0.797-1.279,0.985-1.593c0.189-0.314,0.671-0.985,0.88-1.53s-0.021-1.132,0.377-1.405	c0.398-0.273,0.943-0.629,0.985-1.153c0.042-0.524-0.168-1.027,0.189-1.719c0.356-0.692,0.925-0.805,1.03-1.455	c0.059-0.367,0.142-1.356,0.025-2.03c-0.09-0.519-0.511-1.168-0.609-1.446c-0.362-1.022-1.006-1.413-1.724-2.699	c-0.398-0.713-1.069-0.91-1.425-1.488c-0.686-1.115-1.44-1.825-1.698-2.327c-0.398-0.776-1.782-1.614-2.704-2.348	c-0.922-0.734-2.306-1.908-4.528-3.375c-2.222-1.467-4.097-2.336-5.094-3.333c-0.545-0.545-1.237-0.21-1.929-0.587	s-1.656-1.153-2.117-1.258c-0.461-0.105-1.006-0.482-1.572-1.216c-0.566-0.734-2.704-2.474-3.165-2.578	c-0.461-0.105-1.53-0.063-1.908-0.273c-0.377-0.21-1.069-0.922-1.761-0.943s-4.947-0.21-5.408,0.105s-1.362,0.538-1.677,0.545	c-1.761,0.042-2.369-0.734-3.48-0.608c-1.111,0.126-2.39,1.656-3.459,1.656s-5.932-0.629-9.056-0.671	c-3.123-0.042-5.283,0.335-6.079,0.629s-2.39,1.174-5.807,1.006C55.753,4.07,53.6,3.883,52.713,3.839	c-0.67-0.033-1.866-0.671-2.557-0.755c-0.692-0.084-3.382-0.397-5.408-0.042c-1.195,0.21-2.18-0.105-2.767,0.21	c-0.587,0.314-3.102,1.95-4.465,1.971s-2.222-0.587-3.123-0.482c-0.901,0.105-2.201,0.293-3.123,0.776s-1.866,1.824-2.851,2.054	c-0.985,0.231-1.908,0.042-2.998,0.524c-1.09,0.482-2.788,1.845-3.501,2.138c-0.713,0.293-1.3,0.273-1.698,0.566	c-0.398,0.293-0.65,0.65-1.551,0.839c-0.901,0.189-1.384,0.105-1.845,0.566c-0.461,0.461-2.39,1.53-2.956,2.054	s-2.138,1.237-2.83,2.033c-0.692,0.797-1.572,1.488-2.306,2.453c-0.734,0.964-2.264,1.74-2.453,2.39s0.063,1.803-0.314,2.578	c-0.377,0.776-0.629,2.39-1.09,2.83s-0.65,1.111-0.755,1.824c-0.105,0.713-0.922,1.342-1.153,2.159	c-0.231,0.818,0.021,1.111-0.21,1.719s-1.006,1.509-1.132,2.222c-0.126,0.713-0.084,1.153,0.566,1.887s0.818,1.887,1.321,2.243	s0.293,1.048,0.755,1.488s1.111,0.859,1.111,1.363s-0.105,1.929,0.063,2.788s1.069,1.908,1.027,2.746	c-0.042,0.839-0.021,2.977-0.231,3.543c-0.21,0.566-0.964,1.405-1.006,2.117c-0.042,0.713,0.147,1.467,0.713,1.572	s1.153-1.174,1.551-1.111c0.398,0.063,0.734,0.419,0.629,1.174c-0.105,0.755-0.482,1.677-0.524,2.18	c-0.042,0.503-0.734,0.377-0.755,1.111s0.147,2.075,0.021,2.725c-0.126,0.65-0.44,1.237-0.461,1.908s0.168,3.04,0.126,3.773	c-0.042,0.734-0.398,1.677-0.461,2.432c-0.063,0.755,0.356,1.572,0.335,2.096s-0.126,1.237,0,1.803	c0.126,0.566,1.3,1.572,1.342,2.264c0.042,0.692,0,1.761,0.273,2.327c0.273,0.566,1.258,1.761,1.195,4.067	c-0.063,2.306-0.533,3.184-0.818,3.459c-0.587,0.566-0.566,1.174-0.797,1.551c-0.231,0.377-1.006,0.797-1.027,1.342	c-0.021,0.545,0.44,0.868,1.048,0.88c1.048,0.021,1.887-1.069,2.348-0.985c0.461,0.084,0.629,0.545,0.545,1.027	c-0.084,0.482-0.943,1.214-1.425,1.561c-0.482,0.347-1.153,1.206-1.551,1.542c-0.398,0.335-0.985,0.273-1.069,0.88	c-0.084,0.608-0.063,1.488-0.252,1.95s-1.006,0.776-1.006,1.698s-0.147,2.306,0.042,3.102c0.189,0.797-0.21,2.159,0.147,2.788	c0.356,0.629,0.94,1.539,1.09,2.222c0.189,0.859,2.39,2.516,2.474,3.082c0.084,0.566,0.293,0.839,0.65,1.342	c0.356,0.503,1.611,1.852,1.803,2.411c0.231,0.671,0.168,1.908,0.356,2.369s0.356,1.405,0.293,1.845	c-0.063,0.44-0.608,1.887-0.545,2.62c0.063,0.734,1.384,2.369,1.991,2.725c0.608,0.356,0.776-0.042,1.048,0.21	s0.88,1.237,1.572,1.384c0.692,0.147,1.342-0.273,1.761-0.105c0.419,0.168,0.65,0.461,1.698,0.692s2.331,0.562,2.897,0.541	c0.566-0.021,1.254-0.08,1.841,0.381s2.222,2.243,2.516,3.438c0.293,1.195,0.88,2.453,0.797,3.648	c-0.084,1.195-0.666,3.122-0.629,3.941c0.105,2.327,1.132,2.144,1.384,2.788c0.642,1.643,1.165,1.793,1.378,3.008	c0.273,1.551-0.393,3.7-0.372,4.727c0.021,1.027,0.335,1.866,0.818,2.369s2.935,2.138,3.731,3.165	c0.797,1.027,1.321,1.222,1.719,1.408c0.398,0.185,0.65,0.94,1.027,1.045s1.027,0.335,1.153,0.901	c0.126,0.566,0.356,0.964,0.692,1.342c0.335,0.377,0.273,1.258,0.797,1.908c0.782,0.969,1.884,1.846,2.264,2.62	c0.566,1.153,0.943,2.159,1.027,2.914c0.084,0.755,0.545,1.593,0.587,2.264c0.042,0.671,0.755,1.216,0.859,1.698	c0.105,0.482,0.461,1.908,0.629,2.557c0.168,0.65,0.644,1.195,0.846,2.201c0.202,1.006,0.579,1.174,1.187,1.321	c0.608,0.147,0.88-0.042,1.153,0.545c0.273,0.587,0.922,1.405,1.488,1.467c0.566,0.063,1.402-0.469,1.926-0.49	s0.882,0.288,1.114,0.301c0.451,0.026,0.514-0.325,0.954-0.241c0.44,0.084,0.939,0.649,0.953,1.07	c0.022,0.644,0.23,1.186,0.42,1.452c0.524,0.734,1.184,0.609,1.279,0.968c0.21,0.797-0.419,1.719-0.293,2.725	c0.075,0.604-0.302,0.944-0.273,1.509c0.042,0.818,0.388,1.384,0.398,1.635c0.021,0.503-0.335,0.44-0.273,1.216	c0.051,0.623,0.772,0.984,0.922,1.446c0.273,0.839,0.046,2.071,0.004,2.49c-0.042,0.419-0.11,1.804,0.52,3.065	c0.713,1.425,1.174,2.746,1.174,3.522c0,0.776,0.398,1.048,0.377,1.572c-0.021,0.524-0.398,1.509,0.168,1.509s0.925-0.489,1.3-1.53	c0.189-0.524,0.692-0.21,0.88-0.964c0.189-0.755,0.608-1.908,0.776-2.599c0.168-0.692,0.629-2.39,0.734-3.123	c0.105-0.734,0.072-1.717,0.273-2.18c0.317-0.734,0.9-0.588,1.152-0.986c0.252-0.398,0.421-1.718,0.169-2.577	c-0.063-0.217-0.335-0.524-0.335-0.755s-0.056-1.857,0.195-2.151c0.252-0.293-0.006-1.057,0.015-1.35	c0.021-0.293-0.042-1.342,0.147-1.53c0.189-0.189,0.168-1.195,0.21-1.467c0.042-0.273,0.21-1.237,0.734-1.195	c0.245,0.02,0.293,0.545,0.985,0.524s1.279-0.985,1.698-0.964c0.419,0.021,1.3,0.231,1.614,0c0.314-0.231,0.922-1.027,1.614-0.964	c0.692,0.063,1.991,0.964,2.704,0.859c0.713-0.105,3.165-2.075,3.585-3.165c0.419-1.09,0.356-1.572,0.65-2.054s0.734-0.65,0.88-1.3	c0.147-0.65-0.168-1.53,0.126-1.95c0.293-0.419,0.755-0.168,1.111-0.629c0.356-0.461,1.572-1.908,2.033-2.159	c0.461-0.252,1.279-0.482,1.866-1.258c0.587-0.776,1.53-0.964,2.683-3.082c0.545-1.002,2.411-2.033,3.354-2.536	c0.943-0.503,1.929-1.593,2.117-2.117c0.189-0.524,1.174-2.222,1.111-3.564c-0.063-1.342,0.859-4.088,0.859-5.052	c0-0.964-0.88-3.648-0.776-4.339c0.105-0.692,0.713-1.446,0.713-1.991c0-0.545-0.448-0.903-0.293-1.677	c0.314-1.572,1.782-2.222,1.95-2.83c0.168-0.608,0.042-2.327,0.189-2.935c0.147-0.608,0.398-1.069,0.482-2.012	c0.084-0.943,1.153-2.243,1.551-2.39c0.398-0.147,0.713-0.105,1.405-0.65c0.692-0.545,2.348-1.95,2.893-2.117	c0.545-0.168,0.859-1.174,3.627-1.174c2.767,0,2.516,0.943,3.983,1.006s2.872-1.027,3.04-2.054c0.168-1.027-0.063-2.39,0.168-3.103	s-0.147-2.054-0.042-2.62s-0.335-1.488-0.168-2.138s0.377-1.216,1.3-1.572c0.922-0.356,1.509-1.174,1.866-1.866	s0.482-1.294,0.88-1.79s0.964-1.334,0.964-2.298s-0.932-1.644-1.027-2.474c-0.147-1.279-0.998-1.939-1.279-3.061	c-0.21-0.839-0.252-1.488,0.168-2.159c0.419-0.671,2.306-1.761,2.411-2.788s-0.461-2.201-0.503-2.704	c-0.042-0.503-0.063-1.74-0.21-2.327c-0.147-0.587-0.44-0.629-0.482-1.09c-0.042-0.461-0.21-1.384-0.44-1.635	c-0.231-0.252-0.818-0.482-1.132-0.356c-0.314,0.126-0.44,1.048-0.335,1.719s0,1.363,0.21,1.803c0.21,0.44,1.258,1.467,1.258,2.033	s-0.797,1.572-1.405,1.971c-0.608,0.398-2.138,3.04-2.138,4.025s0.608,2.39,0.943,2.914c0.335,0.524,1.09,1.656,1.048,2.201	c-0.042,0.545,0.252,1.405,0.273,2.075c0.021,0.671-0.189,1.782-1.258,2.243c-1.069,0.461-2.348,2.702-2.662,3.354	c-0.545,1.132-0.017,2.872-0.084,3.291c-0.168,1.048-0.836,1.635-0.88,2.138c-0.105,1.195,0.901,1.342,0.776,2.222	c-0.126,0.88-0.211,1.566-0.943,1.509c-1.363-0.105-1.676-1.103-2.306-1.09c-1.006,0.021-1.216,0.65-2.075,0.713	s-1.237-0.021-1.803,0.147s-1.593,0.818-1.971,0.922c-0.377,0.105-1.95,0.503-2.432,0.797c-0.482,0.293-1.572,0.964-2.83,1.446	c-1.258,0.482-2.25,1.976-2.495,2.516c-0.608,1.342-0.052,2.856-0.168,3.312c-0.335,1.321-1.768,3.43-1.95,4.297	c-0.298,1.423-0.713,2.767-0.776,3.962s-0.73,3.091-0.943,4.633c-0.356,2.578-0.042,6.182-0.189,6.781	c-0.147,0.598-1.887,3.596-2.725,4.476c-0.839,0.88-2.474,2.62-3.019,2.725s-0.964-0.126-1.425,0.252s-1.509,1.908-1.887,2.453	c-0.377,0.545-1.761,2.495-2.18,2.851c-0.419,0.356-0.503,0.524-0.524,0.734c-0.021,0.21-0.042,1.3-0.377,1.488	c-0.335,0.189-0.818,0.797-0.922,1.384c-0.105,0.587-0.985,1.614-1.09,2.117c-0.105,0.503-0.608,1.363-1.195,1.53	c-0.587,0.168-2.222,0-2.725,0.168c-0.503,0.168-1.594,1.188-2.264,1.3c-1.384,0.231-1.551-0.524-2.264-0.461	c-0.713,0.063-1.027,0.608-1.488,0.566c-0.461-0.042-1.342-0.356-1.593-0.901C64.159,171.605,63.174,171.206,62.335,171.584z"/>
    <path d="M57.43,76.685c0.84,0.263,1.258-0.44,1.509-0.786c0-1.855,0.031-11.54,0.22-12.955c0.189-1.415-0.723-12.064-0.681-14.873	c0.042-2.809-0.377-8.721-0.545-10.943c-0.168-2.222-1.174-5.325-1.132-6.331c-0.377,0.126-0.922,0.671-0.922,1.174	s0.252,1.174,0,1.342c-0.252,0.168-1.174,0.293-1.132-0.419c0.042-0.713,0.252-1.761,0.503-2.096	c0.252-0.335,0.377-1.677,0.377-2.851c0-1.174,0.085-2.267-0.545-3.689c-1.24-2.803-1.97-4.848-2.432-5.115	c-0.597-0.346-0.346,1.226-0.818,1.163s-0.629-0.786-0.597-1.446c0.031-0.66-0.031-1.258-0.283-1.195	c-0.252,0.063-0.218,0.616-0.409,0.597c-0.33-0.031-0.692-0.472-0.472-0.786c0.22-0.314,0.629-0.786,0.723-1.289	c0.094-0.503-0.566-0.849-1.132-0.849c-0.566,0-0.818,0.44-0.943,1.038c-0.126,0.597-0.314,1.724-0.314,2.107	c0,0.723-0.283,1.258-0.346,1.541c-0.063,0.283-0.314,0.597-0.629,0.157c-0.314-0.44-0.629-1.604-0.912-1.95	c-0.283-0.346-0.66-1.729-1.101-2.673c-0.44-0.943-1.101-2.704-1.761-2.578c-0.66,0.126-0.818,0.88-0.912,1.541	s-0.692,2.295-0.629,3.05s-0.247,2.823-0.66,2.846c-0.566,0.031-1.101-1.431-1.101-2.531c0-1.101-0.755-2.233-0.597-3.679	c0.157-1.446-0.283-2.044-1.038-2.012s-0.975,0.692-1.289,1.446c-0.314,0.755-1.918,2.453-1.855,3.396	c0.063,0.943,0.943,1.384,1.006,2.295s1.55,2.326,1.509,3.773c-0.063,2.233-1.553,4.491-2.119,4.396	c-0.566-0.094-0.652-0.812-0.398-2.07c0.253-1.258,0.19-2.704,0.033-3.742c-0.157-1.038-0.88-0.88-1.132-0.755	c-0.252,0.126-0.723,0.692-0.755,1.101s-0.063,1.038-0.409,1.038s-0.818-0.755-0.723-1.604s-0.597-3.396-1.667-3.522	c-1.069-0.126-1.038,2.327-1.163,2.956c-0.126,0.629-0.409,2.578-0.314,3.333c0.094,0.755,0.629,2.453,0.629,3.365	c0,0.912-0.164,1.729-0.648,1.729c-0.484,0-0.893-1.101-0.799-2.327c0.094-1.226-1.099-2.479-1.101-3.333	c-0.006-2.673,0.365-5.408,0.245-6.918c-0.12-1.509-0.963-1.116-1.189-1.038c-0.409,0.141-0.566,1.667-0.912,2.17	c-0.486,0.707,0.141,2.358-0.267,2.626c-0.206,0.134-1.273-0.33-1.431-0.802c-0.157-0.472-0.66-2.201-1.415-1.981	s-0.786,1.163-0.566,2.012c0.22,0.849,0.912,1.698,1.069,2.358c0.157,0.66,0.472,1.446,1.069,1.918	c0.597,0.472,1.132,2.264,1.226,2.924c0.094,0.66,0.126,1.572-0.377,1.415c-0.503-0.157-1.384-1.006-1.635-2.075	c-0.252-1.069-1.132-1.824-1.792-1.824s-0.755,1.572-0.723,2.453c0.031,0.88,0.723,3.239,0.597,3.585	c-0.126,0.346-0.535,0.566-0.975-0.535c-0.44-1.101-0.88-2.327-0.943-3.019c-0.063-0.692-0.503-1.667-1.384-1.604	c-0.88,0.063-0.755,1.226-1.572,1.729c-0.818,0.503-2.358,2.107-2.484,2.987c-0.126,0.88,0.44,2.295,0.409,2.83	c-0.031,0.535,0.157,1.729,0.44,2.107s0.943,1.509,0.597,2.233c-0.346,0.723-0.849,0.314-0.912-0.377	c-0.063-0.692-0.346-1.604-0.912-1.918c-0.566-0.314-0.849-1.069-1.415-0.786s-0.818,2.233-0.786,3.113	c0.031,0.88,0.427,3.238,1.195,5.188c0.554,1.408,0.44,2.327,1.006,3.427c0.566,1.101,0.189,2.295,0.597,2.893	c0.409,0.597,1.918,2.861,2.075,3.648c0.157,0.786-0.126,3.773,0.031,4.465c0.157,0.692,0.755,2.896,0.472,3.333	c-1.289,1.986-3.522,4.811-3.396,7.138s0.695,3.787,1.163,4.748c0.597,1.226,3.553,3.553,3.742,5.597s-0.912,2.107-0.912,3.27	s0.344,1.541,1.351,2.17c1.007,0.629,0.49,2.076,2.202,2.107c1.038,0.019,1.698-1.541,1.729-2.421s-1.95-2.201-2.012-3.113	c-0.063-0.912-0.346-3.427,0.44-4.151c0.786-0.723,1.604-1.509,2.233-2.641c0.629-1.132,0.723-1.478,1.572-1.604	c0.849-0.126,1.352-0.377,2.547-1.069s2.012-1.761,2.641-1.729c0.629,0.031,0.88,0.692,0.723,1.069	c-0.157,0.377-1.226,0.786-1.195,1.572c0.031,0.786-0.535,3.239,0.818,3.365c1.352,0.126,1.604-1.572,1.981-2.075	c0.377-0.503,1.321-1.478,1.855-1.321c0.535,0.157,0.629,1.824,1.446,2.17s1.258-0.252,1.572-0.031s1.321,1.232,1.824,1.654	s0.283,1.019,0.126,1.271c-0.157,0.252-0.566,0.629-0.472,0.975s0.319,1.115,1.258,1.226c1.321,0.157,2.282-1.755,2.767-1.572	c1.415,0.535,1.132,1.541,1.792,1.981c0.66,0.44,2.358,1.321,3.459,1.384s2.17-0.409,2.83-0.943c0.66-0.535,0.912-1.424,0.629-2.237	c-0.283-0.813-1.446-1.725-1.761-2.417c-0.314-0.692-0.063-1.269-0.314-1.751c-0.252-0.482-1.038-1.174-1.887-1.111	c-0.849,0.063-1.699,1.221-2.39,1.111c-2.421-0.387-1.446-2.243-2.799-2.746c-1.352-0.503-1.918,0.094-1.95,0.472	c-0.031,0.377-0.031,1.604-0.566,1.604c-0.535,0-1.729-0.692-1.887-1.604c-0.157-0.912,0.063-1.667-0.629-1.792	c-0.692-0.126-1.321,0.189-1.824-0.157c-0.503-0.346-2.736-2.83-3.144-3.962c-0.409-1.132-2.17-2.075-2.421-4.119	c-0.252-2.044-0.22-2.893-0.912-5.031c-0.692-2.138-1.698-6.383-1.446-8.238c0.252-1.855,1.289-3.585,1.384-4.842	c0.094-1.258,1.321-4.654,4.685-8.427c3.365-3.773,7.075-7.106,8.081-6.981c1.006,0.126,0.849,0.472,0.723,0.88	c-0.126,0.409-2.547,3.082-3.396,3.648c-0.849,0.566-2.767,2.767-3.239,4.685c-0.472,1.918-0.535,3.302-0.22,3.805	s0.22,1.384,0.031,1.604c-0.189,0.22-1.195,0.377-1.415-0.22c-0.22-0.597-0.692-1.384-1.195-1.352s-0.88,0.755-0.849,1.321	c0.031,0.566,0.283,1.698,0.189,2.358c-0.094,0.66,0.031,1.226,0.44,1.478c0.409,0.252,0.975,1.069,0.943,1.415	s-0.346,0.943-0.377,1.226c-0.031,0.283-0.252,1.006-0.786,1.132s-1.635-0.661-2.044-0.268c-0.409,0.394-0.472,1.588-0.409,1.966	c0.063,0.377-0.037,1.766,1.981,2.736c2.421,1.163,3.073,2.893,3.156,4.245c0.083,1.352-1.584,1.415-1.521,2.358	c0.063,0.943,3.113,4.842,5.063,4.874s2.39-1.908,3.333-2.254c0.943-0.346,3.459-0.65,3.459,0.545c0,1.509-0.514,1.719-0.419,2.474	s0.987,1.816,1.834,1.876c1.761,0.126,2.799-2.547,3.302-2.484c0.503,0.063,0.864,1.767,1.855,1.572	c1.761-0.346,0.943-2.704,2.107-2.736c0.66-0.018,0.66,1.258,0.692,2.295c0.031,1.038-0.446,2.472-0.126,3.49	c0.692,2.201,3.459,1.572,3.365,3.154c-0.065,1.089-1.698,2.034-1.667,2.851C56.644,76.496,56.927,76.528,57.43,76.685z"/>
</g>
</svg>
