<!--
  SVG Music Logos
  Trivium - Ascendancy v1.0.0
  https://github.com/tiagoporto/svg-music-logos
  Copyright (c) 2016 Tiago Porto (http://tiagoporto.com)
-->
<svg xmlns="http://www.w3.org/2000/svg" viewBox="0 0 200 109">
  <path d="M96.975 1.743c2.217 0 4.342.398 6.306 1.126-.653 1.403-1.058 3.012-.73 4.924C96.266 4.207 89.3 5.44 87.433 14.15l.14.215-.05.027-1.554-.37c-.095 4.308-4.06 7.47-7.06 7.732-.063-.61-.094-1.226-.094-1.85 0-10.03 8.133-18.16 18.16-18.16z"/>
  <path d="M53.316 44.273c-.582.884-1.336 1.336-2.263 1.358-1.365-2.644-3.298-5.85-5.062-6.834-2.27-1.264-5.3-.776-7.544-1.247l-.017-.013.016.594-2.263 32.973-2.715-32.714.033-.97h-1.196v51.85c.14 2.494-2.804 16.06-4.46 17.907-1.558-3.9-4.414-15.97-4.203-17.844V37.42h-1.455l.033.97-2.715 32.714L17.24 38.13l.016-.558c-2.23.432-5.2-.02-7.43 1.224-1.766.983-3.7 4.19-5.063 6.835-.927-.02-1.68-.473-2.263-1.357l3.75-12.478c.888.89 1.294 2.116 3.362 2.457 2.068.34 5.043.668 7.63.453l.098.007.03-1.04 2.327-4.656 2.337 5.495h11.618l2.337-5.494 2.326 4.655.03 1.05.228-.015c2.586.216 5.56-.112 7.63-.453 2.067-.34 2.473-1.566 3.36-2.457l3.752 12.478z"/>
  <path d="M185.26 47.242l-9.77 26.238-8.465-26.237h-20.39v2.463h1.547c1.23-.014 2.032.79 2.07 2.076l.385 17.697c-.128 6.625-4.736 8.455-8.387 8.463-3.65.008-7.08-2.983-7.08-7.156V52.09c-.04-1.404.56-2.513 2-2.616h2.54v-2.16l-20.236.094h-7.605c.593-1.28 1.44-2.607 2.965-2.67h2.148v-2.052h-12.475v2.05h1.995c1.522.038 2.018 1.18 1.278 3.426L97.404 75.667l-9.867-29.5c-.273-.868.238-1.345 1.534-1.43h2.863v-2.05H76.186v2.05h1.636c.906.105 1.387.765 1.738 1.687l.372.984H66.148c-.192 0-.278.082-.278.238v1.273c0 .163.087.23.278.245l3.008.253c.71.128 1.178.443 1.222.88v26.475c0 1.032-.323 1.596-.928 1.748l-2.038.162-5.702-8.974c-.605-.886-1.767-1.916-.512-3.215l.524-1.36h-4.177l.275-.607c.143-.316 1.792-.424 2.813-.837 5.845-2.367 6.555-9.91 1.426-14.016-3.725-3.304-10.74-2.458-11.858-2.458h-11.55c-.162 0-.236.082-.236.237v1.666c0 .162.075.223.237.244l3.233.408c.154.02.237.074.237.237v28.163c0 .163-.083.218-.237.237l-3.233.384c-.162.02-.237.09-.237.26v1.274c0 .155.073.237.237.237h13.653c.17 0 .26-.082.26-.237v-1.273c0-.155-.09-.24-.26-.26l-3.22-.385c-.154-.018-.236-.09-.236-.237v-12.17c0-.13.082-.195.237-.195h.58c2.33 0 3.327 2.452 5.735 6.48l7.536 12.613h8.423l-2.755-4.336h13.023c.192 0 .288-.082.288-.238v-1.28c0-.173-.097-.25-.288-.264l-2.912-.23c-.85-.045-1.094-.544-1.065-1.25V50.386c.03-.534.25-.848.66-.942l2.316-.194L93.773 84c.673 1.83 1.542 1.83 2.608 0l14.704-34.757 2.083.175c.71.128 1.178.443 1.222.88v26.475c-.002 1.032-.324 1.596-.93 1.748l-3.3.26c-.192 0-.278.09-.278.264v1.28c0 .157.086.24.278.24h15.482c.192 0 .288-.083.288-.24v-1.28c0-.172-.097-.248-.288-.263l-2.912-.23c-.85-.044-1.094-.543-1.065-1.25V50.387c.017-.317.1-.556.252-.718h5.18c.846-.002 1.018.97 1.04 2.695v18.33c.118 3.817 2.588 10.606 13.127 10.653 5.695-.004 12.263-3.922 12.36-10.624V51.264c.068-1.347 1.05-1.834 2.446-1.93 1.206.015 2.627.625 2.68 1.568l-.52 19.885c-.1 4.7-.795 7.504-2.36 7.54h-2.463v2.467h12.39v-2.622h-2.857c-1.563-.213-2.027-3.174-1.99-7.385V51.63l11.694 31.468c.933 2.313 1.682 2.488 2.77 0l11.233-31.7v40.78c.885 6.22 2.14 11.323 3.847 15.08 1.33-3.888 3.078-9.402 3.462-14.542V51.09c.05-1.194.588-1.712 1.462-1.77h2.083v-2.08h-12.24zM52.38 63.864c-.917.035-1.075.072-3.336.072-.13 0-.196-.082-.196-.237V50.055c0-.163.082-.244.237-.245l1.973-.01C57.056 49.766 58 52.314 58 57.022c0 3.244-2.57 6.726-5.62 6.842z"/>
  <path d="M104.324 3.293c6.367 2.822 10.81 9.198 10.81 16.61 0 5.655-2.586 10.708-6.64 14.038-.892-1.283-2.09-2.456-3.928-3.134 6.25-3.65 8.664-10.298 2.054-16.272l-.256.015.002-.06 1.097-1.16c-3.71-2.25-4.45-7.32-3.14-10.037z"/>
  <path d="M107.6 34.63c-2.987 2.16-6.657 3.433-10.625 3.433-9.018 0-16.5-6.577-17.917-15.194 1.525-.143 3.1-.6 4.57-1.826.038 7.237 4.587 12.652 13.066 9.915l.115-.23.05.03.455 1.53c3.823-2.096 8.61-.174 10.286 2.34z"/>
  <path d="M88.303 13.98l.142-.696c2.488-8.113 11.865-7.025 12.927.2-2.88.185-3.93 2.15-3.826 3.858.414 3.802 3.804 4.162 6.065 3.05 2.262-1.11 2.535-3.488 2.703-4.478l.02-.54.53.472c5.783 6.21.152 13.788-6.635 11.095 1.278-2.586.1-4.48-1.43-5.242-3.5-1.543-5.506 1.214-5.674 3.727-.168 2.514 1.754 3.938 2.528 4.58l.457.286-.674.225c-8.27 1.902-12.016-6.763-6.29-11.294 1.6 2.4 3.828 2.33 5.254 1.385 3.086-2.26 1.702-5.376-.39-6.778-2.094-1.402-4.29-.45-5.23-.1l-.477.252z"/>
</svg>
