<svg xmlns="http://www.w3.org/2000/svg" viewBox="0 0 200 40" class="quatorze-bis--ao-vivo">
  <g class="quatorze-bis__numbers">
    <path d="M16.951 1.854L30.603 1.854 30.603 39.184 19.952 39.184 19.952 10.402 7.009 19.679 2 11.818 16.951 1.854z"/>
    <path d="M64.805,1.836L38.253,18.57v13.683h28.782v6.931h11.651V1.836H64.805z M67.035,24.138H46.177l20.858-13.155 V24.138z"/>
  </g>
  <g class="quatorze-bis__letters">
    <path d="M119.473,20.612l-1.764-0.404l1.458-0.499c2.821-1.147,4.237-3.802,4.237-7.984 c0-1.307-0.18-2.602-0.529-3.897c-0.908-3.217-3.455-5.086-7.639-5.606c-2.892-0.378-4.616-0.385-9.689-0.385 c-2.016,0-27.863,0-27.863,0v37.346h35.661c0.148,0,0.613-0.01,1.394-0.032c0.783-0.021,1.406-0.064,1.86-0.127 c3.941-0.435,6.445-2.389,7.513-5.871c0.253-0.733,0.412-1.391,0.497-1.996c0.084-0.605,0.126-1.306,0.126-2.113 C124.735,24.349,122.981,21.546,119.473,20.612z M89.011,10.493h17.772c3.529,0,5.293,0.966,5.293,2.909 c0,1.56-0.675,2.505-2.039,2.814c-0.666,0.127-1.363,0.191-2.114,0.191H89.011V10.493z M109.319,30.475H89.011v-5.977h21.111 c0.359,0,0.655,0.043,0.898,0.127c0.254,0.085,0.486,0.159,0.719,0.244c1.109,0.563,1.67,1.487,1.67,2.771 C113.408,29.53,112.046,30.475,109.319,30.475z"/>
    <path d="M132.617 1.819L143.944 1.819 143.944 39.182 132.617 39.182 132.617 1.819z"/>
    <path d="M162.931,26.525c0,1.975,0.508,3.238,1.521,3.791c1.706,0.881,5.977,0.722,7.492,0.722s5.95,0,8.294,0   c5.065,0,6.435-0.247,6.435-2.931c0-1.635-0.782-2.58-2.356-2.824l-4.576-0.255l-15.827-0.775c-6.712,0-10.107-1.451-11.169-5.319   c-0.434-1.498-0.655-3.111-0.655-4.853c0-3.153,0.285-5.447,0.866-6.88c0.951-2.368,2.535-3.929,4.765-4.683    c2.229-0.753,6.847-1.136,13.842-1.136c6.124,0,14.358,0.28,16.789,0.754c2.648,0.5,5.75,1.301,7.418,4.385 c0.718,1.349,1.078,3.037,1.078,5.065v2.527h-11.327c-0.147-1.697-0.522-2.864-1.759-3.557c-1.108-0.62-5.125-0.648-6.662-0.648 c-1.538,0-5.399,0-6.624,0c-2.976,0-4.299,0.146-5.167,0.446c-1.257,0.287-1.891,1.158-1.891,2.612c0,1.465,0.761,2.399,2.293,2.792 c1.981,0.41,3.124,0.287,5.452,0.287l10.429,0.34l6.076,0.244c1.619,0,3.962,0.594,4.797,0.87c3.688,1.242,5.537,4.821,5.537,10.734 c0,6.428-2.667,10.098-8.981,10.979c-1.477,0.206-8.478,0.403-10.767,0.403c-4.418,0-18.055-0.21-20.699-1.179  c-1.247-0.456-2.335-1.083-3.265-1.868c-1.928-1.697-2.694-4.767-2.694-10.045H162.931L162.931,26.525z"/>
  </g>
</svg>
