<svg xmlns="http://www.w3.org/2000/svg" width="200" height="80" viewBox="0 0 200 80">
  <path class="st0" d="M196 19.3l-8.4 8.3-12-12.2v41.3l2.9 2.9 9.1-9.2 8.1 8-16.6 16.4-14.6-14.5V18.4l15.4-15.3L196 19.3zM143.5 3.2h-14.9l-8.8 8.8 4.8 4.8v44.4l-4.7 4.6 8.7 9h14.9l13-13.2V16.4l-13-13.2zm1.9 52.2l-9.7 9.4V13.3l9.7 9.4v32.7zM117.1 36.6l-29 40.5 10.1-29.4H88.1l13.2-30.4h12.5l-7.1 19.3h10.4zM79.9 19.3l-8.5 8.3-11.9-12.2v41.3l2.9 2.9 9-9.2 8.2 8L63 74.8 48.4 60.3V18.4L63.8 3.1l16.1 16.2zM40.4 60.3V18.4L25.1 3.2 8.5 19.6v40.7L4 64.8l10 10.1 10.1-10.1-4.5-4.5v-9.2h9.7v9.2l-4.5 4.5 10 10.1 10.1-10.1-4.5-4.5zM29.3 39.5h-9.7V15.4l9.7 9.7v14.4z"/>
</svg>
