<svg  xmlns="http://www.w3.org/2000/svg" viewBox="0 0 200 110">
  <path d="M70.503 68.46c-.405-1.025-.405-1.025-1.072-3.146-.57-.643-.57-.643-.762-.977-.095-.786-.167-1.55-.238-2.312-.238-.715-.238-.715-.882-2.24-.19-.167-.38-.334-.572-.5H65.38c-.263-.05-.5-.096-.74-.12-.358-.43-.69-.834-1.025-1.24-.43-.666-.43-.666-.763-1.405-.214-.238-.214-.238-.667-.524-.548-.763-.548-.763-1.406-1.787l-.573-.43c-.167-.215-.167-.215-.667-1.454-.524-.763-.715-1.19-1.24-2.026-.023-.095-.023-.19-.023-.262.095-.215.095-.215 1.025-1.215.477-.238.953-.477 1.406-.69l.93-.93c.07-.143.142-.286.214-.405-.095-.334-.167-.667-.238-.977-.07-.094-.12-.19-.167-.26-.31-.24-.31-.24-1.144-.597-.38-.048-.763-.095-1.12-.143-.358-.215-.358-.215-1.907-.882-.43-.238-.858-.477-1.263-.715-.167.024-.334.048-.477.072-.477.167-.477.167-.906.43l-.858.857c-.12.238-.238.453-.358.667-.048.19-.095.357-.143.523l.073 1.168c.238.62.477 1.216.715 1.812 0 .953 0 .953-.07 1.43-.192.31-.382.596-.573.882-.12.477-.214.953-.31 1.43-.12.334-.238.667-.357.977-.19.215-.38.43-.572.644-.12.238-.238.477-.334.69-.477.62-.477.62-.81 1.193l-1.072 1.287c-.143.215-.286.43-.405.643l-.715.786c-.19.38-.19.38-.715 1.12-.12.262-.238.524-.334.763-.333 1.096-.642 2.192-.952 3.265-.12.5-.238 1.002-.334 1.502-.07.882-.07.882-.07 2.454.142 1.883.285 3.765.404 5.648.143.953.31 1.43.477 2.478-.024.19-.024.38-.024.548-.81.596-.81.596-1.548 1-.024.073-.048.144-.048.192-.477.238-.953.477-1.406.69-.143.12-.286.24-.405.335l-1.5.786c-.644.548-1.36 1.025-1.907 1.5-.405.24-.786.478-1.168.716l-.215.357-.643.5c-.143.048-.262.095-.38.143-.24.19-.478.357-.692.524-.74.12-.74.12-1.215.12-.19-.096-.19-.096-.38-.31.142-.358.285-.692.428-1.026l.573-.5c.43-.168.858-.335 1.287-.477.548-.38 1.096-.762 1.62-1.143-.024-.43-.024-.858-.024-1.287-.07-.095-.143-.167-.214-.238l-1.072-.43h-2.216c-.286.096-.548.168-.81.24-.31.166-.31.166-1 .762-.263.167-.525.334-.787.477-.215.192-.405.358-.596.525-.404.238-.81.477-1.19.715-.86.38-.86.38-1.502.548-1.19.167-1.19.167-3.17.31-.31.072-.595.12-.88.167-.335.19-.644.38-.954.548-.38.12-.763.238-1.12.334-.43-.072-.858-.12-1.263-.167-.31-.215-.595-.43-.88-.643-.382-.167-.74-.334-1.097-.477-1.24-.262-2.454-.524-3.67-.786-.715-.215-1.43-.405-2.145-.596-.143-.358-.286-.69-.43-1.025l.073-1.31-.07-1.073c-.096-.143-.192-.286-.263-.43-.262-.19-.524-.356-.763-.523-.072-.095-.12-.19-.167-.262-.286-.19-.286-.19-1.835-.858-.238-.238-1.096-.786-1.31-1-.215-.382-.406-.764-.597-1.145-.215-1.19-.43-2.383-.643-3.575-.142-1.834-.142-1.834-.142-3.335.12-.69.215-1.382.31-2.073.12-.382.215-.74.31-1.097.12-.214.238-.43.334-.643.215-.596.43-1.168.62-1.74.43-.858.882-1.597 1.19-2.312.335-.43.668-.858.978-1.287.31-.237.93-.88 1.835-1.62.167-.19.31-.356.453-.523.167-.095.31-.19.453-.286.262-.285.5-.57.74-.833.166-.095.31-.19.452-.286.19-.26.38-.5.572-.738.12-.072.214-.143.31-.215.5-.572.5-.572.882-1.144.118-.095.237-.19.357-.262.262-.476.524-.952.786-1.405.19-.19.19-.19 1.93-1.144.548-.214 1.072-.428 1.597-.62.38-.237.572-.452 1.025-.714.357-.12.69-.238 1.025-.334l.643-.072c1.835 0 1.835 0 3.265.072l3.098-.072c.286-.095.572-.167.858-.238.143-.095.286-.167.405-.238.476-.167.476-.167 1.786-.38.334.285.334.285.548.57.072.31.12.597.167.883 0 .334 0 .334-.166 1.12l-.072 1.597.143.858c.31.405.62.81.906 1.215l.573.5c.405.143.405.143 1.12.548.74.12 1.477.215 2.216.31.19.143.38.286.547.405l1.477 1.55c.453.023.882.047 1.31.047l1.24-1.24v-.142c-.38-.524-.715-1.19-.977-1.55-.238-.166-.453-.333-.667-.5-.143-.214-.286-.404-.43-.595-.094-.072-.19-.143-.285-.19-.477-.55-.953-1.264-1.597-2.074-.286-.5-.548-.977-.81-1.454-.048-.858-.072-1.716-.095-2.55l-.143-.786v-2.62c.143-.573.143-.573.477-1.288.215-.643.43-1.287.62-1.906.286-.524.286-.524.524-.763.358-.74.358-.74.668-1.622.167-.238.334-.477.477-.715.12-.286.238-.572.334-.858.142-.62.26-1.24.38-1.835.12-.238.238-.453.357-.667l.81-.74c.095.025.167.025.238.025.143.143.143.143.43.667.118.43.237.858.333 1.287.143.12.143.12.357.167.215-.096.43-.192.643-.263.048-.095.072-.167.095-.238.07-.835 0-1.36.024-2.122.167-.214.167-.214.405-.38.167-.216.31-.43.453-.62.143-.12.262-.216.38-.31 1.05-.168 2.098-.335 3.147-.5.405-.12.81-.24 1.19-.335h1.43c.31.072.62.143.907.19.142.073.26.144.38.216.572.118 1.12.213 1.668.31.763.07 1.525.118 2.288.166.405.167.405.167 1.19.715l.287.36c.143.333.31 1.286.477 1.762.286.477.548.93.81 1.382.19.238.358.453.524.667.43.263.834.525 1.24.764.285.12.547.215.81.31h.38c.334-.167.643-.334.953-.477.286-.358.286-.358.43-.667v-3.026l-.144-1.668c-.167-.858-.167-.858-.477-1.907-.048-.382-.07-.74-.095-1.097-.118-.477-.214-.953-.31-1.43-.19-.334-.38-.643-.547-.953-.07-.215-.12-.43-.167-.643l.072-.5c.43-.262.858-.524 1.263-.763.335-.405.668-.81.978-1.215 0-.144 0-.144-.5-1.216-.143-.095-.286-.19-.405-.262h-.81c-.38.095-.74.167-1.096.238-.238.12-.477.238-.715.334-.596.167-1.19.334-1.763.477h-1.336c-.167-.094-.334-.166-.477-.237-.5-.405-.5-.405-.977-.953-.286-.5-.572-1-.834-1.477-.214-.5-.43-1-.62-1.5-.286-.454-.286-.454-.453-.597-.5-1-.5-1-1.31-2.335-.24-.476-.454-.952-.668-1.405l-.238-.238c-.19-.357-.357-.715-.524-1.072-.286-.43-.286-.43-.596-.763-.215-.38-.405-.763-.596-1.144-.023-.38-.047-.74-.07-1.096-.12-.334-.216-.643-.31-.953-.525-.86-.525-.86-.954-1.383-.74-.167-1.477-.334-2.192-.5-.357-.216-.357-.216-.667-.525-.357-.19-.357-.19-1.072-.357-.262.024-.524.048-.763.048-.143.072-.262.143-.38.215l-.86.93c-.118.214-.237.428-.357.62L43.6 7.245V8.51c.237.333.476.666.69 1 .12.62.215 1.24.31 1.835v.548c-.12.19-.238.38-.334.572l-.643.5c-.286.05-.572.096-.834.144-.263-.12-.525-.216-.764-.31-.19-.144-.38-.287-.572-.406-.238-.31-.238-.31-.572-.977-.453-.524-.453-.524-.834-1.12-.167-.095-.334-.19-.477-.286-.547-.07-.547-.07-1.286-.047-.143.143-.286.262-.405.38-.073.12-.144.24-.192.36-.095.333-.167.666-.238.976.07.142.12.26.167.38.43.643.43.643.69.906.31 0 1.026-.167 1.192-.143.19.453.356.882.523 1.31.238.144.453.287.667.43.095.12.19.214.286.31.024.095.048.19.048.286-.095.142-.19.285-.262.404l-.69.548c-.096.357-.168.715-.24 1.048.05.07.096.143.12.214.667.524.667.524.953.834.024.095.048.19.048.286-.12.238-.238.477-.334.715-.096.023-.192.023-.263.023-.548-.07-.548-.07-2.93-.715-.096.024-.192.024-.263.024-.095.095-.167.19-.238.286-.19.453-.19.453-.19.69.19.335.19.335.476.62 1.168.382 2.335.74 3.48 1.097.333.43.333.43 1.143 1.787.048.167.095.334.143.477v.714l-.143.643c-.62.667-.62.667-.953 1.168-.357.286-1 .596-2.43 1.478-.192.167-.382.334-.573.477-.05.07-.073.143-.096.214v1.096c.238.31.238.31.524.524 1.263.31 1.263.31 2.216.643.12.143.214.262.31.38.07.168.143.31.19.454v.86c-.047.31-.094.595-.142.88-.143.263-.262.502-.38.74l-.24.238c-.19.31-.356.62-.523.93-.192.166-.382.333-.573.5-.215.26-.405.523-.596.762-.833.596-1.024.858-1.715 1.406l-.43.572c-.237.214-.476.405-.69.596-.215.286-.43.548-.62.81-.286.095-.572.167-.858.238l-1.763.072c-.238.095-.477.167-.715.238-.215.143-.406.286-.597.43-.667.356-1.5.952-1.93 1.167-.453.118-.906.213-1.358.31-.572.07-1.144.142-1.716.19-.216.167-.43.334-.644.477-.763.405-1.5.786-2.24 1.168-1.12.31-1.12.31-1.906.62-.215.143-.43.286-.643.405-.477.167-.953.334-1.406.5-.26.238-.5.477-.738.69-.262.144-.524.287-.763.43-.216.19-.43.38-.644.572-.286.19-.572.38-.858.548l-.643.643c-.238.143-.476.262-.715.38-.215.216-.405.43-.596.62-.38.216-.763.43-1.12.644-.548.62-.977 1.215-1.19 1.406-.55.715-.55.715-.74 1.096-.238.285-.238.285-.62.595-.167.262-.334.5-.5.74-.43.285-.667.356-2.597 1.572-.072.095-.143.19-.19.262-.12.81-.216 1.596-.31 2.382-.31.786-.31.786-.954 2.86-.12.548-.214 1.072-.31 1.597-.167.547-.167.547-.572 1.333-.214.667-.428 1.335-.62 2.002-.118.524-.237 1.05-.333 1.573.095 3.36.095 3.36.095 5.886.38 2.002.38 2.002.715 3.265.405.762.81 1.524 1.215 2.263.596.667.93 1.24 1.43 1.81.238.406.477.81.715 1.192l1.477 1.55 1.263 1.12c.715.547.715.547 2.36 1.643.094.12.19.238.285.358l1.5 1c.31.335.31.335 1.574 1.36.19.094.358.19.524.285h1.906c.667-.118 1.334-.214 2.002-.31.5-.166 1-.333 1.5-.476.406-.072.81-.12 1.192-.167l1.192.07c.596.287 1.168.55 1.74.81 1.192.335 2.383.644 3.575.954.953.144.953.144 4.623.478h1.192c.548-.238.548-.238 1.096-.572.548-.715 1-1.144 1.5-1.81.644-.644 1.264-1.43 3.623-4.1.31-.238.62-.453.907-.667.095-.12.19-.24.262-.335l1.43-.715c.666-.524.666-.524 1.453-1 .215-.192.43-.382.643-.55.262-.142.524-.285.763-.428.857-.167.857-.167 1.43-.167.714.238.714.238 1.19.5.167.19.334.38.5.572.238.143.477.286.69.405.05.19.05.19.192.334.12.357.215.69.31 1.025.072.907.12 1.812.167 2.694.047.262.094.524.142.763v2.502c.167 1.048.334 2.072.477 3.097.118.357.237.715.333 1.05.19.38.38.738.548 1.095.168.81.168.81.168 1.358-.095.643-.167 3.265-.238 3.98-.167.786-.477 1.81-.81 3.48v1.596l.215.715c.262.144.262.144.882.31.62-.023 1.215-.047 1.81-.047.12-.048.24-.095.335-.143.286-.238.286-.238.572-.596.12-.262.238-.524.334-.786 0-2.073.072-3.265.072-5.815.07-.643.12-1.287.167-1.906v-1.43c-.167-1.19-.167-1.19-.334-1.81 0-.335 0-.335.167-1.36.12-.237.214-.476.31-.714.357-.62.572-.81.81-1.19.38-.954.715-1.526 1.025-2.36-.024-.334-.048-.667-.072-.977l.072-1.287c.238-.716.238-.716.596-1.43.12-.072.216-.144.31-.192.192-.238.382-.476.55-.69.404-.263.785-.525 1.167-.787.882-.69 1.74-1.38 2.597-2.048.477-.715.93-1.43 1.382-2.145.12-.334.215-.643.31-.953.357-.69.596-.93 1.215-1.954.216-.238.43-.453.62-.667.24-.453.454-.906.668-1.334.238-.24.238-.24.524-.668.38-1.263.715-2.05 1.025-3.098-.004-.247-.004-.486-.004-.724zM58.16 27.162c-.05.024-.096.048-.168.072-.262-.048-.548-.12-.834-.19.143-.025.286-.05.453-.096.168-.095.358-.19.55-.286v.5zm-10.94-4.575c.096-.334.215-.667.335-1.025.12-1.048.238-2.12.38-3.193.31-1.026.62-2.05.954-3.1.118-.237.26-.476.404-.714.072-.072.143-.143.238-.215.31-.62.31-.62.667-1.167.047-.048.094-.095.166-.143.358-.095.74-.214 1.12-.334.405.286.81.596 1.215.906.12.19.263.38.406.572l.882.81c.643 1.19.643 1.19 1.12 1.906.19.43.405.882.62 1.335.26.286.523.572.81.882.19.358.404.715.62 1.072.023.118.047.26.07.404-.285.357-.57.715-.857 1.072-.166.12-.333.238-.523.357-.43.095-.882.19-1.335.31-.596.215-1.215.43-1.835.643-.81.095-1.62.19-2.454.31-1 .358-1 .358-1.096.453 0 .07 0 .142.024.237l.5.357c2.003.31 2.003.31 3.004.38.953-.19 1.906-.404 2.86-.62.477-.142.953-.31 1.43-.476.715-.095.715-.095 1.334-.072.095.072.19.143.31.215-.095.168-.215.358-.334.55-.19.094-.38.213-.572.333-.12.143-.238.31-.38.477-.192.048-.382.095-.573.167-1.67.143-1.67.143-2.55.31-.382.143-.787.31-1.193.477-.858.167-.858.167-2.62.31-.954.572-.954.572-1.192.62-.167-.143-.167-.143-.93-.5-.07-.07-.142-.167-.214-.262-.142-.524-.31-1.072-.476-1.62-.12-.31-.262-.643-.405-.977l.07-1.048zm16.85 47.47c-.073.715-.144 1.454-.24 2.192-.642 1.19-.642 1.19-1.238 2.048-.238.19-.477.38-.74.596-.047.143-.094.286-.166.453-.43.477-.43.477-1.24 1.668-.285.286-.595.572-.905.858-.595.167-.595.167-1.214.238-1.525 0-1.525 0-2.383.073-.834.31-1.406.643-1.835.81-.262.024-.524.07-.786.12-.238-.025-.477-.073-.715-.12-.358-.262-.358-.262-1.335-1.31-.143-.192-.286-.382-.43-.597-.166-.12-.333-.262-.5-.405-.094-.166-.213-.357-.333-.547-.287-.715-.573-1.454-.883-2.192-.095-.547-.19-1.095-.31-1.667-.07-1.81-.07-1.81-.07-4.003l.142-1.978c.094-.358.19-.715.31-1.096.094-.19.213-.405.333-.62.31-1.144.31-1.144.62-2.002.095-.143.214-.31.334-.477.62-1.43.62-1.43 1.05-2.17.166-.07.237-.214.38-.285.19-.238.38-.5.572-.763.523-.454 1.07-.907 1.62-1.36.19-.094.405-.19.62-.31.643.072.643.072 1.24.24.476.428.476.428.642.666.167.12.357.238.548.38.19.216.38.43.572.668.19.12.405.238.62.357.19.24.405.478.62.716.167.095.334.19.5.31l2.693 2.55c.19.31.19.31.643.74.69 1.095.69 1.095 1.025 1.476.12.38.262.763.405 1.144-.17 2.433-.17 2.433-.17 3.6z"/>
  <path d="M95.55 67.983c-.287-.643-.55-1.287-.81-1.906-.144-.238-.287-.453-.406-.667-.38-.453-.715-1-1.5-1.954-.12-.214-.215-.43-.31-.643l-.644-.715c-.262-.453-.5-.882-.74-1.31-.166-.144-.31-.287-.452-.43-.167-.38-.334-.763-.477-1.12-.213-.357-.428-.69-.642-1.025-.095-.262-.19-.5-.286-.74l-.357-.57c-.167-.144-.31-.287-.453-.406-.643-.38-.643-.38-1.406-.715-.167-.143-.334-.262-.5-.38-.834-.334-.834-.334-1.525-.692-.142-.143-.285-.286-.404-.43-.238-.142-.453-.285-.667-.404-.406-.453-.81-.882-1.216-1.31-.286-.43-.548-.86-.81-1.264-.095-1.12-.167-2.24-.238-3.36v-1.81c.072-.406.12-.81.167-1.192v-1.454c-.31-.69-.31-.69-.643-1.168-.334-.262-.643-.524-.953-.763h-.62c-.477.07-.477.07-.93.238-.547.31-.547.31-.928.667-.692.93-.692.93-1.36 2.002-.26.715-.523 1.43-.785 2.145-.143.548-.143.548-.215 1.358.143.643.143.643.477 1.5.167.692.334 1.383.477 2.074v3.145c-.12.405-.238.81-.334 1.215-.215.286-.405.572-.596.858-.238.43-.453.858-.667 1.287-.095.072-.167.143-.238.215-.144.238-.287.477-.406.715-.172.525-.338 1.025-.48 1.526-.12.216-.215.406-.31.597-.072.977-.072.977-.072 5.266-.167.953-.334 1.906-.477 2.86-.334 1.215-.334 1.215-.5 1.55.048.476.072.928.095 1.38.238.597.548 1.788.763 2.24.19.215.5.43 1.86 1.764.142.286.285.572.404.858.19.262.38.524.548.786.167.525.167.525.643 3.147.19.358.38.715.548 1.05.167.166.167.166 1.454.833.548.43.548.43 1.692 1.168.167.38.334.763.5 1.12.215.763.43 1.525.643 2.264.215 1.12.43 2.24.643 3.336.31.667.31.667.477 1.263.048.597.095 1.192.143 1.764v3.074c-.048.69-.095 1.382-.143 2.05-.167 1.047-.167 1.047-.334 1.667-.166 1.24-.333 2.455-.476 3.67.024.286.024.572.024.858.143.143.286.262.43.38.142.05.285.096.404.12.38-.024.74-.048 1.096-.048.262-.07.524-.12.763-.167l.216-.143c.072-.12.12-.214.167-.31.167-.596.167-.596.334-1.787v-2.812c-.072-.643-.12-1.287-.167-1.906v-3.86c.07-.786.07-.786.238-1.597.477-1.192.477-1.192.786-2.312.31-.595.31-.595 1.358-2.144.81-.81.81-.81 1.24-1.382.237-.143.452-.286.666-.405.143-.216.286-.406.405-.597.214-.143.405-.286.596-.43.62-.785.62-.785.857-.952.286-.38.548-.762.81-1.12.167-.118.334-.214.477-.31.19-.285.19-.285 1.144-1.19.167-.453.334-.882.477-1.31.167-.263.334-.5.477-.74.43-1.382.858-2.74 1.263-4.1.12-.547.238-1.07.334-1.596v-3.432c-.073-.405-.12-.81-.168-1.19-.167-.595-.31-1.167-.453-1.74zm-1.932 6.768c-.048.24-.095.478-.167.74-.31.715-.62 1.454-.928 2.192-.81.93-.81.93-1 1.24-.096.07-.192.142-.287.214-1.025.334-1.668.643-2.17.81-1.762.143-2.24.238-3.574.286-.31-.095-.62-.19-.952-.286-.238-.12-.477-.262-.715-.405-.5-.142-1-.31-1.525-.476-.358-.214-.358-.214-.667-.524-1-.62-2-1.24-3.025-1.86-.143-.166-.286-.333-.453-.523l-.572-.358c-.69-.86-.977-1.073-1.287-1.455-.357-.763-.715-1.31-1.025-1.978-.167-.953-.167-.953-.31-2.383l.072-1.62c.095-.858.19-1.74.31-2.62.167-.597.477-1.192 1.12-3.004.215-.477.43-.953.643-1.454.095-.453.19-.906.31-1.382.334-.62.715-1.144 1.382-2.383l1.287-.642c.286.024.572.048.882.095.596.143 1.192.31 1.787.477 1.192.81 1.192.81 1.812 1.12l1.525 1.31c.095.144.19.287.286.454.19.12.38.238.572.38.715.907.715.907 1.096 1.264.168.262.335.524.525.786.43.405.858 1 1.716 1.835l.573 1.07c.12.12.238.24.38.36.263.57.525 1.143.81 1.715.215.19.215.19.573.715.095.215.214.43.334.667.167.214.334.43.5.667.167 1.025.167 1.025.334 2.693 0 .834 0 .834-.166 2.264z"/>
  <path d="M196.017 87.43c-.12-.215-.238-.406-.358-.597-.31-.286-.62-.572-.907-.858-.334-.143-.334-.143-2.12-.477-.573-.214-1.12-.43-1.67-.643-.523-.12-1.024-.215-1.524-.31-.31-.19-.62-.38-.907-.548-1.025-.834-1.025-.834-1.43-1.263-.358-.238-.69-.477-1.025-.69-.143-.144-.286-.287-.405-.43-.262-.143-.5-.286-.74-.405-.38-.382-.38-.382-2.5-1.98-.24-.118-.478-.237-.716-.356-.214-.215-.214-.215-.405-.524-.286-.19-.572-.38-.834-.572l-.215-.286c-.524-.31-1.025-.62-1.525-.906-.167-.143-.31-.262-.453-.38-.572-.24-.572-.24-1.215-.644l-.43-.43c-.428-.237-.833-.476-1.238-.69l-.43-.43c-.404-.237-.785-.452-1.167-.666-.072-.095-.143-.167-.215-.238-.477-.286-.953-.572-1.406-.834l-.643-.643c-.237-.118-.452-.237-.666-.356-.238-.215-.453-.43-.667-.643-.357-.26-.715-.5-1.048-.738-1.002-.858-1.002-.858-1.43-1.358-.168-.5-.168-.5-.24-.953.168-.166.81-.523 2.003-1.38.31-.12.62-.24.906-.335.5-.31 1-.62 1.476-.93.262-.118.524-.237.763-.333.07-.095.142-.167.214-.238l1.144-.715c.358-.382 1.12-.954 1.31-1.192.93-.786.93-.786 1.55-1.192.286-.405.572-.81.834-1.19 1.24-1.002 1.24-1.002 1.668-1.43 1.025-.55 1.477-.907 2.717-1.598 1.597-.143 1.597-.143 2.335-.31.405-.43.81-.834 1.19-1.24.573-.357.573-.357 1.288-.666.334-.262.643-.524.953-.763.143-.192.262-.36.38-.525v-.357c-.166-.882-.166-.882-.31-1.168-.166-.167-.166-.167-.833-.524-.167-.143-.31-.262-.453-.38-.977-.263-.977-.263-1.31-.263-.454.167-.454.167-1.907.882-.262-.024-.524-.048-.786-.07-.167-.073-.334-.12-.477-.168-.43-.62-.834-1.215-1.24-1.81-.333-.62-.642-1.24-.952-1.836-.643-.476-.643-.476-1.81-1.12-.43-.118-.835-.213-1.24-.31-2.55 0-2.55 0-7.41.144-.55.095-.55.095-1.74.167-.644.168-.644.168-1.67.31h-3.145c-.643-.07-1.358-.237-3.575-.547-2.17 0-2.17 0-3.67-.072-.215-.07-.43-.118-.62-.166-1.12-.167-1.12-.167-1.692-.167-.763.19-1.5.38-2.24.572-1 .62-1 .62-1.525 1.024-.07.095-.12.19-.167.286-.023.38-.047.74-.07 1.096.167.38.334.763.477 1.12.596.524.596.524 1.025 1 .072.382.12.764.167 1.12-.192.216-.192.216-.502.382-.453.07-.906.143-1.358.215-.477.334-.93.667-1.382.977-.38.477-.763.953-1.12 1.43-.215.643-.43 1.263-.643 1.883-.095.12-.167.238-.238.334-.072.262-.12.5-.167.74v1.93c.143 1.07.286 2.144.405 3.216.215.405.43.81.643 1.19.286.24.572.454.858.668.12.168.214.335.31.478l.572.43c.43.57.43.57.953 1.07.12.168.215.335.31.478.12.357.24.69.335 1.025.19.31.38.597.548.883.238.715.238.715.572 1.335.286.357.572.715.858 1.048.357.715.357.715.786 1.358.094.238.166.453.237.667.048 1.288.072 2.575.095 3.862-.048.238-.07.477-.095.715-.12.262-.215.5-.31.74-.12.118-.238.214-.334.31-.405.237-.786.476-1.168.69-.405.5-.405.5-1.144 1.62l-.285.858v1.358l.143.643c.334.74.334.74.715 1.31l.643 1.574.167.167c.38.643.69 1.454 1.335 2.717.357.548.357.548.763.977.406-.094.81-.19 1.216-.285.12-.12.238-.214.334-.31.262-.667.524-1.334.786-1.978.12-.5.238-1 .333-1.477v-1.692c-.096-.453-.168-.906-.24-1.335-.118-.357-.237-.715-.333-1.048-.048-.334-.095-.643-.143-.953v-1c.477-2.146.62-3.266.786-3.98l.358-.43c.095-.07.19-.12.286-.167.334-.07.667-.12 1-.167.31-.12.62-.214.907-.31.55-.334.55-.334 1.502-1.12.286-.358.572-.69.834-1.025.38-.358.763-.715 1.144-1.05.572-.428.572-.428 1-.62.31-.07.597-.118.883-.166h1c.644.095.644.095 1.598.405.168.12.31.238.454.358 1.168.69 2.192 1.478 3.193 2.097l.072.143c.833.43.833.43 1.977 1.168.453.215.882.43 1.31.62.406.262.81.524 1.192.786.237.12.476.215.714.31.405.286.81.548 1.192.81.214.12.43.214.643.31.428.38.428.38 1.5 1.12.214.215.43.43.643.62.548.334.548.334 1.358.953.43.215.86.43 1.264.643.143.143.286.262.43.38.57.287 1.143.55 1.715.81.118.12.213.216.31.31.356.168.69.335 1.024.478.38.286.763.572 1.144.834.262.12.524.238.763.357.43.356 1.598 1.047 2.122 1.43.215.26.215.26.953 1.524.143.167.286.334.43.477.19.287.357.573.523.86.262.26.524.523.786.785.167.12.334.214.477.31.406.048.787.07 1.17.095.428-.095.857-.167 1.262-.238.286-.19.286-.19.5-.477.167-.548.167-.548.405-1.025v-1.334c-.12-.338-.215-.647-.31-.957zM171.28 48.632h2.146c.38.072.763.167 1.144.262.953.715.953.715 1.24 1.025.023.07.047.143.094.214-.143.286-.143.286-.262.38-.882.192-.882.192-1.43.24-1.668-.287-1.668-.287-2.216-.454-.38-.214-.93-.69-1.144-.81 0-.048-.024-.095-.048-.167h-.167c-.095-.215-.095-.215-.095-.38.406-.238.406-.238.74-.31zm-4.622 15.323c-.62.262-1.263.524-1.907.81-.476.048-.952.095-1.453.167-.643.31-.643.31-1.43.858-.19.05-.38.096-.596.168-.38.024-.785.072-1.19.12-.573-.287-.573-.287-1.026-.644-.38-.453-.38-.453-.69-.977-.168-.548-.335-.834-.573-1.478-.31-1.836-.31-1.836-.62-4.695v-1.287c.073-.453.144-.93.216-1.406.095-.214.214-.43.334-.667.953-1.19.953-1.19 1.406-1.62.19-.12.38-.238.572-.38.31-.12.62-.263.93-.406.142-.12.285-.24.428-.382.763-.405.763-.405 1.716-1.05.215-.094.453-.19.69-.31.787-.166.787-.166 1.502-.237 1.215 0 1.215 0 1.86.072.905.334.905.334 1.524.643.215.167.215.167.69.31 2.003.334 2.003.334 3.337.477 1.096.31 2.192.643 3.29.977.118.094.26.19.404.31.26.333.523.69.785 1.047v1.31c-.12.144-.238.287-.38.454-.12.263-.263.55-.406.835-.263.19-.55.38-.835.572-.43.43-.43.43-2.407 2.002-.143.166-.286.333-.43.523-1.667 1.43-1.667 1.43-2.477 2.002l-.214.286c-.405.24-.81.478-1.215.74-.38.38-.38.38-.666.548-.38.094-.76.19-1.166.308z"/>
  <path d="M118.712 57.117c.31-.477.31-.477.763-.93.81-.142 1.597-.285 2.383-.404.214-.167.43-.334.643-.477.192-.095.358-.167.525-.238.167-.143.31-.286.453-.405.143-.31.286-.62.405-.906.095-.095.167-.19.238-.262.096-.334.168-.667.24-1 .118-.835.213-1.645.31-2.455 0-1.787 0-1.787-.073-2.264-.167-.19-.334-.38-.477-.572-.548-.238-.81-.477-1.81-1l-.573-.43c-.31-.143-.62-.286-.905-.405-.405-.12-.81-.215-1.19-.31-.835-.12-1.645-.24-2.455-.335h-3.05c-.643.095-.643.095-5.648.405-.31.143-.597.286-.883.405l-1.072.715c-.19.07-.358.12-.524.167-.523.38-.523.38-1.834 1.12-.238.19-.477.38-.715.572-1.453.666-1.453.666-2.096 1.07-.38.168-1.048.334-1.716.597-.262.31-.524.596-.786.882-.167.118-.333.237-.476.357-.19.31-.19.31-.405.524-.166.073-.31.144-.452.192-.19.167-.38.334-.572.477v.237c.19.19.38.38.572.548.43.07.858.12 1.287.167l.19.19.43 2.29.143.213c.38.238.74.477 1.096.69.43.43.43.43.858 1.002.167.477.334.93.5 1.382.072.26.12.523.167.785v.62c-.24 1.05-.478 2.097-.716 3.122-.167.405-.167.405-.858 1.478-.334.74-.334.74-.977 1.86-.12.285-.215.57-.31.857-.072.358-.12.69-.168 1.025.095.405.19.81.262 1.19.143.31.143.31.38.573.716 1.334 1.145 1.954 1.502 2.717.12.834.238 1.644.334 2.454-.024.668-.024 1.335-.024 1.98.12.5.238.976.334 1.453l.072.858c-.12.287-.215.573-.31.86-.072.31-.12.595-.167.88-.024.954-.048 1.907-.07 2.86-.096.335-.168.668-.24.978-.19.286-.38.548-.547.81-.072.262-.12.5-.167.74v.738c.096.238.168.477.24.69.31.43.62.835.905 1.24.12.095.238.19.334.262l.785.286 1.358-.143c.167-.142.334-.26.477-.38.19-.357.19-.357.906-1.287.12-.215.215-.43.31-.62.167-.81.334-1.62.477-2.43.048-.835.072-1.645.095-2.456.048-.357.095-.69.143-1.025.168-.715.168-.715.478-1.644.12-.215.238-.43.357-.62.215-.143.405-.286.596-.43.12-.166.216-.31.31-.452.05-.31.073-.62.096-.906-.024-.262-.048-.5-.072-.74-.334-1.38-.643-2.763-.953-4.145v-1.24c.382-1.5.382-1.5 1.026-3.62.548-1.026.548-1.026.715-1.55.36-.38.692-.763 1.026-1.144.405-.62.643-.81 2.073-2.716.142-.524.285-1.048.404-1.573l.476-.476c.453-.167.906-.333 1.335-.5.12-.143.238-.262.358-.38.238-.144.453-.287.667-.406.167-.19.334-.38.5-.572.12-.07.238-.143.334-.214.43-.12.858-.215 1.263-.31.45-.43.855-.93 1.165-1.145zm-1.025-2.86c-.167.143-.334.286-.524.43-.358.19-.74.404-1.12.62l-.74.666c-.952.643-.952.643-1.143.858-.286.144-.572.287-.882.454-.524.12-1.072.262-1.62.405-.286.166-.286.166-1.31.475-.55.095-1.097.19-1.67.31-.38 0-.785.024-1.19.048-.358-.286-.358-.286-.524-.524-.048-.144-.095-.287-.167-.454-.167-.214-.358-.43-.548-.667-.406-.74-.406-.74-.787-1.24-.072-.38-.167-.763-.262-1.168.05-.357.096-.74.168-1.12.19-.69.405-1.406.62-2.12.238-.287.477-.573.74-.883.19-.31.404-.62.62-.954.333-.286.666-.572 1.024-.858.667-.262 1.334-.524 2.026-.786 1.763-.31 4.218-.62 5.576-.858.572 0 .572 0 2.597.31.36.215.716.43 1.097.643.405.453.81.906 1.215 1.382.095.214.19.452.31.69 0 .477 0 .953-.024 1.43-.095.143-.19.286-.31.453-.095.07-.19.143-.31.214-.19.262-.405.524-.62.786-.286.167-.572.334-.858.524-.072.095-.167.19-.262.31-.358.19-.74.406-1.12.62z"/>
  <path d="M143.83 50.3h-.93c-.906.144-1.81.287-2.717.406-.405.12-.81.214-1.215.31-.19.12-.38.214-.572.31-.905.334-.905.334-2.026.643l-1.5.642c-1.36.31-1.36.31-2.36.62-.262.167-.524.334-.786.477-.596.214-1.168.404-1.74.595l-.572.358c-.906.334-.906.334-1.62.477-1 .31-1 .31-1.81.643l-2.074.43c-.12.07-.238.142-.334.214-.12.214-.238.43-.358.62-.215.19-.405.38-.596.572-.215.404-.43.81-.643 1.19-.143.38-.286.763-.405 1.12.095.977.095.977.07 2.407-.142.357-.26.69-.38 1.025-.286.358-.286.358-.786.763-.19.286-.19.286-.834 1.668-.07.048-.12.095-.167.143-.214.38-.214.38-.358.834-.07.667-.12 1.334-.167 1.978-.095.238-.167.453-.238.667-.12.167-.215.334-.31.477-.12.31-.215.62-.31.93 0 1.31 0 1.31.072 1.476.238.19.477.358.715.524.357.43.714.834 1.048 1.24.143.356.143.356.31 1.238v1c-.334 2.622-.334 2.622-.405 3.766.07.31.12.62.167.906.548.763.548.763.953 1.19.143.216.262.43.38.644.073.19.12.38.168.548 1.12 1.81 1.12 1.81 1.502 2.264.215.38.43.763.643 1.144.215.095.215.095.286.214.883-.214.883-.214 1.288-.38.286-.287.548-.573.81-.86.38-.285.763-.57 1.12-.857.31-.12.596-.24.882-.335.43-.238.858-.477 1.263-.715 1.072-.214 2.145-.43 3.217-.643.81-.12 1.596-.215 2.383-.31h2.192c1.048.167 3.193.31 4.385.477l2.335.07c.143-.118.286-.214.405-.31.072-.26.12-.5.167-.738v-.667c-.12-.406-.215-.81-.31-1.192-.643-1.168-.786-1.573-1.12-2.17-.238-.142-.238-.142-1.55-.642-.523-.38-1.214-.69-1.786-1.072-.047-.095-.094-.167-.142-.238-.62-.548-1.215-1.096-1.81-1.62-.144-.24-.144-.24-1.86-1.907-.31-.192-.31-.192-1.263-1.002-.5-.238-1-.453-1.478-.667-.834-.62-1.668-1.238-2.502-1.834-.763-.12-1.525-.215-2.264-.31-.094-.07-.19-.143-.26-.215-.025-.07-.025-.142-.025-.213.262-.763.262-.763.405-.977.215-.143.43-.286.643-.43.238-.094.477-.166.715-.237.262-.19.5-.38.74-.548.57-.167.57-.167 1.762-.334l1.906-.07c1.5-.167 1.5-.167 2.264-.334.215-.12.43-.215.643-.31l1.144-.858c.19-.31.19-.31.5-1.144v-1.382l-.143-.786c-.12-.286-.12-.286-.334-.5-.286-.143-.572-.286-.858-.405-.286-.07-.572-.118-.834-.166-1.62 0-1.62 0-4.147.167-.333.072-.642.12-.952.168-.453.167-.882.333-1.31.476-.454.31-.907.62-1.36.906-.57.572-1.143 1.144-1.715 1.716-.69 1.096-.69 1.096-.858 1.263-.31 0-.31 0-.74-.168-.237-.167-.237-.167-.333-.31.072-.12.12-.214.167-.31.166-.667.333-1.334.476-1.978.715-1.19.715-1.19 1.406-2.502.167-.07.596-.572 1.072-1 .643-.216 1.287-.43 1.93-.644.19-.12.357-.215.524-.31.548-.215 1.096-.43 1.62-.643.43-.262.834-.524 1.24-.786.31-.072.62-.12.905-.168h1.573c.953.238.953.238 1.763.572.214.143.428.286.642.405l.858.285c.43.048.858.072 1.287.095.334-.072.643-.12.953-.167.286-.143.286-.143 1.31-1 .358-.478.716-.93 1.073-1.383.07-.143.143-.286.19-.43.168-.738.335-1.477.478-2.215v-.977c-.118-.167-.214-.334-.31-.477-.16-.143-.328-.286-.47-.43zm-13.99 12.965c.048-.072.095-.143.167-.238.19-.12.38-.238.596-.358.43 0 .858-.025 1.31-.05.215.144.454.31.692.478v.38c-.19.216-.405.43-.62.644-.214.12-.43.262-.667.405l-.786.286c-.262-.12-.548-.238-.834-.38-.024-.12.07-.453.142-1.168zm-3.526 7.054c1.835.333 1.835.333 2.312.476.74.334 1.477.69 2.216 1.048.214.143.43.31.643.477.43.216.858.43 1.287.668.215.167.43.357.643.548.334.19.667.405 1 .62l.287.358c.262.167.524.334.786.524.167.19.357.38.548.572.38.286.763.572 1.168.858.19.31.405.62.62.93v1.43c-.238.31-.238.31-.596.595-.31.167-.643.334-.977.524-.476.048-.952.12-1.43.19-1.31-.237-2.644-.5-3.98-.762-1.477-.143-2.954-.31-4.455-.477-.12-.024-.238-.07-.357-.12-.43-.357-.882-.714-1.335-1.095-.214-.477-.43-.953-.643-1.43-.095-.334-.215-.667-.334-1.025-.072-.643-.072-.643-.072-3.432.143-.262.286-.548.43-.834.31-.286.31-.286.976-.643h1.264z"/>
  <path d="M71.05 78.278c-.19.12-.38.215-.547.31v.596c.07.405.07.405.167.596.143.07.286.143.43.214.26-.07.26-.07.428-.214.072-.38.143-.763.19-1.12-.094-.143-.19-.262-.26-.38-.145-.002-.287-.002-.407-.002z"/>
  <path d="M72.267 75.895c-.167.072-.167.072-.477.405-.024.143-.024.286-.024.43.095.285.19.57.262.833.072.095.143.19.19.286.406-.05.406-.05.835-.215l.072-1.335c-.238-.238-.238-.238-.548-.405h-.31z"/>
  <path d="M78.844 72.797c-.19.12-.38.238-.548.357-.096.382-.096.382-.096 1.192.215.143.43.286.62.405.143-.07.286-.118.43-.166l.214-.214c.024-.12.024-.238.024-.357l-.43-1.215h-.214z"/>
  <path d="M60.352 72.464c-.095.048-.167.072-.238.095-.167.166-.167.166-.358.523.024.095.024.167.024.238.167.263.31.525.453.787.238-.095.453-.19.667-.286.19-.142.38-.285.548-.404.048-.072.07-.143.095-.215-.095-.118-.19-.237-.262-.333-.31-.14-.62-.284-.928-.403z"/>
  <path d="M78.868 70.557l-.262.262v.38c.12.167.238.31.357.453.524-.214.524-.214 1.072-.548v-.215c-.12-.07-.214-.12-.31-.167-.595-.166-.595-.166-.857-.166z"/>
  <path d="M94.858 53.09c.143-.19.286-.38.43-.548v-.31c-.096-.095-.168-.19-.24-.262-.213-.095-.404-.167-.595-.238h-.262c-.166.143-.333.286-.476.405-.024.143-.024.286-.024.43.215.31.43.595.62.88.19-.12.38-.238.548-.357z"/>
  <path d="M107.845 31.547c.31.715.31.715.643 1.263.19.12.358.238.524.357.238.286.477.548.715.81.882.62.882.62 1.263 1 .262.144.524.287.786.406.43.07.858.143 1.263.214.31.167.595.334.88.477.55.238 1.097.453 1.645.667.19.144.358.287.524.43 1.143.5 1.143.5 2.287 1.144.5.167 1 .334 1.5.477.62.31.62.31.787.478 1.192.477 1.192.477 1.74.786.38.38.953.786 1.597 1.43.525.38.525.38 1.05.667.596-.023 1.168-.047 1.74-.047.882-.143.882-.143 1.43-.31.286-.19.286-.19.5-.477.048-.453.072-.906.095-1.334-.095-.477-.167-.953-.238-1.43-.167-.334-.334-.667-.477-1-.334-1.288-.334-1.288-.643-2.813-.167-.12-.334-.24-.476-.335-.26-.095-.5-.167-.738-.238-.453.07-.906.12-1.334.167-.38.167-.38.167-.906.548-.453.072-.905.12-1.335.167-.334-.073-.643-.12-.953-.168-.524-.31-.524-.31-1.05-.477-.857-.12-1.69-.214-2.525-.31-.335-.12-.668-.238-.978-.334-.453-.26-.906-.523-1.334-.785-.19-.238-.358-.476-.524-.715-.07-.048-.143-.07-.19-.095-.382-.786-.764-1.55-1.145-2.312-.335-.906-.644-1.81-.954-2.717-.095-.643-.095-.643-.095-1.334.55-2.24.55-2.24.883-3.217.31-.548.548-.74.74-1.05.26-.166.523-.333.785-.475.524-.405.93-.834 1.454-1.263.548-.69 1.096-1.382 1.62-2.05.12-.07.215-.142.31-.19.143-.19.286-.358.405-.524 1.287-.74 1.287-.74 1.81-1.144.215-.24.81-.644 1.526-1.288.19-.12.38-.214.572-.31.167-.143.334-.286.477-.43.548-.357 1.19-.666 2.383-1.405.238-.048.453-.095.667-.143h.763c.858.358 1.382.715 2.073 1.025.405-.025.81-.05 1.215-.072.43-.334.858-.643 1.287-.953.43-.596.858-1.168 1.287-1.74.12-.334.215-.667.31-1l-.07-1.12c-.05-.12-.096-.216-.144-.31-.167-.144-.334-.287-.477-.43-.38-.215-.763-.43-1.12-.643-.477-.143-.953-.286-1.43-.405-.19-.143-.38-.286-.548-.43-.405-.452-.81-.88-1.215-1.31-.5-.072-.5-.072-1.406-.072-.74.38-1.454.763-2.17 1.12-.237.19-.476.38-.714.572-.238.143-.477.262-.715.38-.167.144-.334.287-.477.43-.69.334-1.357.667-2.025.977-.07.07-.143.143-.19.214-.86.357-.86.357-1.93.643-.36.192-.36.192-.86.62-.26.12-.5.24-.738.335-.453.31-.453.31-.882.74-.12.047-.214.094-.31.142-.524.43-.715.715-1.573 1.573-.262.358-.5.715-.74 1.048-.356.786-.356.786-1 1.81-.215.55-.43 1.073-.643 1.598-.24.286-.478.572-.716.858-.048.12-.095.238-.143.334-.285.357-.57.715-.857 1.048-.167.453-.334.906-.5 1.334-.12.19-.238.357-.358.524-.238.548-.453 1.096-.667 1.62l-.477.477c-.714 1.073-.714 1.073-1.12 1.502-.118.31-.213.62-.31.93-.07.333-.118.642-.166.952v.74c.095.547.167 1.07.238 1.596.17.718.17.718.813 2.577zm2.073-4.528c.286-.168.572-.335.858-.5.31.357.31.357.405.595.144 1.358.144 1.358.31 2.24.168.5.168.5.716 1.573.095.572.19 1.144.31 1.716-.095.095-.19.214-.31.333-.12.024-.238.072-.358.12-.12-.12-.262-.24-.405-.36-.12-.166-.238-.333-.358-.523-.143-.07-.286-.167-.43-.262-.118-.19-.237-.38-.356-.596-.144-.81-.31-1.62-.478-2.454-.024-.286-.048-.596-.072-.906.05-.31.097-.643.168-.977z"/>
  <path d="M72.195 38.934l-.286.143c-.144.31-.263.62-.382.906v.357c.262.167.524.334.763.477l.5-.215c.168-.167.168-.167.263-.43-.07-.237-.12-.452-.167-.666-.167-.405-.167-.405-.334-.572h-.357z"/>
  <path d="M98.265 40.174c.167-.024.334-.048.477-.048.405-.214.81-.405 1.192-.596.12-.238.238-.477.357-.715.216-.69.43-1.382.644-2.05.12-.69.215-1.38.31-2.072.12-1.692.215-3.384.31-5.076.167-.81.167-.81.405-1.525-.072-.238-.12-.477-.168-.715v-1.43c.07-.357.12-.69.167-1.025v-7.864c-.096-1-.168-1.978-.24-2.955v-2.62c-.094-.263-.166-.525-.237-.787-.215-.358-.215-.358-.69-.93-.263-.5-.263-.5-.573-1.453-.095-.167-.19-.31-.286-.453-.667-.763-.667-.763-1.072-1.072-.43-.12-.43-.12-1.31-.19-.36.19-.716.38-1.05.547l-.43.858c-.118.524-.214 1.05-.31 1.573v1.43c.24 2.002.24 2.002.55 3.908.118.405.237.81.333 1.192l.07 1.334c-.166.81-.332 1.597-.476 2.383-.025 3.288-.05 6.577-.072 9.866-.12.88-.238 1.762-.334 2.62-.07 1.5-.07 1.5-.38 4.647l.142 1.144c.214.406.405.81.596 1.216l.262.262c.38.167.74.334 1.096.477.24.047.477.095.715.12z"/>
  <path d="M147.928 37.91c.38-.072.74-.12 1.096-.167l1.764.07c.643.168 1.287.335 1.906.478 1.74.335 1.74.335 4.194.644 1.12 0 1.12 0 1.907-.072.62-.167 1.24-.334 1.835-.477.43-.214.43-.214 1.978-1.287.12-.262.12-.262.286-1.287-.143-.19-.286-.38-.405-.57-.62-.192-1.24-.36-1.86-.525-.953-.143-.953-.143-2.788-.238-.262.07-.524.12-.786.167-.405.167-.81.334-1.19.477-.406.072-.787.12-1.17.168-.38-.048-.762-.07-1.143-.095-1.05-.215-2.073-.43-3.098-.62-.143-.12-.286-.238-.405-.334-.07-.12-.143-.24-.19-.335v-.334c.237-.333.237-.333.738-.762.286-.477.572-.93.858-1.382.095-.214.167-.43.238-.62.024-.19.048-.38.07-.572-.118-.334-.237-.667-.333-.977-.547-.548-.547-.548-1.167-1.025-.667-.334-.667-.334-2.264-.977-.24-.143-.478-.286-.716-.405-.69-.215-1.382-.43-2.073-.62-1.572-.81-1.572-.81-2.19-1.24.023-.094.047-.19.047-.285.143-.215.143-.215.524-.524.835-.094 1.67-.19 2.503-.26.62-.168 1.24-.335 1.835-.478 1.573-.07 3.122-.12 4.67-.167.287-.048.55-.095.81-.143.287-.167.287-.167.525-.405.38-.667.38-.667 1-2.026-.047-.357-.047-.357-.166-.57-.334-.192-.334-.192-.977-.36-.38 0-.38 0-1.573.168h-.953c-.238-.072-.477-.12-.715-.167-.55-.047-1.073-.094-1.598-.142h-1.978c-1 .19-1.978.38-2.955.548h-1.502c-.548-.31-.548-.31-1.048-.715 0-.166.358-.738.548-1.262.524-.62.524-.62.74-.74.237-.31.452-.62.666-.904.143-.095.262-.19.38-.286.215-.286.43-.572.644-.834.334-.238.334-.238.953-.858.168-.095.31-.19.454-.286.477-.07.477-.07 1.358-.07.405.142.81.285 1.19.404.263.143.502.286.74.43.69.118.69.118 1.24.118.142-.12.285-.238.428-.357 1.5-.715 1.5-.715 2.36-1.24.62-.214 1.214-.428 1.81-.62.5-.26.977-.5 1.454-.738.12-.143.238-.262.357-.38.025-.096.05-.192.05-.263-.072-.12-.12-.238-.168-.358l-.74-.74h-.547c-.215.072-.43.12-.643.168-.143-.024-.262-.024-.38-.024-.072-.38-.12-.763-.168-1.12.167-.07.333-.143.476-.214.93-.143 1.86-.262 2.788-.38.215-.072.43-.144.643-.192l.454-.453c.19-.285.572-.57.763-.833-.048-.286-.048-.286-.19-.5-.382-.143-.764-.286-1.12-.405h-1.192c-1.096.214-2.192.43-3.265.62-.69.286-1.382.548-2.05.81-1.047.143-1.047.143-2.477.477-1.382.428-2.764.857-4.123 1.262-.69-.024-1.382-.048-2.073-.07l-1.335.07c-.072.048-.143.072-.19.095-.168.215-.335.43-.478.62-.12.453-.238.882-.334 1.31-.143.192-.143.192-.667 1.36l-.453.452c-.405.19-.81.38-1.19.57-.192.144-.36.287-.525.43-.095.167-.19.31-.262.453.024.405.048.81.072 1.19.167.454.334.907.477 1.36.143.26.286.523.405.785.048.31.095.596.143.882l-.07.548c-.168.31-.168.31-.597.834-.31.143-.31.143-.953.31-1.05.12-2.073.214-3.098.31-1.12.07-2.24.12-3.336.167l-1 .356c-.287.215-.287.215-.764.834-.072.31-.143.62-.19.93 0 .714 0 .714.118 1.453.238.405.238.405.786 1.096.31.094.62.19.906.26h.548c.477-.07.477-.07 1.74-.404h.953c.572.167.882.334 2.74.834.167.095.31.19.453.262.024.072.048.12.048.167.167.142.334.285.477.404.096.167.192.31.287.453v1.025c-.12 1.215-.238 2.43-.357 3.622-.262.405-.524.81-.786 1.192-.215.167-.43.334-.643.477-.07.12-.142.238-.19.357-.07.38-.12.763-.167 1.144.072.357.12.715.167 1.072.12.334.215.643.31.953.095.118.167.213.238.31.548.26 1.072.523 1.597.785.238.167.477.31.69.453.478.167.478.167 1.812.453.786-.023 1.55-.047 2.312-.047.333-.07.642-.12.952-.167.31-.12.596-.214.882-.31.238-.167.453-.31.667-.453 1.002-.357 1.002-.357 2.193-.667.238-.116.476-.21.715-.306zm-3.265-4.004c-2.073-.286-2.788-.453-4.337-.667-.143-.168-.286-.335-.453-.502-.024-1.454-.024-1.454.048-2.264.096-.38.215-.786.335-1.192.548-1.096.548-1.096.81-1.454l.215-.143c.215 0 .453 0 .69-.024 1.097.31 1.907.62 3.17.954.286.095.596.214.906.334.786.715 1.192.953 1.478 1.263.453.787.453.787.834 1.264-.19.38-.405.786-.62 1.19-.286.287-.286.287-.69.55-.79.216-1.575.454-2.385.692z"/>
  <path d="M47.197 35.193h-1.382c-.334.095-.643.19-.953.262-.12.12-.238.215-.334.31v1.144c.12.166.238.31.358.452.357.143.715.286 1.048.43l1.31-.144.692-.69c.095-.668.095-.668.07-1.193-.118-.12-.213-.214-.31-.31-.165-.095-.332-.19-.5-.262z"/>
  <path d="M70.193 36.933c.12.12.215.238.31.334.262.167.524.31.763.453.405-.143.81-.262 1.215-.38.263-.31.525-.597.787-.883.524-.38.977-.858 1.31-1.096.335-.07.668-.118 1.002-.166.452.095.452.095 1.167.43.405-.025.81-.025 1.19-.025.86-.263 1.717-.525 2.55-.787.073-.072.144-.12.216-.167.358-.12.715-.215 1.05-.31.62-.12 1.238-.238 1.834-.334 1.31-.31 1.31-.31 1.668-.477 1.74-.31 1.74-.31 4.123-.62.43-.12.834-.238 1.24-.334.428-.214.857-.428 1.262-.642.167-.143.333-.262.5-.38.19-.382.358-.764.524-1.145-.024-1.144-.048-2.288-.048-3.408-.357-.596-.357-.596-.667-.93-.5-.07-.5-.07-1.336-.07-.643.19-1.287.38-1.906.548-2.145.167-2.145.167-4.766.238-.858.168-1.906.477-2.93.644-.43-.024-.86-.024-1.288-.024-.143-.072-.286-.143-.405-.215-.096-.095-.168-.19-.24-.286-.118-.287-.213-.55-.31-.81.05-.692.096-1.383.144-2.05.12-.81.238-1.597.334-2.383.12-.31.214-.596.31-.882.095-.12.167-.238.238-.357.12-.334.215-.667.31-.977 0-1.596 0-1.596.095-2.334.144-.334.263-.667.382-1 .167-1.12.477-2.24.81-3.98l.143-2.074-.072-1.93c-.167-.715-.167-.715-.31-1.072-.334-.405-.643-.81-.953-1.215-.12-.072-.215-.143-.31-.19-.953-.335-.953-.335-2.216-.645-.072-.07-.143-.12-.215-.167-.214-.333-.43-.643-.643-.953-.095-.072-.19-.143-.262-.215-.358-.095-.358-.095-1.335-.166-.334.094-.667.166-.977.237-.095.12-.19.238-.262.357-.333.715-.642 1.43-.952 2.145.024.476.024.952.024 1.405-.12.763-.238 1.5-.334 2.24-.12 1.287-.215 2.55-.31 3.813-.262 1.358-.524 2.717-.786 4.05-.334 1.12-.334 1.12-.643 1.812-.168.715-.168.715-.478 2.788-.07 1.906-.07 1.906-.07 5.028.142 1.906.142 1.906.142 3.002-.072.238-.072.238-.43.834-.428.43-.523.62-1 1.168-.31.93-.31.93-.38 1.406.07.072.07.072.88 2.526.12.215.214.43.31.62zM72.1 26.018c.143-.62.31-1.048.477-1.906l.715-5.505c.024-.548.048-1.096.07-1.668.192-.645.406-1.288.62-1.955.168-.262.335-.548.5-.834h.216c.167.168.167.168.405.644-.143 3.837-.238 4.48-.38 7.41-.096 1.192-.216 2.384-.335 3.6.048.857.095 1.74.167 2.62-.048.286-.095.572-.167.882-.048.072-.095.143-.167.238-.26.167-.523.357-.81.548-1-.74-1-.74-1.167-.953-.048-.31-.095-.62-.143-.954v-2.168z"/>
  <path d="M130.555 34.883v-.238c-.214-.143-.43-.286-.62-.405-.167-.07-.334-.12-.477-.167-.143.095-.286.19-.405.262-.07.095-.12.167-.167.238v.358c.167.215.31.43.453.644.142-.048.26-.095.38-.12.287-.19.573-.38.835-.57z"/>
  <path d="M54.728 29.712c-.572.405-.572.405-.763.643.19.238.19.238.62.524.143-.025.286-.05.405-.05.167-.094.167-.094.334-.31-.024-.118-.024-.237-.024-.333-.143-.167-.262-.31-.38-.453-.073-.022-.145-.022-.192-.022z"/>
  <path d="M102.793 28.568c.238-.048.453-.095.667-.12.095-.07.167-.118.238-.166v-.215c-.167-.12-.31-.238-.453-.334h-.477c-.405.167-.405.167-.572.334.024.095.048.167.048.238.192.096.382.192.55.263z"/>
  <path d="M165.73 8.408c.452-.38 1.143-.74 1.357-.953-.024-.143-.048-.262-.07-.38-.073-.05-.12-.096-.168-.144-.43-.047-.835-.07-1.24-.094-.19.048-.358.095-.524.143-.214.118-.405.237-.596.333-.095.906-.095.906-.048 1.24.786-.05.786-.05 1.287-.145z"/>
  <path d="M162.06 7.526c.166-.024.333-.048.5-.07.047-.073.07-.12.094-.168-.048-.405-.072-.786-.095-1.168h-.525c-.072.048-.12.072-.167.095-.048.12-.072.238-.095.334l.07.833.216.143z"/>
</svg>
