<svg xmlns="http://www.w3.org/2000/svg" viewBox="0 0 200 32">
  <path d="M159.244 22.787c.314.38.672.757 1.08 1.125 2.948 2.66 8.877 1.483 9.897.5.61-.59 10.206-9.958 10.206-9.958l.017 11.85.582.704 3.698-2.167-.052-12.846s1.148-2.304 2.827-2.373c1.678-.068 5.53 3.768 6.24 7.25.78 3.82-1.25 6.108-2.13 6.835-2.04 1.685-3.725 2.52-3.725 2.735 0 .344 8.296.052 8.296.052s.633-.62.155-.62c-.48 0-.514-.8-.514-.8s.12-1.95-.155-1.985c-.274-.035-.553.855-1.027 1.34-1.288 1.32-2.415 1.084-2.415 1.084s3.93-4.23 4.495-6.68c.166-.72 1.052-2.674-.077-6.682-1.46-5.18-7.673-6.33-8.68-6.294-.35.012-3.247 2.28-3.247 2.28l.01-6.614c0-.207-1.656-.29-3.195.01-.95.185-3.71 1.98-3.996 2.414-.287.433-.247.795-.103.98.144.186 1.633-.94 2.31-.877.68.062.722.766.722.766v6.99s-8.99 9.02-9.504 9.434c-.514.413-3.826 2.497-6.8.195-2.864-2.214-2.518-6.263-2.086-6.882.432-.62 5.03-5.31 5.3-5.325.392-.02 6.977-.02 7.51-.082.535-.062 3.885-3.024 3.885-3.19 0-.164-.668-.102-.668-.102s-6.915.187-7.182 0c-.267-.185.647-1.113.606-1.217-.04-.103-1.94-.093-2.126-.01-.185.083-1.202 1.29-1.366 1.33-.165.042-5.57.053-5.57.053s-.74-.815-1.006-.877c-.267-.063-.294.065-.617.205-.76.33-3.36 2.755-3.503 3.168-.1.283-.226.588.143.63.37.04 6.205-.032 6.31.072.102.103-5.88 4.825-6.295 6.367-.42 1.556-.446 4.148 1.32 6.65"/>
  <path d="M158.048 22.21c-.855-.138-5.48-3.973-5.24-4.593.24-.62 2.858-2.61 2.858-2.61s2.092-1.965 2.058-2.86c-.034-.894-3.232-7.472-5.188-6.827-2.294.757-4.846 2.08-5.085 2.116-.24.034.318-1.015-.027-1.448-.41-.516-2.147-.616-3.55-.03-1.064.442-2.203 1.84-2.168 2.01.035.173.806.007 1.217.178.41.172.865.63.865.63v8.686s-1.317-1.136-3.064-1.187c-1.747-.05-2.414.43-2.723.258-.445-.25-4.45-9.286-4.45-9.286s.58-1.205.615-1.548c.034-.345-1.336-.104-1.336-.104s-.89-1.376-3.596-1.342c-2.705.034-3.424 1.754-3.39 1.96.034.208 1.677-.515 2.362.104.685.62 1.3.826 1.643 2.167.24.943-3.303 5.583-5.516 8.68-.06 1.865-.554 3.434-1.3 4.728.25.37.6.75 1.062 1.175 1.268 1.17 2.056 1.65 3.39 1.377 1.336-.275 6.54-4.988 7.5-4.404 1.097.67 1.18 3.335 3.082 4.335 2.157 1.135 5.444-1.136 5.444-1.308 0-.172-1.712-.412-2.637-1.204-.925-.79-1.678-2.75-1.678-2.75s.862-1.37 2.398-.69c1.164.517 2.263 2.158 2.325 2.893.054.653.054 4.11.054 4.42 0 .31 1.288-.434 1.973-.847l1.47-.888-.052-13.61s1.147-1.72 2.722-2.306c1.36-.504 2.86 1.48 3.202 2.615.393 1.305.3 2.55.084 2.993-.753 1.547-5.29 4.902-5.393 5.21-.102.31 1.07.124 1.686.33.616.206 1.517 1.51 2.476 3.024.96 1.514 1.787 3.188 3.123 3.22 1.452.033 3.235-1.717 3.98-2.694-.154-.187-.297-.375-.43-.562-.22.028-.475.036-.767-.01zm-23.406-4.128c-.28.292-4.538 3.963-6.54 2.683-2.236-1.43-1.85-3.612-1.337-4.54.514-.93 3.973-5.366 4.28-5.263.31.103 3.836 6.87 3.597 7.12z"/>
  <path d="M124.332 17.164c.006-.207.008-.416.004-.63-.138-6.64-3.767-10.87-4.007-11.145-.48-.552.4-.796.376-.895-.068-.275-1.267-.585-2.43.07-1.166.652-4.728 5.262-4.728 5.262s-3.526-5.676-5.48-5.744c-1.642-.058-4.693 5.47-5.514 7.91-.553 1.645-.07 4.54-.274 4.747-.205.207-3.698-.137-4.006-.31-.445-.248-4.452-9.286-4.452-9.286s.582-1.204.617-1.548c.033-.345-1.337-.103-1.337-.103s-.89-1.377-3.596-1.342c-2.705.035-3.425 1.755-3.39 1.962.034.206 1.678-.516 2.363.103.685.62 1.3.825 1.644 2.167.342 1.342-6.986 10.18-7.227 11.385-.24 1.204.206 2.03 1.473 3.2 1.267 1.168 2.055 1.65 3.39 1.375 1.336-.276 6.54-4.988 7.5-4.403 1.097.668 1.18 3.333 3.082 4.333 2.158 1.135 5.446-1.136 5.446-1.307 0-.173-1.712-.412-2.637-1.204-.924-.79-1.678-2.752-1.678-2.752s.753-1.032 2.397-.688c1.644.344 2.054 5.194 4.075 5.64 2.02.448 4.212-2.545 4.11-2.785-.104-.24-1.097.998-2.158-.722-1.06-1.72 3.39-6.054 3.596-5.985.205.07.24 7.945.514 8.667.274.723 2.5-.564 3.117-.962.958-.62 1.438-1.204 1.438-1.445 0-.24-.763-.468-1.164-.79-.685-.55-.548-8.668-.342-9.15.205-.482 1.095-1.135 1.404-1.48.308-.342.992-1.168 1.266-1.168.275 0 1.644 2.098 2.568 4.334.925 2.236 1.552 7.656-.958 9.665-2.02 1.618-4.54 2.924-11.028 2.443C93.702 23.5 96.87 30.447 96.835 29.88c-.028-.463-.377-5.11 7.055-4.438 3.413.308 8.905 1.548 12.123 1.204 2.18-.233 5.28-1.744 7.018-4.753m-28.318-4.12c-.28.29-4.538 3.962-6.54 2.683-2.237-1.43-1.85-3.612-1.336-4.54.513-.93 3.972-5.366 4.28-5.263.31.103 3.835 6.87 3.596 7.12zm11.508-.138c-.24-.07-1.165-2.202-1.337-4.334-.17-2.132.694-4.742 1.577-5.055.582-.206 1.747.963 2.568 1.823.822.86 2.02 2.03 1.95 2.545-.04.314-4.518 5.09-4.758 5.022z"/>
  <path d="M67.954 4.1c-2.448-.275-3.57 1.816-3.746 1.67-.123-.105.017-1.576-.085-1.73-.103-.156-1.973-.146-2.846.112s-2.465 1.6-2.414 1.858c.052.258 1.593.413 1.696.826.1.413.153 11.764-.104 13.62-.257 1.858-1.747 4.8-1.644 5.005.103.208 5.188-3.61 5.393-4.024.206-.412.048-13.688.048-13.688s.424-1.153 1.082-1.462c.542-.255 1.73-.124 2.088.237.36.36 5.12 4.545 5.154 9.084.054 7.018-6.627 9.338-6.37 9.39.257.052 10.452-3.183 9.71-12.055-.652-7.775-6.67-8.696-7.963-8.84z"/>
  <path d="M59.862 18.443c.6-.723.137-6.69-1.3-9.545C57.294 6.384 55 4.358 52.67 4.22c-2.258-.133-2.35.196-2.81.447-.752.413-5.855 4.713-5.958 5.126-.103.413-.768 5.21 1.113 9.166 2.157 4.54 7.86 5.365 8.92 4.867.775-.365 5.615-5.01 5.925-5.384zm-3.184 1.032c-.257.413-.223.396-.84.5-.615.103-5.067 1.306-7.686-3.234-1.855-3.213-1.353-7.274-.993-7.686.358-.413 1.694-1.91 2.602-1.96 1.408-.08 3.835.516 5.684 3.612 1.848 3.094 1.488 8.356 1.232 8.77z"/>
  <path d="M40.074 4.186c-.07-.275-1.267-.584-2.432.07-1.164.653-4.725 5.26-4.725 5.26s-3.527-5.673-5.48-5.742c-1.642-.058-4.69 5.47-5.513 7.91-.553 1.646-.068 4.54-.273 4.747-.205.208-3.698-.136-4.006-.31-.445-.248-4.452-9.285-4.452-9.285s.583-1.204.617-1.548c.033-.344-1.337-.103-1.337-.103s-.89-1.376-3.596-1.34c-2.705.033-3.425 1.753-3.39 1.96.034.205 1.678-.517 2.363.102.685.62 1.3.826 1.644 2.167.342 1.34-6.986 10.18-7.226 11.385-.24 1.204.206 2.03 1.473 3.2 1.268 1.17 2.056 1.65 3.39 1.375 1.337-.275 6.542-4.987 7.5-4.402 1.098.67 1.183 3.335 3.083 4.335 2.158 1.135 5.445-1.135 5.445-1.307 0-.172-1.712-.412-2.637-1.204-.923-.79-1.677-2.75-1.677-2.75s.753-1.034 2.397-.69c1.644.345 2.055 5.195 4.076 5.64 2.02.448 4.212-2.543 4.11-2.785-.103-.242-1.096.996-2.158-.723-1.062-1.72 3.39-6.054 3.596-5.985.206.07.24 7.946.514 8.668.274.722 2.5-.565 3.117-.963.958-.62 1.438-1.204 1.438-1.444 0-.242-.763-.47-1.165-.79-.685-.55-.548-8.67-.342-9.15.206-.482 1.096-1.135 1.404-1.48.31-.343.993-1.168 1.267-1.168.274 0 1.644 2.098 2.568 4.334.925 2.235 1.552 7.656-.958 9.665-2.02 1.616-4.558 3.124-11.027 2.442-6.85-.723-11.027 1.376-11.37 1.685-.342.31 2.81-1.032 6.952-.825 3.42.17 8.903 1.547 12.122 1.204 3.22-.344 8.46-3.474 8.322-10.112-.14-6.642-3.77-10.872-4.008-11.148-.48-.55.4-.794.376-.894zm-25.99 13.277c-.28.29-4.54 3.963-6.542 2.683-2.236-1.43-1.85-3.612-1.335-4.54.513-.93 3.972-5.367 4.28-5.263.308.103 3.834 6.87 3.596 7.12zm11.505-.138c-.24-.07-1.165-2.2-1.337-4.334-.17-2.132.694-4.743 1.576-5.056.58-.207 1.745.963 2.567 1.823.822.86 2.02 2.03 1.952 2.546-.043.315-4.52 5.092-4.76 5.022z"/>
</svg>
