<!--
  SVG Music Logos
  Andre Matos - AM v1.0.0
  https://github.com/tiagoporto/svg-music-logos
  Copyright (c) 2016-2018 Tiago Porto (http://tiagoporto.com)
-->
<svg xmlns="http://www.w3.org/2000/svg" viewBox="0 0 148 200">
  <path d="M143.307 96.115v-63.51c-5.297 3.297-6.927 9.506-11.772 15.775-5.415 7.007-6.274 5.07-13.596 13.913V3c-4.415 4.002-9.252 15.33-16.246 20.836-2.605 2.05-6.475 5.65-9.273 10.1V7.826c-6.5 4.944-10.263 10.92-13.857 19.777v18.16c-.7.658-1.387 1.326-2.06 2.007V7.768c-5.915 5.032-6.128 9.74-11.183 14.48-7.894 7.4-15.23 14.23-20.99 20.252-3.885 4.06-6.205 12.502-11.03 17.976v30.93c-7.902 7.738-13.185 13.126-13.185 13.126L1.927 139.495s14.846-16.095 31.372-30.9v54.12c0 2.825.588 9.712 2.442 12.45 7.063-7.682 9.094-14.48 13.685-18.983v-15.627c-1.338.72-2.12 1.942-2.12 1.942V96.824c1.385-1.07 2.754-2.098 4.102-3.072 4.703-3.397 8.312-7.614 11.26-11.78V197c6.77-7.063 8.947-13.89 12.42-16.01v4.944s3.06-2 4.884-4.944v6.357c7.24-9.888 9.602-16.35 14.833-22.425V153.18c-1.36.894-2.387 2.56-2.387 2.56V51.848c4.103-3.252 7.767-6.577 11.922-11.237V146.56c0 5.48.543 7.702 2.825 11.124 8.476-11.89 8.358-15.412 13.008-20.003v-14.657c-1.406.554-2.237 2.113-2.237 2.113v-46.73c4.155-3.78 7.65-5.344 12.596-12.545v52.445c0 5.353.353 8.358 1.683 10.753 7.85-6.59 9.342-17.46 13.856-20.685V93.35c-.814.46-1.99 1.424-2.766 2.765zM56.843 69.04c-3.247 2.977-6.45 5.966-9.535 8.882V49.528c6.714-5.48 10.948-8.917 15.362-14.568v28.235c-1.833 1.982-3.752 3.943-5.827 5.845zm21.72 94.646c0 5.062-2.06 7.3-2.06 7.3V63.655c.705-.525 1.39-1.03 2.06-1.524v101.554z"/>
</svg>
