<svg xmlns="http://www.w3.org/2000/svg" viewBox="0 0 300 62">
  <path d="M1.5 49.292l6.278-7.62H21.14l-6.336 7.62H1.5zM11.14 37.588L36.255 7.1l5.492 30.488H30.59l-.852-6.262-5.204 6.262H11.14zM42.484 41.67l.093.513.3-.512h12.316l-4.277 7.622H32.182l-1.037-7.62h11.34zM45.26 37.588L66.394 1.386l4.072 27.763 6.246-13.065h11.404L76.738 37.588H61.445l-.752-5.717-3.208 5.718H45.26zM74.576 41.67L64.493 60.725l-2.51-19.053h12.593zM72.194 49.292l4.116-7.62h11.42l-3.943 7.62H72.194zM78.515 37.588L98.068 1.386l4.52 26.415 5.65-11.715h10.954l-11.096 21.503H93.992l-.727-6.617-3.424 6.618H78.516zM105.987 41.67l-9.522 18.454L94.44 41.67h11.547zM104.73 49.292h11.207l3.943-7.62h-11.207l-3.944 7.62zM121.993 37.588l11.13-21.503h-11.208l-11.13 21.503h11.208zM132.2 49.292h11.207l3.943-7.62h-11.207l-3.944 7.62zM149.463 37.588l11.13-21.503h-11.21l-7.182 13.88h-2.885l7.183-13.88H135.29l-11.13 21.503h25.303zM122.048 41.67l-3.943 7.622h11.208l3.943-7.62h-11.208zM145.533 49.292h11.208l3.944-7.62h-11.207l-3.944 7.62zM162.797 37.588l11.13-21.503h-11.208l-11.13 21.503h11.207zM257.93 49.292h10.945l3.43-6.322 4.476 6.322h13.287l-6.326-7.62h-21.676l-4.133 7.62zM280.35 37.588h7.588c.037 0 .07.002.11 0 2.347-.065 3.497-2.168 4.305-4.415l5.595-11.816c1.162-3.107-.67-5.272-4.008-5.272h-17.998L264.28 37.588h11.073l5.714-11.418h3.002l-5.718 11.418h2zM158.32 49.292h28.703l4.21-5.682 1.553-1.94h-30.522l-3.944 7.622zM196.053 37.588l5.165-6.45.79 6.45h11.464L208.404 7.1 183.562 37.59h12.49zM202.51 41.67l.932 7.622h20.213l3.945-7.62h-11.207l-1.697 3.28-.545-3.28h-11.64zM229.713 37.588l5.908-11.418h5.538l-6.32 11.418h11.218l5.918-11.418h4.295l-5.92 11.418h10.73l7.817-14.558c1.902-3.542.797-6.945-4.114-6.945h-42.695l-5.816 10.086h8.144l-5.91 11.42h11.207v-.002zM232.58 41.67c-1.342 2.428-1.88 7.623 4.093 7.623h15.78c2.787 0 3.745-2.61 5.063-5.064l1.374-2.56H232.58zM175.584 37.588l11.13-21.503h-11.208l-11.13 21.503h11.208z"/>
</svg>
