<!--
  SVG Music Logos
  Audioslave v0.1.0
  https://github.com/tiagoporto/svg-music-logos
  Copyright (c) 2016-2018 Tiago Porto (http://tiagoporto.com)
-->
<svg xmlns="http://www.w3.org/2000/svg" viewBox="0 0 200 27" class="audioslave">
  <g class="audioslave__text">
    <path d="M57.158 2.518H44.415v21.977h12.743c3.403 0 6.187-2.784 6.187-6.186V8.704c0-3.403-2.785-6.187-6.187-6.187zm-.15 14.445c0 .69-.565 1.34-1.254 1.34H50.23V8.704h5.524c.69 0 1.254.564 1.254 1.253v7.005z"/>
    <path d="M36.058 17.423c0 .702-.28 1.062-.754 1.062h-6.03c-.474 0-.754-.36-.754-1.062V2.518h-5.813v15.79c0 3.403 2.785 6.187 6.188 6.187h6.79c3.4 0 6.186-2.784 6.186-6.186V2.517H36.06v14.905z"/>
    <path d="M186.112 8.528H198v-6.01h-13.084c-3.402 0-6.187 2.784-6.187 6.187v9.604c0 3.4 2.784 6.185 6.186 6.185H198v-6.01h-11.888c-.637 0-.71-.41-.71-.906v-1.165h10.613v-5.817H185.4V9.24c0-.477.063-.712.712-.712z"/>
    <path d="M150.004 2.518h-6.79c-3.4 0-6.185 2.784-6.185 6.187v15.79h5.794v-7.648h7.555v7.648h5.812V8.705c0-3.403-2.786-6.187-6.188-6.187zm.375 9.263h-7.556V9.128c0-.33.27-.6.598-.6h6.358c.33 0 .598.27.598.6v2.654z"/>
    <path d="M14.976 2.518h-6.79C4.787 2.518 2 5.302 2 8.705v15.79h5.796v-7.648h7.554v7.648h5.813V8.705c0-3.403-2.785-6.187-6.187-6.187zm.374 9.263H7.796V9.128c0-.33.27-.6.598-.6h6.358c.33 0 .598.27.598.6v2.654z"/>
    <rect x="65.653" y="2.518" width="5.817" height="21.977"/>
    <path d="M124.27 2.518h-6.673v15.79c0 3.403 2.785 6.187 6.187 6.187h11.123v-6.01H124.27V2.518z"/>
    <path d="M109.52 10.648h-5.872c-.587 0-.86-.168-.86-.695v-.735c0-.453.21-.81.86-.81h11.198V2.52h-11.88c-3.404 0-6.19 2.787-6.19 6.188v1.862c0 3.363 2.755 5.72 6.118 5.72h5.87c.587 0 .86.168.86.696v.813c0 .453-.21.81-.86.81H97.57v5.89h11.88c3.404 0 6.188-2.787 6.188-6.187v-1.94c0-4.22-2.7-5.722-6.117-5.722z"/>
    <polygon points="172.114 2.518 167.464 11.646 162.812 2.518 154.916 2.518 167.464 25.277 180.011 2.518"/>
    <path d="M84.398 2.056c-6.323 0-11.45 5.127-11.45 11.45 0 6.324 5.128 11.45 11.45 11.45 6.323 0 11.45-5.127 11.45-11.45 0-6.323-5.126-11.45-11.45-11.45zm4.865 15.638c-1.02 1.264-2.684 1.87-4.825 1.758-2.034-.107-3.507-.738-4.378-1.875-.85-1.108-1.102-2.692-.73-4.588.427 1.05 1.054 1.848 1.464 1.848h.002c.1 0 .237-.05.317-.273.247-.688-.292-1.156-.814-1.607-.19-.162-.365-.315-.506-.478-1.87-2.16-1.478-3.42-.91-4.423l.017.043c.192.46.64 1.538 1.754 1.767 1.09.225 1.84 1.037 2.373 1.72l.08.1.01-.126c.084-.993-.516-2.167-1.888-3.69h.095c1.664 0 3.03.747 4.17 2.28.19.254.33.596.478.957.06.144.12.29.182.43.205.46.383.67.523.638.145-.035.202-.31.173-.845-.03-.593 0-1.604.537-1.89v.13c-.005.253-.01.515.087.75.087.21.246.363.414.525.445.428 1 .96.537 2.977-.04.178-.083.49.09.578.112.057.235.063.367.02.518-.178 1.025-1.114 1.215-1.498.45 1.79.14 3.565-.834 4.772z"/>
  </g>
  <path class="audioslave__flame" d="M78.89 7.946c.16.353.56 1.623 1.774 1.873 1.093.224 1.857 1.038 2.402 1.737.094-1.112-.72-2.387-1.948-3.735 1.817-.065 3.234.707 4.417 2.296.272.365.444.907.664 1.4.37.83.656.857.6-.185-.03-.57-.022-1.715.636-1.97.005.312-.036.65.083.94.31.75 1.592.74.952 3.53-.05.222-.058.46.063.523.608.313 1.37-1.14 1.574-1.577.9 3.322-.686 6.988-5.676 6.723-4.646-.247-5.864-3.2-5.122-6.69.562 1.487 1.497 2.448 1.752 1.736.32-.897-.775-1.418-1.31-2.037-1.904-2.204-1.482-3.507-.865-4.567z"/>
</svg>
