<svg xmlns="http://www.w3.org/2000/svg" viewBox="0 62 200 78">
  <g>
    <path d="M53.9 96.1c.6-.6 1.1-1.3 1.4-2 .3-.7.4-1.9.4-3.4V71c0-1.6-.1-2.7-.4-3.4-.3-.7-.7-1.3-1.4-1.9h11.3c3.7 0 6.6.6 8.5 1.9 2 1.2 3 3 3 5.3 0 1.3-.4 2.5-1.2 3.5-.8 1-1.9 1.9-3.4 2.5 2 .6 3.6 1.6 4.6 2.9 1.1 1.3 1.6 3 1.6 5 0 1.2-.2 2.3-.6 3.4-.4 1.1-1 2-1.8 2.9-1 1.1-2.2 1.8-3.5 2.3-1.3.5-3.1.7-5.5.7h-13zm10.4-18.9c.2 0 .4.1.6.1h.7c1 0 1.7-.3 2.3-1 .6-.6.8-1.5.8-2.7 0-1-.3-1.8-.9-2.5-.6-.6-1.3-1-2.2-1h-.5c-.2 0-.5.1-.8.1v7zm0 14.3c.4.1.7.1 1 .1h.8c1.3 0 2.4-.5 3.3-1.4.8-.9 1.3-2.1 1.3-3.6 0-1.6-.4-2.9-1.2-3.8-.8-1-1.9-1.4-3.3-1.4-.2 0-.6 0-1.2.1-.2 0-.4.1-.5.1v9.9z"/>
    <path d="M77.4 96.1c.7-.8 1.2-1.6 1.7-2.3.4-.7.8-1.5 1.1-2.2l7.1-20.4c0-.1.1-.3.2-.5.3-.8.5-1.5.5-2s-.1-.9-.3-1.3c-.2-.4-.6-1-1.2-1.6h10.8l8.6 25c.4 1.1.9 2.1 1.4 3 .6.9 1.2 1.7 1.9 2.4H96c.7-.8 1.1-1.4 1.3-1.8.2-.4.3-.9.3-1.4 0-.3 0-.6-.1-.8 0-.3-.1-.5-.2-.7l-1.5-4.4h-9.2l-1.4 4.2c-.2.5-.3.9-.3 1.2-.1.2-.1.5-.1.7 0 .5.1 1 .4 1.5.2.5.6 1 1.1 1.5h-8.9zm10.8-13.3h6.2l-3.1-9.4-3.1 9.4z"/>
    <path d="M110.4 96.1c.6-.6 1.1-1.3 1.4-2 .3-.7.4-1.9.4-3.4V71c0-1.6-.1-2.7-.4-3.4-.3-.7-.7-1.3-1.4-1.9h12.2c5.5 0 9.8 1.3 12.9 4 3.1 2.7 4.6 6.4 4.6 11.2 0 2.5-.4 4.7-1.3 6.7s-2.2 3.8-3.9 5.3c-1.3 1.1-2.8 1.9-4.5 2.4s-4 .7-6.7.7h-13.3zm10.1-4.9c.5.1 1 .2 1.4.3.5.1.9.1 1.4.1 2.4 0 4.3-.9 5.8-2.8s2.2-4.4 2.2-7.6c0-3.2-.7-5.8-2.1-7.7-1.4-1.9-3.4-2.8-5.8-2.8-.4 0-.9 0-1.3.1-.5 0-1 .1-1.5.2v20.2z"/>
  </g>
  <g>
    <path d="M17 135.6H5c.6-.6 1.1-1.3 1.4-2 .3-.7.4-1.9.4-3.4v-19.7c0-1.6-.1-2.8-.4-3.5-.3-.7-.7-1.3-1.4-1.9h11.9c4 0 6.9.7 8.9 2 1.9 1.4 2.9 3.4 2.9 6.1 0 1.6-.4 3-1.3 4.2-.9 1.2-2.3 2.3-4.2 3.2l5.5 9.4c.5.8 1 1.6 1.7 2.5.7.9 1.5 1.7 2.3 2.6l-5.1.5h-1.3c-1.6 0-2.9-.4-4-1.2-1.1-.8-2.1-2.2-3.2-4.3l-3.9-7.7v7.7c0 1.6.1 2.7.4 3.4.4.8.8 1.5 1.4 2.1zm-1.7-15.5c1.6-.4 2.9-1.1 3.7-2.1.8-1 1.3-2.3 1.3-3.7 0-1.4-.4-2.5-1.1-3.3-.8-.8-1.8-1.2-3.1-1.2h-.4c-.1 0-.2 0-.3.1v10.2z"/>
    <path d="M33.6 135.6c.6-.6 1.1-1.3 1.4-2 .3-.7.4-1.9.4-3.4v-19.7c0-1.6-.1-2.8-.4-3.5-.3-.7-.7-1.3-1.4-1.9h17.8v6.3c-.7-.6-1.3-1.1-2-1.4-.6-.3-1.4-.4-2.4-.4h-3v7.6h5.8v5.8c-.4-.5-.8-.9-1.4-1.1s-1.2-.4-1.9-.4H44v9.2c.7.1 1.3.2 1.9.3.5.1 1 .1 1.5.1 1.7 0 3.1-.2 4.3-.5 1.2-.4 2.3-.9 3.3-1.7l-1.6 6.6H33.6z"/>
    <path d="M56.1 135.6c.6-.6 1.1-1.3 1.4-2 .3-.7.4-1.9.4-3.4v-19.7c0-1.6-.1-2.8-.4-3.5-.3-.7-.7-1.3-1.4-1.9h12c-.6.6-1.1 1.2-1.4 1.9-.3.7-.4 1.8-.4 3.4v19.9c.8.3 1.7.5 2.5.6.8.1 1.6.2 2.4.2 1.1 0 2.1-.2 3.1-.5s2-.8 3-1.6l-1.6 6.4H56.1z"/>
    <path d="M88.6 130.2c0 1.6.1 2.7.4 3.4.3.7.7 1.4 1.3 2h-12c.6-.6 1.1-1.3 1.4-2 .3-.7.4-1.9.4-3.4v-19.7c0-1.6-.1-2.8-.4-3.5-.3-.7-.7-1.3-1.4-1.9h12c-.6.6-1.1 1.2-1.4 1.9-.3.7-.4 1.8-.4 3.4v19.8z"/>
    <path d="M109.2 125.1c0-1.6-.1-2.8-.4-3.5-.3-.7-.7-1.3-1.4-1.9h9.5v15.2c-1.6.5-3.2.8-4.7 1.1-1.5.2-2.9.4-4.3.4-5.3 0-9.6-1.5-12.9-4.4-3.3-3-4.9-6.8-4.9-11.5s1.6-8.6 4.8-11.5c3.2-2.9 7.5-4.4 12.8-4.4 1.1 0 2.2.1 3.2.2s2.1.4 3.1.6l.5 6.2c-1.5-.8-2.8-1.3-4-1.7-1.1-.3-2.3-.5-3.4-.5-2.7 0-4.8.9-6.3 2.8-1.5 1.8-2.3 4.4-2.3 7.7 0 3.5.8 6.3 2.3 8.4 1.5 2.1 3.6 3.2 6.1 3.2h1c.3 0 .6-.1.9-.1v-6.3z"/>
    <path d="M129 130.2c0 1.6.1 2.7.4 3.4.3.7.7 1.4 1.3 2h-12c.6-.6 1.1-1.3 1.4-2 .3-.7.4-1.9.4-3.4v-19.7c0-1.6-.1-2.8-.4-3.5-.3-.7-.7-1.3-1.4-1.9h12c-.6.6-1.1 1.2-1.4 1.9-.3.7-.4 1.8-.4 3.4v19.8z"/>
    <path d="M148.7 136.3c-5 0-9.1-1.5-12.4-4.5-3.2-3-4.8-6.8-4.8-11.5 0-2.1.5-4.2 1.4-6.2.9-2 2.3-3.8 4-5.4 1.6-1.4 3.4-2.5 5.4-3.2 2-.7 4.1-1.1 6.4-1.1 5.1 0 9.2 1.5 12.4 4.4 3.2 3 4.8 6.8 4.8 11.5 0 2.1-.5 4.2-1.4 6.3-1 2.1-2.3 3.8-4 5.3-1.6 1.4-3.4 2.5-5.4 3.2-1.9.8-4.1 1.2-6.4 1.2zm-8.1-17c0 3.8.8 6.8 2.3 9.1 1.5 2.3 3.6 3.4 6.1 3.4 2.4 0 4.4-.9 5.8-2.7 1.4-1.8 2.1-4.3 2.1-7.4 0-3.8-.8-6.8-2.3-9.1-1.5-2.3-3.6-3.4-6.1-3.4-2.4 0-4.3.9-5.7 2.7-1.5 1.9-2.2 4.3-2.2 7.4z"/>
    <path d="M165.6 135.6c.8-.8 1.3-1.7 1.6-2.7.3-1 .5-2.6.5-4.9v-16.3c0-1.6-.2-2.8-.6-3.7s-1-1.8-1.9-2.7h9.4l13.8 18.6v-12c0-1.5-.2-2.7-.5-3.7s-.9-2-1.6-2.9h8.7c-.6 1-1.1 2.1-1.4 3.1-.3 1-.4 2.2-.4 3.7v24.4c-4.3-.5-8-2.9-11.3-7.2l-.3-.4-9.2-12v12.9c0 1.5.2 2.7.5 3.5.3.8.8 1.6 1.6 2.3h-8.9z"/>
  </g>
</svg>
