<!--
  SVG Music Logos
  Black Sabbath - Henry v1.0.0
  https://github.com/tiagoporto/svg-music-logos
  Copyright (c) 2016-2018 Tiago Porto (http://tiagoporto.com)
-->
<svg xmlns="http://www.w3.org/2000/svg" class="black-sabbath--demon" viewBox="0 0 190 200">
  <path d="M159.63 85.38l2.81 1.193 2.386-2.105.206 2.983 2.915.843-2.77 1.208 1.176 2.98-2.56-.858-2.498 1.664-.43-2.545-2.69-.887 2.193-1.73-.737-2.744M114.24 143.336c1.115.585 1.98 1.296 2.59 2.134 1.118.652 1.474.245.152-2.49-2-1.166-2.853-2.64-2.693-4.37-.086-1.798-.814-3.195-1.982-4.317-1.068-.327-1.44-.022-1.118.915.974 1.49 1.127 2.98.457 4.47.035 1.883.66 3.292 2.592 3.658z"/>
  <path d="M185.49 58.125c-9.185-1.52-18.247-3.286-27.067-5.535l-.862-.057c-2.17 1.955-4.88 3.07-8.122 3.34-5.54.12-9.55-2.428-13.247-5.53-.804-.54-1.225-.315-1.433.34-4.193 9.022-11.293 7.934-19.874 7.12-1.414.235-1.713.985-.9 2.248l1.8 4.048c.44 1.23-.182 1.402-1.285 1.092-2.534-.65-2.51.81-2.12 2.57.67 4.98.015 7.623-1.542 8.665-.946-1.102-2.136-1.973-4.204-2.023-.09-.333-.487-.51-1.025-.617-.52.303-.838.75-.718 1.508.22.42.543.71 1.093.72.77.216.49.565.273.925-.296.057-.562.238-.89.172-.615-.288-1.025-.7-1.23-1.234-.29-.36-.337-.76-.136-1.2.374-.31.625-.745.752-1.302-.09-.6-.465-1.033-1.128-1.303l-.446-2.122c-.38-.823-.79-1.03-1.23-.62-.12.113-.113.117-.284.117h-1.63c-.447 0-.373-.124-.647-.462-.494-.608-1.172-.957-2.034-1.047-.922.196-1.285.95-1.09 2.263.265.876.922 1.375 1.97 1.466.632-.16 1.166-.657 1.583-1.483.097-.193.095-.203.315-.243.584-.105 1.164-.03 1.744-.03.234 0 .25.018.406.205.607.73.418 1.34-.15 1.89-.633.517-.594 1.092.115 1.722.47.294.216.58.057.694-.92.51-.207.988.073 1.48-.155 1.163-.78 1.524-1.854 1.158-.65-.057-.995.268-1.033.977-.422.938-1.15 1.34-2.183 1.206-1.104-.666-1.9-1.486-2.392-2.458-.445-.807.047-1.287 1.476-1.44.647-.02 1.237.107 1.697.554.963.48 1.27.26.923-.664-.413-1.226-1.2-2.123-2.36-2.693-.86-.23-1.205-1.065-1.034-2.51-1.365-1.05-1.033-3.07-.96-4.943-.405-2.066-.86-2.95-2.25-2.877-1.373-.122-2.82.41-4.12-1.655-.69-.365-1.275-.556-1.13.47.415 1.305.31 2.48-.938 3.367-.71.437-1.49.66-2.303.783-1.354.86-1.562 1.774-.624 2.74.975.522 1.717 1.357 2.575 2.036.785 1.192.107 1.19-.78 1.02-2.783-.533-4.142-3.11-4.53-7.087-.56-1.814-1.17-.705-1.6.04-.667 1.84-.66 3.784.026 5.834 1.102 1.574.328 2.81-1.004 3.552-.388.54-.315 1.08.218 1.62 2.19 2.076 4.048 4.342 5.42 6.885 1.104 1.973 2.963 3.274 6.166 3.376 1.603.103 2.74.556 3.41 1.36 1.12 1.1 2.587 1.38 4.406.842 2.47-.06 4.594.506 5.962 2.45 1.12.758 1.44.616.958-.427-.307-.75-.413-1.547-.32-2.396-.83-1.843-2.06-3.505-3.992-4.845-.53-.933-.212-1.465.958-1.597.93.607 1.785.342 2.608-.32.92-.737 1.416-.417 1.49.96.62.514.974 1.19 1.065 2.022.063 1.065-.146 2.084.19 3.194.93 1.224 1.383 2.45 1.354 3.673 0 .486.638.426.957.64 1.384-.25 2.768-.303 4.152-.267 1.81-.037 3.316.232 4.417.905 3.465.558 6.93.654 10.396.077 1.74-.276 3.523-.385 5.396-.128 2.657.904 5.422 1.738 8.478 2.377 1.84.198 3.682.28 5.524.194 1.313.207 2.453.587 3.34 1.22 1.216.428 2.344.413 3.276-.578.67-.49 1.27-.34 1.798.45.89.704 2.09 1.187 3.973 1.18 1.51.247 3.02.375 4.528.247.695.085 1.222.295 1.58.632 1.205.222 1.288.538.246.948l-1.756.702c-1.964.473-3.854.215-5.724-.25-1.635-.226-3.186-.67-4.423-1.77-.154-.068-.51-.41-.783.113-.657 2.35-2.684 2.54-5.094 2.128-1.72-.456-3.49-.616-5.262-.75-2.662-.255-5.12-1.08-6.874-3.088-.835-1.098-1.923-1.31-3.38-.223-2.686.73-5.37 1.19-8.055.356-.992-.498-1.41-.27-1.692.555-.07.208-.006.26-.13.38-1.157 1.124-2.74.948-4.185.178-1.35-.267-1.32.474-.98 1.157l.85 2.606c-.27 2.69-.14 5.38.29 8.068 1.45 3.248 1.952 6.925 1.928 10.47-.068 2.356-.503 4.405-1.284 6.168-.88 1.56-1.68 3.173-2.204 4.97-1.062 2.374-1.32 4.65-.366 6.785l2.184 3.02 7.194 8.735c2.67 3.55 5.01 7.262 5.778 11.763.6 2.547.454 5.057-.424 7.5-.43.53-.7.212-.814 0l-1.456-5.024c-1.225-3.755-3.606-6.704-6.77-9.1-4.15-2.27-7.98-5.088-11.353-8.713-1.32-2.217-2.136-4.463-1.834-6.775.312-.912.344-1.75-.21-2.426-.165-.2-.19-.308-.244-.572-.358-1.738-.162-2.923.816-3.324.985-.532 1.97-.626 2.956-.282.81.27 1.233.2 1.267-.21.617-.653.813-.138 1.056.07.914.093 1.633-.025.986-1.62-1.06-2.528-1.2-5.132-.422-7.813.903-4.387.81-8.657-1.478-12.67-.646-1.536-.88-3.13-.21-4.856.75-1.972.187-3.66-1.69-5.07-4.168-3.29-8.35-6.54-12.708-9.265-.714-.475-1.343.02-.69.632.714.56 1.185 1.25 1.05 2.072-.024.143-.015.144-.173.187-.12.032-.27.01-.474-.015-.248-.07-.497-.168-.746-.292-.39-.08-.788-.135-1.206-.105-.62.112-.888.46-.51.87.132.14.148.142.3.193.59.195.992.42 1.164.837.072.172.074.304.077.484.012.825.295 1.56 1.38 2.028l2.01.977c2.795 2.005 3.59 4.03 3.504 6.433.08.744-.364.604-.747.402-.89-.71-1.637-1.608-2.068-2.93-1.236-2.99-2.806-4.38-5.975-4.65-1.896-.767-3.714-1.763-5.457-2.988-2.63-2.106-4.955-4.48-6.204-7.812l-.632-1.32c-1.59-1.8-3.485-3.37-5.687-4.71-3.12-2.708-5.93-6.305-8.157-10.513-1.627-4.17-4.447-6.9-8.444-8.214-2.423-.705-4.785-1.514-6.893-2.757-.37-.38-.418-.628.2-.598.288.013.442.13.693.262 2.166 1.145 4.352 1.567 6.552 1.467.484-.02.577-.053.983.21 1.666 1.086 3.274 2.187 4.783 3.312l5.17 5.054c.597.455.704.014.6-.172-.887-1.593-1.686-3.118-1.806-4.883-.302-2.14 1.387-3.906 5.987-5.127 9.52-5.597-.295-10.18-13.427-14.587-9.08-3.152-17.922-7.186-26.544-12.023-11.84-7.85-24.85-15.01-32.827-27.6-1.416-1.56-1.993-1.362-1.672.43 1.554 6.914 4.767 12.998 8.91 18.617 8.742 11.458 10.33 23.446 4.768 35.963 20.54 3.278 22.246 14.67 8.345 32.784 22.284-2.428 26.506 8.303 16.93 25.753 14.772-2.184 24.567-.473 25.822 13.365 2.048-1.555 3.94-3.266 5.678-5.134 5.752-4.408 11.526-8 17.398-7.652 1.328.022 1.95.452 1.024 1.78-1.62 1.17-2.714 2.24-2.67 3.87.193.772.623.832 1.29.18 1.794-1.166 3.59-1.403 5.384.4 1.645 1.673 1.17 2.368-.27 2.618-3.262 1.22-5.944 3.257-7.782 6.494-.322 1.62-1.2 2.87-3.303 3.303-8.318 2.754-14.654.848-19.986-3.415-4.078-3.144-8.37-6.073-13.045-8.62-5.43-2.682-10.166-2.11-14.21 1.718-2.044 2.267-3.023 5.078-1.093 9.393-.707-.24-1.37.79-.693 1.31 1.987 2.612 4.505 4.31 7.172 5.752.42.062.498-.084.436-.437-1.383-2.118-2.16-4.387-1.602-6.99.03-.352-.22-.605-.728-.51-.238.536-.572.88-1.003 1.027-1.538-2.535-1.996-5.07-.08-7.605 6.864-5.976 12.58.705 18.525 4.854 6.89 6.062 16.005 9.068 26.86 8.9-1.747 1.787-3.59 3.166-5.492 4.205-2.31 1.26-4.013 3.45-5.883 5.446-4.093 4.325-8.48 7.358-13.51 7.55-5.138.948-9.192 3.58-12.64 7.154-6.1 6.4-11.564 10.04-15.13 8.91-2.226.183-3.032 1.786-3.193 4.035.44 3.26-.41 5.617-1.85 7.564-2.078 4.474-1.87 8.033 1.682 10.255 1.702.902 2.935.398 3.698-1.514.12-3.354 1.532-5.417 3.53-6.893 2.78-1.757 4.56-3.763 5.884-5.884 1.37-2.036 3.175-3.638 5.275-4.945 7.087-2.053 13.816-4.465 19.67-7.753 3.79-.383 7.302-1.194 10.198-2.933 1.32-.726 2.638-.778 3.957-.156 3.386 1.206 7.227 1.865 11.734 1.725 4.866-.02 9.62.748 14.264 2.3 3.604 1.28 7.21 1.665 10.814 1.15 3.01-.748 5.81-.44 8.513.345 2.7-1.594 4.788-4.262 6.26-8.003-.365-6.404-2.323-12.125-6.394-16.94l-8.83-11.092c-1.226-1.95-1.667-3.878-.4-5.83.718-2.517 1.578-4.823 2.535-6.985 1.055-2.076 1.294-4.48 1.158-7.03-.03-2.447-.356-4.716-.98-6.808-.756-2.345-1.17-4.792-.84-7.467.043-.362.053-.312.408-.378 3.693-.693 7.2-1.575 10.69-2.417 3.768-.504 7.314.112 10.636 1.848 3.25-.697 6.75-.65 10.3-.448 2.515-.877 5.455-1.27 9.014-.952 2.473-.425 4.712-1.2 6.886-2.07.82-.99.448-1.532-1.12-1.625l-1.622-.668c-3.436.096-6.825-.097-9.203-2.407-1.813-.405-3.526-.268-5.096.662-1.115-.468-2.27-.823-3.506-.927-1.787-.004-3.574-.15-5.36-.397-3.05-.452-5.906-1.29-8.603-2.448-.992-.23-1.984-.298-2.977 0-3.406.83-6.874 1.09-10.456.33l-.265-.793c4.246-5.926 9.926-10.203 17.702-12.07 5.245-1.86 4.175-4.46-.886-5.374 1.897-2.042 4.077-3.858 6.762-5.27 7.332-3.78 15.52-6.46 25.4-6.964 5.8.014 11.432-.22 16.866-.75 1.013.055 2.47-.855.274-1.367zM58.64 168.4c.414 2.61-3.3 3.286-7.28 5.094-3.41 1.973-6.72 3.3-9.852 3.47-1.767-.456-3.153.42-4.367 1.904-.36.846-.265 1.37.28 1.568.863-.26 1.368.194 1.712.97.534.55 1.197.52 1.99-.096 1.726-.723 2.157-.248 1.165 1.36-2.992 3.103-6.676 4.96-8.98 8.737-.62 1.146-1.09 2.39-1.408 3.737.177 1.05-.195 1.05-1.118 0-1.812-1.795-1.122-4.103.97-6.7 2.748-2.803 4.486-5.212 2.622-6.212-2.11-.088-2.017-1.69-.923-3.98.554-1.827 1.987-2.07 3.545-2.087 1.223-.343 2.406-.763 3.555-1.246 3.446-1.452 6.586-3.48 9.578-5.788 1.765-.317 3.53-.336 5.295-.152 2.135-.183 2.795-.943 2.628-2.027-1.113-5.476 2.755-7.107 8.65-7.174-.32 5.307-2.516 8.684-8.06 8.62zm14.87-7.17c-1.51-.265-3.122.6-4.78 1.98.453-2.646 1.727-4.17 3.822-4.576h3.278c-.27 1.537-1.155 2.252-2.32 2.595zm14.575 2.047c-1.638.516-3.094.395-4.37-.364-1.12-1.032-2.335-1.517-3.64-1.456-1.82.428-3.585-.354.365-1.456l3.64-.12c1.9 1.17 3.802 1.702 5.704 1.94 2.346.952 1.78 1.438-1.7 1.457zm8.78-3.556c.424-1.055.095-2.11-.984-3.166 2.16-.598 3.802-1.842 5.21-3.378 2.697 1.56 4.88 3.507 6.826 5.63-3.683-.058-7.366.223-11.05.915zm26.04 7.172c-1.626-.75-3.25-.925-4.876-.84.115-1.64-.46-3.11-1.178-4.54 2.073 1.032 4.147 1.52 6.22 1.513 3.922 2.81 2.982 3.76-.168 3.867z"/>
</svg>
