<!--
  SVG Music Logos
  Blink-182 - Boxset v0.1.0
  https://github.com/tiagoporto/svg-music-logos
  Copyright (c) 2016-2018 Tiago Porto (http://tiagoporto.com)
-->
<svg xmlns="http://www.w3.org/2000/svg" viewBox="0 0 200 102">
  <path d="M36.1 81.938c-.303 0-.03.025-.237-.082.184-.26.13-.115.946-.327.333-.088.68-.163 1.024-.246v.245c-.574.048-1.152.408-1.735.408zm42.333-6.703c0-.39.054-.34.08-.654.05.063.053.03.134.188.075.147.064.138.102.303-.194.135-.082.093-.317.165zM93.49 60.768c.33.09.167.037.315.327-.388-.108-.194-.09-.315-.327zM15.444 77.115c-.598 0-.353-2.084-.27-2.567.067-.374.083-.613.145-.995l.117-2.07c-.158-1.35-.13-2.304-.37-4.033-.096-.7-.097-1.294-.207-1.99l-.746-5.93c-.086-.654-.19-1.32-.246-1.95-.146-1.67.29-1.356 1.83-2.355 1.04-.675 3.352-1.616 4.57-1.962 2.357-.667 3.6-.744 6.047-.334.748.124 1.34.27 1.644.91.464.98-.317 5.07-.977 6.466l-.657 1.28c-.082.148-.13.267-.222.424-.89 1.494-1.89 3.438-2.838 4.904-1.277 1.974-3.968 5.797-5.354 7.526l-1.145 1.428c-.39.397-.93 1.247-1.323 1.247zM52.34 14.75c-.666 0-1.46-1.234-1.872-1.74-.127-.154-.098-.163-.238-.324l-1.616-2.003c-.157-.174-.152-.19-.282-.36-.098-.13-.166-.17-.264-.3L45.1 6.317c-.197-.26-.895-1.155-1.117-1.294-1.65-1.034-4.81.53-4.81 2.044 0 .795.552.795.552 1.635 0 .695-.68.947-.157 1.962L41.49 13.9c.093.13.18.258.27.374.108.14.197.197.31.334.134.165.117.197.274.368l.67.694c1.092 1.35 2.04 2.654 3.312 3.84.816.762 1.984 1.04.71 2.33l-.75.858c-.388.405-.894.653-1.218 1.106-.074.103-.22.45-.22.59 0 .743 1.425 2.745 1.972 3.515.344.484.963.898 1.656.898 1.034 0 1.646-.614 2.187-1.166.36-.368 1.51-1.45 1.913-1.45.308 0 .385.05.612.265l1.926 2.008c.108.17.194.278.3.426.837 1.177 1.46.834 2.023 1.907 1.265 2.406 4.145 3.526 3.402 6.25-.118.43-.123.78-.14 1.245l-1.105 13.16c-.014.353-.058.26-.08.57l-.083 1.96c-.002.977-.078 1.71-.076 2.617.002.985-.158 1.628-.158 2.615l.08 7.193c0 .73.003 1.304-.378 1.653-.672.615-5.42 1.063-6.71 1.218-1.654.2-1.32-.763-1.106-1.882.378-1.968.987-3.802 1.444-5.777.11-.482.106-.535.442-.77l.156.902c.013.42.016.647.238.816l.266-.705c.284-1.005.507-2.494.525-3.542.044-2.634-.148-5.353.215-7.95l.258-2.92c.013-.762.077-1.234.076-1.965l.08-1.96c-.004-1.02-.077-2.09 0-3.108.025-.346.08-.508.078-.98-.015-3.454.867-5.724.867-7.358 0-.605-.14-1.11-.414-1.453-1.05-1.32-2.838.005-3.99.402-.54.186-.867.144-1.257.574-.486.535-.074 1.013-.352 1.597-.3.632-.638.39-1.16.677-.93.507-1.012 1.73-1.024 2.78l-.257 3.576c-.133.905-.156 2.918-.265 3.567-.1.59-.19 5.215-.19 5.607v5.64c-.002.5.066.68.082 1.06.046 1.128-.05 2.306-.006 3.438.03.728.24 1.325.238 2.042 0 .466.083.563.08 1.06-.005 1.43-.096 4.06-.233 5.488-.08.842.583 1.735-.796 2.03-.53.112-1.106.208-1.592.31-.816.17-2.904.706-3.658.4-.628-.256-.66-.94-.66-1.605 0-.663.496-1.79.665-2.58.21-.987.243-1.896.408-2.93.255-1.597.51-4.734.505-6.18-.003-.622.08-.91.08-1.552-.002-.484-.045-1.26.006-1.71.127-1.117.208-4.393.228-5.568.007-.408.078-.403.085-.81.01-.54-.04-1.09.044-1.59l.265-7.163c.007-.408.08-.403.085-.81.037-2.208.225-4.28.23-6.464l.082-1.55c-.002-.672.08-1 .078-1.635-.005-1.16.082-2.07.078-3.27-.002-.548.08-.915.08-1.553 0-.524-.037-1.21 0-1.716.096-1.292.08-2.017.08-3.353 0-1.26-.943-1.328-1.736-1.88-2.395-1.664-2.6-1.155-5.078-.525-1.846.47-.407 2.387-1.652 3.273-.39.277-.812.156-1.287.382-.468.223-.553.354-.76.847-.273.654-.3 3.866-.192 4.586.083.555-.005 1.304.08 1.88.21 1.43-.018 5.657-.018 7.62l-.08 1.88c.004 1.013-.03 8.81-.17 9.55-.154.83-1.49.368-2.982.258l-1.796-.1c-.937-.15-4.256.184-5.347-.014-1.143-.208-3.22.16-4.3.512-1.238.402-2.278.952-3.405 1.537-.487.252-.947.518-1.47.518-.384-.75-.364-1.756-.493-2.677-.062-.438-.087-.96-.16-1.47-.193-1.4-.267-2.872-.473-4.332-.267-1.897-.412-3.842-.723-5.706-.166-.994-.34-1.84-.513-2.738-.167-.872-.408-1.79-.634-2.61-.117-.423-.272-.783-.532-1.084-1.22-1.415-2.73.35-4.12.35-.335 0-.532-.246-1.025-.246-.402 0-.66.393-.89.632-.75.788-.522 1.245-.325 2.18.38 1.808.326 3.596.616 5.41.122.756.118 1.456.224 2.22.253 1.822.752 7.36.85 8.765l.11 1.03c.15.91.143 1.898.264 2.75l.255 2.76c.024.706.177 1.503.236 2.207.027.332.1.724.138 1l.738 5.366c.44 3.455 1.205 6.85 1.734 10.3.42 2.73.98 5.41 1.457 8.134.833 4.77 1.64 9.555 2.55 14.277.07.366.122.632.195 1.022l.283.932c.306-.233.12-.43.082-.82-.125-1.287-.408-2.796-.398-4.084.007-.927-.118-1.157-.008-2.132.128-1.136-.045-5.66-.144-6.54-.1-.888.02-1.702.564-2.26.6-.618.986-.764 1.4.88.112.438.226 1.255.71 1.39.21-.82-.332-1.498.283-3.385.274-.84 1.027-1.52 2.082-1.52.12.538-.316.773-.903 1.435-.166.188-.18.394-.28.61 1.122 0 1.624-.59 2.576-1.008 1.582-.696 6.19-3.046 7.607-4.21.093-.077.116-.115.21-.192.76-.626 1.473-1.302 2.12-2.05.284-.33.65-.612.9-.946.174-.23.193-.273.4-.486l2.64-2.903c.247-.254.282-.226.574-.386.314.676.452 3.44.622 4.505.266 1.66.185 2.734-.543 4.24-.236.484-.71 1.916-.71 2.615 0 .707.288 1.074.76 1.338.52.292 1.28.178 1.684.38-.22.428-.292.223-.674.444-.23.134-.44.352-.508.617.328.08.38.193.79.244.298.036.587.06.912.117.525.09 1.477.13 1.863.067.603-.098.844.008 1.855-.202 1.65-.345 3.33-.818 4.957-1.318 1.6-.493 3.074-1.045 4.576-1.712.513-.228.93-.402 1.417-.656 2.09-1.09 4.29-1.952 6.385-3.025l1.42-.653c.432-.216.282-.22.894-.22.205.914.08 5.055.08 6.295 0 2.84-.402 5.3-.77 7.95-.166 1.192-.57 4.237-.334 5.292.66-.458.65-1.572 1.398-2.474.096-.115.136-.198.226-.338.425-.658.622-1.61.975-2.34.197-.407.276-.335.493-.633.2-.274.326-1.366.423-1.77.16-.665.316-1.14.446-1.825.04-.21.128-.738.14-1 .017-.454-.048-.715.06-1.08.65-2.16.822-3.46.96-5.79.12-2.043 1.16-9.728 1.656-11.932l.08 2.616c-.07.91-.006 1.866 0 2.778.002.558-.134.815-.087 1.313.035.372-.07.145.163.322.195-.87.72-.78.71-2.778l.228-4.587c.057-.54-.088-.69.403-.81.247 1.07.002 2.518-.08 3.598-.015.222.004.51.003.738-.002.806-.167 1.77-.16 2.613.014 1.804-.77 2.816 0 3.352.27-1.2.493-3.565.552-4.905l.157-1.8c.03-.81.206-1.703.236-2.533.05-1.345.714-6.53.982-7.974l.28-1.752c.076-.348.058-.267.316-.41.5.348.822 1.756 1.07 2.406.178.465.346.814.518 1.262l1.54 3.797c.368.895.813 1.818.813 2.997 0 1.52-.165.672.325 2.196l.49 1.534c.11.265.156.235.288.44h.788c.315.484.478.9.632 1.552.07.293.138.576.225.83.47 1.374 1.448 2.704 1.273 5.054-.084 1.125-.08 1.062.158 2.125.776-.19.46-1.243 1.025-1.636.623 1.22-.03 1.754-.36 3.467l-.71 3.76c-.272 1.27-.485 2.51-.723 3.747l-.54 2.874c-.227 1.162-.033.906.365.705.463-.234.66-.144 1.024-.655.575-.812.8-1.154 1.157-2.07l.586-1.598c.772-2.164 1.586-4.344 2.286-6.54.78-2.454 1.767-4.855 2.56-7.315l1.45-5.12c.075-.314.123-.588.26-.873.257-.538.648-.684 1.158-.353.54.352.95.863 1.44 1.288l1.102.982c.45.476.975.837 1.42 1.308.262.28.45.38.71.654L96.5 78c.15.123.216.233.366.356l4.147 3.384c.284.22.502.366.777.584.27.215.51.37.78.582 2.564 2 2.014 2.005 5.1 3.13.976.356 1.778 1.215 2.928 1.215.537 0 .37-.256.845.106.2.152.02.12.38.18.207.033.187-.02.43-.04.04-.492.01-.64-.21-1.09-.553-1.138-1.287-1.64-1.287-3.16-.3-.208-.554-.625-.774-.913l-2.773-3.664c-.173-.24-.32-.44-.507-.702l-6.51-8.698c-.085-.117-.152-.21-.236-.33l-1.52-2.018c-.12-.15-.124-.14-.25-.315-.187-.263-.35-.454-.518-.688l-2.555-3.32c-.19-.266-.434-.353-.52-.687.213.117.332.2.537.342l1.89 1.638c.08.08.108.13.196.205L98.4 65.16c.208.183.263.193.47.412l1.387 1.26c.595.485 1.328 1.3 1.906 1.702-.09-.345-.568-.924-.773-1.242-.732-1.134-2.044-3.093-2.912-4.092-.102-.117-.123-.12-.224-.258-1.067-1.47-4.137-3.4-2.572-4.398.724-.46 1.592-.807 2.32-1.274.488-.313.945-.57 1.418-.9.263-.182.435-.303.72-.478.198-.12.15-.11.322-.24l4.336-3.433c.284-.22.362-.34.646-.558.28-.215.37-.41.505-.702-.914 0-2.69.89-3.537 1.238l-5.42 2.31c-.18.076-.28.144-.425.212l-.82.375c-.595.25-1.056.48-1.65.743l-.814.38c-.424.208-.428.267-.815.055.206-.923 1.448-1.315 2.16-1.765l1.834-1.04c.184-.1.2-.13.343-.217l1.838-1.036c2.826-1.453 4.093-2.54 6.47-4.408.173-.136.148-.11.302-.26l.632-.57c.15-.13.158-.1.314-.245l.905-.86c.22-.225.36-.286.592-.53l.625-.577c.794-.646 3.928-4.643 3.928-5.328 0-.452-.4-.56-.65-.797-.24-.228-.217-.812-.296-1.164-.36-.087-.703-.06-1.026.082-1.342.583-2.72 1.013-4.075 1.578l-9.102 3.805c-1.344.55-3.4 1.646-4.876 1.646-.24 0-.318-.08-.473-.164 0-1.6.627-3.092 1.094-4.587l.906-2.984c.113-.395.18-.64.296-1l.605-1.99c.743-2.866 2.44-6.47.937-9.765-.702-1.54-2.5-1.816-3.38-.532-.365.533-.372 1.06-.96 1.457-.636.43-.977.01-1.297 1.108l-1.84 5.53c-1.624 4.73-3.358 10.488-4.37 15.33-.15.718-.29 1.337-.42 2.018-.16.822-.133 1.386-.717 1.792-.022-.276-.11-.383-.11-.555-.002-.164.052-.464.078-.623.357-2.243.564-4.596.91-6.823.26-1.673.725-3.313.996-5.18.235-1.615.375-3.29.493-4.884.018-.257-.02-.56 0-.817.023-.306.076-.27.082-.65.042-2.697.185-2.708-.152-5.654L84.188 19c-.336.233-.377.6-.468 1.068-.24 1.25-.923 5.57-1.518 6.273-.612.725-1.425-.344-1.752-.85-.574-.884-.116-3.002-.126-4.202-.003-.4.043-.472.073-.742.03-.277-.01-.486.04-.777l.52-5.756-.088-2.362c-.258-2.46-.08-1.455.005-3.77.013-.356.06-.26.08-.57.016-.208-.015-.44.008-.648l.072-1.642c0-.413-.127-.434-.158-.818-.79.22-.94 1.56-1.07 2.24l-.553 2.862c-.194 1-.346 1.88-.54 2.875-.19.988-.337 1.922-.525 2.89-.464 2.384-.783 4.87-1.168 7.29-.238 1.498-.283 3.046-.528 4.602l-.497 2.836c-.077.504-.155.965-.252 1.455-.09.458-.153.993-.23 1.478-.237 1.5-.338 3.007-.584 4.544-.083.527-.07 1.024-.156 1.553-.086.533-.068 1.03-.144 1.567-.07.487-.1.998-.14 1.57l-.633 7.927c-.01.713.047 1.007-.39 1.312-.457-.25-.455-.716-.662-1.36-1.56-4.852-3.494-11.825-3.983-16.467l-.162-3.59c0-.46-.083-.52-.084-.977-.002-.758-.01-1.34-.21-1.908-.368-1.06-1.295-1.772-2.39-1.772-.636 0-2.15.412-2.75.663-1.197.504-.855 1.475-1.094 2.463l-.248 1.54c-.372.674-.982-.265-1.235-.612-.183-.25-.217-.238-.323-.565-.085-.264-.116-.45-.193-.7-.128-.412-.313-.88-.475-1.305-.47-1.228-1.144-2.333-1.778-3.47-.425-.764-1.287-1.577-1.287-2.508 0-.31.79-1.1 1.046-1.368l1.433-1.785c.126-.177.212-.307.342-.464 1.258-1.52 2.775-4.224 3.645-6.03.422-.876.888-1.85 1.214-2.827.524-1.573.757-3.217.757-4.938 0-.28-.215-1.144-.393-1.144-.422 0-1.133.497-1.387.85-.385.537-3.015 3.274-3.454 3.613-.32.247-1.188 1.276-1.466 1.67l-2.108 2.554c-.19.198-.2.203-.368.436-.14.195-.243.252-.376.427l-.675.853c-.4.457-1.032 1.32-1.47 1.663-.246.192-.65.607-.994.607z"/>
  <path d="M124.867 82.346l.024.024c-.002 0-.03-.016-.023-.024zm30.587-20.598v-.082l.092.068-.092.014zm-24.517-5.067c-.38-.744-.25-.784-.08-1.88.068-.427.115-.815.192-1.272l1.128-6.185c.11-.685.385-1.62.915-.662.138.25.243.393.363.605l1.39 2.402c.815 1.396.836 1.487-.382 2.888-.136.156-.143.204-.277.367-.128.156-.158.223-.276.367-.208.255-.376.434-.576.71-.13.178-.105.152-.25.312l-1.143 1.43c-.593.685-.175.507-1.003.92zm11.825 5.56c-2.41 0-.74-5.243-.418-6.075.733-1.89 2.48-3.673 3.618-5.24.755-1.04 2.088-1.928 3.422-1.928.26 0 .327.425.246.824-.25 1.22-1.946 5.072-2.61 6.45-.56 1.16-1.144 2.23-1.814 3.27l-1.595 2.27c-.138.165-.578.43-.848.43zm-3.784-16.92c0-1.374.936-2.594 1.608-3.647.13-.204.198-.285.33-.474l2.93-3.912c.2-.21.22-.29.394-.49l2.68-3.19c.723-.826 1.14-1.395 2.307-1.94.805-.375 1.875-.735 2.917-.735.017.033.158.317.158.327 0 .393-.716 2.2-.893 2.59-.096.208-.193.42-.292.596l-1.62 2.733c-.718 1.087-2.972 4.135-3.882 4.884-.734.603-2.522 1.78-3.03 2.253-.585.546-1.216 1.21-2.264 1.25-.357.012-1.344.193-1.344-.248zm6.622 24.275c1.082-.26 1.807-1.055 2.756-1.638 1.035-.635 1.368-.912 2.243-1.598.8-.63 1.792-1.723 2.51-2.467 1.056-1.096.727-.815 1.728-1.64l.617-.506c-.273 1.215-1.414 2.3.073 2.12.843-.102 2.036-.762 2.844-.567 0 .75-.317 1.14-.563 1.787l-.725 1.702c-.067.148-.12.24-.196.368-.702 1.16-.858 1.51-1.85 2.414-.2.182-.443.406-.365.822.06.316.332.4.435.783.215.8-1.044 2.197.056 1.887 1.686-.475 2.382.29 3.66-.056.864-.234 4.968-2.623 6.273-3.306l1.63-.763c.536-.253 1.18-.42 1.733-.655 1.57-.667 5.077-1.618 7.048-2.42.32-.13.553-.198.868-.326 3.793-1.532 7.074-2.9 10.742-4.802 2.294-1.19 4.562-2.584 6.615-4.175l2.306-1.86c.166-.135.18-.118.35-.292.218-.223.447-.34.61-.592-.937 0-.528-.077-1.443.302-.492.204-.95.398-1.407.585l-6.893 2.825c-.68.28-.676.374-1.61.374.286-1.272.27-.947 1.482-1.733.86-.556 1.672-.887 2.71-1.6.426-.293.85-.626 1.324-.837.242-.108.638-.11.826-.302.28-.285-.163-.315-.48-.24-.737.18-1.71.566-2.443.82-1.338.468-.843.297-1.764.297.057-.253.1-.37.207-.602.27-.584.968-.728 1.48-1.08.35-.242.656-.44.97-.71.37-.32.573-.508.91-.857 1.038-1.077 2.344-3.002 2.344-4.597-.75 0-.88.064-1.43.236-3.495 1.095-7.003 2.004-10.464 3.21-.423.146-.873.33-1.282.47l-6.247 2.268c-.558.193-.738.396-1.31.112.04-.504.277-.525.53-.84.64-.788 1.414-1.5 2.05-2.288.145-.177.15-.222.318-.407.155-.17.172-.23.316-.407 1.42-1.732 2.72-3.572 4.007-5.408l1.465-2.16c.207-.286.37-.566.57-.88.21-.327.376-.543.583-.866.758-1.182 1.48-2.302 2.24-3.483.843-1.312 1.345-2.615 1.61-4.216.258-1.574.182-3.692-.52-5.12-.575-1.163-1.564-1.78-2.43-2.63l-.223-.26c-.01-.01-.027-.033-.036-.044l-.073-.088c.15-.665.837-1.34.544-2.033-.212-.507-.998-.993-1.565-1.158-2.113-.616-6.784 1.17-8.722 2l-4.58 2.28c-1.43.786-2.78 1.725-4.067 2.73-.16.126-.202.155-.354.288l-1.154 1.01c-.813.63-2.037 1.95-2.518 2.947-.674 1.397-.84 2.72-.84 4.77.742.514.854.27 1.872.06.905-.186 2.12-.367 2.905-.91.272-.19.443-.37.708-.575.273-.21.48-.355.743-.537.745-.515 1.565-1.06 2.365-1.47l4.232-2.153c.495-.248.367-.283.972-.137.23 1.017-.513 2.54-.878 3.503l-1.41 3.118c-.08.166-.154.33-.234.493-.908 1.845-1.97 3.592-3.076 5.312l-10.658 16.658c-.384.598-.9 1.166-1.482 1.57.08-.355.466-1.048.63-1.39.444-.918.846-1.854 1.418-2.7.135-.197.3-.384.442-.604.15-.236.236-.424.38-.67.87-1.472.776-3.227 1.257-4.907.174-.607.308-1.03.494-1.613.608-1.902.992-2.86-.318-4.675L159.33 44c-.43-.567-1.02-1.066-1.53-1.52-.685-.607-1.532-.998-2.378-1.296-.295-.104-.46-.187-.696-.34-.106-.07-.188-.12-.285-.195-.587-.45.178-1.024.56-1.356.835-.724 1.65-1.428 2.364-2.29 1.6-1.932 2.344-5.466.277-7.6-1.39-1.44-3.277-2.516-5.08-3.317-1.262-.562-3.79-1.513-5.213-1.267-.798.138-1.1.667-1.57 1.15-.18.182-.3.307-.474.49-.615.642-1.34 1.18-2.037 1.73-.127.1-.144.134-.256.225l-.784.66c-.324.318-.58.624-.903.943-.19.186-.34.23-.503.46l-2.613 3.01c-1.038 1.197-1.922 2.572-2.78 3.904-.383.597-1.04 1.835-1.576 2.207.007-.285.106-.915.14-1.164.063-.452.053-.818.116-1.27.106-.76.235-1.64.3-2.468.106-1.382.554-3.41-1.268-3.842-1.25-.297-2.2.32-3.386.407-.418.03-.7.194-.87.487-.377.64-.18 1.608-1.32 2.802l-.63.735c-.535.55-1.122 1.102-1.582 1.71l-.98 1.11c-.235.29-.4.384-.643.723-.345.478-.896 1.01-1.29 1.44l-4.952 5.165c-.437.34-.73.628-.978 1.11.112.22.144.382.334.554.473.426 1.035.787 1.646.99.966.322 2.02.357 3.067.09 1.09-.276 1.43-.627 2.186-1.33l1.38-1.266c.23-.244.195-.337.61-.347.053.647.223.577.075 1.302-.307 1.506-.52 2.343-.783 4.01l-1.665 11.188c-.135.86-.393 1.81-.385 2.79.017 2.032-.71 1.834-.867 2.37-.104.355.34.622.22 1.453l-.14 1.653c.947.658.945 1.283.945 2.86.525.29.38.047.867.164 0 1.138.392 2.354.19 3.548-.102.602-.11 3.193-.11 3.81-.003.708.082 1.132.08 1.88-.003 1.077-.24 2.18-.24 3.677 0 .737.08 1.234.08 1.88h.08c0-.314.152-.41.22-.67.072-.287.07-.465.114-.78.485-3.38 1.445-7.234 2.236-10.516.482-2 1.245-3.614 1.576-5.722.107-.676.432-2.442.77-2.88.39-.506.832.115 1.28.028 1.213-.238 1.126-1.204 2.066.368.64 1.072 1.387 2.152 2.51 2.79 2.122 1.206 3.91.504 5.863-.68l4.52-2.506c.254-.13.315-.2.55-.33.222-.12.363-.17.574-.304l1.686-.95c.72-.436.523-.463 1.184-.406-.01.43-.1.395-.335.634l-1.86 2.078c-.278.367-.68.678-.98 1.027-.128.147-.103.147-.204.28-.108.146-.143.153-.246.312z"/>
  <path d="M100.428 58.397c0 .522.174 1.173.24 1.714.224 1.87-.074 2.98 2.606 3.428.342.057 1.353.277 1.625.24 3.543-.496 4.226-1.418 7.572-2.29 1.793-.47 1.95-.268 3.427-.534 1.875-.338 3.653-.933 5.482-1.426.315-.085.474-.118.566-.475-.274-.237-4.317.408-5.44.408-.107-.465-.18-.337.362-1.258l1.372-2.828c-.847 0-1.54-.307-2.856-.1l-2.187.185c-.502.005-.653.068-1.108.077l-2.175.197c-.297.053-.814.094-1.064.123-.432.05-.752.07-1.177.088l-1.07.116c-1.243.22-4.488.322-5.263.756-.554.31-.915.975-.915 1.58z"/>
  <path d="M145.363 69.76c-.377.032-.467.154-.63.408.294.14.547-.086.63-.41z"/>
  <path d="M124 88.15v-.245c-.236.176-.255.062 0 .245z"/>
  <path d="M102.478 68.778c-.118-.176-.012-.108-.236-.163.12.18.012.1.236.163z"/>
  <path d="M102.478 68.778c.118.176.012.108.236.163-.12-.18-.013-.1-.236-.162z"/>
  <path d="M13.28 99.92c.058-.033.086-.088-.03-.044-.003 0-.225-.093-.092.044h.122z"/>
  <path d="M53.285 63.63c0 .202.126.02.05 0-.002-.002-.05-.233-.05 0z"/>
  <polygon points="145.6 69.595 145.521 69.677 145.6 69.595"/>
  <polygon points="145.521 69.677 145.363 69.759 145.521 69.677"/>
</svg>
