<!--
  SVG Music Logos
  Bon Jovi - Have A Nice Day v0.1.0
  https://github.com/tiagoporto/svg-music-logos
  Copyright (c) 2016-2018 Tiago Porto (http://tiagoporto.com)
-->
<svg xmlns="http://www.w3.org/2000/svg" viewBox="0 0 200 200" class="bon-jovi--have-a-nice-day-smile">
  <rect x="2" y="2" width="196" height="196"/>
  <rect class="bon-jovi__background" x="8" y="8" width="184" height="184"/>
  <g class="bon-jovi__face">
    <path d="M64.728 63.138c7.328 0 13.332 6.004 13.332 13.332 0 7.416-6.004 13.42-13.332 13.42-7.416 0-13.42-6.004-13.42-13.42 0-7.328 6.003-13.332 13.42-13.332z"/>
    <path d="M108.953 68.202c-2.21 1.555-5.265 1.023-6.82-1.188-1.557-2.21-1.025-5.266 1.187-6.82l32.403-22.78c1.26-.886 2.793-1.094 4.167-.7l7.842 2.09c2.614.69 4.175 3.365 3.487 5.98-.69 2.613-3.365 4.174-5.98 3.486l-5.75-1.534-30.537 21.466z"/>
    <path d="M87.882 60.42c2.233 1.523 2.808 4.57 1.284 6.802-1.523 2.233-4.57 2.807-6.802 1.284l-30.57-20.908-5.812 1.486c-2.624.667-5.292-.92-5.96-3.545-.666-2.625.922-5.293 3.545-5.96l7.946-2.03.003.01c1.313-.335 2.757-.126 3.963.698L87.88 60.42z"/>
    <path d="M149.9 101.64c0-3.625 3.834-5.524 6.59-4.497l.04.014.003-.01c1.088.4 2.934 1.015 5.222 1 1.912-.01 3.76-.472 5.533-1.393 2.402-1.238 5.353-.294 6.59 2.108 1.24 2.402.295 5.353-2.107 6.59-.484.253-.972.484-1.463.697-5.015 28.364-26.437 58.012-61.63 65.21-27.008 5.526-58.23-4.27-79.277-37.536-1.785-2.834-.934-6.58 1.9-8.364 2.835-1.785 6.58-.934 8.365 1.9 14.202 22.445 37.92 37.984 66.588 32.12 24.442-5 44.928-24.75 51.355-51.913-3.76-.697-7.707-1.742-7.707-5.926z"/>
    <path d="M126.796 63.138c7.328 0 13.332 6.004 13.332 13.332 0 7.416-6.004 13.42-13.332 13.42-7.416 0-13.42-6.004-13.42-13.42 0-7.328 6.004-13.332 13.42-13.332z"/>
  </g>
</svg>
