<!--
  SVG Music Logos
  Bursum - Demo v0.1.0
  https://github.com/tiagoporto/svg-music-logos
  Copyright (c) 2016-2018 Tiago Porto (http://tiagoporto.com)
-->
<svg xmlns="http://www.w3.org/2000/svg" viewBox="0 0 200 110">
  <path d="M107.415 66.445s5.495 5.637 7.5 12.907c2.006 7.27-.752 13.285-4.762 12.282-4.763-2.256-17.478-4.447-20.737-4.196.5-12.784 6.7-20.37 8.204-22.124 1.297-1.514 3.434-.888 3.816-.814-.178-.148-1.312-2.25-2.814-3.698 2.256-20.304 17.797-31.835 17.045-31.584-.752.25-6.518 3.008-6.518 3.008l-8.022 3.26c-8.02 3.257-16.38 2.41-16.38 2.41s0-.458.588-1.158c-3.76-.25-7.77-1.754-10.528-6.518-4.764 4.262-6.004 12.91-3.748 15.416 4.33 3.647 4.842 6.22 7.216 10.924-1.32-1.793-4.138-4.677-7.228-7.04-4.26-3.258-4.26-9.274-1.003-15.79-10.528 8.522-9.776 21.055-4.512 28.074l-4.01 13.786s0-13.285.25-13.535c-18.8 16.544-5.276 36.015-3.27 38.27.037 2.07.995 5.487.995 5.487s.208-2.292.667-3.083c1.52 2.207 4.617 2.44 4.617 2.44s-2.507-1.254-4.01-4.262c-1.505-3.008 1.754-14.54 6.015-17.046-1.504-3.008-1.504-8.02 1.254-11.78 7.02 3.008 6.016 16.04 2.758 19.05 2.507 0 8.95 3.802 9.45 11.07 0 0 .834-2.936.583-4.554 3.402-8.384 15.363-7.817 23.807-5.515 8.444 2.302 10.36.25 15.04-1.754-3.76-22.56-12.262-23.935-12.262-23.935zm-48.4 31.205s-1.252-1.754-2.004-5.013c-.75-3.26.3-8.45 3.51-9.275 1.228 2.388-1.705 7.888-1.504 14.288zm15.542-51.387c.25.25.25-9.525.25-9.525l6.518 4.01.423 6.023c2.506 4.263 2.756 12.027.25 17.04-.25-5.766-3.618-14.956-7.44-17.547zM68.04 67.32v-.753l2.333-.005-2.333-2.752.5-9.525s6.268 2.005 9.777 9.024c1.003 8.27-10.277 4.01-10.277 4.01zm9.895 18.868c.25-2.006-2.938-12.5-5.75-15.25 4.02.42 8.062-2.52 8.396-6.857 0 0 .745 1.234-.007 3.99-.752 2.76-3.76 5.767-3.76 5.767s3.62-2.084 4.122-3.337c.688 4.25-.75 11.61-3 15.688zm2.375 9.374c-1.003-2.005-1.625-8.062-1.625-8.062 3.84-7.688 3.958-15.854 3.438-18.562 3.386-6.896 6.955-15.98 2.458-24.917 0 0 2.26-.764 7.524-1.266 5.263-.5 14.036-6.267 14.036-6.267s-7.52 13.536-9.525 22.81c-1.253 2.256-2.358 3.237-6.118 4.74 2.757 1.506 2.358 3.532 1.856 5.287-.5 1.755-8.283 21.727-12.043 26.238zM32.08 60.938c5.955-3.19 8.668-6.315 8.668-10.413 0-10.17-26.333-29.087-17.25-46.337-8.272 6.266-6.927 18.662-6.927 18.662-7.39 6.556-9.317 14.452-9.693 25.168.5 3.01.5 7.52-4.01 10.78 3.007 2.505 3.007 6.015 3.007 11.53-.33 7.252-.77 18.637 3.51 24.816 3.887 5.616 6.135 7.758 7.397 6.866 1.343-.948-9.03-7.01-9.03-20.45 0-12.266 2.236-17.373 7.9-19.004 7.27 1.504 9.32 20.056 4.056 31.586-1.8.13-4.64-.59-6.02-.86 5.513 4.76 24.524 5.926 29.788-.896 6.08-7.88 5.987-23.97-11.393-31.448zm-5.082-21c7.062 3.375 10.68 7.287 10.68 11.417 0 4.704-5.347 7.667-14.347 6.94C26 54.286 27.666 47.772 27 39.94zm-9.593 18.358C4.62 55.286 11.14 29.218 16.402 25.71c0 0 1.504 13.285 4.01 20.304 3.01 6.766 3.26 14.286-3.007 12.282zm2.507-40.608c5.013 4.762 5.442 27.698 4.94 31.71-2.255-3.01-8.2-26.196-4.94-31.71zM34.998 93.28c-3.368 0-6.312-2.646-6.312-5.905s3.68-6.353 6.688-6.604c-5.333-.416-8.934 2.732-8.934 7.043 0 1.744 1.12 4.312 3.392 6.042-3.02.49-5.464.266-7.917 0 4.833-9.5 4.765-27.287 1.256-30.044 11.242-1.592 20.58 6.732 20.58 15.795-.002 8.083-4.002 13.676-8.752 13.676zM141.915 74.44c0-7.87 5.336-11.63 5.336-11.63s-.66.216-3.918-1.037c-5.264-2.255-5.606-21.022-2.347-27.287-7.27-.25-7.52-11.78-9.525-18.8.25 1.754 1.754 13.787.25 22.06-1.002 6.015-4.26 26.57 1.003 36.345 5.264 9.776 3.008 10.027-2.005 10.53-5.013.5-7.52-3.26-9.024-10.78-4.762-18.55 5.264-33.09 5.765-35.093.5-2.005-2.257-3.505-2.257-10.528 0-6.216.744-7.653 2.757-7.52-.062-.25-.2-1.133-.888-1.945.812-1.875 1.224-4.506 1.312-5.062-1.875 4-3.875 5.885-7.943 12.522-10.527 14.037-16.794 18.8-19.802 32.086 5.264-14.288 15.04-21.056 15.04-21.056l-.5 13.787s-4.01 10.276-7.772 12.783c7.77 0 16.222 27.23 14.103 30.378 6.81-10.114 20.666-9.416 23.75-4.166-1.915-5.113-3.335-7.393-3.335-15.586zm-18.46-50.21c.484.834-1.02 7.46-3.026 9.46-.753-2.313-.335-5.126-.335-5.126.785-1.625 1.84-2.976 3.36-4.333zm15.273 55.625c-7.52-3.76-7.48-21.82-5.813-26.816 2.256 2.256 7.317 20.8 5.813 26.816zm-37.85-15.793s-.037-.01-.098-.02c.096.078.097.02.097.02zm-38.352-3.51c-3.51-3.76-3.51-10.025-3.51-10.025-.5-2.757-.25-10.027 4.262-12.784-4.763-2.756-8.272-16.794-8.272-16.794s.328 4.74-.174 5.742c-1.504 1.003-5.583 3.75-9.417 10.583-1.254-2.506 5.83-18.33 5.83-18.33-1.253 2.257-9.274 17.047-13.034 18.8 1.254 1.254 5.014 6.518 5.014 11.28s-1.003 9.525-4.26 12.784c7.018 3.01 9.525 10.026 10.527 20.305.252-10.53 7.02-20.807 13.036-21.56zM50.744 63.06c-4.512 0-5.013-4.26-4.512-16.042.5-11.782 4.763-16.042 8.773-18.8C56.008 34.482 52.5 41.25 52.5 41.25s2.255 3.76 3.257 10.528c1.003 6.768-2.005 11.03-5.013 11.28zm146.39-4.262c-1.755-.25-3.26-3.258-3.01-10.78-1.504-23.56-9.712-24.578-8.96-25.08.752-.5-.917-15.832-4.417-18 2.507 11.03-10.502 30.186-15.014 33.695 2.256 6.268-.686 17.66-4.947 20.166-2.255-5.766 1.754-8.773.752-10.278-7.52-7.77 1.134-12.532-2.124-12.03-8.27 1.754-12.164-3.85-5.145-10.28-16.043 8.273-15.04 27.323-9.024 34.343-3.51-9.274-2.758-17.186 2.005-20.947 4.012 6.016 2.007 30.973-2.506 32.478 8.773 4.263 3.69 21.482 3.69 21.482s-1.786 3.5 12.25 3.5c14.04 0 23.647-7.125 22.563-8-.77-.622-9.917 4.688-16.5 4.688 3.438-1.875 4-8.204 2.125-11.75.688-1.92 4.188-3.562 4.188-3.562 0 8.25 4.968 11.564 5.52 10.917 1.21-1.417-3.287 1.896-3.287-16.475 0-6.112 2.24-11.442 6.872-11.442 12.083 0 9.667 25.583 5 32.75-2.586 3.97-6.104 5.708-6.104 6.312 0 2.188 7.374-2.58 10.272-10.562 2.912-8.02 2.71-19.033 2.417-22.667-.297-3.633 1.88-5.967 3.383-8.474zM156.31 92.96c4.265-1.612 8.733-6.385 11.603-9.897 1.253 9.776-4.728 10.937-11.603 9.897zm8.188-13.107s1.812 2.085.25 4.01c-1.234 1.52-5.216 5.692-7.438 6.825-1.492.76-3.642 1.77-5.5 1.698 0 0-2.303-9.023 6.72-13.285-7.27-5.263-6.23-22.022-4.474-24.53 1.754-2.505-.31-4.05-.31-4.05s-3.488-5.008-2.736-10.273c3.76 1.254 9.274 15.29 6.517 26.57 3.51-2.757 12.032-12.03 12.032-12.03.575 4.606.27 14.36-.356 19.575-.403 3.367-2.02 4.45-4.706 5.49zm13.667-52.915c3.124-3.844 4.18-8.405 4.167-8.583.592 7.263.248 23.855-7.252 32.25 0 0-.174-19.657 3.085-23.667zm9.694 28.85c-5.014 4.262-9.856 1.83-12.112-3.184 6.69-8.167 8.498-19.145 9.25-27.167 4.01 1.504 7.373 24.587 2.86 30.35z"/>
</svg>
