<svg xmlns="http://www.w3.org/2000/svg" viewBox="0 0 200 102">
  <path d="M102.164 35.458c4.653-.842 8.192-1.452 10.952-2.033.582-.123 1.365-.378 1.017-1.133-.282-.61-.97-1.115-2.12-1.115-2.178 0-5.893 1.12-9.85 4.28z"/>
  <path d="M189.982 62.257c-2.832 3.137-9.194 1.743-9.194-1.917 0-1.842 1.298-4.052 5.883-4.052 4.925 0 9.413 2.105 9.413 7.897 0 5.786-9.52 14.164-27.19 14.164-22.66 0-41.57-16.862-66.15-16.862-17.917 0-35.496 7.262-35.496 18.127 0 1.667.946 4.38 2.104 5.702-6.56-4.894-3.323-19.995 13.177-25.224 5.706-1.808 12.162-3.254 19.87-3.254 26.146 0 55.08 17.03 69.674 17.03 18.598 0 22.805-6.392 22.805-10.696 0-2.804-2.715-5.986-7.71-5.986-4.035 0-5.113 2.115-5.113 3.428 0 2.392 3.768 3.793 7.93 1.64z"/>
  <path d="M72.533 89.724c-1.975-1.975-5.7-8.898 4.648-13.247 5.07-2.13 10.814-2.82 16.59-2.82 21.35 0 30.94 7.468 44.707 7.468 11.27 0 19.928-3.562 19.928-12.898 0-5.64-7.796-13.363-24.518-13.363-12.433 0-35.557 8.25-35.557 27.656 0 13.338 11.446 17.023 19.87 17.023 6.39 0 12.016-3.862 12.016-7.93 0-6.44-9.75-9.093-16.17-4.213 6.768-1.046 8.685 1.162 8.685 4.067 0 2.905-2.914 5.578-9.01 5.578-6.28 0-14.288-5.407-14.288-15.222 0-11.342 12.763-26.03 35.15-26.03 11.37 0 21.787 6.132 21.787 12.434 0 4.55-7.517 8.54-19.4 8.54-8.484 0-23.48-7.363-41.315-7.363-15.716 0-26.668 6.9-26.668 13.407.002 1.51.41 4.706 3.546 6.914z"/>
  <path d="M92.984 32.147c-1.83 2.963-9.848 5.937-17.517 1.14V47.92s-5.36 9.412-17.386 3.486V78.25c0 2.106-2.462 4.924-6.695 4.924-1.98 0-3.262-.73-3.262-2.31 0-1.873 4.402-4.183 8.76-2.788 0-1.86.207-4.644-.27-6.77-1.62-7.235-7.235-15.454-18.62-15.454-12.543 0-17.452 5.113-17.452 10.56 0 5.766 5.454 9.02 11.933 9.02 9.746 0 19.07-4.184 20.596-20.104l.522-.087s.697 21.09-20.83 21.09c-8.104 0-13.16-3.683-13.16-10.37 0-6.26 6.65-11.097 16.647-11.097 13.565 0 19.402 8.866 20.944 15.672v-21.83c1.452 1.67 3.5 3.137 5.723 3.137.97 0 2.18-1.075 2.18-3.726 0-2.404.02-8.84 0-11.207 0-.118-6.8 2.44-6.8 2.44l-.288-.62 22.6-9.024c2.422 2.462 7.497 5.118 12.374 2.44z"/>
  <path d="M194.427 35.97l.407-.22c0 2.235-2.295 7-10.574 3.398L173.685 52.54c-3.355-.334-4.663-1.423-7.06-.697-1.23.373-2.41.886-2.41 3.747 0 9.84 13.915 16.907 29.21 12.462l.392.087s-7.928 3.83-19.13.696c-8.41-2.353-11.546-8.76-11.546-13.072 0-6.362 7.582-7.603 11.563-5.897 0 0 8.918-11.88 9.616-12.49.696-.61 1.945-1.018 3.834-.437 1.083.333 2.208 1.22 3.515 1.046 1.304-.175 2.524-1.51 2.757-2.015z"/>
  <path d="M198 50.1c-3.166.057-4.906.562-6.885.84-3.704.524-5.58 1.245-6.972 1.6l-15.02-12.754s-4.037.872-5.984.58l.23-.667s3.196-.233 5.288-.99c1.415-.51 2.158-1.602 3.988-1.602s3.39-.43 3.39-.43l15.774 13.42s3.152-.638 5.81-.55l.38.55z"/>
  <path d="M43.886 37.812c-4.738-3.05-6.07-4.212-17.702-4.212-11.177 0-23.022 8.454-23.022 20.335 0 6.856 7.843 12.55 14.874 12.55 12.956 0 16.482-5.287 16.482-10.687 0-3.537-2.72-6.975-9.164-6.975-3.486 0-6.098 2.324-3.817 6.296-4.664-.66-6.29-2.81-6.29-5.02 0-2.197 3.254-5.47 11.62-5.47 10.167 0 12.426 5.59 12.426 9.25 0 9.41-8.534 13.65-20.967 13.65C9.272 67.53 2 61.146 2 53.354 2 42.35 12.755 32.67 27.448 32.67c12.07 0 16.558 4.066 18.185 5.81l-1.747-.668z"/>
  <path d="M71.604 35.574c-.73-1.25-1.246-2.435-2.092-3.108-1.973-1.57-3.263-1.9-6.6-1.584-5.286.502-9.203 6.234-9.203 11.43 0 5.81.795 15.223 13.594 15.223 21.962 0 24.246-9.52 26.087-12.666l.64-.26C90.544 54.834 82.7 58.463 64.283 58.463c-8.826 0-24.983-4.887-24.983-15.687 0-4.764 6.754-8.918 10.226-10.458 1.858-.825 13.95-2.093 16.53-2.093 2.933 0 5.037 2.572 5.938 4.782l-.39.564z"/>
  <path d="M46.054 43.94c-8.075 0-14.714-5.224-14.714-14.93 0-10.48 16.162-17.838 46.073-17.838 30.53 0 51.008 12.602 73.787 14.06 20.466 1.31 29.108-.637 29.108-9.95 0-5.403-4.79-9.05-11.8-9.05-3.226 0-6.192 1.505-6.192 3.33 0 4.762 7.463 4.747 10.932 3.236.58 5.96-5.046 8.107-13.857 8.107-26.057 0-40.346-15.08-78.953-15.08-12.7 0-28.59 9.79-28.59 19.523 0 13.072 16.632 15.124 26.146 15.124 10.11 0 18.592-7.234 18.592-12.8 0-4.474-2.818-8.947-14.41-8.947-3.834 0-11.118 1.416-11.118 5.193 0 1.517 2.055 3.058 4.902 3.058 3.98 0 5.635-2.266 5.867-3.776.813 2.382.523 6.042-6.478 6.042-2.65 0-6.712-1.683-6.712-4.822 0-3.6 3.893-7.088 12.49-7.088 9.68 0 16.5 3.118 16.5 9.586 0 6.004-6.506 14.118-21.147 14.118-13.945 0-25.447-5.476-25.447-15.5 0-9.15 9.532-23.08 42.878-23.08 26 0 38.923 16.966 67.712 16.966 6.12 0 10.77-2.11 11.076-5.295-5.842 3.773-14.006.67-14.006-4.233 0-3.02 3.486-4.997 8.932-4.997 10.398 0 14.38 5.68 14.38 11.562 0 5.925-4.802 12.723-27.088 12.723-24.17 0-49.876-14.293-90.636-14.293-20.065 0-31.615 7.402-31.615 13.712 0 8.89 5.586 14.692 14.067 14.692 8.36 0 15.276-1.435 19.8-4.35l.144.63c-5.24 2.74-8.842 4.367-20.622 4.367z"/>
  <rect x="79.444" y="34.122" width=".995" height="22.47"/>
  <path d="M72.504 27.15c-18.62-1.046-22.16-16.442-37.736-16.442-9.847 0-15.164 4.672-15.164 11.155 0 4.474 5.055 9.07 14.575 9.07 8.975 0 12.44-4.53 12.44-8.198 0-4.183-4.608-6.972-9.238-6.972-6.17 0-8.526 2.498-8.526 5.45 0 2.223 1.772 3.963 4.168 3.963 5.708 0 4.378-3.562 4.096-4.14l-.436.305c0 .785.96 2.877-2.963 2.877-2.44 0-3.946-1.365-3.946-3.062 0-2.978 2.924-4.637 6.794-4.637 5.084 0 9.157 2.852 9.157 6.047 0 3.457-2.81 7.403-11.48 7.403-7.037 0-13.404-3.475-13.404-8.102 0-5.585 4.166-10.286 14.51-10.286 11.734 0 23.156 17.484 37.153 15.86v-.29z"/>
  <path d="M109.37 49.286s-2.18.392-5.535 1.612c-2.34.85-5.313 2.844-5.313 2.844l-5.537-3.063v-8.947l16.268-5.055s7.785 2.847 10.458 2.847c2.674 0-1.626 1.278-1.626 1.278v7.785c0 1.22 1.303 1.832 3.312 1.57l-.29.52s-1.714.48-3.37.917c-1.656.436-3.137 1.586-3.137 1.586l-6.043-2.935v-9.093l-6.39-1.938v9.843c0 1.315.673 1.315 1.105 1.168 2.342-.8 6.214-1.752 6.214-1.752l-.117.813z"/>
  <path d="M138.39 31.82c-1.175.407-1.09 1.314-1.09 2.302V50.07s2.6-.35 4.314-.044l.305.697c-3.313.218-6.64 1.355-7.57 2.457-1.51-.99-5.93-3.027-7.556-2.91l-.03-.317c.585-.05 1.022.05 1.022.05V37.2c0-1.4-3.312-5.17-5.52-5.52l.233-.57c.812.28 3.688 1.615 5.14 4.347 2.165-2.73 7.41-3.98 10.75-3.638z"/>
  <path d="M152.508 36.678l6.188 2.44-1.394 1.017V50.2s2.004-.595 4.706-.783v.508c-4.183.842-6.864 2.617-7.233 3.256-1.394-.64-6.188-3.255-6.188-3.255V40.44l-2.353-1.322 6.274-2.44z"/>
  <path d="M151.084 34.993c-1.122 0-4.167-1.775-3.835-2.498.333-.726 2.623-2.04 3.906-2.04 2.79 0 3.69.433 5.208 2.27-.68.738-1.503 2.268-5.28 2.268z"/>
</svg>
