<svg xmlns="http://www.w3.org/2000/svg" viewBox="0 0 200 57">
  <rect x="132.703" y="12.9" width="3.917" height="40.936"/>
  <polygon points="85.271 12.9 45.347 53.836 50.635 53.836 84.749 19.198 84.749 53.836 88.666 53.836 88.666 12.9"/>
  <path d="M195.013 45.83s-2.718 4.554-6.22 4.554c-1.51 0-2.348-.45-3.98-1.93-.99-.898-7.544-7.896-14.37-15.223l19.55-20.33h-5.353l-16.838 17.495c-6.84-7.35-13.267-14.284-13.913-14.948-2.32-2.383-4.05-3.33-6.856-3.33-3.338 0-5.958 1.665-7.954 4.268l2.666 2.587c1.502-1.893 3.028-3.07 4.962-3.07 1.893 0 3.14.965 4.374 2.286.6.642 7.217 7.73 14.013 15.018l-19.856 20.63h5.385l17.113-17.795c6.252 6.71 12.007 12.896 12.61 13.584 2.528 2.886 5.025 4.603 8.08 4.603 4.703 0 7.915-3.156 9.572-6.047l-2.987-2.35z"/>
  <polygon points="89.952 12.088 87.262 9.374 93.04 3.272 95.882 6.094"/>
  <path d="M117.1 53.836H94.41V12.9h3.918v37.02h18.934c3.5 0 5.68-2.22 5.68-6.79h3.72v2.22c.002 3.948-3.034 8.486-9.563 8.486z"/>
  <path d="M43.36 40.256c-3.84 5.403-10.638 9.27-17.846 9.27-10.596 0-18.802-8.56-18.802-18.835 0-9.433 9.073-18.9 19.668-18.9 7.152 0 13.143 4.095 16.442 9.722l3.977-2.46C43.29 13.323 35.89 7.284 26.137 7.284 14.11 7.285 2 18.382 2 30.69c0 13.504 9.45 23.407 24.138 23.407 8.816 0 15.145-4.276 21.197-11.28l-3.976-2.56z"/>
</svg>
