<!--
  SVG Music Logos
  Chakal - Abominable Anno Domini v0.1.0
  https://github.com/tiagoporto/svg-music-logos
  Copyright (c) 2016-2018 Tiago Porto (http://tiagoporto.com)
-->
<svg xmlns="http://www.w3.org/2000/svg" viewBox="0 0 200 90">
  <path d="M126.607 41.904c.196.098.51.69.27.81s-.93-.06-.93-.405c0-.346.18-.646.66-.406z"/>
  <path d="M169.592 69.467c-.48.2-.55.652-.418 1.1.15.51.502.942 1.06.82.98-.215.98-1.22.786-1.795-.194-.573-1.16-.238-1.428-.125zm1.753-.306c.51-.07.927-.75.217-1.567-.095-.11-.202-.207-.29-.322-.48-.632-.4-1.078.262-1.503 1.388-.89 1.633-2.266.68-3.57-.354-.487-.737-.84-1.34-1-.525-.142-.858-.76-.622-1.06.318-.4.785-.194 1.156.017.097.055.185.143.25.235.535.76 1.252.81 2.075.582.787-.217.93-.136 1.067.63.096.54.328.898.87 1.06.242.073.485.196.683.353.343.27.65.22.925-.055.704-.707 1.586-.98 2.534-1.193 1.48-.333 1.473-.375 2.296.895.398.614.765.635 1.16.012.244-.387.513-.667.972-.465.804.353 1.73.452 2.346 1.212.35.43.792.558 1.376.243.732-.396 1.13-.197 1.683.5.472.596 1.195 1.696 1.593 1.632.398-.064.217-.64.258-.95.072-.562.43-.878.69-.945.28-.07.606.32.894.51.168.11.212.4.332.595.364.6 1.222.804 1.815.426.17-.108.313-.254.468-.383.668-.555 1.334-.95 2.28-.55.616.262 1.12-.278 1.008-.957-.227-1.382-1.76-2.76-3.155-2.837-.527-.03-1.03-.076-1.312-.644-.447-.9-1.23-1.505-2.128-1.8-.847-.276-1.294-.646-1.17-1.558.006-.035.155-.21-.222-.25-.377-.04-.31.438-.292.61.066.616-.26.732-.77.76-.395.024-.814.064-1.174.214-1.022.426-1.395.366-1.988-.587-.335-.538-.703-.95-1.352-1.102-.226-.053-.465-.26-.597-.464-.38-.583-.672-1.225-1.565-1.084-.14.022-.357-.18-.48-.33-.433-.523-.706-.343-1.08.11-.274.33-.696.648-1.102.735-1.207.26-2.422.344-3.292-.83-.084-.115-.21-.198-.316-.295-.41-.37-.798-.404-1.33-.142-.392.193-.926.197-1.38.142-.507-.062-.99-.298-1.49-.436-.69-.19-1.207-.63-1.44-1.27-.34-.927-.922-1.796-.738-2.886.055-.326-.104-.772-.317-1.045-.853-1.096-.72-2.12.086-3.15.16-.204.36-.407.426-.644.068-.245.103-.644-.036-.774-.732-.683-.576-1.35-.11-2.076.187-.29.33-.608.477-.92.47-1 .853-1.085 1.776-.44.294.206.66.442.99.437.777-.01 1.292.376 1.812.86.287.265.626.52.988.65.47.17.947.035 1.178-.452.254-.532-.086-.882-.51-1.13-.218-.126-.48-.23-.728-.24-1.503-.073-2.75-.79-3.986-1.538-.167-.1-.335-.24-.44-.402-.603-.94-1.24-1.863-1.762-2.846-.36-.676-.72-1.425-.786-2.167-.142-1.562-.63-2.89-1.8-3.97-.215-.2-.293-.618-.317-.945-.047-.66-.064-1.33.005-1.986.043-.405.156-.997.432-1.147.786-.428 1.153-1.183 1.705-1.79.27-.298.642-.595.31-1.035-.313-.412-.744-.407-1.152-.12-.452.318-.84.273-1.233-.112-.387-.38-.62-.81-.328-1.308.3-.51.1-.84-.212-1.233-.315-.4-.64-.836-.786-1.31-.097-.314-.207-1.153.19-1.226.4-.072.632.42.923.603.282.178.53.412.836.657.34-.647.266-1.084-.098-1.436-.72-.697-1.437-1.405-2.218-2.03-.703-.565-1.136-1.4-.702-1.8.7-.643 1.565-1.095 2.538-1.082.326.004.626.453.978.61.25.11.63.355.854.095.222-.26.03-.647-.054-.942-.042-.148-.3-.255-.478-.34-.84-.4-1.657-.343-2.485.082-.943.484-1.836.586-2.842-.053-1.158-.737-1.65-1.886-2.234-2.987-.29-.545-.59-.894-1.244-.84-.68.056-1.066-.34-1.3-.927-.117-.294-.156-.654-.355-.87-.175-.19-.54-.32-.79-.28-.137.023-.356.517-.282.685.203.456.55.847.826 1.274.242.374.546.738.672 1.153.148.488-.462 1.427-.958 1.61-.56.205-.915-.115-1.264-.502-.417-.462-.804-1.022-1.59-.757-.11.038-.302-.025-.402-.107-.945-.78-1.965-1.497-2.79-2.39-.79-.855-1.372-1.08-2.368-.397-.222.15-.465.513-.427.73.035.203.412.4.676.496.426.154.93.135 1.316.346.876.48 1.69 1.073 2.55 1.582.925.546 1.71 1.265 2.87 1.486 1.34.256 1.942 1.373 1.792 2.725-.087.785.067 1.464.52 2.12.393.565.697 1.192 1.022 1.8.254.477.186.935-.097 1.392-.79 1.276-2.1 1.44-3.197.387-.186-.18-.947-1.048-1.435-.436-.21.264.056.57.21.734.704.752 1.512 1.357 2.623 1.277.66-.048 1.06.233 1.385.8.352.616.585.6 1.03.076.528-.622 1.036-.622 1.546.022.502.635.764 1.368.662 2.176-.035.276-.215.707-.42.75-1.005.205-1.538-1.11-2.032-.69-.35.297-.342.533-.304.85.027.22.35.58.596.72 1.275.723 1.078.93 1.628 1.38.174.144.364.293.572.362.582.19.838.6.82 1.176-.02.615-.456.807-.99.877-.483.062-.892.227-.973.92.048.03.156.077.25.146.38.28 1.128.275.923 1.028-.175.645-.777.452-1.24.51-.71.086-1.156.674-1.017 1.33.127.593.492.754.995.427.242-.156.452-.37.706-.495.363-.178.81-.37 1.065.11.242.45.03.826-.42 1.068-.235.126-.833.13-.826.513.007.383.316.48.902.564.586.083.44.433.4.573-.078.282-.363.556-.632.723-.498.308-1.027.245-1.57.008-.543-.238-.95.125-1.27.496-.14.16-.244.566-.152.67.185.208.536.424.786.392 1.07-.14 2.182.015 3.202-.57.698-.398 1.276-.022 1.304.79.025.716-.008 1.452-.16 2.147-.08.376-.4.768-.72 1.01-.504.385-.938.155-1.048-.473-.047-.27.257-.616-.205-.842-.46-.227-.667.326-.85.682-.397.764-.713.866-1.54.667-1.357-.326-2.72-.617-4.086-.904-.676-.142-.907-.49-.617-1.105.256-.545.57-1.065.88-1.582.228-.38.26-.78-.15-.955-.232-.098-.658.032-.882.206-.257.2-.386.562-.572.852-.373.582-.727 1.177-1.127 1.74-.407.572-1.138.534-1.475-.086-.713-1.312-1.5-2.61-1.19-4.22.043-.22.02-.46 0-.69-.053-.677.064-1.29.414-1.9.5-.875.1-1.46 1.04-2.112.18-.124 1.533-.238 1.645-1.06.03-.234-.342-.484-.57-.535-.24-.053-.542.093-.794.204-.55.242-1.068.563-1.63.77-.97.353-1.738-.004-2.216-.928-.502-.972-.99-1.954-1.553-2.89-.465-.776-.473-1.503.125-2.144.742-.796 1.505-1.73 2.156-2.132.65-.403 1.1-.86.855-1.175s-.548-.107-.77-.022c-.253.098-.435.367-.668.535-.63.452-1.237.948-1.915 1.31-.394.212-.954.238-1.204-.298-.22-.473.05-.796.474-1.055.64-.39.632-.62.14-1.207-.367-.436-.73-.89-.996-1.39-.386-.72-.262-1.136.38-1.652.338-.27.73-.477 1.038-.774.602-.58.447-1.234-.327-1.56-.61-.258-1.04.006-1.44.45-.62.69-1.058.693-1.76.086-.302-.26-.584-.59-.963-.716-.665-.22-.685-.736-.404-1.324.21-.44.446-1.02.6-1.482.34-1.018.89-1.575 1.396-2.404.348-.572.286-1.073-.113-1.592-.38-.495-.75-.825-1.45-.555-1.082.416-2.197.75-3.294 1.128-.65.224-1.34-.062-1.298-.677.054-.81-.293-1.426-.627-2.082-.53-1.042-1.098-2.024-.886-3.326.132-.812-.998-1.034-1.255-.838-.384.293.42.922.403 1.374-.02.608-.56.647-.99 1.036-.243.22.045 1.21-.51 1.27-.222.023-.654-.292-.86-.473-.233-.205-.39-.52-.65-.67-.172-.097-.49-.212-.73-.044s-.04.582.07.7c.265.282.596.526.942.706.646.337 1.18.927 1.197 1.394.01.28-.643.696-.603 1.08s1.233.626 2.43 2.008c.205.237.42.535.333.965-.18.88-1.637-.04-1.797.53-.23.822.92.906 1.22 1 .985.302 1.206 1.063.558 1.84-.155.185-.386.49-.327.64.134.34.274.55.234.873-.045.375-.427.818-.346 1.234.154.79-.36.993-1.13.856-1.037-.184-1.54.35-1.302 1.378.137.59.587.796 1.06.434.446-.34.938-.606 1.38-.223.44.382.592.99.378 1.61-.125.363-.17.78-.138 1.165.07.883-.126 1.326-1.032 1.17-.348-.06-.964.157-1.12.426-.265.454.325.82.69.98.91.396.847 1.08.345 1.748-.564.75-.99 1.496-1.013 2.496-.02.91-.693 1.142-1.444.604-.468-.335-.926-.697-1.407-1-2.72-1.71-3.954-1.687-4.447-2.213-.33-.353-.78-.113-.916.153-.087.17-.158.494-.08.697.2.53.53.84 1.203.62.308-.1.763-.034 1.05.13 1.293.743 2.6 1.477 3.8 2.356.673.496 1.228 1.214 1.682 1.93.502.79.294 1.422-.41 2.045-.19.17-.36.37-.5.584-.217.326-.317.802-.853.703-.5-.093-.835-.417-.904-.927-.196-1.44-1.168-2.015-2.45-2.294-.877-.19-1.05-.09-1.168.813-.112.868-.31 1.118-1.154 1.035-1.016-.1-1.814.125-2.363 1.024-.057.095-.15.174-.242.244-.377.29-.77.396-1.18.064-.423-.34-.4-.727-.113-1.14.066-.094.16-.19.174-.294.023-.187.07-.463-.03-.552-.138-.126-.413-.185-.606-.148-.21.04-.42.195-.583.35-.513.49-1.04.44-1.56.05-1.042-.78-1.792-1.79-2.16-3.04-.165-.563-.424-.967-.944-1.265-.263-.15-.527-.484-.583-.774-.15-.788.007-1.54.52-2.203.323-.42.683-.48 1.133-.258.487.238.552.63.385 1.09-.077.214-.265.403-.29.618-.025.196.05.462.18.6.1.102.396.125.544.055.69-.328.945-1.746.443-2.33-.28-.33-.613-.625-.833-.99-.12-.2-.744-.786-.188-1.04.265-.123.63.176.81.277.64.362 1.07.103 1.52-.35.53-.53.452-1.13.36-1.773-.073-.507-.172-1.04-.092-1.533.12-.746.796-1.036 1.345-.657.722.5 1.42 1.04 2.162 1.508.193.122.613.155.745.032.15-.14.17-.52.11-.76-.06-.23-.304-.41-.445-.627-.458-.704-.465-1.314-.055-1.845.5-.647 1.05-.396 1.62-.12.413.2.883.307 1.126-.2.225-.466-.23-.633-.54-.83-.05-.03-.1-.058-.148-.088-.944-.582-1.018-.772-.497-1.718.278-.507.27-.97.056-1.484-.32-.77-.563-1.575-.918-2.327-.12-.253-.46-.507-.736-.554-.538-.092-.98-.216-1.307-.71-.108-.165-.495-.257-.722-.213-1.364.267-2.24 1.163-2.442 2.525-.127.853-.63 1.333-1.38 1.612-1.03.382-1.09.405-1.075 1.455.01.65-.212 1.143-.76 1.443-1.033.568-1.534 1.518-1.95 2.55-.393.97-.726 1.132-1.73.88-.167-.042-.356-.137-.502-.094-.27.078-.664.184-.74.38-.15.398.112.725.534.827.248.06.517.03.773.06.62.078.894.483.754 1.097-.18.788-1.103 1.04-1.892.486-.253-.178-.413-.486-.662-.673-.207-.156-.473-.34-.726-.33s-.282.526-.252.767c.052.417.197.838.384 1.217.228.464.19.897-.193 1.167-.676.477-1.374.993-2.144 1.242-.628.203-.993.357-.86 1.067.02.106-.01.23-.044.34-.207.645-.087 1.044.69 1.13.52.06.83.406.72.977-.145.747-.95 1.195-1.653.9-1.053-.44-2.043-.956-2.3-2.235-.073-.364-.19-.733-.362-1.06-.49-.93-.254-1.686.406-2.437.535-.608.424-.77-.098-1.476-.305-.413-.51-.963-.575-1.474-.084-.674.198-.847.866-.844.277 0 .686-.062.803-.244.242-.378-.025-.717-.38-.917-.448-.25-.595-.64-.49-1.095.16-.675-.197-.947-.708-1.285-.632-.42-1.177-.985-1.703-1.54-.403-.426-.448-.91.024-1.377.145-.144.31-.487.243-.59-.36-.545-.726-1.13-1.23-1.513-.225-.17-.837-.006-1.177.18-.884.486-1.68.395-2.394-.242-.555-.495-1.044-1.067-1.54-1.624-.275-.306-.592-.574-.956-.276-.417.34-.063.683.17.958.353.417.746.8 1.116 1.204.574.626.49 1.03-.27 1.376-.197.09-.573-.13-.602.332s.54.725.89.787c1.032.182.902.413.703 1.26-.235 1-.328 1.985.24 2.927.222.37.392.77.57 1.163.37.814.004 1.41-.888 1.34-.472-.036-.928-.268-1.39-.412-.3-.093-.597-.253-.896-.254-.21-.002-.54.17-.6.343-.06.17.09.53.257.638.304.195.68.318 1.04.37.654.096 1.323.087 1.98.178 1.11.154 1.523.687 1.48 1.797-.03.848.09 1.65.592 2.384.37.54.24.897-.352 1.176-.31.146-.673.186-.972.348-.202.11-.47.35-.466.527.005.238.195.592.396.674.282.115.663.088.974.01.858-.21 1.186 0 1.246.88.018.26.01.52.036.778.124 1.26.005 1.482-1.183 1.925-.343.128-.733.128-1.087.236-.317.097-.677.198-.894.42-.143.144-.262.573-.083.77.18.2.515.033.764-.007.125-.02.23-.164.344-.254.39-.313.89-.407 1.263-.05.36.347.192.79-.104 1.135-.47.543-.966 1.062-1.44 1.6-.226.258-.47.513-.63.81-.31.574-.22 1.282.178 1.387.652.172.676-.434.893-.81.37-.642.552-1.25.995-1.84.12-.158.798-.397 1.014-.315.168.062.28.574.247.77-.096.56-.295 1.103-.456 1.65-.14.48-.356.95-.41 1.44-.076.678-.215 1.213-.963 1.467-.246.084-.613.464-.625.74-.015.354.494.523.746.508.712-.043.726.393.767.87.024.287.05.575.066.862.046.9-.447 1.36-1.325 1.162-.314-.07-.607-.3-.873-.504-.41-.316-.816-.4-1.277-.135-.42.243-.848.474-1.267.72-.577.336-.653 1.153-.087 1.398.65.28 1.155-.063 2.04.62.112.087.392-.128.492-.27.643-.91 1.68-.95 2.61-1.17.658-.153.98.155 1.015.837.016.306-.017.654-.15.922-.395.786-.566 1.704-1.32 2.29-.13.1-.15.336-.234.542.22.095.367.192.53.227.57.122.72.49.488.96-.36.733-.015 1.325.245 1.978.223.012.42.02.618.035.8.058 1.053.51.698 1.232-.235.477-.628.65-1.137.6-.23-.024-.462-.105-.684-.082-.178.018-.465.13-.488.244-.036.184.05.453.184.595.17.18.435.268.66.396 1.037.593 1.284 1.698.525 2.6-.367.436-.796.838-1.26 1.177-.668.49-.72 1.12-.385 1.162.333.043.73-.33 1.077-.53.357-.205.702-.457 1.1-.12.626.53 1.49.825 1.864 1.606.106.223.506.51.865.347s.182-.714.088-.854c-.56-.832-.012-1.502.284-2.18.112-.258.503-.557.75-.544.252.013.592.345.703.615.357.874.618 1.787.932 2.68.128.363.325.756.79.595.486-.167.46-.613.324-1.023-.062-.187-.225-.34-.292-.526-.232-.64-.55-1.276-.638-1.94-.183-1.367-.267-2.74-.873-4.018-.103-.218-.053-.586.064-.815.233-.456.144-.77-.138-1.18-.22-.317-.41-.844-.295-1.163.253-.704.223-1.224-.267-1.82-.48-.586-.136-1.2.624-1.277.646-.066 1.755.57 1.925 1.21.23.87.8 1.444 1.45 1.985.337.28.773.493 1.08.147.264-.3.498-.84.408-1.185-.13-.492-.483-1.014-.89-1.327-.81-.62-1.222-1.316-1.095-2.36.112-.917-.202-1.63-1.044-2.19-.86-.574-1.724-1.344-1.33-2.554.474-1.457-.05-2.703-.495-4.03-.474-1.417-.302-2.074 1.385-1.915.23.02.468-.057.69-.015.178.034.458.148.486.273.26 1.152 1.248 2.154.55 3.51-.477.93-.2 1.717.494 2.348.318.29.613.277.92.016.548-.465.9-1.71.64-2.394-.293-.78-.612-1.55-.948-2.313-.482-1.094-.344-1.916.534-2.357.236-.12.366-.574.303-.803-.063-.226-.422-.39-.676-.535-.108-.062-.283.002-.426-.01-.748-.07-1.056-.558-.678-1.185.29-.48.794-1.352 1.047-1.323.253.028.98.753 1.456.667.477-.087.3-1.003.047-1.462-.192-.35-.403-.715-.474-1.097-.137-.732.334-1.104 1.027-.86.57.2 1.1.54 1.178 1.158.136 1.065.554 2.127.116 3.23-.08.203-.18.52.144.762s.5-.09.675-.23c.314-.25.6-.463 1.003-.228.482.282.947 1.728.684 2.23-.228.435-.26.827.084 1.192.516.55.626 1.21.587 1.924-.045.808.335 2.083.695 2.205.36.122.588-.325.76-.42.55-.3.858-.146 1.127.43.65 1.396.33 1.275-.593 1.664-.234.1-.605.226-.657.49-.05.266.25.483.34.516.396.146.752-.157.902-.362.637-.87 1.014-.32 1.357.494.368.873.714 1.757 1.04 2.647.296.814.114 1.34-.58 1.896-.74.595-1.476 1.197-2.21 1.798-.33.27-.633.59-.345 1.026.26.393.658.362 1.083.206.87-.32 1.27-.187 1.707.606.332.602.632 1.23.868 1.876.112.307.093.595-.086.798-.337.383-.84.224-1.013.368-.346.285-.288.815-.35 1.205-.033.197-.024.55.298.655.322.106.576-.29.818-.49.29-.24.614-.683 1.035-.41.404.26.356.768.18 1.172-.213.487-.14.915.224 1.27.698.683 1.296 1.397 1.118 2.473-.013.076.046.164.075.245.362 1.024.75 2.04 1.08 3.074.404 1.265.455 2.535-.078 3.794-.083.193-.116.478-.034.658.662 1.447-.07 2.613-.988 3.477-.885.83-.978 1.61-.62 2.6.08.22.103.573.447.578.344.005.448-.336.553-.56.206-.44.3-.93.49-1.378.183-.43.423-.908 1.01-.69.565.207.476.723.38 1.185-.105.505-.238 1.004-.352 1.507-.292 1.294-1.35 2.242-2.554 2.144-.543-.044-1.016-.63-1.476-.66s-.62.568-.555.72c.265.62.51 1.36 1.006 1.734.53.4.97.737 1.174 1.386.06.194.36.44.54.434.196-.008.468-.254.542-.456.07-.192-.02-.492-.135-.688-.11-.186-.37-.276-.516-.45-.318-.377-.177-.795.288-.928.893-.254 2.538.37 3.013 1.143.415.675-.007 1.467-.796 1.484-.2.004-.433-.095-.594-.022-.202.09-.478.31-.48.475-.003.175.255.394.448.517.123.078.336.025.508.017.66-.03.944.327.98.94.015.23.114.262-.17 1.06-.282.798 1.45.392 1.406-.368s.166-1.202.758-1.51c.597-.31.594-.67.27-1.186-.267-.423-.7-.963-.107-1.365.623-.422.982.168 1.3.612.567.792 1.095 1.615 1.692 2.384.15.193.598.39.743.305.41-.242.143-.604-.043-.888-.518-.795-1.052-1.58-1.58-2.37-.35-.52-.32-.92.27-1.292.268-.17.583-.59.548-.853-.07-.51-.612-.348-.993-.428-.363-.077-.777-.212-1.028-.462-.785-.78-1.154-1.745-.757-2.833.166-.455.245-1.048.847-1.227.502-.15.62-.698.69-1.228.06-.435.284-.853.462-1.266.293-.678.567-1.37.926-2.012.576-1.03.467-1.913-.32-2.793-.18-.202-.176-.665-.108-.975.39-1.783-.36-3.726-1.91-4.72-1.063-.683-2.008-1.455-2.45-2.69-.098-.27-.23-.682-.274-.962-.12-.782.017-.794.79-.97.643-.146.89-.55.69-1.125-.232-.66-.706-.802-1.272-.375-.18.136-.178.4-.605.5-.426.102-.468-.437-.63-.683-.38-.574-.728-1.17-1.074-1.764-.326-.56-.172-.95.447-1.097.246-.06.528-.095.766-.034 1.34.345 2.634.832 3.65 1.808.248.237.346.714.362 1.086.02.45-.12.91-.195 1.364-.152.93.423 1.533 1.032 2.054.19.163.833.206.967-.08.133-.287-.676-1.285-.572-2.475.045-.52.183-.928.767-.934.546-.006.756.408.762.87.008.63.02 1.284-.134 1.885-.13.504-.178.914.072 1.39.167.318.175.717.275 1.074.083.297.147.62.312.87.098.147.387.254.572.23.122-.016.26-.285.3-.46.05-.22.005-.458.003-.69-.01-1.12.023-2.244-.047-3.36-.03-.498-.21-1.01-.425-1.466-.247-.53-.334-1.017-.13-1.577.126-.347.328-.73.24-1.092-.17-.69.52-1.275.717-1.648.247-.47.03-.93.217-1.424.208-.55.574-.663.84-1.194.334-.664-.164-1.425.482-2.39.085-.13.02-.42-.075-.575-.723-1.196-.25-2.348.142-3.482.07-.203.515-.448.724-.4.583.133 1.16.36 1.682.65.233.13.447.49.47.764.08.94.086 1.888.09 2.833.002.45-.213 1.083.324 1.203.63.14.642-.597.69-.98.097-.787.123-1.603.02-2.386-.12-.9-.087-1.17.52-1.276.944-.163 1.65.215 1.688 1.006.038.802-.06 1.61-.102 2.415-.01.202-.093.42-.037.6.068.218.078.522.377.604s.393-.21.538-.363c.39-.41.7-.907 1.133-1.26.727-.593 1.325-.444 1.748.384.34.666.682 1.342.91 2.05.113.344-.03.77-.055 1.16-.032.497-.146 1.007-.072 1.487.11.705.495 1.392.503 2.08.033 2.813-.942 2.825-.875 3.492.035.342.44.17.56.123.912-.345 1.238-.173 1.412.806.354 1.995-.07 3.892-.762 5.75-.08.214-.174.423-.25.638-.017.047.015.11.03.202.335.293.61.15.842-.165.136-.185.227-.403.364-.587.426-.573 1.078-.514 1.347.134.396.956.8 1.91 1.125 2.89.12.36.122.823.002 1.18-.31.918-.095 1.66.46 2.417.746 1.02.465 1.646-.786 1.937-.308.072-.627.112-.924.218-.396.14-.797.357-.572.872.195.446.603.622 1.078.46.24-.083.455-.245.665-.394.42-.3.844-.543 1.335-.17.458.35.54.925.248 1.545-.06.128-.107.262-.18.442 1.685 1.375 1.84 3.5 2.61 5.328.135.322.166.766.06 1.096-.215.68 0 1.173.442 1.646.256.273.45.62.742.838.81.608 1.08 1.12.594 2.254-.263.614.437 1.48 1.128 1.375.585-.088 1.168-1.075 1.122-1.375-.1-.655-.31-.558-.536-.755-.47-.41-.6-.897-.47-1.477.083-.365.122-.757.284-1.085.477-.965.26-1.748-.587-2.337-.983-.685-.8-1.99.08-2.547.922-.584 1.153-1.475.897-2.405-.278-1.01-.734-1.98-1.212-2.92-.43-.84-.517-1.63-.073-2.468.367-.693.328-1.35-.043-2.057-.18-.344-.315-.947-.137-1.2.58-.83.453-1.54-.04-2.313-.197-.312-.354-.67-.437-1.03-.106-.456-.286-1.002-.13-1.386.215-.53.742-.12 1.146-.08.197.02.54-.07.585-.194.07-.195 0-.5-.12-.684-.115-.172-.367-.264-.572-.36-.547-.26-1.113-.48-1.65-.758-1.215-.633-1.403-1.06-.96-2.367.184-.543.062-.955-.278-1.35-.17-.195-.357-.375-.546-.554-.836-.793-1.146-1.85-1.397-2.914-.056-.238.11-.63.306-.784.116-.092.527.084.734.237.222.164.324.49.545.658.2.154.51.287.734.24.14-.03.288-.41.287-.63 0-.76-.354-1.376-.897-1.898-.423-.406-.534-.8.043-1.202.51-.354.397-.78.03-1.17-.175-.19-.398-.334-.58-.52-.778-.795-1.322-1.713-1.084-2.862.083-.4.382-1.042.72-1.198.294-.135.86.19 1.163.42.344.26.54.726.782 1.113.198.316.308.718.572.95.208.186.432.346.898.25.466-.098.096-.566.07-.84-.03-.334-.485-.776-.205-1.193.28-.417.84.227 1.108.345.41.18.606.51.754 1.09.15.59.492 1.026 1.11 1.025.515 0 .945-.422.845-.906-.22-1.07.345-1.882.66-2.79.167-.478.392-.774.917-.706.516.067.672.493.624.893-.12 1 .02 1.937.333 2.89.22.662-.05 1.23-.763 1.27-.143.007-.434-.12-.554-.13-.227-.02-.493.073-.517.477-.042.704.924.383 1.055.358.49-.092.73.256.808.46.127.33.11.825-.063 1.124-.144.247-.614.453-.92.43-1.223-.09-1.296-.08-1.587 1.188-.092.4-.245.654-.688.77-.862.227-1.132.574-.472 1.192.564.527.293 1.062-.217 1.203-.706.195-.948-.045-1.36.02-.277.042-.692-.05-.81.268s.413.52.678.613c.4.14.856.1 1.278.184.524.105.96.392.9.982-.073.728.25 1.153.785 1.588.805.654.81 1.096.138 1.895-.295.35-.706.604-.977.967-.153.206-.26.626-.152.807.227.378.65.345.974.063.187-.163.3-.412.443-.625.385-.578.965-.69 1.322-.09.17.29.254.758.402 1.065.308.64.577 1.32 1.01 1.867.378.473.544.874.232 1.392-.347.572-.168 1.035.226 1.49.41.47.922.45 1.426.264.314-.116.59-.345.868-.546.663-.482 1.27-.41 1.668.3.234.425.418 1.543.927 1.473zm-63.953-21.07c.153-.084.51-.046.618.078.612.707.937 1.04.937 1.338 0 .297-.35.62-.56.71-.152.064-.518-.094-.626-.26-.258-.396-.458-.844-.6-1.297-.05-.16.087-.487.232-.57zM120.78 36.92c-.27-.09-.902-1.202-.12-1.172.394.015.66.33.63.72-.03.39-.24.542-.51.452zM132.35 49.39c-.31.287-.818.103-.743.744.037.33.457.686.487 1.11.03.422-.53.994-.904 1.338-.194.178-.77.197-.988.037-.4-.294-.768-.76-.546-1.334.128-.334.185-.89.507-.994.72-.235 1.397-.608.653-.9-1.07-.422-1.703-.757-2.846-1.02-1.33-.303-2.393-1.97-2.312-3.415.04-.728-.105-1.325-.648-1.778-.906-.755-1.288-1.816-1.746-2.835-.26-.58-.118-.933.44-1.18.315-.14.618-.344.947-.403.33-.06.602-.49 1.06-.05.407.39.037.813-.066 1.127-.114.347-.385.644-.587.963.063.075-.15.223.19.226s.71-.368 1.055-.57c.893-.53 1.39-.407 1.907.487.187.324.35.663.554.976.378.583.753.566 1.072-.053.117-.227.163-.49.253-.733.228-.608.63-.726 1.113-.304.494.432.757 1.004.518 1.628-.417 1.087-.924 2.125-2.235 2.422-.446.1-.902.27-.918.92.12.078.25.226.396.246.682.092 1.04.418 1.19 1.13.058.27.58.455.908.647.337.198.78.285 1.017.56.172.198.584.713.27 1.006zm10.36-33.146c.337 0 .76.39.757.81-.005.42.042.55-.44.55s-.74-.455-.82-.744c-.043-.147.167-.616.503-.616zm-.488 10.572c.567-.062 1.1.617 1.123 1.383.016.583-.274.948-.75.94-.626-.007-.948-.434-.96-1.33.054-.37-.077-.922.587-.994zm3.37 11.586c-.053.32-.41.78-.63.782-.44.004-.954-.177-1.297-.455-.187-.153-.15-.672-.092-1.003.047-.264.354-.478.412-.743.08-.372.13-.8.014-1.146-.067-.203-.486-.404-.736-.39-.173.008-.403.364-.467.603-.07.263.12.607.022.845-.163.398-.39.864-.73 1.06-.21.12-.778-.108-1.01-.35-.493-.514-.86-.698-1.4-.063-.136.158-.608.18-.836.074-.51-.238-.936-.657-.83-1.28.053-.32.275-.69.535-.883.36-.27 1.124-.104 1.108-.738-.01-.362-.457-.722-.727-1.068-.543-.696-.56-1.084.04-1.752.382-.426.81-.817 1.246-1.19.504-.43.89-.34 1.11.308.143.424.146.898.188 1.35.02.227-.09.502.003.678.156.292.312.828.652.776.34-.052.546-.563.573-.866.042-.47-.2-.96-.197-1.44.003-.524.083-1.072.265-1.558.07-.186.552-.365.78-.303.227.06.545.444.524.658-.184 1.196.477 1.685.732 2.52.424 1.387 1.023 3.88.747 5.574zm7.372 12.116c-.36 0-1.06-.676-1.036-1.014.023-.338.34-.59.653-.54.378.058 1.014.292.97.607s-.227.948-.587.948zm.126-2.794c-.253.014-.61-.243-.77-.485-.373-.565-.676-1.18-.96-1.796-.092-.204-.12-.518-.023-.702.07-.135.452-.254.588-.18.432.234.924.487 1.185.872.29.427.557 1.25.557 1.67 0 .417-.37.608-.578.62z"/>
  <path d="M71.762 57.09c.467.09.817-.016.874-.54.05-.468-.213-.685-.672-.685-.583 0-.91.072-1.04.305-.133.234.352.828.838.92zm-33.73-9.6c-.206-.24-.418-.48-.593-.742-.368-.553-.265-1.166.24-1.418.646-.323.853.094 1.058.607.076.19.36.413.548.41.205-.002.473-.206.595-.398.29-.46.066-.866-.217-1.267-.52-.734-.324-1.3.514-1.592 1.116-.39 1.314-.784.277-1.375-.718-.41-.583-1.115-.447-1.372.16-.303.584-.567.946-.593.745-.055 1.59.806 1.592 1.584.005 1.16.692 2.06 1.094 3.064.06.153.502.322.62.248.192-.122.323-.426.366-.673.028-.164-.157-.358-.223-.547-.222-.64-.49-1.272-.62-1.93-.053-.26-.175-1.077.37-1.07.543.01.514.543.658.795.407.713.568.803 1.284.488.672-.296.81-.52 1.053.15.146.397.384 1.142.383 1.563-.002.834-.082 1.667-.14 2.5-.033.48.146 1.378.538 1.435.392.056.265-.7.33-1.02.176-.873.42-1.738.505-2.622.053-.56.42-.716.646-.724.215-.01.48.467.643.698.152.215-.04.577.284.794.507.34 1.115-.675 1.543-.495.323.136.337.93.406 1.12.383 1.03.21 2.23.444 3.315.207.953-.01 1.662-.652 2.364-.25.273-.438.808-.353 1.15.38 1.53.884 3.028 1.31 4.547.1.35.187.773.08 1.095-.323.97-.113 1.716.63 2.41.227.214.366.697.304 1.01-.14.698-.385 1.387-.67 2.043-.344.785-.896.89-1.597.42-.452-.303-.91-.62-1.406-.83-.268-.114-.645-.083-.933.008-.14.045-.322.477-.258.562.21.276.493.55.807.68.416.173.917.146 1.33.325.482.21.944.588.776 1.194-.152.543-.4 1.092-.73 1.55-.72 1.003-.75.995.307 1.54.667.346.712.738.067 1.112-.49.284-.72.67-.902 1.19-.126.358-.483.672-.807.91-.267.196-.646.234-.96.374-.36.16-.82.288-.636.844.14.428.673.55 1.17.302.877-.436 1.766-.85 2.622-1.322.272-.15.45-.467.682-.695.252-.247.486-.622.785-.692 1.07-.248 1.96.67 1.868 1.762-.033.39.11.81.244 1.192.09.26.484.214.527.04.095-.39.32-.784.294-1.168-.045-.657.146-1.09.714-1.436 1.05-.642 2.073-1.33 3.097-2.014.614-.41.836-.92.527-1.263-.427-.473-.83-.15-1.206.13-.315.23-.594.193-.82-.12-.44-.61-.183-1.68.492-1.997 1.002-.468 2.035-.8 3.17-.68.223.023.494.024.674-.08.224-.132.498-.37.525-.59.026-.213-.184-.6-.377-.67-.748-.268-1.027-.754-.978-1.52.024-.378-.154-.754-.59-.654-.274.063-.543.347-.71.6-.106.162.035.467-.034.675-.102.307-.067.78-.456.835-.58.083-1.18.2-1.77.175-.458-.018-.664-.403-.47-.816.308-.664.53-1.405 1.337-1.715.424-.164.796-.46 1.198-.686.4-.225.782-.467.476-1.004-.227-.4-.685-.376-1.203.005-.345.254-.694.507-1.066.72-.382.218-.867.658-1.22.156-.404-.577.24-.82.606-1.116.522-.423.573-.747.113-1.118-.98-.79-1.35-1.795-1.297-3.038.02-.454-.164-.938-.34-1.375-.22-.55-.475-1.078-.06-1.626.363-.48.732-.962 1.152-1.39.386-.395.305-.687-.05-1.02-.228-.214-.538-.43-.612-.7-.208-.766-.37-1.554-.445-2.344-.09-.943-.134-1.9-.073-2.844.026-.398.292-.987.597-1.104.366-.14.91.074 1.337.24.198.078.306.4.44.62.393.643.67.745 1.23.277.666-.557 1.006-.633 1.72-.32 1.172.512 2.03 1.737 2.617 2.756.472.816.76.875 1.362.174.5-.584 1.142-.517 1.52.16.37.665.09 2.354-.524 2.817-.2.15-.53.135-.805.174-.305.043-.675-.03-.906.117-.276.178-.436.538-.646.82.258.185.492.46.78.542 1.04.3 1.14.38 1.21 1.47.03.46.06.922.05 1.383-.018 1.008-.71 1.653-1.718 1.624-.2-.007-.416-.087-.6-.04-.23.062-.534.17-.626.348-.087.17.054.46.107.697.012.05.077.085.113.13.634.785.597.886-.306 1.235-.312.12-.634.306-.85.552-.15.17-.255.58-.153.726.123.175.508.29.737.24.353-.08.676-.31.995-.502.355-.215.632-.176.91.142.395.454.87.847 1.215 1.334.23.325.64.614.527 1.223-.028.15-.422.343-1.052.348-.63.005-.737.387-.79.608-.037.165.21.575.376.58 1.15.043 1.115.695 1.123 1.527.006.63.474.884.925.537.393-.302.764-.48 1.117-.476.353.004.68.562 1.007.608.328.046.63-.752.507-1.236-.303-1.192-.445-2.368.068-3.556.106-.244.074-.684-.08-.88-1.084-1.386.064-2.37.13-3.205s-.292-2.993.32-4.19c.57-1.12 1.07-2.292 1.466-3.484.266-.798.638-1.32 1.493-1.45.506-.077.797-.393.92-.904.212-.88.54-1.102 1.458-1.057.812.04 1.304.448 1.34 1.283.024.555-.166 1.117-.21 1.68-.024.3-.166.728.092.918.258.19.663-.133.874-.33.332-.306.575-.715.824-1.1.298-.462.2-.836-.24-1.196-1.23-1.003-1.13-1.787.276-2.52.102-.053.202-.112.304-.165.947-.49 1.628-.087 1.693 1 .02.343-.257 1.466.63 1.464.72-.003.506-.84.567-.99.12-.296.266-.784.448-.806.3-.036.792.144.936.39.623 1.06 1.243 2.123 1.217 3.444-.018.91-.143 1.492-.09 1.84.078.51.354.56.39.81.08.536-.243.8-.21 1.34.016.24.39.634.62.65.453.034.59-.385.554-.796-.015-.164-.09-.34-.18-.48-.213-.338-.13-.69.015-.883.516-.69.463-1.384.218-2.127-.063-.19-.148-.414-.1-.59.085-.3.206-.736.422-.817.224-.084.646.117.865.318.355.326.654.73.902 1.148.15.25.26.61.204.88-.106.508.02.89.316 1.282.536.71 1.105 1.403.965 2.412-.026.19.256.506.473.63.51.29.62.696.573 1.235-.073.832-.115 1.666-.146 2.5-.02.545-.09 1.177.557 1.41.64.23.787-.404 1.072-.773.456-.59.842-.75 1.17-.08.208.42.538.755.456 1.375-.067.51-.156 1.202.146 1.72.336.575.013 1.676.404 1.856.5.23 1.37-.097.72-1.66-.156-.37-.475-1.326-.052-1.442.423-.117.72.342 1.052.508.627.316 1.09.122 1.174-.58.04-.34-.048-.693-.02-1.036.034-.452.02-.95.214-1.337.35-.7.162-1.18-.334-1.694-1.315-1.362-1.303-1.373-.036-2.762 1.113-1.22.832-2.163-.768-2.655-.88-.27-1.776-.525-2.602-.92-.514-.245-.928-.72-1.35-1.13-.32-.31-.58-.682-.863-1.03-.392-.484-.91-.915-1.142-1.466-.572-1.35-1.013-2.754-1.506-4.136-.214-.598-.08-1.003.392-1.53 1.08-1.208 1.487-1.06 2.187-1.643.543-.453.445-.885 1.04-.706.58.172.312 1.61 1.242 1.467.862-.13-.46-1.904.65-2.19.456-.116.866.214 1.05.513.182.3.66.334.88.174s.104-.55-.008-.706c-.193-.27-.53-.43-.786-.658-.645-.575-.673-.977-.063-1.594.278-.282.638-.482.954-.73.322-.252.547-.59.27-.96-.314-.417-.725-.268-1.06.02-.192.165-.313.414-.5.59-.31.296-.61.63-.98.83-.57.304-1.042-.01-1.053-.657-.005-.315.094-.63.095-.945 0-.487.028-.992-.095-1.452-.06-.223-.173-.57-.668-.538-.495.03-.383.445-.47.703-.067.196.002.46.067.676.236.786-.025 1.357-.722 1.744-.504.28-.73.652-.695 1.264.016.27-.247.733-.474.8-.284.082-.74-.064-.977-.274-.31-.274-.465-.718-.712-1.07-.32-.456-1.21-.447-1.206-.042.003.405.637.86.888 1.33.1.188.107.557-.014.697-.108.124-.506.14-.68.04-.643-.38-1.267-.8-1.858-1.256-.388-.3-.48-.763-.156-1.153.524-.632.213-.944-.34-1.284-.24-.148-.848-.545-.764-.927.083-.383.684-.07.955-.133.348-.083.69-.195.53-.586-.084-.21-.45-.394-.71-.427-.287-.037-.55.573-.985.2s.068-1.947.705-2.708c.315-.377.417-.71 0-1.028-.404-.307-.813-.202-1.005.24-.235.54-.332 1.137-.55 1.685-.113.284-.267.69-.542.77s-.57-.354-.63-.588c-.214-.83-.338-1.685-.475-2.534-.06-.368.022-.783-.12-1.108-.42-.976-.267-1.974-.274-2.98-.01-1.48.156-2.998-.76-4.34-.275-.404-.477-1.004-.025-1.343.303-.226.862-.202 1.29-.15 1.02.12 2.027.375 3.05.465.32.028.722-.244.986-.488.095-.087-.04-.545-.187-.747-.266-.36-.65-.395-1.087-.232-1.082.402-1.394.343-1.963-.403-.446-.584-1.107-1.12-.926-1.96.18-.83-.127-1.328-.83-1.68-.532-.266-.74-.697-.635-1.285.04-.227.065-.457.077-.687.073-1.305-.243-1.634-1.523-1.513-.264.015-.53.183-.75.345-.25.187-.414.51-.68.655-.713.387-1.04.856-.86 1.733.13.646-.327 1.133-.923 1.42-.613.296-1.018-.014-1.43-.447-.332-.35-.714-.685-1.135-.915-.6-.328-1.12-.693-1.404-1.34-.187-.427-.536-.59-.885-.237-.604.613-1.13.49-1.745.022-.198-.15-.63-.208-.836-.094-.638.355-.702 2.08-.15 2.575.6.538 1.2 1.074 1.787 1.623.95.885.932 1.015.058 1.97-.18.195-.282.59-.214.835.042.153.465.247.728.28.216.026.472-.158.668-.102.27.078.666.25.72.458.347 1.34 1.76 2.24 1.51 3.848-.035.226.616.768.627 1.342.014.707-.614 1.463-.697 1.74-.22.745-.626 1.247-1.436 1.443-.72.174-.877.878-.32 1.375.288.256.71.355 1.054.556.235.138.538.284.64.505.368.81-.238 1.986-1.13 2.043-.964.06-1.947-.046-2.91-.165-.3-.036-.565-.35-.846-.538-.21-.14-.39-.41-.63-.41-.54-.003-.99-.183-1.565-.334-.457-.12-.81.032-.828.464-.01.243.285.65.52.72.427.122.918.002 1.37.07.35.052.845.14.985.38.486.838 1.127 1.047 2.035.887.502-.09 1.053.124 1.193.648.105.394.038.917-.152 1.278-.145.277-.6.394-.923.573-.41.227-.824.447-1.236.67v.25c.346.22.703.424 1.036.663.475.342.674 1.146.358 1.54-.413.514-.864.303-1.282-.022-.36-.278-.885-.494-1.12-.095-.45.763-.918.182-1.373.294-.23.055-.558.13-.632.29-.07.153.07.522.232.637.55.394.637.92.594 1.526-.02.287-.017.576-.022.865-.016.964-.022 1.292.97 1.35 1.14.066.98.682.397 1.314-.535.58-1.204 1.05-1.864 1.494-.176.12-.685.063-.784-.085-.247-.37.083-.553.42-.64.467-.123.633-.463.453-.856-.358-.783-.744-1.563-1.22-2.278-.17-.257-.615-.36-.956-.47-.435-.14-.9-.185-1.334-.323-.876-.276-1.726-.646-2.614-.865-.7-.173-1.052-.473-1.233-1.215-.32-1.304-.662-2.64-1.91-3.466-.495-.326-.523-.84-.234-1.303.43-.684.432-1.41.39-2.168-.02-.4-.07-.83.04-1.203.188-.628.123-1.15-.19-1.73-.14-.257-.026-.718.1-1.037.378-.973.192-1.274-.862-1.2-.418.028-.822-.013-.86-.483-.046-.592-.075-1.236.12-1.774.096-.266.724-.322 1.09-.513.182-.096.426-.272.442-.433.016-.162-.178-.417-.347-.51-.3-.16-.694-.165-.965-.354-.304-.212-.73-.56-.728-.842.01-.908-.194-1.924.804-2.566.54-.346.643-.962.57-1.544-.03-.255-.032-.82-.5-.853-.47-.032-.502.453-.678.67-.133.166-.098.46-.22.645-.2.303-.417.54-.706.845-.29.304-.125-.26-.334-.432-.21-.174-.193-.515-.63-.538-.44-.023-.428.61-.495.873-.15.59-.516.61-.988.517-.562-.11-.81.098-.753.695.08.85.218 1.715.142 2.557-.072.776.087 1.628-.484 2.323-.315.384-.087.617.25.91.93.805 1.098 2.002 1.423 3.105.04.14-.048.353-.14.49-.35.534-.368 1.024-.062 1.613.134.257.063.77-.123.996-.147.18-.652.215-.925.116-.795-.29-1.637-.505-2.055-1.428-.244-.537-.816-.6-1.154-.295-.38.342-.43.93-.05 1.215.215.162.525.197.786.303.282.115.633.18.82.386.47.52.983.815 1.7.893.817.09 1.195.854.773 1.537-.574.928-1.236 1.802-1.87 2.69-.31.434-.712.515-1.22.336-.54-.19-1.117-.283-1.658-.476-1-.357-1.962-.733-2.66-1.658-.496-.657-1.018-1.217-1-2.11.007-.295-.196-.596-.31-.89-.292-.75-.614-1.49-.87-2.253-.093-.28-.106-.635-.025-.918.15-.52.367-1.03.62-1.512.102-.197.358-.412.562-.43.196-.018.433.185.618.333.1.08.12.26.195.38.33.528.732.574 1.063.053.277-.436.582-.63 1.11-.66.263-.014.51-.354.763-.547-.184-.23-.34-.493-.56-.68-.167-.144-.45-.15-.617-.294-.22-.187-.536-.46-.52-.674.023-.32.265-.65.48-.922.108-.135.4-.11.545-.233.16-.134.365-.378.334-.53-.042-.205-.265-.406-.46-.535-.122-.082-.334-.04-.506-.038-.424.005-.82-.04-.99-.512-.168-.46.097-.73.396-1.043.593-.624 1.14-1.292 1.678-1.965.266-.333.414-.773.006-1.074-.423-.31-.66.1-.9.386-.277.33-.51.737-.86.954-.3.186-.773.27-1.102.173-.214-.063-.626-.39-.576-.75.044-.316.34-.962-.028-1.036-.704-.142-2.116.918-2.21 2.488-.056.9-.614 1.208-1.315.63-.59-.486-1.05-1.128-1.554-1.714-.166-.193-.245-.478-.437-.63-.15-.118-.465-.188-.606-.107-.14.08-.22.382-.21.58.008.18.14.385.272.525.868.913 1.726 1.84 2.64 2.705.495.467.732.946.493 1.502-.257.598-.697.65-1.284.478-.636-.188-1.014.187-.885.833.048.243.182.488.336.687.376.485.35.906-.008 1.408-.416.582-.763 1.216-1.097 1.85-.253.48-.588.738-1.148.76-.877.034-1.01.187-1.043 1.002-.047 1.148-.748 1.536-1.8.998-.243-.125-.492-.24-.836-.408-.37 1.067-1.13 1.282-2.083 1.237-.743-.036-1.225-.36-1.65-.935-.138-.186-.517-.192-.786-.28.044.304.072.614.145.912.02.087.164.157.264.21.604.328.62.853.465 1.42-.162.588-.59.772-1.173.822-.467.04-.94.175-1.378.353-.423.172-.768.194-1.102-.146-.16-.163-.325-.407-.516-.437-.257-.04-.54.09-.813.147.092.26.106.62.29.765.49.388 1.054.685 1.59 1.018.243.07.518-.086.814-.164.204-.054.545-.083.63.027.13.165.183.503.1.697-.342.815-.76 1.598-1.122 2.406-.11.243-.17.533-.153.795.005.087.384.264.486.207.25-.138.494-.355.632-.6.18-.322.247-.705.38-1.054.19-.487.526-.8 1.068-.602.613.224.443.702.296 1.16-.156.49-.34.984-.4 1.49-.025.216.033.668.354.7.32.034.544-.297.677-.526.15-.26.113-.62.207-.92.093-.295.18-.655.398-.83.2-.16.605-.213.847-.12.184.07.395.476.347.672-.19.778-.432 1.553-.746 2.29-.24.566-.683.96-1.33 1.142-.255.07-.7.336-.638.66.063.325.598.236.908.28.215.03.45-.103.675-.106.727-.008.988.325.817 1.035-.066.272-.146.54-.236.837-.046.154-.715.397-.456.69s.436-.375.755-.36c.426.02.73.313 1.033.65.23.256.604.415.943.53.648.223.77.43.52 1.08-.09.24-.28.5-.242.72.05.296.067.83.432.837.365.01.563-.256.72-.474.302-.42.155-.854-.087-1.292-.36-.65-.21-1.198.332-1.477.547-.282 1.014-.084 1.396.593.185.326.364.655.55.98.383.667.836.907 1.183.19.193-.398-.09-.727-.452-1.15zm1.633 1.196c.283.17.722.45.932.347.278-.136.74-.617.603-.942s-1.192-.402-1.857-.272c-.442.086-.138.59.322.868zm41.73-9.468c-.328.744-1.682.977-2.353.41-.895-.756-1.713-1.764-2.645-2.455-.297-.22-.066-.78-.165-1.172-.093-.366-.336-.613-.417-.973-.033-.147.274-.4.46-.562.716-.623.79-1.107.38-1.974-.202-.43-.362-.91-.4-1.378-.042-.533.307-.85.863-.857.522-.007.657.34.72.787.143 1.022.422 2.106.49 3.057.023.34.38.67.472 1 .11.405.005.804.16 1.192.092.235.41.55.738.47.294-.07.537-.478.62-.786.057-.21-.135-.58-.33-.747-.593-.512-.8-1.158-.884-1.9-.075-.653-.26-1.296-.317-1.95-.02-.23-.02-.9.35-.936.37-.036.615.31.744.796.13.486 1.163 3.173 1.944 4.678.143.275.31.55.31.933s-.405 1.613-.738 2.368z"/>
  <path d="M46.156 64.107c-.424-.166-.893-.216-1.338-.333-.99-.26-1.158-.563-.883-1.565.288-1.05.002-1.41-1.1-1.24-.905.142-1.695.08-2.41-.58-.28-.262-.713-.358-1.073-.536-.255-.126-.536-.227-.752-.404-1.007-.83-1.988-1.692-2.992-2.527-.395-.33-.553-.65-.155-1.084.308-.338.516-.706.138-1.202-.168.032-.37.036-.542.107-.987.408-1.32.21-1.477-.88-.037-.265.05-.84-.226-.912s-.52.286-.657.442c-.496.563-.965.45-1.51.056-.51-.37-1.095-.635-1.616-.993-.535-.368-1.07-.752-1.532-1.206-.286-.28-.653-.747-.593-1.053.107-.54.712-.436 1.17-.43.558.008.77-.4.823-.834.03-.262-.157-.865-.28-.917-.38-.16-.678.2-.986.35-.247.118-.407.407-.64.57-.3.21-.615.438-.958.54-1.027.308-2.014.255-3.002-.275-.95-.51-1.045-.8-.238-1.537.297-.27.577-.57.237-.946-.324-.36-.715-.26-1.08.013-1.083.81-1.084.805-2.214 0-.21-.15-.478-.247-.638-.437-.21-.252-.452-.557-.49-.863-.176-1.442-.305-2.89-.42-4.34-.13-1.647.095-2.003 1.656-2.68.372-.162.653-.404.45-.776-.455-.828.025-1.286.57-1.754.415-.357.785-.79 1.25-1.06.644-.375.73-.865.63-1.53-.074-.476-.053-.98.016-1.46.03-.2.265-.486.448-.52.19-.037.48.135.634.302.29.315.5.702.766 1.04.43.547.978.717 1.32.437.348-.286.25-1.017-.228-1.456-.184-.17-.433-.277-.667-.378-.29-.126-.607-.19-.892-.327-.953-.456-1.144-1.288-.478-2.102.29-.356.59-.717.94-1.01.74-.62 1.646-.455 2.08.385.205.395.26.865.427 1.283.092.232.28.427.425.638.154-.238.416-.47.432-.716.018-.287-.16-.596-.29-.88-.21-.467-.238-.905.188-1.253.438-.357.824-.07 1.166.19.226.17.41.404.582.632.36.478.667.95.105 1.528-.12.123-.114.54.003.692.392.51.92.332 1.417.142.457-.176.616-.515.442-.97-.31-.804-.593-1.61-1.378-2.137-.262-.176-.492-.59-.505-.906-.022-.532-.183-.915-.547-1.296-.58-.607-.442-1.044.353-1.32.744-.256.848-.454.42-1.12-.284-.442-.223-.75.042-1.167.613-.966 1.253-1.933 1.698-2.978.274-.644.626-.73 1.184-.677.588.054 1.005.245.936.956-.015.16.09.61.386.508.295-.104.115-.583.258-.824.17-.288.47-.5.65-.785.156-.25.385-.64.293-.817-.15-.286-.514-.492-.83-.644-.186-.088-.458-.034-.683.006-1.765.31-1.916-.59-1.87-1.84.012-.284.132-.56.168-.845.107-.82.27-1.645.26-2.466-.004-.355-.3-.88-.6-1.01-.3-.127-.828.052-1.152.26-.528.34-.968.813-1.45 1.227-1.027.884-1.82.582-2.542-.537-.243-.377-.44-.827-.965-.655-.546.178-.36.7-.374 1.116-.027.887-.065 1.773-.102 2.66-.03.713-.412 1.06-1.116 1.002-.543-.044-.893.206-1.095.666-.552 1.258-1.586 2.245-1.494 3.84.04.72-.455.7-.69.75-.175.035-.455-.18-.61-.354-.185-.21-.238-.548-.44-.73-.18-.165-.452-.413-.732-.28-.28.13-.2.555-.113.752.285.655.603 1.288 1.31 1.652.622.32.636.632.1 1.124-.93.855-1.04.57-1.553.867-.256.148-.59.302-.687.537-.065.158.176.508.36.692.965.963.742 2.21-.56 2.634-.612.2-1.3.235-1.952.22-.534-.012-.87.142-1.137.59-.203.338-.5.62-.71.955-.123.198-.222.477-.206.67.03.348.316.49.806.486.41-.003.893.25 1.078.542.3.474-.2.818-.504 1.158-.423.472-.843.947-1.246 1.436-.64.777-.93.73-1.353-.21-.087-.192-.25-.423-.43-.48-.178-.06-.526.012-.608.145-.112.182-.143.545-.03.708.378.55.585 1.08.403 1.768-.054.204.182.524.35.74.76.967.818 1.483.15 2.492-.137.208-.475.465-.65.42-.233-.058-.466-.36-.575-.61-.264-.605-.452-1.24-.678-1.86-.12-.333-.362-.63-.694-.37-.2.16-.253.556-.29.855-.015.122.244.256.287.41.16.57.378 1.148.39 1.728.014.572-.486.79-.98.487-.547-.333-1.03-.727-1.166-1.428-.04-.217-.29-.55-.442-.55-.23.002-.528.2-.677.4-.27.368-.424.82-.68 1.2-.62.918-1.163.882-1.756-.047-.554-.87-1.09-1.76-1.743-2.554-.514-.628-1.068-.633-1.493-.217-.468.458-.437 1.145.128 1.68.197.185.484.348.746.38.566.067.874.385 1.09.86.12.263.248.52.377.78.51 1.023.37 1.222-.698 1.604-.534.19-.99.634-1.43 1.02-.106.095-.094.483.012.614.097.12.42.15.602.092.297-.092.547-.34.845-.42.24-.067.767-.362 1.015-.143s-.24.735-.344.973c-.083.19-.32.316-.493.466-.37.32-.73.722-.312 1.163.417.442.842.09 1.185-.244.206-.2.39-.424.587-.636.644-.698 1.584-.753 2.286-.134.465.41.483.787-.03 1.125-.476.314-1.003.558-1.523.8-1.448.67-2.84 1.362-2.85 3.295 0 .228-.234.548-.448.664-.728.395-1.172 1-1.498 1.728-.325.726-.102 1.22.664 1.438.594.17 1.302-.106 1.633-.672.233-.397.417-.822.626-1.232.35-.687.853-.708 1.3-.107.474.635.645 1.247.21 1.983-.097.164.035.463.06.7.247-.086.578-.1.72-.273.272-.325.46-.728.636-1.12.203-.446.432-.8 1-.797.595.002.54.453.674.822.073.198.344.455.517.448.172-.006.363-.29.488-.49.086-.135.024-.365.112-.496.133-.197.327-.46.52-.482.24-.026.527.13.748.277.12.08.105.344.22.453.223.21.494.37.745.55.117-.265.255-.522.34-.795.04-.125-.044-.283-.044-.426 0-.58.304-.89.87-.758.437.1.865.312 1.248.552.693.436.808.462 1.2-.235.254-.455.593-.502 1.014-.394.46.117.678.456.616.907-.086.63-.225 1.24.25 1.804.08.095.008.407-.093.544-.327.44-.354.835.054 1.23.333.322.27.635.028.998-.577.868-.89.947-1.85.406-.4-.225-.804-.538-1.27-.18-.504.383-1.02.763-1.45 1.22-.16.173-.094.56-.13.848.277-.023.62.05.82-.085.89-.604.972-.624 1.712.146.266.277.553.47.9.19.8-.645 1.605-1.292 2.364-1.987.526-.482.888-.553 1.407-.055.374.357.724.745 1.036 1.156.67.884.868.938 1.697.172.543-.502 1.12-.682 1.818-.466.466.144.926.303 1.387.46.56.19.79.55.568 1.132-.262.683.064 1.01.68 1.228.244.087.553.29.626.508.253.758.626.76 1.228.38.192-.12.644-.123.77.012.174.19.19.557.203.852.008.152-.188.31-.195.468-.015.315-.055.685.084.94.2.364.555.23.914.106.276-.096.75-.125.897.036.172.188.124.617.095.934-.044.472-.14.94-.24 1.405-.076.357-.134.734-.294 1.055-.455.915-.418 1.476.27 2.186.142.145.424.313.56.26.205-.077.405-.317.483-.533.083-.23.037-.512.02-.77-.05-.834-.15-1.668-.146-2.502 0-.293.175-.69.402-.84.154-.102.59.077.81.248.817.646.964.71 1.828.183.534-.326 1.033-.353 1.543-.05.836.494 1.686.976 2.457 1.558.3.227.426.703.59 1.083.12.286.085.685.275.888 1 1.068 2.04 2.1 3.097 3.112.14.133.53.174.686.073.16-.105.233-.43.24-.664.006-.178-.133-.37-.233-.543-.452-.776-.394-1.025.275-1.612.318-.28.64-.596.835-.963.525-.99.997-2.01 1.46-3.034.294-.66.115-1.115-.567-1.38zM16.83 29.882c-.137-.146-.815-.455-.752-.81.063-.354.82-.594 1.246-.77.34-.14.735.108.763.593.027.492-.468.962-1.257.987z"/>
  <path d="M34.75 7.352c1.71 1.556 2.312 4.014 4.247 5.426.156.114.197.407.258.626.07.248.037.547.165.75.144.23.44.542.63.517.214-.028.384-.39.482-.502-.115-.948-.286-1.582-1.052-2.05-.65-.398-1.413-1.052-1.572-1.723-.3-1.268-1.01-2.2-1.84-3.056-.81-.836-1.297-1.795-1.735-2.844-.315-.752-.85-1.42-1.34-2.088-.28-.38-.72-.533-1.142-.215-.444.336-.32.768-.033 1.144 1.004 1.315 1.665 2.86 2.933 4.015z"/>
  <path d="M174.738 22.733c.44.202.838.465.837 1.085 0 .545.413.74.906.65.48-.087.63-.425.572-.904-.125-1.05-.04-1.15.886-1.702.285-.17.6-.507.706-.924s-.36-.93-.71-1.245c-.43-.382-.853.01-1.21.312-.523.443-1.054.38-1.59.03-.313-.203-.6-.46-.937-.61-.525-.233-1 .07-.896.628.19 1.027.27 2.144 1.438 2.68z"/>
  <path d="M180.046 24.49c.563.31.668 1.358 1.397 1.358s1.03-.646 1.12-1.022c.19-.78.585-1.278 1.266-1.63.21-.107.533-.272.533-.705s-1.03-.57-1.592-.863c-.677-.354-.937-.86-1.328-.69-.708.306-1.42.864-1.37 1.75.008.16-.033.384-.14.48-.708.637-.58.94.114 1.322z"/>
  <path d="M188.136 70.006c-.137-.24-.666-.48-.898-.396-.518.187-.26.66-.053.943.822 1.12.608 1.85 1.06 2.698.396.74.975 1.39 1.537 2.022.113.127.56.085.77-.032.268-.15.45-.453.7-.724-.336-.626-.52-1.25-.922-1.658-.86-.865-1.59-1.796-2.194-2.852z"/>
  <path d="M79.084 68.608c-.604-.343-1.177-.065-1.26.62-.042.34-.008.69-.008 1.036-.132 1.5-.132 1.5 1.336 1.902.166.046.327.117.496.147.61.108 1.136-.3 1.06-.91-.146-1.144-.544-2.18-1.624-2.795z"/>
  <path d="M56.325 76.236c-.108-.213-.645-.423-.83-.33-.226.116-.312.546-.408.855-.035.114.052.282.118.406.44.828.465 1.67.3 2.594-.122.684-.04 1.427.075 2.123.06.356.365.86.838.616.263-.137.474-.64.472-.975-.008-1.112-.394-2.65-.197-3.335s-.068-1.364-.368-1.954z"/>
  <path d="M171.066 24.833c-.33-.034-.58.385-.66.642-.13.428.244.6.617.637.703.073 1.15.465 1.457 1.074.116.23.334.417.44.63.205.417.884.41 1.015-.24.13-.65.557-1.03.903-1.762.065-.138-.09-.523-.236-.59-.45-.205-.948-.43-1.425-.426-.328.003-.513.366-.84.433-.33.07-.942-.362-1.27-.397z"/>
  <path d="M60.86 71.505c-.514-.558-1.71-.513-1.71-.085s.717 1.213 1.116 1.72c.547.695 1.09 1.38 1.653 2.05.163.197.673.38.786.286.22-.185.35-.564.374-.874.02-.26-.108-.58-.274-.792-.624-.79-1.265-1.566-1.946-2.305z"/>
  <path d="M63.476 35.762c.39.475.96.565 1.487.363.33-.127.706-.445.817-.762.235-.67-.99-2.01-1.984-1.99-.2.102-.63.264-.983.528-.14.105-.217.487-.137.653.21.43.493.836.8 1.21z"/>
  <path d="M102.163 72.225c-.115-.044-.484.304-.58.538-.26.628-.014.907-.524 1.758-.35.58-.345 1.545-.292 2.212.024.304.457.577.704.863.23-.293.642-.577.656-.88.038-.807-.246-1.63-.08-2.43.097-.46.654-1.08.654-1.487.002-.405-.28-.474-.54-.573z"/>
  <path d="M34.007 24.202v.027c-.514 0-1.04-.065-1.537.027-.24.044-.423.38-.632.586.205.17.394.37.623.496.136.074.34.064.506.037.725-.12 1.394-.08 2.057.332.427.265 1.082-.144 1.18-.66.11-.577-.29-.783-.74-.835-.48-.056-.97-.013-1.456-.013z"/>
  <path d="M163.774 76.598c-.614.02-1.56.802-1.56 1.288 0 .44 1.098 1.348 1.645 1.36.556.012.96-.494.957-1.2-.004-1.07-.294-1.47-1.043-1.448z"/>
  <path d="M90.724 29.012c.865-.17 1.25-1.5 1.25-1.977 0-.477-.173-.88-.435-.943-.31-.075-.774.21-1.08.453-.577.455-.59 1.147-.567 1.815.02.573.275.76.83.652z"/>
  <path d="M20.177 60.3c-.102-.16-.542-.107-.825-.153-.026.26-.062.52-.073.782-.004.075.05.17.11.227.513.513.662 1.174.822 1.85.076.32.3.613.495.89.087.12.275.172.363.224.455-.036.875-.596.69-.977-.473-.975-1.005-1.925-1.583-2.842z"/>
  <path d="M171.374 11.525c.515.008 1.172-.577 1.188-1.056.016-.494-.968-1.5-1.467-1.5-.498 0-1.056.635-1.094 1.245-.03.518.79 1.3 1.374 1.31z"/>
  <path d="M163.56 69.71c.258-.694.466-1.406.65-2.122.125-.486-.274-.978-.786-.956-.544.106-.665.584-.677 1.083-.016.64-.068 1.228-.485 1.776-.137.182-.438.7.06.9s1.007-.052 1.24-.68z"/>
  <path d="M107.113 10.396c.446.142 1.09-.27 1.328-.867.074-.185.1-.388.12-.47.015-.698-.38-1.32-.84-1.39-.6-.092-.752.43-.996.798-.092.14-.124.322-.165.49-.19.768.005 1.264.553 1.438z"/>
  <path d="M178.083 70.788c-.53-.11-.704.464-.834.907-.08.272-.17.487-.172.835-.003.348.307.81.61 1.042.147.113.56.024.764-.11.496-.33.78-1.242.507-1.772-.19-.367-.53-.83-.877-.902z"/>
  <path d="M104.972 16.52c.555-.077.748-.497.743-.983-.005-.583.22-.99.696-1.292.12-.076.275-.166.317-.284.087-.242.232-.646.132-.735-.198-.175-.566-.28-.825-.227-.243.05-.583.276-.636.535-.22 1.064-.627 1.322-.91 1.996-.21.5.03.982.482.99z"/>
  <path d="M124.164 8.986c.326.206.51-.07.77-.138.453-.12.592-.557 1.354-.368.41.102.754-.18.733-.65-.02-.442-.333-.65-.766-.62-.57.036-1.14.08-1.703.16-.49.07-.756.37-.718 1.066.054.1.143.43.332.55z"/>
  <path d="M76.726 64.648c-.46-.376-.955-.71-1.408-1.094-.28-.236-.55-.508-.885-.175-.35.347-.137.65.147.96.42.46.766.985 1.196 1.432.21.22.63.523.792.446.314-.15.67-.622.67-.884s-.302-.514-.512-.686z"/>
  <path d="M64.833 12.247c.625.245 1.16-.052 1.3-.688.15-.69-.435-1.205-1.38-1.21-.114 0-.255-.043-.338.008-.29.18-.693.342-.798.61-.077.196.193.6.404.818.208.216.523.347.813.46z"/>
  <path d="M8.195 54.67c-.166.128-.442.23-.48.39-.21.856-.398 1.723-.497 2.597-.023.204.29.558.522.64.16.055.545-.188.645-.39.156-.313.155-.704.22-1.063l-.097-.016c.055-.51.163-1.022.14-1.528-.01-.216-.293-.42-.453-.63z"/>
  <path d="M157.65 34.495c.48-.6.896-1.263 1.244-1.95.22-.434-.1-.92-.54-.887-.05.028-.18.057-.246.138-.53.636-1.083 1.257-1.54 1.943-.11.164.024.694.2.8.22.13.75.118.88-.045z"/>
  <path d="M64.48 25.956c.335-.476.747-1.318.747-1.662 0-.344-.306-.644-.564-.87-.117-.103-.46-.07-.63.028-.606.348-.91 1.73-.55 2.333.236.393.75.522.997.17z"/>
  <path d="M152.293 25.94c-.56.16-1.206 1.083-1.165 1.668.042.596.472.94.97.775.46-.152 1.11-1.036 1.12-1.525.014-.657-.4-1.068-.925-.918z"/>
  <path d="M165.03 9.777c.46-.058.69-.39.7-.848.016-.707-.715-1.36-1.508-1.362-.475-.01-.785.16-.767.695.022.59 1.02 1.584 1.574 1.514z"/>
  <path d="M49.157 52.398c-.087-.175-.33-.362-.513-.374-.18-.012-.535.183-.54.298-.04.99-.023 1.985-.004 2.977 0 .072.158.142.285.25.67-.59 1.12-2.452.772-3.152z"/>
  <path d="M56.993 14.47c.28-.1.632-.58.518-.973-.113-.392-.035-.82-.163-1.193-.086-.25-.394-.62-.564-.6-.273.032-.686.306-.734.54-.1.486-.062 1.027.04 1.52.09.43.415.878.903.705z"/>
  <path d="M38.61 69.088c.286-.69-.526-1.785-1.27-1.796-.755-.01-1.17.58-.734 1.197.31.437.838.747 1.326 1.01.124.068.592-.204.678-.412z"/>
  <path d="M177.442 67.514c-.033.41.132.9.654.794.243-.05.62-.495.62-.878s-.44-1.316-.683-1.95c-.132-.345-.357-.77-.797-.505-.17.102-.187.584-.15.877.075.56.414.932.356 1.662z"/>
  <path d="M151.718 17.454c-.488-.02-.87.347-.876.84-.007.56.593 1.392 1.025 1.425.498.036.955-.425.97-.98.018-.647-.518-1.262-1.12-1.286z"/>
  <path d="M174.248 49.958c-.62.398-1.232.832-1.766 1.336-.175.166-.42.752-.138.908.282.156.61-.002.842-.132.516-.287.485-.473.958-.83.212-.162.83-.312 1-.697.17-.386-.522-.825-.896-.585z"/>
  <path d="M94.395 7.324c.28-.52.083-1.224-.55-1.743-.195-.158-.554-.3-.748-.225-.232.09-.367.426-.568.685.233.532.37 1.01.634 1.404.36.535.924.453 1.23-.12z"/>
  <path d="M39.582 79.304c-.465-.02-1.217.913-1.19 1.424.025.423.52.85.957.826.47-.025 1.113-.86 1.047-1.405-.057-.47-.302-.825-.815-.846z"/>
  <path d="M124.52 67.95c.28-.23.536-.52.54-1 .002-.48-.32-1.224-.705-1.224s-.513.388-.69.637c-.178.25-.352.57-.347.858.005.298.155.692.378.854.17.122.63.037.825-.123z"/>
  <path d="M74.96 53.97c.61-.043.53-.645.58-1.09.004-.03 0-.06 0-.294-.035-.166-.067-.55-.214-.884-.087-.198-.387-.467-.535-.437-.228.047-.535.297-.582.51-.084.38-.04.805.03 1.196.078.434.11 1.046.722 1z"/>
  <path d="M114.665 39.077c-.36.057-.287.498-.383.765-.054.15-.01.338-.01.51h.016c0 .2-.052.417.012.593.097.27.235.67.43.72.217.053.575-.168.77-.37.565-.588.205-1.177-.14-1.702-.15-.226-.335-.573-.695-.516z"/>
  <path d="M69.89 65.755c-.404-.14-1.01.757-.872 1.252.11.392.443.76.765 1.036.12.102.567-.005.726-.16.337-.326.352-.75.078-1.17-.214-.333-.293-.818-.698-.958z"/>
  <path d="M18.405 17.284c.487.004.83-.466.89-1.173.044-.544-.232-.815-.73-.85-.492-.034-.945.523-.965 1.12-.017.538.304.9.805.904z"/>
  <path d="M116.368 53.64c-.105.047-.12.455-.06.666.09.325.23.668.45.917.178.203.522.41.752.374.213-.034.446-.37.446-.574s-.398-1.093-.753-1.432c-.145-.137-.587-.06-.835.05z"/>
  <path d="M61.243 28.332c.358-.368.856-.583 1.213-.944.15-.152.315-.66.167-.878s-.587 0-.765.11c-.598.373-1.525.907-1.757 1.287-.23.38.33 1.262 1.143.425z"/>
  <path d="M195.843 53.656c.475.04 1.053-.475 1.07-.93.012-.376-.61-.97-1.043-.994-.405-.022-.765.42-.783 1.017.043.424.167.856.756.906z"/>
  <path d="M70.388 8.766c.442.022.828-.405.82-.905-.012-.618-.523-1.278-.975-1.213-.55.08-.63.5-.612.96.01.674.317 1.137.768 1.16z"/>
  <path d="M177.496 47.393c-.384-.01-.79.542-.858 1.218.036.374.026.85.586.953.378.07.865-.546.912-1.1.046-.542-.264-1.06-.64-1.07z"/>
  <path d="M94.934 67.375c-.558.055-.548.482-.556.89.01.698.368 1.163.89 1.122.438-.034.66-.305.672-.735.02-.626-.527-1.325-1.006-1.277z"/>
  <path d="M123.5 74.625c-.112-.09-.31-.146-.45-.116-.52.108-1.453 1.233-1.517 1.923.034.07.093.296.234.442.06.063.348.21.433-.07.17-.563.89-1.186 1.31-1.798.06-.09.056-.327-.01-.382z"/>
  <path d="M82.623 24.09c.01.59.468 1.232.844 1.07.328-.14.69-.497.782-.895s-.173-1.085-.842-1.09c-.485-.003-.796.364-.785.916z"/>
  <path d="M43.9 16.03c-.087.422-.197 1.32.115 1.352.312.032 1.042-.393 1.23-.94.128-.372.342-.782-.197-1.025-.412-.186-1.042.11-1.147.612z"/>
  <path d="M108.944 66.006c-.276 0-.363.382-.362.604.003.603.61 1.31 1.057 1.268.41-.037.703-.244.684-.71-.015-.408-1.104-1.162-1.38-1.162z"/>
  <path d="M172.016 73.798c-.52.02-.652.373-.67.814-.008.55.367.988.855.968.484-.02.708-.328.744-.775.045-.54-.41-1.027-.928-1.007z"/>
  <path d="M29.954 9.118c.375.108 1.212-.797 1.123-1.212-.058-.27-.32-.498-.422-.644-.742.015-1.256.602-1.177 1.21.032.24.266.585.476.646z"/>
  <path d="M171.875 31.108c-.603.018-1.13.424-1.027.89.062.276.252.587.8.587s1.07-.374 1.044-.81c-.03-.49-.35-.68-.817-.667z"/>
  <path d="M43.683 12.643c.582.114.702-.364.842-.878-.065-.366-.154-.793-.693-.88-.515-.08-.763.24-.802.69-.042.487.104.96.653 1.068z"/>
  <path d="M196.505 66.568c-.506.003-.724.318-.72.782.003.446.665 1.047 1.077.926.234-.07.42-.205.51-.5s-.404-1.21-.867-1.208z"/>
  <path d="M95.18 43.202c-.475.052-.8.308-.81.83-.008.52.312.885.773.823.34-.045.878-.61.878-.914 0-.304-.438-.782-.84-.738z"/>
  <path d="M38.162 74.632c-.538.033-.825.46-.768.944.037.313.352.592.543.887l.33-.003c.214-.355.544-.69.613-1.072.075-.414-.25-.784-.718-.756z"/>
  <path d="M171.016 21.614c.263-.07.403-.087.598-.446.196-.36-.53-1.31-.923-1.152-.28.114-.58.456-.655.75-.1.394.567.958.98.848z"/>
  <path d="M69.87 73.25c-.468-.03-.79.228-.82.7-.03.467.16.878.692.93.552.056.745-.327.814-.805.01-.473-.2-.79-.685-.824z"/>
  <path d="M192.488 55.897c.502-.035.732-.386.803-1.064-.156-.152-.36-.48-.65-.595-.347-.138-.87.505-.858.983.012.454.272.708.706.677z"/>
  <path d="M94.213 63.52l.024.002v-.024h-.02l-.004.023z"/>
  <path d="M93.034 63.567c-.19.066-.358.517-.33.77.023.21.344.528.546.538.25.012.608-.185.745-.4.164-.26.356-.612.22-.954-.14-.34-.826-.077-1.18.047z"/>
  <path d="M166.35 78.428c-.413.017-.648.262-.6.665.06.487.33.925.842.913.26-.006.512-.38.768-.587-.11-.547-.58-1.01-1.01-.992z"/>
  <path d="M68.212 26.23c.284-.013.68-.056.79-.467.11-.41-.416-.96-.905-.982-.422-.018-.75.177-.722.647.03.492.372.827.837.804z"/>
  <path d="M103.27 66.2c-.513.02-.753.457-.707.893.03.284.43.752.69.752s.632-.528.686-.85c.07-.42-.184-.816-.67-.796z"/>
  <path d="M75.313 49.36c.008-.4-.774-.94-1.114-.864-.34.077-.35.332-.4.576-.09.444.358.938.78.935.42-.003.723-.188.733-.648z"/>
  <path d="M191.572 68.546c.025.457.28.672.723.654.53-.02.743-.35.792-1.038-.18-.136-.418-.442-.713-.512-.428-.102-.83.408-.802.896z"/>
  <path d="M45.17 9.67c.56-.01.676-.42.778-1.05-.156-.133-.36-.438-.614-.49-.405-.083-.805.445-.8.915.008.422.23.63.636.624z"/>
  <path d="M79.746 51.682c.072-.272-.375-1.028-.767-.93-.26.063-.58.368-.65.624-.118.45.16.83.65.787.312-.026.695-.21.766-.48z"/>
  <path d="M49.23 49.774c.083-.425-.23-.782-.692-.788-.478-.006-.74.36-.683.794.04.298.327.83.69.85s.624-.538.686-.856z"/>
  <path d="M77.555 7.36c-.445-.337-.708-.67-1.016-.72-.178-.027-.65.49-.603.61.14.353.472.63.73.938.24-.226.483-.452.888-.83z"/>
  <path d="M52.98 61.34c-.01-.29-.335-.568-.65-1.057-.384.485-.723.76-.843 1.107-.136.393.2.656.585.636.428-.02.93-.152.91-.685z"/>
  <path d="M168.982 28.767c-.037.446.353.858.817.79.247-.035.48-.06.6-.34.117-.28-.323-1.083-.76-1.093-.432-.012-.626.252-.658.643z"/>
  <path d="M166.625 69.937c.03-.375-.51-.653-.732-.615-.27.045-.602.404-.684.69-.11.382.15.8.593.73.312-.048.79-.43.822-.805z"/>
  <path d="M92.57 16.03c.274-.052.512-.296.767-.455-.08-.588-.472-1.052-.89-.968-.236.048-.528.322-.6.555-.122.384.35.938.722.868z"/>
  <path d="M180.165 63.37c-.172-.075-.782-.072-.782.413s.324.93.594 1.02c.432.15.75-.212.712-.614-.03-.3-.27-.706-.525-.82z"/>
  <path d="M50.27 17.376c.243-.032.614-.4.618-.622.006-.307-.034-.93-.442-.93-.408 0-.777.5-.84.794-.103.468.205.818.664.758z"/>
  <path d="M139.35 7.6c.242-.033.62-.238.62-.7 0-.464-.55-.76-.667-.704-.314.146-.694.463-.754.77-.102.508.415.687.8.634z"/>
  <path d="M71.948 23.932c.096-.387-.61-.727-.895-.714-.236.01-.62.347-.647.575-.054.44.29.795.744.714.29-.052.702-.188.798-.575z"/>
  <path d="M31.12 51.628c.252-.065.585-.452.584-.692-.002-.275-.474-.807-.817-.807s-.45.564-.484.868c-.05.435.32.734.717.63z"/>
  <path d="M62.17 50.536c-.06.414.312.733.722.638.258-.06.592-.394.627-.643.03-.226-.18-.72-.675-.72-.496 0-.633.444-.674.726z"/>
  <path d="M64.207 48.487c.24-.05.563-.428.57-.665.005-.238-.342-.728-.668-.728-.327 0-.64.465-.665.714-.046.473.327.77.762.68z"/>
  <path d="M53.162 71.804c-.31.234-.068.56-.08.937-.01.24.4.506.572.48.212-.032.478-.323.55-.555.174-.572-.732-1.095-1.042-.86z"/>
  <path d="M101.867 69.955c.05.288.358.686.615.735.207.04.754-.526.754-.887 0-.354-.522-.465-.75-.44-.24.027-.65.423-.62.592z"/>
  <path d="M46.392 60.294c.053.27.382.67.598.677.255.01.522-.343.964-.674-.414-.327-.633-.635-.895-.676-.424-.068-.75.26-.668.674z"/>
  <path d="M119.095 57.292c-.23.02-.56.374-.612.63-.078.386.165.79.628.708.267-.047.642-.305.737-.664s-.522-.693-.752-.674z"/>
  <path d="M42.062 47.748c.405.08.73-.106.782-.79-.15-.123-.372-.45-.634-.488-.508-.073-.714.355-.67.782.02.19.315.455.522.496z"/>
  <path d="M11.684 28.854c.512.004.753-.403.722-.857-.015-.228-.29-.44-.403-.596-.712.123-.88.52-.826.964.023.19.328.488.507.49z"/>
  <path d="M49.492 14.258c.03-.17-.292-.528-.517-.594-.418-.124-.753.15-.732.58.013.27.346.793.625.793s.57-.49.624-.78z"/>
  <path d="M79.72 6.512c.225.023.487-.302.93-.612-.443-.324-.673-.62-.936-.655-.42-.054-.748.28-.663.686.052.245.42.556.67.582z"/>
  <path d="M153.853 77.647l-.263-.024c-.476.696-.96 1.387-1.42 2.094-.063.1-.04.283-.006.414.137.522.788.877 1.38.773.73-.13 1.21-.603 1.064-1.21-.17-.702-.496-1.366-.755-2.046z"/>
  <path d="M147.88 61.185c.532-.73.2-1.683-.753-2.164-.714.582-.89 1.378-.464 2.106.337.577.82.6 1.216.06z"/>
  <path d="M148.044 72.812c-.5.014-1.038.486-1.012.885.026.406.665.897 1.146.88.467-.015.88-.44.873-.9-.006-.464-.49-.88-1.006-.865z"/>
  <path d="M138.11 63.804c-.66-.004-.635.53-.72.964.024.5.16.957.728 1 .513.04.77-.305.794-.81.025-.576-.36-1.15-.802-1.154z"/>
  <path d="M142.006 50.05c-.472-.102-.81.28-.853.755-.044.476.27.802.728.74.362-.05.946-.343 1.036-.614.088-.27-.565-.806-.91-.88z"/>
  <path d="M79.03 54.445c.19.028.836.195.806.51-.03.316-.255.767-.57.707s-.707-.556-.602-.78c.106-.227.217-.458.365-.437z"/>
  <path d="M14.643 53.504c.38-.1.734.443.73.756-.003.19-.52.534-.886.41s-.444-1.01.156-1.166z"/>
  <path d="M23.93 59.186c.293.162.695.626.226.834-.47.21-.886-.026-.86-.26s.37-.72.633-.574z"/>
  <path d="M38.72 49.954c.172-.014.36-.01.36.175s-.224.275-.36.185c-.134-.09-.206-.344 0-.36z"/>
  <path d="M58.23 51.712c.306.148.947.63.654.946-.293.315-.9.068-1.08-.203-.18-.27.042-.93.427-.743z"/>
  <path d="M62.164 44.908c.203.066.716.135.678.743s-.6.564-.984.294c-.383-.27-.14-1.18.306-1.036z"/>
  <path d="M184.19 65.252c.4.082.902.36.767.766s-.79.406-1.036 0 .032-.816.27-.766z"/>
  <path d="M188.675 65.248c.19 0 .79.056.79.537s-.27.548-.632.346c-.36-.202-.43-.884-.158-.882z"/>
  <path d="M123.045 77.83c.36-.015.674.537.507.967-.167.43-.543.394-.884.143-.34-.25-.09-1.093.377-1.11z"/>
  <path d="M157.877 39.073c.288.05.88.158.743.563-.135.406-.575.563-.873.406-.298-.158-.26-1.037.13-.97z"/>
  <path d="M41.785 16.596c.39.038.338.657.09.787-.248.13-.88.107-.856-.253.02-.36.382-.572.765-.534z"/>
  <path d="M98.4 11.79c.24-.044.857-.24.977.225s-.015.826-.488.826c-.474 0-1.047-.947-.49-1.05z"/>
</svg>
