<svg width="596" height="630" xmlns="http://www.w3.org/2000/svg">
  <g fill="none" fill-rule="evenodd">
    <polygon fill="#FFF" points="0 0.0006 595.2756 0.0006 595.2756 629.0442 0 629.0442"/>
    <g fill="#0B0A01">
      <path d="M63.652 495.747l23.231-.877 20.355 4.515c-2.096 5.845-7.461 11.288-10.916 15.443l-11.037 16.47 15.215 7.008c-.736 1.67-18.824 16.306-22.64 19.56l12.602-56.043-25.949.762c-1.73 23.501-12.312 47.861-20.595 69.733l24.271 19.436c2.784-3.145 11.434-9.63 15.318-13.062 10.624-9.384 20.69-15.852 33.044-27.048l16.165-13.836-10.053-14.05c-6.153-8.444-2.229-8.838 2.644-14.56l21.716-26.855c-.887-.855-1.122-1.16-3.856-1.513l-73.135-5.884c-1.117 7.18-4.222 14.286-6.38 20.8z"/>
      <path d="M304.025 515.23c-8.764-25.444.467-21.355-20.07-24.82l-8.348 25.297-6.204-25.941-20.941 5.987 1.714 22.297 6.48.295c.362 3.948.808 35.322 2.911 37.674l8.521 5.67c2.954-2.87 6.688-10.398 9.097-14.85 2.172-4.017 6.604-11.96 9.7-15.403l.599 1.069c.035.075.68 1.571.716 1.67 2.847 7.866 3.745 18.642 4.78 26.838l8.434 3.277c1.76-7.458 26.009-54.834 31.273-65.657l-13.47-12.513c-4.44 4.943-9.455 25.652-15.192 29.11z"/>
      <path d="M473.981 516.204l9.984 1.327 16.31 64.96 21.182 2.538c-1.83-10.382-4.619-19.086-6.025-30.742l-3.108-34.056c4.997-.057 4.564-.773 6.843 9.284l3.146 13.971 29.045-11.018-6.763-17.926-5.827 2.765-2.987-16.389c-4.978-.3-9.65-1.93-14.85-2.6-10.165-1.31-26.393-.309-34.528-1.463l-14.891-2.322 1.474 15.622c.09 1.843.054 4.367.995 6.05z"/>
      <path d="M356.06 510.573l-3.715-18.707c-4.314-2.648-13.897-1.007-18.54-.169 1.275 3.212 3.215 3.412 3.857 5.821.882 3.307-1.95 4.204-2.704 6.182-.306.801 2.42 12.661 2.778 15.478l1.306 38.102 8.746 6.609 8.436-17.738c5.525-10.19 3.671-10.52 9.852-16.96 3.28 8.396 5.785 23.085 8.028 33.283 4.656-.208 16.216-5.92 21.212-8.953-.27-3.76-.716-7.331-1.238-10.992l-5.835-6.29-5.027-42.044-15.29-6.784c-.113.287-10.829 22.04-11.867 23.162z"/>
      <path d="M433.592 475.289c1.497 3.67 3.286 19.358 4.384 24.987 2.224 11.405 6.839 39.745 7.58 51.061.349 5.342-6.486 9.924-12.892 16.47.567 3.203 9.002 14.994 11.34 18.61 6.774-5.22 13.382-11.284 20.267-16.419 8.22-6.13 4.305-6.116 2.52-19.695-.188-1.418-.262-2.69-.413-4.071-1.825-16.75-1.318-25.65-2.358-40.645l-2.943-34.442c-9.204.432-19.034 2.211-27.485 4.144z"/>
      <path d="M219.216 540.333c-.639-1.213-3.427-13.358-3.55-14.915-.23-2.921 4.083-9.365 8.219-10.506l4.496 21.978-9.165 3.443zm-17.852-29.67c4.454 11.448-4.132 6.96-5.43 14.28-1.608 9.062-5.142 23.265-.693 28.503l16.456 17.848c8.312-7.659 24.363-17.104 33.09-25.357 2.175-2.058 2.16-2.272 1.441-5.781-1.998-9.745-2.829-20.006-4.27-29.663-1.396-9.367-5.254-12.828-11.464-22.298-3.518 1.588-26.33 19.262-29.13 22.468z"/>
      <path d="M145.486 494.655l-2.88 16.619 8.963 3.004-6.2 57 15.848-.526 10.63-51.604 3.22 12.423c5.49-2.797 9.952-5.839 14.559-9.149 8.025-5.766 6.257-5.591 5.082-14.982l-4.68.704.184-15.133-44.726 1.644z"/>
      <g>
        <path d="M56.463 73.462c.786 8.382 2.428 56.95 4.307 60.062 1.21 2.004 13.225 10.946 17.665 15.077l17.156 15.408c8.13-2.9 42.892-21.574 50.551-25.77l-15.078-14.652-25.289 13.649c-2.61-2.004-4.273-4.644-7.024-6.775-4.828-3.74-3.53-2.863-4.235-10.381L91.124 95.05l18.887-7.79 17.587 17.864 22.396-11.574c-.467-3.277-8.97-12.472-11.865-15.615L114.45 53.873 56.463 73.462z"/>
        <path d="M475.004 112.504c2.051-2.868 10.115-7.169 13.14-8.97 3.163-1.885 10.917-6.698 14.077-7.081l2.2 7.615c-4.094 2.239-23.335 12.93-26.205 13.632l-3.212-5.196zm-10.609 47.092c2.536.003 44.804-11.54 51.35-13.204l-5.354-15.594-27.423 5.051-1.18-5.996 19.466-8.123 31.68-10.524c1.85-1.29 11.296-26.572 12.695-29.981L521.86 63.092l-62.696 39.832c-4.004 2.42-3.671 1.796-4.54 7.104-1.03 6.277-2.739 12.655-4.329 18.985-1.114 4.435-.081 4.94 1.58 8.36 3.266 6.728 8.05 17.144 12.519 22.223z"/>
        <path d="M216.06 154.873c1.582-1.227 13.584-5.68 16.316-6.536l-2.362-10.237c-1.674-7.058-1.138-8.172-4.21-8.02l-6.333 1.847L218.117 94l-19.95-7.643-7.61 18.534c-2.836 7.467-4.87 11.27-8.402 18.304-1.466-2.19-2.656-34.741-2.44-39.874l1.48-42.859-33.667 2.498 7.146 24.995c1.994 9.245 3.5 18.104 5.209 27.556 4.215 23.315 4.664 36.74 5.93 59.963l11.25 2.794c3.48-2.733 8.093-11.21 11.196-15.649l12.809-13.83 8.01 27.028 6.981-.944z"/>
        <path d="M277.054 82.725c-.124.216.008.43-1.022 1.428-1.341 1.297-.598.622-1.514 1.067-1.272 3.702-5.364 5.85-8.295 8.08-1.072.816-14.605 15.89-24.7 24.024-4.71 3.793-4.888 3.265-4.8 11.175.167 14.822-1.94 11.881 7.825 24.907l7.307 9.017c7.287-7.588 12.268-11.627 20.377-18.37l5.215 12.893 24.443-6.616c-1.208-3.279-4.705-7.462-7.27-15-1.106-3.252-2.176-6.687-.528-9.793.662-1.248 1.728-1.926 4.264-7.007l-15.342-8.2c-4.334 5.893-6.72 7.237-9.592 10.493-6.634 7.521-9.87 10.6-17.067 17.813l-2.996-6.492c4.53-7.352 26.561-26.772 31.516-33.29.927-1.218.925-1.317 1.956-2.427l2.522-2.836C287.24 90.379 281 81.95 277.054 82.725z"/>
        <path d="M379.618 45.145c-1.153 9.59-1.859 17.749-3.421 27.147-2.774 16.69-5.717 66.39-6.983 84.47l14.428 1.858c.479-14.54 13.698-74.566 17.966-91.43l7.943-29.9c-10.278 1.274-20.358 5.229-29.933 7.855z"/>
        <path d="M306.34 90.388l.618 16.607c3.599 1.683 3.534.016 7.793 1.872l-.084 48.554 14.487 1.503 1.252-7.87 5.962-37.128c6.17 13.49 4.452 12.17 7.41 11.866 4.61-.475 16.167-6.855 20.205-8.92l.944-16.623-5.993 1.604-2.25-12.561c-9.59.526-42.511 2.608-50.344 1.096z"/>
        <path d="M416.984 86.961c-3.956 9.708-3.806 41.819-5.011 50.896l-2.153 16.545 13.756.894c3.87-11.972 4.877-21.655 10.634-37.327l13.3-35.104c-4.335-.182-27.983 2.998-30.526 4.096z"/>
        <path d="M417.717 77.579l33.316-1.741 8.361-24.46-35.916 5.636c-3.498 1.144-2.784 1.338-3.421 5.288-.84 5.202-2.068 9.624-2.34 15.277z"/>
      </g>
      <g>
        <path d="M292.62 219.303c1.93 1.384 13.144 8.48 6.954 11.553-3.193 1.586-24.752-9.04-24.758-16.126-.004-4.337 13.068 1.177 17.803 4.573zm-93.582-37.122h-.507c-2.132 2.902-14.137 9.83-17.8 12.207 1.807 3.79.48 2.779 3.94 6.737 2.893 3.31 8.05 7.226 11.533 9.828l12.205 9.156c2.27 1.643 4.03 2.84 6.3 4.38l6.276 4.404c2.168 1.61 3.985 2.786 6.33 4.349 4.458 2.97 8.414 5.589 12.816 8.545 8.49 5.703 17.266 11.478 26.015 16.705l13.235 8.67-104.753-20.9c-2.675 5.021-5.422 14.003-7.629 19.834l39.506 21.522c4.093 2.196 15.751 11.208 20.429 14.663 1.839 1.359 3.412 2.438 5.366 3.788l105.578 71.403c-11.048-2.582-14.038-2.209-26.015-7.04-20.784-8.38-38.678-21.69-56.078-35.465l-9.09-7.692c-7.509-6.344-14.879-12.899-21.847-19.857-1.48-1.478-2.452-2.67-4.154-3.983-1.994-1.54-2.714-2.623-4.579-4.067-16.372-12.677-18.786-15.986-40.462-26.67-3.213-1.583-7.99-3.427-11.633-4.641-15.02-5.006-27.542-6.02-40.163 2.194-3.263 2.125-6.032 4.88-8.308 7.967-8.03 10.89-6.916 27.008-.02 38.33 3.593 5.898 6.663 8.166 11.916 12.496 3.139 2.587 6.612 4.575 10.23 6.553 5.675 3.103 11.13 5.934 17.432 7.996 4.33 1.417 8.187 2.948 12.334 4.45 6.175 2.235 12.816 3.642 19.087 5.85 3.302 1.163 3.618 2.082 4.185-2.023l1.714-15.082c-3.546-.83-7.02-2.458-10.463-3.777l-20.752-7.728c-1.986-.706-3.125-1.27-5.034-2.087-7.677-3.283-16.17-8.285-20.044-16.065-4.072-8.178-1.493-15.497 6.138-18.464 10.983-4.27 28.329 3.586 36.813 10.605 11.947 9.884 25.086 18.223 37.087 28.01 7.447 6.074 24.977 19.344 32.801 24.668l13.098 8.262c1.512.912 3.007 1.625 4.584 2.536 19.316 11.162 41.454 17.828 63.185 23.273 7.964 1.996 16.233 3.16 24.458 4.532 8.374 1.397 17.238 2.242 25.794 3.195l12.202-18.817c-1.434-.963-2.778-1.733-4.414-2.703-1.729-1.024-2.654-1.706-4.385-2.736l-135.63-83.05c4.421.364 18.311 4.332 23.285 5.696 23.11 6.337 46.299 11.95 69.678 17.798 15.435 3.861 31.112 7.61 47.201 11.284 16.129 3.684 32.297 6.797 48.515 9.972 1.324-2.757 2.65-7.666 3.75-10.995l3.878-10.875c-2.767-1.317-29.68-9.468-33.883-10.869-31.334-10.44-61.251-22.92-90.186-38.484l-4.09-2.013c1.041-1.553 5.305-3.845 7.343-5.365 15.706-11.712 13.86-31.81-.034-44.665-8.952-8.284-18.604-14.214-31.004-17.31-7.318-1.827-13.499-3.485-22.608-3.37-8.164.104-14.63 2.867-18.678 7.26-3.696 4.524-6.012 12.037-6.222 19.715-2.098-.562-4.07-2.507-5.894-3.769-2.09-1.445-3.675-2.615-5.697-3.966-3.99-2.664-7.407-5.262-11.4-7.925l-8.332-5.908c-3.234-2.244-12.799-8.011-14.45-10.472z"/>
        <path d="M87.152 360.183v.505c2.762.065 8.585 1.938 11.483 2.759 16.947 4.8 40.181 11.083 56.974 15.243l45.284 12.185c7.787 2.274 15.13 3.829 22.886 6.103l22.857 6.13c21.332 5.359 46.503 12.246 68.253 18.206 14.053 3.85 32.119 8.316 45.696 12.281 3.956 1.156 7.305 1.892 11.264 2.976 3.622.991 7.61 2.155 11.593 3.156 7.972 2.003 14.96 4.13 22.894 6.094 3.826.947 7.467 1.9 11.218 3.046 3.288 1.004 2.292.416 5.743.315 5.757-.167 13.24-1.122 17.998-3.894 5.51-3.21 5.429-6.05 6.945-7.804v-5.592c-1.22-1.92.621 1.896-.472-1.056l-1.118-3.46c-3.492-9.317-13.054-17.035-20.275-23.453l-11.192 17.289c1.568.827 9.575 6.111 10.758 7.55l2.464 4.146c-3.384 1.806-5.973.555-10.73-.458-3.415-.727-7.102-2.052-10.181-3.04-5.359-1.72-15.414-4.089-21.304-5.651a3535.585 3535.585 0 0 1-21.253-5.702c-6.893-1.874-13.996-3.644-21.25-5.705-41.503-11.792-84.409-22.687-126.229-34.48-13.087-3.69-29.774-7.781-42.385-11.524-21.543-6.395-51.657-13.98-73.742-19.836l-11.126-2.603-2.897 15.92c-.03.08-.087.245-.156.354z"/>
        <path d="M142.08 404.936c0 1.911.24 3.227 1.023 4.571.257.441 2.01 2.635 2.462 3.131 1.296 1.428 4.376 3.37 6.333 4.346 5.776 2.356 11.664 3.7 17.643 4.225 9.245 1.091 18.202-4.166 18.209-4.168l7.216-.413c-.845-1.753-1.171-6.826-1.732-9.448-3.833-17.93-51.154-19.944-51.154-2.244z"/>
        <path d="M339.622 459.57c1.894-.158 9.442-.348 15.248-4.077 3.294-2.116 1.18-1.71 9.455-.716-.103-1.226-2.838-9.964-3.416-11.334-4.046-9.604-23.704-11.982-33.787-9.086-6.219 1.785-17.27 7.113-12.676 15.88 2.415 4.607 9.138 7.576 14.333 8.554a35.71 35.71 0 0 0 3.095.466c2.678.27 5.05.318 7.748.313z"/>
      </g>
    </g>
  </g>
</svg>
