<svg class="chickenfoot" xmlns="http://www.w3.org/2000/svg" viewBox="0 0 200 181">
  <path class="chickenfoot__symbol" d="M197.96 93.394c-.12-7.8-.054-17.433.04-25.444.008-.814-.056-1.746-.165-2.55-.252-1.86-.22-.51.07-1.72.107-.44-.306-7.767-.12-9.2-.37-.31-.38-.496-1.028-.526-.378-.168-.295-.04-.644-.24-.49-.283-.23-.043-.463-.492-.142-1.222-.653-.334-.26-1.785l.11-2.148c.57-.17.41-.154.47-.17l.276-.07c.035-.007.098-.013.133-.02 1.11-.24 1.237-.643 1.36-2.226.256-3.27-.12-6.814-.018-9.593.028-.762.155-1.404-.04-2.11-.223-.802-.7-1.166-.888-1.872l-.487-.358c-.842-1.355-2.288-3.23-2.618-3.98l-1.82-2.627c-.693-.938-2.2-2.704-2.248-4.05-.834.02-.28.077-.48-.272-.41-.603-1.133-.42-2.936-3.794-.86-1.61-1.98-2.408-2.932-3.644-2.245-2.91-1.69-3.183-4.44-5.528-.642-.55-.273-.324-.728-.962-.42-.588-.212-.22-.74-.706l-1.782-2.963.044-1.893 1.002.874c.82.65.262-.49.606 1.103.33 1.534.084.286 1.437 2.164l.527.56c.278.345.106-.03.3.572.906 2.828 1.864 1.34 2.48 2.595l.948 2.194c.903.96 1.017.935 2.052 1.58l.775 2.388c.516.69.715 1.11 1.188 1.782l2.424 3.51.254.445c.74.258.7.445 1.056 1.22.608 1.33.88 1.386 1.578 2.655.326.593 1.24 1.473 1.837 2.617.998 1.91 2.114 2.27 2.516 3.845l.444.66.733.07c.232-2.648-.068-7.486-.07-10.496 0-4.713.533-9.913-2.183-13.968-2.326-3.473-5.533-5.844-9.537-6.87l-.724-.34c-1.323.09-8.548-.112-9.21.003-.5.088-.518.143-.82.525-1.614-.927-6.162-.57-8.31-.55l-24.618-.017-1.462.933-.425-.948-3.99.135c.046.667.168.67-.038 1.208-.112-.16-.142-.1-.228-.477-.006-.022-.004-.724-.004-.73-.7-.13-7.624-.22-8.893-.13-1.21.088-4.967-.504-6.194-.002-1.69.69.47.015-2.486.032-2.263.013-3.905-.013-6.157-.005-1.712.006-4.26-.275-5.682-.176-5.28.367-13.474.257-19.02.28-.317 1.217-.135 2.528.2 3.66.16.547.176.274-.093 1.15-.312-.27-.087.03-.327-.346-.526-.822-.275-3.335-.253-4.588-5.752.243-16.632.05-22.956.048-3.804-.002-7.646.01-11.45-.026-3.602-.034-7.098.194-10.354.13l.16.658-.92.17c.17-.626-.11-.204.307-.815l-11.228.06-1.214 1.87-.36-2.06-10.124.03-.435 1.02c-1.606-.932-1.1-.688-3.702-.937-1.034.885-.43 1.19-1.05 2.09-.89 1.287-.54-.128-.99 1.766l-.165.54c-.204-.26-.11-.064-.257-.5-.042-.122-.09-.48-.112-.597l-.466.072-.313.15c-.156.312-.022.108-.226.458-.127.217-.198.274-.285.385l-.753-.15c-.048-.584-.137-.234.16-.658.3-.424.27-.292.56-.484.41-.23.398-.114.677-.337.008-.007.4-.496.408-.504l-.055-.235c-.033-.545-.12-.578-.364-.972-1.394.363-1.803.606-2.873 1.305-.493.32-.716.496-1.097.82-.726.617-.688.33-.745 1.323l-.108.986c-.406-.405-.548.727-.283-.997-.48-.063-.223-.13-.428.284l-.467.56c-.627.284-.27.237-.726.802-1.882 2.334-.812 1.425-1.124 2.404-.17.535-.362.265-.774.977l-.77 6.21c.916-1.1.37-.75.45-2.035.054-.888.63-1.133.98-1.66l-.072-1.23 1.597.335-.946.95c-.938 1.613-.326-.835-1.006 2.18-.106.476-.208.48-.248.777-.126.93.328.405.343 1.588.01.747-.167.42.02 1.504.21.265.258.223.456.713.113.28.046-.057.13.538.223 1.55-.345 1.365-.388 1.39-.713-.01-.798.528-1.047 1.853l-.47 2.76 1.275-.12c-.567 2.22.593 5.728-.262 8.7-.37 1.287.172 3.128-.422 4.44-.137.3-1.09 1.084-.632 3.082.19.833-.02.748.417.38.14-.27.57-1.08.57-.144.692.805.483 1.528.063 2.43-.91 1.96.125 1.28.18 2.387.02.434-.18.482-.282 1.09-.345 2.05.47-.05-.865 4.255l1.258.384-.01 2.37c-2.447 1.613-.58 3.16-.48 4.465.13 1.69-.382-1.052-.118 3.282 1.25-.027 1.06-.907 1.117-1.81l2.302-.257c-.303 1.13-1.21 1.24-2.648 2.726-1.545 1.596-1.308 1.18-1.13 3.632.11 1.516-.408 4.252-.256 5.034.234 1.198-.318 6.672.008 9.81.12 1.155-.073 3-.065 4.89.015 3.603-.078 7.234-.05 10.813.027 3.475.15 7.154.078 10.6-.11 5.42.165 9.707.05 15.05l.403 14.916.7.49c-.954.94.396 3.228 1.148 4.528 1.022 1.764 1.517 2.122 2.878 3.493 2.06 2.076 5.84 3.894 8.782 3.992 2.165.07 2.637-.19 5.505-.002 7.25.48 8.196-.485 9.13-.498 1.34-.02 1.088.49 2.747.514l5.02-.915c1.17.216 2.024.908 3.46.906 1.218-.002 3.283-.405 3.796-.26 2.264.633 6.385.016 8.47.093l6.206.16c1.56-.12.415-.372 1.888-.434.634-.026 1.45-.02 2.024.11 2.695.62 2.528.26 5.15-.493-.11.27-.192.19-.212.547l.04.223c.882.037 1.124-.156 1.825-.098 3.662.3 12.107.12 15.986.143 2.3.015 18.78.18 19.842-.146 1.28-.394.276-.385 1.652-.006 1.28.353 9.14.09 11.376.154.99.03 1.144.234 2.107.247 1.515.02 2.74-.294 4.462-.203l13.565-.09-.034-.44-.787-1.694c.972-.894 1.423-1 1.953-2.052l.557-.98c.12 2.08-.02 1.46 1.42 3.634l-.61 1.574c.53.15 8.243.062 9.6.03l9.125-.025c1.85-.177-.455-.53 3.935.027 1.767.224 11.21.007 14.097.05 5.083.073 9.348-.148 13.25-3.615 1.377-1.225 1.23-1.676 1.54-2.07l.59-.468c.685-.584 2.208-3.98 2.498-5.347.734-3.464.842-5.13-.003-8.3.88-.79.382-6.25.495-8.804.062-1.405.15-3.68.113-5.035l-.26-4.88c-.047-2.912.127-6.928.27-9.96.083-1.72-.123-3.504-.07-5.09.057-1.73.098-3.346.07-5.094zm-1.965-45.172c.022-.052-.002-.12-.124-.204.21-.09-.37-.592.5 0l-.225.16c-.057.015-.107.03-.15.044-.064.153-.52.165 0 0zM184.32 5.052c.337.598.253.605.432 1.24.094.333.24-.187.1.694-.195-.263-.593-.652-.683-.856-.468-1.064.123-1.035.15-1.08zM3.333 41.81c.003-.034-.065.102-.093.155-.49-.455-.073-.48 0-.62l.132.31c.004.027-.04.187-.04.156zm2.884-28.95c.872-1.735.088-1.446.552-2.732.188-.857.282-.57.15-1.34l-.996-.405c1.61-.894 1.27-.333 1.478-.23l.01.71c-.132 1.035.266.397-.288 1.252.202 3.238.452 2.22-.824 4.37l.937.654-.18 1.697c-.89-1.237-.302-.652-.61-1.333-.025-.057-.698-.855-.793-.988l.563-1.654zM6.42 44.6c-.426-.786.234-.216-.387-1.268-.568-.96-.56-.68-.636-1.45l2.047 2.334-1.023.384zm3.94-34.77l-.01-.474c.368.21.303.227.01.475zm.162-2.826l-.497 1.38-.414-.67c-.182-.337-.147-.165-.28-.668.32-.188.996-.096 1.192-.042zm-1.345 16.61c-.19-.21-.237.377-.28-.613-.01-.293.12-.38.21-.538.365.63.374.612.07 1.15zm1.51-9.288c-.34.014-.417-.132-.476-.155-.21-.14-.237-.09-.357-.264l-.67-.155.706-.362c-.02-.276-.036-.218.005-.55l.13-.333c.55 1.448.084.83.568 1.37l.667.15c-.37.38.592.253-.573.3zm1.11 50.997c.03-.893.384-1.498 1.197-1.63-.033.92.194 1.793-1.197 1.63zm-.23-50.806c.272-.213-.005-.304.77-.227.823.08.15.08.8.3.598.205.878.112 1.58.395-.71-.067-2.662-.138-3.15-.468zm2.91-9.836c-.475-.444-.12-.31 0-.522.01.01.69-.238 0 .523zm76.38 39.908c-1.775.073-1.003-.895-1.803-2.438-.29-.56-.49-.962-.767-1.36-1.255-1.804-.417-3.025.038-2.265.073.122.062.843.38 1.42 1.198 2.187-.298 1.808 1.826 1.988l.327 2.655zm-.475-35.372h-.505c.298-.16.213-.207.505 0zm-4.46 3.178l.774-.634c-.075-.753-.29-.454-.158-1.117.382-1.917-.31-.905.408-2.108l.418-.93c.01-.09.03-.117.055-.172l1.15 1.06c.333.28.6.498.888.935-1.824.908-1.506.49-1.85 2.303-.186.98-.37.46-1.215 1.97-.383.682.174.262-.555.605l.085-1.91zm-2.315 4.245c.155-.73.207-.698.503-1.403.382-.914.244-.99 1.075-.508-2.313 3.493-1.005 4.052-1.794 5.26-.668-1.11.026-2.45.217-3.35zM74.273 5.294l.205.295c.64.998.47.93.38 1.415-.618.038-.732.142-.86-.54-.193-1.027.274-1.168.275-1.17zm-3.605 7.486c.008.006.678-.26.212.64-.505-.203-.482-.002-.212-.64zm-.424 1.575c1.34 1.782.598.15 1.05 1.22l-.65.595-.44-1.005c-.058-.126-.135-.09-.156-.42-.04-.675.076-.232.196-.39zM48.647 8.782c.245-.99.014-.776.688-1.453-.4 3.294-.295.668-.612 2.52-.074.43.06.284-.106.782-.45-.618-.14-1.164.03-1.85zm-1.263 8.285l.476-4.56.282-.355.254.55c-.083 1.46-.495 3.28-.495 3.306.003.377.558 1.127-.345 2.76-.306-.983-.306-.688-.17-1.7zM40.77 3.95c.154.147.387-.376.354.812-.027.966-.245.67-.4.82-.267-.618-.384-1.09.047-1.633zm-1.06 16.717c-1.352.63-.912.582-1.7.21.5-.323 1.166-.263 1.7-.21zm-2.545-.378l.333.164c-.498.132-.428.174-.78.032.27-.2-.01-.14.447-.197zm-1.682-.444c.98-.033.147 0 .5.258l-.954-.05c.4-.288-.477-.176.453-.208zm-1.083-.24c-.684.134-.64.208-1.24-.018l-.333-.205c.063-.05.89-.292 1.573.222zm-2.095-12.47l.036 1.386c-.314-.43-.3.66-.347-.784-.022-.68.304-.593.312-.603zM31.032 18.51c.45.253.386.39.43.957l-1.163-.822c.124-.204.43-.305.732-.136zm-1.234-.528c-.144.197.215.467-.907.438-.88-.023-.526-.14-.74-.45l1.648.012zm-3.536-.014l-1.628-.61c.58-.484 1.134-.114 1.628.61zM23.596 3.825c.344.874.22.798.214 1.79-.857-.393-.886-1.064-.214-1.79zM23.56 16.62c.67.024.333.15.453.23-.553.36-.388.376-1.078 0 .347-.265-.676-.273.625-.23zm-1.456-.194c-2.45-.575-3.325-.06-4.045-.66 4.172-.25 2.69-.116 4.044.66zm.58 6.21c-.247.98.095.347-.53.73-.33-.533-.347-.73.53-.73zM17.912 3.47l.447.276-.297-.033-.046-.022c.08.252-.302-.134 0 0-.014-.047-.046-.118-.103-.22zm-2.35 11.79l1.148-.01c-.477.447.583.355-.72.373-.614.007-.424-.255-.43-.362zm.61 37.878l1.226-2.812c.37-.923.17-2.36.926-2.88l-.664-.91c.544-.647.125-.142.402-.843.24-.606.202-.402.424-.898.66-1.472-.395-.635.234-1.855l1.207 6.07C19.87 50.03 17.112 53 16.17 53.14zm1.95 53.194c.272 1.114.496 1.466-.037 2.244-.38-.723-.31-1.314.037-2.244zm-.17 3.66c1.036.936.733.546 1.002 1.333-.767-.4-.675-.176-1.003-1.333zm3.473 40.992l-.678.5c.084-.284.2-.618.307-.82.357-.668.164-.282.423-.555.12.39.234.5-.052.874zm1.467-16.3l-2.035-1.44c-.17-.13-1.15-1.54-1.25-2.056l1.238-.153c.23 1.874-.002 1.46 1.365 2.557.824.66.742.113.682 1.093zm-.95-9.983l.02 1.204c-.193-.223-.345.45-.338-.692.007-1.1-.123.004.318-.51zm1.232 21.897c-.177-.202-.266.56-.227-.577.02-.54.175-.346.227-.417.386 1.047.136.77 0 .994zm.424-1.39c-.237-.4-.69-.757.66-1.02-.44.98-.225.574-.66 1.02zm-.19-9.83l.48-.086c.016-.048.08.06.12.088-.42.17-.295.22-.6 0zm.614 5.157c.158.222.08-.075.156.344.005.03-.06.153-.098.213-.244-.16-.592.136-.058-.556zm-.52-1.463c.174.213.25.062.157.43-.097.378.022.025-.3.122l.142-.55zm2.17 4.577l.603-1.14c.01-.074.05-.092.08-.136.454 2.832.335 1.285.618 2.318-1.086-.463-.715-.176-1.3-1.04zm.965-3.24c-.143-.358-.035-.306-.095-.564-.015-.063-.016-.122-.033-.182-.015-.054-.03-.11-.047-.162-.028-.082-.81-.948-.11-2.082l.96 3.413c-.454-.042-.524-.046-.675-.423zm.85 4.38c.578.143.207-.22.46.494-.778-.33-.374.034-.46-.493zm-2.324-10.836l3.052.46.277.12c-1.182.707-2.775.08-3.33-.58zm.23-4.588l3.42.715c-.656.327-1.986.05-2.652-.202l-.617-.367c-.03-.092-.1-.098-.15-.146zm3.72 20.387c-.924-.915.052-.614.088-.65.124.56.246.122-.09.65zm.423-16.41c-.21-.304-.21-.397 0-.763.178.56.196.4 0 .764zm.877-2.407c-.64-.37-.783-.15-1.366-.648l1.415.022 1.13.008c-.436.656-.344.67-1.18.618zm2.72 16.9c-.223-.265-.135.144-.175-.38-.068-.9-.02-.126.182-.383.347.704.232.38-.007.762zm.702-16.33l-1.45-1.545c.2-.337 2.075-.41 2.895.31l-1.445 1.235zm2.91-.38c-.05-.023-.11-.09-.118-.11-.05-.128-.092-.228-.126-.305-.155-.125-.21-.472 0 0 .067.054.154.066.245-.05v.465zm5.184 10.287l-3.034-.568c-.242-1.38.264-2.347 1.03-2.926 1.116.47 1.613.51 2.002 1.193.463.816.277 1.467.002 2.3zm3.33-.55c.032-.82-.206-.354.298-.546l-.3.545zm4.208-1.662c-.212-.207-.18.072-.225-.41-.063-.657.103-.254.225-.39.25.572.273.23 0 .8zm.802 5.467c.985.68.465-.07.877 1.057-.965-.31-.673.33-.877-1.057zm2.926 3.926c.86.43.468-.13.758.997-.783-.308-.6-.12-.758-.996zm.117-1.545l-.164.484-.368-.437c-.085-1.36-.315-.025-.756-1.326l1.23-.777c.02-.398.11-4.124.24-4.392 1.33 2.244.113 1.14.326 2.555.078.516.748 1.39.906 2.614-1.632 1.004-1.215.638-1.415 1.278zm-.156-8.303c.18.61.234.79.055 1.452-.012.04-.074.177-.084.148-.01-.028-.063.09-.095.136l-.225-1.4c-.074-.1-.175-.14-.248-.407-.21-.758-.022-.13.087-.388.875.29.267 0 .51.46zm5.433-5.485c.712-.255.52-.126.73.505-1.217-.15-.534.167-.73-.505zm7.93 18.023c.23-.12.006-.554.703 0-1.023.73-.688.008-.702 0zm.546-16.944l-.962-1.65c.186-.244.212-.13.595-.24.527.987.823 1.25.368 1.89zm.28.32c.462.563.335.317.514.825l.814 2.58-1.027-1.59c-.275-.577-.385-1.137-.3-1.814zm2.053 5.593c-.18-.212-.097-.013-.247-.427-.05-.132-.016-.228-.013-.404-.312-.188-.36.09-.44-.466-.198-1.33.075-.426.357-.76l.083 1.225c.35.392.474.298.26.83zM71 144.823c-.267-1.114-1.667-3.525-1.25-4.278l.917 2.034c.658 1.418.933 1.494.332 2.244zm1.157 1.783c-.298-.858-.715-.874-.79-1.694l1.237 1.878c.26.357.375.3.632 1.44-1.34-.43-.68-.476-1.08-1.623zm4.28-5.292c.786-.43.13-.17.46 0-.27.223-.268.175-.46 0zm1.44 1.618l-.58-1.37 1.17-.226c.357 1.01.436 1.404-.59 1.596zm4.665 7.196c-.415-.57-.312-1.402-.162-2.147-.603-.24-.392.22-.408-.467.603.15.174-.146.408.467.233.414.486 1.48.162 2.146zm-.62-11.51c-.183-2.208-.888-4.747-.44-5.576.88 1.877 2.107 3.537.44 5.576zm-.43-7.053l-.307 1.328-.763-1.335-12.727-.003c-.92-.002-1.19.065-1.872.17-.465.072-.37-.1-1.286-.172-2.225-.173-14.99-.24-16.68.1 1.263 1.178 1.09 1.3 3.19 1.28l-1.36 2.67c-.29.39.337.106-.263.34l-.195-.325c-.1-.89-.323-.81-.72-1.402-.29-.43-.128-.268-.37-.682-1.183-2.038-1.727-2.008-3.37-1.96.652-.808.198-.302.863-.793l-.598-.843 1.635-.306 2.7-2.83c1.375-1.112 3.486-3.733 5.02-5.16.03-.03.08-.07.112-.098l.234-.185c.672-.56 1.207-1.245 1.792-1.82 1.49-1.466 2.98-1.76 1.845-4.555.547.645.467.463.807 1.134.095.188.155.313.188.39l.06.088c1-.917 3.702-3.366 4.466-4.352.582-.75.898-.92 1.57-1.573l4.47-4.436c1.885-1.52 2.52-2.696 4.34-4.348l3.092-2.848c.667-.693.67-.79 1.32-1.66.218-.293 1.48-1.198 2.75-2.547l.104-.108.222-.2c.473-.47.576.035.61-2.244l.41 1.083 3.505-3.087.026 41.21-4.822.077zm-36.283-8.606c-.033-1.02.082-1.618.488-2.376.354-.662.72-.935 1.5-.782l.103 2.183-2.09.976zm5.864-17.07c.287.152.41.157.697.3.443.22.183.04.463.343-1.026.116-.512.2-1.16-.643zm8.82 1.785c.725.27.917.457.384 1.18-.26-.336-.117.01-.297-.59-.024-.08-.066-.447-.086-.59zm3.99 2.887c.006.01.593-.202.063.75-.394-.427-.336-.194-.064-.75zM65.79 96.35c.3.61.31.986-.114 1.628-.235-.806-.253-1.04.115-1.628zm.425-1.145c.112.47.14.38.048.81-.19-.21-.368-.246-.048-.81zm.848-2.276c-.01-.013-.7.143 0-1.052.337 1.02.238.658 0 1.05zm.424-2.337c.12.16.155-.12.2.427.037.463-.198.357-.2.36-.376-.477-.185-.358 0-.787zm-.848 4.115c-.104-.142-.163-.03-.194-.464-.066-.945.02-.188.193-.49.342.633.364.292 0 .954zm1.564-5.165c-.155.738-.027.187-.293.42.007-.833-.044-1.13.158-1.918l.252-.616c.52-.67.16-.495.803-.55l-.547 1.252c-.367.397-.32.17-.37.84-.026.366.07.225-.002.57zm1.616-5.194c.386.59.238.134 0 .613-.063-.057-.67.2 0-.614zm5.207-11.347c.536-.16.854.165 1.168.46l-.65.73-.518-1.19zm2.332 1.667l.036-.814c.195.214.214.042.252.444.067.713-.146.315-.29.37zm1.26-4.278c-.367.798.328.302-.607.6.508-.508-.58-.095.608-.6zm2.772 8.87l1.156.704.243.784-1.75 1.213-.732-1.46-.833-.173.16-1.55 1.81 1.53c.027.025.104.153.123.115.02-.038.08.08.125.115l.396-.27c-.246-.46-.373-.307-.698-1.01zm-2.132 3.016c-.253-.71-.175-.313.102-.83l.647.496c-.59.414-.353.287-.75.334zm.552 7.09c-.28-.378-.348-.317-.31-1.065.032-.623.08-.516.28-.838.26.65.27 1.23.03 1.903zm-.49-11.1c-.55-.626-.016-.485.04-.556.305.623.284.173-.04.556zm5.38 2.01l.313-.883c.742-.463.293-.22.658-.188l-.18.617-.79.453zM90.78 49.29c-.93.61-1.342.728-1.732 1.41-.094.166-.11.234-.208.434l-2.206.115c.078 2.858-.117 1.43-.282 3.12-.407 4.15 1.155 3.226-1.855 6.2l-5.618 5.627c-1.384 1.214-1.398 1.65-2.36 2.51-1.227 1.093-1.275.837-1.483 1.747-.342 1.49-.266.486-2.238 1.96l-4.802 4.745c-1.03 1.04-2.235 2.274-3.24 3.33-.402.424-1.165.978-1.68 1.498-.345.347-.427.6-.753.942-1.51 1.578-2.455 2.164-4.058 4.006-.63.724-4.38 3.954-6.57 6.36-.592.653-1.045.973-1.582 1.598-1.308 1.522-.788.69-1.69 1.49l-4.854 4.893c-.402.53-.163.513-.754.954-1.954 1.46-5.296 5.072-7.367 7.05-2.81 2.68-5.163 5.433-8.005 8.098-.622.583-.855 1.05-1.538 1.647-.91.795-2.485 2.686-3.376 3.092l-.117-1.473c-1.526 2.916-.45.827-.95 3.7-1.017-8.792-1.345-6.128.852-7.583l.047-3.532c.25-3.375-.28-6.158-.15-7.22.305-2.522-.035-2.248-.057-3.573-.6-.81.167-.405-.75-.735l-.564.305.202 1.818c.082.434.152.097.05.59-.124.6.026.102-.34.45l-.17-.734c.105-.88-.122-.68-.21-1.654l-.178-1.738c.482.127.31-.026.568.276l.518.022-.064-.613-.026-1.303-1.405-1.172.512-2.15c.993-.17 1.202-.333 1.73-.706l.236-3.323-1.844 2.276.264-2.56c2.113-.053 1.606-1.383 1.637-4.24.027-2.407.12-10.464-.12-12.38-.234-1.853.054-3.934.133-5.855.165-4.017-.003-8.46-.018-12.51-.03-8.16-.212-16.43-.135-24.6.037-3.936.786-6.452 3.823-8.617 2.804-2 6.24-1.688 10.32-1.71l9.355.054c1.456-.084 1.026-.46 1.49-1.593l.23 1.43 14.58.12c.777.005 1.564.038 2.34.036.992-.003 1.595-.297 2.095-.28 1.414.05.256.467 2.038-.116.308-.1 1.675-.49 1.855-.516.88-.128 1.197.177 1.722.512.843.54.782.403 2.033.393 2.63-.022 7.172.282 9.533-.065l.014-.42c.12-.504-.15-.204.21-.418l.252.312.02.488c1.8.347 2.213-.575 2.232 1.25.012 1.125.01 2.293.003 3.42-.016 2.503-.1 19.467.134 20.503 3.335-.456 2.308.225 3.264-.72.587 1.76.478 1.07.815 1.488.535.67.31.86.24 1.84zm.244-44.4c-.306-.41-.095-.46-.094-.612 0-.075.064-.084.094-.127l.086.57c-.007-.015-.06.118-.086.17zm.292 45.265c.375.318.225-.13.338.41.173.824-.06.216-.302.388l-.036-.798zm.302 5.46c-.182-.32-.197-.033-.17-.583.047-.983-.064-.04.212-.475.32 1.1.21.62-.042 1.058zm.65-49.168c.11-1.06.07-.407.24-.69.486.887.162.85.206 2.49l-.762.677c-.022-.824.242-.295.322-1.393.025-.34-.038-.777-.006-1.083zm.124 4.564c.7.35.347-.25.503.5-.83-.042-.24.208-.503-.5zm67.784 4.37c.963-.19.172.008.5.197-1.157 1.064-.89.272-.962.212.067-.363.125-.345.462-.41zm-7.36-4.586c.38-.694-.07-.386 1.53-1.026.73-.29.023-.152.925-.39 2.16 1.723 2.687.368 2.52 3.293l-1.15-.604-.35 1.058c1.347.005 1.07-.07 1.457.374l.275.38c.4.697.303.83.22 1.58l-1.275.8-.99-2.83c-1.15-.484-1.62-.478-2.25-.973-.978-.772-.664-.282-1.274-.695.124-.508.16-.594.364-.966zm1.078 3.48c-.285.506.027.323-.554.474.42-.412-.623-.122.554-.473zm-14.526-1.863l.75 1.51c-.884-.996-1.093-.877-.75-1.51zm.636 6.09c-.564-.52-.12-.43 0-.614.16.457.188.338 0 .614zm-2.74-14.51c.282.462.265.144.046.744-.226-.23-.73.083-.045-.743zm-.662 2.094c-.03-.842-.18-.517.22-1.096.422.7.35.702-.22 1.096l-.6 1.71-.2.42c-.378-.26-.184.482-.353-.403.07-.967.538-1.39 1.152-1.726zm-12.077 12.068c.415.567.285.225.16 1.017-.29-.442-.443-.403-.16-1.018zm-.424-1.72c.147.222.19-.332.182.433-.01.995.084.04-.272.48-.22-.703-.194-.423.09-.912zm-1.23-12.348l.21 1.048.2.51-.43 2.092c-.584-.883-.457-1.204-.087-1.952.03-.467.037-.346-.097-.762-.04-.25-.08-.192-.034-.474.072-.44.077-.233.24-.462zm-1.625-1.49c.964 1.052.692.45 1.42.965-.235.262-.206.36-.166.393-.05-.008-.153-.013-.355 0-.327.02-.427-.503-.588-.693-.736-.87-.544.39-.75-1.067l.438.402zm.515 7.116l.21-1.555c.48 1.32.36.525-.21 1.555zm-16.002 14.772c.197-.095-.32-.664.476 0-.802.624-.318.093-.476 0zm-5.324-10.404c.217.408-.327.147-.347.015-.112-.73.28-.145.347-.015zm-4.345 38.32c-.55-.55-.007-.43.104-.546.19.585.157.194-.105.547zm1.295 57.276c-.4-.794-.125-1.07-.244-2.345l-.554-.577c.685-.54.696-.066 1.153-.692.673-.923-.185-.863.917-1.022l.23 2.352c-1.47 1.15-1.113.592-1.502 2.284zm3.855 7.303l.173.497c-.17-.25-.142-.1-.173-.497zm.343-66.45c-.195.58-.1.4-.826.865-1.263.812-1.58.434-2.61.117-.525-.162-.64-.044-1.22-.31.762-.337.495-.3 1.3-.292 3.338.036 1.808-.266 3.356-.38.188-.327.143-.376.49-.177l-.49.178zm2.428 88.03c0-.31.3-.034.305-.02.164.71-.304.174-.304.02zm.817-.847c.136-.198.073-.14.278-.353 1.373-1.434.785-1.098 1.822-2.414-.215 2.39-.148 2.987-2.1 2.767zm2.82-3.897c-.034-.483-.053-.554.178-.91.572-.884.107-.243.685-.562-.092.677-.29 1.227-.864 1.473zm.92-93.908c-.587.39.288.02-.616.393l-.554 2.675-1.047.322c.088-.74-.1-.14.29-.646 1.372-1.785 1.337-4.003 2.62-4.282l.138 1.068-.83.47zm.697 74.69c.226-.195.295-.11.725-.212-.39.557-.81 1.012-.915.885-.047-.06-.16.08-.24.122.245-.738-.052-.378.43-.794zm.756 15.374c-.463.995-.252.896-1.01 1.348.06-.716.553-1.845 1.305-2.104l-.295.755zm-.387-86.942c-.06-.033-.34-.283-.375-.314l1.182.338c.028-.05.102.085.15.13-.83.1-.202.262-.957-.154zm-.095-6.935c-.03-.778.337-1.27.358-2.274.02-.948.038-1.666.168-2.584.314.385.54.583.643 1.112.193 1.01.047 3.535-1.17 3.745zm2.525 93.56c1.23-.8.62-.022.8.1l-.8-.1zm16.97 13c.02-.022.034-.044.04-.066-.25-.33.054-.168 0 0l.038.047.002.018c-.013.058-.558.478-.08 0zm4.186 2.92c-.35-.62-.27-.467-.063-1.18l1.023-.086c.126.89-.21 1.195-.96 1.267zm1.576-10.53c-.193-1.167-.054-.892.22-1.93.1.347.23.632.215 1-.055 1.282-.244.72-.434.93zm5.208 7.383c-.692-1.02-.01-.967 0-.987.426 1.232.105.784 0 .986zm.175-1.404c-.005-1.128-.037-2.14.845-2.683.1 1.38.178 1.907-.846 2.682zm1.062-9.465l-.437.64.217 1.263c.136 1.057.558 2.83.46 3.596-.198.24-.338.627-.45-.158-.01-.914-.522-2.142-.604-3.393l-.19-.99-.09-.838-1.205.215c-.442.04-2.235-1.038-3.816.175l-2.33-.516c-2.614-.28-15.694.418-19.23-.06l-.138-9.476c.007-2.737.11-1.454-.557-2.552-.535-.88-.073-1.688-.407-2.775-.658-2.138-.07-1.025.17-2.533.144-.905-.686-2.864.133-5.3.046-.03.11-.074.14-.096l.608-.5c-.03-1.39-.345-1.18-.426-2.16-.072-.865.18-1.217.32-1.964.202-1.088.1-12.696.082-14.205l.99.788c1.64 1.76 1.793.858 2.504 2.164.58 1.063.357.496 1.436 1.73 1.196 1.367 5.007 5.124 6.31 6.208l11.723 11.81c.565.623 1.583 1.87 2.276 2.206 1.516-1.196 1.55-.863 1.892-3.106-.597-.303-.297.113-.352-.543-.253-.097-.31-.06-.32-.04.002-.02-.006-.076-.07-.22-.32-.73.063-.226.21-.412l.18.672.328.05.025.493.644.016c-1.128 4.454-1.558 4.255.245 6.003 1.787 1.732.605.685 2.385 1.62.724.38.67.62 1.294.846.822.297.704-.052 1.416.445-.415.18-.34.198-.748.19 0 0-.614-.104-.846-.107 2.1 2.805 1.312 1.592 3.083 3.568 1.038 1.16 1.86 2.448 3.745 2.866.16 1.405-.082.91 1.194 2.16.544.534 1.77 1.543 2.126 2.226l-13.924-.005zm-23.845-38.92c.496-.477.035-.38 1.174-.41.592-.014.4-.1.888.107-.74.333-1.107.268-2.06.303zm2.595-.94c.49-.626.07-.43 1.18-.418.327-.596-.152-.27.416-.427.986-.27.573.19.6.21-.602.373-.23.233-1.015.216-.25.35-.07.366-.614.533-1.102.337-.345.002-.568-.115zm3.87-1.713c.9-.102.035-.1.434.24l-.882.124c-.1.365.074.276-.145.487-.707-.05-.535.027-.903-.197l1.047-.29c.26-.456-.31-.278.45-.364zm2.41-1.276l.514-.05c-.143.19.126.535-.514.05zm1.526 12.863c-.113-.667-.073-.473.432-.43-.053.46.17.32-.432.43zm.452-13.796c.672-.262.657.08.697.108-1.094.71-.51.056-.697-.108zm1.172 3.525c1.766.343 3.22.332 3.81 1.24-2.658.29-3.916.398-3.81-1.24zm6.558 2.343c-.653-.497-1.114-.79-1.603-1.52.034-1.41.212-1.01.824-1.826.502-.668.404-1.035.82-1.595-.956 4.876-.383 2.623-.04 4.94zm.1 2.02c-.248-.284-.323.484-.45-.82-.043-.434.033-.223.158-.532.508.534.342.557.293 1.353zm2.756.22c.048-.032.115-.07.147-.092 1.22-.845.296-.51 1.444-.91-1.136 1.308-1.06.712-1.112 2.33l.24.747-1.702.925c-.656.67-.086 1.85-.605 2.873l-.24-.925c-.26-4.4.766-.752 1.828-4.946zm-1.164-3.634c.664 1.384.045.954 0 1.02-.56-1.088-.058-.908 0-1.02zm0 12.187l.02-.67c.098-.635.587-1.186 1.04-1.594l.17 1.566-.946-.01c-.028.188.117.278-.284.707zm.133.433c1.738 1.798.827 1.18 2.308 1.882l-.533 3.174c-.533-.817.222-2.69-1.18-3.883-.594-.505-.605-.198-.595-1.173zm3.895-16.765l.21.427c.067.156.122.34.17.462.657 1.613.164 1.015.27 2.915.174 3.074-.294 2.604-1.26 1.968.11-1.24.37-.32.37-1.505 0-1.38-.188-3.6.24-4.268zm5.7 10.166c-.003-.617.247-.334.34.012.09.335-.336.428-.34-.01zm.56 25.2l.01-.592c.294.446.304.325-.01.59zm5.218 4.274c-.132.07-.06.095-.404.115-.062.003-.114.006-.157.01-.052.07-.423.036 0 0 .02-.026-.006-.066-.135-.126.003-.003-.398-.71.696 0zm-.6-23.675c.75.023.656-.072.714.765-.4-.13-.227.01-.5-.277-.2-.214-.124-.184-.214-.49zm1.393 23.963l.153-.014c.052-.09.45-.05 0 0-.02.03.007.08.133.15-.058.04.414.795-.636 0 .175-.123-.02-.108.35-.137zm.028-25.076c.246.368.47-.077 0 .584-.648-.527-.213-.322 0-.583zm3.606 27.3c-.056-.018-.117-.026-.172-.044-.624-.2-1.622-.63-2.13-.997-.3-.22-.204-.16-.5-.354l-.425-.27c.042-.017.102-.047.125-.05l.378.014c.203.055 1.445.472 1.792.76 1.186.982.912.438 1.644.9.512.32.19-.037.435.497l-1.146-.456zm-1.538-24.16c-1.033-.15-.824.28-1.526-.454l-.61-.06c.495-.297.388-.324.72-.12.51.308-.032.076.622.213.015-.053.125-.42.128-.425.304-.674.062-.155.303-.46 1.658 1.487 1.318.478 3.14 1.12-.723.543-1.81.223-2.777.187zm-.895-1.577c.098-.387.02-.427.285-.756.112-.14.136-.19.14-.2-.003.015-.005.1.304.037-.32 1.028-.03.557-.73.92zm4.793 26.405c-.57.273-.27.298-.845.056.298-.27-.12-.165.412-.25.93-.146.245.064.433.195zm2.51 1.272c-.018-.182.162-.344.296.042.083.24-.254.426-.298-.043zm1.284.666c-.663.123-.36-.217-.385-.34l.81-.006c-.195.228-.17.296-.143.313-.032-.002-.11 0-.283.033zm.42 6.12c-.008-.342.215-.403.328.03.14.53-.322.283-.33-.03zm3.948-11.103c-2.916.304-2.62 1.245-3.09.076.796-.86.555-.404.967-.65l-.986-1.058.256-1.225c.487.92.324.803.812 1.073.837-.84.386-.563.848-.682.445.553.753.822.962 1.376.252.67.318.533.23 1.09zm6.9 17.335c.212-.875-.08-.63.742-.66-.4.94.05.31-.742.66zm2.707-30.812c.032 1.397.366 1.01.212 1.692-.418 1.852-.196 4.397-.216 6.33-.874-.573-.66-.362-1.35-1.155l-2.467-2.63c-.434-.525-.754-.904-1.267-1.27-.814-.58-2.967-2.96-3.803-3.83-1.027-1.07-.732-.98-1.416-1.033l-.18 2.136-.542-3.208c-.316-.9-6.075-5.77-7.02-6.972l-3.408-3.38c-.032-.027-.084-.063-.117-.09-1.52-1.225-2.327-2.68-3.435-3.563-2.84-2.26-7.53-7.46-10.64-10.342-.828-.767-.758-1.404-2.006-1.634l-.102 1.923c-1.012-2.263-1.596-4.353-2.895-5.48-1.687-1.46-2.736-2.55-4.256-4.22l-4.307-4.182c-1.27-1.246-.767-.527-2.094-2.145-.595-.726-1.204-1.226-1.9-2.157l-.605-.02c-.015.74-.11.733-.118.71-.01-.03-.09.12-.125.187-.157-.69-.214-.534.242-.896-.142-.74-.55-.84-1.207-1.534-.704-.747-.63-.745-1.332-1.205-.956-.626-.21.058-.73-.745-.885-1.37-2.05-2.11-3.248-3.334-.498-.51-.89-.875-1.267-1.28-1.063-1.14-1.86-1.77-2.62-2.667l-.49-6.582c-.027-1.182.35-2.23.426-3.412.084-1.3-.07-2.345.148-3.698-.943-.687-.248-.187-1.278-.59-1.077-.42-.262-.13-1.514-.407 1.745-.868.06.375 2.684-.004-.024-.66.035-1.468-.003-2.078-.078-1.245-.672-.96-.737-1.17-.023-.073-.107-.048-.154-.083 1.104-4.993.954-3.54.807-8.906-.085-3.072.045-6.683.105-9.8l11.87-.38 1.043.35c.81.174 4.852.076 5.713.025 2.37-.14 5.126.084 7.467-.16l.657-1.014c.018-.03.07-.063.084-.14.014-.078.05-.1.086-.143l.424 1.372 26.505.114c3.106-.013 5.103.4 6.893 2.03 4.52 4.116 3.175 7.156 3.508 10.083.15 1.31.503.42.222 1.687-.223 1-.302.724-.024 1.72.226.808-.15 2.404-.163 3.798l-.044 22.477c.002 1.402.162 3.176.16 4.216-.004 1.084.232 1.15.187 1.65-.088.97-.288-.74-.114 1.44.037.478-.232 2.993-.236 4.143-.013 3.42-.192 27.982.14 29.15.37 1.293.33.245-.017 1.478-.293 1.045-.17 7.294-.135 8.825zm4.255 34.2c-.04-.09-.607-1.204.526-.822l-.526.824zm-.637-32.47c-.827-.002-.82.3-1.392-.263.516-.272 2.55-.045 2.672 0-.916.546-.285.268-1.28.264zm4.077-14.68c.956-.677.213-.186.506 0-.202.1.304.61-.506 0zm5.248 14.21c-.815-.124-.082.065-.58-.435l1.27.216c-.093.07-.215.29-.69.218zm2.338-31.274l-.23.974c-.057-.518-.07-.563.23-.975zm-.148 17.77l-.608.26c.787-.563.936-2.68 2.56-3.197l-1.952 2.937zm2.108 12.862c-.006-.18-.073-.195.28-.022.46.225-.257.692-.28.022zm-.056-1.7c.088-.828.33-.73.8-.42-.427.703.09.428-.8.42zm.56-57.108c-.15-.61.533-.66.837-.47-.166.155-.722.925-.836.47zm1.13 26.83c-.228-.345-.136.42-.192-.47-.07-1.125-.085-.037.203-.448.19.467.12.457-.012.92z"/>
  <g class="chickenfoot__text">
    <path d="M37.09 166.2l-3.528-.08-.31 4.772-8.932.038-.306-4.817c-.955-.11-2.848-.55-3.534.09-.038 1.59-.24 1.555-.22 2.665.04 2.045-.094 9.626.052 10.5l3.55.04c.496-1.252-.216-4.248.227-5.386l9.384.008.107 1.257c.47 1.51.053.754-.146 1.903-.106.61-.08 1.622.177 2 .443.296 2.763.62 3.623.124.048-2.954.183-7.1.1-10.01-.028-.93.24-2.515-.243-3.103z"/>
    <path d="M5.954 176.356c.004-2.24.112-3.697-.14-5.817-.033-.277-.06-.738-.023-1.01l.235-.688c1.097.02 9.973.32 10.945.002.664-.217.437-.335.49-2.63-.757-.326-.57-.316-1.485-.314l-5.1.015c-1.728.014-4.914-.18-6.458.113l-.12 4.504c-.055.083-.163.814-.443-.148.06-.91-.032-3.044-.613-3.852-1.096 3.31-1.13 2.893-1.065 7.01.017 1.106-.147 4.75 1.016 5.4.834.467.6.027 1.088-.605l.212 1.13 13.078-.07c.116-.95.377-2.132-.038-2.956l-11.576-.084zm-1.866 1.43c-.12-.32-.14-.493-.26-.777-.604-1.424-.377-.73-.027-2.04.297-1.107-.003-2.214.266-3.133l.207 5.52c-.08.96.008.14-.185.428z"/>
    <path d="M44.38 166.08c-.76-.328-3.398-.457-3.68.344-.073.205-.05 12.39.06 13.037l3.758-.06.09-12.635-.157-.525c-.008-.088-.04-.11-.07-.16z"/>
    <path d="M49.5 166.578c-1.397 1.038-.83 5.61-.85 7.602-.032 3-.407 5.55 3.16 5.326.323-2.404.18-5.75.168-8.294-.015-2.996.754-7.037-2.48-4.634z"/>
    <path d="M63.998 168.797l-.008-2.864-11.47.065c-.252 1 .033 2.14.55 2.815l10.928-.016z"/>
    <path d="M52.335 179.543l11.8.02.056-3.1-11.79.07z"/>
    <path d="M82.7 169.516l-.22-3.33c-1.7-.228-.524.054-1.382.004-.032-.002-.092-.016-.125-.02-.493-.086-.96-.65-1.79.02l-.108 4.725c-1.263-.618-.72-.28-1.746-1.063-1.207-.92-3.25-2.523-4.86-2.562l-.254-1.167-5.3-.15c-.15 1.15 1.065 1.326 1.865 1.826.535.333.597.474 1.087.82 1.482 1.05 4.988 2.88 5.526 3.653l-7.308 5.264c-.81.547-2.094.816-2.032 1.945 3.205.07 6.242.717 6.278-1.73l3.554-1.536c.857-.868.478-.426 1.492-1.054.928-.575.567-.792 1.643-1.067l.01 5.27c.956.113 2.7.43 3.588-.063l.117-5.122c.026-3.055.188-2.15-1.068-4.24l1.034-.424z"/>
    <path d="M90.238 176.655l-.087-2.683 6.152-.216-.165-2.592L90.37 171l-.103-2.225 10.298-.012c.005-.055.07-.107.087-.14.03-.064.664-.95.097-2.5H86.587l-.164 10.178c.01 1.127-.197 2.862.3 3.052.003 0 13.656.596 14.14.1.498-.513.562-2.006.104-2.705l-10.73-.092z"/>
    <path d="M117.75 166.106c-.407.68-.287 7.25-.307 8.205-.296-.115-2.06-1.548-2.45-1.834l-5.004-3.905c-.768-.688-1.605-1.312-2.567-2.105-.602-.496-2.926-1.092-3.236.104-.052.198.138 10.145.024 11.102-.153 1.295-.063 1.34.516 1.773l2.774.037.138-8.404c.672.012.218-.137 1.482.917.703.586-.16.143 1.567 1.402.606.442.865.724 1.47 1.275.545.497 1.03.767 1.558 1.207l4.615 3.628 2.602-.028c.14-1.096-.278-11.335-.33-13.473l-2.85.1z"/>
    <path d="M136.73 166.204c-1.207.357-.08-.06-1.2-.17-.787-.08-.638.28-1.532.156-1.517-.21-8.97-.71-9.395-.003-.25.416-.26 2.567-.257 3.117.01 2.05-.06 9.016.108 10.037l3.66.1.093-4.665c1.802-.368 3.682-.134 5.515-.09l.06-2.76c-1.272.033-4.573.055-5.5-.196-.185-.37-.2-.545-.21-1.153-.032-2.013.312-1.858 1.158-1.755 1.32.16 2.84.097 4.2.113 4.163.048 6.385.775 5.223-2.73h-1.924z"/>
    <path d="M157.227 166.516c-.967-.876-7.98-.523-9.37-.523-7.1.002-6.825.327-6.742 7.127.065 5.29-.3 6.526 3.974 6.47 3.764-.05 1.727-.353 2.76-.442.158-.014 3.377.677 6.148.407l.29-.654c.472-1.13.53-1.198.25-2.086l-4.938-.14c-1.61-.205-2.91.102-4.466.013-.37-2.106-.422-5.397-.21-7.584l10.076-.037c.06 2.31-.217 5.008.54 7.177.73 2.1-.813 1.38.366 3.21l2.442-1.137c.533-.51.45-9.487.328-10.05-.246-1.14-.503-.894-1.45-1.75zm-.472 3.447c-.104-.13-.158.02-.192-.436-.06-.798.055-.232.192-.446.4.985.09.717 0 .883zm.424-1.713c-.15-.197-.158.02-.19-.43-.07-.923-.05-.067.19-.462.45 1.14.1.724 0 .892z"/>
    <path d="M177.127 166.312c-2.648-.523-8.205-.196-11.263-.23-3.157-.033-4.227.535-4.32 3.634-.035 1.224-.162 6.827.062 7.645.268.975.526 1.9 1.808 2.18.74.162 10.054.055 11.364.072 3.066.04 4.345-.218 4.326-3.517-.01-2.038.183-5.766-.126-7.602-.223-1.33-.536-1.92-1.85-2.18zm-1.96 10.33l-9.76-.13-.025-7.36 9.214-.07c1.062.12.78.17.728 1.284-.075 1.632.198 5.083-.157 6.276z"/>
    <path d="M197.562 166.238l-14.307-.228c-.617-.02-1.28-.036-1.77.262l.032 2.648 6.112.255.244 10.357 3.178.06.23-.572c.016-.062.03-.115.043-.183.025-.126.035-.473.038-.614.048-2.333-.22-7.294.036-9.046 3.58-.74 6.826 1.753 6.162-2.94z"/>
  </g>
</svg>
