<svg xmlns="http://www.w3.org/2000/svg" viewBox="0 72 200 58">
  <path d="M125.634 86.868c.09 2.548 1.846 26.717 1.846 26.717s15.652 1.596 17.41 1.944c.702-2.988 1.055-7.56 1.494-8.44-4.133.173-14.42.263-14.42.263v-4.13l8.44.878 1.055-5.89-10.025-.09.44-6.42 12.932 5.555 1.576-6.26-20.752-4.13.004.003z"/>
  <polygon points="86.153 85.107 84.174 123.752 77.448 125.203 67.557 107.661 68.347 127.708 60.83 127.049 59.905 88.537 62.412 86.866 77.184 110.166 77.316 84.184"/>
  <path d="M169.247 89.855l-7.563-2.04-3.913 30.53h-9.63l5.937-32.05h-17.41v-10.29l36.67-1.713s-3.96 10.156-4.09 15.563z"/>
  <path d="M31.09 91.015L45.3 85.5c-2.507-5.686-9.025-11.207-19.725-11.207S2 81.818 2 92.853s6.69 29.592 16.886 29.592 15.548-6.02 17.888-8.693l-9.028-11.538s-5.35 6.022-7.69 6.022c-2.34 0-9.863-4.683-9.863-14.044S18.55 79.48 22.73 79.48c4.18 0 8.026 6.354 8.36 11.535z"/>
  <path d="M47.977 91.35c-3.512 0-10.534 6.332-10.534 13.207 0 10.365 10.533 14.88 11.87 14.88 3.845 0 9.195-2.203 9.195-12.903 0-7.828-5.184-15.184-10.533-15.184h.002zm.667 22.235c-1.672 0-6.986-3.344-6.986-6.186 0-2.843 1.348-4.18 3.642-4.18 1.84 0 6.686 3.01 6.686 6.186.003 3.177-1.67 4.18-3.342 4.18z"/>
  <path d="M111.873 77.457l-.885 10.98s-4.647-.996-7.84-.443c-2.68.465-10.53 7.223-10.53 15.224s5.145 11.563 13.058 13.41l.13 9.63s-10.067-1.513-12.355-3.34c-4.614-3.695-6.147-6.576-6.147-17.524 0-14.904 13.16-26.154 24.57-27.934v-.003z"/>
  <path d="M113.675 105.39c3.34-.587 6.07-2.17 6.07-5.774 0-8.535-17.5-6.86-17.5-6.86v20.832h6.595l.09-5.184 13.1 11.032 5.01-4.96-13.365-9.083v-.002zm-5.01-2.17l.35-6.507c3.34.35 5.89 2.15 5.89 3.517 0 1.67-2.64 2.548-6.244 2.987l.004.003z"/>
  <path d="M181.117 87.832c-10.567 0-19.432 14.596-19.432 21.103 0 8.43 7.824 16.18 14.067 16.18S198 115.175 198 105.24c0-9.493-8.57-17.41-16.883-17.41v.002zm.234 22.638c-5.363 0-6.476-4.437-6.476-6.547 0-2.108 4.615-7.21 7.694-7.21 2.374 0 7.694 3.604 7.694 6.507 0 2.903-3.547 7.25-8.91 7.25z"/>
</svg>
