<!--
  SVG Music Logos
  Dead Kennedys - DK v0.1.0
  https://github.com/tiagoporto/svg-music-logos
  Copyright (c) 2016-2018 Tiago Porto (http://tiagoporto.com)
-->
<svg xmlns="http://www.w3.org/2000/svg" viewBox="0 0 152 200" class="dead-kennedys">
  <path class="dead-kennedys__circle" d="M141.038 99.762c0 36.97-30.557 66.94-68.25 66.94S4.54 136.73 4.54 99.76c0-36.968 30.558-66.938 68.25-66.938 37.693 0 68.25 29.97 68.25 66.938z"/>
  <path class="DK" d="M87.65 99.984l59.812-51.857-2.246-14.18-16.004-.14-44.628 42.397V13.33L73.626 2.5l-9.164 12.073v58.03l-51.578-51.72v152.61l51.578-51.33v64.747l9.834 10.59 10.288-9.828v-64.098l45.33 45.707 13.897.984-.28-16.004-55.88-54.276zM32.625 125.27V73.467l27.54 26.517-27.54 25.286z"/>
  <g class="dead-kennedys__shine">
    <polygon points="23.34 149.627 15.109 167.152 15.109 29.033 23.34 48.723"/>
    <polygon points="65.877 15.556 73.626 5.821 73.626 97.531 65.877 75.296"/>
    <polygon points="75.863 97.716 83.164 79.675 129.6 35.855 143.087 35.441"/>
    <polygon points="25.604 145.416 31.277 130.535 63.65 100.913 71.816 100.921"/>
    <polygon points="66.317 120.848 74.049 102.843 74.049 193.71 66.317 186.263"/>
    <polygon points="75.372 100.913 86.578 100.913 141.241 155.828 141.481 167.457"/>
    <polygon points="23.99 46.512 15.988 27.662 64.204 74.95 71.652 97.716"/>
  </g>
</svg>
