<svg xmlns="http://www.w3.org/2000/svg" viewBox="0 0 200 43.667">
  <path d="M21.093 2.55h-1.298v13.146c-1.256-3.266-4.23-5.234-8.207-5.234-5.86 0-9.588 4.27-9.588 11.39 0 7.16 3.727 11.395 9.59 11.395 3.977 0 6.824-1.89 8.206-5.408v4.814h1.298V2.55zm-1.298 19.3c0 6.45-3.224 10.217-8.207 10.217-4.983 0-8.25-3.768-8.25-10.216s3.267-10.215 8.25-10.215c4.983 0 8.207 3.768 8.207 10.216z"/>
  <path d="M43.746 26.29h-1.298c-1.005 3.6-3.852 5.777-7.41 5.777-4.523 0-7.83-3.768-7.83-9.798v-.336h16.957v-.796c0-6.783-3.517-10.677-9.128-10.677-5.57 0-9.212 4.272-9.212 11.39s3.643 11.396 9.212 11.396c4.312 0 7.746-2.728 8.71-6.957zm-16.498-5.57c.335-5.694 3.476-9.086 8.04-9.086 4.313 0 7.453 3.433 7.453 9.086H27.25z"/>
  <path d="M65.645 26.29h-1.298c-1.005 3.6-3.852 5.777-7.41 5.777-4.523 0-7.83-3.768-7.83-9.798v-.336h16.957v-.796c0-6.783-3.517-10.677-9.128-10.677-5.57 0-9.212 4.272-9.212 11.39s3.643 11.396 9.212 11.396c4.312 0 7.746-2.728 8.71-6.957zm-16.498-5.57c.335-5.694 3.475-9.086 8.04-9.086 4.313 0 7.453 3.433 7.453 9.086H49.147z"/>
  <path d="M70.71 41.285h1.34v-13.32c1.34 3.39 4.23 5.28 8.208 5.28 5.862 0 9.59-4.277 9.59-11.395 0-7.16-3.727-11.39-9.59-11.39-4.02 0-6.825 1.885-8.207 5.444v-4.982h-1.34v30.363zm1.34-19.434c0-6.447 3.225-10.215 8.208-10.215s8.25 3.768 8.25 10.216-3.267 10.217-8.25 10.217S72.05 28.3 72.05 21.85z"/>
  <path d="M111.954 3.512v-1.09c-.377-.04-.712-.04-1.005-.04-3.267 0-4.02 1.465-4.02 5.484v3.057h-3.015v1.214h3.015v20.516h1.298V12.137h3.643v-1.214h-3.642v-3.1c0-3.18.377-4.353 2.973-4.353.252 0 .503.042.754.042z"/>
  <path d="M114.676 21.85c0 7.12 3.685 11.397 9.547 11.397s9.59-4.278 9.59-11.396c0-7.117-3.727-11.388-9.59-11.388-5.862 0-9.547 4.27-9.547 11.39zm1.34 0c0-6.447 3.224-10.215 8.207-10.215 4.983 0 8.25 3.768 8.25 10.216s-3.267 10.217-8.25 10.217c-4.983 0-8.207-3.768-8.207-10.216z"/>
  <path d="M138.542 32.653h1.34v-10.55c0-6.867 1.424-10.133 6.49-10.343v-1.298c-3.182 0-5.4 1.466-6.49 4.355v-3.894h-1.34v21.73z"/>
  <path d="M166.387 26.29h-1.298c-1.006 3.6-3.853 5.777-7.412 5.777-4.522 0-7.83-3.768-7.83-9.798v-.336h16.958v-.796c0-6.783-3.517-10.677-9.128-10.677-5.57 0-9.212 4.272-9.212 11.39s3.643 11.396 9.212 11.396c4.312 0 7.746-2.728 8.71-6.957zm-16.497-5.57c.335-5.694 3.476-9.086 8.04-9.086 4.313 0 7.453 3.433 7.453 9.086H149.89z"/>
  <path d="M171.956 26.205h-1.34c.46 4.438 3.517 7.04 8.332 7.04 4.564 0 7.746-2.644 7.746-6.16 0-3.518-2.303-4.774-6.992-5.99-4.438-1.17-7.076-1.757-7.076-5.065 0-2.512 2.345-4.396 5.904-4.396 3.56 0 5.736 1.76 6.197 5.066h1.298c-.377-3.852-3.182-6.24-7.328-6.24-4.564 0-7.453 2.47-7.453 5.737 0 1.55.628 2.89 1.76 3.768 1.758 1.382 4.48 1.968 7.996 2.89 2.93.795 4.313 2.01 4.313 4.186 0 2.974-2.512 4.942-6.406 4.942-3.853 0-6.24-1.967-6.95-5.777z"/>
  <path d="M194.064 27.838V12.095H198v-1.172h-3.936V4.977h-1.34v5.946h-2.722v1.172h2.722V29.22c0 2.72.796 3.943 3.056 3.943.628 0 1.382-.126 2.22-.335v-1.22c-.755.208-1.383.334-2.01.334-1.716 0-1.926-1.34-1.926-4.104z"/>
</svg>
