<svg xmlns="http://www.w3.org/2000/svg" viewBox="0 0 200 166.211">
  <path d="M159.236 44.643v84.23c11.26-11.346 18.05-26.043 18.05-42.115-.002-15.986-6.79-30.683-18.05-42.115zm-118.868 81.48v-78.73c-9.712 11.002-15.47 24.582-15.47 39.366 0 14.782 5.76 28.447 15.47 39.363zm57.673 35.754H65.294v-4.04s7.993 0 15.127-2.15c-4.47-.773-8.852-1.804-13.064-3.007H22.32v-2.922s15.987-.688 17.878-9.368c-20.2-12.978-33.005-32.317-33.005-53.804 0-21.66 12.892-41.083 33.262-54.062-.172-3.953-1.89-12.462-15.213-12.462H22.75v-3.266h38.505v2.922s-5.673.946-6.704 5.33c10.658-4.643 22.69-7.737 35.498-8.854-3.696-3.953-10.228-7.735-21.402-8.25H64.52l-.687-3.61h71.94l-.774 3.61h-4.04c-11 .515-17.447 4.124-21.23 7.992 12.463.86 24.152 3.524 34.724 7.65-1.805-3.094-6.103-3.868-6.103-3.868v-2.922h38.504v3.266h-2.492c-11.604 0-14.44 6.446-15.04 10.744 21.916 12.978 36.01 33.09 36.01 55.78 0 22.347-13.837 42.373-35.41 55.35 3.352 7.22 17.36 7.822 17.36 7.822v2.922h-42.028c-4.813 1.376-9.798 2.493-14.955 3.267 6.79 1.89 14.01 1.89 14.01 1.89v4.04H98.04zm-18.823-61.024l-14.697 22.09c-4.555 7.907-5.586 14.353-5.673 18.135 4.9 2.75 10.142 5.07 15.643 6.79h3.352v1.03c3.524.947 7.22 1.72 11.002 2.236 1.375-1.375 2.235-3.093 2.492-5.07V133.6s-1.46-10.658-5.844-18.737l-6.275-14.01zm15.815-20.8c-3.094.86-4.728 4.3-4.728 4.3l-5.243 7.82 5.587 11.604s5.158 2.235 4.384-5.5V80.053h.002zM81.624 85.04l13.41-21.66V25.65s-.174-1.548-1.118-3.783c-13.752 1.117-26.472 5.33-37.044 11.86L81.624 85.04zm-30.598 47.53c2.148-1.377 3.61-4.128 3.61-4.128l21.487-34.55L54.98 46.878s-3.267-5.5-3.954 2.578v83.113zm71.94-37.56l20.8 33.432s2.06 3.697 4.726 4.642c.086-.6.086-1.03.086-1.03V49.455c-.687-8.078-3.954-2.578-3.954-2.578l-21.66 48.13zM104.57 65.27l12.892 20.8 25.87-53.548c-10.83-6.188-23.72-10.055-37.56-10.83-1.03 2.322-1.202 3.954-1.202 3.954v39.624zm9.454 27.933l-5.93-8.853s-1.204-2.578-3.524-3.868v17.79c-.774 7.737 4.384 5.502 4.384 5.502l5.07-10.57zm25.527 49.85c.17-3.008-.086-10.4-5.673-20.112l-14.01-20.972-5.76 12.894c-4.382 8.08-5.843 18.737-5.843 18.737v12.463c.257 2.148 1.29 3.953 2.836 5.33 3.61-.345 7.22-1.033 10.658-1.892v-1.632h6.018c4.04-1.29 7.994-2.922 11.775-4.813z"/>
</svg>
