<!--
  SVG Music Logos
  Emerson, Lake & Palmer - ELP v0.1.0
  https://github.com/tiagoporto/svg-music-logos
  Copyright (c) 2016-2018 Tiago Porto (http://tiagoporto.com)
-->
<svg xmlns="http://www.w3.org/2000/svg" viewBox="0 0 154.123 200">
  <path d="M90.602 187.505h17.304V198H90.602s.085-6.974 0-10.495z"/>
  <path d="M90.608 3.273C121.546 8.76 151.55 36.896 151.55 76.02c0 29.417-17.69 55.435-43.643 67.207-.052 4.368.01 8.743 0 13.11-1.06.137-17.298.068-17.298.068V3.273h-.002zm17.298 22.144v101.008c16.99-9.937 28.745-29.257 28.745-49.925 0-18.725-8.696-39.167-28.744-51.083z"/>
  <path d="M63.426 3.257C68.92 2.29 73.25 2.043 80.19 2.043l-.06 160.73h27.776v17.074h-44.48l.013-176.59h-.014z"/>
  <path d="M53.83 5.752c0 5.256.042 10.503 0 15.76-22.456 9.8-33.35 28.937-35.66 45.79h33.493V80.95H17.725C19.5 103.235 34.11 122 53.83 130.407c.017 5.23-.035 10.452 0 15.682-31.707-9.814-51.265-39.8-51.26-70.17.01-40.864 30.608-63.664 51.26-70.168z"/>
</svg>
