<!--
  SVG Music Logos
  Eminence - Chaotic System v0.1.0
  https://github.com/tiagoporto/svg-music-logos
  Copyright (c) 2016-2018 Tiago Porto (http://tiagoporto.com)
-->
<svg xmlns="http://www.w3.org/2000/svg" viewBox="0 0 200 37">
  <g>
    <polygon points="192.346 28.925 191.214 28.925 191.432 35.807 192.346 35.807"/>
    <polygon points="190.175 35.807 191.089 35.807 191.089 28.925 189.958 28.925"/>
    <polygon points="192.433 28.925 192.65 35.807 192.974 35.807 192.974 28.925"/>
    <polygon points="197.372 28.925 195.536 28.925 195.754 35.807 196.744 35.807 196.744 28.9 196.953 35.807 197.372 35.807"/>
    <polygon points="197.601 35.807 198 35.807 198 28.925 197.383 28.925"/>
    <polygon points="194.231 28.925 193.061 28.925 193.278 35.807 194.231 35.807"/>
    <polygon points="179.151 19.475 179.646 35.807 181.036 35.807 181.036 20.103 181.512 35.807 182.293 35.807 182.293 18.847 182.806 35.807 183.549 35.807 183.549 18.847 184.063 35.807 185.434 35.807 185.434 18.847 185.948 35.807 186.691 35.807 186.691 18.847 187.205 35.807 187.947 35.807 187.947 18.847 188.461 35.807 189.832 35.807 189.832 28.925 189.441 28.925 189.441 20.346 196.956 20.346 196.956 13.561 189.859 13.561 189.859 8.03 198 8.03 198 1.193 178.117 1.193 178.117 35.807 179.151 35.807"/>
    <polygon points="195.487 28.925 194.318 28.925 194.535 35.807 195.487 35.807"/>
  </g>
  <g>
    <polygon points="163.938 35.807 164.7 35.807 164.7 29.27 163.74 29.27"/>
    <polygon points="163.328 35.807 163.443 35.807 163.443 29.27 163.13 29.27"/>
    <polygon points="165.061 35.807 165.956 35.807 165.956 29.27 164.863 29.27"/>
    <polygon points="169.939 1.193 157.727 1.193 150.63 6.621 150.63 31.357 151.505 31.848 151.505 20.732 151.847 32.041 152.761 32.553 152.761 20.732 153.126 32.758 154.018 33.258 154.018 20.732 154.404 33.475 155.903 34.315 155.903 21.36 156.302 34.539 157.16 35.02 157.16 21.36 157.581 35.256 158.416 35.725 158.416 21.988 158.835 35.807 160.301 35.807 160.301 21.988 160.72 35.807 161.558 35.807 161.558 29.27 161.485 29.27 161.485 7.658 166.077 7.658 166.077 14.501 176.723 14.501 176.723 6.516"/>
    <polygon points="166.077 27.864 166.318 35.807 166.585 35.807 166.585 23.873 166.946 35.807 167.841 35.807 167.841 21.36 168.279 35.807 168.686 35.807 169.098 35.563 169.098 21.36 169.521 35.313 170.354 34.818 170.354 21.988 170.736 34.592 172.239 33.701 172.239 21.36 172.607 33.484 173.496 32.957 173.496 21.36 173.841 32.752 174.753 32.212 174.753 21.988 175.057 32.032 176.723 31.044 176.723 21.024 166.077 21.024"/>
    <polygon points="161.958 35.807 162.815 35.807 162.815 29.27 161.76 29.27"/>
  </g>
  <polygon points="138.301 1.193 138.301 16.484 131.621 1.193 121.81 1.193 121.81 35.807 123.23 35.807 123.23 18.847 123.744 35.807 124.487 35.807 124.487 20.732 124.944 35.807 125.744 35.807 125.744 25.13 126.067 35.807 127.629 35.807 127.629 20.103 128.105 35.807 130.142 35.807 130.142 21.988 130.561 35.807 132.456 35.807 132.456 19.198 135.797 27.133 135.797 21.988 135.965 27.532 137.682 31.61 137.682 21.988 137.996 32.356 139.449 35.807 139.567 35.807 139.567 21.36 140.005 35.807 140.823 35.807 140.823 21.36 141.261 35.807 142.708 35.807 142.708 21.36 143.146 35.807 143.965 35.807 143.965 21.36 144.403 35.807 145.85 35.807 145.85 21.36 146.288 35.807 147.107 35.807 147.107 21.36 147.544 35.807 148.634 35.807 148.634 1.193"/>
  <g>
    <polygon points="112.397 35.807 113.806 35.807 113.806 29.084 112.193 29.084"/>
    <polygon points="115.062 29.084 114.04 29.084 114.243 35.807 115.062 35.807"/>
    <polygon points="116.319 29.084 115.315 29.084 115.519 35.807 116.319 35.807"/>
    <polygon points="101.484 17.59 102.036 35.807 102.496 35.807 102.496 18.218 103.029 35.807 104.381 35.807 104.381 18.218 104.914 35.807 107.522 35.807 107.522 19.475 108.017 35.807 109.407 35.807 109.407 20.103 109.883 35.807 111.921 35.807 111.921 29.084 111.724 29.084 111.724 20.346 111.921 20.346 111.921 20.103 111.928 20.346 119.239 20.346 119.239 13.561 112.142 13.561 112.142 8.03 120.283 8.03 120.283 1.193 100.4 1.193 100.4 35.807 101.484 35.807"/>
    <polygon points="120.283 29.084 119.676 29.084 119.879 35.807 120.283 35.807"/>
    <polygon points="119.46 29.084 118.438 29.084 118.642 35.807 119.46 35.807"/>
    <polygon points="118.204 29.084 116.572 29.084 116.776 35.807 118.204 35.807"/>
  </g>
  <polygon points="88.788 1.193 88.788 16.484 82.108 1.193 72.296 1.193 72.296 35.807 73.838 35.807 73.838 18.847 74.352 35.807 75.095 35.807 75.095 18.847 75.609 35.807 76.351 35.807 76.351 18.847 76.865 35.807 78.236 35.807 78.236 20.103 78.712 35.807 79.493 35.807 79.493 20.103 79.969 35.807 81.378 35.807 81.378 20.103 81.854 35.807 82.943 35.807 82.943 19.198 86.405 27.42 86.405 19.475 86.664 28.036 87.661 30.405 87.661 19.475 88.018 31.252 88.918 33.389 88.918 19.475 89.372 34.468 89.936 35.807 90.174 35.807 90.174 18.847 90.688 35.807 91.431 35.807 91.431 18.847 91.945 35.807 92.688 35.807 92.688 18.218 93.221 35.807 94.573 35.807 94.573 18.847 95.087 35.807 95.829 35.807 95.829 19.475 96.324 35.807 97.714 35.807 97.714 18.218 98.247 35.807 99.121 35.807 99.121 1.193"/>
  <polygon points="61.553 18.847 62.067 35.807 62.81 35.807 62.81 18.847 63.324 35.807 64.695 35.807 64.695 18.847 65.209 35.807 65.952 35.807 65.952 17.59 66.504 35.807 67.555 35.807 67.555 18.847 68.069 35.807 69.44 35.807 69.44 18.847 69.954 35.807 70.418 35.807 70.418 1.193 59.771 1.193 59.771 35.807 61.553 35.807"/>
  <polygon points="44.533 1.193 40.462 18.18 35.974 1.193 23.345 1.193 23.345 35.807 24.483 35.807 24.483 19.475 24.977 35.807 25.739 35.807 25.739 20.103 26.215 35.807 26.996 35.807 26.996 19.475 27.491 35.807 28.881 35.807 28.881 19.475 29.376 35.807 31.394 35.807 31.394 19.475 31.889 35.807 33.887 35.807 33.887 14.396 38.061 35.807 38.934 35.807 38.934 19.475 39.429 35.807 40.191 35.807 40.191 19.475 40.685 35.807 42.075 35.807 42.075 19.475 42.57 35.807 43.385 35.807 46.933 14.292 46.933 35.807 49.615 35.807 49.615 19.475 50.11 35.807 50.872 35.807 50.872 19.475 51.367 35.807 52.757 35.807 52.757 18.847 53.271 35.807 54.014 35.807 54.014 18.847 54.527 35.807 55.899 35.807 55.899 17.59 56.451 35.807 57.58 35.807 57.58 1.193"/>
  <g>
    <polygon points="16.314 29.264 15.354 29.264 15.553 35.807 16.314 35.807"/>
    <polygon points="15.058 29.264 13.507 29.264 13.706 35.807 15.058 35.807"/>
    <polygon points="17.571 29.264 16.63 29.264 16.828 35.807 17.571 35.807"/>
    <polygon points="20.713 29.264 19.715 29.264 19.913 35.807 20.713 35.807"/>
    <polygon points="3.12 15.705 3.729 35.807 4.376 35.807 4.376 15.705 4.985 35.807 5.633 35.807 5.633 16.333 6.223 35.807 7.518 35.807 7.518 17.59 8.07 35.807 8.775 35.807 8.775 18.218 9.308 35.807 10.031 35.807 10.031 18.218 10.564 35.807 11.916 35.807 11.916 18.218 12.449 35.807 13.173 35.807 13.325 20.346 15.084 20.346 16.314 20.346 17.616 20.346 20.713 20.346 20.713 20.103 20.72 20.346 20.84 20.346 20.84 13.561 13.742 13.561 13.742 8.03 21.883 8.03 21.883 1.193 2 1.193 2 35.807 3.12 35.807"/>
    <polygon points="19.456 29.264 17.887 29.264 18.085 35.807 19.456 35.807"/>
    <polygon points="21.883 29.264 20.99 29.264 21.188 35.807 21.883 35.807"/>
  </g>
</svg>
