<!--
  SVG Music Logos
  Eminence - Novos Horizontes v0.1.0
  https://github.com/tiagoporto/svg-music-logos
  Copyright (c) 2016-2018 Tiago Porto (http://tiagoporto.com)
-->
<svg xmlns="http://www.w3.org/2000/svg" viewBox="0 0 200 137">
  <path d="M20.442 59.64l.002 7.507H12.65c-5.762 0-10.15-5.33-10.15-10.48V24.322c0-5.936 4.927-10.795 10.175-10.763l7.672.046-.047 7.378h-7.32c-1.276-.008-3.067 1.133-3.067 2.702v12.97h7.413l-.047 7.33H9.912V56.22c0 1.438 1.103 3.41 2.856 3.422h7.672z"/>
  <path d="M21.94 13.57l7.663-.01c5.162-.01 10.104 4.565 10.08 10.15v43.437h-7.378V24.064c0-1.383-.87-3.093-3.034-3.08h-7.33v-7.413z"/>
  <path d="M59.064 59.64h-7.62c-1.598.01-2.862-1.69-2.862-3.138V24.04c0-2.136 1.703-3.073 3.253-3.056h7.23l.002-7.415-8.078.006c-5.657 0-9.724 4.288-9.716 9.92v33.478S44.33 67.18 51.677 67.18c-.106 1.6-1.002 2.855-2.775 2.86h-7.628v7.58h7.097c7.463 0 10.694-4.746 10.694-10.44v-7.54z"/>
  <path d="M76.864 59.64h-7.566c-1.46-.017-2.785-1.385-2.785-3.093v-12.56h7.424l-.012-7.33h-7.413V23.704c.005-1.368 1.678-2.706 3.1-2.72h7.318v-7.378h-8.05c-5.88 0-9.78 5.717-9.77 10.056v33.43c.015 5.118 3.787 10.065 10.294 10.054h7.46V59.64z"/>
  <path d="M78.493 20.984v-7.378h7.768c4.906 0 9.993 3.91 9.986 10.74v42.8H88.88V23.923c.002-1.678-1.13-2.938-3.02-2.938h-7.367z"/>
  <path d="M96.294 3.087v17.91h7.184c1.56-.01 3.266 1.048 3.267 2.84v43.31h7.397V24.135c.007-6.83-5.023-10.137-10.458-10.576V3.086h-7.39z"/>
  <path d="M134.864 13.57h-6.68c-6.237 0-11.02 4.783-11.01 9.762V56.65c.01 4.937 3.85 10.497 10.778 10.497h6.913V59.64h-7.526c-1.554.002-2.89-1.576-2.894-3.044V43.988h7.4v-7.33h-7.4V24.063c-.003-1.703.852-3.07 2.73-3.08h7.69v-7.413h-.002z"/>
  <path d="M141.03 67.147l-.005-43.3c0-5.942 4.058-10.24 9.637-10.24l8.003-.002v7.378h-6.952c-1.3-.018-3.455 1.163-3.458 2.573v43.59h-7.225z"/>
  <path d="M160.294 59.64v7.507h6.966c5.85.02 10.74-4.33 10.752-10.173V24.157c.013-6.223-4.933-10.552-10.21-10.552h-7.52v7.38h7.73c1.377-.01 2.712 1.264 2.717 3.055v32.84c0 1.467-1.583 2.76-3.235 2.76h-7.2z"/>
  <path d="M190.11 13.607c-6.527 0-10.47 4.797-10.48 9.866v20.54h10.392v12.59c.008 1.643-1.147 3.038-3.074 3.038h-7.32v7.507h7.698c5.685-.035 10.145-4.744 10.12-11.282V36.643H186.83l-.005-12.857c0-1.525 1.68-2.814 3.01-2.802h7.61v-7.38l-7.334.003z"/>
  <path d="M32.305 70.042V80.51c-5.537-.12-10.347 4.334-10.364 10.362v32.96c-.014 5.13 4.224 10.13 10.146 10.126h7.597v-7.26H32.27c-1.937.025-3.003-2.02-3-3.6V91.443c.008-2.232 1.364-3.562 3.164-3.61h7.248v-17.79h-7.436.06z"/>
  <path d="M41.274 80.512l7.72-.002c6.193 0 10.07 3.114 10.07 10.717v32.816c-.01 6.205-5.55 9.91-11.164 9.915h-6.626v-7.26h7.644c1.55-.004 2.697-1.073 2.697-3.187V90.7c0-1.715-1.306-2.864-3.506-2.864h-6.837v-7.322z"/>
  <path d="M66.508 70.076v17.757h7.382c1.922 0 3.12 1.35 3.116 2.97l-.094 43.155 7.366.003.047-42.64c0-7.695-3.074-10.792-10.328-10.792l-.07-10.464-7.42.012z"/>
  <path d="M85.883 87.833V80.51l7.556.003c4.488 0 10.144 3.32 10.184 10.572v16.937H96.26c-1.648-.023-2.964 1.04-2.964 2.884v12.805c0 1.79 1.153 2.965 2.82 2.99h7.508v7.27l-7.237-.01c-6.43-.007-10.457-3.396-10.457-9.61v-13.223c0-5.632 3.945-10.39 10.435-10.456L96.27 90.9c-.017-1.898-1.783-3.074-3.115-3.065h-7.272z"/>
  <path d="M105.146 80.51l.094 53.448 12.56.012c2.602.002 4.793-1.107 6.704-2.94v2.928l7.98.006c6.255.005 9.838-4.937 9.843-9.85V80.51h-7.413v43.037c.002 1.526-.938 3.16-2.798 3.153h-5.158c.435-.76.512-1.933.51-2.853V80.512h-7.333v43.296c0 1.338-1.138 2.895-2.64 2.892h-4.938V80.513l-7.41-.002z"/>
  <path d="M143.88 80.51h7.42c6.033 0 10.33 3.55 10.354 10.4v17.112h-7.404c-1.565.14-2.963 1.373-2.975 2.99v12.64c-.01 1.32 1.32 3.067 2.88 3.048h7.498v7.26l-7.17.01c-6.574.012-10.574-5.25-10.574-9.89v-12.736c0-7.342 4.06-10.617 10.34-10.623l.105-9.736c.015-1.416-.94-3.148-3.187-3.148h-7.29V80.51z"/>
  <polygon points="169.265 133.959 169.312 80.51 176.595 80.51 176.595 133.958 169.265 133.959"/>
  <polygon points="160.247 70.042 167.613 70.042 167.613 77.489 160.247 77.489 160.247 70.042"/>
  <polygon points="169.265 77.442 176.595 77.442 176.595 70.042 169.265 70.042 169.265 77.442"/>
  <polygon points="134.939 3.087 142.352 3.087 142.352 10.537 134.939 10.537 134.939 3.087"/>
</svg>
