<svg xmlns="http://www.w3.org/2000/svg" viewBox="0 0 200 118">
  <path d="M197.968 21.26c-.16-.578-.813-1.63-2.18-1.71-3.91-.187-6.208.404-8.52.673-2.222.252-5.045 1.466-5.798 1.187-.487-.19-1.533-3.99-3.774-6.596-1.91-2.22-3.58-3.4-6.028-4.328-3.778-1.452-6.69-.745-9.282-.22-1.754.335-3.354.808-4.143 1.047-.812.264-2.342 1.322-1.013 2.696 1.018 1.053 1.868.922 2.936.996.845.055 2.025-.184 2.82-.177 2.382.02 3.63.284 5.85 1.956 2.27 1.67 3.206 4.492 3.344 6.54.093 1.57.278 1.68-.194 1.69-1.59-.062-4.886.113-9.06.92-2.472.45-5.836 1.515-7.728 2.344-3.93 1.736-6.28 5.414-4.887 8.014.38.713 2.076 1.09 3.544 1.303 2.19.27 4.344-.36 7.398-1.338.542-.185 2.793-.92 3.335-1.106 2.215-.763 2.866-1.073 5.125-2.083 3.414-1.526 4.335-2.276 5.178-.685.387.78.55 1.72 1.83 2.404.427.235 1.586.322 2.656-.66.778-.732 1.103-2.708 2.022-4.59.842-1.78 2.34-2.718 3.462-3.58 1.39-1.04 2.156-1.39 3.755-1.993 2.78-1.07 3.627.233 5.263.202 2.085-.07 3.04-.93 3.41-1.35.37-.42.838-.98.68-1.56zm-32.89 8.57c-.983.604-.655.766-2.39 1.298-.394.12-.953.283-1.2.318-.245.035-1.426.06-1.652-.323-.254-.216.186-.953.783-1.128.597-.175.8-.553 1.853-.728 1.053-.176 3.125.265 2.605.563z"/>
  <path d="M133.504 24.002c-.733-1.344-3.71-4.708-6.863-5.334-.985-.208-3.63-.342-5.99-.137-1.602.106-2.815.512-4.077 1.017-3.08 1.14-3.252.748-4.13-.302-1.442-1.685-.395-5.292-2.52-7.54-1.025-1.098-2.465-1.957-4.44.904-2.086 3.064-2.263 4.038-2.263 6.253 0 2.212.545 4.566 1.377 5.927 1.412 2.372 3.472 3.78 6.26 3.774 2.744-.036 3.922-.405 7.258-2.823 1.945-1.4 4.825.97 5.704 2.093 2.076 2.614 3.538 7.694 4.173 11.357 1.93 10.55.057 20.976-1.36 28.425-.83 4.323-2.62 11.104-4.378 15.426-2.81 6.742-5.906 16.778-10.304 26.213-1.153 2.365-2.39 2.694-2.513 4.208-.05.832 1.284 2.807 3.824 2.905 1.832.05 2.736-2.07 3.274-3.316 4.372-9.916 7.355-17.403 11.574-25.892 2.07-4.226 5.11-12.073 6.6-18.764 2.075-9.257 2.81-20.685 2.573-29.918-.116-5.48-1.212-9.736-3.776-14.474z"/>
  <path d="M92.754 34.148c-.653-.666-1.288-1.504-1.42-1.915-.16-.484-.024-1.71-.775-2.373-1.753-1.467-4.854-4.607-6.056-5.648-1.176-1.018-2.524-2.242-3.543-2.873-.496-.304-1.057-.37-1.755-.864-.798-.59-1.128-.727-3.052-.478-1.29.133-2.333.995-4.04 1.115-1.05.078-1.836-.144-2.137-.43-.326-.31-1.398-1.06-1.575-1.3-1.09-1.46-1.28-1.928-1.626-2.97-.16-.46-1.667-2.142-2.242-2.615-2.054-1.824-3.27-5.186-3.294-9.535-.04-1.416-2.074-2.432-2.59-2.54-1.745-.343-2.95.314-4.762 1.33-4.32 2.423-10.627 8.657-13.19 11.343-1.54 1.612-3.502 3.98-5.945 6.472-3.906 4.078-6.083 7.01-10.845 9.282-.953.44-2.76 1.304-3.896 1.537-3.02.62-5.578.86-6.28-.077-.613-.794-.24-2.49.977-3.37 1.992-1.39 3.46-2.126 5.89-4.002.815-.622 1.735-1.53 2.518-2.266 5.2-5.03 10.08-10.4 11.875-14.93.78-1.87-.547-2.78-1.572-3.587-.977-.83-3.053-1.343-4.69-.733-1.977.757-3.882 1.76-5.665 2.93C17.957 8.95 13.83 13.47 11.9 16.498c-1.856 2.906-2.83 5.77-3.154 6.185-.492.632-2.696.186-3.79.27-.913.07-3.64 5.42-2.797 5.735 1.123.42 1.753.82 2.51 1.235-.367 3.224-.546 5.683.88 7.188 2.43 2.573 5.902 3.17 9.33 2.86 2.694-.217 5.38-1.178 7.758-2.5 4.993-2.82 11.224-8.542 16.28-13.967 5.058-5.425 7.67-8.42 11.15-11.878.414-.43 2.484-2.478 3.726-2.635.536-.063.494 2.82.674 4.037 1.374 9.026 3.33 15.045 6.9 19.49.506.67 1.41.62 1.945.58 1.024-.076 1.557-.423 2.848-1.436 1.65-1.315 1.557-2.45 3.003-2.835 1.042-.277 4.287 3.38 6.034 4.7 1.624 1.25 2.598 2.112 5.504 3.84 2.983 1.823 4.035 1.867 6.148 2.32.172.02 3.006.015 5.515-.274 1.656-.192 2.927-1.058 3.027-1.867.18-1.42-.98-1.828-2.636-3.395zM19.042 14.85c.857-.948 3.284-3.656 4.65-4.804 2.907-2.443 5.31-3.576 5.822-3.16.523.717-1.84 3.953-4.697 7.128-.268.293-1.713 1.863-2.177 2.376-1.148 1.22-2.128 2.2-3.544 3.227-1.22.88-1.784.985-2.273.887-.66-.122.004-3.14 2.22-5.654z"/>
</svg>
