<svg width="284" height="284" xmlns="http://www.w3.org/2000/svg">
  <g fill="none" fill-rule="evenodd">
    <g>
      <polygon fill="#1B1918" points="0.2677 0.2677 283.7323 0.2677 283.7323 283.7323 0.2677 283.7323"/>
      <polygon fill="#F8A600" points="59.2369 156.4768 194.7166 125.1988 197.0772 135.4238 61.5974 166.7017"/>
      <path d="M35.373 169.464l-20.565-89.08 44.255-10.216 3.616 15.661-27.008 6.234 4.1 17.762 27.008-6.235L70.337 119l-27.008 6.236 9.292 40.246-17.248 3.982zm123.898-86.89l1.04 4.512c.929-2.11 2.174-3.8 3.71-5.075 1.55-1.267 3.436-2.157 5.679-2.674 2.859-.66 5.486-.696 7.868-.104 2.383.593 4.53 1.798 6.448 3.64 1.245 1.23 2.28 2.731 3.11 4.474.819 1.745 1.639 4.399 2.456 7.936l4.85 21.013-9.242 2.134-4.06-17.587c-1.23-5.324-2.688-8.83-4.363-10.52-1.688-1.688-4.035-2.184-7.043-1.49-3.081.711-5.049 2.308-5.889 4.8-.84 2.491-.655 6.382.568 11.681l3.927 17.008-8.923 2.06-9.17-39.721 9.034-2.086zm-46.14 31.228c.772 3.34 2.527 5.882 5.278 7.622 2.74 1.743 5.71 2.239 8.914 1.5 2.908-.672 5.21-2.398 6.908-5.166 1.682-2.776 2.18-5.682 1.48-8.714-.746-3.229-2.495-5.746-5.26-7.548-2.757-1.817-5.637-2.372-8.62-1.684-3.117.72-5.539 2.434-7.248 5.153-1.697 2.715-2.185 5.658-1.451 8.837zm28.189 14.756l-1.127-4.88c-.654 2.228-1.869 4.053-3.661 5.453-1.793 1.4-4.26 2.464-7.39 3.186-5.867 1.355-11.236.478-16.092-2.62-4.857-3.097-7.978-7.621-9.35-13.562-.645-2.797-.764-5.56-.356-8.29.409-2.73 1.305-5.26 2.703-7.582 1.488-2.55 3.326-4.597 5.499-6.15 2.172-1.553 4.767-2.685 7.774-3.38 2.884-.665 5.485-.76 7.79-.279 2.304.481 4.316 1.548 6.038 3.215l-1.11-4.807 9.034-2.085 9.17 39.721-8.922 2.06zm-42.618-23.523c-3.521 1.112-5.804 2.638-6.854 4.555-1.05 1.917-1.105 4.942-.149 9.083l4.678 20.26-9.243 2.135-9.17-39.722 8.663-2 1.059 4.585c.98-2.108 2.206-3.768 3.68-4.978 1.473-1.21 3.249-2.061 5.344-2.545l1.992 8.627zm104.995 24.906l7.985-50.535-16.875 3.896-1.982-9.007 31.252-7.215-7.964 50.38 18.604-4.295 2.086 9.133-33.106 7.643zM46.578 216.919l-7.663-33.192 17.919-4.136 1.347 5.835-11.492 2.654 1.748 7.57 11.492-2.654 1.325 5.743-11.491 2.653 3.242 14.043-6.427 1.484zm38.034-24.917c-.884-1.558-2.017-2.632-3.402-3.238-1.377-.6-2.963-.693-4.753-.28a6.853 6.853 0 0 0-3.843 2.379c-1.02 1.227-1.56 2.655-1.633 4.286l13.631-3.147zm-12.765 7.823c.612 1.76 1.666 3.025 3.142 3.774 1.477.757 3.2.908 5.161.456 1.3-.3 2.411-.844 3.328-1.63a6.464 6.464 0 0 0 1.943-2.873l6.294-1.454c-.435 2.977-1.532 5.468-3.306 7.476-1.768 1.997-4.044 3.318-6.83 3.961-1.867.431-3.662.501-5.386.203-1.724-.298-3.359-.954-4.91-1.956a13.603 13.603 0 0 1-3.74-3.636 13.524 13.524 0 0 1-2.13-4.753c-.404-1.75-.48-3.462-.237-5.141.242-1.687.81-3.277 1.692-4.775.964-1.649 2.17-3.025 3.614-4.12a12.235 12.235 0 0 1 4.734-2.25c2.17-.5 4.315-.479 6.425.074 2.112.554 4.036 1.576 5.772 3.06a11.493 11.493 0 0 1 2.626 3.213c.698 1.249 1.247 2.736 1.647 4.471.03.133.072.345.12.629.052.29.09.495.123.635l-20.082 4.636zm34.21-17.7c-2.223.702-3.664 1.666-4.327 2.876-.663 1.21-.698 3.12-.094 5.734l2.953 12.791-5.835 1.347-5.79-25.076 5.47-1.263.668 2.895c.619-1.332 1.393-2.38 2.323-3.143.93-.764 2.052-1.301 3.375-1.607l1.257 5.447zm24.249 2.377c-.494-2.14-1.592-3.772-3.276-4.89-1.69-1.11-3.56-1.432-5.59-.964-2.008.464-3.55 1.59-4.639 3.374-1.085 1.792-1.391 3.698-.926 5.713.489 2.116 1.61 3.71 3.36 4.789 1.756 1.078 3.723 1.361 5.893.86 1.914-.442 3.37-1.523 4.373-3.247 1.005-1.715 1.275-3.597.805-5.635zm-2.209-10.702l-2.337-10.122 5.742-1.326 7.663 33.192-5.742 1.325-.474-2.054a12.87 12.87 0 0 1-3.176 2.889c-1.174.738-2.507 1.283-3.993 1.626-1.58.365-3.123.46-4.64.277a12.087 12.087 0 0 1-4.27-1.317 13.717 13.717 0 0 1-4.565-3.83 13.876 13.876 0 0 1-2.534-5.406 13.383 13.383 0 0 1-.104-5.598 13.38 13.38 0 0 1 2.161-5.154 12.031 12.031 0 0 1 3.352-3.372c1.342-.9 2.849-1.542 4.521-1.929 1.61-.371 3.091-.492 4.433-.36 1.34.126 2.66.518 3.963 1.16zm16.15-8.53l-5.695 1.314-1.284-5.563 5.695-1.314 1.285 5.562zm.684 28.943l-5.79-25.077 5.696-1.315 5.789 25.077-5.695 1.315zm11.74-29.124l.657 2.848c.586-1.332 1.372-2.399 2.341-3.204.98-.8 2.17-1.362 3.585-1.688 1.805-.417 3.464-.44 4.968-.065 1.504.374 2.86 1.134 4.07 2.297.787.777 1.44 1.725 1.964 2.825.517 1.102 1.035 2.777 1.55 5.01l3.063 13.265-5.835 1.348-2.564-11.103c-.776-3.361-1.696-5.575-2.754-6.642-1.066-1.065-2.547-1.378-4.446-.94-1.945.45-3.187 1.457-3.718 3.03-.53 1.573-.413 4.03.36 7.375l2.478 10.737-5.633 1.3-5.79-25.076 5.704-1.317zm29.697 6.133c.487 2.109 1.595 3.713 3.332 4.812 1.729 1.1 3.604 1.414 5.627.947 1.837-.424 3.29-1.514 4.361-3.261 1.062-1.753 1.376-3.588.935-5.501-.471-2.04-1.576-3.628-3.321-4.766-1.74-1.147-3.559-1.497-5.442-1.063-1.968.455-3.497 1.537-4.576 3.253-1.07 1.714-1.38 3.572-.916 5.58zm17.795 9.316l-.711-3.081c-.413 1.407-1.18 2.559-2.312 3.442-1.13.885-2.689 1.556-4.665 2.012-3.704.855-7.093.302-10.159-1.654-3.066-1.955-5.036-4.811-5.902-8.562a13.916 13.916 0 0 1-.225-5.233c.258-1.724.823-3.321 1.706-4.787.94-1.61 2.1-2.902 3.472-3.883 1.371-.98 3.01-1.695 4.908-2.133 1.82-.42 3.462-.48 4.917-.176a7.612 7.612 0 0 1 3.812 2.03l-.7-3.036 5.703-1.316 5.789 25.076-5.633 1.3zm11.608-29.093l.657 2.847c.586-1.331 1.372-2.398 2.342-3.203.979-.8 2.169-1.362 3.585-1.689 1.805-.416 3.463-.439 4.967-.065 1.505.374 2.86 1.135 4.071 2.298.786.777 1.44 1.724 1.964 2.825.516 1.101 1.034 2.776 1.55 5.01l3.062 13.265-5.835 1.347-2.564-11.102c-.775-3.362-1.696-5.575-2.754-6.642-1.065-1.065-2.547-1.379-4.446-.94-1.945.449-3.187 1.457-3.717 3.03-.53 1.573-.414 4.029.359 7.374l2.478 10.738-5.633 1.3-5.79-25.076 5.704-1.317zm44.562 3.037c-.494-2.14-1.592-3.77-3.277-4.89-1.69-1.11-3.559-1.432-5.59-.963-2.007.464-3.55 1.59-4.638 3.374-1.086 1.791-1.392 3.698-.926 5.713.488 2.116 1.61 3.71 3.359 4.789 1.757 1.077 3.724 1.361 5.894.86 1.914-.442 3.37-1.524 4.373-3.247 1.005-1.715 1.275-3.597.805-5.636zm-2.209-10.7l-2.337-10.123 5.742-1.326 7.663 33.192-5.742 1.326-.474-2.055a12.875 12.875 0 0 1-3.176 2.889c-1.174.738-2.507 1.283-3.993 1.627-1.58.364-3.123.458-4.64.276a12.081 12.081 0 0 1-4.27-1.317 13.714 13.714 0 0 1-4.565-3.83 13.879 13.879 0 0 1-2.535-5.406 13.391 13.391 0 0 1-.104-5.598 13.379 13.379 0 0 1 2.162-5.154 12.02 12.02 0 0 1 3.352-3.372c1.342-.9 2.849-1.542 4.521-1.929 1.61-.371 3.091-.492 4.433-.36 1.34.126 2.66.518 3.963 1.16z" fill="#FFF4D0"/>
    </g>
  </g>
</svg>
