<svg xmlns="http://www.w3.org/2000/svg" viewBox="0 0 200 20">
  <path d="M20.622 7.762l-3.794 8.398c-.43.952-.967 1.612-1.614 1.98-.647.37-1.657.553-3.03.553H4.47c-.764 0-1.366-.17-1.808-.508-.44-.338-.662-.798-.662-1.38 0-.173.024-.35.07-.535.048-.184.12-.375.213-.572L7.66 3.838c.436-.95.972-1.61 1.606-1.98.635-.368 1.642-.552 3.023-.552h7.715c.772 0 1.378.172 1.82.515.44.344.662.815.662 1.416 0 .146-.026.31-.077.495-.052.185-.125.38-.22.586l-.36.81h-7.433c-.437 0-.797.09-1.08.27-.283.18-.51.46-.682.836l-3.344 7.51c-.033.07-.06.138-.076.207-.017.067-.026.14-.026.218 0 .223.094.397.283.52.19.125.456.188.798.188.437 0 .795-.088 1.074-.264.28-.176.508-.457.688-.842l1.003-2.186H11.58l1.736-3.82h7.306z"/>
  <path d="M41.51 1.306L34.77 16.16c-.43.953-.967 1.613-1.614 1.98-.647.37-1.657.554-3.03.554H22.41c-.763 0-1.365-.17-1.807-.508-.44-.34-.662-.8-.662-1.382 0-.172.025-.35.072-.534.047-.184.118-.375.212-.572l6.534-14.39h6.058l-5.556 12.28c-.043.087-.075.175-.097.265-.02.09-.032.187-.032.29 0 .24.093.422.277.545.184.124.452.187.804.187.352 0 .66-.092.927-.277.265-.184.485-.46.656-.83l5.66-12.46h6.056z"/>
  <path d="M58.073 4.316l-6.52 14.378h-6.058l5.633-12.41c.026-.07.045-.136.058-.2.013-.064.02-.127.02-.187 0-.25-.08-.44-.24-.572-.158-.133-.387-.2-.687-.2h-1.26l-6.16 13.57H36.8L44.7 1.304h11.19c.77 0 1.377.173 1.82.516.44.344.66.815.66 1.416 0 .146-.025.31-.076.495-.05.185-.124.38-.22.586z"/>
  <path d="M72.696 1.306l-1.736 3.82h-4.18c-.54 0-.904.04-1.093.122-.19.082-.335.234-.437.457l-.22.463c-.042.086-.074.163-.096.23-.022.07-.032.13-.032.18 0 .3.574.63 1.723.99.454.147.81.263 1.068.35 1.268.436 2.126.85 2.57 1.24s.67.872.67 1.447c0 .214-.037.472-.11.772-.072.3-.177.596-.314.887l-1.596 3.64c-.472 1.062-1.096 1.793-1.872 2.192s-2.236.598-4.38.598H54.55l1.75-3.82h5.53c.985 0 1.63-.077 1.935-.232.304-.154.542-.446.714-.874l.397-.926c.06-.13.105-.253.135-.373.03-.12.045-.224.045-.31 0-.446-.647-.892-1.942-1.338-.31-.103-.55-.184-.72-.244-1.45-.514-2.35-.92-2.7-1.22-.353-.3-.528-.683-.528-1.146 0-.214.034-.458.103-.733.068-.275.163-.55.283-.824l1.53-3.42c.318-.713.78-1.212 1.384-1.5.604-.287 1.567-.43 2.887-.43h7.342z"/>
  <path d="M100.32 4.316L93.8 18.694h-6.057l5.633-12.41c.026-.07.045-.136.058-.2.013-.064.02-.127.02-.187 0-.25-.08-.44-.238-.572-.16-.133-.388-.2-.688-.2h-1.26l-6.162 13.57H79.05l7.896-17.39h11.19c.77 0 1.377.173 1.82.516.44.344.66.815.66 1.416 0 .146-.025.31-.077.495s-.124.38-.22.586z"/>
  <path d="M111.497 1.306l-6.108 7.51h-3.898l3.42-7.51h6.585z"/>
  <path d="M126.854 12.74c.026-.052.045-.106.058-.16.013-.057.02-.115.02-.175 0-.232-.088-.426-.265-.585-.175-.16-.396-.238-.662-.238h-1.582l-3.228 7.112h-5.98l7.896-17.388h11.19c.77 0 1.378.172 1.82.515.44.344.662.815.662 1.416 0 .154-.024.32-.07.5s-.123.374-.226.58l-2.65 5.903c-.24.496-.528.848-.867 1.053-.34.205-.818.31-1.435.31h-.154c.3.188.525.413.676.674.15.262.225.555.225.88 0 .155-.024.33-.076.522s-.124.387-.22.584l-2.018 4.45h-5.75l2.638-5.955zm-.733-4.798h2.972l.68-1.698c.027-.068.046-.135.06-.2.012-.063.018-.13.018-.198 0-.23-.083-.418-.25-.56-.167-.14-.388-.21-.662-.21h-1.556l-1.26 2.866z"/>
  <path d="M154.427 4.316l-5.362 11.845c-.43.96-.965 1.624-1.608 1.988s-1.655.546-3.035.546h-7.717c-.763 0-1.365-.17-1.807-.508-.44-.34-.662-.8-.662-1.382 0-.146.026-.31.077-.495.052-.185.13-.39.232-.612l5.35-11.858c.437-.952.973-1.612 1.608-1.98.634-.37 1.642-.553 3.022-.553h7.717c.77 0 1.382.172 1.832.515s.675.806.675 1.39c0 .145-.026.31-.078.494-.05.183-.133.387-.245.61zm-6.945 1.967c.043-.112.07-.193.083-.244.013-.053.02-.1.02-.143 0-.23-.09-.418-.27-.56-.18-.14-.424-.212-.733-.212-.395 0-.735.094-1.023.283-.288.19-.518.463-.69.823l-3.344 7.435c-.035.068-.06.14-.077.22-.02.076-.027.162-.027.256 0 .233.095.412.283.54.19.13.463.194.823.194.35 0 .653-.09.906-.27.252-.18.47-.46.65-.836l3.396-7.485z"/>
  <path d="M169.05 1.306l-1.736 3.82h-4.18c-.54 0-.904.04-1.093.122-.188.082-.334.234-.436.457l-.22.463c-.042.086-.074.163-.096.23-.022.07-.032.13-.032.18 0 .3.574.63 1.723.99.453.147.81.263 1.067.35 1.268.436 2.126.85 2.57 1.24.447.39.67.872.67 1.447 0 .214-.037.472-.11.772-.072.3-.177.596-.314.887l-1.595 3.64c-.472 1.062-1.096 1.793-1.872 2.192-.776.4-2.236.598-4.38.598h-8.114l1.75-3.82h5.53c.985 0 1.63-.077 1.934-.232.305-.154.542-.446.714-.874l.4-.926c.06-.13.104-.253.134-.373.03-.12.045-.224.045-.31 0-.446-.648-.892-1.943-1.338-.31-.103-.55-.184-.72-.244-1.448-.514-2.35-.92-2.7-1.22-.352-.3-.528-.683-.528-1.146 0-.214.034-.458.102-.733.068-.275.163-.55.283-.824l1.53-3.42c.317-.713.778-1.212 1.383-1.5.604-.287 1.567-.43 2.887-.43h7.345z"/>
  <path d="M184.83 1.306l-1.735 3.82h-4.424l-1.182 2.637h4.424l-1.736 3.82h-4.424l-1.505 3.292h4.424l-1.735 3.82h-10.48l7.895-17.388h10.48z"/>
  <path d="M198 1.306l-1.736 3.82h-4.18c-.54 0-.904.04-1.093.122-.188.082-.334.234-.436.457l-.22.463c-.042.086-.074.163-.096.23-.022.07-.032.13-.032.18 0 .3.574.63 1.723.99.453.147.81.263 1.067.35 1.268.436 2.126.85 2.57 1.24s.67.872.67 1.447c0 .214-.037.472-.11.772-.072.3-.177.596-.314.887l-1.595 3.64c-.472 1.062-1.096 1.793-1.872 2.192s-2.236.598-4.38.598h-8.114l1.75-3.82h5.53c.985 0 1.63-.077 1.934-.232.305-.154.542-.446.714-.874l.4-.926c.06-.13.104-.253.134-.373.03-.12.045-.224.045-.31 0-.446-.648-.892-1.943-1.338-.31-.103-.55-.184-.72-.244-1.448-.514-2.35-.92-2.7-1.22-.352-.3-.528-.683-.528-1.146 0-.214.034-.458.102-.733.068-.275.163-.55.283-.824l1.53-3.42c.317-.713.778-1.212 1.383-1.5.604-.287 1.567-.43 2.887-.43H198z"/>
</svg>
