<svg xmlns="http://www.w3.org/2000/svg" viewBox="0 0 200 67">
  <path d="M55.866 4.298c.085 1.27.644 1.866 1.507 2.522v38.716c-.796.745-1.417 2.082-1.507 2.844h9.31c-.088-.762-.71-2.1-1.506-2.844V6.82c.863-.656 1.422-1.253 1.507-2.522h-9.31z"/>
  <path d="M139.23 4.298c.086 1.27.645 1.866 1.508 2.522v38.716c-.796.745-1.417 2.082-1.507 2.844h9.312c-.09-.762-.71-2.1-1.507-2.844V6.82c.863-.656 1.422-1.253 1.507-2.522h-9.31z"/>
  <path d="M54.63 22.58h-7.565V6.82c.863-.656 1.422-1.253 1.507-2.522h-9.31c.084 1.27.643 1.866 1.506 2.522v15.76H26.732V4.3H11.548c1.37 2.438 4.014 4.717 8.884 5.282v13.002H1s1.896 5.874 19.433 5.874v17.08c-.795.746-1.416 2.083-1.506 2.845h9.31c-.088-.76-.71-2.098-1.506-2.843V28.455h14.036v34.247c3.842-1.625 6.298-7.216 6.298-13.882V28.455h7.566V22.58z"/>
  <path d="M121.215 28.455h16.47V22.58h-10.1c.95-.777 1.904-2.614 1.904-7.135 0-5.8-4.22-11.148-10.14-11.148H98.576c1.844 2.742 3.25 4.165 6.16 5.045v13.24h-8.433c1.087-1.005 2.358-3.415 2.358-7.137 0-5.8-4.49-11.148-10.41-11.148H68.036c1.372 2.438 2.997 4.622 6.447 5.282v13h-8.477v5.875h8.48v16.777c-1.192.686-2.208 2.133-2.31 3.15h16.075c5.92 0 11.58-5.18 11.58-13.053 0-3.466-.896-5.675-1.828-6.874h6.734v17.08c-.795.746-1.416 2.083-1.506 2.845h9.31c-.088-.76-.71-2.098-1.506-2.843V28.455h3.855c7.61 25.928 23.414 26.617 31.156 25.41-14.036-5.185-22.403-19.1-24.83-25.41zM80.785 9.817h5.164c3.715 0 6.398 2.98 6.398 5.282v2.2c0 2.406-1.856 4.15-5.6 5.282h-5.964V9.817zm12.63 27.136c0 3.098-3.75 5.908-7.466 5.908h-5.166V28.456h8.845c2.5 1.208 3.784 2.917 3.784 5.045v3.453zm17.622-14.372V9.818h6.01c3.717 0 6.4 2.98 6.4 5.282v2.2c0 2.406-.907 4.15-4.384 5.282h-8.026z"/>
  <path d="M199 22.58h-19.342c-1.944-6.67-3.546-12.362-3.546-13 4.87-.566 7.513-2.845 8.884-5.283h-18.432l-5.32 18.284h-11.812v5.875h10.103l-4.97 17.08c-.796.746-1.417 2.083-1.507 2.845h9.31c-.088-.762-.71-2.1-1.506-2.844 0 0 2.238-8.215 4.607-17.08h9.955c2.447 8.865 4.76 17.08 4.76 17.08-.797.745-1.418 2.082-1.508 2.844h9.31c-.088-.762-.477-1.96-1.478-2.695 0 0-2.565-8.546-5.128-17.23h.012c15.168 0 17.606-5.874 17.606-5.874zm-31.97 0c1.373-5.183 2.63-10.015 3.336-12.94.73 2.926 2.028 7.757 3.445 12.94h-6.78z"/>
</svg>
