<!--
  SVG Music Logos
  Hibria - Defying The Rules v1.0.0
  https://github.com/tiagoporto/svg-music-logos
  Copyright (c) 2016-2018 Tiago Porto (http://tiagoporto.com)
-->
<svg xmlns="http://www.w3.org/2000/svg" viewBox="0 0 200 50">
  <path d="M59.772 2.18c.073 1.088 1.762 3.202 2.5 3.763l-8.125 28.99c-2.656 1.56-5.176 4.334-5.253 4.987h14.118c-.075-.652-.65-2.32-2.213-4.207L67.716 6.11c1.935-.65 3.986-2.065 4.35-3.93H59.773z"/>
  <path d="M127.344 6.462l6.75 29.183c-.682.638-2.323 3.624-2.4 4.276h14.128c-.077-.65-2.482-3.235-4.733-4.516L132.54 5.62c1.31-.55 2.458-2.353 2.53-3.44h-12.706c1.137 1.768 2.886 3.277 4.98 4.282z"/>
  <path d="M50.248 15.488l3.663-9.464c.74-.562 3.75-2.756 3.824-3.842h-11.15c.073 1.087.72 2.605 1.458 3.166l-4.36 10.14h-8.086l5.14-9.76s2.52-1.397 4.02-3.545C37.007 2.18 30.53 1.986 22.72.823c3.352 4.07 7.346 3.81 11.098 5.274l-5.305 9.96c-6.168.78-16.488 3.133-21.79 8.494 7.94-3.472 13.263-4.03 19.713-4.03L18.76 34.703C13.038 39.062 10.287 42.158 2 48.97c7.122 1.65 15.708-7.073 25.732-9.05-.294-2.226-.39-3.976-1.07-4.614l7.022-14.79h7.88l-5.743 14.92c-1.952 1.124-3.81 2.23-6.004 4.485h14.597c.258-1.287-.23-2.966-1.232-4.134l4.92-15.268h8.57l1.413-5.03h-7.835z"/>
  <path d="M129.148 20.517l-1.042-5.03h-10.024c.813-.665 1.758-1.922 1.758-4.85 0-4.967-4.598-8.457-9.666-8.457h-13.23c.928 2.012 2.44 3.38 3.685 4.32v8.99h-7.087c1.985-1.322 2.44-2.89 2.44-4.293 0-5.306-4.14-9.017-9.21-9.017h-13.43c.46 2.06 1.82 3.288 2.46 3.867l-1.483 9.44h-7.418l-1.183 5.03h8.034l-2.93 14.734c-2.88 1.847-4.322 3.8-4.41 4.672H85.21c9.315 0 13.15-5.84 13.15-11.644 0-3.272-.93-5.924-3.125-7.76h5.395v15.115c-1.39.976-3.17 3.635-3.246 4.288H111.2c-.976-1.943-3.273-4.04-3.954-4.677l-1.025-14.725h5.117l6.894 15.164c-1.034 1.822-1.492 2.924-1.507 4.24h13.8c-1.03-1.636-2.972-3.274-5.67-4.987l-7.647-14.417h11.942zM81.106 6.907h4.42c2.26 0 4.11 1.655 4.11 4.29 0 2.32-2.827 4.29-4.96 4.29h-4.962l1.39-8.58h.002zM92.402 27.04c0 4.094-3.153 7.894-7.728 7.894h-7.146l2.185-14.416h7.71c2.528 0 4.98 3.105 4.98 6.522zm13.62-11.552v-8.58h3.08c3.182 0 4.83 2.726 4.83 4.52s-1.025 4.06-3.645 4.06h-4.265z"/>
  <path d="M185.063 25.17c-1.172-3.32-12.726-7.96-20.993-9.31l-8.582-9.563c2.577-2.202 8.972-2.056 9.802-5.327-7.128.635-10.74 1.21-24.264 1.21 1.025 2.45 3.37 3.672 4.427 4.198l1.17 9.11h-9.87l1.404 5.03h9.215l2.148 15.13c-.68.64-1.953 3.622-2.03 4.274h13.812c-.075-.652-4.266-4.092-4.947-4.73l-3.388-14.673h6.643l11.717 14.608c-.587.55-1.037 2.908-1.172 4.793 8.722.48 20.098 9.74 27.844 9.09 0 0-14.956-11.604-18.21-14.533-3.256-2.93-11.913-13.93-11.913-13.93s11.262.78 17.186 4.622zm-32.996-9.682l-.657-5.974 4.166 5.974h-3.51z"/>
</svg>
