<!--
  SVG Music Logos
  Hibria - Hibria v0.1.0
  https://github.com/tiagoporto/svg-music-logos
  Copyright (c) 2016-2018 Tiago Porto (http://tiagoporto.com)
-->
<svg xmlns="http://www.w3.org/2000/svg" viewBox="0 67 200 67">
  <path d="M55.868 71.3c.085 1.27.644 1.865 1.507 2.52v38.717c-.796.745-1.417 2.082-1.507 2.844h9.31c-.088-.76-.71-2.1-1.506-2.843V73.82c.863-.655 1.422-1.252 1.507-2.52h-9.312z"/>
  <path d="M139.232 71.3c.086 1.27.645 1.865 1.508 2.52v38.717c-.796.745-1.417 2.082-1.507 2.844h9.313c-.09-.76-.71-2.1-1.507-2.843V73.82c.862-.655 1.42-1.252 1.506-2.52h-9.313z"/>
  <path d="M54.632 89.58h-7.565V73.82c.863-.655 1.422-1.252 1.507-2.52h-9.31c.084 1.27.643 1.865 1.506 2.52v15.76H26.734V71.3H11.55c1.37 2.44 4.014 4.718 8.884 5.283v13.002H1.002s1.896 5.874 19.433 5.874v17.08c-.795.745-1.416 2.082-1.506 2.844h9.31c-.09-.76-.71-2.098-1.507-2.843V95.457H40.77v34.247c3.842-1.625 6.298-7.216 6.298-13.882V95.457h7.566V89.58h-.002z"/>
  <path d="M137.687 95.456V89.58h-10.1c.95-.776 1.904-2.613 1.904-7.134 0-5.8-4.22-11.148-10.14-11.148H98.578c1.844 2.742 3.25 4.165 6.16 5.045v13.24h-8.433c1.087-1.005 2.358-3.415 2.358-7.137 0-5.8-4.49-11.148-10.41-11.148H68.04c1.37 2.438 2.996 4.622 6.446 5.282v13H66.01v5.874h8.48v16.777c-1.193.688-2.21 2.135-2.31 3.15H88.25c5.92 0 11.58-5.18 11.58-13.05 0-3.467-.895-5.676-1.827-6.875h6.734v17.08c-.796.746-1.417 2.083-1.507 2.845h9.31c-.087-.76-.71-2.1-1.505-2.844v-17.08h3.855c7.61 25.927 23.414 26.616 31.156 25.41-14.037-5.186-22.404-19.1-24.83-25.41h16.467zm-56.9-18.638h5.164c3.715 0 6.398 2.98 6.398 5.282v2.2c0 2.405-1.856 4.15-5.6 5.28h-5.964V76.82h.002v-.002zm12.63 27.136c0 3.098-3.75 5.908-7.466 5.908h-5.166V95.458h8.845c2.5 1.208 3.783 2.917 3.783 5.045v3.454h.003v-.003zm17.622-14.372v-12.76h6.01c3.716 0 6.4 2.98 6.4 5.28v2.2c0 2.407-.908 4.15-4.385 5.283h-8.026v-.003z"/>
  <path d="M179.66 89.58c-1.944-6.67-3.546-12.36-3.546-13 4.87-.565 7.513-2.844 8.884-5.282h-18.432l-5.32 18.284h-11.812v5.876h10.103l-4.97 17.08c-.796.746-1.417 2.083-1.507 2.845h9.31c-.088-.76-.71-2.1-1.506-2.843 0 0 2.238-8.215 4.607-17.08h9.955c2.447 8.865 4.76 17.08 4.76 17.08-.797.745-1.418 2.082-1.508 2.844h9.31c-.088-.76-.477-1.96-1.478-2.694 0 0-2.566-8.546-5.13-17.23h.013c15.168 0 17.606-5.874 17.606-5.874l-19.34-.002v-.003zm-9.292-12.94c.73 2.927 2.028 7.758 3.445 12.94h-6.78s2.63-10.014 3.336-12.94h-.002z"/>
</svg>
