<svg xmlns="http://www.w3.org/2000/svg" viewBox="0 0 200 200">
  <path d="M117.52 100.505l2.516-2.075 4.724-1.236s.353 4.106-2.958 5.298c-3.31 1.192-4.194-.486-4.415-.97-.22-.488-.177-.885.132-1.017z"/>
  <path d="M63.957 103.067l.335-2.096s.42-1.34 1.677-2.01c1.257-.672 2.01-1.175 2.766-1.26.755-.083 1.006.756-.252 1.09-1.258.336-2.18 1.426-2.515 2.097s-.253 2.18-.085 2.934c.168.756-.252 1.342-.755 1.007s-1.258-1.006-1.174-1.51v-.25z"/>
  <path d="M66.724 101.055l2.6-1.76s1.257-.42 1.09.67c-.17 1.09.083 1.006.502 1.09.42.084.168.67-.42 1.09l-1.592 1.258s-1.51.67-2.012-.335-.587-1.678-.168-2.013z"/>
  <path d="M67.982 107.175l.503-1.593s.335-.922 1.34-.335c1.007.587.84.335 1.26-.168.418-.504.67-.923 1.173-.588s.503 1.006 0 1.34l-.838.84s-1.174.502-1.34-.17c-.17-.67-.84-.502-.84.17l-.167 1.257s-.252.334-.67.25c-.42-.082-.673-.418-.42-1.005z"/>
  <path d="M78.044 99.043l6.497 2.12s.592 2.04-2.7 2.667c-3.29.628-4.47-2.825-3.796-4.787z"/>
  <path d="M75.798 105.943l-.16 1.21c0 .67-.672.837-.84.167-.167-.67-1.34-.168-1.34-.168l-.838.838c-.503.335-.503 1.006 0 1.34.503.336.755-.083 1.174-.586.42-.503.252-.755 1.258-.168s1.34-.335 1.34-.335l.504-1.592c.018-.043.034-.084.047-.124.466.167.952.26 1.435.254.918-.01 2.007-.435 2.433-.86.586-.586.588-1.42-.49-1.592-1.57-.25-3.188-1.746-3.237-3.436-.007-.23.012-.41.026-.508-.017.113.145-2.107-1.972-.82-1.67 1.015-1.928 2.714-1.16 4.324.374.793 1.03 1.527 1.82 2.057z"/>
  <path d="M103.202 125.55c-.4.218-1.894 1.325-1.553 5.615l.392 6.3s0 1.354 1.257 1.275c1.256-.08 3.377.08 3.377-2.71 0-2.367-.056-4.733-.505-6.37-.177-.646-.83-4.315-2.97-4.11z"/>
  <path d="M107.414 131.51c-.072 1.772-.188 4.727-.188 5.108 0 .55.485 1.257 1.375 1.1.89-.157 3.72.08 3.802-2.75.08-2.827-.404-5.812-1.78-8.012-.856-1.37-1.46-1.064-1.855-.39-1.137 1.332-1.31 3.9-1.353 4.944z"/>
  <path d="M24.034 162.778h-9.452l-2.592 2.985h12.044v2.357H1.88v7.54h22.154v21.84h7.07v-21.84h1.964v12.958l2.985-3.166v-9.79h4.52l5.3-4.858v12.83l8.327-8.62v-7.523h4.307l7.346-7.855H54.2v-7.355l6.127-8.042 11.47-10.998c.156-5.656 4.24-12.883 4.24-12.883l-4.398 1.885-17.598 17.91-14.268 5.03h-.344v-11.674l-7.7 7.6v4.074h-8.074l-7.7 7.7h13.12l-5.045 4.765v5.13h.004zm17.008-3.143l-3.598 3.358H36.04l.247-1.653 3.14-3.058.005-.002v-5.402h6.442v6.756h-4.832zm-9.938 6.128h1.964v2.357h-1.964v-2.357zm.628-2.985h-.628v-9.898h.628v9.898zm4.32 4.713h9.82v.63h-9.82v-.63z"/>
  <path d="M175.55 162.778v-5.132l-5.046-4.766H183.624l-7.7-7.7h-8.074v-4.074l-7.7-7.6v11.674h-.343l-14.268-5.028-17.598-17.91-4.507-2.855s4.514 5.898 3.76 13.108l12.06 11.742 6.126 8.042v7.354H133.73l7.346 7.856h4.307v7.523l8.328 8.62v-12.83l5.3 4.857h4.52v9.79l2.985 3.167V175.66h1.964v21.84h7.07v-21.84H197.7v-7.54h-22.15v-2.357h12.044l-2.592-2.985h-9.452zm-15.397-4.497l.004.003 3.14 3.058.25 1.654h-1.406l-3.597-3.358h-4.83v-6.756h6.44v5.4zm8.327 7.483v2.357h-1.964v-2.357h1.964zm-.628-2.985v-9.898h.628v9.898h-.628zm-4.32 4.713v.63h-9.82v-.63h9.82z"/>
  <path d="M80.49 119.278c-.385.64-11.878 20.032 4.1 34.846.053.05.106.098.007-.107 1.5.107.127-1.935.127-1.935-3.608-6.372-4.618-12.523-3.94-17.868.535-4.22 1.466-6.723 4.385-9.747 1.257-1.303 2.38-2.977 1.19-4.912-1.367-2.22-4.138-3.844-5.87-.277z"/>
  <path d="M114.958 125.7s6.167 7.915 4.234 16.66c-1.933 8.744 2.21.736 2.21.736s3.8-12.464-.203-22.268c-.554-1.355-1.16-2.512-1.737-3.046-.53-.49-2.105-1.54-4.045.928l-.006.086c-3.307 2.945-.454 6.903-.454 6.903z"/>
  <path d="M52.344 58.06l-1.145.915c-2.1 1.493-2.985-.476-7.9 6.81S41.1 82.56 41.1 82.56c-1.77 2.575-2.218 6.05-2.158 9.166.005.278.035.815.087 1.485.145 1.877.387 4.683 1.142 6.42.224.514-.162.395-.796 1.064-3.117 3.29-1.272 7.627-.143 9.605l.054.093c1.242 1.27 1.242 2.244 1.117 3.766-.32 4.75-.256 2.535 3.575 7.033 3.896 4.575 6.268 2.033 6.268 2.033l25.967-7.244c3.6-.762 7.837-2.838 7.837-2.838l10.082-5.592c1.525-.763.508.72.508.72l-5.04 6.29c-.72 1.166.465 2.458.762 2.733.297.275.818.898.296.794-.522-.105-.836.103-.836.103L87.63 120.7c-.39.878.494 1.3.614 1.353.674.154.17.946.17.946-2.142 2.245-.47 5.432-.68 6.528-.208 1.097.158 1.933.628 2.09.47.156.68.94 0 .887s-.366 1.306-.366 1.306l.052.628c-.26 6.164 3.5 8.62 2.82 7.417-.678-1.2-.887-4.388-.887-4.753s.262-3.448.42-.157c.156 3.29 3.185 4.44 2.402 3.5-.784-.94-1.2-4.597-1.045-4.336.157.26 1.306.417 1.306.417l-.68-1.567c-.26-.888.053-1.15.523-1.463.47-.313.366-.47.366-1.2 0-.732-.522-1.777.26-1.673.785.104.576 2.35.576 2.35l-.47 2.247c.052 7.523 1.672 8.045 1.41 7.053-.26-.992 0-6.112 0-6.112l.575.576c-.68 6.216 2.213 8.02 1.815 7.447-.397-.574-.574-6.355-.574-7.15v-.012c.306-2.16.02-2.738-.4-3.082-.345-.282-.49-.403-.57-.584-.157-.345-.284-1.52-.25-1.874.05-.535.23-1.458.558.08.397 1.854 2.56 5.56 2.56 5.56l-.86.13c.464 9.475 3.238 9.626 3.325 9.654-2.178-4.712-1.282-13.608-1.192-14.443-.016-.706.535-.89 1.107-.89-.175-2.01-.247-7.027 2.342-6.852 2.604.177 3.178 4.767 3.178 4.767l.662-.088c.088-1.942 1.236-4.413 2.25-4.458 1.016-.045 1.546 1.897 2.03 3.088.253.618.53.773.736.78.435.01.312-1.128.308-1.43 0-.5-.03-3.706-.062-5.36-.035-1.786-.15-2.307-1.837-3.872-.5-.222-.178-.676.125-.938.07-.06.153-.122.244-.192.436-.25.676-.545.807-.876.143-.363.198-.992.093-1.37-.126-.453-.416-.688-.416-.688s-.662.088-.31-.31c.354-.396.045-1.323.045-1.323l-4.723-4.525c-.364-.298-.54-.695-.342-.927.2-.232.707.08.707.08l3.433 2.244c7.394 5.15 10.3 5.81 10.3 5.81l32.35 8.583c8.714 1.056 8.45-7.79 8.45-7.79v-1.98c5.282-7.66.924-11.885.924-11.885l-1.057-1.188c3.49-22.206-4.697-35.118-11.75-42.895l16.61-16.082h6.51v-1.128h12.122l5.387-5.39v2.81l-11.672 11.67V60.97l19.527-19.527V20.57l-7.743 7.294h-14.59l-2.693-2.692V10.805l8.204-8.305h-22.12l-19.08 19.752h11.337l11.56-11.784 2.357.337-4.713 4.714v12.33h-1.46v7.645l-15.902 16.11-.243-.245c-6.11-6.175-23.803-13.246-24.35-13.463-3.717-1.19-1.015 1.195-.985 1.226-.126-.088-.073-.033-.018.023 2.97 3.037 3.17 12.28 1.32 14.657-1.85 2.377-3.037 8.517-3.037 8.517l-4.952 7.328c-.858.99-.99 1.65-.99 1.65l-.396 6.537-5.282 11.422-.198 7.724-1.254-3.696c-.396-1.188-.792-1.518-1.386-1.85-.594-.33-1.056.595-1.188.99-.132.397-.594 2.51-.528-.46.066-2.972-1.188-3.962-1.386-4.358-.198-.396-.462-.858.264-.528.726.33 1.85.066 1.85.066l1.32-.726c.79-.198.857-.792.99-1.188.13-.396-.397-.792.527-1.518.925-.726.53-1.65.463-2.047-.066-.396.198-.858.198-.858l1.85-3.5c.462-1.12.792-1.45.462-2.64-.33-1.188-1.452-.264-1.452-.264l-3.3 2.047c-.793.264-.265-.528-.265-.528l3.565-2.377 5.876-9.97c.99-1.32.924-2.178.594-3.036-.33-.86.103-1.774.103-1.774l2.748-6.976c2.75-4.862 0-9.724 0-9.724l-3.17-5.707-.085.008s-17.478-1.59-28.813 3.155c-.045.01-.054.01-.062.007-3.805-1.057-8.455-.846-12.894 1.268-4.44 2.114-6.34 8.878-6.34 8.878l-3.413 2.73-16.694-16.91V27.85h-1.46V15.518l-4.713-4.714 2.357-.337 11.56 11.784H61.8L42.72 2.5H20.6l8.203 8.305v14.367l-2.693 2.692H11.52L3.777 20.57v20.873L23.304 60.97V49.86L11.632 38.187V35.38l5.387 5.39h12.12v1.127h6.51L52.344 58.06zm45.897 64.504c-.435-.53-.89-1.708-.926-3.028.113-.876.233-1.565-.352-1.857-1.294-.648-3.288 5.066-3.18 4.042.108-1.024.647-2.372 1.186-3.665l.02-.046c-.24.596.927-1.644-.864-1.222-.95.223-2.987-1.02-.938-3.476.224-.274 4.382-5.188 5.34-6.196 1.023-1.078.97.54.97.54l-.11 5.928c-.053 1.132 0 .97-.808 1.348-.232.108-.35.395-.397.748-.037.277-.145 2.143-.094 4.07 0-.116.127 2.61.155 2.814zm8.604-22.79s-1.175 1.794.928 1.423l36.87-9.59s.93-.432 1.362.372c.433.803.31.927-.742 1.113-1.052.186-2.536.37-4.825.99l-3.03.928s-1.053.187-.496 1.3l1.486 3.464s.62 1.052-.37 1.114h-1.733s-1.052-.186-1.114 1.485c-.063 1.67-1.61 3.526-3.465 3.217l-14.105-1.98s-1.423-.247-3.155.124c-1.732.37-2.165 0-3.155-.31-.99-.308-4.392-1.422-5.197-1.422s-1.052-.495.31-1.856l.43-.372zm34.147-43.446l1.12 7.613c.076.925-.232 2.08-.232 2.08l-3.156 11.084c-.23.77-.616 1.155.077 2.77.692 1.617 1.154 6.62 1.154 6.62l-.847-.307-.77-3.464c0-.924-.54-3.31-.77-3.54-.23-.232.044-2.012.044-2.012l2.96-10.843c.28-.845.562-2.253.562-2.253l-.14-7.746zm-21.128 35.325l14.625-6.697.616-1.155.404 1.253c.354.886.183 1.15-.784 1.074l-.312-.016-13.24 5.928s-.77.077-1 .77c-.23.692-.923.23-.308-1.155zm-78.496.784l1.515-2.272s.59-1.43 1.81-.126l2.735 2.902s1.43 2.188.463 3.197l-2.903 2.776s-.926.547-1.22-.084l-2.314-3.66s-1.136-1.683-.084-2.735zM46.5 81.12l1.135-2.273s.168-.63.8-1.178l3.154-2.946s.883-.757 1.26.21l.043.59s.295.462.968.756l2.357 1.262s.547.168.926-.547l.757-1.262s.59-.59 1.304-.505c.715.084-.042-1.262-.168-2.02-.126-.756-.295-1.724-.295-1.724l-.002-.005c.05-.692-.57-1.815-.586-2.815 0 0 .63 2.693 1.388 1.935.757-.757.968-1.22 1.43-1.304l1.094-.084s-2.062.59-2.062 2.524l-.042 2.65s.295 1.474.463 1.894l1.977 7.28s.38 1.808-.042 2.06c-.42.253-.42.59-.42 1.137s-.927 1.43-2.315 1.935c-1.388.505-.505-.84.337-1.094.84-.252 1.262-.547 1.052-1.22-.21-.673.38-.968.547-1.01.167-.042.294-1.346 0-2.188-.296-.84-.464-2.945-.674-3.408-.21-.463-.42-.295-.505-1.136-.083-.84-.378-2.314-.672-2.524-.295-.21-1.388-.463-2.44 1.683l-.505.715s-.59.59-.884 0c-.296-.59-.422-.8-1.18-1.094l-1.387-.673s-.926-.8-1.725.168l-2.61 3.03s-.546 1.178-.798 2.44-1.136 1.935-1.515 2.104c-.38.168-.673.757-.505 1.262.168.505.884.63.884.968s-.21.8-.505.926c-.296.126-.21.673.167 1.052l1.893 2.524-2.693-2.356s-.505-.42-.294-1.094c.21-.673.21-1.6-.21-2.062-.42-.463-1.094-.38-1.557-.168-.463.21-.757-.126-.295-.463l2.105-1.473s.547-.59.252-1.01c-.294-.42-1.01-.252-1.64.084l-1.6.84 1.094-1.472c.004.003.55-1.007 2.74-.923zM56.362 95c-.23.52-.924 0-.924 0l-.578-.577c-.808.29-1.385.058-1.443-.404-.06-.46.288-1.558.692-1.615.404-.058 1.5-.346 1.5-.346l5.427-2.772c1.558-.866 2.54-.52 2.54-.52l6.233 1.732c1.847.346.98.866.98.866l-6.58-1.04c-1.5-.345-2.308 0-2.308 0l-4.33 2.08c-.923.345-1.038 1.153-1.038 1.153L56.363 95zm-5.426-13.16c-.058-.52 1.097-1.444 1.616-1.33.52.116.577-.576.577-.576l-.173-1.04c-.29-.345-.058-.692.462-.52.52.174.692.867.692.867l-.058 1.905c-.058.75.404.98.404.98l1.79 1.56-2.887-1.5-.114-.982c-.173-.462-.808.058-.808.058l-.173.693-1.097 1.154-.173.925c-.058.462-.346.75-.866.635s-.174-.75-.174-.75l.98-2.08zm6.857-19.696c-.173-.173-.26-.69-1.295 0l-2.42 1.64s-.43.174-.43 1.124c0 .95-.433 2.072-.864 2.59l-.95 1.813s-.863 1.9-.173 2.85l.345.95-1.208-.692s-.777-.43-.604-.95l.086-1.726s.69-.518.777-1.036l1.035-3.368.26-1.295s.085-.777.862-1.036c.777-.26 4.317-2.59 4.317-2.59s.206-.207.476-.96c-.12.33 1.12-2.424.524.145-.1.39-.19.81-.223 1.16-.084.95-.343 1.553-.516 1.38zm35.23 40.503l3.07-.574s.85-.283.85-1.228c0-.944.424-.33.47.142l.143.85s-.142.66-.85.803c-.708.142-1.747.803-2.456 1.228l-2.17 1.37s-1.89.615-3.59.615-5.336 1.37-6.848 1.89l-14.215 3.494s-3.684.47-4.77-.19c-1.086-.66-2.928-1.322-2.975-2.408-.047-1.086-.047-1.653.52-1.936.566-.283.85-.803.85-1.606s1.085-4.25 1.51-4.534c.425-.283.567-1.18-.047-1.51l-1.275-.757s-.992-.52-.33-.946l.707-.897s2.503.047 3.778-.236l5.667-.424s.944 0 1.983.567c1.01.55 16.958 5.888 17.37 6.02 1.097.355 1.664.45 2.61.266zm96.903-71.757v2.132H174.44l2.13-2.132h13.357zM170.28 10.697v13.355l-2.13 2.132V10.696h2.13zM11.97 30.893h13.354l2.132 2.132H11.97v-2.132zm19.645-20.196h2.132v15.488l-2.132-2.132V10.697zm70.306 97.064s-.322-2.155 1.025-.538l5.444 6.306s.915 1.078-.055 2.156c-.97 1.078-1.833 1.186-3.342.108l-1.78-.916s-.43-.162-.808.054c-.377.216-.377-.43-.377-.916l-.107-6.253z"/>
</svg>
