<svg xmlns="http://www.w3.org/2000/svg" viewBox="0 0 200 200" class="iron-maiden">
  <path class="iron-maiden--eddie-brave-new-world__circle" d="M1.5 100c0 28.353 12.234 55.35 33.564 74.063 2.81 2.47 5.785 4.795 8.84 6.913 3.72 2.58 7.65 4.923 11.68 6.963 13.845 7.007 28.79 10.56 44.415 10.56 54.313 0 98.5-44.19 98.5-98.5 0-54.313-44.187-98.5-98.5-98.5S1.5 45.687 1.5 100z"/>
  <path d="M195.204 100c0 52.577-42.624 95.203-95.205 95.203-15.445 0-30.03-3.677-42.93-10.204-3.927-1.99-7.697-4.242-11.287-6.734-2.977-2.063-5.83-4.297-8.545-6.68C17.35 154.137 4.796 128.537 4.796 100 4.796 47.418 47.42 4.795 100 4.795c52.58 0 95.204 42.625 95.204 95.204z"/>

  <g class="iron-maiden--eddie-brave-new-world__face">
      <path d="M92.08 45.512c0-6.46 5.24-11.696 11.695-11.696 6.467 0 11.7 5.237 11.7 11.696v5.432h62.21C161.38 25.21 132.654 8.09 100 8.09c-32.653 0-61.38 17.12-77.687 42.853H92.08v-5.43z"/>
      <path d="M112.607 45.24c0-4.868-3.962-8.83-8.832-8.83-4.87 0-8.83 3.962-8.83 8.83v5.703h17.662V45.24zm-8.7 3.02c-2.775 0-5.034-2.26-5.034-5.036s2.26-5.035 5.035-5.035 5.035 2.257 5.035 5.034c0 2.777-2.26 5.035-5.035 5.035z"/>
      <path d="M103.908 39.04c-2.307 0-4.183 1.877-4.183 4.184 0 .433.066.85.19 1.244l7.588-3.374c-.73-1.227-2.066-2.054-3.595-2.054z"/>
      <path d="M103.908 47.408c2.307 0 4.183-1.877 4.183-4.184 0-.476-.083-.93-.23-1.358l-7.61 3.383c.715 1.285 2.086 2.158 3.658 2.158z"/>
      <path d="M79.4 147.158c-.546-.095-6.13 6.61-6.43 7.152-.303.544-.738 2.442-.738 2.442s.266-1.977.352-3.153c.087-1.172-.722-5.378-5.14-5.355-2.283.01-5.06 4.357-5.06 4.357s.172-2.727-2.544-3.002c-2.716-.27-6.283 7.304-5.977 7.88.307.578 1.087-.274 2.716.813 1.63 1.087 4.89 4.62 9.235 5.164 3.682.46 5.753-3.193 5.986-3.842.233-.645.364-2 .364-2s.018 1.702.174 2.25c.253.89 2.692 2.28 4.698 2.505 2.444.27 5.895-2.174 5.895-7.063 0-4.89-2.893-8.037-3.53-8.15z"/>
      <path d="M98.7 150.962c-5.03-.062-6.285 3.478-6.285 3.478s.557-2.694-.507-4.296c-1.778-.678-7.857.862-8.185 1.652-.328.79-.314 8.47.045 8.692 1.254.493 6.03-.19 6.945-.805.916-.616 1.478-3.675 1.478-3.675s3.183 4.08 7.596 1.473c2.53-1.494 5.16-3.258 4.89-5.163-.27-1.9-2.988-1.322-5.976-1.355z"/>
      <path d="M74.78 147.427c1-.023 4.305-10.378 4.317-11.27.01-.89-1.434-4.077-5.675-4.755-4.3-.69-7.216 1.893-7.335 2.985-.12 1.1 7.69 13.068 8.692 13.04z"/>
      <path d="M63.01 146.912c.897.045 5.198-1.972 5.52-2.47.324-.5-2.715-13.313-6.52-13.313-3.032.906-4.422 4.043-4.617 4.62-.194.576-.164 7.22-.03 8.026.135.806 4.75 3.09 5.647 3.136z"/>
      <path d="M105.624 138.712c-.496-.27-2.33-1.434-3.856-3.808-1.145-1.787-5.007-2.644-7.17-2.42-3.897.404-4.03 4.974-4.03 4.974s.043-3.316-2.477-5.512c-.86-.75-4.513-1.658-6.933.807-1.594 1.623-2.33 12.815.09 13.352 6.855 1.524 8.96-3.27 8.96-3.27s1.3 6.227 9.565 5.678c5.447-.358 5.978-2.716 5.978-2.716 2.174 2.716 13.405 3.714 13.674 3.445s.672-9.59.452-9.964c-.222-.37-13.76-.297-14.252-.566z"/>
      <path d="M131.41 134.947c1.58-.863 2.304-4.023.262-7.495 0 0 3.857 5.03 1.498 6.766-2.1 1.542 7.33-2.627 8.49-3.294 2.663-1.547 1.937-1.19 0-4.752-1.94-3.56-6.66-7.95-14.768-14.005-8.108-6.053-18.037-11.157-18.52-11.157-.483 0-.364 2.73 0 6.41s1.572 7.835 1.572 7.835-2.906-7.477-3.632-10.566c-.728-3.084-.15-4.214-.483-4.866-.335-.653-2.303-.638-2.667.236-.364.875.728 3.323 1.09 7.36.363 4.035-.363 9.137-.363 9.137s-.243-3.917-.364-5.34c-.123-1.425.485-9.613-4.964-8.546-5.45 1.067-27.99 18.685-27.99 18.685l10.94 3.026s-.59-3.65.862-4.895c-.408 2.582-.403 5.008.046 5.297.448.29 7.078 2.037 9.002 2.815 4.964 2.02 14.647 7.006 20.458 8.547 1.62.428 3.26.673 4.855.79.475.033 12.578-8.012 1.636-23.102 11.594 12.63 1.45 22.156 1.137 22.435-1.817 1.602 5.723.277 7.625-.122 1.046-.22 2.72-.346 4.278-1.198z"/>
      <path d="M151.386 134.12c-.525-.023-5.616 11.088-5.977 11.952-.362.862-.76 4.336-.272 4.615.485.286 3.53-.812 6.52-5.702 2.988-4.89.25-10.844-.272-10.866z"/>
      <circle cx="139.657" cy="78.419" r="4.912"/>
      <path d="M178.972 53.037h-63.497v5.783c0 6.458-5.233 11.697-11.7 11.697-6.456 0-11.695-5.24-11.695-11.697v-5.783H21.027C12.817 66.79 8.092 82.852 8.092 100c0 26.453 11.416 51.644 31.32 69.107 2.623 2.308 5.4 4.477 8.25 6.454 3.474 2.41 7.14 4.594 10.897 6.494 12.914 6.538 26.857 9.852 41.44 9.852 50.678 0 91.906-41.23 91.906-91.907 0-17.148-4.725-33.21-12.934-46.963zM46.907 96.112c-12.298 0-16.122-10.2-17.023-13.95-.9-3.748-.45-9.672-.075-12.372.374-2.7 4.797-6.747 9.598-7.198 4.8-.452 6.66-.527 9.75.075 12.297 2.398 27.445 15.223 41.77 14.323 2.487-.156 4.724-2.775 4.724-2.775s-2.026 11.024-7.35 14.698c-5.325 3.675-19.647 7.2-41.395 7.2zM153.56 150.83c-2.557 7.797-5.042 11.725-8.325 9.46-4.132-2.853-11.285-5.058-17.4-6.47-2.642-.604-2.702-2.346-5.888-2.45-4.453-.144-27.017 8.375-27.017 8.375s-34.353 13.628-40.525 11.346c-4.745-1.75-5.336-11.3-5.45-15.62-.234-8.817 1.37-18.048 6.23-24.803 4.864-6.756 10.566-9.016 14.35-12.255 3.78-3.246 7.568-6.657 13.51-10.437 5.944-3.78 14.046-7.936 14.046-7.936s1.34-3.02 4.594-3.784c4.64-1.092 13.455 3.023 20.86 8.782 5.295 4.122 22.69 13.402 30.448 27.745 2.454 4.53 2.704 11.516.567 18.046zm14.602-58.64c-.8 2.015-7.808 8.937-22.868 7.405-18.038-2.093-36.72-16.91-36.56-24.157 0 0 .786 1.063 2.658 1.047 1.872-.015 9.243-4.116 22.547-7.812 13.044-3.624 24.478-8.615 30.716-6.682 1.068.333 10.658 8.917 3.506 30.2z"/>
      <path d="M108.092 60.535c0-2.307-1.877-4.184-4.183-4.184-1.425 0-2.684.718-3.44 1.808l6.833 4.814c.493-.687.79-1.527.79-2.437z"/>
      <path d="M103.908 64.718c1.09 0 2.08-.422 2.824-1.106l-6.678-4.706c-.212.5-.33 1.05-.33 1.63 0 2.306 1.878 4.182 4.184 4.182z"/>
      <path d="M94.945 59.093c0 4.868 3.96 8.83 8.83 8.83s8.832-3.962 8.832-8.83v-6.056H94.945v6.056zm8.963-3.594c2.776 0 5.035 2.258 5.035 5.035 0 2.776-2.26 5.035-5.035 5.035s-5.035-2.26-5.035-5.035c0-2.777 2.26-5.036 5.035-5.036z"/>
      <circle cx="63.255" cy="79.915" r="4.912"/>
      <path d="M123.407 140.095c-.724.578-1.012 5.853-.533 6.906.48 1.05 5.964 2.875 8.953.7 2.988-2.172.727-7.555 0-8.148-.725-.594-3.8.325-8.42.543z"/>
      <path d="M145.053 137.188c-2.684-1.16-6.162 1.82-8.064 3.72-1.902 1.903-2.78 9.23.27 9.235 1.84.005 7.478-3.803 9.236-9.236.306-.94.53-2.867-1.443-3.72z"/>
  </g>
</svg>
