<!--
  SVG Music Logos
  Iron Maiden - Trooper v1.0.0
  https://github.com/tiagoporto/svg-music-logos
  Copyright (c) 2016-2018 Tiago Porto (http://tiagoporto.com)
-->
<svg xmlns="http://www.w3.org/2000/svg" viewBox="0 0 200 50" class="trooper">
  <path class="trooper__outer-shadow" d="M189.877 28.555l6.521-8.818-13.747-18.632-3.221 3.156V2.219H146.288v13.517L135.404 1.105l-3.193 3.203V2.219h-11.526v5.383l-5.009-6.201H89.61l-7.243 8.635L75.506.841 61.799 19.13 48.247.942l-3.246 3.416V2.219H1v11.718h9.315v34.857l12.258-9.122V13.937h5.705l5.316-7.263V37.79h11.387v-4.244l12.107 15.613 7.642-8.541-2.164-2.827h25.983l7.013-8.355 7.121 9.744 18.001-25.05v23.66h11.526V27.727h9.321l4.756-4.849v4.874l7.936 10.039h25.206v-4.359l12.133 15.56L199 40.508l-9.123-11.953zm-82.784-15.001l-4.421 5.865-4.448-5.865h8.869zm60.538.435h-9.303v-.418h9.303v.418zm-9.303 11.683v-.609h9.303v.609h-9.303zm-87.261.139l4.421-5.865 4.448 5.865h-8.869z"/>
  <g class="trooper__inner-shadow">
    <path d="M61.103 19.596L48.17 2.237 44.165 6.45V3.055H1.836v10.046h9.315V47.13l10.586-7.878V13.101h6.117l6.576-8.984v32.838h9.715v-5.85l12.989 16.75 6.512-7.278-9.193-12.014 6.65-8.967zm-13.666-.85l.739-.968.668.968h-1.407z"/>
    <path d="M188.832 28.562l6.529-8.829-12.71-17.357-4.056 3.813V3.055h-10.128v33.9h10.128V31L191.6 47.68l6.32-7.208-9.088-11.91zm-6.836-9.816l.789-.968.745.968h-1.534z"/>
    <path d="M75.504 2.237L55.871 28.432l7.011 8.523h25.277l7.015-8.357-19.67-26.361zm27.173 35.519l18.843-26.221v25.42h9.855V26.891h9.806l5.943-6.059v6.629l7.505 9.494h13.136V26.508h-10.273v-2.281h10.273v-9.402h-10.273v-2.089h10.273V3.055h-20.641v15.208L135.313 2.367l-3.938 3.97V3.055h-9.855v6.912l-6.244-7.731H90l-7.098 8.462 19.775 27.058zM69.39 26.647l6.095-8.086 6.132 8.086H69.39zm33.284-5.842l-6.132-8.086h12.227l-6.095 8.086zm31.92-2.059l.776-.968.776.968h-1.552z"/>
  </g>
  <g class="trooper__lettering">
    <polygon points="31.156 5.057 3.786 5.057 3.786 11.047 13.449 11.047 13.449 42.555 19.438 38.098 19.438 11.047 26.699 11.047"/>
    <path d="M92.673 28.459L75.48 4.927 58.248 28.459l5.706 6.79h23.122l5.597-6.79zM75.48 14.75l10.765 14.195H64.78l10.7-14.195z"/>
    <path d="M85.486 10.907l17.193 23.532 17.232-23.532-5.706-6.79H91.084l-5.598 6.79zm17.193 13.708L91.914 10.42h21.465l-10.7 14.195z"/>
    <path d="M58.73 19.705L48.01 4.796l-5.751 6.702V5.057H36.27v30.191h5.989V25.6l15.083 19.294 3.931-4.508-9.163-11.858 6.62-8.823zm-14.559.578l4.169-5.458 3.771 5.458h-7.94z"/>
    <path d="M193.225 19.705L182.651 4.796l-5.896 6.702V5.057h-5.989v30.191h5.989V25.6l15.083 19.294 3.931-4.508-9.163-11.858 6.619-8.823zm-14.559.578l4.119-5.458 3.821 5.458h-7.94z"/>
    <path d="M145.824 19.705L135.313 4.796l-5.959 6.702V5.057h-5.989v30.191h5.989V25.063h10.901l5.569-5.358zm-14.559.578l4.105-5.458 3.835 5.458h-7.94z"/>
    <polygon points="165.64 10.873 165.64 5.057 149.204 5.057 149.204 26.682 155.763 35.248 165.64 35.248 165.64 28.806 155.194 28.806 155.194 22.399 165.64 22.399 165.64 16.584 155.194 16.584 155.194 10.873"/>
  </g>
</svg>
