<svg xmlns="http://www.w3.org/2000/svg" viewBox="0 0 200 39.7">
	<path d="M139.4 5.2v23.2h15.2l4.1-6.6-11.1-16.6h-8.2zm14.4 18.2h-9.6V9l9.6 14.4zM116 13.8l-2.8-3.2-3.3 4.1 2.9 3.4-4.3 5.8 3.3 4.1 4.4-5.9 5.5 6.5h6.9V5.2h-6.3l-6.3 8.6zm3.4 3.9l4.2-5.6v10.4l-4.2-4.8zM28.2 22.8l3.9 5.6h17.6l3.8-5.6L41 5.6l-12.6 17-.2.2zm5.7.4l7-9.4 6.8 9.4H33.9z"/>
	<rect x="131.3" y="5.2" width="5.3" height="23.2"/>
	<polygon points="67.4,13.6 59.8,5.2 52.2,5.2 56,9.3 56,28.5 61.2,28.5 61.2,14.6 67.4,21.3 67.4,30 72.5,35.4 72.5,5.2 67.4,5.2"/>
	<polygon points="96.8,10.4 92.2,5.2 84.2,5.2 87.3,8.8 87.3,28.5 92.2,28.5 92.2,12.9 96.6,18.3 100.9,13.2 100.9,30.8 106.3,36.6 106.3,11.7 100.5,5.4"/>
	<path d="M17.6 21.7l10.8 14.1 3.3-3.9-6.7-9.1 5.1-6.7L21.6 5l-4 4.3V5.2h-5.2v23.2h5.2v-6.7zm3.5-8.2l2.8 3.4H18l3.1-3.4z"/>
	<rect x="3.9" y="5.2" width="5.4" height="23.2"/>
	<polygon points="189.7,5.2 189.7,13.6 182.2,5.2 174.5,5.2 178.4,9.3 178.4,28.5 183.5,28.5 183.5,14.5 189.7,21.3 189.7,29.9 194.9,35.4 194.9,5.2"/>
	<polygon points="160.8,23.5 164.5,28.5 172.6,28.5 172.6,23.4 165.5,23.4 165.5,18.7 172.6,18.7 172.6,14.2 165.4,14.2 165.4,10.2 172.6,10.2 172.6,5.3 160.8,5.3"/>
</svg>
