<svg xmlns="http://www.w3.org/2000/svg" width="200" height="39.703" viewBox="0 0 200 39.703">
	<path d="M140.002 8.335v23.25l15.247-.01 4.07-6.567-11.118-16.673h-8.2zM154.4 26.52h-9.578V12.144c3.187 4.8 6.373 9.59 9.577 14.378zM116.65 16.946l-2.775-3.232-3.256 4.054 2.912 3.404-4.278 5.776 3.262 4.06 4.382-5.914 5.538 6.49h6.86V8.334h-6.292l-6.353 8.612zm3.368 3.892l4.155-5.626V25.65l-4.155-4.812zM28.982 25.75l-.128.173 3.95 5.633h17.6l3.818-5.6L41.65 8.692 28.982 25.75zm5.52.526l7.05-9.447 6.795 9.446H34.502zM131.874 8.335h5.34v23.19h-5.34zM68 16.71l-7.465-8.266-.088-.097-7.646-.07 3.85 4.155v19.154h5.156V17.67L68 24.398v7.162h5.157V8.345H68M97.425 13.498l-4.56-5.152H84.82l3.117 3.532v19.708h4.88V15.998l4.412 5.384 4.29-5.12-.057 15.297h5.43V14.8l-5.736-6.255"/>
	<path d="M30.68 19.135L22.2 8.117l-3.973 4.32v-4.09H13.07v23.24h5.157v-6.782l5.227 6.754h6.403l-4.24-5.707 5.063-6.718zm-8.928-2.576l2.762 3.443h-5.908l3.146-3.444zM4.5 8.346h5.373v23.24H4.5zM190.343 16.678l-7.524-8.363-7.675-.024 3.846 4.144v19.12h5.158V17.64l6.195 6.726v7.193h5.157V8.314h-5.157M161.375 26.645l3.712 4.91h8.096V26.49h-7.11l.012-4.696h7.098V17.31h-7.205l-.002-4.053h7.238v-4.88h-11.84"/>
</svg>
