<svg xmlns="http://www.w3.org/2000/svg" viewBox="0 0 100 17.6"><style>.st0{fill-rule:evenodd;clip-rule:evenodd;fill:#FFFFFF;} .st1{fill-rule:evenodd;clip-rule:evenodd;fill:#D4422A;}</style><path class="st0" d="M87.7.4V4h-3.6v.7h3.6v3.4h-3.6v1h3.6v3.7h-5.1L80.5 10V.4h7.2zM59.9 6.6l.3-.4v1.4l-.3-.3v-.7zm4.1 6.2V.4h-4.1L57 4.1l-1.4-1.5-2.4 2.9 1.5 1.6-2.1 2.9 2.5 2.9 2.2-2.9 2.4 2.7H64v.1zm-4.1-5.5l-.3-.3.3-.4v.7zM45.5 6.4v6.4h-3.7V3L39.4.4h5.8l1.9 2.1L49 .1l3.5 3.8v13.7l-3.9-4.1v-7l-1.5 1.7-1.6-1.8zM96.1.4h3.9V17l-3.9-3.9V8.9l-1.8-1.8v5.7h-3.8V3.2L87.7.4h5.6l2.8 3v-3zM33.4.4h3.9V17l-3.9-3.9V8.9l-1.8-1.8v5.7h-3.9V3.2L24.9.4H30.6l2.8 3v-3z"/><path class="st0" d="M20.4 12.8h4.8l2.4-3.3L20.5.2l-7.2 9.4 2.4 3.3h4.7v-.1zM18.2 9l2.3-2.7 2 2.7h-4.3z"/><path class="st0" d="M9.7 6.2h.4l-.4-.5v.5zM10 0l5 6.2-2.5 3.2 3.4 4.4-2.5 2.8-4.7-5.9v2h-4V.4h3.9v1L10 0zm-.3 5.8l-.5.4h.4v-.4h.1zM64.7.4h4v12.4h-4V.4zM0 .4h4v12.4H0V.4zM75.9 9.1L73 4.9v4.2h2.9zM74.5.5L80.4 9 78 12.8h-8.6V.4H73l1.5.1z"/><path class="st1" d="M.8 1.2h2.4V12H.8V1.2zm8.9 3.5l-1.9 2h3.6l-1.7-2zM7.8 8.5V12H5.5V1.2h2.3v2.2l2.1-2.2 4.1 5-2.5 3.2 3.4 4.4-1.5 1.6-5.6-6.9zM44.7 4.3V12h-2.1V2.7l-1.4-1.5h3.6l2.4 2.5L49 1.3l2.7 2.9v11.5l-2.3-2.5V4.4L47.1 7l-2.4-2.7zM34.2 1.2h2.3v13.9l-2.3-2.3V8.7l-3.4-3.6V12h-2.3V2.9l-1.7-1.7h3.4l4 4.2V1.2zM65.6 1.2h2.3V12h-2.3V1.2zM86.9 1.2h-5.6v8.5L83 12h3.9V9.9h-3.6V7.3h3.6V5.5h-3.6V3.2h3.6v-2zM96.9 1.2h2.3v13.9l-2.3-2.3V8.6l-3.4-3.5V12h-2.2V2.9l-1.8-1.8 3.5.1 3.9 4.2V1.2z"/><path class="st1" d="M20.3 4.9l-3.7 4.8H24l-3.7-4.8zm.2 7.1h-4.3l-1.9-2.6 6.1-7.9.1-.1 6.1 8-1.9 2.6h-4.2zM57.2 8.8L55 11.6l-1.4-1.7 2.1-2.8-1.5-1.6 1.4-1.7L57 5.4l3.2-4.2H63.3V12H60l-2.8-3.2zm3.8.9V3.9L58.6 7 61 9.7zM74.8 2.4L79.4 9l-1.9 3h-7.4V1.2H74l.8 1.2zm-2.6 0v7.5h5.2c-1.7-2.5-3.5-5-5.2-7.5z"/></svg>
