<!--
  SVG Music Logos
  Iron Maiden - The X Factor v0.1.0
  https://github.com/tiagoporto/svg-music-logos
  Copyright (c) 2016-2018 Tiago Porto (http://tiagoporto.com)
-->
<svg xmlns="http://www.w3.org/2000/svg" viewBox="0 84 200 34">
  <path d="M197.4 115.9H2.6c-.6 0-.6 0-.6-.6V86.7c0-.6.1-.6.6-.6h194.7c.6 0 .6 0 .6.6v28.5c.1.6 0 .7-.5.7zM4 114.6h192.5V87.4H3.3v26.4s.1.8.7.8z"/>
  <path d="M194.3 113.7H5.4c-.1 0-.2-.1-.2-.2V88.3c0-.1.1-.2.2-.2h188.9c.1 0 .2.1.2.2v25.2c-.1.1-.1.2-.2.2zm-188.5-.5H194V88.5H5.8v24.7z"/>
  <g class="iron-maiden_lettering">
    <path d="M190.4 111.5l-6.3-4.6c-.1-.1-.2-.2-.2-.4v-4.9l-4.4-2.7v6.5c0 .4 0 .5-.5.5h-5.3c-.4 0-.5 0-.5-.5V94.7l-3.4-2.4c-.7-.5-1.1-.8 0-.8h7.4c.1 0 .2 0 .2.1l6.3 4V92c0-.4 0-.5.5-.5h5.5c.5 0 .5 0 .5.5v19.5zm-5.6-5.2l4.4 3.3V92.4h-4.4v4c0 .6 0 .7-.6.3l-6.8-4.3h-5.9l2.6 1.9c.1.1.2.2.2.4V105h4.2v-6.9c0-.9.1-.7.7-.4l5.3 3.4c.1.1.2.2.2.4v4.8z"/>
    <path d="M167.5 105.8h-8.2c-.1 0-.2 0-.3-.1l-3.5-2.8c-.1-.1-.2-.2-.2-.4V92c0-.4 0-.5.5-.5h11.7c.4 0 .5.1.5.5v3c0 .4-.1.5-.5.5h-6.2v.9h6.2c.4 0 .5 0 .5.5v3.1c0 .4-.1.5-.5.5h-6.1v1.5h6.1c.4 0 .5 0 .5.5v3.1c-.1.1-.1.2-.5.2zm-7.9-.7h7.6v-2.4H161c-.4 0-.5-.1-.5-.5v-2.1c0-.4.1-.5.5-.5h6.2v-2.5h-6.3c-.4 0-.5-.1-.5-.5v-1.5c0-.4.1-.5.5-.5h6.3v-2.3h-10.9v10l3.3 2.8z"/>
    <path d="M149.8 105.8h-14.5c-.4 0-.5-.1-.5-.5V92c0-.4 0-.5.5-.5h8c.2 0 .2 0 .3.1l10.4 9.6c.3.3.3.3 0 .7l-3.9 3.8c0 .1-.2.1-.3.1zm-14-.7h13.8l3.7-3.5-10-9.3h-7.5v12.8zm12.4-2.4h-7.7c-.4 0-.5 0-.5-.5v-7.1c0-.9.1-1 .8-.3l7.7 7.1c.7.6.7.8-.3.8zm-7.3-.8h6.2l-6.2-5.7v5.7z"/>
    <path d="M131.9 105.8h-5.1c-.4 0-.5-.1-.5-.5V92c0-.4 0-.5.5-.5h5.1c.4 0 .5 0 .5.5v13.4c0 .3-.1.4-.5.4zm-4.7-.8h4.2V92.4h-4.2V105z"/>
    <path d="M123.6 105.8h-6.8c-.1 0-.2 0-.3-.1l-4.4-3.3-3.7 3.3c-.2.2-.2.2-.5 0l-3.5-2.6c-.4-.3-.4-.4 0-.7l3.6-2.9-2.3-1.6c-.5-.3-.4-.4 0-.7l3.1-2.6c.3-.2.3-.2.5 0l2.4 1.7 5.3-4.6c.1-.1.2-.1.3-.1h6.2c.4 0 .5 0 .5.5v13.4c.1.3 0 .3-.4.3zm-6.6-.9h6.2V92.4h-5.6l-5.5 4.7c-.3.2-.3.2-.6 0l-2.4-1.7-2.5 2 2.3 1.6c.4.3.4.4.1.7l-3.7 2.9 2.8 2.2 3.8-3.4c.3-.2.3-.2.5 0l4.6 3.5zm1.2-3.1l-3.2-2.3c-.3-.3-.4-.3 0-.6l3.2-2.6c.7-.5.7-.5.7.3v4.8c0 .8 0 .8-.7.4zm-2.2-2.6l2.2 1.7v-3.6l-2.2 1.9z"/>
    <path d="M103.1 111.6l-6.1-4.3c-.1-.1-.2-.2-.2-.4v-9l-3.1 2.3c-.2.2-.3.2-.5 0l-2.9-2.6v7.7c0 .2-.1.5-.6.5h-5c-.5 0-.5-.1-.5-.5v-11l-3.9-2.8h9.4c.1 0 .2 0 .3.1l3.6 2.8 3.2-2.7c.2-.2.3-.2.5 0l5.5 3.7c.2.1.2.2.2.4v15.8zm-5.4-4.9l4.5 3.2v-14l-5-3.3-3.2 2.7c-.3.2-.2.2-.5 0l-3.7-2.9h-6.6l1.8 1.3c.1.1.2.2.2.4v11h4.2v-8.2c0-.6 0-.8.6-.4l3.5 2.9 3.5-2.6c.6-.5.7-.4.7.4v9.5z"/>
    <path d="M75.3 111l-5.8-4.3c-.1-.1-.2-.2-.2-.4v-4.8l-4.4-2.7v6.5c0 .2-.2.5-.5.5h-5.1c-.2 0-.5-.2-.5-.5V94.7l-4.4-3.2h8.3c.1 0 .2 0 .2.1l6.3 4V92c0-.4 0-.5.5-.5h5.1c.5 0 .5.1.5.5v19zm-5.1-4.9l4.2 3.1V92.4h-4.2v4.7l-7.4-4.7h-5.7l2.5 1.7c.2.1.2.2.2.4v10.4H64V98c0-.5.1-.6.5-.3l5.3 3.3c.3.2.3.3.3.6v4.5z"/>
    <path d="M53.2 105.8H37.9c-.1 0-.2 0-.3-.1l-4-3.2c-.4-.3-.4-.4 0-.7l11.7-10c.2-.1.4-.1.6 0l11.4 10c.4.3.3.4 0 .7l-3.9 3.2c0 .1-.1.1-.2.1zm-15.4-.7H53l3.5-2.9-11-9.4-11.3 9.4 3.6 2.9zm13.5-2.7H39.6c-.5 0-.6 0 .2-.6l5.5-4.6c.2-.1.4-.1.6 0l5.4 4.7c.5.4.4.5 0 .5zm-10.1-.8h8.4L45.5 98l-4.3 3.6z"/>
    <path d="M32.3 110.1l-8.7-7.4v2.6c0 .5 0 .5-.5.5H18c-.4 0-.5-.1-.5-.5V92c0-.3 0-.5.5-.5h5.1c.4 0 .5.1.5.5v1.4l2.9-1.9c.2-.1.4-.1.5 0l7.8 6.4c.4.3.4.4 0 .7l-4.2 3.5 5.9 4.6c.4.3.4.4 0 .7l-3.7 2.7c-.2.2-.2.3-.5 0zm-8.9-8.4l9.2 7.8 3-2.3-5.9-4.8c-.3-.2-.2-.3.1-.5l4.4-3.6-7.4-6-4 2.6v-2.5h-4.3V105h4.3v-3.3c.1-.4-.1-.6.6 0zm5.4-2.9h-5.3c-.4 0-.4-.1-.1-.2l2.7-1.8c.2-.1.3-.1.5 0l2.4 1.8c.2.3.2.2-.2.2zm-4-.4h2.9l-1.4-1-1.5 1z"/>
    <path d="M14.9 105.8H9.8c-.4 0-.5-.1-.5-.5V92c0-.4 0-.5.5-.5h5.1c.4 0 .5.1.5.5v13.4c0 .3-.1.4-.5.4zm-4.6-.8h4.2V92.4h-4.2V105z"/>
  </g>
</svg>
