<svg xmlns="http://www.w3.org/2000/svg" viewBox="0 0 110 60">
  <polygon points="103.078,35.638 95.58,27.821 87.948,27.821 91.899,32.256 91.899,51.232 97.373,51.232 97.373,38.382 103.078,44.14 103.078,52.958 108.552,58.636 108.552,27.821 103.078,27.821"/>
  <polygon points="75.034,46.37 78.785,51.232 87.326,51.232 87.326,45.765 80.508,45.765 80.508,40.681 87.326,40.681 87.326,35.207 80.406,35.207 80.406,33.141 87.326,33.141 87.326,27.922 75.034,27.922"/>
  <path d="M62.035 27.82H55.26v23.412h13.87l4.156-6.585-11.25-16.826zm-1.302 17.32V36.06l6.392 9.083h-6.392z"/>
  <rect x="47.142" y="27.821" width="5.474" height="23.411"/>
  <path d="M39.994 27.807l-6.36 8.532-2.28-2.68-3.36 4.488 2.26 2.655-4.3 5.8 3.578 3.877 4.394-5.408 5.29 6.148h5.916V27.807h-5.138zM39.66 43.17L37.2 40.484l2.457-2.618v5.302z"/>
  <polygon points="14.583,32.891 10.125,27.821 1.042,27.821 5.426,32.766 5.426,51.232 10.393,51.232 10.393,36.712 14.853,41.516 19.211,37.016 19.211,53.769 24.685,59.458 24.685,34.409 18.806,28.024"/>
  <polygon points="66.864,8.827 59.365,1.01 51.733,1.01 55.684,5.445 55.684,24.421 61.157,24.421 61.157,11.571 66.864,17.329 66.864,26.147 72.337,31.825 72.337,1.01 66.864,1.01"/>
  <path d="M41.357 1.415L28.382 18.85l4.397 5.57h16.95l4.297-5.57-12.67-17.435zm-6.22 17.29l6.104-8.067 5.93 8.068H35.137z"/>
  <path d="M17.495 18.104L28.29 31.668l3.627-4.235-6.905-8.726 5.04-6.772L20.858.807l-3.363 4.056V1.01H12.02v23.41h5.475v-6.316zm3.41-8.418l1.7 2.247H19.11l1.795-2.247z"/>
  <rect x="5.2" y="1.01" width="5.474" height="23.411"/>
</svg>
