<!--
  SVG Music Logos
  Jimmy Page and The Black Crowes v1.0.0
  https://github.com/tiagoporto/svg-music-logos
  Copyright (c) 2016-2018 Tiago Porto (http://tiagoporto.com)
-->
<svg xmlns="http://www.w3.org/2000/svg" viewBox="0 0 200 200">
  <polygon points="86.052 46.582 100.592 35.864 114.847 46.253 109.202 28.995 123.986 18.351 105.704 18.388 100.448 2.014 94.76 18.658 76.844 18.775 91.034 29.223"/>
  <path d="M82.268 64.491c-.796.954-2.56.68-2.396-.779.185-1.646 2.117-1.137 2.571.062.356-3.38-4.602-4.484-5.666-1.239-1.147 3.498 4.179 5.374 5.491 1.956z"/>
  <path d="M46.231 36.571l1.307.426c5.33 2.524 8.546 7.889 11.965 12.441a840.585 840.585 0 0 0 6.189 8.13c1.562 2.028 3.202 3.757 3.638 6.369-3.71-4.578-7.518-9.047-11.074-13.761-3.536-4.689-7.502-9.045-12.672-11.906 3.657 4.94 7.727 9.214 10.575 14.728 1.397 2.704 3.072 5.375 4.282 8.161.463 1.067.673 3.066 2.108 2.75.975-.214 1.482-.981 1.522-1.918 1.877 1.817 3.574 3.246 5.813 4.63 1.012-2.277.502-5.713.166-8.102-.281-1.997-.336-2.129-1.668-3.378-1.014-.951-2.083-1.928-3.329-2.561 2.246-.057 3.19 2.139 5.103 2.664 2.058.564 3.487-2.067 4.79-3.309-2.284-.278-4.435-2.751-6.125-4.164-2.425-2.029-4.77-4.295-7.297-6.189-4.431-3.32-9.669-5.787-15.293-5.011z"/>
  <path d="M129.896 55.243c1.913-.524 2.857-2.72 5.103-2.664-1.356.688-2.386 1.776-3.529 2.748-1.264 1.074-1.217 1.408-1.468 3.191-.335 2.387-.849 5.828.166 8.102 2.238-1.384 3.935-2.813 5.812-4.63.036.856.673 2.036 1.746 1.967 1.285-.083 1.531-1.986 2.011-3.09 1.239-2.853 2.991-5.616 4.421-8.385 2.747-5.318 6.78-9.45 10.309-14.213-5.17 2.86-9.136 7.217-12.672 11.906-3.555 4.714-7.363 9.183-11.074 13.761.459-2.736 2.265-4.588 3.9-6.71a834.73 834.73 0 0 0 6.178-8.123c3.345-4.453 6.502-9.639 11.714-12.107l1.308-.426c-5.403-.745-11.242 1.536-15.36 5.068a809.413 809.413 0 0 1-7.561 6.409c-1.589 1.329-3.636 3.624-5.793 3.887 1.302 1.242 2.731 3.873 4.789 3.309z"/>
  <path d="M127.134 140.992c.457-2.779 4.528-1.907 5.135.393.471 1.785-.88 3.093-2.602 3.019-2.065-.09-3.398-2.597-5.702-1.214 2.518 2.787 6.508 5.598 10.386 5.598 3.738 0 4.106-2.765 2.777-5.771-1.589-3.592-6.213-7.804-10.387-7.854-1.881-.022-4.241 1.068-4.511 3.157-.459 3.562 2.247 2.743 4.904 2.672z"/>
  <path d="M95.016 147.723c.275-1.098.072-2.029-.127-3.123-.332-1.829-2.924-1.015-4.378-1-1.822.018-2.438 2.684-4.759.862-1.869-1.467-.95-4.695 1.538-4.511.981.073 1.077.856 1.7 1.133 1.205.537 2.552.489 4.233.439-2.258-2.364-5.031-4.998-8.443-5.424-3.075-.384-5.48 1.727-4.626 4.939.906 3.409 13.206 13.307 14.862 6.685z"/>
  <path d="M196.54 80.828c-.738 1.142-2.049 3.404-3.457 3.665.827-11.975-2.225-24.033-8.088-34.391.143 2.264-.267 4.483-1.022 6.604-1.479-5.219-3.074-10.237-5.744-14.985-2.722-4.841-6.419-8.85-10.334-12.742.15 1.555.223 3.109-.145 4.639-6.195-7.505-13.176-13.706-21.697-18.491 2.18 2.082 3.624 5.161 4.966 7.818 1.452 2.876 3.169 5.722 4.283 8.753 2.287 6.221 4.655 12.481 5.487 19.079 1.678 13.295-1.728 26.25-7.225 38.247-2.267 4.947-5.624 9.974-9.353 13.92-.456-.502-.574-.476-.334-1.141l.302.494c.181-2.566-.957-5.351-2.353-7.435.304.034.583-.143.873-.135a44.554 44.554 0 0 0-2.232-4.94c-.342-.654-1.074-1.388-1.259-2.069-.181-.668.465-.721-.09-1.593-1.103-1.736-2.124-3.626-3.348-5.28-1.557-2.105-1.049-1.499-.291-3.599.345-.956.9-1.514 1.251-2.377a17.182 17.182 0 0 0 1.064-4.012c.209-1.496.983-4.202.513-5.622-.187-.566-2.194-1.239-2.708-1.875-.942 1.152-5.851 6.041-6.266 2.752-.432-3.42-.278-6.539.142-9.942-1.395.378-2.529-.542-2.968-1.816-.852-2.477-3.079-1.612-4.837-1.054-1.978.628-4.059 1.219-5.926 2.132-1.272.621-3.684 1.478-4.299 2.859a12.538 12.538 0 0 1 1.594-.807c-1.051 1.364-2.864 2.039-4.125 3.208-1.495 1.386-3.427 3.095-4.282 4.963.404-.245.84-.33 1.256-.525-1.844 2.154-3.175 5.397-3.547 8.194-.374 2.815-.634 7.254.764 9.821.067-.621.252-.693.619-1.219-.181 1.668.312 4.826 1.664 5.956-.085-.319-.021-.638-.062-.954 4.911 2.565 1.748 11.531-.329 14.814-.759 1.2-1.528 2.374-2.602 3.322-.312.275-2.351 1.597-2.385 1.809l-.019.119a1.175 1.175 0 0 0-.537-.457c-2.246-.986-3.887-3.877-5.042-5.894-1.821-3.179-4.118-11.401.311-13.713-.041.316.023.636-.062.954 1.353-1.129 1.846-4.288 1.664-5.956.368.525.553.598.62 1.219 1.305-2.397 1.182-6.679.83-9.324-.4-3.003-1.618-6.361-3.613-8.69.416.195.852.28 1.256.525-.859-1.877-2.683-3.267-4.077-4.745-1.272-1.35-3.207-1.967-4.33-3.426.55.229 1.082.503 1.594.807-1.247-2.798-7.335-4.015-9.945-4.896-.918-.31-1.889-.531-2.77-.934-.49-.224-1.914 1.242-2.286 1.711-.855 1.079-1.225 2.488-3.031 1.999.419 3.403.574 6.522.142 9.942-.415 3.289-5.324-1.6-6.266-2.752-.678.838-2.179 1.021-2.663 1.739-.639.948.23 4.055.394 5.23.358 2.566 1.045 4.751 2.287 6.634.936 1.419 1.398 2.025.226 3.396-1.37 1.602-2.402 3.624-3.533 5.403-.091.143-.401.509-.444.699-.074.327.103.899.094.931-.21.704-.652 1.292-1.017 1.991-.929 1.78-1.729 3.462-2.443 5.344.29-.007.569.169.873.135-1.397 2.085-2.533 4.868-2.353 7.435l.302-.494c.24.665.122.64-.334 1.141-4.311-4.562-7.696-10.279-10.293-15.971-2.607-5.713-5.207-12.297-5.835-18.602-.664-6.664-1.182-13.123-.17-19.81.911-6.024 3.213-12.699 5.792-18.213 2.301-4.92 4.671-11.409 8.665-15.22l-.381.213C45.341 20.437 38.497 26.112 32.3 33.62c-.369-1.53-.295-3.084-.145-4.639-3.92 3.898-7.421 7.877-10.272 12.632-2.808 4.684-4.329 9.879-5.806 15.095-.756-2.122-1.163-4.338-1.022-6.604-5.867 10.367-8.896 22.406-8.086 34.39-1.408-.262-2.72-2.523-3.457-3.665-.717 6.76-2.109 13.509-1.229 20.33.817 6.332 2.272 12.875 5.385 18.479-1.825-.326-3.358-1.536-4.732-2.709 2.183 6.539 4.117 13.342 7.318 19.477 1.644 3.151 3.39 6.18 5.408 9.106 1.651 2.392 3.619 5.644 6.074 7.233-2.215.037-3.789-.575-5.562-1.822 3.845 5.18 7.574 10.241 11.858 15.084 4.198 4.746 9.261 9.028 14.213 12.953 9.891 7.838 22.719 13.774 35.043 16.42 2.766.594 5.513 1.085 8.252 1.48l-.023.141a102.377 102.377 0 0 0 16.311.958c4.196-.05 8.419-.359 12.707-.958l-.017-.107c16.218-2.408 31.761-8.797 44.844-19.165 9.699-7.687 17.201-16.954 24.517-26.806-1.775 1.246-3.346 1.86-5.562 1.822 2.427-1.57 4.355-4.767 5.999-7.124 1.963-2.815 3.669-5.736 5.255-8.778 3.282-6.294 5.305-13.204 7.545-19.913-1.374 1.172-2.906 2.382-4.731 2.709 3.003-5.404 4.518-11.752 5.306-17.868.91-7.071-.407-13.932-1.151-20.943zm-78.96-19.526c1.206-2.195 4.053-1.878 6.121-1.98 1.932-.095.643 5.228.065 6.096-1.417 2.127-4.048 3.087-6.509 3.003-.463-2.478-.937-4.825.323-7.119zm-26.806 71.111c2.098.681 3.931 1.949 5.419 3.577 1.545 1.69 1.931 3.948 3.198 5.549.644-.009 5.476.376 4.179-.802-1.309-1.189-2.254-2.952-3.192-4.441-1.475-2.342-3.121-5.806-1.45-8.497 1.682-2.707 5.336-6.029 8.389-7.109 3.653-1.292 6.458 1.448 9.006 3.67l-5.675 5.829c-1.033-1.25-1.815-1.755-.092-2.837-1.729-1.729-6.652-4.832-7.217-.17-.466 3.846 3.111 8.269 5.323 11.137 1.938 2.513 1.889 2.695 5.004 2.708l4.096.017c.85.004.396-1.249.535-1.91.768-3.64 4.078-6.737 7.661-7.714 7.161-1.954 15.826 3.289 16.149 11.138.346 8.398-9.591 13.34-16.598 9.268-2.408-1.399-4.429-3.026-5.886-5.475-.465-.781-.907-3.053-1.686-3.056l-5.654-.028c1.568 2.153 3.975 4.481 4.503 7.186.665 3.412-2.153 5.66-4.292 7.874-5.429 5.617-10.081 1.839-14.676-2.476l5.029-4.781c1.052-1 2.391.445 1.264 1.572-1.667 1.667.645 3.047 2.265 4.412 1.165.982 2.592 1.211 3.933.401 3.313-2.002.941-5.18-.468-7.464-1.201-1.947-2.579-3.778-3.905-5.643-1.174-1.652-4.287-.814-6.196-.804.199-.001-.918 3.904-1.151 4.381-.843 1.726-2.099 3.469-3.827 4.408-3.69 2.004-7.575 1.844-11.5.499-7.024-2.408-9.891-13.168-4.228-18.231 3.219-2.878 7.714-3.494 11.74-2.188zM76.899 59.341c2.594.039 4.635.252 5.992 2.724.637 1.161.792 6.884-.992 6.343-2.57-.357-4.824-1.35-6.008-3.81-.716-1.488-1.2-5.291 1.008-5.257zm71.148 112.082c-4.577 1.812-9.716 1.818-14.557 1.939-9.854.246-19.709.472-29.564.7-1.267.03-1.264 2.437-1.851 3.469-.818 1.438-2.311 2.772-3.794 3.578-3.319 1.806-7.292 1.468-10.905 1.134-9.956-.921-18.643-9.831-25.99-15.689-4.214-3.361-8.854-6.61-12.574-10.535-.899-.949 3.974-4.663 4.819-5.531 4.576-4.703 9.042-9.513 13.5-14.328.672-.726 5.662-5.17 5.119-6.066-.554-.913-11.697-.042-13.464-.049-1.315-.005-3.477-.41-4.702.234-1.131.595-2.236 2.856-2.992 3.886-1.574-2.173-.877-2.439.56-4.67a58.837 58.837 0 0 0 2.771-4.736c1.229-2.361 1.122-2.254 3.763-2.113l5.182.278c3.754.201 7.483-.177 11.232-.42 2.406-.156 2.336.637 3.667 2.691l2.496 3.851c-1.774.749-2.938 2.557-4.185 3.935l-7.314 8.085-10.831 11.975 15.882 13.944c5.085 4.464 10.824 11.226 17.998 12.148 6.705.862 7.369-6.361 4.009-10.641-3.028-3.857-9.567-2.414-5.259 2.56l1.419-1.973c2.55 1.239.285 2.589-1.006 3.847-1.488 1.45-1.854 2.637-3.651 1.92-2.863-1.143-3.086-5.459-1.866-7.787 1.641-3.133 5.826-4.501 9.175-4.21 3.26.284 6.399 2.366 7.279 5.659.677 2.532 7.309 1.188 9.662 1.188 1.847 0 4.587.986 4.587-1.28 0-1.438-1.397-2.518-2.483-3.161-1.39-.823-3.089.153-2.205-1.851.338-.766 3.44-3.082 4.213-3.088 1.721-.015 12.937-1.205 13.891-.057.825.992-1.932 2.95-2.702 3.721-1.133 1.133-3.718.556-5.286.536l-.061 4.873c6.323-.106 12.645-.23 18.968-.284 5.996-.051 11.653-1.055 16.254-5.144-.983 3.392-6.167 6.26-9.204 7.462z"/>
  <path d="M120.18 63.712c.156 1.385-1.483 1.736-2.32.877.33 2.974 6.693 1.845 5.414-2.054-1.064-3.245-6.021-2.141-5.665 1.239.455-1.199 2.386-1.708 2.571-.062z"/>
</svg>
