<svg xmlns="http://www.w3.org/2000/svg" viewBox="0 0 200 52">
	<path d="M159.16 29.325c-.002-3.525-1.346-6.84-3.785-9.333-1.692-1.73-3.775-2.906-6.042-3.476-.17-3.255-1.478-6.294-3.75-8.617-2.444-2.5-5.694-3.875-9.152-3.875h-.004c-7.013.003-12.723 5.736-12.913 12.862-5.02 1.82-8.632 6.708-8.63 12.46.003 3.525 1.347 6.84 3.786 9.333 2.442 2.498 5.692 3.874 9.15 3.874h.005c3.594 0 6.848-1.51 9.193-3.936.02.02.035.042.055.062 2.443 2.498 5.693 3.874 9.15 3.874h.006c7.133-.003 12.933-5.933 12.93-13.218h-1l1-.01zm-30.45-4.137c-1.813-1.852-2.913-4.24-3.16-6.824.73-.16 1.488-.246 2.265-.246h.005c2.916 0 5.658 1.162 7.723 3.272.07.073.133.153.202.228-1.298 1.836-2.157 4.017-2.39 6.39-1.737-.52-3.33-1.474-4.645-2.82zm8.317-1.9c.928 1.48 1.507 3.156 1.677 4.926-.732.16-1.49.246-2.267.247h-.005c-.37 0-.735-.018-1.098-.055.15-1.875.75-3.617 1.693-5.118zm-.595 7.173h.005c.778 0 1.536-.082 2.276-.218-.147 1.884-.75 3.635-1.695 5.142-.936-1.492-1.515-3.187-1.68-4.978.363.03.726.055 1.094.055zm4.2-2.863c-.276-2.17-1.072-4.213-2.324-5.982 1.993-2.148 4.798-3.496 7.91-3.498h.005c.37 0 .735.02 1.098.056-.34 4.256-3.002 7.846-6.687 9.424zm-4.206-21.572h.005c2.916 0 5.66 1.162 7.723 3.272 1.826 1.866 2.927 4.276 3.164 6.875-.362-.03-.725-.054-1.093-.054h-.005c-3.595 0-6.847 1.51-9.193 3.936-.02-.02-.036-.042-.055-.062-2.444-2.498-5.694-3.874-9.152-3.874h-.005c-.777 0-1.535.083-2.275.218.45-5.76 5.155-10.308 10.886-10.31zm-8.6 34.53h-.006c-2.915 0-5.657-1.163-7.722-3.273-2.072-2.117-3.214-4.936-3.215-7.946-.002-4.66 2.783-8.66 6.735-10.354.367 2.87 1.626 5.525 3.662 7.606 1.692 1.73 3.775 2.906 6.042 3.476.134 2.545.97 4.95 2.414 6.993-1.992 2.147-4.798 3.495-7.91 3.497zm29.334-11.22c.003 6.183-4.9 11.215-10.93 11.218h-.006c-2.915 0-5.657-1.162-7.722-3.272-.07-.072-.132-.15-.2-.226 1.474-2.084 2.366-4.618 2.437-7.363 4.627-1.676 8.057-5.96 8.562-11.12 1.735.52 3.328 1.475 4.643 2.82 2.072 2.117 3.214 4.935 3.215 7.934v.012z"/>
	<path d="M199.43 23.145c-.003-4.96-1.936-9.623-5.443-13.13-3.506-3.503-8.165-5.433-13.12-5.433h-.01c-10.235.005-18.56 8.34-18.556 18.595.003 4.96 1.936 9.624 5.443 13.13 3.507 3.504 8.166 5.434 13.123 5.434h.008c10.236-.004 18.56-8.34 18.555-18.58h-1l1-.015zm-2 .017c.004 9.137-7.424 16.575-16.557 16.58h-.007c-4.423 0-8.58-1.722-11.71-4.85-3.13-3.128-4.853-7.29-4.855-11.73-.003-9.138 7.425-16.576 16.558-16.58h.008c4.422 0 8.58 1.722 11.707 4.848 3.13 3.13 4.854 7.29 4.856 11.715v.017z"/>
	<path fill="none" stroke="#000" stroke-width=".5" d="M179.397 34.087c1.76 0 3.514-1.155 3.514-5.107.257-3.902-.297-7.764.257-11.75.554-3.988 4.092-4.132 4.092-4.132s.106-.47-.683-1.365c-.79-.895-2.82-2.56-4.86-2.56-2.034 0-5.796 1.493-5.796 5.97s.257 8.457.257 12.936c0 4.478 1.412 6.007 3.22 6.007z"/>
	<path stroke="#000" stroke-width=".5" d="M178.252 37.598c.29.01.843.045.843-1.453 0-1.506-.11-9.707-.103-10.26.007-.555-.1-9.97-.043-10.498.057-.528 1.255-1.83 2.07-2.433s2.713-.95 2.713-.95c-.24.205-.952.66-1.29.935s-1.83 2.25-2.258 2.93c-.427.68-.16 18.286-.16 20.076 0 1.797-1.393 2.127-1.773 1.652z"/>
	<path fill="none" stroke="#000" stroke-width=".5" d="M179.168 31.954c-.38-.38-2.052-2.354-2.23-2.533"/>
	<path fill="none" stroke="#000" stroke-width=".5" d="M179.168 29.663c-.38-.38-2.112-2.475-2.29-2.653"/>
	<path fill="none" stroke="#000" stroke-width=".5" d="M179.228 27.19c-.38-.38-2.172-2.535-2.35-2.714"/>
	<path fill="none" stroke="#000" stroke-width=".5" d="M179.288 24.838c-.38-.38-2.232-2.354-2.41-2.533"/>
	<path fill="none" stroke="#000" stroke-width=".5" d="M179.35 22.728c-.382-.38-2.053-2.113-2.23-2.292"/>
	<path fill="none" stroke="#000" stroke-width=".5" d="M179.41 20.496c-.382-.38-2.173-2.475-2.352-2.653"/>
	<path fill="none" stroke="#000" stroke-width=".5" d="M179.47 18.024c-.382-.38-2.113-2.595-2.292-2.774"/>
	<path fill="none" stroke="#000" stroke-width=".5" d="M179.47 16.154c-.382-.38-1.33-3.138-1.508-3.317"/>
	<path fill="none" stroke="#000" stroke-width=".5" d="M180.283 14.948c-.38-.38-.243-3.198-.422-3.377"/>
	<path fill="none" stroke="#000" stroke-width=".5" d="M181.488 13.44c-.38-.38.902-2.534.723-2.713"/>
	<path fill="none" stroke="#000" stroke-width=".5" d="M180.114 32.13c.38-.382 2.052-2.355 2.23-2.534"/>
	<path fill="none" stroke="#000" stroke-width=".5" d="M180.114 29.838c.38-.38 2.112-2.475 2.29-2.653"/>
	<path fill="none" stroke="#000" stroke-width=".5" d="M180.054 27.365c.38-.38 2.172-2.535 2.35-2.714"/>
	<path fill="none" stroke="#000" stroke-width=".5" d="M179.994 25.013c.38-.38 2.232-2.354 2.41-2.533"/>
	<path fill="none" stroke="#000" stroke-width=".5" d="M179.933 22.902c.38-.38 2.052-2.113 2.23-2.292"/>
	<path fill="none" stroke="#000" stroke-width=".5" d="M179.873 20.67c.38-.38 2.413-2.534 2.592-2.713"/>
	<path fill="none" stroke="#000" stroke-width=".5" d="M179.813 18.2c.38-.382 2.895-2.656 3.074-2.835"/>
	<path fill="none" stroke="#000" stroke-width=".5" d="M180.675 15.31c.38-.38 2.594-1.088 2.773-1.266"/>
	<path fill="none" stroke="#000" stroke-width=".5" d="M181.58 13.893c.38-.38 2.834-1.027 3.013-1.206"/>
	<path fill="none" stroke="#000" stroke-width=".5" d="M182 12.777c.382-.38 2.836-1.027 3.015-1.206"/>
	<path d="M10.076 7.013c-1.63.03-3.19.19-4.518.547-4.358 1.17-1.02 5.02-1.01 5.065 1.47-2.267.2-2.473 6.938-2.473 3.697 0 7.326-.144 4.85 2.597-3.484 3.856-10.314 10.61-12.8 14.333 7.343 8.02 11.496 13.984 17.26 18.76 2.33 1.93 4.828 2.812 6.594 2.788 1.766-.023 2.446-.697 3.47-1.227 1.077-.556 3.085-2.988 3.085-5.687 0 0 13.488.076 21.116-.108 7.63-.184 12.465-7.41 12.362-7.51.108.064-7.83 5.753-12.378 5.786s-10.015-.05-10.015-.05-.2-2.514.83-4.23c1.027-1.716 3.28-2.634 3.28-2.634l-10.122.1s2.163.815 3.234 2.504c1.072 1.69 1.052 4.253 1.052 4.253l-9.476-.05c-.274-1.398-.915-2.98-1.65-3.648-1.03-.94-1.128-1.124-2.628-1.327s-2.016-.205-3.374.506c-1.36.71-2.713 3.245-2.76 4.235-.05.99 1.17 2.91 2.014 2.48.844-.432 1.428-1.352 1.874-2.14.167-.296.23-.475.232-.597 0-.015.002-.036 0-.05 0-.007-.007-.02-.008-.025l-.008-.025c0-.004-.007-.013-.008-.017-.052-.11-1.217.145-1.235.125-.258-.28-.143-1.54.41-2.065.56-.532 2.272-.546 3.157-.04 1.125.643 2.045 1.63 2.045 3.573 0 2.04-.56 2.583-1.543 3.55-.836.822-4.012 2.735-7.312-.565C18.34 39.054 11.448 31.246 7.275 27.1c-.36-.356 9.234-11.52 12.444-15.485 1.817-2.246 3.003-2.998 3.017-3.316 0-.007-.007-.02-.008-.026-.002-.004 0-.013 0-.017-.007-.013-.023-.03-.034-.04l-.017-.018c-.195-.142-8.885-1.257-12.604-1.187z"/>
	<path d="M33.96 8.5c0 4.113 3.803 9.35 4.213 9.946h-4.278c-.192-4.202-3.388-7.478-7.155-7.478-3.886 0-7.163 3.484-7.163 7.876s3.277 7.876 7.163 7.876c3.764 0 6.96-3.272 7.155-7.47h4.825c.916 1.334 3.114 4.504 3.114 6.25 0 2.588-1.093 3.01-2.524 3.01-1.352 0-3.782-2.846-3.666-3.53v-.018-.033-.018-.008-.008c0-.003-.007-.014-.008-.017v-.01l-.008-.007-.008-.008-.008-.008-.017-.008c-.003-.003-.014-.008-.017-.01H35.503c-.48.086-1.508 1.397-1.814 2.04-.376.788 3.692 3.98 5.615 3.98 2.752 0 4.87-2.34 4.87-5.19 0-3.038-1.1-3.974-2.52-6.408h4.17c.196 4.198 3.39 7.47 7.155 7.47 3.886 0 7.17-3.484 7.17-7.876s-3.284-7.876-7.17-7.876c-3.77 0-6.965 3.273-7.155 7.478h-4.65c-.482-.788-5.633-5.696-4.967-9.896.252-1.59.963-2.345 2.337-2.67 2.392-.57 3.292 2.717 3.292 2.717s1.673-.863 1.907-1.6-2.89-3.6-5.042-3.6c-2.06 0-4.74 2.836-4.74 5.1zm-9.79 5.444c.044-.003.087 0 .133 0 1.902 0 4.63 1.74 6.11 4.502H27.37c-.187-.39-.56-.655-.995-.655-.62 0-1.127.547-1.127 1.22 0 .673.507 1.22 1.127 1.22.543 0 .998-.424 1.103-.98h3.324c.15.36.27.736.373 1.12.598 2.23.505 3.78-1.807 3.78s-6.124-1.658-7.155-3.88c-.944-2.035-.25-6.166 1.957-6.326zm26.214 0c.052-.005.112 0 .166 0 2.312 0 5.842 2.577 6.873 6.425.598 2.23.497 3.78-1.816 3.78s-6.124-1.667-7.155-3.89c-.14-.3-.247-.64-.315-1.01h3.988c.186.394.56.663.995.663.62 0 1.127-.546 1.127-1.22 0-.672-.507-1.218-1.127-1.218h-.108-.008c-.49.054-.89.455-.987.97h-3.97c-.1-2.015.7-4.358 2.337-4.5z"/>
	<path d="M111.128 40.153c-1.49-3.318-3.69-6.18-6.368-8.455.176-.93.28-1.888.28-2.87 0-7.05-4.752-13.02-11.256-14.966-.52-3.58-1.842-6.992-3.903-10.013l-.62-.91-.62.91c-2.054 3.01-3.375 6.412-3.898 9.982C78.18 15.74 73.37 21.736 73.37 28.83c0 1.01.106 1.997.293 2.956-2.632 2.26-4.796 5.092-6.266 8.367l-.434.966 1.055.088c.744.063 1.417.094 2.058.094 2.76 0 5.45-.484 7.98-1.38 2.865 2.81 6.805 4.548 11.15 4.548 4.36 0 8.313-1.75 11.18-4.576 2.554.914 5.274 1.408 8.062 1.408.642 0 1.314-.03 2.06-.094l1.053-.09-.432-.965zm-7.59-11.324c0 .61-.052 1.21-.13 1.8-3.21-2.35-6.996-3.895-11.05-4.42l.016-.035-.03-.002c1.122-2.816 1.695-5.782 1.695-8.834 0-.614-.025-1.224-.07-1.83 5.565 1.942 9.57 7.172 9.57 13.32zM90.17 30.394c.286-.44.558-.892.816-1.354l.003-.005c.255-.458.497-.926.724-1.403 4.214.458 8.138 2.097 11.38 4.632-.562 2.207-1.645 4.208-3.12 5.868-3.88-1.584-7.298-4.234-9.804-7.737zm-11.703 7.77c-1.475-1.65-2.56-3.635-3.132-5.828 3.26-2.578 7.22-4.244 11.475-4.706.224.472.463.933.715 1.386l.015.028c.258.46.53.912.815 1.35-2.525 3.53-5.973 6.193-9.888 7.77zm7.65-23.136c.995-.218 2.027-.34 3.088-.34 1.104 0 2.174.134 3.206.368.077.755.13 1.514.13 2.28 0 3.015-.592 5.94-1.758 8.707-.11-.007-.21-.01-.317-.016-.106-.007-.216-.013-.32-.017-.27-.01-.535-.018-.797-.02h-.17c-.262.002-.528.01-.8.02-.102.004-.21.01-.316.016-.107.005-.21.008-.32.015-1.166-2.764-1.757-5.69-1.757-8.707 0-.776.053-1.545.13-2.31zm3.37 13.584c-.07.125-.15.243-.225.366-.074-.122-.153-.24-.225-.364-.127-.218-.25-.44-.37-.663-.077-.145-.146-.295-.22-.442.16-.006.318-.008.476-.01.227-.004.46-.004.687 0 .155.003.31.005.468.01-.075.148-.144.298-.222.442-.12.223-.24.444-.368.662zm-.225-22.96c1.473 2.41 2.454 5.06 2.933 7.824-.97-.184-1.967-.29-2.99-.29-.982 0-1.94.102-2.873.272.48-2.758 1.46-5.4 2.93-7.806zM74.87 28.83c0-6.193 4.062-11.455 9.69-13.364-.048.62-.075 1.245-.075 1.873 0 3.052.572 6.018 1.693 8.833l-.03.002.017.035c-4.098.53-7.922 2.105-11.153 4.498-.084-.616-.142-1.24-.142-1.88zm-5.634 10.954c1.233-2.426 2.883-4.567 4.834-6.36.61 1.955 1.598 3.747 2.88 5.293-2.195.706-4.51 1.084-6.875 1.084-.27.002-.55-.004-.84-.016zm19.97 3.186c-3.69 0-7.046-1.393-9.59-3.66 3.77-1.636 7.097-4.235 9.626-7.604l.02.03.02-.03c2.51 3.346 5.81 5.933 9.547 7.572-2.548 2.285-5.92 3.692-9.625 3.692zm19.242-3.168c-2.4 0-4.744-.39-6.965-1.115 1.288-1.562 2.275-3.374 2.878-5.35 1.993 1.81 3.674 3.983 4.927 6.448-.288.01-.566.017-.84.017z"/>
</svg>
