<!--
  SVG Music Logos
  Linkin Park - Minutes to Midnight v0.1.0
  https://github.com/tiagoporto/svg-music-logos
  Copyright (c) 2016-2018 Tiago Porto (http://tiagoporto.com)
-->
<svg xmlns="http://www.w3.org/2000/svg" viewBox="0 0 200 136.5">
  <path d="M179.314 71.98l16.382-26.393H173.61l-12.37 22.845V45.587H142.11V98.597l-12.776-21.51c3.47-.525 5.794-1.97 7.42-4.092 1.885-2.457 2.987-5.55 2.987-9.36 0-5.827-1.334-10.3-5.093-13.4-3.758-3.098-9.198-4.647-16.308-4.647h-24.54V92.94l-16.76-47.353H41.493L51.63 56.635l-3.656 10.91c.104-.31.232-1.407.232-2.327 0-6.77-1.867-11.708-5.598-14.824-3.732-3.117-9.626-4.676-17.686-4.676H2v53.466h19.203v-15.78h6.006c12.012 0 15.493-3.898 17.457-6.696l-8.213 22.477h20.46l1.67-6.73h15.05l1.745 6.73h37.551V81.503l29.23 52.99-.047-35.308h19.126V76.78l13.153 22.405H198L179.314 71.98zm-150.86-3.635c-.972.763-2.374 1.146-4.19 1.146h-2.988v-8.91h2.988c1.776 0 3.157.396 4.153 1.184.995.797 1.493 1.897 1.493 3.303 0 1.423-.487 2.504-1.457 3.278zm33.395 11.36l4.56-17.862 3.885 17.862H61.85zm58.392-11.187c-1 .888-2.416 1.336-4.277 1.336h-3.035V59.382h3.035c1.86 0 3.277.466 4.277 1.374 1 .914 1.504 2.226 1.504 3.937 0 1.664-.506 2.94-1.504 3.825z"/>
  <polygon points="2 2.007 16.781 2.007 16.781 30.245 31.562 30.245 31.562 44.24 2 44.24 2 2.007"/>
  <polygon points="195.854 2.007 180.68 2.007 180.68 23.736 167.6 2.007 152.686 2.007 152.686 44.24 167.6 44.24 167.6 23.12 180.418 44.24 195.854 44.24 195.854 2.007"/>
  <polygon points="151.38 2.007 136.468 2.007 136.468 42.283 122.927 22.754 135.26 2.007 118.547 2.007 108.739 19.582 108.739 2.007 93.825 2.007 93.825 44.24 108.739 44.24 108.739 26.619 119.33 44.24 136.468 44.24 137.825 44.24 151.38 44.24 151.38 2.007"/>
  <polygon points="50.268 2.007 65.049 2.007 78.129 23.379 78.092 2.007 92.394 2.007 92.394 66.519 65.049 22.601 65.049 44.24 50.268 44.24 50.268 2.007"/>
  <polygon points="33.524 2.007 48.305 2.007 48.305 44.24 33.524 44.24 33.524 2.007"/>
</svg>
