<svg xmlns="http://www.w3.org/2000/svg" viewBox="0 0 200 80" class="mamonas-assassinas">
  <g class="mamonas-assassinas__shadow">
    <path d="M124.43 3.557c8.776 6.27 10.004 25.287-12.384 30.495-13.915-10.683-3.742-29.7 12.384-30.495zm-12.423 28.735c12.8-4.334 18.618-18.89 11.85-27.375-13.125 5.85-15.3 18.527-11.85 27.375z"/>
    <path d="M181.915 8.37c2.98-3.442 6.867-4.277 11.847-4.813l1.885 8.014c-1.58-1.887-3.02-3.888-4.664-5.72-1.965.046-3.83 1.25-5.386 2.412-1.726 1.268-2.608 3.984-.875 5.63 3.08 2.824 7.938 3.857 11.226 6.395 2.838 2.232 2.66 6.185-.093 8.393-3.458 2.95-8.562 4.147-12.845 5.16l-2.99-8.915 6.01 6.617c2.498-1.226 5.406-2.098 7.155-4.423 1.035-1.304.772-3.494-.665-4.406-2.916-2.124-6.543-2.99-9.504-5.036-2.927-2.06-3.49-6.64-1.1-9.308z"/>
    <path d="M8.602 6.934l12.753-.348-3.603 2.007s5.212 13.69 6.947 20.557c3.11-6.892 9.07-20.8 9.07-20.8l-5.618-2.103 12.3-.953-4.7 2.7 2.33 23.35 3.674 2.178-10.617.217 4.985-2.352-4.168-14.528-6.08 18.374L14.47 14.03l.873 18.13 4.174 1.666L7.497 34.83l4.357-2.173.414-23.46L8.6 6.934z"/>
    <path d="M49.328 6.262l8.586-.015-3.01 1.587 8.312 20.82 3.8 3.142-12.228.004 3.494-1.813-1.203-6.505-4.762 1.013-2.89-1.013-3.168 6.384 2.416 1.962h-8.123l3.618-1.77L53.3 8.284s-2.637-1.372-3.972-2.023m.625 16.022l6.942.278-1.79-9.99-5.152 9.712z"/>
    <path d="M73.37 1.623l11.57 1.2-2.788 1.31L85.69 24.42 96.202 6.245l-3.77-2.68 10.5.786-4.25 1.047-.003 23.796 3.428 2.408-10.713-.726 5.303-1.857-2.45-13.874L85.69 31.21 77.415 8.8 75.56 27.59l3.688 1.962-10.8-.21 3.533-1.623 4.44-23.38-3.05-2.717z"/>
    <path d="M133.31 8.968L145.5 7.543l-2.293 2.025 11.076 18.33-2.256-19.262-3.78-1.365 9.445-1.087-2.328 2.04 1.568 26.546S145.42 21.82 139.602 14.46c.992 6.834 2.525 19.046 2.525 19.046l3.375 1.603-9.887.9 3.344-1.85-2.126-22.84-3.525-2.352z"/>
    <path d="M165.586 5.696l7.77.55-2.66 1.22 6.04 20.253 1.95 2.25-9.305-.63 2.735-1.474-.6-5.78-4.087.575-2.763-1.12-3.538 5.64 3.682 2.088-8.638-.566 3.345-1.43 9.645-19.412c.003 0-2.37-1.466-3.576-2.164m-.497 14.812l6.298.364-.877-8.754-5.42 8.39z"/>
    <path d="M37.578 40.586l3.925 6.993-5.17-4.688c-2.593 1.124-4.91 2.623-5.706 5.062-.57 1.57.953 3.404 2.396 4.057 3.41 1.566 7.375 1.344 10.74 3.03 2.78 1.507 2.995 5.063 1.227 7.588-2.456 3.615-6.384 4.805-10.463 6.365l-4.16-6.463 6.298 4.175c2.832-1.837 6.187-3.844 6.076-7.52-1.252-2.077-3.322-1.822-5.487-2.3-2.265-.532-4.72-.715-6.678-2.075-2.46-1.67-3.964-5.206-2.48-7.944s5.495-4.91 9.483-6.28z"/>
    <path d="M48.53 50.11c2.898-2.72 7.05-3.116 10.803-3.592l1.204 7.714-4.103-5.767c-2.077.497-4.247 1.235-5.74 2.832-1.11 1.162-1.09 2.986.11 4.118 2.547 2.53 6.208 3.063 8.926 5.363 1.586 1.4 2.38 3.905 1.543 5.89-.765 2.107-2.77 3.07-4.77 3.86-2.768 1.12-5.662 1.804-9.124 1.756l-1.905-7.368 4.503 5.185c3-.2 7.006-2.028 7.988-5.46-.604-2.33-2.517-2.745-4.424-3.824-2.026-1.152-4.145-1.43-5.514-3.413-1.612-2.226-1.53-5.465.5-7.293z"/>
    <path d="M82.572 56.498c2.258-3.036 4.595-3.866 9.243-4.953l1.99 5.593-4.122-3.516c-2.04.528-3.99 1.616-5.162 3.174-1.05 1.3-.85 3.84.608 4.773 2.754 1.867 7.244 1.82 10.152 3.383 1.863.978 3.627 3.68 3.167 5.77-.32 1.96-5.814 6.726-12.278 7.897l-2.77-6.602 4.632 4.185c4.038-1.14 6.998-2.696 7.335-6.086-.956-2.077-4.266-2.96-6.23-3.637-2.014-.725-4.235-1.16-5.863-2.64-2.1-1.772-2.38-5.19-.702-7.342z"/>
    <path d="M102.44 52.718c2.96-2.827 7.794-3.19 11.662-3.665l.4 6.82-3.862-4.977c-2.09.518-4.305 1.256-5.9 2.777-1.378 1.254-.81 3.772.656 4.998 2.747 2.557 6.155 3.077 8.907 5.627 1.174 1.083 1.377 3.795 1.152 5.69-2.428 5.312-9.85 6.073-13.884 5.683l-1.724-7.534 4.762 5.625c2.907-.26 5.04-.984 6.812-3.123.923-1.036.954-2.865-.033-3.873-2.784-2.86-7.04-3.703-9.6-6.818-1.662-1.894-1.67-5.01.652-7.228z"/>
    <path d="M8.42 43.18l8.783-1.225-2.72 1.995L27.33 65.842l3.525 2.063-12.076 1.5 2.625-2.175-2.504-7.023-4.864 1.78-3.396-.794-2.512 7.537 3.75 1.373-8.675.915L6.644 68.9l6.22-24.142s-2.958-1.076-4.442-1.58m6.35 5.67l-3.83 10.956 7.66-.75-3.83-10.205z"/>
    <path d="M70.64 51.265l7.025 1.02-2.695.69L80 76.41l2.988 2.568-12.312-2.03L74.51 75.6l-.14-6.6-4.945.237-2.823-1.68-4.426 5.943 2.733 2.256-7.7-1.036 3.456-1.283L73.27 53.22l-2.63-1.955zm-3.1 15.163l6.903 1.423-.596-10.447-6.308 9.025z"/>
    <path d="M180.448 47.295c3.175-2.52 7.888-2.643 11.88-2.938l.85 8.167-3.62-6.314c-2.17-.093-4.928.614-6.594 1.996-1.467 1.134-1.588 3.982-.253 5.36 2.494 2.722 6.193 3.36 8.93 5.79 1.76 1.533 1.9 4.98.87 7.116-.846 2.032-6.51 5.51-15.056 4.556l-1.432-7.723 4.575 5.693c3.234-.096 7.182-.4 8.44-4.392-.5-2.486-1.845-3.38-3.79-4.614-1.987-1.297-4.272-2.336-5.652-4.347-1.81-2.45-1.88-6.18.853-8.35z"/>
    <path d="M155.023 46.34l7.6-.75-2.263 1.575 11.855 19.09 3.092 1.268-11.182 1.946 2.995-2.32-2.062-5.798-4.305 1.662-3.214-.795-1.963 6.507 3.144 1.537-7.34 1.22 2.775-2.627 4.648-21.362-3.78-1.155zm2.864 14.535l6.983-.344-4.163-9.027-2.82 9.372z"/>
    <path d="M117.58 51.286l8.982-.004-2.386 1.523-1.24 19.475 3.886 1.61-8.236.377 2.85-1.773-1.567-19.583-2.29-1.624z"/>
    <path d="M134.21 47.842l9.56 1.33-2.066 1.637 5.77 18.785 2.418-18.276-2.96-1.763 8.646.59-2.854 1.505-4.47 23.258-10.76-22.236-1.648 17.788 1.952 1.78-7.896-.478 2.777-1.085 3.513-20.783s-.993-1.338-1.982-2.055z"/>
  </g>

  <g class="mamonas-assassinas__first-color">
    <path d="M123.23 2.956c8.775 6.27 10.003 25.287-12.385 30.495C96.93 22.77 107.103 3.75 123.23 2.957zm-12.424 28.736c12.8-4.334 18.618-18.89 11.85-27.375-13.125 5.85-15.3 18.526-11.85 27.375z"/>
    <path d="M180.714 7.77c2.98-3.443 6.867-4.278 11.847-4.814l1.886 8.014c-1.58-1.888-3.02-3.89-4.664-5.72-1.965.045-3.83 1.248-5.386 2.41-1.726 1.27-2.608 3.985-.875 5.632 3.082 2.823 7.94 3.856 11.227 6.394 2.838 2.232 2.66 6.185-.093 8.393-3.458 2.948-8.562 4.146-12.845 5.158l-2.99-8.914 6.008 6.617c2.5-1.225 5.407-2.097 7.156-4.422 1.035-1.303.772-3.493-.665-4.405-2.917-2.124-6.544-2.99-9.505-5.036-2.927-2.06-3.49-6.64-1.1-9.308z"/>
    <path d="M7.4 6.333l12.754-.348-3.603 2.007s5.213 13.69 6.948 20.557c3.11-6.893 9.07-20.802 9.07-20.802l-5.617-2.102 12.302-.953-4.7 2.7 2.33 23.35 3.673 2.178-10.617.218 4.986-2.35-4.168-14.53-6.08 18.375L13.27 13.43l.873 18.13 4.174 1.666-12.02 1.003 4.357-2.173.414-23.46L7.4 6.333z"/>
    <path d="M48.127 5.66l8.586-.014-3.01 1.587 8.312 20.82 3.8 3.142-12.23.006 3.495-1.812-1.203-6.505-4.76 1.013-2.89-1.013-3.17 6.384 2.417 1.962H39.35l3.62-1.772 9.128-21.772s-2.636-1.373-3.97-2.025m.624 16.023l6.942.278-1.79-9.99-5.152 9.713z"/>
    <path d="M72.17 1.022l11.568 1.2-2.787 1.31 3.54 20.286L95 5.646l-3.77-2.68 10.5.786-4.25 1.046-.002 23.797 3.43 2.408-10.714-.726 5.303-1.857-2.45-13.875L84.49 30.61 76.213 8.198 74.358 26.99l3.69 1.96-10.8-.21 3.532-1.622 4.44-23.38-3.05-2.716z"/>
    <path d="M132.107 8.367L144.3 6.942l-2.293 2.025 11.077 18.33-2.255-19.262-3.78-1.365 9.444-1.088-2.328 2.04 1.568 26.546S144.22 21.22 138.4 13.858c.993 6.835 2.526 19.047 2.526 19.047l3.375 1.603-9.886.9 3.344-1.85-2.125-22.84-3.526-2.35z"/>
    <path d="M164.385 5.096l7.77.55-2.66 1.22 6.04 20.253 1.95 2.25-9.304-.63 2.736-1.474-.6-5.78-4.087.575-2.764-1.12-3.538 5.64 3.682 2.088-8.637-.566 3.345-1.43 9.645-19.412s-2.372-1.466-3.578-2.164m-.497 14.81l6.3.365-.878-8.753-5.422 8.39z"/>
  </g>

  <g class="mamonas-assassinas__second-color">
    <path d="M36.377 39.985l3.925 6.993-5.17-4.687c-2.593 1.125-4.91 2.624-5.706 5.063-.57 1.57.953 3.404 2.396 4.057 3.41 1.565 7.375 1.343 10.74 3.03 2.78 1.506 2.995 5.062 1.227 7.587-2.457 3.615-6.385 4.805-10.464 6.365l-4.16-6.463 6.298 4.174c2.832-1.837 6.187-3.844 6.076-7.52-1.253-2.077-3.323-1.822-5.488-2.3-2.265-.532-4.72-.715-6.678-2.075-2.46-1.67-3.964-5.207-2.48-7.945s5.495-4.91 9.483-6.28z"/>
    <path d="M47.328 49.51c2.9-2.72 7.052-3.117 10.804-3.593l1.204 7.714-4.103-5.766c-2.077.497-4.247 1.235-5.74 2.832-1.11 1.162-1.09 2.986.11 4.118 2.547 2.53 6.208 3.063 8.926 5.363 1.585 1.4 2.38 3.905 1.542 5.89-.765 2.107-2.77 3.07-4.77 3.86-2.768 1.12-5.662 1.804-9.124 1.756l-1.904-7.368 4.503 5.185c3-.202 7.006-2.03 7.988-5.46-.604-2.33-2.517-2.746-4.424-3.825-2.025-1.152-4.144-1.43-5.513-3.413-1.612-2.226-1.53-5.464.5-7.293z"/>
    <path d="M81.37 55.897c2.258-3.036 4.595-3.866 9.243-4.953l1.99 5.593-4.122-3.516c-2.038.53-3.988 1.617-5.16 3.176-1.052 1.3-.853 3.84.606 4.773 2.754 1.867 7.244 1.82 10.152 3.383 1.863.978 3.627 3.68 3.167 5.77-.32 1.96-5.814 6.726-12.278 7.897l-2.77-6.602 4.633 4.185c4.038-1.14 6.998-2.696 7.335-6.086-.956-2.077-4.266-2.96-6.23-3.637-2.014-.725-4.235-1.16-5.863-2.64-2.1-1.773-2.38-5.192-.702-7.343z"/>
    <path d="M101.238 52.117c2.96-2.827 7.795-3.19 11.663-3.665l.4 6.82-3.86-4.977c-2.092.518-4.306 1.256-5.902 2.777-1.377 1.254-.81 3.772.657 4.998 2.747 2.556 6.155 3.076 8.907 5.626 1.174 1.083 1.377 3.795 1.152 5.69-2.428 5.312-9.85 6.073-13.884 5.683l-1.725-7.535 4.762 5.625c2.907-.26 5.04-.985 6.812-3.124.922-1.036.953-2.865-.034-3.873-2.784-2.86-7.04-3.703-9.6-6.818-1.662-1.894-1.67-5.01.652-7.228z"/>
    <path d="M7.22 42.58l8.782-1.225-2.72 1.995 12.845 21.892 3.525 2.063-12.076 1.5L20.2 66.63l-2.503-7.023-4.864 1.78-3.396-.794-2.513 7.538 3.75 1.374L2 70.417 5.442 68.3l6.22-24.143S8.703 43.08 7.22 42.58m6.35 5.67L9.737 59.203l7.662-.75-3.83-10.205z"/>
    <path d="M69.44 50.665l7.024 1.02-2.695.69 5.028 23.436 2.99 2.568-12.313-2.03L73.31 75l-.14-6.6-4.946.237-2.824-1.682-4.425 5.944 2.733 2.255-7.7-1.036 3.457-1.284L72.068 52.62l-2.628-1.955zm-3.103 15.162l6.904 1.423-.595-10.448-6.308 9.025z"/>
    <path d="M179.246 46.694c3.175-2.52 7.888-2.643 11.88-2.938l.85 8.167-3.62-6.314c-2.17-.094-4.928.613-6.594 1.995-1.467 1.134-1.588 3.982-.253 5.36 2.492 2.722 6.19 3.36 8.93 5.79 1.76 1.533 1.9 4.98.867 7.116-.845 2.033-6.508 5.51-15.055 4.557l-1.432-7.723 4.575 5.693c3.234-.096 7.182-.4 8.44-4.392-.5-2.486-1.845-3.38-3.79-4.614-1.987-1.296-4.272-2.335-5.652-4.346-1.81-2.45-1.88-6.18.853-8.35z"/>
    <path d="M153.822 45.74l7.6-.752-2.263 1.576 11.854 19.09 3.092 1.268-11.182 1.946 2.995-2.32-2.063-5.797-4.305 1.663-3.214-.795-1.962 6.508 3.144 1.537-7.34 1.22 2.774-2.627 4.648-21.362-3.78-1.155zm2.864 14.534l6.983-.344-4.164-9.028-2.82 9.372z"/>
    <path d="M116.38 50.685l8.98-.004-2.386 1.524-1.24 19.475 3.886 1.61-8.236.376 2.85-1.773-1.567-19.583-2.288-1.625z"/>
    <path d="M133.01 47.242l9.558 1.33-2.066 1.637 5.77 18.785 2.418-18.276-2.96-1.763 8.646.59-2.854 1.505-4.47 23.258-10.76-22.236-1.648 17.788 1.952 1.78-7.896-.478 2.777-1.085 3.514-20.783c.002 0-.99-1.34-1.98-2.055z"/>
  </g>
</svg>
