<svg xmlns="http://www.w3.org/2000/svg" viewBox="0 0 200 70.22">
  <polygon points="2 2.664 8.921 2.664 8.921 64.961 2 64.961 2 2.664"/>
  <polygon points="62.098 14.936 69.218 14.936 69.218 52.966 62.098 52.966 62.098 14.936"/>
  <polygon points="28.129 64.961 28.129 58.508 85.439 58.508 85.439 64.961 28.129 64.961"/>
  <polygon points="39.55 8.711 39.55 2.664 165.533 2.664 165.533 8.711 39.55 8.711"/>
  <polygon points="112.504 64.961 112.504 58.508 175.698 58.508 175.698 64.961 112.504 64.961"/>
  <path d="M92.514 14.936h5.372v6.776c-1.986 0-2.366-.033-2.366.654v31.272l2.366 3.28V67.64l-9.35-13.68V19.037l3.978-4.102z"/>
  <polygon points="11.409 13.581 11.409 24.726 18.42 34.099 28.329 20.307 28.329 52.966 35.25 52.966 35.25 2.664 28.329 2.664 28.329 10.813 18.42 23.971 11.409 13.581"/>
  <polygon points="111.642 14.936 117.51 14.936 124.129 52.966 117.794 52.966 111.642 14.936"/>
  <polygon points="145.959 14.936 139.571 14.936 135.786 35.835 128.943 24.229 123.286 33.911 125.027 43.593 129.161 36.957 133.995 45.607 132.564 52.966 139.287 52.966 145.959 14.936"/>
  <polygon points="183.956 24.108 196.572 36.598 196.572 64.961 190.142 64.961 190.142 39.35 179.279 28.648"/>
  <polygon points="182.157 11.681 189.358 18.566 185.884 22.289 190.427 26.629 198 18.678 182.643 2.58 169.273 15.978 169.305 52.966 175.698 52.966 175.698 18.472"/>
  <path d="M45.387 53.11h-6.75c-3.18-16.996 1.347-27.264 11.146-32.955v8.32c-6.077 6.223-6.63 10.682-4.396 24.634z"/>
  <polygon points="52.208 14.936 59.328 14.936 59.328 52.966 52.208 52.966 52.208 40.739 46.924 40.739 48.651 33.622 52.208 33.622 52.208 14.936"/>
  <polygon points="165.533 14.936 165.533 52.966 158.412 52.966 158.412 40.739 153.129 40.739 154.856 33.622 158.412 33.622 158.412 14.936"/>
  <path d="M78.223 14.936h7.066v38.03h-7.067V34.01c-1.726-3.537-4.28-5.944-6.86-7.37v-7.634c2.727 1.006 5.238 3.115 6.86 5.293l-.054-9.365h.053z"/>
  <path d="M151.593 53.11h-6.75c-3.18-16.996 1.347-27.264 11.146-32.955v8.32c-6.077 6.223-6.63 10.682-4.397 24.634z"/>
  <path d="M106.297 14.936h-5.372v6.776c1.986 0 2.366-.033 2.366.654v31.272l-2.365 3.28V67.64l9.35-13.68V19.037l-3.978-4.102z"/>
</svg>
