<!--
  SVG Music Logos
  Marcelo D2 - A Procura da Batida Perfeita v0.1.0
  https://github.com/tiagoporto/svg-music-logos
  Copyright (c) 2016-2018 Tiago Porto (http://tiagoporto.com)
-->
<svg xmlns="http://www.w3.org/2000/svg" viewBox="0 0 200 121">
  <path d="M11.29 2.565h85.835v18.213H24.482v36.85H2.5v-46.27c0-4.836 3.956-8.793 8.79-8.793z"/>
  <path d="M112.426 30.848h20.733v17.23h-7.425v2.662H103.04V40.234c0-5.163 4.224-9.386 9.386-9.386z"/>
  <path d="M138.483 30.848h20.607c5.162 0 9.385 4.223 9.385 9.386v20.592h-.154v.7c0 5.163-4.223 9.387-9.386 9.387h-27.736v-14.29h.14v-.28h14.008V48.08h-6.864V30.847z"/>
  <path d="M168.475 74.415v17.09H103.04V66.01c0-5.162 4.224-9.386 9.386-9.386h13.448v17.79h42.6z"/>
  <path d="M30.896 30.848h23.642v60.658H30.896V30.848z"/>
  <path d="M59.61 30.848h28.86c4.855 0 8.827 3.972 8.827 8.825V82.68c0 4.854-3.972 8.826-8.826 8.826H59.61v-16.28h14.476V48.278H59.61V30.847z"/>
  <path d="M102.874 2.565h85.835c4.834 0 8.79 3.957 8.79 8.792v46.27h-21.98v-36.85h-72.647V2.566z"/>
  <path d="M197.5 63.375v46.27c0 4.834-3.956 8.79-8.79 8.79h-85.835v-18.212h72.645V63.375h21.98z"/>
  <path d="M97.126 118.435H11.29c-4.834 0-8.79-3.956-8.79-8.792V63.375h21.98v36.847h72.647v18.213z"/>
</svg>
