<!--
  SVG Music Logos
  Mastodon - The Hunter v0.1.0
  https://github.com/tiagoporto/svg-music-logos
  Copyright (c) 2016-2018 Tiago Porto (http://tiagoporto.com)
-->
<svg xmlns="http://www.w3.org/2000/svg" viewBox="0 0 200 60">
  <path d="M14.409 15.549L1 1.106v58.176h4.751V32.348l8.658-9.404 8.668 9.414v26.923h4.751V1.106L14.409 15.549zm-8.658 9.404V13.54l5.254 5.707-5.254 5.706zm12.063-5.706l5.264-5.717v11.434l-5.264-5.717z"/>
  <path d="M55.432 59.282L45.082 2.268H39.96L29.61 59.282h5.123l7.788-42.904 7.788 42.904z"/>
  <path d="M62.507 18.392V7.213h10.38v12.329H78V2.19H57.394v18.011l15.674 23.971v10.184h-10.38V42.358h-5.113v16.885h20.606V41.718z"/>
  <path d="M102.246 7.071V2.268H80.014v4.803h8.715v52.094h4.803V33.098h3.524v-4.802h-3.524V7.071z"/>
  <path d="M104.554 2.113v56.859h21.722V2.113h-21.722zm16.903 52.056h-12.084V6.915h12.084v47.254z"/>
  <path d="M152.815 2.113v56.859h21.722V2.113h-21.722zm16.903 52.056h-12.084V6.915h12.084v47.254z"/>
  <path d="M139.339 2.182l.039-.069h-10.655v56.859h21.722V16.676L139.339 2.182zm6.288 51.987h-12.085V6.915h3.179l8.906 11.721v35.533z"/>
  <path d="M194.352 2.061v17.412L177.516.718v58.563h5.062V25.624l11.774 13.259v20.089H199V2.061h-4.648zm-11.774 15.934v-4.069l11.774 13.258v3.986l-11.774-13.175z"/>
</svg>
