<svg xmlns="http://www.w3.org/2000/svg" viewBox="0 0 200 84.75">
    <path d="M49.455 2.2c-.17-.09-.347-.12-.535-.083-.723.384-1.32.875-1.552 1.686-.212-.06-.39.036-.555.198l-.098.24-.388.648-.016-.01c-1.72.515-3.09 1.54-4.214 2.916-.844 1.6-7.847 6.27-9.285 7.062-.833 1.064-7.207 5.212-9.157 6.723-.93.72-2.024 1.478-3.13 1.904-1.335.514-2.287 1.188-3.585 1.884l-1.428.085c-.383.56-.907 1.305.69 1.154s5.125-2.184 7.238-3.42c2.5-1.462 4.92-3.06 7.248-4.782l5.386-3.625c.924-.847 3.617-2.915 3.983-3.17.323.192.388.478.293.82-.226.058-.297.205-.246.424-.207.343-3.648 6.296-4.357 7.054-.365.67-1.142 1.513-1.947 2.55-.792.023-.868 1.882-.88 1.873-.843.754-1.278 1.6-1.75 2.443-.74 1.326-1.724 2.582-2.57 3.845-1.837 2.743-3.726 5.455-5.51 8.233-1.712 2.67-3.088 5.484-4.636 8.238-.757 1.346-1.526 2.666-2.187 4.063-.384.812-.688 1.666-1.083 2.47-.32.65-.878 1.175-.954 1.94-1.422 2.098-2.445 4.48-4.067 6.44-1.656 2.003-3.567 3.6-4.974 5.835-1.328 2.11-2.554 4.496-3.346 6.866-.378 1.132-1.302 6.24 1.375 4.314l-.01.013c1.215-.715 1.52-2.964 2.186-4.133.896-1.574 1.904-2.996 2.576-4.69 1.463-3.688 3.65-6.63 6.3-9.56.898-1.15 2.003-1.943 2.993-2.992.053-.09.1-.18.138-.27.27-.11.486-.286.67-.506.183-.042.364-.128.544-.233.6-.408 1.332-.588 1.887-1.075 2.235-2.393 5.436-3.49 7.75-5.778.004-.04.013-.08.025-.116.14 0 .278-.003.417-.004.236-.458 1.087-.605 1.035-1.217-.104-1.23-1.49-.43-1.95-.024-1.46.918-3.066 1.593-4.32 2.735-1.405 1.03-2.79 2.098-4.22 3.093-.76.53-2.273 1-2.522 2.002l.003.018-.453.17-.253.315c-.163.09-.328.173-.51.22-.126.064-.245.126-.37.207-.487-.038-.1-.342-.17-.507.023-.17.026-.346.002-.52l-.008-.023c.198-.39.07-1.05.758-1.035l-.007.015c.31-.2.285-.434.098-.685.075.022.153.037.24.038.686-.596.81-1.884 1.173-2.676.46-1.003 1.072-2.024 1.617-2.97.374-.39.806-.76.547-1.357.517-.066.458-.636.63-1.006h-.008c.8-.716 1.122-1.863 1.583-2.802.648-1.318 1.38-2.59 2.164-3.832.714-1.126 1.472-2.223 2.25-3.306.686-.954 7.457-10.967 7.46-11.05.816.824 2.16 3.278 2.37 3.74l.655.557c1.226 1.52 1.52 1.452 2.375-.547l3.58-6.905.673-.04.01.638c-.672 2.057-1.484 9.318-1.658 10.403-.205 1.272-.397 2.503-.622 3.78-.207 1.176-.006 2.276-.272 3.433-.337 1.473-.556 2.915-.515 4.434l.06.755c1.134.512 1.254.343 1.095-1.542.157-.288.33-2.94.447-4.053.104-1 1.44-11.433 1.865-13.286.02-.977.894-4.94 1.106-5.976.22-1.07.125-3.825-1.396-2.03-.15 1.17-1.33 1.645-1.53 2.758.01.065.02.127.033.19l-1.25 1.68c-.233.75-.537 1.456-1.117 2.01l-.978 2.21c-.515.332-.533 1.253-1.393 1.18-.476-.576-2.48-4.294-1.975-5.725 1.313-1.456 3.538-5.428 3.81-5.672-.008-.302 1.54-2.88 1.63-2.945l.757-1.668c.252-.997 1.784-2.087 2.456-2.98 1.034-1.375 2.03-2.783 3.177-4.067l.626-.04.8-1.135c.083-.042.17-.062.26-.063.226-.818 2.21-.965.915-2.366-.17-.09 1.294 1.402 0 0z"/>
    <path d="M63.145 38.707c-1.62-.868-3.253-.57-4.89-.06-1.625.422-3.19 1.077-4.884 1.22-1.043.017-3.323-.066-3.44-.022-.044-.095-.955-.882-.933-1.502.123-3.472 1.552-9.428 1.624-10.215s.42-2.51.526-3.15c.965-.077 3.572-.125 5.447-.16 1.876-.033 5.112-.327 5.788-.593.09-.102.2-.147.334-.136.018-1.445-.844-.928-1.573-.708l-1.106.065c-.958-.02-1.914-.015-2.836.306l-1.48.095-4.214-.134c.01-.192.027-.383.03-.575.01-.607.367-1.54-.402-1.662-1.012-.16-.46.937-.713 1.43-.168.323-.03.537-.195.872-.286.046-.926-.092-1.017.397-.092.488.397.702.69.79-.004.793-.196 2.85-.246 3.605-.05.754-1.19 4.714-1.395 7.773l-.388.395-.03 2.234c-.31.7-.607 1.4.402 1.806.417.518.99.306 1.515.327.988.502 1.983.35 2.98.035 2.105-.306 4.134-.892 6.117-1.653l3.53.023c.784.23.988-.085.76-.806zm-11.05-14.18c.005-.012.006-.024.01-.035.007.014.013.03.02.042l-.03-.008z"/>
    <path d="M59.85 30.832c-.143-.056-.288-.09-.434-.114-.824-.2-1.66-.297-2.515-.212-1.426-.03-2.55.07-3.705.072-1.622.002-2.63-.026-2.726.366-.082.334.433.558 2.176.63 1.766.075 4.77-.005 6.1.124.778.37 1.632.33 2.413.195.738-.128 1.08-.59.037-.952-.45-.035-.898-.072-1.348-.108z"/>
    <path d="M83.127 21.776c-.426.072-1.494.247-2.065.817-1.47.4-3.66 1.07-4.174 1.108-.515.038-1.596.203-2.268.174-.08-.214-.128-.41-.315-.58-.876-.44-1.017.532-1.383.89-.727-.022-1.423.297-2.777.388-1.354.092-2.268-.022-3.495.48-.366-.012-.767.268-1.133.255-.435.12-.7.422-.572.846.16.526.7.732 1.064.548.32-.162 1.532-.557 2.044-.655.692-.288 1.98-.08 2.706-.165.53-.1 2.07-.448 2.16-.323.13.24-.09 1.103.004 1.37-.002.396-.233 2.413-.394 3.634s-1.278 6.545-1.243 8.815c.006.374-.058.866.447.942.394.06.516-.29.494-.652.43-.662.413-1.394.333-2.135-.05-.662.276-2.634.6-4.59.312-1.884 1.356-7.77 1.394-7.9 1.073-.12 1.596-.133 2.32-.442.808-.12 1.617-.237 2.426-.356.838-.426 1.84-.333 2.653-.84.018-.097 1.96-.43 1.96-1.175s-.36-.522-.786-.45z"/>
    <path d="M90.273 28.31c-.033-.634-.153-.542-.07-1.355s.513-2.152.378-3.133l.064-.626c.093-.083.313-1.485.322-2.114l.012-.392c.343-.82.36-1.648.05-2.48v-.002c-.062-1.29-.747-1.252-1.47-.573-1.43 1.347-3.25 3.16-4.124 4.22-.874 1.06-1.468 2.32-1.52 2.35-.3.636-.602 1.272-.904 1.907l-1.057 1.62c-1.09 1.353-1.155 1.728-.835 2.783-.265.257-.705 1.562-.728 1.904-.533.978-1.008 2.33-1.202 3.438-.234.68-.602 1.363.035 2.03l.457.05c.728-.926.406-1.607.963-2.843.23-.212.405-1.443.464-1.507.046-.922.775-2.95.775-2.95l.48-.522c2.06-.08 4.123-.347 6.18.056-.1.888-.344 2.23-.453 2.974-.11.744-.817 3.42-.668 4.382.012.9-.028 1.805.057 2.698.042.456.36.867.93.755.43-.084.628-.446.665-.854.048-.523-.307-1.106-.42-1.433-.115-.326-.14-.845-.05-1.555.087-.71.05-1.83.308-2.7.26-.873.476-2.166.578-3.512.3-.29-.038-.314.155-.665.385-.13 1.65-.194 1.71-.418.11-.422-.606-1.303-1.082-1.533zm-.56-7.49c-.132.854-.54 4.977-.666 5.608-.02.28.147 1.613-.176 1.882-.85-.038-1.642.007-2.653 0-1.144-.007-2.502-.062-3.317-.04-.036-.144.262-.38.244-.53.127-.28 2.835-4.386 3.052-4.7 1.237-1.783 2.345-2.045 3.642-3.797.052-.166.203-.04.15.342.022.142-.21 1.042-.276 1.234z"/>
    <path d="M104.45 37.474c-.127-.077-.366.028-.553.05-1.1-.095-2.19-.098-3.233.344-1.705.05-3.363.414-4.997.84-1.48.385-2.138.027-1.82-1.57-.32-.59.152-1.046.266-1.563l.46-1.46c.977-1.45 1.11-3.237 1.898-4.76l-.05-.84c.62-1.452.927-3.04 1.923-4.324.336-.704.674-1.605-.147-1.994-.917-.434-1.01.668-1.363 1.21l-.008.015c-.567.825-.334 1.874-.77 2.735l-.008.01c-.408.564-.38 1.244-.506 1.883l.06.115c-.174.077-.21.258-.268.42l.008-.005c-.494.296-.12.875-.404 1.24-.31 1.11-.62 2.22-.928 3.33-.102.018-.202.043-.3.073l-.365 1.96c-.653 1.48-1.073 2.997-.777 4.634.593.24 1.172.553 1.847.412 2.378-.494 4.756-.992 7.134-1.49.917.083 1.814.01 2.682-.296.06-.018.12-.04.18-.064.515-.032 1.363.377 1.396-.42.036-.886-.915-.214-1.356-.482z"/>
    <path d="M124.262 26.172c.006-2.127.248-4.353-.01-5.88-.136-.79-.45-1.07-.737-1.07s-.344 1.207-.256 1.27c-.006 2.308.163 4.442.16 6.75-.4 1.188-.357 2.412-.298 3.636-.26 1.328-.295 3.366-.54 4.785-.112-.692-1.096.605-2.196.97-.05.013-.105.032-.17.06-1.24.1-2.242.872-3.396 1.215l-4.307-.03c-.888.08-1.634-.287-2.35-.75-1.03-2.004-.068-3.695.293-4.568.36-.873.36-2.452.85-2.923l.86-4.908c.35-.827.53-1.65-.057-2.454l-.008-.012c.015-.127.02-.254.01-.38-.37-.172-.744-.247-1.117-.003-.006 1.168-.012 2.335-.02 3.502l-.818 4.705c-.88 2.164-1.188 4.476-1.76 6.72-.277 1.078.068 1.622 1.153 1.736l1.74.183c1.89.647 3.782.648 5.678.036 1.244-.094 3.992-1.195 5.246-2.06.205-.14.298-.365.35-.533-.014.785-.124 1.12-.245 2.088-.168 1.328-.138 2.688-.12 4.033.024 1.57.782 1.503 1.79.72-.738-.748-.825-1.65-.765-2.656.188-3.157.83-6.283.672-9.464l.024.026c.48-1.554.478-3.144.342-4.744z"/>
    <path d="M146.894 38.443c-.54-.732-1.147-.267-2.085.13-.94.397-4.47 1.07-6.476 1.375-2.007.305-3.283.322-5.453-.048-2.17-.37-3.31-1.42-3.73-2.196-.42-.777-.758-3.095-.13-4.737.224-.32 1.285-2.82 1.95-3.637.667-.818 3.007-2.857 3.72-3.156.71-.3 1.507-.934 2.118-1.15.61-.214 2.67-.96 3.517-.862.848.1 1.944-.08 3.014.526.44.25 1.064-.42.91-.683-.153-.263-1.35-.483-1.48-.616-.752-.417-1.507-.32-2.263-.018-1.57.248-3.18.345-4.598 1.186-.59.077-1.097.316-1.507.75-1.496.635-2.567 1.827-3.757 2.863-.302.124-1.998 3.23-2.18 3.825-.97 2.265-1.397 5.022.088 6.756 1.485 1.735 3.52 2.246 6.227 2.482 3.98.063 7.876-.328 11.524-2.088.42-.06.848-.35.59-.7z"/>
    <path d="M198.4 78.35c-.605-1.256-1.118-2.574-2.157-3.568-.137-.26-.274-.52-.41-.782l-.332-.34c-.815-.64-2.42-2.528-2.554-2.576-.57-.203-2.218-2.258-2.218-2.258l.02-.305 1.668 1.344s.528.815 1.14.988c.61.172.02-.292.048-.45-.547-.76-4.274-5.205-4.322-5.85l-.03.03c-.403-.436-2.22-4.246-3.14-5.483-.278-.534-2.598-4.78-3.605-6.856-.973-2.006-6.392-8-7.33-9.23-2.946-3.862-8.063-11.22-8.336-11.627.53-.37.586-1.06.61-1.583-.99-.584-1.26-.326-2.196-.448.062-.1-1.053-1.385-1.09-1.905l-2.285-3.288-1.64-2.98-1.44-1.83c-.8-1.257-1.596-2.516-2.394-3.774-.268-.26-.537-.52-.805-.782-.13-.788-.514-1.44-1.05-2.02-.252-.276-.576-.63-.154-.974.273-.224.596-.02.88.155 1.14.704 2.29 1.394 3.436 2.09.016.126.02.252.013.38.284.1.567.2.85.302l1.03.18 1.225.752 2.44 1.823c.698.335 1.406.65 2.09 1.01.93.49 1.842 1.05 2.85.172-.16-1.203-1.48-.337-1.902-1.067-1.328-.362-2.35-1.29-3.534-1.918l-1.422-.517c-.13-.243-.26-.487-.392-.73-.11-.125-.247-.198-.412-.217-.05.004-.095.017-.142.027-.12-.467-.54-.694-.92-.95-.238-.122-.48-.236-.718-.358-.178-.175-.39-.294-.632-.366-.198-.132-.386-.28-.554-.46-.595-.46-1.285-.758-1.927-1.137-.288-.16-.572-.326-.846-.506-.206-.15-.414-.3-.638-.425-.154-.07-.304-.16-.455-.248l-.3-.465c-.21-.15-.38-.434-.562-.496-1.034-.35-1.334-1.87-2.557-1.89-.03-.06-.056-.125-.08-.19-.79-.72-.79-1.97-1.72-2.595 0-.005-.002-.01-.004-.013-.247-1.07-.88-1.775-1.956-2.058-.207-.015-.393.04-.557.168-.408-.076-.84-.543-1.218 0-.264.382.01.745.195 1.072.314.554.958.893 1.044 1.6.116.18.23.36.345.542.455.586.395 1.44 1.014 1.94.248.163 1.75 1.72 2.133 2.398.69.534.546 1.94 1.8 1.887-.36 1.07.48 1.613 1.01 2.29.205.164.47.24.635.456.115.07.18.174.2.308.322.173 1.58 1.76 1.884 2.382l-.007-.006c.534.785 1.716 2.545 1.683 2.653.638 2.086 6.453 10.395 6.395 10.454-.11.067-2.452.258-2.82.283-1.462.3-2.943.096-4.413.176-.66.036-2.757.16-3.144.16-.007-.13-.048-.25-.123-.357l.018-2.75-.014-1.184.01-2.732c.144-1.26.253-2.52.082-3.785.393-.91.33-1.878.324-2.828-.006-1.018-.54-.804-1.102-.394l.11.734-.026.41c-.065.842-.144 1.683-.19 2.527-.192 3.445.192 6.913-.416 10.34-.412.042-1.035.34-.95.757.082.394.504.306.876.587.358 1.034-.076 2.39-.218 3.455l-.438 5.025c.04.03.067.064.09.1-.03-.033-.056-.067-.09-.1-.08.104-.09.214-.03.33-.033.778-1.147 1.98.783 1.984.396-2.973.873-5.94.855-8.952l.425-1.88c2.902-.224 6.476-.344 6.477-.344 1.814.042 3.022-.223 5.23-.3.278.913 4.865 6.947 6.306 9.15 1.802 2.753 4.485 5.568 5.295 6.74.81 1.17 2.64 3.55 3.624 5.43.107.517 1.29 2.077 1.55 2.373 0 0 1.608 2.622 1.6 2.743.432 1.295 2.268 4.028 2.396 4.31.663.708 3.562 5.306 3.562 5.306s.305.732.244.793c-.06.06-1.31-2.495-3.662-4.6-.522-.338-3.177-2.11-4.188-2.65-1.738-.886-3.4-1.93-5.31-2.442l-6.343-2.29c-1.568-.522-3.138-1.042-4.707-1.563-1.874-1.24-3.872-1.985-6.167-1.556-.278.73.017 1.046.752 1.172 1.388.237 2.765.534 4.146.806 1.253.7 8.276 3.154 9.47 3.477.66.053 3.786 1.293 4.692 1.78 3.12 1.673 6.29 3.29 8.27 6.432.106.1.726 1.274 1.19 1.842 1.717 2.106 3.234 4.375 5.56 5.904 1.89 1.052 2.256 3.235 3.52 4.75.5.054.836.87 1.333.49.59-.45.104-1.06-.13-1.545zM160.75 14.69l.017.013-.05.065c.013-.026.024-.052.032-.078zm-6.433 16.655h.014c-.002.03 0 .055 0 .082-.002-.028-.004-.056-.013-.083z"/>
</svg>
