<svg xmlns="http://www.w3.org/2000/svg" viewBox="0 0 200 85">
    <path d="M36.776 10.117v.785h.344c-.042-.22.35-1.103-.344-.785zM80.03 27.427c.055-.062.193-1.165-.333-.483-.052.068-.16.312-.225.506-.063.192.465.085.56-.023zM91.675 28.31c.095-.345-.356-.484-.376-.69l-.407-3.97c-.04-.288.035-1.31-.44-.987-.185.125-.284.31-.286.34-.25 4.227-.945 8.056-1.046 12.257 1.06-.02 2.29.077 3.257-.072.224-1.266-.307-2.482-.363-3.6-.055-1.09-.647-2.162-.34-3.278zM175.426 21.71c-.02.33-.064 1.26-.106 1.566-.534 3.815-1.264 7.52-1.735 11.41h3.813l-1.246-12.115c-.035-.337-.213-.92-.726-.86zM12.218 82.052v.785h.345c-.044-.222.347-1.104-.345-.785z"/>
    <path d="M198.184 4.1c-.592.06-1.136.512-1.824.606-.617.085.247-.48-.057-.68-.286-.188-.664-.068-1.016.155-.324-.392.34-.725.45-.91.174-.296.61-.774.004-.572-.085.03-.323.136-.33.145-1.046 1.338-2.46 2.003-4.464 1.85-.423-.032-.53.66-.724.99-.23.392-.806-.106-.958.01-.76.58-2.077 1.027-3.47.57-.623 1.22-1.945 1.8-3.7 2.53-.158.065-.648-.61-1.302-.826-.523.923-.937 1.773-1.86 2.12-.294.11-.525.445-.417.748-.326-.064-1.65.523-1.172-.516-.24 0-1.024-.075-1.313-.036-1.05.138-.83 1.248-1.686 1.797-.562.362-1.246.058-1.547-.522l-2.066 1.182c-.524-.805-.51-2.183-.59-3.628-.343.935-.8.73-1.212.533-.415.58 0 1.745-.802 2.276-.917.607-1.6 3.056-.498 4.41.304.372.03 1.11-.135 1.602-.063.19-.68.628-.83.9-.38.69.54 1.427.398 1.965-.3 1.142-.303 2.25-.91 3.137.107.77-.074 1.75-.142 2.814-.017.26-1.085.414-1.137-.125-.075-.792.345-1.59.42-2.402.044-.452-.456-.9-.55-1.496-.12-.78.366-1.65 0-2.7-.037-.107.377-1.245-.577-.767.195.395-.35.74-.4.48-.285-1.428-.5-2.92-.502-4.324 0-.554.165-1.59-.405-1.726v1.638c-.558.294-.33-.42-.364-.466-.73-.97-.994-2.224-1.683-3.12-.504.348.06 1.046.192 1.543-.958-.412-1.857-.228-2.94-.526-.627.312-1.603.245-2.624.4-.208.032-1.073-1.243-1.307-1.18-1.232.326-2.564.764-4.357.66-.474.6-1.21 1.27-2.246 1.358-.024-.31.337-1.19-.25-1.04-.178 1.074-1.045 1.77-1.153 2.777-.096.884-1.01 1.363-1.335 2.363-.377 1.157-.408 3.05-1.155 4.302-.144.243-.263.638-.695.436-.04-1.508.212-2.933.627-4.135-.31-.673-.586-1.522-.395-2.576h.993c.213-.69.894-1.11 1.2-1.777-.804-.064-2.252.207-2.68-.292-.557-.647-.02-1.72-.97-2.127-.06.557.503 1.874-.553 1.538-.055-.735.29-2.227-.35-2.48.162 1.076-.248 1.956-.555 2.71-2.326.104-4.458-.167-5.833-1.207-.107-1.008-.005-2.684-.468-3.16.097 1.786-.46 2.864-.417 4.218-.755.384-.393-.63-.575-.884-.4.853-1.147 2.502-2.45 2.327.002.474.482.307.59.362.333.17.288.68.504.974.708.972 1.15 3.542.45 5.26.366 1.325.368 2.636-.18 3.768.36.735.7 1.74.296 2.696-.142.335.51.865.52 1.335.014.485-.507.935-.676 1.44-.154.464-.626 1.152.088 1.467 0 .346-.148 1.433 0 1.703.21.38.667.686.73 1.202.075.616-.26 1.262-.56 1.952-.058.135.264.933-.39.613.027-1 .157-1.94-.3-2.877-.024-.05.022-.615-.458-.358.04.952-.02 1.895-.275 2.693-1.068.496-2.388.515-3.56.075-.244-.908-.497-2.01-.355-3.38.025-.24.785-1.154.74-1.44l-.423-2.628c-.057-.35.55-.952 1.072-1.35l-.81-2.587c-.1-.375.155-.59.298-.835.36-.617.032-1.36-.754-1.778.564-1.128.94-2.396 1.25-3.634.115-.457-.217-.886-.604-1.316-.53-.59-.02-1.435-.077-2.222-.027-.37.358-.386.61-.426.358-.058.445-.427.355-.766-.352.08-.714.32-1.148.218-.017-.414.175-.983-.177-1.217-.464-.306-.63.524-1.158.282 0-.512.038-1.986-.02-2.47-.032-.28-.222-.664-.436-.674-.26.94-.55 1.887-.728 3.038-1.312-.28-2.418-.16-3.17.358-.156-.71-.62-1.3-1.07-1.982-.878.27-1.736 1.442-3.162 1.12-.1-.515.258-1.82-.765-1.614.252.762.054 1.435.022 2.128-.034.756-.777 1.22-1.504 1.157-.37-.033-.835.22-.777.654.475.07.932-.205 1.422-.03.627.226-.322 1.16.517 1.558-.045.674-.71 1.5-.537 2.156.237.898.79 2.12.63 3.965-.372.687-.657 2.13-.42 3.69.09.59.61 1.11.66 1.57.196 1.73-.01 3.233-.34 4.52-.144.556.56 1.23.582 1.63l.216 2.625c.007.247-.51.776-.953.443-.335-.252-.244-1.166-1.04-1.324-.003-.6.226-1.637-.345-1.772 0 .527.083 1.784 0 2.148-.076.333-.19.766-.523.808-.556.07-1.35.397-1.597.19-.75-.624-1.127-1.75-.616-2.72.267-.51-.323-.842-.49-1.205-.13-.276.195-.597.164-.892-.06-.554.232-1.003.385-1.5.255-.825-.776-1.26-1.088-1.797-.493-.847-.315-1.76-.21-2.645.05-.436.263-.98.61-1.35.404-.43.298-1.035.153-1.454-.296-.854.863-.87.844-1.1-.132-1.69.134-3.108.46-4.492-.81-1.254-1.045-3.278-.912-5.422-.902.06-.584 1.258-1.423 1.336-.28-1.24-.23-2.482-.638-3.654-.063-.18.322-1.077-.36-.944.235 1.32-.376 2.514-.273 3.524.04.4.308.988-.223 1.164-.824.273-1.537-.32-2.127-.753-.536-.394-1.242-.044-1.744-.034-.414.008-.737-.33-1.118-.38-.39-.05-.817.27-1.228.222.426-.83-.276-1.668-.272-2.547-.244.007-.677.203-.694.375-.094.957-.02 2.012-.55 2.68-.54.682-1.398.526-1.964 1.22-.07.086-.796 0-1 0-.097-.415.144-.778.23-1.155-.323-.044-1.246-.052-1.467-.2-.227-.152-.233-.66-.555-.723-.337-.067-.544.88-.82.478-.422-.616-.603-1.842-1.48-2.194l.222 2.075c-.302-.075-.55.102-.826.232-.55.26-.933-.618-1.222-.573-.85.134-1.367.696-1.926.66-1.238-.076-2.2-.742-3.01-1.274-.39-.256-1.013.346-1.563.398.02-.96.456-2.395.37-3.33-.596.55-.9 1.156-.987 1.857-.032.26-.3.728-.814.64-.244-.042-.88-.454-1.076.32-.075.295.62.378.8.79.175.404-.437.67-.767.535-.554-.228-1.33.11-1.542.765-.288-.946-1.345-.31-1.47-1.128-.065-.436-.498-.912-.828-.61-.06.058.094.704-.03.844-.654.738-2.047.6-2.617-.043-.33-.37-.89.07-.96.497-1.52-.26-3.195-.234-4.658-.798-.65.503-2.01.783-2.9.03-.42-.355-1.204.583-1.86.34-.185-.07-.51-.73-.655-.76-.658-.134-1.434.14-2.018-.146-.42-.205-.017-.775-.1-1.188-.067-.334-.353-.482-.67-.368 0 .33.116 1.452 0 1.8-.055.166-.693.613-.973.727-.126.053-.844-.215-.526.388.257-.1.778-.035.433.403-.168.213-.59.496-1.01.223-.472-.308-.366-1.175-.553-1.843-.086-.306.185-1.173-.495-.995-.04.748.33 1.67-.33 2.082-.864.54-1.446-.685-2.157-.547-.752.146-1.513.095-2.23.6-.257.18-.692-.29-1.2-.32-.553-.032-1.16.57-1.847.328-.333-.118-.377-.523-.56-.95-.03-.07.295-.837-.362-.593-.76.282-1.65.397-2.29.978-.26.237-.732.29-.99.04-.467-.454-.49-1.702-.718-2.42-.493.462-.54 1.117-.325 1.568.39.812-.427 1.167-.398 1.825.014.323-.392.41-.68.322v-.94c-.257 0-1.036.044-1.293.01-.973-.122-.888-1.31-.77-1.912-.417-.332-.73-1.164-1.002-.82-.504.642.043 1.575-.265 2.192-.348-.114-1.125-.476-1.354-.453-.3.03-.3.684-.753.674-.942-.02-2.202.01-3.244.245-.27.06-.93.388-1.113-.093-.29-.758.593-2.263.428-3.427-1.024 1.574-1.48 3.045-2.76 3.964-.083.06-.983-.113-.573.602.308.536-.49.648-.83.5.012.386-.015.717.113 1.235.14.572-1.253.515-.908 1.01.325.468.874 1.467.3 2.444-.033.057-.8-.12-1.04.014-.557.315.007 1.22-.098 1.838-.063.374.16 1.38-.554 1.06-.662-.295-.666-1.152-1.267-1.648-.212-.177.364-.48.497-.756.382-.8-.44-1.216-.73-1.784-.306-.602.74-.96.377-1.364-.51-.57-.857-1.593-.8-2.573-1.21-.53-1.672-1.855-2.446-3.05-.145.883.335 1.65.046 1.92-.582-.25-.858-.84-.813-1.402l-3.214.263c-.51.046-.41-1.287-.665-1.787h-2.887c-1.24-.453-1.934-1.4-2.2-2.157-.256-.722-1.084-.43-1.504-.25-.59.25-1.08-.106-1.485-.426-.168-.133-.975.025-1.06-.066-.48-.51-.92-1.108-1.518-1.48-.24-.15-.776.33-1.06.163l-3.24-1.875c-.48-.276-.776-.4-1.436-.35-.312.023.3.408.34.67.03.213-.578.256-.817.01-.418-.435-1.195-.816-1.786-.498 1.05.7 2.068 1.112 2.924 1.757.878 1.43 1.84 2.72 3.21 3.54.688.41 1.13 1.323 1.275 2.128.223.042.897.065 1.147.215.64.384.543 1.458.826 2.285.238.697 1.033.757 1.372 1.34.305.522 1.035.466 1.542.12-.108 1.568 1.255 2.41 2.252 2.845.367 1.28.09 2.885.1 4.278.005.64-1.275 1.586-.938 2.05.49.673 1.243 2.268.296 3.602-.045.063.275.397.195.59-.21.504-.858 1.097-.905 1.663-.07.848.215 1.892-.334 2.49-.855.933-.18 2.287-.52 3.68.524-.258.71.32.837.733.13.42-.71.808-.95 1.33-.157.338.345.854.175 1.374-.32.974-.14 2.152.238 2.992l-2.04 2.85c-.303.424.065 1.41-.197 2.105-.218.58.454.32.628.393.858.362.548 1.345.87 1.92-.992.694-1.176 2.207-1 3.46.083.59-.593 1.187-.98 1.754-.215.317.09.78.06 1.15-.05.59-.352 1.108-.49 1.66-.082.33-.203 1.002.317.99.45-.012.69.368.782.73.222.88-.51 1.6-1.374 1.986.933 1.034.973 3.23.01 4.463-.144.186.504.457.55.802.058.456-.217.994.166 1.626-.702.574-1.86 1.09-2.17 2.262.793.91.49 2.492.75 3.815.047.24-.39.832-.575 1.308-.148.38.26.755.273.99.067 1.286-.224 2.794-.37 3.758.487-.587 1.192-1.33 1.814-1.694.006.548-.11 1.198.19 1.402.516-.83.75-1.81 1.04-2.792.094-.32.502-.175.853-.172.462-.972 1.513-1.774 2.733-1.975 0-.292-.064-.857 0-1.024.08-.212.306-.474.55-.535.506-.127.842.617 1.322.668.246-.915.074-1.822.2-2.53.14-.77.94-1.026 1.918-1.49.1-.05.34.81.79.445.14-.112.148-.824.25-1.013.148-.275.477-.75.757-.74 1.055.04 2.096-.562 2.327-1.498.104-.424 1.073-.49 1.456-.985.444-.578.304-1.39.856-1.936.628-.62.977.41 1.605.267-.222-.606.158-1.044.577-1.218.697-.29.555-1.064.38-1.455.534-.528 1.172-.47 1.694-.164.937.552 1.444-.56 1.922-1.156.05-.064-.06-.78.026-.974.126-.284.424-.558.712-.697.196-.096.977 0 1.222 0v-1.086c.962.057 1.92 1.025 2.962.487.432-1.463 2.162-1.08 3.238-.27.057-.74-.26-1.422.295-1.627.436-.16.66.4.93.486.734.234 1.53-.212 1.785-.89.753-.104 1.47.163 2.198.233v-.997c.592-.135 1.118.27 1.668.297.322.015.716-.365 1.197-.515.364.336 1.028.19 1.102-.335.073-.518.77-.74 1.124-.704 1.225.126 2.403.017 3.286.495.862-.422 1.815-.708 2.662-1.61.546-.27 1.502.447 2.273.437.346-.005 1.043-1.05 1.27-1.12.846-.268 1.7-.277 2.714-.015.523.135.937-.71 1.768-.414.284-.286.385-.77.805-.956.575-.252 1.108.465 1.51.206.708-.455 1.426-.7 2.202-.72.97-.023 2.047.125 3.12-.01.586-.076 1.926.287 1.832-.745-.706.443-1.472.34-2.093.152-.28-.084-.635-.3-1.142-.495-.055-.02-.846.284-.542-.336.573.02 1-.407 1.548-.507.256-.046.814-.422.387-.696-1.398.732-3.265.987-5.306.93-.32-.01-.496-.264-.584-.562-.23.258-.557.688-1.016.295-.556-.476-1.48-.66-2.374-1.01-.537.472-1.286.565-1.745 1.237-1.114-.092-2.074-.463-3.326-.76-.422-.1-1.034.51-1.5.73-.364-.36-.766-.592-.95-1.136-.657.097-1.347 1.084-2.132.564-.607-.403-.705.446-.892.852-.922-.21-1.882-.475-2.45.095-.54-.41-.755-1.018-1.087-1.36-.323-.333-.795.084-.555.47-.467.64-1.24-.106-1.815.306-.725.52-1.18-.743-.854-1.382l.67.208v-1.865c1.105-.394 2.24-.336 2.94.257.217.183.715-.227 1.094-.17.73.11 1.596.812 2.257.538.76-.315 1.582-.58 2.29-.71 1-.186 1.803.273 2.532.503.515.163 1.05-.534 1.408-.448.593.144.812.775 1.217 1.194.358-.593.433-1.625.353-2.42.47-.05.882.18 1.323.15.35-.02 1.207.33 1.07-.425-.36.237-.993-.07-.594-.59.032-.04.047-.835-.304-.478-.314.32-1.25.227-.945-.39.173-.35.26-1.648.488-1.955.465-.628.19-1.37.233-1.893.04-.468.545-.68 1.06-.772.137-.024.59.015.366-.41-.48 0-2.083.16-2.534 0-.412-.147-.135-.808-.282-1.118-.125-.263-.538-.053-.785.09-.407.238-.818-.217-1.28-.29-.42-.066-.87.03-1.252.25-.39.226-1.013.136-1.586-.123-.57-.257-.016-1.435.42-1.67.81-.44 1.806-.06 2.335.53 1.062-.455 2.507-.696 4.13-.524-.193-.393-.724-.767-.4-1.216.084-.116 1.127.19.587-.27-.362-.308-1.004.11-1.575.05-.566-.06-1.14-.644-.7-1.146.22-.25.618-.558.73-.92.217-.714-.433-1.317-.57-1.984.404-.27 1-.31 1.083-.682.08-.366-.35-1.596-.44-2.02.43-.024.796.26 1.19.17.528-.124 1.54.124 1.54-.72-.326-.16-.67-.073-.956-.123-.763-.132.01-.565.024-.856-.546-.053-1.084-.15-1.677-.1-.53.042-1.392.257-1.78-.607-.903.822-2.41.803-3.71.416.37-.72-.042-1.575-.085-2.422.84-.176 1.556.09 2.36.046.502-.028 1.272.754 1.744 1.162.398-.456-.052-1.157.523-1.396.372-.154.736.27.674.598-.08.413-.334 1.422.06 1.25.864-.375 1.854-.335 2.828-.57.382-.092.817.256.746.507-.275.98-.28 2.2.17 3.266l-.14 3.21c-.013.676-.94 1.227-.724 1.67.375.765.814 1.514.8 2.126-.026.926.307 1.885.015 2.774-.06.183.53-.242.87-.167.15.617-.235 1.116-.538 1.538-.208.29-.195.772.173.924-.086.47-.48.943-.408 1.337.123.682.123 1.364.21 2.117.03.277.453.905-.178 1.097-.41.125-1.735-.45-1.46.553l1.43.204.19 2.87c.02.292.396-.308.333-.55h.876c.005.466-.262 1.416.363 1.448.027-.875-.28-1.938.272-2.317.486-.334.665.435.946.71.46-.155.93-.11 1.432-.293.687-.247.31-1.396 1.043-1.603.505-.142 1.85-.133 2.277-.058.55.097 1.3.204 1.473.757.19.61-.478 1.59.187 2.005.316.197.897.266 1.03-.202.126-.437.24-1.83.4-2.293.238-.676 1.185-.418 1.518-.983.27-.46-.24-.513-.567-.385.32-.99-.325-1.656-.135-2.585.148-.723-.773-1.05-1.383-1.326.11-.65.813-1.015 1.06-1.463.183-.332.096-.692-.193-.888-1.07-.728.274-1.464.58-2.064-.715-.448-.77-1.237-.6-1.912.026-.104.43-.564.583-.678 1.17-.872.955-2.218 1.018-3.832-.27-.882-.53-1.83-.11-2.768-.178-.193-.795-.692-.8-.866l-.218-2.946c.484.013 1.143-.164 1.346.172.415.683.196 1.55.216 2.42.508-.41 1.183-.25 1.55.206.09-.89-.115-1.652-.164-2.43-.047-.765.484-1.323.914-1.923.263-.367-.608-.593-.387-1.19.202-.55.108-1.322.592-1.593.656-.367.407-1.11.57-1.614.173-.542-.25-1.325.488-1.708.643 1.07.065 2.29-.25 3.085-.095.236.214.81.2 1.073-.03.642-.997 1.383-.812 1.918.58 1.686.413 3.653-.74 4.563.644 1.566.098 3.59-.746 4.752-.304.418.236.883.435 1.256.287.54.005 1.13-.287 1.724-.18.37-.164.856.032 1.278-.727.29-.922 1-1.333 1.62-.32.48.672.873.844 1.417.26.82-.45 1.6-.85 2.317-.23.412.17.727.42 1.016.413.475.414 1.273.097 1.786-.337.545-.96 1.227-.595 1.894.218.398.636-.124.858.015.383.24.647.712.818 1.117.244.578-.054 1.284-.046 1.792.005.377-.352 1.258.268.973.104-1.3.63-2.323 1.263-3.037.25-.28.73-.09.866.048.59.594 1.546.63 1.975 0 .32-.467 1.088-.628 1.423-.49 1.13.47.51 1.593.95 1.994.587-.57.42-1.51.526-2.233.24 0 .874.053 1.048 0 .358-.11.38-.52.305-.874.76-.214 1.143-1.162 1.628-1.356.237.735.73 1.287.506 2.072.694.296 1.14-.797 1.496-.147.333.605.16 1.38.702 1.934.24-.38-.256-.924.01-1.244.297-.355.816-.558 1.325-.615l-.233 1.16c1.407.045 2.667-.446 4.018.057.37.137.77.408.832.83.064.43-.227 1.362.403 1.364.008-.607-.112-1.393.137-1.692l1.043.89c.5-.478-.246-1.254-.435-1.87-.162-.53.37-.648.702-.323.285.278.678.788.85 1.434.19.712-.08 2.235.608 2.585-.023-1.282-.018-2.32.262-3.38.1-.382 1.01-.35 1.48-.683.338.668.985 1.43 1.654 1.343 1.754-.226 3.706-.526 5.737-.58.575-.015 1.638.247 1.787-.302-.42-.08-1.346-.265-1.668-.336-.387-.086-1.283.17-1.228-.445 1.205-.058 2.24.117 3.254.234.977.114.15 1.495.806 1.956.38-.307.512-.704.516-1.044.012-1.04.87-1.992 1.88-1.98 0 .37-.15 1.41 0 1.72.14.285.712.448.795.934.033.196-.26.983.42.65-.104-.973-.098-1.863.572-2.445.59-.512 1.702.89 2.102.534.865-.768 2.416-.587 3.08.274-.726-.006-1.73-.385-1.807.556 1.544-.1 3.265-.166 4.378.31.43.186 1.072.04 1.518-.167.496-.23.907-.616 1.403-1.01-.354-.157-.338-.77.155-.513.487.254.567.775.574 1.148.007.397.197.78.617.805-.134-.344-.1-.824.417-.55.388-.747.27-1.59.883-2.22.184-.19.56.248.717.642.12.298-.114.712-.16 1.127-.068.642.71.62 1.204.503.007.537-.26 1.486.34 1.517V45.91c.38-.135.66.135.93.443.765-.194 1.654-.36 2.405-.024.79.352 1.66.033 2.48-.098.047.386-.194.675-.107 1.05.78.202 1.093 1.074.65 2.013-.198.415-1.21-.45-1.826-.18-.68.298-1.87.324-2.503-.284-.665-.636-1.247.704-2.3.552-.495.64-1.578.695-2.167.307-1.606.664-3.23.33-4.54-.132-.284-.1-.143.395-.15.596.18.034.8.147 1.004.194.345.08.348.71-.007.752-.73.09-1.986-.17-2.346.433.784.054 1.618.114 2 .11 1.395-.01 2.48.48 3.415-.035.16.298.253.65.495.668l2.666.195c.312.024.35.67.683 1.067.228.272.89.007 1.407.368.67.467 1.49-.497 2.275-.407.268.03.838.82 1.08.904.312.108 1.51-.2 1.856 0 .93.537 1.902.947 2.986 1.21.287-.542-.28-.444-.478-.392-.312-.606.392-.446.54-.352.99.637 2.45 1.18 3.62 1.293.82.08 1.48.237 2.18.165.402-.04.622.733 1.007.88.497.192.974.108 1.29-.406.88.256 1.957.818 3.158.574.505-.102 1.27.262 1.478.98.483-.283 1.227-.137 2.116-.483.962-.373 2.442.46 2.64 1.93 1.063-.323 1.98-.85 3.047-.744.16.015.515.51.666.567.16.06.747-.058.883 0 .564.24.444 1.194.77 1.406 1.07.69 1.833 1.524 3.317 2.026.352 1.15 1.102 2.22 1.685 3.28.2.367 1.835-.36 2.418.726.57 1.062 1.46 2.377 3.056 3.085-.19.876.593 1.412 1.334 1.565.543.112.43.92.495 1.43 1.215-.034 2.203.387 3.188.768.26.1.17.78.394 1.197.313.59.937.822 1.467 1.014.33.122.403.57.47.91.163.8 1.145.425 1.294.57.75.73 1.614 1.408 1.69 2.757.006.09.15 1.38.53.283.09-.25.243-.787.638-.357.192.21-.26 1.01.46 1.236.216-.39.23-1.3-.033-1.886-.176-.392.26-.288.39-.23.663.304 1.426 1.375 2.26 1.423-.75-.57-1.374-1.075-1.764-1.697-.846-1.345-.72-3.317-1.59-4.832-.11-.192.088-.85.417-1.378.386-.62-.425-1.492.184-2.488-1.35-.428-1.595-2.62-1.715-4.24-.01-.122.57-.47.584-1.025.01-.4-.21-.783-.595-1.083.575-.62.243-1.533-.03-2.13-.176-.385-.008-1.488-.088-1.817-.036-.148-.523-.494-.58-.645-.06-.158-.077-.766 0-.903.077-.136.678-.322.76-.443.164-.246-.157-.458-.256-.68-.22-.493.658-1.024.354-1.323-.815-.8-1.848-1.635-2.03-2.998-.123-.936 1.21-1.512.917-2.068-.44-.835-.84-1.798-.892-2.927-.44-.147-.7-.527-.946-.882-.063-.09-.136-.652-.032-.796.367-.512.345-1.286-.32-1.728.45-1.005.91-2.39.442-3.55-.22-.547-.27-1.06-.182-1.823.043-.367-1.31-.397-1.09-1.11.18-.58.668-.808 1.185-.644l-.224-3.746c-.337.02-.623.3-.954.242-.07-1.194.044-2.273.194-3.3.1-.688-.67-1.02-1.178-.91 0-.242-.026-.786-.01-.97.072-.818 1.092-1.068 1.067-1.52-.035-.61-.35-.72-.67-.79-.283-.06-.654-.292-.44-.632.337-.54-.383-.6-.444-.764-.27-.734.19-1.27.394-1.678.212-.425.114-.915-.342-1.196.035-.667.668-1.204.92-1.857.245-.634-1.087-.688-.814-1.29.214-.47.697-.853.513-1.397.175-.19.72-.662.794-.86.08-.215 0-.98 0-1.238.363-.04.71.265.98.16.67-.265.84-.996 1.293-1.512.166.042.77.294.894.224.556-.313.935-.932 1.537-1.44.292-.244.047-.982.167-1.498.08-.33.434-.425.738-.466.765-.102.576-.935.516-1.473.396.053.77.04.99-.215.83-.963 1.66-1.843 2.444-2.886.765-1.017 2.21-1.416 3.58-2.034.01.004.34-.08.136-.47zM45.14 16.123h1.748c.043.6-.677.958-.658 1.462.017.452.255.82.182 1.095-.178.676-.484 1.25-.97 1.725-.443-1.085-.81-2.928-.3-4.282zm.595 30.95c-.128-.37-.698-.54-.57-.99.13-.45.583-.387.897-.327.24 1.21.423 2.52.545 3.857.036.386-.875.347-1.077-.226-.19-.54.485-1.507.205-2.315zm-.62-26.203c-.262-.567.484-.195.553.028.214.695.578 1.703.206 2.254-.79-.564-.424-1.56-.758-2.282zm.237 20.006c.01-.197.107-.775.132-1.025.854.082.565 1.07.653 1.592.168.987-.035 1.955-.095 2.967-1.014.366-.442-.95-.485-1.312-.054-.472-.227-1.786-.205-2.222zm1.04-7.22c-.07.36-.6 1.125-.775.787-.395-.76.023-1.642-.083-2.564-.174-1.524.603-2.952.167-4.477-.124-.437-.518-.82-.413-1.265.018-.074.16-.2.2-.24.248-.246.548.008.69.213.43.628.213 1.622.38 2.022.393.942.1 2.036-.554 2.714-.065.927.58 1.825.388 2.81zM43.543 47.85v1.09c.637.338.638-.333.508-.69.42-.094.7.3.658.67-.11.973-1.373 1.113-2.548 1.11-.147 0-.4-.61-.783-.425-.42.203-.71.83-1.134.733-.29-.066-.437-.476-.765-.394-.4.1-.823.332-1.213.22-.16-.046-.52-.53-.673-.543-.716-.06-1.46-.068-2.18-.278-.037.38-.08.993-.39.997-1.175.013-2.12-.895-3.272-.874-.21.004-.576.735-.755.96-.995-.516-1.452.502-1.72 1.083h-2.38c.102.426-.07.868-.39 1.187-.233-.154-.432-.447-.558-.357-.872.615-1.695.793-2.398 1.404.198.34-.134 1.11-.51.583-.396-.55.438-1.69.787-1.978.718-.596.558-1.862.534-3.385-.007-.467-1.05.103-1.296-.678-.1-.315.004-.628.304-.745.308-.12.577-.075.935-.084-.307-1.112-.403-2.378.396-3.22-.418-.827-.597-1.907-1.066-2.852-.424-.853.657-.427.926-.447.08-.576.396-1.123.045-1.702-.107-.175-.04-.67.373-.425 1.126.666.777 2.31.024 3.214.645.545 1.516.154 1.732.904.067.234-.183 1.037-.232 1.32.41.164 1.168.733.8 1.07-.337.306-1.036.14-1.622.2-.092.645.81.285 1.01.355.45.157.858.214.98.577.07.203-.098.636.295.662.355.023 1.02.067 1.028.71.008.635.8.716 1.23.987l-.677-2.38c.586.097 1.006.546 1.25.993.1.183-.23.505-.233.73.454.213.648-.107.76-.453.23-.697 1.045-.842 1.692-1.075-.23-.498-.033-.92.455-.668.344-.748-.538-.357-.76-.4v-.845c.288.086.715-.008.657-.31-.167-.866 1.193-.78.857-1.56-.132-.306-.246-.644-.106-.784.388-.388.952-.803 1.55-.58.232.088.46.38.268.605-.535.623-.6 1.49-.49 2.26.12.828-.864 1.298-1.306 1.513l1.684.24c.017.42-.136.93.168 1.32.78-.298.586.593.51.957.383.1.774.013.816-.395.03-.293.043-1.363.384-1.09.61.49 1.03 1.093 1.863.685.312-.153.487.674 1.07.476.398-.137.83-.27 1.237-.174.24.057.433.527.806.286.226-.143.485-.445.864-.31zm20.496 4.017c.322.68-.536.407-.76.46-3.507.814-6.8 1.774-10.835 2.087-.985.69-2.425.997-4.066 1.056-.452.016-1.82.05-1.923.097-3.67 1.65-8.21 1.898-11.76 3.334-1.96 1.522-3.97 3.105-6.11 4.615l-7.028 6.127c-2.833 2.172-5.213 4.762-7.932 6.995-.106.087-.43.13-.383-.27l5.485-50.38.458-5.364c-.806-1.22-1.11-2.764-2.25-3.396-.418-.232-.608-1.463-1.224-1.996-2.434-2.107-4.382-4.635-6.744-6.814-.235-.217.062-.507.37-.345l12.722 6.445 3.337 1.502 4.552 12.958c.066.19.542.85.707.35l1.29-3.8c.065-.187.588-.667.576-.613.714-3.104 1.598-5.942 2.75-8.568 2.23-.21 4.865-.155 7.52-.077.47.014.06 1.184.088 1.857.376 8.737.445 17.758.407 26.946 0 .502-.793.27-1.186.203-1.517-.262-3.084-.12-4.55.023-.6.06-.35-.844-.326-1.244.02-.37.28-.693.273-.728-.676-3.2-.078-7-.24-9.968-.008-.117.45-.372.255-.724-.25-.452-.292-1.295-1.085-1.295l-5.133 13.895c-.137.37-1.458.075-2.22.085-.747-2.74-1.82-5.048-2.59-7.947.288-1.18-.17-2.205-.956-2.785.263-.865-.42-1.594-.853-2.178-.22-.297-.27-.84-.777-1.082-.45 1.056-.397 2.37-.49 3.56-.445 5.702-1.613 10.962-1.766 16.118-.07 2.367-.78 4.676-.657 7.433 3.357-2.01 6.582-4.11 9.505-6.016l33.548-.553zm-5.993-29.562l-3.012.006c-.178 1.545-.044 3.573-.074 5.482 1.258.345 2.968.354 4.883.28.62.568.344 2.464.4 3.71.033.734.202 1.472.067 2.207-.057.31-.486.4-.79.448-1.238.19-2.52.38-4.108-.058-.493 1.235-.198 3.616-.236 5.428 1.537.196 3.46.334 5.355.225l.03 5.068c.002.43-1.16.238-1.735.178-3.258-.338-6.615.18-10.3.05-.327-.85-.043-2.184-.166-3.294-.565-5.082-.273-10.58.04-15.724-.502-2.906-.352-6.24-.58-9.293-.02-.272.134-.705.43-.693 3.858.155 7.63-.375 11.684-.062l.25 5.635c.018.38-1.415.4-2.137.408zm4.06-.34c-.487-.084-.638-.684-.748-1.076-.06-.208-.026-.875-.026-1.07.786-.42.665.58.733.92.053.254.04.952.04 1.224zm-.23-3.857c-.256-.116-.17-.69-.24-1.02-.07-.32-.13-.64-.106-.94.285-.085.656 0 .713.315.096.53.13 1.19-.365 1.645zm17.528 4.01H75.67c-.323 0-.318 1.306-.308 1.933.104 6.784.428 13.642.273 20.8-.914.527-2.08.32-2.818-.144-1.064.474-2.613.49-4.236.36-.25-1.95-.122-4.638.348-6.02-.698-1.437-.518-3.69-.066-4.58-.573-3.862-.24-8.17-.44-12.212-1.236-.24-2.637.017-3.936-.017-.104-.002-.434-.253-.424-.464.087-1.82.007-3.71-.235-5.277-.013-.086.167-.31.255-.323.85-.125 1.79.12 2.568.336.157.043.753-.387.988-.384 4.392.053 7.535.26 11.988-.042.208 1.544-.055 3.605.158 5.336.012.116-.078.697-.38.697zm21.74 13.12c.087.35.34.733.15.92-.47.465-.57-.425-.764-.705-.255-.368-.113-.835.273-1.077.65-.406.283.62.343.863zm-7.39 9.662c-.413-1.256-.472-2.874-.55-4.538-.03-.646-.626-.826-1.123-.832l-3.15-.01c-.193.382-.558.75-.496 1.014.32 1.35-.11 2.545-.33 3.836-.068.39-.867.297-1.378.334-1.534.11-3.042.253-4.805.234.266-3.547 1.39-6.666 1.485-9.96.043-1.48.224-3.17.803-4.684-.11-2.01.243-4.11.842-5.75-.15-3.028.557-5.752.955-8.24.02-.117.178-.202.246-.21 2.65-.27 5.693-.148 8.835-.15-.038 2.082.427 3.593.568 5.633.58 1.218.696 2.766.96 4.215l1.503 9.738c.103.668-.28 1.166-.218 1.392.69 2.546 1.332 4.96 1.63 7.787l-5.777.19zm5.68-16.817c.096-.638-1.157-2.363-.952-2.78l1.034-2.206c-1.068-.814-1-2.816-.415-3.758-.576-.858-.86-1.76-1.036-2.803.63-.323 1.51-.442 2.235-.79.645-.307.49.488.535.583.665 1.38.014 2.672-.17 3.776.427 1.08 1.082 2.397.346 3.523-.342.523-.27 1.215-.167 1.762.33 1.734.49 3.766.037 5.192-.143.45-.062.77-.194 1.008-.3.534-.337-.17-.184-.327-.627-.89-1.25-1.95-1.066-3.182zm1.54 13.9c-.136.264 0 .992 0 1.255-.82-.04-.55-.967-.51-1.49.56-.1.556-.773.5-1.252-.04-.336-.163-1.323-.17-1.657-.005-.23-.105-.752.162-.672.643.192.444.98.554 1.488.233 1.068-.245 1.767-.534 2.326zm.558 3.532c-.162-.083-.327-.174-.363-.323-.038-.158 0-.67 0-.79.31-.06.777-.13.882.342.074.33-.165.952-.52.77zm12.596-1.032c-2.92.403-7.09.134-10.813.376-.074-7.12-.434-14.53 0-21.384-.56-1.075-.347-2.323-.39-3.548l-.017-3.887c2.218-.137 4.257.032 6.764-.053.424 1.042.087 3.402.123 5.187.01.528-.44 1.294-.234 2.108.457 1.794.384 4.24-.132 5.726.326 1.23.58 2.4.627 3.68l.007 6.714c1.353.144 2.94.37 4.332.135.132-.022.494.31.48.517-.093 1.448-.028 2.915.18 4.074.088.478-.608.31-.927.355zm3.165-5.52c.146.298-.18.874-.397.7-.26-.21-.41-.474-.487-.798-.033-.138.718-.246.885.098zm-.108 5.67c-.733-.14-.565-.82-.734-1.237-.137-.335.213-.537.5-.703.303-.173.514.586.57.92.04.25.42 1.166-.336 1.02zm13.86-.3c-.038.42-.883.35-1.388.357-3.218.04-6.13.048-8.737-.347-.466-.072-.99.477-1.432.41-.212-.03-.53-.33-.53-.515V39.22c0-.187.505-.42.347-.785-.492-1.14-.42-2.467-.173-3.51-.604-5.905-.666-12.985-.39-19.155 1.583-.088 4.164.102 6.163.087.376-.003.528 1.075.58 1.823.045.627-.317 1.365-.272 2.125.115 1.975.372 4.002.3 6.05-.012.336-.31 1.343-.3 1.403.594 3.742.49 7.955.497 12.15 1.322.225 3.015.15 4.228-.016.242-.033.68.124.71.272.307 1.557.56 2.898.398 4.67zm1.982-.6c-.2.048-.717.165-.525-.34.07-.183.146-.778.203-1.063.582.03.315.98.32 1.402zm7.924-5.916c.008.356-.393.783-.354 1.318.122 1.682.446 3.288.42 5.33-2.055.13-4.063.2-6.2 0-.346-.033-.376-.69-.355-1.075.26-4.88-.253-8.812-.264-13.6l.368-3.83c-.18-.497-.343-1.393-.175-2.57.048-.335.246-.917.216-1.397-.013-.19-.373-.727-.373-.908v-5.22c0-.046.154-.315.27-.316l5.903-.008c.336 0 .594.568.616.912.124 1.903-.077 3.923-.046 5.86.01.566-.377 1.14-.292 1.74.575 4.084.17 9.168.266 13.763zm22.43-7.076c.994.06.48-1.322.616-1.825.058-.214.42-.528.468-.545.52-.19 1.05.014 1.21.493.38 1.143.996 2.623.095 3.713-.352.425-1.58.255-1.998.03.223-.526.825-.607 1.22-1.247-1.51.712-3.03 1.06-4.346 1.525-.554.196-1.235.064-1.71-.276-.46-.33-1.14-.62-1.695-.154-.337.283-.646-.063-.842-.29-.428-.5-.3-1.152-.278-1.795-.503.13-.713.662-.783.85-.564 1.507-1.06 3.013-.932 4.87-.533-.125-.78-.75-.7-1.206l.843-4.16c.128-.503-.012-1.414.17-2.024.104-.346.458-.155.713-.183.18.256.323 1.063.923.688 1.03-.643 2.43.21 2.913.8.298-.268.694-.74.81-.73 1.004.074 1.944-.06 2.83-.118.383-.027.64.896.472 1.584zm.66 11.52c.604.288.52 1.075.443 1.67-.104.814-1.19.15-1.63.786-.174-.622.236-1.166.492-1.706.036-.078.22-.266.312-.368-.152-.297.08-.527.383-.382zM145.6 26.89c-.134-2.95.224-6.045 1.1-8.646.852-1.072 1.61-2.305 2.974-2.826 1.268-.484 2.816-.578 4.29-.714 2.577-.238 4.803.817 6.71 1.53.82 1.283 1.608 2.517 2.18 3.765-.06 2.312.153 4.317.252 6.702l-6.663.277c-.198.008-.632-.385-.586-.667.318-1.932.244-4.043-.6-5.61-.19-.352-1.16-.184-1.716-.057-.41.094-.68.558-.68.96l-.088 16.948c.013.982.97 1.808 1.902 1.68.572-.077 1.186-.52 1.203-1.167.036-1.327-.077-2.788.14-4.194 2.13-.406 5.104-.022 6.992-.104 0 1.75.252 3.698-.213 5.058-1.233 3.608-4.206 5.903-9.476 5.284-1.686-.198-2.966-.726-4.795-1.364-2.1-2.078-3.12-5.573-2.977-10.12.066-2.13.154-4.49.052-6.74zm-2.468.674c.105-.092 0-.948 0-1.178.81-.388.602.552.752.95.315.834-.626 1.462-.335 2.233.468 1.24.502 2.992-.1 4.726-.055.156.87.58.66 1.162-.242.67-.298 1.262-.664 1.78-.24.34-.68-.52-.688-.876l-.013-2.755c.783-.943 0-1.92-.03-2.967-.406-1.1-.463-2.312.417-3.076zm-.758 19.474c.552-.59.297.524.31.763.688.337.397-.45.433-.646.085-.462.46-.797 1-.847.21.305.89.094.48-.405-.046-.054-.692 0-.82 0-.164-.375-.008-.753.434-.547.603.28 1.53-.15 1.496-.884-.938.138-1.98.328-2.62-.198l.452-3.093c-.714-.783-1.14-2.08-.577-3.448.295-.713.164.93.283 1.185.183.394 1.216 1.1 1.182 1.308-.368 2.23 1.133 2.773 1.733 4.105.853.937 1.208 2.312 1.98 3.445.418-.464-.32-1.254-.224-1.874.298 0 1.12-.12 1.287 0 .49.353 1.064 1.22 1.517 1.08 1.42-.445 2.675.534 3.278 1.412.796-.687 1.733-1.08 3.055-1 .635.04 1.57.138 1.965-.076-.423-.623.274-1.257.636-1.23.908.067 1.53-1.075 2.094-1.82.02 1.194-.566 1.962-.69 2.92.848-.3.746-1.258 1.287-1.54.56-.294 1.2-.115 1.575.335.297.358-.522.557-.258.908.267.356.426.722.326 1.17.703.285.588-.74 1.195-.66v1.378c.785.42.665-.58.714-.92.09-.625.258-1.24.585-1.797.893.06 1.826.304 2.85.228.102-.008.484.625.64.823.845-.384 1.448.435 1.98.68.346-.627.896-.548 1.31-.502-.1-.8.58-1.36.804-2.115.08-.264.654-.578 1.246-.403.06-.667-.84-.354-1.2-.365-.33-.746.5-1.068.688-1.527.208-.508-.31-.97-.376-1.588.66-.393 1.258.46 2.08-.07.787.62.163 1.725.798 2.39-.437.156-1.04.585-.833.89.42.618.7 1.275 1.393 1.84-.344.605-.927 1.7-.254 2.547.303.384-.26 1.433-1.003 1.87.165.66 1 1.063 1.264 1.67.21.478-.05 1.155.267 1.65-.666-.018-1.16-.708-1.45-1.308-.747.25-1.77.015-1.95-.875-.07-.34-.14-.763-.466-.923-.536-.264-1.16.236-1.805-.065-.4-.186-.533-.675-.235-1.132-.434-.64-1.672-.436-2.53-.59-.495-.09-.874-.683-1.21-.53-.61.28-.987.917-1.577 1.213-.482.242-.57-.478-1.044-.314-.402.14-1.628.355-2.066.446-.06-.306.47-.728.038-.74-.34-.01-.845.45-.99.275-.635-.753-1.988-.895-2.768-.422-.403.245-1.292-.71-1.908-.598-.448.082-.755.868-.89.812-1.27-.527-2.287.056-3.325-.303-.988.975-2.923.33-3.903-.603-1.153.78-3.148.89-4.22 1.36-.45-.608-1.19-.514-1.828-.93-.268-.176-.618.46-.933.647-.33.195-.633-.046-.628-.243.017-.785-.53-1.72-.068-2.216zm49.49-40.035c-2.91 3.033-5.84 6-8.84 8.91-.847.82-1.442 1.92-2 2.868 1.708 9.053 2.282 18.693 3.873 27.88.274 1.585-.04 3.596.31 5.156.325 1.462.61 3.06.915 4.556.552 2.717.808 5.614.758 8.464.905 3.74 1.57 7.54 1.992 11.98L168 58.07c-2.05-.393-3.764-.99-5.69-1.72-4.214-.08-7.743-.994-11.26-2.025-4.917-.412-8.917-1.905-13.493-2.632-.375-.06.355-.257.837-.258l32.54-.08 8.432 5.473c-.095-.062.278.156.78.09-.737-5.76-1.28-11.206-1.834-16.945-.04-.412-.41-.803-.826-.814l-4.56-.026c-.202 1.735-.865 2.91-.845 5.15-1.556.162-3.645-.016-5.464.012-.544.008-.095-.74-.057-1.083l1.32-11.76c.708-1.14.982-3.068.505-4.873.99-3.04 1.62-6.307 1.686-10.07.012-.647.45-1.564.81-1.72 1.686-.72 3.53-1.608 5.99-1.593.1 0 .52-.592.667-.56 1.47.323 2.532-.93 3.203-1.5 2.045-1.026 4.27-1.863 6.678-2.448 1.104-.776 2.546-1.2 3.848-1.72.205-.082.77-.147.598.033z"/>
</svg>
