<svg xmlns="http://www.w3.org/2000/svg" viewBox="0 63 200 75">
  <path d="M59.32 67.114L49.024 80.756l.6 1.8 8.404-7.703-2.6 18.11-9.906 7.003 4.702-13.807-3.502 3-1.2-3.3-19.28 25.614 8.736-3.526L1.5 133.886l45.323-55.13-6.568 2.22L59.32 67.113z"/>
  <polygon points="70.635,77.155 59.93,77.155 57.728,92.343 69.426,92.343 69.426,88.716 64.182,88.716 64.232,86.459 69.925,86.459 70.235,82.909 64.592,82.909 64.692,81.007 70.435,81.007"/>
  <polygon points="72.267,77.155 72.083,80.756 75.037,80.756 74.135,92.343 79.84,92.343 80.64,80.856 84.142,80.856 85.943,77.155"/>
  <path d="M93.924 77.155H88.61l-6.603 15.19h5.237l.9-1.983h3.734l.39 1.982h5.893l-4.236-15.19zm-4.58 9.4l1.117-2.497.672 2.496h-1.788z"/>
  <polygon points="99.293,77.155 99.293,92.343 110.187,92.343 110.071,88.554 104.736,88.554 104.752,77.155"/>
  <polygon points="111.618,77.155 111.618,92.343 122.512,92.343 122.396,88.554 117.061,88.554 117.078,77.155"/>
  <polygon points="122.877,77.155 124.078,92.343 130.381,92.343 128.78,77.155"/>
  <path d="M198.5 133.886l-46.303-56.32 6.783 1.79c-8.204-4.502-18.41-11.642-19.11-12.242l4.84 6.817 3.286 18.906 8.586 7.402-3.395-10.855 6.552 3.542 13.346 18.45-8.704-3.703 34.118 26.214zM151.075 84.25l-.653-3.703 3.55 5.17-2.897-1.468z"/>
  <path d="M143.45 77.423c-.585-.243-2.14-.55-3.798-.55-5.757 0-8.86 3.164-8.86 7.024 0 5.984 5.255 9.03 10.75 9.03 1.644 0 3.222-.346 4.223-.846l-.816-5.236c-.913.826-2.237 1-3.527 1-2.82 0-4.474-1.63-4.474-3.63 0-1.607 1.297-2.764 3.683-2.764 2.2.1 2.852.442 3.553.842l-.737-4.87z"/>
</svg>
