<svg xmlns="http://www.w3.org/2000/svg" viewBox="0 0 200 83.388">
  <rect class="nirvana__underline" x="4.623" y="77.428" width="193.073" height="2.191"/>
  <path d="M181.397 4.478h5.095l8.53 65.546h2.148c.35.206.526.395.526.57 0 .175-.176.366-.526.57h-14.316c-.158 0-.285-.05-.38-.155-.097-.103-.143-.242-.143-.417s.05-.312.145-.416c.097-.102.227-.154.39-.154h2.325l-1.347-12.84h-8.726l-1.004 7.264c-.03.385-.046.783-.046 1.194 0 1.3.266 2.282.8 2.946.53.663 1.268 1.07 2.206 1.215l.777.222c.13.133.194.298.194.495 0 .2-.057.356-.167.47-.112.118-.246.174-.404.174h-8.15c-.16 0-.297-.055-.408-.172-.112-.115-.167-.272-.167-.47 0-.198.046-.364.143-.496l.575-.176c.924-.118 1.64-.5 2.15-1.152.764-1.032 1.305-2.746 1.624-5.137l8.157-59.08zm-1.32 16.775l-4.805 34.792h8.452l-3.647-34.792z"/>
  <path d="M164.453 8.992c0-1.38-.19-2.37-.572-2.97-.38-.6-.966-1.02-1.76-1.26l-2.046-.18c-.16-.06-.24-.227-.24-.5 0-.244.04-.41.116-.5.078-.092.272-.14.583-.14h8.228c.125 0 .227.05.304.143.077.095.116.21.116.346 0 .137-.04.237-.116.305-.077.068-.35.184-.814.346-.962.362-1.628.836-2 1.422-.373.586-.605 1.676-.697 3.268v61.893h-7.255L146.423 9.448V65.34c0 1.532.174 2.606.524 3.22.35.616.92 1.045 1.713 1.284l2.142.18c.158.09.238.274.238.547 0 .244-.042.404-.12.48-.08.076-.278.113-.595.113h-8.422c-.128 0-.23-.042-.31-.126-.078-.084-.117-.195-.117-.338 0-.14.038-.245.117-.316.078-.07.354-.19.826-.36.972-.358 1.64-.824 2-1.395.362-.572.59-1.684.685-3.337V4.583h-2.716c-.162 0-.3-.053-.414-.16-.113-.106-.17-.25-.17-.433 0-.152.054-.28.168-.387.113-.107.25-.16.412-.16h12.55l9.518 49.514V8.992z"/>
  <path d="M123.493 4.478h5.096l8.528 65.546h2.15c.35.206.525.395.525.57 0 .175-.175.366-.526.57H124.95c-.158 0-.284-.05-.38-.155-.096-.103-.142-.242-.142-.417s.048-.312.144-.416c.096-.102.226-.154.388-.154h2.326l-1.347-12.84h-8.728l-1.003 7.264c-.032.385-.048.783-.048 1.194 0 1.3.267 2.282.8 2.946.532.663 1.268 1.07 2.206 1.215l.776.222c.13.133.194.298.194.495 0 .2-.056.356-.166.47-.112.118-.246.174-.404.174h-8.15c-.16 0-.297-.055-.41-.172-.11-.115-.166-.272-.166-.47 0-.198.047-.364.143-.496l.574-.176c.923-.118 1.64-.5 2.15-1.152.763-1.032 1.304-2.746 1.623-5.137l8.16-59.08zm-1.32 16.775l-4.804 34.792h8.45l-3.646-34.792z"/>
  <path d="M92.1 4.582h-2.438c-.16 0-.295-.05-.405-.154-.112-.102-.167-.24-.167-.416 0-.175.055-.312.167-.416.11-.102.245-.154.405-.154h15.196c.158 0 .294.052.405.154.11.104.167.24.167.416 0 .175-.048.314-.145.416-.096.104-.242.154-.435.154h-2.94l4.124 49.91L111.696 9.2c.06-.423.094-.846.094-1.268 0-.997-.145-1.75-.432-2.263-.288-.514-.704-.83-1.247-.952l-1.534-.136c-.193-.12-.29-.304-.29-.547 0-.18.176-.38.526-.592h7.214c.158 0 .285.05.38.15.095.1.144.23.144.395s-.04.298-.12.397c-.08.1-.215.165-.404.197-.767.09-1.356.403-1.77.937-.67.92-1.13 2.452-1.385 4.59l-7.224 56.912c-.285 2.34-.49 3.616-.618 3.826-.127.21-.366.315-.713.315H99.75c-.255 0-.446-.12-.573-.36-.127-.24-.364-1.965-.713-5.176L92.1 4.582z"/>
  <path d="M59.61 4.582h-2.78c-.347-.18-.52-.378-.52-.592 0-.18.174-.364.523-.547h14.98c3.71 0 6.926 1.498 9.653 4.49 2.726 2.996 4.09 7.08 4.09 12.257 0 2.98-.524 5.63-1.57 7.946-1.043 2.317-2.594 4.228-4.653 5.732-1.237.903-3.152 1.777-5.748 2.618 2.905.81 4.927 1.587 6.064 2.335 1.926 1.26 3.356 2.77 4.287 4.536.93 1.767 1.398 4.056 1.398 6.87v16.432c0 .75.127 1.273.385 1.573.258.3.594.45 1.014.45.643 0 1.22-.373 1.737-1.12.836-1.193 1.367-3.34 1.594-6.443.03-.537.12-.895.26-1.074.144-.178.295-.268.455-.268.188 0 .347.105.475.312.158.24.24.686.24 1.34 0 3.306-.853 5.86-2.556 7.66-1.703 1.8-3.842 2.7-6.42 2.7-2.29 0-4.026-.556-5.203-1.66-1.18-1.108-1.766-2.68-1.766-4.716V41.663c0-2.035-.545-3.396-1.634-4.085-.643-.388-2.15-.584-4.52-.584v33.032h2.366c.258 0 .46.06.603.177.144.116.218.248.218.393 0 .146-.072.278-.216.395-.144.117-.344.175-.6.175H56.654c-.192 0-.354-.05-.48-.154-.128-.1-.192-.24-.192-.415s.066-.312.2-.416c.13-.103.298-.155.497-.155h2.932V4.582zm9.785 0v31.272h2.357c1.122 0 2.036-.36 2.742-1.084.704-.723 1.058-1.778 1.058-3.163V8.152c0-1.356-.258-2.29-.77-2.802-.514-.51-1.524-.77-3.03-.77h-2.357z"/>
  <path d="M39.17 4.582h-2.88c-.16 0-.287-.052-.383-.158-.096-.107-.144-.236-.144-.388 0-.18.048-.325.144-.432.096-.107.227-.16.388-.16h15.708c.16 0 .297.053.41.16.115.107.17.235.17.387 0 .184-.06.328-.176.435-.117.105-.26.157-.427.157h-3.024v65.442h2.828c.313.206.47.395.47.57 0 .205-.16.395-.475.57H35.954c-.35-.205-.522-.396-.522-.57 0-.175.173-.364.52-.57h3.218V4.582z"/>
  <path d="M27.6 8.992c0-1.38-.19-2.37-.57-2.97-.382-.6-.968-1.02-1.762-1.26l-2.046-.18c-.16-.06-.24-.227-.24-.5 0-.244.04-.41.116-.5.077-.092.27-.14.582-.14h8.228c.124 0 .225.05.302.143.077.095.117.21.117.346 0 .137-.04.237-.117.305-.077.068-.35.184-.814.346-.962.362-1.628.836-2 1.422-.373.586-.605 1.676-.697 3.268v61.893h-7.255L9.57 9.448V65.34c0 1.532.174 2.606.524 3.22.35.616.92 1.045 1.713 1.284l2.142.18c.157.09.238.274.238.547 0 .244-.04.404-.12.48-.08.076-.278.113-.594.113H5.05c-.126 0-.23-.042-.308-.126-.08-.084-.118-.195-.118-.338 0-.14.038-.245.117-.316.08-.07.355-.19.827-.36.972-.358 1.64-.824 2-1.395.362-.572.59-1.684.684-3.337V4.583H5.536c-.16 0-.3-.053-.412-.16-.113-.106-.17-.25-.17-.433 0-.152.055-.28.168-.387.114-.107.252-.16.413-.16h12.55l9.518 49.514V8.992z"/>
</svg>
