<svg xmlns="http://www.w3.org/2000/svg" viewBox="0 0 200 190">
  <path d="M195.949,88.319c-0.166-1.171-0.47-2.815-0.617-3.902c-1.021-7.486-1.643-9.652-2.657-12.257  c-0.167-0.429-1.518-2.776-1.822-3.28c-0.802-1.342-2.116-4.882-3.28-8.385c-1.266-3.799-4.074-7.131-5.704-10.936  c-3.682-8.595-7.573-11.069-12.158-16.038c-9.169-9.93-23.37-19.361-43.183-25.845c-11.65-3.813-23.876-4.614-32.078-4.614  c-6.603,0-11.394,0.503-12.709,0.658c-1.907,0.073-8.884,0.626-23.126,4.601C43.591,12.513,32.212,21.388,22.8,36.25  c-6.137,9.692-8.593,16.89-10.004,23.237c-0.324,1.467-0.631,2.851-0.967,4.125c-0.284,1.077-0.747,2.513-1.282,4.173 c-2.717,8.434-6.561,23.249-6.248,44.929c0.437,29.945,15.002,45.693,23.647,52.413c10.725,8.342,40.356,21.115,69.687,21.115 v-0.001h0.519c28.644,0,50.012-2.106,72.093-23.794c19.561-19.211,23.986-42.692,25.438-50.41c0.142-0.761,0.29-1.544,0.368-1.854 C197.213,105.529,197.436,98.815,195.949,88.319z M189.761,108.612c-1.094,4.374-3.646,29.161-24.058,49.21 c-20.414,20.048-40.826,21.506-68.165,21.506c-27.339,0-55.771-11.665-65.613-19.319c-9.841-7.655-20.777-22.237-21.142-47.388  c-0.364-25.15,6.197-39.732,8.02-46.657s2.551-15.309,9.477-26.245c6.927-10.935,16.404-20.776,32.078-25.152 c15.674-4.374,21.87-4.374,21.87-4.374s22.235-2.916,42.284,3.645c20.049,6.561,33.854,14.987,41.555,23.329  c4.375,4.739,6.562,7.29,9.842,14.945c3.28,7.655,5.832,17.862,8.02,21.507c2.187,3.645,2.917,3.645,4.01,11.664  C189.031,93.303,190.854,104.238,189.761,108.612z"/>
  <path d="M45.291,49.303c0,0,0.493-4.194,2.836-2.343c2.343,1.849,5.426,8.385,5.426,8.385l8.015-9.742c0,0,1.973-2.59,3.453-1.11 c1.48,1.48-0.987,4.686-0.987,4.686l-8.138,9.864l9.495,8.51c0,0,3.823,1.972,1.973,4.193c-1.849,2.219-2.466,2.095-5.918-1.357 c-3.453-3.453-6.782-8.632-6.782-8.632l-5.425,9.372c0,0-1.48,2.219-3.576,0.862c-2.096-1.355-0.123-4.562,1.357-6.534  c1.479-1.973,4.562-6.782,4.562-6.782S45.291,51.646,45.291,49.303z"/>
  <path d="M112.618,36.973c0,0,1.849-1.357,3.329,0.123s7.646,7.029,7.646,7.029s1.357,0.123,1.849-0.617  c0.494-0.741,5.795-8.755,5.795-8.755s1.849-0.987,2.96,0c1.11,0.987,1.234,2.096-0.493,4.316c-1.726,2.22-6.043,8.138-6.043,8.138  s-0.987,0.74,1.357,2.343c2.343,1.603,10.852,8.385,10.852,8.385s1.11,1.109,0.123,1.603c-0.985,0.493-3.946,1.11-6.412-1.233 c-2.466-2.343-6.534-7.028-6.534-7.028s-1.11-0.74-1.727,0.739s-3.083,7.522-4.317,9.001c-1.232,1.479-3.699,3.083-4.932,2.466  c-1.232-0.617-1.725-2.589-0.862-3.699c0.862-1.11,7.399-10.112,7.399-10.112s0.37-0.987-1.479-2.096 c-1.849-1.11-8.385-7.521-8.385-7.521S111.259,38.329,112.618,36.973z"/>
  <path d="M170.89,121.846c-1.551-3.72-11.47-4.805-11.47-4.805s-0.62,0,0-1.085c0.62-1.085,1.706-13.02,2.014-16.896  c0.31-3.875,2.791-8.681,3.566-11.317c0.777-2.634,0.62-6.82,0.62-6.82s2.79-0.155,4.496,0c1.703,0.157,1.393-1.394,0.463-2.789 c-0.93-1.395-9.454-4.186-11.78-4.806c-2.325-0.618-2.635,2.016-2.015,2.481c0.62,0.464,5.115,2.636,5.115,2.636  s-0.773,6.355-2.789,9.611c-2.015,3.254-2.015,11.005-2.015,17.825c0,6.822-5.737,13.022-8.991,16.123  c-3.254,3.101-6.51,10.542-11.006,17.052c-4.495,6.512-11.162,3.566-15.036,3.256c-3.876-0.311-6.512,2.326-9.458,4.65  c-2.944,2.325-6.2,5.581-16.276,4.651s-18.756-10.231-22.166-13.332c-3.411-3.101-4.961-7.596-7.906-9.611  c-2.944-2.016-9.766-1.706-17.051-2.171c-7.286-0.466-9.456-9.146-12.091-13.641c-2.635-4.496-3.1-11.316-3.721-11.316  c-0.62,0,3.721-1.549,5.427-3.254c1.705-1.706-0.156-2.016-0.156-2.016s-2.945,0-8.371,1.55c-5.426,1.551-6.201,3.72-8.061,5.115  c-1.86,1.397,0.465,3.256,0.465,3.256c1.393,0,1.086-0.465,2.634-1.397c1.55-0.931,4.65-1.861,4.65-1.861s2.635,10.077,6.666,19.222 s11.781,10.386,20.307,11.006c8.526,0.621,12.402,8.836,17.983,13.796c5.58,4.961,11.315,7.597,21.702,8.682  s16.43-3.876,19.686-6.047c3.256-2.171,14.416,0.775,19.222-1.859c4.806-2.636,9.766-11.161,10.851-12.867 c1.085-1.705,1.705-1.085,1.705-1.085s4.65,6.355,8.836,9.921c4.187,3.565,8.835,4.805,14.106-0.62 C176.317,137.657,172.44,125.567,170.89,121.846z M169.031,137.506c-1.396,2.325-3.564,7.44-8.681,2.944 c-5.117-4.495-8.061-7.751-8.836-8.061c-0.776-0.31-2.946-1.085-2.016-4.031c0.931-2.945,1.396-1.396,2.171-1.702 c0,0,3.565,1.239,5.115,3.254c1.551,2.016,3.566,4.961,5.737,3.411c2.169-1.55,0.31-4.029-3.101-6.2 c-3.409-2.171-5.734-3.877-4.029-5.582c1.705-1.706,1.238-2.481,3.099-1.706c1.86,0.777,7.906,3.256,9.456,7.132 C169.496,130.839,170.426,135.18,169.031,137.506z"/>
</svg>
