<svg xmlns="http://www.w3.org/2000/svg" viewBox="0 0 200 97">
  <path d="M2 2.142h196v92.716H2V2.142zm4.7 4.7v83.315h186.6V6.842H6.7z"/>
  <g>
    <path d="M11.4 11.543v73.914h177.2V11.543H11.4zm125.75 10.77h11.082l-1.577 8.397h-11.053l1.55-8.398zm-84.383 34.83c-1.354 3.043-3.394 5.46-6.12 7.23-2.726 1.783-6.083 2.674-10.07 2.674-5.054 0-8.78-1.372-11.193-4.127-2.41-2.745-3.607-6.176-3.607-10.272 0-3.216.714-6.33 2.15-9.33 1.448-3 3.534-5.346 6.27-7.036 2.736-1.69 5.99-2.54 9.774-2.54 5.166 0 8.93 1.444 11.295 4.322s3.542 6.258 3.542 10.108c0 2.95-.677 5.94-2.04 8.972zm37.39-4.31c-.928 4.33-1.392 7.352-1.392 9.052 0 1.444.24 2.92.705 4.414H78.685c-.25-1.26-.38-2.47-.38-3.637-2.893 2.93-6.13 4.383-9.7 4.383-3.635 0-6.25-.942-7.845-2.817-1.595-1.885-2.392-4.067-2.392-6.545 0-2.817.705-4.967 2.133-6.452 1.42-1.475 3.172-2.48 5.26-3.01 2.076-.534 4.923-.994 8.53-1.394 3.2-.38 5.34-.76 6.408-1.117.213-.942.325-1.66.325-2.16 0-.8-.362-1.435-1.094-1.916-.743-.48-1.717-.727-2.922-.727-1.27 0-2.3.225-3.088.676-.788.45-1.484 1.002-2.077 2.435l-10.293.11c.668-3.02 2.19-6.28 4.572-7.92 2.385-1.646 6.074-2.47 11.072-2.47 5.666 0 9.496.79 11.48 2.356 1.984 1.577 2.977 3.86 2.977 6.862 0 1.998-.502 5.286-1.494 9.874zm18.97-7.856c.604.492 2.236.952 4.88 1.372 4.256.695 7.084 1.75 8.484 3.164 1.41 1.413 2.106 3.298 2.106 5.653 0 3.277-1.372 6.083-4.127 8.398-2.755 2.325-6.946 3.482-12.575 3.482-4.6 0-7.975-.738-10.108-2.222-2.142-1.475-3.385-3.912-3.746-7.312l10.915-1.055c.473 2.58 2.012 3.87 4.618 3.87 1.215 0 2.29-.286 3.227-.87.927-.584 1.39-1.413 1.39-2.49 0-.982-.333-1.638-1-1.976-.668-.348-1.94-.676-3.803-.993-4.294-.738-7.205-1.865-8.726-3.36-1.52-1.505-2.28-3.39-2.28-5.674 0-1.864.575-3.677 1.716-5.46s2.865-3.184 5.174-4.218c2.31-1.024 5.146-1.546 8.513-1.546 3.858 0 6.816.625 8.874 1.874 2.058 1.25 3.482 4.615 3.6 7.677l-10.082.025c-.306-1.925-1.604-2.878-3.886-2.878-1.336 0-2.356.266-3.042.81-.686.532-1.03 1.167-1.03 1.884.002.747.308 1.362.91 1.843zm30.63 21.323h-11.11l6.168-31.83h11.137l-6.195 31.83zm21.885-21.323c.603.492 2.235.952 4.878 1.372 4.256.695 7.085 1.75 8.485 3.164 1.41 1.413 2.105 3.298 2.105 5.653 0 3.277-1.373 6.083-4.127 8.398-2.754 2.325-6.945 3.482-12.574 3.482-4.6 0-7.976-.738-10.108-2.222-2.142-1.475-3.385-3.912-3.746-7.312l10.914-1.055c.473 2.58 2.012 3.87 4.618 3.87 1.215 0 2.29-.286 3.227-.87.927-.584 1.39-1.413 1.39-2.49 0-.982-.333-1.638-1-1.976-.67-.348-1.94-.676-3.803-.993-4.293-.738-7.205-1.865-8.726-3.36-1.52-1.505-2.28-3.39-2.28-5.674 0-1.864.574-3.677 1.715-5.46 1.142-1.78 2.866-3.184 5.175-4.218 2.31-1.024 5.147-1.546 8.513-1.546 3.858 0 6.816.625 8.874 1.874 2.058 1.25 3.943 4.768 4.195 7.696l-10.677.005c-.306-1.925-1.604-2.878-3.885-2.878-1.335 0-2.355.265-3.042.808-.686.533-1.03 1.168-1.03 1.885 0 .748.306 1.363.91 1.844z"/>
    <path d="M69.18 57.093c0 1.014.315 1.823.946 2.407.64.594 1.456.89 2.448.89 1.39 0 2.773-.624 4.145-1.873 1.362-1.25 2.28-3.41 2.753-6.473-5.09.942-8.077 1.772-8.967 2.5-.88.715-1.326 1.566-1.326 2.55z"/>
    <path d="M39.562 41.966c-2.337 0-4.08 1.168-5.25 3.513-1.167 2.334-1.752 4.73-1.752 7.168 0 1.76.455 3.226 1.373 4.393.91 1.17 2.03 1.763 3.347 1.763 2.068 0 3.71-1.168 4.924-3.503 1.205-2.325 1.818-4.916 1.818-7.753 0-2.058-.464-3.503-1.39-4.332-.918-.83-1.938-1.25-3.07-1.25z"/>
  </g>
</svg>
