<!--
  SVG Music Logos
  Ozzy Osbourne - No More Tours II v1.0.0
  https://github.com/tiagoporto/svg-music-logos
  Copyright (c) 2016-2018 Tiago Porto (http://tiagoporto.com)
-->
<svg xmlns="http://www.w3.org/2000/svg" viewBox="491.8 35.6 200 128" >
  <path d="M606.4 75h-9.3l-3.5 10.3h8.8l-11.5 29.3-.1.3V128h42.5v-15.3h-24l10.9-27.4h8.8l3.5-10.3h-8.2l9.5-23.8V38.3h-43.2v15.2H615L606.4 75zm-15.2-22.2V39h41.7v12l-9.8 24.8h8.3l-3 8.8h-8.8l-11.5 28.8h24.3v13.8h-41V115l12-30.4h-8.8l3-8.8h9.2l9-23h-24.6z"/>
  <polygon points="656.6 125.8 669.9 125.8 669.9 89.7 688.1 40.1 674.1 40.1 663.4 74.2 663.1 74.2 652.4 40.1 638.4 40.1 656.6 89.7"/>
  <path d="M654.8 127.7h17V90l19-51.8h-18l-9.4 30.3-9.4-30.3h-18L655 90v37.7zm-18-88.7h16.5l10 32 10-32h16.5l-18.7 50.9V127h-15.5V90l-18.8-51z"/>
  <polygon points="607.6 76.9 598.4 76.9 596.1 83.4 605 83.4 592.5 115.2 592.5 126 631.3 126 631.3 114.4 606.5 114.4 618.8 83.4 627.6 83.4 629.8 76.9 621.4 76.9 631.8 50.7 631.8 40.1 592.3 40.1 592.3 51.7 617.5 51.7"/>
  <path d="M516.9 113.2c2.2 0 4-.6 5.6-1.9 1.5-1.2 2.3-3.1 2.3-5.7V60.2c0-2.6-.7-4.5-2.3-5.7-1.6-1.3-3.4-1.9-5.6-1.9s-4 .6-5.6 1.9c-1.5 1.2-2.3 3.1-2.3 5.7v45.4c0 2.6.7 4.5 2.3 5.7 1.6 1.3 3.4 1.9 5.6 1.9zm-7.2-53c0-2.4.7-4.1 2-5.1 1.5-1.1 3.1-1.7 5.2-1.7 2 0 3.7.6 5.2 1.7 1.3 1.1 2 2.7 2 5.1v45.4c0 2.4-.7 4.1-2 5.1-1.5 1.1-3.1 1.7-5.2 1.7-2 0-3.7-.6-5.2-1.7-1.3-1.1-2-2.7-2-5.1V60.2z"/>
  <path d="M492.8 161.9H688v-25H492.8v25zm.8-24.3h193.7v23.5H493.6v-23.5z"/>
  <path d="M500.5 122.8c2.3 1.9 4.9 3.3 7.7 4.2 2.8.9 5.7 1.4 8.6 1.4s5.8-.5 8.6-1.4c2.8-.9 5.4-2.4 7.7-4.2 2.3-1.9 4.2-4.3 5.6-7.1 1.4-2.9 2.1-6.2 2.1-10.1V60.2c0-3.7-.7-7.1-2.1-10-1.4-2.9-3.3-5.3-5.6-7.2-2.3-1.9-4.9-3.3-7.7-4.2-5.7-1.9-11.5-1.9-17.2 0-2.9.9-5.5 2.4-7.7 4.2-2.3 1.9-4.2 4.3-5.6 7.2-1.4 2.9-2.1 6.2-2.1 10v45.4c0 3.8.7 7.2 2.1 10.1 1.4 2.8 3.3 5.2 5.6 7.1zm-7-62.6c0-3.6.7-6.9 2.1-9.6 1.4-2.8 3.2-5.1 5.4-7 2.2-1.8 4.8-3.2 7.5-4.1 2.7-.9 5.6-1.4 8.4-1.4 2.8 0 5.6.5 8.4 1.4 2.8.9 5.3 2.3 7.5 4.1 2.2 1.8 4.1 4.2 5.4 7 1.4 2.8 2.1 6 2.1 9.6v45.4c0 3.7-.7 7-2.1 9.7-1.4 2.7-3.2 5.1-5.4 6.9-2.2 1.8-4.8 3.2-7.5 4.1-5.5 1.8-11.2 1.8-16.7 0-2.8-.9-5.3-2.3-7.5-4.1-2.2-1.8-4.1-4.1-5.4-6.9-1.4-2.7-2.1-6-2.1-9.7l-.1-45.4z"/>
  <path d="M559.7 75h-9.3l-3.5 10.3h8.8L544 114.8v13.1h42.5v-15.3h-24l10.9-27.4h8.8l3.5-10.3h-8.2l9.5-23.8V38.2h-43.2v15.2h24.4L559.7 75zm-15.2-22.2V39h41.7v12l-9.8 24.8h8.3l-3 8.8h-8.8l-11.5 28.8h24.3v13.8h-41V115l12-30.5h-8.8l3-8.8h9.2l9-23-24.6.1z"/>
  <path d="M501.7 121.4c2.1 1.7 4.5 3 7.2 3.9 2.6.9 5.3 1.3 8 1.3s5.4-.5 8-1.3c2.6-.9 5-2.2 7.2-3.9 2.1-1.7 3.8-3.9 5.2-6.5 1.3-2.6 1.9-5.7 1.9-9.2V60.2c0-3.5-.7-6.5-1.9-9.2-1.3-2.7-3-4.8-5.2-6.6-2.1-1.7-4.5-3-7.2-3.9-2.6-.9-5.3-1.3-8-1.3s-5.4.5-8 1.3c-2.6.9-5 2.2-7.2 3.9-2.1 1.7-3.8 3.9-5.2 6.6-1.3 2.7-1.9 5.7-1.9 9.2v45.4c0 3.6.7 6.6 1.9 9.2 1.3 2.7 3.1 4.8 5.2 6.6zm6.2-61.2c0-3 .9-5.2 2.7-6.6 1.8-1.4 3.9-2.1 6.3-2.1s4.5.7 6.3 2.1c1.8 1.4 2.7 3.6 2.7 6.6v45.4c0 3-.9 5.2-2.7 6.6-1.8 1.4-3.9 2.1-6.3 2.1s-4.5-.7-6.3-2.1c-1.8-1.4-2.7-3.6-2.7-6.6V60.2z"/>
  <polygon points="560.9 76.9 551.7 76.9 549.5 83.4 558.3 83.4 545.8 115.2 545.8 126 584.6 126 584.6 114.4 559.8 114.4 572.2 83.4 580.9 83.4 583.1 76.9 574.8 76.9 585.2 50.7 585.2 40.1 545.6 40.1 545.6 51.7 570.8 51.7"/>
  <path d="M618.2 147.8l.2-.2c0-.1.1-.1.1-.1.1-.1.1-.3.1-.5 0-.8-.6-1.2-1.7-1.2h-2.5v2.4h2.5c.6 0 1-.2 1.3-.4z"/>
  <path d="M537.2 153.1c1.7 0 3-1.1 3.4-2.7h-1.3l1.2-2.1c-.4-1.5-1.7-2.6-3.4-2.6-2.1 0-3.5 1.6-3.5 3.6.1 2.2 1.5 3.8 3.6 3.8z"/>
  <path d="M570.3 151.8c0-.8-.6-1.3-1.9-1.3h-3v2.6h3c1.2-.1 1.9-.5 1.9-1.3z"/>
  <path d="M494.6 160.1h191.5v-21.5H494.6v21.5zm149.1-11.7v-4.7h8.8v2.3h-6.2v2.4h5.5l-1.1 2.3h-4.4v2.5h6.3v2.3h-8.9v-4.8h-1.2l1.2-2.3zm-16.6 0v-4.7h2.4l5.5 7.2v-7.2h2.5v11.7h-2.2l-5.6-7.4v7.4h-2.5v-4.8h-1.3l1.2-2.2zm-15.2-.2v-4.7h5.4c2.4 0 3.8 1.2 3.8 3v.9c0 1.6-1.1 2.7-3 2.9l3.3 4.9h-3l-3.2-4.9h-.9v4.8h-2.5v-4.8h-1.2l1.3-2.1zm-16.2-4.6h2.6v6.6c0 1.9.9 2.9 2.5 2.9 1.5 0 2.4-.9 2.5-2.6H602l1.3-2.1v-4.7h2.6v6.6c0 3.5-2 5.3-5.1 5.3-3.1 0-5-1.7-5-5.2l-.1-6.8zm-17.9 5.9c0-3.3 2.6-6 6.2-6s6.2 2.7 6.2 6-2.6 6-6.2 6-6.2-2.7-6.2-6zm-14.9-1.2v-4.7h5.4c2.4 0 3.8 1.2 3.8 3 0 1.3-.7 2.1-1.5 2.5 1.3.5 2.2 1.3 2.2 2.9 0 2.1-1.7 3.2-4.4 3.2h-5.6v-4.8h-1.3l1.4-2.1zm-10.4 2.3c-.1 0-.2-.1-.3-.1h-2.5l.4-.8c-.9-.5-1.5-1.3-1.5-2.7 0-2.1 1.7-3.5 4.1-3.5 1.7 0 3.1.5 4.3 1.5l-1.3 1.9c-1-.7-2.1-1.1-3-1.1-1 0-1.5.5-1.5 1 0 .8.5 1 2.5 1.5 2.4.6 3.7 1.5 3.7 3.5 0 2.3-1.8 3.6-4.3 3.6-1.8 0-3.6-.6-5-1.9l1.5-1.8c1.1.9 2.1 1.4 3.5 1.4 1.1 0 1.7-.4 1.7-1.1 0-.6-.4-.9-2.3-1.4zm-21.5-1.1c0-3.3 2.6-6 6.2-6s6.2 2.7 6.2 6-2.6 6-6.2 6-6.2-2.7-6.2-6z"/>
  <path d="M569.7 147.1c0-.8-.6-1.2-1.7-1.2h-2.5v2.5h2.4c1 0 1.8-.4 1.8-1.3z"/>
  <path d="M584 153.1c1.7 0 3-1.1 3.4-2.7h-1.3l1.2-2.1c-.4-1.5-1.7-2.5-3.4-2.5-2.1 0-3.5 1.6-3.5 3.6.1 2.1 1.5 3.7 3.6 3.7z"/>
</svg>
