<svg xmlns="http://www.w3.org/2000/svg" viewBox="0 0 200 37">
    <path d="M29.052 3.534c-1.785.78-1.116 2.9-1.674 3.794-.78 1.228-.446 3.46-1.562 4.017-.447.892 0 1.227-.558 2.12-2.197 3.975-2.63 10.795-4.604 15.034-.71 1.52 1.784 2.175 3.042 1.815 1.228-1.116 2.01-2.12 2.9-3.683 1.23-2.008 4.465-.78 6.14-1.116 2.342 1.674 1.003 4.575 3.235 6.137 1.563.335 3.126-.446 3.795-.78 0-8.704-4.24-16.404-4.352-25.443-1.116-2.008-3.794-1.896-6.36-1.896zm1.34 17.742c-3.348-2.9.557-7.14.78-10.154.223 3.46 1.562 7.365 1.897 9.82-.78.557-1.786.223-2.68.334z"/>
    <path d="M19.902 32.547v-1.34h-.558c.223.335 0 1.117.558 1.34z"/>
    <path d="M60.41 32.547v-1.674c-.447.558-.782 1.34 0 1.674z"/>
    <path d="M179.718 20.412l-.43-1.076-1.507.645c.432.862 1.293.217 1.938.432z"/>
    <path d="M110.4 15.362c-1.784-3.013-5.132-3.57-8.48-3.236-2.565.558-.78 3.905-1.673 5.69-.2 3.71.14 7.6 1.02 10.698.263.93.41 1.365 1.524.924 1.992-.785-1.218-5.192 1.81-6.266 2.454 1.34 2.23 4.352 4.462 5.803.893.558 1.674.558 2.455-.223-.335-2.12-2.12-3.013-2.9-4.798-.894-3.46 3.346-4.575 1.784-8.592zm-5.355 4.8h-1.786c-.447-1.787-.56-4.13.78-5.58 1.227.223 2.678.446 3.236 1.897 1.116 1.114-.892 3.346-2.23 3.68z"/>
    <path d="M59.294 8.667c-.223 1.674.446 3.682-.558 5.133-.223-.558-.558-1.116-.78-1.673-2.456-3.57-8.035-3.125-11.83-2.902V8.89c-.892 0-.908.08-1.258.95-1.278 3.168-.153 7.336-.86 9.763-.67 3.794-.894 8.37 0 12.05.78.224 2.008.782 3.235.56 1.785-.894.223-2.68 1.897-4.018 1.228-1.228-.558-1.34-.558-2.678 1.426-2.424 4.984.1 6.966-1.797 2.6-2.488 4.476-4.434 3.97-8.58.334-1.675.668-4.91-.224-6.473zm-7.477 11.27c-1.116.224-1.786-.334-2.455-1.115l.335-.223c-.893-.782-.67-3.014-.335-4.353.893-1.116 2.455 0 3.236 0 .892.893 1.45 1.34 1.562 2.232.335 1.56-1.004 3.01-2.343 3.458z"/>
    <path d="M18.898 8.667l-.335 4.575C15.996 8.22 9.19 9.56 4.95 8.89c-.782.558-.782 1.45-1.117 2.232 1.116 7.365-2.12 13.167-.223 20.532.223.67.78-.335.78.558 4.046 1.82 2.684-2.408 4.22-4.13.84-.94.15-1.354-.424-2.566.92-1.422 2.845-1.088 4.645-.973 2.892.185 5.59-3.51 5.712-6.065.16-3.39 1.625-6.687.356-9.81zm-5.134 9.373c-1.562.558-1.674 2.678-3.794 1.897-1.562-1.34-1.45-3.794-1.004-5.69 1.34-1.117 3.57-.336 4.24 1.34.112.333.782 1.45.558 2.453z"/>
    <path d="M192.42 7.328c.223-.558.558-1.227-.335-1.34-.446.335-.11 1.005.335 1.34z"/>
    <path d="M196.995 14.804c-.67-.893.11-1.674-.893-2.12-.67-.335-2.01.78-2.678 0 .223-1.34-.112-2.455-.78-3.46l-.56.782c1.898 1.562-.445 2.9-.445 4.24-1.898 1.45.222 3.46-.894 5.133h-4.24c-1.45-1.674-.558-4.24-.78-6.473-1.202-1.352-4.49-1.496-4.968.547-.765 3.254-.557 7.502-.948 10.724-.78 0-1.45.334-2.12-.558-2.9.223-6.472 4.24-8.815 1.674-.184-.693.533-.934 1.658-.97.256-.886-2.862-3.306-3.38-2.61-.334 2.2 1.387 2.13.83 3.022-2.12.78-.447-1.562-2.344-1.897.222-1.23-1.786-1.898 0-2.68.222 0 .557 0 .78.336.854.828 4.572.024 4.72-.696.08-.252-1.416-.53-2.416-.223-1.7.522-1.737-.497-2.697-1-.78-.112-1.058.47-1.504 1.027l-.558-.446c.112-3.013 1.562-5.022 4.017-6.696 3.348-1.228 6.138 1.562 8.37 2.9 2.21.277 2.012-3.898 1.88-5.184-.39-3.82-4.28-4.86-8.043-4.88-5.993-.033-9.85 1.92-13.366 6.606-.92 1.84-1.088 4.624-1.35 7.077-.128 1.204-.637 1.985.233 2.855.447 4.91 3.794 9.15 8.258 10.378 1.786 1.116 4.352.558 6.472 1.34 2.455-.56 3.906.11 5.914-1.34 1.563-1.45 2.68-3.683 2.12-5.357h1.117c.223.78.558 2.12-.335 2.678-.558 1.45.893 1.45 1.34 2.12 1.338.223 3.235-.11 4.574-.78 1.116-.67.223-1.786-.558-2.344.78-1.34-.446-3.794 1.116-4.575 1.562-.112 3.013.112 4.575.223 1.896 2.343-.56 4.798 1.003 7.476.592-.395 3.82 1.52 4.575-.446-.668-4.91 1.228-10.713 1.117-16.404z"/>
    <path d="M130.264 9.783l-.558-1.116c-.223-1.562-2.232-2.01-2.902-3.236-2.79-1.673-7.03-.222-8.816.782-3.794 2.12-3.906 6.472-4.017 9.932-.11 3.57 0 8.146 1.563 10.712-.117 1.876 2.7 2.837 3.794 3.794 1.562.112 3.906 1.897 5.803.558 7.752-3.774 6.646-12.49 6.058-20.52-.126-1.738.293-2.99-.924-.905zm-6.695 17.073c-1.117.112-2.12-.11-2.902-.78-1.34-1.563-1.116-3.906-1.897-5.915-.78-2.342.113-5.132.224-7.252l.558-.446-.223-.335c.11-.893 1.56-2.232 2.343-2.678 2.83-1.64 4.724 2.094 4.99 4.277.555 4.56 1.592 10.98-3.094 13.13z"/>
    <path d="M151.466 25.294c-.78-1.674-.78-4.128-1.116-5.69-2.01-2.79-1.562-5.692-2.455-9.04-.446-1.897.112-4.8-1.562-6.472-.335.558-.78-.112-1.116-.223-1.562-.113-4.24-1.117-5.357.78.67 1.116-1.115 2.12-.446 3.236-.493.41-1.686 3.45-1.34 3.683l-.557.557c-.112 1.785-1.562 3.57-1.897 5.356-.283 4.425-1.677 6.626-2.843 10.02-.977 2.85.166 2.21 2.843 2.813 1.897 0 1.116-2.12 2.455-2.902 1.34-1.897 3.348-2.008 5.802-1.897 3.013 1.004 1.898 4.13 4.017 5.914.335.56 2.455.113 3.013-.222.558-.893 1.116.335 1.34.78.892.224 1.45-.334 2.12-.557.446-2.79-1.786-6.136-2.12-7.81l-.78 1.674zm-7.03-4.018c-2.01.67-3.013-.893-3.46-2.455.64-2.446.683-5.19 1.942-7.376-.016-.03-.027-.07-.044-.1l.223-.222c-.068.104-.117.216-.18.323.84 1.59.753 4.63 1.52 6.82-.447.892 1.45 2.12 0 3.01z"/>
    <path d="M76.925 12.46c-.67-2.79-.558-5.913-2.12-8.368-.224.558-.782-.112-1.005-.223-1.62-.487-4.58-.95-5.124 1.06-1.515 5.6-4.292 9.833-5.143 15.79-.893 1.226-.11 2.79-1.34 3.458-.375 1.883-.99 2.734-1.24 4.562-.293 2.152.48.28 1.018 1.353 1.005.223 3.014.892 3.46-.558l-.223-.223 2.12-3.013c1.45-1.452 3.906-.448 5.914-.782 2.233 1.45.894 4.687 3.237 5.914 1.227.558 2.9.112 3.682-.78.67-2.456-.336-4.13-.56-6.14-.22-3.682-2.675-8.034-2.675-12.05zm-5.357 8.816c-.893.446-1.228-.67-1.785-1.116-.67-3.013.78-5.803 1.785-8.592 1.116 2.79.112 6.25 1.897 8.592.67 1.116-1.004 1.116-1.897 1.116z"/>
</svg>
