<svg xmlns="http://www.w3.org/2000/svg" viewBox="0 0 200 200">
    <path d="M170.314 136.14c-.42-.293-.843-.585-1.232-.877-1.232-4.183.714-17.61 2.433-20.853 3.86-2.042 2.594 5.35 2.562 7.038-2.303 4.216-2.562 6.746-2.788 11.643.972.974 4.247-1.945 5.122-2.594 2.336-2.79 5.935-4.702 8.497-7.426 2.334-1.2 6.97-7.556 9.923-5.35-.066 2.01-1.752 1.394-3.146 2.107-5.546 4.15-10.572 9.21-15.76 13.782-2.402 1.686-3.116 2.27-5.613 2.53z"/>
    <path d="M33.006 143.695c-2.076-2.724.616-16.54 1.59-17.317 1.005-11.934 1.686-23.9 3.048-35.48-.065-.907-.097-1.815-.13-2.69-3.21 0-5.382 2.56-8.172 3.47-7.154 4.13-15.005 7.997-19.166 15.5-.91 3.08-1.557 5.837-5.157 3.73-1.136-2.627-1.752-2.886 0-4.93 3.015-2.302 6.777-5.448 10.247-7.167 2.757-2.27 6.39-3.955 9.275-6.063 5.384-2.886 10.8-5.773 16.215-8.626 11.966-5.188 23.9-10.052 36.32-14.495.325 0 .65 0 .974.032 0 .584 0 .584-.258.843-11.675 3.86-22.636 8.886-33.727 13.815C40.79 86.1 40.79 86.1 40.24 86.618c-.228 1.945-.228 1.945-.65 11.253-2.594 22.475-2.594 22.475-2.82 26.367-1.558 5.708.777 11.577-1.3 17.512-.453.583-.907 1.198-1.36 1.815-.39.033-.748.065-1.104.13z"/>
    <path d="M41.016 147.165c-.195-.13-.357-.26-.52-.388 0-10.508 2.563-21.015 2.563-31.393-1.233-2.79.193-5.286.842-7.815.065-1.525.065-6.91 2.724-4.25 1.167 3.665.745 7.2.745 11.188-1.718 6.713-1.718 6.713-1.912 8.205 1.62.162 6.843-2.595 8.172-3.924.876-5.87 1.752-11.74 2.627-17.578.52-.39.908-.26 1.62.098.066 4.93-.81 9.89-.42 15.014 1.2 0 2.53-.908 4.15-.972 0-1.33.032-2.66.065-3.957.973-.973 1.524-3.567 1.945-4.767 1.2-.032 1.2-.032 2.432.195 2.334-1.427 4.312-3.47 6.842-4.67.357-.908 1.33-1.005 2.27-1.2 1.07-.843 4.086-2.562 11.804-7.718.746-.033.746-.033 1.232.194 0 1.783-.778 1.88-2.465 2.594l-4.962 3.892c-3.534 1.848-6.26 5.156-9.73 6.94-1.458 1.46-3.08 2.854-4.182 4.605-.227 3.406-2.043 6.39-2.238 9.892 4.345-1.297 7.815-7.686 12.29-8.367-.064.39-.13.778-.16 1.167-4.346 3.502-12 10.15-14.043 15.08-.324 2.336-1.59 10.346-.29 11.967 3.566 0 9.24-8.044 10.506-10.573h.81c-.453 2.302-2.53 4.443-3.697 6.648-2.335 3.146-5.48 7.88-9.89 6.064-1.524-3.958-.454-8.952-.033-12.81-.42-1.946-1.233-1.2-.39-3.373 1.623-1.46 1.396-7.913 1.46-9.632-.13-.065-.26-.098-.39-.13-1.685 1.136-2.983 2.043-4.344 3.405-.942 2.79-1.428 5.546-1.947 8.626 0 .876-.26 9.373-1.72 8.886 0-4.767 0-4.767-.226-8.886-.617-1.167.713-5.286.52-7.038-1.98 0-6.682 3.405-8.497 4.865-1.038 6.324-2.043 12.972-2.627 19.523-.29.26-.29.26-.937.39z"/>
    <path d="M176.41 138.83c-2.14 0-2.853.488-3.76 2.336-4.605 5.026-8.627 11.512-13.816 15.793h-1.523c-.55-.747-.55-.747-.972-2.044 0-11.545 1.427-21.988 3.664-33.046.875-1.72.875-1.72 1.297-2.108 1.297-3.275.875-6.745.875-9.99 1.232-2.463-.098-2.95-2.27-2.95-1.817 1.394-1.622 8.367-2.368 11.22-3.47 1.298-3.47 1.298-7.167 3.05-.26-.13-.26-.13-.52-.78 0-4.117.163-8.496-.454-12.388-1.07-.52-1.75-.973-2.69-.453-.52.747-.52.747-3.99 8.303-3.6 9.178-7.07 18.485-10.378 27.89 0 1.2 0 1.362 1.394 1.85 3.243 0 3.146-1.33 3.146-4.412.714-1.36 1.038-4.798 1.524-6.485 1.59-2.107 6.615-7.686 9.177-7.686.713 5.35-.39 10.7.583 16.41 2.108 0 2.01-3.21 1.46-4.444 0-4.508-.39-9.502.226-13.555 1.103-1.134 5.61-6 7.46-6 .453 12.487-4.444 26.042-2.272 38.625.325.552.325.552 1.427 1.524 1.297-.13 1.297-.13 2.594-.585 6.322-5.837 10.442-14.04 17.576-18.81.035-.973.035-.973-.225-1.264zm-28.7-16.117c-1.88 1.62-4.507 3.308-6.81 3.697 1.752-4.93 3.6-9.827 5.772-14.56h.52c.908 2.95.518 7.458.518 10.863z"/>
    <path d="M111.94 197.756c-.357-1.297-.78-4.767-1.232-6.26-1.72-22.05-1.72-22.05-1.946-22.505-.357-23.835-.78-47.347-.876-70.923-.13-.065-.26-.098-.39-.13-1.686 2.53-3.015 8.27-3.923 11.61-.422.875-.422.875-3.892 14.042-1.134 5.285-2.107 13.1-4.085 18.81-1.297 9.112-2.66 18.127-3.47 27.467-.875 4.962-.875 4.962-1.978 9.567-.648.65-1.168.422-1.882.422-.227-.324-.454-.616-.68-.908-.227-1.72-.227-1.72-.422-13.88.194-1.07.648-8.66.843-9.502 1.168-26.17 2.173-52.537 1.75-78.448-.453-4.118-.453-4.118-.42-6.81.874-.488.81-.488 2.107-.228.42.876.875 1.752 1.33 2.66-.65 19.523-.65 19.523-1.72 42.224.13 3.698-.26 6.745-.648 10.572-.357 12.907-1.232 25.457-1.07 38.462.13.13.26.26.422.39 4.313-22.67 4.313-22.67 4.54-24.842.422-1.07 3.437-14.464 3.892-15.566 3.015-11.35 6.258-22.214 10.182-33.143.487-.227.487-.227 2.984-.195 1.2 1.2-1.038 5.318-1.49 6.81-.1 1.265-.196 2.53-.26 3.794.13 0 .26.032.388.065-1.687 23.837 1.362 47.705 1.362 71.768.227.42.454 5.838.65 6.745 0 2.367.324 4.832.68 7.524.13.032.26.064.422.13 1.784-2.66.843-7.006 1.946-9.665.194-3.146 1.168-5.967 1.718-8.854 0-.973 0-1.946.034-2.886.875-.65 1.783-4.314 2.14-5.32 1.72-6.647 3.73-13.49 6.03-19.683.1-.91.066-1.363.65-1.948 4.216-11.253 9.146-22.18 13.848-33.078 3.988-7.75 8.075-15.372 12.13-22.993 1.685-2.496 1.685-2.496 5.155-8.366 3.08-3.632 6.387-8.66 8.463-13.037 2.692-2.238 2.724-9.47 7.945-8.432 1.49 2.237-1.006 4.994-2.594 6.875-4.15 3.275-6.13 7.07-9.016 11.577-2.01 2.465-2.01 2.465-2.627 2.854-2.237 5.547-6.518 10.314-8.82 15.957-2.107 3.276-3.502 6.745-5.254 10.25-2.336 2.334-2.757 6.84-5.61 9.24-3.958 8.01-9.21 17.09-10.606 26.01-.29.388-.55.778-.81 1.2-3.665 10.052-7.72 21.597-8.885 32.267-1.168 3.373-1.947 6.55-2.4 10.216-.162.194-.293.39-.423.584-.875 5.61-1.72 12.972-2.367 16.636-.194.227-.357.487-.52.746-.452.032-.873.065-1.295.13z"/>
    <path d="M100.982 85.664c-.194-.194-.39-.39-.55-.583-1.66-3.656-3.313-7.27-4.84-10.887-.15-.78-.458-1.502-.887-2.136-1.894-4.652-3.54-9.318-4.684-14.088-.323-.292-.323-.292-.745-.292-2.757 3.21-2.53 8.237-2.724 12.485-1.135.65-1.297.486-2.14-.033.162-8.205.26-16.474 1.946-24.257.227-.324.453-.648.68-.94 3.795 0 4.282 3.34 4.25 6.94 2.043 0 16.44-12.648 15.793-8.724-4.542 3.34-11.287 6.906-14.238 11.836 0 9.923 4.443 19.23 8.238 28.505.52.683.616.747.616 2.044-.26.032-.486.065-.714.13z"/>
    <path d="M137.726 75.935c-3.405-3.405 1.232-12.096-.325-13.33-1.005-6.03-2.237-11.61-.648-17.252 3.6 0 3.535 2.82 4.086 6.13-.324 2.594-1.784 3.89-1.686 7.134.13.033.26.097.39.162.842-1.233.842-1.233 2.172-3.828.746-3.437 4.897-6.097 5.87-9.6.29-.16.616-.324.94-.486 5.934-6.453 12.16-12.226 18.906-17.804.487-1.265 4.15-3.08 5.61-4.54 2.108-1.362 5.254-4.378 8.206-4.183.226.29.226.29.226 1.458-3.86.422-8.302 4.25-11.35 6.55-4.346 4.022-10.8 8.01-14.238 12.713-5.74 5.287-10.734 12.13-14.17 19.167-1.04 3.114-.65 3.535-.65 6.908-1.363 3.372-1.2 6.064-1.297 9.955-.195.228-.357.455-.52.714-.516.034-1.035.066-1.52.13z"/>
    <path d="M114.603 73.568c-1.816-1.817-.973-4.54-1.006-6.746.422-6.26 1.297-13.62 1.265-15.534-4.865-4.865 3.275-6.712 4.346-3.275v2.205c-1.978 6.973-2.886 11.87-3.21 19.004.13.033.26.065.42.13 2.855-2.043 5.708-5.383 9.47-5.19v1.04c-1.2.81-2.367 1.62-3.534 2.43-3.308 3.114-5.578 5.58-6.032 5.806-.585.033-1.168.065-1.72.13z"/>
    <path d="M55.126 70.097c-.13-.356-.227-.713-.324-1.07 0-16.215 0-16.215-.228-23.35-.907-1.654-.875-1.686 0-3.048.194-6.422.52-12.746 1.103-18.875h1.037c1.006 4.767.455 9.73.487 14.756l.293.1c2.173-2.174 3.567-5.093 5.708-7.233 3.082-4.507 6.714-9.048 8.01-14.27 0-6.42-4.344-5.026-8.722-3.988-5.19 1.75-11.642 5.382-15.08 9.5-1.49.876-2.95 1.752-4.41 2.627-1.784 2.14-3.146 3.633-5.903 3.633-.162-2.757 3.697-4.28 4.41-6.778.423-.13.423-.13 8.433-6.42 5.643-3.438 13.977-7.784 20.787-4.736 2.756 2.303 2.53 4.12 2.237 7.945-1.752 4.314-1.752 4.314-2.173 6.034-1.33 2.237-4.963 7.134-6.714 9.793-1.98 1.85-2.66 4.8-4.865 6.55-.745 1.168-.842 2.044-1.426 3.18-1.297.356-1.135.226-1.49 1.458 0 16.636-.196 17.934 0 23.123-.325.518-.584.842-1.168 1.07z"/>
    <path d="M80.422 69.903c-.325-.422-3.762-8.173-4.216-9.73C75.104 58 74 55.828 72.93 53.655c-.162 0-.29 0-.42.032 0 2.238 1.977 13.1-2.757 12.81-1.168-1.168-1.038-3.6-1.135-4.865.097-2.984-.39-13.945 1.848-16.96 1.103-.26 2.984-1.104 3.795.55.163 4.865.358 12.195 4.28 16.12 1.072-.52.91-6.195.91-7.492 2.237-16.96 7.2-31.685 14.723-46.764C94.56 6.73 95.47 4.72 96.766 3c.584 0 .584 0 .876.292-1.784 3.535-2.205 3.924-5.675 10.832-3.795 9.177-6.648 17.706-9.08 27.5-1.265 8.108-3.86 18.777-1.07 26.95 0 1.135-.487 1.167-1.395 1.33z"/>
    <path d="M107.24 69.903c-.128-.162-.258-.292-.356-.422.52-7.23 1.135-14.398 1.297-21.435-.84-.195-1.814.52-2.755.52-1.2-1.363 2.368-3.406 3.21-3.99.488-3.21 4.834-19.815.358-21.307-3.502 1.784-6.973 3.437-10.118 5.837-.747 0-.747 0-1.233-.227 0-2.498 4.25-5.027 6.324-6.26 2.82-.42 5.415-1.523 8.107-3.113.778-1.816 1.006-3.73 1.33-5.48 2.107-1.395 2.27 1.75 2.724 3.405.39-.065.81-.13 1.233-.194 9.405-3.99 19.068-7.102 29.22-8.756-.066.227-.098.454-.13.714-3.34 1.59-7.395 2.302-10.67 3.924-7.297.714-13.394 4.216-18.518 9.015-.455 2.53-1.88 5.092-2.595 7.783l-.194 4.086c-.52 2.53-1.687 5.222-1.492 7.978 1.168.39 4.606-2.14 7.297-2.01.226.26.226.26.226 1.654-.81.81-2.562 1.07-3.534 1.33-2.077 1.038-3.57 2.043-5.32 3.373.033 1.913.195 2.075.195 2.886-2.984 2.497-1.038 11.156-3.21 15.5-.456 2.37-.456 2.37-.682 4.8-.258.13-.485.26-.712.39z"/>
    <path d="M148.88 48.402c-.065 2.66.195 8.658-1.945 10.378 0 3.535.26 7.232.39 11.09-.714.942-3.017 2.66-2.045 3.925.39-.065.78-.13 1.168-.162.226-.713 1.297-1.945 2.205-3.535 4.54-4.96 9.21-11.415 10.767-17.934 0-6.843-6.064-6.032-10.54-3.762zm.973 18.063l-.68.194c.324-4.54.55-5.19 1.393-16.443 1.2-2.66 5.546-2.172 7.135.227.877 4.963-4.57 12.746-7.847 16.02z"/>
    <path d="M64.012 65.784c-2.465-1.85-.745-10.248-.584-12.583 1.298-9.923 1.298-9.923 1.557-10.442h.584c2.95 2.95.874 10.184.258 14.172-.098 2.756-.195 5.513-.26 8.27-.68.455-.68.455-1.556.584z"/>
    <path d="M133.444 47.98c-5.286-3.794-7.458 4.735-8.366 8.497 0 3.242-.585 4.994 3.34 5.837l.875-.097c3.47-2.854 7.232-10.248 4.15-14.237zm-3.696 11.61c-.455.033-.908.065-1.33.13-1.038-2.822.162-6.648.52-9.307.745-1.46.583-1.36 2.367-1.36 2.237 3.986.518 6.678-1.557 10.537z"/>
    <path d="M147.68 8.934c-.064-.13-.13-.26-.16-.356.486-.65 1.037-.52 1.945-.616v.39c-.617.193-1.2.388-1.784.582z"/>
</svg>
