<svg xmlns="http://www.w3.org/2000/svg" viewBox="0 0 200 115">
  <path d="M89.504 113.6c-.26-.26-.524-.524-.74-.784-2.232-4.917-4.455-9.777-6.51-14.64-.2-1.05-.615-2.02-1.192-2.874-2.547-6.256-4.76-12.53-6.3-18.946-.433-.393-.433-.393-1-.393-3.71 4.317-3.403 11.077-3.664 16.79-1.526.874-1.744.654-2.878-.044.218-11.04.35-22.16 2.617-32.63.305-.44.61-.87.914-1.27 5.11 0 5.76 4.49 5.72 9.33 2.75 0 22.11-17.01 21.24-11.73-6.11 4.49-15.18 9.28-19.15 15.91 0 13.34 5.98 25.86 11.08 38.33.7.92.83 1 .83 2.75-.35.04-.65.08-.96.17z"/>
  <path d="M138.918 100.516c-4.58-4.58 1.657-16.267-.437-17.927-1.35-8.11-3-15.62-.87-23.21 4.84 0 4.76 3.79 5.5 8.24-.43 3.49-2.4 5.23-2.26 9.59.18.04.35.13.53.22 1.13-1.66 1.13-1.66 2.92-5.15 1.01-4.62 6.59-8.2 7.9-12.91.39-.22.83-.44 1.27-.66 7.98-8.68 16.36-16.44 25.43-23.94.65-1.71 5.58-4.15 7.54-6.11 2.84-1.83 7.07-5.89 11.04-5.63.31.39.31.39.31 1.96-5.19.57-11.163 5.71-15.262 8.81-5.845 5.41-14.524 10.77-19.15 17.09-7.72 7.11-14.434 16.31-19.054 25.77-1.4 4.19-.87 4.75-.87 9.29-1.83 4.53-1.61 8.15-1.74 13.39-.26.3-.48.61-.7.96-.696.04-1.39.09-2.046.17z"/>
  <path d="M107.822 97.333c-2.442-2.444-1.31-6.106-1.353-9.072.56-8.41 1.74-18.31 1.7-20.89-6.55-6.54 4.4-9.02 5.84-4.4v2.97c-2.66 9.38-3.88 15.97-4.32 25.56.17.05.35.09.56.18 3.84-2.74 7.67-7.24 12.73-6.98v1.4c-1.62 1.09-3.19 2.18-4.76 3.27-4.45 4.19-7.5 7.51-8.12 7.81-.79.05-1.57.09-2.31.18z"/>
  <path d="M27.835 92.665c-.175-.48-.305-.96-.436-1.44 0-21.805 0-21.805-.31-31.4-1.22-2.225-1.18-2.268 0-4.1.26-8.636.7-17.14 1.48-25.384h1.39c1.35 6.42.61 13.09.65 19.85l.39.14c2.92-2.92 4.79-6.85 7.67-9.72 4.14-6.06 9.03-12.17 10.77-19.19 0-8.63-5.85-6.76-11.73-5.36-6.98 2.36-15.66 7.24-20.28 12.78-2.01 1.18-3.97 2.36-5.93 3.54-2.4 2.88-4.24 4.89-7.94 4.89-.22-3.71 4.97-5.75 5.93-9.11.57-.17.57-.17 11.34-8.63 7.59-4.624 18.79-10.47 27.95-6.37 3.7 3.098 3.4 5.54 3.01 10.686-2.36 5.8-2.36 5.8-2.93 8.116-1.79 3.01-6.68 9.595-9.03 13.17-2.66 2.49-3.58 6.456-6.54 8.81-1 1.57-1.13 2.75-1.92 4.277-1.75.48-1.53.31-2.01 1.97 0 22.37-.26 24.115 0 31.093-.43.696-.78 1.13-1.57 1.44v-.01z"/>
  <path d="M61.854 92.404c-.437-.568-5.06-10.99-5.67-13.085-1.482-2.93-2.967-5.85-4.406-8.77-.218 0-.39 0-.565.04 0 3.01 2.66 17.61-3.708 17.22-1.57-1.57-1.396-4.84-1.526-6.55.13-4.02-.53-18.76 2.48-22.81 1.48-.35 4.01-1.49 5.1.74.22 6.54.48 16.4 5.75 21.68 1.44-.7 1.22-8.33 1.22-10.08 3.01-22.8 9.69-42.6 19.81-62.88.52-.48 1.74-3.18 3.48-5.5.78 0 .78 0 1.18.39-2.4 4.75-2.97 5.27-7.63 14.56-5.11 12.34-8.94 23.81-12.21 36.98-1.71 10.9-5.2 25.25-1.44 36.24 0 1.52-.66 1.57-1.88 1.79z"/>
  <path d="M97.92 92.404c-.172-.218-.347-.393-.48-.568.7-9.723 1.527-19.363 1.745-28.826-1.13-.262-2.44.7-3.705.7-1.614-1.834 3.185-4.58 4.317-5.367.656-4.317 6.5-26.648.48-28.654-4.71 2.39-9.376 4.62-13.606 7.85-1 0-1 0-1.65-.31 0-3.36 5.72-6.76 8.51-8.42 3.79-.57 7.28-2.05 10.91-4.19 1.05-2.45 1.36-5.02 1.79-7.37 2.84-1.88 3.06 2.35 3.67 4.58.53-.09 1.09-.18 1.66-.26 12.65-5.37 25.65-9.55 39.3-11.78-.09.3-.13.61-.17.96-4.49 2.13-9.94 3.09-14.35 5.27-9.81.96-18.01 5.67-24.9 12.12-.61 3.4-2.52 6.84-3.49 10.46l-.26 5.5c-.7 3.4-2.27 7.02-2 10.73 1.57.52 6.2-2.88 9.82-2.71.3.35.3.35.3 2.22-1.09 1.09-3.443 1.44-4.75 1.79-2.8 1.39-4.8 2.74-7.16 4.53.046 2.57.26 2.79.26 3.88-4.01 3.36-1.393 15-4.314 20.84-.61 3.185-.61 3.185-.914 6.453-.346.174-.65.35-.96.523z"/>
  <path d="M153.918 63.49c-.087 3.576.262 11.642-2.616 13.956 0 4.754.35 9.726.524 14.914-.96 1.267-4.057 3.577-2.75 5.278.524-.087 1.05-.175 1.57-.218.305-.96 1.745-2.616 2.966-4.754 6.105-6.67 12.386-15.35 14.48-24.118 0-9.202-8.154-8.11-14.174-5.06zm1.31 24.29l-.915.262c.436-6.106.74-6.98 1.873-22.113 1.614-3.58 7.458-2.93 9.595.3 1.18 6.67-6.14 17.14-10.55 21.54z"/>
  <path d="M39.785 86.865c-3.315-2.488-1-13.782-.785-16.922 1.746-13.345 1.746-13.345 2.094-14.043h.785c3.96 3.967 1.17 13.696.34 19.06-.13 3.705-.26 7.413-.35 11.12-.92.613-.92.613-2.1.786z"/>
  <path d="M133.16 62.922c-7.11-5.102-10.03 6.368-11.252 11.427 0 4.36-.787 6.71 4.492 7.85l1.177-.13c4.667-3.84 9.726-13.79 5.58-19.15h.002zm-4.97 15.613c-.613.044-1.222.087-1.79.175-1.396-3.795.218-8.94.7-12.516 1-1.963.783-1.83 3.182-1.83 3.01 5.36.697 8.982-2.093 14.17z"/>
  <path d="M152.304 10.412c-.086-.175-.175-.35-.215-.48.65-.873 1.39-.698 2.61-.827v.524c-.83.26-1.62.52-2.4.78z"/>
</svg>
