<svg xmlns="http://www.w3.org/2000/svg" viewBox="0 0 200 102">
  <path d="M198.954 98.113v-.006c-2.098-9.393-5.503-18.446-10.116-26.893l-.06-.06c-1.632-1.633-3.017-3.496-4.112-5.53l-.02-.002c-1.307-1.668-2.416-3.483-3.303-5.408l.043.094c-.312-.878-1.024-1.554-1.917-1.82l.028.004c-1.285-.18-2.605-.193-3.893-.04h-.087c-3.29-.023-6.54-.728-9.545-2.068l.015.008-.06-.027.045.02c-1.576-.72-2.653-2.218-2.83-3.942l-.056-.37-.03-.21v.012l-.05-.35c.015.114.032.226.05.34-.067-.43-.107-.865-.12-1.3l-.002.01v-.03.02c-.012-.362.053-.722.194-1.055v-.003.003c.136-.247.382-.417.663-.456.456-.02.91.073 1.32.268l-.006-.003c.295.125.6.227.91.306h.006c.17.045.346.05.518.02h.004c.102-.033.178-.118.198-.223.01-.136-.008-.273-.057-.4-.066-.182-.145-.357-.237-.527-.244-.436-.504-.863-.78-1.28l-.098-.15c-.195-.3-.387-.603-.574-.91l.002.003c-1.557-2.604-2.78-5.39-3.644-8.298l.037.123-3.077-10.26 12.335 4.36 6.773 3.89-4.94-14.658-16.455-.84-1.622-9.426c-.065-.345-.14-.69-.23-1.03l-.024-.084c-.103-.383-.188-.77-.26-1.16.002.004 0 .01.002.014l-.008-.045.007.03c-.057-.29-.048-.592.03-.88v-.002.003c.068-.16.21-.277.38-.314.208-.03.42-.016.623.043l-.023-.006c1.616.425 3.28.648 4.95.66h.025c8.094-.348 16.043 2.21 22.416 7.213L178.23 1.94l-39.81.18 6.224 12.302c1.03 2.606 1.792 5.31 2.274 8.07.74 2.623 1.086 5.34 1.03 8.065v-.01V30.558c-.185 1.04-.248 2.098-.186 3.153v.014c.07.37.243.715.5.992v.002c1.213 1.358 1.94 3.078 2.07 4.894.382 4.522.255 9.072-.378 13.566l.01-.07 13.967 8.345 3.102 2.458-.005-.004c.666.6 1.463 1.036 2.327 1.274l.005.002c.605.074 1.207-.18 1.58-.666l.004-.007c.242-.31.63-.466 1.02-.41.438.12.84.348 1.17.66.382.348.738.725 1.065 1.126l.098.12c.125.14.16.34.09.513-.128.2-.293.37-.486.506l.005-.004c-.192.135-.356.305-.484.5l-.002.004-.03.076c-.05.193-.05.396 0 .588.146.42.383.8.692 1.12.373.396.766.772 1.178 1.127l.014.012c.292.254.58.513.866.777 7.855 7.326 14.636 15.723 20.142 24.946.61.995 1.15 2.03 1.62 3.098.077.208.21.39.384.53.09.05.195.05.284.002.093-.062.168-.147.22-.246.067-.13.12-.268.152-.41.073-.34.078-.69.012-1.033zM183.36 72.44v-.003c-.018.13-.094.248-.208.315-.06.03-.12.053-.184.066h-.003c-.078.017-.157.023-.235.02-.36-.054-.695-.207-.97-.442l-.012-.01c-.483-.356-.943-.744-1.377-1.16.003.002.004.004.005.006l-.01-.01.005.006c-.19-.167-.36-.36-.5-.57v-.002c-.115-.17-.2-.362-.25-.562v.002c-.17-.762-.364-1.52-.58-2.27l-.006-.01c-.13-.33-.244-.666-.34-1.007l-.004-.01c0 .003.003.006.004.01v-.232c.01-.117.095-.213.21-.235.047-.005.096.003.14.023h.002c.096.046.187.104.27.17l-.03-.026c.333.328.688.632 1.062.912l.04.027c1.525.805 2.564 2.304 2.783 4.015v-.008c.144.306.207.643.186.98l.003.004z"/>
  <path d="M141.104 41.015c-.4-1-.657-2.05-.764-3.123l.007.067c-.056-.57-.156-1.132-.297-1.685l-.007-.026-3.752-14.568-9.775-.258.022.003c-1.303-.202-2.645-.127-3.917.218h-.002c-.207.066-.396.18-.55.333-.053.073-.063.17-.026.25.056.1.133.183.226.247.13.093.267.176.41.25.376.186.757.364 1.143.53l.027.01c.442.192.872.41 1.286.656 5.046 3.208 7.454 9.294 5.968 15.086l-.19-.06c-2.64-.59-5.236-1.372-7.767-2.334l.02.01-.163-.062.143.052c-1.648-.7-2.964-2.008-3.672-3.653l-.203-.495c-1.07-2.6-2.066-5.227-3-7.878.007.057.016.113.022.17l-.2-.656c.058.164.12.324.178.487-.302-2.815-.823-5.603-1.565-8.335l-.034-.124-.602-2.214v-.002c-.005-.018-.01-.036-.01-.055v.002l-.78-5.34c7.023-1.074 14.2.187 20.436 3.59l4.405 2.644c.162.095.332.175.508.24h.003c.113.04.232.06.35.056h.002c.12-.012.224-.088.273-.198.07-.296.06-.605-.028-.896-.104-.425-.227-.845-.37-1.26l-.08-.242c-.07-.207-.136-.415-.202-.623l.046.146-.066-.21.02.065-3.234-10.178-36.46.23c-.843.013-1.684.076-2.52.19-.36.05-.715.122-1.066.214-.126.035-.25.08-.368.132-.08.035-.153.085-.214.147-.047.055-.05.136-.006.194.075.083.168.148.272.19.188.084.38.153.58.207h.004c1.2.346 2.197 1.185 2.742 2.308l-.008-.025c.382 1.14.858 2.246 1.424 3.306l.012.023 5.205 8.26 3.31 12.407c1.08 4.067 1.487 8.283 1.203 12.482l.003-.046 21.063 4.202 14.795 5.315-4.188-10.34-.018-.035z"/>
  <path d="M104.194 34.59l.044.102-3.81-7.144-9.325-25.49-6.168-.11c-1.537.085-3.02.6-4.28 1.482l-.006.003c-.35.204-.76.276-1.157.203l-.013-.002c-.5-.13-.98-.327-1.428-.588l.036.02c-.494-.28-1.013-.516-1.55-.7l-.014-.005c-.322-.096-.658-.142-.998-.135l-6.312.276-.04.002c-.308.005-.617-.002-.924-.022l.068.004c-.31-.02-.622-.027-.947-.022-.123.004-.244.017-.364.04-.088.015-.17.05-.246.098-.092.08-.115.214-.058.322.07.162.17.31.296.433.647.484 1.375.85 2.15 1.076l.01.003c.576.208 1.124.49 1.63.838 1.322 1.016 1.946 2.7 1.603 4.33v.005c-.297 1.403-.993 2.69-2.004 3.706l.006-.005c-.453.456-.845.968-1.165 1.525l-.023.04c-1.697 2.93-3.766 5.63-6.157 8.03l.033-.032c-.487.49-.958.994-1.415 1.512-.758.858-1.503 1.73-2.23 2.614l-.182.223c-3.38 4.107-7.462 7.51-12.066 10.073l.13-.073c4.34 2.038 8.29 4.816 11.676 8.21l.618-4.867.13-1.716v-.005c.065-.428.255-.826.544-1.147l.036-.037c2.492-2.607 5.563-4.636 8.966-5.915l-.206.048c3.295-.742 6.52-1.767 9.64-3.06l.19-.084c.712.28 1.486.36 2.235.232l.015-.002 1.947-.496c1.184-.246 2.41.14 3.24 1.022v-.007c.11-.692.45-1.327.965-1.797.28.296.513.635.687 1.004l-.003-.004c.16.3.364.574.605.814l.002.002c.336.293.8.397 1.227.277l.006-.002c.783-.232 1.63-.023 2.217.545.48.632.847 1.34 1.09 2.094l1.32 3.415c.274.58.59 1.138.945 1.67l.01.013c.29.51.402 1.105.314 1.686v-.002c-.074.794-.022 1.595.155 2.372l.002.008c.026.198.14.373.312.476.283.13.596.182.904.15.32-.025.635-.086.94-.183l.014-.004c.19-.06.386-.096.585-.104l3.096.36c2.347-.127 4.697-.15 7.044-.064l-.07-.086c-1.848-2.26-3.368-4.764-4.52-7.442zm-14.81-15.08v-.003c-.02.08-.077.15-.154.182h-.002c-.107.034-.22.048-.33.04h-.015c-.144-.005-.287-.013-.43-.023h.017c-.206-.013-.412.006-.612.058l-3.302 1.06-.043.014c-.557.176-1.125.314-1.7.413h.004-.007.003c-.53.092-1.07.143-1.608.155l.062-.002c-1.816.043-3.583.586-5.11 1.568l-.03.017c-.362.207-.77.323-1.187.34h.003-.004c-.354.034-.712-.056-1.01-.255-.148-.155-.19-.383-.102-.58.54-1.035 1.188-2.01 1.933-2.91l3.25-5.17-.004.008c.815-1.103 1.288-2.42 1.36-3.79v-.01c.025-.426.177-.835.435-1.175.132-.185.285-.352.457-.498.137-.12.303-.202.48-.24.106-.014.214.01.302.07l.005.005c.32.3.583.653.783 1.043l-.01-.018c.188.33.425.628.703.885l.026.02c1.062.802 1.907 1.856 2.46 3.066l-.003-.007.008.017c0-.003-.002-.006-.004-.01l1.422 3.805c.054.135.148.25.268.33.233.127.478.23.732.307l.016.005c.41.13.737.44.888.84.052.14.07.29.05.44v.002z"/>
  <path d="M45.692 37.232c.106.092.204.194.31.285l-2.354-1.97c.677.568 1.366 1.12 2.044 1.685-1.44-1.248-2.8-2.587-4.06-4.02-.034.016-.067.035-.102.05l.004-.157c.032.036.068.07.1.106 2.316-1.094 4.49-2.468 6.47-4.096l.085-.07L65.69 14.4c-4.077-3.596-8.87-6.292-14.062-7.906l-.088-.027-11.224-3.44-19.118-.285c-.838-.017-1.71.008-2.58.073l-.045.003c-.375.03-.748.086-1.115.167l-.014.003c-.134.032-.265.075-.39.13l-.005.002c-.09.038-.17.094-.237.165-.054.068-.07.157-.04.237.048.1.118.185.204.25.143.114.295.214.456.3h.003c2.294 1.55 4.016 3.806 4.906 6.427 1.71 3.757 2.102 7.98 1.115 11.99l-.18.733c-1.732 6.92-3.802 13.75-6.19 20.47.037-.06.07-.124.107-.186l-.34.863c.08-.225.153-.452.232-.677-1.726 2.894-3.225 5.918-4.475 9.048l-.06.163c-.528 1.917-1.388 3.725-2.543 5.343l.015-.02c-.526.594-.718 1.413-.51 2.18.39.9.92 1.732 1.572 2.465l.022.026c.352.442.674.907.965 1.39l.002.002c.94 1.658 1.297 3.58 1.015 5.476l.003-.004c-.06 1.008-.327 1.993-.783 2.894l.002-.002-.01.02.008-.02c-.4.526-1.057.783-1.705.667h.014c-1.068-.147-2.14.223-2.885.996-.607.776-1.11 1.63-1.49 2.54-1.267 2.617-2.32 5.332-3.152 8.118l-.697 5.622.027-.096c-.66 2.336-1.118 4.724-1.37 7.137l-.012.102c-.05.498-.05 1 0 1.5v.004c.022.208.066.413.128.612v.003c.046.145.123.28.227.392.097.088.233.116.355.075.14-.058.264-.146.365-.258.165-.18.31-.375.44-.583.723-1.29 1.344-2.632 1.852-4.02l.076-.16c.982-1.54 2.09-2.996 3.31-4.354l-.056.063c.687-.956 1.05-2.107 1.035-3.277l-.013-.004c1.172-1 2.16-2.198 2.92-3.54l.024-.04c.63-1.072 1.4-2.054 2.278-2.91l-.02.02c.45-.43.845-.915 1.178-1.44l.023-.038c.475-.806 1.107-1.5 1.866-2.047l-.016.013c.59-.416 1.095-.942 1.487-1.548l.014-.02c.267-.37.638-.658 1.066-.823.06-.02.1-.074.102-.137-.014-.09-.047-.174-.098-.248-.065-.103-.132-.205-.202-.305l-.014-.02c-.142-.184-.24-.398-.287-.625v-.003.003c-.006-.107.033-.21.108-.288v-.003c.258-.303.634-.482 1.033-.49l-.01.002c.675-.045 1.317-.314 1.823-.765.58-.593 1.097-1.245 1.537-1.95l.024-.037c.172-.252.427-.44.72-.527.417-.083.838-.14 1.262-.17h-.005c.22-.017.436-.087.624-.204l.004-.002c.082-.07.127-.175.122-.284-.028-.164-.094-.318-.192-.452-.122-.175-.252-.345-.39-.508l-.06-.07-.17-.21.03.037c-1.243-1.607-1.758-3.66-1.42-5.663l.035-.23c.852-5.358 2.115-10.642 3.776-15.808l-.086.268c.405-1.222.72-2.47.944-3.74l.006-.033c.04-.207.153-.393.317-.526.277-.186.586-.32.912-.395l-.014.002c.195-.05.39-.107.58-.168l.01-.003c.154-.046.3-.12.426-.22l.002-.003c.157-.173.175-.432.042-.625l-.002-.003c-.128-.25-.105-.552.058-.78.343-.36.863-.484 1.33-.32.236.128.365.392.322.66v-.002c-.06.482.126.962.495 1.278.822.448 1.698.79 2.607 1.013l.038.008c2.663 1.13 5.198 2.54 7.564 4.207 1.73.923 3.153 2.332 4.092 4.054.297.773.33 1.623.095 2.418v-.004c-.04.202-.066.407-.076.612-.005.113.014.225.057.33.036.063.102.1.174.1.083-.008.163-.032.236-.07.1-.053.194-.11.285-.176.23-.166.457-.337.68-.513l.06-.047c.257-.204.528-.39.81-.56l9.02-5.093-2.504-2.018c-3.593-2.91-7.158-5.864-10.714-8.828zm-10.258-9.195l.04-.013-.197.084c.053-.022.104-.048.157-.07-.67.29-1.42.32-2.108.076h.002c-.334-.174-.568-.496-.63-.868v-.015c-.113-1.278-.05-2.567.184-3.83l.91-8.106-.077.67.3-2.684.072-.67c-.013-.294-.083-.582-.206-.85l-.01-.03c-.06-.148-.115-.297-.166-.448v.004l-.01-.03.01.025c-.04-.104-.057-.217-.046-.33.01-.044.045-.08.09-.092.084-.01.168 0 .245.03h-.01c.605.127 1.232.002 1.74-.346l.01-.008c.358-.235.748-.417 1.158-.54l.008-.003-.007.004c.147-.027.296-.02.44.02l.07.02c.248.076.493.155.738.237-.02-.005-.04-.014-.06-.02l.07.025c-.003 0-.006-.002-.01-.004.8.222 1.53.645 2.115 1.237l.002.003c.107.147.183.314.224.49l-.003-.008c.085.362.285.686.568.926.912.56 1.93.92 2.99 1.06l.13.025c3 .64 5.925 1.587 8.728 2.83l-.262.108c-5.08 4.622-10.893 8.37-17.196 11.097z"/>
</svg>
