<svg xmlns="http://www.w3.org/2000/svg" viewBox="0 0 200 126">
  <g class="raimundos__symbol">
    <path d="M25.798 100.716H1l5.68 7.1v16.496h7.43v-6.882h1.383l2.986 6.882h7.318l-3.714-8.412 3.714-2.95v-12.234zm-7.32 10.377h-4.44v-3.277h4.44v3.277z"/>
    <path d="M47.24 100.716H30.787l-2.662 2.804v20.792h7.428v-6.882h4.37v6.882h7.32v-23.596zm-7.318 10.377H35.48v-3.277h4.442v3.277z"/>
    <path d="M56.8 100.716h-7.32v23.596h7.32v-23.596z"/>
    <polygon points="104.452 100.752 97.132 100.752 97.132 117.029 92.654 117.029 92.654 100.752 85.334 100.752 85.334 121.562 87.956 124.348 104.452 124.348"/>
    <polygon points="121.602 100.716 121.602 111.3 113.956 100.716 106.636 100.716 106.636 124.312 113.956 124.312 113.956 113.43 121.602 124.312 128.922 124.312 128.922 100.716"/>
    <path d="M150.333 103.337l-2.676-2.622h-16.44v23.596H147.656l2.676-2.876v-18.097zm-7.32 4.698v8.958h-4.478v-8.958h4.48z"/>
    <path d="M171.854 100.716h-19.117v23.596H171.854v-23.596zm-7.32 7.32v8.957h-4.48v-8.958h4.48z"/>
    <polygon points="193.374 108.035 199 100.716 177.152 100.716 174.257 103.501 174.257 115.299 186.055 115.299 186.055 116.993 174.257 116.993 174.257 121.544 177.097 124.312 190.698 124.312 193.374 121.526 193.374 109.4 181.576 109.4 181.576 108.035"/>
    <polygon points="75.503 100.716 71.133 107.816 66.545 100.716 59.226 100.716 59.226 124.312 66.545 124.312 66.545 114.658 70.969 120.215 75.503 114.874 75.503 124.312 82.822 124.312 82.822 100.716"/>
  </g>

  <g class="raimundos__lettering">
    <path d="M100.155 1.652c-25.32 0-45.845 20.525-45.845 45.845s20.525 45.845 45.845 45.845S146 72.817 146 47.497 125.474 1.652 100.155 1.652zm0 89.47c-24.093 0-43.625-19.532-43.625-43.625S76.06 3.872 100.155 3.872s43.625 19.532 43.625 43.625-19.532 43.625-43.625 43.625z"/>
    <path d="M93.786 35.715h12.872c2.92 0 5.094 1.75 5.094 5.354-.43 5.2-4.825 7.355-8.794 7.9 2.422 1.084 3.813 7.99 5.016 10.494h-5.562c-1.812-3.428-2.658-9.49-5.303-9.977l-1.8-.005-2.718 9.982h-5.605l6.8-23.75zm2.64 10.094h5.616c1.827 0 3.91-1.87 3.91-3.7 0-1.303-.93-2.217-1.828-2.217h-5.98l-1.718 5.916z"/>
    <path d="M100.155 8.456c-21.562 0-39.04 17.48-39.04 39.04s17.478 39.042 39.04 39.042 39.04-17.48 39.04-39.04-17.48-39.042-39.04-39.042zm15.815 71.42l12.66-47.24h-2.87c-.624 2.45-8.68 34.05-9.722 37.512-.13.43-.255.88-.385 1.346-1.135 4.073-2.897 9.86-10.467 11.68-1.644.23-3.323.35-5.03.35-10.3 0-19.588-4.32-26.154-11.25h33.837l-2.523 10.277c7.332-1.76 8.784-6.952 9.958-11.163.13-.468.257-.92.387-1.354.134-.444.384-1.355.72-2.608-.786 1.43-1.875 2.134-3.3 2.134h-36.65c-3.42 0-6.36-2.022-8.293-5.53-2.564-4.95-4.012-10.573-4.012-16.534 0-13.946 7.924-26.04 19.514-32.028L71.86 62.378h2.51c.64-2.412 8.867-33.402 10.258-38.756 1.4-5.388 4.493-10.36 9.81-11.702 1.863-.297 3.773-.454 5.72-.454 10.28 0 19.554 4.306 26.118 11.213h-33.73l2.59-10.546c-5.13.86-8.702 6.094-10.128 11.586-.18.695-.478 1.83-.86 3.284.93-1.085 2.148-1.536 3.956-1.536h35.977c2.833 0 5.983 2.147 7.902 5.127 2.682 5.04 4.204 10.792 4.204 16.9-.002 14.226-8.246 26.524-20.216 32.38z"/>
    <path d="M124.08 25.863H88.1c-2.31 0-3.355.786-4.433 2.948-2.92 11.067-8.993 33.935-8.993 33.935h-6.8c1.832 4.05 4.945 6.42 8.555 6.42h36.65c1.837 0 3.36-1.957 4.078-4.687 2.78-10.582 8.296-32.247 8.296-32.247h6.812c-1.72-3.857-5.425-6.367-8.19-6.367zm-7.063 9.763c-.44 1.7-4.072 16.243-5.816 23.23-.75 3.01-1.8 3.72-4.345 3.72H85.19c-2.037 0-2.58-.728-2.09-2.637 1.727-6.735 6.19-24.105 6.494-25.106.663-2.18 1.34-2.613 3.11-2.613H114.8c2.484 0 2.8 1.158 2.217 3.406z"/>
  </g>
</svg>
