<svg xmlns="http://www.w3.org/2000/svg" width="200" height="200" viewBox="0 0 200 200">
	<path d="M6.5 50.79h103.342v54.13l16.24 44.29H71.95l-11.318-31.003v31.003H6.5v-44.29h9.842v34.448H50.79V100h13.778l14.27 39.368h33.956L100 104.92V60.633H16.342V95.08H6.5V50.79zM50.79 40.947V6.5h44.288v9.842H60.632v24.605H50.79zM104.92 6.5h44.29v44.29h44.29v44.288h-9.842V60.632h-44.29v-44.29h-34.446V6.5zM183.658 104.92h9.842v44.29h-44.29v44.29h-44.288v-9.842h34.447v-44.29h44.288v-34.447zM95.08 183.658v9.842H50.79v-34.447h9.84v24.605h34.45z"/>
</svg>
