<svg xmlns="http://www.w3.org/2000/svg" viewBox="0 0 200 23.333">
	<path d="M177.47 3.612v16.866h7.81v-8.54h.725l2.707 8.54h8.12V3.612h-1.56v10.88L191.42 3.61h-13.95zm-175.547 0v16.866h8.233v-7.7H11.3l2.708 7.7h7.778l-2.48-7.5V3.612H1.922zm21.22 0H36.68l5.908 16.866h-7.778l-3.43-8.047v8.048h-8.234V3.612zm21.365 0v16.866h7.813v-8.87l3.016 8.87h8.64l2.925-8.793v8.793h8.22V3.612H67l-4.27 12.34-4.272-12.34h-13.95zm32.79 0v16.866h7.812v-8.87l3.015 8.87h8.64l2.925-8.793v8.793h8.22V3.612h-8.12l-4.27 12.34-4.27-12.34H77.297zm31.875 9.89v6.975h18.12V13.6l-11.45-3.43h11.45V3.612h-18.12v6.46l10.875 3.43h-10.875zm23.45 2.503v4.472h8.324v-4.472h4.472V7.668h-4.473V3.612h-8.325v4.056h-4.07v8.337h4.07zm14.004-12.393v16.866h18.54v-6.56h-10.203v-1.244h4.79l3.734-.94v-.318h-8.524V9.75h10.203V3.612h-18.54zm20.635 0v16.866h7.717V3.612h-7.718z"/>
</svg>
