<svg xmlns="http://www.w3.org/2000/svg" viewBox="0 0 200 42">
  <path d="M196.777 10.97c-2.324.93-4.873 1.633-7.158 2.602-.994-.536-1.012-2.086-2.604-2.928-1.747-.924-5.387-.775-5.53 1.464-.184 2.848 3.74 2.76 5.53 3.253 6.19 1.706 11.374 4.104 10.574 12.69-.665 7.14-7.828 10.705-14.64 10.248-4.658-.312-8.323-2.58-10.412-6.02v5.532h-22.45V2.998h22.45v7.97h-13.502v5.044h10.9v7.808h-10.9v5.53c3.742.38 8.188.055 12.2.164.423-.33-.61-1.435-.163-1.79 2.697-.664 5.59-1.132 8.296-1.788.38 1.05.834 2.592 2.114 3.416 1.78 1.147 6.44 1.376 6.832-.976.44-2.64-2.746-2.976-5.043-3.58-2.894-.758-6.724-2.013-8.46-3.903-4.063-4.427-2.567-12.475 1.302-15.78 1.788-1.525 4.133-2.38 6.67-2.602 7.225-.636 12.18 2.344 13.992 8.46z"/>
  <path d="M130.244 2.998c3.303 6.403 7.222 12.19 9.923 19.195-.457-5.454-.592-12.64-.488-19.195h7.482V37.81h-7.483c-3.595-7.468-8.11-14.014-11.063-22.123.644 6.08.64 15.083.325 22.123h-7.32c.108-11.55-.217-23.533.163-34.812h8.46z"/>
  <path d="M103.728 2.672c11.716-1.408 17.005 8.233 16.105 19.52-.48 6.016-2.85 11.646-7.158 14.316-4.038 2.503-10.01 2.33-13.827 0-6.186-3.776-8.997-14.472-6.344-23.425C94 8.036 97.687 3.398 103.728 2.673zm-2.277 15.29c-.372 5.568.24 12.553 4.393 12.527 4.286-.028 4.594-7.473 4.23-13.34-.242-3.898-1.493-7.4-4.88-6.67-2.738.59-3.518 4.14-3.742 7.483z"/>
  <path d="M69.405 2.998c1.405 6.132 2.956 12.118 4.23 18.382 1.66-5.876 2.85-12.223 4.23-18.382H89.9V37.81h-8.46V13.084c-1.976 8.11-3.75 16.42-5.53 24.726h-5.856c-1.76-8.272-3.84-16.223-5.53-24.564-.38 7.863-.055 16.43-.164 24.564H57.53c.11-11.55-.217-23.533.163-34.812h11.712z"/>
  <path d="M23.693 22.68c1.6 4.908 3.45 9.564 5.043 14.48 3.224-11.2 6.172-22.676 9.11-34.162h9.76c3.062 11.633 6.27 23.12 9.272 34.812h-9.272c-.465-2.355-1.162-4.477-1.627-6.832h-7.972c-.862 2.066-1.202 4.654-1.952 6.832H18.813c-1.258-4.6-2.93-8.783-4.23-13.34h-2.928v13.34h-9.11c.11-11.55-.216-23.534.164-34.812 7.928.617 18.562-1.775 23.26 2.602 2.685 2.5 4.352 9.163 1.628 13.665-.904 1.493-2.434 2.194-3.905 3.416zm-4.88-6.83c1.012-1.376.64-3.13.325-3.905-.872-2.156-5.136-1.563-7.483-1.627v6.67c2.944-.112 5.982.458 7.158-1.14zm20.66 7.482h4.88c-.933-3.242-1.4-6.952-2.603-9.923-.614 3.45-1.575 6.557-2.277 9.922z"/>
</svg>
