<!--
  SVG Music Logos
  Savatage - Power of the Night v1.0.0
  https://github.com/tiagoporto/svg-music-logos
  Copyright (c) 2016-2018 Tiago Porto (http://tiagoporto.com)
-->
<svg xmlns="http://www.w3.org/2000/svg" viewBox="0 0 200 93.5">
  <path d="M172.876 28.738l3.75-9.106c2.264-3.153 4.714-6.213 7.5-9.106 3.722 1.868 8.097 3.475 13.123 4.82-2.57 2.28-4.92 4.692-6.97 7.232-1.88.106-3.95.31-5.82.22 1.34-1.428 2.87-3.345 4.21-4.773-.808-.18-1.61-.357-2.41-.536l-4.558 4.55-1.34 4.82c4.885-.75 8.75-2.26 13.393-4.55l1.607 4.55c-1.784.73-3.57 1.98-5.355 3.75-1.368-.66-2.927-.94-4.554-1.07-1.88 1.43-4.025 2.85-6.428 4.28-2.444-1.18-4.498-2.87-6.16-5.09z"/>
  <path d="M100.51 24.66c10.408-4.406 21.068-7.623 31.99-9.212-3.86 7.543-7.236 15.564-9.56 23.668-1.24 1.178-2.632 2.045-4.18 2.603l-.262-3.94c-1.31.52-3.848 1.35-5.16 1.88-.524 1.4.177 2.49-.347 3.89l-6.29 1.83c1.74-3.42 3.74-7.3 6.3-9.497 1.49-.175 2.976.492 4.46.32l1.31-5.77c-2.36-.788-4.26-1.27-6.62-2.056-6.023 5.962-10.843 12.286-12.78 19.884 1.28 1.806 3.377 3.204 6.29 4.195 2.536-1.94 5.07-3.59 7.605-4.72l3.147 1.573 4.8-3.15c-1.33 6.472-1.882 12.925-1.372 19.16 7.092-21.576 16.583-44.054 23.045-50.89 4.17-.195 8.372-.14 12.615.184 3.22-5.326 6.44-9.41 9.657-12.26-7.94 1.763-15.724 3.53-23 5.33l-2.817-4.4c-1.196 1.952-2.38 3.96-3.537 6.02-17.606 4.624-31.28 9.55-35.28 15.34z"/>
  <path d="M150.03 22.69c-2.36-.788-4.263-.954-6.623-1.74-6.023 5.964-9.766 11.52-11.704 19.118 1.28 1.807 3.38 3.52 6.293 4.512 2.535-1.942 4.467-3.14 7.002-4.268 1.05.525 2.098 1.05 3.147 1.573 1.79-1.842 3.75-3.514 6.222-4.673.798 1.097 1.875 2.207 3.23 3.33 1.683-1.37 3.368-2.737 5.052-4.106L159.8 49.7c-5.922 3.77-11.185 8.19-16.265 12.797 7.4-3.97 15.126-7.136 23.37-9-.08-8.427 2.376-17.186 5.468-26.14l-6.66-.328c-.222 1.08-.407 2.17-.545 3.25-1.658 1.13-3.606 1.97-5.685 2.68 1-4.21 3.474-7.79 7.422-10.738-.325 1.142-.627 2.285-.892 3.43l6.513-.253c.8-2.207 1.67-4.426 2.59-6.653-3.05-1.16-6.42-2-9.63-2.21-4.04 2.98-7.255 5.77-10.58 10.896-1.7 1.888-2.44 3.818-2.23 5.792-.69.425-1.414.78-2.18 1.052l-.26-3.932c-1.31.525-3.848 1.356-5.16 1.88-.524 1.4.18 2.49-.347 3.89-2.1.61-4.2 1.224-6.3 1.836 1.74-3.42 3.74-7.033 6.295-9.23 1.486-.174 2.5-.09 3.984-.265l1.31-5.77z"/>
  <path d="M4.25 91.198C23.17 80.585 42.65 70.715 63.672 62.9l-.19-8.677c-5.218-6.414-10.318-12.446-15.537-18.86 2.294-1.4 7.515-4.922 16.48-6.04l4.34 4.904c2.667-1.393 5.523-3.196 9.713-3.304-1.884-4.95-3.125-9.28-3.866-14.99-17.048 3.325-35.178 8.836-52.288 16.784 9.002 6.21 18.572 13.667 23.99 24.336C28.784 68.873 16.166 80.08 4.25 91.198z"/>
  <path d="M88.66 56.927c-.21-1-.42-2-.633-3l-6.97 4.573-3.148-1.573c-2.54 1.128-5.07 2.778-7.61 4.72-2.92-.99-5.02-2.39-6.3-4.196 1.94-7.59 6.76-13.92 12.78-19.88 2.36.79 4.263 1.27 6.623 2.06l-1.31 5.77c-1.487.177-2.973.045-4.46.22-2.556 2.196-4.55 5.54-6.29 8.96l6.29-1.834c.526-1.4-.176-2.49.35-3.89 1.31-.524 3.85-1.354 5.16-1.88l.26 3.934c1.29-.466 2.47-1.144 3.542-2.036l-2.23-10.553h5.244c.876 3.67 1.75 7.34 2.624 11.01 2.36-6.38 4.37-12.76 6.03-19.14l6.032 3.41-9.965 21.24-6.03 2.097z"/>
</svg>
