<svg xmlns="http://www.w3.org/2000/svg" viewBox="0 0 200 174">
    <path d="M85.618 52.304l1.042.915.512.48.5.5.493.52.492.56.472.58.46.61.44.65.44.69.41.74.4.78.39.82.37.88.35.92.33.99.1.41.15.35.19.31.21.24.24.19.25.12.27.07.26.01.26-.07.25-.13.23-.2.21-.27.17-.35.14-.43.1-.51.05-.58v-.33l-.05-.36-.19-.75-.32-.83-.44-.86-.54-.89-.63-.9-.71-.88-.76-.84-.8-.79-.85-.72-.86-.63-.87-.52-.85-.39-.42-.13-.41-.1-.4-.06-.4-.02-.38.04-.37.09z"/>
    <path d="M93.75 74.01l.146-.423.107-.164.115-.155.136-.125.154-.096.328-.136.377-.04.395.03.405.1.405.16.242.2.173.23.154.27.107.32.067.35.02.4-.02.43-.08.47-.03.24.06.16.12.12.14.1.13.13.1.18.03.28-.07.41-.54 1.47-.08.26-.08.2-.09.15-.09.1-.11.07-.14.04-.29.02-.34.02-.36.07-.18.07-.19.12-.2.16-.2.22-.32.23-.31.15-.31.08-.29.01-.28-.05-.27-.14-.25-.21-.25-.29-.15-.2-.12-.2-.09-.21-.06-.22-.02-.22.02-.23.08-.24.13-.25.28-.36.26-.4.24-.46.23-.51.21-.56.19-.62.33-1.39z"/>
    <path d="M99.994 58.372l.223-.213.24-.15.242-.09.26-.02.26.04.28.09.28.16.29.23.29.25.28.2.29.15.31.08.33.02.37-.04.42-.13.49-.22.29-.13.32-.1.33-.07.35-.03h.36l.38.03.8.15.84.26.86.36.86.46.86.53.84.61.8.66.76.73.69.77.63.8.53.84.43.85.32.86-.58-.61-.57-.55-.57-.5-.56-.45-.56-.4-.54-.35-.54-.3-.52-.25-.52-.21-.49-.17-.47-.11-.47-.07-.44-.03h-.41l-.4.05-.36.08-.34.12-.3.15-.27.19-.24.22-.21.26-.16.29-.14.32-.09.34-.06.38v.41l.04.43.07.45.14.48.18.5.23.52.29.54.4.36.32.34.22.34.13.33.03.32-.08.29-.18.3-.14.14-.17.13-.25.18-.21.18-.16.18-.14.2-.2.39-.13.38-.11.35-.15.32-.1.14-.12.13-.16.1-.19.08-.51.17-.51.1-.5.01-.45-.07-.39-.17-.16-.12-.15-.13-.12-.16-.08-.18-.06-.22-.01-.23-.05-.54-.09-.48-.1-.44-.12-.39-.33-.65-.37-.57-.33-.62-.28-.67-.24-.74-.21-.79-.17-.86-.13-.92-.09-.98-.05-1.04.05-.5v-.43l-.06-.35-.1-.3-.12-.25-.15-.21-.3-.34-.13-.16-.11-.15-.08-.18-.04-.19.03-.22.09-.27.16-.33.25-.39z"/>
    <path d="M120.632 67.71l-.125.83-.194.83-.144.426-.2.424-.23.434-.3.434-.37.444-.44.444-.51.463-.61.46-.7.47-.8.48-.92.5-1.03.5-.36.14-.28.15-.2.19-.11.21-.03.24.05.26.15.29.22.31.35.46.32.48.28.48.25.5.41 1.03.32 1.06.21 1.11.11 1.13.04 1.18-.03 1.2-.11 1.22-.17 1.25-.22 1.26-.26 1.28-.62 2.61-.71 2.64.1-.87.06-.89.03-.91-.01-.92-.05-.94-.08-.95-.12-.96-.17-.99-.2-1.01-.24-1.03-.29-1.04-.34-1.06-.39-1.09-.44-1.11-.48-1.13-.53-1.16-.36-.52-.4-.47-.44-.41-.48-.35-.52-.28-.57-.24-.6-.17-.66-.1-.52-.1-.46-.14-.37-.17-.3-.21-.25-.23-.18-.25-.13-.25-.05-.26-.01-.25.04-.24.07-.22.13-.21.16-.17.22-.13.23-.09.28-.04.41-.02.37-.08.32-.13.27-.18.21-.22.17-.28.11-.33.06-.37.16-.31.1-.12.11-.11.28-.17.32-.1.36-.05h.4l.87.06 1.17.08 1.08.03.99-.04.91-.08.83-.14.75-.19.7-.24.63-.27.58-.3.53-.33.48-.37.45-.39.42-.41.38-.43.73-.89z"/>
    <path d="M97.717 78.41l.106-.27.135-.22.184-.174.22-.116.272-.05.328.03.386.097.444.183 1.205.27 1.158.242 1.12.192 1.09.165 2.084.23 1.96.11.38.01.34.04.28.07.23.09.17.12.11.14.07.18.01.2.95 2.33.11.44.03.33-.08.24-.06.08-.08.07-.2.08-.24.03-.28-.02-.3-.05-4.25-1.04-.23-.01-.2.02-.16.06-.14.09-.1.14-.06.18-.04.21v.25l.05.36-.02.34-.07.32-.14.3-.19.24-.22.2-.27.13-.32.05-.31-.09-.24-.04h-.1l-.11.04-.11.07-.1.13-.2.36-.13.15-.13.13-.15.09-.15.05-.17.01-.16-.03-.16-.09-.15-.15-.15-.21-.12-.28-.13-.35-.11-.42-.08-.51-.07-.58-.03-.2-.06-.21-.21-.42-.3-.44-.35-.4-.42-.41-.44-.38-.43-.33-.4-.27-.2-.2-.17-.24-.09-.24-.06-.26v-.28l.06-.3.09-.34.16-.36z"/>
    <path d="M132.5 66.022l-.048 1.072-.145 1.06-.25 1.052-.358 1.033-.47 1.03-.58 1.02-.33.5-.37.5-.39.5-.43.5-.45.49-.48.49-.52.49-.54.49-1.19.96-1.32.96-1.44.94-1.58.92-1.71.91-1.87.91-.52.27-.43.15-.36.05-.16-.02-.14-.04-.13-.08-.1-.1-.18-.3-.15-.42-.11-.56-.03-.45.01-.37.05-.28.09-.22.13-.18.17-.14.24-.12.29-.12 1.5-.57 1.45-.59 1.37-.63 1.31-.66 1.25-.69 1.18-.71 1.11-.75 1.03-.78.97-.82.88-.86.82-.89.73-.93.65-.97.59-1.01.47-1.04.4-1.09z"/>
    <path d="M82.53 66.187l4.555-.077 4.544-.088.78-.01.7-.076.63-.115.57-.17.51-.22.43-.27.37-.31.31-.35.26-.38.2-.43.14-.47.07-.51.04-.54v-.57l-.04-.61-.07-.62-.03-.27.02-.25.05-.22.07-.2.13-.17.15-.14.19-.11.2-.08.2-.06.21-.02.22.01.21.05.2.08.19.13.17.17.14.2.08.48.08.48.42.47.17.22.13.22.1.21.05.24.02.27-.03.31-.02 1.27.05 1.13.09 1 .15.88.18.79.2.71.24.65.25.61.53.69.36.58.23.52.14.49.09.51.06.58.09.67.16.83-.04.37-.13.3-.09.13-.12.12-.29.17-.36.11-.45.02-.53-.06-.6-.13-.44-.23-.18-.14-.14-.16-.13-.16-.11-.18-.16-.4-.08-.44-.03-.47.01-.49.04-.5.07-.28.02-.25-.06-.22-.12-.19-.19-.16-.26-.13-.33-.11-.4-.08-1.9.16-.92.11-.85.14-.76.2-.34.13-.3.15-.27.17-.23.19-.19.21-.15.25-.12.32-.16.26-.18.22-.2.18-.23.14-.25.09-.27.04-.28.01-.31-.03-.33-.07-.69-.24-.76-.35-.81-.46-5.85-3.15-.35-.22-.27-.25-.21-.26-.15-.27-.09-.27-.03-.29.03-.25.07-.26.12-.24.18-.22.22-.19.26-.15.31-.12.34-.08.38-.02.41.03z"/>
    <path d="M74.175 76.193l-.51.153-.436.174-.38.193-.31.192-.24.213-.18.203-.11.23-.04.21.03.22.1.21.16.21.24.2.31.19.38.18.45.17.53.14.43.15.34.1.26.02.2-.08.07-.08.07-.1.08-.31.05-.47v-.64l-.02-.72-.09-.5-.14-.33-.09-.1-.1-.07-.23-.06-.27.03-.62.16z"/>
    <path d="M71.647 72.516l.6.29.54.29.48.327.435.357.27.3.232.192.213.076.182-.017.16-.12.15-.2.15-.3.13-.37.14-.69.06-.61-.04-.56-.13-.5-.2-.46-.28-.41-.36-.39-.44-.35-.28-.16-.27-.11-.28-.05h-.28l-.29.1-.29.21-.29.31-.3.45-.49.78-.18.36-.11.34v.3l.03.15.06.13.1.13.14.11.39.2z"/>
    <path d="M70.142 60.03l.116 1.825.068.897.105.888.17.867.24.82.33.792.22.36.24.36.29.27.2.28.14.27.06.26v.25l-.05.22-.09.19-.14.17-.18.12-.21.08-.23.03-.24-.02-.26-.1-.26-.14-.26-.23-.25-.3-.31-.52-.25-.55-.19-.58-.14-.59-.1-.6-.06-.6-.01-.61.02-.59.06-.57.09-.55.1-.52.14-.49.15-.45.17-.39.18-.34.2-.28z"/>
    <path d="M59.114 70.23l2.277-.27 1.11-.097 1.07-.048 1.01.03.93.114.43.09.41.12.38.16.34.19.56.26.54.16.51.09.48.01.44-.05.39-.1.34-.16.26-.19.18-.25.1-.26v-.29l-.1-.31-.21-.31-.16-.16-.18-.15-.46-.31-.61-.31-.62-.3-.65-.23-.69-.18-.69-.11-.71-.06-.71-.01-.73.06-.7.1-.68.17-.67.21-.63.26-.61.31-.55.37-.5.41-.45.46-.37.51z"/>
    <path d="M76.848 85.02l-.25.222-.233.242-.192.25-.165.25-.125.262-.087.26-.048.27-.01.26.038.25.088.253.135.25.18.23.23.22.29.21.35.2.4.17.72.28.58.31.24.17.21.17.18.18.15.18.24.4.15.41.08.44.02.44.08.4.1.35.14.3.16.26.2.2.23.16.25.1.26.06.29.02.29-.04.31-.08.32-.14.32-.19.31-.22.32-.28.31-.32.29-.3.32-.3.76-.6.86-.62.96-.63 1.05-.64 1.11-.65 2.39-1.3.5-.21.42-.23.36-.25.28-.26.23-.28.16-.29.11-.31.06-.32-.01-.33-.05-.34-.11-.36-.16-.37-.2-.37-.24-.4-.28-.4-.31-.39-.61-.58-.51-.54-.42-.5-.32-.47-.25-.44-.17-.39-.1-.38-.04-.35.01-.32.06-.3.09-.27.14-.25.15-.24.18-.21.37-.39.47-.14.37-.17.3-.21.21-.24.15-.26.06-.26-.01-.26-.08-.25-.16-.23-.22-.2-.28-.17-.35-.09-.4-.05-.47.02-.52.11-.57.19-.52.1-.55.03-.56-.07-.6-.13-.62-.2-.64-.27-.65-.34-.68-.39-.7-.43-.71-.49-1.48-1.08L80.34 70l-1.59-1.275-.28-.694-.28-.6-.28-.49-.29-.39-.287-.31-.28-.24-.28-.17-.27-.1-.26-.05-.25-.01-.245.02-.22.05-.395.15-.3.16-.22.28-.19.29-.154.3-.07.32v.17l.04.19.06.19.12.21.15.22.2.24.25.25.31.26.2.24.17.29.16.32.13.36.22.77.13.81.05.78-.03.7-.05.29-.08.25-.1.2-.12.14-.1.31-.07.3-.03.3.01.28.03.27.06.27.2.5.06.46.03.38-.01.57-.02.46.03.24.07.27-.06.35-.03.36.02.35.08.35.15.35.24.35.35.35.46.35.36.6.21.55.06.25.02.26-.02.22-.04.22-.18.42-.14.18-.14.19-.37.34-.46.31z"/>
    <path d="M105.88 90.636l.125-.203.145-.164.174-.12.183-.08.203-.05.192-.01.203.02.203.06.192.08.165.11.144.14.12.15.09.19.06.2.02.22-.02.24-.1.35-.11.3-.13.25-.15.21-.15.17-.17.13-.33.16-.33.04-.3-.06-.26-.14-.1-.11-.08-.11-.17-.4-.08-.46.04-.54.16-.64z"/>
    <path d="M104.268 85.61l.56-.088h.482l.396.068.318.125.242.183.173.213.09.25.03.25-.04.26-.1.25-.17.23-.23.21-.28.16-.34.11-.4.04-.45-.03-.44-.07-.41-.09-.4-.15-.37-.22-.13-.1-.09-.1-.06-.1-.01-.11v-.1l.05-.1.06-.1.11-.09.26-.25.32-.21.37-.2.41-.17z"/>
    <path d="M95.122 84.702l.395-.366.377-.25.347-.137.33-.02.28.06.29.16.27.23.26.31.15.34.07.32-.01.32-.07.3-.11.27-.16.24-.18.19-.2.15-.51.28-.27.09-.28.07-.28.04-.3.01-.32-.04-.34-.09-.17-.15-.13-.14-.1-.14-.07-.16-.07-.31.04-.31.12-.33.19-.33.25-.33.28-.34z"/>
    <path d="M94.475 87.964l.647.173.685.077.704.01.69-.05.7-.085.67-.11 1.15-.24.61-.29.26-.07.23-.02.21.02.18.07.16.12.12.16.45.22.46.18.47.15.49.11.51.08.53.03.56-.02.57-.08.37-.14.16-.02.14.01.21.09.08.08.05.09.02.24-.09.26-.08.13-.13.13-.15.12-.18.11-.39.39-.16.2-.14.21-.09.22-.09.23-.04.24-.01.26.03.52-.01.51-.05.48-.09.47-.11.45-.15.42-.19.41-.22.4-.24.38-.28.36-.29.36-.33.34-.35.34-.37.32-.81.6-.68.51-.67.56-.68.61-.67.64-1.32 1.36-1.27 1.42-.41.46-.4.39-.4.31-.4.25-.39.17-.39.12-.38.05-.38-.02-.37-.08-.35-.15-.36-.21-.35-.26-.35-.31-.35-.38-.34-.43-.34-.47L88.5 99l-.14-.28-.16-.25-.19-.22-.21-.206-.22-.17-.25-.16-.56-.235-.635-.15-.71-.07h-.767l-.82.06-.444.02-.38-.04-.357-.09-.31-.13-.25-.17-.21-.2-.16-.22-.093-.27-.04-.27.03-.29.085-.3.16-.3.24-.31.31-.3.4-.3.47-.28 2.67-1.35 1.24-.67 1.16-.68 1.06-.68.98-.68.88-.68.77-.68.25-.3.25-.24.25-.18.26-.12.29-.06.33.02.37.1.42.16z"/>
    <path d="M107.22 93.733l-.723.27-.704.386-.686.49-.675.58-.666.64-.655.71-.65.77-.65.8-1.34 1.66-.69.84-.7.82-.74.8-.76.76-.79.7-.8.64-.43.19-.32.23-.12.13-.11.13-.11.28-.01.14.01.13.14.26.11.12.15.1.4.18.38.16.35.19.29.21.29.25.25.24.22.3.19.32.15.35.51-.02.46.02.42.05.4.07.37.1.33.13.6.3.53.36.49.41.9.87.23.37.11.34.02.32-.04.31-.17.32-.1.3-.04.26.01.25.05.22.11.2.13.18.18.17.22.43.13.18.18.16.21.12.25.07.31.03.37-.04 2.91-.09 1.07-.01.87.02.72.06.64.11.59.15.59.22.78.22.35.05.33.03.31-.01.28-.05.26-.07.25-.1.22-.12.21-.15.19-.19.18-.22.3-.49.25-.57.58-.27.24-.15.2-.18.18-.18.15-.18.21-.39.11-.41.02-.39-.06-.38-.11-.36-.17-.45-.12-.46-.04-.44.03-.45.08-.45.18-.42.24-.44.31-.41.2-.25.23-.27.49-.55.27-.2.22-.08.16.03.06.04.05.05.03.17-.03.2-.1.21-.17.19-.49.54-.39.53-.27.5-.18.47-.07.44.01.43.1.41.18.39.26.27.25.22.24.15.24.1.23.05h.24l.23-.05.23-.09.23-.12.22-.16.43-.38.43-.45.43-.49.17-.13.19-.1.21-.08.25-.05.57-.02.67.07.73.18.8.26.85.35.89.44.9.51.92.6.9.67.89.742.85.81.41.43.4.44.39.46.37.5.66.98-1.4-3.103-.73-1.47-.39-.71-.43-.68-.45-.67-.49-.64-.55-.62-.59-.59-.64-.55-.72-.49-.78-.49-.86-.45-.21-.107-.18-.135-.15-.15-.102-.16-.065-.18-.04-.19.01-.208.04-.23.05-.3.01-.28-.02-.24-.04-.21-.07-.18-.09-.15-.11-.11-.13-.075-.13-.03h-.13l-.15.04-.147.08-.13.11-.126.16-.12.2-.095.24-.173.36-.17.24-.18.15-.17.08-.18.03-.19-.01-.43-.04-.22-.07-.18-.11-.12-.16-.08-.19-.05-.24-.01-.27.01-.62.1-.6-.02-.504-.11-.412-.21-.33-.12-.13-.15-.12-.33-.175-.37-.1-.41-.03-.42.03-.42.09-.41.15-.39.21-.34.25-.28.3-.22.346-.13.38-.04.427-.084.33-.142.24-.08.09-.094.08-.23.08-.27.02-.3-.05-.34-.1-2.63-1.67-.21-.15-.14-.14-.08-.146-.03-.15.01-.15.05-.154.16-.3.42-.15.33-.2.14-.12.11-.13.17-.31.1-.35.03-.39-.02-.42-.07-.454-.25-.35-.25-.23-.25-.13-.25-.06-.25-.01-.24.02-.5.03-.63-.18-.52-.223-.41-.24-.33-.27-.24-.29-.15-.29-.09-.29-.01-.28.1-.49.04-.43v-.35l-.06-.3-.1-.23-.14-.18-.16-.14-.2-.098-.23-.05-.25-.03-.56.03-.6.085-.62.11z"/>
    <path d="M117.236 116.435l.83.26.724.194.627.11.52.05.425-.02.338-.07.24-.13.088-.08.067-.1.058-.22-.02-.25-.095-.27-.183-.32-.27-.34-.34-.36-.414-.36-.48-.38-.53-.49-.23-.16-.22-.09-.22-.01-.24.1-.28.22-.32.35-.43.4-.29.36-.13.32-.02.3.08.26.18.24.25.21.31.2z"/>
    <path d="M119.108 122.36l.8.83.676.762.578.704.483.636.386.59.31.54.25.492.17.463.12.414.07.4.02.37-.01.35-.08.66-.12.64.27-.06.28-.1.28-.16.27-.24.23-.33.2-.42.14-.52.07-.64-.36-3.04-.16-1.32-.16-1.17-.19-1.03-.26-.88-.16-.38-.18-.34-.21-.3-.24-.25-.23-.2-.26-.17-.56-.26-.61-.17-.63-.09-.37.06-.35.1-.3.15-.27.18-.23.21-.19.25-.15.27-.1.3-.06.32-.02.34.03.35.08.35.14.37.18.36.24.36.28.34z"/>
    <path d="M93.578 109.2l-5.23 3.85-.395.24-.125.116-.087.115-.04.13-.01.12.06.23.21.43.13.15.13.09-.14.49-.07.43v.35l.04.13.07.11.09.07.13.03.16-.01.19-.05.52-.25.69-.48.39-.21.86-.43 1.23-.5.73-.25.77-.22.82-.19.85-.12.86-.07.84.02.86.12.42.1.42.13.41.16.4.19.39.22.38.27.22.19.2.15.21.1.21.06.19.04.17-.01.17-.03.14-.07.14-.09.11-.11.09-.14.06-.18.04-.19v-.21l-.02-.23-.07-.25-.12-.24-.15-.21-.33-.44-.14-.24-.09-.28-.03-.33.05-.39.03-.23-.01-.22-.05-.2-.08-.18-.1-.16-.13-.13-.16-.1-.16-.08-.18-.05-.18-.03-.19.01-.18.05-.19.09-.17.12-.17.16-.15.2-.21.24-.19.17-.19.12-.21.07-.45.07-.6.06h-.38l-.29-.07-.2-.12-.1-.15-.02-.17.09-.18.17-.16.32-.12.26-.03.23-.06.19-.09.16-.12.12-.13.08-.14.02-.16-.01-.16-.07-.16-.11-.16-.17-.16-.22-.14-.28-.12-.33-.1-.36-.08-.45-.05-.09-.37-.11-.31-.14-.27-.14-.21-.15-.19-.16-.14-.17-.1-.15-.08-.16-.04-.13-.01-.14.02-.11.05-.09.08-.08.09-.05.12-.02.14-.01.52-.06.25-.06.25-.1.23-.12.2-.16.18-.2.16z"/>
    <path d="M99.85 138.434l-.55.695-.483.67-.415.66-.328.66-.24.66-.136.67-.02.34v.35l.04.35.067.36 2.334-2.69.59-.52.59-.48 1.06-.82.44-.35.36-.31.28-.29.17-.26.19-.6.08-.5-.01-.44-.1-.34-.07-.14-.1-.13-.11-.09-.13-.08-.3-.09-.34-.02-.37.06-.39.14-.41.22-.4.29-.39.38-.37.45-.33.53-.28.6z"/>
    <path d="M110.637 134.17l-.204-.483-.125-.434-.058-.385.02-.33.086-.298.155-.26.22-.223.29-.192.47-.29.48-.203.48-.125.49-.02.5.097.52.222.53.347.28.222.28.27.34.348.35.327.71.59.73.49.73.407.75.318.76.242.78.163.8.097.8.03.81-.03.82-.087.83-.135.85-.184.84-.23.86-.26.86-.3-.68.75-.35.36-.38.36-.4.35-.46.32-.51.31-.58.27-.65.24-.75.22-.85.17-.96.13-1.08.08-1.21.02-1.36-.03-1.51-.09.25 1.4.17 1.28.09 1.17.01 1.06-.06.97-.12.87-.19.77-.25.69-.29.61-.37.54-.4.48-.45.41-.49.35-.52.29-.56.25-.59.22.36-.88.29-.87.2-.85.13-.83.07-.83v-.84l-.06-.83-.11-.85-.16-.86-.2-.87-.53-1.83-.65-1.97-.75-2.14z"/>
    <path d="M104.46 115.615h1.506l1.41.05 1.33.085 1.264.126 1.198.154 1.166.184 2.24.425.848.28.695.33.3.18.26.19.22.21.204.23.17.24.14.26.12.28.08.3.1.65v.76l-.01.45-.06.4-.12.34-.18.29-.11.11-.14.1-.34.14-.42.06-.52-.01h-.33l-.27.05-.2.1-.14.12-.08.16-.06.18-.03.42-.08 1.38.03.92.04.32.07.25.15.34.18.24.19.26.08.18.06.22.05.3.03.38.03.37v.3l-.04.26-.05.21-.11.17-.12.15-.16.1-.2.08-.48.09-.6.04-1.56.06-.65.05-.56.09-.47.12-.4.15-.32.18-.27.21-.22.22-.17.25-.11.26-.08.27-.05.28-.02.3.02.58.07.59.02.42-.02.36-.05.31-.08.26-.11.23-.15.18-.17.15-.18.13-.42.17-.48.09-.5.04-.51.03-.43-.02-.42-.08-.38-.14-.35-.22-.15-.14-.14-.16-.23-.37-.17-.46-.07-.54.02-.37-.01-.34-.04-.3-.07-.25-.1-.22-.1-.19-.14-.16-.15-.14-.34-.19-.39-.13-.85-.15-.39.07-.35-.03-.3-.07-.26-.12-.21-.17-.17-.2-.12-.23-.08-.24-.01-.26.03-.27.07-.25.12-.24.18-.22.24-.19.28-.16.35-.11.21-.09.19-.14.18-.16.15-.2.12-.22.1-.24.07-.26.04-.26.01-.26-.02-.26-.06-.24-.08-.23-.13-.2-.16-.16-.19-.13-.24-.09-.36.02-.29.06-.22.1-.16.12-.12.14-.07.17-.09.37-.05.37-.08.36-.07.16-.11.132-.16.12-.22.077-.44.12-.39.04-.36-.01-.31-.08-.26-.13-.23-.16-.18-.21-.14-.25-.1-.28-.06-.31-.03-.32.01-.35.04-.36.09-.37.12-.36.15-.37.22-.49.18-.49.14-.49.11-.49.13-.98.03-.98-.01-.39-.03-.38-.08-.76-.01-.383.02-.39.07-.41.13-.424.16-.3.11-.12.117-.09.28-.1.29-.01.3.08.29.17.124.1.126.14.19.33.12.15.16.13.38.19.422.087h.23l.21-.03.22-.06.204-.08.18-.12.16-.15.14-.19.11-.23.07-.28.015-.31.02-.41.08-.29.07-.1.09-.08.21-.112.27-.06.31-.03.78-.05z"/>
    <path d="M92.237 134.44v.22l.038.214.077.203.106.192.146.19.173.18.194.16.24.16.53.29.61.25.68.19.74.14.76.08.76.02.78-.03.79-.1.75-.17.7-.25.65-.33.29-.19.27-.22.29-.28.25-.28.21-.27.18-.26.24-.5.11-.46v-.42l-.1-.36-.09-.16-.1-.15-.13-.13-.14-.11-.35-.17-.4-.1-.44-.02-.47.07-.5.15-.5.25-.49.36-.24.22-.23.24-.37.23-.36.2-.76.31-.74.2-.79.13-.8.06h-.82l-1.65-.04z"/>
    <path d="M85.83 144.348l.985-2.45.453-1.254.414-1.274.378-1.293.327-1.322.27-1.36.212-1.4.07-.25.1-.222.13-.183.15-.155.18-.115.2-.087.23-.05.26-.017 1.93.076.92-.01.87-.048.83-.086.76-.126.69-.183.58-.23.58-.3.5-.34.2-.2.17-.2.12-.21.09-.22.03-.24-.02-.23-.06-.24-.14-.25-.21-.25-.27-.26-.36-.27-.43-.27-.36-.16-.14-.11-.16-.13-.13-.15-.12-.19-.1-.23-.08-.26-.04-.31-.02-.36.01-.41.05-.47.19-1.12.35-1.4.19-.6.17-.61.13-.62.09-.6.05-.58.01-.56-.04-.52-.09-.49-.14-.42-.19-.36-.09-.15-.14-.13-.15-.12-.17-.08-.36-.12-.43-.02-.49.09-.55.2-.21.22-.21.18-.22.15-.22.13-.46.16-.47.04-.5-.06-.51-.15-.52-.23-.54-.31-.62-.24-.57-.13-.5-.03-.23.03-.21.07-.19.1-.17.13-.15.16-.13.21-.11.25-.08.29-.06.33-.03.38-.17.55-.2.46-.22.4-.24.32-.24.27-.26.22-.26.15-.27.1-.28.07-.27.04-.54-.03-.51-.12-.47-.16-.37-.15-.34-.11-.31-.04-.27-.01-.24.03-.21.06-.18.11-.15.14-.12.17-.11.19-.15.44-.06.52.01.55.09 1.07.13.87.093.38.13.34.14.31.18.27.2.26.24.23.29.21.326.2.8.39 1.02.39.36.05.3.07.25.1.2.13.16.17.13.23.1.29.066.36.16 1.55.1 1.63.04 1.69-.03 1.76-.08 1.81-.15 1.87-.208 1.92-.24 1.97z"/>
    <path d="M88.194 101.075l-.27 1.36-.25 1.41-.213 1.476-.18 1.57-.13 1.62-.08 1.76-.04 1.88.03 2.01.01.55.07.46.12.37.13.32.22.57.05.29-.02.33-.04.35-.11.3-.3.56-.17.32-.16.38-.13.47-.1.59-.23.23-.24.21-.28.17-.29.13-.32.08-.35.02-.36-.04-.4-.1-.29-.08-.26-.1-.23-.13-.2-.15-.16-.18-.11-.18-.08-.2-.02-.22.05-.58.12-.42.15-.33.19-.29.19-.3.17-.37.14-.5.08-.68.08-1.34.11-1.29.14-1.22.16-1.17.18-1.11.21-1.06.23-.99.26-.91.28-.89.32-.86.33-.77.37-.74.38-.69.42-.65.44-.6.47-.55z"/>
    <path d="M72.98 100.39l.433 1.93.453 1.92.25.965.29.955.32.955.375.927.43.945.5.956.56.936.65.93.74.93.84.92.46.46.49.46 1.06.92.57.24.27.08.27.02.26-.07.13-.09.13-.12.13-.16.12-.2.25-.54.17-.5.04-.21v-.19l-.03-.18-.06-.17-.08-.15-.11-.14-.28-.26-.37-.26-.9-.54-.8-.58-.76-.66-.5-.49-.48-.52-.47-.57-.46-.59-.88-1.24-.83-1.31-.8-1.4-.78-1.43-1.53-2.98z"/>
    <path d="M70.933 107.83l-.405 1.205-.328 1.245-.24 1.264-.155 1.284-.07 1.272.03 1.255.116 1.215.22 1.168-1.31.714-1.18.724-1.08.733-.97.74-.87.75-.78.75-.69.76-.61.77-.54.77-.47.79-.41.78-.35.79-.31.79-.27.8-.23.8-.2.81.53-.71.58-.67.6-.65.65-.6.68-.58.72-.54.74-.51.8-.48.83-.44.87-.4.92-.37.96-.32 1-.29 1.05-.24 1.09-.22 1.14-.16.75-.01.7.04.66.08.61.13.54.19.5.25.22.14.21.17.18.18.16.2.35.33.34.25.33.18.3.12.29.06h.26l.24-.07.2-.11.18-.15.15-.2.12-.23.08-.25.04-.28v-.3l-.05-.32-.09-.33-.01-.28.02-.26.07-.25.12-.23.14-.21.19-.2.23-.19.27-.16.46-.18.17-.11.14-.14.11-.24.07-.34.02-.47-.02-.64-.03-.38-.05-.34-.08-.3-.1-.26-.13-.22-.14-.2-.16-.14-.17-.12-.19-.08-.18-.05-.19-.01-.19.03-.18.06-.19.09-.18.12-.17.16-.37.52-.36.38-.17.14-.18.1-.35.13-.18.02-.2-.01-.41-.11-.47-.23-.52-.33-.56-.05-.54-.15-.52-.22-.49-.31-.47-.39-.44-.46-.42-.55-.38-.62-.35-.7-.32-.77-.28-.84-.25-.92-.2-.98-.16-1.05-.12-1.11-.07-1.17z"/>
    <path d="M19.998 158.282c-.03-.122-.06-.245-.06-.368 5.692-3.71 11.354-7.604 17.17-11.467.214 0 .673-.43 1.132-.613 5.55-3.9 11.24-7.617 16.907-11.36l-2.573 10.3c-.547.53-.655.616-.715.753-2.76 2.483-5.48 4.967-8.21 7.48-1.23 1.78-4.23 3.098-5.18 4.998-.22.093-.22.093-18.49.277z"/>
    <path d="M67.956 127.72c-.106.996-.257 2.052-.396 3.122-3.46 3.342-7.13 6.745-10.682 9.934-.055.11-2.24 2.103-2.792 2.528l9.362-12.357c.654-.707 1.323-1.294 2.09-1.873.786-.54 1.59-.985 2.418-1.353z"/>
    <path d="M52.533 158.16c.03-.154.06-.307.092-.46 1.622-1.963 4.102-4.2 5.356-6.224 1.63-1.563 2.91-3.22 4.29-4.967 1.23-.31 3.03-4.24 4.59-5 2.67-3.53 6-7.18 9.03-10.4 0 .06 0 .12.03.21-.27.24-.49.7-2.54 3.28-2.54 2.7-4.5 6.1-7.01 8.83-2.6 3.34-5.2 6.68-7.77 10.05-1.04.52-2.48 3.37-3.61 4.5-.4.09-.4.09-2.45.15z"/>
    <path d="M68.448 158.068c0-1.38 1.286-2.545 1.775-3.832 2.296-3.74 4.407-7.573 6.428-11.344 1.17-1.747 2.09-4.016 3.28-5.488.52-1.442 1.62-2.79 2.14-4.017.34-.46.55-.92.71-1.318.07-.08.13-.17.2-.26.34 3.36.06 6.82-.3 10.16l-.21 1.65c-1.07 2.48-2.46 5.04-3.17 7.62-2.02 5.03-2.42 5.79-2.63 6.53-.27.27-7.56.27-8.2.27z"/>
    <path d="M92.842 157.976c0-2.82.704-5.918 1.163-8.43.058-1.486.265-2.987.512-4.483l1.2 6.447 5.558-6.33c.41 1.982.693 4.083.994 6.236.24.153 1.01 5.212 1.16 6.438-3.55.03-7.07.06-10.59.122z"/>
    <path d="M113.225 157.853c-.153-.184-.245-1.104-.643-2.514-.207-1.05-.407-1.92-.665-3.08l2.66-.98c1.172 2.04 2.357 4.14 3.514 6.26-.03.03-.06.09-.06.15-1.62.03-3.21.09-4.8.15z"/>
    <path d="M128.927 157.853c-.368-.06-.705-.122-1.04-.184-2.633-4.63-5.602-9.33-7.775-13.71-.11-.18-.25-.38-.394-.58.023-.22.042-.43.056-.64.436.51.882 1.09 1.164 1.83 2.94 3.95 6.152 8.43 9.152 12.84 0 .09.03.21.06.33l-1.223.09z"/>
    <path d="M148.21 157.76c-.583-.09-1.133-.153-1.685-.214-3.765-3.526-7.56-7.02-11.202-10.21-1.01-1.348-2.51-2.207-3.244-3.218-.52-.154-.68-.52-.8-.705-1.62-1.346-3.2-2.752-4.74-4.173.45-.255.89-.53 1.35-.846.53-.46 1.04-.918 1.53-1.425l.69-.75c.86.46 1.73.88 2.63 1.24.23.21 10.93 5.99 17.75 9.7l3.14 4.64-1.75-3.89c2.44 1.33 4.12 2.26 4.17 2.31.92.21 1.99 1.07 3.3 1.63 2.02 1.25 4.62 2.66 7.04 3.89.43.67 2.02.98 3.06 1.78-7.1.06-14.2.12-21.27.21z"/>
    <path d="M181.264 146.632c-3.152-1.717-6.916-3.557-10.04-4.476-3.304-1.9-6.793-2.698-9.7-4.507-1.04 0-2.602-1.23-3.398-1.38-2.755-1.23-3.52-1.66-4.193-1.84-2.265-1.48-5.6-2.06-7.468-3.41-.85-.31-1.81-.8-2.744-1.26l-3.34-7.43c.15.04.26.07.27.1 9.58 2.08 19.47 4.35 29.26 6.34 2.12.83 4.07 6.74 6.31 8.98 1.29 2.14 4.84 6.62 5.57 8.86h-.52z"/>
    <path d="M136.662 126.706c-1.662-.67-3.29-1.304-4.583-2.12-1.62-.45-3.26-1.142-4.78-1.89-.17-1.198-.36-2.307-.72-3.43 1.52.343 3.23.703 5.92 1.285l4.16 6.16z"/>
    <path d="M21.314 139.06c.03-.216.09-.43.153-.614l9.825-15.912c4.376-.613 8.723-1.962 13.283-2.852 1.836-.92 4.62-.582 6.703-1.532 4.917-.906 9.95-2.134 15.036-3.205.012.32.032.64.062.96-1.836 1.12-3.396 2.37-4.944 3.862-.767.842-1.44 1.666-2.096 2.583-5.138 2.09-10.278 4.625-15.16 6.744-.428.092-5.05 2.146-5.722 2.545-1.928.82-2.357.91-3.09 1.34-2.144.79-4.408 2.14-6.55 2.73-2.542 1.19-5.02 2.36-7.5 3.34z"/>
    <path d="M76.1 130.996c.06-.276.06-.276.306-.49-.122.153-.214.306-.306.49z"/>
    <path d="M161.982 114.624c-2.938-.552-6.06-1.717-8.722-2.054l-1.378-.46c-6.34-1.428-12.72-2.994-18.902-4.54-.17-.213-.347-.426-.53-.638 7.044 1.15 14.252 2.046 21.484 2.848l5.142.736c.092.123.183.276.275.43h.19c1.07 1.44 1.07 1.44 1.13 1.654h.22c.06.246.06.246 1.53 2.024h-.43z"/>
    <path d="M42.25 106.775c-.123-.062-.216-.092-.307-.123.58-1.226 1.224-2.974 2.234-3.74 1.256-.09 1.522-.004 24.728.2l-.36 1.066c-8.806.846-17.634 1.498-26.296 2.597z"/>
    <path d="M151.79 100.122c-11.524-1.65-23.19-3.156-34.508-4.523.367-1.39.72-2.78 1.035-4.18 2.038-.68 4.09-1.35 6.142-2 .91-.19 8.87-2.76 9.79-2.95.18-.13 1.83-.52 2.84-.92 1.96-.49 4.22-2 6.24-1.72.12.24.24.49.39.73h.18c.92 1.78 7.34 12.51 7.53 13.03.42.73.98 1.44 1.47 2.51h-1.14z"/>
    <path d="M49.167 93.775c0-.858 2.51-4.967 3.213-6.04 1.102-2.085 2.235-4.17 3.367-6.224.06-.03.123-.06.184-.06.77.34 8.04 2.97 10.13 3.76l1.85 8.21-7.86.2c-3.64.04-7.25.1-10.86.16z"/>
    <path d="M69.66 86.375c.892.292 1.788.598 2.685.915.068.962.342 1.834.99 2.656l-.733 2.182-2.94-5.753z"/>
    <path d="M76.815 93.185c-.87.025-1.947.054-3.284.09l-.19-3.322c.91 1.15 1.97 1.72 3.31 2.24.02.313.08.65.17.992z"/>
    <path d="M133.488 74.187c.494-.37.993-.738 1.5-1.106.305.16.887 1.35 1.254 2-1.583 1.26-3.896 1.95-5.827 2.86.823-.81 1.574-1.64 2.29-2.57.28-.39.54-.77.783-1.16z"/>
    <path d="M118.092 62.474c1.667-2.51 3.37-4.99 4.774-7.483.58-.64 1.163-2.23 1.928-2.23.214.55 1.47 2.58 1.775 2.91.88 1.41.98 1.75 3.33 5.52-1.2 1.44-3.34 2.33-4.5 3.71-.33.22-.66.48-1 .75l1.46-9.66-6.85 8.29c-.23-.62-.56-1.22-.93-1.8z"/>
    <path d="M77.617 62.49c-.367-.48-.73-.954-1.088-1.428-1.14-1.012-2.51-3.096-3.16-4.17v-.002l-.31-4.866v-.007c2.34 3.456 4.29 7.352 6.79 11.143-.19.08-.37.17-.55.276-.54-.463-1.1-.764-1.7-.947z"/>
    <path d="M100.933 54.475c1.27-11.39 2.092-22.938 3.6-34.128.46.215 5.265 9.228 5.815 10.21.306.735.43.827.49 1.287-.215.613-.215.613-4.5 19.223-.222 1.325-.492 2.653-.785 3.985-.576.05-1.147.18-1.707.422-.85-.658-1.725-.857-2.76-1.01l-.153.01z"/>
    <path d="M86.928 48.79c-.097-.42-.163-.76-.177-.942-1.34-3.863-2.17-7.572-3.36-11.22.31-.798.31-.798 1.13-2.147 1.72-3.12 3.43-6.25 5.14-9.35.03 0 .09.03.16.06.88 8.53 1.62 17.15 2.43 25.82-1.12-.83-2.34-1.51-3.75-1.96-.54-.13-1.03-.21-1.55-.25z"/>
    <path d="M95.77 54.372c-.472-11.536-1.02-23.057-1.367-34.577.398-.797 1.072-2.268 1.898-2.544-.02 12.57-.05 25.14-.06 37.71-.15-.2-.31-.39-.47-.58z"/>
    <path d="M193.357 140.135L116.68 12.773c-3.81-6.33-10.58-10.105-18.122-10.105h-.024c-7.497.008-14.217 3.76-17.98 10.04L4.51 139.664c-3.71 6.192-3.8 13.648-.243 19.943 3.737 6.615 10.598 10.846 18.354 10.868H175.4c7.712 0 14.53-3.773 18.246-10.326 3.57-6.3 3.464-13.79-.29-20.02zm-8.224 15.188c-1.954 3.447-5.59 5.367-9.735 5.367H22.648c-4.192-.012-7.878-2.385-9.86-5.895-1.83-3.24-1.788-6.923.117-10.103L88.948 17.736c1.98-3.304 5.565-5.28 9.595-5.284h.014c4.077 0 7.718 2.005 9.742 5.367l76.67 127.36c1.93 3.21 1.99 6.91.16 10.14z"/>
</svg>
