<svg xmlns="http://www.w3.org/2000/svg" viewBox="0 0 200 188">
  <path d="M32.104 93.95c-.342.148-.635.295-.927.44-9.47 6.933-18.94 13.863-28.407 20.843-.05.245-.1.537-.1.83v.002c5.957-.048 11.91-.098 17.867-.148.098-1.61.195-3.172.293-4.734.537.537 1.27 3.514 1.66 4.88l3.27-.146c1.513-12.35 1.513-12.35 1.756-13.032.245 9.47.245 9.47.49 12.885 1.17.196 1.17.196 1.61.05.44-.78.44-.78 2.05-5.858.44 1.172.39 4.198.44 5.955h.34v-8.932h-.39c0-4.344 0-8.69.048-13.034z"/>
  <path d="M175.608 115.087l7.81-.293c.927-2.685 2.147-5.613 2.147-8.2-2.293-1.61-10.787-8.395-12.397-8.395.78 5.612 1.61 11.225 2.44 16.887z"/>
  <path d="M186.98 107.766c-.05 2.392-.096 4.785-.146 7.175 3.466-.096 6.98-.146 10.494-.194-9.615-6.687-9.615-6.687-10.348-6.98z"/>
  <polygon points="154.132,11.704 154.132,11.704 154.131,11.704"/>
  <path d="M154.67 11.12c-.098-.1-.148-.196-.195-.294-.197.196-.344.39-.49.634.05.048.097.146.147.244.097-.048.243-.098.39-.098.047-.195.097-.34.147-.487z"/>
  <path d="M156.23 9.413V9.02l-.292.147c.048.05.096.146.146.243v.002H156.232z"/>
  <path d="M155.06 8.728c-.05.097-.1.195-.1.342.15-.05.15-.05.1-.342z"/>
  <path d="M154.378 8.532c-.05-.244-.05-.488-.05-.732-.147-.047-.244-.097-.342-.097v1.22c.098-.147.244-.293.392-.39z"/>
  <path d="M156.182 7.315c-.34-.148-.34-.148-.927-.05-.048.293-.098.586-.146.926v.002c.342-.293.682-.587 1.072-.877z"/>
  <path d="M156.718 6.58c-.243-1.17-.243-1.463-.927-1.463.196.488.392.976.636 1.464h.292z"/>
  <path d="M155.107 6.24v-.49h-.634c.047.147.097.294.147.49h.487z"/>
  <polygon points="157.89,6.239 157.889,6.238 157.889,6.239"/>
  <path d="M158.182 5.604c-.292-.195-.537-.342-.782-.488.05.44-.096.537.49 1.122.097-.244.195-.44.292-.634z"/>
  <path d="M169.748 96.733c-1.512-.05-2.442-.147-3.612.196 0-1.71-.05-2.443.537-3.613h-.83l-.146-1.025-29.237-21.037 19.375-57.695c0-.292.048-.585.098-.877-.928-.635-2.93-.44-3.662-.44 0-.78 0-1.514.05-2.246 1.172 0 2.345.048 3.565.098-.05.147-.05.342-.05.537.83.148.88-.44 1.073-1.122-.24-.048-.483-.096-.677-.097h-.151c-1.32 0-2.636.047-3.906.097V6.582c-.44.097-.44.097-3.514 2.39 1.22.245 1.22.245 1.417.44-.098.05-.147.146-.195.243-.78 0-1.514 0-2.244.05-21.233 15.668-21.233 15.668-22.453 16.79.097 1.856.097 1.856-.098 4.15-1.22 1.807-4.052 4.637-6.102 5.027V31.28h2.1l-.293-1.757c-2.65 1.94-5.303 3.888-7.953 5.838l-1.595-.917-1.192-.493-1.178-.366-1.16-.223c-.622-.046-1.176-.05-1.798 0l-1.145.288c-.412.177-.9.46-1.345.507-.227-.013-.5-.322-.655-.458l-.488-.38-.586-.342-.653-.225-.662-.098-.74.056-.68.24c-.444.27-.94.562-1.23 1.01-1.103-.47-2.57-.196-3.44.626l-.52-.854-.82-1.172-.916-1.143-.985-1.084-1.048-1.036-1.122-.943-1.15-.84-1.192-.702-1.2-.558-1.307-.365-1.338-.126-.695.07-3.83.903c1.65 1.454 3.346 2.864 4.904 4.42.57.604 1.106 1.216 1.632 1.858.534.715 1.022 1.438 1.504 2.19.484.87.935 1.743 1.368 2.64l.135.33c-1.847-1.354-3.69-2.708-5.527-4.06-.098 2.343-.195 4.736-.293 7.126-1.367-.293-1.367-.293-4.392-.488 0-1.172.05-2.344.1-3.467 2.587-1.268 2.34-1.707 2.537-4.733-2.002-1.512-4.003-2.978-6.005-4.442 0 1.22 0 2.44.05 3.71.39.098.78.195 1.17.342.05 1.708.097 3.417.195 5.173h1.317v3.418c-1.953-.05-1.953-.05-3.173-.245-.145-4.54.05-9.226-.682-13.276-11.47-8.494-22.892-16.938-34.314-25.382l14.025 43.1-.525.214-.886.463-.813.542-.744.616-.696.71-2.91 3.95 6.706-.8 1.684-.112 7.048 21.652-3.612 2.587c.05 1.415.147 2.83.244 4.295-.78.928-2.05 1.903-2.343 3.173h-.488c-.147-1.708-.244-3.368-.342-5.026-.244.047-.44.096-.634.194-5.905 4.296-11.763 8.59-17.62 12.936-.05.243-.097.487-.147.78 0 .195.05.39.097.635v-.002c0 8.005 0 16.01.047 24.015h13.227v.49l.562.003-.216.446-.754 2.073-.298 1.03-2.33 9.324 5.758-7.65 1.296-1.444 1.453-1.292 1.6-1.157 1.778-.992.674-.288 12.136.068c.057.043.114.087.174.13l.6.338.616.236.662.132h.725l.59-.164.445 1.095.694.96.466.448.483.325c1.266 3.976 2.576 7.95 3.906 11.928l-.375 4.094-1.9 15.565 4.837-12.045c3.117 9.224 6.267 18.465 9.177 27.748h.34c0-.682 0-1.366.05-2.002.587 0 1.172 0 1.807.05-.487 1.025-1.317.732-1.512 2.147.878-.097 1.464-.292 2.44-.83v2.93c-.976-.44-.976-.44-1.953-.636-.05.586-.098 1.124.195 2.1 1.415.44 1.415.44 1.66.732.097 1.708.243 3.416.39 5.124h.342c.244-2.197.244-2.197.537-3.025.195.34.195.34.292 3.22-.292.097-.585.194-.83.292.292 2.636 1.66 5.858 2.684 8.884 2.977-9.177 5.955-18.304 8.933-27.432-.05-.195-.05-.39-.05-.537-.148-.048-.245-.098-.343-.098v-.49h.83c.05-.292.098-.584.146-.83h-1.464c0-.145 0-.29.05-.39.535-.146 1.072-.29 1.61-.39l3.267-9.98 2.84-1.025.8-.36.774-.43.75-.53.71-.632.626-.733.563-.83.454-.924.365-.998.276-1.106.173-1.205.077-1.294-.014-1.393-.11-1.51-.152-1.193 2.924.006 1.4-.1 1.274-.167 1.146-.234 1.034-.29.92-.34.848-.396 1.416-.91c.55-.472 1.067-.944 1.572-1.464l5.55-6.02-7.562 2.637-1.92.554c-.913.198-1.788.344-2.716.444h-1.68l-1.587-.264-.76-.24-.743-.314-.72-.403c-.41-.278-.79-.558-1.157-.86l2.686-8.205.557-.005c.742.885 1.412 1.825 1.93 2.882.125.354.23.678.293 1.05.02.412-.024.76-.08 1.174l-.67 3.407 3.083-.774.57-.214.615-.363.6-.537.487-.69.362-.797.235-.9.115-1.103c-.128-1.063-.252-2.127-.38-3.19 3.486-.024 6.978-.04 10.486-.04.334-1.842.515-2.846.858-5.146l2.05 3.03.022 2.018h.342l.046-1.414 6.396 9.446-6.25-13.883c.204-6.116.228-6.155.346-6.35 1.074 3.27 3.368 8.153 3.368 12.203h18.206c.05-1.22.097-2.393.147-3.563-.048-.195-.096-.342-.146-.487.05-4.394.097-8.788.147-13.18 1.464-.098 2.93-.195 4.394-.245.147-.926-.147-1.316-.343-1.61l-.292.733zm-20.84-71.46l-1.61.148c-.05-3.172-.05-6.344-.05-9.47l2.344-.292c-.097 2-.097 8.444-.683 9.616zm-1.613-13.034c.342.1.342.1.488.39v-1.17c.635.195.635.195 1.953 1.074 0 .098.488 3.075-.537 2.733-.146.1-.293.245-.44.392h.002c-.34-.295-1.123-.39-1.513-.637v-.635c.29-.098.583-.196.876-.245-.048-.195-.098-.342-.098-.488-.342-.05-.636-.05-.928-.05 0-.78 0-.78.195-1.366zm-21.15 44.604l1.51-.825 1.42-.86 1.334-.907 1.24-.94 1.163-.988 1.07-1.035.986-1.067.882-1.116.78-1.162.707-1.208.57-1.254.484-1.312h.002l-.06 1.29-.172 1.28-.302 1.265-.43 1.244-.558 1.242-.697 1.232-.395.605-.44.602-.466.605-.51.604-.536.593-.58.592-.617.593-.65.592-1.43 1.16-1.58 1.15-1.73 1.14-1.905 1.114-2.056 1.104-2.242 1.092-.627.326-.523.186-.43.07-.186-.025-.162-.045-.152-.094-.127-.116-.22-.36-.174-.51-.13-.674-.035-.546.01-.442.06-.337.115-.267.152-.21.21-.163.29-.14.36-.14 1.8-.684 1.744-.71 1.65-.756 1.58-.79zm-6.443-6.892l.697-.36.64-.407.58-.44.533-.465.5-.5.465-.51.883-1.06.006-.006-.152 1-.233.998-.172.51-.232.513-.28.523-.36.522-.44.534-.523.534-.616.558-.732.557-.837.57-.964.58-1.104.604-1.245.604-.43.177-.336.186-.235.232-.128.256-.034.29.07.315.174.35.268.37.418.558.383.58.336.58.302.605.5 1.243.384 1.28.254 1.335.14 1.37.047 1.417-.035 1.442-.127 1.475-.198 1.51-.267 1.52-.303 1.545-.742 3.137-.848 3.17.116-1.044.07-1.07.034-1.09-.01-1.105-.06-1.126-.093-1.14-.14-1.16-.197-1.197-.245-1.21-.29-1.23-.35-1.255-.405-1.278-.465-1.313-.523-1.335-.58-1.36-.64-1.395-.43-.626-.477-.57-.522-.488-.58-.418-.628-.338-.685-.28-.72-.208-.79-.13-.628-.115-.546-.163-.454-.21-.36-.255-.302-.268-.21-.302-.15-.302-.07-.314-.012-.304.047-.29.092-.267.163-.245.197-.21.256-.15.278-.105.34-.046.5-.023.44-.092.382-.15.325-.21.255-.267.21-.336.14-.395.068-.454.187-.372.116-.15.14-.128.336-.198.382-.128.44-.058.49-.012 1.044.08 1.42.105 1.3.036 1.196-.046 1.093-.105.998-.164.906-.22.836-.28.756-.324zm-14.54 25.313l-.01.616-.073.58-.105.57-.14.546-.185.513-.233.5-.267.486-.29.465-.338.44-.36.43-.394.408-.43.407-.454.382-.975.72-.827.617-.813.672-.812.732-.8.778-1.593 1.64-1.533 1.707-.5.556-.477.464-.476.384-.48.302-.464.21-.465.14-.452.058-.454-.024-.44-.092-.43-.175-.43-.244-.43-.314-.418-.373-.42-.453-.417-.51-.407-.57-2.103-3.856-.16-.337-.187-.3-.22-.268-.256-.244-.268-.21-.304-.185-.674-.28-.767-.174-.847-.08h-.92l-.986.07-.535.022-.45-.052-.43-.105-.372-.15-.302-.2-.255-.243-.185-.267-.116-.314-.048-.325.034-.348.104-.36.198-.36.29-.372.373-.36.476-.36.57-.338 3.217-1.626 1.487-.812 1.395-.813 1.277-.813 1.186-.812 1.058-.813.93-.814.3-.358.303-.292.3-.22.314-.14.348-.07.396.023.45.118.51.198.002-.004.78.21.824.09.848.013.825-.056.836-.105.802-.128 1.383-.29.732-.348.314-.08.28-.024.243.023.21.082.184.15.14.2.536.266.558.22.57.188.592.14.604.092.638.034.673-.02.688-.094.44-.162.187-.024.174.012.255.116.092.093.058.117.023.29-.105.314-.105.163-.15.163-.186.15-.22.14-.465.466-.198.243-.164.255-.115.267-.105.278-.046.29-.013.315.034.627zM95 98.503l.117.187.244.14.348.08h.454l.72-.07.546-.094.244-.08.233-.138.23-.197.258-.28.174-.243.208-.186.21-.14.233-.103.22-.06.233-.01.22.034.22.057.198.092.186.13.162.16.128.184.104.21.06.244.01.254-.034.28-.058.466.035.393.116.34.164.29.395.535.186.256.152.29.08.303.023.278v.257l-.047.232-.07.22-.105.16-.126.14-.162.118-.174.08-.196.036-.21.01-.233-.048-.245-.08-.244-.116-.242-.172-.256-.222-.453-.324-.466-.268-.477-.232-.488-.198-.5-.15-.51-.115-1.035-.14-1.01-.024-1.036.093-1.02.152-.977.23-.93.27-.87.3-1.475.604-1.034.512-.464.255-.836.582-.617.302-.232.058-.197.012-.15-.035-.116-.08-.082-.13-.046-.15v-.418l.093-.524.173-.58-.15-.104-.152-.174-.255-.51-.07-.28.01-.14.06-.15.105-.14.15-.14.477-.29 6.295-4.635-.002-.002.24-.185.2-.222.15-.243.128-.268.07-.3.07-.302.012-.627.023-.173.06-.14.093-.117.115-.093.128-.058.163-.024.16.012.186.046.186.094.198.128.185.175.186.22.175.245.162.326.14.373.117.44.545.06.43.09.395.128.336.152.255.174.2.197.128.2.083.197.01.197-.034.197-.093.176-.14.16-.186.14-.232.106-.28.07-.315.034-.383.152-.21.197-.104.208.023.21zm-11.438 3.613l.01.662.082.546.14.442.15.383.257.682.058.35-.022.394-.058.42-.128.36-.36.673-.21.382-.185.452-.163.57-.116.71-.278.277-.29.246-.337.197-.35.15-.394.094-.417.023-.442-.045-.474-.116-.35-.106-.313-.127-.28-.163-.243-.187-.196-.21-.14-.22-.093-.244-.022-.267.06-.697.138-.51.186-.396.234-.35.22-.36.21-.44.162-.605.094-.825.092-1.615.128-1.556.163-1.475.186-1.408.22-1.336.256-1.278.28-1.198.312-1.104.337-1.068.383-1.034.395-.93.442-.894.464-.836.5-.778.534-.72.556-.663v.002l-.327 1.64-.302 1.695-.254 1.778-.22 1.882-.163 1.952-.105 2.114-.048 2.264.034 2.416zM68.07 56.414l.742-.185.325-.037.28.072.116.08.104.128.163.394.106.602.022.87-.01.776-.058.57-.093.382-.082.13-.08.094-.245.092-.314-.023-.417-.115-.525-.174-.638-.16-.547-.198-.464-.21-.373-.22-.29-.232-.198-.244-.128-.256-.034-.256.047-.255.127-.268.21-.243.29-.256.372-.232.45-.232.523-.21.616-.186zm-1.44 29.14l1.834 3.59.94 1.732.964 1.683 1 1.57 1.057 1.484.557.71.57.685.582.614.602.592.92.79.964.697 1.08.65.452.303.336.314.14.163.092.174.07.196.035.21v.232l-.046.244-.21.592-.29.65-.14.243-.15.187-.15.14-.153.106-.313.08-.326-.025-.325-.105-.685-.29-1.278-1.104-.58-.558-.547-.557-1.01-1.118-.882-1.127-.78-1.127-.672-1.127-.594-1.147-.51-1.14-.454-1.115-.383-1.15-.348-1.15-.303-1.162-.546-2.31-.52-2.325v.004zm28.927-29.14l.14.14.16.116.153.152.115.22.034.337-.094.486-.65 1.766-.094.314-.093.233-.106.173-.116.117-.14.08-.163.047-.348.024-.408.024-.43.082-.22.082-.234.14-.245.185-.243.27-.394.278-.372.187-.37.093-.35.01-.336-.07-.326-.173-.3-.255-.302-.35-.186-.244-.152-.243-.116-.257-.07-.266-.023-.268.023-.278.093-.29.15-.302.338-.43.314-.488.29-.557.278-.617.244-.673.233-.743.395-1.674.002-.003.174-.512.128-.198.14-.186.162-.15.186-.117.395-.163.453-.058.476.035.488.117.488.186.29.233.21.278.186.325.128.382.08.42.024.476-.034.51-.093.57-.033.29.07.187zM93.29 66.66l.476-.44.454-.302.417-.163.395-.023.338.08.348.198.325.28.314.37.174.42.083.394-.01.384-.093.36-.14.325-.2.29-.22.234-.244.186-.616.336-.325.115-.338.092-.336.047-.36.012-.382-.047-.418-.105-.21-.174-.164-.174-.128-.174-.093-.186-.08-.372.046-.372.14-.395.22-.395.29-.395.34-.407zm11.687.988h.58l.477.08.384.152.29.22.21.256.115.29.035.303-.047.313-.114.303-.197.278-.28.244-.336.185-.407.128-.476.048-.534-.035-.523-.08-.488-.117-.477-.186-.44-.267-.164-.116-.116-.13-.07-.127-.012-.128v-.128l.06-.128.08-.128.127-.116.314-.302.383-.256.453-.243.5-.21v.002l.674-.104zm1.07 6.926l.197-.768.15-.246.174-.197.21-.14.22-.093.243-.057.234-.012.244.035.244.07.234.104.197.14.175.174.15.186.117.234.07.244.024.267-.025.29-.115.42-.128.36-.152.3-.174.257-.174.21-.198.162-.395.186-.396.047-.36-.07-.314-.174-.116-.128-.092-.128-.197-.477-.094-.546.047-.65zm-.084-10.583l-.28-.01-.233.023-.198.082-.162.115-.116.162-.07.22-.046.256v.302l.06.43-.024.418-.08.383-.164.36-.22.29-.268.246-.325.15-.385.07-.372-.104-.29-.046h-.128l-.128.047-.127.093-.128.152-.233.44-.152.186-.163.152-.174.105-.173.07-.198.013-.187-.037-.186-.105-.186-.173-.173-.244-.15-.338-.152-.418-.128-.5-.093-.616-.082-.707-.034-.244-.07-.258-.256-.512-.36-.522-.453-.512-.5-.488-.522-.453-.512-.395-.476-.326-.245-.244-.197-.278-.116-.29-.07-.314v-.337l.07-.36.115-.407.187-.424.004-.002.127-.326.162-.267.22-.21.268-.138.326-.058.393.033.465.116.533.22 1.453.326 1.394.29 1.347.233 1.313.197 2.51.278 2.37.14.464.012.408.046.337.08.28.117.208.152.14.174.08.22.012.245 1.15 2.814.14.534.035.406-.093.29-.07.106-.094.08-.232.093-.29.034-.337-.023-.36-.06-5.11-1.253zm12.683-27.44l.293.292-.44.147c.048-.15.097-.295.146-.44zm-20.094-.408l.105-.324.197-.395.3-.46.002-.003.268-.256.29-.175.29-.106.315-.024.31.048.337.116.338.197.36.28.35.303.335.243.35.186.372.106.395.024.453-.047.51-.163.594-.255.348-.152.384-.115.406-.082.418-.035h.44l.466.036.964.185 1.01.314 1.035.43 1.034.557 1.043.64 1.01.73.966.803.917.883.836.93.755.963.638 1.01.522 1.023.383 1.045-.696-.733-.685-.663-.686-.605-.674-.546-.673-.478-.65-.418-.65-.36-.627-.302-.616-.256-.592-.197-.57-.14-.557-.093-.522-.035h-.488l-.477.058-.43.092-.405.15-.36.187-.326.23-.29.268-.256.313-.195.35-.162.383-.104.418-.07.455v.488l.046.522.092.546.163.58.22.606.28.627.35.65.486.43.384.42.266.405.15.395.036.383-.093.348-.22.36-.166.175-.197.16-.3.21-.246.21-.196.22-.162.23-.244.467-.153.465-.14.43-.173.384-.116.175-.14.15-.186.13-.22.092-.617.21-.616.116-.605.01-.546-.08-.467-.197-.198-.14-.175-.163-.138-.186-.093-.22-.07-.255-.01-.267-.06-.65-.104-.58-.128-.523-.15-.465-.408-.79-.44-.686-.396-.744-.337-.8-.29-.895-.245-.953-.197-1.033-.15-1.106-.116-1.185-.058-1.256.058-.604v-.51l-.07-.43-.115-.36-.14-.303-.174-.256-.36-.405-.162-.198-.127-.186-.093-.21-.047-.23.035-.268zM87.704 34.31l-.534-.838-.535-.79-.557-.742-.57-.697-.592-.674-.592-.63-.605-.604-.616-.58-1.254-1.104h-.008l.443-.105.453-.048.478.023.488.07.488.115.51.163 1.022.477 1.046.616 1.033.755 1.024.86.964.953.918 1.01.85 1.058.755 1.08.65 1.07.534 1.033.384 1 .233.906.058.43v.395l-.057.7-.114.615-.174.512-.21.417-.256.325-.28.244-.3.162-.313.08-.314-.01-.326-.082-.303-.15-.29-.233-.257-.29-.23-.37-.186-.42-.127-.5-.395-1.196-.43-1.115-.442-1.07-.475-.987-.486-.94-.5-.894zM75.337 45.883l.094-.314.15-.29.223-.268.267-.232.314-.186.372-.14.416-.093.453-.023.5.036.005-.002 3.366-.057c-1-1-1.006-1.757-2.045-2.344 1.857-.245 1.857-.245 2.59-.1-.085 1.507-.12 2.15-.164 2.437l1.736-.03.365-.007c-.06-2.023-.3-7.72.306-7.72 1.012 1.47.854 5.195.546 7.704l4.254-.08.94-.013.848-.092.767-.138.683-.21.616-.268.522-.325.453-.373.382-.43.314-.464.245-.522.174-.57.092-.617.047-.65v-.683l-.048-.732-.08-.755-.036-.327.023-.302.07-.265.08-.244.164-.21.186-.172.222-.14.244-.104.243-.07.254-.023.267.01.244.06.244.105.22.152.197.197.162.244.092.58.104.58.51.56.2.255.15.256.116.254.058.29.024.326-.035.37-.024 1.535.058 1.36.117 1.196.174 1.06.22.952.246.85.29.778.3.73.64.826.43.697.278.628.174.594.105.616.08.697.118.813.187 1-.046.44-.15.36-.105.152-.14.14-.347.196-.44.128-.546.023-.64-.07-.72-.163-.534-.267-.22-.163-.174-.186-.163-.196-.127-.22-.186-.49-.094-.533-.035-.57.013-.59.048-.604.093-.337.024-.303-.07-.267-.15-.232-.232-.198-.314-.163-.395-.14-.476-.104-2.29.196-1.103.127-1.022.174-.918.245-.406.15-.37.175-.325.21-.28.23-.232.257-.173.302-.152.383-.186.314-.22.266-.246.21-.267.162-.302.106-.325.047-.337.012-.372-.036-.394-.08-.838-.29-.917-.43-.975-.56-7.04-3.797-.42-.268-.325-.29-.255-.316-.174-.325-.104-.326-.033-.35.034-.3zm-7.234-.278l.082-.384.186-.36.234-.347.267-.336.36-.187.477-.175.267-.058.292-.022.3.01.313.068.325.13.335.21.338.29.347.37.35.477.336.592.338.72.337.836 1.917 1.536 1.846 1.44 1.79 1.3.86.58.837.524.813.464.788.407.767.326.743.244.722.164.685.08.662-.035.628-.13.686-.232.626-.127.558-.023.488.057.417.116.335.198.268.23.185.28.105.302.012.313-.07.314-.175.315-.255.29-.36.255-.453.21-.558.162-.453.475-.21.256-.184.29-.163.303-.115.326-.07.36-.012.383.046.418.127.454.196.475.303.523.382.558.5.604.617.65.73.697.37.477.338.476.29.477.232.454.188.44.128.43.058.408.012.406-.07.385-.127.37-.198.35-.28.337-.348.314-.442.302-.512.278-.603.254-2.87 1.57-1.336.778-1.266.767-1.16.755-1.035.743-.918.723-.382.36-.35.36-.382.383-.383.338-.384.268-.38.22-.384.163-.372.092-.348.048-.35-.022-.314-.07-.3-.127-.28-.197-.244-.246-.198-.312-.174-.36-.127-.42-.094-.487-.023-.535-.103-.533-.187-.5-.29-.488-.187-.22-.22-.22-.255-.21-.29-.21-.71-.373-.87-.336-.486-.21-.42-.243-.347-.256-.28-.266-.22-.277-.163-.302L70 69.77l-.046-.3.01-.312.057-.325.106-.314.152-.315.198-.302.23-.303.28-.29.302-.265h-.002l.555-.37.454-.408.174-.22.162-.22.21-.5.048-.266.023-.267-.02-.302-.07-.3-.256-.664-.43-.72-.556-.417-.42-.43-.29-.42-.186-.42-.092-.43-.024-.42.035-.43.08-.416-.092-.326-.035-.29.024-.546.013-.686-.035-.465-.08-.557-.246-.605-.08-.325-.036-.326-.013-.337.037-.36.08-.36.116-.373.14-.163.117-.244.093-.302.058-.348.036-.838-.058-.94-.163-.964-.266-.93-.164-.43-.197-.382-.21-.35-.245-.29-.372-.314-.302-.303-.243-.29-.185-.255-.14-.256-.082-.234-.047-.22v-.21zm-1.61 2.13h.337l.337.07.325.14.337.2.522.43.43.475.337.5.243.56.15.603.047.673-.07.743-.174.835-.163.453-.186.36-.185.245-.2.15-.22.023-.257-.093-.278-.233-.326-.36-.522-.43-.582-.394-.65-.35-.72-.348h.002l-.466-.23-.163-.14-.13-.153-.08-.15-.033-.174v-.36l.127-.405.21-.43.593-.93.358-.547.35-.37.347-.244.35-.117zm-4.594-6.48l.067-.686.105-.66.128-.628.163-.58.186-.536.207-.466.22-.406.234-.337.004-.002.14 2.196.08 1.08.13 1.07.196 1.044.29.988.396.953.256.44.29.443.35.325.23.337.163.325.07.314v.302l-.07.268-.116.234-.177.208-.22.15-.255.094-.28.046-.29-.023-.315-.118-.313-.163-.314-.28-.302-.36-.37-.627-.304-.66-.232-.698-.174-.71-.117-.72-.07-.72-.012-.73.024-.71zm-.488 8.976l-.616-.115-.65-.198-.675-.313-.407-.233-.45-.196-.49-.152-.51-.115-1.115-.14-1.208-.034-1.278.058-1.335.115-2.743.325.002-.004.455-.613.546-.56.605-.5.66-.44.733-.385.768-.314.8-.253.826-.2.848-.126.87-.07.86.01.86.07.836.14.822.206.79.28.743.36.732.372.558.372.22.184.187.2.255.373.128.37v.35l-.115.315-.22.29-.314.233-.405.186-.464.116-.522.06-.582-.024zm14.765 60.622l-.28.22-.22.244-.175.256-.14.278-.08.303-.023.313.01.337.104.395.058.383v.36l-.047.337-.092.3-.14.28-.185.232-.22.174-.244.13-.292.08H73.9l-.35-.07-.36-.14-.394-.22-.407-.302-.418-.406-.2-.243-.22-.22-.244-.21-.266-.174-.606-.3-.65-.233-.732-.163-.79-.105-.836-.047-.895.01-1.37.186-1.313.253-1.254.29-1.198.35-1.15.384-1.102.44-1.046.477-1 .522-.952.57-.893.616-.86.65-.814.697-.777.72-.72.78-.696.8-.64.85.244-.977.28-.965.324-.964.372-.954.428-.953.49-.94.57-.953.65-.928.744-.93.838-.917.94-.907 1.046-.906 1.173-.895 1.3-.882 1.43-.872 1.58-.858-.256-1.406-.14-1.463-.036-1.51.082-1.533.186-1.546.29-1.52.396-1.5.488-1.45.002-.004.08 1.41.14 1.335.197 1.268.243 1.173.303 1.105.338 1.01.384.93.43.836.465.756.51.663.535.556.57.477.59.372.627.267.65.174.673.058.626.396.57.268.5.14.23.01.22-.024.43-.15.22-.128.21-.175.43-.464.454-.628.21-.198.222-.15.22-.104.22-.07.232-.036.233.012.22.057.22.092.21.14.198.174.174.232.152.267.126.313.105.36.058.406.036.453.022.778-.024.57-.08.407-.128.29-.174.175-.21.128-.547.222-.313.197zM87.39 124.71l-.314.024-.278.058-.245.104-.22.14-.186.187-.162.22-.128.267-.093.302-.257 1.685-.326 1.638-.393 1.592-.453 1.557-.5 1.533-.546 1.51-1.185 2.95-.012-.004.29-2.375.245-2.313.174-2.254.103-2.17.036-2.116-.048-2.03-.117-1.965-.198-1.87-.08-.44-.116-.35-.15-.28-.198-.21-.243-.162-.303-.116-.36-.094-.432-.058-1.23-.477-.963-.476-.395-.244-.35-.255-.29-.28-.245-.313-.22-.326-.162-.373-.15-.407-.116-.453-.163-1.056-.103-1.29-.012-.662.07-.627.174-.533.126-.232.152-.197.187-.163.22-.128.255-.082.292-.034.326.01.372.06.408.127.44.187.557.185.618.14.65.035.325-.047.336-.082.325-.128.313-.186.315-.257.29-.326.29-.396.256-.488.243-.558.21-.662.034-.464.07-.394.093-.35.13-.302.15-.255.186-.196.21-.163.22-.115.255-.08.28-.035.603.036.686.163.744.277.65.372.628.277.616.173.592.07.57-.046.558-.186.267-.152.254-.187.257-.22.257-.268.66-.243.594-.105.51.023.43.14.198.104.174.14.162.164.105.187.23.44.164.5.104.58.048.627-.012.674-.057.697-.117.72-.16.744-.21.733-.22.72-.43 1.684-.232 1.348-.06.57-.01.488.024.43.047.372.093.313.117.28.14.22.15.187.186.152.164.127.43.186.52.325.43.325.326.315.255.3.165.302.08.29.024.28-.047.28-.105.255-.15.256-.208.234-.244.232-.605.406-.696.36-.697.267-.837.22-.917.15-1 .105-1.057.058-1.103.012-2.323-.094zm4.228 4.03l-.64-.348-.278-.196-.232-.2-.21-.22-.175-.232-.127-.232-.093-.243-.046-.256v-.27l1.986.05.987-.013.964-.07.953-.15.895-.242.918-.372.442-.244.44-.28.28-.29.29-.267.593-.43.605-.302.593-.187.57-.08.534.023.487.115.417.198.175.14.163.15.128.176.104.184.13.43v.5l-.13.546-.29.604-.21.313-.256.325-.302.338-.348.337-.325.254-.348.233-.78.395-.836.302-.896.208-.94.117-.942.035-.906-.035-.918-.105-.882-.176-.814-.23-.73-.304zm9.31 12.266c.05-.683.097-1.367.146-2 1.122 0 2.636 0 2.343 2.098-.342 0-.635 0-.927.048-.537-.048-1.074-.097-1.562-.146zm2.395-9.628l-.336.348-.44.373-.534.417-1.278.976-.707.57-.722.627-2.81 3.242-.082-.44-.045-.43v-.42l.022-.418.162-.814.29-.8.396-.802.5-.802.58-.814.662-.835-.005-.002.335-.72.396-.64.442-.546.465-.454.477-.347.487-.268.464-.174.442-.07.407.022.36.117.152.092.128.117.116.15.092.174.115.41.012.52-.104.603-.233.72-.21.315zm-1.565 32.862c-.146.877-.732 1.61-1.22 2.293-.49-2.538 1.024-3.953 3.32-4.247.047.488.096.976.193 1.514-.974.34-.974.34-2.292.44zm2.44-6.15l-1.756.29c.34.197 1.463.88 1.463 2.05-1.172.148-2.343-1.61-2.587-1.95-.732-.05-1.464-.1-2.196-.1-.05 5.175-.098 10.398-.147 15.62h-.342l-.145-9.13c-.293-.047-.586-.095-.83-.144.146-.342.146-.342.83-.683 0-2-.537-3.66-.928-5.174 0 1.366 0 2.78.05 4.197-.147.05-.294.097-.44.195-.097-1.415-.195-2.782-.244-4.15-.098-.048-.195-.048-.293-.048-.342.732-2.538 1.367-3.124 1.562.633.342.633.342 2.683.683-.05.634-.097 1.27-.147 1.95l-2.928-.29.146-4.736c-.194-.05-.39-.098-.536-.147v-.34c.098-.05.244-.1.39-.148v-.538c-.195-.146-.39-.244-.585-.34.243-.1.486-.196.78-.245.195-1.904.342-2.343 1.318-3.612-.05-.293-.05-.586-.05-.83-2.143-1.074-1.264-6.248-1.313-8.103h-.003c0-.243.05-.487.098-.73 0-.586.048-1.17.098-1.708.244-.05.488-.05.732-.05 0-.536 0-1.073.05-1.61h-.83c-.05-.634-.05-1.268-.05-1.854.1-.05.196-.1.343-.147.097-.78.195-1.562.292-2.294.05-.1.147-.15.244-.197.44.78.93 1.61 1.418 2.44.146-.927.146-.927-.05-4.685.098-.052.195-.1.293-.1.05 1.757.098 3.563.147 5.37h-.34c.34 5.563.194 11.665.145 17.57.147.39.294.782.49 1.22.243 0 .487 0 .78.05.097.195.195.39.342.586.536-1.66.536-1.66.683-1.66v.293c.098-.05.195-.1.342-.147 0-1.22-.49-10.836.44-12.69.046 2.05.095 4.1.193 6.198h.342v-.34h.34c0 2.44-.145 4.344-.83 6.98.44.147 1.905-.05 2.93 0-.147.44-.488.147-.488.976.976.05 1.952.097 2.928.195-.048.147-.097.293-.146.49zm5.662-15.377c-1.757-1.17-2.1-1.318-3.71-1.562.147-1.706.635-2.83 1.172-4.05.342 1.367.342 1.367.78 2.246.587-.146.782-.196 1.954-.098.048 1.123.098 2.294.146 3.465h-.342zm9.95-16.885l.872.487.907.384.917.29.94.197.953.116.963.035.977-.035.987-.104 1-.164 1.02-.22 1.012-.28 1.032-.312 1.032-.36-.824.894-.418.43-.466.43-.487.418-.56.383-.616.37-.698.327-.79.29-.906.256-1.023.21-1.162.15-1.3.094-1.465.023-1.638-.036-1.824-.115.302 1.682.197 1.545.104 1.405.014 1.28-.07 1.16-.15 1.046-.233.93-.3.823-.36.733-.443.65-.488.57-.547.488-.593.42-.628.35-.674.3-.708.255.43-1.057.348-1.045.245-1.023.162-1 .08-.998v-1.01l-.07-1-.127-1.022-.197-1.034-.242-1.057-.64-2.208-.79-2.37-.897-2.58-.245-.582-.15-.523-.07-.464.022-.396.105-.36.186-.313.255-.267.348-.232.57-.35.57-.243.58-.15.58-.024.606.116.627.268.64.418.336.267.336.326.406.418.42.397.848.708.87.593zm.652-15.977l-.01.547-.072.487-.15.418-.22.35-.14.14-.173.126-.407.176-.51.082-.63-.01h-.405l-.325.057-.244.116-.174.152-.093.197-.083.22-.035.51-.105 1.663.035 1.104.046.383.08.303.187.406.22.29.22.313.095.22.07.268.058.36.035.455.035.442v.36l-.047.313-.07.257-.127.21-.15.173-.198.128-.233.094-.58.116-.72.046-1.882.07-.78.058-.673.105-.57.15-.488.187-.396.22-.325.245-.268.265-.197.302-.14.314-.093.326-.058.337-.024.36.024.708.08.71.024.5-.022.43-.07.37-.105.315-.14.28-.173.22-.198.185-.22.153-.514.21-.58.115-.605.047-.615.034-.524-.025-.51-.093-.465-.174-.43-.268-.186-.162-.175-.186-.28-.44-.196-.548-.08-.65.022-.453-.012-.406-.047-.36-.08-.3-.117-.27-.126-.22-.164-.186-.186-.162-.418-.233-.465-.15-1.02-.187-.465.082-.418-.036-.36-.08-.313-.152-.255-.198-.197-.244-.138-.278-.093-.29-.025-.314.035-.326.093-.303.15-.29.21-.268.29-.234.338-.198.42-.127.255-.104.232-.163.21-.197.185-.244.14-.268.115-.29.082-.315.046-.314.01-.313-.022-.303-.07-.29-.104-.268-.15-.244-.198-.197-.232-.16-.29-.106-.432.024-.348.07-.267.116-.198.14-.14.173-.093.2-.106.44-.058.453-.105.43-.092.186-.128.16-.197.14-.255.093-.535.137-.477.048-.43-.01-.37-.094-.314-.15-.268-.2-.21-.254-.174-.303-.115-.337-.07-.372-.036-.395.01-.42.06-.43.104-.44.138-.43.174-.442.255-.592.21-.58.16-.594.13-.592.15-1.173.036-1.184-.012-.465-.035-.463-.105-.918-.01-.465.023-.465.08-.487.163-.512.2-.36.127-.14.14-.103.336-.116.35-.01.358.09.35.21.15.128.153.16.232.396.15.186.187.152.454.232.512.105h.28l.255-.035.267-.07.245-.105.22-.15.197-.185.163-.23.128-.28.08-.338.024-.372.023-.488.106-.348.08-.13.106-.09.256-.14.314-.07.383-.036.935-.062h1.817l1.696.06 1.603.104 1.522.15 1.44.187 1.406.22 2.696.512 1.023.35.836.394.36.22.312.23.267.256.244.28.197.288.164.314.14.336.092.36.116.79v.917zm-.546-4.98l-.37-.242-.302-.257-.21-.29-.092-.312.022-.36.164-.397.348-.43.522-.486.382-.43.337-.268.292-.126.266.01.266.103.28.2.638.58.58.452.5.43.407.43.326.407.22.384.117.325.023.303-.07.256-.082.115-.104.093-.29.152-.408.08-.51.023-.626-.057-.756-.14-.87-.232-1-.314zm8.607 14.33l-.164.63-.23.51-.28.395-.326.292-.338.197-.337.13-.327.08.152-.766.106-.79.01-.42-.022-.44-.08-.476-.14-.5-.197-.558-.29-.592-.37-.65-.466-.71-.58-.766-.697-.847-.813-.918-.964-1v-.004l-.337-.42-.29-.43-.21-.43-.163-.44-.092-.417-.035-.42.023-.405.07-.383.128-.36.186-.326.232-.3.278-.257.325-.22.36-.187.418-.116.453-.07.766.115.732.21.675.313.312.21.28.244.29.3.256.36.22.42.185.45.315 1.07.232 1.244.196 1.417.187 1.593.44 3.66-.08.777zm10.992-14.928l-.44-.595-.464-.557-.476-.534-.488-.523-1.02-.977-1.07-.894-1.094-.802-1.103-.72-1.093-.615-1.068-.523-1.024-.418-.965-.312-.883-.21-.8-.093-.687.022-.3.058-.255.093-.232.117-.197.15-.512.592-.523.547-.522.464-.268.185-.266.14-.28.104-.267.058h-.29l-.28-.058-.29-.116-.29-.186-.302-.256-.314-.325-.21-.475-.116-.49-.01-.51.092-.533.21-.57.325-.604.466-.64.593-.65.21-.233.115-.256.035-.245-.035-.208-.058-.07-.07-.06-.187-.035-.266.093-.325.244-.594.66-.278.327-.232.3-.372.5-.29.524-.21.51-.104.534-.034.534.047.535.14.546.208.545.14.428.07.453-.02.476-.14.49-.256.465-.175.22-.21.21-.242.21-.29.186-.7.326-.3.684-.36.58-.21.257-.232.22-.244.188-.267.15-.302.128-.314.082-.337.058-.372.012-.394-.034-.418-.06-.94-.267-.71-.267-.708-.185-.767-.13-.872-.08-1.045-.022-1.29.01-3.51.105-.44.045-.372-.035-.3-.08-.256-.14-.21-.198-.163-.22-.266-.523-.21-.21-.164-.22-.128-.245-.057-.267-.014-.302.057-.314.117-.36.197-.385.045-.372-.023-.382-.13-.42-.28-.452-1.09-1.046-.58-.487-.64-.442-.73-.373-.397-.15-.44-.128-.477-.092-.512-.057-.557-.022-.604.024-.187-.43-.22-.382-.267-.36-.303-.292-.348-.3-.35-.257-.42-.233-.452-.198-.478-.21-.174-.127-.127-.14-.164-.314-.01-.16.01-.175.127-.337.13-.162.15-.163.395-.278.522-.234.966-.777.95-.848.92-.918.894-.964.847-.988.837-1.01 1.616-1.998.79-.964.79-.93.79-.858.8-.78.813-.697.826-.593.846-.465.872-.325.006.004.755-.143.72-.105.673-.035.3.034.28.06.243.116.197.162.162.22.116.28.07.36v.432l-.046.51-.128.594.012.348.105.35.187.347.29.35.395.325.498.29.627.267.767.21.605-.035.29-.022.302.01.29.07.302.15.303.28.302.418.08.546.023.5-.034.475-.114.417-.21.373-.128.16-.163.152-.395.244-.498.187-.2.36-.058.187-.013.174.036.187.094.174.174.173.255.185 3.16 2.01.405.117.362.058.324-.023.28-.093.117-.092.105-.106.174-.29.104-.397.047-.51.162-.465.266-.418.336-.36.407-.302.463-.255.488-.175.5-.116.5-.036.49.035.44.128.394.21.175.14.15.162.242.395.14.5.023.604-.116.72-.01.743.01.327.056.29.094.232.138.196.21.14.268.082.51.046.232.012.22-.035.21-.093.22-.186.21-.29.21-.43.118-.29.15-.244.15-.196.163-.14.173-.093.174-.046h.163l.164.035.15.092.127.128.106.173.093.21.046.256.022.29-.01.334-.058.36-.047.28-.013.244.047.233.082.22.127.186.186.174.22.163.255.128 1.036.547.94.593.86.592.778.663.708.708.662.743.592.767.548.803.51.824.478.86.883 1.767 1.684 3.74-.802-1.185zm4.27-4.122c-.146-.488-.146-.488-.44-.78-.075 1.453-.092 1.767-.025 8.51l-1.28-2.843c.4-2.867.95-6.83 1.746-12.55.145.343.145.343 0 7.663z"/>
  <path d="M147.932 16.488h-.292c.05.148.146.293.244.488 0-.195 0-.34.048-.488z"/>
  <path d="M84.234 44.946c.147-.1.343-.196.537-.246l.06-.446-.853.016c.008.253.013.46.013.578.05 0 .146.048.244.098z"/>
  <path d="M81.746 44.556c.063-.02.098-.034.13-.25l-.38.007c.08.08.154.16.248.243h.002z"/>
</svg>
