<!--
  SVG Music Logos
  Sepultura - Triangle Symbol v0.1.0
  https://github.com/tiagoporto/svg-music-logos
  Copyright (c) 2016-2018 Tiago Porto (http://tiagoporto.com)
-->
<svg xmlns="http://www.w3.org/2000/svg" viewBox="0 0 200 174" class="sepultura--triangle">
  <g class="sepultura__triangle">
    <polygon class="sepultura__field" points="105.2,11.5 193.2,150.5 183.6,162.2 18.6,162.2 10.5,152.1 95.3,11.5"/>
    <path d="M194.6 142.9L114.8 11.2c-4-6.6-8.2-7.9-13.8-7.9s-9.8 1.3-13.8 7.9L7.3 142.9c-2 3.3-3.4 7.1-3.4 10.7 0 8.4 7.3 13.9 17.2 13.9h159.7c10 0 17.2-5.5 17.2-13.9 0-3.7-1.4-7.5-3.4-10.7zM184.3 153c-.8 1.7-2.2 3.3-7.2 3.3H24.9c-5 0-6.4-1.6-7.2-3.3-.7-1.6-.4-4.6.9-6.9L95.5 20.5c1.6-2.7 3.1-3.5 5.5-3.5s3.8.7 5.5 3.5l76.9 125.6c1.3 2.2 1.6 5.3.9 6.9z"/>
    <g>
      <polygon points="125.4,54.2 113.8,72.1 115.4,73.7 130.3,62.5"/>
      <polygon points="106.5,22.9 101.6,68.7 104.6,68.7 112.8,33.4"/>
      <path d="M96.3 21.6l2.4 44.7V19.5c-.9.3-1.7 1-2.4 2.1z"/>
      <polygon points="92.5,27.8 86,38.7 93.7,63.9 96,66.8 96,66.3"/>
      <polygon points="88.8,74.2 76.9,53.8 75.4,56.2"/>
      <polygon points="83.4,92.5 84.9,90.5 60,81.8 53.2,93.1"/>
      <polygon points="80.9,102.4 48.2,101.4 45.5,105.9"/>
      <polygon points="80.4,113 80.4,111.5 36.5,120.9 27.4,135.9"/>
      <path d="M43.6 154.2l27.7-25.5.6-4.9-45 30.4c.4 0 .9.1 1.4.1l15.3-.1z"/>
      <polygon points="60.1,154.2 80.9,126.5 57.2,154.2"/>
      <polygon points="169.6,127.7 125.1,117.1 125.1,118.7 179.3,143.8"/>
      <polygon points="158.9,109.9 128.7,105.1 161,113.5"/>
      <polygon points="143.1,83.7 117.9,91.9 117.2,94.7 152.7,99.7"/>
      <polygon points="136.3,72.3 125.1,81.3 137.5,74.4"/>
      <polygon points="121.7,128.7 119.3,129.3 146.3,154.2 167.4,154.2"/>
      <polygon points="80.2,154.2 92,123.4 90.3,121.8 72.4,154.2"/>
      <polygon points="105.4,154.2 100.2,128.7 99.3,128.7 94.8,154.2"/>
      <polygon points="113.1,143.4 112.4,144.3 114.3,154.2 119.1,154.2"/>
      <polygon points="119.3,138.3 128.3,154.2 131.1,154.2"/>
      <polygon points="79.4,76.7 79.4,75.4 69.5,66 66.4,71.2"/>
    </g>
  </g>
  <g class="sepultura__symbol">
    <path d="M89.3 65.1c.4-.2 2.3.8 2.6 1.2.4.4.8.8 1.3 1 .5.1.4.9.6 1 .2.1 1.1.7 1.6 1.1.4.4.9 1.2 1.3 1.7.5.5 1.7 2 1.9 2.6.2.7.7 1.1.5 1.6-.1.5 0 1.1-.6 1.1-.5 0-1 .2-1.2-.1-.2-.3-1.1-2.3-1.3-2.7-.3-.3-1.1-1.6-1.6-2s-1.4-1.7-1.8-2.2-1.3-1.9-2.2-2.5c-.7-.6-1.5-1.5-1.1-1.8z"/>
    <path d="M112.7 76.4c0 .4-.7.2-1 .1-.3-.1-1.4-1.4-2-1.6-.6-.1-1.6-.2-2.4.3-.8.5-.9.7-.8 1.6.1 1 1.5 2 1.5 2.5s0 .9-.2 1.2c-.2.3-.8 1.2-1.4 1.4-.6.1-1.5.5-2 0s-.5-1.6-.7-1.9c-.2-.3-1.3-1.6-1.4-3-.2-1.4-.2-1.8-.3-2.7-.1-.9-.5-.8-.7-1.5-.1-.7.4-1.1 1-1.1.2 0 .4.5 1.1.6.7 0 1.6-.5 2.6-.5s3.1.4 3.5.8c.4.3 1.3 1.4 2.2 2 .7.7 1 1 1 1.8z"/>
    <path d="M115.9 78.5c.4.1.1.6-.3 1.3-.4.6-1.2 1.5-1.7 2.1-.8.9-2.2 1.2-2.2 1.4 0 .2.8 1.3.9 2.1.1.8.3 2.4.6 3 .3.7.6 1.7.5 2.5s-.4 4.6-1 4.5c-.6-.1-.2-2.2-.6-3.7-.3-1.5-1.1-2.5-1.6-4.1-.5-1.5-.7-1.8-1.2-2.3-.6-.5-2.3-.5-3.1-.9-.7-.4-1-.6-1-1s.4-1 1.1-1.2c.7-.2 1.2-.7 1.3-1 .1-.3.5-.8.9-.8.3 0 1.2.3 1.9.2.7-.1 1.5-.4 2-.4s1.5-.3 1.8-.5c.3-.2 1.5-1.2 1.7-1.2z"/>
    <path d="M124 76.8c.4 0 .8.5.3 1.7-.5 1.1-1.9 3.9-3.5 5-1.1.8-2.8 2.8-4.4 3.2s-1.9 1.2-2.4 1.2c-.4 0-1.1-.6-.6-2.2.1-.5 1.4-.8 2.3-1.2 1-.4 2.1-.7 2.7-1.2.7-.5 2.2-1.6 3.2-2.7 1.2-1.5 1.9-3.8 2.4-3.8z"/>
    <path d="M100.2 72.5c1.2-.1.8 1 1.3 1.5.4.4.2 2.3.6 3.5.4 1.2 1 2 1.3 2.7s.3 1.6.7 2c.4.4.2 1.4-.5 1.4s-1.8-.1-2.2-1.1c-.3-.8.3-1.4-.9-2.1s-1.3.4-2 .6c-.7.2-1.3.2-1.8.5-.5.4-.3.9-.8 1-.5.1-7.5-2.1-7.5-3.5 0-1.5 3.2-1.5 4.2-1.4 1 0 5.2-.3 5.8-.5s1-.9 1-1.9c0-1-.2-1.5-.1-2 .2-.6.5-.7.9-.7z"/>
    <path d="M83.9 80c.5 0 1.3.6 1.5.9.1.3.6 2.7-.2 2.7s-2.7-1.2-2.7-1.8c0-.7.8-1.8 1.4-1.8z"/>
    <path d="M83.5 79.1c-.1-.6-.7-.9-1-2.1-.1-.6 0-2.3-.4-2.3-.6 0-1 1.9-.9 2.5 0 .7-.1 1.3.4 2.1 0 0 .2.3.4.5-.2-.2-.5-.3-.9-.5-1.6-.7-4-.2-5.5.2s-3 1.6-2.6 1.9c.4.3 4.5-.4 6.2-.2 1.7.2 2.5 1 3.1.4.3-.3.4-.8.2-1.2 0-.1-.1-.1-.2-.3.1 0 .1.1.2.1.4.1.6.1.8 0 .2-.2.3-.6.2-1.1z"/>
    <path d="M85.4 84.8c.2.1.5 1.5.4 1.8-.1.3-.4.4-.6.5-.2 0-1.2-.3-1.5-.6-.2-.4-.1-1 .1-1.3.1-.3 1.1-.6 1.6-.4z"/>
    <path d="M99 81.9c.9.1 1.6 1.3 1.5 2.4 0 1.1-.3 1.9-.9 2.3-.6.4-1.4.8-2 .6s-1.1-.7-1-1.2c.1-.5.5-1 .8-1.9.4-1.1.3-2.3 1.6-2.2z"/>
    <path d="M96.1 82.7c.4-.1.7-.1.8.4.1.5.1 1.1-.1 1.5s-1 .5-1 .9 0 1.1.6 1.8 2 1.3 2 2.5-1 1.8-2.2 2.5-3.6 2.6-4.5 3.2c-.9.6-1.1.9-1.7.7-.6-.1-.7-1.5-1.6-2.6-.9-1-1.3-.3-1.8-.8s-.7-1.3-.3-2.1c.4-.8 1.4-.8 1.4-1.5s-1.4-1.3-1.5-2.1c-.1-.7 0-3.6-.1-4.9-.3-2.4-1.5-2.7-1.5-3.4s.8-1.3 1.5-1.3c1.1 0 1.4 1.2 2.1 2 .7.7 4.5 3.4 6 3.4 1.5.2 1.5-.1 1.9-.2z"/>
    <path d="M109.1 85.9c.6.2 1.5 1.9 1 2.6s-1.8.4-2.5.2-1.8-.4-1.8-.2c0 .1.4.8.4 1s-.6.6-1 .9c-.4.3-1.1.7-1.6.5-.5-.1-.6-1.5-1.1-2.1-.5-.6-2-1.3-2.1-1.8-.1-.5.4-2 .8-2s2 .6 2.9.6 1.6-.1 2.3.2 2-.2 2.7.1z"/>
    <path d="M106.2 90c.5 0 .8.9.8 1.1s-.4.7-.8.7-2 .1-2-.4c0-.4.6-.8 1-.9.3-.2.6-.5 1-.5z"/>
    <path d="M100 89.4c.5 0 1.1.9 1.1 1.4 0 .4-.2.5-.1.7.1.1 1.3 0 1.5-.1.2-.1.6-.3 1.5.2s1.3.6 1.7.5.7-.4 1.3-.3c.6.2 0 .8.3 1 .3.2.9 0 .9.8 0 .7 0 1.3-.6 1.4-1.2.3-1-.7-1.1-.5-.1.2.2.7-.5 1.3s-1.3 1-1.8 1.8-.6 1.5-1.2 2-1 .4-1 .6c0 .2.4.3.3.9-.2.5-.4 1-.7 1.1-.3 0-.8-.3-.8-.5-.1-.3.2-.8-.2-.9-.3-.1-1.1-.1-1.6-.2s-1.2.9-2.3.8c-1.1 0-1.6-1.8-2.6-2.6s-2.9.3-3.6-.7c-.7-1 .9-2.4 2-2.9 1.1-.4 2.9-1.6 3.6-2.1s.8-1.2 1.4-1.4c.5-.2 1.1 0 1.2-.2.2-.2-.2-.4-.1-.7.2-.7 1-1.4 1.4-1.4z"/>
    <path d="M109.8 95.1c.5.5-.4 1.2.2 1.9s1.4 1 2.5 1c.4 0 .5 1.5-.1 1.9-.6.4-.5 1.1.2 1.4.7.3 1.5.3 2.3.7.8.4.2 0 .3-.6 0-.6.6-2 2.1-1.5s.6 1.8.9 2.2c.3.5.9.3 1 0 .1-.2.4-1.2 1-.9.9.3.1 1.6.7 1.9.6.3 1.1.4 1.6.7.7.5 1.3 1.5 2.5 2.6 1.3 1.3 1.2 2.5 1 2.5-.6.2-.8-.3-1.5-1.2-.7-.9-2.2-1.1-3-1.6s-1.7-.4-2.1-.5-.5-.5-.9-.3-.5 1.2-1.1 1.3c-.7.1-1.2.2-1.4-.1s-.6-.9-.5-1.3 1.6-1.5.8-2.2c-.1.9-.8.9-.8 1.5 0 .4-.2.7.1 1.7.3 1 .2.8-.6 1.4s-1.8 2.1-2.6 2.1c-.8.1-3-.2-4.2-.2-1.2-.1-1.8.2-2.2 0-1.3-.6-.6-1.6-1-2.6-.3-.8-1.2-1-1.7-1.1-.5-.1-1.2.1-1.5 0-.6-.3-.7-1.2-1.3-1.5s-1.4-.7-1.3-1.5c.1-.8.9-1.2 1.2-1.2.4.1.8.7 1.3.6s1-1.6 1.4-2.2c.4-.5 1.3-1.3 1.8-2.3s2.1-2.3 2.7-2.5 1.8-.6 2.2-.1z"/>
    <path d="M115.6 107.7c.4 0 .6.5 1 .8s1.1.9.8 1.5c-.3.6-.9.7-1.5.6-.6-.2-1.5-.4-1.7-.8-.2-.5.5-2 1.4-2.1z"/>
    <path d="M115.2 110.9c.6.4.8 2.4.6 2.8-.4.7-1.6.4-1.8.8s-.3 1.8-.2 2.2.8 1 .8 1.5c0 .6-.2 1.1-1.6 1.2-1.4.2-2 0-2.4.5-.4.5-.6.4-.6 1.5s.3 1.9-.4 2-1.5.5-2.1.5c-.6 0-1.1-.7-1.1-1.3-.1-.6.1-1.2-.3-1.4s-2.6-.1-2.6-1 1.6-1.2 1.5-2.4c-.1-1.2-.8-1-1-.9-.2.1-.1 1.8-.9 1.9-.8 0-2-.5-1.9-2.2.1-1.2.5-1.4.5-2.9.1-2-.2-1.6 0-2.4s.8-.6 1.1-.4c.3.2.5.9 1.1.9s.8-.4.8-.7c0-.3-.2-.9.3-1.2s3.2-.3 4.2-.2c1.1.2 5 .5 6 1.2z"/>
    <path d="M117.8 110.7c1.1 0 1.7 2 1.9 2.9.2.9.7 1.2.8 2.2.1 1 .1 2.9-.5 3-.6 0-.7-1.6-1.1-1.9s-.5-1.3-1.3-1.7-1.9-2.3-1.9-2.8c.1-.9.7-1.7 2.1-1.7z"/>
    <path d="M99.4 104.4c.4-.1.7.3 1.4.9s.9.6 1.1.9c.3.6-.8.7-.7.9.2.2.4 0 1-.2s1.3-.6 1.7-.1c.4.5.2 1.1.6 1.5.3.4.8 1.4.2 1.7-.9.6-1.3-.5-2.3-.7-1.5-.2-2.6.1-3.5.1s-2.7 1.2-3.2 1.5c-.6.3-.8-.8-.8-1.3s.1-.9 1.2-1.6c1.1-.7 1.8-1.6 2.3-1.9.5-.5.5-1.6 1-1.7z"/>
    <path d="M112.5 119.7c1.3 0 1.2.5 1.9.9.7.5 1.9 1.5 3.6 1.5 2.6 0 4.6-1 4.8-.4.1.3-1.5 1.4-2.7 1.8-2.8.9-4.5.2-4.7.4-.6.4.6 2.9.5 4.5s-1 5-1.3 5.7c-.3.7-.7 2.3-1.7 3.2-1 .9-2.5 3.2-2.9 3.2-.4 0-.4-.5 0-1.2.4-.6 1.2-1.3 1.4-2.1.2-.8 1.5-1.8 1.8-3.6.3-1.8.2-4.1-.3-6-.5-1.9-1-3.7-1.5-4.6-.4-.8-1-1.2-1-1.9 0-.4 1.1-1.4 2.1-1.4z"/>
    <path d="M100.6 111.2c.6 0 .8.6.9 1.2.2 2.7-.6 3.6-.4 4.2s-.3 1.5.5 2.2c.8.7 1.4.6 1.4 1.4s-1.3 1.8-3.2 1.9-3-.1-3.2.2c-.1.3-1.2 5.6-1.9 5.6s.3-2.5-.2-5.8c-.2-1.2.1-2.3-1.4-2.8-1-.3-1.9-.2-2.5-1.7-.3-.8-.1-3.1.6-3 .6.1 2.1.2 2.6-.1s.9-2.8 2.2-2.8c1.3 0 .8.6 1.9.6 2.1-.1 1.9-1.1 2.7-1.1z"/>
    <path d="M90.6 111.7c.5 0 .5 1.2.5 2.1 0 .5-.4.7-.6 1.2s-.1 1.3-.3 1.6-.4.8-1.1.8-1.1-1.3-2.3-1.4-3.8.3-5.7 1.2c-1.8 1-3.4 2.4-4.3 3.5-.9 1.1-1.3 2.2-1.9 3-.7.8-.7 2.4-.9 2.3-.2 0-.6-.7 0-3.6.6-2.9 3.1-4.8 4.5-6.3s2.6-2.6 3.4-3.1c.8-.5 1.3-.8 1.4-1.2.1-.4-.6-2-.6-3.6 0-.9.3-1 .5-1 .6 0 .5.5 1 1.4.5.9.8 2.5 1.8 3.2s2.3 1.1 2.8 1.1c.9 0 1.1-1.2 1.8-1.2z"/>
    <path d="M94.6 101.3c.5.3-.3 3.7-.2 4.5.1.7 0 2.6.1 3.3 0 1.4.3 1.6.3 2 0 .4-.1 1-.3 1.4-.2.4-.5 1.6-1.1 1.6-.6.1-1.2-.3-1.5-.4s-.6-.4-.6-1 .7-1.1.8-1.6c0-.5-.1-1.7 0-2.8-.1-.9 1.3-7.7 2.5-7z"/>
    <path d="M84.4 100.2c.7 0 .9 1.6 2.1 3.4s1.8 2.8 2.6 3.3.7 1 1.6 1.4c.9.4.9.8.8 1.3-.1.4.2 1.4-.5 1.5-.7.1-1.8-1-2.7-1.9s-1.8-1.9-2.4-3.2c-.6-1.3-.3-1.8-.9-2.7-.5-.8-.7-3.1-.6-3.1z"/>
    <path d="M105.3 123.2c.3-.1 1-.2 1.2.2.3.4.4.5.1 1.2-.3.7-.6 1.3-1.4 1.8-.3.1-.4.5-.7.8-.1.1-.2.5-.5.7-.5.4-1.5.5-1.8.3-.2-.3.4-.9.5-1.5.1-.4.6-.8 1.1-1.3.4-.5.3-.9.5-1.3-1.1.5-.8.7-1.8.6-.9-.1-2-.2-2.8-.5-.8-.2-1.9-.7-1.7-1.1.2-.4 1.8-.2 2.6-.3.9-.1 1.3-.4 1.5-.6s1-.9 1.4-1c.3-.1 1.5.1 1.6.1.2.1.6.4.6.7.3.2 0 .6-.4 1.2z"/>
  </g>
</svg>
