<svg width="235" height="103" xmlns="http://www.w3.org/2000/svg">
  <g fill="none" fill-rule="evenodd">
    <g fill="#231F20">
      <path d="M117.505 37.214c-.188.182-.458.458-.641.64h.365l.276-.276v.552c-.093-.093-.188-.182-.276-.276h-.365c-.187.183-.462.46-.645.64h1.286v.647c-.188-.276-.458-.459-.641-.647h-.645c-.183.46-.46.83-.64 1.287.364.095.64.183 1.009.276.276-.276.641-.552.917-.916v2.568h-.641v.552h.641v5.134c-.188.183-.458.371-.641.553-.187.182-.462.458-.645.641-.46.646-.823 1.287-1.282 1.927-.188.183-.464.458-.645.645v.641c-.183.183-.365.46-.552.64V54.371c.187.18.37.364.552.552v1.926c.645.641 1.287 1.281 1.927 1.927.183.183.458.365.645.64.183.184.453.365.641.553v10.276c-.188.183-.458.364-.641.547h-.645v-.64c-.183-.366-.46-.824-.64-1.193v-.365c.088-.094.18-.188.364-.276-.183-.188-.276-.276-.364-.37a1.244 1.244 0 0 0-.276.37 6.142 6.142 0 0 0-1.01.64 3.688 3.688 0 0 0-.553-.64c-.27-.458-.459-.917-.642-1.286v-.642c-.18-.457-.458-.916-.64-1.286h-.64c-.187-.276-.458-.457-.646-.64-.182-.183-.458-.46-.641-.646-.182-.458-.458-.824-.64-1.28-.188-.184-.46-.372-.646-.553-.182-.276-.459-.459-.64-.641h-.553c-.27 1.65-.459 3.303-.64 5.046v2.569h1.192v3.119a4.176 4.176 0 0 0-.552.64v.647c-.27.823-.459 1.65-.64 2.568v3.759c.181.83.37 1.652.64 2.48.188 1.099.37 2.109.552 3.208-.183.182-.364.458-.552.646-.64 0-.64 0-.64 1.281h.64v.553c-.27.458-.459.823-.64 1.287-.276.18-.459.457-.641.64-.276.64-.459 1.28-.646 1.926-.27.182-.458.459-.641.641v.64a14.427 14.427 0 0 0-.64 1.84v.64h-1.927v-1.286c-.188-.183-.37-.46-.553-.547-.276-.917-.457-1.746-.64-2.573v-1.282c-.276-.182-.459-.458-.645-.64-.272-.646-.46-1.286-.642-1.839-.276-.458-.458-.917-.64-1.28-.276-.189-.458-.465-.64-.647v-.64c.364-.64.822-1.287 1.28-1.927.183-.183.37-.459.642-.641v-.553a2.14 2.14 0 0 1 .645-.64c-.276-1.562-.459-3.031-.645-4.494h-.365c-.094-.095-.183-.188-.277-.276v-.276-1.286c-.364-.46-.64-.918-1.01-1.282-.088.364-.182.823-.27 1.282-.46.369-.922.827-1.288 1.286h-.64v-.641c.364-.921.823-1.744 1.281-2.574v-.64c.187-.64.37-1.286.646-1.926h1.923V69.6h-1.923c-.276-.46-.459-.917-.646-1.282v-1.286h1.927v-1.928h1.287v-.916c.088-.183.183-.276.276-.37.917 0 .917 0 .917-.64-.37.093-.829.182-1.193.37-.183.088-.276.18-.37.27-.275.187-.64.463-.917.646a8.155 8.155 0 0 1-.64-1.287 8.197 8.197 0 0 0-.64 1.287h-1.288v-.646c.183-.458.366-.824.641-1.28h1.287v-1.834h-.64v-.647a80.096 80.096 0 0 0-.647-.64v-.641c.187-.187.37-.458.646-.646a8.15 8.15 0 0 1 .641-1.28c.182-.189.364-.46.64-.646v-1.281c.183-.371.37-.829.642-1.194v-1.287c.645 0 .645 0 .645-1.28h-.645v-.646c.186-.183.369-.46.645-.64-1.01-3.767-1.01-3.767-1.287-8.167l-.64-.641c-.276-.276-.458-.459-.64-.646a47.79 47.79 0 0 1-.553-.822c.641-.183 1.193-.37 1.833-.459v-1.927h.642V35.38h-.642c.094-.276.277-.552.459-.828-.641 0-1.193.094-1.74.182v-.64l-.646-.646v-1.282h1.927a2.14 2.14 0 0 1 .642-.64c-.272-.369-.46-.828-.642-1.193a2.22 2.22 0 0 1 .642-.645c.186-.27.369-.459.645-.642v-1.285a92.525 92.525 0 0 0-.645-.641v-.64c-.272-1.287-.46-2.568-.642-3.767-.276-.27-.458-.457-.64-.64.182-.64.364-1.287.64-1.927h-1.28c-.277.182-.46.37-.647.64v-.64c-.275-.64-.458-1.28-.64-1.928.365-.822.827-1.738 1.286-2.566.183-1.01.365-2.016.641-3.12.182-.183.364-.459.64-.642.183-.457.37-.828.642-1.286.186-.182.369-.458.645-.64v-.64-.647-1.192c.183-.183.364-.459.64-.641h3.761c.187.182.37.458.646.641.365.181.822.37 1.281.552.188.181.37.457.552.64h.641c.458 1.287.828 2.573 1.286 3.855.183 1.468.459 2.937.64 4.405h-.64c-.916.459-.916.459-.64.641v2.568c.182.64.458 1.287.64 1.927.094.64.183 1.287.365 1.839-.365.182-.641.458-1.005.64h-.646c-.182.182-.459.365-.64.641V29.688c.181.188.458.37.64.645-.182 1.005-.459 2.016-.64 3.115-.184.188-.365.37-.553.646.188 2.11.37 4.22.552 6.328v3.12c.459.182.828.458 1.287.646v.64c-.188.182-.46.458-.646.641-.64 0-.64 0-.64 1.287 1.286 0 1.286 0 1.286-.647l.64-.64c.183-.459.459-.823.64-1.281.189-.188.46-.464.646-.646l.642-.64v-.64c-.183-.184-.459-.372-.642-.553v-.641c.183-.646.459-1.287.642-1.927 1.833.276 1.833.276 2.478 1.281-.093.37-.188.828-.276 1.287.276-.459.642-.917.918-1.287v-.64c.364.094.64.182 1.009.275.276-.276.641-.552.917-.916-.188-.276-.458-.459-.641-.647h.641v-.364c-.093-.093-.188-.182-.276-.276l.276-.276v-.364zm0 33.03c-.188.184-.458.365-.641.548h.641v.37a7.7 7.7 0 0 0-.276.275c.088.09.183.182.276.272v.37c-.188-.277-.458-.46-.641-.642h.365c.088.09.183.182.276.272v-.548a7.7 7.7 0 0 0-.276.276h-.365v-.645h.641v-.547zm-38.63 30.37c.646.366 1.286.735 1.928 1.193h-1.928v-1.193zm1.928 1.193c-.642-.458-1.282-.827-1.928-1.193-.182-.921-.459-1.743-.64-2.572-.183-.182-.459-.459-.642-.64v-.64-.648-1.926-.547-.647-.64-2.568c-.186-.182-.457-.458-.64-.64-.828.458-.828.458-1.286 1.922-.46-.183-.828-.459-1.287-.64v-3.762c.183-.457.459-.828.647-1.286v-.64c.18-.183.457-.46.64-.64v-.647c.182-.459.458-.823.64-1.281V80.98c-.182-.459-.458-.918-.64-1.287-.183-.458-.46-.917-.64-1.287v-2.473a7.01 7.01 0 0 1 1.28-.37c-.458-.271-.823-.64-1.28-.916v-.642c-.188-.276-.464-.457-.647-.64v-1.287h-1.192c-.183-.276-.459-.459-.641-.64v-1.286c.182-.183.458-.366.641-.552v-1.282c-.183-.276-.459-.458-.641-.646-.183-.27-.459-.458-.64-.64v-5.047c.181-.459.457-.917.64-1.281.182-.276.458-.46.641-.647v-1.281-.646c-.183-.458-.459-.823-.641-1.28v-.646l.641-.642-.641-.64c0-.551 1.281-.551 1.281-1.193.552 0 .552 0 .552-1.287h-.552c-.823-1.28-1.74-2.566-2.568-3.853-.181-.183-.457-.459-.64-.641v-1.192c.459-.183.828-.459 1.287-.647v-.64-2.568c.181-.183.457-.459.64-.64v-1.193c-.183-.276-.459-.459-.64-.646v-1.28-3.12-.642c.181-.458.457-.922.64-1.286v-.646c.182-.27.458-.458.641-.64.181-.918.457-1.65.64-2.475.188-.276.37-.457.552-.645v-.642c.183-.457.459-.916.647-1.285 1.28.276 1.28.276 1.926 1.285.183.554.454 1.194.64 1.835v1.285h2.568c.37-.276.829-.457 1.287-.64h2.473c.188-.188.46-.464.642-.645h3.853c.188.181.37.457.647.645h.552c.64.183 1.28.364 1.921.64h1.287c0 1.282 0 1.282.641 1.282.181.188.37.37.645.646h.64c-.457.276-.916.64-1.285.916.37.37.828.642 1.285 1.011.183.183.366.364.642.547h1.286c.183.464.364.828.552 1.286.183 1.287.364 2.568.64 3.855V42.901c.183 1.099.366 2.11.641 3.208a14.7 14.7 0 0 0 .646 1.839v.641a8.612 8.612 0 0 0-.646 1.287v.64c-.275 1.286-.458 2.567-.64 3.855-.458.18-.829.364-1.193.552v1.28h-1.286c-.46.187-.918.458-1.282.646-.276.183-.464.458-.645.641-.27.182-.459.458-.641.64-.64.46-1.287.829-1.927 1.287-.641.183-1.281.364-1.833.64h-.647a2.24 2.24 0 0 0-.64.647H86.49c-.917.181-1.74.364-2.569.64-.18.182-.457.365-.64.641-.183.181-.458.37-.64.552v1.281c.182.187.457.463.64.646v1.28c-.183.37-.458.83-.64 1.288.182.828.457 1.65.64 2.568.183.186.46.369.64.552v3.853c-.18.366-.457.823-.64 1.287-.183.546-.458 1.193-.64 1.833l.64.641v.64c.183.37.46.829.64 1.287v.64c-.457.188-.823.37-1.28.647V83.452c-.188.46-.458.829-.646 1.288-.183.459-.364.822-.547 1.286V87.307c.183.183.364.37.547.553v1.927c.188.458.458.822.645 1.28v1.287c.183.183.458.46.641.64.64 0 .64 0 .64 1.194h-1.28c-.188.828-.458 1.745-.646 2.573.188.457.458.822.645 1.281h.641v.646h-1.286v2.568c-.183.093-.364.364-.547.551h-.645zm-56.428-9.453l-.64-.64a57.58 57.58 0 0 1-.642-.646c-.181-.183-.369-.459-.552-.64-.276-.183-.458-.46-.64-.642V88.5c-.276-.182-.458-.458-.646-.64-.271-.37-.458-.828-.64-1.194v-.64-.276c.093-.188.182-.276.276-.37.093-.457.182-.823.364-1.28-.64 0-.64 0-.64 1.004a1.328 1.328 0 0 0-.364.276h-.278a8.197 8.197 0 0 1-.64-1.28c-.188-.83-.458-1.652-.645-2.48H17.407c-.828-.276-1.652-.459-2.48-.64h-.64v-.37c.088-.089.182-.182.27-.277-.088-.181-.182-.27-.27-.364a.717.717 0 0 0-.37.364c-.917 0-1.47-1.005-1.557-.64-.277-.276-.458-.458-.646-.641-.64-.458-1.282-.916-1.834-1.286v-.64c-.276-.184-.459-.46-.64-.64H7.953c-.276-.372-.458-.83-.641-1.194-.276-.276-.457-.464-.64-.645v-1.282-.647a8.518 8.518 0 0 0-1.287-.64v-1.286c-.182-.276-.458-.459-.64-.64-.188-.183-.459-.366-.647-.552v-.641c-.18-.276-.458-.46-.551-.64.093-.647.37-1.287.551-1.929v-.645H2.907v-1.281h.64c.551 0 .551 0 .551-1.287-.458-.088-.822-.183-1.191-.276a3.5 3.5 0 0 1 .64-.916v-.641-.64c.093-.46.37-.923.551-1.287.188-.276.46-.458.647-.641.182-.458.458-.828.64-1.286.183-.183.364-.458.642-.64.18-.646.369-1.288.645-1.927v-.552c.183-.277.364-.46.64-.642-.276-.646-.457-1.287-.64-1.927.183-.182.364-.458.64-.64h.641c.183.182.37.458.645.64V53.083h2.569v-.64-1.282-.645H14.927v3.855c-.64 0-.64 0-.64 1.191h.64c.182.183.365.46.641.642v.645c-.276.183-.459.458-.641.641-.276.182-.458.458-.64.64v1.286a2.178 2.178 0 0 0-.647.64v.648c-.27.181-.457.364-.64.64h-.64a2.16 2.16 0 0 0-.646.641c-.183.181-.365.37-.547.552.182.181.364.457.547.64.188.183.369.459.646.641.181.463.364.829.64 1.286v1.928c-.183.275-.276.64-.37.916l1.01 1.01c.37.183.83.37 1.287.642.182.186.365.369.641.552.187.181.37.364.646.64H18.047v.645c.182.182.458.365.641.641v.64c.187.183.457.371.645.647h1.282v1.927h.64c.188-.464.37-.921.647-1.287h1.833c.182-.457.458-.916.64-1.287h.646c.182-.457.458-.916.64-1.28h.642c.462.181.828.364 1.285.64h2.48c.459-.369.823-.64 1.281-1.01-.458-.088-.822-.183-1.28-.276v-.64c.182-.183.458-.366.639-.552h1.287c.641 0 .641 0 .641-1.282h-.641v-.646c-.188-.27-.459-.458-.646-.64-.182-.276-.458-.459-.641-.642H28.78c.183-.457.46-.916.64-1.286h3.215v-.64-1.287h-1.287v-1.192-1.281-.647c.187-.276.458-.457.646-.64v-.641c-.188-.458-.459-.828-.646-1.286l-.641-.64c-.181-.189-.457-.46-.64-.646-.188-.183-.459-.46-.647-.642-.823-.182-1.65-.458-2.473-.64-.183-.187-.458-.37-.645-.551a8.285 8.285 0 0 0-1.282-.642 8.775 8.775 0 0 0-1.286-.646v-.64c1.286-.182 2.568-.458 3.853-.64-.276-.183-.457-.459-.64-.642-.458-.187-.828-.462-1.287-.645v-.64l-.64-.641h-1.928v-1.84c-.181-.275-.369-.458-.552-.64h-1.286a2.14 2.14 0 0 0-.64.64v1.194c-.642 0-.642 0-.642-1.194h-1.285c-.183-.275-.459-.458-.641-.64v-.646h.641v-1.921H17.407c-.647-.188-1.287-.464-1.839-.646-.459-.458-.917-.824-1.282-1.28-.276-.184-.458-.372-.646-.553-.916.181-1.738.37-2.473.552-.276-.183-.46-.37-.646-.552v-.641c.646 0 .646 0 .646-1.287h-.646c-.64-.276-1.28-.457-1.923-.64v-.647c.366-.18.823-.457 1.282-.64v-.276c.093-.182.183-.27.276-.364 1.01 0 1.01 0 1.01-.646-.458.093-.915.188-1.286.37a1.207 1.207 0 0 0-.364.276H9.24c-.276-.182-.459-.458-.642-.646h-.645c-.458-.183-.917-.364-1.281-.547h-.645v-.641c.369-.276.828-.458 1.285-.646.183-.276.365-.458.641-.64v-1.286l-.641-.642c-.457.183-.916.366-1.285.642-.278-.276-.459-.459-.642-.642v-3.12c-.182-.64-.458-1.285-.64-1.926-.188-.276-.459-.459-.647-.64-.18-.276-.458-.459-.551-.647-.271-.64-.454-1.281-.64-1.921-.276-.37-.46-.828-.642-1.199.183-.27.366-.457.642-.64v-.64c-.276-.276-.46-.459-.642-.647-.64 0-.64-1.28-1.286-1.28-.271-.277-.458-.46-.64-.64v-.648h1.287c.18.183.364.46.64.647h.64v-3.213c.187-.183.37-.37.64-.552v-1.282c.094-.458.371-.828.552-1.286.188-.183.46-.459.647-.642.182-.64.458-1.286.64-1.926.183-.188.364-.459.642-.64h1.285c.09.364.09.364.641-.647V7.485 6.204v-.647H9.24v1.287h1.927c.182.182.364.458.547.641.188-.183.369-.459.646-.641.364-.64.823-1.287 1.28-1.927v-.641h2.574V2.99h.64c.182.458.365.828.553 1.286V5.557h1.926v.647h.64c.366-.188.824-.459 1.282-.647h.647v.647c.363.181.822.457 1.191.64h.642c.182.458.458.822.64 1.193.188.181.464.457.646.64l.64-.64h.642c.462.181.828.457 1.285.64h.641v.647c-.641 0-.641 0-.641 1.28h.641c.183.182.37.458.552.646l.64.64c.188.46.46.823.647 1.282.183.188.459.37.64.646.183.182.459.364.641.64.187-.276.458-.458.646-.64.182-.276.458-.458.641-.646h1.927c.182-.182.364-.459.552-.64h.64v.64c-.916 3.308-1.104 4.5 0 7.614.182.188.459.371.64.647v4.4c.184.188.46.37.646.647-.186.364-.462.822-.645 1.281-.182 1.656-.459 3.396-.641 5.047v1.286c-.182.182-.458.364-.64.64v1.834c-.188.188-.37.464-.552.646v1.28c.182.188.364.46.552.647-.188.364-.37.823-.552 1.281-.277-.27-.459-.458-.642-.64v-.64c-.186-.189-.462-.46-.645-.648-.183-.18-.459-.457-.64-.64l-.641-.64v-.646c-.188-.183-.459-.364-.646-.547a8.234 8.234 0 0 0-1.28-.641c-.189-.276-.46-.458-.648-.646-.64-.276-1.28-.458-1.833-.64v-1.286c.183-.459.37-.918.641-1.282h.552a45.724 45.724 0 0 0-.552-1.838V26.48v-.647-.64c-.27-.276-.458-.459-.641-.641v-1.839c-.276-.457-.457-.916-.64-1.28-.183-.276-.458-.459-.645-.647-.824-.27-1.74-.458-2.568-.64-.183-.458-.459-.822-.642-1.28-.181-.189-.369-.465-.552-.648v-.64c.552-.182 1.194-.458 1.834-.64v-.646l-.64-.64c-.183-.183-.459-.37-.642-.552h-1.191c-.918-.459-1.746-.918-2.569-1.282 0-.646 0-.646-1.926-.646v.646h-.552c-.276-.276-.46-.458-.641-.646-.46.188-.922.37-1.287.646l.641.64a14.362 14.362 0 0 0-.641 1.834c-.276.188-.458.464-.64.645h-.647c-.27.459-.457.824-.64 1.281-.276.183-.459.46-.64.647 0 .64 1.28.64 1.28 1.281-.27.37-.457.828-.64 1.287-.276.364-.459.823-.64 1.28v1.199c.181.182.364.458.64.64v.641l.64.64v.647c.188.364.37.822.646 1.281v.645l.64.64c.183.371.366.83.642 1.287 0 .548 0 .548 1.287.548v-.548-.645c.181-.459.364-.918.552-1.282H18.688c.187.183.457.364.645.64v.642c-.188.552-.458 1.193-.645 1.838v1.282c.187.182.457.37.645.64v1.286c.183.188.364.37.64.646l.642.641h.64c.37.183.828.364 1.286.547h.552c.183.188.46.464.642.646l.64.64c.188.183.464.46.646.64h.64c.183.188.459.46.642.647.187.183.462.364.645.64.183.183.364.37.64.641.552.37 1.193.828 1.833 1.287.46.181.83.37 1.287.552.828.181 1.745.457 2.568.64h1.287v1.927c.182.182.364.458.552.641l.64.64c.182.188.459.464.64.647.184.364.46.822.646 1.192.183.182.454.458.642.641.64-.365 1.281-.823 1.926-1.194h.642v2.48c-.278.182-.459.458-.642.64v1.287c.823.183 1.65.46 2.568.64-.458.183-.917.46-1.286.641v.646c.188.183.369.365.645.642V56.204h.641c.183-.183.364-.46.552-.642h.64v.642c.183.186.46.457.641.645h.646l.641.641V59.416c-.182.184-.458.365-.64.64H43.37c-.182.189-.458.372-.64.648.182.181.458.364.64.64v4.401c.182.188.458.37.64.645v.642c.187.182.46.37.646.64v3.765c.183.182.459.365.641.641l.64.64c.183.183.37.371.642.647.186.364.369.823.645 1.282.183.369.364.827.64 1.286-.276.364-.457.823-.64 1.192-1.927-.916-1.927-.916-2.568-1.833-.187-.276-.459-.464-.646-.645 0-.642 0-.642-1.28-.642v1.287h-.553c-.641.182-1.286.365-1.926.641h-.642c-.458.181-.828.364-1.286.552-.183.181-.459.457-.64.64-1.104.182-2.11.458-3.12.641a2.14 2.14 0 0 0-.642.64c-.645.188-1.285.37-1.926.646-.646.183-1.287.365-1.927.64-.188.37-.459.83-.647 1.288-.364.181-.823.364-1.192.64v.552c-.458.182-.917.458-1.281.641v1.927H25.66v8.254c-.182.189-.458.371-.64.647-.182-.458-.458-.828-.646-1.287zm40.557-.64c-.187-2.11-.459-4.224-.646-6.334-.458-1.651-.822-3.395-1.28-5.047-.183-.27-.37-.457-.553-.64v-.641-1.927-.64-1.193-1.287c-.458-.276-.917-.457-1.281-.64v-2.573-1.833-2.569c-.276-.457-.464-.916-.645-1.286-.276-1.1-.459-2.11-.642-3.119v-1.281-1.287l-.64-.641c-.276-.187-.459-.458-.647-.646v-.64c-.275-.183-.458-.458-.64-.64v-.646c.182-.183.365-.46.64-.642h.647c.182-1.191.364-2.479.64-3.76v-1.286a8.087 8.087 0 0 1-.64-1.281 9.075 9.075 0 0 1-.647-1.287v-1.839h1.287v1.286c-.64 0-.64 0-.64 1.194 1.282 0 1.282 0 1.282-.641v-4.406c-.276-.182-.459-.458-.642-.64-.276-.184-.458-.46-.64-.64v-.553a63.193 63.193 0 0 0-.647-.641v-.646c-.275-.27-.458-.458-.64-.64v-.64-.648-.64c.182-.182.365-.458.64-.64.188-.182.371-.458.647-.646.182-.183.364-.364.64-.547v-1.287c.183-.276.366-.458.642-.64h.645c.183-.276.364-.458.64-.646.365-.27.824-.458 1.193-.64h.64c.183.182.46.37.641.64h1.928l.646.646v.64c.181.37.364.828.64 1.287V38.494c.183.188.37.46.64.647-.27.364-.457.823-.64 1.281v.646c.183.822.37 1.65.64 2.474h.553v.646c-.183.182-.365.458-.553.64-.27.824-.457 1.745-.64 2.567-.276.371-.459.829-.64 1.194v1.287c-.646 0-.646 0-.646 1.285h.646c.181.824.364 1.652.64 2.568v1.194a8.02 8.02 0 0 0-.64 1.28v6.974h-.646v3.213h.646v.642c-.646 0-.646 0-.646 1.286h.646v2.474c.181.645.364 1.286.64 1.926v13.308a2.08 2.08 0 0 0-.64.64V91.713c-.276.182-.458.459-.646.641-.46-.182-.823-.459-1.282-.64zm9.448-1.286c.459.181.828.457 1.287.64 0 .645 0 .645-1.287.645v-1.285zm-50.645-1.281V88.5h.64v.647h-.64zm29.177-1.287h1.285a6.961 6.961 0 0 0-.369 1.287c-.276-.464-.64-.829-.916-1.287zm13.948 1.287v-1.84h.64v1.84h-.64zm15.135 0V87.86c.645 0 .645 0 .645 1.287h-.645zm19.729-.647v-.64h.64v.64h-.64zm-48.812-.64c-.276-.183-.459-.37-.641-.553v-1.28c-.276-.189-.459-.465-.646-.647v-.64c-.27-.183-.458-.46-.641-.64-.181-.188-.457-.46-.552-.647v-.64c-.27-.183-.459-.459-.64-.641v-.553c.181-.458.37-.915.64-1.286v-.64c-.27-.458-.459-.917-.64-1.287-.276-.27-.459-.458-.641-.64v-3.12-.641-.64c-.276-.276-.458-.464-.646-.647-.27-.457-.458-.916-.641-1.28-.276-1.286-.457-2.573-.64-3.766v-.64a93.872 93.872 0 0 0-.645-.642v-5.046-.64-.647c.186-.457.369-.822.645-1.281v-.646h.64V53.73h-.64a8.594 8.594 0 0 1-.645-1.287c0-.64-1.282-.64-1.282-1.28-.182-.188-.458-.463-.64-.646v-2.568-1.192-.647-1.921-.646l.64-.64v-.64c-.182-.184-.458-.372-.64-.553-.188-.276-.46-.459-.647-.641.187-.459.46-.916.646-1.287.183-.457.459-.828.641-1.287v-.64l-.64-.64c-.188-.182-.46-.458-.647-.646V35.38v-1.932c.187-.27.46-.458.646-.64v-2.475-3.213H43.37v-1.927-3.12c-.181-.64-.457-1.287-.64-1.927.183-.276.459-.458.64-.64v-1.288c-.181-.457-.457-.822-.64-1.28v-.646c-.188-.183-.37-.459-.552-.64v-1.194c.552 0 .552 0 .552-1.286h-.552v-.64-.642H43.37v-.64c.183-.188.46-.464.641-.646v-.64-.64c-.182-.188-.458-.459-.64-.647v-.64-.552c.182-.641.458-1.281.64-1.928.187-.181.46-.457.646-.64v-.641c.183-.187.459-.458.641-.646v-.64c.823-.182 1.65-.458 2.567-.64h.641c.188.182.37.458.646.64.182.182.365.458.641.64h1.833c.187-.182.37-.458.646-.64.182-.182.365-.458.641-.64.181-.184.37-.37.64-.553.188-.459.37-.916.645-1.287h.642c.182.371.364.828.64 1.287v.552c-.276.183-.458.459-.64.641v.64c-.276.188-.459.46-.642.646v.641c-.645 0-.645 0-.645 1.287h.645v.64c.183.182.366.458.642.641.364-.183.822-.459 1.286-.641.182.182.365.458.64.641-.275.181-.458.37-.64.552-.276.181-.464.457-.646.64-.276.188-.458.459-.64.647v.64c-.276.182-.459.458-.642.64v2.568c-.276 1.104-.457 2.11-.645 3.12v.645c-.27.183-.459.459-.64.641v1.287c.181.181.37.364.64.64v.641c.188.182.37.37.645.64v.647h.642c.182-.276.364-.459.64-.647h.646v1.287c-.276.183-.464.37-.646.64v6.975h-1.282c-.18-.364-.18-.364-.645.645v1.193c-.27 1.006-.459 2.11-.64 3.208.181.188.37.37.64.646v8.162h1.287v.646c.182.182.364.458.64.64v.641c-.276.828-.458 1.65-.64 2.479a8.062 8.062 0 0 0-.642 1.287c-.276.182-.457.458-.645.64v.64c.188 1.287.37 2.568.645 3.856-1.285.552-1.285.552-1.285 1.191h1.927v.642c.182.186.364.457.64.645.182.183.37.458.646.641-.276.182-.464.458-.646.64v.646c-.64 0-.64 0-.64 1.28h.64v2.205a1.205 1.205 0 0 0-.364.276H53.552v15.87h.645v.645l.642.64v3.121c.182.458.364.828.64 1.287v.64c-.276.183-.458.459-.64.64v.646c-.276.364-.459.823-.642 1.281v.553h-1.285zm-27.25-.553v-1.28c.64 0 .64 0 .64 1.28h-.64zm50.645 0c.37-.458.646-.917 1.01-1.28.09.363.183.822.276 1.28h-1.286zm31.745-1.28v1.28h-.64c0-1.28 0-1.28.64-1.28zm-88.079-.647h.278c.088.094.18.182.364.37v.276c-.276-.188-.459-.464-.642-.646zm6.975-.64H28.229c.183.183.37.459.552.64-.369.094-.822.182-1.193.37a6.328 6.328 0 0 1-.64-1.01zm-6.333 1.01c-.183-.188-.276-.276-.364-.37.088-.088.18-.181.364-.276.093.095.182.188.276.276-.094.094-.183.182-.276.37zm.276-.37c-.094-.088-.183-.181-.276-.276 0-1.004 0-1.004.64-1.004-.182.457-.271.823-.364 1.28zm6.057-.64v-.64c.183.18.364.457.64.64h-.64zm73.49 0v-.64h1.286v.64h-1.287zm-70.37-1.287h1.281c0 .647 0 .647-1.28.647v-.647zM67.5 84.1V72.718h.64V84.1h-.64zm-37.432-.647v-1.281h.64l.641.641v.64h-1.28zm71.656 0v-.64h1.193v.64h-1.193zM29.421 80.98c.188-.459.46-.918.647-1.287.183.828.459 1.651.64 2.479h-.64c-.188-.37-.459-.828-.647-1.192zM12.36 79.693c.088-.365.64.64 1.557.64.093.095.181.188.37.276v.37H12.36v-1.286zm1.926.916c-.188-.088-.276-.181-.369-.276a.717.717 0 0 1 .37-.364c.088.093.182.183.27.364-.088.095-.182.188-.27.276zm5.687-.276v-1.281h.642v1.281h-.642zm79.824 0c-.276-.27-.458-.457-.64-.64v-.641c.182-.916.364-1.745.64-2.567h.276l.364.364v3.484h-.64zM9.88 77.766c.552.37 1.193.828 1.834 1.286H9.88v-1.286zm52.573-.64v1.926h-.641v-1.927h.641zm44.959 1.926v-1.286c.64 0 .64 0 .64 1.286h-.64zM54.197 62.537v15.87h-.645v-15.87h.645zm-43.03 15.23v-.642h1.193v.641h-1.193zm36.057-.642c.183-.37.364-.828.64-1.192h.641v1.833c-1.281 0-1.281 0-1.281-.64zm53.213.641v-.917c.094-.183.183-.276.277-.364h.365a8.476 8.476 0 0 0-.642 1.281zm-93.765-.64c.183-.184.364-.46.64-.64h.641c-.276.18-.458.456-.641.64h-.64zm93.765-.277l-.364-.364c.088-.095.182-.188.364-.276.094.088.183.181.277.276a1.197 1.197 0 0 0-.277.364zm-93.125-.364v-1.193c.183.365.365.822.641 1.193h-.641zm55.141-1.193v1.193c-.641 0-.641 0-.641-1.193h.641zm37.344 1.193c.182-.188.364-.37.64-.552v.276a1.106 1.106 0 0 0-.364.276h-.276zm-24.77-.552v-1.286c.457.276.822.645 1.28.915a7.01 7.01 0 0 0-1.28.371zm-54.412-.641v-.645c.182.18.369.369.64.645h-.64zm.64 0c-.271-.276-.458-.464-.64-.645v-1.282c.369.183.828.364 1.287.64-.277.366-.46.823-.647 1.287zm21.474 0v-1.287c1.281 0 1.281 0 1.281.642-.458.18-.822.369-1.28.645zM6.672 73.365v1.282c-.645 0-.645 0-.645-1.282h.645zm92.484 1.282c.09-.46.183-.918.27-1.282.371.364.647.823 1.011 1.282h-1.28zm-25.968-2.569h1.192v1.287c-.364-.464-.735-.923-1.192-1.287zm-46.885-.64c0-.646 0-.646 1.285-.646v1.286a7.996 7.996 0 0 0-1.285-.64zm3.765.64v-1.286c.459.093.823.188 1.281.276-.458.37-.822.641-1.28 1.01zm42.479-1.926v1.285c-.64 0-.64 0-.64-1.285h.64zm43.672.64h.645v.645c-.187-.276-.462-.457-.645-.645zm-55.047-1.833v1.833h-.645v-1.833h.645zm5.688 1.833V69.6c.64 0 .64 0 .64 1.192h-.64zm32.296-.64V69.6h1.923v.552h-1.923zM31.995 69.6v-1.282h.641c0 1.282 0 1.282-.641 1.282zm75.417-1.928c.37.37.828.828 1.192 1.287h-1.192v-1.287zm6.88 1.287c.37-.276.645-.46 1.01-.64.094.087.182.18.277.275v.365h-1.287zm1.287-.365c-.095-.094-.183-.188-.276-.276.093-.188.18-.276.276-.37.088.094.18.182.364.37a1.108 1.108 0 0 0-.364.276zM2.907 65.744h.64c.093.19.37.37.551.646-.18.642-.458 1.282-.551 1.928-.271-.188-.547-.37-.823-.552 0-.64.093-1.376.183-2.021zm63.953 1.288v1.286h-.646c0-1.286 0-1.286.646-1.286zm31.01 0h.64v1.286c-.275-.458-.458-.917-.64-1.286zm1.286 1.286v-.646h.641v.646h-.64zm-91.203-.646v-.64H9.24v.64H7.953zm5.047-.64v-1.928h.64v1.928H13zm83.036-.642h1.193c0 .642 0 .642-1.193.642v-.642zm1.833.642v-.642h.641v.642h-.64zm.641 0v-.642c.187-.645.37-1.286.646-1.926.183-.46.365-.828.641-1.287.182.459.364.828.64 1.287v2.568H98.51zm15.782 0v-.642h.645v.642h-.645zM3.547 65.745h.551v.645c-.18-.276-.458-.457-.551-.645zm30.374.645v-.645h.642v.645h-.642zm32.939-3.213v3.213h-.646v-3.213h.646zm29.176 3.213v-.645h.641c.183-.27.364-.459.552-.641.183.37.364.83.64 1.286H96.036zm1.833 0c-.276-.457-.457-.916-.64-1.286.183-.276.364-.457.64-.64h1.287c-.276.64-.459 1.28-.646 1.926h-.64zM9.24 65.104v-.64h.64v.64h-.64zm20.181 0c.188-.276.46-.457.647-.64h1.281v.64h-1.928zm71.016 0v-.64c.277-.183.642-.46.918-.646l.369.37v.916h-1.287zm-70.369-.64c0-.646 0-.646 1.281-.646v.646h-1.28zm71.656-.276l-.37-.37c.094-.09.187-.182.37-.27.088.088.183.18.276.27-.093.094-.188.187-.276.37zm-95.697-.37v-.64h1.285v.64H6.027zm49.452-.64V62.9c.094-.183.182-.276.276-.364h.37c-.552 1.01-.552 1.01-.646.64zm46.521.64c-.093-.09-.188-.182-.276-.27.364-.188.823-.277 1.193-.37 0 .64 0 .64-.917.64zm-69.364-.64v-.64h1.285c-.462.18-.828.456-1.285.64zm22.203-.64h.276c.088.087.182.18.364.363v.276c-.276-.183-.458-.459-.64-.64zm.64.363l-.364-.364c.088-.095.182-.183.364-.276l.276.276a1.233 1.233 0 0 0-.276.364zm-26.058-.364v-.552h.647v.552h-.647zm3.215 0v-1.193h1.285v1.193h-1.285zm23.119 0a23.43 23.43 0 0 0-.276-.276v-.917c.182.365.37.822.646 1.193h-.37zm43.401 0v-1.833h.641v1.833h-.64zM31.35 60.704v1.281c-.641 0-.641 0-.641-1.281h.641zm28.536 0v1.281c-.64 0-.64 0-.64-1.281h.64zm40.552.64v-.64h.642v.64h-.642zM55.48 58.776v1.28h-.64c0-1.28 0-1.28.64-1.28zm44.318.64V58.13h.64v1.287h-.64zM47.224 58.13V53.73h.64v4.401h-.64zm-2.568-1.28c.917.457.917.457.641.64l-.64-.64zm68.442.64v-.64h.642v.64h-.642zM12.36 56.85v-.646h1.28v.645h-1.28zm101.932 0v-1.927h.645v1.926h-.645zm-72.756-.646v-.642h.641v.642h-.641zm.641 0v-.642h.552c-.188.183-.37.46-.552.642zm54.5 0v-1.281c.552 0 .552 0 .552 1.28h-.552zm-84.963-1.281v.64c-1.193 0-1.193 0-1.193-.64h1.193zm3.213-.552v1.191h-.64c0-1.191 0-1.191.64-1.191zm26.609 1.191v-1.191c.183.18.366.364.641.552v.64h-.641zm.641 0v-.64h.552v.64h-.552zm.552 0v-.64l.64.64h-.64zm11.468-1.191c.183.364.366.733.642 1.191h-1.927c0-.64 0-.64 1.285-1.191zm19.631-.642c0 .642-1.281.642-1.281 1.194-.64 0-.64 0-.64-1.194h1.921zm10.093 1.194c-.18-.188-.457-.371-.64-.552-.183-.277-.458-.46-.64-.642-.188-.276-.458-.458-.646-.646-.183-.182-.364-.458-.547-.64v-.64c.364-.183.735-.459 1.192-.642l.641.641h.64c.188 1.1.46 2.11.642 3.12h-.642zm3.215-.552h1.28c0 .552 0 .552-1.28.552v-.552zm-1.928-1.288a77.294 77.294 0 0 0-.645-.64v-.64c-.183-.183-.454-.459-.642-.642v-.645a120.73 120.73 0 0 0-.64-.64h-.64c.182-.83.457-1.652.64-2.48 0-.64 0-.64-1.286-.64v.64c-.183.37-.364.828-.547 1.193-.276-.641-.458-1.282-.645-1.833v-.647a8.7 8.7 0 0 1 .645-1.281v-.64-.646-.64-.64-1.194-1.287c.183-.276.364-.457.547-.64.458-.188.828-.459 1.286-.647.183-.18.46-.457.64-.64h3.855c.64.183 1.287.46 1.839.64 0 .647 1.28.647 1.28 1.287v1.287c.184.182.37.365.641.641v.552c.188.823.37 1.739.647 2.567v1.281c-.276.188-.459.464-.647.647-.457.458-.457.458 0 2.479-.27.182-.457.458-.64.64v1.286l-.641.641c-.458.183-.828.46-1.192.64a8.81 8.81 0 0 0-.647 1.287v.642h-1.28c-1.287-.366-1.287-.366-1.928-1.288zm-11.38.646v-1.287h.552c0 1.287 0 1.287-.552 1.287zm20.921 0v-1.287h.642v1.287h-.642zM8.6 52.442h2.568v.641H8.598v-.64zm92.48 0v-1.28h.645c0 1.28 0 1.28-.645 1.28zm-19.631-.64v-1.286c1.192 0 1.192 0 1.192.645-.457.183-.828.459-1.192.641zm2.473 0v-.64c.188.182.46.458.642.64h-.642zm25.97 0v-1.286c.458.093.823.183 1.28.37-.457.275-.822.64-1.28.916zM66.86 49.876v1.285h-.646c0-1.285 0-1.285.646-1.285zm-54.5.64v-.64h2.567v.64H12.36zm34.219-1.281c-.272.182-.46.458-.642.64-.64 0-.64 0-.64-1.286 1.282 0 1.282 0 1.282.646zm-.642.64c.183-.182.37-.458.642-.64v.64h-.642zM20.615 48.59v-.641c.369.365.828.641 1.287 1.01-.46-.187-.918-.275-1.287-.369zm6.333.646v-.646h.64v.646h-.64zm13.303 0v-1.84h.64v1.84h-.64zm19.634-1.84c.183.183.366.371.642.553 0 .641 0 .641-1.282.641 0-1.194 0-1.194.64-1.194zm-15.229-.64v1.193c-.646 0-.646 0-.646-1.192h.646zm15.23-.646h-1.288v1.839h-.64v-2.479h1.927v.64zm42.478 1.839v-.553h.553v.553h-.553zm-72.296-.553v-.64h1.281v.64h-1.28zm51.927 0v-.64c1.286 0 1.286 0 1.286.64h-1.286zm27.25-1.926c.187.183.458.459.646.64 0 .647 0 .647-1.287.647 0-1.287 0-1.287.641-1.287zm-91.198.64v-1.921h.641v1.921h-.641zm26.61-1.921v1.921h-.647v-1.921h.646zm64.588 1.281h.37c.088.093.182.183.276.37v.27c-.188-.181-.46-.457-.646-.64zm.646.64v-.27a.704.704 0 0 1 .364-.37h.276l-.64.64zm0-.27c-.094-.187-.188-.277-.276-.37.088-.09.182-.183.276-.27.088.087.182.18.364.27a.704.704 0 0 0-.364.37zm-.646-.37c.187-.183.458-.459.646-.641v.37c-.094.088-.188.182-.276.271h-.37zm1.01 0a1.248 1.248 0 0 1-.364-.27v-.371-.64c.364-.188.64-.464 1.005-.646.094.094.187.182.276.37v.276c-.182.458-.458.822-.641 1.281h-.276zm-58.63-.641v-.64h.646v.64h-.646zm56.98-1.286h1.286c0-1.28 0-1.28.64-1.28.183.18.459.456.64.64v.368c-.088.09-.181.183-.275.272-.365.182-.641.458-1.005.646-.46-.188-.828-.464-1.287-.646zm2.567.646v-.276a.728.728 0 0 1 .37-.37h.275c-.186.182-.457.458-.645.646zm0-.276c-.09-.188-.182-.276-.276-.37.094-.089.187-.182.276-.272.093.09.188.183.37.272a.728.728 0 0 0-.37.37zm-84.224-.37v-.64h.64v.64h-.64zm7.615 0v-.64h.552c-.188.182-.37.458-.552.64zm18.99-8.162c.368 2.75.827 5.412 1.286 8.162h-1.287V35.38zm57.988 8.162c-.181-.089-.276-.182-.37-.272v-.369-.64c.189-.183.46-.37.646-.552.183.181.459.37.642.552v.64l-.642.641h-.276zm-91.568-.64v-.64h.642v.64h-.642zm13.948 0c.183-.184.365-.46.642-.64v.64h-.642zm.642 0v-.64h.552v.64h-.552zm74.041 0v-2.48h.641v2.48h-.64zm1.927-.64h.64v.64c-.181-.184-.457-.46-.64-.64zm.64 0c.189-.372.46-.829.646-1.194v.641c-.186.181-.457.37-.645.552zm-86.796-.553v-1.287h.646v1.287h-.646zm90.562-1.287h.642c-.276.37-.642.828-.918 1.287.088-.459.183-.917.276-1.287zm-104.416.646V39.78h.646c0 1.287 0 1.287-.646 1.287zm34.135-1.287c-.187.37-.459.828-.646 1.287-1.833-.646-1.833-.646-1.833-1.287h2.48zm36.792 0v1.287c-.645 0-.645 0-.645-1.287h.645zm31.65.641v-.64h.642v.64h-.642zm-60.827-2.568v1.927h-.646v-1.927h.646zm0 1.927v-1.927h.641v1.927h-.641zm19.636-3.76v3.12h-.647v-3.12h.647zM9.24 37.214h.276c.088.094.181.182.364.364v.276c-.276-.182-.459-.458-.64-.64zm74.681.64v-.64h3.215v.64h-3.215zm-74.04-.276c-.184-.182-.277-.27-.365-.364.088-.094.181-.182.364-.277.093.095.183.183.276.277-.093.094-.183.182-.276.364zm.275-.364c-.093-.094-.183-.182-.276-.277.37-.181.828-.276 1.287-.37 0 .647 0 .647-1.01.647zm90.281 0V35.38h.642v1.834h-.642zM44.01 35.38v1.188c-.64 0-.64 0-.64-1.188h.64zm50.74.641c.182-.276.365-.459.64-.641v1.188a3.882 3.882 0 0 1-.64-.547zm.64.547V35.38a2.19 2.19 0 0 1 .646-.646c.183.552.366 1.194.641 1.834h-1.286zm-.64-2.474l.64.64v.646a2.096 2.096 0 0 0-.64.641c-.458-.37-.917-.641-1.286-1.01.37-.277.828-.64 1.285-.917zm.64 1.286v-.646h.646a2.19 2.19 0 0 0-.645.646zm3.766-.646c.547-.088 1.099-.182 1.74-.182-.182.276-.365.552-.459.828-.458-.276-.916-.458-1.28-.646zm-93.77-2.568c.182.183.363.366.64.642 0 .64 0 .64-1.28.64 0-1.282 0-1.282.64-1.282zm93.124 0v1.282c-.64 0-.64 0-.64-1.282h.64zm-18.349 0v-1.285c1.287 0 1.287 0 1.287.645-.458.183-.917.364-1.287.64zm18.35 0c.645-.276 1.286-.457 1.926-.64v.64H98.51zm1.926 0v-.64h.642a2.14 2.14 0 0 0-.642.64zm-37.984-1.285h1.192c0 .645 0 .645-1.192.645v-.645zm37.984.645v-1.193c.183.365.37.824.642 1.193h-.642zm-84.869-1.193h1.287v.548c-1.287 0-1.287 0-1.287-.548zm44.959.548c-.276-.183-.459-.365-.642-.548-1.287-.37-1.287-.37-2.109-1.192.088-.923.088-1.839.183-2.661h.64v-3.12h-.64v-.647c.64-.27 1.286-.457 1.926-.64h.642c.18-.276.369-.459.645-.64v-1.287h2.473c.183.182.46.37.641.64.46.188.829.371 1.287.647.182.181.37.364.64.64h2.48v1.287c-.183.552-.365 1.192-.553 1.833h-.64v1.927h.64c.188.182.37.365.553.641-.183.37-.365.828-.553 1.285h-1.28a62.03 62.03 0 0 0-.646-.64c-.271.183-.46.364-.64.64-.183.183-.46.371-.642.642v.645c-.187.183-.459.365-.646.548H60.527zm24.68 0c0-.548 0-.548 1.929-.548v.548h-1.928zM43.37 27.12h1.287v3.213c-.459-1.104-.828-2.203-1.287-3.213zm10.183 3.213c.464-1.01.464-1.01.645-.645-.276.188-.457.37-.645.645zm55.052-.645c1.01.458 1.01.458.641.645-.182-.276-.459-.457-.64-.645zM28.23 26.48v3.208h-.641V26.48h.641zm27.25 3.208v-1.282c.646 0 .646 0 .646 1.282h-.646zm11.38-.642h1.281c0 .642 0 .642-1.28.642v-.642zm41.745-1.285V26.48c.641 0 .641 0 .641 1.281h-.64zM52.912 26.48h1.285c0 .64 0 .64-1.285.64v-.64zm15.228-1.287v1.927h-.64v-1.927h.64zM45.937 26.48v-.647h.642v.647h-.642zm6.975 0v-.647-.64c0-.641 0-.641 1.285-.641v1.928h-1.285zm5.047 0v-3.12h.64v3.12h-.64zm-14.59-4.407v3.12h-.64v-3.12h.64zm-41.104.64c.183.37.366.83.642 1.199H1.626c0-1.199 0-1.199.64-1.199zm5.688 1.199v-.552h.645v.552h-.645zm60.74-.552v-1.287c.64 0 .64 0 .64 1.287h-.64zm29.817-.647h.276c.094.095.183.188.37.277v.37l-.646-.647zm.646.647v-.37c.09-.089.183-.182.27-.277h.371c-.276.188-.458.37-.64.647zm0-.37c-.187-.089-.276-.182-.37-.277a.725.725 0 0 1 .37-.364c.09.093.183.183.27.364-.087.095-.18.188-.27.277zm-.646-.277v-.64h.646v.276a.725.725 0 0 0-.37.364h-.276zm.917 0c-.088-.181-.182-.27-.27-.364v-.276h.64v.64h-.37zm.37 0v-.64c.182.183.364.37.64.64h-.64zm-1.928-1.28h.641v.64l-.64-.64zm.641.64v-.64-.647c.187-.27.37-.458.646-.64H100.437c-.276.64-.458 1.287-.64 1.927H98.51zm-.64-.64v-.647h.64v.647h-.64zm0-.647a2.15 2.15 0 0 1 .64-.64v.64h-.64zm-94.963-1.92h1.191c-.088.458-.18.822-.275 1.28-.276-.458-.64-.822-.916-1.28zm10.733 1.28c0-.64-1.28-.64-1.28-1.28h1.926v.64a2.179 2.179 0 0 0-.646.64zm11.381-.64v-.64c.64.087 1.282.18 1.927.275-.917.64-.917.64-1.927.364zm75.416 0v-.64h.642v.64h-.642zm3.12 0v-.64h.64v.64h-.64zM1.626 18.217H.339c.369-.18.828-.457 1.287-.64v.64zm96.243 0v-2.566h1.287a33.918 33.918 0 0 0-1.287 2.566zm12.662-1.28l-.64.64c-.276-.182-.276-.182.64-.64zm-96.245 0c.183-.182.365-.458.64-.646.277.188.277.188-.64.645zm-9.54-.646v-.64h.64v.64h-.64zm20.915-.64a2.035 2.035 0 0 1-.458-.735c.365-.183.734-.365 1.1-.459-.183.366-.46.823-.642 1.194zm-6.328-1.834c.823.364 1.65.823 2.569 1.282h-2.569v-1.282zm22.844.64v-1.286h.552c0 1.286 0 1.286-.552 1.286zm-24.77-.64v-.646c1.926 0 1.926 0 1.926.646h-1.926zm-5.047-1.286V11.25H13v1.282h-.64zm11.375 0v-.642h.64v.642h-.64zm19.634-.642h.641v.642l-.64-.642zm65.876-3.213h1.286v3.855c-.458-1.282-.828-2.568-1.286-3.855zM42.73 11.89c.183-.18.459-.457.64-.64v.64h-.64zm-14.5-2.566v1.28h-.641c0-1.28 0-1.28.641-1.28zm-20.917 0c.183-.188.365-.459.641-.647-.551 1.01-.551 1.01-.641.647zm96.885.64v-.64h1.928v.64h-1.928zM26.303 8.037H27.588v.64c-.457-.183-.823-.459-1.285-.64zm1.285.64v-.64c.917.457.917.457.641.64h-.641zm-1.927-.64c.183-.183.459-.37.642-.552v.552h-.642zm.642 0v-.552c.187.181.462.37.645.552h-.645zm.645 0c-.183-.183-.458-.37-.645-.552 0-.641 0-.641 1.285-.641v1.193h-.64zM7.953 6.204v1.281c-.641 0-.641 0-.641-1.281h.641zm48.812 1.281c-.275-.183-.458-.459-.64-.641 0-.64 0-.64 1.192-.64 0 1.281 0 1.281-.552 1.281zM9.88 6.844c0-.64 0-.64 1.287-.64v.64H9.88zm92.484 0c0-.64 0-.64 1.193-.64v.64h-1.193zM54.197 4.917v1.287h-.645c0-1.287 0-1.287.645-1.287zm-46.244.64c0-.64 0-.64 1.287-.64v.64H7.953zm6.974-1.281c.365-.458.828-.828 1.287-1.286v1.286h-1.287z"/>
      <path d="M117 36.996V47.177h.64c.183-.276.459-.458.641-.64.646 0 .646 0 .646-1.286h1.281c.094-.183.37-.459.552-.642.459-.64.828-1.285 1.287-1.926v-.64-.552c.182-.276.458-.459.641-.642.181-.276.457-.458.64-.645v-.365c-.088-.094-.183-.182-.27-.276.087-.182.182-.276.27-.364.093.088.188.182.37.364h.27v-.64-.276c-.088-.183-.181-.276-.27-.371l.27-.27c.095.089.188.182.37.27h.277c.182-.181.364-.457.64-.64h.646c.182-.183.364-.459.64-.64h.642c.181-.183.364-.459.64-.647.188-.182.37-.364.552-.546v-1.287-1.287h1.286c.183-.27.46-.457.64-.64h.647c.183-.276.364-.458.64-.641.183-.276.365-.457.641-.64h.64c.188-.188.371-.464.647-.645a3.84 3.84 0 0 1 .64-.548c-.276-.276-.459-.458-.64-.646a8.2 8.2 0 0 1 1.281-1.281c.182-.276.37-.464.646-.645.182-.276.364-.459.546-.642.188-.276.37-.458.646-.64.182-.646.365-1.286.641-1.928h-.641c-.458-.181-.828-.457-1.192-.64v-1.198h1.192c.917-1.927.917-1.927.73-3.114-.458.364-.917.728-1.376 1.187-.364.188-.822.37-1.192.647l-1.928 1.926a3.663 3.663 0 0 0-.64.552c-.276.183-.458.459-.64.64a2.098 2.098 0 0 0-.64.642h-.648c-.18.369-.457.828-.64 1.286h-.64c-.188.182-.464.364-.646.64a4.191 4.191 0 0 0-.552.642v.645a2.079 2.079 0 0 0-.64.64h-.642c-.276.183-.458.37-.64.641h-.646c-.276.188-.458.37-.64.646-.459.182-.828.365-1.287.548h-.64v.645h1.28c0 .64 0 .64-1.28.64v.641c-.183.183-.459.37-.641.64h-.645c-.183-.27-.46-.457-.642-.64h-1.833c-.459.828-.828 1.651-1.287 2.572-.181.183-.457.366-.64.642v.546c.183.188.459.464.64.647h1.287v.64h-1.287c-.181.459-.457.828-.64 1.287V37.912v.093a.704.704 0 0 1 .364-.369 1.144 1.144 0 0 1-.364-.276v-.364zm0 22.755v.088h.64c.183.37.459.828.641 1.287.46.182.828.365 1.287.64.181.182.37.37.64.553-1.281.64-1.281.64-1.281 1.281h1.833c.183.187.459.463.642.645.186.823.457 1.65.645 2.569.182.182.458.369.641.64.181.187.457.37.64.646.188.181.459.364.64.64.188.182.464.37.647.641.182.187.364.37.64.552.188.182.37.364.646.64.182.188.364.37.64.646.183.365.366.824.642 1.281.181.183.364.37.64.647.188.182.37.363.552.64v.641c.182.181.458.37.646.645.458.183.823.366 1.28.642v1.192c.83.458 1.652.822 2.568 1.281l.647.645c.181.183.364.365.64.642.183.182.365.369.641.64.182.188.37.37.646.646.182.182.364.365.546.64.188.183.37.366.646.552.182.183.365.459.641.642v1.286c.183.182.364.458.64.64.183.183.37.46.647.64h.64c.182.183.365.459.641.647.181.364.37.823.64 1.281.188.37.37.828.647 1.192.181.183.364.46.64.647.182.823.364 1.739.552 2.567l.641.641v.64c.181.188.457.37.645.646v.547h-1.286c-.188-.182-.37-.459-.552-.547a46.816 46.816 0 0 1-.64-.646c-.276-.181-.459-.457-.647-.64-.459-.183-.916-.459-1.281-.641-1.104.182-2.11.458-3.214.641v-.641c-.182-.181-.364-.458-.546-.646v-.64c-.276-.182-.464-.458-.646-.641-.276-.183-.458-.459-.64-.64a8.362 8.362 0 0 1-.64-1.287c-.277-.182-.46-.37-.648-.552-.276-.458-.457-.917-.64-1.281-.458.183-.917.364-1.28.64h-1.288c-.182-.276-.458-.457-.64-.64-.188-.464-.464-.828-.646-1.287v-.64c-.183-.188-.364-.459-.552-.647-.276-.182-.459-.458-.64-.64-.276-.182-.459-.458-.642-.64V81.4c-.276-.458-.458-.916-.64-1.286h-.646c0-.64 0-.64-1.287-.64v.64h-1.921v-1.282c-.188-.457-.459-.916-.645-1.285l-.642-.641c-.182-.183-.458-.459-.552-.64h-.64c-.459-.188-.828-.371-1.287-.552h-.64c.182-.46.458-.918.64-1.287v-1.281-.647-.64c-.182-.459-.458-.917-.64-1.287-.182-.276-.458-.458-.641-.64v.094V59.75zm0 10.276v-.094.916c.088.094.183.183.364.37-.181.089-.276.182-.364.272v-.548-.094V70.027zm86.15 32.844l-.64-.642v-3.76-.645-.641a263.85 263.85 0 0 0-.64-.64c-.187-.46-.458-.828-.646-1.287-.27-.459-.641-.828-.917-1.287-.364.828-.64 1.746-1.01 2.574h-.548v-2.574-.547-.646h-.64v1.193h-1.286v-1.193c.641 0 .641 0 .641-1.281h-.641v-1.286-1.28c-.183-.189-.459-.465-.64-.648v-.64c.181-.182.457-.37.64-.552v-1.281c-.183-.188-.459-.464-.64-.647v-1.28c-.188-.459-.459-.829-.647-1.286v-.642c.647 0 .647 0 .647-1.192h-1.287c0-1.286 0-1.286-.647-1.286v-2.568c.464-.183.83-.459 1.287-.64.188-.371.459-.828.647-1.194h.64v-1.926h-.64V72.5v-.64-.641-.646-.64c.181-.365.457-.824.64-1.193v-.64-3.215-3.76c-.183-1.286-.459-2.568-.64-3.853h-.647V59.198h-.276a1.217 1.217 0 0 1-.364-.276c-.183-.182-.459-.275-.647-.365V44.61l-.64-.64c-.182-.464-.365-.828-.546-1.286-.276-.183-.464-.459-.647-.64.183-1.287.37-2.568.647-3.767h.546v-2.473h-.546v-.642c-.276-.276-.464-.457-.647-.645h-.64c-.459-.276-.917-.459-1.287-.64v-.647c.37-.181.828-.27 1.287-.364-.459-.276-.917-.641-1.287-.917v-.64c.646-.188 1.287-.464 1.927-.645.37-.183.828-.366 1.193-.548h.64v-1.927c-.18-.276-.457-.464-.64-.645V26.9c-.365-.276-.822-.458-1.193-.64a61.516 61.516 0 0 1-.64-.646h-.641c-.276.37-.463.828-.646 1.286-.182.183-.458.366-.64.642h-1.928c-.18.181-.364.369-.552.645 0 .64 0 .64-1.28.64v-.64-.645-.642c-.277-.276-.458-.458-.646-.64h-1.282l-.645-.646h-3.761c-.276.37-.458.828-.64 1.286h-1.287c-.64-.276-1.281-.458-1.927-.64v-.646h-1.833v.646H170.213c0-.646 0-.646-1.286-.646v.646h-4.402a8.79 8.79 0 0 0-1.285-.646v-.64c-.183-.276-.459-.459-.641-.642-.459-.181-.823-.457-1.287-.64v-1.198h1.287c.182-.271.458-.458.641-.64v-.64-.647c.457-.27.828-.459 1.285-.64v-1.281h1.282c.188.181.37.364.646.64h3.12V18h.64c.183.459.37.828.642 1.287v.641h2.572v-.641h3.12v.641h1.921v-.641h1.933l.64.641c.642 0 .642 0 .642-1.281h-.642c.183-.188.366-.464.642-.647H182.875c.182.183.37.459.641.647.187.181.37.364.645.64v.641h1.927v-.641h3.12c.459.182.823.365 1.281.641H194.25c0 .64 0 .64 1.287.64v-.64h3.761a8.247 8.247 0 0 1 1.286-.641h3.214c.823.182 1.651.365 2.474.641h1.286v.64h9.542v-.64c.182-.276.365-.459.641-.641v-.64c.37.181.828.364 1.285.64V20.568h7.615v-.64H232.968c.188.64.37 1.287.553 1.927v1.838c-.553 0-.553 0-.553 1.282h-1.28c-1.105.182-2.204.369-3.215.64H226.001v1.928h-.646c-.459-.276-.918-.459-1.282-.642-.917-.276-1.745-.458-2.568-.64v-.646h-1.838v.646h-1.287c0 1.282 0 1.282-.64 1.282-.276-.459-.459-.918-.641-1.282h-.64c-.923.182-1.746.364-2.568.64-.37.183-.828.366-1.199.642-.276.181-.457.369-.64.645h-1.287c-.276-.276-.458-.464-.64-.645-.182-.276-.458-.459-.64-.642h-.64a8.032 8.032 0 0 0-1.288.642h-1.833a8.5 8.5 0 0 0-1.287-.642h-.64c-.188.642-.458 1.287-.646 1.927.188.183.458.37.646.641v1.194c-.646 0-.646 0-.646 1.285h.646v1.928c-.188.364-.458.828-.646 1.285.188.183.458.366.646.642v1.193l.64.64c.183.459.364.828.642 1.287a2.083 2.083 0 0 0-.642.64c-.182-.276-.458-.458-.64-.64-.188.182-.458.364-.646.64h-.64v3.12h.64v.641c.188.181.458.457.646.645v.64h-.646v1.928h.646v8.167h1.282c.181.457.37.823.645 1.281h.547v1.286c.188.458.458.829.64 1.286V60.485c-.452.182-.823.364-1.187.64a2.095 2.095 0 0 0-.645.642c-.278.552-.459 1.192-.642 1.833v.645c-.182.183-.458.364-.64.64v.642c.182.645.458 1.287.64 1.926-.64.647-.64.647-.64 2.48h-.646v1.927h.646V85.16c.182.183.458.459.64.647l.642.64a2.094 2.094 0 0 0-.642.641V88.281c.183.46.364.828.642 1.287v1.927a8.146 8.146 0 0 0-.642 1.281v.646c.183.088.364.365.642.547v2.574c-.278.64-.459 1.281-.642 1.926-.182.46-.458.823-.64 1.282v3.12h-.646zm.647 0v-2.475h.64v2.475h-.64zm-61.474-8.902h1.286c0 .646 0 .646-1.286.646v-.646zm54.5 0h1.286c0 .646 0 .646-1.286.646v-.646zm0-1.193v-1.281h.641c0 1.281 0 1.281-.641 1.281zm0-2.567v1.286c-.64 0-.64 0-.64-1.286h.64zm-41.839-1.28c-.183-.465-.459-.829-.64-1.288v-.552c-.37-.641-.828-1.281-1.199-1.928-.457-.18-.916-.457-1.28-.64v-.64-.647c.64 0 .64 0 .64-1.28h-.64c-.277-.187-.458-.37-.64-.553-.189-.275-.465-.458-.648-.64v-.646-.64-.642-.645c-.18-3.208-.457-6.328-.64-9.448-.182-.276-.458-.459-.64-.64-.182-.276-.458-.459-.646-.647v-1.926c0-.642 1.286-.642 1.286-1.282.183-.182.46-.458.64-.645v-.641-1.192-1.928c-.18-.458-.457-.823-.64-1.282v-.645c-.182-.459-.458-.823-.64-1.281v-.646h1.28c-.18-1.469-.457-2.933-.64-4.401-.64-.182-1.286-.458-1.926-.641-.183-.187-.366-.463-.552-.646v-.64c1.192 0 1.192 0 1.192-.64h-1.192v-.646c-.27-.183-.459-.459-.642-.642h-1.286c-.276-.181-.458-.37-.64-.552v-.64c.182-.182.364-.458.64-.646.182-.182.37-.458.646-.64v1.286l.64.64c.183-.276.371-.458.642-.64v-.646-.64c-.459-.183-.918-.459-1.282-.642v-.64c-.276-.188-.464-.464-.646-.645-.276.181-.458.457-.64.645-.276.183-.459.459-.642.64-.276.183-.457.459-.64.642-.188.182-.464.458-.645.64-.183.464-.459.828-.641 1.286h-1.192c-.276.183-.459.371-.647.552h-1.281V50.297c-.276.183-.458.459-.64.646-.276.183-.464.459-.647.64v1.282c-.276.187-.457.37-.64.645v.642c-.276.733-.459 1.65-.641 2.479v1.281a8.815 8.815 0 0 0-.646 1.286v.64l.646.647v5.687a2.177 2.177 0 0 0-.646.642c-.182.182-.364.369-.546.64v1.286c.182.552.364 1.193.546 1.833.188.37.37.828.646 1.287v2.203c-.094.09-.187.182-.276.365-.916 0-.916 0-.916.645.364-.188.734-.276 1.192-.369.09-.095.182-.183.272-.276h.37v1.287a3.614 3.614 0 0 0-.642.552v.64H135.443c-.276-.183-.464-.459-.646-.64-.276-.188-.458-.371-.64-.552v-.642h-.64v.642h-1.928c-.277-.276-.458-.46-.64-.642v-1.926h-1.288c-.182-.464-.458-.923-.64-1.287-.188-.276-.464-.459-.646-.641-.183-.458-.364-.828-.552-1.286h-.64a3.75 3.75 0 0 1-.642-.552c-.276-.64-.458-1.281-.64-1.928-.276-.27-.458-.457-.646-.64-.276-.641-.458-1.286-.64-1.928-.183-.276-.459-.457-.647-.64-.181-.182-.452-.458-.64-.645v-.641c.188-.183.459-.459.64-.64h.647c.182-.183.364-.371.64-.552v-1.928h-1.287c-.181-.276-.452-.458-.64-.64v-.642c-.183-.186-.459-.457-.64-.645.457-.183.828-.459 1.28-.64.188.181.464.457.647.64v.645l.64.641c.188-.458.37-.827.646-1.286v-.64c-.276-.183-.458-.458-.646-.641v-1.287c.188-.183.37-.459.646-.64V53.51h.64v-2.567h-.64v-.646-.64-.64c.364-.189.823-.465 1.282-.646v-.642c-.276-.181-.459-.37-.642-.552v-.64c-.276-.182-.458-.458-.64-.646v-2.567c.182-.183.364-.459.64-.641v-.64-.552-.642c.183-.645.366-1.286.642-1.926h.64c.188-.459.37-.828.552-1.287h.646l.64-.64c.183-.183.46-.459.64-.647.183-.64.371-1.281.647-1.833v-.64c.183-.276.364-.459.64-.647h.641c.183.188.364.371.64.647.371.181.828.364 1.287.64v1.287h1.287a3.892 3.892 0 0 0-.646.546h-.64v1.927h.64v.647c-.276.364-.458.822-.64 1.281v.645l.64.642c0 .552-1.28.552-1.28 1.192v.641c.18.181.363.457.64.645.364-.188.822-.464 1.286-.645.182-.183.364-.459.546-.641.46-.364.828-.823 1.287-1.192.183-.276.364-.459.64-.642v-.645c.183-.27.37-.459.647-.641.182-.276.364-.458.64-.64.182-.188.365-.459.641-.647.64-.457 1.287-.823 1.927-1.28.552-.183 1.193-.459 1.838-.647.183-.182.364-.364.64-.546.183-.276.366-.459.642-.642h.64c.182-.276.37-.457.646-.645.182-.276.364-.459.64-.64.183-.276.371-.459.642-.647h.552c.181-.27.457-.457.64-.64h1.286v1.287h.64c.46.181.83.364 1.287.64v1.833c.183.188.365.464.641.647h1.192v1.28h.647v1.287c.181.182.457.37.64.641.183.187.459.37.641.645.182.183.458.366.64.642v.552c.188.181.464.457.646.64v1.926c-1.286 0-1.286 0-1.286.642h1.927c0 .64-1.287.64-1.287 1.286h1.927v1.192H156.911c-.276.183-.276.183.641.642h.64c.188.181.459.457.647.645.182.459.364.823.552 1.281v1.927h-1.199v2.48h.647c.182.181.364.457.552.64l.64.641c.182.646.458 1.287.641 1.927.183.459.459.828.64 1.286-.181.183-.457.365-.64.64h-1.833c-.188.189-.459.371-.647.647.188.182.459.364.647.64.364.183.822.366 1.192.642V64.245c-.182 1.746-.458 3.396-.64 5.136v6.334c.182.18.458.364.64.552-.37 1.65-.828 3.39-1.192 5.134-.188.183-.459.366-.647.552v1.928l-.64.64c-.183.46-.459.823-.641 1.287-.182.823-.458 1.65-.646 2.473-.182.183-.458.46-.64.647h-.64zM132.23 87.64v-.552h.64v.552h-.64zm.64 0v-.552c.188.183.371.37.647.552h-.647zm1.287 0v-1.193h.641v1.193h-.64zm-1.927-.552v-1.281c.183.364.364.823.64 1.281h-.64zm20.916-1.928c.371.647.828 1.287 1.2 1.928h-1.2v-1.928zm-22.844-.64v-.64h.647v.64h-.647zm73.496 0v-2.568h.64v2.568h-.64zm-51.933-1.287v-1.28h.641c0 1.28 0 1.28-.64 1.28zm43.672-1.28c0-.553 0-.553-1.287-.553v-1.926c.647 0 .647 0 .647 1.286h1.287c0 1.192 0 1.192-.647 1.192zm-18.99-.553c-.275-.275-.463-.458-.645-.64-.182-.276-.458-.458-.64-.646-.182-.271-.46-.458-.553-.64h-.64c-.641-.459-1.287-.918-1.928-1.287a8.223 8.223 0 0 1-.64-1.281c-.459-.183-.828-.459-1.287-.64-.182-.647-.458-1.287-.64-1.839-.182-.276-.458-.459-.646-.641v-.64h1.286c0-1.287 0-1.287-.64-1.287-.182-.276-.458-.459-.646-.641-.27-.276-.64-.458-.916-.646a1.153 1.153 0 0 1-.366-.276.71.71 0 0 1 .366-.364 1.84 1.84 0 0 1-.366-.552v.276c-.093.094-.18.182-.276.276h-.364c-.188.182-.37.364-.552.64h-.646c-.27-.458-.452-.822-.64-1.192-.276-.272-.459-.459-.642-.64V68.1a2.18 2.18 0 0 1 .642-.647v-.64l-.642-.641c-.18-.916-.457-1.744-.645-2.572-.183-.459-.459-.824-.64-1.281-.183-2.11-.459-4.219-.641-6.334-.183-.182-.459-.458-.64-.641-.183-.828-.459-1.65-.647-2.479 1.01-2.198 1.01-2.198.647-3.208v-1.286-1.834-.646-2.567-.641c-.183-.364-.459-.823-.647-1.192h.647c.181-.276.457-.459.64-.642.641 0 .641 0 .641-1.286h-.641c-.183-.458-.459-.828-.64-1.287v-.64c.181-.183.457-.459.64-.64v-.647c.182-.182.458-.364.641-.546.181-.276.457-.459.64-.642V33.23c1.287 0 1.287 0 1.287-.64.188-.276.37-.458.64-.641a8.79 8.79 0 0 1 .646-1.285c.182-.183.364-.366.552-.548.183-.276.46-.458.64-.646h1.282c.188-.27.464-.458.646-.641.182-.276.458-.457.64-.64h3.214c0 .64 0 .64 1.281.64v-.64h.552c.183.183.459.364.641.64 0 .641 0 .641 1.287.641v-.641h.64c.188.183.37.37.64.641h.647c.182.188.364.37.64.646.188.182.37.365.646.548.364.181.823.457 1.282.645h.552c.181.183.364.364.64.64.182.365.37.824.641 1.281h.645c.183.188.364.371.64.647.183.364.371.828.642 1.285.188.183.37.366.645.642h.641c.182.182.364.364.64.546v1.927c.188.188.371.459.552.647v.64c.183.641.46 1.286.642 1.928.186.181.458.369.645.552.183.457.459.822.641 1.281v.645c.182.64.458 1.282.64 1.922v3.125c.183.823.37 1.74.646 2.568.182.459.365.823.641 1.281v1.287c-.276.364-.459.733-.641 1.192v7.615a8.264 8.264 0 0 0-.646 1.286v1.927h-1.28V68.1c-.188.181-.46.364-.646.64-.366.552-.823 1.193-1.194 1.833V72.5c-.276.183-.458.37-.64.647v.64c-.458.182-.917.365-1.286.641h-.642c-.276.181-.457.37-.64.645a2.154 2.154 0 0 0-.645.642 3.763 3.763 0 0 0-.641.552 8.019 8.019 0 0 0-.64 1.281c-.188.37-.37.828-.552 1.285h-.642a2.083 2.083 0 0 0-.64.642 2.24 2.24 0 0 0-.646.64c-.276.188-.458.37-.64.646a2.163 2.163 0 0 0-.647.64h-1.921zm-54.5-1.286h1.922v.646h-1.921v-.646zm79.823.646v-.646h1.282v.646h-1.282zm-77.9-.646v-.64c1.286 0 1.286 0 1.286.64h-1.287zm48.171-1.927c.641.37 1.287.828 1.928 1.287h-1.928v-1.287zm-48.172.645v-.645h1.287v.645h-1.287zm31.657-.645v-1.281h.64v1.281h-.64zm40.558-.64v-.641h1.281v.641h-1.281zm-63.954-1.833h1.287c0 .552 0 .552-1.287.552v-.552zm-13.948-1.287c-.182.37-.458.828-.64 1.287-.641 0-.641 0-.641-1.287h1.281zm67.162 0c.37-.276.828-.459 1.286-.641v1.928h-1.286v-1.287zm-49.084 0c.09.093.182.181.276.276-.458.093-.828.181-1.192.37 0-.646 0-.646.916-.646zm45.324.645c.181-.276.364-.464.552-.645v.645h-.552zm14.5 0v-1.926h.64v1.926h-.64zm-59.548-.369c-.094-.095-.187-.183-.276-.276.09-.183.182-.276.276-.365.09.09.182.182.272.365-.09.093-.183.181-.272.276zm.272-.276c-.09-.183-.183-.276-.272-.365v-.916c.182.363.365.822.641 1.281h-.37zm31.38-1.281h.64v.64c-.182-.277-.459-.458-.64-.64zM117.64 72.5h.641v.647c-.182-.276-.458-.464-.64-.647zm50.647.647c-.183-.464-.459-.923-.642-1.287v-.641c.46.182.823.365 1.282.64v1.288h-.64zm.64 0V72.5c.188-.276.464-.457.646-.64.64 0 .64 0 .64 1.287h-1.286zM117 71.86h.64v.64c-.181-.276-.457-.457-.64-.64zm.64.64v-.64h.641v.64h-.64zm51.287 0v-.64-.641c.188.182.464.365.646.64-.182.184-.458.365-.646.641zM117 71.86v-.37c.088-.089.183-.182.364-.271.095.182.183.365.276.64H117zm.64 0a4.199 4.199 0 0 0-.276-.641c-.181-.187-.276-.276-.364-.37v-.276h.64c.183.37.459.828.641 1.287h-.64zm49.365-.641h.64v.64c-.18-.275-.457-.458-.64-.64zm.64 0v-.37c.09-.088.183-.182.366-.276.276.188.645.37.916.646v.64a8.175 8.175 0 0 0-1.282-.64zm36.152-1.286v1.927h-.646v-1.927h.646zm-37.99.64h1.198v.646c-.37-.276-.828-.458-1.198-.646zm1.198.646v-.646h.364c.095.094.183.188.276.276v.37h-.64zm.64-.37c-.093-.088-.18-.182-.276-.276.095-.088.183-.182.276-.276.09.094.183.188.366.276-.183.094-.276.188-.366.276zM117 70.573v-.64c.183.182.459.364.64.64H117zm49.453 0c.182-.276.364-.458.552-.64v.64h-.552zm.552 0v-.64h.364c.095.094.183.182.276.364-.093.094-.18.188-.276.276h-.364zm.64-.276a1.255 1.255 0 0 0-.276-.364l.276-.276c.09.094.183.182.366.276a.71.71 0 0 0-.366.364zm.366-.364a1.262 1.262 0 0 1-.366-.276v-.276c.09.187.183.37.366.552zM125.9 68.1v-.647c.182.647.364 1.287.64 1.928-.276-.459-.458-.917-.64-1.281zm40.552.64h.552c.183.182.46.37.64.641a17.465 17.465 0 0 0-1.192-.64zm11.375 0v-2.568h1.287v3.21c-.459-.273-.918-.46-1.287-.642zm1.287.641v-3.21h-1.287v2.57h-1.281c.088-.829.182-1.558.27-2.293-.27-.276-.64-.645-.916-.921h-.64c-.182.369-.46.828-.553 1.287h-.64c-.276-.46-.459-.918-.641-1.287-.276-.271-.459-.46-.646-.642a8.498 8.498 0 0 1-.64-1.285c-.277-.183-.458-.459-.64-.641-.277-.183-.46-.459-.646-.64-.272-.552-.459-1.193-.642-1.834v-1.287-.64-4.406-1.287c.183-.641.37-1.281.642-1.922.645 0 .645 0 .645-1.286h-.645c-.272-.182-.459-.459-.642-.64 1.375-1.105 1.375-1.105 1.927-2.48.183-.182.37-.458.641-.646.187-.64.37-1.282.646-1.922-.459-.188-.916-.464-1.287-.645v-.641c.183-.823.37-1.651.641-2.479.187-.27.37-.459.646-.641H175.26c.183-.458.459-.828.641-1.287.182-.181.37-.457.646-.64.182-.183.364-.459.641-.64h.64c.188.181.37.457.64.64.647.183 1.287.459 1.933.64.182.83.364 1.657.64 2.573V43.324h.642v-.641c.181.182.364.458.552.641v3.213c-.552 0-.552 0-.552 1.192h.552c.181.183.364.459.64.642.182.181.37.457.641.645v.641c.187.182.37.458.645.64v9.542c-.276.188-.458.37-.645.646-.272.364-.459.823-.641 1.282V62.959c-.276.641-.459 1.286-.64 1.926h-2.48v1.929h.646v.64c-.276.187-.458.37-.646.646v.64c-.276.182-.458.37-.64.641zm-43.672-.64v-1.288c.546 0 .546 0 .546 1.287h-.546zm40.458-3.214c.276.276.646.645.916.921-.088.735-.182 1.464-.27 2.292-.276-1.099-.464-2.203-.646-3.213zm3.854 3.213v-.64h.276c.094.088.182.181.37.276-.276.088-.458.181-.646.364zm.646-.364c-.188-.095-.276-.188-.37-.276a.72.72 0 0 1 .37-.37c.088.094.182.182.271.37-.09.088-.183.181-.27.276zm-55.786-3.49c.182.64.364 1.286.64 1.928V68.1c-.276-1.104-.458-2.204-.64-3.215zm.64 3.214v-.647h.646v.647h-.646zm54.5 0c.188-.276.37-.459.646-.647v.276a.72.72 0 0 0-.37.371h-.276zm.917 0c-.09-.188-.183-.276-.27-.37v-.277-.64h.64c-.187.37-.277.828-.37 1.287zm16.15-3.215V68.1h-.64v-3.215h.64zm-71.567 2.568v-.64c.188.183.37.37.646.64h-.646zm63.953 0v-1.281h1.281c-.458.365-.822.824-1.28 1.281zm-55.052-.64v-1.286h.641v1.287h-.64zm46.885-1.928v1.929h-1.286v-1.929h1.286zm0 1.929v-1.929h1.194v1.287c-.37.183-.828.365-1.194.642zm-61.473-.642v-1.287h.64v1.287h-.64zm33.577-1.287c.371.183.828.37 1.2.642 0 .645 0 .645-1.2.645v-1.287zm-3.208-.64c0 .64-1.286.64-1.286 1.282-.64 0-.64 0-.64-1.282h1.926zm3.208.64c0-.64 0-.64 1.2-.64v1.282c-.372-.271-.829-.46-1.2-.642zm-3.208-.64c.183-.828.46-1.745.64-2.478V63.6c-.18.187-.457.463-.64.645zm-29.729-1.926c.094.457.37.822.552 1.281h-1.833c0-.641 0-.641 1.281-1.281zm39.823 1.281v-1.281c.641 0 .641 0 .641 1.281h-.641zm43.12-.641v-.64h.646v.64h-.646zm2.573-1.833c.364-.277.735-.46 1.187-.64v1.28c-1.187 0-1.187 0-1.187-.64zm-16.516 0v-.64h1.281v.64h-1.28zm14.59 0v-1.928h.64v1.928h-.64zm-33.585-1.928v1.287c-.64 0-.64 0-.64-1.287h.64zm13.948.64v-6.973h.64v6.974h-.64zm10.088 0v-.64h.371l.276.277v.364h-.647zm.647 0v-.363c.088-.094.183-.183.364-.277h.276c-.181.183-.457.365-.64.64zm0-.363l-.276-.277.276-.276c.088.094.183.183.364.276a1.237 1.237 0 0 0-.364.277zm-69.641-.277l-.64-.64v-.646-.64h1.286v.64a8.826 8.826 0 0 0-.646 1.286zm65.88 0v-1.926h.641v1.926h-.641zm3.114 0v-.64c.188.089.464.182.647.364l-.276.276h-.37zm-24.036-5.046v4.405h-.64v-4.405h.64zm18.995 4.405c.365-.457.641-.828 1.005-1.285.094.457.188.828.276 1.285h-1.28zm-65.24-1.285h.647v.64a57.567 57.567 0 0 0-.647-.64zm.647 0v-.641h.64v.64h-.64zm.64 0v-.641c.188.183.37.458.646.64h-.646zm-.64-.641c.182-.46.364-.828.64-1.287v1.287h-.64zm79.182-4.407c.458.828.823 1.652 1.282 2.48h-1.282v-2.48zm-43.766 2.204a24.478 24.478 0 0 0-.276-.276 1.26 1.26 0 0 1 .276-.365l.365.365a1.208 1.208 0 0 0-.365.276zm-1.192-2.204h.552c.182.552.458 1.01.64 1.563a1.26 1.26 0 0 0-.276.365h-.916v-1.928zM125.9 53.51v-2.567h.64v2.567h-.64zm69.635 0v-.645h1.287v.645h-1.287zm-35.505-3.213l.641-.64h1.287c.364 1.01.364 1.01-.647 3.208-.457-.822-.823-1.74-1.281-2.568zm5.776 1.927v-.64c.188.183.37.459.646.64h-.646zm5.048-1.281v-1.286h.645c0 1.286 0 1.286-.645 1.286zm-10.824-.646v-1.926-1.834c.182.182.458.364.641.64v2.48l-.641.64zm-12.572-.64v-.64h1.192c0 .64 0 .64-1.192.64zm13.213 0v-.64c.459-.189.828-.465 1.287-.646v1.286h-1.287zm-35.417-.64c-.276-.189-.458-.465-.64-.646.182-.642.364-1.282.64-1.834.188.182.37.364.646.64v1.839h-.646zm.646 0v-.646h1.282c-.459.181-.918.457-1.282.645zm13.302 0v-1.288h1.281c-.459.459-.916.823-1.281 1.287zm21.47 0v-1.84a8.154 8.154 0 0 1 1.286-.64v1.834c-.459.181-.828.457-1.287.645zM125.9 48.37v-1.194-.64h.64v.64c.183.183.366.371.642.552v.642H125.9zm31.01-.642h.641v.642c-.917-.459-.917-.459-.641-.642zm.641.642v-.642h.64v.642h-.64zm2.479-1.834v1.834h-.64v-1.834h.64zm22.204 0v1.192h-.552c0-1.192 0-1.192.552-1.192zm-56.98 0h.646v.64c-.276-.276-.458-.458-.646-.64zm21.562.64l-.64-.64v-1.286h1.282v1.286c-.27.182-.459.364-.642.64zm-20.916-.64v-.646c.182.188.364.464.64.646h-.64zm31.01-1.928h1.281v1.928h-1.927c0-.646 1.287-.646 1.287-1.286h-1.927c0-.642 0-.642 1.286-.642zm46.886 0v1.928h-.646V44.61h.646zm-44.406 1.282v-1.282h.64v1.282h-.64zm2.568-2.567v2.567h-.647v-2.567h.647zm8.896 2.567v-.64h.645v.64h-.645zm-24.678-.64v-.642c.364.183.823.459 1.282.642h-1.282zm36.058 0v-1.282c.64 0 .64 0 .64 1.282h-.64zm-36.704-1.282h.646v.64c-.276-.181-.464-.457-.646-.64zm-12.015-.645h.64v.645c-.276-.188-.459-.464-.64-.645zm.64.645v-.645h1.287c-.464.181-.922.457-1.287.645zm10.735 0c.182-.188.364-.464.64-.645v.645h-.64zm.64 0v-.645c.182.181.37.457.646.645h-.646zm13.86-1.286h1.281v1.286h-1.281v-1.286zm-25.875.641v-.641c.181.182.364.458.64.641h-.64zm.64 0c-.276-.183-.459-.459-.64-.641 0-.64 1.281-.64 1.281-1.192.646 0 .646 1.192 1.192 1.192-.182.182-.364.458-.546.641h-1.287zm46.885 0v-1.281h.276c.09.088.183.181.366.364v.917h-.642zm1.194 0c-.188-.183-.37-.459-.552-.641v-.276c.093-.183.181-.276.276-.364h.916c0 1.281 0 1.281-.64 1.281zm-22.844-.641l.64-.64.641.64h-1.281zm1.281 0l-.641-.64c.458-.183.824-.371 1.281-.552.188.369.464.828.647 1.192h-1.287zm42.479-3.12v3.12h-.64v-3.12h.64zm-21.468 2.844a71.956 71.956 0 0 0-.366-.364c.09-.095.183-.183.366-.276l.276.276a1.187 1.187 0 0 0-.276.364zm-.642-.364v-1.194c.183.271.366.642.642.918a1.212 1.212 0 0 0-.366.276h-.276zm12.022-3.767c-.276 1.199-.464 2.48-.647 3.767h-.64v-3.767h1.287zm-30.464 2.573v-1.286h.641c0 1.286 0 1.286-.641 1.286zm-39.27-.645v-.365c.092-.094.187-.182.368-.276h.271c-.181.182-.452.37-.64.641zm81.108-.641c.183-.276.364-.458.642-.64.645 0 .645 0 .645 1.281-1.287 0-1.287 0-1.287-.641zm-81.109.276c-.088-.094-.183-.182-.27-.276.087-.182.182-.276.27-.364.093.088.188.182.37.364a1.365 1.365 0 0 0-.37.276zm38.63-1.563c.182.459.458.83.64 1.287-.915-1.099-.915-1.099-.64-1.287zm11.469 1.287c.182-.276.365-.458.641-.64v.64h-.641zm.641 0v-.64h.64v.64h-.64zm.64 0v-.64c.093.182.37.364.552.64h-.552zM117 38.923v-.647-.27a.704.704 0 0 1 .364-.37h.276c-.181.459-.457.828-.64 1.287zm6.968 0v-.276a.76.76 0 0 1 .37-.371h.277c-.183.188-.459.459-.647.647zm50.1 0v-.647h.64v.647h-.64zm-50.1-.276c-.088-.183-.181-.276-.27-.371l.27-.27c.095.089.188.182.37.27a.76.76 0 0 0-.37.37zm10.83-2.298v1.927h-.642v-1.927h.641zm39.27 1.927v-.64h.64v.64h-.64zm18.995 0v-2.473h.546v2.473h-.546zm-75.699-.64a1.144 1.144 0 0 1-.364-.276v-.364h.64v.64h-.276zm.276 0v-.64h1.287v.64h-1.287zm36.057 0v-.64l.647-.647v.647c-.188.181-.464.457-.647.64zM117 36.996v-.647c.183.188.459.464.64.647H117zm37.344 0v-.647h.64v.647h-.64zm31.099 0v-.647h.645v.647h-.645zm-51.287-2.48h.917c.094.093.182.188.37.276.182-.088.364-.183.546-.276.646 0 .646 0 .646 1.287h-2.479v-1.287zm1.287.276c.088-.088.182-.183.27-.276h.276c-.182.093-.364.188-.546.276zm0 0c-.188-.088-.276-.183-.37-.276a.695.695 0 0 1 .37-.364c.088.088.182.181.27.364a13.34 13.34 0 0 1-.27.276zm-7.068-.276v-1.287h1.286c-.458.371-.828.828-1.286 1.287zm6.422 0c.182-.276.37-.459.646-.64v.276a.695.695 0 0 0-.37.364h-.276zm.916 0c-.088-.183-.182-.276-.27-.364v-.276h.546v.64h-.276zm16.151 0a8.077 8.077 0 0 0-1.287-.64v-.37c.095-.089.183-.182.371-.277h1.557c0 1.287 0 1.287-.64 1.287zm-16.421-.64v-.647c.182.188.364.371.546.647h-.546zm.546 0c-.182-.276-.364-.459-.546-.647.734-.457 1.557-.916 2.473-1.281v1.281c-.64.188-1.281.371-1.927.647zm13.948 0v-.647h.364l.276.276v.371h-.64zm44.312 0v-.647h.647v.647h-.647zm-43.672-.37l-.276-.277c.095-.181.188-.27.276-.364.095.094.183.183.371.364-.188.095-.276.188-.37.276zm-.64-.277v-.64c.183.094.46.183.64.276-.088.094-.18.183-.276.364h-.364zm40.552 0v-1.281c.37.276.828.641 1.287.917-.459.094-.917.183-1.287.364zm-67.8-1.281v-.64h1.28c0 .64 0 .64-1.28.64zm81.108-1.285v1.285h-.646c0-1.285 0-1.285.646-1.285zm-74.136.645v-.645h.64v.645h-.64zm47.527-.645v-.548h1.28v.548h-1.28zm-1.287-1.835c.182-.276.37-.457.646-.64l.641.64v.641c-1.287 0-1.287 0-1.287-.641zm-2.474-.64h1.281v.64c-1.281 0-1.281 0-1.281-.64zm1.833 0h.641v.64c-.182-.276-.458-.457-.64-.64zm.641.64v-.64h.646a2.096 2.096 0 0 0-.646.64zm29.823-1.285h1.833v.645h-1.833v-.645zm19.63 0H226v.645c-.276-.276-.459-.464-.645-.645zm.646.645v-.645h.64v.645H226zm-48.172-1.287h1.287c0 .642 0 .642-1.287.642V26.9zm48.172.642v-1.928h1.281c-.27.646-.458 1.286-.64 1.928H226zm-93.13-.642v-.64h1.286v.64h-1.287zm32.297-.64h1.838v.64h-1.838v-.64zm3.76 0v-.646c1.286 0 1.286 0 1.286.646h-1.286zm5.141 0v-.646h1.833v.646h-1.833zm45.599 0v-.646h1.838v.646h-1.838zm12.021-1.286h1.28c0-1.282 0-1.282.553-1.282v1.922h-1.833v-.64zm-70.376-2.48v1.198c-.64 0-.64 0-.64-1.198h.64zm46.245.646v-.646h1.287v.646h-1.287zm15.23 0v-.646h1.926v.646h-1.926zm6.973-.646v-.64c1.281 0 1.281 0 1.281.64h-1.28zm3.761-.64c-.182-.64-.365-1.287-.553-1.927h1.199v1.927h-.646zm-39.272-1.927h1.287v.64c-1.287 0-1.287 0-1.287-.64zm13.308 0h9.542v.64h-9.542v-.64zm11.468 0h7.615v.64h-7.615v-.64zm-48.17-.641h2.572v.641h-2.572v-.641zm5.692 0h1.921v.641h-1.921v-.641zm4.494.641v-1.281h.642c0 1.281 0 1.281-.642 1.281zm3.12-.641h1.927v.641h-1.927v-.641zm7.615.641c0-.641 0-.641 1.287-.641v.641h-1.287zm4.407 0v-.641h3.114v.641h-3.114zm-28.538-.641v-.64c.183-.188.46-.464.642-.647h1.286v1.287h-1.928zm6.423 0c0-.64 0-.64 1.192-.64v.64h-1.192zm4.4 0V18h1.933v1.287h-1.933zm40.557 0c-.457-.276-.916-.459-1.285-.64V18h1.927c0 1.287 0 1.287-.642 1.287zm-51.38-.64V18h.642c-.183.183-.459.459-.642.647z"/>
    </g>
  </g>
</svg>
