<svg xmlns="http://www.w3.org/2000/svg" viewBox="0 0 200 85">
  <path d="M151.21 47.95c0 8.058 12.464 13.514 22.522 13.514 8.68 0 18.97-3.41 18.97-12.117 0-2.913-.942-6.714-4.9-9.336-4.585-3.035-8.487-3.88-16.736-3.88H27.673c-12.357 0-17.96 1.12-25.173 3.414 7.67-5.02 12.92-7.835 24.184-7.835 49.17 0 94.837-.005 143.93-.005 8.827 0 14.294 1.473 18.185 3.556 5.86 3.14 8.7 7.384 8.7 12.88 0 9.866-8.22 17.32-23.58 17.32-13.21 0-26.376-6.736-26.376-16.104 0-4.642 3.6-9.923 5.99-9.923.77 0-2.324 3.38-2.324 8.518z"/>
  <path d="M172.225 56.008c-4.23 0-7.66-3.278-7.66-7.32 0-4.044 3.43-7.322 7.66-7.322s7.66 3.278 7.66 7.32c0 4.045-3.43 7.322-7.66 7.322z"/>
  <polygon points="60.071 80.632 31.711 34.828 37.5 32.523 60.093 69.014 82.977 32.364 88.655 34.854"/>
  <path d="M115.506 2.844l-45.79 79.312h91.58l-45.79-79.312zm0 9.39l36.896 64.153H78.61l36.896-64.154z"/>
</svg>
