<svg xmlns="http://www.w3.org/2000/svg" viewBox="0 0 200 35">
  <path d="M16.152 20.304l-.332-.332c-.133-.464-.232-.895-.33-1.326l-.333-.332v-.33l-.332-.333c-.132-.13-.232-.23-.33-.33l-.333-.33-.33-.33-.333-.33-.34-.33-.33-.33c-.23-.13-.47-.23-.67-.33l-.33-.33h-.33l-.34-.33c-.24-.13-.47-.23-.67-.33l-.33-.33h-.33l-.33-.33-.33-.33-.34-.33-.33-.33-.33-.33-.33-.33h-.33v-.33c.1-.13.2-.23.33-.33v-2l-.33-.33V8.7c.1-.13.2-.23.33-.33v-.33c.1-.133.2-.232.33-.332h.33c.1-.133.19-.232.33-.33h1l.33.33.33.332v.994l.33.33v1.99l.33.333h3.98c.09-.133.19-.232.33-.332v-1.99l-.33-.33h-.33v-.332c.1-.133.2-.232.33-.332V6.72l-.34-.332V5.72l-.33-.332-.34-.33c-.14-.233-.23-.465-.33-.664V4.06c-.14-.13-.24-.23-.34-.33h-.33l-.33-.33c-.24-.134-.47-.233-.67-.333l-.33-.33h-.33l-.34-.333h-1.6c0-.33 0-.33-.67-.33v.33c-.67.1-1.33.2-1.99.332-.13.1-.23.2-.33.332H6.2c-.133.1-.232.2-.332.332h-.33c-.134.098-.234.198-.333.33-.13.1-.23.2-.33.332-.13.1-.23.2-.33.332-.13.1-.23.198-.33.33-.13.332-.23.664-.33.995-.13.1-.23.19-.33.33v.99c-.13.1-.23.2-.33.33V8.7c-.13.033-.23.1-.33.166.1.033.2.1.34.166v.663c-.16.1-.33.2-.49.33v1.824h.16c.1.03.2.1.34.16V13c-.13.034-.23.1-.33.167.1.033.2.1.33.166v1.326l.33.33c.43.86.86 1.75 1.33 2.65l.33.33c.2.1.44.2.67.33l.33.33c.17.33.17.33 1 .66l.33.33c.53.2 1.1.43 1.66.66l.33.33c.2.1.44.2.67.33l.33.33.34.33v.33l.33.33v.99l.34.33v1.99c-.13.1-.23.2-.33.33v.33c-.13.1-.23.2-.33.33v.33h-.33c-.13.1-.23.2-.33.33-.133.1-.23.2-.33.33h-.7l-.33-.33h-.33l-.33-.33-.33-.34-.335-.33v-.33c.1-.13.2-.23.34-.33-.13-.23-.23-.47-.33-.66l-.33-.33H6.9v-.33h.33c.1-.14.2-.24.33-.33.334 0 .334 0 .334-1h-.34v-.33c-.134-.13-.23-.23-.33-.33H5.88l-.33-.34h-.34c-.132.1-.23.2-.33.34H3.554l-.33-.33c-.134-.07-.233-.13-.333-.17h-.16v4.64h.17c.1.03.2.1.34.17v1.32l.33.33v.33l.34.33v1.33l.33.33h.33l.34.33h.34l.33.33.33.33c.1.1.2.2.34.33h.66c.1.17.2.33.33.5h3.65c.1-.17.2-.33.33-.5h1.33c.1-.13.2-.23.33-.33.2-.13.43-.23.66-.33.1-.14.2-.23.33-.33.1-.13.2-.23.33-.33.1-.14.2-.23.33-.33.1-.14.2-.24.33-.34v-.33c.1-.13.2-.23.33-.33v-.33c.1-.13.2-.23.34-.33v-.33c.1-.13.2-.23.33-.33v-.99c.1-.14.2-.24.33-.34V23.9c.1-.13.2-.23.33-.33v-1.33l-.33-.33V20.3zM11.18 7.708h-.33v-.33h.33v.33zm-1.326-.994h-.332v-.332h.332v.332zM6.54 8.04h-.33v-.332h.33v.332zm-2.32 3.314h.33v.332h-.33v-.332zm0 .994v.332l-.332-.332h.332zm-.332 1.99v-.332h.332v.33h-.332zm2.32-2.652v-.332h.663v.332h-.66zm.995.994v-.332h.33v.332h-.33zm-2.32 14.253H4.22V26.6c.098-.132.198-.23.33-.33.1-.133.2-.232.332-.332h.33v.662c-.13.1-.23.2-.33.333zm6.96-1.658h.332v.332h-.332v-.332zM8.86 30.58v-.664h.662c.1.1.2.2.333.33h.332v.333H8.86zm2.32.662l-.33-.332v-.33h.662c.1.098.2.198.33.33-.23.1-.463.2-.662.332zm1.326-.663h-.332v-.34h.332v.33zM83.77 3.4v-.333c-.232-.132-.464-.232-.663-.33l-.332-.333h-2.652c-.134.1-.233.2-.333.332h-1.988c-.133.1-.232.2-.332.33v.996c-.133.1-.232.2-.33.332V5.72c-.134.663-.233 1.326-.333 1.99v1.326c-.133.1-.232.2-.33.33v2.32c-.134.1-.233.2-.333.333v1.65c-.133.2-.232.43-.332.66v4.31h-.663v-1.98c.33 0 .33 0 .33-.67h-.33v-.67c-.13-.14-.23-.24-.33-.34v-1.33c-.14-.24-.24-.47-.34-.67v-1.32c-.14-.24-.23-.47-.33-.67V8.7l-.34-.332V6.38l-.33-.332V4.39c-.14-.23-.24-.463-.34-.662v-.664l-.33-.33h-1.66l-.33-.334c-.14.1-.23.2-.33.332h-2.65l-.33-.332h-.33c-.14.1-.24.2-.34.332v.33c-.14.1-.24.2-.33.333v1.987l.33.333V7.04c-.14.1-.24.2-.33.333V9.03c.09.1.19.2.33.33v.664c-.14.1-.24.2-.33.332v2.65l.33.333v.33c-.33 0-.33 0-.33.99h.33v2.65c-.14.1-.24.2-.33.33l-.34-.33-.33-.33-.34-.33v-.33c.1-.14.2-.24.33-.34-.14-.57-.24-1.13-.34-1.66l-.3-.32h-5.63V8.36c.1-.132.2-.232.33-.33h.66c.1.098.2.198.33.33h1.66c0 .332 0 .332.66.332V8.36h1.99c.1-.13.2-.23.33-.33l-.33-.332v-.33c.1-.133.2-.232.33-.332h.33c.1-.133.2-.23.33-.33v-.333l-.33-.327c-.14.1-.23.2-.33.334h-.33v-.996h.66c.1-.232.2-.464.34-.663v-.99l-.33-.33v-.66h-.66l-.33-.33c-.13.1-.23.2-.33.33h-.33l-.33-.33c-.13.1-.23.2-.33.33h-1.33l-.33-.33c-1.55.1-3.11.2-4.64.33l-.33-.33h-1.66c-.13.1-.23.2-.33.33h-.99l-.33-.33h-1.99c-.13.1-.23.2-.33.33h-6.63l-.33-.33H44c-.133.1-.232.2-.332.33H42.01c-.133.1-.233.2-.33.33v.33c-.135.1-.234.2-.334.33.1.2.2.44.333.67v2.32h-.67v-1l-.33-.33-.33-.33c-.24-.33-.47-.66-.67-.99l-.33-.33-.34-.33-.33-.33h-.33c-.14.1-.23.2-.33.33v.34c-.14.1-.24.2-.34.33h-.33c-.14.1-.24.2-.34.34h-.66l-.34-.33v-.33H37c.1-.13.2-.23.33-.33-.234-.13-.466-.23-.665-.33l-.33-.33h-.33c-.13.1-.23.2-.33.33-.33-.13-.664-.23-.995-.33l-.332-.33-2.99 1c-.13.1-.23.2-.33.33-.232.43-.464.86-.663 1.33-.134.1-.23.2-.33.33v.33c-.13.1-.23.2-.33.33v.67l.33.33v.33c-.13.1-.23.2-.33.33v.33c-.13.1-.23.2-.33.33-.136.1-.235.2-.33.34v1.98c-.137.1-.236.2-.336.33l.33.33v1.99l.33.33h.99c.1.1.2.2.33.34h1.33c.1-.13.2-.23.33-.33h.66v.67h.66l.33.33h1l.66.66h-2.32l-.33-.33h-1.99l-.33-.33h-.99v.67c.1.2.2.43.33.67v.33l.33.33c.1.1.2.2.33.34l.33.33v.33l.33.33.33.33.33.33h.33l.33.33c.2.1.43.2.66.34l.33.33H34c.1-.13.2-.23.33-.33h.33c.1-.13.2-.23.33-.33.1-.13.2-.23.33-.33.1-.13.2-.23.33-.33.1-.13.2-.23.33-.33.1-.33.2-.66.33-.99.1-.13.2-.23.33-.33.2-.13.43-.23.666-.33h.993v.33l-1 1v.3h.99v.33c-.14.1-.23.2-.33.34-.14.2-.24.43-.34.66l.33.33v.67c-.13.1-.23.2-.33.33H37l-.337-.33-.33-.33H36v-.33l-.766-.1c-.1.23-.17.5-.236.76l.33.33h.33l.33.33.335.33.33.34.336.33v.33l.33.33v1.99c-.14.43-.23.86-.33 1.33l.33.33V27c-.14.1-.24.2-.34.33h-.33l-.33-.33c-.13.1-.23.2-.33.33-.24.1-.47.2-.67.33l-.33-.33-.33-.33-.66-.66-.33-.33V22.7l-.33-.33-.33-.33h-.33c-.13.1-.23.2-.33.33h-.33l-.33-.33h-2.3c-.14.1-.23.2-.33.34-.14.1-.24.2-.34.33v2.99l.33.33h.66v.336c-.13.2-.23.43-.33.66v.33c-.13.1-.23.2-.33.33l.33.33v.336c.1.2.2.433.34.665v.33l.33.33.34.33c.1.19.2.43.33.66l.33.33.33.33c.33.1.66.2.99.33l.33.33h.66c.1.17.2.33.33.5h2.98c.1-.16.2-.33.33-.497h1.32c.1-.14.2-.24.33-.33.2-.14.43-.24.66-.34.1-.13.2-.23.33-.33.2-.23.43-.46.66-.66.1-.13.2-.23.33-.33.2-.33.43-.66.66-.99.1-.13.2-.23.33-.33.1-.13.2-.23.33-.33v-.67c-.13-.136-.23-.23-.33-.33 0-.33 0-.33-.67-.33v.33h-.33l-.33-.33v-.337h.99c.1-.14.2-.24.33-.33H42c.1-.14.2-.24.333-.34v-2c-.133-.23-.232-.46-.332-.66l-.33-.33c-.13.1-.23.2-.33.336v.33h-1.66c-.13.1-.23.2-.33.33-.13.1-.23.2-.33.33h-.33v-.99c.1-.14.2-.24.33-.34v-1c.1-.13.2-.23.34-.33.1-.13.2-.23.33-.33.1-.13.2-.23.34-.33h.33l.33.33.33.33.33.33h.34c0 .33 0 .33.66.33V22c.33 0 .33 0 .33-.66h-.33v-1.66l-.33-.33-.33-.33v-.33l-.33-.33V18l-.33-.33-.33-.33-.33-.33-.33-.332-.33-.33-.33-.33-.33-.33c-.23-.137-.46-.236-.66-.336l-.33-.33h-.33l-.33-.33c-.23-.136-.46-.235-.66-.335l-.33-.33h-.33l-.33-.33-.33-.33c-.83-.73-1.02-.895-1.32-1.99l-.33-.33V9.03c.1-.132.2-.23.34-.33v-.66c.1-.133.2-.232.33-.332.1-.133.2-.232.33-.33h.33c.1-.134.2-.233.33-.333h.66v.332c.1.2.2.43.33.663l.34.33v1.328l.34.33v.995l.33.332h.33l.34.332c.1-.133.2-.232.33-.332h1.66c0 .332 0 .332.66.332v-.332h.67c.1-.132.2-.232.33-.33v-1.99l-.33-.33V8.37c.1-.13.2-.23.33-.33h.3l.33.33h3.32l.33.333v.332c-.13.1-.23.2-.33.33v.663c-.13.1-.23.2-.33.333l.33.33v10.28c.1.2.2.43.33.67v.33c-.13.2-.23.43-.33.67.1.2.2.43.33.67v.99c-.13.1-.23.2-.33.33v5.97c.1.2.2.43.33.66.17.34.17.34 1.66.67H48c.1-.13.2-.23.33-.33.66-.1 1.36-.2 2.055-.27.07-.36.17-.73.27-1.06v-.33l-.33-.33v-.66c.1-.13.2-.23.33-.33v-4.64l-.33-.33v-.99c.1-.13.2-.23.33-.33v-8.29l-.33-.33v-2c.1-.13.2-.23.33-.33v-.33l-.33-.33v-2c.1-.13.2-.23.33-.33h3.65l.33.34v6.62c.1.86.2 1.76.34 2.65v.67c-.13.1-.23.2-.33.33.1.43.2.87.33 1.33-.13.1-.23.2-.33.33v6.96l.33.33v.34c-.13.1-.23.2-.33.33v1.33l.33.33h.34v.34h-.33c-.133.1-.23.2-.33.33l.33.34.33.33c0 .33 0 .33.66.33v-.33h.665l.33.33h.33c.1-.13.2-.23.33-.33l-.336-.33v-.33c.1-.13.2-.23.33-.33h.33l.333.33v.33c-.13.1-.23.2-.33.33l.33.33h4.31c.1-.13.2-.23.33-.33v-.33h.66v.67c1.66 0 1.66 0 1.66-.33v-.33l-.33-.33c-.13.1-.23.2-.33.33h-.66v-.66h1.32c.1-.13.2-.23.33-.33h.335v.66c-.134.1-.233.2-.333.34v.67c.67 0 .67 0 .67-.33.1-.14.2-.23.33-.33l.33.33.33.33h1.33c0-.66 0-.66.33-.66h.33v.34l.34.33h.99c.1-.13.2-.23.33-.33v-1c.1-.13.2-.23.34-.33V18h.33v.993l.33.33v1.32l.33.33v.33c-.14.1-.24.2-.33.33.09.1.19.2.33.33v.99l.33.33v.99c.2.1.43.2.66.33v.99l.33.33v.99c-.33 0-.33 0-.33.66h.33v1.33l.33.33v.993h-.33v.992l.33.334h.33l.33.33h.66c.1-.13.2-.23.33-.33h.33l.33.33c.1.17.2.333.33.5h.33v-.5h.33v-.33c.1-.136.2-.235.33-.335v-1.66c.1-.13.2-.23.34-.33.1-.132.2-.23.33-.33l-.33-.33V27.9c.1-.13.2-.23.33-.33v-2.32c.1-.13.2-.23.33-.33V23.6c.1-.236.2-.468.33-.667v-1.66c.1-.134.2-.23.33-.33v-2.98h.66v4.306c-.13.1-.23.2-.33.33v.33l.33.33v2.65l.33.33v.33c-.13.1-.23.2-.33.33v2.65l.33.33v.33c-.13.1-.23.2-.33.33l.33.33h.66v.66h1.99l.33.33h.33c.4-.27.4-.27.66-1v-.33c-.23.33-.47.66-.67.99h-.33v-.66c.1-.13.2-.23.33-.33v-.33h.34c.1-.13.2-.23.33-.33V26.9c-.13-.132-.23-.23-.33-.33v-.99c0-.336 0-.336-.67-.336v.33h-.667v-.662c.1-.13.2-.23.33-.33h.33c.1-.13.2-.23.33-.33.1-.13.2-.23.33-.33.1-.13.2-.23.33-.33V7.71l-.33-.33v-.67c.1-.464.2-.895.33-1.326V4.39c-.13-.132-.23-.23-.33-.33-.01-.23-.01-.46-.01-.66zm-19.225.33h.664l.33.332v.332h-.67l-.33-.332v-.33zm-31.49 2.32h-.992v-.33h.33c.1-.133.2-.232.332-.332.2.1.43.2.663.332-.133.1-.232.198-.332.33zm-.993 19.225h.663v.332h-.662v-.332zm7.292 1.326v.34h-.662v-.66h.662v.33zm-2.32-19.55v-.66h.332v.67h-.332zM38.36 9.7h-.663v-.333h.662V9.7zm6.297-5.636h-.332v-.33h.332v.33zm3.646 23.865v.66h-.332v-.66h.34zm-.33 2.32h.33v.33h-.33v-.34zm.993-1.66h-.33v-.33h.33v.33zm.663.33v-.66h.33c-.14.2-.23.43-.33.66zm18.56-9.28c-.14-.13-.23-.23-.33-.33h.33v.33zm-6.3-2.98h.33v.33h-.33v-.34zm.33-1h.33v.33h-.33v-.33zm.33 1.32v-.34h.66v.66h-.67v-.33zm-2.65-.67h.33v.33h-.33v-.33zm-2.32-.33h-.34v-.33h.33v.33zM55.92 6.7v-.66h.33v.663h-.33zm-.33-.995v.33h-.33v-.33h.33zm-.99-1.99v.33h-.33c.1-.13.2-.23.33-.33zm-3.32 2.65v-.33h.33c.09-.13.19-.23.33-.33h.33v.662h-.33c-.14.1-.24.2-.33.33h-.34v-.33zm2.98-1.987h.33v.33h-.33v-.33zm1.32 18.56h-.33v-.995c.1-.13.2-.23.33-.33.1-.13.2-.23.33-.33v1.324c-.133.1-.232.2-.332.33zm10.61 5.306c-.134.1-.23.2-.33.332h-.334v-.998h-.33v-.334h.33v.33h.333l.33.33v.33zm0-1.988l-.33-.337h-5.3c-.134.1-.23.2-.33.33h-.33v-6.63h3.31l.333.33h.663c.1-.13.2-.23.33-.33h1.33v-.67c.1-.14.2-.23.33-.33.1-.14.2-.24.333-.34h.33v.66l.34.33v.66c-.13.1-.23.2-.33.33v.33c.1.76.2 1.52.33 2.32-.14.1-.23.2-.33.33v3.31c-.23-.13-.47-.23-.67-.33zm.994 3.972c-.133.1-.23.2-.33.33-.13-.57-.23-1.13-.33-1.66.1-.134.2-.23.33-.33h.33v1.654zm.33-2.32v-.664h.665v.33c0 .33 0 .33-.66.33zm3.316-13.26v.66h-.33v-.664h.33zm-.662 7.29c.1-.13.2-.23.33-.33v.33h-.33zm4.64 4.64h-.336v-.33h.662v.33h-.33zm-.33 3.644h.33v.335h-.666v-.334h.33zm7.29-9.61v.33h-.33c.1-.13.194-.23.33-.33zm-.666 5.305v-.664h.332v.66H81.1zm.33-3.647v.33h-.33v-.33l-.33-.33v-.33c.2-.137.43-.236.66-.336h.66v.333c-.134.1-.23.2-.33.33-.135.1-.234.2-.334.334zm10.61 1.99H90.4c-.134.1-.233.2-.332.33-.133.1-.232.2-.332.33v.33l.332.334v.996l.33.33v.664c.1.1.2.2.333.33v.333l.34.334v1.33l.33.33.33.33.34.33.33.34.34.33v.33h1c.1-.13.2-.23.33-.33.34.1.67.2 1 .33h2.65c.34-.13.67-.23 1-.33.1-.13.2-.23.34-.33.1-.13.2-.23.33-.33v-.33c0-.33 1-.33 1-.66.1-.13.2-.23.33-.33.1-.13.2-.23.34-.33.33-.13.66-.23.99-.33l-.33-.33-.33-.33v-.33c.1-.13.2-.23.33-.33v-.66c.1-.13.2-.23.33-.33v-.66l-.33-.33H98.4c-.137.1-.236.2-.336.33h-.33c-.13.1-.23.2-.33.34h-.33c-.135.1-.23.2-.33.33-.136.1-.235.2-.335.33h-1.34l-.33-.33v-.66l-.33-.33h-.33l-.33-.33v-1l-.33-.33h-1v.33h-.33zm30.162 2.65h-.335l-.33-.333v-.33l-.34-.33-.33-.33h-1.66c-.13.1-.23.2-.33.33v.33h-.33c-.14.1-.24.2-.34.33v2.657c-.14.1-.24.2-.33.33l.33.334v.664l.33.33.33.33h2.65c.1-.132.2-.23.33-.33h.33c.09-.33.19-.66.33-.993v-1.99c.1-.13.2-.23.33-.33l-.33-.33-.33-.33zm9.94 2.98h-.663l-.33-.33c-.66-.132-1.32-.23-1.99-.33-.13.33-.23.663-.33.994v.663l.33.33h.67c.1-.13.2-.23.33-.33h1.33l.33.33h.66c.1-.13.2-.23.33-.33v-.33l-.33-.333-.33-.33zm17.9-16.9v-.66c.1-.134.2-.233.33-.33v-1.32l-.33-.33V9.7c.1-.133.2-.232.33-.332l-.33-.33c-.264-1.095-.264-1.095-.662-1.327h-.33l.33.33v1.33l.33.34v.33c-.13.1-.23.2-.33.33v1.33c-.133.1-.23.2-.33.33v.33l.332.34c-.232.66-.464 1.33-.663 1.99V15l.33.332v.662c-.13.1-.23.2-.33.333-.13.098-.23.198-.33.33-.13.1-.23.2-.33.332h-.33v-.67c.1-.14.2-.24.33-.34v-4.31c.1-.13.2-.23.33-.33V6.71l-.33-.33v-.66h.67c0-.664 0-.664-.33-.664v-.662l-.33-.333-.33-.33h-.33V3.4l-.33-.334-.33-.33h-1.32l-.33-.333h-.66v.662h-.66v-.33l-.33-.332h-4.31c-.13.1-.23.2-.33.332h-.66l-.33-.332h-.33c-.13.1-.23.2-.33.332v8.29l.33.33h.33v.33c-.13.1-.23.2-.33.333v.662c-.13.53-.23 1.094-.33 1.657v1.99c.2.53.43 1.092.66 1.655v.994h-.33c-.13.1-.23.2-.33.332v.663l.34.34v.33c-.13.1-.23.2-.33.34v2.32l.33.33v1c-.13.1-.23.2-.33.33v1.66l.33.34v.67c-.13.1-.23.2-.33.33v1.33l.33.33v.34l.33.33v.34c.1.1.2.2.34.33h1.66v-.33l-.33-.33c.2-.13.43-.23.67-.33l.33.33h1.66l.34.34h.33l.33.33h1.66l.33.34c.1-.13.2-.23.33-.33.1-.13.2-.23.33-.33.1-.13.2-.23.33-.33l.34.33c.1-.13.2-.23.33-.33.2-.13.43-.23.66-.33.1-.13.2-.23.33-.33.1-.23.2-.46.33-.66.1-.13.2-.23.33-.33.1-.13.2-.23.33-.33V28c.1-.13.2-.23.33-.33V27c.1-.13.2-.23.33-.33V26c.1-.134.2-.23.33-.33v-1.33c.1-.134.2-.233.33-.33v-1.33c.1-.133.2-.233.33-.33V21c-.13-.134-.23-.23-.33-.33v-.33c.1-.137.2-.236.33-.336v-.33c.1-.133.2-.233.34-.33V19l-.33-.33v-1.33l-.33-.332v-.992c.1-.133.2-.232.33-.33V14.03c.1-.134.2-.233.34-.333v-.664h-.334c-.13-.002-.23-.002-.33-.002zm-5.634-9.61h.332v.33h-.664V3.4h.33zm-3.977 23.2h.66v.334h-.66v-.33zm0 2.654v-.33h.33v.34h-.33zm3.97 1.327v-.67h.33l.333.33v.34h-.667zm1.325-5.64c-.132.1-.23.2-.33.33v.34c-.134.1-.233.2-.33.33-.135.1-.234.2-.334.34h-1.65c-.136.1-.235.2-.334.33l.33.34v.33c-.13.1-.23.2-.33.34h-.66l-.33-.33-.335-.33v-.33c.1-.13.2-.23.335-.33.1-.13.2-.23.33-.33.1-.23.2-.46.333-.66v-2.32c.332 0 .332 0 .332-.99h-.34v-.33l-.33-.33v-.66c.1-.14.2-.23.33-.33l-.33-.34v-.33c.1-.13.2-.23.333-.33v-1.65h-.333v-9.3c-.13-.23-.23-.46-.33-.66v-.66h.663c0 .34 0 .34.665.34v-.34h.663l.33.34h.667v.66l.334.33v.34l.33.33.33.33v1.33l.33.33v4.3l.333.34v1.99c-.133.09-.232.19-.332.33v2.65l.333.33v.66c-.13.43-.23.86-.33 1.32-.13.1-.23.2-.33.33l.33.33.34.33v.33h-.33c-.13.1-.23.2-.33.33v.32zm1.66-1.32v.33h-.33v-.33h.33v-.33h.33v.33h-.33zm1.325-2.32c-.23.1-.465.2-.664.33v1c-.13.1-.23.2-.33.34h-.66c.1-.33.2-.66.33-.99.1-.14.2-.24.33-.33v-.67c.1-.23.2-.46.33-.66h.33v.33l.33.33h.33v.33h-.33zm.66-3.64v.67h-.33l-.33-.33v-.33c.1-.13.2-.23.33-.33h.333v.33zm-19.88 11.28c0-.66 0-.66-.33-.66l-.33-.33c-.134.1-.233.2-.33.33l.66.67h.33zm-1.324-2.32v.34l.33.33h.66l.33.33.33.33h.33l.33.33h.66v-.34c.09-.13.19-.23.33-.33h.33v1h.66v-.66l-.33-.33v-1.66c.1-.13.2-.23.33-.33l-.33-.33h-.34v-.33l-.33-.33v-1.99l-.34-.33v-1.66l-.33-.33v-1.66l-.33-.33v-.99h.33c0-.66 0-.66-.33-.66h-.34v-1.32l-.33-.33v-1.33l-.33-.33V11.7l-.33-.33v-.67l-.34-.33v-.333c.1-.132.2-.23.33-.33.1-.133.2-.232.33-.332-.14-.13-.23-.23-.33-.33V7.38l-.34-.332v-1.99l-.33-.332V3.73l-.33-.333v-.663l-.33-.332h-4.64c-.13.1-.23.2-.33.332-.13.1-.23.2-.33.33l.33.333v.662c-.13.1-.23.2-.33.33v.66c-.13.1-.23.2-.33.33v.99c-.13.1-.23.2-.33.33-.13.1-.23.2-.33.33v2.66c-.14.1-.23.2-.33.33v.99c-.13.1-.23.2-.33.33v.33l.33.33v2c-.13.1-.23.2-.33.33v1.65c-.14.1-.23.2-.33.33v.99c-.14.1-.23.2-.33.33v2.32c-.14.1-.24.2-.34.33v.33c-.13.1-.23.2-.33.34v.66c-.13.1-.23.2-.33.33v.33c-.13.1-.23.2-.33.33v1.66l.33.33.33.33h.66l.33.34h1.32l.33.33h.66c.1-.13.2-.23.34-.33h4.64l.33.33.33.33v.33c-.13.09-.23.19-.33.33zm1.33-.33h.34v.33h-.33v-.33zm.34-2.98h-.33v-.33h.33v.34zm-1-.99v.66h-.33l-.34-.33h-.33v-.33h.99zm-1.99-1.66l-.33-.33h-.34l-.33-.33h-1V15c.1-.232.2-.464.33-.663v-2.65c.1-.133.2-.232.33-.332v-1.99h.33l.33.333v.33c-.13.1-.23.2-.33.333l.33.33v2.32c.1.2.2.44.33.67V16l.33.33v.663c.09.33.19.66.33.993v.33c.1.432.2.863.33 1.327v.66c-.14.1-.23.2-.33.33-.14.003-.23.003-.33.003zm-19.21 4.97h-3.98v.33l.33.34v1h-.33c-.14.1-.23.2-.33.34v3.32l.33.33h.99l.33.33h.33l.33.33h.33c.1-.13.2-.23.33-.33h1.32c.1-.13.2-.23.33-.33v-1.33h.33v-.99l-.33-.33v-1c.1-.13.2-.23.33-.33v-.66c.1-.13.2-.23.33-.33v-.33l-.33-.33h-.67z"/>
  <path d="M102 11.023l-.332-.332v-.66c.1-.13.2-.23.332-.33l-.332-.33V6.38l-.33-.332v-.33l-.333-.333v-.33l-.332-.333c-.132-.232-.232-.464-.33-.663l-.333-.33-.663-.66-.33-.33h-.333l-.33-.34h-.333c-.13-.14-.23-.23-.33-.33h-2.32v-.33h-.66v.33h-.99c-.13.1-.23.2-.33.33h-.66c-.13.1-.23.2-.33.33-.13.1-.23.2-.33.33-.13.1-.23.2-.33.33-.13.09-.23.19-.33.33-.13.1-.23.2-.33.33-.13.1-.23.2-.33.33v.33c-.13.1-.23.2-.33.33v.33c-.13.1-.23.2-.33.33-.13.1-.23.2-.33.33v2.32c-.13.1-.23.2-.33.33v.33c-.13.1-.23.2-.33.33v4.97c-.13.1-.23.2-.33.33v.99l.34.33v.99c-.34 0-.34 0-.34.99h.33v2.32l.33.33v.33l.33.33v.66c-.13.1-.23.2-.33.33l.33.33v.99h.33c.1-.14.2-.24.33-.33h.34v-.33c.1-.13.2-.23.33-.33v.66h-.33l.33.33h.66l.33.33h.33v-.33h.67c.1-.13.2-.23.33-.33l-.33-.33v-1.6c.1-.14.2-.24.33-.34v-.66c.1-.14.2-.24.33-.34v-3.31l-.33-.33h-.33v-1c.11-.14.2-.24.34-.34v-.67c-.13-.23-.23-.46-.33-.66v-.33c.1-.14.2-.23.33-.33V12c.1-.13.2-.23.34-.33v-.66c.1-.13.2-.23.33-.33V8.37c.1-.132.2-.232.33-.33v-.333c.1-.133.2-.232.33-.33V6.71c.1-.132.2-.23.34-.33h.99c.1.098.2.198.33.33h.33l.33.332.34.332.33.33V8.7l.33.33v1.327l.33.33v.995c-.13.1-.23.2-.33.332-.13.1-.23.2-.33.33v.333l.33.33.33.333v3.98c.1.098.2.198.33.33v.332c-.13.1-.23.2-.33.33v3.648l.33.332h.33v.33c-.13.1-.23.2-.33.333-.13.1-.23.2-.33.332-.13.1-.23.2-.33.33v.996c.2.1.43.2.66.33h3.65v-.993l-.33-.332h-.33v.332h-1.32v-.332h1.33v-.33c.1-.233.2-.465.33-.664V16.66c.1-.134.2-.234.33-.333v-2.984l-.33-.333v-1.99zm-9.613-2.32v.662h-.33V8.7h.33zm-.33 14.584v-.332h.33v.332h-.33zm4.64-16.905V6.05l.33.332h-.33zm3.646 15.58c.1.1.2.198.33.33l.333.332c-.133.1-.232.2-.332.332h-.33l-.333-.332h-.33v-.663h.67zm-.995 1.325h.332v.33h-.332v-.33zm15.247-5.635v-1.99l-.332-.333V14l-.33-.332h-.663c-.134.1-.233.2-.333.333h-1.657l-.332-.33h-2.652l-.33-.33-.333-.33v-1.66c.1-.13.2-.23.332-.33.1-.13.2-.23.33-.33l-.33-.33V8.37h.33c.1-.133.2-.233.333-.33h2.322c.098-.135.198-.234.33-.334v-.33l-.33-.333v-.33l-.333-.33-.33-.33v-.33c.098-.13.198-.23.33-.33.1-.13.2-.23.332-.33.09-.132.19-.23.33-.33.1-.133.2-.23.33-.33v-1h.33c.1-.134.2-.233.33-.333v-.33c-2.22-.135-4.44-.234-6.63-.334h-.33c-.33.1-.67.2-1 .332-.14.1-.24.2-.34.33-.14 2.52-.23 5.072-.33 7.625v11.6l.33.33v1c-.14.1-.23.2-.33.333v.663l.33.33h.33c.1-.13.2-.23.33-.33h.66l.33.33h2.32c.1-.13.2-.23.33-.33v-1c-.13-.14-.23-.23-.33-.33l-.33-.34-.33-.34c-.14.1-.24.2-.34.33h-.66v-.34c.1-.13.2-.23.33-.33h.99c.1-.14.2-.23.33-.33.1-.33.2-.67.33-1V19.3c1.32.1 2.65.2 3.98.33h.33V18.3l-.33-.33v-.66c.09-.137.19-.236.33-.336.2.1.43.2.66.33l.33.33v.995l.33.33c.73-.27.73-.27.99-.67l-.34-.33v-.33zm-9.944-1.99h.67v.332c-.23-.132-.46-.232-.66-.33zm2.33 8.288h-.33v-.332h.33v.332zm-.99-.995h-.33v-.332h.33v.332zm.67-.994v-.66h.33v.66h-.33zm-77.9-16.9v-1c.1-.13.2-.23.34-.33-.99-.13-1.99-.23-2.98-.33v-.33l-.33-.33c-.23.1-.46.2-.66.33-.13.1-.23.2-.33.34-.13.1-.23.2-.33.33v.66c-.13.1-.23.2-.33.33v1.33c-.13.1-.23.2-.33.33v.66c-.13.1-.23.2-.33.34v1c-.13.1-.23.2-.33.34v1.98c-.13.1-.23.2-.33.34v.66c-.13.1-.23.2-.33.33h-.33V10.7l-.33-.33v-2l-.33-.33c-.13-.233-.23-.465-.33-.664l-.33-.332c.1-.33.2-.663.33-.994l-.33-.33c-.23-.896-.46-1.79-.66-2.653l-.33-.332h-.33c-.13.1-.23.2-.33.33h-1.33l-.33-.33h-1.66c-.13.1-.23.2-.33.33v1l.33.333v.992l.33.332v1.326l.33.332v.33l.33.333v1.324c.1.1.2.2.33.333v.663l.33.33v.995l.33.332v.663c.1.1.2.2.34.33v.664l.34.332v.66l.33.33v.66h.67v.33c-.14.2-.23.43-.33.66v.33l.33.33v.66l.33.33v.99l.33.33c.2-.13.43-.23.66-.33h.33v.33c-.13.1-.23.2-.33.33-.23.1-.46.2-.66.33.1.2.2.43.33.66h.33v.33h-.33v.99c-.13.1-.23.2-.33.33v.99c.1.2.2.43.34.67h.33v5.64c-.13.2-.23.43-.33.66h-.33l.33.33v.99h4.31c.1-.13.2-.23.33-.33.1-.13.2-.23.33-.33v-.66l-.33-.33V20.3c.1-.133.2-.232.33-.332v-.99c.1-.135.2-.234.33-.33v-1.33c.1-.134.2-.233.33-.333V16c-.13-.133-.23-.232-.33-.33l-.33-.333v-.33h1c.1-.134.2-.233.33-.333v-.33c.1-.133.2-.233.33-.33v-1.33c.1-.134.2-.233.33-.333v-.99c.1-.13.2-.23.33-.33V9.7c.1-.135.2-.234.33-.334V8.7h-.33v-.66h.33V6.714c.1-.134.2-.233.33-.333v-.66c.1-.13.2-.23.34-.33-.01-.13-.01-.23-.01-.33zM17.81 7.38v.33h-.332c.1-.133.2-.23.33-.33zm.33-.996h-.994V5.72h.662l.333.33v.332zm5.967 8.95v-.33h.332v.33h-.34zm-1.326-1.658v-.663h.34v.67h-.33zm1 2.983v-.33h.33v.33h-.33z"/>
  <path d="M112.275 5.388l.332.332v.994h-.332c0 .663 0 .663.332.663v.33c-.133.1-.232.2-.332.333l.332.33h.663c.1-.13.2-.23.33-.33h.663c.1-.133.2-.232.333-.332V2.405h-1.326c-.133.53-.232 1.094-.332 1.657-.133.1-.232.2-.33.332v.33c-.134.1-.233.2-.333.333v.33zm71.927-2.983h-1.326l-.33-.33h-1.327c-.14.098-.24.198-.34.33-.14.43-.23.862-.33 1.326-.13.1-.23.2-.33.34v1.98l.33.34v.33c-.13.1-.23.2-.33.33v.34h-.34c0 .67 0 .67.33.67v1.99c-.14.1-.24.2-.34.34v1.66c-.13.1-.23.2-.33.33v1.32c-.13.1-.23.2-.33.33V16c-.14.1-.24.2-.34.332v.33h-.33V16l-.33-.33v-2.99l-.34-.333V8.37l-.33-.33V6.716c-.13-.133-.23-.232-.33-.332l-.34-.332v-.996c-.14-.232-.24-.464-.33-.663V3.07l-.34-.332h-.33l-.34-.332h-.67c-.13.1-.23.2-.33.332h-1.33l-.33-.332h-.34c-.14.1-.24.2-.34.332v2.984c-.13.1-.23.2-.33.332V8.37c-.14.1-.23.2-.33.333v1.992c-.14.1-.23.2-.33.332v.33l.33.333v.33c-.14.1-.23.2-.33.332v.332c-.14.1-.24.2-.34.33v.333l.33.33v.996c-.13.1-.23.2-.33.332v3.645c-.13.1-.23.2-.33.332h-.66c.09-.232.19-.464.33-.663v-.67l-.33-.33v-6.3l-.34-.34-.33-.33V8.7l-.33-.33v-.99c.1-.132.2-.23.33-.33h.33c0-.664 0-.664-.33-.664-.23-.464-.47-.895-.66-1.326v-.332h-.33l-.33-.33v-.333l-.33-.33V3.4l-.34-.332c-.46-.132-.9-.232-1.33-.33h-.33c-.33-.167-.33-.167-.66.33v.664c.1.2.2.43.33.663-.14.1-.24.2-.34.33.2.53.43 1.095.67 1.658h-.67c-.13.1-.23.2-.33.332v.33h-.33l-.33-.33v-.332l-.33-.332c-.14-.46-.24-.89-.34-1.32l-.33-.33v-.33l-.33-.33c-.33-.13-.66-.23-.99-.33l-.33-.33h-.34l-.33-.33h-.33v-.33c-.33-.13-.66-.23-.99-.33h-.67c-.13.1-.23.2-.33.33h-.67c-.13.1-.23.2-.33.33h-.3c-.13.1-.23.2-.33.33-.13.1-.23.2-.33.34h-.66v-.33c.1-.13.2-.23.332-.33v-.34h-.34c-.46.1-.89.2-1.323.34-.136.1-.235.2-.33.33-.14.1-.236.2-.336.33-.13.1-.23.2-.33.34v.33c-.13.1-.23.2-.33.33v.33c-.13.1-.23.2-.33.33v.67c-.13.1-.23.2-.33.33v.33c-.138.1-.237.2-.337.33.1.33.2.67.33 1v.34c-.13.1-.23.2-.33.33v1.99c-.13.1-.23.2-.33.33v1.33c-.13.1-.23.2-.33.33.1.77.2 1.53.33 2.32v6.97l.33.33v.34c-.138.1-.23.2-.33.33V23l.33.33v1.99l.33.336v.99c-.136.1-.23.2-.33.336v.33l.33.34v.33l.33.332v.33l.332.33v.337l.33.33.33.33.33.33h.66l.33.33v.33l.33.33.33.33H157c.1-.13.2-.23.33-.33h.665l.33.33c.1-.13.2-.23.33-.33h.997c.1-.13.2-.23.33-.33h.33c.1-.13.2-.23.33-.33h.33c.2-.13.43-.23.664-.33.1-.13.2-.23.33-.33.1-.14.2-.24.335-.34h.33c.1-.13.2-.23.34-.33.1-.13.2-.23.33-.33.1-.13.2-.23.34-.33v-1.99c.1-.13.2-.23.33-.33v-1.33c.1-.13.2-.23.34-.33v-1.99c.1-.13.2-.23.34-.33v-9.28c-.14-.46-.24-.89-.34-1.32.1-.13.2-.23.33-.33v-2.7l-.33-.33v-.66h.66v.34l.33.33.33.33v.34c-.13.1-.23.2-.33.33v.33l.33.33h.33v.67c-.13.1-.23.2-.33.33v.66l.34.33v.66l.33.33V15l.34.33v.334h-.33c0 .66 0 .66.34.66v2.32l.33.33.33.33v.33c-.13.1-.23.2-.33.332v.66l.33.33v2.655l.34.33v2.32l.33.33c-.13.77-.23 1.53-.33 2.32v.34l.33.33h.33v.34c-.26.73-.26.73 0 .99l.33.33h1.66l.33.33h.99c.1-.13.2-.23.33-.33.1-.13.2-.23.34-.33v-.66h.33c.1-.13.2-.23.33-.33v-1.33c.1-.23.2-.46.33-.66v-.33c.1-.13.2-.23.33-.33l-.33-.33v-.99c.1-.13.2-.23.33-.33v-.66c.1-.23.2-.46.33-.66v-1c.1-.13.2-.23.33-.33v-3.64c.1-.13.2-.23.33-.33v-2.65h.34l.33.33v1c-.13.1-.23.2-.33.33.1.2.2.43.33.67l.33.34h.67v.33c-.13.2-.23.43-.33.66-.13.1-.23.2-.33.33-.13.09-.23.19-.33.33V21c.1.33.2.66.34.99v1.99l.33.33v3.32l.33.33v2.99l.33.33h.33l.34.33c.1-.13.2-.23.33-.33h.66c.1-.13.2-.23.33-.33h3.31c.1-.13.2-.23.33-.33-.13-.23-.23-.463-.33-.66l-.33-.33h-.66v-.664h.33c.1-.13.2-.23.33-.33.1-.56.2-1.13.34-1.66l-.33-.33v-.33c.1-.13.2-.23.34-.33v-.66c.1-.13.2-.23.33-.33.1-.13.2-.23.33-.33V23c.1-.795.2-1.56.33-2.32v-.994c.1-.13.2-.23.33-.33v-3.33c.1-.13.2-.23.33-.33v-.33c-.13-.566-.23-1.13-.33-1.66.1-.132.2-.232.33-.33.1-.134.2-.233.33-.333v-2.99c.1-.13.2-.23.33-.33V8.05c.1-.134.2-.233.33-.333v-1.99c.1-.133.2-.232.33-.332v-2.32l-.33-.33c-.13-.14-.23-.24-.33-.34zm-27.18 1.657v.332h-.332v-.332h.332zm-1.99.663h-.662v-.33c.1-.134.2-.233.332-.333.2-.133.43-.232.663-.33v.662c-.133.1-.232.198-.332.33zm5.305 18.562c-.133.1-.232.2-.33.33v1.66c-.134.1-.233.2-.333.33v.664c-.133.1-.232.2-.33.34-.134.1-.233.2-.333.33h-.33l-.33-.33h-.66l-.33-.33h-.66v-1l-.33-.33v-.99l-.33-.33V21.3c.1-.233.2-.465.34-.664v-.33l-.33-.333v-.33c.1-.133.2-.233.33-.332l-.33-.33v-4.64l-.33-.33v-.33c.1-.13.2-.23.34-.33l-.33-.33v-.66c.1-.13.2-.23.33-.33V9.7c.1-.134.2-.233.33-.333.1-.13.2-.23.33-.33V7.71c.1-.133.2-.232.33-.33v-.34c.1-.133.2-.232.33-.33h.67l.33.33h1l.33.332v.663c.1.2.2.43.34.663v.662c.1.1.2.2.33.333v.663c-.13.1-.23.2-.33.33v.664c.1.2.2.43.33.663v2.655h.33l.3.332v.33c-.33 0-.33 0-.33.994h.33v1.326c-.13.1-.23.2-.33.332-.13.1-.23.2-.33.33v.996c.1.33.2.663.34.994v.663c-.14.1-.24.2-.34.33v1.993zm4.972-16.242h.33v.662h-.33v-.662zm.99-2.32c.1-.133.2-.232.33-.33v.33h-.33zm4.97 16.573v.995h-.33c-.14-.232-.23-.464-.33-.663v-.663h.66v.33zm-.33-.663h-.33v-.33h.33v.33zM183.2 3.73V3.4c.1.098.2.198.33.33h-.33zm14.916-1.325l-.33-.33h-.664c-.136.098-.236.198-.335.33h-.663l-.334-.33h-.99c-.135.098-.234.198-.334.33h-.333c-.13.332-.23.663-.33.994.1.19.2.43.33.66v5.3l.333.33v2.32c-.132.1-.23.2-.33.33l.333.33v.66c-.14.1-.24.2-.34.33v2.65h-.66v-.67c-.14-.23-.23-.47-.33-.66v-.66l-.34-.33v-.67c-.14-.33-.24-.66-.33-1V12l-.33-.33V9.7l-.33-.332v-.33l-.33-.333V8.04l-.33-.333v-1.99c-.13-.23-.23-.463-.33-.662V3.397l-.34-.332v-.33l-.33-.333h-.34l-.33-.33h-1.33c-.14.098-.24.198-.33.33h-1.32c-.14.1-.24.2-.34.332h-.67v10.61c-.14.53-.24 1.093-.34 1.656v.663l.34.33v4.31c-.14.1-.24.2-.34.33v2.653l.33.33v6.962c1.09.1 2.19.2 3.31.332.1-.232.2-.464.33-.663v-2.98c.1-.133.2-.23.33-.33V23.29l-.33-.334V21.3c.1-.134.2-.233.33-.33v-1.992c-.13-.232-.23-.464-.33-.663v-4.64h.66v1.985l.33.33v.333c.1.2.2.433.33.665v.662c-.13.1-.23.2-.33.333.1.33.2.662.33.993v.662l.33.333v1.33l.33.34.33.33v.66l.33.33v1c.1.2.2.43.33.66v1.33l.33.34v.66l.33.34v3.65l.34.33h.33l.33.33h.66c.1-.13.2-.23.33-.33h.99c.1-.13.2-.23.33-.33.2-.13.43-.23.66-.33.1-.13.2-.23.33-.33.1-.13.2-.23.33-.33v-5.97c.1-.13.2-.23.33-.33l-.33-.33v-2c.1-.13.2-.23.33-.33V15c.1-.132.2-.23.33-.33h.33v-.333h-.33v-.994h.33V2.4c-.14.008-.24.008-.33.008z"/>
</svg>
