<svg xmlns="http://www.w3.org/2000/svg" viewBox="0 0 200 30">
  <path d="M179.944 7.297v6.37h17.454v3.49h-17.454v6.982H198.5v3.98h-25.66V3.316h25.476v3.98h-18.372z"/>
  <path d="M163.098 19.3h7.106v.853c0 3.452-.947 5.683-2.842 6.694-1.895 1.01-6.083 1.517-12.567 1.517-7.36 0-11.885-.8-13.58-2.398-1.693-1.598-2.54-5.874-2.54-12.825 0-4.093 1.147-6.783 3.442-8.073s7.095-1.935 14.4-1.935c5.317 0 8.868.53 10.653 1.588 1.785 1.058 2.677 3.16 2.677 6.3l.028.564h-7.106v-.633c0-1.613-.462-2.647-1.383-3.098-.92-.452-3.022-.677-6.303-.677-4.394 0-7.033.357-7.917 1.07-.884.715-1.326 2.833-1.326 6.352 0 4.742.397 7.55 1.19 8.42.795.87 3.365 1.306 7.71 1.306 3.522 0 5.808-.24 6.858-.725 1.05-.483 1.574-1.547 1.574-3.192l-.074-1.106z"/>
  <path d="M134.613 3.316V28.12h-7.104V3.315h7.103z"/>
  <path d="M107.574 3.316v20.577h17.454v4.226H100.47V3.315h7.104z"/>
  <path d="M80.765 3.132c6.77 0 11.13.748 13.078 2.244 1.947 1.496 2.922 4.84 2.922 10.036 0 5.68-.98 9.258-2.935 10.736-1.957 1.477-6.694 2.216-14.21 2.216-6.772 0-11.15-.73-13.134-2.188-1.985-1.46-2.976-4.672-2.976-9.637 0-5.91.973-9.623 2.92-11.137 1.948-1.514 6.726-2.27 14.335-2.27zm-.546 4.042c-4.76 0-7.54.406-8.342 1.216-.802.81-1.203 3.617-1.203 8.42 0 3.556.47 5.697 1.41 6.423.938.726 3.704 1.09 8.298 1.09 4.394 0 7.03-.41 7.903-1.226.875-.816 1.313-3.293 1.313-7.43 0-4.15-.416-6.604-1.246-7.36-.83-.755-3.542-1.133-8.135-1.133z"/>
  <path d="M32.15 28.12V3.315h16.917c5.048 0 8.45.585 10.21 1.753 1.758 1.167 2.637 3.422 2.637 6.763 0 3.318-.838 5.52-2.515 6.61-1.677 1.09-5.068 1.634-10.17 1.634l-1.64.018h-8.336v8.023H32.15zm7.105-12.004h8.063c3.217 0 5.26-.244 6.13-.732.867-.488 1.3-1.64 1.3-3.46 0-2.084-.36-3.377-1.083-3.876-.722-.5-2.6-.75-5.636-.75h-8.775v8.818z"/>
  <path d="M21.656 3.32v2.695h4.746v1.47h-4.746v2.97h5.052v1.684h-6.95V1.635h6.89V3.32h-4.992z"/>
  <path d="M18.517 1.636V12.14h-1.9V7.606h-4.745v4.532h-1.9V1.635h1.9v4.287h4.746V1.636h1.9z"/>
  <path d="M6.307 3.412v8.727H4.41V3.41H1.5V1.636h7.808v1.776h-3z"/>
</svg>
