<svg xmlns="http://www.w3.org/2000/svg" viewBox="0 0 200 62.371">
  <path d="M22.852 57.717V22.312c-.185-.006-.37-.01-.557-.01-9.782 0-17.71 7.93-17.71 17.712s7.928 17.71 17.71 17.71c.187.002.372 0 .557-.007zM2.624 40.015c0-10.907 8.842-19.75 19.75-19.75.825 0 1.64.052 2.44.15v39.2c-.8.098-1.615.148-2.44.148-10.908 0-19.75-8.84-19.75-19.748z"/>
  <path d="M180.175 57.657h6.405c4.603 0 8.334-3.945 8.334-8.81 0-4.867-3.73-8.812-8.334-8.812h-6.405v17.622zm-1.944 2.11V37.963h8.694c5.725 0 10.366 4.907 10.366 10.96 0 6.053-4.64 10.842-10.366 10.842h-8.693z"/>
  <path d="M182.884 20.56h-4.354V34.53h15.963c.104-.725.167-1.43.167-2.197 0-6.504-5.272-11.776-11.776-11.776zm9.71 12.292H180.47V22.238h2.346c4.94 0 9.777 4.608 9.803 8.938.002.582.054 1.126-.026 1.676z"/>
  <path d="M167.757 20.575c-3.663 0-6.82 2.11-8.265 5.202-1.663-3.287-5.072-5.54-9.008-5.54-3.443 0-6.202 1.6-8.327 4.1-2.048 2.408-3.35 4.445-4.496 7.213V20.163h-18.266v9.847c-1.588-2.77-3.82-5.125-6.496-6.856l-18.67 35.11c2.408 1.03 5.06 1.6 7.844 1.6 7.414 0 13.883-4.044 17.322-10.046v9.948h18.267V32.24h2.916c.894 4.656 4.99 8.174 9.908 8.174 4.242 0 7.872-2.617 9.364-6.325 1.568 2.743 4.523 4.592 7.91 4.592h7.632V20.575h-7.633zm-65.685 36.85c-1.43 0-2.82-.173-4.152-.496l15.936-29.967c3.518 3.203 5.726 7.82 5.726 12.95 0 9.672-7.84 17.51-17.51 17.51zm33.527.274h-14.144V22.23H135.6V57.7zM150.45 38.19c-4.232 0-7.678-3.36-7.82-7.557h-2.747s1.865-3.307 5.38-6.124c1.38-1.222 3.197-1.964 5.186-1.964 4.32 0 7.824 3.502 7.824 7.823 0 4.32-3.502 7.822-7.822 7.822zm22.856-1.653h-5.3c-3.807 0-6.893-3.088-6.893-6.895 0-3.808 3.087-6.894 6.894-6.894h5.298v13.79z"/>
  <path d="M102.072 19.964c-8.636 0-15.99 5.487-18.767 13.165-2.776-7.68-10.13-13.166-18.767-13.166-2.852 0-5.563.598-8.017 1.676l18.686 35.135c3.706-2.35 6.584-5.887 8.1-10.076 1.514 4.19 4.392 7.726 8.098 10.075L110.09 21.64c-2.454-1.078-5.166-1.676-8.018-1.676zM75.885 53.25L59.823 23.048c1.5-.42 3.082-.642 4.716-.642 9.67 0 17.51 7.84 17.51 17.51 0 5.34-2.393 10.124-6.165 13.336zm14.84 0c-3.77-3.21-6.163-7.994-6.163-13.336 0-9.67 7.84-17.51 17.51-17.51 1.634 0 3.216.224 4.716.642L90.726 53.25z"/>
  <path d="M53.712 23.155c-3.53 2.286-6.294 5.657-7.816 9.642V4.317H27.682v55.446h18.214v-12.73c2.866 7.502 10.132 12.832 18.643 12.832 2.784 0 5.435-.57 7.843-1.6l-18.67-35.11zm-9.954 34.397H29.82V6.53H43.76v51.022zm3.27-17.638c0-5.132 2.21-9.75 5.727-12.95L68.69 56.928c-1.33.323-2.72.494-4.15.494-9.672 0-17.51-7.84-17.51-17.51z"/>
  <path d="M173.204 57.826v-12.17h-12.886c-.084.63-.03 1.254-.026 1.92.027 4.967 5.167 10.25 10.418 10.25h2.494zm2.06 1.925h-4.627c-6.912 0-12.516-6.045-12.516-13.503 0-.878.068-1.688.18-2.52h16.964v16.024z"/>
  <path d="M24.813 12.26c0 .59-.205 1.065-.616 1.424-.41.358-.945.538-1.602.538-.934 0-1.654-.355-2.162-1.064-.62-.866-.952-2.14-.997-3.82-.008-.538-.02-1.08-.034-1.624-.037-.584-.142-1.114-.314-1.592-.045-.134-.138-.32-.28-.56-.164-.29-.284-.437-.358-.437-.037 0-.112.015-.224.045-.112.022-.202.033-.27.033-.41 0-.615-.134-.615-.403 0-.105.08-.19.236-.258.112-.045.23-.067.358-.067.27 0 .504.105.706.314.097.02.194.033.29.033.292 0 .733-.045 1.323-.134.59-.09 1.034-.136 1.333-.136.426 0 .665.037.717.112.06.075.093.168.1.28.135.21.203.456.203.74 0 .253-.06.38-.18.38-.02 0-.04-.023-.055-.067-.007-.053-.02-.135-.044-.248-.052-.27-.235-.463-.55-.582-.343-.135-.78-.202-1.31-.202-.254 0-.773.034-1.557.1-.06.008-.09.023-.09.046s.08.157.245.403l.302.46c.172.283.407.824.706 1.623.022.067.097.1.224.1h1.288c.56 0 .945.102 1.154.303.096.097.145.19.145.28 0 .18-.13.27-.392.27-.344 0-.61-.135-.795-.404-.037-.06-.1-.105-.19-.135-.247-.09-.482-.135-.706-.135-.396 0-.594.05-.594.146 0 .008.004.015.01.022.173.695.453 1.262.84 1.703.472.53 1.028.796 1.67.796.276 0 .52-.09.728-.27.21-.178.325-.268.347-.268.15 0 .325.172.526.515.322.547.483 1.126.483 1.738z"/>
  <path d="M18.976 13.012c0 .344-.086.624-.258.84-.194.23-.456.347-.784.347-.358 0-.695-.135-1.008-.404-.426-.373-.728-.87-.908-1.49-.097-.33-.157-.627-.18-.896l-.122-1.96c-.008-.12-.1-.232-.28-.337-.18-.104-.377-.164-.594-.18-.142-.007-.407-.01-.795-.01h-.683c.135.41.344.84.627 1.288.106.158.374.475.808.953.35.38.58.72.683 1.02.113.298.17.626.17.985 0 .687-.322 1.03-.964 1.03-.448 0-.8-.096-1.053-.29-.463-.358-.77-.788-.92-1.288-.118-.41-.178-.724-.178-.94 0-.218.022-.587.067-1.11.052-.523.078-.9.078-1.13 0-.218-.015-.4-.045-.55-.075-.008-.164-.03-.27-.067-.104-.045-.167-.067-.19-.067.038 0-.01.01-.145.034-.052.015-.1-.01-.146-.078-.06-.097-.127-.25-.202-.46-.075-.208-.112-.365-.112-.47 0-.044.082-.03.246.046.24.3.504.474.795.527-.014-.38-.066-.94-.156-1.68-.075-.427-.202-.83-.38-1.21-.068-.128-.14-.225-.214-.292-.127.067-.284.097-.47.09-.173-.008-.322-.05-.45-.123-.118-.082-.174-.172-.167-.27.007-.096.075-.175.2-.234.128-.067.28-.097.46-.09.045 0 .13.015.258.045.053.023.128.06.225.113.32.217.583.695.784 1.434.11.538.227 1.075.346 1.613.045.187.116.433.213.74.507.11 1.056.163 1.646.156.284-.008.5.033.65.123.037.02.064.032.078.032.037 0 .056-.138.056-.415 0-1.15-.205-2.166-.616-3.047-.015-.045-.056-.1-.123-.168-.036-.015-.08-.015-.133 0-.134.052-.273.075-.414.067-.172-.01-.32-.05-.448-.124-.12-.082-.176-.172-.168-.27.007-.096.075-.175.202-.234.126-.067.28-.097.458-.09.3.007.542.12.728.336.082.09.172.243.27.46.23.514.384.94.458 1.276.127.583.243 1.038.347 1.367.143.434.255.755.337.964.15.373.302.676.46.908.156.224.376.463.66.717.29.253.478.436.56.548l.247.314c.082.105.15.228.202.37.174.438.26.85.26 1.23z"/>
  <path d="M11.213 13.057c0 .35-.104.627-.314.83-.21.2-.498.3-.864.3-.18 0-.396-.04-.65-.122-.254-.082-.44-.176-.56-.28-.41-.374-.69-.762-.84-1.165-.082-.23-.123-.68-.123-1.344 0-.35.056-.878.168-1.58.12-.702.18-1.233.18-1.59 0-1.338-.213-2.37-.64-3.093-.163 0-.406.022-.727.067-.32.037-.563.056-.728.056-.24 0-.452-.067-.638-.202-.187-.14-.26-.28-.224-.414.045-.135.183-.202.414-.202.105 0 .21.015.314.045.33.097.5.247.516.448.06.01.168.012.325.012.322 0 .722-.034 1.2-.1.21-.023.545-.076 1.008-.158.172-.037.28-.055.325-.055H9.5c.074-.01.122-.012.145-.012.17.007.272.015.302.022.104.015.172.052.202.112.044.105.077.194.1.27.135.298.202.537.202.716 0 .06-.008.108-.022.146-.052.112-.105.168-.157.168-.022 0-.037-.026-.045-.078-.038-.344-.203-.598-.494-.763-.045-.03-.164-.073-.36-.133-.066-.015-.17-.034-.312-.056h-.336c-.097 0-.235.016-.415.046-.17.03-.3.044-.39.044.2.35.36.833.48 1.445.173.874.273 1.367.303 1.48.157.522.273.884.348 1.086.158.434.322.77.494 1.01.27.335.538.667.807.996.315.388.535.736.662 1.042.134.33.2.665.2 1.01z"/>
</svg>
