<!--
  SVG Music Logos
  The Cure - 4.13 v0.1.0
  https://github.com/tiagoporto/svg-music-logos
  Copyright (c) 2016-2018 Tiago Porto (http://tiagoporto.com)
-->
<svg xmlns="http://www.w3.org/2000/svg" viewBox="0 0 200 99">
  <path d="M198.167 71.746c.124-.66 1.035-1.202.792-2.177-.562-2.25-1.673-1.456-.99-4.752-.472-.48-1.012-1.245-1.387-1.782-.76-.185-1.16-.39-2.177-.396-1.33 1.435-2.92 2.63-4.553 3.76-.058.785-.292 1.302 0 1.783-1.646 1.234-1.586.19-2.77 2.376-1.534.32-4.243.377-5.346-.397-.9-.273-1.396-.862-.792-1.584-.057-1.644-.93-1.984-1.98-2.574.265-1.046.592-2.486.99-3.365.995-.345 2.757-.554 3.76-.593-.258-.727-2.863-2.725-3.562-3.167.1-.71.158-.85.594-1.188-.31-1.33-3.16-3.35-1.584-5.74.15-1.527 1.527-2.9 2.573-3.564-.246-.448-.724-.146-1.188-.792h-.198c.33-.902.983-1.246 1.386-2.178-.89-.567-1.56-1.372-2.375-1.98.022-.502.025-.734.2-.99.23-.59.46-.554.79-.99 4.15-.172 3.305 1.69 5.544 3.167.543.36 1.942.593 2.574.198.997-.37.923-1.095 1.386-1.98 2.24-4.29.003-6.644-1.98-9.502-3.365.285-3.465 3.8-7.522 1.386-.128-.34-.04-.194-.198-.396.115-.77.38-1.306.792-1.782-.113-1.65-.954-1.552-1.188-2.97-.48-1.3 2.34-3.394.99-4.948.246-1.23 1.875-1.293 2.772-1.78v-.397l-2.376-1.188c-.578-.608-.46-1.28-1.188-1.78.02-1.446.337-1.93.396-3.17 1.047-.346 1.906-.31 2.574-.99l.198-.197c-1.196-.403-2.943-.975-3.96-1.584.256-2.033 1.822-1.108 3.168-1.98.388-.25.58-1.583.792-1.98 3.604.16 7.026 4.264 8.314 6.93.855.213 2.553.932 3.365.396.883-.09.983-.295 1.584-.594.2-.933.47-2.107.99-2.77.007-2.52-1.01-1.888-1.583-3.168-.58-1.294.13-2.3-.99-3.167-1.56-1.208-9.298-1.56-11.877-1.583v.396c-2.96-.575-7.13-.164-9.898.198-1.208.16-2.856-.454-4.158 0-.86.3-1.656 1.113-2.375 1.585V8.2c1.154 1.036 4.737 3.44 2.97 5.94-.027 1.62-1.474 2.647-2.575 3.168.237.344.552.32.792.594.61.694.574 1.91 1.188 2.573-.03 1.94-1.518 3.55-2.573 4.553.18.88.734 1.043 1.385 1.386-.126.594-.734 1.495-.396 2.376.288.75 1.68 1.945.79 3.365-.37 1.013-1.904 1.138-2.77 1.583.26.697.822 1.013 1.583 1.188-.196.573-.342.7-.792.99.188 1.107.712 1.24.99 2.178-.707.545-1.257.68-2.176 1.188l.198 1.385c.783.363 1.952.647 2.77.99-.044.46-.038.558-.197.792-.18.338-2.475 1.29-2.97 1.583.432 1.98 3.436 1.27 4.158 3.167.146.272-.227 1.03-.594 1.386.045 1.3.496 1.944 1.187 2.574-.043 1.458-2.083 4.87-2.97 5.543.305.59 1.218.723 1.783.99 0 1.412-.38 2.198-.594 3.167-.238 1.084.592 1.517.396 2.376-.058.254-.597.982-.792 1.188.165.818.602 1.043 1.188 1.386-.53.718-1.836.952-2.574 1.584.012 1.008.153 1.788.594 2.375-.472.713-2.042.174-2.77.593l-.595.198c.812 1.176 3.08.99 3.563 2.376.176.383.113.418-.198.792.593 2.852 4.27 1.265 7.127 1.98 1.15.286 2.68.943 3.76 1.187l2.773-.396c3.057.486 7.504.904 10.888.197 2.257-.47 4.197.247 5.543-.99.818-.294 2.197-1.754 1.98-2.97-.057-.278-.514-.4-.403-.99z"/>
  <path d="M140.56 19.485c-.54-1.224.256-3.704-.79-5.147l-2.178-1.584c-.87-1.155-1.563-3.385-2.77-4.157l-2.376-.396-.792-1.385c-.327-.225-3.96-1.472-4.355-1.584-2.04-.573-5.448-.363-7.128 0h-3.365c-.442.11-1.29.713-1.584.793-.115.03-.918-.38-.99-.396-.506-.11-1.2.176-1.386.198-.74.088-2.303-.207-3.365-.198-.72.75-1.902 1.624-2.77 2.177.087 2.504 1.207 3.858 1.187 6.533l-.99 1.386c-.537.386-.807.256-1.19.792.963.963 1.794 2.018 2.97 2.77-.777 1.37-.376 3.13.99 3.96-.038 1.487-.855 1.977-1.584 2.772.19.97.94 1.3 1.584 1.782-.096 2.358-1.834 1.794-2.375 3.562h-.198c.48 1.344 1.954 3.04 2.97 3.96-.11 2.212-1.14 3.466-1.585 5.146-.316 1.19.383 1.442-.198 2.177.08 1.465.607 2.028 1.584 2.573-.066 1.413-1.08 2.218-1.98 2.77v.595c.55.063 1.04.142 1.386.396l.594.197c-.08.407-.05.382-.198.594-.283.594-.884.84-1.584.99.19 1.64 1.012 1.794.99 3.96-.762.703-2.05 1.468-2.574 2.376h-.198v.198c.614-.013 1.25-.028 1.584.198.946 0 1.253.11 1.78.396-.088.59-.1.668-.395.99-.77.585-1.9-.07-2.97.396-.602.262-1.19 1.204-1.78 1.584.114 1.013.348.81.79 1.386.678-.18.87-.37 1.783-.396.563.622 2.916 3.72 3.365 3.96h.99l1.387.99c-.866.923-2.016.68-3.168 1.385-1.755-.036-1.614.35-2.376 1.188v1.585c.3.548 2.04.623 2.574.99l1.188 1.386c-.175.272.26.41 0 .99-.23.512-.637.34-.792 1.19 1.574.086 3.475-.43 5.345 0 1.856.425 4.74 1.114 5.938-.397-.006-.305-.05-.177-.396-.594l1.78-1.783c-.09-1.766-1-2.47-1.385-3.76-.336-1.125.49-1.943 0-2.773-.05-2.45.99-2.052 2.376-2.97 1.064.075 5.088 1.774 5.74 2.377.27.434-.008 1.15.2 1.783.28.852 1.31 1.865 1.98 2.375-.03 1.153-.267 1.588-.595 2.375.634.673 1.053 1.82 1.782 2.376 1.605 1.22 7.303 1.82 9.106.395.894-.317 1.003-.992 1.584-1.584-.162-4.37-6.105-8.91-2.97-12.272-.227-.48-.834-.61-.99-.99l.198-2.573c-.376-1.234-2.55-6.132-3.366-6.93.122-1.2.88-1.593 1.584-2.176-.072-2.24-2.078-2.195-3.365-3.17-.773-.584-.775-1.617-1.385-2.374-.33-.41-1.358-1.08-1.782-1.386v-2.574c.31-.69 1.35-.77 1.98-1.188l3.76-3.76c.806-.54 2.193-.43 2.97-.99h.198c-.254-.726-.86-1.14-1.385-1.585.08-.407.05-.382.198-.594.265-.533.75-.832 1.386-.99.112-.675-.067-1.717.197-2.178l2.77-2.97c.74-.514 1.482.062 1.98-1.187l.198-.198h-.198c-.92-1.733-4.286-.857-5.146-3.762zm-18.21-7.72c1.523.068 3.286 1.21 3.958 2.177l.198.198h-.198c-.147.46-.206.442-.396.792-.866-.004-4.08-.24-4.355-.396-.534-.183-.58-.34-.99-.594.344-.943 1.255-1.364 1.782-2.178zm4.156 49.885c-.896.54-1.906-.132-2.772.594-1.268-.086-1.444-.575-2.375-.99-.077-.378-.336-.75-.397-.99v-2.376l.396-.396c-.158-.26-.468-.258-.793-.396.094-.897.184-.718.594-1.188 1.294.55 2.954.867 4.356 1.386.268.775.44 2.33 1.188 3.167-.005.542-.008.91-.198 1.19zm-4.95-13.857c-.014-1.045.083-1.594.397-2.177 1.032.048 1.306.273 1.98.594.27 1.1 1.55 2.654.99 3.563-.09 1.067-.432 1.234-1.188 1.584-.496.388-2.26-.368-2.573-1.386l-.198-.197.594-.594c-.316-.59-.603-.85 0-1.387zm3.366-13.066c-1.263-.02-1.362-.316-2.177-.594v-.198l1.188-.99h1.584l.792.792c-.34.704-.8.578-1.388.99zm.792 18.61l-.198 1.187c-1.69.337-2.683-.188-3.96-.594l-.197-.594c.36-.174.718-.333.99-.594 1.082-.034 2.224-.1 2.77.396l.594.198zm.99-22.173c-1.464-.052-2.15-.305-2.97.396-2.39.02-2.448-1.032-3.562-2.177.082-1.504.768-1.498 1.386-2.376 1.96.326 4.057 1.824 5.543 2.77-.058.86-.186.818-.396 1.387zm-4.355-6.928c.14-.737.29-.7.593-1.188.965-.028 1.703-.04 2.177.396h.396c-.094.625-.2.747-.396 1.188-1.285.538-1.812.257-2.77-.396zm5.344-6.93c-.227.67-.646 1.048-1.188 1.387.158.71.548 1.163 1.188 1.386v.395c-.42.344-.57.6-1.188.792-.673.51-3.15.57-3.96 0-1.618-.688.035-2.722.2-4.157 1.538.06 2.942.416 3.958-.396.74.034.7-.103.99.396l.198.198h-.198z"/>
  <path d="M84.736 8.795c.606-1.667.065-1.966 1.386-2.97-.285-1.204-.838-1.895-1.386-2.77-1.85-.095-3.41-.416-5.543-.397-.407.28-1.1.127-1.583.396l-.99.99c-.685 2.716-.9 4.783 1.386 6.137 0 2.132-1.926 3.18.198 5.346-.022 1.046-.17 1.367-.792 1.782.09 1.363.71 1.52.99 2.375.432 1.322-.84 1.92-.396 3.168l.594.595-.198 8.116c.22.93 1.148 1.852.792 3.168-.37 1.37-1.84 3.02-2.77 3.96.19.883 1.32 1.578 1.98 1.98-.123 1.26-1.14 1.868-1.98 2.375.158 2.34 2.245 2.7 2.77 4.75.462 1.803-1.212 3.667-1.583 4.95l1.387 1.386c-.23 2.51-3.582 4.444-1.188 7.72-.473 2.93-1.864 1.952-2.97 3.364-.606.773.072 1.184-.99 1.584-.645.285-5.053-1.534-5.94-1.98-.417-2.3-.822-2.932-2.176-4.157.036-2.015.685-4.69 1.98-5.542v-.396c-.596.205-.588.4-1.188.594-.307-.315-.746-.623-1.188-.792l.198-.198c.324-.684 1.134-.87 1.78-1.188-.148-1.105-1.392-2.09-2.176-2.573-.047-.676-.164-.86 0-1.188.086-1.462.776-1.326 1.386-2.177.126-.06-.83-1.373-.99-1.98.785-.71 1.745-1.552 2.573-2.177-.32-1.35-1.906-1.196-2.574-2.177-.298-.437-.277-1.002-.594-1.386.135-.815.43-1.212.99-1.584-.06-1.345-.676-2.44-1.386-3.168.113-1.876.924-2.42-.396-3.76.148-1.1.51-1.245 1.386-1.584-.13-1.878-1.408-2.203-1.782-3.563-.266-.97.526-1.402.594-1.98l-.792-2.573.99-.99c-.03-.92-.548-1.508-.396-2.177.175-.773.872-1.817.396-3.365-.18-.583-.823-1.538-.99-2.177-.2-.77.184-1.205 0-1.584.172-.146.58-.084.99-.396.95-.37 1.02-1.243 1.584-1.98-.112-1.383-.662-3.42-1.386-4.354-.253-.358-.766-.848-1.188-.99l-3.168.196c-2.852.02-6.584-.805-8.314.594-.6.214-.586.182-.792.792-.307.84.925 1.536 1.188 2.376l-.198 1.98c.317.78 2.05 1.2 1.584 2.77-.16.537-.772.928-.99 1.585-.582 1.35 1.046 2.893 1.386 3.96 0 0 .006 5.318 0 5.344-.252 1.144.55 2.18.198 3.366-.213.72-1.335 1.622-.99 2.77.1.334.677.794.792 1.19v3.166c.023.093.414.626.396.792-.078.713-1.065 1.22-1.188 1.78-.232 1.052 1.02 1.5.792 2.575-.133.62-.874 1.356-.99 1.98-.032.172.735 3.16.792 3.364.636 2.297-1.894 3.51 0 5.94-.178 1.392-1.034 1.358-1.386 2.572-.24.486.1.873.594 1.188-.468.614-1.55.75-2.376 1.188.077 2.524 1.867 3.1 2.574 4.75v2.18l1.386 1.385 1.386 3.76 1.584 1.19c1.284 1.252 1.74 2.79 3.563 3.562 2.46 1.04 5.22.593 8.313 1.187 1.333.256 4.113-.053 5.543-.594.734-.277 4.338-2.566 4.75-3.167l.595-1.584c.456-.662 1.592-.868 1.98-1.584.373-.686.025-1.423.397-2.177l1.98-1.98.197-1.78c.118-.27.613-.678.792-.99.096-.125-2.256-3.247-2.77-3.762.137-1.196.77-1.465.99-2.375.323-1.348-.693-4.556-1.387-5.147.038-1.234.592-1.55 1.78-1.584.107-.673-.622-3.742-1.187-4.355.066-1.088 1.18-2.556 1.782-3.167-.208-1.242-1.07-1.284-1.386-2.177-.957-2.715-.075-5.68.395-7.92.252-1.2-.443-1.86-.594-2.572-.227-1.084.808-1.654.595-2.573-.16-.684-1.36-1.125-.99-2.375.117-.396.85-.84.99-1.188.06-.15.594-6.93.594-6.93-.163-.584-.907-1.262-1.387-1.583.138-1.466 1.027-1.393 1.383-2.375z"/>
  <path d="M36.434 80.06c-.437-1.106-1.748-2.175-2.574-2.97-2.68.04-3.264 1.43-4.75 2.574-.247.19-.656.124-.793.396-.384.76.197 1.495-.396 1.98-.537.44-1.34.225-1.98.593-.734.423-.726 1.74-1.385 2.177-1.116.742-1.65-.433-2.77.99h-.99s-2.17-3.34-2.178-3.365c-.174-.254-.183-.488-.198-.99.64-.077.763-.242 1.187 0h.396c-.458-1.58-1.877-1.96-2.376-3.365.684-.63 2.227-1.706 2.574-2.574.16-.203.074-.048.2-.396-1.56-.814-2.396-1.153-2.97-2.97-.265-.838-.16-1.396-.594-1.98.065-2.25 1.005-1.045 1.584-2.177.42-.82-.055-1.064.594-1.583-.21-.59-1.53-2.693-1.98-3.167.2-.95.796-.917 1.584-1.188.127-.342.04-.194.198-.396v-.397l-1.386.397-.594-.594c.212-1.398.975-1.26 1.782-1.98h.198c-.284-.782-1.344-1.544-1.98-1.98.055-2.68 1.197-2.253 1.782-3.76.377-.975-2.432-5.2-2.77-6.534-.462-1.808 1.722-2.3-.397-3.96.086-1.627 1.267-2.544 2.18-3.364-.095-.963-.453-1.302-.99-1.782.02-.75.285-2.396.593-2.97.168-.312.85-.356.99-.792.52-1.64-1.45-1.983.594-3.365-.032-1.026-.174-1.193-.792-1.585.02-.765.045-1.006.396-1.386.102-.052 4.71.205 4.95.395 1.873.71 1.324 3.582 2.376 5.147l1.187.792c.813.78 1.29 1.65 1.98 2.573.517.69 1.46 1.084 1.98 1.782.76-.02 1.174-.067 1.584-.397 1.54-1.016 1.742-3.42 2.97-4.75-.144-1.58-.978-1.955-1.387-2.97v-2.77c-.278-1.004-1.082-1.96-1.584-2.773-1.963-.773-4.31-.844-5.94-1.386-1.35-.448-2.798-1.525-4.354-1.78-.983-.164-2.308.77-3.167.99l-3.563.197c-.63.25-1.217 1.056-1.782 1.387-.932.547-3.413 1.282-4.355 1.584l.198 2.377c-.142.467-.802.956-.99 1.386l-.198 1.386-2.97 2.77c-.6.888-.677 2.02-1.386 2.77.13.99.54 1.52 1.385 1.783-.238 1.185-.85 2.772-1.782 3.76.4 2.037 2.226 3.812-.198 5.346.54 3.092 1.34 4.028-1.188 6.334.05 1.263.58 1.364 1.386 1.782v.396l-1.78 1.782c.578 1.542 2.033 2.744 2.176 4.75C2.784 63.418 2.592 63.738 1 64.62c.243.93.867.612 1.187 1.187l-.197 2.376c.217.642 1.25 1.412 1.782 1.782-.443 1.92.147 2.437.593 4.355v2.178c.495 1.078 3.086 1.383 1.782 3.167.056 2.485 1.253 1.333 1.782 2.574l-.2 1.383c.116.404.817.84.99 1.188l.198 1.783 1.386.792c1.058.926 1.565 2.375 2.77 3.167.015.876 0 1.355-.395 1.782.52.833 2.87 1.12 3.76 1.584 1.51.787 2.85 1.957 4.75 2.375 1.167.257 2.346-.548 3.168-.792 2.91-.86 3.205-.958 5.345-2.374.373-.247.91-.268 1.188-.594 1.06-1.245 1.6-2.826 2.575-4.157.86-1.178 3.306-1.54 3.76-2.97.486-.843-.775-1.893-.99-2.573l.2-2.772z"/>
  <path d="M37.424 7.013c1.01-.05 1.006-.23 1.583-.594-.072-.743-.153-.737-.396-1.188-.68-.29-1.247-.548-2.177-.594-.68.603-3.33.416-3.76 1.188 0 0 .407 2.784.197 3.563-.394 1.457-1.224 1.79-1.98 2.77.69.642 1.13 1.496 1.782 2.178.053 1.206.054 1.617-.99 1.782.742 1.82.838 2.245.99 4.157 1.013.226 3.506.897 4.157.594 1.064-.02 1.332-.173 1.583-.99.16-.203.073-.047.198-.395l-.395-.396c-.864.05-1.633.343-2.177 0-.477-.185-.312-.218-.792-.397-.148-.932-.854-2.788-.198-3.76.13-1.344 1.284-1.492 2.177-1.98-.08-.407-.05-.382-.198-.594-.428-.71-1.55-.725-1.98-1.387-.748-1.15.356-3.58.792-4.355.847-.018 1.21-.038 1.584.395z"/>
  <path d="M16.836 17.505l1.782.594h.99c-.166-.59-.388-4.264.396-5.346.445-.334 1.64-.607 1.782-.594.627.112.576.174.99.396-.067 2.255-.99 3.675-.792 5.543 1.51.138 2.306.136 3.167-.793.634-.99-.124-3.034.2-4.355.9-3.69 1.058-7.204-.595-9.898l-2.375.198v.594c.302-.11.33-.14.792-.198l.198.198c-.08.406-.05.382-.2.594-.426.242-.433.08-.99 0 .34.575 1.04 2.058.397 2.97-.234.524-.386.41-.594.99-.708-.04-1.08-.153-1.386 0-.457-.065-.492-.093-.792-.2-.05-2.156-.002-3.084 0-5.542-.832 0-1.34.04-1.782.396-1.724 1.212-.17 2.612-.792 4.75-.18.622-.63 1.625-.79 2.377-.167.78.287 1.32.395 1.783.53 2.264-.664 4.033 0 5.542z"/>
  <path d="M5.75 5.43l.595.594c-.143 2.39.637 8.837-.792 10.888.1.99.408 1.145.792 1.782 1.322-.02 1.628-.317 2.376-.792.025-1.357.196-2.45.397-3.365l-.2-4.752c.07-1.135.82-2.424 0-3.365.065-.457.093-.492.2-.792.75-.127.888-.06 1.78 0l.2-.594c.16-.203.072-.05.197-.396l-1.188-.99c-.42-.152-4.176-.387-4.553-.396-.324.264-.626.338-1.188.396-.132.247-.215.41-.396.594.09.89.255.846.593 1.386L5.75 5.43z"/>
</svg>
