<svg width="652" height="468" xmlns="http://www.w3.org/2000/svg">
  <g fill="none" fill-rule="evenodd">
    <g fill="#09120A">
      <path d="M202.4 329.293l-31.103 7.705a1.06 1.06 0 0 1-1.35-1.08l6.771-108.985-42.071 10.421a1.057 1.057 0 0 1-1.309-1.035l.218-25.196a1.058 1.058 0 0 1 .804-1.076l44.085-10.92 2.428-39.07c.026-.451.342-.852.803-.966l31.144-7.714a1.058 1.058 0 0 1 1.31 1.09l-2.388 38.412 161.506-40.007a1.058 1.058 0 0 1 1.309 1.08l-1.333 25.492c-.006.47-.328.895-.806 1.012l-162.403 40.229-5.238 84.322c2.395-.638 5.038-1.383 7.585-2.1 3.37-.95 6.57-1.851 8.951-2.431l4.45-76.209c.025-.452.34-.856.803-.97l48.823-12.093c22.636-5.607 18.045 18.522 17.721 31.095-.028 1.113-.144 6.069-1.183 6.432l-26.976 6.682a1.06 1.06 0 0 1-1.31-.982l-.574-13.094-11.013 2.728-4.391 75.217a1.059 1.059 0 0 1-.806.999l-25.659 6.356a1.058 1.058 0 0 1-1.35-1.075l1.033-17.68c-6.757 8.26-17.182 22.081-17.853 22.97-.141.214-.36.375-.628.441zm82.354-163.26l-18.26 4.523a1.059 1.059 0 0 1-1.366-1.084l5.884-87.225h.001a1.06 1.06 0 0 1 .803-.957l18.284-4.53a1.059 1.059 0 0 1 1.341 1.09l-1.636 24.26 16.137-3.997a7.991 7.991 0 0 1 1.967-.24c1.584.01 3.008.523 4.135 1.431 1.123.904 1.944 2.193 2.331 3.755.163.66.248 1.372.244 2.129l-.2 34.503 6.095-.947 1.548-33.673c.197-4.303 1.73-8.406 3.773-10.69a7.394 7.394 0 0 1 1.349-1.201 4.948 4.948 0 0 1 1.562-.717v.001h.005l.01-.004 38.185-9.459v.001a1.055 1.055 0 0 1 1.31 1.068l-1.588 37.127c.004.48-.32.916-.806 1.035l-26.859 6.654.004 7.167 35.928-8.9a1.059 1.059 0 0 1 1.214 1.47l-7.496 16.206a1.056 1.056 0 0 1-.715.598l-41.48 10.275c-.38.094-.754.13-1.12.114-1.168-.054-2.197-.636-3.028-1.635-.74-.891-1.322-2.125-1.688-3.602a16.132 16.132 0 0 1-.44-3.381l-5.963 11.123c-.13.284-.384.508-.71.588l-19.04 4.717v-.001a1.057 1.057 0 0 1-1.309-1.035l.38-38.579a5.439 5.439 0 0 0-.142-1.357c-.195-.79-.596-1.322-1.122-1.652-.574-.36-1.32-.516-2.141-.524a8.597 8.597 0 0 0-1.578.144l-2.999 44.453c-.03.448-.345.844-.803.957zm-71.916-70.134l51.724-12.813a1.058 1.058 0 0 1 1.31 1.093l.038 17.534c0 .496-.342.913-.804 1.026v.001l-14.052 3.481-4.238 68.443c-.029.489-.384.88-.842.975l-19.81 4.907a1.058 1.058 0 0 1-1.31-1.09l4.198-67.784-15.67 3.88a1.058 1.058 0 0 1-1.309-1.082l-.039-17.544c0-.496.343-.912.805-1.025l-.001-.002zm134.054 9.095l-6.05 1.498c-.132.033-.283.245-.283.391l-.125 6.498 6.05-1.498c.091-.023.185-.123.244-.251a.464.464 0 0 0 .039-.138l.125-6.5zm189.084 41.513a1.065 1.065 0 0 1 1.309 1.068l-2.572 60.168c.004.48-.32.916-.805 1.035l-40.103 9.934.002 12.956 95.997-23.78-.002-12.955-38.887 9.632a1.055 1.055 0 0 1-.449.024c-2.749-.45-4.814-2.337-5.613-5.135a9.19 9.19 0 0 1-.307-1.676 10.78 10.78 0 0 1-.013-1.813l.001-.012 3.269-42.101c.316-4.078 2.796-8.162 6.102-10.608a13.18 13.18 0 0 1 2.04-1.245 11.184 11.184 0 0 1 2.2-.814l.01-.002h.005l18.778-4.652 20.126-4.986 19.044-4.717a1.059 1.059 0 0 1 1.333 1.137l-2.837 25.275c-.047.43-.356.803-.8.913l-43.406 10.752-.681 13.848 34.272-8.49c.072-.021.147-.036.225-.042a8.635 8.635 0 0 1 1.197-.01c1.87.113 3.487.846 4.682 2.058 1.184 1.202 1.938 2.86 2.093 4.834.034.44.037.902.008 1.384l-2.431 40.17c-.237 3.915-2.655 7.857-5.937 10.235-.635.46-1.313.867-2.025 1.21a11.481 11.481 0 0 1-2.188.798l-.014.005v-.001h-.004l-44.765 11.09c-7.312 1.81-10.84-5.23-13.57-10.677l-.265-.528-8.033 16.204a1.056 1.056 0 0 1-.713.594L473.98 262.02a5.67 5.67 0 0 1-1.629.166c-1.696-.078-3.203-.937-4.429-2.41-1.136-1.367-2.032-3.276-2.6-5.573-.555-2.238-.807-4.868-.675-7.74l3.02-65.783c.314-6.83 2.734-13.321 5.954-16.914.662-.738 1.354-1.357 2.066-1.837.746-.504 1.525-.866 2.324-1.066h.004l57.961-14.357zm-28.464 33.273l-10.231 2.534c-.39.096-.944.878-.96 1.275l-.206 10.895c-.005.276.094.441.384.37l10.231-2.535c.972-.171.958-1.271.959-1.271l.207-10.898c.005-.27-.1-.44-.384-.37zM129.69 275.673l-43.678 10.819c-1.051.26-2.293.593-3.605.943-5.772 1.545-12.917 3.456-18.908 3.082-7.375-.46-12.93-4.206-12.213-15.68l4.102-65.723c.492-7.886 5.213-15.797 11.598-20.544a25.132 25.132 0 0 1 3.92-2.4 21.248 21.248 0 0 1 4.22-1.555l.014-.003 96.403-23.88a1.058 1.058 0 0 1 1.357 1.094l-2.342 31.108h-.001a1.058 1.058 0 0 1-.803.949L89.4 213.789l-3.562 40.887 67.035-16.605c4.332-1.073 6.935.472 8.59 3.065 1.526 2.388 2.14 5.62 2.603 8.386.016.084.022.172.017.262l-4.142 66.674h-.002c-.001.024-.004.047-.007.07-1.262 9.782-5.302 16.613-11.22 21.547-5.86 4.887-13.53 7.869-22.144 10.003l-89.01 22.048-.001-.003c-.26.064-.543.03-.79-.117L.546 348.443a1.057 1.057 0 0 1 .22-1.975l126.471-31.328 2.452-39.466zm242.542-89.024c-.309 19.507-1.701 38.645-3.1 57.887-.745 10.24-1.493 20.51-2.075 30.763-.228 4.022-.489 7.331-1.811 9.993-1.374 2.765-3.798 4.715-8.304 5.813l-37.675 9.189c-2.777.677-6.075.937-9.247.71-2.956-.212-5.83-.85-8.113-1.971-2.425-1.191-4.2-2.928-4.775-5.285a7.052 7.052 0 0 1-.175-2.189l5.168-72.058v-.013c.084-1.16.284-2.352.589-3.55.299-1.18.708-2.385 1.216-3.59 2.586-6.13 7.707-11.904 13.962-13.673a.524.524 0 0 1 .05-.013h.003l.003-.001a3109.065 3109.065 0 0 1 17.653-4.298c11.776-2.843 23.559-5.688 35.306-8.82a1.058 1.058 0 0 1 1.325 1.105zm-31.312 35.742l-11.145 2.76-1.728 47.683 11.145-2.761 1.728-47.682zm66.379 56.146l-31.103 7.704a1.06 1.06 0 0 1-1.35-1.08l10.925-175.86c.026-.452.342-.853.804-.966l31.143-7.715a1.059 1.059 0 0 1 1.31 1.09l-6.778 109.104 16.883-37.385h.001c.13-.286.384-.512.712-.593l36.058-8.932c.83-.224 1.611.634 1.24 1.457l-29.481 65.281 56.203 66.803 133.59-33.092.001.004a1.055 1.055 0 0 1 1.16 1.563l-17.555 29.487c-.134.27-.381.48-.697.558l-99.085 24.545-26.272 6.507a1.06 1.06 0 0 1-1.109-.307l-73.523-82.683-2.274 33.553c-.03.447-.345.844-.804.957zm125.897-167.286l82.933-20.543a1.058 1.058 0 0 1 1.309 1.092l.035 25.124c0 .497-.342.914-.804 1.027l-191.578 47.493a1.058 1.058 0 0 1-1.308-1.103l1.376-25.506c.024-.477.362-.864.803-.973l73.557-18.268C410.11-13.112 201.606 9.888 142.681 158.524c-.13.33-.409.558-.73.636l.001.001-35.555 8.808a1.058 1.058 0 0 1-1.268-1.326c56.761-192.43 324.418-227.472 428.067-55.391zM48.16 374.684l382.451-94.737a1.06 1.06 0 0 1 1.08.368l17.924 20.724a1.058 1.058 0 0 1-.559 1.723l-370.5 91.771c-.31.076-.62.008-.862-.161l-29.82-17.753a1.055 1.055 0 0 1 .287-1.932v-.003zm433.254-107.32l169.204-41.914a1.058 1.058 0 0 1 1.115 1.64l-17.552 29.483c-.15.253-.39.42-.655.486v.003l-133.95 33.18c-.403.1-.808-.046-1.06-.343l-17.658-20.824a1.058 1.058 0 0 1 .555-1.711zm-26.986 39.84a1.06 1.06 0 0 1 1.082.37l18.288 20.602a1.057 1.057 0 0 1-.538 1.727v.001l-263.266 65.238c96.946 72.113 238.502 42.916 298.189-63.573.155-.276.415-.456.703-.517l38.815-9.615a1.058 1.058 0 0 1 1.229 1.436c-60.75 145.883-256.939 195.1-378.484 82.066l-52.549 13.017c-.309.076-.62.008-.861-.162l-29.82-17.753c-.82-.487-.595-1.715.287-1.932l366.925-90.905z"/>
    </g>
  </g>
</svg>
