<!--
  SVG Music Logos
  The Beatles - The drop-T v1.0.0
  https://github.com/tiagoporto/svg-music-logos
  Copyright (c) 2016-2018 Tiago Porto (http://tiagoporto.com)
-->
<svg xmlns="http://www.w3.org/2000/svg" class="the-beatles" viewBox="0 0 200 90">
  <path d="M92.782 2.674c.53 0 1.56-.016 2.62-.05.91-.016 1.555-.016 1.936 0 .182.795.306 1.3.372 1.514.066.315.19.73.373 1.24.15.415.223.738.223.97-.15-.348-.405-.662-.77-.944-.496-.38-1.025-.563-1.588-.546l-1.34.05V6.57c.016 1.11.024 1.92.024 2.433v2.805c0 6.917.017 4.902.05 5.796.033.76.165 1.348.397 1.762.148.248.412.513.793.795h-6.305c.265-.297.53-.587.795-.868.314-.447.48-1.018.496-1.713.05-1.01.073 1.03.073-5.722v-2.93c0-2.167-.024-3.507-.074-4.02l-1.342-.05c-.562-.017-1.092.166-1.588.546-.364.282-.62.596-.77.943 0-.23.075-.554.224-.968.182-.513.306-.927.373-1.242.066-.215.19-.72.37-1.514.382-.016 1.028-.016 1.938 0 1.06.034 2.188.05 2.717.05z"/>
  <path d="M110.308 8.557v4.716c0 4.087.15 6.38.447 6.875h-4.072c.266-.777.4-1.762.4-2.953V10.99h-3.874l-.026 5.71c0 1.653.124 2.803.373 3.448H99.56c.282-.76.422-1.67.422-2.73V8.606c0-2.035-.016-3.31-.05-3.822-.032-.81-.157-1.523-.372-2.135H103.508c-.2.694-.3 1.604-.3 2.73v3.325h3.874c.016-1.572.016-2.83 0-3.772-.017-.877-.125-1.638-.323-2.284H110.803c-.083.165-.2.562-.348 1.19-.1.927-.15 2.5-.15 4.717z"/>
  <path d="M116.87 11.436l-.05 5.04c0 1.042.008 1.63.024 1.76.05.282.216.423.497.423.1 0 .315-.026.646-.075 1.076-.15 1.77-.29 2.085-.422.414-.182.977-.637 1.69-1.365-.1.76-.274 1.87-.523 3.326h-3.748l-2.36-.05c-.958-.017-1.752 0-2.38.05.13-.33.214-.563.247-.695.082-.25.132-.572.15-.97.048-.893.073-2.58.073-5.063V8.98c0-1.242-.008-2.467-.024-3.675-.034-.827-.083-1.406-.15-1.738-.033-.18-.15-.48-.347-.893.297-.016.768-.016 1.414 0h7.123c.017.016-.024.438-.124 1.266l-.173 1.34c-.215-.33-.39-.525-.52-.583-.134-.058-.44-.103-.92-.137-.778-.05-1.663-.057-2.656-.025V9.35h1.19c.763 0 1.243-.016 1.44-.048.316-.034.622-.14.92-.323V11.832c-.33-.264-.944-.397-1.837-.397h-1.688z"/>
  <path d="M38.76 40.03c-.977-1.275-2.21-2.254-3.7-2.936-.724-.34-1.958-.722-3.703-1.147 1.83-.47 3.447-1.64 4.852-3.512 2.253-3.02 3.38-7.275 3.38-12.765 0-2.978-.383-5.702-1.15-8.17-1.232-3.915-3.147-6.51-5.743-7.786-1.7-.81-4.446-1.214-8.234-1.214H7.357c.47 1.234.916 2.468 1.342 3.703.51 1.83.797 4.298.86 7.404L9.465 66.71c-.17 2.64-1.107 5.363-2.81 6.895H8.382c7.15.127 13.106-.086 17.872 0 3.956.084 7.233-1.214 9.828-3.255 4.17-3.192 6.255-8.852 6.255-16.98 0-5.83-1.19-10.275-3.574-13.34zM20.125 7.544c1.532-.213 2.745-.362 3.638-.448 2.084-.127 3.66 1.32 4.724 4.342.893 2.51 1.34 5.7 1.34 9.574 0 3.234-.703 5.872-2.108 7.915-1.19 1.787-2.53 2.68-4.02 2.68-1.32 0-2.51-.255-3.574-.765V7.543zm4.85 61.21c-1.83.086-3.085-.244-3.766-.99-.68-.743-1.02-2.094-1.02-4.05V38.69c2.213-.552 3.36-.828 3.446-.828 2.425 0 4.532 1.808 6.318 5.424 1.533 3.15 2.3 6.362 2.3 9.638 0 10.383-2.427 15.66-7.278 15.83z"/>
  <path d="M53.917 50.755l-.127 12.957c0 2.68.02 4.19.063 4.53.128.724.554 1.085 1.278 1.085.255 0 .808-.063 1.66-.19 2.766-.384 4.553-.745 5.36-1.085 1.064-.47 2.51-1.64 4.34-3.51-.254 1.956-.7 5.318-1.34 9.063H43.323c.34-.852.552-1.958.637-2.3.213-.636.34-1.466.383-2.488.128-2.297.19-6.638.19-13.02v-11.36c0-3.193-.02-6.342-.06-9.45-.087-2.126-.215-3.615-.385-4.467-.086-.467-.384-1.233-.894-2.296H65.15c.043.04-.063 1.126-.32 3.254l-.445 3.446c-.553-.85-1-1.35-1.34-1.5-.34-.147-1.127-.265-2.36-.35-2.002-.128-4.28-.15-6.832-.065V45.39h3.064c1.958 0 3.192-.042 3.703-.127.807-.085 1.594-.362 2.36-.83v7.34c-.85-.68-2.425-1.02-4.723-1.02h-4.34z"/>
  <path d="M96.753 73.605c-1.83-.895-3.81-7.47-5.938-18.702L87.24 37.158c-.552-2.553-.83-4.36-.83-5.424 0-1.873.83-2.914 2.49-3.51H74.285c1.192.425 1.788 1.297 1.788 3 0 1.106-.873 5.83-2.618 14.168l-1.786 8.553c-1.66 8.042-2.745 12.893-3.255 14.553-.682 2.425-1.596 4.468-2.744 5.107h10.466c-.64-.596-.958-2.3-.958-3.83 0-1.405.277-3.49.83-6.256h8.362c.468 4.21.723 6.914.766 8.106l-.83 1.98h12.447zm-19.596-18.51l2.87-17.49 3.065 17.49h-5.935z"/>
  <path d="M114.42 44.498v7.213c0 17.788.042 19.596.126 21.895.086 1.957.426 11.7 1.02 12.764.384.638 1.065 1.32 2.044 2.043h-16.212c.68-.767 1.362-1.51 2.044-2.235.807-1.15 1.233-10.786 1.275-12.573.128-2.596.19-4.405.19-21.766v-7.533c0-5.573-.062-9.02-.19-10.34l-3.447-.128c-1.447-.044-2.808.425-4.085 1.404-.936.723-1.596 1.53-1.98 2.425 0-.596.193-1.426.576-2.49.47-1.32.79-2.382.96-3.19.17-.554.488-1.724.955-3.766h23.3c.042.85.445 2.084 1.21 4.595.47 1.232 1.002 2.85 1.598 4.85-1.022-1.235-1.79-2.043-2.3-2.426-1.36-1.02-2.872-1.49-4.532-1.405l-2.615.128v4.275c.043 2.852.065 4.937.065 6.255z"/>
  <path d="M133.182 43.606l-.127 8.615V62.5c0 2.47.064 4.022.19 4.66.257.808.81 1.213 1.66 1.213.47 0 1.342-.127 2.618-.383 1.787-.34 3.34-1.063 4.66-2.17.766-.766 1.51-1.532 2.234-2.298-.47 2.34-1 6.042-1.597 10.085h-19.403c.51-1.065.83-2.64.956-3.703.3-1.83.448-8.978.448-21.446V36.33c0-3.618-.403-6.234-1.212-8.106h10.85c-.212.383-.425.658-.637 1.084-.212.425-.34 1-.383 1.722-.042.384-.127 4.575-.255 12.576z"/>
  <path d="M155.393 50.755l-.126 12.957c0 2.68.02 4.19.062 4.53.127.724.553 1.085 1.277 1.085.254 0 .807-.063 1.66-.19 2.765-.384 4.552-.745 5.36-1.085 1.063-.47 2.51-1.64 4.34-3.51-.255 1.956-.702 5.318-1.34 9.063h-21.828c.34-.852.55-1.958.636-2.3.213-.636.34-1.466.383-2.488.127-2.297.19-6.638.19-13.02v-11.36c0-3.193-.02-6.342-.062-9.45-.086-2.126-.214-3.615-.384-4.467-.085-.467-.384-1.233-.894-2.296 4.182-.01 8.366-.003 12.55 0 3.135.002 6.27 0 9.406 0 .043.04-.063 1.126-.32 3.254l-.445 3.446c-.552-.85-1-1.35-1.34-1.5-.34-.147-1.126-.265-2.36-.35-2-.128-4.278-.15-6.83-.065V45.39h3.063c1.958 0 3.192-.042 3.703-.127.807-.085 1.594-.362 2.36-.83v7.34c-.85-.68-2.425-1.02-4.723-1.02h-4.34z"/>
  <path d="M181.187 27.074c1.7.043 3.445.48 5.233 1.31 1.787.83 2.872 1.244 3.256 1.244.553 0 1.063-.298 1.53-.894-.34 1.234-.956 3.552-1.85 6.956-1.49-1.404-2.32-2.19-2.49-2.36-1.233-.81-2.765-1.257-4.594-1.34-1.405-.044-2.618.38-3.64 1.275-1.233 1.064-1.85 2.597-1.85 4.597 0 2.382 1 4.297 3 5.744 2.085 1.234 4.19 2.446 6.32 3.636 5.105 3.065 7.658 6.98 7.658 11.746 0 4.467-1.213 7.978-3.638 10.532-2.596 2.723-6.32 4.085-11.17 4.085-2.765 0-5.106-.788-7.02-2.363-2.13-1.744-3.32-4.084-3.576-7.02.043-1.915.448-3.426 1.214-4.533.594-.894 1.233-1.34 1.914-1.34.425 0 .637.212.637.638 0 .298-.17.66-.51 1.085-.126.51-.19 1.02-.19 1.53 0 1.746.596 3.29 1.787 4.63 1.192 1.34 2.447 2.052 3.767 2.138 2.595.17 4.627-.393 6.095-1.69 1.467-1.3 2.2-3.182 2.2-5.65 0-2.724-1.296-5.192-3.892-7.404-.043-.042-2.235-1.382-6.574-4.02-3.107-1.873-5.043-4.47-5.81-7.788-.51-2.34-.403-4.595.32-6.765 1.83-5.49 5.788-8.15 11.873-7.98z"/>
</svg>
