<!--
  SVG Music Logos
  The 69 Eyes - Savage Garden v0.1.0
  https://github.com/tiagoporto/svg-music-logos
  Copyright (c) 2016-2018 Tiago Porto (http://tiagoporto.com)
-->
<svg xmlns="http://www.w3.org/2000/svg" viewBox="0 0 200 105">
  <path d="M186.615 100.406c-.687-.326-.29-2.603-.217-3.217v-4.302l-.542-3.47c-.11-2.927.072-5.855-.578-8.746-.398-.83-1.084-.904-1.88-.615-1.048 1.05-.614 2.422-1.265 3.614-.145.182-.29.327-.434.507-.327 1.085-.218 5.024-1.52 5.133-.143-.145-.143-.145-.216-.36 0-1.917-.036-3.868-.036-5.82-.18-.65-.723-.94-.94-1.554-.253-2.168-.253-2.168-.325-2.35-.325-.36-.615-.686-.94-1.01-1.337-.76-2.71-1.627-3.18-3.182-.145-1.265-.253-1.88-1.337-2.53-.76 0-.867.253-1.373.83-.58 1.628 0 3.76-1.735 4.808-1.085.108-1.446-.723-2.385-1.12-.506-.037-1.012-.073-1.518-.146-2.024-.506-3.795-1.23-4.662 1.157-.072 2.168-.11 4.23-.11 6.36-.252.615-.758.65-1.047.073-.325-1.843-.614-3.65-.94-5.457-.47-1.013-.795-1.194-1.916-1.194-.94.217-1.265.614-1.518 1.554-.145 1.843-.29 3.686-.398 5.53-.145.54-.145.54-.397 2.565-.253.795-.65 1.482-1.12.325 0-2.963-.036-5.89-.072-8.82-.145-.54-.398-.94-.65-1.372-.145-.542-.218-1.3-.543-1.735-.47-.36-.47-.36-.614-.542-.325-1.662-.795-3.18-1.446-4.734-.433-.506-.867-.976-1.3-1.482-.47-.94-.905-1.916-1.447-2.82-.072-.288-.072-.288-.145-3.324-.18-1.41-.11-2.855-.11-4.265.146-.542.29-1.048.435-1.59.11-1.12.253-2.205.36-3.325 0-4.482.037-8.927.037-13.41.47-2.962.253-5.998.253-9-.108-2.818-.108-2.818-.253-9.143-.11-.795-.253-1.482-.76-2.132-1.264-.795-1.77.904-2.06 1.807-.144.072-.144.072-.577.072-.072-.145-.108-.29-.18-.397v-4.084c.107-.976.252-1.952.397-2.928.144-.47.325-.976.506-1.445 0-.94-.18-1.952-1.012-2.566-1.7 0-1.807 2.458-1.988 3.686-.795 1.952-.795 1.952-.976 2.313-1.048.65-1.77 1.807-1.77 3.036.252 1.12.252 2.167.18 3.288-.47 2.747-.976 5.602-.578 8.42v1.52c-.29 2.24-1.265 4.336-1.7 6.577-.397.904-.54 1.518-.65 2.494-.18.613-.36 1.228-.542 1.842-.072.83-.145 1.7-.253 2.53 0 2.42.07 3.253.07 6.47-.18 2.095.254 3.866-.794 5.71-.11.65-.362 3.18-.65 5.168-.037.904-.073 1.77-.254 2.675-.072 4.084-.325 8.132-.398 12.216-.11 1.12-.11 1.12-.253 1.52-.722.866-1.264.18-2.06-.254-1.734 0-2.06 3.434-2.457 4.626-.217.362-.434.687-.65 1.048-.363 1.77-.65 3.542-.796 5.35-.18.54-.29.505-.904.54-.18-.18-.18-.36-.253-.613-.036-2.313-.325-4.59-.398-6.94-.434-1.59-.18-3 0-4.625-.072-1.012-.542-1.88-.542-2.89.795-2.82.687-5.928.29-8.82-1.085-2.964-.977-6.072-.977-9.217.11-.614.253-1.156.253-1.807-.217-.542-.398-1.084-.578-1.626-.253-3.036-.326-6.072-.397-9.108-.288-1.12-.288-1.12-.794-2.855-.18-1.266-.362-2.495-.506-3.76-.615-1.59-1.085-3.217-1.844-4.77-.542-1.374-1.554-3.724-1.7-4.12-.18-.905-.36-1.808-.54-2.748-.218-2.24-.94-4.23-1.953-6.253-.18-1.375-.614-2.53-1.156-3.796-.29-1.373-.506-2.602-.614-3.976-.326-.686-1.193-1.626-1.988-1.626-.795.506-.83 2.638-.94 3.506v2.168c-.29 1.735-.795 3.506-.795 5.277.217 1.193.217 2.313.217 3.542-.29 1.12-.29 1.12-.542 2.855-.072 1.193.072 2.638-1.554 2.06-.722-1.12-.867-2.566-1.192-3.867-.542-1.554-.614-1.88-2.132-2.385h-.36c-1.12.614-1.917 1.88-3.254.795-.542-.76-.723-.94-1.735-.94-.795.36-1.048 1.59-1.157 2.385.18.506.36 1.012.542 1.482 0 .614-.145 1.41-.145 2.494.253.506.506.867.976 1.23 1.23.54 2.35 1.228 3.65 1.698.397.253.723.578 1.193.83h2.205c1.23.76 2.06 2.205 2.314 3.58-.036 4.698-.072 9.396-.145 14.13-.434 1.085-.76 1.555-1.916.977-.723-.87-1.7-3-3.217-2.278-.18.325-.398.614-.615.904-1.3 1.3-3.144 2.168-2.204 4.156.83 1.012 1.735 1.952 2.566 3 .83 1.337 1.482 2.313 3.108 2.675h1.807c.505.29.794.578 1.625 1.12.903.29 1.663.506 2.132 1.337.072.36.072.36.326 8.168V77.2c-.434 1.554-1.88.795-3.036.795-1.3.362-2.458.072-3.795.072-1.084.398-1.23 1.77-1.807 2.71-.362 1.085-.542 2.17-.795 3.29-.145.434-.326.867-.506 1.3-.072 1.05-.036 2.06-.325 3.073 0 1.23.07 1.626.07 2.204-.107.398-.18.795-.252 1.193 0 .614 0 1.156-.145 1.735-.687.325-1.446.36-1.77-.434-.327-4.12-.037-8.313-.652-12.433-.433-1.373-.867-2.675-2.565-1.988-.433.398-.578.904-.83 1.446-1.122.976-1.52 1.337-1.628 2.855l-.217 10.048c-.29 1.12-1.084 1.265-1.7.29-.54-2.278-.397-4.59-.433-6.94-.11-2.386-.217-4.77-.325-7.12-.398-1.7-1.3-1.735-2.89-2.132-.47-.325-.796-1.084-.977-1.59-.65-4.95-.903-9.975-.903-14.927.108-1.157.253-2.313.36-3.47.435-1.445.94-2.89 1.446-4.3V50.31c-.29-1.264-.578-2.53-.76-3.83-.035-.723-.07-1.41-.07-2.096-.29-1.626-1.013-3.108-1.302-4.698 0-4.265.614-8.493.506-12.758-.145-1.3-.397-6.867-.65-10.445-.145-.65-.145-.65-.542-3.723-.036-2.168-.94-7.3 2.06-8.313h1.12c.976.398 1.482 1.193 2.422 1.59 1.085.18 2.133.397 3.217.578.902 0 1.3-.506 2.023-1.048 2.313-1.156 5.35-1.156 7.554.29.976.867 1.3.903 2.638.975 1.265.253 1.265.253 1.7.397.396 1.228.794 2.71 2.348 2.71.072-.036.145-.108.217-.144.903-2.205 1.554-4.23 4.12-2.855.325.073.325.073.76.073 1.59-.434 2.493-.398 4.01.145.687 0 1.23-.506 1.88-.723 1.265 0 1.23.723 1.844 1.77.47.543 1.048.796 1.446 1.302.542 1.446.542 1.446 1.048 2.64.29.94 1.23 5.818 3.217 4.444.145-.324.325-.65.506-.975.615-1.952 1.05-3.83 2.133-5.602.687-.614 1.157-1.337 1.77-2.024.905-.398 1.917-.073 2.856-.073.866-.253.866-.253 1.445-.506 1.41-1.12 1.41-1.12 1.7-1.264 1.408-.362 2.673-1.012 4.12-1.3.47 0 .975-.037 1.444-.037 1.084.288 2.06.758 3.144 1.01.686.543 1.12.905 1.952 1.122.65-.072 2.42-.434 3.397-.578 1.952-.036 3.94-.434 5.82.072.613.29 1.228.614 1.842.904.542.072.542.072 1.952.072 1.265-.29 3.578-2.096 4.59-.76.325 1.302.94 2.567 1.12 3.905 0 4.95-.036 9.903-.036 14.854.073.65.362 4.59-1.372 3.18-.398-.685-.506-1.408-.795-2.13-.687-.724-.687-.724-1.012-1.013-1.047-1.374-1.914-2.096-3.722-2.096-.65.326-.94.65-1.373 1.193-1.337 1.084-2.17.362-3.217-.614-2.132-.58-1.988 3.433-1.988 4.48.217.832.397 1.59.795 2.35.542.325 1.048.397 1.482.867.325.687.723 1.012 1.337 1.518.83.542 1.482 1.3 2.096 2.096.145.11.325.218.47.326 1.88 0 2.964-.036 3.434 1.952-.145 1.048-.145 1.048-.145 1.41.144.65.144.65.216 1.373 0 3.254.036 6.507.036 9.76-.072.434-.18.868-.253 1.3-.507.65-.868.65-1.483.18-.868-1.553-2.168-3.252-4.084-2.24-.94 1.12-1.337 2.53-1.626 3.903.253 2.096.253 4.77 1.265 6.65.36.29.36.29.795.578 2.82.94 4.915 2.025 7.59.435.65 0 .76-.036 1.157.434.542 1.698.217 3.577 1.084 5.203 1.193.687 1.88-1.193 2.024-2.06 0-2.927.325-5.927-.253-8.82.107-.794.577-1.12 1.3-.758.615.795.868 1.77 1.337 2.638.615.687 1.157 1.3 1.626 2.096 1.265 1.228 2.24 2.71 3.36 4.083.832.795 1.555 1.843 2.82 1.843 2.385-1.048 3.506-4.3 3.76-6.722.18-.36.47-.614.758-.904.435-1.735.037-3.976-.18-5.747-.253-.94-.542-1.88-.795-2.82-.542-.758-1.157-1.083-1.554-2.023-.397-.506-.794-.976-1.192-1.482-.76-1.626-1.193-3.108-2.602-4.193-.615-.867-1.157-1.373-2.06-1.952-.976-.434-.94-.398-1.265-1.337-.108-.145-.18-.29-.29-.434-1.047-.795-1.914-1.7-2.854-2.675-.687-1.048-.904-2.168-1.048-3.397-.433-.867-.542-1.3-.578-2.24.036-2.676.036-2.676.036-12.362.145-1.373.145-1.373.397-2.89.578-1.59.795-3.182 1.7-4.627.613-.794 1.264-2.06 2.095-2.638 1.807-.65 3.795-.83 5.674-.578.94.253 1.77.687 2.71.687.47-.144.94-.324 1.41-.505 1.59-.108 2.892-.36 4.41-.83 1.663-.037 1.7 1.59 2.204 2.818.036.578.072 1.12.145 1.7.29.758.58 1.48.796 2.276.036 1.19.11 14.058.18 16.3-.07.794-.107 2.204-.94 2.565-2.168 0-1.41-3.325-2.023-4.518-.65-.795-.94-1.7-1.374-2.64-.76-1.01-1.374-2.348-2.82-1.915-1.23.76-1.23.76-1.59 1.084-.253.615-.397 1.23-.542 1.88-.397.506-.578.506-.578 1.12.18.29.326.615.506.904.614 1.59 1.41 2.674 2.566 3.903.18.542.325 1.05.65 1.518 1.88 1.808 2.783 3.615 3.072 6.217.29.506.868.867 1.23 1.373.433 1.23.65 1.843 1.444 2.783.615 1.482.83 3.217 1.048 4.807.506 1.554.76 2.89.904 4.518.144.433.144.433.253.614v1.88c-.325.904-.253 1.807-.253 2.783.434 1.554.036 2.675-.036 4.265-.29 1.3-.578 2.53-.687 3.867-.108.506-.397.904-.65 1.374-.29 1.193-.11 2.53-.506 3.723-.613.867-1.083 1.7-1.553 2.675-.29.904-.29.904-.542 1.554-.29.434-.65.795-.904 1.193-.54 1.518-1.047 3-1.59 4.518-.686 1.084-1.155 1.915-1.445 3.18-.145.434-.29.83-.434 1.265-.035.723-.108 1.41-.144 2.132-.398 1.843-1.084 3.578-1.3 5.458-.507 2.277-.4 4.626-.65 6.975-.175.367-.247.367-.68.403z"/>
  <path d="M81.73 48.036c0-3.217 0-3.217-.18-11.385-.29-3.07-.29-3.07-.398-5.89-.542-3.47-.542-3.47-.65-4.7-1.05-5.023-2.46-9.938-3.398-14.962-.506-1.446-1.012-2.927-1.59-4.337-1.265-1.155-1.952-.144-3.29-.144-.397-.108-.397-.108-2.746-1.157-.47-.615-.904-1.193-1.265-1.88-.398-.397-1.084-.614-1.337-1.085-.47 0-2.35-.18-2.638.145-1.3.434-1.916.687-2.892 1.626C59.864 6 58.382 7.772 57.153 9.723c-.253 1.048-.542 2.132-.795 3.217 0 .904-.036 1.807-.073 2.747-.29 1.265-.578 2.566-.904 3.83-.07.796-.216 1.52-.396 2.314-.253.507-.506.832-.76 1.338-.613 2.783-.252 5.89.11 8.674 0 2.494.18 5.06-.11 7.554 0 1.626.543 3.144.724 4.77-.036.47-.072.94-.072 1.375.433 1.41 1.77 2.748 2.927 3.615 1.626 1.77 2.096 3.94 2.747 6.216.11.182.18.362.29.543.722.36 1.41-.253 2.06-.578.324-.723.903-1.445 1.337-2.06.687-.83 3.542-4.482 4.554-1.915 0 2.964-1.41 6.29-2.674 8.818-.362.578-.687 1.12-1.048 1.7-1.41 1.95-1.7 2.384-3.795 1.048-1.012-1.085-2.06-2.133-3.072-3.217-.83-.434-1.408-.11-1.625.722-.036.47-.072.94-.072 1.373-.65 1.265-1.663.976-2.422-.036-.397-1.158-.035-2.35.254-3.47v-2.495c-.18-1.12-.398-2.277-.58-3.398-.035-1.084-.035-2.132-.07-3.216-.254-1.3-.543-2.312-1.12-3.505-.688-3.36-1.447-6.723-2.35-10.012-.506-1.373-.506-1.373-.795-1.843-.977-1.048-2.025-2.24-3.29-2.963-.614-.18-1.193-.18-1.735-.506-.687-.903-1.265-.794-2.17-.324-.47.434-.94.867-1.372 1.3-1.265.832-2.277.616-3.108-.65-.36-.94 0-1.735.325-2.638.18-.325.326-.65.506-.976.29-.795.145-1.988 1.23-1.77 1.01.722 1.01 1.12 2.24 1.12.18-.073 1.265-.832 2.168-1.374.29-.36.434-.687.578-1.12.76-.76 1.88-1.013 2.422 0 .18.866.36 1.77.542 2.674.325 1.012.434 1.807 1.59 1.988.868-.11 1.012-.29 1.338-1.084 0-4.337-.145-10.12-.18-19.878-.326-1.518-1.013-1.626-2.46-2.24-1.047-.543-1.047-.543-1.915-1.05-.688-.108-1.447-.18-2.133-.396-.29-.217-.578-.434-.83-.65-1.844-.905-4.7.433-6.253 1.372-.578.253-1.157.506-1.77.795-1.085.758-2.097 1.517-3.11 2.384-.975 1.193-1.228 2.675-2.13 3.903-.435.83-.254 1.735-.254 2.675-.434 1.7-.904 3.397-1.337 5.096-.58 1.627-1.012 2.747-1.084 4.445 0 4.518.07 6.94.107 15.975.217 2.024.145 4.048.145 6.072-.36 3.723-.397 7.446 0 11.168.072 1.59.217 3.18.398 4.77l.76 3.796c.577 1.663 1.19 3.36 1.445 5.096.036 1.626.036 3.253.072 4.843.145.76.29 1.518.47 2.313.795 2.64 1.482 5.06 1.7 7.843.108 4.733.252 9.54.505 14.31.253.977.36 1.845 1.3 2.387 2.567-.18 1.664-5.17 1.664-6.65.11-3.904.11-3.904.253-5.747.108-.904.505-6 .65-6.867.253-1.048.253-1.048.397-1.3 1.157-1.122 1.807 1.336 2.024 2.023.18 1.663 0 3.36.543 4.952.47.18.542.036.867-.217.76-1.553 1.482-2.782 2.494-4.12.29-.54.29-.54.795-1.987.903-1.3 2.493-2.168 3.83-3 1.012-.76 2.096-1.482 2.71-2.638.615-1.554.94-4.88 2.928-5.53.904 0 1.193.11 1.446 1.048.072 2.89.217 5.783.217 8.674-.216 1.735-.288 3.578.363 5.24 1.084.615 1.626-.722 1.77-1.517 0-.976-.867-6.144 1.736-4.988.722.83 1.047 1.952 1.48 2.964.363 1.446.435 2.927.652 4.373.325 1.156.65 2.276 1.048 3.396 0 2.747-.072 5.096-.072 7.988.11 1.012.145 1.843.614 2.747 2.133 1.808 1.41-4.517 1.337-5.384v-4.41c.18-.794.505-1.48.794-2.24.253-1.193.47-2.24 1.048-3.325.29-.83.29-1.553.325-2.42.326-.94.578-1.158 1.518-1.158 1.084.542.65 2.168.65 3.108.18.76.36 1.518.578 2.313.29.397.578.795.867 1.193 1.59.795 1.156-2.168 1.156-2.855.29-1.517.795-2.746 1.518-4.12.434-.47.904-.974 1.337-1.48.58-.868 1.158-1.7 1.41-2.748 0-1.23.036-2.458.036-3.65.073-.29.073-.29 1.374-3.144 1.048-1.807 1.048-1.807 1.59-2.89 1.048-3.18 1.048-3.18 2.096-6.65.11-.796.253-1.59.36-2.35.037-1.265.073-2.494.073-3.76-.218-2.53-.832-4.66.866-6.866.073-.145.182-.326.254-.506zM43.564 57.83c-.614 1.12-1.373 2.17-2.096 3.217-.434.83-.217 1.88-1.265 2.096-.18-.11-.18-.11-.29-.325-.36-1.518-.722-3.036-1.047-4.59-.687-1.915-1.843-5.638.867-6.687 1.554 0 2.458.363 3.506 1.52.432 1.518.685 3.216.324 4.77zM68.934 30c-.18.362-.36.687-.54 1.05-.326 1.01-.435 3.613-1.844 3.794-.47-.325-.398-1.084-.578-1.59-.94-1.192-.94-1.192-1.23-1.7-.108-.397-.18-.758-.252-1.155 0-1.555.29-3.218.65-4.736.362-.94.977-3.506 2.278-2.422 1.337 2.024 2.204 4.373 1.517 6.76z"/>
  <path d="M20.216 30.58c-.18-.832-.145-1.664-.325-2.495 0-.83.543-1.518.796-2.35 0-2.6.036-5.203-.47-7.77-1.012-2.348-1.3-4.662-.83-7.19 0-1.194.324-3.11-.76-3.94-1.626-.398-2.71.11-3.036 1.7 0 2.782.795 5.962-.614 8.53-1.7.94-1.554-1.772-1.7-2.82 0-2.422 0-2.422.073-2.855.54-1.88 1.59-3.542-.4-4.77-3.866-.94-3.83 3.94-4.155 6.505-.036.976.108 2.168-.29 3.072-2.348 2.35-2.06-5.674-1.806-6.65.47-.904 1.553-2.928.144-3.58-1.012 0-2.205-.108-3.108.362-.037.142-.037.142-.29.43-.29.543-.542 1.05-.796 1.59-.325 1.013-.398 2.025-.398 3.073.29.868.434 1.663.58 2.566.035 3.432.07 6.866.144 10.335.47 1.41 1.373 1.012 2.53 1.555 1.626 1.95-1.373 1.843-2.458 2.385-.18.36-.325.615-.398 1.012 0 2.35.072 4.663.18 7.012.146.758.18 1.192 1.013 1.445 1.735 0 2.964-.83 3.578 1.337.11 1.084.218 2.168.326 3.253-.145.397-.145.397-.29.65-1.445.65-3.108-.18-4.41.867-.65 1.23-.686 2.927-.794 4.3-.143.616-.143.616-.252.834v1.41c.506.94.76 2.023 1.012 3.07-.29 6.398-.505 12.83-.505 19.228.144 1.627.253 3.253.397 4.916v9c-.11.903-.434 2.312.506 2.89.723-.108.795-.47 1.048-1.192.108-2.89.217-5.747.47-8.602.036-.108.072-.18.108-.253.723-.18 1.59 2.35 2.096.76 0-1.59-.145-3.145.145-4.7 0-.758-.073-1.047-.398-1.734-.58-2.205 2.095-3.29 3.07-1.338.145.65.145.65.65 2.458.29 2.024.146 4.12.146 6.144-.18 2.277-.65 4.518-.65 6.83.18.94.325 1.374 1.41 1.374 1.01-.434.722-1.482.722-2.458-.29-1.446.036-2.82.072-4.3-.036-1.808 0-3.65 0-5.494.11-.904.614-1.23 1.12-1.952.29-.83.146-1.807.326-2.674.76-1.3 2.385-1.12 3.506-.36.29.36.83 1.372.94 1.48h.253c.18-.433.217-.94.29-1.444.108-3.795.686-7.59.686-11.385-.18-.397-.505-.505-.94-.686-.83-.904-.794-2.64-.47-3.76.254-.578.796-1.444 1.05-1.95.035-.652.035-.652.252-7.12-.036-.182-.036-.326-.072-.47-.578-1.483-.94-1.085-2.494-1.085-.723-.326-1.3-1.013-1.77-1.664-.326-1.012-.363-1.337.07-2.35.218-1.084.182-1.553 1.158-2.13.687-.58.687-.58 1.373-1.375 1.3-.65 1.23 1.05 1.735 1.88.867.615 1.23-.47 1.374-1.192.036-1.88.108-3.686.325-5.53 0-1.23-.035-1.7-.794-2.64zm-4.844 28.19c.217.795.615 1.77-.36 2.17-1.266.07-2.53.107-3.76.18-.47-.11-.903-.362-1.337-.58-1.085 0-1.844.724-2.385-.614-.145-1.518-.578-4.048.433-5.385.11 0 .217-.035.326-.072 1.192.795-.146 3.072 1.192 3.976h.578c.795-.506.83-1.916 1.41-2.71 1.012-.362 2.096-.218 3.18-.218 1.698.435.722 1.917.722 3.254zm1.952-30.18c-2.024 1.013-4.735.796-6.94.868-1.372-.47-1.915-.83-1.336-2.205.325-.506.434-.687 1.012-.903 1.265.072 1.265.072 3.325.072 1.157-.397 1.77-.795 2.964-.505 1.3.65 2.203 1.41.974 2.674z"/>
</svg>
