<!--
  SVG Music Logos
  Therion - Vovin v0.1.0
  https://github.com/tiagoporto/svg-music-logos
  Copyright (c) 2016-2018 Tiago Porto (http://tiagoporto.com)
-->
<svg xmlns="http://www.w3.org/2000/svg" viewBox="0 0 200 40">
  <path d="M20.716 8.088l8.538-.057c1.247-.095.97 1.395 1.075 2.093l1.638.057 2.488-9.047-1.753-.17c-.468.93-1.26 3.356-3.788 3.224l-21.148-.06c-1.16-.14-1.632-.893-1.413-2.26l-1.98.226L2 10.858l1.244.17c1.074-1.018 2.09-2.84 3.222-3.054h7.917l-.07 23.79c-.075 1.187-.954 1.5-1.902 1.736v1.188h11.592l.01-1.097c-1.78.193-3.368-.656-3.38-2.465l.084-23.037z"/>
  <path d="M37.323 4.767H48.89v1.1c-2.476.216-3.28.544-3.195 1.984v13.11l8.922.88v-6.28c-.046-1.4-1.89-1.53-3.084-1.54v-1.323H63.32v1.1c-1.88.39-2.993.777-3.195 2.314v15.202c.287 1.79 1.485 1.948 3.305 2.203v1.21H51.422v-1.1c1.87-.014 3.45-.475 3.305-2.534v-6.168l-9.032-.77v7.38c-.044 1.53 1.302 1.97 3.414 1.983v1.322H36.44v-.99c1.574-.248 3.817.128 3.857-2.755V8.512c.097-1.836-.746-2.26-2.974-2.5V4.767z"/>
  <path d="M73.075 31.816V16.144c.054-1.58-1.078-2.204-3.02-2.172v-1.228h17.37l.945 5.476-1.322.283c-.012-1.964-.92-2.643-2.668-2.643h-5.83v5.38h4.47l1.007-1.698c.822 1.68 1.736 2.537 3.345 3.094-1.39.158-2.216 1.2-3.156 2.708l-.944-1.27h-4.72v7.364h6.05c1.642.056 2.6-.83 3.202-2.36l1.322-.188-1.51 5.854H70.147l-.472-1.134c2.05-.01 3.57-.316 3.4-1.794z"/>
  <path d="M121.515 37.1l-9.836-12.923c2.45-1.85 3.968-4.07 3.43-7.09-.888-3.106-3.408-4.28-6.976-4.347H94.98l-.017 1.13c1.655-.056 3.14-.12 3.334 1.272v16.24c.09 1.625-1.603 1.966-3.202 1.83V34.7h12.01v-1.372c-2.35-.248-3.123-.453-3.09-2.402l.114-5.8 1.6.016 14.755 13.675c.82.542 2.2.13 1.03-1.716zm-15.29-13.7l-2.234.005v-7.518c.122-.622.53-.996 1.316-1.034h1.175c2.235.488 3.464 1.838 3.478 4.23-.1 2.53-1.393 4.015-3.733 4.317z"/>
  <path d="M122.622 12.73h11.802v1.05c-1.885.126-3.038.37-2.885 2.01v14.668c-.142 2.166 1.118 2.85 3.015 2.86v1.572H122.36v-1.18c1.818-.288 3.598-.524 3.41-1.966l-.046-16.26c-.09-1.814-2.07-1.425-3.106-1.53l.004-1.225z"/>
  <path d="M128.665 3.346c-.756 1.238-2.003 2.838-3.542 3.517 1.427 1.007 2.766 1.868 3.52 3.66.717-1.557 1.843-2.795 3.567-3.568-1.685-1.148-2.867-2.35-3.545-3.61z"/>
  <path d="M153.403 20.424c-.756 1.238-1.94 2.485-3.478 3.164 1.426 1.007 2.517 1.61 3.273 3.4.717-1.557 1.842-2.18 3.567-2.954-1.686-1.15-2.684-2.35-3.362-3.61z"/>
  <path d="M153.184 12.214c-7.084 0-12.86 5.243-12.86 11.67 0 6.43 5.776 11.67 12.86 11.67 7.083 0 12.86-5.24 12.86-11.67 0-6.428-5.778-11.67-12.86-11.67zm.056 19.942c-3.93 0-7.14-3.74-7.14-8.33 0-4.586 3.208-8.326 7.14-8.326 3.933 0 7.138 3.74 7.138 8.327 0 4.588-3.206 8.33-7.138 8.33z"/>
  <path d="M179.59 13.032v2.926l8.547-1.914c2.777-.675 4.382-.58 4.67 2.177l1.674 15.98c-.016 1.124 1.297 1.54 3.356 1.555l.164 1.228c-4.064-.13-8.01.21-11.866.982l-.164-1.473c1.946.052 3.426-.516 3.192-1.72l-1.555-15.302-8.018 1.677v12.776c-.01 1.502 1.34 2.187 3.31 2.502l-.323 1.05c-3.93-.475-7.857-.53-11.786-.08l-.16-.89c2.342-.37 3.5-1.206 3.47-2.5l.08-15.096c.054-1.48-1.022-2.37-3.23-2.665l-.16-1.29 8.8.077z"/>
</svg>
