<!--
  SVG Music Logos
  U2 - The Joshua Tree v0.1.0
  https://github.com/tiagoporto/svg-music-logos
  Copyright (c) 2016-2018 Tiago Porto (http://tiagoporto.com)
-->
<svg xmlns="http://www.w3.org/2000/svg" viewBox="0 0 200 208.667" class="u2">
  <path class="u2__tree" d="M196.035,95.255c0.313-0.865,1.412-0.177,1.671-1.155c-1.303-0.366-2.528-0.362-3.898-0.362 c0.804-0.009,1.86,0.053,2.555-0.807c-1.019-0.188-1.84,0.441-2.847,0.27c0.377-0.855,1.325-1.488,2.216-1.66 c-0.597-0.059-1.792,0.32-2.293,0.07c-0.581-0.29-0.053-1.18-0.852-1.373c-1.451-0.352-1.268,1.543-1.916,2.199 c-0.861,0.872-1.613,0.687-1.95-0.393c-0.151-0.486,0.795-0.957,0.083-1.669c0.183,1.229-1.274,3.301-2.547,1.752 c-0.83-1.01,0.936-1.531,1.13-2.601c-0.65,0.894-1.45,1.786-2.518,2.146c0.359-1.133,0.433-2.261,0.526-3.459 c-0.178,0.719-2.686,2.889-2.684,2.959c-0.066-1.307-0.029-2.34,0.389-3.471c0.255-0.69,0.754-1.201,0.653-1.913 c-1.991-0.006-1.952,3.219-3.913,3.361c-0.404,0.029,0.226-1.78,0.758-2.984c-0.905,0.994-2.505,1.713-1.628,3.516 c0.624,1.283,2.809,1.615,3.699,2.742c-1.775,2.767-4.147-2.739-4.88-3.374c-0.692-0.6-1.048-0.287-1.524-1.058 c-0.257-0.417-0.182-1.407-0.335-1.915c-0.224-0.745-0.335-1.723-1.318-1.764c-0.72-0.03-1.031,0.125-0.908,0.95 c-1.851,0.285-4.023-0.387-5.92-0.481c-0.563-0.028-1.638-0.195-2.171-0.004c-0.262,0.095-0.699,0.812-0.711,0.815 c-0.88,0.179-2.115,0.105-1.794-1.292c0.554-0.017,0.952-0.229,1.466-0.393c-0.076-0.799,0.095-3.014-1.116-3.029 c-0.817-0.01-1.561,1.723-1.9,2.163c0.048-0.833-1.451-3.987-2.704-3.502c-0.467,0.181-0.803,1.324-0.968,1.732 c-0.352,0.866-0.87,0.962-0.744,2.133c-0.98-0.007-2.184-0.846-2.868,0.199c0.57,0.584,1.404,0.93,1.347,1.829 c-0.504-0.144-1.104-0.067-1.638-0.117c0.177,0.921,1.055,1.265-0.014,1.837c-1.368,0.734-3.46-0.538-4.916-0.481 c-1.808,0.071-3.22,0.804-4.397,2.172c-1.371,1.596-2.939,3.544-3.671,5.562c-0.372,1.03-0.537,2.279-1.097,3.187 c-0.772,1.252-1.892,1.783-2.6,3.167c-0.639,1.249-1.366,2.537-1.612,3.943c-0.052,0.295-1.495-2.104-1.566-2.27 c-0.361-0.853-0.553-2.063-1.154-2.791c-1.532-1.853-4.98-2.216-7.205-2.353c-1.288-0.08-2.613,0-3.904,0 c-1.536,0-2.187-0.318-3.561-0.679c-2.087-0.548-4.522,0.172-6.761,0.172c-3.793,0-7.396,0.507-11.14,0.507 c-2.257,0-7.514,2.065-8.61-0.038c-0.618-1.183-0.013-3.029-0.217-4.318c-0.211-1.333-0.469-2.597-0.469-4.094 c0-3.14-1.894-7.311-0.114-10.205c0.357-0.582,0.983-0.704,1.621-0.788c0.702-0.092,0.796-0.598,1.331-1.012 c0.587-0.456,1.248-0.729,1.819-1.232c0.791-0.698,2.035-1.932,3.212-1.631c0.496,0.127,0.768,0.375,1.17-0.046 c0.346-0.361,0.574-0.938,0.86-1.347c0.382-0.548,0.647-1.1,1.187-1.539c0.472-0.382,0.95-0.711,1.469-1.048 c0.494-0.321,1.237-0.674,1.533-1.152c0.556-0.898,1.019-1.731,1.787-2.485c0.491-0.482,1.084-0.517,1.736-0.511 c1.121,0.011,1.875,0.748,2.756-0.336c0.565-0.696,1.012-1.474,1.74-2.031c0.537-0.411,1.203-0.706,1.565-1.316 c0.304-0.511,0.298-1.151,0.496-1.691c0.196-0.537,0.746-1.352,0.401-1.944c-0.27-0.464-0.797-0.482-0.737-1.195 c0.042-0.488,0.319-1.065-0.229-1.352c-0.604-0.316-1.083,0.29-1.592-0.007c-0.757-0.441,0.056-0.83,0.095-1.388 c0.034-0.474-0.765-1.23-1.064-0.651c-0.177,0.343,0.001,1.294,0.001,1.672c0,0.48,0.098,1.261-0.512,1.354 c-0.625,0.095-1.021-0.621-1.071-1.12c-0.045-0.444,0.101-0.959,0.001-1.393c-0.185-0.804-0.592-0.208-0.756,0.225 c-0.314,0.833,0.685,2.02-0.582,2.418c-0.247,0.077-0.563-0.075-0.803,0.007c-0.17,0.058-0.394,0.293-0.543,0.417 c-0.393,0.326-0.645,0.518-1.138,0.562c-0.628,0.055-1.295,0.138-1.729,0.686c-0.465,0.588-0.816,1.276-1.573,1.606 c-0.528,0.23-1.457,0.16-1.866,0.542c-0.229,0.213-0.166,0.53-0.313,0.783c-0.174,0.3-0.628,0.646-0.934,0.807 c-0.377,0.198-1.12,0.234-1.505,0c-0.559-0.339-0.388-1.229-0.112-1.719c0.221-0.392,0.779-0.704,1.142-0.984 c0.536-0.414,1.062-0.461,1.736-0.593c0.633-0.124,0.971-0.312,1.39-0.823c0.478-0.581,1.008-1.161,1.548-1.688 c1.019-0.995,0.83-1.114,1.043-2.347c0.145-0.838-0.505-1.713,0.864-1.768c0.052,1.392,0.251,2.342,0.7,3.619 c-0.329-2.059,2.279-2.953,3.822-3.394l3.002-0.497l1.126,2.168l0.344,0.914l0.627-0.139l0.769,1.175l0.315,3.49l0.867-4.494 l0.695,1.286l0.435,2.563l0.23-3.778l0.694,1.592l0.501,2.287l0.402-3.697l-0.137-1.723l-1.545-1.953l2.582,2.463l1.686,1.385 l1.293,1.43l-1.324-2.298l0.202-1.98l2.4-0.005l-1.102-1.525L126.824,51l1.003-1.235l2.077,0.109l3.532,1.36l1.888,0.592 l1.469,0.607l1.277,0.174l0.531-0.946l-1.438-0.286l-1.828-0.323l-1.155-0.711l-1.42-0.233l-3.6-1.291l-2.141-0.605l-1.581-1.082 l0.006-0.121l3.195,0.542l-1.105-1.211l2.978-0.327l-0.191-0.956l1.444-0.293l1.255,0.786l1.538-0.355l-1.205-1.451l-2.106-0.001 l-1.662-0.385l3.622-0.508l0.612-0.835l-1.171-0.643l0.833-0.548l1.671-0.902l-1.57-0.11l-1.447,0.584l-1.776,0.744l-1.93,0.272 l1.791-1.1l2.099-1.147l1.204-1.235l-2.101-0.109l-0.768,0.844l-0.982,0.412l1.309-1.509l0.591-1.073l-1.199,0.124l0.509-1.148 l-0.834-0.556l-0.147,0.606l-0.39,0.626l-1.276,0.94l0.05-1.483l0.454-1.443l-0.501-0.778l-0.942,1.245l-1.233,2.604l-0.541-5.152 l-1.28,3.163l-0.224-1.487l-1.158,3.054l-0.367-1.026l-1.83,4.059l-1.015-6.455l-1.038,2.018l-0.587-0.383l-1.14,0.496l0.133,0.831 l-0.103,0.919l-1.01,0.228l-0.469,0.807l-0.475,0.146l-1.797-0.232l0.046,0.88l-1.46,0.331l0.182-1.074l-1.046,0.215l-0.384,0.602 l-1.161-0.827l0.745-0.928l1.012-0.972l-2.402,0.041l0.21-1.025l-0.86,0.089l1.344-1.155l-2.289-0.704l0.744-0.788l1.102,0.201 l0.628,0.676l0.52-0.587l1.062,0.262l0.83,0.234l0.541-2.364l0.163,0.747l0.559,0.811l1.714,0.434l-0.328-0.82l-0.781-0.383 l0.28-1.162l1.116,1.212l0.931,1.397l0.608-0.394l-0.05-1.557l0.183-1.438l0.468,0.825l0.243,1.485l0.096-2.228l0.732-0.639 l0.335-1.361l0.968,0.408l-0.633,1.117l-0.392,1.265l0.652-0.281l0.843-0.497l1.403-0.524l0.777-1.07l0.924-0.598l-0.796-0.428 l0.851-0.406l2.933-0.149l1.439-0.271l1.262-0.184l1.237-0.685l0.917-1.368l0.061-1.155l-1.251,1.058L129.171,25l-0.979,0.602 l-3.168-0.287l1.319-0.457l0.897-0.148l0.473-0.457l1.401-0.806l-1.118-1.018l1.753-0.316l2.055-0.428l-2.404-0.749l-2.794-0.351 l1.91-0.087l1.082-0.799l-1.654-0.239l1.225-0.605l1.131-0.463l-1.978-0.526l0.328-0.72l-0.943-0.43l-0.977-1.078l0.957-1.042 l-0.459-0.291l-0.71,0.691l-1.591,0.638l0.534-0.955l-0.438-1.128l-1.214,0.603l-0.638,1.582l-1.036,0.094l0.676-3.234 l-0.769,0.339l-0.336,0.76l-0.698,0.041l-1.479,2.742l-0.71-1.162l-1.144-0.377l-0.497-1.125l-0.765,0.343l0.232,1.127l0.292,1.374 l0.957,1.035l0.438,0.939l-0.986-0.417l-1.025-1.478l-0.923-0.215l-0.566-3.35l-0.373,2.147l-0.013,1.044l-0.548,0.753 l-1.697,1.577l-0.606-0.965l1.076-0.632l0.843-0.674l-0.354-1.805l-1.374,0.081l-1.67,1.789l-0.054-3.077l-0.758,1.421 l-0.618,0.761l-0.955-2.817l0.048,1.153l-1.079,1.104l-0.454,0.687l-0.316-1.299l-1.435-1.505l0.212,2.742l0.673,1.574 l-0.832,1.049l-0.768-1.306l-0.412-1.995l-0.693,0.954l-0.674,1.241l-0.223,1.16l-1.854,0.292l-0.624,1.256l-1.708,0.467 l-1.727,1.225l-1.437-0.207l1.431-1.52l1.079-0.136l1.066-0.742l3.325-1.791l-0.831-2.015l-2.022-0.05l3.25-2.49l-1.158-0.705 l-1.73,0.768l1.024-0.949l-0.402-1.189l1.077-1.087L99.17,8.166l-0.755-0.706l0.412-0.546l-0.123-1.041l-2.922-0.393l-1.16-1.395 L93.53,4.832l-0.408-0.673l-0.703,0.701l-0.426-1.867l-0.903,2.103l-1.695-1.02l-0.279-1.183L88.438,3.53L88.41,5.176l-1.004-0.353 L86.65,4.856l0.058,2.225l-1.515,1.126l-1.316-1.095l-0.682,1.371l-0.749,0.422l1.324,1.382l-0.811,1.161l-1.967-1.66l1.453,2.569 l0.295,0.911l-0.607,0.05l-1.64-0.548l1.923,2.283l-1.366,0.576l0.327,1.032l-0.35,0.97l-1.244-2.091l-0.541,0.885l1.24,1.183 l0.344,0.888l-1.285-0.307l-1.999-0.513l1.151,1.699l-1.365-0.748l-1.808-0.828l1.254,1.79l1.036,1.244l-0.363,0.639l-1.51-0.763 l-2.117-0.21l1.159,0.812l1.524,1.212l1.377,0.727l-4.333-0.336l-0.41,1.689l-0.234-0.517l-0.939,0.002l-0.428,0.546l-0.59-1.194 l-0.444,1.116l-1.327,0.414l-0.824,1.089l-1.241-0.238l-1.232-0.505l0.42,0.584l0.203,0.656l0.845,0.807l-0.443,1.249l-0.461,0.021 l-0.157,1.152l-1.023-1.923l-1.435-1.596l-1.168,0.221l1.42,0.975l-0.949,0.889l-1.336-0.571l-0.047,1.33l-1.505,0.673l1.412,0.104 l0.152,1.548l-4.345,1.162l2.358,0.175l2.558,0.245l-0.869,2.62l1.702,0.088l1.642-0.833l0.946,0.815l-2.247,2.014l0.675,0.686 l-0.444,0.612c-0.114-0.011-0.226-0.015-0.342-0.032c-0.687-0.102-1.031-0.318-1.344,0.288c-0.381-0.179-0.769-0.378-1.163-0.612 c-0.585,0.079-1.199,0.217-1.732,0.08l-0.736-0.354l-0.569-0.273l-1.32-0.314l-2.121-0.221l-1.873-0.674l-1.807-0.622l-0.881-1.666 l-1.034-1.604l-1.16-1.556l1.868,1.228l1.98,2.323l0.412-0.942l-0.529-1.521l-0.6-0.675l3.061,1.402l1.573-0.115l-1.194-1.206 l-0.921-0.7l-1.054-0.406l1.321-0.211l1.985,1.01l-0.002-0.394l-2.465-1.58l-0.672-0.324l-0.362-0.534l-1.652-0.762l3.027-0.189 l3.641,0.003l0.501-0.694l-1.929,0.002l-3.463,0.206l-0.062-1.628l-1.503-0.174l1.854-1.09l1.363-1.713l-0.601-0.431l-0.962-0.005 l1.651-1.65l0.133-0.95v-0.34l-3.906,1.6l3.916-2.154l-2.016-0.731l0.489-0.742l-2.759-0.53l1.907-0.124l-0.887-1.159l1.105-1.48 l-1.486-1.045l0.849-0.986l-1.91,0.33l-1.474,0.899l0.364-2.457l0.276-2.331l-1.064,1.863l-0.597,2.181L45.503,8.34l-1.502,0.5 l-0.038-0.469h-0.469l-0.038,2.877l-1.011-4.521L41.72,6.723L41.32,8.751l-1.401-0.906l0.874,3.403l-2.135-2.389L37.35,8.503 l1.533,3.303l0.76,3.121L38.25,13.45l-1.648-1.391l-2.899-1.932l4.167,4.084l-0.51,1.901l-2.052-0.992l0.163,0.692l-3.254-1.226 l-0.129,0.593l0.728,0.272l1.388,1.416L30.646,17.9l1.533,1.236l1.461,0.086l0.692,0.773l-1.991,0.294l0.003,0.337l1.01,0.528 l-1.137,0.739l2.49,0.804l0.003,0.34l-3.155,0.646l2.775,1.419L32.6,25.615l-0.913,1.384l-3.333-2.841l0.446,1.523l0.986,1.429 l-0.763,1.656l-0.526-1.891l-1.147,1.474l-0.381,0.656l-0.994-0.809l0.166-2.069l-1.486,0.444l-1.944,0.434l0.59,2.364l-1.873,2.31 l-2.62-1.512l-1.601,2.43l3.47,0.72l-0.63,1.505l1.534,1.163l-0.767,1.619l2.763-0.228l3.282-1.115l-3.51,5.411l3.28-3.165 l-0.244,3.919l2.117-2.499l0.912,3.665l1.524-3.828l1.125,4.087l1.527-3.336l1.141-2l1.502,2.896l1.132-2.234l2.798,2.107 l0.875-1.736l1.271,1.276l0.764,1.99l1.644,0.038l0.433,0.954l1.119,0.282l1.742,1.297l0.383,2.319l0.426-3.341l2.173,0.457 l0.828,1.409l2.335-1.036l0.824,1.21l1.045,0.095l1.394-0.634l1.521,0.352c1.609,0.427,4.858,1.077,5.288,2.999 c0.441,1.975-1.482,3.927-1.862,5.775c-0.331,1.607-0.778,2.803-1.405,4.302c-0.986,2.358-1.165,5.435-3.295,7.108 c-0.782,0.614-1.83,0.734-2.525,1.419c-0.776,0.765-0.616,1.792-0.856,2.767c-0.439,1.79-1.024,4.328-1.838,5.955 c-1.299,2.599-4.2,0.508-6.186,1.384c-0.62,0.274-0.721,0.991-1.296,1.368c-1.216,0.797-2.251-0.471-3.468-0.245 c-0.013-0.026-0.077-0.325-0.027-0.335c0.881-0.183,0.796-1.447,0.228-1.94c-0.353,0.903-0.862,1.057-1.422,0.397 c-0.537-0.633,0.064-1.497-1.345-1.121c0.038,0.615-0.596,1.259-1.197,0.779c-0.475-0.379,0.152-1.324-0.596-1.826 c-0.607,0.997-1.478,2.276-2.517,1.155c-0.715-0.771-0.353-2.197-0.928-3.02c-0.164-0.016-0.301-0.017-0.466-0.003 c-0.014,0.777-0.102,2.291-0.967,2.648c-0.926,0.382-2.408-1.236-2.753-1.127c-0.714,0.226-0.299,0.803-0.729,1.276 c-0.473,0.521-0.928,0.544-1.635,0.498c-0.018,0.166-0.012,0.304,0,0.469c0.386-0.032,0.807,0.073,1.2,0.01 c-0.457,1.27-1.754,0.418-2.224,1.382c0.819,0.05,1.786-0.11,2.414,0.399c-0.813,1.171-3.524,0.92-2.655,2.897 c0.486,0.031,0.997,0.011,1.486,0.044c-0.335,1.173-1.837,0.63-1.871,1.607c1.042-0.112,1.222,0.483,2.011,0.652 c0.859,0.183,1.388-0.364,2.284-0.256c2.177,0.262-0.189,1.676,0.992,2.696c-0.41,1.205-1.69,1.552-2.232,2.658 c-0.356,0.726-0.157,1.292-0.408,2.003c-0.217,0.614-0.714,0.805-1.175,1.261c-0.71,0.703-1.309,1.557-2.151,2.127 c-1.212,0.819-1.555,0.586-1.749,2.186c-0.267,2.205-1.655,3.075-3.134,4.594c-1.247,1.28-1.936,3.036-3.197,4.306 c-1.001,1.008-3.516,4.156-3.444,0.751c-0.207,0.043-0.515-0.08-0.722-0.038c-0.05-0.826,0.125-1.853-0.53-2.407 c-0.65,0.795-0.065,3.561-1.371,3.421c0.391-2.838-3.895-2.457-3.422-0.507c2.228-0.509-0.118,3.046-0.418,0.418 c-0.207-0.053-0.514-0.049-0.72,0.003c-0.395,0.481-0.487,1.098-0.383,1.733c0.583-0.035,2.114-0.106,1.737,0.881 c-0.207,0.543-1.811,0.579-2.241,0.681c0.024,0.557-0.027,1.032-0.166,1.49c-0.145,0.476-0.836,0.612-0.468,1.254 c0.65-0.142,1.223,0.072,1.267,0.761c0.899,0.054,3.833-0.446,4.388,0.428c1.202,1.892-2.574,0.587-2.528,2.11 c-1.262,0.2-1.176-0.561-2.135,0.406c-0.482,0.486-0.123,0.555-0.857,0.88c-0.47,0.208-0.975-0.255-1.305,0.248 c-0.248,0.379,0.231,0.887,0.231,1.176c0,0.452-0.259,0.946-0.257,1.337c0.007,1.271,0.507,0.473,1.657,0.937 c0.04,1.225-1.374-0.047-1.609,1.097c1.184,0.073,1.554,0.077,1.966,1.231c0.095,0.265,0.391,3.065,0.22,3.063 c1.146,0.011,0.723-1.818,0.704-2.576c0.126,0.174,0.285,0.223,0.415,0.439c1.315-0.863,1.456,1.56,2.995,1.138 c0.542-0.968,0.106-1.956,1.128-2.674c0.506-0.355,1.886-1.049,2.443-1.233c0.697-0.23,0.998,0.131,1.492-0.51 c0.341-0.442,0.107-0.927,0.282-1.391c0.399-1.058,1.111-1.604,2.388-1.628c0.021,0.588-1.282,1.731-0.904,2.046 c0.261,0.218,1.492-0.5,2.051-0.398c-0.213,1.376-2.43,0.555-2.122,2.25c0.788-0.14,1.679-0.357,2.502-0.215 c-0.294,0.386-0.32,0.895-0.094,1.349c0.201,0.059,0.524,0.058,0.725,0c0.053-1.393,2.126-1.51,1.892,0.023 c-0.223,1.46-1.524,1.683-2.744,1.625c0.151-0.746-0.33-1.264-0.906-0.741c-0.377,0.343,0,1.095-0.508,1.489 c-0.661,0.513-2.763-2.103-2.826,0.062c-0.014,0.487,0.911,0.719,0.515,1.462c-0.43,0.808-0.999,0.347-1.339-0.225 c-0.413-0.694-0.026-3.108-1.755-1.803c0.072,0.045,0.249,0.126,0.313,0.177c0.195,0.621-0.12,1.125-0.716,1.267 c0.062,0.76-0.032,1.467-0.53,1.913c-0.56,0.504-1.551,0.199-1.758,1.214c1.115-0.116,1.327,0.811,0.849,1.645 c-0.752,0.044-3.076-0.075-1.604,1.142c0.658-0.025,1.371,0.083,1.87,0.373c-1.327-0.121-1.143,1.459-0.215,1.901 c0.716,0.342,2.43,0.092,3.225,0.174c-0.608,0.908-1.575,0.491-2.113,1.122c-0.72,0.844,0.351,1.121,1.121,1.033 c-0.15,1.287,0.53,1.554,1.54,1.756c1.246,0.249,1.401-0.028,2.028,1.151c0.838,1.576,0.264,3.591,0.887,5.205 c0.421-1.024,0.005-2.636,0.127-3.814c0.105-1.015,0.75-2.904,1.743-3.409c0.476-0.242,1.213,0.223,1.65-0.168 c0.382-0.342,0.126-1.089,0.536-1.498c0.388-0.388,0.985-0.301,1.403-0.635c0.404-0.322-0.093-1.167,0.986-1.033 c-0.092-2.156,1.503-1.732,2.18-3.029c0.375-0.717,0.105-0.946,0.755-1.638c0.251-0.267,3.644-2.231,3.656-2.178 c-0.293-1.281,1.407-1.721,2.082-0.769c0.623,0.879,0.059,2.352-0.038,3.33c-0.103,1.045,0.319,2.482-0.127,3.409 c-0.527,1.094-2.087,0.41-2.059,1.762c-0.915,0.04-1.659-0.344-2.484-0.212c1.93,1.758-0.506,1.138-1.55,1.87 c-0.279,0.195-0.036,0.63-0.4,0.865c-0.305,0.198-0.574,0.148-0.855,0.285c-0.899,0.438-0.784,0.24-1.353,1.248 c0.779-0.052,1.373,0.118,2.08,0.423c-0.707,0.528-2.933,0.564-2.732,1.475c0.391,0.159,0.797,0.303,1.206,0.425 c-0.962,0.736-1.29,0.998-0.357,1.977c-0.733,0.696-0.747,2.022,0.137,2.439c0.688,0.326,2.11,0.189,2.902,0.4 c-0.129,0.931,1.2,2.227,2.053,2.37c0.045-0.201,0.243-0.757,0.527-0.839c0.802-0.234,0.482,0.257,0.89,0.323 c0.457,0.073,0.263,0.408,0.824,0.251c0.31-0.087,0.584-0.75,0.827-0.957c0.635-0.542,1.218-0.646,1.962-0.951 c0.74-0.304,1.311-1.042,2.171-0.999c0.145-1.305-1.471-2.626,1.014-2.535c0.172-0.628-0.06-1.101-0.732-1.017 c0.375-0.532,0.137-1.228,0.393-1.857c0.883-0.051,1.767,0.006,2.621-0.168c-0.006-1.016,2.439-0.981,1.026-1.887 c-0.706-0.454-1.702-0.045-2.506-0.651c-0.112-0.594-0.033-1.236,0.253-1.736c0.738-0.172,3.03,0.258,2.368-1.011 c-0.875-0.021-2.364,0.009-1.625-1.16c0.491-0.777,1.145-0.247,1.391-1.521c0.224-1.163,0.036-1.384,0.733-2.182 c0.165-0.189,0.396,0.023,0.537-0.09c0.222-0.177,0.117-0.384,0.248-0.519c0.191-0.197,0.459-0.612,0.621-0.739 c-1.515,0.147-2.236-1.284-0.129-1.182c0.117-0.244,0.264-0.709,0.152-0.991c-0.257-0.648-0.497-0.052-0.871-0.409 c-0.393-0.376-0.439-0.98-1.144-1.004c0.043-0.208-0.078-0.514-0.038-0.723c-0.538,0.006-1.052-0.137-1.485-0.39 c0.287-1.034,1.467-0.853,2.264-1.151c0.756-0.281,1.318-1.328,2.243-1.138c-0.654-0.096-0.897-0.633-0.7-1.251 c0.589-0.232,1.46,0.079,1.987-0.298c0.174-0.125,0.633-1.471,0.875-1.78c0.701-0.898,1.834-1.683,2.443-2.599 c0.785-1.18-0.095-2.33-0.004-3.707c0.07-1.056,0.188-1.136,0.986-1.805c0.467-0.392,1.054-0.262,0.896-1.218 c-0.364,0.066-0.658-0.165-0.973-0.168c-0.112-1.922,0.018-2.944,1.027-4.379c0.91-1.293,1.884-2.378,3.641-2.19 c1.194,0.128,1.135,0.091,1.267,1.267c0.073,0.649,0.116,1.806-0.155,2.38c-0.431,0.914-1.32,0.511-1.491,1.296 c-0.14,0.641,0.83,1.441,1.374,1.375c-0.054-0.62-0.458-1.698,0.479-1.61c-0.274,0.649,0.206,1.101,0.786,1.27 c0.404,1.471-0.766,0.737-1.093,1.524c-0.32,0.77,0.585,1.364,1.223,1.223c-0.048-0.409-0.014-0.902,0.178-1.235 c0.508-0.883,0.675-0.198,1.235-0.644c1.245-0.992,0.253-0.957-0.707-1.394c-1.763-0.802-1.411-3.771,0.929-2.503 c1.29,0.699,2.256,1.927,3.486,2.722c1.073,0.694,2.177,1.807,3.01,2.832c0.433-0.307,0.717-0.745,0.779-1.267 c0.608,0.124,1.059,0.578,1.505,0.999c0.751,0.708,1.247,1.327,1.391,2.285c0.176,1.168,0.066,1.475,0.853,2.313 c0.487,0.519,1.464,1.118,1.781,1.771c0.388,0.799,0.155,2.111,0.155,3.014c0,3.144-0.331,6.273-0.51,9.409 c-0.164,2.87,0.318,5.986-0.2,8.804c-0.275,1.498-1.191,2.344-1.191,3.841c0,1.296,0.376,1.736,0.634,2.788 c0.238,0.971,0,2.29,0,3.295c0,2.261-0.297,4.468-0.38,6.717c-0.078,2.13-0.294,4.071-0.51,6.082 c-0.116,1.082,0.058,2.21,0.003,3.298c-0.106,2.082-1.44,3.674-1.775,5.578c-0.221,1.26,0.725,1.412,0.887,2.281 c0.196,1.053-1.227,1.361-1.02,2.407c0.146,0.737,1.22,1.088,1.4,2.029c0.437,2.283-0.771,4.578-0.884,6.844 c-0.093,1.874,0.178,4.808-0.637,6.464c-1.677,3.41-8.802,8.499-1.014,9.76c1.621,0.263,1.995-0.238,3.375-0.635 c1.089-0.313,2.135-0.095,3.384,0.09c1.203,0.177,2.192,1.175,3.355,1.364c0.081-1.333,0.284-4.071,2.187-2.066 c1.736,1.829-0.554,2.604-0.615,4.26c0.879,1.232,1.786,0.968,3.355,1.043c0.84,0.04,1.517,0.055,2.238,0.469 c0.5,0.288,0.759,0.98,1.43,1.186c2.848,0.876,4.17-5.289,0.587-5.911c-0.188-0.886,0.251-1.675,0.629-2.374 c-0.683-0.583-2.047-1.023-2.509-1.556c-0.813-0.937-0.36-1.824-0.516-2.97c-0.303-2.214-1.176-4.305-1.352-6.578 c-0.334-4.315,0.232-8.702,0-13.026c-0.084-1.57-0.242-3.119-0.169-4.728c0.075-1.652,0.945-2.64,1.183-4.192 c0.173-1.125-0.175-2.052-0.436-3.096c-0.174-0.7-0.669-1.601-0.759-2.18c-0.217-1.406,0.566-3.11,0.688-4.563 c0.253-3.002,1.433-5.513,1.69-8.45c0.599-6.842-0.624-14.111,1.487-20.788c0.921-2.91-0.64-5.738,1.179-8.457 c1.553-2.322,3.436-4.27,5.306-6.402c1.184-1.35,1.92-2.273,3.689-2.547c1.343-0.208,3.153-0.393,2.886,1.361 c-0.061,0.397-1.027,1.233-1.204,1.681c-0.238,0.6-0.276,1.144-0.321,1.83c-0.118,1.84,0.705,2.115,1.474,0.329 c0.718-1.666,0.881-2.369,2.409-3.639c0.836-0.695,2.084-2.387,3.177-2.209c0.941,1.001,0.366,2.231,0.912,3.282 c0.794-1.154,3.664-0.526,5.007-0.803c-0.353-2.512,1.796-2.475,3.552-1.621c-0.333,0.505-1.906,1.754-0.83,2.335 c0.587,0.318,2.128-1.006,3.024-0.831c-0.052,0.563,0.025,1.135,0.229,1.648c0.66-0.132,1.19-0.482,1.807-0.633 c-0.338,0.9-1.69,2.268-1.128,3.117c1.386-0.852,2.497-1.163,4.162-1.089c-0.069,0.331,0.127,0.812,0.05,1.141 c0.316-0.147,0.682-0.033,0.964-0.127c-0.04,0.457-0.095,1.71,0.524,1.846c1.155,0.252,0.433-1.244,0.68-1.706 c0.685-1.281,1.971-1.598,3.185-0.643c0.012,1.308-1.973,0.612-2.77,1.018c0.307,1.232,1.534,1.236,2.605,1.175 c-0.102,0.791,0.066,1.587,0.565,2.154c0.876-0.716,0.033-2.104,1.184-2.813c0.91-0.56,3.928,0.579,4.594,1.462 c1.125,1.492-0.777,2.336-1.548,3.603c-0.911,1.497-0.443,2.366,0.131,3.849c0.713,1.841-0.704,1.393-0.515,3.219 c0.055,0.531,0.792,0.605,0.858,1.517c0.037,0.517-0.515,0.821-0.486,1.491c0.907,0.047,2.606-0.304,3.186,0.364 c0.643,0.742-0.085,2.481,0.03,3.357c0.455-0.224,1.773-1.811,2.169-1.854c0.865-0.093,1.332,1.295,2.508,1.005 c-0.164-2.303,1.283-3.495,3.549-3.159c0.056,1.086-0.417,2.786,0.059,3.666c1.719-0.47-0.199-3.891,1.969-3.497 c-0.122,1.359,0.614,1.885,1.082,2.974c0.395,0.917,0.151,1.829-0.433,2.61c1.813-1.607,3.302,3.718,3.462,4.839 c1.046,0.063,2.087-0.082,3.103-0.141c0.041,0.896,0.578,2.512,1.707,1.562c-0.346,0.291-0.644,0.76-1.071,0.986 c1.076-0.239,1.842,0.518,2.183,1.455c0.34-0.811,1.089-1.298,1.965-1.103c0.2,0.808-0.438,1.525-0.84,1.661 c0.706,0.094,0.815,0.335,0.84,0.992c-1.513,0.244-2.824-0.55-4.354-0.274c1.563,0.765,2.562,2.54,4.536,2.526 c-0.652,0.747-1.555,1.337-2.001,2.311c1.253,0.045,1.925-0.81,2.998-1.136c-0.006,0.973-0.189,1.948-0.451,2.829 c1.394-0.303,2.66-2.236,3.67-3.183c-0.049,1.053,0.324,2.212,0.561,3.188c2.244-1.859,0.556-2.43,0.847-4.71 c1.482,1.059,2.464,2.855,3.97,3.656c-0.617-0.503-1.121-3.075-0.629-4.003c0.47-0.885,1.792-0.88,2.856-0.87 c-0.334-1.093-2.569-1.589-3.68-1.526c0.2-0.592,0.185-1.307,0.123-1.973c-0.563,0.339-1.015,0.942-1.8,0.794 c-0.674-1.249,0.362-1.992,1.108-2.883c1.08-1.289,1.1-2.037,1.376-3.657c-0.803,0.392-0.849,1.677-1.554,2.029 c-1.272,0.635-0.825-0.116-1.639-0.884c-1.379-1.302-3.016-2.456-4.172-3.975c-0.507-0.665-1.87-3.582-1.883-4.602 c1.991-0.256,2.204,1.194,2.028,2.652c1.342,0.072,4.709-0.658,4.68,1.353c-0.529,0.043-0.927,0.216-1.472,0.224 c0.21,2.737,2.537,0.041,3.396-0.33c1.411-0.61,4.235-0.032,5.184,1.111c-0.716,0.031-2.333-0.259-2.06,0.752 c0.204,0.758,1.49,0.728,2.064,0.668c-0.575,0.447-1.228,0.706-1.312,1.463c0.797,0.047,1.722-0.354,2.368,0.025 c-0.432,0.056-3.036,0.772-1.558,1.697c0.921,0.577,1.845-1.041,2.855-0.828c0.011,1.038-1.183,1.474-1.653,2.319 c1.264,0.305,1.718-0.835,2.837-0.797c0.068,0.542-0.483,2.178,0.059,2.475c0.917,0.502,0.835-1.55,1.487-1.667 c1.264-0.229,1.728,2.468,3.013,2.516c0.137-0.114,0.456-0.608,0.523-0.781c-0.772-0.498-2.614-1.476-1.33-2.366 c0.868-0.601,1.438,0.323,2.331,0.278c-0.25-3.552,3.455-0.219,5.635-0.979c-0.678-0.746-3.98-1.612-3.776-2.332 c-0.663-0.564-1.436-0.355-2.29-0.41c0.603-0.467,1.427-0.555,1.617-1.298c-0.605-0.014-1.228-0.067-1.811-0.219 c-0.164-1.171,1.157-0.991,1.979-1.187c-0.323-1.538-2.596-0.249-3.34-1.158c0.543-0.255,1.241-0.432,1.655-0.807 c-1.024-0.07-1.954,0.07-2.86-0.336c-1.162-0.52-0.806-1.106-1.372-1.721c-1.119-1.217-3.26-1.319-3.042-3.357 c-0.861-0.277-1.838-0.854-1.631-1.874c0.493,0.586,1.243,0.849,1.965,0.296c-0.073-0.321,0.126-0.804,0.055-1.129 c0.487,0.005,1.085-0.228,1.288-0.697c0.458-1.064-0.225-0.579-0.473-1.013c-0.274-0.481-1.884-1.291,0.177-1.36 c0.876-0.029,1.399,1.258,2.062,1.322c1.174,0.112,1.493-0.877,0.777-1.799c-0.622,0.065-1.28-0.059-1.684-0.528 c0.665-1.405,2.727,0.086,3.725-1.146c-2.069-1.169-4.304-0.501-6.375-0.909c-1.799-4.374,6.217,1.217,5.521-1.981 c-0.258,0.096-0.71-0.002-0.955,0.118c-0.007-0.423-0.29-0.812-0.229-1.301c-0.949,0.1-2.839-0.502-2.22-1.766 c0.213-0.436,2.248-0.945,2.612-1.128c-0.862-0.796-2.112,0.091-3.216-0.372c0.198-0.717-0.361-1.329-0.157-1.965 c0.144-0.447,1.041-1.217,1.348-1.559c-0.103-0.092-0.237-0.106-0.34-0.194c-0.031-1.103-0.634-1.94-1.829-1.751 c-0.01-0.437,0.635-1.954,1.289-1.9c-0.658-0.054-1.341-0.026-1.997-0.064c-0.159-1.017,1.285-1.658,1.684-2.615 c-0.689,0.486-1.258,1.118-2.192,0.925c0.162-0.334,0.007-0.597,0.299-0.942c-0.191-0.191-0.71-0.47-0.954-0.528 c-2.708,1.902-1.993-1.718-2.717-2.716c-0.083,1.265,0.452,3.518-1.528,3.34c-0.164-0.914,0.444-1.882,1.296-2.2 c-0.016-0.026,0.002-0.523,0.005-0.584c-0.026,0.003-0.049,0.012-0.073,0.02c-0.04,0.077-0.146,0.119-0.347,0.103 c0.127,0.01,0.233-0.066,0.347-0.103c0.174-0.342-0.971-1.404-1.075-1.499c-0.77-0.703-1.812-0.238-0.988-1.674 c0.816-1.423,4.028-1.506,5.33-1.101c2.938,0.915,3.759,3.813,3.105,6.54c1.648-0.554,2.728,0.119,2.547,1.859 c0.654-0.613,2.779-1.057,3.481-0.274c0.719,0.802,0.058,3.186,0.068,4.161c0.991-0.555,0.57-1.711,1.319-2.373 c1.675,0.871,1.614,3.217,3.497,3.936c-0.853-0.805-1.082-3.776-0.794-4.916c0.579-2.298,1.974,0.045,2.869,1.03 c1.742-0.981-0.965-2.918,0.545-3.708c1.303-0.682,2.011,2.065,2.978,2.31c-0.153-0.861-0.442-3.031,0.918-1.87 c0.941,0.802-0.163,3.053,1.96,2.88c0.08-1.056-0.587-1.882-0.319-2.825c0.722,0.088,2.217,1.609,2.842,1.301 c1.904-0.938-1.011-1.899-1.798-1.854c0.013-0.082,0.011-0.371,0.003-0.456c0.812,0.246,1.966,0.619,2.703-0.03 c-0.616-0.393-3.559-1.134-2.027-2.542c0.772-0.711,3.052,0.44,4.19-0.026C196.797,96.665,195.651,96.322,196.035,95.255z M45.4,97.133c-2.164,2.488-3.245,6.922-4.174,10.088c-0.992,3.381-1.929,5.232-4.348,7.849c-0.89,0.964-3.993,4.814-5.108,4.018 l-0.169-0.169c-0.942,0-1.966-0.108-2.864,0.119c-0.577,0.146-2.108,1.535-2.847,0.861c-1.35-1.232,3.142-1.826,3.494-2.641 c-0.595-0.238-1.322-0.26-1.985-0.227c0.359-1.497,2.123-0.494,2.838-1.458c-0.669-0.242-1.448-0.262-2.158-0.227 c-1.479-2.512,2.178-2.11,3.671-2.201c-0.154-0.943-1.047-1.083-1.988-1.01c0.395-1.009,1.77-0.431,1.812-1.468 c-0.481-0.469-1.256-0.683-1.969-0.565c-0.473-1.258-0.337-1.278-1.174-2.205c-0.617-0.684-1.396-1.291-1.872-1.957 c0.948-1.194,2.726-0.182,4.005-0.397c0.038-0.861,0.34-2.023-0.621-2.37c-0.232-1.853,1.702-1.025,2.818-1.179 c-0.059-2.137-0.735-3.081,1.782-3.689c1.675-0.405,1.613-0.02,1.962-1.693c0.186-0.893,0-1.988,0.378-2.86 c0.727,0.552,1.689,0.988,2.125,1.659c0.639-0.919,0.512-2.016,1.034-2.83c0.157-0.244,0.958-0.15,1.33-0.701 c0.131-0.194-0.326-0.997-0.454-1.154c1.696-0.12,5.22-0.389,6.546,0.802c0.264-1.207-2.296-1.997-1.338-2.656 c0.391-0.269,2.74,0.208,3.026,0.671C51.282,92.988,47.317,94.927,45.4,97.133z M93.625,45.236v-0.169 c-0.305,0.373-0.718,0.613-1.158,0.65c-0.087-1.226,0.299-2.657,1.808-2.483C94.376,44.01,94.281,44.781,93.625,45.236z M78.246,52.165l-0.338,0.338c-1.197-0.004-3.146,0.332-2.675-1.492c0.809-0.311,1.765-0.219,2.653-0.173 C78.069,51.237,78.263,51.721,78.246,52.165z M69.099,76.67c1.044-0.947,2.516-1.234,3.367-2.54 c0.795-1.219,0.595-2.61,1.216-3.887c0.297-0.61,1.268-0.889,1.191-1.686c-0.127-1.314-0.705-0.43-1.314-0.465 c-0.982-0.055-0.704,0.713-1.694-0.089c-0.47-0.381-0.72-0.874-0.697-1.449c2.049-0.034,2.338-0.315,1.542-1.927 c-0.277-0.56-1.447-0.279-0.59-1.191c0.34-0.362,1.704-0.117,2.212-0.145c-0.141-2.288,2.028-1.158,2.56,0.049 c0.192-0.354,0.263-1.015,0.14-1.516c-0.666-0.063-1.754-0.525-1.88-1.344c-0.175-1.137,0.989-1.232,1.74-1.917 c0.295,0.386,0.355,0.971,0.685,1.363c0.229,0.271,0.82,0.67,0.996,0.88c0.875,1.038,1.555,1.966,1.335,3.498 c-0.503-0.003-0.895,0.28-1.148,0.335c0.781-0.162,1.577-0.019,1.482,0.844c-0.731,0.208-1.45,0.645-1.293,1.529 c1.761-0.749,1.365,1.958,1.322,3.064c-0.075,1.98-0.387,2.847-2.231,3.854c-1.454,0.794-2.928,1.532-4.363,2.341 c-0.797,0.45-1.879,1.176-2.837,1.168C70.739,77.441,68.678,77.052,69.099,76.67z M118.637,46.25 c-0.088-0.067-0.188-0.177-0.29-0.309l0.289-1.891L118.637,46.25z M61.853,78.359l-0.338,0.169 c0.044-0.043,0.097-0.099,0.154-0.162c-0.214,0.009-0.439-0.007-0.634-0.032c-0.084-1.603,1.642-1.952,1.351-3.836 c0.486-0.084,1.152-0.084,1.639,0c0.062,0.755-1.632,3.069-2.356,3.868C61.73,78.364,61.796,78.369,61.853,78.359z M80.871,83.87 c-0.094,1.199-0.317,2.408-0.258,3.615c0.253,5.229-0.267,10.481-0.507,15.717c-0.056,1.226-0.363,2.215-0.972,3.249 c-0.813,1.382-1.643,1.45-2.448,0.946c-1.235-0.774-2.412-2.894-3.381-3.683c-1.501-1.22-2.855-2.543-4.351-3.722 c-1.295-1.021-2.669-1.86-4.06-2.831c-0.342-0.239-1.84-1.093-1.698-1.567c0.187-0.627,2.271-0.31,2.741-0.503 c-0.489-0.375-1.224-0.509-1.854-0.705c-0.142-1.128,1.039-0.72,1.669-1.318c0.783-0.742,0.357-0.917,0.667-1.863 c0.324-0.988,0.677-1.105,1.145-2.037c0.428-0.852,0.542-1.464-0.287-2.153c1.879-0.126,6.428,1.773,7.354-0.541 c-1.302-0.691-3.076,0.774-4.546-0.127c-2.579-1.58,1.382-1.44,2.586-1.563c2.001-0.205,4.281-1.365,5.535-2.905 c0.771-0.947,2.294-2.798,3.075-0.991C81.469,81.326,80.913,83.332,80.871,83.87z M89.898,33.405 c-0.676-1.14,1.058-1.103,1.816-1.01c-0.498-0.066-0.829-0.456-1.156-0.683c0.581-0.561,1.71-0.35,2.534-0.308 c0.068,0.629-0.176,1.12-0.671,1.5c0.366,0.271,0.114,0.483,0.189,0.672l0.169,0.169C92.009,33.744,90.28,34.047,89.898,33.405z M139.03,123.347c-0.361,0.23-0.522,0.704-0.772,0.952c0.099,0.019,0.197,0.038,0.296,0.057c-0.274,0.602-0.472,1.305-0.82,1.661 l0.507-0.168c0.128,1.105-1.019,0.95-1.838,0.819c-0.039-0.901,0.309-2.257-0.499-2.707c-0.327-1.612,2.203-1.791,1.973-3.49 c-0.919-0.155-2.264-0.154-2.146-1.357c1.702-0.73,4.804,1.207,2.991,2.987C136.603,121.689,136.87,123.428,139.03,123.347z M149.755,100.071c-0.595,0.214-1.255,0.753-1.89,1.177c-0.462,0.309-0.912,0.557-1.313,0.573 c-0.786-1.337,0.725-1.783,1.161-2.832c0.56-1.352,0.501-2.289,1.673-3.197c0.752-0.582,2.164-1.397,2.21,0.144 c0.034,1.095-1.392,1.225-1.498,2.173c0.592,0.017,1.215,0.034,1.807,0.05C152.051,99.615,150.792,99.697,149.755,100.071z M152.97,119.063c0.051-0.938-1.493-2.168-1.048-2.856c0.659-1.018,2.215,1.345,1.529,1.36c0.397-0.009,0.809,0.173,1.154,0.368 C154.929,119.137,153.957,119.291,152.97,119.063z"/>
  <g class="u2__shadow">
    <path d="M79.987,104.74c0.04,11.301-2.693,19.702-8.195,25.207c-5.506,5.506-13.883,8.255-25.14,8.255 c-10.679,0-18.905-2.749-24.677-8.255c-5.775-5.506-8.659-13.348-8.659-23.532V62.774c0-3.767-0.646-6.262-1.937-7.482 c-1.291-1.22-4.024-1.973-8.203-2.266v-3.042h20.914h20.914v3.042c-4.626,0.293-7.645,1.05-9.047,2.27 c-1.406,1.22-2.107,3.715-2.107,7.486v44.485c0,8.453,1.489,14.707,4.468,18.763c2.979,4.06,7.573,6.088,13.776,6.088 c7.724,0,13.376-2.278,16.953-6.833c3.573-4.555,5.363-11.784,5.363-21.686V65.701c0-4.888-0.804-8.14-2.404-9.756 c-1.604-1.616-5.026-2.586-10.271-2.919v-3.042h14.069h14.069v3.042c-4.08,0.25-6.745,1.18-8.001,2.796 c-1.26,1.616-1.885,4.904-1.885,9.867V104.74z"/>
    <path d="M148.2,72.328c0,6.694-3.133,13.74-9.391,21.135c-4.492,5.331-13.083,13.82-25.77,25.473h20.24 c5.791,0,9.653-0.562,11.586-1.687c1.933-1.125,3.719-3.858,5.363-8.199h3.042l-2.757,13.277l-2.82,13.34H94.965v-1.422v-1.485 c13.352-13.839,22.656-24.708,27.917-32.598c5.216-7.851,7.827-14.873,7.827-21.072c0-4.832-1.39-8.738-4.167-11.712 c-2.781-2.975-6.452-4.464-11.015-4.464c-3.252,0-6.246,1.014-8.979,3.038c-2.737,2.028-4.908,4.816-6.512,8.369h-3.549 c3.256-8.639,7.205-15.107,11.847-19.409c4.638-4.298,9.989-6.448,16.05-6.448c6.971,0,12.683,2.234,17.135,6.694 C145.969,59.621,148.2,65.345,148.2,72.328z"/>
  </g>
  <g class="u2__text">
    <path d="M81.508,103.219c0.04,11.301-2.693,19.702-8.195,25.207c-5.506,5.506-13.883,8.255-25.14,8.255 c-10.679,0-18.905-2.749-24.677-8.255c-5.775-5.506-8.659-13.348-8.659-23.532V61.253c0-3.767-0.646-6.262-1.937-7.482 c-1.291-1.22-4.024-1.973-8.203-2.266v-3.042h20.914h20.914v3.042c-4.626,0.293-7.645,1.05-9.047,2.27 c-1.406,1.22-2.107,3.715-2.107,7.486v44.485c0,8.453,1.489,14.707,4.468,18.763c2.979,4.06,7.573,6.088,13.776,6.088 c7.724,0,13.376-2.278,16.953-6.833c3.573-4.555,5.363-11.784,5.363-21.686V64.18c0-4.888-0.804-8.14-2.404-9.756 c-1.604-1.616-5.026-2.586-10.271-2.919v-3.042h14.069h14.069v3.042c-4.08,0.25-6.745,1.18-8.001,2.796 c-1.26,1.616-1.885,4.904-1.885,9.867V103.219z"/>
    <path d="M149.721,70.807c0,6.694-3.133,13.74-9.391,21.135c-4.492,5.331-13.083,13.82-25.77,25.473h20.24 c5.791,0,9.653-0.562,11.586-1.687c1.933-1.125,3.719-3.858,5.363-8.199h3.042l-2.757,13.277l-2.82,13.34H96.486v-1.422v-1.485 c13.352-13.839,22.656-24.708,27.917-32.598c5.216-7.85,7.827-14.873,7.827-21.072c0-4.832-1.39-8.738-4.167-11.712 c-2.781-2.975-6.452-4.464-11.015-4.464c-3.252,0-6.246,1.014-8.979,3.038c-2.737,2.028-4.908,4.816-6.512,8.369h-3.549 c3.256-8.639,7.205-15.107,11.847-19.409c4.638-4.298,9.989-6.448,16.05-6.448c6.971,0,12.683,2.234,17.135,6.694 C147.49,58.1,149.721,63.824,149.721,70.807z"/>
  </g>
</svg>
