<!--
  SVG Music Logos
  Van Halen - Van Halen II v0.1.0
  https://github.com/tiagoporto/svg-music-logos
  Copyright (c) 2016-2018 Tiago Porto (http://tiagoporto.com)
-->
<svg xmlns="http://www.w3.org/2000/svg" viewBox="0 0 200 118" class="van-halen--II">
  <g class="van-halen--II__shadow">
    <polygon points="194.468 7.98 185.117 13.612 131.51 13.612 138.521 8.058 194.468 7.98"/>
    <polygon points="187.903 18.844 178.553 24.476 127.321 24.476 134.331 18.844 187.903 18.844"/>
    <polygon points="181.237 29.878 171.887 35.509 123.066 35.509 130.311 29.878 181.237 29.878"/>
    <polygon points="106.01 30.168 115.36 35.799 124.366 13.612 115.016 7.98 106.01 30.168"/>
    <polygon points="115.016 7.98 124.366 13.612 131.705 13.612 122.355 7.98 115.016 7.98"/>
    <polygon points="122.355 7.98 131.705 13.612 134.074 7.698 124.723 2.066 122.355 7.98"/>
    <polygon points="86.425 79.017 95.775 84.649 112.96 41.713 103.609 36.082 86.425 79.017"/>
    <polygon points="103.609 36.082 112.96 41.713 131.316 41.713 121.965 36.082 103.609 36.082"/>
    <polygon points="98.59 110.32 107.94 115.951 140.181 35.509 130.831 29.878 98.59 110.32"/>
    <polygon points="133.207 23.964 142.557 29.595 144.613 24.476 135.263 18.844 133.207 23.964"/>
    <polygon points="137.639 12.93 146.989 18.562 148.977 13.612 139.627 7.98 137.639 12.93"/>
    <polygon points="77.037 7.98 86.387 13.612 104.86 13.612 95.509 7.98 77.037 7.98"/>
    <polygon points="5.472 7.98 14.823 13.612 68.43 13.612 59.08 7.98 5.472 7.98"/>
    <polygon points="12.037 18.844 21.387 24.476 72.619 24.476 63.269 18.844 12.037 18.844"/>
    <polygon points="18.703 29.878 28.054 35.509 76.874 35.509 67.524 29.878 18.703 29.878"/>
    <polygon points="80.19 46.288 89.54 51.919 72.454 7.698 63.103 2.066 80.19 46.288"/>
    <polygon points="80.412 63.546 89.762 69.178 113.706 7.68 104.355 2.049 80.412 63.546"/>
  </g>
  <g class="van-halen--II__letters">
    <polygon points="74.214 2.117 77.037 8.031 95.509 8.031 80.19 46.338 63.103 2.117 2 2.117 2 2.284 5.472 8.031 59.08 8.031 60.989 12.981 8.463 12.981 12.037 18.895 63.269 18.895 65.243 24.014 15.13 24.014 18.703 29.928 67.524 29.928 80.412 63.596 104.355 2.099 74.214 2.117"/>
    <polygon points="198 2.117 135.629 2.117 124.341 30.218 106.01 30.218 115.016 8.031 122.355 8.031 124.723 2.117 117.095 2.117 111.058 2.117 83.305 71.04 86.425 79.068 103.609 36.132 121.965 36.132 95.452 102.297 98.59 110.37 130.831 29.928 181.196 29.928 184.769 24.014 133.207 24.014 135.263 18.895 187.862 18.895 191.436 12.981 137.639 12.981 139.627 8.031 194.427 8.031 198 2.117"/>
  </g>
</svg>
