<!--
  SVG Music Logos
  Wolfmother - Wolfmother v0.1.0
  https://github.com/tiagoporto/svg-music-logos
  Copyright (c) 2016-2018 Tiago Porto (http://tiagoporto.com)
-->
<svg xmlns="http://www.w3.org/2000/svg" viewBox="0 0 200 33">
  <path d="M2.77 2.716l12.562 27.568 2.946-7.093 2.946 7.094 12.56-27.568z"/>
  <path d="M197.23 9.976c0-4-3.27-7.26-7.117-7.26h-8.31v27.567h15.398l-6.28-13.094c3.55-.41 6.31-3.482 6.31-7.214z"/>
  <path d="M167.572 2.716v27.568h13.006v-6.892h-3.89V17.39h3.89v-6.226h-3.89V9.608h3.89V2.716z"/>
  <path d="M158.388 10.838h-1.968V2.716h-8.422v27.568h8.422v-8.122h1.968v8.122h8.422V2.716h-8.422z"/>
  <path d="M95.548 9.81l-2.946-7.094-12.56 27.568h31.013L98.495 2.716z"/>
  <ellipse cx="120.343" cy="16.5" rx="12.783" ry="13.784"/>
  <path d="M132.61 2.716v7.56h2.778v20.008h9.115v-20.01h2.78V2.717z"/>
  <path d="M83.252 11.164h-3.89V9.608h3.89V2.716H70.247v27.568h9.115V17.39h3.89z"/>
  <path d="M65.355 2.716H56.24v27.568h13.006v-7.56h-3.89z"/>
  <ellipse cx="42.233" cy="16.5" rx="12.783" ry="13.784"/>
</svg>
