<!--
  SVG Music Logos
  Pink Floyd - The Divison Bell v1.0.0
  https://github.com/tiagoporto/svg-music-logos
  Copyright (c) 2016 Tiago Porto (http://tiagoporto.com)
-->
<svg xmlns="http://www.w3.org/2000/svg" viewBox="0 0 200 200">
  <path d="M99.378 4.568h.004v.008c26.39 0 50.342 10.758 67.69 28.108 17.35 17.348 28.105 41.297 28.107 67.684h.007v.012h-.008c-.002 26.39-10.76 50.344-28.11 67.693-17.347 17.348-41.297 28.103-67.683 28.106v.007H99.374v-.008c-26.39-.002-50.343-10.758-67.692-28.11-17.348-17.347-28.103-41.297-28.106-67.685h-.01V100.372h.01c0-26.39 10.757-50.342 28.107-67.69S72.984 4.578 99.37 4.575v-.008h.008zm.004 4.078v.008h-.014v-.008c-25.247.002-48.175 10.306-64.795 26.924-16.62 16.62-26.926 39.55-26.927 64.803h.008v.014h-.008c0 25.25 10.305 48.177 26.924 64.797 16.62 16.62 39.55 26.926 64.804 26.926v-.008h.012v.008c25.248 0 48.176-10.305 64.796-26.924 16.62-16.62 26.926-39.552 26.927-64.805h-.01v-.011h.01c-.002-25.25-10.307-48.177-26.926-64.797-16.62-16.62-39.55-26.926-64.802-26.927z"/>
  <path d="M100.15 94.96c1.375.003 2.736.003 4.107.007 8.345-.535 13.55-2.772 19.797-5.706 1.794-1.06 3.57-2.12 5.326-3.155 1.366-1.214 2.72-2.414 4.066-3.6 1.132-1.37 2.253-2.72 3.373-4.087.853-1.37 1.724-2.765 2.59-4.13 1.452-3.386 2.147-6.435 2.174-10.35.032-3.913-.3-6.877-3.577-11.053-3.51-4.943-9.615-7.994-17.67-10.144-8.863-2.367-18.61-.347-19.55-1.624-.938-1.273-1.25-7.953 2.5-8.194-.46-.6-.926-1.182-1.37-1.806-3.646-.076-8.29-.18-8.315-.25.003 2.154-.01 4.293-.008 6.458.058 1.474.116 2.952.177 4.41-5.78 1.007-9.887 1.74-15.144 3.855-15.297 4.677-8.828 12.274 7.098 19.135 3.962 2.087-.984 3.988 2.032 5.303 1.51.6 3.65.196 4.525-3.025 3.155-3.655 1.946 14.276 1.85 21.58-.096 7.304-5.877 4.475-12.006 3.11-6.218-1.387-12.76-3.734-13.976-2.34 1.524 1.226 1.73 3.3 4.646 4.2 2.918.905 8.64 1.502 12.53 1.38 3.687.2 8.407-.634 9.495.67-.15 8.037-.296 16.3-.445 24.8-.308.913-.603 1.87-.91 2.81-3.95.532-7.937 1.03-11.98 1.574-3.77.642-7.61 1.292-11.48 1.935-2.232.09-4.484.2-6.732.295-1.984-.132-3.962-.307-5.933-.45-.062.98-.12 1.978-.17 2.987 1.385.83 2.79 1.616 4.204 2.43 2.817.34 5.627.706 8.412 1.057 4.483.005 8.922.037 13.284.025 2.492.116 4.95.21 7.416.327 1.575.39 3.134.778 4.705 1.153 1.954.156 3.91.28 5.857.39 5.47.292 10.842.556 16.15.82 1.957 0 3.914 0 5.863-.017 1.395.04 2.77.056 4.148.068 1.4.263 2.815.535 4.223.782 1.723-.108 3.448-.22 5.173-.343.954-.506 1.913-1.013 2.85-1.536.074-.903.144-1.82.218-2.738-.023-3.248-.05-6.44-.07-9.63-.55-1.39-1.1-2.786-1.64-4.178-1.244.256-2.475.523-3.707.782-2.1.506-4.23 1.02-6.373 1.548-4.042.49-8.15.982-12.31 1.488-4.42.164-8.884.355-13.438.543-.783-.323-1.555-.642-2.332-.95-.298-1.028-.605-2.054-.92-3.083.002-7.253-.018-14.34-.024-21.285.026-1.528.402-2.132 1.293-2.247zm-8.113-32.133c-2.227 1.948-21.353-8.336-15.45-11.367 5.91-3.028 15.876-4.995 15.977-1.65.1 3.347.582 10.627-.527 13.017zm5.79 27.002c.045-1.19.07-2.375.12-3.56.2-6.176.422-12.997.655-19.664.226-6.52.447-12.93.62-18.48 3.154-1.01 6.992-.58 10.066-.648 2.555.102 4.882.368 6.757.703l3.38.615c.905.296 1.805.594 2.708.876 1.016.405 2.025.808 3.046 1.23 1.223.616 2.434 1.23 3.642 1.848.826.762 1.648 1.48 2.476 2.23.7.817 1.38 1.62 2.087 2.436.572 1.204 1.137 2.424 1.723 3.63.3 1.082.583 2.16.872 3.222.03 1.356.074 2.7.112 4.043-.2 2.936-.712 4.66-2.063 7.214-.775 1.154-1.547 2.29-2.32 3.414-1.443 1.405-2.874 2.823-4.324 4.267-1.448 1.168-2.92 2.36-4.403 3.536-1.81.91-3.656 1.828-5.488 2.76-1.542.5-3.09 1-4.63 1.466-1.426.335-2.868.663-4.283.996-1.504.18-2.988.35-4.472.515-1.672 0-3.338.014-5.008-.005-1.75-.65-1.275-1.198-1.274-2.643z"/>
  <path d="M69.575 153.88c1.69-.17 3.388-.33 5.08-.515 3.77-.23 7.474-.447 11.162-.674 3.8-.03 7.572-.063 11.318-.083 1.564-.283 3.12-.578 4.676-.89 2.59-.33 5.164-.65 7.715-.993 11.71-.407 13.136 5.765 9.735 14.01-1.338 3.142-1.773 4.765-6.288 5.045-4.73.47-10.044-.67-14.86-1.254-5.486-.754-9.398-.128-11.65-4.92-1.08-2.11-1.782-3.275-4.607-4.137-1.48-.22-2.966-.464-4.48-.723-2.505-.335-4.243-.663-6.538-1.556-2.07-1.028-4.447-2.276-1.262-3.31z"/>
</svg>
