<!--
  SVG Music Logos
  Pink Floyd - The Later Years v1.0.0
  https://github.com/tiagoporto/svg-music-logos
  Copyright (c) 2016-2019 Tiago Porto (http://tiagoporto.com)
-->
<svg xmlns="http://www.w3.org/2000/svg" viewBox="0 0 150 200">
  <circle cx="75.601" cy="42.387" r="2.848"/>
  <circle cx="17.873" cy="16.615" r="2.023"/>
  <circle cx="11.29" cy="10.081" r="2.023"/>
  <circle cx="5.169" cy="3.911" r="2.023"/>
  <circle cx="133.246" cy="16.615" r="2.023"/>
  <circle cx="139.829" cy="10.081" r="2.023"/>
  <circle cx="145.951" cy="3.911" r="2.023"/>
  <path d="M75.601,51.682c-5.125,0-9.295-4.17-9.295-9.295s4.17-9.295,9.295-9.295s9.295,4.17,9.295,9.295 S80.727,51.682,75.601,51.682z M75.601,36.091c-3.471,0-6.295,2.824-6.295,6.295s2.824,6.295,6.295,6.295s6.295-2.824,6.295-6.295 S79.072,36.091,75.601,36.091z"/>
  <path d="M75.601,58.053c-8.639,0-15.667-7.028-15.667-15.667S66.962,26.72,75.601,26.72c8.638,0,15.667,7.028,15.667,15.667 S84.239,58.053,75.601,58.053z M75.601,29.72c-6.984,0-12.667,5.682-12.667,12.667s5.682,12.667,12.667,12.667 c6.984,0,12.667-5.682,12.667-12.667S82.585,29.72,75.601,29.72z"/>
  <path d="M63.908,106.371c-0.134,0-0.271-0.018-0.406-0.056c-19.18-5.384-32.575-23.073-32.575-43.016 c0-5.91,1.136-11.653,3.377-17.069c0.316-0.766,1.193-1.129,1.96-0.812c0.765,0.317,1.129,1.194,0.812,1.96 c-2.09,5.05-3.15,10.407-3.15,15.922c0,18.604,12.495,35.105,30.385,40.127c0.798,0.224,1.263,1.052,1.039,1.85 C65.166,105.938,64.563,106.371,63.908,106.371z"/>
  <path d="M110.868,39.889c-0.47,0-0.933-0.22-1.226-0.633c-7.812-11.039-20.537-17.629-34.042-17.629 c-13.464,0-26.168,6.559-33.983,17.546c-0.479,0.675-1.416,0.833-2.092,0.353c-0.675-0.48-0.833-1.417-0.353-2.092 c8.376-11.776,21.994-18.807,36.427-18.807c14.476,0,28.117,7.064,36.491,18.896c0.479,0.676,0.318,1.613-0.358,2.091 C111.471,39.799,111.168,39.889,110.868,39.889z"/>
  <path d="M86.977,106.459c-0.66,0-1.265-0.438-1.446-1.105c-0.218-0.8,0.254-1.624,1.053-1.842 c18.07-4.924,30.691-21.46,30.691-40.212c0-5.524-1.063-10.891-3.161-15.95c-0.317-0.766,0.046-1.643,0.812-1.96 c0.765-0.317,1.643,0.046,1.96,0.812c2.249,5.425,3.39,11.178,3.39,17.099c0,20.102-13.53,37.827-32.902,43.106 C87.24,106.442,87.107,106.459,86.977,106.459z"/>
  <path d="M86.977,120.694c-0.68,0-1.296-0.465-1.459-1.155c-0.19-0.806,0.309-1.614,1.115-1.805 c7.945-1.877,15.463-5.847,21.74-11.479c0.619-0.554,1.566-0.502,2.118,0.114c0.554,0.617,0.502,1.565-0.114,2.118 c-6.65,5.967-14.622,10.174-23.055,12.166C87.206,120.682,87.091,120.694,86.977,120.694z"/>
  <path d="M63.908,120.618c-0.117,0-0.236-0.014-0.355-0.043c-8.283-2.014-16.124-6.178-22.675-12.039 c-0.618-0.553-0.67-1.501-0.118-2.118c0.551-0.618,1.501-0.67,2.118-0.118c6.185,5.534,13.579,9.463,21.384,11.361 c0.805,0.195,1.299,1.007,1.103,1.812C65.198,120.158,64.584,120.618,63.908,120.618z"/>
  <path d="M64.558,155.193c-0.829,0-1.5-0.672-1.5-1.5V63.921L23.781,24.644c-0.586-0.585-0.586-1.536,0-2.121 c0.586-0.586,1.535-0.586,2.121,0l39.716,39.717c0.281,0.281,0.439,0.663,0.439,1.061v90.394 C66.058,154.521,65.386,155.193,64.558,155.193z"/>
  <path d="M5.694,123.713c-0.384,0-0.768-0.146-1.06-0.438c-0.586-0.586-0.586-1.536-0.001-2.122L63.497,62.24 c0.586-0.586,2.708,1.534,2.122,2.12L6.755,123.273C6.462,123.566,6.078,123.713,5.694,123.713z"/>
  <path d="M50.289,77.585L18.838,46.298c-0.587-0.584-0.589-1.534-0.005-2.122c0.584-0.587,1.534-0.589,2.122-0.005l31.451,31.287 C52.992,76.043,50.582,77.876,50.289,77.585z"/>
  <path d="M67.806,174.682c-0.375,0-0.749-0.14-1.04-0.419c-0.597-0.575-0.615-1.524-0.041-2.121l18.336-19.053V63.3 c0-0.398,0.158-0.779,0.439-1.061l39.717-39.717c0.586-0.586,1.535-0.586,2.121,0c0.586,0.585,0.586,1.536,0,2.121L88.062,63.921 v89.772c0,0.388-0.15,0.761-0.419,1.04l-18.756,19.488C68.592,174.527,68.199,174.682,67.806,174.682z"/>
  <path d="M69.606,187.284c-0.375,0-0.749-0.14-1.04-0.419c-0.597-0.575-0.615-1.524-0.041-2.121l13.974-14.52 c0.575-0.596,1.524-0.614,2.121-0.041c0.597,0.575,0.615,1.524,0.041,2.121l-13.975,14.52C70.392,187.13,70,187.284,69.606,187.284 z"/>
  <path d="M72.607,199.286c-0.375,0-0.749-0.14-1.04-0.419c-0.597-0.575-0.615-1.524-0.041-2.121l8.904-9.252 c0.575-0.596,1.524-0.614,2.121-0.041c0.597,0.575,0.615,1.524,0.041,2.121l-8.905,9.252C73.393,199.132,73,199.286,72.607,199.286 z"/>
  <path d="M145.426,123.713c-0.384,0-0.769-0.146-1.062-0.439L85.5,64.36c-0.585-0.586-0.585-1.536,0.001-2.121 c0.586-0.585,1.536-0.586,2.122,0.001l58.864,58.913c0.585,0.586,0.585,1.536-0.001,2.122 C146.193,123.566,145.81,123.713,145.426,123.713z"/>
  <path d="M98.716,75.458l31.45-31.287c0.585-0.583,1.536-0.582,2.121,0.005c0.584,0.587,0.582,1.537-0.006,2.122l-31.45,31.287 C100.539,77.876,98.128,76.043,98.716,75.458z"/>
</svg>
