<!--
  SVG Music Logos
  Pentagram - Day of Reckoning v1.0.0
  https://github.com/tiagoporto/svg-music-logos
  Copyright (c) 2016 Tiago Porto (http://tiagoporto.com)
-->
<svg xmlns="http://www.w3.org/2000/svg" version="1.1" viewBox="0 0 600 304">
  <polygon points="429.1 58.6 404.4 29.9 370.4 58.4 370.4 169.2 399.5 147.3 399.5 64.2 409.8 77.3 429.1 58.6"/>
  <path d="M38.1,9.7L9.2,31.8v264.2l28.9-21.9v-108.3l3.7,6.4,24.1-23.4V37.8l-27.8-28.1ZM38.1,131.5V43.3l3.7,2.5v83.5l-3.7,2.1Z"/>
  <polygon points="165.3 27 133.9 52.4 133.9 153.1 162.8 153.1 162.8 62.9 167.9 66.7 167.9 232.8 196.8 210.9 196.8 57.1 165.3 27"/>
  <polygon points="260.7 29.4 231.2 29.4 231.2 8 202.3 31.6 202.3 153.1 231.2 153.1 231.2 56 260.7 29.4"/>
  <path d="M270.6,31.8l-31.6,27.8v111.3l33-30v12.3h27V60.6l-28.4-28.9ZM267.3,118.8v-55.4l4.7,8v40.4l-4.7,6.9Z"/>
  <path d="M465.5,31.8l-31.6,27.8v111.3l33-30v12.3h27V60.6l-28.4-28.9ZM462.2,118.8v-55.4l4.7,8v40.4l-4.7,6.9Z"/>
  <path d="M73.3,58v111.7s55.4-45.3,55.4-45.3v-23.6l-28.5,23.6v-19.5l28.5-22.5v-25.5s-24.8-25.2-24.8-25.2l-30.7,26.2ZM100.3,71.9v-8.9s6.9,5.8,6.9,5.8l-6.9,3.1Z"/>
  <path d="M337,31.8l-30.9,27.8v111.3l31.9-29.7v73.7l26.7,22.1v-83.8h0V60.6l-27.8-28.9ZM337.8,111.8l-4.7,6.9v-55.4l4.7,8v40.4Z"/>
  <polygon points="564.9 29.8 545.8 48.9 529.4 28.1 498.8 52.4 498.8 156.1 527.7 178 527.7 65.2 530.9 65.2 530.9 153.1 558.4 153.1 558.4 65.2 561.9 65.2 561.9 274.1 590.8 296 590.8 62.9 564.9 29.8"/>
</svg>
