<!--
  SVG Music Logos
  Damageplan - New Found Power v1.0.0
  https://github.com/tiagoporto/svg-music-logos
  Copyright (c) 2016 Tiago Porto (http://tiagoporto.com)
-->
<svg xmlns="http://www.w3.org/2000/svg" viewBox="0 0 200 39.5">
  <polygon points="2 2.642 8.158 2.642 8.158 36.555 2 36.555 2 2.642"/>
  <path d="M41.803 2.642h6.946l7.783 20.696-1.852 7.166-1.606.062-.99-3.027.804-2.102-1.42-.99-3.09-8.154-.37-.062-6.116-11.18.042-.032-.13-.152V2.642zm6.315 15.528v15.816h-.596v2.568h-5.72V7.218L48.12 18.17z"/>
  <polygon points="58.313 2.642 58.879 2.642 63.975 2.642 63.975 36.555 58.313 36.555 58.313 16.76 56.964 21.423 54.122 14.751 57.211 2.642 58.313 2.642"/>
  <path d="M9.484 2.58c2.31.114 4.516.452 5.634 1.187 1.65 1.084 2.796 2.69 3.42 4.48.583 1.668.52 3.335.532 5.08.03 4.25.03 8.516 0 12.765-.013 1.746.05 3.413-.532 5.082-.624 1.788-1.77 3.395-3.42 4.48-1.118.734-3.323 1.07-5.634 1.187V31.72c.373-.004.746-.02 1.118-.05 2.16-.172 2.36-1.623 2.435-3.547.214-5.507.215-11.3 0-16.822-.075-1.924-.274-3.375-2.435-3.548-.373-.03-.746-.045-1.118-.05V2.58z"/>
  <polygon points="65.583 36.696 71.503 36.696 72.801 28.89 76.747 28.89 76.113 24.005 73.612 24.005 74.999 15.659 74.405 10.576 72.34 2.68 71.236 2.68 65.583 36.696"/>
  <polygon points="157.871 36.696 163.791 36.696 165.089 28.89 169.035 28.89 168.401 24.005 165.9 24.005 167.287 15.659 166.692 10.576 164.628 2.68 163.524 2.68 157.871 36.696"/>
  <polygon points="19.915 36.696 25.835 36.696 27.132 28.89 31.079 28.89 30.445 24.005 27.944 24.005 29.331 15.659 28.736 10.576 26.672 2.68 25.568 2.68 19.915 36.696"/>
  <path d="M85.718 36.696h-6.555l-3.61-26.493-.603-.556-1.645-6.967h4.968c.135 1.24.677 1.96 1.81 1.917l5.635 32.1z"/>
  <path d="M178.006 36.696h-6.555l-3.61-26.493-.603-.556-1.644-6.967h4.968c.136 1.24.677 1.96 1.812 1.917l5.634 32.1z"/>
  <path d="M40.05 36.696h-6.556l-3.61-26.493-.603-.556-1.643-6.967h4.967c.136 1.24.677 1.96 1.81 1.917l5.635 32.1z"/>
  <path d="M96.75 32.178l.184 5.19c2.948-.175 4.885-.914 6.117-2.374 1.91-2.262 1.858-5.53 1.84-8.328l-.048-7.77c-3.15.06-6.302.123-9.452.184l1.05 4.263c.638.02 1.277.04 1.915.062-.006 3.81.652 8.288-1.606 8.773z"/>
  <path d="M95.725 37.268l.16-4.818c-2.043-.062-2.007-1.356-2.02-2.928L93.8 20.61l.066-10.438c.01-1.634-.157-3.125 2.02-3.19l-.16-4.82c-3.654-.266-5.846 1.27-7.124 3.434-1.204 2.04-1.233 3.743-1.252 6.01l-.07 8.317h-.014l.007.683-.007.805h.015l.058 5.7c.027 2.653-.107 4.85 1.635 7.086 1.317 1.69 3.43 2.813 6.752 3.072z"/>
  <path d="M96.528 7.155l.24-4.98c2.343-.24 4.43.537 6.345 2.01 2.267 3.05 1.963 6.36 2.007 9.635l-6.344-.4c.19-5.314-.935-6.112-2.248-6.265z"/>
  <polygon points="108.296 2.726 115.231 2.726 115.231 36.601 108.93 36.601 108.366 19.006 108.296 2.726"/>
  <polygon points="116.522 2.658 123.107 2.658 123.107 9.082 116.522 9.082 116.522 2.658"/>
  <polygon points="116.442 16.871 121.124 16.871 120.807 22.894 116.442 22.894 116.442 16.871"/>
  <polygon points="116.522 30.603 123.428 30.603 123.428 36.705 116.522 36.705 116.522 30.603"/>
  <path d="M153.244 30.12h3.742c.72 0 .936.868.936 1.59 0 .788-.243.295-.243.893v4.103h-6.625V31.18c0-.945 1.278-.484 2.19-1.06z"/>
  <polygon points="125.917 2.498 131.779 2.498 131.779 36.705 125.917 36.705 125.917 2.498"/>
  <polygon points="143.677 2.498 149.74 2.498 149.74 36.705 143.677 36.705 143.677 2.498"/>
  <polygon points="179.831 5.352 185.384 19.752 185.894 19.791 185.894 36.705 179.831 36.705 179.831 5.352"/>
  <polygon points="191.883 2.498 197.945 2.498 197.945 28.215 192.11 18.017 191.883 2.498"/>
  <path d="M132.823 2.578c.027 1.392.053 2.94.08 4.333 1.31.098 2.88.123 2.41 4.903.133.4.114.803.247 1.204.248 2.883.253 5.403-2.657 5.38v4.256c.32.187.616.107.937.295.053-.32.133-.375.187-.696.89.196 1.97.423 3.134.326 1.036-.085 1.74-.715 2.435-1.47 2.17-2.356 1.818-6.738 1.838-9.696.107-2.248.2-4.34-.977-6.075-1.946-2.295-4.733-3.114-7.633-2.76z"/>
  <path d="M197.866 36.786l-4.416-.067c-3.066-7.413-6.417-14.682-8.967-22.35l-3.28-8.432.202-1.004c-.982-.83-1.486-1.907.334-2.342l4.884-.067c1.257.286 1.184 3.243 2.505 7.974 1.003 3.594 1.244 4.528 2.223 8.13 1.502 3.836 4.303 7.63 6.647 11.465l-.134 6.69z"/>
</svg>
