<svg xmlns="http://www.w3.org/2000/svg" viewBox="0 0 780 150">
  <path d="M731.1 79.6c.6 1.6 1.2 2.7 2.2 2l10.5-8.1c3.6-1.8 6.9-3.2 8.6-1.8 1.5.8.8 5.3-.2 10.4-.1.7.4.7 1.5 0 4.7-3.4 9.3-6.8 14-10.1 6-3.2 6.8-1.1 6.2 2.5-.6 5.4-.8 11.1-.1 17.4.1 1.9 1 3.1 1.1 4.8-1.4 1.7-4.4 3.5-7.9 5.4-2.4.8-2.8-1.2-1.8-5.3l.7-11.9c.1-5.1-1.6-6.8-5.8-3.5-1.7 1.4-3.4 2.7-5 4.1-2.1 1.9-2.7 2.3-2.9 5-.1 1.3-.2 2.6-.3 4-.1 1.7.4 3.9-1 5-1 .8-2.6 1.5-3.6 2.2-3.5 2.2-3.9-.1-3.3-3.8.3-2 .5-3.7.6-5.8 0-3 .1-6 .1-9 0-3.7-1.4-4.7-4-3.1-2.9 1.6-5.6 3.7-8.2 5.9-.9.8-1.3 2.2-1.2 4.2 0 1.6.1 3.3.1 4.9.1 4-2.1 4.3-5.3 6.7-4.3 2.7-4-2.7-2.6-5.2.2-4 .3-8.1.5-12.1 0-2.2-.6-3.9-1.5-5.1-1.6-1.9-2.1-3.7-.3-5l7-3.7c1.8-.3 3 .3 2.8 3-.9 2.3-1 4.2-.9 6zM709.3 70.3c-4.8.1-9.2 1.8-13.2 4.9-3.9 3-6.6 6.5-7.9 10.3-2.2 5.7-.2 10.7 5.1 15.3 6.8 4.7 12.8 4.4 18.1-.1 5.1-5.1 7.6-10.5 7.4-16.4-1-9.8-3.7-14.4-9.5-14zm1.1 23.8c-1.6 3.3-3 5.6-6.8 5.6-4.3.1-7.7-3.2-8.3-8.7.2-7.4 2.1-12.7 6.3-15 2.9-1.6 4.2-1 6.8 2 1.5 1.7 2.3 4.8 3.3 9 .3 2.6-.2 4.9-1.3 7.1zM683.7 81.2c-3-8.4-11.9-18-17.9-27.1-6.9-8.9-9.6-16.6-3.1-21.4 1.5-.8-1.2-2.6-3.5-.9-4 3.7-6.7 8.3-6.6 14.8-.8 4 1.7 9.5 6.5 15 3 3.5 6.2 7.1 9.1 10.8-5.4.5-10.3 2.9-14.7 7.6-5.2 5.6-4 13.5 1.7 19.1 8.2 6.8 15.6 7 22.2.4 5.7-6.4 8.8-12.6 6.3-18.3zm-5 9.2c-.2 6.2-4.7 7-11.2 5.3-6.8-2.6-9.8-7.6-8.7-12.9 1.2-3.8 3.6-6.4 8.7-6.6 6.4 0 12.2 8.3 11.2 14.2zM645.3 73.7c-2.5-3.3-6.8-4.3-11.6-2.4-4.7 1.3-13.7 6.5-15.6 11.5-.4 1-.6 2.1-.6 3.3-.1 4.5 1.5 7.6 4 11.1 1.3 1.8 2.7 3.6 4.3 5.4 3.2 3.7 8 3.1 14.2-1.7 3.3-3 6-6.9 7.2-12.7 1.4-5.5 1-10.5-1.9-14.5zm-4.6 16.1c-.5 3.8-1.9 7.4-5.4 9.3-2.5 1.4-5.1.9-7.6-3.1-4.2-6.4-4.7-12.4 1.3-17.5 3.4-3.5 5.8-2.8 8-1 3.1 3.6 3.9 7.8 3.7 12.3zM608.9 49.1c-9.5-6.6-19.1-7-28.6-5.8 10.1-9.1 20.1-18.2 30.2-27.3 2.3-2.1.8-4.6-.8-3.2-4.5 4-9.7 2.7-14.4-.5-5.1-3.4-8.7-7.2-15.2-8.6-3.6-.8-7-.5-9.9 1.4L554 17.9l-.4.2c-3.5-4.4-7.7-7.8-14.6-8.3-7.8-.6-15.3 3.4-21.2 11.2-3.6 4.4-6.1 9.6-7.8 15.4-4.1 13.8-3.5 26 .1 39.8 1.5 5.6 3.2 10.4 5.2 14.4-8.8 2.4-16.2 4.7-16.7 12.2 5.2-2.7 9.8-5.6 19.9-6.5 1.9 3 4.1 5.9 6.6 8.5 1.7 1.9 3 1.3 2.5.6-2.2-3-4.2-6.1-6-9.3 6.3-.3 14.5.1 25.7 1.6 13.9 1.9 27.4 4.4 41.6 3.4 5.4-.4 14.8-1.8 20-8.7 11.5-14.9 10.9-35.5 0-43.3zm-51.2-28.5l10.6-8c4.2-2.2 7.6-1 10.5 1.7l13.5 10.9c.5.7.3 1.3-.4 1.8l-18.6 15.5c-2.9 1.9-6.1 3.6-9.8 5.3-1.5.7-2.3.2-2.1-2 .4-8.8-1-16.6-4.2-23.3-.5-1.3-.6-1.1.5-1.9zm-39.4 69.3c-1.1-2.4-2.1-4.8-3-7.3C510 68 508.7 53 513.2 38c2.7-8.9 7.1-14.7 13.1-17.2 10.1-4.7 15.9-1.7 19.3 6 8.8 19.2 6.7 36-7.6 52.9-5.4 5.5-12.6 8.2-19.7 10.2zm88.2-2.3c-2.1 3.5-2.9 4.5-6.9 5.4-8.4 2-18.7 1.6-30.1-.2-11.6-1.8-22.8-3.2-33.7-4.3-.6 0-2.1-.2-.4-1.3 7.7-4.7 13.6-10.4 18-16.9 2.3-3.4 3.6-6.8 5.2-10.3 2.8-6 10.2-7.3 19.4-7.4 15.7-.3 25 3.9 30 10.9 4.2 5.9 4 14.9-1.5 24.1zM484.2 45c.5-10.4-11.1-12.4-17.1-6.2-2.2 2.3-4.1 5-5.6 8.3-2.9 6.8-4.3 15.8-5.1 25.6-1.9.3-3.8.5-5.6.8-2.3.3-2.7 3-1 4.2 1.5.3 3.3.1 5.1.5 1.7.3 1.7-.3 1.8 1.5l1 64.7c-.1 3.7 2.3 5 3 1.4 4.3-21.3 5.7-43.7 6-66.4 0-1.2-.1-1.1 1-1.1h9.3c1.7-.3 1.8-4.8-1-5.1-3.3 0-6.5-.1-9.8-.1 0-1.3.1-2.2.1-3.4 10.8-7.1 17.3-16 17.9-24.7zm-18.4 20.3c-.1-5.7.2-11.6 1.6-18.3 2.2-7.7 6.1-8.5 7.8-4.9.7 2.6.8 5.2.5 7.5-.9 7.5-5.6 13.1-9.9 15.7zM358.7 32.2c-11.2 22.7-4.8 36.3 5.5 46.7 17.6 16.7 44.6 20.5 68.1 5.1 9-6.7 14.3-17.8 14.6-29.1.4-12.4-4.9-22.2-14.4-29.7-8.2-6.6-18.3-10.3-29.4-12.2-20.2-3.9-36.5 8-34.1 18.8.8 3.6 5.3 5.8 11.2 10.5 6.7 5.3 10.1 14.7-2.8 25.5 3.9-7.1 4.8-12.7-.6-15.9-13.1-6.5-16.5-15.1-13.4-25.2 4.9-13.1 22.5-22.5 35.8-23.1 28.2-2 45.6 13 51.3 33.9 4.2 22.7-2.4 37.8-13.8 49.4-14.5 14.5-31 19.7-49 17-22.1-2.9-35.1-15.8-41.1-36.3-2.3-15.7.7-28 10-36.1 2.4-2 2.7-.6 2.1.7zM294.7 75.6c-2.6 1.3-.9 3.4 1.4 5.5-.1 5.1-.1 10.1-.2 15.2-1.6 6.2-.6 8.3 3 6.4 3.3-1.7 6.5-3.3 6-5.3-1-2.5-1.2-5.8-1.1-9.4 3.5-2.9 6.9-5.5 10.4-7 3.4-1.8 3.6 1.7 3.3 5.8-.5 4.2-.9 8.4-1.4 12.6-.6 3.3.6 4.5 3.4 3.5 4-1.7 7.5-3.5 7.5-5.2-1.5-3-3-6.2-1.9-12.6l.7-9.2c.1-4.2-1.7-6.1-7.5-3l-14.7 10.9c.2-3.5.4-7.1.6-10.6-.8-2.5-2-3.2-3.4-2-2.2 1.3-4.3 2.8-6.1 4.4zM290.4 78.5c-2.6.2-4.3-.9-5-3.4-3.3-1.9-5-3.4-8.9-2.7-3.6.6-6.6 2.7-9.4 5.1-2.1 2-3.4 4-4.5 6.2-.9 3.4-.8 6.4 0 9.3 1.7 6 6.1 11.4 12.9 11 4.2-.2 8.4-2.7 13-6.6 2.2-2 1.4-4.5-1-2.9-6.6 4.9-12.3 4.8-16.5-2.6 7.1-3.8 14.2-7.7 21.3-11.5.2-1-.8-1.9-1.9-1.9zm-13 5.8c-2.5 1.2-5.3 2.8-7.8 4-1-1.7-1.1-3.8-.9-5.4.4-3 2.5-4.8 5.5-5 1.1-.1 2.3.1 3.6.6 2.5 1.3 2.6 4.4-.4 5.8zM233.3 80.9c1 1 1.7 2.5 2.1 4.6l-.6 12.4c-.5.9-.1 2-.7 2.7-1 1.1-1.7 2.8.3 3.6 1.5.6 3.2.1 4.8-.1 4.1-.5 8.1-1.1 12.2-1.6 1.5-1.1.4-3.5-.5-3.5-4.7.9-8.1.3-8.6-3.5-1-6.9 1.7-11.8 8-14.5 3-.7 6.2 1.8 4 5.6l-3.8 2.9c-.7.9-.4 2.5.2 3.2 4-.7 7.2-3.5 9.5-8.4 1-2.4 1-5.1-.5-8.4-2.5-4.4-5.6-3.9-9.1-1.1l-8.1 7.3.2-7.5c-.1-2-2.3-1.9-6.5.2-2.8 1.3-4.3 2.6-4.4 3.8-.2.7.3 1.5 1.5 2.3zM163 55.7c2.5 0 4.6 2 4.6 4.5s-2.1 4.5-4.6 4.5c-2.5 0-4.6-2-4.6-4.5.1-2.5 2.1-4.5 4.6-4.5zM165.6 72.1c-3 1.5-5.8 3.7-8.7 5.2-1.9.7-1.7 2.4.7 5.1.6 1.3 1 3.3 1.1 5.8-.2 4.3-.4 8.6-.5 12.9-.6 2.9.1 4.2 2.1 3.9 2.5-1.6 5.5-3.9 8.2-5.9.6-.5.7-1.7-.2-1.6-1.4.1-2-1.3-2.2-3.4v-17c.4-1.6.3-3.8-.5-5zM149.6 56c4.6-13.3-2.8-17.6-9.2-18-6.1 1.7-10.6 5.6-13.8 11.1-4.9 8.4-5.3 16.5-5.6 25.8l-.7 22.9c-.8 7.1-.4 12 7.8 2.1 7.9-8.8 13.3-11.2 13.5.3.1 9.5-3.5 16-7.6 22.1-6.5 6.6-12.6 6.6-18.6 5.9-1.1-.3-1.9 1.1-.5 1.5 3 .5 6.5 1.6 9.8 1 7.6-1.5 17.3-7.6 21.4-17 3.4-13.2 3.7-23.5-.5-29.4-1.7-1.3-3-1.2-4.3-.8-4.2 3.9-8.5 7.9-12.7 11.8l-.6-14.4c8-4.7 16.8-15 21.6-24.9zm-21.7 21c-1.1-10.9-.3-20 2.4-26.2 3.4-8.5 10.7-10.4 13.4-4.1 3.9 9-2.8 20.1-15.8 30.3zM26.4 15.4C5.1 32.7 2.1 51.8 7.4 71.7c9.9 23.8 32.5 34 59 34 22.1-.2 37.4-7.4 44.2-17.1 1.9-3.8 1.9-12.9-.2-14.3-1-.6-1.8-.1-2.6 1.4C104 82.9 96.4 88.5 85 92.6c-26 4.3-42.9-1.9-57.4-10.9C14.9 71.3 11.2 56.5 15 37.9 23 13.6 46.4 7.2 67.6 8.6 84.7 9.9 102.8 26 96.3 42.2c-4.5 10.9-23.9 17.4-40.2 10-13-8.1-12.1-23.7 0-27.8-5.9-4.4-15.3-1.3-18.6 7.8-4.1 12.5 7.4 24.7 27.9 26.4 19.8 3 37.9-7.6 40.7-21.9 1.7-15.6-8.6-28.4-20.9-31.9-18.4-5.6-41-3.2-58.8 10.6zM224.7 75.1c-6.5-9.2-13-18.5-19.6-27.7-3.6-7.1-1.5-11.1 2.7-14.2 1-.7-.3-2.8-3.7-.3-2 1.3-3.5 2.7-4.7 4.2-.3-5.7-3.7-8.6-7.3-8.3-8.7-.4-14.3 12-15.3 24.8l-.5 43.4c-.6 1.2-.1 2.7-.9 3.6-2.2 2.2-1.7 3.7 1.1 4.6 5-1.5 10.1-2.2 15.1-2.7 1.1-.7.8-3.2-.6-3.7-2.8.1-5.2 0-7.3-.3l-.3-32.3c6.1-4.2 10.6-10.6 13.5-17.7.6 2.9 2 6.1 4.3 9.4l13.2 15.9c-12.3-1.6-20.3 7.8-18.6 18 2.4 10.1 14.5 17.7 25.3 10 9.2-8.8 10.4-17.8 3.6-26.7zm-31-34.1c-.2 9.4-4.4 15.6-10.3 20.6.2-6.6.2-13.2 1.9-19.3.7-2.6 2.6-9.8 5.6-9.3 3.4.5 2.8 5.6 2.8 8zm29.9 53.2c-3.2 5.1-11.6 5.3-18.1-1.9-7.2-8.1-.3-18.2 12.7-13.2 4.7 3.6 8.1 10.4 5.4 15.1z"/>
</svg>