<!--
  SVG Music Logos
  Tony Iommi - Iommi v1.0.0
  https://github.com/tiagoporto/svg-music-logos
  Copyright (c) 2016-2019 Tiago Porto (http://tiagoporto.com)
-->
<svg xmlns="http://www.w3.org/2000/svg" viewBox="0 0 200 44" class="iommi">
  <path d="M158.976 8.751L158.976 35.351 176.052 35.351 172.121 33.188 172.121 10.666 176.052 8.751z"/>
  <path d="M118.964 35.351L131.809 35.351 131.809 26.024 136.485 30.936 141.238 26.024 141.238 35.351 154.005 35.351 154.005 8.751 142.997 8.751 136.485 15.667 129.856 8.751 118.964 8.751z"/>
  <path d="M59.614,6.552c-8.532,0-15.448,6.916-15.448,15.448c0,8.532,6.916,15.448,15.448,15.448c8.531,0,15.448-6.916,15.448-15.448	C75.062,13.468,68.146,6.552,59.614,6.552z M59.614,26.611c-2.546,0-4.611-2.064-4.611-4.611c0-2.546,2.064-4.611,4.611-4.611	c2.546,0,4.611,2.064,4.611,4.611C64.225,24.546,62.161,26.611,59.614,26.611z"/>
  <path d="M78.624 35.351L91.469 35.351 91.469 26.024 96.145 30.936 100.898 26.024 100.898 35.351 113.665 35.351 113.665 8.751 102.657 8.751 96.145 15.667 89.516 8.751 78.624 8.751z"/>
  <path d="M23.668 8.751L40.569 8.751 40.569 35.351 23.721 35.351 28.1 33.011 28.1 10.515z"/>
  <path d="M177.577,14.272L199,3.076h-57.812l-4.703,4.717l-4.553-4.596h-30.858L96.145,7.9l-4.746-4.824H73.053v2.813	c-3.64-3.04-8.325-4.87-13.439-4.87c-5.111,0-9.795,1.829-13.435,4.866V3.198H1l21.814,10.953v15.334L1,40.924h45.18v-2.81	c3.64,3.038,8.323,4.866,13.435,4.866c5.113,0,9.799-1.83,13.439-4.87v2.813H199l-21.423-10.71V14.272z M187.153,38.189h-48.732	v-5.497l-1.937,1.915l-1.909-1.915v5.497H97.957v-5.497l-1.937,1.915l-1.909-1.915v5.497h-18.75v-6.897	c-3.183,5.382-9.042,8.993-15.747,8.993c-6.701,0-12.556-3.606-15.74-8.981v6.885H12.99l12.745-7.268V12.017L13.616,5.883h30.259	v6.813c3.184-5.375,9.04-8.981,15.74-8.981c6.705,0,12.564,3.611,15.747,8.993v-6.53h15.427l5.441,5.286l5.2-5.411h29.438	l5.617,5.465l5.661-5.465h45.213l-12.406,6.49v19.33L187.153,38.189z"/>
  <path d="M23.668 8.751L40.569 8.751 40.569 35.351 23.721 35.351 28.1 33.011 28.1 10.515z"/>
</svg>
