<!--
  SVG Music Logos
  Aerosmith v1.0.0
  https://github.com/tiagoporto/svg-music-logos
  Copyright (c) 2016 Tiago Porto (http://tiagoporto.com)
-->
<svg xmlns="http://www.w3.org/2000/svg" viewBox="0 0 200 75" class="aerosmith">
  <path d="M61.628,54.785L48.507,70.581c0,0,9.809-3.567,17.961-9.809    c0.169-1.101,0.43-1.634,0.765-2.038c0.928-1.12,2.802-2.802,2.802-2.802l-0.892-0.382c0,0-9.808,9.299-13.758,9.554l7.771-8.917    C63.156,56.186,62.01,55.677,61.628,54.785L61.628,54.785z"/>
  <path d="M60.099,73.766c0,0,4.968-1.402,12.356-8.153  c-0.873,0.068-2.143,0.205-2.802-0.127c-0.724,0.611-6.114,4.713-6.114,4.713s3.167-4.984,3.694-5.86   c-0.409-0.478-0.682-1.027-0.685-1.828L60.099,73.766L60.099,73.766z"/>
  <path d="M77.551,62.428l-1.784,1.274l-3.694,5.223c0,0,4.458-1.274,9.554-7.006 c0,0,0.382,2.93-2.42,6.369c0,0,4.204-1.02,6.751-5.86l-3.312-2.929c0,0-4.968,5.35-7.134,6.369    C75.513,65.868,77.424,63.575,77.551,62.428L77.551,62.428z"/>
  <path d="M83.665,61.537l-1.274,3.057c0,0,2.293-1.655,2.42-2.292L83.665,61.537 L83.665,61.537z"/>
  <path d="M113.855,62.683c0,0,2.802,5.095,5.732,5.605c0,0-2.547-3.949-2.42-6.624   c0,0,5.605,7.006,9.682,7.643c0,0-4.331-6.241-4.713-8.662l-1.911-0.637c0,0,1.783,4.203,2.675,5.223   c-1.73-1.338-3.972-3.121-5.375-5.356l-1.504,1.152c0,0-0.509,1.019,0.382,3.44l-1.656-2.42L113.855,62.683L113.855,62.683z"/>
  <path d="M123.537,61.027l12.993,10.7l-6.115-12.102c0,0,16.433,10.828,19.617,11.21 l-11.337-14.776c0,0-1.401,0.127-1.528,1.019l7.261,8.917l-10.318-6.752c0,0-2.93,0-3.949-0.637l-1.911,1.784l2.676,4.331   l-4.204-3.821C126.721,60.9,124.938,61.409,123.537,61.027L123.537,61.027z"/>
  <path d="M82.646,59.499c0,0,5.234,7.287,16.457,7.287  c10.613,0.244,18.421-7.198,18.421-7.198s-4.636-2.074-8.662,0c-4.026,2.074-9.149,5.49-11.833,4.636   c-3.05-0.61-2.318-3.538-2.318-3.538s-6.831-2.196-6.831-3.782L82.646,59.499L82.646,59.499z"/>
  <path d="M136.631,53.628c0,0-5.807,2.419-3.097-3.582c0,0,1.549-2.418,2.904-2.999  c0,0-0.678-3.001-1.839-3.001c0,0-0.484,0.291-0.29,0.968c0,0-0.29,3.871-2.419,3.484c-1.355-1.064,0.483-4.064,1.548-4.742 c0,0,0.097-2.419-1.355-1.936c0,0,0.581,2.807-2.419,4.161c0,0-0.387,12.097-7.742,12.581c0,0-3.58-0.291-5.032-0.774   c-1.452-0.484-10.355-0.581-16.452,3.387c0,0-3.968,1.258-3-0.871c0-0.871,1.065-0.774,1.065-0.774s1.257-0.29,1.064-1.161  c-0.193-0.871-1.355-2.129-3.967-2.903c0,0,2.516-0.774,2.806-1.742c0,0,0.29,1.645,0.872,1.645c0,0-0.194,0.967,0.097,1.064    c0.29,0.097,1.549-0.677,2.032-1.936c0,0,3.968,1.258,4.258-2.903c0.387-2.613-2.419-4.936-2.419-4.936s-2.033-4.162,0.774-4.549    c2.806-0.387,0.581,2.032,0.581,2.032s-0.775,1.258,0.774,1.839c1.065-0.677,2.806-1.645,2.806-1.645s17.517-10.258,21.871-4.839    c0,0,2.322,3.581-2.613,3.194c0,0-1.935-3.097-3.096-3c-2.517-1.161-17.323,4.355-18.678,7.935c0,0,0.291,0.291,0.678,0.097 c0.387-0.193,0.967,0.582,0.483,2.613c-0.483,2.032-1.064,6.097-4.838,4.839c0,0-0.968,2.71,2.226,2.806    c3.193,0.097,4.258-9.774,4.258-9.774l0.484-0.291l0.774,8.419l0.387-0.096c0,0,3.097-6.097,3.581-5.71 c0.483,0.387,1.258,3-0.968,5.129c0,0-0.194,0.677,0.677,0.677c0.871,0,1.936,0,2.226-1.548c0.291-1.549-0.483-5.71-0.097-6.484 c0.387-0.774,1.162-1.645,0.968-2.129c-0.193-0.484-1.258-0.387-1.451-1.161c0,0-0.775-0.097-0.775,0.484   c0,0.581-1.839,5.516-3.193,4.839c-1.355-0.678,0.194-5.323,1.742-6.097c1.548-0.774,8.13-4.355,8.904-2.806    c0.774,1.548,2.032,9.097-1.065,14.71c0,0-0.291,0.774,0.87,0.774c1.162,0,2.614-0.29,2.711-1.742  c0.097-1.451-0.387-10.548,2.419-10.355c0,0,2.902,2.032,4.257-0.774c1.355-2.806,0.58-5.806-3.194-6.774   c-3.774-0.968-13.355,2.323-20.807,6.677c0,0-0.677-0.193-0.387-0.871c0.29-0.677,0.871-3.097-2.323-2.516c0,0-1.452,0-2.032,1.355  c0,0-0.484-0.193-0.484-1.064c0,0-0.484-1.742-4.065,1.161c-2.128,2.419-1.839,0.193-1.839,0.193s-2.612-0.871-4.935,4.936  c0,0-1.839,5.323,1.161,6.968c3.581,1.161,7.258-2.807,7.452-7.743c0,0-0.097-3.291-2.42-1.839c0,0-0.774,0.678-0.096,1.356 c0.387,0.193,0.677-0.194,0.677-0.194s1.065,4.839-3.096,6.774c0,0-2.71,0.775-2.129-3.096c0.484-4.452,2.322-5.71,3-5.71   c0,0,0,1.161,0.58,0.871c0.582-0.29,3.388-3.774,4.452-2.71c0,0,1.161-0.193,0.774,0.968c0,0-1.645,1.935-0.193,3.871   c1.936,1.839,4.742,5.323,1.646,6.484c0,0-1.258,0.29-1.258-1.065c0-1.355-0.194-1.742-0.581-1.645c0,0-0.096-1.065,0.581-1.162 c0.677-0.097,0-1.839-0.872-1.936c0,0-0.677,7.355-7.065,7.646c-6.386,0.29-5.709-4.936-5.709-4.936s1.839,0,2.226-1.161    c0.386-1.161,1.063-4.742-4.839-7.064c0,0-13.936-3.29-16.548,5.42c0,0-3.678,2.612-4.742,0.581c-0.097-2.806,2.322-4.451,3-3.871   c0,0,0.677,1.258,1.838,0.484c1.162-0.774,9.678-6.774,12.871-4.742c0,0,1.548,2.613,3.677,0.871   c0.387-5.71-11.226-1.839-15.484,2.322c0,0-0.868,0.484-0.869,0c0,0-0.968-0.193-0.097-1.355c0,0-4.161-1.258-6.678,3.387   c-1.645,4.645,1.355,6.581,3.194,5.807c1.258-0.484,2.322-1.936,2.322-1.936s0.774,0,0.387,0.774   c-0.387,0.774-2.516,5.226-3.871,2.807c0,0-1.451,0.193-1.355,2.032c0.097,1.839,3.677,4.259,7.065-5.129   c0,0,1.839,0.194,0.291,3.871c0,0-1.355,1.839,0.096,2.129c1.257,0.251,1.799,0.105,1.922,0.061    c-1.227,0.433-4.454,2.383-5.011,5.674c-0.497,2.937,4.091,4.945,6.961,3.168c2.032-1.258,14.613-11.516,20.807-7.935   c0,0,2.806,1.065,1.355,3c0,0-2.419,2.516,0.193,3.871c2.613,1.355,12-4.161,12-4.161s4.162-2.613,13.162,0.581 c0,0,6.29,1.646,7.742-1.258c0,0-0.29-8.71,2.226-8.517c2.516,0.194-0.194,3.484-0.194,3.484s-1.065,2.419,0.58,3.291   c1.645,0.871,3.387-1.065,3.387-1.065s1.161,0.097,0.097,1.258c-1.065,1.162-3.775,1.937-5.419,0.484c0,0,2.226,2.516,5.516,0.677   C138.47,55.37,137.986,53.145,136.631,53.628z M78.37,41.821c5.129,0.29,5.419,0.871,5.516,2.613   c0.097,1.742-1.121,11.869-4.734,11.164c-3.613-0.705-6.133-0.492-6.133-0.492s0.814-2.162,3.318-1.576 c2.231,0.522,3.038,0.452,3.581-0.387c1.065-1.645,0.968-2.71,2.42-2.613c0.097-0.774,0-1.162,0.387-1.549  c0.193-0.097,0.484-2.129-0.097-2.032c0,0-1.451,0.483-3.387,4.161c-1.936,2.419-3,0.484-3,0.484s-0.097-4.161,2.709-4.355  c0,0,0.096,1.162,1.065,0.775c0.967-0.388,0.29-2.71-1.162-2.033c-1.451,0.677-2.225,1.936-2.225,1.936s-0.193-3.967,3.194-4.355    c0,0,1.548-0.096,1.354,1.355c0,0,0,0.967,1.162,0.677c2.129-4.065-5.226-3.387-6.387-1.258c0,0-1.452,9.484-2.807,9    C71.79,52.854,73.242,41.531,78.37,41.821z M71.731,50.074c-0.186-1.108-0.48-1.833-1.296-2.349    c0.774-2.322,2.807-2.709,2.807-2.709C72.273,45.983,71.731,50.074,71.731,50.074z M79.6,58.768    c-5.655,3.622-8.92,4.005-8.963,0.954c-0.034-2.387,1.324-3.772,8.515-2.818c2.949,0.391,5.6-1.168,5.6-5.646   c0-2.267-0.201-3.813-0.092-4.985c0.179-1.915,0.623-2.812,2.419-1.839c2.322,1.258,1.936,3.871-0.097,3.775    c0,0-0.967,0.193-0.967-0.387c0,0-0.581-0.387-0.581,0.097c0,0.484-0.29,6,4.549,6.968C89.984,54.886,85.302,55.117,79.6,58.768z"/>
  <path d="M118.134,46.739c0,0-1.057-0.732-0.569-1.302  c0.488-0.569,3.253-1.463,3.416-1.87c0.163-0.407,0.732,1.138,0.244,1.788c-0.487,0.651-2.115,9.923-1.707,11.061   c0,0-2.033,0.569-3.09-0.894C116.426,55.522,119.679,50.642,118.134,46.739L118.134,46.739z"/>
  <path d="M135.752,3.547c-13.985-2.893-22.175,6.649-23.773,8.73    c-3.836-2.238-7.935-3.455-11.645-3.455c-4.321,0-9.175,0.953-13.604,3.569C83.154,7.908,74.772,0.36,60.843,4.265  C41.577,9.667,17.269,13.088,2.506,5.526c0,0,6.843,11.343,40.333,15.484c0,0-15.305,0.721-34.211-4.321    c0,0,11.343,9.183,33.31,10.803c0,0-21.066-1.26-21.426-0.36c-0.36,0.9,21.786,8.462,33.31,6.662c0,0-3.421,2.161-22.867,1.08   c0,0,11.344,8.463,31.329,6.482c0,0-13.323,3.241-18.005,2.701c0,0,4.681,1.98,12.784,2.7c0,0-11.703,14.945-10.803,21.427  c0,0,6.122-10.983,17.105-16.025l0.72-0.54l-1.981-0.9c0,0-7.022,3.781-11.703,9.003c0,0,7.022-12.244,9.363-13.144l1.441-0.18  l0.18-1.26c0,0-9.543-0.18-9.903-0.9c0,0,11.163,0.36,12.963-3.241c0,0,6.329-0.31,8.263-1.501c0.008,0.091,0.013,0.147,0.013,0.147 c1.861-1.595,5.051-2.127,5.051-2.127s0.614-12.335,8.744-19.148c1.923,2.754,7.43,12.294,0.616,23.349c0,0,3.24,1.981,3.6,3.601    c0,0,1.621-3.42,3.241-3.781c0,0,0.9-7.563,6.661-6.843c4.142,0.54,3.962,5.222,3.962,5.222s3.241-0.9,2.88,2.521l3.241-1.441   c0,0-6.273-13.504,1.643-22.506c8.532,6.681,9.274,18.227,9.274,18.227c0.798-0.532,4.918-0.664,4.918-0.664    c-0.07-1.64-0.281-3.221-0.606-4.742c4.195,1.681,15.567,2.305,15.567,2.305c6.121,3.781,19.446,2.701,19.446,2.701 c-12.244,6.121-29.708,2.341-29.708,2.341l1.26,2.161l1.44,0.36c1.981,2.521,10.443,3.241,10.443,3.241 c-1.801,0.72-8.102,0.18-8.102,0.18l0.9,1.8h2.521c6.121,6.482,8.642,13.685,8.642,13.685c-0.36-1.8-10.263-9.003-12.423-10.263 c-2.161-1.261-2.701,3.061-2.701,3.061c1.62,1.26,2.701,0,2.701,0c-0.9-0.54-0.36-1.261-0.36-1.261 c10.082,3.962,16.925,16.205,16.925,16.205c0.541-7.202-11.344-21.607-11.344-21.607c8.462-0.54,12.963-2.521,12.963-2.521  c-12.784-0.18-17.644-2.521-17.644-2.521c20.886,1.98,32.049-6.842,32.049-6.842c-19.086,2.521-24.127-0.72-24.127-0.72 c17.825,1.081,33.669-7.023,33.669-7.023c-2.521,0.541-21.426,0.36-21.426,0.36c25.027-1.62,32.41-10.803,32.41-10.803  c-13.864,5.761-34.21,4.501-34.21,4.501c21.606-0.72,37.991-12.064,39.611-13.324c1.621-1.261,1.8-2.521,1.8-2.521  C174.104,14.35,152.677,7.508,135.752,3.547z M81.373,12.189l0.793,0.745c-0.449-0.008-0.915-0.015-0.967-0.011l-6.027-2.526    l2.874-0.67C79.242,10.378,80.366,11.182,81.373,12.189z M75.588,8.633C73.921,8.99,65.59,10.591,57.68,8.766   c0,0-0.016-0.02-0.04-0.049C61.833,7.677,69.308,6.432,75.588,8.633z M54.365,9.669c0,0,0.06-0.021,0.154-0.053 c1.461,0.313,12.983,2.704,16.602,0.986l6.348,2.591c-9.459,0.631-33.558,1.9-42.73-0.822C34.74,12.369,49.684,12.009,54.365,9.669z M72.648,38.08c-3.308,0.739-19.521,3.9-34.311-1.405c0,0,14.945,1.62,18.726-3.061c0,0,7.614,0.528,16.169-1.921    C72.718,34.382,72.631,36.662,72.648,38.08z M73.662,29.764c-3.486,0.749-24.822,4.904-43.608-1.192c0,0,19.626,1.44,24.308-1.081   c0,0,16.295-0.672,20.812-2.179C74.517,26.837,74.027,28.338,73.662,29.764z M75.878,23.814c-5.569,0.684-39.188,4.387-56.987-3.524 c0,0,24.67,4.681,34.393,1.801c0,0,19.806-1.441,22.147-2.521l2.102,1.401C76.904,21.911,76.357,22.862,75.878,23.814z M78.242,19.96l-1.551-0.931h2.269C78.711,19.337,78.473,19.648,78.242,19.96z M80.056,17.772c-0.8,0.015-3.519,0.108-5.345,0.717 c-2.161,0.721-34.929,5.404-61.578-7.742c0,0,8.464,1.622,15.306,1.622c0,0,14.405,4.501,43.393,2.521l8.516,2.571  C80.249,17.564,80.152,17.668,80.056,17.772z M81.254,16.559l-5.462-2.029c0,0,5.812-0.531,7.792-0.264l0.163,0.198 C82.844,15.132,82.018,15.834,81.254,16.559z M158.979,11.83c0,0-20.526,3.241-37.091,0.72c0,0,7.923-1.621,8.283-2.701 c0,0,7.022,0.72,12.064-0.901C142.234,8.949,149.256,11.11,158.979,11.83z M137.373,8.049c0,0-7.562,0.9-11.523-0.179   C125.85,7.869,132.872,6.248,137.373,8.049z M121.348,9.129l3.961,0.18c0,0-1.261,1.441-7.382,2.161L121.348,9.129z M123.148,14.891 l-5.715,1.469c-0.849-0.8-1.736-1.539-2.648-2.221C117.027,13.32,123.148,14.891,123.148,14.891z M93.613,23.351    c0,0-2.076-4.853-3.827-7.162c0.354-0.184,0.717-0.36,1.093-0.524c0.344,1.917,1.749,4.552,3.816,5.346L93.613,23.351z M93.773,14.668c1.99-0.513,4.215-0.773,6.728-0.68c1.492,0.14,2.866,0.399,4.155,0.738c-1.019,2.306-2.39,4.538-5.442,4.539  C97.546,19.266,94.431,17.956,93.773,14.668z M101.468,29.052l0.43,2.472l-2.252-1.167l-2.253,1.167l0.431-2.472L96,27.301  l2.519-0.36l1.127-2.249l1.126,2.249l2.519,0.36L101.468,29.052z M105.497,23.711l-1.26-3.241c0,0,2.184-1.308,2.983-4.918  c0.606,0.239,1.18,0.505,1.736,0.785C107.828,18.036,106.132,21.644,105.497,23.711z M119.909,18.991l2.159,0.222l-1.535,0.558  C120.328,19.507,120.122,19.245,119.909,18.991z M171.583,27.855c-17.894,7.456-42.324,2.414-46.114,1.561  c-0.427-1.481-0.964-2.897-1.602-4.243C133.108,28.339,171.583,27.855,171.583,27.855z M183.107,18.852 c-26.501,11.702-57.75,4.659-60.467,4.012c-0.422-0.713-0.87-1.403-1.344-2.068l0.051,0.037l2.062-1.269    c8.103,3.061,28.728,1.809,28.728,1.809C158.079,24.614,183.107,18.852,183.107,18.852z M118.942,17.89 c-0.121-0.131-0.243-0.26-0.366-0.389c3.31-0.491,8.713-2.97,8.713-2.97c20.706,2.161,42.493-2.341,42.493-2.341    c7.562,0.719,18.546-3.241,18.546-3.241C168.177,24.23,124.709,18.704,118.942,17.89z"/>
</svg>
