<?xml version="1.0" encoding="utf-8"?>
<!-- Generator: Adobe Illustrator 19.0.0, SVG Export Plug-In . SVG Version: 6.00 Build 0)  -->
<svg version="1.1" id="Layer_1" xmlns="http://www.w3.org/2000/svg" xmlns:xlink="http://www.w3.org/1999/xlink" x="0px" y="0px"
	 width="170.985px" height="146.695px" viewBox="54.984 20.921 170.985 146.695"
	 style="enable-background:new 54.984 20.921 170.985 146.695;" xml:space="preserve">
<style type="text/css">
	.st0{enable-background:new    ;}
	.st1{fill:#FFFFFF;}
	.st2{fill:#5486F7;}
</style>
<g class="st0">
	<path class="st1" d="M89.678,154.387l-1.943-7.77v8.402c0,0.486-0.097,0.826-0.291,1.068c-0.194,0.243-0.486,0.34-0.826,0.34
		s-0.583-0.097-0.826-0.34c-0.194-0.243-0.291-0.583-0.291-1.068v-9.616c0-0.534,0.146-0.874,0.437-1.068s0.631-0.291,1.117-0.291
		h0.777c0.437,0,0.777,0.049,1.02,0.146c0.194,0.097,0.34,0.243,0.437,0.437c0.097,0.194,0.194,0.583,0.34,1.068l1.748,6.653
		l1.748-6.653c0.146-0.486,0.243-0.826,0.34-1.068c0.097-0.243,0.243-0.389,0.437-0.437c0.194-0.097,0.534-0.146,1.02-0.146H95.7
		c0.486,0,0.826,0.097,1.117,0.291s0.437,0.534,0.437,1.068v9.616c0,0.486-0.097,0.826-0.291,1.068
		c-0.194,0.243-0.486,0.34-0.826,0.34c-0.34,0-0.583-0.097-0.826-0.34c-0.194-0.243-0.291-0.583-0.291-1.068v-8.402l-1.943,7.77
		c-0.146,0.486-0.243,0.874-0.291,1.117c-0.097,0.243-0.243,0.437-0.437,0.631c-0.194,0.194-0.534,0.291-0.874,0.291
		c-0.291,0-0.534-0.049-0.728-0.194c-0.194-0.146-0.34-0.291-0.486-0.486c-0.097-0.194-0.194-0.389-0.243-0.631
		C89.824,154.872,89.776,154.629,89.678,154.387z"/>
	<path class="st1" d="M98.809,151.181v-5.828c0-0.486,0.097-0.874,0.34-1.117c0.243-0.243,0.534-0.389,0.874-0.389
		c0.389,0,0.68,0.146,0.923,0.389c0.243,0.243,0.34,0.631,0.34,1.117v5.973c0,0.68,0.097,1.263,0.243,1.7s0.437,0.826,0.826,1.068
		s0.923,0.389,1.603,0.389c0.971,0,1.651-0.243,2.04-0.777c0.389-0.534,0.583-1.311,0.583-2.331v-6.022
		c0-0.486,0.097-0.874,0.34-1.117c0.243-0.243,0.534-0.389,0.874-0.389c0.389,0,0.68,0.146,0.923,0.389
		c0.243,0.243,0.34,0.631,0.34,1.117v5.828c0,0.971-0.097,1.748-0.291,2.38c-0.194,0.631-0.534,1.214-1.068,1.7
		c-0.437,0.389-0.971,0.728-1.554,0.874c-0.583,0.194-1.263,0.291-2.04,0.291c-0.923,0-1.748-0.097-2.428-0.291
		c-0.68-0.194-1.214-0.534-1.651-0.923s-0.728-0.971-0.923-1.603C98.906,152.881,98.809,152.104,98.809,151.181z"/>
	<path class="st1" d="M119.934,152.541c0,0.728-0.194,1.408-0.583,1.991s-0.923,1.068-1.651,1.36
		c-0.728,0.34-1.603,0.486-2.574,0.486c-1.214,0-2.185-0.243-2.962-0.68c-0.534-0.34-1.02-0.777-1.36-1.311
		s-0.534-1.068-0.534-1.603c0-0.291,0.097-0.534,0.291-0.777c0.194-0.194,0.486-0.34,0.777-0.34c0.243,0,0.486,0.097,0.68,0.243
		c0.194,0.146,0.34,0.389,0.437,0.728c0.146,0.389,0.34,0.728,0.486,0.971s0.437,0.486,0.777,0.631
		c0.34,0.146,0.777,0.243,1.263,0.243c0.728,0,1.311-0.146,1.797-0.534c0.437-0.34,0.68-0.777,0.68-1.263
		c0-0.389-0.146-0.728-0.389-0.971c-0.243-0.243-0.583-0.437-0.971-0.583s-0.923-0.291-1.554-0.437
		c-0.874-0.194-1.603-0.437-2.185-0.728c-0.583-0.291-1.068-0.631-1.408-1.117c-0.34-0.486-0.534-1.068-0.534-1.748
		c0-0.68,0.194-1.263,0.534-1.797c0.389-0.534,0.874-0.923,1.603-1.214c0.68-0.291,1.506-0.437,2.428-0.437
		c0.728,0,1.408,0.097,1.943,0.291c0.534,0.194,1.02,0.437,1.36,0.728c0.34,0.291,0.631,0.631,0.777,0.971
		c0.146,0.34,0.243,0.68,0.243,0.971c0,0.291-0.097,0.534-0.291,0.777s-0.486,0.34-0.777,0.34c-0.291,0-0.486-0.049-0.631-0.194
		c-0.146-0.146-0.291-0.389-0.486-0.68c-0.243-0.437-0.486-0.826-0.777-1.068c-0.291-0.243-0.826-0.389-1.506-0.389
		c-0.631,0-1.166,0.146-1.554,0.437c-0.389,0.291-0.583,0.631-0.583,1.02c0,0.243,0.049,0.437,0.194,0.631
		c0.146,0.194,0.291,0.34,0.534,0.437c0.243,0.146,0.486,0.243,0.728,0.291c0.243,0.049,0.631,0.194,1.166,0.291
		c0.68,0.146,1.311,0.34,1.845,0.534s1.02,0.437,1.408,0.728c0.389,0.291,0.68,0.631,0.923,1.068
		C119.74,151.278,119.934,151.958,119.934,152.541z"/>
	<path class="st1" d="M121.197,154.921v-9.567c0-0.486,0.097-0.874,0.34-1.117c0.243-0.243,0.534-0.389,0.874-0.389
		c0.389,0,0.68,0.146,0.923,0.389c0.243,0.243,0.34,0.631,0.34,1.117v9.567c0,0.486-0.097,0.874-0.34,1.117
		c-0.243,0.243-0.534,0.389-0.923,0.389c-0.34,0-0.631-0.146-0.874-0.389S121.197,155.406,121.197,154.921z"/>
	<path class="st1" d="M135.766,152.347c0,0.389-0.097,0.826-0.291,1.263c-0.194,0.437-0.486,0.874-0.923,1.311
		c-0.389,0.437-0.923,0.777-1.554,1.068c-0.631,0.291-1.36,0.389-2.234,0.389c-0.631,0-1.214-0.049-1.748-0.194
		c-0.534-0.097-1.02-0.291-1.408-0.583c-0.437-0.243-0.826-0.583-1.166-1.02c-0.34-0.389-0.583-0.826-0.826-1.263
		c-0.243-0.486-0.389-0.971-0.534-1.506c-0.146-0.534-0.194-1.117-0.194-1.7c0-0.971,0.146-1.845,0.437-2.622
		c0.291-0.777,0.68-1.457,1.214-1.991s1.166-0.971,1.845-1.263c0.728-0.291,1.457-0.437,2.283-0.437
		c0.971,0,1.845,0.194,2.622,0.583s1.36,0.874,1.748,1.457s0.631,1.117,0.631,1.651c0,0.291-0.097,0.534-0.291,0.728
		s-0.437,0.34-0.728,0.34c-0.291,0-0.534-0.097-0.728-0.243c-0.194-0.146-0.34-0.389-0.534-0.777c-0.34-0.583-0.68-1.068-1.117-1.36
		c-0.437-0.291-0.971-0.437-1.603-0.437c-1.02,0-1.797,0.389-2.428,1.166c-0.583,0.777-0.923,1.845-0.923,3.254
		c0,0.923,0.146,1.748,0.389,2.38c0.243,0.631,0.631,1.117,1.117,1.408c0.486,0.291,1.068,0.486,1.7,0.486
		c0.728,0,1.311-0.194,1.797-0.534c0.486-0.34,0.874-0.874,1.117-1.554c0.097-0.34,0.243-0.583,0.389-0.777
		c0.146-0.194,0.389-0.291,0.728-0.291c0.291,0,0.534,0.097,0.777,0.291C135.669,151.813,135.766,152.055,135.766,152.347z"/>
	<path class="st1" d="M142.711,145.353v8.839h5.002c0.389,0,0.68,0.097,0.923,0.291c0.194,0.194,0.34,0.437,0.34,0.728
		c0,0.291-0.097,0.534-0.291,0.728c-0.194,0.194-0.534,0.291-0.923,0.291h-5.925c-0.534,0-0.923-0.097-1.166-0.34
		c-0.243-0.243-0.34-0.631-0.34-1.166v-9.373c0-0.486,0.097-0.874,0.34-1.117c0.243-0.243,0.534-0.389,0.874-0.389
		c0.389,0,0.68,0.146,0.923,0.389C142.614,144.431,142.711,144.819,142.711,145.353z"/>
	<path class="st1" d="M154.124,143.848c1.263,0,2.331,0.243,3.254,0.777c0.923,0.534,1.603,1.263,2.04,2.185
		c0.437,0.923,0.68,2.04,0.68,3.302c0,0.923-0.146,1.797-0.389,2.574c-0.243,0.777-0.631,1.457-1.166,1.991
		c-0.486,0.583-1.117,0.971-1.894,1.311c-0.728,0.291-1.603,0.437-2.525,0.437c-0.971,0-1.797-0.146-2.574-0.437
		c-0.728-0.291-1.36-0.728-1.894-1.311s-0.874-1.214-1.117-2.04c-0.243-0.777-0.389-1.651-0.389-2.525
		c0-0.923,0.146-1.797,0.389-2.574c0.243-0.777,0.68-1.457,1.166-1.991c0.486-0.534,1.117-0.971,1.845-1.263
		C152.376,143.994,153.201,143.848,154.124,143.848z M157.621,150.113c0-0.874-0.146-1.651-0.437-2.331
		c-0.291-0.631-0.68-1.166-1.214-1.457c-0.534-0.34-1.166-0.486-1.845-0.486c-0.486,0-0.971,0.097-1.36,0.291
		c-0.389,0.194-0.777,0.437-1.068,0.826c-0.291,0.34-0.534,0.826-0.728,1.36c-0.194,0.534-0.243,1.166-0.243,1.845
		s0.097,1.311,0.243,1.894c0.194,0.583,0.437,1.02,0.728,1.408c0.34,0.389,0.68,0.631,1.117,0.826
		c0.389,0.194,0.874,0.291,1.36,0.291c0.631,0,1.214-0.146,1.748-0.486c0.534-0.291,0.971-0.826,1.263-1.457
		S157.621,151.036,157.621,150.113z"/>
	<path class="st1" d="M172.336,151.278v2.331c0,0.291-0.049,0.534-0.097,0.728c-0.049,0.194-0.194,0.34-0.34,0.486
		c-0.146,0.146-0.389,0.291-0.631,0.437c-0.728,0.389-1.457,0.68-2.137,0.874s-1.408,0.291-2.234,0.291
		c-0.923,0-1.797-0.146-2.574-0.437c-0.777-0.291-1.408-0.728-1.943-1.263s-0.971-1.214-1.263-1.991
		c-0.291-0.777-0.437-1.651-0.437-2.622c0-0.923,0.146-1.797,0.437-2.574c0.291-0.777,0.68-1.457,1.263-1.991
		c0.534-0.534,1.214-0.971,1.991-1.263c0.777-0.291,1.7-0.437,2.671-0.437c0.826,0,1.554,0.097,2.185,0.34
		c0.631,0.194,1.166,0.486,1.554,0.826c0.389,0.34,0.68,0.68,0.874,1.068s0.291,0.68,0.291,0.971c0,0.291-0.097,0.583-0.34,0.777
		s-0.486,0.34-0.826,0.34c-0.194,0-0.34-0.049-0.534-0.146c-0.194-0.097-0.291-0.194-0.389-0.34
		c-0.291-0.486-0.583-0.826-0.777-1.068s-0.486-0.437-0.874-0.631c-0.389-0.194-0.826-0.243-1.36-0.243
		c-0.583,0-1.068,0.097-1.506,0.291c-0.437,0.194-0.826,0.486-1.166,0.874c-0.34,0.389-0.583,0.826-0.728,1.36
		s-0.243,1.166-0.243,1.797c0,1.408,0.34,2.525,0.971,3.302c0.631,0.777,1.554,1.166,2.72,1.166c0.583,0,1.117-0.097,1.603-0.243
		c0.486-0.146,1.02-0.34,1.506-0.631v-1.991h-1.797c-0.437,0-0.826-0.049-1.02-0.194c-0.243-0.146-0.34-0.389-0.34-0.728
		c0-0.291,0.097-0.486,0.291-0.68c0.194-0.194,0.486-0.243,0.777-0.243h2.817c0.34,0,0.631,0.049,0.874,0.097
		c0.243,0.049,0.437,0.194,0.583,0.389C172.336,150.501,172.336,150.841,172.336,151.278z"/>
	<path class="st1" d="M179.086,143.848c1.263,0,2.331,0.243,3.254,0.777c0.923,0.534,1.603,1.263,2.04,2.185
		c0.437,0.923,0.68,2.04,0.68,3.302c0,0.923-0.146,1.797-0.389,2.574c-0.243,0.777-0.631,1.457-1.166,1.991
		c-0.486,0.583-1.117,0.971-1.894,1.311c-0.728,0.291-1.603,0.437-2.525,0.437c-0.971,0-1.797-0.146-2.574-0.437
		c-0.728-0.291-1.36-0.728-1.894-1.311c-0.534-0.583-0.874-1.214-1.117-2.04c-0.243-0.777-0.389-1.651-0.389-2.525
		c0-0.923,0.146-1.797,0.389-2.574s0.68-1.457,1.166-1.991c0.486-0.534,1.117-0.971,1.845-1.263
		C177.338,143.994,178.163,143.848,179.086,143.848z M182.583,150.113c0-0.874-0.146-1.651-0.437-2.331
		c-0.291-0.631-0.68-1.166-1.214-1.457c-0.534-0.34-1.166-0.486-1.845-0.486c-0.486,0-0.971,0.097-1.36,0.291
		s-0.777,0.437-1.068,0.826c-0.291,0.34-0.534,0.826-0.728,1.36s-0.243,1.166-0.243,1.845s0.097,1.311,0.243,1.894
		c0.194,0.583,0.437,1.02,0.728,1.408c0.34,0.389,0.68,0.631,1.117,0.826c0.389,0.194,0.874,0.291,1.36,0.291
		c0.631,0,1.214-0.146,1.748-0.486c0.534-0.291,0.971-0.826,1.263-1.457C182.437,152.007,182.583,151.036,182.583,150.113z"/>
	<path class="st1" d="M195.453,152.541c0,0.728-0.194,1.408-0.583,1.991s-0.923,1.068-1.651,1.36
		c-0.728,0.34-1.603,0.486-2.574,0.486c-1.214,0-2.185-0.243-2.962-0.68c-0.534-0.34-1.02-0.777-1.36-1.311
		c-0.34-0.534-0.534-1.068-0.534-1.603c0-0.291,0.097-0.534,0.291-0.777c0.194-0.194,0.486-0.34,0.777-0.34
		c0.243,0,0.486,0.097,0.68,0.243c0.194,0.146,0.34,0.389,0.437,0.728c0.146,0.389,0.34,0.728,0.486,0.971
		c0.146,0.243,0.437,0.486,0.777,0.631c0.34,0.146,0.777,0.243,1.263,0.243c0.728,0,1.311-0.146,1.797-0.534
		c0.437-0.34,0.68-0.777,0.68-1.263c0-0.389-0.146-0.728-0.389-0.971c-0.243-0.243-0.583-0.437-0.971-0.583
		c-0.389-0.146-0.923-0.291-1.554-0.437c-0.874-0.194-1.603-0.437-2.185-0.728c-0.583-0.291-1.068-0.631-1.408-1.117
		c-0.34-0.486-0.534-1.068-0.534-1.748c0-0.68,0.194-1.263,0.534-1.797c0.389-0.534,0.874-0.923,1.603-1.214
		c0.68-0.291,1.506-0.437,2.428-0.437c0.728,0,1.408,0.097,1.943,0.291c0.534,0.194,1.02,0.437,1.36,0.728
		c0.34,0.291,0.631,0.631,0.777,0.971c0.146,0.34,0.243,0.68,0.243,0.971c0,0.291-0.097,0.534-0.291,0.777
		c-0.194,0.243-0.486,0.34-0.777,0.34c-0.291,0-0.486-0.049-0.631-0.194c-0.146-0.146-0.291-0.389-0.486-0.68
		c-0.243-0.437-0.486-0.826-0.777-1.068c-0.291-0.243-0.826-0.389-1.506-0.389c-0.631,0-1.166,0.146-1.554,0.437
		c-0.389,0.291-0.583,0.631-0.583,1.02c0,0.243,0.049,0.437,0.194,0.631c0.146,0.194,0.291,0.34,0.534,0.437
		c0.243,0.146,0.486,0.243,0.728,0.291c0.243,0.049,0.631,0.194,1.166,0.291c0.68,0.146,1.311,0.34,1.845,0.534
		s1.02,0.437,1.408,0.728c0.389,0.291,0.68,0.631,0.923,1.068C195.355,151.424,195.453,151.958,195.453,152.541z"/>
</g>
<g>
	<path class="st2" d="M208.976,61.446l-2.7-0.85h-16.8c-2,0-3.7,1.75-3.7,3.85v0.5v44.7c0,2.1,1.6,3.7,3.6,3.7h3.1h9.1h2.9
		c8.3,0,14.9-6.7,14.9-14.9v-22.6C219.476,69.146,215.276,63.346,208.976,61.446z M212.176,98.346c0,4.2-3.4,7.7-7.7,7.7h-1.3h-8.8
		h-1.3v-25.7v-12.3h4.5h6.9c4.2,0,7.7,3.4,7.7,7.7L212.176,98.346L212.176,98.346z"/>
	<path class="st2" d="M91.576,113.246c2,0,3.7-1.6,3.7-3.7v-44.7v-0.5c0-2-1.678-3.75-3.7-3.75c-2.022,0-4,0.05-4,0.05l-12.9-0.05
		l-2.7,0.75c-6.2,2-10.4,7.7-10.4,14.3v22.6c0,8.3,6.7,14.9,14.9,14.9h2.9h9.1h3.1V113.246z M76.476,105.846c-4.2,0-7.7-3.4-7.7-7.7
		v-22.6c0-4.2,3.4-7.7,7.7-7.7h6.9h4.5v0.1v12.3v25.5h-1.3h-8.8h-1.3C76.476,105.746,76.476,105.846,76.476,105.846z"/>
	<g>
		<path class="st2" d="M140.476,131.146c-12.1,0-22.1-8.6-22.1-19.2c0-1.6,1.4-2.9,3.2-2.9c1.8,0,3.2,1.2,3.2,2.9
			c0,7.3,7.1,13.4,15.7,13.4c8.6,0,15.7-5.9,15.7-13.4c0-1.6,1.4-2.9,3.2-2.9c1.8,0,3.2,1.2,3.2,2.9
			C162.576,122.646,152.576,131.146,140.476,131.146z"/>
		<g>
			<path class="st2" d="M124.876,92.146c0,1.5-0.4,2.9-1.2,4.1c-0.8,1.2-1.9,2.2-3.5,2.9s-3.3,1-5.4,1c-2.5,0-4.6-0.4-6.2-1.4
				c-1.2-0.7-2.1-1.6-2.8-2.7c-0.7-1.1-1.1-2.2-1.1-3.3c0-0.6,0.2-1.2,0.7-1.6c0.4-0.4,0.9-0.7,1.6-0.7c0.5,0,1,0.1,1.4,0.5
				c0.4,0.4,0.7,0.9,0.9,1.5c0.3,0.8,0.7,1.5,1,2c0.4,0.5,0.9,0.9,1.5,1.3c0.7,0.4,1.5,0.5,2.7,0.5c1.5,0,2.7-0.4,3.7-1
				c0.9-0.7,1.4-1.6,1.4-2.7c0-0.8-0.2-1.5-0.7-2.1c-0.5-0.5-1.2-0.9-2-1.2c-0.8-0.3-1.9-0.6-3.2-0.9c-1.8-0.4-3.3-0.9-4.6-1.5
				c-1.2-0.6-2.2-1.3-2.9-2.4c-0.7-0.9-1.1-2.2-1.1-3.7c0-1.4,0.4-2.7,1.1-3.7c0.7-1.1,1.8-1.9,3.3-2.5s3.2-0.9,5.1-0.9
				c1.5,0,2.9,0.2,4.1,0.6c1.1,0.4,2.1,0.9,2.8,1.5c0.7,0.7,1.3,1.3,1.6,2c0.4,0.7,0.5,1.4,0.5,2.1c0,0.6-0.2,1.2-0.7,1.6
				c-0.4,0.5-0.9,0.7-1.6,0.7c-0.6,0-1-0.1-1.3-0.4c-0.3-0.3-0.7-0.8-0.9-1.5c-0.4-0.9-1-1.7-1.7-2.2c-0.7-0.5-1.7-0.8-3.1-0.8
				c-1.3,0-2.4,0.3-3.2,0.9c-0.8,0.6-1.2,1.2-1.2,2.1c0,0.5,0.1,0.9,0.4,1.3c0.3,0.4,0.7,0.7,1.1,0.9c0.5,0.3,0.9,0.4,1.5,0.6
				c0.5,0.1,1.3,0.4,2.4,0.7c1.4,0.4,2.7,0.7,3.9,1.1c1.2,0.4,2.1,0.9,2.9,1.5s1.5,1.3,1.9,2.2
				C124.676,89.846,124.876,90.946,124.876,92.146z"/>
			<path class="st2" d="M134.776,81.346l5.7,17l5.7-17.1c0.3-0.9,0.5-1.5,0.7-1.8c0.1-0.3,0.4-0.7,0.7-0.9c0.4-0.3,0.8-0.4,1.4-0.4
				c0.4,0,0.8,0.1,1.2,0.3c0.4,0.2,0.7,0.5,0.9,0.9c0.2,0.4,0.3,0.7,0.3,1.1c0,0.2,0,0.5-0.1,0.8c-0.1,0.3-0.1,0.6-0.3,0.9
				c-0.1,0.3-0.2,0.6-0.3,0.9l-6.1,16.6c-0.2,0.7-0.4,1.2-0.7,1.8c-0.3,0.6-0.4,1.1-0.7,1.5c-0.3,0.4-0.7,0.8-1.2,1
				c-0.4,0.3-1,0.4-1.8,0.4c-0.7,0-1.2-0.1-1.8-0.4c-0.4-0.3-0.9-0.7-1.2-1.1c-0.3-0.4-0.5-0.9-0.7-1.5s-0.4-1.2-0.7-1.8l-6-16.4
				c-0.1-0.3-0.2-0.6-0.3-0.9s-0.2-0.6-0.3-0.9c-0.1-0.4-0.1-0.6-0.1-0.8c0-0.6,0.2-1.1,0.7-1.6c0.4-0.5,1-0.7,1.8-0.7
				c0.9,0,1.5,0.3,1.8,0.8C133.976,79.346,134.376,80.146,134.776,81.346z"/>
			<path class="st2" d="M176.276,89.546v4.9c0,0.7-0.1,1.2-0.2,1.5c-0.1,0.3-0.3,0.7-0.7,1c-0.3,0.3-0.7,0.6-1.2,0.9
				c-1.4,0.8-2.7,1.4-3.9,1.8c-1.2,0.4-2.6,0.6-4.1,0.6c-1.7,0-3.3-0.3-4.7-0.9s-2.6-1.5-3.6-2.6s-1.8-2.5-2.3-4.1s-0.8-3.5-0.8-5.4
				c0-2,0.3-3.8,0.8-5.4c0.5-1.6,1.3-3,2.3-4.2c1-1.2,2.2-2,3.7-2.7c1.4-0.6,3.1-0.9,4.9-0.9c1.5,0,2.9,0.2,4,0.7
				c1.2,0.4,2.1,1,2.8,1.7c0.7,0.7,1.2,1.4,1.6,2.2c0.4,0.7,0.5,1.5,0.5,2.1c0,0.7-0.2,1.2-0.7,1.6c-0.4,0.4-0.9,0.7-1.5,0.7
				c-0.3,0-0.7-0.1-0.9-0.3c-0.3-0.1-0.5-0.4-0.8-0.7c-0.6-0.9-1-1.8-1.4-2.3c-0.4-0.5-0.9-0.9-1.6-1.2c-0.7-0.4-1.5-0.5-2.5-0.5
				s-2,0.2-2.8,0.6c-0.8,0.4-1.6,1-2.1,1.8c-0.6,0.8-1,1.8-1.4,2.9c-0.3,1.1-0.4,2.4-0.4,3.8c0,2.9,0.6,5.2,1.8,6.8
				c1.3,1.6,2.9,2.4,5.1,2.4c1,0,2-0.1,2.9-0.4c0.9-0.3,1.9-0.7,2.8-1.3v-4.1h-3.5c-0.8,0-1.5-0.1-1.9-0.4c-0.4-0.3-0.7-0.8-0.7-1.5
				c0-0.6,0.2-1,0.5-1.4c0.4-0.4,0.8-0.6,1.5-0.6h5.1c0.7,0,1.2,0.1,1.6,0.2c0.4,0.1,0.8,0.4,1,0.9
				C176.076,87.946,176.276,88.646,176.276,89.546z"/>
		</g>
	</g>
	<circle class="st2" cx="83.976" cy="34.846" r="6.1"/>
	<circle class="st2" cx="196.976" cy="34.846" r="6.1"/>
	<rect x="146.675" y="32.946" class="st2" width="45.002" height="4.1"/>
	<path class="st2" d="M132.376,26.746v16.3h16.3v-16.3H132.376z M144.676,38.946h-8.2v-8.2h8.2V38.946z"/>
	<g>
		<path class="st2" d="M148.676,32.771v8.811c15.37,2.315,28.79,11.178,37.221,23.441l7.756-4.102
			C183.687,45.972,167.351,35.179,148.676,32.771z"/>
		<path class="st2" d="M132.376,32.759c-18.717,2.383-34.915,12.91-44.9,27.887l7.7,4.2c8.449-12.29,21.787-20.988,37.2-23.279
			V32.759z"/>
	</g>
	<rect x="89.176" y="32.946" class="st2" width="45.202" height="4.1"/>
</g>
</svg>
