<svg xmlns="http://www.w3.org/2000/svg" version="1.1" viewBox="0 0 48 48">
    <style>
    .background {
      fill: #1E1E1E;
    }
    .phone {
      fill: #E93081;
    }

    @media (prefers-color-scheme: dark) {
      .background {
        fill: #E93081;
      }
      .phone {
        fill: #4a2351;
      }
    }
  </style>

  <rect class="background" y="0" width="48" height="48"/>

  <g class="phone">
    <path d="M11.9447,33.4419v-11.7138c0-.5318-.4264-1.0017-.9788-1.0017h-4.1331c-2.1938,0-3.8328,1.8316-3.8328,4.0047v6.0059c0,2.1938,1.788,3.9611,3.9611,3.9611h3.9199c.8711-.0206,1.0636-.4241,1.0636-1.2562h0Z"/>
    <path d="M22.4022,13.2717c-5.2173.4676-9.7768,3.3216-12.523,7.4753l2.0448,1.1072c2.3634-3.4293,6.1343-5.7927,10.4782-6.2626v-2.3198h0Z"/>
    <path d="M37.119,34.6775h3.9199c2.1731,0,3.9611-1.7468,3.9611-3.9611v-6.0059c0-2.1731-1.6184-4.0047-3.8328-4.0047h-4.1331c-.5547,0-.9788.4676-.9788,1.0017v11.6932c-.0023.8734.1903,1.2768,1.0636,1.2768Z"/>
    <path d="M25.5955,13.2717c5.2173.4676,9.7768,3.3216,12.523,7.4753l-2.0448,1.1072c-2.3634-3.4293-6.1343-5.7927-10.4782-6.2626v-2.3198h0Z"/>
    <circle cx="40.7698" cy="14.3583" r="2.7773"/>
    <path d="M25.5955,13.5309h13.7898v1.7602h-13.7898v-1.7602Z"/>
    <path d="M26.1296,16.5521h-4.3233v-4.3233h4.3233v4.3233ZM22.8905,15.4449h2.1731v-2.1731h-2.1731v2.1731Z"/>
    <path d="M22.4022,13.5836h-13.7898s0,1.7602,0,1.7602h13.7898s0-1.7602,0-1.7602Z"/>
    <circle cx="7.2279" cy="14.3583" r="2.7773"/>
  </g>
</svg>
