<svg xmlns="http://www.w3.org/2000/svg" xml:space="preserve" x="0" y="0" style="enable-background:new 0 0 266 404"
  version="1.1" viewBox="0 0 266 404">
  <style>
    .st0 {
      fill: #ffc927
    }

    .st1 {
      fill: #b29108
    }
  </style>
  <path
    d="M250.6 210.3c-5.8-5.3-114.7-3.5-186.5-1.7V79.9c0-16.4-13.3-29.7-29.7-29.7h-3.1C15 50.2 1.7 63.5 1.7 79.9V297c0 64.8 47 105 105 105h52.6c58 0 105-43.6 105-105v-52.6c0-14.3-3.9-25.3-13.7-34.1z"
    class="st0" />
  <path
    d="M88.7 270c-17.2 0-31.2-14-31.2-31.2v-84c0-17.2 14-31.2 31.2-31.2s31.2 14 31.2 31.2v84c0 17.2-13.9 31.2-31.2 31.2z"
    class="st1" />
  <path
    d="M95.3 259.8c-17.2 0-31.2-14-31.2-31.2v-84c0-17.2 14-31.2 31.2-31.2s31.2 14 31.2 31.2v84c0 17.2-14 31.2-31.2 31.2z"
    class="st0" />
  <path
    d="M151.1 270c-17.2 0-31.2-14-31.2-31.2v-84c0-17.2 14-31.2 31.2-31.2s31.2 14 31.2 31.2v84c0 17.2-13.9 31.2-31.2 31.2z"
    class="st1" />
  <path
    d="M157.7 259.8c-17.2 0-31.2-14-31.2-31.2v-84c0-17.2 14-31.2 31.2-31.2s31.2 14 31.2 31.2v84c0 17.2-14 31.2-31.2 31.2z"
    class="st0" />
  <path d="M186.7 220.2V132c2.7 5.4 3 10.5 3.6 14.8V219l-3.6 1.2z" class="st1" />
  <path
    d="M220.1 265.6c-17.2 0-31.2-14-31.2-31.2V33.2c0-17.2 14-31.2 31.2-31.2s31.2 14 31.2 31.2v201.2c0 17.2-14 31.2-31.2 31.2z"
    class="st0" />
  <path d="M220.1 203.6h-86.6c-19.6 0-34.8 15.8-34.8 36.6s13.3 36.6 29.7 36.6h72.8v-8h5.1l13.8-65.2z" class="st1" />
  <path
    d="M110.4 238.7c0-18.5 15.1-33.6 33.6-33.6h78.5c18.6 0 33.6 15 33.6 33.6s-15 33.6-33.6 33.6H144c-18.6 0-33.6-15-33.6-33.6z"
    class="st0" />
</svg>
