<svg xmlns="http://www.w3.org/2000/svg" xml:space="preserve" style="enable-background:new 0 0 303.3 404" version="1.1"
  viewBox="0 0 303.3 404">
  <path
    d="M286.2 241.3c-3.7-4.7-7.9-7.4-12-9h.5V50.2c0-6.6 0-18.8-9.5-27.9-8.4-8-18.1-11.9-29.8-11.9-15.5 0-24.4 6.8-29.8 11.9-9.5 9.1-9.5 21.3-9.5 27.9v91c-6.9-4.4-15.3-6.9-23.4-6.9-10.9 0-22 4.5-29.8 11.9-.6.5-1.1 1.1-1.6 1.6-.5-.5-1-1.1-1.6-1.6-7.8-7.5-18.9-11.9-29.8-11.9-8.2 0-16.5 2.5-23.4 7V72c0-6.6 0-18.8-9.5-27.9-8.3-7.9-18.3-11.9-29.8-11.9-11.7 0-21.4 3.9-29.8 11.9C8 53.2 8 65.4 8 72v220.3c0 12 0 18 1.5 31.5 3.2 28.7 13.4 45.8 33.1 55.5 21.9 10.7 48.7 14.4 106.3 14.4 58.1 0 80.9-5.5 99-14.4 19.6-9.6 29.8-26.7 33.1-55.5 1.1-10.2 1.4-16.1 1.5-23.5 7.4-7.3 12.2-18.1 12.8-28.8.7-10.8-2.8-22.1-9.1-30.2zm-6.7 29.2c-.5 8.2-4.6 15-8.2 18.6-4.2 4.2-8.7 3.9-13.4 3.6l-61.3-3.3h-.2c-4.7-.3-9.1-.6-12.8-5.2-3.1-4-6.3-11.2-5.8-19.4s4.6-15 8.2-18.6c4.2-4.2 8.6-3.9 13.3-3.6h.3c.5 0 53 2.8 60.9 3.3h.2c4.7.3 9.1.6 12.8 5.2 3.3 3.9 6.5 11.2 6 19.4zM212 172.4V50.2c0-5.1 0-12 4.6-16.5 3.9-3.7 9.1-7.5 18.8-7.5 7.7 0 13.3 2.2 18.8 7.5 4.6 4.4 4.6 11.4 4.6 16.4v179.7c-9.2-.5-32.6-1.8-46.9-2.5v-54.9zm-62.7 68v-68c0-5.1 0-10.3 4.6-14.8 3.8-3.6 10.7-7.5 18.8-7.5 8.1 0 15 3.9 18.8 7.5 4.6 4.4 4.6 9.7 4.6 14.8v54.1c-5.9 0-14 1.1-21.2 8.3-6.7 6.6-11.2 16-12.5 25.7-3.5-1.4-6.5-3.5-8.5-5.4-4.6-4.4-4.6-9.6-4.6-14.7zm-62.8-67v-1c0-5.1 0-10.3 4.6-14.8 3.8-3.6 10.7-7.5 18.8-7.5 8.1 0 15 3.9 18.8 7.5 4.6 4.4 4.6 9.7 4.6 14.8v68c0 5.1 0 10.3-4.6 14.8-3.8 3.6-10.7 7.5-18.8 7.5-8.1 0-15-3.9-18.8-7.5-4.6-4.4-4.6-9.7-4.6-14.8v-67zM265.2 322c-3.3 29-14.1 38-24.3 43-16 7.9-37 12.7-92 12.7-54.8 0-79.9-3.2-99.3-12.7-10.2-5-21-14-24.3-43-1.4-12.7-1.4-18-1.4-29.7V72c0-5.1 0-12 4.6-16.5 5.4-5.2 11.2-7.5 18.8-7.5 7.4 0 13.5 2.5 18.8 7.5 4.6 4.4 4.6 11.4 4.6 16.4v168.4c0 6.4 0 17.1 9.5 26.2 7.8 7.4 18.9 11.9 29.8 11.9 10.9 0 22-4.4 29.8-11.9.6-.5 1.1-1.1 1.6-1.6.5.6 1 1.1 1.6 1.6 5.5 5.3 12.8 9.1 20.4 10.8 1.5 6 4.2 11.7 7.8 16.4 8 10.2 18.6 10.9 24.2 11.3l61.3 3.3h.2c1.3.1 2.8.2 4.5.2 1.5 0 3.2-.1 5-.3-.2 4-.6 8.2-1.2 13.8z" />
</svg>
