<!--
  SVG Music Logos
  Exciter - Heavy Metal Maniac v1.0.0
  https://github.com/tiagoporto/svg-music-logos
  Copyright (c) 2016 Tiago Porto (http://tiagoporto.com)
-->
<svg xmlns="http://www.w3.org/2000/svg" viewBox="0 0 200 51">
  <path d="M196.73 13.68c-.553-1.765-.698-2.148-1.85-3.612l-1.617-2.046c-1.228.144-.777-.028-1.878-.69l-2.15-.932-.24.613c-1.22-.224-.558-.04-1.69.09-.692.08-1.357.005-1.952-.27l-3.8.2c-.318-.488-.096-.397-.414-.852-.613-.874-.402-.68-.043-2.804-.345.42-.52.927-.75 1.504-.437 1.096-.29.658-1.057 1.215-1.154.836.367 1.854-2.398 2.21-.305-.49-.364-.944-.918-1.208l-.247-.105.27-2.004c-.404.24-.647.773-1.05 1.168-.393.384-.494.896-.62 1.536-.473 2.438-1.105 1.2-2.573 1.804l-1.997 1.193c-.677.46-.022-.035-.39.636l-2.506 1.905.39.898-3.135 2.54c.412-.162.928-.606 1.25-.688 1.552-.396-.195.652 1.446-.028.798-.33 1.71-.46 2.57-.643.295-.064.5-.076.78.036l-.304 3.532-.456-.588c-.572.855-.66 2.03-.9 3.107-.27 1.188-.702 1.96-1.15 2.982-.72 1.64-.34 1.92-.68 3.427l-1.264 2.896c.348-.192.048-.005.29-.23.39-.36.308-.535.94-.358l-.793 1.62c.354.805.435.29.624 1.47l-1.198.008c.038 2.042.32 1.612-.816 3.23.27.12.226.008.523.078l.256.074c-.114 1.04-1.487 2.486-.842 3.49.203.317.468-.433-.117 1.557l-.443 1.98.586.26c-.742 1.573-.92 3.383-1.09 5.166.83-.256.064-.505.682-1.142l.975-.988c-.167-.114-.56-.073-.824-.07 1.317-4.167.488-3.142 3.146-5.635l.636.425 1.46-1.814c.394-1.236 1.092-2.116 1.59-3.304.24-.574.36-1.318.618-1.815 2.324-4.49 1.085-2.254 1.232-4.17l1.144-2.59c.125-.17.39-.49.616-.082l-.286 1.067 1.576.213-1.385.944.232 1.21-.833.603c2.138-.412 2.214-.266 4.15.62.29-.69-.174-.435.46-.783.317-.173.804-.148.975.103l-1.075 1.37c1.095-.167 2.144-.735 3.132-1.248l.896 1.95c.047.147.153-.005.456.273.605.555.54 1.582.93 2.248l2.24 2.442c.576.327.603.003 1 .55.662.915-.245.238 2.008 2.79l-.524.758c.89 1.418 1.09.632 2.355 1.345l.662-1.174.906 1.173.15-1.66c1.655-.15 2.002.74 3.093 1.59-.16-.98-.645-1.654-1.04-2.407-.657-1.254-.208-1.53-1.084-2.412-.628-.632-1.107-.94-1.68-1.66-.192-.24-.602-.715-.517-.975l1.078.268c.28-1.08-.82-1.645-.043-2.482l.025-.027c-.46.34.52-.565 0 0l.147-.114.19-.12c-.137-.548-.242-.74-.455-1.222-.98-2.218.376-.43-2.042-3.485l.583-.608-.953-.304c.06-.492.417-.89.86-1.108.587-.288.886.06 1.39.407 2.203-1.46 2.768-4.585 4.052-6.94.593-1.086.816.142 1.063-2.596.43-4.708-.246-3.76-.566-4.78zm-10.168 7.733c-.425.42-.186.056-.75-.136-2.96 3.218-1.058 1.06-3.386 2.743l-1.025-1.384-.6 1.736c-.833-.758-.42-.598-.918-.68-.376 2.29-.026 1.217-.005 2.012.026.955.066.29-.202.552l-.584-.09c-.558-.067-1.706.98-1.892-.12-.01-.06-.028-.082-.05-.12l-2.74.826c.88-2.405.894-2.635 1.99-4.875.725-1.486.325-1.14.192-1.593-.166-.564.095-1.286.374-1.786.43-.774.88-.686 1.11-1.203.617-1.395-.154-2.245 1.983-2.524l-.29-.21c-.245-.214-.243-.173-.353-.43.402-.7.937-1.085 1.992-1.002 1.655.13 1.613.717 1.637 1.333l-.922.376c.66.593.524.382 1.31.767.41.202.772.37 1.086.728.352.403.308.58.75 1.073.404.452.472.473.596 1.25.22.692 1.367 2.102.7 2.76z"/>
  <path d="M159.656 24.246c.52-.14.987-.217 1.44-.556-.653-.495-1.658-.532-2.475-.64-.622-1.01-.1-.545-2.426-.646l-3.192-.142c-1.828 0-1.47.69-3.023.494-1.52-.193-1.18-.303-2.804-.058-.174-1.43.22-2.124 1.228-2.85.503-.364.334-.357.638-.876.787-1.344.45-.505.553-2.068l.846-2.12c.93-.04 1.513-.122 1.988.525.53.72.576.428 1.387 1.332.883-.203-.218-.316.892-.252.806.046 2.083-.36 2.413-.46.365-.11-.275-.058.31-.088.75-.038-.243-.017.478.122.39.075.226-.004.715-.017 1.27-.033 1.61.788 2.514.096l2.663-.71-.692-.506.36-.682-1.022-.32 2.86-1.367-2.063-1.426 1.53-1.246-.084-.652.818-.488c-.776-.05-1.596.035-2.322-.035l-.916-1.017c-.727-.35-5.436.083-6.146.13l.468.94-2.99.353-.038-.64c-.23-.766-1.585-.197-2.23-.04-.502-.83-.112-.586-1.118-1.045l.114-.82-2.23 1.912.146-1.465-1.014.392c-.387-.577-.263-.58-.836-.98-.097-.605-.05-.863.156-1.388.213-.546.25-.793.174-1.358-.076.195-.483 1.417-.61 1.55-.315.328-.74-.163-.997.816-.402 1.523-.32 2.18-2.17 2.076l-.122.9c-1.942.083-1.283.44-2.168.603l-2.63.235c.458.48.97.382 1.446.74.738.558.084 1.073-.34 1.546 1.583.316 1.228.108 2.31 1.042.4.346.098-.077.394.367l.622.82c-.685 2.68-1.073 1.64-1.7 2.64-.666 1.062-1.65 4.08-2.153 5.352l-2.92-.127c-.204.403.393.023-.472 1.002l2.02.21-.222.76 1.315.276c.13.966-.5 1.612-.452 2.186.07.856.578-.37-.315 2.027-.277.744-.893 3.105-1.683 3.37l-.358.066-1.21 3.622c-1.937.137-.655-.096-1.883.408-.6.245-1.438-.052-1.972.274-.69.42.255.682-1.753.578l-2.12.28 5.375 1.15-.555.85 1.7.118-.583 2.743.823-.264-.617 2.943.837-.552-.412 1.912 1.976-2.23-.434 1.485c.595-.242 1.612-2.837 1.945-3.522l-.84-.385 1.106-.63c.206.35.285.864.42 1.3.164-.088.217-.112.23-.117-.016.005-.086.026.066-.12.155-.147.142-.175.307-.33.647-.604 1.82-.53 2.668-.62.31.258 1.404 2.688 4.943 1.25 1.152-.468 1.51.15 2.38.705l3.125-.108 1.315-.94-.234-.65c.484-.172.616-.088 1.027-.347.424-.267.247-.386.957-.558l2.637-.248-.95-.257 1.902-1.21c-.85-1.08-.933-1.738-2.39-1.18-.744.285-.407.313-1.027.06-.94-.188-2.15.323-2.927-.243-.138-.1-.158-.127-.146-.13-.027-.01-.068-.03-.13-.06-.323-.15-.516-.044-.856-.25l.353-1.09c-2.224-.416-5.362-.126-7.635.318l.44-1.92-.796.318c-.11-.912.676-3.77 1.35-4.124l.225-.084c.556-.296.458-.987.93-1.51.54-.597 2.3-.324 3.447-.48 2.062-.28 1.528-.43 3.436.424-1.22.172-1.172.214-2.162.965.32.312.412.346 1.53.235 1.186-.117 5.528-.71 6.222-1.363.014-.032.02-.12.022-.1.003.02.017-.08.02-.1.185-.896.605-.73 1.473-.97l-.078-.643c1.512-.748-.11-.616 2.803-1.147-.39-.362-.648-.238-1.25-.387l-.897-.867z"/>
  <path d="M128.327 16.954c.003-.002.645-.4.667-.42l.466-.53 2.43.353c.918-.827.014-.358 2.388-1.092-.51-.28-.285.05-.307-.53-.047-1.24.802-.453 3.387-.903.66-.115.23.034.647-.267l.65-.552c-2.246-1.434-1.488-1.132-4.216-.994.138-.37.473-.533.757-.817l-1.017-.15.242-.528c-3.726-.623-3.055-.897-4.79.06l-.265-.897-1.245-.29c-.108-.835.362-.996.125-1.85l-1.1.852.757-2.747c-1.866 1.265-.286 1.79-1.945 2.38-.953.34-.785 1.11-2.035 1.64-.323.138-.52.107-.84.026l1.09-2.735-1.02.524.202-1.343-1.267.51c-.193-.213-.224.21-.094-.442.196-.983.203-.224.28-1.927-.488.204-1.317 2.81-1.924 3.5-.907.015-1.602-.352-2.413-.286-.974.08-.932.558-2.356.14-.395-.117-.69-.348-.93-.423l-3.513-.46.092.878-.632.096c-.155.08-.063.045-.312.268-.033.03-.13.12-.163.147l-.26.21.617.91c-.614.253-.257-.144-1.57.397l-1.58.558c.676.32 1.77.537 2.54.73.08.244.007-.038-.022.218l.076 1.023c-.412.307-.747.223-1.11.573l-1.01.676 1.298.225c-.043.964.076-.033-2.138 1.823.034.024.097.002.113.053l.357.238c.333.385.073.087.132.32l.026.183c.964.076 3.375-1.262 3.875 0 .01.024.017.07.024.094l.05.357c1.133-.262.93-.584 2.35-.575l2.663-.05c.404.464.453 1.725-.08 2.197l-.623.372c-.36 1.65-.937 1.615-1.542 3.077-.47 1.133-.676 2.39-1.122 3.575-.635 1.686.095.385-.016 1.635-.07.772-.494.983-.69 1.76l-.88 3.822c-.25-.254-.258-.516-.362-.902-.985.886-.622 2.072-1.362 3.28-.605.986-.948 2.204-1.302 3.334h.002c.054.007.158.032.34.086l.186.064-.103.88 1.175-.408c.257 1.712-1.935 1.875-1.655 3.438l.22 1.566c1.177-.325 1.685-1.15 2.345-1.832.575-.595.42-.48 1.35-.628l1.23-.827c-.16-.965-.714-.788.468-1.978l.813.234.167 1.154 2.2-4.637-1.02.562c-.05-1.046.282-1.806 1.075-2.057.282-.09-.02.285.34-.238.91-1.33.418-1.41.278-2.12-.113-.574.227-.42.542-.85.75-1.025-.18-.842 1.413-1.172.465-1.237.79-2.224 1.285-3.42.143-.347.613-1.29.585-1.614-.048-.57-.603-.996.007-1.892.458-.674.906-.335 1.266-1.018.383-.727.762-3.047 1.356-3.5l1.44-.426 1.155-1.122c.422.446.484.84 1.292.442z"/>
  <path d="M106.23 7.46c-1.016.647.086-.556-2.116 1.917l.217-1.115-.444.5c-.473.648-.222.4-1.424.982l.587-2.045-.776.533-.608-.45-.892.695c-.217-.98.154-.586.182-1.18.015-.325-.182-.417-.125-1.18.07-.934-.144-.517-.226-2.22-.27.255-.653 1.393-.843 1.795-.378.802-.797 1.172-1.135 1.735-.51-.226-.064-.296-1.197-.053V6.088c-.537.3-.598.652-.917 1.375-.317.72-1.226 2.367-1.377 3.493-.134.998.247.156-.182 2.258.406.234.035.012.35.13l.41.163c.306 1.958-.535 1.12-.812 2.64-.393 2.156-1.548 3.64-1.092 4.323l.22.265c.333.708-.693 2.73-1.02 3.396-.387.792-.458.322-.712.962-.003.008-.693 2.807-1.23 4.24-.34.902-.69 1.776-1.01 2.633-.192.522-.312 2.042-.142 2.277l.168.2-.753 2.35-.913.078c-.01.782.18.455-.1 1.088-.724 1.657-.298.942-.09 1.587l.04.198c.13.443.687 1.262.69 1.27.198.55-.167-.074.508.132-.324 2.403-.565.378-.668 3.906.613-.602.53-.52.777-1.43 1.606-.746 1.05-.224 2.225-2.37l.304.965.6-.28-.357 2.577c.307-.257.355-.35.573-.893l1.08-3.235c-.428-.234.265.077-.6 0 .16-2.013.903-1.176 1.5-2.376.203-.41.336-.854.523-1.295l.883-.81c.098-.285.197-.705.318-1.016.292-.75.17-.415.652-.718.88-.553.144-.75 1.09-1.004.022-.006.072-.016.09-.02l.184-.048 2.202-7.055-.855.68c.03-.867.055-2.08.5-2.704.764-1.076.252.812 1.135-2.198.225-.767 1.053-4.088 1.886-4.324l.187-.032c.444-1.155.782-2.51 1.237-3.72l1.403-3.513-.85.82 1.356-4.214c-.372.324-.254.395-.607.62z"/>
  <path d="M88.934 22.126c.333-.743.46-2.207.794-3.088l.26-.984 1.17.346-.19-2.037c.48-.195.62.01 1.164.22l-1-3.273 2.176.03c-.235-1.616-1.75-1.584-.533-2.553-1.773-2.586.448-1.586-5.08-4.257-.022.035-.036.055-.042.117l-.136.492c-.145.392.19.238-.317.39-.272.083-.817-.165-1.458-.05l.306.708-1.042-.318.217-.85-2.997.51v-.54c-1.11-.062-.87.31-1.97.377-1.58.098-2.084.735-3.404 1.388-.796.394-1.312.235-1.964.476-.68.252-2.607 1.218-3.003 1.85-.403.64-.41.966-1.046 1.383l-1.65.76c-.216.546-.546.91-.866 1.28-1.895 2.187-.296.952-.788 2.565-.396 1.297-2.185 1.387-2.898 2.707-.947 1.752-1.432 3.702-1.91 5.63l.595-.123c.006 1.25-1.113 2.75-.586 3.76.294.56.286.036.404.873.22 1.56-.398 2.105-.392 3.03l.808 3.042c.596.24.21-.31.73.46 1.186 1.752 1.03.568 2.31 2.26.49.65.907 1.12 1.42 1.765.49.615 1.025 1.106 1.148 1.928 1.25.277 2.015 1.06 2.886 1.903.137-.17.123-.617.152-.89 1.46-.037 1.27 1.073 2.078 1.44 2.095.898 1.99 1.083 3.65.85-.723-.845-.55.162-1.3-.63l-1.052-.888c.49-.357 1.058.08 1.672.266.425.13.885.296 1.354.283.028 0 .053 0 .076-.002l.157-.027.222-.068-3.188-2.087c1.718-.43.416.523 2.515-.36 1.188-.5 2.126-.003 4.548.412-.057-.28-.982-1.174-1.252-1.512l.448-.603c-.428-.13-1.06-.235-1.572-.388-.947-.284-.363-.512-1.296-.85-1.834-.665-2.114-.687-1.62-1.59-.448-.81-2.68-2.978-2.91-3.1-.483-.26-1.37-.377-1.46-.43-.457-.556-.262-.917-.62-1.472-.494-.77-.6-.532-.47-1.83.182-1.853.08-2.05.42-4.024l-.986.37c.066-1.824.825-3.147 1.7-4.187.924-1.097.892-.207 1.148-1.745.247-1.486.93-1.665 2.045-2.348 1.082-.664 1.712-.664 2.97-.848 1.35-.197 1.66-.574 3.097.138.4.198.692.242.94.592.137.193.123.208.125.45l-.03.4c.647.374 1.636.386 2.425.56l-.105-1.737c.026-.005.082-.03.115-.033l1.508-.04c.56.806.4 1.138.506 2.102l.874 1.652z"/>
  <path d="M64.7 13.475c.587-.864 1.413-.455 2.044-1.007.605-.528 1.21-.916 1.62-1.574.308-.5.403-1.087.744-1.525.512-.66.28-.86.902-1.528l.696-.99c-1.696.41-3.195 2.007-4.598 2.983-.29-.076-.282-.187-.546-.364-.322.227-.74.45-1.172.307l-.274-.15c-.028-.014-.066-.038-.095-.05l-.717-.31.684-2.39L61.74 7.88l-.348-1.192c-.817.834-1.766 1.712-2.533 2.604-.775.9-.354.79-.86 1.72-.41.758-.734.798-1.213 1.368-1.057 1.256-.13 2.57-1.867 3.3-1.197.504-.27-.446-1.368 1.21l-1.093 1.418c-.64-.407-.794-1.274-.992-2.15-.076-.338-.188-.896-.306-1.224-.055-.15-.077-.384-.24-.386-.034 0-.063-.002-.087-.004 0 .035-.014.087-.057.162l-.15.37c-.204-.555-.533-.974-.73-1.566-.344-1.03.053-1.044-.06-1.93l-1.326-3.26-.868.193-.197 1.393c-.46-.165-.212.27-.38-.37-.103-.386.23-.156-.28-2.09l.866-.304c-.085-.393-.096-.487-.275-.84-.072-.143-.124-.235-.24-.373-.022-.028-.053-.062-.076-.088l-.257-.247-.082 1.535c-.92.086-.768-.396-1.466-.94-.01 1.042.245 1.837-.392 2.686l-1.063-1.99-.366 1.613-.57-.3-.28.64-1.658-1.68.948 4.072-.96-.79 1.7 5.244-1.08-.5c.678 2.297.735 1.87 1.726 3.114.31.388 1.678 5.51 1.91 6.282l.953-.19c.35 1.216.124 1.466-.507 2.174-1.403 1.575-2.552 3.41-3.728 5.165l.65.153c-.354.765-.805 1.05-1.437 1.555-2.775 2.217-.265-.772-4.434 4.707l.934.598-.198.24c-.545.158-.666.45-1.045.796-1.604 1.468-1.218 1.43-2.097 3.647.91-.193.5-.944 1.613-.72l-1.605 3.54c.7-.213.596-.467 1.085-.945.703-.687.696-.042 1.247-.882.6-.913 1.175-1.554 1.875-2.354l-.108-.21c-.15-.362-.058.063-.125-.32-.157-.905.547-.746 1.014-.868l1.892-.966-.708 1.115.472.748c1.987-2.38 1.132-.578 2.088-1.978.14-.206.295-.444.442-.62.184-.223.383-.365.523-.537.434-.536.188-.86.572-1.56.884-1.608 1.828-1.292 2.18-1.602l2.142-2.176 1.012 3.193.653-.213c.1.34.598 2.054.784 2.412.608 1.172 1.137.018 1.443 1.9.3 1.852.473 3.21 1.168 4.966.292-1.65.553-1.375.963-2.505 1.022.06 1.473 1.92 2.2 2.602l.193-1.748c.746.153.39.194.826.604l.26.19c.028.02.07.04.097.058l.522.408-.602-2.897.714.695L57.8 39.17c.475-.405.69-.143.422-1.024-.132-.436-.36-.95-.5-1.346-.896-2.538.31-1.532.3-2.937-.006-.576-1.858-4.37-2.224-5.16-2.248-4.857-.784-4.022 2.81-7.83.163-.173.264-.296.496-.385l.703-.084c.418-.492.865-1.18 1.323-1.712l2.924-3.3c1.135-1.394.078-1.08.646-1.917z"/>
  <path d="M32.606 13.52c.62-.988.87-.11 3.178-1.49l1.373-.94c-.208-.808-.746-.57-1.973-.668-.354-.563.152-.263-.773-1l1.108-.76c-.992-.592-4.65-.234-5.92-.075-1.973.247.135-.756-5.372.696l.888.74-2.29.056c-.02-.034-.477-.146.08-.894l.508-.638-1.33.095-.384-2.168c-.034.03-.078.035-.093.098-.056.235-1.81 1.84-2.048 1.852-1.4.065-.28-.48-2.17.525-.07-.787.054-.506.176-1.018.182-.764.026-.056-.13-.83l.272-2.097c-.535.465-1.55 3.13-1.995 3.95-1.638.2-1.01.187-1.445.268l-1.748.05c-.632.153.228.52-2.09.61l.857 1.084-2.264.62c-.667 1.547.503.27-2.54 1.376L3.57 14.13c.555.248.872.29 1.635.125.994-.216 1.01.072 1.984.01.72-.047 1.138-.258 1.737.112l1.414.832-1.274.913.578.28-.323.745c.856.088 1.81-.19 1.76.744-.065 1.196-1.38 2.32-1.594 3.526-.54 3.048.833 2.536-3.417 3.146.818.53.77-.147.857 1.198l.92.51c-.292.284-.695.265-1.1.326-.6.977.08.374-1.457 1.156l2.24.163c.478.78-.12 1.17-.43 1.754l-.128 2.137c-1.594.414-.86-1.002-1.973 4.12-.923 4.24-1.576 1.785-3.462 2.942 1.59.564 2 .26-.096 2.23l2.395.5-.357 1.296.572-.367-.542 2.516 1.41-1.62c1.46.033.647.31 2.29-1.504.874 1.928.34 3.507.137 5.883.414-.5.636-1.336.938-1.928l1.217-1.66c.755.058.462.17 1.207-.04l.285.75c.523-.762 1.02-2.798 2.45-1.965l-.03 1.033c1.327-.16 2.256-.235 3.655-.203.564.013 1.418-.038 1.93.02.535.06 1.015.31 1.718.338l7.243-.782c-.02-.306-.25-.443-.473-.703.307-.834.86-1.31 1.63-1.62.905-.364.424-.6 1.417-.853l.666-.26-2.437-1.056.476-.46-.682-.455.983-1.088-3.963-.49c-.707.018-1.432.107-2.136.07-1.714-.09-.67-.078-1.62.298-.514.203-1.425.123-2.02.165-.856.06-1.163.224-1.888.37l-3.865.496c.15-2.7.994-3.298 1.228-4.508.152-.785.002-1.89.273-2.604.355-.938 1.1-.75 2.137-.72 2.005.06 3.152-1.087 4.847.274.582.467 1.764.237 2.59.242l3.037.09c.667-.39.23-.6 1.357-.643l1.87-.252c-.034-.03-.095-.112-.12-.075-.022.036-.087-.056-.12-.07l-1.185-.215c-.667-.104-.53-.302-1.212-.432-.256-.05-1.185-.062-.577-.732l1.503-.203c.013-.028.025-.05.036-.063-.057-.034-.16-.134-.328-.38l3.15-1.35-1.88-1.23c.33-.318.203-.13.42-.265l.455-.342-1.418-.304c.133-.658.766-.563 1.622-.818-.73-.23-1.578.025-2.115-.5l-.25-.262c-1.128.03-1.922.264-2.966.4-1.258.166-1.603.598-2.942.395-2.56-.388-3.164-.18-5.59.42-.166-.875.306-1.206.48-1.866.24-.912-.378-.135.11-1.678l1.493-3.357c.957-.05 2.375-.096 3.29.07 1.33.238-.21.25 3.158.435 1.612.09 1.772.035 2.952-.544l3.543-.252-.607-.924 1.358-.173c-.31-.836-.352-1.258-1.042-1.82z"/>
</svg>
