<!--
  SVG Music Logos
  Led Zeppelin - Led Zeppelin II v1.0.0
  https://github.com/tiagoporto/svg-music-logos
  Copyright (c) 2016 Tiago Porto (http://tiagoporto.com)
-->
<svg xmlns="http://www.w3.org/2000/svg" viewBox="0 0 200 101.333">
  <path d="M19.99 49.383l-1.348 5.983H5.275V3.924h5.7v45.46h9.015z"/>
  <path d="M28.94 49.992c.682.503.736.81 2.93.81 1.185 0 3.137-.836 5.36-2.98l.47 5.596c-2.693 1.91-5.38 2.263-7.213 2.263-5.244 0-9.463-2.797-9.463-9.7 0-4.827 3.67-9.062 9.93-9.062 4.033 0 6.328 2.798 7.662 6.38l-9.676 6.694zm3.065-7.19c-1.183-.812-2.648-.884-4 .195-1.233.982-1.524 2.183-1.04 3.648l5.04-3.844z"/>
  <path d="M64.67 12.67h24.573L68.23 59.006h8.4L75.43 65.94h-17.01l21.92-47.672H62.804l1.866-5.6z"/>
  <path d="M161.06 10.858h5.12v54.924h-5.12z"/>
  <path d="M170.266 10.858h5.225v4.853h-5.224V10.86zm5.226 36.24h-5.225v18.684h5.225V47.098z"/>
  <path d="M185.333 48.876c1.23-1.578 2.637-2.265 4.965-2.265 3.887 0 5.035 2.473 5.035 7.598v11.574h-5.984v-9.92c0-1.208-.355-3.02-2.042-3.02-1.45 0-1.82 1.773-1.82 2.98v9.96h-5.642V47.098h5.486v1.778z"/>
  <path d="M52.632 3.924v34.102c-1.474-.826-3.464-1.24-5.153-1.24-4.088 0-8.41 4.043-8.41 9.29 0 7.596 4.357 9.92 8.41 9.92 1.652 0 3.843-1.087 5.152-2.81v2.18h5.645V3.925h-5.645zM48.674 50.47c-2.113 0-3.826-1.712-3.826-3.825 0-2.113 1.713-3.826 3.826-3.826S52.5 44.53 52.5 46.644c0 2.113-1.713 3.826-3.826 3.826z"/>
  <path d="M86.322 59.767c.682.503.736.81 2.93.81 1.185 0 3.137-.836 5.36-2.98l.47 5.596c-2.693 1.91-5.38 2.263-7.213 2.263-5.245 0-9.464-2.798-9.464-9.702 0-4.826 3.67-9.06 9.93-9.06 4.033 0 6.328 2.797 7.662 6.38l-9.676 6.693zm3.066-7.19c-1.183-.81-2.648-.883-4 .196-1.233.982-1.524 2.183-1.04 3.648l5.04-3.843z"/>
  <path d="M149.06 59.767c.683.503.737.81 2.93.81 1.186 0 3.138-.836 5.36-2.98l.47 5.596c-2.692 1.91-5.38 2.263-7.212 2.263-5.244 0-9.463-2.798-9.463-9.702 0-4.826 3.67-9.06 9.93-9.06 4.033 0 6.328 2.797 7.662 6.38l-9.676 6.693zm3.067-7.19c-1.183-.81-2.648-.883-4 .196-1.233.982-1.524 2.183-1.04 3.648l5.04-3.843z"/>
  <path d="M109.362 46.734c-2.72 0-4.565 1.074-5.32 2.428v-2.01h-5.905V97h5.904V64.242c.992.995 3.22 1.644 4.886 1.644 3.216 0 8.362-3.396 8.362-9.81 0-4.364-2.61-9.342-7.926-9.342zm-1.606 12.983c-1.923 0-3.482-1.56-3.482-3.482s1.56-3.482 3.482-3.482c1.923 0 3.482 1.56 3.482 3.482s-1.56 3.482-3.482 3.482z"/>
  <path d="M131.522 46.734c-2.72 0-4.565 1.074-5.32 2.428v-2.01h-5.905V97h5.904V64.242c.992.995 3.22 1.644 4.886 1.644 3.216 0 8.362-3.396 8.362-9.81 0-4.364-2.61-9.342-7.926-9.342zm-1.606 12.983c-1.923 0-3.482-1.56-3.482-3.482s1.56-3.482 3.482-3.482c1.923 0 3.482 1.56 3.482 3.482s-1.56 3.482-3.482 3.482z"/>
</svg>
