<!--
  SVG Music Logos
  Rush v1.1.0
  https://github.com/tiagoporto/svg-music-logos
  Copyright (c) 2016-2018 Tiago Porto (http://tiagoporto.com)
-->
<svg xmlns="http://www.w3.org/2000/svg" viewBox="0 0 200 129.25" class="rush">
  <path class="rush__shadow"
    d="M194.052 20.775c1.598 0 2.644-2.206 2.666-5.62.02-3.3-1.635-7.027-4.322-9.732-2.103-2.116-4.51-3.28-6.783-3.28-2.72 0-6.62.663-9.742 3.826-2.093 2.12-3.453 4.988-4.072 8.554l-5.926 11.99c-.068-9.193-.143-19.39-.143-19.764 0-1.43-1.054-3.03-2.463-3.03-.634 0-.685.04-3.36 2.124-3.575 2.787-10.716 8.352-15.098 10.183l1.437-6.733c.115-.223.23-.448.354-.667.512-.91 1.114-2.25.45-3.386-.38-.648-1.068-1.02-1.886-1.02-.11 0-.194.006-.24.01-2.744.23-6.957.343-12.88.343-3.307 0-6.52-.035-9.102-.063-1.714-.02-3.068-.033-4-.033-3.306 0-7.595 2.024-10.926 5.155-1.293 1.215-2.4 2.566-3.327 4.015V7.3c.025-.04.633-.818.633-1.637 0-.988-.832-1.91-2.255-1.91h-19.77c-1.186 0-1.663 1.33-1.68 1.393-.06-.205-.367-1.393-1.91-1.393H60.25s-1.223.68-1.438 1.39c-.23.757-.04 1.56.495 2.094.763.802 2.397 3.162 2.398 3.877-.026.736-1.002 4.882-1.648 7.626-.666 2.83-1.24 5.272-1.352 6.158-.033.265-.123.847-.237 1.584l-.054.35C56.9 18.84 52.89 12.826 46.447 8.92 40.58 5.36 34.063 4.403 29.63 4.227c-.38-.015-.765-.023-1.144-.023-13.155 0-23.946 9-26.242 21.888-.912 5.12.958 8.657 2.687 10.722.962 1.147 2.035 2.03 3.09 2.677l9.815 12.824c.307 12.998.68 33.91.097 45.652-.245 4.954-1.608 6.71-2.702 8.12-.142.182-.277.357-.403.528-.433.586-.486 1.344-.142 2.026.478.946 1.842 1.808 2.862 1.808.025 0 .05-.006.074-.007 6.32 4.148 21.53 13.092 22.36 13.312 1.052.278 1.73-.305 1.73-.305 4.452-5.473 14.46-9.765 15.305-10.396.844-.63-.096-2.034.748-2.034s14.332.214 14.758.16c.428-.053 1.12-.534.96-1.014-.16-.48-1.066-1.867-1.6-3.414 2.508 1.867 8.483 6.028 17.872 6.028 9.39 0 13.283-3.2 18.138-6.882 4.214 4.48 8.107 6.775 13.87 6.775 5.76 0 8.214-1.76 12.535-4.535.747 6.508-1.226 11.63-1.973 13.123-.747 1.494-2.08 2.774-2.348 3.947-.267 1.174 1.174 1.76 1.654 1.76s1.256-.254 1.872-1.055c2.565-3.335 11.945-9.324 16.465-12.286 1.815-1.19 3.395-3.198 3.395-3.198h15.99l22.588-17.846h.303c.72 0 1.37-.435 1.734-1.165.383-.766.36-1.562-.066-2.127-.02-.028-.086-.107-.193-.226-1.87-2.065-3.25-4.094-3.25-5.574V25.51l3.226-4.78c.117.027.238.045.362.045zM81.42 7.21l.024-.075c.05-.14.136-.387.198-.685.044.15.1.306.178.472.098.205.22.38.378.6.374.525.94 1.32.94 2.318l.06 6.792-1.78-9.423z" />

  <g class="rush__text" fill="#E74658">
    <path
      d="M84.923 71.002V9.842c0-1.88-1.542-3.164-1.736-3.57-.376-.79.113-.98.113-.98l19.767-.036c.406 0 .74.173.74.434 0 .54-2.997 4.31-2.997 7.253v42.31c0 2.042.51 6.133 1.55 7.354.815.954-.656.89-1.83 1.39-6.726 2.857-9.024 4.354-12.895 7.215-.4.255-1.143.86-1.73.86-.375 0-.982-.46-.982-1.07z" />
    <path
      d="M58.895 91.493c-.813 0-16.115.02-16.115.02l-.018.01c-.003 0-.01.003-.014.005-.01.004-.026.01-.042.014l-.026.007-.062.008-.034.003c-.033.002-.07 0-.108-.006-.006 0-.013-.003-.02-.004-.04-.01-.084-.022-.13-.043 0 0-.003 0-.004-.002-.046-.022-.093-.055-.14-.094l-.03-.022c-.046-.042-.094-.094-.142-.156-.01-.012-.018-.025-.027-.037-.05-.07-.1-.15-.15-.247-.378-.757.82-1.578.695-2.65-.09-.753-2.884-24.45-2.884-24.45s-.08-1.313-.64-1.966c-.024-.03-.062-.043-.112-.043-.047 0-.106.013-.17.036-.02.007-.046.02-.068.028-.05.02-.1.04-.156.07-.03.015-.063.034-.095.052-.055.03-.11.062-.172.1-.036.02-.073.044-.11.07-.064.038-.127.08-.194.123-.04.025-.08.05-.12.078l-.22.152-.112.076-.272.19-.415.293c-.958.67-2.086 1.204-2.086 2.466v22.217s.38 2.903 1.516 3.787c.822.64 1.39 1.01 2.02 2.02.552.883-1.003 1.782-2.02 2.272-4.713 2.272-12.863 7.367-18.505 13.013-.034.035-.092.052-.164.052-.534 0-1.896-.886-1.502-1.42 1.147-1.554 3.1-3.41 3.4-9.472.886-17.918-.412-56.2-.395-57.714.04-3.912-.842-5.553-.842-5.553s-.463-.715.547-1.22c.73-.365 10.393-4.502 14.18-8.163l.14-.132.04-.036.1-.088.048-.04c.03-.026.062-.052.093-.076l.046-.037.097-.07c.012-.01.025-.018.037-.027.088-.06.174-.108.254-.143l.035-.013c.028-.01.056-.02.083-.028l.038-.01c.025-.004.05-.007.072-.008h.033c.044 0 .084.008.122.023.006.002.012.006.018.01.034.016.064.04.093.07l.016.015c.03.036.055.08.078.134l.015.037c.022.06.042.125.056.205.25 1.43 0 19.885 0 20.98 0 .562.165.72.66.72 2.516 0 7.498-5.448 7.498-11.902 0-7.527-7-14.432-13.668-14.432-7.088 0-14.176 4.09-15.277 13.386-.3 2.536 1.767 3.87 1.767 3.87-.122 1.35-.99 1.62-2.672 1.62-3.345 0-9.21-3.89-9.21-9.32 0-15.14 12.792-24.884 26.02-24.364 7.14.284 23.46 2.903 27.225 20.752.058.278.113.56.165.845.075.406.147.814.21 1.235.023.158.042.32.064.482.073.55.14 1.104.19 1.68-.504 12.117-4.29 13.632-6.058 17.42 0 0 5.487 31.262 5.807 33.07 1.326 7.512 3.318 8.19 3.472 9.468.01.084.01.156.01.23 0 .424-.454.57-1.757.57z" />
    <path
      d="M139.544 24.807c-1.993-2.498-7.55-4.046-11.18-4.046-4.166 0-8.962 2.02-8.962 5.05s.63 4.04 11.74 9.09 15.4 13.632 16.41 15.273c.062-8.994.062-25.5.062-27.58 0-1.415-1.69-2.326-2.46-2.84-.148-.1-1.36-.96-1.36-1.517 0-.267.74-.482.91-.544 6.187-2.212 18.133-12.456 18.563-12.456.442 0 .947.82.947 1.515 0 .422.093 12.966.166 22.785l.02 2.612.066 8.798v.203s2.13.032 4.26.032 4.26-.032 4.26-.158c0-.252-.062-9.846-.062-21.712 0-2.883.4-5.285 1.093-7.276l-.033-.012c2.09-6.194 6.95-8.365 11.63-8.365 4.578 0 9.624 6.127 9.59 11.487-.02 2.923-.857 4.116-1.15 4.116-.02 0-.035-.005-.05-.014-.023-.016-.05-.037-.077-.055-.04-.037-.088-.084-.155-.15-.268-.257-.726-.398-1.08-.474-.306-.083-.67-.14-1.128-.14h-.02c-2.146-.127-2.777 2.145-2.777 2.587 0 .442-.04 54.97.367 62.556.168 3.143 3.438 6.46 3.563 6.627.107.143-.063.683-.324.83-.042.024-.086.04-.132.04-.33 0-22.285-.125-22.285-.125-.538 0-.663-.746-.083-1.325 3.304-3.304 3.23-8.12 3.306-10.033.025-.63-.042-21.25-.042-21.543 0-.293 0-.883-.17-.883-.168 0-7.56.037-7.986.037-.426 0-.513.3-.513.3s.35 28.466.51 31.964c.163 3.498 1.67 3.928 1.83 4.36.16.43-.243.87-.7 1.02-9.656 3.24-18.775 11.803-18.97 11.976-.193.173-1.12 1.49-1.83 1.59-.012.002-.03.002-.046 0-.01 0-.023 0-.035-.002-.012 0-.024-.002-.036-.004-.015-.002-.03-.005-.046-.01-.014-.002-.028-.005-.042-.01-.016-.003-.034-.008-.05-.013l-.048-.015c-.018-.006-.036-.012-.054-.02-.017-.005-.035-.012-.052-.02l-.055-.024-.055-.027-.054-.03c-.02-.01-.037-.022-.056-.033-.017-.01-.035-.02-.05-.033-.02-.012-.037-.026-.055-.04-.016-.01-.032-.023-.047-.036l-.05-.045c-.015-.013-.03-.026-.042-.04l-.045-.052c-.013-.013-.025-.028-.036-.042-.013-.02-.025-.038-.036-.058-.01-.015-.02-.03-.027-.046-.01-.02-.017-.043-.025-.065-.005-.017-.013-.033-.017-.05-.006-.023-.01-.048-.012-.073-.002-.017-.006-.033-.007-.05-.002-.027 0-.054.004-.08 0-.018 0-.035.004-.053.005-.03.016-.062.027-.094.005-.016.008-.03.014-.046.02-.048.044-.098.075-.15 5.175-8.33 4.26-17.726 3.924-27.572-4.21 6.732-12.593 12.593-21.682 12.593-9.004 0-13.212-3.787-17.504-7.658-3.282 3.45-9.215 7.995-19.524 7.995-16.033 0-31.71-9.648-31.71-47.28 0-9.566 5.358-34.056 5.358-34.056.057-1.59-2.557-4.716-2.84-5-.285-.284-.115-.852.17-.91.095-.018 2.234-.024 5.046-.024 5.622 0 13.93.025 13.93.025s.7-.086.7.372c0 1.648-6.59 22.957-6.59 42.902 0 10.904 2.03 27.897 18.503 27.897 7.742 0 11.36-4.072 11.36-4.072-.03-1.073-.094-1.662-.03-2.746.537-9.24 6.973-15.316 14.968-15.316s10.94 5.89 11.276 9.846c.337 3.955-4.71 7.07-5.3 7.07-.763 0-.337-1.936-.253-2.357s-.147-3.534-3.618-3.534c-3.11 0-4.04 3.762-4.04 5.22 0 .42-.394 6.9 8.92 6.9 9.425 0 10.772-8.95 10.772-11.277 0-7.89-5.632-14.37-11.613-17.588-11.11-5.975-21.63-12.118-21.63-24.068 0-11.3 9.284-18.514 15.99-18.514 3.078 0 7.622.096 13.102.096 4.793 0 9.74-.074 13.008-.35.02 0 .06-.004.114-.004.31 0 1.04.132.412 1.562h-.002c-.078.178-.17.37-.294.59-4.04 7.194-4.116 15.758-4.166 16.41-.028.367-.23.607-.582.697-.108.027-.695.18-.988-.188z" />
  </g>
</svg>