<!--
  SVG Music Logos
  Bon Jovi - Crush v1.0.0
  https://github.com/tiagoporto/svg-music-logos
  Copyright (c) 2016 Tiago Porto (http://tiagoporto.com)
-->
<svg xmlns="http://www.w3.org/2000/svg" viewBox="0 0 200 137">
  <path d="M9.96 4.234V52.77h13.7l10.323-.43c3.195-.306 5.837-.982 7.803-2.026 4.178-2.15 6.267-5.96 6.267-11.366 0-3.564-.922-6.574-2.888-8.725-1.966-2.15-4.73-3.256-8.11-3.563 3.195-.922 5.468-2.15 6.758-3.687 1.352-1.66 2.09-3.81 2.09-6.574 0-4.978-2.274-8.48-6.882-10.446-2.58-1.106-7.25-1.72-14.315-1.72H9.96zm14.93 19.353h-2.642V13.88h2.826l6.267.8c1.414.736 2.152 2.15 2.152 4.116 0 1.905-.737 3.256-2.273 3.993-1.23.49-3.38.797-6.33.797zM35.52 37.84c0 1.906-.677 3.257-2.213 3.995-1.352.676-3.502.983-6.45.983h-4.61V32.312h4.793c3.072 0 5.223.307 6.328.983 1.475.737 2.15 2.273 2.15 4.546z"/>
  <path d="M78.957 10.562C73.92 15.478 71.4 21.56 71.4 28.626c0 8.05 3.072 14.623 9.278 19.66 5.038 3.872 10.568 5.837 16.59 5.837 7.065 0 13.21-2.58 18.43-7.618 5.04-4.793 7.497-10.814 7.497-17.88 0-7.065-2.458-13.147-7.496-18.063-5.223-4.976-11.367-7.434-18.433-7.434-7.067 0-13.21 2.458-18.31 7.434zm27.463 7.987c2.335 2.763 3.564 6.082 3.564 10.075 0 3.994-1.23 7.373-3.564 10.137-2.396 2.765-5.468 4.055-9.154 4.055-3.748 0-6.943-1.29-9.278-4.055-2.273-2.764-3.38-6.143-3.38-10.137 0-3.994 1.107-7.373 3.44-10.138 2.46-2.765 5.53-4.24 9.218-4.24 3.625.002 6.697 1.476 9.154 4.302z"/>
  <path d="M161.286 4.234h-12.72V52.77h12.72V22.313s2.95 4.53 3.686 5.392l18.432 25.067H196V4.235h-12.595v30.703s-3.072-4.9-3.686-5.698L161.285 4.233z"/>
  <path d="M32.692 84.106v31.457c0 5.222-.737 9.093-2.09 11.55-2.518 4.486-6.635 6.76-12.35 6.76-6.08 0-10.874-2.58-14.253-7.68l7.107-6.463c1.205 2.644 2.723 3.574 5.058 3.574 1.536 0 2.458-1.106 2.888-3.256.307-1.413.492-4.485.492-9.34V84.107h13.147z"/>
  <path d="M78.035 83c-7.19 0-13.333 2.458-18.432 7.434-5.038 4.915-7.557 10.875-7.557 17.94 0 8.112 3.133 14.624 9.523 19.662 4.79 3.87 10.32 5.837 16.465 5.837 7.066 0 13.21-2.458 18.31-7.373 5.037-4.915 7.617-10.936 7.617-18.125 0-7.065-2.58-13.025-7.618-17.94C91.244 85.457 85.1 83 78.034 83zm-9.34 35.635c-2.334-2.703-3.44-6.082-3.44-10.26 0-3.994 1.23-7.25 3.564-10.015 2.333-2.765 5.406-4.117 9.215-4.117 3.564 0 6.635 1.352 9.093 4.117 2.396 2.765 3.502 6.02 3.502 10.015 0 4.117-1.106 7.496-3.502 10.137-2.334 2.765-5.407 4.178-9.093 4.178-3.81 0-6.942-1.29-9.34-4.055z"/>
  <polygon points="166.693 84.106 146.357 132.644 136.219 132.644 115.821 84.106 129.952 84.106 139.66 111.263 141.318 116.458 142.977 111.263 152.562 84.106 166.693 84.106"/>
  <polygon points="195.816 84.106 195.816 132.644 182.483 132.644 182.483 84.106 195.816 84.106"/>
</svg>
