<!--
  SVG Music Logos
  Chickenfoot - III v1.0.0
  https://github.com/tiagoporto/svg-music-logos
  Copyright (c) 2016 Tiago Porto (http://tiagoporto.com)
-->
<svg xmlns="http://www.w3.org/2000/svg" viewBox="0 10 200 181">
  <path d="M14.377 161.433h169.155c5.74-.07 13.303-6.517 13.303-12.695V26.083c0-8.176-6.527-15.067-14.573-15.067H15.812c-6.874 0-14.5 4.472-14.5 14.36 0 6.69.052 111.548.052 121.374 0 10.31 6.335 14.683 13.013 14.683zm28.943-20.12l42.13-41.914v41.912H43.32zm68.985-42.78l42.546 42.776.004.002h-42.57s.012-19.855.02-42.778zm55.335-67.57c5.807 0 9.296 4.743 9.296 8.864v92.093c0 .544-.24.644-.544.228-.023-.03-64.08-64.165-64.08-64.165l-.03-37.02h55.358zm-82.19 0v37.38c-3.703 3.7-64.084 63.92-64.215 64.03-.1-1.78-.064-88.72-.064-92.84 0-4.943 2.913-8.57 8.996-8.57H85.45z"/>
  <g>
    <polygon points="33.474,180.892 24.071,180.93 24.071,176.175 20.396,176.175 20.396,189.357 24.071,189.357 24.071,184.022 33.474,184.03 33.474,189.357 37.162,189.357 37.162,176.175 33.474,176.175"/>
    <path d="M40.73 176.175v13.182h3.696s.03-13.132 0-13.182H40.73z"/>
    <path d="M79.077 180.915c-1.263-.618-6.862-4.792-6.862-4.792l-5.3-.15s7.94 5.526 8.478 6.3l-9.34 7.208 5.426-.216s6.52-4.895 7.597-5.17v5.27l3.472-.063v-13.114l-3.473.004v4.725z"/>
    <polygon points="86.655,189.403 100.786,189.403 100.786,186.686 90.253,186.686 90.253,183.864 96.221,183.864 96.221,181.082 90.253,181.082 90.253,178.775 100.786,178.763 100.786,176.123 86.655,176.123"/>
    <polygon points="117.596,184.311 107.422,176.288 103.956,176.288 103.956,189.479 107.569,189.479 107.569,181.079 118.33,189.479 120.767,189.479 120.767,176.288 117.596,176.288"/>
    <polygon points="124.529,189.391 128.204,189.391 128.204,184.731 133.752,184.731 133.752,181.828 128.204,181.828 128.204,178.866 138.613,178.866 138.613,176.196 124.529,176.196"/>
    <polygon points="181.501,176.249 181.501,179.064 187.751,179.064 187.751,189.562 191.224,189.562 191.224,179.064 197.357,179.064 197.357,176.249"/>
    <path d="M175.508 176.243h-10.306c-2.597 0-3.373 1.158-3.373 2.75v7.54c0 1.926 1.056 2.815 2.784 2.815h11.5c1.332 0 2.705-.56 2.705-2.347v-8.006c0-1.997-1.067-2.75-3.312-2.75zm.214 9.638c0 .762-.263.99-.995.99h-8.63c-.73 0-.994-.23-.994-.99v-6.12c0-.76.263-.99.995-.99h8.63c.73 0 .994.23.994.99v6.12z"/>
    <path d="M155.087 176.243H144.78c-2.596 0-3.372 1.158-3.372 2.75v7.54c0 1.926 1.057 2.815 2.785 2.815h11.5c1.332 0 2.705-.56 2.705-2.347v-8.006c0-1.997-1.066-2.75-3.31-2.75zm.214 9.638c0 .762-.262.99-.994.99h-8.63c-.73 0-.994-.23-.994-.99v-6.12c0-.76.263-.99.995-.99h8.63c.73 0 .994.23.994.99v6.12z"/>
    <path d="M48.728 178.993v7.538c0 1.928 1.057 2.817 2.785 2.817h12.11v-2.476H52.996c-.732 0-.995-.23-.995-.99v-6.12c0-.76.263-.99.995-.99H63.62v-2.527H52.1c-2.596 0-3.372 1.158-3.372 2.75z"/>
    <path d="M2 178.993v7.538c0 1.928 1.058 2.817 2.786 2.817h12.11v-2.476H6.27c-.73 0-.994-.23-.994-.99v-6.12c0-.76.263-.99.995-.99h10.625v-2.527H5.375c-2.598 0-3.374 1.158-3.374 2.75z"/>
  </g>
</svg>
