<!--
  SVG Music Logos
  Meshuggah - Nothing v1.0.0
  https://github.com/tiagoporto/svg-music-logos
  Copyright (c) 2016 Tiago Porto (http://tiagoporto.com)
-->
<svg xmlns="http://www.w3.org/2000/svg" viewBox="0 0 200 36">
  <path d="M101.06 2.655h8.438v1.704h-8.438z"/>
  <path d="M102.946 27.38c-2.42-.081-10.83-1.19-11.221-12.528 0 0-.066-6.033 4.393-10.885V2.523H79.615v1.706h10.497c1.008 0 1.905.545 1.48 1.77-.743 2.149-4.393 6.296-3.475 12.396.888 5.905 6.027 10.386 13.141 10.663l1.681.026h5.51V27.38h-5.503z"/>
  <path d="M144.98 15.245h2.471v13.839h6.514V27.38h-2.294V15.245h2.294v-1.704h-8.985z"/>
  <path d="M14.596 27.839l8.533-23.544h4.279V2.587h-5.466l-6.525 17.888L7.47 2.762l-.088.008v-.093H1v1.704h2.054v22.343h-1.88v1.707h5.508v-1.707H4.758V6.435z"/>
  <path d="M72.181 9.474h13.444V7.77H72.181V4.229h2.23V2.523h-8.439v1.706h2.01V26.724h-2.01v1.707h8.439v-1.707h-2.23z"/>
  <path d="M190.562 27.598H199v1.704h-8.438z"/>
  <path d="M190.562 3.377H199v1.704h-8.438z"/>
  <path d="M183.785 10.35h13.447V8.646h-13.447V5.103h2.23V3.398h-8.438v1.705h2.01v22.495h-11.826v1.704h18.254v-1.704h-2.23z"/>
  <path d="M58.67 10.13C46.154 7.388 45.094 1.342 45.094 1.342h-1.706v1.245H28.655v1.709h1.485v5.162h.033v.017h11.969c3.737 0 4.395 3.934 4.395 3.934h1.048c-.13-2.228-2.951-6.687-2.951-6.687h-1.639V7.77h-8.657V4.295h7.281c2.557 0 2.754.985 2.754.985 6.362 10.95 18.954 3.998 18.954 16.067 0 12.067-15.281 12.329-15.281 12.329v.982c21.972-.064 24.396-21.51 10.624-24.528z"/>
  <path d="M149.768 9.867h1.574s-1.903-6.623-3.411-7.475h-.985v1.444s-12.013-1.108-15.52 9.508h-9.051v1.706h2.206v12.33h-.912c-2.42-.081-10.826-1.19-11.221-12.528 0 0-.002-.444.077-1.179h-3.524a12.987 12.987 0 0 0-.162 4.722c.92 6.099 6.362 10.689 13.839 10.689h8.464V27.38h-2.362V15.051h6.36s.199-7.936 9.38-9.25c.001 0 3.674-1.049 5.248 4.066z"/>
  <path d="M161.025 10.523h12.944V5.079h2.821V3.377h-7.15v.015c-1.585.152-12.566 1.55-14.76 11.526 0 0-1.519 8.88 4.145 12.462h-4.252v1.704h8.043v-1.64c.001 0-9.028-6.892-1.791-16.921zm1.703-1.704c1.553-1.341 4.092-3.114 7.046-3.528v3.528h-7.046z"/>
  <path d="M19.079 26.724h29.695v1.706H19.079z"/>
  <path d="M78.96 26.724h8.641v1.706H78.96z"/>
</svg>
