<!--
  SVG Music Logos
  Mixhell - Elastic Artists v1.0.0
  https://github.com/tiagoporto/svg-music-logos
  Copyright (c) 2016 Tiago Porto (http://tiagoporto.com)
-->
<svg xmlns="http://www.w3.org/2000/svg" viewBox="0 0 182 200">
  <path d="M148.21 100l29.88-51.707-44.832 25.833L91 1 48.742 74.127 3.912 48.293 33.79 100 3.91 151.707l44.83-25.833L91 199l42.258-73.127 44.83 25.833L148.21 100zm23.548-45.187l-24.885 42.875-12.335-21.346 37.22-21.53zM145.548 100l-12.942 22.552L93.196 100l39.41-22.552L145.546 100zM91 4.938l40.336 70.297L91 98.477 50.664 75.234 91 4.938zM88.804 100l-39.41 22.552L36.454 100l12.94-22.552L88.804 100zM10.242 54.736l37.22 21.607-12.335 21.345-24.885-42.952zm.618 89.868l24.267-42.292 12.335 21.346-36.602 20.946zM91 195.062l-40.336-70.297L91 101.523l40.336 23.243L91 195.062zm55.873-92.75l24.267 42.292-36.602-20.946 12.335-21.346z"/>
  <polygon points="32.76 70.027 31.157 76.147 29.553 70.027 25.374 70.027 25.374 80.207 27.98 80.207 27.98 72.454 29.913 80.207 32.318 80.207 34.228 72.454 34.228 80.207 36.835 80.207 36.835 70.027"/>
  <rect x="90.084" y="39.88" width="3.158" height="10.18"/>
  <polygon points="157.227 80.207 153.766 74.925 156.935 70.027 153.44 70.027 151.653 73.106 149.845 70.027 146.35 70.027 149.541 74.901 146.159 80.207 149.575 80.207 151.564 76.971 153.631 80.207"/>
  <polygon points="30.72 121.673 30.72 125.175 27.421 125.175 27.421 121.673 24.263 121.673 24.263 131.584 27.421 131.584 27.421 127.601 30.72 127.601 30.72 131.584 33.878 131.584 33.878 121.673"/>
  <polygon points="89.303 159.542 89.303 157.622 94.071 157.622 94.071 155.567 89.303 155.567 89.303 154.025 94.448 154.025 94.448 151.87 89.303 151.87 88.173 151.87 86.145 151.87 86.145 161.78 88.173 161.78 89.303 161.78 94.576 161.78 94.576 159.542"/>
  <rect x="149.26" y="121.673" width="3.047" height="9.911"/>
  <rect x="154.196" y="121.673" width="3.047" height="9.911"/>
</svg>
