<?xml version="1.0" encoding="utf-8"?>
<!-- Generator: Adobe Illustrator 22.1.0, SVG Export Plug-In . SVG Version: 6.00 Build 0)  -->
<svg version="1.1" id="Layer_1" xmlns="http://www.w3.org/2000/svg" xmlns:xlink="http://www.w3.org/1999/xlink" x="0px" y="0px"
	 viewBox="0 0 399.1 104.4" style="enable-background:new 0 0 399.1 104.4;" xml:space="preserve">
<style type="text/css">
	.st0{fill:#5486F7;}
	.st1{fill:#FFFFFF;}
	.st2{enable-background:new    ;}
</style>
<g>
	<g>
		<g>
			<path class="st0" d="M33.6,37.6v0.5c9.9-14.4,26.5-23.9,45.3-23.9s35.4,9.5,45.3,23.9v-0.5c0-2,1.7-3.7,3.7-3.7h4
				C120.5,16.8,101,5.5,78.9,5.5s-41.6,11.3-53,28.4h4C32,33.9,33.6,35.6,33.6,37.6z"/>
			<path class="st0" d="M147.4,34.7l-2.7-0.9l-7.3,0.2h-5.5h-4c-2,0-3.7,1.6-3.7,3.7v0.5v44.7c0,2.1,1.6,3.7,3.6,3.7h3.1h9.1h2.9
				c8.3,0,14.9-6.7,14.9-14.9V49.1C157.9,42.4,153.7,36.6,147.4,34.7z M150.6,71.6c0,4.2-3.4,7.7-7.7,7.7h-1.3h-8.8h-1.3V53.6V41.3
				h4.5h6.9c4.2,0,7.7,3.4,7.7,7.7L150.6,71.6L150.6,71.6z"/>
			<path class="st0" d="M30,86.5c2,0,3.7-1.6,3.7-3.7V38.1v-0.5c0-2-1.6-3.7-3.7-3.7h-4h-5.5l-7.4-0.2l-2.7,0.9
				C4.2,36.6,0,42.3,0,48.9v22.6c0,8.3,6.7,14.9,14.9,14.9h2.9h9.1H30V86.5z M14.9,79.1c-4.2,0-7.7-3.4-7.7-7.7V48.8
				c0-4.2,3.4-7.7,7.7-7.7h6.9h4.5v0.1v12.3V79H25h-8.8h-1.3V79.1z"/>
		</g>
		<g>
			<path class="st0" d="M78.9,104.4c-12.1,0-22.1-8.6-22.1-19.2c0-1.6,1.4-2.9,3.2-2.9s3.2,1.2,3.2,2.9c0,7.3,7.1,13.4,15.7,13.4
				s15.7-5.9,15.7-13.4c0-1.6,1.4-2.9,3.2-2.9s3.2,1.2,3.2,2.9C101,95.9,91,104.4,78.9,104.4z"/>
			<g>
				<path class="st0" d="M63.3,65.4c0,1.5-0.4,2.9-1.2,4.1s-1.9,2.2-3.5,2.9s-3.3,1-5.4,1c-2.5,0-4.6-0.4-6.2-1.4
					c-1.2-0.7-2.1-1.6-2.8-2.7s-1.1-2.2-1.1-3.3c0-0.6,0.2-1.2,0.7-1.6c0.4-0.4,0.9-0.7,1.6-0.7c0.5,0,1,0.1,1.4,0.5
					s0.7,0.9,0.9,1.5c0.3,0.8,0.7,1.5,1,2c0.4,0.5,0.9,0.9,1.5,1.3c0.7,0.4,1.5,0.5,2.7,0.5c1.5,0,2.7-0.4,3.7-1
					c0.9-0.7,1.4-1.6,1.4-2.7c0-0.8-0.2-1.5-0.7-2.1c-0.5-0.5-1.2-0.9-2-1.2c-0.8-0.3-1.9-0.6-3.2-0.9c-1.8-0.4-3.3-0.9-4.6-1.5
					c-1.2-0.6-2.2-1.3-2.9-2.4c-0.7-0.9-1.1-2.2-1.1-3.7c0-1.4,0.4-2.7,1.1-3.7c0.7-1.1,1.8-1.9,3.3-2.5s3.2-0.9,5.1-0.9
					c1.5,0,2.9,0.2,4.1,0.6c1.1,0.4,2.1,0.9,2.8,1.5c0.7,0.7,1.3,1.3,1.6,2c0.4,0.7,0.5,1.4,0.5,2.1c0,0.6-0.2,1.2-0.7,1.6
					c-0.4,0.5-0.9,0.7-1.6,0.7c-0.6,0-1-0.1-1.3-0.4s-0.7-0.8-0.9-1.5c-0.4-0.9-1-1.7-1.7-2.2s-1.7-0.8-3.1-0.8
					c-1.3,0-2.4,0.3-3.2,0.9s-1.2,1.2-1.2,2.1c0,0.5,0.1,0.9,0.4,1.3c0.3,0.4,0.7,0.7,1.1,0.9c0.5,0.3,0.9,0.4,1.5,0.6
					c0.5,0.1,1.3,0.4,2.4,0.7c1.4,0.4,2.7,0.7,3.9,1.1s2.1,0.9,2.9,1.5s1.5,1.3,1.9,2.2C63.1,63.1,63.3,64.2,63.3,65.4z"/>
				<path class="st0" d="M73.2,54.6l5.7,17l5.7-17.1c0.3-0.9,0.5-1.5,0.7-1.8c0.1-0.3,0.4-0.7,0.7-0.9c0.4-0.3,0.8-0.4,1.4-0.4
					c0.4,0,0.8,0.1,1.2,0.3c0.4,0.2,0.7,0.5,0.9,0.9s0.3,0.7,0.3,1.1c0,0.2,0,0.5-0.1,0.8s-0.1,0.6-0.3,0.9
					c-0.1,0.3-0.2,0.6-0.3,0.9L83,72.9c-0.2,0.7-0.4,1.2-0.7,1.8s-0.4,1.1-0.7,1.5s-0.7,0.8-1.2,1c-0.4,0.3-1,0.4-1.8,0.4
					c-0.7,0-1.2-0.1-1.8-0.4c-0.4-0.3-0.9-0.7-1.2-1.1s-0.5-0.9-0.7-1.5s-0.4-1.2-0.7-1.8l-6-16.4c-0.1-0.3-0.2-0.6-0.3-0.9
					s-0.2-0.6-0.3-0.9c-0.1-0.4-0.1-0.6-0.1-0.8c0-0.6,0.2-1.1,0.7-1.6c0.4-0.5,1-0.7,1.8-0.7c0.9,0,1.5,0.3,1.8,0.8
					C72.4,52.6,72.8,53.4,73.2,54.6z"/>
				<path class="st0" d="M114.7,62.8v4.9c0,0.7-0.1,1.2-0.2,1.5s-0.3,0.7-0.7,1c-0.3,0.3-0.7,0.6-1.2,0.9c-1.4,0.8-2.7,1.4-3.9,1.8
					s-2.6,0.6-4.1,0.6c-1.7,0-3.3-0.3-4.7-0.9s-2.6-1.5-3.6-2.6s-1.8-2.5-2.3-4.1s-0.8-3.5-0.8-5.4c0-2,0.3-3.8,0.8-5.4
					s1.3-3,2.3-4.2s2.2-2,3.7-2.7c1.4-0.6,3.1-0.9,4.9-0.9c1.5,0,2.9,0.2,4,0.7c1.2,0.4,2.1,1,2.8,1.7s1.2,1.4,1.6,2.2
					c0.4,0.7,0.5,1.5,0.5,2.1c0,0.7-0.2,1.2-0.7,1.6c-0.4,0.4-0.9,0.7-1.5,0.7c-0.3,0-0.7-0.1-0.9-0.3c-0.3-0.1-0.5-0.4-0.8-0.7
					c-0.6-0.9-1-1.8-1.4-2.3s-0.9-0.9-1.6-1.2c-0.7-0.4-1.5-0.5-2.5-0.5s-2,0.2-2.8,0.6s-1.6,1-2.1,1.8c-0.6,0.8-1,1.8-1.4,2.9
					c-0.3,1.1-0.4,2.4-0.4,3.8c0,2.9,0.6,5.2,1.8,6.8c1.3,1.6,2.9,2.4,5.1,2.4c1,0,2-0.1,2.9-0.4s1.9-0.7,2.8-1.3v-4.1h-3.5
					c-0.8,0-1.5-0.1-1.9-0.4s-0.7-0.8-0.7-1.5c0-0.6,0.2-1,0.5-1.4c0.4-0.4,0.8-0.6,1.5-0.6h5.1c0.7,0,1.2,0.1,1.6,0.2
					c0.4,0.1,0.8,0.4,1,0.9C114.5,61.2,114.7,61.9,114.7,62.8z"/>
			</g>
		</g>
		<g>
			<rect x="27.6" y="6.2" class="st0" width="102.5" height="4.1"/>
			<circle class="st0" cx="22.4" cy="8.1" r="6.1"/>
			<circle class="st0" cx="135.4" cy="8.1" r="6.1"/>
			<rect x="72.8" y="2" class="st1" width="12.2" height="12.2"/>
			<path class="st0" d="M87.1,16.3H70.8V0h16.3V16.3z M74.9,12.2h8.2V4h-8.2V12.2z"/>
		</g>
	</g>
	<g class="st2">
		<path d="M181.3,70.7l-4-16V72c0,1-0.2,1.7-0.6,2.2c-0.4,0.5-1,0.7-1.7,0.7c-0.7,0-1.2-0.2-1.7-0.7c-0.4-0.5-0.6-1.2-0.6-2.2V52.2
			c0-1.1,0.3-1.8,0.9-2.2c0.6-0.4,1.3-0.6,2.3-0.6h1.6c0.9,0,1.6,0.1,2.1,0.3c0.4,0.2,0.7,0.5,0.9,0.9s0.4,1.2,0.7,2.2l3.6,13.7
			l3.6-13.7c0.3-1,0.5-1.7,0.7-2.2s0.5-0.8,0.9-0.9c0.4-0.2,1.1-0.3,2.1-0.3h1.6c1,0,1.7,0.2,2.3,0.6s0.9,1.1,0.9,2.2V72
			c0,1-0.2,1.7-0.6,2.2c-0.4,0.5-1,0.7-1.7,0.7c-0.7,0-1.2-0.2-1.7-0.7c-0.4-0.5-0.6-1.2-0.6-2.2V54.7l-4,16c-0.3,1-0.5,1.8-0.6,2.3
			c-0.2,0.5-0.5,0.9-0.9,1.3c-0.4,0.4-1.1,0.6-1.8,0.6c-0.6,0-1.1-0.1-1.5-0.4c-0.4-0.3-0.7-0.6-1-1c-0.2-0.4-0.4-0.8-0.5-1.3
			C181.6,71.7,181.5,71.2,181.3,70.7z"/>
		<path d="M200.1,64.1v-12c0-1,0.2-1.8,0.7-2.3c0.5-0.5,1.1-0.8,1.8-0.8c0.8,0,1.4,0.3,1.9,0.8c0.5,0.5,0.7,1.3,0.7,2.3v12.3
			c0,1.4,0.2,2.6,0.5,3.5c0.3,0.9,0.9,1.7,1.7,2.2c0.8,0.5,1.9,0.8,3.3,0.8c2,0,3.4-0.5,4.2-1.6c0.8-1.1,1.2-2.7,1.2-4.8V52.1
			c0-1,0.2-1.8,0.7-2.3s1.1-0.8,1.8-0.8c0.8,0,1.4,0.3,1.9,0.8s0.7,1.3,0.7,2.3v12c0,2-0.2,3.6-0.6,4.9s-1.1,2.5-2.2,3.5
			c-0.9,0.8-2,1.5-3.2,1.8c-1.2,0.4-2.6,0.6-4.2,0.6c-1.9,0-3.6-0.2-5-0.6c-1.4-0.4-2.5-1.1-3.4-1.9s-1.5-2-1.9-3.3
			C200.3,67.6,200.1,66,200.1,64.1z"/>
		<path d="M243.6,66.9c0,1.5-0.4,2.9-1.2,4.1c-0.8,1.2-1.9,2.2-3.4,2.8c-1.5,0.7-3.3,1-5.3,1c-2.5,0-4.5-0.5-6.1-1.4
			c-1.1-0.7-2.1-1.6-2.8-2.7c-0.7-1.1-1.1-2.2-1.1-3.3c0-0.6,0.2-1.1,0.6-1.6c0.4-0.4,1-0.7,1.6-0.7c0.5,0,1,0.2,1.4,0.5
			c0.4,0.3,0.7,0.8,0.9,1.5c0.3,0.8,0.7,1.5,1,2s0.9,1,1.6,1.3c0.7,0.3,1.6,0.5,2.6,0.5c1.5,0,2.7-0.3,3.7-1.1
			c0.9-0.7,1.4-1.6,1.4-2.6c0-0.8-0.3-1.5-0.8-2c-0.5-0.5-1.2-0.9-2-1.2s-1.9-0.6-3.2-0.9c-1.8-0.4-3.3-0.9-4.5-1.5
			c-1.2-0.6-2.2-1.3-2.9-2.3s-1.1-2.2-1.1-3.6c0-1.4,0.4-2.6,1.1-3.7c0.8-1.1,1.8-1.9,3.3-2.5c1.4-0.6,3.1-0.9,5-0.9
			c1.5,0,2.9,0.2,4,0.6s2.1,0.9,2.8,1.5c0.7,0.6,1.3,1.3,1.6,2c0.3,0.7,0.5,1.4,0.5,2c0,0.6-0.2,1.1-0.6,1.6c-0.4,0.5-1,0.7-1.6,0.7
			c-0.6,0-1-0.1-1.3-0.4c-0.3-0.3-0.6-0.8-1-1.4c-0.5-0.9-1-1.7-1.6-2.2s-1.7-0.8-3.1-0.8c-1.3,0-2.4,0.3-3.2,0.9
			c-0.8,0.6-1.2,1.3-1.2,2.1c0,0.5,0.1,0.9,0.4,1.3c0.3,0.4,0.6,0.7,1.1,0.9c0.5,0.3,1,0.5,1.5,0.6c0.5,0.1,1.3,0.4,2.4,0.6
			c1.4,0.3,2.7,0.7,3.8,1.1c1.1,0.4,2.1,0.9,2.9,1.5s1.4,1.3,1.9,2.2S243.6,65.7,243.6,66.9z"/>
		<path d="M246.2,71.8V52.1c0-1,0.2-1.8,0.7-2.3c0.5-0.5,1.1-0.8,1.8-0.8c0.8,0,1.4,0.3,1.9,0.8s0.7,1.3,0.7,2.3v19.7
			c0,1-0.2,1.8-0.7,2.3s-1.1,0.8-1.9,0.8c-0.7,0-1.3-0.3-1.8-0.8C246.4,73.6,246.2,72.8,246.2,71.8z"/>
		<path d="M276.2,66.5c0,0.8-0.2,1.7-0.6,2.6c-0.4,0.9-1,1.8-1.9,2.7c-0.8,0.9-1.9,1.6-3.2,2.2s-2.8,0.8-4.6,0.8
			c-1.3,0-2.5-0.1-3.6-0.4c-1.1-0.2-2.1-0.6-2.9-1.2c-0.9-0.5-1.7-1.2-2.4-2.1c-0.7-0.8-1.2-1.7-1.7-2.6c-0.5-1-0.8-2-1.1-3.1
			s-0.4-2.3-0.4-3.5c0-2,0.3-3.8,0.9-5.4c0.6-1.6,1.4-3,2.5-4.1c1.1-1.1,2.4-2,3.8-2.6c1.5-0.6,3-0.9,4.7-0.9c2,0,3.8,0.4,5.4,1.2
			c1.6,0.8,2.8,1.8,3.6,3c0.8,1.2,1.3,2.3,1.3,3.4c0,0.6-0.2,1.1-0.6,1.5c-0.4,0.4-0.9,0.7-1.5,0.7c-0.6,0-1.1-0.2-1.5-0.5
			s-0.7-0.8-1.1-1.6c-0.7-1.2-1.4-2.2-2.3-2.8c-0.9-0.6-2-0.9-3.3-0.9c-2.1,0-3.7,0.8-5,2.4c-1.2,1.6-1.9,3.8-1.9,6.7
			c0,1.9,0.3,3.6,0.8,4.9c0.5,1.3,1.3,2.3,2.3,2.9s2.2,1,3.5,1c1.5,0,2.7-0.4,3.7-1.1c1-0.7,1.8-1.8,2.3-3.2
			c0.2-0.7,0.5-1.2,0.8-1.6c0.3-0.4,0.8-0.6,1.5-0.6c0.6,0,1.1,0.2,1.6,0.6C276,65.4,276.2,65.9,276.2,66.5z"/>
		<path d="M290.5,52.1v18.2h10.3c0.8,0,1.4,0.2,1.9,0.6c0.4,0.4,0.7,0.9,0.7,1.5c0,0.6-0.2,1.1-0.6,1.5c-0.4,0.4-1.1,0.6-1.9,0.6
			h-12.2c-1.1,0-1.9-0.2-2.4-0.7s-0.7-1.3-0.7-2.4V52.1c0-1,0.2-1.8,0.7-2.3c0.5-0.5,1.1-0.8,1.8-0.8c0.8,0,1.4,0.3,1.9,0.8
			C290.3,50.2,290.5,51,290.5,52.1z"/>
		<path d="M314,49c2.6,0,4.8,0.5,6.7,1.6c1.9,1.1,3.3,2.6,4.2,4.5s1.4,4.2,1.4,6.8c0,1.9-0.3,3.7-0.8,5.3c-0.5,1.6-1.3,3-2.4,4.1
			c-1,1.2-2.3,2-3.9,2.7c-1.5,0.6-3.3,0.9-5.2,0.9c-2,0-3.7-0.3-5.3-0.9c-1.5-0.6-2.8-1.5-3.9-2.7s-1.8-2.5-2.3-4.2
			c-0.5-1.6-0.8-3.4-0.8-5.2c0-1.9,0.3-3.7,0.8-5.3s1.4-3,2.4-4.1c1-1.1,2.3-2,3.8-2.6C310.4,49.3,312.1,49,314,49z M321.2,61.9
			c0-1.8-0.3-3.4-0.9-4.8c-0.6-1.3-1.4-2.4-2.5-3c-1.1-0.7-2.4-1-3.8-1c-1,0-2,0.2-2.8,0.6s-1.6,0.9-2.2,1.7
			c-0.6,0.7-1.1,1.7-1.5,2.8c-0.4,1.1-0.5,2.4-0.5,3.8c0,1.4,0.2,2.7,0.5,3.9c0.4,1.2,0.9,2.1,1.5,2.9c0.7,0.8,1.4,1.3,2.3,1.7
			c0.8,0.4,1.8,0.6,2.8,0.6c1.3,0,2.5-0.3,3.6-1c1.1-0.6,2-1.7,2.6-3S321.2,63.8,321.2,61.9z"/>
		<path d="M351.5,64.3v4.8c0,0.6-0.1,1.1-0.2,1.5c-0.1,0.4-0.4,0.7-0.7,1c-0.3,0.3-0.8,0.6-1.3,0.9c-1.5,0.8-3,1.4-4.4,1.8
			c-1.4,0.4-2.9,0.6-4.6,0.6c-1.9,0-3.7-0.3-5.3-0.9s-2.9-1.5-4-2.6c-1.1-1.1-2-2.5-2.6-4.1c-0.6-1.6-0.9-3.4-0.9-5.4
			c0-1.9,0.3-3.7,0.9-5.3c0.6-1.6,1.4-3,2.6-4.1c1.1-1.1,2.5-2,4.1-2.6s3.5-0.9,5.5-0.9c1.7,0,3.2,0.2,4.5,0.7
			c1.3,0.4,2.4,1,3.2,1.7c0.8,0.7,1.4,1.4,1.8,2.2c0.4,0.8,0.6,1.4,0.6,2c0,0.6-0.2,1.2-0.7,1.6c-0.5,0.4-1,0.7-1.7,0.7
			c-0.4,0-0.7-0.1-1.1-0.3s-0.6-0.4-0.8-0.7c-0.6-1-1.2-1.7-1.6-2.2c-0.4-0.5-1-0.9-1.8-1.3s-1.7-0.5-2.8-0.5
			c-1.2,0-2.2,0.2-3.1,0.6c-0.9,0.4-1.7,1-2.4,1.8s-1.2,1.7-1.5,2.8c-0.3,1.1-0.5,2.4-0.5,3.7c0,2.9,0.7,5.2,2,6.8s3.2,2.4,5.6,2.4
			c1.2,0,2.3-0.2,3.3-0.5s2.1-0.7,3.1-1.3v-4.1H343c-0.9,0-1.7-0.1-2.1-0.4c-0.5-0.3-0.7-0.8-0.7-1.5c0-0.6,0.2-1,0.6-1.4
			s1-0.5,1.6-0.5h5.8c0.7,0,1.3,0.1,1.8,0.2c0.5,0.1,0.9,0.4,1.2,0.8S351.5,63.4,351.5,64.3z"/>
		<path d="M365.4,49c2.6,0,4.8,0.5,6.7,1.6c1.9,1.1,3.3,2.6,4.2,4.5s1.4,4.2,1.4,6.8c0,1.9-0.3,3.7-0.8,5.3c-0.5,1.6-1.3,3-2.4,4.1
			c-1,1.2-2.3,2-3.9,2.7c-1.5,0.6-3.3,0.9-5.2,0.9c-2,0-3.7-0.3-5.3-0.9c-1.5-0.6-2.8-1.5-3.9-2.7s-1.8-2.5-2.3-4.2
			c-0.5-1.6-0.8-3.4-0.8-5.2c0-1.9,0.3-3.7,0.8-5.3s1.4-3,2.4-4.1c1-1.1,2.3-2,3.8-2.6C361.8,49.3,363.5,49,365.4,49z M372.6,61.9
			c0-1.8-0.3-3.4-0.9-4.8c-0.6-1.3-1.4-2.4-2.5-3c-1.1-0.7-2.4-1-3.8-1c-1,0-2,0.2-2.8,0.6s-1.6,0.9-2.2,1.7
			c-0.6,0.7-1.1,1.7-1.5,2.8c-0.4,1.1-0.5,2.4-0.5,3.8c0,1.4,0.2,2.7,0.5,3.9c0.4,1.2,0.9,2.1,1.5,2.9c0.7,0.8,1.4,1.3,2.3,1.7
			c0.8,0.4,1.8,0.6,2.8,0.6c1.3,0,2.5-0.3,3.6-1c1.1-0.6,2-1.7,2.6-3S372.6,63.8,372.6,61.9z"/>
		<path d="M399.1,66.9c0,1.5-0.4,2.9-1.2,4.1c-0.8,1.2-1.9,2.2-3.4,2.8c-1.5,0.7-3.3,1-5.3,1c-2.5,0-4.5-0.5-6.1-1.4
			c-1.1-0.7-2.1-1.6-2.8-2.7c-0.7-1.1-1.1-2.2-1.1-3.3c0-0.6,0.2-1.1,0.6-1.6c0.4-0.4,1-0.7,1.6-0.7c0.5,0,1,0.2,1.4,0.5
			c0.4,0.3,0.7,0.8,0.9,1.5c0.3,0.8,0.7,1.5,1,2s0.9,1,1.6,1.3c0.7,0.3,1.6,0.5,2.6,0.5c1.5,0,2.7-0.3,3.7-1.1
			c0.9-0.7,1.4-1.6,1.4-2.6c0-0.8-0.3-1.5-0.8-2c-0.5-0.5-1.2-0.9-2-1.2s-1.9-0.6-3.2-0.9c-1.8-0.4-3.3-0.9-4.5-1.5
			c-1.2-0.6-2.2-1.3-2.9-2.3s-1.1-2.2-1.1-3.6c0-1.4,0.4-2.6,1.1-3.7c0.8-1.1,1.8-1.9,3.3-2.5c1.4-0.6,3.1-0.9,5-0.9
			c1.5,0,2.9,0.2,4,0.6s2.1,0.9,2.8,1.5c0.7,0.6,1.3,1.3,1.6,2c0.3,0.7,0.5,1.4,0.5,2c0,0.6-0.2,1.1-0.6,1.6c-0.4,0.5-1,0.7-1.6,0.7
			c-0.6,0-1-0.1-1.3-0.4c-0.3-0.3-0.6-0.8-1-1.4c-0.5-0.9-1-1.7-1.6-2.2s-1.7-0.8-3.1-0.8c-1.3,0-2.4,0.3-3.2,0.9
			c-0.8,0.6-1.2,1.3-1.2,2.1c0,0.5,0.1,0.9,0.4,1.3c0.3,0.4,0.6,0.7,1.1,0.9c0.5,0.3,1,0.5,1.5,0.6c0.5,0.1,1.3,0.4,2.4,0.6
			c1.4,0.3,2.7,0.7,3.8,1.1c1.1,0.4,2.1,0.9,2.9,1.5s1.4,1.3,1.9,2.2C398.9,64.6,399.1,65.7,399.1,66.9z"/>
	</g>
</g>
</svg>
