<!--
  SVG Music Logos
  50 Cent v1.0.0
  https://github.com/tiagoporto/svg-music-logos
  Copyright (c) 2016-2018 Tiago Porto (http://tiagoporto.com)
-->
<svg xmlns="http://www.w3.org/2000/svg" viewBox="0 0 172 200" class="fifth-cent">
  <path class="fifth-cent__background" d="M160.126 10.176C155.876 5.052 149.99 2 143.448 2H105.294c-6.54 0-12.427 3.052-16.678 8.176-.327.327-.546.654-.873 1.09V3.743H5.877v123.29c0 6.426 2.266 12.412 6.165 17.036-.89.553-1.722 1.193-2.46 1.93-2.506 2.617-4.14 6.105-4.14 9.92v28.235c0 3.815 1.634 7.303 4.14 9.81 2.51 2.508 5.997 4.034 9.812 4.034h23.983c1.417 0 2.943-.22 4.25-.656V198h110.32v-33.14h8.284v-22.892h-3.81c2.578-4.286 4.138-9.44 4.138-14.935V28.27c0-6.975-2.507-13.408-6.432-18.094z"/>
  <g class="fifth-cent__text">
    <polygon points="126.006,148.4 159.8,148.4 159.8,158.429 151.515,158.429 151.515,191.568 134.292,191.568 134.292,158.429 126.006,158.429 126.006,148.4"/>
    <polygon points="85.019,148.4 102.242,148.4 108.346,166.06 108.346,148.4 123.826,148.4 123.826,191.568 107.148,191.568 100.389,172.055 100.389,191.568 85.019,191.568 85.019,148.4"/>
    <polygon points="54.06,148.4 81.421,148.4 81.421,158.429 71.392,158.429 71.392,164.643 81.421,164.643 81.421,173.908 71.392,173.908 71.392,181.539 81.421,181.539 81.421,191.568 54.06,191.568 54.06,148.4"/>
    <path d="M19.395 148.4h23.983c4.033 0 7.413 3.38 7.413 7.52v8.722H33.894v-4.47c0-.98-.764-1.744-1.635-1.744h-1.09c-.872 0-1.635.764-1.635 1.745v19.73c0 .873.763 1.636 1.635 1.636h1.09c.872 0 1.635-.764 1.635-1.636v-5.996H50.79v10.248c0 4.033-3.38 7.413-7.413 7.413H19.395c-4.142 0-7.52-3.38-7.52-7.414v-28.234c-.002-4.143 3.377-7.522 7.52-7.522z"/>
    <path d="M143.34 8.43h-38.046c-9.157 0-16.678 8.94-16.678 19.95v98.653c0 10.9 7.52 19.95 16.678 19.95h38.047c9.265 0 16.786-9.05 16.786-19.95V28.38c0-11.01-7.52-19.95-16.787-19.95zm-15.045 111.41c0 2.18-1.417 4.032-3.052 4.032h-1.853c-1.745 0-3.053-1.853-3.053-4.033V36.23c0-2.29 1.308-4.143 3.053-4.143h1.853c1.635 0 3.052 1.853 3.052 4.142v83.61z"/>
    <path d="M44.03 52.145c4.035-3.598 8.94-5.45 15.045-5.45h9.266c9.376 0 16.353 10.356 16.353 21.256v59.084c0 10.9-7.74 19.95-24.2 19.95h-27.69c-11.88 0-20.494-9.05-20.494-19.95V89.1h31.83v30.74c0 2.288 1.417 4.032 3.052 4.032h1.853c1.635 0 3.053-1.744 3.053-4.033V76.452c0-2.29-1.417-4.033-3.053-4.033h-1.853c-1.635 0-3.052 1.744-3.052 4.033H12.31V10.176h69.11v22.13l-37.39-.11v19.95z"/>
  </g>
</svg>
