<!--
  SVG Music Logos
  Opeth - Orchid v1.0.0
  https://github.com/tiagoporto/svg-music-logos
  Copyright (c) 2016-2024 Tiago Porto (http://tiagoporto.com)
-->
<svg xmlns="http://www.w3.org/2000/svg" viewBox="0 0 700 560">
  <path d="M210.3 551.1c-3.9-1-11.1-3.7-16-6.2-35.9-17.9-49-54.6-31.1-86.9 6.4-11.6 19.5-23.3 30.6-27.2 2.6-.9 4.8-2 4.8-2.3 0-.4-5.1-.6-11.4-.6s-16.2-.5-22-1.1c-16.9-1.7-26.3.2-25.6 5.1.4 2.5 3.3 2.9 3.1.4-.1-.9.5-1.7 1.3-1.7 1 0 1.3.8 1.1 2.7-.6 5.3-7.6 3.6-7.6-1.8 0-3.3 2.8-5.6 8-6.4 5.1-.8 3.8-1.9-3.4-2.7-4.4-.6-8.9-1.3-13.2-2.2-8.4-1.7-13-1.1-16.3 2.2-1.9 1.9-2.2 2.7-1.3 4.3 1.2 2.2 2.9 2.5 4.6.8.8-.8.9-1.5.1-2.5-1.5-1.8-.2-2.8 1.6-1.3 3.1 2.6.4 6.8-4.4 6.8-2.2 0-3.1-.6-3.9-2.7-1.5-3.9 0-7.2 4.4-9.4 3.5-1.7 4.5-1.7 13.4-.7 5.3.6 9.9 1 10.1.7.2-.2-4.3-2.1-10-4.2-5.8-2-17.4-7.1-25.8-11.3-26.9-13.3-36.9-15.3-44.4-8.9-3.3 2.8-3.8 6.2-1.6 11.5 1.5 3.6 6.5 6 9.9 4.8 5.7-2 8-8.1 4.3-11.5-2.4-2.1-5.1-1.7-6.4 1.1-1.1 2.2-2.4 2-2.4-.3 0-4.1 7.3-5.7 10.7-2.3 2.2 2.1 2.7 8.5.9 11.7-1.3 2.4-5.9 4.8-9.4 4.8-6.8 0-13.5-7.1-12.4-13.1 1.1-5.7 2.6-8 6.5-10.2 8.6-4.8 19.4-2.3 44.4 10.3 13.9 7 30.2 13.6 36.2 14.6 1.7.3-2.8-2.3-10.1-5.7C105 399 91.3 390 70.9 372.4c-8-6.9-16.6-14-19.1-15.8-4.4-3.2-4.7-3.2-7-1.7-2.8 1.8-3.1 2.8-1.1 4.4 1 .9 1.7.8 2.9-.4 1.4-1.4 1.6-1.4 1.6 0 0 1.7-3.6 3.5-5.6 2.7-1.8-.7-2.4-3.6-1.3-6.5.8-2.1 1.6-2.6 4.4-2.6 5 0 9.7 2.8 18.4 11.1 4.3 4.1 9.1 8.1 10.7 9 2.3 1.2 1.8.5-2-3.2-2.7-2.6-9.8-10.4-15.7-17.4-11.9-14-13.8-15.8-17.9-17.2-2.3-.8-3.2-.7-4.7.7-2.5 2.2-2.4 3.9.2 5.7 2 1.4 2.3 1.3 4.4-.6 1.7-1.6 2.2-1.8 2.2-.6 0 1.6-3 4.7-4.6 4.7-.6 0-2.2-.9-3.6-2-5.6-4.4-1.6-12.2 5.6-10.9 2.9.6 10.1 7.1 15.9 14.3 1.7 2.1 3.3 3.6 3.6 3.2.6-.6-1-2.9-11.6-17.8-3.1-4.3-8.4-12.4-11.8-18.1-3.4-5.7-6.9-10.6-7.7-10.9-2.3-.9-1.8-3.4.5-2.8 1.1.3 1.9 0 1.9-.6s.4-1.1 1-1.1c.5 0 .9 1.2.8 2.7-.2 3.2 7.2 16.9 16.4 30.2 6.3 9 9.6 11.9 4.6 4-6.7-10.7-16.6-36-24.7-63.2-4.8-16.2-7.6-22-9.8-20.6-.6.4-.5 1.1.2 2 .9 1.1.7 1.4-1 1.4s-2.1-.5-1.8-2.2c.4-2.8 4.6-3.5 6.9-1 1.6 1.7 6.7 16.1 8 22.4.7 3.2 2.5 5.4 2.4 3 0-3.7-4.2-27.5-5.9-33.7-2.8-10.3-6.5-17.5-9.4-18.6-1.3-.5-2.8-.7-3.3-.4-1.6 1-.9 3.4 1.3 4.2l2.2.8-2.3.7c-2.4.7-4.9-1.3-4.9-3.9 0-2.2 3.6-4.5 6-3.8 5.1 1.5 8 6.1 11.5 17.9 4.3 14.7 4.8 11.4 2.4-17.5-2-24.4-2.1-25.1-4.4-27-1-.9-1.9-2.6-1.9-3.8s-.5-2.4-1.1-2.8c-.6-.4-.9-1.4-.6-2.3.2-.9-.2-2.2-.9-2.8-.7-.7-1.3-2.3-1.3-3.6 0-1.3-.4-2.6-1-2.9-.5-.3-.7-1-.4-1.6.3-.5-.2-1.8-1.1-2.9-.9-1-1.4-2.2-1.1-2.5.4-.4 0-1.3-.7-2.2-2.1-2.4-3-8.8-1.2-8.8 1.5 0 2.9 2.6 2.1 3.9-.3.4-.1 1.1.5 1.4.5.3 1 1.4 1 2.4s.7 2 1.5 2.4c1 .4 1.3 1.2.9 2.5-.4 1.1-.2 1.9.4 1.9.6 0 2 2.1 3.2 4.6 1.2 2.5 2.5 4.8 2.9 4.9.4.2.7 1.4.7 2.6 0 1.3.4 2.5.8 2.8.8.5 1.7 10.3 3 32.6.7 12.1.8 11.9 3.5-5.3 3-18.8 8.1-36.3 16.3-56.3 7-16.9 9.5-25.9 9.6-34.4.1-8.8-1.5-13.1-6.4-17.4-4.3-3.7-9.2-5.2-13.4-4-4.1 1.2-5.9 2.6-8.4 6.7-4.8 7.9-.5 18.7 8 20.1 2.9.5 4 .1 6-1.7 2.6-2.5 3.3-8.4 1.2-10.4-.6-.6-.8-1.5-.4-1.9 2.3-2.3 4.7 8.2 2.9 12.8-1.7 4.4-11.9 5.9-16.4 2.3-9.6-7.6-4.9-28.3 6.9-30.5 7.8-1.5 15.2 1.5 19.5 7.8 5.4 7.8 3.4 25.9-4.9 44.3-5.2 11.6-10.4 26.2-13.8 38.9-3.3 12.4-3.3 17.5 0 7.5 7.8-23.8 16.6-40.2 40.9-76.5C95.2 104.8 97.7 99.4 95.7 95c-1.4-3.1-4.4-3.2-6.5-.3-2 2.9-1.9 4.4.4 5.6 1.6.9 2.1.7 2.8-1.1.6-1.5 1-1.8 1.5-1 1 1.7-1.2 4-3.9 4-3.1 0-4.5-2.9-3.2-6.6 1.2-3.5 4.4-5.2 7.7-3.9 7.5 2.8 4.4 12.4-10.5 32.5-10 13.5-28.8 45-27 45 .3 0 3.8-5.1 7.9-11.2 4.1-6.2 10.4-15 14.1-19.7 9.2-11.3 40.7-41.1 63-59.3 17.6-14.4 26-26.7 27.1-39.3 1.4-17-7.4-29.1-22.1-30.5-7.8-.7-14.4 2.5-21.8 10.5-6.1 6.6-7.9 11.3-6.9 18.6.7 5.4 6.3 13.4 11.1 15.8 6 3.1 14.8 1 18.8-4.5 2.5-3.4 1.5-8.8-2.2-12.6-3.4-3.4-3.9-3.4-7.7-.3-2.8 2.4-3 2.4-3 .6 0-3 4.7-6.3 8.2-5.6 9.3 1.9 12.1 15.6 4.4 22.1-3.8 3.2-10.5 5.2-15.2 4.4-4.9-.8-10.5-4.7-13.7-9.6-2.4-3.6-2.7-4.9-2.7-11.9 0-9.2 1.9-13.5 8.9-21.1 13.6-14.5 38.9-10.2 44.5 7.5 2.6 8.4 1.7 20-2.5 30-3.9 9.4-11 17.2-28.6 31.4-13.8 11.2-28.3 24.3-44.1 39.8-13.7 13.5-18 20-5.2 7.8 17.9-17 42.5-33.6 72.1-48.7 12.7-6.5 17.3-9.3 18.1-11.1 1-2.4 3-4.2 4.7-4.2.5 0 .2.8-.7 1.8-2.1 2.3-2 4.7.2 5.9 2.4 1.3 5.1-1.5 4-4.3-1.2-3.3.7-6.3 3.9-6.3 1.1 0 1.1.2-.2 1-2 1.2-2.3 4.4-.4 5.1.7.3 1.8 0 2.4-.6.7-.7 1.1-.8 1.1 0 0 1.3-2.4 3.4-3.1 2.7-.3-.3-1.5.6-2.8 1.9-1.7 1.8-3.3 2.4-6 2.4-6.5 0-39 17.1-65.1 34.3-5.7 3.8-10.4 7.3-10.4 7.8s1.4-.1 3.2-1.2c1.7-1.1 6.9-4 11.4-6.3 23.8-12.1 53.5-19.9 81.6-21.4l9.2-.5-9.7 1.8c-26.6 4.9-44.8 13.4-58 27-6.4 6.7-14.9 19.9-18.2 28.5-4.8 12.4-6.2 21.7-5.6 37.3 1.5 42.4 21.1 69.4 73.1 100.9 14.1 8.5 12.5 8.3 15.8 2.4 4.3-7.6 15.6-20.1 24.7-27.4 15.4-12.3 31.5-18.7 49.8-19.9 9.6-.6 9.7-.6 9.7-3 0-1.9-.9-2.8-3.9-4.2-9.2-4.1-10.7-5.2-13.5-9.7-1.6-2.5-4-8.9-5.5-14.1-3.4-12-8.8-26.7-12.6-34.3-3.6-7.2-14.8-19.1-21.1-22.5-14.9-8.1-38.9-8.1-52.7-.1-11.1 6.5-20.5 20-22.5 32.6-3.1 18.7 8.2 40.6 25.2 49 5 2.5 6.5 2.7 15.8 2.7 9 0 10.8-.3 15.7-2.6 15.3-7.2 22-23.8 15-37.5-8.9-17.5-29-22.9-41.3-11-4.4 4.2-6.7 12.3-4.9 17.2 1.3 3.4 5.3 7.9 8.8 9.7 3.4 1.8 8.8.3 11.5-3.1 2.4-3 1.4-6.5-2.6-9.9l-2.6-2.2h2.6c3.9 0 5.6.9 7.2 3.9 2.3 4.4 1.8 7.5-1.9 11.2-3 3-3.8 3.3-9.1 3.3-4.9 0-6.4-.5-9.8-2.9-5.7-4.1-7.9-8.1-7.9-14.3 0-9.6 6-18.4 14.2-20.6 5.7-1.6 16.3-.8 22 1.8 6.1 2.7 13.9 10.6 16.9 17.3 2.1 4.7 2.4 6.4 2 12.4-.6 8.8-3.8 15.3-10.5 21.3-7 6.3-13.9 8.8-24.8 8.8-6.7 0-10-.5-14.2-2.1-19-7.4-30.9-27.2-29.8-49.4.5-10.7 5.2-20.4 13.8-28.9 11.6-11.5 23.5-15.6 42.3-14.9 9.6.4 12.7 1 21.7 4 5.8 1.9 14.5 5.6 19.4 8.1 7.5 3.8 10.5 6.2 19.1 14.8 12 12 18.1 21.6 23 35.8 1.8 5.3 3.8 13.2 4.4 17.7 1.1 8.7 2.1 10.8 4 8.9 1.4-1.4 1.3-12.4-.2-25.5-5.5-47.4-49.4-87.3-93.8-85.3-5.6.2-10.1.3-10.1.2s5.8-3.1 12.9-6.5c21.4-10.4 27.8-16.4 37.2-34.5 4.8-9.2 10.4-16.7 11.6-15.5.4.4.1 1.7-.5 2.9-.7 1.2-1.2 5.1-1.2 8.7 0 13.9 7.5 23.1 29.4 36.4 15.6 9.4 22.5 14.3 29.2 20.6 11.8 11.1 9.9 7.2-4.6-9.6-18.3-21.3-24.2-31.7-24.2-43.2 0-6 .4-7.5 2.9-11.6 3.6-5.9 8.6-8.6 16.5-9 5.2-.3 6.4 0 10.5 2.7 11 7 11.1 23 .1 28.2-4.9 2.4-8.7 2.4-13 .2-9.4-4.8-8.3-20.6 1.4-20.6 6.4 0 10.9 7.3 6.6 10.8-1.7 1.4-1.8 1.6.2-3.2.8-2-2.6-5.7-5.2-5.7-3.2 0-6 3.2-6.6 7.3-.5 3.6-.2 4.2 3 7 4.3 3.8 8.6 4.1 13.3.9 4.2-2.8 5.7-5.9 5.7-11.4 0-9-7.4-15.2-17.1-14.4-14.1 1.2-20.6 15.3-13.8 30 3.4 7.3 11.2 18.8 17.9 26.3 5.1 5.7 11.9 14.6 24.6 32.1 2.9 4 5.4 7.2 5.6 7.1.1-.1-.6-2.8-1.7-5.9-4.1-12-1.3-20.3 6.5-18.8 2.7.5 4.7 5.3 3.3 8.3-1.2 2.7-4.3 2.7-4.8.1-.2-1.2.1-1.5 1.2-1.1 1.1.4 1.5 0 1.5-1.3 0-1.9-1.7-4.2-3-4.2-1.9 0-3.8 3.4-3.8 6.8 0 3.3 7.3 26.7 9.8 31.4 1.8 3.3 1.9 1.2.2-5.4-1.3-5.4-1.4-6.9-.3-9.5 1.5-3.6 4.3-4.9 8.1-3.6 3.6 1.2 5 4.3 3.6 7.8-1.2 3.2-3.4 4.3-5.4 2.6-1.6-1.3-2-4.8-.5-4.8.5 0 1 .7 1 1.5 0 1.8 1.4 1.9 2.8.2.8-.9.7-1.8-.4-3.4-1.8-2.6-3.5-2.7-5.6-.3-2.3 2.6-2 9.3.9 19.2 5.8 19.5 8.3 29.7 10.6 44.1 1.4 8.3 2.8 15.3 3 15.6.3.3.2-2.8-.1-6.8-.3-4-.9-14.4-1.2-23-.7-17.4.3-22.8 5.2-29.3 5-6.6 13.2-8.9 19.8-5.5 4.2 2.2 8.7 10.5 8.7 16.4 0 4.2-.4 5.2-3.8 8.5-3 3-4.5 3.8-7.2 3.8-7 0-12.4-8-9-13.2 1.8-2.8 6.4-3.3 8.4-.9 1.1 1.3.9 1.4-1.4.8-3.1-.8-4.4.6-4.4 4.5 0 3.3 3.1 6.1 6.8 6.1 6.4 0 10.1-8 7.3-15.5-5.7-14.8-22.2-12.8-27.9 3.4-1.7 4.7-1.4 21 .6 42.3 1.9 19.5 1.7 24-2.1 48.1-1.4 8.8-2.7 17.8-2.9 19.9-.3 3.5-.1 3.2 1.6-2.1 2.2-6.6 5.4-10 9.7-10 3.6 0 6.3 3.1 5.4 6.3-.8 3.2-4.8 5.2-6.8 3.4-.8-.7-1.2-1.6-.9-2.1.3-.5 1.1-.5 1.8.1 2 1.7 4.7-1.5 3.4-3.9-.6-1-1.4-1.9-1.9-1.9-2.6 0-6 2.2-6.9 4.6-1.4 3.5-5.7 18.5-5.7 19.6 0 .5 1.7-.1 3.9-1.2 3.6-1.9 4.1-2 6.5-.6 4.1 2.3 5 4.4 3.2 7.5-1.2 2.1-2.2 2.7-4.9 2.7-3 0-3.4-.3-3.7-3-.2-1.8.3-3.5 1.2-4.2 1.7-1.4 2.1-.1.5 1.5s0 4.4 2.3 4.1c4-.6 2.8-7.6-1.3-7.6-3.1 0-6.7 4.9-13.9 18.8-8.8 16.9-15.5 27.9-23.1 37.8-6 7.8-6.3 8.8-1.9 5.7 1.4-1 6.4-3.9 11.1-6.4 14.2-7.7 21.5-14.1 19.6-17.1-.8-1.3-3.9-1.1-5.2.5-1.4 1.7 0 2.8 2.5 1.9 1.6-.6 1.6-.5.5 1-1.8 2.2-3.7 2.1-5-.3-2.1-4 5.8-8 8.7-4.4 3.3 3.9-2.7 11.2-14.8 18-8.4 4.7-7.6 5.2 1.9 1 11.1-4.9 29.5-10.1 41-11.7 5.1-.7 9.5-1.7 9.9-2.3.9-1.3.9-8 .1-11-.8-2.8-2.8-2.3-10.1 2.6-2.9 2-5.7 3.7-6.1 3.9-.4.2.7-2.4 2.4-5.8 2.4-4.8 3.1-7.4 3.2-11.7 0-6 .4-6.4 5-4.6 1.5.6 3.8.8 5.1.4l2.4-.6-.5-33.8c-.3-22.7-.9-34.5-1.6-35.9-1.8-3.3-6.5-5.3-10.9-4.5-5.3.9-5.1-1.5.6-5.3 5.3-3.6 5.9-4.8 6.8-12l.7-5.6 6.3 6.4c4.3 4.3 8.4 7.4 13 9.6l6.7 3.3-2 2.5c-1.7 2.2-2 3.7-1.7 10.6l.3 8.1 6.5-12.1c6.9-13 9.6-20.3 9.6-26.6 0-3.6.1-3.8 1.5-2.4 1 1 1.8 4.5 2.4 10.7 1 11 2.5 16 9.3 31.7 7.9 18 8.6 21.2 8.5 34.8-.1 9.5-.6 12.9-2.4 18.4-1.3 3.7-2.9 6.9-3.6 7.1-1 .3-1.2-.1-.7-1.4.4-1 .9-4.4 1.2-7.7 1.1-11.9-4.3-28-14.5-43.4-3.1-4.6-5.8-9.8-6.2-11.5-.9-4.4-3-3.4-6.3 2.9-4.5 8.7-5.6 16.5-5.7 39.2v20.2l5.2 2.3c2.9 1.3 8.6 3 12.9 3.9l7.8.8 7.2-1.6c4-1.3 7.4-2.3 7.6-2.1 1 1-3.5 5.4-7.9 7.9-4.6 2.6-5.9 2.8-14.3 2.8-5.1 0-10.9-.6-13-1.3-4.7-1.6-5.4-.8-5.5 6.8v5.5l8 1.1c24 3.4 56.6 13.9 83 26.8 20.4 9.9 30.4 13.2 41.6 13.8 7.6.4 9.4.2 13.8-1.7 5.5-2.4 11.5-8.2 12.5-12.1 1.5-6.2-5.8-14.2-14.7-16-9.9-2.1-18.5 1-20.9 7.5-1.9 5 4.6 11 12.2 11.3 5.9.2 8.6-5.2 4.1-8.4l-2.2-1.5 2.2-.1c2.6-.1 6.1 3.1 6.1 5.7 0 1-.8 2.8-1.8 4-2.2 2.7-10.7 3.7-16 2-8.1-2.7-12.2-12.6-7.2-17.3 7.4-7 22.4-8.6 32.5-3.5 7.5 3.8 9.5 6.8 9.5 13.9-.1 11.5-8.6 18.3-24 19.2-13.2.8-24.3-2.7-62.2-19.5-19.9-8.8-40.4-16.6-41.4-15.6-.3.3.6 1.2 1.9 2.1 1.3.9 6.3 5.3 11.1 9.8 13.1 12.3 20.9 16.5 22.5 12.2.9-2.4-1.2-3.9-3.2-2.3-1.4 1.2-1.6 1.2-1.2 0 1.5-4.6 7.1-3.4 7.1 1.5 0 2.2-.6 3-2.6 3.7-4.8 1.7-9.5-.7-22.7-12-7.8-6.6-15.1-12-19.4-14.1-7.3-3.6-20-7.3-25.4-7.3-3.8 0-3.5-2.1-3.2 23.1.2 17.4 1.4 23.2 5.9 26.7l3 2.3-4.5 3.7c-8.9 7.3-14.8 19.6-17.2 36-.7 4.5-1.5 8.2-1.9 8.2-1.3 0-1.8-10.1-2.6-54-.5-24.1-1.2-44.4-1.6-45-.5-.9-2.5-1-7.2-.6-15.6 1.6-33.7 7.2-52.2 16-11.3 5.4-29.2 16.3-28.3 17.2.2.2 3.9-1.3 8.2-3.5 15.6-7.9 27.6-10 35.2-6.2 5.1 2.5 8.1 8.9 7.4 15.7-.6 6.4-2.7 9.6-8.4 12.4-10.2 5.2-20.4-.3-20.4-11.2 0-6.4 4.1-10.9 10-10.9 2.9 0 4.5.7 6.7 2.9 3.1 3.1 3.1 5.5.1 9-1.6 1.8-6.1 2.3-6.1.7 0-.6.5-.9 1.2-.9 2.5.3 3.4-.1 4.4-2.3 1.3-2.8 0-5.3-3.2-6.5-3.1-1.2-6.7.2-8.8 3.4-1.4 2.1-1.5 3.1-.6 6.2 2.6 8.6 12 11.1 19 5 6.1-5.3 5.6-15.1-1-20.1-3.1-2.4-4.3-2.7-10.4-2.6-6 .1-8.2.6-17.1 4.6-12.9 5.8-23.8 11.2-33 16.4-6.1 3.4-6.9 4.2-4.9 4.4 5 .6 6.7 1.3 9.6 3.7 3.3 2.8 3.7 5 1.5 9.2-1.3 2.5-2 2.9-5.8 2.9-6.9 0-10.4-4.6-6.3-8.2 2.2-2 6.3-1.4 7.2.9.7 1.8-2 4.7-3.5 3.8-.8-.5-.8-.8.1-1.1 2.2-.7 1.3-3.3-1-3-3.1.4-3.3 3.3-.4 5.2 3.5 2.3 7.8.2 8.2-4 .9-9.2-18-9.8-26.5-.8-2.9 3.1-3.5 3.3-5.9 2.5-6.7-2.5-6.9-.8-1 8 17.2 25.6 22.9 54.1 15.6 77.3-3.4 10.7-8.6 19-17.5 27.9-16.7 16.7-40.4 23.4-63.3 17.8zm32.8-11.3c10.9-3.9 18.2-8.8 27.8-18.3 6.2-6.2 9.6-10.5 11.5-14.5 5.1-10.8 5.9-14.7 5.8-28.8 0-11.3-.4-14.3-2.6-21.7-3.1-10.1-8-20.3-13.8-28.5-3.8-5.4-4.5-5.9-7.1-5.5-2.1.3-3 1-3.2 2.5-.2 1.1-1.5 2.6-3 3.3-2.4 1.1-3.1 1-6.8-1.2-2.4-1.4-4.7-2.1-5.3-1.7-2 1.2 3.8 15.4 9.2 22.6 13.1 17.3 15.9 36 8 52.2-6.9 14-18.9 20.8-36.8 20.7-9.2 0-17.7-2.2-24.6-6.3-5.4-3.1-12-10.3-14.4-15.5-2.3-5-2.4-13.4-.4-19.2 1-2.8 1.3-5.8.9-8.7-1-7.9 5.3-18.7 12.9-22 4.3-1.9 11.7-1.7 15.7.4 4.2 2.1 8.6 7.6 9.4 11.7.8 3.9-.9 4.2-2.9.5-2.9-5.7-14.3-9.5-19.8-6.7-4.1 2.1-7.8 6.8-9 11.4-1.3 4.7-.8 5.4 2.1 3.4 2.9-2 11.7-2 17.6 0 7.3 2.5 17.2 12.8 17.2 17.9 0 2.1-1.6.9-3.2-2.4-3.1-6.4-13.6-12.2-22.4-12.2-4.4 0-9.3 1.8-10.3 3.8-2.1 3.9 4.9 12.2 14.1 16.7 10 4.8 23.1 2.2 31.3-6.1 6.2-6.3 8.3-12 8.7-23.6l.4-9.9-4-4.3c-8-8.7-25.1-15.1-37.2-13.9-11.8 1.1-25.7 7.9-34 16.8-8.9 9.4-13 22.4-12.3 38.8.6 13.7 3.6 20 15.3 31.6 7.1 7.1 9.8 9.1 17.6 12.8 5.1 2.4 11.6 4.9 14.6 5.5 2.9.6 6.2 1.2 7.3 1.5 4.9 1 19-.6 25.7-3.1zm-2.6-26.6c6.3-2.3 12.7-8.1 16.7-14.9 4.7-8 4.5-20.8-.6-32.2l-2.1-4.8-1.2 8.3c-2.3 15.4-6.8 23.6-15.5 28.7-5.7 3.3-9.6 4.4-16.6 4.4-9.3 0-16.2-3.1-23.6-10.5-3.4-3.4-6.4-6-6.7-5.7-.8.8 1.7 8.3 4.5 13.5 4 7.4 9.6 11.3 20.9 14.3 8.4 2.2 16.2 1.8 24.2-1.1zm3.6-77.5c0-.4-1.3-2.4-3-4.4-2.9-3.5-3.2-3.6-9-3.6h-6l8.3 4.3c8.8 4.5 9.7 4.9 9.7 3.7zm-22-15.1c6.9-3.2 6.7-3.5-4.2-10.6l-7.3-4.7-.8 2.9c-.8 3.1-4.8 5.8-8.5 5.8-3.4 0-11.1-4.5-14.9-8.6-6-6.6-10.6-14.4-13.3-22.3-2.4-7.1-2.7-7.5-6.1-8.4-2.3-.6-3.9-1.7-4.6-3.3-1-2.3-1.2-2.3-2.9-.8-2 1.9-8.4 3.8-9.7 3-1.4-.9 1.1-6.4 4.1-8.8 3.1-2.6 3.3-3.3.9-3.3-2.5 0-4.7-2.8-5.4-6.8-.6-3.1-1.3-3.7-6.6-6.3-10.8-5.2-22.5-13.8-24.9-18.6-.6-1.2-1.1-4.3-1.1-6.9 0-4.5-.4-5.2-4.7-9.6-8.9-9.1-20.1-29.9-24.8-46.1-4.5-15.6-5.8-26.1-5.9-46.9-.1-21.7.9-28.1 6.5-43.1 8.6-22.9 27-46 51.7-64.7 10.2-7.7 8.5-8-6-1-22.5 10.9-46.6 34.6-59.4 58.8-5.6 10.5-13.5 29.4-16.4 39.3-6.8 22.9-8.5 50.8-4.2 69.9 14.7 65 59.9 120.2 113.1 138 14.5 4.8 23.4 6.3 37.5 6 10.9-.3 12.8-.6 17.9-2.9zm15.6-.2c-.7-1.9-2.3-1.9-2.3 0 0 .8.6 1.5 1.4 1.5.9-.1 1.2-.6.9-1.5zm13.3-3c2.4-2.3 3.2-2.5 6.8-1.9l4.1.7-3.7-4.5c-2-2.5-4.3-4.5-5.1-4.5-.8 0-3 1.4-5 3.2-1.9 1.7-4.5 3.9-5.8 4.8-1.7 1.2-2.1 2.1-1.6 3.7.6 1.8 1.2 2.1 4.1 1.6 2-.3 4.7-1.7 6.2-3.1zm-17.2-2c.8-.8-.9-3.5-7.9-12.7-4.6-6.1-5.8-7-8.4-7.1-3.8 0-9.8-2.7-13.9-6.2-3.4-2.9-4.5-2-1.2 1 1.1 1 3.5 4.2 5.3 7.2 1.9 3.1 4.4 5.9 6 6.6 1.5.7 5.8 3.6 9.5 6.5 6.5 4.9 9.1 6.1 10.6 4.7zm35-1.9c.8-.8 1.5-2.1 1.5-2.9 0-2.3 4.6-4.6 7.8-4 8.9 1.8 40.3-24.1 52.9-43.5 11.5-17.8 15.3-30.9 15.3-53.5 0-11.8-.4-16-2.1-22.3-4-14.9-11.6-26.9-22.3-35-6.5-5-6.6-2.4-.2 4.2 7.1 7.3 9.9 12.2 13.2 23 2.4 7.8 2.7 10.3 2.7 23.3.1 12.3-.3 15.7-2.1 22.1-4.8 16.5-14.1 30.1-24.1 35.2-5.1 2.6-6.8 2.9-14.1 2.9-7.6 0-8.6-.2-11.9-2.7-14.5-11.1-6.8-36.2 9.3-29.9 4.4 1.7 6.6 4.8 6.6 9.2 0 6.7-4.6 10.2-9.8 7.4-2.9-1.6-2.2-2.6 1.7-2.5 3.1.1 3.7-.3 4.6-2.6.8-2.2.6-3.2-1-5.3-2.7-3.7-6.2-4.8-10-3.2-3.7 1.5-5.9 5.4-5.9 10.7 0 5.1 2 8.9 6.5 12.3 3.1 2.4 4.3 2.7 10.4 2.6 8.7-.1 14.3-2.5 19.7-8.4 9.9-10.7 13-24.7 9.5-42.8-1.7-8.8-1.8-9-9.8-20.7-7.1-10.4-8.6-14.4-8-20.9.4-3.9.1-5-1.3-5.7-1.5-.8-2-.2-3.4 4.2-7.6 23.5-27.1 46.5-48.8 57.4-2.8 1.4-5.1 2.8-5.1 3 0 .2 2 3.2 4.4 6.7 15.4 22 16.7 46.1 3.8 67l-3.5 5.7 5.2 5.3c2.9 2.9 5.5 5.3 5.9 5.3.6 0 1.6-.7 2.4-1.6zm-26.3-5.3c2.5-2.2 4.5-4.7 4.4-5.6-.1-1.7-9.1-9.9-13.9-12.6-2.4-1.4-2.9-1.4-3.3-.2-.3.8-1.5 2.4-2.8 3.7l-2.3 2.3 2.2 3.1c5.1 7.3 9.8 13.3 10.5 13.3.4-.1 2.7-1.9 5.2-4zm-37.5-2.4c.2-2.5-.3-3.3-4.3-5.8-8.3-5.2-16.5-13.8-19.7-20.4-2.7-5.6-7-10.4-7.6-8.5-.5 1.5 4.8 16.2 7.5 21.1 3.6 6.2 9.3 12.9 13 15.2 1.9 1.2 4.4 1.7 6.9 1.6 3.6-.2 4-.5 4.2-3.2zm46.3-9c2.5-4.9 5.4-18.3 5.4-25.1 0-12.4-4.8-25.1-13.5-35.9l-4.6-5.6-6 .3c-7.7.4-18.5-1.4-22.4-3.8-4.9-3-6.9-7.2-6.9-14.5v-6.3l-7.2-3.2c-9.7-4.4-28.4-15.6-37.9-22.8-11.2-8.4-26.4-24.1-32.8-33.8-7-10.5-10.9-19.2-14.1-31-2.1-8-2.5-11.3-2.5-24.8 0-14.5.1-16.1 2.7-23.8 6.1-18.5 15.2-34.2 26.7-46.1 7.4-7.6 6.3-7.9-2.7-.7-18.3 14.8-31 32-37.5 50.7-7 20.5-7.2 57.1-.3 78.6 2.5 7.6 8.3 19.6 12.6 25.9 4.7 6.8 14.1 16.4 21 21.4l6.1 4.3 3.1-2.6c3.4-2.8 5.3-2.8 11.5.4 6.1 3.1 13.1 16 16 29.4.4 1.9 1.9 3.4 5.7 5.3 3.5 1.9 5.2 3.4 5.4 4.9.4 2.7 1.3 2.8 3.5.3 3-3.3 10.3-3.7 10.3-.6 0 .7-1.1 2.7-2.5 4.3-1.8 2.1-2.2 3.3-1.5 4.2.5.7 1.4 2.7 1.9 4.5.8 3.1 1.9 3.9 13.4 10 13 6.8 18.8 11.7 24.9 21 1.5 2.2 6.7 7 11.7 10.8 5 3.7 9.1 6.8 9.2 6.8-.2.2.5-1 1.3-2.5zM200 392c-3.7-4.7-14.2-14.2-15-13.5-1.4 1.4 10.5 14.9 15.5 17.6 3.6 2 3.4.9-.5-4.1zm15.9-1.2c0-2.2-19.7-17.6-21-16.3-.8.8 7.3 10.1 11 12.6 5.4 3.8 10 5.5 10 3.7zm9.8-5c0-1.1-2.2-3.3-5.6-5.6-8-5.4-31.3-17-31.3-15.5 0 2.2 1.3 3.3 6.8 6.1 7.4 3.7 16.1 10.1 21.9 16l4.9 5 1.7-2.1c.8-1.1 1.6-2.9 1.6-3.9zm-32.4-7.2c-4.9-6.9-8.8-10.9-11.2-11.6-1.7-.5-2.2-.2-2.2 1.1 0 2.4.7 3.3 6.3 7.3 2.7 1.9 5.7 4.4 6.7 5.5 3.5 3.7 3.7 2.2.4-2.3zm26.5-4c-4.1-4.4-10.5-8.2-22.6-13.6-13-5.8-12.3-5.6-12.3-4.3 0 .5 4.3 3.1 9.5 5.8 5.2 2.7 13.4 7.2 18.2 10.1 4.8 2.9 8.9 5.1 9.2 4.9.1-.2-.8-1.5-2-2.9zm-50.2-4c-.6-1.9-3.1-4.1-4.5-4.1-1.1 0 .2 4.2 1.6 5.1 2.1 1.3 3.5.8 2.9-1zm-12.4-2.2c2.1-2.3.4-2.7-1.9-.4-1.7 1.7-1.9 2.4-.7 2.4.4 0 1.6-.9 2.6-2zm18.9-1.1c0-1.4-2.9-4.7-4-4.7-1.4 0-.9 2.1.8 4 1.8 2.1 3.2 2.3 3.2.7zm7.8-4.2c0-1.5-3.6-4.4-5.6-4.4-2.2 0-1.3 2.8 1.4 4.3 3.5 1.8 4.2 1.9 4.2.1zm-16.8-1.7c-1.4-2.1-5.6-3.6-5.6-2.1s3.3 4.3 5.1 4.3c1.8 0 1.9-.2.5-2.2zm-10.3-5.7c-4.1-3.3-5.7-1.6-2 2.1 1.6 1.6 2.3 1.8 3.2.9.8-.8.6-1.6-1.2-3zm17.4 3.1c0-.5-1-1.6-2.2-2.4-2.7-1.9-3.9.1-1.2 2.1 2.1 1.4 3.4 1.5 3.4.3zm-8.8-4.4c0-1.4-2.8-3.4-4.8-3.4-1.9 0-1.1 3 1.1 3.9 3.2 1.1 3.7 1.1 3.7-.5zm15 0c-.6-1.5-4-3-4.9-2.2-.7.7 2.5 3.6 4 3.6.8 0 1.2-.6.9-1.4zm5.9-5.1c-2.2-1.6-4.6-1.7-4.1-.1.6 1.9 5 3.8 5.5 2.5.2-.6-.5-1.7-1.4-2.4zm-29.6 1.9c0-1.5-1.6-3-5.3-4.9-5.8-3-16.7-10.9-23.6-17.2-3.4-3.1-6.4-5.3-6.8-4.9-1.2 1.2 3 7.5 8.1 12.2 2.9 2.6 9.7 7 15.6 10 11.1 5.6 12 5.9 12 4.8zm14.9-.7c-.6-1.6-3.3-2.8-4.2-2-.6.6 2.6 3.3 3.9 3.3.5.1.6-.5.3-1.3zm-8.1-3.8c0-.7-1.5-2-3.4-2.9-2.9-1.4-3.4-1.4-3.4-.2 0 .8 1.2 2.1 2.7 2.9 3.3 1.8 4.1 1.9 4.1.2zm13.7-.7c-2.5-2.1-4-2.4-4-1 0 1.2 2.9 2.9 4.9 2.9 1 .1.7-.5-.9-1.9zm-6.9-2.3c0-.7-3.1-3.4-4-3.4-1.6 0-1 2.8.8 3.8 1.5.7 3.2.6 3.2-.4zm-18-2.6c-.3-.7-2.6-2.8-5.1-4.5-2.5-1.7-8.6-6.9-13.5-11.4-8.7-8.1-11-9.6-11-7 0 2.6 16.6 17.3 25.2 22.4 4.6 2.6 5.3 2.7 4.4.5zm34.5.2c.8-.5 1.1-1.2.7-1.6-.4-.4-1.5 0-2.4.9-1.7 1.7-.7 2.2 1.7.7zm-10.7-2.1c0-2.5-4.2-4.4-4.7-2.1-.3 1.4 2.2 4.1 3.9 4.1.5 0 .8-.9.8-2zm-14.6.2c0-.5-4.1-5-9.1-10-9.1-9.1-13.4-15.6-14.7-22.3-.5-2.8-1.7-4-6.6-7.2-7.6-4.9-19.4-16.6-24.9-24.6-12.3-18.2-18.5-43.5-17.2-70.5.3-6.9.8-14.2 1.1-16 .2-1.9-.2-1-.9 1.9-6.8 26.3-1.5 63.9 12.8 90.3 4.8 8.9 16.2 25.9 18.6 27.9.8.7 4.8 2.4 8.7 3.9 8.1 3 11.3 5.7 19 16.1 2.9 3.9 6.5 8 7.9 9.2 2.8 2.2 5.3 2.8 5.3 1.3zm3.4-12c-5.9-20.3-13.7-29.9-21-26-1.8 1-1.5 1.5 4 7.4 7.7 8.2 12.2 15.1 14.1 21.4 1.3 4.3 4 7.8 5.2 6.6.2-.1-.8-4.4-2.3-9.4zm186.1.5c4.4-13.7 5.9-26.1 6-46.9 0-19.8-1-30.7-4.6-47.8-6.4-30.8-18.6-54.7-38.1-74.8-15-15.5-32.6-27.4-48.4-32.9-10.2-3.5-33.4-6.1-34.7-3.9-.3.5 2.6 1.8 6.5 3 9.8 2.9 13.9 4.5 21 8.4 18.1 9.9 31.2 23.6 41 43 7.4 14.7 10.5 27.3 11.5 47.2.5 10.4.9 12.7 2.1 12.7 1 0 1.6-1.3 1.9-3.9.5-3.9.5-3.9 4.6-3.7 3.5.2 4.1-.1 4.1-1.7 0-2.2 1.1-2.3 5.5-.7 3 1.1 3.2 1.5 3.2 5.3s-.2 4.1-2.7 4.4c-2.3.3-2.7.8-3 4-.4 4.4-2.2 5.4-5.6 3.1-1.9-1.3-2.8-1.4-3.6-.5-1.2 1.2-.6 1.8 9 9 9 6.8 17.5 20.3 21.1 33.3 3 11.2 2.9 40.8-.2 51.2-.3.9-.3 1.7 0 1.7.1-.1 1.7-4.3 3.4-9.5zm-208.5-1.8c-2.1-2.5-5.8-5.6-8.2-6.9-4.2-2.3-4-2.1 3.2 5 8.3 8 11.2 9.2 5 1.9zm15.2 2.6c0-.5-2.3-4.2-5.1-8.4-4.7-7-9.8-12.2-10.9-11.1-.8.8 6.9 12.5 10.8 16.5 3.5 3.8 5.2 4.7 5.2 3zm71-5.7c-4.8-3.9-19.3-12.8-19.8-12.2-.3.3-.1 2.1.3 4.1 1.4 6.1 9 10.9 17.4 10.8h5.3l-3.2-2.7zm33.9-8.8c7.9-4.9 22.1-18.4 27-25.6 6.5-9.7 13.7-27 12.5-30.2-.2-.7-2.7 3.4-5.4 9-9.1 18.9-20.7 29.8-31.8 30-3.5.1-8.2-4.2-8.2-7.4 0-2-.6-2.4-6-3.6-2-.4-3-1.6-4.3-4.9-1.7-4.4-1.7-4.4 1.1-9.8 4.8-9.4 16.9-18.6 28.6-21.8 2.4-.6 7.2-1.5 10.6-1.8 4.9-.5 6.4-1 6.6-2.3.3-1.5-.5-1.7-6.3-1.7-11.3.1-21.3 2.4-30.9 7.1-20 9.9-38.9 27.9-43.3 41.2-1 3.1-1 3.7.5 4.5 6.6 4 21.3 14.1 25.3 17.5 8.8 7.3 9 7.5 13 5.8 2.1-.8 7-3.5 11-6zm72.7-10.9c.1-10.1-1.9-21.8-4.9-28.7-2-4.6-9.2-14.7-12.2-17l-2.7-2.1-.6 2.3c-.3 1.2-.7 4.4-.7 7-.1 4.1.7 5.9 6.4 15.4 7 11.7 11.4 22.9 12.6 32.2.9 8.5 2 4.1 2.1-9.1zm-215 10.7c.3-.6-1.5-3.5-4.2-6.6-9.5-11.1-18.8-27.2-24.6-42.9-3.4-9.2-3.6-8-.4 3 4.8 16.6 12.2 31 22.1 42.8 3.8 4.6 5.9 5.7 7.1 3.7zm157.9-26.3c5.9-4.7 10.2-10.5 14.5-19.6 2.1-4.6 3.9-8.8 3.9-9.4 0-2.5-2.1-.6-6.2 5.6-7.6 11.5-21.2 22.5-27.8 22.5-2.2 0-2.7 3-.7 4.6 3.4 2.9 9.8 1.5 16.3-3.7zm-21.4-5.5c0-3.2 5.7-11.7 10.8-16.1 5.1-4.5 15.8-10.4 18.8-10.4 2.5 0 5.4-1.8 5.4-3.4 0-1.8-3.3-1.8-11.9 0-12.2 2.6-24.9 11.1-28.8 19.4-2.5 5.2-2.6 7.1-.5 10 1.7 2.7 6.1 3 6.2.5zm14.9-3.1c6.7-4.6 18.4-18.6 16.8-20.2-1-1-7.5 1.8-13.2 5.7-6.4 4.2-10.9 9.4-13.2 15l-1.5 3.6 3.4-.6c1.8-.3 5.3-1.8 7.7-3.5zm39.4-23.9c0-1.5-.6-2.4-1.4-2.4-2.3 0-2.9 2.1-1 3.5 2.4 1.8 2.4 1.8 2.4-1.1zm-7.3-2c.3-.9.4-1.8.2-2-.8-.8-2.5.8-2.5 2.2-.1 1.9 1.5 1.7 2.3-.2zm-5.5-1.2c.2-.6-.3-1.2-1.2-1.2-.9 0-1.5.7-1.5 1.5 0 1.8 2.1 1.5 2.7-.3zm14.8-3.9c0-.5-.7-1.1-1.5-1.5-2.2-.8-2.3-.8-2.3.9 0 .8.9 1.5 1.9 1.5 1-.1 1.9-.5 1.9-.9zm-13.6-2.1c0-1.1-.6-1.9-1.5-1.9-1.5 0-2 2.1-.8 3.2 1.3 1.2 2.3.6 2.3-1.3zm6.6.2c.2-.6-.3-1.2-1.2-1.2-.9 0-1.5.7-1.5 1.5 0 1.8 2.1 1.5 2.7-.3zm7.8-5.3c-.2-1.2-1-2.2-1.8-2.2s-1.6 1-1.8 2.2c-.2 1.7.2 2.2 1.8 2.2s2-.5 1.8-2.2zm-7.1-.8c.7-2.3.1-3.3-1.4-2.4-1.3.8-1.4 4.4-.1 4.4.5 0 1.1-.9 1.5-2zm-6.3-1.9c0-1-.7-1.9-1.5-1.9-1.4 0-2 3-.8 4.2 1 1 2.3-.3 2.3-2.3zm23.3-1.7c0-2-1.8-4.1-3.6-4.1-.8 0-1.3 1.2-1.3 2.9 0 2.5.4 2.9 2.4 2.9 1.7 0 2.5-.5 2.5-1.7zm-23.6-9.9c-1.5-17.6-11.7-39.5-24.4-52-5.7-5.7-18.1-14-20.8-14-.6 0 1.1 2.9 3.8 6.4 6.7 8.9 9.7 15.1 16.4 34.9 6.4 18.8 8.4 23.3 11.5 26.1 1.8 1.6 10.8 5.3 13.1 5.4.6 0 .7-3 .4-6.8zm362.6 143.9c0-.4 1.1-1.8 2.4-3.1 7.1-6.7 11.2-18.2 11.9-33.5.7-15.3-1.1-22.4-10.7-42.3-4-8.3-8-17.4-8.9-20.2-.9-2.8-2.2-4.9-2.8-4.8-.6.2-2.4 2.8-3.9 5.8-2.4 4.9-2.9 7.1-3.7 19.9-1.2 17-.6 41.3 1.1 45.7.7 1.7 1.8 3.2 2.6 3.2 2.3 0 .9 2.3-1.9 3.3-1.7.6-4.8.5-9.3-.4-3.7-.7-8.3-1-10.2-.6l-3.5.7 2.5-5.6c2.4-5.2 2.6-7 3.4-26 .5-11.2.7-53.7.4-94.3-.3-63.6-.6-74.5-1.9-78.6-1.9-5.8-5.9-10.3-9.3-10.3-5 0-5.4-1.4-1.3-5.4 4.4-4.4 15.2-14 15.4-13.7.1.1 1.2 2.4 2.5 5.1 1.3 2.7 5.3 7.9 9 11.5 5.9 5.9 6.5 6.8 5.2 8.3-3.2 3.7-3.7 15-3.2 72.4.3 30.9.7 56.4 1 56.7 1.5 1.5 11.7-18.5 14.3-28.1 1.7-6.4 3.2-2.9 3.9 9.7.8 13.5 1.9 16.9 12 38 7.9 16.5 10.2 24.3 10.2 34.2 0 11.7-6 30.2-13.4 40.9-5.7 8.2-13.8 15-13.8 11.5zm-142.3-26.8c5.7 1.6 10.9 1.1 15.9-1.5 7.1-3.6 7.9-7.3 1.1-4.5-5.7 2.3-8.9 2-13.3-1.2-7.3-5.3-8.5-11.6-9.6-51.7-.5-17.2-.4-26.1.3-26.5.5-.3 3.2 1.8 5.9 4.7l5 5.3-2.1 4.7c-2.6 5.8-3 15.1-.8 17.3.8.8 3.1 1.8 5 2.1 4.8.8 7.8-2.2 7.4-7.2-.3-3.3-.6-3.6-3.7-3.9l-3.4-.3 2.2 2.3c2.2 2.3 2.2 2.4.4 4-1.7 1.6-1.9 1.6-3.5 0-3.8-3.8.6-15.3 9.9-25.5l5.2-5.7-3.2-1.1c-6.3-2.1-12.5-11-14.3-20.6-1.4-7.5-2.4-7.7-4-.7-1.5 6.6-5.4 13.7-12.7 22.9-8.3 10.6-14.4 19.3-14.4 20.8 0 .6 1.1 2 2.4 3 1.9 1.5 2.4 2.8 2.4 6.2 0 2.3.7 9.2 1.5 15.2 2.1 15 1.5 29.8-1.5 35.6-2.6 5-1.7 6.7 2.4 4.5 3.3-1.7 7.9-1.9 11.8-.4 1.6.4 5 1.4 7.7 2.2zm70.9.3c4.3 2.4 13 .4 14.5-3.3 1.7-4.5-.4-10.2-3.8-10.2-2.3 0-2.4 1.5-.3 3.3 1.9 1.6 1.9 1.8.3 3.6-4.1 4.6-8.5 1-11.2-9.3-2.4-8.9-2.9-24.7-2-65.2l.5-23.5 5.2-.6c6.7-.8 7.7-2.5 1.6-2.5-7.7 0-7.5.5-6.8-18.6.3-9.3.9-20.3 1.2-24.6.8-10.7-.7-8.7-4.4 5.8-4.9 18.9-10.6 29-20.1 35.5-2.4 1.6-4.1 3.4-3.8 3.9.3.5 2.5.9 4.8.9s4.5.4 4.8.9c.3.5.6 15.8.6 33.9.1 34.5 0 35-4.3 39.8l-2 2.2 3.4 3.6c1.9 2 6.1 7.1 9.3 11.4 6.1 8 9.1 11.1 12.5 13zm-396-278.2c-.4 3.2-.3 3.3 2.1 2.8 1.4-.3 3-1.2 3.6-1.9.6-.7 1.8-1.3 2.7-1.3.9 0 2-1.1 2.5-2.4.5-1.3 1.6-2.4 2.4-2.4.9-.1 1.7-.6 2.1-1.5.3-.8 1.1-1.5 1.8-1.5s2.5-1.6 4-3.6 3.4-4.1 4.2-4.7c.9-.7 1.2-1.7.7-2.9-.6-1.7-.8-1.6-2.8.6-1.2 1.3-3.3 3-4.8 3.8-1.5.7-2.9 2.1-3.2 3.1-.3 1-1.2 1.8-1.9 1.8s-1.6.9-2 2c-.4 1.4-1.2 1.8-2.4 1.4-1.2-.4-2.2.1-3.1 1.4-.7 1.1-2.2 2-3.3 2-1.8-.1-2.3.6-2.6 3.3zm4-.5c0-.5-.4-1-1-1-.5 0-1 .4-1 1 0 .5.4 1 1 1s1-.4 1-1z" fill-rule="evenodd" clip-rule="evenodd"/>
</svg>