<svg xmlns="http://www.w3.org/2000/svg" xml:space="preserve" width="699.984" height="562.144" style="shape-rendering:geometricPrecision;text-rendering:geometricPrecision;image-rendering:optimizeQuality;fill-rule:evenodd;clip-rule:evenodd" viewBox="0 0 185.2 148.731">
  <path d="M54.541 148.2c-1.07-.263-3.034-1.02-4.365-1.683-9.766-4.865-13.345-14.857-8.47-23.66 1.752-3.165 5.321-6.338 8.328-7.406.713-.254 1.294-.54 1.294-.635 0-.098-1.399-.177-3.109-.177s-4.408-.13-5.996-.288c-4.602-.46-7.173.047-6.984 1.377.097.682.893.792.839.116-.02-.255.136-.464.348-.464.265 0 .358.23.302.728-.165 1.436-2.068.994-2.068-.48 0-.898.774-1.516 2.179-1.743 1.391-.224 1.025-.52-.917-.74a48.443 48.443 0 0 1-3.604-.588c-2.283-.471-3.552-.303-4.445.59-.525.525-.59.738-.358 1.172.32.599.803.683 1.265.221.23-.23.234-.404.015-.668-.405-.488-.064-.762.434-.349.856.71.11 1.857-1.208 1.857-.61 0-.845-.162-1.064-.727-.415-1.075.002-1.972 1.187-2.55.943-.462 1.23-.476 3.663-.181 1.451.176 2.693.267 2.758.202.064-.064-1.165-.574-2.732-1.134-1.568-.558-4.728-1.94-7.02-3.071-7.333-3.615-10.046-4.16-12.105-2.427-.906.763-1.033 1.679-.431 3.121.405.969 1.78 1.637 2.698 1.31 1.554-.552 2.186-2.218 1.184-3.123-.643-.583-1.376-.452-1.756.313-.295.59-.645.54-.645-.093 0-1.113 1.997-1.55 2.91-.635.586.584.726 2.315.257 3.189-.354.662-1.62 1.309-2.562 1.309-1.85 0-3.686-1.944-3.37-3.572.3-1.56.695-2.178 1.779-2.788 2.332-1.31 5.279-.628 12.099 2.805 3.786 1.906 8.22 3.697 9.869 3.986.464.083-.776-.619-2.76-1.557-6.146-2.91-9.88-5.365-15.444-10.156-2.182-1.88-4.53-3.818-5.214-4.308-1.209-.862-1.268-.876-1.918-.45-.765.501-.831.762-.303 1.2.283.236.465.21.793-.12.389-.389.425-.389.425 0 0 .458-.989.944-1.512.746-.488-.186-.65-.983-.354-1.759.218-.572.433-.696 1.208-.696 1.373 0 2.636.762 5.023 3.032 1.165 1.107 2.474 2.203 2.91 2.438.62.333.5.143-.552-.869-.74-.712-2.664-2.842-4.275-4.733-3.236-3.803-3.745-4.293-4.874-4.685-.627-.22-.872-.18-1.29.198-.673.608-.654 1.053.065 1.558.536.375.63.363 1.19-.165.47-.44.609-.48.609-.17 0 .444-.81 1.28-1.242 1.28-.151 0-.589-.247-.971-.549-1.537-1.208-.433-3.336 1.535-2.96.78.15 2.76 1.93 4.327 3.89.459.574.905.972.993.885.157-.158-.26-.796-3.164-4.838-.836-1.164-2.285-3.384-3.219-4.933-.934-1.55-1.877-2.885-2.096-2.968-.616-.238-.497-.939.132-.775.297.077.53.008.53-.157 0-.163.121-.295.269-.295.147 0 .243.33.213.732-.067.872 1.965 4.604 4.472 8.216 1.704 2.455 2.61 3.239 1.247 1.078C9.655 86.513 6.959 79.62 4.757 72.2c-1.312-4.424-2.059-5.994-2.669-5.616-.167.103-.149.297.048.536.251.301.2.373-.27.373-.45 0-.561-.134-.495-.595.11-.776 1.261-.944 1.868-.275.424.47 1.83 4.395 2.18 6.091.179.861.67 1.461.664.813-.008-1.012-1.136-7.494-1.597-9.179-.765-2.796-1.76-4.776-2.551-5.076-.36-.138-.765-.182-.898-.1-.447.276-.25.927.348 1.148l.591.218-.638.203C.695 60.944 0 60.393 0 59.677c0-.605.994-1.237 1.635-1.041 1.38.421 2.174 1.663 3.122 4.887 1.177 4.002 1.3 3.108.65-4.762-.547-6.634-.578-6.828-1.189-7.35-.282-.243-.514-.705-.514-1.028 0-.323-.13-.667-.288-.765-.158-.098-.235-.376-.172-.619.063-.242-.046-.59-.24-.774-.197-.183-.358-.619-.358-.969 0-.349-.121-.71-.269-.8a.315.315 0 0 1-.106-.43c.09-.145-.047-.495-.303-.778-.256-.282-.386-.592-.29-.689.097-.096.012-.364-.188-.594-.564-.647-.812-2.402-.34-2.402.414 0 .79.704.566 1.064-.075.122-.016.297.132.39.147.09.269.383.269.65s.187.557.415.644c.275.106.36.338.246.69-.097.308-.048.531.119.531.157 0 .551.565.876 1.257.327.69.682 1.295.791 1.345.11.048.199.368.199.711 0 .343.1.686.224.762.22.137.46 2.797.808 8.89.186 3.288.208 3.253.953-1.456.808-5.108 2.193-9.9 4.433-15.345 1.9-4.612 2.584-7.064 2.614-9.357.033-2.39-.399-3.572-1.737-4.746-1.163-1.02-2.503-1.418-3.658-1.084-1.118.323-1.595.705-2.28 1.83-1.319 2.163-.146 5.087 2.192 5.466.782.127 1.095.04 1.621-.454.713-.67.904-2.277.337-2.843-.172-.173-.221-.404-.11-.515.625-.626 1.271 2.23.789 3.488-.463 1.206-3.233 1.596-4.462.629-2.626-2.064-1.341-7.709 1.89-8.315 2.123-.398 4.134.401 5.32 2.114 1.477 2.129.931 7.057-1.335 12.067-1.427 3.156-2.831 7.125-3.745 10.59-.89 3.375-.893 4.763-.003 2.044 2.117-6.478 4.513-10.954 11.151-20.836 3.445-5.13 4.118-6.595 3.575-7.788-.384-.84-1.206-.884-1.761-.091-.552.787-.52 1.189.121 1.53.448.24.569.192.75-.3.15-.403.28-.484.416-.264.284.459-.332 1.093-1.061 1.093-.844 0-1.234-.79-.885-1.79.336-.963 1.195-1.404 2.092-1.072 2.043.756 1.205 3.365-2.849 8.856-2.71 3.671-7.853 12.261-7.34 12.261.072 0 1.036-1.376 2.141-3.057 1.106-1.681 2.84-4.092 3.853-5.358 2.49-3.107 11.073-11.206 17.137-16.174 4.792-3.924 7.093-7.266 7.368-10.699.372-4.623-2.027-7.935-6.007-8.296-2.116-.192-3.914.673-5.935 2.855-1.674 1.809-2.145 3.08-1.872 5.055.202 1.48 1.715 3.639 3.023 4.315 1.623.84 4.03.263 5.12-1.226.683-.93.421-2.408-.608-3.437-.925-.925-1.075-.93-2.098-.069-.766.644-.814.653-.814.151 0-.829 1.288-1.703 2.232-1.514 2.537.507 3.287 4.254 1.2 6.007-1.037.872-2.867 1.403-4.13 1.197-1.324-.213-2.859-1.288-3.731-2.608-.648-.98-.729-1.345-.723-3.238.008-2.5.511-3.688 2.426-5.737 3.692-3.945 10.598-2.78 12.116 2.043.719 2.285.46 5.447-.669 8.173-1.06 2.56-2.991 4.686-7.781 8.557-3.772 3.05-7.72 6.614-12 10.832-3.727 3.674-4.91 5.438-1.429 2.132 4.873-4.629 11.577-9.156 19.633-13.255 3.467-1.764 4.701-2.523 4.918-3.02.285-.66.814-1.133 1.274-1.14.131-.003.043.213-.198.48-.579.637-.555 1.286.058 1.614.663.354 1.379-.412 1.097-1.172-.331-.89.179-1.717 1.052-1.709.31.004.297.063-.066.274-.55.321-.613 1.188-.097 1.385.2.077.497.007.661-.157.204-.204.296-.208.296-.011 0 .343-.657.927-.839.745-.07-.071-.408.169-.75.53-.452.483-.894.662-1.636.662-1.77 0-10.62 4.66-17.743 9.342-1.564 1.028-2.844 1.979-2.844 2.111 0 .132.388-.015.86-.327.473-.31 1.872-1.08 3.109-1.708 6.471-3.29 14.571-5.416 22.224-5.83l2.514-.137-2.646.486c-7.237 1.329-12.2 3.638-15.79 7.35-1.755 1.813-4.057 5.415-4.961 7.758-1.307 3.386-1.688 5.92-1.534 10.165.42 11.555 5.753 18.91 19.92 27.475 3.831 2.316 3.393 2.249 4.296.658 1.171-2.06 4.248-5.47 6.724-7.452 4.187-3.35 8.591-5.105 13.57-5.411 2.603-.16 2.645-.174 2.645-.824 0-.517-.233-.767-1.058-1.137-2.5-1.12-2.92-1.422-3.666-2.632-.425-.69-1.1-2.417-1.501-3.836-.926-3.279-2.4-7.283-3.434-9.335-.993-1.964-4.031-5.214-5.74-6.14-4.068-2.201-10.595-2.208-14.359-.016-3.026 1.763-5.57 5.445-6.14 8.886-.842 5.08 2.239 11.06 6.868 13.333 1.368.671 1.783.744 4.292.744 2.453 0 2.953-.082 4.275-.701 4.163-1.953 5.979-6.493 4.088-10.222-2.417-4.768-7.886-6.229-11.26-3.007-1.21 1.155-1.833 3.358-1.329 4.692.35.928 1.456 2.14 2.404 2.635.914.478 2.4.08 3.119-.832.645-.819.391-1.774-.71-2.683l-.72-.596h.706c1.066-.003 1.524.251 1.95 1.075.624 1.209.483 2.056-.513 3.051-.82.822-1.036.9-2.473.9-1.333 0-1.745-.124-2.682-.802-1.549-1.122-2.144-2.208-2.145-3.904-.003-2.616 1.636-4.998 3.865-5.622 1.562-.437 4.436-.206 5.99.482 1.666.737 3.777 2.898 4.613 4.72.583 1.274.66 1.743.554 3.369-.157 2.4-1.024 4.163-2.852 5.806-1.92 1.727-3.78 2.384-6.748 2.384-1.813 0-2.734-.137-3.86-.574-5.166-2.006-8.424-7.405-8.12-13.45.147-2.91 1.408-5.543 3.771-7.87 3.167-3.12 6.399-4.257 11.517-4.05 2.601.105 3.458.262 5.914 1.087 1.58.53 3.962 1.524 5.292 2.205 2.036 1.044 2.859 1.682 5.197 4.033 3.26 3.276 4.923 5.87 6.251 9.755.49 1.43 1.024 3.605 1.185 4.831.312 2.372.563 2.935 1.08 2.419.381-.38.353-3.387-.061-6.936-1.508-12.896-13.465-23.765-25.55-23.227-1.512.067-2.748.092-2.748.056s1.578-.836 3.506-1.777c5.829-2.845 7.562-4.453 10.143-9.407 1.312-2.519 2.821-4.547 3.146-4.23.1.096.035.45-.144.782-.178.335-.324 1.398-.324 2.362 0 3.773 2.048 6.305 8.014 9.906 4.26 2.57 6.128 3.888 7.96 5.616 3.202 3.022 2.703 1.97-1.24-2.608-4.985-5.79-6.586-8.647-6.587-11.756 0-1.622.106-2.045.793-3.152.99-1.594 2.342-2.334 4.492-2.46 1.416-.085 1.735-.003 2.867.723 2.987 1.92 3.01 6.255.038 7.693-1.334.645-2.36.663-3.539.06-2.56-1.311-2.265-5.622.386-5.622 1.753 0 2.965 1.99 1.792 2.944-.475.387-.477.423.044-.874.22-.541-.703-1.54-1.42-1.54-.869 0-1.64.861-1.793 2-.133.98-.063 1.143.818 1.916 1.173 1.03 2.332 1.107 3.614.242 1.136-.765 1.556-1.6 1.559-3.1.007-2.444-2.002-4.131-4.655-3.912-3.846.32-5.614 4.167-3.759 8.181.916 1.982 3.058 5.125 4.884 7.17 1.383 1.549 3.235 3.966 6.704 8.754.797 1.1 1.483 1.967 1.522 1.927.04-.04-.165-.766-.457-1.614-1.122-3.26-.342-5.52 1.762-5.115.744.143 1.273 1.454.91 2.252-.335.736-1.159.745-1.3.015-.061-.325.033-.412.328-.3.29.111.417.006.417-.344 0-.504-.462-1.14-.829-1.14-.507 0-1.024.928-1.024 1.839 0 .903 1.996 7.265 2.68 8.544.483.902.508.334.062-1.467-.363-1.477-.378-1.885-.089-2.58.41-.991 1.176-1.33 2.195-.975.97.338 1.358 1.169.992 2.128-.329.868-.937 1.16-1.477.71-.444-.367-.536-1.32-.13-1.32.147 0 .265.178.265.398 0 .489.368.512.754.046.213-.256.183-.5-.114-.926-.494-.704-.947-.731-1.524-.092-.638.704-.55 2.52.256 5.24 1.572 5.309 2.247 8.102 2.9 12 .38 2.256.753 4.163.83 4.236.079.072.065-.76-.029-1.852-.094-1.09-.245-3.91-.336-6.265-.182-4.731.083-6.216 1.418-7.98 1.36-1.794 3.597-2.415 5.381-1.492 1.157.598 2.365 2.87 2.367 4.457.003 1.145-.111 1.403-1.023 2.315-.808.806-1.23 1.028-1.965 1.028-1.897 0-3.378-2.166-2.45-3.583.497-.758 1.741-.888 2.28-.237.302.363.254.39-.393.229-.842-.212-1.197.153-1.204 1.235-.006.887.849 1.65 1.848 1.65 1.73 0 2.761-2.19 1.988-4.216-1.542-4.038-6.038-3.488-7.604.93-.459 1.292-.39 5.716.177 11.532.52 5.317.466 6.546-.564 13.097-.377 2.4-.73 4.84-.784 5.424-.087.944-.04.882.44-.58.591-1.808 1.481-2.728 2.637-2.728.979 0 1.705.841 1.484 1.718-.218.87-1.294 1.41-1.864.937-.222-.184-.334-.445-.25-.582.093-.147.291-.132.5.04.542.45 1.277-.405.92-1.073-.15-.281-.38-.51-.512-.51-.719 0-1.64.61-1.887 1.25-.368.953-1.56 5.036-1.56 5.346 0 .131.474-.02 1.054-.335.967-.526 1.11-.541 1.76-.176 1.11.624 1.357 1.2.88 2.052-.322.573-.6.726-1.323.726-.83 0-.923-.077-.996-.817-.048-.496.081-.95.33-1.156.454-.376.573-.014.139.42-.436.435.002 1.194.636 1.104 1.09-.156.757-2.065-.36-2.065-.832 0-1.813 1.326-3.792 5.127-2.39 4.593-4.233 7.595-6.305 10.285-1.635 2.12-1.729 2.395-.531 1.562.387-.269 1.748-1.055 3.025-1.747 3.872-2.094 5.855-3.829 5.335-4.668-.226-.367-1.072-.287-1.42.132-.385.464.01.757.684.505.43-.162.444-.13.123.264-.482.594-1.01.564-1.353-.077-.578-1.08 1.568-2.173 2.369-1.207.89 1.07-.735 3.047-4.026 4.895-2.295 1.29-2.062 1.405.53.263 3.024-1.336 8.026-2.756 11.178-3.177 1.382-.184 2.6-.465 2.708-.624.236-.35.256-2.177.034-3.008-.205-.765-.76-.624-2.742.695-.8.532-1.545 1.006-1.654 1.054-.109.05.186-.66.653-1.574.665-1.297.854-2.002.86-3.197.009-1.641.11-1.733 1.37-1.255.404.154 1.024.206 1.38.117l.643-.162-.138-9.202c-.093-6.188-.238-9.388-.443-9.771-.483-.903-1.763-1.435-2.959-1.232-1.45.244-1.382-.403.152-1.457 1.441-.992 1.618-1.3 1.862-3.259l.191-1.536 1.706 1.732c1.162 1.178 2.294 2.016 3.543 2.621l1.837.888-.543.691c-.467.593-.533 1-.467 2.885l.077 2.193 1.762-3.307c1.884-3.536 2.603-5.537 2.603-7.248 0-.973.037-1.03.42-.65.28.282.491 1.234.642 2.901.27 3 .672 4.366 2.53 8.625 2.14 4.91 2.353 5.777 2.313 9.48-.029 2.597-.15 3.526-.659 5.007-.343 1-.79 1.874-.992 1.942-.267.088-.317-.014-.179-.374.105-.272.254-1.21.332-2.086.287-3.229-1.182-7.616-3.956-11.82-.832-1.263-1.588-2.667-1.678-3.123-.24-1.197-.83-.929-1.723.785-1.23 2.358-1.538 4.49-1.543 10.664l-.005 5.505 1.413.624c.777.344 2.355.827 3.505 1.074l2.127.214 1.951-.434c1.092-.366 2.024-.628 2.071-.581.27.264-.945 1.48-2.141 2.141-1.258.696-1.615.767-3.899.761-1.401-.003-2.966-.163-3.537-.361-1.288-.446-1.48-.207-1.485 1.859l-.004 1.491 2.182.311c6.539.932 15.424 3.797 22.616 7.294 5.544 2.697 8.272 3.605 11.323 3.77 2.067.112 2.573.048 3.768-.464 1.495-.644 3.122-2.23 3.392-3.307.422-1.684-1.575-3.866-3.997-4.369-2.694-.56-5.034.279-5.705 2.043-.52 1.368 1.263 3.005 3.336 3.064 1.62.046 2.34-1.427 1.117-2.282l-.595-.414.595-.014c.72-.018 1.654.854 1.654 1.543 0 .276-.218.77-.485 1.1-.591.729-2.912 1.012-4.367.532-2.2-.726-3.324-3.434-1.958-4.719 2.024-1.9 6.095-2.338 8.85-.95 2.035 1.025 2.593 1.844 2.582 3.79-.018 3.125-2.333 4.977-6.536 5.229-3.604.216-6.628-.732-16.945-5.315-5.429-2.41-11.01-4.516-11.275-4.251-.07.07.162.332.518.58.354.246 1.717 1.455 3.026 2.681 3.569 3.346 5.68 4.49 6.13 3.32.249-.653-.33-1.065-.87-.62-.389.321-.434.321-.327-.006.41-1.24 1.946-.924 1.946.401 0 .586-.163.816-.714 1.009-1.319.465-2.574-.2-6.186-3.273-2.126-1.81-4.124-3.261-5.286-3.837-2-.994-5.46-1.99-6.906-1.99-1.023 0-.944-.562-.885 6.292.041 4.733.391 6.318 1.612 7.273l.805.63-1.228 1.005c-2.432 1.994-4.028 5.34-4.674 9.807-.178 1.234-.41 2.244-.517 2.244-.358 0-.492-2.748-.72-14.711-.123-6.564-.316-12.083-.429-12.264-.149-.243-.675-.283-1.958-.15-4.246.443-9.175 1.953-14.205 4.352-3.064 1.462-7.952 4.441-7.7 4.694.067.066 1.07-.356 2.23-.94 4.262-2.141 7.523-2.715 9.588-1.684 1.376.688 2.194 2.424 2.017 4.283-.167 1.743-.747 2.601-2.287 3.39-2.79 1.425-5.55-.086-5.55-3.037 0-1.756 1.117-2.982 2.715-2.982.79 0 1.213.183 1.82.79.845.845.851 1.507.023 2.45-.441.501-1.648.637-1.648.187 0-.152.148-.256.33-.233.68.088.915-.036 1.187-.633.345-.759.01-1.44-.877-1.776-.842-.32-1.813.06-2.385.934-.376.574-.4.847-.15 1.682.701 2.338 3.275 3.016 5.163 1.358 1.652-1.45 1.516-4.112-.28-5.48-.852-.65-1.182-.733-2.837-.715-1.637.016-2.22.175-4.65 1.262-3.519 1.575-6.469 3.04-8.995 4.466-1.663.938-1.877 1.133-1.323 1.2 1.36.163 1.833.345 2.625 1.013.91.765 1.006 1.352.41 2.503-.354.688-.544.781-1.587.781-1.87 0-2.826-1.241-1.723-2.24.588-.533 1.71-.392 1.955.245.185.485-.555 1.273-.96 1.022-.214-.132-.209-.212.02-.29.593-.196.354-.896-.274-.807-.835.12-.89.895-.1 1.413.963.63 2.115.06 2.229-1.101.244-2.51-4.899-2.675-7.204-.23-.791.838-.963.91-1.596.67-1.813-.69-1.875-.21-.28 2.167 4.673 6.967 6.237 14.742 4.236 21.052-.926 2.918-2.335 5.17-4.762 7.608-4.58 4.598-11.048 6.43-17.291 4.898zm8.945-3.068c2.96-1.068 4.97-2.394 7.573-4.996 1.68-1.682 2.618-2.866 3.133-3.957 1.38-2.928 1.594-3.997 1.576-7.834-.013-3.081-.113-3.893-.72-5.898-.834-2.75-2.18-5.526-3.758-7.751-1.035-1.46-1.217-1.6-1.939-1.494-.564.083-.82.28-.877.682-.045.31-.407.72-.806.911-.647.31-.844.275-1.855-.317-.648-.38-1.27-.576-1.457-.46-.543.336 1.03 4.204 2.5 6.157 3.559 4.72 4.337 9.818 2.17 14.22-1.878 3.815-5.144 5.652-10.012 5.629-2.504-.013-4.809-.6-6.7-1.71-1.463-.857-3.263-2.803-3.91-4.231-.616-1.355-.666-3.657-.116-5.219a5.1 5.1 0 0 0 .236-2.377c-.284-2.148 1.448-5.089 3.523-5.979 1.173-.504 3.2-.457 4.288.098 1.147.584 2.338 2.06 2.56 3.175.214 1.075-.258 1.152-.787.13-.801-1.548-3.893-2.593-5.386-1.82-1.117.577-2.122 1.848-2.464 3.118-.346 1.284-.223 1.477.582.913.787-.551 3.185-.554 4.791-.007 1.99.678 4.693 3.48 4.693 4.865 0 .571-.449.24-.869-.642-.838-1.756-3.702-3.316-6.088-3.316-1.201 0-2.524.481-2.815 1.023-.569 1.065 1.348 3.336 3.828 4.537 2.71 1.312 6.303.608 8.537-1.674 1.68-1.716 2.254-3.272 2.382-6.44l.11-2.687-1.088-1.18c-2.172-2.356-6.835-4.104-10.134-3.797-3.223.3-6.99 2.158-9.257 4.568-2.414 2.567-3.535 6.11-3.337 10.558.166 3.73.993 5.444 4.154 8.616 1.924 1.928 2.66 2.465 4.787 3.485 1.382.663 3.168 1.332 3.969 1.487.8.155 1.693.339 1.984.405 1.324.306 5.162-.128 6.999-.791zm-.705-7.265c1.715-.64 3.452-2.195 4.551-4.07 1.278-2.18 1.217-5.674-.151-8.769l-.58-1.313-.34 2.251c-.633 4.184-1.846 6.426-4.231 7.825-1.556.91-2.621 1.192-4.513 1.19-2.525-.004-4.406-.839-6.422-2.853-.929-.928-1.751-1.624-1.829-1.547-.22.221.457 2.266 1.215 3.67 1.09 2.02 2.619 3.069 5.685 3.898 2.295.622 4.446.53 6.615-.282zm.982-21.104c0-.112-.365-.648-.813-1.191-.78-.945-.88-.985-2.447-.981l-1.634.004 2.249 1.162c2.385 1.23 2.645 1.33 2.645 1.006zm-5.987-4.107c1.867-.86 1.826-.963-1.156-2.88l-1.985-1.275-.205.79c-.215.831-1.316 1.592-2.304 1.592-.925 0-3.026-1.221-4.047-2.352-1.633-1.808-2.895-3.926-3.61-6.06-.648-1.939-.73-2.051-1.65-2.279-.634-.157-1.07-.464-1.265-.893-.281-.616-.327-.628-.787-.21-.558.504-2.292 1.046-2.648.825-.38-.234.307-1.732 1.105-2.406.854-.72.904-.912.24-.912-.676 0-1.267-.751-1.465-1.862-.15-.833-.347-1.021-1.806-1.714-2.954-1.403-6.118-3.766-6.792-5.073-.164-.317-.297-1.168-.297-1.89 0-1.214-.097-1.413-1.282-2.623-2.436-2.488-5.48-8.144-6.754-12.548-1.232-4.26-1.591-7.117-1.606-12.786-.017-5.916.246-7.652 1.78-11.735 2.338-6.228 7.364-12.515 14.08-17.615 2.765-2.1 2.304-2.175-1.645-.268-6.141 2.967-12.68 9.437-16.172 16.006-1.527 2.869-3.67 7.996-4.474 10.701-1.86 6.248-2.314 13.844-1.14 19.05 3.995 17.714 16.302 32.724 30.812 37.58 3.94 1.317 6.364 1.703 10.213 1.623 2.953-.062 3.474-.146 4.86-.785zm4.23-.054c-.197-.514-.624-.514-.624 0 0 .218.175.397.389.397.237 0 .329-.155.235-.397zm3.627-.81c.644-.617.861-.678 1.854-.51l1.124.19-1-1.22c-.551-.673-1.181-1.221-1.4-1.221-.22 0-.83.388-1.358.864-.526.476-1.237 1.06-1.578 1.3-.468.327-.576.578-.435 1.016.158.5.318.563 1.124.432.517-.085 1.268-.468 1.67-.852zm-4.69-.558c.213-.215-.24-.944-2.147-3.46-1.255-1.652-1.57-1.92-2.28-1.925-1.023-.007-2.667-.742-3.799-1.697-.927-.782-1.213-.55-.318.26.299.27.945 1.152 1.437 1.96.518.848 1.211 1.606 1.641 1.795.411.179 1.58.971 2.598 1.76 1.772 1.372 2.48 1.694 2.867 1.307zm9.548-.503c.229-.229.416-.583.416-.788 0-.633 1.242-1.26 2.136-1.08 2.418.483 10.981-6.553 14.41-11.839 3.145-4.852 4.16-8.403 4.161-14.583.002-3.22-.105-4.369-.563-6.086-1.082-4.055-3.161-7.324-6.065-9.542-1.77-1.35-1.799-.647-.047 1.153 1.923 1.976 2.701 3.336 3.59 6.273.642 2.118.723 2.818.74 6.35.015 3.36-.073 4.284-.575 6.03-1.295 4.496-3.828 8.194-6.563 9.58-1.38.697-1.84.793-3.837.793-2.08 0-2.35-.063-3.244-.744-3.961-3.021-1.849-9.851 2.52-8.145 1.21.473 1.803 1.295 1.803 2.5 0 1.817-1.255 2.767-2.663 2.014-.8-.428-.604-.715.468-.682.842.025 1.017-.073 1.243-.698.21-.59.159-.867-.28-1.456-.743-.996-1.684-1.295-2.724-.864-1.02.422-1.6 1.48-1.6 2.916 0 1.388.546 2.43 1.757 3.353.856.653 1.173.731 2.844.707 2.379-.035 3.897-.68 5.368-2.278 2.69-2.921 3.541-6.737 2.6-11.652-.459-2.4-.488-2.462-2.66-5.65-1.932-2.836-2.342-3.914-2.173-5.689.102-1.06.038-1.349-.344-1.554-.405-.216-.534-.058-.92 1.136-2.062 6.388-7.388 12.659-13.284 15.641-.764.387-1.39.755-1.39.819 0 .063.536.882 1.19 1.819 4.183 5.98 4.55 12.542 1.023 18.256l-.953 1.547 1.41 1.43c.778.786 1.497 1.43 1.602 1.43.103 0 .375-.188.604-.417zm-7.162-1.46c.675-.593 1.22-1.278 1.21-1.52-.02-.46-2.47-2.688-3.788-3.443-.652-.373-.783-.381-.899-.055-.074.21-.418.664-.763 1.009l-.628.628.588.842c1.393 1.996 2.675 3.621 2.856 3.621.108 0 .749-.486 1.424-1.081zm-10.207-.637c.066-.692-.085-.896-1.174-1.578-2.253-1.412-4.505-3.75-5.363-5.566-.724-1.531-1.896-2.834-2.074-2.304-.137.412 1.298 4.42 2.056 5.744.972 1.696 2.522 3.501 3.554 4.14.522.323 1.186.476 1.868.43.965-.067 1.066-.144 1.133-.866zm12.6-2.467c.691-1.335 1.48-4.987 1.48-6.848 0-3.387-1.3-6.838-3.688-9.791l-1.24-1.531-1.63.09c-2.095.116-5.028-.378-6.101-1.032-1.337-.812-1.89-1.969-1.89-3.953l-.002-1.72-1.968-.884c-2.641-1.188-7.73-4.249-10.334-6.214-3.044-2.298-7.182-6.56-8.937-9.204-1.905-2.864-2.98-5.228-3.84-8.433-.585-2.188-.675-3.07-.684-6.75-.011-3.947.038-4.386.731-6.482 1.669-5.044 4.144-9.322 7.262-12.548 2.015-2.082 1.707-2.158-.745-.182-4.994 4.028-8.45 8.707-10.21 13.818-1.918 5.575-1.954 15.563-.077 21.401.67 2.079 2.249 5.33 3.431 7.063 1.268 1.86 3.834 4.469 5.726 5.822l1.654 1.183.836-.702c.915-.77 1.452-.753 3.132.099 1.648.836 3.56 4.36 4.346 8.016.112.518.53.913 1.542 1.455.949.508 1.414.932 1.472 1.34.104.727.354.75.952.09.82-.907 2.8-1.02 2.8-.16 0 .198-.31.728-.689 1.179-.492.583-.612.912-.421 1.144.149.179.375.735.504 1.237.215.835.521 1.06 3.661 2.71 3.548 1.862 5.11 3.18 6.793 5.725.395.598 1.823 1.917 3.175 2.93 1.35 1.012 2.481 1.85 2.514 1.86.033.01.233-.317.445-.728zm-13.964-1.284c-.999-1.283-3.878-3.87-4.08-3.667-.382.382 2.863 4.068 4.222 4.794.952.51.917.232-.142-1.127zm4.332-.327c0-.602-5.375-4.79-5.714-4.45-.216.214 1.983 2.747 2.989 3.441 1.47 1.015 2.725 1.48 2.725 1.01zm2.646-1.367c0-.299-.588-.889-1.521-1.523-2.168-1.471-8.534-4.617-8.528-4.213.006.59.365.91 1.847 1.652 2.006 1.003 4.378 2.74 5.953 4.357l1.323 1.358.463-.57c.255-.314.463-.79.463-1.06zm-8.801-1.979c-1.327-1.87-2.387-2.97-3.038-3.158-.462-.132-.595-.062-.592.311.006.663.199.887 1.72 1.99.73.527 1.553 1.208 1.827 1.51.903.998.957.577.083-.653zm7.193-1.073c-1.11-1.19-2.851-2.244-6.143-3.71-3.547-1.579-3.361-1.514-3.361-1.167 0 .14 1.16.852 2.58 1.582 1.419.732 3.651 1.973 4.96 2.76 1.31.787 2.431 1.384 2.493 1.327.06-.056-.177-.413-.53-.792zm-13.65-1.094c-.175-.506-.845-1.125-1.214-1.125-.302 0 .053 1.133.435 1.385.539.356.945.22.778-.26zm-3.394-.596c.562-.62.1-.724-.51-.114-.469.469-.521.643-.193.643.122 0 .44-.238.703-.529zm5.159-.31c0-.369-.782-1.277-1.1-1.277-.368 0-.254.585.215 1.102.5.553.885.629.885.175zm2.116-1.131c0-.422-.983-1.205-1.514-1.205-.61 0-.354.768.39 1.172.925.501 1.124.507 1.124.033zm-4.562-.477c-.37-.562-1.523-.992-1.523-.569 0 .413.9 1.164 1.396 1.164.48 0 .49-.046.127-.595zm-2.809-1.54c-1.116-.911-1.557-.443-.54.574.423.423.628.481.86.246.23-.235.153-.435-.32-.82zm4.726.826c0-.136-.268-.435-.594-.665-.742-.518-1.05.026-.318.562.567.415.912.454.912.103zm-2.381-1.196c0-.384-.768-.934-1.305-.934-.528 0-.286.809.312 1.05.846.34.993.322.993-.116zm4.067.002c-.151-.396-1.096-.822-1.323-.596-.194.196.69.983 1.103.983.215 0 .307-.161.22-.387zm1.607-1.377c-.61-.445-1.255-.459-1.112-.022.167.504 1.366 1.047 1.493.677.056-.166-.115-.46-.38-.655zm-8.06.507c-.008-.422-.432-.809-1.45-1.331-1.573-.804-4.541-2.97-6.428-4.69-.916-.836-1.745-1.44-1.84-1.343-.326.324.824 2.042 2.219 3.317.781.714 2.632 1.902 4.246 2.726 3.016 1.539 3.26 1.638 3.253 1.321zm4.076-.179c-.165-.43-.892-.773-1.132-.533-.167.165.71.91 1.072.91.113 0 .14-.169.06-.377zm-2.22-1.03c0-.191-.416-.547-.926-.789-.782-.374-.926-.382-.926-.056 0 .21.328.56.728.778.911.493 1.124.507 1.124.068zm3.742-.19c-.678-.563-1.096-.667-1.096-.268 0 .315.797.79 1.323.79.276 0 .207-.16-.227-.522zm-1.89-.649c0-.202-.842-.929-1.077-.929-.423 0-.267.756.212 1.023.405.227.865.178.865-.094zm-4.899-.693c-.08-.202-.708-.752-1.394-1.222-.686-.47-2.339-1.869-3.671-3.109-2.366-2.2-3-2.606-3-1.917 0 .711 4.521 4.721 6.87 6.092 1.245.728 1.437.753 1.195.156zm9.389.039c.215-.135.302-.335.193-.444-.109-.108-.398.004-.645.25-.478.479-.192.602.452.194zm-2.902-.549c0-.683-1.142-1.192-1.286-.57-.09.388.607 1.109 1.072 1.109.118 0 .214-.242.214-.539zm-3.969.032c0-.134-1.116-1.355-2.479-2.712-2.487-2.477-3.661-4.255-3.999-6.062-.143-.76-.453-1.095-1.808-1.966-2.066-1.326-5.287-4.517-6.775-6.713-3.362-4.959-5.04-11.854-4.677-19.213.093-1.892.223-3.857.287-4.366.065-.51-.05-.27-.257.53-1.848 7.157-.4 17.393 3.48 24.605 1.309 2.428 4.402 7.067 5.078 7.611.228.185 1.295.66 2.37 1.058 2.203.816 3.08 1.561 5.175 4.395.787 1.062 1.757 2.19 2.157 2.503.752.593 1.448.75 1.448.33zm.917-3.245c-1.618-5.532-3.725-8.142-5.711-7.079-.49.263-.417.398 1.089 2.008 2.087 2.231 3.33 4.121 3.84 5.84.349 1.173 1.088 2.113 1.41 1.791.05-.05-.231-1.203-.628-2.56zm50.677.133c1.19-3.718 1.62-7.102 1.623-12.785.003-5.403-.283-8.367-1.258-13.029-1.755-8.397-5.062-14.892-10.368-20.367-4.083-4.21-8.88-7.467-13.194-8.953-2.777-.956-9.092-1.668-9.463-1.067-.081.13.715.494 1.77.806 2.68.795 3.783 1.236 5.706 2.284C72.61 37 76.19 40.75 78.85 46.012c2.023 4 2.862 7.448 3.13 12.864.139 2.82.244 3.456.568 3.456.264 0 .44-.352.529-1.058.132-1.058.132-1.058 1.256-1.009.954.043 1.125-.027 1.125-.463 0-.595.29-.633 1.502-.195.807.292.88.41.88 1.437 0 1.025-.063 1.127-.728 1.204-.634.073-.74.214-.81 1.09-.1 1.2-.59 1.47-1.536.85-.522-.341-.76-.375-.99-.143-.323.328-.176.477 2.442 2.457 2.452 1.855 4.773 5.52 5.737 9.06.83 3.039.803 11.125-.044 13.956-.077.253-.077.463-.001.463.075 0 .507-1.152.957-2.56zm-56.775-.508c-.57-.671-1.572-1.517-2.227-1.882-1.137-.634-1.098-.574.88 1.374 2.228 2.192 3.039 2.498 1.347.508zm4.123.73c0-.124-.626-1.154-1.39-2.293-1.286-1.918-2.66-3.312-2.963-3.01-.214.215 1.868 3.413 2.932 4.501.976 1 1.421 1.25 1.421.801zm19.347-1.576c-1.316-1.054-5.25-3.481-5.399-3.33-.07.07-.029.567.093 1.106.376 1.673 2.442 2.956 4.744 2.945l1.455-.006-.893-.715zm9.227-2.374c2.155-1.338 6.03-5.014 7.357-6.977 1.782-2.636 3.735-7.345 3.415-8.237-.063-.179-.722.925-1.462 2.453-2.49 5.139-5.633 8.106-8.665 8.182-.95.023-2.232-1.142-2.232-2.027 0-.549-.16-.645-1.632-.97-.535-.12-.816-.444-1.159-1.343-.452-1.185-.452-1.189.3-2.67 1.296-2.565 4.59-5.076 7.79-5.937.65-.175 1.956-.396 2.9-.489 1.34-.132 1.735-.272 1.805-.633.077-.405-.138-.463-1.717-.454-3.076.016-5.807.647-8.428 1.947-5.44 2.698-10.598 7.604-11.79 11.214-.277.84-.26.996.143 1.237 1.792 1.077 5.798 3.841 6.893 4.759 2.385 1.997 2.46 2.03 3.546 1.576.523-.219 1.845-.952 2.936-1.631zm19.816-2.971c.023-2.758-.523-5.935-1.343-7.805-.553-1.261-2.515-3.998-3.317-4.629l-.733-.576-.174.617c-.095.34-.185 1.194-.2 1.898-.023 1.13.178 1.615 1.73 4.186 1.92 3.178 3.113 6.234 3.423 8.775.282 2.311.582 1.107.614-2.466zm-58.572 2.902c.092-.15-.416-.952-1.131-1.786-2.598-3.028-5.115-7.415-6.7-11.673-.93-2.508-.977-2.166-.11.825 1.311 4.521 3.331 8.438 6.012 11.65 1.03 1.233 1.597 1.522 1.93.984zm43.014-7.156c1.607-1.272 2.785-2.866 3.941-5.334.585-1.246 1.062-2.395 1.062-2.556 0-.686-.567-.176-1.7 1.53-2.083 3.132-5.77 6.116-7.558 6.116-.605 0-.736.825-.2 1.265.95.78 2.682.383 4.455-1.021zm-5.842-1.5c.004-.865 1.553-3.173 2.94-4.389 1.402-1.224 4.293-2.822 5.11-2.822.684 0 1.472-.501 1.472-.935 0-.495-.911-.493-3.247.001-3.332.706-6.77 3.028-7.834 5.292-.668 1.422-.697 1.944-.149 2.727.505.72 1.704.809 1.708.125zm4.062-.837c1.82-1.25 4.998-5.073 4.572-5.497-.262-.263-2.04.497-3.6 1.54-1.73 1.154-2.969 2.557-3.605 4.08l-.412.986.938-.152c.516-.084 1.463-.514 2.107-.957zm10.751-6.506c0-.4-.151-.661-.381-.661-.629 0-.793.584-.27.966.642.468.651.464.651-.305zm-2.006-.568c.092-.238.113-.489.045-.555-.209-.21-.684.212-.684.609 0 .52.433.482.639-.054zm-1.494-.308c.058-.174-.084-.315-.314-.315a.42.42 0 0 0-.419.42c0 .467.569.385.733-.105zm4.03-1.08c0-.13-.19-.31-.42-.398-.59-.227-.639-.209-.639.237 0 .22.236.397.53.397.29 0 .528-.107.528-.237zm-3.705-.558c0-.295-.176-.529-.397-.529-.402 0-.543.56-.22.882.335.335.617.174.617-.353zm1.792.05c.057-.173-.084-.314-.314-.314a.42.42 0 0 0-.42.419c0 .467.57.386.734-.105zm2.129-1.438c-.046-.329-.263-.596-.481-.596-.218 0-.436.267-.481.596-.066.457.045.595.48.595.436 0 .548-.138.482-.595zm-1.93-.22c.198-.624.03-.909-.385-.651-.348.213-.377 1.201-.036 1.201.136 0 .325-.248.422-.55zm-1.726-.525c0-.282-.18-.512-.397-.512-.393 0-.555.811-.228 1.138.276.277.625-.073.625-.626zm6.35-.46c0-.557-.488-1.11-.979-1.11-.206 0-.344.318-.344.793 0 .67.103.794.661.794.46 0 .662-.145.662-.477zm-6.429-2.7c-.402-4.793-3.2-10.763-6.645-14.168-1.565-1.55-4.93-3.821-5.658-3.821-.163 0 .298.785 1.026 1.746 1.837 2.428 2.63 4.11 4.48 9.507 1.751 5.11 2.298 6.344 3.143 7.109.49.443 2.93 1.448 3.573 1.471.132.006.168-.813.081-1.845zm98.766 39.205c0-.12.3-.5.666-.843 1.94-1.824 3.048-4.957 3.231-9.133.182-4.18-.302-6.101-2.905-11.521-1.086-2.261-2.181-4.736-2.435-5.5-.253-.762-.598-1.346-.766-1.296-.166.05-.642.76-1.054 1.579-.667 1.323-.78 1.928-1.016 5.414-.314 4.641-.152 11.243.303 12.457.178.473.5.86.717.86.613 0 .251.634-.517.905-.454.16-1.317.126-2.523-.103-1.008-.19-2.261-.264-2.785-.167l-.949.178.694-1.519c.648-1.415.712-1.898.928-7.087.128-3.063.182-14.617.121-25.676-.095-17.328-.168-20.287-.525-21.4-.506-1.578-1.619-2.807-2.545-2.813-1.367-.008-1.458-.381-.364-1.481 1.188-1.193 4.137-3.817 4.196-3.733.022.033.325.653.675 1.38.349.727 1.448 2.138 2.438 3.135 1.611 1.62 1.764 1.861 1.426 2.25-.868 1.006-1.003 4.076-.875 19.724.07 8.413.186 15.356.26 15.429.413.413 3.183-5.047 3.887-7.663.47-1.745.861-.778 1.07 2.645.224 3.671.52 4.612 3.262 10.354 2.144 4.49 2.784 6.622 2.79 9.307.006 3.19-1.643 8.238-3.643 11.145-1.563 2.272-3.762 4.127-3.762 3.173zm-38.76-7.308c1.547.434 2.965.303 4.34-.398 1.924-.983 2.163-1.985.295-1.236-1.542.616-2.426.534-3.63-.338-1.995-1.444-2.315-3.168-2.61-14.076-.126-4.676-.1-7.095.08-7.206.147-.09.877.48 1.62 1.267l1.356 1.433-.566 1.275c-.706 1.582-.815 4.102-.206 4.712.229.23.84.484 1.36.57 1.305.21 2.125-.594 2.01-1.972-.075-.906-.15-.984-1.007-1.066l-.926-.088.6.638c.587.626.588.65.098 1.093-.474.43-.528.43-.96-.003-1.045-1.046.16-4.161 2.69-6.957l1.414-1.563-.882-.29c-1.72-.568-3.395-2.988-3.895-5.624-.386-2.039-.658-2.088-1.082-.199-.401 1.785-1.482 3.732-3.463 6.243-2.27 2.874-3.912 5.251-3.912 5.66 0 .17.298.542.661.829.527.413.662.758.662 1.682 0 .64.19 2.505.421 4.148.58 4.088.414 8.122-.398 9.697-.705 1.37-.464 1.822.659 1.235.908-.473 2.16-.52 3.204-.122.41.157 1.339.452 2.067.656zm19.314.075c1.174.649 3.55.109 3.937-.895.471-1.229-.101-2.765-1.03-2.765-.616 0-.657.412-.09.897.515.44.517.485.076.973-1.122 1.241-2.305.261-3.056-2.532-.653-2.425-.787-6.73-.552-17.768l.136-6.39 1.41-.176c1.814-.227 2.104-.668.44-.672-2.091-.007-2.04.135-1.843-5.066.095-2.523.248-5.54.34-6.704.227-2.902-.18-2.366-1.207 1.587-1.335 5.145-2.894 7.905-5.463 9.673-.648.445-1.11.922-1.026 1.06.086.136.675.247 1.313.247.638 0 1.23.115 1.317.255.087.141.166 4.293.175 9.226.018 9.386.002 9.533-1.177 10.829l-.546.6.935.987c.516.545 1.655 1.942 2.533 3.106 1.63 2.162 2.442 3.01 3.378 3.528zM50.485 16.022c-.1.867-.07.91.566.762.371-.086.806-.32.968-.52.16-.2.492-.365.734-.365.243 0 .554-.297.692-.661.138-.364.437-.662.663-.662a.66.66 0 0 0 .565-.397c.083-.219.303-.397.489-.397.185 0 .674-.446 1.084-.992.412-.545.923-1.124 1.133-1.286.24-.181.314-.476.197-.78-.173-.454-.231-.442-.77.177-.321.366-.908.827-1.306 1.023-.397.195-.793.574-.878.842-.084.268-.317.487-.516.487-.198 0-.438.243-.533.54-.12.381-.317.494-.667.382-.332-.104-.61.024-.836.386-.188.3-.596.544-.909.544-.452 0-.59.188-.676.917zm1.108-.123a.265.265 0 1 0-.53 0 .265.265 0 0 0 .53 0z" style="fill:#000"/>
</svg>
