<!--
  SVG Music Logos
  U2 - How To Dismantle An Atomic Bomb v1.0.0
  https://github.com/tiagoporto/svg-music-logos
  Copyright (c) 2016 Tiago Porto (http://tiagoporto.com)
-->
<svg xmlns="http://www.w3.org/2000/svg" viewBox="0 0 200 110">
  <path d="M155.44 100.387c-7.74-3.945-15.728-7.633-20.264-6.42-4.476.694-6.184 6.62-6.09 9.843h-8.517c0-16.217 4.518-28.272 15.424-35.22 3.905-2.587 10.94-6.144 18.622-9.815 9.634-4.604 18.454-10.342 18.454-21.148 0-21.97-33.958-21.915-40.073-5.923 6.528-1.563 15.578-.342 15.578 9.215 0 6.573-3.207 11.737-12.997 11.737-7.885 0-13.118-7.073-13.13-16.032-.02-13.92 12.08-26.588 36.435-26.588 23.198 0 36.603 14.01 36.71 29.06.107 15.04-10.132 24.398-29.507 28.553-13.556 2.908-27.983 8.74-33.088 19.836.99-2.15 7.228-4.715 11.333-4.715 7.185 0 10.08 1.566 15.627 2.405 9.545 1.553 15.51 2.594 19.5 2.406 6.73-.316 9.513-6.732 9.513-16.614l8.676.095c0 23.173-8.676 35.137-23.02 35.137-7.622 0-13.29-2.803-19.187-5.81z" clip-rule="evenodd"/>
  <path d="M17.374 69.464v-47.38c0-7.14-1.092-7.704-6.92-7.704h-7.45V3.114H54.69v11.082h-8.51c-6.423 0-7.78 2.495-7.78 7.887v43.17c-.55 20.32 4.938 26.34 18.248 26.34h3.65c14.348 0 20.028-5.638 20.028-26.34v-43.17c0-6.89-1.154-7.887-6.904-7.887H63.91V3.114h47.042v11.082h-8.733c-4.943 0-6.312 1.55-6.312 7.887V74.73c.054 27.174-25.393 31.35-35.27 31.35H53c-20.62 0-35.626-10.042-35.626-36.616z" clip-rule="evenodd"/>
</svg>
