<svg xmlns="http://www.w3.org/2000/svg" width="208.301" height="71.94">
  <path fill="#231f20" fill-rule="evenodd" d="M19.585 38.923c-1.623.527-3.186 1.38-4.687 2.577-2.7 2.11-4.06 4.444-4.06 6.94 0 .771.245 1.38.731 1.805.467.427 1.137.65 1.969.65 1.907 0 3.937-.67 6.047-1.989.527-.324 1.075-.71 1.603-1.116 2.699-2.09 5.093-4.85 7.143-8.34-.974-.406-1.827-.69-2.577-.872a9.628 9.628 0 0 0-2.252-.284c-1.34 0-2.659.203-3.917.629zm164.08 10.531c.101-.142.224-.264.385-.385.468-.325 1.075-.487 1.826-.487.975 0 2.171.507 3.531 1.502 1.38 1.014 2.638 1.522 3.815 1.522 1.522 0 2.618-.508 3.267-1.522.65-1.036.975-2.821.975-5.378 0-.67-.103-1.42-.305-2.191-.183-.792-.486-1.665-.851-2.658l-9.112 5.681-.914-.67 9.7-6.108v-.182c0-1.32.405-2.394 1.238-3.166.831-.77 1.969-1.177 3.43-1.177.73 0 1.339.143 1.826.406.506.264.75.61.75 1.015 0 .507-.325.974-.974 1.42-.65.447-2.15 1.076-4.463 1.887 2.211.934 3.855 1.928 4.91 3.024 1.075 1.096 1.602 2.313 1.602 3.673 0 2.07-1.319 3.774-3.896 5.114-2.596 1.338-5.864 1.988-9.78 1.988-2.253 0-4.038-.203-5.316-.629-.792-.264-1.34-.61-1.644-.995a1.241 1.241 0 0 1-.284-.811c0-.324.081-.61.284-.873zm0-7.345a2.36 2.36 0 0 0 .264-1.096c0-.447-.081-.852-.264-1.218-.305-.608-.872-1.116-1.664-1.521-1.278-.67-3.043-.995-5.316-.995-1.562 0-3.085.122-4.566.386a23.909 23.909 0 0 0-7.771 2.84c-3.714 2.171-5.582 4.485-5.582 6.981 0 .365.041.73.103 1.055a20.566 20.566 0 0 1-3.613 2.01c-1.319.587-2.334.871-3.044.871-.344 0-.65-.08-.892-.222-.244-.143-.366-.305-.366-.508 0-.243.082-.608.285-1.096.202-.487.446-1.014.771-1.623l2.07-3.795c.506-.852.831-1.582 1.034-2.15.203-.589.305-1.137.305-1.644 0-.853-.508-1.563-1.502-2.09-.995-.548-2.273-.812-3.856-.812-2.617 0-5.112.751-7.507 2.273-2.395 1.521-5.074 4.079-8.076 7.67l4.87-9.82-7.508.689-5.905 13.88-.142.344h6.412c2.82-4.22 5.539-7.467 8.116-9.78 2.618-2.314 4.809-3.49 6.615-3.49.609 0 1.055.1 1.38.304.305.203.468.466.468.832 0 .223-.061.528-.204.892-.142.386-.446 1.036-.912 1.949l-2.375 4.687c-.304.67-.487 1.157-.59 1.481-.1.345-.16.63-.16.852 0 .873.406 1.523 1.216 1.948.812.427 2.01.65 3.551.65 1.746 0 3.491-.325 5.236-.933 1.462-.528 3.003-1.34 4.668-2.375.344.731.934 1.34 1.724 1.826 1.44.893 3.53 1.36 6.21 1.36a23.46 23.46 0 0 0 4.97-.548 43.364 43.364 0 0 0 1.563-.385c2.253-.63 4.607-1.583 7.123-2.882l-.569-.588c-2.049.934-4.017 1.664-5.925 2.171-.751.183-1.481.345-2.191.467a16.809 16.809 0 0 1-2.923.263c-1.4 0-2.495-.223-3.226-.71-.751-.466-1.136-1.176-1.217-2.13 2.76-.406 5.215-.832 7.366-1.279 2.962-.629 5.357-1.278 7.162-1.988 2.334-.893 3.795-1.887 4.384-3.003zm-11.546 3.713a23.647 23.647 0 0 0 3.287-1.298c2.72-1.34 4.08-2.76 4.08-4.282 0-.65-.245-1.157-.73-1.502-.488-.345-1.22-.507-2.173-.507-1.482 0-2.983.365-4.464 1.075a14.17 14.17 0 0 0-2.415 1.482c-2.273 1.725-3.916 3.896-4.951 6.574 2.8-.365 5.256-.872 7.366-1.542zm-46.184-1.238c.101-.406.161-.79.161-1.197 0-.406-.06-.791-.161-1.177-.325-1.238-1.177-2.272-2.577-3.125-1.807-1.116-4.16-1.684-7.022-1.684-1.116 0-2.211.08-3.287.203-3.003.385-5.742 1.298-8.198 2.74-1.177.69-2.15 1.4-2.922 2.11-1.44 1.36-2.15 2.8-2.15 4.301 0 1.705.71 3.044 2.15 4.039.183.121.386.243.589.344 1.806 1.015 4.424 1.502 7.893 1.502.893 0 1.785-.04 2.638-.142 2.982-.325 5.722-1.238 8.219-2.74 2.657-1.603 4.22-3.327 4.667-5.174zm-12.886 6.433c1.259-.589 2.476-1.542 3.652-2.841 2.152-2.395 3.248-4.972 3.248-7.732 0-.587-.345-1.115-1.035-1.542-.69-.446-1.523-.67-2.456-.67-1.034 0-1.928.123-2.68.386-.242.082-.485.163-.73.284a7.96 7.96 0 0 0-1.48.955 16.941 16.941 0 0 0-3.876 4.524c-.994 1.746-1.5 3.308-1.5 4.708 0 .791.323 1.42.993 1.928.65.487 1.543.73 2.638.73a7.62 7.62 0 0 0 3.226-.73zm-11.12-16.843h2.151v.955h-7.142l-7.042 13.696c-.223.386-.365.69-.446.893-.102.223-.142.386-.142.467 0 .304.1.548.304.71.183.162.467.243.832.243 1.076 0 3.105-.67 6.088-2.008.73-.325 1.298-.589 1.684-.751l.71.75c-2.496 1.258-4.606 2.172-6.31 2.76-1.746.59-3.268.873-4.566.873-.487 0-.954-.02-1.38-.081-.832-.102-1.542-.325-2.151-.65-.893-.507-1.36-1.136-1.36-1.907 0-.386.04-.73.122-1.055.06-.345.182-.65.305-.954l3.084-6.473 3.125-6.513h-3.084v-.954h3.611l5.824-10.917 5.783-.751 1.218-.163-1.218 2.435-4.667 9.396h4.667zm-15.26-4.483c2.619-2.477 4.83-4.83 6.657-7.123 4.139-5.175 6.23-9.761 6.23-13.779 0-1.664-.325-2.861-.975-3.632C97.932 4.385 96.917 4 95.517 4c-2.922 0-5.864 1.38-8.847 4.12-1.076.994-2.151 2.172-3.227 3.53-4.058 5.094-8.522 13.252-13.393 24.473l-3.287 7.406-5.823 3.49 3.55.974c-2.962 5.885-5.235 10.288-6.838 13.19-.02.02-.02.02-.02.04a83.384 83.384 0 0 1-2.212 3.775 46.25 46.25 0 0 1-1.948 2.942l1.948-.385 2.232-.447 3.612-.73 9.639-18.527a67.606 67.606 0 0 0 7.163-1.928 44.93 44.93 0 0 0 6.169-2.536l-.73-.812a47.41 47.41 0 0 1-5.824 2.395c-2.03.67-4.14 1.217-6.372 1.664l3.51-7.042c4.586-3.45 8.543-6.757 11.85-9.902zm0-14.854c.468-.772.914-1.503 1.34-2.172 3.287-5.155 5.986-7.75 8.137-7.75.568 0 .974.222 1.258.648.264.426.386 1.075.386 1.947 0 3.633-1.908 8.057-5.763 13.252a70.715 70.715 0 0 1-5.357 6.35c-3.105 3.328-6.818 6.778-11.1 10.37 4.343-9.883 8.056-17.452 11.1-22.645zM57.653 49.434c.345-.162.69-.345 1.036-.528l-.569-.588c-.162.061-.324.142-.467.203a40.23 40.23 0 0 1-2.232.933 36.95 36.95 0 0 1-3.226 1.035c-.751.183-1.481.345-2.191.467a16.806 16.806 0 0 1-2.923.263c-1.4 0-2.495-.223-3.226-.71-.75-.466-1.136-1.176-1.217-2.13 2.759-.406 5.214-.832 7.366-1.279 2.09-.446 3.896-.892 5.417-1.38a16 16 0 0 0 1.746-.608l.486-.183c2.78-1.156 4.16-2.455 4.16-3.916 0-1.177-.649-2.09-1.927-2.74-.63-.345-1.38-.588-2.233-.75a17.49 17.49 0 0 0-2.232-.244h-.852a26.01 26.01 0 0 0-4.565.386 23.647 23.647 0 0 0-7.752 2.84c-3.734 2.171-5.6 4.485-5.6 6.98a5.2 5.2 0 0 0 .223 1.523c-.163.08-.325.162-.508.264-2.617 1.44-4.667 2.15-6.148 2.15a1.4 1.4 0 0 1-.73-.203c-.224-.121-.325-.283-.325-.466 0-.203.121-.568.365-1.116.142-.264.243-.447.284-.568l19.42-40.28-7.448 1.359-12.723 27.76a92.416 92.416 0 0 0-3.571-.385 29 29 0 0 0-2.415-.122c-1.197 0-2.354.08-3.49.203-3.571.426-6.818 1.502-9.76 3.246C5.948 43.144 4 45.66 4 48.44c0 1.44.588 2.516 1.725 3.267 1.156.75 2.82 1.136 5.011 1.136 2.659 0 5.297-.69 7.914-2.07.305-.162.63-.345.934-.507 2.273-1.34 4.383-3.145 6.351-5.398L24.82 47.02l-.122.244c-.69 1.4-1.034 2.374-1.034 2.942 0 .852.405 1.502 1.257 1.948.853.467 2.09.69 3.714.69 1.44 0 2.942-.284 4.485-.832 1.238-.446 2.637-1.116 4.22-2.05.345.548.852 1.016 1.481 1.4 1.441.893 3.531 1.36 6.21 1.36 1.623 0 3.287-.182 4.972-.548a43.344 43.344 0 0 0 1.562-.385 32.357 32.357 0 0 0 3.855-1.34c.73-.304 1.461-.649 2.232-1.014zm-2.232-6.168c1.3-.954 1.948-1.97 1.948-3.024 0-.65-.243-1.157-.73-1.502-.325-.223-.71-.365-1.218-.446a6.923 6.923 0 0 0-.954-.061c-1.481 0-2.982.365-4.463 1.075-.812.386-1.603.873-2.415 1.482-2.273 1.725-3.917 3.896-4.951 6.574 2.8-.365 5.255-.872 7.366-1.542a23.61 23.61 0 0 0 3.287-1.298 14.419 14.419 0 0 0 2.13-1.258"/>
</svg>
