<!--
  SVG Music Logos
  Metallica - Triple X - 30 Years v1.0.0
  https://github.com/tiagoporto/svg-music-logos
  Copyright (c) 2016 Tiago Porto (http://tiagoporto.com)
-->
<svg xmlns="http://www.w3.org/2000/svg" viewBox="0 0 200 102">
  <polygon points="91.203,90.435 49.412,42.767 70.08,15.306 49.45,29.404 57.014,27.685 46.602,39.561 36.189,27.685 43.753,29.404 23.123,15.307 43.791,42.768 2,90.435 43.949,60.521 32.945,64.647 46.602,46.502 60.258,64.647 49.255,60.521"/>
  <polygon points="198,90.435 156.209,42.767 176.876,15.306 156.246,29.404 163.81,27.685 153.397,39.561 142.985,27.685 150.549,29.404 129.92,15.307 150.587,42.768 108.797,90.435 150.745,60.521 139.741,64.647 153.397,46.502 167.055,64.647 156.052,60.521"/>
  <polygon points="158.399,100.184 103.68,37.771 130.741,1.816 103.729,20.274 113.633,18.023 100,33.573 86.366,18.023 96.271,20.274 69.259,1.817 96.32,37.772 41.601,100.184 96.526,61.017 82.119,66.42 100,42.662 117.881,66.42 103.475,61.017"/>
</svg>
