<!--
  SVG Music Logos
  Metallica - Scary Guy Wings v1.1.0
  https://github.com/tiagoporto/svg-music-logos
  Copyright (c) 2016 Tiago Porto (http://tiagoporto.com)
-->
<svg xmlns="http://www.w3.org/2000/svg" viewBox="0 0 200 84.667" class="metallica--scary-guy-wings">
  <g class="metallica__background">
    <path
      d="M197.956 13.886c-.124-.364-10.737-.166-11.83-.12-1.094.05-2.06-.005-2.794-.165-.98-.213-9.857.12-11.33.025-1.475-.095-7.896.285-8.42.238-.522-.048-2.662.19-3.233.143-.572-.048-1.57.285-2.427.238-.856-.048-6.658.285-6.967.262-.31-.024-1.736.214-2.188.31-.452.094-4.4.118-5.065.047s-1.688.095-2.07.143c-.38.048-.855.024-1.105-.048-.25-.07-.285.392-1.177.214s-6.42.125-6.83.07-1.73.072-1.926.037c-.196-.037-.927-.875-1.034-1.178s-.838-1.177-1.052-1.248-.357-.143-.517-.25c-.16-.107-.552.07-.926-.107s-1.766.036-1.962 0-.268.32-.5.303c-.23-.018-.552.143-.64.232s-.572.09-.804.214-.803.41-1.16.428c-.356.018-.534.285-.82.357s-.177.786-.267 1.463c-.088.678.144 1.052.25 1.338.108.286.126.982.09 1.392-.036.41.196.678.214.91.018.232.107.624.44.678.33.054 1.468.036 1.843.214s.927.838 1.088 1.248.446.443.553 1.073c.054.32.13.665.265.77.294.227.11.6.27 1.046.16.447.053 1.89.196 2.213.142.32.053 2.372-.02 2.692-.07.32-.23.982-.213 1.59.018.605-.232.427-.232.73s-.285.73-.392.945c-.107.214.036.446-.32.5-.25.036-.893-.304-1-.345-.107-.04-1.766.023-2.14 0-.375-.023-.446-.03-.464.272s-.572 1.355-1.214 1.48-4.12.018-4.263-.107-.036-.392-.036-.59c0-.195-.232-.712-.16-.944.07-.232.677.25 1.105-.357.22-.31-.25-.928-.25-1.018s1.076-.368 1.347.143c.27.51.846.963 1.078.856.232-.106-.09-1.05-.07-1.212.017-.16.516-.696 1.194-.856.678-.16 1.8-2.515 2.122-2.978.32-.464.34-3.103.232-3.37-.107-.27-.927-.768-1.213-.928-.285-.16-.927-.66-1.552-.927-.623-.27-2.3-2.195-2.71-2.64-.41-.447-.696-1.25-.927-1.48-.232-.233-.268-.59-.125-.768s.232-.606.25-.856.232-.214.25-.428c.018-.214.107-.392.25-.517.143-.124.09-.534.214-.784.125-.25 1.07-1.48 1.39-1.605.322-.124.25-.516.126-.64-.125-.126-.553.142-.66.23s-.392.09-.73.144c-.34.054-2.07 1.855-2.213 2.105-.143.25-.98.766-1.177.91-.196.142-.535.106-.642.177s.107.927.09 1.177c-.02.25-.233.803-.34 1.034s0 1.73 0 2.015c0 .285.827 1.31 1.64 1.926 1.306.99 1.695 1.675 1.91 2.05.213.375.32.82.23 1.124-.088.303-.267.41-.498.357-.232-.053-.125-.463-.25-.552-.125-.09-.214-.357-.392-.66-.178-.303-1.712-1.766-2.158-2.158-.446-.392-1.516-.945-1.748-.963-.232-.018-1.052-.57-1.498-.606-.446-.035-1.302-.463-1.48-.534-.178-.07-.838.054-1.23-.16s-.714-.108-.964-.162-.107-.34.125-.392c.232-.054.285-.392.553-.392.268 0 .535-.268.713-.268.177 0 .552-.214.784-.32.232-.108 1.66-.037 2.23-.055.57-.018 1.016-.16 1.016-.34s-.927-.855-1.23-.837c-.304.018-.465.018-.625-.125-.16-.143-1.32-.07-1.66-.125-.338-.054-.98.196-1.158.268-.178.07-1.124-.036-1.284-.054-.16-.018-.464.303-.803.285-.34-.02-.517.088-.678.25-.16.16-.482.25-.606.035-.125-.214.143-.34.375-.464.233-.124.144-.356.59-.873 1.39-1.614 3.96-3.638 4.19-3.71.233-.07.643-.5.91-.57.27-.072.91-.59 1.25-.554.338.036.534-.232.677-.303.143-.07.874-.036.963-.107.09-.07.606.036.733-.09.126-.124-.25-.427-.394-.41-.144.02-.393-.267-.572-.267-.178 0-.59-.07-.713-.09-.125-.017-.428.108-.838.037s-1.944.054-2.194.054-.73.285-1.017.303c-.285.018-.535.232-.767.232-.233 0-.18.285-.59.357s-1.266.837-1.676 1.14-.963.678-1.195.82c-.233.143-.518.642-.643.482-.125-.16.107-.82.214-.98.108-.162 0-.875.126-1.142.125-.268.214-.98.34-1.177.124-.196.516-1.088.552-1.284s.5-1.642.75-1.927 1.3-2.033 1.604-2.354 1.017-1.624.98-1.856c-.035-.232-.498-.125-.712.054-.214.178-.535.214-.66.285-.125.07-.642.642-1.32 1.07-.678.428-2.336 2.818-2.747 3.46s-2.105 3.995-2.176 4.494c-.07.5-.482 1.73-.606 1.89-.124.16-.338 1.106-.41 1.712-.07.605-.48 1.283-.534 1.73s-.303.267-.285.91c.02.64-.177 1.46-.25 1.622-.07.16.072.785-.053.98-.125.197-.357-.213-.553-.284-.196-.07-.606 0-.482-.178.125-.178.5-.34.517-.66.017-.32.124-.482.23-.785s-.035-2.015-.07-2.426c-.036-.41-.107-1.517-.196-1.874-.09-.357-.25-1.052-.196-1.82.054-.766-.41-.766-.303-1.39.107-.624-.535-2.247-.544-2.648s-.31-.82-.284-1.052c.027-.232-.187-.847-.32-1.017s-.08-.518-.188-.652-.285-.856-.437-1.115c-.15-.26-.347-.713-.427-.99-.08-.276-.59-.963-.945-1.284s-1-.875-1.204-.68c-.205.197.042.423.22.768.178.345.95 1.45.916 1.795-.036.345.297.69.273.927-.024.238.143.32.202.725.06.404.024 1.415.012 1.617-.012.202.178.678.125.82-.054.143-.125 1.73-.107 2.372.018.642-.214 1.14-.357 1.355-.143.213.178.91-.107 1.158-.284.25-.25.59-.32.785-.07.196-.143.482-.303.624-.16.143.09.517-.214.75-.303.23-.16.445-.375.855-.214.41-1.373 1.742-1.896 2.217-.523.475-.975.45-1.308.415-.333-.036-1.177.214-1.558.238-.38.024-1.082.226-2.295 1.01-1.212.786-2.208 2.36-2.26 2.557-.055.196-.43.65-.51.713-.08.062-.07.33-.115.526-.045.195-.375.258-.285.454.224.493 1.32 1.257 1.525 1.355s.5.088.562.15c.062.063.562.126.535.402-.027.276-.196.446-.32.517-.126.07-.06.68.08.73.463.17.43.36.605.455.117.064.267.048.366.09.165.068.26.18.348.23.144.08.33-.008.43.063.097.07.258.116.48.08.224-.036.33.107.295.276-.036.17-.134.196-.285.232-.152.036-.134.268-.26.553-.124.284-.4.65-.275 1.007.125.357.4.187.553.357.152.17.446.26.57.32.126.063.41-.124.518-.008s.42.232.633.26.082.174.344.28c.262.108.226.655.143.917-.083.262-.226-.012-.464.285-.238.297-.797.226-1.023.238-.226.012-.594.32-1.51.51s-1.118.512-1.415.596c-.297.083-.464-.012-.678.19-.214.202-.594.166-.785.31-.19.142-.666.19-1.023.142-.358-.048-.762.13-1.273.048-.51-.083-.464-1.01-.38-1.724.083-.713.535-1.284.678-1.593.143-.31-.28-.64-.75-.868-.263-.127-.284.012-1.212-.036-.927-.047-1.653.31-2.485-1.093-.832-1.403-.583-3.953-.1-6.11.48-2.16 2.032-4.317 2.656-5.672s1.57-1.676 1.962-1.783c.392-.107 1.338-.606 1.302-.892-.036-.285.178-.59.232-.696s.018-.696.09-1.355c.07-.66-.126-1.303-.25-1.57-.126-.268-.126-1.017-.197-1.213s0-.535-.232-.856c-.23-.32-1.105-.302-1.46-.463-.358-.16-1.386-.125-2.1-.125s-2.188.81-2.544 1.023c-.357.214-.44.262-2.794.262s-13.852-.262-14.327-.214c-.476.048-10.44-.166-13.602-.262-2.714-.08-9.63.215-10.7.144-1.07-.07-1.975.07-2.617.166-.642.095-5.113-.07-6.373 0-1.26.07-3.9.333-4.233.357-.333.024-3.234-.095-3.924-.095s-.624.297-1.308.31c-1.452.026-1.593.237-1.88.282s-4.66.026-4.993.002c-.333-.024.024.143-.856.214-.88.07-1.214.166-1.404.332-.19.165-1.118.072-1.64.025-.524-.048-2.64-.048-3.02.19-.38.238.498.666.808.927.31.262 1 .523 1.427.618.43.095.952.523 1.285.57.333.05 1.094.12 1.355.215.262.095 1.094.31 1.38.333.284.024 1.07.31 1.354.476.285.166 1.593.297 1.986.333.392.035 1.748.356 1.962.356s1.605.32 2.033.428c.428.107 4.03.464 4.673.535.642.07 4.07.37 4.673.463 1.987.303 3.44.096 4.246.238.466.083.17.278.083.322-.386.197-1.03.368-1.44.583-.73.382-1.347.802-2.314.94-.544.076-.73.107-1.206.32s-1.332.19-1.712.334c-.38.142-2.45.712-4.47 1.117-2.022.404-4.59 1.474-4.923 1.546-.333.07-3.09 1.783-3.52 2.093-.427.31-.38.143-.712.285s-2.188 1.594-2.402 1.594c-.213 0-.665.452-.926.523-.262.07-1.403.95-1.76 1.332-.357.38-.31.76-.12.784.19.024.477-.07.62-.12.142-.047.26-.26.522-.284.262-.024.69-.143.737-.214.048-.07.547 0 .737-.166.19-.166.713-.166.904-.166.19 0 .678-.357.963-.606s1.676-.178 2.354-.32 3.247-.75 5.35-.857c2.106-.106 4.96-.498 5.155-.623.196-.125 1.284-.196 1.748-.178.464.017.75-.18.963-.25.214-.072.927 0 1.338.017.41.018 1.8-.303 2.122-.34.32-.035.713.09.856.09s.018-.357.214-.392c.196-.036.375.143.517.178.143.036.553-.214.75-.178.195.036 0 .268-.126.375-.125.107-.678.5-.606.75.072.25 1.09.195 1.25.106.16-.09.802-.73.962-.82.16-.09.392-.018.517-.07s.284-.304.463-.304.428.036.482-.107c.054-.143.285-.125.464-.09.177.037.338-.035.356-.142.018-.107.464-.214.75-.34.284-.124 1.176-.035 1.444-.035s.874-.268 1.124-.34.767.215.446.41c-.32.197-1.177.09-1.962.697s-2.854 1.676-3.71 2.283-3.175 2.336-3.513 2.586-.41.054-.66.446-1.82 1.498-2.194 1.748-.25.428-.712.73c-.464.304-.57.82-.392.893s.196-.16.32-.23.518.035.66.017c.144-.018.27-.16.43-.16s.48-.162.66-.286.48-.177.712-.23 4.173-2.284 4.566-2.427c.392-.143 2.194-.82 2.426-.82.232 0 1.088-.303 1.284-.34s.553-.302 1.052-.267c.5.036 1.248-.107 1.48-.196s1.944-.125 2.497-.036c.553.09 2.247-.036 2.48-.178.23-.143 1.123-.232 1.515-.25.392-.018.838-.303 1.017-.268s0 .482-.232.535-.82.91-1.445 1.355c-.624.446-3.12 2.586-3.692 3.37-.57.786-2.426 2.088-2.782 2.516s.107.624.392.59.803-.358 1.017-.43c.214-.07.803-.427 1.017-.66.214-.23.57-.213.767-.427.196-.214 1.427-.678 1.748-.82.32-.143 2.87-1.213 3.496-1.373.625-.16 2.855-1.177 3.05-1.195.197-.02 1.463-.643 1.73-.75.27-.107.554 0 .643-.125.09-.125.268-.196.392-.178.125.018.535-.268.606-.392.072-.125.714-.285.714-.143 0 .143-.357.73-.5.856-.142.125-.23.856-.57 1.14-.34.286-1.14 2.106-1.32 2.444-.178.34-.428 1.195-.66 1.712-.232.517-.357.963 0 .963s.392-.482.57-.66.625-.446 1.053-1.052 2.212-2.087 2.89-2.693 1.872-1.034 1.98-1.23c.106-.197.677-.465.66-.18s-.68 1.018-.84 1.535-.944 2.283-1.515 3.406c-.57 1.124-1.534 3.62-1.873 4.655-.34 1.034-1.09 2.354-1.267 2.64-.178.285-.09.642-.25.963-.16.322-.107.59.268.607.376.018.946-1.14 1.018-1.39s1.07-1.463 1.338-1.963 1.873-2.033 2.158-2.372 1.8-1.302 2.194-1.57c.392-.267 1.57-.962 1.837-1.016.268-.054.927-.464 1-.66s.516-.25.66-.232c.142.018.017.553-.18.642-.195.09-.695 1.39-.91 1.944-.213.553-1.64 2.3-1.872 2.854-.232.553-.535.32-.535.713 0 .392.464.16.73.09.27-.072 1.178-1.178 1.677-1.32.5-.144 1.39-1 1.748-1.25.357-.25.874-.784.91-.91.036-.124.785-.748.945-1.05s.464-.162.264.356c-.2.517.04 2.087.004 2.39-.036.303.196 1.48.214 1.82.018.338 0 1.3.232 1.658.16.25.16.964.178 1.214.018.25.75.606.91.553s.07-.41.09-.66c.017-.25 0-.446 0-.838 0-.393.124-.518.106-.804-.018-.285.018-.59.196-.767.178-.18.09-.554.196-.922.107-.368.553-.97.66-1.29.107-.32.785-1.07.886-1.034.102.036.06.642.005.91s.302.268.25.767c-.055.5.112.334.255.786.143.452.476.428.725.392.25-.036.535-.927.535-1.034s.32-.25.32-.57c0-.322 1.463-2.427 1.963-2.855.5-.43 2.354-1.392 3.14-.857.784.535 2.14 3.8 2.335 3.924.196.125 1 .125 1.266.054.267-.07 1.07-1.123 1.48-1.354s1.354-.642 2.104-.82 1.66-.82 2.3-1.088c.643-.268 1-.535 1.32-.5.322.037.928-.053 1.267-.035.34.018 1.125.75 1.196.945.07.196.428.41.428.642s-.303.285-.874.606-.896.178-.892.713c.006.77 1.41 2.532 1.926 2.924.517.392 1.213.517 1.552.66.34.143 1.23.143 1.676.232.446.09.75.09.98.054.233-.036.126.464 0 .606-.124.143-.25.57-.82.82s-.64.927-.64 2.32 1.71 2.264 2.014 2.353c.303.088.606-.162.705.017.1.178.08.892.01 1.085-.072.193.356.59.338.984-.018.392.375.73.303 1.07-.07.34.286.446.288.767 0 .32.213.428.213.716 0 .287 1.32 2.475 2.052 3.56.73 1.085 3.002 2.786 3.31 2.988.31.202.917.38 1.166.528.25.148.916.34.987.435.07.096.428.156.654.156.225 0 .582.273.677.32.095.05 1.058-.023 1.165-.023s.333.12.5.226c.165.106.25-.156.272-.263.024-.107-.642-.654-.975-.835s-1.654-1.163-1.868-1.448-1-1.118-1.058-1.403c-.06-.284-.285-.617-.404-.843-.12-.226-.095-.654-.25-.785-.155-.13-.19-.57-.178-.69.012-.12-.31-.713-.333-.81-.025-.094.07-.83.118-.998.048-.166-.07-1.046-.06-1.272s.286-.428.298-.63c.012-.202.19-.51.25-.595.06-.083.12-.57.166-.737.048-.166.107-.428.285-.416.178.012.31.523.297.654-.012.13.333.5.357.606.025.107.013.535.108.654.095.12.226.785.166 1.01-.06.228.428.75.63.785.202.036.297-.452.31-.63.01-.178.237-.32.272-.5.036-.177.202-.403.214-.51s.012-.44.122-.547c.11-.107.26.12.175.202-.083.083.048.606-.012.703-.06.098-.09.508.045.704.134.196.722.892 1 .856.275-.036.436-.66.454-.803s.232-.32.276-.562c.045-.24.056-.47.175-.78.12-.308-.036-.677.208-.677.113 0 .214.244.34.35.124.108-.055.82.088 1.125.144.303.072.73.123.894.05.163.056 2.173 0 2.6-.056.43.003 1.975-.152 2.2-.154.227-.142.702-.368 1.238-.226.535 0 .725-.19.847-.34.218-.37.39-.19.45.178.058.297.332.458.35.16.018.268-.392.553-.428.168-.02.57-.642.785-.838.214-.196.75-1.034.838-1.195.09-.16.303-.498.446-.608.143-.11.178-.568.32-.693s.233-.697.27-.857c.035-.16.088-.34.213-.428.125-.09 0-.517.232-.838.154-.213.125-.713.16-.945.037-.232.18-.5.26-.624s.062-.963.187-1.248c.125-.285.036-.73.125-.945.088-.214.035-.41.106-.767.07-.357 1.052-1.338 1.124-1.516.07-.178.446-.054.624-.16.178-.108.553-.18.963-.144.41.036.535-.25.713-.57.178-.322.09-2 .018-2.177-.07-.177-.357-.516-.642-.677-.285-.16-.642-.57-.82-.678-.178-.107-.214.07-.357-.018-.144-.09-.055-.553-.055-.678s.34-.34.16-.393c-.177-.054-.427-.268-.588-.392s-.59.125-.66-.107c-.07-.232.125-.34.285-.375.16-.036.375-.285.517-.464s.32-.072.445-.197.41-.196.624-.196.802-.268 1.123-.196c.32.072.73-.053.838-.338.108-.285-.064-1.005-.124-1.355-.042-.247 0-1.177 0-1.32 0-.143-.285-.446-.696-.553-.41-.107-.268-.375-.178-.428.09-.054.25-.178.375-.34.125-.16.464-.374.767-.748.303-.375.553-.357.927-.303.376.054 1.035-.054 1.41-.07.375-.02.874.213 1.284.16s.892.09 1.64.303c.75.214 1.428 1.07 1.784 1.373s1.017.554 1.462.964c.16.147.535.054.66-.143.125-.195.464-.053.767-.49.303-.435.91-.508 1.445-.472.535.036.785.535 1.284 1.14.5.607.856.928.91 1.21.054.28.517.878.66 1.092.143.214.107.713.32.945.215.232.536.5.554.696.018.197.34.393.624.36.285-.036.178-.377.32-.52.144-.142.215-.32.197-.534-.017-.214.02-.428.197-.73s.054-.804.16-.982.358.446.518.59c.16.142.357.356.375.57.018.214.428.59.446.874.018.285.303.482.285.732-.017.25.358.48.297.784s.132.75.097 1.052c-.036.303.143.59.018.767-.125.178-.178.75 0 .838.178.09.856-.588.983-.766.127-.178.05-.713 0-.927-.05-.214.372-.32.362-.606-.01-.284-.025-1.32.01-1.586.036-.268-.036-1.088 0-1.32.036-.232.214-.196.25-.553.036-.356-.178-.926-.107-1.32.07-.39-.178-.855 0-1.033s.535.57.642.713c.107.143 1.64 1.534 1.926 1.64.285.108.713.607 1.32.928.606.32 1.39 1.034 1.72 1.296.327.262.706.38.74.096.037-.284-.498-.68-.74-1.035-.244-.357-.864-1-1.078-1.32-.214-.32-.5-1.355-.75-1.605s-.64-1.32-.677-1.57c-.036-.25-.25-.534 0-.498.25.036.713.214 1.14.357.43.142 1.998 1.46 3.543 2.39 1.544.926 2.558 2.674 3.235 3.282.68.607 1.07 1.747 1.356 1.96.285.215.285.964.5 1 .213.036.463-.5.25-.892-.215-.392-.18-1.07-.358-1.427s-.785-1.926-1.213-2.96c-.428-1.035-2.105-4.698-2.437-5.22-.333-.524-.927-2.14-1-2.522-.07-.38-.356-.522-.332-.76.024-.238.357 0 .428.214.07.214.81.51 1.308.69s3.246 2.818 3.638 3.068.892 1.32 1.355 1.712c.304.258.535-.25.357-.5-.178-.25-.036-1.212-.32-1.426-.286-.214-1.428-2.89-1.677-3.14-.25-.25-.32-.712-.606-1.176-.286-.464-1.178-1.224 0-.606 1.517.797 7.922 3.246 9.987 3.96 1.218.42 3.496 1.71 3.924 1.854.43.143 1.035.606 1.035.143 0-.464-2.14-2.176-2.675-2.747-.535-.57-2.3-1.998-2.586-2.247-.285-.25-2.122-1.856-2.657-2.32-.535-.464-.357-.713 0-.606.357.107 3.888.25 4.566.392.678.143 4.138.642 6.278.95s6.814 2.973 7.67 3.473c.856.498 2.32.64 2.46.534s-.784-.963-1.212-1.462c-.428-.5-2.07-1.712-2.39-1.855-.32-.143-1.605-1.248-2.675-1.748-1.07-.5-3.246-2.748-4.138-2.926-.892-.178-1.605-.963-2.247-1.177-.642-.214-.785-.464-.464-.398.32.064 1.64.065 2.116 0 .476-.067 1.902.873 2.123.873.22 0 1.777.428 2.443 1 .666.57 1.19.522 1.38.19.19-.334-.952-.857-.905-1.095.05-.238 1.523.143 1.998.285.476.143 3.472.57 4.09.523.618-.048 4.043.666 4.708.856.666.19 2.9.38 4.233.19 1.33-.19 6.087 1.665 6.705 1.57.618-.096 4.47 1.188 4.566.766.096-.422-1.283-1.67-1.95-1.908-.665-.238-1.997-1.665-3.518-2.52-1.522-.857-5.802-2.855-6.896-3.52-1.094-.666-7.895-1.807-9.036-2.14-1.14-.333-6.427-.53-6.85-.952-.475-.477.88-.356 1.214-.45.333-.096 1.046-.12 1.593-.19.547-.072 2.854-.144 3.52-.24.665-.094 3.02-.19 4.042-.285 1.022-.096 3.923-.38 4.35-.475.43-.095 1.69-.262 2-.285.308-.024.95-.333 1.07-.38.118-.048 1.14.048 1.188-.07.048-.12.333-.215.547-.24.214-.023.38-.19.57-.237.19-.048.857-.262 1.238-.285.38-.023 1.023-.237 1.165-.403.143-.166.547-.07.81-.19.26-.12.498-.214.784-.238.285-.025.57-.405.975-.453.404-.048 1.19-.547 1.427-.57.238-.025.547-.286.81-.334.26-.048.64-.262.808-.31.166-.047.357-.237.594-.332.235-.103.782-.08.58-.674zM31.01 18.38c-.262-.07-.476-.15-.76.008-.286.158-1.178.384-1.226.17-.048-.214.81-.404.88-.69.057-.227.654-.06.987-.083.334-.024.786-.07.762.095-.024.167-.38.572-.642.5zm64.538 4.47c-.262.072-1.093 1.07-1.308 1.07-.547 0-1-.903-1.284-.903-.285 0-.737.785-1.07.76-.333-.023-.618-.736-.785-.808-.165-.072.12-.346.5-.447.38-.1.904-.53 1.284-.505.38.024.666-.19.904-.285.238-.095.666.024.856-.048.19-.07.166-.285.333-.333.166-.048.547-.41.57-.226 0 0 .12 1.058.334 1.39.215.335-.07.264-.332.335z" />
    <path
      d="M88.807 54.86c.19 0 .75-.488.95-.512.203-.024.37-.012.524-.155.156-.143.512-.273.68-.262.165.013.677.013.998.274.32.262 1.39 1.427 1.64 1.676s.81 1.13 1.19 1.427c.38.297.37.476.345.69-.024.214-.273.5-.404.57-.132.072.07.31-.084.465-.155.155-.51.25-.618.416s-1.272 1.213-1.462 1.32c-.19.107-1.106.76-1.2.86-.096.103-.512.614-.762.72-.25.108-.44.37-.57.405-.132.036-.465.024-.5.12-.036.094-.25.296-.404.26-.155-.035-.297-.19-.32-.344-.025-.156.106-.524.165-.655.06-.13.38-.333.5-.44s.368-.37.427-.547.202-.81.297-.927c.094-.118 0-.653.106-.736s.143-.452.107-.75c-.036-.296.226-.712.107-.772-.12-.06-.262.012-.428-.012-.166-.024-.606-.143-.654.012-.048.155-.157.217-.364.572s-.468.688-.504.866c-.036.178-.428.57-.487.773-.06.202-.226.713-.37.916s-.38.724-.522.83c-.142.108-.38.548-.51.453-.13-.095-.226-.523-.345-.678s-.107-.666-.143-.868c-.036-.202-.333-.583-.297-.773s.012-.75-.12-.773c-.13-.023-.415.274-.593.31-.178.036-.404 0-.476.07-.07.072-.25.227-.345.24-.094.01-.463-.05-.486.058-.024.107-.19.476-.285.523-.096.05-.24.132-.18.38.06.25.346.37.37.56s-.13.262-.083.392c.048.13.31.452.38.606.07.155.254.262.394.25.142-.012.415.06.427.202.012.143-.095.15-.048.266s.26.162.272.293c.012.13.155.522.285.63s.416.13.44.237 0 .737-.107.76c-.107.025-.737.013-.963-.19-.226-.2-.94-.475-1.094-.51-.155-.036-.76-.446-1.237-.538-.476-.093-1.344-.997-1.617-1.092s-.717-.487-1.013-.702c-.296-.214-1.008-.852-1.01-1.008-.002-.3.203-.31.25-.466.05-.155.5-.904.655-1.165.155-.262 1.792-2.712 1.938-2.808.32-.213.594-.035.81-.094.213-.06.522-.12.593-.07.07.047.63.26.7.058.072-.202-.094-.487-.094-.702 0-.214.023-1.712-.037-2.01-.06-.296-.012-1.045.06-1.224.07-.178-.06-.523-.025-.69.036-.166.34-.618.473-.583.135.036.503.333.777.404s.81.368.904.522c.096.155.728.452.793.618.065.166.63.594.692.737.062.143.514.345.55.464.035.12.16.322.284.346.367.074.463.503.677.503z" />
    <path
      d="M115.12 55.81c.176-.038.094.594 0 .81-.096.213-.334.95-.358 1.283s-.27.594-.278.88c-.008.285-.365.523-.317.737.048.214.57.31.523.5s-.08 1.354-.206 1.806c-.127.452-.58 1.46-.72 2.05-.144.59-.643 1.874-.88 2.54-.24.666-1.047 2.165-1.26 2.605-.215.44-2.022 3.294-2.284 3.365-.262.07-.69-.267-.69-1.013s.048-1.056.31-1.674c.26-.618.475-1.603.712-2.074.238-.47.262-1.255.452-1.565.19-.31.404-1.88.357-2.57-.047-.69-.07-1.83-.047-2.092.024-.262.285-.19.31-.38.023-.19-.096-.66.07-.77s.547-.18.737-.466.143-1.546.214-1.783c.07-.24.1-1.547.17-1.69.068-.142.865-.023 1.11-.07.242-.048-.02-.476.17-.428.193.045 1.358.117 1.905-.002z" />
    <path
      d="M107.7 72.93c.177.28 1.19.144 1.546 0 .357-.142 1.26.167 1.546.5.285.333 1.19 1.19 1.403 1.308.214.12.547.357.523.57-.024.215.214.5.262.762.048.262-.273.345-.256.594.018.25-.054.75-.16 1.017-.108.27-.37.84-.56 1.255-.19.416-1.28 1.724-1.662 1.902-.383.178-.882.375-1.06.232-.18-.144-.358-.75-.18-1.053.18-.303.286-.66.18-.874-.108-.214-.108-.696-.072-.927.036-.232-.196-.535-.357-.464s-.446.375-.428.606c.018.232-.303.303-.303.428s-.232.482-.25.73c-.018.25-.285.75-.517.857-.232.107-1.16.59-1.587.642-.428.054-1.052.645-1.284.688-.232.043-.856.275-1.106.275s-.678.125-.82.285-1.373.25-1.57.178c-.195-.07-.035-.284.483-.82.518-.534 1.214-1.426 1.392-1.48.178-.053.91-.98 1.248-1.176.34-.196.696-1.033.963-1.284.268-.25.232-.714.303-.857.07-.143.34-.482.34-.856s.106-1.284-.215-1.552c-.32-.268-.374-.73-.837-.98-.464-.25-1.22.48-2.027.635-.222.042-1.106.594-1.344.618-.238.024-.95.262-1.14-.048s-.37-1-.334-1.284c.036-.285-.073-.75-.048-1.213.012-.218.107-1.046.07-1.355s.56-.618.738-.618c.178 0 .832.107 1.14 0 .31-.107.703-.666.976-.75s.476-.023.82-.165c.345-.143.63-.172.904-.125.273.048.88-.184 1.13-.09.25.096.547.43.654.976.107.547.56 1.332.76 1.462s.56.523.607.678c.047.157.047.644.13.775z" />
    <path
      d="M88.236 48.486c.272 0 .214.927.214 1.284s.14 1.323.143 1.914c0 .357.214 1.617.107 1.76-.053.07-.356.02-.583.012-.23-.008-.49-.07-.617-.177-.112-.097-.334-.17-.44-.288-.07-.076-.092-.25-.144-.378-.047-.116-.126-.187-.144-.253-.07-.25-.034-.736-.248-.88-.214-.142-.036-.784-.25-.926-.214-.143-.5-.5-.392-.713.063-.125.246-.142.416-.242.12-.07.095-.256.37-.256.498 0 1.164-.856 1.568-.856z" />
    <path d="M74.135 24.41c.095.035.14.46.083.475-.144.036-.306-.19-.307-.238s-.025-.334.225-.238z" />
  </g>

  <g class="metallica__foreground" fill="#FFF">
    <path
      d="M107.07 73.454c.538.204 2.794.024 3.032.19s1.237.832 1.332 1.118c.095.285.81.81.856 1.023.048.214.095.523 0 .713-.095.19.06.523-.083.79s-.482.732-.535.946c-.054.214-.464.82-.642 1.052-.178.232-.73 1.195-.963 1.195s-.285-.267-.232-.623c.053-.357.285-.464.34-.91.053-.446.23-.856 0-1.266-.233-.41-.946-.944-1.035-1.194-.09-.25.285-.785.196-1.034-.09-.25-.5.036-.713.624-.214.59-.398.874-.398 1.207s-.226.32-.25.63-.214.37-.31.594c-.094.226.013.476-.106.654-.12.18-.607.857-.952.976-.345.12-2.758.927-2.996 1.034-.238.107-1 .678-1.13.5-.13-.18-.12-.405.06-.536.177-.13 1.438-1.44 1.687-1.712s1.295-1.272 1.45-1.546c.155-.273.232-.767.428-.963.196-.196.036-.945.07-1.16.037-.213-.01-.802-.13-1.027s-.107-.737-.19-.88-.298-.43-.32-.594c-.055-.378-.675-.76-1.055-.75s-.578.742-.943.773c-.633.054-.927.4-1.29.405-.316.004-.404.272-.77.24-.177-.017-.437.353-.64.163-.27-.256-.183-2.646 0-3.002.185-.356.38-.41 1.04-.516.66-.107.982.09 1.07 0 .09-.09-.035-.75.18-.767.213-.018 1.913-.368 2.37-.243.15.04.203.736.274.83.07.096.166.524.297.68.132.154.147.52.24.63.136.162.117.522.23.64s.232.346.244.56c.012.216.128.5.286.56z" />
    <path
      d="M114.31 56.476c.168.17.19.214.167.5-.024.284-.333.356-.31.522s.117.476 0 .594c-.118.12-.284.333-.284.57 0 .24-.19.5-.404.453-.215-.048-.952.13-.976.006-.024-.124-.024-.456.19-.575.214-.12.07-.544.214-.724.143-.18.048-.797.262-.916.214-.12.428-.095.594-.166.166-.072.406-.405.547-.262z" />
    <path
      d="M113.74 60.28c.13.156.166.476.214.785.048.31-.143 1.07-.214 1.332-.07.262-.143.69-.404.642-.262-.05-.428-.286-.737-.263-.31.024-1.024.214-1.285.024-.262-.19 0-.736 0-.95 0-.214-.024-.95.452-1.118s.818-.285 1.218-.238c.398.048.632-.36.755-.214z" />
    <path
      d="M112.984 63.895c.23.03-.266 1.284-.266 1.546 0 .263-.69 1.523-.76 1.88-.072.357-1.12 2.07-1.26 2.354-.144.285-1.166 1.83-1.38 1.688-.214-.143-.024-.785.166-.88.19-.095.095-.594.214-.737.12-.143.285-.95.476-1.26s.642-1.593.69-1.998c.048-.404.33-1.094.248-1.498-.08-.405-.22-.595.088-.667.306-.07.592 0 .758-.12.165-.118.27-.403 1.026-.308z" />
    <path
      d="M87.606 49.627c.13.046.07.38.143.57.07.19.332 1.903.26 2.094s-.213.19-.403 0-.297-.617-.303-.808-.292-.33-.268-.45c.024-.12 0-.3 0-.443 0-.144-.287-.348-.262-.464.048-.214.34-.202.38-.297s.15-.31.452-.203z" />
    <path d="M112.266 59.59c.132.074.336.215.227.24-.108.023-.37.07-.418-.12-.047-.19.027-.21.19-.12z" />
    <path
      d="M89.413 56.832c.02.105.357-.095.428 0 .072.095.62.31.786.285s.214-.46.357-.313c.143.146.452.48.38.836-.07.357 0 1-.166 1.19-.166.19-.166.665-.166.855s-.26.19-.26.428 0 .333-.12.547c-.12.214-.57.856-.5.95.072.096.334-.237.477-.26s1.094-.69 1.403-.857 1.344-1.09 1.546-1.292c.37-.37.19-.712.35-.878.074-.077.375-.046.173-.634-.095-.275-2.117-2.758-2.498-2.95-.38-.19-.737-.19-1.213 0-.477.19-1.19.498-1.19.62 0 .44.34.296.34.528-.002.233-.18.66-.127.946z" />
    <path
      d="M84.402 58.59c-.116.258-.336.167-.51.202-.355.074-.613-.15-.846.002-.195.127-.5.553-.517.91-.012.214.195.535.177.73-.018.197.107.607.214.768s.037.375.18.624c.142.25.445.66.48.838.037.178.126.446.483.678s.178.59-.09.446c-.267-.143-.748-.268-1.033-.357-.285-.088-2.39-1.925-2.747-2.14-.357-.213-.464-.605-.303-.784.16-.178.34-.34.32-.678-.017-.34 1.392-2.854 2.41-2.8.74.04 1.523.69 1.8 1.16.103.175.018.32-.018.4z" />
    <path
      d="M84.47 52.148c.184-.036.306.095.64.285.332.19 1.045.642 1.164.832.12.19.048.38.166.523s.31.226.56.345.975.75 1.177.987.797.725.856.975.048.88 0 1.01c-.048.132-.285.37-.285.572 0 .202.024.333-.095.5-.12.165-.57 1.045-.7 1.32s-.298.51-.334.677c-.037.166-.227.262-.227.37s-.143.51-.262.475c-.118-.037-.213-.44-.177-.75.036-.31-.196-.606-.18-.868.014-.262-.01-.63-.14-1.023-.132-.393-.774-1.334-.917-1.35-.143-.018-.5-.006-.535.09s.12.356.025.45c-.095.096-.416-.035-.44-.296s.024-.785-.048-.987c-.07-.202-.28-.535-.248-.725.033-.19-.3-1.082-.265-1.415.036-.333-.06-1.01-.07-1.2-.013-.193-.002-.734.334-.8z" />
    <path
      d="M105.322 48.38c.047-.178.517-.144.66-.197.143-.054.392-.143.57 0 .18.143.43.214.465.446s.107.784.107.98-.125.66-.107 1c.018.338-.16.552-.178.766-.02.214-.197.34-.18.535.02.197-.16.233-.16.358s0 .446-.054.624-.232.232-.223.357.027.498-.134.516c-.162.018-.322-.214-.304-.375.018-.16.018-.695 0-.873-.018-.178-.232-.606-.214-.892.018-.285-.268-.785-.25-1.088.018-.303.07-1 .07-1.16 0-.16-.14-.73-.07-.998z" />
    <path
      d="M103.824 48.105c.065.03.535.22.624.505.09.285.25.59.268.767.018.178.125 1.6.07 1.888s-.23.377-.23.59c0 .215-.182.465-.243.607-.06.143-.435.446-.382.482.055.036.162-.107.197 0 .036.107.09.214.07.303-.017.09-.142.214-.23.196s-.286-.41-.376-.482c-.088-.07.108-.445 0-.605-.106-.16-.41-.75-.374-.945s-.214-.232-.232-.375c-.018-.143.053-.59 0-.713-.054-.125-.25-.16-.25-.303 0-.144-.21-.533-.173-.676.038-.142 1.036-1.34 1.264-1.24z" />
    <path
      d="M109.65 48.747c.026-.148.523-.095.713 0s.72-.048.835.095c.116.143.17.5 0 .737s-.24.808-.193 1.022c.048.214.095 2.402.07 2.687-.023.284-.237.64-.237.855s-.048.856-.12 1.094c-.07.237-.64 1.378-.83 1.878-.19.5-.81 1.165-.81 1.38 0 .213-.238.386-.262.668-.024.282-.262.107-.285.373-.023.265-.284.955-.498.907-.214-.048-.19-.603 0-.908.19-.306.12-1.097.19-1.427.07-.33.31-1.138.285-2.065-.024-.927.12-2.14.024-2.9-.094-.762-.83-1.926-.855-2.212s.12-.476.19-.666-.024-.57.262-.594c.285-.024.226.095.35-.137.126-.233.447-.554.625-.5.178.054.364.392.387.642s.147.74.147 1.092-.107.906-.018.977.543-.333.588-.695c.07-.583-.178-.892-.232-1.32-.052-.42-.386-.655-.326-.988z" />
    <path
      d="M101.28 48.866c.044.354-.334 1.875-.31 2.4.024.525-.31 1.595-.31 1.976 0 .38-.094 1.284-.26 1.355-.167.07-.38-.523-.5-.476-.12.05.07.625.214.75s.036.5.125.713c.088.214.962 2.205 1.247 2.53s.392.84.535.965c.143.125 1 1.106 1.052 1.284s.285.553.446.624c.16.07.392.553-.107.428s-.676-.392-.855-.41-.982-.4-1.357-.556c-.374-.157-1.693-1.37-2.21-1.994-.518-.624-2.587-3.995-2.623-4.512-.036-.517-.224-.66-.202-.797.07-.44-.33-.92-.273-1.177.107-.5-.262-.523-.25-1.118.012-.594-.12-1.32-.143-1.653s-.24-1.082-.12-1.308c.12-.227-.095-.726-.036-.774.06-.048.274.07.44 0s.523-.44.642-.392c.12.048.238 0 .19.404-.048.404.12 1.248.083 1.57s-.013 1.093.01 1.295c.025.202-.058.904 0 1.2.06.298.334.524.38.714.05.19.144.143-.023-.37-.166-.51-.107-1.117-.07-1.426.035-.308 0-1.438 0-1.937s-.037-1.177.058-1.308c.095-.13.5-.262.69-.262s.38.25.487.202c.107-.048.19-.38.404-.357.214.024.12.226.37.273.25.05.37-.082.517.06.148.143.422.416.588.487s.56.51.726.702c.17.195.384.432.443.896z" />
    <path
      d="M129.292 39.604c.233-.006 1.142.516 1.855 1.19.687.647.56.77.713 1.057.31.584.062.847.02 1.095-.034.21.1.51-.127.51-.33 0-.56-.653-.797-1.057-.238-.404-.82-1.825-1.272-2.134-.452-.31-.562-.656-.392-.66z" />
    <path
      d="M136.73 39.515c.05.49 1.872 2.087 2.3 2.372.428.285 1.39.963 1.57.927.177-.036-.5-.864-.75-1.342s-1.213-2.522-1.427-2.903-.333-1.095-.333-1.5c.856-.033.666.24 1.474.5.514.166 1.18.594 1.748.927.326.19.645.28.82.452.728.71 1.023.736 1.902 1.378s1.95 1.974 2.283 2.26c.333.284 1.474 1.878 1.665 1.878.19 0-.095-.594-.143-.81-.05-.213-.43-1.26-.667-1.9-.238-.643-2.735-5.898-3.924-7.254-1.19-1.355-1.903-2.283-2.213-2.283-.31 0-.404-.286-.642-.263-.238.024-.262.285-.523.262-.262-.025-.476.047-.262.356.214.31 1.617 1.783 2.116 2.544.5.76 1.73 2.55 1.64 2.64-.088.09-.588-.702-.89-1.094-.304-.392-1.773-2.43-2.13-2.788-.356-.357-1.96-1.712-2.086-1.552-.125.16.214.785.357.98.143.197.767 1.356.66 1.5-.107.142-.375.177-.856-.233-.48-.41-.862-.828-.91-.642-.088.358.34.483.286.857-.053.375.303.82.018.98-.285.162-.535-.213-.517-.463s-.303-.32-.535-.713c-.232-.39-.874-.998-.945-.837-.07.16.125.803.09 1.034s.284.75.267 1.177 0 1.16.107 1.587.25 1.053.233 1.303.18.315.216.662z" />
    <path
      d="M155.45 20.853c-.087.22.89.948 2.14 1.427 1.617.618 3.496 1.046 4.257 1.19s3.947 1.07 4.685 1.473c.737.404 1.88.713 2.426.76s.832.524 1.237.548c.404.025 1.165.453 1.546.477.38.024 1.095.166 1.333.238.238.07 1.14.19 1.427.285s3.59.285 3.876.31c.285.023 4.637.356 5.636.57s4.257.642 4.708.69c.452.048 1.76.452 2.235.523.476.07.886.363 1.207.363.32 0 .927.214 1.16.214.23 0 .677.428.855.375.178-.054-.232-.553-.392-.59-.16-.035-1.052-.784-1.462-1.033-.41-.25-1.64-1.07-2.247-1.32-.606-.25-3.71-1.98-4.637-2.283-.928-.304-1.784-.483-2.23-.518-.446-.036-1.282 1.134-1.605 1.025-.66-.222-.09-1.4-.392-1.578s-1.926-.447-2.46-.536-2.837-.57-3.497-.713c-.66-.142-4.066-1.087-5.12-1.123-1.05-.036-2.3-.25-3.156-.375-.856-.125-2.038.002-2.408-.178-.73-.357-1.516-.172-1.837-.22-.32-.048-.446-.315-.696-.333-.25-.017-.66.215-.91.197-.25-.018-1.142 0-1.125.16.018.162.41.27 1.213.25.803-.017 1.38.36 1.748.376.856.036.945.392 1.338.375s.624.357.874.357.696.018.945.143c.25.125.57.178.785.16.214-.017.054.18.303.215.25.036.875.107 1.125.232s1.124.155 1.36.273c.24.12.952.143 1.07.285s1.07.404 1.69.5 1.782.498 2.282.69 1.213.427 1.593.403c.38-.024.333.265 1.094.275s.452.265 1.427.296c.213.007.8.243 1.07.333.43.142.025.427-.284.356-.31-.07-.713-.357-1-.404-.284-.048-.706-.333-.92-.35-.214-.02-.678.124-.892.017s-.16-.358-.32-.358-.465.09-.66.036c-.197-.054-.483-.214-.732-.25-.25-.036-.392-.143-.59-.25-.195-.107-.552-.054-.695-.107-.143-.053-.214-.213-.428-.23-.215-.02-.59.07-.786-.037-.196-.107-.232-.285-.464-.285s-.5 0-.713-.143-.535-.054-.767-.125c-.232-.07-.285-.303-.5-.357s-.534-.25-.677-.232c-.143.02-.606.108-.713.162-.107.054-.678.036-.803-.018s-.82-.5-1.248-.59-.465-.302-.714-.32c-.25-.018-.32.232-.464.196-.143-.036-.785-.41-1.106-.464s-.464-.07-.66-.16-.874-.055-1.23-.126c-.358-.07-1.232-.107-1.446-.196-.214-.09-.927-.09-1.106-.125-.178-.037-.82-.322-1.017-.393-.196-.07-.535-.196-1.034-.196s-.535-.302-.803-.32c-.268-.018-1.635-.083-1.7.083z" />
    <path
      d="M158.54 26.977c-.07.44.82.32 1.035.535s1.534.392 1.712.5c.178.106 1.177.32 1.14.427-.035.106-.534.142-.926 0-.39-.144-1.08-.31-1.176-.24-.095.072-.19.427-.357.333-.166-.094-.523-.38-.81-.38s-.88-.19-1.164-.26c-.285-.072-.88-.405-1.094-.453-.215-.048-1.594-.57-1.903-.594-.31-.024-1.118-.07-1.38-.143-.26-.07-2.282-.38-2.472-.285-.19.095-.927.76-1.19.76s-2.686.117-2.71.297c-.024.18-.143.49 0 .632.143.143 1.26.523 1.593.785.333.262 1.736 1.388 1.88 1.408.142.02.094.233-.167.233-.26 0-.403-.157-.64-.233s-.762-.528-1-.623c-.238-.095-1.974-1.332-2.212-1.403-.238-.07-.12.172-.31.193-.19.02-.95-.883-1.045-.764-.095.12.12.642.452 1s.81 1.188.927 1.45.76 1.186 2.188 1.806c1.427.62 5.38 2.55 6.8 2.878.305.07.43.31.905.452.476.143 2.568.904 2.735.927s1.046.57 1.308.5c.262-.072.143-.405-.238-.667s-.832-.88-1.427-1.427-1.688-1.546-2.02-1.807-2.64-2.393-2.95-2.516c-.31-.124-1.902-1.194-2.14-1.36-.238-.166-.143-.904-.024-.904.118 0 .83.76 1.045.81.214.047.476.237.737.26.262.025.523.19 1 .24s.926.237 1.616.308c.69.07 1.953.11 2.116.166.547.19 1.607.14 1.926.285.832.38 1.355-.086 1.76.195s1.332.423 1.736.47c.404.05 1.355.12 1.665.263.31.143.833.12 1.166.238.333.12 1.14.05 1.213.167.07.12.855.238 1.07.357.213.12.998.285 1.093.357.095.072.69.072.76.358s.405-.048.548.07c.144.12.548.453.762.477s.76.523.95.523c.19 0 .19-.333-.26-.594-.453-.262-1.404-1.058-2.046-1.42-.642-.364-2.95-1.862-3.353-2.076-.404-.214-3.757-1.998-4.185-2.045-.428-.048-.904-.07-1.07-.214-.166-.144-.88-.24-1.165-.358-.285-.12-.856 0-1.118-.024s-1.244-.12-1.284.13z" />
    <path
      d="M112.456 26.335c-.176-.352.713-.25 1.177 0 .464.25 3.246 2.033 3.88 3.425.2.44.43.857.334.963-.188.208-.522.165-.825 0-.165-.09-.496.145-.75-.214-.218-.312-.577-.288-.61-.188-.106.333.45 1.435.023 1.685-.14.082-.147-.334-.385-.666-.22-.304-.173-.654-.417-1.045-.537-.857-2.142-3.39-2.427-3.96z" />
    <path
      d="M118.59 30.4s3.67-1.718 3.283-5.528c-.178-1.748-1.53-1.604-3.336-3.078-.86-.7-1.73-2.034-2.442-3.057-.365-.524-.726-.8-.943-1.213-.216-.41.236-.486.14-.91-.053-.24.284-.363.27-.642-.018-.298-.12-.528.114-.824.224-.282.274-.77.198-.846-.143-.143-.812.618-1.097.867-.173.15-.434.54-.76.83-.208.184-.225.562-.24.703-.013.143-.2.257-.213.583-.013.35-.12.71-.143.987-.035.464-.177 1.07 0 1.462.18.392 1.306 1.3 1.927 2.07.5.62 1.367 2.282 2.152 2.353.784.07.023.31-.12.594-.143.285-.666 1.26-.832 1.474s-.214.428 0 .713c.214.284.143.546.262.83.12.286.643.857.81.81.165-.048.57-.618.64-.832.072-.214.405-.69.643-.95.238-.263.38-.334.12.07-.263.404-.38.57-.453.81-.07.237-.214.593-.404.76-.19.166-.404.413-.404.623s.425 1.186.83 1.34z" />
    <path
      d="M130.643 38.212c.356.366 3.283 2.795 3.642 3.853.138.405.32.375.392.75s.042.6.125.73c.196.303-.006.92.32 1.017.372.108.328-.97.257-1.593-.072-.625-.096-4.133-.167-4.935-.07-.803-.143-2.265-.375-3.014-.232-.748-.59-2.175-.75-2.763-.16-.59-.463-1.23-.32-1.284s1.35.59 1.602.696c.253.106 1.198.82 1.466.926.268.107.75.803.98.678s-.25-1.302-.748-1.89c-.5-.59-2.818-3.246-4.013-4.066-1.195-.82-1.266-1.16-1.48-1.427-.214-.267.036-.463-.07-.64s-.732-.5-.447-.697c.285-.196.91.678 1.373 1.034.465.357 2.534 1.998 2.82 2.39.284.392 2.853 2.32 4.53 2.747 1.675.428 5.955 2.604 9.523 6.242.936.955.678.12.464-.243s-1.39-3.074-2.033-3.752c-.642-.677-4.316-6.762-7.49-8.445-3.176-1.684-.988-.744-1.44-.935s-1.64-.476-1.57-.69c.072-.214 1.047.38 1.404.404.357.024.904.262 1.094.38.19.12.618.285.95.285s.952.308 1.166.308.975.31 1.308.31 1.165.237 1.38.237.477.262.785.262c.31 0 .95.07 1.118.12s.333.193 1.19.203c.855.01 5.78.66 13.22.272 2.014-.105 2.117.31 2.522.285.404-.024 1.665.024 1.974.048.31.024 1.26.476 1.45.523.19.048.762.214.88.143.12-.07-.142-.475-.332-.45-.19.023-.76-.215-.927-.31s-.95-.33-1.237-.51c-.285-.18-1.094-.512-1.546-.583-.452-.07-2.188-.832-2.497-.856-.31-.023-1.71-.498-1.9-.522-.192-.024-1.358-.497-1.88-.593-.524-.096-.643-.31-1-.358-.357-.048-.653-.31-.91-.262-.255.048-.564.084-.802-.006s-1.19-.447-1.498-.566c-.31-.12-1.237-.57-1.522-.594-.285-.024-.404-.143-.832-.214-.427-.07-.88-.335-1.236-.334-.357 0-4.613.167-5.018.096-.404-.07-.88-.404-1.19-.428-.308-.024-.76-.262-1.212-.285-.452-.024-.5-.214-.81-.262-.308-.048-.855.024-.926-.143s-.642-.214-.76 0-.358.357-.096.452c.262.095.69 0 .81.12s.712.425.974.45.428.43.737.5c.31.07 1.213.357 1.498.357.286 0 1.047.356 1.618.356s1.046.31 1.498.333c.452.023 1.498.26 1.688.332.19.07.904.333 1.45.357s1.618-.025 1.856.142.57.12.904.262.69.5.547.5c-.142 0-.546-.215-.855-.215-.31 0-1.094-.05-1.308-.12s-1.165-.238-1.403-.285c-.238-.048-1.094-.166-1.355-.214s-1.19-.427-1.547-.45c-.357-.025-1.165-.19-1.546-.31-.38-.12-.713-.095-1.14-.262-.43-.166-1.07-.07-1.475-.238s-.904-.285-1.474-.428c-.57-.143-.927-.024-1.213-.166-.285-.143-.547-.19-.927-.214-.38-.024-.523-.262-.785-.262s-.69.048-.927-.143c-.238-.19-.737-.357-1.094-.38-.357-.024-.594.048-.95-.19-.358-.238-.833-.31-1.166-.238s-.856.45-.927.712-.548.214-.62.333c-.07.12-.213.31-.427.285-.214-.024-.238-.452-.404-.31s-.215.477-.144.714c.07.238 1.974 1.998 2.71 2.26.738.26.43.332.31.38-.12.047-.19.308.095.475.286.165 1.642 1.14 1.547 1.236-.095.095-.5-.095-.88-.357s-3.59-3.187-3.83-3.473c-.237-.285-.57-.19-.64.048-.072.238-.38.904-.524 1.14-.143.24-.19 1.238 0 1.737.19.5.285 1.593.214 2.235-.07.642-.095 2.283-.024 2.473.07.19.523.975.594 1.332s-.166 1.45-.07 1.855c.094.404.332 1.07.498 1.355.166.285.12.5.214.76s.652 1.11.926 1.618c.207.385.482.562.285.633-.21.077-.292-.456-.593-.467-.43-.015-.49-.15-.672-.193-.31-.075-.303.502-.422.67s-.048.546-.19.69c-.145.14-.493.362-.34.52z" />
    <path
      d="M194.46 14.635c-.392.036-1.57-.07-2.14 0-.57.07-2.033.07-2.818.07s-4.066-.142-4.708-.32c-.642-.178-2.913-.297-7.158-.333s-6.575.547-8.715.476c-2.14-.07-10.575.464-11.984.482-1.41.018-6.42.446-7.134.535s-3.068.018-3.62.214c-.553.195-2.73.213-3.3.177-.57-.036-1.105.392-1.55.357-.447-.036-1.018.16-1.214.196-.196.036-2.247.09-3.228.07-.98-.017-.927-.32-.856-.463.07-.143 1 0 1.16.018.16.018 1.14-.09 1.247-.25.108-.16-.837-.143-1.016-.143s-1.195.143-1.516.178-2.122.268-2.978.32c-.856.055-2.73.09-3.05.02-.32-.072-.32-.59-.34-.786-.017-.196-.445-.624-.588-.91-.143-.285-.85-.54-.957-.73-.107-.19-.333-.096-.63-.132-.297-.036-.048-.32-.594-.297-.546.024-.82-.155-.962-.178-.143-.024-.773.37-.95.476-.18.107-.465-.107-.655.083s-.357.202-.51.236c-.156.034-.334.227-.465.282-.13.054-.51.338-.678.398-.166.06-.31.464-.57.63-.263.166-.096.404.01.392.108-.012.227-.178.263-.238.036-.06.333-.12.464-.19.13-.07.476-.31.523-.392.048-.083.5-.036.63-.06.13-.023.297-.296.428-.296s.357-.107.452-.178c.095-.07.535-.143.642-.13.107.01.606-.24.797-.215.19.024.427.143.712.28.146.07.416.516.31.612-.108.095-.584 0-.702-.048-.12-.05-1.088-.09-1.338-.108s-.838.624-.927.803c-.09.178-.874.803-.696.945.177.143.053.535.106.82.054.285.838.75.856.98.018.233-.196.34-.32.286-.126-.054-.625-.036-.857-.125-.232-.088-.446-.605-.606-.48-.162.124.035 1.05.284 1.07.25.017.59.32.82.314.232-.006.73.078 1.498.417s2.23 2.106 2.265 2.498c.036.392.482.945.5 1.516s-.25.785-.43.785c-.177 0-.177-.518-.088-.786s-.144-.73-.233-.98c-.09-.25-.41-.393-.57-.376-.162.018.053.624.053.75 0 .124.232.82.214 1.14-.018.32.036 2.176-.036 2.657-.07.482.143 2.87-.125 3.228-.13.174-.054 1.445-.375 1.623-.154.086.07.98-.125 1.052-.196.07-.196.482-.232.66s-.302.696-.498.696-.107-.446-.16-.553-.322-.035-.5-.07c-.178-.036-.642-.392-.856-.482-.214-.09-1.177.375-1.338.59-.16.213-.838.66-.9.926-.06.268-.474.303-.563.214-.09-.09-2.64.07-2.907.018s-1.106.125-1.23.125c-.126 0-.893.072-1.178.02-.285-.055-.5.25-.178.374s.838 1.124 1.14 1.266c.304.143.607-.018.884.054s1.097.054 1.542.143c.446.09 1.748.196 2.015.232.268.035 1.16.463 1.908.855.75.392 1.285.945 1.48.98s.41-.302.714-.516c.303-.215.696-.59 1.034-.804.34-.214 1.14-.874 1.23-1.052.09-.178.66-.66.643-.874-.017-.214-.677-.268-.748-.446-.07-.178-.036-.464 0-.642s.107-.428.285-.945c.178-.517.624-1.605.928-2.033.303-.428.75-1.783.91-2.033.16-.25.09-1.55.125-2.157.036-.606-.214-1.16-.268-1.462-.053-.302-.125-.784-.25-1.016-.125-.232-.054-.678-.107-.874-.054-.196-.232-.767-.214-1s-.124-1.087.054-1.3c.178-.215.428-.732.196-1-.124-.143-.856.57-.963.624s-.392-.196-.41-.41.98-.892 1.177-.948c.196-.056.482-.586.838-.682.357-.096 1.088-.422 1.623-.493.535-.07 1.462-.23 1.783-.25.32-.017 1.355-.07 1.552-.177.196-.107.5.054.713-.018.214-.07 1.89-.16 2.265.018s1.177.143 1.41.143.64.32 1.105.268c.464-.054 1.462.125 2.033.143.57.018 2.158.25 2.675.268.518.018.697-.018 2.79.244 2.092.26 5.825.427 8.155.522 2.33.095 6.207-.285 7.015-.238.81.048 1.355-.57 1.974-.43.618.143 6.11.097 6.85 0 .736-.095 1.76-.308 2.068-.38s1.688-.165 2.116-.142c.428.024 1.997-.333 2.544-.38.547-.048 1.855-.19 2.283-.19s1.783-.285 2.093-.214c.31.07 1.593-.19 2.07-.238.475-.048 1.117-.12 1.45-.1.333.018.618-.304.81-.256.19.048.69-.262.855-.262.166 0 .737-.095.904-.166.166-.07.785-.262 1-.357.213-.096.903-.167 1.07-.215.165-.048.926-.404 1.164-.404s.667-.165.88-.237.738-.262.984-.31c.246-.047.705-.26.99-.332.285-.07.667-.414.69-.617.023-.158-1.04.046-1.434.082zm-4.922 1.57c-.25-.037-.892.356-1.14.32-.25-.036-.786.285-1.142.25-.357-.036-.927.357-1.177.336-.25-.02-1.107.164-1.356.306-.25.142-1.32.215-1.57 0s.037-.142-.213-.284c-.25-.143-5.635.5-6.812.54-1.177.042-4.654-.015-5.933-.195-1.908-.268-4.54.464-5.16.155-.57-.285.57-.297.737-.297.166 0 .666-.238.904-.166.238.07 2.592-.19 3.02-.19s1.45-.144 6.16-.05c4.707.096 8.476-.368 8.976-.368s2.105-.5 2.568-.464c.464.036 1.498-.178 1.926-.178.426 0 .462.32.212.284z" />
    <path
      d="M71.293 37.428c.102.13-.476.618-.57.785-.096.166-.738 1-.905 1.118-.166.12-.19.477-.285.62-.095.142-.38.57-.404.712-.025.143-.05.523-.19.5-.144-.025-.334-.524-.286-.905s.143-1.118.357-1.332c.215-.214 1.238-1.498 1.428-1.498s.69-.213.855 0z" />
    <path
      d="M55.313 25.407c.148.123-.678 1.177-.892 1.498-.213.32-1.176 1.462-2.068 2.07-.892.605-2.366 1.557-2.65 1.652-.286.095-.857.428-1.142.5-.285.07-1.165.45-1.45.593s-.928.262-1.12.357-.64.31-.95.405c-.31.094-.832.237-1.094.356-.262.12-.76.262-1 .31-.237.047-.522.284-.95.403-.428.12-.76.31-1.19.453s-.7.297-.784.32c-.083.025-.202.203-.273.132s-.06-.226.26-.476.917-.988 1.368-1.368 1.63-1.676 2.128-2.02 1.98-1.707 2.372-1.957c.392-.25 1.42-1.088 1.637-1.284.218-.195.824-.623.984-.66.16-.035.593-.272.415-.498s-.547-.107-.713-.012-.737.107-.916.166c-.178.06-.523.226-.737.238-.215.012-.38.226-.584.226s-.702.095-.892.19c-.19.095-.583.107-.666.155s-.452.31-.725.285c-.273-.024-1.034.083-1.153.107-.12.024-.82.202-1.272.202s-.963.165-1.2.2c-.24.037-.905 0-1.142.05-.238.047-.785.047-.975.106-.19.06-.903.226-1.224.238-.32.012-.75-.036-.975.07-.225.108-.522.203-.7.19s-.512.12-.68.215-.63.058-.736.106c-.107.048-.37.214-.487.214s-.594.012-.69.095-.523.238-.618.25-.334.178-.5.19c-.166.012-.452.06-.57.143-.12.083-.417.238-.536.238-.12 0-.32.143-.535.19-.215.048-.358.178-.548.238-.19.06-.44.155-.44.226s-.107.095-.285.107c-.178.012-.416.273-.535.297-.12.024-.357.37-.51.345-.156-.025-.31-.25 0-.512s1.77-1.13 1.973-1.296c.202-.166 1.415-.785 1.7-1.046.285-.262 1.653-.963 2.033-1.248.38-.285 1.528-1.005 1.92-1.112.392-.107 1.338-.874 1.66-.838s.82-.32 1.033-.32c.215 0 1.035-.197 1.303-.304.268-.107.803-.214 1.017-.196.214.018 1-.04 1.118-.002.12.038.5.043.725-.013.226-.056.238.384-.048.42-.285.035-.547.26-.737.332-.19.07-.642.262-.832.273-.19.012-.856.143-1.177.297-.322.155-1.178.012-1.25.06s-.2.2.084.308c.285.107.987.12 1.094.083.107-.036.56-.083.63-.155.07-.07.19-.272.357-.237s.428.32.63.297c.202-.024.606-.285.725-.285s.5-.25.63-.25.666-.297.844-.428.69-.19.844-.333c.155-.143.82-.107 1.094-.202.273-.095.285-.17.725-.186s.94-.11 1.225-.23 1.237-.19 1.45-.262c.215-.07 1.07.095 1.368.07.297-.023.666-.058 1.034.072s.916.012 1 .083c.082.07.308.2.677.237.37.036 1.178.523 1.178.76 0 .24-.476.893-.702.94-.226.048-.88.63-1.106.654-.226.025-.785.477-.927.56-.143.083-.725.285-.797.357s-.238.333-.13.428.558-.226.808-.273c.25-.048.606-.37.832-.487.226-.12.76-.392 1.034-.606.273-.215.666-.322.785-.334s.333-.262.476-.273c.144-.012.43-.285.572-.297s.428-.19.547-.345c.12-.153.38-.332.523-.213z" />
    <path
      d="M45.23 18.57c-.12-.106-.76.084-.916.096-.155.012-.666-.06-.737.036-.07.095-.535.166-.76.19-.227.024-1.26 0-1.416.07-.154.072-.475.18-.724.18-.25 0-.618.2-.785.26-.165.06-.855-.082-1.022.084-.166.166-.5.202-.713.178-.214-.024-.32.12-.487.178-.166.06-.844.143-1.07.107s-.357.272-.583.26c-.226-.01-.95.167-1.225.298-.273.13-.904.083-1.225.214-.32.13-1.094.202-1.38.345-.284.143-.7.06-.974.19s-.522.19-.867.214c-.345.025-.297.227-.75.167-.212-.028-.486.07-.926.166-.44.095-.416-.083-.38-.12.036-.035.535-.035.583-.106.048-.07.5-.214.69-.19.19.024.357-.107.416-.214.06-.107.51-.095.725-.095.215 0 .44-.262.572-.262.13 0 .642-.155.797-.226.154-.07.772-.107.974-.13.202-.025.262-.215.547-.19.286.023.41-.072.714-.215.303-.143.482.09.696-.143.214-.232.696-.214.892-.34.196-.124.927-.124 1.16-.284.23-.16 1.05-.16 1.3-.285.25-.125 1.107-.178 1.48-.268.376-.09.68-.34.286-.482-.392-.143-.606.196-.91.232-.303.036-.624-.054-.803 0s-1.373.125-1.873.083c-.5-.042-.66.29-1.89.273-1.23-.017-2.64.286-2.87.43-.233.142-1.48.106-1.82.25-.34.142-1.855.39-2.372.39-.517 0-1.266-.017-1.355.144-.09.16-1.213.143-1.338.357s-1.052.126-1.14.27-1.267.124-1.303.356c-.02.134-.678.107-.91.09-.232-.02-.642.177-.892.284-.25.107-1.213.214-1.302.303s.09.678.09.892c0 .214-.25.464-.518.553s-1.23-.874-1.41-.963-.712.107-.855.107c-.143 0-1.017.232-1.266.357-.25.124-.445.16-.552.195-.107.036-.44.303-.678.28-.238-.025-.452.332-.69.308-.238-.024-.76.452-.927.476-.166.023-1.165.712-1.38.736-.213.024-.308.404-.498.404s-.452.333-.666.428c-.215.095-.905.69-1.095.713-.19.025-.76.263-.832.358-.07.095-.88.5-.975.595-.095.095-.618.19-.76.547-.144.357.237.238.38.12.142-.12.45-.12.57-.263.12-.143.642-.166.785-.166.143 0 .404-.213.618-.26.215-.05 1.024-.263 1.475-.263.452 0 1.88-.285 2.164-.333s.88-.238 1.64-.262c.76-.024 2.45-.476 3.186-.476.737 0 3.186-.547 4.566-.547s4.566-.358 4.946-.43c.38-.07.452-.213.69-.213.238 0 .927-.19 1.26-.214.333-.024 1.308-.428 1.57-.452.26-.023 1.236-.332 1.378-.38.143-.047 1-.284 1.19-.356.19-.07 1.616-.57 1.83-.618.214-.048.856-.357 1.237-.404s1.522-.618 1.807-.666c.285-.048 1.19-.476 1.498-.523.31-.048.76-.38 1-.428.237-.048.475-.262.712-.238.238.024.76-.262 1.118-.404.357-.143 1.712-.713 2.307-.737.595-.02 1.078-.523.975-.615zm-21.717 4.875c-.232.054-.553.09-.785.125-.232.036-.464.16-.624.125-.16-.036-.32-.09-.75.125-.427.214-.78.078-.81 0-.152-.392.312-.343.455-.29.142.055.48-.066.588-.138.107-.07.66-.036.803 0 .144.036.483-.09.59-.07.107.017.32-.108.5-.162s.39-.036.534 0-.27.232-.5.285z" />
    <path
      d="M64.706 31.46c.19.095-.024.95 0 1.117.024.166-.07 1.546-.12 1.76-.047.214-.38 1.023-.356 1.237.024.214-.333 1.26-.523 1.474-.19.214-1.807 2.283-2.14 2.402-.333.12-.713.452-.88.57-.166.12-.547.643-.737.548s.357-.856.5-1.118c.142-.262.403-.904.546-1.07.143-.166.262-1.023.452-1.046s.38-.547.428-.69c.048-.143.166-.298.262-.624.095-.327.523-.97.31-1.254-.215-.285-.524.285-.88.38s-1.293.75-1.658.874c-.365.125-1.72 1.005-2.314 1.314-.594.31-1.474.927-1.76 1.19s-1.427 1.473-1.57 1.76c-.142.284-.45.38-.593.64-.143.263-.88 1.31-1.046 1.19-.166-.12.048-.71.12-.95s.237-.524.308-.88c.07-.358.38-.76.38-1.035 0-.275.357-.822.476-1.107.12-.285.833-1.546.857-1.736s.76-1.607.975-1.933 1.023-1.727 1.26-1.99c.238-.262.594-.95.81-1.118.213-.166 1.52-1.023 1.664-1.332.143-.31.38-.143.5-.095.118.047.213.142.356.19.143.047.5.047.476.237-.024.19-.642.713-.76.95-.12.24-1.095 1.428-1.238 1.642s-.975 1.14-1.26 1.64c-.285.5-.785 1.046-.713 1.118.07.07.452-.12.594-.333.144-.214 1.037-1.308 1.208-1.546.172-.24.838-1.38 1.1-1.642.26-.262 1.093-1.284 1.283-1.355s.512-.392.655-.5c.143-.106.44-.53.606-.49.167.04.203.277.084.42-.12.142-.38.486-.404.617s-.214.547-.32.725c-.108.178-.465.678-.37.785.095.107.333.155.5-.012.165-.166.89-.82.974-.737s.083.607.07.738c-.01.13-.082.713-.13.88-.048.166.178.238.285.12s.237-.655.39-.75.548-.476.726-.713c.18-.24.525-.513.62-.466z" />
    <path
      d="M73.897 17.72c-.036-.375-.232-.624-.25-.767-.018-.143-.16-.838-.464-.91-.303-.07-1.534 1.605-1.837 1.66s-1.355 1.3-1.676 1.372c-.32.07-1.968 1.67-2.11 1.8-.143.132-1.034.833-1.2.87-.167.035-.215-.108-.096-.167.12-.06.56-.618.927-.81.37-.19 1.784-1.794 2.32-2.294.535-.5.987-1.367 1.094-1.653.107-.284.06-.736-.19-.867-.25-.13-.606.12-.678.226-.07.106-.583.38-.904.38-.32 0-.464.142-.654.25-.19.106-.844.272-1.106.272-.262 0-.535.285-.975.31-.44.023-1 .213-1.118.296-.12.083-1.06.048-1.26.166-.203.12-.774.12-1.06.12s-.118.332-.39.25c-.274-.084-.976.142-1.25.237-.272.096-.808 0-.938.144-.13.143-.476.202-.81.19-.332-.012-.748.273-.974.333-.226.06-.606.07-.773.155-.166.083-.81.19-1.118.19-.31 0-.392.13-.595.202-.202.07-.63.024-.81.155s-.57.213-.915.2c-.345-.01-.51.12-.666.203-.154.083-1.033.095-1.188.166-.155.07-.666.2-1.01.154-.346-.048-1.226.297-1.44.285-.214-.013-.547.272-.82.26-.273-.01-.773.108-.916.108s-.452.214-.678.214-.31-.178-.238-.262c.07-.083.37-.095.642-.155.273-.06.487-.285.63-.404.143-.118.844-.094 1.094-.13s.56-.214.927-.25c.37-.036.904-.19 1.248-.226.346-.036.81-.12 1.142-.143.333-.023.476-.2.844-.2.37 0 .95-.19 1.19-.286.237-.095.748-.06.974-.143.226-.082.75-.165 1-.272.25-.107 1.022-.13 1.295-.19.273-.06.464-.44.75-.63.284-.19.605-.297.748-.38.143-.083.892-.095 1.082-.214.19-.12.583-.143.773-.155.19-.013.44-.203.904-.25.464-.05.654-.488.642-.607-.012-.12-1.046-.095-1.296-.168-.25-.073-.606.132-1.427.025-.82-.107-.427.166-1.26.12-.83-.05-1.105.19-1.806.213-.702.024-1.14.333-1.332.38-.19.048-.63-.166-.963.07-.334.24-.82.298-.952.393-.13.095-.987.214-1.308.404-.32.19-1.272.297-1.45.392-.18.095-.857.155-1.035.285-.178.13-.63.238-.844.262-.213.023-.82.225-1.045.368-.226.143-.69.012-1.082.226-.392.214-.63.095-1.118.32-.487.227-.975.108-1.106.263-.132.155-.524.202-.845.31-.32.106-.75-.12-1.2.213-.453.333-.87.12-.94.262s-.297.262-.746.262-.277.273-.79.297c-.51.025-.272.19-.855.227-.583.036-.63.273-1.046.31-.417.035-.38.237-.833.25-.452.01-.713.356-.916.38-.2.023-.63.225-.903.296s-.69.44-1.034.452c-.345.012-.476.273-.773.297-.297.024-.262.345-.75.297-.486-.05-.63.356-.308.415.32.06.963-.273 1.32-.357.357-.083 1.177-.1 1.41-.137.23-.035.445-.07.64-.124s.946-.054 1.392-.125c.446-.07.97-.23 2.42-.255 1.45-.024 9.35.113 10.03.077.677-.036 5.26-.57 5.724-.59.464-.017 2.39-.82 2.747-.89.357-.072 1.587-.732 1.89-.768s1.266-.357 1.57-.517c.302-.16 1.123-.303 1.158-.178.036.124-.553.623-.82.64-.268.02-.553.215-.803.25-.25.037-.553.233-.767.376s-1.998 1.48-2.23 1.82c-.23.338-2.746 2.71-3.28 3.263-.536.552-2.48 3.46-2.658 3.85s-.98 1.856-1.106 1.963c-.126.107-.286.856-.393.927s-.25.357-.41.59-.16.605 0 .66.59-.786.678-.84c.09-.053.702-.576.996-.79.296-.214 1.3-1.165 1.918-1.45.618-.286 1.427-1.333 2.687-1.76 1.26-.43 4.494-1.85 5.668-2.528s5.585-4.477 5.817-4.815c.232-.34.696-.606.767-.34s-.196.447-.392.536.2.68-.042.797c-.687.328-1.807 1.688-2.877 2.52-1.07.833-2.663 3.378-2.925 3.692-.26.314-.45.9-.284.97.166.07 1.64-1.023 1.887-1.14.246-.12.443-.24.586-.412.142-.173.45-.23.665-.23.214 0 .594-.453.69-.405.095.048.285 1 .048 1.218-.238.22-.024.875-.238 1.065-.214.19-.31 1.023-.452 1.26-.143.238-.19 1.023-.31 1.237-.118.214-.213 1.023-.332 1.355-.118.333-.118 2.925-.142 3.543-.024.618-.262 2.854-.214 3.238.048.385.285.615.428.577.143-.038.143-.984.238-1.127.095-.143.238-.476.262-.618.024-.143.214-.333.238-.452.024-.12.476-.618.594-.856.12-.238.452-.666.666-.832.214-.166 1.19-1.023 1.403-1.284.214-.262.927-.98.95-1.118.05-.273-.106-.273-.165-.333-.06-.06-.143-.285-.13-.428.01-.144-.15-.41-.24-.714-.088-.303-.302-.196-.48-.214-.18-.018-.572.428-.75.446-.178.018-.357.214-.464.303-.107.09-.16.34-.25.322-.09-.018.036-.767.07-.892.037-.125.25-.5.25-.73s.376-.697.41-.875c.037-.178.215-.428.41-.66.197-.232.358-.927.5-1.106.143-.18.125-.5.07-.66-.053-.162-.088-1.25-.088-1.463s.91-.678 1.124-.803.713-.553.874-.713c.16-.16.107-.766.125-1.05.017-.286.284-.358.41-.607.124-.25.837-.91.855-1.195.018-.285.34-1.07.5-1.248.16-.178.07-.713.284-.963.213-.25.302-.963.374-1.16.07-.195.16-.98.25-1.337.093-.353.13-1.655.093-2.03zm-8.204 4.822c-.083.06-.357.297-.38.37-.024.07-.07.25-.166.26-.095.013-.297.096-.345.167-.048.07-.214.213-.297.177-.083-.036-.273-.357-.178-.38.095-.024.238.06.416-.048s.414-.334.486-.346c.07-.012.404-.404.5-.44.094-.036.213-.19.165-.262-.048-.07-.25-.107-.38-.143-.13-.037-.07-.203.048-.19.12.01.297-.074.31-.002.01.072-.05.227.047.238.095.012.238.012.238.155 0 .082-.382.382-.465.442z" />
    <path
      d="M107.658 43.872c.056.02.22.107.214.166s-.024.196.06.232c.082.036.207.12.213.178.006.06-.09.38-.13.386-.043.006-.162.095-.257.07-.095-.023-.244-.207-.244-.308 0-.1.03-.34 0-.416-.028-.076.047-.343.144-.308z" />
    <path
      d="M106.15 43.135c.09.017.242.098.25.187.01.09.055.285 0 .32-.053.037-.267.037-.302-.053-.036-.09-.03-.47.053-.455z" />
    <path d="M106.252 44.36c.13 0 .22.15.22.256s-.057.357-.22.357c-.247 0-.368-.19-.368-.29s.28-.323.368-.323z" />
    <path
      d="M109.755 41.126c.11.005.204.13.204.25 0 .118-.025.296-.144.344-.12.048-.357.036-.464-.095-.106-.13.165-.51.403-.5z" />
    <path
      d="M97.035 44.99c.006.095-.143.333-.37.31-.225-.025-.522-.117-.63 0s-.38.356-.522.32-.404-.175-.262-.313.37-.103.477-.174c.107-.07.208-.285.396-.285s.437.024.568 0c.13-.025.333-.048.345.142z" />
    <path d="M95.44 37.956c.092.086.144.31.09.382s-.268.062-.357 0c-.09-.062-.143-.437-.09-.455s.27-.01.358.073z" />
    <path d="M97.11 36.74c.044.006.177.153.186.242.01.09.062.366 0 .366s-.312-.223-.33-.303-.01-.322.143-.304z" />
    <path
      d="M97.69 39.853c.08.005.204-.01.222.08.018.09-.053.5-.11.49-.06-.01-.318-.134-.3-.285.017-.15.044-.293.187-.285z" />
    <path d="M96.494 39.568c.06.02.187.09.196.125.01.036.107.223.08.25s-.303 0-.357-.045-.015-.36.08-.33z" />
    <path d="M97.42 38.712c.037.005.18.098.162.152-.018.054-.09.223-.16.214-.072-.01-.144-.384 0-.366z" />
    <path
      d="M97.583 39.354c.078-.006.212.018.212.07s-.113.18-.212.18c-.1 0-.21.044-.244 0-.035-.045.004-.232.243-.25z" />
    <path d="M99.5 41.646c.027.016.08.232.044.26-.036.026-.223.008-.232-.046-.01-.054.08-.277.187-.214z" />
    <path
      d="M116.082 36.738c-.166-.095-.392-.476-.56-.487-.165-.01-.213.536-.54.548-.16.006-.303-.155-.303-.416 0-.262.39-.357.284-.963-.107-.607-.868-1-1.225-1.238-.358-.238-.548-.69-.477-.785.07-.095.345-.012.452.226.107.238.56.618.713.595.155-.024-.048-.416-.155-.5-.107-.082-.535-.843-.773-1.235-.238-.39-.892-.833-1.07-.988-.176-.155-.547-.036-.666-.214-.12-.177-.333-.142-.51-.2-.18-.06-.744-.643-.744-.18 0 .465 1.14 1 1.23 1.117s.483.542-.427.667-1.694 1.498-2.105 1.908-1.034 2.176-1.302 2.247c-.268.07-.767-.126-.66-.304.107-.178.07-.945.036-1.266-.036-.32.357-1.926.31-2.408-.045-.482.492-3.977.082-4.227-.2-.12-1-1.017-1.266-1.338-.268-.32-.98-.767-1.195-.803-.214-.036-.214.303-.232.59-.017.284-.748 1.016-.962 1.07s-.375.374-.386-.69c-.017-1.527-1.427-4.258-2.128-4.555-.7-.298-3.662-.084-3.924-.055-.262.03-.452.28-.678.268-.226-.012-.416.238-.63.226-.214-.013-.487.237-.927.427-.44.19-1.296 1.284-1.498 1.45-.202.167.083.477.12.584.035.108-.06.298-.24.298-.177 0-.427.38-.617.416-.19.036-.31-.262-.32-.44-.013-.178.272-.238.415-.345.143-.108.51-.845.51-1.012 0-.166-.213-.202-.45-.226-.24-.024-.417-.32-.643-.345-.226-.024-.56.333-.487 1.07.07.737-.262.76-.416 1.355-.156.594-.82.975-1.142 1.153-.32.178-.38.06-.392-.083-.012-.143.856-1.023.975-1.106.12-.083.548-.94.393-1.498-.155-.56-.856-1.094-1.118-1.13-.262-.036-.44.63-.7.583-.263-.047-.68-.953-.513-1.298.064-.132 1.736-1.436 2.045-1.47.31-.037.57-.227.773-.227.202 0 .7-.086.734-.15.036-.06.268-.24.5-.195.23.045.58-.196.677-.24.1-.046.313-.474.393-.456.08.018.153-.057.152-.187-.002-.13.077-.354.1-.46.025-.108.227-.263.227-.405s-.036-.583 0-.678c.036-.095.107-.44.143-.487.036-.048-.024-.63-.012-.678.012-.05-.07-.167.024-.18.095-.01.155.714.143.833-.012.12 0 .464-.083.594-.083.13 0 .583-.06.737-.058.155-.165.37-.213.44-.048.07-.285.392-.31.523-.023.13.19.273.24.178.047-.095.356-.143.475-.166.118-.025.867-.536 1.07-.798.2-.262.272-1.76.272-2.176 0-.416-.13-1.498-.214-1.736-.083-.238-.13-1.344-.12-1.688.013-.345.025-.773-.165-1.106-.19-.333-.07-1.498-.333-2.01-.12-.236-.044-1.2-.143-1.438-.178-.428-.166-1.177-.416-1.534-.1-.145-.082-.797-.19-.904s-.225-.428-.26-.666c-.037-.238-.322-.785-.5-.678-.178.107.178.88.048 1.118-.05.093.19.81.095.975-.096.17-.013.586.07.717.083.13-.024.37-.048.5s0 .32 0 .582c0 .26-.096.853-.143 1.735-.082 1.557-.357 1.332-.31 2.01.05.677-.25.998-.237 1.283.012.285-.31.476-.333.916-.024.44-.26.207-.225.6s-.255.26-.38.85c-.125.588-2.42 2.794-2.706 2.83-.284.036-.516.232-.748.285-.232.053-1.017.07-1.266.16s-.713.196-1.034.16c-.32-.035-.624.393-1.052.556-.428.163-2.336 1.977-2.443 2.37s-.464.59-.446.803.59.695.786.82c.196.124.59.017.82.088.232.07 1.57.375 1.64.713.072.34-.498.75-.356 1.267.143.517 3.05 1.534 3.068 1.676.018.143-.303.268-.428.32-.125.055-.98.625-.91 1 .07.375.464.642.945.767.482.125 1.32.838 1.39 1.052.072.214-.284 1.034-.41 1.218-.124.183-.16 1.03-.23 1.422-.072.392-.625 1.106-.786 1.07-.162-.036-.162-1.23-.43-1.355-.267-.125-1.087.178-1.283.16-.196-.017-.66.27-.874.286-.214.018-.59.268-.838.268s-.392.286-.59.304-.48.25-.73.303-.82.357-1.07.32c-.25-.035-1.248.25-1.534.25s-1.32-.195-1.48-.427c-.16-.232-.017-2.336.09-2.408.107-.07.178-.678.178-.88 0-.2.232-.315.054-.493-.178-.18-1.338-.055-1.66-.09-.32-.036-1.372-.09-1.568-.143-.196-.054-.375-.428-.428-.535-.054-.107-.32-.07-.392.036-.07.107.285.517.25.606-.036.09-.196.125-.34.018-.142-.107-.605-.92-.748-1.587-.143-.666-.048-3.615 0-4.304.048-.69.76-2.615 1.07-3.49.31-.877 1.308-3.24 2.212-4.333.904-1.094 2.015-3.036 2.363-3.41.407-.44.278-1.06.17-1.084-.106-.024-.213-.083-.165-.416.048-.333-.13-.476-.214-.56-.082-.082-.118-.463-.284-.486-.166-.023-.178-.106-.238-.177-.06-.07-.333 0-.63-.095s-.713-.476-.88-.535c-.166-.06-.25.06-.273.178-.024.12-.226.144-.32.084-.096-.06-.05-.226.118-.25.166-.024.12-.166.143-.285s.487.01.725-.013c.24-.024.703-.143 1.035-.12.333.025.594-.01.81.06.213.07.142.452.308.594.166.144.333-.047.452-.237.12-.19-.143-.428-.048-.642.095-.213-.214-.403-.357-.498s-.273-.107-.535-.13c-.262-.025-.41-.153-1.034-.156-.393-.002-.427.106-.713.1-.54-.008-.54.173-.677.173-.16 0-.75-.066-.954.103-.104.086-.65.13-.696.285-.113.372.58.392.45.693-.04.093-.643.025-.952 0-.31-.023-1.165.453-1.38.572-.213.12-1.354.048-1.973-.095-.618-.143-4.06.137-5.826.095-2.997-.07-4.828.285-4.828-.12 0-.142 1.023-.237 1.213-.475.19-.238-4.114-.166-4.97-.166-.856 0-5.707-.165-10.225-.356-4.518-.19-9.63.285-10.725.262-1.094-.024-7.705.357-8.513.333-.81-.025-6.658.165-7.182.19-.523.023-2.52 0-3.02.165-.5.166-2.14.285-2.45.203-.308-.082-3.518.082-3.97.01-.452-.07-2.07.24-2.307.215-.238-.024-1.522.31-1.807.33-.285.023-1.07-.116-1.237 0-.167.118-1.024.026-1.285.003-.34-.03-.285.38-.166.5.118.118.76.237 1.093.475.333.24 1.023.334 1.26.24.238-.096.642-.38.975-.31s3.163.095 3.424.048c.262-.048.19.12.737.19.546.07 6.67.044 7.097.126.428.082.62-.186 1.177-.102.238.036 6.777-.07 8.454.036s3.656-.03 3.94.083c.286.115.964.03 1.303 0 .34-.028 3.336-.153 3.62-.117.286.036 2.266-.018 2.302.07.036.09.232.518.143.607-.09.09-.054.25-.446.25-.393 0-1.75-.107-1.98-.143-.233-.036-1.642-.107-2.052-.09s-2.46-.035-2.836 0c-.375.037-1.034.09-1.284.09s-.678-.107-.927-.054c-.25.054-2.157.196-2.442.196-.285 0-1.445.23-1.587.213-.142-.018-1.533-.087-1.577 0-.045.09-.045.41.17.5s.48.07.64.195c.162.125.68.318.59.41-.09.09-.927.054-1.195.107-.268.054-.785-.036-1.017 0-.23.036-1.604.07-1.765.018-.16-.053-1.135-.34-1.433-.327-.297.012-.963-.036-1.308-.214-.345-.178-1.76-.036-2.212-.12-.452-.082-.404-.213-.844-.237-.44-.024-1.07-.06-1.332-.13-.262-.072-.606-.156-.904-.156-.297 0-.832-.096-1.058-.06-.226.036-.56-.19-.713-.19-.154 0-.558-.012-.712-.06-.155-.047-.416-.204-.547-.262-.13-.058-.522.082-.617 0-.095-.082-.916-.367-1.046-.332-.13.036-.12.333.166.5.285.165.725.415.856.39.13-.023.498 0 .665.132.166.13.856.083 1 .143.142.06.26.25.582.24.32-.013.678.082.82.177.143.095.868.12 1 .178.13.06.308.226.736.214.428-.013 1.546.077 1.7.14.155.06.464.156.832.156.37 0 1.296 0 1.486.07.19.072.952.167 1.178.167.226 0 1.82.036 2.045.07.226.037.642.167 1.106.18.463.01 1.2.082 1.343.26.143.18 2.27.06 2.592.072s3.972-.12 4.31-.048 3.086.155 3.383.262c.297.106 2.616.237 2.877.19.262-.05.76-.19 1.213-.12.452.07 1.498-.238 1.88-.214.38.024 2.02-.143 2.52-.166.5-.024 2.497-.262 2.972-.262s2.9-.12 3.33-.19c.427-.07 2.068-.5 2.496-.452s2.663-.333 3.115-.333c.453 0 1.356-.262 1.832-.238s1.617-.166 1.974-.214.975-.084 1.522-.28c.547-.194 1.825-.17 2.128-.26.303-.09.838-.285 1.248-.34s1.552-.124 1.962-.23c.41-.108 1.088-.286 1.462-.358.375-.07 1.462-.018 1.712-.107.25-.09 1.462-.535 1.8-.464.34.072 2.55.982 2.783 1.588.232.606-.464.196-.606.32s.713.857.767 1.963.07 1.89 0 2.07-.232.535-.214.91c.018.375-.375 1.16-.446 1.516-.07.357-.196.754-.303 1.01-.106.256-.124.648-.213.755-.09.108-.17.483-.165.68.004.195-.454.608-.495.855-.09.535.25.392.25.624 0 .23-.392.998-.606 1.247s-.695 1.052-.998 1.23-1.106.5-1.462.82c-.357.322-.285.714-.428.91-.143.197-.285.84-.196 1.34s.41.98.482 1.337c.07.357 1.052 1.962 1.783 2.443.732.482 1.232.927 1.34.892.106-.037.41.195.64.177.233-.018.607-.214.84-.214.23 0 .57-.428.82-.375s.213.41.088.446c-.125.036-.41.16-.357.303.055.143.483.678.625 1 .143.32.91 1.658 1.034 1.89.124.23.64.712.748.962.803-.34 2.265-.93 2.764-1.214.5-.285 2.616-1.623 3.187-1.667.57-.045.998-.592 1.26-.544.26.048.475-.095.76-.143.285-.048.95-.166 1.14-.262.19-.094.81.144.976.167.166.024.5.238.69.238.19 0 .422.178.53.018s.25-.553.39-.535.27.268.25.482c-.017.214-.423.59-.41.883.05 1.04 1.38 1.364 1.463 1.73.03.134-.037.23-.156.205-.12-.024-.95.083-1.296.07-.345-.013-.856 1.047-.737 1.297.12.25.286.76.322.975.036.214.713.856.94 1.046.225.19.32.095.593.166.273.07.452.226.797.285s1.124-.23 1.828-.327c.704-.098.963.045.963.205 0 .16-.25.17-.366.375-.116.205.285.615.49.77.205.152.473.006.312.488-.162.482-1.89.767-2.052 1.462-.065.282.37.797.51.916.144.12.167.678.274.81.107.13.083.475.143.665.06.19.392.584.535.63s.37-.225.44-.32-.06-.69-.083-.82-.464-.06-.38-.404c.083-.345 1.332-1.272 1.558-1.284.226-.012.226-.107.357-.202.13-.095.57-.143.75-.238.177-.095 1.2-.19 1.64-.222.44-.032 1.097.454 1.775.58s1.578 1.435 1.65 1.702c.07.268-.116.59.276.67.238.048 1.017-1.035 1.222-1.142s.544-.152.892-.045.34.446.65.5c.284.048.35-.215.777-.162.232.03 1.596-.07 1.864.17.268.24.107.837.544.953.183.05.223-.25.312-.303.09-.054.383-.054.535-.018.15.036.382-.205.59-.24.21-.037 1.14.097 1.763.142.624.045.553.375.615.624.062.25-.196.768.16.884.236.076.474-.366.59-.473.116-.106 1.23-1.078 1.347-1.167.116-.09.17-.24.045-.34-.125-.097-.116-.177-.125-.33s-.245-.3-.424-.578c-.348-.54-.81-.717-1.025-.8-.214-.084-.927.047-1.126.142-.2.095-.48.178-.647.178-.166 0-.416.262-.583.262-.166 0-.31-.166-.262-.273.048-.107.476-.083.547-.178.07-.095.832-.333.943-.392.11-.06.97-.178 1.138-.345.166-.167-.44-.536-.56-.607-.118-.07-.926.036-1.112 0-.186-.036-.29-.273-.278-.372.012-.097 1.225-1.4 2.07-1.672.843-.273 2.104-.916 2.448-1.14.345-.227.32-1.226.285-1.487-.037-.26-.25-.38-.44-.45-.19-.072-.405.237-.548.272-.143.036-.357-.464-.357-.666s.25-.487.333-.75c.083-.26 1.2-1.176 1.617-1.39.415-.21.344-.543.177-.638zm-13.025 1.305c.014-.08.178-.157.276-.087s.294.21.312.355c.025.203-.176.268-.25.27-.222 0-.383-.278-.338-.537zm-.82-.455c.08-.098.132-.242.24-.196.084.035.232.107.205.214-.027.107-.232.375-.33.348s-.196-.267-.116-.366zm-1.632-1.694c.117.005.34.01.348.107.01.1-.134.34-.25.367-.116.027-.33-.062-.375-.17-.044-.107-.107-.32.277-.303zm-3.398-4.24c.1-.114.41-.04.553.263.143.303 1.338 1.587 1.445 1.783s.624.713.606.91-.374.143-.64 0c-.27-.143-.82-.678-.982-.963s-.794-1.176-.9-1.39c-.09-.178-.182-.49-.08-.604zm3.965 12.264c-.166.002-1.26.11-1.38.204-.118.095-.546-.143-.724-.13-.178.01-.81-.667-1.094-.69-.285-.025-.7-.227-.892-.24-.19-.01-.95-.37-.88-.724.048-.238.285.12.44.095.155-.024.345-.06.285-.262-.06-.2-.844-1.14-1.344-1.545-.5-.404-1.082-.785-1.415-.963-.333-.178-.987-.725-.844-.963.143-.24.606-.06.63-.453.024-.392-.12-1.783-.06-2.116.06-.332.025-1.343-.035-1.652-.06-.31-.346-.56-.215-.737.13-.177.178-.272.32-.082.144.19.37.38.477.238.107-.143 0-.76.07-.987.072-.227-.26-.81-.25-.952.013-.143-.308-.06-.39.143s-.68.548-.726.82c-.048.274-.333.63-.345.857s-.023.773-.142.892-.476.13-.428-.167c.048-.297.178-.048.238-.357.06-.31.012-.822.13-.976.12-.154-.094-.45-.284-.487-.19-.036-.297-.226.048-.428.345-.202.642-.868.963-1.094.32-.225 1.01-.76 1.272-.7.262.06.7 1.2 1.01 1.724.31.523 1.083 2.07 2.153 2.996 1.07.927 1.51 1.248 1.7 1.19.406-.12-.523-.726-.083-.87.305-.098.048.263.713 1.142.666.88 3.262 3.867 4.875 4.173.94.178 1.367-.76 1.474-.95.106-.19.376-.512.348-.88-.014-.185.218-.27.27-.548.058-.32.278-.612.368-.618.107-.008.196.338.16.516s-.213.38-.25.59c-.035.212-.04 1.14-.1 1.318-.06.178-1.962 1.225-2.366 1.58-.404.36-3.53 2.093-3.698 2.094zm5.577-1.907c-.108.153-.105.634-.066.866.04.232.033.544 0 .642s-.095.455-.06.633.135.502-.008.76-.01.418-.5.436c-.365.013-.668-.134-.748 0-.08.134.036.392-.116.464s-.49-.062-.473-.357c.017-.294.258-.763.284-1.064.027-.302.427-1.073.464-1.176.152-.42.455-.624.366-.963-.042-.157.196-.213.25-.347.054-.134.16-.423.437-.36.148.037.276.317.17.468zm1.396 3.158c-.178.07-.208.19-.363.083-.07-.048-.155-.2-.25-.13s-.214.238-.238.345c-.024.107-.124.19-.196.177-.16-.028-.22-.314-.08-.51.162-.226-.01-.595.05-.725s-.096-.51-.06-.725c.036-.214-.003-.36.06-.485s-.063-.597-.037-.66c.027-.062.095-.38.262-.342.192.045.202.202.226.404.025.2.193.566.286.736.12.217.315.346.34.532.02.154-.018.312.053.42.07.106.308.332.284.475-.023.144-.16.334-.338.405zm5.106-5.22c-.166-.01-.488-.118-.476-.296.012-.178.07-.404-.012-.535-.083-.13-.345-.202-.357-.12-.012.084-.083.358-.012.477.07.12.226.083.25.226.024.143.036.416 0 .535-.036.12-.226.333-.226.476 0 .144 0 .393.118.44.12.05.38.037.464-.094.083-.13.273.004.25.12-.024.118-.464.677-.713.855s-.988.69-1.142.726c-.155.036-.773.012-.987.083s-.808-.65-1.093-.646c-.285.003-.64-.044-.83-.15-.193-.108-.514-.28-.42-.497.096-.218-.07-.79-.016-.967s.02-.75.096-.856-.065-.523 0-.606c.065-.083.09-.44.148-.618.06-.178.11-.19.192-.196.137-.01.367.178.296.357-.07.18-.188.6-.14.922.045.32-.332 1.237-.155 1.355.177.12 3.21-2.247 3.482-2.556.272-.308.784-.226.915-.09.13.138.642.91.618 1.173-.025.26-.084.497-.25.486z" />
  </g>

</svg>
