<!--
  SVG Music Logos
  Metallica - Hardwired…To Self-Destruct v1.0.0
  https://github.com/tiagoporto/svg-music-logos
  Copyright (c) 2016 Tiago Porto (http://tiagoporto.com)
-->
<svg xmlns="http://www.w3.org/2000/svg" viewBox="0 63 200 75">
  <path d="M198.5 132.616l-4.783-5.856h-2.13l-9.704-12.267h-4.7l-1.265-1.584h-1.587l-.48-.742h3.717l-7.104-8.965h2.664l-.55-.88h-1.517L157.318 85.11h-3.705l-1.16-1.82h1.862l-3.847-4.903 7.05 1.957-18.864-11.96 4.764 6.668 1.506 10.058h1.58l1.372 8.293 8.3 7.274-3.384-10.77 6.384 4.002 6.84 9.293h-1.21l5.063 7.265-8.446-3.578 7.506 5.882h-3.053l2.252 1.655h5.102l15.7 12.22h2.127l7.44 5.97zM149.516 85.11l-1.048-3.85 2.845 3.85h-1.797z"/>
  <path d="M141.912 78.076c-.867-.343-1.615-.546-3.44-.546-2.054 0-8.06.434-8.972 5.822h2.25v1.803h-.67c0 4.018 4.03 8.356 10.87 8.356 1.895 0 2.994-.31 3.86-.743l-.94-5.32c-.628.63-1.965.938-3.185.938-2.26 0-4.58-1.144-4.58-3.26h.524v-1.773h-1.472c.48-.725 1.724-1.1 3.02-1.1 1.405 0 2.69.195 3.483.635l-.748-4.81z"/>
  <polygon points="121.731,78.102 122.121,83.352 126.044,83.352 126.044,85.155 124.028,85.155 124.634,93.127 130.636,93.127 129.832,85.155 128.18,85.155 127.6,78.102"/>
  <polygon points="110.306,78.102 110.438,83.352 112.221,83.352 112.164,84.769 112.452,93.127 123.123,93.127 122.932,89.234 117.805,89.234 117.585,85.155 118.309,85.155 118.429,83.352 115.824,83.352 115.546,78.102"/>
  <polygon points="98.697,78.102 98.697,83.304 102.747,83.304 102.747,85.082 100.295,85.082 100.295,93.127 111.142,93.127 111.047,89.139 105.821,89.139 105.821,85.082 104.223,85.082 104.223,78.102"/>
  <polygon points="96.263,83.419 94.769,83.419 93.376,78.102 87.945,78.102 85.761,83.419 91.1,83.419 91.1,85.089 88.879,85.089 89.367,87.103 87.842,87.103 88.603,85.089 83.66,85.089 80.374,93.127 85.822,93.127 86.621,90.819 89.938,90.819 90.283,93.127 95.999,93.127 93.872,85.089 96.263,85.089"/>
  <polygon points="72.43,78.102 72.144,81.532 75.193,81.532 75.021,83.38 78.088,83.38 78.001,85.181 73.37,85.181 72.583,93.127 78.3,93.127 78.952,85.112 80.297,85.112 80.528,81.627 84.046,81.627 85.761,78.102"/>
  <polygon points="70.891,78.102 60.256,78.102 59.548,83.298 63.183,83.298 63.049,85.143 57.843,85.143 56.733,93.127 68.023,93.127 68.213,88.868 62.897,88.868 63.034,87.146 68.603,87.146 68.679,85.106 71.364,85.106 71.509,83.381 65.108,83.381 65.203,81.722 70.594,81.722"/>
  <path d="M59.12 68.384l-9.432 13.148.572 1.715 8.003-7.336L57 85.16h-1.334l-1.163 7.997-9.432 6.67 4.48-13.15-3.557 2.976-1.312-3.233-11.045 15.222h-3.09l-.785.95h1.907l-5.264 7.26 8.65-3.523L1.5 132.617l24.66-30.03h-1.656l.68-.964h2.935l13.295-16.397h1.648l4.53-5.6-6.48 1.905c0 .002 10.48-6.572 18.007-13.146z"/>
</svg>
