<!--
  SVG Music Logos
  Faith No More - Star of Lakshmi v1.0.0
  https://github.com/tiagoporto/svg-music-logos
  Copyright (c) 2016 Tiago Porto (http://tiagoporto.com)
-->
<svg xmlns="http://www.w3.org/2000/svg" viewBox="0 0 200 200">
  <path d="M168.697 129.25l28.6-28.602-28.6-28.6V31.6H128.25L99.65 3 71.047 31.6H30.6V72.05L2 100.648l28.6 28.6v40.45H71.05l28.6 28.6 28.6-28.6h40.448v-40.45zm18.618-28.6l-18.62 18.618V82.03l18.62 18.62zm-25.677 25.676l-36.313 36.313H73.972L37.66 126.325V74.972L73.97 38.66h51.354L161.64 74.97v51.354zm0-87.667v26.33l-26.33-26.33h26.33zM99.648 12.98l18.62 18.62H81.03l18.62-18.62zM37.66 38.66H63.99L37.66 64.99V38.66zm-25.676 61.99l18.62-18.62v37.238l-18.62-18.62zm25.677 61.99v-26.332l26.33 26.33H37.66zm61.99 25.675l-18.62-18.618h37.237L99.65 188.315zm35.657-25.676l26.33-26.332v26.33h-26.33z"/>
  <polygon points="135.206,128.866 135.206,126.828 140.764,126.828 140.764,121.862 135.206,121.862 135.206,119.996 141.333,119.996 141.333,114.741 128.374,114.741 128.374,134.121 141.491,134.121 141.491,128.866"/>
  <path d="M124.555 124.668c.673-.89 1.012-2.024 1.012-3.402 0-2.106-.67-3.723-2.01-4.844-1.343-1.12-3.286-1.68-5.826-1.68h-8.765v19.38h6.832v-6.394l3.39 6.394h7.807l-5.174-7.89c1.15-.15 2.058-.67 2.735-1.564zm-6.145-1.635c-.357.32-.863.484-1.527.484H115.8v-3.787h1.083c.664 0 1.17.167 1.527.497.357.33.538.804.538 1.423 0 .6-.18 1.062-.538 1.383z"/>
  <path d="M103.12 117.226c-.98-.95-2.102-1.676-3.367-2.173-1.26-.5-2.62-.75-4.076-.75-1.455 0-2.815.25-4.076.75-1.264.497-2.38 1.225-3.352 2.173-.958.935-1.69 2.02-2.183 3.245-.492 1.23-.74 2.563-.74 4 0 1.437.248 2.765.74 3.985.492 1.216 1.224 2.295 2.183 3.23.98.964 2.1 1.696 3.366 2.197 1.26.5 2.616.755 4.062.755 1.428 0 2.78-.253 4.044-.755s2.386-1.225 3.358-2.17c.97-.962 1.708-2.055 2.21-3.28.5-1.22.754-2.544.754-3.963 0-1.43-.25-2.758-.75-3.987-.496-1.224-1.224-2.312-2.173-3.257zm-5.08 9.9c-.597.664-1.383 1-2.363 1s-1.77-.335-2.373-1c-.6-.67-.9-1.55-.9-2.657 0-1.104.3-1.994.9-2.672.6-.682 1.392-1.02 2.373-1.02.98 0 1.767.338 2.363 1.01.596.68.895 1.57.895 2.68s-.298 1.99-.895 2.658z"/>
  <path d="M73.838 114.74l-1.446 4.714c-.352 1.157-.633 2.196-.845 3.122-.212.926-.37 1.803-.48 2.62h-.116c-.13-1.305-.487-2.968-1.07-4.987-.09-.3-.158-.525-.2-.674l-1.377-4.794h-7.19l-3.307 19.38h6.832l.845-7.676c.054-.592.104-1.18.154-1.762.05-.583.095-1.175.14-1.77.077.555.19 1.142.33 1.766.14.62.32 1.283.542 1.993l2.222 7.45h4.144l2.223-7.45c.21-.71.392-1.374.537-1.993.145-.624.257-1.21.334-1.767.037.588.082 1.18.137 1.767.05.587.104 1.175.158 1.767l.845 7.677h6.832l-3.073-19.38h-7.172z"/>
  <path d="M115.672 109.948c1.265-.502 2.386-1.225 3.357-2.17.97-.962 1.707-2.055 2.21-3.28.5-1.22.754-2.544.754-3.963 0-1.428-.248-2.756-.75-3.986-.497-1.226-1.224-2.314-2.173-3.26-.98-.948-2.1-1.675-3.366-2.172-1.26-.5-2.62-.75-4.076-.75-1.455 0-2.815.25-4.076.75-1.265.497-2.38 1.225-3.353 2.173-.96.936-1.69 2.02-2.184 3.245-.492 1.23-.74 2.562-.74 4 0 1.436.248 2.764.74 3.984.492 1.215 1.224 2.294 2.183 3.23.98.963 2.1 1.695 3.365 2.196 1.26.5 2.616.755 4.062.755 1.43.003 2.78-.25 4.045-.752zm-7.316-9.412c0-1.103.298-1.993.9-2.67.6-.683 1.39-1.022 2.37-1.022.982 0 1.768.34 2.364 1.012.597.678.895 1.568.895 2.68 0 1.107-.298 1.988-.895 2.657-.597.664-1.383 1-2.363 1s-1.77-.335-2.372-1c-.6-.67-.9-1.55-.9-2.657z"/>
  <path d="M98.388 110.188v-19.38h-6.71v6.497c0 .886.013 1.6.045 2.146.032.548.086 1.05.167 1.497l-6.023-10.14h-6.832v19.38h6.724v-6.99c0-.618-.02-1.174-.055-1.67-.036-.503-.086-.968-.158-1.402l5.96 10.063h6.88z"/>
  <polygon points="129.092,79.209 133.34,79.209 133.34,86.041 140.303,86.041 140.303,66.661 133.34,66.661 133.34,73.105 129.092,73.105 129.092,66.661 122.115,66.661 122.115,86.041 129.092,86.041"/>
  <polygon points="109.025,86.041 115.988,86.041 115.988,73 119.865,73 119.865,66.661 105.148,66.661 105.148,73 109.025,73"/>
  <rect x="95.681" y="66.661" width="7.081" height="19.38"/>
  <path d="M80.507 86.04l.597-2.435h5.255l.623 2.436h7.492l-6.778-19.38h-7.76L73.03 86.04h7.477zm2.36-9.24c.288-1.11.487-1.97.596-2.57.104-.596.172-1.16.2-1.69h.117c.027.53.09 1.094.2 1.69.103.6.302 1.46.595 2.57l.592 2.197H82.27l.596-2.196z"/>
  <polygon points="67.702,79.132 73.115,79.132 73.115,74.166 67.702,74.166 67.702,71.916 73.684,71.916 73.684,66.661 60.725,66.661 60.725,86.041 67.702,86.041"/>
</svg>
