<!--
  SVG Music Logos
  Björk - Family Tree v1.0.0
  https://github.com/tiagoporto/svg-music-logos
  Copyright (c) 2016 Tiago Porto (http://tiagoporto.com)
-->
<svg xmlns="http://www.w3.org/2000/svg" viewBox="0 0 200 74">
  <path d="M24.455 50.703V11.675S25.62 6.51 29.62 6.51c0 0 3.22.357 3.22-1.84s-2.983-1.412-2.983-1.412L6.002 3.1s-4.237 1.412-.156 3.14c4.08 1.726 5.964 2.353 5.964 6.12v29.506s.156 5.65-4.866 5.65c-4.08 0-3.766 3.453 0 3.453 3.767 0 17.51-.267 17.51-.267z"/>
  <path d="M33.78 3.57s3.925 2.198 3.925 5.337v8.005s-.627 5.336-6.59 5.336c0 0 .313 6.905 6.12 6.905v10.83s-.628 4.393-6.434 4.393c0 0 .315 6.75 6.592 6.75 6.278 0 13.34-4.082 13.34-12.87 0-8.79-7.062-10.987-7.062-10.987s7.062-2.2 7.062-11.772c0-9.573-8.318-12.4-12.084-12.4-3.767.002-4.867.473-4.867.473z"/>
  <path d="M66.897 25.7s-10.045.627-10.045 10.83V58.97s-1.255 4.708-7.062 4.708c0 0 0 7.22 7.22 7.22s12.4-5.65 12.4-10.986V30.722s.313-4.552 5.493-4.552c2.98 0 2.667-2.04 2.667-2.04 0-2.04-2.825-1.883-2.825-1.883H56.852s-2.197-.314-2.197 1.726 2.04 1.726 2.04 1.726h10.202z"/>
  <path d="M72.547 12.673c0 3.554-2.88 6.435-6.434 6.435-3.554 0-6.435-2.88-6.435-6.435 0-3.554 2.88-6.434 6.435-6.434 3.553-.002 6.434 2.88 6.434 6.433z"/>
  <path d="M96.56 12.673c0 3.554-2.882 6.435-6.436 6.435s-6.434-2.88-6.434-6.435c0-3.554 2.88-6.434 6.434-6.434 3.555-.002 6.435 2.88 6.435 6.433z"/>
  <path d="M109.43 12.673c0 3.554-2.882 6.435-6.436 6.435s-6.435-2.88-6.435-6.435c0-3.554 2.88-6.434 6.434-6.434 3.554-.002 6.435 2.88 6.435 6.433z"/>
  <path d="M96.517 44.71s6.632-.13 6.632-5.868V28.257s-.766-5.74-4.847-5.74c0 0 15.433-3.06 17.6 11.096v6.377s-.38 11.35-12.754 11.35c-5.485 0-6.633-5.23-6.633-5.23s-.51 5.103-5.867 5.103-13.137-3.954-13.137-11.48v-6.376s1.02-10.84 11.988-10.84h6.506s2.168-.256 2.296 1.402c.127 1.657-2.04 1.785-2.04 1.785s-5.612 1.148-5.612 5.484v8.162s.255 5.357 5.867 5.357z"/>
  <path d="M136.31 22.26V28s1.784-10.204 12.753-10.204v7.78s-.892 5.102-6.248 5.102-6.377 5.23-6.377 5.23v6.63s.765 5.23 5.995 5.23c2.55 0 2.04 1.913 2.04 1.913 0 2.042-1.913 1.787-1.913 1.787h-24.87s-2.04.128-2.04-1.786c0-1.785 1.53-1.785 2.296-1.785.765 0 5.994-.51 5.994-5.23V31.443s-.638-5.867-6.12-5.867c-2.425 0-2.17-1.658-2.17-1.658 0-1.657 1.403-1.657 1.786-1.657h18.875z"/>
  <path d="M165.645 51.34H146.26s-1.787.128-1.787-1.657c0-1.786 1.403-2.04 1.403-2.04h2.168s4.464-1.02 4.464-5.358V11.803s0-5.484-5.23-5.484h-1.53s-1.53.51-1.53-1.404c0-1.913 1.722-1.722 1.722-1.722h25.7s1.53-.32 1.53 1.467c0 1.786-1.53 1.786-1.53 1.786h-1.403s-4.974.383-4.974 5.995v19.643s6.25-1.276 6.25-5.74v-2.805s-.255-1.275 1.913-1.275h9.31s1.786-.638 1.786 1.785-.636 8.545-2.677 8.545c0 0 8.8 1.913 8.8 11.48v7.524s.51 5.867 5.356 5.867h-6.63s-10.333-.638-11.608-10.204v-3.444s-.383-5.484-6.504-5.484c0 0-5.64-.386-5.64-4.49l.027 17.5z"/>
</svg>
