<!--
  SVG Music Logos
  Yes - 90125 v1.0.0
  https://github.com/tiagoporto/svg-music-logos
  Copyright (c) 2016 Tiago Porto (http://tiagoporto.com)
-->
<svg xmlns="http://www.w3.org/2000/svg" viewBox="0 0 200 26">
  <path d="M135.345 16.9l14.418-.433c.853 1.48 2.614 2.56 5.278 3.254 2.65.688 6.22 1.037 10.73 1.037 4.766 0 8.37-.307 10.78-.927 2.424-.614 3.638-1.333 3.638-2.155 0-.53-.514-.98-1.54-1.348-1.006-.375-2.783-.698-5.328-.968-1.726-.19-5.69-.51-11.856-.98-7.943-.6-13.513-1.338-16.708-2.212-4.51-1.23-6.765-2.728-6.765-4.497 0-1.14 1.06-2.2 3.178-3.195 2.12-.99 5.177-1.744 9.158-2.264 3.997-.514 8.798-.775 14.435-.775 9.226 0 16.146.614 20.81 1.843 4.646 1.234 7.09 2.874 7.328 4.93l-14.81.198c-.632-1.15-2-1.978-4.084-2.478-2.084-.505-5.21-.755-9.378-.755-4.305 0-7.688.266-10.113.807-1.572.344-2.357.807-2.357 1.385 0 .53.733.984 2.203 1.36 1.86.478 6.405.978 13.614 1.493 7.21.52 12.54 1.057 15.99 1.608 3.452.557 6.15 1.312 8.114 2.275 1.948.964 2.922 2.15 2.922 3.562 0 1.28-1.163 2.483-3.502 3.597-2.34 1.118-5.64 1.95-9.91 2.493-4.27.547-9.6.817-15.972.817-9.277 0-16.4-.65-21.37-1.957-4.972-1.31-7.946-3.216-8.9-5.714z"/>
  <polygon points="75.862 24.171 75.862 1.813 130.254 1.813 130.254 5.597 90.673 5.597 90.673 10.553 127.504 10.553 127.504 14.317 90.673 14.317 90.673 20.402 131.656 20.402 131.656 24.171 75.862 24.171"/>
  <polygon points="31.873 24.171 31.873 14.759 5 1.813 22.374 1.813 39.645 10.657 56.558 1.813 73.624 1.813 46.648 14.791 46.648 24.171 31.873 24.171"/>
</svg>
