<!--
  SVG Music Logos
  Yes - Big Generator v1.1.0
  https://github.com/tiagoporto/svg-music-logos
  Copyright (c) 2016-2018 Tiago Porto (http://tiagoporto.com)
-->
<svg class="yes--big-generator" xmlns="http://www.w3.org/2000/svg" viewBox="0 0 200 52">
  <polygon points="198,2.659 198,49.341 2,49.341 2,2.659 198,2.659" />
  <g class="yes__letters" fill="#FFF">
    <polygon
      points="30.416,18.601 30.416,18.601 30.416,27.093 48.988,27.093 48.988,32.936 57.889,32.936 57.889,18.601 48.988,18.601 48.988,24.586 39.095,24.586 39.095,18.601 30.416,18.601" />
    <polygon
      points="86.592,18.601 86.592,18.601 86.592,32.936 113.865,32.936 113.865,30.521 95.319,30.521 95.319,27.07 113.857,27.07 113.887,24.593 95.319,24.593 95.319,21.15 113.411,21.15 113.411,18.601 86.592,18.601" />
    <polygon
      points="142.479,18.601 142.479,18.601 142.479,27.051 161.071,27.044 161.071,30.479 142.479,30.479 142.479,32.936 169.621,32.936 169.621,24.601 151.23,24.601 151.23,21.127 169.621,21.127 169.621,18.601 142.479,18.601" />
  </g>
</svg>