<!--
  SVG Music Logos
  Yes - Yes v1.1.0
  https://github.com/tiagoporto/svg-music-logos
  Copyright (c) 2016-2018 Tiago Porto (http://tiagoporto.com)
-->
<svg class="yes--yes" xmlns="http://www.w3.org/2000/svg" viewBox="0 0 200 155">
  <path class="yes__ballon-shadow" fill="#0742AB"
    d="M125.2 125.19c6.898 4.363 24.48 27.933 28.044 27.933 3.262 0 8.24-5.728 9.136-6.774.896-1.047 1.28-1.875.287-4.62-.994-2.745-5.365-16.747-6.094-19.177-.333-1.11-.018-1.514 1.21-1.74 4.61-.847 8.26-2.62 12.196-4.563 2.34-1.157 10.84-7.038 16.892-17.527 6.054-10.488 10.63-24.073 10.63-37.447 0-13.374-3.098-29.21-9.996-40.192 0 0-3.238-6.265-6.617-8.658-3.38-2.393-4.787-4.505-20.132-6.898-15.345-2.393-26.973-3.8-46.034-3.8-32.72 0-81.856 2.526-99.477 20.57C12.62 24.99 5.66 31.584 4.3 34.332c-2.927 5.92-7.026 54.135 17.072 77.97 8.224 2.043 17.104 5.877 60.71 8.522 13.995.848 37.855 1.037 43.118 4.367z" />
  <path class="yes__ballon" fill="#FF331C"
    d="M55.454 7.388c17.93-3.018 53.13-3.76 62.13-3.76 16.688 0 44.592 2.746 52.616 4.998 8.024 2.252 10.774 5.35 13.308 8.728 2.534 3.38 12.736 16.05 12.032 43.22-.704 27.17-10.418 35.757-15.204 38.572-4.786 2.816-17.316 7.32-21.962 8.587-4.646 1.267-6.33 4.235-4.665 10.093 1.606 5.658 7.986 23.413 7.986 23.413s1.127 2.392-.14 3.236c-1.268.845-2.394-.985-3.52-1.97-1.127-.986-20.217-22.806-21.202-23.792-.985-.985-5.21-7.04-14.923-7.602-9.712-.563-63.77-4.927-67.29-5.772-3.52-.844-13.516-1.407-21.962-4.082-8.447-2.674-7.32-2.956-10.277-7.32-2.64-3.9-9.98-22.55-9.8-46.915.022-2.902.822-20.023 2.96-22.12C24.165 16.442 36.1 10.646 55.453 7.39z" />
  <g class="yes__letters-shadow" fill="#0742AB">
    <path
      d="M42.973 19.222s-9.15.985-15.767 5.772c-6.617 4.787-8.728 10.7-8.588 11.685.14.984-.525 3.762 3.277 9.393 3.8 5.63 10.136 14.36 9.995 28.015-.14 13.656.282 19.99 4.505 22.243s13.207 2.54 15.597 2.23c4.364-.563 9.455-4.475 12.693-8.98 3.238-4.506 3.762-6.978 3.762-20.27s.108-18.312 1.83-22.163c1.91-4.274 10.887-21.03 10.887-27.577 0-3.17-1.14-4.06-5.938-4.06-7.684 0-12.33 1.652-13.65 2.063-3.17.985-2.722 2.582-5.017 4.534-1.882 1.6-2.67 1.68-4.084 1.338-1.402-.34-2.842-1.485-4.49-2.993-1.41-1.292-4.4-1.31-5.013-1.23z" />
    <path
      d="M92.547 19.28s-4.927 3.474-7.46 6.477c-1.31 1.552-6.477 5.913-7.603 14.64-.836 6.48-1.16 16.563-1.172 26.105-.012 9.72.4 22.417 3.003 26.97 1.126 1.97 1.69 6.194 10.558 7.46 8.87 1.267 18.583 1.267 19.568.844.986-.422 4.787 1.127 11.826-6.194 7.04-7.32 5.397-5.35 7.274-7.743 2.248-2.867 4.88-4.975 4.55-17.82 0 0-.233-2.687-2.017-4.61-1.783-1.925-3.988-3.66-4.036-5.21-.047-1.55-.046-3.144 1.267-4.41 1.314-1.268 2.768-3.098 3.05-3.708.282-.61 1.22-4.927.845-8.353-.376-3.427-2.347-3.85-2.91-4.318-.563-.47-2.91-1.455-1.924-5.02 1.22-2.394 2.487-2.91 2.91-3.614.422-.704 2.112-1.736 1.83-7.18-.28-5.443-.892-5.866-.892-5.866s-.98-2.487-5.746-3.003c-4.765-.517-22.41-.517-26.962 1.172-4.55 1.69-5.578 3.09-5.96 3.38z" />
    <path
      d="M140.92 25.26c-1.583 1.79-4.363 4.858-5.208 6.64-.844 1.784-3.473 6.383 0 15.956s7.133 19.146 7.133 19.146 1.5 3.566.94 4.786c-.565 1.22-1.597 2.72-3.286 3.942-1.338.966-2.873 3.138-3.033 7.192-.28 7.033 3.975 16.178 10.446 16.74 8.634.75 18.72-1.312 22.337-3.004 5.82-2.72 12.95-9.948 16.143-15.767 3.19-5.818 3.065-7.42 3.31-10.698.41-5.53-1.315-11.142-4.624-17.503-3.333-6.405-6.217-12.06-6.453-13.703-.363-2.53-.094-3.965 3.003-6.124 3.097-2.16 2.956-2.933 2.697-4.716-.23-1.59-2.065-6.664-7.884-8.353-5.82-1.69-19.605-2.496-25.434-1.033-5.325 1.34-8.446 4.647-10.09 6.5z" />
  </g>
  <g class="yes__letters" fill="#FF331C">
    <path
      d="M36.336 21.568c1.74-.46 4.88-1.666 7.32-1.502 2.092.14 2.112-.328 5.584 2.487 3.472 2.815 4.786 1.924 6.288 1.267 1.502-.657 3.613-4.41 5.396-5.068 1.783-.657 9.262-2.13 12.546-2.223 4.617-.133 6.812.337 6.812 2.407 0 3.195-1.198 6.685-3.13 11.35-1.99 4.81-8.235 17.143-8.986 19.77-.75 2.63-.333 26.23-1 31.222-.447 3.358-2.388 7.358-6.186 7.588-6.194.375-7.977.657-11.262 0-2.703-.54-5.352-1.672-5.54-10.12-.245-11.07 1.47-19.048-4.85-28.124C36 45.838 29.055 33.92 29.055 33.92s-4.572-6.49.525-9.254c3.398-1.844 4.96-2.623 6.756-3.098z" />
    <path
      d="M101.012 16.18s-8.165.846-9.667 8.73c-1.5 7.883-4.505 30.057-3.19 45.155 1.313 15.098.52 18.946 6.266 20.072 5.748 1.127 22.568.94 26.676 0 4.11-.938 8.822-2.252 10.793-10.886.28-8.446.615-9.087 0-10.698-.986-2.58-3.472-4.025-4.473-5.546-.866-1.314-2.445-4.647.25-7.734 2.486-2.85 3.002-3.332 3.284-4.364.283-1.033.658-6.1.19-7.884-.47-1.783-1.878-1.877-3.38-3.38-1.5-1.5-2.908-4.88-.374-7.6 2.534-2.723 3.66-3.38 3.754-6.57.094-3.192-.657-7.603-1.032-7.884-.375-.282-3.097-2.44-8.353-2.44-5.258-.002-15.488-.002-20.743 1.03z" />
    <path
      d="M154.156 18.996s-9.95.563-10.23 7.227c-.28 6.664 1.127 17.738 6.664 27.03 5.537 9.29 6.04 15.065 2.886 16.892-3.402 1.97-7.118 3.82-5.535 9.847 1.645 6.26 3.29 7.834 12.035 7.797 11.075-.048 20.653-2.34 24.965-7.04 3.66-3.99 6.17-12.503 1.525-23.392C181.96 46.8 174.92 38.775 178.7 34.41c1.928-2.227 3.728-2.615 4.528-3.917.633-1.033.087-4.45-1.76-6.71-2.09-2.558-7.134-5.725-27.312-4.787z" />
  </g>
</svg>