<!--
  SVG Music Logos
  Rammstein - Wings v1.0.0
  https://github.com/tiagoporto/svg-music-logos
  Copyright (c) 2016 Tiago Porto (http://tiagoporto.com)
-->
<svg xmlns="http://www.w3.org/2000/svg" viewBox="0 0 200 127">
  <polygon points="101.148,30.881 110.691,30.881 110.691,33.907 101.148,33.907 101.148,39.216 114.679,39.216 114.679,25.562 105.135,25.562 105.135,22.563 114.679,22.563 114.679,17.33 101.148,17.33"/>
  <polygon points="122.884,22.591 122.884,39.216 128.453,39.216 128.453,22.591 132.888,22.591 132.888,17.329 118.448,17.329 118.448,22.591 122.884,22.591 122.884,22.591"/>
  <polygon points="136.397,39.216 150.788,39.216 150.788,33.907 141.277,33.907 141.277,31.028 146.008,31.028 146.008,26.371 141.277,26.371 141.277,22.646 150.788,22.646 150.788,17.337 136.397,17.337"/>
  <polygon points="160.879,21.997 162.915,21.997 162.915,17.394 154.085,17.394 154.085,21.997 156.121,21.997 156.121,34.612 154.085,34.612 154.085,39.216 162.915,39.216 162.915,34.612 160.879,34.612 160.879,21.997 160.879,21.997"/>
  <polygon points="176.991,39.215 176.991,39.216 182.707,39.216 182.707,17.329 176.991,17.329 176.991,29.462 172.505,17.331 172.505,17.329 166.788,17.329 166.788,39.216 172.505,39.216 172.505,29.701 176.991,39.215 176.991,39.215"/>
  <path d="M18.268 39.216h5.476V32.13h1.105l3.713 7.015h4.82l-3.184-7.014h2.452V17.395H18.268v21.822zM27.76 22.92v4.605h-4.746V22.92h4.746z"/>
  <path d="M36.645 39.196l4-.005.812-5.39h4.798l.812 5.416h4.01L48.61 17.394H38.288l-1.643 21.802zm5.217-10.14l.435-6.994h3.147l.417 6.994h-3.998z"/>
  <polygon points="68.751,17.397 68.75,17.397 68.75,17.399 64.214,25.594 59.978,17.395 59.975,17.412 59.975,17.397 55.278,17.397 55.278,39.216 59.975,39.216 59.975,26.397 64.317,33.039 68.75,26.122 68.75,39.216 73.448,39.216 73.448,17.397 68.752,17.397 68.752,17.394 68.751,17.397 68.751,17.397"/>
  <polygon points="91.738,17.397 91.737,17.397 91.737,17.399 87.202,25.594 82.966,17.395 82.963,17.412 82.963,17.397 78.265,17.397 78.265,39.216 82.963,39.216 82.963,26.397 87.304,33.039 91.737,26.122 91.737,39.216 96.435,39.216 96.435,17.397 91.74,17.397 91.74,17.394 91.738,17.397 91.738,17.397"/>
  <polygon points="1,124.042 1,2.958 14.029,14.874 14.029,113.488 9.773,117.228 9.773,26.997 5.912,24.527 5.912,120.223 1,124.042"/>
  <polygon points="17.399,99.803 22.341,95.548 22.341,42.723 17.399,42.723 17.399,99.803"/>
  <polygon points="25.637,92.71 30.579,88.455 30.579,42.723 25.637,42.723 25.637,92.71"/>
  <polygon points="33.976,85.53 38.918,81.276 38.918,42.723 33.976,42.723 33.976,85.53"/>
  <polygon points="42.435,78.248 47.377,73.993 47.377,42.723 42.435,42.723 42.435,78.248"/>
  <polygon points="50.612,71.207 55.554,66.952 55.554,42.723 50.612,42.723 50.612,71.207"/>
  <polygon points="58.63,64.304 63.572,60.049 63.572,42.723 58.63,42.723 58.63,64.304"/>
  <polygon points="66.966,57.127 71.908,52.872 71.908,42.723 66.966,42.723 66.966,57.127"/>
  <polygon points="199,124.042 199,2.958 185.971,14.874 185.971,113.488 190.227,117.228 190.227,26.997 194.088,24.527 194.088,120.223 199,124.042"/>
  <polygon points="182.601,99.803 177.659,95.548 177.659,42.723 182.601,42.723 182.601,99.803"/>
  <polygon points="174.363,92.71 169.421,88.455 169.421,42.723 174.363,42.723 174.363,92.71"/>
  <polygon points="166.024,85.53 161.082,81.276 161.082,42.723 166.024,42.723 166.024,85.53"/>
  <polygon points="157.565,78.248 152.623,73.993 152.623,42.723 157.565,42.723 157.565,78.248"/>
  <polygon points="149.388,71.207 144.446,66.952 144.446,42.723 149.388,42.723 149.388,71.207"/>
  <polygon points="141.37,64.304 136.428,60.049 136.428,42.723 141.37,42.723 141.37,64.304"/>
  <polygon points="133.034,57.127 128.092,52.872 128.092,42.723 133.034,42.723 133.034,57.127"/>
  <polygon points="101.084,87.82 107.485,87.82 107.485,77.483 117.725,77.483 117.725,71.023 120.285,71.023 120.285,80.067 110.045,80.067 110.045,90.404 101.084,90.404 101.084,87.82 101.084,87.82"/>
  <polygon points="79.323,59.394 102.364,59.394 102.364,69.731 105.891,80.067 94.045,80.067 92.124,74.437 92.124,80.067 79.323,80.067 79.323,71.023 81.883,71.023 81.883,77.483 89.564,77.483 89.564,69.731 93.078,69.731 95.723,77.483 102.449,77.483 99.804,69.731 99.804,61.978 81.883,61.978 81.883,68.438 79.323,68.438 79.323,59.394 79.323,59.394"/>
  <polygon points="101.084,49.057 110.045,49.057 110.045,59.394 120.285,59.394 120.285,68.438 117.725,68.438 117.725,61.978 107.485,61.978 107.485,51.641 101.084,51.641 101.084,49.057 101.084,49.057"/>
  <polygon points="92.124,51.641 92.124,56.809 89.564,56.809 89.564,49.057 98.524,49.057 98.524,51.641 92.124,51.641 92.124,51.641"/>
  <polygon points="98.524,87.82 98.524,90.404 89.564,90.404 89.564,82.652 92.124,82.652 92.124,87.82 98.524,87.82 98.524,87.82"/>
  <path d="M99.66 104.694c.02-.04 1.498-2.916 12.456-6.065 11.037-3.173 12.18-10.403 12.18-15.732V42.55H75.023v40.346c0 5.33 1.142 12.56 12.18 15.73 10.957 3.15 12.435 6.027 12.456 6.068zm-.003-1.37c-.02-.04-1.4-2.783-11.633-5.787-10.307-3.026-11.374-9.924-11.374-15.01V44.036h46.013v38.493c0 5.085-1.066 11.983-11.374 15.01-10.234 3.003-11.614 5.746-11.633 5.786z"/>
</svg>
