<!--
  SVG Music Logos
  Eminence - The God Of All Mistakes v1.0.0
  https://github.com/tiagoporto/svg-music-logos
  Copyright (c) 2016-2018 Tiago Porto (http://tiagoporto.com)
-->
<svg xmlns="http://www.w3.org/2000/svg" viewBox="0 89 200 23">
  <rect x="57.713" y="90.541" width="2.871" height="19.307"/>
  <polygon points="102.565 107.772 102.565 105.185 107.667 105.185 107.367 104.205 102.565 104.205 102.565 101.253 113.712 101.253 113.712 99.137 102.565 99.137 102.565 96.465 107.667 96.465 107.367 95.569 102.565 95.569 102.565 92.657 114.218 92.657 113.984 90.541 99.693 90.541 99.693 109.848 100.126 109.913 114.972 109.913 114.972 107.772"/>
  <polygon points="186.592 107.772 186.592 104.671 191.695 104.671 191.395 103.66 186.592 103.66 186.592 101.253 197.74 101.253 197.74 99.137 186.592 99.137 186.592 96.465 191.695 96.465 191.395 95.569 186.592 95.569 186.592 92.657 198.246 92.657 198.012 90.541 183.721 90.541 183.721 109.848 184.154 109.913 199 109.913 199 107.772"/>
  <polygon points="88.329 90.541 85.458 90.541 85.458 105.365 74.984 90.594 72.326 90.594 72.326 109.901 75.197 109.901 75.197 95.719 85.245 109.848 88.329 109.848"/>
  <polygon points="145.139 90.541 139.676 90.541 139.676 101.185 131.426 90.594 125.931 90.594 125.931 109.901 131.575 109.901 131.575 99.254 139.462 109.848 145.139 109.848"/>
  <polygon points="35.366 109.848 29.616 94.277 29.616 109.901 26.744 109.901 26.744 90.594 30.667 90.594 36.772 106.556 42.602 90.594 46.525 90.594 46.525 109.901 43.653 109.901 43.653 94.277 37.758 109.848"/>
  <polygon points="3.871 107.772 3.871 104.671 8.974 104.671 8.673 103.66 3.871 103.66 3.871 101.253 15.018 101.253 15.018 99.137 3.871 99.137 3.871 96.465 8.974 96.465 8.673 95.569 3.871 95.569 3.871 92.657 15.525 92.657 15.29 90.541 1 90.541 1 109.848 1.432 109.913 16.279 109.913 16.279 107.772"/>
  <path d="M173.378 103.663c-.39 2.14-1.33 3.822-2.823 5.046-1.53 1.254-3.408 1.88-5.635 1.88-5.917 0-9.273-4.168-9.273-10.017 0-3.922 1.56-7.304 4.425-8.99 1.45-.855 3.113-1.174 4.867-1.174 4.855 0 7.062 2.686 7.822 5.747l-2.448.51c-.345-1.4-.988-2.347-1.864-3.053-.876-.706-2.23-1.006-3.473-1.006-1.877 0-3.402.55-4.575 1.825-1.173 1.274-2.17 3.29-2.17 6.048 0 4.997 2.605 7.785 6.538 7.785 1.462 0 2.956-.668 3.936-1.518s1.565-1.588 1.964-3.417l2.708.333z"/>
</svg>
