<!--
  SVG Music Logos
  Alexi Laiho - Greeny Skull v1.0.0
  https://github.com/tiagoporto/svg-music-logos
  Copyright (c) 2016 Tiago Porto (http://tiagoporto.com)
-->
<svg xmlns="http://www.w3.org/2000/svg" version="1.1" viewBox="0 0 710 800">
  <g fill="#b0db45">
    <path d="M694.516,465.437c-2.506.239-2.189-6.966-6.313-12.121-2.005-2.506-15.182-8.777-17.172-7.583s-12.738,2.786-15.922,3.184-12.34,4.777-12.34,7.961-2.388,8.757-5.573,11.543c-3.184,2.786-8.757,7.961-5.971,16.32,1.99-4.777.796-8.757,4.777-9.553s9.553-3.582,10.349-6.369-1.99-8.757,2.786-9.155,16.718-1.194,20.301.796,13.136,5.175,15.922,9.553,1.194,15.922,0,18.31-13.136,4.379-14.33,8.757c5.175-.398,17.116-1.99,19.504,0,2.388,1.99,0,9.951,2.786,11.942,2.786,1.99,9.553,7.563,9.553,10.349s-1.194,21.495-3.184,21.893-7.165-3.184-5.971-6.369,2.786-11.942,1.99-13.932-5.971-2.388-7.563-4.379c6.175,8.233,4.379,22.291-9.255,25.027-11.624,2.333-18.624,1.331-30.55-2.339,4.777,5.175,9.155,7.563,15.126,9.155s.398,5.971-6.767,5.573-17.912,2.439-21.893.025-13.534-3.21-16.32-2.812c5.573-3.184,7.563-4.379,7.961-6.369s-1.99-13.136,3.981-14.33c5.971-1.194,30.65-4.777,34.63-21.893-9.553,7.961-23.883,12.34-29.456,12.34s-7.563.398-12.34-5.971-11.543-8.359-10.747-17.514,7.563-13.136,10.747-21.097c3.184-7.961,1.194-14.728,6.369-22.291,5.175-7.563,9.155-6.203,17.912-8.475s12.738-8.243,18.31-8.641,14.728,3.184,19.504,5.573,11.543,8.757,12.34,11.145.995,11.344-3.184,11.743Z"/>
    <path d="M576.195,193.07c-1.791-9.852,1.997-41.839-5.871-58.613-9.056-19.305-40.701-60.504-55.031-76.625-14.33-16.121-60.006-25.973-81.501-35.825-21.495-9.852-39.325-9.506-58.215-9.852-81.501-1.493-131.954,22.689-152.254,33.138-20.301,10.449-67.171,71.052-72.246,86.875s-2.09,28.66-2.09,44.781-10.449,47.468-8.956,69.858c1.493,22.39,15.823,53.737,15.524,82.695-.299,28.958-17.315,51.647-19.699,63.589-2.383,11.941,8.354,42.99,15.818,46.87,7.463,3.881,13.136-.299,15.823,2.09,2.687,2.388-3.041,18.897,2.035,20.39,5.075,1.493,7.817-1.582,11.101-1.582s11.942,3.881,17.017,3.284,4.777-9.553,12.24-10.15c7.463-.597,20.301,4.478,27.764,3.582,7.463-.896,11.613-12.606,18.211-9.553,5,2.314-3.184,8.857.597,15.524,1.48,2.61,8.135,6.643,7.762,12.932-.381,6.416-3.806,12.667-6.493,15.951-2.687,3.284-3.918,14.186-1.829,14.784s4.889-1.499,6.307-2.842c1.493,1.493-2.164,8.882-2.538,12.165-1.231,10.833.672,13.061,2.761,13.36s2.388-17.091,3.881-17.688c1.049-.42,7.463,8.21,9.553,15.225.944,3.168,6.126,2.818,7.548,2.071,2.572-1.35,3.397-5.357,1.558-6.997-1.343.075-2.314-1.169-4.216-.821,2.01-2.071,4.492-2.165,6.156-1.94,2.761.373.057,1.136.149,2.985.075,1.493,2.357.162,4.627.522,2.359.374,7.264,5.374,8.757,3.881,1.493-1.493-1.692-15.225,1.99-22.39,0,4.777,2.01,8.506,4.379,14.031,2.985,6.966,21.745,20.195,24.978,18.41,4.478-2.472,5.473-9.204,10.051-10.051,4.046-.749,7.662,3.085,7.762.299.371-10.398,2.488-25.575,2.488-25.575,1.99,4.478,2.289,10.15,2.016,15.051-.308,5.538.579,8.704.869,12.912.697,4.379,5.984,7.116,8.359,6.866,6.468-.681,4.379-6.269,8.757-7.065,3.438-.625,9.056,1.393,13.733,0,1.385-.413,1.661-3.933,2.388-10.847.775-7.371,1.962-19.714,2.886-24.182.503,4.524.458,16.869.597,26.57.109,7.582-1.592,13.434,2.388,13.434,4.913,0,6.25-1.779,9.323-5.532,1.941-2.371,3.216-4.618,6.798-4.518,6.966.194,3.69,4.023,5.374,5.057,2.786,1.71,3.6-1.186,5.374-1.574,3.184-.697,5.374,0,7.165-.896s2.049-3.836,1.893-8.055c-.149-4.03,1.743-8.838,2.958-8.812,1.674.035,1.642,2.612,1.194,7.09-.597,5.971-.672,7.339-2.463,10.772,2.09.902,8.803,2.049,11.344.803,3.209-1.574,4.105-9.41,8.276-9.63,1.64-.086,2.459,2.783,3.218,5.071s1.418,3.757,3.334,3.757c2.788,0,2.345-17.083-1.791-19.704-2.562-1.624-4.777-3.682-5.851-9.11,5.672,7.72,4.856,2.841,7.841,6.921,1.194-6.767-2.786-13.534-5.175-18.708-2.388-5.175-2.388-15.922.796-19.749,3.184-3.827,11.528-1.187,19.091-1.983,7.563-.796,16.137-11.306,25.889-10.908,9.744.398,15.922,9.951,22.291,11.544s15.126,1.393,22.689-.597c7.563-1.99,5.549-11.544,5.971-20.5,30.327,13.136,27.913-58.961,23.585-71.351-1.265-3.62-4.132-7.294-6.667-12.638-2.218-4.675-3.625-12.757-3.383-18.907.796-20.301,13.733-64.683,16.917-83.392,1.828-10.741-2.09-56.125-3.881-65.977ZM541.525,251.086c.139-8.757,2.766-22.734,3.721-31.048,1.99-17.315-.627-24.33,1.245-30.745,3.247-11.132,9.365-11.249,12.687-8.314,3.85,3.402-3.314,11.076-5.304,15.853-1.99,4.777-3.055,12.558-1.463,16.937,1.592,4.379-3.493,13.734-2.587,16.42,1.574,4.669,3.753,11.999.27,15.739-2.595,2.786-5.246,7.547-3.654,12.722,1.592,5.175,4.71,16.718,4.744,25.077.022,5.476-8.425,28.461-8.724,40.999-3.184-10.349,2.786-29.058,2.786-36.621s-3.86-28.262-3.721-37.019ZM164.71,178.641c2.354-1.542,9.304,1.144,11.295,5.921,1.99,4.777-1.891,23.933-.299,27.913s-1.841,15.524.945,17.116c1.558.891,4.428,7.98,4.428,13.335,0,11.792-6.579,25.936-6.419,32.378.165,6.627-3.085,19.369,2.388,21.558,5.172,2.069,8.26-4.677,9.056-6.866,1.194,0,1.443,3.176,2.488,4.876s2.587,2.819,2.388,4.379c-.398,3.119-6.458,7.602-7.025,10.548-1.145,5.936-1.384,11.145-6.608,17.315.356-7.473-.996-17.826-3.085-21.097-3.781-5.921-4.379-12.638-4.08-18.907.299-6.269-1.493-10.897,0-18.397,1.502-7.548,4.997-14.725,4.102-22.487-.896-7.762-4.75-5.222-4.848-7.33-.246-5.31,1.08-6.288,1.511-9.124.677-4.45,1.126-8.943.728-10.729-.635-2.849-1.466-3.944-1.493-8.658-.033-5.835,1.275-14.473,0-18.509-1.791-5.672-11.245-9.454-5.473-13.235ZM179.438,426.378c.697-6.518.964-8.769,0-12.19-.71-2.521-4.107-1.266-5.573-2.786-3.454-3.582-6.667-4.578-6.204-13.832.463-9.255-4.141-17.78-4.258-23.452-.117-5.672-6.206-8.627-6.803-15.208-.597-6.581,3.433-22.241,4.03-28.809s-2.985-13.733-2.388-20.898c.597-7.165-2.09-12.24-4.18-19.405-2.015-6.907-4.337-16.441-4.627-28.063,2.318,4.515,3.987,5.683,4.329,5.772,1.325,7.307,4.47,21.229,5.075,22.589,1.194,2.687,4.777,8.359,4.062,11.643s1.61,17.315,1.312,20.97c-.299,3.654,2.483,10.825,2.483,16.198s-2.984,6.304-3.794,14.778c-.927,9.702,2.997,9.884,4.788,13.466,1.791,3.582,1.599,10.716,1.599,17.283s12.471,15.733,13.503,18.907c.906,2.786.204,6.67-.154,11.552-.209,2.852-.512,6.559-3.199,11.485ZM404.735,462.053c-1.592,14.33-15.126,14.728-23.087,14.33-7.961-.398-9.567-4.521-19.834-5.821-5.596-.708-17.267,7.148-25.942,5.908-8.956-1.28-16.93-6.003-17.116-18.795-.116-8.011,7.165-23.535,8.757-30.7,1.592-7.165.448-19.256-2.687-20.898,6.034-6.896,12.041-14.28,14.429-23.833,2.388-9.553,8.956-23.286,12.539-23.286s5.59,4.976,9.969,5.374,5.953-8.558,9.536-8.558c6.667,0,23.087,44.184,22.689,52.543-.398,8.359,12.34,39.407,10.747,53.737ZM506.873,395.626c-13.174,2.739-43.485,5.042-56.561-1.087-7.383-3.461-16.642-13.042-25.625-19.51-3.732-2.687-10.001-11.195-13.584-16.867-6.823-10.804-10.15-8.385-8.956-2.402,1.194,5.984,12.184,20.622,16.065,33.757,1.766,5.978,14.378,10.241,19.759,12.828,15.524,7.463,21.495,17.912,31.645,22.092,5.004,2.061,13.344,5.806,20.599,6.419,7.662.647,12.096,1.28,12.24,2.538.299,2.614-16.265,1.752-26.868,0-17.166-2.836-26.567-19.648-37.317-23.584-10.598-3.881-21.793-5.672-33.398-27.167-4.899-9.075-11.681-42.094-12.278-56.274-.302-7.183-14.242-18.454-26.781-19.648-12.539-1.194-29.046,15.468-31.285,21.738-2.223,6.223-1.194,17.763-2.388,27.913-1.194,10.15-9.553,33.586-25.525,43.587-4.984,3.121-31.048,14.628-35.227,20.002-8.554,10.998-35.334,16.984-58.961,11.195,15.524-2.573,23.734-1.642,33.884-6.419,10.15-4.777,26.658-17.599,34.42-20.585,7.762-2.985,28.87-12.852,32.154-25.838,2.96-11.707,10.3-32.541,8.508-34.332-2.757-2.757-4.478,13.733-14.628,22.689-2.269,2.002-15.307,11.653-22.241,16.569-9.242,6.551-19.513,9.821-23.883,11.3-15.309,5.18-51.349,7.011-58.713,1.04-12.251-9.933-24.48-24.679-23.087-27.864,1.436-3.282,2.727-8.359,5.115-29.854,2.388-21.495,12.2-40.004,22.35-41.198,10.15-1.194,21.893-.398,26.669-2.189s8.16-4.777,14.99-4.814c2.256-.012,9.882,2.423,15.511,2.824,3.435.244,7.897-.217,9.255-.896,3.582-1.791-8.508-6.866-12.091-10.449-3.582-3.582-13.136-18.36-17.912-18.957,16.718,2.388,21.345,13.882,29.705,16.569,7.477,2.403,24.779,6.717,32.988,14.927,3.297,3.297-2.023,14.258.597,16.121,6.717,4.777,23.286,5.971,28.063,4.18,4.777-1.791,23.122-13.136,27.682-19.704,4.56-6.568,10.531-192.856,10.531-192.856,2.985,22.689,0,186.288,2.388,196.438,1.145,4.868,8.765,5.598,15.524,9.852,7.335,4.616,8.359,8.857,17.315,9.056,15.127.336,7.165-24.281,15.524-27.864,4.562-1.955,14.421-8.644,25.077-15.225,10.15-6.269,30.152-9.852,31.496-8.658s-5.374,4.627-11.498,7.083c-8.455,3.39-12.833,9.237-14.624,13.815-1.087,2.778.896,3.383,10.051,2.786,7.823-.51,19.842,1.172,28.759,2.587,18.808,2.985,32.14,9.553,41.147,21.495,0,11.942-1.843,20.898,0,30.451,1.843,9.553,5.73,19.899,4.231,26.271-1.592,6.767-22.432,24.377-30.811,26.12ZM567.836,284.423c.299,2.388-4.478,17.614-4.777,22.39s-5.851,23.883-4.866,29.854,3.672,21.495,2.776,28.063c-.896,6.568-4.777,8.061-5.971,11.046-1.194,2.985-6.103,15.225-5.141,22.39.962,7.165-3.815,13.136-6.8,14.33-2.985,1.194-7.563,7.264-7.364,16.917-4.379-9.951-1.592-20.301,1.99-26.271,3.582-5.971,9.951-10.747,10.349-15.922s-.73-11.145,1.824-15.524c2.554-4.379,4.544-8.385,4.942-15.935s-3.383-13.123-2.189-19.392c1.194-6.269,6.687-11.344,5.583-24.48-1.105-13.136.806-13.434,0-15.225,3.97,1.194,4.568-1.493,5.165-5.374.597-3.881,4.478-26.868,9.852-24.779-2.985,4.03-5.672,15.524-5.374,17.912Z"/>
    <path d="M413.6,648.229c3.975.198,29.828,12.944,46.15,24.2,16.321,11.256,46.15,33.205,57.406,34.894,11.256,1.688,51.778,0,59.094,2.814s7.316,11.819,10.13,14.633-.93,28.656-5.707,27.064c-4.777-1.592-3.184-20.301-3.582-23.485-.398-3.184-3.582-8.757-9.553-9.155s-17.116,1.194-22.291,1.99,0,4.379,5.175,4.379,9.553-1.194,12.34,0,6.369,8.757,8.359,12.34c1.99,3.582,1.592,9.553,0,11.145s-4.379,7.961-5.573,11.145-17.514-.398-22.291,0-16.718-5.175-17.514-8.757-4.777-7.165-5.573-12.34c-.796,6.369.796,9.951.398,12.34s7.563,7.961,12.738,12.34,15.126,6.767,15.524,11.145-1.592,6.767-4.379,6.767-9.553,1.592-10.747,3.981-10.349-1.592-14.33-6.767c-3.981-5.175-5.971-16.32-8.757-17.514s-5.573-1.592-7.961-3.582-2.769-10.349-2.18-14.33-18.916-16.32-21.305-17.116,3.582,5.971,7.563,8.757,9.553,11.942,9.553,14.33-14.33-1.194-21.893-8.757c-7.563-7.563-53.339-38.611-58.115-40.203s-49.358-21.495-53.737-25.077-3.582-6.369,0-6.369,15.922-8.757,20.301-8.359,17.514,8.757,21.893,9.951c4.379,1.194,27.466,14.728,34.232,20.301,6.767,5.573,30.252,22.491,38.611,26.372,8.359,3.88,24.281,7.065,26.271,5.472,1.99-1.592-12.738-3.582-23.087-10.747-10.349-7.165-27.466-27.864-33.038-31.048-5.573-3.184-43.388-22.689-48.164-23.883s3.799-9.379,14.04-8.869Z"/>
    <path d="M621.673,525.741c2.388,1.99-.398,5.971-5.971,5.175s-29.854,11.942-39.407,17.116c-9.553,5.175-47.766,25.077-52.941,25.873s-17.912,6.767-21.893,9.155-27.466,17.912-34.232,20.301-13.932,8.359-21.495,11.145c-7.563,2.786-29.854,13.136-31.446,14.728s9.553-1.592,15.524-4.379c5.971-2.786,38.712-16.718,43.637-17.912,4.925-1.194,22.439-13.534,25.226-15.126,2.786-1.592,44.98-19.903,49.358-21.495s32.459-17.912,39.316-19.106c6.857-1.194,21.457-11.465,25.104-12.698s2.552-1.831,4.642-1.234c2.09.597-3.015,4.478-4.642,5.672s-4.613,7.762-7.598,10.15-9.553,4.777-14.628,5.971-10.449,5.374-15.225,7.463-15.524,5.374-20.599,8.061-17.017,12.24-22.689,13.136-16.718,0-22.092,2.985-4.18,5.075-8.061,7.762c-3.881,2.687-19.704,12.24-25.674,14.031-5.971,1.791-28.958,11.046-34.332,13.434-5.374,2.388-24.182,11.942-30.451,12.539s-24.779,11.046-30.152,13.733c-5.374,2.687-81.799,42.094-91.054,45.378-9.255,3.284-28.063,21.793-36.72,25.973s-18.808,5.224-24.779,10.449c-3.813,3.336-13.136,11.942-16.121,17.614-1.674,3.181-6.866,4.777-9.055,14.56-.729,3.257-1.593,14.099-4.877,16.189s-6.966,2.018-9.653,3.994-9.553,4.813-11.344,3.917-2.09-6.419-.597-6.717,6.269-3.284,9.255-5.672,6.568-10.747,8.658-12.837,9.553-17.017,7.762-20.898-4.777,2.687-4.777,6.269-8.359,16.121-10.15,19.405-7.245,10.15-11.981,10.747-10.11-1.194-13.096-4.478-9.553-3.433-8.658-11.344c.287-2.535,5.374-4.478,6.568-3.284s1.343,6.792,3.433,7.389c3.209-.672,17.464-11.568,21.644-11.867-4.777-1.791-18.653.844-20.32-1.578-2.27-3.298,1.419-13.28,2.016-14.773s5.328-1.84,4.433-3.631-8.221.776-8.52,3.861c-.209,2.163-1.592,6.269-3.284,8.061-1.025,1.085-1.493,4.478-3.582,5.374s-5.971,4.777-9.255,1.493c-3.284-3.284-7.762-25.077-5.672-29.854s-3.274-7.165-5.369-5.075-3.886,8.359-2.393,10.747,1.801,5.374,2.393,8.359-2.692,5.075-5.379,2.09-4.716-12.977-4.119-17.156,14.269-23.445,19.344-24.34,12.154,3.59,15.424,3.881c10.051.896,19.903-3.383,29.953-.896,3.392.84,18.808,12.539,20.301,11.942s.094-7.842,2.497-7.976c12.439-.697,30.043-7.846,33.327-8.145s20.599-3.881,26.271-8.061c5.672-4.18,40.004-25.077,45.378-26.57,5.374-1.493,15.799-5.455,26.57-10.15,11.3-4.926,39.407-20.301,45.378-21.495,3.233-.647,12.24-4.777,10.449-6.568s-11.046-2.687-15.225,0c-4.18,2.687-36.422,18.211-44.482,20.002-8.061,1.791-26.868,11.344-31.645,13.434s-15.524,5.971-20.301,9.255-11.344,13.136-17.315,14.628c-5.971,1.493-19.106,1.194-25.077,2.985s-14.449,10.03-25.077,10.449c-8.847.348-18.509.597-18.211-.896s15.524-8.956,23.286-12.539c7.762-3.582,55.827-26.868,68.664-32.541,12.837-5.672,64.186-29.854,79.411-36.72,15.225-6.866,84.785-42.691,93.741-44.781s37.914-19.405,48.96-23.585c11.046-4.18,57.319-30.152,60.305-31.944s14.628-11.942,16.121-10.449.896,8.359-2.687,10.15-9.255,6.568-13.136,8.658-21.196,11.942-21.196,13.136,5.672,1.493,8.061,0,11.683-7.463,17.335-9.553c5.652-2.09,10.524-6.549,13.116-8.061,3.582-2.09,11.046-1.791,13.733-1.194s12.041,8.757,12.041,8.757Z"/>
    <path d="M342.639,618.885c-1.66,1.522-13.136,4.777-17.514,2.388s-8.757-6.767-12.34-6.767-10.349-.796-13.932-3.981-19.504-4.379-25.077-9.553c1.99,5.175,9.752,7.793,14.529,9.155s8.956,7.961,11.743,8.757c2.786.796,8.359,2.388,10.349,5.573s7.755,1.592,8.256,3.981-7.858,3.981-10.445,5.971-3.383,9.553-8.956,8.359c-5.573-1.194-36.223-17.514-46.97-23.485-10.747-5.971-35.427-14.728-46.97-22.689-11.543-7.961-34.232-22.689-44.184-26.669-9.951-3.981-23.286-12.121-30.451-13.713s-38.014-15.344-39.208-21.713c-1.194-6.369,5.573-3.582,9.155,0,3.582,3.582,15.126,9.553,19.106,11.543s16.32,2.786,19.106,4.379,3.981,0,7.563.398c3.582.398-1.592-5.175-7.961-5.573-6.369-.398-18.708-3.504-20.699-6.727s-13.534-9.991-17.912-11.583-9.832-3.582-8.499-7.165c1.334-3.582,8.1-4.379,9.295-9.155-6.369,1.592-12.34,1.194-14.33,3.981s-14.927,12.738-19.305,17.116-4.578,8.558-21.296,9.553c-7.196.428-21.097-11.145-21.893-18.708s9.553-5.175,13.534-5.175,5.573-.398,11.942-3.582,10.349-17.514,14.33-19.903c-5.573,1.592-9.553,9.553-13.932,11.543s-11.145,3.184-14.728,2.388c-3.582-.796-6.767-5.971-9.553-6.369s-5.971-6.767-3.582-7.563c2.388-.796,17.116,1.194,19.903,0s-.796-5.175-5.573-5.971-16.32-5.175-18.31-8.359-10.349-6.767-9.553-11.543-3.981-19.106,1.592-21.495c5.573-2.388,11.942-9.103,19.903-10.522,7.961-1.419,35.834,3.063,40.601,2.561,7.563-.796,11.145,1.194,13.136,5.971,1.99,4.777,11.942,20.301,18.31,27.466,6.369,7.165,6.767,13.932,10.747,15.922-6.767-.398-13.534-5.971-17.514-7.961-3.981-1.99-13.136-3.184-15.126-6.767s.398-10.15-1.99-12.738c-1.35-1.462-4.777-10.349-7.961-11.942s-12.738,2.388-16.718,1.194c4.379,3.184,8.757-.398,11.942,2.786s4.379,7.563,5.971,11.145.398,10.938,4.777,12.833,7.961,2.691,14.728,5.477,16.32,10.349,21.495,12.34,21.097,26.669,29.854,31.446c8.757,4.777,27.111,10.816,32.861,13.568,5.75,2.752,23.264,11.509,28.439,15.49,5.175,3.981,28.262,18.708,31.446,18.708s-5.175-4.379-9.951-7.563-18.708-13.136-29.058-18.708c-10.349-5.573-32.242-14.728-37.019-17.912s-19.504-17.912-18.708-19.903,7.563,2.786,13.534,6.767c5.971,3.981,23.485,15.524,42.591,25.077,19.106,9.553,34.583,18.831,45.776,23.087,14.131,5.374,22.888,14.529,42.591,21.893,14.886,5.564,22.291,12.34,27.067,15.126s35.825,13.136,31.048,17.514Z"/>
    <path d="M376.473,536.091c2.341.475,9.354,3.218,10.15,7.961.951,5.663,1.313,15.327,1.194,18.609-.149,4.128-5.075,9.255-10.15,9.852-5.075.597-11.245-1.493-12.439-3.582s-2.505-20.004-.299-25.376c2.522-3.445,8.16-6.205,11.543-7.463Z"/>
    <path d="M346.022,533.702c3.881-.107,12.956,8.558,13.036,10.349s.202,22.33-.578,24.281c-1.313,3.284-8.37,4.122-12.251,4.028-3.881-.093-13.642-3.133-13.642-7.909s1.791-19.704,2.985-22.39,6.855-8.26,10.449-8.359Z"/>
    <path d="M310.795,533.701c3.781,2.39,13.928,6.272,15.421,9.854s1.991,12.603,1.394,17.925c-.202,1.805-6.166,3.967-9.717,3.967-2.484,0-9.187-2.488-9.486-4.578s-1.493-24.782,2.388-27.169Z"/>
    <path d="M409.312,531.911c1.681-.619,4.777,8.459,5.075,11.444s-.896,16.42-2.985,19.007c-1.094,1.354-9.553,5.971-12.837,3.881s-5.075-16.121-3.582-19.704c1.493-3.582,8.061-12.321,14.33-14.628Z"/>
    <path d="M425.997,533.845c3.74.196,7.509,1.251,7.808,4.535.146,1.603.357,14.125-1.405,23.485-.767,4.073-2.462,6.828-3.781,9.653-1.859,3.982-2.886,7.264-4.08,7.264-1.832-1.433-.074-9.061-1.095-10.15-2.26-2.412-6.369-6.966-6.07-9.653.299-2.687.995-18.808.597-22.291-.176-1.537,5.459-2.977,8.027-2.843Z"/>
    <path d="M438.531,537.349c.039-.606,2.18-1.669,3.844-.661,1.173.711,2.746,2.773,2.911,4.254.398,3.582-.075,7.613-.746,9.877-.344,1.161-3.259,5.49-5.573,5.393-1.404-.059-.834-12.708-.436-18.862Z"/>
    <path d="M449.624,528.777c1.259,0,2.354.039,2.354,2.429,0,1.602.284,6.956-.423,10.781-.348,1.881-1.367,2.75-2.04,3.259-.794.6-3.275-16.469.109-16.469Z"/>
    <path d="M289.411,536.742c3.582.781,10.04-.572,12.03,1.777s1.644,13.539,1.194,15.788c-1.095,5.469-3.648,8.611-4.976,11.937-.632,1.582-1.791,6.568-2.595,11.555-.966-1.331-3.37-7.084-5.288-13.309-.976-3.167-2.367-4.99-2.367-7.077,0-9.679.028-21.101,2.001-20.671Z"/>
    <path d="M278.387,535.917c.883-.117,5.937.441,5.539,3.392s.867,12.007.237,13.201-3.286,3.657-4.019,3.701c-1.07.064-2.732-6.977-2.786-9.174-.051-2.065-.603-8.679,1.029-11.12Z"/>
    <path d="M269.597,528.13c1.44-1.137,4.18,4.578,4.18,6.966s-.597,13.534-2.09,13.534c-.704,0-2.761-3.732-3.135-6.642-.642-5.009-.953-12.279,1.045-13.857Z"/>
  </g>
</svg>
