<svg xmlns="http://www.w3.org/2000/svg" xml:space="preserve" width="813.358" height="154.217" overflow="visible">
  <path fill-rule="evenodd" d="M767.063 81.93c.604 1.706 1.303 2.836 2.302 2.159 3.716-2.854 7.432-5.711 11.146-8.568 3.805-1.874 7.246-3.363 9.067-1.937 1.542.81.819 5.631-.224 11.024-.075.698.446.698 1.562 0 4.928-3.576 9.857-7.148 14.788-10.724 6.303-3.384 7.18-1.172 6.538 2.606-.609 5.714-.852 11.69-.073 18.399.1 1.988 1.09 3.227 1.189 5.065-1.479 1.793-4.662 3.743-8.324 5.738-2.514.88-2.911-1.305-1.857-5.589l.743-12.587c.08-5.435-1.69-7.235-6.168-3.726-1.748 1.458-3.555 2.889-5.238 4.378-2.217 1.965-2.835 2.407-3.056 5.285-.108 1.399-.219 2.795-.326 4.193-.062 1.745.473 4.145-1.053 5.327-1.034.81-2.705 1.542-3.777 2.345-3.735 2.376-4.137-.084-3.527-4.016.328-2.121.566-3.917.593-6.08.037-3.165.073-6.332.112-9.497-.026-3.876-1.438-4.968-4.237-3.279-3.015 1.741-5.88 3.921-8.694 6.258-.917.796-1.338 2.285-1.265 4.47.051 1.737.1 3.478.148 5.215.11 4.274-2.206 4.557-5.571 7.079-4.509 2.889-4.236-2.896-2.751-5.516.175-4.271.348-8.54.521-12.814-.049-2.285-.594-4.071-1.635-5.362-1.659-2.023-2.205-3.862-.297-5.289l7.356-3.873c1.944-.324 3.208.345 2.972 3.203-.88 2.265-1.077 4.25-.964 6.113zm-23.98-1.626c1.547 1.783 2.44 5.097 3.468 9.521.402 2.707-.146 5.166-1.284 7.479-1.706 3.478-3.133 5.885-7.231 5.944-4.59.063-8.111-3.412-8.724-9.175.204-7.822 2.184-13.404 6.634-15.87 3.073-1.702 4.402-1.046 7.137 2.101zm-13.028-3.07c4.298-3.245 8.875-5.076 13.97-5.139 6.149-.415 9.061 4.49 9.959 14.824.173 6.161-2.429 11.921-7.805 17.286-5.598 4.737-11.913 5.065-19.097.073-5.648-4.811-7.703-10.166-5.425-16.166 1.401-3.97 4.227-7.693 8.398-10.878zm-30.163 1.155c-5.365.202-7.921 3.011-9.198 7.008-1.169 5.547 2.008 10.843 9.198 13.578 6.816 1.779 11.58.959 11.826-5.582 1.051-6.244-5.064-15.042-11.826-15.004zm.777-4.005c-5.7.565-10.907 3.108-15.519 8.031-5.537 5.896-4.187 14.271 1.771 20.146 8.713 7.212 16.515 7.351 23.412.408 6.037-6.765 9.35-13.295 6.67-19.33-3.176-8.848-12.613-19.059-18.92-28.586-7.285-9.437-10.144-17.517-3.268-22.598 1.564-.847-1.307-2.753-3.676-.952-4.221 3.948-7.078 8.803-6.942 15.655-.868 4.186 1.806 10.033 6.844 15.824 3.18 3.657 6.512 7.516 9.628 11.402zm-41.412 6.398c3.605-3.674 6.172-2.993 8.452-1.096 3.284 3.879 4.038 8.349 3.875 13.023-.551 4.001-2.04 7.846-5.667 9.873-2.685 1.5-5.367.963-8.052-3.311-4.46-6.763-5.014-13.05 1.392-18.489zm-11.518 4.647c-.387 1.033-.584 2.198-.606 3.482-.084 4.775 1.552 8.003 4.252 11.715 1.384 1.901 2.899 3.803 4.492 5.704 3.413 3.91 8.416 3.313 15.012-1.79 3.479-3.199 6.295-7.309 7.654-13.417 1.416-5.886 1.003-11.119-2.088-15.41-2.65-3.513-7.19-4.542-12.227-2.488-5.005 1.351-14.484 6.856-16.489 12.204zM583.902 19.58l11.185-8.411c4.467-2.276 8.005-1.029 11.123 1.819l14.259 11.53c.509.736.362 1.366-.403 1.92l-19.618 16.38c-3.035 1.992-6.474 3.845-10.316 5.564-1.587.691-2.441.167-2.224-2.121.446-9.308-1.036-17.528-4.446-24.664-.631-1.318-.744-1.126.44-2.017zm-23.671 70.454C568.4 85.028 574.617 79 579.268 72.151c2.412-3.555 3.796-7.148 5.519-10.888 2.912-6.321 10.738-7.762 20.48-7.773 16.561-.296 26.42 4.169 31.694 11.565 4.452 6.171 4.291 15.623-1.563 25.341-2.221 3.688-3.098 4.721-7.262 5.715-8.832 2.114-19.715 1.72-31.823-.171-12.263-1.905-24.142-3.426-35.636-4.563-.606-.021-2.192-.251-.446-1.343zm-14.542 9.472a100.343 100.343 0 0 0 6.363 9.817c.57.687-.776 1.405-2.601-.649a58.359 58.359 0 0 1-6.927-8.955c-10.693.966-15.504 4.061-21.032 6.9.59-7.961 8.415-10.41 17.689-12.939-2.09-4.309-3.951-9.318-5.507-15.256-3.813-14.555-4.399-27.41-.115-42.012 1.806-6.158 4.438-11.689 8.253-16.319 6.168-8.277 14.138-12.465 22.354-11.872 7.324.527 11.781 4.075 15.446 8.771l.397-.246 17.077-13.44c3.077-1.969 6.585-2.343 10.422-1.491 6.854 1.517 10.594 5.477 16.034 9.116 5.012 3.351 10.534 4.685 15.261.495 1.704-1.519 3.224 1.09.839 3.36-10.639 9.613-21.277 19.227-31.916 28.836 10.079-1.288 20.158-.774 30.236 6.161 11.574 8.212 12.132 29.958 0 45.915-5.54 7.298-15.442 8.76-21.176 9.157-14.943 1.044-29.2-1.664-43.917-3.631-11.872-1.592-20.543-2.025-27.18-1.718zm25.422-73.278c-3.58-8.139-9.64-11.347-20.36-6.353-6.405 2.679-11.029 8.807-13.871 18.192-4.798 15.853-3.399 31.607 2.189 47.086a91.693 91.693 0 0 0 3.18 7.689c7.53-2.065 15.127-5.007 20.82-10.696 15.122-17.887 17.388-35.7 8.069-55.938-.009.005-.018.014-.027.02zm-84.297 40.631c-.079-5.994.188-12.235 1.684-19.355 2.309-8.181 6.441-8.956 8.249-5.219.702 2.7.831 5.453.506 7.975-1.012 7.902-5.891 13.843-10.439 16.599zm-9.914 7.829c.854-10.368 2.283-19.844 5.381-27.072 1.512-3.53 3.597-6.353 5.873-8.815 6.356-6.484 18.575-4.38 18.048 6.583-.654 9.238-7.53 18.671-18.941 26.074 0 1.343-.094 2.295-.094 3.642 3.469 0 6.862.15 10.33.15 2.917.338 2.894 5.045 1.062 5.383h-9.815c-1.115 0-1.013-.112-1.033 1.175-.406 24.037-1.851 47.684-6.382 70.168-.766 3.806-3.22 2.399-3.155-1.483l-1.04-68.405c-.028-1.908-.028-1.235-1.856-1.587-1.88-.356-3.778-.146-5.386-.506-1.755-1.333-1.326-4.103 1.062-4.458 1.981-.285 3.964-.567 5.946-.849zM373.58 31.89c-11.86 23.98-5.025 38.336 5.796 49.374 18.633 17.691 47.134 21.688 71.962 5.396 9.496-7.12 15.061-18.779 15.427-30.714.401-13.083-5.186-23.414-15.165-31.402-8.706-6.965-19.333-10.876-31.044-12.842-21.298-4.097-38.6 8.438-36.043 19.915.813 3.825 5.594 6.15 11.839 11.069 7.119 5.606 10.698 15.514-2.983 26.985 4.106-7.49 5.072-13.407-.6-16.791-13.792-6.88-17.458-15.978-14.192-26.586 5.191-13.794 23.754-23.729 37.78-24.387 29.835-2.118 48.191 13.708 54.17 35.78 4.434 23.988-2.496 39.914-14.591 52.173-15.334 15.34-32.708 20.771-51.773 17.988-23.339-3.077-37.095-16.642-43.375-38.375-2.407-16.603.739-29.577 10.593-38.181 2.495-2.282 2.902-.777 2.199.598zm-67.645 45.871c-2.704 1.381-.942 3.548 1.455 5.826-.073 5.345-.15 10.686-.223 16.027-1.643 6.576-.598 8.815 3.138 6.726 3.478-1.765 6.833-3.537 6.388-5.606-1.047-2.651-1.27-6.126-1.122-9.97 3.663-3.074 7.323-5.823 10.986-7.4 3.595-1.884 3.778 1.748 3.475 6.165-.487 4.448-.974 8.893-1.458 13.337-.596 3.475.599 4.706 3.586 3.698 4.229-1.832 7.932-3.663 7.958-5.491-1.606-3.199-3.127-6.514-2.018-13.337l.785-9.751c.094-4.445-1.772-6.465-7.956-3.14l-15.581 11.544c.224-3.733.45-7.473.673-11.206-.896-2.655-2.093-3.363-3.586-2.128-2.3 1.437-4.503 2.968-6.5 4.706zm-26.378 13.442c-1.027-1.79-1.188-3.964-.943-5.75.43-3.123 2.657-5.065 5.836-5.237 1.168-.063 2.424.147 3.764.628 2.583 1.378 2.646 4.65-.466 6.105-2.625 1.288-5.564 2.963-8.191 4.254zm1.235 3.865a71505.15 71505.15 0 0 1 22.494-12.137c.387-1.162-.72-2.167-1.856-2.086-2.784.258-4.535-.928-5.257-3.555-3.44-2.013-5.303-3.593-9.442-2.882-3.814.656-6.972 2.843-9.958 5.432-2.234 2.093-3.586 4.27-4.792 6.569-.901 3.569-.819 6.811.038 9.817 1.802 6.332 6.458 11.997 13.604 11.61 4.387-.237 8.886-2.875 13.721-6.974 2.345-2.111 1.441-4.766-1.082-3.015-6.983 5.162-12.959 5.047-17.47-2.779zm-39.696-11.76c1.038 1.004 1.766 2.63 2.187 4.877l-.673 13.11c-.57.955-.1 2.152-.735 2.867-1.047 1.18-1.764 2.966.298 3.823 1.613.67 3.374.115 5.049-.107 4.291-.569 8.582-1.138 12.873-1.71 1.558-1.154.384-3.701-.504-3.694-5.011.932-8.604.317-9.078-3.701-1.008-7.341 1.793-12.44 8.406-15.298 3.194-.729 6.599 1.915 4.203 5.885l-4.036 3.025c-.716.966-.429 2.627.168 3.362 4.259-.729 7.621-3.697 10.087-8.909 1.087-2.488 1.086-5.394-.505-8.91-2.614-4.682-5.937-4.12-9.583-1.179l-8.574 7.734.168-7.898c-.133-2.111-2.431-2.055-6.893.164-2.983 1.375-4.519 2.71-4.608 4.012-.059.865.525 1.717 1.75 2.547zm-74.225-26.566c2.669 0 4.846 2.111 4.846 4.703 0 2.589-2.177 4.703-4.846 4.703-2.671 0-4.847-2.114-4.847-4.703 0-2.592 2.176-4.703 4.847-4.703zm2.733 17.272c-3.133 1.57-6.078 3.904-9.211 5.474-2.049.768-1.793 2.557.767 5.373.64 1.406 1.024 3.454 1.151 6.144-.192 4.542-.383 9.085-.576 13.627-.67 3.038.065 4.416 2.208 4.127 2.688-1.686 5.759-4.138 8.637-6.206.661-.479.728-1.801-.19-1.661-1.484.108-2.164-1.36-2.305-3.551v-17.95c.464-1.759.336-4.128-.481-5.377zm-39.819 5.23c-1.158-11.492-.265-21.113 2.528-27.721 3.608-8.973 11.296-10.993 14.208-4.357 4.018 9.586-3.028 21.238-16.736 32.078zm-8.051 22.052.694-24.156c.281-9.821.754-18.448 5.88-27.292 3.422-5.899 8.194-9.957 14.609-11.764 6.781.447 14.571 4.93 9.75 18.999-5.067 10.431-14.41 21.267-22.863 26.225l.671 15.297c4.484-4.145 8.967-8.292 13.45-12.44 1.344-.394 2.745-.565 4.539.841 4.456 6.318 4.118 17.161.504 31.102-4.323 9.933-14.65 16.337-22.637 17.936-3.495.701-7.101-.545-10.312-1.022-1.458-.401-.626-1.919.504-1.615 6.393.708 12.825.739 19.669-6.221 4.378-6.437 8.193-13.326 8.07-23.367-.223-12.221-5.995-9.639-14.291-.335-8.652 10.521-9.035 5.291-8.237-2.188zM22.513 14.082C-.016 32.417-3.197 52.601 2.417 73.617c10.508 25.164 34.29 35.88 62.299 35.922 23.325-.216 39.569-7.814 46.726-18.085 2.042-4.012 1.998-13.668-.251-15.075-1.02-.583-1.94-.08-2.764 1.507-4.019 7.619-12.058 13.567-24.115 17.834-27.349 4.515-45.266-1.979-60.542-11.555C10.351 73.25 6.457 57.572 10.455 37.945 18.9 12.268 43.658 5.426 66.013 6.972c18.024 1.381 37.233 18.42 30.355 35.495C91.596 54.024 71.081 60.81 53.914 53.02c-13.735-8.603-12.814-25.041 0-29.393-6.279-4.688-16.182-1.417-19.635 8.27-4.295 13.158 7.784 26.063 29.432 27.905 20.935 3.182 40.026-8.042 42.958-23.11 1.75-16.455-9.078-29.981-22.107-33.663C65.228-2.964 41.258-.454 22.513 14.082zm191.685 18.961c-4.484 3.218-6.711 7.504-2.857 14.959 6.893 9.754 13.786 19.501 20.678 29.252 7.229 9.416 5.938 18.828-3.867 28.244-11.433 8.073-24.153.115-26.73-10.591-1.766-10.725 6.641-20.657 19.669-18.996-4.651-5.606-9.303-11.209-13.954-16.812-2.364-3.572-3.869-6.9-4.519-9.974-3.068 7.55-7.884 14.251-14.31 18.717l.336 34.126c2.231.286 4.808.397 7.733.335 1.527.51 1.882 3.102.672 3.865-5.324.499-10.647 1.322-15.971 2.861-2.974-.914-3.415-2.522-1.137-4.821.879-.894.31-2.505.97-3.754l.504-45.897c1.112-13.564 6.939-26.605 16.177-26.225 3.775-.319 7.419 2.833 7.73 8.81 1.274-1.593 2.943-3.072 5.009-4.438 3.561-2.583 4.933-.409 3.867.339zm-25.806 29.926c.243-6.936.262-13.948 2.042-20.371.748-2.697 2.727-10.307 5.953-9.827 3.514.523 2.91 5.85 2.849 8.387-.238 9.894-4.686 16.519-10.844 21.811zm36.734 18.49c5.042 3.754 8.629 10.927 5.715 15.971-3.334 5.415-12.243 5.586-19.165-2.016-7.629-8.537-.29-19.268 13.45-13.955z" clip-rule="evenodd"/>
</svg>
