<!--
  SVG Music Logos
  Foo Fighters - Echoes, Silence, Patience & Grace v1.0.0
  https://github.com/tiagoporto/svg-music-logos
  Copyright (c) 2016-2018 Tiago Porto (http://tiagoporto.com)
-->
<svg xmlns="http://www.w3.org/2000/svg" viewBox="0 0 200 178">
  <path d="M198 59.504c-1.158 3.451-2.349 6.891-3.466 10.355-2.427 7.523-4.809 15.059-7.223 22.586-2.566 8.004-5.254 15.972-7.662 24.023-.78 2.61-.809 5.44-1.241 8.159-1.866 11.743-5.21 22.947-11.836 32.997-6.409 9.721-15.344 15.342-26.825 17.155-9.849 1.555-19.621 1.193-29.382-.619-7.205-1.338-14.187-3.381-20.817-6.543-5.785-2.759-11.043-6.28-15.758-10.643-4.31-3.988-7.872-8.541-10.603-13.715-2.917-5.526-4.792-11.422-5.378-17.655-.304-3.244-.316-6.519-.354-9.781-.012-1.019-.306-1.782-.947-2.536-6.899-8.11-14.36-15.687-21.933-23.157-7.502-7.4-15.063-14.741-22.511-22.194-3.246-3.249-6.279-6.711-9.4-10.085-.214-.231-.359-.527-.664-.984 3.325.051 6.322.783 9.215 1.75 11.48 3.835 22.919 7.789 34.37 11.709 1.611.552 3.203 1.159 5.103 1.537L31.338 35.7l.209-.333c12.738 6.288 25.144 13.218 37.947 20.031-2.955-12.846-6.515-25.331-8.578-38.211 10.14 10.434 20.288 20.812 29.738 32.302 1.407-12.292 1.881-24.428 4.101-36.454 6.984 12.468 13.372 25.206 20.673 37.432.136.184.226.375.37-.061.218-.658 1.873-5.755 2.753-8.649 3.936-12.949 7.851-25.904 11.769-38.859.063-.21.066-.438.097-.657h.999c.914 3.921 1.84 7.839 2.738 11.763 2.128 9.306 4.169 18.637 7.317 27.67 1.028 2.949 2.258 5.827 3.501 9.006 5.41-5.571 9.381-11.765 13.688-17.697 4.335-5.971 8.683-11.933 13.025-17.899l.369.152 5.723 56.142c.526-.324.725-.42.894-.554 5.026-3.989 10.037-7.998 15.081-11.963 1.364-1.073 2.83-2.016 4.249-3.019L198 59.504zm-7.31 9.005c-.489.345-.997.666-1.463 1.039-3.712 2.972-7.38 6.002-11.145 8.905-1.134.875-2.532 1.406-3.933 2.162-.351-1.178-.618-2.017-.852-2.865-1.618-5.856-1.992-11.866-2.12-17.893-.218-10.193.43-20.401-.544-30.58-.131-1.367-.373-2.724-.61-4.41-8.957 11.599-18.147 22.483-25.214 35.063-1.129-1.689-2.129-3.286-2.785-5.013-3.241-8.54-5.449-17.39-7.699-26.224-.906-3.556-1.798-7.115-2.765-10.943-.232.454-.352.631-.418.826-2.231 6.592-4.453 13.188-6.685 19.779-2.214 6.536-4.427 13.072-6.665 19.599-.608 1.772-1.15 1.904-2.283.453-1.256-1.608-2.553-3.237-3.479-5.038-4.593-8.933-9.07-17.926-13.589-26.898-.426-.845-.857-1.687-1.286-2.531-.375 1.666-.529 3.203-.673 4.741-.267 2.853-.613 5.702-.774 8.561a374.122 374.122 0 0 0-.498 12.927c-.056 2.6.109 5.205.108 7.807 0 .504-.224 1.418-.474 1.511s-1.025-.332-1.44-.633c-.532-.387-1-.881-1.431-1.384-5.791-6.762-11.551-13.551-17.367-20.292-1.861-2.157-3.865-4.192-5.803-6.283l-.106-.194c0 .035-.015.087.002.103.036.032.089.045.135.066.026.331.005.674.086.991 2.344 9.191 4.711 18.377 7.04 27.572.522 2.061.92 4.154 1.375 6.232l-.375.252C66.055 59.964 55.802 52.9 44.912 46.86l17.091 34.16-.356.325c-.72-.22-1.45-.411-2.158-.666-10.966-3.952-21.925-7.925-32.896-11.862-3.216-1.154-6.467-2.211-9.701-3.312l-.273-.115.3.086c.202.251.369.545.613.746 7.899 6.497 14.772 14.033 21.79 21.428 6.098 6.425 12.28 12.771 18.446 19.131 1.271 1.31 1.768 1.226 2.526-.394 1.852-3.956 3.806-7.873 5.445-11.916 3.229-7.967 8.514-14.174 15.607-18.904 10.29-6.862 21.792-9.791 34.005-10.067 5.298-.12 10.561.712 15.793 1.608 7.838 1.342 15.541 3.264 22.549 7.052 10.925 5.905 19.768 13.952 24.504 25.819.162.406.58.709.879 1.06.394-.353.832-.669 1.165-1.071.199-.24.236-.614.342-.93 2.538-7.55 5.09-15.095 7.605-22.653.872-2.619 1.65-5.269 2.471-7.905.045-.007.096-.004.132-.026.019-.011.014-.065.02-.099l-.121.154zm-23.595 29.606c.117.826.273 1.533.31 2.245.324 6.242.629 12.484.935 18.727.244 4.966.464 9.934.748 14.898.029.501.306 1.277.662 1.412.859.325 1.039-.481 1.257-1.128 1.022-3.042 2.089-6.068 3.092-9.115 2.379-7.223 2.175-14.379-.836-21.372-6.028-14.002-16.419-23.393-30.656-28.588-10.127-3.695-20.59-4.987-31.325-3.983-5.192.486-10.254 1.596-15.155 3.397-7.779 2.859-14.432 7.4-20.105 13.424-4.302 4.569-7.719 9.672-9.711 15.668-1.928 5.802-2.789 11.818-3.57 17.845-.466 3.6-.193 7.159.72 10.7 1.722 6.671 5.122 12.435 9.335 17.778.608.772 1.381 1.414 2.078 2.116.231-.658.228-1.102.147-1.531-.969-5.149-1.965-10.293-2.923-15.444-1.595-8.572-3.109-17.159-4.809-25.71-.293-1.473.195-1.707 1.338-1.936 4.278-.858 8.521-1.918 12.823-2.624 9.637-1.582 19.279-3.169 28.962-4.427 7.993-1.038 16.037-1.726 24.076-2.347 7.939-.613 15.909-.834 23.845-1.474 2.418-.195 4.576.144 6.76.993.607.236 1.277.309 2.002.476zm-82.544 59.817l-.05.429c.542.337 1.054.738 1.63.999 3.669 1.664 7.292 3.455 11.045 4.907 7.582 2.933 15.509 4.552 23.603 4.889 5.23.218 10.521-.05 15.73-.609 5.544-.595 11.026-1.764 16.033-4.479 5.573-3.021 9.307-7.546 11.305-13.55.339-1.019.193-1.771-.811-2.175-1.12-.45-2.255-.972-3.431-1.15-5.627-.85-11.289-.56-16.88.163-9.187 1.188-18.33 2.718-27.496 4.073-7.274 1.075-14.468 2.512-21.557 4.48-1.956.543-3.964.901-5.95 1.339-1.055.234-2.113.457-3.171.684zm-12.064-45.694c.104.558.173.982.262 1.402.589 2.804 1.318 5.586 1.748 8.414 1.407 9.265 2.709 18.545 4.042 27.821.351 2.445.337 2.447 2.84 2.442.499-.001 1.008.065 1.494-.011 3.586-.558 3.224.311 2.922-3.292-.358-4.268-1.046-8.513-1.706-12.751-1.304-8.376-2.688-16.739-4.065-25.272l-7.537 1.247zm35.698 34.54c1.468-.337 2.665-.549 3.813-.915.335-.106.729-.634.759-.997.434-5.164 1.053-10.329 1.144-15.502.138-7.798-.102-15.602-.185-23.404-.002-.216-.055-.431-.096-.734-1.761.299-3.471.739-5.199.836-1.452.081-1.676.694-1.621 1.959.27 6.235.475 12.473.68 18.71.134 4.09.211 8.182.347 12.272.085 2.534.231 5.065.358 7.775zm-16.258 3.124l1.395-.192c3.278-.459 3.361-.466 3.067-3.775-.38-4.287-.819-8.572-1.394-12.837-.656-4.86-1.467-9.7-2.253-14.542-.528-3.249-1.131-6.485-1.728-9.887-1.584.339-3.031.651-4.478.958-.824.175-.804.733-.699 1.399.395 2.5.747 5.008 1.136 7.509.957 6.155 1.921 12.309 2.892 18.462.676 4.291 1.37 8.58 2.062 12.905zm29.278-5.948c.068-.213.147-.36.16-.513.557-6.263 1.269-12.517 1.615-18.792.329-5.968.285-11.957.386-17.937.065-3.871-.365-2.82-3.13-2.397-.809.124-1.054.548-1.075 1.341-.039 1.43-.231 2.854-.31 4.284-.246 4.466-.46 8.934-.704 13.4-.289 5.299-.617 10.597-.881 15.897-.082 1.643-.013 3.293-.013 5.116l3.952-.399zm-24.786-35.989l1.084 9.037c.584 4.872 1.154 9.745 1.755 14.615.615 4.978 1.329 9.946 1.861 14.933.243 2.275.291 1.692 2.068 1.409.899-.143.876-.793.89-1.488.195-9.803-.501-19.564-1.381-29.314-.252-2.793-.697-5.568-1.031-8.354-.094-.787-.258-1.425-1.269-1.298-1.249.156-2.501.29-3.977.46zm48.864 32.359c1.186-.088 2.011-.143 2.836-.212 1.935-.161 1.979-.165 1.931-2.083-.228-9.183-.448-18.366-.744-27.546-.096-2.979-.395-5.952-.655-8.923-.029-.338-.369-.891-.624-.928-1.938-.279-2.744.499-2.744 2.522v37.17zm-13.319-38.003c-1.183.477-1.996.692-2.673 1.121-.384.243-.752.825-.777 1.273-.278 4.969-.476 9.941-.72 14.912-.296 6.018-.634 12.035-.914 18.054-.077 1.645-.012 3.296-.012 5.074 1.214-.203 2.32-.307 3.371-.607.388-.111.873-.656.921-1.052.223-1.808.384-3.631.425-5.451.156-6.919.282-13.839.37-20.76.051-4.085.009-8.171.009-12.564zm21.595-1.74c.176 4.858.361 9.596.514 14.334.138 4.259.264 8.518.35 12.778.066 3.272.05 6.545.099 9.817.01.656.118 1.317.245 1.963.044.222.24.501.441.591 1.62.729 2.957-.083 2.9-1.81-.224-6.743-.506-13.484-.728-20.227-.177-5.366-.296-10.735-.446-16.102-.012-.431-.058-.862-.093-1.344h-3.282zm-16.44 39.91c.668 0 1.114.034 1.553-.006 1.774-.163 1.759-.172 1.786-1.942.065-4.209.19-8.417.209-12.626.035-7.599.011-15.199.006-22.798 0-.523-.053-1.045-.089-1.687-.725.255-1.275.527-1.856.638-1.187.226-1.629.833-1.543 2.072.099 1.432-.06 2.879-.061 4.32-.008 10.036-.005 20.072-.005 30.108v1.921zm27.21-40.588c-2.504.121-2.528.121-2.502 2.231.076 6.361.143 12.723.27 19.084.123 6.139.312 12.277.484 18.415.033 1.167.571 1.65 1.502 1.2.351-.17.578-.952.574-1.453-.084-10.517-.215-21.034-.323-31.551-.027-2.599-.005-5.198-.005-7.926z"/>
  <path d="M136.596 87.408c-.323-3.875 3.191-7.638 7.335-7.519 5.434.157 9.461 3.829 9.429 8.862-.032 4.995-3.627 8.293-9.009 8.264-4.468-.024-7.775-4.121-7.755-9.607zm13.104.881c.002-2.687-1.702-4.641-4.077-4.674-2.91-.041-5.312 1.71-5.321 3.878-.011 2.624 2.699 5.432 5.284 5.473 2.309.038 4.112-2.012 4.114-4.677z"/>
  <path d="M93.348 93.667c-.188 3.232-2.44 6.364-5.484 7.328-1.688.534-3.271.256-4.649-.913-2.252-1.91-3.335-5.695-2.374-8.28 1.122-3.018 4.172-5.134 7.277-5.071 2.239.045 3.584 1.343 4.334 3.266.454 1.162.607 2.442.896 3.67zm-3.577-.029c0-.325.003-.491 0-.657-.038-1.909-.617-2.959-1.75-3.179-1.556-.302-3.149.453-3.64 2.147-.361 1.247-.352 2.691-.151 3.991.309 1.999 2.491 2.685 4.031 1.372 1.168-.994 1.7-2.283 1.51-3.674z"/>
  <path d="M144.863 90.558c-1.264-.013-2.15-.78-2.098-1.816.08-1.567.971-2.63 2.173-2.591 1.459.048 2.859 1.161 2.819 2.242-.042 1.155-1.413 2.18-2.894 2.165z"/>
  <path d="M85.07 93.778c-.018-1.029.687-1.882 1.614-1.952.8-.06 1.698 1.019 1.729 2.077.023.789-.99 1.861-1.787 1.892-.794.03-1.536-.932-1.556-2.017z"/>
</svg>
