<!--
  SVG Music Logos
  Queen - Greatest Hits II v1.0.0
  https://github.com/tiagoporto/svg-music-logos
  Copyright (c) 2016 Tiago Porto (http://tiagoporto.com)
-->
<svg xmlns="http://www.w3.org/2000/svg" viewBox="0 0 200 65.5">
  <path d="M115.56 2.554l-1.814 2.85c-.777 1.295-1.683 1.943-2.59 2.202H90.042c3.108.388 4.792 1.425 5.31 3.11v27.33c-.258 1.036-1.035 1.684-2.072 2.073l-3.11.777h23.576c.648.13 1.036.518 1.295 1.166.13.647.26 1.294.13 1.813l3.887-11.01-1.036 1.684c-.388.777-.776 1.424-1.165 1.813-.648.907-1.684 1.425-3.238 1.555h-8.29c-1.813-.13-3.368-.518-4.404-1.166-.648-2.332-1.036-6.218-.777-11.788 2.98 0 5.31 0 6.866-.13.907.26 1.425 1.295 1.554 3.24l3.756-11.14c-.777 1.553-1.684 2.85-2.59 3.885-1.166.906-2.72 1.294-4.534 1.424l-5.052-.13V11.493l.39-.906h9.844c.648.13 1.036.518 1.036 1.295l.388 1.685 3.756-11.01z"/>
  <path d="M43.54 12.4c-1.167-2.592-3.11-4.794-5.57-6.607-2.462-1.684-5.053-2.85-7.773-3.24-2.77-.394-3.92-.52-6.05-.52-3.052 0-5.043.376-6.644.91C13.567 4.257 9.86 6.7 7.01 10.067c-2.33 2.98-3.626 6.477-4.144 10.75-.388 4.017.26 7.903 1.814 11.4 1.554 3.497 4.275 6.477 7.902 8.68 3.368 1.94 7.124 3.107 11.14 3.496 8.03 5.83 14.12 9.845 18.394 12.176 7.9 3.885 14.767 6.346 20.337 7.253 8.29 1.425 15.155.13 20.725-4.016.13-.26.26-.388.13-.648-.13-.13-.39-.26-.65-.26-2.33 1.554-5.44 2.72-9.196 2.98-7.253.13-14.637-1.814-22.02-5.7-4.923-2.46-11.27-6.736-19.17-12.953v-.39c2.33-.776 4.532-2.2 6.605-3.884 2.202-1.943 3.757-3.886 4.793-6.218 1.555-2.98 2.332-6.477 2.332-10.233 0-3.886-.778-7.253-2.463-10.103zM15.82 6.44c1.814-1.295 4.015-2.073 6.606-2.332 5.44-.39 9.715 1.554 12.953 5.57 2.59 3.757 4.015 8.03 4.274 13.083.26 5.053-.648 9.456-2.85 13.343-2.46 3.756-6.218 5.83-11.528 5.96-5.182-.13-9.068-2.203-11.658-5.96-2.46-3.238-3.886-7.125-4.404-11.788-.388-4.663.13-8.808 1.943-12.565 1.035-2.2 2.59-4.014 4.663-5.31z"/>
  <path d="M157.27 7.606v.26l1.165.258 1.295.13c1.684.518 2.72 1.554 3.11 2.85l.128 13.472c.13 5.57 0 9.974-.13 13.47-.517.908-1.294 1.556-2.33 1.944l-3.11.518.13.518c2.202-.13 6.606-.13 13.342 0 0-.388-.388-.647-1.295-.777l-1.943-.52c-.777-.13-1.295-.647-1.684-1.424-.26-.388-.518-1.166-.777-2.202l-.128-20.725.518-1.296 24.223 27.59c.39 0 .648-.13 1.036-.388l-.52-26.425.52-4.273c.387-1.037 1.035-1.814 2.07-2.202l3.11-.52v-.518l-13.47.26v.258l3.108.518c1.166.39 2.073 1.166 2.332 2.332l.388 11.01c0 4.275 0 7.9-.26 11.01-8.548-8.55-16.06-16.97-22.278-25.13h-8.55z"/>
  <path d="M47.167 7.606l2.85 1.036c1.813.648 2.72 1.296 2.85 1.943.258 2.072.258 4.922.128 8.16v7.772c0 2.72.26 4.922.648 6.606.388 2.073 1.295 3.756 2.33 4.922 2.074 2.073 4.664 3.368 8.032 3.627 3.11.39 6.088-.13 9.067-1.166 2.33-1.166 4.016-2.85 5.18-5.052.908-1.814 1.426-4.145 1.555-6.865.13-1.426.13-4.016 0-7.773 0-3.238 0-5.7.26-7.383l.258-2.72c.39-1.037.907-1.815 1.943-2.203l3.368-.906h-13.86l3.368.907c.39.13.907.52 1.295.908.517.518.776 1.036.776 1.554v16.192c0 5.31-.907 8.29-2.332 9.197-1.814 1.944-3.886 2.98-6.347 3.11-2.202.13-4.016-.13-5.83-.906-1.813-.907-3.108-2.202-4.015-4.016-.907-1.036-1.425-4.404-1.555-10.104 0-4.275.13-9.067.388-13.99.907-1.684 2.59-2.46 5.31-2.46v-.388H47.168z"/>
  <path d="M148.202 2.425l-1.814 2.98c-.777 1.294-1.684 1.942-2.59 2.2h-21.114c3.11.26 4.922 1.296 5.31 2.98V37.79c-.258 1.166-1.035 1.814-2.072 2.33l-2.98.78h23.447c.647 0 1.035.387 1.294 1.165.26.518.26 1.165.13 1.813l3.886-11.14-1.036 1.814c-.39.777-.777 1.295-1.166 1.684-.648.907-1.684 1.425-3.11 1.554h-8.42c-1.812 0-3.367-.388-4.274-1.166-.777-2.33-1.036-6.217-.907-11.788l6.866-.13c.906.26 1.424 1.296 1.554 3.24l3.886-11.01-2.72 3.755c-1.036.906-2.59 1.424-4.534 1.424h-5.053V11.362l.52-.907h9.714c.65.26 1.037.648 1.037 1.295l.39 1.684 3.755-11.01z"/>
</svg>
