<!--
  SVG Music Logos
  Overdose - Século XX v1.0.0
  https://github.com/tiagoporto/svg-music-logos
  Copyright (c) 2016-2018 Tiago Porto (http://tiagoporto.com)
-->
<svg xmlns="http://www.w3.org/2000/svg" viewBox="0 0 200 106" class="overdose--seculo-xx">
  <path class="overdose__outer-stroke" d="M177.16 59.336l.564-4.787 7.04.562 1.455-11.78-6.243-.61v-3.1L198 38.686l-6.195-6.383L162.8 24.7l5.63-21.403-10.7 17.177-12.672-7.04 9.012 12.954-9.012 15.49-29.288-28.444 8.167 17.178-7.04 6.477L86.2 3.577l12.955 27.316-6.195-1.408-.282 2.816-34.92-28.16 19.714 26.752-32.104-12.11 6.477 9.856-7.322-2.253-.563 9.575L12.138 5.55 28.19 29.766 2 6.394l15.207 23.374-10.7 11.545 12.67 13.236L7.07 83.835l34.074-35.2 6.76 8.166-7.886 6.76 49.563 3.942-4.505-5.07V55.96l19.994 16.897-11.83 11.263 13.8-9.293 10.42 8.73-7.04-10.42 29.85-18.586-.844 4.223 10.7-2.253-18.022 46.184 21.966-35.2L198 77.92l-20.84-18.586zM26.918 43.45l-1.053-.982.562-.632 1.263.772-.773.843zm43.17 11.512l-.984-.702.21-1.825h.773v2.527zm.35-15.16l-1.895.21.21-3.65 1.756.07-.07 3.37zm20.777 6.667l1.334-.984.07 3.44-1.404-2.457zm16.776 23.513l-7.02-8.774 14.18-10.74 4.913 6.177-12.073 13.336zM131.575 46.4l-.983-1.194 1.263-1.263.912.983-1.192 1.473zm28.708-12.636l2.106 2.036-3.09.21.983-2.246zm1.685 25.48l-4.14 2.457 5.123-7.93-.982 5.474z"/>
  <path d="M176.692 53.14l6.57.376 1.22-8.87-6.1-.705.398-5.443 15.56-1.314-2.817-3.38-30.79-7.32 3.568-13.706-5.82 10.138-7.696-4.318 5.632 7.134-11.265 19.15-23.654-24.218 5.82 13.517-2.628-1.878-7.51 7.51-24.78-27.035 9.95 20.65-7.51-.938-.376 3.003-26.472-20.65 13.33 18.21-4.318-.188L49.216 22.54l6.57 8.823-9.574-2.816-.75 11.264-25.533-24.78 13.328 20.464-25.72-22.717L21.055 32.49l-2.253-.75-9.2 10.512 11.64 12.39-10.017 22.04L40.768 45.82l9.387 11.827-5.632 4.506L84.23 65.72l-5.54-4.693 4.507.94.47-9.388 26 22.528-11.076-14.08 16.522-13.142 7.322 9.01L110.23 70.79l33.23-20.088-2.098 5.596 12.05-2.03-14.27 33.982 26.472-40.927-1.69 12.58-9.2 6.007 37.36 9.01-16.52-14.643 1.128-7.136zm-149.44-7.697l-3.005-3.004 2.065-1.878 3.192 2.44-2.253 2.44zM67.8 54.83v-3.943h2.63l-.376-9.2-3.192-.187.188-7.134 4.318.375 1.033 22.905-4.6-2.815zM83.95 40.375l.375-2.44 1.314 1.125-1.69 1.315zm9.575 12.766l-4.318-7.133 4.506-3.38-.187 10.514zm12.203-9.198l.375-4.693 1.69 2.627-2.064 2.065zm25.908 4.505l-2.91-3.567 2.91-3.192 3.004 3.38-3.004 3.38zm24.594-9.95l3.755-8.448 5.257 7.133-9.012 1.314z"/>
  <g class="overdose__lettering">
    <polygon points="14.32 20.263 39.83 44.129 16.174 69.286 23.684 54.455 13.358 42.815 20.164 33.804 25.374 38.497 22.37 42.44 27.814 47.884 31.757 43.754"/>
    <polygon points="25.186 21.225 46.964 43.191 47.715 31.175 54.849 33.428 54.285 56.52 51.657 56.708"/>
    <polygon points="72.402 33.053 53.534 26.106 58.979 32.302"/>
    <polygon points="65.174 34.742 57.852 33.804 57.289 56.708 50.531 60.65 78.128 63.842 65.738 56.52 65.738 49.011 67.803 49.011 68.366 43.378 65.174 42.815"/>
    <polygon points="74.561 35.306 82.071 35.681 81.883 43.754 88.642 38.873 74.374 21.976 94.086 38.122 86.764 45.631 93.523 57.834 81.883 48.635 81.508 59.524 73.998 56.332"/>
    <polygon points="103.849 36.995 103.849 47.133 110.232 42.627 99.531 23.478 116.427 43.003 95.213 60.275 96.527 35.681"/>
    <polygon points="125.439 35.681 131.071 39.624 126.565 44.88 131.071 51.639 137.454 45.819 126.377 27.984 144.4 47.321 119.056 64.03 125.814 56.52 117.366 44.505"/>
    <polygon points="164.864 43.942 146.841 47.321 159.232 24.792 152.849 42.44 167.117 39.811"/>
    <polygon points="162.987 46.57 147.216 73.417 156.228 50.888 144.588 53.329 146.653 49.011"/>
    <polygon points="168.807 35.869 162.048 28.922 190.584 35.681"/>
    <polygon points="176.692 39.999 175.941 45.631 182.511 46.57 181.573 51.451 175.377 50.7 173.5 61.214 185.14 70.976 159.044 64.781 165.803 60.65 169.37 39.06"/>
  </g>
</svg>
