<!--
  SVG Music Logos
  Deftones - Adrenaline v1.0.0
  https://github.com/tiagoporto/svg-music-logos
  Copyright (c) 2016-2024 Tiago Porto (http://tiagoporto.com)
-->
<svg xmlns="http://www.w3.org/2000/svg" viewBox="0 0 300 100">
  <path d="M25.9 54.3c-2.4.8-4.7 2-6.9 3.8-4 3.1-6 6.5-6 10.2 0 1.1.4 2 1.1 2.6.7.6 1.7 1 2.9 1 2.8 0 5.8-1 8.9-2.9.8-.5 1.6-1 2.4-1.6 4-3.1 7.5-7.1 10.5-12.2-1.4-.6-2.7-1-3.8-1.3-1.1-.3-2.2-.4-3.3-.4-2-.1-4 .2-5.8.8zm240.8 15.5c.1-.2.3-.4.6-.6.7-.5 1.6-.7 2.7-.7 1.4 0 3.2.7 5.2 2.2 2 1.5 3.9 2.2 5.6 2.2 2.2 0 3.8-.7 4.8-2.2 1-1.5 1.4-4.1 1.4-7.9 0-1-.2-2.1-.4-3.2-.3-1.2-.7-2.4-1.2-3.9L271.9 64l-1.3-1 14.2-9v-.3c0-1.9.6-3.5 1.8-4.6 1.2-1.1 2.9-1.7 5-1.7 1.1 0 2 .2 2.7.6.7.4 1.1.9 1.1 1.5 0 .7-.5 1.4-1.4 2.1-1 .7-3.2 1.6-6.6 2.8 3.2 1.4 5.7 2.8 7.2 4.4 1.6 1.6 2.4 3.4 2.4 5.4 0 3-1.9 5.5-5.7 7.5-3.8 2-8.6 2.9-14.4 2.9-3.3 0-5.9-.3-7.8-.9-1.2-.4-2-.9-2.4-1.5-.3-.3-.4-.8-.4-1.2 0-.4.1-.8.4-1.2zm0-10.8c.3-.5.4-1 .4-1.6 0-.7-.1-1.3-.4-1.8-.4-.9-1.3-1.6-2.4-2.2-1.9-1-4.5-1.5-7.8-1.5-2.3 0-4.5.2-6.7.6-4 .7-7.9 2.1-11.4 4.2-5.5 3.2-8.2 6.6-8.2 10.2 0 .5.1 1.1.2 1.5-1.7 1.2-3.4 2.1-5.3 3-1.9.9-3.4 1.3-4.5 1.3-.5 0-1-.1-1.3-.3-.4-.2-.5-.4-.5-.7 0-.4.1-.9.4-1.6.3-.7.7-1.5 1.1-2.4l3-5.6c.7-1.3 1.2-2.3 1.5-3.2.3-.9.4-1.7.4-2.4 0-1.3-.7-2.3-2.2-3.1-1.5-.8-3.3-1.2-5.7-1.2-3.8 0-7.5 1.1-11 3.3-3.5 2.2-7.4 6-11.9 11.3l7.1-14.4-11 1-8.5 20.4-.2.5h9.4c4.1-6.2 8.1-11 11.9-14.4 3.8-3.4 7.1-5.1 9.7-5.1.9 0 1.5.1 2 .4.4.3.7.7.7 1.2 0 .3-.1.8-.3 1.3-.2.6-.7 1.5-1.3 2.9l-3.5 6.9c-.4 1-.7 1.7-.9 2.2-.1.5-.2.9-.2 1.3 0 1.3.6 2.2 1.8 2.9 1.2.6 3 1 5.2 1 2.6 0 5.1-.5 7.7-1.4 2.1-.8 4.4-2 6.9-3.5.5 1.1 1.4 2 2.5 2.7 2.1 1.3 5.2 2 9.1 2 2.5 0 4.9-.3 7.3-.8.8-.2 1.5-.4 2.3-.6 3.3-.9 6.8-2.3 10.5-4.2l-.8-.9c-3 1.4-5.9 2.4-8.7 3.2-1.1.3-2.2.5-3.2.7-1.4.3-2.9.4-4.3.4-2.1 0-3.7-.3-4.7-1-1.1-.7-1.7-1.7-1.8-3.1 4.1-.6 7.7-1.2 10.8-1.9 4.3-.9 7.9-1.9 10.5-2.9 3.3-1.5 5.4-3 6.3-4.6zm-16.9 5.5c1.7-.5 3.3-1.2 4.8-1.9 4-2 6-4.1 6-6.3 0-1-.4-1.7-1.1-2.2-.7-.5-1.8-.7-3.2-.7-2.2 0-4.4.5-6.6 1.6-1.3.6-2.4 1.3-3.5 2.2-3.3 2.5-5.7 5.7-7.3 9.6 4.2-.6 7.8-1.4 10.9-2.3zM182 62.6c.1-.6.2-1.2.2-1.8 0-.6-.1-1.2-.2-1.7-.5-1.8-1.7-3.3-3.8-4.6-2.7-1.6-6.1-2.5-10.3-2.5-1.6 0-3.2.1-4.8.3-4.4.6-8.4 1.9-12 4-1.7 1-3.2 2.1-4.3 3.1-2.1 2-3.2 4.1-3.2 6.3 0 2.5 1 4.5 3.2 5.9.3.2.6.4.9.5 2.7 1.5 6.5 2.2 11.6 2.2 1.3 0 2.6-.1 3.9-.2 4.4-.5 8.4-1.8 12.1-4 3.7-2.2 6-4.7 6.7-7.5zm-18.9 9.5c1.8-.9 3.6-2.3 5.4-4.2 3.2-3.5 4.8-7.3 4.8-11.3 0-.9-.5-1.6-1.5-2.3-1-.7-2.2-1-3.6-1-1.5 0-2.8.2-3.9.6-.4.1-.7.2-1.1.4-.8.4-1.5.9-2.2 1.4-2.3 1.9-4.2 4.1-5.7 6.6-1.5 2.6-2.2 4.9-2.2 6.9 0 1.2.5 2.1 1.5 2.8 1 .7 2.3 1.1 3.9 1.1 1.5.1 3.1-.3 4.6-1zm-16.4-24.7h3.2v1.4h-10.5l-10.3 20.1c-.3.6-.5 1-.7 1.3-.1.3-.2.6-.2.7 0 .4.1.8.4 1 .3.2.7.4 1.2.4 1.6 0 4.6-1 8.9-2.9 1.1-.5 1.9-.9 2.5-1.1l1 1.1c-3.7 1.8-6.8 3.2-9.3 4.1-2.6.9-4.8 1.3-6.7 1.3-.7 0-1.4 0-2-.1-1.2-.1-2.3-.5-3.2-1-1.3-.7-2-1.7-2-2.8 0-.6.1-1.1.2-1.5.1-.5.3-1 .4-1.4l4.5-9.5 4.6-9.6h-4.5v-1.4h5.3l8.5-16 8.5-1.1 1.8-.2-1.8 3.6-6.9 13.8 7.1-.2zm-22.4-6.6c3.8-3.6 7.1-7.1 9.8-10.5 6.1-7.6 9.1-14.3 9.1-20.2 0-2.4-.5-4.2-1.4-5.3-1-1.1-2.4-1.7-4.5-1.7-4.3 0-8.6 2-13 6-1.6 1.5-3.2 3.2-4.7 5.2-6 7.5-12.5 19.5-19.7 35.9l-4.8 10.9-8.5 5.1 5.2 1.4c-4.3 8.6-7.7 15.1-10 19.4v.1c-1 1.9-2.1 3.7-3.2 5.5-.9 1.5-1.9 2.9-2.9 4.3l2.9-.6 3.3-.7 5.3-1.1 14.1-27.2c3.6-.8 7.1-1.7 10.5-2.8 3.1-1 6.1-2.3 9.1-3.7l-1.1-1.2c-2.8 1.4-5.6 2.5-8.5 3.5-3 1-6.1 1.8-9.4 2.4l5.2-10.3c6.6-4.9 12.4-9.8 17.2-14.4zm0-21.8c.7-1.1 1.3-2.2 2-3.2 4.8-7.6 8.8-11.4 11.9-11.4.8 0 1.4.3 1.8 1 .4.6.6 1.6.6 2.9 0 5.3-2.8 11.8-8.5 19.5-2.4 3.3-5.1 6.4-7.9 9.3-4.6 4.9-10 9.9-16.3 15.2 6.5-14.6 12-25.7 16.4-33.3zM81.8 69.8c.5-.2 1-.5 1.5-.8l-.8-.9c-.2.1-.5.2-.7.3-1.1.5-2.2.9-3.3 1.4-1.6.6-3.1 1.1-4.7 1.5-1.1.3-2.2.5-3.2.7-1.4.3-2.9.4-4.3.4-2.1 0-3.7-.3-4.7-1-1.1-.7-1.7-1.7-1.8-3.1 4-.6 7.7-1.2 10.8-1.9 3.1-.7 5.7-1.3 8-2 .9-.2 1.7-.5 2.6-.9l.7-.3c4.1-1.7 6.1-3.6 6.1-5.7 0-1.7-1-3.1-2.8-4-.9-.5-2-.9-3.3-1.1-1.1-.2-2.2-.3-3.3-.4h-1.3c-2.2 0-4.5.2-6.7.6-4 .7-7.9 2.1-11.4 4.2C53.7 60 51 63.4 51 67c0 .8.1 1.5.3 2.2-.2.1-.5.2-.7.4-3.8 2.1-6.9 3.2-9 3.2-.4 0-.7-.1-1.1-.3-.3-.2-.5-.4-.5-.7 0-.3.2-.8.5-1.6.2-.4.4-.7.4-.8l28.5-59.1-10.9 2-18.7 40.5c-1.7-.2-3.5-.4-5.2-.6-1.2-.1-2.4-.2-3.5-.2-1.8 0-3.5.1-5.1.3-5.2.6-10 2.2-14.3 4.8C5.9 60.5 3 64.2 3 68.3c0 2.1.9 3.7 2.5 4.8 1.7 1.1 4.1 1.7 7.4 1.7 3.9 0 7.8-1 11.6-3 .4-.2.9-.5 1.4-.7 3.3-2 6.4-4.6 9.3-7.9l-1.6 3.2-.2.4c-1 2.1-1.5 3.5-1.5 4.3 0 1.3.6 2.2 1.8 2.9 1.3.7 3.1 1 5.5 1 2.1 0 4.3-.4 6.6-1.2 1.8-.7 3.9-1.6 6.2-3 .5.8 1.3 1.5 2.2 2.1 2.1 1.3 5.2 2 9.1 2 2.4 0 4.8-.3 7.3-.8.8-.2 1.5-.4 2.3-.6 1.9-.5 3.8-1.2 5.7-2 .9-.7 2-1.2 3.2-1.7zm-3.3-9.1c1.9-1.4 2.9-2.9 2.9-4.4 0-1-.4-1.7-1.1-2.2-.5-.3-1-.5-1.8-.7-.5-.1-.9-.1-1.4-.1-2.2 0-4.4.5-6.6 1.6-1.2.6-2.4 1.3-3.5 2.2-3.3 2.5-5.7 5.7-7.3 9.6 4.1-.5 7.7-1.3 10.8-2.3 1.7-.5 3.3-1.2 4.8-1.9 1.1-.5 2.2-1.1 3.2-1.8" fill-rule="evenodd" clip-rule="evenodd" fill="#231f20"/>
</svg>