<!--
  SVG Music Logos
  Korzus - Ao vivo 1985 v1.0.0
  https://github.com/tiagoporto/svg-music-logos
  Copyright (c) 2016 Tiago Porto (http://tiagoporto.com)
-->
<svg xmlns="http://www.w3.org/2000/svg" viewBox="0 0 200 78">
  <path d="M191.49 22c-2.333-1.024-4.778-3.753-7.337-8.19-3.483-5.288-8.417-8.984-14.8-11.09-3.342-1.108-7.11-1.136-11.304-.084-2.12.583-3.812 1.763-5.077 3.54 1.166-.697 2.446-1.08 3.84-1.152 1.59-.128 2.786.228 3.582 1.066.825 1.21.853 2.56.085 4.052-1.663 1.678-3.924 2.39-6.782 2.133 6.54 4.01 10.464 8.19 11.772 12.54 1.862 4.834 3.07 10.464 3.625 16.89-5.36-2.93-10.294-4.208-14.8-3.84-1.72-2.402-2.39-6.198-2.006-11.387.354-3.526 1.876-5.687 4.563-6.483 1.564-.128 3.014.228 4.35 1.066-.923-2.5-3.184-3.81-6.78-3.923-2.63 0-5.12.796-7.465 2.39-2.076 1.52-2.787 2.786-2.133 3.795 1.635 2.118 2.047 6.426 1.237 12.924-.583 3.426-2.275 6.54-5.076 9.34-2.602-2.245-3.924-5.516-3.967-9.81-.044-2.46.738-4.89 2.345-7.293-1.365-.512-2.39-1.934-3.07-4.265-.285-2.73.91-4.777 3.582-6.142-4.578.142-8.303 2.957-11.175 8.445-1.308 4.565-1.592 8.532-.853 11.9-3.442.072-8.36.627-14.76 1.664 2.876-12.673 9.783-21.497 20.72-26.47-1.884-1.036-3.015-2.37-3.392-4.005-.064-1.214.37-2.228 1.3-3.042 1.33-.764 2.988-.857 4.972-.278-.75-1.95-2.39-2.884-4.918-2.802-3.84-.227-6.597 1.65-8.275 5.63-1.62 2.744-4.55 4.095-8.786 4.052-3.155-.412-5.914 1.08-8.274 4.48-.896 1.862-2.502 3.525-4.82 4.99-1.21.354-2.673.17-4.393-.555.91 3.156 4.78 4.313 6.825 3.156 2.045-1.156 2.664-3.63 5.545-3.752 2.7 0 3.64 2.047 2.815 6.142-3.924 10.436-9.213 19.222-15.867 26.36-1.08-8.29-4.89-15.13-11.43-20.517 5.062-2.73 8.815-7.052 11.26-12.966C90.015 19.1 84.54 15.39 79.95 9.375c-1.72 4.152-5.347 5.858-10.878 5.118 2.986 6.34 2.957 13.876-.085 22.606-1.194 2.046-2.73 2.046-4.606 0-3.127-5.66-3.64-11.148-1.534-16.465-1.877 1.336-3.754 1.137-5.63-.597-1.223-2.787-.2-5.51 2.33-7.16-15.21 1.168-23.91 12.45-24.422 30.832-1.734-3.597-4.178-8.212-6.79-10.756 4.037-3.782 6.932-7.912 8.24-13.855.938-7.707-1.024-13.08-5.886-16.124 3.526 12.74-.91 21.383-13.834 26.046 1.635-5.786 1.89-10.69 1.08-15.852-.938-4.678-1.703-6.756-5.426-8.94 1.74 3.782-.536 8.54-3.153 10.64-4.882 3.92-9.97 9.763-5.294 14.783.342-4.72 2.052-4.882 4.126-4.882s4.558 4.82 2.625 10.536c-2.217 2.7-3.98 5.46-5.288 8.275-8.154 18.16-.624 31.498 7.123 32.552-2.854-3.346-6.43-8.552-5.203-13.57.754-2.887 2.9-4.974 4.366-6.003 1.465-1.03 4.546-.83 6.6-.78-2.643-3.128-3.473-4.863-3.5-8.446.14-2.275 1.023-3.867 2.643-4.777 1.65-.91 3.136-2.017 5.993-.3 2.857 1.72 6.69 8.035 8.34 12.413 2.417 5.033 3.64 11.602 3.668 19.706 2.588-4.095 3.532-10.888 2.822-19.077 3.014 1.648 5.226 5.655 6.648 10.716 1.223-5.43 4.55-8.872 9.98-10.322.23-4.806 2.162-8.417 5.802-10.834 1.62-.995 3.526-1.25 5.715-.768-1.166 1.65-2.39 4.322-3.668 8.02-1.622 3.696-1.707 8.302-.257 13.82 1.706 5.316 4.52 8.275 9.194 9.856-2.02-3.47-3.394-5.336-3.48-7.895.03-3.697.91-6.483 2.645-8.36 1.905-1.99 4.32-3.577 7.023-3.065-3.014-3.27-4.662-5.18-4.72-7.427-.113-1.762.342-3.184 1.366-4.264 1.536-1.052 3.413-1.365 5.63-.938 4.494 2.218 7.508 5.8 9.043 10.75 1.393 2.87 1.82 8.53 1.28 16.975C97 57.317 109.568 47.336 128.278 41.62c1.564 4.266 3.98 7.735 7.25 10.408 2.532 2.047 4.892 5.118 7.08 9.213.285-1.492.797-2.33 1.536-2.516 1.28.47 2.56 1.763 3.84 3.88-2.987-8.146-2.39-14.217 1.79-18.212 2.246-2.062 5.346-2.56 9.298-1.493 5.29 2.87 10.692 7.733 16.208 14.586 3.185 3.952 6.483 9.327 9.895 16.123-.427-11.887-2.73-23.432-6.91-34.635-2.702-8.407-6.597-15.47-11.686-21.186-.868-.614-1.224-1.343-1.068-2.19.668-1.72 3.07-2.274 7.208-1.663 3.526 1.11 6.938 3.47 10.237 7.08 3.085 2.758 6.54 4.208 10.365 4.35 2.25-.255 3.81-1.023 4.677-2.302-1.962.356-4.132 0-6.51-1.065zM50.392 49.98c-3.896-2.758-5.914-7.62-6.057-14.587 0-5.004 1.592-8.985 4.777-11.943-.028 5.687 1.934 9.1 5.886 10.237-.086 2.16.227 3.98.937 5.46-2.53 2.018-4.378 5.63-5.544 10.833zm25.25-18.128c.186-4.763 2.22-8.474 6.1-11.132 1.436.654 2.445 2.275 3.028 4.862-3.212-.156-6.254 1.934-9.126 6.27z"/>
</svg>
