<!--
  SVG Music Logos
  Avenged Sevenfold - Nightmare v1.0.0
  https://github.com/tiagoporto/svg-music-logos
  Copyright (c) 2016-2024 Tiago Porto (http://tiagoporto.com)
-->
<svg xmlns="http://www.w3.org/2000/svg" viewBox="0 0 1734 230">
  <path d="M1078.898 212.86c-.877-2.862-2.546-10.154-3.71-16.204-1.162-6.05-3.168-13.25-4.458-16s-2.61-7.448-2.935-10.44c-.324-2.991-1.77-7.85-3.212-10.798-1.938-3.962-2.833-7.831-3.434-14.849-.515-6.012-1.43-10.43-2.493-12.054-.924-1.41-3.172-8.954-4.995-16.766-1.823-7.81-4.033-15.92-4.91-18.02-.877-2.1-1.595-5.057-1.595-6.573 0-3.695-1.71-4.895-8.571-6.012-6.755-1.099-7.062-1.335-7.94-6.121-.662-3.6-.624-3.65 4.172-5.5 5.91-2.28 28.205-2.642 35.089-.57 4.167 1.255 4.25 1.366 4.25 5.706 0 5.14-1.617 6.497-7.743 6.497-2.131 0-4.628.563-5.549 1.25-1.534 1.146-1.55 1.774-.195 7.531.813 3.455 2.309 7.955 3.324 10 1.251 2.521 1.701 5.094 1.398 7.988-.283 2.69.044 4.862.884 5.875.733.883 1.208 2.8 1.055 4.258-.153 1.458 1.15 5.705 2.897 9.436 2.558 5.466 3.077 7.653 2.672 11.248-.358 3.178.036 5.519 1.368 8.132 1.03 2.018 2.147 5.142 2.485 6.94.688 3.67 2.99 6.157 4.394 4.75 1.003-1.005 3.145-11.484 3.15-15.408.01-4.71 3.967-20.498 6.396-25.5 1.404-2.891 3.342-10.271 4.596-17.5 3.056-17.612 3.113-17.013-1.882-19.788-4.493-2.497-5.06-4.122-2.838-8.133 1.331-2.402 1.462-2.42 16.166-2.301l14.823.12 4.329 3.05c2.38 1.679 5.215 3.052 6.3 3.052 2.71 0 2.467 1.635-.676 4.548-1.97 1.825-3.764 2.452-7.015 2.452-3.847 0-4.602.384-6.325 3.217-1.076 1.77-2.243 5.258-2.592 7.75-.35 2.493-1.488 6.021-2.529 7.84-1.041 1.82-1.893 4.867-1.893 6.773 0 1.906-1.345 6.718-2.988 10.693-1.644 3.975-4.094 12.535-5.446 19.022-1.352 6.487-3.335 13.237-4.408 15-1.072 1.763-2.273 6.079-2.668 9.591-.44 3.916-2.012 9.138-4.064 13.5-4.036 8.58-8.285 22.985-9.113 30.895-.332 3.18-.913 5.972-1.29 6.205-.378.233-1.404-1.918-2.281-4.781zm-656.181-7.954c-2.123-5.088-6.596-14.65-9.939-21.25s-6.143-13.15-6.223-14.554c-.08-1.405-.877-3.97-1.772-5.7-.895-1.731-1.627-4.371-1.627-5.868 0-1.496-.73-3.527-1.622-4.513-.893-.986-2.024-3.947-2.514-6.579-.498-2.677-2.88-8.014-5.406-12.11-2.607-4.228-5.114-9.89-5.932-13.396-.92-3.944-2.43-7.16-4.305-9.176-1.59-1.707-3.426-4.998-4.083-7.312-.656-2.314-1.634-4.48-2.174-4.814-.539-.333-1.877 1.485-2.972 4.04-1.835 4.281-1.983 6.752-1.874 31.315.065 14.667.405 28.017.756 29.667.552 2.598 1.394 3.24 6.283 4.79 4.507 1.427 5.775 2.302 6.285 4.334 1.546 6.162-.263 7.017-17.017 8.042-10.727.656-20.425-.823-20.425-3.116 0-1.391 5.259-8.974 6.948-10.018.594-.367 1.938-2.348 2.985-4.401 1.75-3.43 1.88-5.772 1.604-28.683-.19-15.69-.739-26.247-1.48-28.448-.678-2.016-1.181-9.436-1.187-17.5-.006-7.7-.23-15.125-.498-16.5-.284-1.459-2.18-3.677-4.552-5.328-5.436-3.781-3.956-5.113 5.981-5.376 4.235-.113 9.327-.493 11.317-.844 6.654-1.177 15.882 5.357 15.882 11.244 0 2.083 1.088 4.824 2.918 7.35 1.606 2.216 3.223 5.925 3.595 8.241.372 2.317 1.589 5.788 2.704 7.713 1.115 1.925 2.391 6.425 2.836 10 .58 4.65 2.116 9.062 5.399 15.5 2.524 4.95 4.582 10.125 4.574 11.5-.023 3.948 1.715 9.202 6.015 18.178l3.987 8.322-.539-15.5c-.931-26.78-1.229-31.379-2.33-36-1.555-6.527-1.372-19.726.352-25.409 2.13-7.02 1.987-7.695-3.08-14.578-2.514-3.414-4.347-6.43-4.075-6.702.272-.273 8.017-.166 17.21.237 14.352.628 16.976.994 18.574 2.592 2.301 2.301 2.355 5.014.19 9.577-1.698 3.578-6.5 7.272-9.463 7.28-2.183.004-2.7 2.282-3.855 17.003-1.176 14.988-3.468 81.737-3.494 101.75-.01 7.838-.036 14.25-.058 14.25-.022 0-1.777-4.162-3.9-9.25zm826.689-11.917c-4.128-1.55-5.25-2.439-5.246-4.153.01-3.3 3.601-8.515 7.43-10.774 3.354-1.978 3.427-2.167 3.974-10.21.653-9.63.683-15.292.16-30.18-.344-9.797-.612-11.133-2.477-12.372-2.604-1.729-2.62-3.186-.091-8.144 2.969-5.82 2.667-9.48-.901-10.96-6.17-2.554-9.504-8.784-7.91-14.777 1.31-4.921 5.53-6.722 15.811-6.744 10.586-.024 14.788.848 19.497 4.044 2.29 1.554 4.423 2.28 5.6 1.906 1.44-.457 1.903-.114 1.903 1.405 0 1.104-.457 2.29-1.016 2.636-1.328.82-.271 2.49 1.575 2.49 1.036 0 1.441-1.234 1.441-4.387V88.38l6.75-2.793c3.712-1.537 7.667-3.6 8.787-4.588 1.973-1.736 2.123-1.714 4.694.67 2.274 2.108 3.292 2.376 7.061 1.86 4.982-.683 13.925 1.57 17.351 4.373 3.995 3.267 3.78 5.492-1.163 12.067-2.513 3.344-5.404 6.344-6.423 6.668-1.25.396-2.075 1.963-2.53 4.803-.65 4.047-2.32 40.702-2.947 64.715-.165 6.325-.363 12.032-.44 12.682-.284 2.397-6.204 5.553-10.312 5.496-4.61-.063-7.346-2.068-8.16-5.98-.309-1.483-2.386-5.106-4.615-8.048-2.23-2.943-4.053-6.4-4.053-7.683 0-1.454-.753-2.571-2-2.967-2.19-.695-2.708-3.097-.804-3.732.831-.277.56-1.444-.892-3.833-1.149-1.89-2.4-4.91-2.781-6.712-.382-1.802-1.743-5.177-3.026-7.5-1.282-2.323-2.844-6.163-3.47-8.534-1.019-3.864-1.416-4.279-3.824-4-2.829.328-3.915 2.608-2.676 5.62.89 2.163 1.648 11.353 1.83 22.191.133 7.89.297 8.522 2.299 8.807 1.312.187 2.396 1.263 2.769 2.75.352 1.403 2.413 3.563 4.844 5.077 2.327 1.45 4.403 2.785 4.614 2.967.973.843-9.629 9.324-11.699 9.36-1.273.021-3.16.49-4.191 1.043-1.032.552-5.84 1.184-10.685 1.403-7.031.319-9.867.001-14.058-1.574zm53.848-56.892c-.221-.793-.32-2.229-.218-3.191.903-8.59-.385-18.026-3.207-23.5-2.832-5.493-3.563-5.96-6.473-4.143-1.29.805-1.665 2.036-1.376 4.51.218 1.87.797 3.649 1.286 3.951.49.303.89 2.047.89 3.877 0 1.83.672 4.615 1.494 6.19.821 1.576 1.496 4.745 1.5 7.044 0 2.513.652 4.824 1.627 5.8 1.913 1.912 5.055 1.534 4.477-.538zM18.156 188.81c0-.74-.9-2.16-2-3.155-1.24-1.123-2-3.08-2-5.155 0-2.963.307-3.345 2.684-3.345 1.477 0 4.554-.905 6.839-2.011 7.11-3.442 14.726-16.287 14.966-25.24.097-3.6.901-5.85 3.32-9.28 2.513-3.566 3.191-5.544 3.191-9.315 0-9.546 3.776-24.654 8.545-34.185 1.247-2.492 2.587-6.767 2.979-9.5.391-2.733 1.55-6.359 2.576-8.058 1.226-2.032 2.092-6.056 2.53-11.768.485-6.305 1.174-9.265 2.519-10.815 1.018-1.174 1.851-2.957 1.851-3.962 0-1.005 3.34-8.345 7.422-16.312 4.19-8.179 7.932-16.94 8.593-20.126.747-3.598 1.518-5.295 2.13-4.684.527.528 2.231 6.988 3.788 14.357 1.557 7.37 4.07 16.317 5.583 19.885 2.587 6.092 2.715 7.078 2.112 16.276-.567 8.657-.405 10.254 1.4 13.791 1.792 3.515 1.958 5.089 1.362 12.976l-.677 8.975 3.143 1.096c1.973.687 3.144 1.774 3.144 2.916 0 4.672-2.548 6.438-5.01 3.472-1.658-1.998-3.99-.166-3.99 3.134 0 1.687.564 2.378 1.941 2.378 1.068 0 2.22-.45 2.559-1 1.469-2.377 4.385-.868 6.41 3.316 2.466 5.092 2.648 9.413.603 14.307-1.129 2.702-1.222 4.052-.387 5.613.605 1.13.893 4.215.64 6.854l-.462 4.8 2.848-.57c2.423-.485 2.848-.25 2.848 1.577 0 1.18 1.357 5.14 3.016 8.798 1.659 3.659 3.293 8.385 3.632 10.504.707 4.424 2.93 6.298 11.523 9.714 6.023 2.395 9.45 5.272 8.368 7.024-.361.585-3.024 1.063-5.917 1.063-2.892 0-7.703.729-10.69 1.62-9.27 2.763-29.282 1.824-33.367-1.566-2.97-2.464-1.9-5.773 2.746-8.496 6.982-4.092 8.962-6.81 9.476-13.006.25-3.005.153-7.465-.214-9.911l-.667-4.448-11.907.548c-9.669.446-12.345.262-14.237-.978-2.115-1.385-3.322-1.323-13.065.674-5.904 1.21-11.072 2.62-11.484 3.132-.411.512-.515 5.861-.23 11.888l.517 10.956 8.29 4.392c7.201 3.815 8.122 4.597 7 5.949-2.252 2.716-7.415 4.21-16.484 4.77-4.843.298-10.719.744-13.056.99-3.978.42-4.25.29-4.25-2.033 0-3.321-3.31-3.313-8.215.019-4.226 2.872-4.785 3.007-4.785 1.155zm60.939-53.54c.963-1.8 1.216-1.811 5.55-.253 4.094 1.472 4.807 1.482 7.262.104 4.463-2.505 4.963-5.788 2.289-15.041-1.287-4.453-2.302-9.4-2.257-10.993.045-1.593-.305-3.136-.777-3.429-.473-.292-1.388-2.13-2.033-4.084-1.016-3.08-.938-3.724.585-4.838 1.647-1.204 1.566-1.626-1.284-6.683-2.877-5.106-3.014-5.844-2.53-13.63.46-7.414-2.137-27.208-3.404-25.941-.219.219-1.438 4.172-2.71 8.785-1.27 4.614-2.998 9.738-3.837 11.388-.84 1.65-1.843 5.894-2.23 9.432-.432 3.953-1.447 7.376-2.633 8.884-1.062 1.35-1.93 3.474-1.93 4.72 0 1.537-1.145 2.942-3.558 4.365l-3.557 2.1 2.725 4.847 2.725 4.847-2.668 6.663c-1.467 3.665-2.667 8.418-2.667 10.564 0 3.798.165 3.98 6.25 6.908 7.422 3.57 9.342 3.802 10.689 1.285zm1482.061 43.8c-9.075-.498-17.152-1.153-17.95-1.455-.963-.366.453-1.775 4.234-4.21 3.257-2.098 6.309-4.98 7.149-6.75 1.196-2.52 1.51-10.265 1.706-42.044.251-40.636.113-42.204-4.1-46.416-3.015-3.017-9.304-2.79-11.834.426-2.309 2.936-3.205 2.36-3.205-2.061 0-4.547 1.907-6.01 9.573-7.344 20.667-3.6 43.445-1.633 46.465 4.01 1.847 3.45 1.107 3.929-6.07 3.929-7.73 0-13.241 1.774-14.85 4.78-.646 1.208-1.152 14.639-1.33 35.334-.287 33.237-.278 33.41 2.072 38.605 1.297 2.87 3.04 5.783 3.872 6.474 1.098.91 5.523 1.179 16.14.978 8.046-.153 15.349-.488 16.23-.745 2.847-.83 7.057-10.069 7.633-16.747.988-11.455 3.747-13.218 3.803-2.43.02 3.988.23 11.795.465 17.349.65 15.362-1.25 17.093-19.547 17.813-5.476.215-13.106.62-16.956.901-3.85.28-14.425.102-23.5-.396zm-199.904-.997c-10.689-.82-12.304-1.493-13.55-5.651-1-3.332 3.312-7.267 7.96-7.267 5.293 0 7.015-4.392 6.65-16.96-.273-9.34-.252-9.437 1.684-7.684 1.291 1.168 2.188 1.407 2.625.7 1.008-1.631-.364-4.931-2.533-6.092-1.73-.926-1.932-2.186-1.932-12.041 0-6.054.693-14.36 1.539-18.458 1.126-5.45 1.253-7.984.476-9.437-.585-1.093-.791-3.07-.46-4.394.85-3.387-2.704-6.403-8.451-7.17-2.532-.337-5.107-.768-5.722-.956-1.317-.405-2.534-5.69-1.546-6.717.375-.39 3.572-1.45 7.104-2.354 5.096-1.306 7.182-1.417 10.107-.541 2.027.607 7.008 1.115 11.069 1.128 4.061.014 9.354.48 11.762 1.034 3.493.805 5.26.673 8.74-.657 2.744-1.047 5.703-1.448 7.97-1.08 2.21.358 5.083-.006 7.419-.94 3.434-1.374 4.114-1.37 6.853.047 1.672.864 3.648 1.572 4.391 1.572.743 0 2.34 2.037 3.55 4.527 1.789 3.682 2.199 6.281 2.199 13.935 0 10.806-.94 14.098-4.484 15.713-3.097 1.41-4.353.395-2.728-2.207 1.872-2.998 1.477-4.073-1.244-3.39-2.094.526-2.552.197-3.103-2.23-4.12-18.154-3.596-17.577-16.51-18.164-24.034-1.093-26.094-.352-29.387 10.567-.374 1.238-1.549 2.717-2.612 3.285-2.541 1.36-2.442 2.204.694 5.931 2.135 2.538 2.53 3.832 2.115 6.93-.456 3.396-.196 3.994 2.406 5.53 4.394 2.597 13.193 3.236 16.32 1.186 2.014-1.319 2.533-2.481 2.533-5.668 0-2.205.701-5.682 1.559-7.727l1.558-3.718 4.517 4.771c4.12 4.353 4.444 5.054 3.69 8-.453 1.776-.688 8.263-.522 14.416.287 10.673.2 11.242-1.91 12.371-1.987 1.063-2.041 1.28-.53 2.124 2.359 1.32 1.073 2.818-2.421 2.818-2.382 0-2.942-.428-2.945-2.25-.01-2.972-3.279-8.234-6.393-10.274-3.124-2.048-12.608-3.4-15.33-2.185-4.17 1.861-5.664 10.517-2.772 16.064.956 1.832 1.278 4.176.9 6.542-.67 4.183.957 11.318 3.058 13.42.774.773 3.183 1.69 5.354 2.037 5.54.886 8.664 3.608 7.853 6.842-.514 2.048-1.11 2.442-3.11 2.06-1.38-.264-4.4.459-6.831 1.635-2.396 1.16-5.002 2.045-5.79 1.967-.79-.079-6.117-.502-11.84-.94zm-1106.989-.882c-12.472-.71-13.52-.926-15.266-3.15-1.375-1.752-1.715-3.316-1.28-5.886.764-4.5 1.362-5.046 6.236-5.7l4.04-.541 1.081-6.212c1.358-7.797 1.36-10.685.011-14.232-.802-2.111-.652-5.578.6-13.87 1.994-13.186 1.664-36.588-.604-42.945-1.154-3.235-2.383-4.478-6.426-6.5-5.836-2.919-7.05-6.287-3.441-9.552 1.935-1.752 3.83-1.963 18.793-2.102 9.153-.084 17.318.172 18.145.57.827.397 10.054.416 20.504.042 11.216-.402 19.841-.299 21.054.252 4.028 1.829 4.841 4.708 5.444 19.29.613 14.825.19 16.5-4.166 16.5-2.962 0-4.704-4.061-5.772-13.459-.59-5.197-1.614-9.524-2.452-10.362-1.57-1.57-7.25-2.267-18.108-2.222-7.228.029-23.34 1.66-25.826 2.615-1.065.408-1.585 3.833-2.122 13.977-.921 17.383.313 21.634 5.948 20.484.55-.113 2.933-.335 5.296-.494 3.316-.224 5.369-1.199 8.999-4.276 4.418-3.745 4.703-4.281 4.704-8.874 0-4.765.077-4.889 3.001-4.889 2.492 0 3.32.657 4.892 3.875 1.775 3.634 1.817 4.782.685 18.5-.664 8.044-1.066 16.425-.892 18.625.288 3.66.094 4.026-2.284 4.302-2.312.268-3.017-.504-6.389-7-2.084-4.016-4.472-8.09-5.306-9.052-1.602-1.85-7.312-2.29-14.435-1.112-3.238.536-3.788 1.027-4.181 3.74-2.878 19.843-2.89 20.08-1.217 25.833 2.53 8.704 8.424 12.54 15.127 9.844 1.112-.447 2.84-.366 3.894.183 1.17.61 6.623.713 14.294.27 14.86-.856 14.964-.945 16.296-13.85 1.115-10.809 2.148-12.875 6.234-12.466 4.804.48 7.333 4.645 7.062 11.63a342.776 342.776 0 00-.211 11.445c.01 5.7-2.11 11.945-5.475 16.125-1.33 1.654-2.25 1.79-7.308 1.08-3.182-.447-7.361-.76-9.286-.696-1.925.064-4.4.072-5.5.018-5.864-.288-12.012-.176-21 .383-5.5.342-16.027.278-23.393-.141zm229.865-1.503c-1.91-1.357-6.397-3.38-9.972-4.498-7.701-2.407-7.645-2.37-11.821-7.736-2.264-2.91-3.18-5.06-2.974-6.993.218-2.064-.265-3.04-1.856-3.743-1.401-.62-2.355-2.19-2.739-4.507-1.122-6.782-.826-8.056 1.871-8.056 1.812 0 2.65-.674 3.108-2.498.916-3.652-.176-5.768-2.583-5.004-3.15 1-3.644-2.325-3.048-20.498.527-16.043.633-16.691 3.817-23.415 4.682-9.888 10.362-15.759 22.628-23.39 2.906-1.807 18.115-1.013 22.33 1.167 4.182 2.163 5.766 2.068 9.312-.554l2.965-2.191 2.745 2.046c5.733 4.273 6.722 7.534 6.734 22.206.01 13.233-.014 13.38-2.413 14.292-5.398 2.053-7.548.388-12.684-9.825-5.101-10.142-8.273-13.429-14.618-15.15-4.216-1.145-6.504-.784-12.4 1.955-6.39 2.97-14.568 17.301-15.99 28.025-.556 4.188-1.336 5.731-4.145 8.198-3.404 2.988-3.428 3.065-1.464 4.655 1.63 1.32 2.064 3.104 2.364 9.697.28 6.165.815 8.576 2.26 10.172 1.289 1.424 2.097 4.309 2.53 9.033.72 7.87 2.27 10.258 8.571 13.216 2.2 1.033 6.025 3.035 8.5 4.449 5.771 3.297 10.618 2.862 17.738-1.593 5.967-3.733 10.412-10.303 10.563-15.612.122-4.304 2.088-3.864 2.521.564l.322 3.29 2.885-2.763c2.447-2.344 2.717-3.084 1.778-4.868-1.377-2.619-2.761-3.569-5.227-3.589-1.056-.008-4.334-2.603-7.286-5.765-4.368-4.68-5.313-6.309-5.08-8.75.277-2.901.467-3.008 5.786-3.24 3.025-.132 9.56-.687 14.522-1.233 15.902-1.749 21.273 1.695 16.44 10.541-2.21 4.047-2.752 4.432-6.242 4.432-3.451 0-3.97.353-5.344 3.643-1.284 3.073-1.353 5.221-.44 13.75.669 6.25.736 11.252.177 13.107-2.19 7.264-3.487 8.278-5.113 4-1.487-3.91-6.477-3.327-8.765 1.025-1.461 2.78-11.897 5.137-16.16 3.651-1.971-.687-4.154-.727-6.29-.114-4.262 1.222-3.82 1.309-7.813-1.529zm51.028-41.533c0-.55-.477-1-1.059-1s-.78.45-.441 1c.34.55.816 1 1.059 1s.441-.45.441-1zm46.5 42.996c-1.1-.487-6.275-.66-11.5-.383-5.225.276-10.021.138-10.658-.308-.637-.445-1.478-2.51-1.868-4.59l-.709-3.78 5.919-2.616c5.394-2.384 6.283-3.244 10.046-9.717 2.27-3.906 4.433-8.34 4.807-9.852 1.419-5.74 4.266-2.204 5.555 6.898 1.472 10.39 2.062 10.921 12.983 11.697 21.47 1.524 26.692.78 31.609-4.5 2.906-3.12 7.294-12.694 7.306-15.94.012-3.127 2.817-5.905 5.964-5.905 1.998 0 2.221.375 1.718 2.888-.429 2.146-.046 3.366 1.492 4.75 1.886 1.698 2.028 2.7 1.61 11.362-.466 9.628-3.037 17.396-6.153 18.592-1.474.566-24.857 1.427-31.621 1.165-10.09-.391-18.669-.218-21.5.434-1.65.38-3.9.292-5-.195zm103.5-.169c-1.375-.575-7.225-1.334-13-1.687l-10.5-.64v-2.917c0-2.777.417-3.055 8.742-5.83 8.01-2.67 8.81-3.176 9.55-6.033.625-2.41 1.56-3.314 4.118-3.977 4.037-1.045 4.315-.795 5.025 4.522.517 3.867.906 4.342 4.565 5.574 7.511 2.528 28.862-.254 30.023-3.912 1.357-4.276 10.477-.474 10.477 4.367 0 2.451-6.47 5.323-14.946 6.633-4.095.634-8.944 2.078-10.776 3.21-3.15 1.947-3.545 1.973-7.256.488-3.495-1.398-4.383-1.409-8.1-.098-4.792 1.691-4.614 1.684-7.922.3zm186.25.51c-.688-.277-1.264-1.254-1.282-2.17-.028-1.454-.215-1.425-1.467.229-1.399 1.848-1.619 1.83-8.718-.755-4.006-1.458-9.169-2.648-11.474-2.646-2.305.003-4.494-.485-4.864-1.084-.41-.663-1.832.316-3.632 2.5-3.982 4.83-8.008 4.957-10.824.339-2.842-4.662-2.531-5.623 2.547-7.869l4.536-2.007-2.69-3.187c-3.205-3.795-6.33-10.344-6.36-13.329-.015-1.46-.845-2.348-2.61-2.79-2.21-.555-2.4-.878-1.297-2.207.755-.91 1.238-3.854 1.162-7.087-.19-8.136.96-10.474 4.966-10.087 2.932.283 3.581.998 6.75 7.445 1.93 3.923 4.05 7.771 4.715 8.552.665.781.964 2.355.665 3.498-.361 1.382.574 3.605 2.792 6.639a342.101 342.101 0 016.075 8.62c2.23 3.302 3.327 4.059 5.882 4.059 1.728 0 4.621.914 6.43 2.032 2.994 1.85 3.897 1.935 10.118.945 8.307-1.322 10.611-2.734 14.34-8.791 4.943-8.03 5.92-9.073 9.41-10.036 1.897-.524 5.03-2.748 7.103-5.044 2.37-2.622 4.571-4.106 6.093-4.106 3.124 0 3.009.939-.689 5.592-2.323 2.923-2.918 4.48-2.44 6.387 1.83 7.283 1.777 7.59-2.148 12.346-2.111 2.56-4.739 5.812-5.839 7.23-1.759 2.264-3.025 2.668-10.5 3.35-4.675.427-9.94 1.523-11.7 2.436-1.76.912-3.336 1.623-3.5 1.58-.165-.043-.862-.306-1.55-.583zm59.645-.362c-2.37-.56-4.483-5-3.544-7.447.297-.774 2.803-2.21 5.57-3.193 4.852-1.724 5.194-2.105 9.687-10.811 2.561-4.963 4.827-9.216 5.035-9.451 1.11-1.254 3.316 4.228 3.915 9.727.377 3.466 1.294 6.91 2.037 7.652 1.63 1.63 20.157 3.088 27.816 2.187 9.608-1.129 10.75-1.93 14.339-10.065 1.788-4.051 3.25-8.243 3.25-9.315 0-2.318 2.98-5.259 5.329-5.259 1.093 0 1.671.823 1.671 2.378 0 1.308.675 3.993 1.5 5.968 2.84 6.797 1.554 19.897-2.437 24.824-1.76 2.172-2.688 2.347-13.725 2.58-6.511.137-14.988.17-18.838.072-3.85-.097-8.125-.137-9.5-.089-15.885.562-30.292.67-32.105.242zm224.941.081c-2.015-.392-4.87-1.504-6.345-2.47-2.373-1.555-2.603-2.178-1.994-5.42.8-4.27 1.838-5.13 6.208-5.15 2.907-.015 3.27-.364 3.91-3.766.654-3.468.748-11.545.219-18.75-.121-1.65.349-10.385 1.044-19.412 1.82-23.618.398-31.591-6.316-35.395-7.029-3.983-7.316-7.604-.826-10.412 4.519-1.955 22.384-2.176 29.037-.359 3.156.862 6.303.89 12.05.102 4.279-.586 11.85-1.128 16.827-1.205 7.475-.116 9.5.191 11.658 1.77 3.696 2.705 5.714 9.345 5.574 18.34-.162 10.317-.943 13.506-3.396 13.859-4.162.598-5.46-1.755-6.36-11.519-.473-5.142-1.456-9.962-2.22-10.883-1.21-1.457-3.265-1.584-17.389-1.074-8.81.318-17.882 1.095-20.16 1.728l-4.145 1.15-.709 12.755c-.596 10.722-.454 13.25.895 15.858 1.557 3.01 1.76 3.085 6.853 2.521 9.521-1.053 14.963-5.747 15.136-13.054.096-4.033.416-4.77 2.073-4.77 1.116 0 2.994 1.507 4.362 3.5 2.349 3.423 2.384 3.786 1.613 16.5-.434 7.15-.713 15.138-.62 17.75.176 4.993.083 5.097-3.672 4.092-1.7-.455-3.178-2.463-5.31-7.215-1.625-3.621-3.49-6.924-4.144-7.34-1.691-1.076-13.9-.94-15.662.175-.903.571-1.784 3.563-2.278 7.735a839.697 839.697 0 01-1.374 10.997c-.679 5.017.894 10.284 4.272 14.298 2.32 2.758 2.922 2.94 9.664 2.917 3.954-.013 7.864.1 8.689.249.825.149 5.809-.098 11.076-.55 11.388-.975 11.409-.996 12.886-12.777.842-6.72 1.478-8.66 3.291-10.057 1.236-.951 2.535-1.74 2.886-1.752 1.734-.06 5.085 3.914 6.306 7.478 1.135 3.31 1.147 4.537.07 7.115-.755 1.808-1.086 5.009-.79 7.631.608 5.403-.962 10.702-4.004 13.51-2.107 1.945-2.877 2.006-14.99 1.202-7.63-.506-15.075-.47-18.5.092-6.541 1.071-29.906 1.076-35.395.007zm515.164-.007c-1.375-.413-5.678-.534-9.561-.27-7.519.512-24.082-1.393-24.998-2.875-1.066-1.724 4.398-5.855 8.643-6.533 4.639-.742 7.916-3.333 7.916-6.258 0-1.344.89-2.017 3.093-2.34 1.749-.257 3.233.02 3.416.637.178.6.603 2.357.943 3.906.874 3.977 6.27 6.102 13.56 5.34 9.521-.995 15.988-2.71 15.988-4.239 0-1.774 6.074-1.943 7.8-.217.66.66 1.2 2.258 1.2 3.551 0 2.845-3.541 4.542-13.007 6.233-3.571.638-7.49 1.803-8.708 2.588-2.42 1.56-2.627 1.576-6.285.477zm-183.5-1.081c-2.75-.293-6.673-1.306-8.718-2.25-2.045-.945-4.565-1.718-5.6-1.718-3.878 0-8.284-2.296-9.715-5.063-.81-1.566-3.246-4.272-5.414-6.015-3.933-3.16-6.053-7.186-6.053-11.495 0-1.25-1.125-3.61-2.5-5.245-1.375-1.634-2.5-3.807-2.5-4.83 0-1.022-.921-5.007-2.047-8.855-3.704-12.664-.3-30.165 8.002-41.131 2.775-3.666 5.045-7.433 5.045-8.372 0-1.256 3.104-2.902 11.75-6.231 15.78-6.076 17.564-6.313 27.508-3.65 6.736 1.804 9.155 3.022 13.242 6.667 6.264 5.588 8.21 8.52 9.061 13.66.37 2.233 1.97 7.951 3.556 12.707 3.336 10.007 3.912 21.455 1.383 27.507-.825 1.975-1.5 5.272-1.5 7.329 0 2.338-.936 5.117-2.5 7.422-1.375 2.026-2.5 4.352-2.5 5.168 0 3.022-5.965 13.057-10.165 17.102-5.457 5.255-13.243 8.048-20.335 7.293zm7.5-16.661c4.925-1.55 5.918-2.362 9.5-7.769l4-6.038.292-13c.215-9.6-.123-14.438-1.292-18.5-.87-3.025-2.432-8.587-3.47-12.36-2.264-8.23-4.621-10.97-11.732-13.63-6.46-2.417-9.178-2.505-14.08-.457-5.64 2.356-9.218 6.25-9.218 10.03 0 1.764-1.39 6.475-3.09 10.468-2.55 5.994-2.9 7.677-2 9.652.6 1.315 1.09 4.855 1.09 7.866 0 3.832 1.014 8.092 3.381 14.203 1.86 4.8 3.668 9.67 4.017 10.82 1.01 3.321 5.102 6.543 10.818 8.517 6.536 2.258 5.3 2.238 11.784.198zM168.21 173.548c-4.088-3.44-4.653-4.63-7.625-16.069-1.39-5.349-3.377-11.322-4.416-13.274-1.255-2.358-2.017-6.245-2.273-11.583-.266-5.569-1.048-9.405-2.548-12.5-1.19-2.456-3.259-9.428-4.597-15.493-1.339-6.065-3.37-13.49-4.514-16.5-1.144-3.01-2.08-6.695-2.08-8.188-.001-2.985-2.366-4.785-6.286-4.785-1.33 0-3.857-.502-5.618-1.116-2.972-1.036-3.18-1.404-2.899-5.155.278-3.72.617-4.149 4.302-5.427 5.983-2.076 18.206-2.729 26.069-1.393 10.943 1.86 10.576 1.61 10.232 6.925l-.301 4.666-5.608.603c-3.084.332-6.121.92-6.75 1.309-1.976 1.222-1.25 6.18 1.867 12.748 2.259 4.76 2.969 7.612 2.85 11.444-.087 2.807.236 5.732.717 6.5.48.768.748 2.164.594 3.102-.155.938 1.103 4.86 2.794 8.713 2.209 5.032 3.028 8.358 2.906 11.803-.1 2.816.511 6.115 1.48 7.988.907 1.755 1.65 4.013 1.65 5.018s.716 2.849 1.59 4.097c2.14 3.055 4.039 1.419 4.775-4.117.308-2.314.978-7.358 1.488-11.208 1.251-9.442 3.547-18.2 5.976-22.801 1.104-2.09 2.507-7.04 3.117-11 .61-3.96 1.845-10.095 2.743-13.634 1.63-6.42 1.628-6.437-.638-8-5.987-4.126-7.059-5.745-5.936-8.966 1.138-3.263 7.14-7.677 8.933-6.57.597.37 6.382.117 12.856-.56 15.363-1.607 21.215.11 20.565 6.031-.09.825-.233 2.253-.317 3.173-.083.92-1.341 3.087-2.795 4.815-2.016 2.396-3.38 3.101-5.75 2.975-1.709-.091-3.628-.12-4.264-.064-1.58.138-6.876 13.248-8.322 20.601-.65 3.3-2.22 8.7-3.49 12-1.27 3.3-3.294 10.725-4.496 16.5-1.203 5.775-3.502 13.16-5.11 16.41-1.609 3.25-2.925 7.427-2.925 9.281 0 4.238-3.379 14.48-6.617 20.059-2 3.446-3.013 4.25-5.348 4.25-1.646 0-4.21-1.118-5.98-2.608zm1530.601-13.22c-.91-1.007-1.653-2.92-1.651-4.25 0-2.663 3.429-8.922 4.881-8.922.503 0 .894-1.688.869-3.75-.044-3.59 1.624-9.454 4.973-17.477 1.28-3.065 1.326-4.004.264-5.284-1.382-1.664-1.954-4.944-2.284-13.09-.17-4.201-.957-6.17-4.457-11.159-2.337-3.332-4.256-6.661-4.263-7.399-.01-.74-3.353-2.624-7.473-4.207-8.46-3.25-11.242-3.118-18.765.887-3.1 1.65-5.563 2.313-7.133 1.919-3.367-.845-4.223 1.244-1.442 3.518l2.326 1.901-3.75 3.863c-3.965 4.084-4.726 7.223-2.25 9.278.825.685 1.5 1.865 1.5 2.622 0 .758-.675 1.378-1.5 1.378-1.888 0-1.89 1.025-.01 4.636 2.213 4.243 1.946 9.058-.577 10.408-2.009 1.076-2.019 1.186-.292 3.094 1.849 2.043 1.152 4.77-1.44 5.634-3.125 1.042-5.628-16.082-4.19-28.669.939-8.222.869-8.836-1.588-13.87-2.252-4.614-8.922-11.238-12.526-12.44-1.64-.546.051-3.44 2.721-4.658 1.375-.624 6.827-1.135 12.12-1.135 7.622 0 10.012.35 11.487 1.685 1.746 1.581 2.156 1.58 6.579-.005 6.068-2.175 7.837-2.123 10.943.32 2.898 2.28 5.093 2.495 8.694.854 2.24-1.021 2.998-.751 6.923 2.464 2.423 1.986 5.622 4.165 7.109 4.842 3.625 1.652 14.929 24.069 14.012 27.789-.332 1.347-.037 5.299.656 8.781 1.458 7.336.301 16.602-3.498 28.017-1.94 5.832-2.743 7-5.887 8.562-2.001.995-3.916 2.683-4.255 3.75-.788 2.483-4.624 2.546-6.826.112zm-965.2-3.627c-1.35-1.35-2.455-3.172-2.455-4.05 0-2.363 2.465-6.672 5.366-9.383 2.06-1.924 2.357-2.762 1.527-4.312-.786-1.468-.525-2.894 1.1-6.01 1.171-2.248 2.592-6.608 3.156-9.689.564-3.08 1.716-6.372 2.56-7.314 1.472-1.644 1.385-2.483-.596-5.787-1.534-2.558-3.159-13.52-2.496-16.837.531-2.655-.017-4.012-3.473-8.588-2.257-2.99-5.058-7.267-6.225-9.505-1.166-2.239-2.638-4.073-3.27-4.076-.632-.003-2.499-.725-4.149-1.603-1.65-.879-5.58-2.264-8.735-3.08-5.168-1.336-5.893-1.326-7.322.103-.872.872-2.618 1.586-3.88 1.586-1.261 0-3.497.947-4.968 2.104-2.069 1.627-3.461 1.956-6.148 1.452-4.122-.773-5.684 1.42-3.068 4.31 2.404 2.657 2.004 4.304-1.855 7.634-4.487 3.872-5.166 7.548-1.953 10.567 1.836 1.724 2.142 2.574 1.294 3.596-.61.735-1.739 1.337-2.508 1.337-1.092 0-.956.865.623 3.96 2.679 5.251 2.737 12.04.11 12.727-1.789.468-1.816.725-.427 4.048 1.335 3.196 1.32 3.708-.152 5.157-1.502 1.479-1.753 1.447-3.116-.392-3.219-4.34-4.371-11.583-3.899-24.5.252-6.875.72-13.699 1.041-15.164 1.165-5.317-6.62-16.257-15.89-22.332-2.248-1.472-2.477-2.004-1.414-3.285 2.528-3.05 7.563-4.219 18.163-4.219 8.473 0 10.781.32 12.145 1.684 1.507 1.507 2.382 1.551 8.321.425 8.792-1.667 9.539-1.612 13.026.966 3.006 2.223 3.88 2.247 12.247.337 2.18-.497 3.606.278 8.26 4.493 3.095 2.802 6.077 5.095 6.628 5.095 3.128 0 16.151 26.639 15.272 31.238-.275 1.437.27 5.682 1.211 9.434 2.207 8.799 1.569 14.3-3.535 30.472-3.648 11.562-4.224 12.702-6.73 13.328-3.246.81-6.241 3.298-6.241 5.183 0 2.245-4.913 1.522-7.545-1.11zm544.545-.045c0-.825.66-1.5 1.469-1.5.894 0 1.243.586.893 1.5-.317.825-.978 1.5-1.469 1.5-.491 0-.893-.675-.893-1.5zm374.524-4.31c-.288-.288-.524-1.768-.524-3.29 0-1.843.636-2.967 1.91-3.371 2.987-.949 4.641-3.378 3.248-4.771-1.574-1.574-1.456-2.758.275-2.758 2.008 0 2.809 3.233 1.593 6.433-.564 1.483-1.026 3.74-1.026 5.016 0 1.672-.69 2.45-2.476 2.791-1.363.26-2.713.238-3-.05zm-973.524-7.613c0-3.112.432-3.73 3.5-5.013 3.878-1.62 4.32-3 1.84-5.741-1.98-2.188-.958-3.707 1.458-2.169 1.765 1.124 2.143 8.047.505 9.254-.442.326-.803 1.942-.803 3.592 0 2.654-.375 3.036-3.25 3.313-3.115.3-3.25.166-3.25-3.236zm297.029-5.042c-.787-.948-.98-2.866-.547-5.428.596-3.53.385-4.148-1.932-5.666-2.676-1.754-12.245-3.469-21.033-3.77-4.125-.142-5.045-.515-5.34-2.171-.196-1.1-1.307-2.745-2.468-3.656-1.791-1.405-1.91-1.896-.787-3.25 1.891-2.279 5.393-1.975 11.213.975 4.534 2.297 5.771 2.494 11.717 1.867 3.656-.386 6.979-1.204 7.383-1.819.404-.614.741-3.96.75-7.433.023-9.55 3.025-13.15 6.519-7.819 1.193 1.82 1.313 2.986.523 5.065-.565 1.485-1.027 4.05-1.027 5.7 0 1.651-.496 3.928-1.102 5.06-.825 1.541-.78 2.663.18 4.455.916 1.712.974 2.703.204 3.473s-.636 1.845.466 3.766c2.135 3.72.966 12.116-1.687 12.116-.999 0-2.363-.66-3.032-1.465zm-365.029-2.516c-1.073-.68-1.462-2.556-1.366-6.593l.133-5.641-4.495-1.99c-2.775-1.227-5.862-1.828-8.066-1.57-1.963.228-5.33-.19-7.482-.932-2.264-.78-5.348-1.079-7.318-.71-3.193.6-3.406.47-3.406-2.065 0-1.888-.62-2.868-2.054-3.242-1.526-.4-1.976-1.21-1.75-3.157.4-3.445 3.751-3.933 8.188-1.19 1.844 1.139 4.446 2.071 5.784 2.071s2.874.442 3.415.983c.579.579 3.74.725 7.692.356 6.68-.624 6.715-.643 7.712-4.233.551-1.983 1.004-6.178 1.007-9.32.005-4.794.347-5.898 2.123-6.848 5.155-2.76 7.242 7.595 3.504 17.385-1.621 4.245-1.64 4.801-.203 6.238 1.23 1.23 1.337 2.028.487 3.616-.788 1.472-.787 2.341.002 3.13 1.172 1.172 1.454 8.745.463 12.443-.646 2.41-1.965 2.793-4.37 1.269zm635.58-.89c-.307-.496.112-1.458.931-2.138 1.21-1.005 1.489-.944 1.489.328 0 1.866-1.631 3.087-2.42 1.81zm-342.513-4.003c-.587-1.097-1.067-2.882-1.067-3.966 0-2.688-7.8-7.71-15.826-10.188-8.882-2.743-18.49-3.448-28.015-2.056-7.13 1.043-8.378.987-10.612-.477-1.54-1.009-3.473-1.423-4.93-1.058-2.097.527-2.476.185-3.023-2.73-.385-2.053-2.928-5.98-6.633-10.24-3.304-3.801-6.285-7.98-6.624-9.286-.95-3.657.378-18.506 2-22.39.798-1.909 3.344-4.992 5.66-6.852 2.315-1.86 4.844-4.61 5.62-6.109 1.774-3.43 8.309-5.412 20.885-6.334 8.086-.592 9.895-.38 17.781 2.078 8.625 2.689 10.758 2.79 18.907.897 3.612-.84 7.475 3.008 8.256 8.223.319 2.124 1.267 5.999 2.107 8.61 1.372 4.265 1.371 5.21-.013 9.285-.847 2.495-1.54 6.096-1.54 8.002 0 2.755-.395 3.465-1.927 3.465-1.843 0-6.073-4.292-6.073-6.162 0-.49-3.46-4.96-7.69-9.933l-7.689-9.04-5.06.686c-9.357 1.269-15.5 4.29-22.394 11.018-5.77 5.63-6.357 6.565-5.718 9.102.392 1.556.95 4.53 1.24 6.61.604 4.335 4.359 7.766 11.1 10.145 3.12 1.1 24.816 4.574 28.57 4.574.286 0 2.684 1.85 5.33 4.11 5.482 4.683 8.311 9.133 8.311 13.075 0 1.493.632 3.075 1.405 3.515.772.44 1.56 1.684 1.75 2.764.473 2.692-2.724 3.21-4.088.662zm334.933-6.067c0-1.618.437-3.21.97-3.54 1.162-.719 2.498 3.914 1.565 5.424-1.241 2.008-2.535 1.047-2.535-1.884zm-296-18.125c0-2.033 2.078-4.934 3.535-4.934 1.766 0 1.784.205.304 3.453-1.144 2.513-3.839 3.552-3.839 1.481zm58.479-3.326c-1.552-1.134-1.674-1.667-.664-2.885 1.033-1.245.82-1.598-1.288-2.127-2.398-.602-2.527-.987-2.527-7.556 0-3.807.45-7.2 1-7.54.55-.34 1-1.491 1-2.559 0-1.81-.789-1.942-11.75-1.95-6.462-.005-14.112-.292-17-.639-4.853-.583-5.25-.473-5.25 1.45 0 3.217-1.192 3.292-6.954.44l-5.335-2.64-3.105 3.7c-3.631 4.324-5.46 4.602-8.355 1.271-1.16-1.334-4.617-3.217-7.68-4.182-3.064-.966-5.571-2.099-5.571-2.517 0-1.69 4.677-3.874 8.298-3.874 2.77 0 4.434.652 5.919 2.319l2.065 2.319 6.869-2.023c5.641-1.661 7.582-1.833 10.858-.958 3.09.825 4.384.765 5.74-.264 1.267-.962 5.806-1.338 16.42-1.361 8.067-.018 15.396.248 16.287.59.89.341 2.3 2.253 3.134 4.247 1.427 3.416 1.397 3.723-.512 5.27-1.954 1.581-1.959 1.659-.14 2.135 1.475.385 2.034 1.779 2.55 6.36 1.587 14.095.838 16.519-4.01 12.974zm-426.872-3.19c-.973-2.534-.75-3.032 1.893-4.236 2.268-1.034 2.5-.928 2.5 1.14 0 2.189-1.646 4.678-3.093 4.678-.381 0-.966-.712-1.3-1.582zm63.643-2.642c-2.42-1.163-2.849-2.288-1.25-3.276 1.644-1.016 1.148-2.111-1.5-3.318-2.283-1.04-2.5-1.688-2.5-7.46 0-3.477.488-6.81 1.085-7.407.596-.596.934-2.02.75-3.165-.32-1.986-1.094-2.104-16.973-2.603-9.15-.288-17.364-.802-18.253-1.143-1.213-.466-1.77.154-2.237 2.488-.342 1.71-.77 3.108-.953 3.108-.181 0-2.038-1.159-4.125-2.575-4.664-3.166-8.38-2.703-12.814 1.595-3.738 3.622-6.232 3.817-7.052.55-.497-1.982-1.885-2.818-7.519-4.529-3.8-1.154-6.909-2.525-6.909-3.047 0-1.881 5.153-4.267 9.217-4.267 3.132 0 4.659.586 6.217 2.387 2.34 2.703 6.29 2.768 10.257.169 1.873-1.227 3.92-1.413 9.76-.884 4.104.372 7.635.27 7.943-.228.768-1.243 23.979-2.456 30.484-1.593 4.524.6 5.61 1.174 7.22 3.814 2.398 3.934 2.5 7.608.21 7.608-1.585 0-1.585.078-.003 1.25 2.073 1.536 3.906 10.936 3.497 17.929-.324 5.551-1.047 6.28-4.552 4.597zm305.75-7.257c0-1.831.674-2.65 2.573-3.127 3.683-.924 5.276 1.012 2.948 3.584-2.618 2.894-5.521 2.653-5.521-.457zm-368.664-6.086c-.984-2.563 1.029-4.933 4.19-4.933 3.225 0 4.058 1.372 2.237 3.69-2.003 2.55-5.654 3.257-6.427 1.243z"/>
</svg>