<!--
  SVG Music Logos
  Pearl Jam - 2006 Bootlegs v1.0.0
  https://github.com/tiagoporto/svg-music-logos
  Copyright (c) 2016 Tiago Porto (http://tiagoporto.com)
-->
<svg xmlns="http://www.w3.org/2000/svg" version="1.1" viewBox="0 0 948 124">
  <rect x="2" y="106.573" width="944" height="15.427"/>
  <path d="M2,2.2398v88.7279h21.6995v-18.806h78.1182V2.2398H2ZM79.6379,49.4984H23.6995v-24.5928h55.9384v24.5928Z"/>
  <polygon points="115.3205 2.2398 215.1383 2.2398 215.1383 22.2526 136.5373 22.2526 136.5373 35.9957 204.2888 35.9957 204.2888 57.6953 136.5373 57.6953 136.5373 72.1618 215.1383 72.1618 215.1383 90.9677 115.3205 90.9677 115.3205 2.2398"/>
  <path d="M226.7117,2v88.9677h22.0613v-21.6997h56.4185v21.6997h21.3373V2h-99.8171ZM305.1915,47.2074h-56.4185v-24.9548h56.4185v24.9548Z"/>
  <path d="M437.92,2.2398h-100.1793v88.7279h22.0612v-27.4857h16.277l27.1215,27.4857h27.8536l-25.6807-27.4857h32.5466V2.2398ZM415.4971,41.4208h-55.6953v-19.1682h55.6953v19.1682Z"/>
  <polygon points="451.3041 2.3617 451.3041 90.9677 547.5018 90.9677 547.5018 69.268 473.3622 69.268 473.3622 2.2398 451.3041 2.3617"/>
  <polygon points="568.4291 69.2713 644.7391 69.268 644.7391 2.2398 666.0815 2.3617 666.0815 91.3325 568.4291 91.3325 568.4291 69.2713"/>
  <path d="M679.0964,2v88.9677h22.0606v-21.6997h56.4192v21.6997h21.3374V2h-99.8172ZM757.5762,47.2074h-56.4192v-24.9548h56.4192v24.9548Z"/>
  <polygon points="790.1253 2.2398 790.1253 90.9677 812.5475 90.9677 812.5475 22.2526 834.1907 22.2526 857.3934 47.2074 857.3934 90.9677 879.0935 90.9677 879.0935 47.2074 901.9448 22.2526 923.2149 22.2526 923.2149 90.9677 946 90.9677 946 2.2398 887.9592 2.2398 867.944 22.2526 851.7938 2.2398 790.1253 2.2398"/>
</svg>
