<!--
  SVG Music Logos
  Pearl Jam - Alive v1.0.0
  https://github.com/tiagoporto/svg-music-logos
  Copyright (c) 2016 Tiago Porto (http://tiagoporto.com)
-->
<svg xmlns="http://www.w3.org/2000/svg" viewBox="0 0 946 182">
  <path d="M119.539 49.494c-.132-1.339-3.826-12.702-4.248-13.256-.357-.469-8.313-7.376-8.82-7.676-3.49-2.059-8.632-1.828-11.71-3.289-2.021-.96-2.126-3.179-2.857-3.307-2.321-.404-8.287 1.982-9.391 1.053-1.006-.847.626-4.472 2.997-4.008-.736-5.596-4.042-1.812-6.685-1.175-4.251 1.026-10.791 3.708-13.838 4.162-13.065 1.945-30.515-1.466-44.015-.016-1.126.121-6.057 1.741-6.352 2.147-.813 1.12.385 12.46-.11 15.391-.449 2.66-3.786 5.483-4.051 9.995-.163 2.785 1.221 5.07 1.083 6.957-.117 1.61-1.629 2.853-1.654 4.008-.024 1.095.984 2.251.52 3.867-.779 2.71-7.63 5.682-6.947 11.178.495 3.987 5.066 1.291 7.119 3.926.798 1.024 1.706 5.611 1.859 7.141 1.004 10.028-1.057 20.013.047 29.953.476 4.279 2.649 8.723 3.048 12.952.784 8.313-.389 16.846-1.051 24.994-1.053 12.964 12.092 6.754 14.03 8.53.323.296.026 3.97-.495 5.009-.421.84-3.405 3.18-5.242 5.174-1.102 1.196-3.592 3.617-3.066 4.164.568.591 3.264-1.359 4.197-2.25 1.223-1.167 2.512-2.831 3.217-2.95 1.198-.203 2.179 1.332 4.342.376 3.785-1.672 6.798-8.503 9.702-9.364 5.542-1.643 15.166 1.465 21.244-1.259-.182-3.556 2.196-8.165 2.165-11.401-.013-1.401-1.11-2.954-.931-3.883.252-1.304 2.902-2.08 2.922-4.115.025-2.589-4.193-2.714-4.905-5.155-1.731-5.939 1.312-12.186 6.474-15.217 8.439-4.953 11.538-5.986 19.396-12.559 6.212-5.197 6.814-3.592 13.252-5.793 1.034-.353 8.806-4.601 9.7-5.3 2.429-1.901 6.72-9.448 7.575-12.425 2.141-7.463 2.273-28.491 1.477-36.58Zm-45.72 30.337c-1.515.319-11.878.631-12.312.194-.23-.231-1.231-5.291-.431-7.503 1.161-3.21 4.471-1.835 3.476-7.974-.193-1.189-2.394.188-3.114-1.105-1.11-1.994-2.667-9.44-.88-10.686.329-.23 1.982-.136 3.716-.32 2.307-.245 3.578-1.327 6.635-1.665 2.332-.258 3.484-1.168 4.93-.639 4.509 1.65 3.047 5.637 3.14 8.391.164 4.832.212 9.292.57 13.979.332 4.341-1.359 6.406-5.73 7.327Z"/>
  <path d="M811.545 17.266c-2.047.833-5.944-2.888-7.584-3.271-3.286-.767-5.546 3.411-6.98 1.056-3.609-5.93 4.978-15.169 9.557-10.552.358.361.433 3.494 2.253 5.759 1.884 2.343 4.003 6.499 2.753 7.008Z"/>
  <path d="M264.887 2.546c.661.366-3.2 2.777-4.389 2.964-1.493.236-3.087.947-5.634 1.553-.988.235-2.21 1.891-3.249 2.306-1.443.577-2.52.939-2.681.8-1.266-1.093 2.259-3.723 4.011-4.212 1.994-.556 3.402-1.858 5.542-2.517 1.791-.552 5.738-1.26 6.4-.894Z"/>
  <path d="M329.514 71.034s1.051 2.648 0 2.986-7.001 0-7.001 0c.211-4.172 4.053-3.638 7.001-2.986Z"/>
  <path d="M939.51 35.027c-.94 2.605-3.47 3.425-6 2.991.87-2.238 3.776-3.137 6-2.991Z"/>
  <path d="M274.509 12.027c.562.493-2.386 5.135-2.96 5.533-2.462 1.703-6.265-1.703-7.039 3.458 4.265-.871 8.673.84 12.471 1.034 7.741.394 17.819-1.087 25.048-.048 4.397.632 4.126 8.153 4.687 11.308.261 1.471 1.445 3.013 1.545 4.367 1.357 18.376 9.027 36.516 11.18 54.914 2.293 19.601 6.02 40.467 11.309 59.691.672 2.442 2.796 3.786 1.277 6.751-3.01 5.876-13.398 1.168-16.58 3.425-.807.572-1.972 5.187-3.09 6.911-3.458 5.335-3.966 2.874-8.318 2.617-6.732-.396-10.924.938-15.563-5.43-.641-.88-4.692-6.767-4.811-7.189-.491-1.728.089-3.782-.331-5.669-.754-3.384-1.013-3.159-1.302-7.174-.108-1.491-.432-7.088-.6-7.42-.686-1.359-2.891-.951-3.279-.968-3.712-.156-2.356 4.49-3.148 5.302-.752.771-1.52.793-2.682 1.553s-1.732 2.007-2.107 2.236c-2.27 1.388-5.28.095-6.693 2.094-.809 1.144-.459 9.405-3.153 11.388-3.076 2.264-32.056 1.31-42.389 1.343-17.116.054-35.65-1.135-52.937 1.003-2.644.327-4.894-1.043-7.733.29-1.153.541-.637 2.895-2.81 4.987-.778.749-2.183 1.915-2.657 3.447-.462 1.495-1.93 2.513-2.768 2.813-1.016.363-2.004-.466-2.512-2.156-.628-2.091 1.325-4.155.564-6.114-.37-.953-.451-1.172-2.758-1.942-1.271-.424-.675-1.717-2.918-1.788-4.078-.13-8.984 1.615-12.474-1.538-2.677-2.419-1.995-6.105-1.785-9.473-2.524-.335-3.176 2.533-5.188 4.094-1.858 1.442-4.17 2.491-4.922 2.224-.726-.258-.19-1.975.828-3.318 1.029-1.359 1.228-2.865 1.8-3.362 1.253-1.087 6.118-1.778 7.323-4.172.124-.246-.256-2.728.132-5.175.308-1.944 1.41-3.919 1.415-4.354.043-4.007-3.068-4.89-3.878-7.189-1.095-3.107-.571-7.926-1.345-10.655-.398-1.404-2.517-1.505-2.81-3.255-.22-1.315 1.965-2.254 1.994-3.881.031-1.733-2.129-3.243-1.886-4.859.214-1.423 2.004-2.879 2.602-4.409 2.284-5.843.786-12.673 1.223-18.777.261-3.641 1.795-8.299 2.059-11.941 1.018-14.071-1.51-30.308-.066-44.066.363-3.46 1.741-6.205 5.487-6.513 16.769-1.378 35.933.603 53.095.095 4.918-.145 9.376-1.708 14.903-.996 6.387.823 6.037 2.713 9.119 6.886 2.72 3.683 5.503 5.364 4.243 10.375-.175.698-2.791 3.011-3.539 5.154-.575 1.645-.893 3.411-1.553 4.988-.775 1.852-1.87 3.405-2.146 3.619-1.722 1.337-3.261.619-4.89 1.11-2.36.711-4.272 4.381-9.362 4.545-2.412.078-10.727-2.509-11.931-2.168-.571.162-3.916 1.989-3.906 2.729 0 0 4.518-.235 5.176.141s.305 1.603-.604 1.948c-2.216.842-4.416 1.641-6.007 3.511-.843.991-2.307 1.744-2.4 3.459-.07 1.283 1.2 2.682 1.51 4.997 1.023 7.629 24.943 1.072 30.392 4.605.813.527 3.946 3.86 4.255 4.745 1.94 5.548 2.23 12.016-1.993 14.453-1.189.686.203 5.569-.781 6.384s-3.67.815-5.149 1.592c-2.035 1.07-3.138 2.425-4.593 2.739-2.182.471-3.729-.771-5.758-.892-2.55-.152-10.686-.053-11.436 2.625-1.362 4.858 1.516 3.006 5.185 3.632 1.122.191 3.352.64 2.66 2.206-1.633 3.692-6.232 5.293-7.419 7.59-1.105 2.139-.687 5.438-2.506 7.485.721.941 1.237 1.349 2.456 1.521 4.463.631 11.221-.093 16.056-.062 4.322.028 7.724.955 12.786-.153 1.783-.39 3.899-2.491 5.349-2.659 1.542-.178 5.133 3.012 6.293 1.808.174-.18 1.757-4.167 1.86-4.65.765-3.595-.186-7.971.251-11.745.53-4.568 1.371-9.38 1.982-14.018.273-2.07 1.894-4.29 1.892-6.049-.003-2.916-3.433-8.538-3.892-12.049-.254-1.939.294-10.045-.124-10.376-.438-.348-3.569.085-3.916-1.623-.634-3.119 4.234-4.067 4.838-6.106.66-2.228-.156-5.287.219-7.778.317-2.105 1.34-4.233 1.684-6.316 1.239-7.507 2.391-19.099 6.383-25.617 3.312-5.409 9.476-.542 15.181-1.824 2.911-.654 4.082-3.434 6.389-4.605 2.077-1.054 13.917-5.587 15.99-6.036 2.518-.546 3.983.319 6.305.837Zm.566 99.601c.56-2.259-.716-5.058-.59-7.057.137-2.162 2.415-4.249 2.858-6.247.838-3.778-1.209-7.166-.648-12.098.339-2.978-1.854-4.698-2.609-7.28-.77-2.633-.111-6.11-.811-7.189-1.518-2.34-1.443-5.634-2.93-5.634-1.976 0-.613 5.427-1.546 7.308-1.183 2.386-1.152 4.845-1.089 7.468.033 1.367 1.976 1.318 1.66 3.506-.192 1.325-3.033-1.345-2.84 2.912.071 1.575-.293 4.086.521 4.594 1.535.956 4.617.251 4.449 1.612-1.155 1.965-4.484 2.729-5.767 4.976-1.876 3.287-2.024 10.306-.133 12.435.699.788 9.474.694 9.474.694Z"/>
  <path d="M364.605 14.829c.144 1.587-5.876 2.813-7.153 3.2-1.061.321-.062 2.889.055 2.992.354.311 5.986-.165 7.533-.027 16.222 1.45 33.389 1.572 49.947 2.095 1.253.04 5.994-.497 6.525-1.07.879-.95-3.847-6.087 4.28-4.778 7.488 1.207 3.267 4.942 5.207 8.792 1.359 2.697 6.59 4.885 7.973 7.027 2.097 3.249 4.452 9.673 4.446 13.462-.002 1.234-.936 2.548-.94 3.973-.015 6.189.709 13.143.553 19.021-.03 1.145-.375 3.852-.716 4.816-.338.957-6.193 6.977-7.272 7.72-2.59 1.784-12.285 2.655-5.234 7.171 5.45 3.49 11.3 3.335 13.501 11.499 3.01 18.762-.874 38.094 3.255 56.78-.239 3.104-4.831 4.284-7.526 4.546-7.549.734-21.4.592-29.071.016-1.862-.14-8.236-1.239-9.26-2.24-1.869-1.828-.828-7.42-1.384-10.116-.602-2.919-3.019-10.794-4.003-13.993-.328-1.066-1.891-1.779-1.703-3.033.156-1.043 1.571-2.167 1.778-3.36.29-1.677-1.182-3.165-.792-4.634.672-2.525 5.645-3.23 4.946-8.163-.277-1.952-2.326-2.961-3.259-4.785-3.733-7.301-2.99-11.365-11.289-2.73-.551 11.601-.948 23.808-.519 35.538.068 1.862.939 3.72 1.075 5.925.118 1.906.298 8.516-.48 9.612-2.537 3.578-19.295-.167-20.507 4.566-.447 1.747 1.687 2.694.006 4.886-1.839 2.397-9.626 8.512-12.562 8.551-7.162.095-.796-5.506-.75-6.561.036-.812-1.451-1.993-1.566-3.138-.168-1.67 2.268-5.036-1.845-6.213-5.95-1.703-12.23 2.436-11.369-7.688.56-6.586 1.271-10.229.997-16.94-.152-3.723 1.126-7.348 1.016-9.944-.169-3.964-3.467-8.764-3.963-12.108-.462-3.113.352-6.731-.073-9.927-.898-6.745-3.018-14.098-3.017-21.049.001-9.416 5.104-18.138 1.871-28.802-2.211-7.294-.711-3.405.174-9.219 1.012-6.645.064-15.917 1.053-22.947 1.312-9.322 8.272-1.488 11.287-1.73 2.718-.218 5.893-2.397 9.13-4.026 2.196-1.105 7.151-3.393 9.645-2.97Zm20.235 31.435c-2.652.764-1.226 9.493-1.298 12.287-.05 1.942-3.361 6.529 2.471 6.529 1.664 0 5.075-5.487 5.948-7.108 1.843-3.422-.132-2.719 3.901-6.099 6.537-5.48-7.521-6.618-11.021-5.61Zm14.663 15.763c-3.048-.506-5.342 1.821-7.753 2.734-1.062.402-3.289.519-4.651 1.126-.941.988-2.455 1.361-3.671 1.976-1.144.579-.321 1.996.14 3.592.954 3.301 14.324 1.453 15.753-2.115.954-2.38 1.047-4.944.182-7.313Z"/>
  <path d="M454.51 22.022c1.562-.167 2.809-.898 4.464-1.039 10.097-.855 26.868-.694 37.08-.008 10.136.681 6.185 4.408 8.523 12.546-.351 3.284-3.454 15.426-1.097 17.025 3.038 2.06 6.763.224 7.027.477.952.913-2.631 4.081-2.814 5.648-.272 2.332 2.904 5.583 1.66 9.695-.753 2.49-5.879 3.897-5.843 10.156v31.5l6.981-.988c.494 3.589 2.19 9.667.528 12.996-1.363 2.73-6.138 3.578-7.05 4.948-.541.812-.775 3.622-.405 3.988.213.211 5.127 1.832 5.681 1.896 1.863.215 3.6-.974 5.754-.915 2.423.067 5.193 2.079 6.86 1.889 2.992-.34 3.471-4.233 8.092-3.806 4.733.437 2.853 2.158 3.769 4.24.801 1.821 2.663 3.129 2.811 5.298.16 2.342-1.661 4.295-1.782 6.109-.202 3.025 1.494 8.831 1.765 11.933.209 2.384-2.256 5.037-4.497 5.419-10.122 1.723-23.781-2.016-34.073.927-6.578.971-13.449-2.024-19.941-.942-4.375.729-5.762 8.657-9.812 10.269-1.725.687-3.219-.385-5.08-.252-1.667.119-3.578 1.541-5.601.986 1.28-2.429 1.414-5.609.809-8.309-.677-3.024-3.555-3.569-3.861-7.135-.599-6.986 1.416-14.508 1.081-22.08-.076-1.708-1.009-3.24-1.058-4.942-.252-8.721 1.24-21.005.039-29.039-.285-1.909-2.247-2.995-3.215-4.785-4.615-8.532-1.907-14.525-2.767-23.232-.214-2.166-1.724-4.757-1.688-5.99.031-1.049 1.987-4.309 2.433-6.21.594-2.531.367-6.131 1.405-8.596.788-1.869 3.349-1.864 3.77-3.283.683-2.306-3.162-4.705-1.514-9.464.304-.878 1.566-2.162 1.566-2.431v-14.5Z"/>
  <path d="M630.495 17.031c.373.641-.714 2.579.631 3.026 1.108.367 3.838 1.045 4.883 1.038 1.461-.01 2.736-.965 4-.981.813-.01 5.821 1.047 6.515 1.394 2.675 1.339 3.382 6.252 2.969 8.988-.243 1.609-1.564 2.926-1.613 3.99-.087 1.888 1.714 4.794 1.693 7.04-.066 7.317-1.141 14.538-.579 21.99.184 2.446.143 5.853.466 7.888.079.5 2.595 1.549 3.593 2.567 4.275 4.368.642 10.666-.487 15.606-3.223 14.107-3.991 25.47-3.091 39.974.107 1.725 1.105 3.211 1.021 4.885-.114 2.288-2.823 13.131-3.926 14.941-.512.84-1.838.873-2.495 1.665-1.34 1.614-2.59 4.413-4.589 5.456-1.239.647-11.694 3.236-13.526 3.474-2.848.371-5.988-.399-8.767.233-1.996.454-3.198 2.492-5.181 2.817-1.351.222-5.109-.341-5.429.073-.486.628.285 4.216-2.566 3.924-1.769-.896-.524-2.486-1.401-3.516-4.404-5.178-16.606-.374-19.906-3.682-1.247-1.25-.873-4.475-1.419-6.083-.404-1.189-1.593-1.967-1.99-3.008-1.564-4.113-4.327-14.76 1.7-15.716 3.896-.618 8.171-.059 12.235-1.765 2.52-1.058 11.962-8.533 9.271-11.225-2.502-1.483-8.472 3.395-9.996 1.995-1.004-.922 1.334-2.814 2.063-3.432 2.123-1.801 6.439-4.096 6.942-7.058.711-4.191.071-12.31.026-17.036-.073-7.662-.329-15.228-.003-22.943.071-1.671.276-10.093-.08-10.476-.105-.113-2.436-.762-3.009-.623-1.94.47-10.341 9.683-8.966.065.483-3.379 5.989-4.174 6.863-7.157 1.012-3.455-.407-7.413-.564-10.652-.046-.942.88-2.337.731-4.103-.144-1.709-1.72-3.811-1.674-5.102.034-.972 1.237-2.025 1.484-3.163.336-1.545-.06-3.233.345-4.655.243-.852 4.881-5.515 5.884-6.117 5.849-3.508 14.661 1.823 21.933-2.066.822-.44 4.815-4.516 6.005-2.471Z"/>
  <path d="M764.356 89.88c-.317.432-2.278.271-2.744 1.737-1.899 5.979 3.413 21.385 4.69 28.113 1.042 5.489 1.329 12.269 2.414 17.586.767 3.756 6.304 19.335 4.708 21.621-.224.32-6.638 1.781-7.602 1.8-3.334.064-9.265-2.313-12.329.769-1.713 1.723-.811 5.181-5.54 5.548-4.323.336-5.303-5.485-7.027-5.99-2.532-.742-4.824 3.701-7.753 2.864-.514-.147-7.433-6.042-8.123-6.946-1.475-1.932-2.173-4.804-4.394-6.595 3.118-5.695-5.664 1.145-7.143-.368-.174-2.035.128-4.421 1.514-5.981 1.715-1.932 5.857-1.725 6.392-3.608 1.117-3.931-1.786-4.496-5.41-4.494-1.647 0-5.304.687-6.781 1.303-3.584 1.496-6.779 10.148-3.28 12.851 1.791 1.384 4.731.062 3.491 3.361-.616 1.637-2.821 2.12-3.909 3.136-.709.662-.835 1.789-1.272 2.171-1.192 1.042-4.557 2.128-6.209 2.303-8.103.859-25.876.765-34.067-.011-10.195-.965-5.296-6.474-6.474-13.526-.365-2.182-2.958-3.666-2.961-5.984-.005-3.042 3.55-7.086 3.762-9.157.448-4.373-.114-6.366 1.133-11.929 2.369-10.567 7.622-20.331 9.094-31.906.317-2.494-.262-5.309.042-7.958.533-4.638 3.123-9.313 1.928-14.567l-2.495 1.992c-3.037-2.656-2.943-7.68-2.447-11.44.367-2.78 2.31-5.101 2.762-7.236.689-3.256 1.173-5.807 1.965-9.035.663-2.7.967-9.265 3.232-10.768.977-.648 2.835-.451 3.537-1.462.878-1.264.373-4.408 1.696-5.815 4.503-4.788 18.173-.633 24.143-2.348 2.74-.787 1.155-9.734 4.591-11.409 1.756-.856 10.358-1.717 12.561-1.512 2.735.255 6.079 2.186 7.514 4.479 1.872 2.991-.231 5.803 4.217 7.783 3.418 1.522 6.668.212 10.042.958 2.603.576 3.874 3.119 5.949 4.051 1.426.64 7.452.962 4.709 3.23-2.095 1.732-4.118 1.984-3.776 5.755.097 1.066.894 5.019 1.287 5.794 1.517 2.991 6.661 3.103 9.059 10.942 1.907 6.232 8.369 35.722 5.306 39.898Zm-48.847-23.86c-.271-.302-2.267-1.12-3.075-.705-3.143 1.614-1.588 8.183-1.972 11.159-.244 1.891-1.228 2.61-1.492 4.284-.458 2.903-.155 6.758-1.321 9.645-.009 3.861 3.578 1.654 5.073 2.543 1.014.603.932 2.664-1.221 4.567-1.316 1.164-4.6.418-5.155 2.256-.389 1.288-.093 6.334.281 7.637.831 2.894 8.424 1.734 10.883 1.618-.662-2.583 1.079-5.177.987-7.418-.097-2.353-2.169-5.593-2.01-8.044.132-2.038 2.238-3.393 2.018-5.954-.431-5.02-1.619-10.222-2.121-15.072-.117-1.126-.655-6.273-.875-6.518Z"/>
  <path d="M847.28 31.244c.266.282 3.1 6.725 3.086 7.113-.101 2.705-3.008 2.707-3.684 4.319-2.345 5.589.408 8.106 1.62 13.055.696 2.844.257 7.767 2.053 8.817.816.478 3.533-1.631 4.152-1.526 2.429.412-.492 2.718-2.03 3.176-1.28.381-2.671.788-2.964 2.33-.474 2.499 2.276 1.685 3.68 2.405 1.21-2.788 5.224-2.118 4.236-6.274-.602-2.534-4.259-3.996-2.921-5.635.744-.912 4.328-.01 4.591-1.043.832-3.27-5.328-5.247-4.557-10.432.903-6.068 6.24-5.031 7.485-7.511 1.822-3.629 1.705-16.836 3.686-18.814.729-.728 3.12-1.133 4.266-1.236 17.208-1.55 36.621 1.262 54.082-.016 6.924.756 3.636 5.463 3.421 9.519-.231 4.342-.963 12.475 3.059 15 3.824 2.401 9.723-.033 2.996 6.055-2.601 2.354-5.545 3.228-6.561 7.408-.559 2.302 2.426 5.46 2.562 7.612.145 2.292-1.916 5.625-1.025 8.453 4.611.18 5.531-5.906 10.051-.555 2.423 2.868-.311 3.398-.866 5.248-1.342 4.471-4.03 14.402-4.263 18.825-.086 1.627.873 3.346.594 4.559-.715 3.111-5.056 6.672-5.517 9.428-1.176 7.032-.837 15.387-.192 23.115.187 2.235 1.929 3.624.992 5.772-.444 1.016.226 2.912.164 3.92-.154 2.476-1.135 3.931-1.039 6.18s2.12 4.498 1.124 6.931c-.394.963-4.059 1.91-5.9 1.857-5.418-.156-6.997-1.636-6.148 5.726-3.751-.558-7.647 1.889-10.994-.52-1.324-.953-1.603-3.732-3.664-4.33-2.848-.827-10.823.126-13.408-1.593-2.675-1.78-1.028-6.234-1.016-8.088.016-2.453-.993-3.883-2.066-3.996-1.788-.189-4.047 4.125-4.856 1.521-.933-3.004 5.025-6.381 5.054-8.503.025-1.869-1.984-2.353-2.57-3.481-.78-1.5-.861-10.581-.329-12.357.439-1.465 3.572-3.2 3.559-5.166-.005-.775-1.514-2.759-1.753-4.951-.636-5.831 1.673-7.755 2.076-12.001.651-6.864.301-15.627-1.041-21.546-.296-1.306-2.833-1.173-2.996 0-.391 2.812-.569 6.564-1.082 9.426-1.309 7.298-7.643 29.365-5.732 35.316.363 1.13 2.801 1.422 2.837 2.749.099 3.651-5.374 4.18-5.802 5.651-.757 2.6-1.81 14.82-1.944 17.549-.09 1.84 1.437 3.066.259 5.34-.552 1.064-4.239 3.162-5.495 3.518-3.517.996-15.981.735-19.996.205-.953-.126-6.023-1.223-7.918-1.882-2.013-.701-.834-3.454-1.065-5.433-2.292-19.616-7.322-46.15-12.936-65.06-.472-1.591-.229-3.323-2.623-3.377-1.058-.024.029 7.221-1.23 8.684-.061 4.303.972 9.626.781 13.86-.126 2.774-1.972 5.892.192 8.228.809.873 2.996.847 3.6 2.889.61 2.059-.116 4.701.121 6.876.829 7.594 2.9 10.474-1.093 17.844-.67 1.237-2.378 2.099-2.739 3.283-1.197 3.927 4.723 13.944-3.67 14.296-10.173.427-7.981 2.677-15.773 6.238-3.518 1.608-12.454 5.245-15.45 2.554-3.463-3.112-.561-8.2-1.25-8.733-.547-.423-5.439-.358-6.556-1.952-.71-1.013-.547-3.27-.489-4.601.322-7.367 2.072-16.784 2.114-23.958.024-4.122-3.348-10.502-3.996-15.07-.362-2.554.33-5.217-.249-7.752-.393-1.72-1.884-2.734-1.888-5.175-.004-2.391 1.631-4.667 2.025-7.054.981-5.932 1.119-12.972 2.092-18.908 1.021-6.229 1.563-4.98.921-12.014-.2-2.186.479-4.833-.122-6.877-.662-2.254-5.43-3.433-5.808-5.253-.424-2.048 5.635-6.51 5.989-8.909.397-2.689-.939-4.626-1.055-6.964-.098-1.967-.275-12.893.117-13.439.242-.338 6.22-2 7.384-2.118 16.334-1.647 35.359 1.255 51.996.06 6.159.879 3.51 4.677 5.657 8.339 1.242 2.118 2.824 1.981 3.645 2.85Zm9.606 41.702c-.976.176-1.944-.605-2.882-.459-.6 1.871-1.567 3.562-1.847 4.602-.402 1.493-.305 3.109.361 3.935.094.116 2.893.116 2.991.003.353-.406-.222-6.579 1.378-8.081Z"/>
  <path d="M934.015 64.899c.21-.076 1.271.494 1.129.918s-1.151 1.2-1.634 1.129-.272-1.765.505-2.047Z"/>
</svg>
