<!--
  SVG Music Logos
  Pearl Jam - Stickman v1.0.0
  https://github.com/tiagoporto/svg-music-logos
  Copyright (c) 2016 Tiago Porto (http://tiagoporto.com)
-->
<svg xmlns="http://www.w3.org/2000/svg" version="1.1" viewBox="0 0 1000 1000">
  <path d="M479.7202,235.7696c1.9151,3.3117,8.3539,6.3363,10.2009,9.3755,1.4971,2.4634.9977,5.4783,2.89,7.626,4.6398,5.2659,12.4469,3.0996,17.1599-.9343l-5.6379-5.8558,3.7072-18.0344c3.5535-1.3103,6.4702-3.8774,9.8711-5.4241,1.9414-.883,11.2045-4.4491,12.7004-4.5896,3.3475-.3145,16.5494,3.4057,17.5938,1.8937,1.843-2.6684-4.5206-3.8062-2.8691-6.6754,10.2852,1.8545,16.7418-4.9526,26.1479-7.7962,10.2195-3.0895,21.0906-2.7969,31.6098-.7307,4.493.8825,10.9389,5.3106,13.5398,5.6765,3.6542.5141,4.5508-2.868,8.0723-2.4968,4.0515.427,7.5279,2.9148,11.2303,4.1279,4.8806,1.5992,8.0683,1.301,12.9518,4.2554,9.7238,5.8827,5.3346,10.9167,9.4524,18.2728,1.5549,2.7777,5.094,3.0615,5.5365,7.9437.3712,4.0951-2.7257,4.3289-2.9299,6.6373-.1816,2.053,1.7976,3.1892,2.0053,4.7963.5379,4.1622-4.232,3.5298-6.6612,4.7781-1.2574.6461-1.9944,2.4-2.9557,2.8475-2.1183.9862-8.7575-2.6832-12.0013-3.3076-6.4809-1.2476-18.8073.2766-23.649-3.8377-1.0508-.8929-.5848-2.7454-2.1326-3.8269-3.5694-2.4941-26.339-2.5728-31.4143-1.8912-3.9018.524-10.9923,3.5793-4.6115,6.3587,7.4311,3.2369,22.4477,4.7673,31.0355,7.2025,3.8473,1.0909,8.0407,3.7952,12.1821,5.025,12.3117,3.6561,22.5479,4.6283,35.366,9.5637,2.7364,1.0536,20.4494,8.5193,21.1342,9.4526,1.9449,2.6509-.0179,5.2415.1405,8.3789.206,4.0807,3.9023,8.5375,3.668,10.8058-.2426,2.3475-3.066,2.5779-4.3525,4.3165-2.0292,2.7425-1.0413,6.9078-6.6103,6.6511-4.9485-.2281-14.5861-4.7234-20.2439-5.6191-5.0196-.7947-5.6641.5581-2.2184,4.1313,6.2597,6.4915,23.5998,18.7535,27.0956,26.4375,1.3036,2.8653,1.7644,8.1782,4.3144,10.9808,1.2718,1.3978,3.4914,1.455,4.9091,2.7385,1.6813,1.522,1.7985,4.654,3.3834,5.2136,3.6404,1.2852,9.2025-.3413,11.3122-3.7364l13.3487-30.6251c5.3239-1.8708,8.6784-9.1188,12.4722-11.4265,2.2173-1.3488,4.8739-1.1734,7.1283-2.4314,2.7761-1.5492,8.538-9.1424,12.0475-11.8507,1.8066-1.3942,3.6809-3.174,6.181-2.8912,1.0356,5.118-3.7131,5.8126-6.2474,8.5602-4.2244,4.58-12.5383,12.45-15.5775,16.9248-5.4321,7.9981-9.595,21.4611-14.6386,30.2911-2.8254,4.9465-10.9643,13.8931-12.7437,17.8458-1.738,3.8609-.1443,7.1587,3.1945,3.1954,5.9225-9.1335,11.1443-18.5548,17.5131-27.4165,13.4094-18.6584,30.1137-34.2046,40.8151-54.78,1.3358-2.5683,1.6668-6.1458,3.1034-8.368,1.2549-1.9411,3.6056-2.4973,4.1799-3.4678,2.2111-3.7365-.261-9.9237,6.6617-14.3692.645-.4142,6.5401-3.5653,6.9234-3.672,1.9637-.5464,3.6274,1.6372,5.5802,1.7704,2.4377.1662,6.0942-1.8036,9.0401-.9287,1.2163,1.2146-6.2056,19.6304-7.476,22.6337-13.646,32.2602-47.4015,74.645-71.4886,100.5825-1.4689,1.5818-5.4553,3.4677-5.9884,5.5549-.7092,2.777,4.3681,8.4064,5.7798,11.0988,3.1343,5.9776,15.3054,29.796,11.8132,35.1047-.9256,1.4071-5.3181,1.4642-7.1404,2.4152-4.2103,2.1972-8.2149,5.2087-13.409,6.7026-.5222.1502-10.0911-.5275-10.842-.7449-.8785-.2544-5.7981-5.0507-6.419-6.009-2.8336-4.3737-5.2276-11.4338-8.7408-16.1138-.818-1.0896-1.0169-1.951-2.7116-1.5807.3062,3.4871-.4912,7.5454.0523,10.9321.4107,2.5588,2.6416,4.561,2.7776,6.7972.1297,2.1342-1.0685,17.8577-1.6468,19.3022-.8168,2.0403-4.2585,4.4065-4.7949,6.6989-.0729.3114-.1998,5.9597-.1555,6.3941.2968,2.912,2.9837,4.4287,3.5653,6.9469,2.2046,9.5444,3.2073,19.6318,5.2147,29.1982.2074.9882,1.8859,2.0159,1.6816,3.0828-.4472,2.3356-3.8551.4983-5.161.5834-1.5647.1021-2.9207,1.0249-4.7952.8726-3.3458-.2718-8.2482-5.9753-10.0721-4.7274-3.2288,4.2512-1.4299,17.179-3.7954,20.4198-.8147,1.1161-1.8675.4301-2.9463.5661-.9347-4.5004,1.7629-9.6031.9395-13.8419-.4656-2.3971-2.6415-2.9613-3.5673-5.0484-5.6546-12.7472-1.5849-25.9352-4.1063-38.9114-.3111-1.6009-3.2228-6.9391-5.1606-7.1711-.7961.1732-9.5823,10.9506-10.5322,12.4325-1.8248,2.8467-3.4515,9.0805-5.8084,11.3987-1.3337,1.3118-3.58,1.5959-5.7235,3.836-8.4682,8.8503-15.3747,21.1533-23.8665,30.6227-6.1601,6.8693-17.5692,15.1974-22.5056,21.4681-3.7691,4.7879-6.7158,16.5101-10.6575,22.8008-2.3109,3.6881-11.6561,15.2509-15.7315,15.7052-3.5759.3986-9.1022-6.0078-9.7471-9.0635-1.1489-5.4434,5.6562-9.5425,4.6115-15.5499-.5176-.5443-9.8781,3.6634-11.4376-2.419-2.1282-8.3001.5832-11.1065,6.6506-16.239,2.0772-1.7571,9.3318-5.6831,10.0578-7.1498,1.3939-2.8162-.6981-6.904-.2625-10.7306.5974-5.2484,3.7693-7.9519,5.2592-11.9949,1.2002-3.2569,1.2288-8.4174,3.2422-12.0531,4.4132-7.9692,30.7259-34.38,38.5739-40.77,4.7279-3.8496,11.4607-4.5199,10.0426-11.893-1.5508-8.0636-11.3998,2.0201-15.0453,4.0224-6.0889,3.3443-16.4744,6.5007-21.5795,9.9659-6.8398,4.6427-7.6775,9.0681-17.5965,12.9949-15.2111,6.0218-30.6645,3.5212-46.4917,2.2688-1.9103.6576-2.7994,7.6775-5.5996,8.7956-2.101.839-5.1533.186-6.2843.8313-.6147.3507-.6638,2.8307-2.7515,3.4553-4.7637,1.4252-12.2282-.1517-17.014,3.0423l-1.0067-.9527c-.4176-.589.9388-3.5357-1.0927-4.8621-4.2956-2.8047-16.8915-5.2079-22.8078-7.5411-14.9444-5.8938-26.8748-13.6251-40.7026-20.4782-10.0655-4.9885-22.562-8.2378-32.4356-13.4501-6.6165-3.4928-13.254-11.6595-19.3576-14.1077-1.2157-.4876-2.0705-1.4217-3.0996.1742-1.0852,1.6829,1.7402,18.8535.461,22.5464.6785,5.1863,12.7346,10.1563,17.1915,13.3989,11.8989,8.6571,21.574,19.8926,32.5529,29.5839,16.3759,14.4552,67.5157,54.4884,69.7957,75.5005,1.4338,13.2138-5.5468,14.756-14.836,7.1967-8.9768-7.3051-17.6313-21.8843-25.7788-30.6222-1.9261-2.0657-10.395-9.697-12.4534-10.4942-1.418-.5492-1.5177.2155-1.4343,1.4224.4631,6.7029,5.5685,19.3693-6.6849,9.5696-10.937-8.7469-11.7735-15.9399-17.643-27.287-.7631-1.4752-3.1937-3.8672-3.2972-4.3985-.4788-2.4571,5.0113-1.8064-2.635-7.8317-15.1777-11.96-30.1683-14.5969-41.7938-31.815-1.0208-1.5119-1.2337-3.7999-2.2689-5.3787-.7441-1.1349-12.2684-9.2936-13.3304-9.6053-3.2616-.9575-9.7212.2997-11.8056,3.0834-2.1667,2.8934-1.3599,9.7126-4.7146,12.0051,1.6358-2.2205-1.0546-6.7773-.9761-7.1459.1489-.6991,7.5289-3.3754-.8988-7.7175-3.3708.6377-13.6356-5.411-14.8589-8.1069-1.4747-3.25,1.1914-5.8082.3173-8.8353-.4188-1.4503-2.6592-2.5964-3.2497-4.4603-1.0083-3.1825.4457-7.1801-2.8079-9.601-.7572-.0278-3.0767,10.4388-3.8216,12.411-.7155,1.8945-2.2805,3.2874-3.099,5.5046-1.9728,5.3443-2.8831,12.1878-4.0742,17.8453-.5065,4.2259-6.7287-5.4328-7.2644-6.0492-2.3848-2.7441-5.6337-7.8457-7.0277-9.2235-2.1849-2.1597-5.5499-1.3808-6.539-5.9012-.5469-2.4995.6432-10.8323,1.1136-13.9329.173-1.1406,1.6256-2.1384,1.6607-4.0151.0511-2.7325-2.8086-4.1364-2.8644-6.6511-.0796-3.5829,7.7524-20.6364.3506-21.6134-6.2452-.8243-6.4868,6.14-8.3493,8.4203-.4809.5888-12.741,7.0621-13.5543,6.8878-2.0222-.9124-1.0791-4.319-2.3884-5.276-1.8613-1.3604-8.689.5957-11.4107-1.4972-.4798-2.0217-.6549-12.3435-1.2045-13.1355-.5152-.7425-4.2394-.0662-4.5008-3.6763-.1629-2.2497,8.0997-14.0265,8.5107-19.8739.5406-7.6901-5.4405-13.2411-5.8035-17.2771-.2008-2.2323-.2498-15.1634.0636-17.0732.3931-2.3956,2.1791-3.9942,2.5973-5.9996.9292-4.4553-1.4708-10.731,3.6622-13.5449,3.1959-1.752,9.8287.0783,8.8268-6.1095-.2836-1.752-6.1778-10.2817-7.6598-12.4765-5.156-7.6359-14.788-21.6899-21.3459-27.4076-1.9528-1.7026-8.3825-3.3841-6.029-7.4728.283-.4916,3.7709-2.1984,4.8375-1.9555.6786.1545,10.1054,6.4088,11.7311,7.4923,8.7664,5.8429,16.6988,13.3093,24.3731,20.5566,2.3524,2.2216,3.6188,6.3055,7.3747,7.0521,4.3928.8732,4.6587-2.8781,7.0274-5.03,1.2692-1.153,4.1513-2.0947,4.7555-3.1313.8864-1.5206.4008-4.402,1.482-5.1824,1.9595-1.4144,10.432-3.2082,13.4575-4.496,5.8416-2.4867,12.6189-8.1303,16.798-9.9687,3.4741-1.5283,9.776-1.6138,13.086-3.1652,1.9206-.9002,6.1713-7.2878,8.6382-9.5249,2.7448-2.489,11.3433-7.0003,12.5084-8.5218.6581-.8594,1.4088-2.6426.8829-3.406-.2496-.3624-7.6861-2.5868-8.3767-2.6987-3.9932-.6472-8.3019,2.198-12.6475-.1901-1.2643-1.7836,6.0145-6.298,6.5536-8.3292.4915-1.8521-1.6938-7.0143-.8116-7.8957.1365-.1364,2.7017-.0029,3.8327-.4475,4.3582-1.7132,8.8465-6.2316,14.8561-7.1593,8.4886-1.3104,22.8582,4.2664,27.9035,2.0869,3.726-1.6096,3.6142-6.0385,6.023-8.3084,4.1086-3.8717,7.665-1.0041,7.6898-9.6168.0052-1.7933-1.0675-4.8789-.8913-5.6434.4148-1.7996,4.3015-2.0307,5.1696-3.4392.8044-1.305-.6168-2.8239.3125-4.3322,1.843-2.9914,8.4234-3.707,11.5946-2.863,2.3967.6379,14.2645,6.3012,17.0909,7.7735,6.0389,3.1459,12.7346,8.7484,18.8459,11.7446,16.7541,8.214,23.9935,7.2293,39.6113,20.6136,7.1427,6.1213,3.1643,4.1285,6.9797,10.726ZM377.7499,218.2346c-1.0064.0065-5.437,1.0813-5.4185,2.0822,1.9641,2.3257,5.7839,2.753,7.973,4.4356,3.8973,2.9955,5.3418,7.1365,11.4221,9.6088,8.1971,3.333,16.495.0231,22.9314,1.9233,2.7458.8107,5.1143,7.8671,9.2698,3.1398.616-3.4461-2.9365-3.3355-4.718-4.8236-13.3539-11.1545-15.6364-11.5064-32.7939-14.0487-2.7655-.4098-6.2232-2.3331-8.6659-2.3174ZM645.7102,252.3361c3.0548-2.9524-7.8295-7.0363-7.6241-3.341.082,1.4753,6.4616,4.4646,7.6241,3.341ZM521.4412,269.5481h-14.8172c-.4723,0-8.2332-3.3801-8.6635-3.7639-2.3217-2.0705-.7978-5.6407-6.6562-5.8564-12.413-.4569-12.96,23.0404-19.0946,23.033-7.2376-.0086-2.1808-12.7928-4.5363-15.0949l-10.9762-2.8803c-17.3854-2.8505-30.3556.0905-46.7403,2.5346-3.1742.4735-17.0211-.9907-9.9528,6.3616,3.7267,3.8764,5.9708-2.5623,10.1126-3.3317,4.4923-.8346,8.4003.7273,12.3826.9188,1.7603.0847,3.9251-1.4542,5.6106-.9013,2.2273.7306,1.0521,3.96,2.0577,5.6529.6859,1.1548,6.9656,3.8823,2.9242,6.7782-1.3212.9467-14.1395,2.1957-16.2858,1.7991-3.3134-.6122-10.6255-8.4306-14.7337-5.5599-.5141.3592-1.6219,7.0287-5.904,9.8638-10.1718,6.7346-28.4984,11.0314-40.4179,17.8951-9.5524,5.5006-17.5177,12.945-24.5276,21.3727,1.0048,4.0767,1.9956,1.1548,4.0971.2572,3.949-1.6867,6.8303-1.9999,10.5354-4.7583,2.6882-2.0013,4.8839-6.082,6.4192-6.9641,1.2492-.7177,3.1542-.5372,4.4566-1.2791,4.7215-2.6894,8.7411-6.9624,14.622-5.9214-.3361,8.1336-9.1809,10.6172-11.262,17.5243,3.0787,8.3272,8.3712,16.6399,11.4719,24.8036,1.7336,4.5643,4.7589,13.7765,5.4582,18.4414.3113,2.0764,1.8245,14.6431-2.2935,13.7777-2.6506-.557-6.456-13.1377-9.6068-13.4395-6.4906-.6217-6.4679,12.6802-7.5744,16.3679-1.1003,3.6672-5.1423,3.6847-1.3413,8.89,1.6224,2.2218,3.5894,2.6808,5.154,4.4043,9.4487,10.4087,31.5091,31.2419,44.2143,36.0856,4.1707,1.59,10.7298,2.0696,14.7609,3.4022,9.9696,3.2956,20.1437,8.2151,29.8756,11.2303,4.4856,1.3897,7.9996,2.5886,12.9218,1.9023.9971-5.8329-3.2618-10.2246-1.7764-16.1088,3.8246-2.5846,6.3341,1.346,10.3716.8054.8309-4.5278-4.0944-7.4656-3.7932-11.8911.2186-3.2114,2.9322-4.1893,4.2461-6.3338.644-1.051.2245-2.8735.6914-3.5611.6508-.9583,4.344-.9021,5.7525-1.4322,1.7603-.6625,3.1327-2.5195,5.0522-2.5311,4.3043-.0258,10.5159,10.7407,16.7382,8.5506l-1.911,7.6391c5.3751.0174,8.9783-4.4574,6.6896-9.5485l7.0796-.8029c2.5654.5861,2.6166,11.4821,7.7349-1.0964.7744.7946,1.8462,1.4265,2.1918,2.5693.8178,2.7038.462,15.3428.1902,18.9129-.4408,5.7915-6.1136,13.8906,4.3039,13.8761,16.8131-.0233,20.0418-8.3239,32.626-14.2282,5.0964-2.3912,10.4348-2.6161,15.3478-4.7272,18.6327-8.0066,39.2778-32.9841,48.8688-50.55,1.0511-1.9251,4.2195-7.2682,4.5568-8.8751.512-2.4398-1.1059-3.5981-1.3019-5.4912-.1165-1.1252,1.4713-8.8858-2.5732-7.9036-1.3503.3279-9.3411,16.6682-11.1822,19.417-1.6683,2.4909-4.3654,6.9616-7.4655,7.3421-1.2733-1.3645,11.3752-29.5819,12.0101-35.3406.5224-4.7391-3.8603-4.0779-3.4064-6.2248,2.4639-2.9497,5.8657.5854,6.487-4.0786.7346-5.5151-4.6204-6.7711-4.6219-9.3211-.0013-2.1411,3.6205-3.0985,2.9427-5.7059-6.3203-3.6082-13.4087-6.9403-19.0724-11.5783-14.0525-11.5075,1.4128-7.6878,6.3806-13.051.9915-1.0705.7284-3.4027,1.677-4.5427,1.6576-1.992,8.8274-1.5996-.7743-5.9407-8.4946-3.8405-37.5133-13.1668-46.1941-14.0275-3.8526-.382-7.8936.631-11.0131.3128-3.3538-.3421-10.8368-5.4006-12.6342-5.0639-3.693.6919-1.5844,4.6048-1.7948,5.9557-.5063,3.2505-7.8034,2.8088-10.2445,3.981-.848.4072-14.2104,15.3818-14.3944,6.6919-.0851-4.0195,13.1997-12.5636,10.5241-19.6438ZM631.8537,344.1309c-2.5687-.0584-1.9874,15.1567,1.8982,14.3158,5.8601-1.2682-.7714-14.2902-1.8982-14.3158ZM349.3649,410.0774c-3.0181-.0304-5.4439,3.5992-2.3706,5.7219l2.3706-5.7219ZM638.0234,414.881c-.1379-.1145-2.7182-.1221-2.8192-.0237-.6838.6665,3.0788,13.7692,3.5974,15.99.408,1.7468-.0893,3.8015.3776,5.3577,1.048,3.4933,6.3162,1.0411,5.6143-3.6164-.2918-1.9362-3.4621-4.4173-4.3597-7.1974-.5071-1.5706-1.6982-9.9191-2.4105-10.5101ZM629.5827,443.6371c.5616-.6273,4.0129.3345,4.6595-3.495.2692-1.5944-1.1701-18.0402-1.922-18.5956l-11.9361,12.4936c-.1354,6.3823,1.2545,12.8835.2473,19.3-.9331,5.9444-5.8213,12.8706-7.4188,18.8602,1.8778.4024,2.5689-.4327,3.8679-1.3805,2.8344-2.0681,12.8413-15.0593,13.3397-18.2802.3661-2.3663-1.8119-7.8143-.8376-8.9026ZM674.8065,468.9756c-.9242-1.5382-.781-3.8971-3.272-3.4526-3.0663,4.0719,1.025,11.1038,4.3288,6.7217,1.8931-2.511-.7958-2.8348-1.0568-3.2691Z"/>
  <path d="M534.8292,601.2587c2.2935.2968,1.5275.0299,2.0143-1.3237,1.4893-4.141,2.2716-17.8411,9.737-15.7563,3.8617,1.0784,9.6276,18.5996,9.2645,22.2519-.5245,5.2763-4.7573,7.7806-7.6477,11.551l-12.4209.4844c1.4475,13.8569,1.2641,27.7519-1.0502,41.4896-2.2905,13.5962-6.1509,30.3013-9.9339,43.5994-.7682,2.7003-3.4104,5.0134-2.3986,8.5975,9.8832-.9409,20.3823,6.8138,27.271,13.3614,12.5686,11.9462,22.2476,27.1682,32.9539,40.6543,16.1698,20.3683,34.4772,37.7134,46.8619,61.1606,2.8784,5.4495,4.2692,12.1369,7.2115,16.6873,5.5807,8.6309,26.7895,27.3568,28.5039,35.4045.6584,3.0909-2.2104,5.6948,3.9979,6.6574,13.4791,2.0899,29.2923,4.3373,42.9682,4.8303,12.4581.4491,17.4925-4.7414,31.0965-1.4623,8.3687,2.0172,31.764,13.0252,36.7927,19.6093,8.1955,10.7303-1.1757,8.6312-3.4519,11.8955-1.3324,1.9107-.531,4.1413-1.3873,6.2572-1.9271,4.7619-9.8844,7.7564-10.7943,12.2071-1.0998,5.38,9.1972,17.6237-3.0003,20.8323-9.9311,2.6124-11.405-4.4595-16.8367-5.2817-3.7918-.574-9.0172,2.3073-12.8603,1.5466-5.3661-1.0621-13.3981-9.2887-18.1971-12.4762-6.5673-4.362-24.8671-16.4575-31.4506-18.2542-5.6756-1.5489-11.5843,1.757-17.2325,2.4128-.2476-2.1751,2.2486-2.7853,1.9494-5.1823-.1796-1.4384-1.798-2.3652-1.8703-3.8395-.1163-2.3717,2.666-5.2987-1.7083-7.0376l-34.2075-4.0264c-4.7413.8884-.7079,6.2318-1.4578,9.5709-5.039-.9702-12.5793-1.7278-17.6316-.9059-3.2833.5341-9.8958,6.4821-13.0028,4.3146-2.2973-1.6027.4582-4.9915-.0009-6.6583s-3.8018-.7837-2.8128-3.4242c.9343-1.0533,13.8654-3.6606,16.5813-5.6705.8287-.6133,1.4716-3.4271,1.4962-4.4829.1548-6.6289-3.9559-3.7059-8.5185-3.2439l-.0568-2.7692c-.9885-.94-6.1965,1.4682-5.6736-1.5202.942-2.3424,16.7236-9.2949,20.0821-10.513,2.3979-.8697,4.8044-1.7637,7.3079-2.3084,2.9033-.6317,8.9716.8779,7.8325-3.2896-.2118-.7749-8.3658-8.9775-9.4919-9.6413-8.2541-4.8654-17.5017-6.9237-26.2172-13.9328-6.677-5.3697-28.6292-29.9717-31.542-37.2817-2.1896-5.4952-.5512-5.5664-.4677-10.0381.0406-2.1717-1.1499-3.1377-.5451-6.2126,1.3431-6.828,9.6935-1.4653,3.5919-13.0996-10.3069-19.6528-26.0938-38.5128-39.4073-56.2308-.7172-.9544-2.2062-1.0752-2.8973-2.083-.459-.6694-3.6528-9.1389-4.2479-8.8829-3.0843,3.237-.5186,7.8851-.4373,11.8998.0505,2.493.3807,19.5588-3.6708,12.2738-2.237-4.0222-2.8984-16.6322-7.3812-18.4341-1.991-.8003-1.3246,1.3314-1.4102,2.378-.2931,3.5803.3014,8.0047-2.4005,10.9782-3.9578-3.7701-1.2406-9.6587-4.4193-14.1897l-4.2523.7632c-14.127,17.7641-30.1102,34.81-43.262,53.2829-1.0662,1.4976-1.4475,3.4493-2.6191,5.0285-1.122,1.5123-6.2869,2.8301-1.1314,5.0825,5.5404,2.4205,15.6747-.3399,9.3446,11.7358-9.7932,7.2584-28.0848,11.8077-36.8475,19.5521-4.9771,4.3987-9.6989,12.9558-14.3058,18.1966-5.1518,5.8607-11.8959,13.7567-17.1817,19.1441-1.7735,1.8076-11.2689,9.7908-7.4335,2.1259,1.7365-3.4703,5.4057-4.7044,7.2981-7.0407,1.0442-1.2891,5.5482-9.5286,1.0786-8.4946-1.0568.2445-10.236,8.9305-11.5108,10.4899-5.5712,6.8155-10.1146,14.4879-16.3604,21.9289-.6054.7212-2.2041.9343-2.3193,1.5569-.4981,2.6935,2.204,3.8513,4.4137,4.1883,6.8817,1.0496,39.5097-1.6024,42.2598,1.236.7893.8147,1.9012,6.4741,1.9389,7.9076.0484,1.8406-.4633,9.8511-.7743,11.4597-.3753,1.9409-2.0268,2.4927-2.6053,4.0864-.4844,1.3345-2.6873,9.4398-3.1319,9.794-5.2775-3.3636-9.9425.1127-14.7665.0228-7.7263-.1439-15.7643-2.8638-23.9433-1.9501-13.3298,1.4891-32.9715,15.1259-42.9871,23.9304-6.1701,5.4239-31.1607,33.6447-34.858,34.9276-.9931.3446-1.8638.5657-2.9235.4227,1.4064-3.9329-2.3756-5.6279-2.8598-8.1418-.6216-3.227.1767-14.4361-1.3765-16.7871-3.375-3.2622-14.8944.4634-16.8532-.4146-1.9917-.8927-1.5802-4.3368-2.7349-5.807-1.1851-1.5089-4.0949-1.5075-5.7648-2.8393-2.7717-2.2105-6.0945-13.9608-7.7587-17.8776-.3151-.7416-1.8384-.7326-1.8995-1.2784-.2876-2.5691,3.9887-5.7403,3.9549-9.4998-.0276-3.0697-2.7906-3.6077-2.9706-5.7172-.1243-1.4559.9394-3.1299,1.0036-4.7822.0518-1.3331-1.3054-3.6199-.904-4.1619.231-.3119,1.732-.4083,2.3044-1.0491,2.9116-3.2599,6.7553-4.664,7.622-5.8056,1.6935-2.2308.8441-6.5762,3.4195-9.0079,7.3982-6.9855,29.8897-2.283,39.1606-.0476,4.097.9879,8.4043,3.2798,12.1655,4.0856,3.751.8036,19.1797,3.0288,11.6704-4.024-2.0891-1.9621-18.6112-7.7022-13.3134-11.5099,4.377-3.1459,7.8154.5213,10.0296.4416,1.2759-.0459,2.1456-1.4409,3.1321-1.7061,3.8115-1.0246,20.6552,9.3432,24.7753,12.1327,4.2661,1.1722,4.2767-6.3144,5.6386-9.3562,7.9513-17.7591,29.6626-43.2091,44.3173-56.0576,5.4628-4.7895,15.9741-10.4457,20.1334-15.2368,2.2192-2.5563,4.3939-7.9897,6.8496-11.3135,17.467-23.6417,38.4519-52.1563,60.9932-70.9281,3.5313-2.9408,12.8658-8.0523,14.7933-11.0174,2.3637-3.636,1.6348-13.8704,1.5096-18.6454-.3389-12.9263-2.2627-26.0507-3.099-38.9628-1.6398-3.3808-5.6893-4.8963-7.986-7.3062-1.6507-1.732-4.4474-5.1249-6.2101-7.1679-3.0874-3.5783-10.3789-12.2059-11.1929-16.5287-1.2979-6.8925,1.4164-8.2583,2.9267-13.9103.6372-2.3847.0845-7.9329,2.2641-9.3719l12.656-1.7343c.0562,3.7264,3.319,6.6018,3.8517,10.0003.5935,3.7862-.2419,8.3893.0662,12.3611.5047,6.5044,1.341,13.1283,1.9156,19.6025,1.8648,1.4789,3.1867-3.6824,3.3906-4.7206.6219-3.1659-.1963-13.0636,4.8142-8.75,1.284,1.1055,4.9116,14.3164,5.1587,16.8279.8038,8.1698-.9305,18.3376-.5905,26.5964.5297,12.866,4.2302,25.2253,6.3997,37.8713,2.8296,1.7435,4.0668-3.2279,4.4926-5.433,2.1376-11.0714,2.2751-28.7655.0116-39.7145-.464-2.2442-2.768-5.2056-3.6505-7.8209-3.5792-10.6064-1.3085-29.2957-.9594-41.1825.451-15.3552.4521-33.1976-.2966-48.569-.2949-6.0546-9.0699-17.6092-9.0569-25.0007.007-3.9838,3.2709-9.6989,3.6243-13.4957.1234-1.3251-3.3438-21.7059,3.3784-14.7017,3.7097,3.8652,4.9451,13.9812,7.2729,17.581,1.0114,1.564,3.4033,2.2508,4.7028,3.9008,1.5044,1.9101,3.7308,10.8461,3.8345,13.4565.4588,11.5435-.9607,24.6162.0091,36.1475.5874,6.9848,5.6328,15.8813,4.7392,23.5474ZM601.7457,916.722c.5357.5471,8.1827-.6923,7.638-3.3272-.708-3.4249-10.1736.7379-7.638,3.3272Z"/>
  <path d="M783.3809,171.0862c1.0681.1287,1.8904.0297,2.8644-.4732,3.4724-1.7928,9.6566-16.7778,12.3986-21.0598,4.8212-7.529,13.0083-14.3961,17.6495-21.5449,1.5189-2.3396,2.7735-7.5548,4.07-8.6061,2.4015-1.9473,15.4795-5.3693,18.9455-5.66,8.1038-.6796,19.911.1232,25.068,7.1448-2.5328,3.7327-.7606,7.8352-1.9076,12.1941-1.8165,6.9034-10.3018,17.8241-15.464,22.7717-8.8196,15.1969-14.8129,31.8126-22.0695,47.7699,1.1361,2.5271,6.2572,2.0251,8.613,1.8575,14.9512-1.0638,29.6677-7.565,43.7128-11.7235,3.5759-1.0588,8.0962-.9829,10.6273-1.8006,1.7162-.5544,2.0825-3.5252,3.4997-4.2066,1.1987-.5763,2.6691.6236,4.0572.3267,1.1018-.2356,1.9805-1.4839,4.0285-1.7568,14.2695-1.9012,9.5435,17.3635,26.3293,10.5813.9626.924-2.7099,4.9945-2.6053,6.2252.1033,1.2163,6.151,5.3573,5.3781,8.3925-.3475,1.3648-3.1444,3.0364-4.1441,4.5539-3.4529,5.2417-2.3237,8.2169-10.5772,8.3502-7.6686.1239-9.7374.2669-17.173,1.1821-12.4377,1.5309-27.1813-3.1934-37.7724,7.1401,31.3099,17.7462,57.8779,42.4298,87.6163,62.4493,10.2129,6.8751,10.7582,6.745,19.8657,15.5045,3.3115,3.185,7.9349,6.5496,11.5689,9.5l-19.633,29.2305c-1.9975,1.286-4.0694-1.0929-6.2775-1.4484-2.061-.3318-4.2853.2299-6.448-.2414-5.8652-1.2781-11.5117-15.565-15.445-19.9251-6.4601-7.1611-24.1426-21.6585-32.9983-25.3147-12.7176-5.2507-19.4491-11.3813-31.8164-16.9371-7.3943-3.3217-23.7225-8.803-28.4897-15.484-1.0239-1.4349-.8153-3.3758-1.8055-4.8861-1.3083-1.9955-7.145-5.6239-8.6501-8.5618-.8972-2.2815,4.8476-1.0578,3.8136-4.2765-5.8368-1.5856-11.642-6.2097-17.635-6.7521-2.3714-.2146-11.5506-.3731-13.281.1975-1.7233.5683-2.2893,4.0256-3.9504,5.6091-7.902,7.5326-34.2563-.231-41.6563-7.1437-3.1963-2.9858-2.9479-6.3311-4.6856-9.6537-2.8043-5.3621-28.4253-19.7275-35.1296-23.1818-1.4224-.7328-2.7368-2.6317-3.8275-2.9171-2.5473-.6664-6.9967,2.7166-9.6082,3.4348-8.7506,2.4066-24.091.6068-31.1387-5.4205-3.8695-3.3092-7.8819-7.2975-12.7198-10.457-1.7224-1.1248-5.2529-.8994-5.1741-3.4566.041-1.329,2.0668-2.5056,1.8722-3.7119-.2342-1.4519-5.2883-4.1588-5.3075-6.8163-.0095-1.3122,2.1197-4.0456,2.3671-6.0026.7054-5.5796-7.0503-7.4813-7.5629-13.1159-.9567-10.5161,10.9177-4.3852,16.8201-2.4139,12.2458,4.0899,22.4206,7.9972,35.0817,11.7599,13.8095,4.104,21.9306,9.1761,33.5769,17.0885,5.3095,3.6072,15.8459,13.5205,21.0068,15.3924,6.3802,2.3142,2.115-4.7941,1.7868-6.7277-1.3043-7.6847-2.3688-15.8438-3.6462-23.7894-5.2876-32.8914-7.2225-67.0925-5.1232-101.1653.7079-11.4894,3.2058-17.772,6.4364-27.9778,2.3473-7.4154,1.4288-14.929,7.4261-21.2612,6.3835-1.6123,11.9743,28.545,12.6301,33.2408,4.6172,33.0617,6.0224,66.8729,12.246,99.6002.9055,4.7617,1.4586,9.6186,2.3659,14.3735Z"/>
  <path d="M205.649,239.58c-13.2929,10.4973-16.1215,14.954-33.1203,21.8522-18.335,7.4405-39.804,13.5874-57.5898,22.7101-4.8731,2.4995-11.3544,8.6201-16.027,9.8542-3.4664.9155-8.5272-1.5157-12.4238-.5545l1.9036-4.7645c-1.8825-.8132-5.1449-.5438-6.6654-1.4657-1.8522-1.1231-4.5115-6.1469-5.7039-7.6764-.8073-1.0356-2.8596-1.1323-3.0044-1.9779-.4171-2.4354,3.6523-6.4735,4.4071-8.9421,17.625-10.0166,36.2896-19.0291,53.547-29.6206.953-.5849,2.7422-.7408,2.3494-2.4144-.8555-3.6452-13.4101-2.928-16.2354-4.3255.0654,7.2649-6.791,1.6104-11.0834,1.0522-7.2683-.9453-14.6076,3.2034-19.581-5.2908-.8954-1.5292-.7633-3.9733-1.018-4.2302-.4247-.4282-9.8146-4.6484-10.8089-4.964-4.8628-1.5436-14.1522-2.3548-19.2199-1.8911-2.8828.2638-14.1334,3.5733-15.6989,1.917-.3379-.3575.5429-2.983-.9705-4.285-.7602-.654-2.9243-.7662-4.1857-1.5517-2.357-1.4677-3.8356-4.113-7.3076-3.6969-.5993-.6453,4.9251-14.7157,6.9404-15.9918,1.1108-.7033,3.3254-.2608,4.8319-1.1509,1.0429-.6162,1.1442-2.7276,3.4552-3.469.7297-.2341,10.4845-2.272,11.0588-2.2928,1.3258-.048,3.4124,1.6652,5.7107,1.9131,12.1677,1.3124,26.7351-.8434,39.2642-.0711,10.3554.6383,20.502,4.1686,31.0247,2.9038.507-3.7488-2.9114-5.5979-4.3534-8.5441-4.5954-9.3892-5.6899-14.8056-13.2982-23.0279-7.5319-8.1398-16.5151-15.6061-23.6961-23.6054-.9207-1.0256-21.469-7.9353-25.4977-10.3682-2.8982-1.7502-2.7101-4.2623-4.1764-5.8653-1.9718-2.1557-7.1916-2.7312-7.2611-7.4252-.1065-7.1917,9.2921-6.8753,12.3836-12.3943,2.2514-4.0191-1.1105-8.077,7.1576-8.2341,6.0618-.1152,8.0563,3.6357,11.9586,6.2087,25.8721,17.0593,48.0704,38.3255,72.144,57.8654,1.6623,1.3492,10.6122,9.0016,11.9195,7.668-2.5432-13.2459-6.5932-26.4139-8.4648-39.8012-3.0426-21.7634-5.6658-58.9517-.9737-80.0499.8058-3.6235,2.9-9.2783,7.0829-10.1242,2.7772-.5616,10.45-1.2899,12.9215-.5467,12.001,3.6093,7.821,18.535,8.5725,27.7475,1.1586,14.2034,3.6235,32.384,5.9989,46.5784,2.9424,17.5828,10.1971,35.9606,13.0046,52.9561,2.6442,16.0073-2.6583,30.3156-.4376,46.3231,1.0344,1.487,9.2252,1.0293,11.4321.7959,13.5239-1.4302,28.5675-7.1132,42.2622-8.4047,6.1452-.5795,29.2543.618,34.836,2.2463,6.9939,2.0403,6.0944,7.1138,8.3463,12.6267.2538,2.5644-3.4059,5.6591-4.1143,7.9493-.6798,2.1979.9418,7.2145.0859,8.6189-.5938.9743-11.1125,5.221-12.7087,5.5206-8.0435,1.51-16.6672-1.3328-24.6418-1.6839-7.3908-.3254-20.1076.9048-27.4869,2.1319-5.5211.9181-10.8592,7.0614-16.9048,3.0605-2.4277-1.6066-1.9607-6.5214-7.6665-2.7506-1.3085.8648-1.5157,2.355-2.2729,2.9529Z"/>
  <path d="M507.8191,598.1564c-.2772.3413-6.527,3.1874-6.9059,3.1072-1.8439-1.287-1.1835-3.7212-2.3486-5.3245-1.251-1.7215-5.3148-2.2178-6.2854-4.2283-2.0456-4.2375,1.0635-12.9467,4.9654-15.1224,1.0476-.5841,8.3836-2.2296,9.2363-1.9886,5.01,1.4161,4.0755,20.1864,1.3381,23.5566Z"/>
  <path d="M590.2647,900.4803l-2.8112,7.0524c1.2149,4.0933,8.7174-1.4199,2.9016,11.6906-.4035.9095.5522,1.6694-1.5092,1.3221-1.3399-4.1641-8.6512-4.7434-8.1908-9.038,3.1572-4.1974,3.2462-10.4234,9.6096-11.027Z"/>
  <path d="M445.2761,295.0702c-3.4993-5.0444-1.5444-9.2107,4.9918-8.375,4.6855.5991,2.6005,3.2386,4.7574,5.7731,2.597,3.0517,7.1319,1.4666,10.4836,1.9438,7.27,1.0351,18.0013,3.7858,24.8529,3.8835,7.1493.102,15.5518-2.3696,22.802-2.8373,4.467,1.0945-1.4319,13.3973-2.7747,15.137-2.5916,3.3575-7.6507,2.4043-10.9828,3.3565-7.9884,2.2828-15.4802,5.467-24.3572,4.3713-4.1414-.5112-6.9667-3.7961-10.6056-5.6385-2.7263-1.3804-6.6758-1.7802-8.9432-3.4842-.7033-.5285-8.9671-12.318-10.2242-14.1302Z"/>
</svg>
