<!--
  SVG Music Logos
  Pearl Jam - Newcastle 2006 v1.0.0
  https://github.com/tiagoporto/svg-music-logos
  Copyright (c) 2016 Tiago Porto (http://tiagoporto.com)
-->
<svg xmlns="http://www.w3.org/2000/svg" viewBox="0 0 604 420">
  <g id="shadow">
    <path id="back" d="M584.27 76.634c1.306-6.492 6.427-15.792 8.93-24.469 3.928-13.621 5.072-28.816 3.858-40.306-.448-4.24-.965-5.53-7.812-5.53-5.79 0-75.915.697-79.058.449-6.259-.495-6.769 2.022-7.341 6.375-.66 2.018-1.624 5.392-2.736 8.33-2.417-10.706-4.606-15.506-14.77-15.435-7.341.05-83.718.472-87.953.73s-10.165 2.234-9.318 12.681c-1.553-6.494-3.106-9.878-13.835-11.715s-87.388-2.732-95.859-1.979c-7.092.63-7.902 4.575-8.54 9.177-1.409 10.143-3.882 32.615-.819 55.764.636 4.8-.256 19.17 0 29.083.043 1.664-1.634 1.558-1.685-1.035-.14-7.048-1.64-32.952-2.32-53.177-.312-9.255.274-19.597-.047-22.73-1.13-11.011-3.812-13.005-13.694-14.126s-108.706-.432-118.87-.415c-5.054.009-7.774 2.264-7.436 8.847.282 5.506.643 16 .8 18.824-4.753-13.741-3.388-27.953-16.376-28.518S19.6 8.43 15.365 8.721 6.471 12.4 6.19 18.33s1.734 214.4 1.694 220.47c-.038 5.647 3.932 12.183 7.13 19.9-5.971-.994-6.989.683-6.989 3.582 0 9.412.889 20.76 7.1 34.98 4.311 9.869 12.665 21.49 20.053 33.773-6.4-1.318-15.012-.777-17.93-.33-6.118.938-15.576 33.224-8.376 81.93 0 0 131.2 2.73 136.47-.894 2.24.559 3.63.765 6.121.575 31.562 2.987 180.985 3.409 182.255 1.143 1.271 2.564 93.626-1.7 95.885-3.257s1.266-2.085 1.83-3.497 9.096-2.58 9.107-1.128c.013 1.791.37 1.644 2.028 1.927 7.48 1.272 32.38 2.213 34.02.559 1.403-1.414 1.633-1.137 5.365-1.264s3.388.08 8.188 1.264c3.8.937 30.636 1.784 52.728.478 10.1-.597 42.91-3.37 48.985-6.353 5.615-2.756 3.228-21.553 4-40.094.61-14.677 1.219-127.906.452-132.423-.89-5.248-2.927-9.533-7.106-12.706 6.965-10.447 7.99-12.003 8.538-16.796 1.158-10.15.573-115.371-.1-119.688s-5.803-6.293-13.367-3.847Z"/>
    <g fill="#3f3932">
      <path d="m62.354 42.635 3.976 25.53s-.867-.832-1.361-1.255l-4.137-24.584s.804 0 1.522.309Z"/>
      <path d="M56.894 49.49s1.954 11.016 1.954 11.934c0 .53-1.57 2.188-1.782 1.553-.266-.796-2.7-10.765-2.7-10.765s1.24-1.76 2.528-2.721Z"/>
      <path d="m53.68 53.67 9.403 45.766-3.937-6.846-6.228-33.601s.057-4.05.763-5.319Z"/>
      <path d="m52.264 61.201 5.383 28.776c-3.582-8.26-7.34-19.624-5.383-28.776Z"/>
      <path d="M88.854 114.847s5.805 5.46 6.935 5.93c0 0 .33 10.582.33 11.388s-5.754-4.377-6.213-5.459l-1.052-11.859Z"/>
      <path d="M99.167 122.73c.282.095 5.584 3.476 5.584 3.476s.45 7.706 1.617 16.372c-2.768-3.613-5.52-4.334-5.82-6.403s-1.85-12.409-1.381-13.444Z"/>
      <path d="M111.224 129.153c0-1.223 2.802.634 2.998 1.47s3.39 21.718 3.39 23.024-1.397-1.17-1.517-1.73-4.871-21.54-4.871-22.764Z"/>
      <path d="M124.19 128.23c-.307.547-.818 1.141-1.719 1.629-.426.23 7.906 36.941 7.906 36.941l1.929 2.905-8.117-41.474Z"/>
      <path d="m183.318 38.189 3.102 29.976c-6.302-5.27-15.561-18.848-3.102-29.976Z"/>
      <path d="M183.97 38.054c-.04-.334 1.113-1.112 1.16-.689.065.592 3.27 32.494 3.27 32.494l-1.035-1.506s-3.235-28.94-3.396-30.3Z"/>
      <path d="M188.87 35.267c.193.69 3.671 36.745 3.671 36.745l-1.223-.753s-3.953-35.039-3.953-35.427 1.388-.988 1.506-.565Z"/>
      <path d="M208.258 36.965c.033-.855 1.62-.331 1.74.777s1.054 16.094 1.054 16.87-.963 1.351-.963 1.351-1.89-17.492-1.831-18.998Z"/>
      <path d="M201.083 67.742c0-.777 3.882.917 3.882 1.364 0 .756-.07 7.565-.035 7.988s-3.237-.598-3.283-1.2-.564-7.376-.564-8.153Z"/>
      <path d="m209.454 70.988 2.57 1.024.626 7.089-2.599-.701-.597-7.412z"/>
      <path d="M254.424 73.388s-.118 2.44-.189 2.37-1.27.03-1.27.03l-.424-2.164 1.883-.235Z"/>
      <path d="m259.694 70.894-.841 5.114s1.861 1.343 2.144 2.19l-.302-7.988-1 .684Z"/>
      <path d="m256.918 101.977.706 2.964h-1.483l-.635-2.964h1.412z"/>
      <path d="m264.118 98.8.212 4.283-.965.376-.306-5.788 1.059 1.129z"/>
      <path d="M243.741 107.318v3.388l-1.506 1.035-.564-4.423h2.07z"/>
      <path d="M234.424 111.741v4.33l-5.553 4.235-.471-4.8 6.024-3.765z"/>
      <path d="M224.071 118.612v5.647l-4.8 5.741-1.13-6.117 5.93-5.271z"/>
      <path d="m222.188 140.353 1.883 31.529-1.883.471-1.882-30.87 1.882-1.13z"/>
      <path d="m216.07 126.518 1.13 6.682s-3.388 5.27-2.73 8.377l3.107 31.905s-4.236-.188-4.989-.376l-3.764-37.835c1.412-2.26 7.247-8.753 7.247-8.753Z"/>
      <path d="m207.694 137.153 3.577 35.765s-5.365-1.6-5.741-2.636c0 0-2.73-22.964-2.824-24.564 0 0 3.757-7.708 4.988-8.565Z"/>
      <path d="m201.67 149.294 2.636 19.106c-.941-1.13-6.494-6.965-2.635-19.106Z"/>
      <path d="m41.295 258.275 2.306 6.426-1.652-.343-2.532-6.523 1.878.44z"/>
      <path d="m31.232 256.165 2.486 6.47s-2.894-.247-3.047-.702c-.356-1.057-1.925-6.427-1.925-6.427l2.486.659Z"/>
      <path d="m23.374 253.964 2.156 6.907-2.965-.81-3.388-7.883 4.197 1.786z"/>
      <path d="m16.354 251.101 2.87 8.311-2.165-.711-4.094-9.266 3.389 1.666z"/>
      <path d="m141.766 249.606 3.659 9.535h-1.378l-3.988-9.041 1.707-.494z"/>
      <path d="M150.236 246.047c.441 1.3 6.917 19.388 6.917 19.388l-.282 5.459s-7.777-19.906-8.588-23.435c.317-.565 1.16-.983 1.953-1.412Z"/>
      <path d="m154.894 242.659 4.603 14.844L158 260.07l-4.892-15.67.786-1.247 1-.494z"/>
      <path d="m273.435 86.589 1.553 2.188-.282 17.082-1.473-1.424.202-17.846z"/>
      <path d="M277.106 90.189c0-.518.592-.327 1.235-.212.8.143-.335 21.958-.335 21.958l-.9-1.511V90.188Z"/>
      <path d="m284.682 90.189 3.436-.848-1.718 43.342-1.718-6.353V90.189z"/>
      <path d="m294.188 87.506 4.942-2.284v14.32s-5.647 11.117-4.942 9.988 0-22.024 0-22.024Z"/>
      <path d="m305.059 82.094 4.8-2.353v5.481l-4.8 5.719v-8.847z"/>
      <path d="M313.953 76.636v3.818l7.906-5.653-.847-4.377-7.059 6.212z"/>
      <path d="M319.176 35.412c0 .424-1.27 16.282-1.27 16.282l-1.412-1.035V37.247l2.682-1.835Z"/>
      <path d="m336.4 31.459 1.553 1.271-.777 21.176-1.341 2.259.565-24.706z"/>
      <path d="m333.85 101.294-.505 15.577-1.886-.847v-11.083l2.391-3.647z"/>
      <path d="m352.635 94.989 1.412 1.235-.706 17.823-2.118 1.271 1.412-20.329z"/>
      <path d="m297.859 166.212 3.247.635v6.635l-3.247 1.695v-8.965z"/>
      <path d="m302.935 167.271 3.284-1.059v6.706h-3.284v-5.647z"/>
      <path d="M310.423 163.667c0 .639-.705 9.25-.705 9.25l-1.271-.564v-7.765l1.976-.921Z"/>
      <path d="M233.47 260.823c0 5.756 1.895 30.33 1.895 30.33h-1.622s-2.166-29.79-2.166-30.296 1.894-1.116 1.894-.034Z"/>
      <path d="m225.953 269.67 2.865 22.506-2.912-1.235s-2.682-16.619-2.682-17.662 2.56-4.932 2.73-3.609Z"/>
      <path d="M241.938 302.019c.229.89.923 4.122.923 4.122s-3.042 2.452-3.902 2.83c-.74.325-.81.075-.869-.667s-.549-3.197.2-3.947c2.516-2.523 3.417-3.235 3.648-2.338Z"/>
      <path d="M236.259 306.034s1.035 4.013.377 4.732c-.964 1.05-3.075 2.258-3.075 2.258l-.36-4.06 3.058-2.93Z"/>
      <path d="m227.271 313.059.647 4.532-1.588.832-.839-4.047 1.78-1.317z"/>
      <path d="m214.094 321.247.989 4.753-1.429 1.19-1.16-5.378 1.6-.565z"/>
      <path d="M259.459 257.623c0 .994 1.303 27.346 1.303 27.346s-1.68 3.784-1.303 2.654-2.259-31.764-2.259-31.764l2.259 1.764Z"/>
      <path d="m409.529 136.635 2.683 1.412-1.836 7.341-2.47-.847 1.623-7.906z"/>
      <path d="m396.91 137.331 2.183-1.456-.41 9.513H396.4l.51-8.057z"/>
      <path d="M434.376 30.895v8.752s-4.093-2.542 0-8.752Z"/>
      <path d="m448.494 28.636 2.4 1.27-1.2 12.565-2.313 1.341 1.113-15.176z"/>
      <path d="m440.164 78.753-1.27 12.188-2.118-.894.988-8.894 2.4-2.4z"/>
      <path d="m454.706 76.918 1.411.847-.706 9.176-1.835 1.271 1.13-11.294z"/>
      <path d="M460.776 86.941c.333-1.357 1.412 2.4 1.553 3.247s-2.682 13.358-2.965 14.232c-.14-2.373-.923-7.967 1.412-17.478Z"/>
      <path d="m462.334 104.42 1.925 14.098-3.53 7.812s-1.842-10.824-1.604-12.142 3.21-9.768 3.21-9.768Z"/>
      <path d="M412.76 277.802c.364-.094 1.31-.108 1.31-.108-2.635 12.706-10.47 59.482-10.988 62.988-.612 0-1.04-.128-1.04-.128 3.832-21.152 9.072-56.893 10.719-62.752Z"/>
      <path d="m420.964 286.416 1.977 1.56c-1.094 4.527-11.578 45.86-11.294 50.4-1.318 1.318-2.447 2.306-3.59 2.306 3.807-17.365 9.4-41.654 12.908-54.266Z"/>
      <path d="m428.962 298.76 1.602 5.17s-2.33 7.693-3.458 10.917c-.4-1.298-1.22-3.605-2.047-5.13 1.475-3.837 3.903-10.957 3.903-10.957Z"/>
      <path d="m433.953 314.306 2.364 9.176s-2.275 6.673-3.049 8.454-.998.763-1.288-.267c-.218-.775-1.1-3.783-1.488-5.41-.204-.857.154-2.059.232-2.355.652-2.446 3.229-9.598 3.229-9.598Z"/>
      <path d="M552.576 113.236c-.423.084-6.422 15.949-7.005 17.077-.513.252-.916.26-1.066-.279l6.25-15.13 1.821-1.668Z"/>
      <path d="M551.764 95.341c-1.964 5.365-5.223 12.212-5.717 17.718-.115 1.273-3.695 11.412-4.306 13.2s-3.375-4.259-2.565-9.906c.695-4.842 6.203-15.057 12.588-21.012Z"/>
      <path d="m556.635 89.483-1.429 5.622-1.395 1.86 1.247-6.091 1.577-1.391z"/>
      <path d="M574.282 72.306c-.847 2.353-2.259 9.177-2.259 9.177l-3.364 2.141s1.412-6.776 2.235-8.024 2.1-2.621 3.388-3.294Z"/>
      <path d="m589.647 203.875 2.207 1.278-5.619 8.8-1.731-1.855 5.143-8.223z"/>
      <path d="M577.176 195.012c-.424.282-5.247 7.317-5.247 7.317-2.27-1.816-4.78-4.142-7.814-6.086l4.167-7.725 8.894 6.494Z"/>
      <path d="m560.126 183.338-3.425 8.286c-3.116-2.586-9.75-6.447-11.591-7.078.917-2.894 2.63-8.758 2.63-8.758 5.197 3.083 10.111 5.684 12.386 7.55Z"/>
      <path d="M543.929 173.718s-1.6 7.67-1.93 9.317c-2.26-1.23-12.135-5.665-13.673-6.21s1.677-9.981 2.586-9.656c2.017.723 10.558 4.654 13.017 6.549Z"/>
      <path d="m529.298 166.177-4.047 10.032c-6.465-2.853-11.671-2.936-17.682.058-1.18.587 4.844-18.209 4.844-18.209 1.865 2.006 7.527 4.313 16.885 8.119Z"/>
      <path d="m503.34 155.482-7.86 28.224-1.668 1.353s7.077-27.459 7.482-28.518 1.27-.423 2.047-1.059Z"/>
      <path d="m498.117 156.541-11.15 34.674-3.038 2.456s11.704-36.239 12.33-37.46l1.858.33Z"/>
      <path d="m492.059 154.954-16.742 51.987-4.376 7.012 19.046-59.536 2.072.537z"/>
      <path d="M486.4 152.588c-.577 1.848-15.789 49.765-16.871 52.589s-2.824-8.824-2.824-8.824l13.776-47.115s3.107 2.41 5.919 3.35Z"/>
      <path d="M472.988 142.282c1.433 1.741 6.706 5.93 6.706 5.93l-13.647 45.882-3.58-10.57s9.533-42.441 10.521-41.241Z"/>
      <path d="M464.259 123.365c.611 3.812 6.823 15.812 7.952 17.647-3.712 13.405-7.482 29.928-9.953 38.067-.715 2.352-5.002-9.503-5.002-9.503s6.32-26.493 6.132-28.14-2.658-11.295-2.658-11.295l3.529-6.776Z"/>
      <path d="M530.87 284.154c-3.741 4.575-16.165 28.34-23.27 43.454l-.377-2.22c2.463-5.231 16.45-36.026 21.976-41.234h1.671Z"/>
      <path d="M539.001 284.154c.763.505 3.644.752 2.81 2.262-5.459 9.89-23.892 47-27.106 55.913-2.729.47-3.414-1.976-3.414-1.976 6.146-14.907 25.814-54.87 27.71-56.199Z"/>
      <path d="m545.952 290 2.071 4.518-24.47 49.882h-3.671l26.07-54.4z"/>
      <path d="M549.474 298.924s1.125 5.132.737 6.957c-1.327 2.062-19.34 35.954-19.34 35.954s-3.398 1.765-4.245 2.047c7.13-14.965 22.848-44.958 22.848-44.958Z"/>
      <path d="m179.553 335.704 3.106 13.213-2.494 2.024-3.718-14.918 3.106-.319z"/>
      <path d="M171.459 336.776c.41 1.122 4.988 16.612 4.988 16.612l-2.164 2.118s-5.612-17.598-5.907-18.784c-.21-.844 2.8-.72 3.083.054Z"/>
      <path d="m54.249 331.864 5.773 2.123.486 3.675-5.802-2.745-.457-3.053z"/>
      <path d="M40.834 323.846c5.792 3.86 7.8 4.885 11.378 6.483.175.915.565 2.965.847 4.377-1.74-.753-8.376-2.212-8.376-2.212l-3.85-8.648Z"/>
      <path d="m63.506 335.704 5.365 2.108.518 4.376s-3.716-1.66-4.753-2.4c-.141-.565-.988-2.73-1.13-4.084Z"/>
      <path d="m62.024 369.858 8.612 19.2s-4.624-3.458-6.883-5.929c-1.09-1.193-2.364-5.93-2.364-5.93l.635-7.34Z"/>
      <path d="m67.424 362.51-1.847 1.607s9.53 26.706 9.753 27.306 2.758.71 2.388-.318L67.424 362.51Z"/>
      <path d="m85.286 367.365 8.62 19.979-1.129 1.103-8.8-21.836 1.309.754z"/>
      <path d="m91.629 351.268 9.28 24.25-.452 1.675-10.466-27.223 1.638 1.298z"/>
      <path d="M81.786 345.381c.589 1.05 1.83 5.681 2.085 8.419-1.055-1.806-3.606-4.112-5.228-5.25l-1.395-6.362s3.403 1.17 4.538 3.193Z"/>
    </g>
    <g fill="#7e6751">
      <path d="M63.751 85.173c7.059 13.2 19.09 25.016 24.075 28.933 0 0 .56 10.073.876 11.573.447 2.122-21.596-16.973-22.584-21.161-.367-1.557-2.038-16.898-2.367-19.345Z"/>
      <path d="M126.87 122.024c-.281-.918-1.819 4.11-1.67 4.823s9.15 43.895 9.432 44.884 4.624 8.54 4.262 6.646c-.944-4.95-11.74-55.436-12.023-56.353Z"/>
      <path d="M122.942 32.777c3.502 14.4 4.338 34.866 6.498 49.385 8.216 55.238 15.808 87.719 16.725 91.32.94 3.692 20.876 76.663 21.06 77.363.223.851-1.254 2.098-1.53 1.251s-7.106-18.402-7.671-19.531c-.377-6.212-5.953-33.341-16.8-49.553.776-5.2-14.008-65.939-14.008-65.939s-1.372-39.478-4.275-84.296Z"/>
      <path d="M156.87 233.718s6.83 17.867 7.035 18.66c.2.774.3 1.442-.711 2.17-.944.681-1.906 1.507-2.135.892-.253-.68-5.33-13.699-5.33-13.699 1.942-.917 1.424-5.906 1.142-8.023Z"/>
      <path d="M168.07 238.33c-2.305-.377-4.47-4.612-4.47-4.612s4.789 15.562 5.012 16.315 1.235.17 1.493-.23c.04-1.61-2.034-11.474-2.034-11.474Z"/>
      <path d="M22.753 308.635c5.742 6.306 15.06 13.506 15.06 13.506l5.505 9.882-6.635-1.27s-9.106-12.565-13.93-22.118Z"/>
      <path d="M86.077 367.373c.438.02 1.805-.716 2.488-1.197l9.162 18.069c-.296.862-1.667 2.352-2.786 3.072 0 0-8.182-18.132-8.864-19.944Z"/>
      <path d="M264.5 357.82c1.453.32 2.933 1.741 3.094 3 .314 2.456.798 9.456.737 14.074-.024 1.815-1.62 4.143-1.62 4.143s-.71-12.614-2.21-21.216Z"/>
      <path d="M235.247 358.337s.903 19.157 1.906 29.557c.049.503-1.25.015-1.318-.577-.706-6.164-1.086-14.495-2.216-26.919-.051-.566 1.628-2.061 1.628-2.061Z"/>
      <path d="M228.93 364.882c-.012 3.106-.106 10.012 1.305 20.082.094.668-2.044-.958-2.152-1.623-.565-3.459-1.39-10.829-1-15.788.057-.73 1.85-3.403 1.847-2.671Z"/>
      <path d="M166.47 336.14c.438-.186 5.836 21.469 5.836 21.469s-2.352 4.155-2.681 3.11c-.722-2.29-8.458-29.04-7.706-27.487s3.563 3.332 4.552 2.909Z"/>
      <path d="M167.647 363.553c-7.506 10.047-15.314 22.04-17.096 45.411-2.386 1.083-3.468 0-3.468 0 3.468-8.865 8.096-38.16 9.176-57.506 1.39-24.905-1.741-65.411-3.388-72.94 0 0 1.636 8.847 3.176 9.411-.117 9.035.297 34.593 2.614 40.517 2.126 5.437 8.237 31.41 8.986 35.107Z"/>
      <path d="M252.824 286.423c.783 2.113.572 6.929.434 9.605 0 0-4.84 5.945-8.408 8.532-1.008.73-1.179.851-1.474-.398-.235-.994-.378-2.757-.452-3.546-.067-.725.134-.999.579-1.487 4.452-4.881 8.115-9.067 9.32-12.706Z"/>
      <path d="M419.74 311.665c3.388 8.47.848 21.629-6.681 26.711.595-5.154 4.986-22.664 6.68-26.711Z"/>
      <path d="M436.988 326.8c1.514 5.451 3.246 13.364 3.246 18.914 0 3.956-3.917 16.85-6.281 22.592 0-5.503.37-18.997-.244-25.792-.09-.993-.1-3.511.26-4.981.815-3.34 2.265-9.063 3.02-10.733Z"/>
      <path d="M440.63 351.948c1.25 10.444 1.707 34.958.31 50.17l-9.905 1.293c1.112-9.615 1.581-23.4 4.199-31.914 2.296-7.47 3.03-12.043 5.395-19.55Z"/>
      <path d="M485.633 356.606c-4.235 16.188-3.022 38.711-2.175 47.276l-7.687-.16s-1.17-13.59-.721-17.637c0 0 6.724-24.491 10.583-29.48Z"/>
      <path d="M550.564 308.447c.848 6.535-4.07 24.212-17.011 31.27 0 0 12.988-24.705 17.011-31.27Z"/>
      <path d="M400.353 145.388h5.035l2.165-9.74c-1.412-.283-3.953-.989-5.647-14.118s-12.141-89.647-12.424-98.541c-.706 1.694-1.13 16.094-.847 19.482.145 1.737 1.291 14.88 2.77 27.745 1.345 11.693 3.246 24.42 3.79 28.25.542 3.82 5.226 30.145 5.722 34.075.231 1.826-.564 12.847-.564 12.847Z"/>
      <path d="m460.55 142.982 1.182.289-6.002 24.423-.777-2.014 5.597-22.698z"/>
      <path d="M503.647 14.942c.043 2.031.14 6.738.235 11.011.314 14.138.722 38.022 2 61.835 1.06 19.757 2.047 34.518 2.423 49.13.106 4.107.58 7.442.8 10.588.338 4.817-.564 6.635 2.142 9.506 0 0-5.023 19.793-5.765 20.235s-4.477 2.756-6.635 3.153c0 0 6.33-21.388 6.4-28.094.023-2.192-.783-10.424-.236-16.33.884-9.522.43-21.156-.737-29.317-1.007-7.037-3.218-15.529-6.88-22.07-2.169-3.876-4.218-8.942-7.818-12.095 9.318-12.635 12.565-30.07 11.059-49.27 0 0 1.741-3.953 3.012-8.282Z"/>
      <path d="M547.035 114.979c.315.45.776 1.01 1.859 1.21 0 0-4.915 12.313-5.228 13.154-.188.505-1.293-1.19-.972-2.52.38-1.577 3.643-10.868 4.34-11.844Z"/>
      <path d="M595.082 41.153c-2.259 14.777-10.812 29.741-11.965 35.536l-10.106 4.37s1.951-8.354 3.067-10.166c4.86-7.892 14.486-15.152 19.004-29.74Z"/>
      <path d="M593.473 206.103c.282.23 1.044.273 1.044.273l-6.024 9.224-.764-.859 5.744-8.638Z"/>
      <path d="M194.894 63.836c0-.678 1.405.698 2.845 1.74 1.158.84 2.404 1.222 2.463 1.978.087 1.129.527 7.293.527 8.235s-5.505-1.577-5.835-3.012 0-7.718 0-8.941Z"/>
      <path d="M264.18 53.86c-.08 6.352.15 9.787-2.321 14.446.218 2.053.103 7.983.282 11.435 1.2 1.264 2.77 4.884 2.996 8.403.292 4.536.675 14.233.675 14.233h.688s-1.544-19.699-1.488-26.938c.044-5.755-.832-21.58-.832-21.58Z"/>
      <path d="M216.07 142.894c.471.094 2.448-.47 2.448-.47l2.259 29.93-1.506 1.128-3.2-30.588Z"/>
      <path d="M270.141 78.118c.707 5.067 1.035 5.61 2.081 7.104 0 0-.245 16.896-.245 17.813 0 .376-1.21-.611-1.318-1.694-.141-1.41-.742-17.364-.518-23.223Z"/>
      <path d="M322.988 68.588s-.564 4.236 0 3.953 9.459-10.729 9.459-10.729v-5.647l-9.459 12.424Z"/>
      <path d="m286.4 174.641 2.282-2.853v9.036l-2.282 1.27v-7.453z"/>
      <path d="M290.377 152.447c1.129 2.541 4.094 10.588 6.352 11.859l-.705 12-4.8 3.67-.848-27.529Z"/>
      <path d="M320.25 186.188c5.485 17.852 7.575 34.494 10.644 49.318 2.087 10.08 3.26 25.777 4.706 34.823 1.347 8.428.824 15.2 1.859 26.4.543 5.874.804 14.902.847 25.13.03 7.258.085 16.49-.07 25.411-.148 8.457.02 17.457-.517 24.235-1.08 13.619-1.428 27.405-2.448 39.863h-2.42c2.644-51.345 2.602-70.686.96-118.016-.844-24.385-3.681-46.882-6.4-63.682-1.358-8.4-3.69-15.833-4.811-21.951-1.118-6.096-3.972-13.134-3.972-14.066 0-.688 1.622-7.465 1.622-7.465Z"/>
    </g>
  </g>
  <g id="borders" fill="#fff">
    <path d="M413.278 146.93c-22.7 0-64.283 2.863-87.74 22.044-6.685 5.467-5.712 11.406-4.143 17.02 9.023 32.287 17.156 78.123 18.252 122.453.97 39.2 1.13 55.906-2.51 102.692 0 0 9.659.229 12.463.229 29.911 0 78.763-4.113 78.763-4.113s4.11-30.93 4.272-44.973c.203-17.548-1.81-32.454-6.662-46.61-1.323-3.86-3.032-7.225-4.161-7.796-1.303-.659-.17 5.026.329 7.818 1.623 9.09-3.315 19.795-6.362 23.341-2.346 2.731-5.418 4.235-8.65 4.235-15.095 0-27.27-17.481-27.718-39.798-.207-10.324 2.01-20.02 7.954-26.084 3.55-3.622 7.904-5.894 14.188-5.577 7.93.4 12.19 1.136 17.576 6.565 6.079 6.127 16.505 27.633 20.587 53.08 4.292 26.761 4.43 54.867 3.98 68.34-.103 3.108.79 3.44 3.005 4.008 4.649 1.19 21.52 1.475 24.777.793 2.583-.54 2.952-.922 2.78-3.61-1.068-16.753 1.578-49.099 9.484-63.922 3.312-6.21 5.245-15.248 9.222-21.63 11.086-17.788 25.38-34.257 42.07-34.286 4.94 0 9.716 3.081 13.116 8.088 2.645 3.894 3.132 10.211 3.544 15.892.832 11.474-2.118 21.894-10.047 30.518-4.17 4.534-11.544 11.384-21.526 11.384-4.004 0-9.053-3.187-11.062-5.502-5.883-6.776-6.753-17.47-1.836-25.953.743-1.281 1.718-1.732 2.118-2.576.55-1.161.356-2.519.087-2.829-.793-.912-4.278 1.675-7.287 5.335-5.153 6.266-13.444 32.594-15.613 45.229-1.394 8.116-3.87 28.84-1.918 41.44.33 2.134 1.396 2.927 3.224 3.197 10.438 1.54 18.458 2.173 30.98 2.173 28.687 0 65.528-4.201 70.647-6.64 2.42-1.153 3.049-3.647 3.71-10.557.41-4.297.786-10.454 1.117-18.3.573-13.584.428-31.516.7-53.625.434-35.352.174-81.057-.471-85.576-.71-4.971-1.818-8.771-5.365-12.777-12.809-14.464-38.68-32.376-58.763-40.227-6.685-2.613-11.202-3.82-15.12-3.82-6.902 0-13.08 3.787-18.917 8.66-15.16 12.656-21.7 25.32-26.164 36.423-3.801-17.566-9.463-44.631-18.893-60.062-5.674-9.284-10.65-12.326-22.187-13.562-1.087-.117-6.959-.552-15.83-.552Z"/>
    <path d="M304.336 174.64c-2.682 0-5.096 1.54-7.895 3.853-21.568 17.817-97.318 62.27-120.974 70.994-16.686 6.153-17.89 13.01-17.89 23.572l-.003 1.997c-.053 27.778.338 42.556 1.23 46.507.942 4.169 2.9 12.844 13.204 12.844 1.811 0 3.761-.268 5.962-.818 26.832-6.708 52.842-20.02 69.494-41.552 9.67-12.505 1.02-8.846-2.052-5.472-2.683 2.945-6.883 6.488-15.477 6.637s-9.868-8.032-9.868-11.486c0-15.982 13.298-29.484 29.039-29.484 11.11 0 18.574 6.78 18.574 16.871 0 22.248-26.333 41.75-56.567 60.986-25.068 15.95-58.242 39.458-58.242 77.135 0 2.419.97 3.902 3.868 3.997 16.946.56 36.451.842 57.975.842 57.716 0 111.98-2.045 112.52-2.066l3.709-.142.136-3.708.088-2.378c1.47-39.822 3.573-96.79-1.686-147.275-.838-8.043-1.347-16.023-3.107-23.54-2.113-9.024-3.203-17.431-5.304-25.463-2.478-9.474-5.442-18.243-8.979-26.058-.998-2.204-3.074-6.792-7.755-6.792Zm-58.618 216.207c-10.761 0-22.73-5.761-23.302-15.07-.278-4.534 2.11-10.074 6.231-14.457 5.553-5.904 13.554-9.156 22.53-9.156 11.101 0 21.598 7.57 21.6 15.577 0 5.707-2.942 11.524-8.075 15.962-5.25 4.54-12.17 7.144-18.984 7.144Z"/>
    <path d="M135.317 261.856c-12.834 4.271-32.866 6.822-53.585 6.822-20.134 0-40.754-2.393-59.629-6.92C8.77 258.56 9.034 260.044 9.577 269.2c.92 15.497 5.339 29.5 17.647 41.93 12.537 12.66 29.444 20.872 40.39 25.433 14.717 6.13 23.076 11.256 27.951 17.136 4.671 5.634 6.576 12.442 6.576 23.5 0 10.907-13.296 16.612-20.423 16.612-8.204 0-13.528-4.004-16.55-7.364-3.646-4.052-5.285-8.673-5.285-10.66 0-13.078 6.563-15.03 10.476-15.03 2.122 0 5.554-.425 8.324 1.054 2.01 1.074 3.847 1.024 5.823 3.671.396.53 1.761.348 2.777.017.265-.087.376-.31.258-.676-1.2-3.72-3.494-8.588-4.48-9.814-4.41-5.483-10.684-10.21-20.45-15.177-10.692-5.439-22.313-8.197-34.539-8.197a82.3 82.3 0 0 0-9.055.507c-2.196.244-3.156 1.6-5.177 5.612-11.346 22.528-4.257 67.124-3.927 69.153.517 3.167 1.026 3.892 3.976 3.939.236.004 23.865.377 51.211.377 38.63 0 64.897-.703 78.072-2.09l2.286-.241.943-2.096c4.102-9.115 6.852-36.683 7.758-59.961.58-14.913 1.306-52.042-4.471-74.672-.848-3.322-1.99-10.59-4.017-11.528-2.083-.965-5.779-.302-10.354 1.22Z"/>
    <path d="M591.01 7.819c-31.84.028-64.756.96-78.218 1.065-2.46.019-6.369-.93-7.687 1.54-.628 1.179-.874 5.106-.796 6.816 1.55 58.172 4.475 105.518 5.706 128.85.497 9.431 1.758 11.058 9.216 14.068 1.11.448 18.534 7.486 33.098 16.163 15.555 9.268 28.691 19.597 37.928 25.83 5.067 3.419 6.368 2.692 6.119-4.033-.356-9.636.36-27.505.266-53.86-.096-27.26-.195-55.45-.195-59.622 0-5.649-2.521-6.87-7.873-6.87-4.928-.001-15.222 4.475-23.468 10.446-8.415 6.093-14.306 12.722-16.895 21.459-1.317 4.447.024 6.82 3.294 2.525 1.703-2.236 4.527-2.3 5.783-2.04 5.135 1.068 7.817 6.068 7.817 10.244 0 7.742-6.426 13.977-11.747 13.977-4.065 0-8.233-1.861-11.15-4.979-2.046-2.187-4.403-6.006-4.032-11.79.93-9.932 10.736-22.74 26.13-37.428 7.306-6.971 19.415-18.682 26.211-31.215 4.754-8.766 6.758-22.285 5.318-37.15-.299-3.08-2.343-3.998-4.824-3.996Z"/>
    <path d="M435.067 7.813c-15.39 0-27.017.119-34.557.354-1.808.056-4.144.3-6.172 1.695-1.682 1.157-3.687 3.497-3.687 8.08-.003 17.579 10.234 94.92 14.801 111.832 2.05 7.59 11.573 7.517 19.002 7.59 9.628.093 25.6.127 35.503 4.074 1.698.677 2.21.284 1.608-1.774-1.093-3.736-2.902-10.145-3.514-13.617-1.782-10.11-1.39-26.483-.663-38.117l-5.203 4.97c-3.667 2.258-6.964 3.403-9.8 3.403-6.657 0-9.138-6.78-9.138-11.055 0-6.014 5.287-12.236 14.133-12.236 16.239 0 18.322 20.382 19 39.486.083 2.343.155 4.367.293 5.985.954 11.125 8.947 32.185 31.868 35.094 2.758.35 5.043-.583 5.292-4.35.271-4.096-.43-8.628-.139-12.262 1.976-24.659-1.284-46.863-15.918-64.478 5.094-7.804 10.465-17.687 11.494-32.934.533-7.888.241-13.541-.72-17.752-1.611-7.067-4.25-13.982-11.515-13.982-3.859 0-19.05.024-21.741 0-8.945-.079-12.063-.006-30.227-.006Zm8.674 39.881c-7.284 0-14.682-7.228-14.682-12.423 0-6.053 5.742-10.978 12.8-10.978 6.13 0 14.258 5.749 14.258 10.084 0 5.017-5.784 13.317-12.376 13.317Z"/>
    <path d="M297.193 6.778c-14.391 0-17.897.481-19.428.952-4.847 1.423-6.526 4.331-7.86 24.153-.755 11.237-1.568 25.218.045 35.947 2.08 13.836 5.376 20.006 10.685 20.006 9.043 0 20.068-4.24 29.911-10.896 7.675-5.19 18.368-17.173 21.948-27.128.888-2.47.065-5.434-2.947-.54-2.611 4.244-5.43 6.375-8.818 6.375-6.284 0-9.27-7.218-9.27-12.611 0-5.79 9.115-15.765 18.447-15.765 10.492 0 12.942 7.39 12.942 11.615 0 17.514-10.312 27.515-22.683 39.21-5.017 4.742-10.205 9.647-14.932 15.32-14.453 17.345-14.973 36.666-14.525 44.168.769 12.898 2.835 26.083 12.33 26.083 3.177 0 6.071-1.625 8.763-3.288 21.51-13.295 45.558-17.513 63.117-20.593 4.826-.847 10.922-1.736 15.27-2.303 7.878-1.028 9.653-3.074 7.849-11.716-1.643-7.866-11.067-84.74-11.762-96.381l-.055-.923c-.613-10.386-1.097-18.589-14.023-19.764-2.845-.258-48.429-1.921-75.004-1.921Zm45.419 115.552c-10.194 0-15.624-6.614-15.624-11.389 0-8.078 11.353-20 21.553-20 5.832 0 12.612 4.646 12.612 10.636 0 1.827-1.395 6.64-2.768 8.875-6.468 10.528-11.827 11.878-15.773 11.878Z"/>
    <path d="M139.264 9.92c-4.124 0-9.269-1.006-11.642 2.212-1.918 2.601-.916 7.466-.916 11.421 0 18.877 3.944 57.08 9.59 92.903 4.225 26.796 13.315 76.945 26.736 111.738 2.94 7.623 7.974 8.76 10.713 8.76 1.225 0 2.48-.218 3.727-.65 4.372-1.511 32.445-17.036 57.766-31.945 14.614-8.605 26.973-16.216 35.738-22.01 16.474-10.887 17.707-13.486 17.707-16.208 0-11.773-2.564-26.031-7.035-39.118-4.777-13.987-9.605-21.382-14.348-21.98a18.125 18.125 0 0 0-2.254-.137c-6.279 0-14.266 3.073-23.74 9.133-9.312 5.958-17.423 12.761-22.704 19.895-4.39 5.93-1.626 6.956 1.422 3.972 2.235-2.188 6.307-2.825 9.082-2.541 4.74.485 8.847 2.892 8.847 14.54 0 15.364-13.708 26.146-21.13 26.146-13.808 0-18.729-9.276-18.729-17.957 0-16.34 11.612-29.395 21.353-37.469 10.348-8.577 22.27-14.697 31.955-18.322 2.725-1.02 4.611-.823 6.657-2.018 4.734-2.765 7.433-6.354 5-15.063-1.155-4.135-3.793-7.104-7.071-8.197-.854-.285-2.84-.405-3.776-.26-9.695 1.501-18.823 4.348-28.078 4.348-13.39 0-25.752-3.145-34.808-8.857-8.51-5.366-13.506-12.68-14.093-20.615.863-12.413 9.848-20.418 22.956-20.418 13.48 0 18.07 12.377 18.258 18.212 0 6.047-6.504 9.89-11.482 11.577-4.235 1.435-8.445-2.249-9.6-1.671-1.27.635 3.388 3.741 4.977 5.506.978 1.086 2.011 1.412 3.313 2.007 8.798 4.023 24.902 5.894 37.964 5.894 1.322 0 2.593-.005 3.795-.01 1.07-.005 2.085-.009 3.033-.009 9.97 0 11.957-4.085 13.365-11.53 1.063-5.615 1.104-26.845 1.104-38.041 0-11.803-8.836-11.803-11.74-11.803-3.233 0-21.117-.256-41.825-.552-28.942-.414-61.745-.883-70.087-.883Z"/>
    <path d="M20.972 9.951c-9.028.07-13.92 1.925-13.92 12.082 0 1.48.17 15.17.357 29.897.092 7.307.201 15.634.318 24.623l.58 44.255c.74 56.41 1.28 112.392 1.488 116.766.502 10.546 6.895 13.694 20.46 16.978 11.05 2.675 25.864 4.149 41.715 4.149 34.45 0 65.037-5.601 81.607-16.748 1.158-.78 1.572-2.253 1.639-4.239 1.719-51.152-44.185-90.303-68.846-111.336-5.04-4.3-9.393-8.012-11.871-10.617C61.635 102.238 49.81 86.41 50.38 62.363c.254-10.715 8.055-23.657 17.36-23.657 12.679 0 17.177 9.633 17.177 17.883 0 7.27-4.174 14.997-11.908 14.997-2.226 0-4.83-.301-7.136-1.91-3.05-2.126-4.959-4.94-6.32-5.252-1.794-.41-2.235 2.81.94 10.612 10.842 26.652 40.504 52.57 57.118 54.604 2.495.306 6.025-.054 6.753-6.202 2.228-18.811-3.765-92.877-4.53-97.484-2.057-12.401-4.847-16.465-12.802-17.116-6.79-.557-72.314 1.007-86.061 1.113Z"/>
  </g>
  <g id="lettering">
    <g fill="#d1de54">
      <path d="M469.717 235.412c-3.388-11.106-9.411-51.953-21.835-72.283-5.114-8.367-9.029-10.58-19.2-11.67-3.872-.415-69.626-4.726-100.612 20.612-4.484 3.667-4.408 7.175-2.823 12.847 16.097 57.597 22.87 167.246 16.659 222.352 29.326.815 82.87-3.725 82.87-3.725 1.042-8.754 7.708-61.66.014-80.122-.579 16.788-9.473 23.847-17.66 23.847-18.228 0-31.252-20.458-31.719-43.717-.326-16.288 8.66-36.518 25.789-36.518 41.095 0 48.125 84.017 46.494 132.894 6.436 1.649 14.87 2.447 22.964.753 0 0-6.55-47.464 18.892-88.286 10.26-16.466 23.484-35.247 45.485-35.247 10.847 0 19.973 11.205 21.082 26.498 1.505 20.752-15.53 47.384-35.95 47.384-12.86 0-21.045-12.414-19.58-24.137-7.34 11.67-15.623 55.529-12.046 74.54 31.77 5.702 94.052-1.688 99.2-4.14 4.346-2.071 4.712-156.333 3.537-163.615-1.068-6.615-2.166-9.398-6.55-13.68-12.943-12.644-38.413-31.694-54.87-37.2-14.245-4.765-20.04-3.303-29.746 4.8-19.347 16.153-26.442 30.871-30.395 47.812Z"/>
      <path d="M298.988 181.577c-22.22 18.356-98.117 62.806-122.137 71.663-14.352 5.292-15.274 10.105-15.274 19.819 0 5.703-.189 41.788 1.13 47.623 1.254 5.557 2.998 11.85 14.292 9.027 13.803-3.451 41.924-15.641 63.919-35.192-15.624 7.012-24.85-.571-24.85-12.8 0-17.475 14.308-33.485 33.038-33.485 13.164 0 22.574 8.403 22.574 20.871 0 30.732-39.427 52.397-51.543 60.023-24.866 15.65-63.266 39.075-63.266 78.098C231 409.667 327.082 406 327.082 406c2.27-61.61 6.524-167.318-18.635-222.918-2.45-5.414-4.22-5.833-9.459-1.505Zm-53.27 213.27c-16.188 0-26.722-9.515-27.294-18.824-.692-11.264 11.106-27.859 32.753-27.859 12.8 0 25.598 8.853 25.6 19.577.002 14.494-14.871 27.106-31.06 27.106Z"/>
      <path d="M21.17 265.648c48.038 11.521 94.538 6.95 115.41.003 4.987-1.66 7.316-.002 9.232 7.502 8.945 35.033 3.675 117.038-3.059 132.002-30.955 3.26-128.8 1.692-128.8 1.692s-8.342-51.18 5.507-70.73c29.325-3.26 51.67 10.588 62.682 24.283-12.424-7.483-26.26-3.953-26.26 15.388 0 6.193 8.219 22.023 25.836 22.023 9.64 0 24.424-7.482 24.424-20.611 0-22.589-7.663-32.111-36.989-44.33-27.292-11.372-55.298-33.042-55.111-62.258.036-5.584 1.494-6.316 7.128-4.964Z"/>
    </g>
    <g fill="#46a1d4">
      <path d="M508.305 17.06c-.026 26.54 5.626 124.059 5.626 126.97 0 8.328 1.916 9.448 9.998 12.888 22.118 9.411 44.877 23.218 65.532 39.444 2.976 2.337 3.434.605 3.347-3.538-.49-23.46-.361-101.017-.361-108.188 0-7.63-22.45.35-38.133 19.172-2.277 2.733-1.14 2.994.585 2.616 9.034-1.983 14.206 7.496 14.206 13.976 0 8.432-6.964 17.977-15.747 17.977-6.394 0-10.633-3.224-13.946-7.036-3.398-3.908-5.658-7.54-5.224-14.047 1.63-17.92 25.713-39.19 28.272-41.513 20.568-18.674 33.802-33.802 30.75-61.617-.196-1.783-.675-2.34-2.55-2.303-31.555.626-65.604.928-77.837 1.023-4.257.033-4.514.753-4.518 4.175Z"/>
      <path d="M483.9 74.074c-4.073-4.888 9.253-7.65 10.853-35.932.932-16.485-1.527-26.047-8.99-26.047-3.483 0-61.095-.68-85.128.07-2.77.086-5.983.635-5.984 5.778-.003 17.187 10.125 93.987 14.663 110.787 2.472 9.156 31.839.705 47.573 7.2-2.887-8.33-4.158-27.812-2.605-39.624-16.659 10.259-25.035-1.35-25.035-11.058 0-9.648 8.702-16.236 18.133-16.236 24.734 0 22.296 37.66 23.279 49.13.794 9.264 7.128 25.5 25.368 30.178 2.697.692 4.085-.179 3.916-2.856-.68-10.8.658-20.342.014-27.793-1.84-21.27-7.046-32.787-16.057-43.597Zm-40.16-22.38c-9.223 0-18.681-8.74-18.681-16.423 0-8.282 7.423-14.978 16.8-14.978 7.905 0 18.258 7.12 18.258 14.084 0 6.886-7.247 17.317-16.376 17.317Z"/>
      <path d="M382.282 29.624c-.666-11.162-.674-16.053-10.447-16.941-3.245-.295-85.887-3.285-92.894-1.13-10.589 3.258-7.623 72.283 1.694 72.283 14.285 0 33.683-11.545 44.188-25.694-9.74 2.682-17.364-2.118-17.364-15.106 0-7.934 10.87-19.765 22.447-19.765 7.745 0 16.684 3.502 16.94 15.53.57 26.682-22.25 37.625-38.54 57.176-12.14 14.57-14.212 31.2-13.606 41.368 1.597 26.781 8.35 23.74 14.998 19.631 28.114-17.376 60.503-19.718 76.886-23.488 4.679-1.076 9.105-.727 7.576-6.735s-11.223-86.16-11.878-97.129Zm-59.294 81.317c0-11.717 14.784-24 25.553-24 8.188 0 16.612 6.447 16.612 14.636 0 2.635-1.614 8.127-3.36 10.97-5.323 8.664-11.2 13.783-19.181 13.783-8.307 0-19.624-5.257-19.624-15.389Z"/>
      <path d="M139.264 13.92c14.4 0 104.195 1.436 111.912 1.436 3.169 0 7.74.002 7.74 7.802 0 10.45-.163 30.466-1.151 35.69-1.347 7.116-2.468 9.882-9.318 9.882-11.083 0-31.211.564-41.223-4.518 10.306-3.388 12.847-10.024 12.847-17.082 0-6.588-6.494-19.906-21.883-19.906-16.034 0-26.127 10.598-26.964 24.423 1.564 25.034 38.766 41.283 79.908 29.609 2.69-.764 5.846-.774 8.36 4.162 1.676 3.288 2.441 8.408-1.586 10.559-2.04 1.088-4.588 1.36-7.032 2.249-24.177 8.78-56.78 30.86-56.78 59.868 0 10.886 6.73 21.957 22.73 21.957 9.59 0 25.13-12.357 25.13-30.145 0-13.77-5.93-19.906-18.166-17.176 10.326-9.532 30.728-25.266 43.012-23.718 5.658.713 17.882 31.721 17.882 57.13 0 6.78-101.091 63.815-108.517 66.382-3.34 1.155-7.087.23-9.401-5.77-22.632-58.672-36.058-169.384-36.058-203.2 0-7.418.181-9.634 8.558-9.634Z"/>
      <path d="M21.53 13.953c5.7.046 78.681-1.661 85.176-1.13 8.612.707 9.242 10.342 10.588 17.79.74 4.091 7.896 94.352 2.334 95.155-1.728.25-3.578.211-5.863-.71-14.597-5.878-38.692-29.808-49.694-51.81 14.541 7.34 24.847-3.813 24.847-16.66 0-11.551-7.008-21.882-21.176-21.882-10.165 0-21.004 12.558-21.36 27.562-.616 25.941 12.322 42.692 25.219 56.25 14.682 15.435 82.578 59.886 80.564 119.811-37.569 25.273-138.353 18.782-138.353 1.6 0-8.307-2.76-211.38-2.76-217.897s1.443-8.152 10.478-8.079Z"/>
    </g>
  </g>
</svg>
