<!--
  SVG Music Logos
  Metallica - Dehann v1.0.0
  https://github.com/tiagoporto/svg-music-logos
  Copyright (c) 2016 Tiago Porto (http://tiagoporto.com)
-->
<svg xmlns="http://www.w3.org/2000/svg" viewBox="0 0 200 96">
  <path d="M127.51 91.304c-1.29-1.947-2.575-3.898-3.872-5.84-.48-.718-.886-1.492-1.555-2.07-.623-.54-1.056-.403-1.282.387-.274.963-.183 1.797.512 2.61.783.917 1.42 1.96 1.835 3.105.188.52.455 1.13-.015 1.603-.45.452-1.14.332-1.623.143-1.92-.75-3.857-1.473-5.545-2.728-1.24-.923-1.917-2.04-1.675-3.61.067-.43-.09-.536-.482-.484-.715.096-1.386.36-2.034.637-.857.365-1.673.295-2.52.055-1.53-.434-2.958-1.077-4.304-1.923-.218-.137-.38-.43-.774-.28-.35.132.027-.303-.265-.473-.736-.43-1.36-1.053-2.092-1.65-.545 1.514-1.507 2.614-2.864 3.386-.548.312-1.073.49-1.73.432-1.633-.144-3.258.182-4.897.163-1.625-.02-3.194-.235-4.717-.78-.376-.136-.67-.134-1.036.074-1.02.58-2.168.693-3.303.645-1.302-.055-2.62-.09-3.883-.498-.576-.186-1.054.177-1.558.312-1.22.325-2.456.545-3.707.655-2.898.255-4.815-1.24-6.23-3.58-.24-.4-.435-.83-.68-1.3-.788.69-1.56 1.395-2.426 1.992-2.286 1.576-4.84 2.335-7.558 2.774-4.27.69-8.13-.54-11.926-2.242-1.174-.527-2.11-1.365-3.002-2.264-.13-.132-.258-.376-.47-.3-.218.078-.137.342-.162.532-.175 1.375.182 2.703.368 4.045.243 1.75-.032 1.958-1.69 1.55-.6-.15-1.166-.39-1.696-.707-.752-.452-1.415-.882-1.34-1.987.06-.908-.095-.912-.945-.534-1.232.546-2.455.318-3.548-.313-.916-.53-1.536-.544-2.4.19-1.14.965-2.593 1.058-4.075.826-.94-.147-1.907-.12-2.615-.906-.22-.243-.406-.016-.59.07-1.25.586-2.474 1.227-3.823 1.565-3.106.777-5.846-.08-8.368-1.887-.86-.616-1.67-1.295-2.38-2.2-.168.434-.3.77-.425 1.107-.277.74-.31.753-.835.13-.607-.72-1.116-1.51-1.55-2.343-1.575-3.014-2.483-6.244-3.144-9.563-.63-3.16-.608-6.35-.59-9.545.014-2.523-.087-5.05.023-7.57.183-4.185.84-8.286 2.805-12.068 1.804-3.472 4.435-6.025 8.194-7.3.225-.077.41-.17.546-.348 1.096-1.444 2.61-1.802 4.297-1.586.515.066.527-.117.525-.494-.013-2.432.038-4.864-.137-7.294-.025-.357-.207-.603-.376-.864-2.106-3.258-4.407-6.39-6.38-9.733-1.24-2.102-2.487-4.208-3.14-6.593-.004-.023-.025-.043-.03-.066-.39-1.57.244-2.197 1.787-1.738 1.916.57 3.574 1.64 5.213 2.74 4.07 2.736 7.838 5.868 11.625 8.972.25.204.477.296.794.295 2.06-.012 4.123 0 6.184-.007 2.574-.008 5.067 1.987 5.622 4.52.074.336.11.68.158 1.02.028.204-.027.338.33.405.346.065.24.627.245.975.033 2.657.047 5.316-.13 7.967-.06.924.195 1.628.836 2.245.25.24.467.517.725.748.308.276.347.52-.01.772-1.284.914-1.74 2.16-1.63 3.717.074 1.06-.03 2.133-.068 3.2-.01.29.08.5.276.725.6.692 1.154 1.423 1.745 2.122.23.27.23.47.035.78-1.248 2.005-1.708 4.243-1.743 6.56-.05 3.328-.044 6.657-.002 9.984.027 2.13.414 4.213 1.026 6.255.12.4.266.444.684.366 2.128-.397 4.273-.477 6.43-.217.457.054.358.26.18.46-.46.52-.943 1.02-1.433 1.512-.362.364-.64.685-.11 1.158.4.36-.056.517-.267.628-.806.426-1.638.803-2.45 1.216-.157.08-.513.127-.213.447 1.473 1.57 2.853 3.258 4.912 4.12 1.715.717 3.528 1.14 5.363 1.285 4.482.35 8.484-2.23 10.298-6.52.3-.708.63-1.39 1.162-1.962.272-.293.497-2.517.294-2.82-.075-.11-.226-.18-.354-.242-.532-.255-1.067-.507-1.606-.748-.32-.143-.587-.355-.872-.55-.356-.246-.263-.964-.74-.907-.868.102-1.802.093-2.56.615-.54.37-.962.784-1.03 1.585-.142 1.64-1.8 2.88-3.716 2.968-.298.013-.596.018-.894.025-1.228.03-1.524-.193-1.75-1.4-.083-.444-.358-.76-.616-1.083-1.546-1.93-1.79-4.187-1.59-6.526.07-.85.65-.9 1.486-.934 1.384-.056 2.774-.116 4.15-.044 2.536.134 5.08.274 7.58.815.862.187 1.613-.34 2.405-.56.354-.097.104-.57.143-.872.03-.227-.045-.285-.302-.21-.272.08-.175-.21-.117-.27.727-.766.4-1.697.37-2.552-.098-2.676-.217-5.352-.407-8.022-.21-2.925-1.044-5.528-3.39-7.598-1.93-1.705-3.917-3.15-6.44-3.76-1.87-.454-3.765-.6-5.668-.367-1.413.172-2.347 1.125-3.048 2.27-.412.673-.755.578-1.174.098-.513-.588-1.035-.96-1.724-.243-.15.157-.258.022-.375-.067-.653-.498-1.213-1.092-1.724-1.73-.32-.4.113-.783.058-1.18.09-.013.242-.06.26-.03.46.772.51-.07.586-.192 1.394-2.29 3.214-4.024 5.967-4.445 2.113-.323 4.242-.257 6.37-.036 2.776.288 5.317 1.217 7.662 2.7.913.577 1.746 1.27 2.587 2.053.243-2.527.49-4.96-.022-7.42-.26-1.25-.404-2.545-.352-3.837.032-.805-.21-1.494-.67-2.14-.37-.52-.752-1.04-.695-1.745.05-.6.36-.823.878-.547.367.196.838.385 1.015.71.356.655.773.914 1.52 1.13.733.213 1.18 1.147 1.688 1.82.33.44.71.81 1.26 1.057.11-.473.2-.85.79-.996 3.326-.828 6.45-2.246 9.66-3.41.89-.325 1.527-.345 2.346.25 1.57 1.137 3.035 2.46 4.878 3.183.28.11.303.297.265.524-.39 2.314-.257 4.648-.3 6.976-.01.582.177.782.713.587.557-.203 1.146-.032 1.69-.16 2.05-.49 3.857.314 5.652 1.06 1.897.79 3.38 2.132 4.54 3.822.306.447.623.342.79-.003.782-1.61 2.257-2.526 3.52-3.664.52-.47 1.158-.527 1.756-.695.446-.125.442-.247.247-.58-.822-1.405-1.632-2.816-2.445-4.226-.073-.126-.13-.26-.276-.552 1.017.308 1.893.593 2.78.84 4.688 1.297 9.387 2.554 14.062 3.892 2.345.67 4.646 1.493 6.63 2.983.778.584 1.426 1.307 2.05 2.048.567.673 1.835.633 2.238-.16.86-1.69 2.418-2.653 3.808-3.784.355-.29.902-.394 1.38-.468.536-.083.45-.267.243-.615-.817-1.38-1.618-2.768-2.412-4.16-.067-.118-.21-.23-.124-.438.412-.108.78.144 1.16.266 5.13 1.637 10.4 2.76 15.548 4.328 2.43.74 4.835 1.568 6.858 3.192.405.325.78.69 1.135 1.07.243.26.395.223.576-.04.21-.304.424-.608.65-.9.69-.893.68-.873-.237-1.576-2.833-2.17-5.537-4.497-8.232-6.833-1.497-1.298-2.982-2.61-4.417-4.038.958.38 1.92.755 2.873 1.144 4.56 1.86 9.046 3.893 13.47 6.056.505.246.728.164 1.073-.264 1.35-1.675 2.756-3.303 4.19-5.007.276.865.508 1.662.782 2.444.478 1.365 1.117 2.638 2.21 3.632.526.48 1.132.79 1.856.812.684.02.902.294.672.982-.265.79-.4 1.625-.664 2.415-.255.76.337.91.747 1.222.483.367.603-.162.795-.357.5-.505 1.025-1.01 1.13-1.78.102-.76.647-1.164 1.233-1.56.892-.603 1.957-.96 2.645-1.86.157-.207.423-.12.63-.098 3.61.372 7.107 1.123 10.2 3.146 1 .653 2.007 1.394 2.38 2.57.67 2.12 1.884 4.03 2.327 6.238.433 2.156.98 4.314.783 6.518-.373 4.156-.5 8.32-.506 12.483-.005 3.62.1 7.24.343 10.857.184 2.74.476 5.465.79 8.19.017.146.05.292.093.433.138.47.036.74-.48.94-2.124.836-3.965 2.192-5.936 3.31-1.716.974-3.395 2.02-5.314 2.572-.473.135-.95.26-1.45.258-1.168-.005-2.03-.627-2.22-1.755-.113-.674-.287-1.374-.11-2.066.113-.438-.073-.504-.445-.502-2.242.01-4.08-.858-5.46-2.624-.37-.472-.702-.51-1.25-.295-1.592.62-3.242 1.025-5.173.987l1.886 1.338c-.874.38-1.724.32-2.537.422-.405.05-.604.193-.788.522-1.243 2.22-2.506 4.43-4.198 6.354-.56.637-1.177 1.21-1.94 1.588-.936.463-1.68.218-2.18-.7-.75-1.375-.895-2.906-1.09-4.417-.1-.785-.122-1.58-.195-2.598-.89 2.087-.86 4.092-.88 6.14-.345-.09-.422-.38-.554-.577-1.47-2.192-2.916-4.4-4.39-6.59-.338-.505-.712-1.196-1.412-1-.715.198-.562.978-.638 1.58-.076.597.16 1.032.5 1.482.773 1.025 1.51 2.08 1.95 3.302.182.505.462 1.063.067 1.55-.402.495-1.073.377-1.535.213-2.205-.785-4.407-1.6-6.212-3.184-.862-.757-1.26-1.668-1.18-2.824.064-.963-.05-1.022-.988-.728-.517.162-1.052.29-1.538.52-.847.403-1.676.297-2.524.055-2.26-.645-4.28-1.74-6.082-3.24-.74-.615-.743-.625-1.287.172-.515.753-1.138 1.427-1.986 1.737-1.62.593-2.194 1.846-2.424 3.403-.2 1.352-.338 2.703-.44 4.13zm-40-41.947c-.546-.195-.733.097-.837.495-.208.795-.342 1.625-.23 2.422.137.96.056 1.88-.178 2.787-.648 2.518-.65 5.03-.068 7.552.05.217.083.45-.033.655-.715 1.268-.433 2.495.39 3.52 1.446 1.8 1.807 3.808 1.628 6.035-.138 1.72-.047 3.46-.188 5.18-.096 1.178.037 1.41 1.206 1.23.17-.025.347-.004.52-.01 2.013-.073 4 .183 5.986.455.97.133 1.618-.577 2.423-.87.2-.075.17-.39.168-.616-.01-1.106-.326-2.138-.828-3.105-1.034-1.99-1.788-4.084-1.868-6.323-.075-2.1.374-4.16 1.006-6.172.182-.58.54-1.13.48-1.767-.265-2.773-.032-5.56-.23-8.335-.085-1.21-.148-2.445-.012-3.645.19-1.674.424-3.336.256-5.023-.126-1.266-.413-2.487-1.255-3.49-1.416-1.686-3.34-2.142-5.43-2.254-.885-.047-1.512.262-2.054.92-1.167 1.42-2.862 1.84-4.53 2.2-.99.214-1.016.084-.92-.87.01-.09-.062-.186-.075-.283-.066-.49-.13-.98-.188-1.47-.265-2.217-.307-4.448-.37-6.676-.055-1.983-.03-3.967.206-5.94.227-1.885-1.574-3.388-3.36-2.765-2.136.743-4.266 1.5-6.393 2.263-.196.07-.413.11-.56.322-1.254 1.814-2.242 3.666-.79 5.832.467.696.45 1.45.374 2.21-.19 1.877-.282 3.757-.282 5.642 0 2.11-.004 4.22.004 6.332 0 .23-.086.484.12.765.27-.358.512-.69.767-1.014 1.164-1.474 2.196-3.06 3.686-4.252.414-.33.893-.747 1.394-.47.59.325.232.967.106 1.42-.204.735-.22 1.574-.932 2.103-1.508 1.12-3.002 2.257-4.506 3.382-.66.494-.83 1.09-.505 1.862.046.112.128.216.15.332.484 2.475.814 4.953.818 7.494.003 1.684-.46 3.286-.495 4.94-.046 2.183.022 4.37-.03 6.554-.026 1.08-.242 2.14.293 3.185.243.474.28 1.036-.355 1.392-.248.14-.196.475-.222.75-.122 1.293.212 2.55.28 3.828.053 1.032.284 1.313 1.353 1.296 1.288-.02 2.545-.302 3.81-.51 1.307-.215 2.6-.58 3.955-.246.57.14 1.176-.384 1.168-1.045-.013-1.092.192-2.176.067-3.27-.095-.834-.36-1.747-.132-2.498.417-1.374.133-2.637-.14-3.933-.335-1.58-.875-3.132-.666-4.786.083-.66.194-1.315.295-1.972.276-1.79.3-3.602.385-5.405.08-1.72.284-3.462.007-5.16-.194-1.182-.036-2.06.905-2.824.62-.502 1.277-.926 1.954-1.336.368-.224.597-.103.91.108 1.006.675 1.36 1.695 1.59 2.87zM7.698 62.943c-.032 1.66.04 3.162.28 4.662.507 3.135 1.456 6.12 3.44 8.62 3 3.777 4.942 3.796 8.64 1.914 1.29-.658 2.47-1.516 3.873-1.975.59-.192.872-.09 1.06.463.205.605.41 1.21.65 1.803.226.56.703.705 1.12.323.32-.29.562-.188.852-.124 1.853.41 3.72.734 5.61.914.722.07 1.037-.47 1.428-.877.328-.342.077-.707-.125-1.008-.263-.392-.308-.803-.317-1.26-.03-1.687-.07-3.374-.166-5.057-.162-2.867-.423-5.72-.354-8.606.132-5.535.055-11.075.07-16.613.01-4.12-.04-8.244.18-12.36.04-.746.102-1.447-.215-2.163-1.295-2.924-2.56-5.864-3.824-8.802-.116-.266-.26-.383-.555-.37-1.063.04-2.13-.032-3.186.174-1.14.223-2.07.95-2.063 1.728.032 4.343-.08 8.688.106 13.03.008.192.025.44.142.56.27.273.427.5.166.875-.208.3-.348.648-.536.964-.07.117-.19.076-.323.052-1.528-.276-2.995-.76-4.463-1.258-.595-.202-1.224-.782-1.884-.068-.05.053-.267-.062-.41-.084-1.948-.304-3.697.208-4.94 1.707-1.022 1.234-1.853 2.657-2.605 4.083-1.232 2.34-1.533 4.935-1.627 7.525-.077 2.153-.116 4.313.106 6.47.167 1.633-.273 3.263-.128 4.755zm157.513 13.82c0 .2.044.41-.006.595-.25.92.186 1.3 1.037 1.396.812.092 1.614.158 2.44.107 1.703-.103 3.386-.473 5.104-.37.516.03 1.177.125.814-.794-.033-.085-.01-.2.007-.295.41-2.316.595-4.664.694-7.002.163-3.884.556-7.766.342-11.662-.015-.27-.04-.56.03-.816.462-1.736.265-3.5.193-5.248-.04-1.006.056-2.062-.317-3.014-.37-.943-.022-1.62.56-2.266.238-.263.458-.528.545-.87.097-.387 1.22-1.038 1.58-.862.616.302 1.26.58 1.81.98.92.666 1.487 1.536 1.43 2.77-.035.798-.31 1.544-.313 2.346-.013 2.854-.04 5.708-.12 8.563-.158 5.7-.152 11.406-.63 17.096-.105 1.255.772 1.976 1.99 1.704.187-.042.394-.04.586-.012 1.81.26 3.603.033 5.406-.108.616-.048 1.12-.53 1.838-.293.317.105.854-.315 1.23-.582.268-.19-.018-.505-.037-.76-.123-1.678-.36-3.35-.42-5.03-.21-6.004-.046-12.01.144-18.012.03-.99.045-1.99.19-2.968.304-2.057.17-4.074-.286-6.092-.334-1.483-1.18-2.765-1.64-4.17-.763-2.338-3.02-3.533-5.198-3.737-.186-.017-.394-.063-.556.116-.738.816-1.752.938-2.755 1.075-1.49.203-1.884.55-2.304 2.063-.04.142-.084.283-.125.424-.26.9-2.49 1.498-3.145.822-.26-.27-.386-.634-.197-1.026.323-.67-.008-1.286-.168-1.914-.25-.98-1.102-.415-1.652-.628-.13-.05-.295-.012-.444-.018-2-.085-4.015.192-6-.245-.11-.024-.202-.04-.26.044-.775 1.113-2.225 1.802-1.875 3.595.376 1.933.56 3.908.738 5.873.125 1.372.487 2.715.364 4.12-.168 1.924-.19 3.86-.342 5.785-.138 1.748-.398 3.486-.538 5.233-.08.988-.457 1.933-.466 2.906-.013 1.534.193 3.068.202 4.603.017 2.21.56 4.37.523 6.58zm-6.007 1.852c-.117-.483.365-.717.328-1.12-.085-.937-.124-1.878-.247-2.81-.188-1.414-.48-2.815-.638-4.233-.152-1.373-.298-2.746-.63-4.087-.083-.337-.092-.604.03-.92.373-.966.705-1.962.736-2.997.132-4.34.253-8.682.297-13.023.02-1.97-.415-3.873-1.493-5.572-1.536-2.422-3.284-4.586-6.35-5.114-1.212-.21-2.436-.376-3.625-.68-.4-.102-.505.3-.747.223-1.855-.578-3.703-.376-5.564-.04-1.997.363-3.75 1.032-4.963 2.842-1.683 2.51-2.8 5.098-1.983 8.19.136.514.465.78.953.584.448-.18.86-.17 1.295-.06 1.572.395 3.144.792 4.714 1.195.543.14 1.026-.006 1.312-.45.33-.512.657-1.075.785-1.66.268-1.22.994-2.073 1.942-2.775.715-.53 1.696-.412 2.252.283.334.418.705.775 1.155 1.028.324.183.36.41.367.727.036 1.617-.393 3.123-1.112 4.547-.193.382-.093.482.375.51-.606.506-1.07.99-1.794 1.15-2.47.542-4.958 1.014-7.38 1.764-.315.098-.603.222-.842.44-.895.824-1.798 1.637-2.67 2.484-1.24 1.206-1.904 2.614-1.81 4.424.094 1.805-.048 3.62-.077 5.433-.005.344.003.695.056 1.035.242 1.556.504 3.11.755 4.664.066.405-.037.846.29 1.192 2.096 2.218 4.267 4.188 7.704 3.754 2.532-.32 4.743-.98 5.754-3.632.06-.16.13-.338.37-.177.313.208.52 1.21.3 1.515-.57.793-.458 1.14.375 1.62.893.51 1.756.58 2.783.384 1.934-.37 3.91-.505 5.86-.81.413-.064.746-.1 1.137.17zm-45.52-40.668c-1.697-.104-3.297.437-4.923.824-.43.103-.83.222-1.193.53-2.145 1.81-3.314 4.19-4.042 6.828-.235.85-.457 1.715-.162 2.62.288.882.854 1.21 1.747.996.307-.074.636-.05.957.034 1.57.405 3.146.786 4.712 1.204.62.166 1.097-.035 1.415-.524.29-.45.59-.948.678-1.46.215-1.238.998-2.062 1.875-2.818.714-.615 1.58-.538 2.27.13.462.447.867.96 1.465 1.24.27.13.217.36.202.576-.112 1.584-.395 3.124-1.14 4.552-.06.114-.26.32-.12.38.794.333-.003.515-.095.616-.315.345-.728.57-1.204.672-1.56.336-3.123.664-4.674 1.043-1.118.272-2.34.378-3.293 1.002-1.045.684-1.898 1.662-2.822 2.525-.236.22-.415.47-.282.852 1.038 2.98 1.52 6.095 2.21 9.16.22.976.302 2.028.923 2.85.23.308.213.48.1.763-.555 1.37-.997 2.775-1.28 4.228-.22 1.125-.08 1.445.902 1.973 1.34.722 2.724 1 4.273.805 2.505-.314 4.695-.99 5.684-3.628.065-.176.163-.39.428-.166.367.31.494 1.21.132 1.524-.43.374-.285.747-.112 1.13.136.3 1.97 1.19 2.275 1.094 1.807-.558 3.694-.603 5.547-.817.883-.102 1.85-.727 2.748.06.11.097.352.07.47-.096.143-.2.136-.427 0-.626-.133-.197-.408-.31-.36-.61.094-.566-.23-.98-.49-1.428-1.55-2.653-2.644-5.43-2.35-8.59.232-2.496.784-4.9 1.9-7.157.174-.35.365-.688.344-1.113-.173-3.594.602-7.197-.266-10.798-.342-1.418 0-2.948-.92-4.305-1.533-2.253-3.04-4.485-5.926-5.135-1.366-.308-2.77-.468-4.118-.832-.438-.118-.584.318-.92.197-.83-.3-1.688-.36-2.57-.308zm-91.62-2.94c.887-.872 1.202-2.752.58-3.737-.286-.454-.192-.775.106-1.128.486-.578.732-1.285.57-1.99-.36-1.545-.24-3.1-.27-4.655-.008-.402.028-.857-.454-.988-.49-.134-.85.18-1.117.556-.14.196-.226.44-.3.672-.65 2.075-.62 4.24-.775 6.375-.035.482-.1.622-.515.705-.397.08-.67.42-.398.722.592.652.082 1.076-.192 1.558-.12.21-.186.398-.06.618.374-.034.61-.294.885-.502.83-.626 1.513-.365 1.73.648.08.373.136.753.207 1.146zm87.752 19.433c-.066-.65-.128-1.286-.195-1.92-.032-.305-.16-.477-.485-.306-.238.125-.485.243-.694.407-1.82 1.423-3.398 3.112-5.11 4.655-1.257 1.135-1.824 2.546-1.994 4.396.552-.947 1.616-1.305 1.475-2.523-.046-.408.3-.867.736-1.13.356-.214.545.064.766.24.223.178.307-.045.422-.14 1.073-.88 2.065-1.83 2.837-3.008.744-1.135 1.045-1.19 2.245-.67zm-6.865 8.01c-2.13 3.86-1.963 8.957.284 11.45-.177-.81-.475-1.548-.264-2.337.296.06.36.4.72.387-.47-3.086-.548-6.192-.74-9.5zm31.195-3.29c1.314-1.347 2.846-2.286 3.757-3.842.255-.436.61-.778.99-1.09.502-.413.934.108 1.44.196-.06-.52-.124-.98-.16-1.444-.025-.294.046-.665-.263-.793-.28-.116-.553.116-.792.294-1.453 1.078-2.654 2.444-4.05 3.577-1.017.825-1.125 1.807-.923 3.104zM33.755 24.036c1.473-.376 1.587-.67.79-1.964-.09-.145-.196-.28-.282-.43-.1-.175-.207-.22-.422-.157-.955.273-1.918.52-2.955.794 1.26 1.43 2.46 2.796 3.663 4.16.052-.035.104-.07.155-.107l-.947-2.295zm30.842 42.49c1.835.094 1.873.07 1.7-1.026-.55.313-1.15.487-1.7 1.026z"/>
  <path d="M70.226 22.638c-.006.338.11.645.33.933.068.09.213.24.07.396-.165.18-.263-.02-.368-.083-4.06-2.435-7.918-5.128-11.05-8.732-1.446-1.662-2.864-3.35-4.287-5.03-1.62-1.915-3.408-3.67-5.093-5.524-.25-.274-.476-.568-.706-.86-.158-.2-.292-.463-.152-.676.177-.268.49-.15.743-.068.875.28 1.665.73 2.425 1.233 2.24 1.482 4.216 3.29 6.148 5.134 3.482 3.324 6.806 6.803 9.933 10.467.547.64 1.13 1.25 1.692 1.88.228.255.504.503.318.93z"/>
  <path d="M56.877 48.66c-.26 1.094-.106 2.337-.166 3.57-.048 1.01-1.368 1.84-2.322 1.532-.997-.322-2.036-.37-3.074-.34-.574.017-.844-.16-.697-.78.1-.418-.11-.823-.135-1.232-.114-2.004.542-3.81 1.723-5.37.517-.682 1.47-.53 2.283-.35 1.297.283 2.41 1.602 2.39 2.97z"/>
  <path d="M72.948 21.857c-1.21.92-1.198.91-2.263-.232-.762-.817-1.54-1.62-2.358-2.38-.398-.37-.345-.575.02-.916 1.033-.97 2.187-1.67 3.618-1.872 1.584-.223 3.142-.654 4.762-.57.805.04 1.53.293 2.28.83-2.44 1.17-3.89 3.38-5.883 4.965-.06.057-.118.116-.176.174z"/>
  <path d="M44.584 47.034c-1.326-1.57-2.633-3.12-3.946-4.666-.143-.168-.22-.325-.106-.533.39-.71.674-1.478 1.176-2.127.292-.378.577-.505.96-.102 1.176 1.235 2.68 1.805 4.323 2.057 1.023.156 1.774.61 1.98 1.685.113.582.487.768 1.007.857.75.128 1.49.317 2.242.44.4.064.412.22.18.47-.42.454-.836.92-1.298 1.33-.345.31-.8.7-1.248.39-.415-.286-.85-.683-.79-1.334.038-.425.136-1.023-.647-.556-.063.038-.238.016-.266-.032-.406-.7-1.202-.805-1.81-1.193-.227-.146-.455-.406-.77-.07-.284.303-.416.61-.26 1.004.18.45.793.823.392 1.375-.284.386-.727.66-1.118 1.004z"/>
  <path d="M85.873 23.203c-1.256-1.222-2.175-2.44-3.08-3.67-2.2-2.987-4.033-6.19-5.63-9.534-.074-.156-.128-.32-.183-.483-.097-.29-.39-.675-.125-.866.392-.28.666.182.902.428 1.46 1.52 2.58 3.31 3.86 4.974 1.308 1.702 2.56 3.448 3.87 5.15.277.362.4.712.39 1.153-.016.882-.004 1.766-.004 2.848z"/>
  <path d="M59.756 45.763c-.525.747-1.105.454-1.716.245-.765-.262-1.556-.428-2.374-.48-.81-.05-.994-.45-.465-1.087.948-1.14 2.137-1.878 3.677-1.876.974 0 1.648.61 1.71 1.574.053.787.064 1.58-.143 2.354-.044.162-.125.314-.19.47-.2-.082-.42-.135-.597-.255-.226-.153.033-.297.064-.446.023-.108.09-.208.138-.312l-.102-.185z"/>
  <path d="M72.948 21.857l.175-.175c.948.514 1.403-.153 1.93-.76.503-.577 1.065-1.105 1.635-1.617.445-.4.845-.37 1.35.064.625.535 1.39.905 2.192 1.408-1.44.418-2.807.817-4.175 1.212-.66.19-1.317.385-1.98.56-.738.195-1.01.02-1.127-.693z"/>
  <path d="M95.86 85.597c.335.028.644.006.922.09.445.132.992.303.9.89-.082.528-.09 1.182-.887 1.31-.577.093-1.148.27-1.696.478-.668.25-.696.04-.555-.552.158-.665.434-1.293.507-1.99.053-.535.568-.086.81-.226z"/>
  <path d="M57.72 53.765c-.427-1.057-.54-1.953-.104-2.914.277-.61.648-.296.97-.222.443.103.17.412.088.633-.296.8-.606 1.596-.954 2.505z"/>
  <path d="M72.563 28.005c.91-.866 1.813-1.71 2.7-2.572.28-.27.36-.02.505.137 1.61 1.727 2.804 3.748 4.02 5.748.443.727.974 1.386 1.488 2.11-3.275-1.253-6.063-3.19-8.713-5.423z"/>
  <path d="M24.206 57.19c.273 3.264-.186 6.62-.675 9.977-.166 1.15.04 2.325-.174 3.485-.172.93-.458 1.353-1.368 1.306-.97-.05-1.98.24-2.92-.258-.21-.11-.383-.164-.333-.464.15-.907-.072-1.76-.443-2.578-.525-1.16-.85-2.314-.653-3.64.196-1.322-.08-2.673-.097-4.01-.033-2.706-.053-5.413.008-8.117.04-1.722.19-3.45.882-5.072.218-.51 1.97-2.926 2.36-3.23.868-.676 2.86.026 3.012 1.1.146 1.027.254 2.066.27 3.102.04 2.753.286 5.502.132 8.4z"/>
  <path d="M30.457 68.372c-.695.78-1.313 1.52-1.983 2.215-1.37 1.418-1.97 1.394-3.328-.1 2.13-1.02 1.816-2.927 1.704-4.746-.036-.585-.235-1.156-.234-1.754 0-.587.177-.815.793-.538 1.255.564 2.582.943 3.91 1.287.898.233 1.53.832 1.58 1.728.022.383-.084.612-.475.7-.598.135-1.193.287-1.788.435-.196.05-.49-.125-.57.183-.066.26.206.37.34.536.065.077.132.15.05.056z"/>
  <path d="M29.556 74.69c.644.346 1.354.406 2.044.497.477.063.668.194.53.715-.358 1.35-.436 1.425-1.88 1.386-.05 0-.104-.014-.15 0-1.655.508-2.062-.943-2.708-1.847-.473-.66-.536-1.575-.61-2.407-.077-.858.4-1.15 1.14-.71.747.444 1.42 1.003 2.015 1.63.412.435-.265.4-.38.738z"/>
  <path d="M149.127 65.502c-.105 1.492-.053 3.04-.48 4.527-.625 2.175-2.533 2.775-4.214 1.283-1.412-1.254-2.083-2.806-1.966-4.788.05-.826.37-1.378.743-1.976.78-1.257 1.605-2.487 2.422-3.72.15-.226.326-.44.52-.624 1.1-1.04 2.152-.76 2.505.698.363 1.495.433 3.028.47 4.598z"/>
  <path d="M154.52 51.362c-.106-1.685-.81-2.97-1.324-4.318-.552-1.444-1.182-2.867-1.107-4.47.018-.414.007-1.028.314-1.117.426-.123.732.384.955.775 1.508 2.65 1.952 5.478 1.412 8.47-.03.16-.117.312-.253.66z"/>
  <path d="M118.557 65.465c.04 1.56.024 3.02-.396 4.436-.72 2.433-2.8 2.934-4.584 1.12-1.462-1.484-1.742-3.314-1.57-5.28.01-.112.09-.224.156-.325 1.05-1.613 2.103-3.223 3.15-4.838.182-.278.42-.482.7-.65 1.017-.612 1.77-.362 2.088.784.443 1.585.533 3.215.457 4.755z"/>
  <path d="M123.947 51.263c.042-1.625-.78-2.93-1.292-4.328-.415-1.13-.877-2.24-1.027-3.452-.06-.476-.096-.924.037-1.39.066-.233-.005-.594.24-.658.3-.08.527.213.703.45 1.042 1.404 1.488 3.038 1.76 4.723.228 1.42.284 2.848-.137 4.255-.04.144-.086.275-.283.4z"/>
</svg>
