<!--
  SVG Music Logos
  Eddie Van Halen - EVH v1.0.0
  https://github.com/tiagoporto/svg-music-logos
  Copyright (c) 2016 Tiago Porto (http://tiagoporto.com)
-->
<svg xmlns="http://www.w3.org/2000/svg" viewBox="0 0 200 85">
  <g id="evh__register">
    <path d="M187.548 14.085c-2.04 0-3.696 1.655-3.696 3.696 0 2.042 1.655 3.697 3.696 3.697 2.04 0 3.696-1.655 3.696-3.696 0-2.04-1.654-3.695-3.696-3.695zm0 6.6c-1.603 0-2.903-1.3-2.903-2.904 0-1.602 1.3-2.902 2.903-2.902s2.903 1.3 2.903 2.903c0 1.604-1.298 2.904-2.902 2.904z"/>
    <path d="M188.91 18.877c-.19-.304-.34-.515-.45-.635-.11-.12-.252-.23-.423-.328.342-.05.6-.17.773-.36.172-.192.26-.434.26-.728 0-.23-.058-.437-.172-.616-.113-.18-.265-.305-.455-.375s-.493-.105-.91-.105h-1.66v3.908h.788v-1.632h.16c.182 0 .314.015.398.044.084.03.163.083.237.163.075.08.213.27.416.574l.572.85h.944l-.477-.76zm-1.664-1.493h-.584v-.992h.616c.32 0 .512.005.576.013.128.02.227.073.297.153.072.08.106.187.106.32 0 .116-.027.214-.08.292-.053.078-.127.133-.22.165-.096.033-.332.05-.71.05z"/>
  </g>
  <path d="M99.973 2.022C39.386 2.022 2 22.91 2 41.015c0 23.728 42.17 41.963 94.19 41.963-9.3-23.627-27.853-71.374-27.853-71.374h9.344l20.16 51.308 21.438-50.94 9.346.183s-19.866 46.99-29.502 70.824C159.946 82.98 198 63.385 198 41.015c0-20.79-46.603-38.994-98.027-38.994zm-43.18 28.64H41.764v7.467H56.24v5.91H41.766v8.155h14.843v5.954H33.84V44.04h-4.902v-5.91h4.902V24.796h22.953v5.865zM171.136 44.27h-4.855V58.33h-7.97V44.27h-11.866V58.33h-7.834V25.027h7.834v13.24h11.865v-13.24h7.972v13.24h4.855v6.002z"/>
</svg>
