<!--
  SVG Music Logos
  Anti Flag -  1 v1.0.0
  https://github.com/tiagoporto/svg-music-logos
  Copyright (c) 2016-2019 Tiago Porto (http://tiagoporto.com)
-->
<svg xmlns="http://www.w3.org/2000/svg" viewBox="0 0 200 27">
  <path d="M42.333 1.472L42.333 6.114 44.791 6.114 44.791 15.025 35.139 1.472 27.466 1.472 27.466 6.114 29.908 6.114 29.908 20.739 27.554 20.739 27.554 25.38 38.07 25.38 38.07 20.739 35.716 20.739 35.716 12.309 45.007 25.38 50.599 25.38 50.599 6.114 52.849 6.114 52.849 1.472z"/>
  <path d="M54.064 1.472L54.064 9.738 58.705 9.738 58.705 6.467 61.324 6.467 61.324 20.739 58.97 20.739 58.97 25.38 69.486 25.38 69.486 20.739 67.132 20.739 67.132 6.467 69.52 6.467 69.52 9.738 74.161 9.738 74.161 1.472z"/>
  <path d="M86.217 6.114L86.217 1.472 75.701 1.472 75.701 6.114 78.055 6.114 78.055 20.739 75.701 20.739 75.701 25.38 86.217 25.38 86.217 20.739 83.863 20.739 83.863 6.114z"/>
  <path d="M129.304 9.264L129.304 1.472 128.294 1.472 110.978 1.472 110.978 6.467 113.332 6.467 113.332 20.739 110.978 20.739 110.978 25.38 121.494 25.38 121.494 20.739 119.14 20.739 119.14 15.722 124.894 15.722 124.894 11.08 119.14 11.08 119.14 6.467 123.496 6.467 123.496 9.264z"/>
  <path d="M143.367 17.303L143.367 20.144 138.94 20.144 138.94 6.114 141.294 6.114 141.294 1.472 130.778 1.472 130.778 6.114 133.132 6.114 133.132 20.739 130.778 20.739 130.778 25.38 149.175 25.38 149.175 17.303z"/>
  <path d="M23.833,20.739L16.056,1.472H7.031l0,4.641H9.24L3.314,20.739H1v4.641h10.893v-4.245H9.285l0.729-2.17h6.743l0.668,2.17	h-2.128v4.245H26.19v-4.641H23.833z M11.573,14.324l1.961-5.837l1.796,5.837H11.573z"/>
  <path d="M173.384,20.739l-7.777-19.266h-9.025v4.641h2.209l-5.926,14.625h-2.314v4.641h10.893v-4.245h-2.608l0.729-2.17h6.743	l0.667,2.17h-2.128v4.245h10.893v-4.641H173.384z M161.124,14.324l1.961-5.837l1.796,5.837H161.124z"/>
  <path d="M186.886,6.9c2.045,0,3.868,0.954,5.056,2.442H199V1.477h-5.397v1.62c-1.992-1.511-4.436-2.401-7.077-2.401	c-6.707,0-12.144,5.733-12.144,12.804s5.437,12.804,12.144,12.804c2.876,0,5.517-1.054,7.597-2.816v1.892H199V11.943h-13.42v4.779	h6.896c-1.126,1.928-3.207,3.224-5.591,3.224c-3.581,0-6.484-2.92-6.484-6.523C180.402,9.82,183.305,6.9,186.886,6.9z"/>
  <path d="M100,4.371c-0.463,0.226-1.51,0.739-1.51,0.739L96.7,4.234v15.435l-1.576-0.476l3.366,6.188l3.366-6.188L100,19.754V4.371z"/>
  <path d="M101.584,3.596v14.348c3.54-0.635,9.603-1.722,9.603-1.722l-6.014-6.336l1.312-8.687 C106.484,1.199,103.909,2.459,101.584,3.596z"/>
  <path d="M95.116 17.894L95.116 3.459 90.496 1.199 91.808 9.887 85.794 16.222z"/>
</svg>
