<!--
  SVG Music Logos
  Sepultura - Tribal Symbol Dirty v1.0.0
  https://github.com/tiagoporto/svg-music-logos
  Copyright (c) 2016 Tiago Porto (http://tiagoporto.com)
-->
<svg xmlns="http://www.w3.org/2000/svg" viewBox="0 0 144 200">
  <path d="M129.922 151.08c-.718.215-1.48.203-2.194.426-1.197.382-2.47.405-3.716.388-1.813-.002-3.625.002-5.438.002-.86.006-1.547-.59-2.3-.925-1.697-.75-3.324-1.648-5.002-2.443-1.38-.65-2.326-1.903-3.525-2.8-1.133-.134-2.377-.216-3.427.318-1.26.484-2.51 1.073-3.526 1.977.034.413.14.818.383 1.162.592.924 1.133 1.883 1.727 2.807.635.87.826 1.957 1.266 2.923.596 1.75 1.45 3.414 1.82 5.234.29.797.273 1.672.604 2.456.185.69.23 1.415.483 2.09.21.546.166 1.195.576 1.65.104-.324.22-.64.324-.962l.028-.097c.1.27.247.528.318.812.07.363-.365.488-.563.718-.003.54-.027 1.096.154 1.62.493 1.4.318 2.907.58 4.352.4 1.872.2 3.8-.02 5.683.06 2.04-1.054 3.847-1.41 5.82-.166.88.044 1.773-.064 2.662-.186-.35-.362-.703-.56-1.04-.75.464-1.024 1.35-1.447 2.076-.223.484-.585.906-.72 1.428-.2.93-.692 1.764-.983 2.663-.244 1.258-1.388 2.004-2.05 3.028-.815 1.248-1.912 2.338-2.468 3.736.296.09.686.316.917-.02 1.134-1.167 2.396-2.23 3.348-3.565.302-.478.95-.64 1.123-1.21.105-.39.485-.537.808-.715-.03-.488.214-.885.56-1.2.505-.46.606-1.154.824-1.763.333-.04.68-.063.985-.217.538-.597.896-1.32 1.273-2.025.5-.84.626-1.826 1.187-2.638.64-1.65 1.54-3.218 1.922-4.963.656-2.118 1.154-4.28 1.564-6.456.638-1.797.398-3.728.45-5.596.03-.553-.26-1.073-.168-1.624.05-1.292.474-2.688-.142-3.91-.404-.696-.32-1.525-.488-2.284-.096-.666-.338-1.304-.414-1.972.145-.948.056-1.906.123-2.86-.483-.18-.852-.517-.78-1.072.246 0 .5-.03.742.03.21.454.452.917.898 1.185 1.865.07 3.734.07 5.603.11.866.04 1.682-.308 2.537-.39.772-.097 1.582-.04 2.31-.362.83-.238 1.617-.595 2.454-.806.52-.136.927-.5 1.356-.806.45-.18.944-.23 1.373-.464.69-.37 1.245-.956 1.948-1.317.49-.262.848-.694 1.11-1.176-.772-.075-1.54.105-2.276.326zm-21.822-1.194c.036.507.06 1.02.003 1.526-.125-.037-.38-.117-.506-.158-.04-.488.083-1.006-.194-1.444.23.024.462.05.697.076zm-.233 8.725c-.178-.356-.376-.736-.263-1.145.23-.79.096-1.615.23-2.42.302 1.174.342 2.39.033 3.566zm-.04-5.05c-.15-.712-.142-1.453-.002-2.167.474.63.417 1.526.002 2.167z"/>
  <path d="M76.053 149.392c1.124-.338 2.13-.973 3.09-1.63.413-.538.61-1.23.676-1.897-.24-.002-.475.002-.71.013-.057-.26-.105-.52-.243-.745-.89-1.246-2.525-1.666-3.43-2.89-.176-.583-.37-1.16-.536-1.74-.02-.724-.056-1.455.02-2.173.22-.824.498-1.672.317-2.532-.087-.39.222-.697.36-1.03.29-.5.104-1.11.32-1.627.674-1.7.394-3.564.44-5.344-.108-1.03.22-2.2-.452-3.09-.338-.813-1.217-1.187-2.017-1.37-.635.275-1.012.922-1.644 1.202-.853.38-1.763.61-2.63.958-1.074.376-2.218.16-3.328.223-.8-.168-1.61-.28-2.417-.4-.097-.38-.198-.758-.3-1.135-.67.146-1.342.28-2.028.3-.696-.025-1.214.482-1.77.814-.548.316-.815.917-1.08 1.46-.657 1.336-1.293 2.686-2.027 3.982-.207.357-.493.793-.96.774-2.207.092-4.42.146-6.63.213-.38.1-.822.323-.866.77-.694 1.965-.847 4.2-.084 6.17.135.45.14.928.27 1.38.282.533.67 1.007 1.07 1.454.586.672 1.423 1.025 2.17 1.47.695.2 1.4.368 2.11.49.98.127 2.03.13 2.888.676.522.445.462 1.17.498 1.79.173.86.44 1.696.57 2.564.155.86.115 1.74.297 2.598.307 1.474.447 2.985.414 4.492.01 2.91-.098 5.815-.105 8.724-.023.417-.027.84.066 1.254.687-.027.823-.793 1.22-1.22.642-.723.5-1.752.873-2.596.7-2.914 1.383-5.836 2.162-8.73.094-.493.014-1.163.572-1.405 1.475-.705 3.162-.423 4.718-.786.954-.13 1.913-.257 2.88-.27 1.816-.027 3.5-.776 5.25-1.162zm-15.196-13.074c.707-.253 1.184-.818 1.593-1.417.172.23.343.467.512.704-.14.476-.247.956-.25 1.455-.166.29-.37.558-.547.838l-.5.008c.195-.447.4-.89.584-1.338-.362.14-.735.248-1.12.288-.07-.135-.204-.405-.273-.538zm.35 3.72c.315.066.625.154.937.237.003.236.004.474.008.714-.356-.276-.73-.546-.944-.953zm1.35 4.603c.33.237.597.556.575.986-.388-.26-.76-.545-1.15-.8.19-.06.38-.132.575-.185zm.504 3.395c-.256.036-.52.023-.778.02.23-.444.467-.886.754-1.295.06.004.18.01.242.015-.04.41.16.966-.217 1.26zm-1.126-8.69l.09-.48c.472-.174.897-.45 1.352-.656.305.145.234.496.276.773-.543.305-1.206-.02-1.718.363zm4.048 1.323c.25-.148.5-.3.752-.45-.002.38-.006.76-.01 1.143-.19-.012-.572-.034-.76-.047.003-.16.015-.483.018-.645zm.457 5.83c.138-.416.34-.828.337-1.276-.136-.196-.29-.376-.434-.563.287.25.567.514.876.744.006.07.023.205.03.273-.27.273-.542.547-.81.822zm1.776.844c-.23-.006-.458-.01-.685-.017.243-.983.698-1.906 1.145-2.81.077.953.167 2.026-.46 2.827zm2.392-6.113c.06-.016.177-.05.238-.07-.006.22-.01.443-.014.668-.18.02-.363.042-.545.067.108-.22.217-.445.32-.666z"/>
  <path d="M116.37 123.063c-.52.13-1.023.31-1.52.51.025.686-.13 1.406.072 2.072.656 1.158 1.086 2.452 1.947 3.487.59.745 1.106 1.55 1.703 2.29.397.518.988.822 1.516 1.188 1.022.614 1.556 1.728 2.29 2.628 1.268 2.075 2.048 4.41 2.642 6.752.434-.02 1.092.296 1.33-.225.79-1.37.63-2.99.63-4.506-.304-1.506-.748-2.977-1.23-4.434-.414-2.187-1.412-4.195-2.116-6.297-.49-1.14-.76-2.49-1.798-3.278-1.12-.472-2.196-1.27-3.467-1.165-.8-.024-1.263.798-2 .976zm2.77 1.99c.03.29.054.58.078.873-.17-.027-.336-.052-.502-.075-.01-.28-.018-.56-.025-.836.148.01.3.023.45.04z"/>
  <path d="M101.918 144.633c1.593-.18 3.22-.06 4.804-.334 1.132-.404 2.24-.87 3.318-1.395.22-.812.603-1.62.42-2.48-.422-.874-1.24-1.537-1.486-2.49.024-.96.107-1.923.027-2.88-.103-.784.12-1.56.056-2.345.07-.693-.096-1.42.148-2.083.657-.284 1.395-.34 2.065-.614 1.025-.192 2.12-.438 2.837-1.267-.02-1.682.045-3.414-.547-5.015-.51-.922-1.526-1.29-2.363-1.827-.677-.395-1.368-1.023-2.213-.743.298 1.384.32 2.85.026 4.24-.07-.024-.207-.068-.275-.086-.05-1.204-.147-2.41-.044-3.615.01-.3.092-.704-.237-.863-.675-.313-1.445-.292-2.14-.547-.96-.344-1.993-.313-2.995-.403-2.94-.518-5.948-.346-8.907-.685-1.032-.025-2.065-.042-3.1-.085-.59-.06-1.09.34-1.67.376-.976.1-1.97.048-2.932.265-.208.117-.55.186-.59.463-.056.986.063 1.992-.12 2.97-.486.487-1.112.83-1.687 1.212-1.043.472-2.14-.173-2.974-.783-.562-.39-1.073-1.05-1.82-.992-.562.04-1.138-.127-1.688.042-.335.445-.54.98-.732 1.496 0 .74-.082 1.505.165 2.22.35 1.038.592 2.126.482 3.228.166 2.2-.64 4.3-1.152 6.4-.123.882-.256 1.763-.384 2.645.36 1.14.826 2.26 1.392 3.313 1.093.29 2.237.26 3.336.04.432-.26.678-.762.838-1.223.162-.927.526-1.795.75-2.703.403-.324.982-.127 1.396-.426.48-.427 1.12.09 1.35.55.418.812.644 1.743.56 2.663-.056.61.202 1.346-.284 1.837-.868.898-1.805 1.722-2.676 2.617-.4.384-.584.947-.6 1.497.085.79.98.987 1.534 1.37-.187.894-1.224 1.038-1.91 1.425-1.33.48-2.364 1.48-3.257 2.54-.743.2-1.526.19-2.265.402-.934.25-1.906.257-2.865.26-.546-.016-.99.36-1.51.467-.865.114-1.75.237-2.555.594-.13.547-.01 1.12.004 1.676.973.505 2.08.59 3.113.914.724.167 1.477.16 2.208.3 1.135.29 2.32.17 3.478.18 1.01-.066 2.025.118 3.033-.018 1.144-.26 2.32-.35 3.49-.405-.02.873-.57 1.587-.813 2.4-.358.72-.624 1.5-1.124 2.138-1.144.58-1.702 1.824-2.22 2.932.222.08.444.157.668.236-.006.176-.01.355-.014.534-.36-.012-.724-.02-1.083-.017-.074.363-.11.735-.2 1.096-.163.285-.478.492-.55.828.037.415.39.7.622 1.02.983-.52 2.036-.905 2.953-1.54.917-1.036 1.618-2.243 2.513-3.293.445-.336 1.12-.42 1.375-.983.21-.518.837-.622 1.082-1.102.19-.36.562-.538.873-.77.305-.564.457-1.198.775-1.753.514-.656.28-1.532.29-2.3-.237-.532-.492-1.327-1.19-1.355-.702-.044-1.403-.106-2.1-.204.076-1 .622-1.85.93-2.776.163-.432.522-.916.213-1.37-.643-.945-1.877-1.145-2.656-1.948.76-.207 1.62-.307 2.34.088.776.4 1.612.774 2.17 1.476.464 1.236.18 2.676.883 3.83.284.756.948 1.27 1.563 1.753 1.296-.124 2.615-.254 3.925-.333.838-.35 1.712-.635 2.52-1.06 0-1.9.13-3.792.16-5.688.293-.94.94-1.708 1.38-2.58.33-.756 1.208-.846 1.868-1.157zm7.023-18.423c.15.86.07 1.74.095 2.61-.2-.015-.398-.028-.596-.036.116-.87.37-1.708.5-2.574zm-1.533 15.48c.198.002.4.004.6.01-.04.34-.1.68-.206 1.01l-.62-.388c.073-.212.15-.423.227-.632zm-27.973-4.79c.16-.835.196-1.68.177-2.528.044 0 .123-.004.163-.006-.057.904.208 1.776.206 2.676.09.36.23.703.34 1.06-.318-.386-.714-.72-.886-1.202zm4.89-2.14c.183-.31.345-.63.5-.96.02.314.03.63.04.948-.18 0-.362.005-.54.01zm-1.543 30.878c-.116-.236-.246-.46-.388-.678.15-.015.452-.046.6-.063-.075.244-.146.49-.21.74z"/>
  <path d="M47.892 115.65c-.334.028-.663.097-.993.147-.014-.26-.024-.517-.036-.776-.487-.14-.93.024-1.346.272-.54.033-.97.342-1.406.63-.13-.064-.394-.194-.524-.26.707-.546 1.53-.897 2.322-1.29-.218-.38-.332-.87-.732-1.105-.74.54-1.624 1.016-2.023 1.887-.03.538-.285 1.012-.548 1.473.454-.067 1.02.102.908.68l-.738.077-.334-.678c-.476.324-.09.812.22 1.09.646.57 1.343 1.077 1.997 1.638.77.672 1.778.966 2.597 1.56.148.228.26.48.412.706.54.27 1.175.142 1.76.173.156-.515.396-1.006.524-1.528.058-.84.078-1.69-.12-2.51l-.48.515c.306-.376.534-.8.668-1.27-.59-.625-1.277-1.22-2.13-1.43zm-3.2 1.583c.383-.357.683-.93 1.295-.8l.062.56c-.47-.027-.926.06-1.357.24zm3.88.708c-.234-.02-.472-.024-.702-.068-.292-.265-.25-.664-.248-1.02.33.137.608.358.884.58.158-.233.312-.464.47-.696.012.445-.13.854-.403 1.205z"/>
  <path d="M36.71 126.383c.074-.386.248-.75.25-1.148-.768-.11-1.42-.51-1.983-1.023-.988-.515-1.31-1.655-2.01-2.448-.053-.54-.362-.972-.694-1.38-1.06-1.35-1.11-3.21-2.2-4.535-.36-.76-.052-1.873-.864-2.397-.307-.202-.388-.574-.528-.887-.35.006-.7.02-1.048.048-.102 2.04.054 4.082.04 6.122-.03.804.367 1.536.412 2.33.074.948.615 1.785.726 2.723-.097.726-.675 1.256-1.006 1.884-.29.572-.924.8-1.467 1.065-2.18 1.105-4.24 2.468-6 4.17-.89 1.162-2.026 2.093-3.065 3.115-1.064.812-1.764 1.987-2.793 2.836-.73.725-1.602 1.318-2.178 2.186-.778 1-1.455 2.073-2.098 3.164-.38.205-.81.367-1.058.75-1.2 1.827-2.383 3.67-3.582 5.5-.35.667-.542 1.395-.787 2.1-.912 1.975-.956 4.188-1.284 6.3-.04 1.15-.32 2.296-.142 3.45.756-1.857 1.624-3.68 2.264-5.583-.407.207-.918.403-1.29.008.233-.417.495-.816.7-1.244.603.022 1.327-.03 1.7-.573.47-.607.862-1.27 1.244-1.933.207-.294.09-.662.07-.987.08.234.184.46.244.706.19-.21.366-.43.494-.678.785-1.42 1.78-2.705 2.603-4.1.432-.752 1.115-1.303 1.71-1.915.816-.764 1.522-1.66 2.503-2.225 2.256-1.634 4.724-2.928 7.16-4.262 1.383-.584 2.857-.896 4.267-1.413 1.29-.324 2.504-.935 3.816-1.165 1.764-.05 3.535-.03 5.29-.24.29-.082.526-.276.78-.422-.064-1.016.114-2.035-.008-3.05.046-.857-.056-1.727.174-2.562.075-.782-.394-1.506-.367-2.287zm-29.4 21.87c0-.26.004-.52.01-.778.164.02.33.044.495.07l.03.688c-.178.005-.356.013-.536.02z"/>
  <path d="M64.883 111.652c-.306.71-.944 1.167-1.558 1.59-.787.238-1.182.992-1.712 1.553-.594.488-1.32.81-1.83 1.403-.117.374.216.63.368.933-.053.28-.195.548-.18.842.08.51.457.954.406 1.486-.027.41-.044.818.017 1.227.636.127.958-.468 1.414-.772.358-.073.753.004 1.077-.198 1.778-.9 3.514-1.922 5.472-2.382.89-.152 1.708-.593 2.618-.662 1.237-.078 2.48.02 3.716-.045.157-.154.312-.31.462-.476.146.16.294.318.446.477 1.31-.127 2.61.207 3.926.134.33-.043.572.22.843.362.83.532 1.714.97 2.582 1.434.528.36 1.176.125 1.753.052.645-.417.367-1.26.39-1.897-.24-1.082-1.162-1.875-1.342-2.988-.505-.495-.247-1.292-.748-1.782-.206-.044-.414-.05-.62-.065-.077.674-.127 1.363.206 1.983-.44.476-1.087.405-1.674.434.023-.476-.176-.893-.453-1.265.373-.094.754-.157 1.117-.286.63-.227.312-1.043.353-1.55-.282-.672-.998-.296-1.465-.073.156.136.313.273.47.413-.025.315-.055.63-.09.948-.435-.144-.87-.282-1.305-.422-.123.255-.248.51-.375.768-.223-.015-.447-.038-.666-.064-.014-.292-.02-.582-.016-.873l-.72.054c.002.28.01.56.016.844-.313.012-.625.042-.936.023-.275-.152-.513-.355-.783-.51-.338-.022-.676-.005-1.012.005.03-.317.06-.632.088-.948-.222.01-.443.023-.663.035.288-.448.66-.898.566-1.468.146-.015.442-.042.59-.056.075.27.144.54.208.812.213-.025.426-.048.637-.07.07-.4.08-.81-.138-1.17-.223-.374-.21-1.112-.805-1.006-.645.123-.96.766-.85 1.392-.23-.098-.454-.198-.677-.3-.005.712-.116 1.43.006 2.14-.35.205-.64.49-.965.727-.35.034-.703.034-1.054.06 0-.24 0-.475-.002-.708.298.002.595-.002.893-.004.006-.5.02-1.002.003-1.503-.493-.023-.95.202-1.435.2-.282-.138-.4-.432-.52-.7.394.007.79.014 1.184 0 .155-.477.265-.963.267-1.464-.303-.216-.61-.425-.916-.633.41-.294.83-.58 1.238-.88.004.392 0 .782.004 1.174.543.04.913-.333 1.28-.682-.453-.54-1.014-.985-1.414-1.567-.307-.39-.756-.865-1.306-.677-.356.31-.48.877-.29 1.31.048.2.22.444-.008.602-.437.434-.91.845-1.17 1.42.4-.266.81-.54 1.317-.458-.042.505-.155 1-.226 1.503h-.692c-.188-.284-.38-.562-.58-.835-.46.18-.84.486-.973.983-.513.12-1.053.17-1.52.43-.235.238-.362.676-.003.87.408-.12.782-.445 1.228-.384.297.23.53.532.8.797.174-.162.353-.323.53-.483-.182-.332-.364-.664-.526-1.002.265-.027.534-.048.803-.067.126.34.354.66.376 1.03-.19.133-.388.25-.588.366.23.436.432.887.66 1.326.432.248.902.415 1.345.64-.353.287-.6.87-1.12.834-.376-.2-.622-.557-.882-.88-.54.062-1.067-.045-1.573-.233-.174-.485-.22-.997-.242-1.508-.347.073-.594.307-.795.586-.385-.19-.768-.384-1.156-.566.005.444.032.89.044 1.34-.146.015-.438.044-.583.06.003-.28.013-.563 0-.84.112-.313-.482-.482-.56-.19zm-4.045 7.73c.392-.548.25-1.21.218-1.83l.512-.293c.07.464.21.913.292 1.377-.324.27-.67.512-1.022.744zm1.877-.96c-.1.016-.302.047-.402.06.002-.204.006-.41.01-.613h.44c-.017.183-.032.367-.048.55zm15.798-4.877c.326 0 .653 0 .98-.004-.077.42-.16.838-.243 1.258l-.764.015c.003-.423.01-.846.027-1.268zm-.942 2.116c-.33.084-.673.362-1.02.197-.37-.175-.78-.16-1.177-.192-.32-.148-.414-.505-.575-.785.31-.225.62-.45.92-.687.614.496 1.16 1.078 1.853 1.468zm-1.56-2.367c-.016.217-.03.434-.047.653-.448.015-.882-.085-1.274-.298.418-.186.86-.322 1.32-.355zm-2.553-.122c.34.304.702.583 1.1.813l-.032.605c-.363-.17-.73-.336-1.087-.513.002-.302.012-.603.02-.904zm-2.318-.82c-.2-.423-.28-.882-.302-1.345.153.07.46.2.614.267-.033.378-.173.73-.313 1.08zm-3.038 1.322c.358.25.408.745.48 1.148-.272.004-.542.01-.81.015.09-.372-.235-1.175.33-1.163z"/>
  <path d="M51.764 123.703c-.33.835-.853 1.603-1.08 2.473.077 1.027-.09 2.083.117 3.093.74.185 1.392.704 2.182.665.758-.023 1.528.046 2.275-.098.7-.4 1.296-.994 1.726-1.678.428-.757.687-1.593 1.082-2.364.49-1.154.194-2.43.29-3.64.11-.72-.394-1.304-.587-1.958-.248-1.052-.074-2.15-.297-3.206-.112-.4.128-.78.13-1.175 0-2.546-.175-5.088-.112-7.635.033-.968-.134-1.935-.045-2.903-.3-.364-.684-.648-.977-1.017-.57.042-1.143.042-1.712-.02-.212.412-.476.792-.722 1.185-.42 1.217-.775 2.456-1.147 3.688-.08 1.064-.668 2.008-.717 3.083.058 1.412-.054 2.827.014 4.242.45-.025.883.065 1.286.26.002.153.003.46.003.613-.334.023-.672.03-1.006.08-.54.682-.186 1.598-.242 2.384-.41 1.264-.246 2.62-.458 3.923zm4.393-18.907l.28.578c-.203-.004-.403-.008-.605-.01-.02-.194-.044-.388-.065-.58.098 0 .292.01.39.012zm-.976 1.536c.14-.006.278-.008.415-.01l.022.434c-.23.04-.46.08-.69.125.09-.18.175-.367.254-.548zm.128 11.72l-.04.398h-.362l-.037-.403c.108.002.328.004.438.004zm-.548-2.547c-.027.3-.05.6-.08.898-.094 0-.282-.004-.376-.006-.01-.372.21-.646.456-.892zm-1.363-3.636c-.052-.448.232-.75.548-1.017.193.32.35.687.193 1.058-.248-.007-.495-.022-.74-.04z"/>
  <path d="M90.635 70.082c.478-.516.202-1.242.2-1.862-.22-.11-.443-.22-.662-.332-.094.365-.193.726-.285 1.094-.228-.384-.454-.77-.698-1.144.08-.248.175-.49.267-.733-.403-.052-.81-.058-1.18.136.078.565.276 1.1.63 1.554-.24.27-.485.538-.737.8-.21-.596-.115-1.318-.59-1.798-.286-.4-.91-.288-1.186.073.332.23.535.58.712.938l-.58.144c.018-.25-.025-.482-.128-.7-.206-.308-.548-.1-.71.13-.456.535-1.09.946-1.253 1.673.165.246.31.51.51.733.386.246.86.083 1.286.106.823.015 1.65.006 2.47-.094-.006-.19-.012-.38-.016-.572.646-.03 1.51.553 1.95-.146zm-3.964.31c-.007-.28-.012-.558-.014-.838.414.02.83.04 1.246.063-.08.622-.75.634-1.23.776z"/>
  <path d="M141.253 115.246c-.632-1.263-1.22-2.57-2.065-3.71-.55-.38-1.268-.458-1.876-.732.19-.342.397-.68.466-1.07-.594-.226-1.02-.71-1.56-1.018-.406-.188-.34-.74-.685-.99-.344-.28-.49-.706-.76-1.042-1.124-.856-2.276-1.71-3.22-2.768-.512-.766-1.462-.98-2.2-1.453-.378-.263-.852-.154-1.276-.198-.334-.17-.642-.405-.876-.695-.086-1.148-.27-2.34-.89-3.333-.26-.367-.14-.83-.204-1.244-.168-.344-.676-.574-.902-.154-.66.867-1.265 1.796-2.132 2.483-.965-.008-1.994.192-2.926-.115.082-1.555-.42-3.056-.433-4.602.01-.228-.08-.438-.227-.603-1.33-.597-2.9-1.102-4.316-.486-.736.234-1.217.858-1.896 1.188-.13.72-.304 1.436-.313 2.173.14.374.44.662.695.964.07-.073.206-.22.276-.29-.018.246-.032.495-.045.745-.898.15-1.777-.115-2.635-.342-.527-.154-1.065-.008-1.595-.012-.432-.163-.822-.44-1.286-.507-.578-.12-1.223-.052-1.732-.395-.992-.55-1.663-1.49-2.41-2.314-.508-.515-.234-1.29-.106-1.9.423-.775 1.25-1.274 1.598-2.105.148-.52.07-1.074.106-1.61-.002-.447.067-1.01-.363-1.295-.48-.155-.99-.025-1.458.115-.748-.59-1.722-.56-2.61-.722-.93-.628-1.83-1.304-2.678-2.04-.252-.195-.35-.51-.492-.782-.07.056-.213.17-.286.225.364-.94.04-1.973.138-2.952.103-.776-.38-1.417-.725-2.064-.832.14-1.687.13-2.498.378-1.313.394-2.584.935-3.756 1.653-1.056.453-1.82 1.336-2.504 2.223-.512.7-1.2 1.263-1.614 2.035.177.46.445.883.692 1.31-.132-.003-.26-.003-.388-.003.042-.445-.228-.74-.56-.98-.55.46-1.037 1.036-1.3 1.715-.228.405-.71.6-.912 1.018-.107.524-.026 1.058.01 1.586-.263-.024-.525-.043-.785-.066-.618.597-1.165 1.25-1.684 1.93-.23.364-.716.427-.964.754-.103.553.212 1.048.38 1.553-.238-.21-.47-.43-.696-.654-.86.328-.94 1.373-1.453 2.04-.496.145-.476-.53-.716-.802-.452-.5-.28-1.19-.34-1.8-.22-.635-.926-1.055-.855-1.792.458.098.903.296 1.383.23.596-.013 1.35-.34 1.41-1.012.09-.557.573-1.087.11-1.607-.663.296-1.486.486-2.127.03.605-.352 1.234-.706 1.604-1.33 0 .396-.007.793-.014 1.188.123.028.372.082.498.107.155-.17.31-.336.466-.5.35.185.724.308 1.123.21.027-.77-.517-1.386-.642-2.12-.017-.37.015-.743.02-1.112.218-.077.44-.148.664-.21.405.398-.034.972.022 1.468.25.008.502.02.755.025.07-.303.13-.605.215-.902.497-.217.91-.528 1.233-.964.757-.32.988-1.16 1.534-1.718-.256-.265-.527-.517-.785-.774.618-.15 1.242-.052 1.81.22.51-.77 1.16-1.43 1.843-2.046.39-.553.88-1.13.753-1.86-.145.008-.29.015-.435.025.02-.27.035-.537.054-.805.518.177 1.05.23 1.59.282.667.447 1.5.368 2.267.395.594-.03.8-.685 1.057-1.117.242-1.056.102-2.22-.51-3.133-.718.08-1.432.246-2.158.15-.672-.384.01-.983.24-1.413.155-.577.003-1.19-.026-1.775-.662-.02-1.325-.03-1.983-.002.008.41.027.816.027 1.227-.422-.252-.785-.58-1.106-.95-.848.163-1.73.313-2.588.163-.648-.29-1.315-.54-1.952-.854-.332-.208-.712-.03-1.06.028-.304-.74-1.192-.787-1.838-1.07-.662-.298-1.163.374-1.762.49-1.56.068-3.076.504-4.646.417.076-.484.286-.933.388-1.41.02-.778-.19-1.54-.226-2.318-.383-.687-.44-1.686-1.237-2.05-.873-.357-1.635.392-2.234.923-.77 1.033-1.363 2.208-1.668 3.465.114.4.314.77.494 1.144-.685-.013-1.376-.068-2.054.05-.276.41-.42.89-.67 1.314-.188.33-.363.835.057 1.07.465.057.816-.31 1.214-.492.014.202.03.405.048.61-.62.115-.996.645-1.528.93-.337.19-.65.427-.995.604-.442.015-.813-.27-1.21-.417.006.29.018.585.028.88-.245.006-.488.01-.732.02.28-.506.474-1.08.934-1.458.268-.213.322-.57.44-.872.53.273 1.18.29 1.502-.29-.177-.192-.633-.267-.508-.603.27-.088.55-.146.812-.26.16-.283.304-.575.45-.865-.492-.002-1.157-.242-1.5.246-.57.72-1.44 1.127-1.975 1.878-.28.455-.79.647-1.19.973-.74.61-1.596 1.065-2.315 1.7-.545.5-1.22.822-1.75 1.338-.476.242-.988.5-1.15 1.056.302.177.6.36.896.55-.348.15-.71.258-1.093.283-.154-.298-.312-.595-.474-.887-.608.223-1.202.488-1.833.65.113.38.255.748.373 1.126l-.65-.004c.012-.144.032-.436.042-.58-.13-.038-.395-.12-.527-.16-1.163.813-2.415 1.495-3.594 2.286-.926.76-1.82 1.565-2.648 2.434-.338.564-.897 1.177-.668 1.885.2.568.136 1.373.803 1.624.627-.446-.27-1.61.602-1.838-.054.374-.18.74-.18 1.125.218.55.37 1.12.353 1.718.687.11 1.382.08 2.073.098.316-.117.625-.3.978-.217.66.07 1.048-.6 1.14-1.17.306.012.613.022.92.04-.19.216-.39.43-.593.642l.054.46c.314.03.628.05.944.06.057-.245.108-.49.155-.738.498.317 1.03.58 1.52.914.75.716 1.71 1.182 2.41 1.958.366.526.762 1.064 1.387 1.305-.118.186-.237.374-.353.56.43.844.968 1.635 1.637 2.31.143-.02.29-.034.434-.05.31.553.803.96 1.17 1.472 1.036.145 2.016-.276 2.86-.836.807-.163 1.55-.528 2.344-.737.56-.184 1.093-.51 1.707-.463 1.454.023 2.94-.05 4.346.384.262.088.677.088.724.432.2.795.277 1.626.554 2.404.23.265.535.457.844.622.72.35 1.263-.557 2-.372.05.417-.07.814-.25 1.187.327.13.657.254.99.366-.063.62-.063 1.244.14 1.84-.33-.193-.662-.38-1-.558.173.374.358.737.53 1.114-.17.434-.524.555-.963.476-.254-.632-.162-1.34-.4-1.98.365-.143.72-.314 1.062-.506-.106-.085-.314-.26-.418-.35-.54.316-1.118.494-1.752.404.122.255.24.51.348.772-.365-.008-.728-.023-1.09-.033.03.244.058.49.104.734.44.22.684-.742 1.052-.24.05.546-.054 1.095-.22 1.615-.428-.244-.81-.557-1.12-.937-.442-.538-1.13-.845-1.44-1.492-.235-.453-.593-.818-.927-1.194.064-.292.145-.578.24-.858-.796-.017-1.324.626-1.847 1.13.01.33.022.657.034.988-.37.276-.627.647-.55 1.13.207-.193.405-.4.605-.598.33.265.57.664.954.845.483-.216 1.006-.222 1.524-.245.34 1.014 1.84 1.37 1.68 2.598-.304.006-.605-.012-.905.03-.24.185-.45.404-.666.617.62.346 1.172.84 1.854 1.052l.07-.486-.7-.413c.45-.156.883-.357 1.256-.653.304.545.746 1.01.957 1.61 1.095-.034 1.172 1.354 2.066 1.69.895.465 1.81.912 2.777 1.217.496.213.886.626 1.398.812.325.06.65-.028.976-.05-.374-.354-.768-.688-1.084-1.093-.38.036-.763.054-1.144.058.556-.97 1.674-1.31 2.728-1.17.086.27.174.544.255.823.623-.207 1.235-.516 1.913-.447.136.477-.174.855-.525 1.134-.435.013-.832-.265-1.278-.25-.176.402-.196.84-.152 1.272-.19.11-.378.22-.562.336.325.564.91.98 1.04 1.647.072.517.008 1.053.183 1.556.42 1.298.322 2.738.935 3.97.548.465.88 1.223 1.58 1.48 4.947-.426 9.922-.3 14.88-.167.782.016 1.622.243 2.348-.166.455-.26 1.017-.39 1.326-.845.562-.696.844-1.558 1.334-2.297-.07-.733.083-1.432.46-2.068.307.407.258.914.278 1.394l.552-.14c.764-.615 1.585-1.153 2.44-1.63.767-.43 1.223-1.324 1.12-2.195.05-1.36-.387-2.722-.09-4.072.124-.426.014-.854-.072-1.27.837-.648 1.08-1.73 1.634-2.585.225-.576.423-1.225 1.035-1.507.104.093.31.274.413.364-.024.282-.073.564-.054.85.18.762.94 1.11 1.4 1.682-.118.432-.512.68-.794 1.004-.152-.027-.305-.05-.456-.073l-.163-.503c.297-.006.62.092.895-.073.033-.064.098-.197.13-.262-.386-.194-.71-.722-1.187-.555-.696.69-1.236 1.524-1.776 2.335-.157.628-.258 1.32-.013 1.94.154.354-.083.692-.127 1.038.285.952 1.266 1.628 2.255 1.565.79.126 1.48-.325 2.163-.64.7-.553 1.15-1.37 1.438-2.204.098-.338.458-.547.786-.607.776.01 1.514.304 2.283.375 1.035.098 2.007.505 3.046.587 2.423.946 4.88 1.84 7.22 2.978.284.094.57-.106.856-.142-.186-.586-.76-1.094-.64-1.74.228-.126.472-.224.715-.32.014.528.01 1.06.004 1.59l.783-.073c.338.486-.003.985-.234 1.432.528.36 1.072.703 1.67.935.55.198.87.708 1.285 1.087.805.744 1.2 1.794 1.763 2.712.54.044 1.08.117 1.618.19.075-.385.13-.805-.065-1.166zM90.36 77.454c.17-.012.34-.02.51-.03.172.36.348.72.58 1.05-.37-.235-.772-.41-1.18-.565l.09-.456zm-3.31-2.678c.173.338.455.68.37 1.088-.074.513-.545.83-.903 1.15-.038-.632-.038-1.267-.008-1.895.134-.087.402-.258.54-.344zm-37.8 10.82l.045-.647c.425.126.85.254 1.268.406-.432.11-.866.21-1.313.24zm4.904-1.448c-.253-.3-.5-.603-.75-.902.265-.01.532-.02.8-.025-.017.31-.032.62-.05.928zm1.453.903c-.387-.302-.794-.577-1.224-.81.204-.182.405-.368.606-.556.215.22.433.443.654.664-.008.175-.028.526-.037.703zm.283 1.957l.375-.718c.12-.003.366-.01.49-.01 0 .268.003.535.006.805-.29-.022-.58-.05-.87-.078zm11.933-11.454c-.008.096-.03.294-.042.392-.09.012-.274.033-.367.044l-.03-.462.44.025zm-.983 3.65l.092.726c-.17-.013-.338-.022-.505-.028-.05-.244-.1-.486-.147-.726l.56.027zm-3.61-2.596c.034.32.02.643.007.966.313.138.623.284.934.428l-.04.588c-.477-.44-.936-.896-1.42-1.325-.108-.368.144-.652.52-.656zm-1.07-.297c.07.27.15.54.216.816-.5.023-.663-.382-.806-.774.197-.017.393-.03.59-.042zm-3.83 5.412c.1.002.297.01.398.015l.003.403-.393.017c-.003-.11-.004-.326-.006-.435zm.796 9.036c-.172-.326.117-.637.21-.937.35.262.54.62.548 1.06-.19-.028-.57-.09-.758-.122zm1.208-2.695c-.517-.54-1.113-.97-1.746-1.357.592-.044 1.188-.052 1.782-.09-.014.483-.014.963-.036 1.447zm-.57-2.797c.325-.077.648-.152.97-.23-.01-.174-.03-.525-.038-.702-.242-.015-.483-.034-.723-.06-.073-.31.012-.556.258-.74.558.13.974.55 1.453.84.042.533-.4.765-.773 1.034-.174.374-.307.766-.474 1.144-.242-.42-.462-.85-.67-1.286zm.56-4.066c.11-.01.33-.03.443-.042-.015.33-.027.662-.04.993-.095 0-.284 0-.377-.003-.01-.314-.02-.63-.027-.947zm1.095 7.13c-.23.223-.458.447-.688.674-.186-.334-.195-.712-.212-1.08.29.152.584.31.9.406zM61 93.122c-.174-.392-.358-.774-.538-1.163.413-.2 1.036-.967 1.387-.347-.073.595-.52 1.042-.85 1.51zm3.824 1.964c-.215-.027-.43-.052-.64-.094-.032-.28-.03-.557-.025-.833.12-.03.363-.086.487-.116.155.16.314.32.474.484-.073.14-.222.42-.296.558zm1.42-10.306c-.384-.278-.743-.585-1.1-.896-.22.088-.433.186-.647.28-.177-.234-.402-.434-.53-.697.146-.472.447-.893.435-1.407-.375.133-.822.154-1.116.45-.282.602.05 1.224-.003 1.844-.088.395-.215.78-.258 1.183-.243.002-.487.004-.728.015-.115.125-.373.647-.543.32.185-.235.607-.264.81-.53.12-.81-.21-1.794-.95-2.194.028-.46.065-.923 0-1.38-.097-.576-.953-.745-.887-1.375.547-.562 1.294.033 1.918.113.442-.144.227-.63.263-.97-.325.01-.648.028-.972.057v-.38c.55.083.94-.263 1.305-.622-.2.554-.17 1.143-.172 1.72l.82.04c.072-.31.123-.627.177-.94.962.173 1.837.72 2.465 1.463.008.092.03.27.042.363-.664.645-1.45 1.15-2.083 1.824.067.144.207.434.277.578.692.056 1.084-.532 1.48-.995-.064.396-.295.762-.292 1.173.064.33.21.636.29.964zm2.085 1.192c.017.175.03.35.034.528-.253-.044-.567.03-.748-.2-.356-.33-.203-.908.04-1.263.28-.297.17-.72.196-1.085-.11-.046-.224-.077-.34-.092-.015-.705-.494-1.19-1.01-1.595.223.11.45.21.68.305.167.382.308.774.446 1.17.36.373.978.602.964 1.205-.245.014-.48.07-.7.165-.353.374.258.576.437.862zm10.076 4.285c.2.104.403.206.606.31.012.158.027.314.042.473-.455.023-.91 0-1.365-.035.23-.258.475-.502.716-.748zm1.724-4.177c-.223 0-.448.006-.67.02-.18.237-.26.525-.346.805l-.005-.374c.224-.28.468-.575.333-.96-.294.038-.842-.193-.937.233-.154.4-.306.8-.462 1.202-.265-.998.54-1.776 1.122-2.47.127.237.255.477.38.72.367-.038.736-.064 1.106-.074-.18.297-.355.598-.522.9zm2.304-.92c.044-.2.082-.403.14-.6.22-.066.45-.103.68-.15.003.273.004.546.01.82-.276-.026-.554-.05-.83-.07zm2.996-8.67c.013.123.036.365.05.484-.274.163-.54.336-.804.51-.014-.34-.02-.686-.028-1.026.26.01.52.023.782.032zm-.818 3.515c.1.26.214.51.297.776l-.537.408c-.164-.4-.256-.814-.26-1.244.165.02.33.042.5.06zm-.802-1.36c-.003.107-.01.32-.015.427-.17-.025-.337-.05-.504-.073-.02-.087-.063-.254-.084-.34l.604-.014zm-1.09.934c.388.195.742.52.69.997-.056.4.214.674.46.943-.467.674-.803 1.43-1.284 2.09l-.072-.656c.003-.372-.56-.59-.36-.977.158-.24.365-.438.56-.65-.33-.544-.148-1.176.006-1.748zm-.346-1.504c.108.973-.432 1.795-.674 2.7-.233-.67-.673-1.287-.695-2.013.313.17.573.59.98.47.157-.463-.194-.79-.48-1.092.288-.026.578-.047.87-.064zm-2.715-5.38c.134.25.267.503.408.753.165-.316.33-.633.5-.947.326.424 1.178.737.82 1.388-.523.362-1.182.28-1.78.227-.05-.474.012-.952.05-1.42zm-1.14 9.33l.016-.694c.255.17.51.334.78.484.533-.472 1.156-.82 1.72-1.25-.178.442-.384.875-.507 1.338.14.563.322 1.16-.035 1.693l.783-.088c-.034.565 0 1.128.015 1.694-.388-.28-.786-.576-1.29-.572-.01-.616-.026-1.233-.177-1.835-.25.02-.497.038-.746.056l-.05 1.133c-.455.046-.885-.056-1.09-.5.11-.522.637-.897.58-1.46zm-1.922 7.89c-.104-.318-.215-.636-.32-.953-.632-.004-1.207.242-1.758.522.002-.284.005-.57.01-.854.636.423 1.36.08 2.04.026.46.17.87.45 1.327.634-.365.35-.726.827-1.3.627zm-.01-2.77c.29.268.594.525.883.798-.252.006-.504.013-.755.015-.073-.212-.147-.42-.216-.625.028-.065.056-.13.088-.19zm-1.448-3.702c.135-.002.27-.002.407-.002l.114.467c-.196.005-.392.014-.59.024.025-.164.046-.327.07-.49zm-3.316-10.408c.174-.006.35-.012.527-.015l-.044.525c-.17.015-.338.03-.507.048.006-.188.016-.374.024-.557zm-2.57 17.776l.036-.484c.277-.002.553 0 .833.002.003.16.01.326.018.49-.295-.006-.59-.01-.885-.008zm.173-11.936c-.13-.672.306-1.417 1.067-1.31-.282.49-.65.926-1.067 1.31zm1.26 1.623l.802.037c-.004-.286-.008-.57-.006-.856.18-.158.354-.325.523-.498-.42.507-.48 1.152-.455 1.785-.26.012-.52.02-.776.03l-.09-.498zm.834 6.15c-.22-.002-.438-.004-.656-.004.02-.46.07-.92.098-1.38l.598-.038c-.137.182-.27.363-.397.55.12.29.244.578.358.872zm.394-2.166c.03-.307.07-.614.105-.92l.27.088c.018.27.03.543.046.814-.105.003-.316.013-.422.018zm-.188-9.125c.027-.112.083-.333.113-.444.61-.094 1.13-.4 1.603-.78.536-.197.972.212 1.3.58-.663.452-1.333.905-2.127 1.084-.322-.086-.596-.295-.89-.44zm2.38 14.18c.155.26.313.517.472.775.482-.196 1.004-.227 1.52-.188.148.213.21.47.28.72-.62.002-1.282.067-1.763-.403-.19.106-.375.21-.56.32-.287-.324-.596-.624-.902-.93.32-.087.638-.187.954-.293zm2.64 4.726c-.454-.332-1.007-.064-1.482.056-.603-.712-1.11-1.496-1.51-2.338.218-.146.44-.29.664-.432.207.08.415.16.626.238.13.51.26 1.02.473 1.503.12.048.246.096.374.14.232-.313.474-.616.713-.918.25.743 1.155 1.1 1.224 1.912-.378.065-.764.087-1.08-.16zM73.02 100.9c-.162-.375-.213-.815.016-1.176.06.39.067.79-.016 1.177zm7.262 5.138c-.387-.33-.687-.74-.888-1.202-.28-.064-.56-.135-.836-.198-.018-.294-.035-.585-.054-.877-.36-.005-.72-.01-1.08-.026-.102-.643.28-1.175.575-1.703.178.024.54.068.72.087.196.55-.223.845-.64 1.07.43-.016.863-.03 1.297-.034.046.495-.013 1.025.247 1.47.246.274.58.452.86.694.074.27.01.512-.202.72zm-.57-4.312c.055-.36.183-.703.332-1.033.323.363.788.664.885 1.175-.29.55-.826-.013-1.217-.142zm.89 4.456c.682-.56 1.044-1.37 1.018-2.252h.738c.088.45.24.93.11 1.384-.177.278-.346.557-.536.824.316.267.635.528.928.82-.787.543-2.102.294-2.26-.776zm6.434 4.055c-.332.156-.663.32-1 .467.247-.39.486-.864 1.017-.85-.002.095-.012.287-.017.383zm-3.935-4.312v-.5c.283-.178.56-.358.843-.53.005.324.02.656.02.986-.282.076-.575.045-.862.045zm-.034-11.644c-.097-.84.047-1.68.01-2.525.395.157.775.35 1.14.57-.247.708-.408 1.592-1.15 1.956zm1.407 11.488l.04-.576c.227.008.455.02.683.034.022.17.045.344.07.52-.264.004-.53.012-.793.022zm.912-16.2l.313-.61c-.107-.304-.22-.606-.326-.907.42-.14.757-.393.884-.834.33.472.503 1.01.442 1.588-.266.07-.528.148-.79.227.02.143.062.427.08.57-.2-.013-.402-.024-.603-.032zm.08 16.676c.527-.232 1.047-.48 1.564-.734.23.202.206.51.232.79-.6.003-1.202.015-1.796-.056zm.737-1.18c-.078-.283-.164-.565-.244-.844l.254-.524c.4.023.82.015 1.17.25-.32.445-.724.816-1.18 1.117zm1.36-.174c.24-.035.482-.065.725-.092.034.29.056.582.08.877-.372-.17-.956-.234-.805-.785zm3.718-20.515l.472-.046c.004.224.01.448.017.675-.2.013-.394.027-.59.042.03-.225.064-.45.1-.672zm-.71 1.77l.424.02c.01.09.037.268.047.354-.266.247-.53.496-.797.746.09.37.186.735.27 1.108-.26-.06-.538-.11-.703-.334.397-.574.448-1.283.76-1.895zm.24 4.504c-.212.005-.423.01-.634.018-.14-.62-.512-1.194-.408-1.847.446.55.754 1.188 1.042 1.83zm-.87 3.766c-.08.02-.25.063-.333.086-.016-.388-.027-.772-.035-1.158.096.023.29.065.385.084.003.33-.003.657-.016.988zm.203 11.96c-.196-.737.542-1.185 1.1-1.465.197.76-.525 1.176-1.1 1.466zm1.46-16.257c-.197.01-.394.02-.588.032.01-.106.035-.323.045-.43.184-.01.367-.015.552-.02 0 .104-.007.313-.008.417zm-.31-1.162c-.007-.45-.045-.897-.05-1.348.337.41.614.856.557 1.413-.17-.025-.34-.044-.507-.065zm8.937-1.168c.277-.22.55.263.27.436-.277.23-.537-.27-.27-.436zm-2.065 5.82c-.1.283-.2.57-.294.857-.307.023-.615.033-.92.038.142-.914 1.157-1.142 1.855-1.522.02.305.045.612.087.916-.238-.11-.483-.202-.727-.29zm2.85-.252c-.196.376-.412.74-.574 1.133-.068-.014-.207-.05-.274-.068.32-.996.352-2.037.546-3.058.237.008.474.02.714.033-.134.655-.235 1.316-.41 1.96zm-.13-2.934c-.107-.5-.112-1.13-.695-1.307-.158.407-.275.83-.296 1.27-.395-.084-.76-.258-1.1-.466.136-.362.256-.73.45-1.07.443-.426 1.1-.376 1.668-.394.406.428.652.977.997 1.453-.34.173-.683.343-1.026.514zm1.742 3.92c.174-.007.35-.01.525-.01-.038.506.147.965.403 1.393-.364-.42-.622-.92-.928-1.384zm.772-1.848c-.193-.004-.384-.006-.575-.006-.124-.22-.256-.432-.385-.645.14-.18.282-.353.436-.518.41.138.826.265 1.235.42-.24.246-.477.497-.71.75zm3.895 14.222c.158-.48.48-.87.78-1.265.008.263.05.534.003.8-.2.246-.502.356-.783.465zm.772 6.564c-.07.027-.206.084-.274.11-.012-.314-.022-.627-.03-.94.094.004.28.01.37.015-.02.27-.043.542-.066.815zm1.456-.572c-.152-.315-.567-.503-.476-.897.07-.545-.138-1.048-.216-1.574.203-.323.47-.592.713-.882.083 1.117-.005 2.234-.02 3.352zm-.005-3.396c-.22-.22-.46-.413-.685-.622.288-.536.444-1.112.464-1.722.127.186.27.357.43.518.018.614-.155 1.215-.21 1.826zm.002-2.39c-.213-.475-.362-.988-.684-1.408.41-.607.487-1.346.654-2.04.587 1.076-.043 2.3.03 3.45zm.226-6.234c-.258-.02-.518-.035-.773-.054-.073-.693.632-1.11.62-1.785-.026-.333.29-.5.477-.727.112.87-.13 1.726-.324 2.567zm6.683-.06c.168-.26.34-.518.51-.774.188.21.368.42.545.645.254-.162.514-.316.78-.458-.016.184-.028.37-.04.56-.6.028-1.198.067-1.796.028zm1.434 2.13c.135.036.405.114.54.15-.177.183-.36.367-.45.613l-.09-.762zm.484 3.78c0-.19 0-.377.004-.565.303-.075.602-.16.905-.244-.297.276-.598.55-.91.81zm4.673-2.256c-.008-.127-.024-.38-.03-.505.247-.02.498-.036.748-.058.002.188.007.376.014.564-.247-.004-.49-.006-.73-.002zm.663-1.077c-.25.17-.518-.232-.296-.41.238-.157.524.233.296.41zm7.68 3.056c.08-.296.16-.593.222-.89.076.014.227.04.304.056.017.278.028.554.04.836-.192-.003-.38-.003-.566-.003zm3.738 3.306c-.133-.43-.504-.928.008-1.253.368.373.192.845-.007 1.252zm1.345.652c-.1.017-.3.046-.4.06.007-.24.018-.48.03-.72.095 0 .284.003.38.005-.006.217-.008.436-.01.655z"/>
  <path d="M110.948 56.02c.378-.612.74-1.458.216-2.098-.518.457-1.485.34-1.68 1.102-.26-.088-.53-.123-.802-.123-.2.742-.185 1.5 0 2.24-.423 1-.363 2.192.273 3.09.616-.243 1.23-.48 1.865-.67.558-.193.512-.87.265-1.29-.324-.573-.998-.502-1.558-.475.2-.693-.296-1.31-.146-2.01.673.443 1.015 1.34 1.825 1.553-.002-.273.01-.55-.022-.822-.316-.252-.697-.403-1.03-.63-.024-.32-.004-.64.015-.956.435.206.574.693.78 1.09zm-.795 2.654c-.002.248-.002.5-.002.75l-.4-.01c-.005-.245-.01-.494-.013-.74h.416z"/>
  <path d="M93.282 62.026c1.072.328 2.2.255 3.305.323.8.02 1.646.062 2.402-.23.165-.233.35-.487.366-.78-.47-1.508-1.12-2.948-1.612-4.442-.316-.486-.92-.812-1.506-.75-.897.024-1.95-.406-2.7.29-.393-.2-.87-.72-1.27-.24-.017.592.508.832 1.006.926-.007.45-.07.896-.29 1.298-.624-.134-.836-.806-1.12-1.294-.214-.046-.432-.065-.644-.096-.12.678.26 1.29.238 1.962-.993.22-1.746.962-2.723 1.23-.11-.208-.22-.412-.34-.61l.404.08c.424-.563 1.162-.592 1.768-.85-.05-.352-.014-.73-.208-1.046-.114-.276-.368-.576-.22-.887.234-.266.51-.49.772-.73-.91-.237-1.854-.277-2.778-.423-.66-.198-1.35-.26-2.036-.31-.763-.068-1.48-.39-2.245-.402.167.44.486.79.832 1.1.213.21.562.514.262.804-.06.02-.184.068-.244.09-.343-.33-.702-.644-1.12-.876-.005-.284-.002-.568-.017-.85-.748-.52-1.68-.71-2.58-.648.187.64.69 1.294.237 1.94-.42-.153-.83-.335-1.234-.52.18-.158.36-.314.544-.47-.177-.34-.316-.7-.444-1.06-1.62-.33-3.227-.8-4.897-.807-.288.686-.623 1.375-.694 2.126-.106.768.114 1.534.024 2.302l.537.04c-.093-.442.054-.818.42-1.083-.188-.278-.37-.555-.542-.837.522-.01 1.013.175 1.526.253.523-.283.065-.876.028-1.308.296.02.593.04.89.054l.066-.78c.086 0 .256.005.34.005.06.67.076 1.355-.044 2.017-.155.205-.335.39-.466.614.025.757-.2 1.487-.243 2.24-.184-.218-.378-.427-.55-.655-.03-.46.33-.82.476-1.233-.25-.1-.496-.2-.74-.307-.21.474-.605.81-1.056 1.046.315.464.593.963.98 1.372.776.67 1.39 1.497 2.083 2.246l.52-.234c.65.572 1.013 1.384 1.686 1.937.206-.792.747-1.483.635-2.343.283.017.566.037.854.056.022-.417.148-.816.3-1.2-.567-.017-1.004.284-1.358.7-.324-.152-.458-.487-.615-.78-.24.294-.47.597-.763.837-.284.046-.57.075-.854.094.038-.37.086-.74.156-1.106-.244.338-.266.747-.266 1.15-.258-.1-.51-.213-.758-.336-.027-.488.197-.93.353-1.38.566-.02 1.037-.555 1.61-.367.29.274.563.637 1.013.505.128-.495-.452-.545-.768-.714l-.073-.684c-.64-.088-1.197-.413-1.663-.85.507-.25 1.022-.494 1.526-.753.004.494.05 1.01.434 1.368.412.12.846.038 1.27.046-.36.75-.176 1.582-.237 2.383.754-.574 1.172-1.974 2.35-1.628.02-.466.062-.934-.012-1.395-.435.248-.803.712-1.354.634-.03-.19-.064-.377-.096-.564.29.108.585.196.886.273.223-.222.446-.443.672-.66.007.623.48 1.02.886 1.43-.457-.09-.876.09-1.14.47.27.12.55.22.84.306.307-.17.567-.42.765-.707.058-.393-.12-.836.145-1.174.093-.058.282-.17.377-.228.265.697-.21 1.332-.166 2.027.004.244-.1.474-.13.716.13.193.283.372.423.565-.924.4-1.657 1.37-1.29 2.406-.766.333-1.54.67-2.217 1.164-.112.22-.217.442-.315.667 0 0 0 .002.002.002l.248-.002c.103.31.434.065.61.25l-.01.396c.087.49.466 1.042.99 1.13.21-.04.416.01.617.085-.017.322-.025.644-.032.967-.133-.288-.19-.808-.56-.403-.106-.002-.322-.006-.43-.01-.288.364.077.813.16 1.19 1.14-.15 2.086-.853 3.07-1.39.528-.385 1.2-.644 1.562-1.21-.127-.71-.066-1.454-.41-2.107-.137.255-.26.518-.372.787-.19-.117-.376-.234-.562-.35-.17.283-.347.562-.522.842-.104-.242-.25-.46-.45-.628.267-.094.54-.186.81-.275-.004-.455-.203-.8-.647-.948l.008-.31c.777-.168 1.484-.654 2.302-.6.473.056.947.11 1.426.092-.03-.33-.07-.662-.11-.99.646-.335 1.19-.836 1.848-1.147.01.323-.005.645-.03.968.197.044.396.09.593.14-.015.33-.027.66-.038.993.423.26.9.185 1.352.066zm.643-1.98c.01.228.016.456.018.68-.358 0-.714-.016-1.067-.04-.013-.32-.022-.642-.03-.96.368.065.75.127 1.08.32zM78.793 56.34c-.41-.37-.158-.837-.038-1.27l.29.072c.087.43.047.852-.252 1.198zm5.184 7.98l-.016-.36c.092 0 .273.01.366.013.202.34.428.663.644.995-.33-.213-.656-.44-.993-.647zm2.51 1.51c-.486.214-.955.456-1.397.744-.022-.284-.042-.568-.06-.85.446.324.96.324 1.456.107zm.534-4.453c-.28.04-.564.033-.845.038-.027-.3-.05-.6-.073-.898.302.248 1.216.313.92.86zm.36-1.37c-.307-.456-.664-.882-1.237-.98-.052-.683.193-1.497-.49-1.94.565-.483 1.12.274 1.66.464-.114.22-.236.44-.348.663.348.54.58 1.142.414 1.79zm.42-2.775c-.015-.177-.02-.355-.02-.53.62-.17 1.07.336 1.555.622.253.342.27.722.03 1.075-.487-.437-1.065-.752-1.566-1.167z"/>
  <path d="M112.82 53.394c.21-.167.366.16.532.25.087.303.04.62.04.93.25-.043.503-.082.755-.122-.174.378-.265.776-.276 1.19.27.125.554.22.835.32-.018.124-.057.372-.074.496-.286-.207-.573-.422-.87-.612-.095.488-.002.94.35 1.296-.62.57-1.475.762-2.042 1.398.87.067 1.89-.17 2.393-.94.99.136 1.675-.726 2.594-.9.37-.087.65-.36.935-.594-.06-.505-.175-1.006-.478-1.42.48-.354 1.022-.654 1.616-.767-.328.182-.723.26-.998.525-.042.426-.248 1.083.287 1.275.522.223.834-.36 1.285-.48.488-.132.87-.48 1.27-.774.56-.766-.097-1.818.508-2.572.152.4.315.8.492 1.192.282-.013.564-.013.846-.05.417-.217.766-.545 1.195-.747-.12-.368-.165-.846-.517-1.065-.555-.08-.716.568-.97.927-.116-.395-.28-.785-.263-1.204.495-.413 1.095-.234 1.615.02.087-.308.18-.613.263-.92.22.122.442.245.668.364-.005.36-.007.714.003 1.073.335-.336.655-.685.956-1.052-.354-.6-.78-1.152-1.223-1.687l-.26.547c-.19-.01-.376-.017-.564-.023.003-.083.012-.248.016-.33.25-.07.5-.14.75-.213 0-.37 0-.737.005-1.102-.664.384-1.395.626-2.086.954.336.412.69 1.072.167 1.497-.2.397-.7.3-.96.017.274-.188.555-.372.838-.553-.002-.245.002-.492.005-.74-.826 0-1.47.568-2.206.854.014.355.035.71.06 1.065-.177.005-.35.01-.523.02 0-.288-.005-.574-.017-.862-.81.282-1.482.866-2.324 1.083-1.032.135-1.693 1.022-2.526 1.546-.592.123-1.167.31-1.705.584-.43.236-1.15.205-1.182.83.274.01.55.018.826.026-.04-.187-.05-.37-.036-.552zm2.938 3.445c-.202-.005-.404-.01-.605-.013.076-.374.26-.73.258-1.115-.147-.386-.255-.785-.224-1.202.2.006.404.012.607.023-.228.76-.362 1.55-.035 2.306zm-1.048-3.997c.137.01.41.027.546.038-.027.247-.055.494-.08.744-.184.004-.365.01-.547.015.025-.267.052-.532.08-.797z"/>
  <path d="M62.61 52.613c.453-.74.887-1.524.922-2.41.056.36.09.726.134 1.09.237-.158.788-.285.666-.66-.394-.87.02-1.963-.635-2.73-.255-.496-.975-.43-1.347-.12.016.605-.217 1.152-.496 1.674-.095-.002-.284-.015-.38-.017-.068-.12-.2-.36-.27-.48.504-.146.685-.54.646-1.042-.416.27-.793.6-1.095.993-.122.43-.178.876-.225 1.318-.71.086-1.106-.522-1.627-.88-.004-.3.003-.604.007-.905-.782.144-.912.964-.952 1.63-.61.2-.972.758-1.27 1.288-.005.37.046.738.066 1.105-.412-.05-.616-.388-.824-.7-.25.15-.496.306-.76.427-.285-.052-.28-.357-.337-.574.454-.317.893-.653 1.304-1.027-.53-.556-1.193.14-1.747.327-.285.522-.655.99-.932 1.515.17.482.284.98.392 1.484.714-.66 1.562-1.142 2.38-1.657-.016.172-.043.513-.057.684-.358.294-.72.597-.863 1.058.284-.017.57-.027.852-.06.01-.32.014-.638.06-.953.47-.48.99-.91 1.42-1.43.232.168.462.34.687.523.04.395.01.793.006 1.192.183-.017.37-.03.556-.044.046-.43-.194-1.068.327-1.276.42-.278.96-.12 1.434-.16.096-.27.2-.54.31-.807.257.177.512.357.77.54-.376.224-.747.458-1.154.62-.365-.005-1.026-.116-.955.454.022.7.883.387 1.338.448-.105.44-.242.876-.292 1.33.926-.262 1.255-1.2 1.94-1.765zm-.43-3.298c.26.17.526.338.79.51-.13.42-.278.838-.283 1.283l-.76-.03c.208-.567.265-1.164.252-1.763zm-2.834 1.9c-.417.052-.84.035-1.26.014.11-.293.22-.583.308-.884.507-.006 1.01-.042 1.518-.027-.172.306-.32.634-.566.895z"/>
  <path d="M66.865 58.13c.547.128 1.117.473 1.68.233.685-.202 1.322-.54 2.01-.74.72-.347 1.74-.38 2.112-1.193.123-1.158.597-2.256.602-3.43.06-.598.183-1.207-.047-1.79-.282.006-.564.008-.843.006.295-.094.584-.215.83-.41.07-.834-.4-1.57-.45-2.39-.06-.663-.436-1.226-.698-1.817-.533-.677-1.483-.72-2.272-.58-.1.59.283 1.364-.243 1.79-.33.023-.668.046-.984-.056-.192-.497.085-.98.236-1.442-.205.02-.406.04-.605.056-.448.858-.8 1.786-.81 2.764-.607 1.118-1.11 2.302-1.427 3.537-.375.652-.578 1.38-.734 2.113.31.5.724 1.016.566 1.65-.424.19-1.267.314-.883.96.415.343.804.915 1.392.915.16-.74.023-1.496.054-2.244.155-.384.41-.712.65-1.046.098.26.33.522.196.82-.21.75-.107 1.544-.335 2.29zm3.35-8.896c-.01.186-.016.374-.023.56-.093-.005-.278-.015-.37-.022-.02-.182-.04-.36-.056-.54l.45.002zm-1.848 1.06c.476-.054.888.115 1.185.495-.322.542-.906.53-1.458.437.07-.317.167-.626.273-.933z"/>
  <path d="M27.166 43.13c-.387.85.566 1.48.896 2.172-.332-.025-.663-.063-.992-.1l.02.484c.968.607 1.94 1.204 2.94 1.757.667.405 1.114 1.11 1.85 1.41.413.176.863-.007 1.243-.18.138-.422.316-.825.65-1.13.635-1.156.525-2.542.454-3.817-.31-.653-.657-1.344-1.226-1.806-.956-.384-1.59-1.28-2.536-1.67-.626-.056-1.296.146-1.712.635-.69.63-1.017 1.522-1.586 2.246zm1.965 3.025c-.192.006-.385.012-.578.025l.007-.396c.193.002.387.004.58.004 0 .092-.005.273-.01.367z"/>
  <path d="M40.04 60.024c.442.004.825-.173 1.152-.46.305.29.67.502 1.067.648-.15.52-.496.93-.88 1.3-.465-.257-.676-.745-.907-1.196-.105.006-.314.012-.417.02-.104.844-.354 1.715-.242 2.566.417.79.643 1.703.495 2.596-.027.612-.775.845-.82 1.45-.017.925.04 1.854-.017 2.783-.64-.107-.857-.746-1.168-1.222-.87-.07-1.598.89-1.377 1.72.27-.173.537-.346.805-.52.53.693 1.603.513 2.043 1.275.275.747-.17 1.505-.13 2.25.223.428.223.9.2 1.37.69.164 1.204.69 1.878.895.383.202.596.626.928.902.545.446.62 1.192.976 1.768.325.993.81 1.93 1.32 2.84.522.52 1.02 1.147 1.7 1.45.61-.2 1.21-.435 1.83-.606.388-.322.266-.822.094-1.223.148-.247.294-.496.437-.744.272.447.626.93.23 1.417.316-.063.676-.056.92-.3 1.598-1.53 3.775-2.327 5.293-3.938.35-.12.712-.232.994-.486.427-.366 1.124-.65 1.034-1.324.802.12 1.37-.536 1.996-.914.37-.38.697-.843 1.27-.925.61-.084.555-.833.42-1.28.382.095.825.295 1.177.01.495-.22.804-.66 1.17-1.034.505-.338.994-.7 1.417-1.137-.523-.115-1.064-.09-1.562.106.205-.374.41-.75.547-1.156-.643-.146-1.246-.413-1.84-.693.423-.246.898-.47 1.077-.964.212-.65.083-1.36.114-2.034-.305-.033-.615-.046-.915.013-.392.266-.085.732.008 1.078-.17.008-.337.014-.504.025-.105-.46-.32-.87-.586-1.254-.065-.412.107-.817.198-1.212.38.052.75.16 1.106.307.03-.806-.22-1.764-1.057-2.035-.49.073-.895-.16-1.27-.44.25-.333.502-.665.734-1.007.408.564.945 1.013 1.44 1.497.364-.123.782-.42 1.16-.152.596.392 1.295.482 1.994.49.15.618.525 1.188.39 1.85.3.116.596.25.89.393-.358.074-.708.17-1.05.285.002.365-.003.73-.008 1.096-.518-.31-1.11-.25-1.655-.05.05.633.03 1.268.008 1.903-.24-.192-.494-.703-.75-.253-.336.223-.226.78.17.876.568.432 1.3.516 1.966.276.383.144.72.65 1.152.472.497-.793 1.056-1.567 1.36-2.465-.242-.287-.56-.464-.937-.477-.106-.447-.22-.896-.257-1.355.215-.08.432-.16.648-.242-.094-.405-.193-.805-.286-1.206-.265-.157-.592-.246-.774-.51-.464-.68-1.05-1.272-1.424-2.01-.5-.348-1.135-.54-1.48-1.076-.382-.522-.97-.868-1.25-1.463-.156-.377-.482-.61-.81-.826-.38.538-.994 1.023-.77 1.766.387-.205.794-.363 1.203-.52.09.442.2.88.294 1.323.436.004.874-.013 1.31.035.31.205.278.597.352.918-.79-.117-1.968-.096-2.155-1.1-.66.084-1.124-.4-1.598-.778.16-.862.357-1.728.672-2.548-.533.434-1.168.776-1.516 1.396-.03.31-.027.624-.022.935-.303.03-.608.057-.912.09.03.625-.003 1.254.02 1.88.28.263.63.436.976.6-.44.003-.88.012-1.32.028-.02-.6-.11-1.22-.43-1.736-.228-.328-.134-.745-.183-1.117-.65-.017-1.323-.155-1.738-.712-.033-.478.29-.88.43-1.317-.266-.03-.53-.054-.792-.077-.08.214-.16.433-.237.652-.25-.03-.503-.058-.754-.085-.042-.628.51-.95.93-1.305.02-.45.03-.895.017-1.344-.38.29-.744.6-1.103.912.016-.44.03-.877.03-1.315-.585.345-1.064.827-1.44 1.392l-.046-.545c.09-.29.463-.447.43-.778.052-.338-.278-.522-.457-.754.155-.165.31-.33.468-.495-.213-.324-.428-.643-.657-.952.32-.294.777-.595.6-1.1-.38-.382-.997-.108-1.42-.41-.285-.28-.388-.67-.46-1.05.246-.168.496-.333.747-.498-.256-.16-.438-.484-.775-.455-.39-.067-.695.253-.994.45-.085.447.332.72.528 1.07.47.636.556 1.584 1.422 1.847-.17.205-.33.42-.518.612-.277.108-.59.022-.878.028.007.18.015.36.02.543l.694-.04c.083.24.16.48.225.725-.22.53-.72.086-1.04-.088-.46-.278-.604-.876-1.056-1.142-.594-.033-1.19-.03-1.784.006.045-.953.766-1.76.55-2.746.2.144.414.27.672.244.375-.36.708-.768.942-1.23.164-.297.292-.66.642-.784.405-.102.824-.017 1.236-.025.004-.3.033-.6-.008-.897-.387-.405-.726-1.004-1.368-.966-.163-.292-.313-.6-.55-.84-.275-.04-.552-.066-.827-.074-.07.51.21.877.618 1.144-.02.808-.056 1.83-.883 2.244-.248-.18-.32-.41-.212-.69.19-.637.574-1.22.582-1.904-.303-.006-.606-.015-.91-.03.205-.408.476-.778.82-1.076-.215-.136-.426-.28-.65-.4-.268.066-.517.193-.776.287-.028-.29-.04-.582-.086-.87-.14-.344-.538-.405-.83-.568 0 .586-.008 1.172.008 1.76-.125 0-.373-.003-.498-.005-.026-.052-.055-.103-.08-.155l.023.877c-.477.238-.965.134-1.424-.077-.024-.227-.048-.455-.07-.68-.242-.02-.484-.038-.726-.05.318-.236.607-.513.897-.783.097.422.206.84.308 1.263.33-.183.657-.37.99-.552-.19-.37-.386-.74-.582-1.107.316-.34.697-.61 1.074-.882-.308-.198-.65-.315-1-.407-.263-.922-1.392-.72-1.977-1.318-.35-.34-.774-.566-1.266-.6-.265.325-.55.636-.77.996-.206.53.63.697.565 1.2-.042.585-.07 1.17-.03 1.76.446-.447.874-.908 1.316-1.36-.016 1.055-1.138 1.508-1.908 1.977-.027.06-.083.177-.113.238.244.544.555 1.108.54 1.724-.018 1.1.03 2.196.01 3.296.187.127.374.257.56.386l-.088.533c-.357-.26-.715-.52-1.112-.712.313-.85.124-1.77.42-2.62-.206-.564-.91-1.046-.644-1.697.216-.492.01-1.054.287-1.528.026-.55-.004-1.102.036-1.653.05-.447-.263-.833-.23-1.275-.005-.46.017-.92.024-1.38.428.012.86.03 1.29.038-.61-.676-1.226-1.365-1.99-1.87-.114.864.072 1.747-.136 2.605-.256 1.194.336 2.385.02 3.58-.23.7.112 1.4.088 2.107-.035 1.536.05 3.077-.054 4.613l.433.288c-.51.36-.334.996-.453 1.526-.21 1.152-.03 2.335-.156 3.496-.446.92-.312 1.955-.297 2.944zm25.07 8.226c-.09-.31-.232-.612-.236-.937-.042-.305.328-.353.51-.505.164.35.336.697.444 1.07-.236.13-.476.253-.717.372zm1.206.24c.01-.23.022-.46.035-.687.09-.004.265-.013.354-.015l.052.766-.44-.064zm-7.43.92c.016-.17.033-.338.052-.505.222-.015.447-.027.67-.04l.012.572-.735-.027zm1.257-5.59c.05.362-.046.778.19 1.09.083.195.38.43.14.63-.6.354-1.394-.333-1.21-.98.3-.24.595-.482.88-.74zm-.81-1.306c-.02.415-.122.818-.308 1.192-.4-.317-.795-.682-.753-1.238.353.005.707.02 1.06.046zm.24 4.074c-.034.54.385.854.745 1.183-.338.022-.675.022-1.01.014-.008-.288-.018-.578-.027-.862-.467-.192-.94-.392-1.3-.764.586-.13 1.037.343 1.594.43zm-1.183 5.836c-.067.397-.154.79-.226 1.186-.11 0-.326-.006-.436-.008-.182-.288-.358-.58-.526-.875.377-.167.777-.265 1.188-.303zm-1.46-9.486c.088-.01.262-.033.347-.044-.132.403-.22.82-.23 1.248l-.334-.02c.023-.4.112-.794.217-1.184zm-16.16-.4c.216.224.434.445.652.67l-.687.072c.013-.248.025-.492.035-.74zm-.01 1.304c.19.123.383.244.578.367-.13.224-.255.452-.38.684-.112-.008-.338-.023-.453-.027.073-.347.164-.685.255-1.025zm.307 5.02c-.15-.226-.42-.372-.49-.642-.02-.392.15-.756.25-1.125.345.535.27 1.163.24 1.766zm.336 3.416l-.248-.01c-.02-.234-.04-.468-.056-.7h.576c-.094.236-.187.472-.273.71zm.118-6.908c.317-.317.64-.628.962-.94.134.335.268.673.414 1.007-.46-.026-.92-.034-1.375-.067zm.76-1.697c.146-.06.44-.173.587-.23.263.276.447.617.655.938-.418-.23-.858-.42-1.242-.707zm1.524 2.256c.01-.128.03-.385.038-.512.284.012.566.025.848.042l.123.51c-.337-.02-.673-.035-1.01-.04zm2.94-3.077c-.002-.447.005-.893.022-1.34.233.443.48.874.745 1.298-.256.013-.51.026-.766.043zM49.4 72.98c-.042-.31-.062-.62-.073-.928-.186-.12-.368-.234-.554-.346l-.007-.248c.21-.01.424-.013.636-.015.003.51.012 1.02-.002 1.536zm3.655.888c-.25.202-.51.39-.78.568.168-.142.337-.278.51-.41-.03-.492-.08-.984-.184-1.466.18-.025.358-.046.54-.067-.038.457-.02.92-.085 1.375zm-.33-5.134l.007 1.125c-.336-.197-.667-.406-.977-.64-.17.292-.335.59-.532.864.147-.317.366-.6.47-.935-.128-.343-.287-.673-.445-1 .083.003.25.007.334.012.02.282.044.563.07.845.82-.177.996-1.02 1.134-1.72.496.215.53.712.562 1.186l-.623.26zm.62-1.832c.262-.192.44.28.248.444-.263.196-.447-.282-.25-.444zm.114 2.458c-.02-.305-.03-.605-.03-.91.164.025.49.07.65.094.15.282.113.62.16.93-.262-.034-.522-.064-.78-.114zm2.518 4.285c-.628-.05-1.127-.457-1.597-.84-.074-.293-.043-.598-.06-.9l.38.06c.075.294.16.59.227.89.368.055.732.14 1.1.204-.015.193-.032.39-.05.585zm-1.705-5.94c.35-.395.652-.824.946-1.26.567.62.034 1.345-.197 1.977-.255-.235-.506-.475-.75-.717zm-.114-7.025c.164-.48.4-.93.638-1.373.203.154.434.267.676.357-.274.117-.55.238-.82.355.178.304.36.61.517.926-.228.29-.45.582-.67.88-.637-.08-1.29-.085-1.886.19.143.256.297.504.456.754-.21.317-.408.643-.605.964-.15-.568-.59-.933-1.188-.918.184-.25.375-.497.572-.74-.177-.354-.345-.78-.184-1.17.2-.386.44-.75.648-1.13.228.366.437.744.657 1.12.397-.076.79-.164 1.19-.216zm-3.06-4.17c.443-.152.663.392.977.6.513-.37 1.055-.692 1.63-.957-.163.534-.428 1.03-.65 1.542-.3-.08-.58-.282-.893-.267-.336.125-.652.3-.983.438-.126-.438-.148-.903-.08-1.356zm-.1 1.367c.34.536.764 1.01 1.135 1.524-.687.078-1.375.015-2.034-.185.026-.597.492-.97.9-1.338zm-4.813-11.724l.74-.012c-.023-.304-.04-.605-.055-.907l.654.02c-.043.48-.06.965-.05 1.45-.406.18-.85.212-1.29.24v-.79zm.297 5.963c.02.367.04.732.053 1.098l-.38-.002c.136-.357.25-.72.327-1.096zm-.265 7.272l-.002-.593c1.058.198 1.883.93 2.903 1.235-.037-1.41.077-2.84-.41-4.195.27.11.516.28.798.35.23-.085.444-.197.67-.293-.165.532-.682 1.058-.403 1.632-.105.232-.396.432-.31.712.202.71.64 1.32.95 1.99.207-.1.413-.2.618-.304.08.315.173.626.27.94-.39.116-.786.206-1.182.277.147-.216.292-.433.438-.65l-.756.013c.016.305.036.61.016.916-.43.024-.862-.028-1.294-.03.087.35.18.7.273 1.05.264-.24.524-.482.787-.72.273.42.368.927.125 1.388-.205.367.017.735.12 1.092-.07.275-.18.543-.258.82.208.02.414.046.624.07-.006-.285-.01-.57-.02-.85l.954.312c.09-.284.153-.576.213-.868.428.296.93.294 1.427.246.182.255.356.513.524.78.094.005.283.022.376.03-.008-.376-.025-.752-.054-1.127.304-.146.61-.288.92-.418-.007-.307-.015-.614-.02-.918l.595.092c.043.54-.05 1.09.04 1.627.21.342.48.65.586 1.046-.336.008-.67.006-1.006-.002.216.262.49.5.584.838-.093.432-.592.303-.906.242-.41-.257-.797-.568-1.298-.607.127.74-.538 1.23-.606 1.94-.217-.103-.433-.204-.65-.3-.003-.45-.01-.9-.013-1.348-.355-.16-.706-.328-1.056-.492-.127.467-.24.94-.246 1.43-.284-.042-.57-.08-.852-.113-.286.46-.226.98-.07 1.472-.014.772.063 1.546.016 2.32-.254-.124-.523-.25-.7-.48-.26-.43.415-.725.35-1.155-.054-.693-.006-1.384.035-2.075-.16-.165-.323-.326-.487-.486.62-.735.42-1.75.453-2.636-.04-.49-.627-.34-.96-.32.112.894.51 1.898-.096 2.706-.133-.006-.398-.02-.53-.025.11-.277.226-.548.35-.82-.155-.103-.308-.21-.46-.314.34-.46.292-1.01.054-1.505.203-.237.41-.47.617-.71-.113-.128-.223-.256-.333-.385.117-.296.217-.6.36-.89.358-.298.78-.506 1.155-.777-.462-.084-.93-.063-1.39-.01-.35-.317-.7-.7-1.22-.534l-.366-.632c-.305.16-.606.332-.92.476.21-.172.44-.32.675-.46zm-.387 9.13l-.066.646c-.147.002-.292.008-.44.015-.01-.22-.026-.44-.04-.658.183-.003.363-.005.546-.005zm-.398-9.37c-.377.378-.824.32-1.223.017.316-.474.844-.303 1.223-.017zm-2.227 2.306c.32-.236.528-.584.78-.887.11.484-.184.868-.426 1.254-.247-.124-.49-.245-.74-.366-.344.286-.678.582-1.01.883 0-.317.006-.632.014-.95.46.013.92.065 1.382.067zm-1.185-3.298c-.3.084-.402-.02-.308-.31.29-.094.394.01.308.31zm-.682-.857l-.024-.696c.26-.17.517-.353.778-.526-.093.492-.48.826-.753 1.22zm-.082-3.34c.31-.176.548.34.305.537-.295.168-.574-.356-.305-.536z"/>
  <polygon points="46.181 45.126 46.18 45.127 46.181 45.13"/>
  <path d="M101.67 41.543c-.964.255-1.96.284-2.94.438-.903.166-1.61-.65-2.508-.554-.338.048-.733-.03-1.015.198-.936.812-1.886 1.61-2.765 2.482-.508.41-.732 1.065-1.24 1.476-.26.11-.546.082-.816.086-.13-.24-.088-.526-.122-.787-.287.018-.574.03-.86.043-.353-.666-.583-1.39-.963-2.04-.404-.018-.808.005-1.208.04-.485-.857-1.38-1.35-2.088-1.996-.326.324-.602.797-1.128.73.252-.214.52-.414.785-.617-.408-1.442-1.647-2.557-2.974-3.16-.11-.628-.346-1.217-.663-1.766-.26.35-.612.716-.5 1.194.293.9.912 1.632 1.344 2.463.39.713 1.133 1.245 1.226 2.097.113.614.307 1.214.352 1.843.017.63.26 1.277.72 1.716 1.132.038 2.316.432 3.416.023.452-.045.894.15 1.343.195-.052.41.017.954-.427 1.173-.49.244-.626.847-1.114 1.094-.412.27-.866.7-.81 1.235.526 1.127 1.763 1.613 2.785 2.188.667.457 1.513.384 2.247.668 1.658.36 3.103 1.298 4.684 1.882.43.236.928.357 1.304.68.65 1.42 1.158 2.898 1.863 4.296 1.25 2.558 2.446 5.144 3.778 7.66.48.91 1.302 1.72 1.325 2.806.068.747.146 1.5.32 2.233.248 1.06.224 2.165.475 3.23.412 1.843.107 3.824.894 5.585.602-1.52.597-3.175 1.015-4.738.194-.835.168-1.7.357-2.536.108-.462-.04-.928-.004-1.393.476-.672.262-1.515.438-2.273.364-1.5-.413-2.968-.22-4.475-.153-1.262-.348-2.602-1.188-3.61.15-.453.396-.925.257-1.413-.15-.503-.437-.973-.422-1.513.026-1.077-.448-2.064-.598-3.112-.076-.676-.444-1.28-.5-1.962-.05-.576-.447-1.02-.73-1.492-.248.188-.496.376-.75.555.22-.21.446-.417.67-.622l-.33-.654c-.308-.098-.628-.17-.91-.32-.328-.21-.325-.64-.455-.967-.12-.502-.552-.968-.37-1.508.19-.44.714-.562 1.12-.724 1.17-.51 2.342-1.017 3.482-1.593.476-.328.928-.705 1.488-.897.673-.27.92-1.008 1.343-1.538.56-.707 1.134-1.51 1.177-2.444-.393-.048-.754-.202-1.065-.442.232-.26.468-.516.702-.77-.063-.14-.194-.415-.26-.555-.177.012-.356.028-.532.055-.694.43-1.328 1.014-2.137 1.22-1.11.155-2.247.162-3.34.416-.965.29-1.99.21-2.956.473zm-14.26 2.794l-.35.01-.044-.403c.113-.002.34-.006.454-.006l-.06.4zm8.686 5.13c-.51-.375-1.008-.765-1.498-1.16-.26-.032-.518-.03-.775-.037-.16-.547-.38-1.077-.8-1.478.304.23.618.45.937.66.338.21.472.62.79.85.89.536 1.834 1.094 2.438 1.958-.454-.124-.734-.523-1.092-.794zm1.997 1.6c-.164-.145-.302-.318-.45-.477.286-.098.563-.273.88-.217.013.28-.023.796-.43.695zm5.484 11.61c0 .25.002.5.01.75h-.364c-.018-.268-.04-.537-.06-.805.104.013.31.04.414.055zm5.644-21.78c.104-.005.315-.013.42-.02.182.37.56.712.45 1.158-.197.215-.422.405-.637.603-.227-.365-.436-.74-.65-1.112.14-.21.28-.417.418-.628z"/>
  <path d="M33.113 38.742c.22 1.073.837 2.233 1.936 2.607.073-.283.156-.558.242-.832.086-.01.258-.023.343-.03.064.58.22 1.19.81 1.44l-.067.396c-.168 0-.333 0-.498.002-.176-.357-.343-.72-.51-1.08-.63.798.045 1.64.535 2.28.162-.138.324-.27.488-.403.172.167.35.328.535.484-.414-.017-.828-.008-1.242.006-.08.553-.02 1.11.246 1.607.282.417-.22.864-.023 1.3.108.392.384.75.342 1.177-.184 1.45-.037 2.91-.093 4.368-.028.785.183 1.565.063 2.35-.107.77-.105 1.553.018 2.32.1.53-.186 1.065-.016 1.587.244.507.634.927 1.005 1.346.627.676 1.167 1.428 1.828 2.073.104-.385.207-.773.283-1.166-.23-.32-.896-.65-.562-1.108.875-.912.66-2.237.687-3.383.417-2.037-.093-4.154.35-6.182-.024-1.45.02-2.904.034-4.355.142-.478.184-.977.152-1.473-.466-.618-.45-1.467-.177-2.164.312-.81.098-1.69.16-2.534-.03-.46.18-.998-.135-1.398-.576-.76-1.124-1.54-1.686-2.308-.387-.59-1.134-.714-1.74-.98-.61-.306-1.267 0-1.886.097-.824.11-1.172 1.008-1.945 1.24-.05.745-.11 1.513.062 2.246.14.167.31.307.458.472zm5.132 16.282l-.336-.035c-.012-.145-.025-.287-.035-.427.35-.167.726-.24 1.115-.244-.254.228-.5.466-.745.704zm-1.822-16.7c.57.14 1.146.238 1.734.238.102.277.21.555.307.835-.547-.02-.857.428-1.196.78.006-.437.028-.874.058-1.31-.327.025-.65.044-.977.06l.073-.603z"/>
  <path d="M6.5 43.08c.743-.153 1.52-.1 2.245-.343.407-.144.805.12 1.215.117 2.057.035 4.113-.056 6.167.052.76.06 1.532.24 2.293.07.022-.487-.04-.978.01-1.464.097-.125.08-.457.312-.39.365.547.138 1.194 0 1.776.414.26.902.336 1.385.338.384-.14.723-.376 1.078-.574-.196-.336-.395-.672-.55-1.03.614.308 1.194.675 1.795 1-.61.124-1.225.283-1.684.727.637.53 1.52 0 2.18.527.038-.66-.252-1.45.34-1.943.268.006.538.02.805.035-.04.654-.444 1.195-.68 1.788.326.038.69.29.985.038.287-.438.524-.906.837-1.327.096.35.2.696.31 1.043.255-.26.54-.488.765-.772.177-.57.07-1.18.08-1.767-.407-.332-.843-.687-.984-1.217.67-.165 1.093.505 1.713.576.334-.328.542-.75.778-1.148-.152-.265-.304-.532-.45-.8.266-.33.602-.598.973-.81l-.094-.76-.447.04c-.37.502-.746 1.007-1.364 1.22.035-.62.542-.893 1.053-1.09.08-.122.245-.362.328-.483-.184-.272-.627-.437-.566-.82.098-.79-.405-1.447-.623-2.174-.472-.962-.35-2.14-1.004-3.022l-.28.167c-.23.3.013.623.104.924.248.47.156 1.012.165 1.522-.315-.09-.627-.184-.94-.276.315-.12.627-.248.936-.386-.247-.192-.505-.37-.778-.524.02-.378.005-.768.128-1.133.068-.386.473-.543.714-.808-.14-.327-.306-.642-.423-.976.073-.593.145-1.192.024-1.782-.105 0-.318.004-.423.008-.214.484-.525.914-.808 1.36-.085 1.53-.312 3.052-.295 4.59.034.727-.285 1.466.046 2.165.126-.065.372-.19.495-.25.066-.396.186-.78.337-1.148.31.585.426 1.26.45 1.918-.4-.004-.765-.165-1.125-.326l-.04.475c.27.23.556.453.77.74.123.412-.197.773-.2 1.174.008.448.045.894.04 1.343-.613-.297-1.274-.493-1.96-.342-.398.095-.495-.548-.883-.525-1.327.015-2.675-.115-3.986.154-1.38-.29-2.792-.122-4.183-.037-.85-.056-1.67.194-2.512.25-.818.05-1.547.464-2.342.625-.44.07-.81.315-1.18.54-.423.08-.923-.045-1.245.314-.742.426-1.062 1.238-1.502 1.924-.047-.436-.05-.88-.047-1.317-1.154.47-2.235 1.253-2.81 2.385 1 .07 2.084.008 2.926-.597.517.218 1.035.585 1.627.43zm15.365-3.664c.007.365 0 .732-.047 1.098-.327-.367-.44-.822.047-1.098zm-5.427.73c.024.504-.09.99-.31 1.44-.18-.448-.314-.915-.284-1.404.2-.013.396-.025.594-.035zm-5.264.06c0 .412-.025.83-.037 1.245-.648-.126-1.254.108-1.81.42l-.024-.596c.654-.305 1.344-.558 1.87-1.07z"/>
  <path d="M43.718 37.47c-.083.508-.454 1.105-.024 1.556.596.64 1.313 1.21 2.156 1.47-.03-.523-.088-1.05-.01-1.568.103-.54-.21-1.015-.422-1.48-.2.244-.405.486-.613.724-.066-.396-.167-.785-.234-1.18.077-.43.254-.834.367-1.25.157.037.315.072.473.11.077-.102.238-.307.316-.407.653.874 1.29 1.784 1.615 2.836l-.69.717c.273.292.555.576.86.84-.023.21-.045.42-.07.633l.565.347c-.018.213-.03.426-.034.64.202.23.45.414.69.604.33-.375.192-.874.258-1.32.16-.202.334-.396.52-.574.525.033 1.03.215 1.562.217.428.226.828.532 1.33.574-.137.32-.27.645-.398.968l-.416-.678c-.107.004-.323.014-.43.017-.032.618.043 1.23.237 1.818.28-.127.55-.265.824-.407.09.317.184.632.276.95.315.006.638.03.952-.03.236-.464.388-.974.683-1.408.29-.038.64-.086.846.173.272.32.06.818.373 1.112.364.424.628.92.98 1.352.302.37.822.215 1.227.173-.013-.762-.598-1.457-.38-2.223.276-.566.732-1.023.993-1.597.367.43.55.966.458 1.53-.124.695.287 1.37.886 1.707-.297.27-.57.574-.82.89l.382.608c.175-.173.354-.344.53-.515.164.31.32.714.726.747.692.07 1.38-.133 2.07-.167.067-.31.137-.616.192-.927l.543-.106c.096-.465.356-.862.562-1.28.036-.304.04-.604.056-.905.176-.022.353-.043.53-.062-.038.324-.08.645-.126.966.16-.002.478-.002.635-.004.116-.376.15-.768.193-1.158.193-.357.4-.706.562-1.08.115.003.343.005.46.01-.244.462-.485.93-.687 1.414.655.436 1.278-.004 1.902-.23.83.073 1.49-.51 2.287-.643-.025-.822-.015-1.645-.015-2.465.17.05.337.106.505.167.236.578.46 1.34.03 1.876.397-.36.847-.66 1.243-1.026.51.223.996.628 1.587.518.574-.09 1.07.37 1.648.253.464-.07.898.115 1.34.23l-.654-.75c.192-.08.385-.162.577-.245.203.31.463.574.728.83-.096.314-.203.623-.3.934.206.38.55.54.975.48l-.037-.98c.08.013.238.037.315.047-.13.337-.147.696-.17 1.053-.162.32-.374.61-.552.918l.8-.037c-.01.142-.03.426-.042.568-.295-.156-.588-.32-.888-.464.193.83.716 1.534.885 2.377.082.597.528 1.004.977 1.357-.007.288-.01.576-.01.866.31.223.6.486.955.645.305-.116.58-.298.89-.406.528.085 1.056.307 1.594.16.5-.1 1.084-.427 1.11-1-.036-1.345.047-2.758-.542-4.013-.104-.71.044-1.49-.33-2.145-.293-.655-1.003-1.085-.916-1.882-.202.488-.25 1.34-.96 1.273-.318-.62.384-.952.724-1.342-.084-.292-.16-.59-.233-.88-.168.383-.4.865-.908.76-.035-.58.362-1.04.553-1.558-.215-.244-.43-.486-.588-.77-.425-.6-.323-1.484-1.04-1.866.14-1.096-.44-2.106-.915-3.05.068-1.326.01-2.67-.24-3.977-.18-.85-.128-1.755-.482-2.565-.21-.424-.115-.908-.24-1.35-.324-.574-.866-1.027-.972-1.705-.05-.5-.608-.753-.62-1.252.014-.41-.366-.636-.61-.9-.48.147-.928.425-1.436.452-.267.035-.572.03-.76.253-.384.313-.326.862-.517 1.28-.2.435-.048.936-.232 1.383-.29 1.277-.157 2.6-.18 3.9-.1 1.218-.564 2.395-1.337 3.343-1.073 1.024-2.573 1.453-4.025 1.525-.35.03-.665.204-.984.34-.458-.056-.93-.113-1.38.027-1.125.315-2.35-.027-3.437.474.006.32.026.635.054.952-.183-.008-.364-.014-.544-.02.007-.233.007-.463.002-.692-.17-.332-.512-.21-.8-.163-.023 1.01.293 1.983.26 2.987-.362.052-.72.13-1.078.21-.12.258-.243.516-.374.77-.064-.527-.125-1.14.297-1.544.64-.618.736-1.525.846-2.358-.772.004-1.538.104-2.308.098-.253.543-.093 1.165-.143 1.747-.11.013-.33.033-.44.046.244-.55.318-1.138.29-1.735-.643.077-1.26.344-1.917.28-.9-.056-1.756.26-2.637.363.03.597.093 1.273-.54 1.588-.065-.54-.035-1.083-.01-1.624-.182.004-.547.017-.73.02-.002.717.118 1.426.35 2.103 0 .35-.174.668-.243 1.006.308-.01.616-.028.924-.047.097.228.195.46.316.68.372.14.767.06 1.145.014.06.396.28.728.447 1.083.076.41-.397.595-.672.78-.76-.213-1.59-.37-2.228-.864.358-.036.72-.05 1.08-.067l-.01-.73c-.236.01-.47.02-.7.028-.157.288-.29.588-.48.854-.218.054-.435.096-.653.14-.118-.382-.255-.758-.43-1.12.106-.174.217-.352.327-.53-.33-.093-.656-.2-.98-.318.494-.326 1.097-.534 1.432-1.052.168-.543-.093-1.075-.205-1.6-1.212-.33-2.437.02-3.658.047-.313.032-.51.333-.764.485-.497.102-1.102-.186-1.507.23-.333.33-.722.584-1.19.67l.04.582c.282.174.558.354.828.544zm37.81 5.02c.653.875.356 1.987.425 2.99l-.547-.102c.04-.382.17-.747.193-1.127-.064-.6-.688-1.253-.072-1.76zm-3.193 1.564c.034.618.066 1.238-.03 1.853-.872-1.288-.417-2.828-.278-4.24.21.277.405.57.6.857.235-.376.534-1.123 1.02-.543-.397.715-.658 1.54-1.312 2.074zm.117-8.39c-.14.212-.282.425-.425.636-.04-.217-.076-.436-.11-.653.133.004.402.01.535.016zm.297 4.098c-.093-.543-.408-1.083-.213-1.638.734-.027.446.962 1 1.275-.354.222-.81.368-.962.798-.107.51-.19 1.03-.32 1.536-.273-.55-.464-1.135-.536-1.745.337-.092.68-.175 1.03-.228zm-1.83-3.19c.244-.03.49-.062.74-.095-.304.562-.27 1.192-.236 1.805-.72-.298-.562-1.087-.505-1.71zm-.95.335c.03-.277.213-.51.306-.77.096 1.035.046 2.083.046 3.118-.21.28-.546.42-.84.586-.027-.302-.092-.61-.028-.913.195-.253.444-.455.66-.69.19-.437-.056-.898-.144-1.33zm-.138-13.097c.014.305-.034.605-.07.908-.382-.465-.67-1.006-.75-1.607.265.243.594.42.82.7zM73.83 35.116l.447-.07c.072.248.15.496.238.742-.237 0-.473.004-.707.006.005-.225.012-.45.022-.678zm-3.42 3.555c.437-.05.77.264 1.126.462l.525-.278c.22.098.446.353.7.227.486-.514 1.122-.96 1.284-1.694.185.11.375.22.564.324-.35.672-.82 1.32-1.55 1.61.018.41.02.82.026 1.23-.323-.006-.644-.006-.967 0 .265-.424.25-.904.057-1.352-.502.3-1.086.278-1.647.25-.075-.25-.244-.512-.116-.777zm-2.42 2.627c.234-.088.465-.18.698-.27l.042.612c-.252-.003-.5-.005-.752-.01l.013-.333zm-1.27-1.178c.143.602-.357.957-.728 1.333-.012-.32-.01-.64-.004-.958.242-.127.487-.255.732-.376zm-6.588 4.64c.066-.635-.074-1.335.326-1.888.296.563.387 1.198.442 1.824-.258.02-.514.042-.768.063zm2.646-10.39c.297-.105.397-.005.296.295-.296.1-.396.003-.296-.296zm-2.397 2.147c.274.027.55.05.828.075.113-.315.228-.628.35-.94.04.34.18.71.035 1.04-.304.454-.647.877-.944 1.337-.114-.06-.34-.18-.452-.235-.056-.113-.17-.336-.223-.447l.406-.83zm-1.123 2.955c.292-.02.584-.035.877-.048.054.42-.033.9.252 1.25.32.255.738.278 1.126.192.31-.292.58-.626.88-.927-.02-.354-.04-.704-.065-1.055.097-.012.29-.038.387-.048.012.344-.11.726.083 1.042l.375-.16c.223-.298.116-.674.127-1.016.086.012.26.042.345.054.136.824-.51 1.47-1.124 1.906-.485.225-.916.543-1.374.816-.73-.157-1.198-.816-1.716-1.3-.255-.155-.153-.46-.173-.708zM57.36 38.15l.443.072c.04.14.117.422.156.562.144-.01.434-.034.58-.042v.54c-.32-.37-.772-.494-1.252-.452-.12.217-.236.436-.348.66-.238-.87-.165-1.783-.494-2.64.455.322.928.683.915 1.3zm-1.768 3.107c.183.002.368.002.552.006.152-.426.143-1.064.766-.98-.036.565.017 1.13.238 1.66-.76.237-.597 1.205-1.3 1.48-.018-.316-.03-.636-.037-.95-.427-.314-.796-.723-1.32-.873.2-.847-.163-1.645-.17-2.484l.797-.382c.03.605-.034 1.215.035 1.818.133.244.29.47.44.705zm-2.648-3.373c-.12-.41-.274-.806-.45-1.194-.225.27-.447.543-.683.802-.003-.3 0-.6.01-.902.428-.113.863-.227 1.258-.44.545-.34.838-.934 1.21-1.433.46.524.228 1.263.256 1.9l.336-.5c.115.334.41.743.158 1.09-.35.547-.643 1.127-.957 1.695-.058.006-.18.02-.24.025-.084-.386-.15-.775-.212-1.165-.227.04-.457.078-.684.122zm.68 2.93c.008.27.036.543.006.81-.217.267-.503.47-.766.69.104-.544.04-1.425.76-1.5zm-5.64-1.778c-.36-.177-.582-.55-.54-.956.14-.227.34-.407.522-.6.087.515.093 1.038.02 1.556zm-.085-3.81c-.043.306-.088.613-.137.92-.233-.002-.465-.002-.698-.002-.084-.53.26-1.017.834-.92z"/>
  <path d="M77.86 23.938c.49.76.798 1.7.602 2.607-.09.384-.15.785-.076 1.18.178.936.15 1.907.45 2.82.318 1.368.38 2.84 1.045 4.102.224-.66.35-1.342.34-2.04.046.375.055.755.128 1.13.398.338.898.522 1.362.756-.433.036-.866.03-1.297.067-.365.22-.248.668-.297 1.023.612.186 1.237.353 1.793.68.454 1.347 1.454 2.387 2.377 3.434.518.422 1.202.574 1.738.98.355.24.553.638.84.947.356.472.99.566 1.406.973.615.405 1.137 1.133 1.95 1.077-.082-.292-.243-.564-.27-.864-.05-.296.298-.355.475-.507.087.223.177.447.27.67-.314.332-.446.747-.32 1.192.12.008.363.027.487.037.334-.84 1.077-1.405 1.475-2.208.336-.682.785-1.296 1.192-1.933.048-.788.112-1.65-.373-2.334-.56.438-1.12.937-1.318 1.65-.255-.725-.642-1.395-.87-2.128.29-.002.582.006.874.023-.145.352-.588.673-.418 1.076.665.22 1.237-.144 1.662-.624-.516-.835-.778-1.937-1.703-2.43-.452-.233-.614-.746-.805-1.18-.234-.687-.708-1.263-.916-1.958-.17-.933.063-1.88-.086-2.816.305-.983 1.02-1.84 1.952-2.288.476-.246.905-.65 1.468-.676.834-.05 1.673-.06 2.506.012 1.13.067 2.27-.008 3.398.11.276.21.436.544.73.736.278.098.574.134.855.223 1.036.992 2.318 1.68 3.44 2.567.716.332 1.22 1.185 2.092 1.025-.128-.69-.353-1.352-.524-2.033-.523-1.6-2.09-2.434-3.34-3.402-.717-.52-.875-1.52-1.634-1.995-.994-.7-1.955-1.46-3.018-2.062-.6-.403-1.342-.462-1.997-.74-1.495-.412-3-.796-4.508-1.157-.967-.248-1.963-.17-2.95-.188-1.463-.075-2.7 1.052-4.17.88-.832-.085-1.678.057-2.498-.11-.442-.048-.52-.64-.96-.693-.463-.127-.802-.513-1.265-.645-.48.127-.898.476-1.43.42-.334.366-.705.69-1.036 1.053-.274.597-.153 1.267-.08 1.897.156.714.815 1.127 1.25 1.666zm6.168 11.944c.115-.355.348-.664.736-.728-.04.198-.084.395-.137.59-.198.055-.397.103-.6.138zm1.735 3.576c-.152-.008-.304-.014-.454-.02-.26-.437-.56-.85-.75-1.322.17.26.317.534.46.812.247 0 .496-.002.745-.004-.002.175-.002.352-.002.534zm2.316-1.848c-.356.305-.798.59-.695 1.12.31-.028.787.168.914-.237.087-.632.054-1.28-.165-1.882.294-.467.58-.94.917-1.38.305.03.617.084.866.283.116.463.005.933-.256 1.328-.06-.427-.04-.878-.295-1.25-.263.498-.524.995-.835 1.464.32.073.643.163.966.246-.093.326-.196.645-.293.97.625.49.858 1.38.295 2.023-.218-.595-.39-1.206-.696-1.762-.765.64-.416 1.688-.498 2.547.424.102.854.186 1.286.25-.127.463-.163.94-.192 1.415-.856-.545-1.064-1.62-1.84-2.235.086-.267.176-.532.26-.797-.71-.395-1.235-1.06-1.383-1.87.516-.244 1.086-.236 1.642-.23zm-.14-4.923c.014.526.032 1.05 0 1.576-.188.324-.595.328-.904.457-.002.18-.004.36-.004.54l.765-.003c-.03.396-.045.793-.002 1.187-.253.282-.477.585-.702.887-.333-.6.042-1.24-.032-1.88-.593.08-1.132-.106-1.608-.46.196-.266.402-.525.597-.788-.622.59-1.552.726-2.31.303.226-.198.454-.396.678-.597-.275-.292-.56-.576-.835-.868.09-.31.177-.62.248-.935.84-.006 1.46.624 2.175.964-.335.028-.672.024-1.005.022.018.217.038.436.06.657.407-.126.806-.274 1.222-.38.09.354.19.706.27 1.065.338-.104.672-.22 1.01-.32.04-.503-.077-1.07.377-1.428zm-4.705-2.15l.022-.38.506-.384c.025.26.052.522.076.785-.202-.008-.405-.012-.605-.02zm3.224-3.43c.07.308.15.613.233.917-.248-.056-.498-.117-.725-.228-.035-.232-.04-.463-.053-.693.18 0 .36.003.544.003zm-.113 2.353c-.53.42-1.17.065-1.656-.234.24-.238.42-.624.824-.534.32.207.556.514.833.768zm-3.133-5.35c.13.226.254.456.38.685.266-.033.53-.065.798-.094-.033.258-.065.516-.1.775l.58.27c.105.742-.238 1.614.403 2.176-.512.335-.777.876-.97 1.437-.555-.26-1.26-.342-1.588-.92-.132-.712.22-1.32.577-1.9l.583.047c-.188.56-.535 1.1-.456 1.713.213.17.79.225.705-.207.014-.65.305-1.258.246-1.918-.356-.052-.827.144-1.056-.223-.188-.52-.362-1.045-.667-1.51.14-.083.425-.248.567-.33zm-.37 7.517c.046.52.037 1.046-.025 1.567-.204-.27-.57-.513-.52-.897-.05-.347.335-.476.544-.67zm-1.396-7.804c.29-.004.583-.004.876-.002.012.243.027.487.045.732-.318.006-.637.014-.953.023.01-.25.018-.502.03-.752zm-1.14 5.942c.013.397.013.795-.006 1.192-.17-.226-.34-.45-.51-.67.174-.17.345-.347.515-.522z"/>
  <path d="M45.907 2.152c.385.85 1.323 1.207 1.947 1.84.626.926 1.004 2.138 2.07 2.664.415.363.67.906 1.19 1.152.887.405 1.025 1.503 1.697 2.13.708.63 1.423 1.25 2.16 1.844 1.035 1.555 1.99 3.174 3.198 4.61 1.11 1.542 2.342 2.995 3.43 4.554 1.56 2.89 2.98 5.85 4.493 8.764.14.223.282.476.534.588.596-.135 1.198-.252 1.81-.273.623.03 1.115-.405 1.652-.65.315-.552.53-1.195.617-1.827-.34-1.142-1.048-2.137-1.366-3.29-.314-1.17-1.273-1.967-1.958-2.915-.553-.84-1.203-1.61-1.655-2.513-.51-1.073-1.464-1.812-2.176-2.734-.923-.97-1.465-2.277-2.593-3.047-.874-1.228-2.228-1.978-3.552-2.63-.82-.767-1.58-1.654-1.934-2.746-1.763-1.405-3.632-2.678-5.448-4.007-.627-.175-1.085-.785-1.755-.774-.212.248-.398.518-.6.774-.024-.37-.01-.74.02-1.106-.348-.308-.72-.596-1.206-.615-.693-.035-1.067-.684-1.657-.945.34.41.888.626 1.084 1.152zm20.338 20.734c.13.334.304.664.306 1.035-.19.082-.39.135-.598.153-.015-.417.062-.83.293-1.187zm-1.932-3.945c-.005.308-.007.615-.015.924.2.07.4.136.606.198.007.094.024.28.03.374-.168-.02-.336-.04-.504-.056-.137-.505-.326-.993-.573-1.452.114 0 .342.01.456.013z"/>
  <path d="M127.176 46.44c.123.734-.2 1.59.28 2.213.258-.342.483-.71.6-1.123.026-.355-.148-.686-.146-1.04.17-.335.472-.588.692-.894.094.276.187.55.28.83.71.043 1.107-.55 1.38-1.12-.148-.03-.447-.092-.596-.12.17-.387.392-.746.66-1.074.086.347.11.7.147 1.058.267-.215.534-.428.81-.635-.05-.31-.1-.618-.146-.923.448-.428 1.065-.63 1.487-1.085.567-1.062 1.345-1.995 1.906-3.066-.19-.185-.387-.36-.58-.54.24-.02.484-.044.728-.075.316-.524.68-1.065.687-1.7.01-1.053.825-1.87.932-2.902.063-.66.366-1.252.512-1.89-.377-.057-.755-.1-1.13-.128.005.263.017.526.032.79-.827.375-1.05 1.324-1.458 2.053-.426.735-.697 1.557-1.22 2.233-.906 1.297-1.626 2.71-2.52 4.015-.244.507-.934.49-1.2.98-.793.92-.205 2.197-.682 3.224-.154-.082-.463-.25-.616-.333.162-.388.32-.78.327-1.206-.685.544-1.356 1.12-1.886 1.823-.27.36-.74.47-1.116.687.014.213.028.43.044.645.59-.243 1.143-.612 1.792-.694z"/>
  <path d="M113.134 40.11c.387-.642.993-1.14 1.222-1.87.157-.48.556-.892.54-1.414-.415-.22-.817.117-1.198.252-.658.26-.97.94-1.364 1.48-.02.676-.137 1.342-.248 2.008.374-.067.854-.056 1.048-.455z"/>
  <path d="M28.78 40.126c.072-.472.107-.95.028-1.423-.096-.002-.29-.01-.388-.013-.12.474-.24.95-.265 1.438l.626-.002z"/>
  <path d="M46.255 40.875c.096.02.29.054.387.075.3.253.6-.26.89-.338l-.525-.31c-.376-.062-.512.372-.752.573z"/>
  <path d="M49.436 41.89c.264.4.938.888 1.333.404-.25-.41-.39-1.227-.945-1.244-.297.115-.262.576-.39.84z"/>
  <path d="M54.812 43.807c-.36-.025-.72-.035-1.08-.027.368.374.792.676 1.343.626-.097-.196-.184-.398-.263-.6z"/>
  <path d="M125.66 49.184c.248.127.57.426.778.07.638-.435.692-1.214.396-1.877-.66-.002-1.307.13-1.852.524.384.195.783.352 1.192.487-.18.26-.354.525-.515.797z"/>
  <path d="M56.18 48.157l-.378-.023c-.003.198-.004.394-.008.595.108 0 .33.013.44.016-.02-.197-.04-.393-.055-.59z"/>
  <path d="M52.506 50.15c.238.08.48.15.725.215.035-.252.053-.507.077-.762l-.538-.03c-.065.147-.198.433-.264.577z"/>
  <path d="M31.816 57.198c.348.058.69.163 1.045.2.418.06.637-.37.912-.605.13.207.262.413.395.62.252.008.505.014.76.017 0-.76-.05-1.52-.05-2.28-.255-.742-.487-1.487-.664-2.253-.86-.12-1.7.155-2.518.386-.458.132-.947.178-1.373.407-.454.538-.11 1.275-.113 1.9.517.368.882 1.04 1.594.997.003.205.006.407.012.61z"/>
  <path d="M58.19 53.623l-.534.02c-.007.237-.017.475-.022.715.253-.033.523-.002.76-.12-.088-.197-.156-.402-.205-.615z"/>
  <path d="M57.148 54.46l-.58.084c-.017.263-.037.528-.055.793.187-.113.373-.23.562-.336.023-.18.048-.36.073-.54z"/>
  <path d="M59.796 55.98c.2.008.4.02.6.03-.017-.32-.027-.64-.034-.96-.19-.003-.382-.007-.57-.012.004.313.006.628.004.942z"/>
  <path d="M58.875 57.165c.438-.14.872-.338.834-.872-.263.02-.523.037-.782.07-.01.268-.024.535-.053.802z"/>
  <path d="M31.71 57.305c-.007-.232-.022-.463-.044-.69-.31.06-.597.174-.864.34.248.26.54.42.908.35z"/>
  <path d="M57.55 58.31c.285-.28.252-.688.32-1.046-.305-.084-.608-.173-.913-.253-.388.372-.85.74-.803 1.34.464.024.935.038 1.397-.04z"/>
  <path d="M83.938 60.786c-.26-.213-.548-.382-.83-.56-.153.558-.354 1.1-.684 1.58.566.07 1.08.28 1.546.602.01-.543.015-1.083-.032-1.622z"/>
  <path d="M91.883 61.692c-.493-.71-1.453-.513-2.127-.196-.13.338-.022.528.324.566.633.148 1.367.212 1.803-.37z"/>
  <path d="M81.99 62.12c-.187.015-.37.03-.557.048-.002.342.002.685.012 1.03.18.018.36.034.545.05V62.12z"/>
  <path d="M63.926 65.424c.316.01.634.015.952.01.016-.326.014-.65.064-.97.21-.316.608-.562.52-.992-.24-.033-.482-.058-.72-.102 0 .242.002.484.005.73-.6.17-.734.78-.82 1.324z"/>
  <path d="M81.86 64.49c-.388-.255-.71-.602-.942-1.02.083.63-.28 1.147-.456 1.72-.15.63.53.965.627 1.525.1.69.81 1.02 1.16 1.576.21-.074.422-.145.636-.212.015-.156.042-.47.056-.626-.18-.207-.43-.378-.49-.66.21-.292.468-.545.693-.822-.404-.008-.804-.006-1.204-.013.173-.276.33-.56.493-.843.022-.075.063-.23.085-.305-.24-.073-.454-.187-.655-.318h-.003v-.002z"/>
  <path d="M53 65.624c-.282-.008-.704-.44-.89-.098-.362.34.178.67.335.96.177-.292.363-.58.555-.862z"/>
  <path d="M39.143 67.363c-.113.01-.336.027-.45.038-.227.38-.378.773-.137 1.19.14-.072.42-.22.56-.293l.027-.934z"/>
  <path d="M38.39 71.537c-.287-.31-.696-.345-1.092-.296-.152-.254-.307-.508-.46-.76-.14.33-.342.654-.335 1.024-.064.637.427 1.12.63 1.684.154.46.7.353 1.075.426.007-.492-.05-.98-.356-1.38.22-.198.61-.34.54-.697z"/>
  <path d="M65.844 81.654c-.002-.267-.007-.532-.012-.795-.39-.137-.794-.222-1.205-.247-.062.717.567 1.128 1.217 1.04z"/>
  <path d="M62.313 82.7c.108 0 .323-.005.43-.01-.08-.542-.022-1.065.41-1.447-.265-.027-.53-.05-.798-.07.024.508 0 1.02-.042 1.528z"/>
  <path d="M63.897 81.224c-.096.288.01.386.32.29.104-.29-.004-.386-.32-.29z"/>
  <path d="M33.592 97.075c-.535-.94-.823-2.027-1.528-2.868-.016 1.7.286 3.4.575 5.076.318 1.048.753 2.06 1.072 3.112.13.532.685.877.68 1.453.075.76.358 1.47.635 2.175.408 1.45 1.21 2.732 1.89 4.06.154.3.34.6.7.676.065-1.222-.014-2.447.032-3.67-.018-1.087.262-2.306-.477-3.233-1.22-2.246-2.41-4.51-3.58-6.782z"/>
  <path d="M58.392 96.587c-.275.09-.546.192-.812.305.012.226.022.45.03.678.197-.01.586-.03.78-.046-.008-.31-.005-.624.002-.937z"/>
  <path d="M57.204 97.647c-.435.53-.645 1.19-.956 1.79-.336.67-.673 1.364-.663 2.132-.194.345-.493.627-.66.993.042.467.118 1.137.62 1.325.52.015 1.038.002 1.554.06.013-.21.026-.42.043-.623-.277.015-.552.03-.827.05-.044-.418.154-.745.474-.996.23.164.457.33.69.5.098-.57.216-1.125.545-1.61-.018-.613-.722-.688-1.177-.824l.073-.605c.362.09.718.204 1.076.316.027-.313.042-.624.053-.935l-.594-.045c-.052-.515-.142-1.025-.252-1.528z"/>
  <path d="M76.102 99.144c-.357-.284-.7-.578-1.062-.85-.267-.052-.54-.006-.805.004.285.36.565.73.87 1.077.356.1.705-.02.997-.23z"/>
  <path d="M71.91 102.128c.27-.198-.084-.607-.335-.417-.282.195.082.602.334.418z"/>
  <path d="M77.515 107.56c.44-.29.854-.706.91-1.253-.613.17-1.132-.35-1.715-.21-.017.347-.022.696-.037 1.044.25.196.476.526.842.42z"/>
  <path d="M39.42 113.58c.214.53.666.91 1.053 1.317.596.555.983 1.282 1.484 1.914.174-.32.51-.6.423-.997-.03-.374-.49-.612-.38-1.004.284-.373.758-.466 1.162-.635.645-.23 1.18-.69 1.852-.85-.083-.33-.11-.712-.417-.916-.953-.81-1.85-1.7-2.915-2.366-.668-.417-.932-1.202-1.386-1.81-.327.19-.66.372-1.028.475-.01-.53.18-1.026.21-1.545-.335.006-.776-.144-.905.284-.035.95-.287 2.047.466 2.8-.172.104-.342.21-.516.31.356.166.702.35 1.048.542-.392.13-.78.255-1.192.303-.42.543-.03 1.173.48 1.48.637.015.32-.833.468-1.217.472.583.01 1.26.092 1.912z"/>
  <path d="M75.008 107.83l-.395-.382c-.39.015-.567.405-.8.653.425.056.843-.01 1.195-.27z"/>
  <path d="M116.128 115.52c-.496-.29-.492-.937-.842-1.346-.325-.514-1.023-.457-1.55-.457-.677.378-1.276.897-1.802 1.463-.353.657-.762 1.285-1.103 1.95-.063.502-.146 1.022-.024 1.527 1.3.34 2.528.898 3.804 1.307.448.173.896.43 1.396.367.977-.137 1.933-.527 2.613-1.262-.017-.59.096-1.252-.32-1.736-.483-.86-1.438-1.224-2.172-1.812z"/>
  <path d="M48.608 127.98c-.044-.703.074-1.415-.04-2.112-.302-.576-.642-1.133-.97-1.695-.352.16-.693.338-1.038.51-.003.222-.007.448-.008.675-.292.002-.59-.052-.878.02-.8.48-1.372 1.245-2.135 1.77-1.133.034-2.22-.358-3.33-.53-.733-.254-1.52-.36-2.2-.752 0 .59.024 1.18.024 1.774.33.198.732.45.56.906-.24.177-.5.332-.758.484.012 1.258.03 2.515-.005 3.773.203.186.404.374.603.568-.058.414-.152.82-.252 1.228.482.338 1.064.497 1.54.847.986.697 1.893 1.5 2.868 2.214.49.446 1.232.38 1.837.275.793-.54 1.647-1.123 1.932-2.095.27-1.14.68-2.252.746-3.43.33-.742 1.08-1.234 1.473-1.944.234-.808.012-1.662.032-2.486z"/>
</svg>
