<!--
  SVG Music Logos
  Sepultura - Coat Of Arms v1.0.0
  https://github.com/tiagoporto/svg-music-logos
  Copyright (c) 2016 Tiago Porto (http://tiagoporto.com)
-->
<svg xmlns="http://www.w3.org/2000/svg" viewBox="0 0 125.878 200" class="sepultura--coat-of-arms">
  <g class="sepultura__coat-of-arms">
    <path class="sepultura__background-shield" d="M5.98 124.07c11.83 30.707 37.962 47.323 56.88 52.27 25.61-5.874 47.06-30.436 57.04-52.3V4.59H5.98V124.07z"/>
    <path class="sepultura__shield" d="M12.912 28.213h100.054v95.047c-8.007 17.65-26.445 40.526-50.107 45.844-16.268-4.185-39.49-18.533-49.947-45.844V28.213z"/>

    <g class="sepultura__title">
      <path d="M113.65 23.485l-.475-.242-.35-.415-.094-.447-.253-.446-.253-.204v-.385L112.16 21c-.094-.21-.19-.52-.316-.866-.096-.38-.19-.623-.254-.76l-.19-.514-.19-.55-.285-.52v-.515l-.127-.55-.093-.276-.223-.76-.03-.413-.255-.968-.218-.38-.157-1.002-.38-.968-.284-.866v-.56l-.188-.278h-.317l-.285.244-.03.794-.037.725-.156.416c-.062.244-.156.447-.187.623l-.187.52-.125.277-.285.725-.187.555-.13.515-.38.657-.222.9-.093.344-.476.934-.187.453-.223.867-.093.48-.316.312-.254.446-.218.345-.38.8-.222.452-.918.657-.38.21-.124.344.54.277 1.526.17.477-.033.702.068.384-.034.13-.21-.093-.412-.16-.31-.286-.21-.317-.278-.093-.447.03-.487.224-.69.224-.414.125-.52.096-.346.157-.317.16-.454.096-.453.347-.31c.285-.11.73-.177 1.334-.21h.764c.285 0 .51.067.633.243l.19.243.13.344v.385l.158.31.13.17.03.413.094.31.41.624-.03.277.125.52.093.245.095.344-.062.697-.22.417-.476.102-.35.21.093.242h.95l.7-.068.727.034h1.302l.285-.243.032-.277-.253-.277-.06-.015zm-4.505-6.267l-.44.14c-.126 0-.255.033-.318.033-.062 0-.317-.033-.763-.102l-.125-.416-.032-.347v-.485l.285-.83.254-.488.13-.244.1-.345.098-.142h.285l.254.137.062.21-.187.38.253.48v.413l.1.413.13.55.03.31-.093.31-.025.025z"/>
      <path d="M100.515 22.412l-.35-.242-.19-.52c-.126-1.422-.412-2.668-.793-3.744l-.285-.277-.253-.177.127-.21c.32-.21.636-.385 1.048-.487.063-.108.16-.277.35-.52.19-.278.317-.488.412-.624.127-.176.222-.345.317-.59l-.062-1.21c-.285-.692-.476-1.11-.572-1.354-.095-.244-.222-.413-.38-.59-.16-.135-.317-.276-.54-.378-.19-.108-.635-.31-1.365-.657h-.35l-.348-.108-1.27-.21-1.237.102-.348.136-.285-.176h-1.142l-.38-.034c-.124.136-.222.31-.253.48.03.143.13.312.254.522.222.136.383.244.445.345.067.102.1.31.13.59l.13.135-.03.657.16 1.246-.093 2.01.03 2.7-.06.692v1.18l.03 1.07-.218.832-.415.52-.447.278-.093.277.633.21 1.302-.21.794.068c.54 0 1.14-.068 1.71-.142l.224-.102-.192-.175-.726-.453-.285-.38-.19-1.59-.157-.31-.187-.177.317-.52v-.42c0-.487-.093-.968-.254-1.455.098-.31.222-.52.347-.59.16-.067.446-.14.825-.175l.67.31.668 1.145.093.968v.59c.1.276.16.554.29.83.1.278.224.624.416 1.037.155.413.284.725.347.934l.41.452.602.31.855-.588.38-.73.19-.42-.73-.14-.03.058zm-2.22-6.44l-.73.623-.952.105-.16-.074-.385.034-.415-.244-.223-.244V14.48c0-.142 0-.244-.067-.277-.03-.068-.16-.102-.317-.142l.03-.31.126-.31.187-1.18c.155-.276.284-.486.41-.554.124-.108.316-.142.632-.176.156.034.348.102.57.136.188.068.35.102.473.136.38.345.633.69.825 1.002.156.345.285.76.317 1.246.125.38.156.623.156.69 0 .07 0 .177-.062.414l-.13.102-.316.69.03.026z"/>
      <path d="M84.08 23.243l.413.14 1.334-.143.415.034c.477-.142.856-.38 1.142-.69.285-.346.51-.765.7-1.32v-.69l-.155-.21.414-.935.03-.59.032-.832-.218-1.212c0-.244 0-.385-.03-.487.03-.664.098-1.18.16-1.524l-.125-.487-.03-.414v-.793c-.032-.277-.032-.487-.063-.657 0-.176-.03-.31-.093-.453-.03-.142-.156-.277-.285-.42-.156-.1-.348-.21-.633-.344l-.41-.143-.094-.345.254-.244h.477l1.432-.034.19.136.447.102c.57-.176 1.08-.244 1.463-.244l.093.244v.447c-.13.135-.317.243-.54.344-.223.068-.41.204-.51.38-.124.21-.253.554-.316 1.075l-.125.486c0 .9-.062 1.59-.192 2.078v.934l.13 1.144v1.002l-.03.48v.8l-.032.554-.125.76-.128 1.11c-.223.344-.477.656-.763.9-.254.243-.51.412-.732.554-.223.142-.633.345-1.204.657l-1.775.135h-1.395c-1.778-.074-2.953-.866-3.523-2.356l-.096-1.11v-.69l-.13-1.733v-.69c-.093-.278-.16-.59-.192-.935.03-.383.097-.73.13-1.007 0-.106-.03-.244-.03-.418-.032-.21-.063-.345-.063-.416.032-.384.094-.763.22-1.177v-.906l-.19-.623c-.1-.31-.162-.555-.224-.76l-.794-.378-.192-.623.218-.277h.732c.285 0 .7 0 1.24.04h1.142l.697.108.378.068h.51l.253.068.032.35-.16.312c-.32.034-.54.074-.637.074-.127.034-.223.108-.35.277l-.22.108-.223-.033c-.125.142-.187.345-.254.59.1.344.13.588.13.69-.158.42-.254.73-.285.974 0 .103.03.21.062.312.03.142.062.31.16.59l-.13.276c.03.108.03.277.03.555 0 .176 0 .42-.03.73-.032.346-.032.556-.032.726l.062.378v.866l-.093.934c.158.793.317 1.382.444 1.8.13.38.348.76.633 1.105.284.345.73.657 1.3.968l.385-.033-.035-.024z"/>
      <path d="M73.324 20.75v.104l-.16.9c.128.52.286.866.477 1.108.188.242.504.485.95.762l.157.38-.192.17h-.54l-.348-.107-2.034-.034c-.67.068-1.142.136-1.494.277l-.255-.277v-.277c.125-.142.285-.277.477-.453.187-.142.317-.277.41-.42.093-.14.16-.31.192-.554l.03-.556-.06-.38v-.276l.06-.413-.03-.385-.067-1.665.03-2.146.032-.245v-1.092l-.193-.52v-.623c.03-.105.03-.31.03-.555.032-.242.032-.415.063-.52l-.223-.52-.1-.452c-.222-.277-.476-.485-.793-.657l-.384.068-.192.14c-.348.1-.602.24-.794.378-.16.138-.317.38-.415.69l-.224.14-.223.312-.322.277-.316-.135v-.244l.062-.243.03-.59-.03-.344.03-.31-.222-.658v-.278c.223-.103.38-.173.51-.173h.222c.093.034.192.034.254.034l.794.31c.062-.033.218-.067.472-.137.254-.067.38-.138.44-.138h.38l.664.14.38.033.725.21c.54-.174.89-.277 1.017-.347l1.268-.068h.445l.38.136.472.102c.125 0 .348-.034.602-.108.284-.034.505-.068.694-.102.16-.034.32-.034.477-.034l.094.515-.41 1.313v.975l-.285.176-.35-.102c-.158-.59-.317-.968-.475-1.212-.13-.21-.415-.45-.825-.69-.032 0-.16.033-.415.067-.093 0-.223-.034-.41-.07-.192-.035-.322-.035-.415-.035h-.184c-.062.034-.125.034-.156.034l-.127.52.03 2.147.034.31-.062.312v1.212l.062.45v.935l-.03.243-.032.727.093.31.062 1.247.093.243-.067.415.093.313.064.01z"/>
      <path d="M61.49 19.123l.094.762v.623l-.16.38-.03.485.03.658.19.21.128.346 1.142.415 1.3.105.382-.07h.857l.35-.31.317-.728.127-.208.095-.45.413-.278.38.242-.127.59.127.31v.38l-.063.278v1.073l-.127.173-.825.104h-1.3l-.572.034h-2.506s-1.296-.034-1.65-.034h-.666l-.507.07h-.51l-.475-.105-.158-.242.158-.31.793-.59.285-.415.032-.45v-.762l.064-.416.157-.277-.032-.52-.285-.968v-.45l.16-.624.03-.9v-.277l-.094-.07-.063-.484.032-.485.222-.623v-.727l-.095-1.004v-.658l.032-.277v-.416l-.254-.485-.698-.52-.158-.38.032-.346.38-.034.477.035.476.105h.443l.635.035.762-.208.73.07.476-.036.222.138-.095.277-.635.486-.254.346-.127.52-.19.415v1.177l-.032.554v.52l-.318.83.286.208.127.242.032.207-.095.243-.063 1.177.032.97.153.348z"/>
      <path d="M49.718 23.243l.413.14 1.335-.143.415.034c.477-.142.856-.38 1.142-.69.254-.346.51-.765.7-1.32v-.69l-.155-.21.415-.935.03-.59.032-.832-.218-1.212c0-.244 0-.385-.03-.487.03-.664.098-1.18.13-1.524l-.094-.487-.03-.414v-.793c-.032-.277-.032-.487-.063-.657 0-.176-.032-.31-.094-.453-.062-.142-.156-.277-.285-.42-.155-.1-.347-.21-.632-.344l-.41-.143-.125-.345.285-.244h.477l1.432-.034.192.136.445.102c.57-.176 1.08-.244 1.458-.244l.093.244v.447c-.125.135-.317.243-.54.344-.218.068-.41.204-.54.38-.093.21-.218.554-.285 1.075l-.124.486c0 .9-.062 1.59-.187 2.078v.934l.13 1.144v1.002l-.032.48v.8l-.03.554-.126.76-.13 1.11c-.223.344-.472.656-.758.9-.254.243-.51.412-.726.554-.218.142-.633.345-1.204.657l-1.775.135h-1.402c-1.776-.074-2.95-.866-3.52-2.356l-.1-1.105v-.696l-.13-1.734v-.69c-.1-.278-.16-.59-.192-.935.03-.382.095-.73.128-1.005 0-.102-.03-.244-.03-.413-.032-.21-.063-.35-.063-.418.032-.385.1-.764.224-1.178v-.91l-.187-.623s-.16-.554-.223-.762l-.83-.38-.16-.623.186-.277h.763c.285 0 .695 0 1.204.04h1.173l.664.108.41.068h.51l.253.068.03.35-.155.31c-.317.034-.54.07-.67.07-.098.034-.19.104-.32.277l-.218.105-.22-.036c-.126.135-.19.344-.255.588.098.345.13.59.13.69-.162.414-.255.726-.286.97 0 .1.03.203.062.31.03.136.062.31.158.59l-.13.276c.03.102.03.277.03.55 0 .17 0 .412-.03.724-.03.345-.03.555-.03.725l.06.38v.865l-.095.934c.16.793.318 1.382.444 1.8.13.38.35.76.637 1.105.286.345.733.657 1.303.968l.384-.034-.04.013z"/>
      <path d="M42.547 14.31l-.16-1.107-.06-.45-.318-.31-.286-.52c-.44-.382-.763-.66-.95-.797-.187-.14-.44-.277-.695-.38l-.546-.104-.825-.21-.667-.034-.825.104-.35-.14h-.443l-.38-.073-.572.17-1.08-.07-.506.07-.35.276.128.345c.125.137.285.278.44.414.157.17.318.277.41.413l.126.76v.378l-.06.272v1.937l.03.38-.16 1.007.092.278-.032 1.282v.38l.125 1.21-.1.346-.03.623.03.412v.832l.032.413-.03.277c-.13.136-.318.272-.54.48-.224.244-.385.38-.51.488l-.067.238.38.277.855-.243.348.068c.254 0 .602.034 1.017.068.44.034.758.068 1.012.068l.44.102.286-.277-.1-.413c-.16-.142-.32-.31-.54-.52-.222-.21-.347-.38-.445-.454l-.062-.31.094-.14.03-1.04-.378-.414.03-.385.286-.453.03-.45-.124-.9.093-.52.38-.452.254.068h1.775l.824-.102h.51l1.11-.73.316-.59.51-.447.16-.31-.03-.69.025-.448.042.05zm-1.81.208l-.6.45-.063.798-.695.657-.572.21-.57-.034-.442-.035-.918-.244v-.588l.13-.38-.156-.792v-.522l.13-.382.13-.934-.254-.97.16-.312 1.335-.07c.16.035.348.106.602.21.285.104.477.173.602.208l.285.277.285.31-.03.52.13.52.347.42.192.31v.386l-.028-.012z"/>
      <path d="M27.317 16.526l.762-.104.475-.244.285-.142.254-.453.444-.487.285.068.095.657-.03.482-.126.345.16 1.903-.347.345-.503-.38-.156-.452-.794-.277-.54-.42-.57-.1-.35.1-.03.38.16.413.1.622-.218.968.093.31v.414l.1.38-.094.865.16.967.67.623.664.034.638-.102.254-.142.476-.034.477-.142.6-.758.126-.45.41-.73.38-.14.223.135.03.9-.183.25.16 1.008-.06.59-.352.412h-.675l-2.316-.068-.54.102-1.904-.176-.7.068h-1.6l-.54-.277.064-.278.445-.277.445-.277.285-.38.093-.48.062-1.178.033-.97-.03-.385.06-.657-.03-.487v-.644l.223-.31v-.418l-.254-.42.098-.622-.062-.345.062-.588.16-.52.193-.522c-.03-.208-.06-.45-.092-.727-.03-.31-.093-.657-.125-1.076l-.125-.42-.887-.746-.378-.378.16-.345.51-.074 1.08.136.6.135.894-.176.51.04.445-.035.696-.102.633.068h.508l.51.21.76-.066.54.034.634.345.19.242.19 1.35-.092.52-.254.07-.413-.417-.222-.485L29.8 11.3l-.38-.103-.696.173-.38-.208-.54-.14h-.41l-.378.177-.125.483.13.554.098.52-.317 1.11.193.727.03.485-.092.414v.484l.094.42.317.14-.023-.012z"/>
      <path d="M13.07 21.027l-.158-.173.063-.45.318-.173.507.312.127.554.35.242.158.31c.384.243.732.52 1.08.832.352.277.668.485.892.59.254.137.67.24 1.24.344.192-.034.446-.104.763-.207.317-.104.54-.173.67-.208.284-.382.508-.694.637-.935.13-.208.223-.485.254-.832-.092-.415-.186-.83-.222-1.212l-.363-.206c-.285-.174-.726-.45-1.297-.866-.57-.416-.918-.658-1.08-.762l-.092-.347-.348-.105-.825-.104-.187-.103c-.03 0-.093 0-.156.034-.125 0-.223-.033-.285-.103-.062-.034-.192-.14-.348-.31l-.38-.103-.378-.347c0-.208-.063-.45-.126-.658l-.187-.728c-.093-.242-.125-.485-.125-.693.03-.278.062-.454.062-.522 0-.142 0-.21-.03-.244.035-.42.13-.866.352-1.353l.348-.384.285-.697c.6-.482 1.265-.794 1.935-.97.638-.163 1.4-.265 2.257-.265 1.65 0 2.57.244 2.792.693l.096.485-.095.207v.38l.353.867-.062 1.002-.218.135c-.254-.21-.44-.385-.54-.555-.125-.176-.218-.385-.285-.697-.218-.142-.503-.38-.887-.657-.38-.31-.633-.487-.726-.555l-.57-.174h-.572c-.7 0-1.24.103-1.62.38-.414.243-.7.727-.923 1.42v.623l.192.518.38.244.316.31 3.11 1.697.317-.07.127.143.254.277.667.59.16.452c.633.9.983 1.835 1.046 2.877-.093.418-.254.933-.475 1.556l-.223.277c-.223.38-.476.657-.698.832-.222.21-.57.413-.983.59h-.254c-.317.1-.794.21-1.365.31-.602.102-.955.176-1.08.21l-1.078-.04c-.602-.413-1.365-.623-2.22-.69l-.54-.346-.094-.522v-.69l.062-.59-.067-.31v-.346l-.007.005z"/>
    </g>

    <g class="sepultura__hands">
      <g>
        <path d="M74.675 72.19s-1.085-5.405-2.563-9.427c-.35-.95-.173-3.36-.412-5.842-.064-.664.332-2.49 1.367-3.243 1.035-.753 3.704-3.993 3.67-8.243-.01-1.084 2.017-1.13 2.017-2.33 0-1.79-1.158-2.302-1.158-3.11s1.613-1.96 1.613-2.795-.315-5.323-4.32-4.813c.188-1.02-1.73-3.118-4.095-3.52-.995-1.874-4.47-4.347-6.693-2.77-1.756-1.935-3.432-1.856-5.26-1.426s-5.495 2.417-5.71 5.25c-1.638 1.282-3.104 1.735-3.273 4.077-.054.733.372 2.128.372 3.367s-.584 2.193.088 3.607c.418.88 1.954 3.226 1.918 4.266-.036 1.04-.68 3.01-.358 3.656.323.645 1.398 2.294 1.613 3.154.215.86-.143 2.545-.143 3.87s.645 3.263.645 4.338-1.613 8.853-1.434 10.717c.18 1.864 22.115 1.22 22.115 1.22z"/>

        <g class="sepultura__hands__light">
          <path d="M76.843 41.016c.358 0 .726 1.774.726 2.258S76.26 44.7 74.996 44.7c1.497 1.42.7 3.66-.68 5.778-1.34 2.056-3.81 4.272-4.966 4.272-.877 0 1.543-1.052 2.87-2.74 1.38-1.756 2.768-4.14 2.768-5.35s-1.478-2.768-1.37-3.01c.107-.242 2.597.027 3.404-.35.806-.375-.493-.546-1.353-.796-.357-.104.353-.364.608-.668.362-.43.384-.82.565-.82z"/>
          <path d="M52.346 41.634c0-.61.01-1.048.076-1.478-.376-.282-.954-1.02-1.102-1.37-.094.684.345 2.284 1.026 2.848z"/>
          <path d="M52.937 38.982c.25-.717.484-1.362.896-2.08-1.11-1.003-1.443-1.952-1.41-2.472.03-.52.28 1.075 1.858 1.487.45-.735 1.112-1.702 1.542-1.97-.538-1.005-1.048-3.803-.398-3.55.21.082.11 1.21 1.084 2.662.242-.216.748-.69.91-.69 0-1.058.764-3.798 1.45-3.818.315-.01-.41 1.11-.34 3.047.45-.234 1.56-.037 1.92.214-.216-.61-.162-1.057-.162-1.057l.914.072s-.77-1.238-1.04-1.345c.897-.054 1.04-.054 1.215-.013-.296-.51-1.304-1.52-1.935-1.546 1.478-.202 2.796.444 3.172.66-.43-1.036-1.317-2.125-1.788-2.125s-.927.888-1.317.902c-.39.013-.766-.645-1.02-.645-.256 0-1.44 1.035-1.533 1.532s.08 1.303-.27 1.303-1.858-1.548-2.062-1.47c-.33.126-.867 1.618-.867 2.774s.282 2.607.134 2.728-.82-1.707-.807-2.27c-.66.483-2.03 1.894-2.03 3.144s1.002 3.442 1.884 4.522z"/>
          <path d="M64.604 33.068c.61-.125 1.828-.394 2.366.287.538.68.753 1.935.717 2.348.233-.932.376-2.092-.59-2.793.41-.128.698-.195 1.074 0-.25-.773-.913-1.56-1.522-1.56 1.093-.36 2.885.68 3.495 1.218.018-1.292-.125-3.047-.287-3.315-.16-.27-3.423-2.043-4.283-1.81-.86.233-.34 1.756-.34 2.83-.002 1.863-.486 1.648-.63 2.795z"/>
          <path d="M67.502 38.247s-.968 1.21-2.473 1.156c1.29-.577 1.706-1.344 2.472-1.156z"/>
          <path d="M71.342 30.326c.79.108 2.294 1.47 2.545 1.97.25.503.466 2.187.394 2.76-1.218-1.038-2.4-1.576-2.597-1.146-.197.43.27 1.72.108 1.882s-1.056-.054-1.11.233.108.968 0 1.057-.77-.09-.806.16.308.73.27.976c-.037.244-1.024.19-.98.334.046.143.817 1.13 1.157 1.272-1.003-.305-1.8-.67-1.934-.59-.52.304 1.165 1.164 1.56 1.343-.288.358-.973.475-1.26.44.233-.28.577-.315.48-.44-.1-.125-.995-.27-1.48-.645-.447.376-1.755.878-2.347.735 2.034-1.04 3.347-1.71 5.5-5.448.61-1.06.59-3.28.502-4.894z"/>
          <path d="M75.177 33.66c.125.627.18 1.953-.16 2.42-.34.465-3.048 4.64-4.48 5.304.698.663 2.58 1.953 3.494.627-1.083.046-1.72-.74-1.594-.987.125-.248.878.47 1.523.272-.45-.466-1.13-.986-1.13-1.147 1.004.036.986-.018 1.29-.233-.305-.233-.556-.61-.573-.932.824.125 1.29.188 1.47.018.16-.67-.36-1.307-.377-1.486s1.43.4 1.25.184c-.18-.215-.65-1.087-.57-1.15.557-.436 1.565.85 2.344.707.78-.143.59-.914-.336-1.066-.706-.117-1.774-.377-1.65-.825s1.72.376 2.062.18c.34-.2-.466-2.226-2.563-1.885z"/>
          <path d="M63.59 33.84c1.103.16 1.56-.22 2.15-.22.592 0 1.022 1.267 1.022 2.423s-2.07 2.527-4.153 2.527-4.136-1.147-4.405-1.434c.18.753.358 1.075.735 1.272-.627.27-.95.376-1.344.403.43.315 1.165.71 2.348.458-.448.735-2.58.79-3.602.34.86 1.237 2.222 1.846 4.39 1.11-.09 1.578-.626 2.474-1.2 2.886.502.09.9.072 1.142-.063-.242.565-.444.982-.7 1.278.592 0 1.372-.296 1.775-.43-.297.685-.803 1.384-1.117 1.483.53.055 1.11-.062 1.353-.124-.287.618-.78 1.21-1.066 1.263.735.08 1.935-.135 1.998-.252-.152.42-.53 1.21-.806 1.326.61.063 1.335.027 1.676-.125-.143.34-.466 1.065-.708 1.244.547 0 1.308.116 1.505 0-.287.53-.78 1.254-1.138 1.416.753.09.77.17 1.254.116-.17.52-.492.85-.716.887.546.188.672.278 1.066.18-.01.33-.43 1.343-.52 1.46 3.764-1.546 4.274-6.864 2.97-10.18 1.42 1.47 2.084 4.553 2.102 5.45.323-1.435.265-4.14.213-4.535 1.006.573 1.22 1.326 1.884 1.738-.467.43-.843.627-1.166.627.7.753 1.237 1.487 2.222 1.81-.412.126-1.11.126-1.11.126s.59 1.056.43 1.88c-.825-.394-1.13-.52-1.703-.502.16.79.25 1.487.072 1.953-.63-.447-1.398-.788-1.846-.734.286.95.214 1.54.107 1.935-.806-.483-1.434-.59-1.702-.537.484.968.538 1.523.412 1.846-.125.322-1.63 1.522-2.222 1.63-.59.108-1.452-.287-1.774-.233s-1.504 1.47-4.46 1.04c1.056.93 1.128 1.11 2.024 1.307-.663.358-1.04.556-1.434.59.896.736 1.702.95 2.133 1.022-.16.27-.753.484-1.237.502 1.075.663 2.168.968 2.563 1.04-.34.304-.97.286-1.255.34.717.555 1.093 1.11 1.165 1.325-.735.108-.753.215-1.057.18.68.52 1.613 1.397 1.72 1.81-.663-.11-.968-.09-1.147 0 .233.644.86 1.558 1.02 2.078-.537-.178-1.164.126-1.164.126s1.004 1.452.627 1.487c-.377.036-1.65.054-2.134.16-.484.11-1.72-.107-1.918-1.164 1.04.483 1.613.322 2.097.286C60.375 66.913 59.46 66 59.46 66l1.65-.037-1.38-1.22 1.415-.214s-2.348-1.345-2.58-1.74c1.074.055 1.827-.447 1.917-.716-1.38 0-4.265-1.47-4.713-2.437-.08 1.042.248 2.18.312 3.546.04.82-.018 1.718-.313 2.726-.557-.377-.88-.933-.88-1.72 0-.79.377-1.668.377-2.67 0-1.005-1.54-6.04.412-6.56-.02 1.56.34 3.96.93 4.856-.053-2.957-.07-4.928.18-5.376.645.968 2.007 1.434 3.136 1.057-1.56-.448-3.315-1.738-3.118-2.652 1.452 1.272 2.168 2.147 3.943 1.898 1.775-.25 1.883-.393 2.17-.34.286.055 1.236.646 2.167.467-1.02-.59-1.792-1.326-2.455-1.326s-.806.412-2.85.305c-1.252-.067-1.612-1.668-2.024-2.15-.412-.485-4.32-2.986-4.39-3.823s.895-2.217.895-2.808c0-.592-.824-1.148-.824-3.442s2.74-6.882 3.995-7.94c-.054 1.38.502 1.703 1.04 2.008-.36-1.13-.296-3.405.895-3.405.7 0-.054 1.56-.054 2.384s.323 2.366 2.33 2.706c-.502-.466-.314-1.304-.314-1.304.363.726 1.626 1.062 2.298.847-.712-.497-.806-.82-.712-1.008.605.578 1.72.712 2.11.444-1.222-.686-1.84-1.19-1.437-2.52z"/>
        </g>
      </g>

      <g>
        <path d="M90.05 80.29c2.058-6.31 2.195-9.716 2.17-12.545-.01-1.126.674-2.128 1.2-3.943.22-.757.615-1.715 1.718-2.134 1.884-.715 4.143-2.086 5.307-5.088.297-.765 1.635-.266 1.97-1.11.502-1.262-.08-1.87.144-2.438.225-.568 1.45-.78 1.684-1.367.233-.586 1.456-4.162-1.505-4.923.417-.666-.42-2.567-1.972-3.512-.176-1.596-2.42-4.216-4.426-3.727-.415-1.305-1.244-2.062-2.64-2.334-1.072-.21-1.62.12-2.804.307-.78.124-1.083-.8-1.726-.545-.837.33-1.037 1.658-1.485 1.962-.448.305-2.33.036-3.37 2.025-.257.492-.338 2.01-.685 2.882-.347.872-1.024 1.38-.947 2.564.048.736.473 2.816.157 3.538-.316.72-1.32 1.928-1.275 2.473s.342 2.005.253 2.67c-.09.667-.813 1.752-1.184 2.685-.37.933-.458 2.476-.76 3.233-.17.43-1.723 2.66-3.05 5.313-.42.84-2.15 2.3-2.902 3.907C73.32 71.465 90.05 80.29 90.05 80.29z"/>

        <g class="sepultura__hands__light">
            <path d="M101.857 53.46c.252.1.015 1.452-.12 1.792-.136.34-1.32.637-2.21.283.657 1.418-1.05 3.126-2.614 4.23-1.518 1.073-3.875 1.943-4.69 1.62-.617-.247 1.38-.31 2.786-1.127 1.46-.85 2.91-2.246 3.444-2.99.737-1.028.253-2.716.397-2.856.144-.14 1.822.746 2.495.706.673-.04-.297-.298-.832-.715-.222-.173.454-.38.718-.524.375-.202.5-.47.627-.42z"/>
            <path d="M83.924 47.032c.17-.43.3-.735.467-1.02-.185-.303-.385-.985-.39-1.272-.26.456-.398 1.704-.076 2.292z"/>
            <path d="M85.082 45.207c.377-.434.722-.823 1.212-1.212-.5-1.017-.47-1.778-.3-2.135.166-.357-.103.836.89 1.567.522-.392 1.26-.887 1.637-.956-.097-.856.327-2.968.714-2.608.125.116-.26.883.018 2.177.23-.085.72-.277.833-.232.296-.744 1.6-2.46 2.09-2.28.222.08-.602.667-1.093 2.05.38-.04 1.107.41 1.29.687.018-.49.18-.79.18-.79l.624.307s-.196-1.086-.356-1.237c.646.213.747.253.858.33-.065-.442-.493-1.434-.93-1.63 1.097.273 1.843 1.095 2.048 1.352-.013-.85-.333-1.863-.664-1.995-.33-.132-.9.365-1.18.265-.277-.1-.358-.668-.537-.74-.18-.07-1.302.326-1.507.65-.205.324-.308.94-.554.842-.246-.1-.875-1.61-1.04-1.613-.268-.004-1.064.896-1.387 1.71-.323.813-.53 1.914-.67 1.958s-.1-1.43.07-1.824c-.6.157-1.96.767-2.31 1.647-.347.877-.254 2.703.065 3.71z"/>
            <path d="M95.31 44.316c.464.082 1.397.234 1.585.863s-.012 1.572-.152 1.852c.425-.59.85-1.367.365-2.13.326.024.546.057.757.3.04-.614-.206-1.354-.635-1.525.87.054 1.84 1.286 2.12 1.835.373-.904.763-2.18.725-2.413-.038-.235-1.32-2.325-2.508-2.473-.67-.083-.73 1.14-1.032 1.898-.523 1.31-.804 1.024-1.225 1.79z"/>
            <path d="M95.683 48.937s-1.02.58-2.064.122c1.07-.047 1.577-.47 2.063-.123z"/>
            <path d="M100.82 44.346c.524.296 1.202 1.676 1.24 2.1.035.422-.285 1.668-.495 2.052-.567-1.072-1.25-1.782-1.508-1.534-.26.248-.292 1.286-.45 1.354-.16.068-.73-.334-.848-.147-.12.188-.196.712-.297.745s-.517-.28-.613-.112c-.095.167.012.6-.082.76-.095.162-.774-.15-.782-.038-.008.114.258 1.023.458 1.22-.62-.496-1.08-.976-1.197-.96-.45.07.494 1.147.72 1.383-.3.172-.816.062-1.008-.043.24-.13.493-.06.46-.175s-.625-.467-.86-.867c-.422.14-1.483.127-1.86-.14 1.724-.162 2.836-.268 5.397-2.295.725-.573 1.334-2.142 1.722-3.302z"/>
            <path d="M102.63 47.803c-.087.477-.42 1.425-.79 1.658s-3.442 2.415-4.637 2.48c.306.663 1.27 2.098 2.284 1.42-.776-.272-1.004-1.002-.846-1.142.16-.14.488.575.997.617-.185-.453-.52-1.01-.474-1.123.696.306.7.263.973.197-.15-.25-.22-.585-.143-.817.545.32.856.493 1.03.424.3-.428.113-1.02.15-1.152.038-.13.894.68.828.48-.065-.202-.153-.948-.077-.97.513-.15.862 1.036 1.45 1.154s.673-.48.063-.845c-.464-.28-1.143-.76-.93-1.04s1.106.745 1.4.702c.296-.047.295-1.697-1.276-2.044z"/>
            <path d="M94.006 44.694c.73.422 1.158.283 1.574.448.416.165.365 1.177.04 1.99s-2.163 1.2-3.63.617c-1.465-.584-2.484-2.007-2.593-2.284-.084.58-.05.857.16 1.1-.516.015-.773 0-1.058-.09.214.34.62.823 1.523.977-.52.392-2.037-.167-2.63-.768.26 1.11.925 2.026 2.657 2.116-.504 1.086-1.133 1.566-1.652 1.696.328.203.614.302.822.275-.328.33-.587.567-.85.704.417.165 1.05.175 1.37.194-.4.4-.952.75-1.2.732.357.186.8.267.987.29-.375.355-.887.633-1.104.59.495.263 1.4.448 1.476.383-.226.254-.71.703-.94.708.412.216.933.393 1.215.38-.196.2-.626.62-.847.68.385.153.888.448 1.06.42-.35.293-.87.964-1.167.977.506.274.496.335.85.433-.264.318-.584.46-.752.424.332.285.395.383.7.424-.1.23-.52.53-.615.587 3.03-.448 4.84-3.19 5.1-6.254.588 1.432.238 3.505 0 4.14.814-.77 1.314-2.484 1.387-2.776.547.685.488 1.275.84 1.75-.45.172-.77.206-.996.116.28.725.454 1.393 1.058 1.895-.325-.027-.817-.222-.817-.222s.12.91-.224 1.444c-.47-.508-.648-.682-1.057-.83-.107.6-.575 1.263-.832 1.54-.316-.49-.426-1.09-.757-1.178-.064.748-.28 1.144-.466 1.39-.432-.565-.844-.816-1.048-.854.07.816-.385 1.368-.563 1.56-.18.192-1.574.616-2.02.526s-.94-.608-1.183-.66c-.242-.052-1.47.613-3.43-.517.482.952.553 1.103 1.128 1.492-.567.067-.957.095-1.244.01.425.768 1.163 1.096 1.446 1.267-.19.144-.896.18-1.24.056.57.767 1.254 1.288 1.512 1.448-.325.12-.76-.07-.978-.11.35.59.46 1.087.45 1.258-.548-.13-.59-.06-.795-.17.334.556.744 1.435.704 1.755-.437-.26-.656-.333-.807-.32-.017.52.205 1.492.173 1.903-.328-.277-.89-.392-.89-.392s.4 1.803.124 1.723c-.275-.08-1.343-1.205-1.645-.983-.424.31-.518 2.233-.6 4.1-.21-.157-.765-.38-.86-.953-.17-1.034.404-2.796.437-4.503.595.63 1.044.678 1.394.788-.206-.695-.593-1.594-.593-1.594l1.17.436-.63-1.244 1.058.245s-1.276-1.603-1.33-1.945c.742.34 1.412.196 1.55.032-.97-.386-2.647-2.295-2.692-3.1-.347.71-.378 1.672-.715 2.65-.2.587-1.603 3.308-2.093 3.935-.286-.42.754-3.005.974-3.56.222-.555.732-1.068 1.013-1.774s.687-4.764 2.208-4.583c-.63.957-.95 2.965-.784 3.76.79-2.095 1.328-3.487 1.63-3.733.183.862 1.012 1.57 1.91 1.62-.97-.75-1.846-2.15-1.452-2.738.666 1.3.925 2.117 2.244 2.438 1.318.32 1.434.25 1.62.368s.69.8 1.397.934c-.553-.702-.89-1.435-1.357-1.62-.467-.185-.683.065-2.09-.583-.864-.397-.67-1.624-.825-2.08s-2.204-3.31-2.02-3.918 1.25-1.31 1.415-1.727c.165-.416-.26-1.038.382-2.652.642-1.613 3.946-4.48 5.125-4.872-.424.956-.228 1.38.066 1.746.065-.895.746-2.48 1.584-2.146.492.195-.474 1.082-.705 1.662-.232.58-.436 1.755.882 2.556-.223-.468.144-1.005.144-1.005.052.613.848 1.203 1.38 1.24-.36-.55-.337-.803-.218-.91.264.577 1.012.984 1.36.903-.664-.827-.958-1.355-.302-2.18z"/>
            <path d="M78.026 68.273s-.282 1.263-.605 1.263c-.322 0 .055-1.035.135-1.102.08-.067.202-.537.47-.16z"/>
        </g>
      </g>

      <g>
        <path d="M94.084 87.16c2.913-3.682 3.84-5.91 4.518-7.793.27-.75.97-1.247 1.765-2.322.33-.448.83-.987 1.664-.994 1.427-.01 3.262-.367 4.77-2.073.386-.435 1.152.225 1.582-.253.642-.714.404-1.26.693-1.582.29-.32 1.155-.162 1.453-.494.3-.332 1.988-2.405.21-3.636.44-.34.352-1.806-.446-2.815.275-1.102-.572-3.392-2.022-3.56.045-.968-.32-1.674-1.18-2.197-.66-.402-1.105-.32-1.936-.484-.548-.11-.522-.796-1.012-.786-.636.014-1.095.845-1.467.938-.372.092-1.555-.548-2.733.517-.292.264-.72 1.25-1.163 1.744-.445.493-1.02.663-1.26 1.468-.148.5-.376 1.985-.763 2.386s-1.35.955-1.453 1.328-.265 1.415-.488 1.834-.97.962-1.444 1.49c-.475.53-.912 1.532-1.297 1.96-.22.243-1.797 1.343-3.328 2.777-.486.455-1.992 1-2.886 1.88-.712.704 8.224 10.666 8.224 10.666z"/>

        <g class="sepultura__hands__light">
          <path d="M108.505 72.254c.143.128-.347.967-.52 1.16-.173.193-1.032.1-1.535-.354.087 1.102-1.464 1.816-2.774 2.166-1.27.34-3.048.337-3.51-.077-.35-.316.992.133 2.126-.065 1.18-.205 2.483-.776 3.02-1.14.742-.5.835-1.74.964-1.797.13-.058 1.026.942 1.482 1.08s-.124-.27-.376-.678c-.105-.17.395-.142.605-.17.297-.044.446-.19.518-.126z"/>
          <path d="M98.182 63.586c.218-.243.38-.414.56-.562-.05-.247-.014-.75.052-.94-.283.24-.68 1.033-.612 1.502z"/>
          <path d="M99.4 62.66c.356-.197.68-.37 1.1-.508-.082-.798.126-1.295.325-1.49.2-.197-.273.528.208 1.258.442-.132 1.053-.28 1.32-.233.145-.592.945-1.89 1.113-1.557.054.108-.39.522-.522 1.45.173 0 .545-.008.61.05.38-.42 1.666-1.24 1.946-1 .128.11-.562.295-1.227 1.092.262.068.634.544.687.773.133-.32.315-.48.315-.48l.338.357s.136-.77.068-.908c.377.3.434.35.49.43.064-.31.024-1.072-.218-1.31.66.45.955 1.18 1.028 1.4.2-.566.236-1.318.05-1.487-.188-.17-.688.02-.848-.113-.16-.134-.074-.532-.176-.623-.102-.09-.944-.102-1.16.062-.216.164-.435.548-.574.423-.14-.125-.186-1.283-.295-1.325-.176-.068-.925.334-1.34.794-.413.46-.82 1.14-.923 1.135-.102-.006.285-.975.493-1.195-.437-.044-1.488.028-1.936.526-.45.498-.836 1.733-.87 2.48z"/>
          <path d="M106.404 64.58c.288.167.87.497.84.96-.03.465-.394 1.042-.556 1.193.427-.288.9-.7.766-1.325.21.097.348.173.428.385.177-.398.195-.95-.047-1.168.564.25.905 1.305.955 1.738.47-.508 1.042-1.26 1.074-1.423s-.306-1.867-1.058-2.256c-.424-.22-.765.578-1.15 1.006-.668.742-.783.483-1.252.89z"/>
          <path d="M105.518 67.737s-.82.135-1.4-.426c.722.233 1.162.077 1.4.427z"/>
          <path d="M110.053 65.95c.276.326.387 1.408.307 1.698-.08.29-.598 1.038-.832 1.24-.113-.85-.39-1.488-.624-1.387-.233.102-.51.783-.632.79-.122.005-.402-.4-.526-.306-.124.095-.304.424-.38.42s-.274-.31-.378-.224c-.104.087-.14.4-.242.485-.102.084-.476-.29-.51-.218-.032.073-.08.742.006.92-.29-.48-.478-.912-.56-.928-.315-.066.048.88.14 1.093-.243.04-.557-.16-.66-.276.193-.027.343.082.35-.003.005-.085-.3-.463-.36-.787-.312-.01-1.013-.28-1.198-.55 1.183.316 1.947.52 4.144-.198.623-.203 1.413-1.094 1.955-1.77z"/>
          <path d="M110.406 68.69c-.175.294-.63.84-.93.905-.304.064-2.878.757-3.687.508.04.515.327 1.703 1.166 1.502-.448-.37-.42-.91-.28-.965.138-.054.18.5.508.654-.01-.346-.097-.797-.04-.862.388.374.4.346.598.37-.038-.202-.003-.442.106-.577.283.345.447.537.58.534.304-.21.325-.65.382-.728.057-.078.426.67.432.52.006-.15.13-.665.186-.662.377.026.318.9.68 1.122.362.222.563-.152.248-.545-.24-.3-.572-.786-.36-.92.21-.133.55.767.756.81.207.044.61-1.052-.346-1.668z"/>
          <path d="M105.446 64.51c.38.46.7.472.935.684.237.212-.046.87-.46 1.33-.414.46-1.73.266-2.56-.48s-1.157-1.942-1.16-2.153c-.2.365-.244.558-.164.77-.346-.117-.513-.19-.68-.32.06.28.21.7.77 1.023-.44.132-1.31-.61-1.556-1.155-.1.8.116 1.572 1.244 2.056-.6.596-1.136.76-1.512.72.168.215.333.35.478.383-.3.138-.528.232-.736.258.236.212.652.374.86.464-.362.166-.815.263-.975.19.19.21.464.373.583.435-.336.144-.744.203-.878.12.264.296.82.64.886.617-.21.113-.643.292-.796.24.22.242.522.488.712.55-.18.084-.568.258-.728.242.218.196.48.515.6.54-.304.107-.813.425-1.013.36.268.306.246.345.458.497-.254.147-.5.163-.603.097.15.27.168.35.36.454-.12.13-.474.225-.55.24 2.12.445 3.993-.93 4.92-2.9.038 1.095-.703 2.385-1.017 2.748.73-.312 1.482-1.327 1.602-1.502.195.59.01.966.127 1.368-.34.004-.56-.052-.69-.168.01.55-.04 1.036.238 1.517-.21-.098-.488-.348-.488-.348s-.143.633-.503.904c-.188-.453-.265-.613-.5-.81-.217.37-.69.695-.93.817-.09-.404-.015-.83-.212-.968-.226.48-.467.69-.65.81-.15-.483-.36-.75-.487-.825-.153.56-.59.814-.755.897-.166.084-1.196.022-1.47-.147-.274-.17-.476-.634-.623-.73-.148-.093-1.126.047-2.15-1.184.087.75.097.87.383 1.268-.393-.095-.658-.172-.828-.3.094.615.503 1.014.648 1.197-.16.05-.638-.1-.837-.268.19.65.517 1.163.648 1.332-.245-.002-.488-.234-.622-.315.086.478.037.834-.01.946-.332-.22-.378-.183-.486-.307.085.45.142 1.135.037 1.338-.226-.28-.353-.382-.457-.41-.138.34-.23 1.04-.352 1.305-.15-.264-.495-.48-.495-.48s-.176 1.295-.34 1.175c-.162-.12-.594-1.13-.85-1.056-.358.102-.892 1.355-1.404 2.575-.1-.158-.415-.442-.337-.845.14-.728.953-1.756 1.394-2.88.24.564.527.706.732.865.034-.512-.002-1.203-.002-1.203l.67.577-.113-.98.642.422s-.454-1.377-.405-1.617c.41.406.89.476 1.02.4-.55-.494-1.192-2.172-1.024-2.718-.405.387-.662 1.017-1.125 1.584-.278.34-1.877 1.802-2.356 2.097-.086-.35 1.238-1.81 1.52-2.123.283-.314.747-.53 1.107-.93s1.625-2.99 2.59-2.498c-.655.48-1.36 1.734-1.445 2.303 1.038-1.197 1.738-1.99 1.998-2.077-.09.617.286 1.29.87 1.545-.46-.737-.698-1.88-.292-2.174.123 1.026.095 1.63.89 2.168.797.537.89.518.986.642.095.124.26.7.697.963-.195-.602-.24-1.17-.503-1.408-.264-.238-.47-.125-1.244-.9-.475-.475-.045-1.242-.036-1.582s-.65-2.737-.38-3.096c.272-.36 1.152-.562 1.364-.798.212-.237.083-.753.905-1.667.82-.914 3.717-2.004 4.596-1.976-.516.53-.49.86-.385 1.174.263-.577 1.104-1.46 1.578-1.034.278.25-.58.602-.876.93s-.72 1.058-.042 1.913c-.033-.366.342-.633.342-.633-.116.42.267 1.006.612 1.16-.106-.452-.027-.615.077-.656.035.448.43.9.683.934-.24-.716-.304-1.14.333-1.524z"/>
          <path d="M89.054 76.234s-.497.77-.71.69c-.215-.08.29-.674.36-.698.07-.025.264-.308.35.008z"/>
        </g>
      </g>

      <g>
        <path d="M43.24 75.857c-2.217-5.198-2.588-8.078-2.778-10.48-.075-.957-.732-1.756-1.314-3.256-.243-.625-.65-1.408-1.617-1.68-1.65-.467-3.67-1.46-4.882-3.92-.31-.628-1.407-.104-1.756-.796-.52-1.033-.07-1.592-.304-2.057-.234-.465-1.29-.554-1.53-1.034-.243-.48-1.548-3.422.908-4.29-.405-.533.164-2.208 1.41-3.126.03-1.367 1.74-3.758 3.477-3.493.254-1.138.9-1.843 2.065-2.178.895-.257 1.385-.02 2.402.05.67.048.86-.758 1.424-.59.734.217 1.004 1.328 1.407 1.553.404.224 1.98-.145 3.01 1.465.257.4.44 1.68.8 2.394.358.713.97 1.093.994 2.103.014.628-.19 2.425.13 3.013.323.588 1.266 1.537 1.268 2.002 0 .465-.14 1.727-.015 2.285.126.558.82 1.425 1.205 2.19.385.763.574 2.065.886 2.685.177.352 1.662 2.13 2.985 4.28.42.682 1.997 1.79 2.755 3.097.606 1.045-12.928 9.782-12.928 9.782z"/>

        <g class="sepultura__hands__light">
          <path d="M31.217 53.978c-.207.104.096 1.233.237 1.51.14.28 1.167.443 1.895.076-.452 1.253 1.124 2.573 2.534 3.394 1.368.796 3.433 1.357 4.1 1.022.506-.255-1.193-.16-2.447-.747-1.304-.612-2.638-1.688-3.146-2.28-.7-.816-.417-2.284-.55-2.393-.13-.108-1.488.77-2.062.786-.574.017.23-.275.652-.67.175-.162-.413-.288-.65-.39-.333-.143-.46-.36-.563-.308z"/>
          <path d="M45.95 47.183c-.176-.35-.308-.6-.472-.83.135-.272.254-.865.238-1.11.253.368.464 1.417.235 1.94z"/>
          <path d="M44.832 45.72c-.352-.34-.674-.643-1.12-.937.35-.9.266-1.544.097-1.834s.148.7-.64 1.395c-.472-.293-1.135-.66-1.46-.69.018-.733-.5-2.493-.8-2.16-.098.11.286.73.147 1.85-.202-.055-.63-.182-.724-.135-.307-.61-1.542-1.966-1.943-1.778-.183.086.56.52 1.08 1.657-.326-.005-.91.43-1.042.68-.053-.414-.214-.657-.214-.657l-.506.306s.085-.937.21-1.077c-.533.23-.615.27-.704.344.022-.38.31-1.253.667-1.452-.91.313-1.48 1.066-1.636 1.3-.052-.722.143-1.606.414-1.743s.792.242 1.02.137c.228-.106.254-.595.4-.67.148-.073 1.13.18 1.328.44s.332.775.533.673c.2-.1.62-1.43.762-1.445.226-.023.968.68 1.304 1.347.335.666.593 1.584.714 1.61s-.023-1.22-.194-1.542c.52.087 1.72.503 2.08 1.224.363.72.422 2.276.226 3.154z"/>
          <path d="M36.088 45.73c-.387.104-1.168.303-1.28.85s.128 1.334.268 1.56c-.404-.468-.824-1.095-.47-1.78-.273.046-.458.09-.62.312-.08-.518.075-1.165.426-1.34-.734.11-1.465 1.228-1.66 1.714-.385-.74-.81-1.792-.796-1.993.015-.202.947-2.07 1.943-2.285.56-.12.704.913 1.016 1.533.54 1.075.757.81 1.172 1.43z"/>
          <path d="M36.117 49.678s.908.416 1.76-.05c-.91.04-1.374-.28-1.76.05z"/>
          <path d="M31.416 46.168c-.423.29-.896 1.512-.895 1.874s.366 1.395.574 1.704c.4-.952.926-1.605 1.165-1.414.237.19.343 1.07.483 1.115.14.046.594-.338.708-.188.115.15.22.588.308.608s.418-.275.51-.14c.094.133.036.51.128.64s.645-.188.66-.093c.016.096-.142.887-.296 1.068.49-.467.844-.908.944-.902.388.026-.333 1.01-.51 1.227.27.123.7-.008.854-.112-.215-.092-.423-.013-.403-.114.02-.1.495-.442.665-.8.367.088 1.267-.002 1.566-.256-1.474-.01-2.425-.015-4.75-1.544-.66-.43-1.294-1.717-1.71-2.672z"/>
          <path d="M30.14 49.236c.11.398.462 1.177.793 1.347.33.17 3.1 1.79 4.12 1.757-.21.585-.92 1.874-1.833 1.375.638-.29.777-.925.632-1.032-.144-.107-.37.525-.8.598.124-.397.366-.894.32-.987-.57.312-.574.275-.812.24.108-.223.143-.512.06-.703-.44.31-.69.482-.84.436-.29-.34-.174-.858-.215-.966-.042-.108-.708.644-.667.468.04-.176.06-.815-.006-.828-.446-.09-.654.944-1.145 1.087-.49.143-.606-.355-.116-.712.374-.272.914-.73.712-.953-.202-.222-.882.716-1.135.7-.253-.014-.375-1.414.932-1.826z"/>
          <path d="M36.902 45.84c-.588.413-.96.328-1.302.5-.34.17-.22 1.025.114 1.69.335.667 1.925.857 3.126.253 1.2-.604 1.958-1.888 2.03-2.13.115.485.105.722-.054.945.44-.027.656-.06.89-.158-.156.306-.465.746-1.22.944.472.293 1.716-.294 2.175-.848-.136.962-.632 1.788-2.095 1.994.51.883 1.078 1.243 1.528 1.314-.263.197-.498.302-.676.295.303.254.54.436.773.532-.34.17-.876.227-1.147.267.37.308.863.564 1.073.53-.29.184-.658.286-.816.32.344.273.8.47.98.42-.4.26-1.153.483-1.223.434.21.198.655.544.85.53-.334.213-.762.403-1.003.414.18.155.578.48.77.512-.316.158-.72.446-.868.436.318.22.81.752 1.062.74-.408.27-.395.323-.69.432.25.25.532.348.67.303-.26.268-.306.356-.56.413.1.188.48.41.565.452-2.603-.154-4.344-2.344-4.795-4.925-.392 1.258.06 2.99.31 3.512-.748-.593-1.3-2.01-1.385-2.252-.413.622-.32 1.118-.58 1.548.392.113.666.117.852.024-.184.636-.28 1.216-.756 1.687.273-.048.676-.25.676-.25s-.034.78.298 1.208c.36-.466.5-.627.835-.783.135.5.582 1.028.82 1.244.233-.442.28-.96.555-1.058.11.63.323.95.5 1.146.323-.513.654-.756.824-.803 0 .698.427 1.132.593 1.28.166.15 1.38.406 1.753.296.372-.11.753-.585.955-.648.202-.063 1.294.41 2.873-.695-.34.843-.387.977-.846 1.35.486.015.82.01 1.056-.084-.303.683-.905 1.017-1.132 1.183.172.108.774.084 1.058-.045-.427.695-.97 1.187-1.175 1.343.285.077.64-.115.822-.168-.252.528-.308.957-.287 1.102.455-.15.496-.094.66-.203-.24.497-.523 1.273-.465 1.542.35-.254.532-.332.66-.333.054.44-.062 1.28-.004 1.628.257-.258.726-.398.726-.398s-.204 1.56.023 1.47c.226-.087 1.048-1.122 1.32-.956.384.232.3 3.462.51 5.04.59 0 2.005-.556 2.093-1.113.042-.265.167-1.14-.143-1.132-.4.01-1.29 1.558-1.228 1.133.13-.883-.297-3.87-.605-5.107-.46.58-.695.607-.984.726.123-.605.384-1.397.384-1.397l-.96.457.442-1.102-.88.287s.964-1.455.984-1.75c-.604.343-1.183.272-1.313.143.796-.4 2.075-2.145 2.053-2.833.347.577.446 1.39.805 2.196.215.483 1.608 2.687 2.07 3.182.212-.378-.863-2.493-1.092-2.948s-.7-.85-.99-1.43-.94-3.99-2.217-3.722c.607.765 1.028 2.444.947 3.132-.826-1.72-1.388-2.86-1.662-3.046-.09.746-.74 1.41-1.5 1.52.768-.71 1.406-1.963 1.028-2.432-.467 1.154-.627 1.866-1.72 2.237-1.095.37-1.2.32-1.35.433-.15.114-.524.73-1.113.897.417-.637.648-1.284 1.03-1.476.382-.193.584.003 1.73-.652.703-.4.458-1.425.543-1.826.15-.704 1.467-2.693 1.42-3.475-.056-.983-1.158-1.017-1.33-1.358-.17-.342.142-.9-.523-2.223-.665-1.322-3.683-3.506-4.712-3.75.43.778.296 1.153.075 1.485-.12-.754-.817-2.047-1.504-1.702-.404.203.482.883.72 1.358.24.475.5 1.456-.557 2.235.154-.414-.197-.842-.197-.842 0 .524-.63 1.084-1.08 1.155.267-.493.228-.706.12-.787-.182.508-.786.91-1.088.867.502-.754.712-1.224.094-1.874z"/>
          <path d="M52.543 64.763s.334 1.05.608 1.027-.122-.874-.195-.925c-.074-.05-.212-.44-.412-.102z"/>
        </g>
      </g>

      <g>
        <path d="M40.145 85.923c-4.334-3.55-5.983-5.91-7.253-7.936-.505-.806-1.45-1.207-2.65-2.258-.5-.44-1.217-.94-2.193-.737-1.667.35-3.897.402-6.092-1.204-.56-.41-1.284.554-1.908.106-.93-.67-.793-1.367-1.21-1.668-.42-.3-1.39.106-1.822-.206s-2.93-2.298-1.17-4.187c-.6-.284-.87-2.017-.197-3.396-.6-1.217-.196-4.102 1.453-4.667-.3-1.117-.054-2.033.815-2.862.668-.636 1.208-.652 2.135-1.057.61-.267.407-1.06.98-1.174.745-.147 1.492.706 1.95.72.457.012 1.673-1.036 3.318-.094.41.234 1.158 1.275 1.8 1.738.645.463 1.358.515 1.842 1.393.3.546.946 2.22 1.5 2.588s1.817.77 2.03 1.178c.216.408.67 1.582 1.037 2.015.365.433 1.374.875 2.063 1.37.69.495 1.453 1.553 2.012 1.954.317.228 2.438 1.108 4.588 2.39.682.408 2.577.66 3.843 1.458 1.013.64-6.87 14.533-6.87 14.533z"/>

        <g class="sepultura__hands__light">
          <path d="M19.534 72.214c-.134.186.65 1.04.902 1.22.25.18 1.228-.148 1.7-.804.18 1.308 1.91 1.784 3.526 1.858 1.568.072 2.317.03 2.607-.247.407-.386-.78-.053-2.26-.107-1.427-.052-1.603-.474-2.322-.76-.993-.396-1.417-1.817-1.582-1.85-.166-.035-.956 1.36-1.452 1.637-.496.278.075-.347.266-.888.08-.224-.496-.065-.75-.045-.357.027-.568-.107-.636-.013z"/>
          <path d="M29.364 59.478c-.316-.227-.548-.387-.796-.512-.006-.3-.174-.877-.3-1.084.39.206 1.057 1.03 1.096 1.596z"/>
          <path d="M27.494 58.707c-.466-.137-.888-.257-1.414-.31-.106-.953-.476-1.48-.758-1.657-.282-.178.453.548.078 1.52-.55-.04-1.3-.057-1.6.066-.32-.654-1.582-1.963-1.694-1.532-.036.14.587.51.978 1.556-.202.045-.638.13-.698.215-.55-.395-2.258-1.02-2.524-.67-.122.16.73.2 1.71.96-.29.145-.602.795-.605 1.075-.236-.34-.49-.478-.49-.478l-.303.5s-.355-.86-.31-1.04c-.362.444-.416.52-.46.625-.155-.344-.302-1.244-.08-1.582-.657.693-.813 1.617-.842 1.893-.377-.61-.61-1.477-.436-1.72s.807-.152.96-.35c.15-.196-.05-.638.045-.77s1.075-.36 1.37-.224.646.53.776.347c.13-.18-.11-1.542.007-1.62.188-.123 1.164.155 1.764.586.6.43 1.25 1.12 1.367 1.088.118-.032-.58-1.063-.88-1.267.5-.162 1.743-.347 2.392.12.652.468 1.417 1.808 1.648 2.67z"/>
          <path d="M20.03 62.73c-.294.27-.888.8-.735 1.335.153.533.724 1.113.952 1.25-.57-.228-1.227-.587-1.23-1.35-.22.165-.362.29-.4.557-.31-.42-.47-1.057-.243-1.374-.594.434-.72 1.974-.667 2.49-.678-.472-1.54-1.423-1.62-1.607-.078-.183-.117-2.254.66-2.9.438-.363 1.04.48 1.598.88.966.697 1.035.365 1.684.72z"/>
          <path d="M21.867 66.186s.99-.05 1.523-.853c-.78.455-1.335.385-1.523.853z"/>
          <path d="M16.124 65.474c-.238.45-.093 1.74.074 2.057s.962 1.06 1.286 1.236c-.085-1.02.077-1.836.374-1.778.297.058.793.782.937.758s.367-.57.536-.49.463.417.55.395c.087-.02.24-.433.385-.358s.265.432.405.504c.14.072.48-.46.54-.384s.28.845.228 1.075c.216-.635.325-1.186.415-1.226.352-.155.17 1.04.116 1.312.292-.015.61-.328.697-.49-.23.017-.378.183-.407.085s.23-.617.217-1.008c.363-.093 1.112-.585 1.258-.946-1.3.67-2.138 1.1-4.883.824-.777-.077-1.924-.916-2.728-1.564z"/>
          <path d="M16.41 68.757c.278.3.947.822 1.316.82s3.548.15 4.427-.348c.083.61.05 2.068-.98 2.048.43-.546.26-1.17.083-1.197-.176-.026-.084.632-.428.893-.075-.407-.09-.954-.174-1.014-.356.534-.377.504-.603.582-.006-.245-.108-.516-.27-.646-.242.475-.383.74-.538.77-.41-.167-.546-.674-.632-.75-.086-.077-.326.89-.37.717-.046-.173-.322-.744-.387-.725-.433.126-.142 1.13-.507 1.48-.365.352-.695-.033-.428-.572.203-.41.467-1.062.187-1.164-.28-.102-.447 1.034-.676 1.137-.23.103-.98-1.07-.02-2.033z"/>
          <path d="M20.81 62.567c-.32.642-.687.745-.904 1.058-.217.313.296 1.004.908 1.427.612.423 2.095-.17 2.858-1.273.763-1.103.813-2.59.76-2.837.333.37.438.583.404.855.372-.233.547-.365.705-.564.01.342-.05.876-.617 1.41.553.032 1.362-1.077 1.5-1.78.338.907.3 1.868-.884 2.746.866.53 1.537.574 1.965.42-.136.3-.292.504-.45.583.386.08.68.125.93.098-.216.314-.657.618-.876.782.47.095 1.025.082 1.192-.047-.165.3-.44.565-.562.67.432.075.926.03 1.06-.102-.227.418-.78.975-.865.965.28.074.834.163.997.06-.19.344-.475.715-.68.84.233.05.735.144.918.08-.2.29-.417.736-.55.798.384.042 1.067.272 1.283.142-.228.43-.192.47-.398.706.337.1.63.05.732-.055-.1.357-.1.456-.296.63.18.116.618.13.712.124-2.353 1.11-4.924.02-6.552-2.023.258 1.29 1.48 2.592 1.95 2.93-.94-.163-2.1-1.14-2.29-1.312-.065.742.255 1.13.23 1.633.398-.088.64-.215.758-.386.142.645.334 1.2.144 1.84.217-.173.473-.543.473-.543s.343.7.838.917c.093-.58.138-.788.358-1.085.36.374 1.002.622 1.314.698-.007-.497-.212-.973-.02-1.19.4.5.738.678.986.766.04-.604.212-.975.34-1.098.334.61.914.787 1.13.84.218.05 1.404-.306 1.678-.58.273-.274.38-.873.526-1.024.147-.15 1.33-.26 2.184-1.98.106.9.128 1.04-.096 1.586.432-.22.72-.383.885-.58.06.744-.307 1.324-.426 1.578.202.013.72-.295.905-.545-.043.812-.282 1.502-.388 1.737.286-.07.506-.407.64-.54.03.584.187.986.274 1.103.327-.35.39-.32.483-.494.026.55.15 1.364.328 1.572.187-.39.308-.545.42-.607.257.36.558 1.152.774 1.428.102-.35.446-.697.446-.697s.566 1.463.723 1.277c.157-.186.382-1.484.7-1.47.448.02 1.42 1.335 2.355 2.62.075-.212.362-.63.16-1.08-.368-.813-1.602-1.79-2.43-2.98-.124.726-.42.97-.615 1.213-.182-.59-.33-1.407-.33-1.407l-.624.858-.14-1.176-.633.67s.148-1.734.025-2.002c-.365.59-.906.803-1.08.752.504-.73.79-2.87.443-3.46.58.34 1.055 1.004 1.754 1.538.418.32 2.89 1.393 3.53 1.606.005-.432-2.145-1.58-2.562-1.868-.417-.29-1.02-.41-1.55-.778s-2.73-3.046-3.72-2.202c.897.38 2.068 1.65 2.326 2.29-1.545-1.11-2.582-1.842-2.91-1.874.276.696.024 1.587-.59 2.047.335-.988.295-2.39-.26-2.62.14 1.234.34 1.934-.44 2.78-.78.85-.897.853-.973 1.024-.076.17-.11.89-.546 1.318.06-.757-.046-1.434.197-1.785.244-.35.514-.276 1.205-1.396.424-.686-.29-1.463-.397-1.858s.037-3.427-.415-3.723c-.642-.42-1.584-.48-1.897-.696s-.222-.715-1.436-1.555-4.9-1.312-5.92-1.035c.75.477.812.87.776 1.266-.466-.602-1.694-1.402-2.13-.77-.256.37.845.54 1.28.843.437.302 1.135 1.037.58 2.224-.063-.436-.575-.643-.575-.643.252.458-.033 1.25-.392 1.526-.002-.56-.14-.727-.273-.746.084.532-.253 1.17-.538 1.28.084-.9.043-1.413-.808-1.687z"/>
          <path d="M43.5 71.883s.737.764.938.636c.2-.13-.493-.698-.573-.712s-.365-.293-.365.075z"/>
          <path d="M34.99 75.692s.606.293.806.164c.2-.13-.833-1.15-.914-1.15-.27 0 .108.618.108.986z"/>
        </g>
      </g>
    </g>
  </g>

  <g class="sepultura__ball">
    <ellipse cx="62.847" cy="110.609" rx="42.866" ry="42.366"/>

    <g class="sepultura__gores">
      <path d="M99.84 91.68c-4.375-8.33-11.546-15-20.286-18.786 0 0-1.84.04-2.853.567 0 0 2.552 3.93 4.05 7.736 4.375 2.268 10.57 6.712 13.123 10.484 1.58-.236 5.966 0 5.966 0z"/>
      <path d="M103.382 120.098c.727-3.046 1.112-6.223 1.112-9.49 0-5.774-1.203-11.27-3.375-16.258-1.563-.968-4.624-1.194-6.494-1.024.397 3.684.283 7.675-2.72 13.36 2.153 2.68 4.307 10.276 4.023 13.904 2.663 1.304 5.892 2.644 7.452-.492z"/>
      <path d="M80.615 147.847c3.233-1.51 6.24-3.42 8.95-5.662-1.34.54-2.202.684-3.24.79-1.235 1.326-3.605 3.47-5.71 4.872z"/>
      <path d="M30.595 136.653C35.755 142.888 42.73 147.6 50.723 150c2.358.02 3.756-.41 4.777-1.272-.7-1.29-.914-4.785-.968-5.806-2.742-.968-9.623-6.02-13.118-9.73-2.634.483-8.548-.055-10.484-.592-.698.698-.832 1.386-.335 4.053z"/>
      <path d="M21.2 110.61c0-8.77 2.775-16.9 7.505-23.578.72-.203 1.366.048 1.643.622-1.012 2.706-2.983 5.86-2.625 12.31-3.333 5.234-3.923 6.11-5.24 12.85-.293 1.504-1.283 3.047-1.283-2.205z"/>
      <path d="M30.348 84.868c5.756-7.09 13.837-12.255 23.1-14.366-3.754 2.727-6.98 5.164-8.342 7.6-3.154.79-7.204 1.152-13.225 7.675-.86.287-1.36-.22-1.532-.91z"/>
      <path d="M83.528 136.416s1.315 4.032 1.562 5.322c-2.602 3.548-13.946 13.01-27.655 6.666-.645-2.06-1.11-4.283-.896-5.68 3.655-1.112 9.497-3.8 13.404-7.205 4.516 1.29 8.727 1.452 13.584.896z"/>
      <path d="M83.456 135.162c2.15-.717 8.817-6.923 11.29-13.138.215-7.04-1.864-11.054-4.086-13.958-4.265-1.792-12.007-1.336-14.372-.417s-8.494 12.355-9.14 13.36c.79 4.515 2.764 12.038 3.64 12.898 3.672.86 7.9 1.362 12.668 1.254z"/>
      <path d="M41.414 131.112c.573-2.796 4.66-11.828 5.376-12.76-2.724-3.798-5.806-12.113-7.097-15.984-4.158-.86-6.882-.79-10.752-.717-3.167 4.302-5.088 9.678-5.088 13.764s2.796 12.76 5.806 14.623c3.01 1.863 8.53 1.935 11.756 1.075z"/>
      <path d="M46.79 79.357l5.592 9.605 14.596.8 12.14-8.326s-2.293-6.666-5.375-8.172c-3.082-1.505-9.51-3.6-15.914-2.437-6.405 1.16-10.68 6.666-11.04 8.53z"/>
      <path d="M66.503 119.786l7.957-13.763s-2.652-11.756-7.598-14.982c-5.52 0-13.763-.5-14.767-.5-3.87 1.934-8.89 5.52-11.254 11.612 1.72 4.66 5.52 13.44 6.954 15.017 4.3 1.075 18.71 2.616 18.71 2.616z"/>
    </g>
  </g>

  <g class="sepultura__symbol">
    <path d="M88.746 114.263c-.518-.52-.934-1-1.3-1.42-.488-.56-.91-1.04-1.373-1.397-.368-.282-.73-.414-1.08-.542-.205-.075-.4-.146-.6-.248-.008-.086-.002-.23.003-.333.02-.48.058-1.377-.864-1.73-1.064-.407-1.605.726-1.783 1.098l-.03.06c.003-.078.013-.185.02-.264.056-.592.17-1.824-1.332-2.3-.89-.28-1.525-.03-1.902.228-.615.422-.964 1.16-1.06 1.748-.296-.095-.587-.16-.86-.222-.336-.076-.655-.148-.924-.26-.16-.068-.224-.157-.228-.2-.004-.035.036-.1.13-.164.766-.52.826-1.724.626-2.373-.215-.7-.713-.754-.86-.754-.936 0-1.687-.285-2.116-.8-.066-.08-.072-.133.023-.476.1-.358.265-.958-.21-1.49-.382-.428-.932-.49-1.486-.416.032-.29.018-.572.007-.79-.045-.876-.64-1.12-.97-1.214.076-.566-.13-.882-.4-1.058.035-.084.06-.164.07-.233.057-.403-.216-1.018-.5-1.358-.13-.153-.26-.26-.388-.334.02-.148 0-.296-.046-.444.23.045.484.104.727.174 1.028.293 2.35.467 3.085-.23.093.21.186.414.278.615.345.75.67 1.46.862 2.314.13.58.148 1.295.164 1.925.03 1.21.055 2.255.93 2.46.06.013.122.02.183.02.167 0 .33-.052.474-.154.562-.395.777-1.534 1.073-4.103.048-.414.09-.77.12-.93.158-.826-.086-1.858-.41-2.66.018 0 .035.003.05.003.395 0 .673-.217.967-.446.337-.263.798-.622 1.667-.842 1.336-.337 2.693-1.546 3.784-2.517.382-.34.744-.662 1.032-.88 1.825-1.378 3.393-4.453 3.844-5.524.39-.934.422-1.656.096-2.145-.214-.32-.566-.505-.966-.505-.6 0-.88.545-1.44 1.632-.408.792-.916 1.78-1.568 2.565-.79.975-2.067 1.917-2.83 2.48-.13.095-.246.18-.344.254-.39.295-1.005.513-1.657.743-.335.118-.68.24-1.03.385-.21.088-.43.173-.65.26-.74.286-1.374.532-1.77.872-.16-.525-.456-1.06-.684-1.467l-.036-.066.088-.043c.514-.25 1.29-.627 1.868-1.216.494-.508 1.397-1.475 1.884-2.242.475-.74.817-1.277.618-1.814-.058-.156-.216-.435-.625-.558l-.013-.004c-.463-.13-.912.206-1.656.76-.232.174-.582.436-.702.487-.444.182-1.31.456-1.584.44-.382-.01-.854.117-1.355.253-.285.077-.58.157-.827.2-.33.06-.826-.04-1.187-.113-.21-.042-.385-.077-.542-.09.01-.128.012-.26.012-.4 0-.464-.335-.87-.76-1.38-.332-.404-.79-.956-.817-1.313-.056-.73-.056-.73.565-1.113.738-.452 1.664-.29 2.027-.198.242.068.93.7 1.223.972.395.364.578.528.766.612.038.017.937.408 1.517.03.244-.157.383-.417.383-.71 0-1.2-.553-1.686-1.465-2.336-.452-.357-.94-.84-1.37-1.265-.35-.347-.655-.647-.886-.825-.65-.5-2.978-.94-4.04-.94-.658 0-1.237.17-1.748.318-.354.104-.692.2-.898.187-.19-.013-.29-.1-.453-.255-.16-.15-.378-.358-.72-.358-.5 0-1.01.248-1.33.646-.03.035-.054.072-.08.11-.184-.056-.402-.084-.664-.067l-.008.002c-.268.02-1.024.082-1.347.927-.52-.855-1.363-1.858-1.745-2.23-.207-.187-.422-.493-.63-.788-.258-.366-.502-.71-.797-.957-.425-.354-1.215-.856-1.57-1.075l-.007-.023c-.08-.312-.243-.96-.91-1.163-.21-.063-.568-.26-1.082-.836-.338-.38-2.662-1.93-3.548-1.432l-.014.008c-.283.168-.447.45-.452.77-.013.91 1.36 1.85 1.78 2.118.66.416 1.412 1.445 1.862 2.06.103.14.193.262.266.356.104.134.24.32.393.53.49.665 1.096 1.493 1.518 1.877.29.264.79.967 1.122 1.432.19.268.342.48.448.608.127.164.522 1.014.76 1.52.31.667.49 1.052.613 1.232.035.05.07.095.11.136-1.483.17-3.792.34-4.545.308-1.265-.055-3.533-.008-4.514.93-.154.15-.273.316-.36.496-.417-.64-.953-1.365-2-1.365-.934 0-1.965.67-2.19 1.613-.09-.232-.22-.43-.348-.623-.205-.31-.437-.662-.6-1.287-.037-.143-.047-.53-.056-.84-.027-.988-.056-2.01-.934-2.01-.193 0-.48.06-.756.34-.65.664-.88 2.366-.867 2.964.002.127-.002.252-.006.378-.01.296-.02.63.045 1.003-1.652-.363-3.672-.004-5.318.376-1.342.31-3.11 1.41-3.295 2.31-.066.322.052.64.31.826.357.26.918.243 3.165.052 1.313-.112 2.8-.24 3.635-.16.666.063 1.185.225 1.644.368.376.117.757.237 1.124.237.062 0 .124-.005.185-.012.095.173.234.35.42.532.474.466 1.394 1.064 2.186 1.32-.582.106-1.153.373-1.367.71-.315.498-.43 1.406-.07 2.007l.05.086.076.066c.42.37 1.48.772 1.996.772.033 0 .063-.002.09-.005.128-.015.246-.045.356-.083.146.516.583.926.975 1.292.174.162.453.423.535.567-.067.056-.206.138-.304.197-.35.208-.827.493-1.11 1.057-.48.96-.32 2.096.407 2.893.4.437.846.417 1.112.405.242-.01.402-.018.766.386.39.433.622.976.827 1.455.265.62.54 1.257 1.166 1.407-.012.036-.027.073-.038.11-.164.543-.087 1.06.223 1.497.6.847 1.623.773 2.444.714.55-.038 1.117-.08 1.39.15.31.263.597.696.876 1.114.123.185.25.374.385.558-.302-.167-.652-.17-.967-.002-1.393.743-2.398 5.944-2.63 7.6-.137-.092-.294-.18-.48-.264-.39-.175-.527-.347-.735-.606-.186-.232-.417-.52-.836-.82-.632-.45-1.183-1.29-2.184-2.81l-.327-.497c-.502-.763-.832-1.502-1.097-2.096-.427-.958-.807-1.97-1.29-2.08-.485-.107-.947.603-1.035 1.038s.288 2.747.798 3.626c.23.396.287.68.368 1.073.085.413.19.927.52 1.66.588 1.306 1.476 2.24 2.336 3.142l.303.32c.782.83 1.415 1.407 1.953 1.768-.16.13-.296.277-.42.412-.288.315-.48.51-.76.516h-.01c-.343 0-1.555-.45-2.56-1.084-.53-.336-.875-1.217-1.18-1.995-.15-.38-.29-.74-.454-1.05-.14-.264-.227-.488-.302-.686-.17-.45-.406-1.068-1.273-1.068-.27 0-1.155.12-1.155 1.664 0 1.058.25 2.08.43 2.83.068.275.15.612.164.76-.1.137-.54.402-.894.618l-.303.184c-.926.568-2.28 1.793-3.712 3.362-.275.3-.608.63-.96.976-1.485 1.462-3.333 3.283-3.875 5.88-.45 2.15-.464 3.5-.044 4.124.14.21.34.347.56.387.053.01.104.016.152.016.574 0 .71-.67.793-1.082.095-.47.238-1.176.57-1.59.363-.45.636-.94.925-1.456.312-.558.634-1.134 1.1-1.715.808-1.006 2.367-2.448 4.32-3.476 1.792-.944 4.376-1.304 5.552-1.202.478.042.77.35 1.105.704.356.375.758.8 1.397.8.38 0 .674-.098.905-.235.012.043.025.086.04.125.613 1.563 1.673 1.81 2.526 2.01.177.04.344.08.506.13.763.232.832.593.92 1.606.02.242.04.493.082.758.26 1.713.11 3.194 0 4.276-.106 1.045-.164 1.62.19 2.012.164.18.39.28.64.28.84 0 1.293-1.03 2.31-5.24.063-.26.132-.545.182-.742.188-.014.478-.016.762-.017-.027.046-.05.094-.07.148-.084.233-.068.486.044.715.158.322.548.76 2.188 1.293.765.25 1.87.438 3.03.517.227.015.406.017.558.006l-.067.064c-.43.407-.84.79-.934 1.322-.028.158-.15.386-.256.587-.22.416-.523.986-.122 1.468.226.272.593.376.993.376.635 0 1.353-.262 1.723-.538.37-.275.543-.675.636-.89l.02-.05.045-.074c.13-.214.31-.506.412-.564 1.015-.582 1.383-1.35 1.7-2.15.03-.082.056-.155.08-.23.08.017.16.03.242.033l.087.002c.513 0 1.06-.173 1.59-.34.245-.078.478-.15.687-.2.77-.183.924-.778.932-1.34.075.114.147.233.214.36.44.84.96 2.42 1.552 4.697.52 2.005.648 4.313.334 6.026-.183.996-.727 1.716-1.17 2.376-.518.773-.86 1.963-1.056 2.386-.47 1.02-1.986 1.872-1.41 2.52.227.252.577.644.928.644.5 0 1.394-.42 2.382-1.676.523-.666.735-1.188 1.2-1.595.93-.814 1.192-2.225 1.512-3.1.093-.255.173-.475.246-.627.368-.776 1.377-4.356 1.418-6.184.02-.842-.23-1.812-.45-2.668-.107-.42-.255-1-.295-1.356.82.11 2.434.3 4.67-.426 1.163-.378 2.874-1.42 3.21-2.096.13-.26.1-.477.052-.614-.29-.835-1.197-.646-2.344-.408-.84.175-1.988.414-3.27.414-1.357 0-2.41-.753-3.104-1.25-.116-.084-.222-.16-.318-.225-.156-.105-.27-.216-.39-.333l-.068-.065c.583-.328.87-.842.87-1.55 0-.547-.32-.98-.576-1.327-.093-.126-.234-.317-.253-.39-.066-.3.002-1.356.102-1.805.082-.02.19-.04.27-.053.422-.076 1.024-.186 1.426-.62.432.628.95 1.2 1.402 1.453.35.196.54.572.722.935.135.27.263.525.464.724.055.094.14.38.196.57.208.7.157 1.88.82 1.988.838.136 1.08-.424 1.324-.726.676-.834.524-2.93.446-3.444-.098-.652-.324-1.06-.523-1.423-.154-.277-.286-.517-.365-.874-.222-1.01-.892-3.296-2.424-3.508.392-.958-.433-1.907-1.177-2.29-.092-.047-.19-.158-.292-.275-.09-.103-.2-.227-.337-.337.402.05.847-.017 1.26-.098.637-.124.94-.702 1.164-1.124.02-.035.04-.077.064-.12.117.085.273.183.472.25.2.066.41.085.653.107.42.038.893.08 1.38.37.378.225.828.38 1.264.532.674.233 1.37.474 1.72.94.132.18.245.34.346.484.456.65.928 1.32 1.886 1.03.124-.038.424-.173.535-.61.17-.7-.175-1.927-1.34-3.1zm-22.714-22.7c.433 0 .813-.228 1.052-.618.126.7.784 1.06 1.374 1.377.03.017.065.032.098.047-.54-.11-1.094-.105-1.67-.1-.135.002-.27.004-.41.004-.438 0-1.233-.228-1.814-.394-.593-.17-.93-.263-1.18-.262.02-.48-.078-.996-.27-1.47.39.9 1.408 1.415 2.82 1.415zm-2.69 5.183c-.315-.314-.67-.483-1.02-.478-.348 0-.77.202-1.15.503-.146-.597-.53-1.056-.948-1.44h.004c.548 0 1.164-.223 1.84-.664.184.413.664.753 1.26 1.17.365.26.822.58.98.79.14.185.272.55.387.87.1.274.2.55.33.794-.125.033-.245.077-.357.14-.11.03-.346.057-.578.072.005-.05.008-.103.008-.158.002-.553-.38-1.223-.756-1.598zm-3.906-7.066c-.073-.102-.156-.182-.246-.242.032-.073.06-.115.117-.156.128-.094.278-.153.448-.2-.134.18-.236.387-.32.598zm4.437 29.297c-.184-.087-.356-.18-.625-.202-.27-.02-.39.262-1.7.215-.236-.008-1.19-.05-1.568-.098l.03-.013c.514-.23 1.603-.52 2.055-.53.255-.004.583-.11.853-.133.56-.047 1.437.047 2.218.14-.04.152-1.14.472-1.263.62zm2.73.128c0 .156.017.292.03.385l.016.142c-.01.028-.08.086-.25.09-.062 0-.238-.225-.313-.32-.058-.232.398-.26.516-.297zm-7.822-9.15c.824.017 1.467-.374 1.934-.658.135-.082.314-.19.404-.225.216.05.46.085.7.112-.118.06-.236.13-.35.218-.48.364-.777.885-.817 1.428-.025.362.06.816.453 1.27-.305.248-.463.647-.595.99-.07.185-.19.493-.27.557-.226.158-.477.382-.768.642-.44.393-.99.882-1.652 1.322-.26.173-.477.335-.658.49-.004-.8-.01-1.65-.05-2.118-.02-.26.073-.997.154-1.648.206-1.647.29-2.552.113-3.072.376.394.823.682 1.404.692z"/>

    <g class="sepultura__symbol__front">
      <path d="M51.16 71.57c.383-.215 2.37.87 2.752 1.298.382.428.87.87 1.375 1.024s.428.917.61 1.024c.184.107 1.193.734 1.652 1.116.457.382.885 1.253 1.405 1.727.504.488 1.758 2.062 1.956 2.75.2.688.69 1.177.566 1.68-.122.505-.03 1.117-.58 1.117-.566 0-.994.183-1.224-.153-.23-.336-1.116-2.445-1.406-2.797s-1.13-1.65-1.635-2.11c-.503-.457-1.42-1.787-1.833-2.322-.413-.535-1.375-1.987-2.292-2.568s-1.833-1.498-1.344-1.788z"/>
      <path d="M75.284 83.392c.054.35-.56-.1-.824-.217-.265-.118-1.58-1.376-2.168-1.523-.59-.147-1.57.02-2.407.534s-1.018.654-.944 1.61c.075.956 1.622 2.068 1.622 2.583s-.044.91-.25 1.25c-.19.338-.772 1.254-1.39 1.372-.618.118-1.527.535-1.968.05-.44-.487-.467-1.57-.688-1.908-.22-.338-1.28-1.59-1.442-2.987-.162-1.398-.206-1.81-.338-2.722-.118-.912-.544-.795-.706-1.545-.147-.662.44-1.148.97-1.148.222 0 .428.544 1.09.59.662.043 1.56-.487 2.59-.487 1.015 0 3.075.44 3.517.78s1.354 1.368 2.178 2.016c.865.62 1.054 1.073 1.16 1.752z"/>
      <path d="M78.703 85.895c.44.132.132.617-.338 1.352-.41.646-1.118 1.302-1.647 1.846-.837.852-2.51.8-2.455 1.483.054.684.943 1.46 1.09 2.254s.294 2.38.617 3.056c.323.69.632 1.734.485 2.498-.147.764-.513 4.52-.908 4.404-.304-.09-.14-2.383-.478-3.896-.34-1.513-1.29-2.3-1.818-3.843-.544-1.544-.66-1.78-1.25-2.308-.587-.53-2.324-.488-3.058-.885-.735-.397-1.017-.618-1.017-1.014s.404-1.024 1.095-1.244c.69-.22 1.22-.75 1.337-1.03s.513-.792.85-.792c.34 0 1.22.31 1.88.19.662-.117 1.514-.44 1.97-.425.455.015 1.454-.338 1.778-.47.41-.164 1.6-1.25 1.865-1.178z"/>
      <path d="M87.347 84.084c.44 0 .226.57-.29 1.807-.47 1.12-1.658 3.697-3.218 4.874-1.075.81-2.84 2.766-4.415 3.163-1.574.397-1.957 1.22-2.384 1.22-.41 0-.922-.45-.466-2.01.132-.47 1.47-.556 2.455-.968 1-.413 2.294-1.096 2.956-1.596.662-.5 2.248-1.597 3.19-2.76 1.28-1.543 1.76-3.73 2.17-3.73z"/>
      <path d="M62.847 79.51c.52.09.373 1.092.908 1.612.428.413.166 2.07.548 3.307s1.085 2.093 1.345 2.857c.26.764.305 1.556.623 1.993.495.68.13 1.546-.53 1.546s-1.34-.102-1.692-1.065c-.29-.794.324-1.33-.838-2.08-1.162-.748-1.777.086-2.495.27-.718.2-1.43.357-1.95.74-.52.38-.336.883-.886.99-.55.107-7.366-2.055-7.366-3.598 0-1.29 3.302-1.255 4.34-1.21 1.04.046 5.223-.333 5.834-.578.61-.245 1.206-.84 1.237-1.91.03-1.07-.107-1.38 0-1.96.122-.597.525-.884.922-.915z"/>
      <path d="M45.547 87.36c.443 0 1.186.535 1.317.822.13.287.508 2.412-.17 2.425s-2.398-1.056-2.398-1.616c.012-.638.69-1.63 1.25-1.63z"/>
      <path d="M42.382 86.62c-1.604-.673-3.543-.204-5.063.147-1.52.35-3.054 1.42-2.707 1.738.206.188 3.038-.654 5.493-.358 1.704.205 3.054 1.067 3.516.394.578-.84-.718-1.702-1.24-1.92z"/>
      <path d="M43.323 86.37c-.188-.39-.418-1.198-.43-1.797-.012-.612.295-2.173.535-2.173.312 0 .107 1.056.21 1.565.27 1.317 1.053 1.766 1.125 2.31.072.507.012.853-.168.986-.18.12-.34.022-.62-.103-.29-.128-.464-.396-.652-.786z"/>
      <path d="M46.935 92.247c.216.09.457 1.264.377 1.56s-.345.37-.526.392c-.196.022-1.03-.255-1.317-.51-.192-.317-.103-.863.05-1.105.153-.24 1.02-.49 1.415-.338z"/>
      <path d="M61.22 89.577c.817.07 1.48 1.273 1.426 2.284-.042 1.01-.277 1.76-.872 2.174-.595.415-1.315.76-1.896.526-.58-.235-.997-.664-.9-1.15.097-.483.43-.982.72-1.757.4-1.065.332-2.172 1.522-2.076z"/>
      <path d="M58.188 90.15c.413-.062.67.055.776.605.107.565-.027.732-.256 1.13-.23.396-.922.53-.968.913-.046.382-.048 1.225.61 1.99.656.763 1.874 1.494 1.874 2.732s-1.486 1.893-2.71 2.58c-1.222.69-2.684 2-3.6 2.582-.918.58-1.07 1.07-1.71.962-.643-.107-1.075-1.248-2.038-2.317-.963-1.07-1.344-.535-1.818-1.055-.474-.52-.36-1.12.054-1.945.413-.825 1.272-.826 1.272-1.514 0-.688-1.575-1.847-1.667-2.612-.107-.763-.088-3.312-.24-4.627-.276-2.506-1.37-2.744-1.37-3.477s.732-1.223 1.466-1.223c.806 0 .968 1.264 1.747 2.043.78.78 5.165 3.678 6.693 3.678 1.532 0 1.518-.384 1.885-.445z"/>
      <path d="M71.638 93.61c.39.153 1.44 1.906.96 2.283-.544.43-1.73.3-2.45.094-.716-.205-1.876-.267-1.92-.12-.044.145.157.774.113.994-.043.22-.35.644-.73.908s-.98.664-1.476.532c-.498-.132-.644-1.45-1.098-2.05-.454-.6-1.976-1.345-2.093-1.8-.117-.453.41-1.99.79-2.004.38-.015 2.02.63 2.883.63s1.624-.06 2.312.204c.69.264 2.05.082 2.71.33z"/>
      <path d="M68.823 97.768c.37.012.617.73.595.905-.022.173-.325.632-.595.632-.27 0-1.56.124-1.56-.347 0-.335.45-.67.74-.793.293-.112.484-.41.82-.397z"/>
      <path d="M62.32 97.26c.53-.002 1.096.92 1.096 1.372 0 .403-.464.56-.315.754.08.105 1.582.005 1.78-.118.198-.122.618-.27 1.558.195s1.28.58 1.725.452c.445-.128.724-.434 1.3-.254.574.18 0 .786.277 1.006s.872.037.91.75c.036.715-.026 1.034-.333 1.14-.838.294-1.23-.484-1.36-.246-.13.238.016.702-.744 1.288s-1.164 1.006-1.692 1.83c-.527.824-.522.933-1.006 1.575-.427.566-.955.5-1.034.977-.03.18.2.24.122.89-.066.542-.196.92-.474.956-.278.037-.59-.338-.664-.613-.074-.275.035-.72-.318-.794-.353-.074-1.4.01-1.902-.117-.5-.128-1.243.86-2.356.842-1.113-.018-1.633-1.795-2.597-2.6-.964-.807-2.893.292-3.617-.715s.872-2.436 2.022-2.875 2.987-1.557 3.618-2.088c.63-.53.853-1.21 1.373-1.374s1.842-.042 2.018-.206c.176-.165-.42-.3-.375-.643.08-.634.567-1.383.99-1.384z"/>
      <path d="M72.35 103.21c.5.56-.448 1.176.125 1.863.573.688 1.682 1.102 2.782 1.102.37 0 .086 1.462-.55 1.895-.638.433-.048 1.253.678 1.56.726.305 1.82.203 2.605.604.392.2.775.112.735-.1-.04-.21-.503-.544-.484-.85.04-.61.517-1.445 2.026-.968s.445 1.603.79 2.077 1.053.205 1.307.073c.52-.27.574-1.188.968-.806.377.365-.092 1.484.54 1.828.63.344 1.427.67 1.934 1.057.735.562 1.276 1.357 2.49 2.58 1.367 1.376 1.276 2.174 1.064 2.228-.485.125-.606-.34-1.332-1.313-.726-.974-2.45-1.145-3.347-1.68-.9-.535-1.697-.377-2.098-.51-.4-.135-.618-.452-.98-.318-.364.134-.564 1.064-1.145 1.177-.688.133-1.022.234-1.29-.014-.266-.248-.53-1.016-.416-1.398.116-.382 1.367-1.476.565-2.152-.133.922-.872.98-.834 1.61.026.42-.223.738.064 1.77.287 1.03.19.84-.67 1.413-.86.572-1.89 2.158-2.75 2.215s-3.152-.19-4.413-.248-1.826.217-2.29-.02c-1.32-.668-.6-1.687-1.052-2.73-.363-.842-1.004-1.178-1.52-1.254-.516-.076-1.34.07-1.707-.08-.65-.268-.9-1.15-1.453-1.4s-.94-.573-.882-1.356c.057-.783.73-1.138 1.113-1.062.382.076.688.848 1.223.753.536-.096 1.322-2.26 1.762-2.796.44-.535 1.337-1.337 1.872-2.388.535-1.05 1.518-1.945 2.187-2.155.67-.21 1.912-.745 2.39-.21z"/>
      <path d="M78.692 116.397c.39-.02.537.483.95.69.414.21 1.017.79.75 1.318-.27.527-.806.647-1.365.505s-1.342-.362-1.565-.702c-.224-.34.414-1.767 1.23-1.81z"/>
      <path d="M77.798 119.763c.573.427.818 2.355.567 2.797-.384.676-1.64.427-1.805.83-.165.4-.268 1.778-.17 2.23.097.45.78.95.78 1.51s-.22 1.085-1.586 1.243c-1.366.158-1.964-.037-2.366.463-.402.5-.573.44-.61 1.51-.037 1.073.305 1.853-.366 2.012-.67.158-1.488.524-2.098.5-.61-.024-1.073-.72-1.146-1.28s.122-1.158-.256-1.426-2.586-.122-2.635-.95c-.05-.83 1.634-1.232 1.488-2.414s-.793-.975-.988-.865-.098 1.84-.89 1.852c-.793.012-1.98-.52-1.878-2.18.072-1.195.462-1.354.536-2.865.097-2-.22-1.56-.05-2.4.172-.842.843-.598 1.147-.415.305.183.55.877 1.11.865.56-.012.83-.366.842-.67.012-.305-.244-.926.33-1.194.572-.268 3.182-.268 4.158-.183.976.086 4.95.333 5.885 1.03z"/>
      <path d="M81.047 119.732c.997 0 1.548 1.714 1.728 2.508s.62 1.032.75 1.873c.13.84.217 3.132-.337 3.163-.554.032-.787-1.99-1.097-2.275-.31-.285-.44-1.094-1.14-1.475-.7-.38-1.9-2.25-1.902-2.728 0-.697.728-1.065 2-1.065z"/>
      <path d="M61.674 112.972c.38-.07.73.274 1.403.823.674.548.896.547 1.05.81.317.538-1.09.835-.926 1.006s.473.25 1.117.055c.644-.194 1.464-.933 1.865-.51.4.423.243.983.56 1.37.315.39.812 1.266.206 1.623-.91.537-1.34-.506-2.296-.65-1.507-.23-2.638-.135-3.573-.112-.937.023-2.6 1.334-3.17 1.608s-.754-.765-.754-1.245.097-.846 1.18-1.52c1.08-.674 1.834-1.45 2.32-1.77.484-.323.52-1.397 1.018-1.488z"/>
      <path d="M75.27 128.997c1.29 0 1.27.486 1.962.952s1.942 1.55 3.697 1.55c2.697 0 4.693-1.003 4.892-.43.1.288-1.594 1.157-2.904 1.582-2.876.934-4.696.02-4.892.16-.616.45.775 3.373.737 5.035s-.99 5.08-1.326 5.79c-.336.71-.69 2.315-1.737 3.23s-2.52 3.25-2.913 3.25.168-.612.58-1.265c.41-.654 1.265-1.634 1.433-2.437s1.33-2.014 1.667-3.844c.336-1.83.02-3.998-.484-5.94-.504-1.942-.776-3.515-1.29-4.498-.43-.822-1.183-1.48-1.183-2.115 0-.372.736-1.02 1.76-1.02z"/>
      <path d="M62.787 120.014c.59.007.856.577.905 1.25.203 2.784-.645 3.634-.443 4.297s-.307 1.495.474 2.224c.78.728 1.41.635 1.372 1.382-.037.747-1.33 1.793-3.268 1.886-1.94.093-3.028-.056-3.176.205s-1.2 5.697-1.902 5.697.317-2.525-.185-5.884c-.186-1.248.055-2.372-1.403-2.82-.96-.295-1.952-.226-2.53-1.718-.332-.86-.055-3.12.59-3.063.647.055 2.125.167 2.623-.15.5-.318.905-2.895 2.253-2.876 1.348.02.83.635 1.94.635 2.195-.002 1.992-1.075 2.75-1.066z"/>
      <path d="M52.503 120.41c.478 0 .457.765.363 1.666-.056.532-.423.85-.64 1.367-.216.516-.22 1.33-.343 1.63-.173.417-.257.78-1.06.78s-1.13-1.245-2.443-1.36c-1.312-.115-4 .267-5.91 1.274-1.91 1.006-3.292 1.716-4.228 2.882-.936 1.164-1.39 2.265-2.097 3.144s-.973 2.51-1.183 2.473-.215-.9.39-3.347c.337-1.362 3.502-4.935 4.69-6.236 1.415-1.547 2.09-2.16 2.93-2.675s1.925-1.09 1.99-1.506c.09-.573-.502-1.344-.59-2.984-.052-.93.156-1.622.322-1.622.305 0 .59 1.184.977 2.017.446.956.92 2.195 1.927 2.83s2.394 1.036 2.943 1.022c1.045-.026 1.256-1.358 1.963-1.358z"/>
      <path d="M56.602 109.75c.47.294-.58 4.075-.51 4.947.06.767.193 1.957.214 2.742.04 1.476.387 1.71.412 2.167.025.46-.084 1.032-.323 1.402-.24.368-.44 1.603-1.04 1.68-.598.076-.764-.09-1.096-.14-.332-.05-.714-.547-.714-1.133s.65-1.48.663-1.95-.248-1.95-.21-3.07 1.37-7.41 2.602-6.646z"/>
      <path d="M46.347 109.173c.363-.09.498 1.18 1.698 2.997 1.2 1.818 1.674 2.555 2.437 3.1.764.545 1.098 1.356 1.99 1.756.89.4.82.923.747 1.36-.074.435.198.962-.45 1.07-.65.11-1.814-1-2.686-1.926s-1.673-1.777-2.254-3.068c-.582-1.29-.49-1.805-1.018-2.714s-.744-2.507-.465-2.575z"/>
      <path d="M67.49 132.6c.41-.057 1.078-.204 1.334.17s.382.507.108 1.2c-.274.692-.26.912-1.066 1.37-.25.144-.62.384-.836.735-.07.113-.18.51-.472.726-.503.374-1.383.787-1.61.514-.21-.25.567-.914.67-1.48.076-.424.57-.77 1.11-1.327.44-.45.315-1.07.507-1.52-1.135.493-1.235.63-2.168.566-.933-.064-1.75-.157-2.51-.403s-1.91-.5-1.754-.927c.156-.428 1.766-.246 2.635-.337.87-.09 1.317-.437 1.537-.638s1.034-.91 1.372-.964 1.28.066 1.454.148c.175.082.34.437.322.728-.012.195-.142.457-.327.82-.093.18-.155.426-.306.62z"/>
    </g>
  </g>

  <g class="sepultura__year">
    <path d="M43.642 197.073c-.353.047-1.01-.313-1.3-.674-.296-.37-.36-.795-.173-1.167.158-.32.43-.62.694-.91.206-.227.462-.51.512-.66.112-.42.22-3.933.264-5.434l.03-1c.072-2.08-.068-4.223-.298-4.582-.094-.125-.328-.277-.554-.424-.507-.33-1.138-.738-1.11-1.474.034-.867 1.164-1.28 2.073-1.61.24-.086.488-.176.6-.238.295-.162 1.82-.966 2.838-.813.917.135.97 1.32.943 2.852-.012.744-.12 2.412-.236 4.177-.12 1.86-.247 3.783-.247 4.468 0 1.496.24 3.563.41 3.89.052.083.17.22.294.363.385.446.91 1.055.91 1.77 0 .996-.808 1.45-1.56 1.45-.09 0-.318-.004-.623-.01-.794-.02-3.112-.025-3.465.023zm-.493-1.39c.005.18.348.31.49.314.316-.072 1.21-.078 3.493-.025.292.007.51.012.6.012.483 0 .483-.283.483-.376 0-.315-.374-.75-.648-1.066-.153-.177-.298-.345-.398-.507-.4-.646-.567-3.444-.567-4.45 0-.72.127-2.66.25-4.538.108-1.675.22-3.408.234-4.126.02-1.19.198-1.844-.135-1.844s-1.392.404-2.053.767c-.185.1-.447.197-.75.307-.367.134-1.455.41-1.455.646s.474.533.78.618c.35.098.55.31.762.59.627.837.535 4.53.51 5.26-.01.263-.02.605-.03.996-.107 3.49-.185 5.338-.32 5.742-.12.364-.42.693-.735 1.04-.203.227-.52.458-.513.64z"/>
    <path d="M52.344 197.075c-.784-.09-1.05-.483-1.327-.993-.155-.285-.164-.6-.024-.86.174-.327.597-.56 1.392-.974.528-.276 1.185-.62 1.428-.884l.104-.113c.505-.548 1.245-1.228 1.323-1.772.067-.47.415-1.01.61-1.317-1.524.162-2.768-.026-3.524-.286-1.212-.416-3.3-2.173-3.33-4.257-.007-.39-.022-.76-.036-1.112-.054-1.368-.097-2.45.436-3.168.016-.022 1.776-2.187 2.614-2.578s1.618-.6 2.97-.69c.544-.04 3.516.082 4.49 1.54.224.338.478.663.724.977.587.75 1.142 1.46 1.166 2.208.017.537-.038 1.14-.082 1.623-.027.29-.052.566-.052.733 0 .127.01.397.023.71.056 1.425.068 2.16-.013 2.486-.052.21-.176.49-.333.844-.222.5-.498 1.125-.603 1.633-.21 1.026-1.157 2.028-1.665 2.567l-.055.06c-.113.12-.266.345-.427.584-.404.6-1.123 1.526-1.84 1.75-.715.228-3.184 1.382-3.97 1.29zm-.428-1.43c.018.153.412.43.94.354.523-.075 2.307-.843 2.978-1.176l.373-.184c.354-.17.742-.745 1.054-1.206.196-.288.364-.537.536-.72l.056-.06c.404-.428 1.245-1.32 1.395-2.046.128-.62.43-1.304.672-1.852.12-.27.243-.55.273-.67.058-.253.004-1.605-.02-2.182-.012-.338-.023-.605-.023-.752 0-.216.026-.5.056-.83.044-.48.093-1.02.078-1.49-.013-.397-.463-.972-.94-1.58-.257-.33-.524-.672-.77-1.043-.55-.824-2.717-1.118-3.523-1.067-1.196.08-2.32.283-2.795.633-.474.35-1.26 1.21-1.996 2.202-.308.415-.27 1.374-.226 2.485.014.36.03.74.035 1.138.022 1.568 1.9 3.017 2.696 3.29.77.265 2.634.35 2.922.333.29-.018 1.173-.253 1.425-.074.118.083 0 .75 0 .895 0 .403-.344.61-.548.932-.17.267-.334.375-.373.65-.125.874-1.127 1.895-1.536 2.333-.41.438-1.11.893-1.774 1.24-.263.14-.983.29-.966.444zm0 .12zm4.2-7.65c-.064 0-.128-.004-.193-.015l-.043-.007c-.554-.09-1.584-.26-2.172-.633-.55-.347-.75-.982-.91-1.493-.045-.147-.09-.285-.135-.402-.047-.117-.104-.24-.162-.367-.218-.477-.49-1.07-.438-1.706.033-.402.137-.68.22-.906.07-.185.12-.32.128-.5.005-.102.002-.205 0-.307-.01-.435-.03-1.242.81-1.452.47-.117.783-.072 1.013-.038.087.013.155.022.22.022.093 0 .198-.008.31-.017.277-.02.624-.046.96.017.696.128 1.514.67 1.624 1.275.024.13.03.29.04.495.008.213.028.712.097.84.19.288.744 1.348.704 1.994-.013.208-.3 2.05-.667 2.416l-.034.035c-.23.233-.735.75-1.37.75zm-2.622-6.746c-.017.084-.013.262-.01.384.003.124.006.252 0 .387-.018.348-.112.6-.194.822-.073.197-.136.366-.157.622-.03.354.16.767.345 1.167.066.145.13.285.183.418.063.154.114.32.165.48.113.36.242.77.458.905.404.255 1.423.362 1.872.497s.726-.546.816-.93.122-.905.145-1.27c.014-.23-.308-1.003-.53-1.335-.214-.322-.25-.798-.273-1.387-.005-.113-.01-.25-.018-.32-.07-.11-.39-.368-.764-.437-.202-.036-.45-.018-.688 0-.31.023-.563.014-.76-.014-.188-.028-.333-.05-.588.013zm3.266 5.202l-.004.004.004-.004z"/>
    <path d="M79.173 188.102c-.396 0-.85-.05-1.462-.118l-.49-.054c-.22-.023-.66-.058-.663-.28-.005-.402.38-.664.556-.796.424-.318.733-.9 1.147-1.353.397-.432 1.278-.81 1.658-1.218.288-.31.877-1.05 1.08-.96.203.09.102.72.094.942-.108 2.948-.152 3.41-.376 3.61-.226.2-1.116.228-1.543.228zm-.905-1.13c.6.057 1.28.192 1.658.087.058-.252.02-.887.08-1.625-.59.335-1.213 1.04-1.738 1.536z"/>
    <path d="M68.46 186.12h.115c.105-.003.208-.036.295-.096.803-.556 1.774-1.88 1.505-2.916l-.056-.227c-.206-.836-.516-2.1-1.644-2.34-.396-.085-2.402-.473-3.018.145-.498.498-1.334 1.432-1.34 2.096-.006.66.402 1.495 1.04 2.124.564.56 1.557 1.216 3.1 1.216zm-2.07-4.647c.22-.084 1.12-.08 2.062.118.467.1.68.97.82 1.546l.06.24c.098.376-.39 1.214-.948 1.668-1.137-.02-1.86-.498-2.273-.905-.53-.527-.72-1.096-.72-1.337.03-.182.444-.768 1-1.33z"/>
    <path d="M66.01 188.518c-1.378-.206-2.713 2.07-2.814 2.35-.126.354.02.854.134 1.353.062.274.08.773.072.942-.052 1.033.745 1.37 2.063 1.8.445.147.877.22 1.3.22.822 0 1.61-.276 2.38-.83.662-.478 1.77-1.276 1.247-2.888-.518-1.6-3.694-2.842-4.382-2.946zm2.51 4.96c-.555.4-1.44.882-2.718.463-1.338-.437-1.33-.577-1.324-.725.016-.317-.07-.687-.15-1.045-.052-.22-.136-.59-.123-.683.184-.51 1.23-1.91 1.622-1.91.008 0 .015 0 .022.002.68.102 3.218 1.282 3.52 2.214.27.828-.127 1.163-.85 1.684z"/>
    <path d="M84.415 186.963c-.063-.188-.11-.83 0-1.418.147-.792.325-4.674.22-5.44-.035-.243-.055-.45-.072-.63-.054-.56-.096-1.005-.5-1.437-.594-.637-1.547-.263-2.243.01l-.144.056c-.46.177-.786.718-1.327 1.66-.358.624-.763 1.33-1.167 1.722-.604.587-1.343 1.228-2.058 1.85-.387.334-.77.666-1.125.985-.88.787-1.252 1.9-1.6 2.367-.086.114-.625.64-.777.875-.162.25-.38.664-.5.86-.366-.874-.688-1.06-1.117-1.395l-.21-.165c.446-.296.864-.69 1.085-1.242.305-.76.237-1.61.208-1.973l-.008-.108c0-.033.007-.072.012-.12.056-.46.173-1.417-.785-3.055-1.314-2.248-4.9-2.296-4.936-2.296-.954-.006-1.945.273-2.963.83-.99.544-2.167 2.188-2.448 2.722-.325.617-.66 2.015-.336 3.468.318 1.423 1.542 2.31 1.524 2.48-.018.17-1.403.69-2.01 2.466-.292.855-.24 3.523.36 4.712.992 1.965 2.388 2.66 5.334 2.66 3.27 0 5.36-2.21 6.106-3.16.825-1.05.702-2.7.64-3.856.994.048 3.246.082 3.83.082.235 0 .504-.03.79-.06.375-.043 1.16-.13 1.306-.012.15.447.184 1.42.217 2.363.015.394.03.802.053 1.182.014.224.018.45.02.67.02 1 .043 2.37 1.534 2.456.134.008.266.01.397.01 1.104 0 2.084-.264 2.513-.693.394-.394.258-1.003.113-1.648-.064-.287-.144-.643-.122-.813.033-.256.1-.5.165-.734.083-.3.162-.584.162-.87 0-.29-.078-.592-.14-.836-.028-.11-.067-.26-.07-.3.004-.04.034-.158.055-.245.073-.297-.02-.766.068-.896.087-.13.84-.492.84-1.477.003-.778-.564-1.273-.893-1.61zm-12.322 6.62c-.65.827-2.464 2.752-5.26 2.752-2.83 0-3.666-.668-4.375-2.07-.45-.893-.466-3.256-.28-3.95.172-.65.15-1.107 1.565-1.882.14-.077.96-.596.99-.753.03-.157-.623-.51-.882-.982-.41-.746-.957-1.112-1.196-1.913-.34-1.14.07-2.307.256-2.66.25-.477 1.325-1.902 2.014-2.28.847-.465 1.66-.7 2.418-.7h.022c.777.005 3.18.34 4.014 1.763.775 1.326.69 2.014.646 2.383-.01.087-.02.168-.02.25 0 .04.004.106.01.194.026.312.077.96-.133 1.49-.155.39-.343.67-1.06 1.022-.153.076-.876.43-.868.6.022.476 1.06.64 1.317.895 1.153 1.14 1.22 2.48 1.24 2.838.055.974.128 2.31-.417 3.005zm11.835-4.695c-.192.164-.55.47-.465.997.037.232-.045.563-.104.804-.046.183-.082.328-.085.47-.004.182.045.375.102.598.05.194.106.415.106.57 0 .14-.06.354-.123.582-.07.258-.195.547-.195.88 0 .535.417 1.43.3 1.96-.066.3-1.176.29-2.224.23-.4-.023-.307-.31-.33-1.556-.003-.23-.1-1.31-.113-1.698-.038-1.065-.074-2.072-.272-2.665-.213-.636-.833-.786-1.49-.786-.324 0-.658.037-.955.07-.255.027-.496.054-.673.054-.688 0-3.63-.08-3.683-.17-.052-.09.73-.988.932-1.3.16-.244.388-.4.472-.54.078-.132.26-.477.342-.633.29-.55.513-.976 1.247-1.633.352-.315.73-.643 1.112-.975.725-.63 1.476-1.282 2.102-1.89.513-.497.957-1.273 1.35-1.957.25-.436.628-1.096.78-1.192l.152-.06c.248-.096.908-.357 1.063-.276.14.15.164.278.215.807.018.192.04.41.076.674.09.646-.087 4.427-.21 5.097-.085.456-.22 1.86.255 2.334.35.352.556.684.568.784.005.192-.057.253-.252.42z"/>
  </g>
</svg>
