<!--
  SVG Music Logos
  System Of A Down - Steal This Album! v1.0.0
  https://github.com/tiagoporto/svg-music-logos
  Copyright (c) 2016 Tiago Porto (http://tiagoporto.com)
-->
<svg xmlns="http://www.w3.org/2000/svg" viewBox="0 0 200 38">
  <path d="M174.48 27.848c-1.318.068-2.634.12-3.942.33-1.123.178-2.26.074-3.39.096-5.66.11-11.32.04-16.978.084-1.896.015-3.792.125-5.688.07-1.387-.04-2.762.127-4.144.13-1.918.002-3.825.23-5.742.254-1.917.023-3.836.037-5.75.123-1.112.05-2.222.03-3.33.074-.053 0-.106 0-.158.007-2.054.327-4.134.273-6.2.4-1.244.077-2.494.037-3.738.115-1.065.066-2.126.19-3.192.267-1.193.083-2.386.115-3.578.17-1.61.076-3.223.087-4.827.298-1.308.172-2.632.177-3.95.234-1.674.072-3.334.32-5.003.453-.94.075-1.88.102-2.82.163-.91.06-1.814.17-2.718.284-.777.1-1.568.135-2.352.124-1.078-.015-2.124.175-3.174.37-.226.043-.457.065-.687.08-1.265.08-2.525.194-3.784.343-1.35.158-2.716.2-4.073.312-.53.044-1.05.187-1.58.248-1.45.167-2.924.102-4.35.366-1.867.345-3.757.27-5.625.51-.29.04-.576.107-.864.16-1.378.255-2.777.216-4.163.345-.645.06-1.268.274-1.922.294-1.498.047-2.99.224-4.47.41-1.414.18-2.835.22-4.245.392-.47.058-.922.236-1.41.274-1.483.117-2.948.384-4.423.574-.29.037-.583.07-.876.08-.444.013-.865.1-1.287.25-.478.168-.993.18-1.493.148-.966-.062-1.93-.045-2.886.085-.7.095-1.01-.197-1.188-.902-.062-.243-.093-.492-.154-.737-.13-.526.366-1.1.916-1.125.365-.016.732-.065 1.09-.14.527-.11 1.06-.15 1.593-.147 1.077.007 2.12-.22 3.17-.403.374-.065.744-.15 1.122-.13.868.044 1.704-.176 2.55-.31.527-.082 1.05-.178 1.587-.198 1.245-.046 2.473-.257 3.707-.407.668-.08 1.334-.178 2.003-.166 1.342.024 2.643-.28 3.963-.436.513-.06 1.026-.008 1.538-.05.98-.082 1.95-.2 2.924-.343 1.064-.155 2.147-.216 3.228-.216.265 0 .518-.017.758-.154.104-.06.24-.093.36-.088.855.036 1.693-.096 2.533-.216.524-.076 1.056-.022 1.58-.21.295-.105.66-.017.995-.018.452 0 .9-.04 1.343-.134 1.136-.243 2.296-.152 3.442-.257.51-.046 1.018-.115 1.533-.04.166.026.34-.01.493-.078.71-.32 1.47-.317 2.22-.357.724-.04 1.433-.18 2.145-.292.42-.067.828-.13 1.244-.02.637.17 1.242.15 1.87-.113.47-.197 1.015-.134 1.525-.122.663.015 1.31.044 1.935-.26.35-.17.75-.16 1.14-.184 1.496-.098 2.993-.084 4.49-.044.3.008.54-.156.812-.23.775-.208 1.57-.28 2.363-.308.95-.033 1.9-.108 2.853.02.647.09 1.28.04 1.91-.215.572-.23 1.184-.312 1.82-.19.707.134 1.415-.007 2.123-.09 1.674-.197 3.35-.35 5.038-.4.824-.026 1.65.01 2.476-.123.837-.134 1.694-.086 2.543-.066.806.02 1.596.01 2.395-.203 1.064-.284 2.178-.245 3.273-.268 1.497-.032 2.997.044 4.493-.01 1.15-.04 2.29-.24 3.444-.267.136-.003.272-.035.407-.03 1.05.043 2.09-.122 3.136-.14 1.947-.037 3.888-.247 5.838-.167.367.015.734-.02 1.096-.08 1.372-.236 2.76-.123 4.14-.187 2.386-.112 4.775-.055 7.163-.155 1.872-.077 3.75.026 5.624-.013 2.903-.06 5.806-.028 8.708-.045 1.354-.008 2.7-.143 4.048-.2 1.286-.054 2.56-.3 3.85-.292.972.006 1.9-.18 2.845-.392 1.31-.295 2.05-.094 2.797 1.03.306.462.217 1.024-.182 1.4-.365.342-.763.582-1.29.644-.642.075-1.25.363-1.91.358-.213-.004-.433-.002-.653-.002z"/>
  <path d="M45.2 13.21c.026-.522-.04-1.257.073-1.987.03-.19.016-.388-.182-.497-.218-.12-.458-.19-.685-.04-.374.248-.76.428-1.225.426-.175 0-.34.084-.49.19-.668.478-1.56.43-2.207-.064-.327-.25-.583-.532-.738-.913-.086-.212-.25-.364-.467-.442-.227-.082-.444-.068-.566.18-.172.345-.464.502-.82.622-1.105.37-2.02 1.044-2.803 1.894-.308.332-.28.522.074.813.292.24.592.474 1.005.457.05-.002.106.012.15.034.994.48 2.046.84 2.902 1.588.568.495 1.204.918 1.635 1.55.535.783.928 1.598.594 2.604-.17.517-.35 1.018-.74 1.397-.524.504-1.13.895-1.838 1.09-.26.072-.495.143-.664.372-.114.154-.28.256-.468.303-.59.148-1.184.313-1.794.28-.53-.027-1.063.143-1.587-.045-.072-.025-.168.002-.248.024-.578.154-1 .024-1.32-.473-.155-.24-.35-.41-.58-.556-.72-.454-1.183-1.082-1.337-1.928-.024-.133-.046-.28-.117-.39-.333-.51-.133-.958.142-1.4.043-.07.095-.15.163-.188.395-.213.784-.445 1.2-.61.318-.13.666-.12.928.174.283.317.554.637.413 1.117-.178.604.088.97.722.938.71-.035 1.43-.07 2.124-.208.528-.104.987-.442 1.452-.723.16-.098.306-.22.46-.33.445-.322.445-.758-.024-1.035-.472-.28-.92-.612-1.525-.59-.273.01-.56-.084-.824-.18-.702-.26-1.425-.34-2.163-.32-.414.01-.787-.087-1.133-.308-.06-.04-.125-.09-.193-.102-.85-.14-1.277-.81-1.745-1.417-.414-.538-.497-1.21-.55-1.844-.035-.422.165-.88.485-1.228.533-.58 1.127-1.094 1.74-1.586.58-.465 1.157-.933 1.75-1.38.558-.418 1.102-.866 1.813-1.026.16-.036.316-.124.447-.223.265-.2.492-.146.744.03.59.414 1.23.75 1.7 1.328.23.28.623.25.97-.024.737-.58 1.62-.785 2.503-.992.204-.048.42-.06.605-.16.53-.284 1.096-.447 1.69-.416.653.035 1.14-.318 1.64-.63.45-.28.858-.36 1.3-.02.128.096.278.15.442.14 1.34-.095 2.68.043 4.02.01.767-.02 1.57.062 2.287.46.308.172.66.27 1.025.275.275.005.496-.08.627-.332.13-.248.33-.36.606-.377.252-.014.487-.097.72-.203.79-.362 1.627-.35 2.47-.286 1.13.086 2.22.44 3.35.514.698.045 1.334.322 2.006.456.137.027.25.105.36.185.195.142.396.27.627.353.296.105.536.282.68.573.04.085.09.177.16.232.432.34.394.797.327 1.262-.04.272-.32.442-.743.52-.98.184-1.937-.007-2.896-.16-.36-.057-.72-.14-1.058-.293-.153-.07-.324-.077-.493-.082-.733-.023-1.466-.045-2.196-.12-.466-.048-.674.072-.84.442-.198.447-.137 1.023.132 1.273.128.12.277.117.44.112 1.672-.052 3.343-.21 5.018-.093.073.005.153.004.216.035.79.387 1.528.835 1.904 1.687.22.5-.236 1.17-.803 1.383-1.12.42-2.29.346-3.44.435-.757.06-1.5.168-2.24.32-.447.09-.81.58-.752.985.092.662.54 1.153 1.084 1.085.934-.118 1.88-.142 2.804-.35.328-.072.657-.122.997-.106.38.02.747-.067 1.12-.125.67-.104 1.35-.15 2.027-.2.234-.017.345.178.404.377.065.212.14.408.285.586.203.25.125.52-.045.756-.264.364-.543.717-.823 1.07-.064.08-.145.167-.237.202-.652.246-1.236.674-1.96.73-.134.01-.28.032-.395.094-.678.362-1.42.435-2.163.46-.547.02-1.082.067-1.615.206-.7.182-1.443.165-2.118.024-.947-.198-1.67-.812-1.98-1.788-.182-.572-.28-1.16-.256-1.765.044-1.165-.093-2.32-.198-3.477-.005-.052-.005-.11-.028-.154-.42-.808-.29-1.7-.396-2.557-.043-.353-.05-.71-.09-1.064-.047-.423-.587-.837-1.014-.678-.605.225-1.262.155-1.9.17-1.13.03-2.26.004-3.384.157-.357.047-.916.525-.95.857-.125 1.274-.403 2.523-.587 3.787-.122.84-.144 1.69.064 2.5.17.66.323 1.345.696 1.942.246.394.35.85.512 1.28.177.473-.058.874-.637 1.264-.388.262-.695.224-1.116-.075-.654-.465-.993-1.144-1.316-1.84-.42-.908-.757-1.837-.81-2.85-.03-.535-.245-1.04-.285-1.575-.034-.522-.04-1.046-.032-1.78z"/>
  <path d="M140.94 6.438v-.03c.01-.467-.173-.986.364-1.304.402-.24.758-.555 1.25-.63.386-.058.766-.114 1.156-.1.22.006.444.01.66-.027 1.644-.287 3.28-.006 4.916.086.738.04 1.413.392 2.13.505.593.093 1.073.458 1.655.538.03.004.06.02.087.038.63.404 1.35.67 1.9 1.186.335.313.65.65.983.967.44.42.855.856 1.194 1.365.135.203.34.23.55.086.157-.11.294-.242.353-.43.235-.732.673-1.362 1.03-2.033.028-.055.074-.107.083-.165.09-.552.514-.71.97-.788.35-.06.702-.114 1.05-.19.845-.188 1.64.074 2.436.29.15.04.298.106.45.13 1.295.194 2.296.912 3.1 1.874.418.5.743 1.107.912 1.767.104.405.33.77.404 1.188.115.66-.016 1.28-.282 1.888-.172.393-.38.766-.563 1.152-.38.8-1.014 1.375-1.663 1.936-.19.163-.42.277-.62.43-.925.71-1.985 1.16-3.08 1.516-.61.2-1.254.274-1.845-.13-.066-.046-.156-.064-.237-.075-1.017-.145-1.642-.8-2.132-1.633-.047-.08-.08-.175-.143-.24-.23-.242-.337-.523-.327-.855.008-.284-.122-.485-.39-.582-.264-.096-.477.02-.652.198-.463.468-1.08.658-1.655.914-.225.1-.477.147-.7.27-.373.21-.79.267-1.208.313-.168.02-.343.033-.478.138-.303.236-.646.328-1.022.346-.328.015-.633.11-.928.263-.356.183-.746.265-1.145.314-.656.08-1.003.555-.965 1.213.05.863-.395 1.426-1.226 1.54-.356.05-.773-.105-1.082-.403-.405-.39-.8-.782-1.277-1.105-.437-.298-.523-.84-.46-1.363.025-.218.064-.435.06-.655-.01-.45.08-.877.315-1.263.205-.336.31-.696.245-1.08-.118-.713.035-1.42.02-2.13-.02-.935-.176-1.856-.212-2.788-.02-.547-.517-1.006-1.13-.638-.48.287-1.023.292-1.558.263-.583-.032-1.262-.756-1.294-1.356-.013-.24-.002-.48-.002-.722h.006zm7.122 4.24c.023.668.016 1.336-.01 2.007-.027.627.297.832.903.683.573-.14 1.073-.486 1.657-.57.422-.062.81-.204 1.185-.392.112-.056.227-.114.348-.143.827-.198 1.533-.65 2.25-1.075.41-.244.482-.745.212-1.144-.314-.464-.83-.66-1.274-.937-.6-.374-1.277-.592-1.945-.833-.532-.192-1.062-.292-1.613-.345-.27-.027-.558.01-.81-.067-.543-.166-.902.226-.904.77l.002 2.044zm17.58.082c-.005-.552-.41-1.014-.98-1.15-.202-.047-.415-.055-.602-.162-.686-.392-1.33-.21-1.96.148-.082.047-.153.105-.205.19-.558.882-1.074 1.784-1.394 2.787-.137.432.118.99.54 1.148.112.043.222.036.335-.006.43-.158.874-.29 1.294-.473 1.012-.443 1.96-.99 2.715-1.823.18-.2.248-.43.256-.657z"/>
  <path d="M69.024 16.44c.108-1.46.19-2.757.358-4.045.08-.62-.04-1.233-.026-1.85.003-.146.007-.295-.014-.44-.078-.542.23-.88.61-1.186.18-.147.398-.2.59-.105.616.308 1.024-.033 1.402-.432.232-.245.48-.467.733-.686.23-.2.467-.204.73-.09.797.344 1.426.866 1.803 1.667.28.596.578 1.178.776 1.815.115.37.198.767.4 1.114.203.352.33.366.626.1.535-.48.796-1.114 1.065-1.756.34-.81.64-1.64.88-2.48.194-.675.476-1.314.673-1.985.113-.383.18-.78.6-1.01.547-.297 1.25-.17 1.735.236.477.4.756.9 1.027 1.428.135.263.258.526.273.828.01.192.06.368.187.522.108.132.173.294.174.464.005 1.09.393 2.117.54 3.184.027.207.07.414.084.622.02.33.098.637.26.93.09.162.136.35.197.527.065.19.156.356.28.52.457.598.786 1.27.612 2.035-.152.665-.877 1.182-1.707.762-.717-.363-1.202-.955-1.628-1.64-.474-.762-.578-1.627-.87-2.437-.03-.078-.053-.162-.098-.23-.1-.147-.2-.32-.406-.302-.2.017-.254.206-.3.363-.39 1.328-1.135 2.462-1.926 3.573-.097.135-.175.284-.27.42-.577.832-1.652.898-2.473.473-.74-.382-1.21-1.044-1.577-1.774-.216-.43-.412-.87-.543-1.338-.034-.12-.122-.198-.252-.202-.134-.004-.21.084-.256.197-.024.058-.045.12-.05.18-.12 1.138-.523 2.213-.74 3.33-.08.425-.174.854-.27 1.28-.148.64-1.077 1.05-1.676.77-.762-.358-1.188-.975-1.334-1.78-.106-.572-.148-1.157-.198-1.576z"/>
  <path d="M187.8 13.155c-.017.21-.03.46.04.707.205.698-.216 1.224-.496 1.786-.045.09-.146.155-.254.172-.622.1-1.244.135-1.78-.27-.448-.342-.54-.882-.645-1.392-.198-.958-.175-1.936-.21-2.906-.026-.72.098-1.45.035-2.165-.054-.62.115-1.22.048-1.833-.01-.1.015-.212.052-.308.19-.5.354-1.007.36-1.55 0-.156.11-.25.218-.33.21-.155.428-.3.648-.442.154-.1.326-.1.48-.01.457.27.924.516 1.256.968.383.522.82 1.003 1.235 1.503.338.407.508.915.803 1.346.774 1.134 1.576 2.246 2.736 3.032.263.178.4.152.575-.11.195-.288.314-.62.22-.953-.153-.55-.164-1.096-.182-1.664-.03-.923.006-1.843-.006-2.763-.014-1.026.056-2.052-.04-3.08-.057-.625.45-1.29 1.047-1.483.277-.09.543-.217.85-.19.487.042.93.19 1.246.58.533.654.853 1.35.83 2.257-.026 1.076-.005 2.158-.064 3.234-.052.958.1 1.9.113 2.85.01.59.315 1.102.48 1.65.23.755.112 1.124-.635 1.326-.776.21-1.1.76-1.38 1.404-.21.484-.578.844-.958 1.19-.17.155-.397.16-.62.18-.795.068-1.47-.247-2.067-.7-.597-.454-1.25-.843-1.77-1.395-.45-.48-.892-.97-1.336-1.46-.124-.134-.214-.356-.444-.262-.224.09-.363.285-.382.536-.013.166-.003.335-.003.545z"/>
  <path d="M19.204 12.23c.02 0 .09-.016.123.01.463.375 1.074.507 1.474 1.006.967 1.205.83 2.658.967 4.046.073.728.06 1.465.162 2.192.034.25.096.495.207.723.098.2.247.34.492.323.226-.016.325-.182.378-.368.24-.833.695-1.566 1.063-2.34.44-.922.91-1.818 1.187-2.824.258-.94.574-1.88.99-2.772.132-.282.318-.543.503-.796.21-.286.867-.366 1.22-.16.308.18.61.372.908.564.144.093.257.224.308.388.087.283.17.558.43.746.105.077.077.21.03.32-.253.62-.49 1.25-.732 1.872-.26.668-.667 1.26-.855 1.976-.236.896-.72 1.715-1.16 2.533-.366.675-.57 1.415-.923 2.094-.16.308-.368.61-.29 1 .03.156-.122.26-.242.344-.227.157-.36.37-.43.634-.155.583-.506 1.08-.74 1.626-.315.73-.646 1.45-.996 2.164-.378.77-.786 1.523-1.18 2.283-.053.102-.114.202-.154.31-.38 1.03-.828 2.032-1.304 3.018-.28.583-.772 1.013-1.36 1.306-.217.108-.683-.115-.914-.416-.115-.15-.226-.3-.344-.448-.114-.142-.146-.294-.09-.47.44-1.35.746-2.74 1.34-4.043.316-.692.494-1.45.827-2.137.297-.612.417-1.285.775-1.88.39-.648.267-1.183-.257-1.744-.266-.286-.535-.558-.536-.99 0-.11-.048-.23-.107-.326-.545-.882-.66-1.91-.973-2.87-.14-.423-.144-.867-.184-1.304-.077-.836-.253-1.654-.396-2.48-.128-.74-.16-1.5-.183-2.25-.01-.433.498-.858.964-.862z"/>
  <path d="M96.55 20.074c-.335 0-.67-.006-1.006 0-.384.01-.723-.093-1.005-.365-.053-.05-.114-.104-.18-.125-.632-.198-.883-.73-1.126-1.27-.05-.114-.06-.252-.128-.353-.363-.545-.39-1.16-.392-1.78-.002-.35-.16-.678-.145-1.025.07-1.475.35-2.882 1.106-4.194.402-.696.81-1.386 1.24-2.064.393-.62.996-1.015 1.63-1.342.443-.23.902-.445 1.412-.507.602-.073 1.167.048 1.71.304.065.03.13.085.2.088.657.03 1.216.33 1.787.617.346.173.613.44.895.68.796.67 1.524 1.428 2 2.356.44.858.865 1.75.72 2.777-.024.17-.047.333-.137.477-.33.532-.606 1.1-1.043 1.563-.223.236-.41.508-.633.738-.287.294-.655.5-.97.772-.6.52-1.24 1-1.924 1.398-.473.276-.925.613-1.475.752-.263.066-.47.26-.733.35-.592.21-1.202.127-1.805.152zm.087-3.945c.557-.02 1.064-.195 1.546-.467.473-.267.94-.554 1.44-.76.473-.197.868-.49 1.27-.787.375-.275.652-.65 1.01-.942.436-.354.52-.73.18-1.175-.578-.758-1.217-1.456-2.308-1.37-.04.002-.083-.008-.125-.013-.6-.066-.696.005-.902.565-.14.38-.36.712-.75.88-.505.22-.83.626-1.114 1.066-.45.7-.72 1.483-1.003 2.26-.14.39.09.725.505.74.085.003.168 0 .252 0z"/>
  <path d="M169.765 10.176c-.086-1.1.107-2.193.007-3.294-.04-.456.13-.84.472-1.148.292-.263.56-.3.882-.08.268.183.517.392.827.507.102.04.168.132.21.226.24.522.52 1.027.655 1.59.047.2.027.397-.023.592-.06.234.02.418.217.54.196.124.39.068.55-.076.472-.425.828-.91 1.01-1.546.182-.628.47-1.22 1.23-1.37.25-.05.453-.012.64.15.304.258.59.534.85.838.175.204.217.465.315.704.365.885-.03 1.757.016 2.633.035.676.376 1.21.84 1.662.218.213.525.206.79.036.725-.466 1.136-1.125 1.185-1.996.008-.148-.007-.292-.045-.435-.032-.12-.08-.248-.072-.368.067-.868-.07-1.734-.008-2.6.023-.326.124-.642.268-.93.235-.47 1.018-.565 1.42-.175.588.573.972 1.225 1.1 2.083.25 1.672.21 3.34.147 5.014-.003.073-.01.15-.035.216-.354.877-.776 1.724-1.52 2.334-.533.437-1.136.776-1.812.98-.558.167-1.05.087-1.513-.25-.112-.08-.233-.135-.367-.17-.634-.167-1.12-.534-1.492-1.073-.332-.48-.77-.88-1.026-1.42-.115-.246-.512-.23-.694.032-.422.608-1.055 1.016-1.486 1.613-.207.286-.563.27-.863.315-.68.105-1.317-.012-1.82-.535-.077-.082-.15-.18-.19-.284-.305-.744-.647-1.48-.663-2.306-.013-.668-.002-1.338-.002-2.008z"/>
  <path d="M10.74 24.278c-.47.013-.94-.05-1.412.012-.24.032-.466-.047-.642-.204-.312-.28-.605-.59-.79-.968-.15-.307-.223-.65-.4-.952-.11-.19.028-.324.175-.476.604-.624 1.367-.537 2.114-.514.334.01.643-.032.94-.186.39-.2.843-.18 1.237-.35.447-.192.828-.506 1.118-.88.33-.424.044-.943-.5-.995-.2-.02-.393-.053-.574-.145-.055-.028-.123-.07-.176-.06-.51.102-1.04-.084-1.543.11-.235.092-.48.16-.733.17-1.467.064-2.912.34-4.375.433-.424.028-.788-.166-1.13-.335-.51-.253-.982-.603-1.308-1.096-.454-.686-.22-2.12.345-2.7.694-.714 1.424-1.384 2.164-2.047.22-.197.466-.354.687-.547.82-.718 1.725-1.336 2.707-1.782.768-.35 1.594-.65 2.48-.598.083.005.17.024.242.06.516.27 1.076.407 1.626.577.326.1.605.468.596.768-.008.278-.213.486-.6.594-.155.043-.295.104-.422.202-.134.102-.285.182-.45.216-.917.187-1.708.646-2.502 1.115-.384.228-.735.474-1.04.795-.146.152-.333.255-.528.337-.17.072-.296.194-.4.342-.123.172-.188.362-.102.562.085.197.286.16.444.148.93-.064 1.86-.037 2.79-.014.735.018 1.433.103 2.118.464.44.23.953.34 1.39.618.79.505 1.507 1.06 1.99 1.907.29.51.405 1.016.404 1.58 0 .508-.093.96-.484 1.343-.265.26-.5.564-.635.927-.07.188-.215.272-.405.3-.358.056-.68.186-.97.413-.224.174-.483.29-.78.306-.338.017-.584.268-.89.374-.58.2-1.18.16-1.774.174z"/>
  <path d="M106.584 14.17c-.052-.632.128-1.252.14-1.865.018-.794.116-1.588.068-2.383-.036-.6.02-1.205.123-1.783.125-.708.552-1.266 1.148-1.728.854-.662 1.834-1.056 2.818-1.418.948-.348 1.956-.504 2.975-.575.684-.05 1.36-.02 2.03.06.54.06.98.407 1.348.8.214.228.412.474.636.694.414.408.58.96.847 1.455.076.14.017.284-.066.414-.37.584-.786.758-1.46.587-.19-.047-.397-.11-.547-.23-.297-.236-.63-.264-.977-.25-.212.01-.41-.02-.62-.063-.38-.077-.777-.003-1.144.078-1.17.257-2.22.798-3.18 1.502-.388.285-.538.745-.56 1.22-.018.407.296.72.727.76.787.073 1.572.232 2.364-.008.236-.073.5-.025.748.037.284.07.565.15.857.19.663.088.752.65.892 1.148.088.313.033.61-.14.903-.355.596-.786.983-1.51 1.195-.94.276-1.897.308-2.843.473-.637.11-.886.415-.997 1.182-.03.215.016.44.005.66-.034.663-.023 1.344-.478 1.9-.26.315-.596.447-1.007.338-.09-.024-.185-.04-.28-.044-.584-.034-.912-.358-1.118-.893-.143-.37-.337-.718-.41-1.114-.037-.206-.113-.41-.116-.615-.008-.456-.09-.89-.25-1.318-.158-.427-.007-.874-.026-1.31z"/>
  <path d="M135.733 16.108c-.05-.107-.024-.248-.035-.373-.017-.188-.01-.39-.125-.545-.348-.463-.57-1-.88-1.483-.176-.27-.253-.547-.167-.864.044-.162.09-.332 0-.49-.154-.273-.28-.576-.488-.802-.462-.5-.698-1.13-.932-1.73-.262-.673-.35-1.415-.524-2.124-.177-.72-.42-1.398-.71-2.07-.078-.182-.154-.37-.31-.505-.426-.37-.844-.75-1.31-1.075-.293-.204-.55-.213-.835-.01-.145.103-.29.205-.408.34-.495.565-.8 1.246-1.142 1.9-.277.53-.636.9-1.222 1.08-.345.108-.774.165-.855.664-.102.634-.446 1.19-.66 1.788-.155.438-.314.894-.552 1.296-.303.51-.503 1.06-.72 1.6-.4 1.004-.873 1.966-1.43 2.892-.27.45-.45.94-.37 1.493.035.245.006.5.006.752h.015c0 .22-.01.44 0 .66.04.793 1.03 1.57 1.79 1.356.558-.158 1.046-.46 1.327-1.023.247-.495.52-.98.81-1.45.254-.417.596-.768.793-1.235.134-.316.31-.717.72-.78 1.056-.162 2.08-.483 3.144-.607 1.1-.128 1.362-.022 1.9.96.235.428.593.756.908 1.115.22.252.522.455.87.54.422.106.795-.01 1.103-.297.282-.257.482-.556.288-.972zm-5.572-4.97c-.16.018-.43-.16-.555-.16s-.143-.233-.16-.35-.18-.566-.073-.512c.108.054.25-.067.323-.045.072.023.18-.12.305-.002.093.086.16.353.16.496 0 .143.162.556 0 .574z"/>
</svg>
