<!--
  SVG Music Logos
  Massacration - Gates of Metal Fried Chicken of Death v1.0.1
  https://github.com/tiagoporto/svg-music-logos
  Copyright (c) 2016-2019 Tiago Porto (http://tiagoporto.com)
-->
<svg xmlns="http://www.w3.org/2000/svg" viewBox="0 0 200 74">
  <g class="massacration__border">
    <path d="M140.307 8.477c-.392-.294-.98.523-1.633.85-.653.326-1.306.652-2.058.783-.098-.196-1.73-2.254-2.156-2.678-.425-.425-1.862-1.208-2.156-1.143-.294.064.523 1.47 1.012 2.024.49.555 1.078 1.73 1.404 2.58-1.208.786-3.854 1.176-5.356 1.214s-4.932-1.312-5.88-1.606-3.46-1.208-4.245-1.862-1.863-1.208-1.993-1.013 2.384 2.32 3.56 3.033c1.176.714 2.156 2.91 2.417 4.185s.882 3.266 1.11 4.605c.23 1.34-.294 4.475-.163 5.716.132 1.24.47 3.337.295 4.605-.26 1.906-.163 3.528 0 3.822s.653-.098.947-.72 1.143-.39 1.83.1 2.285 1.893 2.804 1.926c.52.033.102-2.123.2-3.2.098-1.08-.36-4.835-.5-5.945-.143-1.11.598-.555 1.023-.555.424 0 .456.425.582 1.34.125.914.005 2.97 0 4.18-.005 1.208.3 3.135.593 3.462.294.327 1.34-.196 2.286-.145.948.05 2.353 2.398 2.58 3.076.23.68.295 2.132.785 2.263.49.13.49-1.437.597-2.45s-.63-3.005-.63-4.573c0-1.568-.784-4.41-.75-6.37.032-1.96-.654-4.866-.916-6.057s-.26-3.414-.327-4.296.424-2.254.718-2.744c.294-.49 2.352-2.515 2.842-2.81.492-.29 1.362-1.457 1.177-1.596zm-9.994 12.547c-.294-.004-.708-.07-.567-.56.142-.49.185-.805.12-1.103-.09-.414-.343-.834-.305-1.052.04-.225.19-.72.487-.588.298.13.33.5.396 1 .065.502.196 1.09.196 1.417s-.033.89-.327.887z"/>
    <path d="M163.53 7.693c.24.12-.588.49-1.078 1.372-.49.882-1.83 2.058-1.992 4.017-.163 1.96-.686 3.037-.686 4.083 0 3.658.425 4.932.392 6.402-.033 1.47.13 2.762-.23 3.324-.358.563-.424.727-.162 1.086s.86 1.372.92 2.188c.06.817-.332 2.842-.332 4.115s.425 2.285.163 3.037-1.568 3.527-1.698 4.9c-.13 1.37-1.27 6.433-1.664 6.172-.394-.262-.002-1.08-.165-2.712-.163-1.633-3.135-8.752-3.135-10.892 0-4.72.457-5.732.686-6.94.228-1.21-.556-3.202-.393-4.018.163-.817.653-2.842.425-3.82-.23-.98-.686-2.94-.588-3.855.098-.915.23-2.058.294-2.613.065-.555-.26-1.862.294-1.96.555-.098 2.025.21 3.103-.303 1.078-.513 2.776-1.297 3.723-2.277.946-.98 1.86-1.437 2.122-1.307z"/>
    <path d="M155.495 6.81c.23.05-.407 1.21-.71 1.7s-1.74 2.318-1.838 3.167c-.098.85-.678 2.482-.617 3.233.06.75 1.792 4.54 1.204 4.77s-1.568-.752-1.894-.72-2.58-.882-2.678-.555c-.098.327.392 4.37.163 6.006-.23 1.637 0 4.38.065 5.49s.523 4.182.523 4.884 0 1.73-.425 2.327-2.156 2.883-2.22 3.44-.883 3.624-1.307 3.592c-.424-.033-.652-.89-.914-1.638-.26-.747-2.515-4.568-2.58-5.972-.065-1.404.392-5.258.425-6.467.034-1.208-.424-5.598-.293-6.18s.183-1.442-.137-1.86.17-3.196-.45-3.555c-.622-.36-1.144-.23-1.47.098s-2.418 2.778-2.875 2.647-.384-.814 0-1.503c.686-1.232.49-3.233.425-3.79-.065-.554-.49-2.84-.392-3.33.098-.49.882-1.26 1.24-1.316.36-.056 1.046.76 1.928.86s1.437.293 2.058.26c.62-.033 1.875-.425 2.538-.294s1.022.196 1.84-.163c.816-.36 1.828.005 2.677-.44s3.004-2.63 3.46-2.958 1.798-1.828 2.255-1.73z"/>
    <path d="M198.74 2.043c-.213-.078-1.47.957-2.206 1.706-.85.865-1.864 1.148-2.84 2.21-.702.762-1.845 2.092-3.12 2.403-1.274.31-2.172 1.257-3.3 1.34-1.35.097-3.113-2.227-3.46-2.01-.35.218 1.877 2.368 2.36 6.13.13.996-.13 3.047-.39 3.178s-2.266-3.483-2.44-4.223c-.174-.74.218-1.83-.044-2.265-.26-.435-.784-.044-1.48-.13-.698-.088-1.83-.306-2.92-.567-1.088-.26-3.047-2.352-3.483-2.7-.435-.348-2.44-1.785-3.223-2.352s-1.698-.218-.392.48c1.306.696 3.745 5.878 3.81 6.357.065.48.104.686-.282.697-1.262.037-2.613-2.526-3.092-2.57-.48-.043-2.047 1.264-2.613 1.35-.566.088-3.527-.173-3.963-.195-.435-.022-1.09-.588-1.524-.718-.436-.13-.34-.045-.348.732-.022 1.903-1.132 2.708-1.873 3.362-.74.653-1.132.435-1.22.784-.086.348 1.003.566 1.002 3.18 0 1.178.304 6.052.174 7.915-.13 1.863.044 7.848-.13 9.33-.175 1.48.173 1.915.913 2.09.74.173 2.09 1.785 2.483 2.307.392.523.697 1.22 1.002 1.263.305.044.348-.305 1.09-.044.74.26 1.61 2.482 1.872 2.265.26-.218.61-.435 1.09-.087.478.35 1.393 2.266 1.872 2.09.48-.173-.044-2.568 0-3.09.044-.524 1.437-2.875 1.916-3.354.48-.48 1.176-3.397 1.35-4.006.174-.61-.087-2.787-.307-4.006-.22-1.22.046-3.57.176-4.5.132-.93-.13-6.213-.173-7.128-.044-.915.61-4.965.587-5.487-.022-.524.414-1.133.59-.524.173.61-.088 7.055-.088 8.536 0 1.48.523 6.01.523 7.49 0 1.48-.35 7.752-.567 8.97-.218 1.22-.48 3.66 0 4.253.48.594 1.437 2.367 1.61 2.933.175.566 1.83 1.742 1.96 2.874.132 1.132.313 3.965.828 4.094.35.087.148-.73.284-1.568.13-.806.377-1.613.305-2.548-.142-1.83.417-2.675.456-3.07.087-.87 1.002-3.615 1.09-4.486.086-.87-.393-3.702-.393-4.747s-.13-4.66 0-5.4c.13-.74-.392-6.227-.392-6.837 0-.61.045-1.568.436-1.22.392.35 2.352 8.275 3.18 11.513.826 3.238-.045 7.91 0 10.13.043 2.222-.785 4.835-.785 5.924s2.745 10.147 3.267 12.455c.523 2.308.305 3.266 1.002 3.484.696.218.26-3.615.304-5.618.044-2.003.784-3.44.87-5.313.088-1.873.916-4.485 1.177-5.66s-.217-1.874-.173-3.79c.044-1.916.566-7.186.697-9.798.13-2.613-.958-12.65-.893-13.827s.88-3.328 1.01-5.124c.146-2.02.166-4.61 1.08-6.01s3.234-5.13 4.084-5.98 2.584-2.534 1.665-2.873zM169.8 31.765c-.217.61-1.393 1.83-1.74.392-.35-1.437.043-4.514-.22-5.763-.26-1.25-.434-4.776-.217-5.69.218-.916-.284-3.267-.1-3.572.187-.305 1.188-.958 1.667-.784.275.1.392 1.176.392 1.742 0 .566-.174 6.775.218 8.047.393 1.273.218 5.018 0 5.628z"/>
    <path d="M122.545 28.825c-.093-1.437-.855-2.482-.855-3.723 0-1.24-.75-1.927-.817-2.26-.065-.335 1.078-1.137 1.306-1.626s.914-2.875 0-6.043c-.916-3.168-4.28-3.495-4.998-3.67-.72-.178-2.613 1.45-3.952 1.482-1.34.033-3.472-2.26-3.985-2.32-.85-.097-1.306.837-1.404 1.993-.047.562.948 3.364 1.144 4.18.196.818-.196 3.66-.416 4.64-.22.98.71 2.547.84 3.07.13.522-.098 1.24-.527 1.534-.428.294.07 4.246.005 5.846s.36 5.333.653 5.258c.294-.075.19-1.862.403-2.548s2.178-2.45 2.832-2.413c.653.036 1.862 1.728 2.188 1.597s-.098-1.404-.13-1.96c-.034-.555.424-1.666.366-2.515-.058-.85-.563-3.397-.66-3.79-.1-.39.685-.652 1.093-.685.407-.033 1.224.294 1.714 1.264s0 2.786-.13 3.472.228 2.32.554 2.616c.327.297.098-.896.72-.983.337-.046 3.657 4.345 4.152 4.41.497.067-.002-5.388-.095-6.825zm-5.786-8.98c-.22-.1-1.765.215-2.157.01-.392-.208.033-1.612-.196-2.07-.273-.546-.13-.898.392-.688.522.21 1.61.106 1.872.31.26.205.26 1.032.305 1.315.043.283 0 1.225-.218 1.124z"/>
    <path d="M100.907 17.097c1.002.253 1.807.02 1.938.885.082.545.58 1.21.67 1.617.166.743.218 1.335.528 1.142.48-.3.114-1.553.68-2.642.566-1.09 2.298-6.176 3.332-7.172 1.53-1.475 2.477-3.418 2.128-3.55-.348-.13-1.1 1.606-2.157 1.64-.305.01-4.593-3.763-4.68-3.513-.142.408 2.635 4.578 2.57 5.128-.08.653-1.09 1.276-2.396 1.297-1.306.02-2.744.935-3.745.89-1.002-.043-3.484-.38-4.05-.712-.566-.332-2.14-1.222-2.768-1.213-.63.01-1.108-.59-1.674-.812-.566-.223-4.398-2.935-4.442-2.69-.043.246 2.31 2.533 3.18 3.24.87.707 2.956 2.1 2.937 3.06-.02.957.068 3.526.634 4.485.567.958.785 1.374.785 3.038s.282 6.136-.13 6.63c-.785.935-3.31 5.072-3.485 5.464-.145.326-1.71 1.287-1.566 1.76.145.47 1-.298 1.337-.464.363-.178 1.25-.57 1.972-1.1.754-.554 1.342-1.246 1.698-1.28.697-.07 2.352-.244 2.787-.81.435-.566 1.263-1.35 1.938-1.263.675.087 1.328.784 2.156.653.828-.13 2.31-.435 2.92-.087.33.188.988.1 1.567.76.487.558.895 1.842 1.24 2.33.85 1.2 1.286 2.962 1.547 2.723.26-.24-.436-2.548-.305-3.288.13-.74-.35-4.094-.306-4.66.044-.566-.64-2.613-.604-3.484.037-.87.342-3.44-.398-3.44s-1.96.873-2.265 1.44c-.305.565-2.177 2.83-2.744 2.786-.566-.044-2.265-.227-2.395-3.64s.567-5.403 1.57-5.15z"/>
    <path d="M88.497 35.28c-.284 0-1.414.705-1.657 1.253-.26.588.407.936.74 0 .132-.366.71-.797.93-.872.165-.055.27-.38-.013-.38z"/>
    <path d="M23.303 14.17c.403.093.794.623 1.372 1.307.354.42.958.544 1.07 1.243.37 2.286.268 6.592.452 7.304.616 2.373.634 4.43.634 6.608s.175 9.798.262 10.147.697 3.918.348 4.79-1.045 4.746-1.045 5.79c0 1.046-1.156 7.274-1.427 6.795s.252-4.31-.358-5.226c-.61-.916-2.44-5.357-2.96-5.706-.524-.348-.524-1.96-.393-4.355.13-2.396.174-6.577.13-7.274-.043-.697-.275-2.57-.202-3.615.073-1.044-.145-1.96-.19-2.264s-.74-1.742-1.262-1.61c-.283.07-.413 1.23-.74 1.872-.63 1.24-.317 2.232-.84 2.314s-1.38-1.182-1.643-1.4c-.26-.218-1.547-2.395-1.82-2.134-.27.26.23 4.485 0 5.618-.227 1.132-.068 4.747-.082 6.097-.014 1.35-.037 4.79.083 5.792.12 1.002.644 4.66.644 6.14 0 1.48.784 2.96.784 3.484s-.566 3.004-.653 4.05-1.655 12.15-2.003 12.018-.435-2.352-.74-4.18c-.305-1.83-2.265-8.493-3.527-8.928-1.263-.435-.338-1.97-.316-4.518.008-1.028.007-5.12.097-7.61.03-.795.402-1.72.392-2.025-.014-.39-.327-1.155-.328-2.156-.002-2.246.162-5.15-.11-6.01-.39-1.24-.478-3.505-.26-5.247s.442-4.905-.044-6.968c-.87-3.7-1.828-6.29-2.85-7.205-.64-.572-1.46-.696-1.94-1.22-.48-.522-1.306-1.615-1.61-2.777S.57 10.34 1.137 10.165c.566-.174 2.07 2.193 3.33 3.048 1.264.855 5.467 2.542 6.642 2.57 1.85.043 3.604-1.33 4.3-1.003.427.2-.338 2.59-.142 3.94.108.745.784 2.723 1.306 2.81.523.087.875-1.347.98-2.22.523-4.356-.958-4.66-.653-5.053.306-.392.654.503 1.177.507 2.7.023 3.898-.898 5.226-.593z"/>
    <path d="M42.334 33.9c0-1.09-1.22-6.14-1.176-7.634.044-1.493-.566-4.43-.697-5.475-.13-1.044-.173-3.57 0-4.44.175-.872 1.003-1.482 1.08-1.787.076-.305-.208-.915-.383-1.052-.174-.136-.735-1.24-1.154-1.45-.376-.192-.697.87-2.025 1.24-2.002.558-2.96 1.176-5.618 1.35-2.656.174-6.663-.915-7.793-1.537-1.13-.623-3.53-2.295-3.922-1.99-.392.303 4.394 2.21 6.315 5.53.314.544.435 2.134.74 3.135.305 1.002 1.132 5.88.967 8.013-.166 2.135.122 7.927-.008 10.627-.132 2.7-.35 4.31-.436 5.705-.087 1.394 2.395 5.095 2.656 6.227.26 1.13.958 3.222 1.195 3.31.237.086.155-1.612.024-2.353-.132-.74-.028-2.724.217-3.33.544-1.35.393-2.723 1.154-4.095.52-.936 1.757-1.674 1.765-2.025.022-1.002-1.023-1.633-1.165-3.135-.07-.738.077-2.44.207-3.223s-.563-5.272-.606-6.185c-.043-.913 1.13-2.22 1.653-2.134.523.088 1.394 3.616 1.35 5.836-.044 2.22-.305 6.685-.218 7.207.087.523 2.308 3.55 2.44 4.333s1.044 2.44 1.305 2.352c.26-.087.044-1.96.044-2.613s.61-3.527.784-4.137c.174-.61 1.437-2.177 1.61-2.787.175-.607-.304-2.393-.304-3.48zM34.55 21.64c-.13.23-.555.49-.784.392s.033-.588 0-.98-.19-2.003 0-1.927c.214.086.49.457.49.686s.424 1.6.294 1.83z"/>
    <path d="M90.804 28.934c-.044-.523-.348-2.265-.323-3.135.026-.872-.242-3.703-.33-4.583-.086-.88.393-5.216.306-5.913-.087-.697.087-3.31 0-3.57-.087-.262-.788-.943-1.437-.872-1.003.11-3.398 1.247-4.563 1.437-.902.146-3.146 0-3.93 0s-4.268-1.656-5.052-2.216c-.784-.56-3.57-2.27-3.745-2.227-.174.044 1.48 2.613 2.265 3.223-.958.218-3.005 2.308-3.44 2.44-.435.13-.97-.396-2.656-.284-1.687.112-2.09-.334-4.27-.68-2.176-.344-4.485-2.26-5.18-2.715-.698-.455-1.808-.865-2.042-.795-.18.054 1.17 1.426 1.823 1.905-.826.784-5.573 3.18-6.575 2.83-1.002-.347-3.79-.086-5.15-.267-1.36-.18-5.388-2.476-6.216-2.878-.828-.403-.306.36.347.85s3.702 7.39 3.963 8.785c.26 1.394.348 4.92.915 5.182.566.26 2.003-1.306 3.048-1.58 1.045-.276 3.527.753 4.05.927.523.173 1.09 3.134 1.48 3.788.393.653-.304 1.35-1.044 1.437-.74.087-1.395 1.83-2.832 1.873-1.437.044-5.174-5.934-5.618-5.836-.392.087.3 1.886.435 3.92.087 1.32-.236 2.868-.305 3.657-.174 2.002-1.633 6.14-2.286 7.14-.653 1.003-1.557 2.57-1.132 2.614.246.025 1.323-1.496 2.46-2.44.832-.69 2.06-.814 2.373-1.088.74-.65 3.114-2.373 5.574-3.33 1.37-.535 4.942-.72 7.09-3.202.45-.52 1.03-2.96 1.118-3.527.087-.566-.174-2.918-.26-3.266-.088-.347-.61-1.393-.235-2.22.375-.827-.2-2.308-.622-3.005-.42-.697-1.45-.915-1.974-.836s-2.526-.69-2.874-.994c-.348-.305-2.482-1.022-2.44-1.394.045-.372 1.656-.392 1.917-.154.26.238 1.784-.238 2.264 0 .48.238 2.7 1.852 3.107 1.896.408.044.51-.653.623-1.41.114-.757-.506-2.597-.622-3.076-.115-.48.552-.915.944-2.24.13.852 1.22 3.416 1.285 3.808.064.392-.023 2.177-.197 2.918-.174.74.13 2.787.435 2.96.305.175 1.002-.565 1.396-.783.395-.217 1.434-.13 2.044.158.61.288 2.177.627 3.018.85.84.223 1.816.996 1.816 1.432 0 .435.915 1.524.784 2.134s-1.083 1.504-1.742 1.524c-1.415.044-3.767-.85-5.226-1.84-.633-.43-1.742-2.297-2.33-2.167-.588.132.49 2.14.196 5.75-.196 2.416-1.96 4.267-2.83 5.05-.872.785-3.485 4.095-3.136 4.4.348.304.523-1.19 3.353-2.766 1.92-1.067 3.92-2.613 5.793-2.765 1.306-.107 3.353-.916 4.53-1.22 1.175-.303 2.133-.435 3.09-.323.96.112 2.7 1.63 2.875 2.675.174 1.045 1.83 3.484 2.086 3.484.257 0 .09-1.132 0-1.85-.09-.72.047-1.895.222-2.592.174-.697-.218-3.048-.222-3.702-.004-.653-.65-2.7-.736-3.266-.087-.566-.87-2.57-1.35-3.875-.48-1.305.348-1.524.174-2.133-.174-.61-2.7-.566-3.223-.653-.524-.087-3.093-1.132-3.572-1.524-.48-.392-1.83-.697-1.742-.958.087-.26 2.09.218 2.482.26.392.045.435-.783.827-.87.392-.087.435.436.87.653.436.218 3.528 2.177 4.25 2.09.375-.045.106-2.047.02-3.135-.088-1.09.13-2.874.966-3.832.838 1.873 2.213 5.836 1.998 6.88-.215 1.046.217 5.532.063 6.39-.326 1.82.022 6.59.002 7.547-.02.958.282 4.834.586 4.965s1.045-2.656 1.474-3.594 1.705-1.327 2.072-1.37c.367-.045 1.06 1.218 1.322 1.262.26.044.27-.745.358-2.003.06-.87-.392-3.832-.436-4.53-.044-.696-.26-1.697-.305-2.48-.044-.785.566-1.743 1.045-1.57.48.175.305 2.745.315 3.877.01 1.132.425 2.744.47 3.484.043.74.826 2.003 1.088 2.09.262.087.567-1.09.654-1.717.087-.63.87-1.29 1.176-1.638.305-.348.697.218 1.35.653.653.435 1.655.218 1.796 0 .144-.22-.14-1.788-.182-2.31zm-7.168-9.09c-.127.032-.682-.197-.65-.654.033-.457.13-1.24.13-1.47s-.103-.664.19-.62c.305.045.465.162.497.39s.13.622.163 1.177c.033.556-.203 1.144-.33 1.176z"/>
    <path d="M27.658 13.507c.252.076 5.585-6.596 5.258-7.576-.13-.393-1.41 1.064-2.907 2.266-2.224 1.784-4.947 3.698-5.26 3.776-.522.13-.12.302.665.592.784.29 1.7.78 2.243.943z"/>
    <path d="M42.095 10.535c-.287.09 1.045.98 1.568.947s2.81-3.005 2.842-3.266c.03-.26-3.79 2.123-4.41 2.32z"/>
    <path d="M62.326 7.352c1.086-1.24-.7 2.726-.896 2.922s-.327.36-.653.36-1.274-.747-1.372-.913c-.098-.165 2.198-1.543 2.92-2.368z"/>
    <path d="M75.964 9.457c-.085-.296 3.527-1.894 4.05-2.058.523-.164-2.058 3.265-2.254 3.232s-1.665-.718-1.796-1.175z"/>
    <path d="M94.908 6.91c.246-.09-2.352 3.102-2.58 3.167-.23.065-1.306-.457-1.34-.686s3.463-2.317 3.92-2.48z"/>
  </g>
  <g class="massacration__lettering">
    <path d="M26.964 11.483c-.205.218.277.906.583.99.306.083 2.283-2.358 2.283-2.747s-2.206 1.057-2.866 1.757z"/>
    <path d="M22.138 15.107c.832.044 1.736 1.55 2.127 1.76.368.195.475.44.46 1.355-.04 2.126-.146 6.65-.157 7.206-.013.72.857 2.453.967 3.462.27 2.475.817 5.618.62 11.725-.06 1.88-.327 3.987-.554 5.977-.257 2.263-.433 4.296-.75 4.28-.134-.008-1.404-3.626-1.862-4.05-.457-.426-.72-1.297-.62-2.407.128-1.46-.034-4.028.032-5.204.065-1.175-.588-6.237-.49-6.793.098-.555-.064-2.432-.13-3.053-.065-.62-.665-.606-1.046-1.78-.185-.572-.523-2.06-.72-1.96s-.718 1.37-.816 1.795-1.208 2.8-1.437 2.775c-.587-.065-3.29-2.537-3.487-2.96-.196-.426-.53-.534-.496.02.033.556.294 7.71.163 8.95-.13 1.24-.49 6.27-.327 6.892.163.62.686 7.153.72 8.33.032 1.175.816 3.722.783 4.54s-1.586 5.943-1.544 7.02c.042 1.08-.285 1.895-.513 1.83-.23-.065-.433-1.664-.622-2.678-.425-2.287-2.352-4.15-2.384-4.574s-.065-6.238 0-7.283-.14-6.5-.038-7.577c.103-1.078.234-4.475.266-5.88.033-1.403-.425-2.383-.457-3.657-.033-1.275.23-8.493 0-9.897S7.67 17.46 7.08 17.003c-.587-.458-1.763-.948-2.22-1.405-.457-.457-2.16-2.275-1.637-2.34.523-.066 1.082 1.164 1.637 1.49.555.327 3.016 1.023 3.767 1.448.75.425 2.733.12 3.32-.01.59-.132 1.765-.49 2.026-.1.26.393-.022 1.754.076 2.31.097.554.968 3.113 1.425 3.603.457.49 1.208 1.828 1.6 1.763s.588-1.568.947-1.764c.36-.197.163-1.863.523-2.385.36-.523.033-2.548.163-3.005s.784-.784 1.47-.817c.687-.032 1.34-.718 1.96-.686z"/>
    <path d="M40.05 28.237c-.19-1.306.313-2.188.085-3.364-.228-1.176-.915-4.18-.425-7.61.237-1.66.087-2.384.512-2.918.18-.227.285-.393-.044-.838-.137-.186-.43-.147-.63-.1-1.67.4-3.136 1.416-5.684 2.222-1.3.41-4.083.13-5.03-.1-.947-.228-2.022-.876-2.22-.75-.417.26 1.98 1.764 1.86 3.168-.062.734.916 3.3.948 4.605.033 1.306-.033 13.195 0 14.24s.588 1.437.588 2.94c0 1.502-.26 2.678-.392 3.43-.13.75-.033 2.024.555 2.48.588.458.653 2.09 1.045 2.124s1.437-4.725 1.666-5.182c.23-.458.915-1.513.915-1.905s-.415-.943-.524-1.894c-.065-.567-.098-3.69-.196-4.703s-.196-5.585-.26-6.565c-.066-.98 1.6-1.34 2.547-1.372.947-.033 2.025 1.404 2.22 3.3s-.064 9.732 0 10.255c.066.524 1.014 1.6 1.144 1.765s.654 2.058.81.75c.153-1.305 1.053-3.396 1.478-4.016s.626-2.42.523-3.855c-.164-2.254-1.376-5.31-1.49-6.108zm-4.606-5.66c-.098.358-1.863.76-2.527.434-.242-.118-.098-3.404 0-3.95.23-1.275.784-1.21 1.372-1.11.423.07.587.554.652 1.077.065.522.6 3.19.502 3.55z"/>
    <path d="M194.45 7.116c.136-.014-2.788 4.094-3.05 5.14s-1.13 3.09-1 6.01.155 16.81.26 19.683c.152 4.158-.697 10.58-1.22 13.586-.522 3.005-.914 6.794-1.218 6.794s-1.22-4.18-1.655-5.88c-.435-1.697-.958-3.222-.87-4.31.086-1.09.272-3.048.316-4.44.044-1.395.38-1.657.467-4.182.087-2.526.022-8.536-.37-10.452s-3.284-8.405-4.16-8.405c-.565 0-.87 2.614-.826 3.746.044 1.132.305 4.333.305 5.596s-.436 2.46-.35 4.115c.088 1.655.524 4.094.436 5.53-.087 1.438-.49 2.44-.615 3.703-.124 1.263-.43 3.223-.778 3.18s-1.785-1.395-1.785-2.004-.435-1.96-.74-2.177-.87-1.482-.653-2.178.784-2.22.74-4.616c-.044-2.395-.523-7.273-.392-8.623.13-1.35.523-7.534.435-8.84s-.435-4.66-.653-5.574-1.655-3.833-1.437-3.877 1.176 1.437 1.96 1.655 4.05.697 4.616.74-.13 1.263.348 2.613 2.44 6.01 3.398 6.228.697-2.308.958-3.135c.26-.827.17-3.135.087-3.832-.174-1.458-1.1-2.062-.855-2.454.122-.196 1.072.103 1.682.103s3.005-.436 3.702-.96c.696-.524 2.482-2.44 2.917-2.484z"/>
    <path d="M159.436 11.297c.254.145-.348 2.44-.348 3.397s-.218 7.708-.174 9.537-.392 4.922-.26 6.185c.13 1.263 1.087 4.616.848 5.748-.24 1.132-1.415 4.616-1.546 5.574s-.653 1.09-.697 0-1.482-4.094-1.917-4.703-.697-2.96-.48-4.31c.22-1.35.48-4.748.654-6.185.174-1.438-.653-8.275-.523-8.972.13-.697.305-2.308.26-2.874-.043-.566-.434-2.308-.086-2.395s1.48 0 2.265-.088 1.698-1.09 2.003-.915z"/>
    <path d="M174.33 26.408c-.044-.958 0-12.542 0-13.195 0-.653-.48-1.045-.915-1.22-.436-.173-1.18-1.04-1.568-1.088-.697-.087-.958.523-1.22.784-.26.26-2.655.39-3.483.304-.827-.087-2.047-.435-2.352-.48-.305-.043-.305 1.438-.523 1.96-.22.524-1.35 1.22-1.525 1.612-.174.392-.044 4.094 0 6.14.044 2.047 0 9.32 0 10.365s.392 4.356.435 4.944c.044.588 1.698 1.415 2.134 1.633.435.218.74 1.437 1.174 1.655.434.218 2.397.87 2.57 1.48.175.61 1.264.828 1.804.262s1.55-2.613 1.855-3.353c.305-.74 1.176-1.784 1.306-2.307s-.087-1.742-.13-2.41c-.042-.67.48-6.127.437-7.085zm-3.484 4.225c-.087.915-.435 2.656-1.09 2.787-.652.13-2.09.174-2.22-.697-.13-.87-.48-4.18-.392-4.92.087-.74-.48-4.574-.348-6.49.13-1.916-.736-4.92-.02-5.095.716-.174 1.885-1.205 2.545-.784.484.308.916.653.96 1.306.043.653.043 6.358.217 7.186.175.827.436 5.792.35 6.707z"/>
    <path d="M60.77 12.564c.348.08 1.36.976 2.095 1.146 1.33.31 3.746.46 4.87.195 2.384-.564 2.724.983 3.16.765.437-.218.83-1.554 1.44-1.563.612-.008 1.136-.606 1.834-.547.697.06.02.805-.11 1.285-.13.48.11 2.658.11 3.138s0 1.266-.48 1.178c-.48-.086-3.58-2.007-4.06-1.963-.48.044-.61.61-1.222.742-.61.13-2.662-.176-3.055 0-.393.174-.567.885-.218 1.228.35.342 1.615 1.303 2.706 1.652 1.092.35 2.97 1.222 3.58 1.31.61.086 1.44.916 2.008 1.003s.524 1.746.742 2.313c.218.567.567 2.837.96 3.404.393.567.393 2.793.524 3.622s.61 2.27.262 2.4c-.35.13-1.615-.917-1.79-1.44-.174-.524-2.356-1.484-2.967-1.44-.612.044-1.84.698-2.754 1.004-.913.306-2.354.044-3.096.306s-1.79.786-2.62.873c-.828.087-2.792 2.008-3.14 2.008s.086-.917 1.352-2.226c1.266-1.31 1.16-2.76 1.596-3.108.436-.35.5-1.78.062-2.392-.436-.61.306-.655.567-.262.262.393 1.15 1.43 2.023 1.43.873 0 2.953-.208 4-.077 1.047.13 2.008-.525 2.008-1.048 0-.524.087-2.943-.655-3.632s-3.49-2.216-3.972-2.61c-.48-.392-1.832.045-2.836-.043-.932-.08-1.463-.104-1.502-.475-.073-.7-.522-1.075-.55-1.49-.018-.29-.257-1.18.028-1.51.16-.186.675-.195.497-1.02-.132-.61-.873-1.047-.786-1.528.088-.48.394-1.09 0-1.397-.392-.305-.843-1.286-.61-1.233z"/>
    <path d="M89.356 24.62c-.13-.785-.087-7.898-.35-8.64-.26-.742.35-3.753 0-4.023-.15-.117-.89.188-1.467.65-.84.67-1.68 1.023-2.2 1.147-.916.218-4.276-.13-4.974-.218-.698-.087-3.01-1.702-3.273-1.57-.35.174.58 1.595.58 2.206 0 .61.86 2.768.99 3.554.132.786 0 2.706-.217 4.015-.218 1.31.393 3.71.61 4.278.22.567.045 2.095-.304 2.53-.35.437-.044 4.103-.044 4.714 0 .61.305 1.397.83.786.523-.61 2.574-1.353 2.923-1.527.35-.174.132-1.22.088-2.08-.044-.86-.35-5.557-.35-6.037 0-.48.548-.693.94-.955.394-.262 1.548-.53 1.94-.05.394.48.674 3.554.587 3.99-.087.437.044 3.376.505 3.474.218.046 1.236-.773 1.54-.99.307-.22 1.82-.057 2.038-.188.22-.132-.26-4.278-.392-5.063zm-5.438-3.927c-.454.218-1.59-.35-1.72-.698-.13-.35.087-2.357 0-2.88-.087-.524.714-1.074 1.2-1.004.714.104 1.113.48 1.026 1.005-.087.524-.063 2.008.012 2.313.076.304-.064 1.046-.518 1.265z"/>
    <path d="M152.293 10.897c.256.097-.87 1.728-.917 2.21-.048.484-.193 2.125 0 2.607.193.483.82 1.93.627 2.124-.193.193-2.51-.386-2.944-.338-.435.048-.87-.048-.87.676v7.674c0 1.786-.29 6.306-.24 7.642s.385 2.577.29 3.042-1.063 1.527-1.16 2.058c-.096.53-.916 2.75-1.35 2.8-.434.047-.724-1.69-1.014-1.98-.29-.29-1.496-1.944-1.496-2.88 0-.933.53-3.298.483-5.23-.048-1.93-.58-6.25-.483-6.89.097-.638.483-1.507.29-1.893s-.58-.58-.53-1.545c.047-.965.715-2.51-.005-3.185-.72-.676-1.878-.676-2.457-.338s-1.544 1.834-1.69 1.544.387-2.317.387-3.185c0-.868-1.11-3.233-1.014-3.62.098-.385 1.594.387 2.173.435.58.048 2.75.386 3.234.627.483.24 1.64-.097 2.268-.338.627-.24 2.317.048 2.8-.193s3.135-2.007 3.618-1.823z"/>
    <path d="M93.373 12.556c.408-.023 2.96.962 4.05 1.223 1.09.26 2.308.696 3.005.434s1.61-1.263 2.57-1.132 2.307-.356 2.612-.527.653-.606.827-.388c.174.218-.74 1.176-.915 1.742-.174.565-.915 3.134-1.306 3.178s-2.09-.356-2.787-.483-2.222.054-2.353.486c-.13.433-.697 2.86-.697 3.65s.392 4.796.87 5.1 1.958.948 2.788.785c2.482-.49 3.44-3.614 4.006-3.527.566.087 0 2.665.218 3.553.218.89 1.35 4.025.653 5.288s-1.045-2.047-1.394-2.22-3.352-.175-4.093-.306-3.702-.348-4.268-.174-3.398 2.656-3.79 2.526.882-2.83 1.552-3.57c.67-.74 1.105-1.786.93-2.745-.173-.96-.696-4.4-.74-5.837-.043-1.437-.262-3.882-.434-4.485-.347-1.218-1.562-2.557-1.305-2.572z"/>
    <path d="M136.328 30.554c-.194-1.114-.63-5.084-.684-6.44-.054-1.356-.866-5.956-.963-7.215-.096-1.26.824-4.262 1.066-4.79.242-.53 1.07-1.194.823-1.213-.7-.052-1.865 1.663-5.218 1.968-1.006.09-5.362-.566-6.06-.756-.696-.19-2.612-1.204-2.743-1.03-.132.174 2.133 2.744 2.31 3.18.175.434.215 1.784.04 2.347-.174.562.26 2.704.218 4.61-.044 1.906.48 6.978.392 8.98-.087 2.004 1.176 1.482 1.655 1.482.48 0 1.655 1.088 2.043 1 .388-.086.178-4.485.178-5.18s-.178-2.707-.178-3.085c0-.38 1.792-.25 2.143-.25.353 0 1.005.677 1.102 1.974.097 1.297-.145 2.817-.242 3.786-.097.968-.048 3.05.387 3.002.436-.048 2.227.387 2.76.565.533.178 1.356 1.47 1.55 1.275.196-.195-.385-3.1-.58-4.214zm-5.682-8.566c-.507.048-1.762-.24-1.81-.772-.048-.53.24-1.353.24-1.86 0-.505-.54-1.277-.246-1.518.295-.24.826-.87 1.164-1.11.512-.366 1.062.145 1.062.87 0 .723.048 2.123.24 2.99.195.87-.143 1.352-.65 1.4z"/>
    <path d="M121.75 29.63c.068-1.218-1.115-3.265-1.028-4.31.087-1.045-.61-2.22-1.032-2.48-.423-.257-.71-.482.292-.673 1.002-.19 1.61-2.16 1.742-3.118.13-.96-.26-2.614-.697-4.007-.436-1.394-2.856-2.396-3.397-2.57-.736-.235-2.134 1.003-3.266 1.35-.935.29-3.005-.696-3.266-1.13-.26-.437-1.96-1.438-2.44-1.133-.478.305 1.133 4.616 1.177 5.88s-.348 2.612-.653 4.005c-.305 1.394 1.35 2.44 1.306 3.266-.044.828-1.002 2.57-1.09 3.006-.086.435.524 1.698.393 3.745-.055.875.698 0 1.438-.26s2.352.174 2.656 0c.305-.174.174-1.655.218-2.265.044-.61-.392-2.57-.464-3.44-.072-.87.073-1.394.464-1.306.392.086 2.177-.132 3.005-.175.827-.044 1.437 2.003 1.437 3.092s-.61 1.394-.516 2.308c.094.915 1.3 1.263 1.7 1.437.402.174 1.82 1.742 2.024 1.698.202-.045-.072-1.7-.003-2.92zm-4.352-9.283c-.097.483-.483.87-1.158.87-.676 0-2.22-.05-2.51-.484-.29-.434.198-1.556.198-2.013s-.334-2.015-.005-2.115c.446-.136 1.93-.458 2.558-.36.628.096 1.497.192 1.545 1.447.048 1.256-.53 2.173-.627 2.655z"/>
    <path d="M57.715 12.793c.28 0 .218 1.964.306 2.575.088.61.48 2.968.263 3.01-.218.045-1.266-1.483-2.793-1.483s-3.928.436-4.888.48c-.96.044-1.353-.188-1.397.56s.38.896 1.266 1.055c1.703.306 3.58 1.658 4.41 1.877s3.14.742 3.468 1.658c.328.917.458 1.964 0 2.182-.458.218-.71.497-.405.977.306.48.54.725.702 1.51.162.787.274 2.794 0 3.754s-.493 1.877-1.453 2.488-5.194 1.964-6.11 2.27c-.917.305-2.75 1.265-3.535 1.788s-3.36 2.444-3.71 2.226c-.35-.218.595-2.105 1.047-3.188 1.24-2.96.737-5.93 1.26-6.336.525-.406 3.15 3.11 4.065 3.065 1.745-.086 1.265-1.308 2.007-1.44.742-.13 2.444-1.134 2.662-1.7.217-.568.785-3.667-.437-4.758s-2.56-1.57-3.156-1.964-1.712-.36-2.354-.267c-.98.142-1.855.573-2.428.573s-.485-1.57-.18-2.62c.306-1.046-1.09-2.967-1.047-3.49.044-.524-.56-1.767-.998-2.073s-1.14-2.37-.88-2.408c.35-.052 2.185.777 2.927.95.742.176 2.224-.048 2.704.3.48.35 1.53.612 2.62.525 1.09-.087 2.226-.83 3.1-.786.87.046 2.398-1.307 2.965-1.307z"/>
  </g>
</svg>
