<!--
  SVG Music Logos
  Coldplay - Parachutes v1.0.0
  https://github.com/tiagoporto/svg-music-logos
  Copyright (c) 2016 Tiago Porto (http://tiagoporto.com)
-->
<svg xmlns="http://www.w3.org/2000/svg" viewBox="0 0 200 33.917">
  <path d="M184.588 18.162l-4.036-7.224c-1.51-2.653-2.672-4.59-3.484-5.814-.808-1.222-1.498-2.073-2.06-2.552H182.025c-.07.418-.043.93.094 1.54.134.606.35 1.205.643 1.796l4.17 8.137-.008.006 4.414-8.142c.302-.554.54-1.153.708-1.797.165-.644.217-1.158.154-1.538h6.298c-.835.737-1.667 1.72-2.5 2.948-.827 1.23-1.867 3.035-3.12 5.417l-3.906 7.352v4.79c0 1.818.07 3.34.22 4.57.147 1.23.41 2.494.793 3.796h-6.397c.37-1.277.627-2.53.776-3.76.146-1.228.22-2.763.22-4.605v-4.918z"/>
  <path d="M149.578 23.083L159.454 2h.014l9.874 21.083c1.143 2.42 2.077 4.244 2.802 5.472.725 1.228 1.434 2.193 2.136 2.893h-7.166c.146-.578.075-1.478-.213-2.7-.286-1.222-.74-2.552-1.35-3.99l-.943-2.23h-10.683l-.138.424c-.737 1.71-1.302 3.386-1.695 5.03-.393 1.646-.503 2.8-.332 3.465H144.526c.786-.786 1.547-1.793 2.284-3.023.74-1.226 1.663-3.008 2.768-5.34zm5.934-4.238h7.534l-3.758-8.716h-.018l-3.758 8.715z"/>
  <path d="M127.043 31.448c.368-1.277.627-2.53.774-3.76.146-1.228.22-2.763.22-4.605V10.938c0-1.805-.074-3.323-.22-4.55-.148-1.23-.412-2.5-.792-3.815h6.393c-.368 1.29-.627 2.546-.772 3.768-.148 1.225-.223 2.756-.223 4.6v17.303c2.176-.087 4-.264 5.474-.534 2.235-.407 4.22-1.1 5.95-2.084l-1.197 2.913-1.217 2.91h-14.39z"/>
  <path d="M107.455 23.083V10.938c0-1.805-.075-3.323-.22-4.55-.15-1.23-.413-2.5-.795-3.815h6.801c3.44 0 6.017.71 7.732 2.128 1.712 1.42 2.57 3.548 2.57 6.386 0 3.058-1 5.295-3.003 6.708-1.88 1.314-4.78 2.014-8.7 2.1v3.19c0 1.817.076 3.34.224 4.57.146 1.228.41 2.493.792 3.795h-6.395c.37-1.278.628-2.53.775-3.76.145-1.23.22-2.764.22-4.607zm4.384-5.38c2.37-.025 4.118-.52 5.243-1.485 1.123-.964 1.685-2.51 1.685-4.633 0-2.077-.518-3.63-1.557-4.662-1.038-1.033-2.594-1.55-4.67-1.55h-.7v12.33z"/>
  <path d="M82.024 23.083V10.938c0-1.805-.073-3.323-.22-4.55-.15-1.23-.413-2.5-.793-3.815h4.919c5.233 0 9.385 1.324 12.457 3.97 3.07 2.65 4.605 6.226 4.605 10.735 0 4.35-1.427 7.798-4.284 10.347-2.855 2.548-6.722 3.823-11.6 3.823h-6.082c.37-1.277.628-2.53.775-3.76.15-1.227.224-2.762.224-4.605zm4.387 5.214c3.6 0 6.492-.97 8.68-2.91 2.185-1.94 3.28-4.497 3.28-7.666 0-3.6-1.037-6.498-3.115-8.697-2.077-2.2-4.822-3.3-8.237-3.3h-.607v22.574z"/>
  <path d="M60.945 31.448c.368-1.277.626-2.53.774-3.76.145-1.228.22-2.763.22-4.605V10.938c0-1.805-.076-3.323-.22-4.55-.15-1.23-.413-2.5-.793-3.815H67.32c-.37 1.29-.627 2.546-.773 3.768-.148 1.225-.222 2.756-.222 4.6v17.303c2.175-.087 4-.264 5.474-.534 2.234-.407 4.218-1.1 5.95-2.084l-1.198 2.913-1.216 2.91h-14.39z"/>
  <path d="M31.295 27.588c-2.702-2.87-4.054-6.472-4.054-10.807 0-4.2 1.44-7.692 4.322-10.475 2.88-2.782 6.49-4.174 10.824-4.174 4.09 0 7.488 1.438 10.192 4.313 2.702 2.873 4.054 6.48 4.054 10.817 0 4.19-1.44 7.673-4.322 10.456-2.88 2.783-6.495 4.174-10.844 4.174-4.078 0-7.467-1.433-10.17-4.302zm17.866-2.174c1.8-1.984 2.7-4.47 2.7-7.455 0-3.538-.985-6.478-2.957-8.817-1.973-2.34-4.45-3.512-7.435-3.512-2.704 0-4.954.994-6.753 2.977-1.8 1.984-2.7 4.475-2.7 7.473 0 3.527.985 6.46 2.958 8.8 1.97 2.34 4.444 3.51 7.415 3.51 2.715 0 4.973-.993 6.773-2.976z"/>
  <path d="M24.7 29.698c-1.634.835-3.078 1.41-4.33 1.722-1.255.313-2.734.47-4.44.47-4.13 0-7.566-1.35-10.31-4.055-2.747-2.7-4.12-6.092-4.12-10.17 0-4.46 1.456-8.163 4.367-11.11 2.913-2.95 6.56-4.423 10.947-4.423 1.387 0 2.662.1 3.823.303s2.355.538 3.584 1.005v4.77c-1.118-.832-2.353-1.473-3.712-1.914-1.358-.442-2.755-.664-4.19-.664-2.876 0-5.27 1.082-7.178 3.244-1.91 2.162-2.865 4.872-2.865 8.127 0 3.267.9 5.983 2.7 8.145 1.8 2.162 4.05 3.244 6.753 3.244 1.817 0 3.43-.266 4.836-.796 1.407-.53 2.86-1.42 4.357-2.664l-.22 4.766z"/>
</svg>
