<!--
  SVG Music Logos
  Grand Funk Railroad - Pointing Finger v1.0.0
  https://github.com/tiagoporto/svg-music-logos
  Copyright (c) 2016 Tiago Porto (http://tiagoporto.com)
-->
<svg xmlns="http://www.w3.org/2000/svg" viewBox="0 0 200 200">
  <path d="M170.57 74.31c-1.322-2.061-2.925-3.716-4.063-6.053-1.787-3.672-3.227-7.431-4.118-11.388-.939-4.168-2.263-8.086-4.671-11.581-5.033-7.305-14.703-8.361-23.909-5.031-4.243 1.534-7.127 4.047-10.697 6.965-2.306 1.885-4.523 3.693-7.159 5.307-.648.397-4.681 2.262-7.673 2.297-3.438.04-7.252-3.498-8.276-6.443-1.571-4.521-2.18-7.63-3.585-10.435-1.164-2.324-2.694-4.715-5.315-7.144-4.114-3.812-11.059-3.821-15.617-1.714-6.707 3.102-10.272 9.9-14.401 15.479-1.902 2.57-4.788 3.943-6.717 6.606-1.975 2.726-2.985 6.471-2.847 9.812.103 2.502.027 5.613-.966 7.906-1.812 4.173-4.852 7.779-7.574 11.443-2.843 3.826-6.051 10.281-4.146 15.174 1.439 3.696 4.945 6.703 5.915 10.421.231.882-.024 3.681-.497 4.754-1.754 3.975-2.877 11.479-1.907 15.617.7 2.987 1.793 5.492 3.372 7.96 1.915 2.995 4.396 5.597 5.003 9.094.681 3.922-.233 7.995.304 11.968.356 2.634 1.189 5.249 2.709 7.491 1.317 1.941 2.929 3.367 5.114 4.395 8.152 3.833 17.996 4.23 26.562 7.186 3.822 1.319 7.202 3.63 11.554 3.179 3.132-.325 5.924-3.716 8.624-5.114 2.363-1.224 4.788-2.333 7.325-3.179 5.518-1.839 10.947-3.948 15.976-6.91 6.655-3.919 11.506-13.174 8.624-20.885a9.114 9.114 0 0 0-1.244-2.277c-.149-.199-.112-.571.055-.719 7.231-6.404 12.163-13.63 11.734-23.473-.059-1.336-.049-2.6.344-3.697.809-2.26 2.946-3.784 3.676-6.081 1.383-4.351 1.248-5.986 1.271-6.219.204-2.091-.056-7.378-.451-8.968 2.624 1.766 8.688 1.861 10.208 1.671 5.681-.712 10.445-3.366 10.948-9.517.255-3.119-1.921-5.458-3.485-7.897zm-1.272 1.438c.097.052.903 1.696.967 1.851.148.359.353.83.138 1.189-.156.261-.74.236-.884 0-.26-.425-.785-2.948-.774-2.985.078-.261.281-.203.553-.055zm-2.847-5.004c.087.173.124.398.055.58-.04.107-.302.257-.385.165-1.044-1.157-5.345-4.784-4.258-5.886 1.612-1.634 4.247 4.459 4.588 5.141zm-42.485-2.074c2.369.28 4.945 1.504 6.965 2.847 3.295 2.191 5.854 3.793 7.905 7.104.396.639.435.609 1.493 2.93.805 1.766.714 1.785.746 2.018.665 4.764 2.319 12.54.47 17.22-1.286 3.256-3.923 5.936-7.352 6.302-.222.023-.103-.541.083-.663 2.371-1.554 3.935-3.015 2.156-5.417-.362-.489-.797-.988-1.354-1.106-1.488-.314-4.001.374-5.252-.636-1.811-1.462-2.296-4.287-4.229-5.583-2.61-1.751-3.862-2.08-5.417-2.543a21.37 21.37 0 0 0-5.5-.885c-.801-.025-1.603 0-2.405 0-.719 0-1.212.136-1.907.249-4.119.667-7.808-.821-11.885-1.603-.731-.14-.486-.547-2.626-2.405-.416-.361-1.012-.56-1.52-.47-1.903.336-3.003-1.088-4.699-.885-1.886.226-2.15.536-4.008-.083-2.608-.869-2.672-.604-4.146-.94-.728-.166-1.51.076-2.211-.083-1.996-.453-4.113-1.112-6.136-1.52-1.14-.23-1.839-1.111-2.875-1.52-.318-.126-.397-.661-.249-.94.376-.708.712-.371 2.626-1.99 1.702-1.44 3.645-3.005 5.583-4.201a18.961 18.961 0 0 1 3.98-1.88c1.89-.625 2.724-.703 2.957-.719a979.368 979.368 0 0 0 15.506-1.161c6.495-.539 12.747-2.195 19.265-1.935 3.199.128 3.347.416 4.036.498zM95.94 109.635c-1.092.172-2.211.06-3.289.083-2.59.055-5.276-.488-7.795-.968-.224-.043-.488.016-.608-.138-.136-.174-.22-.649 0-.663 2.517-.16 5.208.33 7.933.663 1.884.23 1.871.285 3.649.608.138.025.257.391.11.415zM77.753 65.631c-1.8-.789-3.315-1.408-4.395-3.04-.078-.118-.024-.323.083-.415.128-.109.395-.167.553-.055 1.477 1.044 3.159 1.784 4.671 2.792.163.109.116.496-.055.636-.236.192-.603.193-.857.082zm32.063-8.707c3.389-1.274 6.759-2.362 9.813-3.98.221-.117 1.33-.93 1.536-.744.447.403-2.485 3.771-2.744 4.042-1.771 1.851-3.207 4.113-5.882 2.271-.805-.554-4.118-1.065-2.723-1.589zm-8.929-3.759c3.082 1.326 5.352 4.699 7.504 6.325 2.241 1.693.62 5.426-.787 6.39-.635.435-1.351.771-2.101.857-1.95.223-3.189-2.739-5.031-2.405-1.139.207 1.55 2.055.47 3.179-.912.949-4.371 1.082-5.639 1.299-2.4.411-4.902-.058-7.269.387-.537.101-2.395.627-2.791.165-.505-.589-.222-.942.055-1.05 1.455-.567 2.993-.555 4.478-1.023 2.075-.654 4.028-1.846 5.528-3.427 3.133-3.301 3.174-6.469 4.671-10.559.106-.29.632-.259.912-.138zM76.87 30.739c3.198-2.054 6.114-1.708 9.678-.798 3.507.896 8.254 7.323 9.31 10.62.865 2.704 2.028 5.457 2.15 8.307.154 3.608-.558 8.677-3.331 11.174-1.917 1.726-3.99 2.19-6.285 1.746-5.599-1.083-10.37-11.836-11.281-17.7-.565-3.634.701-5.726 1.612-9.025.631-2.286.559-2.56-1.853-3.572-.248-.104-.203-.622 0-.752zm-2.102 14.908c.169-.349.619-.212.774.221 1.428 4.005 3.311 8.087 3.952 12.245.034.218-.48.115-.635 0-2.419-1.788-3.479-7.348-4.063-10.116-.166-.785-.364-1.653-.028-2.35zm-3.649-9.619c.359-1.036 3.141-1.814 2.958-.166-.097.869-.567 3.717-1.742 3.455-1.138-.254-1.625-2.107-1.216-3.289zm-3.952 35.047c.573-.527.993-.238 1.023-.746.062-1.051-.765-1.889.166-2.294 2.312-1.006 2.067-.998 3.234-3.234.658-1.261 4.356 1.472 4.892 2.294.454.696.164.966-.083 1.05-1.75.6-4.146.639-4.948 2.322-.564 1.184 3.358 1.028 4.395 1.437.262.104.135.781-.138.829-1.497.269-1.514.527-4.727.305-2.876-.199-2.908-.493-3.814-1.106-.252-.17-.203-.67 0-.857zM50.444 93.243c2.763-1.454 4.992-2.385 7.352-4.588 2.286-2.135 6.337.329 8.707 1.686.677.388 1.366.894 2.156.94 1.694.097 2.26-.217 3.759.249 1.032.321 2.2-.071 3.262.249 2.457.741 4.934 1.803 7.408 2.543.214.064.455.176.608.387.098.134.217.506.028.553-1.24.303-2.535.376-3.787.359-4.786-.066-9.576-1.482-14.318-.829-1.557.214-1.329.852-3.096 1.603-.689.293-1.518-.035-2.239.166-1.483.413-1.583.849-2.432.912-1.764.131-1.759.089-3.787.276-.117.011-.135-.222-.249-.249-1.701-.392-6.105-2.818-3.372-4.257zm44.86 70.872c-.073.147-.329.054-.497.054-.114 0-.267.019-.304-.055-.1-.199-.231-.497-.083-.663.166-.187.558-.228.774-.055.28.224.284.372.11.719zm2.903 8.042c-.316.406-.686.612-1.161.387-.25-.118-.19-.613 0-.774.277-.235.73-.273 1.106-.166.159.046.175.399.055.553zm1.382-.083c-.236-.082-.249-.59-.055-.746.483-.391.975-.718 1.493-.304.899.719-.785 1.276-1.438 1.05zm32.597-14.979c-.698.681-1.434 1.063-2.138.855-1.876-.555-3.686-.411-5.583-.636-1.841-.218-7.146-2.218-8.568-.912-.352.323.514.995.055 1.548-.535.646-.564 1.665-1.216 2.018-3.219 1.741-7.204 1.731-10.752 2.626-2.492.629-5.143 1.05-7.684.912-.248-.014-.182-.666.055-.746 1.299-.442 2.151-.069 3.566-.332 1.045-.195 1.755-.17 2.543-.885 1.772-1.607 2.658-2.722.636-4.063-2.854-1.892-6.614-3.279-10.116-3.04-.617.042-1.437-.22-1.99-.304-.738-.112-1.506.141-2.239 0-2.574-.497-3.307-.768-5.749.166-1.472.563-2.487-.639-4.063.138-.548.27-.741-.516-1.354-.636-1.79-.349-2.744.234-4.229 1.41-.737.583-1.551-.6-2.377-.359-.638.186-5.042.138-5.915 0-.232-.036-2.938-.771-4.616-1.354-.868-.302-1.871-.215-2.598-.719-1.413-.98-.681-5.435.221-6.827.755-1.164.893-1.044 1.327-1.631.066-.089.253.078.332 0 .1-.1.023-.272.111-.359.087-.087.26-.011.359-.111.078-.078-.09-.267 0-.332.343-.245.459-.469 1.354-.719 2.983-.831 6.348-.681 8.845-2.46 1.819-1.296 1.776-4.089 2.792-6.053.675-1.305 2.627-1.941 4.091-2.322.574-.149.996-.765 1.575-.802 3.365-.215 6.598 2.635 9.978 3.345a4.819 4.819 0 0 1 1.658.719c.117.078.135.284.083.415-.073.181-.188.47-.387.47-1.447 0-2.621-.558-3.566-.608-.635-.033-1.696.44-2.073-.083-1.102-1.525-1.356-2.268-3.374-2.268-.691 0-1.39.106-2.073 0-1.65-.255-5.089.456-4.561 2.239.483 1.631 5.142 2.305 3.068 4.008-.671.551-1.76.146-2.571.47-.156.062-.054.438.111.498 2.03.738 4.229 1.132 6.33 1.714.226.063 1.703.464 1.935.498 1.341.195 1.309.356 6.965 1.05 3.597.442 3.607.339 6.965.47 4.474.174 8.983-.059 13.488-.083.691-.003 1.382.055 2.073.055.995 0 2.018-.021 3.041-.055 1.466-.049 2.968-.054 4.45-.249 4.411-.58 7.957-2.625 12.3-3.593 1.911-.426 2.958.39 3.467 1.771 1.567 4.249-.733 11.975-3.982 15.146zm-38.401-21.617c1.902-.138 2.476-.175 8.928.304 1.413.105 6.095 1.749 5.749 3.345-.059.271-.561.15-.802.083-.969-.27-.715-.793-4.146-2.294-1.114-.487-1.997.285-3.51.138-1.624-.158-1.634-.501-2.239-.304-1.812.59-2.76.756-3.98-.802-.102-.13-.138-.46 0-.47zm48.481-5.832c-1.235 2.051-2.865 3.603-4.644 5.197-.227.203-.629.156-.857 0-.285-.196-.221-.704-.497-.912-2.018-1.526-5.562.411-8.126-.525-.944-.345-2.566-2.513-3.179-3.261-.862-1.053-1.325-.293-3.289-1.05-1.583-.611-2.559-2.449-4.201-2.875-1.474-.382-1.714.392-2.488.166-.398-.117-.492-.75-.884-.885-.525-.181-1.146-.381-1.658-.166-.648.273-2.543-.766-3.345-.553-2.248.598-3.437-1.78-5.528-2.239-2.514-.552-5.133-.133-7.712-.221-.741-.025-1.611.029-2.322-.083-2.982-.471-5.889-1.223-8.817-1.797-1.329-.261-2.826.575-4.008-.028-1.741-.888-5.233-.528-6.938-1.05-1.419-.435-1.471-1.131-2.239-1.271-1.526-.279-3.934-.937-5.418-1.272-1.402-.316-3.379.388-3.04 1.99.327 1.547 2.966 3.572.801 4.229-2.064.627-2.087-.244-2.322-.249-2.407-.052-4.78.384-7.159.332-.234-.005-.219.122-2.322-.415-.686-.175-1.232-.715-1.603-1.272-1.09-1.636-1.323-2.648-1.023-4.533.121-.757.511-1.463 1.023-2.018.84-.91.816-1.099 3.344-2.073 1.62-.624 3.379-.026 4.644-.47 2.474-.868 2.516-.933 3.344-1.741 1.379-1.344 1.91-2.315 3.732-2.709 1.677-.362 3.461-.414 5.196-.249.248.023.226.643 0 .801-.723.507-1.616.281-2.46.581-.158.056-.081.447.083.553 1.144.737 3.313.659 4.7.775.937.078 1.912-.012 2.875.083 3.241.32 6.445 1.033 9.702 1.189.351.017 1.891.28 2.239.332 1.422.21 1.592.338 9.121.746 3.174.172 6.357.082 9.536.055.078-.001.088-.163.166-.166 5.333-.164 11.065-1.066 16.418-1.437 3.943-.273 9.17-.984 12.936-1.99 2.66-.711 5.755-2.195 8.292-.581.529.336 1.054.836 1.271 1.465.634 1.84.814 2.048.94 4.699.262 5.55-1.497 10.268-4.284 14.898zm3.51-22.333c-1.111-.051-3.587-1.53-3.289-2.626.631-2.319 3.057-3.932 4.063-6.136 1.195-2.616 1.014-5.59 2.018-8.292.876-2.359 2.544 1.981 2.611 3.129.23 3.947.267 14.187-5.403 13.925zm24.628-23.605c-7.702 2.631-16.107-2.297-18.878-9.729-.89-2.388-1.421-4.606-1.106-7.131.077-.613 1.336-1.819.719-1.99-2.131-.59-2.945 3.663-2.957 5.252-.016 2.072.923 4.023 1.686 5.943.102.257.248.621.055.857-.175.214-.612.191-.802.028-4.296-3.705-7.278-8.161-10.531-12.825-1.646-2.361-4.619-3.755-4.837-7.325-.254-4.143 2.198-9.667 5.141-12.41 4.197-3.911 10.291-5.702 14.616-1.153 1.499 1.576 3.37 3.049 4.177 4.72 2.28 4.722 5.107 10.861 4.895 16.002-.057 1.385-6.57-1.177-5.528-.111 3.089 3.161 6.388 5.495 8.292 9.343 1.431 2.89 1.289 4.647 1.797 7.767.247 1.518 2.894-.037 4.45.221 1.792.295 1.05 1.776-1.189 2.541z"/>
  <path d="M100 1C45.333 1 1 45.333 1 100s44.333 99 99 99 99-44.333 99-99-44.333-99-99-99zm0 190.979c-50.79 0-91.979-41.189-91.979-91.979S49.21 8.021 100 8.021 191.979 49.21 191.979 100 150.79 191.979 100 191.979z"/>
</svg>
