<!--
  SVG Music Logos
  Felipe Andreoli - FA v1.0.0
  https://github.com/tiagoporto/svg-music-logos
  Copyright (c) 2016 Tiago Porto (http://tiagoporto.com)
-->
<svg xmlns="http://www.w3.org/2000/svg" viewBox="0 0 106.667 200" class="felipe-andreoli">
  <path class="felipe-andreoli__border" d="M103.065 2.5H3.602v195h15.465V89.48h35.855l31.23 54.796h15.876L70.603 89.48h24.132l-4.152-13.187H63.04S32.007 22.246 31.346 21.028c-.66-1.218-.465-2.356 1.498-2.356h58.28c5.922 0 11.94 16.245 11.94 16.245V2.5zM19.067 76.292V28.837c0-1.22.856-.76 1.3.017l27.038 47.438H19.067z"/>
  <radialGradient id="felipe-andreoli__foreground-gradient" cx="37.707" cy="102.026" r="94.436" gradientTransform="matrix(.9664 0 0 1.072 9.828 -14.318)" gradientUnits="userSpaceOnUse">
    <stop class="felipe-andreoli__first-color" offset="0"/>
    <stop class="felipe-andreoli__second-color" offset="1"/>
  </radialGradient>
  <path class="felipe-andreoli__foreground" d="M31.667 16.316H91.72c3.71 0 4.83.628 8.99 6.437V4.855H5.957v190.29h10.755V89.715c0-1.49.55-2.59 2.355-2.59H56.29l31.23 54.795h10.442L68.868 91.188c-.965-1.683.284-4.063 3.424-4.063h19.233l-2.67-8.478h-27.18l-32.48-56.64c-1.73-3.016-.946-5.69 2.472-5.69zm17.566 58.428c1.39 2.438-.728 3.904-2.69 3.904h-26.77c-2.276 0-3.06-.942-3.06-2.983V28.838c0-2.302 1.26-3.297 2.354-3.297.894 0 2.12 0 3.062 1.65.78 1.365 20.395 35.783 27.103 47.554z"/>
</svg>
