<!--
  SVG Music Logos
  Alice Cooper - Dragontown v1.0.0
  https://github.com/tiagoporto/svg-music-logos
  Copyright (c) 2016-2018 Tiago Porto (http://tiagoporto.com)
-->
<svg xmlns="http://www.w3.org/2000/svg" viewBox="0 0 200 28">
  <path d="M106.103 26.012C97.995 21.34 91.6 8.658 98.78 3.272c2.058-1.545 5.533-1.67 5.424 1.79h1.372l1.036-2.725V1.204h-13.7v.96c2.022.317 1.482.943.7 2.043-6.06 8.505.51 18.767 12.49 21.805z"/>
  <path d="M178.682 26.012c-6.028-3.474-11.107-11.374-10.367-17.412l5.07-.003c.673 0 .947.243.923.994h.76l.576-1.51v-.628h-7.111c.424-1.618 1.33-3.057 2.825-4.18 2.06-1.545 5.534-1.67 5.425 1.79h1.372l1.036-2.725V1.204h-13.7v.96c2.022.317 1.482.943.7 2.043-6.06 8.505.51 18.767 12.492 21.805z"/>
  <path d="M116.607 1.204c-3.253.226-6.42 1.355-9.498 3.39l.19.92 1.737.022c-.71 11.426 2.687 17.008 7.57 20.476 4.883-3.468 8.28-9.05 7.57-20.476l1.737-.022.19-.92c-3.078-2.034-6.244-3.164-9.497-3.39zm0 22.867c-3.937-2.72-4.318-11.28-4.258-15.373.043-3.003.918-5.265 4.257-5.73 3.34.465 4.214 2.727 4.258 5.73.06 4.094-.32 12.653-4.258 15.374z"/>
  <path d="M136.08 1.204c-3.252.226-6.418 1.355-9.497 3.39l.192.92 1.737.022c-.71 11.426 2.687 17.008 7.57 20.476 4.883-3.468 8.28-9.05 7.57-20.476l1.737-.022.19-.92c-3.08-2.034-6.246-3.164-9.5-3.39zm0 22.867c-3.936-2.72-4.317-11.28-4.257-15.373.044-3.003.92-5.265 4.258-5.73 3.34.465 4.215 2.727 4.26 5.73.06 4.094-.32 12.653-4.26 15.374z"/>
  <path d="M151.816 5.72v16.505c.11 1.394-.423 2.518 1.58 2.83v.956h-6.938v-.954c2.003-.313 1.47-1.437 1.58-2.83V8.422c0-1.426-.46-1.904-1.717-2.55l-.492-.844c1.29-.94 2.788-1.815 4.26-2.48 4.777-2.16 10.19-1.9 14.103 2.116-.865 2.144-2.403 3.736-4.448 4.91-2.437 1.402-4.703 2.353-7.372 1.467 2.142-.91 4.144-2.136 5.376-3.588 2.436-2.87.482-5.42-3.357-3.78-1.135.485-2.02 1.147-2.574 2.044z"/>
  <path d="M185.582 5.4v15.268c.11 1.29-.423 2.33 1.58 2.62v.882h-6.94v-.883c2.005-.29 1.47-1.33 1.582-2.62V7.9c0-1.32-.46-1.76-1.717-2.358l-.493-.782c1.29-.87 2.788-1.678 4.26-2.294 4.777-1.998 10.19-1.756 14.103 1.958-.866 1.983-2.404 3.456-4.45 4.543-.21.112-.418.22-.625.324 8.495 3.064 4.946 14.588-1.805 16.315 4.878-5.312 5.31-13.605-3.51-14.995-.198-.02-.398-.046-.6-.083h-.008c-.27-.05-.545-.117-.824-.203 2.142-.842 4.144-1.976 5.376-3.32 2.436-2.654.482-5.012-3.357-3.495-1.135.446-2.02 1.06-2.573 1.89z"/>
  <path d="M19.763 24.046v-.96c2.004-.314 1.47-1.444 1.58-2.845V5.01c-.11-1.402.424-2.532-1.58-2.846v-.96h6.94v.96c-2.004.314-1.47 1.444-1.58 2.845v16.933h3.15c2.755 0 3.067-1.235 4.493-3.31h1.958L31.63 25.61h-1.388c-.02-1.35-.557-1.564-1.795-1.564h-8.684z"/>
  <path d="M36.015 5.01c-.11-1.402.423-2.532-1.58-2.846v-.96h6.94v.96c-2.005.314-1.47 1.444-1.582 2.845v15.23c.11 1.402-.423 2.532 1.58 2.846v.96h-6.94v-.96c2.005-.314 1.47-1.444 1.582-2.845V5.01z"/>
  <path d="M56.545 26.012C48.437 21.34 42.042 8.658 49.22 3.272c2.06-1.545 5.535-1.67 5.426 1.79h1.373l1.035-2.725V1.204h-13.7v.96c2.02.317 1.48.943.698 2.043-6.06 8.505.51 18.767 12.492 21.805z"/>
  <path d="M72.358 26.012C66.33 22.537 61.25 14.638 61.99 8.6l1.696-.003h3.374c.674 0 .947.243.924.994h.76l.576-1.51v-.628H62.21c.424-1.618 1.33-3.057 2.825-4.18 2.06-1.545 5.534-1.67 5.425 1.79h1.372l1.036-2.725V1.204h-13.7v.96c2.02.317 1.48.943.698 2.043-6.058 8.505.512 18.767 12.492 21.805z"/>
  <path d="M19.013 2.164v-.96H4.963v.96c1.292.202 1.812.626 1.01 1.54C1.692 8.585-1.33 19.955 8.607 26.01c-3.63-7.592-4.33-14.28-.377-19.114v1.766h5.424V20.24c-.11 1.402.423 2.532-1.58 2.846v.96h6.94v-.96c-2.005-.314-1.47-1.444-1.582-2.845V5.01c.11-1.402-.423-2.532 1.58-2.846zm-5.36 4.732H8.232c1.293-1.58 3.08-2.962 5.425-4.113v4.113z"/>
</svg>
