<!--
  SVG Music Logos
  The Rolling Stones - Tongue v1.0.0
  https://github.com/tiagoporto/svg-music-logos
  Copyright (c) 2016-2019 Tiago Porto (http://tiagoporto.com)
-->
<svg xmlns="http://www.w3.org/2000/svg" viewBox="0 0 180 200" class="the-rolling-stones--tongue">
  <path class="lips" fill="#FC0303"
    d="M96.714,18.324c8.605-9.293,16.636-14.8,27.649-14.8c12.964,0,17.697,6.97,24.208,30.377	c3.138,11.281,12.575,21.382,16.75,24.463c6.582,4.858,12.364,6.511,12.364,9.752c0,2.581-2.091,4.729-3.525,6.106	c-1.441,1.383-6.488,4.046-12.395,10.071c-7.685,7.838-17.485,21.816-24.38,40.614c-12.792,34.877-23.454,43.709-41.008,45.774	C92.362,176.876,79.865,199,53.018,199S2.981,174.239,2.981,149.229c0-21.569,15.603-52.087,21.798-56.905	C19.961,76.491,9.177,69.378,9.177,64.789s11.713-7.274,19.504-14.685c7.606-7.235,15.103-22.705,20.546-32.07	C53.631,10.455,65.094,1,80.537,1C90.06,1,94.534,10.408,96.714,18.324z" />

  <path
    d="M133.198,56.528c-7.228-9.809-9.837-12.85-21.569-12.85c-7.228,0-16.996,6.998-22.716,6.998	c-8.26,0-13.882-10.039-22.831-9.867c-4.427,0.085-11.205,1.47-18.236,5.706c-4.698,2.831-9.619,6.537-14.288,11.05	c-2.467,2.386-7.803,7.681-7.803,8.771c0,0.975,2.524,2.008,4.876,6.367c2.266,4.2,3.305,8.457,4.509,8.457	c0.768,0,5.477-4.921,12.011-9.547c8.505-6.022,19.227-12.139,24.093-12.333c1.033,4.819,4.13,10.612,10.326,11.014	c-3.629,2.642-15.109,13.011-23.111,26.6c-6.419,10.9-13.373,27.551-12.799,41.778c3.378-13.118,7.349-25.628,13.538-36.713	c9.296-16.65,23.519-29.141,32.468-28.797c17.439,0.671,20.077-3.098,27.535-10.555c2.983,2.983,12.276,0.459,15.259-1.721	c5.163,5.736,13.194,10.784,19.963,11.702c-6.425,4.704-16.715,15.174-28.567,30.747c-14.484,19.03-24.974,58.519-30.705,69.269	c0.473-0.743,0.882-1.394,1.227-1.926c1.519-0.179,2.986-0.41,4.408-0.702c4.814-11.55,13.06-35.017,16.408-44.269	c7.542-20.844,28.911-47.669,41.99-54.209C153.332,70.64,140.425,66.338,133.198,56.528z" />

  <g fill="#FFF">
    <path class="shine"
      d="M90.978,16.144c0,3.918-3.958,6.31-6.482,6.31c-3.786,0-7.4-3.671-10.039-3.671	c-2.639,0-4.536,1.803-6.715,1.803s-2.804-0.817-2.694-2.419c0.336-4.884,8.48-11.43,14.572-11.43	C88.339,6.736,90.978,13.505,90.978,16.144z" />
    <path class="shine"
      d="M111.629,17.521c-0.483,2.729,1.95,4.245,3.327,4.245c1.377,0,5.163-2.122,7.228-2.122	c2.065,0,4.704,4.302,7.457,4.302c3.817,0,7.457-2.295,7.457-4.933s-1.491-9.522-9.981-9.522S112.089,14.922,111.629,17.521z" />
    <path class="shine"
      d="M61.521,80.019c1.068,0.273-0.035,2.628-1.291,3.786c-8.863,8.174-22.2,31.055-26.416,48.444	c-1.02,4.205-1.2,8.608-2.323,12.046c-1.144,3.5-3.034,5.507-5.335,5.507c-4.56,0-4.905-5.851-4.905-9.981	c0-9.957,7.421-30.01,18.156-42.851C48.614,85.956,57.477,78.986,61.521,80.019z" />
    <path class="shine"
      d="M120.506,82.152c0.885,0.511,0.931,1.663,0.76,2.342c-0.252,1.004-1.478,2.282-3.37,4.136	c-4.804,4.706-10.127,13.114-13.972,20.609c-8.92,17.389-12.143,44.465-18.396,54.159c-4.675,7.248-7.4,8.777-10.498,8.777	s-5.851-4.388-5.851-7.314s5.363-10.199,9.149-18.804c3.786-8.605,11.903-29.317,15.46-36.351	C101.447,94.561,116.439,79.805,120.506,82.152z" />
    <path class="teeth"
      d="M104.2,67.026c7.486,0,14.025-2.409,17.381-8.346c1.516,3.789,7.07,12.52,18.516,4.667	c-2.549-1.894-4.935-4.151-6.9-6.818c-7.228-9.809-10.211-14.112-21.943-14.112c-7.228,0-16.736,7.228-22.457,7.228	c-8.26,0-14.016-9.897-22.965-9.725c-4.459,0.086-11.051,2.397-18.139,6.692c0.751,4.42,5.331,12.444,16.064,7.078	c0.86,3.786,3.958,10.239,11.272,10.239s12.563-1.119,16.693-6.109C92.412,61.175,96.714,67.026,104.2,67.026z" />
  </g>
</svg>