<!--
  SVG Music Logos
  Gojira - Terra Incognita v1.0.0
  https://github.com/tiagoporto/svg-music-logos
  Copyright (c) 2016 Tiago Porto (http://tiagoporto.com)
-->
<svg xmlns="http://www.w3.org/2000/svg" viewBox="0 0 200 170">
  <path d="M197.994,120.166c0.104,2.42-1.914,2.496-2.222,5.205c-0.182,1.588,0.99,5.596,0.994,7.661  c0.003,1.59-0.966,1.504-2.054,1.504c-0.811,0-2.6-1.488-3.259-4.283c-0.828-3.509-2.477-6.041-3.225-8.567 c-1.242-4.192-2.447-8.313-3.524-12.004c-1.41-4.835-2.559-13.612-4.021-13.612s-1.446,3.609-1.93,7.603 c-0.402,3.32-0.079,5.421,0.585,7.895c1.105,4.118,5.015,2.456,5.015,5.22s-0.86,8.09-4.255,8.773c-1.158,0.233-2.284,2.124-3.158,5 c-0.4,1.316-1.497,2.158-1.886,3.597c-0.388,1.436-0.107,2.632-0.395,4.05c-0.118,0.583-0.606,1.248-0.702,1.813 c-0.497,2.924-1.313,4.313-2.325,4.313c-1.41,0-2.325-1.623-2.369-4.167c-0.024-1.388-0.864-2.236-0.616-3.869 c0.397-2.623-0.25-4.245-0.6-5.909c-0.529-2.509-1.738-1.745-2.888-4.171c-0.841-1.773-0.252-3.639,0.113-5.264 c0.47-2.097,2.369-1.009,2.983-2.983c0.925-2.973-0.439-4.386,1.316-11.624c0.241-0.994,0.637-9.217,0.746-10.176 c0.593-5.291,0.121-8.175,0.614-13.598c0.218-2.429,0.716-4.742,0.877-7.237c0.299-4.801-0.837-10.309,0.088-14.299 c0.351-1.537,1.943-3.598,2.412-5.264c0.773-2.728,0.485-7.964,0.746-11.229c0.119-1.466,1.316-0.965,1.535-3.904 c0.42-5.629-0.785-16.317,1.009-16.317c1.794,0,1.833,3.12,3.447,3.405c0.438,3.047,1.72,6.603,2.168,9.666 c0.861,5.89,1.655,11.771,2.398,17.695c1.677,13.375,3.425,23.599,4.781,38.055c1.527,2.004,1.542,5.642,2.222,9.358 c0.356,1.941,1.658,5.07,1.813,5.498c0.453,1.245-0.225,1.731-0.225,3.468C195.127,114.81,197.867,117.196,197.994,120.166z"/>
  <path d="M162.027,156.748c0.393,2.915-0.552,2.998-1.623,4.123c-0.659,0.693-0.88,3.685-2.458,3.685 c-0.754,0-1.407-1.223-1.314-3.334c0.149-3.394-0.923-5.463-1.228-7.281c-0.535-3.188-1.525-6.189-3.07-8.685 c-0.883-1.43-3.351-3.407-4.43-4.781c-1.174-1.503-1.147-1.957-1.886-3.948c-0.651-1.752-1.517-2.787-2.193-4.957 c-0.677-2.174-2.72-6.009-3.465-8.466c-0.54-1.778-1.638-2.419-1.945-3.954c-0.423-2.114-2.092-4.025-3.055-7.143 c-0.761-2.461-0.339-5.599-0.395-8.027c-0.081-3.511-0.306-6.015,0.614-6.843c0.685-0.616,2.433-1.58,3.553-4.518 c2.743-7.2,5.22-17.458,5.088-21.054c-0.031-0.847-0.761-2.262-1.667-4.386c-1.025-2.405-1.053-5.483-4.386-5.483 c-3.693,0-3.612,2.6-4.112,4.957c-0.5,2.357-1.238,16.756-2.265,28.3c-0.296,3.317-0.215,9.537,0.236,14.072 c0.302,3.038,1.053,2.807,1.097,7.062c0.071,6.847-0.314,11.406-0.877,17.414c-1.18,12.592-5.404,21.695-7.237,21.537 c-1.752-0.151-2.237-1.394-2.237-2.807c0-2.679,1.676-3.255,1.666-4.781c-0.028-4.032-0.146-8.465-0.262-11.887 c-0.081-2.393,0.594-1.461,0.482-3.904c-0.152-3.309-1.009-2.632-1.11-9.808c-0.03-2.134,0.573-1.469,0.575-2.748 c0.004-2.796-0.48-2.195-0.517-4.639c-0.038-2.276-0.535-11.219-0.263-13.817c0.686-6.681-0.111-14.942,1.053-20.396 c0.702-3.29-0.44-4.802-0.482-7.939c-0.039-2.868,0.607-6.121,0.658-8.29c0.117-4.975-1.875-8.495-0.351-13.247 c0.547-1.711,1.675-1.734,3.363-3.421c0.936-0.936,0.464-2.211,1.082-2.69c1.327-1.028,2.486,0,4.591-2.983 c0.46-0.651,0.071-1.034,0.673-2.749c0.359-1.023,0.554-0.365,1.138-3.143c0.625-2.967,2.786-5.299,4.195-5.299 c1.114,0,2.503,0.4,3.08,4.185c0.352,2.315,1.908,4.803,3.152,7.107c0.813,1.506,2.143,3.133,3.114,4.035 c0.822,1.575-0.094,2.375,0.219,4.65c0.463,1.879,0.94,3.111,1.647,4.312c0.707,1.201-0.143,2.589,0.327,3.832  c1.131,2.992,3.408,5.635,3.421,8.393c0.005,0.941-1.18,2.068-1.491,3.977c-0.291,1.789,0.303,4.357-0.058,5.439 c-0.724,2.173-1.175,1.026-1.988,3.918c-0.539,1.92-1.543,5.812-2.105,8.773c-0.477,2.508-0.196,4.476-0.585,5.176  c-0.847,1.526-5.136,3.325-5.13,5.527c0.006,2.618,1.732,3.197,3.376,6.711c0.661,1.409,1.249,2.093,1.842,4.635 c0.211,0.904,0.97,1.846,1.521,3.1c0.408,0.93,0.626,2.237,0.819,2.749c0.9,2.381,0.624,4.182,2.398,5.922  c1.783,1.748,3.519,4.699,4.357,7.179c0.299,0.883,0.579,4.732,0.775,5.717c0.725,3.673,3.061,6.628,3.509,10.001 C161.756,148.107,161.714,154.455,162.027,156.748z M138.791,57.115c0.958-3.288-2.738-3.896-4.667-2.803 C133.539,57.231,136.716,58.353,138.791,57.115z"/>
  <path d="M105.056,43.786c1.093-0.391,3.307-2.222,4.066-2.222c3.309,0,6.293,3.685,6.293,5.556c0,2.171-1.64,4.975-1.857,6.989 c-0.864,8.05-0.511,21.528-0.833,28.57c-0.384,8.347,0.559,17.977,0.351,25.558c-0.081,2.951-1.276,2.299-1.287,5.731 c-0.009,2.768,0.92,7.022,1.053,10.059c0.196,4.488,0.282,7.837-0.409,7.837c-1.739,0-3.157-2.855-3.918-4.854  c-0.418-1.104-0.813-3.189-1.36-4.693c-0.339-0.932-1.253-1.881-1.36-2.544c-0.257-1.593,0.175-3.631,0.044-5.22 c-0.15-1.818-0.923-2.56-1.184-4.299c-0.519-3.495,0.466-12.897,0.76-17.224c0.491-7.185-0.812-12.603-0.409-21.442 c0.185-4.087,1.028-9.643,0.819-13.473C105.5,52.192,104.73,49.283,105.056,43.786z"/>
  <path d="M96.278,31.328c1.115,1.894-0.506,12.82-1.333,19.183c-1.238,9.523-0.42,13.42-1.696,23.628 c-0.182,1.444-1.414,15.95-1.667,18.042c-1.131,9.297-2.438,10.391-3.597,20.791c-0.11,0.988-1.494,5.593-2.164,8.89 c-0.552,2.718-0.397,4.206-0.585,5.03c-0.929,4.064-2.515,4.269-2.269,7.841c0.082,1.189-1.493,4.003-3.055,6.672 c-1.055,1.803-1.885,3.812-3.215,4.18c-1.687,0.467-5.076,1.031-6.389-0.504c-0.715-0.836-2.455-0.306-3.261-0.819  c-1.803-1.148-2.164-3.26-2.164-4.737c0-2.19,1.047-3.704,1.696-5.615c0.421-1.237,0.078-2.887,1.195-4.161 c0.714-0.814,2.889-1.955,4.244-3.442c1.496-1.642,2.172-3.642,2.83-4.677c1.167-1.836,3.067-5.159,3.939-8.038 c0.905-2.99,0.763-5.518,0.965-6.253c1.203-4.387,3.402-9.116,4.386-13.788c1.459-12.627,2.337-35.903,1.854-50.409 c-0.213-6.393-1.854-6.604-1.854-12.653c0-2.495,0.627-5.317,3.145-5.185c1.499,0.078,2.889,1.635,4.62,2.924 C93.782,29.627,95.956,30.783,96.278,31.328z M93.949,44.033c0-2.21,0-4.419,0-6.629c0-0.126-0.282-1.586-1.034-1.456 c-0.43,1.543-0.961,3.391-1.011,4.913C91.861,42.152,91.662,43.843,93.949,44.033z"/>
  <path d="M73.203,53.538c2.074,8.181,0.867,22.798-1.212,33.005c-0.472,2.323-2.177,5.214-3.27,7.943 c-0.578,1.445-1.895,4.648-3.018,6.775c-0.823,1.558-1.421,2.011-2.149,3.421c-1.558,3.015-2.279,5.571-4.646,5.571 c-3.819,0-4.954-1.934-7.767-5.264c-1.688-1.999-3.245-5.63-4.211-7.983c-0.936-2.281-1.287-4.971-1.228-9.065  c0.035-2.426-0.909-3.956-0.819-5.907c0.064-1.379,0.868-3.107,1.053-5.533c0.211-2.764-0.184-6.286,0.117-8.62 c0.423-3.281,0.978-4.18,1.053-6.609c0.09-2.903,1.805-10.35,4.606-15.981c1.182-2.377,2.809-4.532,3.202-6.448 c0.366-1.784,3.155-5.922,8.29-5.922c2.676,0,3.235,2.253,4.723,3.617c0.94,0.861,1.97,1.186,2.208,2.437 c0.556,2.924,1.732,3.381,2.237,6.536C72.851,48.515,72.761,51.794,73.203,53.538z M69.168,75.82 c0.71-4.998,0.877-13.641-0.088-13.641c-1.755,0-0.886,6.469-1.535,11.225c-0.724,5.35-4.662,15.532-3.027,15.532 c0.69,0,1.909-2.885,2.676-6.053C67.806,80.369,68.808,78.357,69.168,75.82z M60.527,88.146c1.404,0,6.273-17.695,5.483-29.081  c-1.469-1.41-2.744-2.054-3.86-2.054c-2.369,0-2.936,6.631-4.342,11.309c-0.938,3.116-1.288,8.181-0.612,12.194 C57.938,84.921,59.792,88.146,60.527,88.146z M55.807,51.241c0.838-0.269,1.223-1.641,1.518-2.669  c0.259-0.903,1.234-1.92,0.792-2.183c-0.441-0.263-1.749,0.694-2.02,1.798C55.888,49.036,55.287,49.99,55.807,51.241z"/>
  <path d="M36.344,65.6c1.521,4.035,1.047,18.367,0.585,27.839c-0.264,5.424-2.281,6.375-2.866,14.387 c-0.067,0.912-1.001,1.565-1.301,2.778c-0.309,1.249-0.113,3.038-0.512,3.831c-0.817,1.625-1.779,1.554-1.988,2.047 c-0.964,2.266-1.621,4.855-2.881,6.675c-2.414,3.488-5.559,5.95-9.693,6.776c-2.448,1.135-4.646,5.185-8.172,4.26 c-1.301-0.342-2.316-4.006-3.233-7.301c-1.568-5.632-2.807-10.878-3.14-15.849c-0.097-1.447,0.367-3.932,0.332-8.363 c-0.033-4.178-0.343-10.191-0.332-15.732c0.015-7.53,0.401-14.733,0.8-20.338c0.111-1.553,0.598-2.815,0.965-5.395  c0.405-2.85,1.06-8.704,1.725-13.042c1.857-12.103,5.699-17.722,8.823-27.98c1.382-4.538,4.16-9.858,4.657-11.351   s0.175-4.562,2.483-5.449c1.708-0.657,3.278-0.399,6.553,0.156c0.934,0.158,2.043,3.137,3.568,5.644 c1.692,2.781,4.457,5.216,4.781,6.448c0.642,2.441-1.32,3.155-1.93,5.088c-0.236,0.749,0.159,2.105-0.015,2.793 c-0.347,1.375-1.245,1.847-1.959,1.83c-2.383-0.059-5.965-5.075-7.194-3.906c-1.228,1.17-2.892,7.435-4.737,13.802  c-1.275,4.396-2.972,7.049-5.16,11.743c-1.069,2.293-1.127,4.34-2.092,6.417c-0.831,1.789-1.579,10.732-3.334,16.229 c-1.317,4.125-0.877,20.393-0.877,24.68c0,8.071,5.147,22.107,9.767,22.107c2.25,0,6.164-5.766,7.895-12.691 c0.88-3.521,0.117-7.603,0.292-13.802c0.187-6.614-8.962-19.058-8.773-26.727c0.06-2.42,3.275-7.311,6.082-7.311 c1.93,0,3.179,2.195,5.965,4.737C33.444,62.466,35.495,63.347,36.344,65.6z"/>
</svg>
