<!--
  SVG Music Logos
  ABBA - Arrival v1.0.0
  https://github.com/tiagoporto/svg-music-logos
  Copyright (c) 2016-2018 Tiago Porto (http://tiagoporto.com)
-->
<svg xmlns="http://www.w3.org/2000/svg" viewBox="0 0 200 77">
  <path d="M198 73.305h-10.894l-4.34-15.818H162.95l-4.087 15.818H148.21l19.32-69.61h10.613L198 73.305zM179.552 45.77l-6.82-25.835-6.723 25.834h13.542z"/>
  <path d="M103.417 3.695h20.774c5.66 0 9.65.567 11.95 1.718 2.298 1.135 4.243 3.144 5.835 6.03 1.576 2.868 2.372 6.14 2.372 9.772 0 3.355-.678 6.386-2.033 9.092-1.355 2.707-3.11 4.716-5.26 6.013 3.08 1.2 5.48 3.258 7.22 6.175 1.752 2.9 2.622 6.45 2.622 10.632 0 5.057-1.12 9.352-3.33 12.836-2.21 3.5-4.833 5.657-7.853 6.483-2.107.567-6.984.86-14.63.86h-17.665V3.695zm10.446 11.588v16.094h6.91c4.14 0 6.704-.08 7.69-.243 1.784-.308 3.17-1.135 4.186-2.48 1-1.345 1.502-3.176 1.502-5.494 0-2.058-.398-3.728-1.223-5.008-.826-1.28-1.813-2.074-2.977-2.398-1.164-.308-4.508-.47-10.033-.47h-6.057zm0 27.682V61.57h9.724c4.258 0 6.983-.242 8.192-.728 1.207-.486 2.224-1.46 3.05-2.9.81-1.443 1.222-3.26 1.222-5.48 0-2.284-.442-4.148-1.31-5.623-.885-1.476-2.05-2.497-3.493-3.048-1.46-.55-4.436-.827-8.915-.827h-8.472z"/>
  <path d="M96.058 3.695H75.284c-5.658 0-9.65.567-11.95 1.718-2.297 1.135-4.242 3.144-5.833 6.03-1.575 2.868-2.37 6.14-2.37 9.772 0 3.355.677 6.386 2.032 9.092 1.355 2.707 3.11 4.716 5.26 6.013-3.08 1.2-5.48 3.258-7.22 6.175-1.752 2.9-2.622 6.45-2.622 10.632 0 5.057 1.12 9.352 3.33 12.836 2.21 3.5 4.833 5.657 7.853 6.483 2.107.567 6.984.86 14.63.86h17.665V3.695zM85.612 15.283v16.094h-6.91c-4.14 0-6.704-.08-7.69-.243-1.784-.308-3.17-1.135-4.185-2.48-1.002-1.345-1.503-3.176-1.503-5.494 0-2.058.398-3.728 1.223-5.008.825-1.28 1.812-2.074 2.976-2.398 1.164-.308 4.508-.47 10.033-.47h6.056zm0 27.682V61.57h-9.724c-4.258 0-6.983-.242-8.192-.728-1.208-.486-2.225-1.46-3.05-2.9-.81-1.443-1.223-3.26-1.223-5.48 0-2.284.442-4.148 1.31-5.623.885-1.476 2.05-2.497 3.493-3.048 1.458-.55 4.435-.827 8.914-.827h8.472z"/>
  <path d="M51.79 73.305H40.896l-4.34-15.818H16.74l-4.086 15.818H2l19.32-69.61h10.613l19.857 69.61zM33.342 45.77l-6.82-25.835-6.723 25.834H33.34z"/>
</svg>
