<!--
  SVG Music Logos
  AC/DC v1.0.0
  https://github.com/tiagoporto/svg-music-logos
  Copyright (c) 2016-2018 Tiago Porto (http://tiagoporto.com)
-->
<svg xmlns="http://www.w3.org/2000/svg" class="acdc--classical" viewBox="0 0 200 84.5">
  <g class="acdc__shadow-four">
    <polygon points="30.221,28.087 32.8,27.019 20.671,14.89 23.25,21.116 30.221,28.087"/>
    <polygon points="30.221,57.003 32.8,54.424 20.671,54.424 23.25,57.003 30.221,57.003"/>
    <polygon points="15.513,83.386 15.521,79.731 5.962,70.094 2.322,70.086 15.513,83.386"/>
    <polygon points="141.115,25.507 143.694,24.406 131.475,12.709 134.055,18.748 141.115,25.507"/>
    <polygon points="140.411,80.09 125.073,80.09 116.579,71.269 112.966,71.235 123.976,82.669 141.489,82.669"/>
    <polygon points="118.68,19.203 121.259,18.134 116.497,13.373 112.859,13.381 118.68,19.203"/>
    <polygon points="91.321,53.503 94.947,50.925 84.102,50.925 80.166,53.503 91.321,53.503"/>
    <polygon points="74.723,32.495 74.753,28.853 60.961,14.869 63.54,21.157 74.723,32.495"/>
    <polygon points="65.683,83.378 65.678,79.736 50.745,64.888 48.166,65.96 65.683,83.378"/>
    <polygon points="185.835,32.495 185.866,28.853 172.074,14.869 174.652,21.157 185.835,32.495"/>
    <polygon points="176.795,83.378 176.791,79.736 161.858,64.888 159.279,65.96 176.795,83.378"/>
    <polygon points="81.774,80.97 86.567,80.97 85.55,77.963 81.774,80.97"/>
    <polygon points="28.305,70.093 26.732,70.094 26.732,72.168 37.858,83.386 37.866,79.731 28.305,70.093"/>
  </g>
  <g class="acdc__shadow-three">
    <polygon points="30.221,41.181 32.8,43.759 32.8,27.019 30.221,28.087 30.221,41.181"/>
    <polygon points="23.25,41.181 20.671,43.759 20.671,14.89 23.25,21.116 23.25,41.181"/>
    <polygon points="23.25,64.533 20.671,65.601 20.671,54.424 23.25,57.003 23.25,64.533"/>
    <polygon points="43.016,65.601 45.595,64.533 45.595,19.484 43.016,20.552 43.016,65.601"/>
    <polygon points="141.115,25.507 141.115,59.221 134.055,66.04 134.055,18.748 131.475,12.709 131.475,72.117 143.694,60.316 143.694,24.406"/>
    <polygon points="156.489,67.477 153.911,66.418 153.911,18.395 156.489,17.336 156.489,67.477"/>
    <polygon points="118.68,19.203 118.68,65.52 112.966,71.235 116.579,71.269 121.259,66.588 121.259,18.134"/>
    <polygon points="112.859,13.381 116.497,13.373 125.065,4.723 123.99,2.144 112.859,13.381"/>
    <polygon points="63.54,60.66 60.961,61.75 60.961,14.869 63.54,21.157 63.54,60.66"/>
    <polygon points="64.944,62.024 64.97,65.645 74.749,55.865 74.73,52.237 64.944,62.024"/>
    <polygon points="48.166,19.481 48.166,65.96 50.745,64.888 50.745,20.553 66.483,4.901 66.497,1.249"/>
    <polygon points="174.652,60.66 172.074,61.75 172.074,14.869 174.652,21.157 174.652,60.66"/>
    <polygon points="176.056,62.024 176.084,65.645 185.862,55.865 185.843,52.237 176.056,62.024"/>
    <polygon points="159.279,19.481 159.279,65.96 161.858,64.888 161.858,20.553 177.595,4.901 177.609,1.249"/>
    <polygon points="7.876,20.827 7.876,64.533 2.323,70.086 5.962,70.094 10.454,65.601 10.454,21.899 27.452,4.988 27.456,1.346"/>
    <polygon points="85.55,77.963 81.774,80.97 91.321,53.503 94.947,50.925 85.55,77.963"/>
    <polygon points="84.102,50.925 80.166,53.503 95.932,17.31 97.622,19.889 84.102,50.925"/>
    <polygon points="30.221,57.003 30.221,64.533 26.736,68.019 26.736,70.094 28.306,70.091 28.308,70.094 32.8,65.601 32.8,54.424"/>
  </g>
  <g class="acdc__shadow-two">
    <polygon points="30.221,41.181 32.8,43.759 20.671,43.759 23.25,41.181 30.221,41.181"/>
    <polygon points="51.153,70.091 47.506,70.091 43.016,65.601 45.595,64.533 51.153,70.091"/>
    <polygon points="141.489,2.144 123.99,2.144 125.065,4.723 140.411,4.723 153.911,18.395 156.489,17.336"/>
    <polygon points="117.256,38.04 112.345,40.619 101.66,40.619 105.357,38.04 117.256,38.04"/>
    <polygon points="112.984,17.31 109.287,19.889 97.622,19.889 95.932,17.31 112.984,17.31"/>
    <polygon points="86.244,21.202 82.588,21.174 66.482,4.901 66.497,1.249 86.244,21.202"/>
    <polygon points="64.944,62.024 64.97,65.645 60.961,61.75 63.54,60.66 64.944,62.024"/>
    <polygon points="85.892,63.169 82.226,63.188 74.749,55.865 74.73,52.237 85.892,63.169"/>
    <polygon points="197.357,21.202 193.7,21.174 177.595,4.901 177.609,1.249 197.357,21.202"/>
    <polygon points="176.056,62.024 176.084,65.645 172.074,61.75 174.652,60.66 176.056,62.024"/>
    <polygon points="197.005,63.169 193.339,63.188 185.862,55.865 185.843,52.237 197.005,63.169"/>
    <polygon points="43.016,20.552 45.595,19.484 27.456,1.346 27.452,4.988 43.016,20.552"/>
    <polygon points="25.161,70.091 20.671,65.601 23.25,64.533 26.736,68.019 26.736,70.094 25.161,70.091"/>
  </g>
  <g class="acdc__shadow-one">
    <polygon points="51.153,70.091 47.506,70.091 37.866,79.731 37.858,83.386 51.153,70.091"/>
    <polygon points="141.489,82.669 140.411,80.09 153.911,66.418 156.489,67.477 141.489,82.669"/>
    <polygon points="105.357,38.04 101.66,40.619 109.287,19.889 112.984,17.31 105.357,38.04"/>
    <polygon points="86.244,21.202 82.588,21.174 74.753,28.853 74.723,32.495 86.244,21.202"/>
    <polygon points="85.892,63.169 82.226,63.188 65.678,79.736 65.683,83.378 85.892,63.169"/>
    <polygon points="197.357,21.202 193.7,21.174 185.866,28.853 185.835,32.495 197.357,21.202"/>
    <polygon points="197.005,63.169 193.339,63.188 176.791,79.736 176.795,83.378 197.005,63.169"/>
    <polygon points="85.55,77.963 86.567,80.97 117.256,38.04 112.345,40.619 85.55,77.963"/>
    <polygon points="15.521,79.731 15.513,83.386 26.732,72.168 26.732,70.094 25.161,70.091 15.521,79.731"/>
  </g>
  <g class="acdc__fill">
    <polygon points="66.482,4.901 50.745,20.553 50.745,64.888 65.678,79.736 82.226,63.188 74.749,55.865 64.97,65.645 60.961,61.75 60.961,14.869 74.753,28.853 82.588,21.174 66.482,4.901"/>
    <polygon points="101.66,40.619 109.287,19.889 97.622,19.889 84.102,50.925 94.947,50.925 85.55,77.963 112.345,40.619 101.66,40.619"/>
    <path d="M153.91 18.395l-13.5-13.672h-15.345l-8.568 8.65 4.762 4.76V66.59l-4.682 4.68 8.494 8.822h15.338l13.5-13.672V18.395zm-22.435 53.722V12.71l12.22 11.696v35.91l-12.22 11.8z"/>
    <path d="M43.016 65.6V20.553L27.452 4.988l-16.998 16.91v43.703l-4.492 4.494 9.56 9.638 9.64-9.64-4.49-4.49V54.424H32.8V65.6l-4.492 4.494 9.558 9.638 9.64-9.64-4.49-4.49zM20.67 43.76V14.89L32.8 27.02v16.74H20.67z"/>
    <polygon points="177.595,4.901 161.858,20.553 161.858,64.888 176.791,79.736 193.339,63.188 185.862,55.865 176.084,65.645 172.074,61.75 172.074,14.869 185.866,28.853 193.7,21.174 177.595,4.901"/>
  </g>
</svg>
