<!--
  SVG Music Logos
  AC/DC v1.0.0
  https://github.com/tiagoporto/svg-music-logos
  Copyright (c) 2016-2018 Tiago Porto (http://tiagoporto.com)
-->
<svg xmlns="http://www.w3.org/2000/svg" class="acdc" viewBox="0 0 200 80">
  <polygon points="196,19.3 187.6,27.6 175.6,15.4 175.6,56.7 178.5,59.6 187.6,50.4 195.7,58.4 179.1,74.8 164.5,60.3 164.5,18.4 179.9,3.1"/>
  <path d="M143.5 3.2h-14.9l-8.8 8.8 4.8 4.8v44.4l-4.7 4.6 8.7 9h14.9l13-13.2V16.4l-13-13.2zm1.9 52.2l-9.7 9.4V13.3l9.7 9.4v32.7z"/>
  <polygon points="117.1,36.6 88.1,77.1 98.2,47.7 88.1,47.7 101.3,17.3 113.8,17.3 106.7,36.6"/>
  <polygon points="79.9,19.3 71.4,27.6 59.5,15.4 59.5,56.7 62.4,59.6 71.4,50.4 79.6,58.4 63,74.8 48.4,60.3 48.4,18.4 63.8,3.1"/>
  <path d="M40.4 60.3V18.4L25.1 3.2 8.5 19.6v40.7L4 64.8l10 10.1 10.1-10.1-4.5-4.5v-9.2h9.7v9.2l-4.5 4.5 10 10.1 10.1-10.1-4.5-4.5zM29.3 39.5h-9.7V15.4l9.7 9.7v14.4z"/>
</svg>
