<!--
  SVG Music Logos
  Airbourne - Runnin' Wild v1.0.0
  https://github.com/tiagoporto/svg-music-logos
  Copyright (c) 2016-2018 Tiago Porto (http://tiagoporto.com)
-->
<svg xmlns="http://www.w3.org/2000/svg" viewBox="0 0 200 54" class="airbourne">
  <g class="airbourne__shadow">
    <path d="M171.419 52.858V1.684l15.951 25.658-7.865-1.522v1.603l8.886 1.735 4.983 8.579-13.818-2.884-.046 1.822 15.196 3.169L200 48.665l-21.115-4.631-7.466 8.824z"/>
    <path d="M162.86 15.568V26.4l-7.117-11.712-6.991-.936v22.983l-4.74-6.459c1.142-.351 4.668-1.839 4.701-6.867.041-6.191-3.335-10.064-9.264-10.626l-10.235-.969v25.689l7.91.621v-5.312l3.94 5.613 15.658 1.895v-9.655l13.99 22.371V16.689l-7.852-1.121zm-25.602 8.729v-4.312c2.381-.103 3.767.688 3.767 2.434 0 2.339-3.767 1.878-3.767 1.878z"/>
    <path d="M120.182 11.473l.001 15.935c-.008.132-.009.274-.011.421-.006.985-.013 1.916-1.864 1.954-.576.015-1.03-.156-1.371-.496-.729-.729-.71-2.024-.71-2.041v-15.99l-8.243-.251v8.412c-1.812-5.265-6.876-9.067-12.83-9.067-7.469 0-13.544 5.981-13.544 13.333 0 7.351 6.076 13.332 13.544 13.332 6.168 0 11.383-4.081 13.013-9.644l.059 1.227c-.018 1.207.76 3.917 2.924 6.051 1.911 1.883 4.482 2.871 7.457 2.871.132 0 .266-.002.401-.006 8.136-.239 9.131-7.394 9.141-7.466l.3-18.201-8.267-.374zM95.187 29.517c-3.015 0-5.467-2.617-5.467-5.835s2.453-5.835 5.467-5.835c3.015 0 5.468 2.617 5.468 5.835-.001 3.218-2.453 5.835-5.468 5.835z"/>
    <path d="M82.079 24.695c-.111-.131-.984-1.142-1.793-1.542.633-.643 2.012-2.419 1.796-5.557-.111-1.608-.807-3.005-2.012-4.041-1.46-1.254-3.619-1.895-5.769-1.716l-10.608.77V36.51l-5.352-6.412c1.178-.613 5.668-3.288 5.256-8.233.003-.29-.008-4.051-2.594-6.502-1.602-1.52-3.841-2.188-6.666-1.988L43.834 14.7v25.77l7.955-1.217v-5.407l3.855 4.861L75.227 37.1c.072-.007 7.204-.789 8.131-7.782l-1.279-4.623zm-28.481.532l-1.73.157v-4.347l2.172-.148a1.12 1.12 0 0 1 .13-.006c.569 0 1.526.229 1.544 1.761.025 1.937-1.899 2.523-2.116 2.583zm18.041-5.992l1.708-.097c.007 0 .689.024.689.484 0 .928-.664 1.018-.737 1.025l-1.66.118v-1.53zm2.28 10.654l-2.341.183v-2.174c.17-.008.355-.019.549-.032.432-.027.921-.058 1.382-.058.927 0 1.511.131 1.736.389.094.107.126.239.102.415-.171 1.245-1.361 1.275-1.428 1.277z"/>
    <path d="M23.844 17.542l-1.997.544-6.448 8.5 3.318-.664-1.019 1.932-3.606.907-6.726 8.967 4.786-1.032-1.089 2.139-4.726.777L0 48.745l15.478-3.599 4.378-7.388 6.722-1.379-.176 5.445 7.957 9.996V.965L23.844 17.542zm2.719 11.372l-1.249.27 1.249-2.158v1.888z"/>
    <path d="M35.074 51.932V15.817l8.046-.889v24.789l-8.046 12.215z"/>
  </g>
  <g class="airbourne__lettering">
    <polygon points="172.638 5.62 172.638 49.616 178.385 42.768 197.588 46.861 193.968 40.801 178.305 37.574 178.305 33.639 191.37 36.236 187.593 30.176 178.305 28.287 178.305 24.195 185.113 25.611"/>
    <polygon points="149.894 14.907 149.894 38.361 155.56 39.069 155.56 27.007 169.569 49.222 169.569 17.575 163.981 16.953 163.981 30.333 155.088 15.695"/>
    <path d="M142.102 29.625s5.43-.157 5.824-6.532c0 0 .472-9.287-10.153-9.444l-7.398-.63v23.533l5.745.525v-7.451l5.516 7.954 6.694.625-6.228-8.58zm-5.981-4.328v-6.532c1.244 0 6.058-.273 6.058 3.739 0 2.979-3.028 3.027-6.058 2.793z"/>
    <path d="M109.204 12.074v16.37s.63 7.556 8.972 7.871c8.342.315 9.051-5.824 9.051-7.634l.197-15.859-6.021-.354v14.539s.321 4.239-3.187 4.114c-3.306-.118-2.992-3.935-2.992-3.935l.04-15.033-6.06-.079z"/>
    <path d="M95.155 11.484c-6.846 0-12.396 5.461-12.396 12.199 0 6.737 5.55 12.198 12.396 12.198 6.846 0 12.396-5.461 12.396-12.198 0-6.738-5.551-12.199-12.396-12.199zm.032 19.143c-3.604 0-6.525-3.109-6.525-6.944 0-3.836 2.921-6.945 6.525-6.945 3.604 0 6.525 3.109 6.525 6.945 0 3.835-2.921 6.944-6.525 6.944z"/>
    <polygon points="36.068 16.797 36.068 48.376 42.089 39.344 42.089 16.029"/>
    <path d="M24.558 18.744l-2.243.472-4.457 5.903 2.981-.591-2.656 4.427-3.542.768-4.368 6.139 4.073-.826-2.656 4.544-4.9 1.181-4.309 6.14 12.277-2.775 4.427-7.26 8.323-1.771v6.611l5.726 7.142V4.637l-8.676 14.107zm3.01 10.979l-4.604.944 4.604-7.319v6.375z"/>
    <path d="M56.669 29.664s6.611-1.712 5.903-8.618c-.708-6.906-6.788-6.789-8.559-6.553l-9.031 1.122V39.05l5.726-.768v-7.674l5.548 7.142 6.788-.649-6.375-7.437zm-3.07-3.364l-2.833.434v-6.753l3.011-.234s3.188-.177 3.011 3.01c-.178 3.189-3.189 3.543-3.189 3.543z"/>
    <path d="M78.155 23.348s3.6-1.535 2.656-6.257c-.944-4.722-6.316-4.25-6.316-4.25l-9.798.649v23.375l8.264-.54s8.619.049 9.149-7.252c.354-4.873-3.955-5.725-3.955-5.725zm-7.556-5.017l2.814-.236s1.79-.177 1.79 1.653-1.79 1.889-1.79 1.889l-2.814.236v-3.542zm2.814 12.573l-2.814.236v-4.133l3.601-.353s2.193-.02 2.184 1.889c-.011 2.25-2.971 2.361-2.971 2.361z"/>
  </g>
</svg>
