<svg xmlns="http://www.w3.org/2000/svg" viewBox="0 0 200 52">
  <path d="M31.809,38.847c-0.511-0.753-5.106,1.323-5.372,1.175c-0.835-2.256,0.499-5.233,0.504-6.547 c-0.257-2.458,2.222-4.787,1.82-5.944c-0.401-1.157,1.45-1.87,0.803-3.597c-0.26-0.694-1.755-2.156-3.12-2.218  c-1.363-0.064-3.096-0.198-3.426,1.018c-0.331,1.213-0.334,1.962,0.149,3.394c0.586,1.725-0.597,4.48-0.755,4.919   c-0.416,0.117-1.683,0.429-2.251-0.012c-1.112-1.401-2.294-7.082-3.347-8.585c-1.056-1.502-3.82-3.398-3.806-5.427  c0.01-1.774,0.533-2.698,0.839-4.365c0.313-1.714-0.018-3.654-2.35-3.19C9.168,9.935,9.65,10.981,9.65,10.981   s-0.825,2.236-1.264,3.146c-1.082,2.24-0.884,2.438-1.061,4.708c-0.074,0.953,0.659,1.732,0.362,2.784  c-0.308,1.1-0.873,2.015-1.896,3.456c0.455-0.639-0.713,6.879-0.673,6.05c-0.619,0.118-2.908,0.767-3.693,1.175 c-0.787,0.408-0.33,0.988,0.168,1.847c0.508,0.885,1.422-0.016,2.745,0.545c-0.898,2.14-1.234,2.476-1.575,4.213    c-0.264,1.341,0.278,1.772-0.772,3.36c-0.63,0.95-0.525,3.024-0.062,3.633c0.489,0.645,1.749-0.399,2.182-1.175 c0.563-1.006,1.01-1.643,1.007-2.686c-0.002-2.083,2.616-2.632,2.677-4.78c0.036-1.282,0.504-3.209,1.832-2.888 c1.327,0.319,1.854,0.317,2.298,0.307c1.084-0.025,0.969-1.014,2.121-0.388c1.15,0.623,0.914,0.862,1.071,2.012 c0.625,1.532-0.283,2.388-0.184,3.639c0.1,1.251,0.834,3.959,0.761,5.456c-0.088,1.805-0.896,3.899,1.846,4.868 c1.485,0.526,3.312-1.144,3.062-2.609c-0.251-1.466-1.077-1.184-0.826-3.04c0.08-0.597,0.836-6.256,0.058-8.564 c0.712,0.16-0.839-1.272,1.17-1.588c1.092-0.173,1.474-0.231,1.904,1.291c0.428,1.524-0.342,1.336,0.094,3.679  c0.354,1.896,0.555,2.778,1.7,2.916c2.29,0.275,3.227-0.379,5.764,0.026C30.803,41.979,32.32,39.6,31.809,38.847z M14.64,29.622 c-0.44,0.403-1.432,1.3-2.131,1.529c-0.702,0.233-2.919,0.162-3.649-0.266c-0.789-0.461,0.404-2.345,0.246-3.213    c-0.186-1.044,0.627-3.357,1.27-3.615c0.644-0.253,2.285,2.403,2.876,2.904C14.139,27.71,15.078,29.219,14.64,29.622z"/>
  <path d="M34.38,28.423c-0.751-0.948-0.732-2.833-0.692-3.755c0.041-0.921-0.538-1.978-0.296-3.261   c0.24-1.281,1.145-1.148,2.304-1.167c1.159-0.018,2.549,0.224,3.43,1.187c0.881,0.961,1.369,2.218,0.847,3.685  c-0.524,1.47-0.53,3.461-0.437,4.56c0.103,1.237-1.698,5.175-1.24,6.506c0.205,0.597-0.67,4.405-0.492,6.126    c0.096,0.918-0.374,1.558-1.195,1.841c-0.821,0.283-0.973-0.278-1.346-1.272c-0.407-1.08,0.881-2.934,0.575-3.69    c-0.232-0.579-0.201-5.537-0.336-6.547C35.279,30.958,35.68,30.062,34.38,28.423z"/>
  <path d="M46.001,23.684c2.555-1.281,4.964,1.854,6.125,1.241c1.925-1.018,0.446,2.54-0.008,3.323    c-1.424,2.458-2.012-0.48-4.698-0.312c-0.847,0.052-1.45,1.311-1.931,2.938c-0.36,1.22-0.001,3.312-0.084,5.288 c-0.068,1.58,1.487,1.772,2.546,2.51c0.995,0.695,3.004,1.547,3.833,0.092c0.361-0.632,1.254-0.492,0.42,1.846  c-0.232,0.649-1.337,0.854-2.135,1.15c-1.244,0.46-2.757-0.054-4.265-0.593c-2.2-0.783-5.363-3.342-4.511-4.25  c1.247-1.331-0.932-2.338-0.229-5.73c0.703-3.394-0.246-4.286,0.946-5.757C43.305,23.832,44.521,24.426,46.001,23.684z"/>
  <path d="M59.924,23.176c2.298,1.048,3.6,0.292,4.568,1.31c0.857,0.898,0.505,1.392-0.473,1.386  c-2.298-0.018-2.662-0.971-2.985,0.953c-0.112,0.67-0.879,1.046-0.115,1.925c0.764,0.883,1.184,0.479,1.742,0.734   c0.993,0.454,1.017,1.005,0.541,1.664c-0.355,0.492-0.794,0.404-1.388,0.261c-0.593-0.142-3.191-0.294-3.315,0.218  c-0.206,0.86-0.114,0.769-0.672,2.35c-0.538,1.529,0.991,2.649,1.007,4.029c0.012,0.717,3.025,0.459,3.152,1.673    c0.281,2.723-3.419,1.037-3.842,0.892c-1.352-0.466-2.55-0.084-3.171-1.558c-0.709-1.684-0.472-3.041-0.335-4.197   c0.153-1.292-0.191-1.972-0.504-3.861c-0.217-1.298,0.927-3.23,0.442-4.114c-0.485-0.883-0.665-2.601,0.528-3.5 C56.298,22.444,58.725,22.633,59.924,23.176z"/>
  <path d="M75.517,24.561c-0.013-1.048-0.993-2.548-0.806-4.018c0.187-1.471,1.186-1.845,2.489-1.944  c1.304-0.098,1.712,1.407,3.092,0.885c1.625-0.614,0.948,2.632,0.43,4.424c-0.247,0.85-0.141,2.325-0.152,4.291 c-0.012,1.97-0.686,5.262-0.716,6.592c-0.027,1.321-0.529,3.248-0.213,5.187c0.168,1.036,0.32,3.652-0.644,3.829    c-1.764,0.323-2.345-0.522-2.024-2.828c0.214-1.521-0.804-3.184-0.848-5.909c-0.03-1.791,0.671-4.868-0.264-4.629   C74.885,30.689,75.53,25.461,75.517,24.561z"/>
  <path d="M80.033,14.244c1.994-0.206,3.979-0.277,4.338-2.389c0.256-1.503,1.015-1.868,1.002-4.325   C85.366,6,83.869,5.05,82.305,3.816C81.868,3.47,81.129,1.583,77.69,1.64c-3.44,0.056-3.431,0.733-4.668,1.652  c-1.237,0.921-1.964,1.925-2.101,3.431c-0.117,1.28,1.135,1.726,0.957,3.633c-0.152,1.625-0.291,1.61,1.637,3.007   C74.521,14.09,77.5,14.505,80.033,14.244z"/>
  <path d="M85.504,22.313c0.857-0.719,2.071-0.956,2.767-0.458c0.7,0.499,1.084,1.908,1.698,3.019 c0.656,1.184,0.997,3.355,1.573,4.34c0.576,0.984,0.973,2.908,1.334,3.549c0.363,0.641,0.69,1.18,1.124,0.871   c0.434-0.307,0.533-3.304,0.398-4.072c-0.159-0.925,0.107-3.212,0.135-4.336c0.053-1.955-1.465-3.213-0.983-4.951   c0.384-1.382,0.422-2.484,3.365-1.414c1.218,0.445,1.47,0.165,1.793,1.542c0.327,1.378-0.132,1.67-0.171,2.93   c-0.037,1.259-0.562,3.849-1.143,4.959c-1.349,2.581-1.71,7.141-1.498,6.54c-0.313,0.888,0.375,1.389,0.212,3.001   c-0.1,0.99-0.998,2.881-2.952,1.881c-0.93-0.475-1.459-1.38-1.793-2.285c-0.333-0.905,0.064-2.635-0.477-3.307  c-0.542-0.676-1.459-3.43-1.749-4.34c-0.588-1.847-1.175-5.288-2.518-3.945c-0.561,0.561-0.553,4.622-0.336,5.54    c0.218,0.918,0.084,2.014,1.175,2.686c1.335,0.821,1.213,4.956,0.349,5.628c-0.862,0.67-0.995,1.107-2.719,0.149    c-1.183-0.654-0.75-1.184-0.972-2.156c-0.125-0.542,0.586-4.855,0.795-6.114c0.205-1.239,0.175-4.481-0.044-5.668   C84.723,25.134,84.647,23.036,85.504,22.313z"/>
  <path d="M122.049,10.168c2.484,0.529,8.86,0.95,9.431,2.915c0.572,1.961-0.344,3.179-2.401,3.944    c-2.062,0.761-7.279-2.43-9.431-1.714c-2.144,0.712-3.464,4.196-3.829,5.645c-0.432,1.72,1.103,1.932,0.145,3.845   c-0.959,1.913-1.917,1.775-2.086,3.427c-0.236,2.3,0.576,5.564,1.654,6.458c1.218,1.014,4.07,0.655,6.344,1.2   c0.954,0.231,0.29,2.416,1.886,2.915c2.743,0.858,3.703-0.433,7.697-1.47c1.265-0.328,1.207-2.945,1.114-4.093  c-0.095-1.149-0.616-3.727-0.918-4.842c-0.298-1.117-1.552-3.643-0.005-4.8c1.545-1.155,2.061-0.967,2.907-0.569    c0.847,0.4,1.553,0.643,1.692,1.705c0.139,1.062-1.985,3.042-1.934,4.017c0.046,0.896-0.003,3.954,0.659,3.557  c1.317-0.791,1.317-0.922,2.557,1.148c0.438,0.731,2.948,0.371,3.241-0.093c0.218-0.345,0.217-2.393,0.132-3.294    c-0.083-0.902,0.082-3.176-0.132-3.821c-0.213-0.641-0.791-2.503-0.218-2.573c0.86-0.104,1.7-0.177,2.516-0.091 c0.814,0.088,1.057-0.043,1.917,0.818c0.395,0.395-0.791,1.845-0.659,3.953c0.028,0.443,1.279,1.956,1.054,2.899    c-0.244,1.02-1.529,1.806-1.467,2.158c0.117,0.675,1.984,0.905,1.995,1.794c0.01,0.892-1.64,1.429-1.833,2.197  c-0.107,0.43-0.112,2.564-0.955,3.871c-0.329,0.51-0.015,3.075-0.714,3.405c-0.774,0.365-0.845,0.531-1.659,0.231   c-0.817-0.303-0.732-2.081-0.466-2.778c0.271-0.696,0.284-2.165,0.36-2.799c0.115-0.965,0.128-2.941-0.267-3.073    c-0.835-0.279-2.956-0.602-3.647-0.185c-0.437,0.264-1.641,2.995-1.491,3.874c0.15,0.879-1.035,1.876-0.659,2.504   c0.791,1.317-0.996,3.166-1.186,2.372c-0.192-0.793-0.406-5.736-0.791-5.929c-0.387-0.194-3.526,0.078-4.758,3.449  c-0.677,1.853-5.89,1.877-7.685,1.087c-2.681-1.18-5.83-2.229-6.002-3.258c-0.164-0.987-4.555-3.155-4.801-4.287    c-0.857-3.944,0.929-7.479-0.172-9.945c-0.994-2.227-2.462-5.69-1.371-6.002c1.2-0.343,4.231-3.184,4.63-3.772  c1.607-2.367,2.164-4.051,3.943-5.83C117.248,9.482,119.561,9.637,122.049,10.168z"/>
  <path d="M162.23,33.084c0.249-0.344,0.918-1.368-0.042-1.553c-0.904-0.176-2.177,0.02-2.56-0.21 c-0.21-0.126-0.556-1.63-1.008-2.644c-0.274-0.611-1.676-4.359-1.744-4.96c-0.071-0.601,0.14-1.633,0.066-2.342 c-0.168-1.595-0.378-1.595-1.637-1.385c-0.59,0.098-2.513,0.554-2.951,1.106c-0.44,0.555,0.129,2.159-0.112,2.797   c-0.243,0.643-1.209,2.269-1.385,3.022c-0.294,1.259-0.545,1.805-0.965,3.134c-0.242,0.77-1.873,1.452-1.678,2.685  c0.168,1.063,1.091,1.52,0.895,2.127c-0.643,2-0.692,1.091-1.147,3.385c-0.276,1.387-0.106,2.67-0.21,3.273 c-0.252,1.469-0.342,2.665,0.014,2.854c0.868,0.462,0.668-2.391,1.791-2.854c0.713-0.294,1.437,0.318,1.679-0.336   c0.307-0.829,1.514-3.7,1.791-4.308c1.184-2.608,0.839-2.31,1.902-2.574c1.983-0.494,1.624-0.396,2.463,1.792   c0.218,0.57,0.406,3.045,0.642,3.496c0.398,0.764,0.816,3.52,1.094,3.819c0.519,0.56,0.561,2.607,1.046,2.262   c0.653-0.463,0.443-1.681,0.619-2.548c0.131-0.64-0.074-0.625-0.092-1.799c-0.01-0.51-0.567-2.078-0.763-2.843  c-0.108-0.422,0.032-1.47-0.184-2.206c-0.21-0.713-0.587-2.224-0.21-2.602C159.818,33.397,161.981,33.425,162.23,33.084z M156.858,31.405c-1.792,0-1.547-0.252-2.77-0.252c-1.385,0-0.965,0.672-1.678,0.732c-0.452,0.038,0.687-2.594,0.578-3.014  c-0.11-0.421,0.219-1.86,0.53-2.254c0.31-0.395,2.127-0.581,2.039-0.206c-0.336,1.427-0.584,2.712-0.378,2.98   c0.42,0.546,1.258,0.615,1.553,0.881C157.052,30.562,157.11,31.405,156.858,31.405z"/>
  <path d="M165.228,23.237c1.014-1.264,2.57-2.599,4.173-1.225c1.604,1.376,1.199,1.94,1.113,3.86 c-0.064,1.384-1.8,2.614-2.004,3.924c-0.234,1.527-1.014,3.45-0.559,5.596c0.384,1.803-0.22,3.597,0.212,5.268  c0.43,1.669,1.697,3.157,0.346,4.355c-0.99,0.876-0.793,3.699-1.343,2.127c-0.783-2.238-0.506-4.771-1.23-6.939 c-0.286-0.852-0.298-7.457-1.007-9.736C164.376,28.693,164.214,24.503,165.228,23.237z"/>
  <path d="M174.189,24.221c0.755-0.698,1.831-0.906,2.447-0.399c0.619,0.504,0.917,1.054,1.462,2.161  c0.584,1.182-0.528,2.412-0.015,3.395c0.513,0.98,0.85,2.081,1.171,2.723c0.324,0.636,1.082,0.523,1.467,0.227  c0.383-0.299,0.784-1.161,0.665-1.921c-0.146-0.914-0.845-4.399-0.72-5.502c0.155-1.377,0.237-2.682,1.063-3.862    c0.746-1.065,1.868-1.086,2.733-0.715c1.078,0.46,1.153,1.115,1.447,2.479c0.293,1.365,0.332,1.899-0.37,2.922  c-0.79,1.156-0.854,2.076-1.712,3.63c-0.838,1.523,0.19,5.019-0.788,5.669c-0.842,0.557-0.401,1.684-0.54,3.272 c-0.086,0.973-0.224,2.575-0.671,2.463c-1.109-0.277-1.124-1.684-1.343-2.35c-0.296-0.901-0.825-2.36-1.119-3.134   c-0.491-1.302-0.506-0.919-1.603-2.375c-0.452-0.603-2.912-6.269-3.112-5.738c-0.272,0.715,0.825,6.308,1.021,7.218 c0.198,0.934-0.013,1.183,0.755,2.799c0.653,1.38,0.485,4.358-0.277,5.005c-0.763,0.643-1.141,1.575-2.669,0.601    c-1.048-0.669-1.13-1.558-0.952-2.523c0.147-0.788,0.974-5.685,1.158-6.926c0.178-1.218,0.143-4.418-0.056-5.592    C173.506,26.985,173.431,24.916,174.189,24.221z"/>
  <path d="M193.915,28.677c2.433-0.729,3.983-1.546,4.842-0.147c0.396,0.644,0.313,1.695-0.288,2.269  c-0.602,0.574-5.642,0.191-6.4,0.732c-2.762,1.969-1.826,1.228,0.377,3.064c0.755,0.629,2.344,2.985,3.19,3.693 c1.108,0.929,1.233,3.005,1.469,4.155c0.311,1.512-0.24,2.258-0.973,2.843c-2.654,2.126-4.19,2.799-6.328,3.136 c-1.578,0.248-1.685-0.147-4.122,0.325c-1.028,0.2-3.773,0.113-4.895,0.733c-0.984,0.543-2.623,1.389-2.06-0.577    c0.579-2.029,4.645-2.102,6.494-3.238c0.992-0.61,3.923-0.361,4.863-0.78c2.712-1.212,3.743-1.587,3.08-3.097   c-0.371-0.85-0.963-1.638-2.074-2.637c-1.456-1.309-2.532-1.981-4.897-4.64c-0.672-0.755-0.546-2.231,0.042-2.392   C189.51,31.22,192.012,29.249,193.915,28.677z"/>
</svg>
