<!--
  SVG Music Logos
  Alice In Chains - Facelit v2.0.0
  https://github.com/tiagoporto/svg-music-logos
  Copyright (c) 2016-2018 Tiago Porto (http://tiagoporto.com)
-->
<svg xmlns="http://www.w3.org/2000/svg" viewBox="0 75 200 52">
  <path d="M49.164 99.851c1.53.282 1.53 1.732 2.276 2.08.815.381 1.249.749 1.953-.59.126-.242.594-.6.765-1.168.434-1.44.445-3.457-.926-2.658-1.155.673-4.747-2.51-6.237-.344-.953 1.385-2.778.646-3.388 2.72-.403 1.369-2.255 2.497-2.537 4.671-.482 3.72.785 3.209-.07 5.8-.215.652-.611 1.307.11 2.014.647.635 1.893 0 3.383 1.732 1.052 1.223 4.987 3.407 6.224 2.903.793-.326 4.529.074 5.093-1.09.279-.577.201-1.128.282-1.53.256-1.275-.104-1.661-.695-1.661-.604 0-1.104 1.562-2.527 1.419-1.654-.166-3.76.222-4.373-.242-1.06-.798-2.01-1.262-1.95-2.98.075-2.147-1.616-3.535-1.168-4.833.403-1.168-.155-2.024.242-2.9.405-.895 1.093-1.507 1.691-2.094s1.107-1.387 1.852-1.249z"/>
  <path d="M197.25 97.837c0-1.064-3.125-1.384-5.598-.362-1.937.803-2.141 3.012-5.62 3.854-.596.144-.998 1.234-.245 1.966.587.571.711 1.548 1.112 1.829 1.854 1.302 2.4 1.011 4.257 1.896 2.255 1.074 2.399 2.029 2.399 3.002 0 1.551-.756 1.564-3.473 3.119-.94.539-3.248 1.905-4.221 2.649-.648.492-1.995.331-3.029.681-.919.311-1.21 1.3-1.879 1.826-.693.543-1.484 1.004-1.611 1.717-.218 1.215.596 1.666 1.236 1.666 1.02 0 1.574-1.382 1.987-1.666 1.11-.768 3.035-.801 4.109-1.061 2.926-.71 3.82-1.946 5.449-2.374 2.205-.582 3.259-.164 5.128-2.752.578-.8 1.651-1.483 1.651-3.101 0-1.232-.69-2.855-1.426-3.66-1.381-1.51-1.459-3.227-2.788-4.194-2.441-1.775-3.881-1.53-2.341-3.058.893-.886 2.658-.043 3.534-.043.907-.001 1.369-.87 1.369-1.934z"/>
  <path d="M83.502 75.884c-2.343 0-4.992.7-6.266 1.656-1.274.957-1.476 1.989-1.611 3.544-.114 1.324-1.668 3.205-.288 4.626 1.383 1.423.553.908 2.317 2.623 1.435 1.396 3.629.746 6.182.107 1.976-.494 4.327-3.742 4.327-6.283 0-1.119-.152-2.68-.707-3.759-.788-1.53-2.581-2.514-3.954-2.514z"/>
  <path d="M60.924 97.676c-1.14.974-2.33 3.185-1.853 4.108.478.927-.764 2.193-.764 3.573 0 2.226.528 2.684.511 4.048-.019 1.526-.27 3.173.73 5.062.777 1.469 1.358 1.416 2.544 2.178.685.44 1.649-.339 2.859-.483 1.063-.127 1.947.127 1.812-1.208-.128-1.272-3.411-1.163-3.576-1.897-.126-.559-1.256.004-1.579-3.258-.103-1.045-.159-.869.04-1.772.118-.538 2.481-.226 3.061-.081.58.148 1.651-.403 1.651-1.044 0-.833.086-.899-.886-1.373-.548-.265-1.423.336-1.691-.161-.564-1.043.725-1.678.685-4.027-.042-2.457.188-1.693 2.432-1.684.671.001 1.45-.269 1.45-.758 0-.456-.574-1.226-1.129-1.384-1.099-.312-2.251-.04-3.505-.41-1.248-.369-1.946-.152-2.792.571z"/>
  <path d="M81.48 91.923c-1.158 0-2.878 2.218-3.037 4.089-.156 1.871-.054 3.663-.036 4.994.008.548.555 2.031.52 3.526-.038 1.62-.577 2.005-.569 3.724.011 2.276.263 3.252.3 5.531.052 3.462-.301 6.122.859 7.196 2.162 2.002.377 5.52 1.933 5.101.848-.228.316-4.267.161-5.585-.29-2.462.665-4.824.682-6.504.02-1.69.596-5.879.595-8.383-.001-2.499-.105-4.376.109-5.457.217-1.107 2.211-3.749.343-4.894-.684-.419.042-1.121.043-1.718.002-.832-.592-1.62-1.903-1.62z"/>
  <path d="M31.871 112.027c-.891 0-3.679 1.526-4.264 1.143-.272-.178.018-1.054-.046-2.324-.074-1.462-.447-1.71-.447-3.272 0-.956.769-1.66.707-3.012-.067-1.451 1.256-2.921 1.013-3.605-.398-1.131 1.103-1.877 1.103-3.684 0-.638-1.248-3.307-2.9-3.307-1.336 0-3.106.946-3.423 2.139-.32 1.19-.684 2.442-.443 3.904.313 1.896.228 3.977.04 4.312s-1.449-1.254-2.215-1.41c-.945-.192-2.012.845-2.457.644-.805-.362-2.051-4.551-2.376-6.685-.27-1.778-3.106-3.891-3.101-5.88.002-1.737.82-2.288.82-3.424 0-.939-.176-1.731-1.505-1.731-1.812 0-2.234 1.165-2.578 2.094-.685 1.853-.322 2.416-.805 4.591-.203.913-1.289 1.445-2.047 3.495-.369.996.074 1.499-.46 3.073-.231.682-.805 1.288-.916 1.929-.202 1.166.076 2.986-.161 3.262-.725.846-4.39-.121-4.39 1.168 0 1.168.606 1.991 1.638 1.991.999 0 1.786-.398 1.786.356 0 1.962-1.844 3.374-1.974 5.103-.282 3.745-1.257 4.402-1.45 5.316-.142.673.528 1.078.765 1.289.217.193.718-.376 1.329-.685.407-.206.971-.058 1.139-.363.548-.987-.207-2.039-.213-3.061-.011-2.04 1.917-2.526 2.618-4.511.483-1.369 1.007-4.752 3.222-4.752 1.337 0 3.341.211 4.35.564 1.209.423 1.121 1.782 1.28 2.908.618 1.497-.266 2.34-.165 3.564.104 1.225.835 3.873.77 5.341-.081 1.768-.86 3.821 1.829 4.759.019.008.038.013.06.019l1.056-.005c1.106-.315 2.061-1.507 1.873-2.581-.253-1.435-1.059-1.157-.823-2.975.076-.585-1.23-8.59-1.45-10.144-.219-1.554 1.208-2.255 2.215-2.255 1.083 0 2.175 1.691 2.263 3.707.068 1.549.441 2.297.878 4.589.354 1.856.604 2.497 1.45 2.497 2.258 0 4.823-1.344 6.001-.588s2.376-3.503.404-3.503zm-19.078-9.108c-.699.234-2.585.721-3.315.298-.787-.456-.094-1.897.057-2.763.386-2.214 1.217-3.819 2.478-3.819 1.155 0 .78 2.154 1.372 2.652.888.742 1.061 1.718 1.061 2.309-.001.59-.958 1.091-1.653 1.323z"/>
  <path d="M36.277 92.561c-1.047 0-1.657 1.823-1.831 3.101-.176 1.279.126 3.19.016 4.102-.279 2.306.728 3.228.728 7.376 0 1.011.186 5.024.362 5.598.233.754-.423 2.525-.113 3.6.285.989.395 1.527 1.06 1.453.673-.075.966-.924.89-1.839-.142-1.714.499-5.512.343-6.107-.351-1.325.805-5.057.721-6.289-.074-1.095.1-3.277.489-4.744.385-1.465-.266-2.719-.932-3.673-.666-.958-.203-2.578-1.733-2.578z"/>
  <path d="M178.604 104.281c.647.904.687 2.582 1.282 3.789.482.977 1.054 2.333 1.154 3.737.078 1.085.622 1.704 1.428 1.704.446 0 .096-1.558.083-2.504-.025-1.542-.282-3.223.322-4.188.604-.965.066-3.339.721-4.886.672-1.581.446-3.027.527-4.377.121-2.001.828-2.274.828-3.625 0-1.491.011-2.723-1.07-3.061-.872-.271-2.674.56-2.457 2.618.147 1.388-.873 2.365-.886 3.705-.012 1.074.106 3.823-.233 4.148-.341.323.179-1.121-.411-2.013-.592-.896-.248-1.396-.926-2.474-.634-1.012-.651-1.872-1.248-2.359-1.087-.886-2.173-.033-2.819.725-.926 1.087.042 2.582.242 3.302.307 1.11-.512 6.866-.564 8.055-.055 1.212-1.208 4.148-1.208 6.726a2.92 2.92 0 0 0 1.598 2.576c1.566.786 1.837-.148 2.507-.842.671-.697.35-3.484-.226-4.844-.577-1.361.353-4.027.068-4.905-.277-.857-.754-5.649-.564-6.363.139-.531 1.205 4.452 1.852 5.356z"/>
  <path d="M169.542 94.504c-2.577-1.289-3.118.835-3.544 2.688-.351 1.528-.515 3.745-.161 5.638.196 1.046.367 4.318 1.007 5.92.39.975-.025 4.523.604 5.383 2.141 2.928 1.077 7.559 2.094 7.544.675-.01 1.025-1.547.685-2.779-.494-1.786.74-2.907.161-4.47-.581-1.565-.096-3.096-.644-4.793-.65-2.02-.153-4.646-.081-6.139.067-1.281 1.254-3.629 1.691-4.896.604-1.747.765-2.807-1.812-4.096z"/>
  <path d="M102.003 96.991c-1.329-.19-2.812 1.08-2.859 3.101-.014.722-.408 1.933-.644 3.101-.143.709-.108 1.575-.242 1.812-.397.703.121 3.826-.161 4.229-.315.45-.546-.991-.926-1.651-.376-.662-.005-2.449-.604-3.464-.599-1.016-1.522-1.277-1.733-2.66-.203-1.329-1.12-2.761-1.972-3.019-2.658-.805-3.784-1.08-4.39-.846-.669.258-.429 2.541-.279 3.334.233 1.225.28 4.577.073 5.859-.211 1.302-2.156 4.098-2.143 6.246.017 2.854.682 4.546 1.557 5.638.805 1.006 1.421 1.34 2.309.644.426-.334.934-1.89 1.247-3.81.34-2.088.44-4.556-.28-4.996-1.132-.687-1.043-2.98-1.272-3.927-.227-.949-.254-5.146.321-5.729 1.382-1.394 2.004 2.161 2.622 4.065.303.94 1.263 3.783 1.826 4.479.563.692-.307 1.492.745 2.722.324.379 1.53.738 1.708 1.762.165.951 1.491 1.193 2.03 1.193 1.632 0 1.855-.858 1.954-1.881.163-1.667.537-2.255.805-3.705.268-1.45-.343-1.924.268-3.544.458-1.213 1.471-2.995 1.504-4.296.034-1.301-.135-4.466-1.464-4.657z"/>
  <path d="M145.244 111.154c-.107-.859.94-.913.698-2.604-.133-.928-1.42-2.711-1.49-3.135-.337-2.014.629-1.785.428-2.792-.175-.874-2.441-2.128-3.63-1.783-.803.233-.891 3.174-.623 3.771.172.383.771 1.612.886 2.771.065.657-.344 1.38-.282 1.691.17.859.055 1.834-.121 2.188-.236.475-2.73 1.252-3.222.591-1.399-1.869-.757-2.063-1.607-2.707-.596-.452-.256-2.05-.39-2.907-.146-.934 1.568-1.474 2.105-3.998.313-1.472-1.491-1.974-2.249-2.47-1.557-1.02-2.002.481-2.931 1.772-.403.56.091.993.24 1.558.177.67.084 1.485.483 2.363.463 1.017-.045 5.294.161 6.39.204 1.096-.348 1.002-1.611.967-3.813-.107-5.488 2.082-8.214 1.527-1.585-.322-1.638-2.592-2.579-2.719-2.244-.301-3.078-.314-4.35-1.171-1.125-.753-1.234-.823-1.235-3.061-.001-1.606-.518-1.93.215-3.866.733-1.935.56-1.739.805-3.437.208-1.43 1.832-4.229 3.714-5.338 1.274-.751 2.378-1.483 3.106-1.535 1.903-.138 2.387 1.833 5.262 1.289 2.004-.379 2.47-.967 2.573-3.383.082-1.924-4.894-3.866-7.35-3.866-6.231 0-4.727 1.987-5.962 3.168-1.759 1.682-3.271 3.585-4.242 6.175-1.003 2.675-2.163 1.879-3.173 2.543-1.767 1.162.274 2.504.005 5.887-.103 1.301-.88 1.951-.733 3.029.148 1.081 1.221 2.59 1.324 4.543.107 2.041 3.029 1.967 3.437 2.846.698 1.504 5.304 4.499 8.001 5.37 1.805.584 5.277-.727 5.746-2.578.854-3.366 3.176-4.622 4.564-3.705.437.289.747 1.343.618 2.148-.13.805-.699 1.359-.618 1.665.242.904 1.569 1.609 1.665 1.879.262.747 1.158-.099.268-1.289-.425-.566.486-1.625.255-2.457-.108-.384.541-.922.846-1.49.354-.658.398-1.323.671-1.262 2.591.577 3.426-.192 4.484.618.913.698-.387 1.797-.403 2.739-.011.618.082 2.85-.121 3.544-.51 1.745.377 2.715 1.195 2.927 2.39.618 1.906-1.759 2.188-2.564.247-.706-.186-3.745.081-4.269.68-1.341.301-2.193.362-2.618.109-.758 2.299-.644 2.296-1.768-.004-.862-1.439-.328-1.546-1.187z"/>
  <path d="M163.486 106.828c-.886-.079-1.757.085-3.086-.618-.944-.499-.813-2.487-1.347-3.42-.325-.56-1.047-1.49-1.41-3.262-.117-.573-.113-2-.255-2.675-.318-1.52 1.02-2.744-.591-2.744-1.172 0-2.534.813-2.856 1.412-.533.995.02 2.751-.151 3.389-.169.642-2.326 2.855-2.631 3.96-.381 1.38.008 1.995-.04 3.343-.109 3.045-2.522 3.021-2.215 4.188.267 1.005 1.401 1.409 1.289 2.739-.201 2.376-.849.784-1.061 3.036-.127 1.363.063 1.851.024 2.441-.099 1.44.114 3.222.473 3.371.881.358.415-3.361 1.45-3.918.659-.352 1.039.357 1.208-.298.082-.319.206-1.392.745-2.08.758-.969.281-1.665.986-3.034 1.269-2.464.461-2.718 1.457-3.078.93-.336 2.638-.817 3.054-.667.416.15.236.894.189 2.11-.023.591.692 2.89.963 3.302.457.698-.121 3.35.176 3.609.554.487.954 2.079 1.53 2.079.846 0 .802-.402.887-1.252.062-.629-.318-1.627-.242-2.76.097-1.461-.363-2.214-.628-2.932-.144-.396-.115-1.418-.396-2.105-.271-.665-.783-2.081-.457-2.483.236-.29 2.663.784 2.87.432.208-.356.952-2.006.065-2.085zm-10.796 4.823c.04.362.199 1.53-.001 1.611-.2.081-.522-.765-.764-.846-.242-.081-.081-1.41 0-1.651.081-.242.418-.879.765-.765.233.076.967.322.926.765-.04.443-.966.523-.926.886zm5.054-5.086c-1.201.123-2.11-1.237-2.557-1.237-.765 0-.607 1.733-.967 1.733-.604 0-.242-.438-.815-.646-.412-.149.719-1.701.574-2.094-.149-.393-.183-1.624.076-2.035.26-.41.38-1.55 1.57-1.55.743 0 0 2.416.582 3.365.348.568.762 1.119 1.074 1.347.335.247.705 1.092.463 1.117z"/>
</svg>
