<svg  xmlns="http://www.w3.org/2000/svg" viewBox="0 0 200 70">
  <path d="M43.673 7.507c.176 2.11 2.788.71 3.97 2.735.45.768 1.663 5.048 1.663 6.117 0 4.067-.545 9.787-.047 12.652.722 4.163.576.72.582 6.123.003 2.54-.278 3.99-.27 6.436.018 4.634-.266 8.42-.266 13.145 0 2.283.264 4.647-.54 6.165l-3.75 2.954H43.94v1.073l34.87-.268c-.943-1.964.944-8.206 1.06-9.132.337-2.682.424-2.668 1.085-5.353h-1.34c-.153 1.82-1.803 4.712-2.59 6.263-.258.51-2.307 4.37-2.897 4.2-.457-.132.163.185-.683-.538-1.312 1.14-3.672 1.878-5.365 1.878v1.073l-1.964-.055c-1.427-.007-2.308-.54-4.276-.677l-6.634-.07.536-2.683c.046-.808-.805-8.2-.805-10.73 0-1.84.722-2.33.506-4.242l-.24-4.61-1.34-.535 1.61-1.073c-.055-.035-.13-.165-.16-.11l-.914-.16 1.073-1.072V24.138c.006-2.505-1.36-13.92 1.522-15.375l3.842-.718c-.888-.77-2.956-.737-4.294-.803-2.566-.128-10.804-.728-12.873.265z"/>
  <path d="M93.294 28.965c.873.233 1.108.468 1.31 1.302l-.773.575c-.684-.5-1.013-.996-.536-1.877zM82.834 7.24c1.723.037 2.852 1.197 3.553 2.347l.74 5.162 1.877-1.074c-.23.866-.692 1.358-1.28 1.937l-.865 2.354 3.486-2.414c-1.894 6.313.623 1.442.54 6.704-.07 4.35.938 4.664 1.335 6.71.273 1.404 2.418 4.86 2.418 6.435l-1.073.536c.634 1.2 1.264 1.98 1.347 3.75l1.603 3.76c.372 1.142 1.638 6.244 1.505 7.147-.014.096-.083.136-.1.176-.227.49-.164-.16-.28.76-.09.696.8 3.463 1.02 4.257.992-.664 3.164-3.163 3.87-4.178 1.472-2.12 1.735-2.808 2.07-5.976.064-.595 1.506-5.482 1.282-7.034-.034-.233-.156.365-.075-.637.05-.636.264-1.066.467-1.65l.434-3.86c-.965 1.11-1.788 4.678-2.08 5.965l-1.944 6.104 1.073 1.073c-.537 2.014-1.073 3.29-1.073 5.096h-1.61c0-1.794-.245-5.712-1.143-6.902l-1.27-1.68c.985-.263.672-.32.593-1.337-.218-2.792-.69-2.98-2.2-5.904-.415 1.142.406-.43-.168.37-.063.086-.298.397-.363.44-.048.033-.117.072-.17.098l-.91.164 2.146-2.682c-1.956-2.92-1.12-4.424-1.623-5.62-1.055-2.507-1.06 1.057-1.06-6.45h-1.34c0-1.475-.09-4.872-.49-5.95-.362-.976-.475-.577-.99-1.447-.97-1.645.586.68-.23-2.957L91.15 6.97c-4.156 0-7.275-1.153-8.316.27z"/>
  <path d="M184.223 8.848l2.146-1.61-1.074 2.147c4.95 0 3.8.832 5.9-3.755-2.824 1.355-1.295.398-4.29 2.414l.804-2.146-2.95 1.073c-1.78-2.658-3.05-.484-4.293.806h-.536l-.535-1.878c-9.085.756-7.862.464-16.093 0 1.144 1.56 3.42.043 3.477 7.252.013 1.806.505 3.076.554 4.81l-.01 5.64 1.61-.267c-.965 1.824-1.008.518-1.332 4.3l-.546 5.088 1.34 1.074h-1.34l.536 3.487c1.626-1.088.603-1.815 2.093-3.807.756-1.01 1.027-.63 1.834-1.653l1.168-1.245-.536-13.41-1.61.267c.275-1.026.163-.507.826-.742.035-.013.116-.023.152-.037l.9-.562V9.386c8.035 0 5.37.598 12.07-1.878-.06.724-.125.73-.267 1.34z"/>
  <path d="M171.616 53.642c0 2.03-.356 1.736-1.61 1.073.263-.98.284-.562.806-1.34.71.187.22-.023.804.267zm-4.29 8.583l2.145-1.34-1.877 2.68c2.243 0 1.75-.35 4.506-3.003 1.41-1.358.865-3.05.857-6.92h-1.34c.55-2.064 1.633-.13 0-5.365 1.403-2.097 1.107-.198 1.072-6.17h-1.61l1.61-1.34c-.313-1.34-.546-1.422-.305-2.697.585-3.097.167-4.743 3.31-7.44 3.545-3.045 7.058-.886 10.94.75l2.147-1.074-1.61 2.95c1.704 0 2.416-1.46 4.56-3.755l-1.4-2.206-1.28 1.402c.52.138.414.05.804.268-.028 1.268.273 1.053-.805 1.34-.34-.71-.244-.286-.267-1.34l-1.073.268 1.61-2.414c-1.49-1.712-1.08-1.26-4.032-1.333-2.528-.063-3.434-1.138-7.932 2.245-.634.477-.826.803-1.384 1.298-.644.573-.95.693-1.613 1.338-.387.375-1.02.944-1.274 1.41-.98 1.79.286 1.24-3.283 4.763-2.897 2.858-2.194 3.26-2.21 8.786l1.608-1.073c-3.728 4.66-1.512 1.516-1.33 9.127.036 1.52-.54 4.985-.815 6.698.586-.237.108.013 1.073-1.34 1.57 1.15-.206.92-.803 3.487z"/>
  <path d="M187.442 34.33l.268 3.754h1.34l-1.072 1.61.268 1.072 1.61-1.878h1.072l-.268 1.878c-1.302.538.12-.52-1.17.19l.097 1.15c-2.012 2.348-1.61 1.244-1.61 4.56h1.342c-.385 1.647-1.222 3.09-1.632 4.825-.247 2.737 1.188 6.513-.595 9.58l-1.53 2.494c1.52-.804 1.166-1.024 1.92-1.356l-.042 1.087c2.236 0 5.635.865 6.438-1.878l-.268-2.414c-1.58.836-.266.4-2.682 1.34 2.965-5.603 2.146 1.178 2.146-15.288l-1.61-.805 1.88-2.414h-1.074c1.374-4.58.79-3.95.268-10.46-.913.482-1.496 1-2.325 1.697-1.696 1.43-1.22.513-2.77 1.256z"/>
  <path d="M7.462 58.47l.268-.805c.553.148.918.245.984.897l-.984.712c-.183-.327-.268-.287-.268-.804zm25.482-2.414l-.536-.536c0-1.26.464-1.405 1.34-2.146.38.818-.198 2.237-.804 2.682zm-30.31 9.12l24.428-.25 2.663-1.092c1.298.347.227.5 2.128.555l8.602-.02c-.74-1.008-2.835-1.165-3.74-3.5l-2.16-5.35c-.11-1.18.785.9-.537-4.83-2.673.715-3.032 3.2-3.755 5.366h1.34c-.42.797-.927 1.25-1.05 2.167-.175 1.28.028 2.135-.273 3.215l-3.772 2.933c-.372.13-4.358-.804-6.974-.804-1.11 0-1.01.41-1.793.618-.815.218-.72-.068-1.647-.39l-4.875.04c-1.892-3.468-1.61-2.21-1.61-5.364 0-2.378.625-4.646 1.128-6.652l1.824-6.223c-1.97 1.444-4.557 6.783-5.066 9.687-.75 4.283.592 1.067-1.405 5.837-1.41 3.36-2.962 2.206-3.456 4.055z"/>
  <path d="M127.895 57.665c.27-1.008.774-1.19 1.61-.805-.27 1.008-.774 1.19-1.61.805zm26.018-5.9c.883.646.62 1.786-.805 2.68-.59-1.272-.343.157.38-1.99.173-.513-.575-.09.425-.69zm-30.846 12.07l10.47.008c1.373-.04 1.65-.284 3.2-.286l10.485.023 2.67-1.087c1.297.346.226.5 2.126.555l8.87-.018c-.846-.735-2.937-1.254-3.768-3.745l-2.133-5.107c-.077-1.02.702.953-.536-4.828-2.665.712-3.1 3.404-3.754 5.365h1.34c-.31 1.16-.776.713-1.02 2.198-.21 1.297.067 2.04-.267 3.22l-3.81 2.896c-.837.282-4.313-.806-6.436-.806-1.89 0-1.888.952-3.22.558l-5.632-.29c-1.892-3.468-1.61-2.21-1.61-5.364 0-2.378.625-4.646 1.128-6.652l1.824-6.223c-.717.525-2.53 3.184-3.044 4.198-1.895 3.74-1.942 5.013-2.348 8.65-.103.926-1.487 4-2.58 4.93-1.03.876-1.605.493-1.955 1.804z"/>
  <path d="M111.802 61.957l3.174-2.924c.49-.746-.112-.682.72-.982 1.91-.69 1.113-2.13.932-5.48-.056-1.04.06-2.18.003-3.22-.15-2.808-.268-2.572-.268-6.17 0-2.145-.01-4.293.002-6.438.012-2.313-.273-3.71-.27-6.167l-.268-12.607-1.34 1.073c-1.483-.597 1.118.818-.303-.258-.038-.028-.213-.185-.26-.21-.432-.226.186-.373-.466-.022-1.487.8-.844 7.89-.85 10.95-.004 2.974-.45 1.956 1.074 3.756-.5 2.157-1.088 1.158-1.08 4.56.006 2.097.286 3.158.277 5.364v11.266h1.072l-.806 2.414h1.073c-.278 1.036-1.667 1.887-2.415 5.097z"/>
  <path d="M26.506 32.72c.398.292.922.965.65 1.516-.34.69-.887.126-1.455-.175.23-.975.15-.86.806-1.34zm-3.487-6.437c0 3.584 1.79 9.255 2.95 12.875.674-.45 1.722-2.018 1.995-1.245l-1.727 2.318 2.414-.267-1.61 2.95 1.61-.268-1.61 2.414c.31 1.16.915 1.087 1.454 3.642l.96 4.404c1.134-.303 4.024-3.415 4.024-4.56 0-3.644-2.254-5.593-2.757-9.582-.195-1.552-.42-1.917-1-3.293l-1.877 1.342c1.37-3.56 1.46-2.773 1.073-5.096-.38-.168.314-.236-1.074.268l.805-2.95H27.58c0-3.647-.44-3.854-1.34-7.243-1.086.728-3.22 2.593-3.22 4.293z"/>
  <path d="M147.208 31.11c.572.42 1.404 1.88 0 1.88-1.404-.002-.572-1.46 0-1.88zm-.805 6.706c.652-.437 2.017-2.314 2.016-1.114l-1.75 2.455 2.415-.536-1.61 2.952 1.61-.268-1.61 2.414c.248 1.06.46.925.886 1.798.522 1.068 1.252 5.166 1.53 6.517 1.13-.756 2.26-2.112 3.3-3.145 1.192-1.186 1.058-1.834.16-4.605-.274-.842-.544-1.398-.877-2.343-.374-1.063-.668-1.443-.983-2.235-.32-.806-.286-1.96-.443-2.775l-.888-2.6-1.88 1.342c.288-.745 1.342-3.13 1.342-3.755l-1.34-1.073.804-2.95c-.78.065-.406.137-1.073 0 0-3.58-.347-3.76-1.34-7.242-4.562 3.054-3.36 6.71-1.67 12.666.413 1.452.833 3.317 1.4 4.498z"/>
  <path d="M140.77 7.507c0 3.483-1.05 1.514-1.355 4.278-.24 2.185-1.376 5.44-2.33 7.358-.65 1.31-.142.74-.606 3.385h1.072l-1.878 1.878c0 4.876-.453 2.866-1 5.17l-3.828 15.215c3.827-2.56 2.45-4.29 3.66-8.41l2.378-6.49c.81-3.644-1.313-.862 2.01-6.557l-.806-.536c0-2.032.68-2.105.96-3.87l2.795-2.03c-.717 3.076-.465 2.02 0 6.168.6-.685 3.755-3.97 3.755-4.56 0-2.646-2.186-10.405-2.95-13.68h-2.414c.33.69.536 1.634.536 2.682z"/>
  <path d="M20.337 8.312c0 3.19-.825 2.532-1.226 3.87-.58 1.94.338 1.745-2.304 7.9-.566 1.316-.582.807-.498 1.532.058.497.726-.468-.263 1.72l.805 1.073-1.61 1.34c0 .93.106 1.974-.115 2.835-.197.767-.72 1.63-.88 2.338-.606 2.64-1.268 4.096-1.39 4.78-.365 2.053-.64 3.16-1.157 5.012-.51 1.66-1.85 3.724-1.285 5.42.65-.434.956-.83 1.547-1.402 1.907-1.843.897-2.273 2.096-7.023 1.26-4.99 2.393-4.747 2.526-9.008.05-1.65 1.334-3.14 2.146-4.56h-1.073c0-1.627.294-1.582.678-2.81l.395-3.092h2.682v6.17c2.842-.237 3.755-3.86 3.755-4.56 0-3.3-1.006-5.506-1.765-8.16-1.36-4.76-.33-3.28-3.6-5.79.224.96.537 1.26.537 2.414z"/>
  <path d="M109.656 15.017h1.073c-.262 1.12-2.047 4.333-2.38 6.205l-1.108 7.475c1.466-.982 1.376-1.09 1.687-3.14l1.223-6.02c.34-3.435.266-2.497 1.112-6.13h1.073c.036 1.63.363 1.946 1.073 2.95-.36 1.35-.82.532-.63 1.27.13.5.473.17 1.408-.75.457-.45 1.516-1.606 1.68-2.07l-1.116-.863 1.61-2.95h-1.342c.375-1.402.915-.602 1.308-2.447.35-1.647-.065-.445 1.106-2.65-1.447 0-4.22-.367-5.647.79-.913.742-.324.163-.608 1.546-.294 1.43-.495.56-.502 2.253-.002.56.028.36-.05.924-.156 1.155-.587 2.805-.972 3.607z"/>
  <path d="M112.07 63.566l2.146-.536v1.073c3.503-.7 2.652-.66 6.17-.268v-1.073l-2.147.268-1.074-2.146c-.94.25-.878.51-2.146 1.61l1.34-3.756c-.758.203-.733.405-1.157.988-1.403 1.928-1.985 2.126-3.133 3.84z"/>
  <path d="M99.732 56.86l1.61-1.073-2.147 2.95 1.073.806c-.874 1.652-.45 2.474.536 4.023l1.878-10.193c-1.027.69-2.633 2.124-2.95 3.487z"/>
  <path d="M85.784 63.03c2.285 0 1.56.562 2.146.805 1.218 0-.112-.134.792-.14l3.813.098-.85-1.032H89.27v-3.486c-.822.55-1.083.93-1.72 1.766-.645.847-1.215 1.167-1.766 1.99z"/>
  <path d="M87.393 36.475l.268 12.338c.95-.696.82-1.103.81-2.68l-.272-10.463c-.598.16-.805.063-.805.805z"/>
  <path d="M87.125 28.965l1.073-.536c0-.896-.003-1.79.003-2.686.018-2.66-.132-1.336-.35-2.314-.184-.833.413-.558.362-1.963l-.282-2.694h-1.073c.33 1.418.604 5.824.45 7.462-.072.743-.182 1.538-.182 2.73z"/>
  <path d="M191.465 9.653c1.007.356-.926-.008.262-.035l1.615.303 1.61-1.608V5.898c-1.165.097-1.34.667-2.08 1.407-.872.872-1.374.878-1.407 2.348z"/>
  <path d="M172.42 63.298c-.534-.143-.625-.19-1.072-.805l-.268 1.073h5.9l-3.218-2.414c-.478.714-.863 1.43-1.34 2.146z"/>
  <path d="M87.125 35.134c2.17-.506.407-.862 1.073-5.633-1.246.334-1.093.625-1.08 2.14.008 1.164.007 2.33.007 3.494z"/>
  <path d="M86.857 60.08c1.268-.34 1.66-2.086 2.138-3.473l-1.065-.55.268-1.342c-1.923 1.287.113 2.334-1.34 5.364z"/>
  <path d="M87.125 50.423c.425 1.274.268 1.592.268 3.22h1.073v-4.024c-.945.25-.59.28-1.34.803z"/>
  <path d="M193.88 12.067v2.146h1.072c0-3.224-.503-.963 0-4.828-.723.53-1.073 1.437-1.073 2.682z"/>
  <path d="M111.534 62.225c-.993.265-1.262.804-2.414 1.073v.536h1.878c.193-.832.342-.777.536-1.61z"/>
  <path d="M193.88 63.298c.867-.202 1.176-.456 2.145-.536-.314-.452-.038-.536-.805-.536h-1.34v1.072z"/>
  <path d="M197.366 63.298c-.204-.177-.075-.178-.452-.353-.546-.252-.126-.07-.62-.184.123 1.13.058 1.024 1.072.538z"/>
  <path d="M183.686 63.566h1.34v-.536c-.748.062-.992.07-1.34.536z"/>
  <path d="M106.706 31.915c.797-.584.797-.49 0-1.073v1.073z"/>
  <path d="M165.715 63.298c1.246-.104.47.288 1.073-.536-.6.14-.76.115-1.073.536z"/>
  <polygon points="118.239,6.166 119.312,6.166 119.312,5.898 118.239,5.898 118.239,6.166"/>
</svg>
