<svg xmlns="http://www.w3.org/2000/svg" viewBox="0 0 200 22">
    <g class="andre-matos__lettering">
        <path d="M6.58 13.077c-.104 0-.146.042-.187.167L5.27 16.097c-.21.52-.313 1.02-.313 1.27 0 .375.187.646.833.646h.312c.25 0 .312.042.312.167 0 .167-.125.208-.354.208-.666 0-1.562-.062-2.207-.062-.23 0-1.374.062-2.457.062-.27-.002-.396-.043-.396-.21 0-.125.083-.167.25-.167.187 0 .48-.02.645-.04.958-.126 1.353-.834 1.77-1.875L8.89 3.185c.25-.604.376-.833.584-.833.187 0 .312.187.52.666.5 1.145 3.832 9.474 5.165 12.64.79 1.873 1.394 2.165 1.83 2.27.313.06.626.082.876.082.167 0 .27.02.27.167 0 .167-.186.208-.957.208-.75 0-2.27 0-3.936-.042-.375-.02-.625-.02-.625-.167 0-.125.082-.167.29-.187.147-.043.292-.23.188-.48l-1.666-4.29c-.042-.103-.104-.145-.208-.145H6.58zm4.248-1.04c.104 0 .125-.063.104-.126L9.058 6.79c-.02-.083-.042-.187-.104-.187s-.104.105-.125.188L6.912 11.89c-.02.083 0 .146.083.146h3.832z"/>
        <path d="M22.718 15.97c.042 1.375.27 1.792.625 1.917.312.104.666.125.958.125.21 0 .313.083.313.187 0 .145-.167.186-.416.186-1.187 0-2.04-.062-2.374-.062-.167 0-1.04.062-1.978.062-.25 0-.416-.02-.416-.187 0-.105.124-.188.29-.188.25 0 .584-.02.834-.083.48-.126.54-.605.562-2.146l.167-10.494c0-.354.125-.604.312-.604.23 0 .48.27.79.583.23.228 2.98 3.04 5.644 5.642 1.248 1.23 3.685 3.727 3.955 3.977h.083l-.187-7.872c-.02-1.083-.186-1.395-.624-1.562-.27-.104-.708-.104-.958-.104-.23 0-.292-.083-.292-.187 0-.146.187-.167.458-.167.958 0 1.936.042 2.332.042.208 0 .895-.042 1.79-.042.25 0 .417.02.417.167 0 .104-.104.187-.312.187-.186 0-.332 0-.56.062-.5.146-.646.458-.667 1.458l-.208 11.16c0 .397-.146.563-.29.563-.313 0-.563-.187-.75-.375-1.146-1.062-3.437-3.248-5.352-5.1-2-1.917-3.935-4.06-4.29-4.374h-.063l.208 7.225z"/>
        <path d="M40.873 10.12c0-2.686 0-3.186-.02-3.748-.043-.604-.21-.79-.792-.958-.145-.042-.457-.062-.728-.062-.187 0-.312-.062-.312-.187s.146-.167.416-.167c.958 0 2.124.042 2.644.042.562 0 1.874-.042 2.978-.042 2.29 0 5.372 0 7.37 2.02.917.916 1.73 2.394 1.73 4.497 0 2.228-.96 3.915-2 4.935-.833.833-2.77 2.082-6.142 2.082-.666 0-1.458-.062-2.186-.104-.73-.062-1.395-.104-1.853-.104-.208 0-.604.02-1.04.02-.438.022-.896.043-1.27.043-.23 0-.355-.062-.355-.187 0-.083.062-.187.292-.187.27 0 .48-.02.645-.062.374-.082.478-.416.54-.936.083-.75.083-2.145.083-3.77V10.12zm2.457 1.957c0 1.874.02 3.227.042 3.58.02.438.062 1.063.208 1.25.23.333.958.708 2.394.708 1.666 0 2.894-.29 3.998-1.208 1.187-.98 1.562-2.56 1.562-4.394 0-2.25-.895-3.706-1.707-4.414C48.14 6.1 46.14 5.91 44.705 5.91c-.375 0-.98.042-1.124.125-.166.062-.228.146-.228.354-.022.607-.022 2.064-.022 3.46v2.227z"/>
        <path d="M59.634 10.12c0-2.686 0-3.186-.02-3.748-.043-.604-.21-.79-.792-.958-.146-.042-.458-.062-.73-.062-.186 0-.31-.062-.31-.187s.145-.167.415-.167c.958 0 2.124.042 2.5.042.624 0 2.29-.042 2.852-.042 1.165 0 2.498.104 3.476.75.52.354 1.29 1.25 1.29 2.436 0 1.312-.75 2.478-2.54 3.915 1.625 1.998 2.916 3.6 4.02 4.705 1.02 1.02 1.666 1.104 1.957 1.166.187.043.29.043.437.043.146 0 .23.104.23.187 0 .146-.126.187-.355.187h-1.75c-1.02 0-1.52-.104-1.998-.354-.79-.396-1.478-1.23-2.5-2.603-.728-.958-1.498-2.145-1.727-2.415-.104-.104-.208-.125-.333-.125l-1.645-.042c-.083 0-.146.042-.146.146v.25c0 1.645.02 3.02.104 3.77.062.52.146.853.708.936.27.042.666.062.895.062.146 0 .23.104.23.187 0 .124-.147.186-.376.186-1.062 0-2.582-.062-2.853-.062-.354 0-1.52.062-2.25.062-.228 0-.353-.062-.353-.187 0-.084.063-.188.293-.188.27 0 .48-.02.645-.062.375-.083.48-.417.54-.937.084-.75.084-2.145.084-3.77V10.12zm2.332 1.374c0 .187.042.25.167.312.396.125.937.167 1.395.167.73 0 .98-.062 1.29-.29.563-.397 1.188-1.167 1.188-2.625 0-2.5-1.707-3.144-2.79-3.144-.458 0-.895.02-1.083.062-.125.042-.167.104-.167.25v5.268z"/>
        <path d="M75.46 10.12c0-2.686 0-3.186-.02-3.748-.042-.604-.208-.79-.79-.958-.147-.042-.46-.062-.73-.062-.187 0-.312-.062-.312-.187s.146-.167.416-.167c.958 0 2.124.042 2.644.042.583 0 4.643.02 4.997 0 .333-.02.625-.083.77-.104.104-.02.208-.083.29-.083.105 0 .126.083.126.167 0 .125-.103.333-.145 1.145-.02.187-.062.958-.104 1.166-.02.084-.06.292-.207.292-.125 0-.146-.083-.146-.23 0-.124-.02-.436-.125-.645-.146-.312-.29-.562-1.208-.645-.312-.042-2.5-.083-2.873-.083-.082 0-.124.06-.124.166v4.373c0 .103.02.186.125.186.417 0 2.79 0 3.208-.042.437-.042.687-.104.874-.27.146-.126.208-.23.292-.23s.146.083.146.187-.042.397-.146 1.292c-.042.354-.083 1.062-.083 1.187 0 .145-.02.395-.186.395-.125 0-.167-.062-.167-.146-.02-.188-.02-.417-.062-.646-.104-.354-.333-.625-1.02-.687-.333-.042-2.415-.083-2.873-.083-.083 0-.104.083-.104.187v1.417c0 .604-.02 2.103 0 2.624.042 1.21.604 1.48 2.478 1.48.48 0 1.25-.022 1.728-.23.458-.208.666-.583.79-1.312.043-.187.084-.27.21-.27.145 0 .166.228.166.415 0 .396-.146 1.603-.25 1.957-.125.458-.292.458-.98.458-1.373 0-2.477-.02-3.372-.062-.895-.02-1.582-.042-2.124-.042-.208 0-.604.02-1.04.02-.438.022-.896.043-1.27.043-.23 0-.355-.062-.355-.187 0-.083.06-.187.29-.187.272 0 .48-.02.646-.062.375-.082.48-.416.54-.936.084-.75.084-2.145.084-3.77V10.12z"/>
        <path d="M122.373 2.895c.062-.354.187-.54.354-.54.167 0 .292.103.562.645l5.683 11.577 5.664-11.723c.167-.333.27-.5.458-.5s.312.208.375.646l1.895 12.743c.188 1.312.396 1.916 1.02 2.103.604.187 1.02.208 1.29.208.188 0 .334.02.334.146 0 .167-.25.23-.542.23-.52 0-3.394-.043-4.227-.105-.478-.042-.603-.104-.603-.23 0-.103.083-.166.23-.228.124-.042.186-.312.103-.895l-1.25-9.058h-.082l-4.54 9.287c-.478.98-.582 1.167-.77 1.167-.187 0-.395-.416-.728-1.04-.5-.96-2.145-4.145-2.395-4.728-.187-.438-1.437-2.895-2.165-4.457h-.083l-1.083 8.12c-.042.376-.062.647-.062.98 0 .396.27.583.625.666.375.082.666.103.875.103.167 0 .312.042.312.146 0 .186-.187.228-.5.228-.875 0-1.812-.062-2.186-.062-.396 0-1.395.062-2.06.062-.21 0-.376-.042-.376-.23 0-.103.125-.145.333-.145.167 0 .312 0 .625-.062.583-.124.75-.936.854-1.644l2.06-13.41z"/>
        <path d="M145.986 13.91c-.104 0-.125.02-.167.125l-.98 2.395c-.187.437-.27.874-.27 1.083 0 .312.166.5.728.5h.27c.23 0 .272.083.272.187 0 .146-.104.187-.292.187-.604 0-1.458-.062-2.04-.062-.187 0-1.166.062-2.124.062-.23 0-.333-.042-.333-.187 0-.104.063-.187.21-.187.166 0 .374-.02.54-.02.833-.126 1.145-.667 1.52-1.563l4.79-11.057c.207-.5.353-.708.54-.708.27 0 .354.167.54.562.438.98 3.5 8.14 4.665 10.827.708 1.603 1.23 1.832 1.562 1.895.27.04.48.06.687.06.167 0 .25.063.25.188 0 .146-.104.187-.79.187-.646 0-1.98 0-3.52-.042-.333-.02-.54-.02-.54-.146 0-.104.04-.167.228-.187.125-.02.25-.187.167-.396l-1.417-3.58c-.042-.105-.104-.126-.187-.126h-4.31zm3.914-.98c.083 0 .104-.04.083-.103l-1.728-4.435c-.02-.062-.042-.167-.083-.167-.062 0-.083.104-.104.167l-1.77 4.414c-.042.083 0 .125.062.125h3.54z"/>
        <path d="M161.103 6.08l-2.728.063c-1.062.02-1.5.146-1.77.54-.187.25-.27.48-.312.605-.042.146-.083.23-.208.23s-.167-.105-.167-.292c0-.292.354-2 .396-2.145.042-.228.104-.332.208-.332.146 0 .333.146.79.208.542.062 1.23.083 1.833.083h7.433c.583 0 .98-.043 1.25-.084.29-.042.436-.083.5-.083.124 0 .145.104.145.375 0 .375-.042 1.687-.042 2.145-.02.187-.06.29-.166.29-.146 0-.187-.082-.208-.353l-.02-.187c-.043-.458-.522-1-2.166-1.02l-2.31-.042v7.164c0 1.624.02 3.02.103 3.79.062.5.167.833.708.916.25.042.667.062.938.062.208 0 .29.104.29.187 0 .124-.145.186-.353.186-1.208 0-2.436-.062-2.957-.062-.416 0-1.666.062-2.395.062-.23 0-.354-.062-.354-.187 0-.084.06-.188.29-.188.27 0 .5-.02.646-.062.375-.083.48-.417.54-.937.084-.75.084-2.145.084-3.77V6.082z"/>
        <path d="M171.244 11.682c0-3.02 2.124-6.934 7.683-6.934 4.622 0 7.496 2.56 7.496 6.62s-2.957 7.247-7.683 7.247c-5.33 0-7.496-3.79-7.496-6.933zm12.45.333c0-3.915-2.352-6.33-5.31-6.33-2.04 0-4.434 1.083-4.434 5.455 0 3.644 2.082 6.517 5.54 6.517 1.29 0 4.205-.603 4.205-5.642z"/>
        <path d="M191.13 18.157c-.292-.125-.355-.208-.355-.604 0-.958.083-2.06.104-2.353 0-.27.082-.458.228-.458.167 0 .188.167.188.292 0 .23.062.604.167.916.396 1.312 1.77 1.75 2.915 1.75 1.582 0 2.54-1 2.54-2.25 0-.77-.187-1.54-1.812-2.5l-1.062-.624c-2.166-1.27-2.873-2.457-2.873-4.02 0-2.164 2.083-3.56 4.623-3.56 1.187 0 2.124.168 2.603.292.167.042.25.104.25.23 0 .228-.062.728-.062 2.123 0 .376-.083.563-.23.563-.124 0-.186-.104-.186-.312 0-.166-.083-.707-.48-1.165-.27-.333-.853-.833-2.04-.833-1.31 0-2.498.687-2.498 1.895 0 .79.29 1.416 1.936 2.332l.75.415c2.415 1.333 3.165 2.686 3.165 4.29 0 1.31-.5 2.373-1.83 3.31-.876.625-2.083.73-3.062.73-1.063 0-2.187-.104-2.98-.458z"/>
    </g>
    <path class="andre-matos_symbol" d="M108.774 10.622v-6.18c-.515.322-.674.926-1.145 1.536-.528.682-.61.493-1.324 1.354v-5.77c-.43.39-.9 1.492-1.58 2.028-.254.2-.63.55-.903.983v-2.54c-.632.48-.998 1.062-1.348 1.924v1.767c-.068.064-.135.13-.2.195V2.026c-.575.49-.596.948-1.088 1.41-.768.72-1.482 1.383-2.042 1.97-.378.394-.604 1.215-1.073 1.748v3.01c-.77.752-1.283 1.276-1.283 1.276l-1.77 3.403s1.444-1.566 3.052-3.006v5.265c0 .275.057.945.238 1.21.687-.746.885-1.408 1.33-1.846v-1.52c-.13.07-.205.19-.205.19V10.69c.135-.104.268-.204.4-.3.457-.33.808-.74 1.094-1.145v11.19c.658-.686.87-1.35 1.207-1.557v.48s.298-.194.475-.48v.618c.704-.962.934-1.59 1.443-2.182v-1.142c-.132.087-.232.25-.232.25V6.313c.4-.315.756-.64 1.16-1.092V15.53c0 .533.053.75.275 1.082.825-1.157.813-1.5 1.266-1.946V13.24c-.137.054-.218.206-.218.206V8.9c.404-.37.744-.52 1.225-1.22v5.1c0 .522.035.814.165 1.047.764-.64.91-1.7 1.348-2.012v-1.462c-.08.045-.194.14-.27.27zm-8.412-2.634c-.316.29-.628.58-.928.864V6.09c.653-.533 1.065-.868 1.495-1.417V7.42c-.18.192-.366.383-.568.568zm2.113 9.208c0 .492-.2.71-.2.71V7.464c.07-.05.135-.1.2-.148v9.88z"/>
</svg>
