<!--
  SVG Music Logos
  Antidemon - Demonocídio v1.0.0
  https://github.com/tiagoporto/svg-music-logos
  Copyright (c) 2016-2018 Tiago Porto (http://tiagoporto.com)
-->
<svg xmlns="http://www.w3.org/2000/svg" viewBox="0 0 200 92">
  <path d="M26.155 31.816c-3.687 2.595-5.339 2.686-6.051.976 2.275-1.755 7.45-4.09 10.107-5.568-3.773 4.593-4.555 10.142-5.101 13.425-1.871-1.522-2.266-4.478 1.045-8.833zM8.836 26.619c-4.096 0-6.664 1.172-7.836 2.25 1.311.314 4.786.951 4.753 3.323-.026 1.898-1.394 3.586-2.63 3.903 1.648 1.395 3.3.287 4.184-.824 1.236-1.553 1.236-3.391 2.537-3.492.589-.045 1.044.325 1.044.798 0 1.469-6.798 6.656-6.798 13.679 0 13.326 14.856 20.695 31.869 25.845 22.1 6.69 48.555 9.031 58.159 9.608-13.091-2.114-34.702-5.67-55.047-14.495-11.605-5.034-24.093-10.93-24.093-19.487 0-.909.571-3.563 2.784-3.563 2.059 0 8.521 4.218 8.521 7.261 0 1.364-.632 1.986-2.113 1.986-2.785 0-6.581-4.979-6.846-6.75-1.775 6.581 5.586 11.944 10.544 11.944 3.494 0 4.458-2.743 3.806-6.073 4.624 2.528 5.508 8.474 6.091 12.093.602-.414 2.001-3.994 2.571-4.13.936.644 1.837 3.439 1.837 4.724l-.131 2.564c.592-.051.996-.556 1.227-1.033.174-.361.325-1.452.349-1.935.07-1.423.026-3.042.442-4.134.405-1.064 1.075-1.951 1.571-2.974.514-1.061 1.006-2.03 1.006-3.555-.944.259-1.083 2.159-3.15 2.159-.949 0 .168-3.702-1.567-3.702-1.226 0-2.831 1.335-2.831 2.747 0 .685.393 1.128 1.035 1.183-.232-.507.115-1.049.571-1.035.697.021 1.069 1.542-.887 1.542-.864 0-1.606-1.227-1.606-2.367 0-2.958 2.283-3.116 3.317-3.092.106-3.839-11.761 2.627-11.761-11.445 0-5.603 4.048-13.206 10.055-13.523.84-1.522 3.376-4.184 6.431-4.184-.544-1.46-3.712-.766-5.616.122-1.065.497-1.497 1.842-2.259 1.497-.422-.191.588-2.004 1.017-2.463l1.708-1.753c3.79-3.496 12.725-5.756 18.028-7.374l3.659-.961c-.394 2.501-4.771 4.024-10.762 5.264 5.401.216 10.631 3.104 10.631 3.104-1.612.138-3.029.27-4.856.27-2.552-.001-5.606.853-7.965-.313-.549-.271-.619-.378-1.299-.554-1.98-.512-3.802-.609-5.622.541-.647.409-1.45 1.032-1.652 1.81.983-.084 2.23-.81 3.412-.81 2.91 0 2.374 2.883 1.406 4.55-.515.886-1.095 1.248-1.538 1.928 2.187.524 2.953-1.716 4.93-3.028 1.507-1 4.009-.663 5.663-.442 1.584.211 4.739.279 6.75.482 1.253.126.9.721.9 1.774 0 2.237.036 4.233-.138 6.471-.398 5.111-2.217 5.193-5.015 8.07-1.648 1.694-2.827 4.331-1.885 6.732.199.509.155.602.607.726 0-3.355 3.675-4.112 3.675-1.755 0 2.009-.265 2.795-1.272 4.631l-1.589 2.954c-1.285 2.537-1.826 7.466-1.365 10.797.108.778.552 1.187.552 1.187.023-1.056.633-5.533 1.837-5.533 1.885 0 .309 3.982-.919 4.319.158.609.738 1.038 1.077 1.592 1.017 1.659 2.073 4.099 2.073 6.236.684-.188.584-1.721.692-2.393l.533-2.556c.245-.864.377-1.599.7-2.384.281-.684.966-1.246 1.356-1.845-.502-.346-.909-.875-1.345-1.317-.696-.706-.808-.618-.883-1.926-.052-.916-.205-1.563.001-2.421.356-1.483 1.702-2.47 1.702-.41 0 .907-.834 1.492-1.181 2.024.27.524.713 1.111 1.071 1.598 1.31 1.785 1.423 4.406 1.423 6.77.515-.355.775-1.926 1.094-2.654 1.831-4.185.219-3.802.219-5.579 0-1.407-.062-3.644 1.706-3.644.69 0 1.164 1.506 1.181 2.294.571-.157.351-.366.618-.984.166-.386.399-.702.695-.905 1.191.285 1.312 2.046 1.312 3.104 0 2.328-2.112 3.046-.902 6.866.159.503.359 1.297.476 1.805.248 1.079.362 2.266.786 3.241.16.369-.056.223.297.37.47-1.007-.208-5.784.693-8.33 1.405-3.973 1.642-10.233-.119-13.988-.528-1.126-1.523-2.067-2.805-1.435.542 1.054 1.467 2.58.118 3.496-2.655 1.802-6.024-2.146-6.024-4.44 0-3.559 1.207-5.076 4.998-5.387 1.794-.147 2.424-.168 3.643-.978 3.14-2.087.763-5.856.678-6.186h-.394c-.305 3.772-3.231 3.253-4.833.516-.156-.266-.311-.503-.419-.784-.784-2.043-.673-3.724-.334-5.881.174-1.106.203-1.618.513-2.577.341-1.054.478-1.143 1.658-1.264 1.317-.134 6.607-.655 7.615.002.602.392 1.089 2.565 3.412 2.565-.677 1.04-1.982 1.084-3.003.524-.396-.217-1.469-2.413-3.559-2.413-.79 0-1.224.066-1.944.16-.683.09-1.261.11-2.124.11.126.557.646 1.481.646 2.141 0 1.318-1.363 1.933-2.221.288-.632.821-.504 4.259.287 6.048 2.219 5.019 4.569-.044 4.569-1.325 0-.646-.418-1.077-.919-1.215-.28.601-.19 1.62-1.05 1.62-1.22 0-.809-2.294 1.181-2.294 2.212 0 2.595 2.732 2.421 4.507-.088.896 1.412 6.206-3.703 7.536-2.051.533-5.805.579-5.805 3.613 0 1.724 1.301 3.48 2.663 4.145.867.423 1.09.193 1.931.174-.131-.503-.301-.375-.636-.83-1.357-1.841.507-4.224 3.246-2.123 2.917 2.236 1.466 8.906 2.024 12.225.648 3.86.222 5.105.222 8.274.616-.169.499-.709.526-1.483.079-2.221.908-11.203 3.017-11.203.9 0 1.132 3.655 1.238 4.396.148 1.031.109 4.764-.001 5.513-.162 1.101-.168 7.234.076 8.311.422-.318.311-1.01.404-1.879.075-.7.259-1.469.346-2.073l.854-3.98c.434-1.442 1.616-5.754 3.383-6.239-.068-.843-.724-.804-1.216-1.314-.769-.796-2.196-4.522-2.196-5.57 0-.637-.013-1.293.163-1.857.844-2.7 2.581-3.02 3.477-5.332.228-.587.698-1.951.429-2.529-.544.149-.364.21-.697.633-.21.267-.466.509-.711.754-1.864 1.863-4.367.659-4.367-1.386 0-.891 1.026-2.401 1.541-2.869 1.364-1.239 2.858-1.046 3.62-3.164.634-1.763-1.135-3.699-2.536-3.819.005.22.585 3.239-1.444 3.239-1.112 0-1.444-1.293-1.444-2.294 0-.599.447-1.752.652-2.164.288-.577.706-1.163 1.108-1.695.548-.727 2.288-2.124 3.228-2.349-.013-.599-.151-.72-.248-1.23-.681-3.566 1.02-3.91 1.298-4.979-1.763.151-3.351 1.948-3.978 3.468-.275.666-.284 1.447-.747 1.796-.14-1.729-1.056-3.085.709-4.94l.066-.067c1.503-1.489 3.566-1.741 5.656-1.741.452 0 .508.1.919.135-.299-1.152-2.288-1.889-3.412-1.889-1.416 0-2.927.263-4.107.77-.979.421-1.721 1.059-2.728 1.378-1.635.518-5.563.146-7.733.146h-1.181c0-2.924 2.351-3.091 4.519-3.451 0 0 3.235-.492 6.375-1.543l-3.773-.304c-2.325-.31-6.53-.959-7.383-4.96 2.599-.623 5.354-1.019 8.117-1.505.633-.111 1.39-.167 2.097-.273 1.782-.268 3.769-.587 6.034-.773-5.411-.579-15.268.308-16.904.527-.741-1.487-1.977-3.388-2.547-6.526-.233 2-.896 5.492-1.521 7.068-17.908 2.916-31.363 8.387-48.684 20.031-.005-.002-2.7-2.22-6.052-2.22z"/>
  <path d="M154.652 61.844zm-4.987-11.202zm4.987 12.341c-.066.811-.33 1.299-.33 2.365 0 1.5 1.227 3.107 2.951 3.107 2.425 0 4.682-2.941 4.335-4.452-.579.586-1.468 1.406-2.756 1.406-.74 0-1.183-.313-1.183-.884 0-1.954 4.606-3.275 7.473-3.501 1.829-.144 5.553-1.19 5.553-1.19-2.04 0-7.396-.863-8.97-2.187-2.252-1.894-2.298-2.682-3.455-5.071-.375-.774-1.764-2.757-3.351-3.222.685.201 2.162 2.757 1.552 5.62-.406 1.904-2.828 4.899-5.427 3.751-2.327-1.027-1.833-3.682-1.227-4.417.392-.475.926-.593 1.597-.538.473.039.993.353.993.835 0 .693-1.265.769-1.652.972.486 1.331 2.217 1.346 3.37.597 1.74-1.131 2.109-3.15.314-5.179-1.005-1.136-2.408-1.055-3.858-.624-.456.136-.411.228-.917.271l1.703-1.083c9.219-4.631 10.093 6.084 10.41 6.764 1.174-.926 1.695-4.874 2.216-6.196.521-1.322 1.822-1.85 2.233-1.449.909.887-.915 3.425-2.125 4.258 1.28 1.426 1.281 3.148 1.663 4.834.737-1.464 2.258-3.359 3.211-4.141.414-.34 1.269-1.236 1.795-1.38-.175-.674-.963-.543-1.289-1.5-.533-1.565.211-2.881 1.068-4.004.358-.469.97-1.205 1.559-1.366-2.714 4.168-.182 9.366 3.161 7.342 1.851-1.121 3.323-3.131 3.401-4.103-.885.673-2.539 1.096-3.083.377-.655-.866 1.118-1.875 1.775-2.282 1.09-.675 4.734-1.479 8.526-1.739-2.398-.284-4.389-1.308-4.923-1.43-2.349-.536-3.976-1.587-5.483-3.328-1.123-1.297-2.441-3.17-4.596-4.279.619 2.121 1.49 3.835-.291 5.862-1.648 1.876-5.268 2.853-7.506 1.428-2.336-1.488-1.084-4.743 1.178-4.975 1.929-.198 2.801 1.823-.702 2.122 0 0 .729 2.125 3.239 2.125 1.465 0 3.481-2.024 3.481-3.33 0-2.092-1.363-4.184-4.082-5.128 7.854-.81 15.975.995 15.975 9.156.619-.426.998-2.127 1.8-2.761 2.232-1.765 3.93 1.44 3.93 3.74 0 5.938-7.924 14.812-20.244 21.321-18.86 9.963-45.058 13.931-59.374 15.826 11.268 1.08 20.92.486 37.558-2.892C172.376 73.046 199 60.849 199 47.943c0-8.503-3.888-15.07-25.711-28.882 4.369-5.205 2.425-9.347.145-11.39 1.14 3.142.083 6.903-2.567 6.604-2.272-.256-6.735.157-9.131-.204-7.025-1.061-12.476-3.638-18.773-4.653 0 0-13.735-2.113-18.002-1.64 10.142 1.175 26.765 6.466 29.624 8.106 8.325 4.775 8.612 7.599 8.832 8.072 1.07-.294 2.919-.972 6.762-.171 1.318.274 7.184 3.383 9.889 5.665.813.686.178 1.453-.465 1.479-3.622.149-10.557-2.417-13.035-3.741l-4.834-2.587c-1.072-.64-1.282-.577-2.193-1.524-2.395-2.489-5.458-4.615-8.476-6.265-1.679-.918-3.101-1.699-4.899-2.52-1.376-.629-3.993-1.843-5.557-1.843.198.278 2.576 1.447 3.152 1.753 2.118 1.127 4.155 2.562 6.037 4.049.474.375.896.714 1.383 1.142 2.529 2.226 7.39 6.699 7.543 10.194.142 3.237-.808 5.279-2.288 7.775-.329.554-.672.96-1.052 1.483l-3.654 3.935c-.866.865-1.772 1.6-2.721 2.331-2.82 2.17-7.845 5.058-10.306 5.058-1.758 0-2.546-.869-2.546-1.617s1.282-.82 2.655-.822c-.335-1.125-1.883-1.683-3.275-1.676-.844.004-2.36.514-2.36 1.818 0 1.695 1.863 3.198 1.956 4.223-.963 1.646-5.078-1.892-6.333-3.611a3.613 3.613 0 0 0-1.103-1.025c-.632-.392-1.803-.655-2.643-.392 2.347 2.122 3.655 3.965 1.214 5.163-1.039.51-2.205.296-2.684-.677-.61-1.238-.036-2.182.226-3.336-1.655-.9-3.358 2.058-3.415 3.506-.098 2.451-.252 4.9-.263 7.429l.129 11.339c.01.803.022 2.752.661 3.234l.227-2.466c.67-3.679 1.797-7.311 3.165-10.782.431-1.093 1.315-2.846 2.656-2.937 1.405-.095 1.752 2.16 2.039 3.415.652 2.852.216 4.979.437 7.783.072.91.113 1.858.138 2.692.025.81.497 3.592.756 4.081.203.382.004.258.425.373.04-1.84 1.803-9.012 2.712-10.708.312-.582.419-.738.963-1.034 1.164.802.963 4.047 1.145 5.435l.258 2.963c.055 1.008-.578 1.679-.354 2.669.553.136.366.136.919 0 .295-1.302-.444-1.646-.242-3.485.22-2.004.733-5.441 1.245-7.361 2.623-9.836 8.439-8.146 5.724-5.046-.343.392-.673.778-1.085 1.044-.518.334-1.039.413-1.573.676.287.403 2.174.911 3.035 3.027.605 1.488 1.077 3.079 1.437 4.649.213.93.412 2.428.49 3.394.503-2.887 2.02-6.925 3.452-8.931 1.904-2.668 2.85-.55 2.102.868-.498.944-1.549 1.632-2.278 2.361l-.756.842c1.042-.024 1.576-.012 2.083 1.28.224.572.49 1.409.56 2.659.634-2.536 1.574-4.045 3-4.749-.055-.676-.261-.422-.269-1.21-.016-1.863 1.319-2.244 1.319-2.244z"/>
  <path d="M95.317 19.145c1.719.591 2.768 1.842 2.768 3.425 0 1.323-.154 1.102-.394 2.024 1.687-.039 2.443-1.577 2.878-2.978.448-1.442-.566-4.04 1.846-4.04 1.692 0 .553 1.402-.399 2.154-1.076.849-.519 2.156-.519 3.38 0 .915-1.935 1.649-2.625 2.024 1.591.512 2.231 2.752 2.494 4.589 2.253-4.964 5.084-11.895 11.804-11.895 6.635 0 8.277 3.508 8.277 6.361 0 1.158-.956 2.746-1.748 3.19 1.331.571 4.437 2.282 4.247 6.941-.101 2.476-.841 5.073-2.133 6.306-1.411 1.348-3.173 2.251-4.996 2.96-1.172.455-2.114.483-3.369.585-2.164.175-7.848 1.35-8.407 3.502 1.995 0 3.358-.344 4.772 2.516.936 1.893 1.302 4.046 1.509 6.142.607 6.161-.112 11.836-.112 18.065.393-.465.32-1.303.415-2.002.421-3.072.952-6.137 1.73-9.153.28-1.087.784-3.918 1.923-4.231 1.087.749 1.377 4.611 1.448 5.934l.295 3.475c.104.82-.133 2.778.226 3.547.364-.135.271.005.391-.542.042-.193.09-.661.112-.829l.623-5.163c.164-1.208.138-2.536.282-3.624.224-1.703.167-3.612.167-5.362 0-2.214-.857-2.503.441-6.43.357-1.079.788-1.79 1.32-2.692.267-.453.535-.759.845-1.156.313-.401.59-.659 1.011-.984 1.69-1.306 4.061-1.731 5.739-.141 1.18 1.119 2.576 5.475 5.154 5.599-.089-1.1-1.718-2.534-.839-4.887 1.005-2.691 5.571-1.473 6.326.627-.208-1.693-1.101-2.499-2.591-3.516-1.126-.768-3.227-1.722-4.937-1.806-1.23-.061-1.598-.338-2.18-1.133-.389-.531-.904-1.626-1.179-2.297-.532-1.299-.969-2.602-1.117-3.98-.187-1.748-.299-4.004.071-5.757l.428-1.719c.35-1.017.879-2.251 1.876-2.525.582.068 1.18 1.291 1.445 1.753.425.743.382 1.791.211 2.783-.229 1.328-.648 2.223-2.928 3.335 1.995 1.35 2.669 2.381 3.634 3.254 1.2 1.085 2.124 3.856 2.231 5.611.725-2.321 1.628-4.143 2.287-5.072 1.693-2.389 3.907-4.045 3.564-4.226-1.616-.856-3.57-2.585-3.624-4.185a3.498 3.498 0 0 1 1.016-2.621c.354-.361.429-.496.851-.394 1.062.257 1.486 1.842 1.796 2.747l.553 2.4c.531 2.708.545 5.719-.803 8.107-.292.518-.868 1.38-1.417 1.647-.753.366-1.154.25-1.801 1.147 1.842.24 2.661 1.973 2.953 2.942 1.109 3.677 1.334 3.84.357 5.619 2.263-.052 1.148-4.665 1.605-7.045.19-.991.503-2.146 1.456-2.146 1.139 0 1.444.938 1.444 1.889 0 1.297-.519 2.729-1.909 4.656 2.816-1.546 5.302-4.399 5.302-7.822 0-4.268-3.807-5.939-4.262-7.277-.256-.752-.561-1.161-.713-1.968-.321-1.704.186-4.786 1.844-6.214-1.924-.631-3.092-2.529-3.899-3.643-1.34-1.848-2.491-3.227-3.359-5.36-.226-.555-.344-1.354-.749-1.659 0 .534.018 1.096.005 1.625-.049 2.079-1.173 4.585-2.158 6.284-.413.712-.966 1.291-1.391 1.944-1.371-.376-3.184-3.788-3.882-5.185-.643-1.285-1.118-2.666-1.57-4.054l-.46-1.821c-.105-.51-.044-.558-.387-.816 0 1.78-.78 3.288-1.512 4.788-.491 1.005-1.493 2.11-1.769 3.174-1.124-.269-3.735-2.757-4.837-3.664-.32-.264-.4-.298-.71-.619-.828-.855-1.561-1.659-2.25-2.68-.506-.749-1.497-2.719-1.52-3.821-.758 2.62-.857 4.112-3.423 4.786-.428.112-1.567 1.139-2.09 1.139-3.321 0-4.389-2.861-5.217-5.433-.24-.746-.821-3.07-.821-3.07-.05 5.05-1.671 7.16-2.427 9.55-.48 1.524-1.805 3.044-4.539 5.111z"/>
  <path d="M102.416 29.183c.654-.056 1.48-.631 1.932-.982.922-.717 4.665-3.742 5.155-3.876-.337.723-.699 1.518-1.179 2.162-1.066 1.43-2.331 2.218-3.936 2.971l-2.367 1.076c.109.308.08.195.279.388.385.373.85.647 1.185 1.076.931 1.195 1.864 2.55 1.617 4.261-.26 1.8-.544 3.081-2.248 3.768-2.972 1.197-4.162-1.579-2.879-2.825.314-.305.707-.324 1.259-.324.218.963-.061 1.16-.131 2.024 2.194-.05 4.473-3.448 1.823-4.574-.52-.221-.774-.041-1.27-.179-1.041-.291-.29-1.959-.16-2.535-.925.503-1.683 1.523-2.258 2.402-2.598 3.974-2.961 3.135-5.767 8.646-2.144 4.211-4.181 9.943-4.181 15 0 .943.131 1.317.131 2.294h.394c.088-1.09.637-2.736.967-3.73 2.08-6.28 2.974-1.448 2.971 3.325 0 .602-.032 1.299-.001 1.89.034.647.138.93.134 1.752-.008 1.457.13 2.427.13 3.781h.262c0-2.405 1.206-10.212 1.668-12.726.217-1.179.75-2.795 2.007-2.795 2.109 0 1.302 4.673 1.312 6.612.017 3.298-.263 6.803.004 10.12.059.73.259 1.299.259 2.028h.262c.171-2.115 1.603-10.202 2.026-12.088.949-4.241 3.224-2.908 3.224-1.543 0 1.032-.066 2.116-.683 2.806-.734.821-.819.569-1.942.838.377.579 1.069.851 1.544 1.381 2.168 2.417 2.262 5.859 2.262 9.146 0 .898-.131 1.168-.131 2.024.493-.339.523-.895.713-1.561.199-.698.32-1.064.478-1.803.44-2.05 1.594-5.947 1.849-7.546.4-2.514.836-5.945.297-8.582-.082-.403-.154-.485-.187-.888h-.262c-.013.581-.28 1.238-.447 1.834-.198.706-.364 1.195-.865 1.54-1.188-2.309-.066-3.344.656-4.454-1.374-2.11-2.422-2.94-5.119-2.294.108-1.336 1.871-3.219 2.725-3.946 1.882-1.602 4.941-2.232 7.384-2.664l2.623-.677c.536-.157.721-.183 1.188-.398.712-.328 1.551-.755 2.039-1.413.356-.481.332-.601.973-.754-.292 1.287-1.122 1.694-1.312 2.429.597-.051 1.007-.544 1.464-.924 1.902-1.576 3.054-4.875 1.822-7.315-.321-.636-.729-1.306-1.449-1.479 0 1.191-.478 2.203-1.103 3.049l-1.371 1.425c-2.577 2.082-7.37 1.458-7.37-2.585 0-2.257 3.846-3.189 5.119 2.429h.263c.036-1.664 3.151-5.407 4.594-5.803v-.27c-.82-.196-2.225-1.292-2.792-1.853-.537-.531-1.898-2-2.065-2.736-.514 1.153-1.719 3.85-3.623 3.85-1.273 0-1.929-.761.307-3.211.9-.986 2.581-1.776 3.499-1.778.774-.002 1.392.518 1.392 1.274 0 .4-.34.552-.394 1.215.883 0 1.639-.459 2.207-.835 1.132-.748 1.468-.997 1.468-2.405 0-2.628-4.113-4.194-6.258-4.194-4.936 0-6.086.442-8.988 4.173-1.065 1.37-2.06 2.97-2.773 4.571-.246.552-.305.356-.356.985z"/>
  <path d="M42.436 49.968c0 .941-.283 1.236.03 1.858 3.067-.305 1.735 1.327 1.735 3.424 1.42-1.418 2.831-2.477 3.091-1.233.205.977.268 2.438-.894 3.896-.732.919-1.55 1.988-1.55 3.443 0 4.396.264 6.171 1.846 7.375-.098-1.208-.313-3.393.03-5.137.248-1.265 1.26-2.519 2.055-2.519s.671 1.949.043 2.747c-.413.525-.789.486-.944 1.084.691 0 1.041.032 1.467.361 1.506 1.164 1.36 3.116 1.36 5.08.401-.302.352-.753.49-1.521.126-.698.181-1.174.326-1.825.118-.533.177-1.212.272-1.879.568-3.976.311-8.749-2.192-11.996-.734-.952-1.63-1.78-2.312-2.751-1.349-1.92-1.832-7.048-4.196-7.697.073.9.335 1.806-.445 2.512-1.115 1.01-4.149.446-4.149-2.782 0-1.059.601-1.439.787-2.159-2.431 0-2.924-1.153-1.635-2.896.362-.49.768-.987 1.372-1.153.222.341.361.622.602 1 1.29 2.026 1.601 3.253 1.26 5.639-.038.268-.288 1.055-.156 1.188l.294-.093c.098-.076.234-.24.329-.342 2.113-2.269 4.463-1.505 6.558.339 1.185 1.044 1.047 1.07 1.907 1.953.513.526 2.063 2.149 1.85 2.97-.196.757-1.208.55-1.568-.433-.239-.653-.101-.676-.051-1.291-.902.077-1.181 1.022-1.181 2.024 0 1.164 2.346 5.256 2.964 6.67 1.217 2.784 1.862 7.564 2.253 10.639l.145 2.28c.105.691-.167.317.282.655 0-1.235.121-1.973.128-3.108l.211-3.158c.262-1.781.08-4.45.5-6.099 1.053-4.124.611-4.227 2.725-7.185.584-.817 1.487-2.151.724-3.217-.234-.327-.248-.348-.614-.449-.039 1.785-2.318 4.641-3.468 1.272-.535-1.569-.293-3.969.553-5.349.75-1.223 1.911-1.958 2.841-3.017.673-.766 1.299-1.212 1.953-2.041.456-.577.972-1.231 1.168-2.047.169-.703-.382-1.839-1.209-1.91-.143 1.769-1.714 3.104-3.412 3.104-.478 0-1.706-.931-1.706-1.485 0-.907 2.275-4.15 5.517-2.434.874.462 1.308 1.452 1.308-.131 0-1.217-.745-1.788-1.573-2.162-.436-.197-2.549-.425-2.57-1.477-.02-.976 1.017-1.468 1.65-1.759.686-.316 2.206-.789 3.15-.81-.29-1.118-1.996-1.35-3.019-1.35-4.572 0-6.427 3.914-7.087 3.914-1.448 0-1.428-2.203.021-3.083.745-.452 1.51-.28 2.079-.561-.285-.4-.689-.405-1.575-.405-2.079 0-2.849.413-4.41 1.674-.7.566-1.726 2.645-2.546 2.645-.993 0-1.575-1.924-1.575 2.834 0 2.075.809 5.333 3.15 5.534-.144-.635-.27-.435-.445-1.027-.296-1.003-.335-2.792.35-3.525.495-.53 2.983-1.388 2.983-.037 0 .654-.136.826-.407 1.201-.501.695-2.279 2.367-1.299 4.467 1.008-.277 1.015-1.528 2.887-1.08.282 1.368-1.312 1.476-1.312 4.049-.808-.556-1.037-1.248-2.099-1.755-2.007-.959-2.975-.704-4.461-3.376-.213-.384-.45-.966-.524-1.486-.413-2.902-.457-3.662.702-7.234.272-.837.54-1.53.853-2.228.3-.669 1.01-1.438 1.067-2.142-5.453 2.839-14.068 11.25-14.298 17.336 0 3.256 3.057 7.099 5.956 8.113.546.202 5.058.691 5.058 1.554z"/>
  <path d="M83.91 9.749c.861 5.079-3.323 7.551-10.894 8.638 2.436.435 5.103-.324 5.766-.414 2.554-.345 10.639-3.324 10.639.548 0 1.286-1.239 2.429-2.494 2.429-.796 0-1.312-.491-1.312.405 0 1.548 2.212 2.643 4.342 2.299 1.301-.21 1.7.198 2.748 1.612 1.14 1.539 1.827 2.753 2.622 4.457l-3.956 5.379c-.313.428-1.074 1.51-1.425 1.774 0-2.304-.041-3.356.915-4.728 1.363-1.957 2.83-1.952 3.023-2.695-.769-.018-1.948-.339-2.572-.594-.379-.155-.757-.322-.998-.593-1.081-1.215-.088-2.549.289-4.211-.393.034-2.092.951-3.917-.156-.564-.342-1.037-.872-1.202-1.598-.476.358-.131.758-.131 2.159 0 2.068-.532 4.363-1.536 5.438-.88.943-3.545 1.72-3.582 3.469h.394c.248-.957 2.256-1.93 4.186-.39.86.686 1.064 1.389 1.064 2.55 0 2.834-4.987 4.245-4.987 7.828 0 .37.54.909.787 1.08.497-.342.83-.804 1.277-1.251 2.05-2.051 3.186-.549 3.186.037 0 2.455-.964 2.768-2.231 4.454-1.352 1.799-1.969 2.297-1.969 4.858 0 1.837 1.335 4.995 3.019 5.399-.025-1.174-1.49-4.02-.293-5.7.784-1.101 1.877-.13.719 1.01-.378.372-.373.157-.688.642.136.524.919.92.919 3.644 0 .665.295 13.387.295 14.576l2.88-21.973c.894-3.726 3.216-7.723 5.086-10.966.267-.462.448-.687.736-1.133l2.927-4.143c.549-.699 1.884-2.171 2.589-2.737.232-.186.853-.716.975-.887-.482-.741-1.556-1.611-2.212-2.449-.619-.791-1.522-1.744-2.068-2.597-.613-.957-1.257-1.921-1.759-2.914-.554-1.096-.923-2.036-1.388-3.296a18.262 18.262 0 0 1-.521-1.759L90.472 3.27c-.452.34-.095-.174-.425 1.317-.322 1.454-1.339 3.888-2.367 4.854-1.799 1.69-2.928.539-3.77.308z"/>
  <path d="M149.598 23.407c.938.646 4.292 4.917 3.024 9.439-1.183-3.761-2.017-5.081-3.876-6.092.607-.932.852-3.347.852-3.347zm-4.396-.837c0 3.115-.132 3.043-1.988 4.892 4.199 3.044 6.045 6.277 6.045 8.707 0 5.198-1.861 7.559-6.814 10.829 5.955-1.436 15.054-9.54 15.054-16.407 0-3.982-2.897-6.129-4.388-7.652l-1.892-1.698c-.252-.209-.366-.37-.617-.581-2.181-1.827-4.594-3.309-7-4.813-1.582-.989-3.274-1.789-4.938-2.615-.23-.114-.207-.123-.425-.238a2.086 2.086 0 0 0-.913-.276c.228.35 2.964 2.165 3.644 2.866.214.22.309.333.537.527l.492.439.131.135c.661.695 1.462 1.657 1.932 2.467.497.854 1.14 2.141 1.14 3.418z"/>
  <path d="M182.013 49.563c1.924 0 .143-3.131 0-3.239-.044.643.006.821-.549 1.872-.296.56-.271 1.367.549 1.367z"/>
  <path d="M89.028 63.329c0 1.384 1.444.774 1.444.135 0-.585-.191-.894-.347-1.398-.224-.723-.003-1.01-.572-1.166-.029 1.377-.525 1.906-.525 2.429z"/>
  <path d="M88.766 67.648c0 .365.063.372.131.675.842.207.254.191 1.05 0 .374-1.65-.275-1.502-.394-2.969h-.262c0 .481-.056.744-.16 1.185-.06.254-.365.96-.365 1.109z"/>
  <path d="M105.566 75.61c0 .365.063.372.131.675 1.431.352 1.382-.494.921-1.892-.153-.463-.166-.805-.527-1.077 0 1.369-.525 1.946-.525 2.294z"/>
  <path d="M99.003 74.936c0 .309.045.157.131.54 1.876.449 1.213-.893.995-1.698-.165-.609-.106-.866-.601-1.002 0 1.667-.525 1.598-.525 2.16z"/>
  <path d="M100.316 79.929c0-.456-.421-2.018-.787-2.294-.106 1.312-.559 1.577-.602 2.07-.088 1.013 1.389.739 1.389.224z"/>
  <path d="M94.119 89.502c0 .38.152.761.832.761s.487-.821.26-1.69c-.067-.366-.105-1.063-.129-1.355-.406.305-.963 1.481-.963 2.284z"/>
  <path d="M116.722 75.476c0 .223.377.438.525.54 1.37-.328.405-1.213.263-2.969h-.263c-.093.412-.088.867-.192 1.287-.101.404-.333.637-.333 1.142z"/>
  <path d="M93.36 75.071c.02.024.047.035.055.078.06.288 1.257 1.155 1.257-.483 0-.078-.34-1.651-.656-1.889-.166.356-.145.805-.257 1.22-.136.502-.287.576-.399 1.074z"/>
  <path d="M107.009 88.972c0 1.008 1.31.775 1.278-.112l-.407-2.05c-.521.86-.871 2.162-.871 2.162z"/>
  <path d="M55.56 68.592c0 .792 1.654.9 1.145-.624-.176-.527-.401-1.272-.751-1.535-.224.481-.08.465-.151 1.06-.053.459-.243.649-.243 1.099z"/>
  <path d="M95.019 85.995c.375.019.604-.182.337-1.078-.192-.645-.421-.87-.421-1.748 0 0-.731 1.587-.731 2.136-.001.549.589.679.815.69z"/>
  <path d="M68.291 60.495c0 .873 1.312.992 1.312 0 0-.614-.593-1.243-.656-2.024h-.263c.001 1.832-.393 1.458-.393 2.024z"/>
  <path d="M75.116 71.022c0-1.323-.262-.139-.262-2.159-.495.136-.351.178-.567.767-.102.278-.365.841-.397 1.057-.139.95 1.226 1.163 1.226.335z"/>
  <path d="M78.922 76.825c0 .862 1.312.862 1.312 0 0-.506-.417-.966-.656-2.024h-.263c0 .479-.037.755-.113 1.098-.089.405-.28.726-.28.926z"/>
  <path d="M93.491 70.212c0 .283.519.476.787.54.442-.395.58-.589.376-1.32-.203-.727-.273-1.238-.639-1.514a5.075 5.075 0 0 1-.193 1.151c-.12.399-.331.678-.331 1.143z"/>
  <path d="M107.009 85.058c0 .44.377.67.656.675 1.44-.341.12-1.217 0-2.699.001-.001-.656 1.351-.656 2.024z"/>
  <path d="M85.091 75.61c.061.534.903.574 1.05.135.298-1.279.001-.609-.11-1.641-.08-.74.174-.713-.284-1.058-.317 1.399-.656.743-.656 2.564z"/>
  <path d="M63.731 70.195c.029 1.172 1.148.916 1.148.422 0-1.339-.385-.626-.262-2.294-.209.189-.223.282-.389.544l-.334.736c-.126.266-.156.373-.163.592z"/>
  <path d="M111.078 78.31c0 .985 1.246.968.937-.546-.153-.748-.054-1.244-.544-1.613-.228.488-.079.465-.147 1.064-.051.453-.246.636-.246 1.095z"/>
  <path d="M71.835 74.261c.301 0 .153-.046.525-.135.287-1.235.017-.349-.394-2.159h-.262c-.021.959-1.093 2.294.131 2.294z"/>
  <path d="M120.134 77.23c0 .542 1.331.694.911-.789-.082-.288-.093-.381-.173-.779-.126-.628.025-.448-.344-.726l-.394 2.294z"/>
  <path d="M74.591 75.61c1.003 0 .272-1.531.249-1.606-.196-.635.066-.665-.511-.824 0 1.496-.637 2.43.262 2.43z"/>
</svg>
