<!--
  SVG Music Logos
  Aphex Twin - Selected Ambient Works 85–92 v0.1.0
  https://github.com/tiagoporto/svg-music-logos
  Copyright (c) 2016-2018 Tiago Porto (http://tiagoporto.com)
-->
<svg xmlns="http://www.w3.org/2000/svg" viewBox="0 0 200 200">
  <path d="M100 2C45.876 2 2 45.875 2 100s43.875 98 98 98 98-43.875 98-98-43.875-98-98-98zm0 189.372c-50.462 0-91.37-40.91-91.37-91.37C8.63 49.537 49.538 8.63 100 8.63s91.37 40.908 91.37 91.37c0 50.46-40.906 91.372-91.37 91.372z"/>
  <path d="M164.307 143.998l-29.83-83.863c-3.273-9.074-10.196-14.26-18.682-14.26h-67.12c-7.442 0-13.475 6.035-13.475 13.477 0 7.44 6.033 13.475 13.476 13.475h19.32c8.658 0 14.027-10.54 16.47-11.73 1.517-1.03 3.537-1.22 5.275-.316 2.487 1.294 3.472 4.327 2.246 6.826-.032.102-.07.15-.07.15l-33.66 60.636h.004c-1.356 2.44-.833 5.575 1.388 7.433 2.52 2.102 6.266 1.763 8.368-.755l17.872-22.036c1.71-1.833 2.054-2.416 5.674-2.416 6.176 0 11.184-5.013 11.184-11.19 0-2.17-.624-4.193-1.698-5.91-.13-.18-.257-.368-.37-.564-1.83-3.118-.78-7.128 2.333-8.953 3.124-1.827 7.13-.777 8.953 2.336h.008l39.054 64.274c.025.033.053.077.078.12l.025.044c1.885 2.865 5.568 4.135 8.902 2.857 3.843-1.484 5.755-5.79 4.277-9.632z"/>
</svg>
