<!--
  SVG Music Logos
  Arctic Monkeys - AM v0.1.0
  https://github.com/tiagoporto/svg-music-logos
  Copyright (c) 2016-2018 Tiago Porto (http://tiagoporto.com)
-->
<svg xmlns="http://www.w3.org/2000/svg" viewBox="0 0 200 95">
  <path d="M114.756 22.926s-6.587-5.916-10.352 0c-3.765 5.916-3.765 17.325 3.495 14.242 0 0 4.3-1.2 6.856-3.89v16.135s-11.88 6.386-21.646-2.958c0 0-9.41-10.636-.807-26.157 0 0 7.53-13.773 23.798-11.622l-1.344 14.25z"/>
  <path d="M118.386 8.447l-1.21 12.06h5.916s-2.286 24.737-2.958 27.83v1.076l12.1-1.48s1.748-27.292 2.42-28.905l6.05-.27V5.314s-20.033 2.906-22.318 3.134z"/>
  <path d="M143.394 5.313s-1.48 22.184-2.152 23.663c-.673 1.478-1.883 17.478-1.21 18.285l10.352-2.016s4.27-40.385 4.722-41.09l-11.712 1.16z"/>
  <path d="M184.904 19.733s-6.05-7.664-12.202-1.412c-6.152 6.253.807 12.605 3.63 12.605s6.756-.605 8.572-2.32V42.22s-12.302 6.856-21.68-.91c0 0-13.613-9.175-5.143-27.426 0 0 7.26-16.74 27.328-9.73l-.504 15.58z"/>
  <path d="M3.5 92.436h9.782l3.125-11.9s2.925 10.588 3.328 10.892c0 0 6.957-8.874 8.672-10.89l-1.21 11.393 9.377.506s-.403-30.452 0-30.957H30.12s-6.587 10.89-6.52 11.595c.067.706-2.454-8.27-2.655-10.184l-7.362-.2S4.407 90.72 3.5 92.435z"/>
  <path d="M70.657 58.555s-1.412 16.536-2.522 18.402c-1.108 1.866-1.466 14.37-1.54 14.873-.073.505 10.212-.504 10.212-.504s.807-14.783 1.513-16.063c0 0 6.15 15.86 7.764 15.86s9.48-.502 9.48-.502.806-16.84 2.722-22.284c1.916-5.446 2.017-14.42 2.017-14.42H90.32s1.01 4.74-.403 9.48c-1.41 4.738-2.723 9.075-2.723 9.075l-5.546-16.738s-8.57 2.823-10.99 2.823z"/>
  <path d="M102.39 53.916s-1.38 13.915-2.995 18.454c-1.613 4.537-1.714 18.15-1.714 18.15l10.588-.807.706-11.797 4.84 11.9 11.798-.506-8.437-18.857s9.445-12.612 11.764-18.91l-11.093.96s-5.647 11.094-6.554 12c0 0 1.41-7.865 1.11-11.293l-10.013.706z"/>
  <path d="M130.956 50.89c-.4.056-1.916 16.74-2.924 21.48-1.01 4.74-1.01 15.226-.706 16.74h19.663l1.714-11.8h-10.777l.49-3.326 6.757-.303.303-10.184-6.353.202V60.37l8.974-.874-.627-11.126s-7.07 1.226-16.514 2.52z"/>
  <path d="M149.208 48.37s5.646 20.618 7.06 22.66l-1.16 18.08h10.636l1.21-17.546s10.084-21.58 10.084-23.193h-11.092l-3.63 9.48-2.32-9.48h-10.788z"/>
  <path d="M180.668 49.413s-6.396 3.498-6.543 11.653c-.102 5.64 2.913 10.336 8.056 12.615 2.544 1.128 3.224 1.67 3.224 3.087 0 2.255-6.25 1.854-9.072-2.885l-3.832 11.09s5.345 6.858 13.815 4.136c8.47-2.723 10.185-10.386 10.185-13.512 0-3.126-1.43-10.184-8.068-12.806-2.434-.962-3.715-1.8-3.024-3.43 1.41-3.327 5.647-.2 7.966 2.623l3.126-9.177s-6.152-8.3-15.832-3.393z"/>
  <path d="M66.018 68.032s-3.025-8.503-11.697-8.536c0 0-6.15.975-10.587 5.21 0 0-9.983 9.578-4.336 21.376 0 0 7.26 12.1 19.16 3.227 0 0 10.587-5.748 7.46-21.278zm-11.395 12c-1.31 1.412-4.84 3.126-6.756-.705-1.915-3.83 2.22-7.966 2.22-7.966s3.528-3.932 6.15 0c2.622 3.934-.302 7.26-1.614 8.673z"/>
  <path d="M82.623 37.984c7.125-8.336 7.125-16.67 4.302-20.435-2.823-3.765-7.663-3.093-12.503-1.077-4.84 2.017-11.428 2.42-11.294 3.764.135 1.344-4.302 34.553-4.302 34.553v-1.076s-1.613-14.79-2.823-17.747c-1.21-2.958-2.15-13.58-2.823-13.04-.672.537-12.1 2.554-12.37 2.957-.27.403-.807 6.99-6.857 15.46C27.903 49.817 23.6 59.497 23.6 59.497l13.04-.807c-.134-2.825 1.614-5.648 1.614-5.648l8.203-.27.403 5.244c8.47 1.883 24.2-2.554 24.2-2.554l.672-12.37c2.15 2.42 4.17 11.428 5.244 10.757 1.075-.673 13.982-2.69 13.982-2.69l-8.335-13.176zM46.32 43.63l-4.032.538 4.033-8.74v8.203zM77.65 29.36c-.94 2.802-5.11 3.65-5.11 3.65l.942-7.302c3.495-1.387 5.11.848 4.168 3.65z"/>
</svg>
