<svg xmlns="http://www.w3.org/2000/svg" viewBox="0 0 200 102" class="bartucada">
  <path class="bartucada__shadow" d="M101.344 63.15c-1.274 0-2.082-1.074-2.248-2.114-.2-1.266-.867-3.238-.867-3.494v-.208c0-1.832 3.623-3.16 4.824-4.31 1.882-1.806 3.008-1.848 4.808-4.33 2.3-3.17 5.315-7.42 5.315-12.75V32.62c0-8.3-6.258-13.59-11.834-16.405-2.966-1.498-7.08-2.674-11.018-3.1-3.377-.366-3.496.446-5.09-1.968-1.364-2.062-2.823-2.055-3.615-3.24-2.57 0-9.993-4.36-12.457-4.36-.48 0-4.625 1.957-4.964 2.49L66.017 16.6c.278 2.676-4.445 2.107-6.82 2.107h-8.305c-1.21 5.197-3.444 3.273.68 8.666.765 1 5.34 6.584 5.34 7.325 0 1.224-3.93 5.777-4.857 7.186-2.003 3.042-4.3 2.375-5.315 6.728 1.017 1.92-.536 3.347 1.44 3.545 1.286.13 2.936.26 4.257.518 2.426.472 6.052 1.128 8.63 1.128 1.62 1.086 1.38 3.908.913 6.52-.408 2.28-.706 4.915-.706 7.394-.484.723-1.327 1.87-2.49 1.87h-.624c-.874 0-3.53-5.4-8.512-5.4h-1.453c-2.97 0-5.232 1.79-7.126 3.048-1.373.91-1.86 1.012-3.26 1.724-.802.407-2.588 2.08-2.902 2.08h-.415c-1.162 0-4.523-3.738-8.097-3.738-.474-.708-.756-.59-1.044-1.448-.233-.694-.338-1.127-.737-1.755-.662-1.042-1.358-1.82-2.374-2.403-2.007-1.153-5.294-1.504-8.052-.79-.62.16-1.01.542-1.776.715-.74.167-1.53.013-2.338.154-1.224.213-2.844.593-3.65 1.126-1.24.82-4.188 3.79-3.905 5.854l.245 2.072c.85.6 1.104 1.912 2.59 2.777 1.157.674 2.276 1.385 4.015 1.382 4.007-.006 2.878 3.714 3.478 7.113.412 2.34.404 7.85 1.152 9.44 1.084 2.3 2.94 4.422 6.167 4.422 4.186 0 9.136-.37 11.636-2.068 1.834-1.246 2.234-1.33 3.885-2.967 1.043-1.035 1.802-3.48 3.164-3.48 1.417 0 2.993 3.322 7.682 3.322 1.6 0 2.55-.624 3.945-.624.374-.25.364-.415.83-.415 1.09 0 3.747 1.525 4.15 2.078 1.02-.49 3.082-.256 3.834.32.54.414.633 2.062 1.386 3.182 1.183 1.76 3.166 3.144 5.992 3.144 3.644 0 6.85-3.32 6.85-7.06v-.416c0-1.825-1.66-2.51-1.66-3.946v-.623c0-1.26.35-3.324 1.453-3.324h.83c1.147 0 2.31 1.66 5.606 1.66 1.335 0 1.792-.924 3.19.135.8.61.974 1.937 1.348 2.805.795 1.847 2.558 3.07 4.488 3.817 5.415 2.098 9.56-4.47 10.906-4.47 1.33 0 2.783 1.81 4.006 2.43 1.73.874 3.217.654 5.13 1.1.466-.247 1.374-.623 2.075-.623 1.427 0 2.346 1.453 3.53 1.453h3.114c2.343 0 2.973-1.038 3.944-1.038h.624c1.58 0 3.08 1.454 5.398 1.454h.83c3.562 0 5.014-2.493 6.85-2.493 1.248 0 2.268 1.943 2.493 2.908.937.078 2.245 2.284 5.606 2.284h1.454c1.748 0 2.82-.832 4.567-.832h.417c.512 0 2.203 1.87 3.53 1.87h1.245c2.62 0 2.777-2.908 5.19-2.908 2.68 0 3.577 1.127 7.314.462 1.99-.354 5.33.082 6.39-1.5h1.037c.36-.537 1.412-1.247 2.284-1.247h.623c.328 0 2.375 1.454 4.36 1.454h.415l6.22-.89c.688-.055 1.32.778 1.462 1.304 1.45.032 1.173.623 1.87.623h1.244c2.223 0 4.91-2.594 4.57-4.776l-1.888-12.664c-.7-1.077-.795-2.593-1.47-3.704-.732-1.202-1.142-1.885-1.982-3.003-1.136-1.512-4.203-3.473-6.702-3.473h-.415c-5.166 0-8.61 4.57-10.796 4.57-.89 0-1.502-.7-1.87-1.247l-.35-3.125-.064-.613c0-2.04 1.453-2.05 1.453-4.777v-1.038c0-2.587-2.826-5.4-5.398-5.4h-1.038c-3.58 0-6.644 3.243-6.644 6.853 0 1.33 1.463 3.366 1.983 4.454.428.9.507 4.324.507 5.722 0 1.65-.897 2.235-2.074 2.7-.69.273-2.974 1.66-3.116 1.66h-.415c-2.74 0-3.28-5.353-7.518-6.393-2.796-.686-2.198-1.33-3.19-3.663-.58-1.36-2.202-2.82-4.033-2.82h-.622c-1.258 0-1.792.624-3.322.624h-.206c-.928 0-3.138-1.04-4.36-1.04h-2.7c-6.412 0-10.592 7.27-12.248 7.27-1.25 0-1.658-.623-2.907-.623h-.415c-1.198 0-1.32 1.04-3.114 1.04-2.347 0-1.267-6.854-7.474-6.854-1.57 0-2.528.623-3.322.623h-.416z"/>
  <g class="bartucada__text">
    <path d="M21.205 90.354c-1.784 0-1.762-1.366-2.16-2.823-.12-.438-.734-3.99-.75-4.233-.2-2.903-.827-6.873-.827-9.142v-.83h4.152l3.32.235c2.047 1.342 2.527.284 4.833 2.822.608.67 2.435 4.172 2.435 5.25V83.5c0 5.327-5.577 6.854-11.003 6.854zm-3.737-23.26c.923 0 2.076.752 2.076 1.662 0 1.008-1.68 2.2-2.7 2.284 0-1.517-.414-1.522-.414-2.7v-1.246h1.038zM10.2 72.08c2.37 0 1.913-3.515 3.53-3.947.032 1.372 1.162 4.867 1.407 6.485.346 2.288.386 4.624.79 6.894.422 2.37.373 4.736.793 7.098.437 2.456.377 4.236 3.447 4.236h.415c4.207 0 6.493-.133 9.414-1.59 2.103-1.048 4.704-3.348 4.704-6.3v-1.87c0-3.778-1.69-7.31-3.575-9.3-2.093-2.21-5.387-3.043-9.297-3.368.108-.466.208-.477.208-1.038v-1.246c0-1.878-1.93-3.738-3.945-3.738h-1.245c-1.232 0-2.38.26-3.255.69-1.646.81-1.26.475-3.398.546-1.83.06-4.35 1.768-4.35 3.54v.208c0 1.623 2.404 2.7 4.152 2.7h.207z"/>
    <path class="bartucada__letter-decoration" d="M9.174 70.984c1.044 0 1.896-.852 1.896-1.896s-.852-1.896-1.896-1.896-1.896.852-1.896 1.896.852 1.896 1.896 1.896z"/>
    <path d="M44.665 84.124c1.162-1.736 6.414-4.153 9.343-4.153.054.65.208.74.208 1.455v.623c-2.64.615-3.798 2.908-8.512 2.908-.387 0-.856-.56-1.04-.832zm-7.682-8.722c0 1.262 1.825 2.7 3.322 2.7h1.038c1.17 0 2.49-1.26 2.49-2.492v-.623c0-.907-.414-.754-.414-1.66v-.21c0-1.382 3.495-2.284 5.19-2.284h.414c2.233 0 4.39 4.316 4.567 6.438-3.816.89-11.625 2.82-11.625 7.062 0 1.72 1.47 3.115 3.322 3.115h2.076c2.886 0 5.545-2.285 7.682-2.285-.136.584-.415 1.055-.415 1.662 0 .895 1.023 1.87 1.453 1.87 2.475 0 1.472-3.425 1.123-5.485-.338-2.002-.66-4.756-1.122-6.563-.9-3.515-2.7-8.722-6.852-8.722h-.83c-2.28 0-4.936 1.91-6.353 2.99-1.857 1.415-5.067 1.492-5.067 4.487z"/>
    <path class="bartucada__letter-decoration" d="M40.328 77.056c1.044 0 1.896-.852 1.896-1.896s-.852-1.896-1.896-1.896-1.896.852-1.896 1.896.852 1.896 1.896 1.896z"/>
    <path d="M68.126 87.24c0-5.688 2.123-14.122 7.267-14.122h1.038c1.97 0 3.323 1.593 3.323 3.53 0 1.097-.16 2.194-1.246 2.285-.018-.804-.262-2.077-1.038-2.077-1.12 0-1.87 1.027-1.87 2.077v.208c0 1.27 1.754 2.493 2.907 2.493h.415c2.196 0 3.945-2.584 3.945-4.57 0-4.208-3.35-6.62-7.504-6.793-5.473-.228-6.656 5.586-8.067 5.963-.382-1.64-.396-4.153-2.284-4.153h-.207c-1.888 0-4.152.24-4.152 2.077 0 .64 1.52.83 2.284.83h1.453l.993 5.582-.163 9.578c-1.117.3-2.283 1.495-2.283 2.908 0 2.97 6.85 2.975 6.85-.623v-.623c0-1.755-1.66-1.448-1.66-2.492V87.24z"/>
    <path class="bartucada__letter-decoration" d="M66.435 94.455c1.044 0 1.896-.852 1.896-1.896 0-1.045-.85-1.897-1.895-1.897-1.044 0-1.896.852-1.896 1.896 0 1.043.85 1.895 1.895 1.895z"/>
    <path d="M89.51 61.903c0 1.255 1.245 1.797 1.245 2.492v1.038h-3.53c-.887 0-1.66.64-1.66 1.454 0 1.004 2.882 1.454 3.945 1.454 0 4.675-2.907 8.776-2.907 14.123v.208c0 3.01.687 6.023 3.53 6.023h1.037c1.538 0 4.36-1.948 4.36-3.738v-.208c0-.386-.514-1.246-1.038-1.246h-.622c-.903 0-1.237 2.285-2.49 2.285h-1.04c-1.144 0-1.245-2.286-1.245-3.53v-.208c0-2.153 2.976-13.5 3.945-13.5 1.505 0 2.37.624 3.945.624 1.484 0 2.076-.59 2.076-2.076 0-1.06-2.527-1.246-3.736-1.246h-1.868c.04-1.828 2.076-1.438 2.076-3.323v-1.038c0-1.454-1.197-2.284-2.7-2.284h-.414c-1.217 0-2.908 1.634-2.908 2.7z"/>
    <path class="bartucada__letter-decoration" d="M92.717 63.792c1.044 0 1.896-.852 1.896-1.896S93.76 60 92.717 60s-1.896.852-1.896 1.896.853 1.896 1.897 1.896z"/>
    <path d="M101.137 69.17v.21c0 2.372 1.453 1.937 1.453 2.907l.06.423-.89 8.092v.83c0 1.088 1.123 3.445 1.71 4.106.708.8 2.862 1.71 4.31 1.71 3.84 0 4.772-4.52 6.437-6.438-.117 1.403-1.038 4.878-1.038 5.607v.208c0 .502.95 1.454 1.452 1.454h3.114c.638 0 1.246-.193 1.246-.832v-.208c0-.81-.677-1.87-1.453-1.87-.783 0-.394.138-1.203.212l.58-8.726V73.95c0-.635-.39-1.662-1.038-1.662h-.21c-2.628 0-4.288 12.668-8.096 12.668h-.623c-1.256 0-2.49-2.23-2.49-3.74l-.036-2.703.66-6.434c1.14-.605 2.283-1.45 2.283-3.116 0-1.22-1.084-2.492-2.284-2.492h-1.038c-1.235 0-2.908 1.346-2.908 2.7z"/>
    <path class="bartucada__letter-decoration" d="M104.168 71.11c1.044 0 1.896-.852 1.896-1.896s-.852-1.896-1.896-1.896-1.896.852-1.896 1.896.85 1.896 1.896 1.896z"/>
    <path d="M119.822 81.217v.416c0 3.45 4.264 7.06 7.266 7.06h1.038c2.03 0 5.398-2.52 5.398-3.737v-.208c0-.89-.64-1.66-1.453-1.66-1.488 0-1.692 2.907-3.736 2.907h-.83c-2.228 0-4.983-2.23-4.983-4.57v-1.453c0-4.857 3.55-11.63 8.513-11.63h2.907c.685 0 1.594.622 2.49.83 0 5.813 7.06 3.14 7.06 0v-1.245c0-.616-.602-1.87-1.038-1.87-1.772 0-2.838.624-4.36.624-1.793 0-3.39-1.245-5.813-1.245h-.83c-6.625-.002-11.628 8.433-11.628 15.782z"/>
    <path class="bartucada__letter-decoration" d="M139.852 71.252c1.044 0 1.896-.852 1.896-1.896s-.852-1.896-1.896-1.896-1.896.852-1.896 1.896c0 1.045.852 1.896 1.896 1.896z"/>
    <path d="M142.037 88.07c1.14-1.7 6.108-4.154 8.928-4.154.668 0 .83.818.83 1.454 0 1.16-5.803 3.323-8.097 3.323h-.415c-.77 0-.938-.203-1.246-.623zm-1.246-11.214c.746-1.112 2.73-2.077 4.57-2.077h1.66c1.54 0 3.906 4.683 3.945 6.437-3.97.925-11.42 2.545-11.42 7.06v.416c0 1.623 1.653 2.7 3.323 2.7h.83c4.07 0 6.927-2.452 8.72-2.492-.084 1.02-.414.762-.414 1.662 0 .81.792 1.87 1.453 1.87h.623c1.772 0 .587-4.53.41-6.017-.26-2.16-.608-4.33-1.077-6.4-.747-3.297-2.887-8.143-6.808-8.143h-1.66c-1.414 0-4.69 2.312-5.644 3.078-1.476 1.185-4.737 1.476-4.737 3.776v.623c0 1.4 1.82 2.7 3.322 2.7h.415c1.314 0 3.078-1.176 2.907-2.286l-.416-2.908z"/>
    <path class="bartucada__letter-decoration" d="M137.89 80.927c1.045 0 1.897-.852 1.897-1.896 0-1.043-.852-1.895-1.896-1.895-1.043 0-1.895.852-1.895 1.896 0 1.045.852 1.897 1.896 1.897z"/>
    <path d="M159.06 84.54c0-3.19 2.83-5.815 6.022-5.815h1.87c.038 1.737.614 3.224.617 5.82 0 2.475.792 2.902-3.11 2.902h-1.246c-1.65 0-4.153-1.292-4.153-2.907zm4.57-24.3v.417c0 1.54 1.277 1.715 1.703 2.864.297.8.284 3.002.37 4.2.183 2.506.833 6.143.833 8.512h-2.076c-4.064 0-7.89 3.814-7.89 8.1 0 2.153 2.213 4.626 3.875 5.26 3.897 1.492 4.682.14 7.752.14 2.313 0 1.876.104 3.946-.83 1.006-.454 2.698-1.112 2.698-2.493v-.21c0-.637-.19-1.245-.83-1.245h-.415c-.914 0-1.71.808-2.78 1.048l-2.618-21.816v-.83c0-.774 1.453-1.193 1.453-2.7V59.2c0-.697-1.358-1.87-2.284-1.87h-.415c-1.622.002-3.32 1.38-3.32 2.91z"/>
    <path class="bartucada__letter-decoration" d="M166.885 62.284c1.045 0 1.896-.852 1.896-1.896s-.85-1.896-1.895-1.896c-1.044 0-1.896.852-1.896 1.896s.85 1.896 1.895 1.896z"/>
    <path d="M180.653 85.37c1.166-1.742 6.188-4.154 9.135-4.154.458 0 .623 1.11.623 1.662 0 .33-3.244 1.95-3.802 2.218-1.236.596-3.15.897-4.916.897-.557 0-.8-.295-1.04-.623zm-7.474-9.345v.623c0 1.182 1.808 2.7 2.906 2.7h1.246c1.052 0 2.68-1.36 2.568-2.505l-.492-2.48c.724-1.368 3.523-2.635 5.61-2.32l1.656.244c.824 1.558 2.86 4.117 2.907 6.23-3.778.88-11.418 2.636-11.418 6.853v.208c0 1.828 1.32 3.115 3.114 3.115h2.49c1.81 0 5.914-2.38 7.267-2.492-.085 1.022-.415.762-.415 1.663 0 1.026.842 1.87 1.87 1.87h.206c2.2 0-.435-10.575-.626-12.25-.388-3.403-3.13-8.312-6.848-8.312h-1.245c-1.787 0-4.687 2.072-5.815 2.907-1.52 1.127-4.98 1.797-4.98 3.948z"/>
    <path class="bartucada__letter-decoration" d="M176.598 78.08c1.044 0 1.896-.85 1.896-1.895s-.852-1.896-1.896-1.896-1.896.85-1.896 1.895.85 1.896 1.896 1.896z"/>
  </g>
  <g class="bartucada__sun">
    <path d="M107.06 26.347c-.51-.765-1.58-2.296-2.243-2.76-1.046-.73-1.85-1.374-2.81-2.07-.594-.432-.66-.692-1.415-1.15-.556-.335-.996-.552-1.593-.846-1-.49-2.454-.965-3.566-1.316-1.88-.593-6.03-1.447-8.44-1.447h-2.197c-4.893 0-11.215 5.693-13.58 8.51-1.808 2.153-3.362 3.68-4.77 6.335-1 1.888-2.644 5.594-2.644 8.337v1.95c0 4.464 2.855 9.157 5.42 11.055 1.447 1.072 3.23 2.6 5.06 3.24 1.69.588 4.233 1.69 6.486 1.69.177.266.35.732.73.732h.49c.43 0 .605-.134.683-.435.097-.093.172-.204.23-.33 1.682-.37 3.525-.475 5.238-.894 1.732-.423 3.065-1.066 4.574-1.652 2.274-.883 5.942-3.288 7.85-4.72 3.29-2.474 3.765-3.063 6.058-6.51 1.467-2.207 2.586-6.268 2.586-9.984 0-3.166-.855-5.805-2.147-7.735z"/>
    <path d="M65.427 54.842l-.83 12.876c.167.116.512.415.623.415 1.156 0 12.042-7.173 12.042-8.1 0-.64-.448-.99-.83-1.245-4.967.414-8.72-4.984-9.758-4.984-.576 0-1.005.676-1.247 1.038z"/>
    <path class="bartucada__sunbeams" d="M66.853 65.016c1.355-.108 6.14-3.4 6.156-4.613l-5.447-3.27-.71 7.883z"/>
    <path d="M59.82 39.06h-1.037c-1.407.942-3.076 3.653-4.21 5.135-.594.778-1.535 1.99-2.222 2.553-.8.656-2.178 1.175-2.294 2.53l11.01 1.41h2.7c0-2.624-1.34-3.654-2.053-5.423-.413-1.024-.657-1.638-.65-3.09.005-.773.295-3.532-.412-3.532-.335 0-.66.25-.83.416z"/>
    <path class="bartucada__sunbeams" d="M53.67 47.885c1.897.104 2.723.726 4.283.726l3.003-.032-2.27-6.65-.26-.08-4.757 6.037z"/>
    <path d="M52.762 22.86c-.065.244-.208.566-.208.623 0 .79 8.01 11.007 9.343 11.007.352 0 .776-.277 1.09-.424l-.26-1.653c-.147-.924 1.358-4.162 1.73-4.915.816-1.646 2.33-2.93 2.63-4.223-.964-1.44-4.42-.623-6.643-.623-2.645 0-5.4.208-7.682.208z"/>
    <path class="bartucada__sunbeams" d="M61.067 30.752l2.907-6.023h-8.097c.13 1.58 3.95 5.19 5.19 6.022z"/>
    <path d="M67.918 8.115l1.347 10.578-.19.125 2.58 1.966c1.46-.98 2.952-2.736 4.774-3.946.933-.62 1.636-1.07 2.76-1.6.975-.458 3.052-.324 3.052-1.515 0-1.5-4.47-2.875-5.9-3.445-.984-.394-6.36-2.578-6.97-2.578-.546 0-.538.34-1.454.415z"/>
    <path class="bartucada__sunbeams" d="M71.655 18.29c1.342-.357 4.596-4.346 7.266-4.568v-.415L70.5 9.96l-.092.232v.623c0 2.458 1.056 5.173 1.247 7.476z"/>
    <g class="bartucada__sun-face">
        <path class="bartucada__right-face" d="M89.41 19.543L87 40.393c-.046.4-.314.74-.692.88l-1.03.382 1.794 1.122c.303.19.49.517.503.873.012.357-.155.696-.445.904l-.32.23v.09c-.024-.015-.05-.023-.075-.036l-1.786 1.286.395 1.055c.076.2.09.42.038.63l-1.904 7.81 1.517.054c4.132.463 12.127-4.58 14.652-7.098 3.605-2.06 7.58-7.317 7.507-13.05V32.62c0-7.693-9.792-12.94-17.748-13.077zm2.384 17.23h-.415c-.503 0-1.454-.95-1.454-1.453v-1.038c0-1.527 1.358-3.115 2.7-3.115 1.104 0 2.032.56 2.49 1.246-.144 1.73-1.972 4.36-3.322 4.36z"/>
        <path class="bartucada__left-face" d="M82.49 40.404l2.458-.91 2.34-20.252c-.364-.027-.68-.044-.904-.044h-1.587c-2.153 0-5.47 1.746-6.86 2.66-.995.655-1.493 1.532-2.54 2.22-.606.4-2.13 1.637-2.717 2.165-1.837 1.656-2.71 3.387-4.14 5.378-.703.978-1.242 1.858-1.687 3.074-.16.434-.732 3.575-.732 4.15v.73c0 1.36.185.588-.23 1.843-.164.49-.257 1.528-.257 2.184 0 1.866 1.078 4.072 2.045 5.034.81.806 2.84 2.864 3.667 3.41 1.315.87 2.882 2.103 4.614 2.465 1.46.304 3.615.992 5.306 1.14l1.957-8.027-.567-1.513c-.17-.452-.016-.963.377-1.245l1.55-1.117-2.29-1.432c-.345-.216-.54-.61-.497-1.017s.31-.754.694-.896zm-3.505-4.24h-.328c-.397 0-1.148-.75-1.148-1.148v-.82c0-1.205 1.072-2.46 2.13-2.46.873 0 1.605.443 1.967.984-.113 1.367-1.556 3.444-2.622 3.444z"/>
    </g>
  </g>
</svg>
