<!--
  SVG Music Logos
  Bittencourt Project - Brainworms I v1.0.0
  https://github.com/tiagoporto/svg-music-logos
  Copyright (c) 2016-2018 Tiago Porto (http://tiagoporto.com)
-->
<svg xmlns="http://www.w3.org/2000/svg" viewBox="0 0 200 54">
  <path d="M54.233 15.664c-2.507.117-5.758-.525-7.055-1.516-.492-.376-.816-.466-.816 0 0 .568 1.108 1.94 1.108 1.94V31.23c-1.06.585-2.29 1.825-2.68 2.413-.577.87-.177 1.668.58.968.76-.7 4.403-2.45 6.11-2.69.924-.13.873-.4.83-1.216-.032-.582 0-12.594 0-12.594 1.34-.7 3.158-2.507 1.923-2.45zm-4.198 14.168c-.273.058-.682.247-.904.347V16.756s.38.35.905.466v12.61z"/>
  <path d="M130.923 10.475c-4.286 0-7.76 4.696-7.76 10.86 0 6.166 3.632 11.006 7.918 11.006 4.287 0 7.858-4.84 7.858-11.004 0-6.343-3.73-10.86-8.015-10.86zm-2.626 18.674c-.57-.508-1.08-1.293-1.512-2.026V15.397c.432-.733.942-1.367 1.512-1.875V29.15zm3.064 1.36c-.394 0-.778-.06-1.153-.16V12.32c.375-.1.76-.16 1.154-.16 3.496 0 6.33 4.9 6.33 9.173-.002 5.067-2.835 9.174-6.33 9.174z"/>
  <path d="M108.853 30.1V5.097c0-1.34.048-1.793-.36-1.793-.707 0-.197 2.114-4.643 6.734-.572.595-.622.816-.622 1.68v12.33c-1.544-1.73-3.11-3.53-4.742-5.41-.705-.813-1.404-1.62-2.1-2.404V9.45s-.068-1.115-.96-1.115h-5.47c-.298 0-.504.26-.19.618.34.385.665.92.79 1.52-2.33-1.61-5.114-2.025-7.496-.783 2.873 1.157 5.617 3.235 7.614 5.596v20.728c0 .796.457.928.705.598 1.53-2.032 3.49-4.168 4.44-5.177.353-.375.567-.84.567-1.505v-7.07c.557.72 1.13 1.425 1.73 2.106 11.72 13.337 24.158 19.712 28.992 19.712-7.44-4.487-12.997-9.208-18.257-14.577zm-15.498.984c0 .648-1.205 1.532-1.205.972v-21.58c0-.608 1.205-.612 1.205 0v20.608zm13.546-3.02l-.903-.968c-.293-.437-.315-.74-.315-1.27V10.824c0-.245.787-.722 1.405-1.653.107-.16.3.027.3.595v18.01c0 .488-.246.562-.486.288z"/>
  <path d="M191.096 47.092c-2.786-1.496-4.53-4.403-4.094-6.415-2.1-.04-3.906-2.37-3.906-2.876s-1.01-1.126 1.36-1.126 5.83 4.587 7.47 7.074c-.38-7.93-7.335-12.424-10.6-12.346 1.438.466 1.46 1.52 1.46 2.278 0 .525-.124 1.375-.766 1.375-1.516 0-1.606-.908-2.603-1.317V16.692c1.27-.798 3.52-2.15 3.797-3.742-1.49.993-2.782 1.154-3.797.874V8.756C183.84 7.498 191.9 2.504 191.9 2.092c0-.796-1.222-.054-2.142.222-4.846 1.452-9.264 1.7-15.008 1.7-2.52 0-5.896-1.88-7.232-2.524-.312-.15-.93-.21-1.137.422-.987 3.04-2.478 3.954-2.416 4.938.062.99 5.26 2.393 9.323 2.712v25.25c2.396.51 7.205 5.01 8.333 6.68 1.127 1.672.876 7.263-1.01 11.118 2.215-.894 4.12-5.403 4.005-6.996 2.06 2.332 7.462 3.836 9.134 3.836 3.225 0 3.82-.22 5.252-1.583-3.86.34-6.275.1-7.906-.775zM176.35 32.138c0 1.268-1.3.83-1.3.305V9.653c.157.003.313.005.465.005.274 0 .553-.015.835-.037V32.14z"/>
  <path d="M39.877 13.213c.75-1.84 1.276-3.71 1.004-4.448-2.798-1.788-3.906-6.9-4.415-7.196-.51-.296-6.61 2.667-10.17 2.667-10.252 0-14.247-3.377-15.263-2.43-.54.504 8.505 6.95 15.173 6.57l-2 1.865v6.306c-1.538-.163-3.633-.21-4.65-.21-2.177 0-4.6 1.884-4.6 3.196 0 1.428.546 2.21 1.44 1.922 1.076-.347-.14-4.13 3.914-4.26 1.11-.037 2.468.233 3.897.848v9.485c-1.482-.79-3.764-1.894-4.184-2.226-.745-.59-1.04-1.338-1.04-1.793 0-.455.695-1.063 1.608-1.063.978 0 1.488.65 1.323 1.477-.07.343-.825.367-.972.548-.247.306-.105 1.005.555 1.005s1.11-.513 1.11-1.854c0-.96-1.276-2.42-2.442-2.42-1.6 0-2.72 1.943-2.06 3.537-.816-.622-3.78-2.08-6.812-2.08C4.82 22.66 1 27.1 1 28.88c0 1.73.604 2.012 1.322 2.012 1.166 0 1.83-7.304 9.41-7.304 3.038 0 9.226 2.885 12.474 5.484v4.445C20.802 36.377 13.9 46.84 10.386 46.84c-2.975 0-5.175-2.635-5.175-5.042 0-2.505 2.312-4.313 3.653-4.313 1.77 0 3.176.898 3.176 2.414S9.3 41.122 9.3 42.813c0 1.07.653 1.29 1.47 1.29 1.486 0 3.67-1.912 3.67-4.244 0-.92-1.983-3.42-5.044-3.42-2.757 0-5.593 2.455-5.593 5.307 0 3.058 2.87 6.688 6.48 6.688 7.31 0 11.403-15.184 19.056-15.184 2.098 0 3.848.808 5.768.808 2.186 0 4.962-1.71 7.423-4.11 2.315-2.255 3.014-4.63 3.014-7.503 0-3.06-3.415-7.257-5.667-9.232zM37.87 7.716c-1.006 4.47-3.778 6.65-7.485 7.97V9.424c3.09.485 5.41-.605 7.484-1.707zM27.295 9.31v7.372c-.49.023-.99.02-1.496-.005v-6.51c0-.79 1.496-1.862 1.496-.858zm-1.42 19.24c-.02-.02-.052-.042-.077-.062v-9.645c.503.195 1.003.403 1.495.622v10.123c-.62-.383-1.098-.76-1.418-1.04zm6.53 2.72c-.727-.06-1.398-.187-2.02-.353l1.08-1.726-1.08-.99v-7.187c.924.52 1.466 1.118 2.012 1.532 1.008-.593 2.845-2.547 4.097-3.948 1.392 1.41 3.61 4.494 3.61 6.183-.002 2.41-4.355 6.762-7.698 6.49z"/>
  <path d="M125.51 10.164c-.988-.134-2.003 1.885-2.663 1.885-.66 0-2.747-1.46-4.397-1.46-4.224 0-7.648 4.697-7.648 10.862s3.58 11.005 7.804 11.005c1.88 0 3.277-.605 4.628-2.212.935-1.113-.364-2.183-1.344-1.546-1.053.685-1.38 1.796-3.008 1.796-.39 0-.936-.165-1.384-.457V12.79c.37-.1.995-.16 1.384-.16 1.43 0 1.503.683 2.547 1.674-.04.855-1.244 1.49-1.244 2.155 0 .904 1.17 1.632 1.624 1.632.4 0 .673-.633.79-1.1.258-1.015.736-1.483.958-2.54.19-.904.98-1.975 1.742-2.677.837-.774 1.028-1.5.21-1.61zm-9.633 19.102c-.562-.507-1.316-1.142-1.742-1.875V15.515c.426-.733 1.18-1.367 1.742-1.875v15.626z"/>
  <path d="M87.72 14.945c-1.79-2.488-5.054-5.13-12.167-5.13-1.256 0-2.928.012-4.353-.085V8.648c0-.525 2.823-1.757 1.127-2.118-1.732-.37-3.75-.602-4.917-.923-1.166-.32-2.033-1.033-2.274-.748-.428.504 1.108.452 1.108 3.75v1.187c-1.204 0-4.356.09-5.228.09V8.26c0-.797 2.47-1.4 1.205-2.335-.97-.72-3.167-.386-4.663-.87-1.15-.374-2.392-1.463-2.663-1.206-.758.718 1.166 1.223 1.166 2.953v2.532c-2.195 1.555-5.698 3.578-6.278 2.784-.447-.614.832-1.113.832-1.58 0-1.53-4.42-1.323-7.04-3.16-1.17-.822-1.736-2.404-2.266-2.404-.972 0 .408 5.15 4.936 7.638 2.65 1.455 6.11 1.876 9.815 1.982V28.93c0 .64-.788 1.195-1.546 1.69-.758.497.204 1.05 1.02 1.167.816.117 6.647 3.382 6.822 3.095.175-.287-1.34-2.658-1.34-4.7V14.613c.896-.01 1.792-.017 2.68-.017.703 0 1.574-.003 2.547-.007v14.34c0 .64-.787 1.195-1.545 1.69-.758.497.204 1.05 1.02 1.167.816.117 6.647 3.382 6.822 3.095.175-.287-1.34-1.425-1.34-3.468v-16.84c3.7-.004 7.486.018 9.21.14 3.033.213 6.435 2.313 7.153 2.487.642.155 1.944.232.156-2.255zM58.682 30.18c0 .708-1.088.776-1.088 0V16.64c0-.672 1.088-.13 1.088.83v12.71zm10.184 0c0 .708-1.088.776-1.088 0V16.756c0-.67 1.087-.248 1.087.714v12.71z"/>
  <path d="M154.073 20.484c0 7.144-2.178 10.203-5.87 10.203-.687 0-1.898-.575-2.338-1.26V13.18c-2.925 0-4.382-.507-5.544-1.48-1.204-1.012-4.547-2.83-4.887-1.91-.306.83 3.74 2.25 4.363 3.95.65 1.78.204 3.587.262 7.596.084 5.79 3.61 11.005 7.87 11.005 5.482 0 7.717-5.256 7.717-11.047 0-2.485-.33-2.953-.78-2.953-.6 0-.792 1.054-.792 2.144zm-9.656 7.4c-.467-.56-.895-.916-1.172-1.564V15.333c.34.14.606.348 1.172.403v12.147z"/>
  <path d="M86.2 26.896c-.383-1.125-.43-1.506-1.18-1.233-.294.107-.408.645-.247 1.12.142.417.736 1.346.736 1.843 0 .767-.53 1.934-3.736 1.818-.526-.02-1.01-.055-1.458-.1.002-.708.01-3.884.012-6.96.454-.555.836-1.173 1.743-1.173.668 0 .99 2.52 2.102 2.3.28-.055.42-.298.312-.926-.105-.61-1.425-4.1-1.934-4.1-.836 0-.904 1.544-1.564 1.515-.276-.013-.487-.1-.66-.183-.002-.43-.005-1.293-.005-1.673 0-1.27.057-1.836-.36-2.074-.92-.527-4.116-2.227-4.116-1.814v14.467c-.853.333-1.58.448-1.623 1.392-.04.895.692.94 1.034.94H87.02c1.338 0 1.902-.03 1.422-.97-.236-.47-1.346-1.565-2.24-4.19zm-7.594-7.763v10.965c-.448-.085-.837-.175-1.166-.26V18.502c0-.485 1.166.128 1.166.633z"/>
  <path d="M167.652 23.846c-.54-.38-.74-.66-.078-1.244.66-.583 2.98-3.432 2.98-5.803 0-1.736-2.095-4.972-3.623-5.76.307-.302.433-.523.24-.565-.457-.102-2.162-1.205-2.953-2.26-.383-.51-1.03-.837-1.57-.13-2.893 3.79-6.21 4.566-7.978 4.877-1.384.243-2.217.155-2.41.505-.195.35 1.282 1.05 3.38 1.05.42 0 1.27-.03 1.902-.08l.134 14.864c-1.284-.04-1.852.31-1.852 1.003 0 1.088 1.24.926 3.037 1.67 2.843 1.18 3.836 2.252 4.325 2.063.337-.13-.364-1.073-1.033-1.696v-6.064c.596-.224 1.23-.218 1.717.025 1.243.623 4.478 2.56 6.512 5.868.51.83 1.195 2.405 1.623 2.444.428.04.74-.428.74-2.02 0-1.594-1.872-6.484-5.093-8.746zm-7.155 6.88c-.687-.62-.912-.992-1.443-1.268l-.134-15.156c.622-.07.972-.155 1.577-.25v16.673zm1.655-8.143v-8.838c.323-.073.613-.147.846-.223.35-.114.784-.32 1.236-.572 1.12.612 2.68 2.268 2.68 4.443 0 4.222-3.235 5.19-4.762 5.19z"/>
  <path d="M130.537 40.71c0 .376.01 1.47.016 1.582.016.177.096.257.265.257h.514c.056 0 .064.023.064.055v.193c0 .04-.008.064-.072.064-.113 0-.362-.024-1.117-.024-.707 0-1.02.024-1.11.024-.055 0-.063-.024-.063-.056v-.2c0-.04.008-.057.048-.057h.345c.273 0 .33-.04.354-.258.01-.08.033-1.334.033-2.266v-.924c0-.53-.008-1.406-.016-1.486-.016-.16-.096-.177-.313-.177h-.458c-.04 0-.048-.017-.048-.065v-.193c0-.04.008-.056.048-.056.088 0 .378.024 1.14.024.146 0 1.125-.063 1.39-.063.908 0 1.764.128 2.222.44.377.258.61.708.61 1.166 0 1.012-1.7 1.64-2.976 1.64-.297 0-.62-.01-.876-.04v.416zm0-.708c.16.048.513.07.827.07.865 0 1.885-.675 1.885-1.375 0-1.052-1.138-1.313-1.612-1.313-.137 0-.94 0-1.1.056v2.562z"/>
  <path d="M135.842 39.264c0-.595 0-1.11-.008-1.342-.008-.265-.105-.402-.305-.402h-.322c-.04 0-.048-.024-.048-.056v-.2c0-.04.008-.057.048-.057.072 0 .32.024.996.024.45 0 1.197-.023 1.342-.023.667 0 1.197.2 1.502.49.266.257.418.62.418.916 0 1.004-.458 1.382-1.486 1.607v.016c.193.072.305.217.37.305.096.106.66.93.73 1.03.912 1.272 2.384 2.857 3.827 2.615-.255-.228-.188-.658.12-.658.237 0 .484.134.484.457 0 .403-.613.577-1.26.577-2.125 0-3.815-2.645-4.036-3-.032-.055-.418-.633-.514-.746-.21-.25-.402-.466-.867-.466-.073 0-.153 0-.266.024v.45c0 .474.008 1.374.016 1.494.016.17.08.313.2.313h.507c.056 0 .064.023.064.063v.177c0 .056-.008.072-.088.072-.088 0-.29-.024-1.052-.024-.73 0-.916.024-1.004.024-.064 0-.064-.024-.064-.064v-.185c0-.04 0-.064.04-.064h.33c.177 0 .313-.057.313-.274.015-.795.015-1.55.015-2.314v-.778zm.723.796c.12.024.21.032.362.032 1.462 0 1.743-1.004 1.743-1.342 0-.37-.17-.723-.402-.916-.313-.25-.667-.37-1.334-.37-.096 0-.2.016-.273.064-.055.04-.096.13-.096.257v2.275z"/>
  <path d="M149.7 39.61c0-.13 0-1.552-.023-1.897-.008-.177-.08-.273-.394-.273h-.354c-.033 0-.057-.008-.057-.04v-.217c0-.04.008-.056.056-.056.088 0 .5.024 1.265.024.683 0 1.373-.023 1.494-.023.047 0 .063.016.063.048v.2c0 .05-.016.065-.064.065h-.403c-.217 0-.29.064-.298.233-.01.13-.025.987-.025 1.96 0 0 .024.688.024.873 0 .735-.214 1.352-.773 1.906-.468.464-1.008.85-1.62.85-1.32 0-1.744-.595-1.744-1.08 0-.24.228-.452.728-.452.52 0 .965.318 1.247 1.227.177-.056.873-.484.873-1.07V39.61z"/>
  <path d="M154.717 39.473c.064 0 2.074-.032 2.17-.048.234-.04.298-.104.37-.354.025-.08.057-.24.065-.392 0-.04.024-.056.056-.056l.2.008c.04 0 .057.032.05.064-.025.137-.025.795-.025.916 0 .28.032.667.048.836 0 .04-.015.056-.047.064l-.177.024c-.04.008-.056-.016-.064-.072-.016-.105-.064-.29-.088-.378-.048-.17-.137-.29-.345-.313-.378-.04-2.083-.04-2.212-.04v.5c0 .433.016 1.5.016 1.66.008.42.21.58.46.627.16.032.392.056.593.056.137 0 .926-.008 1.095-.024.137-.017.49-.106.7-.282.095-.08.545-.66.658-.843.024-.04.048-.072.096-.048l.13.072c.04.023.04.047.015.112l-.425 1.18c-.024.073-.08.122-.177.122-.04 0-.217-.008-.7-.016-.48 0-1.648-.008-2.9-.008-.298 0-.523.008-.683.008-.17.008-.273.016-.346.016-.05 0-.073-.016-.073-.056v-.217c0-.03.024-.04.08-.04h.32c.37 0 .403-.055.403-.353v-2.69c0-.668-.016-1.672-.024-1.752-.032-.257-.113-.313-.41-.313h-.288c-.04 0-.065-.008-.065-.056v-.217c0-.025.016-.04.056-.04.176 0 .457.023.987.023h.353c.795 0 2.417-.008 3.213-.008.128 0 .28-.016.32-.016.042 0 .057.015.065.04l.41 1.292c.008.032.008.056-.024.073l-.12.064c-.024.015-.056-.01-.064-.025-.016-.032-.61-.795-.804-.916-.17-.114-.393-.21-.61-.218l-2.256-.032v2.063z"/>
  <path d="M159.806 42.22c-.58-.548-.86-1.48-.86-2.25 0-.748.31-1.68.82-2.13.606-.534 1.515-.856 2.39-.856.732 0 1.087.125 1.687.258s.754.375.754.702c0 .44-.313.637-.7.637-.244 0-.347-.393-.25-.52.217-.278.58-.114.58-.188 0-.13-.338-.606-2.068-.606-1.44 0-2.42 1.32-2.41 2.493 0 .465.145 1.373.77 2.063.547.61 1.005.675 1.543.675.907 0 1.614-.498 1.984-1.02.024-.04.09-.07.15-.033.058.037.05.137.035.162-.482.7-1.262 1.35-2.394 1.35-.947 0-1.55-.296-2.032-.738z"/>
  <path d="M145.488 37.664c-.635-.53-1.293-.635-1.8-.635-.674 0-1.47.16-2.176 1.02-.62.746-.748 1.51-.748 2 0 1.172.61 2.04 1.18 2.385.636.393 1.335.522 1.728.522 1.11 0 1.824-.482 2.314-1.133.418-.562.602-1.173.602-1.76 0-1.106-.514-1.894-1.1-2.4zm-1.75 4.99c-.684 0-2.154-.748-2.154-2.86 0-.66.265-1.47.803-1.985.383-.363.742-.456.985-.476.175.268-.43.732-.426.957.005.493.696.65.645 1.172-.012.137-.01.346-.34.53.16-.05.693-.16.77-.505.072-.33-.286-.755-.233-1.195.03-.26.053-.67.134-.92.857.176 1.88 1.167 1.88 2.76 0 .714-.296 2.52-2.063 2.52z"/>
  <path d="M171.304 37.383c-.635-.046-1.863-.205-3.193-.39.41-.28 1.28-1.05 1.502-2.625-.532.52-1.718 1.863-2.256 2.464-.107-2.197-.247-4.304-.403-4.976.012.544-.163 2.685-.356 4.924l-.674-.097c-.212-.79-.774-2.685-1.334-2.946-.346-.16-.995.59-1.022.806-.022.173 1.193 1.325 1.75 2.053-1.338-.194-2.39-.348-2.515-.348-.322 0-.708-.056-.69.242.035.557.205.862 1.304 1.09.462.094 1.717.097 3.106.06-.203 2.338-.402 4.576-.402 5.014 0 .913.055 1.397.538 1.45.483.055.913-.43.913-1.24 0-.408-.066-2.788-.177-5.252 1.66-.062 3.316-.166 3.91-.23z"/>
</svg>
