<!--
  SVG Music Logos
  Chickenfoot- III Limited v0.1.0
  https://github.com/tiagoporto/svg-music-logos
  Copyright (c) 2016-2018 Tiago Porto (http://tiagoporto.com)
-->
<svg xmlns="http://www.w3.org/2000/svg" viewBox="0 10 200 181">
  <g>
    <path class="chickenfoot__blue" d="M196.783 29.583s.03-10.047.08-12.427c-.035-1.31.193-2.76-.568-3.92-.834-1.335-2.99-2.192-4.8-2.192-1.32 0-183.774.074-185.868 0-2.344-.286-4.45 2.076-4.306 4.335.042 2.885.047 14.203.047 14.203h23.318V145.17H1.418s-.013 9.144-.093 11.91c-.17 2.208 1.69 4.416 4.007 4.352 2.032.02 186.044 0 187.905 0 2.027 0 3.564-1.842 3.564-4.06V145.17h-23.337V29.582h23.32zM50.683 145.17V29.582h96.756V145.17H50.68z"/>
    <path d="M196.81 27.992s-22.153-.21-28.308 2.992c2.82 0 4.717 1.764 5.02 2.01 2.102 1.595 3.34 4.214 3.415 6.833v92.093c0 .544-.24.644-.544.228-.177-.243-64.52-64.607-64.52-64.607V98.1l45.847 46.095h39.09v-116.2z"/>
    <path d="M21.236 132.372c-.1-1.78-.064-63.677-.064-92.838.05-2.272 2.454-8.566 8.25-8.566L1.313 23.083l.05 122.646 39.428-1.943L86.252 98.6V67.54s-64.044 64.01-65.016 64.832z"/>
    <path class="chickenfoot__red" d="M13.743 11.137c.525-.11 1.067-.107 1.602-.12 53.02-.005 106.04 0 159.062 0 3.277.067 6.577-.14 9.846.117 1.424.442 2.922.685 4.253 1.395 4.492 2.215 7.798 6.742 8.277 11.762.1 1.228.118 2.47.038 3.7-.795 1.434-2.433 2.97-3.86 2.97h-19.515v1.97c-.765-.59-2.445-2.084-5.805-1.97-6.76.033-55.357 0-55.357 0 .068 9.884 0 110.35 0 110.35h42.57l-7.414-7.413v-30.85l26.022 26.143v12.084h19.5c2.382 0 3.836 1.607 3.836 2.915l.003 4.546c0 6.178-7.528 12.624-13.268 12.695H13.752c-6.4 0-12.437-5.31-12.437-13.683v-3.008c0-1.918 2.467-3.472 4.303-3.472l18.218.007c.68 0 .868-.22.868-.742l.002-11.578 26.012-25.923-.008 31.017-7.39 7.262h42.13V30.962H29.79s-3.754.848-5.145 1.758v-1.757H6.083c-3.27 0-4.77-1.075-4.77-2.903 0-.87.033-3.38 0-5.07.87-4.67 4.552-8.756 8.883-10.664 1.15-.49 2.366-.786 3.547-1.19z"/>
  </g>
  <g class="chickenfoot__lettering">
    <polygon points="33.474,180.892 24.071,180.93 24.071,176.175 20.396,176.175 20.396,189.357 24.071,189.357 24.071,184.022 33.474,184.03 33.474,189.357 37.162,189.357 37.162,176.175 33.474,176.175"/>
    <path d="M40.73 176.175v13.182h3.696s.03-13.132 0-13.182H40.73z"/>
    <path d="M79.077 180.915c-1.263-.618-6.862-4.792-6.862-4.792l-5.3-.15s7.94 5.526 8.478 6.3l-9.34 7.208 5.426-.216s6.52-4.895 7.597-5.17v5.27l3.472-.063v-13.114l-3.473.004v4.725z"/>
    <polygon points="86.655,189.403 100.786,189.403 100.786,186.686 90.253,186.686 90.253,183.864 96.221,183.864 96.221,181.082 90.253,181.082 90.253,178.775 100.786,178.763 100.786,176.123 86.655,176.123"/>
    <polygon points="117.596,184.311 107.422,176.288 103.956,176.288 103.956,189.479 107.569,189.479 107.569,181.079 118.33,189.479 120.767,189.479 120.767,176.288 117.596,176.288"/>
    <polygon points="124.529,189.391 128.204,189.391 128.204,184.731 133.752,184.731 133.752,181.828 128.204,181.828 128.204,178.866 138.613,178.866 138.613,176.196 124.529,176.196"/>
    <polygon points="181.501,176.249 181.501,179.064 187.751,179.064 187.751,189.562 191.224,189.562 191.224,179.064 197.357,179.064 197.357,176.249"/>
    <path d="M175.508 176.243h-10.306c-2.597 0-3.373 1.158-3.373 2.75v7.54c0 1.926 1.056 2.815 2.784 2.815h11.5c1.332 0 2.705-.56 2.705-2.347v-8.006c0-1.997-1.067-2.75-3.312-2.75zm.214 9.638c0 .762-.263.99-.995.99h-8.63c-.73 0-.994-.23-.994-.99v-6.12c0-.76.263-.99.995-.99h8.63c.73 0 .994.23.994.99v6.12z"/>
    <path d="M155.087 176.243H144.78c-2.596 0-3.372 1.158-3.372 2.75v7.54c0 1.926 1.057 2.815 2.785 2.815h11.5c1.332 0 2.705-.56 2.705-2.347v-8.006c0-1.997-1.066-2.75-3.31-2.75zm.214 9.638c0 .762-.262.99-.994.99h-8.63c-.73 0-.994-.23-.994-.99v-6.12c0-.76.263-.99.995-.99h8.63c.73 0 .994.23.994.99v6.12z"/>
    <path d="M48.728 178.993v7.538c0 1.928 1.057 2.817 2.785 2.817h12.11v-2.476H52.996c-.732 0-.995-.23-.995-.99v-6.12c0-.76.263-.99.995-.99H63.62v-2.527H52.1c-2.596 0-3.372 1.158-3.372 2.75z"/>
    <path d="M2 178.993v7.538c0 1.928 1.058 2.817 2.786 2.817h12.11v-2.476H6.27c-.73 0-.994-.23-.994-.99v-6.12c0-.76.263-.99.995-.99h10.625v-2.527H5.375c-2.598 0-3.374 1.158-3.374 2.75z"/>
  </g>
</svg>
