<svg xmlns="http://www.w3.org/2000/svg" viewBox="0 0 200 58">
  <g class="concreto__lettering">
    <path d="M153.214 23.14c.056 1.612 1.168 16.904 1.168 16.904s9.903 1.01 11.015 1.23c.445-1.89.668-4.783.946-5.34-2.615.11-9.124.167-9.124.167v-2.614l5.34.556.668-3.727-6.342-.056.278-4.062 8.183 3.514.997-3.96-13.13-2.613z"/>
    <polygon points="128.234 22.026 126.982 46.477 122.726 47.395 116.468 36.296 116.968 48.98 112.212 48.563 111.627 24.196 113.213 23.139 122.559 37.881 122.643 21.442"/>
    <path d="M180.808 25.03l-4.785-1.29-2.476 19.315h-6.093l3.756-20.278h-11.015v-6.51l23.2-1.084s-2.504 6.426-2.587 9.847z"/>
    <path d="M93.396 25.764l8.99-3.49c-1.586-3.597-5.71-7.09-12.48-7.09S74.99 19.945 74.99 26.927 79.222 45.65 85.674 45.65c6.452 0 9.837-3.808 11.318-5.5l-5.712-7.3s-3.385 3.81-4.866 3.81c-1.48 0-6.24-2.963-6.24-8.886s5.288-9.308 7.932-9.308c2.645 0 5.078 4.02 5.29 7.298z"/>
    <path d="M104.08 25.976c-2.222 0-6.665 4.006-6.665 8.356 0 6.558 6.664 9.414 7.51 9.414 2.433 0 5.818-1.393 5.818-8.163 0-4.953-3.28-9.607-6.664-9.607zm.422 14.068c-1.058 0-4.42-2.116-4.42-3.914s.853-2.644 2.304-2.644c1.164 0 4.23 1.904 4.23 3.914.002 2.01-1.056 2.644-2.114 2.644z"/>
    <path d="M144.507 17.186l-.56 6.947s-2.94-.63-4.96-.28c-1.696.294-6.663 4.57-6.663 9.632s3.255 7.316 8.262 8.485l.083 6.092s-6.37-.957-7.818-2.114c-2.92-2.337-3.89-4.16-3.89-11.087 0-9.43 8.326-16.548 15.545-17.674z"/>
    <path d="M145.647 34.86c2.114-.372 3.84-1.374 3.84-3.654 0-5.4-11.072-4.34-11.072-4.34v13.18h4.173l.056-3.28 8.29 6.98 3.17-3.138-8.457-5.747zm-3.17-1.374l.222-4.117c2.113.222 3.726 1.36 3.726 2.225 0 1.057-1.67 1.612-3.95 1.89z"/>
    <path d="M188.318 23.75c-6.686 0-12.295 9.235-12.295 13.352 0 5.333 4.95 10.237 8.9 10.237S199 41.05 199 34.765c0-6.007-5.423-11.016-10.682-11.016zm.148 14.323c-3.394 0-4.098-2.807-4.098-4.142 0-1.334 2.92-4.562 4.868-4.562 1.502 0 4.868 2.28 4.868 4.117 0 1.837-2.244 4.588-5.638 4.588z"/>
  </g>
  <g class="concreto__symbol">
    <circle cx="43.254" cy="31.011" r=".751"/>
    <circle cx="50.792" cy="30.76" r=".779"/>
    <path d="M46.592 24.14c.458 0 1.03.11 1.084.89.056.78.1 11.914 0 12.295-.264 1.015-1.67.775-2.058.44s-.5-1.72-.056-2.165c.2-.2.765-.09.765-.57 0-.407-.236-9.55-.236-9.945 0-.458.03-.945.502-.945z"/>
    <path d="M49.29 42.11c0 .287 0 .598-.613.7-.38.06-3.856-.002-4.38-.072-.58-.076-.682-.37-.682-.628 0-.442-.098-.78.73-.78.457 0 3.508-.034 4.048-.034.756 0 .897.504.897.814z"/>
    <path d="M55.257 33.71h3.88v4.728h4.45v11.127h-13.13s1.114-9.806 4.8-15.856z"/>
    <polygon points="6.563 33.097 11.07 37.381 12.739 31.762 20.694 32.485 20.694 34.098 16.967 33.709 16.967 40.274 10.458 39.55 5.061 34.488"/>
    <polygon points="8.01 41.637 12.878 45.837 6.953 50.51 1 49.564 2.558 46.073 6.23 48.118"/>
    <polygon points="14.463 45.781 19.804 46.073 19.47 51.567 23.476 52.068 23.476 55.017 21.584 55.017 21.529 53.96 18.024 53.96 12.516 48.786"/>
    <polygon points="23.198 26.81 27.203 30.26 24.032 33.375 19.971 29.258"/>
    <path d="M49.415 18.813c-3.456 0-8.364.082-13.2 2.378-4.45 2.115-8.01 7.122-8.01 9.226 0 1.27.3 2.748 2.865 4.016 4.95 2.448 10.197 7.518 12.184 13.63 1.085 3.338 1.474 4.228 3.755 4.228 1.39 0 2.265-.948 2.67-3.45.945-5.85 3.143-12.933 4.325-15.13 1.405-2.615 4.715-7.595 4.715-10.683s-6.217-4.214-9.305-4.214zM51.57 36.49c-.692 2.33-2.204 6.985-2.697 10.238-.473 3.115-.89 3.867-1.92 3.867-1.334 0-2.04-.94-2.22-1.898-.434-2.297-1.48-5.28-5.623-9.535-6.615-6.793-9.402-5.285-9.402-8.4 0-3.45 6.342-10.516 17.302-10.516 1.725 0 10.348 0 10.348 3.115 0 3.506-4.563 9.014-5.787 13.13z"/>
    <path d="M35.354 38.632c2.114 1.113 6.593 7.427 7.37 11.878l-19.693.78v-4.507l9.125-1.64-2.768-6.302 5.967-.208z"/>
    <path d="M33.184 37.59s-4.423-2.755-5.98-5.09c-1.336.667-4.907 6.797-6.51 10.166l-3.06-.334 3.616 4.006L30.43 44l-2.726-5.946 5.48-.465z"/>
    <path d="M59.777 24.668c-.668 2.81-1.725 4.868-3.42 7.427h3.726v5.063l4.896-.393s1.39-10.576 2.28-12.63l-4.006-1.553-1.59 2.215-1.887-.13z"/>
    <path d="M67.26 22.47c.056-1.5 3.17-13.295 5.118-15.02l-8.79-.445.278 7.12-12.295-.055.67 3.45c4.84 1.14 8.733 3.06 7.788 6.007l3.143-2.198 4.09 1.14z"/>
    <path d="M67.065 4.5l-4.812 1.503.278 6.398-12.795.502 1.057 4.835c-1.975-.195-5.56.09-7.983.362l-3.7-2.916 7.343-7.232-3.727-5.23S57.83.44 67.066 4.502z"/>
    <path d="M40.945 18.27c-2.92.543-7.733 2.922-8.345 3.7l-.5-5.952-8.513 3.672.668-6.064-6.26-1.892s9.71-8.203 20.113-9.776l5.146 5.66-5.758 7.287 3.45 3.366z"/>
    <path d="M30.625 18.604l.306 4.59s-2.503 3.282-3.114 5.174l-4.228-3.115-4.117 3.115-3.337-2.058-.278-11.627 5.452 1.224.5 5.174 8.818-2.476z"/>
  </g>
</svg>
