<svg xmlns="http://www.w3.org/2000/svg" viewBox="0 0 200 164.5" class="death--the-sound-of-perseverance">
    <path d="M82.31 68.165H64.455l6.263 8.78h6.26l5.332-8.78zm-46.34-26.69l10.552 13.29h38.636v8.712l10.423-17.16 5.494 18.792c4.248-8.106 6.56-18.258 6.596-29.583-.576.254-1.436.272-2.754.004-23.294-4.437-45.817-2.5-68.945 5.945zm80.722 78.912c.84-2.594 1.84-5.134 2.553-7.775 1.49-5.69 2.78-12.283 4.24-19.53.836-3.813.768-9.834-14.535-.416l7.73 27.677.012.044zm53.194-.6c2.288-3.12 4.644-6.682 4.644-10.33V89.723h-9.288v19.732c0 3.65 2.355 7.212 4.644 10.332zm0-67.578c-2.29 3.12-4.645 6.682-4.645 10.33v12.716h9.29V62.54c0-3.65-2.357-7.212-4.645-10.33zm-50.287-8.252c-.276 7.124-1.544 15.044-6.293 25.194 11.04 5.77 11.122 2.448 10.554-2.615-.707-7.493-1.796-15.424-4.26-22.58zm-7.64-30.32l9.242-7.04 4.827-3.633c-.716 1.707-1.435 3.62-2.164 5.73-1.136 2.633-1.696 5.63-2.435 8.327-1.58 5.514-1.77 11.058-1.77 16.64.54-.366 1.21-.582 2-.58h20.184c4.196-.01 3.855 4.14 3.54 5.04-.792 2.99-2.016 5.534-3.066 9.415-1.49 5.69-2.78 12.283-4.24 19.53-.885 4.04-.746 9.314 12.797 1.307V62.54c0-4.748-3.988-9.35-6.627-13.022h27.07l3.49-.012h13.783l6.9.024c-2.636 3.668-6.62 8.264-6.62 13.01v46.915c0 4.748 3.99 9.35 6.628 13.022H144.25c2.638-3.67 6.627-8.274 6.627-13.022v-16.35c-5.107-3.06-12.23-7.035-13.115-3.9-.258.916-.287 2.364-.058 4.407.742 7.86 1.993 15.775 4.498 23.275.672 2.01 1.104 3.97 1.392 6.074l-2.756 4.106-22.265.06.81 2.894 3.793 13.585-13.2-16.474-3.255-4.053c4.25 12.04 6.96 24.41 2.416 36.995l-15.714-1.99c.896-5.946 2.178-15.1 1.675-21.273-.556-5.33-2.51-10.372-3.96-15.49-1.624-5.727-2.916-12.31-2.814-21.02l-5.547-7.316L77 102.628h8.045v13.126H69.137l-6.42 10.145-11.608-5.393 2.696-4.753h-14.34v7.525L26.65 135.49v-4.803l-13.026 15.21-8.56-10.353 21.584-25.272.003-42.695-8.35-9.516 15.504-15.775c-6.632 2.534-13.317 5.602-20.088 9.208-2.255 1.223-4.582 2.757-7.923 5.248 2.025-3.02 4.354-5.94 5.68-7.824 15.64-21.545 61.507-41.99 96.994-39.6 1.994.07 3.606.576 3.606 3.092-.01.32-.063.76-.112 1.23zm-6.2 16.974l.117-.393-.144.193.027.2z"/>
    <path class="death__text" d="M152.57 72.6c-12.312 6.912-21.78 5.877-19.057-6.564 1.423-7.057 2.732-13.414 4.247-19.02.932-3.447 2.22-6.514 3.11-9.48h-18.28c.605 3.186 1.94 6.26 2.696 9.467 1.415 5.998 2.462 12.212 3.1 18.978 1.545 13.772-7.884 12.73-21.265 4.907l1.335-2.462c5.625-11.497 6.49-19.82 6.542-27.5.06-8.703-.536-16.225 1.814-24.766l.19-.716-4.272 3.217c-.41.35-.798.646-1.165.886l-.64 6.847c.728.943 1.187 2.562 1.204 4.887-.488 18.744-2.996 31.155-10.61 41.717l-1.97 2.756-5.564-19.025-30.588 50.357H50.91l18.51-21.56h4.295l2.505-4.124h-7.258L58.22 66.34l-1.98-2.774h24.33v-4.344H47.134l17.92 23.805-24.093 28.127h20.153l-4.165 7.338 4.29 1.923 5.86-9.26h13.364v-4.07H69.42L81 87.742l1.326-2.216 10.44 13.196c-.34 11.282 2.18 19.183 5.104 29.527.763 2.698 1.38 5.342 1.663 8.077.348 4.213-.093 10.713-1.12 18.097l7.407.88c5.217-16.574-6.87-35.05-8.026-46.148-.127-1.224-.122-2.358.054-3.39l15.55 19.37-11.532-41.608c1.304-4.424 2.533-8.432 4.783-11.802.944 4.406 1.55 9.986.723 16.518 12.714-7.386 23.34-6.953 20.563 5.728-1.423 7.057-2.732 13.414-4.247 19.02-.933 3.447-2.22 6.514-3.11 9.48h18.28c-.606-3.186-1.94-6.26-2.697-9.467-1.415-5.998-2.462-12.212-3.1-18.978-1.492-13.296 6.722-12.62 19.5-5.142-1.062-5.63-1.114-11.747.008-16.285zm-45.72-55.62c-.98 1.483-2.06 3.162-2.58 4.384 1.89.155 3.806.35 5.748.588l.163-1.74c-.866.247-1.568.058-2.107-.565-.697-.727-1.043-1.61-1.222-2.668zm-3.062 12.47l-.913-6.782C77.027 21.028 55 26.224 37.155 35.145c-1.534.767-3.057.49.218-1.095 18.083-8.754 39.398-14.67 65.534-12.79.717-1.925 2.512-4.478 3.764-6.383l-.02-.815C83.283 13.04 53.205 21.665 29.323 38.65c24.692-9.888 49.302-12.568 74.465-9.2zm5.216-4.054c.18-.002.358.016.53.055l.153.045.208-2.223c-1.914-.208-3.808-.38-5.682-.515l.754 5.6c1.42-1.912 1.956-3.07 4.037-2.96zm-82.04 36.086l3.91-3.425v53.703l-20.27 23.73 3.045 3.698 17.223-20.11v6.873l4.272-4.15v-7.71L61.753 83.03l-27.02-35.893L24 58.058l2.964 3.424zM56.07 104.31h6.237l9.723-16.008h-2.217L56.07 104.31zm130.68-50.345h-10.216c1.458 2.526 2.546 5.302 2.546 8.506v17.244h-18.505V62.47c0-3.202 1.087-5.978 2.546-8.505h-10.238c1.458 2.526 2.546 5.302 2.546 8.506v46.915c0 3.203-1.088 5.98-2.546 8.506h10.24c-1.46-2.525-2.547-5.3-2.547-8.505v-24.26h18.505v24.26c0 3.203-1.088 5.98-2.546 8.506h10.217c-1.457-2.525-2.545-5.3-2.545-8.505V62.47c0-3.202 1.087-5.978 2.546-8.505zm-11.996-2.775h13.776l3.493.012c-2.722 3.787-4.962 7.137-4.962 11.27v46.913c0 4.132 2.24 7.482 4.963 11.27h-20.76c2.72-3.788 4.96-7.138 4.96-11.27V87.9h-12.79v21.484c0 4.132 2.24 7.482 4.96 11.27h-20.782c2.723-3.788 4.963-7.138 4.963-11.27V92.046c-14.896-9.098-17.604-6.672-16.668 1.675.638 6.763 1.74 13.148 3.202 19.262.773 3.232 2.03 5.31 2.604 9.484l-1.862 2.775H119.66l-1.863-2.77c.79-2.988 2.036-5.603 3.085-9.48 1.5-5.72 2.794-12.336 4.262-19.62 1.607-7.34-2.503-11.57-18.29-1.568l10.783 38.614 1.463 5.28-17.14-21.353c1.42 4.943 3.55 10.472 4.368 13.07 2.92 9.284 5.097 20.93 1.58 30.67l-12.54-1.587c1.238-8.21 1.77-15.61 1.422-19.902-.56-5.423-2.544-10.613-4.02-15.825-1.625-5.732-2.905-12.314-2.738-21.12l-7.48-9.864-8.694 14.522h9.383v9.62H68.12l-6.11 9.66-8.488-3.942 3.244-5.717h-18.18l-.922 1.075v7.45l-9.31 8.872v-5.453L13.598 143.1l-6.295-7.61 21.048-24.644.004-46.548-1.42.93-6.297-7.173 14.508-14.763 1.46 1.938 8.96 11.216h37.784v9.894H60.995l8.763 12.284h8.147l17.05-28.07 5.523 18.89c6.34-9.854 9.46-23.21 8.8-38.167-.302-2.145-1.274-3.09-1.96.01-.03.212-.054.437-.068.68-.118 2.077 0 2.19-2.045 1.774-31.142-5.936-60.902-.623-92.368 16.133C28.062 28.9 73.3 8.637 108.292 10.993c1.752.054 1.97.273 1.97 1.313-.05 1.474-.875 5.257 1.15 3.78l10.79-8.16c-.74 1.697-1.412 4.523-2.515 8.552-2.448 8.542-1.776 15.81-1.834 24.464-.054 8.04-.988 16.848-6.91 28.89 12.528 6.847 15.488 4.34 14.603-3.55-.638-6.76-1.74-13.146-3.202-19.26-.773-3.232-2.03-5.31-2.604-9.484-.137-.973.11-2.78 1.864-2.775h20.187c2.1-.004 2.128 2.022 1.864 2.77-.79 2.99-2.036 5.604-3.085 9.48-1.5 5.72-2.795 12.337-4.263 19.62-1.58 7.225 2.16 11.222 16.265 2.662V62.47c0-4.133-2.24-7.483-4.962-11.27h20.783c-2.722 3.787-4.962 7.137-4.962 11.27v14.466h12.793V62.47c0-4.13-2.24-7.48-4.962-11.268l3.494-.012zm-75.4 39.597l4.388 14.16-6.377-8.13c.494-2.235 1.157-4.245 1.99-6.03zm-7.05-22.485l4.418 13.964-3.433 9.364-8.544-10.898 7.558-12.43zm-57.498-11.69l19.708 26.503-19.708 23V56.612z"/>
</svg>
