<!--
  SVG Music Logos
  Deep Forest - Logo v1.0.0
  https://github.com/tiagoporto/svg-music-logos
  Copyright (c) 2016-2018 Tiago Porto (http://tiagoporto.com)
-->
<svg xmlns="http://www.w3.org/2000/svg" viewBox="0 0 200 200">
  <path d="M195.696 84.427c-4.233-10.7-7.188-21.882-13.736-31.625-16.93-18.528-34.66-41.288-61.014-42.007-5.35-.72-9.344-5.03-14.375-6.868-9.023 1.597-19.006 1.038-26.992 5.19C61.928 14.07 42.043 18.543 31.9 36.67 14.73 54.638 4.908 76.6 3.71 101.677c-2.795 7.427 2.156 14.535 4.552 21.243 1.118 30.747 30.347 50.712 53.507 66.684 19.086 10.142 39.93 7.507 61.492 4.632 12.618-3.035 24.837-7.028 35.698-14.375 32.424-22.44 38.094-58.697 36.736-95.433zm-42.486 82.177c-12.858 14.055-28.99 20.285-47.198 21.323-10.302 3.833-22.122.72-31.066-4.073-2.396.32-3.833-1.917-5.75-2.875-9.504-3.994-20.285-11.022-24.677-21.244-15.973-16.292-20.286-37.455-25.876-58.06-3.194-18.686 14.135-28.91 16.132-45.44 5.03-8.625 13.497-16.292 20.684-23.56 6.71-5.19 15.254-6.07 22.36-10.38 11.82-2.876 20.445.558 32.265-.56l13.736 3.434c15.095 4.472 27.074 15.094 38.015 27.073 4.313 11.5 12.22 21.483 14.375 33.94 14.854 30.428-7.826 56.702-23 80.42z"/>
  <path d="M106.57 38.986c-1.277 18.528 2.556 34.98 1.2 53.507 5.908 3.514 11.1-1.517 16.69-2.316 5.99-3.754 15.174-4.792 17.25-13.257-.64-9.823-4.632-23.88 3.434-31.625.24-1.358.4-2.795 1.118-3.993 2.635 1.278 1.757 5.91 5.19 6.31.24 1.916 1.598 3.912 3.435 4.63-1.598 11.82 1.916 25.158-7.427 34.5-11.98 8.706-24.438 16.452-39.69 17.25l-1.2 1.12c.48 14.534-4.152 30.506 4.074 42.565.878 9.184 5.19 16.93 5.19 26.434-2.075.56-2.874-3.433-4.63-1.756-4.473-6.39-7.268-15.014-10.94-21.802-1.52 5.59-1.36 11.82-4.553 16.69-.32 5.91-1.437 11.42-3.513 16.612-1.517.72-1.517-1.038-2.236-1.677 2.237-11.74-2.315-24.118 1.678-35.06l-1.118-1.198c-5.99 8.224-14.854 15.81-22.44 21.322l-2.317-.64c4.952-12.458 17.41-21.88 26.434-32.742-1.198-9.823.16-19.966-1.118-30.427-3.116-3.354-8.786-.72-12.62-2.316-10.46-3.673-24.357-9.743-26.433-22.44-2.076-15.175 1.997-29.31 12.06-40.25 1.517 0 3.753.398 3.992-1.758-3.195 13.256-7.348 29.787-3.994 44.322 7.827 7.986 17.57 14.695 28.11 12.618 3.595-17.49.24-35.618 2.876-53.427 6.55 3.035 6.708-14.215 10.382-2.316l1.117 1.12z"/>
</svg>
