<!--
  SVG Music Logos
  Deep Purple - Stormbringer v1.0.0
  https://github.com/tiagoporto/svg-music-logos
  Copyright (c) 2016-2018 Tiago Porto (http://tiagoporto.com)
-->
<svg xmlns="http://www.w3.org/2000/svg" viewBox="0 0 200 76">
  <path d="M196.76 37.667c.274-3.968-.232-7.575-1.59-9.884-1.54-2.617-4.17-3.87-6.554-3.87-1.962 0-4.294 1.76-5.676 4.408-1.777 3.405-2.263 8.2-1.333 11.768 1.654 6.344 4.46 10.603 7.708 14.304 1.604-1.256 3.017-2.568 4.514-3.824-1.626-1.95-2.208-2.457-2.837-3.642 2.44-1.833 5.524-5.71 5.768-9.26zm-8.51 3.94c-1.103-1.658-1.94-4.488-1.568-7.457.29-2.31.99-4.345 2.546-4.4 1.38-.047 2.214 1.228 2.528 3.216.49 3.103-.555 7.657-3.506 8.642z"/>
  <path d="M179.148 3.15c-1.81 1.332-3.622 2.663-5.433 3.994V40.97c0 1.484.056 2.758.344 4.22.585 2.97 1.588 5.872 3.34 8.648 1.725-.92 3.036-1.74 4.76-2.66-1.044-1.823-2.18-4.85-2.647-7.006-.187-.86-.364-1.867-.364-2.748-.002-8.192-.002-33.195-.002-38.273z"/>
  <path d="M153.233 72.404l5.433-3.993V52.377c1.183.878 2.5 1.368 3.886 1.368 5.14 0 9.33-6.74 9.33-15.004s-4.19-15.005-9.33-15.005c-6.434.025-9.56 5.598-9.33 15.005 0 .255.004.51.012.762v32.902zm9.32-43.032c2.034 0 3.693 3.986 3.693 8.873 0 4.887-1.66 8.873-3.694 8.873-2.035 0-3.694-3.986-3.694-8.873 0-4.887 1.66-8.873 3.694-8.873z"/>
  <path d="M148.705 23.735l-5.433 4.278V53.7h5.433V31.96c.08-1.382 1.588-2.264 4.277-2.61l-.003-5.592c-1.687.3-3.29.704-4.275 1.92v-1.943z"/>
  <path d="M139.91 23.735l-5.434 3.993c0 6.248-.125 12.5-.125 18.742 0 1.402-1.137 2.548-2.528 2.548h-.83c-1.392 0-2.608-1.146-2.608-2.548 0-7.578-.035-15.157-.035-22.735-1.812 1.33-3.623 2.662-5.434 3.993 0 6.142.004 12.607.004 18.43v.464c0 4.04 3.28 7.345 7.29 7.345h2.392c4.01 0 7.29-3.305 7.29-7.345v-.464c0-7.077.017-14.987.017-22.423z"/>
  <path d="M115.906 24.354l.036 5.397c3.87-.118 10.566-5.852 8.368-12.87-1.873-5.98-9.805-8.64-16.678-7.335-15.94 2.62-17.698 22.278-1.744 25.743v-5.546c-13.32-6.09.2-21.117 11.203-13.56 2.662 1.952 3.175 6.238-1.184 8.172z"/>
  <path d="M107.472 43.94v-.375-.06-.315-.15-23.12l6.864-3.087v52.619l-6.864 3.395V43.94z"/>
  <path d="M70.403 72.404l5.433-3.993V52.377c1.183.878 2.5 1.368 3.886 1.368 5.14 0 9.33-6.74 9.33-15.004s-4.19-15.005-9.33-15.005c-6.434.025-9.56 5.598-9.33 15.005 0 .255.004.51.012.762v32.902zm9.32-43.032c2.033 0 3.693 3.986 3.693 8.873 0 4.887-1.66 8.873-3.694 8.873-2.035 0-3.694-3.986-3.694-8.873 0-4.887 1.66-8.873 3.694-8.873z"/>
  <path d="M69.13 37.49c.272-3.97-.234-7.576-1.593-9.885-1.54-2.617-4.17-3.87-6.553-3.87-1.962 0-4.294 1.76-5.676 4.408-1.777 3.405-2.264 8.198-1.333 11.767 1.654 6.344 4.46 10.603 7.708 14.304 1.604-1.256 3.017-2.568 4.514-3.824-1.625-1.95-2.207-2.457-2.836-3.642 2.44-1.833 5.525-5.71 5.77-9.26zm-8.512 3.94c-1.103-1.66-1.94-4.49-1.568-7.458.29-2.31.99-4.345 2.546-4.4 1.38-.047 2.214 1.228 2.528 3.216.49 3.103-.555 7.656-3.506 8.642z"/>
  <path d="M51.82 37.49c.273-3.97-.233-7.576-1.592-9.885-1.54-2.617-4.17-3.87-6.552-3.87-1.963 0-4.295 1.76-5.676 4.408-1.777 3.405-2.264 8.198-1.333 11.767 1.654 6.344 4.46 10.603 7.708 14.304 1.604-1.256 3.017-2.568 4.514-3.824-1.626-1.95-2.208-2.457-2.837-3.642 2.438-1.833 5.523-5.71 5.767-9.26zm-8.51 3.94c-1.104-1.66-1.94-4.49-1.57-7.458.29-2.31.992-4.345 2.547-4.4 1.38-.047 2.214 1.228 2.528 3.216.49 3.103-.555 7.656-3.506 8.642z"/>
  <path d="M21.145 15.995l-6.068 3.087v34.92c4.57-.662 11.53-1.82 16.607-10.647 4.027-8.52 3.858-15.49 2.452-20.75-2.207-8.252-9.51-14.847-18.675-13.11C.987 12.23-1.9 32.564 13.268 35.69v-5.66c-5.943-1.22-5.915-10.71-1.127-13.565 9.62-5.738 16.39 1.942 17.003 11.445.193 8.02-1.628 14.246-7.998 17.36V15.995z"/>
</svg>
