<!--
  SVG Music Logos
  Diamond Head - Lightning to the Nations v1.0.0
  https://github.com/tiagoporto/svg-music-logos
  Copyright (c) 2016-2018 Tiago Porto (http://tiagoporto.com)
-->
<svg xmlns="http://www.w3.org/2000/svg" viewBox="0 0 425.2 425.2" class="diamond-head--lightning-to-the-nations">
  <g class="diamond-head__diamond">
    <linearGradient id="diamond-head__diamond-crown-gradient" gradientUnits="userSpaceOnUse" x1="212.6" y1="89.309" x2="212.6" y2="165.457">
      <stop offset="0" stop-color="#AFD9F4"/>
      <stop offset="1" stop-color="#EAF4F6"/>
    </linearGradient>
    <path class="diamond-head__diamond-crown" d="M212.6 85.86H64.17l-48.525 79.21h393.91L361.03 85.86z"/>

    <linearGradient id="diamond-head__diamond-facets-gradient" gradientUnits="userSpaceOnUse" x1="313.615" y1="88.595" x2="313.615" y2="165.394">
      <stop offset="0" stop-color="#92CFF1"/>
      <stop offset="1" stop-color="#C8E6F3"/>
    </linearGradient>
    <path class="diamond-head__diamond-facets" d="M360.813 85.86h-94.397l47.198 79.686z"/>
    <path class="diamond-head__diamond-facets" d="M158.567 85.86H64.17l47.198 79.686z"/>
    <path class="diamond-head__diamond-facets" d="M259.8 85.86h-94.4l47.2 79.686z"/>

    <linearGradient id="diamond-head__diamond-pavillion-gradient" gradientUnits="userSpaceOnUse" x1="212.6" y1="166.378" x2="212.6" y2="422.293">
      <stop offset="0" stop-color="#73C6EF"/>
      <stop offset=".105" stop-color="#8CD0F0"/>
      <stop offset=".274" stop-color="#AEDDF2"/>
      <stop offset=".447" stop-color="#C8E7F4"/>
      <stop offset=".623" stop-color="#DBEEF5"/>
      <stop offset=".805" stop-color="#E6F3F6"/>
      <stop offset="1" stop-color="#EAF4F6"/>
    </linearGradient>
    <path class="diamond-head__diamond-pavillion" d="M212.6 422.683L409.555 165.07H15.645z"/>
  </g>

  <path class="diamond-head__shadow" d="M391.387 209.49c-6.814-21.845-22.468-50.986-27.15-57.572 31.178-34.91 22.146-88.038 22.146-88.038-9.36 40.73-32.52 58.452-39.357 64.082-22.047-27.07-48.36-46.528-78.297-57.89-24.156-9.168-42.06-9.632-45.4-9.632l-6.88.14v28.084l5.793.468c1.092.222 15.08 3.545 28.228 28.327l2.2 4.093 4.595-.623c.02-.002 1.945-.257 5.22-.257 10.183 0 35.06 2.524 58.037 24.498-7.72 3.92-21.426 9.966-39.832 14.494l-19.112 4.702 18.047 7.855c.267.118 18.637 8.284 40.63 27.97v21.79l-20.036-30.894h-17.58l-1.468 21.066-19.06-21.066H249.9l-22.25 28.142-7.772-28.142h-12.66L184.364 224.9l-18.576-33.814h-13.845l-5.877 38.942-15.36-38.12h-12.594l-21.648 53.727 8.485-45.445c21.99-19.686 40.36-27.85 40.628-27.97l18.047-7.854-19.113-4.702c-18.407-4.528-32.11-10.575-39.832-14.493 22.98-21.973 47.854-24.497 58.04-24.497 3.273 0 5.197.255 5.216.257l4.596.623 2.198-4.094c13.148-24.783 27.137-28.106 28.228-28.328l5.793-.468V60.582l-6.878-.14c-3.342 0-21.244.463-45.4 9.63-29.937 11.363-56.25 30.82-78.297 57.89-6.837-5.63-29.996-23.352-39.356-64.08 0 0-9.034 53.128 22.145 88.037-4.684 6.585-20.336 35.727-27.15 57.57-6.504 20.846-14.392 47.994-14.392 98.742 0 24.647 5.564 47.627 5.564 47.627s4.094-23.325 7.554-34.092 10.8-43.776 40.126-85.295l-29.63 65.14h67.02L86.31 413.7h48.86l-1.23-49.27h7.713v49.27h48.285l-6.532-24.36 15.46 24.912 4.136-5.023-1.63 4.47h38.346l7.39-36.46h10.204l8.376 36.46h52.642l27.416-112.086h23.76l-16.97-65.14c29.326 41.52 40.022 84.857 40.127 85.295l7.554 34.09s5.564-29.104 5.564-47.626c0-50.747-7.89-77.895-14.393-98.74zm-314.89-18.11c1.79-6.744 3.747-13.306 5.43-18.017l7.592 6.38c-4.66 3.715-9.033 7.69-13.022 11.636zm65.582 143.578l-10.01.046-.87-37.52h-19.174l5.347-19.954h11.895l4.926 23.896h7.884v33.532zm74.645 37.595l-6.684-5.846h8.817l-2.132 5.846zm3.444-9.442v-37.728l-.967.51 8.514-10.104-36.02-18.21-20.673 43.81-10.715-39.96h13.3v-35.875l13.44 22.373 14.223-24.316 8.195 37.817h33.184L220.17 363.11zm29.573-65.626l-3.307-11.97 8.627 11.97h-5.32zm8.82-45.58l-5.51-9.254 4.622-10 4.923 10.436-4.034 8.817zm17.075 45.58h-5.882l6.715-11.958-.832 11.958zm31.2 40.218l-2.968-7.41 5.068-2.235-2.1 9.645zm10.305-40.218l-1.936-23.795 15.08 23.794h-13.144zm18.538-117.742l7.59-6.38c1.685 4.712 3.64 11.274 5.432 18.017-3.99-3.946-8.362-7.922-13.02-11.638z"/>

  <g class="diamond-head__text">
    <path d="M26.2 320.026s10.92-45.45 42.206-89.053c33.957-47.327 74.642-65.035 74.642-65.035-31.04-7.637-49.023-19.338-49.023-19.338 33.995-38.307 74.955-32.44 74.955-32.44 15.766-29.726 33.244-31.81 33.244-31.81V66.906S134.24 65.665 79.47 137.023c0 0-21.657-14.32-35.698-41.17 0 0 5.993 34.53 25.865 55.55 0 0-13.302 16.423-21.68 38.922l19.587 9.485s7.143-30.793 12.07-37.075l20.612 17.317C76.37 196.567 58.12 223.337 58.12 223.337s-1.457-8.868 2.32-18.477l-16.668-4.516C36.3 225.47 26 243.044 26.2 320.026z"/>
    <path d="M399 320.024s-10.92-45.45-42.207-89.053c-33.957-47.325-74.642-65.033-74.642-65.033 31.04-7.637 49.024-19.338 49.024-19.338-33.995-38.308-74.954-32.442-74.954-32.442-15.767-29.724-33.245-31.81-33.245-31.81v-15.44s67.984-1.243 122.756 70.114c0 0 21.657-14.318 35.698-41.17 0 0-5.996 34.53-25.866 55.55 0 0 13.303 16.423 21.678 38.923l-19.583 9.484s-7.144-30.794-12.07-37.076l-20.613 17.316c23.855 16.515 42.105 43.284 42.105 43.284s1.458-8.868-2.32-18.476l16.67-4.517c7.47 25.13 19.7 47.922 17.57 119.684z"/>
    <path d="M52.842 294.774l30.054-72.92 12.678-14.09-13.786 87.01z"/>
    <path d="M126.09 198.372h-3.613l-38.842 96.402h21.68l6.405-23.896h22.416l4.928 23.896h25.865l-38.84-96.402zm-9.937 50.5l7.72-23.935 6.814 23.936h-14.534z"/>
    <path d="M116.153 304.135L94.393 406.86h33.83l-1.23-49.27h21.183v49.27h32.966l-27.544-102.725h-5.422v37.443l-23.156.108-.873-37.55z"/>
    <path d="M170.76 356.362l23.483-49.764 22.417 11.333-25.044 29.727 21.35-11.25v23.65H191.78l24.88 21.76-17.16 20.856z"/>
    <path d="M256.814 304.135h-8.622L210.748 406.86h23.402l7.39-36.457h20.94l8.375 36.457h28.33l-42.37-102.725zM246.1 353.527l6.527-25.866 6.774 25.867h-13.3z"/>
    <path d="M267.326 304.135l42.73 102.725h2.925l25.127-102.725h-70.78zm40.852 56.167L294.752 326.8l22.91-10.1-9.484 43.602z"/>
    <path d="M360.77 294.774l-19.092-73.29-14.903-15.333v38.124l-30.3-46.724h-7.76l-2.123 30.458-27.56-30.458h-6.036l-28.39 35.91-9.917-35.91h-4.065l-26.974 39.908-21.923-39.908h-4.188l-6.16 40.812 15.027 37.69v-34.49l20.016 33.32 17.183-29.377 10.675 49.27h27.26l-11.94-43.237 31.157 43.236h2.34l21.514-38.302-2.668 38.302H309.7l-3.86-47.423 30.054 47.424h24.877zM258.786 266.2L244.99 243.04l12.07-26.113 12.317 26.112-10.592 23.157z"/>
  </g>

  <path class="diamond-head__shadow" d="M259.08 77.256l-31.303-7.392L241.37 41.81l-20.99 17.886L212.6 10l-7.78 49.697-20.99-17.885 13.593 28.053-31.304 7.392 31.078 7.323-12.99 23.59-.255.462 20.54-14.302 8.105 76.77 8.107-76.77 20.542 14.3L228 84.58z"/>
  <path class="diamond-head__star" d="M212.6 28.63l-5.36 37.497-13.51-11.51 8.494 17.53-21.62 5.105 21.62 5.095-8.495 15.425 13.51-9.405 5.358 54.475 5.36-54.476 13.512 9.406-8.495-15.426 21.62-5.094-21.62-5.106 8.495-17.53-13.51 11.51z"/>
</svg>
