<!--
  SVG Music Logos
  Doro - Love Me in Black v0.1.1
  https://github.com/tiagoporto/svg-music-logos
  Copyright (c) 2016-2018 Tiago Porto (http://tiagoporto.com)
-->
<svg xmlns="http://www.w3.org/2000/svg" viewBox="0 0 200 42">
  <path d="M186.563,3.803h-27.869c-4.216,0-7.81,3.049-9.254,7.346c-1.515-4.119-5.038-7.007-9.143-7.007H126.73V4.1h-20.889v0.042 h-2.662v6.916c-1.534-4.07-5.031-6.916-9.105-6.916H66.204c-4.343,0-8.024,3.235-9.377,7.736c-1.265-4.5-4.705-7.736-8.762-7.736    H3.5c0,0,4.374,7.36,9.393,7.36s33.795,0,33.795,0c2.439,0,4.416,1.977,4.416,4.417c0,2.439-1.977,4.416-4.416,4.416H20.322v-2.734  h-6.729V27.2h0.013v0.027h33.3v-0.028h1.16c4.059,0,7.5-3.236,8.764-7.74c1.354,4.499,5.034,7.731,9.375,7.731h27.869   c4.074,0,7.571-2.846,9.105-6.916V27.2h5.888V11.503h6.541h11.123h13.132c2.039,0,3.691,1.887,3.691,4.215  c0,1.57-0.753,2.936-1.868,3.661c-0.724,0.723-3.576,0.957-4.835,0.767c-6.99-4.709-19.457-5.672-26.578-4.652  c26.224,6.24,23.494,20.183,42.779,23.129c18.44,2.1,22.238-2.24,22.238-2.24s-16.476,1.12-31.168-9.946    c1.038-0.717,2.407-1.679,2.267-1.679c-0.002,0-0.008-0.004-0.012-0.006c1.406-1.267,2.517-2.951,3.174-4.907   c1.515,4.119,5.038,7.007,9.144,7.007h27.869c5.488,0,9.937-5.16,9.937-11.525C196.5,8.962,192.051,3.803,186.563,3.803z M93.638,19.931H66.891c-2.038,0-3.69-1.887-3.69-4.214c0-2.328,1.652-4.215,3.69-4.215h26.747c2.039,0,3.691,1.887,3.691,4.215 C97.328,18.045,95.676,19.931,93.638,19.931z M186.128,19.592h-26.747c-2.038,0-3.69-1.887-3.69-4.214  c0-2.328,1.652-4.215,3.69-4.215h26.747c2.039,0,3.691,1.887,3.691,4.215C189.819,17.706,188.167,19.592,186.128,19.592z"/>
</svg>
