<!--
  SVG Music Logos
  Dream Theather - Images and Words v1.0.0
  https://github.com/tiagoporto/svg-music-logos
  Copyright (c) 2016-2018 Tiago Porto (http://tiagoporto.com)
-->
<svg xmlns="http://www.w3.org/2000/svg" viewBox="0 0 200 36">
  <path d="M166.032 19.107s-.286-1.807.22-1.96h4.032s.705.043.86-.464h.462v4.43h-.617s.02-1.742-1.17-1.962l-3.79-.04z"/>
  <path d="M146.49 12.63V7.56l.726.11s2.38.86 4.65.793c0 0 17.03.397 19.586-.727h.418v5.684l-.53-.066s.177-3.063-2.334-3.063h-3.24s-.417.38-.484.97v14.81s-.044 2.69 2.402 2.58h3.834s2.798-.77 3.283-2.86V8.4l-.24-1.015h2.69v9.298s5.77 1.564 5.71-5.177c0 0-.2-6.28-6.78-6.17 0 0-3.32.023-4.89.684V4.632s5.82-.948 9.61 0c0 0 5.29 1.564 4.54 7.337 0 0-.11 3.34-3.81 5.48l.18.61 9.5 12.95s1.68 2 5.31 1.8h1.3v.77h-4.23s-3.21.92-7.4-4.14l-7.05-11.26s-.73-.8-1.96-.62V29.7s.4 1.984 2.09 1.984h.77v.638h-7.77v-.705s2.16.024 2.228-1.3l.04-2.334s-1.343 2.578-2.91 2.445H160.2v-1.01h.99s1.81-.243 1.5-2.336l.13-17.736s-5.336 1.19-6.768.77v16.79s-.42 2.27 1.5 2.312h1.08v.948h-6.784v-.88s1.697.043 1.65-1.742v-17.43s-5.443-.044-5.906.903c0 0-.354.84-.31 1.435l-.77.176z"/>
  <path d="M127.1 19.438s-.308-2.027.22-2.203h4.23s.727.044.903-.55h.485v5.022h-.66s.043-1.983-1.19-2.203l-3.988-.066z"/>
  <path d="M102.18 8.818s3.35.066 3.284 2.38v16.59s0 1.675-1.72 1.675v.53h5.95v-.883h-.88s-1.3.066-1.3-2.16v-7.578h9.055v8.35s.06 2.07-.47 2.446h18.92s.24-2.776.81-4.385l4.38-12.426s.64-1.52.95-.265l6.25 17.03s.64 3.196 6.45 2.755h3.28l-.047-.903h-3.3s-2.316-.925-3.75-3.81l-7.88-20.206s-.485-2.138-4.01-2.314h-2.8v.903h1.43s2.867.396 3.176 3.568l-5.75 16.48s-1.344 2.05-2.36 1.74h-4.25s-1.39-.175-1.28-2.687V10.23h3.9s2.095-.375 2.205 3.13h.49V8.134s-9.25.66-11.52-.11v.903s2.62.154 2.62 1.983l-.175 16.636s-.48 2.225-2.64 1.917c0 0-2.49.31-2.45-1.96v-8.065s2.16-.55 2.16-1.675l-2.16-.132V9.24s-.09-1.784 1.146-3.393c0 0-.197-.815-.9-.154 0 0-2.38 2.115-2.446 5.11v7.14h-6.61s-2.54.065-2.65-.948V8.467l-5.266-.44.13.793z"/>
  <path d="M96.387 5.777s-6.367.066-7.866.53h-.48V1.59l.53.177s0 2.093 2.76 2.093c0 0 16.09.264 17.76.595.11.022.16.044.16.066-.13.36-.85.89-1.8.95 0 0-7.34.55-8.28.49V31.1s.42 1.672 2.51 1.672h.71v.595H93.2l.13-.484s3.5-.352 3.327-2.446L96.4 5.783z"/>
  <path d="M89.512 20.21c-.044-.53-.154-2.094-1.3-2.8 0 0-.705-.528.176-.66h3.107s.242.683-.243 1.08l-1.146 2.555s-.527.352-.594-.176z"/>
  <path d="M44.213 19.085s-.463-1.498 0-1.85h3.283s.86.11 1.124-.595h.55v5.134l-.616-.066s.022-2.38-1.476-2.38H44.5l-.287-.243z"/>
  <path d="M32.272 30.124H30.95s-1.124-.066-1.476-.243c0 0-1.102-.19-1.917.11 0 0-1.674.14-2.225.07v-.77s2.225.51 2.16-1.56V10.54s.242-1.61-2.27-1.54v-.97s4.957.285 7.337.065c0 0 4.91.246 4.84 5.446 0 0 .06 3.99-2.87 6.15l-.18.36s5.22 8.37 6.37 8.37V10.98s.3-1.873-2.21-1.983v-.97s7.09 1.013 11.1.067h.42v5.62h-.77l-.18-2.27s-.17-1.564-2.37-1.564c0 0-3.13-.26-3.37 1.33v15.88s.77 1.57 2.09 1.43h2.76s1.72-.11 2.75-2.38c0 0 6.8-18.13 8.41-20.38 0 0 .71-.44.42.69 0 0-.24 2.09 0 3.04 0 0 3.46 18.618 6 18.795 0 0 .64.375.57-1.675l.6-16.24s.134-1.256-2.09-1.61v-.73h3.9l7.05 14.52s.05.042.53-.95l6.63-14.345h1.37l-.07.837s-.42.49-.467 1.19v17.67s.95 2.23 3.22 1.92l3.082-.283s.175.53-.46.84c0 0-1.61.81-4.06.81h-1.74s-1.96.13-1.96-1.96V14.07s-.53-.73-1.014.483L75.3 27.5s-.638 1.344-.88.044c0 0-.176-.64.176-1.41l-.11-.705-5.31-11.24s-.66-.93-.77.39l-.618 13.39s-.044 1.19 1.146 1.19c0 0 1.3.39.77.88h-5.31s-1.607.11-2.577-3.4c0 0-3.26-10.67-3.327-13.38 0 0-.264-1.877-.86-.66 0 0-5.53 15.16-5.948 17.07l-.31.42h-9.605s2.974 3.66 5.552 3.77h1.78s.26.595-.29.64h-4.6s-3.04.22-7.05-6.06c0 0-3.66-5.2-4.12-6.654 0 0-.97-1.673-2.1-2.09h-.49V19h2.58s2.38-.464 2.02-5.07c0 0-.2-4.297-4.01-4.43h-1.36v18.36s.02 1.476 1.87 1.344l.7-.044v.95z"/>
  <path d="M5.744 30.674s2.82.22 2.93-2.886V8.53s2.313-.087 2.975-1.034l-.05 1.08s-.77 1.388-.77 2.27v17.25s.61 2.38 5.84 1.432c0 0 6.63-2.247 6.39-13.02 0 0-.97-9.916-9.32-10.753H2.11V3.31s2.62 1.256 4.58 1.146h9.805s9.254 1.366 9.188 13.484c0 0-.595 12.91-9.188 13.44 0 0-3.37.132-4.517-.242 0 0-2.16-.286-3.944.176 0 0-1.564.31-2.292.066v-.706z"/>
</svg>
