<!--
  SVG Music Logos
  Drowned - By the Grace of Evil v1.0.0
  https://github.com/tiagoporto/svg-music-logos
  Copyright (c) 2016-2018 Tiago Porto (http://tiagoporto.com)
-->
<svg xmlns="http://www.w3.org/2000/svg" viewBox="0 0 200 120">
  <path d="M193.411,37.573c-0.322,0.024-0.262-0.332-0.446-0.444c-0.74,0.167-1.715,0.174-2.677,0.19 c-0.972,0.016-2.335,0.245-3.123,0c-0.256-0.08-0.302-0.193-0.446-0.444c-1.328-0.131-2.977-0.163-4.271-0.127 c-0.472,0.013-2.242,0.058-3.315,0.127c-0.247,1.355-0.163,4.07-0.956,5.323c-0.124,0.195-0.24,0.378-0.51,0.38 c0.008,0.621-0.495,0.733-0.51,1.331c-0.389,0.437-0.928,1.062-0.892,1.711c-0.199,0.098-0.352,0.241-0.51,0.38 c-0.005,1.685-0.436,2.946-0.892,4.182c-0.31-1.362-1.511-0.048-1.466,0.824c-0.055,0.241-0.331,0.262-0.51,0.38 c-0.099,0.958-0.859,1.259-0.893,2.281c-0.197,0.121-0.336,0.299-0.574,0.38c0.173,0.231-0.363,0.792,0,1.204 c-0.45-0.14-0.69,0.445-1.084,0.57c-0.081,0.575-0.647,0.875-0.765,1.584c0.063,0.358-0.506,0.088-0.51,0.38 c0,0.655,0,1.31,0,1.964c-0.442-0.025-0.188-0.743-0.255-1.141c-0.195-0.123-0.376-0.26-0.51-0.444 c-0.205-0.522,0.663-2.078-0.701-2.028c0-0.296,0-0.592,0-0.887c-0.697-0.976-1.759-1.589-2.167-2.852 c-0.374-0.177-0.661-0.441-0.765-0.887c-0.984-0.107-2.129-0.037-3.06-0.063c-0.526-0.015-1.445,0.106-1.721,0 c-0.198-0.076-0.337-0.346-0.51-0.507c-0.759,0.093-1.258-0.132-1.848,0.063c-0.344,0.114-0.478,0.511-0.829,0.507 c-0.478-0.005-0.506-0.582-0.892-0.76c-0.85-0.392-1.338,0.217-2.295,0c-2.277,0.581-3.776,0.385-4.653,0.38 c-0.982-0.005-3.222-0.018-5.163-0.19c-0.293,0.385-0.275,1.079-0.765,1.267c-0.221,1.195-0.484,2.542-0.51,3.739 c-1.282-1.271-1.385-4.137-1.211-6.463c-0.127-0.276-0.437-0.368-0.51-0.697c-1.443,0.252-2.474,0.22-4.079,0.254 c-0.361-0.19-0.033-0.45-0.191-0.697c-2.534-0.047-5.092,0.038-6.693,0.063c-0.387,0.006-1.19-0.15-1.785,0 c-0.457,0.115-0.535,0.615-0.765,0.697c-0.47-0.05-0.461-0.506-0.638-0.697c-0.388-0.121-0.929-0.091-1.211-0.317 c-0.194,0.143-0.301,0.164-0.574,0.19c-1.016,0.098-2.274-0.187-3.314-0.253c-1.179-0.075-2.204-0.188-3.187-0.19 c-0.499-1.932-0.964-4.069-1.785-5.576c-0.128-0.234-0.107-0.14-0.191-0.254c-3.572-13.388-7.575-26.35-11.728-39.161 c0.018-0.278-0.34-0.212-0.829-0.254c-0.546,0.175-0.484,0.955-1.02,1.141c0.073,0.608-0.669,0.708-0.701,1.394 c-0.205,0.092-0.357,0.236-0.574,0.317c0,0.169,0,0.338,0,0.507c-0.507,0.235-0.695,0.787-0.956,1.267 c-0.433,0.309-0.538,0.943-0.956,1.267c-0.193,0.795-0.351,1.839-0.191,2.788c-0.198,0.224-0.668-0.338-1.083-0.317 c-0.065,0.267-0.367,0.381-0.51,0.634c-0.112,0.197-0.081,0.436-0.191,0.634c-0.082,0.147-0.335,0.336-0.51,0.57 c-0.317,0.426-0.318,0.927-0.829,0.951c0.122,0.544-0.314,0.532-0.446,0.823c0.013,0.249-0.231,0.498-0.51,0.634 c-0.353,1.254-1.178,2.04-1.402,3.422c-0.055,0.241-0.331,0.262-0.51,0.38c-0.273,1.163-1.061,2.302-1.466,3.358 c-0.268,0.701-0.258,1.534-0.956,1.648c0.035,0.583-0.455,0.616-0.255,1.204c-0.531,0.148-0.53,0.825-0.701,1.331 c-0.083,0.171-0.243,0.265-0.446,0.317c-0.77,2.487-1.864,4.653-2.677,7.097c-0.031,0.37,0.574,0.441,0.383,0.76 c-0.139,0.495-0.622,0.649-1.084,0.823c-2.556,6.922-5.391,13.567-8.35,20.087c-0.961-1.854-1.776-3.853-2.677-5.766 c-0.932-0.214-1.603-0.687-1.912-1.521c-0.648-0.075-0.605,0.735-1.339,0.38c0.398-2.243-1.671-2.82-2.486-4.246 c-0.326-0.056-0.549-0.214-0.765-0.38c-0.147-0.171-0.142-0.492-0.255-0.697c-0.392-0.079-1.127-0.113-1.275,0.507 c-1.547,0.384-2.697,0.522-4.462,0.57c-0.275,0.1-0.297,0.285-0.51,0.444c-0.41,0.304-0.774,0.456-1.147,0.76 c-0.187,0.153-0.281,0.385-0.446,0.507c-0.421,0.31-1.218,0.273-1.211,0.951c-0.714,0.008-0.965,0.477-1.211,0.951 c-0.69,0.011-0.963,0.437-1.147,0.951c-0.764-0.126-0.559,0.712-1.339,0.57c-0.305-0.288-0.271-0.913-0.701-1.077 c-0.187-0.406-0.433-0.752-0.701-1.077c-1.348-0.008-1.304-0.055-2.805-0.064c-1.135-0.006-2.371,0.005-3.761,0 c-0.073,0.181-0.078,0.43-0.446,0.317c-0.246,0.051,0.023,0.615-0.255,0.634c-0.252,0.172-0.588-0.023-0.892,0 c-0.256-0.189-0.26-0.629-0.446-0.887c-2.837-0.032-5.21-0.101-8.222-0.254c-0.896-0.045-1.755,0.069-2.486-0.38 c-0.343-1.134-0.528-2.281-0.765-3.422c-0.213-1.026-0.307-2.563-0.701-3.485c-0.106-0.248-0.55-0.888-0.701-1.077 c-0.239-0.299-0.631-0.385-0.765-0.697c-0.143-0.332,0.067-1.044,0.064-1.584c-0.011-1.643-0.046-3.217-0.064-4.753 c-0.794-0.085-1.788-0.115-2.231-0.127c-2.673-0.072-3.772,0.006-4.844,0c-0.58-0.003-1.359-0.171-1.721-0.063 c-0.232,0.069-0.198,0.195-0.446,0.38c-0.198,0.148-0.516,0.187-0.701,0.317c-0.522,0.366-0.93,1.074-1.466,1.458 c-0.512,0.366-1.13,0.396-1.466,0.951c-1.087,0.251-3.12-0.103-3.442,0.697c-0.81,0.068-2.625,0.421-4.016,0.507 c0.035,1.137-0.102,2.215-0.064,3.295c0.038,1.055,0.277,2.093,0.255,3.042c0,0.023,0.083,0.262,0.064,0.317 c-0.067,0.189-0.197-0.033-0.191,0.19c0.014,0.523,0.5,1.159-0.064,1.521c0.257,1.239,0.168,2.05,0.191,3.422 c0.021,1.223,0.055,1.468,0.064,2.852c-0.764,0.209-1.54,0.104-2.231,0.38c-0.403,0.161-0.67,0.558-1.084,0.824 c-0.237,0.153-0.523,0.182-0.701,0.317c-0.27,0.204-0.459,0.457-0.765,0.697c-0.293,0.231-0.446,0.549-0.701,0.76 c-0.221,0.183-0.548,0.21-0.765,0.38c-0.193,0.152-0.323,0.416-0.51,0.57c-0.186,0.154-0.438,0.172-0.637,0.317 c-0.226,0.164-0.354,0.453-0.574,0.634c-0.233,0.193-0.529,0.253-0.765,0.444c-0.381,0.308-0.653,0.741-1.084,0.951 c0,5.684,0,12.308,0,18.186c0,0.421-0.041,0.891-0.064,1.336l0,0.878c0.012,0.139,0.032,0.268,0.064,0.383 c0.109,0.399,0.882,1.092,1.275,1.521c0.517,0.565,1.056,0.989,1.211,1.648c-0.137,0.306-0.58,0.216-0.829,0.38 c-0.179,0.117-1.032,1.078-1.083,1.204c-0.589,1.44,0.957,2.189,1.53,3.042c0.287,0.073,0.528,0.193,0.701,0.381 c0.072,0.287,0.055,0.663,0.127,0.95c0.177,0.247,0.588,0.26,0.892,0.38c-0.316,1.137,0.673,1.471,1.466,1.711 c0.351,0.961,0.87,1.755,1.593,2.345c-0.014,0.204,0.113,0.268,0.064,0.507c0.134,0.12,0.327,0.182,0.51,0.254 c0.267,2.63,4.258,2.584,6.629,1.838c0.088-0.2-0.04-0.497,0.064-0.697c1.878-0.11,3.78-0.246,5.673-0.127 c1.13,0.071,2.125,0.034,3.123-0.253c0.825-0.237,1.823-0.794,2.422-1.268c0.945-0.746,1.285-2.083,2.422-2.661 c0.023-0.906,0.346-1.515,0.446-2.344c3.188-0.154,6.946-0.032,8.86,0c3.206,0.054,5.211,0.122,7.776,0.19 c0.317,0.023,0.275,0.403,0.51,0.507c1.237,0.195,1.537-0.542,2.04-1.077c3.512,0.452,7.756,0.546,11.983,0.76 c2.683,0.136,5.565,0.327,8.159,0.444c1.118,0.05,2.212-0.113,2.932,0.127c0.375,0.125,0.599,0.491,1.02,0.634 c0.534,0.18,0.962,0.127,1.594,0.063c0.492,0.504,0.486,1.502,1.211,1.774c0.278,0.844,0.414,1.827,1.211,2.155 c0.457,1.129,0.714,2.459,1.657,3.105c0.11,1.285,1.038,1.756,1.721,2.471c-0.749,0.973-0.326,2.623,0.701,3.042 c0.178,0.858,0.605,1.469,0.892,2.218c0.539,0.098,0.363,0.906,0.956,0.951c-0.02,0.674,0.227,1.084,0.701,1.267 c-0.111,0.597,0.116,0.856,0.51,0.951c-0.063,0.527,0.027,0.902,0.446,0.95c0,0.211,0,0.423,0,0.634 c0.08,0.195,0.344,0.207,0.51,0.317c0,0.211,0,0.422,0,0.634c0.061,0.278,0.479,0.2,0.574,0.443 c0.621,1.98,1.587,3.619,2.295,5.513c0.046,0.25,0.42,0.174,0.51,0.38c0.182,0.727,0.242,1.576,0.892,1.838 c0.029,0.288,0.035,0.599,0.255,0.697c0.149,0,0.297,0,0.446,0c0.417-0.325,0.755-0.728,0.892-1.331 c0.36-0.262,0.749-0.789,0.892-1.331c0.494-0.088,0.393-0.939,0.893-0.951c-0.027-0.301,0.093-0.457,0.128-0.697 c1.091-1.406,2.159-2.811,2.996-4.309c0.262-0.035,0.412-0.182,0.701-0.19c0.034-0.77-0.208-2.077,0.51-1.964 c-0.073-0.224,0.067-0.719,0.446-0.697c-0.024-1.228,1.197-1.218,1.211-2.408c0.669-0.048,0.274-0.812,0.956-0.887 c-0.059-1.283,1.203-1.255,1.211-2.471c0.114-0.119,0.391-0.076,0.446-0.253c0.118-0.643,0.466-1.057,0.701-1.584 c0.326-0.14,0.594-0.339,0.956-0.444c-0.006-0.365-0.014-0.732,0.064-1.014c0.353-0.325,0.748-0.608,1.147-0.887 c0.368-0.838,0.343-2.067,1.211-2.408c0.002-0.378,0.075-0.686,0.446-0.697c0.084-0.593,0.23-1.123,0.765-1.267 c-0.064-0.422,0.172-0.547,0.191-0.887c0.725-0.336,0.801-1.316,1.466-1.711c0.031-0.615,0.336-1.182,0.765-1.204 c0.029-1.387,1.203-1.634,1.53-2.725c0.794-0.246,0.985-1.111,1.339-1.964c0.727-1.754,2.189-3.702,2.55-5.64 c0.116,2.13,0.063,4.403,0.064,6.59c0,0.693,0.17,1.695,0,2.218c-0.095,0.291-0.681,0.532-0.893,0.824 c-0.448,0.621-0.564,1.354-0.765,2.028c0.371,0.202,0.662,0.483,0.829,0.887c0.641,0.351,2.195,0.763,2.104-0.507 c2.032,0.44,3.319,0.56,5.036,0.254c0.58-0.103,1.152-0.406,1.785-0.507c0.846-0.135,1.945,0.028,2.805,0 c0.701-0.023,1.437-0.063,2.103-0.064c10.751,0,21.261-0.472,31.997-1.014c0.926-0.046,2.009,0.053,2.613-0.127 c1.067-0.316,1.374-1.839,2.613-2.091c0.214-0.558,0.755-0.629,1.211-0.951c0.305-0.215,0.254-0.512,0.638-0.443 c0.605,0.107,0.214,1.21,0.382,1.774c0.209,0.701,0.763,0.879,1.147,1.268c0.627,1.193,1.436,2.205,2.677,2.788 c0.078,0.366,0.333,0.556,0.573,0.76c2.052-0.015,3.194-0.072,4.844-0.063c0.477,0.003,1.202-0.108,1.721,0.063 c0.219,0.073,0.442,0.375,0.701,0.444c0.542,0.143,1.375,0,2.04,0c2.247,0,3.956-0.026,5.673,0.253 c0.485-0.616,0.863-1.339,0.956-2.345c1.497,0.194,3.032,0.333,4.271-0.127c0.416-0.155,0.893-0.602,1.211-0.57 c0.396,0.039,0.468,0.272,0.701,0.444c1.175,0.123,2.756,0.116,3.888,0.253c0-17.341,0-34.683,0-52.024 C196.208,37.505,195.594,37.61,193.411,37.573z M31.257,72.996c0.168,0.614,0.121,1.094-0.191,1.711 c0.566,1.255,0.437,4.007-0.255,5.006c1.097,0.923-0.886,2.86,0.191,3.802c-2.436,1.207-6.466,0.976-8.86,0.063 c0.047-0.133,0.047-0.247,0-0.38c-0.391-0.139-0.788-0.273-1.275-0.317c-0.422,0.791-1.741,0.372-2.103,1.141 c-0.701-0.374-2.07,0.518-2.613-0.38c0.029-0.288,0.259-0.376,0.255-0.697c-0.844-0.132-0.896,0.793-1.466,0.95 c-0.513,0.142-0.637-0.52-1.402-0.57c0-0.127,0-0.254,0-0.38c-1.288-0.261-2.1-0.996-3.123-1.521 c-0.223-0.792-0.249-1.781-1.02-2.028c0.194-0.502-0.096-0.698-0.382-0.887c0-0.422,0-0.845,0-1.267 c-0.125-0.193-0.356-0.279-0.51-0.444c0.025-0.27,0.385-0.208,0.319-0.57c-0.172-0.463-0.467-0.803-0.765-1.141 c0.51-0.292,0.011-0.867,0-1.394c-0.007-0.337,0.254-0.629,0.191-0.887c-0.093-0.379-0.415-0.38-0.638-0.633 c0.15-0.02,0.239-0.1,0.446-0.063c-0.079-1.024-0.766-2.029,0-2.852c-0.153-0.376-0.373-0.685-0.382-1.204 c0.086-0.21,0.378-0.216,0.574-0.317c0.033-0.392-0.276-0.445-0.191-0.887c0.279-0.166,0.342-0.547,0.446-0.887 c-0.796-0.889,0.61-1.345,0.064-2.661c1.132-0.269,1.698-1.1,3.06-1.141c-0.612-0.405-1.418-0.228-2.167-0.38 c-0.036-1.134,0.16-2.038,1.02-2.281c-0.25-1.41,1.023-1.306,1.147-2.344c0.481,0.049,0.568-0.71,1.402-0.507 c0.087-0.188,0.239-0.312,0.319-0.507c0.251,0.099,0.387-0.036,0.637,0.063c-0.006-0.26-0.013-0.52,0.064-0.697 c0.637-0.615,1.947-0.264,2.613-0.76c1.233,0.304,2.371,0.36,3.378,0.697c0.556,0.186,1.01,0.678,1.657,0.697 c0.241-0.077,0.352-0.284,0.574-0.38c-0.548-0.758,0.027-2.095-0.319-3.168c0.046-0.208,0.296-0.213,0.319-0.444 c-0.18-1.203-0.046-1.603-0.127-2.344c0.208-0.096,0.393-0.312,0.51-0.317c-0.438-1.295-0.167-2.874-0.446-3.929 c0.026-0.269,0.325-0.268,0.319-0.57c-0.454-1.664-0.325-2.925-0.382-3.802c2.101-0.162,3.936-0.121,6.501-0.127 c0,0.423,0,0.845,0,1.267c0.488-0.212,0.42-0.977,0.765-1.331c0.468,0,0.935,0,1.402,0c-0.038,0.165,0.026,0.228,0.191,0.19 c0.017,0.207-0.247,0.134-0.255,0.317c0.484,0.422,0.278,1.384,0.064,2.091c-0.059,0.333,0.215,0.335,0.255,0.57 c-0.097,1.428-0.62,3.083,0,4.056c-0.072,0.182-0.134,0.374-0.255,0.507c0.036,1.557,0.191,2.51,0.382,4.879 c0.044,0.545,0.007,1.027-0.191,1.457c0.057,0.26,0.196,0.439,0.319,0.633c-0.479,1.463,0.145,2.729-0.51,4.056 c0.116,0.843,0.776,1.869,0.255,2.661c0.463,2.476,0.767,5.045,0.127,7.731c-0.141,0.591-0.492,1.246-0.446,1.711 C30.789,72.284,31.153,72.618,31.257,72.996z M49.741,58.421c-0.098,0.177-0.378,0.173-0.446,0.38 c0.107,0.273-0.339,2.122,0.382,2.345c-0.162,0.467,0.178,0.754-0.191,1.014c-0.112,0.546,0.245,0.922,0.191,1.204 c-1.426-0.023-2.857,0.281-4.207,0.634c-0.09,0.432-0.658,0.722-0.956,0.57c-0.399,1.754-0.584,3.613-0.701,5.386 c-0.062,0.941-0.213,2.447,0.191,3.042c-0.039,0.236-0.135,0.415-0.255,0.57c0.375,0.635-0.1,1.241-0.127,1.838 C43.595,76,43.98,76.58,43.749,77.241c0.087,0.245,0.41,0.398,0.255,0.697c-0.044,0.252-0.319,0.274-0.51,0.38 c0.025,1.49,0.009,2.247,0.064,3.485c0.022,0.5,0.263,1.333-0.191,1.774c-2.403,0.212-5.605,0.29-7.713,0.253 c-0.387-3.107-0.497-5.692-0.51-9.125c0.03-0.224,0.161-0.347,0.255-0.507c-0.103-0.194-0.302-0.291-0.383-0.507 c0.273-0.736,0.5-2.443-0.128-2.978c0.252-0.954,1.573-0.844,1.912-1.711c0.191,0,0.382,0,0.574,0 c-0.373-0.149-1.143-0.729-1.53-0.253c-0.272-0.11-0.461-0.302-0.701-0.444c-0.24-0.265,0.396-1.787-0.191-2.155 c0.091-0.248,0.268-0.409,0.383-0.633c-0.105-0.319-0.391-0.456-0.446-0.824c0.013-0.283,0.371-0.222,0.446-0.444 c0.008-0.891-0.292-1.588,0-2.344c-0.265-0.628-0.347-0.957,0-1.521c-0.315-0.441-0.302-0.961,0-1.394 C34.965,58.19,35,56.689,35.4,55.95c0.042-0.275-0.321-0.146-0.255-0.444c0.176-0.443,0.927-0.348,1.211-0.063 c0.159,0.009,0.256-0.196,0.446-0.254c0.344-0.103,1.457,0.001,2.55,0.063c0.424,0.024,0.956,0.217,1.466,0.19 c0.223-0.012,0.483-0.206,0.829-0.254c0.848-0.116,2.152,0.017,2.295,0.507c0.185,0.636-0.653,0.963-0.191,1.521 c0.807,0.381,1.221-0.502,1.466-1.077c0.646-0.224,1.479-0.262,1.657-0.951c0.864,0.098,1.41-0.119,2.104-0.19 c-0.136,0.579,0.273,0.615,0.51,0.824c-0.08,0.195-0.178,0.372-0.255,0.57c0.079,0.449,0.419,0.639,0.51,1.077 c0.036,0.311-0.486,0.066-0.51,0.317C49.201,58.198,49.73,58.052,49.741,58.421z M75.874,67.166 c0.537,0.411,0.013,0.99-0.255,1.331c0.496,0.64,0.458,2.151-0.51,2.344c-0.271,0.738-0.102,1.656-0.191,2.471 c-0.926-0.161-0.666,0.859-0.892,1.394c-0.246-0.012-0.47-0.002-0.637,0.063c-0.059,0.871-0.515,1.347-1.147,1.648 c-0.147,0.825-0.64,1.308-1.53,1.394c-0.532,0.679-1.125,1.237-1.721,0.95c-0.124,0.49-0.726,0.504-0.829,1.014 c-0.615,0.065-1.139,0.22-1.848,0.19c-0.063,0.212-0.276,0.275-0.319,0.507c-1.135-0.005-2.471,0.637-2.932-0.254 c-0.502,0.008-0.896,0.123-1.339,0.19c-0.13-0.68,0.319-1.545-0.191-1.837c-0.29,0.366-0.568,0.746-0.765,1.204 c-1.804,0.781-2.157-1.245-3.888-1.14c-0.1-0.154-0.238-0.271-0.191-0.571c-0.374-0.346-1.168-0.275-1.721-0.444 c0.116-1.382-0.624-1.914-1.657-2.154c-0.213-0.866-0.782-1.377-0.701-2.535c-0.133-0.185-0.372-0.264-0.51-0.443 c0.075-0.793-0.122-1.315-0.446-1.711c0.102-0.236,0.185-0.492,0.446-0.57c-0.141-0.24-0.36-0.403-0.51-0.634 c-0.17-1.734-0.416-3.622-0.446-5.006c0.105-0.213,0.365-0.271,0.51-0.444c-0.472-0.813-0.259-1.497-0.128-2.598 c0.555-0.395,1.617-0.566,2.231-0.697c-0.489-0.359-1.108-0.588-1.593-0.951c0.071-0.52,0.318-0.866,0.446-1.331 c0.179-0.181,0.503-0.218,0.765-0.317c0.038-0.507-0.41-0.51-0.319-0.76c0.109-0.167,0.266-0.285,0.51-0.317 c0.013-0.266-0.242-0.266-0.255-0.507c0.626-0.455,0.932-1.229,1.721-1.521c0-0.211,0-0.422,0-0.634 c0.475-0.629,1.389-0.932,2.295-0.951c0.139-0.212-0.055-0.275,0.064-0.507c0.242-0.076,0.633-0.004,0.51-0.444 c1.088,0.102,1.584-0.458,2.486-0.76c0.604-0.203,1.237-0.39,1.976-0.444c2.044-0.148,4.119-0.158,5.545,0.507 c0.063,0.212,0.256,0.295,0.319,0.507c0.911,0.151,1.139,0.98,2.231,0.951c0.216,0.208,0.376,0.471,0.829,0.444 c-0.098,0.951,1.078,1.103,1.657,1.584c-0.029,0.346-0.005,0.639,0.255,0.697c-0.022,0.381-0.008,0.726,0.191,0.887 c0.335,0.058,0.261-0.29,0.51-0.317c-0.115,0.58,0.398,0.533,0.255,1.141c0.189,0.086,0.314,0.237,0.51,0.317 c0.169,0.749,0.564,1.581,0.319,2.535c-0.4,0.303-1.154,0.435-1.593,0.507c0.913,0.148,1.722,0.401,2.231,0.951 c-0.31,0.325,0.012,0.624,0.255,0.76c0.004,0.702-0.376,1.997,0.191,2.535c-0.271,0.542-0.187,1.058,0.255,1.331 C76.097,66.795,76.04,67.034,75.874,67.166z M116.859,68.306c-0.842-0.14-0.62,0.778-1.147,0.95 c0.362,0.79-0.457,0.806-0.573,1.457c-1.162-0.154-2.362-0.271-3.506-0.443c0.348,0.752,1.537,1.217,2.295,1.774 c-0.123,0.342-0.456,0.477-0.383,1.014c-0.703,0.611-1.263,1.364-1.53,2.408c-0.306,0.076-0.512,0.252-0.446,0.697 c-0.155,0.099-0.378,0.131-0.51,0.253c0.107,0.209,0.038,0.405,0,0.634c-0.671,0.182-0.733,0.808-1.084,1.394 c-0.325,0.544-1.023,0.974-0.956,1.711c-0.419,0.281-0.913,0.487-1.275,0.824c-0.046,0.38-0.046,0.668,0,1.077 c-0.651,0.11-0.224,0.91-0.956,0.951c0,0.211,0,0.423,0,0.634c-0.802,0.322-0.779,1.464-1.466,1.901c0,0.211,0,0.422,0,0.634 c-0.2,0.118-0.52,0.117-0.701,0.253c0.057,1.409-1.293,1.418-1.211,2.852c-0.438,0.135-0.773,0.372-1.275,0.444 c-0.667-3.774-1.546-7.671-2.104-11.343c-0.139-0.137-0.296-0.255-0.51-0.317c-0.1-0.928-0.236-1.435-0.191-2.471 c-0.091-0.205-0.269-0.323-0.51-0.38c-0.322-1.877-0.641-3.756-1.147-5.45c-0.979,2.385-1.548,6.122-1.657,8.745 c-0.16,0.179-0.301,0.376-0.51,0.507c0.156,0.119,0.136,0.414,0.255,0.57c-0.525,1.187-0.615,2.28-0.51,3.422 c-0.055,0.262-0.325,0.31-0.446,0.507c0.68,0.972-0.786,1.995-0.255,3.549c-0.747,0.926-2.014,1.335-3.315,1.711 c1.015,0.348,1.544,0.137,2.805-0.19c-0.234,2.79-0.814,5.667-1.147,8.301c-0.252,0.024-0.347,0.205-0.51,0.317 c-0.191,1.334,0.175,2.674-0.191,3.929c-0.039,0.132-0.092,0.334-0.319,0.38c0.094,0.307,0.09,0.713,0.255,0.951 c-0.534,2.682-0.893,5.676-1.211,8.238c-1.485-1.713-2.336-4.057-2.358-7.224c-0.064-0.253-0.382-0.254-0.51-0.444 c0.003-0.377,0.044-0.716,0.255-0.887c-0.614-0.374-0.738-1.407-0.956-2.408c-0.398-1.828-0.865-3.855-1.211-5.639 c-0.12-0.134-0.289-0.22-0.446-0.317c-0.209-1.102,0.2-1.924-0.127-3.042c-0.292-0.998-2.155-2.269-0.892-3.105 c0.722-0.478,1.997-0.471,2.422-1.204c-0.705-1.057-1.974-0.829-3.06-0.253c-1.195-3.229-2.217-6.816-2.422-10.836 c0.402-0.235,0.571-0.7,0.892-1.014c-0.443-0.294-1.251-0.672-1.785-0.317c-0.136-0.318-0.067-0.504-0.064-0.887 c-0.098-0.134-0.44-0.027-0.51-0.19c-0.188-0.233,0.203-0.314,0.255-0.507c-0.104-0.276-0.396-0.366-0.51-0.633 c0.379-0.918,0.095-1.725-0.446-2.345c-0.045-0.277,0.184-0.282,0.191-0.507c-1.143-1.009-1.158-3.366-0.701-5.006 c-0.062-0.252,0.356-0.026,0.319-0.254c0.117-0.56-0.254-0.635-0.51-0.824c0.276-0.212,0.645-0.33,0.956-0.507 c-0.057-1.409,0.453-2.254,0.701-3.358c0.286,0.031,0.285-0.224,0.51-0.254c-0.099-0.301,0.034-0.576-0.064-0.824 c0.157-0.118,0.277-0.274,0.51-0.317c0.105-0.952,0.305-1.81,0.956-2.218c0-0.338,0-0.676,0-1.014 c0.101-0.195,0.336-0.258,0.51-0.38c-0.102-0.17,0.021-0.427-0.064-0.57c0.139-0.137,0.271-0.279,0.51-0.317 c0-0.317,0-0.634,0-0.951c0.249,0.037,0.37-0.054,0.51-0.127c0.072-0.263,0.069-0.547-0.064-0.76 c0.785-0.29-0.13-1.332,0.956-1.457c0.104-0.103-0.057-0.265,0-0.507c0.171-0.083,0.339-0.17,0.51-0.254c0-0.486,0-0.972,0-1.458 c0.262,0.029,0.198-0.268,0.51-0.19c-0.095-0.41,0.007-1.54,0.702-1.711c-0.19-0.578,0.313-0.991,0.701-1.204 c-0.47-0.47,0.071-1.219,0.51-1.521c-0.049-0.556-0.022-1.036,0.446-1.077c0-0.232,0-0.465,0-0.697 c0.223-0.032,0.252-0.257,0.51-0.254c0-0.275,0-0.549,0-0.824c0.082-0.374,0.362-0.201,0.51-0.444 c0.359-0.586-0.163-1.747,0.701-1.838c-0.127-0.828,0.306-1.635,0.446-2.408c0.298,0.064,0.211-0.254,0.51-0.19 c-0.086-0.681,0.234-1.93,0.956-2.218c0.037-0.767,0.339-1.268,0.446-1.965c0.093-0.224,0.369-0.266,0.51-0.443 c-0.054-0.899,0.387-1.305,0.446-2.091c0.258,0.024,0.293-0.173,0.446-0.253c-0.021-0.972,0.057-1.845,0.765-2.091 c-0.243-0.87,0.272-1.493,0.701-1.901c-0.494-0.606,0.325-1.522,0.701-1.647c-0.152-0.765,0.127-1.301,0.637-1.711 c0.057-0.289-0.106-0.359-0.128-0.57c0.309-0.432,0.753-0.73,1.339-0.887c-0.091,0.565,0.01,1.868-0.574,2.154 c0.082,0.129,0.309,0.115,0.255,0.38c-0.189,0.129-0.405,0.231-0.574,0.38c-0.469,3.631-1.007,7.195-1.849,10.456 c-0.067,0.278,0.216,0.208,0.191,0.443c-0.419,1.869-1.402,3.857-1.657,6.02c-0.363,3.084-0.509,6.287-1.53,8.998 c-0.004,0.258,0.208,0.3,0.128,0.634c-0.179,0.35-0.331,0.727-0.765,0.824c0.615,1.988-0.404,3.905-1.912,4.689 c0.152,0.483,0.85,0.423,1.402,0.507c-0.192,1.119-0.38,2.242-0.446,3.485c-0.509,0.267-0.345,0.815-0.701,1.204 c0.007,0.237,0.192,0.416,0.191,0.697c-0.002,0.312-0.259,0.394-0.319,0.697c-0.023,0.114,0.075,0.441,0.064,0.634 c-0.072,1.168,0.122,3.089,0.51,4.182c0.011,0.265-0.198,0.311-0.255,0.507c0.163,0.091,0.285,0.224,0.446,0.317 c-0.094,0.541-0.419,0.851-0.637,1.268c0.213,0.358,0.798,0.348,0.956,0.76c-0.326,0.769-0.349,1.788-0.255,2.661 c1.157,0.518,0.248,3.091,1.275,3.739c0.651-0.216,0.525-1.139,0.637-1.774c0.118-0.667,0.278-1.379,0.383-2.091 c0.31-2.104,0.584-4.147,0.573-6.146c0.066-0.23,0.374-0.22,0.446-0.443c0.027-0.534-0.072-0.942-0.446-1.078 c0.408-1.159,0.862-2.612,1.084-4.056c0.136-0.888-0.052-1.779,0.574-2.154c-0.127-2.45,0.319-4.33,0.765-6.21 c0.92-0.385,0.068-2.562,0.446-3.485c0.458-1.117,0.902-2.157,0.956-3.422c-0.015-0.196-0.177-0.246-0.255-0.38 c0.585-0.516,0.666-1.73,0.51-2.788c0.84-0.495,0.603-2.062,1.02-2.978c0.496-0.018,0.521,0.704,0.319,1.014 c0.292,1.543,0.76,3.282,0.701,4.816c-0.003,0.082-0.133,0.231-0.127,0.317c0.045,0.763,0.435,1.665,0.637,2.471 c0.615,2.446,1.099,4.969,1.785,7.414c-0.101,0.321-0.381,0.466-0.51,0.76c0.669,1.171,1.065,2.425,0.956,4.245 c0.087,0.23,0.322,0.314,0.51,0.444c-0.006,0.705-0.016,1.027,0,1.711c0.086,0.21,0.444,0.15,0.446,0.444 c0.05,0.324-0.39,0.161-0.446,0.38c-0.055,0.625,0.23,0.912,0.446,1.267c-0.013,1.41-0.295,3.057,0.255,4.436 c0.442,1.11,1.184-0.203,1.466-0.824c0.279-0.615,0.414-1.119,0.446-1.647c0.095-0.264,0.434-0.287,0.446-0.634 c0.044-0.298-0.258-0.251-0.319-0.444c0.306-0.369,0.369-0.9,0.829-0.887c-0.137-0.938,0.101-1.505,0.701-1.711 c0.116-0.728-0.567-0.662-0.51-1.331c0.129-0.188,0.431-0.205,0.574-0.38c-0.015-1.376,0.461-2.52,0.191-3.612 c0.599-0.635-0.098-1.122-0.319-1.647c0.563-0.602-0.07-1.461,0.574-2.091c-0.21-0.509-0.414-1.025-0.51-1.647 c0.426-0.274,0.862-0.538,1.402-0.697c-0.312-0.239-0.775-0.327-1.147-0.507c-0.561-2.686-0.189-4.543-0.319-7.477 c-0.15-3.409-0.377-6.972-0.637-10.582c-0.154-2.135-0.486-4.31-0.574-6.464c-0.017-0.415,0.085-0.847,0.064-1.267 c-0.066-1.266-0.46-2.653,0-3.929c-0.412-0.309-0.433-1.005-0.701-1.457c0.34-0.435,0.248-1.237-0.064-1.647 c0.125-0.193,0.199-0.435,0.319-0.634c-0.152-0.346-0.642-0.438-0.255-0.824c-0.197-0.052-0.367-0.056-0.51,0 c-0.146-0.232,0.406-0.313,0.51-0.507c0.063-0.548-0.308-0.665-0.446-1.014c0.481-0.821,0.104-2.99,1.275-2.218 c0.392,0.259,0.472,1.095,0.51,1.774c0.01,0.182,0.133,0.468,0.127,0.507c-0.027,0.201-0.269,0.418-0.255,0.634 c0.021,0.334,0.402,0.583,0.446,0.887c0.17,0.215-0.278,0.24-0.255,0.507c0.016,0.385,0.38,0.424,0.574,0.633 c-0.09,0.628,0.041,1.222-0.064,1.774c0.188,0.088,0.217,0.334,0.51,0.317c-0.133,0.163-0.282,0.311-0.446,0.444 c0.05,0.289,0.344,0.333,0.446,0.57c0.035,2.089,0.496,4.315,0.956,6.337c0.116,0.117,0.309,0.157,0.382,0.317 c-0.277,0.521,0.342,1.107-0.128,1.584c0.05,0.289,0.344,0.334,0.446,0.57c-0.142,1.139,0.466,2.092,0.191,3.105 c0.014,0.324,0.415,0.263,0.574,0.443c0.495,2.888,1.085,5.681,1.402,8.745c0.177,0.098,0.278,0.273,0.51,0.317 c0.028,1.703,0.23,3.32,0.637,4.816c0.108,0.399,0.359,0.822,0.382,1.141c0.031,0.435-0.13,0.854,0.383,1.077 c0.266,1.468,0.597,2.87,0.701,4.499c0.04,0.214,0.354,0.155,0.383,0.38c0.065,0.362-0.265,0.591-0.128,0.823 c-0.009,0.284,0.369,0.182,0.51,0.317c-0.436,0.877,0.614,1.795-0.063,2.155c0.014,0.324,0.397,0.282,0.51,0.507 c-0.042,0.675,0.109,1.159,0.51,1.394c-0.429,1.365-0.237,2.656,0.446,3.865c-0.384,0.891,0.229,1.598,0.701,2.028 c-0.041,0.297-0.434,0.244-0.446,0.57c-0.023,0.361,0.32,0.358,0.51,0.507C116.793,66.279,117.046,67.189,116.859,68.306z M140.762,66.912c0.156,0.309,0.302,0.63,0.51,0.887c-0.057,0.197-0.213,0.295-0.255,0.507c0.047,0.185,0.154,0.311,0.255,0.444 c-0.355,0.698-0.026,1.917-0.956,2.281c0.161,0.22,0.494,0.269,0.701,0.444c0.021,0.401-0.188,0.573-0.51,0.633 c0.521,1.456,0.879,3.959,0.255,5.449c0.715,1.605-0.73,3.699,0.255,5.259c-0.111,0.312-0.355,0.492-0.255,1.014 c-0.424,0.022-0.793,0.099-1.275,0.063c-0.303-0.618-1.755-0.699-2.103-0.063c-1.661,0.032-2.007,0.085-3.506-0.063 c-0.136,0.076-0.347,0.077-0.382,0.253c-0.519-0.316-0.479-0.87-0.446-1.584c0.06-1.305-0.097-3.103,0.064-4.309 c-0.062-0.086-0.215-0.082-0.255-0.19c-0.028-0.281,0.173-0.335,0.255-0.507c-0.384-0.098-0.338-1.03,0-1.141 c-0.467-0.874-0.23-2.576-0.319-4.118c-0.046-0.809-0.091-1.905,0.319-2.662c-0.049-0.269-0.297-0.338-0.446-0.507 c0.537-1.017-0.482-2.286,0.191-3.295c-0.695-1.166,0.699-2.994-0.446-3.929c0.137-0.053,0.054-0.326,0.191-0.38 c-0.175-0.291-0.335-0.596-0.701-0.697c0.317-1.048-2.349-1.352-1.657,0c-0.3,0.039-0.429,0.25-0.701,0.317 c-0.042,0.447-0.05,0.612,0,1.014c-0.17,0.105-0.224,0.327-0.51,0.317c0,0.275,0,0.549,0,0.824 c0.251,0.089,0.452,0.227,0.574,0.444c-0.435,1.046,0.069,1.955-0.574,2.851c0.041,0.297,0.434,0.245,0.446,0.57 c-0.241,0.31-0.243,0.857-0.51,1.141c-0.511,0.189-1.066,0.334-1.53,0.57c0.586,0.639,2.558,0.17,1.594,1.711 c0.151,0.34,0.494,0.739,0.127,1.077c0.43,0.477-0.07,1.258-0.191,1.774c0.362,0.328,0.484,1.285,0,1.584 c0.044,0.251,0.041,0.551,0.255,0.634c-0.235,0.233-0.337,1.135,0.064,1.267c-0.596,1.792,0.143,2.888-0.574,4.626 c0.474,0.416,0.277,1.498,0.382,2.281c-0.803,0.384-1.232,1.391-2.294,0.824c-0.314-0.167-1.011-0.811-1.084-0.951 c-0.233-0.448,0.212-0.853-0.319-1.141c-0.335,0.803-0.305,1.799-1.083,1.901c-0.52,0.068-0.838-0.828-1.657-0.76 c-0.171,0.105-0.229,0.322-0.382,0.444c-0.305,0.008-0.572-0.022-0.701-0.19c-0.843,0.376-1.414-0.06-1.53-0.95 c-0.252-1.929,0.479-4.931,0.255-6.464c-0.038-0.263-0.139-0.578-0.128-0.697c0.031-0.326,0.392-0.589,0.446-0.887 c0.032-0.174-0.128-0.294-0.128-0.444c0-0.149,0.144-0.197,0.191-0.38c0.042-0.164-0.125-0.65,0-0.824 c-0.12-0.177-0.334-0.259-0.51-0.38c0.037-0.953-0.08-1.773-0.127-2.788c-0.107-2.291,0.033-4.95-0.128-6.844 c0.063-0.212,0.202-0.348,0.255-0.57c-0.213-2.312,0.779-4.352-0.51-5.83c0.171-0.083,0.339-0.17,0.51-0.254c0-0.19,0-0.38,0-0.57 c2.141,0.053,3.889,0.02,5.673,0.063c1.034,0.025,2.215,0.073,3.123,0c0.148,0.592,0.021,1.457,0.064,2.154 c0.133,0.1,0.335,0.132,0.574,0.127c0.996-0.467,1.357-1.565,2.741-1.647c0.098-0.157,0.184-0.324,0.319-0.444 c0.291-0.036,0.27,0.239,0.574,0.19c0.196-0.1,0.26-0.333,0.383-0.507c0.251,0.028,1.032,0.113,1.402-0.19 c0.328,0.033,0.352,0.369,0.574,0.507c0.289-0.025,0.711,0.01,0.892-0.507c0.654,0.258,1.522,0.304,2.167,0.571 c0.232,0.434,0.735,0.83,1.147,0.887c-0.076,0.435,0.196,0.523,0.446,0.634c0,0.148,0,0.296,0,0.443 c0.618,0.315,0.328,1.533,1.02,1.774c-0.148,0.383-0.474,1.047,0,1.331c-0.111,0.143-0.468,0.041-0.51,0.253 c0.024,0.336,0.287,0.433,0.51,0.57c-0.025,0.581,0.012,0.906-0.319,1.648c0.404,0.61,0.458,1.053,0,1.584 C141.204,65.895,141.335,66.636,140.762,66.912z M168.807,73.756c-3.177-0.006-9.22-0.077-14.086-0.38 c-0.201-0.013-0.464-0.129-0.701-0.063c-1.064,0.294-0.138,1.615-0.765,2.091c0.512,0.885,0.029,2.76,0.51,3.675 c-0.678,0.613,0.061,0.989,0.446,1.521c0,0.169,0,0.338,0,0.507c0.119,0.283,0.574,0.232,0.446,0.76 c0.416,0.03,0.647,0.244,0.828,0.507c0.909-0.155,2.102,0.209,2.869,0c0.418-0.114,0.447-0.619,0.828-0.444 c0-0.169,0-0.338,0-0.507c0.16-0.053,0.251-0.174,0.446-0.19c-0.187-0.777,0.686-0.5,0.51-1.267c1.977-0.654,4.974-0.699,7.011,0 c-0.008,0.499-0.284,0.731-0.255,1.267c-0.202,0.032-0.28,0.187-0.51,0.19c-0.022,1.541-1.634,1.501-1.912,2.788 c-0.201-0.031-0.225,0.114-0.446,0.063c-0.136,0.245-0.344,0.419-0.51,0.634c-0.814,0.035-1.009,0.687-1.721,0.824 c-0.054,0.178-0.206,0.26-0.191,0.507c-0.755,0.115-1.764-0.022-1.976,0.634c-1.509,0-3.017,0-4.526,0 c-0.066-0.146-0.219-0.205-0.191-0.444c-1.076-0.151-2.587,0.235-2.932-0.76c-0.503-0.091-0.951-0.237-1.402-0.38 c-0.205-0.599-0.862-0.749-0.956-1.458c-0.962-0.627-1.984-1.196-2.358-2.408c0.414-0.159,0.925-0.221,0.956-0.761 c0.369-0.077,0.73-0.162,0.956-0.38c-0.662-0.45-1.977-0.008-2.613,0.19c-0.738-2.594-1.647-5.247-1.721-8.301 c0.524-0.383,0.133-0.837,0.064-1.394c-0.08-0.638,0.235-1.252,0.191-1.774c0.875-0.024,1.509-0.14,2.295-0.19 c-0.19-0.488-1.292-0.616-1.848-0.951c0.077-0.663,0.362-1.119,0.255-1.964c0.192-0.042,0.223-0.244,0.51-0.19 c0.045-0.906,0.583-1.321,0.446-2.408c0.639,0.095,0.705-0.69,1.147-0.253c0.079-0.936,0.847-1.185,1.083-1.965 c0.25-0.069,0.468-0.169,0.829-0.126c0.146-0.109,0.023-0.484,0.064-0.697c0.327-0.097,0.668-0.181,0.765-0.507 c0.212,0,0.425,0,0.637,0c0.196-0.08,0.208-0.342,0.319-0.507c0.884-0.283,1.985-0.35,2.805-0.697 c0.141,0.051,0.083,0.298,0.255,0.317c0.481-0.24,0.742-0.698,1.593-0.57c1.378-0.741,2.778,0.419,4.207,0.253 c0.007,0.225,0.236,0.231,0.191,0.507c0.655,0.046,1.427-0.025,1.466,0.634c0.221-0.033,0.339-0.169,0.574-0.19 c1.313,0.448,1.742,1.775,3.06,2.218c0.015,0.471,0.349,0.625,0.446,1.014c-0.028,0.142-0.314,0.026-0.446,0.063 c0.196,0.439,0.607,0.664,1.147,0.76c1.025,1.951,2.176,4.563,1.657,7.287C169.26,71.39,169.231,72.889,168.807,73.756z M193.984,58.485c0.029,0.829,0.197,1.204-0.064,1.711c0.075,0.094,0.055,0.283,0.255,0.254c-0.71,1.171,0.351,2.678-0.446,4.309 c0.677,2.487-0.292,5.818,0,9.505c-0.829,0.401-1.84,0.621-2.996,0.697c0.752,0.52,2.172,0.375,2.805,1.014 c0.521,1.518,0.159,3.627,0.255,5.767c0.024,0.533,0.179,1.141,0,1.647c-0.318,0.902-1.847,1.743-2.677,0.697 c-0.149-0.268-0.057-0.393-0.064-0.76c-1.714,0.464-3.969,0.756-5.737,0.253c-0.091-0.534,0.294-0.594,0.255-1.077 c-0.89-0.96-1.77,0.103-2.805,0.507c-1.724,0.673-4.234,0.44-6.246-0.127c-0.03-0.224-0.286-0.223-0.255-0.507 c-1.4-0.063-2.176-1.524-1.912-2.471c-0.309-0.094-0.6-0.206-0.956-0.253c-2.333-4.789-2.946-12.698-0.765-18.123 c0.563-0.158,1.206-0.238,1.848-0.317c-0.599-0.36-1.7-0.602-1.593-1.331c0.076-0.526,1.013-0.581,1.211-1.141 c0.062-0.329-0.294-0.252-0.319-0.633c0.49-0.252,0.828-0.656,1.466-0.76c0.051-0.212,0.042-0.392,0-0.697 c0.442,0.039,0.671-0.136,0.956-0.253c-0.026-0.28,0.017-0.49,0.127-0.634c0.867-0.029,1.729-0.389,2.295-0.507 c0.053-0.179-0.09-0.164-0.064-0.317c0.303-0.058,0.627-0.095,0.892-0.19c0.237,0.081,0.298,0.337,0.446,0.507 c1.216-0.017,2.371,0.172,3.697,0.19c-0.051,0.896,0.722,0.972,1.275,1.267c0.245-0.031,0.146-0.404,0.446-0.38 c-0.339-0.106-0.3-0.589-0.51-0.824c0.992-0.906-0.629-2.468,0.382-3.168c-0.048-0.3-0.385-0.472-0.382-0.633 c0.136-0.309,0.402-0.268,0.574-0.57c0.185-0.327,0.002-0.894,0.446-1.014c-0.303-0.198-0.146-0.466-0.255-0.824 c-0.155-0.28-0.336-0.083-0.51-0.19c-0.612-2.331-0.218-5.168,0.064-7.477c-0.266-0.117-0.434-0.52-0.255-0.887 c1.405-0.232,3.563-0.069,5.354-0.127c1.328-0.043,2.729-0.008,3.888-0.063c0.149,1.38,0.022,2.254,0.064,3.422 c0.027,0.776,0.283,2.412-0.191,3.358c0.223,0.407,0.303,1.321,0,1.711c0.472,0.455-0.066,1.369,0,1.584 c-0.027,0.142-0.338,0.002-0.382,0.127c-0.194,0.335-0.761,0.299-0.829,0.76c0.232,0.205,0.267-0.324,0.574-0.254 c0.784,0.133,1.078,1.36,0.574,2.028c0.073,0.202,0.309,0.242,0.383,0.443c-0.131,0.546,0.001,1.353-0.319,1.711 C194.518,56.188,193.943,57.285,193.984,58.485z"/>
  <path d="M159.947,65.708c-0.331-0.199-0.364-0.694-0.765-0.824c0.203-0.709-0.506-1.059-0.956-1.331 c-0.267-0.012-0.197,0.311-0.51,0.254c-0.676-0.11-1.427-0.144-2.104-0.254c-1.082,0.53-1.352,1.866-1.657,3.168 c0.079,0.133,0.177,0.247,0.255,0.38c-0.621,0.353-0.552,1.163-0.51,1.901c1.881,0.519,4.589,0.564,6.438,0.253 c0.033-1.009-0.107-2.325-0.446-3.169C159.732,65.917,159.959,65.931,159.947,65.708z"/>
  <path d="M66.951,63.237c-0.136-1.133-0.817-2.277-0.892-3.485c0.029-0.182,0.226-0.198,0.191-0.444 c-0.598-0.905-0.698-2.306-2.358-2.154c-0.008-0.182,0.035-0.415-0.064-0.507c-1.115-0.26-1.237,1.007-2.104,1.204 c-0.054,0.348-0.099,0.704-0.51,0.697c-0.164,0.923-0.239,2.024-0.51,2.852c-0.061,0.185-0.191,0.243-0.191,0.443 c0,0.277,0.254,0.542,0.255,0.824c0.002,0.462-0.184,0.565-0.51,0.887c-0.017,0.419,0.182,0.622,0.255,0.951 c-0.877,1.159,0.548,2.997-0.446,3.802c0.033,0.305,0.275,0.403,0.446,0.57c-0.256,0.3,0.204,0.428,0.255,0.633 c-0.109,0.23-0.322,0.356-0.446,0.57c0.084,0.212,0.292,0.301,0.446,0.444c-0.206,0.865,0.004,2.343,0.701,2.725 c-0.096,0.2-0.345,0.249-0.319,0.57c0.394,1.214,1.766,1.455,3.442,1.394c0.179-0.096,0.139-0.41,0.319-0.507 c0.164,0.101,0.356-0.037,0.574,0.063c0.186-0.73,1.191-1.158,0.51-2.028c0.131-0.207,0.273-0.405,0.51-0.507 c-0.001-0.231-0.332-0.135-0.255-0.443c0.069-0.312,0.359-0.404,0.446-0.697c-0.492-0.83,0.351-2.127,0.191-3.232 C66.687,66.473,67.128,64.709,66.951,63.237z"/>
  <path d="M21.696,73.502c0.359-0.624-0.041-1.32,0-2.027c0.053-0.905,0.613-1.94,0-2.725 c0.299-0.28,0.478-0.993,0.319-1.521c-0.065-0.146-0.293-0.131-0.51-0.127c0.135-0.288,0.414-0.434,0.446-0.824 c-0.058-0.185-0.234-0.018-0.255-0.127c0.279-0.657,0.421-2.05,0-2.661c0.365-0.587,0.098-1.541-0.128-2.091 c0.098-0.241,0.362-0.316,0.383-0.634c-0.53-0.617-1.252-0.41-2.167-0.317c-0.058,0.892-1.062,0.845-0.956,1.901 c-0.662,0.272-0.818,1.046-0.956,1.838c0.074,0.208,0.301,0.389,0.319,0.634c0.006,0.076-0.24,1.172-0.319,1.33 c-0.101,0.204-0.388,0.225-0.446,0.507c-0.047,0.228,0.105,0.641,0.127,0.951c0.053,0.743-0.18,1.764-0.127,2.408 c0.015,0.193,0.161,0.383,0.191,0.57c0.086,0.531-0.025,1.125,0,1.647c0.093,1.979,0.562,3.768,1.147,5.133 c0.757,0.156,1.193,0.631,1.53,1.204c0.967,0.117,1.368-0.33,1.721-0.824c-0.082-0.215-0.247-1.005,0.127-1.204 c-0.154-0.206-0.342-0.378-0.446-0.634C22.064,75.42,22.065,73.99,21.696,73.502z"/>
  <path d="M185.061,60.385c-0.932-1.128-2.187-0.095-3.123,0.57c0.017,0.249-0.024,0.44-0.191,0.507 c-0.122,0.188-0.452-0.188-0.51,0.063c0.067,0.673,0.18,1.238-0.51,1.711c-0.198,2.426-0.324,4.751-0.574,7.097 c-0.378,0.215-0.938,0.25-1.466,0.317c0.249,0.491,0.914,0.569,1.402,0.824c0.117,1.935,1.097,3.606,0.956,5.386 c0.353,0.261,0.45,0.777,1.02,0.824c-0.045,1.489,2.255,1.517,3.06,0.76c0.041-2.277,0.25-4.767,0.574-7.16 C184.933,67.251,184.836,62.798,185.061,60.385z"/>
</svg>
