<!--
  SVG Music Logos
  Eminence - The Stalker v0.1.1
  https://github.com/tiagoporto/svg-music-logos
  Copyright (c) 2016-2018 Tiago Porto (http://tiagoporto.com)
-->
<svg xmlns="http://www.w3.org/2000/svg" viewBox="0 0 200 23">
  <polygon points="198 1.271 172.012 1.271 172.012 21.199 198 21.199 198 15.084 177.909 15.084 177.909 14.018 191.934 14.018 194.3 11.682 177.62 11.682 177.62 10.312 195.691 10.312 197.809 8.224 177.909 8.224 177.909 7.133 198 7.133"/>
  <polygon points="29.039 21.199 29.039 1.271 30.403 1.271 41.923 12.745 53.786 1.271 55.009 1.271 55.009 21.199 48.838 21.199 48.838 14.609 42.193 21.729 35.073 14.372 35.073 21.199"/>
  <rect x="56.077" y="1.271" width="6.289" height="19.928"/>
  <rect x="90.49" y="1.271" width="26.107" height="5.625"/>
  <rect x="90.49" y="8.224" width="26.107" height="2.088"/>
  <rect x="90.49" y="11.682" width="26.107" height="2.335"/>
  <rect x="90.49" y="15.489" width="26.107" height="5.71"/>
  <polygon points="150.419 15.489 150.419 6.896 170.781 6.896 170.781 1.271 144.842 1.271 144.842 21.199 170.781 21.199 170.781 15.489"/>
  <polygon points="83.156 1.271 83.156 13.519 70.934 1.271 63.098 1.271 63.098 21.199 69.387 21.199 69.387 8.453 82.069 21.199 89.446 21.199 89.446 1.271"/>
  <polygon points="123.88 1.271 123.88 13.519 136.102 1.271 143.939 1.271 143.939 21.199 137.65 21.199 137.65 8.453 124.968 21.199 117.591 21.199 117.591 1.271"/>
  <polygon points="27.988 1.271 2 1.271 2 21.199 27.988 21.199 27.988 15.084 7.898 15.084 7.898 14.018 21.922 14.018 24.288 11.682 7.608 11.682 7.608 10.312 25.679 10.312 27.797 8.224 7.898 8.224 7.898 7.133 27.988 7.133"/>
</svg>
