<svg xmlns="http://www.w3.org/2000/svg" viewBox="0 0 200 30">
  <polygon points="9.377 12.233 9.377 6.62 27.418 6.62 27.418 1.409 2 1.409 2 28.591 27.498 28.591 27.498 23.377 9.377 23.377 9.377 17.164 26.495 17.164 26.495 12.233 9.377 12.233"/>
  <polygon points="44.095 1.409 33.271 1.409 33.271 28.591 40.447 28.591 40.447 6.863 40.488 6.863 49.026 28.591 55.24 28.591 63.819 6.863 63.9 6.863 63.9 28.591 71.076 28.591 71.076 1.409 60.251 1.409 52.153 20.972 44.095 1.409"/>
  <polygon points="85.267 1.409 77.89 1.409 77.89 28.591 85.267 28.591 85.267 1.409"/>
  <polygon points="100.622 1.409 92.083 1.409 92.083 28.591 99.179 28.591 99.179 9.668 99.338 9.668 114.132 28.591 122.111 28.591 122.111 1.409 115.015 1.409 115.015 20.332 114.894 20.332 100.622 1.409"/>
  <polygon points="127.682 1.409 127.682 6.62 145.684 6.62 145.684 12.233 128.685 12.233 128.685 17.164 145.684 17.164 145.684 23.377 127.562 23.377 127.562 28.591 153.1 28.591 153.1 1.409 127.682 1.409"/>
  <polygon points="167.372 6.863 167.412 6.863 175.991 28.591 182.166 28.591 190.744 6.863 190.824 6.863 190.824 28.591 198 28.591 198 1.409 187.176 1.409 179.119 20.972 171.06 1.409 160.196 1.409 160.196 28.591 167.372 28.591 167.372 6.863"/>
</svg>
