<!--
  SVG Music Logos
  Enforcer - Evil Attacker v0.1.0
  https://github.com/tiagoporto/svg-music-logos
  Copyright (c) 2016-2018 Tiago Porto (http://tiagoporto.com)
-->
<svg xmlns="http://www.w3.org/2000/svg" viewBox="0 0 200 58" class="enforcer--evil-attacker">
  <path class="enforcer__outer" d="M177.212 24.904h9.237l5.653-21.198H53.6l-4.218 16.386-3.478-16.386H15.883L2 54.294l11.391-12.951h31.318l3.026 10.849 3.716-10.849h131.57l2.997 3.236H198z"/>
  <path class="enforcer__shadow" d="M173.648 23.677h11.624s4.303-15.884 4.639-17.049c.336-1.166.68-2.126-.741-2.126h-63.882l-6.852 25.717-6.73-7.059h8.056l4.995-18.658H54.052l-5.089 20.142-4.68-20.142H17.457S7.058 43.761 6.736 44.992c-.589 2.257.618 2.271 1.581.806.964-1.465 4.135-5.849 4.135-5.849s.017.578.555.578h33.084c.503 2.605.846 4.387.883 4.595.144.819.404 2.099.901 2.099.355 0 .717-1.256.967-2.008.68-2.04 1.533-4.931 1.533-4.931l1.726-.267.128.511h131.537l2.959 2.689h5.842c.906 0 .923-.37.04-1.223l-18.959-18.315zM32.437 31.041H16.253l1.995-7.767h16.308l-2.119 7.767zM19.643 18.076l2.177-7.926h16.314l-2.161 7.926h-16.33zm16.57 18.648l5.322-19.719 3.761 19.719h-9.083zM172.322 9.752h11.339l-2.057 8.324h-11.481l2.199-8.324zm-20.552 0h15.086l-1.961 7.692h-15.106l1.981-7.692zm-3.604 13.293h15.301l-2.038 7.996h-15.46l2.197-7.996zM129.951 9.957h15.662l-5.375 21.084H124.57l5.381-21.084zm-22.614-.205h10.565l-2.048 8.011h-10.431l1.914-8.011zm-21.658.284h10.683L90.078 31.04h-10.44l6.041-21.004zm-21.492-.284h16.128l-2.526 9.034s-.114-.71-.994-.71H61.987l2.2-8.324zm-7.649 27.015l.379-.17 3.447-12.919h15.153c.568 0 1.051-.404 1.051-.404l-3.713 13.461h21.154c.316 0 .605-.473.624-.505.016.201.101.505.484.505h4.994l3.404-12.795 13.648 12.628H165.106l2.892-10.805 12.083 11.261-123.543-.257z"/>
  <g class="enforcer__letters">
    <path d="M123.808 36.056h14.437l1.243-4.504h-15.576l5.642-22.107h15.954l1.195-4.432h-21.021l-6.817 25.59z"/>
    <path d="M31.6 36.056l8.465-31.043h3.812l5.066 21.8 5.508-21.8h4.709S49.102 42.544 48.488 44.934c-.383 1.491-.895 1.491-1.108.142-.142-.899-5.766-30.35-5.766-30.35l-5.687 21.33H31.6z"/>
    <path d="M14.984 37.193s-1.567 1.97-1.748 2.181c-.181.212-.31.64.254.64h31.806l-.434-2.822H14.984z"/>
    <path d="M94.266 35.486l8.644-30.473H82.163l-8.636 31.043h20.14c.427 0 .599-.57.599-.57zM85.288 9.525h11.76l-6.59 22.027H78.969l6.319-22.027z"/>
    <path d="M56.345 37.534l-3.855 2.481h130.148l-2.828-2.481z"/>
    <path d="M172.383 23.166h12.499s4.176-15.233 4.522-16.609c.206-.817.051-1.544-1.085-1.544h-19.727l-7.912 31.043h4.034l3.011-11.248 19.203 17.896h5.1c.289 0 .577-.004-.193-.748l-19.452-18.79zm-.455-13.926h12.243l-2.309 9.347h-12.404l2.47-9.347z"/>
    <path d="M139.488 36.056h20.43l1.265-4.504h-15.884l2.477-9.018h15.845l1.252-4.579H149.13l2.244-8.715H167.011l1.139-4.227h-20.749z"/>
    <path d="M56.555 36.056l3.415-12.89h15.262c.71 0 .784-.355.926-.849.248-.865.611-2.159.731-2.726.189-.891.331-1.004-1.004-1.004H61.322l2.47-9.347h16.155l1.14-4.227H60.116l-8.973 34.609 5.412-3.566z"/>
    <path d="M14.114 36.056h16.577l1.249-4.504H15.593l2.258-8.79h16.746l1.201-4.175H18.972l2.458-8.948h16.345l1.267-4.626H17.851S7.78 43.312 7.326 44.743c-.454 1.431.073 1.522.748.495l6.04-9.182z"/>
    <path d="M99.719 36.056l3.522-13.066 14.122 13.066h5.933l-12.783-13.407h8.857l4.721-17.636h-20.185l-8.63 30.479s-.224.564.181.564h4.262zm7.215-26.816H118.561l-2.309 9.034h-11.476l2.158-9.034z"/>
  </g>
</svg>
