<!--
  SVG Music Logos
  Eminence - Gessinger, Licks & Maltz v0.1.1
  https://github.com/tiagoporto/svg-music-logos
  Copyright (c) 2016-2018 Tiago Porto (http://tiagoporto.com)
-->
<svg xmlns="http://www.w3.org/2000/svg" viewBox="0 86 200 30">
  <polygon points="18.943 106.809 9.081 106.809 9.081 104.723 18.943 104.723 18.943 98.142 9.081 98.142 9.081 95.877 18.829 95.877 18.829 89.296 2.5 89.296 2.5 113.39 2.614 113.39 18.943 113.39"/>
  <polygon points="20.761 89.296 20.761 113.39 27.156 113.39 27.156 97.87 34.374 104.217 34.374 113.39 40.768 113.39 40.768 89.296 34.374 89.296 34.374 95.702 27.156 89.355 27.156 89.296 27.089 89.296"/>
  <path d="M55.09 88.61c4.852 0 9.052 2.79 11.085 6.852h-9.118c-.66-.255-1.38-.396-2.13-.396-3.264 0-5.91 2.646-5.91 5.91 0 3.263 2.646 5.908 5.91 5.908 2.084 0 3.916-1.08 4.968-2.71h-4.457V97.78H67.48v15.45h-6.395v-1.385c-1.777.984-3.82 1.546-5.995 1.546-6.843 0-12.39-5.546-12.39-12.39 0-6.842 5.547-12.39 12.39-12.39z"/>
  <polygon points="118.303 88.751 111.303 112.779 117.943 112.779 121.936 99.072 125.93 112.779 132.57 112.779 125.569 88.751"/>
  <polygon points="90.038 88.686 90.038 112.779 96.432 112.779 96.432 103.723 103.055 103.723 103.055 112.779 109.45 112.779 109.45 88.686 103.055 88.686 103.055 97.329 96.432 97.329 96.432 88.686"/>
  <polygon points="142.047 112.779 142.072 112.779 146.065 99.072 150.059 112.779 150.084 112.779 157.35 112.779 164.35 88.751 157.711 88.751 153.717 102.458 149.723 88.751 149.698 88.751 142.432 88.751 142.407 88.751 138.414 102.458 134.42 88.751 127.78 88.751 134.781 112.779"/>
  <polygon points="166.53 88.751 159.529 112.779 166.169 112.779 170.163 99.072 174.156 112.779 180.796 112.779 173.795 88.751"/>
  <polygon points="182.779 88.751 182.779 112.845 189.173 112.845 189.173 88.751"/>
  <polygon points="191.106 88.686 191.106 112.779 197.5 112.779 197.5 88.686"/>
  <path d="M74.657 88.815c-2.865 0-5.185 2.322-5.185 5.185s2.32 5.185 5.185 5.185c2.863 0 5.185-2.32 5.185-5.185 0-2.863-2.32-5.185-5.185-5.185zm0 7.73c-1.406 0-2.547-1.14-2.547-2.545s1.14-2.546 2.547-2.546c1.406 0 2.546 1.14 2.546 2.546s-1.14 2.546-2.546 2.546z"/>
  <path d="M85.148 91.885h2.826c-.396-3.848-5.697-3.957-7.136-.49-.11.447-.163.867-.15 1.254.016.443.058.675.265 1.067.242.46.66.83 1.296 1.09.776.336 1.594.27 2.12.27.398.003.643.35.643.762 0 .4-.323.72-.722.72-.264 0-.495-.142-.62-.354-.053-.004-.105-.008-.158-.014h-2.826c.396 3.848 5.697 3.957 7.136.49.14-.578.19-1.112.12-1.587-.046-.31-.014-.237-.16-.58-.226-.53-.664-.956-1.37-1.248-.778-.335-1.596-.268-2.123-.27-.398 0-.643-.35-.643-.76 0-.4.323-.723.722-.723.264 0 .495.143.62.355l.157.014z"/>
  <path d="M69.472 104.494l1.58 1.61c.263-.04 1.777-1.26 3.05-.26.102.08.23.174.32.265.35.323.58.86.58 1.467 0 .82-.417 1.512-.987 1.726V106.4h-2.518v6.242h1.358c.195.002.37-.006.492-.017 4.264-.415 6.335-6.414 1.96-9.033-2.078-1.242-4.64-.57-5.835.902z"/>
  <path d="M83.22 102.97v-.002c-2.626 0-4.754 2.15-4.754 4.8s2.128 4.8 4.754 4.8c2.626 0 4.754-2.15 4.754-4.8s-2.128-4.798-4.754-4.798zm0 7.155c-1.29 0-2.335-1.055-2.335-2.357s1.045-2.357 2.335-2.357 2.335 1.056 2.335 2.358-1.045 2.357-2.335 2.357z"/>
  <polygon points="69.472 100.238 87.974 100.238 87.974 102.008 69.472 102.008"/>
</svg>
