<!--
  SVG Music Logos
  Gamma Ray - Land of the Free v1.0.0
  https://github.com/tiagoporto/svg-music-logos
  Copyright (c) 2016-2018 Tiago Porto (http://tiagoporto.com)
-->
<svg xmlns="http://www.w3.org/2000/svg" viewBox="0 0 200 44">
  <path d="M147.383 21.68l1.92-1.92 11.943 2.63 2.417 3.128 6.398 2.062-15.426-19.834-.07-.07-11.376 13.08 4.195.924zm6.895-7.89l2.915 3.696-5.12-1.21 2.205-2.487z"/>
  <path d="M176.104 14.357l-6.114-1.706 8.246 10.522-5.26-1.564L164.87 11.3l-6.114-1.137 11.588 14.787 10.806 3.057 4.62 5.403c-16.11-4.69-33.56-8.91-46.35-10.948l4.336-4.976-1.706-1.564 2.915.57 6.114-8.248-29.86-4.408 10.095 15.143 4.976.78-7.677-11.516 15.143 2.275-1.137 1.634-11.305-1.564 7.464 7.25-2.418 4.124c-32.74-4.91-62.807-2.988-106.14 6.825l-4.763 5.686c50.852-11.415 83.163-11.25 108.272-7.962l-4.55 7.962 6.54-7.678c18.203 2.51 40.527 7.745 62.276 14.645l-21.894-27.086z"/>
  <path d="M30.934 27.865l7.18-1.777 2.915-3.412 11.374-2.844 1.422 2.133 4.408-.64 6.398-9.03 4.194 7.323 5.26-8.886 4.765 7.464 4.906-.426 5.047-8.105 4.62 7.678 5.76-7.89 4.408 7.677h5.688l1.564-2.204 10.38.64 1.563 2.7 5.687.214L116.6 2.556l-10.38 11.09L99.468 1.42l-5.83 8.388-4.62-7.678-7.75 12.512L73.803 3.41l-4.62 8.602-4.196-7.252-8.957 12.868-6.896-10.664-18.2 20.9zm85.24-19.337l1.99 2.915-4.41-.07 2.42-2.845zm-67.75 5.048l1.847 2.915-5.26 1.21 3.413-4.124z"/>
  <polygon points="25.318,22.818 21.266,28.15 24.252,27.438 20.911,31.491 14.228,33.908 27.238,18.339 37.475,15.424 40.389,14.571 43.944,9.95 37.475,11.656 25.034,14.998 2,42.581 23.185,35.187 35.2,20.4"/>
</svg>
