<!--
  SVG Music Logos
  Genesis - We Can't Dance v1.0.0
  https://github.com/tiagoporto/svg-music-logos
  Copyright (c) 2016-2018 Tiago Porto (http://tiagoporto.com)
-->
<svg xmlns="http://www.w3.org/2000/svg" viewBox="0 0 200 83.174">
  <path d="M8.749 26.332c1.195-1.269 3.035-1.673 4.715-1.732 1.235.286 2.703.362 3.625 1.333.346 1.289.298 2.667.796 3.921.49 1.341 1.893 2.235 2.012 3.729.031 1.333-.223 2.659-.334 3.985-.072.727-.792 1.038-1.308 1.417a88.85 88.85 0 0 0 .393 6.605c.211 3.468 1.135 6.869 1.113 10.359.312 2.721.227 5.459.437 8.182-.142 4.596-.431 9.484-2.952 13.481-1.57 2.546-4.516 4.185-7.519 4.069-2.701.111-5.007-1.728-6.516-3.808-.682-.89-.842-2.045-1.452-2.972-.699-.9-.067-2.073-.413-3.068-.748-1.912-.164-4.03.601-5.836-.085-1.479-.306-2.955-.217-4.436.673 1.503 1.15 3.088 1.873 4.574 1.309 2.92 2.312 6.24 4.948 8.278 1.05.754 2.547 1.617 3.795.808 1.329-.776 1.931-2.267 2.408-3.655.812-2.401 1.104-4.941 1.088-7.47.23-1.666.042-3.339.044-5.01.255-5.6-.962-11.125-1.054-16.71-.937.229-1.562 1.003-2.274 1.597-1.609 1.661-3.163 3.418-5.097 4.71-.988.202-2.245.498-3.035-.333-2.097-2.373-3.019-5.646-2.776-8.776.817-5.03 3.304-9.821 7.099-13.242zm-1.672 6.45c-.595 1.779-1.897 3.303-2.035 5.227-.226 2.012-.042 4.212 1.151 5.92 3.131-1.427 5.824-3.645 8.795-5.365.23-1.964.614-3.916.607-5.905.182-1.873-1.116-3.401-1.844-5.025-.864-.197-1.798.121-2.679.205-2.226.655-3.257 2.942-3.995 4.943z"/>
  <path d="M34.684 37.196c1.836-.059 3.613.475 5.418.722 1.255.37 2.399 1.052 3.468 1.794 2.997 2.137 5.463 4.998 7.199 8.237.93 1.641 1.38 3.534 1.376 5.415-.176 2.257-1.786 3.99-3.236 5.582-.779.966-1.927 1.506-3.003 2.068-2.002.848-3.846 2.102-6 2.553-3.82.949-7.968.525-11.534-1.124a49.448 49.448 0 0 0-2.654-1.743c-.276-.589-.415-1.232-.738-1.799.169-.094.509-.281.679-.372.022-.924-.004-1.839-.45-2.672.943.749 1.72 1.723 2.843 2.223 4.361 2.196 9.528 2.09 14.156.855 2.352-.675 4.806-1.479 6.545-3.29.484-.537 1.307-1.028 1.159-1.868-.185-1.558-.981-2.987-1.877-4.251-.481.882-.421 1.903-.594 2.859-.796 1.025-1.208 2.413-2.466 2.987-1.54-.547-2.899-1.538-4.535-1.819-2.33-.5-4.606-1.274-6.981-1.53-1.528-.483-3.155-.828-4.437-1.849-1.597-1.025-2.28-2.866-3.368-4.335.743-3.352 4.041-5.198 5.447-8.217 1.183-.229 2.393-.244 3.583-.426zm.392 4.057c-.61 1.395-1.651 2.649-1.755 4.222 2.254.848 4.61 1.417 6.953 1.972 2.283.234 4.537.826 6.839.808-2.085-2.324-4.61-4.318-7.502-5.533-1.403-.745-2.913-1.489-4.535-1.469z"/>
  <path d="M67.664 14.894c1.984 2.001 4.274 3.672 6.377 5.545.397-.613.859-1.242 1.673-1.208.365.554.663 1.208 1.291 1.508.737.274.62 1.138.693 1.769.752-.246 1.455.094 2.126.412.251-.214.503-.431.758-.646.409.692.466 1.494.541 2.275.877.217 1.72.688 2.648.392-.575 1.079-1.447 2.018-2.551 2.573-.126.744-.361 1.459-.859 2.043-.063 1.745.711 3.362 1.516 4.863 1.858 4.411 3.509 8.929 4.575 13.607 1.193 4.537 2.35 9.126 2.504 13.838-1.378 1.641-3.88 1.787-5.726.951-.758-.054-1.57-.022-2.233-.451-.588-.836-1.116-1.74-1.394-2.731-1.354-4.867-2.302-9.843-3.795-14.674-.981-3.653-1.743-7.366-2.934-10.957-.189-.769-1.261-.872-1.713-.288-1.337 1.382-2.186 3.147-2.932 4.9-1.927 4.241-2.446 8.939-2.77 13.54.053 3.894 0 7.795.383 11.677.359 5.065 1.941 9.994 1.85 15.093a6.576 6.576 0 0 0-1.463 1.893 85.056 85.056 0 0 1-1.009-.345l-.541.715c-1.755.187-3.406-.488-5.068-.907-.431-.717-.711-1.543-1.272-2.174-1.516-1.082-1.468-3.118-2.163-4.688.057-1.279-.707-2.401-.736-3.677.154-2.092-.519-4.153-.387-6.25.223-2.105-.299-4.214.072-6.312.095-2.59-.047-5.205.415-7.773.336-1.57.28-3.189.563-4.764.938-4.685 2.326-9.397 5.098-13.353.871-1.111 1.553-2.386 2.619-3.339 1.768-1.629 3.89-2.79 5.88-4.113-.201-1.161-.748-2.193-1.32-3.204.036-1.964-1.182-3.761-.716-5.74z"/>
  <path d="M100.003 13.258c1.485-.419 2.991-1.267 4.573-.838 1.572.352 3.415-.685 4.786.495 4.185 3.352 6.379 8.411 8.543 13.168.796 1.501 1.362 3.224 1.129 4.932-.393.966-1.06 1.836-1.931 2.42-1.786 1.134-3.753 1.925-5.644 2.854-2.82.518-5.872.039-8.358-1.407-1.323-.565-2.207-1.745-3.254-2.674-.711-.421-1.481-.734-2.164-1.203-1.5 6.189 2.138 13.015 7.971 15.443 2.233.907 4.705.495 7.001.091 3.672-.986 6.949-2.99 10.264-4.796 1.975-1.025 3.811-2.287 5.773-3.344 1.811-.969 3.349-2.339 4.915-3.65.198.589.808 1.269.248 1.844-.912 1.294-.76 2.933-1.056 4.409-.906 1.447-2.041 2.731-2.991 4.145a10.402 10.402 0 0 1-1.157 2.031c.189.187.377.375.569.56-1.365 1.479-2.896 2.797-4.474 4.032-1.825 1.129-3.68 2.201-5.497 3.342-3.114 1.407-6.478 2.134-9.818 2.768-3.035-.313-6.142-.291-9.069-1.247-.556-.298-.999-.781-1.591-1.023-2.691-1.309-4.494-3.83-5.909-6.381-1.581-3.182-2.965-6.593-2.886-10.213-.283-1.804.106-3.608.041-5.415.085-5.447 1.546-10.915 4.521-15.505 1.219-2.157 3.213-3.84 5.465-4.838zm5.466 4.172c-1.274.518-2.729.877-3.633 1.991-.997 1.215-1.714 2.627-2.443 4.015 2.632 1.378 5.224 3.421 8.365 3.16.516-2.415 1.513-5.02.381-7.423-.303-1.107-1.47-2.208-2.67-1.743z"/>
  <path d="M152.911 31.947c1.402 1.706.594 4.069.255 6.013-.626-.173-1.246-.439-1.9-.439-1.591.323-3.23.33-4.796.786-1.141.062-2.213.49-3.05 1.277 2.912 2.923 7.073 4.084 10.123 6.824 2.509 2.45 3.71 6.44 2.308 9.75-.881 1.969-2.988 2.812-4.84 3.608-1.905.914-4.065.88-6.097 1.309-1.031-.313-2.065-.249-3.097.005-4.912-.744-9.909-.821-14.798-1.73-.946 0-1.887-.111-2.802-.343 1.556-.281 3.141.005 4.707-.138 6.667-.811 13.595-.638 19.931-3.155 1.556-.848 3.321-1.989 3.607-3.892-.035-1.489-1.477-2.371-2.695-2.893-1.937-.744-3.736-1.809-5.726-2.405-1.965-.555-3.771-1.585-5.349-2.869-1.025-.892-.999-2.46-.503-3.623.406-1.158 1.419-1.92 2.274-2.741 3.236-2.255 7.311-2.307 10.936-3.534.896-.166 1.069-1.165 1.512-1.81z"/>
  <path d="M169.773 25.1c1.208-.895 2.557-1.841 4.119-1.853.683-.049 1.224.441 1.818.7.035.823.314 1.6.472 2.4-.863 1.972-3.777 1.397-4.535 3.406-1.003 3.066-1.301 6.312-1.479 9.521-.248 3.67-.518 7.339-.772 11.012-.3 3.458.537 6.896.288 10.359-.091 2.814-1.839 5.587-4.474 6.676-1.003.303-2.016.562-3.025.835-.276-.505-.965-.991-.644-1.631.701-1.777.522-3.699.632-5.568a110.985 110.985 0 0 1-.126-8.16 207.32 207.32 0 0 1 1.818-14.087c.604-1.743.664-3.623 1.339-5.343 1.037-2.971 2.028-6.204 4.569-8.267z"/>
  <path d="M169.351 3.907c.827-.668 1.242-1.688 2.004-2.42.499.587.544 1.336.503 2.068.827.545 1.915 1.055 2.82.36-.204 1.178 1.048 1.666 1.421 2.637.196.471.198.988.277 1.486-1.236.37-2.434.991-3.761.882-.136 1.267-.075 2.575-.446 3.808-.274 1.099-1.58 1.262-2.466 1.639-1.793.224-3.824.384-5.358-.754-.903-.663-.743-1.949-.447-2.891.292-1.543 1.56-2.602 2.45-3.82.827-1.161 1.937-2.063 3.003-2.995zm.098 4.851c-.374.87-.657 1.989.352 2.556a9.413 9.413 0 0 0 1.139-1.644 9.288 9.288 0 0 0-1.491-.912z"/>
  <path d="M181.495 34.626c2.774-1.777 6.158-2.115 9.365-2.354 2.314-.205 4.584.66 6.9.261-.306 1.176-.922 2.245-1.925 2.953-1.431-.342-2.881-.646-4.346-.776-2.396.143-4.843.599-6.946 1.806.17.404.33.858.739 1.089 2.217 1.434 4.673 2.432 6.94 3.773 2.189 1.264 4.572 2.546 5.848 4.831.897 1.557 1.403 3.697.299 5.277-.966 1.511-2.727 2.189-4.233 3.029-2.349 1.277-4.952 1.996-7.585 2.408-1.479.517-3.007.042-4.496-.111-1.447-.084-2.368-1.336-3.29-2.295-.566-1.543-1.534-2.97-1.644-4.653 1.333 1.235 2.519 2.778 4.317 3.369 3.799.081 7.633-.675 11.104-2.23 1.378-.683 2.938-1.605 3.246-3.246-3.252-2.543-6.762-4.862-10.695-6.22-1.887-.574-3.676-1.708-4.699-3.433-.757-1.194.014-2.781 1.101-3.478z"/>
</svg>
