<svg xmlns="http://www.w3.org/2000/svg" viewBox="0 0 200 140">
    <path d="M196.763 97.532c-.37-.248-2.46-2.282-3.184-3.042-.726-.76-.92-1.22-1.735-2.016s-3.396-3.166-4.298-3.803c-.902-.636-3.042-2.405-3.485-2.953-.442-.548-.707-.336-.902-.16-.195.178-.76.868-1.22 1.504s-1.026 1.027-2.423 1.31-1.698.177-1.77.177c-.07 0 0-1.928-.017-2.9s.09-3.06.09-4.406c0-1.343-.09-5.553-.125-6.685-.035-1.132-.247-5.13-.318-6.65-.07-1.522-.265-4.83-.283-5.997s-.39-3.43-.442-4.935c-.053-1.504-.283-2.99-.3-3.98-.02-.99-.142-3.396-.142-3.396s.973-.495 1.468-.83c.495-.337.902-.726 1.557-1.363.655-.637 2.158-2.936 2.883-4.493.725-1.556 1.61-4.916 2-6.703.388-1.787.706-4.245.67-4.953s-.44-1.857-.69-2.636c-.247-.778-.653-1.804-.795-2.105-.142-.3-.53-1.733-.796-2.724-.265-.992-1.114-1.24-1.486-1.47s-.583-1.06-.9-1.343-.32-.566-.48-.902c-.158-.336-2.228-1.68-3.147-2.46s-2.423-2.228-3.45-3.254-2.263-2.228-3.254-3.06c-.99-.83-2.76-2.564-4.07-3.466-1.308-.902-2.334-2.016-3.413-2.53s-1.627-.547-2.83-.707c-1.203-.16-.584.548-.194 1.008.39.46.442.85.707 1.344s1.08 1.962 1.52 3.094c.443 1.132 1.222 3.732 1.328 4.705s-.053 2.776-.124 3.466-.37 1.256-.6 1.928c-.23.672-.78 2.494-1.664 4.068-.884 1.574-2.44 2.883-2.972 3.255-.53.37-1.716.796-2.37 1.08-.654.282-2.795 1.166-4.104 1.414-1.31.25-3.856-.017-5.324-.37s-2.9-1.31-4.192-1.946c-1.29-.637-2.742-1.75-3.36-2.246-.62-.495-.762-.212-1.115-.018-.354.195-1.327 1.026-2.07 1.557s-2.016 1.344-3.025 2.123c-1.008.778-3.255 2.176-4.316 2.883s-4.422 2.9-5.713 3.68-3.256 2.104-4.21 2.67c-.956.566-2.813 1.698-3.45 2.105-.637.407-.85.195-1.008.142-.16-.053-.637-.3-1.097-.584-.46-.283-2.105-1.044-3.06-1.433s-1.98-.937-3.113-1.486c-1.132-.548-1.22-.937-2.264-1.52s-1.857-1.01-3.007-1.416c-1.15-.406-2.988-1.91-4.19-2.564-1.204-.655-3.875-2.406-4.44-2.67-.567-.266-1.434-.69-2.14-1.062-.708-.37-1.823-.99-2.778-1.504-.955-.513-.654.513-.478 1.38.01.055.3 2.264.37 2.972.072.708.178 1.486.107 1.61-.07.124-.742.478-1.078.654-.336.177-1.274.867-1.663 1.097-.39.23-.514-.336-.673-.478s-1.008-.46-1.31-.637c-.3-.177-.936-.708-1.38-.99-.44-.284-1.15-.974-1.52-1.22-.37-.25-.318-.567-.3-.885s.777-1.733 1.184-2.352c.408-.618.25-.9.072-1.025-.177-.124-.938-.513-1.61-.884-.672-.37-.69-.76-1.044-1.06-.354-.3-2-1.468-3.025-2.158-1.026-.69-3.68-2.706-4.51-3.272s-.762-.655-1.204-1.167c-.443-.513-1.31-1.185-2.14-1.893-.832-.707-2.583-1.716-3.556-2.423-.973-.708-3.75-3.06-5.094-4.104s-4.864-3.308-6.085-4.175-3.042-2.016-3.89-2.512c-.85-.495-.956.195-.992.654-.035.46.106 1.857.088 2.742s.196 1.044.284 1.256c.088.212.495.6.725.92.23.318.282.85.76 1.397s.265 1.203.336 1.804c.07.6-.07 1.945 0 2.652.07.708.018 4.617.07 5.766.054 1.15.125 2.07.16 2.83.035.76-.07 3.66.088 4.175.16.513-.14.743-.16 1.114s-.034 1.203.054 1.54c.088.335-.088 2.723-.088 3.27 0 .55-.37.514-.566.514s-.814.125-1.327.054c-.513-.07-2.087-.07-2.583-.088-.495-.018-.37-.336-.566-.6-.195-.266-.548-1.01-.637-1.398-.087-.39-.335-1.22-.3-1.663.035-.442-.407-1.893-.566-2.565s.07-2.76.248-3.768c.177-1.008.336-2.353.69-3.36s.39-1.204.3-1.398c-.087-.195-.3-.39-.866-.814-.566-.425-1.468-.955-2.123-1.397-.655-.442-2.547-1.98-3.467-2.724-.92-.744-1.893-1.593-2.724-2.16-.83-.565-2.246-1.414-2.972-1.75-.725-.336-1.914-1.4-2.29-1.58-.344-.164-.204-.136-.7-.19-.21-.022-.548.054-1.06.196-.514.14-1.858 1.114-2.637 1.787-.778.672-1.61 1.75-2.37 3.078s-1.504 3.043-1.77 3.91c-.264.867-.3 1.203-.424 1.963s-.23 2.335-.355 2.92c-.124.583.14 1.22.16 2.033.017.814 0 2.034-.072 2.76-.07.724.336 2.086.336 2.086s-1.717.937-2.813 1.54c-1.097.6-1.98 1.06-2.883 1.38-.902.317-1.114.707-1.698.866-.584.16-1.344.177-1.786.106-.442-.07-1.238.318-1.663.495-.425.176-.672.565-.83.848s.317 1.22.69 1.963 1.06 1.31 1.343 1.717c.283.407.248 1.344.354 2.936.106 1.592 0 4.12.018 5.466.018 1.343.195 2.652.124 4.226-.07 1.574.018 3.29-.035 3.98-.052.69-.44 1.132-.636 1.75-.195.62-.672 1.558-.85 2.017s.02.336.408.548c.39.213.548.39 1.132.62.584.23 1.362.83 1.68 1.08.318.247.39.618.62.866.23.248.67.407 1.025.743.353.335 2.405 2.475 3.52 3.413 1.113.937 3.307 2.936 3.89 3.414.584.478.37.69.283.99s-.46.903-.743 1.47c-.283.565-.39 1.166-.354 1.45.035.282.548.123.937.176s.867.743 1.486 1.22c.618.478 1.84 1.397 2.74 2.123.903.725 2.088 1.45 2.46 1.698.37.248.39.867.796 1.132.407.265 1.946 1.274 3.007 2 1.06.724 2.353 1.68 2.936 2.405s.954.62 1.255.372c.3-.247.566-.548.867-.796s.672-.354 1.38-.778 2.07-1.114 2.866-1.503c.796-.39.725.3.76 1.185s.514 2.972.885 5.218c.37 2.246.566 4.14.177 6.032s-.672 2.547-1.734 4.67-1.963 3.467-3.237 5.112c-1.275 1.645-2.637 2.92-3.238 3.555s-1.31 1.026-1.963 1.31-1.345 1.06-2.92 1.856c-1.574.796-2.176.83-4.015 1.008-1.84.178-2.565.054-2.565.054s-.584-.725-1.097-1.68-.955-1.274-1.274-1.84c-.32-.565-.072-.9-.408-1.45-.336-.548-.53-.654-.814-1.31-.283-.653-.106-1.36-.177-1.75-.07-.39-.37-1.946-.44-3.485-.072-1.54-.46-3.167-.373-4.848.088-1.68.106-3.13.124-4.086s-.37-1.31-.76-1.54c-.39-.23-.69-.583-.973-.883-.283-.3-.937-.6-1.31-.76s-1.113-.656-1.856-1.275c-.742-.62-1.59-1.663-2.352-2.317-.76-.653-.92-.388-1.238-.494-.318-.106-.708-.3-.955-.548-.248-.248-1.15-1.15-1.574-1.433-.424-.283-1.503-.973-1.98-1.663-.478-.69-1.167-.354-1.433 0-.265.354-.6 1.026-1.008 1.804-.408.778-.673 1.822-.992 2.9s-.42 1.824-.578 3.24c-.16 1.414-.07 2.935-.09 4.65-.017 1.717.302 3.097.585 4.105.283 1.01.584 2.69 1.08 4.21s1.503 3.716 2.334 5.29c.83 1.574 1.573 2.44 2.44 3.343.867.902 2.353 2.653 3.45 3.874 1.096 1.22 3.484 3.237 4.88 4.493 1.398 1.256 2.973 2.406 4.423 3.38 1.45.972 3.555 2.528 5.183 3.448 1.627.92 4.9 2.6 6.05 3.22 1.15.618 4.262 1.025 5.925 1.237s4.848.566 6.333.725c1.486.16 3.184-.442 4.05-.796.868-.354 2.035-.354 3.468-.814 1.434-.46 3.344-2 4.193-2.423.85-.425 2.264-.884 3.237-1.468.973-.585 4.192-3.946 5.554-5.414 1.362-1.468 1.663-2.6 2.565-4.475.9-1.874 1.025-2.175 1.892-4.386s1.044-3.148 1.468-4.793c.425-1.644.442-4.952.495-6.137.053-1.185.124-3.644-.053-5.89-.175-2.224-.73-5.365-.794-5.445.05.034.61.33.918.492.336.177 1.274.92 1.928 1.238.654.318 2.034 1.29 3.007 1.893.974.603 1.257.107 1.487-.088.23-.195.584-.442 1.15-.707.566-.265 1.45-.814 2.105-1.203.654-.39 1.29-.99 1.928-1.29.637-.302 2.246-.85 3.007-1.31.76-.46 1.185-.955 1.645-1.185.46-.23 1.468-.637 2.14-1.185.672-.548.955.124 1.397.602s1.644.902 2.44 1.433c.796.53 1.468.655 2.388 1.203.92.548 1.928 1.31 2.423 1.592.496.283 1.186.548 2.353 1.274 1.167.725 3.148 1.468 4.387 2.016 1.238.548 2.105 1.397 2.83 1.61.725.212 2.37 1.203 3.714 1.964 1.344.76 3.113 2.122 4.033 2.706.92.584 2.707 1.698 3.414 2.247.708.547.956.23 1.345-.284.39-.513.92-1.132 1.468-1.645.548-.512 2.034-1.803 2.618-2.316.585-.513.46-.37.797-.177.336.195 1.415 1.38 2.67 2.565 1.257 1.185 2.16 2.193 2.16 2.193s.123.867.07 1.52c-.053.655-.07 2.23 0 4.07.07 1.84-.018 4.244-.07 5.005-.054.76.23.62.53.743.3.124 1.344 1.008 1.734 1.397.39.39.78.814 1.91 1.75 1.133.938 2.83 2.424 3.574 3.15s2.37 2.052 2.67 2.352c.302.3.956 1.026 1.115 1.29s.848.868 1.326 1.38c.478.514.814-.07.902-.193s.495-.46.796-.62.62-.548.814-.867c.195-.318.495-.53.814-.867.318-.336.566-.6 1.044-.707s.973.034.973.034.017.53-.02.884c-.034.354-.176.884-.317 1.256-.142.37-.407.442-.637.725-.23.282-.884 1.38-1.327 1.874-.443.495-.39.53-.426.637-.035.107.407.638.513.797.106.16-.053.195-.106.37-.052.178.532.09.94.196.406.106.937.707 1.502 1.167.566.46 2.052 2.282 2.936 3.22s2.653 2.21 3.644 3.06c.99.848 1.786 1.502 2.688 2.07.902.565 1.256.636 1.362.706s.62.248 1.026.248 1.026-.248 1.238-.265c.212-.02 1.185.088 1.433.123.247.035 1.697-.23 2.033-.23.336 0 1.822.177 2.282.177s2.335-.265 2.812-.16 2.76 0 4.033-.264c1.274-.265 3.91-.247 4.705-.124s1.557.07 2.105.23 1.044.265 1.274.09c.23-.178.16-.726.16-.726s-.213-.283-.408-.336c-.195-.053-.584-.495-.725-.814-.14-.318-.67-1.008-1.06-1.54-.39-.53-.336-.6-.442-.937-.106-.337-.39-2.513-.53-3.84-.143-1.327-.248-2.3-.532-3.45-.283-1.15-.354-3.643-.37-4.44-.02-.795-.23-1.75-.426-1.945-.194-.195-.425-.07-.814.106-.39.178-.6-.158-1.15-.44-.548-.284-.495-1.045-.425-1.735.072-.69.815-1.327 1.858-1.468 1.044-.14 1.557.39 1.893.973s.072 1.29.196 1.645.814.018 1.203.053c.388.035.76-.16.954-.124s2.352.177 2.99.212 2.918.14 3.5.14 1.204.196 1.416.25c.212.052.655-.107 1.044-.072.39.035 1.06.425 1.468.478.407.053 1.132-.124 1.45.018.318.142 1.167 1.344 1.84 2.087.672.743.654-.195.672-.478.018-.284-.106-.903-.16-1.47-.052-.565.09-2.175.125-2.794.034-.62.088-4.864.034-5.96-.053-1.098.053-4.105.053-6.245s.09-4.474.142-5.518c.053-1.043-.336-.902-.707-1.15zm-138.18-6.686c-.25 2.247-.656 5.29-1.24 7.252s-1.025 2.583-1.59 3.396c-.567.814-.496.92-1.168 2.07-.672 1.15-2.724 3.768-3.555 4.723-.83.955-1.574 1.716-2.83 2.6-1.256.884-4.068 2.46-6.032 3.502-1.963 1.043-4.157 2.104-5.784 2.67-1.627.566-3.43.708-4.298.867-.867.16-1.875.106-4.12-.142s-6.21-1.326-8.438-2.512c-2.23-1.185-4.37-3.007-5.926-4.28-1.557-1.275-3.237-2.636-4.6-5.06-1.36-2.423-2.14-3.732-2.705-5.908-.566-2.176-1.415-5.112-1.557-6.385-.142-1.274-.442-3.626-.265-4.97.177-1.344.495-3.45.584-4.245s.14-.973.176-1.06c.035-.09.37-.355.318.547-.053.902-.124 2.246-.177 3.803-.053 1.557 0 2.07.16 3.025s.263 3.22.953 5.377c.69 2.158 1.486 3.927 2.76 5.766 1.273 1.84 3.784 4.687 6.066 6.315 2.282 1.627 5.536 3.874 8.49 4.21s5.06.336 6.74-.318 1.874-.885 3.52-2.017c1.644-1.132 2.758-1.875 4.333-3.502 1.573-1.626 3.448-3.73 4.704-5.924 1.256-2.193 1.963-3.82 2.46-5.236.494-1.415.866-2.954.724-4.864s-.478-3.856-.708-5.59c-.23-1.733-.707-4.792-1.31-6.844-.6-2.052-1.255-4.758-1.856-6.474-.6-1.716-1.097-2.76-1.38-3.626-.283-.867-1.362-2.512-1.627-2.883-.265-.372-.513-.532-.6-.744-.09-.212-.142-.248-.903 0-.76.248-3.148 1.54-4.51 2s-3.946 1.29-4.74 1.84c-.797.547-1.894 1.29-2.265 1.52-.372.23-.78.442-1.027.566-.248.124-.92.265-.16-.83.762-1.098.85-1.558.85-2.39 0-.83-.053-2.493.018-3.98s-.034-3.837 0-5.075c.036-1.238.16-2.512-.017-3.538-.177-1.027-.248-1.575-.655-1.77-.407-.195-.53-.16-1.433.265-.902.425-2.954 1.38-4.192 1.84-1.238.46-3.113 1.168-3.485 1.31-.37.14-.6.264-.85.317-.247.053-.706-.018-.92.3-.21.32-.972 1.204-1.414.585-.442-.62-.265-.92-.124-1.274.14-.354.3-.53.442-1.097.142-.566.195-1.097.177-2.565-.02-1.467-.178-4.474-.196-6.172-.018-1.698-.195-3.007-.212-4.617-.018-1.61-.23-3.572-.177-3.96.053-.39-.16-.78-.513-1.115-.354-.336-.937-.814-1.06-1.327-.125-.513-.142-.83.53-.955.672-.124 1.238.106 1.84.035.6-.07 1.29-.425 2.37-.955s3.095-1.52 4.086-2.087c.99-.566 1.54-.938 1.893-1.15.355-.212.762-.354.71-1.06-.054-.708-.355-1.61-.372-3.026-.018-1.415-.142-2.724-.018-4.51.124-1.787.124-2.813.814-4.53.69-1.715 1.08-3.254 2.476-4.722 1.397-1.468 1.592-1.698 1.592-1.698s.407-.283.248.16c-.16.44-.83 2.723-.76 5.535.07 2.812.282 4.033.76 5.52.478 1.485 1.52 3.59 2.476 5.076.955 1.487 2.176 2.867 3.396 3.928 1.22 1.06 2.936 2.193 4.493 2.883 1.557.69 2.3 1.186 4.705 1.398 2.406.212 4.404.16 5.253.07.85-.087 1.044-.158 1.185-.087.14.072.654.355-.018.567-.672.212-1.893.53-3.078.778-1.185.248-4.528.708-6.226.62-1.698-.09-4.864-.196-6.757-.62-1.894-.425-3.503-.85-4.67-1.574-1.168-.724-1.593-1.29-1.858-1.414-.265-.124-.778-.478-.778.548s.283 3.962.248 5.98c-.035 2.015-.14 4.085-.124 5.96.018 1.875.247 3.59.124 4.245-.124.653-.53 1.573.708 1.326 1.238-.248 3.184-1.274 4.847-1.804 1.663-.53 2.99-1.167 4.652-1.857s4.226-1.716 4.226-1.716.248.565-.248 1.06c-.495.495-1.044.83-1.167 1.52-.123.69-.512 4.936-.512 6.776 0 1.84.106 4.44.088 4.953-.018.512-.478 1.768.743 1.308s2.245-.743 2.935-1.167c.69-.424 2.476-1.237 3.785-1.732 1.31-.495 3.184-1.185 3.697-1.45.513-.265 1.15-.6 1.54-.106.388.495 1.998 3.166 2.6 4.882.6 1.716 2.157 5.82 2.74 8.35.585 2.528 1.24 4.616 1.47 6.632.23 2.016.618 4.705.636 6.81.018 2.1.106 4.684-.14 6.93zm19.12-56.956c-.46.92-.884 2.14-.973 3.325-.088 1.185-.212 4.104-.106 5.96s.46 4.53.442 6.14-.124 4.173-.106 5.624c.018 1.45-.088 4.457-.106 5.978s.23 4.033.177 5.077c-.052 1.044-.406 2.105-.37 2.423s-.018.495.124.99c.142.496.336 1.292.407 1.45.072.16.125.567.125.567s-4.37 2.44-5.253 3.042c-.884.602-3.66 2.193-4.404 2.636-.743.442-1.185.566-1.185.566l.85-1.947s-.178-2.388-.16-3.538c.018-1.15.106-3.697.018-5.006-.087-1.31-.21-2.937-.282-4.547s-.336-4.404-.3-5.483c.034-1.08.052-4.05 0-5.607-.054-1.557-.25-3.325-.16-4.475.088-1.15-.018-2.264 0-3.308s.035-2.14-.07-2.706c-.107-.566-.355-1.238-.355-1.238s-1.203.407-1.733.743c-.53.335-1.203.67-1.274.76-.07.09-.106.265-.16 1.344s-.247 3.538-.264 4.422c-.018.884 0 1.77.478 1.928.478.16.973.177 1.132.442s.46.248-.407.62c-.867.37-2.724 1.043-4.015 1.626-1.29.584-3.202 1.203-3.838 1.54-.637.335-2.317 1.096-3.202 1.45-.884.353-1.52.6-1.645-.426-.124-1.026-.018-1.362.283-1.875.3-.512.478-.636.548-1.45s.14-3.307.177-5.11-.16-6.634-.212-8.102c-.052-1.468-.247-6.633-.388-8.597s-.248-6.19-.318-7.73c-.07-1.538-.088-5.058-.106-6.437s-.106-2.653-.212-3.15c-.106-.494-.212-.9-.142-1.22.07-.317.16-1.007.07-1.38-.087-.37-.565-.972-.866-1.61s-.283-.99.035-1.237c.318-.248.69-.124 1.15.212.46.336 1.008.76 1.008.76.46.213 1.22.726 1.7 1.31.477.584.813.867 1.45 1.167s1.237.743 1.467 1.114c.23.37.212.547.902.848.69.3 1.308.566 1.785.99.478.426 1.114.992 1.557 1.292s1.31 1.167 2.034 1.663c.725.495 1.31.92.707 1.327-.6.407-1.008.743-1.026 1.663-.018.92-.16 2.706-.195 3.697-.035.99-.018 2.494.07 3.15.09.654.284 1.768.25 2.334-.036.566-.32 1.256-.302 2.193.018.937.035 3.785.09 4.988.052 1.203.14 2.494.14 2.99 0 .494-.16.99.778.618.938-.37 2.44-1.008 3.608-1.397 1.167-.39 2.565-1.06 3.91-1.627 1.343-.567 2.528-1.15 3.395-1.575.868-.425 2.106-.814 2.654-.902.548-.09 1.08-.213.62.707zm28.78 46.078c-.266.265-.426.354-.797.548-.37.195-.867.53-1.185 1.167s-.618 1.044-.565 1.45c.053.408.283.94.336 1.22.054.284.107 1.45-1.202.355-1.31-1.097-4.776-3.06-6.332-3.962-1.557-.902-5.73-2.813-7.27-3.626-1.54-.814-4.758-2.353-6.226-3.078-1.468-.725-2.636-1.256-3.042-1.786-.407-.53-.425-1.238-.124-1.61.3-.37.513-.937.708-1.362.195-.425.053-2.352-.018-3.59-.07-1.24-.018-1.91 0-2.39.018-.477-.177-2.67-.124-3.837.053-1.167-.07-2.99.035-4.12.106-1.133.194-2.177.124-3.77-.072-1.59-.46-3.43-.337-4.934.124-1.504.14-2.954.088-3.538s-.194-1.114-.69-1.698c-.494-.584-.937-1.08-1.025-1.344-.088-.265-.124-.602.106-.83.23-.23.62-.16 1.168-.46.548-.302 1.804-1.204 2.69-1.717.883-.513 1.59-.973 1.59-.973.602-.407 1.858-1.45 2.69-1.893.83-.442 1.84-.902 1.946-1.167.106-.265.248-1.167.248-1.397s-.09-.6-.124-.973c-.035-.37-.3-1.044.76-.867 1.062.177 2.354.76 3.185 1.45s1.592 1.327 1.928 1.804.09.513 1.292.884c1.203.37 2.44.973 3.272 1.468.83.495 1.274.92 2.53 1.592 1.256.672 2.23 1.29 3.378 1.875s2.706 1.396 4.086 2.068c1.38.672 2.123 1.008 2.247 1.203s.318.762.124 1.01c-.196.247-.797 1.078-.762 2.405.035 1.327.283 5.236.336 6.474.053 1.237.23 2.935.336 3.96.106 1.027.177 3.114.142 4.706-.035 1.592.124 6.35.035 7.854-.09 1.504-.018 4.192.018 4.546.035.354-.124.548.142 1.044.265.495.566.92.6 1.097.036.177.337.212-.353.478-.69.265-2.972 1.946-3.803 2.53-.832.583-1.893 1.468-2.158 1.733zm23.595 10.737c-.725.902-1.256 1.52-1.91 1.98-.654.46-.92.903-1.415-.158-.495-1.06-.973-2.034-.92-3.078.053-1.045.053-2.194-.425-2.973-.478-.778-1.062-1.84-2.9-2.282-1.84-.442-5.29-1.203-6.882-1.06s-3.202.76-3.59.866c-.39.107-1.062.603-1.434.885-.37.283-1.256 1.026-1.556 1.327-.3.3-1.15 1.008-1.15 1.008s.018-.85.778-1.84c.76-.99 2.53-2.883 3.785-3.856 1.255-.973 2.458-1.716 2.97-2.087.514-.37 1.328-.884 2.813-1.344 1.486-.46 2.954-.778 4.564-.69s2.777.425 3.927 1.044c1.15.62 2.53 1.344 3.414 2.193.884.85 1.52 1.84 1.98 2.44s1.01 1.098 1.275 1.115c.265.018.566-.23.513-.814-.053-.583.017-2.3-.07-3.218s-.072-2.494-.072-3.856c0-1.362-.195-3.396-.212-4.935-.018-1.538-.212-5.447-.195-6.65.018-1.203-.124-2.636-.283-3.52-.16-.884-.39-1.627-.53-1.786-.143-.16-.284-.195-.69.106-.408.3-1.08.548-1.24.654-.158.106-.423.336-.83.672s-1.185.867-1.54 1.15c-.353.283-.583.76-.795 1.08-.213.317-.903.724-2.124.247-1.22-.478-2.742-1.185-3.98-1.592s-2.795-.92-3.768-1.113c-.973-.195-1.822-.407-2.282-.955-.46-.548-.566-.654-.212-1.468s.53-1.45.796-1.786c.265-.336.336-.354.195-1.52-.142-1.168-.336-2.637-.354-3.698-.017-1.06-.14-3.467-.088-4.28.053-.815.09-1.47-.07-1.858-.16-.39-.673-.867-.903-1.45-.23-.584-.39-.778.3-1.592.69-.814.814-.83 1.397-1.203.584-.37 1.61-.85 1.61-.85.814-.353 1.804-.724 2.92-1.414 1.113-.69 1.803-1.38 3.112-2.016 1.308-.637 2.28-1.185 3.254-1.893.973-.708 1.804-1.132 2.67-1.786.868-.654 2.654-1.963 3.68-2.636 1.026-.672 1.91-1.433 1.91-1.433s.424-.32.513.087c.09.407.247 1.29.37 2.176.125.884.337 2.193.726 2.653s1.592 1.77 2.6 2.512c1.008.743 2.795 2 3.856 2.547 1.06.548 2.245.902 2.245.902s-1.31.743-3.184.92c-1.874.177-5.235-.018-6.897-.177s-3.308-.407-4.298-1.132-2.282-1.592-3.202-2.246c-.92-.654-1.734-1.132-1.734-1.132s-.85 1.114-1.01 1.98c-.158.868.036 2.14.16 3.344.124 1.203.106 4.157.212 6.492s.16 4.033-.018 5.377c-.177 1.344-.265 3.15-.07 4.28.193 1.133.653 2 1.078 2.39.425.388.69.92 1.91.087 1.22-.83 2.282-1.45 3.29-2.176 1.008-.725 1.415-1.114 3.113-2.282 1.698-1.167 3.82-2.742 5.13-3.573 1.308-.832 2.28-1.628 2.953-1.947s1.203-.3.76.548c-.44.85-.883 1.45-.9 2.07s-.107 2.637-.09 4.034c.02 1.397-.088 2.176-.017 3.184.072 1.008.302 5.27.355 6.42.053 1.15 0 2.354.018 3.256.018.902.39 2.476.37 4.015-.017 1.538-.105 2.298-.052 2.723.054.425.32 1.15.956 1.468s1.397.585.707 1.01c-.69.424-2.476 1.502-3.66 2.44-1.186.938-3.273 2.23-4.67 3.485-1.4 1.256-3.096 2.777-4.193 3.644-1.092.864-2.047 1.643-2.772 2.545zm-3.318-18.297c.012-.47.06-.8.06-.8.034-.013.764-.083 1.318.046.553.13.753.27 1.366.306.612.035 1.366.14 1.754.153.388.012 1.048.094 1.048.094s-.07 1.86-.024 2.59c.047.73.06 1.8.094 2.072.035.27.06.858.047 1.118-.012.26.07.895.094 1.118.024.224.024.895.047 1.036.023.14.083.636-.07.753-.154.118-.248-.06-.625-.483s-1.343-1.52-1.814-1.837c-.47-.318-1.448-1.013-1.778-1.236-.33-.225-1.248-.59-1.27-.743-.025-.153-.095-.8-.072-1.048.023-.248-.236-.755-.2-1.037.036-.28.012-1.634.024-2.105zm56.613 31.085c.07 1.15-.053 1.715-.053 2.21 0 .496-.036 1.116-.39 1.24-.353.123-.23-.408-.583-.992-.354-.583-.566-.9-2.423-.92-1.857-.017-4.12-.193-4.81-.105-.69.088-2.035-.035-2.796-.053-.76-.018-1.75-.088-1.946-.053-.195.034-.637.176-.85.158-.21-.018-.477.124-.618-.53-.142-.656-.194-1.91-2.034-2.39-1.84-.477-2.707-.547-3.52.266-.814.814-1.326 1.68-1.468 2.547-.142.868-.018 1.575.194 2.23.212.654.814 1.132 1.397 1.344.584.212 1.203.177 1.31.23.105.053.14.177.14.796 0 .62.142 2.388.39 3.91.248 1.52.672 4.987.884 6.33.212 1.345.16 2.07.212 2.265.052.194-.02.495.44.62s.868.583.956.92c.09.335.212.583-.83.706-1.044.125-4.812.143-6.192.143s-2.795-.07-3.82-.018c-1.027.053-3.026.247-3.98.318-.956.07-1.416.07-1.84.23s-1.027.194-1.22-.195c-.195-.39-.054-.53.247-.814.302-.283 1.027-.938 1.045-1.203.018-.264.018-1.078.053-1.68.035-.6.407-5.978.46-7.304.053-1.327.14-2.76.23-3.343.09-.584-.177-1.043.442-1.38.62-.336 1.362-.743 1.68-1.68.318-.938.672-2.176.32-2.92-.355-.742-.885-1.45-1.91-1.803-1.027-.354-1.328-.778-2.088-.743-.76.035-1.627.336-2.246.85-.62.512-1.097 1.06-1.256 1.326s-.283 1.29-.283 1.29-2.777.62-4.175.673-2.67.053-3.45.23c-.777.177-2.086.23-2.546.283-.46.052-.672 0-1.008.46-.336.46-.76 1.202-1.132 1.626-.37.425-1.29.796-1.203-.283.09-1.08-.177-4.44-.16-5.766.02-1.327.23-4.422.25-5.73.017-1.31.088-4.016.052-4.883-.035-.867-.106-1.75.283-2.07s.796-.053 1.132.407c.336.46 1.256 1.098 2.335 1.22s1.963.355 3.467.585c1.503.23 3.467.477 4.21.39.743-.09 1.875-.125 1.875-.125s.583 1.097 1.627 1.787 1.627 1.31 2.706 1.026c1.08-.283 1.716-.548 2.317-1.415.6-.867 1.168-2.6.83-3.29s-.44-1.238-1.007-1.645c-.566-.407-1.433-.6-1.433-.6s-.195-3.096-.354-4.67c-.16-1.575-.16-4.883-.16-6.528s0-3.025.036-4.83c.034-1.803-.107-5.854-.125-7.888-.018-2.034-.16-3.467-.14-5.36.017-1.893.176-3.82.158-5.006s-.3-3.678-.39-4.952c-.087-1.274-.14-3.22-.194-4.563-.054-1.344.052-1.504-.054-2.264-.106-.76-.124-1.644-.23-2.352-.106-.707-.194-2.14-.194-2.14s-2.088-.035-4.14-1.29c-2.05-1.257-3.908-2.442-4.704-3.362-.796-.92-1.52-1.52-1.592-1.91-.07-.39-.655-1.06-.655-1.68 0-.62-.052-1.043.107-1.132s.23.124 1.486.867 2.494 1.646 3.998 2.035c1.504.39 3.31.477 4.317.513 1.008.035 1.31 0 1.31 0 1.326-.16 3.466-.708 4.722-1.167s2.05-.795 3.112-1.485c1.06-.69 1.716-1.256 2.6-2.317s1.875-2.76 2.476-4.12 1.097-3.132 1.29-4.476c.196-1.344.302-3.485-.07-5.06s-.62-2.758-1.167-3.643C162.484 8.504 161.53 7 161.53 7s.796.142 1.433.655 1.557 1.716 2.053 2.353c.495.637 1.486 1.875 2.07 2.812.584.937 1.026 2.476 1.362 3.82.336 1.345.69 5.626.407 6.9-.283 1.273-1.238 4.67-2.44 6.632s-1.858 2.99-2.654 3.697-1.574 1.308-1.875 1.82c-.3.514-.336 1.717-.39 2.265-.052.548-.247 1.592-.194 2.547s.442 3.662.477 5.04c.035 1.38.16 4.175.283 5.573s.283 4.104.248 5.483-.248 4.21-.177 5.802c.072 1.592.142 3.573.107 5.023-.035 1.45-.106 3.556.07 4.688.178 1.133.196 3.963.302 5.113.105 1.15 0 1.98.017 3.025.018 1.043.195 3.22.39 4.404.193 1.185.353 3.36.353 3.36s-.76-.247-1.415.585c-.655.83-1.132 1.362-1.167 2.46-.035 1.096.177 2.122.725 2.652.548.53 1.857 1.096 2.76 1.113.9.018 1.573-.212 2.015-.83.442-.62.654-1.168.796-1.22.142-.054.46-.23.3-.426-.158-.194-.335-.725-.07-.92.265-.195.37-.14 1.344-.283.973-.142 1.75-.142 3.007-.23 1.256-.088 1.822-.194 2.954-.477 1.13-.283 2.104-.336 3.36-.407 1.256-.07 2.335-.106 2.92-.283.583-.177.972-.283 1.043-.743.07-.46.247-.69.513-.743.265-.052.336.178.442.69.106.514.212 2.336.212 3.928s.035 3.944.195 4.652c.16.707.09 1.238.018 2.123s-.02 2.69.05 3.84z"/>
    <path d="M102.91 77.775c.105-.53.07-1.645-.036-2.105-.106-.46-.106-1.486-.177-2.388-.07-.902-.142-5.483-.177-7.73-.035-2.246-.177-5.96-.194-7.977-.018-2.016-.09-5.73-.16-7.553-.07-1.822-.317-3.113-.335-3.184-.017-.07-.017-.106-.087-.778-.07-.672-.16-3.573-.283-5.236-.124-1.663-.354-2.176-.478-2.335s-.938-.99-2.087-1.717c-1.15-.725-2.353-1.698-3.29-2.23 0 0-.743-.477-1.503-.972-.76-.494-1.327-.654-1.698-.813-.37-.16-1.238.07-1.698.37-.46.302-.708.974-.85 2.017-.14 1.044-.23 2.052 0 3.75s.036 2.353 0 3.378c-.034 1.026.09 2.246.054 3.237-.035.99.053 3.236-.07 4.563-.125 1.327.105 4.12.176 5.253.07 1.132.035 3.29.14 4.316.107 1.026.054 4.28.107 5.926.053 1.645.14 3.945.14 4.847 0 .902.125 1.928 0 2.494-.123.565-.07 1.166-.07 1.768 0 .6.37 1.274.637 1.61.265.336.85.566 1.733 1.132.884.566 2.795 1.645 3.538 2.193.744.548 3.096 1.574 4.193 2.21 1.097.638 1.06.46 1.362.213.3-.248.92-.92 1.185-1.486.265-.565-.177-2.245-.07-2.775z"/>
</svg>
