<!--
  SVG Music Logos
  Grave Digger - Heavy Metal Breakdown v0.1.1
  https://github.com/tiagoporto/svg-music-logos
  Copyright (c) 2016-2018 Tiago Porto (http://tiagoporto.com)
-->
<svg xmlns="http://www.w3.org/2000/svg" viewBox="0 0 200 34">
  <path d="M61.67 21.076c-.066-.01-.132-.023-.198-.03-.235.107-.09.12.2.03z"/>
  <path d="M38.784 11.224l2.178 4.43 3.63-3.63-3.105-4.506-3.906 3.906c-.774-3.175-2.803-3.945-2.803-3.945l-4.957 4.194.45.5s.46-.456.602-.6c.266-.265 1.953-.88 1.953.9v7.462c-.11 1.066-2.403 1.402-2.403 1.402s2.58.42 5.958 3.798c.078.078 6.31-5 6.31-5l-.35-.35s-1.246 1.002-1.403 1.002c-.378.19-1.06.557-1.7.702-.797.18-1.53.074-1.53-2.055V12.3l1.077-1.076z"/>
  <path d="M57.89 20.02v-7.316c0-1.472 1.98-1.334 1.98-1.334l-.046-.414c-3.718-.682-6.075-3.476-6.075-3.476s-2.562 1.928-6.168 3.338c-.35.11-1.887 1.105-1.887 2.715v7.225s.046 2.117.967 2.67l1.71 1.71 4.825-3.644s.34 2.215 2.853 3.643c1.69-1.69 4.418-3.78 4.418-3.78l-.322-.323S57.89 23.06 57.89 20.02zm-4.64.697l-1.558 1.063s-1.418.887-1.418-.673c0-.502.07-10.668.07-10.845.436.714 2.907 1.95 2.907 1.95v8.505z"/>
  <path d="M75.51 11.223c0-2.275-2.44-3.744-2.44-3.744l-5.162 3.243S68.283 7.48 65.3 7.48c-3.76-.78-.175-2.652 1.776-2.03v-.61s-4.87-.263-5.77 2.64c-.903 2.9 1.97 4.297 1.97 4.297v7.464c0 1.096-1.06 1.66-1.606 1.835 2.68.464 6.127 4.06 6.127 4.06s1.782-2.257 4.273-2.592c3.547-.335 3.44-4.106 3.44-4.106v-7.214zm-4.703 10.45c-1.39-1.39-3.032-2.19-3.032-2.19v-8.126l1.726-1.01s1.517-.506 1.517 2.062c0 2.568-.21 8.926-.21 9.263z"/>
  <path d="M90.71 19.91s-1.71 2.124-5.053.96c-1.31-.542-2.232-3.16-2.232-3.16l7.378-4.403-3.41-5.828-5.642 2.417s-2.9 1.167-3.1 5.208c-.517 5.147 1.8 7.378 1.8 7.378s1.148 1.762 4.215 2.654c.323 0 6.51-4.762 6.51-4.762l-.465-.465zM83.255 9.747l3.2 5.196-3.275 1.996.075-7.193z"/>
  <path d="M23.668 10.077s3.95-1.913 3.01-4.545c-.797-1.212-1.298-1.224-2.37-1.6-.84-.49.014-.994.328-1.11.63-.233 1.977-.49 1.977-.49v-.77s-.764-.04-4.16 1.344c-1.258.512-1.91 1.18-2.23 1.817-.892 1.657.577 2.71 1.054 3.415.58 1.344-.336 1.934-.882 2.31l-1.778 1.224c-.344-.53-.608-.85-.608-.85L16.176 7.48s-1.418-2.236.125-3.318l.47-.33c1.05.962 1.583 2.02 1.583 2.02l.64-.385s-.523-1.032-1.585-2.083l1.68-1.178-.208-.375L17.1 3.09c-1.1-.99-2.682-1.912-4.764-1.912-4.49 0-8.258 4.994-8.258 4.994S.246 12.152 2.99 18.015c2.744 5.862 9.22 6.722 9.22 6.722s7.065.78 11.266-1.344c4.2-2.125 4.993-6.786 4.993-6.786s.277-3.37-1.41-5.057c-1.685-1.687-3.392-1.473-3.392-1.473zm-1.6 9.86c0 1.44-1.153 2.752-1.153 2.752s-3.837 3.064-8.9.96c-3.26-2.105-3.328-6.53-3.328-6.53l.32-10.052c-.01.278-.55-4.248 3.393-4.737 1.718-.212 3.07.43 4.047 1.22l-2.81 1.986s-4.204 2.913-1.582 7.866l1.624 2.524c.742 1.155 2.434 2.91 1.46 4.238-.21.424-.676.647-1.628.272-2.54-1.582-2.58-4.536-2.58-4.536h-.5s-.25 1.04 1.125 3.413c1.373 2.372 3.538 2.04 3.538 2.04s3.08-.084 4.66-3.29c1.01-2.042.022-4.42-.826-5.88.32-.202.71-.442 1.153-.696 1.246-.716 1.985.777 1.985 2.73v5.72z"/>
  <path d="M121.964 4.833S117.13.846 110.622 1.856c-6.507 1.01-8.293 5.954-8.293 5.954s-1.45 4.5 1.133 6.31c2.583 1.808 5.245.566 5.245.566l-.22-.607s-2.713.965-4.317-.316c-2.457-2.458-.566-4.253-.566-4.253s1.547-2.03 5.742-2.03c1.106 0 2.087 0 3.008.037-.758.92-1.83 2.313-2.368 3.42-.164.376-1.783 3.23 2.254 4.604 1.1.577 2.182.697 3.117 1.632.59.59-.1 1.545-.69 2.168l-.077-.037c-.992-.48-6.23-2.738-9.684.3-1.728 1.705-1.88 4.003-1.975 3.908l.46.462s-.19-4.092 4.82-1.418c9.057 6.704 15.17-.85 15.17-.85s2.183-2.046 2.693-7.657c.513-6.264-4.11-9.214-4.11-9.214zm2.823 13.54c-.29.754-.733 1.525-1.404 2.196-2.296 2.296-6.45 0-6.45 0s-.657-.413-1.704-.95c.725-.678 1.82-1.902 2.912-3.887 1.87-3.405-2.494-5.084-2.494-5.084s-3.55-.79-3.55-1.967c0-.435.205-.83.462-1.156 2.48.115 4.534.518 7.386 1.95.822.41 1.532.88 2.143 1.368 2.683 1.53 3.398 5.707 2.697 7.53z"/>
  <path d="M134.252 20.644V12.44l1.927-1.322s-3.635-2.258-4.24-3.64c0 .832-4.625 4.08-4.625 4.08s2.147-.792 2.147.33v10.186c0 1.376 2.478 3.413 2.478 3.413l4.955-4.02-.358-.357c0 .002-2.285 1.626-2.285-.466z"/>
  <path d="M131.843 7.062s1.866-1.395 2.287-2.193c.216-.41.323-.972.346-1.306.1-1.456-.868-1.973-1.478-1.973-2.44 0-3.364.8-3.364 2.04 0 2.243 2.21 3.432 2.21 3.432z"/>
  <path d="M146.11 7.48c-1.953 1.954-4.845 3.347-4.845 3.347s-2.914.957-2.914 2.915v8.814c0 1.225 2.858 3.046 2.97 2.968 1.265-1.525 2.914-2.544 4.722-4.02 0 .79.065 2.645 1.054 3.634.14.14 1.93 2.16 1.475 4.23-.097.695-.375 1.22-.753 1.627-1.155 1.155-4.1 1.12-4.713.92-.454-.147-.786-.33-1.03-.52 1.12-.295 1.934-1.177 1.934-2.22 0-1.283-1.233-2.324-2.755-2.324-1.522 0-2.755 1.042-2.755 2.326.34 4.49 7.14 3.95 9.528 2.704.787-.347 1.72-.856 2.793-1.598 3.862-2.67 0-7.374 0-7.374v-9.973c0-1.325 1.825-1.194 1.825-1.194v-.63c-1.758-.003-6.534-2.693-6.534-3.63zm-.163 13.602s-1.552 1.043-1.675 1.043c-1.23.433-1.23-.745-1.23-.745V11.03c1.453 1.452 2.905 1.824 2.905 1.824v8.228z"/>
  <path d="M177.544 21.15c-1.31-.543-2.232-3.162-2.232-3.162l7.377-4.402-3.41-5.828-5.643 2.418s-2.902 1.167-3.1 5.208c-.517 5.147 1.798 7.378 1.798 7.378s1.15 1.762 4.215 2.654c.323 0 6.51-4.762 6.51-4.762l-.465-.465c.002 0-1.71 2.123-5.05.96zm-2.4-11.125l3.2 5.197-3.276 1.996.075-7.193z"/>
  <path d="M194.345 21.024c-.378.19-1.06.557-1.7.702-.797.18-1.53.073-1.53-2.055v-7.133l1.077-1.076 2.178 4.432 3.63-3.63-3.105-4.507-3.905 3.906c-.775-3.175-2.804-3.944-2.804-3.944l-4.957 4.195.45.502.6-.6c.266-.266 1.954-.882 1.954.9v7.46c-.11 1.067-2.403 1.403-2.403 1.403s2.582.42 5.96 3.798c.078.078 6.31-5 6.31-5l-.352-.35s-1.246 1-1.403 1z"/>
  <path d="M162.63 7.543c-1.954 1.954-4.846 3.347-4.846 3.347s-2.915.957-2.915 2.915v8.814c0 1.223 2.856 3.045 2.966 2.966 1.267-1.524 2.915-2.544 4.723-4.02 0 .79.064 2.645 1.053 3.634.14.14 1.93 2.16 1.475 4.23-.1.695-.377 1.22-.754 1.627-1.155 1.155-4.1 1.12-4.713.92-.454-.147-.785-.33-1.028-.52 1.12-.295 1.933-1.177 1.933-2.22 0-1.283-1.233-2.324-2.755-2.324-1.522 0-2.756 1.04-2.756 2.325.34 4.49 7.14 3.95 9.528 2.704.787-.347 1.72-.856 2.793-1.598 3.863-2.67 0-7.374 0-7.374v-9.973c0-1.325 1.826-1.194 1.826-1.194v-.632c-1.754 0-6.53-2.69-6.53-3.627zm-.164 13.602s-1.552 1.043-1.675 1.043c-1.23.433-1.227-.745-1.227-.745v-10.35c1.452 1.45 2.904 1.824 2.904 1.824v8.228z"/>
</svg>
