<svg xmlns="http://www.w3.org/2000/svg" viewBox="0 0 162 200">
  <path d="M126.3 3.856c-2.255.3-3.308 9.772-4.862 10.223-1.555.45-24.755 1.653-30.318 1.953-5.563.3-6.577 1.353-6.577 4.06 0 1.744-.388 11.203-.108 16.737.17 3.387.395 3.563 1.424 4.01 6.55 2.842 11.466 6.398 13.008 12.627.158.64.09 1.286-.285 1.694-.146.16-.305.315-.476.46-.445.382-.985.303-1.55.303H64.962c-.75 0-1.138-.32-1.542-.762-.374-.407-.444-1.053-.285-1.693 1.542-6.23 6.46-9.785 13.01-12.628 1.028-.448 1.252-.624 1.423-4.01.28-5.534-.108-14.993-.108-16.738 0-2.706-1.015-3.76-6.577-4.06-5.562-.3-28.762-1.502-30.317-1.953-1.555-.452-2.607-9.924-4.862-10.224C33.446 3.556 12.097 1.45 3.077 1c8.57 1.804 24.454 6.79 25.977 7.5 1.803.843 2.292 8.884 3.09 12.82.21 1.044.4 1.255 1.193 1.376 5.1.777 27.023 2.363 30.227 2.61 2.405.184 3.387 2.21 3.107 5.01-.1 1.002-.85 5.338-4.71 7.818-7.14 4.583-10.915 10.668-11.378 18.237l-9.9 1.36 9.873 1.58c.378 11.896 5.87 18.964 15.062 23.025 1.322.584 1.525 2.76-2.456 4.21-2.89 1.052-9.922 3.508-12.527 6.815 7.507 19.446 23.153 82.588 26.66 105.64.953-12.93-9.695-70.632-9.695-87.5 0-15.108 4.584-17.79 10.068-12.578v-22.15s-11.147-4.735-14.25-14.01c-.196-.582-.368-1.244.028-1.977.418-.773.853-.965 1.873-.965h31.628c.657 0 1.287.516 1.575 1.048.328.606.23 1.393.062 1.895-3.106 9.274-14.25 14.008-14.25 14.008v22.15C89.816 93.71 94.4 96.39 94.4 111.5c0 16.867-10.648 74.57-9.696 87.5 3.508-23.053 19.153-86.195 26.66-105.64-2.605-3.31-9.637-5.764-12.527-6.816-3.98-1.45-3.778-3.625-2.456-4.21 9.277-4.098 14.785-11.26 15.072-23.357l10.187-1.25-10.21-1.093c-.39-7.69-4.17-13.864-11.39-18.5-3.862-2.48-4.61-6.816-4.71-7.82-.28-2.798.7-4.825 3.106-5.01 3.204-.246 25.126-1.832 30.227-2.61.792-.12.983-.33 1.194-1.374.797-3.937 1.287-11.978 3.09-12.82 1.524-.71 17.408-5.696 25.977-7.5-9.02.45-30.37 2.556-32.624 2.856z"/>
</svg>
