<svg xmlns="http://www.w3.org/2000/svg" viewBox="0 28 200 146">
  <path d="M10.303 55.154c-.606-3.78-.312-6.97.487-9.83.407-.353.904-.695 1.31-1.047-.25-.433-.193-.988.102-1.28.636.043.954.684.782 1.88.5.622.92 1.184 1.422 1.807-.423 2.162-.322 5.494-.203 8.958l-.528 9.385c.238 5.574.53 11.13.55 16.758.875 3.045.983 6.945.67 11.396-.53 3.916-1.057 7.83-1.585 11.743.4 8.916.59 17.884.772 26.854l.284 15.276c.508 1.574.97 3.684 1.097 9.547.254 1.28.423 2.604.57 3.94l-.042 9.06-2.557.894c-1.178-.285-2.357-.57-3.535-.853-1.44-1.084-2.256-2.556-2.56-4.345.014-1.95.028-3.9.04-5.85-1.386-6.156-.66-8.984-.202-12.23-1.28-5.937.234-11.6 1.747-17.265.27-7.15.16-15.16-.65-24.743 1.77-13.007 2.41-21.957 1.422-25.392-.068-3.59-.115-7.198-.183-10.786.708-5.29 1.02-9.73.793-13.877h-.002z"/>
  <path d="M21.84 51.538l-.973-3.128 1.828-.366c.98.972 2.09 2.883 2.56 6.057.38 2.556.897 5.668 1.42 9.505l3.9 7.232c.76 2.45 1.518 4.902 2.276 7.353l5.2 25.39c.977 3.278 2.3 6.556 3.82 9.833.593 2.786 1.25 5.637 1.95 8.532l.73.772.53-.812c-.474-2.736-.345-5.47-.163-8.207l.162-7.15-.61-6.256c.746-4.33 1.194-8.83.203-14.138l-.528-14.87c.1-2.99.235-5.81.772-6.62-.296-4.072-.15-7.21.528-9.223-.495-3.38-.752-6.597-.162-9.22-.045-4.53-.102-9.03-.366-13.123.108-2.065 1.26-2.268 2.884-1.625.746 1.342 1.41 2.6 2.154 3.942.225 6.238.424 14.486.325 21.938-.197 4.943-.495 9.886-1.016 14.83.304 6.076.655 12.13.73 18.32l.082 4.714c-.22 2.957-.392 5.863.04 8.166-.19 2.35.217 4.773.895 7.23v7.68l-.73 6.216.77 6.907c-.377.948-.012 2.045.69 3.21l1.22 7.393.57 3.25c.37 1.896.674 3.792.934 5.688-.23 1.855-.257 3.372.162 4.144l1.138 6.5.162 5.647-3.575.772-2.152-2.114-1.38-3.006-3.008-14.097c-.668-1.976-.918-3.953-.935-5.93l-2.52-11.62c-.78-1.83-1.37-3.657-1.827-5.485-.96-1.734-1.63-3.467-2.356-5.2l-1.747-6.947-3.21-12.675c-1.374-6.094-2.58-12.188-3.086-18.282-.435-1.558-.87-3.115-1.3-4.672l-2.724 5.16c-.725 1.428-.603 3.703-.244 6.216l1.056 13.772.73 6.5.57 16.9c.08 2.655.16 5.31.243 7.964.587 1.113.593 3.45.204 6.62.06 2.923.386 5.096 1.097 6.176l1.464 10.197c.366 1.68.73 3.36 1.097 5.038.367 3.935-1.38 6.197-6.215 6.014-2.01-1.584-2.305-3.453-2.356-5.363v-6.824c-.538-4.975-.53-9.99.447-15.073l.325-8.003c-.625-10.347-.755-20.692-.934-31.04-.07-2.45-.137-4.902-.204-7.352-.31-5.038-.623-10.076-.934-15.113-.42-9.378-.85-18.75-.61-28.238v-.004z"/>
  <path d="M59.685 43.912c.98-.912 1.96-1.824 2.876-2.736 4.317-.132 8.183 1.65 11.998 3.648l4.84 4.56c.34 1.918.68 3.835 1.018 5.753l-.667 1.228c-.946.055-1.854.257-2.737.56-1.256-1.583-1.952-3.412-1.65-5.68-1.945-2.622-4.148-4.804-7.155-5.614-.62-.776-1.246-1.295-1.812-1.372-.69-.093-1.476.225-2.327.637-.49-.13-.983-.257-1.474-.386-1.132.76-1.34 1.782-.912 2.98L58.07 65.486l1.087 8.664v4.102l1.087 8.77 1.087 9.05c.236 2.958.47 5.916.704 8.875l.56 3.332.878 12.557c.176 5.542.91 10.4 1.895 14.943.643 2.305 1.286 4.608 1.93 6.91-.37 1.644.484 3.398 2.174 5.228.48 1.766.96 3.53 1.438 5.297.725.097 1.45.303 2.175.526l2.35-.21c1.078-.66 1.897-1.443 1.79-2.665.36-.667.724-1.333 1.086-2-.695-1.84.09-2.97 1.086-4l1.052-6.874c-.105-2.73.257-4.965 1.087-6.7v-3.402c.234-1.84 2.085-2.126 2.888-.608.76 4.16 1.543 8.3 2.303 12.463l-.35 6.56c-.854 1.036-1.203 2.76-1.37 4.735-1.812 2.572-2.68 5.66-3.12 8.98l-1.58 3.473c-.876.61-1.823 1.218-2.7 1.826-2.87.297-5.02-.395-6.454-2.28-1.274-.936-2.548-1.87-3.822-2.807l-2.77-4.14-2.667-8.7c-2.154-4.436-2.504-7.02-2.35-9.084-1.44-7.004-1.894-12.953-2.384-18.942-.07-3.097-.03-5.88.21-8.103-.29-4.71-.585-9.423-.877-14.135-.38-5.466-.748-10.945-1.192-16.346-1.312-5.524-1.36-9.52.63-11.05l-.805-2.91c.273-4.943.975-10.1 2.245-15.54l1.262-2.246c.353-1.707.704-3.414 1.054-5.12v-.002z"/>
  <path d="M84.235 52.325c-.117-2.158.037-3.936.518-5.256-.18-.9 0-1.41.54-1.53l1.1.203-.383 3.48c.932 3.352.982 6.742.538 10.153.045 2.71.39 5.39 1.033 8.04.8 3.494 1.763 6.907 2.92 10.22l.54 5.795 2.45 11.298c.575 3.592 1.194 7.138 2.312 10.13.047 3.203.06 6.408.293 9.612l.63 6.042c-.547.614-.705 1.617-.473 3.01.404 1.45.42 2.654-.135 3.504l.202 14.667.56 5.008c-.053 1.925-.093 3.85-.27 5.773.144.624.215 1.27.18 1.954l.83 1.796c.715-.42 1.533-.84 2.606-1.258l2.02-2.156c1.917-2.75 2.483-6.368 2.72-10.198.454-2.03.922-4.058 1.437-6.087v-4.268c-.522-3.438-.602-7.14-.584-10.938.08-2.92.18-5.84.56-8.76.01-1.49.015-2.98.023-4.47-.37-1.535-.46-2.957.068-4.133.05-1.912.16-3.764.27-5.615-.333-2.482-.423-4.57.02-5.795l.788-12.937c.163-3.844-.163-7.55-1.078-11.095l-2.63-14.532-.493-8.243c-.375-2.68-.75-5.36-1.123-8.04.108-1.28.917-2.232 2.044-3.033.838.25 1.677.43 2.516.56.545 2.04 1.06 4.053 1.572 6.02.507 1.952.783 3.892.988 5.75.4 2.657.635 5.476.674 8.49 1.02 3.214 1.697 6.588 1.82 10.22.478 2.708.957 6.104 1.436 9.3l-.584 13.385c-.136 3.71-.545 8.947-.584 13.813l.045 2 .27 5.165.136 5.93-.697 7.142c-.74 2.56-.944 5.45-.607 8.67-.075 4.17-.202 8.34-.337 12.51-.404 2.388-.81 4.777-1.213 7.165-.503.694-.585 1.968-.606 3.324-.85 1.925-1.606 3.96-2.156 6.245-.546 2.844-1.272 5.594-4.11 7.232l-5.682-.36c-.77-1.715-1.542-3.43-2.313-5.143-3.036-3.917-3.804-7.352-4.02-10.67.09-4.042-.018-8.085-.068-12.128-.07-3.033.157-6.065.337-9.097.09-4.175.024-8.27-.247-12.264.45-3.993.412-7.7-.157-11.095.334-2.664-.326-5.33-1.19-7.995.014-.1.03-.196.044-.293l-1.28-4.896-1.348-6.715c-.8-2.44-1.093-4.82-.876-7.14-.5-3.228-1.003-6.455-1.505-9.68-.972-3.2-1.784-6.227-2.156-9.367.62-2.755 1.243-5.667 1.864-8.422v.005z"/>
  <path d="M190.86 97.035c-.717-1.132-1.43-2.264-2.147-3.396L179.936 79.7c-2.535-2.443-4.182-4.5-3.877-5.703-1.038-3.857-2.073-7.712-3.108-11.567-.5-2.128-.49-3.708.03-4.742.92-4.25 2.102-8.21 3.75-11.66.715-.748 1.322-1.524 2.037-2.27.78-.503 1.667-.977 2.447-1.48 1.09.2 1.956 1.655 2.756 3.46.543 1.4 1.006 2.825 1.55 4.225.442 1.308 1.024 2.554.5 4.458-1.626 2.083-2.472 4.512-2.786 7.178.383 1.8 1.543 3 3.236 3.78l1.635-.48 1.218-1.377c.383-2.212.77-4.422 1.153-6.632.138-2.53.276-5.06.416-7.59-.877-2.853-1.86-5.76-2.737-8.61-.428-.513-.828-.916-1.255-1.43-1.774-.91-3.464-1.326-5.237-1.144-1.367.728-2.734 1.454-4.1 2.18-3.446-.094-4.95 2.658-6.344 5.576l-2.883 11.82c-.6 2.83-.55 5.66.45 8.49l1.25 7.37c.203 1.603.703 3.056 1.633 4.293 1.465 1.998 3.843 4.912 5.863 7.464 3.516 4.485 6.635 9.177 8.33 14.61.373 1.388.638 2.804 1.013 4.192.596 3.158.562 6.838-.02 11.026-.375 3.467-.786 6.922-1.38 10.317-.268 1.663-.518 3.313-.64 4.903-.69 7.413-1.51 14.816-4.55 22.01-.377.84-.957 1.365-1.987 1.185-.994-.14-1.987-.277-2.98-.417l-1.473-2.884-.288-3.332c-.55-1.988-.917-3.895-.374-4.645-.27-2.263-.373-4.336-.587-6.6l.42-2.177-.418-1.953c.204-.504.35-.978.554-1.48-.077-.575-.172-1.103-.394-1.533.148-.63.298-1.26.448-1.89-.478-1.205-.102-1.61.514-1.793l1.28-5.384c.797-1.808 1.26-3.332.673-3.972.37-2.17.383-3.912.385-5.64-1.33-1.954-3.014-1.984-4.71-1.954-1.944 2.266-2.634 5.14-2.467 8.426-.558.653-.683 1.437-.513 2.307-.787-.78-.764-2.573-.672-4.453.02-2.136.044-4.272.064-6.408-.193-2.958-.752-3.152-1.25-3.812l-1.763-12.4c-.642-4.294-1.282-8.587-1.922-12.88.142-1.75 0-3.67-.224-5.64-.83-4.613-1.644-9.226-2.404-13.84l1.476-11.918c-.53-1.827-1.46-2.513-2.5-2.883-.662.218-1.324.493-1.986 1.15-1.317 2.878-2.243 5.912-2.467 9.228-.218 4.65.292 9.06 1.602 13.2.502 2.572 1.005 5.147 1.505 7.722l1.188 10.222c.918 6.206 1.836 12.41 2.756 18.616.938 2.236 1.312 4.757 1.12 7.56-.065 4.252.185 8.502.545 12.752-.357 2.563-.403 5.59-.193 9.003l-.736 9.067-2.02 5.318-.864 3.91c-.598 1.132-1.195 2.265-1.795 3.395-.905.13-1.767.303-2.53.577-1.726-1.356-1.96-2.713-2.34-4.068l-.256-6.73c-.028-2.553.46-4.03 1.378-4.615-.138-.736-.276-1.473-.416-2.21.325-3.136.5-6.173.608-9.163l-.192-.737-2.147-12.206c-.563-2.466-.992-5.14-1.12-8.266.126-1.993.025-3.463-.577-3.78l-.704-4.582c.152-4.025-.1-7.4-.32-10.83-.465-5.578-1.622-10.808-2.82-16.02-.698-2.348-.886-4.698-.928-7.048l.48-13.488c-.192-.972-.386-1.945-.576-2.915-.436-.886-.552-1.773.03-2.66l1.09-2.145-1.666-.93c-.554.29-.88.784-.704 1.73-.537 5.562-1.23 7.598-1.987 8.202l-.19 2.114c-.233 7.42-.83 15.126 1.28 20.73.393 3.386.57 6.77 1.41 10.158-.09 1.117-.125 2.143.225 2.53-.408 3.64-.876 7.283-.833 10.925l1.282 6.568-4.582-6.182c-1.4-.717-2.797-1.432-4.197-2.147-1.49-.42-2.995-.862-4.997-2.02v-.576l1.73-3.236 3.33-6.152c1.093-2.162 2.17-4.335 2.82-6.792.745-3.374 1.08-6.75 1.315-10.124-1-6.333-2.83-10.92-5.286-14.193l-5.897-5.927c-1.942-1.378-3.886-2.754-5.83-4.134-.693-.095-.94-.416-.737-.96l1.378-3.748c-.52-1.153-1.156-1.295-1.826-1.153-.512.758-1.032 1.517-1.442 2.275-.148.482-.298.962-.448 1.442l-6.44-1.25c-.276-.195-.63-.28-1.153-.127-.602.34-1.03.758-1.282 1.25l-.002-.002c-.08.45.073.897.735 1.344.39.746.71 1.428 1.06 2.012.728 1.214 3.363 1.616 5.71 1.264.674 1.058 1.27 2.172 1.944 3.23.35-.438.778-.802 1.28-1.09 4.18 2.97 7.79 5.938 10.38 8.906l2.63 4.84c.277 1.793.553 3.588.833 5.383l-.48 4.42c-.65 1.505-.91 2.896-.32 4.038-.8.675-.99 1.956-.77 3.65l-3.076 6.57c-1.595 1.36-2.715 3.047-3.365 5.06l-.48-.383c-.482-3.855-.962-7.71-1.442-11.567l-2.436-18.776-1.698-6.184c.02-.618.043-1.238.063-1.858l-1.058-.864c-.624.065-.984.67-.86 1.588.133.987.39 2.344.636 3.827-1.09 3.834-.71 9.512.385 16.084.458 2.637.918 5.275 1.378 7.912l.898 10.315.225 11.215c-.777 1.737-.88 3.625-.993 5.51l-.16 6.632c-.314 4.88-.62 9.76-.64 14.643l.224 16.53c.31 3.342.233 6.563-2.083 9.1-.427.395-1.037.823-1.777 1.185-.618.3-1.185.762-1.778 1.185-1.015.865-1.96 1.776-2.757 2.788-1.068 1.505-.53 3.176.512 4.9l2.02 1.25 4.807-1.44h1.218c-.427 1.562.128 3.09 1.666 4.58l3.558.128c.495-.694 1.12-1.388 1.76-2.082l-.705-4.293c-.81-1.79-.692-2.94-.546-4.07 1.485-1.113 2.887-2.524 4.372-3.93 1.29-1.805 2.666-3.555 3.956-5.36l4.39-4.645c.23-1.18.782-1.59 1.378-1.89 1.5-2.543 2.592-5.134 3.726-7.53-.044-.533-.03-.876-.074-1.41l.833-.802.576 10.03-.545 2.788c-.447.983-.69 1.965-.19 2.947-1.694 5.174-.607 9.166 3.01 12.08l.803 2.146c.1.746.655 1.38 2.21 1.763.673.68 1.438 1.18 2.403 1.28 1.088.314 2.178.308 3.268.256.47-.385 1.122-.787 1.738-.88 1.694-.27 2.296-1.407 3.164-2.55.746-1.323 1.3-2.648 1.826-3.97 1.17-2.54 2.084-3.435 2.82-3.205.593 2.587 1.306 4.897 2.85 5.287.538 1.572 1.543 2.876 2.736 4.01.772.913 1.76 1.288 3.406 1.098 1.036-.182 2.017-.282 3.052-.464l2.82-2.05 1.313-1.377 1.57-1.154c.31-.408.62-.798.93-1.058-.15-.666.15-1.013.513-1.313l1.44-7.498c.022-3.147.356-5.797 1.25-7.56-.4-1.814-.35-3.93-.097-6.184.843-7.34 1.674-16.183 2.44-16.533.27-2.583.733-5.17 1.085-7.753l.193-7.818c-.997-3.09-1.786-6.595-2.563-10.125zm-47.63 26.923l-1.562 6.436c-.99 1.766-1.98 3.532-2.968 5.298l-1.245 1.616c-.512.035-.883.247-1.113.636.47.69-.33 1.843-1.907 3.31-.687.602-1.132 1.202-1.668 1.802l-2.438.927-2.065.53v.002l-.003-.002h.003c-.256-1.078-.51-1.942-.77-2.595-.104-2.243-.21-4.486-.316-6.728-.033-3.15-.005-6.314.317-9.536.256-3.108.512-6.216.77-9.325.52-1.78.53-3.14-.08-4 .32-2.41.308-4.823.423-7.234-.57-1.064-.51-2.176-.16-3.31l3.02-.795c4.063 1.37 6.983 2.614 7.867 3.63l3.39 5.35c.937 2.456 1.414 5.44 1.432 8.955-.62 1.43-1.018 3.037-.93 5.033z"/>
</svg>
