<!--
  SVG Music Logos
  Iron Maiden - Derek Riggs Signature v0.1.0
  https://github.com/tiagoporto/svg-music-logos
  Copyright (c) 2016-2018 Tiago Porto (http://tiagoporto.com)
-->
<svg xmlns="http://www.w3.org/2000/svg" viewBox="0 0 200 174.667">
  <polygon class="derek-riggs__background" points="194 4.677 100 167.489 6 4.677"/>
  <g class="derek-riggs__foreground">
    <path d="M100 172.49L1.67 2.177h196.66L100 172.49zM10.33 7.177L100 162.49 189.67 7.177H10.33z"/>
    <polygon points="136.214 104.765 100 167.489 63.786 104.765"/>
    <polygon points="42.362 67.321 6 4.682 78.428 4.512"/>
    <polygon points="157.638 67.321 194 4.682 121.572 4.512"/>
  </g>
  <g class="derek-riggs__signature">
    <path d="M125.928 60.81c-1.848 0-3.56.528-5.063 1.382l-7.05-10.516c3.542-3.54 5.737-8.43 5.737-13.823 0-10.78-8.772-19.552-19.552-19.552s-19.552 8.773-19.552 19.553c0 10.158 7.79 18.526 17.708 19.46v29.46l-4.18-4.83h-4.878L100 94.56l10.925-12.617h-4.903l-4.178 4.83v-29.46c3.353-.316 6.463-1.477 9.11-3.275l7.066 10.537c-1.49 1.79-2.422 4.06-2.422 6.565 0 5.695 4.634 10.33 10.33 10.33s10.33-4.634 10.33-10.33c0-5.695-4.635-10.33-10.33-10.33zm-27.772-7.28c-7.87-.928-14.02-7.562-14.02-15.678s6.15-14.75 14.02-15.677V53.53zm3.69 0V22.175c7.87.927 14.018 7.56 14.018 15.677s-6.15 14.75-14.02 15.676zm24.082 24.25c-3.662 0-6.64-2.98-6.64-6.64 0-3.662 2.98-6.64 6.64-6.64 3.662 0 6.64 2.98 6.64 6.64 0 3.66-2.98 6.64-6.64 6.64z"/>
    <path d="M75.715 60.81c-5.695 0-10.33 4.634-10.33 10.33 0 5.695 4.634 10.33 10.33 10.33 5.695 0 10.33-4.634 10.33-10.33 0-5.695-4.635-10.33-10.33-10.33zm0 16.97c-3.662 0-6.64-2.98-6.64-6.64 0-3.662 2.98-6.64 6.64-6.64 3.662 0 6.64 2.98 6.64 6.64 0 3.66-2.978 6.64-6.64 6.64z"/>
  </g>
</svg>
