<svg xmlns="http://www.w3.org/2000/svg" viewBox="0 0 200 39.703">
	<path d="M148.2 8.335h-8.198v23.25l15.247-.01 4.07-6.567L148.2 8.335zm6.2 18.187s-.002 0-.002-.002h-9.576V12.144c3.187 4.8 6.372 9.59 9.576 14.376h.002v.002zM123.003 8.334l-6.353 8.612-2.775-3.232-3.256 4.054 2.91 3.404-4.277 5.776 3.262 4.06 4.382-5.914 5.538 6.49h6.86V8.334h-6.292zm1.17 17.316l-4.155-4.812 4.155-5.626V25.65zM41.65 8.692L28.982 25.75l-.128.173 3.95 5.633h17.6l3.818-5.6L41.65 8.692zm-7.148 17.584l7.05-9.447 6.795 9.445H34.502z"/>
	<rect x="131.874" y="8.335" width="5.34" height="23.19"/>
	<polyline points="68,16.71 60.535,8.444 60.447,8.347 52.801,8.277 56.651,12.432 56.651,31.586 61.807,31.586 61.807,17.67 68,24.398 68,31.56 73.157,31.56 73.157,8.345 68,8.345"/>
	<polyline points="97.425,13.498 92.865,8.346 84.82,8.346 87.937,11.878 87.937,31.586 92.817,31.586 92.817,15.998 97.229,21.382 101.519,16.262 101.462,31.559 106.892,31.559 106.892,14.8 101.156,8.545"/>
	<path d="M22.2 8.117l-3.973 4.32v-4.09H13.07v23.24h5.157v-6.782l5.227 6.754h6.403l-4.24-5.708 5.063-6.717L22.2 8.117zm-3.594 11.885l3.146-3.444 2.762 3.444h-5.908z"/>
	<polygon points="30.68,19.134 30.68,19.135 30.68,19.135"/>
	<rect x="4.5" y="8.346" width="5.373" height="23.24"/>
	<polyline points="190.343,16.678 182.819,8.315 175.144,8.291 178.99,12.435 178.99,31.555 184.148,31.555 184.148,17.64 190.343,24.366 190.343,31.559 195.5,31.559 195.5,8.314 190.343,8.314"/>
	<polyline points="161.375,26.645 165.087,31.555 173.183,31.555 173.183,26.49 166.073,26.49 166.085,21.794 173.183,21.794 173.183,17.31 165.978,17.31 165.976,13.257 173.214,13.257 173.214,8.377 161.374,8.377"/>
</svg>
