<!--
  SVG Music Logos
  Iron Maiden - Legacy Of The Beast - 666 Flag v0.1.0
  https://github.com/tiagoporto/svg-music-logos
  Copyright (c) 2016-2018 Tiago Porto (http://tiagoporto.com)
-->
<svg xmlns="http://www.w3.org/2000/svg" viewBox="0 0 200 164" class="iron-maiden--six-six-six-flag">
  <polygon class="iron-maiden__polygon" points="50.75 156.745 1.5 81.667 50.75 6.588 149.25 6.588 198.5 81.667 149.25 156.745"/>
  <g class="iron-maiden__numbers">
    <path d="M56.686 79.374L69.81 62.51l-10.57-8.39L27.09 95.858l11.31 13.355h24.545l11.712-13.355-17.97-16.484zM41.51 98.614l8.475-10.878 11.393 10.877H41.51z"/>
    <path d="M105.815 79.374l13.123-16.864-10.568-8.39-32.153 41.738 11.31 13.355h24.545l11.712-13.355-17.97-16.484zM90.64 98.614l8.474-10.878 11.393 10.877H90.64z"/>
    <path d="M154.944 79.374l13.123-16.864-10.568-8.39-32.155 41.738 11.31 13.355H161.2l11.712-13.355-17.968-16.484zm-15.177 19.24l8.475-10.878 11.393 10.877h-19.868z"/>
  </g>
</svg>
