<svg xmlns="http://www.w3.org/2000/svg" viewBox="0 0 200 42" class="iron-maiden--the-book-of-souls">
  <g class="iron-maiden__text">
      <path d="M196.595,36.834l-6.671-6.92V21.1l-4.509-4.549v11.994h-6.671V9.198l-4.688-5.262h9.223l6.645,6.927 V3.936h6.671V36.834z M191.122,29.431l4.277,4.436V5.134h-4.277v8.708l-8.353-8.708h-6.041l3.214,3.609v18.605h4.277V13.642 l6.903,6.966V29.431z"/>
      <path d="M173.894,28.545h-8.795l-5.306-6.935V4.037h14.1v6.671h-7.087v1.793h7.087v6.492h-6.986v2.886h6.986 V28.545z M165.691,27.347h7.006v-4.27h-6.986v-5.282h6.986v-4.097h-7.087V9.511h7.087V5.235H160.99v15.969L165.691,27.347z"/>
      <path d="M153.53,28.545h-16.457V3.936h9.215l12.884,17.271L153.53,28.545z M138.271,27.347h14.67l4.73-6.151 L145.688,5.134h-7.417V27.347z M153.296,22.847h-10.749V8.688L153.296,22.847z M143.744,21.649h7.139l-7.139-9.403V21.649z"/>
      <path d="M135.022,28.545h-6.671V3.936h6.671V28.545z M129.548,27.347h4.277V5.134h-4.277V27.347z"/>
      <path d="M108.782,28.643l-4.32-5.953l4.533-5.996l-2.56-3.462l4.48-5.687l2.551,3.236l5.177-6.846h7.408v24.609 h-8.188l-4.457-5.954L108.782,28.643z M118.461,27.347h6.392V5.134h-5.615l-5.753,7.608l-2.571-3.261l-2.973,3.775l2.549,3.448 l-4.539,6.002l2.855,3.933l4.608-6.033L118.461,27.347z M120.451,22.252l-4.145-5.537l4.145-5.482V22.252z M117.804,16.718 l1.449,1.936v-3.853L117.804,16.718z"/>
      <path d="M104.349,37.658l-6.67-6.933V16.336l-3.226,3.82l-3.467-4.12v12.509h-6.548V8.876l-3.75-4.94h9.595 l4.156,4.966l4.582-5.374l5.329,6.618V37.658z M98.876,30.242l4.276,4.444V10.568l-4.158-5.163l-4.565,5.353l-4.707-5.624h-6.623 l2.535,3.34v18.874h4.153V12.754l4.667,5.544l4.422-5.236V30.242z"/>
      <path d="M75.185,36.834l-6.671-6.92V21.1l-4.509-4.549v11.994h-6.671V9.198l-4.687-5.262h9.223l6.645,6.927V3.936 h6.671V36.834z M69.712,29.431l4.276,4.436V5.134h-4.276v8.708l-8.353-8.708h-6.042l3.215,3.609v18.605h4.276V13.642l6.904,6.966 V29.431z"/>
      <path d="M51.685,28.545H33.319l-4.877-6.421L42.62,3.33l14.042,19.061L51.685,28.545z M33.914,27.347h17.199 l4.036-4.99L42.608,5.334L29.945,22.122L33.914,27.347z M49.719,22.487H35.068l7.432-9.745L49.719,22.487z M37.487,21.289h9.854 l-4.856-6.555L37.487,21.289z"/>
      <path d="M28.604,36.339L18.94,24.06v4.485h-6.671V3.936h6.671v3.395l3.233-4.116l9.273,12.525l-4.863,6.324 l6.386,8.847L28.604,36.339z M17.743,20.602l10.872,13.814l2.85-3.544l-6.374-8.83l4.857-6.316L22.146,5.19l-4.403,5.605V5.134 h-4.276v22.214h4.276V20.602z M25.474,16.617h-6.589l3.384-4.185L25.474,16.617z M21.394,15.419h1.655l-0.805-1.051L21.394,15.419z"/>
      <path d="M9.804,28.545H3.133V3.936h6.671V28.545z M4.331,27.347h4.276V5.134H4.331V27.347z"/>
  </g>
  <g class="iron-maiden__external-stroke">
    <path d="M144.365,21.028h5.267l-5.267-6.938V21.028z M145.03,16.067l3.262,4.296h-3.262V16.067z"/>
    <polygon points="118.93,17.672 118.93,15.835 118.239,16.749"/>
    <path d="M188.638,2.65v5.015l-4.719-4.914h-25.412v15.413L146.933,2.65h-28.932l-4.558,6.028l-2.53-3.21 l-5.278,6.701V9.692l-6.587-8.179l-4.602,5.397L90.882,2.65H78.096l5.054,6.659v20.522h9.121v-10.27l2.179,2.59l1.942-2.299v11.391 l9.243,9.607V26.498l3.119,4.298l4.64-6.073l3.824,5.108h36.946l5.163-6.715l5.138,6.715h10.717V7.131l2.278,2.558v20.143h9.244 V19.676l1.936,1.954v8.803l9.244,9.588V2.65H188.638z M105.635,14.315l1.753,2.372l-1.753,2.319V14.315z M126.671,29.166h-9.121 l-4.151-5.546l-4.631,6.063l-3.798-5.234v14.75l-7.913-8.224V18.034l-2.606,3.085l-2.846-3.381v11.428h-7.79V9.085l-4.379-5.77 h11.135l3.871,4.625l4.591-5.385l5.936,7.372v11.061l3.249-4.297l-2.566-3.47l5.26-6.678l2.541,3.223l4.878-6.451h8.338V29.166z M135.643,29.166h-7.913V3.315h7.913V29.166z M197.217,38.373l-7.913-8.208v-8.809l-3.267-3.296v11.106h-7.913V9.435l-3.609-4.051 v5.583h-6.986v1.12h6.986v7.574h-6.986v1.303h6.986v8.202h-9.723l-5.464-7.143l-5.492,7.143h-17.383V3.315H146.6l12.572,16.854 V3.417h24.464l5.668,5.902V3.315h7.913V38.373z"/>
    <path d="M38.729,20.714h7.395l-3.644-4.919L38.729,20.714z M39.625,20.271l2.85-3.737l2.768,3.737H39.625z"/>
    <path d="M67.228,7.665l-4.81-5.015H49.778l6.27,7.038v9.702L42.632,1.178L32.354,14.804L22.204,1.095 l-1.978,2.517V2.65H1.847v27.181h18.379v-2.057l8.367,10.631l5.993-7.451l-0.811-1.123h18.523l3.749-4.636v4.636h9.243V19.676 l1.937,1.954v8.803l9.243,9.588V2.65h-9.243V7.665z M10.425,29.166H2.513V3.315h7.913V29.166z M28.599,37.337l-9.038-11.484v3.313 h-7.913V3.315h7.913v2.221l2.627-3.344l9.747,13.166l-4.972,6.59l6.782,8.988L28.599,37.337z M67.893,3.315h7.913v35.057 l-7.913-8.208v-8.808l-3.267-3.297v11.107h-7.913v-5.851l-4.732,5.851H33.244l-5.446-7.218l4.551-6.033v0L42.625,2.292 l14.087,19.123V9.435l-5.451-6.12h10.872l5.759,6.004V3.315z"/>
  </g>
</svg>
