<!--
  SVG Music Logos
  John Petrucci - JP v1.0.0
  https://github.com/tiagoporto/svg-music-logos
  Copyright (c) 2016-2018 Tiago Porto (http://tiagoporto.com)
-->
<svg xmlns="http://www.w3.org/2000/svg" viewBox="0 0 126.175 200">
  <path d="M117.288 2H8.886c0 135.23-5.84 152.02 54.2 196 60.042-43.98 54.202-60.77 54.202-196zm-54.2 188.883C15.14 149.603 19.804 133.846 19.804 6.927h86.565c0 126.92 4.663 142.677-43.283 183.956z"/>
  <path d="M27.866 18.242H50.13v71.356c0 46.354-2.544 55.886-14.007 69.804 4.7-18.158 4.287-26.37 4.287-77.287v-54.11l-12.544-9.763z"/>
  <path d="M91.374 18.242h-33.58L60.9 29.557V180.48l9.672-6.022V135.29l20.804 8.873V18.243zM81.154 129.2H70.57V29.556l10.585-5.475V129.2z"/>
</svg>
