<!--
  SVG Music Logos
  Johnny Cash - American Recordings v1.0.0
  https://github.com/tiagoporto/svg-music-logos
  Copyright (c) 2016-2018 Tiago Porto (http://tiagoporto.com)
-->
<svg xmlns="http://www.w3.org/2000/svg" viewBox="0 0 200 53.391">
  <path d="M35.423 30.057l12.643 3.822c-.85 3.545-2.187 6.507-4.013 8.884-1.826 2.378-4.092 4.172-6.8 5.382-2.706 1.21-6.15 1.815-10.333 1.815-5.075 0-9.22-.736-12.436-2.21-3.217-1.475-5.993-4.07-8.328-7.782-2.336-3.713-3.503-8.466-3.503-14.26 0-7.722 2.054-13.657 6.162-17.806S18.735 1.68 26.25 1.68c5.882 0 10.505 1.19 13.87 3.567 3.365 2.378 5.865 6.03 7.5 10.955l-12.74 2.834c-.445-1.422-.912-2.463-1.4-3.12-.807-1.105-1.794-1.954-2.962-2.55-1.168-.593-2.474-.89-3.917-.89-3.27 0-5.774 1.314-7.515 3.944-1.317 1.95-1.975 5.015-1.975 9.192 0 5.175.785 8.722 2.357 10.64 1.57 1.92 3.78 2.88 6.624 2.88 2.76 0 4.847-.776 6.26-2.326 1.412-1.547 2.436-3.798 3.073-6.75z"/>
  <path d="M83.776 41.458h-16.38l-2.275 7.707H50.39L67.94 2.477h15.735l17.544 46.688H86.11l-2.336-7.707zm-2.992-10.096L75.63 14.58l-5.1 16.782h10.254z"/>
  <path d="M103.29 33.72l13.726-.86c.297 2.228.902 3.927 1.815 5.095 1.487 1.89 3.61 2.834 6.37 2.834 2.06 0 3.646-.484 4.76-1.45 1.116-.966 1.673-2.086 1.673-3.36 0-1.21-.53-2.293-1.592-3.248-1.06-.955-3.524-1.858-7.388-2.707-6.327-1.422-10.84-3.312-13.535-5.67-2.718-2.356-4.076-5.36-4.076-9.012 0-2.4.696-4.666 2.087-6.8 1.39-2.133 3.482-3.81 6.274-5.03 2.793-1.222 6.62-1.832 11.482-1.832 5.966 0 10.515 1.11 13.646 3.33 3.13 2.218 4.995 5.747 5.59 10.588l-13.6.796c-.36-2.102-1.12-3.63-2.277-4.586-1.156-.955-2.754-1.433-4.792-1.433-1.677 0-2.94.356-3.79 1.067-.85.712-1.274 1.576-1.274 2.596 0 .743.35 1.412 1.05 2.006.68.616 2.294 1.19 4.842 1.72 6.306 1.36 10.823 2.734 13.55 4.124 2.73 1.39 4.714 3.116 5.956 5.175 1.242 2.06 1.863 4.363 1.863 6.91 0 2.995-.828 5.755-2.484 8.28-1.655 2.528-3.97 4.444-6.942 5.75-2.973 1.305-6.72 1.958-11.242 1.958-7.94 0-13.44-1.528-16.497-4.585-3.057-3.057-4.787-6.943-5.19-11.656z"/>
  <path d="M152.97 2.477H167.4v16.338h15.764V2.477h14.49v46.688h-14.49V30.28h-15.764v18.884H152.97V2.477z"/>
</svg>
