<svg xmlns="http://www.w3.org/2000/svg" viewBox="0 0 200 128.853">
  <path class="judaspriest__symbol" d="M145.318 7.93v12.884c0 10.88-8.725 19.784-19.388 19.784h-.467v3.043c0 8.68-7.248 15.78-16.108 15.78h-2.548v57.404H92.73V59.42h-3.2c-8.86 0-16.108-7.1-16.108-15.78v-3.044c-10.58-.103-19.203-8.964-19.203-19.782V7.93h12.216v12.118c0 4.29 4.45 7.802 9.892 7.802H92.73V7.4h14.076v20.45h16.307c5.493 0 9.987-3.545 9.987-7.877V7.93h12.218zm-38.51 32.668v7.118c3.894-.7 6.82-3.44 6.82-6.69v-.428h-6.82zM92.73 47.813v-7.215h-7.474v.428c0 3.428 3.26 6.29 7.474 6.787z"/>
  <g class="judaspriest__lettering" fill="#666">
    <polygon points="190.045,88.666 190.045,75.762 184.204,73.664 184.204,86.356 181.708,85.639 181.363,91.481 183.991,92.251 184.115,116.06 143.976,100.35 139.197,104.731 132.293,94.906 127.381,99.42 119.282,89.463 113.971,93.844 107.997,85.613 90.87,79.638 86.755,83.223 81.71,75.921 77.196,79.638 71.221,71.938 66.973,75.124 61.264,68.486 57.148,72.071 52.501,65.433 47.987,69.017 42.544,62.777 39.756,65.167 27.059,48.519 27.059,58.18 38.62,73.743 42.125,71.194 47.116,77.354 51.338,74.121 56.177,80.257 60.307,77.071 65.735,83.915 70.219,80.493 75.868,88.401 80.78,85.214 85.294,91.322 92.596,86.409 105.209,91.189 113.308,102.872 118.618,97.694 125.92,107.917 131.363,103.669 138.4,112.564 145.038,106.722 189.647,123.982 189.913,94.641 197.215,97.376 197.347,91.534"/>
    <polygon points="141.968,57.385 136.763,55.048 136.55,60.997 141.968,63.121"/>
    <path id="ies" d="M142.744 96.37l36.56 14.43.194-7.348-5.772-14.694 5.503 1.738.34-5.633-13.987-5.488-.177 5.842 6.444 16.43-19.227-7.19 10.684-10.088.15-5.704-16.465-6.55-.283 19.793-4.604-1.736.106-19.828-5.665-2.302V95.13l3.187 4.25 3.01-3.01zm9.737-15.757l4.923 1.735-4.957 3.93.035-5.665z"/>
    <polygon points="134.706,65.919 130.174,69.46 129.714,65.459 124.155,70.274 124.119,90.174 127.412,94.953 129.714,92.227 129.678,77.25 134.554,73.178"/>
    <polygon id="P" points="116.188,87.695 116.365,53.349 126.774,57.492 118.312,63.971 118.206,72.363 133.007,60.077 133.184,53.172 110.947,44.78 110.699,84.685 114.24,89.288"/>
    <path d="M43.456 57.952l4.86 6.6 4.137-3.606 5.263 6.6 4.12-4.282 5.31 7.79 4.33-4.104 5.762 8.176 4.635-3.54 5.424 7.193 2.157-2.592 15.982 5.875.13-8-5.747-14.597 5.664 2.382-.177-6.035-13.906-5.65-.353 5.312 7.26 17.35-11.863-4.25-.274-20.326-5.054-1.98-.354 1.785-1.835-2.575-7.677-3.315-.113 17.72-2.575 2.495-2.125-1.947-.177-33.107-5.166-1.77-.322 14.517-1.61-2.88-7.29-2.576-.58 19.54-1.866 1.32-2.64-3.188.177-19.475-5.842-2.125-.353 21.068-4.603-6.143-.015-16.955-5.763-2.253-.064 20.746L40.06 60.43l3.396-2.478zm37.5-6.02l-.11 12.55-2.45 2.307-1.222-2.72-.097-13.038 3.88.9zm-23.626-8.69l3.62 1.255-.128 12.264-2.092 2.174-1.642-2.414.242-13.278z"/>
    <polygon points="18.878,72.396 8.637,68.221 17.053,60.938 17.285,53.2 2.417,66.097 2.265,72.014 24.72,80.814 25.023,11.629 19.258,9.049"/>
  </g>
</svg>
