<svg xmlns="http://www.w3.org/2000/svg" viewBox="0 36.1 200 128.9">
  <polygon points="190 124.8 190 111.9 184.2 109.8 184.2 122.5 181.7 121.8 181.4 127.6 184 128.4 184.1 152.2 144 136.5 139.2 140.9 132.3 131.1 127.4 135.6 119.3 125.6 114 130 108 121.8 90.9 115.8 86.8 119.4 81.7 112.1 77.2 115.8 71.2 108.1 67 111.3 61.3 104.6 57.1 108.2 52.5 101.6 48 105.2 42.5 98.9 39.8 101.3 27.1 84.7 27.1 94.3 38.6 109.9 42.1 107.3 47.1 113.5 51.3 110.3 56.2 116.4 60.3 113.2 65.7 120.1 70.2 116.6 75.9 124.5 80.8 121.4 85.3 127.5 92.6 122.6 105.2 127.3 113.3 139 118.6 133.8 125.9 144.1 131.4 139.8 138.4 148.7 145 142.9 189.6 160.1 189.9 130.8 197.2 133.5 197.3 127.7"/>
  <polygon points="142 93.5 136.8 91.2 136.6 97.1 142 99.3"/>
  <path d="M142.7 132.5l36.6 14.4.2-7.3-5.8-14.7 5.5 1.7.3-5.6-14-5.5-.2 5.8 6.4 16.4-19.2-7.2 10.7-10.1.1-5.7-16.5-6.6-.3 19.8-4.6-1.7.1-19.8-5.7-2.3v27.1l3.2 4.2 3.2-2.9zm9.8-15.7l4.9 1.7-5 3.9.1-5.6z"/>
  <polygon points="134.7 102.1 130.2 105.6 129.7 101.6 124.2 106.4 124.1 126.3 127.4 131.1 129.7 128.4 129.7 113.4 134.6 109.3"/>
  <polygon points="116.2 123.8 116.4 89.5 126.8 93.6 118.3 100.1 118.2 108.5 133 96.2 133.2 89.3 110.9 80.9 110.7 120.8 114.2 125.4"/>
  <path d="M43.5 94.1l4.9 6.6 4.1-3.6 5.3 6.6 4.1-4.3 5.3 7.8 4.3-4.1 5.8 8.2 4.6-3.5 5.4 7.2 2.2-2.6 16 5.9.1-8-5.7-14.6 5.7 2.4-.2-6-13.9-5.7-.5 5.2 7.3 17.3-11.9-4.2-.3-20.3-5.1-2-.4 1.8-1.8-2.6-7.7-3.3V96l-2.6 2.5-2.1-1.9-.2-33.1-5.2-1.8-.3 14.5-1.6-2.9-7.3-2.6-.6 19.5-1.9 1.3-2.6-3.2L47 69l-5.8-2.1-.4 21.1-4.6-6.1v-17l-5.8-2.3-.1 20.7L40 96.6l3.5-2.5zm37.5-6l-.1 12.6-2.4 2.3-1.2-2.7-.1-13 3.8.8zm-23.7-8.7l3.6 1.3-.1 12.3-2.1 2.2-1.6-2.4.2-13.4z"/>
  <polygon points="18.9 108.5 8.6 104.4 17.1 97.1 17.3 89.3 2.4 102.2 2.3 108.2 24.7 117 25 47.8 19.3 45.2"/>
</svg>
