<!--
  SVG Music Logos
  Kiko Loureiro v1.0.0
  https://github.com/tiagoporto/svg-music-logos
  Copyright (c) 2016-2018 Tiago Porto (http://tiagoporto.com)
-->
<svg xmlns="http://www.w3.org/2000/svg" viewBox="0 0 200 22">
  <rect x="60.918" y="5.01" width="1.851" height="12.4"/>
  <path d="M149.62 10.32l1.05 1.335c1.125-.97 1.562-1.698 1.562-3.223 0-.994-.458-1.893-1.294-2.557-.82-.65-1.92-.865-3.97-.865h-1.695v12.4h1.85v-4.913l.402-.17 3.493 5.084h2.253l-6.147-8.395v-2.26c1.053 0 1.836.027 2.393.263.69.292.904.86.904 1.585 0 .74-.21 1.23-.8 1.716z"/>
  <rect x="168.99" y="5.01" width="1.851" height="12.4"/>
  <polygon points="164.181 6.861 164.181 5.01 157.428 5.01 157.428 17.409 164.181 17.409 164.181 15.558 159.279 15.558 159.279 11.576 164.181 11.576 164.181 9.725 159.279 9.725 159.279 6.861"/>
  <polygon points="107.025 15.558 107.025 5.01 105.173 5.01 105.173 15.558 105.173 17.409 105.173 17.409 110.715 17.409 110.715 15.558"/>
  <path d="M85.578 4.852c-3.51 0-6.357 2.846-6.357 6.357s2.847 6.356 6.358 6.356c3.51 0 6.357-2.846 6.357-6.357S89.09 4.85 85.578 4.85zm0 11.012c-2.57 0-4.654-2.084-4.654-4.654s2.084-4.654 4.654-4.654 4.654 2.084 4.654 4.654-2.084 4.654-4.654 4.654z"/>
  <path d="M121.004 4.852c-3.51 0-6.357 2.846-6.357 6.357s2.846 6.356 6.357 6.356 6.357-2.846 6.357-6.357-2.845-6.358-6.356-6.358zm0 11.012c-2.57 0-4.654-2.084-4.654-4.654s2.084-4.654 4.654-4.654 4.654 2.084 4.654 4.654-2.084 4.654-4.654 4.654z"/>
  <path d="M140.243 12.808c0 2.678-1.388 4.76-4.646 4.76-3.056 0-4.48-1.81-4.48-4.76V5.01h1.85v8.034c0 1.65.91 2.82 2.63 2.82 1.423 0 2.794-.83 2.794-2.82V5.01h1.852v7.798z"/>
  <path d="M192.643 4.852c-3.51 0-6.357 2.846-6.357 6.357s2.846 6.356 6.357 6.356c3.51 0 6.357-2.846 6.357-6.357s-2.846-6.358-6.357-6.358zm0 11.012c-2.57 0-4.654-2.084-4.654-4.654s2.083-4.654 4.653-4.654c2.57 0 4.654 2.084 4.654 4.654s-2.084 4.654-4.654 4.654z"/>
  <polygon points="49.031 5.01 47.179 5.01 47.179 17.409 49.031 17.409 49.031 12.165 49.332 11.874 53.785 17.409 56.359 17.409 49.031 8.56"/>
  <polygon points="56.464 4.984 53.905 4.984 50.367 8.401 51.505 9.775"/>
  <polygon points="69.376 5.01 67.525 5.01 67.525 17.409 69.376 17.409 69.376 12.165 69.677 11.874 74.13 17.409 76.705 17.409 69.376 8.56"/>
  <polygon points="76.81 4.984 74.25 4.984 70.713 8.401 71.85 9.775"/>
  <path d="M180.152 10.32l1.048 1.335c1.126-.97 1.563-1.698 1.563-3.223 0-.994-.458-1.893-1.294-2.557-.82-.65-1.92-.865-3.972-.865h-1.694v12.4h1.85v-4.913l.402-.17 3.493 5.084h2.252l-6.148-8.395v-2.26c1.053 0 1.836.027 2.393.263.69.292.904.86.904 1.585 0 .74-.21 1.23-.798 1.716z"/>
  <path d="M27.874 20.798h9.466c.716 0 .723-.307.478-.65L29.72 8.818s3.44-6.4 3.71-6.88c.357-.638.305-.735-.13-.735h-8.87c-.27 0-.316.05-.462.29L19.654 8.56l-.692-1.286s2.662-5.032 2.884-5.408.263-.613-.236-.613h-9.89c-.432 0-.568.155-.766.523-1.69 3.152-9.768 18.215-9.863 18.45-.105.26-.182.467.142.467h10.12c.342 0 .522-.125.68-.42L13.35 17.8l1.835 2.998h10.48c.525 0 .46-.202.288-.525l-1.2-2.234.653-1.213 2.468 3.97zm4.15-19.177l-8.232 14.637-.346-.644 7.78-13.992h.8zm-1.307 0l-7.522 13.526-.522-.972 7.08-12.554h.964zm-1.416 0l-6.848 12.143-.437-.895 6.28-11.247H29.3zm-1.535 0l-6.023 10.824-.557-1.037 5.66-9.787h.92zm-1.403 0l-5.378 9.413-.488-.91 4.938-8.502h.928zm-1.98 0h.6l-4.708 8.094-.362-.673 4.47-7.42zM11.4 20.275H1.535l9.98-18.652h9.827l-9.94 18.652zm3.453-5.298l2.863 5.298h-.714l-2.567-4.513.418-.784zm.33-.62l.483-.906 3.726 6.824h-.94l-3.268-5.92zm.79-1.48l.398-.747 4.506 8.143h-.988l-3.917-7.398zm.683-1.28l.457-.858 5.233 9.535h-.99l-4.7-8.678zm-2.93 5.494l.277-.52 2.2 3.704h-.61L13.73 17.09zm9.162 3.184l-5.54-9.98.55-1.026 5.91 11.006h-.92zm2.4 0h-.89L18.137 8.82l.547-1.025 6.607 12.48zm-.858-2.828l-.445-.828L32.5 1.62h.51l-8.578 15.826z"/>
  <path d="M13.914 20.588h-1.246c-.12 0-.198-.13-.14-.235l.623-1.15c.06-.11.22-.11.28 0l.624 1.15c.058.106-.02.235-.14.235z"/>
</svg>
