<svg xmlns="http://www.w3.org/2000/svg" viewBox="0 0 200 134">
  <path d="M134.205 88.658l13.715 31.068c-39.568-29.394-89.245-30.564-110.468-11.598-5.614 9.496.31 15.878 7.51 21.37-7.735-17.153 15.075-30.158 45.49-27.672 26.883 4.106 49.58 13.443 66.16 30.424l-19.26-47.882c-.598 1.43-1.647 2.86-3.147 4.29z"/>
  <path d="M173.612 46.724c-2.764 2.377-2.703 11.395-2.538 18.06-3.107-2.532-8.53-.79-10.568 4.28-1.376 4.486-1.17 8.815.622 12.986-5.397.42-4.75-6.956-4.956-12.037 0-6.264-9.665-6.877-10.246-2.865l-1.53-2.893-6.375.062 1.33 4.187c-1.86.596-3.72.242-5.58-1.062-4.37-7.61-13.86-3.594-14.34 3.72-.44 4.628.08 8.306 1.54 11.036-2.6-.085-5.12-1.29-5.25-5.193.6-6.55-.02-13.035-6.05-12.983-1.56.013-4.47.842-4.86 3.246-3.1-4.133-5.93-4.07-7.76-1.238l-.7-2.306-5.19-.09c.45 9.32.09 17.685-2.51 18.683-2.85-6.04-3.41-14.85-.96-18.593h-6l-.65 1.594c-4.79-4.068-8.98-.327-11.01 3.984-.97 4.214-.83 7.795.42 10.743-3.48.16-5.38-2.215-5.7-7.12-.26-3.524.27-6.65 1.59-8.907l-8.24-.028c1.17 4.37 1.31 8.737-.054 13.105-1.66 2.457-3.972 3.172-6.582 3.097 6.22-11.935 4.617-26.632-7.023-30.076-16.95-1.466-18.05 2.8-26.36 4.96-2.3.513-10.48-.425-7.6-11.537-6.35 9.85-3.77 20.99 8.84 18.06l7.915-2.48-.18 17.89c-4.05 3.12-7.98.67-18.33 9.02-8.7 8.89-5.35 19.45-1.36 23.37-3.12-13.23 1.5-21.92 19.92-22.16 13.89-.39 28.44.12 41.97-.82 1.13-.06 2.108-.98 2.92-1.99 2.66 3.04 7.588 3.26 10.216.94l1.48 1.45H95.7c.99-4.52 1.68-9.03 1.71-13.55-.042-2.59 3.29-3.35 3.19.77.65 5.82.12 9.43-1 12.48h7.64c-.48-3.49-.75-7.05-.27-10.86 1.33-4.65 2.656-5.18 3.98-1.59.54 4.52-.11 8.86-1.472 12.43h11.42l2.008-1.54c3.394 2.59 6.32 3.12 8.76 1.59 3.73-2.716 5.69-7.43 4.34-13.31l3.99.033V86.3l6.02.18.44-13.817c-.004-3.346 4.146-3.05 4.26.77.2 3.78.12 9.598-.45 12.867l14.26-.265c4.44 2.213 6.45 1.884 10.176-1.062 8.562 6.03 11.65-2.647 13.28-10.274-3.2 7.28-10.35 4.15-10.04-.54l.21-17.62c.363-5.12 6.26-3.63 11.33-5.94 5.044-2.34 7.493-6.58 7.79-12.4-5.617 7.2-13.23 9.13-23.636 8.49zm-137.09 31.21l-.012-19.64c14.925-4.166 12.334 21.03.01 19.64zm43.74-8.11L81.2 80.33c-6.878 3.212-7.538-13.513-.94-10.506zm47.613 10.857c-1.674 0-3.176-2.56-3.353-5.73-.177-3.16 1.037-5.73 2.71-5.73 1.675 0 3.177 2.57 3.354 5.73.178 3.17-1.037 5.73-2.71 5.73zm43.093-10.66l.668 10.83c-7.953 6.62-8.297-17.65-.668-10.82z"/>
  <path d="M162.7 51.125l-7.89-.074-.057-4.7 11.497-.07.055-4.44-11.513-.15-.04-4.36h7.438l-.152-4.13h-7.266c.04-3.27 1.216-5.65 3.53-7.15l-11.288.02c2.196 1.77 3.523 3.93 2.94 6.96L143.16 33l-.03 4.195 7.12-.02.02 4.53-11.34.15.06 4.1h10.92l.08 5.313-6.922.016c-4.43.45-10.684 6.93-.78 10.076 4.106.81 7.416.177 10.51-2.046 3.15 2.433 6.836 2.57 10.87 1.63 7.2-1.527 5.644-9.04-.95-9.79zm-16.393 7.394c-2.128 0-3.854-1.03-3.854-2.3s1.726-2.3 3.854-2.3 3.853 1.02 3.853 2.29-1.726 2.29-3.853 2.29zm12.745-.23c-1.995 0-3.613-.93-3.613-2.08s1.61-2.08 3.61-2.08 3.61.93 3.61 2.07c0 1.14-1.62 2.07-3.62 2.07z"/>
  <path d="M133.722 29.93h-6.75l-.373 1.92c-1.79-2.436-4.45-2.702-7.97-.796-3.76 5.05-4.43 9.398-1.33 15.67-4.4-2.933-4.22-6.697-4.66-12.313-1.96-5.69-6.95-6.4-9.95-1.76L101.36 30h-5.04c.785 3.402 1.714 6.605 1.593 9.827-.656 6.12-5.333 8.108-6.906 1.595-.482-3.973.05-7.8 1.594-11.48l-8.65.18 1.22 4.925C86.9 44.84 79.24 48.29 75 40.32l-3.117-7.667c5.19-3.303 27.21-17.03 27.623-28.153-7.482 6.743-16.23 9.527-26.03 9.03.94 10.245-6.966 18.81-12.108 19.39l.012-23.83c-5.236 6.112-10.17 10.173-16.2 11.605-10.905-.66-3.49-9.39 3.66-11.952-7.968.74-19.008 7.29-12.016 14.608-6.26-2.21-4.106-9.4.797-13.81-10.86 4.06-14.03 19.52-.79 19.78 6.27-.12 11.76-1.83 16.88-4.25 1.67 14.01-12.76 20.52-21.66 11.3-2.72 6.22-5.94 8.71-12.48 9.15-4.32-.47-4.06-4.71.8-9.15-4.1 1.44-11.21 7.63-7.17 13.28 4.17 3.73 10.05-2.96 19.94-4.33 10.71-1.48 24.19.6 28.4 11.24l.36-14.26c-.13-5.66 6.33-7.07 7.34-.35l.25 16.53c3.55-8.82 9.83-7.5 14.1-8.07l19.94.33.25-12.51c.52-2.12 2.91-3.23 3.72.53V50.4l17.8.096c2.42 3.48 2.69 6.11 2.81 10.612 3.05.764 5.53 2.682 7.41 4.606-3.34-12.846-5.42-31.21-1.76-35.78zm-12.724 9.54c-.146-3.556 2.367-5.795 4.757-4.106l.198 9.37c-2.362.97-4.752-.556-4.955-5.265z"/>
  <path d="M52.23 12.196c-4.398.5-7.98 2.065-10.89 4.515-.318 1.55 1.21 2.49 2.704 2.69 1.81-3.81 5.115-5.57 8.186-7.2z"/>
  <path d="M87.29 26.6c8.247-8.744 23.226-11.407 30.28-19.716 1.77 4.403 7.577 3.19 11.686.265l-.47-4.69 1.992 2.4c2.153-.53 4.16-.34 6.024.58l3.73-2.5-2.51 3.4c.344 1.03.256 1.91-.267 2.65 1.826.46 3.97-.51 6.375-2.66 2.872 3.65 7.557 4.13 12.75 3.72 2.108 4.71 22.243 11.38 28.153 20.98-10.647-5.99-24.515-14.61-32.404-12.22-3.29-3.13-7.09-1.68-9.47 1.86-2.32-2.92-5.36-4.25-9.13-3.99-1.19 6-3.18 8.61-5.53 9.68.57-1.99.82-4.52.53-6.51-1.7 2.04-3.16 3.45-5.14 3.46.92-1.91 1.58-3.91 1.64-6.11-2.48.48-4.64 2.07-6.53 4.577-2.65-4.426-6.62-1.88-10.47 2.86-1.86-4.59-11.55-1.554-21.25 1.92z"/>
</svg>
