<!--
  SVG Music Logos
  Kiss v0.1.1
  https://github.com/tiagoporto/svg-music-logos
  Copyright (c) 2016-2018 Tiago Porto (http://tiagoporto.com)
-->
<svg xmlns="http://www.w3.org/2000/svg" viewBox="0 0 200 84">
  <circle cx="88.424" cy="77.956" r="2.357"/>
  <circle cx="6.857" cy="6.259" r="2.357"/>
  <circle cx="6.857" cy="12.777" r="2.345"/>
  <circle cx="6.857" cy="19.295" r="2.357"/>
  <circle cx="6.857" cy="25.813" r="2.357"/>
  <circle cx="6.857" cy="32.331" r="2.357"/>
  <circle cx="6.857" cy="38.849" r="2.357"/>
  <circle cx="6.857" cy="45.367" r="2.357"/>
  <circle cx="6.857" cy="51.885" r="2.357"/>
  <circle cx="6.857" cy="58.403" r="2.357"/>
  <circle cx="6.857" cy="64.921" r="2.357"/>
  <circle cx="6.857" cy="71.438" r="2.357"/>
  <circle cx="6.857" cy="77.956" r="2.357"/>
  <circle cx="13.867" cy="6.259" r="2.357"/>
  <circle cx="13.867" cy="12.777" r="2.357"/>
  <circle cx="13.867" cy="19.295" r="2.357"/>
  <circle cx="13.867" cy="25.813" r="2.357"/>
  <circle cx="13.867" cy="32.331" r="2.357"/>
  <circle cx="13.867" cy="38.849" r="2.357"/>
  <circle cx="13.867" cy="45.367" r="2.357"/>
  <circle cx="13.867" cy="51.885" r="2.357"/>
  <circle cx="13.867" cy="58.403" r="2.357"/>
  <circle cx="13.867" cy="64.921" r="2.357"/>
  <circle cx="13.867" cy="71.438" r="2.357"/>
  <circle cx="13.867" cy="77.956" r="2.357"/>
  <circle cx="20.877" cy="6.259" r="2.357"/>
  <circle cx="20.877" cy="12.777" r="2.357"/>
  <circle cx="20.877" cy="19.295" r="2.357"/>
  <circle cx="20.877" cy="25.813" r="2.357"/>
  <circle cx="20.877" cy="32.331" r="2.357"/>
  <circle cx="20.877" cy="38.849" r="2.357"/>
  <circle cx="20.877" cy="45.367" r="2.357"/>
  <circle cx="20.877" cy="51.885" r="2.357"/>
  <circle cx="20.877" cy="58.403" r="2.357"/>
  <circle cx="20.877" cy="64.921" r="2.357"/>
  <circle cx="20.877" cy="71.438" r="2.357"/>
  <circle cx="20.877" cy="77.956" r="2.357"/>
  <circle cx="27.62" cy="40.598" r="2.357"/>
  <circle cx="27.124" cy="32.331" r="2.357"/>
  <circle cx="30.276" cy="26.242" r="2.357"/>
  <circle cx="33.646" cy="19.547" r="2.357"/>
  <circle cx="37.168" cy="13.029" r="2.357"/>
  <circle cx="40.814" cy="6.259" r="2.357"/>
  <circle cx="47.824" cy="6.259" r="2.357"/>
  <circle cx="54.835" cy="6.259" r="2.357"/>
  <circle cx="48.257" cy="77.956" r="2.357"/>
  <circle cx="55.267" cy="77.956" r="2.357"/>
  <circle cx="62.277" cy="77.956" r="2.357"/>
  <circle cx="32.383" cy="45.75" r="2.357"/>
  <circle cx="37.206" cy="52.213" r="2.357"/>
  <circle cx="41.64" cy="58.348" r="2.357"/>
  <circle cx="44.495" cy="65.031" r="2.357"/>
  <circle cx="46.932" cy="71.494" r="2.357"/>
  <circle cx="36.38" cy="39.614" r="2.357"/>
  <circle cx="41.203" cy="46.187" r="2.357"/>
  <circle cx="45.091" cy="52.104" r="2.357"/>
  <circle cx="49.322" cy="58.825" r="2.357"/>
  <circle cx="52.248" cy="65.039" r="2.357"/>
  <circle cx="54.169" cy="71.502" r="2.357"/>
  <circle cx="61.39" cy="72.259" r="2.357"/>
  <circle cx="59.062" cy="64.593" r="2.357"/>
  <circle cx="56.159" cy="58.13" r="2.351"/>
  <circle cx="52.757" cy="51.448" r="2.357"/>
  <circle cx="48.322" cy="45.312" r="2.357"/>
  <circle cx="44.216" cy="39.942" r="2.357"/>
  <circle cx="40.547" cy="34.025" r="2.357"/>
  <circle cx="43.903" cy="27" r="2.357"/>
  <circle cx="47.229" cy="21.208" r="2.357"/>
  <circle cx="50.789" cy="14.526" r="2.357"/>
  <circle cx="33.234" cy="33.908" r="2.357"/>
  <circle cx="36.785" cy="26.782" r="2.357"/>
  <circle cx="40" cy="20.552" r="2.357"/>
  <circle cx="44.155" cy="13.421" r="2.357"/>
  <circle cx="117.443" cy="6.044" r="2.357"/>
  <circle cx="124.453" cy="6.044" r="2.357"/>
  <circle cx="131.463" cy="6.044" r="2.357"/>
  <circle cx="113.783" cy="12.581" r="2.357"/>
  <circle cx="120.794" cy="12.581" r="2.357"/>
  <circle cx="127.804" cy="12.581" r="2.357"/>
  <circle cx="110.124" cy="19.119" r="2.357"/>
  <circle cx="117.135" cy="19.119" r="2.357"/>
  <circle cx="124.145" cy="19.119" r="2.357"/>
  <circle cx="106.465" cy="25.656" r="2.357"/>
  <circle cx="113.707" cy="25.656" r="2.357"/>
  <circle cx="120.949" cy="25.656" r="2.357"/>
  <circle cx="128.191" cy="25.656" r="2.357"/>
  <circle cx="135.432" cy="25.656" r="2.357"/>
  <circle cx="142.668" cy="25.656" r="2.351"/>
  <circle cx="125.524" cy="32.193" r="2.357"/>
  <circle cx="132.924" cy="32.193" r="2.357"/>
  <circle cx="140.317" cy="32.193" r="2.351"/>
  <circle cx="123.153" cy="38.731" r="2.357"/>
  <circle cx="130.474" cy="38.731" r="2.357"/>
  <circle cx="137.789" cy="38.731" r="2.351"/>
  <circle cx="120.949" cy="45.268" r="2.357"/>
  <circle cx="128.379" cy="45.268" r="2.357"/>
  <circle cx="135.808" cy="45.268" r="2.357"/>
  <circle cx="118.592" cy="51.806" r="2.357"/>
  <circle cx="126.022" cy="51.806" r="2.357"/>
  <circle cx="133.451" cy="51.465" r="2.357"/>
  <circle cx="116.048" cy="57.929" r="2.357"/>
  <circle cx="123.58" cy="58.343" r="2.357"/>
  <circle cx="131.112" cy="57.923" r="2.357"/>
  <circle cx="113.082" cy="64.881" r="2.357"/>
  <circle cx="120.6" cy="64.881" r="2.357"/>
  <circle cx="128.117" cy="64.881" r="2.357"/>
  <circle cx="110.351" cy="71.418" r="2.357"/>
  <circle cx="118.007" cy="71.418" r="2.357"/>
  <circle cx="125.663" cy="71.418" r="2.357"/>
  <circle cx="107.248" cy="77.898" r="2.357"/>
  <circle cx="115.159" cy="77.956" r="2.357"/>
  <circle cx="123.069" cy="77.956" r="2.357"/>
  <circle cx="103.326" cy="32.193" r="2.357"/>
  <circle cx="110.725" cy="32.193" r="2.357"/>
  <circle cx="118.125" cy="32.193" r="2.357"/>
  <circle cx="167.923" cy="6.044" r="2.357"/>
  <circle cx="174.933" cy="6.044" r="2.357"/>
  <circle cx="181.944" cy="6.044" r="2.357"/>
  <circle cx="164.264" cy="12.581" r="2.357"/>
  <circle cx="171.274" cy="12.581" r="2.357"/>
  <circle cx="178.285" cy="12.581" r="2.357"/>
  <circle cx="160.605" cy="19.119" r="2.357"/>
  <circle cx="167.615" cy="19.119" r="2.357"/>
  <circle cx="174.626" cy="19.119" r="2.357"/>
  <circle cx="156.946" cy="25.656" r="2.357"/>
  <circle cx="164.188" cy="25.656" r="2.357"/>
  <circle cx="171.43" cy="25.656" r="2.357"/>
  <circle cx="178.671" cy="25.656" r="2.357"/>
  <circle cx="185.913" cy="25.656" r="2.357"/>
  <circle cx="193.149" cy="25.656" r="2.351"/>
  <circle cx="176.005" cy="32.193" r="2.357"/>
  <circle cx="183.404" cy="32.193" r="2.357"/>
  <circle cx="190.798" cy="32.193" r="2.351"/>
  <circle cx="173.634" cy="38.731" r="2.357"/>
  <circle cx="180.955" cy="38.731" r="2.357"/>
  <circle cx="188.27" cy="38.731" r="2.351"/>
  <circle cx="171.43" cy="45.268" r="2.357"/>
  <circle cx="178.859" cy="45.268" r="2.357"/>
  <circle cx="186.289" cy="45.268" r="2.357"/>
  <circle cx="169.073" cy="51.806" r="2.357"/>
  <circle cx="176.502" cy="51.806" r="2.357"/>
  <circle cx="183.932" cy="51.465" r="2.357"/>
  <circle cx="166.529" cy="57.929" r="2.357"/>
  <circle cx="174.061" cy="58.343" r="2.357"/>
  <circle cx="181.593" cy="57.923" r="2.357"/>
  <circle cx="163.563" cy="64.881" r="2.357"/>
  <circle cx="171.081" cy="64.881" r="2.357"/>
  <circle cx="178.598" cy="64.881" r="2.357"/>
  <circle cx="160.832" cy="71.418" r="2.357"/>
  <circle cx="168.488" cy="71.418" r="2.357"/>
  <circle cx="176.144" cy="71.418" r="2.357"/>
  <circle cx="157.729" cy="77.898" r="2.357"/>
  <circle cx="165.639" cy="77.956" r="2.357"/>
  <circle cx="173.55" cy="77.956" r="2.357"/>
  <circle cx="153.807" cy="32.193" r="2.357"/>
  <circle cx="161.206" cy="32.193" r="2.357"/>
  <circle cx="168.605" cy="32.193" r="2.357"/>
  <circle cx="74.404" cy="6.259" r="2.357"/>
  <circle cx="74.404" cy="12.777" r="2.357"/>
  <circle cx="74.404" cy="19.295" r="2.357"/>
  <circle cx="74.404" cy="25.813" r="2.357"/>
  <circle cx="74.404" cy="32.331" r="2.357"/>
  <circle cx="74.404" cy="38.849" r="2.357"/>
  <circle cx="74.404" cy="45.367" r="2.357"/>
  <circle cx="74.404" cy="51.885" r="2.357"/>
  <circle cx="74.404" cy="58.403" r="2.357"/>
  <circle cx="74.404" cy="64.921" r="2.357"/>
  <circle cx="74.404" cy="71.438" r="2.357"/>
  <circle cx="74.404" cy="77.956" r="2.357"/>
  <circle cx="81.414" cy="6.259" r="2.357"/>
  <circle cx="81.414" cy="12.777" r="2.357"/>
  <circle cx="81.414" cy="19.295" r="2.357"/>
  <circle cx="81.414" cy="25.813" r="2.357"/>
  <circle cx="81.414" cy="32.331" r="2.357"/>
  <circle cx="81.414" cy="38.849" r="2.357"/>
  <circle cx="81.414" cy="45.367" r="2.357"/>
  <circle cx="81.414" cy="51.885" r="2.357"/>
  <circle cx="81.414" cy="58.403" r="2.357"/>
  <circle cx="81.414" cy="64.921" r="2.357"/>
  <circle cx="81.414" cy="71.438" r="2.357"/>
  <circle cx="81.414" cy="77.956" r="2.357"/>
  <circle cx="88.424" cy="6.259" r="2.357"/>
  <circle cx="88.424" cy="12.777" r="2.357"/>
  <circle cx="88.425" cy="19.295" r="2.351"/>
  <circle cx="88.424" cy="25.813" r="2.357"/>
  <circle cx="88.424" cy="32.331" r="2.357"/>
  <circle cx="88.424" cy="38.849" r="2.357"/>
  <circle cx="88.424" cy="45.367" r="2.357"/>
  <circle cx="88.424" cy="51.885" r="2.357"/>
  <circle cx="88.424" cy="58.403" r="2.357"/>
  <circle cx="88.424" cy="64.921" r="2.357"/>
  <circle cx="88.424" cy="71.438" r="2.357"/>
</svg>
