<svg xmlns="http://www.w3.org/2000/svg" viewBox="0 0 200 200">
    <path d="M20.58 29.764c3.205 0 5.704-11.79 21.918-11.407C26.495 24.08 23.202 36.753 25.25 39.312c2.05 2.56 3.213-9.548 13.082-10.766-6.793 4.55-8.715 9.597-8.715 11.79 0 4.935 2.37 9.443 7.306 9.443 5.468 0 9.655-9.23 9.655-9.23v48.664C36.923 67.04 33.163 57.896 28.464 57.896S26.58 71.602 30.684 74.9c-13.927-11.193-8.41-18.887-11.364-20.25-3.137-1.448-5.383.793-5.383 4.53s3.67 12.627 5.938 15.507C15.815 71.46 9.14 61.667 9.14 55.77c0-2.63 5.033-4.103 5.033-5.243 0-3.49-6.6-2.115-9.677-9.292.17-5.902.746-9.064 3.396-13.714-1.076 6.672 2.13 16.713 6.344 14.997 1.576-.642-3.463-11.618-1.492-19.32 1.746-6.82 13.1-16.537 30.594-17.883-16.982 8.46-25.664 24.45-22.757 24.45z"/>
    <polygon stroke="#212126" stroke-width=".216" stroke-miterlimit="22.926" points="54.89,4.117 47.826,16.712 40.762,4.117"/>
    <path d="M47.53 2.57C22.66 2.57 2.5 22.733 2.5 47.603c0 24.87 20.16 45.03 45.03 45.03s45.032-20.16 45.032-45.03S72.4 2.572 47.532 2.572zm0 87.524c-23.467 0-42.49-19.024-42.49-42.492C5.04 24.134 24.062 5.11 47.53 5.11s42.493 19.024 42.493 42.492c0 23.467-19.025 42.492-42.492 42.492z"/>
    <path d="M115.2 175.555c3.71 6.507 7.794 10.267 15.178 14.055.464-5.298 4.31-11.492 15.224-14.184-11.07-1.377-18.82 9.1-20.87 6.964-1.676-1.746 1.794-9.4 16.918-11.236-18.148-2.76-22.71 3.674-26.45 4.4z"/>
    <path d="M114.95 174.828c-3.59-6.488-6.304-13.784-6.304-21.404 0-30.072 26.596-44.895 43.11-44.895-8.332 6.25-6.602 29.642-3.077 41.97-4.7 2.092-4.295 5.68-3.718 9.717-8.01-4.87-12.428-5.938-16.555-5.938-7.653 0-8.545 8.415-5.896 14.995-5.895-3.888-3.63-8.416-6.322-8.416-2.683-.002-2.264 7.603-1.24 13.968z"/>
    <path d="M190.46 175.555c-3.95 5.627-7.794 10.267-15.178 14.055-.464-5.298-4.31-11.492-15.224-14.184 11.07-1.377 18.82 9.1 20.87 6.964 1.676-1.746-1.794-9.4-16.918-11.236 18.15-2.76 22.712 3.674 26.45 4.4z"/>
    <path d="M190.712 174.828c3.59-6.488 5.553-13.784 5.553-21.404 0-30.957-25.846-44.895-42.358-44.895 8.33 6.25 6.6 29.642 3.076 41.97 4.7 2.092 4.294 5.68 3.717 9.717 8.01-4.87 12.428-5.938 16.555-5.938 7.653 0 8.545 8.415 5.896 14.995 5.897-3.888 3.632-8.416 6.324-8.416 2.682-.002 2.263 7.603 1.238 13.968z"/>
    <path stroke="#212126" stroke-width=".216" stroke-miterlimit="22.926" d="M152.327 150.306c-1.767 5.682-4.226 10.766-6.725 14.483.937 1.755 4.9 8.33 6.725 17.272 1.825-8.942 5.79-15.517 6.725-17.273-2.5-3.718-4.958-8.802-6.725-14.484zm-3.65 13.212c1.187-1.858 2.628-4.678 3.65-7.338 1.022 2.66 2.464 5.48 3.65 7.338-.988 1.953-2.588 4.572-3.65 7.132-1.062-2.56-2.662-5.18-3.65-7.132z"/>
    <path d="M152.47 107.368c-24.87 0-45.032 20.16-45.032 45.03s20.16 45.032 45.03 45.032S197.5 177.27 197.5 152.4s-20.16-45.032-45.03-45.032zm0 87.522c-23.47 0-42.493-19.024-42.493-42.492 0-23.468 19.024-42.492 42.492-42.492s42.49 19.024 42.49 42.492c0 23.468-19.023 42.492-42.49 42.492z"/>
    <path fill="none" stroke="#000" stroke-miterlimit="10" d="M79.542 149.32l9.23-7.49-12.713-1.608 1.452-14.098-9.314 12.39.256-20.85-8.267 18.286-8.566-23.668v31.394h-8v-31.394l-8.566 23.668-8.267-18.285.256 20.85-9.313-12.39 1.453 14.097L6.47 141.83l9.23 7.49c-4.773 2.888-7.305 10.916-6.344 20.913-.238-2.475 5.538-11.564 6.985-13.586-2.286 7.51-.255 14.034 3.91 20.507-2.948-16.085-.064-20.635 5.468-27.91-3.29 9.63-.533 14.452 6.067 20.733-4.486-8.01-3.7-14.223 3.204-21.532l8.63 10.534V147.9h8v11.08l8.63-10.535c6.906 7.31 7.69 13.522 3.205 21.532 6.6-6.28 9.356-11.102 6.067-20.734 5.532 7.276 8.416 11.826 5.468 27.91 4.165-6.47 6.196-12.996 3.91-20.506 1.447 2.022 7.222 11.11 6.984 13.586.963-9.996-1.57-18.024-6.342-20.912z"/>
    <path d="M47.53 107.368c-24.87 0-45.03 20.16-45.03 45.03s20.16 45.032 45.03 45.032 45.032-20.16 45.032-45.03-20.162-45.032-45.03-45.032zm0 87.522c-23.467 0-42.49-19.024-42.49-42.492 0-23.468 19.023-42.492 42.49-42.492s42.493 19.024 42.493 42.492c0 23.468-19.025 42.492-42.492 42.492z"/>
    <path stroke="#212126" stroke-width=".216" stroke-miterlimit="22.926" d="M160.436 91.078c6.01.987 16.62-6.35 24.01-13.91-2.18-.514-4.07-4.475-4.956-4.53-1.95-.475-1.282.52-4.53.746s-5.612-1.91-8.202.023c-1.493 1.67-5.298 8.8-14.29 12.05 6.772 2.134 5.234 4.185 7.968 5.62z"/>
    <path stroke="#212126" stroke-width=".216" stroke-miterlimit="22.926" d="M158.913 38.44l12.684-22.197L144.2 18.38l-9.387-9.113c-6.048 1.91-11.297 4.92-15.527 8.823-1.262 1.165 1.38 6.833.306 8.15-1.28 1.572-6.24-1.174-7.237.598-2.954 5.252-4.615 11.344-4.726 18.03l12.303 6.152 2.392 27.342 19.823-19.31 28.197 6.15-11.432-26.762z"/>
    <path d="M152.47 2.57c-24.87 0-45.032 20.162-45.032 45.032 0 24.87 20.16 45.03 45.03 45.03s45.032-20.16 45.032-45.03-20.16-45.03-45.03-45.03zm0 87.524c-23.47 0-42.493-19.024-42.493-42.492C109.977 24.134 129 5.11 152.47 5.11s42.49 19.024 42.49 42.492c0 23.467-19.023 42.492-42.49 42.492z"/>
    <path d="M75.072 29.764c-3.204 0-5.703-11.79-21.917-11.407C69.158 24.08 72.45 36.753 70.402 39.312c-2.05 2.56-3.212-9.548-13.08-10.766 6.792 4.55 8.714 9.597 8.714 11.79 0 4.935-2.37 9.443-7.306 9.443-5.468 0-9.655-9.23-9.655-9.23v48.664C58.73 67.04 62.49 57.897 67.19 57.897s1.88 13.706-2.223 17.004c13.928-11.192 8.41-18.887 11.364-20.25 3.138-1.447 5.384.794 5.384 4.53s-3.67 12.628-5.938 15.508c4.06-3.226 10.736-13.02 10.736-18.916 0-2.63-5.033-4.103-5.033-5.243 0-3.49 6.6-2.116 9.676-9.293-.17-5.902-.746-9.064-3.396-13.714 1.076 6.67-2.13 16.712-6.344 14.996-1.576-.643 3.463-11.62 1.492-19.322-1.745-6.82-13.1-16.538-30.594-17.884 16.982 8.46 25.664 24.45 22.758 24.45z"/>
</svg>
