<svg xmlns="http://www.w3.org/2000/svg" viewBox="0 63 200 75">
  <path d="M177.473 134.568H112.92l8.753-8.362h52.618l7.036-7.065 5.647 6.197-9.5 9.23zm-62.124-.973h61.728l8.54-8.3-4.322-4.743-6.6 6.628h-52.632l-6.715 6.415z"/>
  <path d="M43.418 122.972l-9.053-10.09V91.48l13.938-14.59 17.32 17.162-10.92 11.112 18.208 17.74H60.438l-17.02-16.292v16.36zm17.41-1.04h9.69L53.324 105.18 64.25 94.062 48.323 78.28 35.34 91.87v20.64l7.105 7.918v-14.994l1.164.012 17.218 16.485zm-12.15-21.247l-6.923-6.72 6.922-6.757 6.744 6.758-6.743 6.72zm-5.527-6.72l5.518 5.353 5.375-5.354-5.375-5.386-5.517 5.386z"/>
  <path d="M157.917 122.905h-26.153V90.168l13.624-13.81h12.53v46.547zm-25.18-.974h24.207V77.334h-11.148L132.74 90.57v31.36zm17.286-7.318h-10.62V93.33l9.82-9.64h.8v30.922zm-9.648-.974h8.674V85.226l-8.675 8.513v19.898z"/>
  <path d="M128.07 122.905h-8.442V84.92h-3.704l-8.407-8.56h33.55l-8.59 8.56h-4.406v37.985zm-7.47-.974h6.497V83.947h4.976l6.638-6.614H109.84l6.494 6.614h4.27v37.985z"/>
  <path d="M104.814 134.568H55.818l-9.108-8.41h58.104v8.41zm-48.616-.973h47.642v-6.462H49.2l6.998 6.462z"/>
  <path d="M107.667 134.68V102.45h-8.754v20.452h-8.51v-20.452H79.64l7.565-8.492h3.198V76.376h12.1l14.11 14.34v34.77l-8.946 9.193zm-9.727-33.2h10.7v30.802l7-7.192V91.115L102.097 77.35h-10.72v17.584H87.64l-5.83 6.545h9.568v20.45h6.56v-20.45zm10.922-6.546H97.94V83.866h.974l10.34 10.47-.392.598zm-9.95-.973h8.6l-8.6-8.708v8.71z"/>
  <path d="M87.446 122.905H77.018l-17.286-17.742 11.273-11.09-8.93-8.536V76.45h24.892v8.662h-12.69l8.734 8.433-11.365 11.622 9.877 9.71h5.924v8.028zm-10.013-.974h9.04v-6.082h-5.35l-10.853-10.67 11.36-11.615-8.418-8.105v-1.32h12.78V77.42H63.048v7.68l9.378 8.94L61.1 105.18l16.333 16.75z"/>
  <path d="M173.186 122.905h-12.123v-37.65l.147-.142 16.04-15.644L198 90.19l-12.297 12.026 11.76 12.28-8.217 8.045-16.06-15.71v16.075zm-11.15-.974h10.176v-16.26h1.132l15.9 15.51 6.85-6.707-11.76-12.28 12.28-12.01-19.374-19.347-15.203 14.83v36.265zm15.84-25.243l-6.335-6.565 6.337-6.432 6.335 6.448-6.336 6.55zM172.9 90.13l4.976 5.155 4.975-5.14-4.975-5.066-4.975 5.05z"/>
  <path d="M50.582 134.568H34.66l-12.65-11.826v11.826H10.345V110.74L2 102.45l8.345-8.54V76.45h11.663v5.513l15.9-15.64 8.265 8.09-24.16 24.396v7.735l28.57 28.023zm-15.537-.973H48.2l-27.16-26.64V98.41l23.754-23.986-6.883-6.738-15.835 15.577-1.04.006v-5.847h-9.717v16.883l-7.947 8.134 7.95 7.896v23.26h9.716v-12.133l1.027-.002 12.982 12.135z"/>
</svg>
