<!--
  SVG Music Logos
  Kreator - Flag of Hate 1985 v1.0.0
  https://github.com/tiagoporto/svg-music-logos
  Copyright (c) 2016-2018 Tiago Porto (http://tiagoporto.com)
-->
<svg xmlns="http://www.w3.org/2000/svg" viewBox="0 0 200 75" class="kreator">
  <path d="M110.042 69.817l10.03-8.543h51.8l6.724-5.998 5.453 5.635-9.878 8.94-64.13-.033z"/>
  <path d="M57.097 40.303l10.016-11.13-16.916-16.692-14.912 14.47v21.588l9.793 10.46V43.197l15.76 16.015 14.51.01-18.25-18.917zM49.53 34.07l-4.794-4.67 4.793-4.677 4.9 4.558-4.9 4.79z"/>
  <path d="M144.583 11.722l-13.7 13.887v33.403h26.274v-47.29h-12.574zm3.19 38.283h-8.07V29.55l6.193-6.568h1.877v27.023z"/>
  <path d="M129.194 59.013H119.06V21.48h-2.44l-9.946-9.758h36.22L132.57 21.48h-3.377v37.533z"/>
  <path d="M104.95 69.905H56.873l-9.125-8.68h57.2v8.68z"/>
  <path d="M102.704 11.74h-12.81v18.058h-3.24l-7.718 8.797h10.96v20.22h9.414v-20.22h7.563V69.775l10.032-8.952V27.175l-14.2-15.435zm4.168 18.058H99.31v-7.254h1.697l5.865 6.174v1.08z"/>
  <path d="M87.812 11.814h-25.15v9.125h.19l7.635 7.943-10.274 11.574 17.36 18.764h10.24V49.43h-5.788l-7.79-8.458 9.348-10.906-8.61-9.125h12.84v-9.126z"/>
  <path d="M194.408 27.287l-19.63-21.083-15.63 15.63v37.26h11.45V42.917l15.268 15.63 7.997-7.633-11.27-11.087 11.815-12.54zm-18.72 4l-5.09-4.726 4.908-4.906 5.09 5.09-4.908 4.542z"/>
  <path d="M12.583 11.814h11.35v6.355L39.737 2.465l8.235 8.457-24.036 24.242v4.343L53.98 69.736H35.954l-12.02-12.21v12.21h-11.35v-23.74l-8.235-8.364 8.235-8.184V11.814z"/>
</svg>
