<!--
  SVG Music Logos
  Krisiun - Unmerciful Order v0.1.1
  https://github.com/tiagoporto/svg-music-logos
  Copyright (c) 2016-2018 Tiago Porto (http://tiagoporto.com)
-->
<svg xmlns="http://www.w3.org/2000/svg" viewBox="0 0 200 108">
  <path class="krisiun__lettering" d="M191.336 40.09c-2.666 2.334-6.11 6.332-9.997 7.22-2.037-5.648 2.665-14.957 2.11-20.51-10.442 3.553-20.994 22.4-30.102 28.397-.333-2.11.222-12.33 3.11-16.55s4.887-16.217 2.555-20.327c-1.11 2.888-8.22 8.33-12.774 9.997-.556 7.997-5.888 12.33-6.888 10.663-1-1.666 2.444-6.664 3.74-11.552-4.814-3.665-5.555-11.7-4.666-16.254-12.996 5.887-4 23.733-17.105 32.286-1.443-4.11 1.704-17.81 1.815-21.252s.11-9.552-4.776-11.996c-.667 9.44-7.887 14.33-11.442 17.328.11 2.333.666 9.33-2 12.33 0-1.556 0-13.108-1.11-13.44-1.11-.334-4.776 1.332-3.81-.556.968-1.888 3.032-3 8.29-3-.89-5.997 5.183-15.438 7.516-19.326-11.552-2.666-20.438 8.997-22.437 9.22s-3.147-.89-3.814-2.778c-8.527 5.583-7.353 25.386-4.073 27.658 1.444 1 3.22-1 4-1 .777 0 .554 2.666-.78 2.777-1.332.11-5.664 0-8.996.444-.666-2 .222-10.886 0-16.44-4.332-1-6.776-5.332-9.165-9.775-2.376 3.017-3.105 8.056-3.287 13.084-.303-.252-.705-.44-1.1-.755-3.783-3.02-7.112-8.093-9.528-13.347-1.777 1.222-8.022 5.683-9.133 6.238-1.11.555-2-5.554-2.777-5.443-.778.11-5.554 4.554-7.442 6.11-1.888 1.554-1.666 2.554-.89 9.218.78 6.665-.22 9.33-1.22 13.663-1.556-.778-2.445-2.555-2-3.443.444-.89 3.777-1.333 1.333-4.332-4.418-5.422-.555-18.4-.555-22.067-7.55 3.556-11.253 12.59-11.92 19.403-.554-2.11-2.96-3.777-5.96-4.443-2.503-.556-6.442-3.554-9.164-6.776-3.388 3.665-3.054 9.997-.5 22.992S4.73 58.308 2.398 75.524s6.11 25.325 11.885 29.324c-5.11-28.102 10.44-37.32 14.328-38.765-1.665-2.333-1.776-7.11-1.554-9.775 8.997 10.996 18.105 15.07 23.437 12.625-10.33-11.885-.666-22.955 2-25.732-1.223-1.998-3.444-3.22-4.333-6.552-.89-3.332 1-4.998 3.22-6.887.445 1.445 1.167 2.222 2.222 3.11-1.555 1.112-2.832 3.222-3.443 5.555 2.332.11 5.775 4.22 8.885 11.996 3.11 7.776 9.22 8.665 13.55 9.757-.332-2.906 1.445-10.31 3.89-12.755-1.445 3.332-.78 13.662 0 18.66 1.332-2.776 10.55-12.773 15.772-14.994 5.22-2.22 7.442-.89 10.552-1.11 3.11-.223 3.33-2.667 3.035-4.444 4.776.555 7.294 4.332 8.826 6.887-2.8 1.556-4.233 4.444-4.974 7.44 1.777-.685 6.442-1.996 8.33-2.663 1 .444 2.334 1.888 3.81 2.98.255-.684.3-1.647.41-2.98 16.773.444 18.884 4.665 20.846 7.775-2.147 1.777-7.738 7.442-7.85 12.55 1.445-1.443 9.776-4.442 11.553-4.997.555.222.625 1.847 1.333 3.295 1.444-1 2.888-3.184 3.22-4.517.78-.11 7.554-.11 10.664-.333.666-2.555 3.665-8.33 5.665-9.997.778.555 2.333 1.11 3.332 2.777-1.112 1.11-4.555 5.22-5.888 8.664 3.878 8.61 1.925 21.4-.407 28.287 10.108-5.886 18.29-27.694 19.4-33.247 1.112-5.554 8.332-11.478 13.885-15.476-1.888-1.89-5.665-9.553-6.664-11.886zM67.266 28.948c.694 3.85.212 8.145 0 10.7-1.764-.583-2.81-2.862-4.296-4.906.89-.575 2.925-4.435 4.295-5.793zM24.498 48.925c-1.887 0-2.183 8.68-1.887 14.455-11.996 6.368-13.106 18.883-12.81 32.952-8.22-15.624 3.702-32.064 3.702-44.948 0-10.885-5.332-17.03-5.183-24.436 5.035 6.516 8.738 4.147 9.96 7.146 1.222 3 2.34 5.517 5.672 5.554-.11-2.777 1.86-10.774 5.102-15.958-1.11 5.443.592 10.81 3.48 12.662-1.666.333-3.85 2.48-3.85 4.37 0 3.035 2.96 4.405 6.96 5.182-1.555 10.81 4.628 17.957 9.07 21.29-7.885-.445-14.253-18.27-20.217-18.27zm29.603-11.907c.874-1.052 1.314-2.72 2.628-4.007-.373-2.05-3.57-6.248-3.793-8.026-8.22 4.85-9.172 7.48-7.33 14.106.554 2 1.332 3.443 2.665 4.554-3.332.778-6.553 9.886-5.998 14.55-5.295-5.553-1.333-19.137-1.333-25.213 0-3.66-.7-6.883-1.665-8.885 1.666-2.22 3-3.777 4.5-4.554 1.165 2.89 1.387 3.592 2.61 4.148 2.998-1.666 7.44-5.258 8.996-6.59 1.556 5.443 6.295 11.07 9.072 11.404-2.888 2.777-4.406 5.98-5.294 6.757 2.888 4.553 3.888 6.497 7.775 7.608-.11 3 1 10.22 2 12.218-6.11-1.63-10.61-15.513-14.83-18.068zm23.27 3.962c-1.666 1.444-5.776 5.554-6.11 10.996-.888-5.998-1.22-8.997.556-13.44s-.556-13.106-.556-17.216c1.777 2.444 4.11 4.554 6.11 4.776-1.112 3.554-.778 11.996 0 14.884zm2.333 16.217c2-8.108 2.786-16.318 9.923-15.217 3.48.537 3.776-.958 3.776-4.813 0-2.163-.69-3.535-1.85-3.777-1.778-.37-2.718 1.518-4.273.907-.896-.352-1.414-4.728-1.504-8.238-.095-3.656 1.16-7.944 3.368-11.627 2.463 2.742 5 2.008 7.664 1.11 3.517-1.184 5.48-7.182 14.143-8.774-4.11 3.776-6.072 9.625-6.072 11.736-5.332 2.666-9.793 4.273-9.793 11.18 0 1.96 4.45.31 5.894.533s.38 11.76.937 15.09c-6.886.335-17.216 2.557-22.214 11.887zm38.802-6.998c-2.666-4.333-7.59-8.498-8.812-8.61 3-2.332 2.888-11.273 2.777-12.94 2-.332 4.665-4.553 6.33-7.33-.665 5.443-1.998 10.996-1.776 15.328.222 4.332 1.925 11.108 1.48 13.55zm24.584 19.92c.592-1.112 1.11-1.778 1.48-2.37.52.22 1.112 1.184 1.112 2.072-1.037.223-2.148.15-2.592.297zm6.257-27.474c0 2.888.11 16.772-.556 21.66-2.333-5.22-11.885-14.106-26.88-11.552.11-2-.222-2.22 0-2.888 2-.555 8.553-7.997 9.886-12.218 1.333-4.22 1.777-15.662 4.22-18.772.112 4.332-.22 7.553 3.333 9.44-2.333 3.444-6.11 10.997-4.776 13.274 1.333 2.277 7.775 2.832 8.886 2.166s5.887-9.663 6.22-12.662c2-1 4-2.11 6.11-4-1.334 3.556-6.444 12.664-6.444 15.552zm31.433 22.585c-2.02 6.854-3.554 13.404-7.553 20.18-.11-5.554-2.555-12.366-3.777-13.366 1.555-2.555 5.332-6.85 7.11-7.738-1.778-3.97-7.148-8.21-8.148-9.655-2.555 2.222-7.96 9.767-8.403 11.433-2.22.222-4.554.333-5.776.555.778-2.333.11-4.776 0-6.33 1.555-.334 10.108-7.665 11.552-11.108s9.108-12.107 12.33-13.94c-1.044 4.246-.936 9.093-.445 12.644.684 4.945 2.934 6.47 4.332 5.406 1.108-.843 4.165-2.666 7.775-6.276 1 1.11 2 3.684 2.444 4.35-4.11 2.666-9.737 8.07-11.44 13.847z"/>
</svg>
