<!--
  SVG Music Logos
  Led Zeppelin - Unofficial v1.0.0
  https://github.com/tiagoporto/svg-music-logos
  Copyright (c) 2016-2018 Tiago Porto (http://tiagoporto.com)
-->
<svg xmlns="http://www.w3.org/2000/svg" viewBox="0 0 200 50.2">
  <path d="M5.5 4.6h2.2v37.8h17v2.8H5.5V4.6"/>
  <path d="M12.8 4.5h11.8v2.8h-9.7v3h15.6V13H14.9v23.5h9.7v2.7H12.8V4.5"/>
  <path d="M34.1 4.5h13.1c1.3 0 2.5.6 3.5 1.7s1.8 2.3 2.2 3.4c.4 1.1.6 2 .7 2.6.1.6.1 1.2.1 1.9 0 1 0 1.8-.1 2.6s-.2 1.4-.3 2l-12 26.4-7.1.1V4.5h-.1zm17 13.7c.1-.5.2-1.1.2-1.7.1-.6.1-1.4.1-2.2 0-1.1-.2-2.2-.6-3.2-.4-1-1-1.9-1.8-2.7-.8-.8-1.7-1.1-2.6-1.1h-10v35.2h3.8l10.9-24.3z"/>
  <path d="M68.2 4.4h14.2v5.2L67.7 40.1v2.3h31.6v2.8H65.5v-5.9L80.2 9.6l.1-2.3H68.2V4.4"/>
  <path d="M87.2 4.5H99v2.8h-9.7v3h15.3V13H89.3v23.5H99v2.7H87.2V4.5"/>
  <path d="M108.4 13v32.1h-2.2V4.6h14.7c1.5 0 2.3 1 2.3 2.8v2.9c0 1.8-.8 2.7-2.3 2.7h-12.5zm0-5.6v2.9h12.5V7.4h-12.5z"/>
  <path d="M127.6 13v32.1h-2.2V4.6h14.7c1.5 0 2.3 1 2.3 2.8v2.9c0 1.8-.8 2.7-2.3 2.7h-12.5zm0-5.6v2.9h12.5V7.4h-12.5z"/>
  <path d="M144.6 4.5h11.8v2.8h-9.7v3h15V13h-15v23.5h9.7v2.7h-11.8V4.5"/>
  <path d="M163.6 4.5h2.2v37.9h12V45h-14.2V4.5"/>
  <path d="M173.2 4.5h2.3v34.7h-2.3V4.5"/>
  <path d="M180.3 42.7V4.5h2.1v6.8l10.3 12.4V4.5h2.1v43.9h-2.1V27.5l-10.3-12.3v27l-2.2.5"/>
</svg>
