<!--
  SVG Music Logos
  Led Zeppelin - Four Symbols v1.0.0
  https://github.com/tiagoporto/svg-music-logos
  Copyright (c) 2016-2018 Tiago Porto (http://tiagoporto.com)
-->
<svg xmlns="http://www.w3.org/2000/svg" viewBox="0 75 200 52">
  <g>
    <path d="M32.78 112.58c0-2.3-2.958-3.83-5.244-3.83-2.715 0-4.98 2.21-5.085 4.42-.068 1.377.488 2.09 1.14 2.09 1.282 0 2.303-1.5 3.272-2.826-.505-.232-1.283-.087-1.535-.065-.246-.268-.273-1.263.756-1.263 1.646 0 3.79 1.648 3.79 3.753 0 2.61-.79 3.653-2.675 3.653-2.693 0-18.903-13.345-20.465-15.618-.463-.674 10.87-11.317 12.64-12.75.65-.526.818-.597.65-1.33-.172-.743-.497-1.49-.718-1.988-.183-.412-.585-.432-1.56-.25-1.24.23-2.297.374-5.842.44 0 0-4.284.005-5.527-.04-1.04-.04-1.202-.026-1.62.84-.493 1.02-1.517 2.654-2.254 3.833.368.308.495.63.716.848 1.232-.742 1.515-1.232 2.02-1.648.918-.133 2.306-.03 5.518-.063 1.946-.02 3.474-.232 5.096-.358-3.32 3.675-11.718 11.332-12.992 13.6-1.274 2.27 15.803 17.14 22.74 17.14 4.425.002 7.18-5.142 7.18-8.59z"/>
    <path d="M31.977 113.848H52.07c5.33 0 9.774-4.122 11.786-7.21-4.634 3.088-8.328 5.464-12.498 5.464h-8.62c.128-1.423.338-2.68-.336-3.9 1.853.04 3.832-.717 5.053-2.107-2.89-.33-6.527.716-8.587.716 0 0-1.685 1.114-.72 1.56 3.2 1.473 2.715 3.73 2.715 3.73H32.04l-.063 1.748z"/>
    <path d="M38.82 92.58c-2.036-2.147-4.33-4.886-4.33-6.655 0-.742.522-1.488 2.333-1.488 1.026 0 2.57 1.02 2.78 1.824-.1.342-.55.706-.68.934l.026.14s3.54-1.718 3.763-2.42c.223-.703-1.796-3.032-4.438-3.032-2.98 0-6.297 4.127-6.297 6.527s4.426 6.784 4.816 7.352c2.323 2.5 2.997 3.773 2.997 5.437 0 1.548-.657 2.463-1.736 2.463-1.262 0-3.222-1.316-3.41-2.337-.126-.67-.075-1.97-.075-1.97s-3.363 2.62-3.654 3.233c.782 2.062 3.19 2.957 5.632 2.957 2.623 0 5.79-3.242 5.79-5.96 0-2.132-1.828-5.227-3.517-7.007z"/>
    <path d="M25.89 89.546c-3.705 0-6.825 2.41-6.825 6.596 0 4.187 2.75 6.206 6.456 6.206 3.11 0 6.233-3.208 6.42-7.21 0-3.172-2.46-5.592-6.05-5.592zm1.14 10.654c-2.213 0-6.064-2.537-6.064-5.77 0-1.17.353-2.96 2.478-2.96 3.526 0 6.296 3.802 6.296 5.403 0 1.518-.506 3.327-2.71 3.327z"/>
    <path d="M50.6 88.872c-4.807 0-7.146 3.445-7.146 6.485.187 4.002 3.317 5.842 6.906 5.842 3.705 0 6.233-3.106 6.233-6.685 0-2.722-2.276-5.643-5.994-5.643zm1.192 10.486c-2.816 0-6.233-2.473-6.233-5.138 0-1.853.845-3.41 2.355-3.41 2.81 0 6.403 3.666 6.403 5.81 0 1.458-.626 2.738-2.526 2.738z"/>
    <path d="M50.023 93.883c-.518 0-.937.304-.947.958-5.15.03-22.425.684-22.425.684-.177-.372-1.227-.684-1.64-.684-.592 0-1.222.354-1.222.996 0 .832.335 1.922.926 1.922.518 0 1.968-.71 2.068-1.24 12.474-.83 15.924-.73 22.445-.844.213.653.624 1.212 1.158 1.326.578.123 1.28-.826 1.212-2.116-.034-.64-.982-1-1.574-1z"/>
  </g>
  <g>
    <path d="M83.882 91.61c-7.86 0-14.234 5.932-14.234 13.77 0 7.838 6.373 14.192 14.234 14.192s14.234-6.354 14.234-14.192-6.373-13.77-14.234-13.77zm0 25.16c-6.605 0-12.297-5.5-12.297-11.896 0-6.396 5.355-11.58 11.96-11.58s12.907 6.405 12.907 12.8-5.965 10.677-12.57 10.677z"/>
    <path d="M87.618 103.352c2.087-6.075 1.576-12.898-2.66-18.793-.546-.762-.907-.686-1.334-.23-4.7 4.994-6.2 12.27-3.995 19.222-8.928 2.228-14.068 7.165-15.64 15.595-.106.564-.07.86.68.846 7.76-.126 14.487-3.885 18.856-9.293 3.834 4.617 10.023 7.986 18.38 8.113.763.012.68-.305.457-.87-3.558-9.02-9.03-13.376-14.745-14.59zm-4.07-15.772c3.296 5.733 3.91 11.04 2.59 15.527-1.37-.163-2.744-.155-4.1.004-1.508-4.753-1.2-10.225.983-15.482.194-.466.414-.244.527-.048zM67.12 116.186c1.394-4.498 5.288-9.8 13.05-11.12.613 1.525 1.41 2.994 2.384 4.37-3.49 3.88-8.873 6.492-15.166 7.283-.267.033-.396-.122-.268-.534zm15.553-11.345c.91-.01 1.833.058 2.757.213-.376.848-.834 1.655-1.35 2.428-.542-.84-1.014-1.722-1.407-2.64zm2.284 3.9c.714-1.082 1.34-2.215 1.866-3.385 4.45 1.172 8.747 4.214 12.225 10.314.29.51.065.622-.46.547-6.238-.902-10.69-3.658-13.63-7.476z"/>
  </g>
  <g>
    <path d="M127.205 80.828c-7.675 0-13.897 5.826-13.897 13.013 0 7.188 6.222 13.014 13.897 13.014s13.897-5.826 13.897-13.013c0-7.186-6.222-13.012-13.897-13.012zm.22 23.583c-6.28 0-11.37-4.675-11.37-10.443s5.09-10.444 11.37-10.444c6.28 0 11.37 4.676 11.37 10.444 0 5.768-5.09 10.444-11.37 10.444z"/>
    <path d="M138.233 92.2c-7.783 0-14.092 5.995-14.092 13.39s6.31 13.014 14.093 13.014 14.092-5.617 14.092-13.013-6.31-13.39-14.092-13.39zm-.322 23.624c-6.162 0-11.16-4.704-11.16-10.507 0-4.782 4.187-10.507 11.16-10.507 6.164 0 11.16 4.22 11.16 10.023 0 6.506-4.995 10.99-11.16 10.99z"/>
    <path d="M118.435 93.02c-8.41 0-13.16 6.012-13.16 12.297 0 7.094 6.128 13.665 13.686 13.665 7.56 0 13.687-5.75 13.687-12.844 0-8.73-6.174-13.118-14.212-13.118zm.652 22.804c-6.14 0-11.118-4.54-11.118-10.14 0-5.03 4.382-10.138 11.117-10.138 6.14 0 11.118 4.54 11.118 10.14 0 5.598-4.978 10.138-11.118 10.138z"/>
  </g>
  <g>
    <path d="M177.58 81.755c-11 0-19.918 8.25-19.918 18.424s8.918 18.423 19.92 18.423c11 0 19.918-8.25 19.918-18.424s-8.918-18.425-19.92-18.425zm0 33.9c-9.24 0-16.73-6.93-16.73-15.476 0-8.548 7.49-15.477 16.73-15.477 9.242 0 16.733 6.93 16.733 15.476 0 8.546-7.49 15.475-16.732 15.475z"/>
    <path d="M183.835 89.185c-.107-.067-.215-.133-.32-.207-.36-.255-.517-.664-.833-.96-.265-.247-.535-.448-.877-.565-.127-.043-.22-.11-.302-.217-.375-.473-.912-.72-1.5-.695-.44.02-.867-.033-1.275-.12-.457-.095-.862-.027-1.287.08-.272.068-.454.297-.734.35-.313.062-.618.19-.886.33-.557.295-1 .743-1.246 1.32-.115.27-.272.465-.51.635-.697.5-.955 1.18-.84 1.998.023.172.02.342-.062.495-.296.563-.237 1.154-.155 1.745.042.308.14.617.045.924-.222.708-.108 1.407.023 2.108.027.143.01.267-.038.41-.153.458-.31.955-.117 1.405.217.505.072.967-.026 1.433-.085.402-.027.81-.126 1.205-.017.067.024.16.066.225.15.232.146.47.06.718-.054.15-.072.293 0 .442.037.073.04.157.01.235-.073.194-.043.385.003.578.072.302.222.614.188.905-.04.346-.105.69-.143 1.04-.023.214-.01.395.062.59.176.484.367.96.303 1.498-.03.24-.02.527.094.728.246.43.393.922.766 1.282.15.145.31.28.455.428.395.4 1.127 1.307 1.35 1.59-.097.484.19 2.983.268 3.08.414-.143 1.146-.365 1.332-.648-.13-.915-.116-1.863-.1-2.827.29-.36 1.22-1.16 1.55-1.495.368-.374.616-.83.907-1.257.34-.5.392-1.022.358-1.563-.026-.417-.07-.815.055-1.233.13-.432.24-.885.15-1.34-.076-.385-.06-.76 0-1.14.05-.343.073-.684.016-1.035-.072-.45-.033-.905.135-1.338.063-.16.02-.285-.04-.432-.206-.51-.443-1.02-.185-1.588.066-.145.11-.306.065-.467-.2-.698-.014-1.394.014-2.09.018-.446.088-.885.21-1.312.118-.405-.073-.832.127-1.23.07-.133.147-.284.145-.425-.004-.26.146-.35.356-.44.266-.117.553-.228.777-.387.398-.282.717-.66.923-1.11.04-.088.075-.192.174-.235.344-.15.56-.423.765-.712.22-.308.188-.497-.145-.705zm-7.857 13.304c-.12.12-.217.01-.318-.04-.144-.072-.176-.22-.25-.34-.055-.086-.123-.22-.25-.13-.113.082-.13.23-.013.328.203.166.308.397.467.59.155.19.1.315-.147.37-.22.05-.193.19-.11.326.18.29.364.576.558.857.104.15.14.305.124.48-.02.197-.117.21-.252.098-.17-.14-.29-.32-.418-.494-.07-.096-.143-.22-.28-.124-.127.09-.074.215.02.3.396.365.563.87.86 1.292.102.144.13.31-.032.397-.165.09-.263-.053-.328-.19-.01-.025-.026-.048-.04-.07-.06-.082-.124-.178-.24-.104-.096.06-.077.173-.017.24.223.246.313.56.482.833.024.037.05.074.07.114.045.097.11.208.012.296-.096.087-.19-.005-.274-.052-.07-.04-.128-.1-.188-.153-.054-.048-.11-.073-.166-.01-.06.062-.06.123.013.18.314.248.46.615.683.924.16.22.038.486-.046.718-.043.12-.17.134-.265.022-.08-.097-.146-.204-.22-.305-.04-.053-.093-.09-.167-.06-.07.03-.092.092-.083.155.025.172.076.333.27.4.094.03.145.084.1.18-.042.09-.122.1-.21.074-.176-.05-.31-.162-.433-.28-.408-.394-.85-.76-1.056-1.31-.098-.263-.153-.53-.185-.803-.01-.084-.032-.198.067-.24.106-.047.19.042.262.108.273.25.542.505.82.75.076.068.16.243.28.096.087-.11.005-.245-.107-.35-.402-.374-.853-.716-1.178-1.146-.337-.446-.475-1-.418-1.568.03-.292.156-.34.396-.156.274.21.57.395.812.643.086.087.212.25.335.125.114-.116-.01-.267-.117-.37-.31-.29-.636-.567-.936-.868-.257-.258-.42-.574-.487-.93-.028-.15-.06-.298-.092-.446-.03-.132.002-.244.093-.347.1-.114.17-.107.29 0 .303.264.508.596.744.908.048.063.064.207.183.136.09-.054.02-.162-.012-.245-.145-.39-.416-.706-.66-1.037-.21-.285-.345-.605-.508-.912-.116-.217-.137-.464-.104-.703.032-.24.05-.475.022-.717-.013-.11-.016-.245.126-.298.12-.044.178.063.26.118.32.22.49.572.783.82.093.08.117.233.18.366.066-.053.117-.107.18-.14.157-.084.298-.078.397.093.25.424.455.87.734 1.28.068.103.082.22-.016.32zm.972 8.265c.02.626.146 1.612.14 2.087-.053-.003-.42.33-.474.328-.17-.196-.106-1.035-.1-1.42.004-.42.047-.85-.068-1.27-.036-.132-.016-.282-.01-.424.027-.528-.18-1.057.017-1.583-.247-.475-.014-.975-.046-1.463-.034-.505-.026-1.04.055-1.557.01-.072-.024-.184.09-.196.127-.013.214.072.24.184.048.22.06.445.028.663-.035.242-.016.473.017.713.048.35-.058.708.032 1.06.108.42.033.84.014 1.266-.026.536.046 1.075.064 1.613zm-.683-12.32c.027-.69-.055-1.383-.007-2.07.023-.336-.008-.696.192-1.006.107-.025.173.032.227.11.064.662.075 1.323-.088 1.976-.025.1-.032.193-.013.29.09.45-.002.904.043 1.355.01.112-.006.263-.15.284-.172.025-.2-.143-.228-.253-.06-.225.013-.456.022-.684zm.3 5.728l.113.018c.06.157.114.315.124.483.007.112-.036.186-.156.21-.135.03-.142-.068-.17-.15-.067-.202-.098-.396.09-.56zm.037-1.88c-.177-.002-.21-.16-.205-.294.004-.123-.02-.313.17-.304.15.007.253.138.242.308-.006.14-.025.293-.208.29zm.07-1.71c.09.127-.02.234-.05.347-.015.058-.025.16-.13.13-.073-.02-.065-.097-.068-.17.02-.11.055-.23.15-.318.026-.024.076-.02.098.01zm-.278-8.436l.242.053c.01.07-.007.112-.062.115-.116.006-.146-.088-.18-.168zm7.126-2.274c-.12.11-.235.25-.382.304-.304.114-.58.282-.904.364-.877.224-1.78.392-2.565.87-.123.077-.19.19-.256.307l-.116.096c-.066.02-.126.057-.08.13.045.072.112.078.173.006.022.002.034-.007.037-.027.555-.315 1.138-.562 1.777-.673.196-.034.376-.16.59-.096.098.072.124.175.13.286-.08.16-.234.22-.393.27-.24.08-.51.102-.685.32-.023.028-.083.036-.128.043-.8.117-1.332.597-1.765 1.212-.077.11-.176.206-.246.32-.04.065-.06.168.03.213.084.042.183-.016.204-.09.115-.4.546-.484.795-.748.086-.09.23-.102.324-.002.12.13.207.288.1.462-.23.38-.51.734-.697 1.14-.04.09-.16.142-.242.214-.3.268-.558.574-.834.865-.126.132-.316.207-.433.363-.054.072-.096.14-.03.214.074.08.16.042.218-.018.252-.257.548-.467.774-.75.19-.237.48-.388.65-.65.055-.088.168-.074.247-.01.108.085.113.21.058.317-.11.214-.208.446-.368.623-.344.378-.63.806-1.018 1.147-.064.056-.097.13-.095.215.002.09-.057.213.082.25.105.027.156-.063.21-.14.19-.28.445-.51.684-.75.085-.087.145-.183.21-.28.06-.093.137-.18.266-.155.144.028.17.15.185.267.015.116.016.237-.037.342-.225.45-.397.923-.737 1.326-.226.27-.383.596-.662.834-.054.046-.075.132-.015.194.07.073.147.022.187-.034.228-.313.608-.494.787-.85.064-.125.17-.156.302-.108.15.055.176.188.15.31-.053.25-.1.512-.207.743-.23.492-.496.967-.748 1.448-.033.063-.078.122-.103.188-.037.097-.045.214.067.256.1.04.112-.087.163-.142.22-.235.21-.586.45-.81.06-.056.105-.136.203-.114.107.023.133.116.154.203.015.06.033.124.025.183-.08.565-.12 1.13-.48 1.636-.19.27-.37.563-.53.86-.038.07-.06.147-.08.223-.018.06-.033.132.037.167.084.04.15-.02.184-.08.108-.184.236-.367.295-.568.073-.243.3-.283.468-.378.13-.075.215.083.203.205-.062.63-.04 1.287-.474 1.83-.343.428-.587.918-.908 1.36-.03.042-.053.095-.062.145-.01.06-.017.133.06.16.06.02.1-.034.137-.072.2-.203.284-.475.45-.698.14-.187.275-.38.417-.564.043-.055.1-.118.183-.095.095.026.116.112.114.194-.01.353.01.713-.206 1.03-.075.113-.13.237-.15.37-.036.21-.14.39-.295.534-.28.265-.497.57-.685.9-.048.084-.146.18-.038.257.104.076.145-.065.212-.113.264-.19.365-.51.61-.714.082-.07.164-.172.286-.093.115.074.08.2.033.292-.225.428-.272.93-.558 1.324-.29.4-.63.766-.953 1.143-.13.15-.262.3-.41.434-.07.065-.164.173-.287.088-.125-.087-.128-.22-.06-.336.156-.26.165-.587.425-.797.05-.042.064-.127.094-.19.035-.04.072-.078.104-.12.04-.05.08-.114.01-.157-.052-.034-.096.023-.13.065-.02.027-.037.058-.056.087-.05.02-.103.038-.154.058-.11.043-.232.115-.327-.006-.098-.126-.058-.277.054-.36.27-.2.327-.532.54-.765.045-.048.1-.127.033-.192-.08-.078-.127.01-.178.055-.125.108-.273.203-.413.07-.126-.122-.087-.29.028-.412.15-.16.143-.358.17-.55.22-.12.352-.328.527-.493.075-.07.08-.164 0-.236-.065-.06-.158-.045-.177.035-.043.18-.195.244-.33.33-.065.04-.08.16-.186.13-.125-.034-.062-.148-.083-.227.182-.408.415-.787.7-1.135.06-.072.13-.152.03-.228-.116-.087-.163.025-.203.1-.1.183-.348.238-.42.448-.014.04-.074.057-.12.034-.074-.037-.104-.1-.082-.18.05-.18.15-.34.253-.497.112-.17.253-.33.234-.553.04-.035.082-.07.124-.104.08-.066.174-.177.1-.243-.092-.083-.166.045-.23.116-.036.04-.07.082-.106.123l-.128.037-.18-.045c-.026-.1-.006-.197.054-.28.214-.295.304-.663.597-.913.087-.073.254-.187.112-.3-.148-.12-.206.07-.28.16-.122.15-.243.302-.48.215-.01-.04-.02-.078-.028-.118.154-.262.34-.503.534-.736.072-.086.104-.183.017-.26-.093-.083-.137.025-.194.077-.14.128-.237.098-.28-.083-.035-.155.04-.275.136-.387.11-.13.23-.256.243-.436.028-.17.15-.24.307-.29.068-.02.13-.07.128-.156 0-.05-.025-.087-.076-.096-.085-.015-.17-.007-.23.06-.028.03-.057.074-.06.114-.014.146-.11.215-.237.262-.294-.126-.328-.26-.11-.468.2-.187.24-.455.394-.666.05-.07.01-.193-.09-.222-.094-.03-.106.075-.123.14-.036.132-.095.24-.262.207-.188-.038-.157-.2-.125-.302.083-.267.16-.536.383-.748.18-.17.316-.386.46-.59.05-.072.073-.183-.028-.237-.093-.05-.18.008-.235.088-.135.192-.266.384-.397.577-.058.085-.12.17-.242.126-.117-.044-.12-.14-.103-.246.06-.333.148-.653.4-.907.098-.1.055-.215.054-.327.073-.03.15-.057.222-.09.08-.036.13-.097.117-.186-.012-.068-.064-.1-.135-.11-.094-.01-.16.03-.194.11-.03.072-.052.147-.078.22-.127-.024-.28.153-.375-.012-.084-.15-.054-.31.11-.426.033-.025.07-.075.07-.112-.01-.386.307-.607.484-.896.064-.104.108-.204.007-.286-.127-.103-.197.01-.26.1-.05.074-.112.125-.205.08-.086-.044-.104-.13-.08-.21.027-.083.07-.163.114-.24.202-.346.41-.69.61-1.035.054-.09.13-.216 0-.276-.116-.053-.197.066-.25.16-.027.047-.037.1-.05.153-.043.154-.136.283-.308.23-.167-.05-.192-.23-.128-.36.138-.276.232-.576.423-.83.108-.142.208-.29.31-.44.06-.085.063-.177-.032-.23-.1-.058-.144.027-.182.1-.034.064-.073.124-.146.154-.102.043-.225.1-.312.03-.08-.066.022-.16.047-.24.122-.386.42-.635.734-.87.073-.054.224-.112.154-.202-.06-.078-.204-.04-.27.075-.032.026-.066.05-.1.077l-.336.012-.068-.118c.14-.29.342-.527.65-.662.19-.083.252-.192.066-.33-.23-.17-.12-.31.04-.426.392-.283.755-.616 1.254-.727.073 0 .145-.033.126-.1-.023-.08-.107-.078-.18-.044-.483.112-1.008.12-1.372.522-.305-.025-.45.27-.713.335-.185.045-.22.25-.346.366-.09.08-.128.25-.283.212-.147-.037-.165-.197-.204-.323-.018-.06-.03-.122-.044-.182.05-.13.238-.15.255-.302.01-.087.03-.203-.082-.227-.097-.022-.13.078-.147.16-.025.13-.06.258-.145.367-.165.122-.13.294-.088.44.123.424.04.822-.112 1.218-.02.052-.046.106-.112.1-.118-.01-.218-.068-.255-.176-.083-.244-.208-.473-.254-.728-.02-.113-.046-.228-.124-.322-.03-.035-.064-.072-.114-.06-.06.014-.06.078-.043.108.2.345.054.76.293 1.118.213.318.312.71.44 1.075.05.14-.02.296-.104.402-.11.137-.224.026-.282-.076-.14-.248-.308-.48-.374-.766-.025-.11-.017-.328-.214-.268-.167.05-.096.234-.04.35.126.268.13.588.293.825.178.26.297.545.458.81.02.03.045.058.06.09.068.136.168.304.003.406-.16.1-.255-.068-.348-.176-.054-.063-.09-.186-.205-.13-.098.05-.06.156-.05.244.03.29.314.427.427.668.05.104.132.193.155.31.013.065 0 .126-.066.16-.058.03-.106-.003-.15-.036-.135-.1-.22-.237-.31-.372-.05-.076-.09-.205-.224-.13-.13.07-.137.19-.055.298.215.287.352.628.61.882.176.173.184.4.273.6.028.062-.003.146-.063.193-.078.06-.154.01-.23-.02-.222-.09-.245-.324-.384-.474-.042-.047-.067-.107-.103-.158-.038-.055-.09-.095-.163-.068-.075.027-.08.093-.07.156.028.172.115.316.234.444.216.232.408.48.57.748.088.142.21.352.032.447-.133.07-.272-.124-.358-.266-.06-.1-.133-.19-.206-.282-.042-.052-.083-.137-.17-.08-.074.046-.055.128-.03.195.027.075.06.15.104.217.27.408.444.87.766 1.248.05.058.072.144.087.22.017.087.02.186-.07.243-.1.063-.2.022-.28-.042-.13-.1-.256-.204-.33-.354-.035-.07-.07-.168-.18-.125-.105.043-.102.15-.073.233.066.188.214.328.333.484.147.193.314.372.456.568.073.1.156.247.044.34-.103.087-.225-.028-.314-.098-.106-.084-.198-.186-.292-.284-.134-.14-.272-.238-.49-.26-.304-.027-.453-.29-.616-.5-.132-.17-.234-.36-.41-.496-.03-.02-.067-.053-.068-.082-.022-.466-.373-.85-.35-1.327.01-.203-.042-.457.178-.55.195-.082.286.16.388.28.257.298.582.542.78.89.048.082.118.197.234.106.1-.08.11-.21.03-.316-.247-.32-.475-.658-.757-.946-.31-.316-.517-.69-.708-1.066-.103-.202-.08-.47-.088-.707-.005-.158.04-.316-.013-.476-.02-.06-.018-.13.05-.168.07-.04.12.02.175.047.215.096.314.29.43.47.052.084.113.163.172.242.053.07.102.178.213.1.095-.066.04-.162-.01-.238-.186-.293-.362-.594-.57-.873-.388-.52-.437-1.112-.425-1.722.002-.11.06-.19.174-.212.117-.023.226.008.287.113.16.277.397.51.517.815.046.116.112.298.274.228.122-.052.06-.225.018-.34-.033-.09-.087-.176-.146-.254-.374-.5-.677-1.036-.847-1.63-.172-.602.06-1.14.36-1.65.092-.153.23-.11.323.077.05.104.055.3.218.25.154-.047.096-.234.07-.358-.077-.35.007-.653.18-.97.158-.294.33-.572.538-.833.056-.07.117-.137.183-.2.052-.047.11-.113.19-.083.09.033.1.122.108.2.014.135-.006.266-.036.398-.024.104.013.21.13.23.133.023.178-.09.18-.188.017-.58.457-.885.86-1.2.17-.134.33-.28.53-.386.204-.11.41-.133.635-.135.196 0 .19.086.14.22-.05.135-.152.217-.288.268-.13.05-.17.142-.104.256.075.13.17.074.28.025.386-.17.718-.43 1.186-.456.26-.015.515-.198.813-.14.1.018.2.017.28.088.04.113-.032.188-.1.264-.05.018-.082.052-.098.1l-.156.095c-.374-.104-.616.143-.882.317-.065.042-.143.115-.073.197.063.073.165.045.225-.008.157-.136.346-.19.543-.232.08-.017.16-.045.194-.13l.17-.093c.095.028.18-.013.267-.042l.174.05c.005.018.017.027.038.024.052.095.142.12.244.12.33.038.643.132.944.27.207.095.378.21.482.416.114.226.073.324-.184.367-.18.03-.372-.01-.544.078-.072.037-.183.07-.16.158.025.096.14.068.217.055.52-.088 1.01 0 1.478.215.1.045.197.1.282.166.176.13.185.295.022.447z"/>
  </g>
</svg>
