<!--
  SVG Music Logos
  Mamonas Assassinas - Mamona v1.0.0
  https://github.com/tiagoporto/svg-music-logos
  Copyright (c) 2016-2018 Tiago Porto (http://tiagoporto.com)
-->
<svg xmlns="http://www.w3.org/2000/svg" viewBox="0 0 200 170" class="mamonas-assassinas--mamona">
  <g>
    <path class="mamonas-assassinas__body" d="M181.266 90.053c-2.148-.102-4.26-.618-6.414-.505-4.494-.178-9.014-.148-13.488.243-.16-.686-.087-1.392-.102-2.086.042-4.312-.71-8.608-2.004-12.714 3.062-2.543 6.71-3.576 10.297-5.078 3.87-1.142 7.935-1.586 11.934-2.046 1.737-.345 3.555-.102 5.26-.672-.395-.785-1.195-1.214-1.917-1.636-1.992-1.06-4.1-1.9-6.258-2.558-4.266-1.233-8.626-2.27-13.08-2.406-4.37-.615-8.882-.334-13.208.478-2.888-3.487-6.09-6.725-9.705-9.47 2.855-3.63 6.794-6.504 10.43-9.324 5.58-3.765 11.248-7.39 16.998-10.884.653-.425 1.476-.862 1.552-1.74-2.236-.534-4.615-.572-6.872-.2-6.64.482-13.283 2.258-19.326 5.01-5.805 3.176-10.78 5.598-16.18 9.784-4.044-1.5-8.227-2.676-12.48-3.408 1.27-5.23 1.945-10.35 2.435-15.678h-.002c.102-5.81-.125-11.64-1.07-17.374-.45-2.08-.772-4.27-1.876-6.125-.133.213-.405.634-.54.843-.67 3.598-1.433 7.176-2.154 10.763-.61 2.916-1.21 6.072-2.157 8.902h.002l-.037.353c-.417 5.396-3.08 12.968-6.11 17.287-1.317.02-2.633.015-3.947.023-1.765-3.5-3.728-6.892-5.81-10.21-1.656-3.024-5.124-7.808-8.87-8.31-.054 1.327 1.135 4.485 1.64 6.648 1.18 4.27 1.704 8.72 1.66 13.15-2.688.588-5.35 1.298-8.044 1.856-4.43-9.558-11.995-19.784-21.564-24.78-.573-.372-1.248-.452-1.916-.47 3.13 8.515 12.642 21.95 8.186 31.495-1.498.703-2.95 1.5-4.383 2.32-4.85-5.062-10.14-11.887-17.443-13.208-.463-.034-1.98-.812-1.583.288 4.188 5.784 10.406 9.89 13.262 16.68-.862.69-3.104 2.354-3.918 3.13-12.12-6.547-28.29-12.615-42.07-11.692-.51.11-.998.273-1.488.444-.095.473.09.803.554.99 8.95 4.494 24.598 13.632 28.597 23.625.205.758.797 1.677.198 2.398-1.12 1.696-2.08 3.49-3.207 5.184-8.117-.306-26.11-1.153-31.618 5.662 2.535.262 4.926 1.18 7.344 1.932 6.498 2.012 13.34 3.822 18.756 8.14-.08.653-.152 1.31-.224 1.962-8.618 1.46-15.466 3.212-23.25 6.726-.808.39-1.59.843-2.31 1.38 7.727.73 17.268-1.662 25.02-2.652-.22 2.486.153 4.96.297 7.44-7.376.008-20.728 2.132-26.063 7.756 7.924.595 20.77-2.896 27.91.407.63 1.745 1.264 3.492 1.97 5.21-.76 1.25-1.803 2.297-2.668 3.473-2.057 2.5-3.928 5.173-6.296 7.397-.835.82-2.007 1.385-2.376 2.577 2.592.2 5.15-.39 7.723-.574 3.522-.318 6.995-1.252 10.145-2.872.243.326.486.656.732.99-5.833 5.637-10.573 12.498-13.37 20.127-.13.75-.315 1.495-.543 2.224 1.88-.7 2.986-2.63 4.444-3.95 3.872-3.733 7.356-7.892 11.64-11.175 1.056-.782 2.15-1.556 3.398-1.996 1.393 1.126 2.854 2.17 4.33 3.183-2.254 4.432-4.558 8.938-5.582 13.844-.342 1.488-.334 3.025-.2 4.54 4.44-4.468 8.865-9.083 14.28-12.385.6-.288 1.226-.888 1.932-.584 1.86.645 3.67 1.45 5.598 1.89-.976 6.004-.653 12.092-.96 18.14.56-.05 9.077-14.2 10.17-15.965 2.445-.064 2.913.318 7.306.428.926.024 2.93-.148 5.584-.48-.81 5.39-.997 10.778-.37 16.166 3.662-5.488 8.698-11.288 9.985-17.277 10.073-1.634 20.504-4.306 24.99-7.127 3.542-1.85 6.698-3.694 9.974-5.992-.458.225 20.744 9.867 19.638 7.728-2.8-5.41-5.85-10.51-10.65-15.11 2.048-1.874 3.866-3.992 5.71-6.057 4.468 1.395 8.98 2.692 13.588 3.557 3.537.854 7.123 1.632 10.77 1.795-.082-.194-.242-.585-.32-.778-.863-.265-1.618-.75-2.38-1.206-5.596-3.382-11.273-6.615-16.837-10.042 1.6-2.33 2.755-4.926 4.06-7.424 1.473.01 2.946-.027 4.418.015 3.037.22 6.032.918 9.083.95-2.925-3.3-7.305-4.867-11.537-5.648.706-1.485.527-3.758 2.307-4.453 3.873-1.89 7.533-2.674 17.587-3.98 5.826-.715 11.168-1.61 16.997-2.29.543.052 1.42.005 1.823-.288-4.72-2.945-10.4-3.528-15.734-4.657z"/>
    <path class="mamonas-assassinas__shadow-body" d="M116.19 1.663c1.105 1.856 1.428 4.046 1.877 6.125.945 5.735 1.172 11.564 1.07 17.375-2.467-.93-5.307-2.142-7.796-2.99.948-2.83 1.548-5.987 2.158-8.904.72-3.588 1.484-7.166 2.155-10.764.133-.21.406-.63.538-.843z"/>
    <path class="mamonas-assassinas__shadow-body" d="M164.688 29.456c2.257-.372 4.637-.334 6.872.2-.076.877-.9 1.314-1.552 1.74-5.75 3.495-11.42 7.12-17 10.884-2.424-2.64-5.252-5.142-7.646-7.814 6.043-2.753 12.687-4.528 19.326-5.01z"/>
    <path class="mamonas-assassinas__shadow-body" d="M8.905 47.18c.49-.172.98-.335 1.488-.445 13.78-.923 29.95 5.146 42.07 11.693.437-.364.868-.73 1.31-1.08.26.614.602 1.26.416 1.953-2.16 12.13-2.445 24.716.215 36.792 1.184 4.66 2.687 9.313 5.086 13.503 1.018-1.96 1.59-4.1 2.373-6.156 1.59-4.468 3.226-8.924 4.778-13.405.244-.464.286-1.29.996-1.177.402.968.542 2.027.432 3.066-.224 2.653-.743 5.272-1.298 7.87 12.062 5.475 25.14 9.884 38.555 9.068 11.632-.9 22.913-4.338 33.658-8.756 1.11-.49 2.36-.774 3.312-1.56.463-1.024.656-2.145.986-3.215 1.102-3.737 2.666-7.42 5.16-10.447.394-.57 1.04-.84 1.68-1.036-.148 2.304-1.453 4.315-1.718 6.593-.29 2.49-.228 5.093.71 7.45.492 1.423 1.373 2.66 2.026 4.007.443.676-.1 1.408-.304 2.068-.73 1.576-1.25 3.322-2.56 4.532-1.356-1.476-2.46-3.16-3.834-4.623-3.84 7.458-8.524 14.67-15.026 20.085-4.702 4.04-10.26 7.046-16.186 8.856-2.65.778-5.37 1.27-8.057 1.9 3.11.438 6.217-.166 9.295-.55 11.936-1.768 23.69-5.84 33.592-12.834 1.488-1.056 3.075-2.042 4.204-3.507 5.565 3.428 11.242 6.66 16.837 10.043.762.455 1.518.94 2.38 1.207.08.193.24.584.322.778-3.648-.163-7.235-.94-10.772-1.795-4.607-.865-9.12-2.163-13.587-3.556-1.843 2.065-3.66 4.183-5.71 6.058 4.8 4.598 7.85 9.698 10.65 15.11 1.106 2.138-20.096-7.504-19.638-7.728-3.276 2.298-6.432 4.14-9.974 5.992-4.486 2.82-14.917 5.493-24.99 7.126-1.286 5.988-6.322 11.79-9.984 17.277-.627-5.388-.44-10.777.37-16.165-2.653.33-4.658.503-5.584.48-4.393-.11-4.86-.493-7.306-.428-1.093 1.766-9.61 15.916-10.17 15.966.307-6.05-.016-12.137.96-18.14-1.928-.44-3.738-1.246-5.598-1.89-.706-.305-1.332.295-1.932.583-5.416 3.303-9.84 7.917-14.28 12.384-.134-1.514-.142-3.052.2-4.54 1.025-4.906 3.328-9.41 5.582-13.843-1.476-1.014-2.937-2.057-4.33-3.184-1.248.44-2.342 1.214-3.397 1.996-4.286 3.283-7.77 7.443-11.64 11.176-1.458 1.318-2.566 3.25-4.445 3.948.227-.73.413-1.473.543-2.224 2.797-7.63 7.537-14.49 13.37-20.127-.246-.334-.49-.665-.732-.99-3.15 1.62-6.623 2.553-10.145 2.87-2.572.184-5.13.776-7.722.575.368-1.192 1.54-1.757 2.376-2.577 2.368-2.224 4.24-4.896 6.296-7.397.865-1.175 1.91-2.223 2.668-3.47-.706-1.72-1.34-3.466-1.97-5.212-7.14-3.303-19.986.188-27.91-.407 5.335-5.623 18.687-7.748 26.062-7.755-.144-2.48-.516-4.953-.296-7.44-7.752.99-17.294 3.385-25.022 2.654.72-.54 1.503-.99 2.31-1.383 7.784-3.514 14.633-5.265 23.25-6.726.073-.65.145-1.308.225-1.96-5.416-4.32-12.258-6.13-18.756-8.14-2.417-.752-4.808-1.67-7.343-1.933 5.51-6.814 23.5-5.968 31.618-5.662 1.127-1.693 2.087-3.488 3.207-5.184.6-.72.007-1.64-.198-2.397C34.057 61.8 18.41 52.66 9.46 48.166c-.463-.186-.65-.516-.555-.987m57.062 56.085c-1.488 2.987-2.862 6.03-4.425 8.98-.475.606.053 1.26.364 1.798 4.21 6.48 10.198 11.803 17.158 15.158 1.583.745 3.146 1.607 4.885 1.93-1.254-1.41-2.917-2.364-4.2-3.742-6.834-6.51-10.706-15.367-13.783-24.123"/>
    <path class="mamonas-assassinas__shadow-body" d="M111.558 55.848c2.604-.232 5.196.224 7.8.227 3.418.053 6.845.11 10.25.474 2.04 1.487 3.655 3.49 5.518 5.19.888.935 2.038 1.636 2.687 2.78-6.802-.75-13.568-1.81-20.365-2.627-1.5-.155-3.03-.43-4.308-1.27-1.847-.798-1.248-3.162-1.582-4.775z"/>
    <path class="mamonas-assassinas__shadow-body" d="M83.562 64.808c4.62-2.444 9.195-4.96 13.82-7.39-.514 1.902-1.21 3.75-1.91 5.588-.233.744-.855 1.23-1.454 1.67-6.278 4.534-12.453 9.21-18.737 13.734-.436-.417-.872-.84-1.313-1.252 1.108-2.25 2.41-4.395 3.59-6.607 1.227-2.554 3.48-4.523 6.005-5.742z"/>
    <path class="mamonas-assassinas__shadow-body" d="M165.492 60.596c4.456.136 8.816 1.173 13.082 2.406 2.16.657 4.266 1.5 6.258 2.558.722.42 1.522.85 1.917 1.636-1.705.57-3.523.326-5.262.672-4 .46-8.065.904-11.936 2.046-1.233-3.16-2.698-6.218-4.06-9.318z"/>
    <path class="mamonas-assassinas__shadow-body" d="M174.85 89.55c2.156-.115 4.267.4 6.415.504 5.335 1.128 11.013 1.712 15.734 4.657-.403.294-1.282.34-1.824.288-5.83.68-11.17 1.576-16.997 2.29l-2.07.29c-.652-2.51-.75-5.49-1.26-8.03z"/>
  </g>

  <g class="mamonas-assassinas__eyes">
    <path class="mamonas-assassinas__eye" d="M125.248 65.605c2.414-.528 5.055-.455 7.343.554 7.747 3.385 11.463 13.654 7.656 21.2-1.15 2.477-3.233 4.51-5.787 5.495-2.833.96-6.093.972-8.745-.517-7.784-3.647-11.102-14.342-6.767-21.76 1.355-2.403 3.666-4.183 6.3-4.973"/>
    <path class="mamonas-assassinas__eye" d="M94.75 69.176c2.672-.338 5.44.205 7.708 1.68 7.173 4.02 10.44 14.31 5.925 21.42-2.236 3.547-6.726 5.535-10.847 4.662-3.404-.868-6.604-2.763-8.657-5.658-2.172-3.124-3.626-6.912-3.36-10.764.22-3.333 1.417-6.798 4.058-8.984 1.513-1.15 3.236-2.185 5.173-2.356"/>
    <path class="mamonas-assassinas__iris" d="M124.033 70.714c1.404-.698 3.196-.163 3.955 1.218.884 1.47 1.503 3.784-.027 5.055-1.312 1.017-3.59 1.548-4.792.102-.922-1.14-1.685-2.63-1.41-4.134.245-1.127 1.32-1.772 2.275-2.242z"/>
    <path class="mamonas-assassinas__iris" d="M93.67 73.44c1.01-.286 2.263-.305 3.076.47 1.074 1.005 1.63 2.477 1.73 3.927-.012 2.27-2.797 3.408-4.715 2.824-1.406-.77-2.18-2.394-2.466-3.915-.275-1.58 1.035-2.802 2.377-3.306z"/>
  </g>

  <g class="mamonas-assassinas__tooth">
    <path d="M139.112 102.514c.448-.21.937-.258 1.422-.284.126 1.817-.762 3.456-1.605 4.998-1.367 2.342-3.197 4.452-5.447 5.978-2.482 1.47-4.923 3.04-7.636 4.057 1.412-3.662 2.508-7.45 3.966-11.086 3.08-1.268 6.213-2.415 9.3-3.663z"/>
    <path d="M70.346 104.11c3.696 1.204 7.34 2.597 11.158 3.398-1.355 1.735-2.714 3.465-4.06 5.207-2.86-2.41-5.272-5.343-7.098-8.604z"/>
    <path d="M122.584 108.088c1.77-.322 3.49-.83 5.218-1.325-1.23 3.734-2.595 7.42-4 11.09-4.877 1.466-9.966 2.076-15.003 2.72 1.95-3.51 3.733-7.116 5.104-10.9 2.944-.222 5.79-1.034 8.68-1.585z"/>
    <path d="M78.87 113.67c1.54-1.893 3.017-3.843 4.603-5.7 3.46.816 6.94 1.568 10.486 1.898-1.936 2.783-3.71 5.67-5.64 8.456-3.347-1.1-6.638-2.5-9.45-4.653z"/>
    <path d="M139.93 108.376l1.102-.39c-2.493 3.924-5.477 7.53-8.76 10.82-1.397 1.64-3.096 2.965-4.736 4.34-1.788 1.4-3.534 2.885-5.587 3.89.953-2.44 1.97-4.85 2.923-7.29.197-.398.276-.952.766-1.107 1.445-.716 3.008-1.193 4.363-2.08 2.057-1.333 4.26-2.47 6.092-4.122 1.453-1.18 2.607-2.664 3.836-4.062z"/>
    <path d="M74.324 116.68c-1.2-2.47-2.247-5.024-3.03-7.658 1.523 1.822 3.243 3.458 5.185 4.828-.714.945-1.44 1.886-2.156 2.83z"/>
    <path d="M95.925 110.108c5.402.14 10.837.493 16.217-.224-1.54 3.76-3.49 7.324-5.385 10.91-5.712.464-11.31-1.085-16.9-2.006 2.05-2.874 4.034-5.796 6.068-8.68z"/>
    <path d="M75.173 118.336c.888-1.165 1.825-2.285 2.748-3.423 1.48.87 2.934 1.792 4.44 2.614 1.648.775 3.363 1.397 5.033 2.122-1.932 2.367-3.806 4.785-5.685 7.194-2.675-2.417-4.774-5.38-6.535-8.508z"/>
    <path d="M115.55 121.293c2.513-.562 5.07-.938 7.526-1.727-1.31 2.978-2.592 5.97-3.878 8.96-5.985 3.332-12.843 4.797-19.632 5.218 2.963-3.644 5.86-7.358 8.212-11.435 2.592-.312 5.226-.388 7.772-1.017z"/>
    <path d="M82.87 127.885c2.103-2.574 4.096-5.226 6.1-7.875 5.4 1.864 11.172 2.26 16.846 2.242-2.486 4.024-5.253 7.857-8.133 11.602-5.358-.54-10.623-2.558-14.812-5.97z"/>
  </g>
</svg>
