<svg xmlns="http://www.w3.org/2000/svg" viewBox="0 0 200 200">
  <path class="background" fill="#E0E0E0" d="M3.1 100l45-45 6.4-.2-.1-6.1L100 3.1l44.5 44.5-.2 7.7 8.2.3 44.4 44.4-44.6 44.6-8.9.3.1 8.5-43.5 43.5-45.6-45.6.1-6.7-7-.2L3.1 100z" clip-rule="evenodd"/>
  <g class="hammer">
    <path d="M109.8 128.3v-6.9h4.8V92.5h7.4v.3h53.1l-.5.5-2.4 2.7 2.4 2.8.6.6H122v2.8h43.6l-.7.7-2.4 2.7 2.4 2.8.6.7H122v2.8h33.8l-.6.7-2.4 2.7 2.4 2.8.7.7H122v2.6h20.7v6.9h-32.9zM89.5 128.3v-6.9h-4.8V92.5h-7.4v.3H24.2l.5.5 2.5 2.7-2.5 2.8-.5.6h53.1v2.8H33.7l.7.7 2.5 2.7-2.5 2.8-.6.7h43.5v2.8H43.5l.6.7 2.4 2.7-2.4 2.8-.7.7h33.9v2.6H56.6v6.9h32.9zM102.6 72.6l9.1 17.1-2.6 1.4-6.9-13-1.6 2.7 6.1 10.8v36.7H92.4V91.7l10.2-19.1zM110.2 47.7l2.1 1.2-23.1 41.5-2-1.2 23-41.5zM96.5 66.1l.7-1.3 9.7-17.8v-2.6H92.7V47l5.6 11-1.8 2.9-6.9-13.6-2.1 1.1 9 17.7zM90.6 34.8l9.1-9.2 8.7 9.2-8.7 8.6-9.1-8.6zM113.7 51.7h13.2v34H113l-8.8-16 9.5-18zM85.9 51.7H72.7v34H86l8.8-16-8.9-18zM67.6 53.5l2.9-1.8v33.8l-2.9-2.1V53.5zM132 53.5l-2.8-1.8v33.8l2.8-2.1V53.5zM92.2 173.9h13.4v-2.7H92.2v2.7zM90.1 131.4h18v.3l-18 4.8v-5.1zm18 3v7.4l-18 4.8v-7.4l18-4.8zm0 10.2v6.9l-18 4.8v-6.9l18-4.8zm0 9.7v6.9l-18 4.8v-6.9l18-4.8zm0 9.6v5h-18v-.2l18-4.8z"/>
  </g>
</svg>
