<!--
  SVG Music Logos
  Megadeth - Peace Sells... but Who's Buying? v0.1.1
  https://github.com/tiagoporto/svg-music-logos
  Copyright (c) 2016-2018 Tiago Porto (http://tiagoporto.com)
-->
<svg xmlns="http://www.w3.org/2000/svg" viewBox="0 0 200 45">
  <path d="M196.46 41.943l-5.812-3.754c-.245-.152-.835-.648-1.77-1.475-1.013-.827-1.725-1.345-2.128-1.56-1.058-.548-1.95-.922-2.676-1.116-.748-.224-1.942-.34-3.58-.34h-.763c.972-.574 1.612-1.135 1.928-1.682.317-.546.504-.957.56-1.223V19.417h-7.752v10.3c0 .38.165.848.496 1.394.33.548 1 1.058 2.014 1.54H166.31c.942-.575 1.59-1.137 1.942-1.67.31-.545.49-.956.546-1.222V7.278c0-.72-.317-1.31-.95-1.77-.193-.173-.826-.367-1.898-.59-1.05-.238-1.654-.36-1.812-.36h12.838c-.957.41-1.626.9-2.006 1.474-.338.518-.504.935-.504 1.245v6.703h7.753V7.277c0-.72-.303-1.31-.907-1.77-.165-.115-.467-.294-.906-.546l-.633-.4h12.81l-1.98.61c-1.366.38-2.1.67-2.214.863-.338.547-.504.964-.504 1.245V30.94l.338.806c.266.575.582 1.18.95 1.813.373.668.798 1.272 1.258 1.81l6.027 6.573z"/>
  <path d="M161.34 29.55h-10.666c.957-.488 1.604-.998 1.942-1.516.353-.475.54-.834.568-1.072V11.938h-3.754c-.374.028-.978.2-1.812.525-.84.352-1.662 1-2.467 1.942l1.69-7.38 18.334.044 1.683 7.335c-.8-.748-1.518-1.28-2.15-1.604-.713-.337-1.29-.56-1.727-.675-.46-.122-.762-.187-.906-.187h-3.244v15.024c0 .324.173.72.525 1.2.28.46.943.93 1.985 1.39z"/>
  <path d="M124.078 29.55c.957-.488 1.61-.998 1.963-1.516.31-.475.49-.834.548-1.072V9.492c0-.633-.302-1.158-.906-1.56-.605-.44-1.122-.742-1.56-.907l19.095-.043v6.64c-.353-.282-.942-.67-1.77-1.16-.84-.466-1.826-.697-2.955-.697h-6.236v3.754h5.732c.633 0 1.208-.13 1.734-.382.46-.295.805-.525 1.028-.698v6.998c-.49-.403-1.028-.676-1.603-.82-.547-.108-.935-.166-1.158-.166h-5.733v3.366h6.64c1.43 0 2.74-.158 3.918-.482 1.15-.338 2.1-.712 2.848-1.115.727-.467 1.093-.74 1.093-.82l-6.703 12.803c0-1.15-.216-2.208-.647-3.18-.424-.984-1.223-1.473-2.41-1.473h-12.918z"/>
  <path d="M123.978 15.095c-.238-1.093-.554-2.1-.95-3.014-.432-.927-.964-1.69-1.597-2.293-1.013-.986-2.05-1.676-3.12-2.064-1.05-.41-1.84-.64-2.36-.698H103.2c.87.46 1.394.77 1.56.906.604.41.906.928.906 1.562v17.47c-.058.265-.238.625-.547 1.07-.353.52-1.007 1.03-1.964 1.518h12.795c.116 0 .468-.072 1.072-.208.575-.144 1.266-.403 2.07-.784.843-.374 1.62-.885 2.338-1.518.913-.827 1.61-2.007 2.107-3.538.518-1.518.777-3.18.777-4.992 0-1.15-.114-2.293-.336-3.415zm-6.006 5.653c-.266.74-.64 1.302-1.115 1.683-.547.44-1.03.727-1.432.864-.38.173-.654.28-.826.34h-3.266v-10.79h3.1c.137 0 .453.107.95.316.49.194.985.525 1.474.993.446.43.82 1.02 1.115 1.77.252.77.38 1.575.38 2.423 0 .884-.13 1.683-.38 2.402z"/>
  <path d="M92.396 29.55h10.745c-.74-.38-1.308-.74-1.682-1.07-.41-.353-.74-.727-.992-1.123-.295-.374-.54-.827-.74-1.345-.195-.467-.397-.92-.605-1.374l-5.48-14.032c-.172-.41-.25-.942-.25-1.604 0-.885.315-1.56.948-2.02h-8.602c.604.46.906 1.092.906 1.898 0 .374-.043.712-.122 1-.086.287-.16.503-.216.64L81.17 24.645c-.547 1.26-1.05 2.223-1.496 2.885-.468.69-1.187 1.36-2.172 2.022h10.24c-.13-.03-.3-.1-.53-.208-.195-.087-.41-.26-.648-.525-.23-.202-.338-.49-.338-.872l.82-2.503h6.17l.828 2.503c-.03.216-.15.49-.36.827-.2.344-.625.61-1.288.776zm-3.33-8.32l1.08-3.712 1.093 3.71h-2.173z"/>
  <path d="M76.617 7.025v6.602c-.338-.28-.928-.668-1.77-1.158-.394-.23-.94-.404-1.646-.533-.682-.108-1.344-.166-1.977-.166H65.01l.085 12.09h3.625c.18-.085.44-.272.777-.567.323-.252.654-.64.993-1.158.352-.49.525-1.057.525-1.683 0-1.158-.676-2.337-2.02-3.538h7.536V34.52c-.517-1.302-1.092-2.33-1.725-3.07-.69-.75-1.266-1.238-1.726-1.475-.52-.26-.865-.396-1.037-.424H56.94c.956-.488 1.61-.998 1.963-1.516.31-.475.49-.834.546-1.072V9.492c0-.633-.303-1.15-.907-1.56-.604-.432-1.122-.742-1.56-.907h19.634z"/>
  <path d="M35.4 29.55c.956-.488 1.61-.998 1.962-1.516.31-.475.49-.834.547-1.072V9.492c0-.633-.303-1.158-.907-1.56-.605-.44-1.123-.742-1.56-.907l19.094-.043v6.64c-.353-.282-.942-.67-1.77-1.16-.84-.466-1.826-.697-2.955-.697h-6.236v3.754h5.732c.633 0 1.208-.13 1.733-.382.462-.295.807-.525 1.03-.698v6.998c-.49-.403-1.03-.676-1.604-.82-.547-.108-.935-.166-1.158-.166h-5.732v3.366h6.638c1.43 0 2.74-.158 3.92-.482 1.15-.338 2.1-.712 2.848-1.115.727-.467 1.093-.74 1.093-.82l-6.703 12.803c0-1.15-.216-2.208-.647-3.18-.425-.984-1.223-1.473-2.41-1.473H35.4z"/>
  <path d="M12.42 35.326L9.3 37.24c-.03.028-.39.28-1.08.762-.683.518-1.734 1.287-3.136 2.294-1.446 1.014-2.186 1.518-2.215 1.518l6.263-6.998c.605-.604 1.108-1.223 1.518-1.848.375-.633.634-1.208.778-1.733l-.044-23.958c0-.662-.302-1.223-.906-1.683-.238-.2-.9-.41-1.978-.633-1.13-.243-1.72-.373-1.776-.4h11.3c-.06 0-.36.186-.907.567-.338.252-.504.612-.504 1.08 0 .373.122.732.374 1.07l4.912 9.97 4.933-9.97c.252-.517.374-.877.374-1.07 0-.497-.18-.87-.547-1.123-.374-.266-.676-.44-.906-.525h11.292c-.166.085-.87.3-2.108.653-1.23.352-1.906.64-2.02.863-.353.46-.526.863-.526 1.2V29.76c0 .352.173.805.525 1.35.28.548.943 1.058 1.985 1.54H24.2c.978-.54 1.64-1.08 1.978-1.625.352-.575.54-1 .568-1.266v-8.192l-4.89 11.356-4.784-11.356v9.666c0 .2.187.61.568 1.244.115.187.237.317.38.402.137.087.346.18.612.295.223.115.54.287.95.525-1.474.03-2.79.144-3.94.338-1.137.224-2.215.655-3.222 1.288z"/>
</svg>
