<svg xmlns="http://www.w3.org/2000/svg" viewBox="0 0 187 200">
    <g>
        <path d="M147.046 87.368c3.734-.28 14.005.564 15.65.926-.36-2.944-1.683-7.15-3.01-8.592-.616-.67-8.712-1.4-10.36-1.285-.04.32-.13.82-.267 1.285 2.194.027 7.567.786 8.53 1 .316.272.452.82.506 1.14-2.894-.64-8.568-.935-9.297-.855-.088.696-.367 1.442-.784 2.49 2.168-.028 9.877.508 11.108.775.294.482.59 1.258.776 1.927-4.39-.456-11.724-.35-12.66-.242-.054.32-.194.95-.194 1.43z"/>
        <path d="M162.128 111.775c-.63 5.032-2.12 8.296-2.9 9.747-2.57.482-10.784.458-12.47.498 0-.776.214-1.5.562-1.874 4.47.32 8.11-.027 9.422-.187.482-.376.696-1.072.776-1.446-2.275.134-8.94-.134-9.69-.24.162-1.098.972-1.687.83-3.213 3.588 0 9.02.536 9.77.456.563-.616.804-1.98.777-2.382-2.115-.268-9.515-.616-10.405-.59-.194-.83-.248-1.605-.194-1.926 3.184-.055 11.64.376 13.522 1.157z"/>
        <path d="M110.382 119.985c2.088 2.57 6.47 4.63 10.057 5.005-1.34-1.017-1.707-1.472-2.03-2.007 6.345 3.172 11.27 2.784 16.623-.054-7.44 1.82-12.157 1.713-19.754-2.463.213 1.07.548 1.673 1.23 2.623-2.31-.8-4.273-1.882-6.128-3.105z"/>
        <path d="M37.123 78.604c.23.32.428.75.428 1.365-2.194.053-8.95.904-9.77.963-.32.32-.615.75-.722 1.285 3.587-.32 10.492-1.07 10.894-1.044.428.535.91 2.168.937 2.677-4.39.295-11.43.75-12.634.777-.214.455-.562 1.66-.59 2.007 2.142-.027 13.572-.51 13.946-.482.32.428.616 1.5.67 1.82-4.07.24-16.944.455-17.426.482.34-4.376 1.57-8.1 2.707-8.637 1.122-.53 9.296-1.177 11.56-1.213z"/>
        <path d="M25.025 112.055c.134 1.23 1.793 7.662 3.077 8.974 3.908.16 12.9-.028 14.266-.162-.08-.723-.4-1.58-.67-1.874-2.702.054-10.866.294-11.214.32-.294-.32-.696-1.016-.803-1.284 3.052-.054 10.2-.535 11.537-.67-.187-1.016-.776-2.435-1.285-3.077-2.302-.054-8.083.776-11.295 1.017-.455-.83-.803-1.74-.723-2.462 3.212-.214 9.957-1.044 11.215-.99-.135-.535-.376-1.178-.536-1.338-2.355.107-11.267 1.438-13.57 1.545z"/>
        <path d="M148.722 99.495c-.445-2.57-1.925-4.376-2.848-8.043-.044.993-.273 2.71-.128 3.92.12 1.01 1.465 2.7 1.447 4.08-.027 2.15-.436 2.09-.784 6.507-.212-3.32-.452-5.802-.946-7.56-.11 6.014-.844 11.825-.875 14.314-5.354 3.952-11.96 6.728-19.273 9.466l-22.002-9.315c-2.41-11.135-4.497-16.916-7.923-16.916-2.088 0-2.396.63-3.292 1.31s-1.712 1.408-2.556 2.397c-2.703 3.164-3.18 8.634-5.34 12.246L64.13 119.45l-18.98-10.646c.082-3.647-1.257-17.297-2.38-24.043 2.164-2.428 6.998-5.334 11.455-8.19 4.58-2.934 8.777-5.792 10.225-6.262l58.136.803 12.005 6.907c3.133-6.544-2.605-13.937 5.716-28.212-.964 4.55-3.11 9.056-3.32 13.65-.314 6.966 1.02 13.705.186 16.938l5.153 3.28c.836-1.923.774-4.85 3.6-8.975-.968 3.418-.173 4.564-2.275 9.818 0 0 .605.924 1.85 1.59.838-1.67 1.234-5.1 1.817-6.537.696-1.714 1.874-6.586 1.017-6.96-.857-.375-.616-.254-1.258-.214 1.004-.602.784-1.926.803-2.73.24-10.278-3.347-10.974-6.398-21.413 1.425-9.047 1.086-20.686-5.942-19.807-1.927-3.426-4.09-6.953-7.597-9.442-2.372-1.684-3.132-3.72-9.373-7.85-3.427-2.266-9.05-2.806-11.028-3.48-4.47-1.52-12.42-.24-15.792.844.087.177.16.237.21.572-.722-.488-1.496-.842-2.157-1.034-.278-.08-2.817-1.88-8.76-1.88-2.14 0-11.96-.346-17.772 2.14-6.204 2.658-9.496 5.75-15.117 13.9 1.285.615 1.642 1.197 1.642 2.24-1.486-.99-5.393.218-8.09 3.45-2.53 3.033-2.617 6.897-1.305 11.005-1.164 2.45-3.01 7.308-3.654 11.163s-2.155 6.644-1.927 11.08c.4 7.817 2.832 15.26 4.094 20.076 1.445 5.513 4.075 11.14 4.396 14.834-.36-.775-.767-1.146-1.278-1.465.27.976-.14 3.062-.55 3.84.51-.08.87-.335 1.165-.602-.642 1.633-3.44 5.782-3.306 7.883.31 4.792 3.454 7.71 5.194 11.725-.662-1.024-1.344-1.482-2.188-2.028 2.128 3.774 2.142 6.856 3.486 8.084 5.58 5.1 13.156-1.318 21.828 3.5 3.347-5.18 12.097-8.328 19.754 3.05.764 1.137-.855 3.48-2.41 3.48-1.943-2.9-4.898-5.64-6.872-5.64-2.014 0-4.262 2.27-4.69 3.767s-.642 3.533-.32 4.283.963 1.23 1.444 1.606c.054-.91-.054-2.168.937-2.06.99.106 1.733.782 2.215 2.033.255.66.495 1.27 1.084 1.645.18-1.546 1.61-3.767 2.462-3.512 1.472.44.98 3.625 1.623 4.053.776-1.07 1.77-2.77 2.875-2.663.555.054 1.036 1.573 1.17 2.028 2.292-3.437 4.416-3.56 6.53 1.634.376-1.927 1.14-3.923 3.2-3.88 2.623.053 1.646 3.21 3.01 4.228 1.04-1.87 2.356-3.012 3.757-.462.856-1.124.338-4.302 1.275-4.516.937-.214 2.007 1.713 2.41 2.516.4.803.675 1.94 1.137 1.96.923-1.846 2.262-2.79 2.877-2.522.615.268.454 2.06.83 2.222.802-.857 1.444-1.767 1.98-1.606.737.22.81 1.19 1.017 1.19.15-1.654.008-3.238-.236-4.502-1.74.535-2.255 2.574-3.438 2.29-1.255-.304-1.767-2.668-1.767-3.534 0-.99 1.55-1.98 2.85-3.172-2.267-1.967-6.548-1.042-10.616 2.87-1.113 1.07-3.534-2.047-3.333-3.09.353-1.84 11.7-10.948 19.41-2.05 8.187-1.99 12.147 3.817 12.147 8.473 0 6.69-4.054 11.738-11.516 19.37 4.336 7.83-.804 13.676-5.668 17.727-.952.793-2.57-1.445-3.025-3.48-1.097 2.195-2.853 5.2-4.507 5.612-1.124.278-3.878-2.714-2.827-4.167 2.17-2.998 4.615-8.215 1.745-12.27-.522.723-.405 1.102-.78 1.082-.99-.054-1.044-2.262-1.78-3.52-.428 1.07-1.23 3.667-2.02 3.667-.627 0-1.232-3.406-1.995-4.63-.308 2.18-1.278 5.01-1.86 5.07-.73.077-1.177-.947-1.572-1.716-.112.043-.235.318-.228.58-.262-.443-.325-1.12-.53-2.162-.87.89-.95 3.607-1.98 3.968-.508.178-1.606-1.104-2.51-2.89-.286.36-.193 1.605-.6 1.766-.734.288-2.35-1.445-3.072-2.81-1.686 1.847-2.218.728-3.01.442-3.775 7.106 3.026 11.088 3.144 12.46.32 3.747-1.22 4.722-2.623 4.488-1.81-.302-3.834-4.555-5.73-6.95-.213 2.14-.026 3.158-2.373 4.54-10.327-9.76-10.875-16.772-7.878-20.573-4.444-6.772-8.06-9.74-9.075-14.32-.99-4.47-.59-10.17 3.092-11.683-1.004-.442-2.61-.388-4.028-.308-.108.32-.108 1.633.213 3.185-.83-.617-1.258-3.213-1.258-3.213l-.348-.027c-.08.32.054 2.222.535 4.068-.134-.482-.937-1.847-1.5-2.57-.026 1.66.697 3.56 1.326 5.567-1.726-2.65-2.41-4.798-2.85-7.127-.322.04-.563.14-.965.114-.16 3.88 3.747 8.78 5.3 16.06 1 4.69 1.07 6.585 1.445 11.295-2.345-10.11-4.778-19.298-7.187-21.707-1.54 6-1.74 14.524-1.538 19.352.107 2.57 3.212 8.78 5.835 12.152-.603-2.813-.843-5.728-.054-9.636 0 6.632 1.62 12.017 8.445 19.486-2.944-5.835-3.373-13.852-2.342-17.826-.16 17.345 4.71 15.82 8.512 23.983.877 1.886 1.23 4.498 2.302 6.64s2.516 5.62 7.71 6.744c5.192 1.124 10.063.054 13.596-1.017 3.854 1.07 10.225.482 15.096-.268 3.422-.527 7.76-5.843 10.71-11.43 1.553-2.938 3.654-5.15 4.498-6.918 2.837-5.942 3.96-8.138 5.08-20.143.804 5.673.108 11.937-1.123 16.326 6.103-5.032 8.083-9.69 8.083-14.4 0-4.71-.937-9.61-.616-14.99-1.15 1.34-2.864 6.238-3.774 9.21.12-9.276 5.26-12.166 4.55-19.407-.32.026-.75.026-1.178 0-.294 1.444-1.606 5.513-3.24 8.27 1.607-4.283 1.74-5.728 1.607-7.227-.108.59-.884 1.914-1.82 3.96.454-1.66.856-4.094.32-4.95-.214.695-1.19 1.66-2.115 3.238.214-.588.596-2.85.488-3.438-.214-.054-.95-.093-2.288-.093 6.404-2.785 9.876-1.795 12.908-2.598 2.152-.57 4.31-6.504 5.112-12.928 0 1.552.107 2.837.857 3.854-.505-7.552 2.177-15.3 1.62-18.513zm-15.535-68.48c-.857 4.55-.268 10.706-5.14 15.952 2.81-4.304 3.588-12.58 5.14-15.953zm-12.794 24.89C113.755 63.83 104.44 64.15 99.89 67.31c4.122-4.55 15.666-7.067 20.503-11.402zM89.397 69.29c-3.908-6.64-17.746-5.622-26.472-17.13 6.53 7.065 24.224 10.063 26.472 17.13zm-31.852-24.6c-6.183-6.102-6.263-12.847-7.387-18.307 4.095 8.592 2.248 11.563 7.387 18.308zM53.13 75.206c-6.184-2.007-4.578-29.068-8.754-36.054 6.424 8.352 3.453 28.16 8.753 36.055zm19.873 45.57c.642-.684.642-1.005.683-1.446-1.204.762-6.665 2.368-9.074 2.368 4.697-1.526 6.825-2.636 7.508-3.118.683-.482 1.9-.522 2.944-.883-.08.683-.147.59-.683 1.352 1.406-.764 2.196-1.42 2.838-1.78.642-.362 1.686-.87 2.41-1.313-1.695 1.763-4.377 3.747-6.625 4.817zm9.65-4.484c-.75 2.437-.242 5.595.106 6.826-1.5-.588-1.714-4.496-.108-6.825zm-4.01 18.115c-.38-1.164-.742-1.887-2.348-2.71.683 0 1.827.3 2.35 1.044.1-.182.16-.262.56-.443-.2.22-.48 1.365-.56 2.108zm29.25-1.894c-.268.188-.763 1.112-.843 1.875-.04-.36-.442-.923-.843-1.124.508-.026.936-.16 1.686-.75zm-14.635 2.417c.02.18-.02.462-.32.843-.06-.442-.744-1.225-1.14-1.686.326.28 1.44.662 2.062.582-.12.16-.3.32-.602.26zm-.073-6.323c-.174.32-.522.562-1.084.776-.293-.134-.534-.455-.748-.83 1.044-.294 1.66-1.097 2.14-2.463.055.964.804 2.49 1.527 3.587-.83-.32-1.26-.59-1.835-1.07zm10.13-8.244c-.32 4.657-3.64 5.032-4.978 5.032s-2.088-2.355-2.14-3.8c-.055-1.446 0-4.177-.322-6.37-.32-2.196-.75-3.48-.803-4.605-.054-1.124-.803-2.41-1.07-2.41s-.75 2.85-.75 4.424c0 1.574.268 6.017 0 8.48s-1.07 3.64-2.463 3.64-5.14.054-5.14-4.55c0-6.9 2.956-19.284 5.97-20.02 1.208-.297 1.812.256 2.882.256.642 0 1.342-.56 2.105-.352 1.034.282 3.443 2.504 4.353 7.857.91 5.353 2.677 7.762 2.356 12.42zm1.928 3.586c.442-1.847.482-3.493 0-5.862 1.285 1.687 1.285 4.537 0 5.862zm-1.552 39.186c.697.937.536 2.007-.83 3.025.59-1.15.99-1.98.83-3.025zm-31.23 11.643c1.338 1.81 2.49 1.975 3.726 1.02-.935 1.447-2.18 2.53-3.725-1.02zm7.65 3.694c.882.762 3.264.762 4.844 0-.71 1.364-3.24 2.65-4.845 0zm3.88-15.472c.737.683 1.108.666 1.326 1.097.55 1.084.24 2.158.602 3.265-.87-2.02-1.58-2.836-1.927-4.362zm6.097 7.08c.51-1.686.622-2.47.562-4.055.42 1.338.86 1.725 1.023 2.516.116.567.04.815.24 1.418-.642-.67-1.164-.947-1.826.12zm7.79 2.027c-.994-2.585-1.466-3.874-1.694-1.024-.08-1.806-.206-3.84-.106-5.165.24 1.144 1.136 3.64 1.518 3.96.562-.36.662-1.404.662-2.288.186 1.505.543 2.966.867 3.846.067.146.128.292.177.43-.056-.12-.116-.265-.176-.43-.508-1.1-1.417-2.167-1.248.672zm3.645 5.75c1.227 1.672 1.636 2.007 4.98.2-1.988 2.666-4.852 3.216-4.98-.2zm8.46-1.955c.748 1.258 2.622 2.543 4.12.32-.99 1.945-2.596 3.026-4.12-.32z"/>
        <path d="M97.19 80.484c.523.723.272 3.172-1.695 3.36-2.04.193-3.523-.87-3.403-3.04.683.08 1.56.235 1.98.135 0 .36-.543.668-.91.668 1.86.1 2.35-.18 2.74-.295.827-.24-.197-.83 1.29-.83z"/>
        <path d="M104.538 74.1c-.124 1.824-3.54 7.594-6.036 14.334-.747 2.017-.97 3.48-1.552 5.755-.144.563-1.28.575-1.915.52-1.42-.12-1.77-.334-2.02-1.137-1.25-4.015-3.203-8.01-5.574-11.614-1.747-2.66-3.138-5.27-5.426-8.422 4.577 3.272 7.488 7.73 8.17 9.094.683 1.365 2.028 3.754 2.63 3.874.602.12 4.26.087 4.818-1.084 2.296-4.81 5.073-8.605 6.906-11.32z"/>
        <path d="M102.09 99.114c-.162-1.405.32-2.53 1.565-3.654-.916-2.238-1.37-4.595-.32-6.56.636-1.184.4-1.81.95-3.036.164-.368.63-2.536 1.237-3.995-1.506 1.023-2.81 5.078-3.212 6.443-.4 1.365-2.068 5.18-2.068 6.585 0 1.405.763 3.212 1.847 4.216z"/>
        <path d="M108.473 104.293l1.726 2.89 6.584 3.213c-.22 1.305-.14 2.855.348 4.055l-10.707-4.295-2.06-6.303c.762.48 2.582.857 4.108.44z"/>
        <path d="M126.46 115.695c.964-.28 11.322-4.657 11.322-4.657-1.626.1-3.533-.903-4.216-2.91l-6.083 3.35c.16.644.2 2.973-1.023 4.217z"/>
        <path d="M141.917 95.1c-.04 1.364-.16 6.463-.12 7.226-.984-1.084-2.95-2.028-4.778-1.425l-.232-4.374c1.636.66 3.767.062 5.13-1.427z"/>
        <path d="M134.89 88.293l-3.05-2.99c.763-.443 1.94-1.954 1.218-4.31.763.87 2.034 1.847 2.168 2.088.134.242 2.65 3.16 3.292 3.722-1.285.08-3.105.976-3.627 1.49z"/>
        <path d="M126.955 77.78c-.642.028-2.222.51-2.89 1.34-.295-1.687-1.473-3.534-3.99-3.48.858-.376 1.768-.67 1.982-.643 0 0 3.988 2.008 4.898 2.784z"/>
        <path d="M104.873 90.492c-.482 1.047-.415 2.814.65 3.992.58-.107 1.786-.468 2.388-.187s2.49.763 3.012 1.767c.522 1.004 1.486 2.587 1.044 4.477-.442 1.89-1.726 2.912-1.686 3.795 1.124 1.084 6.344 4.376 6.665 4.577.843-.763 2.53-2.048 3.493-2.007.964.04 2.45-.803 6.303 2.007 1.326-.642 5.783-3.654 5.783-3.654s.36-3.065 3.172-4.59c0 0-.063-3.598-.28-3.908-.643-.91-2.967-1.915-3.574-1.82-1.03.16-.922.897-2.127.937-1.204.04-2.492-.928-3.252-.776-1.806.362-2.65 2.81-5.58 2.77-1.325-.017-3.842-1.74-5.62-4.817-1.045-1.807-3.655-.642-4.82-.723-1.164-.082-4.71-1.266-5.567-1.838z"/>
        <path d="M84.225 89.95c.535 1.685-1.086 2.98-1.93 4.226-2.796-.63-4.784.403-5.54 1.646-1.807 2.97.522 4.697.442 6.022-.08 1.325-1.726 3.01-4.095 3.373-2.37.36-4.095 1.084-4.778 1.365-1.646-.964-3.292-1.405-4.858-1.164s-2.777 1.804-4.336 1.164c-3.132-1.285-3.092-2.97-3.975-4.537-.883-1.566-2.49-1.526-2.81-3.172-.32-1.646.562-2.89 2.93-2.73 2.37.16 4.458-2.61 6.345-2.45s3.894 2.077 7.428 1.04c3.533-1.04 2.098-4.09 3.774-4.532 3.812-1.003 7.667 1.446 11.403-.25z"/>
        <path d="M85.83 99.114c.64-.964 3.09-2.89 3.05-4.778-.04-1.887-2.45-9.515-4.336-10.84.04 2.77 1.767 4.948 2.007 7.468s-1.763 2.97-2.246 4.055c.762.842 1.444 2.046 1.525 4.094z"/>
        <path d="M83.22 103.09l-1.682 3.813-14.58 6.143c.897-1.218 1.135-2.53.964-4.216l10.96-4.095.563-1.646c.628.2 2.258.482 3.774 0z"/>
        <path d="M61.78 77.473s4.897-2.45 5.38-2.268c.48.18.668.822.588.997-.36.788-2.734-.257-3.774 4.042-.83-1.633-2.195-2.302-2.195-2.77z"/>
        <path d="M55.516 80.605s-.16 1.726 0 2.33c-1.325.28-4.042 1.78-5.086 4.108-1.044-.857-2.516-.16-3.025.268-.107-.534-.5-1.057 0-1.578 1.366-1.42 5.595-4.47 8.11-5.127z"/>
        <path d="M48.02 96.33l.456 3.713c.537-.654 1.483-1.063 2.088-1.063l-.428-2.436c-.448.187-1.308.217-2.115-.214z"/>
        <path d="M51.528 108.428c.124.903 5.634 2.703 8.15 3.935-.616-1.15-.79-2.877-.71-3.48l-4.63-2.275c-.16.59-2.007 1.687-2.81 1.82z"/>
        <path d="M63.867 136.493c.803.602 3.092 4.965 3.052 7.615-1.406-1.204-3.896-5.407-4.057-7.615.843 1.084 1.432 2.396 1.7 2.85-.455-1.284-.67-2.114-.696-2.85z"/>
        <path d="M164.187 93.28c.056 0 .126 0 .208.003 2.377.09 4.557 1.12 5.12 5.23-.336-.55-.563-.657-.563-.657s.59 3.88-.054 4.952c-.482-6.852-1.82-7.923-4.71-8.137v-1.39z"/>
        <path d="M164.574 95.69c.146 2.773.096 5.653-.13 8.5.054.058.122.12.213.183.668-.923 1.872-1.245 2.514-1.124.76-6.404-1.054-7.396-2.596-7.56z"/>
        <path d="M164.18 106.84c-.13 1.09-.288 2.166-.47 3.223.6.123 1.393.13 2.11-.296-.394-.83-1.245-2.267-1.64-2.927z"/>
        <path d="M166.85 111.44c-.802.58-2.235.843-3.53.69-.098.464-.2.924-.306 1.377 1.045.218 3.675.272 4.518-.783l-.682-1.284z"/>
        <path d="M176.174 161.58c.054-1.124.428-6.37 1.017-8.886s.066-3.734-.523-5.5c.428-.75 1.184-2.95 1.345-4.155 7.115-.838 7.642-16.864 6.888-23.027-.566-4.627-5.246-5.7-6.96-6.076-.18-.855-4.203-7.202-5.165-8.164.482-12.366-4.63-15.658-6.88-16.194-.962-6.19-3.66-11.777-5.617-12.918-1.285-.75-5.608-.864-8.408-1.108 2.41-18.67-3.716-22.638-7.276-28.9 1.044-9.69-.815-13.256-1.61-16.175-.483-1.768-4.498-5.622-7.067-6.505-6.963-11.423-11.395-11.142-16.702-15.417-1.476-1.19-3.51-1.17-6.88-2.944-1.98-1.044-7.574-1.874-10.786-2.034-3.213-.16-8.138 1.793-11.403 2.49-7.71-3.91-14.363-4.145-21.95-2.898C57.548 4.922 50 11.516 45.03 20.814c-9.877 4.818-9.516 11.562-8.552 16.982-9.635 17.705-5.323 33.42-2.914 38.077 0 0-5.83.468-9.378 1.015-2.443.376-4.755 7.282-5.13 13.17-6.905 1.018-5.995 10.6-5.62 13.01-1.927 2.836-3.73 5.8-5.014 8.892-3.507.225-5.59 2.333-6.078 5.173-.83 4.82 1.666 11.832 2.9 16.02 1.29 4.37 3.106 5.62 5.247 6.317.108.482.804 2.998 1.072 4.068-1.552 3.587-.32 17.184.59 17.987-.27 1.713-1.446 7.227-1.446 9.796s1.552 8.03 4.122 8.03 2.89-6.85 4.497-10.17c9.132-1.09 5.996-20.503 5.032-23.822-.964-3.32-3.32-4.55-4.55-4.925-1.178-1.66-1.606-4.684-2.007-5.97.803-7.065-.745-14.674-.986-16.36.4-.32 1.285-1.555 1.526-2.304.964.454 3.092 1.14 4.055.898.4 1.606 2.633 7.548 4.8 7.73 2.72.226 11.483-.108 14.052.053 1.044 1.928 2.82 3.407 4.266 3.4 1.235 6.524-.153 10.924.11 18.027.165 4.438.718 8.274 1.938 11.608 1.727 4.717 4.54 6.437 6.51 9.417 4.604 6.973 7.02 8.442 8.306 10.938 7.9 15.32 12.09 19.63 19.166 19.63 4.24 0 8.448-.362 12.463-1.487 4.336 1.124 11.252 1.912 17.74-.12 6.15-1.928 9.035-10.51 11.497-14.42 1.15-1.824 2.223-3.046 3.58-4.104 2.194-1.714 5.227-4.915 7.547-7.503 3.64-4.06 6.077-12.465 5.807-19.023-.24-5.862.134-15.498.616-18.55 1.874-.64 5.782-3.907 6.53-6.53 1.072 0 11.457-.59 13.17-.75s3.533-6.53 3.908-7.922c.75.107 1.933-.154 2.682-.314.268.642 1.82 2.73 2.355 3.96-.428 1.286-.968 7.382-.968 10.22 0 2.836-.108 5.513.48 7.44-.213.75-1.123 3.747-1.498 5.567-5.35 1.48-4.486 15.41-4.557 21.124-.042 3.372.908 7.615 5.574 8.264 3.425 9.315 8.207 11.998 10.51 11.998s4.536-2.744 4.536-5.902-6.107-8.773-7.98-14.18c.37-.746.584-2.566.638-3.69zm5.143 18.074c.268 2.57-1.42 3.24-2.382 3.24-2.436 0-6.437-4.53-9.275-12.133-3.065.222-4.254-1.08-4.83-4.65-.3-1.856-.022-5.147.16-8.244.317-5.39.214-11.416 4.336-11.99.535-2.517 1.5-6.532 1.98-7.924-.748-1.178-.91-12.58.536-17.398-.482-1.338-3.32-5.996-3.533-6.638-.867.606-4.124.705-5.54.593-.79 3.08-1.81 5.847-3.03 8.045-3.614.723-12.876.91-13.812.91-.535 2.248-2.436 5.835-7.227 6.638-1.123 8.19-.374 22.11-1.177 26.445-.803 4.336-4.146 11.476-9.234 15.98-2.33 2.06-2.008 2.167-3.026 2.917-1.017.75-2.61 2.625-3.694 4.283-2.73 4.176-4.39 14.133-14.99 14.72s-10.45-.802-12.138-.922c-1.686-.12-4.938 1.566-12.366 1.566s-10.078-5.89-11.95-9.1c-1.172-2.008-5.228-9.97-7.213-11.924-2.09-2.057-5.002-6.595-6.01-7.844-1.68-2.08-4.257-4.216-6.104-7.75-1.78-3.4-2.58-7.478-2.73-10.49-.362-7.255.775-10.868.56-14.91-.15-2.833-.963-4.336-.963-7.548-2.275.027-2.944.24-4.738-3.346 0 0-15.222.118-15.398-.16-.902-1.428-1.973-4.2-2.947-7.72-2.62.776-5.5-.15-7.025-1.563-.32.923-1.633 3.64-3.078 5.407 1.044 4.818 1.633 15.364.642 16.38.16 1.282 1.445 4.9 3.132 8.19 4.443.75 4.71 5.333 4.98 10.172.212 3.844.072 7.83-.38 9.502-1.022 3.774-3.1 4.363-5 3.935-.884.482-2.116 10.52-3.668 10.52-.723 0-1.954-2.276-1.954-5.06 0-2.007 1.204-6.906 1.686-9.957-.637-2.113-.817-6.48-.857-10.492-.034-3.408-.032-6.635.578-7.224-.71-1.34-1.406-4.607-2.05-6.534-2.797-1.2-4.54-5.012-5.74-9.194-.97-3.38-1.815-7.08-1.887-8.68-.16-3.58 3.105-5.894 6.05-5.412 1.284-3.212 3.987-7.896 6.02-10.6-1.136-9.794 1.71-11.52 5.745-11.378.2-5.183 1.208-9.946 3.485-13.253 2.284-.318 8.684-1.01 11.563-1.072-1.22-4.52-4.36-11.43-4.015-16.836.483-7.548 1.926-14.614 6.345-22.564-1.427-6.926-.665-12.205 7.147-15.632 4.06-6.244 10.598-17.47 27.193-17.914 9.69-.26 11.35.543 16.89 2.872 3.213-1.044 3.238-.738 4.98-.964 3.413-.442 7.61-1.627 10.3-1.024 2.69.602 4.394 1.145 5.52 1.466s3.853 1.767 5.34 1.967c1.485.2 2.328.36 3.934 2.006 1.605 1.646 9.128 4.65 14.493 15.043 4.39.374 6.332 3.666 7.286 7.398.83 3.25.76 8.947.6 11.585-.168 2.792 1.49 4.566 2.93 6.718 1.315 1.964 3.028 4.404 3.574 6.974 1.527 7.182.544 12.507.143 18.53 0 0 9.308.767 9.828 1.294 2.59 2.628 4.168 7.265 4.884 12.67 4.43 1.033 6.98 3.79 6.704 14.842 1.338 1.452 4.21 5.933 5.87 9.895 2.842 0 5.398 1.08 6.094 4.184.383 1.706.01 12.897-1.325 16.474-.98 2.622-2.534 3.688-4.697 3.84-.482 1.875-1.646 5.863-2.128 6.72.375.802.923 2.087.87 3.425-.054 1.337-.91 11.616-1.82 14.774 1.353 5.207 7.282 11.35 7.55 13.92z"/>
        <path d="M21.778 96.358c-1.558-.166-2.527 1.113-2.276 5.104 1.325.06 2.45 1.345 2.49 2.35s-1.018 3.465-1.808 4.696c.564 1.24 1.714 1.8 3.318 1.35-.89-4.168-1.566-8.89-1.724-13.5z"/>
        <path d="M21.745 93.808c-1.96-.373-4.277.536-4.792 4.043-.1.684.3.32.562.903.12 1.325.08 2.43.16 3.192.222-.26.583-.3.583-.3-.448-4.233.348-6.456 3.492-6.413-.008-.477-.01-.952-.005-1.424z"/>
        <path d="M24.026 112.15c-2.157.17-3.32-.24-4.806-2.143-.134.268-.768 1.276-.902 1.356 1.224 1.785 4.43 2.53 6.01 1.98-.102-.39-.202-.787-.302-1.193z"/>
        <path d="M14.403 160.663c.1-.803.843-1.787 1.285-2.31 0-1.244-.522-3.27-.582-3.833-.14.602-.26 1.164-.3 1.566-.242-.16-.563-.602-.603-.763-.12.883-.563 3.132.2 5.34z"/>
        <path d="M15.487 113.327s-3.394 6.61-3.654 7.026c-.803 1.285-2.57.424-2.088-1.445.803-3.107 3.01-6.825 3.01-6.825-.187 2.047.243 3.33 2.732 1.244z"/>
        <path d="M123.904 135.41c-1.097.387-3.01 2.194-4.015 4.844.28-1.405-.028-5.476-.35-6.634 1.486-.234 3.72.263 4.364 1.79z"/>
        <path d="M66.33 137.657c.04-.964.695-1.927 1.15-2.195-.268-1.044-.51-2.302-.32-2.998-.59-.83-3.08-2.12-4.47.586.213.646 2.97 2.332 3.64 4.607z"/>
        <path d="M173.033 164.598c.442-.803.723-3.895.763-5.18-.442.684-.964 1.446-1.405-1.043-.28 1.606-.36 3.587-.52 4.15.4.76.83 1.122 1.163 2.073z"/>
        <path d="M174.117 144.295c-.103 1.29-.92 3.9-1.74 6.156-.43 1.186-1.077 2.23-1.742 2.27-.642.04-.986-.958-.678-2.35.52-2.354 1-5.246 1.59-7.093.55 2.705.884 3.133 2.57 1.018z"/>
        <path d="M11.7 122.454c.026.723.358 4.604.875 5.567-1.25-.026-2.32.188-2.375 2.678-1.28-1.62-3.038-7.643-2.57-9.984.99 1.874 2.678 2.704 4.07 1.74z"/>
        <path d="M13.332 127.218c-.24.642.41 3.658 1.312 4.63.455-.668.696-2.488-.16-4.63-.135.643-.857.696-1.152 0z"/>
        <path d="M7.583 126.228c.155 1.15 2.43 7.093 3.474 8.27-.696.295-1.05.168-1.29.008.08.348.118.693.312 1.037-1.74-.596-3.345-6.27-3.573-8.324.4.56.4.695.616.56.213-.133.224-1.204.46-1.552z"/>
        <path d="M16.01 140.173c.145 2.038 1.203 5.728 2.167 7.387.463.797-.964 1.98-1.793.99-.83-.99-2.302-6.397-2.382-7.52 1.07 1.258 1.632 1.552 2.007-.857z"/>
        <path d="M15.928 150.585c-.2.723-.08 4.497.522 7.006 1.164-.58 2.85.04 3.493.924.442-1.445-.08-5.922-.442-7.93-.52.764-2.648 1.407-3.572 0z"/>
        <path d="M21.188 155.805c.32 4.473-.76 6.313-1.425 6.585-.883.36-1.187 1.73-1.146 2.373 1.044.442 4.49.528 4.09-9.118-.242.762-.997 1.164-1.52.16z"/>
        <path d="M168.577 154.547c-.107.91-.7 6.692-.696 7.976.858-1.606 2.276-1.573 3.026-.91.59-1.425.937-5.38.964-7.2-.83.856-2.49 1.31-3.293.134z"/>
        <path d="M168.818 169.014c-2.593.46-3.883-2.17-3.03-9.616.26 1.445.5 1.345 1.224.823-.04 1.527-.462 6.124.87 6.545.28.643.614 1.807.936 2.25z"/>
        <path d="M173.85 114.317c.803 1.445 2.973 5.562 3.185 6.558.268 1.258-.214 2.623-1.552 2.41-1.338-.215-4.176-7.094-4.497-7.63 2.355 1.847 2.947 1.472 2.864-1.338z"/>
        <path d="M171.842 129.467c-.16.535-.402 4.55.054 5.728.348-1.312.99-2.703 1.392-3.158-.107-.562-.268-1.633-.214-1.98-.24.587-.937 1.792-1.232-.59z"/>
        <path d="M174.68 125.184c-.108.75-.43 5.246-.402 5.728.99-.187 2.623-.455 3.4 2.998.508-2.13 1.55-8.592 1.26-10.76-.752 2.14-2.385 3.372-4.26 2.034z"/>
        <path d="M179.63 128.664c0 1.767-.476 5.538-1.518 7.468-1.022 1.894-.06 1.606.314 1.606s.83-.06.857.117c.027.177-.455.66-.294.713s1.3-.538 1.72-1.65c.448-1.183 1.115-5.43.82-7.008-.428.775-1.39 1.564-1.9-1.246z"/>
        <path d="M64.67 128.02c-2.034-1.618-5.83.787-5.996 5.783-.15 4.526 1.7 8.632 6.217 13.504-.273-.797-.73-1.593-.81-2.155.858 1.07 2.637 2.744 3.46 3.085-3.78-4.61-6.98-9.72-6.804-14.795.086-2.49 1.547-4.168 4.35-4.122-.59-.51-1.42-.428-1.887-1.057.573-.335.993-.06 1.47-.242z"/>
        <path d="M112.742 171.624c1.66-.642 7.28-5.942 5.3-11.777-.094.368-.252 1.1-.67.964-.417-.137-.508-1.284-2.114-3.398 1.713 5.06.696 9.127-3.332 12.928-.614.578.816 1.284.816 1.284z"/>
        <path d="M79.338 79.762c.24.696-.32 2.897-1.66 3.03-1.926.194-3.56-.166-3.533-3.19.455.08 1.646.327 2.128.54-.24.215-.816.37-1.03.342 2.73 1.018 3.212-.91 4.095-.722z"/>
        <path d="M57.47 80.913c-.054.482-.08 2.14 1.044 2.784 1.124.642 2.33.32 2.784 0 .455-.32 1.392-1.58 1.178-2.784-.375-.054-1.097.214-1.42.616-.32.4-1.792.48-2.328.32.348-.16.51-.46.348-.63-.16-.173-1.232-.04-1.606-.307z"/>
        <path d="M51.52 91.144c.08.582.08 2.6-1.06 2.955-1.63.51-3.657-.324-3.536-2.775.422.02 1.425.02 1.626.26.2.242-.254.503-.53.463.53.32 1.634.34 2.015-.04.382-.382.462-1.165 1.486-.864z"/>
        <path d="M78.682 98.34c-.06.292-.22 1.294.12 1.696s.803 1.225 2.29 1.306c1.485.08 2.528-1.013 2.61-1.5s.14-1.19.14-1.5c-.34-.09-.95.056-1.09.317-.386.714-2.054.822-3.08.454.322-.054.898-.12.83-.32-.067-.202-.75-.194-1.82-.453z"/>
        <path d="M61.24 109.844c0 .462-.124 1.595.378 2.198s1.87 1.305 2.993.34 1.404-2.267 1.364-2.81c-.562-.02-1.164.06-1.265.483s-1.607 1.004-2.51.4c.4-.02.774-.213.542-.4-.42-.342-1.14-.13-1.502-.21z"/>
        <path d="M53.408 103.23c.14.56.28 3.11-1.546 3.21-1.827.1-3.352-1.023-3.154-3.212.464.302 1.146.08 1.467.322.32.24-.26.448-.482.448.14.28 1.19.387 1.927.214 1.286-.3.282-1.017 1.788-.983z"/>
        <path d="M125.67 81.61c-.027.775.348 2.408 1.58 2.81 1.23.4 3.05-.108 3.29-.697.242-.59.43-1.686.403-2.33-.375-.026-1.004-.003-1.124.188-.06.094.155.26.04.416-.162.214-1.172.75-3.1.375.476-.093.89-.258.81-.4-.207-.375-1.23-.308-1.9-.36z"/>
        <path d="M108.754 80.03c.027.534.32 1.766.67 2.194s1.123.99 2.836.75c1.713-.24 2.115-2.168 1.82-2.944-.482-.107-1.07-.08-1.044.134.027.214-.964 1.23-2.73.83.428-.187.83-.59.51-.642-.322-.055-1.66.025-2.062-.323z"/>
        <path d="M135.922 91.566c-.08.642-.14 1.82.866 2.516 1.007.696 2.88.59 3.47 0s1.017-1.767.883-2.864c-.293.08-.922 0-1.177.214-.188.158.197.297-.017.458-.544.408-1.798.666-3.074.533.683-.174 1.03-.642.736-.616-.294.026-1.044.053-1.686-.24z"/>
        <path d="M104.76 98.552c-.04.36-.182.944.2 1.606.38.662.662 1.445 2.83 1.465 2.17.02 2.27-2.228 2.17-3.07-.282-.02-.945.14-1.105.56s-1.566.593-1.827.588-.903-.084-1.245-.265c.703-.02.903-.462.984-.662-.542.16-1.647.12-2.008-.22z"/>
        <path d="M140.98 105.002c.162.562.028 1.98-.56 2.596-.59.616-2.24 1.097-3.347.53-1.017-.523-1.48-1.437-1.606-2.724.67.214 1.693.254 2.034.194.04.24-.3.562-.56.582.46.24 2.44.187 2.85-.622.28-.556.455-.168 1.19-.556z"/>
        <path d="M119.54 111.694c-.106.562-.213 2.168 1.473 2.757 1.686.59 4.122.028 3.908-3.05-.4-.027-1.163.02-1.11.26.054.242.06.342-.22.463-.863.37-2.132.59-2.912.4-.33-.08.74-.25.68-.552-.03-.158-.95.002-1.817-.276z"/>
        <path d="M119.956 148.016c1.285-.843 4.428-5.216 4.657-7.762.104-1.15-1.726 1.78-1.847 2.14.482-1.725 1.024-3.24 1.586-4.083.41-.614.44-1.524.26-1.4-1.304.91-3.52 6.61-3.733 7.84.026-2.033 1.15-5.566 1.806-6.53-1.136 1.124-2.785 3.943-2.904 4.738-.24 1.605.187 3.264.174 5.058z"/>
        <path d="M93.845 151.576c.697.043 3.155.04 3.426.428.483.69-.227 3.662-.77 5.54-.114.4-.52 1.763-.685 1.764-.38 0-1.462-2.222-1.7-4.378-.16-1.445-.514-3.37-.27-3.354z"/>
        <path d="M106.773 161.32c.442 2.73.268 8.758-2.68 11.375-.81.72.775 1.845 1.44 1.58 1.535-.617 2.694-3.337 3.442-6.615.716-3.142.122-6.488-1.907-9.204.602 2.53.964 4.738.964 5.822-.442-1.487-.616-2.156-1.26-2.96z"/>
        <path d="M107.39 151.362l-1.18 1.66s.055-1.338 0-1.66c.43.16.777.053 1.18 0z"/>
        <path d="M80.127 157.792c-2.37 4.918.874 12.67 3.618 14.477.82.538-.043 2.075-1.008 1.4-4.403-3.072-7.77-12.095-4.416-17.143-.157 1.212-.35 2.842-.106 2.944.254.108.857-.978 1.733-2.02.03.162.083.25.18.342z"/>
        <path d="M84.464 130.15c-2.463-1.393-2.792-3.195-6.713-4.51-1.454-.49-2.4.595-3.564.876.542-.903.022-1.666-1.967-.422-1.33.832-2.424 2.85-1.473 4.71.482-.842.73-1.187 1.378-1.55-1.558 3.31-1.07 8.17 2.462 14.667-.602-.44-1.526-1.444-1.606-1.846-.16.522-.2 1.486-.08 1.726-.957-1.397-3.073-6.77-3.358-11.576-.22-3.713.928-6.52 2.757-7.655 2.22-1.38 5.663-1.14 8.63.22 2.12.972 4.028 2.427 4.94 4.677-.764-.43-2.328-2.33-3.233-2.49-.022.603 1.385 2.476 1.827 3.172z"/>
        <path d="M68.725 152.914c-1.604.993-2.496 3.8-.897 8.244.923 2.564 2.322 5.848 5.755 8.92 1.27 1.136 2.02-.808 1.42-1.345-3.266-2.918-8.134-11.436-4.13-15.82-1.144.663-2.188 1.888-2.65 3.113-.16-1.325.08-2.39.502-3.112z"/>
        <path d="M69.782 146.677c.08.268.428 1.552.562 1.927-.616-.294-1.42-1.5-1.606-1.927.536.08.723.027 1.044 0z"/>
        <path d="M69.59 141.933c-.137.847-.09 1.797.06 2.743-.396-1.89-.912-4.857-.912-5.386-.75-1.07-.67-2.663-1.198-2.195-1.844 1.634-.18 7.016.756 8.893.47.16 1.368.27 1.614-.07.48 1.896 1.27 3.564 1.706 4.052.152.17 1.11.08 1.94-.134-1.15-2.195-3.59-7.207-3.966-7.903z"/>
        <path d="M116.443 148.016v1.927c-.442.3-1.606.823-1.987.823.782-.843 1.726-2.048 1.987-2.75z"/>
        <path d="M119.173 142.716c.3.803-.134 5.002-.154 5.745-.643.12-1.654-.022-1.915-.063.067-.515.072-1.258-.008-1.52.36-.48 1.775-2.675 2.076-4.16z"/>
        <path d="M113.197 156.983c2.41 3.828 1.66 9.174-3.105 12.74.734-2.312.988-6.438-.405-8.96-.027-.748.164-1.29.54-1.692.325.916.856 2.302 2.97-2.087z"/>
        <path d="M118.858 149.22s-1.887 2.29-2.416 2.61c.074-.348.047-.897 0-1.064.234-.114.62-.467.654-1.546.518.04 1.294.107 1.762 0z"/>
        <path d="M115.54 150.886v1.606s-1.426 1.706-1.768 1.887c.14-1.185.06-2.41 0-2.932.703.06 1.326-.18 1.767-.562z"/>
        <path d="M113.21 152.405c.1.28.142 1.934-.02 2.416-.16.483-.64.603-.64.744 0 .14.508.475.367.937-.14.463-1.338 2.196-1.854 2.196-.3 0-.522-.857-.32-1.713s.58-1.278.44-2.322c.502-.42 1.907-1.773 2.028-2.255z"/>
        <path d="M110.32 155.745c.642.08-.35 1.666-.393 2.457-.02.383-.16 1.136-.45 1.257-.2.082-.984-1.105-.823-1.607.16-.502 1.113-1.305 1.666-2.108z"/>
        <path d="M119.022 131.213c4.07-.28 7.116 1.144 7.474 5.396.095 1.126.66-.49 1.036-.223.47.335.413 5.345-1.938 8.286-.624.78-.165-.62-.433-.78-1.76 3.426-6.563 8.003-7.51 8.512 1.18-.294 2.506-1.378 3.19-1.88-.04.462-1.034 1.747-1.56 2.108 6.052-4 9.708-10.063 9.56-15.724-.126-4.875-3.294-8.48-10.53-7.504.254.482.562 1.125.712 1.807z"/>
        <path d="M111.874 134.907c-.18.695 1.175-.676 2.206-1.21.383-.2.04-1.32-.36-1.072-.402.248-1.685 1.666-1.846 2.282z"/>
        <path d="M112.85 131.742c.207-.198.843.274.74.586-.18.552-1.97 1.3-2.03 1.12-.072-.215.77-1.21 1.29-1.706z"/>
        <path d="M76.233 167.227c-1.874-1.074-6.436-7.81-4.778-10.84.723 1.204 1.833 2.67 2.1 2.67s.73-1.465.81-2.108c.27.427.66 1.183.985 1.37-.69 2.713-.777 4.765.883 8.907z"/>
        <path d="M72.98 153.376c.352.088 1.005 2.168 1.025 2.75.02.582-.462 2.148-.642 2.188s-1.626-2.507-1.626-2.81c-.002-.603.923-2.21 1.244-2.128z"/>
        <path d="M74.172 150.666c.187.268 2.41 4.31 2.65 4.604-.375.482-1.07 1.606-1.23 2.302-.563-.83-2.303-5.327-2.303-5.996 0-.67.373-1.07.882-.91z"/>
        <path d="M77.91 147.512c-.286-2.355.02-5.23.036-7.11.015-1.883-1.298-3.22-2.302-3.628-.816.415-.736 2.215-.736 2.59-.214-.234-.375-.65-.903-.823 0 1.606 3.055 7.78 3.906 8.972z"/>
        <path d="M101.366 129.815c4.4-4.954 11.025-4.94 14.855-.75 2.82 3.083 2.888 10.723.876 15.338-1.328 3.047-6.502 9.055-6.92 9.055-.417 0 2.188-2.38 2.388-3.985-1.202.13-3.15 2.7-3.23 2.358-.08-.34 2.093-3.043 3.487-4.937 1.1-1.493 2.686-3.196 3.076-4.435.883-2.81.365-6.606.124-7.77.763.922 1.116 1.017 1.285 1.097.17.08.66-5.348-4.253-7.24-.66-.255.037.91-.337.574-1.914-1.72-3.478-1.856-9.36 1.47.3-.682 4.435-4.02-1.99-.775z"/>
        <path d="M103.87 159.308c-.255.298-.897 1.047-1.38-.398-.48-1.445-.454-3.426-.427-4.202.027-.776-.062-2.61-.023-2.998.68-.04 1.548-.4 1.83-.944.415.288.83.622 1.26.542.16.723.144 2.354.144 2.568-.482.803-2.228 2.973-2.41 3.24-.003 0 .98 1.126 1.005 2.192z"/>
        <path d="M92.815 152.405c.32 1.312-.32 7.057-1.365 8.017-1.175 1.08-2.677-4.242-2.717-8.017 1.472.616 3.132.413 4.082 0z"/>
        <path d="M88.064 151.977c.348.964.37 7.306 0 7.965-.723 1.282-3.453-5.26-3.774-8.58.696.348 2.837.856 3.774.615z"/>
        <path d="M101.634 151.83c.16 1.245-.468 7.764-1.392 7.762-.5 0-1.098-1.274-1.506-2.744-.515-1.86-.773-4.253-.555-4.79.295-.73.965.043 1.286-.09s.428-.44.722-.376c.295.064.856.377 1.446.238z"/>
        <path d="M111.457 146.33c1.07-.482 2.918-3.613 3.126-4.862-.81-2.365-1.788-1.477-2.724.58.08.615.08 2.702-.403 4.282z"/>
        <path d="M110.664 147.427s-1.663 2.462-2.332 2.757c.32-1.472.317-6.692.112-7.87-.205-1.177 1.555-2.702 1.862-2.702.605 0 1.57 4.098.358 7.815z"/>
        <path d="M104.538 150.29c.522.583 2.678.54 2.93.476.483-.12.668-3.29.345-6.792-.188-2.036-1.333-6.72-2.532-6.72-.342 0-.747.45-.862 1.025-.2 1.003-.28 3.07-.562 3.633.2 1.526.803 6.812.682 8.378z"/>
        <path d="M99.54 142.555c.107-.482 1.556-2.5 2.12-2.5s2.197 1.99 2.197 4.842.36 5.146 0 5.367c-1.017.622-3.172 1.31-3.52.912-.39-.45-.027-.705-.194-4.546-.083-1.87-.307-3.02-.603-4.075z"/>
        <path d="M86.794 151.414c.078-.15-.993-6.917-.483-8.78.442-1.605-.857-3.813-1.807-3.813s-2.45 5.287-2.29 7.75c-.48-2.115-.258-4.78-.36-5.902-.16-1.767-1.02-3.506-1.296-3.302-1.144.843-2.037 4.453-1.956 7.532s0 5.166 1.045 5.487c1.044.32 1.847-.532 2.49-.326.64.205.722.742 1.645.807s1.164.24 1.566.4c.402.16 1.267.495 1.448.147z"/>
        <path d="M83.018 150.826c.04.823 1.445 4.718 1.706 5.56.205.662-.233 2.055-1.29 2.055-.75 0-1.058-.568-.858-.87.2-.3.06-.967-.3-1.618-.534-.96-2.43-4.283-2.49-4.805-.06-.522.17-.413.823-.38.842.04 1.224-.603 1.545-.443s.442.2.863.502z"/>
        <path d="M96.95 138.02c.984-.024 1.44.12 2.208 3.426.878 3.774 1.063 7.576.723 8.88-.26 1.003-.793.702-1.465.722-.262.008-.884.233-1.385.248-.783.023-1.716-.222-2.108-.187-.642.056-1.137.4-1.16-.583-.053-2.192-.185-7.356.538-9.897.743-2.613 1.847-2.593 2.65-2.61z"/>
        <path d="M89.763 137.878c.922-.048 1.958 1.482 2.89 4.035 1.085 2.967.817 8.78.71 9.45s-4.493.717-5.487 0c-.482-.35-.67-7.388-.535-8.38.135-.99.75-5.017 2.423-5.105z"/>
    </g>
</svg>
