<svg xmlns="http://www.w3.org/2000/svg" width="200" height="75" viewBox="0 0 200 75">
  <path d="M59.4 3.7l-9.9 13.8.6 1.8 8.4-7.7-2.6 18.1-9.9 7 4.7-13.8-3.5 3-1.2-3.3-19.2 26.1 8.8-3.6L2 71.2l45.3-55.7-6.8 2s11-6.9 18.9-13.8zM71.1 14H60.4l-2.2 15.2h11.6l.2-4h-5.6l.3-2h5.5l.5-3.8h-5.4l.1-1.7h5.5M72.6 13.8l-.3 3.7h3.2l-1.2 11.8h6l.8-11.7h3.5l1.8-3.8M94.2 13.8h-5.7l-6.6 15.4h5.8l.9-2.1H92l.3 2.1h6l-4.1-15.4zm-4.4 9.4l.9-2.4.7 2.4h-1.6zM99.4 13.9v15.5h11l-.1-4.3h-5.1V13.9M111.2 13.9l.4 15.4h11.2l-.2-4.1h-5.3l-.6-11.3M123 14l1.2 15.4h6.3L128.9 14M198 71.3l-45.8-57.1 7.2 1.9c-8.2-4.5-18.9-11.8-19.6-12.4l5 7 3.1 18.8 8.7 7.6-3.5-11 6.7 4.2L173 48.6l-8.7-3.7L198 71.3zm-46.8-50.2l-1.1-3.7 3.8 4.9-2.7-1.2z"/>
  <path d="M144.2 18.7l-.8-4.9s-1.2-.5-3.6-.5c-2.4 0-9.4.5-9.1 8.2.3 3.1 2.7 8.3 11.4 8.1 0 0 2.7-.1 3.7-.6l-1-5.6c-.6.8-1.7 1-3.3 1s-4.2-.4-4.7-3.4c-.2-1.6 1.6-3 3.7-3 2.2.1 3 .3 3.7.7z"/>
</svg>
