<svg xmlns="http://www.w3.org/2000/svg" viewBox="0 0 200 75">
	<path d="M59.4 3.7l-9.9 13.8.6 1.8 8.4-7.7-2.6 18.1-9.9 7 4.7-13.8-3.5 3-1.2-3.3-19.2 26.1 8.8-3.6L2 71.2l45.3-55.7-6.8 2s11-6.9 18.9-13.8z"/>
	<polygon points="71.1,14 60.4,14 58.2,29.2 69.8,29.2 70,25.2 64.4,25.2 64.7,23.2 70.2,23.2 70.7,19.4 65.3,19.4 65.4,17.7 70.9,17.7"/>
	<polygon points="72.6,13.8 72.3,17.5 75.5,17.5 74.3,29.3 80.3,29.3 81.1,17.6 84.6,17.6 86.4,13.8"/>
	<path d="M94.2 13.8h-5.7l-6.6 15.4h5.8l.9-2.1H92l.3 2.1h6l-4.1-15.4zm-4.4 9.4l.9-2.4.7 2.4h-1.6z"/>
	<polygon points="99.4,13.9 99.4,29.4 110.4,29.4 110.3,25.1 105.2,25.1 105.2,13.9"/>
	<polygon points="111.2,13.9 111.6,29.3 122.8,29.3 122.6,25.2 117.3,25.2 116.7,13.9"/>
	<polygon points="123,14 124.2,29.4 130.5,29.4 128.9,14"/>
	<path d="M198 71.3l-45.8-57.1 7.2 1.9c-8.2-4.5-18.9-11.8-19.6-12.4l5 7 3.1 18.8 8.7 7.6-3.5-11 6.7 4.2L173 48.6l-8.7-3.7L198 71.3zm-46.8-50.2l-1.1-3.7 3.8 4.9-2.7-1.2z"/>
	<path d="M144.2 18.7l-.8-4.9s-1.2-.5-3.6-.5c-2.4 0-9.4.5-9.1 8.2.3 3.1 2.7 8.3 11.4 8.1 0 0 2.7-.1 3.7-.6l-1-5.6c-.6.8-1.7 1-3.3 1s-4.2-.4-4.7-3.4c-.2-1.6 1.6-3 3.7-3 2.2.1 3 .3 3.7.7z"/>
</svg>
