<!--
  SVG Music Logos
  Metallica - Beyond Magnet Symbol v0.1.0
  https://github.com/tiagoporto/svg-music-logos
  Copyright (c) 2016-2018 Tiago Porto (http://tiagoporto.com)
-->
<svg xmlns="http://www.w3.org/2000/svg" viewBox="0 0 200 200">
  <polygon points="45.438,119.098 38.177,134.757 60.189,125 56.559,131.581 62.685,131.808 26.149,163.805 28.191,151.779 3,197.619 75.848,128.175 74.714,138.842 94.005,106.618 71.083,125.906 67.679,125.453 78.346,110.02 45.438,119.098"/>
  <polygon points="154.562,119.098 161.823,134.757 139.811,125 143.441,131.581 137.313,131.808 173.851,163.805 171.809,151.779 197,197.619 124.15,128.175 125.286,138.842 105.995,106.618 128.917,125.906 132.321,125.453 121.654,110.02 154.562,119.098"/>
  <polygon points="45.438,80.902 38.177,65.243 60.189,75.004 56.559,68.422 62.685,68.196 26.149,36.195 28.191,48.225 3,2.381 75.848,71.825 74.714,61.161 94.005,93.385 71.083,74.094 67.679,74.547 78.346,89.98 45.438,80.902"/>
  <polygon points="154.562,80.902 161.823,65.243 139.811,75.004 143.441,68.422 137.313,68.196 173.851,36.195 171.809,48.225 197,2.381 124.15,71.825 125.286,61.161 105.995,93.385 128.917,74.094 132.321,74.547 121.654,89.98 154.562,80.902"/>
</svg>
