<!--
  SVG Music Logos
  Metal Church - The Dark v1.0.0
  https://github.com/tiagoporto/svg-music-logos
  Copyright (c) 2016-2018 Tiago Porto (http://tiagoporto.com)
-->
<svg xmlns="http://www.w3.org/2000/svg" viewBox="0 0 200 159" class="metal-church">
  <path class="metal-church__stroke" d="M182.28 93.014l-3.094-2.175V74.265h-.013l6.465-23.002h-3.79l-8.06 8.956H161.66V6.96l-9.644 14.794h-6.85V53.83L128.89 2.777l-5.805 18.977H98.173L89.11 3.75v18.004h-3.835L75.323 5.42v16.334H49.34L43.657 33.69l-11.76-20.3v7.07L21.844 2.804v62.89L2 84.886v61.28l10.958 10.057H27.69l10.65-10.798V128H51.61v-18.9l4.374 3.06v24.088h6.364l9.365 10.003V125.55l10.148 9.25 6.69-6.798h27.942v-13.773l.902.844v21.434h6.573l9.857 9.115v-22.68l14.52 14.036 14.603-14.496v17.132L173.138 128h6.564v-19.196l3.093 2.03V128H198V74.265h-15.72v18.748zM35.503 115.83l-12.886 6.6v16.91H18.88V91.018h3.738v27.578l12.886-6.286v3.52zm13.402-41.564H38.34V57.11l4.79 7.68 5.776-8.392v17.868zm7.08 20.447l-4.374-2.886v-14.47h4.374v17.356zM79.06 37.798h1.844l4.69 5.026H79.06v-5.026zm.13 22.293V57h4.17l2.922 3.093H79.19zm7.602 50.516l-2.32 2.44v-35l2.32 2.267v30.293zm8.376-28.61h-1.546V60.092h-1.805V37.67h3.35v44.327zm32.39-32.687l.935 2.77-1.495-.946.56-1.825zm-16.482-11.055l5.52-.328-5.52 18.04V38.256zm6.643 55.254l-1.805 1.545v-4.553h1.804v3.007zm13.27 13.286l-3.684-3.747 3.685-3.56v7.306zm-1.52-26.483l-6.323-6.047h-3.208l3.725-11.83 10.49 6.865 1.316 5.175-6 5.838zm33.48 21.557l-12.952 6.356v6.503h-2.77V90.5h2.77v14.096l12.95-6.038v3.31z"/>

  <g class="metal-church__text">
    <polygon points="35.762 74.781 35.762 48.107 43.236 60.091 51.483 48.107 51.483 74.781 62.179 74.781 62.179 24.331 50.968 24.331 43.88 39.215 34.473 22.978 34.473 30.195 24.422 12.541 24.422 72.59 26.226 74.781"/>
    <polygon points="65.272 74.781 85.374 74.781 91.044 80.322 91.044 62.668 76.611 62.668 76.611 54.421 84.472 54.421 88.853 59.06 88.853 45.4 76.483 45.4 76.483 35.22 82.024 35.22 89.24 42.952 89.24 24.331 83.828 24.331 77.9 14.602 77.9 24.331 65.272 24.331"/>
    <path d="M174.934 62.797h-15.85V15.633l-5.67 8.698h-5.67V70.4L128.93 11.38l-6.057 19.588-.193-3.737-13.853 43.814V35.35h9.02l3.737-11.02h-25l-4.896-9.728v20.49h6.057v47.163l5.67-7.474h13.66l5.154-16.365 14.174 9.278 1.804 7.087h38.143l5.542-19.716-6.958 7.733zM124.226 52.1l3.286-10.695 5.477 16.237-8.764-5.54z"/>
    <polygon points="35.762 87.539 35.762 109.316 25.195 114.471 25.195 88.44 16.304 88.44 16.304 141.919 25.195 141.919 25.195 124.007 35.762 118.594 35.762 144.367 26.613 153.645 13.941 153.645 4.577 145.011 4.577 85.992 20.17 71.173"/>
    <polygon points="28.675 76.843 49.035 76.843 49.035 93.209 58.571 99.523 58.571 76.843 69.137 76.843 69.137 139.728 63.467 133.671 58.571 133.671 58.571 110.347 49.035 103.775 49.035 125.424 38.082 125.424 38.082 85.477"/>
    <polygon points="71.586 76.843 81.895 76.843 81.895 119.496 89.369 111.636 89.369 82.255 91.688 84.575 100.709 84.575 100.709 125.424 89.884 125.424 89.884 122.976 81.766 131.223 71.586 121.945"/>
    <path d="M131.25 85.348l-8.893-8.505h-19.072v48.58h10.63v-17.138l6.058 5.67v19.974h5.004l6.27 5.798v-28.994l-7.602-7.732 7.603-7.345v-10.31zm-11.276 8.89l-6.057 6.315V87.925h6.057v6.314z"/>
    <polygon points="133.569 80.322 133.569 119.11 148.323 133.371 163.078 118.723 163.078 104.677 152.576 109.832 152.576 117.306 144.651 117.306 144.651 87.925 152.576 87.925 152.576 100.554 163.078 95.657 163.078 82.255 157.279 76.843 136.79 76.843"/>
    <polygon points="160.63 76.843 176.609 76.843 176.609 92.178 184.856 97.976 184.856 76.843 195.423 76.843 195.423 125.425 185.371 125.425 185.371 109.445 177.124 104.033 177.124 125.425 171.97 125.425 165.527 132.769 165.527 81.224"/>
  </g>
</svg>
