<!--
  SVG Music Logos
  Metallica - Scary Guy Skullhawk v0.1.0
  https://github.com/tiagoporto/svg-music-logos
  Copyright (c) 2016-2018 Tiago Porto (http://tiagoporto.com)
-->
<svg xmlns="http://www.w3.org/2000/svg" viewBox="0 0 195 200">
  <path d="M182.233 124.873l-.735-.082-1.96.083-1.226-1.06-2.613-1.39-1.798-1.226-.98-1.388-.41-.655.49-.736.98-.654 1.307-.898.326-1.226-.655-.407-.734-.082-1.062.736-1.062.815-.572-.244-.49-.326-.817.327-.816 1.145-1.88 2.123-.572.164-2.86 2.206-1.224.163-.406-.98-1.634-.898-3.35-.818-4.247-1.306-4.9-1.307-4.165-.98-.98-.653-.736-.164-.818-.082-.653.655.164.817 1.225.898 1.388.245 4.328 1.388 5.31 1.308.898.245 1.062.9 1.144.815 1.39.49 2.694.082 2.533 2.287 1.715.162.735.246h.9l.162-.735.408-.654 1.225-.49.98-.818.735-.41-.736-.57-.082-.654.653-.572.818-.244.573.244.326 1.062.98 1.306 1.552 1.553 1.144.653.163.818-.654.407-1.144.164-.98.652-1.798.98-.98.98-.817.327-1.47-.247-1.96-.898-1.144-.41-.98.164-.98.817-.572 1.307.573.817h1.06l.656-.816.488-.244.9.163 1.552.898.98.328 1.47.41 2.778.244.326.818-.49.98-1.143 1.143-1.226.41-.735.326-.736.734-1.307-.163.08-.898.408-.816.736-.818-.408-.98-.816-.327-1.062-.162-.49.49v.817l.572.816-.08.82-.654.734v.817l-1.634.41-1.634-.9-2.124-.326-3.022-.49-1.634-.408-.244-.817.572-1.063.735-1.388.898-.98.736-.082.654.327.653-.49v-1.308l.49-.98.244-.898.165-1.88h-1.227l-.572.49-.572 1.226-.163.326-.98-.244-3.348-2.696-3.84-2.45h-.653l-1.063-1.062-1.225-.244-1.308-.9h-.735l-.736.49-.653.082-.817-.898-1.144-.164-.9-.898-1.224-.654-.98-.082-.49.41-.654.898.08 1.144.736 1.47.49.57 2.86.9 3.185 1.062 3.103 1.225 3.594 2.042 1.47 1.062.49.735-.326.816-.572.735-.407.982v1.553l-.41.98-.734 1.225-.082 1.144.327.736h3.268l.082.326.572.164.163.326h.9l.162.327 1.062.082h1.062v.49l.816.08 1.144 1.553h2.287l5.065 2.94.98-.08.49-.82-.082-.98-.572-.57.327-.49 1.716-.165 1.225-1.47.9-1.96.653-1.307 1.062-.572 1.47-1.306.98-.9.9-.243.163-1.062-.735-.9-1.227-.162-.735-.408-.162-.735.898-.98 1.553-1.145 1.388-.407 1.632-.164 1.798-.243.898-.9-.563-1.064zm-41.903-4.41l-.9-.082-.08-.408h1.06l-.08.49zm20.747 18.378l-.816-.49-.164-.326.327-.082.735-.08.41.163.08.49-.57.326zm4.737 1.144l-.572.572H164.1l-.246-.653.245-.818 1.06-.326h.573l.327.162-.246 1.062zm3.024-1.45l-.818.097-.49-.096v-.68l.736-.194.572.195v.68z"/>
  <polygon points="33.623 150.548 34.277 150.439 34.712 150.875 34.821 151.747 33.95 152.509 32.425 153.489 30.9 154.252 29.92 155.232 29.594 156.539 29.594 157.845 30.029 158.935 29.811 159.479 29.049 159.697 28.178 159.043 27.524 157.52 27.851 155.558 28.831 153.816 30.355 152.509 31.663 151.856 32.643 151.638"/>
  <polygon points="54.099 165.143 53.554 165.143 52.9 165.579 52.356 166.777 52.356 167.866 52.9 169.499 52.9 170.37 51.267 171.568 50.069 171.786 49.525 172.549 48.108 172.876 46.801 173.965 45.93 175.053 45.604 175.817 46.039 176.361 47.238 176.252 48.108 175.053 49.415 174.073 50.178 174.073 50.395 173.202 51.92 172.985 52.683 172.113 53.99 172.222 54.752 171.568 54.752 170.479 54.426 169.064 54.426 167.212"/>
  <path d="M77.433 135l-.327-.734v-1.062l.408-.327v-.572l-.244-.735-.736-.163-.898.163-.49.735-.898 1.226-2.94 2.778-2.206 1.552-4.002 2.94-3.512 2.37-2.287 1.797-2.286 1.715-2.042 1.96-1.798 1.715-.245 1.307-.817.817-.082 1.308-.897.245-.653.898.572.654.49.9-.244.652-.817.41-1.306 1.306-.98.898-1.307.408-1.144-.08v-1.063l-.572-.408-1.06.164-1.145 1.063-1.06 1.797-1.308.572-.163 3.512-1.39 2.614-.57 1.634-.41.653-.943.05.1-.84v-.98l-.436-.762-.653-.435.218-1.09-.762-.87-.763-.545h-3.377l-.87.98H29.05l-.218.436-2.832-.11-.653.436-.764.11-.217-.546v-8.386l.543-.763.87-.325v-1.307l-.87-.763-.87-.98-.11-1.09.218-1.524-.435-.652.11-1.307.544-.325.434.435.545.654h.98l.762-.327 1.09-.217 1.524-.218.436.544h1.09l.216-.98.436-.763.87-.217 1.852-1.417.98-1.2.545-.325.654.545.98 1.415.327 1.09.11 1.197.545.545.217.98-.217 1.308.217.545.545.545.326 1.416.545 1.2 1.198.435.762-.545v-1.525l-.545-1.742-.762-.872.328-.544 2.614-2.396 4.138-2.723 3.594-2.613 3.05-2.287 2.94-2.07 2.94-2.07 3.268-1.85 2.832-1.96 1.198.108.653-.98.98-.218.763-.763.654-.654-.327-.762-.98-.217-.763.218-2.94 1.85-4.356 2.507-5.228 3.376-3.268 2.506-2.614 1.85-3.376 2.18-2.396 1.85-2.18 1.635-.87.654-.763.108-.87-1.415-.11-2.07v-2.068l.22-1.31.544-.978.327-.764-.87-.217-1.09.11-.98.872-.762 1.198-.654-.108-.327-.654h-.544l-.654.435-.22.98v.872l-1.197 1.416-1.85 1.09-2.506 1.306-6.317.327-2.18 1.743v1.306l.764 1.416.11 1.743-.328 1.417.327 1.198v1.198l-.11 1.307-.326.87-.11.982.11 1.524-.436.98-.325.982.11.653-.545.764v.653l.544.544-.11.873-.108.87.545.98.763.22 1.198.108 1.635 1.96h1.198l.654-1.088.653-.544h.653l.327.653 3.268.22.435.325h.87l.437.545 1.09-.11.326.546.95-.165 1.147.303.407.895-.245 1.306-.082 2.696.082 2.94.163 3.268-.572.49-.082 1.552.245.572.98-.164.816-.898 1.062-1.06.49-.655.98-.164.653.736 1.308.572h1.144l.653-.245v-.735l-.572-.41-1.225-.815 2.37-.49 4.083-1.553 3.84-1.388 3.35-1.226 2.37-.898 1.877-.898.736-.408h.736l.57.163.654-.817.572-.572.735-.327.817-1.308-.327-.654-.735-.245H63.3l-1.55-2.53-1.307-3.187-.98-4.247-.736-3.187v-1.306l1.225-1.88 1.062-1.143.245-.817 13.477-14.54.49-.653.164-1.06.49-.328.98-.163.736-.246.327-.653-.49-.573zm-44.9 32.866l-.108.544h-.87l-.437-.435 1.634-1.417 1.307-.11.326.764-.544.654h-1.308zm2.615 2.287l-.218.544-.98-.327.545-.545h.653v.328zm36.976-31.068l-.9.736-1.96 1.96-2.45 2.37-2.37 2.777-2.286 2.615-.98 1.307-.328 1.877-.735-.163-.653 1.39-1.47.98-1.307-.49.572 1.225-.082 1.06-.817.818-.327 1.552.246 1.88.49 1.468.082 1.96.653 1.226 1.145 4.9 1.39 1.308 1.225.898v.98h-1.716l-1.47.246-1.552.653-2.287 1.306-2.45 1.143-1.145.162-2.532 1.225-2.614 1.062-1.633.735-1.388.653-.98.164-.736-.735-.735-1.47v-3.186l.49-.898.328-1.39.326-2.205.245-1.96.57-1.96 1.145-1.96 2.206-2.45 4.25.08.815-.735.245-.98-.572-.9.736-.897 1.552-1.634 2.043-2.286 3.838-3.675 3.186-3.187 5.718-5.962 3.268-3.267.898-1.062 1.225-.57-.41 1.305z"/>
  <polygon points="180.654 58.518 181.09 57.973 182.724 57.973 184.357 59.062 184.685 59.934 184.685 60.805 184.249 61.458 183.377 62.765 182.615 62.983 182.07 62.656 182.07 61.676 182.615 61.132 182.615 60.478 181.962 60.043 181.2 60.043 180.654 59.825"/>
  <path d="M191.002 54.38l-1.525-.546-1.09-.762-1.524-.11h-1.524l-2.186.487-.538-.378-2.18-2.178-.15-.42.043-.016L180 47.3h-.98l-.762-.653h-1.088l-.763.653-.98.87-1.09 1.308-1.416-.11.328.98-.872.437-1.198.327-3.268 2.178-3.268 2.396-3.05 2.396v.653l.328.763h.545l.064-.018.59.236.87-.98.544.11.763.326.545 1.198.217 1.09.544.98v1.088l-.762.87-6.536 4.684-4.792 3.267-3.16 2.395-3.7 2.723-3.16 2.614-2.178 1.852-1.742 1.633v.763l.22.544.76-.11 2.288-1.74 2.94-2.724.655-.218 1.524-1.416 2.616-1.85 3.376-2.397 2.396-1.634 1.634-1.198 2.178-1.524 3.158-2.178 2.723-2.07 1.635-1.306.98-.654.762-.653.545-.218-.11-.98-1.634-1.634-1.743-1.633-.434-.218.127-1.45.2-.076 2.506-1.416 2.723-1.96 1.96-1.416.653-.654h.925l.6.654.435 1.416-.087 1.635-.676.435-1.634.436-1.09.436-.87.435v1.198l.87.762h.764l1.306-.98 2.504-.11 1.417-.98 2.07-.544 2.068-.434 1.525-.11 1.09-.108.652.87-.328 1.2-.762.87-.436 2.505-.436.87-.326 1.2-1.198 2.613-.436 2.723-.327 1.197-.87.327-1.416-.87-1.088-.764v-.98l1.088-1.307.11-1.198.654-.87-.436-.655-1.306.218-1.743.762-1.198.654-.872.327-1.525-.544-1.09-.11-.978.546-.545.436-.872.11-1.307.87-.545.654.763.653-.217.545-1.09.327-2.07.87-3.375 2.288-3.265 2.18-3.92 2.83-2.507 2.396-1.415 1.417-1.415 1.416h-.763l-.217.654-.763.11-.543.326v.544l-.8-.267.037-.06.87-.98.87-.653.328-.654.98-.436.218-.87 1.09-.437v-.762l-.873.218-1.307 1.09-2.068 1.523-2.287 2.286.613 1.632.04.655.436.653h.87l1.96-1.09 3.813-3.158 4.03-3.05 3.268-2.722.872-1.09h.872l.98-.76 1.852-1.526.653-.218.87-.98 1.09-.654 1.524-.762.11-.436.87-.327.98-.218 1.308-.98 1.198-.762.762-.327.872.11.326.87-.217.654-.653.327-1.09.327-1.306.545-1.09 1.197-.326.98.436.762h.98l.436-.763.653-1.09.98-.435 3.705-.11 1.524.328 1.634.762h1.198l.762.762h.763l2.395-2.505.11-5.338.762-2.178 1.09-2.94.978-2.832.762-1.307.872-.218.652-.436-.33-.87zm-10.77-.235l-.123.03-.763.095-.98-.762-.218-1.525v-.98h.132l.847.545.98 1.198.435.98-.314.42zm-9.706 12.868l-.11-.327.546-.11.217.437h-.654zm7.623.544l-.546.545-.435-.762.434-.436.545.218v.435z"/>
  <path d="M164.508 29.14l-.98-.164h-.736v.327l-.816.245.08.327h-1.143l-.98.163-1.145.735-1.307-.653-.817-.163-1.144 1.143h-.736l-2.206 2.205-2.04.408-2.594 2.233-.916.054-1.88 1.144-.735.653-.653.327-1.47 1.144-.9.245-2.94 2.042-2.042.245v.735l-1.715 1.307-1.388 1.307-1.47 1.633v1.143l-.082.572-.735.817-.41 1.225.083 1.144 1.226 1.225.08 1.225.982 1.144 1.47 1.224.408.9-.407.734-.49.245.162.817-.653.9-1.145 1.306-1.715 1.143-1.144.816-.735 1.225.327 1.39.735.98 1.227 1.307 1.143.817.407.327.164-.816.653-.735.49-.083.326-.898.9-.164.325-.327-.244-.328-.572-.163-.818.244-.653.572-.897.572-.49.082.08-.9.9-.98.98-.897 1.307-1.552 1.388-2.776.653-.9.573-1.224v-1.96l-.326-.49v-1.552l-.736-.735-.49-.735-.162-1.552-.08-1.062.326-1.388.653-.736 1.388-1.715.818-.735.98-.327.898.572.082.817-.41.572-.652.735-.653.244-.08.408.49 1.062-.247 1.144-.816.653-.49 1.472.08 1.388.82.98 1.63 1.797.247.735 1.308.49.98.735v1.47l-.734 1.307-.41-.163-.245-.98-.736-1.632-.49-.9-.735.083-.736 1.145v1.144h1.062l.326 1.06-.572.9-.49 1.062.08.817.49.816-.652.98-1.47.164.736.49-.818 1.144-1.388 1.96-.9 1.47-.08.655h.49l1.144.407.327.572-.82 1.224-.355.3-.105-.028h-2.07l-.653-.544v-1.307l.436-1.198.87-1.525.982-1.524 1.198-.654.653-.436-.217-.654-.546-.218-.764.32-.762.654-.98.762-.218 1.09-.653.435-.653 1.198-.872 1.743v1.198l.327.87.434.872-.543.327.98.762.653-.435.544-.436 1.634-.11.103.85-.428-.087-.545.87 1.155.735.043.354v8.385l.87.654.22 2.177 1.633 1.307.435-.436-.217-.653-.544-.436v-1.634l-.327-.545-.11-6.752-.325-.218-.1-1.886.753.144h2.178l1.743.11 1.198.217.545-.436-.437-.872-2.396-.436-1.853-.11-1.742-.108-.07-.014-.038-.748.162-.404 1.39-.52 1.307-.327.653-.816 1.552-1.47 1.96-2.614.98-1.88 1.39-2.776 1.632-3.186 1.144-2.696-.163-1.634-.325-.163v-1.552l.407-.49-.163-1.144-.817-.98-1.143-1.226-.572-.98-.083-1.47.327-.735.735-.573-.572-.735v-.735l.736-1.47.9-1.88 1.633-2.45 2.124-2.533 2.53-2.205 2.207-1.553.163-.98.653-.572 1.226-.98 1.96-.735 1.47-.327.98-.817.653-.735-.162-.57zM135.02 54.297l-.408.327-.572-.163v-.49l.326-.41h.49l.165.41v.326zm.49-6.29l-.244.572-.41.898-.325.572-1.06-.082.08-.327v-.734l.49-.98.572-.572.49-.163.735-.162.163.817-.49.163zm5.31-3.676l-.736.327-.898-.165-.082-.49.326-.245.736-.082.653.163v.492zm3.103 9.557h-.653l-.244-.41.163-.572.408-.08.326.407v.654zm3.513 3.103h.736v.572l-.736-.082v-.49zm-1.634.735l-.572-.163-.08-.572v-.572l.49-.08.49.244.08.654-.408.49zm7.842-21.32h-.735l-.41.818-.244.408-.653-.082.407-.654.572-.817.736-.408.326.245v.492z"/>
  <path d="M118.112 121.93l-.9-.734-.162-1.144-.244-1.062-.572-.735-.327-.735v-2.696l-.49-1.144-.407-.98-.327-.408-1.388.98-.98 1.225-1.635 1.47-.98 1.635-1.145 2.37-1.225 2.613-.244 1.47-.246 1.306v.655l.246.572.08 1.06-.652 1.063-.082.9.326 1.224h1.062l1.552-.9 1.878-.978.735-.572 3.677-3.513 1.47-1.143.652-.49.572-.49-.244-.816zm-5.963 1.39l-.573.98h-.818l-.41-.653v-.898l.49-.736.653-.245.327.162.327.41v.98z"/>
  <path d="M125.708 115.316l-.98-.327-.817-.817-1.224-.9-.9-.407-.325-.408h-.652l-1.225.408-.736.326-.98.082-.57.41-.328.815.162.817.49.49v2.287l.98.898.817.9 1.06.407 1.145-.49 1.39-.982 1.55-1.225h.982l1.062-.653v-1.062l-.902-.572zm-3.675.816l-.082-.49.654-.163.082.652h-.653z"/>
  <polyline points="132.079 129.611 132.079 129.039 132.569 128.957 133.387 129.611 134.203 130.345 134.531 131.244 134.531 131.816 133.387 131.816 132.978 131.816 132.978 131.244 132.243 130.508 131.997 130.101 132.079 129.855"/>
  <path d="M141.227 100.857l-.653-.572.164-3.676-4.248-5.392-.49-1.96-.326-1.062-.653-2.042-.57-8.005-.41-.655-.49-.245-.653.163-.163.735.163 6.126.653 2.86.572 2.04.735 1.716.165 1.144-.327.735-.327 1.06.49.736v.735l-.53.53-1.593-2.244-.164-1.39-.978-1.96-.246-2.613-1.062-1.225-.572-.654-.326-.817-1.39-1.225-.57.408v.735l.163.735.406.163.246 2.37.735 1.224.08.817-.734 1.47-1.307 2.614-.818.98v.654l-3.84 4.9-1.632.246-1.552 1.306-.49.735v.735l.9 1.06-.165.818.49 1.225.898.653.653.82v.734l-.408.735-.49.49.246.408.735.98h1.388l1.063-.735.653-.326h1.143l1.226.08 2.204-1.55 2.614-2.125 2.124-2.04.163-1.308.736-1.06 1.144-.982.08-1.144-.325-.408-.41.245-.652.49h-.572l-.49-.654.654-.898 1.144-.898-.244-.817-.375-.844.374-.3.816-.078v.98l.327.735.735.082.08 1.062.737 1.062.652.898-.082 1.062-1.227 2.124-3.022 4.41-1.305 1.553-.327.817-.816.735-.735 1.388-.572 1.552v1.388l-.572.572.08.9.573 1.06.816 1.226.688 1.99-.36.053-1.145.654-.9 1.06-.244.98-.652 1.063-.327 1.062-.08.98.735.9.327.49.49.57.735-.49-.08-1.633.325-1.47.246-1.062.244-.41h.572l.08.49-.243.736v.49l.736.164.528-.774.862.203 1.225 1.144 1.308 1.47.653 2.37.573 2.206v2.696l-.326 2.532-.736 2.94-.49 2.043-.652.898-1.062.49.327-2.205.244-3.676v-3.186l-.735-1.715-1.306-1.47-.98-.41-2.614-2.368-2.696-1.388-.98-1.552-.98-1.634-1.145-.815-.57.244-.164.734.49 1.226.572.654 1.062 1.47.282.25-.12.893-.162.818-.9.08-.978-1.55-.818-.736-.735-.082-.328.49.572 1.552.818 1.39.49.652-.327.572-.328.816.49.653.98.41.817 1.06.655 1.716.08 2.04-.898 2.37-.653 1.06-.157.027-.58-.434-.245-2.45-.898-1.145-.653-1.226.49-.653.408-.573-.653-.326-1.634-.08-.244-.818.653-.41h1.062l.49-.243-.247-.49-.572-.41h-.897l-.736.49-.572.164-.572-.654.165-1.96-.818-1.062-.98-.816-.573.407-.163 1.225.572.898.572.98-.326.9v1.39l-.49 1.06-.165 1.552.215 1.783c-.42.045-.93.097-1.112.097-.327 0-.08-.9-.08-.9v-1.714l-.247-1.47-1.225-1.143-1.797-.898-9.556-.164-.98-.246.49-1.388.41-1.307-.164-1.39-.653-.326-.653.407-.327.49-.572 1.225-.327 1.47-.082 2.124.048 1.197-.946 1.336-1.225 2.53-1.143 4.086-1.062 5.718-.572 3.186-.164 3.594-.898.572-.163 1.797-.163 4.003.327 4.493.817 4.002.818 2.287.898 2.613.245 2.45 3.186 5.474.246 2.287.653 1.878 1.388 1.88 1.308 1.306 1.47.244 1.144 1.307.735 1.55.326 1.063 1.144.572 1.388.41.655-.49.08-1.472-.98-.735-.572-2.124-.815-1.552-.49-2.94-.653-2.287-.98-2.45-.736-4.003-.246-4.003 1.306-7.68 1.308-5.472 1.715-5.228.734-1.062.163-1.388 1.634-3.105 1.798-2.86 3.883-6.062.285-.39 1.772-1.968.516.172 1.06 1.47 1.063 2.205.246 2.86-.246 2.368-.572 1.062-.244 1.226.572.898.653.49.41.327.734-.245.815-.9.327-2.04.244-2.125.9-1.634.57-2.207.116-.442.7-.863.656-1.47v-.49l.653-.082v1.552l.164.736v1.47l-.244.572v.9l.407.734.818-.164.98-.98.245-1.716.163-5.31-.98-1.47.06-3.23.51.044 1.063.164.9 1.144.734 2.206-.163 5.472-.41 4.41-.815 4.166-.49 2.614v2.124l.244 1.715.572 1.633 1.225.898 1.227-.244.49-1.06-.245-1.063-.816-.736.243-5.554 1.062-2.45 1.634-2.942 1.633-2.776 1.06-2.777.41-4.33-.41-4.165-.734-2.287-.41-2.45-.735-.573-.816-.245-2.37-2.243v-.534l.572-.408.49-.49-.164-.818-.735-.08h-.71l-.27-1.145-.982-2.125-.57-.898-.408-.653.653-.98 2.37-3.105 1.552-1.716.244-.98 1.962-2.614 1.632-2.94 1.308-2.124.326-1.144-.49-.495zm-13.722-5.8l.655-.08v.572l-.655.08v-.572zm3.023 5.065l-.41 2.614-.652.898-1.307.98-1.716 1.145-.98.57-.654-.243-.736-.327-1.144-1.062-.326-1.062.244-.735 1.062-.897 1.225-.98 1.39-1.226 1.144-1.062 1.387-1.797.735-.653h.49l.246.98v2.857zm-34.634 59.384h-.49v-.898h.49v.898zm6.78 28.917h-.41l-.163-.736.573.08v.656zm5.554-40.19v1.472l-.49.163-.41-.163-.08-.572.326-.735.08-.736.573.082v.49zm4.82-4.002l-.164 1.145-1.062 1.144-.244 1.143-.9.327-.162 1.062-.653.653v-1.715l.653-.98.653-1.47.49-1.226.978-.898.327-1.39-.653-.407-.572.98-.9.163-.08 1.634-.9.163-.408 2.124h-.9v-1.96l.737-.49v-.98l.978-.818-.163-1.062-1.552 1.062-.407 1.47-.818.736-.082 1.878-.49.49-.572.818-.163 1.307.49.817.573.164.653.653-.082 1.796-1.308 2.206-.163 3.022-.898-.08v-3.677l.816-.164.245-2.86-.407-.815-.736.244-.163 1.062v1.225l-.817.735-.08 2.695-.82.735.736.572-.082.572-1.062 1.633-.326 3.267-.246 3.186-.326 7.596.163 8.495-.408-.49-1.06-1.39-.82-2.858-.734-3.92-.49-1.063v-2.043l-.408-4.574-.49-4.9-.245-1.715.816-.735-.325-1.226-.245-.816.082-1.39.654-5.227.816-3.756 1.96-6.617 1.88-2.86 2.94-.57 5.145-.164 1.144.653.245.653-.163 1.714-.41 1.552.9.49.735.653.41 1.714-1.06.897zm14.62-8.494l-.898-.817-1.715-1.716-.08-.898.734-.98.735-.41.338-.24.07.078 1.418 1.487.053 2.843-.654.653zm11.272-37.33c-.244 0-.407-.408-.407-.408l-.9-.898-.408-.817.246-.654.41.08.326.41.98.898.164.735s-.164.654-.41.654z"/>
  <path d="M116.478 103.39l-.572-.49-.572-.08-.41.326-1.877.082-3.757-1.798-3.514-2.696-1.96-2.042-.653-1.39-1.39-1.714-2.53-2.696-1.553-3.43-1.715-3.922-.817-2.532-.245-5.636.49-4.166.736-2.86.734-2.776.327-1.552v-.735l-.326-.41.572-1.47 1.47-3.02.41-1.145.08-.9h-1.143l-.49.164-1.39 2.532-1.306 2.614-.653 1.144-.327 1.39-1.797 2.53-.408 1.308-.164 1.225-1.062 2.042-2.042 3.104-.163.9-2.776 5.145-1.225 2.532-1.635 3.757-1.144 3.104-.816 2.205-.08 1.797-1.063.49-.897.082-.164-2.45-.164-2.86-.164-1.144-.327-1.307-.408-2.53.082-4.494-.41-.49-.816-.082-.98 1.062-.328 1.388.41 2.206.49 3.267.653 2.777.652 2.696.327 1.307.014.032.638 2.908.572 4.33-.245 3.674-.573 3.268-.572 2.614-.735 1.47-1.47 1.96-.327.817-.9.654-.326.817v.655l-.98.326-.736.328-.57.898.08 1.88.164.898.49.736v.572l-.326 1.06.08 1.472.49 1.062 1.145 1.225 1.06 1.063.982.244 2.206.49 1.96-.082 2.86-.572 3.023-1.062 3.43-1.06 2.94-.9 1.145-.164 5.882-.326.572.653.735 1.062 1.225-.082.41-.327h.734l.49.735.41.41.978-.327-.163-.98-1.306-1.88-1.225-.897-.165-.817-1.55-1.227-.9.49-1.307.327-2.123.08-1.715.49-2.206.817-1.96.49-2.45.327-2.287.653-2.615.653-1.47.572-.98.572-.49.327-1.225-.08v-1.307l-.98-1.553-1.716-1.96-.98-1.47-.652-1.145.49-.898.98-1.47.818-1.635.49-.898.9-.41 1.06-1.224.327-1.96.164-1.88.572-.816.557-.296.177.296.163.98.735 1.633v.654l-.41.737.41 1.306 1.225 2.043.817 1.144 2.123 1.878 1.144.98 1.47.736 1.472.244 1.715.082 2.287-.164 1.306-.326 1.47-.164 1.144-.407h4.002l1.227-1.145 1.55-1.308.9-.735.816-.327 1.307-.164 5.31-5.47.08-.982 4.166-4.82-.655-1.458zm-18.542 19.93l.735.164.164.49-.653.244-.734-.08-.163-.49.653-.327zm-23.035.245l.246.9 1.47 1.55.572.49.41.328-.328.653h-1.226l-1.96-1.797-.244-.9-.49-.816v-.572l.817-.245.734.408zm7.434-24.913l-.49.408h-.41v-.653l.9-.082v.327zm.654-4.656l-.327 1.225-.652.49-.653-.162-.082-.735.49-.654.41-.736v-.735l.49-.328.326.572v1.062zm1.797 18.38v-.247h.408l.082.245h-.49zm-.164-2.778l-.407-.246v-.572l.49-.326.572.244.08.736-.734.164zm2.615 6.126v.49h-.408v-.735h.408v.244zm5.8 4.002l-1.062-.082-.98-.326.163-.327.735-.08 1.308-.08.817.162.08.818-1.06-.084zm3.92-3.512l-.244-.407.245-.164.41.082.162.408-.572.08zm14.458-9.72l-1.306.245-3.512 2.286-.98.326-1.063.736-.407-.164-.655-.407-.653.08-.735.49-1.144.9-1.062.817h-2.858l-1.798-.49-1.307-.572-1.144-.653-1.88-2.044-2.45-3.022-.98-1.797.08-1.226.245-.816-.244-.735-.57-.573-.41-2.042-.245-4.166.245-3.84.572-2.614.245-1.307.898-1.96.572-1.39.817-3.022.653-1.062h.49l.164 1.39.654 3.838 1.307 3.757 1.88 3.432 4.084 4.248 3.84 3.43 2.533 2.37 3.43 3.103 1.47.49 1.552.244.162.9-.49.816z"/>
  <polygon points="69.238 41.745 70 41.854 70.871 42.181 71.089 43.379 69.782 44.686 67.712 46.428 67.604 48.715 67.059 49.805 67.168 51.33 67.494 52.963 67.93 54.815 69.02 56.557 70.109 57.428 70.871 58.409 70.544 58.844 69.02 58.844 66.406 56.448 65.752 53.943 65.317 51.547 65.425 48.606 65.97 46.319 66.841 44.359 68.149 42.616"/>
  <polyline points="21.479 83.622 22.378 83.622 23.032 84.112 23.685 85.337 24.502 86.889 24.665 88.278 25.564 88.768 25.645 89.503 26.299 89.748 27.442 89.667 28.586 88.605 29.648 87.543 30.301 87.135 30.791 87.053 31.037 87.624 30.954 88.278 30.22 89.258 28.504 90.729 27.606 91.3 26.789 91.627 25.564 91.464 24.338 90.32 23.277 89.258 23.113 88.115 22.623 87.053 21.724 85.909 21.071 85.093 20.99 84.194 21.234 83.704"/>
  <polygon points="38.959 78.639 39.776 80.028 41.492 80.355 42.472 81.498 44.76 81.662 45.821 81.907 48.027 82.315 48.925 83.132 51.131 83.295 52.111 83.622 53.091 83.622 53.582 84.031 54.725 84.194 56.195 84.439 57.012 84.112 55.705 83.459 53.744 83.05 52.193 82.315 50.069 82.152 50.069 81.907 48.68 81.825 48.108 81.498 48.108 81.172 46.148 81.09 45.903 80.845 45.168 80.6 44.596 80.11 43.044 80.028 42.227 79.211 41.41 78.803 40.43 78.558 39.45 78.149"/>
  <path d="M57.502 84.357v.817l.735.082 1.307.163.9.244.652.572 1.39.163h1.306v-.573s-.408-.163-.653-.163c-.246 0-1.226-.327-1.226-.327l-.898-.49-.817-.245-2.698-.245z"/>
  <polygon points="137.797 22.278 134.531 22.686 134.612 23.258 135.265 23.421 137.961 23.503 138.533 22.523 140.33 22.278 140.983 21.951 141.065 21.542 138.533 21.46"/>
  <polygon points="75.636 64.998 74.329 64.426 73.757 64.508 73.675 64.916 74.574 65.651 75.064 65.651 75.472 65.243"/>
  <path d="M165.326 25.545l-1.144-.98-1.798-.163-3.266-.327h-1.797l-3.267-.082-2.86.49-2.695.327-1.797-.408-1.06-.898-2.94.082-2.288.41-1.715.326-2.287.163-2.124-.572-2.37-.572-.325-.49 1.062-.49 1.798-.407.653-.572 1.634-.08.98-.736 2.042-.408.98-.735 1.96-.326 2.206-.654.898-.163 2.696-.572 1.47-.408 1.88-.327 1.387-.735.655-.654-.41-.57h-1.224l-.818.408-1.96.08-1.39.328-1.387.163-1.797.652-1.96.245-1.552.817-1.96.408-.573.49-1.306.245-1.143.49-1.306.735-1.797.327-.9 1.06-1.633-.325.246-1.225 2.204-1.634 1.308-1.307 1.634-.328 1.878-.572 1.797-.245 2.207-.245 1.47-.654 4.33-.327 3.02-.736 2.288-.163 5.636-.162.247-1.062-1.062-.98-2.533.245-5.065.327-7.76 1.307-5.473 1.144-4.165 1.307-3.023 1.225-1.715.817-.9-.327-.408-.41h-.735l-.736.9-2.777 2.53-3.594 2.942-1.39 1.225h-.326l-.04-.636.447-.67 1.88-2.042 2.45-2.206 3.92-2.695.573-.572.98-.163.98-.735 1.308-.327.572-.735 1.47-.572 1.552-.98 1.224-.163 1.144-.735 1.634-.327 1.388-.817 1.47-.326 1.226-.817 2.615-.082 1.39-.817 3.102-.49 1.552-.327 2.043-.652 1.062-.327-.656-.816-4.574-.082-.816.49-1.143.327-1.877.244-1.225.327-1.47.736-1.798.245-1.143.9-1.634.244-1.225.817-1.39.328-1.306.735-1.552.408-.653.736-1.144.41-1.55.816-1.31.98-.815.164-.98.817-1.226.817-.735.572-.572.327-2.615 2.53-2.04 1.962-1.228 1.225-.407.082-2.533 3.675.117-.04-1.67 1.592-1.226 2.042-1.47 1.714-.652.817-1.47-.163.162-1.797 2.124-2.696.653-.735.573-.573 1.715-2.45 1.225-1.226 1.798-1.633 1.552-1.225 2.124-1.634.735-.9-.162-.57-.572-.164-1.062.327-1.144.98-3.43 2.942-2.533 2.86-1.797 2.123-2.86 3.104-1.47 2.204-1.225 1.96-.9 1.308-1.224.408.04-1.034.042-.028.327-1.39.734-1.633.818-1.552.653-1.062.898-.57.327-.818-.41-.41-.325-.244-.655.245-1.225 1.39-1.144 2.123-.652 1.062-.326.98-.327 1.225-.244 1.144-.408.98-.572.735-1.225.98-1.062 1.388-.735 1.47-.245 2.124v1.307l.245.98.08.573-.98 1.144-1.552 1.552-.817.898v.653l-.98 1.47-.9 1.308-.816 1.96-.483 2.068-.987.3-1.798-1.796-.653.245h-1.307L82.74 52.74l-1.88-2.123-.08-2.614.08-2.205 1.063-2.696 2.206-2.696 1.796-2.042 1.797-1.307 1.88-1.225.897-.408 2.532-2.205 1.797-1.635 1.55-2.205 1.063-3.594s.245-1.552.245-1.797c0-.246.9-1.227.9-1.227l.162-6.862-1.143-1.143-1.552-.817-1.39-.817-1.306-1.47-1.553-1.797-1.633-.654-1.96-.245-2.125-1.715-1.55-.648-1.552-.327-1.96-.49-1.553-.163-3.104-1.388-3.02-.736L70.98 3l-1.062.082-.49.408v.98l1.225.572 1.797.9 1.307.162 1.715.98 1.226 1.47.49 1.144.98 1.062 1.634.654.41.735-.736.898-.245.817.165.49.817.327.898 1.062.327 2.206-.163 2.205-.41 2.287-1.47 2.042-2.04 2.042-3.024 2.532-4.084 2.532-4.82 3.35-1.633.98-2.777 2.94-1.144 1.797-.9 1.715-.572 1.633v1.225l-1.225 1.144-.08.816-.98.98-.49 1.144-.082.817.408.083-.244 1.47-.163 3.105.735 2.532 1.062 2.614 1.633 2.287v.655l2.124 3.84 2.45 2.368 2.94 2.124 1.962.245.244.49-1.344 1.792-1.515.168-1.226-.408-2.778-1.388-2.532-1.39-2.043-.897-1.225-1.39-.735-.082-1.144-.163-5.882-2.777-.816-.49-.13-.95.21-.275.49-1.144.573-.9.08-1.225-.162-.98-.815-.9-1.062-.572-.898-.245-.572-.572v-.98l-1.062-1.552-2.042-1.715v-1.144l-.98-.98v-.572l.08-1.062-.897-.898-1.307-1.47-.08-.818-.9-1.225-1.143-2.04-.408-1.47-.737-.736-.653-.327-.49.082-.245.49-.653.162-.327-.572.327-.653.817.08.326-.57.653-.49-.246-.573-.653-.41-.897-.08-.49.49-.408.652-1.39-.163-.734-.735h-.816l-.653.654.165.653.163.735-.408.245h-.898l-1.552.98-2.287 1.715-1.47 1.633-1.634 2.124-.573.98-.898.245-3.268 3.022-1.225.082h-.98l-.573.572-1.307.735-1.307.327-1.062.572-1.225.49-.327.9.327.816 1.39.98 1.714 1.225h1.062l.326.817 1.06 1.225.818 1.144.327 1.878.736.98.736 1.797.22.616-.384.53-.735.652-.082-.816-.407-.654-.903-.244-.654.082-.572.572-.898.572-.98-.082-.898.736-.735.735-.327.572-.736.162-.817.245-.49.653v.654l-1.307.652-1.39.9-.733.898-.49 1.062v.98l.735 1.797 1.307 1.06 1.715 1.47 1.797 1.145.245.735.736 2.042.898 2.532 1.88 2.86.243.734 1.633 1.715.735 1.144.49.327 3.513 3.512.246 1.225 1.143 1.553.162.654 1.39 1.552.735.325.816-.244 1.88-1.96 1.714-2.205 1.715-1.797 2.123-1.96 2.206-1.634 1.47-1.225.982-.9 2.287-.08.734-.9.735-.898v-1.81l1.305-.07.817.818.98.49.327.735.652.327.817-.082.49-.898-.288-.935 2.492.608 3.104.817 4.412 1.144 4.492.898 4.575 1.47 3.103 1.063 2.696.082 1.307-.164.735-.572.98-.082v.98l.98 1.062.164 1.634.654.98v.653l.327.573v1.88l.49.08v1.39c0 .244.49.653.49.653v1.797l.164.327.163 2.695.41.408.652-.244-.082-5.066-.327-1.47-.572-2.697-.816-2.614-.653-1.96-.653-1.308-.408-.816-.573-.573-1.552-.164-.49-.817-1.144-.9-1.06-.244-1.47-.082-1.308.163-1.062.327-2.206-.082-1.797-.327-1.716-.407-1.47-.735-2.53-.082-1.798-.898-2.042-.245-4.9-.98-2.37-.327-.21.012-.035-.094-.98-.572-.98-.163-.735-.164-.082-1.062-.98-.817-1.47-.407-1.632-.08-1.062.49-.572.734-1.144-.41-1.062-.57-1.225-.082-.735.245-.325.735.572.735 1.798.817 2.37.245 1.143.734 1.485.286.067.368-.327.653-1.062.98-1.306.736-1.144.408-1.88 1.39-2.613 2.204-2.206 2.124-1.715 1.634-.735.735-.817.41-1.143-.245-.898-1.96-1.226-2.697-1.47-2.205-2.043-2.532-1.224-1.306-.408-.408v-.817l1.47.08.98-.49.327-1.06-.735-1.145-2.696-1.633-2.205-1.634-1.635-1.552-.817-1.39-.653-1.143.245-.735.98-.98 2.123-1.062 2.043-1.307 2.297-1.84.562.45 1.47 2.288 2.042 2.614 2.206 2.696 1.307 1.307.98.327.98.082.9-.735 1.224-.165 1.96-1.144.49-.98-.408-.57-.9-.083-1.55.082-.9.816-.49.41h-1.062l-1.47-2.37-1.47-2.37-2.206-3.348-.898-2.206-1.715-2.287-1.144-3.022-1.06-1.96-.572-1.716-.572-.49V54.38l1.633-1.307 2.205-1.225 2.695-2.37 2.615-2.286 1.552-1.307 1.307-1.062 1.306-.654 1.062-.41 1.062-.57.572-.654.816-.082 1.226 1.225 1.552 2.04.327.736-.408.49-.082 1.062.49.898.57.49.328 1.143 6.372 7.35 1.797 1.552 1.144 1.39.244 1.224-.327 1.062-.898.245-2.942-2.614-3.022-3.595v-1.062l-.572-1.062-1.226-.734-1.225-.245-1.062-.162-.734-.572h-.898l-.245.735.163 1.145 1.96 2.206 3.104 3.595 5.146 4.738 1.553.98.04-.038.612.446 1.715.98 3.104 1.634 4.657 2.614 4.33 2.042 5.227 2.614 2.86.817 2.286.49 1.388-.244 1.226-.327.163-.573-1.06-.817-1.635-.653-1.715-.49-.06-.575.63-.977.818-.164h1.144l1.06.655 1.39.98.735.653h1.144l.652-.49-.163-.735-1.063-1.144-1.557-.57-.49-.735v-.572l.898-.163.817.327.653.653.572.082.408-.41.98.246 1.635.898.653.327.408-.408v-.817l-.408-.817.817-.08 1.225.326.49.245 1.39.083.162.326h1.307l.245-.41.653-.08 1.47.162.49-.653-2.696-.328-.49-.49-1.553.082v-.572l-1.39-.408.083-.49h2.94l.408.817.817-.653.736.082.328.49h.98l.817-1.553.898.082v-.49l-.572-.49.41-1.308h1.307l.735-1.225 1.062-1.225.163-1.634h-.327l-.038-.77.53-.21.49-.41-.328-.816-.408-.327v-.572l.653-.41v-.408l-.49-.327v-.736l.408-.653.49-2.615.735-.327.817.41.49.816.08 1.552 1.063-.327.98-.736.082-1.225 1.144.734.57.163.573-.572.816.163.326.735-.653.735-.08.245.652.41.244.897-.245.9v.897l.653.735 1.552.41.98.49h1.552l.735.734.49.41.474.094.345.56-.246.734-.98.817-.572.573-.246.653.572.817.98.898v1.063l.164.98.653.49.737-.327.816.245 1.715.98.735.573 1.062 1.062.818 1.47v1.963l.653 1.144-.082 1.144-1.062 1.552-1.797 3.267-.9 2.94.164 2.042.57 2.206 1.39 2.287v3.512l1.635 2.287.735.653.08.98 1.798 1.47h.735l1.062-.98.572-.98v-.653l-.98-.98-1.388-1.552.162-.817.9-.244 1.224.245h1.062l1.144-.897.9-.245 1.06-.653.655-.898-.246-.736-.49-.08-.897.245h-.736l-.407-1.062v-.735l.898-1.062.736-.9h1.959l-.163-1.55-.898-1.226-.244-1.225.082-1.47.98-1.715 1.145-1.062 1.47-1.062 1.143-.572.9-.653.08-.653-.734-.817.163-.653.572-1.715.49-2.287.57-1.062v-1.307l-1.39-.98-.815-.898V66.06l-1.47-.327h-2.124l-1.143.082-.818.41-1.307.326-1.39-.407.246-.98.98-.735 1.47-.41 1.39-.49.815-.244 1.062.163.735-.817.08-.98-.243-.817-.82-.163-1.06.327-.98.163-1.226.49-1.062.49h-1.39l.163-.7.164-.035 2.286-1.47 6.534-.41.49.328.98-.41.328-1.47-.41-.898-1.55-.49-1.063-.49-.98.082-1.307.327-1.306.408-3.103.082-.084-.898.736-1.062 1.47-1.47 1.39-.735 1.387-.818 1.96-.245-.736-1.144.9-1.144.49-.98v-.49l-.654-.49.163-.736 1.062-.408 1.47-1.39.817-1.633.326-.817.9-.654h1.714l-.163-.572-.737-.653.49-.572 1.47-.082.082-.898 1.634-1.062 1.387-.245 2.696-.245 1.553-.817.244-.817-.735-.082-1.797-.163-.655-.49.246-.653 1.224-.163h1.062l.244-.573-.407-1.307-3.35.082-.57.245-.82.735-1.305-.163-.082-1.308.898-.98 2.37-1.307 2.776-1.225 3.92-.98 4.984-1.552h10.7l.654.327.98.572h1.062l.9-.408-.244-.985zM12.413 55.278l-.572.08-.408-.244v-.327l.572-.163.49.245-.08.408zM7.92 76.27l-.08.41-.818.08-2.124-2.123-.163-.898.08-.246.736-.163.817.41.736 1.06.817.98v.49zm7.76 5.065l.245.245-.08.49-1.063-.163-.082-.654.98.082zm-2.614 1.47l.08 1.062.328.49.817.082.49 1.142.9 1.47.163.41.08.57.573.083.327 1.47.572.572.08.898-.326.082-.98-.98-1.716-2.37-1.552-2.613-.735-1.144-.082-1.144.98-.08zm-.08-14.376l-.41.08-.327-.244.244-.245.49.083v.326zm75.148-33.083l-.9-.08v-.41h.9v.49zm-.41-24.914l.49.326.573.98-.327.49-.654-.246-.327-.817-.41-.572.655-.162zm-1.714 1.39l1.552 1.633 1.878.98 2.206 1.47 1.797 1.797 1.062 1.634s.49 1.39.49 1.634v1.798l-.817.327-.735-1.062-.408-1.39-1.715-2.123-2.532-2.206-.817-.735-1.06-.083-1.47-1.388-.49-1.962-.41-1.225 1.47.9zm-3.43 14.702l1.224-2.042.49-1.634.49-.736.735-.082.408.49v.898l-.49 1.715-1.144 1.39-.653.57-.816.98-.49-.244-.08-.49.325-.815zm-5.066 2.777l.735-.817.735-.653.653.08-.08.9-.737.327-.734.98-.572-.164v-.654zm-12.742 8.904l.735-1.307.98-.654 1.308-.9.735-.49v.573l-.898.98-1.552 1.633-.898.654-.49-.082.08-.41zm1.715 2.205l-.245.573h-.736l.245-.572h.737zm.98 25.16l-.817-.245-.653-.653-.572-.327-2.206-2.368-.654-1.47 1.062.49 2.206 2.123 2.532 1.797 1.144.9.082.49h-.735l-1.39-.737zm3.84 5.31l-1.144-.654-.736-.572.245-.735.735-.164.653.163.49.734.163.898-.406.327zm6.78-10.7l-2.288 2.776 2.042 2.287-1.39.572-1.143.572-.655-.163-1.06.49L70 63.854l-4.002-3.675-2.86-2.94-1.714-3.76-.49-2.53.164-1.798 1.715-2.94 2.94-3.432 2.777-2.94 4.248-3.513 2.94-1.96 2.614-1.96 2.614-1.715.735-.654.98-.327.573-.734.817-.898.736-.245.327.49-.408.9-1.144.98-.734.735-.653.49v.9l.735.08 1.552-1.143 1.633-1.634 1.634-3.185.327-4.166-.165-2.78-.49-1.307-.818-.08-.572.49v.734l-.163.408-.245-.163-.082-1.307v-1.47l.572-.408.736.163 1.225.653 1.88 1.797 1.47 2.205.735 1.552.49 2.206-.653 1.715-2.287 1.96-1.96 1.798-1.635 1.797-1.225 1.96-3.676 2.696-2.37 2.695-1.796 3.022-1.062 2.614-.408 2.37.653 2.532.897 1.144 2.287 2.614.245 1.144 2.123 2.124 1.88 1.143-.41 1.39-.49 1.307H81.68l-.98-.41-.98-.244-1.634-.164zm1.47-17.236v.817h-.572l.163-.816h.41zm5.636 22.626h-.735l-.817-.408-1.714-1.225v-.817l-.572-.082-.653.49.164.572.653.572 1.144.98.328.9-.082.734-.898-.327-.98-.736-1.226-1.47-.98-.98-.326-.818v-.654l.408-.327.572-.654.572.246.572.49 1.144.327 1.062.653.898.327 1.634 1.552-.165.655zm2.205 1.96l-.653-.08-.082-.41h.735v.49zm1.716-3.35l-.898-.49-.736-.98-.163-1.55-1.553-.164-.08-1.062 1.224-.163 1.062 1.063 1.062.245.408.736.245 2.124-.57.243zm10.945-19.276h.408l-.41.41-.406.162v-.41l.407-.162zm-2.778-3.022l.082-1.39.735-1.224.816-.817h.655l.164 1.47-.49.9-1.062 2.37-.654.244-.245-.654v-.898zm1.06 5.963l-.652-.082-.49-.163v-.572l.41-.735.652-.245.653.408.083 1.062-.655.327zm2.535 3.348l-.49.572-.49.408-.898.163-.084-.572.49-.735.98-.736.573.163-.083.736zm.897-9.557l-.244.735h-.572l-.163-.326v-.734l.08-.572.49-.41.49.164-.08 1.144zm1.88 15.847l-.736.163.083-.572h.654v.41zm-.41-12.007l-.162-.653v-.98l.49-.327.653-.164h.816l.082.572-.326.327-.98.736-.57.49zm3.023 13.15l-.735.573-.572.898h-.9l-.08-1.96.818-.41.735-1.06h.653l.572.407-.49 1.552zm0-22.807l-.898.344-.49-.172.162-.95.572-1.206.653-.69.653-.086h.41l.408.43-.653 1.295-.818 1.034zm1.797 24.522l-.653-.08-.162-.573v-.41l.816-.163.327.327.164.41-.49.488zM127.67 73.33l-.328-.327.163-.572h.819v.41l.08.408-.734.082zm-.573-4.41l.653-.328.41.163.325.408-.08 1.225-.49.245-.41-.245-.572-.9.164-.57zm0 7.024l.244.898-.49.572-.57-.082-.327-.572.244-.817.572-.164.327.164zm-1.797-9.23l.653-.082.735.49.082.49-.653.082-.9-.163-.162-.57.245-.246zm-.408 8.903l.326.735-.163 1.062-.244 1.062h-.817l-.572-.41v-.652l.41-.654v-1.062l.572-.327.49.247zm-2.534-4.492l.572-.082.9.082.734 1.143.164.49-.164.327h-.653l-.98-.572-.572-.817v-.57zm1.063-48.93l.82-.98 1.55-1.224 1.227-.57 1.225.162-.246.49-.98.164-.326.898-1.39.326-.41.817h-.408l-.898.817h-.572l.41-.898zm3.677.328l-.164.735h-.98v-.41l.49-.326h.654zm-12.825 6.126l.736-.573h.653l-.163.653-.407.735-.653.327-.327-.327.162-.816zm-2.613 3.43l.57-.736h.817l.163.817-.898.655-.818.327-.407-.082.572-.98zm-2.207 29.977s-.653-.163-.653-.41l.98-1.306.654-.08.735.08-.082.573-.818.98-.817.164zm3.104 1.96l-.898.736-1.226.163-.327-.327.41-.9 1.143-.49.898-.162v.98zm.41-28.1v-.652l.815-.817 1.308-1.062 1.225-1.144 1.307-.654.818-.163.08.572-.326.327-.572 1.144-1.552 1.062-1.143.735L113.7 36l-.734-.082zm.733 15.522l-.49-.246-.082-.98.818-.408 1.062.08.407.655-.326.736-1.39.163zm2.124 32.59l-.9 1.145h-.652l-.163-.408.408-.817.163-.735.982-.327.326.49-.164.653zm1.307 4.9l-.49-.162v-.245l.084-.49h.572l.08.572-.245.326zm1.39 4.004h-.818l.08-.653.573-.162.246.163-.08.654zm0-36.43l-.736.407-1.06.246-.328-.49v-.654l.49-.654 1.062-.163.735.572-.163.736zm3.35-10.13l-.41.408-.734-.082-.41-.49.654-.735h.572l.41.408-.082.49zm2.287-9.802l-.818.817-1.88 1.633-1.143-.08-.818 1.06-.817.083-1.878 1.88-1.144.162-.08-.49.325-.817.9-.816.652-.245.816-1.063.9-.735 1.877-1.39 1.552-.897.98-.163.817.245-.243.815zm-.736-6.78l-.897-.327-.08-.898.57-.817 1.307-.163.245-.327 1.062-.49 1.39-.08.816-.818 1.144-.327.98-.49-.326-1.225 1.063.163 1.634.817 1.307.41h-1.553l-.815-.246-.244.245.164 1.224-2.86.41-.652.816-1.552.49-.49.327-2.21 1.305zm5.228-.408l-.08.735h-.98l-.736.652-.898.245v-.49l.98-.654.817-.49h.898zm-3.756 8.943l.498-.773 1.08-.944 1.743-.086.415-.6 1.33-.087-.998 1.975h-.747l-.83.344-1.246 1.03-1.245-.258v-.6zm3.675 7.067l-.98.572-.98.653-.49-.328v-.49l.816-1.144 1.062-.245.736.163.164.572-.327.246zm2.287-4.33l-.326.49-.818.654-1.47.082-.326-.408.08-.735.9-.245 1.143-.08.816-.655h.653l.083.817-.736.08zm.41-7.677l-1.145.163-.573.653-1.225.49-.327.735h-1.144l.083-.735.655-.98 1.47-.98 1.47-.735 1.225-.327-.49 1.717zm2.94.244l-.736.818-1.552-.163.08-.572 1.145-1.062.737-.244.572.245.08.573-.327.408zm1.06-4.98l-.734.08-.165-.408.41-.327.817-.082.163.245-.49.49zm1.717 1.224l-.734.082.08-.735.654.083v.57z"/>
</svg>
