<svg xmlns="http://www.w3.org/2000/svg" viewBox="0 0 200 118">
    <rect class="mixhell__outer-rect" width="200" height="118"/>
    <rect class="mixhell__inner-rect" x="3.344" y="59.993" width="193.312" height="55.059"/>
    <g class="mixhell__lettering">
        <g class="mixhell__light-text">
            <polygon points="40.714 10.777 34.399 34.883 28.084 10.777 11.62 10.777 11.62 50.876 21.888 50.876 21.888 20.337 29.501 50.876 38.973 50.876 46.496 20.337 46.496 50.876 56.765 50.876 56.765 10.777"/>
            <rect x="96.027" y="10.777" width="12.44" height="40.099"/>
            <polygon points="60.863 23.168 67.931 23.168 74.174 30.827 67.931 38.486 60.863 38.486 66.83 30.827"/>
            <polygon points="128.519 23.168 135.588 23.168 141.83 30.827 135.588 38.486 128.519 38.486 134.486 30.827"/>
            <polygon points="190.036 50.876 176.404 30.071 188.885 10.777 175.118 10.777 168.082 22.904 160.958 10.777 147.193 10.777 159.763 29.974 146.441 50.876 159.895 50.876 167.729 38.129 175.873 50.876"/>
        </g>
        <g class="mixhell__dark-text">
            <polygon points="134.393 88.529 140.36 96.188 133.291 96.188 127.049 88.529 133.291 80.87 140.36 80.87"/>
            <polygon points="65.297 88.529 71.264 96.188 64.195 96.188 57.953 88.529 64.195 80.87 71.264 80.87"/>
            <polygon points="39.348 68.568 39.348 82.362 26.354 82.362 26.354 68.568 13.914 68.568 13.914 107.605 26.354 107.605 26.354 91.918 39.348 91.918 39.348 107.605 51.789 107.605 51.789 68.568"/>
            <polygon points="95.506 98.791 95.506 91.225 114.285 91.225 114.285 83.133 95.506 83.133 95.506 77.058 115.769 77.058 115.769 68.568 95.506 68.568 91.054 68.568 83.066 68.568 83.066 107.605 91.054 107.605 95.506 107.605 116.273 107.605 116.273 98.791"/>
            <rect x="149.328" y="68.568" width="12.003" height="39.037"/>
            <rect x="171.822" y="68.568" width="12.003" height="39.037"/>
        </g>
    </g>
</svg>
