<!--
  SVG Music Logos
  Muse - Showbiz v1.0.0
  https://github.com/tiagoporto/svg-music-logos
  Copyright (c) 2016-2018 Tiago Porto (http://tiagoporto.com)
-->
<svg xmlns="http://www.w3.org/2000/svg" viewBox="0 0 200 90">
  <path d="M2 2.547h196v9.944H2z"/>
  <path d="M2 77.503h196v9.95H2z"/>
  <path d="M63.444 65.878v-41.17h-16.63l-9.145 27.368h-.12l-8.726-27.368H11.542v41.17h10.732l-.234-31.613h.12l10.026 31.613h10.08l10.5-31.613h.118l-.175 31.613"/>
  <path d="M73.765 24.708v25.54c0 11.265 7.313 16.337 18.047 16.337 10.735 0 18.048-5.07 18.048-16.336V24.707H98.888v23.71c0 5.427-1.472 10.03-7.077 10.03-5.603 0-7.078-4.602-7.078-10.03V24.71H73.765z"/>
  <path d="M137.932 32.142c3.126 0 6.31.588 9.14 1.887l.708-8.494c-2.77-.943-6.662-1.532-10.616-1.532-8.257 0-17.93 2.712-17.93 12.62 0 14.98 19.464 10.144 19.464 17.81 0 3.306-3.303 4.012-6.784 4.012-4.54 0-8.493-1.18-11.323-2.71l-.942 9.077c3.655 1.183 8.434 1.772 12.266 1.772 9.144 0 18.107-2.89 18.107-13.565 0-14.863-19.46-10.38-19.46-17.045 0-3.596 4.598-3.833 7.372-3.833z"/>
  <path d="M188.77 32.497v-7.79h-29.017v41.17h29.667v-7.786h-18.7v-9.317h17.047V40.99H170.72v-8.493"/>
</svg>
