<svg xmlns="http://www.w3.org/2000/svg" viewBox="0 0 200 90.492">
  <path d="M3,3.446V87.31h192.756V3.446L3,3.446z M12.985,77.371V13.385h172.786v63.986H12.985L12.985,77.371z"/>
  <polygon points="135.781,23.338 135.781,49.164 164.324,23.334 177.17,23.334 177.17,65.983 164.324,65.983 164.324,40.158 135.781,65.988 122.934,65.988 122.934,23.338 135.781,23.338"/>
  <polygon points="105.756,65.988 92.912,65.988 92.912,23.338 105.756,23.338 105.756,65.988"/>
  <polygon points="63.674,23.338 63.674,49.164 35.13,23.334 22.284,23.334 22.284,65.983 35.13,65.983 35.13,40.158 63.674,65.988 76.52,65.988 76.52,23.338 63.674,23.338"/>
</svg>
