<!--
  SVG Music Logos
  O Rappa - 7 Vezes v0.1.0
  https://github.com/tiagoporto/svg-music-logos
  Copyright (c) 2016-2018 Tiago Porto (http://tiagoporto.com)
-->
<svg xmlns="http://www.w3.org/2000/svg" viewBox="0 0 192 200">
  <path d="M91.914 111.752c-1.218-2.423-4.284-6.948-7-7.573-.55 2.364-6.414 10.866-7.97 13.206-1.4 2.114-3.136 3.84-5.243 5.248-.853.57-2.408 1.445-3.495 1.75-.657.183-3.893.62-3.893 1.36v52.835c0 7.773 6.778 19.42 13.996 19.42-1.54-1.337-2.68-2.22-3.265-4.507-.646-2.54-.437-4.236-.864-6.91-.53-3.392-.538-10.92-.538-14.805 2.346.55 6.528 4.08 6.61 4.08.255 0 6.37-5.666 7.27-6.334.88-.652 7.11-5.94 7.11-6.486V123.6c.002-4.577-1.176-8.78-2.718-11.848zm-6.803 53.03c-.674-.152-4.585-2.593-5.605-3.144-.843-.457-5.667-2.17-5.667-2.874v-33.608c0-.96 5.8-9.13 7.192-9.13h.78c1.572 0 3.3 4.467 3.3 6.413v42.343z"/>
  <path d="M128.622 111.2c-1.356-2.942-3.96-5.268-6.582-7.02-.687.504-6.806 11.19-8.006 12.977-1.468 2.19-3.033 3.84-5.21 5.282-1.473.972-5.252 2.914-7.58 2.914v51.868c0 5.223 1.81 10.172 3.755 13.533 1.512 2.613 6.198 7.167 10.038 7.246-.738-1.01-1.366-1.058-2.335-2.705-.585-1-.967-2.42-1.283-3.772-.306-1.322-.848-7.824-.848-9.25V171.78c2.86.667 4.392 2.723 6.413 4.078 1.4-.936 14.58-12.345 14.58-12.82v-41.183c0-2.9-1.956-8.514-2.943-10.654zm-6.582 53.778c-.257-.07-4.58-2.698-5.4-3.143-.93-.5-4.913-2.41-5.87-2.487v-34.576c0-.593 5.792-8.744 7.19-8.744h.78c1.332 0 3.3 4.694 3.3 6.022v42.928z"/>
  <path d="M17.278 56.39L6.976 69.99l-3.5 4.86c.397.588 1.174 1.554 2.14 1.554h.192c.985 0 2.138-2.725 3.694-2.725h.587c3.192 0 2.328 9.902 2.328 13.6v47.203c.25.375 4.483 3.84 5.17 4.353 1.06.787 3.736 3.66 4.586 4.74 1.48 1.886 2.667 3.464 4.01 5.513.91 1.393 2.58 5.12 3.338 5.987v-41.767-20.79c0-3.49-.008-6.992-.004-10.49 0-3.8 1.52-5.184 3.112-7.178 1.244-1.556 3.28-2.528 6.61-2.528 1.946 0 3.83 1.804 4.662 2.528 2.452 1.64 6.802 9.632 6.802 13.794v3.69c0 2.262-2.52 6.794-4.664 6.794h-.582c0-1.57-.64-3.496-2.137-3.496h-.192c-1.584 0-2.917 2.093-2.917 3.693v1.164c0 1.937 1.548 3.693 3.502 3.693h.388c2.703 0 5.57-3.697 6.766-5.48 1.853-2.764 2.563-5.14 2.563-9.676v-.967h3.498c.967 0 2.726-2.39 2.726-8.163 0-4.06-3.517-9.834-5.786-12.096-2.024-2.027-4.52-2.86-8.99-2.86-6.527 0-14.19 7.813-16.347 10.665.023-3.07-2.21-9.648-3.206-12.1-1.3-3.203-3.89-7.115-6.492-8.856l-1.554 1.744z"/>
  <path d="M63.148 112.922c-1.555 0-1.565 2.43-1.55 4.27 0 1.792.035 1.847-.528 3.172-.55 1.307-2.457 3.236-4.03 3.236-.387 0-.505-.336-.505-.97v-1.166c0-1.483 3.304-2.7 3.304-5.05 0 0 .043-1.397-.766-1.397-.81 0-.787.622-.787.622v.97c0 2.252-.257 2.587-1.752 3.302l-8.74-5.05c-1.808 2.694-3.417 3.307-7.776 3.307-.234.347-.39.336-.39.768 0 .127 1.566 5.508 1.795 6.37.53 2.08 1.457 4.18 1.896 6.068-2.837 4.234-6.996 9.722-6.996 16.704v3.106c0 3.38 3.19 10.607 5.053 11.85l9.247-11.524.082 2.396c.637-.47 1.377-1.947 2.64-2.8 1.294-.874 2.262-1.04 3.582-1.67 0-7.057.026-14.12-.002-21.173-.017-4.342 2.095-4.132 4.325-6.364 1.727-1.72 3.454-3.68 3.454-7.04 0 0 0-1.938-1.556-1.938zm-17.49 42.54c-1.467-2.195-3.89-6.947-3.89-10.49v-2.72c0-3.613.89-7.362 2.135-9.713l6.73 5.14.072 11.366c0 .87-4.327 5.932-5.048 6.415zm5.048-19.426c-1.496-1.003-6.176-4.322-6.806-5.824-.632-1.523-2.364-8.25-2.523-10.105l9.33 5.44v10.49z"/>
  <path d="M188.516 71.35c0-2.72-.49-4.328-2.92-4.328-2.31 0-3 4.033-2.912 7.825.04 1.75.25 2.06.167 2.968-.317 3.52-4.648 8.3-7.163 8.3-1.47 0-1.85-1.188-1.746-2.335l.235-3.104c2.95-2.005 3.466-2.548 5.205-5.83.165-.34.58-1.304.58-1.75v-.19c0-.98-.508-1.945-1.484-1.945-.957 0-1.622 1.165-1.622 2.53 0 0 .198 1.445 0 2.712-.198 1.267-1.422 3.5-3.114 3.5-.005 0-6.987-4.244-7.77-4.66-.94-.495-6.983-4.275-7.39-4.275-.005 0-4.218 3.83-5.053 4.276-.316.27-2.91 1.57-3.305 1.553l-5.634-.236c-.333.263-.78.458-.78 1.013v.192c0 1.63 3.13 11.234 3.68 13.808.48 2.27 1.186 4.677 1.848 6.898 1.17 3.908 1.22 3.256-.895 6.072-6.777 9.003-10.85 19.268-10.85 30.333 0 4.385 1.78 9.557 3.047 12.886.8 2.1 4.526 9.034 5.892 10.036l17.026-20.846-.173 4.718c.503-.324 1.46-2.074 2.14-2.767.906-.9 1.41-1.408 2.47-2.197 1.416-1.052 4.46-2.75 6.33-3.188V93.69c0-2.12 1.508-5.424 2.687-6.45 1.69-1.486 3.298-1.957 5.236-3.894 1.54-1.544 2.877-3.158 4.05-5.08.653-1.06 2.22-4.692 2.22-6.917zm-25.075 61.965c0 .405-8.19 10.38-8.94 10.878-.155-.585-3.088-5.327-3.756-6.736-2.213-4.65-2.915-9.067-3.314-14.045l.07-2.14c0-4.66 1.845-15.85 4.084-17.484 1.225.82 11.857 9.163 11.857 9.713v19.815zm-6.66-28.308c-2.347-1.946-4.646-2.745-5.707-5.95-.843-2.545-1.525-6.723-2.093-9.562-.508-2.514-2.013-7.4-2.06-9.6l16.505 9.748.017 20.556c-1.937-1.298-4.78-3.627-6.66-5.193z"/>
  <path d="M149.445 52.118c-1.54-2.305-2.254-3.055-3.632-5.89-.34-.71-1.792-6.604-1.81-7.51l-.654-2.71c-.428-.763-1.01-3.602-1.482-4.677-.613-1.418-1.176-2.93-1.878-4.334-1.517-3.02-2.71-5.11-4.535-7.712-1.402-2-3.944-4.8-5.782-6.46C122.925 6.753 111.39 2 103.48 2S88.088 4.824 81.024 8.99c-2.052 1.21-3.35 2.274-5.002 3.938-2.707 2.74-5.086 5.3-7.2 8.54-.902 1.37-1.725 2.96-2.497 4.487-1.418 2.81-2.744 6.826-3.68 10.118-.465 1.635-1.154 3.684-1.777 5.222-.67 1.687-1.032 3.573-1.72 5.27-.966 2.383-.69 2.703-2.138 4.855-1.092 1.624-2.937 2.35-3.58 3.226 1.785.412 3.567 2.147 4.468 3.495 0 0 3.1 7.957 4.474 11.46 3.317 8.463 7.64 19.21 14.187 23.893 5.36 3.834 13.818 8.358 22.937 8.358h5.443c10.202 0 17.833-3.71 23.79-8.08 2.412-1.77 6.152-5.733 7.69-8.247 1.405-2.278 6.297-11.31 7.584-15.923s3.46-12.138 6.22-13.986l1.87-1.462-2.645-2.034zm-22.74 12.046l-.97 5.823-1.173 5.247c-2.337 10.048-8.988 23.698-20.99 23.698h-1.746c-2.288 0-6.294-1.823-7.66-3.034-4.584-4.065-7.75-8.565-11.584-20.28-1.64-5.018-2.912-12.118-2.912-24.86 0-14.92 4.264-28.48 9.524-36.323 2.524-3.773 8.016-8.74 13.994-8.74 5.98 0 12.016 4.813 13.992 7.764 3.542 5.285 4.692 8.274 6.605 15.157 1.38 4.978 3.115 12.428 3.115 18.64l.193 3.502v.198c.48.75-.01 12.607-.388 13.206z"/>
</svg>
