<!--
  SVG Music Logos
  Pantera - CFH v0.1.0
  https://github.com/tiagoporto/svg-music-logos
  Copyright (c) 2016-2018 Tiago Porto (http://tiagoporto.com)
-->
<svg xmlns="http://www.w3.org/2000/svg" viewBox="0 0 200 177">
  <path d="M188.03 93.02c-1.56 29.072-18.077 54.322-42.26 68.703l-8.09-18.34v29.057c35.07-13.397 59.82-45.932 59.82-83.94 0-38.01-24.75-70.545-59.82-83.94v29.055l8.09-18.34c24.183 14.38 40.7 39.63 42.26 68.705h-67.122V4.56h-9.05v167.88h9.05V93.02h67.122z"/>
  <path d="M75.34 172.425V94.457c7.195-3.807 19.978-5.802 19.978-5.802-12.856-1.96-19.978-6.065-19.978-6.065V13.6h24.607l8.034 20.015V4.56H66.2v78.03s-7.122 4.105-19.978 6.065c0 0 12.783 1.995 19.978 5.802v77.968h9.142z"/>
  <path d="M62.32 172.44C27.25 159.043 2.5 126.508 2.5 88.5c0-38.01 24.75-70.545 59.82-83.94v29.055l-8.09-18.34C28.802 30.395 11.85 57.535 11.85 88.5c0 30.963 16.952 58.102 42.38 73.223l8.09-18.34v29.057z"/>
</svg>
