<!--
  SVG Music Logos
  Pantera v1.0.0
  https://github.com/tiagoporto/svg-music-logos
  Copyright (c) 2016-2018 Tiago Porto (http://tiagoporto.com)
-->
<svg xmlns="http://www.w3.org/2000/svg" viewBox="0 0 200 74">
  <path d="M51.903 14.718h-.987l-1.542 18.39h4.444l-1.915-18.39zm13.515 34.87H55.42l-.864-8.147h-5.924l-.864 8.148H37.83l6.234-44.252h14.75l6.604 44.252z"/>
  <path d="M144.875 13.71v9.917h4.252V13.71h-4.252zm14.106 9.672l-5.11 4.25 5.11 4.31V49.56h-9.854V31.942h-4.252V49.56h-10.162V5.393h17.433l6.836 6.406v11.582z"/>
  <polygon points="134.043 13.536 125.439 13.536 125.439 21.891 132.681 21.891 132.681 30.248 125.439 30.248 125.439 41.204 134.291 41.204 134.291 49.559 115.226 49.559 115.226 5.178 134.043 5.178 134.043 13.536"/>
  <polygon points="114.361 13.549 108.609 13.549 108.609 49.545 98.403 49.545 98.403 13.549 92.651 13.549 92.651 5.197 114.361 5.197 114.361 13.549"/>
  <polygon points="91.712 49.553 83.24 49.553 76.622 27.968 76.499 27.968 76.499 49.553 66.912 49.553 66.912 5.208 75.447 5.208 82.003 26.547 82.126 26.547 82.126 5.208 91.712 5.208 91.712 49.553"/>
  <path d="M177.162 19.287h-1.426l-2.225 26.54h6.413l-2.76-26.54zm19.505 50.318H182.24l-1.248-11.757h-8.55l-1.246 11.757h-14.34l8.996-63.857h21.285l9.53 63.857z"/>
  <path d="M24.438 35.532h-5.492V17.256h5.492v18.276zM28.668 5.1H4.09v64.557h14.856v-21.97h9.724l9.994-9.093v-24.13L28.67 5.1z"/>
</svg>
