<svg xmlns="http://www.w3.org/2000/svg" viewBox="0 0 180 200" class="pato-fu">
  <radialGradient id="pato-fu__gradient" cx="106.584" cy="81.048" r="74.566" gradientTransform="translate(3.363 3.725) scale(.9628)" gradientUnits="userSpaceOnUse">
    <stop class="pato-fu__first-stop" offset="0"/>
    <stop class="pato-fu__second-stop" offset=".465"/>
    <stop class="pato-fu__third-stop" offset="1"/>
  </radialGradient>
  <circle class="pato-fu__circle" cx="84.224" cy="104.295" r="46.361"/>
  <g class="pato-fu__lettering">
    <path d="M19.16 55.276c13.978 1.476 18.014-12.993 13.486-25.494-2.39-6.597-9.596-9.312-16.93-8.563-1.16-2.1-3.002-2.967-4.92-2.967-4.623 0-7.58 3.526-7.58 6.657 0 4.835 4.315 6.628 6.152 6.496-1.05 5.118-.34 12.244.28 15.7-1.64.262-3.873 1.312-4.2 4.922-.33 3.61 5.445 5.84 7.808 5.775 1.247 5.315.92 16.602-1.116 20.277-5.53 3.43-2.034 12.976 2.64 12.976 3.518 0 8.056-1.493 8.45-6.152.394-4.66-3.215-8.203-6.168-8.662 1.706-6.43 1.378-17.06.197-19.752.917-.066 1.704-.623 1.9-1.214zm-4.79-8.3c-.983-2.954-1.033-14.47-.376-16.308 1.903-.656 2.87-2.227 3.2-5.114 3.28-.263 9.448 1.275 11.614 6.262 2.165 4.987 3.15 19.16-9.253 19.096-.788-2.23-2.23-3.543-5.184-3.937z"/>
    <path d="M78.515 79.49c-.787-2.756-2.658-17.718-3.15-22.05 1.97-.294 4.24-2.627 4.044-5.875-.198-3.248-3.553-4.853-7.293-5.345-.59-2.658-2.658-17.225-4.528-24.51 2.46-7.775-3.545-9.94-9.057-8.562s-4.823 8.76-1.772 10.532c-2.853 4.823-3.872 12.656-6.43 16.052-1.886 2.502-5.135 9.294-6.414 14.018-10.335-.787-9.5 8.317-5.004 10.155-.098 1.87-3.02 8.892-5.873 14.01-1.03 1.845-1.6 4.113-1.656 6.3-.1 3.88 1.947 8.465 6.48 8.465 5.61 0 7.824-4.48 7.824-8.237 0-5.07-3.2-8.89-6.447-9.284 1.38-1.477 3.298-5.907 3.74-10.14 2.462.1 5.612-.59 6.793-3.936 5.315-2.854 12.205-5.02 16.143-6.508.984 2.253 2.893 3.358 4.872 3.358-.197 3.445 3.1 17.62 2.707 22.638-2.067.394-3.97 2.953-3.557 6.095.525 3.992 3.593 6.718 7.068 6.537 1.258-.066 2.47-.334 3.773-1.312 5.904-4.43 3.02-11.172-2.265-12.402zM66.167 49.53c-4.877.595-14.228 5.844-17.066 6.762-.228-.568-.625-.85-1.098-.884 1.444-7.448 4.51-8.83 7.727-15.388 2.646-5.398 4.133-11.96 5.462-15.355.88.132 1.514.36 2.362 0 .098 1.87 4.036 19.883 4.036 22.836-1.117.492-1.325 1.34-1.423 2.03z"/>
    <path d="M82.875 9.35c2.494 3.02 7.353 6.652 10.634 7.308 5.25-1.64 15.748-2.23 16.798 5.775 5.512 4.987 5.906 7.35 12.993 8.924 7.418-.935 13.778 2.165 13.778 7.744 0 2.297-3.015 5.12-7.87 5.12-6.3 0-9.32-5.25-9.844-8.4-3.28-.656-9.58-6.956-11.68-9.384-1.444 2.165-5.592 2.625-8.268 2.428 1.575 7.35.722 37.863-1.247 41.275 3.762 2.36 4.9 7.402 3.214 10.17-2.428 3.985-5.532 4.788-8.924 3.675-4.2-1.378-8.334-11.418.984-14.568 2.1-4.987 2.297-28.348 1.378-41.21-2.625-.394-5.512-3.872-4.33-8.07-3.15-.657-6.432-3.348-10.238-7.154-3.02 2.362-7.507 2.498-9.87 1.054-1.12-.685-3.73-2.94-3.73-6.156 0-3.173 2.964-6.38 9.663-6.38 3.674 0 6.623 4.242 6.558 7.85z"/>
    <path d="M177.363 31.752c0-2.756-3.01-7.088-7.734-7.088-4.726 0-8.794 2.69-7.875 7.546-8.006-1.18-14.96 6.76-23.886 14.24s-19.687 22.18-19.687 28.61c0 6.432 7.07 18.555 21.9 18.555 17.587 0 26.314-9.686 32.83-23.647 2.49-5.34 3.082-12.164 3.082-16.365 0-7.547-1.412-13.138-3.89-15.435 3.28-.394 5.258-3.66 5.258-6.416zm-8.716 34.91c-4.35 10.366-10.625 20.722-26.185 22.44-10.17 1.125-19.665-6.872-19.665-14.69 0-6.963 9.822-17.135 18.09-24.287C147.625 44.295 155.324 37 161.492 37c2.756 0 9.45 2.495 9.45 12.863 0 5.072.46 10.236-2.295 16.8z"/>
    <path d="M27.43 109.905c-.49 2.387-1.182 3.396-3.495 3.986 3.05 3.938 3.05 20.77 2.953 30.613 2.313.098 4.394 1.476 4.48 2.854 6.974-2.56 12.598-5.266 18.21-9.006 1.968-5.806 5.02-6.102 6.397-6.102s4.922 1.684 4.922 6.89c0 5.206-4.233 8.662-6.3 8.662s-4.725-1.772-5.02-4.036c-3.347 2.165-15.503 8.022-17.668 8.317-.542 2.363-1.87 3.052-2.757 3.348.394 2.165 2.453 16.016 2.453 17.985 3.15.984 4.98 4.95 4.98 7.804 0 5.61-3.15 9.105-6.99 9.105s-6.89-4.922-6.89-8.76c0-3.544 2.067-6.398 4.036-7.382-.492-4.43-1.28-14.272-1.87-17.03-2.165.198-6.644-1.328-6.644-5.265 0-2.904 1.575-5.56 3.888-6.25.197-4.626 1.083-26.675-2.264-30.415-4.134-.492-6.857-4.167-6.857-7.02 0-2.855 2.953-6.858 7.448-6.858 4.134 0 5.676 2.46 6.464 4.036 3.248.295 22.77 3.642 26.02 4.43 1.426-1.773 3.582-2.757 7.184-2.757 3.73 0 7.57 3.253 7.57 6.255 0 3.442-3.386 6.788-8.012 6.788s-7.924-3.002-8.22-5.56c-9.648-1.872-19.885-3.545-24.02-4.628z"/>
    <path d="M88.887 104.622c.295 3.64 3.408 6.86 7.15 6.86 3.74 0 7.677-4.234 7.677-8.958 0-4.725-3.544-8.613-7.727-8.613-2.658 0-4.922 1.477-6.3 4.037-4.085 1.083-6.546 2.658-8.12 8.022-.36 1.226-2.714 3.298-5.25 7.086-3.597 5.37-7.925 13.548-10.6 22.147-4.126 13.272-5.216 32.876-3.543 39.57 1.673 6.692 6.103 10.826 9.843 12.992s20.375 8.76 30.81 9.942c9.89 1.12 24.866 1.35 31.497-1.28 5.71-2.264 8.41-6.907 12.01-13.19 4.055-7.08 7.48-15.656 7.48-23.427 0-11.91-2.197-21.04-5.008-26.035-5.623-9.99-8.04-8.18-11.922-13.633 6.89 1.87 12.107-1.772 12.107-7.874 0-5.315-4.822-10.926-12.106-10.926s-9.942 7.185-9.942 11.615c0 8.167 8.335 10.497 14.765 18.9 6.43 8.4 7.69 27.36 6.992 32.702-.792 6.045-8.863 22.614-13.686 25.764-4.852 3.17-13.583 3.84-17.422 3.84s-31.596-2.954-42.817-10.73c-9.706-6.726-8.563-15.946-8.563-20.277 0-4.33 2.29-22.174 5.447-29.693 3.182-7.58 9.035-19.96 11.384-21.786 4.428-3.446 2.693-7.056 5.843-7.056z"/>
  </g>
</svg>
