<!--
  SVG Music Logos
  Rammstein - R+ v0.1.0
  https://github.com/tiagoporto/svg-music-logos
  Copyright (c) 2016-2018 Tiago Porto (http://tiagoporto.com)
-->
<svg xmlns="http://www.w3.org/2000/svg" viewBox="0 0 200 200">
  <polygon points="6.5,50.79 109.842,50.79 109.842,104.92 126.082,149.21 71.95,149.21 60.632,118.207 60.632,149.21 6.5,149.21 6.5,104.92 16.342,104.92 16.342,139.368 50.79,139.368 50.79,100 64.568,100 78.838,139.368 112.794,139.368 100,104.92 100,60.633 16.342,60.633 16.342,95.08 6.5,95.08"/>
  <polygon points="50.79,40.947 50.79,6.5 95.078,6.5 95.078,16.342 60.632,16.342 60.632,40.947"/>
  <polygon points="104.92,6.5 149.21,6.5 149.21,50.79 193.5,50.79 193.5,95.078 183.658,95.078 183.658,60.632 139.368,60.632 139.368,16.342 104.922,16.342 104.922,6.5"/>
  <polygon points="183.658,104.92 193.5,104.92 193.5,149.21 149.21,149.21 149.21,193.5 104.922,193.5 104.922,183.658 139.369,183.658 139.369,139.368 183.657,139.368 183.657,104.921"/>
  <polygon points="95.08,183.658 95.08,193.5 50.79,193.5 50.79,159.053 60.63,159.053 60.63,183.658"/>
</svg>
