<svg xmlns="http://www.w3.org/2000/svg" viewBox="0 0 200 200">
  <g class="sepultura__circles">
    <path d="M98.66 7.727c-51.61 0-93.447 41.838-93.447 93.447S47.05 194.62 98.66 194.62s93.447-41.837 93.447-93.446h-22.492c0 39.188-31.768 70.956-70.956 70.956s-70.957-31.768-70.957-70.956 31.77-70.956 70.957-70.956V7.728z"/>
    <path d="M98.66 34.234c-36.97 0-66.94 29.97-66.94 66.94s29.97 66.938 66.94 66.938 66.94-29.97 66.94-66.94h-16.112c0 28.072-22.756 50.83-50.828 50.83s-50.828-22.757-50.828-50.83S70.59 50.347 98.66 50.347V34.234z"/>
    <path d="M98.66 52.977c-26.618 0-48.196 21.578-48.196 48.196S72.042 149.37 98.66 149.37s48.196-21.578 48.196-48.196h-11.6c0 20.21-16.385 36.596-36.596 36.596s-36.596-16.385-36.596-36.596S78.45 64.578 98.66 64.578v-11.6z"/>
    <path d="M98.66 67.094c-18.822 0-34.08 15.258-34.08 34.08s15.258 34.08 34.08 34.08 34.08-15.258 34.08-34.08h-8.203c0 14.292-11.586 25.877-25.877 25.877s-25.877-11.585-25.877-25.876S84.37 75.296 98.66 75.296v-8.202z"/>
    <path d="M98.66 76.942c-13.383 0-24.232 10.85-24.232 24.232s10.85 24.232 24.232 24.232 24.232-10.85 24.232-24.232h-5.832c0 10.162-8.238 18.4-18.4 18.4s-18.4-8.238-18.4-18.4 8.238-18.4 18.4-18.4v-5.832z"/>
    <path d="M111.513 101.174c0 7.098-5.754 12.853-12.853 12.853-7.098 0-12.853-5.754-12.853-12.853 0-7.098 5.754-12.853 12.853-12.853v-4.073c-9.348 0-16.927 7.578-16.927 16.927S89.31 118.1 98.66 118.1s16.927-7.577 16.927-16.926h-4.074z"/>
    <path d="M107.148 101.174c0 4.687-3.8 8.487-8.487 8.487s-8.486-3.8-8.486-8.486 3.8-8.487 8.487-8.487v-2.69c-6.172 0-11.177 5.004-11.177 11.178 0 6.173 5.004 11.178 11.178 11.178s11.18-5.004 11.18-11.178h-2.692z"/>
    <path d="M98.66 94.212c-3.845 0-6.962 3.117-6.962 6.962s3.117 6.962 6.962 6.962c3.845 0 6.962-3.117 6.962-6.962h-1.676c0 2.92-2.367 5.286-5.286 5.286s-5.286-2.367-5.286-5.286 2.367-5.286 5.286-5.286v-1.676z"/>
  </g>
  <g class="sepultura__tribal-symbol">
    <path d="M67.827 4.598c.89-.593 5.728 2.074 6.715 3.16.89 1.086 2.074 2.074 3.358 2.47 1.185.394 1.086 2.27 1.48 2.468.495.296 2.865 1.778 4.05 2.666 1.086.89 2.173 3.06 3.456 4.246 1.185 1.185 4.246 5.036 4.74 6.715.494 1.68 1.68 2.864 1.383 4.05-.297 1.184-.1 2.665-1.384 2.665-1.383 0-2.37.494-2.963-.395-.593-.79-2.666-5.925-3.456-6.814-.69-.89-2.765-4.05-3.95-5.136-1.185-1.086-3.456-4.345-4.444-5.63s-3.358-4.838-5.53-6.22c-2.37-1.382-4.64-3.554-3.456-4.246z"/>
    <path d="M127.078 33.236c0 .89-1.778.494-2.37.198-.69-.296-3.654-3.555-5.135-3.95-1.48-.395-4.05-.593-6.123.69-2.074 1.285-2.27 1.78-2.074 4.15.198 2.37 3.85 5.134 3.85 6.418s-.098 2.27-.592 3.16c-.494.89-1.975 3.16-3.555 3.456-1.58.296-3.852 1.383-4.94.1-1.085-1.186-1.184-3.95-1.777-4.84-.593-.89-3.26-4.05-3.654-7.505s-.495-4.543-.89-6.913c-.296-2.27-1.383-1.975-1.778-3.95-.395-1.68 1.086-2.864 2.47-2.864.592 0 1.085 1.383 2.764 1.48 1.68.1 3.95-1.184 6.518-1.184s7.8 1.086 8.888 1.975 3.456 3.456 5.53 5.135c2.076 1.58 2.866 2.37 2.866 4.444z"/>
    <path d="M135.373 38.57c1.086.295.296 1.58-.89 3.455-1.085 1.68-3.06 3.85-4.344 5.234-2.075 2.172-5.73 3.06-5.63 3.653.1.593 1.975 3.26 2.37 5.234.395 1.975.79 6.024 1.58 7.703.79 1.778 1.58 4.345 1.185 6.32-.395 1.975-.988 11.752-2.568 11.357s-.593-5.63-1.48-9.48c-.89-3.85-2.667-6.42-4.05-10.27-1.383-3.95-1.68-4.543-3.16-5.826-1.48-1.283-5.925-1.283-7.703-2.27s-2.568-1.58-2.568-2.568.988-2.568 2.765-3.16c1.78-.593 3.062-1.876 3.36-2.568s1.283-1.975 2.172-1.975c.89 0 3.06.79 4.74.493 1.68-.296 3.85-1.086 4.938-1.086 1.185 0 3.654-.89 4.543-1.185.988-.495 4.05-3.26 4.74-3.063z"/>
    <path d="M155.618 34.323c1.086 0 1.975 1.185.69 4.246-1.184 2.863-4.937 9.775-8.887 12.738-2.665 2.074-7.208 7.01-11.158 8-3.95.987-4.938 3.06-6.024 3.06-1.086 0-2.666-1.58-1.58-5.53.296-1.185 3.456-2.074 5.925-3.16 2.568-1.086 5.234-1.68 6.913-2.963s5.63-3.95 8-6.913c3.258-3.752 5.134-9.48 6.122-9.48z"/>
    <path d="M95.478 23.164c2.963-.198 1.975 2.666 3.26 3.95 1.085.988.493 5.826 1.48 8.888.988 3.06 2.666 5.135 3.26 6.913s.79 4.148 1.678 5.135c.89.988.494 3.654-1.185 3.654s-4.64-.296-5.53-2.666c-.69-1.975.692-3.654-2.172-5.43-2.864-1.78-3.358 1.085-5.135 1.48-1.778.494-3.26.494-4.543 1.383-1.284.89-.69 2.174-1.975 2.47-1.383.296-18.96-5.234-18.96-8.986 0-3.753 8.098-3.654 10.566-3.555 2.57.098 13.234-.79 14.715-1.384 1.48-.593 2.47-2.27 2.568-4.84.1-2.567-.593-3.752-.296-5.134.493-1.582 1.283-1.78 2.27-1.878z"/>
    <path d="M54.1 42.322c1.284 0 3.358 1.48 3.753 2.37.395.79 1.48 6.913-.494 6.913s-6.815-2.963-6.815-4.64c0-1.878 1.975-4.643 3.555-4.643z"/>
    <path d="M53.113 39.952c-.198-1.48-1.68-2.27-2.568-5.43-.395-1.384.1-5.73-.89-5.73-1.58 0-2.37 4.74-2.37 6.42s-.394 3.26.99 5.43c0 0 .493.692 1.085 1.285-.593-.395-1.383-.89-2.173-1.185-4.05-1.68-10.073-.494-13.924.395-3.85.89-7.703 4.148-6.715 4.84.988.69 11.455-.99 15.8-.594s6.42 2.47 7.8.89c.79-.89.89-2.075.495-3.16-.1-.2-.296-.396-.494-.594.197.098.295.197.493.197.89.296 1.48.395 2.074 0 .396-.395.593-1.383.396-2.765z"/>
    <path d="M57.853 54.37c.593.295 1.383 3.653 1.086 4.542-.2.89-.99 1.086-1.58 1.185-.594.1-2.964-.79-3.852-1.48-.593-.89-.296-2.57.198-3.26.493-.69 2.962-1.383 4.147-.988z"/>
    <path d="M92.416 47.16c2.173.2 3.95 3.457 3.85 6.124-.098 2.666-.79 4.74-2.37 5.826-1.58 1.086-3.554 2.074-5.134 1.383-1.58-.593-2.666-1.778-2.37-3.06.296-1.285 1.185-2.667 1.975-4.74.988-2.767.79-5.73 4.05-5.532z"/>
    <path d="M84.91 49.234c.99-.198 1.78-.296 2.075 1.086.296 1.383.296 2.666-.296 3.654-.594.988-2.37 1.284-2.57 2.173-.098.89-.098 2.765 1.482 4.64 1.58 1.877 5.135 3.36 5.135 6.32s-2.568 4.642-5.53 6.32-9.184 6.617-11.455 8.1c-2.27 1.382-2.666 2.172-4.246 1.875-1.58-.296-1.778-3.95-4.148-6.518-2.37-2.568-3.456-.69-4.543-1.975-1.185-1.285-1.778-3.26-.79-5.235.988-1.975 3.654-2.074 3.654-3.753s-3.655-3.358-3.852-5.234c-.296-1.876 0-9.184-.296-12.443-.69-6.123-3.753-6.913-3.753-8.69s2.073-3.26 3.85-3.26c2.765 0 3.456 3.16 5.333 5.037s11.455 8.69 15.208 8.69 3.852-.59 4.74-.788z"/>
    <path d="M117.894 57.233c1.48.593 3.753 4.84 2.568 6.518-1.185 1.68-4.444 1.087-6.32.495-1.778-.494-4.444-.988-4.543-.593-.1.395 1.085 1.975.888 2.568-.1.593-1.58 1.48-2.568 2.173-.988.69-2.864 1.68-4.148 1.383-1.284-.296-1.68-3.654-2.765-5.234-1.185-1.48-5.036-3.456-5.333-4.543-.296-1.087 1.086-5.037 1.975-5.136.987 0 5.134 1.58 7.307 1.58s4.148-.198 5.826.494c1.877.79 5.433-.297 7.11.295z"/>
    <path d="M110.685 67.602c1.185 0 2.074 2.173 1.975 2.666-.1.494-1.086 1.876-1.975 1.876s-5.135.395-5.135-1.086c0-.988 1.48-1.975 2.47-2.37.987-.197 1.58-1.086 2.665-1.086z"/>
    <path d="M94.984 66.22c1.284 0 2.765 2.37 2.765 3.456 0 .988-.594 1.383-.2 1.876.2.296 3.36.1 3.95-.296.495-.296 1.58-.69 3.95.494 2.37 1.185 3.16 1.48 4.346 1.185 1.086-.296 1.778-1.086 3.26-.69 1.48.493 0 1.974.69 2.567.69.593 2.173.1 2.27 1.876.1 1.778.1 3.26-1.48 3.654-3.16.69-2.47-1.876-2.765-1.284-.295.593.495 1.68-1.382 3.16s-3.358 2.47-4.64 4.64c-1.285 2.174-1.58 3.95-2.964 5.037-1.383 1.086-2.47 1.086-2.47 1.58s1.087.89.692 2.173c-.494 1.284-.988 2.568-1.68 2.666-.69.1-1.974-.69-2.172-1.383-.198-.69.395-1.974-.494-2.172-.89-.198-2.864-.198-4.148-.593s-3.16 2.173-5.925 2.173c-2.765 0-4.05-4.543-6.518-6.616-2.37-2.074-7.21.79-9.086-1.778-1.778-2.568 2.173-6.22 5.036-7.308 2.864-1.086 7.505-3.95 9.085-5.333 1.58-1.383 2.173-3.06 3.456-3.456s2.667-.1 3.16-.494c.396-.395-.493-1.086-.197-1.876.3-1.578 2.374-3.257 3.46-3.257z"/>
    <path d="M119.87 80.638c1.184 1.383-.99 3.06.394 4.74 1.383 1.68 3.654 2.47 6.32 2.47.89 0 1.284 3.653-.296 4.74-1.58 1.085-1.284 2.863.494 3.653s3.95.79 5.826 1.78.593 0 .69-1.482c.1-1.48 1.58-5.036 5.235-3.95 3.654 1.185 1.48 4.543 2.27 5.63s2.272.69 2.57.098c.394-.593 1.085-2.963 2.567-2.37 2.173.79.198 3.95 1.68 4.84 1.58.79 2.863.987 4.048 1.875 1.778 1.384 3.358 3.754 6.32 6.716 3.358 3.358 3.06 6.22 2.568 6.42-1.58.493-1.975-.79-3.753-3.16s-5.53-2.667-7.703-3.95-4.246-.99-5.234-1.285c-.988-.295-1.284-1.184-2.173-.888s-1.284 2.963-2.765 3.26c-1.68.295-2.963.394-3.555-.2-.69-.592-1.58-2.37-1.284-3.258.295-.89 4.048-3.95 2.073-5.53-.296 2.27-2.074 2.37-2.074 3.95.098.988-.594 1.778.196 4.345.69 2.468.494 2.073-1.58 3.455-2.074 1.383-4.44 5.12-6.513 5.318-2.074.197-7.546-.604-10.607-.703-3.06-.1-4.803.717-5.89.224-3.16-1.58-1.48-4.148-2.567-6.616-.89-2.074-3.062-2.568-4.346-2.765-1.284-.198-2.963.296-3.85-.1-1.58-.69-1.877-3.16-3.16-3.752-1.384-.592-3.556-1.875-3.36-3.752.2-1.876 2.272-3.16 3.16-2.963.89.198 1.976 1.876 3.26 1.58 1.284-.198 2.568-4.148 3.654-5.53 1.086-1.284 3.26-3.26 4.543-5.826 1.285-2.57 5.334-5.827 6.914-6.32 1.68-.692 4.74-1.976 5.925-.692z"/>
    <path d="M134.583 112.535c1.086-.1 1.48 1.383 2.666 1.975 1.184.593 2.863 2.27 2.073 3.753s-2.27 1.876-3.753 1.383c-1.58-.395-3.753-.988-4.345-1.975-.69-.988 1.087-4.938 3.358-5.135z"/>
    <path d="M133.398 120.632c1.48 1.086 2.074 6.024 1.48 7.11-.987 1.68-4.147 1.086-4.542 2.074-.395.988-.69 4.543-.395 5.63.297 1.184 1.976 2.37 1.976 3.85 0 1.383-.592 2.765-4.05 3.16s-4.937-.1-6.023 1.185c-.988 1.285-1.48 1.087-1.58 3.852-.1 2.765.79 4.74-.89 5.135-1.678.395-3.752 1.284-5.332 1.284-1.58-.098-2.764-1.875-2.863-3.258-.198-1.383.296-2.963-.69-3.654-.99-.69-6.52-.296-6.716-2.37-.098-2.074 4.15-3.16 3.754-6.123-.395-2.963-1.975-2.47-2.47-2.173-.493.296-.295 4.64-2.27 4.74-1.975 0-5.036-1.284-4.74-5.53.198-3.06 1.185-3.456 1.383-7.308.197-5.036-.593-3.95-.1-6.123.396-2.172 2.174-1.48 2.865-1.085.79.494 1.383 2.27 2.864 2.173 1.48-.1 2.074-.89 2.173-1.68.098-.79-.594-2.37.79-3.06 1.48-.69 8.097-.69 10.566-.494 2.37.298 12.442.89 14.812 2.668z"/>
    <path d="M140.212 120.237c2.864 0 4.444 5.036 4.938 7.308.494 2.27 1.778 3.06 2.173 5.53s.197 7.406-1.383 7.505-1.778-4.05-2.666-4.938c-.89-.79-1.284-3.16-3.26-4.345-1.974-1.086-4.838-5.826-4.838-7.21-.1-1.973 1.382-3.85 5.036-3.85z"/>
    <path d="M93.404 104.14c.988-.197 1.876.79 3.555 2.272s2.27 1.48 2.665 2.173c.79 1.48-2.173 1.778-1.68 2.27.396.495.99.1 2.57-.394 1.58-.493 3.357-1.48 4.344-.295.987 1.185.592 2.666 1.382 3.753.79 1.086 2.074 3.456.494 4.444-2.37 1.48-3.456-1.383-5.826-1.778-3.85-.593-6.518.198-8.986.198-2.37.1-6.814 3.06-8.196 3.85-1.48.79-1.876-2.073-1.876-3.357s.296-2.27 2.963-4.148c2.765-1.876 4.64-3.95 5.925-4.84 1.28-.986 1.38-3.85 2.664-4.146z"/>
    <path d="M126.585 143.05c3.16 0 3.16 1.184 4.84 2.37s4.838 3.85 9.183 3.85c6.715 0 11.653-2.47 12.147-1.086.296.69-3.654 3.555-6.913 4.543-7.11 2.37-11.554.494-12.048.89-1.58 1.085 1.48 7.208 1.383 11.356s-2.47 12.64-3.26 14.418c-.79 1.78-1.678 5.73-4.344 8-2.568 2.27-6.32 8.098-7.21 8.098s-.987-1.383 0-2.963c.99-1.58 3.062-3.358 3.457-5.333s3.85-4.543 4.64-9.085c.79-4.543.396-10.468-.79-15.307-1.283-4.84-2.665-9.283-3.95-11.752-1.085-2.074-2.567-3.16-2.567-4.74.1-.89 2.963-3.26 5.432-3.26z"/>
    <path d="M96.366 121.422c1.48 0 2.173 1.48 2.27 3.16.495 6.913-1.58 8.986-1.085 10.665.495 1.68-.79 3.753 1.186 5.53 1.975 1.778 3.555 1.58 3.456 3.456-.1 1.876-3.358 4.444-8.196 4.74-4.84.198-7.604-.1-8 .494-.394.69-3.06 14.122-4.74 14.122-1.777 0 .79-6.32-.493-14.616-.494-3.06.1-5.925-3.555-7.01-2.37-.692-4.938-.594-6.32-4.247-.79-2.173-.1-7.8 1.48-7.604 1.58.1 5.334.395 6.617-.395 1.284-.79 2.27-7.21 5.63-7.11s2.073 1.58 4.838 1.58c5.53-.1 4.938-2.766 6.913-2.766z"/>
    <path d="M71.184 122.607c1.185 0 1.185 3.06 1.185 5.234 0 1.285-.99 1.68-1.58 2.964-.495 1.284-.297 3.358-.79 3.95-.495.593-.99 2.074-2.865 2.074-1.975 0-2.765-3.358-5.925-3.654-3.16-.296-9.678.69-14.418 3.06s-8.69 6.025-10.962 8.89c-2.27 2.863-3.16 5.53-4.938 7.702-1.68 2.173-1.68 6.024-2.173 5.925-.495-.098-1.58-1.777 0-9.084 1.58-7.308 7.9-12.147 11.356-15.9s6.616-6.615 8.69-7.9c2.074-1.283 3.358-1.974 3.654-2.962.296-.988-1.383-5.036-1.383-9.085 0-2.272.79-2.47 1.284-2.47 1.482 0 1.285 1.185 2.47 3.456s2.074 6.42 4.543 8c2.47 1.58 5.826 2.863 7.11 2.863 2.273 0 2.964-3.063 4.74-3.063z"/>
    <path d="M81.257 96.438c1.185.69-.69 9.283-.494 11.455.198 1.876.1 6.616.1 8.493.098 3.555.79 3.95.888 5.135.1 1.087-.197 2.667-.79 3.556s-1.382 3.95-2.863 4.148c-1.48.198-3.06-.79-3.85-.89-.79-.098-1.384-1.085-1.384-2.468s1.876-2.864 1.876-3.95-.2-4.345-.1-7.11c.1-2.864 3.556-20.244 6.617-18.368z"/>
    <path d="M55.384 93.475c1.876 0 2.37 4.05 5.43 8.69 3.062 4.64 4.544 7.11 6.52 8.493 1.974 1.383 1.777 2.568 4.048 3.654 2.27.988 2.27 2.173 2.074 3.26-.198 1.085.494 3.653-1.185 3.95-1.678.295-4.64-2.57-6.813-4.94-2.27-2.37-4.64-4.74-6.123-7.998-1.48-3.26-.89-4.444-2.27-6.814s-2.075-8.295-1.68-8.295z"/>
    <path d="M108.315 151.937c.79-.296 2.37-.494 3.06.494.692.99.99 1.186.297 2.964-.69 1.778-1.383 3.26-3.456 4.444-.593.395-1.086 1.185-1.68 2.074-.197.296-.493 1.284-1.184 1.876-1.284.988-3.85 1.383-4.444.69-.494-.592.988-2.27 1.284-3.752.198-1.086 1.48-1.975 2.864-3.456 1.086-1.185.69-2.27 1.185-3.358-2.863 1.284-2.073 1.68-4.443 1.58-2.37-.1-5.036-.593-7.01-1.185-1.976-.593-4.84-1.778-4.445-2.864s4.444-.593 6.715-.89c2.173-.197 3.358-1.085 3.95-1.58s2.666-2.27 3.456-2.468c.89-.1 3.654.1 4.148.296.396.198 1.58.99 1.482 1.78-.098.79-.592 1.876-1.777 3.357z"/>
  </g>
  <g class="sepultura__lettering">
    <path d="M4.113 99.014v-1.81c0-.33 0-.496-.207-.496-.262 0-1.298.54-1.602.663-.07.03-.138.056-.193.056-.04 0-.11-.07-.11-.15 0-.084.07-.153.138-.194.055-.028 2.707-1.768 3.19-2.126.124-.083.248-.18.36-.18.123 0 .165.152.165.29 0 .11-.083 1.477-.083 3.59v2.555c0 1.327 0 2.5.055 3.108.04.442.11.65.552.746.207.04.8.083.91.083.056 0 .125.04.125.138 0 .096-.07.124-.22.124-1.05 0-1.934-.042-2.307-.042-.318 0-1.477.04-2.36.04-.153 0-.236-.027-.236-.123 0-.097.054-.138.11-.138.15 0 .855-.042 1.104-.097.442-.097.51-.29.552-.732.055-.608.083-1.78.07-3.107l-.013-2.196z"/>
    <path d="M13.484 105.31c-.07-.04-.07-.11 0-.234l6.297-10.22c.07-.11.125-.11.194-.068l.497.304c.056.028.07.083.015.166l-6.338 10.288c-.055.097-.11.124-.18.083l-.483-.32z"/>
    <path d="M24.587 102.646c-.166 0-.345-.055-.345-.207 0-.167.124-.29.18-.36.096-.11 5.247-6.918 5.357-7.056.11-.124.22-.25.358-.25.124 0 .165.098.165.236 0 .207-.014 1.174-.014 2.07v4.49h1.062c.373 0 .553-.14.635-.14.07 0 .124.056.124.167 0 .124-.137.69-.234.87-.07.124-.138.18-.373.18H30.29c0 .44-.014 1.062.04 1.67.042.428.125.677.58.773.194.04.485.055.623.055.07 0 .124.04.124.138 0 .096-.07.124-.22.124-.774 0-1.658-.04-1.948-.04-.388 0-1.133.04-1.893.04-.152 0-.22-.028-.22-.124 0-.097.04-.138.11-.138.124 0 .428-.014.65-.042.524-.055.62-.36.648-.787.055-.608.04-1.23.04-1.67h-4.238zm4.24-5.344h-.04c-.32.456-2.61 3.646-3.08 4.267h3.12V97.3z"/>
    <path d="M44.68 100.188c0-2.36 1.56-5.413 5.703-5.413 3.438 0 5.58 2.002 5.58 5.165s-2.21 5.662-5.718 5.662c-3.964 0-5.565-2.97-5.565-5.414zm9.348.263c0-3.092-1.78-5.012-4.046-5.012-1.588 0-3.397.884-3.397 4.322 0 2.872 1.588 5.15 4.24 5.15.966 0 3.203-.468 3.203-4.46z"/>
    <path d="M64.73 101.403c0 1.326 0 2.36.07 2.94.04.402.124.705.54.76.192.028.496.055.69.055.178 0 .234.04.234.11 0 .097-.097.138-.304.138-.87 0-1.74-.04-2.1-.04-.358 0-1.228.04-1.753.04-.193 0-.29-.028-.29-.138 0-.07.055-.11.207-.11.207 0 .373-.028.497-.055.277-.055.346-.36.402-.76.07-.58.07-1.615.07-2.94v-2.43c0-2.1 0-2.486-.03-2.927-.027-.47-.137-.69-.593-.787-.11-.03-.346-.043-.54-.043-.138 0-.235-.027-.235-.11 0-.11.11-.138.318-.138.36 0 .76.013 1.12.013.358.014.676.028.87.028.524 0 3.327 0 3.645-.013.262-.014.428-.014.566-.055.083-.028.152-.083.22-.083.056 0 .098.054.098.123 0 .097-.07.262-.11.622-.015.138-.042.953-.07 1.12-.014.11-.04.192-.138.192-.097 0-.124-.07-.138-.22 0-.11 0-.332-.083-.526-.097-.192-.387-.4-.91-.413l-2.128-.04c-.083 0-.124.04-.124.192v3.45c0 .084.015.125.098.125l1.768-.014c.235 0 .428 0 .62-.013.263-.014.457-.07.595-.248.07-.084.098-.14.18-.14.056 0 .084.042.084.125 0 .083-.07.428-.11.856-.028.277-.055.912-.055 1.01 0 .123 0 .26-.14.26-.082 0-.11-.096-.11-.192s-.027-.262-.082-.428c-.07-.193-.276-.442-.704-.497-.345-.04-1.81-.04-2.044-.04-.07 0-.097.027-.097.123v1.117z"/>
    <path d="M83.456 101.887c-.07 0-.097.027-.124.11l-.746 1.892c-.138.344-.207.675-.207.84 0 .25.123.43.55.43h.208c.165 0 .207.027.207.11 0 .11-.083.137-.235.137-.442 0-1.036-.04-1.464-.04-.152 0-.91.04-1.63.04-.18 0-.26-.028-.26-.138 0-.084.054-.11.165-.11.125 0 .32-.015.43-.03.634-.082.897-.55 1.173-1.242l3.466-8.562c.165-.4.247-.553.386-.553.124 0 .207.124.345.442.332.76 2.542 6.283 3.426 8.382.525 1.243.925 1.436 1.215 1.505.208.042.415.055.58.055.11 0 .18.014.18.11 0 .11-.124.138-.635.138-.497 0-1.505 0-2.61-.028-.248-.014-.414-.014-.414-.11 0-.083.056-.11.194-.124.097-.028.193-.152.124-.318l-1.105-2.845c-.028-.07-.07-.096-.138-.096h-3.08zm2.817-.69c.07 0 .083-.042.07-.084L85.1 97.716c-.014-.055-.028-.124-.07-.124s-.068.07-.082.124l-1.27 3.383c-.015.054 0 .096.054.096h2.54z"/>
    <path d="M104.1 104.096c-1.352-1.188-1.71-2.734-1.71-4.074 0-.94.29-2.57 1.615-3.784.994-.91 2.306-1.464 4.364-1.464.855 0 1.366.055 2 .138.526.07.968.193 1.382.235.152.014.207.083.207.166 0 .11-.042.276-.07.76-.028.456-.014 1.215-.04 1.49-.015.208-.043.32-.167.32-.11 0-.138-.11-.138-.305-.014-.428-.193-.91-.54-1.27-.455-.484-1.532-.856-2.802-.856-1.2 0-1.988.304-2.596.856-1.008.925-1.27 2.237-1.27 3.576 0 3.286 2.5 4.916 4.35 4.916 1.23 0 1.975-.138 2.527-.773.235-.262.414-.663.47-.91.04-.222.07-.277.18-.277.096 0 .123.096.123.207 0 .166-.166 1.367-.304 1.837-.07.235-.124.304-.36.4-.55.222-1.6.32-2.485.32-1.892-.003-3.48-.417-4.737-1.508z"/>
    <path d="M118.532 98.973c0-2.1 0-2.486-.028-2.927-.028-.47-.138-.69-.594-.787-.11-.03-.345-.043-.54-.043-.15 0-.234-.027-.234-.124s.096-.124.304-.124c.373 0 .773.013 1.118.013.36.014.677.028.87.028.442 0 3.19 0 3.452-.013.262-.028.483-.055.594-.083.07-.014.152-.055.22-.055s.084.054.084.123c0 .097-.07.262-.11.898-.014.14-.04.747-.07.912-.013.07-.04.152-.137.152-.096 0-.123-.07-.123-.193 0-.095-.014-.33-.083-.496-.097-.248-.235-.414-.925-.497-.236-.028-1.686-.055-1.962-.055-.07 0-.097.04-.097.138v3.493c0 .097.015.152.098.152.304 0 1.892 0 2.21-.028.33-.028.538-.07.662-.207.097-.11.152-.18.22-.18.056 0 .097.03.097.11 0 .084-.055.305-.11 1.01-.014.275-.055.827-.055.924 0 .11 0 .262-.124.262-.097 0-.124-.055-.124-.124-.014-.138-.014-.318-.055-.497-.07-.276-.263-.483-.774-.54-.262-.026-1.63-.04-1.96-.04-.07 0-.084.055-.084.138v1.09c0 .47-.014 1.74 0 2.14.028.954.248 1.16 1.657 1.16.358 0 .938 0 1.297-.164.36-.167.525-.457.62-1.023.03-.152.056-.207.153-.207.11 0 .11.11.11.25 0 .317-.11 1.256-.18 1.532-.096.36-.22.36-.745.36-1.036 0-1.795-.028-2.39-.042-.593-.028-1.02-.04-1.435-.04-.152 0-.456 0-.787.013-.318 0-.677.028-.953.028-.18 0-.276-.04-.276-.137 0-.07.055-.11.22-.11.208 0 .374-.028.498-.055.276-.055.345-.36.4-.76.07-.58.07-1.67.07-2.94v-2.435z"/>
    <path d="M131.623 103.53c.028 1.077.207 1.436.484 1.533.235.083.497.097.718.097.152 0 .235.028.235.11 0 .11-.124.138-.318.138-.897 0-1.45-.04-1.712-.04-.124 0-.773.04-1.49.04-.18 0-.305-.014-.305-.138 0-.083.083-.11.22-.11.18 0 .43-.014.622-.07.36-.11.414-.51.428-1.71l.124-8.135c0-.276.04-.47.178-.47.152 0 .276.18.51.428.167.18 2.266 2.39 4.282 4.39.94.94 2.803 2.928 3.038 3.15h.07l-.14-6.2c-.013-.842-.137-1.105-.47-1.243-.206-.083-.538-.083-.73-.083-.167 0-.222-.04-.222-.124 0-.11.152-.124.36-.124.717 0 1.38.04 1.67.04.152 0 .676-.04 1.353-.04.18 0 .317.013.317.123 0 .083-.083.124-.25.124-.137 0-.247 0-.413.042-.387.11-.497.4-.51 1.173l-.153 8.714c0 .304-.054.428-.18.428-.15 0-.317-.152-.468-.304-.87-.827-2.638-2.636-4.074-4.06-1.505-1.49-3.038-3.175-3.287-3.437h-.04l.153 5.757z"/>
    <path d="M149.08 95.742l-2.06.055c-.8.028-1.13.097-1.338.4-.138.208-.207.374-.235.484-.028.112-.07.167-.152.167-.097 0-.124-.07-.124-.22 0-.222.263-1.48.29-1.59.042-.178.084-.26.167-.26.11 0 .248.137.594.165.4.04.926.07 1.382.07h5.468c.442 0 .746-.042.953-.07.207-.04.318-.07.373-.07.097 0 .11.084.11.29 0 .29-.04 1.244-.04 1.603-.015.138-.042.22-.125.22-.11 0-.137-.068-.15-.275l-.015-.152c-.028-.36-.4-.746-1.63-.773l-1.74-.04v5.66c0 1.272 0 2.362.07 2.956.042.388.124.692.54.747.192.028.496.055.703.055.152 0 .22.04.22.11 0 .097-.11.138-.26.138-.912 0-1.783-.04-2.17-.04-.317 0-1.187.04-1.74.04-.178 0-.275-.04-.275-.138 0-.07.055-.11.22-.11.208 0 .374-.028.498-.055.277-.055.36-.36.402-.76.07-.58.07-1.67.07-2.94v-5.665z"/>
    <path d="M160.303 98.973c0-2.1 0-2.486-.028-2.927-.027-.47-.138-.69-.594-.787-.11-.03-.344-.043-.538-.043-.152 0-.235-.027-.235-.124s.097-.124.304-.124c.733 0 1.603.04 2.017.04.33 0 1.202-.04 1.7-.04.206 0 .303.027.303.123s-.083.124-.22.124c-.153 0-.236.014-.402.042-.373.068-.483.303-.51.786-.03.442-.03.828-.03 2.927v1.933c0 2.002.402 2.844 1.078 3.397.62.51 1.257.566 1.726.566.607 0 1.353-.194 1.906-.747.76-.76.8-2.002.8-3.424v-1.727c0-2.1 0-2.486-.027-2.927-.026-.47-.137-.69-.593-.787-.11-.03-.345-.043-.497-.043-.152 0-.235-.027-.235-.124s.097-.124.29-.124c.704 0 1.574.04 1.588.04.166 0 1.036-.04 1.574-.04.193 0 .29.027.29.123s-.083.124-.25.124c-.15 0-.234.014-.4.042-.373.068-.483.303-.51.786-.028.442-.028.828-.028 2.927v1.477c0 1.533-.153 3.162-1.313 4.157-.98.842-1.975.994-2.872.994-.732 0-2.057-.04-3.066-.952-.705-.635-1.23-1.657-1.23-3.66v-2.015z"/>
    <path d="M176.513 98.973c0-2.1 0-2.486-.028-2.927-.028-.47-.138-.69-.594-.787-.11-.03-.344-.043-.538-.043-.152 0-.235-.027-.235-.124s.096-.124.304-.124c.733 0 1.603.04 1.893.04.47 0 1.52-.04 1.947-.04.87 0 1.795.082 2.54.593.388.262.94.967.94 1.892 0 1.022-.428 1.96-1.823 3.093 1.23 1.547 2.182 2.776 2.997 3.632.773.8 1.34.897 1.547.94.153.027.277.04.388.04.11 0 .166.04.166.11 0 .11-.097.138-.262.138h-1.312c-.773 0-1.12-.07-1.478-.262-.594-.318-1.12-.967-1.892-2.03-.553-.76-1.188-1.7-1.367-1.906-.07-.083-.152-.097-.248-.097l-1.2-.028c-.07 0-.11.028-.11.11v.193c0 1.284 0 2.375.068 2.955.04.4.124.704.538.76.208.027.512.054.678.054.11 0 .166.04.166.11 0 .097-.097.138-.276.138-.8 0-1.823-.04-2.03-.04-.262 0-1.132.04-1.685.04-.18 0-.276-.04-.276-.138 0-.07.055-.11.22-.11.208 0 .374-.028.498-.055.276-.055.345-.36.4-.76.07-.58.07-1.67.07-2.94v-2.43zm1.63 1.09c0 .153.026.208.123.25.29.096.704.137 1.05.137.552 0 .732-.055.98-.235.414-.304.815-.94.815-2.07 0-1.962-1.297-2.528-2.112-2.528-.345 0-.594.014-.732.055-.097.028-.124.083-.124.193v4.2z"/>
    <path d="M191.8 101.832c0-.746-.138-1.05-.318-1.45-.097-.22-1.947-3.26-2.43-3.977-.346-.51-.69-.856-.954-1.008-.18-.097-.414-.18-.58-.18-.11 0-.207-.027-.207-.124 0-.083.098-.124.263-.124.248 0 1.284.04 1.74.04.29 0 .856-.04 1.477-.04.138 0 .207.04.207.123 0 .083-.097.097-.304.152-.124.028-.193.138-.193.25 0 .11.07.275.166.468.193.414 2.126 3.742 2.348 4.13.138-.332 1.878-3.37 2.07-3.8.14-.303.194-.538.194-.717 0-.138-.055-.29-.29-.345-.124-.027-.248-.054-.248-.137 0-.097.07-.124.235-.124.456 0 .897.04 1.298.04.304 0 1.215-.04 1.477-.04.152 0 .25.027.25.11 0 .096-.112.137-.263.137-.138 0-.4.055-.608.166-.29.138-.443.304-.747.677-.456.552-2.39 3.798-2.638 4.39-.207.498-.207.926-.207 1.382v1.132c0 .22 0 .8.042 1.38.027.402.152.705.566.76.193.028.497.055.69.055.153 0 .222.04.222.11 0 .096-.11.137-.29.137-.87 0-1.74-.04-2.113-.04-.345 0-1.215.04-1.726.04-.194 0-.305-.028-.305-.138 0-.07.07-.11.22-.11.194 0 .36-.03.484-.056.275-.055.4-.36.427-.76.04-.58.04-1.16.04-1.38v-1.132z"/>
  </g>
</svg>
