<svg id="Layer_1" xmlns="http://www.w3.org/2000/svg" viewBox="0 0 170.667 200">
    <path d="M93.606 95.114c.026-.108.02-.273 0-.446-.102-.873-.51-2.275-.48-2.485.056-.362.117-.623-.03-.994-.084-.213-.273-.52-.404-.65-.11-.11-.937-.576-1.125-.634-.082-.025-.154-.042-.24-.053-.15-.02-1.303.163-1.447.228-.134.062-.476.36-.545.476-.216.364-.34.973-.3 1.407.026.262.248 1.1.335 1.265.112.212.25.35.402.576.165.247.507.962.583 1.216.042.142.056.248.105.35.04.087.68.59.826.65.393.166 1.396.427 1.828.177.218-.127.362-.548.492-1.083z"/>
    <path d="M33.44 34.48l.923-2.587.28-.21.033-1.245c.003-.114.01-.137.075-.23.397-.577.376-.7.987-.67.185.01.384.022.577 0 .16-.018.7-.232.843-.334.46-.327 1.288-1.04 1.547-1.142.265-.105.585-.186.585-.186s-.325-.294-.498-.552c-.153-.228-.195-.604-.3-.88-.08-.21-.477-.812-.702-.93-.113-.06-.246-.072-.35-.142-.11-.07-.19-.203-.265-.334-.07-.12-.134-.236-.21-.35-.72-1.073-1.06-.958-1.372-1.9-.227-.682-.403-1.936-.562-2.284-.11-.243-.258-.46-.333-.703-.078-.25-.073-.37-.228-.597-.055-.078-.113-.138-.16-.21-.107-.173-.17-.975-.298-1.442-.035-.127-.083-.242-.14-.35-.088-.162-.196-.31-.265-.475-.054-.132-.097-.603-.07-.777.063-.41.15-.55-.053-.963-.102-.21-.17-.284-.123-.446.06-.208.5-.583.59-.833.025-.074-.09-.58-.15-.655-.31-.386-.94-.495-1.353-.158-.097.08-.635.967-.756 1.248-.1.236-.447 1.643-.438 1.786.018.302.158.838.253 1.254.025.11.025.136-.003.246-.386 1.51-1.043 4.02-1.13 4.54-.027.17.354 4.722.407 4.852.182.446.448 1.306.436 1.41-.027.238-.136.3-.386.323-.162.014-1.986-.314-3.094-.545-.75-.156-6.32-.498-8.07-.37-.218.017-.43.04-.647.09-.363.08-.738.23-1.09.263-.195.02-.383 0-.576 0-1.02.01-1.968.547-2.975.862-.705.22-1.428.322-2.145.492-.268.064-2.66 1.038-2.847 1.16-.19.123-2.09 1.59-2.496 2.02-.11.118-.202.235-.264.388-.106.265-.11.552-.264.685-.13.113-.37.12-.562.21-.18.086-.507.54-.79.825-.106.108-.413.35-.58.407-.104.033-.208.023-.317.052-.093.025-.56.426-.598.515-.03.066-.035.124 0 .153.042.035.333-.02.457-.088.185-.1.318-.248.492-.316.11-.044.24-.054.35-.105.285-.13.285-.267.598-.298.152-.015.304.033.446 0 .17-.04.327-.193.503-.264.11-.044.227-.055.342-.092.18-.06.357-.18.528-.29.054-.033.108-.066.153-.112.06-.062.078-.07.19-.098 2.217-.54 4.412-.98 6.66-1.587.664-.18 2.602-.578 2.823-.58.232-.004.45.017.668 0 .344-.03.69-.155 1.06-.212.55-.085 3.167.186 3.988.422.32.092.67.233.982.23.09-.002.17-.017.263-.02.155-.002.696.14.818.216.107.067.168.14.258.19.18.094.753.057 1.213.157.458.1 1.643.707 1.832.703.19-.004.37-.084.516-.035.165.056.448.415.734.328.15-.046.156-.148.332-.116.117.02.225.128.372.205.314.165 1.14.257 1.29.375.075.057.095.135.177.21.074.07.7.28.79.265.06-.01.107-.03.153-.063.044-.03.086-.072.142-.088.167-.047.46.122.596.065.045-.018.075-.06.104-.1.044-.055.053-.073.09-.18z"/>
    <path d="M72.042 95.53l.72-2.497c.033-.11.043-.128.108-.185.29-.255.286-.814.42-1.237.233-.736.47-.767.422-1.35-.027-.326-.106-.427-.457-.705-.422-.334-.787-.422-1.34-.148-.202.1-.398.274-.54.482-.184.267-.25.57-.422.807-.153.21-.908.632-1.336 1.054-.323.32-.623.808-.86.968-.194.13-.424.18-.6.35-.25.248-.526.812-.667.88-.086.04-.185.05-.246.105-.06.055-.082.157-.14.246-.075.113-.224.217-.352.28-.09.044-.17.072-.246.123-.1.068-.324.386-.422.598-.113.245-.26.54-.35.616-.11.092-.258.13-.413.194-.67.28-1.352 1.12-1.66 1.757-.26.532-.484 1.392-.65 1.617-.082.11-.18.203-.247.316-.24.405-.39 1.872-.404 2.04-.044.46-.07.9-.142 1.335-.088.53-.383 1.517-.352 2.06.013.223.07.423.105.64.042.258-.592 4.32-.597 4.954-.006.755.01 2.258-.035 2.48-.036.18-.083.37-.083.37s-.11-.155-.177-.286c-.113-.218-.114-.374-.2-.503-.038-.055-.09-.107-.14-.166-.13-.158-.23-.376-.348-.532-.236-.31-.788-.563-1.23-.65-.173-.034-.332-.04-.492-.088-.146-.042-.544-.294-.668-.422-.215-.222-.275-.34-.492-.422-.115-.043-.237-.06-.35-.105-.106-.042-.593-.505-.722-.685-.195-.274-.398-.584-.598-.773-.173-.164-.382-.298-.507-.473-.087-.122-.134-.264-.216-.392-.198-.31-.653-.577-.858-.893-.17-.26-.204-.58-.37-.81-.09-.124-.25-.245-.42-.333-.24-.123-.588-.275-.704-.387-.136-.13-.213-.31-.333-.478-.09-.125-.205-.244-.327-.34-.19-.15-.4-.25-.57-.412-.26-.242-.453-.677-.7-.99-.21-.267-.356-.336-.636-.504-.127-.076-3.188-3.41-3.34-3.638-.346-.52-.652-1.02-1.018-1.476-.686-.853-1.26-1.313-1.635-2.373-.09-.25-.145-.5-.264-.74-.256-.517-1.04-1.447-1.09-1.65-.065-.276.017-.55-.034-.845-.044-.257-.568-1.085-.79-1.652-.078-.195-.124-.388-.16-.598-.124-.742-.1-1.188-.403-1.687-.067-.11-.526-.49-.597-.493-.375-.02-1.523 1.036-1.723 1.372-.08.132-.454 1.554-.492 1.863-.132 1.082-.17 2.055.212 3.163.13.373.3.723.387 1.09.107.454.142 1.026.42 1.44.103.152.247.273.352.423.09.13.242.556.316.88.295 1.282.92 3.913 1.53 5.43.364.906 1.142 2.482 1.598 3.074.44.572 1.092 1.13 1.634 1.74.685.77 1.283 1.74 2.11 2.355.294.22.47.315.65.58.105.157.175.33.28.492.092.142.805.798 1.154 1.062.15.113.29.22.427.343.476.424 1.695 2 2.11 2.355.188.162.524.364.703.422.113.037.232.06.334.123.1.06.183.16.28.228.076.054.16.09.23.142.126.092.204.23.298.37.07.1 2.888 2.133 3.023 2.178.148.05.29.088.422.158.124.066.24.16.363.247.166.116 1.28.588 1.535.65.886.215 2.075.254 2.25-.685.036-.194.012-.95-.04-1.234-.096-.535-.195-1.424-.17-1.593.07-.497.29-1.147.29-1.147s.098.142.184.283c.056.09.457 2.86.44 3.03-.05.457-.07 1.05-.036 1.335.02.167.422 1.187.51 1.293.073.09.747.65.773.914.02.203-.09.397.122.562.053.04.117.056.153.035.085-.05.077-.292.164-.388.06-.068.313-.094.398-.07.262.072.45.404.48.675.065.57-.307 1.24-.668 1.504-.184.135-.394.22-.58.352-.108.076-.83 1.07-.93 1.283-.38.788-.737 1.835-.036 2.425.454.383 2.68.985 2.847 1.02.84.172 2.1.214 2.743-.388.075-.07.135-.144.21-.21.163-.144.39-.254.6-.388.188-.12.583-.496.684-.65.18-.274.3-.637.615-.826.083-.05.172-.078.246-.14.078-.066.14-.17.197-.262.06-.097.07-.12.11-.227.593-1.616.748-2.542 1.644-3.432.19-.19 2.513-2.097 3.04-2.267.178-.057.367-.086.49-.175.08-.057.136-.14.212-.21.168-.158.847-.37 1.248-.58.373-.197 1.05-.802 1.283-1.055.36-.388.636-.828.984-1.195.64-.673 2.475-1.846 3.163-2.126.355-.146 1.743-.526 2.42-.556.315-.014 2.054.116 2.43.414.08.062.137.14.212.21.098.093.824.434 1.125.528.288.09.53.162.808.193.187.02 1.358-.114 1.535-.177.21-.074.393-.168.615-.24.487-.156 1.332-.255 1.564-.217.13.022 3.06 2.8 3.56 3.146.083.057 1.59.818 2.238.756.74-.07 1.688-.78 2.067-1.195.704-.773.902-1.586 1.23-2.882.047-.184.188-.7.158-.9-.034-.222-.292-.47-.35-.688-.026-.09.086-.428.14-.682.02-.092-.42-1.736-.51-1.912-.367-.714-.642-1.015-1.397-1.368-.192-.09-.383-.185-.598-.243-.46-.124-1.033-.08-1.467-.2-.098-.026-.19-.062-.287-.087-.52-.134-1.51.018-1.98.198-.767.293-1.114.56-1.81-.004-.168-.137-.277-.304-.35-.527-.14-.424-.098-.98-.228-1.318-.046-.12-.455-.604-.58-.686-.14-.093-.355-.167-.562-.193-.418-.053-1.137-.044-1.137-.044s-.214-1.435-.427-2.134c-.064-.208-.755-1.81-1.178-2.162-.113-.094-.263-.17-.422-.21-.305-.08-.66-.03-.914-.142-.46-.2-.42-.4-.862-.274-.116.033-.24.084-.333.08-.105-.003-.174-.076-.263-.104-.053-.017-1.05.58-1.142.685-.286.323-.438.623-.72.896-.504.488-1.636 1.263-1.74 1.442-.084.142-.127.293-.23.422-.15.19-.433.33-.597.527-.123.15-.18.33-.267.515-.087.183-.827 1.127-1.24 1.602-.107.125-.205.243-.337.327-.165.105-.385.156-.545.264-.097.065-.172.15-.264.228-.344.288-1.197.527-1.458.897-.092.13-.142.295-.246.422-.077.094-.185.167-.282.248-.264.218-.456.493-.7.752-.11.114-2.353 1.465-2.515 1.513-.156.046-.306.082-.457.14-.363.142-.73.417-1.125.6-1.043.48-2.223.345-2.477 1.387-.15.614.054 1.118-.56 1.195-.404.05-.62-.28-.83-.668-.365-.68-.307-.84-.245-1.608.027-.334-1.04-7.2-1.054-7.845-.01-.433.018-.84.07-1.257.04-.32.852-3.433.984-3.772.108-.276 1.845-3.353 2.003-3.55.206-.25.458-.574.546-.772.007-.016.172-.587.29-.755.055-.082.065-.103.096-.212zm-10.667 19.7v.07h-.07v-.07h.07z"/>
    <path d="M78.312 153.63l2.192.315c.113.016.138.015.248-.013 1.445-.365 2.978-.788 4.326-1.125.474-.118 1.06-.287 1.384-.432.66-.297 1.153-.68 1.62-.732.175-.02 1.063.12 1.614.21.243.04.905.033 1.037-.01.24-.08.447-.24.73-.323.665-.197.756-.065 1.09-.28.73-.476 1.01-1.293.936-2.084-.056-.583-.208-1.158-.446-1.573-.124-.215-1.373-1.718-1.56-1.877-.26-.22-.516-.39-.806-.53-1.646-.793-1.876-.572-2.695-1.653-.132-.174-.255-.395-.28-.534-.02-.097.19-.872.263-.978.146-.213.333-.378.51-.598.313-.39.766-1.276.976-1.86.04-.107.042-.132.038-.246l-.166-4.172c-.005-.114-.003-.14.01-.252.088-.72.27-2.378.565-3.066.048-.115.105-.223.122-.328.014-.088 0-.173 0-.263 0-.2.12-.585.193-.92.04-.19.036-1.85-.008-2.1-.105-.603-.318-1.27-.766-1.943-.618-.93-1.83-2.535-1.862-2.706-.047-.25-.11-.497-.482-.422-.443.09-.594.393-.942.826-.647.805-1.654 1.485-2.46 1.652-.42.087-.863.058-1.23.123-.125.022-.242.055-.36.07-.27.036-.853-.116-1.338-.176-.144-.017-3.125.54-4.685.825-.11.02-.132.014-.214-.066-.623-.614-1.01-.872-1.663-.865-.22.002-.488.023-.703.088-.132.04-.245.097-.387.14-.154.05-.343.082-.518.106-.113.015-.138.017-.252.017h-.847s.024.723-.035 1.195c-.045.372-.143.588-.192.88-.1.593-.037.647-.21 1.018-.305.65-.822 1.294-1.284 1.617-.154.107-1.406.61-1.617.65-.267.05-1.158.167-1.378.088-.156-.055-.273-.178-.43-.277-.506-.323-1.273-.466-1.756-.426-.22.02-.49.075-.655.158-.287.144-.59.406-.716.395-.298-.025-.4-.308-.715-.237-.226.05-.37.362-.61.685-.182.244-.364.394-.545.58-.1.102-1.455 2.782-1.476 2.917-.05.312-.105.706-.177.844-.027.052-.06.1-.09.15-.118.194-.255.557-.314.833-.077.354-.126 3.43.034 4.025.208.774 1.163 2.22 1.808 2.72.168.132.73.413 1.084.543 1.182.433 3.465 1.357 3.575 1.447.157.128.288.268.458.387.21.146.482.258.703.42.36.265.617.698.897 1.108.042.062.086.125.115.194.04.094.047.117.08.226.36 1.2 1.055 3.465 1.053 3.61-.004.305-.072.577-.035.876.043.346.227.728.3 1.14.073.424.026.88.14 1.264.04.132.097.255.158.37.08.15.166.285.228.438.048.118.125 1.674.098 1.985-.085.987-.203 2.06-.08 3 .077.587.248 1.16.35 1.764.073.423.158 1.74.188 2.628.014.395.1 1 .164 1.15.096.228.253.393.316.592.036.112-.024.684-.07 1.17-.017.18.28 2.327.334 2.404.04.06.14.056.23-.018.058-.05.09-.133.14-.21.165-.26.537-.454.685-.686.056-.086.08-.178.106-.28.163-.654.378-1.824.668-2.426.14-.29.338-.554.527-.844.094-.143 2.138-6.108 2.163-6.31.04-.335.094-.727.176-.93.054-.14.13-.263.21-.404.128-.23 1.004-2.65 1.037-2.865.024-.158.035-.3.07-.457.042-.186.366-.87.475-1.002.092-.11.19-.196.316-.28.038-.026.078-.052.12-.067.063-.016.082-.016.194 0z"/>
    <path d="M60 125.18l-.066-2.147-.51-1.89-2.776.615c-.11.025-.13.034-.2.094-.322.286-.878.17-1.364.355-.135.05-.246.127-.363.158-.13.035-.384-.016-.592-.035-.16-.015-2.167.833-3.297 1.248-.23.085-1.302.28-1.558.282-.697.01-2.327-.132-2.835-.282-.377-.11-.646-.246-1.09-.316-.15-.024-.29-.03-.422-.07-.28-.083-.52-.31-.808-.457-.36-.185-.944-.267-1.37-.422-.767-.278-3.106-2.378-3.463-2.9-.316-.46-1.125-2.5-1.248-2.9-.08-.26-.142-.546-.14-.778 0-.114.012-.23 0-.342-.01-.08-.073-.335-.126-.433-.046-.084-.05-.106-.038-.22l.273-2.618c.012-.113.017-.13.05-.172.023-.03.053-.057.086-.077.08-.05.176-.06.247-.105.084-.054.135-.156.193-.264.354-.65.557-.873.633-1.336.087-.534.13-2.075-.21-2.39-.153-.14-.707-.37-.862-.387-.185-.02-.988.19-1.23.388-.29.24-.74 1.21-.772 1.353-.083.355-.045.705-.123 1.038-.058.248-.18.486-.28.738-.085.21-.534 2.48-.616 3.116-.037.278-.01 1.496.034 1.583.093.184.247.327.334.538.072.175.16.875.123 1.137-.034.24-.167.488-.21.737-.025.144-.02.29 0 .432.023.168.067.334.07.505.012.57-.244.862-.14 1.372.027.138.084.263.104.4.028.193-.026.45-.05.69-.096.935.244 1.775-.372 2.108-.364.197-.476.207-.808.598-.14.165-.28.354-.422.44-.194.117-.454.133-.633.245-.13.082-.218.215-.334.333-.172.174-1.282.654-1.903 1.025-.228.137-.425.294-.646.435-.77.494-.964.472-1.494.967-.372.348-.685.773-1.072 1.142-.42.4-2.858 2.03-3.127 2.32-.326.348-.557.746-.86 1.14-.36.467-4.324 4.29-4.518 4.588-.193.297-.336.595-.545.93-.12.193-.688.813-.79.862-.1.048-.204.072-.282.14-.118.105-.18.313-.316.423-.07.057-.162.088-.25.117-.107.037-.126.052-.183.15-.556.958-1.333 2.267-1.637 2.89-.46.94-.94 2.13-1.323 2.765-.122.203-.252.394-.35.598-.115.235-.287.93-.423 1.406-.046.16-1.758 3.063-1.92 3.254-.47.557-1.652 2.13-1.7 2.264-.09.25.03.102.3.07.08-.01.215.054.26.122.093.136.117.37.213.51.203.3.634.35.93.23.462-.188.492-.398.774-.757.143-.182.33-.323.492-.492.19-.196.807-1.504 1.248-2.284.11-.194 1.375-1.68 1.617-1.898.316-.285.634-.552.932-.896.693-.8 1.83-2.326 2.003-2.425.082-.047.167-.084.246-.14.157-.113.296-.303.458-.458.303-.29.806-.502 1.177-.792.41-.32.775-.884 1.213-1.248.35-.29.752-.462 1.16-.668.24-.122 2.523-1.765 2.636-1.898.067-.08.128-.158.21-.21.123-.08.295-.1.423-.177.105-.062.18-.16.28-.246.14-.117.328-.212.493-.28.39-.16.41-.16.86-.648.15-.163 1.083-.85 1.188-.875.174-.04.405-.052.435-.173.016-.064-.024-.163-.003-.217.02-.053.152-.063.248-.095.145-.048.265-.276.434-.453.06-.064 1.158-.408 1.212-.38.036.018.142.1.206.08.045-.014.066-.082.107-.118.06-.052.183-.033.284-.046.105-.014.332-.19.512-.31.098-.065 1.032-.272 1.188-.264.125.007.238.023.347 0 .158-.034.31-.15.48-.24.325-.176 1.243-.34 1.78-.55.24-.096.398-.2.362-.42-.042-.257-.108-.278.06-.39.26-.174.894-.483 1.14-.555.145-.043.575-.046.656-.004.097.05.183.134.29.155.086.017.187-.01.29 0 .114.01.23.065.345.09.09.018.174.018.26.015.553-.02 1.15-.18 1.8-.273.273-.04 2.65-.017 2.84.027.083.02.16.04.2.105.052.088.03.258.093.34.067.086.48.14.635.152.202.015.375-.006.566 0 .143.005 1.953.627 2.096.72.073.05.14.096.21.142.406.255 1.006.436 1.565.685.735.328 3.54 2.053 3.884 2.163.594.19 1.613.372 2.166.083.67-.35 1.238-1.093 1.454-1.735.106-.315.382-1.706.387-2.19.002-.173-.018-.325 0-.533.038-.435.444-1.736.444-1.736s.41.176.665.296c.137.064.23.112.316.176.257.19.39.284.528.105.107-.14.445-.905.527-1.195.156-.553.193-1.07.35-1.476.102-.258.252-.47.3-.75.062-.363-.097-1.068-.035-1.443.02-.115.058-.213.07-.337.024-.24-.076-.714-.158-.984-.018-.058-.04-.122-.073-.176-.04-.072-.046-.092-.05-.206z"/>
    <path d="M133.457 185.647l.227-2.946c.01-.113.014-.134.055-.215.03-.06.048-.127.06-.19.016-.097.015-.187.034-.282.037-.187.128-.338.188-.467.07-.15.45-2.243.462-2.543.015-.39-.017-.42-.08-.936-.055-.453.197-3.587.15-4.233-.06-.782-.504-2.57-.526-3.138-.01-.264.01-.514 0-.787-.013-.412-1.45-6.616-1.44-6.926.008-.33.025-.445.385-.513.41-.077.423.03.704.124.11.037.776-.026 1.25-.063.186-.013 2.13.283 2.486.38.648.176 1.024.268 1.658.203.367-.037.755-.125 1.148-.164.624-.063 1.362-.024 1.846-.128.43-.093.833-.286 1.22-.316.152-.012.302 0 .46 0 .783-.005 2.58-.426 3.08-.685.363-.188.886-.49 1.053-.526.17-.037.35-.036.492-.105.077-.04.143-.1.224-.156.12-.082.27-.153.42-.21.305-.116.6-.17.893-.29.677-.278 1.884-1.075 2.153-1.137.232-.053.464-.053.633-.14.087-.046.157-.116.246-.177.27-.186 1.634-.583 1.827-.738.2-.16.258-.376.457-.598.3-.333.915-.678 1.214-1.004.14-.15.21-.298.362-.406.204-.143.982-.274 1.344-.448.582-.28.615-1.01.594-1.787-.01-.387-.066-.474-.387-.68-.19-.12-.738-.36-1.11-.403-.23-.027-.59.08-.787.158-.55.215-1.33.73-1.898 1.02-.144.072-.28.132-.422.14-.173.01-.355-.062-.47-.018-.105.04-.153.182-.268.264-.102.073-.408.115-.633.177-.195.054-.56.278-.88.457-.162.09-1.784.56-1.88.545-.108-.02-.192-.06-.315-.07-.18-.017-.478.035-.72.104-.218.062-.4.136-.6.158-.287.032-.61-.045-.89-.018-.25.025-.468.133-.742.186-.224.043-.746.046-1.035.006-.078-.01-.15-.024-.23-.026-.3-.008-.7.144-1.02.125-.175-.01-.327-.07-.457-.045-.096.02-.18.085-.3.123-.087.028-.194.04-.294.046-.115.005-.14.004-.254-.005-.812-.068-2.317-.182-2.433-.236-.103-.05-.19-.108-.288-.16-.208-.107-1.772-.3-2.77-.48-.21-.038-2.2-.826-2.38-.942-.11-.073-.218-.148-.333-.193-.2-.08-.42-.07-.598-.14-.095-.04-.51-.526-.808-.845-.19-.203-2.97-1.785-3.128-1.968-.13-.152-.228-.322-.37-.475-.172-.185-.41-.345-.612-.543-.34-.332-.587-.773-.9-1.09-.455-.466-1.3-1.03-1.738-1.073-.133-.012-1.64.327-1.793.405-.32.163-.583.362-.914.492-.354.14-.944.36-1.018.44-.135.14-.198.345-.334.456-.083.068-.194.1-.3.158-.155.087-1.407 1.617-1.577 1.93-.13.24-.195.5-.337.725-.18.284-.906.818-1.177 1.195-.422.585-.468 1.155-.158 1.757.13.25 1.592 1.726 2.39 2.67.175.208 1.205 1.907 1.353 2.233.242.53.573 1.425.827 2.232.207.66.46 1.51.46 1.51s.04 0 .065-.016c.073-.045.005-.227.01-.337.004-.097.052-.114.093-.104.06.013.28.358.302.468.06.314 0 .762 0 .762s-.108 0-.158.018c-.1.037.074.357.157.42.087.07.205.058.267.124.028.03.127.448.084.586-.02.064-.068.123-.09.18-.078.204.14.696.233.97.095.276.22.6.3.672.082.077.31.153.297.316-.005.056-.053.11-.092.155-.053.062-.056.08-.026.19.608 2.21 1.652 5.942 1.797 6.637.466 2.24.486 3.912.745 6.83.065.735.16 3.737.126 3.993-.114.85-.35 2.322-.337 2.555.025.473.095 1.166.06 1.327-.024.11-.068.208-.094.32-.08.34.01.904-.035 1.42-.053.602-.305 1.184-.35 1.67-.034.358.015.848.157 1.07.093.143.86.857 1.002.93.467.244 1.37.345 1.827.018.327-.235.424-.488.58-.914.04-.106.076-.2.088-.295.03-.244-.115-.52-.14-.823-.01-.112.29-1.093.368-1.202.082-.115.168-.203.246-.316.096-.142.46-1.118.56-1.512.387-1.498.716-3.314 1.047-4.4.025-.08.05-.16.09-.234.054-.1.06-.124.07-.237z"/>
    <polygon points="124.677 166.055 124.783 166.055 124.748 165.738 124.642 165.738 124.642 165.984 124.677 165.984 124.677 166.055"/>
    <path d="M106.477 114.98l4.6-.133c.114-.003.13 0 .176.028.033.02.07.034.108.046.413.13 1.06.12 1.577.22.2.04 1.125.433 1.406.6.868.51 2.404 1.392 2.67 1.493.582.22 1.82.48 2.532.316.228-.054.45-.15.667-.212.22-.064.44-.096.668-.158.143-.04 1.954-1.163 2.04-1.265.114-.138.202-.277.315-.422.454-.58 2.064-1.96 2.566-2.25.14-.08 1.717-.498 1.794-.474.098.03.18.08.28.104.1.024.87-.122 1.02-.193.783-.37 1.328-1.034 1.564-1.844.16-.55.22-.922.193-1.525-.02-.506-.104-1.003-.07-1.49.04-.525.283-1.23.398-1.89.154-.89.23-2.295.346-2.638.18-.533.27-.506.574-.784.103-.094.637-1.026.753-1.315.436-1.074.93-2.23.497-3.238-.034-.08-.073-.156-.123-.228-.098-.14-.242-.265-.316-.422-.16-.338-.05-.474-.3-.615-.25-.142-1.115-.214-1.335-.246-.295-.043-3.088-.866-3.34-.984-.148-.07-.286-.14-.42-.246-.19-.146-.37-.36-.563-.51-.128-.1-.262-.174-.387-.264-.657-.474-2.745-3.542-2.83-3.778-.265-.743.43-.83 1.196-1.563.45-.43.722-.955.754-1.545.003-.05.004-.098 0-.148-.01-.122-.222-.577-.334-.717-.61-.766-3.604-2.41-3.814-2.513-.625-.31-2.38-1.067-3.27-1.195-.817-.118-2.218-.154-2.424-.246-.373-.167-.556-.488-.738-.967-.056-.148-.11-.29-.105-.44.003-.18.088-.37.07-.536-.01-.09-.05-.172-.07-.264-.077-.34.12-.93.175-1.204.014-.07.146-1.938-.018-2.583-.12-.47-.432-.948-.72-1.142-.18-.12-.61-.3-.845-.35-.556-.123-2.132-.125-2.478-.228-.124-.037-.24-.085-.37-.123-.56-.167-1.102-.135-1.53-.443-.192-.137-.68-.598-.788-.18-.044.17.26.6.3.675.08.154.262.9.263 1.077 0 .11-.01.216 0 .328.03.443.14.563.017.95-.042.13-.108.254-.176.386-.227.444-1.39 2.305-1.5 2.4-.178.154-.37.267-.525.458-.167.206-.404.566-.502.62-.184.1-.29.068-.39.213-.07.105-.105.27-.175.387-.05.082-.115.14-.193.193-.153.1-.353.176-.492.3-.11.097-.182.224-.28.333-.13.142-.308.252-.48.374-.358.253-2.58 2.65-3.264 3.228-.867.73-1.112.753-1.428 1.357-.072.137-1.87 2.033-2.104 2.216-1.063.84-1.847 1.458-2.34 2.684-.36.9-.28 1.13-.023 1.87.073.208.247 1.416.248 1.718.002.56-.05 1.29-.19 1.86-.152.628-.467 1.546-.467 1.546s-.152.01-.288 0c-.116-.006-.873-.353-1.004-.46-.093-.074-.185-.15-.295-.19-.147-.05-.324-.04-.458-.104-.08-.04-.145-.105-.224-.154-.13-.08-.295-.112-.43-.184-.28-.147-.876-.918-.946-1.12-.078-.228-.067-.486-.158-.704-.05-.12-.133-.23-.193-.352-.123-.25-.15-.55-.245-.808-.044-.12-.555-.734-.685-.826-.54-.377-1.335-.638-2.11-.545-.264.032-.213.125-.49.44-.104.115-.23.19-.3.298-.075.115-.09.267-.123.423-.044.208-.395 1.017-.58 1.336-.23.396-.49.833-.598 1.124-.067.18-.175 1.01-.16 1.213.02.237.2 1.208.493 1.476.07.065.16.104.246.158.146.093.668.68.99 1.033.078.084.093.094.145.1.04.004.08 0 .118-.007.132-.03.196-.123.252-.128.09-.007.18.31.345.386.117.055.495-.14.8-.118.14.01.44.153.607.105.054-.014.104-.05.157-.078.164-.092.353-.14.543-.167.18-.027 1.235.065 1.42.123.207.065.977.488 1.09.598.5.488.218 1.03.404 2.373.03.216.273.918.37 1.07.235.37.754.89 1.206.968.126.022.238.002.364 0 .25-.004 2.113.655 3.21.896 1.098.24 2.524.134 3.294.752.54.432 1.796 2.83 1.802 3.588.002.26-.046.41.088.563.092.105.258.182.415.29.283.195 1.5 1.68 1.746 1.836.184.116.372.16.633.246.077.025.16.055.246.068.112.014.138.015.25.012z"/>
    <path d="M108.486 160.04l-.047-.17s.282.03.48 0c.176-.028.324-.134.468-.194.086-.036.183-.057.28-.088.15-.047.862-.508.95-.615.122-.148.196-.306.316-.457.08-.1.89-.803 1.213-.967.13-.067.278-.113.37-.194.073-.066.11-.155.175-.21.074-.064.336-.095.527-.142.1-.025.786-.556.93-.72.37-.424 1.068-1.354 1.222-1.63.16-.284.295-.587.455-.84.15-.237.322-.43.467-.66.132-.208.808-3.17 1.213-4.357.172-.506.773-1.518 1.384-1.824.097-.048.204-.082.304-.127.15-.067.286-.16.44-.228.196-.088.757-.18 1.14-.257.112-.02.137-.022.25-.005l5.12.737c.113.016.138.018.252.017.7-.005 1.274-.178 1.637-.633.09-.114.47-1.058.492-1.23.02-.147.026-.29.07-.422.028-.083.07-.162.105-.246.143-.35.2-1.006.193-1.354-.005-.36-.042-.798 0-1.038.045-.254.155-.49.243-.745.492-1.436.568-4.025.09-5.3-.463-1.243-.844-1.53-.79-2.59.014-.28.048-.355.28-.52.356-.25.9-.552 1.284-.685 1.404-.486 1.607-.208 2.496-.914.413-.33.478-.932.463-1.546-.023-.866-.29-2.335-.64-3.2-.03-.074-.063-.148-.108-.215-.06-.09-.07-.112-.104-.22-.294-.97-.704-2.38-.912-2.903-.108-.27-.76-1.394-.896-1.547-.335-.373-.905-.82-1.35-.88-.19-.025-.708.058-1.127.1-.34.036-1.016.022-1.433-.03-.417-.05-.79-.13-1.21-.175-.72-.08-5.67.006-6.085-.07-.215-.04-.575-.15-.692-.35-.047-.082-.054-.184-.088-.282-.108-.315-.628-.873-.738-.967-.147-.126-.786-.463-.967-.51-.21-.056-.52-.1-.72-.07-.34.05-.722.303-1.077.386-.43.1-1-.043-1.383-.3-.43-.286-.857-.804-1.3-1.09-.685-.437-1.565-.65-2.18-.42-.296.11-.706.306-.983.49-.384.258-.617.546-.984.757-.143.082-1.27.384-1.44.387-.14.002-.263-.01-.4 0-.147.01-.996.336-1.147.44-.434.295-.78.762-.943 1.326-.232.798-.553 2.432-.65 2.525-.12.115-.27.27-.27.338.004.243.244.753.244.753s-.395.177-.715.28c-.13.04-1.13.04-1.24 0-.838-.323-2.225-1.256-2.76-2.12-.102-.165-.19-.34-.292-.518-.112-.194-.99-1.208-1.125-1.3-.213-.145-.438-.244-.65-.404-.52-.39-.626-.583-1.16-.545-.316.022-.6.157-.844.422-.186.203-.328.472-.516.627-.066.054-.137.095-.206.15-.147.114-.464.558-.683.848-.07.09-.073.113-.042.223.16.553.305 1.068.446 1.667.07.302.364 3.43.333 3.55-.02.085-.048.162-.07.246-.05.19-.116 1.926-.14 3.04-.006.248-.918 4.9-1.003 5.115-.33.833-.738 1.648-1.054 2.497-.084.226-.222.51-.316.598-.104.097-.243.155-.316.246-.16.2-.248.896-.228 1.09.07.68.773 2.286 1.002 2.707.168.31.966 1.43 1.125 1.582.458.433 1.498.795 2.19.737.38-.032 1.088-.18 1.272-.264.538-.243 1.315-1.135 1.6-1.617.407-.69.823-1.89 1.14-2.39.22-.345.977-1.408 1.3-1.125.058.05.125.13.177.23.15.285.16.542.33.665.035.026.072.04.103.063.055.042.172.47.2.73.065.615.135 1.38.15 1.32.004-.017.072-.104.15-.107h.052l.035 1.255-.1.18-.34-.346s.18.862.23 1.45c.05.6-.024.985-.282 1.205-.15.128-.695.392-1.054.562-.292.14-.744.43-.896.58-.125.122-1.095 1.69-1.195 1.933-.126.305-.42 1.293-.37 1.722.023.18.4 1.09.51 1.37.024.058.043.1.112.106.135.015.47-.07.47-.07v.035s.2.002.365 0c.3-.004.624-.054.794-.123.908-.37.967-.593 1.67-.615.213-.007 1.19.02 1.46.176.07.042.135.104.21.16.334.247.937.43 1.16.632.32.29.31.588.668.773.232.12.564.13.758.25.294.178.933 1.74 1.07 2.193.194.647.285 1.39.526 2.04.023.06.654 1.282.668 1.65.013.35-.11.505.035.616.08.062.268.115.33.088.027-.012.046-.036.065-.06.02-.032.022-.044 0-.12z"/>
    <path d="M133.485 126.334l.768 1.576c.05.102.055.124.053.22-.01.374.25.553.442 1.02.13.31.12.645.233.9.118.262.623.702.98.91.28.16.578.252.81.422.284.21.465.538.737.808.15.148.732.53 1.02.668.307.148.615.27.913.422.277.14 1.2.782 1.494 1.037.593.515 1.43 1.39 1.634 2.144.045.166.064.337.123.493.105.275.33.505.493.773.078.128.333 1.085.334 1.253.002.385-.075.772-.023 1.172.04.313.16.635.13.914-.018.162-.086.31-.106.48-.064.535.13 1.107.404 1.488.305.423.478.368 1.11.35.457-.01.697-.248 1-.772.38-.66.492-1.497.368-2.334-.06-.398-.145-.572-.035-1.026.016-.066.525-1.15.478-1.487-.01-.07-.045-.147-.066-.23-.063-.24.074-.902.045-1.32-.017-.255-.11-.47-.14-.7-.034-.248.004-.51.022-.776.013-.195-.46-3.32-.568-3.762-.078-.316-1.127-3-1.195-3.058-.078-.068-.163-.118-.227-.21-.117-.168-.172-.47-.3-.704-.108-.2-.306-.38-.473-.58-.35-.415-.615-1.004-.93-1.46-.176-.25-.555-.656-.862-.93-.29-.258-1.932-1.432-2.214-1.582-.205-.11-3.403-1.118-3.62-1.142-.21-.023-1.237.07-1.372.123-.163.066-.79.52-.896.65-.114.138-.28.48-.334.685-.057.22-.135 1.367-.105 1.547.024.14.06.258.07.404.012.193-.138.92-.223 1.377-.022.11-.02.134.03.237z"/>
    <path d="M165.012 120.822l-.39-3.133c-.014-.114-.015-.134-.007-.203.006-.05.024-.104.044-.148.022-.052.048-.093.067-.137.047-.115.04-.296.02-.462-.032-.268-.54-2.08-.65-2.318-.382-.824-1.038-1.99-1.142-2.373-.04-.15-.067-.294-.123-.44-.14-.365-.662-.95-.88-1.44-.07-.163-.114-.327-.175-.493-.113-.306-.29-.62-.462-.937-.706-1.294-1.503-2.96-2.544-3.966-.125-.122-.257-.238-.368-.37-.193-.228-.323-.505-.527-.737-.25-.284-.612-.5-.844-.773-.078-.094-.142-.194-.227-.264-.123-.1-.29-.14-.457-.21-.16-.07-.805-.562-1.116-.853-.102-.095-.197-.183-.303-.276-.235-.207-1.633-1.143-1.78-1.19-.085-.028-.164-.046-.246-.07-.118-.038-1.85-1.345-2.002-1.512-.456-.502-.965-1.29-1.09-2.004-.026-.15.132-1.574.193-1.74.076-.204.37-.69.493-.808.244-.24.298-.255.422-.668.175-.584.124-.885-.193-1.424-.28-.472-.67-.852-1.286-.756-.17.026-.453.175-.646.3-.096.062-.116.078-.198.156l-3.155 2.99c-.083.077-.097.095-.142.174-.21.37-.665.385-1.075.28-.344-.087-.405-.298-.422-.716-.047-1.205.35-1.48-.33-2.167-.183-.186-1.016-.633-1.477-.7-.355-.053-1.185.188-1.39.333-.114.08-.197.176-.317.228-.142.062-.337.064-.492.123-.115.043-.208.12-.315.175-.133.07-.537.15-.794.158-.083.003-1.02-.044-1.278.088-.087.045-.157.124-.246.177-.202.12-.503.1-.738.176-.487.156-1.012.88-1.077 1.146-.02.09.233 1.16.305 1.278.22.364.554.943.562 1.048.01.137-.023.274 0 .41.023.138.102.274.14.42.083.315-.13 1.58-.182 1.858-.08.434-.16.407-.496.453-.232.03-.228.21-.43.468-.162.206-.416.286-.598.457-.215.202-.34.568-.545.844-.122.165-.276.3-.387.457-.22.31-.607 1.867-.562 2.34.01.113.04.22.088.33.287.66.4.67.105 1.372-.226.54-.484 1.007-.438 1.66.03.432.435 1.21.88 1.468.414.24 1.386.282 1.722.246.286-.03.66-.132.976-.254.156-.06.308-.127.464-.187.44-.168.917-.276 1.37-.423.27-.087 1.674-.79 1.9-.95.538-.382 1.38-1.002 1.58-1.09.215-.092.43-.144.634-.245.29-.145.852-.72 1.336-1.09.18-.137 1.18-.636 1.406-.703.528-.155.81-.105 1.582 0 .536.07 1.74.33 1.91.41.116.053.226.116.34.15.102.032.208.04.316.07.164.047.482.235.668.388.073.06.136.117.21.176.153.12.73.392.856.404.095.01.18-.002.27 0 .785.02 3.036 1.507 3.29 1.655.294.172 2.913 2.167 2.95 2.247.05.115.103.297.227.422.07.07.16.12.245.176.158.106.293.237.422.387.377.438.696 1.03 1.054 1.424.147.16.3.287.44.438.106.114 1.047 1.987 1.582 3.093.285.59.666 1.528.685 1.687.014.118.016.237.008.355-.008.114-.005.14.027.248l1.036 3.564c.032.11.04.133.094.234.17.325.25.336.613.31.366-.028.716-.452.978-.988.05-.1.053-.125.04-.238z"/>
    <path d="M80.095 64.077L77.98 66.42c-.076.085-.097.1-.202.142-2.235.918-3.72 1.647-5.384 3.326-1.28 1.29-3.56 3.744-3.85 3.937-.2.134-.403.25-.597.404-.657.52-1.805 1.69-1.98 1.752-.297.102-.68.142-.853.272-.226.17-.286.273-.645.298-.335.023-.48-.072-.82-.19-.657-.228-.992-.217-1.503.152-.215.155-.457.398-.633.633-.162.217-.357.5-.492.598-.11.08-.228.112-.35.176-.113.058-1.04 1.044-1.123 1.193-.045.08-.082.156-.127.232-.4.676-.653.698-.756 1.476-.014.105-.017.2 0 .307.024.15.234.6.334.714.27.306.907.562 1.32.493.2-.033.484-.132.632-.228.797-.52.9-1.3 1.44-1.142.124.035.276.114.418.15.104.028.203.033.305.05.308.052 1.09.49 1.616.678.202.072.396.112.606.116.234.005.512-.027.714.02.125.03.242.09.355.104.11.015.22-.012.324.007.087.016.306.188.356.28.07.13.088.283.176.388.07.082.183.135.287.212.153.113.29.278.435.405.294.256 1.003.597 1.337.694.155.045.302.07.453.113.366.105 1.39.75 2.074 1.053.62.275.915.296 1.37.86.317.395.724 1.05.914 1.178.078.053.16.09.246.142.154.094.485.425.58.58.052.085.09.17.14.246.096.146.236.27.335.422.157.242.245.81.404 1.195.19.462.395.6.368 1.09-.02.367-.218.785-.246 1.16-.024.324.114.943.3 1.16.152.18.6.29.79.492.12.127.15.305.25.442.29.407 1.477.64 1.965.418.128-.058.49-.384.703-.633.345-.402 2.327-2.85 3.198-3.41.166-.105.836-.354.995-.368.154-.014.303-.003.46 0 1.195.025 5.533-.88 6.54-1.09.757-.158 3.514-.893 3.955-1.054.235-.086 2.315-.895 2.777-1.388.086-.092.155-.195.246-.28.16-.15.385-.248.563-.405.216-.19.364-.468.545-.668.122-.135.258-.235.387-.352.097-.088 1.546-2.72 1.722-3.128.253-.585.79-2.096.826-2.32.084-.536.065-.71.264-1.054.165-.287 1.814-1.884 2.18-2.39.37-.515 1.313-2.988 1.423-3.866.125-1.005-.137-1.98.228-2.777.098-.214.49-.723.787-1.125.328-.443.437-.62.215-1.002-.185-.318-.562-.34-.984-.457-.19-.052-2.197-1.112-2.46-1.3-.3-.213-.628-.488-.79-.684-.41-.493-.57-.845-1.073-1.107-.506-.264-1.122-.36-1.617-.177-.218.08-.41.234-.64.33-.184.078-.39.12-.542.22-.08.05-.143.115-.224.153-.134.063-.416.07-.516.053-.117-.023-.456-.228-.61-.37-.273-.254-.503-.552-.787-.776-.462-.364-1.866-1.075-2.425-1-.487.067-2.118.974-2.435 1.332-.04.044-.072.09-.117.128-.117.1-.308.154-.474.228-.14.063-.262.14-.37.228-.17.14-.298.3-.456.422-.098.076-1.057.386-1.28.414-.394.05-2.63.172-3.352.095-.474-.05-4.278-1.19-4.576-1.194-.373-.005-.832.073-1.246.125-.114.012-.135.023-.21.107z"/>
    <path d="M104.494 58.27s-.097.178-.203.283c-.096.096-.503.114-.737.176-.088.022-.5.397-.598.544-.308.46-.677 1.73-.598 2.578.052.56.417 1.482.773 1.833.425.42 1.435.733 2.02.896.62.173 3.232.686 4.85 1.013.112.023.134.032.227.1.326.234.952.54 1.275.47.337-.072.95-.64.977-.82.02-.14-.013-.395-.036-.607-.046-.422-.082-.76-.158-.963-.048-.127-1.343-1.75-1.543-1.933-.273-.25-.544-.475-.792-.753-.353-.398-.915-1.07-1.056-1.162-.23-.15-.486-.215-.668-.387-.18-.17-.243-.362-.415-.37-.1-.003-.284.105-.427.177-.093.047-.61.072-.725.035-.405-.13-2.164-1.11-2.164-1.11z"/>
    <path d="M102.607 46.72l-2.59-.1-.207.07-3.69-.63c-.11-.02-.132-.03-.205-.12-.618-.74-.9-1.164-1.536-1.114-.202.016-.505.083-.634.158-.12.07-.19.168-.27.228-.055.042-.205.042-.27 0-.124-.083-.292-.28-.292-.28s-.123.533-.24.878c-.08.235-.197.45-.334.615-.27.32-.764.803-.896 1.072-.088.178-.118.357-.21.527-.17.31-.64.66-.862 1.02-.25.404-.417 1.173-.158 1.58.052.083.12.147.193.212.155.137 2.127 1.255 2.355 1.336.73.26 1.82.62 1.968.72.66.442 1.39 1.69 1.476 2.443.02.177-.22 1.8-.344 2.696-.016.114-.01.137.05.234.194.318.4.687.61.938.08.093.78.493.926.527.25.058 1.904.168 2.11.14.082-.01.154-.026.233-.053.137-.045 1.224-.827 1.372-.985.462-.494.83-1.24 1.353-1.328.267-.045.642.008.95-.014.3-.022.537-.114.82-.15.164-.022 1.932.235 2.896.368.114.016.13.016.166.004.146-.05.133-.152.108-.292-.02-.116-.05-.22-.123-.292-.143-.143-.242-.126-.192-.28.127-.396.773-.816 1.113-.74.12.028.39.203.575.37.792.72 1.178 1.34 2.143 1.494.378.06.546-.026.766-.358.06-.092.1-.182.13-.29.156-.526.284-1.63.39-1.777.11-.156.483-.114.75-.08.29.035.974.222 1.13.308.25.14.436.336.68.505.632.44 2.364.99 3.256.655.46-.174.818-.87.88-1.325.143-1.074-.595-1.835-.862-3.12-.097-.467-.08-.934-.176-1.407-.092-.452-.287-.91-.35-1.37-.124-.885-.01-1.15-.546-1.83-.437-.555-1.063-.953-1.698-1.053-.22-.035-.916-.012-1.08.035-.185.054-.343.14-.527.193-.595.172-1.88.105-2.25 0-.168-.048-1.45-.785-1.65-.95-.202-.163-.387-.33-.58-.51-.242-.22-1.192-.892-1.32-.93-.167-.05-.882-.12-1.124-.088-.122.016-.993.467-1.166.604-.264.21-.48.414-.75.59-.216.144-1.342.61-2.02.9-.105.046-.13.05-.243.046z"/>
    <path d="M128.987 59.248l-1.31-3.138c-.043-.105-.05-.128-.058-.232-.024-.25.146-.958.15-.985.042-.255.042-1.035 0-1.32-.04-.278-.446-1.596-.58-1.89-.142-.312-.3-.604-.492-.915-.674-1.084-2.026-3.023-2.144-3.34-.186-.497-.033-.742.14-1.3.078-.246.146-1.212.124-1.536-.02-.29-1.35-3.922-1.336-4.11.05-.65.817-.603 1.582-.698.485-.06 1.874-.487 2.32-1.052.04-.05.067-.1.105-.143.11-.127 1.49-.575 1.686-.74.08-.065.136-.143.21-.21.186-.166.487-.27.74-.422.297-.18.784-.754 1.21-1.124.344-.296 1.822-1.046 2.358-1.462.132-.102.25-.21.35-.35.108-.15.192-.336.316-.456.09-.088.204-.142.316-.21.284-.175 1.257-1.266 1.845-1.776.246-.212.41-.335.616-.72.09-.17.142-.34.228-.493.163-.29.448-.526.668-.808.103-.134.507-1.073.545-1.266.076-.39.166-.955.246-1.125.08-.17.5-.677.475-.897-.013-.112-.104-.21-.123-.334-.02-.12.027-.265.018-.395-.02-.28-.205-.536-.43-.59-.458-.112-1.153.37-1.433.633-.154.145-1.255 1.703-1.29 1.823-.088.318-.204.77-.274.85-.076.085-.182.15-.246.245-.05.072-.073.16-.123.228-.202.278-1.615.586-1.722.598-.26.028-.57.04-.738.106-.15.06-.285.166-.433.193-.1.018-.208 0-.32 0-.27-.004-.56.088-.868.12-.474.05-.982-.044-1.363.01-.125.016-.236.05-.355.097-.162.065-1.027.686-1.125.808-.16.2-.345.462-.457.527-.1.058-.22.083-.316.14-.106.064-.182.164-.28.247-.26.216-1.718.537-2.25.58-.59.045-.905-.02-1.258.173-.35.192-.34.253-.69.318-.174.034-1.883-.062-2.2-.122-.31-.06-.346-.077-.598-.176-.26-.102-2.09-.517-2.4-.545-.08-.007-.155-.012-.232-.025-.442-.073-1.184-.472-1.55-.52-.24-.03-.55-.05-.633-.105-.16-.11-.254-.362-.423-.457-.466-.26-1.215.345-1.722.527-.385.138-.495.103-.72.44-.172.254-.385 1.205-.67 1.792-.166.344-.906 1.233-1.398 1.55-.337.216-.943.4-1.184.752-.052.076-.083.157-.14.21-.063.06-.155.084-.247.124-.093.04-1.153 1.208-1.213 1.336-.086.187-.142.364-.246.527-.075.117-.175.227-.246.35-.23.404-.444 1.25-.58 1.388-.125.13-.296.252-.296.252s.25 1.095.42 1.418c.093.177.322.4.495.592.076.084.096.098.202.14 1.41.533 3.89 1.487 4.24 1.57 1.184.287 2.976.58 3.374.74.447.178.91.49 1.125 1.053.09.234.184.563.265.65.08.087.196.135.3.21.248.186.418.54.667.792.22.22.816.488 1.215.758.34.23 1.052.932 1.25 1.31.153.294.288.715.444.86.14.132.184.113.29.306.37.666-.094 3.29-.11 3.385-.037.193-.648 1.645-.715 1.693-.18.132-.233.138-.264.35-.062.44.02 1.19.16 1.478.073.154.454.607.675.804.165.147.326.277.484.426.14.133 1.916 2.76 2.09 3.093.86 1.64 2.055 4.408 2.144 6.29.027.572.05 1.458.105 1.688.084.346.317.95.28 1.497-.016.24-.132.504-.14.766-.01.26.088.52.07.732-.01.12-.058.223-.09.38-.087.442-.052 1.3-.052 1.3l.886.063c.114.008.14.006.25-.016.333-.066.567-.173.674-.398.11-.228.08-.563.21-.773.11-.176.42-.318.634-.493.108-.09.34-.45.387-.598.11-.358.102-.792.175-1.23.114-.695.534-1.698.65-2.4.096-.577.06-1.15.13-1.713.06-.476.196-.946.285-1.445.06-.332.33-3.296.078-3.88-.078-.18-.208-.33-.28-.527-.083-.22-.095-.504-.194-.756-.172-.438-.342-.527-.31-.858.01-.097.007-.12-.037-.224z"/>
    <path d="M162.884 15.355c-.214.9-.59 3.1-.773 3.62-.304.862-1.51 3.226-1.598 3.603-.07.3-.207.724-.28.808-.176.2-.492.296-.686.51-.077.084-.135.187-.21.246-.094.072-.214.08-.33.123-.09.03-1.015 1.01-1.215 1.28-.25.344-.497.653-.668.95-.09.157-.16.31-.248.476-.078.147-2.783 3.066-2.898 3.127-.117.063-.227.11-.336.196-.307.244-.652.857-.95 1.09-.098.077-.198.125-.3.195-.166.116-.61.62-.92.977-.277.32-1 1.005-1.38 1.305-1.682 1.333-1.88 1.314-2.79 2.288-.24.256-.61.603-.76.682-.14.074-.28.1-.422.176-.33.177-.68.633-1.033.823-.196.105-.323.124-.425.284-.068.106-.095.244-.158.35-.06.102-.25.242-.422.335-2.47 1.336-4.43 1.986-6.96 2.846-.434.148-3.356.85-3.583.86-1.065.054-1.945-.104-2.53.194-.14.07-1.163 1.017-1.39 1.283-.212.25-.77 1.112-.843 1.3-.17.444-.248.97-.422 1.477-.042.122-.09.244-.152.344-.147.233-.167.294-.146.626.063 1.008.31 1.21.768 2.063.155.29.38.883.465 1.227.124.5.158.597.612 1.082.36.385.6.474 1.316.562.228.028.377-.004.655-.21.05-.036.09-.07.134-.103.107-.076 1.328-.447 2.036-.63.463-.12.89-.277 1.314-.468 1.49-.673 4.397-2.3 4.895-2.472l.315-.105c.26-.088 3.475-1.777 3.786-1.988.23-.156.44-.306.68-.42.39-.187.862-.273 1.23-.475.228-.126.417-.296.645-.47.316-.243.733-.504 1.054-.653.128-.06.25-.108.358-.18.184-.125.325-.323.507-.473.19-.157.515-.298.773-.44.232-.126.646-.45.88-.684.835-.845 2.253-2.534 2.477-2.67.106-.066.21-.114.316-.177.423-.25 4.3-4.897 4.57-5.413.247-.47.4-.98.668-1.44.198-.342.457-.655.72-1.003.213-.28 1.27-2.093 1.35-2.313.07-.2.127-.4.237-.574.087-.138.207-.262.26-.4.035-.093.04-.193.07-.28.042-.12.13-.217.207-.33.128-.19.397-1.423.608-2.158.143-.5.65-1.403.96-2.17.384-.952.733-2.423.967-2.9.092-.188.195-.352.3-.545.094-.176.986-3.26.983-3.403-.003-.15-.02-.283 0-.446.027-.232.216-.76.176-.997-.027-.16-.15-.355-.176-.524-.033-.223.042-.462-.088-.658-.186-.28-.53-.22-.882-.176-.342.043-.42.068-.752.334-.16.13-.5.44-.564.705z"/>
    <path d="M130.002 25.14c.03-.3-.557-2.372-.878-2.843-.073-.107-.163-.208-.264-.28-.24-.175-.316-.177-.316-.55 0-.112.01-.214 0-.318-.013-.123-.22-.544-.334-.68-.245-.293-.56-.512-.808-.808-.5-.594-.558-1.024-1.107-1.46-.216-.17-.477-.303-.668-.49-.112-.11-.2-.24-.3-.37-.36-.47-2.322-2.388-2.618-2.654-1.153-1.035-3.746-2.783-5.15-3.497-.787-.4-3.803-1.657-5.02-1.686-.272-.007-.537.025-.823.023-.21 0-2.177-.243-2.575-.357-.21-.06-.49-.205-.652-.336-.43-.347-1.114-1.272-1.42-1.49-.232-.166-.482-.258-.704-.423-.288-.213-.784-.968-1.23-1.37-.525-.473-1.272-.766-2.003-.334-.076.045-.138.097-.21.14-.216.132-.522.198-.774.335-.273.15-.483.38-.74.528-.18.105-.382.168-.544.3-.15.12-.262.295-.404.403-.07.053-.144.09-.21.143-.173.137-.296.39-.453.567-.357.404-1.197.752-1.64.75-.59-.002-1.432-.49-1.937-.777-.216-.122-2.686-2.15-2.738-2.246-.124-.233-.23-.316-.573-.35-.36-.038-1.136.19-1.308.263-.545.228-1.053.65-1.283 1.107-.156.313-.313 1.396-.56 2.11-.054.152-.118.3-.197.406-.043.057-.09.102-.118.163-.078.173.014.584.068.766.052.177.518.994.652 1.144.55.615 1.477 1.41 1.527 1.562.096.294.014.85.105 1.265.045.206.14.397.193.61.03.115-.186 1.973-.264 2.272-.18.704-.704 2.642-.615 3.557.044.444.303 1.364.546 1.645.217.25.578.435.684.63.077.14.123.823.106 1.184-.014.31-.093.63-.14.943-.035.22-.013.8.034.924.08.213.237.395.334.61.115.253.15.552.246.843.076.228.672 1.332 1.054 1.51.132.063.302.078.404.16.076.06.114.157.176.245.137.196.625.46.93.72.136.116.727.818.81 1.055.047.135.043.28.07.422.054.28.428.83.598 1.265.165.424.183 1.18.35 1.617.16.413.478.8.65 1.177.07.15.116.3.194.44.06.107.826.766 1.002.86.294.16.577.274.883.38.277.097 1.27.288 1.46.28.402-.013.803-.128 1.182-.126.163 0 .32.023.496.022.26-.002.97-.132 1.252-.273.383-.192 1.02-.938 1.177-1.177.25-.38.882-2.112 1.23-2.706.112-.192.735-.9.896-1.02.175-.13.362-.238.562-.368.234-.152 1.23-1.042 1.318-1.177.096-.148.158-.293.21-.457.07-.208.178-1.11.16-1.3-.028-.27-.248-.94-.37-1.406-.165-.63-.197-1.473-.334-2.25-.03-.167-1.912-4.323-2.022-4.463-.187-.24-.378-.457-.565-.703-.01-.01-1.17-1.68-1.245-2.138-.05-.295.355-.343.64-.36.18-.01.336.005.498 0 .173-.003 1.615-.418 2.483-.684.228-.07 1.463-.22 1.588-.193.18.04.34.113.52.158.318.08 1.64-.033 2.297.054.5.066 1.053.32 1.64.457.847.197 2.352.384 2.587.502.248.124.352.216.646.255.098.013.19.013.28.035.308.073.81.48 1.032.51.13.017.25-.022.364 0 .2.04.376.268.61.37.203.088.69.05 1.018.087.45.05.797.322 1.248.632.546.375 2.54 1.938 2.6 2.04.095.155.15.314.265.474.072.1.804.608.914.633.42.094.617-.01.755.438.12.395.05.61.24.918.172.28.524.5.71.804.267.44.143.732.72.773.036.003.067.003.105 0 .123-.016.787-.315.792-.363z"/>
    <path d="M50.922 30.128l-1.203-.425c-.108-.038-.127-.053-.188-.15-.508-.797-1.234-1.702-1.303-2.358-.014-.118-.012-.25 0-.385.077-1.014.217-1.07-.054-1.7-.143-.333-.87-1.596-1.054-1.83-.45-.57-1.202-1.1-2.144-1.09-.517.007-.826.136-1.213.44-.342.27-.582.58-.562 1.044.012.277.133.646.07.743-.02.03-.417.278-.11.35.06.015.134.004.187.014.052.01.083.04.116.082.085.11.36.846.37.995.006.107-.006.196 0 .29.005.126.04.263.087.402.156.466 1.273 2.36 1.547 3.057.174.445.38 1.035.492 1.195.21.3.44.49.51.8.09.413.026 1.113-.088 1.52-.032.115-.07.224-.088.338-.034.23.07 1.048-.14 1.155-.067.033-.178.006-.264.044-.123.053-.248.404-.387.57-.076.09-.17.133-.246.21-.078.08-.224.446-.282.704-.19.85-.126 1.01-.523 1.264-.23.147-.69.423-.69.423s.322-.728.527-1.247c.265-.67.525-1.578.387-2.225-.063-.29-.16-.458-.177-.73-.016-.274.064-.584.035-.824-.026-.216-.14-.375-.21-.596-.097-.302-.078-1.447-.16-1.97-.09-.593-.848-1.115-1.4-1.264-.147-.04-2.132-.012-2.52.035-.32.038-.88.183-1.018.263-.142.082-.275.192-.422.246-.148.053-.31.05-.422.14-.103.083-.163.244-.246.35-.02.028-.042.05-.07.07-.29.213-.537.11-.492.352.017.096.09.204.105.333.03.252-.165.594-.14.845.01.107.06.197.087.316.035.152.03.348.07.492.037.133.112.22.158.328.042.098.042.642 0 .856-.04.2-.355.94-.44 1.03-.23.248-.358.282-.474.546-.145.333-.234.795-.105 1.028.04.076.103.143.122.22.028.12-.046.263-.018.363.023.08.116.133.193.233.072.093.13.227.182.347.044.105.06.12.173.138.592.103 1.572.26 1.77.34.665.273 1.63.836 1.78.827.18-.01.348-.096.447-.035.078.048.114.188.214.278.207.186.65.202.934.09.242-.093.595-.287.595-.287s.096.428.073.637c-.007.067-.027.112-.053.162-.262.515-.573.985-.316 1.475.14.266.89.942.967.984.626.34 1.637.165 1.88.737.083.196.11.622.123.844.02.38-.076 2-.14 2.374-.167.96-.377 2.604-.352 2.745.01.064.026.128.053.19.033.075.084.148.123.228.112.225.115.825.212 1.23.11.466.476.942.844 1.195.198.136.454.26.677.328.14.043.264.063.378.13.296.174.524.673.616.967.065.206.297 2.327.334 3.05.01.185.02.352 0 .536-.016.15-.328.908-.404.983-.105.103-.226.162-.35.246-.127.084-1.63 1.872-1.864 2.214-.34.502-.552 1.006-.65 1.616-.028.175.12 2.013.176 2.18.074.22.37.945.51 1.125.395.51 1.916 1.218 2.397 1.346.23.06.46.103.703.146.546.098 2.1.503 2.32.604.35.16 1.176.7 1.434 1.137.43.727.22 1.45.264 2.222.007.12.49 1.2.564 1.26.105.083.65.288.842.315.614.086.908.084 1.303.473.25.247.464.573.714.824.13.132.74.512.934.584.47.173 1.914.475 2.41.37.252-.054.546-.204.813-.32.104-.045.122-.06.18-.16.45-.766 1.225-2.11 1.378-2.282.242-.272.95-.87 1.405-.983.22-.055.46-.045.633-.14.115-.064.2-.174.316-.247.14-.09.328-.122.52-.165.19-.042 2.447-1.1 2.572-1.205.203-.17.417-.372.598-.457.13-.06.274-.092.387-.176.148-.11.243-.31.387-.422.115-.09.262-.12.387-.193.123-.07.378-.39.563-.615.094-.114 1.43-1.014 1.617-1.09.983-.396 2.654-.98 2.917-1.16.205-.14.386-.304.598-.44.297-.19.655-.327.984-.51.447-.246 1.45-1.16 2.25-1.686.255-.17 1.254-.646 1.546-.738.107-.034.213-.064.316-.105.574-.23 1.427-1.068 1.705-1.564.387-.694.563-1.996.35-2.743-.046-.167-.688-1.282-.88-1.532-.375-.486-1.027-1.294-1.422-1.526-.324-.192-1.544-.474-1.88-.67-.55-.318-1.285-1.01-1.494-1.07-.183-.056-.367-.04-.51-.12-.062-.033-.415-.83-.44-.988-.16-1.065.023-1.737-.42-2.6-.356-.692-.808-1.004-1.413-1.49-.334-.267-.492-.37-.45-.67.044-.33.215-.69.3-1.03.05-.19.072-.377.068-.572-.016-.764-.077-.992.3-1.476.076-.1 1.38-.933 1.51-.967.476-.122.798-.06 1.3-.422.236-.17.42-.402.633-.562.212-.16.454-.247.703-.387.122-.068 1.76-1.834 1.81-1.95.143-.326.292-1.143.265-1.595-.01-.178-.217-.847-.3-.97-.047-.073-.1-.133-.14-.212-.043-.084-.073-.19-.105-.28-.043-.123-.092-.222-.176-.352-.21-.326-.637-.844-.637-.844s.07.254.057.366c-.025.236-.938.432-1.02.46-.317.11-2.44 1.553-3.654 2.232-.153.085-4.132 1.172-4.376 1.195-1.623.152-2.434.156-3.85-.3-.327-.104-.648-.2-.948-.35-.325-.163-1.463-1.193-2.285-1.775-.225-.16-1.042-.57-1.23-.615-.117-.03-.23-.046-.35-.07-.14-.028-2.93-1.554-3.023-1.652-.273-.292-.464-.6-.773-.844-.164-.13-.362-.24-.527-.388-.09-.08-.17-.17-.255-.253-.164-.16-.35-.302-.534-.45-.227-.182-1.08-1.098-1.177-1.264-.124-.214-.293-.488-.382-.54-.063-.037-.134-.05-.208-.083-.212-.09-.44-.323-.677-.433-.21-.097-.78-.194-.896-.193-.133 0-1.154.383-1.726.59-.107.04-.13.04-.238 0zm-7.504 8.127h.102s.013.09 0 .153c-.016.077-.07.115-.118.163-.064.065-.073.072-.09.072h-.038s.003-.023 0-.035c-.003-.01-.013-.01-.02-.015-.075-.033.063-.29.073-.302.008-.01.016-.018.026-.025.012-.01.02-.01.065-.01zm.207-.352h.105v.07h-.035v.14h-.105v-.14h.035v-.07z"/>
    <path d="M94.685 32.972c-.45-.547-1.297-1.557-1.326-1.66-.058-.205-.04-.414-.124-.615-.07-.17-.215-.338-.28-.527-.04-.115-.053-.24-.054-.36 0-.127.01-.25 0-.38-.01-.153-.26-.838-.37-1.018-.102-.168-.215-.318-.298-.492-.1-.212-.158-.46-.3-.633-.106-.132-.263-.22-.35-.35-.12-.178-.318-.99-.334-1.09-.026-.166-.03-.32-.07-.476-.072-.29-.258-.59-.35-.878-.055-.17-.078-.332-.142-.492-.12-.303-.39-.592-.562-.88-.065-.107-.116-.215-.158-.333-.188-.53-.344-1.518-.475-1.722-.12-.19-.224-.265-.3-.457-.05-.133-.078-.3-.102-.455-.017-.113-.016-.138.007-.25.265-1.262.73-3.414.765-3.794.148-1.675-.137-2.655-.738-4.57-.28-.892-.45-1.29-1.072-1.933-.1-.104-.33-.23-.407-.226-.176.012-.407.154-.61.205-.164.042-.158-.01-.326-.083-.144-.062-.292.073-.448.297-.075.106-.133.217-.213.282-.076.06-.17.084-.247.14-.26.194-.696 1.51-.72 1.706-.044.344.015.734-.078 1.023-.054.17-.16.315-.187.453-.032.16.04.313 0 .482-.045.187-.748.937-.808 1.147-.022.077-.017.148 0 .235.04.207.142.505.176.76.055.408-.217 1.553-.53 2.002-.042.06-.087.11-.135.17-.12.153-.446.824-.458.945-.023.233.045.327-.053.516-.074.143-.582.666-.768.704-.107.022-.373-.013-.446-.053-.23-.124-.24-.33-.41-.07-.042.064-.06.07-.173.07-1.09-.002-3.076.004-3.266-.04-.26-.062-.482-.155-.74-.187-.14-.017-1.42.217-1.632.3-.23.088-.447.187-.668.245-.163.043-.33.064-.492.105-.36.092-1.19.607-1.81.86-.803.33-2.622.514-3.315.493-.207-.006-3.57-.814-3.733-.896-.11-.055-.21-.11-.328-.158-.108-.042-1.88-.042-1.982 0-.193.08-.348.188-.556.246-.145.04-.316.056-.44.123-.08.045-.14.112-.21.177-.118.11-1.005.58-1.195.633-.233.065-.884.127-1.283.123-.435-.004-3.66-.35-3.92-.422-.588-.16-.704-.207-1.394-.14-.332.032-1.133.215-1.31.3-.258.12-.72.423-.862.58-.085.093-.302.61-.334.795-.104.606-.102 1.397.28 1.963.093.137.208.256.282.387.044.077.074.157.123.228.146.213.465.354.597.562.083.13.09.29.176.387.093.107.278.14.44.228.18.098.794.753.948.98.238.353.224.445.563.654.122.075.247.134.37.21.135.087.728.73.807.88.103.192.17.39.26.592.234.528.563 1 .917 1.27.387.296 2.567 1.125 3.31 1.23.196.03.838-.018.96-.07.124-.05.23-.123.353-.175.664-.277 2.553.025 3.09.077.113.01.135.02.216.1.728.713 1.502 1.43 2.23 1.95.27.194 1.578.9 1.827.985 1.116.386 2.025.41 3.304.035.074-.022.142-.043.21-.07.12-.047 1.267-1.054 1.425-1.248.87-1.073 1.377-2.058 2.337-2.584.233-.128 1.262-.47 1.967-.703 1.207-.397 2.435-1 3.585-1.406.314-.11.624-.208.95-.264.282-.048.576-.065.862-.118.36-.067.71-.19 1.07-.234.662-.077 1.28-.027 1.758.335.25.19.487.432.738.598.197.13.403.214.598.35.136.097.5.53.545.65.18.475-.063 1.418-.51 1.74-.117.086-.256.136-.37.23-.17.14-.37.612-.56.913-.06.092-.125.175-.21.247-.16.137-.29.194-.3.333-.01.116.08.244.104.462.018.163 0 .376 0 .376s.767.59 1.37.902c.62.32 1.195.44 1.46.633.172.124.33.3.51.438.21.163.455.278.703.422.166.096 1.39 1.23 1.46 1.353.08.14.142.287.245.387.067.064.15.11.21.176.14.152.156.416.28.56.136.156.885.308 1.215.283.57-.044 2.81-.858 2.952-.968.366-.28.483-.57.598-.995.06-.218.14-1.28.105-1.367-.043-.103-.11-.19-.105-.29.004-.08.055-.167.07-.26.033-.195-.048-.348-.21-.443-.287-.167-.37-.132-.51-.387-.103-.185-.146-.403-.247-.598-.105-.202-.95-.868-1.424-1.39-.068-.072-.543-.764-.833-.88-.073-.03-.09-.042-.162-.13zm2.822 3.982h.246l-.1 1.337c-.01.115-.015.132-.06.178-.034.034-.06.075-.082.117-.095.175-.146.36-.25.497-.1.132-.615.496-.736.403-.115-.088.12-.215.282-.336.337-.252.507-.602.58-.966.082-.425.12-1.23.12-1.23z"/>
    <path d="M80.976 39.362l-.463 1.95-.146.244c-.06.098-.072.12-.136.213-.277.41-.744 1.122-.86 1.212-.04.032-.082.06-.124.09-.41.31-.908 1.113-1.037 1.584-.162.585-.13 1 .02 1.472.172.555.44 1.15.843 1.494.085.072.173.13.243.21.073.08.257.61.354 1.003.052.21.867 1.943.967 2.056.375.427.976.473 1.617.212.523-.213 1.04-.58 1.51-.738.095-.032.187-.055.282-.088.264-.09 1.294-.7 1.672-1.02.855-.724 1.444-1.813 1.667-2.724.246-1 .426-2.325.387-3.264-.012-.28-.597-3.266-.703-3.59-.195-.592-.41-1.12-.67-1.722-.1-.235-.348-.622-.43-.67-.106-.066-.215-.08-.314-.215-.04-.056-.06-.063-.173-.067-1.126-.04-1.94-.017-2.95.46-.465.22-.976.62-1.19 1.085-.078.172-.128.368-.22.538-.02.04-.042.076-.073.107-.04.04-.048.058-.074.17zm.258 11.58s-.023-.003-.035 0c-.02.007-.012.036-.02.053-.023.062-.136-.017-.157-.035-.07-.06-.133-.12-.14-.22-.005-.05 0-.113 0-.113s.068-.007.116 0c.074.01.228.168.233.28.002.018 0 .036 0 .036z"/>
</svg>
