<svg xmlns="http://www.w3.org/2000/svg" viewBox="0 0 200 188">
  <path d="M32.7 93.9c-.3.1-20.1 15-29.6 22 0 .2-.1.3-.1.3h18.4s.2-3.1.3-4.6c.5.5 1.3 3.3 1.7 4.6h2.9c1.5-12.3 1.8-12.9 2.1-13.5.2 9.4.5 13.5.5 13.5h1.3s.6-1.3 2.2-6.4c.4 1.2.5 4.6.6 6.4h.3v-8.8l-.6-.1V93.9z"/>
  <path d="M175.4 116.1h7.8c.9-2.7 2.1-6 2.1-8.6-2.3-1.6-12.4-9-12.4-9s1.6 12 2.5 17.6z"/>
  <path d="M186.7 108.7l-.1 7.4H197s-9.6-7.1-10.3-7.4z"/>
  <path d="M154.5 11.8c-.1-.1-.1-.2-.2-.3-.2.2-.3.4-.5.6 0 0 .1.1.1.2.1 0 .2-.1.4-.1.1-.1.1-.3.2-.4z"/>
  <path d="M154.9 9.4c0 .1-.1.2-.1.3.1 0 .1 0 .1-.3z"/>
  <path d="M154.2 9.2v-.7c-.1 0-.2-.1-.3-.1v1.2c0-.2.1-.3.3-.4z"/>
  <path d="M156 8c-.3-.1-.3-.1-.9 0 0 .3-.1.6-.1.9.3-.3.6-.6 1-.9z"/>
  <path d="M156.5 7.3c-.2-1.2-.2-1.5-.9-1.5l.6 1.5h.3z"/>
  <path d="M154.9 6.9v-.5h-.6c0 .1.1.3.1.5h.5z"/>
  <polygon points="157.7,6.9 157.7,6.9 157.7,6.9"/>
  <path d="M158 6.3c-.3-.2-.5-.3-.8-.5 0 .4-.1.5.5 1.1l.3-.6z"/>
  <path d="M147.8 17.1h-.3c0 .1.1.3.2.5 0-.2 0-.3.1-.5z"/>
  <rect x="58.5" y="57" width="1.1" height=".4"/>
  <polygon points="171.8,101.9 172,98.2 171.2,97.6"/>
  <path d="M169.5 97.7c-1.5 0-2.7-.2-3.9.1 0-.9-.2-2.3 0-2.9.1-.4.8.2.9-.7h-.8l-.1-1L148.4 81v.9h-.6v-1.4l-11.4-8.2L148 37.5h-1.3v-.7h1.5l7.5-22.6c0-.3 0-.6.1-.9-.9-.6-2.9-.4-3.6-.4v-2.2c1.2 0 2.3 0 3.6.1v.5c.8.1.9-.4 1.1-1.1-.2 0-.5-.1-.7-.1v-.4l-.3.1s.1.1.1.2c-1.3 0-2.6 0-3.9.1V7.3c-.4.1-.4.1-3.5 2.4 1.2.2 1.2.2 1.4.4-.1 0-.1.1-.2.2h-2.2C126.3 26 126.3 26 125.1 27.1c1.2 6-4.1 8.8-6.2 9.1v-4.4h2.1l-.3-1.8-9.7 7.5c-1.6-.6-4.4-1.1-5.8-1.1-1.1 0-2 .3-2.9.5-.6.2-1.2.3-1.5.3-.4 0-.5-.2-.8-.5-.3-.2-1-1-1.5-1-.8 0-1.2.8-1.7 1.4-.1.1-.1.2-.2.3-.3-.1-.7-.2-1.1-.1-.5 0-1.8.1-2.2 1.7-.9-1.5-2.4-3.3-3-3.9-.4-.3-.7-.8-1.1-1.3-.4-.6-.8-1.2-1.3-1.6-.7-.6-2.1-1.5-2.6-1.8v-.1c-.1-.5-.4-1.5-1.4-1.9-.4-.1-1-.4-1.9-1.4-.5-.6-6.1-3.6-6.8-2.8s2.4 4.9 3.1 5.3l-3.4-1.7c0 1.2-.4 3.3-.4 4.5l1.2.3c0 1.7.1 3.4.2 5.2h1.3v3.4c-1.9 0-1.9 0-3.2-.2-.1-4.5.5-10-.2-14.1-11.7-8.4-23.1-16.7-34.4-25.1l14.9 45.4s1.2-1.2 1.6 2c-1.1.2-2.2.4-3.2.5-3.7.6-7 3.7-6 5.3.3.4 2.1-.3 6.1-.7 1.2-.1 2.3-.1 3.3 0 .3 1 1.2 3.1 1.7 3.1.3 0-.1-2-.1-3 .5.1.9.1 1.3.1h.2c1 1.2 1 3.2.6 3.6-.7.6-1.8.4-1.8.4l4.5 13.7-3.8 2.7c0 1.4.1 3.4.2 4.9-.8.9-2.2 1.7-2.4 3h-.8c-.1-1.7.3-3.6.2-5.3-.2 0-18.4 13.3-18.4 13.3v25.4h16.9c-2.3 2.3-4.7 5.1-5.5 8.8-.7 3.5-.9 7.2 0 7.4s2.1-1 2.2-1.7c.2-.8.4-2 1-2.7.6-.7 1.1-1.6 1.5-2.4.5-.9 1.1-1.9 1.8-2.9 1.4-1.7 4-4.1 7.2-5.8.5-.3 1-.5 1.6-.7h9.7c.6.6 1.2 1.2 2.2 1.2.3 0 .5 0 .7-.1C79 124 90.3 159 92.9 167.4h.3c0-.7.3-1 .3-1.6.6 0 1 .1 1.6.1-.5 1-1.4 1-1.6 2.4 1.7-.1 1.4-1.1 2.4-1.6v2.9c-1-.4-1-.4-1.9-.6 0 .6-.1 1.1.2 2.1 1.4.4 1.4.4 1.7.7.1 1.7.2 3.4.4 5.1h.3c.2-2.2.2-2.2.5-3 .2.3.2.3.3 3.2-.3.1-.6.2-.8.3.3 2.6 1.7 5.8 2.7 8.9 3-9.1 5.8-18 8.8-27.1v-.5c-.1 0-.2-.1-.3-.1v-.6h.8c0-.3.1-.6.1-.8h-1.5v-.4c.5-.1 1.1-.3 1.6-.4l7.6-23c.1.3.2.6.2.9.9 3.4 1.1 7.2.6 10.1-.3 1.7-1.2 2.9-2 4-.6.8-1.1 1.5-1.2 2.2-.1.7-.7 1.4-1.3 2.1-.3.4-.7.8-1 1.3-.7 1.1-1.1 3.1-.6 3.7.4.5 2.8-.9 4.3-2.9.9-1.1 1.9-2.4 2.7-3.1 1.5-1.3 2.3-3.3 2.8-4.8.2-.4.3-.8.4-1.1.6-1.3 2.3-7.2 2.4-10.3 0-1.4-.4-3-.7-4.4-.2-.8-.5-1.8-.5-2.4 1.3.2 4 .6 7.9-.7 1.9-.6 4.3-2 4.9-3.1.2-.4.8-1.8.7-2-.4-.6-2.2.2-4 .6-1.4.3-3.2.2-5.4.2-2.3 0-4.1-1.3-5.2-2.1-.2-.1-.4-.3-.5-.4-.1-.1-.2-.1-.2-.2l1.7-5.1h5.3c.1.2.2.7.3 1 .3 1.1.6 2.7 1.9 2.7 1.3 0 1.5-.8 1.8-1.3.5-.6.6-1.6.6-2.5h8.1c.3-1.8 2.5-17.6 3.3-23.3.1.3.1.3 0 7.6-.1-.5-.1-.5-.4-.8-.1 1.4 0 16.4 0 16.4h.3s.4-12.7.5-12.9c1.1 3.3 3.4 8.9 3.4 12.9h17.8l.2-17.4s3.2 0 4.6-.1c.1-.9-.1-1.3-.3-1.6l-.3 1.1zm-20.8-71.8l-1.6.1v-9.4l2.3-.3c-.1 2-.1 8.4-.7 9.6zm-1.6-13c.3.1.3.1.5.4v-1.2c.6.2.6.2 1.9 1.1 0 .1.5 3.1-.5 2.7-.1.1-.3.2-.4.4-.3-.3-1.1-.4-1.5-.6V15c.3-.1.6-.2.9-.2 0-.2-.1-.3-.1-.5h-.9c-.1-.8-.1-.8.1-1.4zm-20 44.5c1.1-.9 3.8-2.7 5.5-4.7 2.2-2.7 3.5-6.6 4.2-6.6.8 0 1.4.8.5 2.9-.8 1.9-3.4 6.7-6.1 8.8-1.9 1.4-4.9 4.8-7.6 5.5-2.7.7-3.4 2.1-4.1 2.1-.7 0-1.9-1.1-1.1-3.8.2-.8 2.4-1.5 4.1-2.2 1.6-.7 3.4-1.2 4.6-2zm-4.3-8.4c.8.2.2 1.1-.6 2.3-.7 1.1-2.1 2.6-3 3.6-1.5 1.5-3.9 2.1-3.8 2.5.1.4 1.4 2.2 1.6 3.6.3 1.4.5 4.1 1.1 5.3.6 1.2 1.1 3 .8 4.3-.3 1.3-.7 8-1.8 7.8-1.1-.3-.4-3.9-1-6.5s-1.8-4.4-2.8-7.1c-.9-2.7-1.1-3.1-2.2-4-1-.9-4-.8-5.3-1.5-1.3-.7-1.8-1.1-1.8-1.8s.7-1.8 1.9-2.2c1.2-.4 2.1-1.3 2.3-1.8.2-.5.9-1.4 1.5-1.4s2.1.5 3.3.3c1.1-.2 2.6-.8 3.4-.7.8 0 2.5-.6 3.1-.8.8-.2 2.8-2.1 3.3-1.9zm-17.3 29.9c-1.3 1-2.3 1.7-3.2 3.2-.9 1.4-1.1 2.7-2.1 3.4-1 .8-1.7.7-1.7 1.1s.8.6.4 1.5-.7 1.8-1.1 1.8-1.3-.5-1.5-1c-.1-.5.3-1.4-.3-1.5s-2-.2-2.8-.4c-.9-.2-2.1 1.5-4 1.5s-2.8-3.1-4.5-4.5c-1.7-1.4-5 .5-6.2-1.2-1.2-1.8 1.5-4.2 3.5-5 2-.8 5.1-2.7 6.2-3.6 1.1-.9 1.5-2.1 2.4-2.4.9-.3 1.8 0 2.1-.3s-.3-.7-.2-1.3c.4-1.1 1.8-2.3 2.5-2.3.9 0 1.9 1.6 1.9 2.4 0 .7-.4.9-.2 1.3.1.2 2.3 0 2.7-.2.3-.2 1.1-.5 2.7.3s2.2 1 3 .8c.8-.2 1.2-.8 2.2-.4 1 .3 0 1.4.5 1.7.5.4 1.5.1 1.6 1.3.1 1.2 0 2.3-1 2.5-2.2.5-1.7-1.3-1.9-.9-.2.5.3 1.2-1 2.2zm-8.3 19.6c.3.3.6.1 1.8-.3 1.1-.4 2.3-1 3-.2.7.8.4 1.8 1 2.5s1.4 2.4.4 3c-1.6 1-2.3-.9-4-1.2-2.6-.4-4.5.1-6.1.1-1.6 0-4.6 2.1-5.6 2.6s-1.3-1.4-1.3-2.3.2-1.6 2.1-2.8 3.2-2.7 4.1-3.3c.8-.6.9-2.6 1.8-2.8.7-.1 1.3.5 2.5 1.5s1.6 1 1.8 1.5c.2 1.1-1.8 1.4-1.5 1.7zM68 86.6c1.3 0 1.6 2.8 3.7 6s3.1 4.8 4.5 5.8c1.3 1 1.2 1.8 2.8 2.5 1.6.7 1.6 1.5 1.4 2.2s.3 2.5-.8 2.7c-1.1.2-3.2-1.8-4.7-3.4-1.5-1.6-3.2-3.2-4.2-5.5s-.6-3.1-1.5-4.6c-1-1.6-1.5-5.7-1.2-5.7zm-1-24.3c-.4-.5-.2-1.5.1-1.9.3-.4 1.9-.8 2.6-.6.4.2.9 2.2.7 2.7-.2.5-.6.6-1 .7-.3 0-1.9-.5-2.4-.9zm14.3 43.6c0-.8-.1-3-.1-4.8.1-1.9 2.5-13.8 4.5-12.5.8.5-.5 6.4-.3 7.8.1 1.3.1 4.5.1 5.8.1 2.5.6 2.7.6 3.5 0 .8-.1 1.8-.5 2.4s-.9 2.7-1.9 2.8c-1 .1-2.1-.5-2.7-.6-.6-.1-1-.7-1-1.7s1.2-1.9 1.3-2.7zM90.9 64c-1.1-.4-1.8-1.2-1.7-2.1.2-.9.8-1.8 1.3-3.2.7-2 .6-4 2.8-3.8 1.5.1 2.7 2.3 2.6 4.2-.1 1.9-.5 3.2-1.6 4-1 .7-2.3 1.4-3.4.9zm11.5 7.3c0-.7 1-1.4 1.7-1.6.7-.2 1.1-.8 1.9-.8.8 0 1.4 1.5 1.4 1.9s-.7 1.3-1.4 1.3-3.6.2-3.6-.8zm5.9-4.7c-1.2-.4-3.1-.7-3.1-.4-.1.3.7 1.4.6 1.8-.1.4-1.1 1-1.7 1.5s-2 1.1-2.9.9c-.9-.2-1.1-2.5-1.9-3.6-.8-1-3.4-2.3-3.6-3.1s.7-3.5 1.4-3.5 3.5 1.1 5 1.1 2.8-.1 4 .4 3.6-.3 4.8.2c1 .4 2.5 3.3 1.8 4.5-.9 1-3.2.5-4.4.2zm10.1-29.5h.6l-.1.9h-.5v-.9zm-3.3-1.8l.3.1.1 1.3.3.1V38h-.8l.1-2.7zm-16.2 2c.4 0 .7.9 1.9 1 1.1.1 2.7-.8 4.5-.8 1.8 0 5.3.8 6.1 1.4s2.3 2.4 3.8 3.5 2 1.6 2 3c0 .6-1.2.4-1.7.2s-2.5-2.4-3.5-2.7c-1-.3-2.8-.4-4.2.5s-1.6 1.2-1.5 2.9 2.6 3.5 2.6 4.4-.1 1.6-.4 2.2c-.3.6-1.3 2.2-2.4 2.4-1.1.2-2.6.9-3.4.1s-.8-2.7-1.2-3.3c-.4-.6-2.2-2.8-2.5-5.2-.3-2.4-.4-3.1-.6-4.7-.2-1.6-.9-1.4-1.2-2.7-.3-1.4.7-2.2 1.7-2.2zm-22-11.6c.6-.4 3.4 1.5 4 2.2.6.7 1.6 1.4 2.5 1.6.8.3.7 1.5 1 1.7s2 1.2 2.8 1.9c.8.6 1.5 2.1 2.3 2.9.8.8 2.9 3.4 3.3 4.6.3 1.1 1.1 2 .9 2.8-.2.8-.1 1.9-1 1.9s-1.7.3-2-.3c-.4-.6-1.9-4.1-2.3-4.7s-1.9-2.8-2.7-3.5-2.3-3.4-3-4.3c-.7-.9-2.6-2.9-3.8-4.3-.7-.7-2.2-2.4-2-2.5zm7.4 19.8c-.1 0-.2-.1-.2-.1 0-.1.2-8 .2-8.3h.9l-.2 8.1c-.4.1-.6.2-.7.3zm-6.6-7.6c2.5-1.2 3-2.8 3.2-5.6.2.2.3.4.5.6.2.2.3.4.4.6.2.2.5.8.4.7-.1 2.3 0 5.4-.1 7.8-1.4-.3-1.5-.4-4.5-.6 0-1.3 0-2.4.1-3.5zm4.4 4.4v3c-.7-1.6-1.8-2.7-3.7-3.1l3.7.1zm.3 5.1c1.7.1 9.1-.5 10.1-.9s1.7-1.5 1.8-3.3-.4-2.6-.2-3.5c.2-1 .8-1.1 1.4-1.2 2-.1 1.4 1.8 2.2 2.7.7.7.4 4 1 6.1.6 2.1 1.8 3.5 2.2 4.8.4 1.3.5 2.8 1.1 3.5s.3 2.5-.8 2.5-3.2-.2-3.8-1.8c-.5-1.3.5-2.5-1.5-3.7-1.9-1.2-2.3.7-3.5 1-1.2.3-2.2.3-3.1.9-.9.6-.5 1.5-1.4 1.7-.9.2-13-3.6-13-6.2s5.7-2.7 7.5-2.6zm-11.4.1c1.9 0 2.4 2.2 3.7 3.5 1.3 1.3 7.8 5.9 10.4 5.9s2.6-.5 3.2-.6c.7-.1 1.2-.2 1.4.7.2.9.2 1.9-.2 2.5-.4.7-1.7.9-1.7 1.5-.1.6-.1 1.9 1 3.2 1.1 1.3 3.5 2.3 3.5 4.4s-1.8 3.2-3.8 4.4-6.3 4.6-7.8 5.5-1.9 1.5-2.9 1.3c-1.1-.2-1.2-2.7-2.8-4.5s-2.3-.5-3.1-1.3c-.8-.9-1.2-2.2-.5-3.6s2.5-1.4 2.5-2.5-2.5-2.3-2.6-3.6c-.2-1.3 0-6.3-.2-8.5-.5-4.2-2.5-4.7-2.5-5.9-.3-1.4 1.1-2.4 2.4-2.4zM69.5 53c.2.5 1 4.4-.3 4.4s-4.5-1.9-4.5-2.9c0-1.2 1.3-2.9 2.4-2.9.8-.1 2.2.9 2.4 1.4zM55.2 22.6v.6H54v-.6h1.2zm0-1.2h-.9V21h.9v.4zm-.9-5.3h.5v.2h-.5v-.2zm-.3 2h.9v.4H54v-.4zm0 8.2v-.7h1.7v.7H54zm1.5 15.2c-.2-.3.3-.7.7-.7.4.1 1 .4 1 .7 0 0-1.6.3-1.7 0zM59 53.6c-1.9-.2-5.3-.2-7.8-.1-1.9.1-2.7.7-3 .5-.7-.5 1.9-2.7 4.6-3.3 2.6-.6 6.8-1.4 9.6-.3.6.2 1.1.5 1.5.8-.4-.4-.8-.9-.8-.9-.9-1.5-.6-2.6-.7-3.7 0-1.2.6-4.4 1.6-4.4.7 0 .4 3 .6 3.9.6 2.2 1.6 2.7 1.7 3.7.2 1 0 1.6-.4 1.9-.4.2-.8.2-1.4 0-.1 0-.2-.1-.3-.1l.4.4c.3.7.2 1.5-.3 2.1-.9 1.1-2.3-.3-5.3-.5zm3.7 51.7c.4.8.6 2.5 0 2.4-.6 0-.7-1.8 0-2.4zM76 116.4c-1.3 0-1.9-2.3-4.1-2.5-2.2-.2-6.7.4-9.9 2.1-3.2 1.7-6 4.1-7.5 6.1-1.6 1.9-2.2 3.8-3.4 5.3s-1.1 4.1-1.5 4c-.4-.1-1.1-1.2 0-6.2s5.4-8.3 7.8-10.9c2.4-2.6 4.6-4.6 6-5.4 1.4-.9 2.3-1.3 2.5-2 .2-.7-1-3.4-1-6.2 0-1.6.6-1.7.8-1.7 1 0 .8.8 1.7 2.4.8 1.5 1.4 4.4 3.1 5.5s4 2 4.9 2c1.7 0 2.2-2.1 3.4-2.1.8 0 .8 2.1.8 3.6 0 .9-.7 1.2-1.1 2-.4.9-.2 2.3-.6 2.7-.3.2-.6 1.3-1.9 1.3zm9.6 18.2c-1.2 0 .5-4.3-.3-10-.3-2.1.1-4-2.4-4.8-1.7-.5-3.4-.4-4.4-2.9-.6-1.5-.1-5.3 1-5.2 1.1.1 3.7.3 4.5-.3.9-.5 1.6-4.9 3.9-4.9s1.4 1.1 3.3 1.1c3.8 0 3.4-1.8 4.7-1.8 1 0 1.5 1 1.6 2.1.4 4.7-1.1 6.2-.8 7.3s-.5 2.5.8 3.8c1.3 1.2 2.4 1.1 2.4 2.4-.1 1.3-2.3 3.1-5.6 3.2s-5.2-.1-5.5.4c-.1.4-2 9.6-3.2 9.6zm16.2 30.4c-.1.9-.7 1.6-1.2 2.3-.5-2.5 1-3.9 3.3-4.2 0 .5.1 1 .2 1.5-1 .3-1 .3-2.3.4zm2.4-6.1l-1.8.3c.3.2 1.5.9 1.5 2-1.2.1-2.3-1.6-2.6-1.9-.7 0-1.5-.1-2.2-.1 0 5.2-.1 9.7-.1 14.9h-.3l-.1-8.6c-1-.1-.9.8-.9 1.3s.1 2.5-.2 2.5c-.3 0-.1-2.2-.1-2.7s.4-1.2.4-1.2c.1-.3.1-.3.8-.7 0-2-.5-4.1-.9-5.6 0 1.4-.1 3.2 0 4.6-.1 0-.1.2-.3.3-.1-1.4-.3-3.3-.3-4.7-.1 0-.2.2-.3.2-.3.7-2.4 1.9-3 2.1.6.3 2.1.5 2.5-.1v2.5l-3-.4.3-4.6h-1v-.8h.9v-.4h-.9v-.6h1.1c.2-1.9.1-3 1.1-4.2v-.8c-2.1-1.1-1.3-6.2-1.3-8.1 0-.2 0-.5.1-.7 0-.6 0-.8.1-1.4h.7v-1.6h-.8v-1.8c.1 0 .2-.1.3-.1.1-.8.2-1.9.3-2.6 0-.1.1-.1.2-.2.4.8.9 1.6 1.4 2.4.1-.9.1-.9 0-4.7.1-.1.2-.1.3-.1 0 1.8.1 3.6.1 5.4h-.3c.3 5.5.2 11.6.1 17.5.1.4.2 1.8.4 2 .2.2.7-.1.9-.1.1.2 0 .7.4.9.4.1.1-2.6.2-2.6l.3.3c.1 0 .5-.1.7-.1 0-1.2-.8-10.8.1-12.6 0 2 .1 4.1.2 6.2h.3v-.3h.3c0 2.4.2 5-.5 7.6.4.1 1.6 0 2.6 0-.1.4-.5.1-.5 1 1 0 1.9.1 2.9.2 0-.2-.1 0-.1.2zm-6.5-4.2v-2.6h.4v2.6h-.4zm2-9.3c0-.8.9-2.5 1-2.2.2.5-.4 5.2-.7 5.2-.2 0-.3-2.2-.3-3zm2.2 8.6c.4 0 .4.5.6.6.2 0 1.3-.2 1.4.1.2.3-1.7.9-2 .8-.4-.2-.4-1.5 0-1.5zm-.3-3.4c-.3 0-.5-1.6-.1-1.8.2-.1.2.3.2.5s.2 1.3-.1 1.3zm1.5-3.7c0-.4.3-1.4.9-1.1.4.1.3 2.2 0 2.3-.3 0-.9-.9-.9-1.2zm.3-5.6h-.9c-.5 0-1.1-.1-1.6-.1 0-.7.1-1.4.1-2 1.2 0 2.7 0 2.4 2.1zm.8-9.2c-.4.3-.8.8-1.1 1.4-.1.2-.3.9-.8 1.3-.9.7-2.7.9-3.1.4-.4-.4.7-1.6.9-2.5.1-.7 1-1.4 2-2.3.8-.8.5-1.5.8-2.3-2 .9-1.4 1.2-3.1 1.1s-3.5-.4-4.8-.8c-1.3-.4-3.3-1.2-3-2s3.1-.4 4.6-.6 2.3-.8 2.7-1.1c.4-.4 1.8-1.6 2.4-1.7.6-.1 2.5.1 2.8.2.3.1 1.1.7 1 1.2 0 .5-.4 1.3-1.2 2.3.6-.2 1.7-.3 2.1.3.4.7.7.8.2 2-.5 1.2-1 2.3-2.4 3.1zm5.6 10.8c-1.8-1.2-2.1-1.3-3.7-1.6.1-1.7.6-2.8 1.2-4 .3 1.4.3 1.4.8 2.2.6-.1.8-.2 1.9-.1 0 1.1.1 2.3.1 3.5h-.3zm.2-7.2c-.4.1-1 .4-1.2 0-.2-.4.8-1 1.3-1.1.5 0 .3 1-.1 1.1zm16.5-10.9c4.6 0 8-1.7 8.3-.7.2.5-2.5 2.4-4.8 3.1-4.9 1.6-7.9.4-8.2.6-1.1.8 1 5 1 7.8-.1 2.8-1.7 8.7-2.3 9.9-.6 1.2-1.2 3.9-3 5.5s-4.3 5.5-5 5.5c-.7 0-.7-.9 0-2s2.1-2.3 2.4-3.7 2.6-3.1 3.2-6.2c.6-3.1.3-7.2-.6-10.5-.9-3.3-1.8-6.4-2.7-8.1-.7-1.4-1.8-2.2-1.8-3.2 0-.6 1.9-2.3 3.7-2.3 2.2 0 2.2.8 3.3 1.6s3.5 2.7 6.5 2.7zm-4-14.7c-.7 1.2-2.9.7-3.1 1.4-.3.7-.5 3.1-.3 3.9s1.4 1.7 1.4 2.6c0 1-.4 1.9-2.8 2.2-2.4.3-3.4-.1-4.1.8s-1 .8-1.1 2.6c-.1 1.9.5 3.2-.6 3.5-1.2.3-2.6.9-3.7.9s-1.9-1.3-2-2.2c-.1-1 .2-2-.4-2.5-.7-.5-4.5-.2-4.6-1.7-.1-1.4 2.8-2.1 2.6-4.2-.3-2.1-1.4-1.7-1.7-1.5-.3.2-.2 3.2-1.5 3.2-1.4 0-3.3-1.3-3.1-4.2.1-2.1.6-1.9.8-4.6.2-3.5-.4-2.7-.1-4.2.3-1.5 1.5-1 2-.7.5.3 1 1.5 1.9 1.5 1 0 1.4-.6 1.5-1.2 0-.5-.4-1.6.6-2.1s5.5-.5 7.2-.3c1.7.1 8.6.6 10.2 1.8.9.9 1.3 4.2.9 5zm-.3-10.4c.7 0 1 .9 1.8 1.3s1.9 1.5 1.4 2.5-1.5 1.3-2.6 1c-1.1-.3-2.5-.7-3-1.4-.3-.6.9-3.3 2.4-3.4zm7.8 19.2c-1.1.1-1.2-2.8-1.8-3.4-.6-.6-.9-2.2-2.2-3-1.4-.8-3.1-4.1-3.1-5 0-1.4.8-2.6 3.2-2.6 1.9 0 3 3.4 3.4 5 .4 1.6 1.2 2.1 1.5 3.8.2 1.7.1 5.1-1 5.2zm10.5-17c-1.2.2-1.5-1-3-2.4s-3.7-1.4-5.2-2.3c-1.5-.9-2.9-.7-3.6-.9-.7-.2-.9-.8-1.5-.6-.6.2-.9 2-1.9 2.2-1.1.2-2 .3-2.5-.1-.4-.4-.8-1.6-.6-2.3.2-.6 2.5-2.7 1.1-3.8-.2 1.5-1.5 1.6-1.4 2.7 0 .7-.4 1.2.1 2.9s.3 1.4-1.1 2.4c-1.4 1-3.2 3.6-4.6 3.7-1.4.1-5.3-.3-7.4-.4-2.1-.1-3 .4-3.8 0-2.2-1.1-1-2.8-1.8-4.6-.6-1.4-2.1-1.8-3-1.9s-2 .2-2.6-.1c-1.1-.4-1.3-2.2-2.2-2.6-.9-.4-2.4-1.3-2.3-2.6.1-1.3 1.5-2.2 2.2-2 .6.1 1.3 1.3 2.2 1.1s1.8-2.9 2.5-3.8c.7-.9 2.2-2.2 3.1-4 .9-1.8 3.6-4 4.7-4.4 1.1-.4 3.2-1.2 4-.4.8.9-.7 2.1.3 3.2s2.5 1.7 4.4 1.7c.6 0 .8 2.5-.2 3.2s-.9 2 .4 2.5c1.2.5 2.7.5 4 1.2 1.3.7.4 0 .4-1 .1-1 1.1-3.5 3.6-2.7 2.5.8 1 3.1 1.6 3.9.6.8 1.5.4 1.8 0 .3-.4.7-2 1.8-1.6 1.5.6.1 2.7 1.2 3.3s1.7.8 2.5 1.4c1.2.9 2.6 2.4 4.6 4.5 2.4 2.6 2.6 4.5 2.2 4.6zm17.4-5.1h-.3v-6.7h.6l-.3 6.7z"/>
  <rect x="98.4" y="157.6" width=".4" height="1.6"/>
  <path d="M100.3 157.8c-.2.1-1 0-1.1.2-.1.4.1.5.6.5s.5.3.7.3c.2 0 .3-.5.3-.7.1-.3-.3-.4-.5-.3z"/>
  <path d="M94.8 144.9c-.3-.1-.7.5-.7.8 0 .4.8.5 1 .5.2 0 .1-1.1-.3-1.3z"/>
  <path d="M99.5 151.5c0-.1-.3-.2-.4-.1-.1.1.1 1.8.2 1.8s.2-1.6.2-1.7z"/>
</svg>
