<svg xmlns="http://www.w3.org/2000/svg" viewBox="0 0 200 174">
  <g id="sepultura__triangle">
    <polygon class="sepultura__background" fill="#FF8E1E" points="105.214,11.5 193.167,150.5 183.635,162.167 18.609,162.167 10.527,152.12 95.259,11.5"/>
    <path class="sepultura__border" d="M194.615 142.87l-79.8-131.67c-3.99-6.587-8.227-7.916-13.832-7.916s-9.84 1.33-13.832 7.915L7.35 142.87c-1.976 3.263-3.43 7.06-3.43 10.73 0 8.405 7.254 13.903 17.22 13.903h159.685c9.967 0 17.222-5.497 17.222-13.902 0-3.67-1.455-7.46-3.432-10.73zm-10.34 10.084c-.778 1.676-2.216 3.25-7.206 3.25H24.89c-4.99 0-6.428-1.574-7.207-3.25-.734-1.58-.41-4.64.945-6.876L95.49 20.515c1.644-2.71 3.11-3.45 5.488-3.45 2.375 0 3.843.74 5.485 3.45l76.86 125.563c1.355 2.235 1.68 5.298.945 6.876z"/>
  </g>
  <g class="sepultura__rays">
    <polygon points="125.356,54.221 113.845,72.072 115.424,73.651 130.315,62.457"/>
    <polygon points="106.525,22.945 101.556,68.666 104.623,68.666 112.842,33.437"/>
    <path d="M96.264 21.636l2.43 44.704V19.482c-.885.367-1.652 1.035-2.43 2.154z"/>
    <polygon points="92.549,27.75 85.977,38.664 93.74,63.93 95.966,66.755 95.966,66.34"/>
    <polygon points="88.838,74.178 76.873,53.784 75.435,56.173"/>
    <polygon points="83.393,92.51 84.934,90.46 59.985,81.832 53.224,93.06"/>
    <polygon points="80.863,102.371 48.198,101.407 45.466,105.945"/>
    <polygon points="80.447,113.003 80.447,111.484 36.462,120.898 27.409,135.933"/>
    <path d="M43.568 154.175l27.74-25.513.582-4.915-44.983 30.373c.438.034.905.055 1.418.055h15.243z"/>
    <polygon points="60.097,154.175 80.863,126.517 57.167,154.175"/>
    <polygon points="169.57,127.651 125.061,117.101 125.061,118.664 179.322,143.846"/>
    <polygon points="158.897,109.925 128.716,105.055 161.048,113.498"/>
    <polygon points="143.116,83.715 117.896,91.942 117.247,94.725 152.745,99.708"/>
    <polygon points="136.257,72.324 125.061,81.294 137.528,74.435"/>
    <polygon points="121.738,128.662 119.288,129.296 146.252,154.175 167.368,154.175"/>
    <polygon points="80.213,154.175 92.036,123.415 90.334,121.754 72.383,154.175"/>
    <polygon points="105.434,154.175 100.194,128.662 99.29,128.662 94.849,154.175"/>
    <polygon points="113.118,143.354 112.433,144.296 114.279,154.175 119.067,154.175"/>
    <polygon points="119.288,138.314 128.315,154.175 131.118,154.175"/>
    <polygon points="79.367,76.658 79.367,75.437 69.518,65.998 66.38,71.21"/>
  </g>
  <g class="sepultura__symbol">
    <path d="M106.21 90.244l.344-.046h.295l.24.035.19.065.15.095.1.11.05.13.02.128-.03.14-.06.13-.11.12-.14.11-.18.08-.21.06-.25.02-.28-.01-.27-.03-.25-.04-.25-.07-.23-.11-.08-.05-.06-.05-.04-.05-.01-.06v-.05l.03-.05.03-.05.07-.04.16-.13.19-.11.22-.1.25-.09.03-.03z"/>
    <path d="M94.147 70.43c1.275 1.29 1.477 2.174 1.477 2.174l1.004 2.26.22.658.065.273.1.233.126.206.14.16.16.126.16.08.18.047.17.007.17-.047.16-.086.15-.13.14-.18.11-.23.09-.28.06-.34.03-.38v-.22l-.04-.24-.12-.5-.21-.55s-1.95-2.38-2.63-3.35c-.7-.99-1.85-1.77-6.69-5.09 2.84 3.12 4.26 4.74 4.93 5.42z"/>
    <path d="M98.068 82.547l.097-.28.07-.11.077-.103.09-.083.102-.06.218-.09.25-.02.264.02.27.07.268.11.16.14.116.16.102.18.07.21.046.24.013.27-.01.29-.05.32-.02.16.04.11.08.08.1.07.09.09.07.12.02.19-.04.28-.36.97-.05.18-.05.13-.06.1-.06.07-.07.05-.09.03-.19.01-.22.01-.24.05-.12.05-.12.08-.13.1-.13.15-.21.16-.2.1-.2.05-.19.01-.19-.04-.18-.09-.16-.14-.16-.19-.1-.13-.08-.13-.06-.14-.04-.15-.01-.15.01-.15.05-.16.09-.17.19-.24.18-.27.16-.3.15-.34.14-.37.13-.41.22-.92-.05-.08z"/>
    <path d="M102.48 71.48c.575 0 1.29.632 1.29.632l.192.1.206.053.22.013.245-.027.28-.08.325-.14.193-.08.22-.06.22-.04.23-.02h.24l.25.02.53.1.56.18.57.24.58.31.57.35.56.41.53.44.51.49.46.51.42.53.35.56.29.57.22.57-.38-.4-.38-.37-.37-.33-.37-.3-.37-.27-.35-.23-.36-.2-.35-.16-.34-.14-.32-.11-.31-.08-.31-.04-.29-.02h-.27l-.26.04-.24.05-.22.08-.2.1-.18.13-.16.15-.14.18-.1.2-.09.21-.06.23-.04.25v.27l.03.29.05.3.09.31.12.34.15.35.19.36.27.24.22.22.15.23.09.22.02.22-.05.19-.12.2-.09.09-.12.09-.16.12-.14.12-.1.12-.09.13-.13.26-.08.25-.07.23-.1.21-.06.09-.08.09-.1.07-.12.06-.34.12-.34.07-.33.01-.3-.05-.26-.11-.11-.08-.1-.08-.08-.11-.05-.12-.04-.14v-.16l-.03-.36-.06-.32-.07-.29-.08-.26-.22-.43-.24-.38-.22-.41-.19-.45-.16-.49-.14-.52-.11-.57-.09-.61-.06-.66-.03-.69.03-.33V74l-.04-.23-.06-.2-.08-.162s-.83-.37-.83-.79c0-.42.44-.25.54-.43.09-.18.1-.633.68-.633z"/>
    <path d="M116.613 78.072l-.083.552-.13.552-.095.283-.133.28-.153.29-.2.28-.25.29-.29.29-.34.31-.41.3-.47.31-.53.32-.61.33-.69.33-.24.09-.19.1-.14.12-.07.14-.02.16.03.17.1.19.14.2.23.31.21.32.18.32.16.33.27.68.21.7.14.74.07.75.02.78-.02.8-.07.81-.11.83-.15.84-.17.85-.42 1.73-.47 1.75.06-.58.06-1.19-.01-.61-.04-.62-.05-.63-.08-.64-.11-.66-.13-.67-.16-.69-.19-.69-.23-.71-.26-.73-.29-.74-.32-.75-.35-.78-.24-.34-.27-.31-.29-.27-.32-.23-.34-.18-.38-.16-.4-.11-.44-.07-.34-.07-.31-.09-.25-.11-.2-.14-.17-.15-.12-.17-.09-.17-.04-.17v-.16l.03-.16.04-.15.09-.14.1-.11.14-.09.15-.06.18-.02.27-.01.24-.05.21-.09.18-.12.14-.14.11-.19.074-.22.04-.24.104-.2.06-.08.07-.08.182-.11.21-.06.24-.03h.26l.58.04.776.06.72.02.65-.03.61-.05.55-.1.5-.13.47-.16.42-.18.39-.2.35-.22.32-.25.3-.26.28-.27.25-.29.48-.59.09.07z"/>
    <path d="M101.4 85.47l.07-.178.09-.146.122-.116.146-.077.18-.033.22.02.256.064.295.122.8.18.77.16.74.128.72.11 1.38.153 1.3.073.25.007.22.027.18.047.15.06.11.08.07.1.05.12v.14l.63 1.55.07.29.02.22-.06.16-.04.06-.05.05-.13.06-.16.02-.19-.01-.2-.03-2.83-.69-.16-.01-.14.02-.11.04-.09.06-.06.09-.04.12-.03.14v.17l.03.24-.02.23-.05.22-.09.2-.13.16-.14.13-.18.09-.21.04-.2-.06-.16-.02h-.07l-.07.03-.07.05-.07.08-.14.24-.09.1-.09.09-.1.06-.1.03-.11.01-.11-.02-.11-.06-.1-.1-.1-.14-.08-.19-.09-.23-.07-.28-.06-.34-.04-.38-.02-.13-.04-.14-.14-.28-.2-.29-.23-.27-.28-.27-.29-.25-.29-.22-.27-.18-.14-.13-.11-.16-.06-.16-.04-.17v-.19l.04-.2.06-.23.11-.24.07.06z"/>
    <path d="M124.27 76.29l-.03.71-.097.706-.166.7-.238.686-.32.685-.39.678-.22.332-.25.332-.26.33-.29.33-.3.32-.32.32-.35.32-.36.32-.79.63-.88.64-.96.62-1.05.61-1.14.6-1.25.6-.35.18-.29.1-.24.03-.11-.02-.1-.03-.09-.06-.07-.07-.12-.2-.1-.28-.08-.37-.02-.3.01-.25.03-.19.06-.15.09-.12.11-.1.16-.08.19-.08 1-.38.96-.39.91-.42.87-.44.83-.46.79-.47.73-.5.68-.52.64-.55.58-.57.54-.59.48-.62.43-.65.39-.67.31-.69.27-.73.05.06z"/>
    <path d="M90.075 77.68l3.027-.05 3.02-.058.518-.007.465-.05.42-.077.378-.113.34-.146.285-.18.246-.21.206-.24.173-.26.133-.29.093-.31.04-.34.02-.36v-.38l-.03-.41-.05-.41-.02-.18.01-.17.03-.15.04-.13.08-.11.1-.1.12-.07.13-.06.13-.04.14-.02.14.01.14.03.13.06.12.09.11.11.09.13.05.32.05.32.28.31.11.14.08.14.06.14.03.16.01.18-.02.2-.01.84.04.75.06.67.1.58.12.53.13.47.16.43.16.4.35.46.24.38.15.34.09.33.06.34.04.38.06.44.11.55-.03.24-.09.2-.06.08-.08.08-.2.11-.24.07-.3.01-.35-.04-.4-.09-.29-.15-.12-.09-.1-.11-.09-.11-.08-.12-.11-.27-.06-.29-.02-.31.01-.33.02-.33.05-.19.01-.17-.04-.14-.08-.12-.13-.11-.18-.09-.22-.07-.26-.05-1.26.11-.61.07-.57.1-.51.13-.23.08-.2.1-.18.11-.16.12-.12.14-.1.16-.08.22-.11.17-.12.15-.14.12-.15.09-.17.06-.18.03-.18.01-.21-.02-.22-.05-.46-.16-.5-.24-.54-.31-3.89-2.096-.24-.15-.18-.17-.14-.17-.1-.18-.06-.18-.02-.19.02-.17.05-.17.08-.16.12-.145.15-.12.17-.1.21-.08.23-.05.25-.017.27.02.06-.11z"/>
    <path d="M84.776 84.888l-.32.102-.273.116-.238.128-.194.128-.15.142-.11.135-.07.15-.02.14.02.14.06.14.1.14.15.13.2.12.24.12.28.11.34.09.27.1.22.06.16.01.13-.05.04-.06.05-.07.05-.21.03-.31V86l-.01-.482-.05-.33-.09-.22-.05-.066-.06-.047-.14-.04-.17.02-.39.106.04-.05z"/>
    <path d="M82.716 82.332l.4.193.358.193.32.217.288.237.18.2.153.127.142.05.12-.01.107-.08.1-.14.1-.2.086-.25.093-.46.04-.41-.027-.37-.086-.33-.133-.31-.186-.27-.23-.26-.29-.23-.18-.11-.18-.08-.18-.03h-.18l-.19.06-.19.14-.19.2-.2.3-.32.52-.12.24-.07.22v.2l.02.1.04.09.07.08.1.07.26.13.03-.07z"/>
    <path d="M81.805 74.225l.077 1.213.045.596.07.59.113.576.16.545.22.526.145.24.16.24.193.18.133.19.1.18.04.17v.17l-.03.15-.06.13-.09.12-.12.08-.14.05-.15.02-.16-.01-.17-.06-.17-.09-.17-.15-.16-.2-.2-.34-.16-.36-.13-.38-.09-.39-.06-.4-.04-.4-.01-.4.01-.39.04-.38.06-.36.07-.34.1-.32.1-.3.12-.26.12-.22.13-.18-.04.05z"/>
    <path d="M74.1 81.15l1.513-.178.738-.064.72-.032.67.02.62.076.29.06.28.08.26.106.23.126.37.173.36.106.34.06.32.007.3-.033.26-.066.22-.1.18-.12.12-.16.07-.17v-.19l-.06-.2-.14-.2-.1-.1-.12-.1-.3-.21-.41-.2-.41-.2-.43-.15-.46-.12-.45-.07-.47-.04-.47-.01-.49.04-.47.07-.46.11-.44.14-.42.17-.4.21-.37.25-.33.27-.3.31-.24.34-.05.05z"/>
    <path d="M86.694 90.683l-.166.148-.155.17-.128.17-.11.17-.083.18-.058.17-.032.18-.007.18.025.17.058.17.09.17.12.16.153.15.2.14.24.14.27.11.48.18.39.21.16.11.14.11.12.12.1.12.16.27.1.27.05.29.02.3.06.27.07.24.1.2.11.17.14.13.15.11.17.07.18.04.19.01.2-.02.21-.06.21-.09.21-.13.21-.15.22-.18.21-.21.19-.2.22-.2.51-.4.58-.41.64-.42.7-.42.74-.43 1.59-.86.33-.14.28-.15.24-.16.19-.17.15-.18.1-.19.07-.2.04-.22-.01-.22-.03-.22-.07-.24-.11-.25-.13-.24-.16-.27-.18-.26-.2-.26-.4-.39-.34-.36-.28-.33-.22-.31-.17-.29-.11-.26-.06-.25-.03-.23.01-.21.04-.2.06-.18.1-.17.1-.16.12-.14.24-.26.31-.09.25-.11.2-.14.14-.16.1-.17.04-.17-.01-.18-.05-.16-.11-.15-.14-.13-.18-.11-.23-.06-.27-.03-.31.01-.34.08-.38.13-.34.065-.36.02-.37-.05-.4-.09-.41-.13-.423-.18-.433-.23-.45-.26-.46-.29-.47-.33-.99-.72-.96-.74-1.06-.85-.18-.46-.19-.4-.19-.33-.196-.26-.19-.2-.187-.16-.19-.113-.18-.06-.17-.03-.16-.01-.163.01-.15.03-.26.1-.2.11-.14.18-.13.2-.1.2-.05.21v.1l.02.123.04.12.08.14.1.14.13.16.17.16.205.18.136.16.12.19.11.21.09.24.15.51.084.54.034.52-.02.47-.038.19-.05.17-.06.13-.08.09-.063.2-.05.2-.02.2.01.186.02.18.04.18.13.33.04.304.02.25-.004.38-.02.3.02.16.04.18-.04.23-.02.24.01.23.05.24.1.23.16.23.237.23.3.23.24.4.14.36.04.17.01.178-.01.14-.03.14-.12.28-.09.12-.096.12-.24.23-.3.206.04-.04z"/>
    <path d="M101.32 91.18c.416.412 1.955.49 1.955.49l.405-.192.173-.047.153-.01.14.02.12.05.106.08.08.11.3.15.305.12.312.1.32.08.34.06.35.02.37-.01.38-.05.24-.09.1-.01.09.01.14.06.05.05.03.06.01.16-.06.18-.06.09-.09.09-.1.08-.12.08-.26.26-.11.13-.1.14-.06.15-.06.16-.03.16-.01.18.02.35-.01.34-.03.32-.06.32-.08.3-.1.28-.13.28-.15.27-.16.25-.19.24-.2.24-.22.23-.23.23-.25.21-.54.4-.45.34-.44.37-.45.41-.45.42-.88.9-.85.94-.27.3-.26.26-.27.21-.27.17-.26.11-.26.08-.25.03-.26-.01-.24-.06-.23-.1-.24-.14-.23-.17-.24-.2-.24-.25-.22-.29-.23-.31s-1.2-1.6-1.92-2.27-1.68-.59-2.28-.62c-.6-.04-2.06-.11-2.06-1.15.01-1.18 3.85-2.82 4.72-3.42s1.59-1.32 2.27-1.82c.68-.5 1.04-.68 1.39-1.08.35-.41.23-1.78 1.16-1.68.94.09.6 1.55 1.02 1.96z"/>
    <path d="M108.26 95.645l-.482.173-.468.247-.456.314-.45.37-.442.41-.435.45-.432.49-.432.51-.89 1.06-.46.54-.465.52-.492.51-.505.48-.52.45-.53.41-.28.12-.21.14-.08.08-.07.08-.07.18v.09l.01.08.09.17.08.07.1.06.27.11.25.1.23.12.2.13.2.16.17.15.15.19.13.2.1.22.34-.01.31.01.28.03.26.04.25.06.22.08.4.19.36.23.32.27.6.56.16.24.07.22.01.2-.03.2-.11.2-.07.19-.02.16.01.16.03.14.07.13.09.11.12.11.15.27.08.11.12.1.14.08.17.05.21.02.25-.03s1.62-.06 2.65-.06c1.03 0 2.49.3 3.46.11.47-.09.88-.86 1.2-1.12.32-.27.67-.35 1.06-.88.38-.53.33-1.74.33-2.38 0-.64 1.05-1.96 1.3-2.05.24-.1.35.46.27.69-.08.24-.87.79-.87 1.67s.34 1.22 1.18 1.22.79-1.64 2.2-1.64c.99 0 5.17 1.93 6.9 3.72-.48-2.74-3.46-4.7-4.38-5.07-.82-.33-1.19-.49-1.29-1.05-.09-.55.34-1.65-.37-1.65s-.88 1.55-.88 1.55-.17.55-.58.55c-.41 0-.56-.18-.66-.44-.11-.25-.01-.89-.08-1.48s-.25-1.39-1.21-1.39-1.62 1.56-1.62 1.56l-.09.24-.02.28-.06.21-.1.15-.05.06-.06.05-.15.05-.18.02-.19-.03-.23-.07-1.75-1.07-.14-.1-.09-.09-.05-.09-.02-.1.01-.1.03-.1.11-.19.28-.1.21-.13.1-.08.07-.08.11-.2.06-.22.02-.25-.02-.27-.05-.29-.17-.23-.16-.15-.164-.08-.167-.04-.17-.01-.16.01-.33.02-.42-.115-.35-.14-.28-.16-.22-.17-.16-.19-.1-.18-.06-.19v-.18l.07-.317.022-.27v-.22l-.04-.19-.06-.15-.09-.11-.1-.09-.14-.06-.15-.03-.17-.02-.38.02-.4.05-.41.07-.11.13z"/>
    <path d="M116.326 109.833l.417.073.346.033.28-.02.22-.05.16-.09.06-.06.04-.07.04-.15-.02-.17-.06-.18-.13-.22-.18-.23-.23-.24-.28-.24-.32-.26-.35-.33-.16-.11-.15-.06-.15-.01-.16.07-.19.14-.21.23-.29.26-.2.24-.09.21-.01.2.05.17.12.16.16.14 1.22.48z"/>
    <path d="M117.41 113.446l.53.552.45.506.384.468.32.423.258.392.206.36.166.326.113.308.08.28.047.27.013.25-.007.24-.053.44-.08.43.18-.04.185-.06.186-.1.18-.16.152-.22.133-.28.093-.34.047-.42-.24-2.02-.105-.88-.106-.77-.126-.69-.173-.58-.106-.25-.12-.23-.14-.2-.16-.16-.153-.13-.173-.11-.37-.17-.4-.11-.42-.06-.24.04-.23.07-.2.1-.18.12-.15.14-.12.17-.1.18-.06.2-.04.22-.01.23.02.23.05.24.1.25.12.24.16.24.19.22-.06-.06z"/>
    <path d="M99.192 105.935l-3.476 2.56-.263.16-.083.076-.058.08-.027.09-.007.08.04.16.14.29.086.1.086.06-.093.33-.047.29v.24l.027.09.047.08.06.05.086.02.106-.01.126-.03.346-.16.46-.32.258-.14.572-.28.818-.33.485-.16.52-.15.55-.12.57-.08.57-.05.56.02.57.08.28.06.28.08.28.11.27.13.26.14.25.18.15.13.14.1.14.07.14.04.13.03.12-.01.11-.02.09-.05.09-.06.08-.07.06-.09.04-.12.03-.12v-.14l-.01-.15-.05-.17-.08-.16-.1-.14-.22-.29-.09-.16-.06-.19-.02-.22.03-.26.02-.15v-.15l-.03-.13-.05-.12-.06-.1-.08-.09-.1-.06-.1-.05-.12-.03-.12-.02-.12.01-.12.03-.12.06-.11.08-.11.1-.1.13-.14.16-.12.12-.13.08-.14.05-.3.05-.4.04h-.25l-.19-.05-.13-.08-.06-.1-.01-.11.06-.12.11-.11.21-.08.17-.02.15-.04.13-.06.11-.08.08-.08.06-.09.01-.11-.01-.1-.05-.1-.07-.1-.11-.1-.15-.09-.18-.08-.22-.07-.24-.05-.3-.04-.06-.24-.07-.21-.09-.18-.09-.14-.1-.13-.11-.09-.11-.06-.1-.055-.11-.02h-.09l-.09.01-.07.03-.06.05-.05.06-.03.08-.01.09-.01.34-.04.17-.04.16-.07.15-.08.14-.1.12-.13.1-.09-.09z"/>
    <path d="M104.492 125.063l-.366.462-.32.445-.277.44-.22.438-.16.44-.09.444-.02.226v.233l.02.24.04.24 1.55-1.79.39-.34.39-.32.7-.54.29-.23.24-.2.18-.19.11-.17.12-.4.05-.33-.01-.29-.07-.22-.05-.09-.07-.09-.07-.06-.09-.05-.2-.06-.22-.01-.25.04-.26.1-.27.15-.27.2-.26.25-.25.3-.22.36-.19.4.05.04z"/>
    <path d="M111.987 122.055l-.136-.32-.08-.29-.04-.255.02-.22.06-.197.11-.173.15-.148.2-.128.32-.193.32-.13.32-.08.33-.01.33.07.35.15.35.23.19.15.19.18.23.23.23.22.47.39.49.33.49.27 1.01.38 1.05.17.53.02.54-.02.55-.06.55-.09.57-.12.56-.15.57-.17.57-.2c-2.11 3.18-8.07 1.27-8.07 1.27s2.73 9.39-4.04 16.7c4.4-8.18 3.24-11.82 2.99-13.57-.25-1.74-1.26-2.24-1.7-2.86-.43-.62-.49-1.34-.49-1.34z"/>
    <path d="M108.467 109.697l.937.033.884.056.84.084.796.102.775.122 1.48.282.56.186.46.22.2.12.17.125.14.14.14.153.11.16.09.173.08.186.05.19.06.43v.5l-.01.3-.04.26-.08.22-.12.19-.08.07-.1.06-.23.09-.28.04-.35-.01h-.22l-.18.03-.14.06-.1.08-.05.1-.04.12-.02.27-.05.92.02.61.02.21.05.17.1.22.12.16.13.17.05.12.04.14.03.2.02.26.02.25v.2l-.03.17-.03.14-.08.11-.08.1-.11.06-.14.05-.32.06-.4.03-1.04.04-.44.03-.37.06-.31.08-.26.1-.21.12-.18.14-.14.15-.11.16-.08.17-.05.18-.03.18-.02.2.01.39.05.39.01.28-.01.24-.04.21-.06.17-.08.15-.1.12-.11.1-.12.09-.28.11-.32.06-.33.03-.34.02-.28-.01-.28-.05-.25-.09-.24-.15-.1-.1-.09-.11-.15-.25-.11-.3-.05-.36.01-.25-.01-.23-.03-.2-.05-.17-.07-.15-.06-.12-.09-.11-.1-.09-.23-.12-.26-.09-.57-.1-.26.043-.23-.02-.2-.05-.17-.08-.14-.12-.12-.13-.08-.15-.05-.16v-.17l.02-.18.05-.17.08-.16.12-.15.16-.127.18-.11.23-.077.14-.06.13-.098.12-.11.1-.13.08-.15.06-.16.05-.178.03-.17.01-.17-.01-.17-.04-.16-.05-.15-.09-.13-.11-.1-.13-.09-.16-.06-.24.01-.19.04-.15.07-.1.08-.08.09-.05.12-.06.25-.038.24-.05.24-.05.1-.07.09-.11.08-.15.05-.29.08-.26.03-.24-.01-.2-.05-.17-.09-.15-.1-.12-.14-.09-.17-.07-.19-.04-.21-.02-.21.01-.23.03-.24.06-.243.08-.24.1-.24.14-.33.12-.33.094-.33.07-.33.09-.65.02-.65-.01-.26-.02-.252-.06-.5-.01-.256.016-.26.048-.27.08-.29.1-.2.077-.08.08-.06.19-.06.19-.008.2.05.19.115.08.07.08.094.13.22.08.1.11.09.25.13s.33.17.72 0c.387-.18.04-.89.696-1.44.29-.25 1.98-.15 1.98-.15z"/>
    <path d="M98.925 122.71v.147l.025.142.05.13.07.13.098.12.115.12.13.1.16.1.35.19.406.16.45.12.49.09.5.05.5.01.52-.02.52-.07.5-.12.46-.17.43-.22.19-.13.18-.15.19-.19.17-.19.14-.18.12-.17.16-.34.07-.31v-.28l-.07-.24-.06-.11-.07-.1-.09-.09-.1-.07-.23-.11-.27-.06-.29-.01-.31.05-.33.1-.34.17-.33.24-.16.15-.15.16-.25.15-.24.13-.51.21-.49.13-.53.08-.53.04h-.55l-1.1-.03-.06.06z"/>
    <path d="M94.042 129.296l.655-1.628.3-.833.276-.847.25-.86.218-.878.18-.904.14-.93.05-.166.07-.148.09-.122.1-.103.12-.076.14-.05.16-.03.18-.01 1.28.05h.61l.58-.03.55-.05.51-.08.46-.12.39-.15.39-.2.33-.22.13-.13.12-.13.08-.14.06-.14.02-.16-.01-.15-.04-.16-.09-.16-.14-.17-.18-.17-.24-.18-.28-.17-.24-.1-.09-.07-.11-.08-.08-.1-.08-.12-.06-.15-.05-.17-.03-.21-.01-.24.01-.27.04-.31.13-.74.23-.93.13-.4.12-.41.09-.41.06-.4.04-.38.01-.37-.03-.35-.06-.32-.1-.28-.12-.23-.06-.1-.09-.09-.1-.08-.12-.05-.24-.08-.28-.01-.32.06-.36.13-.14.15-.14.12-.14.1-.15.09-.3.11-.31.03-.33-.04-.34-.1-.344-.15-.36-.21-.41-.16-.38-.09-.33-.02-.153.02-.14.05-.124.07-.114.09-.1.1-.08.14-.07.17-.05.19-.04.22-.02.25-.12.37-.13.31-.14.27-.16.21-.16.18-.17.14-.175.1-.18.07-.18.05-.18.03-.36-.02-.34-.08-.31-.11-.25-.1-.23-.07-.21-.03-.18-.01-.16.02-.14.04-.12.07-.1.09-.08.11-.07.13-.1.29-.04.35.01.36.06.71.08.58.06.25.08.23.09.21.12.18.14.17.16.15.19.14.215.13.53.26.68.26.235.04.2.05.16.07.13.09.11.11.09.15.06.19.05.24.11 1.03.06 1.08.03 1.12-.02 1.17-.05 1.206-.1 1.24L94.2 128l-.16 1.31.1.09z"/>
    <path d="M94.875 101.233s-.436 4.657-.47 5.594c-.056 1.495.455 2.406.455 2.406l.007.366.047.3.08.24.086.21.146.38.033.19-.02.22-.03.23-.08.2-.2.37-.11.21-.11.25-.09.31-.07.39-.16.15-.16.14-.19.11-.19.08-.22.05-.24.02-.24-.03-.27-.07-.19-.05-.17-.06-.15-.09-.13-.1-.11-.12-.07-.12-.05-.14-.02-.15.03-.39.08-.28.1-.22.13-.19.12-.2.11-.25.09-.34.05-.45s-.57-1.72-.21-3.56c.44-2.27.82-3.24 2.32-5.68z"/>
    <path d="M84.934 100.673l.288 1.283.3 1.276.167.64.19.636.21.635.25.616.28.62.33.63.37.62.43.61.49.62.56.61.3.3.32.3.7.61.38.16.18.05.18.01.17-.05.08-.06.08-.08.08-.11.08-.13.17-.36.11-.33.02-.14v-.13l-.02-.12-.04-.12-.05-.1-.08-.09-.19-.18-.25-.17-.6-.36-.53-.39-.51-.44-.33-.33-.32-.35-.31-.38-.31-.39-.58-.82-.55-.87-.53-.93-.51-.95-1.02-1.98-.04.07z"/>
    <path d="M83.89 105.65l-.268.8-.218.827-.16.84-.103.853-.04.845.02.834.08.8.27 1.43c-3.12.79-4.45 3.54-5.45 4.29-2.09 1.56-3.25 4.52-3.54 7.72 0 0 .86-2.94 2.97-5.29.68-.76 1.42-1.05 2.38-1.69 1.79-1.19 4.27-2.1 5.69-2 1.42.1 2.55.33 2.55.33l.12.12.11.13.23.22.23.16.22.12.2.08.2.04h.17l.16-.05.14-.08.12-.1.1-.13.08-.16.05-.16.03-.19v-.2l-.03-.21-.06-.22v-.19l.01-.18.05-.17.08-.16.1-.14.12-.14.15-.13.18-.11.31-.12.11-.08.09-.1.08-.16.05-.23.02-.31-.02-.42-.02-.26-.03-.23-.05-.2-.06-.17-.08-.15-.1-.13-.11-.09-.11-.08-.12-.06-.12-.03-.12-.01-.12.02-.12.04-.13.06-.12.08-.11.1-.25.34-.24.26-.11.09-.12.06-.23.08-.12.01-.13-.01-.27-.07-.31-.16-.34-.22-.37-.03-.36-.1-.35-.15-.33-.2-.31-.26-.29-.3-.28-.37-.25-.41-.23-.47-.21-.51-.18-.56-.16-.61-.13-.65-.11-.7-.08-.74-.05-.78-.13.1z"/>
  </g>
</svg>
