<svg xmlns="http://www.w3.org/2000/svg" viewBox="0 0 200 188">
    <path d="M93.264 143.933c0-.244.05-.488.098-.732 0-.585.048-1.17.098-1.707.244-.05.488-.05.732-.05 0-.536 0-1.073.05-1.61h-.83c-.05-.634-.05-1.268-.05-1.854.1-.05.196-.1.343-.147.097-.78.195-1.562.292-2.294.05-.1.147-.148.244-.196.44.78.928 1.61 1.417 2.44.146-.927.146-.927-.05-4.685.098-.052.195-.1.293-.1.05 1.757.097 3.563.146 5.37h-.34c.34 5.563.194 11.665.145 17.57.147.39.294.782.49 1.22.243 0 .487 0 .78.05.097.195.195.39.342.586.536-1.66.536-1.66.683-1.66v.293c.098-.05.195-.1.342-.147 0-1.22-.49-10.836.44-12.69.047 2.05.096 4.1.194 6.198h.342v-.34h.34c0 2.44-.145 4.344-.83 6.98.44.147 1.905-.05 2.93 0-.147.44-.488.147-.488.976.976.05 1.952.097 2.928.195-.048.148-.097.294-.146.49l-1.757.292c.34.196 1.463.878 1.463 2.05-1.172.147-2.343-1.61-2.587-1.952-.732-.05-1.464-.098-2.196-.098-.05 5.174-.098 10.397-.147 15.62h-.342l-.145-9.13c-.293-.048-.586-.096-.83-.145.146-.342.146-.342.83-.683 0-2-.537-3.66-.928-5.174 0 1.367 0 2.782.05 4.198-.147.05-.294.097-.44.195-.097-1.415-.195-2.782-.244-4.15-.098-.048-.195-.048-.293-.048-.342.732-2.538 1.367-3.124 1.562.634.342.634.342 2.684.683-.05.635-.097 1.27-.147 1.952l-2.928-.292.146-4.735c-.194-.05-.39-.098-.536-.147v-.34c.098-.05.244-.1.39-.148v-.537c-.195-.146-.39-.244-.585-.34.243-.1.486-.196.78-.245.195-1.904.342-2.343 1.318-3.612-.05-.293-.05-.586-.05-.83-2.144-1.074-1.265-6.248-1.314-8.103zm7.273 22.6c-.488-2.538 1.025-3.953 3.32-4.247.048.488.097.976.194 1.514-.975.34-.975.34-2.293.44-.146.877-.732 1.61-1.22 2.293zm9.323-23.82c-1.757-1.17-2.1-1.318-3.71-1.562.147-1.707.635-2.83 1.172-4.05.342 1.366.342 1.366.78 2.245.587-.146.782-.196 1.954-.098.048 1.123.098 2.294.146 3.465h-.342zm-7.37-1.562c-.537-.047-1.074-.096-1.562-.145.05-.683.097-1.367.146-2 1.122 0 2.636 0 2.343 2.098-.342 0-.635 0-.927.048zM2.67 116.063c0-.293.05-.585.1-.83 9.468-6.98 18.937-13.91 28.407-20.842.292-.146.585-.293.927-.44-.048 4.345-.048 8.69-.048 13.034h.39v8.932h-.34c-.05-1.757 0-4.783-.44-5.955-1.61 5.077-1.61 5.077-2.05 5.858-.44.146-.44.146-1.61-.05-.245-3.415-.245-3.415-.49-12.885-.243.683-.243.683-1.756 13.032l-3.27.146c-.39-1.366-1.123-4.343-1.66-4.88-.098 1.562-.195 3.124-.293 4.734-5.956.05-11.91.1-17.866.148zm172.938-.976c-.83-5.662-1.66-11.275-2.44-16.888 1.61 0 10.104 6.785 12.397 8.395 0 2.587-1.22 5.515-2.147 8.2l-7.81.293zm11.226-.146c.05-2.39.097-4.783.146-7.175.733.293.733.293 10.348 6.98-3.514.048-7.028.098-10.494.195zm-102.6-69.995c-.098-.05-.195-.098-.244-.098 0-1.073-.39-8.298.293-8.298 1.074 1.56.83 5.66.488 8.15-.194.05-.39.147-.536.245zm-2.49-.39c-1.268-1.123-1.17-1.953-2.293-2.587 1.856-.244 1.856-.244 2.588-.098-.147 2.636-.147 2.636-.293 2.685zM118.5 36.99c.048-.148.097-.294.146-.44l.293.292-.44.147zm28.798-11.57c-.05-3.172-.05-6.344-.05-9.47l2.344-.292c-.097 2-.097 8.444-.683 9.616l-1.612.147zm.586-8.444c-.098-.195-.195-.34-.244-.488h.292c-.048.147-.048.293-.048.488zm.878-1.317c-.34-.294-1.122-.39-1.513-.636v-.635c.292-.098.584-.196.877-.245-.048-.195-.098-.342-.098-.488-.342-.05-.636-.05-.928-.05 0-.78 0-.78.195-1.366.342.1.342.1.488.392V11.46c.635.195.635.195 1.953 1.074 0 .098.488 3.075-.537 2.733-.145.1-.292.245-.438.392zm5.37-3.955c-.05-.098-.098-.196-.147-.244.146-.243.293-.438.49-.634.047.098.097.195.194.293-.05.146-.1.292-.148.487-.147 0-.293.05-.39.098zm1.952-2.294c-.05-.097-.098-.194-.146-.243l.293-.146v.392h-.146zm-1.123-.34c0-.147.05-.245.1-.342.048.292.048.292-.1.342zm-.975-.147v-1.22c.098 0 .195.05.342.097 0 .244 0 .488.05.732-.148.098-.294.244-.392.39zm1.123-.732c.048-.34.098-.633.146-.926.586-.098.586-.098.927.05-.39.29-.73.584-1.072.877zm1.317-1.61c-.244-.488-.44-.976-.635-1.464.684 0 .684.293.927 1.464h-.292zm-1.806-.342c-.05-.195-.1-.342-.147-.488h.634v.488h-.488zm3.27 0c-.586-.586-.44-.683-.49-1.123.245.146.49.293.782.488-.097.195-.195.39-.293.635zM36.74 91.755c-.048-.244-.097-.44-.097-.635.05-.293.098-.537.147-.78 5.857-4.345 11.715-8.64 17.62-12.936.195-.098.39-.147.634-.195.098 1.658.195 3.318.342 5.026h.488c.293-1.27 1.562-2.245 2.343-3.173-.097-1.464-.195-2.88-.244-4.295l3.612-2.587-7.048-21.652-1.684.113-6.706.8 2.91-3.95.696-.71.744-.616.812-.542.886-.464.524-.215L38.694 1.845c11.422 8.444 22.843 16.888 34.314 25.382.732 4.05.537 8.737.683 13.276 1.22.195 1.22.195 3.173.245V37.33h-1.317c-.098-1.756-.146-3.465-.195-5.173-.39-.147-.78-.244-1.17-.342-.05-1.27-.05-2.49-.05-3.71 2.002 1.464 4.003 2.93 6.005 4.442-.196 3.026.05 3.465-2.538 4.734-.05 1.123-.098 2.295-.098 3.467 3.025.195 3.025.195 4.392.488.098-2.39.195-4.783.293-7.127 1.838 1.353 3.68 2.707 5.527 4.062l-.135-.33c-.433-.898-.884-1.77-1.368-2.64-.482-.753-.97-1.476-1.504-2.19-.526-.642-1.062-1.254-1.632-1.858-1.558-1.556-3.253-2.966-4.904-4.42l3.83-.904.695-.07 1.338.126 1.307.365 1.2.558 1.192.703 1.15.84 1.122.943 1.048 1.037.985 1.084.916 1.143.82 1.172.52.854c.87-.822 2.337-1.096 3.44-.626.29-.448.786-.74 1.23-1.01l.68-.24.74-.056.662.098.653.225.586.342.488.38c.156.136.428.445.655.458.446-.046.933-.33 1.345-.507l1.145-.287c.622-.05 1.176-.047 1.798 0l1.16.223 1.178.366 1.192.493 1.594.918c2.65-1.95 5.302-3.897 7.953-5.838l.293 1.757h-2.1v4.392c2.05-.39 4.882-3.22 6.102-5.027.195-2.294.195-2.294.098-4.15 1.22-1.122 1.22-1.122 22.453-16.79.73-.05 1.463-.05 2.244-.05.048-.097.097-.194.195-.243-.196-.195-.196-.195-1.417-.44 3.075-2.293 3.075-2.293 3.514-2.39V9.51c1.27-.05 2.587-.098 3.905-.098h.146c.195 0 .44.05.683.098-.194.683-.243 1.27-1.073 1.122 0-.195 0-.39.05-.537-1.22-.05-2.393-.098-3.564-.098-.05.732-.05 1.465-.05 2.246.733 0 2.734-.195 3.662.44-.05.292-.098.585-.098.877L136.46 71.255l29.237 21.037.146 1.025h.83c-.586 1.17-.537 1.903-.537 3.612 1.17-.343 2.1-.245 3.612-.196l.293-.732c.196.293.49.683.343 1.61-1.465.05-2.93.147-4.393.245-.05 4.392-.098 8.786-.147 13.18.05.145.098.292.147.487-.05 1.17-.098 2.343-.147 3.563h-18.206c0-4.05-2.294-8.933-3.368-12.203-.118.195-.142.234-.346 6.35l6.25 13.883-6.396-9.445-.046 1.414h-.342l-.022-2.018-2.05-3.03c-.343 2.3-.524 3.304-.857 5.146-3.508 0-7 .016-10.486.04.128 1.063.252 2.127.38 3.19l-.116 1.103-.235.9-.362.797-.487.69-.6.536-.616.363-.57.214-3.083.775.67-3.407c.056-.413.1-.762.08-1.173-.064-.373-.168-.697-.293-1.052-.518-1.057-1.188-1.997-1.93-2.882l-.557.005-2.686 8.205c.368.302.748.582 1.157.86l.72.403.744.314.758.24 1.587.264h1.68c.928-.1 1.803-.246 2.716-.444l1.92-.555 7.562-2.637-5.55 6.02c-.505.52-1.023.992-1.572 1.464l-1.416.91-.848.396-.92.34-1.034.29-1.146.234-1.274.167-1.4.1-2.923-.006.152 1.193.11 1.51.014 1.393-.078 1.294-.173 1.205-.277 1.106-.365.998-.455.924-.563.83-.627.733-.708.632-.75.53-.774.43-.8.36-2.84 1.024-3.268 9.98c-.537.1-1.074.245-1.61.392-.05.098-.05.244-.05.39h1.464c-.048.245-.097.537-.146.83h-.83v.488c.098 0 .195.05.342.098 0 .146 0 .342.05.537-2.978 9.128-5.956 18.255-8.933 27.432-1.025-3.026-2.392-6.248-2.684-8.884.245-.098.538-.195.83-.293-.097-2.88-.097-2.88-.293-3.22-.293.828-.293.828-.537 3.025h-.342c-.147-1.708-.293-3.416-.39-5.125-.245-.292-.245-.292-1.66-.732-.293-.976-.244-1.514-.195-2.1.977.196.977.196 1.953.636v-2.93c-.976.538-1.562.733-2.44.83.195-1.415 1.025-1.122 1.513-2.147-.635-.05-1.22-.05-1.807-.05-.05.636-.05 1.32-.05 2.002h-.34c-2.91-9.283-6.06-18.524-9.177-27.748l-4.836 12.045 1.9-15.565.375-4.094c-1.33-3.977-2.64-7.952-3.907-11.928l-.483-.325-.467-.448-.694-.96-.445-1.095-.59.164h-.725l-.662-.132-.616-.236-.6-.338c-.06-.043-.117-.087-.174-.13l-12.136-.068-.674.288-1.778.993-1.6 1.157-1.453 1.292-1.296 1.444-5.758 7.65 2.33-9.325.298-1.03.754-2.073.216-.445-.562-.003v-.49H36.787c-.046-8.006-.046-16.01-.046-24.015zM143.32 107.88c-.067-6.743-.05-7.057.026-8.51.293.292.293.292.44.78.145-7.32.145-7.32 0-7.663-.795 5.72-1.345 9.683-1.747 12.55l1.28 2.844zm-61.47-80.228l1.254 1.104.615.58.605.605.592.628.592.674.57.697.557.742.535.79.534.837.5.894.487.94.475.988.442 1.068.43 1.115.395 1.197.128.5.186.418.23.372.257.29.29.233.303.15.326.082.314.01.313-.08.3-.162.28-.245.256-.325.21-.417.173-.512.114-.616.058-.698v-.395l-.058-.43-.232-.905-.384-1-.534-1.033-.65-1.07-.755-1.08-.85-1.057-.917-1.01-.964-.953-1.024-.86-1.033-.755-1.046-.616-1.022-.476-.51-.163-.488-.115-.488-.07-.478-.024-.453.048-.443.104zM91.64 53.79l.174-.512.128-.198.14-.186.162-.15.186-.117.395-.163.453-.058.476.035.488.116.488.186.29.233.21.278.186.325.128.383.08.42.024.476-.034.51-.093.57-.034.29.07.187.14.14.16.115.153.152.115.22.034.337-.093.487-.65 1.766-.094.314-.093.233-.105.174-.116.117-.14.08-.163.047-.348.024-.408.023-.43.082-.22.082-.233.14-.245.185-.244.27-.394.278-.372.186-.37.093-.35.01-.337-.07-.326-.173-.3-.255-.302-.35-.186-.244-.152-.243-.116-.257-.07-.266-.023-.268.024-.278.093-.29.15-.302.338-.43.314-.488.29-.557.278-.616.244-.673.233-.743.395-1.674zm7.516-18.83l.268-.256.29-.175.29-.105.315-.024.312.048.336.116.338.197.36.28.35.302.335.243.35.186.372.106.395.024.453-.047.51-.163.594-.255.348-.152.384-.115.406-.082.418-.035h.44l.466.036.964.186 1.01.314 1.035.43 1.034.558 1.044.64 1.01.73.966.803.918.883.836.93.755.963.638 1.01.522 1.023.383 1.046-.697-.733-.685-.663-.685-.604-.674-.546-.673-.477-.65-.418-.65-.36-.627-.302-.616-.256-.592-.197-.57-.14-.557-.092-.522-.035h-.488l-.477.058-.43.092-.405.15-.36.187-.326.232-.29.267-.256.313-.196.35-.162.382-.104.418-.07.454v.488l.047.522.092.546.163.58.22.605.28.627.348.65.487.43.384.42.266.405.15.395.036.383-.093.348-.22.36-.165.175-.197.162-.3.21-.246.21-.197.22-.162.23-.244.466-.153.465-.14.43-.173.384-.116.175-.14.15-.186.128-.22.093-.617.21-.616.116-.605.01-.546-.08-.467-.197-.197-.14-.175-.164-.138-.186-.092-.22-.07-.256-.01-.267-.06-.65-.104-.58-.128-.523-.15-.465-.408-.79-.44-.686-.396-.744-.338-.8-.29-.895-.245-.953-.197-1.033-.15-1.105-.117-1.185-.058-1.255.058-.604v-.51l-.07-.43-.115-.36-.14-.303-.173-.256-.36-.406-.162-.198-.127-.186-.093-.21-.047-.232.035-.267.105-.324.197-.395.3-.46zm24.85 11.244l-.152 1-.233.998-.173.51-.232.513-.28.523-.36.522-.44.534-.523.534-.616.558-.732.557-.837.57-.964.58-1.104.604-1.245.604-.43.176-.336.186-.234.232-.128.256-.034.29.07.314.174.35.268.37.418.558.383.58.336.58.302.605.5 1.243.384 1.278.254 1.336.14 1.37.047 1.417-.034 1.442-.127 1.475-.198 1.51-.267 1.52-.303 1.546-.742 3.137-.848 3.17.116-1.044.07-1.07.034-1.09-.01-1.105-.06-1.126-.093-1.14-.14-1.16-.197-1.197-.245-1.21-.29-1.23-.35-1.255-.405-1.278-.465-1.313-.523-1.335-.58-1.36-.64-1.394-.43-.626-.477-.57-.522-.487-.58-.418-.628-.338-.685-.28-.72-.208-.79-.13-.628-.115-.546-.163-.454-.21-.36-.255-.302-.268-.21-.302-.15-.302-.07-.314-.012-.303.047-.29.092-.267.163-.244.197-.21.256-.15.278-.105.338-.046.5-.023.44-.093.383-.15.325-.21.255-.267.21-.337.14-.395.068-.453.187-.372.116-.15.14-.128.336-.198.383-.128.44-.058.49-.012 1.044.08 1.42.105 1.3.036 1.196-.047 1.093-.105.998-.163.906-.22.837-.28.756-.324.697-.36.64-.407.58-.44.534-.465.5-.5.465-.51.883-1.06zm-27.59 12.884l.127-.326.162-.267.22-.21.268-.138.326-.058.394.034.465.116.533.22 1.452.327 1.394.29 1.347.233 1.313.198 2.51.278 2.37.14.464.012.407.046.337.08.28.117.208.152.14.174.08.22.012.245 1.15 2.813.14.534.035.406-.093.29-.07.106-.094.08-.232.093-.29.034-.338-.023-.36-.06-5.11-1.253-.28-.01-.233.022-.198.082-.162.115-.116.162-.07.22-.046.256v.302l.06.43-.024.418-.08.383-.164.36-.22.29-.268.245-.325.15-.385.07-.372-.104-.29-.046h-.128l-.128.047-.127.093-.128.152-.232.44-.152.186-.163.152-.174.105-.173.07-.198.012-.187-.037-.186-.105-.186-.174-.173-.244-.15-.338-.152-.418-.128-.5-.093-.616-.082-.708-.034-.244-.07-.257-.256-.512-.36-.522-.453-.512-.5-.488-.522-.453-.512-.395-.476-.326-.245-.244-.197-.278-.116-.29-.07-.314v-.337l.07-.36.116-.408.187-.424zm41.88-14.917l-.06 1.29-.172 1.278-.302 1.266-.43 1.244-.558 1.243-.697 1.232-.395.605-.44.603-.466.605-.51.604-.536.592-.58.592-.617.593-.65.592-1.43 1.16-1.58 1.15-1.73 1.14-1.905 1.114-2.056 1.104-2.242 1.092-.627.326-.523.186-.43.07-.186-.025-.162-.045-.152-.094-.127-.116-.22-.36-.174-.51-.13-.674-.034-.546.01-.442.06-.337.115-.267.152-.21.21-.163.29-.14.36-.14 1.8-.684 1.744-.71 1.65-.755 1.58-.79 1.51-.825 1.418-.86 1.335-.906 1.242-.94 1.162-.988 1.07-1.035.986-1.067.883-1.116.78-1.162.707-1.208.57-1.254.485-1.312zm-60.166.2l5.482-.094 5.472-.104.94-.012.848-.093.767-.138.684-.21.616-.268.523-.325.453-.373.382-.43.314-.464.244-.522.174-.57.093-.617.047-.65v-.684l-.047-.732-.08-.755-.036-.327.023-.302.07-.266.082-.244.163-.21.186-.173.222-.14.244-.104.243-.07.255-.023.267.01.243.06.244.104.22.152.197.197.162.244.092.58.105.58.51.56.2.255.15.256.116.255.058.29.024.326-.035.37-.024 1.535.058 1.36.116 1.196.174 1.058.22.953.245.85.29.778.3.73.64.826.43.697.278.628.174.593.105.616.08.697.118.813.186 1-.046.44-.15.36-.106.152-.14.14-.347.196-.44.128-.546.023-.64-.07-.72-.162-.534-.267-.22-.163-.174-.186-.163-.197-.128-.22-.186-.49-.094-.533-.035-.57.013-.592.047-.603.093-.337.023-.302-.07-.267-.15-.232-.232-.198-.314-.163-.395-.14-.476-.104-2.29.196-1.103.128-1.022.174-.918.244-.406.15-.37.175-.325.21-.28.23-.232.257-.174.302-.152.384-.186.314-.22.266-.245.21-.267.162-.302.106-.325.046-.337.012-.372-.035-.395-.08-.838-.29-.917-.43-.976-.56-7.04-3.797-.42-.268-.325-.29-.255-.315-.174-.325-.105-.325-.033-.35.034-.3.094-.314.15-.29.222-.268.267-.232.314-.186.372-.14.416-.093.453-.024.5.036zM68.07 56.414l-.617.186-.522.21-.452.232-.372.232-.29.255-.21.243-.127.267-.047.255.034.256.128.256.198.244.29.232.373.22.464.21.547.197.638.162.524.174.417.116.314.023.245-.092.08-.094.082-.13.093-.382.058-.57.01-.777-.022-.87-.106-.602-.163-.394-.104-.128-.116-.08-.28-.072-.325.036-.743.185zm-3.044-4.426l.72.348.65.35.582.394.523.43.326.36.278.233.257.093.22-.023.2-.15.185-.245.186-.36.163-.453.174-.836.07-.743-.047-.673-.15-.604-.244-.558-.337-.5-.43-.476-.523-.43-.337-.198-.325-.14-.337-.07h-.338l-.35.117-.347.244-.35.37-.358.547-.593.93-.21.43-.127.406v.36l.034.174.08.15.128.152.163.14.466.23zm-1.812-15.033l.14 2.196.08 1.08.13 1.07.196 1.043.29.988.396.953.256.44.29.443.35.325.23.337.163.325.07.314v.303l-.07.268-.116.234-.176.208-.22.15-.255.094-.28.046-.29-.023-.315-.117-.313-.163-.314-.28-.302-.36-.37-.626-.304-.66-.232-.698-.174-.71-.117-.72-.07-.72-.012-.73.024-.71.068-.685.105-.66.128-.628.163-.58.186-.536.208-.466.22-.406.234-.337zm-13.28 12.28l2.743-.326 1.335-.115 1.278-.058 1.208.035 1.115.14.51.115.49.152.45.196.408.233.675.312.65.198.616.115.582.024.522-.06.465-.115.405-.186.314-.233.22-.29.115-.315v-.35l-.128-.37-.255-.373-.187-.2-.22-.184-.558-.372-.732-.372-.743-.36-.79-.28-.822-.207-.836-.14-.86-.07-.86-.01-.87.07-.848.126-.825.2-.8.253-.768.314-.732.385-.66.44-.605.5-.545.56-.455.614zm21.354 17.81l-.302.265-.28.29-.23.303-.198.302-.152.314-.105.314-.057.325-.01.313.045.3.105.304.163.302.22.277.28.267.347.256.42.244.487.21.87.336.71.372.29.21.255.21.22.22.187.22.29.488.187.5.103.533.023.535.093.487.127.42.174.36.198.312.244.245.28.197.3.127.314.07.35.022.348-.048.372-.092.383-.163.382-.22.384-.268.383-.338.382-.383.35-.36.382-.36.917-.722 1.035-.743 1.16-.755 1.267-.767 1.336-.778 2.87-1.57.603-.254.512-.278.442-.302.348-.314.28-.337.197-.35.127-.37.07-.385-.012-.406-.058-.408-.128-.43-.188-.44-.232-.454-.29-.477-.337-.476-.372-.476-.73-.697-.617-.65-.5-.603-.383-.558-.303-.524-.197-.475-.127-.453-.046-.418.012-.384.07-.36.115-.326.163-.302.185-.29.21-.256.453-.476.558-.162.453-.21.36-.255.255-.29.175-.315.07-.314-.012-.313-.105-.302-.185-.28-.268-.23-.336-.198-.417-.116-.488-.057-.558.024-.627.127-.686.233-.628.128-.662.035-.685-.08-.722-.164-.743-.244-.767-.325-.788-.407-.813-.464-.837-.524-.86-.58-1.79-1.3-1.846-1.44-1.917-1.535-.337-.836-.337-.72-.336-.592-.35-.477-.347-.37-.338-.29-.335-.21-.326-.13-.313-.068-.3-.01-.292.022-.267.058-.476.175-.36.186-.267.336-.233.347-.186.36-.082.384v.21l.047.22.082.233.14.256.185.254.244.29.302.303.372.314.244.29.21.35.197.382.163.43.266.93.163.964.058.94-.035.838-.058.348-.093.302-.117.244-.14.163-.116.373-.08.36-.036.36.013.337.035.326.08.325.246.605.08.558.035.465-.013.686-.024.546.035.29.093.326-.08.417-.035.43.024.42.092.43.186.418.29.42.42.43.556.417.43.72.255.663.07.302.022.302-.023.268-.048.266-.21.5-.162.22-.174.22-.453.408-.555.37zm34.955 6.76l.15-.245.175-.197.21-.14.22-.093.243-.057.233-.012.244.034.244.07.234.104.197.14.175.175.15.186.117.234.07.244.024.267-.024.29-.115.42-.128.36-.152.3-.174.257-.174.21-.198.162-.395.186-.395.047-.36-.07-.314-.174-.116-.128-.092-.128-.197-.477-.094-.546.046-.65.197-.768zm-1.94-6.053l.674-.104h.58l.477.08.384.152.29.22.21.256.115.29.035.303-.047.314-.115.303-.197.278-.28.244-.335.185-.407.128-.476.047-.535-.035-.523-.08-.488-.117-.477-.186-.44-.267-.164-.116-.116-.13-.07-.127-.012-.128v-.128l.06-.128.08-.128.127-.116.314-.302.383-.256.453-.243.5-.21zM93.29 66.66l.476-.44.454-.302.417-.163.395-.023.338.08.348.198.325.28.314.37.174.42.082.394-.01.384-.093.36-.14.325-.2.29-.22.234-.244.186-.616.336-.325.116-.338.092-.336.047-.36.012-.383-.047-.418-.104-.21-.174-.164-.175-.128-.174-.093-.186-.08-.372.046-.372.14-.395.22-.395.29-.395.34-.407zm-.78 3.928l.78.21.824.09.848.013.825-.057.836-.105.802-.127 1.383-.29.732-.348.314-.08.28-.024.243.023.21.082.184.15.14.2.535.266.558.22.57.187.592.14.604.092.638.034.673-.02.687-.094.44-.162.187-.024.174.012.256.116.092.093.058.117.023.29-.105.314-.105.163-.15.164-.186.15-.22.14-.465.466-.198.244-.163.255-.115.267-.106.278-.046.29-.012.315.034.627-.01.616-.072.58-.104.57-.14.545-.185.513-.233.5-.267.487-.29.465-.338.44-.36.43-.394.407-.43.407-.454.382-.975.72-.826.617-.813.672-.812.732-.8.778-1.593 1.64-1.533 1.707-.5.556-.477.465-.476.384-.478.302-.465.21-.465.14-.453.058-.454-.024-.44-.092-.43-.175-.43-.244-.43-.314-.418-.372-.42-.453-.417-.51-.406-.57-2.103-3.856-.16-.337-.187-.302-.22-.267-.256-.244-.268-.21-.303-.185-.674-.28-.767-.174-.847-.08h-.92l-.986.07-.535.023-.45-.052-.43-.105-.372-.15-.302-.2-.255-.243-.185-.267-.116-.314-.048-.326.035-.348.104-.36.198-.36.29-.372.373-.36.477-.36.57-.338 3.217-1.626 1.487-.813 1.395-.813 1.277-.813 1.186-.812 1.058-.813.93-.814.3-.358.303-.292.3-.22.315-.14.348-.07.396.023.45.118.51.198zm15.348 6.947l-.872.325-.847.465-.826.593-.813.697-.8.78-.79.858-.79.93-.79.964-1.616 1.998-.837 1.01-.847.988-.894.964-.92.918-.95.848-.966.778-.522.234-.395.278-.15.163-.13.162-.127.337-.01.174.01.162.163.314.127.14.174.127.478.21.453.198.42.233.348.257.348.3.302.292.267.36.22.382.187.43.604-.023.557.022.512.057.477.092.44.128.396.15.732.373.64.442.58.487 1.09 1.046.28.453.128.42.023.382-.045.372-.197.384-.117.36-.057.314.013.302.057.267.128.245.164.22.21.21.266.523.163.22.21.198.256.14.3.08.372.035.44-.045 3.51-.105 1.29-.01 1.046.022.872.08.767.13.708.185.71.267.94.267.418.06.395.034.372-.012.336-.058.314-.082.302-.128.267-.15.244-.187.232-.22.21-.257.36-.58.3-.685.7-.326.29-.186.243-.21.208-.21.175-.22.255-.465.14-.49.022-.476-.07-.453-.14-.428-.208-.546-.14-.546-.047-.535.034-.534.104-.533.21-.51.29-.524.372-.5.232-.3.278-.326.593-.662.325-.244.266-.093.187.035.07.06.058.07.035.208-.035.244-.116.256-.21.233-.593.65-.465.64-.325.604-.21.57-.092.533.01.51.117.49.21.476.314.325.302.256.29.186.29.116.28.058h.29l.267-.058.28-.105.266-.14.268-.185.523-.465.523-.547.512-.592.197-.15.232-.117.255-.093.3-.058.687-.023.8.093.884.21.965.312 1.023.418 1.068.523 1.092.615 1.103.72 1.094.802 1.07.894 1.02.977.488.523.477.534.464.557.44.595.802 1.185-1.684-3.74-.883-1.767-.478-.86-.51-.824-.548-.803-.592-.767-.662-.743-.708-.708-.778-.663-.86-.592-.94-.593-1.036-.546-.255-.128-.22-.163-.186-.174-.128-.185-.082-.22-.047-.233.013-.244.047-.28.058-.36.01-.335-.022-.29-.047-.256-.093-.21-.105-.173-.127-.128-.15-.093-.164-.035h-.163l-.174.047-.174.093-.163.14-.15.196-.15.244-.118.29-.21.43-.21.29-.22.186-.21.093-.22.035-.232-.012-.51-.046-.268-.082-.21-.14-.138-.196-.094-.232-.057-.29-.01-.327.01-.744.116-.72-.023-.604-.14-.5-.243-.395-.15-.162-.175-.14-.395-.21-.44-.127-.49-.035-.498.036-.5.116-.488.175-.464.255-.407.302-.336.36-.267.418-.162.465-.047.51-.104.396-.174.29-.105.106-.116.092-.28.093-.324.023-.362-.058-.406-.117-3.16-2.01-.255-.185-.174-.174-.094-.174-.035-.187.013-.174.058-.187.2-.36.498-.186.395-.244.163-.152.128-.16.21-.373.115-.417.034-.476-.023-.5-.08-.546-.303-.418-.303-.28-.302-.15-.29-.07-.302-.01-.29.022-.605.035-.767-.21-.627-.267-.498-.29-.395-.326-.29-.35-.187-.347-.105-.35-.012-.348.128-.594.047-.51v-.432l-.07-.36-.116-.28-.162-.22-.197-.162-.243-.115-.28-.06-.3-.034-.674.035-.72.105-.755.142zm12.058 27.335l1 .314.87.232.756.14.626.057.51-.023.408-.08.29-.152.105-.093.082-.116.07-.256-.023-.302-.117-.325-.22-.384-.326-.407-.407-.43-.5-.43-.58-.452-.638-.58-.28-.2-.266-.103-.267-.01-.292.126-.337.268-.382.43-.522.487-.348.43-.164.397-.022.36.092.313.21.29.302.257.37.243zm2.254 7.132l.964 1 .813.917.697.847.58.766.465.71.37.65.292.592.197.558.14.5.08.476.023.44-.01.42-.106.79-.152.766.326-.08.337-.13.338-.197.325-.292.28-.395.23-.51.164-.63.08-.777-.44-3.66-.187-1.592-.196-1.417-.232-1.243-.315-1.07-.185-.452-.22-.418-.256-.36-.29-.302-.28-.244-.313-.21-.675-.313-.732-.21-.766-.115-.453.07-.418.116-.36.186-.325.22-.278.257-.232.3-.186.326-.128.36-.07.383-.023.406.035.42.092.417.163.44.21.43.29.43.337.42zM91.43 96.157l-6.295 4.635-.477.29-.15.14-.105.14-.06.15-.01.14.07.28.255.51.152.174.15.104-.173.58-.093.524v.418l.046.15.082.13.116.08.15.035.197-.012.232-.058.617-.302.836-.582.464-.255 1.034-.512 1.475-.604.87-.3.93-.27.976-.23 1.02-.153 1.036-.093 1.01.023 1.034.14.51.115.5.15.488.198.477.232.465.268.453.324.256.222.243.172.244.116.244.08.233.048.21-.01.196-.036.174-.08.162-.117.127-.14.105-.16.07-.222.047-.232v-.256l-.023-.278-.08-.302-.152-.29-.186-.256-.395-.534-.164-.29-.116-.34-.035-.393.058-.466.034-.28-.01-.254-.06-.244-.104-.21-.128-.185-.162-.16-.186-.13-.198-.092-.22-.056-.22-.034-.233.01-.22.06-.233.104-.21.14-.208.186-.174.244-.257.28-.232.197-.233.138-.244.08-.546.094-.72.07h-.454l-.348-.08-.245-.14-.116-.187-.023-.21.104-.208.21-.197.383-.152.315-.034.28-.07.232-.106.185-.14.14-.16.093-.175.034-.197-.01-.197-.083-.198-.128-.198-.2-.197-.254-.174-.336-.152-.396-.127-.43-.092-.545-.058-.117-.44-.14-.373-.162-.326-.174-.245-.186-.22-.185-.175-.198-.128-.186-.093-.185-.046-.162-.012-.163.024-.128.058-.115.093-.094.117-.058.14-.023.173-.012.627-.07.302-.07.3-.128.268-.15.243-.2.222-.24.185zm7.552 35.2l-.662.835-.58.814-.5.802-.396.802-.29.8-.162.814-.023.418v.42l.045.43.082.44 2.81-3.242.722-.627.707-.57 1.278-.976.534-.418.44-.373.336-.348.21-.315.233-.72.103-.604-.012-.52-.115-.408-.093-.174-.116-.15-.128-.118-.152-.092-.36-.117-.407-.022-.442.07-.465.174-.487.267-.477.347-.465.453-.442.546-.396.64-.335.72zm12.988-5.135l-.245-.582-.15-.523-.07-.464.022-.396.105-.36.186-.313.255-.267.348-.232.57-.35.57-.243.58-.15.58-.024.605.116.627.268.64.418.336.267.337.326.406.418.42.396.848.708.87.593.872.487.907.384.918.29.94.198.953.116.963.035.977-.035.987-.104 1-.163 1.02-.22 1.012-.28 1.033-.312 1.032-.36-.824.894-.418.43-.466.43-.487.418-.558.383-.617.372-.698.326-.79.29-.906.256-1.023.21-1.162.15-1.3.094-1.465.023-1.638-.036-1.824-.115.302 1.683.197 1.545.104 1.405.013 1.28-.07 1.16-.15 1.046-.233.93-.302.823-.36.732-.442.65-.488.57-.546.488-.593.418-.628.35-.674.3-.708.256.43-1.057.348-1.045.245-1.023.162-1 .08-.998v-1.01l-.07-1-.127-1.022-.197-1.034-.243-1.057-.64-2.207-.79-2.37-.897-2.58zm-7.435-22.34h1.812l1.696.06 1.603.104 1.522.15 1.44.187 1.406.22 2.696.512 1.023.35.836.394.36.22.313.23.267.257.245.28.197.288.163.314.14.336.092.36.116.79v.917l-.01.546-.072.487-.15.418-.22.35-.14.14-.173.126-.407.176-.51.082-.63-.01h-.405l-.325.057-.244.116-.174.153-.093.197-.082.22-.035.512-.105 1.662.035 1.104.046.383.08.303.187.406.22.29.22.314.095.22.07.268.058.36.035.454.035.442v.36l-.047.313-.07.257-.128.21-.15.173-.198.128-.233.094-.58.116-.72.046-1.882.07-.78.058-.673.105-.57.15-.488.187-.395.22-.325.245-.267.266-.197.302-.14.314-.093.325-.058.337-.024.36.024.708.08.71.024.498-.022.43-.07.372-.105.314-.14.28-.174.22-.198.185-.22.153-.513.21-.58.115-.605.047-.616.034-.524-.024-.51-.093-.466-.174-.43-.268-.186-.162-.174-.186-.28-.44-.196-.548-.08-.65.023-.453-.012-.407-.047-.36-.08-.3-.117-.27-.126-.22-.164-.186-.186-.162-.418-.233-.465-.15-1.02-.187-.465.082-.418-.036-.36-.08-.313-.152-.256-.198-.197-.244-.138-.278-.093-.29-.025-.314.035-.326.093-.303.15-.29.21-.268.29-.233.338-.198.42-.127.255-.105.232-.163.21-.197.185-.244.14-.268.115-.29.082-.315.046-.313.01-.313-.022-.303-.07-.29-.105-.268-.15-.244-.198-.197-.232-.162-.29-.105-.432.024-.348.07-.267.116-.197.14-.14.173-.093.2-.105.44-.058.453-.105.43-.093.186-.128.16-.197.14-.255.093-.535.138-.477.048-.43-.01-.37-.094-.314-.15-.268-.2-.21-.255-.174-.303-.115-.337-.07-.372-.036-.395.012-.418.058-.43.105-.44.138-.43.174-.443.255-.592.21-.58.16-.594.13-.592.15-1.173.035-1.184-.012-.465-.035-.463-.104-.918-.01-.465.023-.465.08-.487.163-.512.198-.36.128-.14.14-.103.336-.116.35-.01.358.092.35.21.15.127.152.16.232.396.15.186.187.152.454.232.512.105h.28l.255-.034.267-.07.245-.105.22-.15.197-.185.163-.23.128-.28.08-.338.024-.372.023-.488.106-.348.08-.13.106-.09.256-.14.314-.07.383-.035.935-.062zm-14.718 22.665v.267l.046.255.093.243.127.232.175.232.21.22.232.2.278.196.64.348.73.304.814.23.882.176.918.105.906.035.942-.035.94-.117.896-.208.836-.302.78-.395.347-.232.325-.254.348-.337.302-.338.256-.325.21-.313.29-.604.13-.546v-.5l-.13-.43-.104-.185-.128-.176-.163-.15-.174-.14-.417-.198-.487-.116-.534-.023-.57.08-.593.187-.605.302-.593.43-.29.267-.28.29-.44.28-.442.244-.918.372-.895.243-.953.15-.964.07-.987.013-1.986-.05zm-7.714 11.93l1.185-2.95.546-1.51.5-1.533.453-1.557.394-1.592.326-1.638.257-1.685.093-.302.128-.267.162-.22.186-.187.22-.14.245-.104.278-.058.314-.023 2.323.094 1.103-.012 1.057-.058 1-.104.917-.15.837-.222.697-.267.697-.36.605-.406.244-.232.208-.233.15-.256.105-.255.046-.28-.024-.28-.08-.29-.164-.302-.255-.3-.326-.315-.43-.325-.52-.325-.43-.186-.164-.128-.186-.152-.15-.186-.14-.22-.117-.28-.094-.313-.047-.372-.024-.43.01-.488.06-.57.232-1.347.43-1.684.22-.72.21-.733.16-.743.117-.72.057-.697.012-.674-.048-.627-.104-.58-.163-.5-.232-.44-.105-.187-.162-.164-.174-.14-.197-.104-.43-.14-.51-.023-.594.104-.66.243-.256.267-.257.22-.255.187-.267.152-.558.186-.57.046-.592-.07-.616-.173-.628-.278-.65-.372-.744-.278-.686-.163-.603-.036-.28.035-.256.08-.22.116-.21.163-.186.197-.15.255-.13.302-.092.35-.07.394-.034.464-.21.662-.243.558-.256.488-.29.395-.29.326-.315.257-.314.186-.325.128-.336.082-.325.047-.65-.036-.618-.14-.557-.185-.44-.187-.408-.128-.372-.058-.326-.01-.292.034-.255.082-.22.128-.187.163-.152.197-.127.232-.174.534-.07.627.012.663.104 1.29.163 1.056.116.453.15.407.162.372.22.326.245.313.29.28.35.255.395.244.963.476 1.23.477.432.058.36.094.302.116.243.163.197.21.152.278.116.35.08.44.198 1.87.117 1.965.047 2.03-.036 2.115-.104 2.172-.174 2.254-.244 2.313-.29 2.375zm2.846-52.102l-.326 1.64-.302 1.695-.255 1.778-.22 1.882-.163 1.952-.105 2.114-.048 2.264.034 2.416.01.662.082.546.14.442.15.383.257.683.058.35-.023.394-.058.42-.128.36-.36.673-.21.383-.185.452-.163.57-.116.71-.278.277-.29.245-.337.197-.35.15-.394.094-.416.023-.442-.045-.475-.116-.35-.105-.313-.127-.28-.163-.243-.187-.196-.21-.14-.22-.093-.244-.023-.267.06-.697.138-.51.186-.395.234-.35.22-.36.21-.44.162-.605.094-.824.092-1.615.128-1.556.163-1.475.186-1.407.22-1.336.255-1.278.28-1.198.312-1.104.337-1.068.383-1.034.395-.93.442-.894.464-.836.5-.778.535-.72.556-.663zm-18.32-.824l.522 2.325.546 2.31.302 1.162.348 1.15.383 1.15.454 1.115.51 1.14.594 1.148.673 1.127.78 1.127.882 1.127 1.01 1.117.547.557.58.558 1.278 1.104.685.29.325.105.326.025.313-.08.152-.106.15-.14.15-.187.14-.243.29-.65.21-.593.046-.244v-.232l-.035-.21-.07-.196-.092-.174-.14-.163-.336-.314-.452-.303-1.08-.65-.964-.697-.92-.79-.602-.592-.582-.615-.57-.685-.557-.71-1.057-1.485-1-1.57-.964-1.683-.94-1.732-1.834-3.59zm-2.463 8.958l-.488 1.452-.396 1.5-.29 1.52-.186 1.546-.082 1.534.035 1.51.14 1.463.256 1.406-1.58.858-1.43.872-1.3.882-1.173.895-1.046.906-.94.906-.838.917-.744.93-.65.928-.57.953-.49.94-.428.953-.372.954-.325.964-.278.965-.244.976.64-.85.696-.8.72-.78.778-.72.814-.697.86-.65.893-.616.952-.57 1-.522 1.046-.477 1.102-.44 1.15-.384 1.198-.35 1.254-.29 1.313-.254 1.37-.186.895-.01.836.046.79.105.732.163.65.232.606.302.266.174.244.21.22.22.2.243.417.406.407.302.395.22.36.14.348.07h.313l.292-.08.244-.13.22-.174.185-.232.14-.28.092-.3.047-.337v-.36l-.058-.383-.105-.395-.01-.337.023-.313.08-.303.14-.278.175-.256.22-.244.28-.22.312-.197.547-.222.21-.128.174-.175.128-.29.08-.407.024-.57-.023-.778-.036-.453-.058-.406-.105-.36-.126-.313-.152-.267-.174-.232-.197-.174-.21-.14-.22-.093-.22-.057-.233-.012-.232.036-.22.07-.22.104-.222.15-.21.198-.453.628-.43.465-.21.175-.22.128-.43.15-.22.024-.232-.01-.5-.14-.57-.268-.626-.396-.674-.058-.65-.174-.627-.267-.59-.372-.57-.477-.535-.557-.51-.663-.465-.755-.43-.836-.384-.93-.337-1.01-.303-1.104-.243-1.173-.197-1.267-.14-1.335-.08-1.41z"/>
</svg>
