<!--
  SVG Music Logos
  Sex Pistols v1.0.0
  https://github.com/tiagoporto/svg-music-logos
  Copyright (c) 2016-2018 Tiago Porto (http://tiagoporto.com)
-->
<svg xmlns="http://www.w3.org/2000/svg" viewBox="0 0 200 121.526">
  <path d="M194.475 65.805V59.05l-1.69-1.528-1.447 1.367c-8.203-1.208-13.27-1.53-18.577-8.124h-9.49c-1.688 0-1.044 1.367-2.733 1.367-4.182 0-17.854-6.193-21.714-6.675-.16 1.608-1.367 1.367-1.85 1.93l-1.69-1.608c2.494-1.126 6.435-1.77 10.777-2.573l-1.367-1.528 1.367-1.288c-3.458-3.62-2.654-4.343-2.654-8.123 0-.242 0-3.137 1.126-6.998-1.045.724-1.126.644-1.126-1.045 0-1.69.08-1.77 1.206-1.126l-1.206-1.607c2.01-2.413.483-6.192 2.654-7.962l-1.367-1.366c.563-.483 1.367-1.126 1.287-2.815V2.433h-5.79c-1.448 1.608-1.53 4.343-5.39 2.734.08 2.09-3.698 3.378-5.79 4.584l-2.17-2.01c-1.046 2.09-3.62 2.734-3.94 2.734-1.69 0-1.77-.563-2.736-1.367-2.895 4.18-6.112 2.17-10.696 5.387L108.1 13.13l-1.366 1.367-1.367-1.045c.483.965-.24 1.126-.644 1.69l-2.17-2.012c-.162 1.69-.162 2.01-1.85 2.01-1.69 0-1.127.08-1.69-.32l1.287-1.45c-7.238.08-18.658-.08-26.378-3.538-.563-.24-3.94-.483-6.273-2.01-.403 2.975-7.24 1.044-9.57 1.527.723.964.08 1.205-.403 1.768-2.252-3.297-5.63-1.608-7.64-1.93v3.056l1.287 1.206-1.367 1.367c1.448 1.608 1.367 1.69 1.367 3.378 0 .16-3.62 14.797-4.02 15.44l1.286 1.288-1.287 1.367 1.287 1.367-1.287 1.367c.724.885 1.287.322 1.287 2.01 0 1.69-.08 1.127-.965.644.402.965.965.322.965 2.01s-.08 1.127-.965.725c.402.884.965.32.965 2.01 0 1.69-.08 1.126-.965.644 1.126 1.608 1.69 1.608 1.69 3.297v7.962l-1.69 1.85-1.69-1.69.966-.965.966.564-1.287-1.608 1.366-1.287-1.367-1.368 1.366-1.367-1.367-1.367 1.366-1.287-2.976-3.055-1.367 1.367-1.367-1.367-1.367 1.367-1.288-1.367-1.367 1.367-1.367-1.367c-3.217 3.297-8.927 1.367-14.717 4.02l-1.527-1.286c-.24 1.607-1.448 1.366-2.573 2.653l-1.448-1.367c-.24 1.69-1.448 1.448-2.573 2.654l-1.288-1.287-1.367 1.287-1.445-1.286c-1.025 1.655-3.05 2.155-4.417 3.31.154.027.155 1.033.155 1.033L4.28 57.844l1.367 1.287L4.28 60.5c.885 1.448 4.664 11.42 4.664 14.154 0 1.69-.724 2.413-1.85 1.77L8.3 77.948l-1.366 1.366c1.367 2.895 2.734 7.077 2.734 8.766 0 1.69-.16 1.126-1.206.402 1.206 4.423 2.573 8.444 3.86 12.224l-1.367 1.528c.563.402 2.01 3.056 2.01 4.664 0 7.8 1.53 13.108 11.984 11.66 2.17-4.342 19.702-3.055 28.227-4.02 1.77-2.172 4.1-3.78 8.042-2.654.4-.885 3.216-7.318 7.88-7.318 1.69 0 3.136 1.207 4.584 2.654 4.664-.24 11.26 3.378 17.21 4.504-.724-1.045 0-1.206.483-1.85h7.88c1.85 1.93 4.585 1.93 6.113 3.378l1.447-1.367c3.217.724 6.514 2.654 9.49 4.02 1.367-2.572 5.227-2.653 7.88-2.653 1.69 0 2.574.643 4.344 1.207-.723-1.125-1.286-1.206.403-1.206 1.69 0 .322 1.367 2.01 1.367 1.69 0 .323-2.01 2.012-2.01 1.69 0 2.493 1.206 3.458 2.01.24-1.688.24-2.01 1.93-2.01 1.206 0 3.217-.724 3.378-.724 1.208 0 12.868 2.09 19.06 2.573-.723-1.127-1.286-1.208.403-1.208 1.69 0 1.126.563 2.01 1.045-.4-.965-.964-1.045.644-1.045 1.69 0 1.69 1.367 3.378 1.367s2.976-1.45 3.378-2.012l1.126 1.287c4.744 2.332 13.992 3.62 21.31 5.95l-1.287-1.527 1.367-1.367-1.367-1.286 1.367-1.367-2.654-2.734c1.207-1.045.965-2.332 2.654-2.493l-2.01-2.252c.643-2.573 2.01-4.504 3.377-7.318l-1.367-1.367c.563-.402 1.367-1.045 1.367-2.734V77.867c-2.17-2.17-3.378-3.538-3.378-5.227 0-1.688.723-1.768 1.93-1.125l-1.288-1.608c.4-.286.964-.36 1.488-.268-.076-.138-.12-.423-.12-1.02-.002-1.69 1.365-1.126 1.365-2.815zM46.02 78.592c-.644 3.54-1.207 16.808-1.046 17.934.16 1.206-.322 4.905-.322 4.905l-.16 8.043s-16.487.32-18.82-.16c-2.33-.484-5.548-.805-5.548-.805l-4.02.322s-.162-4.182.32-6.916c.564-2.654.564-9.892.564-9.892s1.77-12.304 1.77-15.763c0-3.54 1.366-14.155 1.366-15.844 0-1.69.483-4.664.483-4.664s7.238.32 9.41.482c2.25.16 8.122.644 8.122.644l1.527-.322S40.47 57.762 42 59.05c1.527 1.366 4.663 2.25 4.663 2.25s0 13.754-.644 17.292zm47.045-58.144c.804-.643 7.238-.16 7.238-.16s-.322 3.377.32 5.066c.645 1.608 3.54 16.727 3.54 16.727l1.287 6.274s-.965-14.798-1.448-17.29c-.563-2.573-.16-8.283-.16-8.283s-1.69-3.136-1.69-4.02c0-.804.644-1.528 2.01-1.69 1.288-.16 10.938-.16 13.11-.16 2.17 0 10.052-.643 10.052-.643l4.182-.16s0 17.29 1.045 19.46c.966 2.173.483 8.767.483 8.767l.483 7.4s-14.074.642-16.406.482c-2.412-.16-11.26-1.528-11.26-1.528l-4.905 1.367s-2.17-.724-2.815-.32c-.724.32-4.745 1.848-4.745 1.848s-4.02 3.297-4.02 1.287-.645-9.892-1.368-12.385c-.643-2.573-2.654-14.476-2.654-14.476l-.16-5.872s6.997-1.047 7.882-1.69zm-31.123 64.66c0 1.205-.483 3.86-.483 3.86l.32 4.583.162 6.354-.643 2.493s-6.756.724-7.56.724h-2.816s-.563-5.548-.402-6.594c.16-.965.16-4.986.16-4.986l.725-1.85s-1.367-3.7-.885-6.755c.563-2.975.16-10.615.16-10.615l.403-4.825s4.986.483 6.032.483h2.976s1.528.724 2.01 1.69c.563 1.044.563 3.698.563 3.698s-.724 10.614-.724 11.74zM63.15 57.6c-2.655.322-7.4.322-7.4.322s-.483-16.325-.16-20.186c.32-3.86 1.205-9.088 1.205-9.088l-.402-8.846 25.735-.16s-.32 21.31-.482 22.436c-.16 1.206-1.69 14.315-1.69 14.315s-14.154.805-16.807 1.207zm44.39 45.84l-10.132.322s-6.192 2.01-6.192 1.045c0-1.046-2.332-13.11-2.734-15.844-.322-2.654-.965-4.343-1.287-5.87-.32-1.53-1.045-7.72-1.045-7.72s-1.528 6.352-1.287 8.04c.16 1.69-.24 6.113-.24 6.113l-.644 7.156s-8.204-.322-9.57-.322h-6.193s-1.206-11.42-.563-13.752c.724-2.332.402-11.74.402-11.74l.483-4.263s4.18.4 5.387.4c1.126 0 4.986.323 4.986.323l6.434.16-.322-4.905s9.248-.643 11.26-.965c2.01-.322 6.19-.322 6.19-.322l5.71-.883v10.615l-.482 10.696.643 13.993-.805 7.722zm37.638 2.01s-13.51.644-15.843-.16c-2.332-.804-5.87-.644-5.87-.644l-7.4.804s-.965-12.224-.965-13.43.483-3.7.483-3.7-.16-14.475-.16-15.28c0-.884.482-7.076.482-7.076s-.483-3.217-.483-4.664c0-1.528-.563-4.745-.563-4.745s6.915-.483 8.282-1.206c1.367-.642 7.077-.16 7.077-.16l1.286 1.045 3.217-1.85 6.916-.16 2.975.16s1.045 7.4.563 10.213c-.563 2.895-.24 10.615-.24 10.615s-.323 10.616-.162 12.304c.16 1.608.563 6.353.563 6.353l-.162 11.583zm32.892-4.664c-2.01.16-7.72.483-7.72.483s-2.493-14.797-2.895-16.807c-.32-2.01-1.126-6.595-1.126-6.595l-2.172-7.88s-.402 12.303-.402 14.314c0 2.01-.32 9.41-.32 9.41l.16 2.653s-.965.885-2.654.885c-1.69 0-11.58-.16-11.58-.16l-2.896.16s.32-11.098.32-12.465c0-1.367 0-10.374.162-12.063.24-1.69 0-8.605 0-8.605l.884-4.02s5.55 0 6.514-.162c1.045-.16 6.595-.483 6.595-.483l3.218.16-.402 6.033v2.01s6.916-1.044 9.41-1.206c2.572-.162 5.548-1.127 5.548-1.127l5.388.643s.885 12.144.885 13.11c0 1.044.32 9.408.32 9.408l1.69 10.776s-6.917 1.287-8.927 1.528z"/>
  <path d="M76.374 20.556c.996.192 1.93.49 2.8.902l1.073.508-.34 1.127-1.288 4.262-.553 1.83-1.556-1.1c-1.127-.795-2.23-1.194-3.31-1.194-.846 0-1.65.166-2.36.495-.138.063-.272.133-.4.208-.134.077-.26.16-.38.243l-.005.006-.005.004-.027.02c-.485.324-.86.663-1.14 1.03-.272.36-.48.775-.633 1.258-.124.432-.186.814-.173 1.138.01.253.07.48.19.676l.056.096.04.098c.044.11.137.268.272.466.138.204.37.512.665.89.268.3.628.68 1.03 1.102.367.388.77.81 1.144 1.22l.01.01.004.003-.003.003c.93.975 1.672 1.866 2.232 2.68.615.893 1.038 1.72 1.28 2.492h-.002c.288.798.407 1.653.372 2.578-.035.893-.215 1.852-.53 2.887h.003c-.585 1.95-1.636 3.713-3.118 5.217-.27.272-.572.552-.907.838-.334.285-.666.545-.994.78l-.02.015-.006.004-.02.016c-1.268.83-2.59 1.467-3.99 1.9-1.403.434-2.865.658-4.403.658-1.32 0-2.504-.135-3.56-.42-1.11-.298-2.073-.758-2.902-1.392l-.757-.58.274-.904 1.287-4.262.54-1.78 1.54 1.027c1.458.97 2.818 1.457 4.143 1.457.634 0 1.204-.08 1.718-.237.51-.157.984-.394 1.428-.71l.016-.012c.548-.38.984-.928 1.303-1.572.075-.15.136-.286.183-.405.045-.114.096-.26.15-.432v-.005l.002-.006.01-.016c.29-.863.305-1.578.05-2.14v-.002c-.09-.18-.2-.366-.326-.56-.13-.205-.303-.453-.505-.736l-.047-.07c-.33-.528-.81-1.072-1.436-1.63l-.037-.032-.054-.058c-1.08-1.163-1.97-2.134-2.67-2.91l-.048-.066c-.355-.443-.665-.865-.92-1.264-.274-.43-.494-.846-.65-1.252-.308-.767-.462-1.627-.45-2.587.01-.9.17-1.886.486-2.97l.01-.037c.45-1.393 1.08-2.63 1.89-3.73.808-1.1 1.792-2.064 2.95-2.91l.032-.02c2.33-1.612 5.082-2.42 8.258-2.42 1.08.002 2.11.09 3.09.28z"/>
  <path d="M101.268 36.13l-7.157 1.287.805 5.71c.16 1.206.322 1.93.483 2.252.16.32.402.482.724.4.483-.08.724-.32.804-.803.08-.483 0-1.367-.16-2.735l-.564-3.458 5.308-.965.24 1.93c.242 1.688.322 2.975.322 3.86 0 .884-.16 1.85-.563 2.975-.403 1.126-.966 1.93-1.69 2.654-.724.562-1.69 1.044-2.895 1.205-1.206.24-2.252.16-3.217-.16-.965-.323-1.77-.886-2.413-1.61-.563-.803-1.045-1.688-1.367-2.653-.402-1.045-.644-2.493-.965-4.504l-1.045-7.72c-.402-2.332-.402-4.182-.16-5.63.24-1.366.803-2.572 1.688-3.457.884-.883 1.93-1.447 3.217-1.607 1.528-.32 2.895-.08 4.02.563 1.127.724 2.012 1.69 2.574 3.056.643 1.367 1.126 3.297 1.528 5.87l.483 3.538zm-6.192-3.377l-.24-1.93c-.242-1.367-.403-2.252-.564-2.654-.16-.323-.402-.484-.724-.484-.322.08-.563.322-.644.643 0 .4.08 1.286.322 2.814l.24 1.93 1.61-.32z"/>
  <polygon points="106.897,47.952 115.02,34.039 106.334,22.137 112.446,21.815 118.076,29.777 122.66,21.253 128.691,20.931 121.373,33.878 130.863,46.665 124.59,47.068 118.397,38.382 113.09,47.63 106.897,47.952"/>
  <path d="M21.57 57.683l11.018.563c2.976.16 5.227.563 6.755 1.207 1.608.643 2.735 1.448 3.54 2.573.723 1.045 1.205 2.332 1.366 3.86.24 1.448.24 3.7.16 6.836l-.24 4.263c-.162 3.136-.564 5.388-1.208 6.836-.643 1.368-1.69 2.414-3.217 3.137-1.528.724-3.458.965-5.87.885l-2.895-.162-1.045 19.783-10.938-.563 2.574-49.217zm10.456 9.007l-.643 12.546c.32 0 .563 0 .804.08 1.045 0 1.69-.24 2.172-.804.4-.563.642-1.77.723-3.54l.24-4.1c.082-1.608-.08-2.734-.482-3.297-.482-.483-1.367-.804-2.814-.885z"/>
  <path d="M58.966 99.904h-5.63V80.12h5.63v19.784zm.483-25.896c0 1.126-.322 2.17-.966 2.976-.643.804-1.447 1.287-2.332 1.287-.885 0-1.69-.482-2.332-1.286-.643-.885-.965-1.85-.965-3.056 0-1.207.322-2.17.965-2.976.644-.885 1.448-1.287 2.332-1.287.885 0 1.69.402 2.332 1.287.643.805.965 1.85.965 3.056z"/>
  <path d="M180.885 77.386l-4.825.724-.24-1.608c-.162-1.287-.323-2.09-.484-2.413-.08-.403-.402-.484-.724-.484-.322.08-.563.24-.643.643-.162.32-.162.803-.08 1.447.16.885.24 1.528.4 1.93.162.402.403.804.885 1.206.402.483 1.287 1.045 2.654 1.77 1.768 1.044 2.974 2.01 3.618 3.055.643.965 1.045 2.574 1.367 4.584.322 2.332.322 4.1.16 5.388-.24 1.206-.803 2.252-1.608 2.976-.804.804-1.77 1.287-3.056 1.448-1.366.24-2.653.08-3.7-.483-1.125-.562-1.93-1.366-2.41-2.492-.564-1.126-.966-2.895-1.288-5.227l-.24-1.366 4.905-.724.24 1.77c.162 1.527.403 2.492.564 2.975.162.402.484.643.805.563.402-.08.644-.24.804-.563.08-.322.08-.965-.08-2.01-.162-1.368-.403-2.172-.644-2.494-.24-.32-1.448-1.205-3.54-2.573-1.85-1.206-2.975-2.332-3.538-3.458-.483-1.127-.804-2.494-1.045-4.102-.322-2.252-.322-3.94-.08-5.066.24-1.207.724-2.09 1.528-2.815.885-.724 1.85-1.206 3.057-1.367 1.207-.16 2.252-.08 3.137.24.965.403 1.69.886 2.252 1.61.563.723.885 1.447 1.045 2.09.242.643.403 1.69.644 3.136l.16 1.69z"/>
  <path d="M82.208 75.536l-5.308.16-.08-1.366c0-1.207-.08-1.93-.16-2.252-.162-.322-.403-.483-.805-.483-.32 0-.563.16-.724.483-.16.322-.24.724-.24 1.287 0 .804.08 1.448.16 1.77.162.4.403.803.805 1.206.483.403 1.367 1.046 2.654 1.85 1.768 1.046 2.975 2.092 3.538 3.057.563.965.885 2.413.965 4.262 0 2.09-.08 3.7-.483 4.824-.402 1.045-1.045 1.93-2.01 2.573-.966.563-2.092.884-3.46.965-1.527 0-2.814-.24-3.94-.804-1.045-.563-1.85-1.448-2.252-2.493-.483-1.045-.724-2.654-.804-4.825v-1.206l5.227-.24.08 1.688c.08 1.367.162 2.252.323 2.654.08.483.402.644.804.644s.724-.16.885-.483c.08-.24.16-.885.16-1.77-.08-1.205-.16-2.01-.4-2.33-.242-.242-1.45-1.127-3.54-2.655-1.85-1.207-2.895-2.332-3.378-3.378-.402-1.045-.643-2.332-.643-3.78-.08-2.09.08-3.62.403-4.584.402-1.045 1.045-1.77 2.01-2.332.966-.643 2.172-.884 3.46-.965 1.286-.08 2.412.16 3.296.563.964.402 1.688.965 2.17 1.608.483.724.804 1.367.965 2.01.08.564.16 1.53.24 2.816l.083 1.526z"/>
  <path d="M143.49 83.176c0 4.504-.162 7.72-.323 9.57-.24 1.85-.885 3.62-1.93 5.147-1.126 1.61-2.573 2.735-4.423 3.62-1.85.803-4.02 1.206-6.514 1.206-2.332 0-4.423-.403-6.273-1.127-1.85-.804-3.378-2.01-4.504-3.54-1.126-1.607-1.77-3.296-2.01-5.146-.242-1.85-.322-5.147-.322-9.73v-7.72c0-4.585.08-7.72.322-9.652.16-1.85.804-3.62 1.93-5.147 1.045-1.528 2.573-2.734 4.423-3.62 1.85-.803 4.02-1.205 6.433-1.205 2.332 0 4.423.402 6.353 1.206 1.85.723 3.298 1.93 4.504 3.538 1.126 1.528 1.77 3.297 2.01 5.147.162 1.85.323 5.067.323 9.73v7.72h.002zM132.07 68.38c0-2.172-.082-3.46-.323-4.022-.24-.643-.643-.884-1.367-.884-.563 0-1.045.24-1.367.724-.322.402-.483 1.85-.483 4.182v20.99c0 2.573.08 4.262.32 4.825.242.643.725.965 1.45.965.803 0 1.286-.402 1.447-1.126.24-.643.322-2.332.322-4.986v-20.67z"/>
  <polygon points="88.722,68.701 106.173,62.267 106.173,69.987 100.785,72.32 101.831,99.26 93.708,103.282 93.065,74.008 87.998,76.421 88.722,68.701"/>
  <polygon points="149.842,63.956 157.241,63.312 155.552,87.117 162.629,85.428 161.583,93.229 147.831,95.883 149.842,63.956"/>
</svg>
