<svg xmlns="http://www.w3.org/2000/svg" viewBox="0 0 200 200" class="slash--south-park">
  <style>
    .slash__white{fill:#FFFFFF;}
    .slash__st1{fill:#E5CC6C;}
    .slash__st2{fill:#BE6122;}
    .slash__st3{fill:#1D1D1B;}
    .slash__st4{fill:#582D15;}
    .slash__st5{fill:#341A0B;}
  </style>
  <path class="slash__white" d="M149.328 151.94c.753 2.07 2.932 6.7 3.77 9.964.26 1.02 3.268 3.77 2.765 8.126-.503 4.355-4.776 10.134-13.992 9.464 0 2.513.133 8.247 0 10.134 4.525.42 7.96 5.36 1.76 5.276-6.2-.084-59.235 1.033-61.245.92-2.01 1.34-11.17 5.692-25.805 1.17-2.68 0-8.737.756-7.26-2.677-2.012-1.954-7.04-10.716-6.592-18.395-.67-1.65-1.812-7.12-.028-9.558-2.318.204-4.552-.8-6.228-2.03-1.676-1.228-7.373 1.92-9.942-3.84-1.974 0-5.465-1.293-5.81-5.082-.053-.568.976-3.477.336-5.26-.647-1.806-2.908-2.494-2.793-4.913.112-2.346 1.117-3.9 1.005-5.412-.112-1.512-2.556-4.83-2.57-6.65-.027-3.684 1.342-4.8 1.342-6.14s-3.35-4.69-3.016-8.822c.335-4.132 2.007-3.908 2.456-6.142.45-2.233-2.68-4.243-1.562-7.147 1.117-2.903 2.01-3.015 2.234-4.69.223-1.675-2.126-5.583-.672-8.263 1.454-2.68 3.912-2.51 3.912-4.27 0-1.76-2.234-5.78-1.564-8.014s2.123-2.345 2.346-3.685c.223-1.34-.782-2.903-.447-4.243.335-1.34 1.117-1.563 1.117-3.015s-.447-3.462.112-4.802c.56-1.34 1.787-1.452 2.346-2.68.56-1.228-.335-4.467.67-5.36s1.787-1.675 1.787-2.903-.448-4.132 0-4.69c.446-.558 1.228-1.228 1.116-3.462-.112-2.233-2.045-3.15-.56-5.695 2.347-4.02 7.374-5.472 8.156-6.477.782-1.005.408-3.635.894-4.802 1.117-2.68 4.692-4.83 9.495-6.365.77-3.785.85-5.003 4.525-7.257C80.107-3.37 113.217-2.61 137.682 11.74c4.858 2.85 4.86 5.36 5.195 7.873s.614 13.065.838 13.958c.223.894 1.117 2.458 2.57 2.123 1.45-.335 5.138-.893 5.696.893.56 1.787 1.565-.112 2.012 1.563.447 1.674.96 3.237 1.932 3.572.973.335 3.095.223 3.095 3.238s.334 4.802 2.457 6.142c2.123 1.34 8.713 8.864 7.93 15.934-.78 7.07-4.69 9.08-5.026 11.2-.334 2.123 2.124 3.272 1.9 4.93-.223 1.66-2.01 3.67-2.01 5.456s2.497 4.706 1.806 6.54-1.696 1.054-1.696 2.17c0 1.117 1.452 3.797.894 5.807-.56 2.01-1.626 2.01-1.65 3.796s1.427 3.015 1.315 4.913c-.113 1.897-.67 2.456-.56 3.796s1.005 3.685.223 5.36c-.782 1.675-1.9 2.233-1.9 3.238s.218 5.194-1.23 6.115c-1.45.92-4.02 1.697-4.13 2.76-.07.654-1.86 4.18-3.87 5.798-.908.73.65 1.67 1.467.832 3.63-3.73 3.86-6.63 8.434-6.63 1.285 0 1.013-1.256 2.01-1.51 1.65-.42 1.687.455 2.68.09 1.59-.586 6.183-3.39 8.757-3.425 2.874-.04 3.51 1.47 4.512 2.81s2.765 1.17 3.268 3.02c.244.898-.42 4.238 0 4.712.42.475.838 3.46-.586 4.103-1.424.643-7.97 1.9-9.766 2.82-1.796.922-6.39 3.975-8.15 4.02s-6.1-.79-8.14-.47c-3.268.51-8.63 2.65-8.63 2.65z"/>
  <path d="M143.697 37.537c1.582.495 6.198-1.005 7.035 0 .838 1.005.67 3.015 1.843 3.35 1.173.335 1.396.726 1.508 1.508s.67 1.117 1.675 1.34 1.787 2.233 1.563 4.243c-.222 2.01 1.23 2.792 2.458 3.908s8.152 9.268 7.705 14.628S162.01 76.9 162.01 79.02c0 2.123 2.346 2.79 2.346 4.242 0 1.454-2.568 4.188-2.233 5.612.335 1.424 2.01 3.434 1.898 4.774-.11 1.34-2.12 1.74-2.12 2.936s1.562 3.317 1.562 5.327-2.568 3.574-2.233 5.138 2.456 4.02 1.786 6.253c-.67 2.234-1.228 2.57-.67 3.91.558 1.34 0 4.466-.893 5.47-.893 1.006-.893 1.9-.558 2.57.335.67-.112 3.796-1.563 4.13-1.452.336-3.218.448-3.73 1.34-.514.894.156 3.463-.96 4.468s-4.914 1.898-4.914 2.568c0 .67 1.563 4.453 1.34 5.68-.223 1.23 2.286.155 4.9-1.297 2.613-1.453.776-4.02 3.977-5.22 6.434-2.417 12.618-4.86 14.07-5.305s4.076.503 5.528 3.35c.776 1.522 1.563 5.934-.375 6.606-4.21 1.46-6.313 2.47-13.025 5.12-1.87.738-7.37-.67-9.492-.223s-7.537 2.457-10.663 3.74l-6.868 26.745c0 1.005.39 11.837.474 12.674.084.838.084 1.508.754 1.675.67.168 2.345.168 2.345.755 0 .586-.754.984-3.476 1.005-3.73.03-84.462 1.256-86.472 1.256s-2.29-2.066-.503-2.513c1.787-.447-6.365-5.583-5.918-14.182.447-8.597 4.243-14.516 2.68-14.404-1.563.112-7.817 2.01-10.273-.447-2.456-2.458-2.12-1.34-3.46-1.006-1.34.335-4.825 1.75-6.478-2.01-.785-1.785-1.117-2.01-2.345-2.01-1.228 0-3.685.112-3.35-4.132.335-4.243 2.233-2.68 2.01-4.467-.223-1.787-5.248-1.452-4.69-6.142s1.675-3.573 1.787-4.913c.112-1.34-4.132-3.35-3.238-7.258.893-3.908 3.436-1.63 2.792-4.69-.22-1.05-4.132-1.117-4.132-7.258s2.68-4.467 3.238-6.812c.558-2.345-4.132-2.568-3.238-6.477.893-3.908 2.568-2.568 3.015-5.137s-2.567-3.127-1.34-6.812c1.23-3.685 3.574-2.903 3.91-5.472.334-2.568-2.234-3.908-1.676-7.147.558-3.238 2.68-2.122 3.015-4.355.334-2.233-1.118-3.685-.783-4.913.335-1.23 1.228-1.564 1.117-3.016s-.782-2.903.558-4.578c1.34-1.675 2.568-4.132 2.457-6.365-.113-2.232 2.01-2.12 1.897-4.354-.112-2.233-.893-3.573.67-5.36 1.563-1.787.782-2.903-.223-4.913-1.005-2.01 1.452-5.472 4.132-7.37s4.913-1.117 5.137-3.127c.223-2.01-1.1-4.977 4.355-7.705 2.903-1.45 4.913-1.227 4.913-1.227v-2.345c0-8.933 30.365-18.62 47.016-18.62 18.254 0 35.055 5.337 42.877 12.478 1.703 1.554 2.903 3.127 2.903 5.248V35.58c0 1.343 1.002 1.607 2.12 1.957z"/>
  <path class="slash__white" d="M172.842 132.258c.135.458.838 3.98 1.563 4.293s2.624-.922 2.96-2.146c.334-1.224-.902-2.675-1.736-2.782-.833-.106-2.788.636-2.788.636z"/>
  <path class="slash__white" d="M169.917 133.122c.134.95 1.51 4.134 2.05 4.3 0 0-3.683 1.957-3.465 1.397.218-.56-1.485-3.885-1.814-4.11-.328-.227 3.23-1.588 3.23-1.588z"/>
  <path class="slash__white" d="M166.05 139.788c.31.223-2.643.986-2.922 1.097-.28.112-1.235-3.98-1.678-4.53l2.908-1.106s.708 3.832 1.693 4.538z"/>
  <path class="slash__white" d="M172.842 138.82c.05.6 1.023 4.37 1.377 4.613l-2.855 1.16s-1.314-4.043-1.65-4.322l3.127-1.45z"/>
  <path class="slash__white" d="M166.422 141.444c.41.5 2.097 3.984 2.08 4.31-.875.35-2.974.882-3.42.77-.447-.11-1.843-2.065-1.396-3.014s2.736-2.066 2.736-2.066z"/>
  <path class="slash__white" d="M175.69 137.815c-.328.455.68 4.124 1.253 4.434s2.715-.738 3.13-1.81c.415-1.074-.53-3.24-1.158-3.24s-2.974.267-3.225.615z"/>
  <path class="slash__white" d="M132.642 126.034c1.172.474 3.015 1.954 3.518 3.63-1.675 2.68-6.533 19.262 1.675 29.814 0 7.37 2.178 16.296 2.178 17.835-23.227 8.463-52.707 6.9-92.237 2.656.636-6.918 2.02-17.045 3.584-26.057 1.73-9.975 3.683-18.583 5.083-19.958 2.666-2.617 4.348-5.465 6.774-5.8 4.937 2.345 41.062 14.843 69.425-2.12z"/>
  <path class="slash__st1" d="M122.78 130.395c-5.193 20.435-37.875 28.803-52.28 1.668 9.547 2.68 41.392 5.87 52.28-1.668z"/>
  <path d="M130.824 125.03c.335 1.86 1.484 21.215-9.906 30.763l-13.233 2.848-2.345-7.034s13.065-5.863 15.913-21.943l9.57-4.634z"/>
  <path class="slash__st2" d="M123.597 131.505c-10.218 13.568-38.023 16.415-54.27 1.005 15.075 4.858 39.2 8.038 54.27-1.005z"/>
  <path class="slash__st2" d="M71.714 34.525c2.773-.552 14.363-2.934 31.56-2.404 16.087.497 24.577 3.058 35.063 8.71 2.28 1.23 3.308-.153 0-2.232-1.607-1.01-4.355-2.568-7.705-3.797.197-1.768.26-19.518.085-24.752-6.807-3.36-15.84-5.838-25.754-6.81.68 7.082.762 21.182.762 26.603-10.458-.933-24.51.287-34.388 2.616-3.434.81-2.764 2.694.377 2.07z"/>
  <path class="slash__st1" d="M154.082 100.735c-1.005 3.803-22.307 40.15-55.29 40.15-11.878 0-35.533-2.518-56.433-30.653.837-2.848 1.172-6.198 0-7.035s-3.686-1.24-2.346-2.463c1.34-1.222 5.36-2.73 5.695-5.577.334-2.848-4.02-4.02-3.52-5.193.504-1.173 2.514-2.01 3.184-3.35.67-1.34-1.005-2.848 1.005-3.685s3.517-1.676 3.684-2.68-2.345-2.43-2.01-3.31 1.342-1.5 1.508-2.386c.335-1.787 2.345-.558 2.345-1.787s-3.685-3.015-3.238-5.025 5.136-2.792 5.47-5.695c.336-2.903.336-4.802 1.9-5.025 1.562-.223 3.46-1.005 4.242-1.787s3.015-.112 4.467-1.563c1.45-1.452 9.044-1.005 11.277-2.01 2.233-1.005 8.04-.67 9.38-1.34s7.37-1.34 9.827-.447 7.705 0 10.497.223c2.793.223 6.924-.335 8.376.112 1.452.447 6.923 1.34 8.263 1.228 1.34-.112 4.466 1.675 5.582 1.675s4.69-1.005 5.918-.112c1.228.894 2.122 2.234 4.132 2.793 2.01.558 1.098 3.573 2.448 4.132 1.35.558 3.694 2.68 3.583 4.578-.112 1.898-1.452 2.122-.893 3.685.558 1.563 1.898 2.792 1.898 4.243 0 1.453-.223 3.658 2.01 4.51 2.233.85 2.457 2.638 1.898 3.866-.558 1.228-2.01 3.127 0 3.573 2.01.446 3.462 1.004 3.015 2.344-.446 1.34-2.232 2.68-1.34 4.355s3.574-.224 3.463 1.45c-.112 1.676-1.452 2.68-.782 3.463.67.784 1.99 2.117.782 4.742z"/>
  <path d="M106.542 66.958c2.352-.567 5-.743 8.54-.276 4.44.586 6.322 1.55 7.706 2.457.838.548 1.843.502 1.982-.504.085-.615-.552-1.137-2.01-1.815-2.346-1.088-6.61-2.234-11.85-2.232-3.6 0-7.09.963-7.077 2.15.006.724.67.712 2.71.22z"/>
  <path d="M89.218 67.04c-.293 1.14-2.803.47-4.536.48-3.616.024-6.488.336-10.33 1.396-3.237.893-4.73 2.792-5.47 1.787-.6-.815.437-1.97 2.51-2.91 2.82-1.278 5.85-2.177 9.633-2.42 5.24-.335 8.62.003 8.193 1.666z"/>
  <path class="slash__st3" d="M102.917 125.03h-14.57c-.576 0-1.042.45-1.042 1.004 0 .555.466 1.005 1.04 1.005h14.572c.575 0 1.04-.45 1.04-1.006 0-.555-.465-1.005-1.04-1.005z"/>
  <path class="slash__st2" d="M65.32 88.193l-19.884-3.227c.097.54.208 1.108-.062 1.648-.106.213-.255.41-.417.6l19.96 3.227.404-2.247z"/>
  <path class="slash__st2" d="M148.237 82.214l-19.47 6.426.668 1.892 19.4-6.184c-1.194-.322-1.02-1.215-.598-2.134z"/>
  <path d="M110.42 70.97c-7.188 0-12.618 4.833-14.116 11.527C94.788 77.15 90.78 71.54 82.51 71.54c-12.044 0-18.543 10.72-19.548 18.258-1.367 10.254 5.942 18.258 13.512 18.258 11.502 0 18.49-8.025 20.226-16.852 2.66 8.427 11.473 16.182 19.415 16.182 9.482 0 15.917-7.462 14.517-17.42-1.507-10.72-9.603-18.997-20.21-18.997z"/>
  <path class="slash__st1" d="M136.16 129.663c3.015 3.183 13.954 24.285 15.075 31.323 3.35 4.02 2.827 10.286 1.005 12.518-2.178 2.67-3.924 3.96-7.558 2.844-2.187.893-5.404 1.103-5.74-1.577-1.786-.222-3.787-1.557-2.782-4.85-2.903-.838-4.802-6.7.503-8.376.335-1.452.353-3.642-1.134-5.858-2.888-4.304-4.685-15.4.63-26.023z"/>
  <path class="slash__st2" d="M111.537 156.965c-1.228-3.852-7.263-10.72-14.435-8.543-7.172 2.178-10.02 9.045-13.872 9.045-3.853 0-14.74-5.193-26.633-1.508-11.534 3.573-14.23 16.708-10.72 27.453 3.908 11.964 18.622 14.033 25.293 13.508 13.53-1.063 16.942-14.38 22.724-15.67 9.268-2.065 11.83 1.04 16.128.26 3.04-.553 3.748-2.772 2.297-4.2-1.09-1.07-6.03-.747-6.982-3.446-.946-2.682 2.18-7.52 7.763-10.2 0 0-.334-2.847-1.563-6.7z"/>
  <path class="slash__white" d="M59.5 171.37c.335 2.568-1.775 6.48-5.248 7.147-3.473.666-10.685-.223-9.81-8.263 2.244 3.93 9.475 8.82 15.058 1.116z"/>
  <path class="slash__st1" d="M58.16 132.064c3.462 2.205 5.36 9.715 4.355 18.76-.335 3.865-1.697 9.874-3.49 12.758-.642 1.033 3.6.586 4.104 3.6.467 2.81-1.034 3.854-2.486 4.356-1.452.503-1.284 4.885-6.728 5.64s-9.81-1.62-9.8-7.4c.005-2.018 1.775-6.05 3.33-6.304.028-6.36 4.042-25.436 10.714-31.41z"/>
  <path class="slash__st4" d="M102.498 170.617l3.812-1.165c1.3-2.1 3.658-4.283 6.79-5.787 0 0-.08-.663-.293-1.76l-13.33 1.51c.084 4.606 3.02 7.202 3.02 7.202z"/>
  <path class="slash__white" d="M116.73 163.582l-14.232 5.694s-2.937-2.765-3.02-7.372c4.465-1.632 25.935-9.31 25.935-9.31l-8.683 10.988z"/>
  <path class="slash__st1" d="M120.917 155.793l-20.858 6.64-.583-.528c2.178-.963 25.936-9.31 25.936-9.31l-4.496 3.198z"/>
  <path class="slash__st4" d="M181.97 137.214c.17-1.353.453-1.605-.04-2.86-.438-1.112-1.92-1.326-2.388-2.01-1.48-2.173-2.645-2.537-6.227-1.203-2.083.776-6.897 2.91-11.867 4.11-3.477.84-4.56 5.888-6.876 6.586-1.217.366-54.616 20.21-54.616 20.21.457 1.87 1.423 4.568 2.87 6.143 0 0 50.53-19.904 53.042-20.827s8.94.81 10.798.042c3.796-1.57 11.406-4.558 13.98-5.267 2.574-.71 1.198-3.9 1.325-4.924zm-19.764-.614c3.852-1.197 9.63-3.488 10.77-3.885 2.15-.748 3.23-.558 3.607.41.447 1.144.353 1.997-2.066 2.902-2.462.922-8.772 3.507-10.92 4.245-2.99 1.03-3.396-3.048-1.39-3.672zm15.846 4.88c-2.302.92-9.606 3.744-11.978 4.547-2.182.74-3.13-2.356-1.234-3.14 3.48-1.443 8.59-3.774 11.437-4.723 1.507-.502 2.822-.5 3.263.757.533 1.518-.772 2.274-1.488 2.56z"/>
  <path class="slash__st5" d="M114.33 163.66c4.215-1.66 9.178-3.613 14.192-5.584l-2.628-5.658c-4.967 1.842-9.87 3.662-14.056 5.216l2.492 6.025z"/>
  <path class="slash__st5" d="M108.58 158.843l-8.623 3.203c.457 1.87 1.423 4.567 2.87 6.142 0 0 3.398-1.34 8.46-3.33l-2.706-6.015z"/>
  <path class="slash__white" d="M106.138 166.884c.203-.08.438-.172.657-.26l-2.66-6.13-.45.167 2.453 6.224z"/>
  <path class="slash__white" d="M109.126 158.64l-1.276.474 2.172 6.24.806-.316c.233-.092.486-.19.727-.286l-2.43-6.112z"/>
  <path class="slash__st1" d="M117.21 162.525l.97-.382-2.36-5.988c-.277.102-.55.203-.82.305l2.21 6.065z"/>
  <path class="slash__st1" d="M121.36 160.892l1.037-.408-2.242-5.938-.912.338 2.117 6.008z"/>
  <path class="slash__white" d="M125.235 159.368l1.005-.395-2.3-5.83-.712.263 2.007 5.962z"/>
  <path class="slash__white" d="M147.05 150.798l1.07-.42-2.468-5.278c-.353.13-.713.263-1.08.4l2.478 5.298z"/>
  <path class="slash__white" d="M82.75 177.792l-5.26 1.998c-.366.14-.778-.047-.916-.412l-4.24-11.17c-.14-.364.046-.776.41-.914l5.262-1.998c.365-.14.777.047.915.412l4.242 11.17c.138.363-.047.775-.412.914z"/>
  <path class="slash__white" d="M99.854 171.257l-3.867 1.468c-.365.14-.777-.047-.915-.41l-3.768-9.926c-.14-.366.047-.778.412-.916l3.867-1.468c.365-.14.777.047.915.412l3.768 9.925c.138.363-.047.775-.412.914z"/>
  <polygon class="slash__st2" points="73.257 177.202 72.915 176.736 83.989 172.365 84.332 172.831"/>
  <polygon class="slash__st2" points="71.302 172.92 71.302 172.451 83.137 168.188 83.137 168.69"/>
  <path class="slash__st1" d="M149.988 143.502l3.15 4.915c1.46-.57 2.437-.946 2.732-1.055.287-.105.647-.173 1.05-.218l-2.6-5.223c-.594.21-2.133.773-4.332 1.582z"/>
  <path class="slash__st5" d="M134.848 155.588c.406-.16.81-.32 1.214-.477l-1.737-5.82-1.347.5 1.87 5.798z"/>
  <path class="slash__white" d="M134.08 155.89l.95-.373-2.08-5.715c-.19.07-.383.14-.574.212l1.703 5.877z"/>
</svg>
