<!--
  SVG Music Logos
  Soda Stereo - Me Véras Volver v0.1.0
  https://github.com/tiagoporto/svg-music-logos
  Copyright (c) 2016-2018 Tiago Porto (http://tiagoporto.com)
-->
<svg xmlns="http://www.w3.org/2000/svg" viewBox="0 0 200 30">
  <path d="M70.63 19.06h5.078c-.022.206-.033.356-.033.448 0 .184.017.38.05.588.033.207.094.46.182.76.31.854.863 1.534 1.66 2.04.797.508 1.837.762 3.12.762 1.682 0 2.943-.334 3.784-1.002.71-.576 1.063-1.29 1.063-2.144 0-.853-.376-1.51-1.13-1.97-.375-.23-.796-.415-1.26-.553l-.896-.278-.697-.207-.365-.104-1.294-.345-1.89-.52c-2.324-.667-3.995-1.51-5.013-2.523-1.018-1.014-1.527-2.35-1.527-4.01 0-.74.1-1.557.3-2.456.375-1.705 1.327-3.054 2.854-4.045 1.615-1.06 3.706-1.59 6.273-1.59 2.744 0 4.902.606 6.473 1.816 1.57 1.21 2.523 2.944 2.855 5.203.044.23.066.454.066.673v.674H85.37v-.69c-.09-1.06-.51-1.897-1.26-2.507-.754-.61-1.816-.916-3.188-.916h-.564c-.266.046-.465.07-.598.07-.996.09-1.793.38-2.39.863-.288.23-.503.507-.647.83-.143.323-.215.668-.215 1.037 0 .69.254 1.233.763 1.625.09.068.227.15.415.24.188.093.58.243 1.178.45l.5.138.264.07 1.394.38 1.826.518.564.138 1.527.45c1.903.53 3.336 1.353 4.3 2.47.962 1.12 1.443 2.496 1.443 4.132 0 .714-.1 1.475-.3 2.282-.442 1.82-1.487 3.296-3.136 4.425-1.648 1.13-3.745 1.694-6.29 1.694h-1.328c-.398-.07-.686-.115-.863-.138-2.588-.324-4.613-1.326-6.073-3.01-1.372-1.588-2.058-3.512-2.058-5.77"/>
  <path d="M39.48 6.993h-4.53c-1.86 0-3.34.68-4.445 2.04-1.104 1.36-1.656 3.342-1.656 5.947 0 2.604.534 4.58 1.603 5.93 1.07 1.347 2.52 2.02 4.357 2.02h4.67V6.994zM44.743 2.5V27.39H34.67c-3.393 0-6.147-1.06-8.26-3.18s-3.173-4.99-3.173-8.61c0-1.175.116-2.35.348-3.527.58-3.134 1.842-5.514 3.782-7.14C29.307 3.312 31.81 2.5 34.88 2.5h9.863z"/>
  <path d="M15.92 12.11h-5.776l3.336 8.818 2.44-8.818zm9.634-9.61L15.82 27.39h-5.575L1 2.5h5.95l1.967 5.427h8.2L19.754 2.5h5.8z"/>
  <polygon points="90.518 6.993 90.518 2.499 110.916 2.499 110.916 6.993 103.31 6.993 103.31 27.391 98.089 27.391 98.089 6.993"/>
  <polygon points="112.3 27.391 112.3 2.499 130.692 2.499 130.692 6.959 117.52 6.959 117.52 12.11 129.171 12.11 129.171 16.604 117.52 16.604 117.52 22.897 130.9 22.897 130.9 27.391"/>
  <path d="M137.71 13.147h5.844c2.186 0 3.446-.853 3.778-2.558.048-.324.07-.566.07-.727 0-1.913-1.258-2.87-3.777-2.87h-5.917v6.154zm-5.383 14.244V2.5h11.334c2.733 0 4.807.43 6.22 1.295 1.414.864 2.3 2.207 2.655 4.028.047.207.083.507.107.9.024.39.036.598.036.62 0 1.338-.345 2.508-1.034 3.51-.69 1.002-1.616 1.723-2.78 2.16l-.713.174c1.094.138 1.997.645 2.71 1.52.713.877 1.07 2.087 1.07 3.63v1.42l.07.69.07 1.003c0 1.06.078 1.844.233 2.35.154.508.457 1.038.91 1.592h-5.55c-.314-.392-.528-.76-.647-1.106-.12-.346-.22-.922-.29-1.728l-.108-1.833v-.865c0-1.52-.34-2.622-1.016-3.302-.677-.68-1.717-1.02-3.12-1.02h-4.775v9.853h-5.38z"/>
  <polygon points="155.444 27.391 155.444 2.499 173.837 2.499 173.837 6.959 160.664 6.959 160.664 12.11 172.316 12.11 172.316 16.604 160.664 16.604 160.664 22.897 174.044 22.897 174.044 27.391"/>
  <path d="M180.02 14.945c0 .715.045 1.36.137 1.936.3 2.306 1.02 4.04 2.16 5.204 1.142 1.164 2.623 1.746 4.444 1.746 1.822 0 3.297-.576 4.426-1.73 1.13-1.152 1.856-2.892 2.178-5.22.092-.553.138-1.2.138-1.936 0-.715-.046-1.36-.138-1.936-.323-2.305-1.054-4.04-2.195-5.203-1.142-1.164-2.61-1.746-4.41-1.746-1.82 0-3.3.58-4.442 1.745-1.14 1.164-1.86 2.898-2.16 5.203-.047.277-.082.588-.105.933-.022.348-.034.682-.034 1.005m-5.498 0c0-2.236.317-4.16.95-5.774.635-1.612 1.62-3.018 2.957-4.217 2.212-2.028 4.99-3.042 8.33-3.042 3.343 0 6.12 1.015 8.333 3.043 1.337 1.198 2.322 2.593 2.956 4.183.633 1.59.95 3.526.95 5.808 0 2.26-.317 4.19-.95 5.79-.635 1.603-1.62 3.003-2.957 4.202-2.213 2.028-4.99 3.042-8.332 3.042-3.34 0-6.12-1.014-8.33-3.042-1.338-1.2-2.323-2.593-2.957-4.183-.634-1.59-.95-3.526-.95-5.808z"/>
  <path d="M51.613 14.945c0 .715.046 1.36.138 1.936.3 2.306 1.02 4.04 2.162 5.204 1.14 1.164 2.622 1.746 4.443 1.746 1.82 0 3.296-.576 4.425-1.73 1.13-1.152 1.856-2.892 2.178-5.22.092-.553.138-1.2.138-1.936 0-.715-.046-1.36-.138-1.936-.323-2.305-1.054-4.04-2.195-5.203-1.14-1.164-2.61-1.746-4.408-1.746-1.82 0-3.302.58-4.443 1.745-1.14 1.164-1.86 2.898-2.16 5.203-.047.277-.082.588-.105.933-.023.348-.034.682-.034 1.005m-5.498 0c0-2.236.317-4.16.95-5.774.635-1.612 1.62-3.018 2.957-4.217 2.213-2.028 4.99-3.042 8.332-3.042 3.342 0 6.12 1.015 8.332 3.043 1.337 1.198 2.322 2.593 2.956 4.183.634 1.59.95 3.526.95 5.808 0 2.26-.316 4.19-.95 5.79-.634 1.603-1.62 3.003-2.956 4.202-2.213 2.028-4.99 3.042-8.332 3.042-3.342 0-6.12-1.014-8.332-3.042-1.337-1.2-2.322-2.593-2.956-4.183-.633-1.59-.95-3.526-.95-5.808z"/>
</svg>
