<svg xmlns="http://www.w3.org/2000/svg" viewBox="0 0 124 200">
  <path d="M121.365 30.32c0-.03-.186-.01-.186-.04-.203.086-.684.573-.857.69-.318.086-.55.265-.81.438-.23.145-.434.29-.636.434-.318.058-.607.232-.896.376-.057.03-.086.087-.115.144v.087c-.29.114-.607.26-.81.462-.29.058-.607.03-.81.23-.405.52-1.214.926-1.822 1.186-.29.405-.926.694-1.36.897-.346.26-.664.52-.982.78-.635.32-1.33.377-1.82.926-.146.088-.29.175-.435.29-.925.26-1.562 1.215-2.487 1.388-.23.23-.434.463-.78.55-.03.028-.06.057-.06.086-.346.115-.78.49-1.098.49-.174.175-.318.348-.463.522-.463.26-1.07.665-1.562.867-.202.03-.405.058-.607.087-.202.29-.492.636-.752.838-.116.058-.23.144-.347.23-.06.06-.117.117-.145.175 0 .03-.723.26-.81.607-.203.03-.867.058-.867-.29h-.087c-.086-.606-.173-1.185-.26-1.763-.028-.78-.057-1.562-.086-2.313l-.087-1.793.087-.81c0-1.473 0-2.92.03-4.365-.03-.058-.06-.115-.088-.144.058-.2.144-.23.26-.404v-.347c0-.348 0-.695.03-1.042.057-.58.028-1.215.202-1.764 0-.607-.203-1.938.087-2.4.087-.26.174-.52.29-.78-.117-.29-.204-.58-.29-.84-.405-.29-.81-.578-1.185-.838-.116-.058-.203-.116-.29-.174-.375 0-.693.347-.982.55-.405.404-.636.866-.867 1.387-.202.288-.375.578-.548.866-.174.29-.318.607-.463.926-.088.174-.145.347-.203.52-.087.087-.174.174-.23.26-.03 0-.06.03-.088.058-.117.578-.522 1.1-.81 1.62-.088.057-.145.115-.203.2-.116.26-.202.52-.29.782-.086.03-.173.087-.23.145-.03.058-.03.145-.03.23-.2.32-.375.666-.548 1.013h-.117c-.058.115-.116.23-.144.376-.03.116-.03.23-.03.347h-.115v.145h-.087c-.087.145-.144.26-.318.347-.058.087-.115.174-.173.29-.058.578-.376.983-.665 1.446-.116.608-.434 1.273-.578 1.91-.318.317-.463.49-.578.982-.087.174-.174.376-.23.578-.03.116-.06.23-.06.376h-.086c-.058.058-.116.116-.145.202-.145.29-.29.55-.29.867-.115.347-.346.723-.548 1.04-.03.088-.03.175-.03.26-.172.32-.346.637-.49.955-.29.492-.492 1.33-.636 1.88-.086.434-.433 1.07-.664 1.446-.087.26-.145.52-.202.81-.03.115-.03.26-.03.405h-.115c-.03.06-.03.146-.03.232h-.058c-.03.087-.058.174-.058.29-.087.548-.376 1.502-.752 1.88-.058.057-.087.143-.116.23 0 .52-.463 1.156-.463 1.706-.203.58-.376 1.157-.55 1.764h-.087c-.145.202-.26.434-.376.665-.145.145-.29.29-.434.463-.23.174-.52.29-.665.58-.173.2-.346.404-.52.606-.145.29-.26.578-.376.867-.03.434-.058.867-.058 1.33-.145.144.116 1.677.29 1.995 0 .145.028.318.057.492-.03.55-.03 1.1-.03 1.677-.028.058-.057.145-.057.23.058.32-.145.753-.203 1.07-.087.204-.145.406-.202.608-.086.78-.173 1.562-.26 2.37-.288.724-.23 1.794-.23 2.575h.087c-.03.347-.058.723-.058 1.1 0 .144 0 .317.028.49.058.203.145.406.23.637.146.116.32.23.492.376.087.29.376.347.463.666.26.143.376.172.463.46.03.175.087.348.145.55.088 0 .06.26.06.347.26.087.23.145.375.376.03.03.087.058.145.116.087 0 .173 0 .29.028.288-.174.49-.174.866-.174.116-.376-.03-1.157.174-1.36.058-.924.145-1.937.376-2.833.03-.404.087-.81.145-1.214v-.202c.174-.26.145-.84.145-1.157.058-.405.145-.78.23-1.156.03-.317.06-.635.088-.953h.087c.087-.752.174-1.504.26-2.227.058-.26.116-.492.203-.723v-.03c0-.317.058-.78.29-1.01l.086-.955h.086c.03-.26.058-.52.116-.752.058-.405.145-.78.23-1.157 0-.144.03-.26.06-.376-.088-.26-.146-.492-.204-.723.116 0 .23.03.347.058 0-.058 0-.087.03-.116h.086c0-.087.03-.174.06-.23.028-.32.057-.608.115-.898.03-.03.058-.03.116-.03.03-.23.088-.462.145-.693.23-.174.347-.318.347-.636.03-.088.058-.174.115-.26.058 0 .145 0 .23.028 0 .03.03.087.06.144 0 .03.028.058.057.116.087-.058.202-.116.318-.144.058-.174.058-.203.23-.29.232-.115.464-.202.695-.288.174-.174.347-.318.55-.463v-.116c.202-.087.635-.115.78-.26v-.03c0-.057 0-.115.03-.173.26-.174.577-.26.896-.29 0-.028.03-.057.058-.086.06-.174.117-.347.175-.492.202-.145.405-.29.636-.405.088-.202.174-.375.26-.55.32-.143.58-.838.637-1.184 0-.058 0-.116.03-.144.404-.26.693-.29 1.01.03 0 .173 0 .346.03.52.115.23.23.462.376.693.058.723.116 1.446.202 2.198.087 0 0 .954 0 1.1.174 1.01.26 2.168.29 3.18v1.938c0 .145.028.29.057.463.116 0 .058.983.058 1.128.03 0 .087 0 .144.03-.058.03-.116.058-.144.116v.434c0 .376.03.752.058 1.128.03.145.058.29.087.463.03.377.058.78.087 1.186 0 .607.03 1.215.058 1.85.03.26.058.52.087.81v.088c.087 0 .087.723.087.84h-.087c.03.75.087 1.502.144 2.255.145.577.088 1.27.088 1.88.058.664.145 1.358.23 2.052 0 .347.03.694.06 1.07.115.26.173.665.202.983v.578c-.03.318-.03.636-.03.983 0 .087 0 .174.03.26.03.463.087.926.145 1.388 0 .26.03.52.058.78.03.32.058.666.087 1.013v.203h.058c.03.347.058.723.087 1.1.03.548.058 1.098.087 1.676.03.174.087.347.145.55.144.317.144 1.04.144 1.416 0 .347.03.694.06 1.04.115.753.23 1.534.346 2.314.173.26.058 1.07.058 1.417.347 1.07.23 2.37.578 3.47.058.405.087.376.29.665-.06.058-.088.144-.117.23-.03 0-.058 0-.087.03v.29c.03.086.087.172.145.26 0 .028.03.057.058.086h.088c0 1.475.347 3.036.636 4.482l.087 1.3c.348.637.32 1.59.348 2.314.115.607.23 1.215.347 1.822 0 .347 0 .694.03 1.07.057.26.115.52.2.78.348.52.175 1.186.493 1.678 0 .723-.174 1.677.29 2.256.057.23.115.463.172.723.29.288.203.606.203.982.03.144.116.347.03.434.173.636.26 1.272.75 1.764 0 .058.03.116.06.202h.115c0 .174.29.405.405.52.058.55.376.637.78.84.117.202.348.49.55.578.116.23.26.492.405.752.087.52.173 1.04.29 1.562.2.578.49 1.243.606 1.822.81.26.84.405 1.012 1.157.145.145.174.376.202.578.058 0 .116.03.174.06 0 .173.202.404.29.577.144.03.317.058.49.087v-.23h-.115c0-.175-.03-.232.087-.406v-.694c-.144-.058-.29-.087-.405-.116-.116-.23-.06-.347.115-.52-.058-.03-.087-.06-.116-.06 0-.028 0-.057.028-.086.145-.144.087-.52.087-.723-.29-.29-.23-1.418-.26-1.823-.058-.492-.116-.954-.174-1.417-.2-.52-.375-1.04-.548-1.533-.058-.984-.145-2.14-.463-3.094-.55-.55-.406-2.17-.406-2.834-.058-.146-.116-.29-.144-.406-.058-.58-.116-1.128-.174-1.677-.087-.087-.145-.173-.202-.26.26-.26-.347-2.284-.405-2.805-.146-.318-.03-.925-.03-1.272-.23-.232-.203-.752-.347-1.07-.087-1.128-.347-2.313-.578-3.412-.03-.29-.03-.58-.03-.868-.2-.52-.2-1.243-.23-1.793-.058-.318-.116-.636-.145-.954-.173-.347-.29-.78-.318-1.157-.03-.462-.058-.925-.087-1.388-.58-1.156-.463-2.718-.607-3.96-.058-.03-.115-.06-.173-.06.03-.086.058-.173.115-.23-.087-.318-.174-.636-.26-.925-.145-1.012-.26-1.995-.376-2.98-.03-.462-.058-.924-.087-1.387l-.173-.868-.087-1.157c-.116-.924-.203-1.85-.29-2.746-.23-1.1-.405-2.255-.405-3.383-.26-.52-.174-1.387-.174-1.937l-.087-.087c-.086-1.33-.346-2.66-.346-3.99-.058-.868-.318-1.736-.144-2.604v-.058c-.116-.52-.116-1.012-.116-1.533v-.346h-.087l-.087-2.458c-.058-.376-.087-.723-.116-1.07-.03-.144-.03-.29-.03-.434-.086-.52-.173-1.04-.23-1.533 0-.29 0-.58.03-.868-.03-.174-.06-.347-.06-.492v-1.012-.665c-.057-.405-.115-.78-.143-1.157-.028-.492-.057-.983-.086-1.446 0-.376 0-.75.03-1.128-.146-.144.028-.954.028-1.1-.144-.288-.115-.404-.058-.75l-.087-2.285c-.03-.52-.058-1.012-.058-1.504.028-.376.172-.723.288-1.07h.087c.26-.52-.03-.636.694-.636v-.174c.317-.202.404-.26.81-.26.288-.405.578-.376 1.07-.405 0-.29.664-.723.867-.867.23-.086.462-.172.723-.23v-.174c.376-.087.723-.405.983-.694.203-.607.26-.752.84-1.04.288-.232.577-.435.866-.637.115-.202.23-.405.346-.578.347-.203.723-.405 1.1-.58.23-.028 1.416-.2 1.416-.52.29-.23.694-.375.954-.635.29-.116.694-.174.838-.463.376-.175.723-.377 1.128-.406 0-.087 0-.173.03-.23.057 0 .114 0 .172.028v.145c.434-.087.607-.578.954-.81.347-.058.607-.173.867-.433.144-.03.318-.058.492-.087.26-.23.607-.492 1.012-.492.288-.347.346-.52.81-.636.028-.088.057-.175.086-.232.434-.116.868-.23 1.3-.318.088-.145.175-.26.29-.376.174-.174.347-.318.55-.463.578-.144.982-.78 1.59-.78.153-.064.13-.214.144-.318.024-.045.046-.11.005-.142-.234-.18-.216-.407.044-.587.028-.03-.02-.254.037-.254-.03-.088.253-.287.253-.344.035-.154.063-.335.005-.307zM95.108 44.363c-.03.318-.058.636-.087.983-.606.607-1.156 1.272-1.966 1.59-.405.318-.78.665-1.157 1.012-.29.086-.49.375-.81.375-.202-.203-.174-.405-.202-.636.03-.29.058-.55.087-.81v-.06c.03-.115.058-.2.087-.288.086-.203.172-.405.26-.608h.057c.03-.318.058-.49.26-.694 0-.144 0-.26.03-.376 0-.29.057-.347.23-.52.116-.55.23-1.07.347-1.59.03-.087.087-.174.144-.26 0-.03 0-.058.03-.058h.115l.26-.694v-.954c.03-.087.058-.173.087-.23.202-.232.694-.782.607-1.1 0-.202.03-.405.058-.578.03-.318.058-.636.087-.925.03-.116.058-.23.116-.318.058-.03.116-.058.174-.058v-.175h.636c.03 0 .087 0 .144.03.03.172.058.375.116.577 0 .145-.03.347.058.434v.087l.087.52c0 .782-.144 1.563 0 2.285 0 .58-.202 1.735.058 2.256v.636h.088v.144z"/>
  <path d="M29.87 108.53c-.143-.086-.346-.173-.49-.028h-.145c-.174-.058-.318-.115-.462-.173.03-.088.058-.175.087-.232.03-.087.087-.145.144-.203.174-.03.318-.173.434-.29.087-.115.173-.23.26-.317.173-.058.347-.116.55-.145.115-.405.953-.376 1.3-.405v-.116c.462 0 1.186-.462 1.59-.665h.144v-.087h.145v-.087c.174-.144.318-.405.578-.405.81-.058 1.706-.405 2.313-.954.058-.03.116-.058.203-.087.145-.058.32-.116.493-.145 0-.058 0-.087.03-.116.173-.115.346-.202.548-.29h.175c0-.057.03-.115.058-.173l.52-.173c.492-.347.838-.405 1.36-.607.086 0 .664-.087.52-.23.347-.088.578-.58.954-.58.087-.057.174-.086.26-.115.03-.03.087-.058.144-.087v-.144c.06-.03.145-.057.232-.057.087 0 .173.028.29.056 0-.087.028-.144.057-.202.144-.058.317-.116.49-.174 0-.434.984-.26 1.1-.52.174-.088.52-.32.723-.232.29-.29.55-.434.925-.578v.058h.145v-.087c.03 0 .087.03.144.06 0-.06 0-.117.03-.175.143-.144.288-.26.433-.376.23-.145.492-.29.752-.406.23 0 .55-.145.752-.23.087-.03.173-.03.29-.03v-.087h.143c0-.058 0-.116.03-.145h.173c0-.058 0-.116.03-.145.143-.087.317-.173.49-.26.06-.144.117-.29.203-.405.203-.087.405-.145.607-.203.058-.03.116-.06.202-.088-.03-.03-.03-.058-.03-.087.03-.03.06-.058.117-.087.086-.03.173-.03.288-.03v-.115c.144-.087.318-.174.492-.23.03-.088.058-.145.087-.204.174-.06.347-.116.55-.174 0-.087 0-.174.028-.26.173-.29.49-.463.752-.665.03 0 .087 0 .144.03.117-.087.26-.174.406-.23.03-.088.058-.175.116-.232 0-.145.23-.202.318-.23.116-.03.23-.06.347-.06v-.086c.116-.087.23-.144.376-.202v-.202c.144-.087.29-.174.462-.23.087 0 .55-.493.55-.493.202-.144.173-.318.492-.318v-.116h.347v-.086c.087-.202.145-.144.318-.202v-.144c.03-.03.058-.03.116-.03 0-.057 0-.086.03-.115h.115c0-.174.116-.174.23-.23.117-.06.232-.116.348-.145v-.116c.175 0 .26-.202.29-.376.144-.116.318-.202.492-.29.058-.028.116-.028.174-.028.058-.058.694-.723.867-.723.058-.318.23-.26.492-.347 0-.434.665-.463.838-.84.03-.028.058-.028.116-.028v-.144c.114-.116.114-.145.288-.145 0-.2.26-.46.434-.52.058-.115.116-.23.203-.346 0-.202.462-.58.58-.723.057-.086.143-.143.23-.202.116-.058.23-.115.376-.144.06-.116.117-.23.175-.347.058-.116.145-.23.23-.318.232-.29.463-.55.724-.81h.144v-.145h.087c0-.116.03-.23.06-.347h.086c.116-.23.23-.463.347-.694.173 0 .405-.405.463-.52.144-.088.29-.146.463-.203h.143c.173-.288.376-.81.665-.953 0-.058 0-.116.03-.144 0-.03.028-.058.057-.087.03 0 .058 0 .116.03.117-.117.232-.232.348-.32 0-.086 0-.172.03-.26l.173-.172h.117c0-.26.23-.29.347-.492.03-.144.058-.26.116-.376.087-.03.174-.058.29-.087.086-.26.086-.26.288-.348.058-.116.144-.202.23-.29.117-.288.233-.548.348-.81h.145c0-.086.03-.173.06-.26.317 0 .693-.635.693-.924.087 0 .29-.318.318-.405h.088c-.03-.116-.03-.202-.03-.29.06-.057.117-.115.175-.144.116-.175.23-.348.376-.52.057-.088.144-.175.23-.26.058-.406.23-.58.462-.868.347-.52.723-1.07.867-1.677h.086c.145-.52.376-1.388.84-1.706.46-1.33 1.098-2.893 1.445-4.28.088-.175.175-.348.26-.493.203-.723.464-2.053.868-2.69 0-1.098.29-2.255.376-3.353.03-.03.058-.03.116-.03-.03-.057-.058-.086-.058-.114.318-3.21.318-6.45.144-9.658-.116-.81-.26-1.446-.26-2.227-.202-.983-.58-1.908-.607-2.92-.175-.434-.175-1.07-.406-1.446 0-.232-.144-1.39-.318-1.476-.058-.174-.087-.318-.115-.463h-.115c-.144-.693-.202-1.416-.838-1.792-.058-.174-.087-.318-.116-.462h-.115c-.03-.058-.03-.087-.03-.116-.086-.173-.173-.318-.26-.463-.057-.202-.086-.376-.114-.55-.23-.2-.462-.404-.664-.606l-.26-.953c-.318-.087-.376-.203-.55-.52-.028-.145-.028-.26-.028-.377l-.087-.26c0-.405-1.07-.636-1.416-.636-.347 0-.03.752-.23.752h-.232c-.058.144-.087.29-.116.434-.058 0-.116.03-.174.058v.23c-.058 0-.116 0-.174.03 0 .087-.116.174-.202.202-.03.116-.03.23-.03.347h-.086c0 .058.03.116.058.202-.058 0-.116 0-.144.028v.173h-.174c0 .117-.087.146-.202.204-.03.03-.03.058-.03.115-.404 0-.317.664-.346.925.03 0 .058.03.116.058-.058.144-.116.29-.145.434-.144.116-.26.23-.376.376-.26 0-.434.087-.434.376-.26 0-.29.462-.318.664-.318.318-.23.665-.347 1.04-.058.03-.115.06-.144.088v.087c-.174 0-.405.288-.26.433-.145.318-.463.347-.55.752-.115.116-.23.23-.317.376-.058.117-.087.232-.116.348-.057 0-.086 0-.115.03-.03.057-.03.115-.03.172-.057 0-.114 0-.143.03h-.202c-.03.173-.03.346-.03.548l-.173.347h-.058v.434h-.088c-.058.172-.115.375-.144.577h-.116c-.058.058-.087.116-.115.202-.202 0-.318.057-.492.173h-.23c-.06.49-.088.983-.117 1.504-.087 0-.144.03-.202.058v.144h-.087c-.03.057-.06.115-.06.202h-.173v.173c-.058 0-.087.03-.116.058l-.086.52h-.145c-.06.203-.117.405-.145.636-.202.057-.376.115-.55.202 0 .058-.087.144.03.144 0 .203-.32.78-.406.954-.06 0-.117.03-.175.058v.145h-.145c0 .174-.115.29-.202.434-.03.145-.058.29-.058.434-.173.06-.347.117-.492.203-.058.174-.087.347-.116.52h-.115c-.116.347-.203.694-.29 1.04-.028 0-.057.03-.086.06-.086 0-.173.028-.23.057-.03.058-.058.115-.058.174h-.087c-.058.26-.116.52-.144.78-.115.06-.202.117-.288.204h-.144c-.03.202-.058.405-.058.607-.145.03-.26.087-.376.144-.087 0-.173 0-.23.028-.117.376-.203.752-.29 1.157-.116.03-.23.058-.318.087v.087h-.087c0 .2 0 .404.028.635-.116.405-.376.666-.462 1.04-.116.03-.203.06-.29.088v.145c-.173.087-.202.202-.202.376-.087 0-.144.03-.202.058-.058.087-.087.203-.116.318-.058 0-.087 0-.116.03 0 .086-.116.144-.174.173v.23c-.058 0-.087.03-.115.06v.462c-.028 0-.057.03-.086.058-.174 0-.376.665-.376.752h-.694v-.087h-.087c-.087-.202-.202-.202-.376-.29 0-.057 0-.115.03-.143h-.145c-.03-.145-.03-.26-.03-.376-.057-.03-.114-.06-.143-.06 0-.057 0-.115.03-.144h-.088c-.03-.173-.058-.347-.087-.52.087-.087.03-.897-.058-1.1.115 0 .057-.635.057-.75.087-.32.174-.637.26-.927.03-.03.058-.03.116-.03-.03-.058-.058-.116-.087-.144.087-.232.174-.232.174-.492.144 0 .202-.174.23-.318h-.115c.03-.058.058-.087.087-.116.058 0 .174-.29.144-.376v-.058c.087 0 .116-.29.087-.347v-.03c.058-.03.116-.058.203-.087-.03-.087-.03-.174-.03-.23.03-.03.06-.03.116-.03v-.173c.058-.03.116-.03.203-.03.03-.086.058-.173.087-.23h.058v-.23h.087c.087-.26.174-.522.29-.782.028-.058.057-.116.115-.145.087-.202.174-.318.318-.376.087-.347.174-.694.29-1.012.086-.202.2-.405.317-.607.144 0 .23-.578.318-.752.115-.173.23-.318.347-.462.03-.03.087-.03.144-.03 0-.317.087-.52.23-.81.088 0 .435-.722.58-.866.087-.26.23-.81.462-.954 0-.115 0-.23.03-.318.028-.03.086-.03.143-.03-.028-.115-.057-.2-.086-.288.087-.202.173-.405.29-.578.057-.058.143-.116.23-.174.116-.347.202-.897.578-1.04.116-.26.087-.406.405-.493 0-.434.492-.897.578-1.3.03-.03.058-.03.116-.03 0-.174.203-.26.232-.434h.116v-.232h.087c.058-.173.116-.318.203-.462.03-.03.058-.03.115-.03 0-.086.03-.173.058-.23.06-.03.26-.116.204-.174.087-.087.145-.116.145-.26.028-.03.086-.058.143-.058.03-.202.058-.405.116-.578.086-.145.086-.463.028-.636.058-.087.116-.174.202-.26.03-.087.058-.144.087-.202.03-.03.26-.405.23-.492.117 0 .26-.376.29-.462l.694-.347v-.203c.088-.03.203-.058.32-.087.028-.174.086-.347.144-.492h.115c0-.29.2-.607.23-.867.087 0 .203-.376.23-.463.145 0 .463-.52.493-.694h.087v-.086c0-.202.202-.405.347-.492h.087c0-.087.03-.173.058-.23h.087c0-.204.173-.26.26-.435.115-.26.26-.983.52-1.157 0-.087.028-.174.057-.23h.145c.03-.232.087-.435.144-.637.144-.058.202-.115.26-.26.03-.03.058-.03.116-.03 0-.086 0-.173.03-.23h.115c.03-.29.144-.405.318-.58.174-.433.578-.75.694-1.155h.086c0-.203.23-.29.405-.376.666-.23 1.33-.463 2.025-.665.463-.29 1.1-.55 1.59-.203.23.29.463.607.694.926.375.694 1.01 1.388 1.33 2.053h.086c.318.58.636 1.157.954 1.764h.116c.087.23.173.462.29.723.346.462.548 1.012.953 1.417l.607 1.388c.116.463.318.897.376 1.388.578.925.983 2.17 1.446 3.18.115.406.23.84.346 1.273.058 1.07.665 2.053.665 3.152.29.607.174 1.474.493 2.14.03.434.087.896.144 1.36-.03.548-.058 1.098-.058 1.676.086.925.2 1.822.2 2.747-.057.377-.114.753-.143 1.158 0 .607.202 2.574-.26 3.036-.03.52-.03 1.04-.03 1.59-.115.55-.202 1.1-.288 1.677-.088.32-.175.666-.26 1.013-.088 1.3-.58 2.545-.666 3.817l-.174.347c-.115.26-.55 1.157-.433 1.388-.058.058-.087.116-.116.203-.346.347-.346.81-.462 1.243-.087.32-.144.666-.202 1.013-.058.058-.087.144-.116.23H77.21c-.058.146-.115.29-.144.435-.26.462-.29 1.07-.405 1.56-.057.03-.114.088-.172.145-.26.116-.492.23-.723.376h-.116c-.117.52-.088 1.07-.406 1.532-.087.463-.087.81-.492 1.1-.144.375-.29.78-.434 1.185h-.115c-.203.405-.463.607-.636 1.04-.463.26-.55.58-.752 1.013-.55.26-.463.492-.55 1.012-.144.144-.29.318-.405.492l-.087.434-1.215 1.04c-.058 0-.116 0-.145.03-.058.203-.115.405-.144.607-.175 0-.203.347-.232.434-.23.172-.463.317-.607.548v.03c-.086-.03-.173-.03-.26-.03-.057.087-.115.203-.143.318 0 .087 0 .174.03.29-.088.028-.175.057-.232.115-.376 0-.29.203-.492.493-.173.03-.347.058-.492.087-.346 0-.288.03-.375.376h-.058v.58c.03 0 .087 0 .145.028v.202h-.145v.145c-.087.03-.174.06-.23.088-.608 0-.608.26-.782.636h-.087v.087c-.174.06-.318.117-.463.204-.03.03-.03.087-.03.144-.028-.03-.057-.03-.057-.03-.087.088-.23.203-.347.203-.057.377-.23.695-.375.984-.058 0-.116 0-.174.03-.2 0-.52.173-.664.115v.114c-.058 0-.116 0-.144.03-.03.028-.03.057-.03.115-.086 0-.173.028-.26.057-.057-.03-.114-.03-.143-.03-.06.232-.116.464-.145.724-.058.03-.116.06-.145.117h-.058c-.115 0-.23.03-.347.058 0 .144-.058.463-.145.55-.202.028-.405.057-.578.086-.087 0-.174.03-.26.06-.03.143-.058.288-.087.462-.058.03-.087.087-.116.145-.145.03-.29.058-.406.115h-.376v.116c-.087 0-.174.03-.26.058 0 .116-.174.174-.26.23-.03.03-.058.06-.058.088-.144.144-.087.405-.058.578-.174 0-.202.087-.318.202-.087.03-.174.058-.26.116-.145-.058-.78-.174-.78.03-.06 0-.088 0-.117.028-.434 0-.434.173-.55.578h.088c0 .26-.058.492-.318.578-.058 0-.087 0-.115.03 0 .143-.318.2-.463.26-.088.028-.145.086-.203.144-.087.318-.463.463-.58.723h-.23l-.087.088v-.087c-.434 0-.463.26-.694.55-.058.03-.116.06-.145.088-.086-.03-.172-.03-.23-.03-.174.204-.347.406-.492.608-.087.087-.174.174-.26.29h-.058c-.03-.06-.058-.088-.087-.116-.087 0-.492-.058-.492.087h-.115c-.116 0-.202.03-.29.058v.144c-.23 0-.173.086-.23.2-.116.03-.232.088-.318.146 0 .173-.174.29-.26.434-.087.03-.145.058-.202.087-.145.03-.26.058-.376.116v.174c-.06 0-.116.03-.174.058-.03.058-.03.116-.03.174-.2.028-.404.057-.577.114-.146.03-.29.058-.406.116-.03.03-.03.058-.03.116-.114-.116-.288-.087-.375 0H50.2c0 .087-.116.145-.174.173-.03.143-.058.288-.058.462-.087 0-.174.03-.23.058-.117-.115-.203-.23-.29-.318-.058-.03-.116-.03-.145-.03v-.086h-.144c-.028.03-.057.058-.057.087h-.087c-.144 0-.26 0-.376.03-.03.057-.058.143-.058.23-.116.116-.23.23-.347.376h-.058v.143h-.144l-.174.347c-.145 0-.26.03-.377.058-.03.058-.03.116-.03.174h-.086v.087l-.52.173c-.232.058-.377.173-.406.434-.462.173-.924.347-1.387.55l-.347.086c-.03.058-.058.116-.058.202-.03-.03-.058-.03-.087-.03-.057-.144-.115-.23-.057-.375-.058-.174-.116-.347-.174-.492-.232-.116-.29-.058-.493.087-.52 0-.52 1.186-.607 1.533-.03 0-.058 0-.087.03-.173.057-.318.144-.462.23h-.548c-.116 0-.347-.028-.347.145-.058 0-.116.03-.145.057-.03.058-.058.145-.058.23h-.144c-.116-.028-.203-.057-.29-.086-.028.03-.057.058-.086.116-.058 0-.087 0-.115.03-.116 0-.232.028-.318.057-.03.087-.03.173-.03.26-.087.03-.174.058-.23.087-.03-.058-.03-.087-.03-.116l-.26.087c-.434 0-.376.058-.578.376-.116 0-.23 0-.318.03-.173-.03-.433-.116-.636-.058-.087 0-.173.03-.26.058-.03.058-.058.116-.058.203h-.03c-.23 0-.462 0-.462.318-.26.06-.52.116-.78.203h-.32l-.086.26-.26.087c-.23 0-.29.087-.405.203-.29 0-.636.058-.867.203-.203 0-.405.087-.463.29-.116 0-.202 0-.29.028-.375 0-.49.115-.635.405-.694.086-1.446.202-2.024.578-.116 0-.23 0-.318.03-.494.016-.956.045-1.42.103z"/>
  <path d="M32.907 42.6c.087-.26.376-.405.58-.492.057-.174.143-.23.346-.23v-.116c.03 0 .087.03.145.058v-.203c.087-.058.202-.087.318-.116v-.173c.144-.115.318-.23.492-.318.116-.117.144-.232.347-.145v-.116c.144.057.347-.232.376-.32.203-.086.435-.143.666-.2-.03-.06-.03-.117-.03-.175.06-.03.117-.058.175-.058.03-.03.088-.058.146-.058v-.146c.058-.03.115-.058.202-.058v-.087h.087v-.088c.202-.058.405-.116.636-.145v-.115c.06-.03.146-.058.232-.087.03 0 .058 0 .116.03.23-.146.405-.435.55-.637.2-.058.404-.087.606-.116 0-.144.29-.202.376-.23.144-.06.29-.117.463-.145.087-.03.202-.03.318-.03.29-.288.695-.404.955-.664h.377c.404-.405 1.184-.03 1.56-.405l-.058-.058c.03-.058.058-.087.116-.116.26-.058.55-.116.84-.174.693-.116 1.358-.405 2.023-.52h1.793c.058 0 .144.03.23.058.175-.03.377-.058.58-.087.144.03.288.06.433.117v.087c.288 0 .606 0 .924.03.232.028.463.057.723.086 0 .144.81.376.954.405.117.03.493.26.58.087.144.058.318.116.49.174.06.174.232.26.348.318 0 .115 0 .23.03.347.086 0 .2.03.317.06.087 0 .174 0 .26.028v.087c.174 0 .202.087.29.174.086.288.143.317.433.375v.144h.202c0 .144.087.144.202.202v.174c.203 0 .347.26.405.405.087.03.202.088.318.146 0 .087 0 .173.03.29h.143c.03.173.058.346.116.52.174 0 .318.867.376 1.012h.087c.116.723.52 1.562.318 2.285.087.144 0 .347-.087.492-.03.116-.03.26-.03.405h-.086c0 .723-.434 1.85-.145 2.458h-.116v.087h.117c-.087.144-.144.318-.202.492h-.087c-.03.29-.03.665-.29.78 0 .145-.028.32-.143.435-.058.23-.116.462-.145.723-.058 0-.087 0-.116.03 0 .115-.318.288-.405.375-.03.144-.06.318-.06.492-.086.087-.143.057-.143.26h-.174c-.202.434-.347.81-.26 1.33-.376 0-.405.32-.694.464-.088.144-.175.29-.232.463-.23 0-.23.346-.23.49h-.146c-.03.058-.058.116-.058.174-.202 0-.26.463-.29.636v-.145c-.086 0-.143.03-.2.058-.03.058-.06.115-.088.202H51.932c-.144.145-.29.29-.405.434-.087.404-.433.838-.607 1.27h-.114c-.03.03-.03.088-.03.145-.057.03-.115.058-.143.116-.116 0-.202.03-.29.06v.086c-.057.03-.115.058-.143.087 0 .23-.202.376-.29.55-.086.028-.173.057-.26.115-.115 0-.23 0-.317.03v.172c-.058.03-.116.058-.145.087-.058.174-.115.376-.174.58v.057c-.26.087-.52.173-.752.29-.087 0-.174.028-.26.057-.03.088-.03.175-.03.29-.086 0-.144-.03-.144.058-.144.087-.26.174-.376.29-.087 0-.174 0-.23.028-.088 0-.174.03-.232.058v.144l-.347.174c-.26.116-.203.347-.23.58h-.145v.086l-.174.087-.087.087c-.318 0-.52.145-.752.29-.087.52-.607.693-1.012.81 0 .028 0 .057.03.086v.463c-.146.03-.493.145-.608.088-.318 0-.376.03-.55.318l-.028-.03c0-.086.087-.143 0-.143 0-.116 0-.23.03-.347.028-.087.086-.174.143-.26 0-.03.03-.058.058-.058.173-.174.52-.434.665-.665.116-.116.23-.23.347-.318h.058c.03-.145.058-.26.087-.376.202-.088.434-.145.665-.203v-.203h.144v-.116c.087-.116.174-.23.29-.347.086-.115.173-.2.288-.288l.434-.52c.347-.117.665-.55.867-.84.29-.058.463-.29.492-.578h.144v-.202-.174c0-.03.028-.058.057-.058.145 0 .23-.116.318-.203.116-.202.23-.376.376-.55.03-.028.06-.028.117-.028 0-.232.318-.435.405-.666 0-.03 0-.058.03-.058.028-.03.086-.03.143-.03 0-.086.03-.173.058-.26 0-.028 0-.028.03-.028.028-.116.057-.23.086-.318.173-.087.2-.174.317-.318h.087c.058-.318.405-.52.636-.636 0-.202.174-.26.26-.434l.174-.607c.087-.058.174-.087.29-.116v-.174c.2-.203.086-.607.462-.78.058-.145.116-.406.29-.493.028-.202.086-.405.144-.578.202 0 .434-1.128.434-1.186.058-.493.23-.84.376-1.244.03-.492.087-.983.144-1.446 0-.867-.058-1.793-.202-2.63-.174-.088-.492-1.013-.492-1.302-.174-.145-.405-.405-.492-.607-.058-.028-.087-.028-.115-.028-.03-.058-.03-.116-.03-.173-.028 0-.057 0-.086.028-.116-.116-.202-.23-.29-.318v-.116c-.057-.03-.086-.03-.115-.03v-.143h-.23c-.117-.115-.204-.23-.29-.317-.492-.145-.954-.26-1.417-.376-.116-.116-.23-.203-.347-.29-.116-.028-.23-.028-.347-.028-.23-.06-.462-.088-.693-.117-.23-.087-.376 0-.578.058-.29-.028-.58-.028-.87-.028-.143-.087-.26-.174-.375-.23-.03.028-.058.086-.087.143h-.058c-.087-.087-.26-.058-.376-.03v.146c-.376.232-.983.377-1.417.492-.433.058-.867.116-1.3.203-.06.058-.116.116-.145.173-.087 0-.145 0-.202.03-.26-.03-.492-.06-.723-.088-.087 0-.145.03-.203.058-.115.03-.23.087-.347.145 0 .116-.087.202-.174.29-.144-.03-.202-.146-.347-.088-.376-.03-.23 0-.318.203h-.087c-.086.202-.144.405-.202.607-.29 0-.434 0-.665.145-.115 0-.23 0-.318.03 0 .143-.087.172-.202.23-.116.116-.492.145-.694.23-.116 0-.232.03-.32.06l-.173.52c-.087.028-.173.057-.23.086-.03.03-.03.058-.03.116-.058 0-.116 0-.145.03v.143c-.26.03-.58.116-.58.434h-.404v-.146c-.144.03-.29.087-.434.145 0 .115-.203.2-.29.26.088.2.088.635.06.866-.145.087-.26.174-.377.26v.174c-.058-.087-.116-.174-.144-.23-.087 0-.174 0-.26.028-.087-.03-.173-.058-.23-.058-.522-.347-.493.405-.666.58.03.23.087.462.144.722-.057.03-.115.058-.173.087 0 .086-.144.143-.23.173-.117.29-.204.578-.29.896-.116.057-.23.115-.318.2-.29.406-.406.84-.522 1.302-.203.318-.347.694-.58.925-.057.29-.086.578-.114.897-.174 0-.174.52-.203.636h-.086c-.434 1.07-.23 2.458-.318 3.586.03.203.058.434.115.665h.117c.116.81.29 1.59.723 2.257.116.03.23.087.376.145v.087h.087c.318.057.52.23.838.23.146.145.666.202.87.202.115.116.895-.116 1.098-.174.087 0 1.07-.202.867-.405.202-.116.434-.203.665-.29.03 0 .087 0 .144.03.087-.202.434-.347.636-.492.23-.086.462-.172.723-.26v-.143c.145-.058.318-.116.492-.174v-.145l.347-.173.087-.174c.173-.086.346-.173.52-.23-.03-.087-.058-.144-.058-.202 0-.058.03-.116.058-.145.144-.03.29-.058.434-.058.145-.058.318-.116.492-.145 0-.174.174-.26.318-.29v-.144c.203-.087.29-.29.55-.174 0-.174.144-.29.26-.405 0-.087 0-.173.03-.23.086-.03.173-.06.288-.088 0-.406.347-.463.462-.695.058 0 .145.03.145-.058h.057c.173.03.347.058.52.116-.058.203-.087.434-.116.665-.2.116-.26.202-.317.405h-.087c0 .116-.145.23-.23.26-.03.087-.06.202-.06.318h-.115c-.086.06-.143.117-.2.203-.06.26-.204.52-.435.665-.03.058-.03.116-.03.174-.057.03-.115.058-.143.087-.087 0-.174.028-.26.057-.058.116-.087.26-.115.405-.087.116-.174.23-.23.347-.06 0-.117 0-.146.028-.143.058-.288.116-.433.202v.174h-.116c-.057.318-.2.665-.49.752-.03.23-.174.376-.377.434v.144c-.087.03-.174.087-.23.145-.116.028-.232.057-.32.086-.028.087-.057.174-.057.26-.058 0-.087.03-.116.058-.058.116-.116.23-.145.347h-.145v.088c-.173.03-.318.087-.462.144-.115 0-.202.03-.29.058v.492c-.23 0-.432.173-.577.29v.086c-.086 0-.173.03-.23.058-.03.03-.03.087-.03.145h-.115c-.145.145-.29.29-.405.464-.26.058-.52.116-.752.203-.144.03-.29.058-.405.087l-.26.347v.03h-.23c-.03.058-.03.116-.03.203-.058 0-.087 0-.115.03v.173c-.058 0-.115.03-.174.058-.26-.203-.52-.29-.867-.29h-.347c-.058.088-.116.175-.144.29-.174.087-.58.03-.81.03v-.088h-.144c.03-.058.058-.087.087-.116-.145-.144-.435-.087-.637-.087 0 .087.145.058.203.058-.405.06-.78.146-1.157.232v-.145c-.117.058-.232.116-.32.202-.028-.088-.057-.145-.057-.203-.203-.03-.405-.03-.578-.03 0-.057.03-.114.058-.172-.144-.03-.29-.087-.405.03-.03-.088-.058-.175-.058-.26-.23-.03-.463-.06-.665-.088v-.145c-.087-.058-.145-.116-.203-.174.03-.03.058-.03.116-.03-.087-.086-.144-.23-.29-.23v.087h-.114c-.03-.058-.03-.087-.03-.115-.115-.058-.23-.087-.317-.116-.03-.145.087-.202-.145-.115l-.087-.175c-.26 0-.116-.29-.29-.29v-.143c-.086-.03-.172-.058-.23-.058-.03-.058-.058-.116-.058-.174 0-.058.03-.087.058-.116h-.202v-.087h.115c-.058-.03-.087-.058-.115-.058-.058-.435-.174-.666-.174-1.042-.088-.03-.145-.03-.203-.03v.146c-.087-.087-.144-.174-.202-.26h.115c-.03-.087-.058-.144-.058-.202h-.087v-.26c-.058-.03-.116-.058-.145-.087.03-.058.087-.087.145-.115-.058-.03-.087-.03-.116-.03v-.26c-.06-.028-.088-.057-.117-.086.058-.058.116-.087.174-.115h-.174c.03-.204.058-.377.087-.55-.058-.03-.116-.03-.144-.03-.03-.203-.03-.405-.03-.607.088-.087.203-.174.32-.26-.088-.03-.175-.058-.233-.058-.03-.174-.03-.347-.03-.52h.203c0-.116-.23-.088-.23-.26h.086v-.088h-.087v-.116c.03-.028.087-.028.144-.028-.03-.145-.03-.26-.03-.376.03.03.087.058.145.087 0-.203-.29-.376-.116-.55-.06-.028-.117-.028-.145-.028.03-.058.058-.087.115-.116-.03-.03-.058-.03-.087-.03-.03-.116-.03-.23-.03-.347.03-.23.06-.463.116-.665.057-.115.086-.578.173-.578 0-.173.03-.318.058-.463.117-.03.232-.058.377-.058 0-.06 0-.232.087-.232-.087-.03-.145-.058-.202-.058.03-.116.058-.203.115-.29h.174c-.028-.028-.057-.057-.086-.057v-.145h.087v-.087h-.144v-.115c.058-.03.116-.058.174-.058-.058-.03-.087-.03-.116-.03v-.23h.29c-.03-.087-.06-.144-.06-.202h-.086c.058-.058.116-.116.203-.145.145-.202.088-.665.435-.665v-.115c.144-.03.29-.03.434-.03-.03-.057-.06-.115-.06-.144-.143-.03-.26-.057-.375-.057.058-.06.115-.088.202-.117-.116 0-.23 0-.318.03 0-.06 0-.117.028-.146h.174c.03-.087.058-.174.116-.26h.173c0-.058.03-.116.06-.145h-.203c-.03.03-.03.058-.03.116-.086-.087-.028-.174.03-.29.058-.03.144-.058.23-.058-.086-.173.06-.318.203-.376l-.144-.144h.087c-.03-.058-.03-.116-.03-.174.117-.087.232-.174.377-.23v-.145c.058-.057.145-.115.23-.143v-.23h.117c0-.175 0-.32.174-.348.03-.088.088-.174.145-.232.03 0 .058.03.087.058 0-.058 0-.116.03-.145h.433c0-.057 0-.115.03-.143h-.377c.03-.116.087-.23.144-.347l.347-.087c0-.116 0-.202.028-.29.03-.028.058-.057.116-.057-.03-.058-.03-.087-.03-.116l.174-.087v-.203c.058-.03.145-.058.23-.058-.057-.058-.028-.058.06-.058.028-.058-.03-.174.115-.174 0-.26.173-.29.173-.492.03-.03.087-.03.145-.03.06-.173.03-.26.29-.23v-.116c.058-.03.116-.03.173-.03.058-.115.03-.143.203-.23.55 0 .202-.03.144-.203h.203c0-.088 0-.175.087-.175l-.087-.087c.087-.03.174-.058.29-.087v-.173h.086v.087c.028 0 .086-.145.2-.145-.115-.116.117-.203.145-.348h.145c.03-.183.058-.328.087-.472z"/>
  <path d="M7.17 157.4l-.137-.572c.02-.776.105-1.553.257-2.33l.163-.313-.155-.533.047-.444.176-.332.024-1.31c.03-.155.062-.31.093-.463.03-.172.058-.343.086-.514l.096-.62.26-2.09c.016-.213.03-.427.045-.64l.1-.582c.07-.183.144-.367.216-.55l.202-.91-.186-.464.216-.337.234-.992c.03-.318.058-.636.116-.954v-.606c.144-.78.29-1.533.434-2.284.116-.867.26-1.706.405-2.545.116-.26.06-.838.088-1.156l.26-.782h.058l.087-.78c.058-.464.116-.926.203-1.39h.087c.058-.114.116-.23.174-.317 0-.23.03-.433.058-.635v-.145l.26-1.214h.087c0-.145.03-.26.058-.376h.087c.058-.462.116-.925.202-1.36 0-.288.028-.578.057-.866 0-.03 0-.058.03-.087h.086c.145-.347.29-.665.462-.983l.087-.954c0-.174 0-.347.03-.492.028-.03.057-.03.114-.03 0-.057 0-.114.03-.144.028-.144.086-.29.143-.434.028-.03.057-.058.115-.058.03-.347.087-.694.145-1.012.058-.174.144-.347.23-.492h.06c.086-.49.173-.983.288-1.475h.087c0-.202.03-.434.174-.578.057-.405.115-.78.173-1.157.087-.23.202-.463.318-.694.03-.03.06-.03.117-.03 0-.26-.03-.23.116-.46-.03-.06-.058-.117-.058-.146.145-.492.203-1.185.26-1.706-.058-.03-.115-.058-.144-.058.06-.26.03-.55.175-.78.03-.06.058-.116.116-.145h.145c.03-.26.087-.52.144-.753.028-.03.057-.058.115-.058-.03-.088-.03-.174-.03-.26.03-.03.06-.06.117-.088.03-.26.058-.492.087-.723h.086l-.087-.175c.086 0 .115-.26.115-.318.144-.202.23-.318.23-.578 0-.03.03-.06.06-.06.057-.086.115-.144.2-.202 0-.173.175-.954-.028-1.04.058-.117.145-.232.23-.32l-.086-.086h.117c0-.144 0-.29.03-.434.173-.087.23-.26.23-.434.174-.174.144-.434.116-.694.058-.116.116-.203.202-.29 0-.202.145-.26.26-.375v-.26c.144-.174.115-.23.058-.376l.087-.174c.347-.116.29-.55.318-.84h.087c-.03-.115-.058-.2-.058-.288h.145v-.144h.116c-.144-.23-.03-.23 0-.434h.087c0-.144.03-.26.058-.376h.144v-.433h-.115v-.086c.087 0 .202-.26.23-.318-.028-.03-.057-.058-.086-.087.058-.146.116-.174.26-.174v-.145h-.144v-.115c.03-.03.087-.03.144-.03v-.115h.087v-.318c.145-.203.174-.55.203-.78.087 0 .087-.232.087-.29 0-.058.03-.116.058-.144h.088v-.144h.144c-.03-.116-.03-.203-.03-.29.204-.202.146-.52.175-.81h.087c-.03-.086-.03-.173-.03-.23.03-.03.088-.03.145-.03v-.087h.086v-.144h.145c-.028-.087-.057-.174-.057-.23h.116c0-.29-.03-.695.2-.927.03-.23.06-.433.117-.636.03-.115.087-.202.144-.29-.028-.028-.028-.057-.028-.057.116 0 .087-.145.087-.23h.086c0-.348.116-.406.29-.58 0-.115.028-.23.057-.318h.087v-.405h.03c.057-.03.143-.03.23-.03v-.115h.087v-.665c.03-.087.058-.173.087-.23h.116c0-.348.03-.608.202-.926-.03-.203-.03-.405-.03-.58h.146c.03-.173.058-.317.087-.462.03-.03.058-.03.115-.03-.03-.057-.058-.086-.058-.115.03-.03.058-.03.116-.03-.03-.086-.058-.173-.058-.23h.145v-.434h.087c.03-.174.087-.347.144-.492h.116c0-.086 0-.173.03-.23.028-.03.057-.03.114-.03-.03-.028-.058-.057-.087-.086.028-.087.057-.174.115-.26h.116c-.028-.087-.057-.174-.057-.26h.087v-.145c.03-.03.058-.06.115-.088-.058-.03-.087-.058-.115-.058 0-.058 0-.087.03-.115.028-.03.057-.03.114-.03 0-.202.145-.434.087-.636.03-.03.06-.03.117-.03 0-.143 0-.288.03-.404.057-.03.114-.058.2-.087v-.145h.117c0-.174.03-.318.058-.463h.116v-.405c.03-.03.058-.03.116-.03 0-.057 0-.086.03-.115h.114c-.058-.115-.087-.202-.115-.29.058-.057.115-.086.202-.114V89.3h.087l.087-.173c.2 0 .433-1.1.433-1.3l.173-.26h-.116c0-.06 0-.117.03-.146.114 0 .172-.204.23-.29h.087c.03-.29.116-.607.26-.84 0-.346.144-.317.29-.577 0-.087 0-.174.028-.23h.144c-.03-.145-.03-.29-.03-.406.174 0 .203-.29.203-.434.058-.145.144-.26.23-.376 0-.173 0-.347.03-.52h.144v-.144h.087c0-.116.203-.81.116-.896.087 0 .087-.145.115-.203h.116c0-.144 0-.26.03-.376.03-.03.058-.03.115-.03v-.143c.116 0 .174-.434.203-.55.03-.028.087-.028.144-.028v-.405c.26-.318.116-.49.174-.867-.116-.03-.52-.462-.52-.55-.088.03-.145.06-.203.088l-.087-.087c-.03-.058-.058-.116-.058-.145h-.174c0-.173-.347-.548-.492-.317-.145-.115-.26-.23-.376-.318v-.087h-.116V78.6c-.174 0-.347 0-.52.03-.03.087-.06.174-.088.29-.058 0-.116 0-.144.028.058.202.144.405.23.607-.057.03-.086.058-.115.087-.03-.058-.058-.087-.087-.116-.087.03-.174.058-.23.087h-.174c-.03.087-.058.203-.058.318-.058-.028-.116-.028-.145-.028v.144c-.088 0-.175-.26-.348-.26v-.144c-.087 0-.145-.03-.145.058-.058-.03-.116-.03-.144-.03v-.057c-.607.058-.376.723-.492 1.215h-.086v.087c-.087-.03-.144-.058-.202-.058-.087.03-.144.087-.202.144-.145.03-.26.06-.376.088-.03.087-.058.174-.058.26-.29.03-.578.058-.838.087-.26 0-.434.26-.434.492-.203.087-.723.087-.983.116-.144.03-.577.29-.75.202V82.1h-.117v-.143c-.376.173-.433.578-.376.983-.058 0-.115.03-.144.058h-.116v.115h-.463c-.58 0-.723.29-1.012.58.03 0 .058.028.087.057h-.29c0-.144-.203-.26-.318-.202v.087c-.087 0-.174 0-.26.03h-.23c-.088.173-.145.375-.203.577h-.088c-.058.144-.116.29-.145.434-.318.174-.867.26-1.1.492h-.2c-.088.058-.145.145-.203.23-.145 0-.145.088-.203.145-.49 0-.693.376-1.04.55-.174.028-.347.057-.492.086-.145.057-.29.115-.405.173-.03.058-.03.145-.03.232-.26.115-.52.23-.75.376-.32 0-.32.116-.406.32-.144.028-.26.057-.376.115-.057-.058-.115-.116-.143-.174-.23.146-.26.377-.52.464-.06.174-.117.347-.145.55-.23 0-.607.49-.84.26-.115.03-.2.087-.288.144l-.434.173c-.03.06-.03.117-.03.204-.057 0-.086 0-.115.03-.144.028-.29.057-.434.115-.028-.06-.057-.117-.086-.146h-.318c-.03.058-.03.116-.03.174-.202 0-.23.26-.317.405-.088 0-.175 0-.26.03-.26-.088-.782.838-.81 1.01-.088.03-.145.06-.203.117-.26 0-.52 0-.752.03v.115c-.174 0-.318.087-.405.26-.174.058-.723.318-.897.232-.115-.232-.202-.463-.29-.665 0-.087 0-.174.03-.26h.116c.028-.144.057-.29.086-.405-.115 0-.058-.26-.087-.347l.086-.174H2.75v-.144h.086c-.03-.29-.058-.55-.087-.81h.086v-.434H2.75v-.116h.086c-.03-.087-.058-.145-.087-.203.086 0 .086-.145.115-.232-.03-.03-.058-.058-.087-.058 0-.058 0-.087.03-.116h.115c0-.318.144-.897 0-1.186 0-.03.03-.03.058-.03.117 0 .32-.375.406-.433V84.33c-.03-.03-.058-.06-.087-.06 0-.057-.088-.2.028-.2v.057h.144c.03-.145.087-.26.144-.376-.03-.086-.058-.143-.087-.2.086-.175.288-.782.144-.926.087-.434.202-.84.318-1.244.03-.318.058-.636.116-.954H4.02c0-.058 0-.116.03-.145.087-.2.174-.404.29-.606.028-.03.086-.03.143-.03 0-.288.03-.578.058-.867.06-.115.117-.23.175-.318h.087c-.03-.088-.03-.174-.03-.26h.088c.116 0 .202-.406.202-.463v-.58c.058-.173.145-.346.23-.49h.06c.028-.145.057-.26.086-.377-.03-.087-.058-.174-.058-.26.087 0 .116-.203.145-.29h-.087c0-.058 0-.087.03-.115.028-.03.057-.03.115-.03-.03-.057-.03-.115-.03-.173.03 0 .06 0 .117.03-.03-.06-.058-.117-.087-.146 0-.116 0-.23.03-.318 0-.03.028-.058.057-.058.03.03.087.058.144.087-.03-.087-.03-.174-.03-.23h.088v-.377c.03-.03.087-.058.144-.087l-.087-.087c.028-.116.086-.29.202-.347 0-.088 0-.146.03-.203h.143c0-.232.087-.29.174-.434 0-.23.028-.434.057-.636h.116c.03-.463.29-.954.463-1.388h.115c0-.232.03-.463.06-.666.028-.03.057-.03.115-.03v-.144h.116c-.028-.087-.057-.173-.057-.23h.087c.145-.232.202-.637.26-.898.202 0 .202-.202.29-.347h.143c0-.318.03-.578.202-.896-.03-.06-.03-.088-.03-.117.32-.144.348-.84.406-1.128h.088c.058-.202.116-.405.202-.607.03-.058.058-.087.087-.116h.087c.318-.49.723-1.012.78-1.59.088-.174.203-.318.32-.463h.115c-.03-.203-.06-.377-.06-.55.03-.058.088-.116.145-.145.23 0 .405-.405.405-.607h.087c0-.144.03-.29.058-.433.29.03.578.058.897.116.03-.028.087-.057.144-.086v-.462c-.174-.058-.347-.116-.52-.145 0-.29.028-.55.057-.81.087 0 .174-.116.202-.202h.116v-.26h.088v-.174l.434-.433c0-.463.347-.492.463-.838.087 0 .115-.204.144-.29.028-.03.086-.03.144-.03 0-.26.29-.693.23-.838h.088c0-.058.03-.116.058-.145h.087c.087-.173.174-.318.26-.462.058 0 .203-.52.174-.636h.117v-.117c.203 0 .29-.29.23-.463h.088c.087-.29.55-.463.434-.81.028-.116.057-.23.115-.347h.087c.087-.174.202-.347.318-.492.058-.375.347-.577.434-.924.03-.03.058-.03.116-.03v-.144h.087c.03-.145.087-.26.145-.376l.173-.26h.087v-.318c.202-.203.116-.492.434-.636 0-.058 0-.116.03-.144.028-.03.057-.03.115-.03.03-.172.06-.317.088-.462h.202c0-.058 0-.116.03-.174h.115l.087-.26c.23-.115.463-.492.492-.75.174 0 .23-.32.29-.493.057-.088.115-.175.172-.232.29-.144.087-.607.434-.723.03-.116.058-.23.116-.347h.087v-.144h.087c.03-.145.058-.26.116-.376 0-.03 0-.058.03-.058.086 0 .433-.405.433-.434 0-.03.028-.058.057-.087h.144v-.145c.117-.145.464-.607.493-.78.23 0 .867-1.13.983-1.39h.115c0-.288.32-.693.55-.81.03-.143.058-.288.116-.404.058-.028.116-.057.202-.057 0-.174.116-.318.29-.318 0-.174.2-.29.288-.434h.058c0-.288.29-.548.376-.78 0-.058.03-.087.058-.116.087-.03.174-.058.29-.087v-.144c.058-.116.115-.203.173-.29.06-.028.117-.057.204-.086 0-.23.202-.23.347-.29v-.2c.06-.088.232-.26.175-.377.087-.116.174-.23.29-.347h.115c0-.058 0-.116.03-.174h.115c.058-.175.116-.348.174-.493h.115v-.23c.29-.088.463-.32.636-.58h.117c.145-.26.405-.81.463-1.098.087 0 .173-.232.23-.348h.145v-.173c.144-.146.29-.29.347-.493l.26-.087c0-.058.03-.116.058-.174h.087l.087-.26c.144-.058.23-.116.29-.26.086 0 .2-.173.26-.26h.086c0-.116.03-.202.058-.29h.144v-.23h.145c0-.03.087-.492.23-.347.03-.06.06-.117.088-.175h.174v-.23c.143-.06.23-.146.288-.29.173 0 .202-.174.26-.29.058-.03.116-.03.174-.03 0-.23.03-.52.29-.52v-.145c.143-.115.288-.23.432-.347.03-.23.145-.347.318-.434v-.175c.03-.03.058-.058.116-.058 0-.23.347-.347.55-.347v-.173l.173-.26c.145-.29.58-.462.724-.78.03-.03.087-.03.145-.03 0-.376.317-.463.432-.694.174-.087.578-.607.723-.81.058-.087.116-.173.174-.23.028-.03.086-.06.144-.06 0-.2.26-.173.347-.288.06-.116.117-.202.175-.29.23 0 .376-.433.463-.606h.144v-.174c.058-.058.116-.087.174-.116.116-.087.23-.145.347-.202.03-.116.087-.203.144-.29h.087c.087-.317.173-.462.49-.55.146-.172.435-.693.724-.693.058-.347.23-.376.52-.492 0-.174.203-.202.318-.26.115-.174.174-.26.376-.26 0-.29.318-.52.492-.723h.116c.03-.144.058-.29.116-.434.202-.03.376-.174.463-.347.057-.088.115-.175.173-.232h.174v-.202c.03-.03.058-.058.087-.058.145 0 .202-.144.23-.26.29-.29.608-.694.926-.838 0-.087.03-.145.058-.203.087-.03.174-.058.29-.087l.086-.26c.26 0 1.156-1.04 1.272-1.272.058 0 .144.03.144-.058h.087c0-.29.29-.29.492-.376 0-.058 0-.116.028-.144.29-.144.694-.636.84-.925.028-.058.086-.116.144-.144.318-.144.896-.578 1.04-.866.03-.03.06-.058.117-.058.057-.087.143-.173.23-.26.318-.087.29-.405.58-.492h.057v-.23c.087-.03.202-.06.318-.088 0-.03.03-.058.058-.087.116-.145.23-.29.347-.435.145 0 .29-.144.376-.23.347-.175.607-.55.954-.782.03-.058.087-.116.145-.174.116-.117.23-.203.347-.29.116-.174.29-.29.492-.29.347-.346.78-.78 1.243-.953.144-.174.29-.347.433-.492.116-.058.232-.087.347-.116v-.117c.087-.058.203-.116.318-.174.087-.088.174-.145.26-.203.116 0 .145-.087.202-.203.058-.03.144-.058.23-.058 0-.376.52-.52.637-.752.087-.058.202-.087.318-.116.115-.463.462-.463.78-.723.26-.405.58-.58 1.013-.78 0-.377.838-.58 1.012-.927.03-.058.058-.115.087-.144h.058V7.35c.26-.116.52-.202.81-.29 0-.057.03-.114.058-.173.03-.03.058-.058.087-.058.116-.175.26-.32.405-.464.578-.347 1.388-1.012 2.053-1.1.23-.143.434-.404.723-.404v-.116c.318-.318.867-.694 1.3-.78.377-.29.984-.464 1.215-.84h.145c0-.26.462-.434.665-.434 0-.29.723-.52.954-.578v-.116c.55 0 .665.29.665.78-.058.03-.116.06-.174.088v.116h-.087v.29h.088c0 .057.03.115.058.173-.202.03-.376.087-.55.145-.057 0-.086 0-.114.03.03.144.058.288.087.462.548 0 .924.144 1.387.434v.202c-.29.144-.434.463-.752.55 0 0 0 .028.03.057-.26.087-.492.318-.724.318-.04.03-.04.06-.04.087-.58.087-.868.694-1.33.81 0 .087-.492.318-.578.376-.03.116-.058.23-.087.376-.318.058-.636.145-.925.23-.058.03-.087.06-.116.116-.463.145-.347.174-.492.58h-.202c-.087.115-.145.23-.203.346-.29 0-.694.202-.867.463-.116.03-.202.087-.29.144-.086-.028-.173-.028-.23-.028v.087c-.03.028-.058.057-.058.115h-.087c-.087.087-.144.202-.202.318-.058 0-.116.03-.145.058h-.29c-.086.175-.173.377-.23.58-.087 0-.145-.03-.145.057-.087.03-.173.058-.23.087v-.087h-.145c-.058.03-.116.087-.174.144-.058.233-.376.695-.607.753-.03.116-.058.23-.058.347-.32.116-.608.26-.898.405-.058.03-.087.087-.116.145-.116 0-.202 0-.29.03 0 .115-.144.288-.23.375-.06.087-.116.174-.145.29h-.086v.086h-.26c-.058.06-.116.117-.174.203h-.116c0 .203-.347.376-.52.492-.03.058-.06.144-.06.23-.317.175-.606.348-.896.55h-.23c-.29.145-.175.347-.493.434-.087.143-.145.288-.202.432-.174-.03-.347-.03-.52-.03-.088 0-.175 0-.232.03-.115.29-.23.607-.317.926-.116.058-.202.116-.29.173-.143 0-.26-.057-.346.03.03 0 .058.03.116.058-.058.174-.116.347-.145.52-.29 0-.55.55-.867.637-.433.087-.578 0-.578.434-.116.028-.202.057-.29.115 0 .26-.23.578-.23.752-.376 0-.84.52-1.128.723-.03-.03-.058-.03-.087-.03-.26.26-.144.666-.376.898-.086.03-.143.087-.2.144-.06-.03-.117-.03-.175-.03-.058.117-.116.232-.174.377-.086.028-.173.086-.26.143-.49.232-.664.78-.982 1.215-.202 0-.405 0-.58.03-.086-.03-.172-.03-.23-.03v.145h-.145c0 .174.03.347.058.55-.057.173-.288.52-.46.635h-.232l-.174.434c-.03.03-.058.058-.058.116h-.173c-.03.058-.03.116-.03.174-.057 0-.086 0-.115.03-.03.057-.03.115-.03.173h-.086v.087c-.087.03-.174.087-.26.144-.087-.03-.145-.03-.203-.03-.03.06-.06.145-.088.232h-.087v.087c-.116 0-.203.03-.29.058-.578 0-.23.84-.578.954v.145c-.087.03-.174.058-.23.087v.115h-.145c-.087.202-.145.405-.203.636-.088 0-.175 0-.232.03-.03.03-.058.058-.058.087-.03-.03-.03-.058-.03-.087-.115.03-.202.087-.288.144-.03.087-.03.202-.03.318-.057 0-.115.03-.144.058-.174 0-.174.058-.23.174h-.117c-.057.173-.086.376-.114.578-.174 0-.116.058-.174.116-.26 0-.694-.116-.897.03h-.23c-.06.202-.233.173-.146.433h.086c0 .06.03.146.058.232.03 0 .087 0 .144.03v.26c-.058 0-.115 0-.144.028v.174h-.174c-.03.03-.03.058-.03.116-.086 0-.173.03-.23.058-.116 0-.23.03-.347.058-.03.173-.058.347-.058.52-.058 0-.115.03-.144.058-.144.03-.29.058-.404.116-.03.058-.03.116-.03.173-.057 0-.115 0-.172.03-.058.317-.087.635-.116.953-.318.174-.636.376-.954.578-.492 0-.52.608-.58.983h-.143c-.114.173-.23.347-.317.52-.087 0-.492-.03-.492.116-.172 0-.2.087-.346.144 0 .405-.174.925-.23 1.3-.06 0-.117 0-.174.03-.03.058-.03.116-.03.202h-.086c-.058.173-.087.346-.116.548-.174.03-.463.058-.55.23h-.2v.145c-.435 0-.464.636-.435.954-.144 0-.405.23-.55.29-.144.114-.26.23-.375.346-.03.174-.058.347-.058.52-.03 0-.058.03-.087.06-.058.028-.116.086-.145.143-.115 0-.23.03-.347.058-.028.087-.028.202-.028.318-.058 0-.115 0-.144.03v.375h-.202c-.03.174-.058.376-.058.58h-.116c-.03.086-.058.2-.058.317-.058 0-.116 0-.144.03-.03.115-.058.26-.058.404-.058 0-.116 0-.174.03-.03.057-.03.115-.03.173h-.086c-.03.088-.058.175-.087.29-.058.03-.116.058-.145.087-.144 0-.29.03-.405.058-.03.087-.03.174-.03.29-.115.028-.2.057-.288.086v.088c-.058 0-.087.03-.116.058-.028.116-.028.232-.028.347-.087 0-.174.03-.23.058-.03.06-.03.117-.03.175h-.087v.144h-.058v.202h-.087c-.116.202-.29.434-.492.492v.116h-.03c-.028-.03-.057-.058-.086-.058l-.26.087c-.058.057-.087.143-.116.23-.03 0-.058 0-.087.03-.145-.03-.26-.06-.377-.06-.03.06-.03.116-.03.203.03.03.06.058.116.087-.03.173-.06.376-.088.578h.087v.116c-.06 0-.116.03-.174.057-.03-.028-.058-.056-.087-.056-.03.03-.03.057-.03.116-.116 0-.23.03-.318.058-.058.202-.202.462-.144.694h-.116c-.03.174-.058.347-.087.55-.058 0-.116 0-.144.028-.26.116-.375.203-.433.492-.058 0-.115.03-.173.058-.03.058-.03.116-.03.174-.288 0-.173.723-.173.84-.114.057-.23.143-.346.23v.145c-.03.028-.058.057-.058.086-.145 0-.26.03-.376.058-.087.202-.174.405-.23.636h-.145l-.087.52c-.203.204-.405.406-.58.608-.114.203-.23.405-.346.607-.144.318-.29.636-.405.954-.03.23-.174.404-.174.664H22.2v.087c-.086 0-.173.03-.23.06-.058-.03-.116-.03-.174-.03-.087.23-.173.492-.26.752-.058 0-.116 0-.145.03v.173c-.057 0-.115 0-.143.03-.058.23-.087.49-.116.75-.086 0-.086.058-.086.145h.087c-.057.202-.115.405-.143.607-.116.03-.23.058-.318.087-.088.26-.175.492-.435.58v.404c-.03.03-.058.058-.058.087-.115.03-.23.058-.318.087-.03.03-.03.058-.03.115-.058.29-.318.752-.434 1.012-.058 0-.116 0-.173.028 0 .202-.203.578-.29.752-.057 0-.086 0-.115.03-.23.114-.55.693-.434.924-.116 0-.087.116-.087.202-.087.174-.173.376-.26.58h-.116l-.086.173h-.174c-.116.23-.203.46-.29.722h-.086c-.03.116-.058.23-.058.376-.058 0-.116 0-.145.03-.028.173-.028.346-.028.548-.058 0-.116.03-.144.058-.405.116-.463.434-.55.867h-.086c-.03.117-.058.26-.087.406-.52.347-.376.81-.52 1.33-.088.058-.145.115-.203.173-.03 0-.058.028-.058.057-.116 0-.202 0-.29.03-.057.26-.115.52-.143.81-.317.26-.49.317-.548.722-.116.057-.202.114-.29.2-.115.435-.23.868-.317 1.302H13.7c-.03.318-.06.636-.088.954-.145.03-.26.087-.376.144v.087h-.058c-.116 0-.23 0-.318.03-.203.664-.405 1.387-.492 2.11h-.087c-.028.087-.057.202-.057.318l-.174.087c-.03.173-.06.347-.088.55-.376.49-.463 1.155-.867 1.56-.145.665-.26 1.648-.607 2.256-.203 0-.116.116-.23.23 0 .81-.29 1.592-.29 2.43-.115.318-.202.636-.29.954 0 .52-.288 1.04-.143 1.533 0 .434 0 .897.03 1.36h.143c.087.086.202.115.347.086.23-.143.347-.23.665-.288.174-.058.347-.116.55-.144v-.145c.144-.144.173-.144.375-.202h.145c0-.144.202-.173.29-.23.086-.087.172-.144.26-.202h.086v-.116c.058-.03.116-.03.203-.03.26-.2.52-.404.81-.577l.346-.174c0-.26 1.648-.924 1.908-.982 0-.058 0-.087.03-.116.086-.03.2-.058.317-.058v-.116c.088-.087.203-.144.32-.202.23-.145.46-.29.722-.405.232-.114.463-.2.694-.288.058-.03.144-.058.23-.058 0-.115.145-.173.145-.202 0-.03.03-.03.06-.03.2-.057.635-.115.722-.288.202-.058.405-.116.607-.144v-.087c.288-.29 1.156-.347 1.27-.723.233-.03.493-.058.753-.087 0-.318.607-.347.78-.52.088-.03.175-.058.26-.058 0-.058 0-.087.03-.116.318-.146.723-.175 1.1-.175.057-.03.144-.058.23-.087.058-.03.144-.058.23-.058-.028-.058-.028-.087-.028-.116.087-.058.174-.116.29-.174.288-.087.606-.174.924-.23.23-.06.462-.117.722-.175 0-.202.116-.174.23-.26l.868-.174v-.115h.144v-.116c.116-.06.23-.088.347-.117.435-.115.897-.23 1.36-.347v-.145c.29-.057.58-.29.868-.29.23-.086.462-.143.723-.2.232-.06.492-.117.752-.175.55-.173 1.128-.347 1.706-.49.202-.06.405-.088.607-.117.23-.058.463-.115.723-.173.174-.03.347-.03.52-.03 0-.288 1.186-.202 1.33-.202.03-.03.06-.058.088-.058.058.03.145.058.23.087.174.087.348.174.55.26 0 .29.115 1.243-.203 1.243-.087.29-.174.58-.23.867h-.06c-.172.058-.346.116-.52.203l-.173.434c-.03.172-.03.375-.03.577h-.086c-.058.116-.087.23-.116.376h-.087v.087c-.057 0-.114.03-.143.058-.116.03-.23.058-.318.087-.03.318-.117.607-.26.897h-.117c-.058.29-.087.578-.115.896-.26.26-.318.636-.405 1.012h-.145c-.03.173-.058.376-.058.578-.058 0-.087 0-.116.03-.03.028-.03.057-.03.115-.086 0-.173 0-.23.03-.116 0-.23.028-.318.057-.058.087-.087.202-.116.318h-.116c0 .434.03.983-.23 1.36-.03.432-.145 1.01-.58 1.155-.375.376-.548 1.04-.548 1.562h-.116v.116c-.058 0-.115.03-.174.06v.173c-.29 0-.347.55-.405.78h-.086c0 .204-.058.55-.26.637-.058.116-.115.232-.144.347-.058.318-.116.636-.145.983-.058.058-.087.145-.115.23-.03.03-.058.06-.058.117-.78 0-.578.81-.636 1.388h-.087c-.06.405-.26.723-.32 1.157-.057.058-.086.115-.115.202h-.203c0 .144-.144.202-.202.347 0 .348-.116 1.013-.318 1.273-.03 0-.058.03-.058.058-.087 0-.174.03-.26.06-.058.115-.116.23-.145.346 0 .318-.088 1.157-.26 1.417h-.145c-.087.145-.145.29-.203.434-.03.174-.058.376-.058.58-.058.057-.115.143-.144.23-.058 0-.087.03-.116.057-.087-.03-.173-.03-.26-.03-.03.348-.202.87-.058 1.187h-.144l-.087.348c-.405 0-.405.897-.405 1.128-.202.202-.347 1.07-.55 1.128l-.086.434c-.058 0-.087.03-.116.058l-.087.347c-.143 0-.404 1.33-.432 1.59h-.087c-.115.23-.23.462-.346.723-.03 0-.058 0-.058.03-.174.23-.203.2-.26.52-.058 0-.087.028-.116.057-.03.26-.058.52-.058.78-.29 0-.376.522-.405.724-.116 0-.174.405-.174.492v.028c-.087.26-.405.896-.636.954-.26.954-.58 1.85-.636 2.834-.057.058-.114.145-.173.23v.175h-.144c-.058.232-.115.464-.144.724h-.088c-.03.116-.058.23-.087.376-.144 0-.202.84-.23.983-.06 0-.088 0-.116.03-.03.115-.06.23-.06.346-.057 0-.086 0-.115.028-.03.116-.03.23-.03.347-.2.058-.375.144-.548.23l-.087 1.736c-.434.29-.347.752-.376 1.244-.174.376-.318.752-.463 1.157-.057 0-.086 0-.115.03-.03.29-.058.607-.087.926l-.347.087c-.028.405-.317 1.012-.23 1.36h-.087l-.087.78c-.087.23-.144.492-.202.752h-.116c-.03.52-.26 1.07-.318 1.59-.29.492-.52.983-.58 1.562-.086.26-.143.52-.2.81-.088.29-.145.607-.203.925-.087.174-.174.347-.23.52-.175.52-.348 1.042-.52 1.59-.088.32-.146.637-.204.955l-.087.347c-.347.347-.26.897-.26 1.36-.087.722-.347 1.358-.347 2.11-.146.607-.29 1.215-.435 1.85-.29.29-.347.926-.376 1.33-.06.492-.116 1.013-.174 1.534l-.26 1.128c-.058.29-.116.578-.174.896-.03.087-.058.174-.058.26-.087.318-.145.665-.203 1.012h-.143v.55c-.03.346-.03.693-.03 1.04l-.346 1.475h-.057c0 .26.03.52.058.78-.028 0-.057 0-.057.03-.03.375-.058.75-.087 1.156-.405 1.243-.578 2.545-.694 3.817-.173.174-.173.665-.173.897-.03.636-.03 1.3-.03 1.966v.03c-.03 0-.058.028-.058.057-.03.347-.058.723-.058 1.1-.26.375-.23.896-.29 1.358-.028.377-.057.753-.086 1.158-.116.55-.23 1.1-.318 1.648-.03.318-.03.636-.03.954l-.086 1.503c-.03 0-.058 0-.058.03-.087.375-.174.78-.23 1.184 0 .23 0 .463.028.694-.087.377-.144.753-.202 1.158h-.087c-.03.29-.03.607-.03.926-.028.462-.057.925-.23 1.36-.03 1.445-.116 2.977-.32 4.423-.057.144-.115.29-.144.463 0 .925.088 1.88 0 2.776 0 1.995-.462 4.077-.317 6.072-.058 0-.116.03-.174.058-.117-.202-.203-.376-.29-.55l-.694-4.25c-.174-.405-.492-.81-.723-1.186-.058-.347-.116-.665-.144-.983-.493-.607-.522-1.65-.522-2.4-.087-2.487.058-5.03.058-7.518.203-1.1.145-2.43.174-3.558.1-.177.1-.38.1-.582z"/>
  <path d="M30.235 197.905v-10.378h-2.268v-1.172h5.543v1.172h-2.24v10.378h-1.035z"/>
  <path d="M68.755 192.28c1.17-.58 1.495-1.68 1.495-3.048 0-1.275-.68-2.437-2.214-2.798-.278-.065-2.067-.107-3.118-.085v11.575h1.272v-5.434h1.475c.538 1.736 1.03 3.68 1.504 5.435h1.387l-1.802-5.645zm-2.564-.864v-3.77c2.735-.336 2.687 1.415 2.662 1.8-.05 1.936-1.505 2.077-2.66 1.97z"/>
  <path d="M107.604 187.91c-.606-1.12-1.674-1.65-2.62-1.65-.886 0-1.934.566-2.53 1.57-.637 1.07-.795 2.633-.795 4.3 0 .91.117 2.388.328 3.157.538 1.967 1.68 2.713 2.997 2.713 1.288 0 2.41-.976 2.96-2.873.234-.8.366-2.037.366-2.997.002-1.566-.136-3.165-.706-4.22zm-.892 6.627c-.327 1.525-.99 2.283-1.753 2.283-.78 0-1.457-.572-1.775-2.153-.125-.618-.195-1.807-.195-2.538 0-1.34.125-2.552.5-3.412.355-.81.943-1.253 1.47-1.253.558 0 1.19.372 1.55 1.274.336.846.418 2.13.418 3.39 0 .77-.078 1.764-.216 2.407z"/>
  <polygon points="52.34 186.355 52.34 187.555 48.057 187.555 48.057 191.222 51.259 191.222 51.258 192.453 48.057 192.453 48.057 196.704 52.34 196.704 52.34 197.905 46.759 197.905 46.759 186.355 52.34 186.355"/>
  <polygon points="89.394 186.355 89.394 187.555 85.111 187.555 85.111 191.222 88.313 191.222 88.313 192.453 85.111 192.453 85.111 196.704 89.394 196.704 89.394 197.905 83.813 197.905 83.813 186.355 89.394 186.355"/>
  <path d="M14.24 189.322c-.04-.56-.2-1.247-.668-1.602-.614-.467-1.468-.334-1.877.333-.24.39-.284.966-.128 1.396.297 1.384 3.308 2.57 3.98 4.37l.002.003c.09.275.147.555.162.84.09 1.657-.92 3.15-2.595 3.25h.002c-.208.022-.415.027-.62.016-.994-.05-1.835-.676-2.154-1.633-.01-.026-.01-.032-.018-.053v-.003c-.13-.542-.12-1.01-.16-1.556h1.17c-.05.6-.017 1.38.53 1.756.115.08.23.146.344.195.114.05.23.085.343.105 1.303.178 2.013-1.007 1.822-2.204-.157-.722-.97-1.465-1.918-2.13-.967-.702-1.594-1.21-1.99-2.045-.123-.257-.194-.47-.235-.717-.197-1.348.12-2.64 1.51-3.14.716-.256 1.578-.237 2.278.07l.006.004c.172.114.34.23.487.365.76.688.87 1.46.88 2.38H14.24z"/>
</svg>
