<!--
  SVG Music Logos
  Tash Sultana - Notion EP v1.0.0
  https://github.com/tiagoporto/svg-music-logos
  Copyright (c) 2016-2018 Tiago Porto (http://tiagoporto.com)
-->
<svg xmlns="http://www.w3.org/2000/svg" viewBox="0 0 200 26">
  <path d="M88.104 19.771c0-.645-.12-1.176-.906-1.86-1.599-1.392-3.252-2.7-5.359-4.68-1.331-1.251-1.802-2.653-1.802-4.305 0-2.863 2.203-4.744 5.607-4.744 3.005 0 4.334 1.435 5.806 3.326l-2.865 2.429c-.984-1.363-2.042-2.447-3.123-2.447-1.111 0-1.762.51-1.762 1.456 0 .721.336 1.31.869 1.812 1.766 1.66 3.899 3.262 6.018 5.256 1.021.961 1.391 1.682 1.391 3.383 0 3.033-2.066 5.625-6.186 5.625-1.705 0-2.99-.281-4.024-.951-1.169-.757-1.997-1.982-2.378-3.302l3.009-1.953c.691 1.451 1.501 2.823 3.35 2.823 1.515-.001 2.355-.651 2.355-1.868z"/>
  <path d="M45.974 19.771c0-.645-.12-1.176-.906-1.86-1.599-1.392-3.252-2.7-5.359-4.68-1.331-1.251-1.802-2.653-1.802-4.305 0-2.863 2.203-4.744 5.607-4.744 3.005 0 4.334 1.435 5.806 3.326l-2.865 2.429c-.985-1.363-2.043-2.447-3.124-2.447-1.111 0-1.762.51-1.762 1.456 0 .721.336 1.31.869 1.812 1.766 1.66 3.899 3.262 6.018 5.256 1.021.961 1.391 1.682 1.391 3.383 0 3.033-2.066 5.625-6.186 5.625-1.705 0-2.99-.281-4.024-.951-1.169-.757-1.997-1.982-2.378-3.302l3.009-1.953c.691 1.451 1.501 2.823 3.35 2.823 1.515-.001 2.356-.651 2.356-1.868z"/>
  <rect x="95.605" y=".718" width="14" height="1.962"/>
  <polygon points="16.775 4.645 1 4.645 1 8.329 6.852 8.329 6.852 24.821 10.924 24.821 10.924 8.329 16.775 8.329"/>
  <path d="M27.498 4.645h-4.072l-7.742 20.176H35.24L27.498 4.645zm-2.036 5.306l2.637 6.872h-5.274l2.637-6.872zM20.509 22.86l.876-2.283h8.155l.876 2.283h-9.907z"/>
  <path d="M148.748 4.645h-4.072l-7.742 20.176h19.556l-7.742-20.176zm-2.036 5.306l2.637 6.872h-5.274l2.637-6.872zm-4.954 12.909l.876-2.283h8.155l.876 2.283h-9.907z"/>
  <path d="M191.258 4.645h-4.072l-7.742 20.176H199l-7.742-20.176zm-2.036 5.306l2.637 6.872h-5.274l2.637-6.872zm-4.953 12.909l.876-2.283h8.155l.876 2.283h-9.907z"/>
  <polygon points="138.339 4.645 122.564 4.645 122.564 8.329 128.416 8.329 128.416 24.821 132.488 24.821 132.488 8.329 138.339 8.329"/>
  <polygon points="172.258 4.645 172.258 17.578 163.868 4.645 159.796 4.645 159.796 24.821 163.868 24.821 163.868 11.754 172.258 24.821 176.33 24.821 176.33 4.645"/>
  <polygon points="117.994 21.138 117.994 4.645 113.922 4.645 113.922 24.821 123.552 24.821 123.552 21.138"/>
  <polygon points="64.193 4.645 64.193 12.369 57.295 12.369 57.295 4.645 53.223 4.645 53.223 24.821 57.295 24.821 57.295 15.878 64.193 15.878 64.193 24.821 68.265 24.821 68.265 4.645"/>
  <path d="M109.605 4.645h-4.072v14.331c0 1.989-1.74 2.743-2.928 2.743s-2.928-.527-2.928-2.743V4.645h-4.072v14.331c0 4.324 3.49 6.306 7 6.306 3.486 0 7-2.492 7-6.306V4.645z"/>
</svg>
