<!--
  SVG Music Logos
  The Rolling Stones - Flashpoint v1.0.0
  https://github.com/tiagoporto/svg-music-logos
  Copyright (c) 2016-2018 Tiago Porto (http://tiagoporto.com)
-->
<svg xmlns="http://www.w3.org/2000/svg" viewBox="0 0 200 32">
  <path d="M21.263 24.028H17.98l-2.188-5.925a5.592 5.592 0 0 0-.804-1.445 5.857 5.857 0 0 0-1.156-1.134 5.28 5.28 0 0 0-1.445-.746 5.258 5.258 0 0 0-1.673-.265H5.009v9.514H2V1.803h10.208c1.252 0 2.381.104 3.392.311 1.01.209 1.872.552 2.589 1.03a4.804 4.804 0 0 1 1.666 1.918c.391.798.588 1.779.588 2.945 0 .783-.125 1.498-.375 2.143a5.327 5.327 0 0 1-1.059 1.714 6.155 6.155 0 0 1-1.633 1.245c-.631.336-1.33.59-2.095.767 1.601.517 2.825 1.873 3.677 4.07l2.305 6.082zM5.009 11.844h6.857c.938 0 1.75-.064 2.436-.193.686-.128 1.253-.339 1.695-.635.443-.296.775-.687.993-1.174.217-.488.326-1.09.326-1.809 0-2.524-1.659-3.787-4.974-3.787H5.009v7.598z"/>
  <path d="M31.692 7.557c1.202 0 2.286.188 3.255.566a6.81 6.81 0 0 1 2.478 1.639c.683.716 1.211 1.596 1.578 2.64.365 1.045.55 2.233.55 3.567 0 1.382-.191 2.596-.575 3.64-.385 1.045-.925 1.925-1.616 2.639a6.68 6.68 0 0 1-2.478 1.615c-.96.363-2.023.543-3.192.543-1.15 0-2.205-.18-3.165-.543a6.68 6.68 0 0 1-2.478-1.615c-.693-.714-1.226-1.594-1.602-2.639-.376-1.044-.563-2.258-.563-3.64 0-1.365.187-2.575.563-3.628.376-1.051.909-1.932 1.602-2.637a6.752 6.752 0 0 1 2.478-1.603c.96-.364 2.014-.544 3.165-.544zm.005 14.592c1.477 0 2.647-.52 3.511-1.561.863-1.04 1.296-2.584 1.296-4.633 0-1.049-.118-1.959-.352-2.733-.235-.774-.567-1.42-.994-1.936a4.114 4.114 0 0 0-1.521-1.162 4.789 4.789 0 0 0-1.939-.387c-.721 0-1.376.137-1.961.411a4.173 4.173 0 0 0-1.511 1.197c-.418.525-.745 1.174-.98 1.948-.235.773-.353 1.661-.353 2.661 0 2.017.431 3.551 1.295 4.609.865 1.056 2.034 1.586 3.509 1.586z"/>
  <path d="M45.841 24.028h-3.009V1.803h3.009v22.225z"/>
  <path d="M53.201 24.028h-3.009V1.803h3.009v22.225z"/>
  <path d="M60.56 4.849h-3.009V1.803h3.009v3.046zm0 19.179h-3.009V7.896h3.009v16.132z"/>
  <path d="M67.997 9.926c1.464-1.579 3.119-2.369 4.965-2.369 3.776 0 5.664 1.97 5.664 5.908v10.564h-3.01V13.576c0-1.321-.24-2.274-.721-2.855-.481-.58-1.278-.87-2.392-.87-1.51 0-3.013.862-4.507 2.588v11.589h-3.009V7.896h3.009v2.03z"/>
  <path d="M96.481 22.78c0 5.195-2.424 7.793-7.268 7.793-1.052 0-1.991-.118-2.823-.349-.835-.233-1.546-.557-2.138-.973a4.365 4.365 0 0 1-1.364-1.525 4.27 4.27 0 0 1-.473-2.005H85.5c0 1.779 1.223 2.669 3.67 2.669.648 0 1.244-.077 1.783-.229a2.958 2.958 0 0 0 1.374-.839c.373-.404.667-.964.873-1.676.208-.712.312-1.627.312-2.745V22.1c-1.329 1.537-2.92 2.305-4.767 2.305-1.083 0-2.04-.194-2.882-.577a6.006 6.006 0 0 1-2.147-1.653c-.591-.715-1.038-1.587-1.348-2.615-.308-1.028-.461-2.185-.461-3.471 0-1.317.175-2.502.525-3.555.348-1.051.837-1.948 1.459-2.687a6.335 6.335 0 0 1 2.222-1.7c.856-.394 1.799-.59 2.833-.59 1.811 0 3.336.514 4.566 1.543V7.896h2.97V22.78zm-2.97-3.4v-7.723c-1.298-1.279-2.764-1.919-4.398-1.919-1.268 0-2.282.525-3.048 1.572-.766 1.048-1.149 2.638-1.149 4.764 0 2.017.359 3.534 1.085 4.549.726 1.017 1.722 1.525 2.989 1.525 1.631.001 3.14-.924 4.521-2.768z"/>
  <path d="M110.024 24.404c-1.653 0-3.093-.189-4.322-.569-1.227-.378-2.246-.905-3.057-1.582a6.556 6.556 0 0 1-1.83-2.402 8.004 8.004 0 0 1-.662-3.006h2.97c.066.832.286 1.553.662 2.162a4.857 4.857 0 0 0 1.461 1.512 6.432 6.432 0 0 0 2.085.889c.792.193 1.643.289 2.561.289.832 0 1.598-.084 2.298-.252.7-.168 1.298-.41 1.799-.73a3.65 3.65 0 0 0 1.173-1.173c.284-.463.426-.991.426-1.582 0-.623-.125-1.146-.376-1.569-.248-.423-.662-.791-1.234-1.102-.577-.312-1.322-.595-2.239-.85a49 49 0 0 0-3.372-.79c-1.348-.273-2.492-.595-3.433-.963-.944-.37-1.705-.797-2.287-1.286-.584-.489-1.007-1.047-1.274-1.674-.265-.624-.4-1.338-.4-2.141 0-.897.199-1.722.586-2.477a5.893 5.893 0 0 1 1.653-1.95c.71-.545 1.572-.971 2.589-1.275 1.017-.304 2.151-.456 3.402-.456 1.3 0 2.48.148 3.54.444 1.059.295 1.972.728 2.74 1.297a6.266 6.266 0 0 1 1.813 2.091c.442.825.679 1.766.712 2.824H115c-.284-2.684-2.173-4.024-5.672-4.024-1.724 0-3.045.311-3.965.934-.922.624-1.383 1.431-1.383 2.42 0 .465.076.864.227 1.199.149.336.423.632.823.887.399.256.946.493 1.636.708.69.215 1.57.436 2.636.66 1.05.226 1.977.447 2.785.664a46.78 46.78 0 0 1 2.112.617c.565.193 1.109.45 1.636.771.525.321.991.712 1.4 1.167.407.459.735.988.986 1.589.248.603.374 1.29.374 2.06 0 .964-.213 1.85-.638 2.661a6.608 6.608 0 0 1-1.766 2.107c-.752.593-1.655 1.059-2.707 1.397-1.053.335-2.207.504-3.46.504z"/>
  <path d="M128.925 24.066a11.52 11.52 0 0 1-1.026.142c-.35.029-.719.046-1.102.046-.939 0-1.676-.112-2.215-.338-.539-.226-.939-.552-1.199-.978-.263-.428-.421-.946-.48-1.558a21.783 21.783 0 0 1-.09-2.077v-9.152h-2.052V7.896h2.052V3.92h3.01v3.976h2.703v2.256h-2.703v9.323c0 .565.035 1.017.111 1.357.076.34.18.598.312.774a.937.937 0 0 0 .515.351c.206.057.438.084.688.084.265 0 .52-.008.761-.022.241-.015.48-.049.714-.096v2.143z"/>
  <path d="M138.177 7.557c1.201 0 2.287.188 3.254.566a6.802 6.802 0 0 1 2.478 1.639c.683.716 1.208 1.596 1.577 2.64.367 1.045.551 2.233.551 3.567 0 1.382-.194 2.596-.577 3.64-.383 1.045-.922 1.925-1.615 2.639a6.687 6.687 0 0 1-2.478 1.615c-.958.363-2.021.543-3.19.543-1.151 0-2.208-.18-3.168-.543a6.668 6.668 0 0 1-2.475-1.615c-.693-.714-1.227-1.594-1.603-2.639-.374-1.044-.563-2.258-.563-3.64 0-1.365.189-2.575.563-3.628.376-1.051.91-1.932 1.603-2.637a6.748 6.748 0 0 1 2.475-1.603c.96-.364 2.017-.544 3.168-.544zm.005 14.592c1.478 0 2.646-.52 3.511-1.561.863-1.04 1.296-2.584 1.296-4.633 0-1.049-.118-1.959-.352-2.733-.236-.774-.565-1.42-.993-1.936a4.119 4.119 0 0 0-1.525-1.162 4.764 4.764 0 0 0-1.936-.387c-.721 0-1.374.137-1.963.411a4.171 4.171 0 0 0-1.508 1.197c-.421.525-.747 1.174-.984 1.948-.234.773-.352 1.661-.352 2.661 0 2.017.433 3.551 1.296 4.609.864 1.056 2.035 1.586 3.51 1.586z"/>
  <path d="M152.404 9.926c1.464-1.579 3.119-2.369 4.965-2.369 3.776 0 5.663 1.97 5.663 5.908v10.564h-3.01V13.576c0-1.321-.239-2.274-.721-2.855-.48-.58-1.277-.87-2.39-.87-1.511 0-3.015.862-4.507 2.588v11.589h-3.008V7.896h3.008v2.03z"/>
  <path d="M174.462 24.404c-1.223 0-2.336-.189-3.341-.566a7.22 7.22 0 0 1-2.587-1.638c-.721-.716-1.277-1.595-1.672-2.64-.392-1.045-.589-2.241-.589-3.592 0-1.317.194-2.497.577-3.543.385-1.044.924-1.928 1.62-2.652a6.912 6.912 0 0 1 2.471-1.65c.953-.378 2.007-.566 3.163-.566 1.203 0 2.289.188 3.261.565a6.85 6.85 0 0 1 2.485 1.637c.683.715 1.211 1.594 1.579 2.637.367 1.044.551 2.231.551 3.563v.699h-12.659c.066.952.244 1.773.53 2.466.288.694.657 1.266 1.113 1.716.454.452.981.783 1.58.993a5.75 5.75 0 0 0 1.908.314c.504 0 1.002-.061 1.489-.181a4.393 4.393 0 0 0 1.315-.552 3.2 3.2 0 0 0 .948-.927c.243-.369.383-.793.416-1.273h3.048c-.118.847-.385 1.597-.804 2.245a5.647 5.647 0 0 1-1.582 1.622c-.636.433-1.369.76-2.197.986a9.966 9.966 0 0 1-2.623.337zm4.433-10.002c-.255-1.57-.799-2.741-1.634-3.51-.835-.77-1.887-1.154-3.152-1.154-.591 0-1.145.094-1.66.28a4.096 4.096 0 0 0-1.393.849c-.414.381-.764.867-1.05 1.457-.286.592-.489 1.284-.608 2.078h9.497z"/>
  <path d="M191.259 24.404c-4.58 0-6.968-1.729-7.169-5.189h3.01c.033 1.955 1.409 2.933 4.133 2.933 1.244 0 2.182-.238 2.811-.709.631-.473.948-1.094.948-1.864 0-.352-.062-.644-.187-.877-.125-.233-.364-.439-.712-.625-.35-.183-.842-.368-1.473-.552a52.283 52.283 0 0 0-2.473-.637 32.767 32.767 0 0 1-2.559-.713c-.707-.234-1.296-.522-1.759-.87a3.123 3.123 0 0 1-1.026-1.256c-.215-.492-.324-1.108-.324-1.849 0-.676.146-1.297.44-1.861a4.287 4.287 0 0 1 1.253-1.461c.541-.412 1.201-.734 1.977-.966.778-.234 1.641-.351 2.591-.351 4.374 0 6.613 1.505 6.713 4.514h-3.01c-.097-1.556-1.275-2.333-3.528-2.333-.463 0-.901.045-1.315.135a3.867 3.867 0 0 0-1.092.399 2.138 2.138 0 0 0-.747.68c-.18.275-.272.591-.272.947 0 .324.033.586.099.79.066.203.251.39.549.559.3.17.754.341 1.359.51.61.17 1.454.385 2.535.644 1 .24 1.875.485 2.622.734.75.249 1.369.555 1.861.915a3.54 3.54 0 0 1 1.111 1.315c.248.514.374 1.157.374 1.928 0 .708-.154 1.374-.463 2.001a4.68 4.68 0 0 1-1.341 1.627c-.584.459-1.296.821-2.13 1.085-.836.264-1.77.397-2.806.397z"/>
</svg>
