<!--
  SVG Music Logos
  The Cure - Wish v1.0.0
  https://github.com/tiagoporto/svg-music-logos
  Copyright (c) 2016-2018 Tiago Porto (http://tiagoporto.com)
-->
<svg xmlns="http://www.w3.org/2000/svg" viewBox="0 0 200 88">
  <path d="M55.06 11.085s-5.553 5.934-26.897 4.817C6.686 14.776 2.323 28.804 1.988 30.547 1.652 32.29-3.718 60.884 31.184 59.49c0 0 9.78-1.396 14.143-2.093 4.363-.698 10.74-1.047 10.74-1.047s.335 11.854 10.738 20.92c0 0 4.363 5.93 17.116 3.14 0 0 22.485-3.488 13.424-42.542 0 0-7.047-18.48-2.014-31.73 0 0-8.39 5.23-3.69 30.684 0 0 2.013 21.62-5.37 28.943 0 0-14.43 7.322-21.143-10.113 0 0 4.027-.348 6.712 1.047 0 0-2.685-3.488-8.055-5.233 0 0-3.02-21.27-14.43-25.455 0 0 5.034.698 6.712 25.107 0 0-16.16 2.09-28.575-.35 0 0-15.773-2.79-12.75-16.738 0 0 2.347-10.113 14.43-9.764 0 0 7.432-.097 14.813-2.782 6.963-2.53 11.075-10.4 11.075-10.4z"/>
  <path d="M128.02 84.1c-.212 1.08-2.114-10.812-7.046-18.83-4.95-8.05-16.21-21.97-18.325-28.247-2.117-6.276-6.496-21.117 4.58-29.64 6.342-4.88 19.382-8.02 35.943 13.6 0 0 8.106-8.368 25.374-3.486 0 0 10.22 3.485 15.152 3.834 0 0 3.875.7 12.334-1.393 0 0-.002 5.23-14.45 6.276 0 0-13.39-1.744-19.03-1.046 0 0-11.516.82-11.516 6.053 0 0-.464 3.71 11.517 9.638 0 0-4.934 2.092-12.685-3.487 0 0-.352 11.507 14.8 13.95 0 0 28.192 2.092 33.83 13.95 0 0-10.572-3.49-17.62-4.185 0 0-27.84-.7-35.24-7.324 0 0-19.736-11.157-9.164-28.94 0 0-10.57-11.16-17.62-9.416 0 0-11.277-1.395-6.343 20.224 0 0 4.582 12.553 11.982 25.107.002 0 5.993 10.81 3.526 23.364z"/>
</svg>
