<!--
  SVG Music Logos
  Tianastácia - Tianastácia v1.0.0
  https://github.com/tiagoporto/svg-music-logos
  Copyright (c) 2016-2018 Tiago Porto (http://tiagoporto.com)
-->
<svg xmlns="http://www.w3.org/2000/svg" viewBox="0 0 200 32.333">
  <path d="M74.38 19.553c1.464-2.064 2.428-4.384 3.4-6.695.305-.725.513-1.494.716-2.256.192-.723-.08-1.188-.75-1.377-.456-.128-.926-.093-1.393-.06-.255.018-.457.114-.537.362-.357 1.1-1.192 1.99-1.33 3.198-.086.736-.47 1.398-.784 2.076-1.09 2.37-2.71 4.442-3.748 6.842-.364.843-.96 1.59-1.48 2.36-.473.703-.914.75-1.238.048-.657-1.426-1.81-2.383-3-3.253-2.308-1.685-3.798-4.086-5.632-6.18-.537-.614-.86-1.43-.925-2.297-.018-.228-.06-.466-.15-.674-.264-.62-1.198-1.168-1.664-1.008-.907.312-1.607 1.543-1.326 2.468.286.942.87 1.83.135 2.836-.134.184-.013.547-.03.826-.15 2.593-.054 5.212-1 7.71-.28.74-.268 1.572-.148 2.356.202 1.32 1.315 1.696 2.337.85.68-.562.617-1.29.537-1.894 0-.47-.04-.803.008-1.122.318-2.066.88-4.1.83-6.216-.003-.09.007-.2.054-.27.073-.11.176-.205.286-.276.023-.015.15.095.2.167.37.534.635 1.137 1.095 1.614 2.427 2.52 4.733 5.157 7.305 7.537.24.222.47.458.733.648.54.388 1.074.454 1.673.04.97-.67 1.9-1.402 2.457-2.44.966-1.798 2.37-3.344 3.026-5.317.07-.214.21-.413.344-.602z"/>
  <path d="M51.014 24.216c-.213-.075-.476-.168-.672-.108-1.198.368-1.997.124-2.13-1.268-1.21-1.31-1.25-3.08-1.642-4.653-.58-2.335-1.23-4.667-1.568-7.067-.183-1.302-.518-1.486-1.873-1.55-.094-.004-.188 0-.28 0-1.636.017-1.994.304-2.508 1.857-1.09 3.3-2.215 6.588-3.3 9.89-.247.747-.393 1.528-.585 2.293-.102.404-.103.878-.324 1.2-.754 1.092-.887 2.298-.857 3.568.007.317-.097.64-.17.955-.045.194-.054.38.095.517.588.54 1.315.4 1.997.342.637-.054.574-.576.612-1.057.078-1.008.296-1.262 1.215-1.4 2.252-.342 4.51-.64 6.762-.976.643-.097 1.08.062 1.32.706.178.477.39.947.637 1.392.39.7 1.237.89 2.08.505.64-.292.762-.633.528-1.508-.036-.133-.123-.253-.164-.385-.16-.51-.087-.92.5-1.1.177-.054.354-.12.515-.21.402-.223.93-.413.877-.966-.053-.58-.575-.807-1.066-.978zm-6.736.085c-1.457.287-2.956.335-4.383.788-.13.04-.276.034-.384.046-.495-.003-.695-.228-.592-.72.076-.36.193-.722.36-1.05 1.148-2.247 1.793-4.667 2.48-7.075.203-.713.44-1.416.68-2.117.057-.167.183-.434.285-.438.213-.008.16.26.217.417.717 1.97 1.04 4.04 1.532 6.065.2.825.523 1.578.813 2.36.422 1.138.197 1.487-1.007 1.724z"/>
  <path d="M104.582 9.078c-.352-.237-.723-.397-1.155-.453-1.06-.137-2.113-.347-3.175-.456-1.205-.125-2.413-.186-3.608.17-1.186.35-1.657.835-1.604 2.1.112 2.633.85 5.04 2.848 6.905.956.892 1.89 1.804 2.75 2.79.496.572.907 1.198 1.023 1.954.15.964.386 1.923.32 2.913-.033.605-.058 1.21-.108 1.816-.015.18-.085.362-.15.535-.406 1.06-1.322 1.42-2.2.776-1.175-.862-2.215-1.833-2.405-3.44-.07-.596-.193-1.19-.205-1.795-.013-.668-.187-1.295-.57-1.838-.39-.552-.835-.646-1.6-.414-.783.237-.85.345-.902 1.172-.056.898.22 1.753.295 2.634.2 2.37 1.396 4.196 3.167 5.697.21.178.56.295.63.51.19.586.635.603 1.095.635 1.233.088 2.482-.08 3.534-.648 1.666-.9 2.843-2.248 2.767-4.34-.04-1.072-.02-2.146-.028-3.22-.004-.464-.002-.916-.215-1.36-.98-2.052-2.294-3.853-4.13-5.197-.874-.64-1.457-1.394-1.805-2.396-.26-.745-.55-1.494-1.376-1.836-.29-.12-.316-.343-.065-.512.208-.14.405-.244.27-.53-.308-.66.173-.716.595-.727.93-.023 1.864 0 2.796.016.327.007.65.04.93.25 1.208.895 2.425 1.775 2.537 3.477.024.368.093.79.607.772.477-.018.884-.12 1.047-.712.422-1.544-.57-4.348-1.908-5.25z"/>
  <path d="M146.335 24.89c-.568-.43-.998-.97-1.39-1.552-.193-.29-.16-.52.153-.683.206-.107.423-.19.632-.292.84-.404.952-.644.792-1.662-.124-.79-.446-1.116-1.302-1.166-.6-.035-1.213 0-1.813.065-.857.093-1.597-.114-2.108-.815-1.242-1.703-2.84-3.09-4.153-4.727-.42-.523-.754-1.068-.76-1.76-.008-.606-.164-1.087-.83-1.285-.732-.217-1.164.208-1.528.698-.36.484-.648 1.02-.938 1.55-1.075 1.965-2.483 3.714-3.648 5.615-.795 1.297-1.45 2.552-3.225 2.725-.816.08-.934.794-.276 1.376.53.468.526.952.285 1.498-.17.38-.425.723-.616 1.095-.234.454-.46.917-.472 1.444-.007.29.038.553.357.682.946.383 1.81.178 2.662-.313.716-.412.884-1.004.752-1.766-.055-.32-.026-.652-.04-.978-.028-.598.28-.97.808-1.17.436-.166.884-.267 1.363-.254.886.023 1.773.007 3.044.007 1.153.023 2.685.048 4.21-.273.582-.123 1.207-.044 1.813-.056.614-.013 1.053.274 1.406.766.516.72 1.033 1.454 1.317 2.29.34.997 1.047 1.484 1.985 1.772.933.286 1.27.166 1.703-.653.56-1.065.527-1.638-.19-2.18zm-8.196-4.375c-.133.042-.27.093-.405.1-1.953.087-3.898.258-5.97.54-.5.01-.794-.316-.738-.957.04-.45.293-.77.58-1.085.88-.963 1.665-1.996 2.34-3.114.12-.196.276-.38.45-.524.3-.25.594-.385.91.043 1.025 1.383 2.08 2.743 3.112 4.12.377.506.31.687-.28.875z"/>
  <path d="M92.074 26.667c-.3-1.073-1.198-1.89-1.28-3.056-.01-.177-.142-.352-.35-.39-1.01-.184-1.363-1.047-1.852-1.772-1.068-1.582-1.678-3.428-2.86-4.944-.603-.772-1.113-1.605-1.544-2.485-.268-.547-.588-1.06-.984-1.52-.867-1.012-3.218-1.117-3.75.718-.143.494-.19.995-.306 1.484-.607 2.57-1.757 4.985-2.055 7.65-.145 1.298-.386 1.365-1.633 1.45-.51.033-1.025.03-1.518.2-.71.245-1.03.956-.82 1.823.13.546.416.706 1.312.526.45-.09.63.062.687.428.058.364.018.743.06 1.11.043.394.233.72.635.84.755.227 1.956-.6 2.05-1.4.12-1.014.14-1.038 1.19-1.114 2.465-.18 4.933-.294 7.405-.23.646.015 1.385-.232 1.916.12.604.402.52 1.246.712 1.905.336 1.15.926 1.61 2.117 1.636 1.184.026 1.444-.306 1.286-1.51-.07-.518-.28-.98-.416-1.47zm-6.417-3.425c-.976.01-1.952.002-2.93.002v-.05c-1.068 0-2.138.014-3.207-.008-.253-.005-.636-.062-.417-.477.893-1.694 1.244-3.573 1.87-5.357.228-.645.293-1.362.805-1.887.667.346 1.015.993 1.42 1.57 1.17 1.67 2.272 3.387 3.103 5.258.363.81.262.94-.643.948z"/>
  <path d="M22.187 8.977c-.847-.24-1.737-.358-2.625-.215-1.484.24-2.955.214-4.442-.017-1.2-.186-2.42-.18-3.627-.035-1.937.234-3.87.503-5.798.796-1.01.153-2 .434-2.923.877-.42.2-.788.536-.772 1.074.016.513.464.64.824.842 1.106.625 2.26.428 3.388.14 1.64-.42 3.293-.58 4.976-.477 1.322.08 1.49.35 1.75 1.664.26 1.318.036 2.646.307 3.965.63 3.06.36 6.203.755 9.29.06.472-.028.967.462 1.22.676.347 1.422.446 2.168.34.51-.07.696-.465.603-1.01-.567-3.302-.82-6.638-1.06-9.974-.038-.508-.043-1.014-.13-1.523-.143-.822-.265-1.658-.28-2.49-.016-1.07.166-1.21 1.202-1.232.605-.013 1.21-.002 1.817-.002v.07c.7 0 1.398-.013 2.097.004.744.018 1.317-.305 1.883-.766.918-.75.9-2.123-.576-2.54z"/>
  <path d="M197.454 17.635c-.76-.577-1.567-.362-2.197-.277-1.456.04-1.52-.024-1.747-1.364-.053-.317-.142-.633-.255-.934-.407-1.084-.845-2.157-1.244-3.244-.358-.98-.58-1.934.205-2.88.418-.503.26-1.032-.22-1.305-.505-.286-.994-.053-1.23.317-.376.588-.86.71-1.49.812-1.033.165-1.274.62-.79 1.555.265.514.164.872-.086 1.272-.173.275-.368.54-.586.78-2.073 2.277-3.856 4.758-5.364 7.442-.355.63-.586 1.376-1.364 1.695-.27.11-.332.43-.374.71-.127.848.25 1.423 1.095 1.678.83.25 1.275.08 1.613-.838.29-.794.75-1.194 1.584-1.337.91-.156 1.787-.498 2.694-.688 1.272-.266 2.552-.505 3.84-.683 1.06-.147 1.126-.056 1.53.938.608 1.503 1.295 2.976 1.635 4.58.144.68.645 1.118 1.26 1.407.833.393 1.253.19 1.602-.7.238-.61.187-1.173-.102-1.747-.522-1.035-1.022-2.08-1.538-3.12-.13-.26-.316-.422-.638-.464-.367-.047-.984.244-1.045-.237-.056-.443.76-.093.887-.397.373-.904 1.132-.79 1.842-.81.674-.02.795-.52.965-1.003.188-.536-.06-.838-.483-1.158zm-6.396.304c-1.47.4-2.95.753-4.13 1.05h-.455c-.24 0-.46-.044-.6-.267-.175-.272.063-.434.187-.59.665-.837 1.326-1.673 1.87-2.598.28-.48.57-.956.894-1.408.214-.298.48-.565.746-.818.318-.302.624-.19.788.158.176.373.278.783.394 1.182.233.8.43 1.61.688 2.4.144.445.034.776-.382.89z"/>
  <path d="M125.826 12.28c.862-.063 1.37-1.102.84-1.755-.694-.857-1.632-1.517-2.737-1.46-1.05.054-2.14.05-3.17.41-.312.11-.59.243-.856.437-1.254.91-1.856.875-2.86-.224-.438-.48-.89-.838-1.564-.64-.802.233-.626.927-.65 1.51-.04 1.016-.248 1.3-1.214 1.56-.22.06-.455.117-.68.11-.926-.028-1.86.137-2.778-.112-.475-.128-.926.046-1.372.155-.58.143-.774.658-.874 1.157-.096.478.262.782.646.973.75.373 1.536.638 2.387.704 1.167.09 2.328-.005 3.492-.057 1.16-.05 1.257.047 1.318 1.23.022.418-.013.84.016 1.258.08 1.16.085 2.335.294 3.472.27 1.47.544 2.943.508 4.425-.026 1.04.47 1.76.99 2.52.395.582.99.664 1.617.535.59-.12.988-.64 1.006-1.336.013-.506.098-1.12-.14-1.506-.882-1.417-.46-3.227-1.472-4.582-.047-.063-.016-.182-.03-.273-.113-.68.43-1.482-.4-2.032-.084-.055.055-.237.16-.334.188-.17.222-.4.2-.795-.12-.623-.26-1.398-.42-2.17-.27-1.303-.154-1.478 1.2-1.77.18-.038.367-.065.537-.132.945-.374 1.9-.714 2.835-1.124.96-.42 2.11-.078 3.17-.155z"/>
  <path d="M164.67 22.952c-.37.005-.738.074-1.104.132-2.158.343-4.313.675-6.51.717-2.414.047-4.18-.877-5.377-3.03-.63-1.128-.876-2.18-.523-3.442.302-1.082.714-2.1 1.186-3.11 1.086-2.33 3.54-3.183 5.994-2.745.476.085 1.016.2 1.234.776.157.41.447.534.884.41.486-.137.84-.355.925-.903.152-.976-.137-1.566-1.058-2.05-1.38-.727-2.827-.693-4.335-.5-1.677.216-3.165.672-4.215 2.105-.3.41-.716.734-1.05 1.122-.88 1.024-1.796 2.05-2.217 3.353-.91 2.817-.242 5.408 1.334 7.815.196.3.508.56.823.742 2.313 1.334 4.693 2.47 7.636 2.25 1.476.06 3.082-.28 4.702-.433.86-.08 1.763-.15 2.567-.58.693-.37.758-.482.61-1.307-.214-1.2-.36-1.338-1.51-1.32z"/>
  <path d="M30.867 9.555c.083-.2.285-.36.45-.52.82-.786 1.014-1.693.69-2.79C31.4 4.2 30.666 3.62 28.538 3.62c-.56 0-1.12.01-1.678-.01-.113-.002-.252-.082-.286-.25-.036-.176.08-.274.186-.337.417-.252.887-.24 1.356-.234.464.006.94.058 1.383-.117.32-.126.545-.35.53-.74-.012-.317-.18-.5-.452-.64-.302-.153-.633-.134-.946-.21-1.446-.347-2.502.868-3.843.942-.13.007-.28.242-.362.402-1.19 2.345-1.755 4.68-.16 7.12.833 1.273 2.066 1.793 3.42 1.82 1.306.022 2.588-.375 3.18-1.812zm-5.225-2.023c-.202-.637-.204-1.283-.134-1.935.008-.078.09-.15.137-.223.047.077.126.152.134.233.03.32-.033.666.063.962.442 1.36 1.886 1.997 3.223 1.436.348-.146.654-.375.64-.825-.014-.472-.235-.793-.702-.913-.36-.092-.732-.134-1.08-.255-.153-.053-.328-.23-.366-.38-.053-.21.157-.306.347-.348.316-.07.633-.143.952-.196.303-.05.618.06.725.31.32.756.756 1.518.427 2.384-.306.8-1.005 1.042-1.775 1.145-.23.03-.464.042-.612.055-1.24-.007-1.618-.305-1.98-1.45z"/>
  <path d="M33.078 24.067c-1.078-1.644-1.873-3.412-2.438-5.294-.488-1.625-1.022-3.237-1.534-4.856-.058-.182-.13-.393-.32-.425-.566-.096-.994-.502-1.523-.654-.963-.278-1.72.44-1.367 1.387.43 1.162.274 2.493 1.07 3.544.132.17.17.436.193.663.164 1.63 1.2 3.023 1.28 4.68.01.213.175.432.308.62.648.91 1.29 1.825 1.972 2.71.438.57 1 .977 1.9.965 1.2.007 1.712-.748 1.19-1.994-.196-.47-.452-.92-.732-1.347z"/>
  <path d="M181.47 11.226c.425-.63.626-1.33.383-2.116-.295-.953-.832-1.732-1.815-1.932-1.044-.213-2.134-.12-3.076.453-.28.17-.463.59-.57.932-.177.564.165.946.606 1.256.433.304.688.023.934-.27.21-.252.396-.544.736-.614.398-.082.85-.264 1.152.174.2.29-.04.976-.42 1.232-.184.126-.414.226-.634.253-.743.09-1.496.103-2.228-.07-1.31-.307-1.606-.92-1.07-2.133.51-1.153 2.31-2.15 3.57-1.924.41.074.798.26 1.205.092.338.03.666.114.978.07.204-.027.49-.205.542-.376.07-.226-.208-.36-.416-.476-1.707-.962-4.958-.677-6.47.574-2.05 1.695-1.54 4.786.946 5.71.477.18.962.338 1.443.506 1.494.517 3.332-.045 4.205-1.34z"/>
  <path d="M174.09 13.932c-.497-.02-.787.234-.933.672-.13.395-.26.796-.34 1.204-.55 2.82-1.974 5.39-2.35 8.26-.018.132-.102.258-.165.382-.388.764-.493 1.587-.52 2.427-.028 1.174.158 1.357 1.372 1.328.28-.007.568.008.833-.06.43-.112.77-.373.79-.86.044-1.01.46-1.966.26-3.024-.132-.71-.043-1.478.238-2.194.76-1.943 1-4.048 1.827-5.968.23-.534.09-1.006-.06-1.485-.14-.434-.475-.662-.95-.68z"/>
  <path d="M139.776 11.483c1.87.007 2.614-.587 3.147-2.166.304-.902.1-1.528-1.118-1.727-.63-.103-1.183.028-1.627.55-.39.46-.84.867-1.26 1.3-.54.56-.717 1.148-.464 1.606.315.568.88.392 1.322.437z"/>
</svg>
