<!--
  SVG Music Logos
  Tianastácia - Tá na Boa v0.1.0
  https://github.com/tiagoporto/svg-music-logos
  Copyright (c) 2016-2018 Tiago Porto (http://tiagoporto.com)
-->
<svg xmlns="http://www.w3.org/2000/svg" viewBox="0 0 160 200">
  <path d="M39.168 104.663c2.216 1.524 4.86 1.358 7.026.597 2.283-.802 4.323-2.532 5.733-4.735 4.25-6.637 8.48-13.286 12.792-19.884 2.563-3.924 3.99-8.36 5.86-12.596.847-1.923-.11-3.635-2.076-4.29-2.184-.728-5.463.462-6.592 2.572-.89 1.663-1.692 3.405-2.262 5.2-1.22 3.837-2.988 7.403-5.146 10.764-2.846 4.434-5.843 8.77-8.77 13.154-1.523 2.283-2.525 2.668-4.98 1.313-2.765-1.527-5.47-3.195-8.05-5.015-3.95-2.786-7.772-5.755-11.648-8.647-3.572-2.664-7.033-5.516-8.7-9.77-.904-2.31-2.736-2.86-4.616-3.268-1.614-.352-2.986.685-4.09 1.9-.983 1.08-.375 1.99.005 3.156.637 1.958 1.38 3.968 1.037 6.158-.31 1.973-.454 3.972-.607 5.965-.097 1.266.16 2.6-.15 3.802-.93 3.64-.752 7.347-1.056 11.028-.2 2.392.972 3.807 2.48 5.16 1.65 1.475 3.242 1.304 4.57-.54.587-.817 1.087-1.862 1.174-2.843.364-4.104.592-8.222.795-12.34.08-1.664.153-3.302.957-5.125 4.036 2.83 7.886 5.545 11.755 8.233 4.842 3.364 9.697 6.71 14.556 10.053z"/>
  <path d="M102.81 64.89c2.803.254 2.94.168 3.722-2.48.584-1.98 1.214-2.482 3.322-2.713.943-.104 1.877-.303 2.822-.384 5.356-.457 10.645-1.532 16.05-1.576 2.506-.02 4.178.912 5.416 3.064 1.724 2.998 3.042 3.38 6.212 2.13 1.997-.79 2.195-.92 1.602-2.992-.478-1.67.25-2.633 1.397-3.473.485-.356 1.23-.354 1.724-.702.552-.39 1.294-.97 1.326-1.505.032-.526-.638-1.2-1.15-1.632-1.156-.98-2.61-.85-3.956-.645-3.11.477-5.008-1.065-6.37-3.586-.553-1.02-1.127-2.053-1.503-3.144-1.256-3.647-2.51-7.298-3.606-10.995-.92-3.102-1.52-6.298-2.434-9.402-.906-3.078-1.912-5.24-5.578-4.785-.51.063-1.046-.13-1.572-.172-3.002-.237-5.365 1.11-6.648 3.843-.974 2.075-1.898 4.174-2.82 6.272-1.776 4.034-3.58 8.055-5.286 12.118-1.456 3.466-2.572 7.092-4.238 10.45-1.91 3.844-2.826 7.66-1.425 12.103 1.107.076 2.05.123 2.992.208zm17.002-35.15c.096-.22.512-.3.917-.518.864 2.48 1.676 4.89 2.545 7.28 1.247 3.432 2.573 6.834 3.778 10.28.303.867.328 1.847.386 2.782.077 1.266-.647 2-1.828 2.214-2.064.372-4.14.684-6.214.985-1.767.256-3.543.453-5.313.69-1.423.193-2.842.884-4.6-.1 3.444-7.894 6.87-15.76 10.327-23.614z"/>
  <path d="M126.57 68.86c-5.095.572-7.468 2.802-5.483 8.425 1.995 5.65 5.886 9.65 11.175 12.364 1.688.866 3.417 1.685 5 2.72 5.663 3.71 8.336 9.018 8.03 15.768-.106 2.342-1.94 3.84-4.25 3.49-3.312-.502-6.157-1.822-8.177-4.73-1.28-1.843-2.174-3.72-2.728-5.918-.95-3.766-3.434-4.903-6.924-4.304-.993.17-1.803.88-1.83 1.935-.034 1.357-.088 2.81.34 4.06 1.524 4.47 3.964 8.41 7.74 11.34 3.2 2.48 6.657 4.25 10.92 4.397 4.414.152 7.965-1.778 11.345-4.067 2.507-1.7 3.652-4.48 3.212-7.49-.514-3.51-.805-7.134-2.588-10.332-.65-1.164-1.394-2.327-2.313-3.28-2.82-2.924-6.443-4.704-9.866-6.784-2.327-1.414-4.903-2.5-6.72-4.684-1.4-1.68-2.897-3.283-4.61-5.215.035-.127.106-.434.21-.73.732-2.068.738-2.01 2.785-2.15 1.883-.13 3.756-.407 5.635-.6.418-.043.856-.072 1.264.004 4.402.82 8.23 2.545 10.512 6.71.415.758 2.38 1.448 3.02.875.792-.707 1.877-1.982 1.693-2.732-.983-4.017-3.177-7.275-7.082-9.09-.364-.17-.827-.174-1.244-.174-6.363 0-12.785-.517-19.07.19z"/>
  <path d="M112.47 138.523c2.42.69 4.774 1.656 6.494 3.725.73.88 1.67 1.677 2.673 2.218 2.115 1.14 4.26 2.318 6.823 1.02 1.592-.808 2.004-2.342 2.753-3.62-1.42-3.52-4.922-4.124-7.984-5.86.99-1.08 1.782-1.924 2.55-2.79.865-.977.94-2.17.438-3.25-.444-.953-1.258-1.724-2.508-1.574-1.347.162-2.695.324-4.037.52-3.57.52-7.14.842-10.537-.756-2.63-1.238-5.25-2.515-7.798-3.914-2.945-1.617-5.994-3.1-8.245-5.755-.596-.703-1.453-1.234-2.277-1.684-1.597-.873-2.75-.782-3.973.603-1.1 1.244-2.137 2.65-2.784 4.164-2.048 4.782-3.923 9.64-5.817 14.485-1.272 3.253-2.942 6.06-6.578 7.175-.562.172-1.162.94-1.295 1.53-.08.362.618 1.035 1.105 1.363 2.404 1.616 2.433 1.798 1.695 4.586-.317 1.197-.34 2.485-.39 3.737-.042 1.094.675 1.487 1.67 1.366 1.356-.166 2.698-.455 4.057-.575 2.8-.248 4.178-2.22 3.406-4.936-.23-.806-.413-1.63-.545-2.456-.248-1.553.11-2.42 1.62-2.987 1.85-.695 3.775-1.453 5.71-1.6 4-.304 7.732-1.64 11.573-2.536 2.646-.617 5.2-1.636 7.85-2.216 1.395-.308 3-.37 4.35.015zm-20.42-1.177c-1.604.44-3.255.806-4.758 1.485-1.364.618-2.29.023-3.137-.73-.805-.717-.61-1.705-.14-2.612 1.35-2.596 2.64-5.227 4.078-7.773.448-.792 1.21-1.508 1.995-1.972.54-.318 1.533-.428 2.044-.137 3.996 2.268 7.93 4.647 11.862 7.026.305.184.45.635.872 1.268-4.452 1.194-8.638 2.302-12.816 3.446z"/>
  <path d="M74.675 102.71c.408-1.73 1.556-2.327 3.264-2.24 1.158.057 2.327-.066 3.49-.136 6.54-.39 13.08-.813 19.62-1.166 2.296-.124 3.95.533 4.725 3.152.81 2.733 2.98 4.28 6.24 4.39.15-.032.56-.13.974-.2 2.96-.487 3.56-1.672 1.99-4.307-1.565-2.625-3.003-5.335-4.724-7.853-.99-1.447-2.38-2.64-3.686-3.845-.912-.84-2.103-1.394-2.96-2.28-1.682-1.74-3.238-3.606-4.812-5.45-2.33-2.73-4.58-5.528-6.96-8.212-2.245-2.532-4.777-4.75-7.91-6.152-.527-.235-1.378-.553-1.697-.317-1.757 1.302-3.852 2.3-4.887 4.372-1.692 3.388-2.83 6.964-3.853 10.62-.794 2.837-.54 5.8-1.687 8.615-.67 1.642-1.484 2.8-2.935 3.442-1.426.632-3.006.913-4.517 1.354-.587.172-1.42.185-1.7.58-.508.72-1.14 1.855-.887 2.48.338.835 1.484 1.91 2.256 1.89 1.817-.05 2.628.85 3.414 2.198 1.1 1.892 2.142 2.413 4.07 1.798 1.36-.434 2.775-1.054 3.17-2.732zm8.288-24.75c.157-.45.68-.775 1.23-1.37 1.713 1.476 3.55 2.734 4.974 4.353 3.118 3.54 6.054 7.242 9.004 10.926.726.905.18 1.62-1.263 1.63-5.82.03-11.64.027-17.46.008-.494-.002-.99-.21-1.65-.362 1.744-5.158 3.426-10.182 5.166-15.186z"/>
  <path d="M157.108 190.092c-.19-1.307-.538-2.818-1.36-3.763-2.056-2.363-3.977-4.94-6.944-6.356-.37-.176-.645-.753-.744-1.194-.038-.167.51-.557.852-.703 1.713-.734 3.504-1.31 5.158-2.154 1.84-.94 1.54-2.505.51-3.683-.494-.564-1.412-.916-2.188-1.034-1.14-.172-2.34-.175-3.485-.027-3.562.46-6.245-.48-8.017-3.913-2.147-4.16-5.418-7.87-4.517-13.07.053-.307.02-.635-.01-.95-.157-1.545-.802-2.253-2.243-1.913-2.865.676-5.552 1.832-7.577 4.096-.576.644-.826 1.4-.223 2.274 1.022 1.48.41 2.727-.587 3.995-4.29 5.456-8.563 10.93-12.774 16.45-1.394 1.825-2.655 3.764-3.846 5.73-1.51 2.493-.12 4.926 2.742 5.096 1.863.11 3.305-.472 4.345-2.036 1.14-1.715 2.578-3.102 4.63-3.605 1.507-.37 2.995-.736 4.486-1.21 3.886-1.232 7.905-2.04 11.863-3.047 3.126-.797 4.5-.144 6.233 2.61 1.787 2.84 3.688 5.62 5.693 8.312 1.298 1.742 3.217 2.627 4.923 2.89 2.247-.063 3.33-1.058 3.078-2.798zm-20.815-15.985c-3.672.33-7.045 1.82-10.583 2.657-1.287.304-2.678.164-4.647.256 2.98-4.253 5.61-7.99 8.217-11.74.68-.978 1.54-1.298 2.723-1.198 1.152.097 1.18.97 1.555 1.7.86 1.67 1.826 3.286 2.72 4.938.35.644.72 1.305.9 2.004.165.65-.063 1.31-.885 1.383z"/>
  <path d="M5.447 24.673c.6.166 1.257.166 1.89.17 3.813.016 7.63.1 11.44-.015 2.735-.083 5.46-.454 8.19-.68.95-.077 1.945-.292 2.847-.1 1.21.257 2.473.67 3.47 1.366.53.37.658 1.462.775 2.256.307 2.082.52 4.18.75 6.272.116 1.046.04 2.137.31 3.138 1.1 4.103.874 8.366 1.618 12.51.428 2.38.672 4.796 1.122 7.173.126.666.64 1.284 1.06 1.864 1.123 1.548 2.84 1.22 4.382 1.21 2.87-.017 3.695-1.28 3.148-4.044-.653-3.297-1.09-6.636-1.617-9.957-.246-1.554-.488-3.108-.718-4.665-.138-.934-.272-1.87-.365-2.81-.115-1.16-.187-2.32-.275-3.482-.2-2.624-.505-5.247-.56-7.874-.04-1.866.354-2.17 2.294-2.19 3.39-.038 6.785-.09 10.17.065 2.748.126 4.94-.76 6.72-2.805.478-.548.998-1.06 1.498-1.587-2.244-2.254-4.87-3.525-7.678-3.432-5.07.168-10.134.492-15.203.668-6.768.236-13.54.358-20.307.604-2.106.076-4.208.608-6.302.553-3.17-.082-5.94 1.188-8.85 2.04-1.096.322-1.233 1.01-1.236 1.89-.004.973.534 1.616 1.425 1.863z"/>
  <path d="M62.303 189.968c-.598-.116-1.242-.07-1.857-.016-3.564.315-7.12.825-10.69.944-4.973.165-9.954.047-14.93.04-3.382-.003-6.447-.887-8.998-3.227-3.905-3.583-5.55-7.333-2.277-12.85.582-.978.94-2.094 1.554-3.047 1.784-2.767 3.812-5.415 7.108-6.387 4.274-1.26 8.72-1.253 12.683.777 2.33 1.193 3.87 1.055 5.734-.715-.282-.978-.413-1.834-.777-2.576-.305-.623-.79-1.457-1.353-1.605-3.13-.826-6.288-1.603-9.48-2.14-2.888-.487-5.556.822-8.256 1.596-1.7.488-3.463 1.05-4.934 1.99-3.55 2.27-6.86 4.936-9.306 8.393-2.532 3.578-4.27 7.355-2.842 12.098 1.61 5.348 4.685 8.938 9.948 10.88 2.265.835 4.51 1.632 6.846 2.252 2.845.754 5.656 1.672 8.63 1.514 3.686-.196 7.374-.857 11.044-.746 3.764.113 7.324-.858 10.978-1.285.94-.11 1.948-.83 2.65-1.542 1.804-1.83 1.084-3.853-1.475-4.35z"/>
  <path d="M63.334 115.723c-3.42-.87-6.915-1.13-10.287.24-2.208.897-4.324 2.015-6.496 3.003-2.56 1.166-5.078 1.716-7.735.044-.9-.567-2.18-.705-3.292-.726-1.725-.034-2.626 1.465-1.91 3.178.383.918.27 1.61-.23 2.363-1.156 1.738-3.04 2.244-4.868 2.537-2.902.466-5.848.717-8.785.885-1.77.1-2.567 1.32-3.42 2.492-.178.244.086 1.002.363 1.353.863 1.093 2.085 1.267 3.428 1.24 5.07-.096 10.135.116 15.18-.803 2.387-.435 2.792.036 3.71 2.328.698 1.74 1.295 3.52 1.906 5.29 1.74 5.045 3.25 10.175 5.78 14.918 1.132 2.125 2.825 3.654 4.867 4.8 1.584.887 2.912-.142 4.032-1.03 1.002-.796 1.655-1.988.982-3.39-.817-1.7-1.415-3.587-2.556-5.042-4.38-5.59-6.835-12.065-9.012-18.688-.476-1.448.192-2.765 1.606-3.37 3.676-1.574 7.34-3.183 11.056-4.653 1.744-.69 3.49-1.542 5.49-1.268 1.98.272 3.128-.83 3.95-2.39-.805-1.748-2.107-2.893-3.756-3.312z"/>
  <path d="M75.68 23.41c5.36-.2 9.716-2.487 12.49-7.324.812-1.416.76-2.907.302-4.29-1.33-4.01-5.323-6.098-9.593-5.303-1.33.248-2.715.29-4.072.264-.38-.007-.75-.593-1.122-.913.367-.277.71-.745 1.107-.794.94-.114 1.91-.105 2.854-.01 2.115.212 3.65-.652 4.8-2.34C81.82.964 80.298.77 79.03 1.182c-2.82.915-5.797.668-8.648 1.657-2.35.814-3.752 2.253-4.893 4.13-1.212 1.99-1.987 4.218-1.585 6.598.973 5.78 5.92 10.06 11.776 9.84zM71.19 12.513c1.183 2.502 3.026 3.748 5.576 3.64 1.724-.073 3.637.155 4.77-1.808-.768-1.513-1.75-2.59-3.66-2.37-.715.084-1.333-.276-1.13-1.076.09-.353.705-.58 1.095-.845.073-.05.207-.007.312-.015 3.56-.24 4.568.797 4.413 4.306-.088 1.985-1.532 2.77-2.963 3.308-1.35.506-2.897.663-4.357.657-3.223-.01-4.705-2.084-4.057-5.796z"/>
  <path d="M80.82 30.325c-1.183-2.655-3.398-3.527-6.07-3.647-.547.045-1.074.1-1.602.128-1.007.054-1.628.564-1.576 1.58.058 1.145.07 2.353.447 3.408 1.508 4.213 3.112 8.393 4.754 12.557 2.152 5.456 4.832 10.493 10.438 13.278 1.98.983 4.644 1.024 5.852-.218 1.086-1.117.626-3.572-.863-5.473-3.723-4.754-6.732-9.9-8.665-15.67-.687-2.052-1.826-3.952-2.714-5.942z"/>
  <path d="M103.704 152.85c-3.15-1.396-6.425-1.033-9.618-.318-1.585.355-2.73 3.05-2.105 4.123.568.97 2.87 1.185 4.317.393.182-.1.305-.325.49-.394 1.305-.48 2.604-.73 3.865.165-1.18 2.105-1.175 2.15-2.308 2.297-2.615.34-5.225.6-7.858.03-1.95-.42-2.74-1.665-1.723-3.382.73-1.23 1.683-2.548 2.877-3.242 3.046-1.772 6.445-2.523 9.993-2.187 1.33.126 2.616.25 4.55-.27-.886-.79-1.3-1.477-1.817-1.565-2.47-.42-4.994-1.054-7.452-.897-2.66.17-5.308.993-7.822 2.022-4.147 1.698-5.616 3.726-5.46 7.44.11 2.62 1.356 4.27 3.882 5.11 1.353.45 2.757.798 4.09 1.23 4.63 1.498 8.886.96 12.966-1.533 3.236-1.977 3.718-4.91 1.21-7.667-.54-.594-1.327-1.02-2.076-1.354z"/>
  <path d="M85.747 167.963c-1.12.2-1.973.42-2.17 1.81-.14.99-.73 1.91-1.057 2.88-.9 2.675-1.77 5.33-2.188 8.167-.377 2.55-1.475 4.986-2.128 7.506-.604 2.332-1.246 4.686-1.496 7.07-.286 2.722.74 3.612 3.46 3.605 3.27-.007 5.39-2.158 5.422-5.52.015-1.586-.007-3.17.005-4.755.01-1.372-.197-2.804.12-4.105.718-2.944 1.716-5.82 2.57-8.73.64-2.185 1.537-4.385.07-6.594-.613-.924-1.337-1.56-2.608-1.333z"/>
  <path d="M102.637 116.063c-.217.494-.22 1.556.045 1.707 1.327.754 2.777 1.292 4.156 1.894 1.244-.475 2.276-1.05 3.376-1.253 2.414-.448 3.527-2.237 4.366-4.166.862-1.983-.27-3.522-2.46-3.717-3.772-.337-7.957 2.063-9.483 5.536z"/>
</svg>
