<!--
  SVG Music Logos
  U2 - No Line On The Honrizon v1.0.0
  https://github.com/tiagoporto/svg-music-logos
  Copyright (c) 2016-2018 Tiago Porto (http://tiagoporto.com)
-->
<svg xmlns="http://www.w3.org/2000/svg" viewBox="0 0 72 200">
  <polygon points="63.86,77.3 63.86,93.83 7.82,93.83 7.82,77.3 63.86,77.3"/>
  <polygon points="63.86,104.33 63.86,120.86 7.82,120.86 7.82,104.33 63.86,104.33"/>
  <polygon points="47.33,6 63.86,6 63.86,68.71 7.82,68.71 7.82,6 24.06,6 24.06,52.18 47.33,52.18 47.33,6"/>
  <polygon points="63.86,170.37 24.41,170.37 24.41,178.62 63.86,178.62 63.86,195.15 7.82,195.15 7.82,153.85 47.33,153.85 47.33,147.11 7.82,147.1 7.82,130.58 63.86,130.58"/>
</svg>
