<svg xmlns="http://www.w3.org/2000/svg" viewBox="0 0 200 86">
  <path d="M43.166 20.66c.113.148.207.27.326.428.103-.036.216-.064.318-.114.056-.028.098-.09.14-.142.39-.492.784-.98 1.096-1.53.09-.158.23-.3.374-.415.232-.185.398-.45.692-.56.08-.03.155-.092.218-.153.18-.175.398-.18.624-.14.053.008.12.023.15.06.142.17.33.328.394.525.08.244.07.522.07.787 0 .135-.09.248-.218.298l-.68-.125c-.263.27-.544.485-.728.763-.24.36-.533.717-.503 1.203.01.17.008.334.17.466.053-.005.118-.004.18-.018.207-.044.413-.09.618-.143.118-.03.25-.048.344-.114.232-.16.487-.2.757-.222.264-.023.525-.085.79-.11.186-.02.375-.014.56-.005.088.003.175.036.26.06.187.055.427.02.528.233.124.26.23.526.165.834-.058.282-.076.572-.105.858-.018.178.063.298.235.357.2.068.396.148.598.206.395.112.488.2.507.594.028.61.037 1.224.052 1.836 0 .067-.003.134-.013.2-.032.226-.085.284-.305.336-.096.023-.194.04-.322.064-.028.127-.05.254-.084.38-.044.17-.067.355-.15.506-.11.204-.158.416-.172.638-.035.555-.057 1.11-.093 1.666-.01.165-.03.336-.083.49-.11.32-.17.645-.173.983-.003.28-.09.52-.31.71-.194.17-.35.208-.572.07-.36-.22-.59-.513-.59-.973-.005-.98-.044-1.958-.064-2.937-.007-.374-.036-.734-.343-1.005-.04-.035-.06-.092-.11-.172-.445-.07-.914-.1-1.355.076-.238.093-.464.204-.72.243-.042.006-.08.036-.096.043-.145.215-.267.414-.407.6-.1.13-.216.252-.337.363-.183.167-.22.303-.11.494.126.223.322.327.524.24.212-.09.408-.217.61-.33.04-.02.068-.06.108-.076.247-.097.49-.198.7-.368.064-.05.167-.063.254-.073.242-.026.354.07.367.317.014.25-.037.472-.222.672-.34.37-.72.678-1.132.965-.31.216-.65.436-.82.81-.01.02-.023.042-.04.053-.177.12-.26.285-.283.5-.04.39-.1.774.05 1.152.007.018.032.03.07.064.155-.178.374-.3.467-.53.25-.615.75-.623 1.237-.39.158.076.312.165.468.25.04.02.094.04.11.073.114.26.344.465.356.774.018.437-.01.863-.163 1.282-.074.203-.088.433-.11.653-.024.26-.077.503-.227.723-.054.08-.095.18-.104.276-.033.332-.065.665-.066.998 0 .405-.052.795-.178 1.182-.07.218-.102.457-.106.688-.012.768-.017 1.537.005 2.305.013.466.066.933.13 1.395.155 1.15.177 2.308.2 3.466.015.78 0 1.56-.002 2.338-.002.382-.027.756-.266 1.083-.05.068-.054.167-.083.25-.046.138-.086.28-.28.354-.114-.053-.27-.098-.387-.19-.086-.067-.148-.19-.177-.3-.05-.184-.097-.357-.206-.522-.087-.132-.116-.31-.15-.47-.042-.207-.09-.4-.202-.59-.097-.164-.123-.38-.147-.574-.03-.247-.097-.472-.203-.7-.087-.186-.11-.403-.155-.608-.023-.107-.03-.217-.05-.344-.105-.032-.196-.073-.29-.086-.26-.035-.44.082-.49.34-.04.205-.06.42-.056.63.01.633.035 1.268.048 1.902.01.512.007 1.024.022 1.536.014.456.052.91.065 1.366.008.288-.008.576-.02.864-.01.244-.04.488-.042.732 0 .282.12.512.345.694.304-.112.453-.315.458-.63.003-.19.023-.378.036-.566.018-.257.036-.513.238-.71.03-.03.05-.08.05-.12.01-.387.31-.544.576-.717.198-.13.422-.148.636-.034.22.118.45.178.7.19.277.013.357.097.377.368.028.392.045.782-.247 1.107-.056.062-.07.16-.104.242-.04.09-.072.187-.122.273-.165.287-.384.553-.493.858-.124.35-.436.596-.484.976-.005.05-.043.106-.082.142-.252.23-.24.545-.248.84-.01.305.108.4.418.45.24.042.477.1.73.153.24-.128.467-.28.517-.59.007-.044.023-.092.052-.123.2-.216.23-.492.3-.762.052-.205.22-.378.29-.582.07-.2.09-.412.288-.544.043-.03.072-.087.094-.136.08-.184.232-.22.412-.212.32.012.412.1.424.424.01.25-.042.477-.2.688-.227.307-.185.736.056 1.046.064.082.114.195.122.297.026.323-.008.613-.224.906-.253.343-.517.597-.95.644-.052.006-.123.026-.148.064-.15.225-.41.39-.39.71.003.043-.012.088-.01.132.036.657-.33 1.022-.897 1.243-.02.008-.036.025-.087.06-.023.1-.048.23-.085.354-.05.168-.092.344-.173.5-.078.148-.117.288-.056.444.17.435-.04.83-.128 1.236-.005.02-.016.042-.03.06-.288.375-.578.75-.87 1.125-.033.044-.08.08-.1.13-.11.254-.266.504-.303.77-.058.41-.295.692-.555.958-.337.346-.563.765-.833 1.155-.012.018-.025.04-.027.06-.03.412-.247.752-.417 1.11-.176.375-.436.675-.86.75-.296.053-.493.176-.578.47-.02.072-.084.13-.12.197-.064.114-.153.224-.174.346-.06.345-.294.568-.52.79-.21.207-.47.318-.78.333-.31.015-.617.082-.927.11-.152.013-.31-.006-.463-.02-.366-.028-.73-.074-1.097-.092-.468-.023-.935-.036-1.363-.266-.086-.046-.19-.063-.29-.08-.15-.028-.254-.103-.346-.23-.114-.16-.26-.3-.408-.43-.06-.054-.163-.068-.25-.08-.143-.02-.294-.003-.432-.04-.547-.144-1.083-.013-1.62.052-.144.017-.29.04-.377.183-.01.018-.028.04-.046.046-.36.084-.613.38-.956.5-.125.043-.252.087-.37.146-.24.12-.47.106-.705-.008-.1-.048-.202-.095-.31-.12-.197-.05-.365-.12-.507-.29-.152-.18-.37-.307-.54-.478-.183-.186-.338-.4-.518-.593-.297-.317-.446-.737-.722-1.06-.354-.414-.545-.93-.895-1.343-.055-.064-.07-.16-.104-.244-.02-.05-.024-.12-.06-.154-.31-.31-.443-.74-.713-1.067-.263-.32-.476-.658-.675-1.015-.084-.15-.205-.284-.33-.405-.26-.25-.3-.645-.586-.878-.04-.032-.06-.095-.072-.147-.047-.198-.113-.384-.284-.513-.017-.013-.03-.035-.036-.056-.15-.57-.498-1.09-.397-1.725.054-.34.065-.685.22-1.004.052-.106.07-.233.088-.353.09-.64.154-1.282.262-1.917.13-.774.046-1.53-.11-2.287-.043-.213-.05-.21-.23-.373-.07.063-.15.12-.21.193-.21.255-.393.534-.623.77-.345.352-.604.79-1.04 1.056-.2.122-.253.127-.433-.027-.2-.172-.414-.327-.617-.496-.12-.1-.237-.203-.34-.32-.193-.22-.188-.632-.012-.867.22-.292.4-.623.653-.878.238-.24.312-.557.51-.81.132-.17.11-.375.068-.568-.277-.293-.602-.433-1.006-.454-.293-.016-.58-.134-.87-.204-.162-.038-.323-.086-.487-.102-.332-.03-.666-.056-1-.06-.416-.007-.778-.174-1.138-.35-.085-.04-.152-.116-.242-.187.21-.277.328-.595.7-.65.01-.002.023-.005.03-.012.258-.257.622-.32.925-.496.15-.087.326-.14.498-.17.21-.037.41-.08.597-.196.108-.067.25-.1.38-.11.476-.028.955-.04 1.433-.056.122-.004.245.006.367 0 .306-.015.5-.178.55-.48.1-.6.065-1.2-.016-1.798-.006-.054-.02-.112-.048-.16-.244-.42-.465-.865-.88-1.152-.24-.165-.493-.304-.806-.185-.102.04-.22.04-.326.066-.085.02-.19.035-.245.09-.15.15-.328.226-.523.28-.032.01-.075.017-.09.04-.164.262-.464.336-.695.502-.437.313-.908.578-1.355.877-.21.14-.396.31-.593.47-.044.034-.083.08-.133.1-.365.15-.636.427-.936.666-.058.047-.13.08-.203.108-.146.055-.28.116-.39.24-.16.174-.392.205-.614.217-.173.01-.307-.127-.283-.3.025-.183.053-.4.163-.532.147-.177.246-.362.323-.57.025-.07.097-.12.145-.18.048-.06.115-.117.133-.186.053-.2.182-.35.284-.522.156-.263.262-.555.398-.853-.042-.038-.088-.115-.136-.117-.287-.01-.584-.04-.807.206-.015.016-.03.043-.047.046-.385.072-.66.387-1.036.476-.086.02-.19.025-.254.076-.3.234-.66.248-1.01.3-.12.018-.253.03-.35.09-.277.175-.583.216-.894.244-.204.018-.38.1-.565.18-.443.193-.9.353-1.357.51-.167.057-.35.07-.478.213-.02.025-.055.048-.085.05-.443.045-.785.35-1.202.463-.085.023-.18.047-.244.102-.166.143-.37.185-.566.263-.304.12-.565.344-.905.385-.163.21-.398.27-.64.316-.033.005-.074.017-.09.04-.154.23-.405.255-.622.35-.19.105-.382.204-.566.318-.253.156-.494.33-.75.48-.14.083-.297.152-.455.186-.163.037-.265-.038-.417-.23.127-.23.237-.462.452-.664.422-.398.892-.72 1.36-1.05.152-.108.298-.228.427-.36.28-.292.626-.487.955-.71.197-.134.357-.324.53-.49.136-.13.26-.27.4-.392.276-.238.556-.47.84-.697.058-.046.142-.06.212-.095.148-.07.295-.142.442-.215.04-.02.073-.056.115-.065.347-.083.65-.262.973-.405.52-.23.922-.567 1.27-1.012.183-.236.247-.483.303-.756.04-.193.126-.376.195-.562.027-.072.078-.138.093-.212.057-.288.223-.496.433-.692.187-.173.377-.3.632-.344.14-.024.268-.102.402-.156.082-.033.16-.082.247-.1.406-.078.606-.375.836-.683.252-.338.3-.764.564-1.088.07-.085.067-.23.09-.35.066-.324.165-.41.5-.414.255 0 .483.062.64.288.038.054.088.102.14.142.197.15.267.358.252.59-.017.242-.074.482-.1.725-.012.13-.01.264.016.39.045.23.188.357.43.397.413.068.815.08 1.254-.074.013-.164.036-.325.04-.488.01-.73.424-1.174 1.16-1.23.323-.023.646-.032.968-.05.315-.017.528-.164.68-.453.15-.28.35-.532.7-.614.17-.04.318-.155.483-.22.148-.058.305-.095.457-.207-.063-.032-.125-.066-.19-.096-.138-.065-.276-.13-.417-.19-.132-.053-.268-.095-.4-.145-.145-.054-.31-.082-.428-.17-.367-.275-.723-.21-1.095-.027-.157.077-.33.122-.493.187-.11.044-.218.098-.327.146-.15.066-.295.165-.45.186-.275.036-.556.025-.834.033-.47.01-.77-.228-.95-.644-.044-.1-.1-.196-.143-.28.04-.196.187-.24.325-.273.246-.062.427-.23.53-.43.115-.226.272-.3.496-.315.044-.003.086-.02.063-.015.282-.208.503-.388.743-.54.097-.06.233-.076.352-.08.345-.014.69-.027 1.035-.01.334.016.58-.12.767-.374.062-.084.097-.202.105-.307.03-.392.11-.768.253-1.136.063-.162.063-.35.086-.525.01-.088.004-.178.013-.267.04-.397.23-.606.62-.6.366.007.698-.072 1.037-.2.234-.086.5-.1.754-.124.203-.02.398-.04.557-.185.033-.03.074-.057.115-.068.337-.085.64-.24.93-.43.11-.072.222-.14.333-.21.028-.018.052-.052.08-.057.35-.056.528-.34.77-.562.082-.27.04-.533-.092-.794-.3-.598-.26-1.2-.002-1.803.056-.13.106-.268.126-.408.056-.396.08-.792.285-1.158.087-.156.083-.366.1-.554.027-.28.096-.542.207-.803.08-.19.126-.408.126-.613 0-.833.142-1.64.41-2.424.05-.148.05-.15.212-.274.147.04.162.172.183.287.03.164.042.33.054.498.04.544.092 1.088.112 1.632.01.332-.028.667-.04 1-.005.165 0 .33 0 .49.11.083.196.153.288.214.205.135.38.114.524-.076.205-.272.36-.55.427-.912.074-.412.115-.786-.02-1.193-.076-.235-.054-.507-.05-.762.016-.735.034-1.47.277-2.178.06-.175.07-.372.078-.56.035-.99.072-1.98.283-2.954.065-.3.05-.62.073-.93.025-.343.036-.688.074-1.03.026-.232.137-.314.353-.315.196 0 .29.066.326.303.055.362.076.73.12 1.094.04.32.086.638.136.955.044.285.1.57.148.854.027.165.046.33.068.495.22.167.427.33.64.486.243.176.382.405.388.704.007.3.005.6.002.902-.003.295.044.562.242.81.155.195.254.44.352.673.076.178.066.364-.05.54-.07.11-.134.238-.153.365-.048.33-.264.51-.54.626-.274.115-.468.287-.564.572-.028.082-.093.15-.13.23-.216.445-.45.886-.535 1.378-.05.298-.09.59-.244.86-.07.12-.1.27-.117.412-.03.224-.147.418-.205.624-.15.528-.504.993-.493 1.57.003.235.02.462.212.643.066.06.087.175.116.27.053.17.107.34.14.513.02.116.028.245 0 .358-.14.56-.153 1.127-.117 1.694.02.32.075.642.164.95.13.455.144.89-.04 1.335-.144.342-.17.705-.07 1.11.207.023.402.053.598.067.592.043.71.168.722.762.005.244.005.49.035.732.018.15.087.293.138.438.015.04.055.074.067.115.07.255.094.535.218.76.132.24.246.472.262.745.01.16.05.307.166.425.01.008.015.017.022.026.168.252.188.46.058.58-.14.128-.54.086-.71-.067-.09-.08-.193-.143-.29-.213-.326-.233-.634-.467-.823-.85-.135-.27-.284-.535-.417-.81-.103-.21-.224-.416-.316-.64-.085-.21-.242-.392-.375-.58-.21-.297-.396-.61-.655-.87-.132-.13-.255-.28-.407-.383-.1-.07-.246-.07-.38-.106-.162.248-.373.363-.632.433-.334.09-.522.373-.495.662.004.033 0 .073.017.098.197.276.328.607.645.784.298.167.58.354.78.642.03.043.076.08.122.11.123.082.17.202.17.343.005.278.023.558.002.834-.034.45.01.89.095 1.328.046.233.04.456-.006.692-.116.616-.138 1.245-.018 1.86.05.26.23.494.364.767.227-.165.433-.28.52-.534.065-.19.228-.304.426-.337.08-.013.193-.005.25.042.347.296.57.67.634 1.13.006.042.01.092-.004.13-.195.503-.1 1.04-.184 1.553-.05.306-.102.615-.187.912-.093.325-.1.625.054.938.08.164.128.36.135.544.04 1.045.09 2.09.01 3.137-.02.284.028.575.052.863.005.064.038.128.07.186.104.193.213.385.343.618h.37c.187-.224.346-.453.545-.638.123-.114.307-.16.445-.228.262.145.267.364.274.573.02.612.032 1.224.04 1.837.006.314.038.61.193.9.105.198.123.447.158.676.03.2.08.385.173.57.088.174.13.376.167.57.032.166.09.29.253.363.09.04.155.13.242.176.115.062.237.127.363.15.335.058.392-.027.505-.29.153-.354.237-.715.247-1.098.002-.078.01-.156.017-.233.037-.404.26-.47.596-.463.052 0 .123.016.153.052.18.206.41.383.395.702-.01.222-.012.445-.006.668.01.465.19.638.652.66.154.006.312.02.46.06.21.058.265.16.222.376-.02.097-.056.192-.097.283-.135.3-.188.572.076.857.222.24.18.732-.022 1-.17.225-.17.225-.134.527.162.127.347.093.483-.02.322-.268.63-.557.928-.852.156-.154.286-.335.417-.51.044-.06.05-.147.085-.215.064-.127.14-.247.202-.374.052-.107.095-.22.137-.33.068-.186.136-.372.2-.56.05-.146.11-.29.134-.44.05-.32.103-.63.252-.93.09-.18.092-.408.116-.617.028-.247.054-.485.25-.672.057-.056.064-.162.102-.242.062-.13.112-.27.2-.377.1-.122.142-.247.142-.398-.002-.457-.038-.9-.167-1.35-.122-.422-.158-.875-.18-1.317-.04-.756-.052-1.513-.05-2.27.003-.41-.204-.716-.412-1.03-.08-.12-.177-.233-.287-.324-.273-.228-.357-.54-.352-.866.006-.4.057-.798.095-1.196.008-.087.027-.184.075-.253.166-.24.2-.51.237-.79.038-.274.103-.545.166-.816.084-.355.04-.47-.298-.58-.234-.075-.39-.25-.48-.437-.127-.26-.257-.51-.42-.75-.09-.134-.137-.3-.212-.474.152-.236.306-.47.585-.63.26-.15.53-.31.74-.548.145-.16.337-.29.528-.395.197-.108.362-.243.53-.387.16-.136.235-.285.274-.474.03-.142.066-.282.103-.42.105-.39.044-.55-.303-.778-.256-.17-.24-.64.028-.79l.838-.467.02-.35c-.206-.186-.386-.348-.564-.512-.158-.145-.198-.442-.022-.637.217-.24.22-.517.258-.802.047-.353.1-.706.182-1.052.095-.404.1-.784-.095-1.168-.104-.205-.147-.442-.212-.666-.014-.05-.014-.11-.006-.164.04-.262.08-.526.136-.785.035-.16.103-.316.15-.475.06-.19.118-.38.16-.576.014-.065-.023-.14-.04-.225-.15.045-.14.156-.156.246-.027.144-.052.284-.203.36-.044.024-.096.077-.104.123-.046.276-.212.485-.38.69-.15.188-.297.385-.477.54-.25.217-.625.104-.764-.2-.028-.06-.058-.12-.093-.176-.285-.46-.298-.916.01-1.374.06-.09.083-.203.127-.304.052-.12.09-.255.167-.36.205-.276.2-.56.036-.84-.116-.196-.173-.403-.216-.624-.153-.79-.002-1.57.068-2.353.007-.076.027-.158.064-.224.18-.32.202-.677.23-1.032.024-.28.087-.546.207-.803.064-.137.11-.297.11-.448.006-.824-.002-1.648-.016-2.47 0-.104-.03-.238-.1-.303-.166-.16-.215-.357-.257-.565-.157-.788-.26-1.582-.32-2.382-.013-.172-.06-.322-.162-.465-.075-.107-.117-.237-.185-.35-.18-.3-.338-.608-.555-.89-.21-.273-.432-.562-.507-.924-.033-.16-.12-.31-.166-.466-.06-.2-.13-.404-.146-.61-.032-.456-.115-.896-.214-1.344-.116-.526-.11-1.082-.13-1.626-.008-.255.1-.355.296-.366.29-.017.464.077.51.313.044.213.096.41.258.565.008.007.016.018.017.028.034.403.346.687.45 1.06.023.083.083.154.127.23.066.114.157.22.196.34.087.275.325.415.508.596.144.142.355.218.54.32.036.02.083.022.17.042l.706-.794c.02-.144.064-.31.06-.473-.02-.722-.042-1.446-.094-2.166-.028-.39-.08-.772-.03-1.164.148-1.163.126-2.333.12-3.502 0-.21-.007-.423-.014-.634-.014-.433-.047-.857-.194-1.278-.115-.33-.122-.698-.16-1.05-.02-.18-.05-.34-.163-.495-.202-.274-.17-.633.044-.887.176.01.205.153.224.28.03.196.15.333.24.496.207.372.374.773.502 1.18.066.21.09.426.2.627.08.14.133.313.14.473.027.76.17 1.503.25 2.254.106.994.105 2 .146 3 .01.245 0 .49.012.734.01.235.113.445.184.665.126.388.298.75.5 1.096.19.324.326.663.46 1.01.074.188.174.365.176.565.004.445-.014.89-.017 1.335 0 .243 0 .487.014.73.015.278.04.555.07.83.03.243.058.487.117.722.04.15.03.27-.036.413-.098.213-.207.407-.36.588-.133.155-.195.37-.298.58z"/>
  <path d="M136.275 40.36c-.106.184-.213.35-.3.525-.084.174-.284.292-.264.544.208.147.423.3.636.454.08.058.203.104.23.182.163.45.567.805.512 1.34-.03.297.093.48.39.613.34.15.69.354.884.68.216.362.492.713.473 1.184-.008.196.053.396.088.593.04.23.01.304-.168.42-.202.132-.41.26-.6.41-.17.132-.224.324-.186.538.055.318.114.635.175.95.015.077.03.157.066.223.15.258.32.503.455.767.08.154.124.333.148.506.027.19.07.36.177.528.096.152.137.348.17.53.038.198.07.385.192.56.085.12.12.285.147.435.042.242.09.47.218.692.17.296.22.632.117.968-.025.08-.108.173-.186.2-.108.04-.173-.057-.227-.15-.094-.162-.2-.315-.3-.474-.035-.057-.074-.115-.092-.177-.14-.475-.486-.796-.835-1.16-.03.05-.064.076-.064.103 0 .296.008.574.152.864.18.362.417.696.55 1.08.022.063.038.138.082.18.373.363.29.84.315 1.285.005.097-.107.205-.176.3-.057.08-.167.137-.187.22-.06.25-.21.433-.37.62-.24.285-.667.238-.797-.114-.063-.17-.062-.368-.084-.554-.017-.137-.025-.275-.037-.412l-.086-.008c-.02.074-.046.147-.058.222-.062.417-.112.836-.183 1.25-.05.29-.047.32.24.496l.7-.278c.242.11.27.31.27.51 0 .18-.03.356-.033.534-.003.322 0 .644.013.966.018.404-.295.752-.702.767-.096.004-.192.014-.295.02-.074.276-.03.513.108.72.163.245.212.512.216.794.003.29.02.58-.002.866-.024.298-.1.354-.397.395-.065.01-.132.01-.198.02-.237.033-.388.16-.426.4-.04.256-.08.505-.31.676-.046.033-.053.12-.075.182-.02.063-.02.148-.06.188-.305.296-.298.73-.484 1.08-.148.277-.138.603-.092.915.06.417.13.835.196 1.252.058.37.02.728-.108 1.084-.07.196-.104.41-.125.617-.05.498-.08 1-.124 1.497-.016.177-.043.354-.085.527-.042.177-.17.287-.346.325-.174.038-.31-.048-.394-.19-.083-.14-.164-.295-.195-.454-.05-.26-.057-.53-.087-.795-.016-.14-.043-.28-.064-.41-.303-.025-.374.02-.477.23-.2.404-.412.803-.616 1.207-.04.08-.057.17-.1.246-.14.25-.28.504-.443.74-.042.06-.18.088-.267.076-.215-.03-.373-.158-.415-.38-.04-.206-.046-.418-.08-.626-.092-.578-.31-1.085-.847-1.39-.143-.08-.22-.187-.213-.346.01-.244.01-.49.045-.732.03-.206.024-.398-.044-.544-.256-.255-.48-.48-.707-.703-.142-.138-.27-.303-.435-.4-.265-.158-.33-.43-.392-.673-.073-.283-.097-.593.014-.888.04-.105.07-.213.095-.32.045-.187.14-.325.272-.475.25-.283.495-.593.467-1.026-.023-.378-.02-.76.007-1.135.014-.205.082-.412.16-.604.055-.136.066-.258.01-.384-.2-.44-.2-.91-.218-1.376-.008-.16.05-.328.11-.48.06-.156.16-.184.325-.14.043.01.087.023.125.046.386.237.81.2 1.234.18.14-.006.254-.05.353-.16.08-.088.188-.153.267-.215.106-.272.208-.528.304-.786.02-.05.03-.11.023-.164-.05-.35-.1-.702-.163-1.05-.03-.162-.143-.242-.314-.24-.378 0-.75.01-1.124.11-.407.108-.83.147-1.247.214-.108.017-.216.027-.295.037-.034.04-.047.047-.048.056-.053.35-.3.577-.513.828-.22.26-.44.52-.657.78-.08.096-.173.145-.293.11-.18-.055-.336-.13-.474-.284-.27-.303-.584-.568-.882-.847-.088-.083-.184-.157-.286-.243-.244-.094-.46.068-.63.105-.576-.1-.96-.505-1.485-.626-.04.082-.09.14-.09.198.003.403-.265.7-.405 1.046-.028.068-.082.154-.144.174-.357.118-.605.44-1.003.503-.218.036-.423.192-.617.32-.19.125-.252.34-.193.526.084.263.308.4.544.262.34-.196.71-.25 1.072-.35.404-.11.63.036.668.447.03.332.082.666.076.998-.007.403.096.743.432 1.046.06-.01.17.004.248-.038.195-.103.402-.204.557-.355.144-.14.286-.24.48-.266.178-.022.246-.134.25-.3.002-.132-.016-.27.006-.4.016-.1.055-.223.128-.282.102-.084.23-.033.337.046.428.32.478 1 .103 1.377-.132.135-.265.27-.376.422-.054.074-.074.185-.082.28-.02.232-.09.44-.245.61-.15.164-.174.344-.133.555.086.45.142.903.04 1.357-.043.193-.095.39-.187.562-.082.152-.133.298-.15.468-.048.49-.07.975-.01 1.466.03.24.017.49.004.733-.012.212-.06.414-.224.578-.065.066-.106.173-.12.267-.035.224-.107.424-.232.617-.08.125-.092.293-.14.44-.06.187-.123.375-.19.56-.048.136-.1.27-.157.402-.066.15-.142.298-.213.446-.048.1-.106.194-.14.298-.11.318-.368.513-.544.768-.244-.066-.288-.244-.29-.4-.01-.454-.13-.877-.263-1.304-.06-.188-.064-.394-.086-.593-.02-.188-.04-.36-.206-.504-.17-.146-.157-.47-.01-.64.163-.19.33-.38.5-.566.112-.12.232-.233.363-.364v-.387c-.144-.015-.26-.03-.38-.036-.2-.01-.402 0-.6-.028-.31-.045-.375-.163-.296-.46.04-.148.078-.295.114-.433-.16-.137-.29-.188-.474-.03.008.103.016.232.027.36.013.156.037.31.038.464.002.218-.086.378-.304.47-.12.05-.216.152-.325.227-.245.17-.45.147-.652-.067-.15-.158-.256-.335-.258-.562-.002-.172-.066-.317-.162-.463-.09-.135-.144-.3-.183-.457-.05-.195-.1-.375-.223-.547-.104-.146-.134-.347-.21-.56l-.364-.037c-.136.165-.252.285-.344.42-.055.08-.082.18-.102.277-.023.108-.025.22-.036.332-.016.164-.08.293-.238.375-.124.065-.238.15-.337.214-.056-.025-.085-.028-.096-.043-.283-.415-.48-.865-.367-1.373.105-.478.21-.954.257-1.443.01-.097.035-.2.08-.286.15-.283.19-.584.216-.9.053-.677.093-1.352.04-2.032-.036-.444-.02-.89-.062-1.334-.026-.284-.11-.564-.175-.843-.034-.14-.083-.276-.124-.414l-.093-.317c-.055-.028-.076-.05-.094-.047-.31.034-.496-.1-.61-.39-.066-.174-.19-.326-.296-.48-.036-.053-.09-.104-.15-.128-.224-.092-.33-.3-.44-.484-.11-.18-.16-.418-.022-.603.15-.2.386-.233.632-.206.33.037.663.058.994.09.273.027.468-.1.625-.306.033-.043.075-.093.08-.142.032-.362.11-.726-.01-1.105-.305-.102-.607-.077-.873.062-.244.128-.49.202-.757.233-.175.02-.348.067-.523.102-.252-.208-.26-.35-.06-.563.165-.176.32-.363.463-.558.163-.223.3-.465.463-.69.115-.158.262-.286.36-.467.11-.203.205-.437.347-.597.223-.25.236-.568.383-.826.4-.702.258-1.445.243-2.182-.003-.085-.03-.183-.08-.25-.117-.155-.092-.3-.037-.47.376-1.17.56-2.36.362-3.586-.045-.28-.038-.553.052-.825.038-.115.046-.24.07-.36.015-.076.015-.163.055-.224.043-.065.12-.136.192-.15.052-.008.156.062.176.118.09.25.282.422.435.625.088.117.19.182.326.208.286.054.57.082.857-.037.082-.25.16-.49.24-.73-.202-.34-.29-.378-.642-.27-.214.067-.426.16-.633-.083.03-.32.024-.644.288-.936.33-.365.592-.79.9-1.176.23-.284.483-.548.728-.818.03-.032.07-.062.11-.072.55-.138.85-.6 1.234-.95.293-.266.572-.55.853-.83.18-.178.37-.35.522-.55.14-.183.333-.22.528-.236.08-.007.177.072.25.13.06.048.086.167.142.18.36.076.618.406.998.417.444.012.888.003 1.332 0 .052 0 .105-.028.16-.043.078-.186.042-.337-.104-.453-.184-.146-.208-.33-.157-.54.052-.213.148-.28.36-.252.065.01.137.02.19.053.267.17.57.168.867.215.16.026.325.073.472.142.47.22.947.37 1.475.247.15-.036.31-.033.463-.056.41-.06.672.146.81.493.118.292.33.403.605.455.153.03.308.048.462.07.236.033.447.108.634.27.095.084.233.127.36.163.34.1.688.18 1.03.277.143.047.304.082.37.277zM124.91 53.034c.03-.01.07-.01.09-.03.195-.218.455-.25.726-.277.174-.017.352-.054.516-.114.49-.18.978-.302 1.465-.043.157-.09.184-.225.163-.357-.077-.51-.027-1.02-.032-1.53-.007-.69-.04-1.38-.045-2.07-.004-.582-.29-1.083-.4-1.615-.364-.083-.445-.057-.692.105-.257.17-.513.38-.8.454-.297.075-.488.244-.685.434-.07.07-.1.19-.177.238-.313.19-.3.507-.3.798 0 .152.07.353.18.445.23.196.272.416.223.685-.01.054-.007.11-.013.166-.028.257.013.488.23.662.14.113.152.27.102.426-.034.103-.11.192-.156.29-.06.13-.137.257-.16.393-.028.182-.07.337-.21.474-.153.153-.144.257-.025.47zm5.568-5.69c-.102.406-.034 1.012.147 1.32.05.085.113.168.188.23.305.25.36.52.144.865-.115.183-.17.38-.098.57.148.393.108.876.524 1.146.017.01.024.037.036.055.152.22.302.44.458.654.098.135.228.206.42.157l.435-.993c.12-.277.193-.302.444-.135.17.113.337.156.535.058.086-.23.06-.463.025-.692-.01-.06-.05-.13-.1-.165-.18-.122-.202-.304-.23-.495-.03-.22-.076-.436-.124-.652-.057-.26-.147-.513-.178-.774-.04-.33-.034-.666-.05-1-.008-.165-.023-.33-.035-.5-.14-.08-.265-.147-.415-.23-.147.104-.314.182-.424.31-.23.268-.47.358-.81.272-.29-.073-.586-.137-.892 0z"/>
  <path d="M171.192 46.867c.217.06.25.23.284.373.153.627.294 1.257.256 1.91-.023.39-.04.78-.046 1.17-.003.222.01.223.257.265l.453-.794c.027-.047.046-.11.088-.138.218-.15.23-.374.207-.598-.025-.265-.078-.526-.12-.79-.04-.263-.086-.525-.116-.79-.053-.465.19-.78.523-1.073.2-.174.428-.36.45-.67.006-.065.026-.142.068-.186.293-.307.475-.687.705-1.036.13-.2.325-.356.487-.535.14-.155.272-.317.41-.474.422-.485.836-.978 1.274-1.45.19-.2.427-.355.643-.53l.718-.577c.018-.014.034-.03.054-.04.303-.156.606-.31.91-.463.03-.015.064-.02.093-.036.296-.17.587-.35.888-.512.32-.17.674-.29.97-.494.355-.244.78-.308 1.14-.522.27-.16.564-.19.87-.146.18.026.323.106.363.293.064.3.278.386.544.382.545-.008 1.09-.03 1.635-.04.255-.006.51.02.765 0 .403-.028.623.242.85.497.06.067.08.184.085.28.014.212.005.424.01.635 0 .108.01.216.017.35.144.02.262.044.38.045.7.005 1.402.004 2.103.006.226 0 .41-.06.52-.285.065-.132.172-.248.345-.2.19.053.362.15.388.367.025.21.015.422.02.633.017.622.03 1.245.05 1.867.006.128.048.255.075.39.385.104.713.12 1-.19.202-.22.436-.41.657-.61.04-.037.09-.062.164-.112.06.068.14.122.16.194.045.158.074.324.084.488.03.51.034 1.024.08 1.533.026.292.027.574-.033.86-.07.34.135.615.48.66.077.01.155.01.233.012.26.008.495.042.696.252.213.22.482.39.707.6.118.11.198.263.293.398.02.027.024.072.05.086.274.155.313.477.496.696.068.08.104.198.127.304.045.208.11.4.22.587.082.135.106.317.114.48.03.622.034 1.246.067 1.868.017.298.054.6.122.89.172.732.185 1.478.205 2.222.01.355-.007.713-.044 1.066-.017.157-.113.305-.174.457-.005.01-.02.016-.02.026-.09.38-.314.694-.483 1.034-.063.126-.127.256-.216.363-.1.122-.13.225-.006.354.534.006.925-.22 1.18-.692.12-.223.227-.462.39-.65.137-.16.346-.258.543-.396.044.076.096.127.1.182.008.086 0 .183-.032.262-.187.455-.188.935-.203 1.413-.02.59-.077 1.175-.24 1.748-.062.223-.077.46-.105.692-.025.203-.082.385-.204.555-.073.103-.117.238-.138.364-.04.234-.086.458-.24.648-.042.05-.063.117-.092.176-.142.286-.23.622-.44.848-.285.31-.488.72-.912.893-.2.268-.492.313-.795.348-.098.01-.19.06-.287.085-.268.07-.534.155-.806.202-.246.043-.48.082-.657.282-.064.072-.165.11-.24.157-.124.26-.26.502-.354.76-.058.164-.068.35-.074.525-.015.433-.028.867-.018 1.3.007.34-.203.553-.395.78-.033.04-.092.07-.143.08-.39.062-.776.108-1.102-.195-.048-.044-.11-.075-.17-.104-.188-.088-.378-.173-.575-.263-.19.08-.4.15-.59.26-.17.097-.32.233-.47.362-.157.135-.31.278-.457.425-.316.315-.603.3-.904-.067h-.368c-.025.144-.054.27-.067.4-.02.21-.02.422-.046.63-.046.38-.25.618-.618.688-.27.052-.55.085-.825.08-.68-.014-1.356-.068-2.035-.08-.422-.007-.844.032-1.266.054-.077.004-.16.01-.23.038-.384.16-.78.256-1.198.262-.032 0-.068.01-.096.026-.495.29-.886.01-1.284-.232-.075-.046-.145-.11-.227-.133-.205-.057-.386-.15-.566-.268-.12-.08-.294-.098-.446-.108-.366-.023-.735-.047-1.1-.03-.48.02-.894-.14-1.286-.386-.028-.018-.066-.034-.078-.06-.158-.35-.445-.646-.44-1.065.002-.222.005-.448-.026-.667-.032-.228-.105-.45-.16-.676-.053-.226-.122-.45-.155-.68-.065-.45-.232-.632-.683-.668-.272-.022-.525-.06-.734-.264-.064-.062-.183-.076-.28-.094-.222-.042-.348-.173-.41-.387-.114-.383-.19-.79-.372-1.138-.175-.338-.313-.695-.516-1.018-.035-.056-.096-.108-.104-.168-.05-.375-.29-.668-.43-1.003-.033-.08-.09-.15-.135-.224-.065-.103-.15-.2-.188-.31-.05-.14-.108-.26-.233-.353-.06-.043-.09-.123-.13-.19-.068-.113-.136-.227-.2-.343-.062-.116-.12-.235-.177-.355-.037-.08-.05-.175-.102-.244-.19-.253-.227-.546-.254-.85-.038-.42-.077-.842-.15-1.257-.12-.694-.07-1.372.1-2.05.044-.17.03-.353.062-.527.12-.686.103-1.37-.007-2.054-.034-.217-.094-.43-.144-.645-.02-.086-.064-.17-.067-.257-.025-.533-.054-1.066-.05-1.6 0-.167.097-.334.146-.502.043-.148.093-.295.12-.446.037-.22.082-.43.22-.62.072-.103.103-.242.128-.37.034-.178.108-.326.203-.482.26-.43.58-.84.517-1.4-.022-.2-.008-.43.228-.553zm14.026 17.062c.264.086.468.05.62-.162.08-.116.162-.232.233-.354.134-.23.257-.465.39-.694.026-.045.076-.083.123-.107.137-.07.278-.134.396-.19l.717.237c.28.092.558.022.76-.14.28-.226.516-.512.746-.792.172-.21.372-.41.42-.702.008-.048.07-.085.1-.13.07-.11.14-.22.206-.332.055-.095.1-.198.16-.29.15-.23.31-.454.463-.682.228-.337.454-.676.73-1.087 0-.488 0-1.066-.002-1.643 0-.065-.017-.134-.043-.194-.2-.466-.383-.945-.72-1.33-.185-.21-.253-.437-.256-.698-.006-.567-.015-1.134-.014-1.7 0-.373-.062-.717-.224-1.064-.144-.307-.353-.56-.537-.832-.178-.263-.454-.44-.78-.608-.052.12-.123.204-.12.287.01.443.015.89.234 1.297.2.372.26.78.24 1.192-.016.313-.12.406-.423.468-.163.034-.33.05-.494.084-.33.066-.612-.076-.89-.212-.065-.032-.13-.137-.134-.21-.014-.32-.037-.648.168-.932.103-.143.146-.297.086-.464-.216-.184-.432-.357-.635-.544-.19-.174-.36-.363-.383-.643-.007-.086-.042-.18-.093-.248-.14-.186-.2-.395-.22-.62-.025-.334-.233-.585-.43-.808-.247-.276-.538-.508-.743-.83-.11-.174-.18-.347-.217-.547-.12-.667-.25-1.332-.376-1.997-.008-.042-.036-.08-.068-.15-.355-.08-.715-.038-1.074.036-.03.006-.063.027-.086.05-.15.15-.342.197-.54.24-.086.017-.184.04-.245.095-.254.226-.56.26-.875.264-.48.006-.957-.002-1.436.012-.537.016-.763.226-.842.744-.025.162-.03.337-.2.425-.34-.035-.698.102-.767.34-.113.39-.386.725-.393 1.158-.003.194-.113.362-.327.418-.186.05-.357.123-.47.29-.424.07-.615.402-.793.73-.172.317-.31.653-.462.98-.004.01-.003.023-.004.034-.04.41-.062.825-.33 1.17-.034.402-.332.67-.527.985-.125.198-.212.384-.21.613 0 .69.007 1.38.005 2.07-.002.644.2 1.25.363 1.86.043.16.184.296.29.436.246.332.367.75.702 1.026.195.16.35.375.558.51.325.21.66.398.925.69.048.052.14.06.205.104.248.165.505.32.735.507.186.152.318.373.51.513.225.164.294.403.415.61-.17.22-.246.267-.513.27-.323.002-.646-.013-.968-.01-.127 0-.253.025-.42.044.03.148.024.275.082.35.27.356.485.772.958.918.06.02.122.06.168.106.137.135.31.165.49.184.176.02.35.05.528.067.354.032.71.096 1.06.08.455-.023.905-.118 1.358-.167.398-.043.68-.368 1.07-.423.01 0 .018-.013.026-.02.308-.334.753-.555.856-1.057.012-.06.082-.103.117-.16.046-.073.104-.15.12-.23.044-.244.086-.483.28-.662.022-.02.035-.06.037-.09.023-.384.304-.66.417-1.008.036-.112.12-.21.246-.18.086.02.196.083.23.156.167.344.286.696.163 1.093-.072.233-.103.478-.138.72-.047.32-.09.635-.267.92-.1.164-.098.358-.02.56z"/>
  <path d="M164.472 58.06c.208-.2.374-.35.532-.51.193-.196.38-.396.568-.597.157-.17.308-.342.462-.513.23-.254.46-.508.695-.758.096-.103.217-.158.36-.094.15.067.165.2.154.34-.02.275-.023.555-.228.784-.062.07-.08.18-.106.275-.02.074-.005.16-.035.23-.172.393-.353.783-.532 1.173-.04.09-.107.17-.133.263-.054.196-.11.385-.27.525-.03.027-.053.074-.062.116-.054.24-.114.475-.318.643-.037.03-.054.1-.06.153-.022.218-.09.412-.27.553-.015.013-.033.037-.033.056-.004.43-.294.757-.435 1.137-.157.426-.29.875-.55 1.262-.017.027-.047.055-.05.084-.025.45-.334.79-.46 1.203-.1.328-.288.637-.624.82-.173.096-.317.236-.53.265-.16.022-.2.155-.2.3.002.29-.01.58.002.87.015.35-.143.618-.367.862-.174.19-.597.187-.788-.003-.053-.052-.1-.112-.177-.2-.198.227-.37.464-.395.728-.04.403-.195.745-.382 1.09-.074.137-.138.257-.31.248-.183-.01-.358-.046-.458-.223-.032-.057-.057-.122-.07-.187-.055-.275-.248-.43-.462-.577-.356.245-.74.442-1.03.734-.222.223-.457.49-.487.85-.022.258-.09.498-.24.718-.065.095-.08.227-.105.345-.022.11-.017.223-.038.33-.07.365-.168.443-.604.482-.04-.098-.106-.202-.124-.314-.045-.285-.065-.575-.103-.86-.023-.165-.03-.343-.1-.488-.164-.34-.217-.7-.244-1.066-.013-.184-.074-.323-.206-.47-.197-.217-.332-.49-.5-.733-.162-.235-.332-.464-.5-.694-.038-.053-.1-.095-.124-.153-.21-.51-.616-.88-.945-1.304-.162-.21-.317-.427-.474-.642-.18-.247-.367-.49-.535-.747-.088-.135-.152-.29-.212-.442-.08-.205-.158-.414-.216-.626-.06-.224-.092-.456-.148-.68-.05-.204-.118-.402-.174-.604-.06-.213-.138-.425-.162-.642-.025-.225-.05-.436-.177-.633-.056-.09-.086-.207-.092-.315-.004-.063.048-.15.102-.187.037-.025.135-.004.18.03.318.248.657.47.88.827.086.137.214.254.343.355.077.06.193.072.32.115.01-.11.035-.177.018-.233-.152-.485-.156-.986-.188-1.486-.01-.164-.03-.34-.094-.487-.122-.278-.2-.564-.236-.864-.01-.086-.044-.17-.07-.27l-.3-.048c-.273-.042-.338-.112-.355-.39-.01-.145.003-.293-.02-.434-.043-.252-.103-.5-.158-.75-.045-.194-.104-.386-.137-.583-.055-.33.096-.614.392-.775.175-.095.344-.2.525-.28.13-.06.276-.084.416-.12.366-.09.395-.255.192-.562-.222-.335-.485-.665-.497-1.104-.002-.12-.028-.258-.097-.347-.148-.192-.222-.406-.283-.634-.028-.106-.074-.217-.144-.297-.164-.19-.2-.42-.242-.648-.04-.218.05-.34.3-.464.105.058.218.12.357.194.038-.084.094-.15.09-.215-.01-.244-.024-.49-.073-.728-.063-.303-.16-.6-.246-.898-.026-.093-.07-.18-.118-.3-.344.09-.653.15-.825.502-.154.316-.358.607-.537.912-.044.076-.09.156-.11.24-.055.24-.103.473-.284.665-.067.07-.078.206-.09.315-.042.414-.31.704-.556 1-.247.294-.466.603-.462 1 .003.376.034.756.087 1.13.073.513-.07.995-.2 1.474-.055.204-.214.384-.34.564-.095.133-.257.127-.377.005-.108-.108-.227-.21-.315-.335-.06-.086-.1-.2-.11-.306-.026-.314-.212-.527-.404-.73-.384.02-.42.05-.517.36-.033.105-.07.212-.125.307-.275.468-.256.977-.213 1.49.004.05.042.1.063.146.318.12.52-.285.848-.15.105.13.235.268.34.424.117.173.143.375.1.578-.04.184-.09.368-.15.546-.13.378-.136.74.07 1.095.066.114.09.25.147.37.055.12.11.247.194.343.192.22.237.476.216.745-.02.24-.084.468-.373.542-.04.43-.11.836.202 1.188.057.064.08.158.12.236.12.22.39.27.556.087.133-.146.235-.32.362-.472.14-.17.29-.33.445-.486.042-.043.12-.063.185-.065.19-.007.38-.02.566.007.11.016.215.096.312.162.08.055.147.132.22.2.04.038.093.07.115.116.268.572.428 1.166.352 1.805-.006.054-.02.115-.053.156-.137.172-.27.352-.43.498-.11.1-.15.206-.176.34-.033.175-.07.354-.144.512-.226.48-.23.967-.08 1.464.157.517.212 1.046.19 1.584-.016.45-.236.79-.567 1.074-.034.03-.066.06-.097.09-.247.26-.355.257-.63-.022.03-.34.19-.683.064-.993-.116-.15-.21-.258-.29-.378-.08-.124-.186-.153-.316-.125-.13.028-.17.13-.18.25-.01.143-.022.287-.037.43-.02.192-.1.336-.293.41-.102.04-.195.103-.283.15-.405-.11-.69-.38-.928-.674-.19-.234-.28-.547-.423-.82-.07-.135-.133-.3-.25-.38-.31-.21-.628-.428-1.027-.437-.253-.006-.48-.08-.683-.232-.06-.045-.136-.078-.21-.1-.388-.123-.687-.378-1.003-.623-.207-.16-.382-.35-.515-.55-.217-.323-.49-.634-.52-1.06-.01-.118-.037-.248-.097-.348-.16-.27-.208-.562-.234-.863-.033-.4-.05-.8-.243-1.166-.055-.104-.064-.234-.09-.354-.06-.28-.07-.577-.286-.804-.04-.043-.05-.122-.064-.187-.042-.208-.077-.418-.256-.564-.117-.46-.445-.846-.47-1.34-.01-.21-.032-.422-.028-.633.008-.412.033-.823.047-1.235.01-.32.124-.56.468-.634.043-.01.08-.035.102-.045.135-.313.27-.604.386-.902.04-.1.043-.216.05-.326.034-.567.078-1.13.262-1.677.06-.176.07-.37.08-.56.04-.71.067-1.42.287-2.11.063-.197.06-.417.075-.628.017-.245.03-.49.03-.735-.004-.58.2-1.113.365-1.654.03-.096.113-.177.172-.265.21.068.278.22.27.373-.018.446.24.773.434 1.126.34.067.396.053.49-.223.096-.276.323-.447.49-.665.19-.252.423-.476.653-.696.158-.153.338-.284.517-.412.225-.16.464-.303.69-.465.14-.102.277-.215.4-.34.294-.29.634-.51.99-.716.195-.113.35-.297.522-.448.066-.06.133-.116.204-.168.31-.23.64-.39 1.045-.366.168.01.317-.08.426-.225.22-.29.446-.573.668-.86.02-.027.042-.06.04-.09-.01-.47.342-.81.444-1.246.066-.28.315-.52.482-.778.047-.073.12-.14.14-.22.084-.335.372-.477.62-.71.11.108.21.203.31.3.138-.077.12-.195.083-.295-.137-.377-.257-.756-.3-1.16-.007-.073-.08-.16-.146-.205-.146-.1-.196-.232-.2-.397-.006-.266-.034-.534-.02-.8.016-.258.096-.318.356-.353.437-.06.783.172.843.607.037.28.097.535.257.777.08.12.068.3.11.448.05.18.113.355.17.533.052.17.12.335.15.507.035.185.038.376.046.565.013.27.087.52.158.78.098.35.168.72.175 1.082.01.56.248 1.058.37 1.586.008.032.02.074.044.088.234.145.284.416.43.62.157.225.332.44.465.68.144.26.155.55-.05.783-.21.24-.204.488-.096.746.175.423.25.852.143 1.304-.015.063-.006.133-.003.2.04.978.08 1.957.124 2.935.008.175.012.354.128.518.176-.05.18-.202.188-.32.023-.322.04-.645.028-.967-.01-.266-.063-.53-.09-.796-.02-.182-.003-.356.177-.478.128.04.258.07.38.12.066.027.147.08.173.14.113.276.257.552.3.842.073.494.076.998.116 1.497.022.266.026.54.1.792.186.64.215 1.294.213 1.952 0 .334-.015.67-.05 1-.025.218-.1.43-.15.645-.043.182-.097.364-.115.55-.038.4-.08.79-.246 1.168-.093.213-.09.477-.092.718-.002.21.17.333.332.428.057.034.183.013.244-.03.154-.11.268-.252.312-.455.04-.192.137-.372.2-.56.052-.156.105-.314.134-.476.048-.264.093-.522.24-.758.065-.107.09-.25.1-.38.03-.324.094-.632.248-.927.08-.153.103-.34.123-.515.03-.257.085-.498.213-.73.078-.14.104-.314.128-.478.034-.234.082-.457.218-.66.055-.08.076-.183.116-.275l.243-.54c.036-.08.087-.157.108-.242.053-.218.108-.43.283-.592.037-.034.058-.096.068-.15.043-.232.1-.45.307-.607.058-.042.077-.16.08-.243.014-.366.02-.733.02-1.1 0-.188-.023-.377-.027-.566-.005-.237-.053-.458-.18-.666-.075-.12-.108-.266-.153-.402-.033-.103-.055-.21-.087-.334-.165.067-.146.18-.143.285.01.456.028.912.033 1.37.003.255-.014.51-.022.766-.01.344-.29.478-.526.63-.052.033-.185-.03-.265-.076-.095-.054-.194-.122-.254-.21-.192-.276-.454-.52-.48-.886-.016-.214.013-.422.142-.605.145-.207.127-.41-.006-.62-.07-.11-.103-.243-.145-.368-.054-.156-.09-.32-.153-.472-.07-.167-.046-.327 0-.49.178-.65.146-1.324.206-1.987.015-.168-.005-.36-.185-.538-.137 0-.312-.002-.487 0-.19.004-.353-.037-.445-.227-.02-.038-.052-.07-.083-.102-.324-.317-.327-.524-.012-.864.015-.016.022-.038.053-.096-.03-.073-.07-.17-.114-.268-.045-.1-.106-.198-.135-.304-.044-.167.024-.282.193-.33.147-.044.3-.068.437-.098.104-.347.024-.477-.278-.495-.033-.002-.068-.006-.1 0-.476.095-.765-.184-1.04-.507-.184-.217-.41-.4-.57-.634-.16-.235-.385-.418-.504-.694-.12-.28-.318-.526-.49-.78-.218-.323-.2-.64.077-.907.35.107.716.198 1.066.33.293.112.545.075.837-.02.496-.158.793-.502 1.058-.91.113-.176.242-.343.38-.5.134-.148.37-.09.458.123.1.246.177.503.25.76.04.138.05.285.067.428.018.16.057.3.17.426.07.08.12.186.156.29.048.138.093.27.223.36.043.03.083.078.102.127.124.32.262.638.354.968.06.216.15.393.32.53.164.13.327.262.5.38.222.153.635.082.814-.135.088-.107.173-.22.33-.16.14.055.188.185.186.326-.006.342.06.664.225.965.012.02.022.04.024.062.044.54.25 1.034.478 1.508.177.367.307.767.61 1.076.154.158.317.255.51.348.255.124.493.276.772.364.164.052.326.206.422.356.174.274.436.5.475.86.026.227.12.447.18.673.04.162.094.324.107.488.033.41.033.823.07 1.233.024.264.09.523.14.784.063.35.156.696.183 1.047.038.5.048 1.002.2 1.485.133.423-.082.76-.294 1.087-.05.076-.19.115-.292.13-.173.027-.323.076-.44.21-.028.033-.07.07-.11.074-.29.04-.463.236-.62.454-.068.096-.125.202-.183.305-.07.124-.136.25-.205.374-.037.066-.098.13-.11.2-.038.26-.137.485-.28.705-.122.197-.173.43-.073.754z"/>
  <path d="M66.296 50.864c-.055-.117-.19-.062-.277-.04-.09.024-.032.15-.028.188.04.454-.167.867-.217 1.306-.007.058-.06.12-.108.163-.123.11-.255.21-.384.316-.202-.025-.206-.176-.212-.322-.03-.712-.067-1.423-.084-2.135-.013-.526-.05-1.045-.167-1.558-.172-.76-.144-1.53-.05-2.293.136-1.085.232-2.17.218-3.264-.003-.267-.004-.54.262-.716.04-.026.056-.096.068-.15.044-.186.094-.364.27-.48.04-.028.068-.09.08-.14.054-.21.13-.396.285-.557.07-.07.075-.203.11-.308.07-.198.144-.395.206-.595.045-.147.087-.296.11-.447.026-.164.02-.334.043-.498.02-.142.048-.288.193-.367.13-.005.174.095.214.182.194.425.396.847.404 1.33.003.205.053.398.21.546.032.03.052.073.07.113.064.127.11.268.19.383.075.107.188.188.3.296.26.067.533.002.804-.05.26-.048.507-.033.758.04.204.058.384.118.526.312.125.17.345.27.513.41.46.386.92.772 1.24 1.293.11.176.245.346.4.48.153.133.248.28.285.473.002.01.003.024.01.032.23.25.292.592.472.865.11.166.165.332.2.52.03.16.093.315.145.472.062.188.15.37.186.564.042.222.092.43.206.63.08.14.113.31.144.472.047.25.1.492.213.73.102.214.105.474.164.71.052.202.126.398.18.6.06.224.108.45.16.678.05.227.077.46.15.68.134.408.186.826.195 1.25.01.405.053.797.223 1.17.06.13.07.28.11.42.025.09.06.18.108.317.137-.09.25-.137.33-.218.186-.19.35-.402.536-.594.08-.084.177-.178.283-.207.357-.098.517.04.464.405-.035.228-.124.446-.176.672-.05.215-.095.433-.122.652-.036.287-.068.57-.24.82-.072.104-.074.254-.107.383-.033.13-.028.288-.104.38-.193.24-.246.514-.283.802-.008.064-.03.136-.07.185-.2.246-.243.542-.292.84-.018.11-.038.225-.09.32-.174.313-.185.658-.232 1-.043.316-.133.627-.205.94-.027.12-.073.234-.093.354-.05.296-.07.6-.29.836-.008.008-.013.02-.014.03-.032.414-.258.753-.455 1.094-.18.31-.274.68-.575.916-.04.032-.068.087-.09.137-.23.497-.57.907-.968 1.28-.27.256-.498.56-.73.854-.446.566-.903 1.118-1.448 1.596-.318.28-.67.494-1.024.718-.28.178-.563.296-.88.366-.08.018-.15.088-.23.13-.077.042-.154.1-.238.112-.245.04-.476.093-.653.29-.047.053-.14.07-.214.087-.134.032-.224.113-.328.204-.356.31-.68.663-1.108.886-.03.015-.07.024-.087.048-.19.247-.49.29-.747.412-.365.175-.727.165-1.102.04-.21-.07-.43-.104-.643-.162-.222-.06-.442-.136-.665-.198-.223-.062-.447-.13-.675-.167-.234-.038-.443-.098-.646-.238-.262-.18-.563-.302-.845-.452-.098-.05-.194-.105-.283-.167-.36-.248-.735-.342-1.167-.153-.027.084-.06.166-.08.25-.074.348-.218.5-.562.476-.34-.024-.683-.06-.997-.236-.168-.095-.372-.134-.565-.175-.165-.037-.33-.057-.444-.2-.026-.035-.063-.077-.1-.084-.293-.053-.514-.228-.755-.388-.367-.243-.67-.54-.93-.89-.16-.22-.326-.44-.49-.658-.02-.027-.054-.046-.066-.075-.173-.437-.534-.755-.743-1.164-.19-.374-.496-.674-.668-1.052-.148-.322-.44-.56-.512-.92-.006-.032-.018-.073-.04-.09-.274-.185-.366-.504-.51-.766-.168-.305-.438-.564-.49-.93-.24-.225-.307-.555-.496-.806-.252-.333-.538-.64-.797-.97-.087-.11-.137-.25-.2-.365.137-.35.393-.51.728-.528.3-.016.6.007.9.007.29 0 .58.003.84-.23-.02-.11-.04-.227-.065-.345l-.2-.98c-.008-.033 0-.072-.016-.098-.218-.366-.303-.793-.556-1.147-.34-.476-.608-.99-.45-1.61.038-.147.106-.287.166-.43.02-.05.087-.09.09-.137.025-.52.424-.926.44-1.453.005-.15.05-.317.13-.443.138-.217.185-.445.205-.693.014-.175.045-.364.13-.513.152-.27.19-.562.245-.858.035-.192.132-.37.194-.56.05-.155.104-.313.13-.475.035-.2.096-.38.213-.553.076-.112.09-.266.137-.4.055-.154.11-.308.174-.458.048-.112.106-.22.163-.326.066-.126.136-.25.204-.375.042-.077.098-.15.125-.233.053-.16.104-.317.264-.41.036-.02.064-.06.085-.1.138-.24.268-.482.408-.72.044-.074.108-.136.167-.202.037-.04.093-.07.117-.115.15-.282.293-.57.442-.852.185-.35.385-.695.557-1.052.11-.228.245-.443.362-.664.238-.448.604-.76.978-1.065.254-.204.576-.323.837-.52.275-.21.63-.277.873-.535.03-.03.07-.062.112-.07.39-.09.625-.386.89-.65.36-.355.73-.7 1.115-1.03.224-.194.526-.22.786-.31.21.15.238.346.22.55-.02.266-.03.538-.094.795-.198.775-.19 1.566-.23 2.355-.11 2.138-.02 4.274.02 6.41.01.57.085 1.13.166 1.693.083.58.09 1.175.102 1.764.01.59-.016 1.178-.193 1.752-.068.22-.06.462-.092.694-.042.318-.13.405-.44.44-.256.03-.49-.017-.673-.215-.037-.04-.078-.087-.127-.105-.282-.104-.315-.325-.266-.573.04-.195.106-.384.16-.576.046-.17.122-.34.134-.513.033-.466.043-.934.05-1.402 0-.16.012-.33-.086-.467-.035.004-.053.002-.055.007-.138.32-.395.586-.448.948-.01.066-.03.13-.05.194-.036.117-.116.214-.238.192-.098-.02-.21-.083-.267-.162-.062-.084-.08-.207-.095-.315-.07-.54-.133-1.082-.192-1.624-.017-.16-.048-.298-.158-.427-.15-.177-.32-.267-.552-.234-.1.013-.2.012-.3.014-.252.006-.443.117-.594.318-.174.23-.374.444-.4.753-.003.043-.016.095-.044.124-.186.195-.2.458-.294.69-.085.21-.3.37-.462.548-.036.04-.093.058-.168.102-.015.128-.038.27-.045.41-.013.272-.066.525-.214.762-.074.116-.11.27-.118.41-.016.347-.066.686-.197 1.01-.073.182-.082.367-.04.557.168.73.2 1.478.22 2.222.014.516.218.972.364 1.448.06.194.212.282.405.293.21.013.423.018.634.016.21-.003.367.078.455.27.11.242.215.487.326.74.25.145.525.196.78.025.152-.102.264-.266.387-.407.08-.09.15-.19.22-.286.04-.052.103-.104.11-.162.042-.388.357-.533.63-.75.27.205.564.368.626.74.01.064.03.138.07.185.283.325.236.7.18 1.08-.026.183-.056.367-.082.53.292.218.526.206.747.013.105-.092.234-.158.356-.23.066-.04.158-.05.206-.104.26-.29.608-.29.954-.29.11 0 .22.032.33.037.4.018.436.226.517.508.023.076-.027.196-.082.267-.114.15-.248.286-.383.418-.282.277-.407.657-.638.967-.04.054-.03.145-.043.21.156.122.284.25.436.333.335.186.7.178 1.026.008.33-.172.63-.41.94-.62.045-.03.096-.064.124-.11.165-.26.302-.543.492-.783.252-.318.298-.684.338-1.06.032-.306.27-.502.41-.75.036-.063.176-.094.27-.097.422-.014.834-.018 1.2.273.335.265.67.124.793-.29.028-.097.056-.196.062-.294.02-.338.075-.66.285-.943.068-.092.072-.23.108-.347.036-.116.047-.255.12-.342.152-.185.19-.397.217-.618.028-.234.093-.452.205-.664.08-.152.12-.334.142-.507.05-.365.08-.73.253-1.066.058-.113.065-.257.08-.388.028-.266.04-.533.07-.798.017-.152.035-.31.202-.41.28.163.556.32.612.69.013.09.088.175.138.26.056.096.14.183.167.285.064.248.24.326.464.366.11-.107.12-.232.036-.334-.19-.233-.21-.51-.232-.786-.02-.233-.023-.467-.05-.7-.02-.186-.038-.38-.103-.553-.173-.468-.23-.95-.234-1.443-.005-.924 0-1.848-.003-2.772 0-.123.04-.264-.1-.386l-.224.414c-.074.136-.158.267-.218.408-.118.277-.268.334-.514.17-.073-.05-.152-.106-.196-.18-.177-.288-.34-.585-.51-.878-.03-.054-.067-.106-.114-.18-.242.215-.387.45-.405.754-.012.21-.03.422-.042.633-.016.293-.085.57-.214.835-.034.07-.065.144-.076.22-.043.275-.082.55-.29.764-.036.036-.044.1-.06.155-.016.054-.017.114-.04.162-.22.43-.327.91-.58 1.325-.057.094-.094.2-.14.302-.05.11-.09.232-.254.244-.187-.084-.213-.268-.226-.442-.02-.255-.02-.512-.02-.767.002-.557.01-1.113.012-1.67.06-1.034-.285-.81-.436-1.13z"/>
  <path d="M83.157 74.62c-.03.03-.068.053-.07.08-.037.32-.2.58-.42.802-.082.083-.18.178-.285.202-.225.052-.46.075-.69.083-.244.01-.49-.02-.734-.018-.312.002-.624.02-.917.148-.05.022-.105.042-.16.045-.456.02-.846.23-1.235.44-.066.037-.127.088-.18.142-.31.31-.618.623-.926.935-.017.016-.04.027-.05.045-.153.35-.456.56-.73.802-.136.12-.27.195-.442.198-.166.003-.334.012-.5-.005-.403-.042-.62-.272-.65-.67l-.028-.293c-.083.043-.138.07-.19.1-.056.035-.11.11-.162.108-.423-.028-.69.332-1.065.42-.06.013-.118.062-.16.11-.267.286-.578.393-.96.265-.402-.135-.81-.113-1.217-.017-.096.023-.2.047-.28.103-.198.14-.418.198-.655.22-.19.015-.37.053-.526.183-.066.054-.155.104-.238.114-.344.04-.632.206-.907.392-.192.13-.352.302-.536.444-.28.216-.568.422-.853.63-.026.02-.07.026-.084.05-.132.262-.437.295-.625.48-.015.015-.034.028-.055.036l-1.23.47c-.072.027-.166.03-.214.08-.282.292-.676.418-.98.663-.245.197-.492.314-.79.367-.104.018-.197.097-.285.144-.33-.188-.364-.455-.118-.7.544-.537 1.083-1.08 1.533-1.702.05-.07.07-.16.11-.24.06-.13.125-.258.192-.384.03-.058.096-.107.105-.167.054-.325.303-.54.454-.807.053-.09.183-.165.29-.193.478-.125.915-.333 1.33-.593.008-.006.017-.014.027-.018.404-.15.807-.302 1.21-.45.094-.034.21-.035.28-.093.187-.156.41-.21.626-.3.375-.153.73-.358 1.092-.546.303-.158.603-.32.904-.483.038-.02.08-.04.112-.07.387-.328.775-.657 1.16-.99.2-.174.392-.36.593-.534.306-.266.725-.143.843.242l.096.312c.234.043.418.01.57-.152.046-.048.097-.11.154-.124.32-.074.443-.31.575-.584.1-.207.236-.392.274-.63.012-.078.088-.147.14-.215.02-.026.064-.032.08-.058.157-.236.372-.367.653-.403.06-.01.11-.074.168-.102.127-.06.253-.132.388-.17.15-.04.28-.094.407-.2.137-.116.333-.162.526-.248.182-.163.383-.35.594-.527.124-.103.173-.227.166-.38-.008-.2.012-.407-.034-.6-.08-.33.01-.638.067-.954.002-.012 0-.026.007-.033.24-.298.288-.692.495-1.004.11-.164.172-.333.168-.53-.003-.122.014-.246.005-.367-.032-.42.203-.71.47-.984.103-.104.237-.083.3.054.052.11.072.232.1.35.02.095.03.19.052.318.107-.19.106-.19.12-.414.012-.155.017-.312.04-.466.023-.142.076-.28.098-.422.022-.14.023-.286.03-.406.214-.274.53-.2.802-.302.075-.253.08-.513.052-.77-.322-.153-.667-.097-.885.13-.138.14-.27.293-.428.408-.168.122-.212.29-.288.465-.135.31-.307.597-.4.93-.055.205-.222.38-.346.562-.035.05-.094.084-.14.123-.206-.05-.25-.213-.257-.363-.026-.458-.008-.912.243-1.322.108-.177.157-.4.378-.487.113-.342.44-.592.416-.998-.02-.332.008-.666-.01-.998-.006-.11-.09-.217-.137-.325-.005-.01-.02-.014-.025-.024-.16-.396-.325-.79-.474-1.19-.02-.06.01-.166.052-.22.28-.35.266-.767.308-1.175.08-.774.166-1.547.253-2.32.01-.088.024-.186.07-.255.045-.064.13-.12.207-.137.11-.025.186.052.232.15.01.02.02.044.02.064-.036.398.282.667.372 1.018.007.027.045.045.074.072.03-.012.078-.015.086-.035.155-.353.37-.686.357-1.095-.005-.2.003-.4.01-.6.008-.306-.016-.588-.236-.842-.148-.17-.24-.396-.33-.61-.08-.19-.075-.396.037-.58.154-.248.187-.518.184-.8-.006-.458-.047-.903-.177-1.35-.187-.646-.21-1.32-.15-1.99.016-.162.058-.336.137-.476.137-.242.19-.49.202-.763.012-.254.08-.5.197-.735.08-.164.113-.357.14-.54.04-.275.05-.548.276-.764.122-.117.19-.293.282-.444.082-.135.103-.28.004-.407-.178-.228-.196-.49-.205-.76-.002-.105-.024-.21-.042-.362l-.867.812c.008.317-.044.648.114.966.09.18.056.302-.07.38-.16.095-.4.066-.474-.097-.164-.36-.418-.68-.4-1.113.023-.61.008-1.224.025-1.835.005-.163.036-.342.11-.484.187-.35.206-.724.213-1.103.005-.312 0-.623.007-.935.005-.282.07-.548.196-.804.058-.116.086-.252.102-.382.025-.21.028-.422.042-.633.016-.24.105-.428.363-.498.256-.07.353-.262.347-.506-.008-.333-.036-.665-.057-1.027-.313-.11-.323-.417-.336-.68-.074-.034-.102-.054-.133-.06-.17-.03-.387.03-.494-.14-.133-.214-.274-.436-.266-.708 0-.044-.003-.09.004-.133.076-.507.144-1.014.236-1.517.024-.134.104-.27.19-.38.095-.123.148-.248.135-.398-.022-.266-.046-.532-.08-.797-.058-.44-.127-.88-.186-1.323-.024-.18-.01-.355.167-.484.245.073.493.107.644.364.08.137.227.24.355.344.128.106.28.118.438.073.024-.03.056-.054.06-.083.084-.493.195-.984.086-1.488-.03-.142-.05-.286-.067-.43-.015-.14-.058-.255-.178-.342-.06-.044-.107-.113-.145-.18-.143-.248-.28-.5-.422-.75-.02-.037-.053-.074-.088-.097-.157-.1-.197-.256-.228-.425-.02-.106-.04-.235-.11-.305-.167-.166-.207-.37-.213-.58-.013-.434-.017-.868-.01-1.302.002-.225.06-.437.23-.608.07-.068.09-.182.154-.254.054-.06.15-.135.212-.123.08.017.162.102.207.18.042.07.028.174.054.257.027.08.06.168.113.23.203.24.206.237.047.513-.017.03-.028.06-.062.137l.292.518c.386-.006.46-.076.487-.395.017-.2.036-.4.065-.597.014-.098.028-.212.085-.285.27-.345.274-.753.245-1.147-.04-.53 0-1.07-.183-1.587-.032-.086-.007-.198.012-.294.026-.13.07-.258.108-.386.088-.3.25-.43.553-.42.07.002.153.04.204.09.052.05.092.13.103.2.11.714.228 1.427.314 2.143.05.418.043.844.073 1.265.01.142.028.295.09.42.176.36.21.746.25 1.134.024.253.04.51.09.76.202 1.032.237 2.077.257 3.124.006.34.048.663.175.978.065.164.106.34.158.51.048.16.13.283.31.31.333.054.428.3.428.584 0 .433-.038.846-.272 1.25-.207.357-.337.778-.414 1.187-.09.477-.088.972-.04 1.468.196.17.392.33.575.504.06.057.11.142.13.223.03.117.04.243.033.364-.027.44-.153.545-.59.51-.12-.008-.24-.02-.363-.03-.177.27-.133.536-.047.785.14.406.21.822.21 1.246 0 .612-.053 1.224-.043 1.835.007.397.084.793.137 1.188.008.06.05.125.096.17.142.145.207.326.207.516-.002.884.226 1.743.283 2.62.027.42.025.845.02 1.267-.004.2-.045.397-.195.555-.043.045-.066.116-.083.18-.053.205-.11.4-.274.56-.07.066-.095.2-.098.307-.01.277-.012.557.018.832.016.146.103.286.167.425.04.09.093.175.147.258.273.42.383.912.59 1.362.08.177.11.384.13.58.05.52.096 1.042.116 1.564.01.265-.03.533-.07.796-.028.184-.09.24-.3.396-.225-.14-.435-.32-.532-.564-.116-.293-.365-.465-.54-.7-.15-.202-.356-.362-.544-.533-.063-.057-.143-.115-.224-.13-.264-.056-.42-.22-.547-.447-.112-.198-.26-.375-.408-.584-.537.82-.515 1.676-.42 2.55.294-.016.445-.14.483-.39.026-.176.022-.356.036-.534.023-.28.097-.368.317-.384.307-.023.465.077.506.35.037.246.133.467.215.697.182.51.212 1.044.117 1.578-.017.098-.097.202-.177.266-.12.095-.156.205-.153.347.01.605-.057 1.2-.234 1.78-.043.145-.037.305 0 .448.1.195.17.414.306.577.25.3.312.65.37 1.012.026.173.115.34.132.513.035.375-.146.692-.356.976-.096.13-.16.256-.207.405-.063.2-.134.398-.22.59-.128.285-.14.583-.094.88.034.21.277.354.54.368.478.025.956.04 1.432.088.192.02.38.107.565.174.114.04.22.105.33.158.05.024.11.033.15.067.51.41 1.028.805 1.476 1.287.416.448.843.884 1.28 1.31.286.277.573.565.904.778.346.223.696.44 1.158.45.62.012 1.237.13 1.856.2.388.042.774.086 1.162.116.26.02.512.028.692.26.037.046.112.066.172.093.324.15.594.376.878.587.237.176.43.402.702.545.26.136.475.356.712.536.368.28.728.57 1.126.808.067.04.142.074.192.13.102.11.204.195.368.19.202-.004.407.006.57-.14.15-.135.33-.167.518-.2.768-.133 1.53.016 2.292.054.154.008.305.112.455.175.03.012.05.05.08.056.62.12 1.147.55 1.844.45.75-.11 1.51-.02 2.26.113.28.05.575.017.863.014.246-.003.494-.015.72.1.085.043.173.11.223.188.07.11.075.26-.047.33-.24.136-.39.38-.663.49-.304.12-.576.32-.854.48-.102-.05-.17-.084-.24-.115-.26-.116-.497-.133-.745.066-.137.11-.337.148-.512.21-.187.066-.376.123-.566.18-.16.05-.318.126-.48.134-.487.024-.978.044-1.465.017-.247-.012-.497-.11-.73-.203-.28-.112-.563-.143-.85-.118-.24.02-.455.363-.396.602.033.13.086.254.114.384.048.224-.024.34-.248.388-.26.055-.516.02-.73-.145-.14-.108-.29-.16-.46-.177-.248-.024-.46-.1-.662-.272-.352-.298-.743-.55-1.11-.832-.105-.08-.193-.183-.276-.285-.16-.198-.31-.405-.473-.602-.04-.048-.105-.077-.16-.112-.29-.182-.567-.376-.825-.606-.21-.187-.48-.317-.74-.43-.202-.09-.428-.126-.648-.16-.115-.018-.244 0-.357.034-.25.075-.495.13-.755.066-.053-.013-.11-.01-.166-.01-.122.002-.28-.012-.3.14-.02.12.003.283.075.372.24.298.517.566.768.856.076.087.153.207.158.315.017.354.015.71-.01 1.065-.01.122-.103.24-.163.355-.05.097-.107.192-.163.286-.05.086-.092.183-.162.25-.155.147-.336.3-.56.185-.236-.12-.47-.27-.47-.593 0-.134-.01-.268.002-.4.022-.293-.148-.474-.347-.647-.393-.342-.855-.436-1.36-.398-.543.04-1.086.086-1.63.112-.378.017-.758.023-1.135.007-.494-.02-.974 0-1.445.182-.28.107-.456.296-.607.536-.088.14-.178.282-.292.397-.234.235-.628.234-.878.02-.432-.367-.67-.837-.73-1.396-.03-.263-.15-.434-.37-.593-.337-.244-.702-.343-1.11-.335z"/>
  <path d="M90.413 58.722c0-.177.005-.33 0-.484-.053-1.3-.14-2.602-.043-3.905.01-.122-.005-.254.037-.364.152-.402.19-.82.227-1.242.01-.13.05-.27.12-.377.14-.213.18-.446.223-.69.05-.27.144-.532.207-.8.05-.216.12-.435.115-.652-.01-.453.236-.807.423-1.18.09-.178.26-.328.42-.457.12-.096.178-.214.25-.34.156-.265.336-.517.507-.774.012-.018.04-.03.046-.047.082-.35.35-.607.46-.94.048-.137.082-.278.215-.364.028-.018.067-.045.07-.07.027-.374.33-.612.46-.94.105-.27.3-.507.463-.756.065-.1.153-.186.215-.288.21-.344.523-.572.86-.77.314-.184.644-.34 1.022-.353.05-.003.098-.045.136-.064.077-.175-.026-.29-.097-.413-.234-.407-.247-.845-.173-1.293.036-.218.175-.325.394-.333.212-.007.423-.02.635-.023.325-.005.64-.03.94-.187.152-.08.34-.093.513-.134.108-.025.23-.023.324-.072.284-.145.55-.324.838-.462.176-.085.373-.15.565-.168.368-.032.723-.075 1.068-.23.187-.085.41-.096.62-.122.222-.027.428-.065.625-.197.14-.093.33-.12.5-.155.187-.036.357-.08.525-.187.16-.102.37-.14.564-.174.167-.03.312-.073.462-.163.164-.098.367-.144.558-.187.163-.037.316-.067.46-.17.344-.24.74-.218 1.127-.152.203.035.248.197.138.384-.045.076-.123.147-.133.226-.04.334-.2.608-.4.865-.176.227-.36.447-.54.67-.04.05-.08.104-.12.158.217.327.493.503.89.475.312-.022.624-.01.936-.02.223-.008.43-.066.64-.156.25-.106.538-.127.806-.197.17-.044.33-.113.498-.165.147-.045.295-.107.445-.117.19-.013.28.12.238.308-.012.054-.03.112-.064.153-.208.258-.226.57-.275.878-.064.407.058.723.39.95.095.064.224.097.34.103.32.016.645.003.967.015.385.014.463.107.433.498-.018.233-.05.465-.073.697-.054.55.203.85.75.874.055.002.11.006.166.005.32-.008.504.112.66.427.193.386.268.768.273 1.183.015 1.08.015 2.16.06 3.24.02.537-.025 1.065-.063 1.598-.012.163-.074.29-.177.42-.207.26-.366.56-.587.805-.197.22-.235.487-.34.737-.152.36-.287.714-.378 1.094-.058.243-.16.503-.323.686-.29.325-.467.725-.754 1.04-.107.117-.308.187-.473.202-.263.025-.535.01-.798-.03-.372-.057-.45-.215-.312-.557.107-.263.177-.538.43-.733.147-.115.218-.327.332-.49.158-.226.32-.45.49-.667.126-.164.252-.335.407-.47.155-.135.223-.297.264-.485.014-.064.03-.137.068-.186.226-.282.23-.62.243-.952.01-.334.007-.668.015-1.002.005-.245.078-.438.314-.58.24-.148.402-.375.384-.694-.01-.165.032-.333.027-.5-.003-.11-.048-.22-.088-.387-.204.18-.366.307-.513.45-.323.314-.473.74-.704 1.11-.116.186-.25.373-.413.515-.233.202-.71-.007-.747-.318-.03-.253-.042-.51-.035-.766.013-.45-.208-.764-.517-1.064-.3-.293-.677-.45-1.02-.666-.1-.064-.197-.138-.31-.218-.287.243-.578.476-.85.73-.108.098-.212.156-.354.15-.38-.012-.772.035-1.132-.053-.417-.104-.866-.155-1.242-.34-.397-.197-.803-.247-1.215-.317-.42-.072-.71.11-.927.49-.118.207-.293.38-.448.566-.025.03-.077.047-.12.053-.345.048-.692.064-1-.14-.205-.135-.42-.188-.663-.166-.177.016-.356.015-.533.03-.464.043-.882.195-1.248.494-.214.175-.45.32-.674.483-.088.064-.168.138-.25.21-.04.036-.073.087-.12.115-.227.135-.458.266-.688.397-.04.022-.096.03-.116.063-.125.202-.337.27-.526.382-.203.12-.417.202-.624.303-.294.142-.58.323-.726.65-.04.09-.11.165-.162.25-.062.104-.122.21-.174.317-.048.1-.063.22-.13.305-.147.187-.194.4-.2.625-.013.623-.015 1.246-.02 1.87-.002.174.045.322.197.435.065.05.1.143.146.217l.23.364c.006.01.017.016.02.026.158.363.326.722.463 1.092.053.145.072.296.193.413.06.058.1.15.124.232.062.21.11.425.166.65-.068.144-.214.166-.357.184-.11.014-.222.01-.333.01-.307-.005-.566.092-.764.335-.113.136-.235.266-.343.407-.038.05-.065.12-.07.183-.036.41-.105.82-.014 1.23.026.116.057.254.136.33.235.23.456.487.79.592.062.02.134.04.18.082.222.202.49.242.774.257.154.01.314.034.457.09.413.155.842.205 1.275.243.155.013.31.03.462.067.1.024.19.086.283.13-.07.237-.138.435-.19.638-.074.295.013.436.252.613.238.178.485.302.774.36.093.02.172.1.26.144.11.054.216.12.33.15.187.047.358.1.503.24.06.06.183.088.275.083.21-.012.418-.05.626-.084.396-.065.79-.188 1.184-.187.45 0 .704-.25.972-.534.158-.167.32-.34.508-.466.302-.205.862-.012.958.305.045.15.03.277-.09.396-.298.29-.266.66-.2 1.022.027.153.148.237.31.26.255.032.506.09.76.11.273.02.535-.046.73-.254.184-.194.364-.392.52-.607.09-.12.183-.21.316-.28.35-.188.685-.405 1.037-.59.332-.173.68-.315 1.015-.48.148-.074.274-.204.427-.253.385-.122.652-.41.967-.63.638-.446 1.058-1.095 1.566-1.662.306-.342.55-.746.95-1.002.044-.028.063-.097.108-.124.07-.043.154-.098.227-.09.116.01.163.12.15.224-.02.163-.055.326-.102.483-.054.18-.126.353-.197.527-.058.143-.122.283-.19.422-.023.05-.083.087-.092.136-.062.343-.34.568-.473.873-.08.188-.257.32-.37.5-.262.417-.515.846-.856 1.21-.044.047-.074.11-.102.17-.146.315-.366.574-.6.825-.036.04-.075.083-.097.132-.162.344-.39.636-.648.915-.376.404-.728.83-1.083 1.252-.288.344-.637.61-1.008.855-.183.12-.353.26-.535.383-.246.167-.49.344-.752.483-.162.086-.355.122-.538.157-.177.033-.34.074-.494.18-.123.083-.284.123-.434.153-.24.047-.468.09-.684.234-.148.098-.355.12-.54.15-.158.025-.298.065-.426.168-.075.06-.174.104-.27.124-.22.047-.403.166-.602.26-.418.2-.634.548-.865.916-.172.274-.406.524-.758.61-.157.04-.304.124-.48.2-.194-.14-.426-.247-.608-.46-.263-.308-.59-.56-.877-.847-.164-.162-.298-.354-.46-.52-.257-.258-.525-.506-.79-.756-.023-.022-.06-.035-.09-.04-.602-.096-1.15-.424-1.786-.38-.29.022-.563-.065-.814-.243-.276-.195-.59-.336-.873-.524-.2-.134-.38-.302-.56-.462-.207-.18-.436-.346-.6-.56-.24-.314-.663-.35-.905-.65-.088-.11-.204-.194-.297-.3-.155-.174-.315-.32-.536-.43-.386-.19-.768-.416-.875-.894-.012-.053-.026-.115-.06-.153-.22-.235-.285-.52-.3-.828-.005-.108-.044-.223-.1-.315-.137-.226-.197-.47-.223-.727-.027-.265-.08-.517-.21-.763-.102-.188-.133-.426-.146-.644-.016-.274-.174-.47-.288-.698-.107-.212-.06-.48-.27-.668-.086-.077-.09-.242-.142-.363-.05-.118-.125-.23-.166-.35-.162-.478-.506-.88-.555-1.404-.03-.33-.09-.66-.15-.988-.047-.265-.054-.29.053-.542.35-.056.45-.007.62.285.043.076.11.135.165.204.054.07.112.136.157.21.142.237.265.486.424.71.12.17.282.307.425.46.077.08.153.158.228.238.085.09.085.09.355.09z"/>
</svg>
