<svg id="Layer_2" xmlns="http://www.w3.org/2000/svg" viewBox="0 0 200 148.667">
  <path d="M2.474 84.243h193.453c-4.678 34.174-40.686 57.62-62.67 61.576 0 0 2.2-6.1 2.2-13.433 0-17.356-15.95-46.77-26.113-46.77-3.923 0-5.768 3.638-5.768 12.888 0 21.33 20.48 34.652 20.48 34.652-51.29 6.26-97.556 1.76-121.582-48.914z"/>
  <path d="M196.47 61.3h-194c0-18.633 10.03-39.467 18.875-50.354l66.127 13.47C76.834 29.334 74.978 40.27 74.77 42.13c-.684 6.085 1.655 15.835 6.113 17.142 2.097.615 5.2.353 6.733-1.22 2.753-2.822 1.427-2.818-1.602-4.494-1.172-.648-1.59-1.495-1.393-2.834.1-.68.272-.833 1.71-1.534l19.245-9.395c6 3.575 10.29 13.972 11.877 20.8 0 0 7.408-5.345 7.408-16.013 0-8.082-8.142-15.938-8.142-15.938l58.38-25.835c12.847 12.397 20.83 35.857 21.373 58.49z"/>
  <g>
    <path d="M43.86 63.7l-2.882.44c-1.154.734-3.46-.292-3.604 1.76.144.292.432.44.576.586 0 4.98-2.45 9.52-6.198 12.305-1.73-.878-2.162-2.342-3.604-3.662 0-.44.144-.88-.288-1.025-.288-1.026 0-2.638-.577-3.517-1.01-1.903 1.586-2.636 1.154-4.394-.29-.147-.865-.586-1.154-.147-.577-.146-1.73-.44-2.162-.293-.43-1.026-1.44 0-1.728-.88-.72.148-1.73-.145-2.307-.438-.432-.147-.865-.44-1.01.147-.72 1.465.722 2.637 1.587 3.81 1.585 4.54-2.306 8.056-5.19 10.546l-2.45-3.223c-2.74-1.904-1.154-4.542-1.73-7.47.577-.587 1.298-1.026 1.586-1.905-.577-.44-1.297-1.172-2.162-.878-.432.146-.72-.733-1.01-.294-.432-.44-1.73-.146-2.018-.88-1.297-.146-3.027-.586-4.18.44 0 1.173 1.44 1.612 1.874 2.49-.577 2.345 1.153 3.37 2.018 4.835-.577 3.077 3.17 3.663 4.036 6.008 1.874 1.172 2.306 4.395 5.19 3.662 1.873-2.05 4.18-3.81 5.91-5.86.144-.586.29-1.025.72-1.317 1.586 2.784 4.325 4.102 5.91 6.592.577 1.026 1.73.147 2.45.294 4.18-3.957 8.938-7.766 10.67-13.185.72-1.173 1.007-2.93 2.45-3.517v-.733c-.58-.148-1.444-.88-1.876-.294z"/>
    <path d="M70.527 65.606c-.432 0-.72-.733-1.153 0-.432-.88-1.297-.293-1.73-.88-.865.44-1.298-.732-2.02-.292v-.147c-1.584-.293-2.882-.733-4.18-1.026l-.575 1.174c2.16 3.076 5.476 5.42 7.494 8.643.432 2.198-.865 4.102-2.162 4.98-2.74 1.906-6.63 2.2-9.802 1.173-2.02-.293-2.884-2.198-4.325-3.37-.432-1.465-.577-2.636 0-3.955L54.095 70c.575-.44 1.73 0 2.305-.732.432-1.172-.865-1.612-1.44-2.198-2.452 0-2.452-3.517-4.902-3.663-3.17.44-.145 3.517-1.442 5.42-.145.44.288.88-.145 1.173-.43 1.17-.72 2.636-1.152 4.248.72 3.663 4.756 4.835 7.495 6.885 6.343 1.612 13.695 0 17.442-4.834 1.297-2.346-.144-5.422-1.44-7.18-2.017-1.024 1.01-2.195-.288-3.514z"/>
    <path d="M102.24 74.395c-.144-1.17-.864-2.636-.43-3.663 0-.732-.29-1.757 0-2.636-.146-.732-.433-1.61-.29-2.344h.72c4.18 0 8.073 1.758 11.532 3.516.865-.44 1.874-.585 2.306-1.612.72-.732-.577-1.465-1.153-1.904-1.297-.292-2.45-.732-3.748-1.318-4.325-.733-8.072-.587-12.83-1.026-.43.733-.864-.293-1.296.293-.864-.585-.864.147-1.73-.146-3.747.733-7.783 1.027-11.243 2.345-.865 1.464 1.154 2.343 2.02 3.222 1.584.585 2.594-.88 3.746-1.466 2.162-1.757 5.334-.88 7.64-2.344.29 1.758.577 3.956.432 5.273-.72 2.93-.144 5.567-1.297 8.35-.288.44-1.297 1.32-1.01 1.906.578 1.173 1.875.588 2.74.588 1.298-.88 2.883-.733 4.18-1.173 2.595-1.758-1.152-3.37-.287-5.86z"/>
    <path d="M166.53 73.956c-.864-.146.145-.88-.287-1.318 1.442-2.343-1.153-3.37-2.306-4.833-1.153-.294-1.73-1.026-2.595-1.904-.432-.732-1.153.147-1.153-.732-.578-.44-1.443-1.173-2.307-.88-.144 0-.432-.44-.577 0l-.288-.146c-.144-.147-.577-.147-.72.146-2.163-.586-4.758-.293-6.92-.586-1.153.293-2.162-.44-3.315.146-1.153-.732-2.45.147-4.18-.293-.288.44-.432.733-.577 1.173.288.44.432.88.865.88 1.298.438 1.73 1.17 1.875 2.49.72.44 0 1.61.72 2.05-.576 1.758-.287 4.248.145 6.153 0 1.905-2.883 2.93-2.018 4.98 2.162.733 4.18-.44 5.91-1.61 1.153-.294 3.027 0 3.46-1.173.288-.88-.577-.586-.72-1.025-1.154-1.025-2.307-2.05-2.74-3.37.288-2.49-.865-4.1-1.297-6.152-.288-.88-.72-1.172-.577-2.198l1.44-.146c5.623-.586 10.956.586 14.128 4.835.577 2.198 0 4.688-.288 7.032-1.442.733-1.73 2.49-3.46 2.638.144.585.72.732.865 1.17 2.74 1.027 5.19-1.61 7.784-1.317.72-.147 1.442-.587 1.153-1.466-1.155-1.318-2.308-2.49-2.02-4.54z"/>
    <path d="M192.622 78.497c-1.297-2.784 2.306-3.81 1.01-6.153-2.307-.585-4.902.293-7.064 0-.432-.44-1.153-.44-1.586-.585-1.586.44-1.874-1.174-2.74-1.76-1.44.148-3.46-.877-4.468.586-.288.733.432 1.32.72 1.905 2.596.734 5.335 1.32 8.217 1.32 2.02-.147.578 2.197 1.298 3.222.288.88 1.44 1.758 1.153 2.637-4.612-1.026-9.513.145-13.405-3.078-1.153-1.026-1.442-2.344-1.586-3.808-.433-2.198 1.296-3.81 3.026-4.98 4.324-3.37 10.38-.294 15.136.585 2.74-1.173-.72-2.345-.577-3.664v-.293c-1.874-1.466-4.9.147-7.207-.44-.288.147-.577-.293-.72.147-3.316-.44-6.92 1.32-10.09 2.93-2.163 1.466-4.326 3.81-3.893 6.886.865 4.69 5.766 4.25 8.793 6.446 4.325.587 9.37.44 13.694 1.32l1.153-.733c-.143-.735-.143-2.053-.863-2.493z"/>
    <path d="M135.97 71.172c-1.873-2.197-3.314-5.42-6.053-6.59-1.586-.442-2.883-1.174-4.613-.735-4.613 1.613-7.352 5.714-9.37 9.523-1.73 2.052-1.153 4.98-2.883 6.886 1.587 1.173 4.037.733 6.2.88.43 0 1.44-.294 1.008-1.32-1.442-1.17-.865-2.783-1.01-4.54-.143-1.173.433-1.906.866-2.785 4.18.295 8.505.44 12.54.295.29.585.722 1.464.866 2.343-.577 1.173.577 3.517-1.297 3.956-.288.44-.288.585 0 1.318 2.162.587 4.47 1.026 6.775 1.32 1.73-1.172-.288-2.052-.288-3.516.432-2.785-2.306-4.397-2.74-7.034zm-8.936-.146c-1.586-.146-3.748 0-5.622 0 .144-1.318 1.44-2.343 2.45-3.515 1.298-2.197 3.316-.878 4.902-.292 1.44 1.026 2.162 2.49 2.883 3.808-1.586.293-3.172.586-4.613 0z"/>
    <path d="M81.194 73.516c-1.297.586-3.315-.586-4.324.732 0 .44-.144 1.612.145 2.052 2.74-.147 4.9.146 7.495-.147.865-.146 2.45 0 2.02-1.465-1.155-2.05-3.605-1.025-5.336-1.172z"/>
  </g>
</svg>
