<!--
  SVG Music Logos
  Anthrax - Pentagram v1.0.0
  https://github.com/tiagoporto/svg-music-logos
  Copyright (c) 2016 Tiago Porto (http://tiagoporto.com)
-->
<svg xmlns="http://www.w3.org/2000/svg" viewBox="0 0 200 200">
  <path d="M157.65 25.87l-3.09 9.508c18.57 15.68 30.404 39.11 30.404 65.22 0 8.323-1.206 16.372-3.445 23.986L136.35 91.77l-3.15 9.7c8.19 5.95 16.388 11.91 24.57 17.854H86.24c-1.75-5.39-3.506-10.78-5.257-16.17h-10.2l5.253 16.17H25.56l-7.768 5.644c-2.313-7.727-3.56-15.907-3.56-24.37 0-27.613 13.232-52.232 33.676-67.853l17.296 53.23 8.252-5.995c-3.108-9.562-6.215-19.13-9.323-28.694L88.54 69.02l8.252-5.996L51.517 30.13C65.227 20.738 81.79 15.232 99.6 15.232c16.488 0 31.905 4.723 44.98 12.877l8.085-5.88C137.51 11.924 119.235 5.89 99.598 5.89c-52.16 0-94.704 42.546-94.704 94.706S47.438 195.3 99.598 195.3s94.704-42.543 94.704-94.703c0-30.315-14.375-57.377-36.65-74.73zM19.118 129.024H79.19l18.494 56.917c-36.23-.8-67.014-24.37-78.567-56.91zm70.277 0h21.035l-10.53 32.35c-3.503-10.785-7.002-21.57-10.506-32.35zm12.73 56.9l18.474-56.9h59.48c-11.49 32.36-41.99 55.847-77.96 56.9z"/>
  <path d="M30.568 115.686h16.466L69.54 99.334h50.518l-5.314 16.352h10.203l29.176-89.796-123.555 89.796zm92.642-26.053H82.89l52.78-38.347-12.46 38.347z"/>
</svg>
