<!--
  SVG Music Logos
  Cavalera Conspiracy - Inflikted v1.0.0
  https://github.com/tiagoporto/svg-music-logos
  Copyright (c) 2016 Tiago Porto (http://tiagoporto.com)
-->
<svg xmlns="http://www.w3.org/2000/svg" viewBox="0 0 200 23">
  <path d="M10.667 12.55h2.89c-.118 1.392-.628 2.483-1.518 3.295-.893.802-2.042 1.206-3.445 1.206-1.59 0-2.838-.517-3.742-1.556C3.95 14.46 3.5 13.022 3.5 11.19c0-1.824.46-3.257 1.384-4.292.92-1.04 2.193-1.557 3.814-1.557 1.412 0 2.55.376 3.408 1.126.854.755 1.334 1.8 1.434 3.147h-2.912c-.078-.584-.285-1.03-.614-1.34-.33-.307-.76-.463-1.3-.463-.724 0-1.268.285-1.623.854-.36.57-.54 1.424-.54 2.568 0 1.06.187 1.865.56 2.43.375.565.91.854 1.604.854.546 0 .98-.166 1.31-.49.328-.335.546-.824.643-1.475z"/>
  <path d="M24.583 15.68c-.092-.228-.14-.566-.14-1.026V8.43c0-.996-.408-1.76-1.224-2.296-.815-.527-1.99-.793-3.52-.793-1.396 0-2.493.32-3.283.964-.795.636-1.19 1.52-1.19 2.64v.198h2.74v-.16c0-.432.16-.764.475-1.006.318-.233.77-.346 1.362-.346.643 0 1.104.095 1.376.285.276.194.413.503.413.95 0 .554-.62.92-1.863 1.08-.49.058-.885.115-1.19.158-1.32.204-2.27.574-2.845 1.12-.574.54-.86 1.33-.86 2.364 0 1.11.288 1.974.865 2.577.572.603 1.386.907 2.45.907.794 0 1.49-.146 2.085-.445.598-.3 1.08-.73 1.45-1.3.007.26.036.502.09.73.054.232.13.436.23.622h3.052v-.494c-.222-.115-.38-.28-.474-.504zm-2.947-3.352c0 .778-.228 1.38-.68 1.832-.456.446-1.076.67-1.87.67-.445 0-.796-.124-1.06-.357-.26-.242-.394-.56-.394-.968 0-.384.107-.693.306-.916.21-.22.57-.41 1.09-.552.014-.01.337-.08.96-.213.618-.133 1.168-.313 1.648-.537v1.04z"/>
  <polygon points="29.702 16.676 25.763 5.735 29.007 5.735 31.252 13.586 33.516 5.735 36.608 5.735 32.693 16.676 29.702 16.676"/>
  <path d="M47.098 15.68c-.092-.228-.14-.566-.14-1.026V8.43c0-.996-.41-1.76-1.224-2.296-.814-.527-1.99-.793-3.52-.793-1.394 0-2.49.32-3.28.964-.796.636-1.19 1.52-1.19 2.64v.198h2.74v-.16c0-.432.155-.764.474-1.006.318-.233.77-.346 1.362-.346.643 0 1.104.095 1.377.285.275.194.413.503.413.95 0 .554-.62.92-1.863 1.08-.49.058-.888.115-1.19.158-1.323.204-2.273.574-2.845 1.12-.574.54-.86 1.33-.86 2.364 0 1.11.288 1.974.862 2.577.575.603 1.39.907 2.452.907.795 0 1.488-.146 2.086-.445.598-.3 1.08-.73 1.45-1.3.007.26.035.502.09.73.054.232.128.436.23.622h3.052v-.494c-.224-.115-.383-.28-.476-.504zm-2.95-3.352c0 .778-.226 1.38-.678 1.832-.456.446-1.075.67-1.87.67-.444 0-.795-.124-1.06-.357-.26-.242-.393-.56-.393-.968 0-.384.104-.693.306-.916.21-.22.567-.41 1.087-.552.017-.01.34-.08.963-.213.617-.133 1.168-.313 1.645-.537v1.04z"/>
  <polygon points="49.614 16.676 49.614 1.853 52.545 1.853 52.545 16.676 49.614 16.676"/>
  <path d="M63.632 6.87c-.916-1.02-2.21-1.528-3.89-1.528-1.585 0-2.83.517-3.747 1.552-.91 1.035-1.367 2.444-1.367 4.234 0 1.823.465 3.26 1.388 4.33.928 1.062 2.18 1.594 3.77 1.594 1.285 0 2.38-.328 3.276-.988.897-.645 1.49-1.552 1.787-2.71h-2.923c-.188.422-.44.726-.766.925-.317.194-.732.293-1.235.293-.712 0-1.258-.214-1.637-.655-.377-.432-.586-1.082-.63-1.94h7.31c.014-.096.026-.19.03-.295v-.475c0-1.875-.455-3.322-1.366-4.338zm-5.973 3.185c.06-.73.274-1.296.64-1.68.368-.39.87-.584 1.505-.584.683 0 1.21.19 1.576.575.366.39.563.95.59 1.69h-4.31z"/>
  <path d="M66.933 16.676V5.736h2.717v1.87c.384-.75.83-1.302 1.34-1.653.51-.356 1.118-.527 1.82-.527h.27c.063 0 .113.01.156.02l.007 2.965h-.975c-.798 0-1.398.215-1.8.627-.4.418-.604 1.03-.604 1.856v5.78h-2.93v.003z"/>
  <path d="M84.02 15.68c-.092-.228-.142-.566-.142-1.026V8.43c0-.996-.406-1.76-1.222-2.296-.817-.527-1.99-.793-3.52-.793-1.395 0-2.492.32-3.282.964-.793.636-1.19 1.52-1.19 2.64v.198h2.74v-.16c0-.432.16-.764.475-1.006.317-.233.768-.346 1.36-.346.644 0 1.105.095 1.377.285.276.194.413.503.413.95 0 .554-.617.92-1.863 1.08-.49.058-.887.115-1.19.158-1.32.204-2.27.574-2.845 1.12-.574.54-.86 1.33-.86 2.364 0 1.11.288 1.974.865 2.577.572.603 1.386.907 2.45.907.792 0 1.49-.146 2.088-.445.595-.3 1.075-.73 1.447-1.3.007.26.034.502.09.73.054.232.13.436.23.622h3.05v-.494c-.22-.115-.38-.28-.472-.504zm-2.947-3.352c0 .778-.228 1.38-.68 1.832-.454.446-1.078.67-1.87.67-.445 0-.796-.124-1.06-.357-.26-.242-.392-.56-.392-.968 0-.384.106-.693.305-.916.206-.22.57-.41 1.087-.552.016-.01.342-.08.963-.213.617-.133 1.17-.313 1.647-.537v1.04z"/>
  <path d="M96.85 12.55h2.89c-.12 1.392-.63 2.483-1.52 3.295-.89.802-2.042 1.206-3.443 1.206-1.59 0-2.84-.517-3.742-1.556-.904-1.034-1.353-2.472-1.353-4.305 0-1.824.458-3.257 1.383-4.292.92-1.04 2.19-1.557 3.81-1.557 1.415 0 2.552.376 3.41 1.126.856.755 1.335 1.8 1.435 3.147h-2.914c-.076-.584-.282-1.03-.615-1.34-.324-.308-.756-.464-1.295-.464-.724 0-1.267.284-1.626.853-.362.57-.54 1.424-.54 2.568 0 1.06.185 1.866.56 2.43.37.566.91.855 1.604.855.543 0 .98-.166 1.31-.49.33-.334.546-.823.646-1.474z"/>
  <path d="M110.65 6.903c-.987-1.045-2.342-1.562-4.063-1.562-1.728 0-3.08.518-4.065 1.563-.988 1.04-1.483 2.468-1.483 4.286 0 1.826.495 3.26 1.482 4.3.985 1.043 2.337 1.56 4.065 1.56 1.72 0 3.076-.517 4.063-1.56.99-1.04 1.486-2.474 1.486-4.3 0-1.82-.497-3.247-1.486-4.287zm-2.174 6.802c-.45.593-1.078.887-1.89.887-.825 0-1.46-.294-1.907-.887-.45-.59-.673-1.43-.673-2.516 0-1.08.223-1.914.672-2.498.445-.59 1.08-.883 1.907-.883.82 0 1.452.293 1.896.882.444.584.662 1.42.662 2.497 0 1.086-.223 1.926-.67 2.515z"/>
  <path d="M114.124 16.676V5.736h2.87V7.03c.412-.526.896-.93 1.45-1.19.557-.266 1.18-.4 1.864-.4 1.21 0 2.112.314 2.715.94.603.63.9 1.576.9 2.838v7.457h-2.93v-6.61c0-.79-.137-1.35-.4-1.68-.263-.338-.693-.505-1.29-.505-.692 0-1.24.2-1.64.617-.402.413-.606.978-.606 1.685v6.493h-2.933z"/>
  <path d="M125.824 13.11h2.922c.028.557.228.974.608 1.25.372.27.935.403 1.69.403.57 0 1.012-.095 1.326-.29.31-.185.468-.456.468-.812 0-.493-.584-.863-1.752-1.115-.48-.1-.856-.19-1.14-.256-1.425-.366-2.412-.794-2.965-1.292-.552-.493-.83-1.167-.83-2.017 0-1.12.403-2.002 1.213-2.657.807-.655 1.903-.982 3.285-.982 1.466 0 2.615.33 3.453.978.834.65 1.278 1.566 1.333 2.748h-2.85c-.02-.465-.195-.82-.53-1.078-.328-.256-.793-.384-1.384-.384-.56 0-.97.08-1.242.252-.27.166-.408.417-.408.754 0 .44.73.82 2.186 1.158.332.07.598.133.793.18 1.46.342 2.453.755 2.987 1.24.53.483.802 1.162.802 2.045 0 1.24-.44 2.188-1.316 2.838-.876.65-2.15.98-3.82.98-1.513 0-2.695-.343-3.547-1.017-.854-.68-1.282-1.614-1.282-2.8v-.122z"/>
  <path d="M147.08 6.96c-.836-1.063-1.933-1.595-3.28-1.595-.704 0-1.32.147-1.838.44-.52.295-.994.765-1.417 1.406V5.736h-2.788v15.33h2.85V15.32c.36.565.82.997 1.365 1.29.546.296 1.17.443 1.865.443 1.324 0 2.406-.545 3.244-1.632.84-1.092 1.26-2.516 1.26-4.267-.002-1.73-.42-3.127-1.26-4.19zm-2.287 6.688c-.422.574-1 .87-1.74.87-.778 0-1.38-.286-1.808-.85-.425-.56-.64-1.363-.64-2.398 0-1.106.205-1.946.61-2.525.407-.58 1-.864 1.776-.864.796 0 1.396.286 1.814.87.415.58.624 1.424.624 2.52 0 1.006-.213 1.804-.635 2.378z"/>
  <polygon points="150.394 4.511 150.394 1.848 153.327 1.848 153.327 4.511 150.394 4.511"/>
  <polygon points="150.394 16.676 150.394 5.735 153.327 5.735 153.327 16.676 150.394 16.676"/>
  <path d="M155.942 16.676V5.736h2.717v1.87c.383-.75.832-1.302 1.342-1.653.505-.356 1.115-.527 1.82-.527h.266c.064 0 .117.01.157.02l.01 2.965h-.98c-.796 0-1.397.215-1.798.627-.4.418-.605 1.03-.605 1.856v5.78h-2.93v.003z"/>
  <path d="M173.03 15.68c-.093-.228-.14-.566-.14-1.026V8.43c0-.996-.41-1.76-1.226-2.296-.814-.527-1.988-.793-3.52-.793-1.394 0-2.488.32-3.28.964-.794.636-1.187 1.52-1.187 2.64v.198h2.736v-.16c0-.432.16-.764.474-1.006.318-.233.77-.346 1.362-.346.642 0 1.103.095 1.375.285.275.194.416.503.416.95 0 .554-.62.92-1.862 1.08-.494.058-.888.115-1.192.158-1.322.204-2.27.574-2.845 1.12-.57.54-.858 1.33-.858 2.364 0 1.11.29 1.974.864 2.577.574.603 1.386.907 2.45.907.794 0 1.49-.146 2.087-.445.595-.3 1.08-.73 1.447-1.3.007.26.036.502.093.73.054.232.128.436.227.622h3.052v-.494c-.22-.115-.38-.28-.473-.504zm-2.948-3.352c0 .778-.228 1.38-.68 1.832-.454.446-1.076.67-1.87.67-.445 0-.794-.124-1.06-.357-.26-.242-.392-.56-.392-.968 0-.384.104-.693.306-.916.207-.22.567-.41 1.087-.552.017-.01.34-.08.96-.213.62-.133 1.17-.313 1.648-.537v1.04z"/>
  <path d="M182.062 12.55h2.89c-.12 1.392-.63 2.483-1.52 3.295-.89.802-2.04 1.206-3.443 1.206-1.59 0-2.84-.517-3.743-1.556-.904-1.034-1.353-2.472-1.353-4.305 0-1.824.46-3.257 1.384-4.292.92-1.04 2.192-1.557 3.81-1.557 1.416 0 2.552.376 3.41 1.126.856.755 1.335 1.8 1.435 3.147h-2.912c-.077-.584-.284-1.03-.616-1.34-.325-.308-.757-.464-1.296-.464-.724 0-1.267.284-1.623.853-.36.57-.54 1.424-.54 2.568 0 1.06.184 1.866.56 2.43.37.566.908.855 1.603.855.546 0 .98-.166 1.31-.49.328-.334.544-.823.644-1.474z"/>
  <path d="M187.237 21.07v-2.367c.093.014.192.024.295.033.097.01.228.01.392.01.576 0 1.01-.138 1.296-.408.292-.27.434-.683.434-1.224 0-.043-.007-.09-.02-.152-.013-.062-.028-.11-.042-.147l-3.944-11.078h3.22l2.304 7.894 2.25-7.893h3.078l-4.5 12.91c-.337.963-.757 1.628-1.26 1.974-.503.357-1.257.533-2.266.533-.18 0-.372-.01-.584-.02-.204-.014-.427-.038-.653-.062z"/>
</svg>
