<!--
  SVG Music Logos
  Ace Frehley - Trouble Walkin' v0.1.0
  https://github.com/tiagoporto/svg-music-logos
  Copyright (c) 2016-2018 Tiago Porto (http://tiagoporto.com)
-->
<svg xmlns="http://www.w3.org/2000/svg" viewBox="0 0 200 184" class="ace-frehley">
  <linearGradient id="ace-frehley__gradient" gradientUnits="userSpaceOnUse" x1="37.941" y1="42.333" x2="37.941" y2="186.335">
    <stop class="ace-frehley__first-stop" offset="0"/>
    <stop class="ace-frehley__second-stop" offset=".178"/>
    <stop class="ace-frehley__third-stop" offset=".354"/>
    <stop class="ace-frehley__fourth-stop" offset=".529"/>
    <stop class="ace-frehley__fifth-stop" offset=".704"/>
    <stop class="ace-frehley__sixth-stop" offset=".877"/>
    <stop class="ace-frehley__seventh-stop" offset="1"/>
  </linearGradient>

  <g class="ace-frehley__lettering">
    <path d="M57.76 4.324H19.706L1 121.01h29.806L33.66 99.77h8.56l1.903 21.243H74.88L57.76 4.325zM33.66 75.67l4.44-36.784 3.487 36.783H33.66z"/>
    <polygon points="123.394 3.69 92.004 3.69 76.31 19.387 76.31 103.572 94.067 121.331 124.032 121.331 140.836 104.527 140.836 71.228 111.348 71.228 111.348 99.451 106.276 99.451 106.276 27.153 110.71 27.153 110.71 49.351 140.203 49.351 140.203 20.812"/>
    <polygon points="146.862 4.006 197.598 4.006 197.598 26.201 176.668 26.201 176.668 46.179 193.156 46.179 193.156 69.643 176.035 69.643 176.035 98.184 197.598 98.184 197.598 121.331 147.179 121.331"/>
    <polygon points="1.95 126.402 1.95 180.31 15.586 180.31 15.586 157.795 23.514 157.795 23.514 147.967 15.903 147.967 15.903 137.182 25.732 137.182 25.732 126.402"/>
    <path d="M50.36 153.844l6.693-5.595v-13.497l-8.355-8.356H27.904v53.913H41.06v-21.172h2.194v21.172H57.09v-20.718l-6.73-5.748zm-7.182-5.14h-2.193v-11.57h2.193v11.57z"/>
    <polygon points="59.586 126.322 59.586 180.31 82.798 180.31 82.798 169.724 72.516 169.724 72.516 156.794 80.228 156.794 80.228 146.512 72.44 146.512 72.44 137.136 82.648 137.136 82.648 126.402"/>
    <polygon points="86.125 126.397 97.77 126.397 97.77 148.476 100.492 148.476 100.492 126.402 114.027 126.402 114.027 180.31 100.19 180.31 100.19 158.231 97.695 158.231 97.695 180.31 84.765 180.31 84.765 126.397"/>
    <polygon points="130.283 126.402 130.283 169.572 139.659 169.572 139.659 180.31 116.447 180.31 116.447 126.402"/>
    <polygon points="141.459 126.489 176.769 126.489 180.854 141.611 185.391 126.337 199 126.337 187.81 159.154 187.81 180.25 173.519 180.25 173.519 156.809 166.26 134.882 165.202 134.882 165.202 137.226 154.918 137.226 154.918 147.206 162.631 147.206 162.631 157.49 154.994 157.49 154.994 169.816 164.067 169.816 164.067 180.25 141.459 180.25"/>
  </g>
</svg>
