<!--
  SVG Music Logos
  Ay Lee - Recover, Vol. 1 v1.0.0
  https://github.com/tiagoporto/svg-music-logos
  Copyright (c) 2016-2018 Tiago Porto (http://tiagoporto.com)
-->
<svg xmlns="http://www.w3.org/2000/svg" viewBox="0 0 200 28">
  <path d="M55.714 1.176L55.692 1.176 55.692 1.2 51.34 5.802 51.34 1.176 46.936 1.176 46.936 5.589 42.764 1.176 38.36 1.176 38.36 25.824 42.764 25.824 42.764 7.588 46.936 12 46.936 25.824 51.34 25.824 51.34 12.214 55.692 7.611 55.692 25.824 60.096 25.824 60.096 1.176z"/>
  <path d="M5.998 25.824L12.434 8.552 18.87 25.824 23.57 25.824 14.386 1.176 10.482 1.176 1.298 25.824z"/>
  <path d="M126.225 15.947L126.225 20.885 119.872 20.885 119.872 1.176 115.468 1.176 115.468 25.824 117.155 25.824 119.872 25.824 126.225 25.824 130.016 25.824 130.629 25.824 130.629 15.947z"/>
  <path d="M164.995 6.115L164.995 1.176 153.329 1.176 150.611 1.176 148.924 1.176 148.924 25.824 150.611 25.824 153.329 25.824 164.995 25.824 164.995 20.885 153.329 20.885 153.329 19.328 163.862 19.328 163.862 14.389 153.329 14.389 153.329 12.78 163.862 12.78 163.862 7.842 153.329 7.842 153.329 6.115z"/>
  <path d="M199.298 6.115L199.298 1.176 187.632 1.176 184.914 1.176 183.227 1.176 183.227 25.824 184.914 25.824 187.632 25.824 199.298 25.824 199.298 20.885 187.632 20.885 187.632 19.328 198.165 19.328 198.165 14.389 187.632 14.389 187.632 12.78 198.165 12.78 198.165 7.842 187.632 7.842 187.632 6.115z"/>
  <path d="M90.879 1.176L85.385 10.466 79.891 1.176 75.133 1.176 74.868 1.333 82.827 14.792 76.302 25.824 81.419 25.824 95.903 1.333 95.637 1.176z"/>
</svg>
