<!--
  SVG Music Logos
  Angra - Angel's Cry v0.1.0
  https://github.com/tiagoporto/svg-music-logos
  Copyright (c) 2016-2018 Tiago Porto (http://tiagoporto.com)
-->
<svg xmlns="http://www.w3.org/2000/svg" viewBox="0 0 200 64" class="angra">
  <style>
    .angra__step1{fill:url(#SVGID_1_);}
    .angra__step2{fill:url(#SVGID_2_);}
    .angra__step3{fill:url(#SVGID_6_);}
    .angra__step4{fill:url(#SVGID_7_);}
    .angra__step5{fill:url(#SVGID_8_);}
    .angra__step6{fill:url(#SVGID_9_);}
    .st9{fill:url(#SVGID_10_);}
    .st10{fill:url(#SVGID_11_);}
    .st11{fill:url(#SVGID_12_);}
    .st12{fill:url(#SVGID_13_);}
    .st13{fill:url(#SVGID_14_);}
    .st14{fill:url(#SVGID_15_);}
    .st15{fill:url(#SVGID_16_);}
    .st16{fill:url(#SVGID_17_);}
    .st17{fill:url(#SVGID_18_);}
    .st18{fill:url(#SVGID_19_);}
    .st19{fill:url(#SVGID_20_);}
    .st20{fill:url(#SVGID_21_);}
    .st24{fill:url(#SVGID_25_);}
  </style>
  <linearGradient id="SVGID_1_" gradientUnits="userSpaceOnUse" x1="53.075" y1="45.511" x2="146.781" y2="45.511">
    <stop offset="0" stop-color="#F1DE3F"/>
    <stop offset=".1" stop-color="#AC611E"/>
    <stop offset=".2" stop-color="#F1DE3F"/>
    <stop offset=".3" stop-color="#AC611E"/>
    <stop offset=".4" stop-color="#F1DE3F"/>
    <stop offset=".5" stop-color="#AC611E"/>
    <stop offset=".6" stop-color="#F1DE3F"/>
    <stop offset=".7" stop-color="#AC611E"/>
    <stop offset=".8" stop-color="#F1DE3F"/>
    <stop offset=".9" stop-color="#AC611E"/>
    <stop offset="1" stop-color="#F1DE3F"/>
  </linearGradient>
  <path class="angra__step1" d="M100 53.574s8.862-5.085 15.4-7.7 21.066-6.538 24.698-7.264c3.632-.726 6.683-1.162 6.683-1.162l-46.925.436h-46.78s18.74 3.487 25.134 5.375C86.724 45.775 100 53.573 100 53.573z"/>
  <linearGradient id="SVGID_2_" gradientUnits="userSpaceOnUse" x1="100" y1="50.669" x2="100" y2="27.852">
    <stop offset="0" stop-color="#FFFFB2"/>
    <stop offset=".123" stop-color="#FEFCAF"/>
    <stop offset=".226" stop-color="#FAF3A4"/>
    <stop offset=".32" stop-color="#F3E393"/>
    <stop offset=".41" stop-color="#EACD7B"/>
    <stop offset=".497" stop-color="#DEB15C"/>
    <stop offset=".58" stop-color="#D08E36"/>
    <stop offset=".632" stop-color="#C5751A"/>
    <stop offset=".813" stop-color="#C5731A"/>
    <stop offset=".878" stop-color="#C76C1B"/>
    <stop offset=".925" stop-color="#C9611B"/>
    <stop offset=".962" stop-color="#CC501C"/>
    <stop offset=".994" stop-color="#D03A1E"/>
    <stop offset="1" stop-color="#D1351E"/>
  </linearGradient>
  <path class="angra__step2" d="M119.44 36.46c5.095.27 79.06.64 79.06.64s-44.892.784-52.3 1.365-14.207.744-23.972 3.632C111.913 45.147 100 50.67 100 50.67s-11.913-5.522-22.228-8.573c-9.765-2.888-16.562-3.05-23.97-3.632S1.5 37.1 1.5 37.1s73.965-.37 79.06-.64c5.522-.29 19.44-2.5 19.44-2.5s13.918 2.21 19.44 2.5z"/>
  <path class="angra__step1" d="M55.184 41.368s1.116 1.746 2.714 2.908c.4.29 2.005 1.743 2.005 1.743l1.695-1.163s-.94-.872-1.085-3.632c-.145-2.76 0-23.535 0-23.535s2.602 2.278 4.504 5.157c2.542 3.85 4.068 9.516 8.136 15.327 3.012 4.303 9.995 8.5 9.995 8.5l.823-1.526s-.357-.852-.473-2.13c-.145-1.6-.107-30.462-.107-30.462s0-1.743.29-2.47c.292-.726.776-.97.776-.97l-.58-.31-5.347.02s.725 1.017.87 1.598c.146.58.146 26.586.146 26.586s-3.34-2.18-5.085-5.81-2.76-7.99-5.23-11.188-6.1-7.12-6.682-8.717-.508-2.615-.508-2.615h-7.046s1.162 1.017 1.308 1.598c.145.58 0 29.928 0 29.928s-.095.307-.414.61c-.382.363-.704.552-.704.552z"/>
  <path class="angra__step1" d="M115.933 44.858s-1.453-6.485-1.453-10.26c0-2.77 1.19-6.374 1.563-8.11.136-.628-.74-.998-.74-.998s-.63.164-2.374.237c-1.744.073-8.21.175-8.863-.043-1.307-.436-1.525-.61-1.525-.61L98.78 29.72l.106 1.006 12.082-.934s-.406 2.035-.508 3.267c-.145 1.74.58 4.355-.436 5.37-1.017 1.017-9.298 4.212-14.964.872s-6.973-12.196-5.81-16.697c1.16-4.5 6.246-10.6 12.203-10.6 5.957 0 10.024 4.356 10.024 4.356l5.714-7.123-1.258-.774s-2.13 1.888-4.89 1.452c-2.76-.436-5.667-2.76-11.188-2.178-5.52.58-16.562 5.575-15.98 20.095.58 14.52 13.216 17.613 16.27 17.568 4.94-.073 7.337-1.67 10.533-1.67s5.256 1.128 5.256 1.128z"/>
  <path class="angra__step1" d="M117.996 8.343v37.193l.91.54s1.65-2.995 2.14-3.3c1.163-.727 2.69-.945 2.69-.945s-1.09-.943-1.09-2.25v-24.7s2.033.145 3.922-.436c1.89-.58 2.906-1.743 6.973-1.743 4.07 0 7.99 2.76 7.99 6.393s-2.905 6.974-7.408 7.12c-4.504.145-9.375-.92-9.375-.92s2.47 2.663 3.487 4.55c1.017 1.89 1.626 4.456 4.367 7.846 1.713 2.116 3.915 3.05 5.222 4.357 1.017 1.017 2.712 4.358 2.712 4.358s1.5-.92 2.81-1.937 2.226-2.712 2.226-2.712-4.24-.272-8.136-3.777c-2.906-2.616-4.33-7.7-4.33-7.7s5.576.827 9.517-2.397c3.996-3.27 4.577-10.97 1.38-15.255-3.195-4.286-7.408-4.94-10.968-4.94-3.56 0-6.974 2.487-10.388 2.324-3.05-.143-4.648-1.67-4.648-1.67z"/>
  <linearGradient id="SVGID_6_" gradientUnits="userSpaceOnUse" x1="42.324" y1="12.702" x2="42.324" y2="7.181">
    <stop offset="0" stop-color="#F1DE3F"/>
    <stop offset=".07" stop-color="#E1C137"/>
    <stop offset=".159" stop-color="#D1A32F"/>
    <stop offset=".258" stop-color="#C38B29"/>
    <stop offset=".369" stop-color="#B97824"/>
    <stop offset=".499" stop-color="#B16B21"/>
    <stop offset=".666" stop-color="#AD631F"/>
    <stop offset="1" stop-color="#AC611E"/>
  </linearGradient>
  <polygon class="angra__step3" points="40.29 12.702 43.195 12.314 44.358 7.181 41.646 7.278"/>
  <linearGradient id="SVGID_7_" gradientUnits="userSpaceOnUse" x1="32.905" y1="26.14" x2="40.217" y2="18.828">
    <stop offset="0" stop-color="#F1DE3F"/>
    <stop offset=".216" stop-color="#DAB534"/>
    <stop offset=".445" stop-color="#C6912B"/>
    <stop offset=".659" stop-color="#B87624"/>
    <stop offset=".85" stop-color="#AF671F"/>
    <stop offset="1" stop-color="#AC611E"/>
  </linearGradient>
  <polygon class="angra__step4" points="33.607 26.843 37.287 25.099 39.224 21.322 38.546 17.157"/>
  <linearGradient id="SVGID_8_" gradientUnits="userSpaceOnUse" x1="35.447" y1="24.518" x2="39.951" y2="29.022">
    <stop offset="0" stop-color="#AC611E"/>
    <stop offset=".092" stop-color="#B16B21"/>
    <stop offset=".247" stop-color="#C08628"/>
    <stop offset=".447" stop-color="#D7B133"/>
    <stop offset=".476" stop-color="#DBB835"/>
    <stop offset=".492" stop-color="#D9B534"/>
    <stop offset=".721" stop-color="#C18728"/>
    <stop offset=".898" stop-color="#B26B21"/>
    <stop offset="1" stop-color="#AC611E"/>
    <stop offset="1" stop-color="#B16B21"/>
    <stop offset="1" stop-color="#C08527"/>
    <stop offset="1" stop-color="#D7AE32"/>
    <stop offset="1" stop-color="#F1DE3F"/>
  </linearGradient>
  <polygon class="angra__step5" points="32.541 27.424 37.287 25.099 41.936 25.196 41.065 27.908"/>
  <linearGradient id="SVGID_9_" gradientUnits="userSpaceOnUse" x1="37.094" y1="2.435" x2="37.094" y2="7.375">
    <stop offset="0" stop-color="#AC611E"/>
    <stop offset=".017" stop-color="#B06820"/>
    <stop offset=".141" stop-color="#C7932B"/>
    <stop offset=".238" stop-color="#D6AE32"/>
    <stop offset=".295" stop-color="#DBB835"/>
    <stop offset=".557" stop-color="#BA7B25"/>
    <stop offset=".691" stop-color="#AC611E"/>
    <stop offset=".735" stop-color="#B16B21"/>
    <stop offset=".811" stop-color="#C08527"/>
    <stop offset=".906" stop-color="#D7AE32"/>
    <stop offset="1" stop-color="#F1DE3F"/>
  </linearGradient>
  <polygon class="angra__step6" points="35.156 5.922 29.83 2.823 33.413 2.435 44.358 7.181 41.646 7.278 40.483 7.375"/>
  <linearGradient id="SVGID_10_" gradientUnits="userSpaceOnUse" x1="21.978" y1="36.099" x2="31.069" y2="49.082">
    <stop offset="0" stop-color="#AC611E"/>
    <stop offset=".067" stop-color="#AD641F"/>
    <stop offset=".11" stop-color="#B26C21"/>
    <stop offset=".147" stop-color="#BB7B25"/>
    <stop offset=".18" stop-color="#C6902B"/>
    <stop offset=".211" stop-color="#D5AC32"/>
    <stop offset=".24" stop-color="#E7CD3A"/>
    <stop offset=".252" stop-color="#F1DE3F"/>
    <stop offset=".263" stop-color="#EDD73D"/>
    <stop offset=".357" stop-color="#CA982C"/>
    <stop offset=".426" stop-color="#B47022"/>
    <stop offset=".462" stop-color="#AC611E"/>
    <stop offset=".49" stop-color="#AF661F"/>
    <stop offset=".525" stop-color="#B87624"/>
    <stop offset=".565" stop-color="#C6902A"/>
    <stop offset=".606" stop-color="#D9B334"/>
    <stop offset=".648" stop-color="#F1DE3F"/>
    <stop offset=".802" stop-color="#C18628"/>
    <stop offset=".876" stop-color="#AC611E"/>
    <stop offset=".906" stop-color="#AE641F"/>
    <stop offset=".928" stop-color="#B36D21"/>
    <stop offset=".947" stop-color="#BB7D25"/>
    <stop offset=".964" stop-color="#C8932B"/>
    <stop offset=".98" stop-color="#D8B033"/>
    <stop offset=".996" stop-color="#EBD33C"/>
    <stop offset="1" stop-color="#F1DE3F"/>
  </linearGradient>
  <path class="st9" d="M18.885 53.477s.194 1.453.484 2.034c.29.582.58 1.357.58 1.357l2.712-2.712s-.484-1.55-.194-3.487S27.795 39.82 29.44 37.69c1.647-2.13 5.134-7.264 5.134-7.264l-5.327.58S18.302 45.44 18.302 47.087s.583 6.39.583 6.39z"/>
  <linearGradient id="SVGID_11_" gradientUnits="userSpaceOnUse" x1="41.066" y1="12.041" x2="46.08" y2="26.604">
    <stop offset="0" stop-color="#FAE449"/>
    <stop offset=".006" stop-color="#F5DB46"/>
    <stop offset=".035" stop-color="#DEB63A"/>
    <stop offset=".065" stop-color="#CC9730"/>
    <stop offset=".096" stop-color="#BE7F28"/>
    <stop offset=".129" stop-color="#B46E22"/>
    <stop offset=".165" stop-color="#AE641F"/>
    <stop offset=".209" stop-color="#AC611E"/>
    <stop offset=".246" stop-color="#AE651F"/>
    <stop offset=".283" stop-color="#B57222"/>
    <stop offset=".322" stop-color="#C18728"/>
    <stop offset=".361" stop-color="#D1A430"/>
    <stop offset=".401" stop-color="#E6CA3A"/>
    <stop offset=".419" stop-color="#F1DE3F"/>
    <stop offset=".524" stop-color="#F1DE3F"/>
    <stop offset=".603" stop-color="#D6AE32"/>
    <stop offset=".682" stop-color="#BF8427"/>
    <stop offset=".744" stop-color="#B16B21"/>
    <stop offset=".781" stop-color="#AC611E"/>
    <stop offset=".808" stop-color="#B26B21"/>
    <stop offset=".854" stop-color="#C18728"/>
    <stop offset=".913" stop-color="#DAB434"/>
    <stop offset=".962" stop-color="#F1DE3F"/>
    <stop offset="1" stop-color="#A05321"/>
  </linearGradient>
  <polygon class="st10" points="43.195 12.314 39.709 12.508 44.261 27.23 47.457 25.293"/>
  <linearGradient id="SVGID_12_" gradientUnits="userSpaceOnUse" x1="47.793" y1="24.936" x2="50.859" y2="29.659">
    <stop offset="0" stop-color="#AC611E"/>
    <stop offset=".147" stop-color="#AE641F"/>
    <stop offset=".255" stop-color="#B36D21"/>
    <stop offset=".35" stop-color="#BC7D25"/>
    <stop offset=".438" stop-color="#C8942B"/>
    <stop offset=".521" stop-color="#D8B133"/>
    <stop offset=".6" stop-color="#EBD43C"/>
    <stop offset=".619" stop-color="#F1DE3F"/>
    <stop offset=".649" stop-color="#DEC43A"/>
    <stop offset=".711" stop-color="#BB9432"/>
    <stop offset=".773" stop-color="#9E6D2B"/>
    <stop offset=".833" stop-color="#884E25"/>
    <stop offset=".892" stop-color="#783921"/>
    <stop offset=".948" stop-color="#6E2B1F"/>
    <stop offset="1" stop-color="#6B271E"/>
  </linearGradient>
  <polygon class="st11" points="44.261 27.23 47.457 25.293 53.908 25.274 49.975 30.233 48.571 30.765 45.714 30.814"/>
  <linearGradient id="SVGID_13_" gradientUnits="userSpaceOnUse" x1="95.354" y1="61.331" x2="44.348" y2="31.883">
    <stop offset="0" stop-color="#F1DE3F"/>
    <stop offset=".001" stop-color="#ECD43C"/>
    <stop offset=".005" stop-color="#D8B133"/>
    <stop offset=".01" stop-color="#C8942B"/>
    <stop offset=".015" stop-color="#BC7D25"/>
    <stop offset=".02" stop-color="#B36D21"/>
    <stop offset=".026" stop-color="#AE641F"/>
    <stop offset=".034" stop-color="#AC611E"/>
    <stop offset=".049" stop-color="#B46F22"/>
    <stop offset=".078" stop-color="#C9952C"/>
    <stop offset=".117" stop-color="#EBD23C"/>
    <stop offset=".124" stop-color="#F1DE3F"/>
    <stop offset=".125" stop-color="#EFDB3E"/>
    <stop offset=".143" stop-color="#D7AF33"/>
    <stop offset=".161" stop-color="#C48D2A"/>
    <stop offset=".178" stop-color="#B77523"/>
    <stop offset=".193" stop-color="#AF661F"/>
    <stop offset=".206" stop-color="#AC611E"/>
    <stop offset=".301" stop-color="#AC611E"/>
    <stop offset=".368" stop-color="#AC611E"/>
    <stop offset=".382" stop-color="#AF661F"/>
    <stop offset=".398" stop-color="#B67323"/>
    <stop offset=".415" stop-color="#C38A29"/>
    <stop offset=".432" stop-color="#D4AA31"/>
    <stop offset=".45" stop-color="#EAD23C"/>
    <stop offset=".455" stop-color="#F1DE3F"/>
    <stop offset=".459" stop-color="#E8CE3B"/>
    <stop offset=".469" stop-color="#D6AC32"/>
    <stop offset=".48" stop-color="#C6912B"/>
    <stop offset=".491" stop-color="#BB7C25"/>
    <stop offset=".504" stop-color="#B26D21"/>
    <stop offset=".52" stop-color="#AD641F"/>
    <stop offset=".543" stop-color="#AC611E"/>
    <stop offset=".688" stop-color="#F1DE3F"/>
    <stop offset=".696" stop-color="#E8CE3B"/>
    <stop offset=".718" stop-color="#D6AC32"/>
    <stop offset=".739" stop-color="#C8942B"/>
    <stop offset=".758" stop-color="#C08527"/>
    <stop offset=".774" stop-color="#BD8026"/>
    <stop offset=".795" stop-color="#BE8327"/>
    <stop offset=".809" stop-color="#C38B29"/>
    <stop offset=".821" stop-color="#CC9A2D"/>
    <stop offset=".832" stop-color="#D7B033"/>
    <stop offset=".842" stop-color="#E6CB3A"/>
    <stop offset=".848" stop-color="#F1DE3F"/>
    <stop offset=".85" stop-color="#EED93E"/>
    <stop offset=".862" stop-color="#DFBE36"/>
    <stop offset=".875" stop-color="#D2A730"/>
    <stop offset=".891" stop-color="#C9952C"/>
    <stop offset=".91" stop-color="#C28928"/>
    <stop offset=".936" stop-color="#BE8227"/>
    <stop offset="1" stop-color="#BD8026"/>
  </linearGradient>
  <path class="st12" d="M45.133 30.523l3.777-.387s2.324 7.36 4.65 10.944c2.323 3.584 10.847 10.654 18.014 12.397 7.167 1.743 13.656 1.163 17.337.484 3.682-.677 11.09-2.227 11.09-2.227v1.55l-5.955 4.746s-15.4 1.258-21.89-.39c-6.488-1.645-15.302-5.326-18.11-8.62-2.81-3.292-8.427-15.98-8.427-15.98l-.485-2.517z"/>
  <linearGradient id="SVGID_14_" gradientUnits="userSpaceOnUse" x1="-296.002" y1="12.702" x2="-296.002" y2="7.181" gradientTransform="matrix(-1 0 0 1 -138.5 0)">
    <stop offset="0" stop-color="#F1DE3F"/>
    <stop offset=".07" stop-color="#E1C137"/>
    <stop offset=".159" stop-color="#D1A32F"/>
    <stop offset=".258" stop-color="#C38B29"/>
    <stop offset=".369" stop-color="#B97824"/>
    <stop offset=".499" stop-color="#B16B21"/>
    <stop offset=".666" stop-color="#AD631F"/>
    <stop offset="1" stop-color="#AC611E"/>
  </linearGradient>
  <polygon class="st13" points="159.536 12.702 156.631 12.314 155.469 7.181 158.181 7.278"/>
  <linearGradient id="SVGID_15_" gradientUnits="userSpaceOnUse" x1="-305.421" y1="26.14" x2="-298.109" y2="18.828" gradientTransform="matrix(-1 0 0 1 -138.5 0)">
    <stop offset="0" stop-color="#F1DE3F"/>
    <stop offset=".216" stop-color="#DAB534"/>
    <stop offset=".445" stop-color="#C6912B"/>
    <stop offset=".659" stop-color="#B87624"/>
    <stop offset=".85" stop-color="#AF671F"/>
    <stop offset="1" stop-color="#AC611E"/>
  </linearGradient>
  <polygon class="st14" points="166.219 26.843 162.539 25.099 160.602 21.322 161.28 17.157"/>
  <linearGradient id="SVGID_16_" gradientUnits="userSpaceOnUse" x1="-302.88" y1="24.518" x2="-298.376" y2="29.022" gradientTransform="matrix(-1 0 0 1 -138.5 0)">
    <stop offset="0" stop-color="#AC611E"/>
    <stop offset=".092" stop-color="#B16B21"/>
    <stop offset=".247" stop-color="#C08628"/>
    <stop offset=".447" stop-color="#D7B133"/>
    <stop offset=".476" stop-color="#DBB835"/>
    <stop offset=".492" stop-color="#D9B534"/>
    <stop offset=".721" stop-color="#C18728"/>
    <stop offset=".898" stop-color="#B26B21"/>
    <stop offset="1" stop-color="#AC611E"/>
    <stop offset="1" stop-color="#B16B21"/>
    <stop offset="1" stop-color="#C08527"/>
    <stop offset="1" stop-color="#D7AE32"/>
    <stop offset="1" stop-color="#F1DE3F"/>
  </linearGradient>
  <polygon class="st15" points="167.285 27.424 162.539 25.099 157.89 25.196 158.762 27.908"/>
  <linearGradient id="SVGID_17_" gradientUnits="userSpaceOnUse" x1="-301.233" y1="2.435" x2="-301.233" y2="7.375" gradientTransform="matrix(-1 0 0 1 -138.5 0)">
    <stop offset="0" stop-color="#AC611E"/>
    <stop offset=".017" stop-color="#B06820"/>
    <stop offset=".141" stop-color="#C7932B"/>
    <stop offset=".238" stop-color="#D6AE32"/>
    <stop offset=".295" stop-color="#DBB835"/>
    <stop offset=".557" stop-color="#BA7B25"/>
    <stop offset=".691" stop-color="#AC611E"/>
    <stop offset=".735" stop-color="#B16B21"/>
    <stop offset=".811" stop-color="#C08527"/>
    <stop offset=".906" stop-color="#D7AE32"/>
    <stop offset="1" stop-color="#F1DE3F"/>
  </linearGradient>
  <polygon class="st16" points="164.67 5.922 169.997 2.823 166.413 2.435 155.469 7.181 158.181 7.278 159.343 7.375"/>
  <linearGradient id="SVGID_18_" gradientUnits="userSpaceOnUse" x1="-316.397" y1="36.03" x2="-307.257" y2="49.082" gradientTransform="matrix(-1 0 0 1 -138.5 0)">
    <stop offset="0" stop-color="#AC611E"/>
    <stop offset=".067" stop-color="#AD641F"/>
    <stop offset=".11" stop-color="#B26C21"/>
    <stop offset=".147" stop-color="#BB7B25"/>
    <stop offset=".18" stop-color="#C6902B"/>
    <stop offset=".211" stop-color="#D5AC32"/>
    <stop offset=".24" stop-color="#E7CD3A"/>
    <stop offset=".252" stop-color="#F1DE3F"/>
    <stop offset=".263" stop-color="#EDD73D"/>
    <stop offset=".357" stop-color="#CA982C"/>
    <stop offset=".426" stop-color="#B47022"/>
    <stop offset=".462" stop-color="#AC611E"/>
    <stop offset=".49" stop-color="#AF661F"/>
    <stop offset=".525" stop-color="#B87624"/>
    <stop offset=".565" stop-color="#C6902A"/>
    <stop offset=".606" stop-color="#D9B334"/>
    <stop offset=".648" stop-color="#F1DE3F"/>
    <stop offset=".802" stop-color="#C18628"/>
    <stop offset=".876" stop-color="#AC611E"/>
    <stop offset=".906" stop-color="#AE641F"/>
    <stop offset=".928" stop-color="#B36D21"/>
    <stop offset=".947" stop-color="#BB7D25"/>
    <stop offset=".964" stop-color="#C8932B"/>
    <stop offset=".98" stop-color="#D8B033"/>
    <stop offset=".996" stop-color="#EBD33C"/>
    <stop offset="1" stop-color="#F1DE3F"/>
  </linearGradient>
  <path class="st17" d="M180.94 53.477s-.193 1.453-.484 2.034c-.29.582-.58 1.357-.58 1.357l-2.713-2.712s.484-1.55.194-3.487-5.327-10.847-6.973-12.978-5.133-7.264-5.133-7.264l4.92.194s11.352 14.818 11.352 16.465-.58 6.392-.58 6.392z"/>
  <linearGradient id="SVGID_19_" gradientUnits="userSpaceOnUse" x1="-297.26" y1="12.041" x2="-292.246" y2="26.604" gradientTransform="matrix(-1 0 0 1 -138.5 0)">
    <stop offset="0" stop-color="#FAE449"/>
    <stop offset=".006" stop-color="#F5DB46"/>
    <stop offset=".035" stop-color="#DEB63A"/>
    <stop offset=".065" stop-color="#CC9730"/>
    <stop offset=".096" stop-color="#BE7F28"/>
    <stop offset=".129" stop-color="#B46E22"/>
    <stop offset=".165" stop-color="#AE641F"/>
    <stop offset=".209" stop-color="#AC611E"/>
    <stop offset=".246" stop-color="#AE651F"/>
    <stop offset=".283" stop-color="#B57222"/>
    <stop offset=".322" stop-color="#C18728"/>
    <stop offset=".361" stop-color="#D1A430"/>
    <stop offset=".401" stop-color="#E6CA3A"/>
    <stop offset=".419" stop-color="#F1DE3F"/>
    <stop offset=".524" stop-color="#F1DE3F"/>
    <stop offset=".603" stop-color="#D6AE32"/>
    <stop offset=".682" stop-color="#BF8427"/>
    <stop offset=".744" stop-color="#B16B21"/>
    <stop offset=".781" stop-color="#AC611E"/>
    <stop offset=".808" stop-color="#B26B21"/>
    <stop offset=".854" stop-color="#C18728"/>
    <stop offset=".913" stop-color="#DAB434"/>
    <stop offset=".962" stop-color="#F1DE3F"/>
    <stop offset="1" stop-color="#A05321"/>
  </linearGradient>
  <polygon class="st18" points="156.631 12.314 160.118 12.508 155.566 27.23 152.369 25.293"/>
  <linearGradient id="SVGID_20_" gradientUnits="userSpaceOnUse" x1="-290.606" y1="24.983" x2="-287.533" y2="29.715" gradientTransform="matrix(-1 0 0 1 -138.5 0)">
    <stop offset="0" stop-color="#AC611E"/>
    <stop offset=".147" stop-color="#AE641F"/>
    <stop offset=".255" stop-color="#B36D21"/>
    <stop offset=".35" stop-color="#BC7D25"/>
    <stop offset=".438" stop-color="#C8942B"/>
    <stop offset=".521" stop-color="#D8B133"/>
    <stop offset=".6" stop-color="#EBD43C"/>
    <stop offset=".619" stop-color="#F1DE3F"/>
    <stop offset=".649" stop-color="#DEC43A"/>
    <stop offset=".711" stop-color="#BB9432"/>
    <stop offset=".773" stop-color="#9E6D2B"/>
    <stop offset=".833" stop-color="#884E25"/>
    <stop offset=".892" stop-color="#783921"/>
    <stop offset=".948" stop-color="#6E2B1F"/>
    <stop offset="1" stop-color="#6B271E"/>
  </linearGradient>
  <polygon class="st19" points="155.566 27.23 152.369 25.293 146.143 25.245 149.531 30.039 151.255 30.765 154.113 30.814"/>
  <linearGradient id="SVGID_21_" gradientUnits="userSpaceOnUse" x1="-238.173" y1="51.603" x2="-295.139" y2="40.53" gradientTransform="matrix(-1 0 0 1 -138.5 0)">
    <stop offset=".005" stop-color="#AC611E"/>
    <stop offset=".005" stop-color="#AC611E"/>
    <stop offset=".025" stop-color="#C38A29"/>
    <stop offset=".047" stop-color="#D7AE32"/>
    <stop offset=".068" stop-color="#E5C939"/>
    <stop offset=".086" stop-color="#EED83E"/>
    <stop offset=".101" stop-color="#F1DE3F"/>
    <stop offset=".206" stop-color="#AC611E"/>
    <stop offset=".301" stop-color="#AC611E"/>
    <stop offset=".368" stop-color="#AC611E"/>
    <stop offset=".455" stop-color="#F1DE3F"/>
    <stop offset=".462" stop-color="#E9D03B"/>
    <stop offset=".488" stop-color="#CFA12F"/>
    <stop offset=".511" stop-color="#BC7E26"/>
    <stop offset=".53" stop-color="#B06920"/>
    <stop offset=".543" stop-color="#AC611E"/>
    <stop offset=".638" stop-color="#F1DE3F"/>
    <stop offset=".648" stop-color="#E8CE3B"/>
    <stop offset=".673" stop-color="#D6AC32"/>
    <stop offset=".698" stop-color="#C8942B"/>
    <stop offset=".72" stop-color="#C08527"/>
    <stop offset=".738" stop-color="#BD8026"/>
    <stop offset=".805" stop-color="#F1DE3F"/>
    <stop offset=".81" stop-color="#ECD53D"/>
    <stop offset=".831" stop-color="#DAB634"/>
    <stop offset=".853" stop-color="#CC9C2E"/>
    <stop offset=".878" stop-color="#C18828"/>
    <stop offset=".906" stop-color="#B97A25"/>
    <stop offset=".941" stop-color="#B47123"/>
    <stop offset="1" stop-color="#B36F22"/>
    <stop offset="1" stop-color="#F1DE3F"/>
  </linearGradient>
  <path class="st20" d="M154.694 30.523l-3.777-.387s-2.324 7.36-4.65 10.944c-2.323 3.584-10.847 10.654-18.014 12.397-7.167 1.743-13.656 1.163-17.337.484-3.68-.676-10.916-2.226-10.916-2.226v1.55l5.782 4.746s15.4 1.26 21.89-.388c6.488-1.646 15.302-5.327 18.11-8.62 2.81-3.293 8.427-15.98 8.427-15.98l.484-2.52z"/>
  <linearGradient id="SVGID_25_" gradientUnits="userSpaceOnUse" x1="55.736" y1="-3.614" x2="54.186" y2="58.372">
    <stop offset="0" stop-color="#FFFFA2"/>
    <stop offset=".086" stop-color="#FEFC9F"/>
    <stop offset=".157" stop-color="#F9F195"/>
    <stop offset=".223" stop-color="#F2E084"/>
    <stop offset=".286" stop-color="#E8C86C"/>
    <stop offset=".346" stop-color="#DBA94D"/>
    <stop offset=".404" stop-color="#CB8328"/>
    <stop offset=".423" stop-color="#C5751A"/>
    <stop offset=".455" stop-color="#C76C1B"/>
    <stop offset=".554" stop-color="#CB541C"/>
    <stop offset=".66" stop-color="#CE421D"/>
    <stop offset=".774" stop-color="#D0381E"/>
    <stop offset=".913" stop-color="#D1351E"/>
    <stop offset="1" stop-color="#99291E"/>
  </linearGradient>
  <path class="st24" d="M53.412 41.368s1.116 1.746 2.714 2.908c1.598 1.162 3.777 1.743 3.777 1.743s-1.017-2.035-1.162-4.795c-.144-2.76 0-23.535 0-23.535s2.603 2.278 4.505 5.157c2.542 3.85 4.068 9.516 8.136 15.327 4.74 6.77 11.77 8.5 11.77 8.5s-.393-.902-.51-2.18c-.144-1.598-.217-32.034-.217-32.034s0-1.743.29-2.47c.292-.726 1.163-1.162 1.163-1.162h-7.12s.727 1.017.873 1.598.144 26.586.144 26.586-3.34-2.18-5.085-5.81c-1.744-3.633-2.76-7.99-5.23-11.188s-6.103-7.12-6.684-8.717c-.58-1.598-.508-2.615-.508-2.615H53.22s1.162 1.017 1.308 1.598c.145.58 0 29.928 0 29.928s-.095.307-.414.61c-.38.36-.702.55-.702.55z"/>
  <path class="st24" d="M116.417 45.874s-1.453-6.538-1.453-10.315 1.308-9.154 1.308-9.154-1.598.29-3.34.363c-1.744.072-8.21.174-8.863-.044-1.308-.436-1.526-.61-1.526-.61l-3.705 4.648 12.13.073s-.406 2.036-.508 3.27c-.145 1.742.58 4.357-.436 5.374-1.017 1.018-9.298 4.214-14.964.873-5.666-3.34-6.973-12.204-5.81-16.707s6.246-10.605 12.203-10.605c5.957 0 10.024 4.36 10.024 4.36l5.81-8.427s-3.487 2.18-6.247 1.743c-2.76-.436-5.666-2.76-11.187-2.18-5.52.582-16.562 5.812-15.98 20.34s13.216 17.624 16.27 17.58c4.94-.074 7.337-1.672 10.533-1.672s5.737 1.09 5.737 1.09z"/>
  <path class="st24" d="M118.887 8.973v37.192s1.89-2.034 3.05-2.76c1.163-.726 2.69-.944 2.69-.944s-1.09-.943-1.09-2.25v-24.7s2.033.146 3.922-.435 2.905-1.743 6.972-1.743 7.99 2.76 7.99 6.392-2.906 6.973-7.41 7.12c-4.503.144-9.006-.727-9.006-.727s2.542 3.487 3.56 5.375c1.016 1.89 1.96 4.14 4.14 6.828 1.714 2.115 3.922 3.487 5.23 4.794 1.016 1.017 1.888 3.05 1.888 3.05s2.034-.87 3.34-1.888c1.31-1.017 2.76-3.05 2.76-3.05s-4.458.236-8.353-3.27c-2.905-2.615-4.575-7.046-4.575-7.046s5.575.827 9.516-2.397c3.996-3.27 4.577-10.97 1.38-15.254-3.195-4.287-7.408-4.94-10.968-4.94s-6.974 2.486-10.388 2.323c-3.05-.145-4.647-1.67-4.647-1.67z"/>
  <path class="st24" d="M100 53.284s-12.058 5.52-25.28 3.34-21.646-9.878-26.295-20.193c-.822-1.822-1.607-3.74-2.343-5.665h2.49l3.05-3.923h-6.977C42.01 19.344 40.29 12.75 40.29 12.75l1.308-5.52s-3.196-.727-5.52-1.6c-2.86-1.07-6.248-2.905-6.248-2.905s1.453 2.18 2.18 3.487c.725 1.308.87 1.89.87 1.89s-3.89 11.334-8.86 18.74c-6.83 10.17-15.11 15.11-15.11 15.11s2.905 2.034 4.94 4.358c2.033 2.324 5.374 8.862 5.374 8.862s0-5.81 2.615-10.315c2.23-3.84 7.312-10.85 9.75-14.092h9.844c1.024 3.26 2.154 6.45 3.214 8.572 3.05 6.102 7.634 12.903 20.92 19.177 10.46 4.94 25.28 1.308 26.732 1.743 1.453.436 1.162 1.308 1.162 1.308l6.538-8.28zm-65.89-26.44c1.735-3.433 3.856-8.573 3.856-8.573s.952 3.925 2.29 8.573H34.11z"/>
  <path class="st24" d="M106.364 61.565s-.29-.872 1.162-1.308c1.453-.436 16.27 3.196 26.732-1.743 13.286-6.274 17.87-13.075 20.92-19.177 1.06-2.12 2.19-5.31 3.214-8.572h9.844c2.44 3.24 7.52 10.25 9.75 14.092 2.616 4.504 2.616 10.315 2.616 10.315s3.34-6.538 5.375-8.862c2.034-2.324 4.94-4.358 4.94-4.358s-8.28-4.94-15.11-15.11c-4.97-7.405-8.86-18.74-8.86-18.74s.144-.58.87-1.89c.727-1.307 2.18-3.486 2.18-3.486s-3.387 1.833-6.247 2.906c-2.324.872-5.52 1.598-5.52 1.598l1.307 5.52s-1.72 6.594-4.355 14.093h-6.977l3.05 3.923h2.49c-.736 1.924-1.522 3.843-2.344 5.666-4.648 10.315-13.074 18.015-26.295 20.194S100 53.284 100 53.284l6.364 8.28zm53.206-34.722c1.34-4.648 2.29-8.572 2.29-8.572s2.122 5.14 3.858 8.573h-6.148z"/>
</svg>
