<svg xmlns="http://www.w3.org/2000/svg" viewBox="0 0 200 180">
  <g>
    <path d="M171.448 142.346c.492-1.61 1.396-2.807 2.174-4.13-2.763-3.254-7.044-4.987-9.566-8.48-.906-.11-1.27-.76-2.174-.87-.265-1.257-1.365-1.678-1.087-3.48 4.173-.502 6.166 2.932 8.697 4.784 2.99.706 4.67 2.72 6.957 4.13 1.55-1.243 2.85-5.635-.22-6.087 0-.577.08-1.242-.22-1.522-2.38-1.22-4.19-4.03-7.39-4.13-1.13-.03-2.12.95-3.26 0-.42-.53-.21-1.82 0-2.39 6.58-3.64 15.05 3.62 17.17 8.26.58 1.27.27 2.88.21 4.57-.79 1.65-2.68 3.34-4.57 5.66-1.84 2.26-4.15 7.65-6.74 3.7z"/>
    <path d="M152.75 134.736c.663 2.084-1.115 3.385-.87 5 .14.913 3.116 4.188 3.914 5.002 1.61 1.642 3.65 2.85 4.783 4.13 1.484-.182 2.196-1.137 2.826-2.173-.443-1.514-1.535-2.378-2.392-3.48-.05-1.786.3-2.983 1.31-3.26 2.32-.638 3.22 2.61 4.35 3.914.76.87 2.77 1.64 2.83 2.82.11 2.15-5.54 5.34-7.39 7.17-1.45 1.44-2.94 5.11-5 5.21-1.69.08-2.5-1.2-2.61-2.39-.1-1.14 1.24-2.51 1.31-3.48.11-1.7-.69-2.47-2.17-3.48-.95-3.33-3.3-5.26-5.43-7.39-1.57.69-4.74 2.45-5-.44-.21-2.35 6.87-7.36 9.57-7.18z"/>
    <path d="M137.313 143.433c6.132-.566 11.748 6.902 12.175 13.045.15 2.146.124 5-.652 6.74-.948 2.126-5.395 4.114-8.045 3.696-1.32-.208-3.84-1.9-5-3.044-1.36-1.343-3.63-4.44-4.34-6.74-1.87-5.998.19-13.172 5.87-13.697zm7.61 10.87c-.483-1.512-3.533-5.372-4.566-5.87-3.376-1.626-4.88 1.014-5 3.697-.167 3.662 2.942 6.51 4.13 8.045 2.046.09 3.734 1.728 5.218 0 .54-1.806.772-4.135.218-5.87z"/>
    <path d="M124.268 153.217c-2.472-.225-4.32.174-5.218 1.522.32 1.41.682 2.79.87 4.34 1.265-.74.41-1.3.435-2.83.84-.68 1.42-1.63 3.26-1.31 1.523 1.64 5.056 11 1.306 11.74-2.18.43-2.66-1.43-3.26-3.05-.29 1.53.28 4.06 1.09 5.21 1.53.07 3.49-.3 4.13.65-.5 4.29-6.38 5.06-11.52 5.43-3.79-2.07.23-4.23 2.39-5.22-1.69-4.04-1.93-9.52-3.48-13.7-1.97-.45-2.35.69-3.69.87-2.68-3.29-.62-4.16 3.05-5.22 3.87-1.12 9.3-2.74 13.7-2.39 1.62 1.09 4.73 9.42.87 9.56-2.54.1-2.71-4.35-3.91-5.65z"/>
    <path d="M109.7 168.22c-.004.51.376.64.218 1.304-.257.25-.77.246-1.305.217-.25-.25-.246-.76-.217-1.3.257-.25.77-.24 1.305-.21z"/>
    <path d="M108.397 170.828h.652c.3.28.21.944.21 1.522h-1.09c0-.578-.09-1.242.21-1.522z"/>
    <path d="M97.743 153.87c.343 5.89 3.775 8.69 4.783 13.914.466-1.917-.117-4.664-.652-6.305 1.076-1.3-.373-2.85.652-4.35-.848-1.31-3.176-.99-3.26-2.61-.18-3.39 12.688-3.44 9.13 1.52-.488.38-1.634.1-2.173.43-.447 4.75-.025 9.09.217 13.69 1.183.92 1.237 2.96 3.26 3.04.1 1.18-.533 1.64-1.303 1.95-.625-.03-1.033-.27-.87-1.09-.968 2.04-3 2.77-6.088 2.17-.43-.37-.93-.67-1.09-1.31-1.38 2.66-10.1 1.93-11.96-.22-.13-2.38 2.38-2.11 3.91-2.83V157.1c-.81-1.22-2.63-1.43-3.48-2.61.66-3.74 6.8-2.1 8.91-.653zm-1.305 12.392c.145 1.885-1.224 5.082.652 5.653 2.124-2.017.23-6.612-.87-8.697-.557.766.152 2.187.218 3.044z"/>
    <path d="M88.61 153c-.988 3.286.818 9.368-4.13 8.696-1.615-1.47-.414-4.564 0-6.523-1.368-1.476-4.187-.404-6.088-1.522-1.003 1.18-1.14 3.21-1.522 5.01 3.174.38 1.882-2.87 4.566-2.61 3.952.39.01 6.34 0 9.14.505-.24 1.95-2.27 3.696-1.3 1.368 2.56.176 9.87-2.174 10.44-1.74.42-4.914-1.17-7.61-1.95-3.78-1.1-6.9-1.92-8.914-3.7.003-1.16-.136-2.45.435-3.04 1.43-.27 1.74.58 3.04.44 2.3-1.39 1.08-6.31 3.04-8.04-.3-2.4.82-3.38 1.3-5-1.44-.97-4.47-2.52-2.39-5 2.33-1.02 4.32.73 6.3 1.31 3.76 1.09 8 1.05 10.43 3.7zm-13.912 14.13c1.98.483 3.79 1.14 5.87 1.522.415-.463 1.034-1.854.435-2.61-.396 1.224-2.053 1.61-3.26.87-.328-1.556-.403-3.365-1.74-3.912-.276 1.535-1.386 2.238-1.305 4.13z"/>
    <path d="M62.956 143.433c.798-.144 1.653-.23 2.392-.435 2.238 1.168 3.872 2.94 5.87 4.348.178 1.7-.414 2.63-1.522 3.044-1.17.083-1.05-1.123-2.174-1.087-2.334 1.562-4.156 4.1-6.523 6.74-2.13 2.37-4.87 6.658-8.92 6.088-1.88-2.94.42-6.99 1.3-11.08.68-3.17 1.55-6.05 2.61-8.26-.95-1.07-3.69-3.88-.87-4.78 2.94-.93 6.9 3.88 7.82 5.44zm-5.653 9.784c1.09-.146 2.083-2.263 2.61-3.696 1.44-.58 2.926-1.13 3.26-2.82-.882-1-2.496-1.27-3.48-2.17-.833 2.86-1.587 5.81-2.39 8.7z"/>
    <path d="M53.39 137.78c-1.658 2.337-2.28 6.844-6.306 6.088-1.38-2.52.956-4.752 2.174-6.088-1.244-2.09-4.186-2.48-5.435-4.566-1.365.954-2.097 2.54-3.26 3.696 1.27 2.066 3.01-.407 4.782-.435 3.665 2.486-3.64 9.727-5.436 9.784-2.49.07-2.75-3.06-1.31-5.22-1.54-.55-2.49 1.24-3.48 1.95.5.96 3.17 4.54 4.56 4.56 1.95.03 2.32-4.15 5.22-2.61 2.53 1.97.22 3.88-1.09 5.43-1.2 1.42-2.23 4.3-5 3.26-.88-.33-2.58-3.09-3.7-4.13-1.72-1.6-3.84-3.89-5-4.79-1.83-1.41-5.67-3.6-2.4-6.09 1.47-.2 1.84 1.28 3.04 1.3 1.63.03 2.27-1.67 3.69-3.26.67-.75 1.95-1.24 2.61-1.96 1.01-1.1 2.19-3.28 3.26-4.13-.62-1.14-1.94-2.43-1.09-4.35 2.43-.91 4.88 1.97 6.74 3.7 2.93 2.72 5.28 4.79 7.39 7.82z"/>
    <path d="M33.822 128.43c-1.558-1.592.338-3.16 1.087-4.347.07-2.22-2-5.94-4.57-5.436-2.25.443-.96 4.108-.65 5 .69 2 1.85 3.438 1.95 5.002.31 4.82-5.15 8.45-9.57 6.95-3.03-1.03-3.98-4.16-5-7.39-.4-.62-1.71-.33-1.96-1.09-.43-1.07-.26-2.86.21-3.7 1.15-.83 2.1-.62 3.26-1.31 1.31-.78 1.2-2.14 2.82-1.96 3.65.4-.12 5.83-.22 6.74-.56 5.06 6.53 5.74 6.52 1.52-.01-1.43-1.89-2.34-2.61-4.13-2.22-5.51 1.3-12.1 7.82-10 2.26.72 5.14 4.4 5.43 8.04 3.14 2.65-1.32 6.59-4.57 6.08z"/>
  </g>
  <g>
    <path d="M170.36 31.462c.1.68-.464.695-1.086.652v-.652c.285-.28.8-.28 1.087 0z"/>
    <path d="M169.49 27.983c.682 2.212-1.38 3.344-2.825 4.13.035.688.008 1.313-.435 1.523-2.805 2.34-3.995 6.296-6.74 8.697.722 1.452 2.468 1.88 4.783 1.74.863.072.682-1.017 1.522-1.523.278-.167 1.003 0 1.305-.217.772-.555 1.94-1.994 2.826-3.044.945-1.12 2.115-2.63 2.174-3.48.077-1.11-1.093-1.64-.652-2.83.88-2.04 3.235-.16 3.48 1.08-.047 4.81-2.412 8.75-5.22 11.3-2.018 1.83-6.304 4.28-9.13 3.69-1.63-.34-4.027-3.17-5.436-4.57-.924-.92-4.543-3.62-4.566-5.22-.05-3.33 4.516-1.42 5.435.21 2.62-1.27 4.33-5.58 6.96-8.05.69-.65 1.6-.75 2.18-1.31 1.1-1.06 1.49-3.39 4.35-2.18z"/>
    <path d="M153.402 21.243c-.916-1.983-4.058-1.74-5.87-2.826-.632 1.35-2.062 2.975-1.522 4.783 1.79-.73 5.22-4.065 5.436 0 .103 1.947-3.725 6.784-4.566 8.262-1.31.076-2.492.027-3.044-.652.104-1.258.46-2.57-.217-3.48-.9.993-1.65 2.123-2.18 3.48 1.75.854 3.62 1.595 5.43 2.392 1.22-1.437 1.61-4.77 4.13-4.348 3.12.522.51 6.368-.65 8.262-1.91 3.104-3.32 1.71-6.31.217-1.87-.932-3.93-1.497-6.31-2.61-2.27-1.062-6.66-2.848-4.35-5.87 1.09-.44 2.76-.158 3.91 0 2.86-3.296 4.27-8.05 6.52-11.957-3.39-1.367-2.63-5.568 2.17-3.914.92.317 2.12 1.498 4.13 2.392 2.95 1.312 7 2.722 7.39 4.566.25 1.17-.91 4.47-1.52 5.653-.69 1.337-3.92 3.15-4.35.217-.16-1.046 1.2-2.72 1.73-4.567z"/>
    <path d="M136.01 9.72c-.08 2.103-1.835 4.026-1.74 6.523-2.282 1.033-3.69-2.466-2.174-3.913-5.017-6.863-11.38 3.373-9.35 10.87.998 1.45 5.163 1.934 5.654-.216-.78-.714-1.88-1.87-1.087-3.48 3.255-.972 8.65-.642 8.697 3.48-.47.67-2.407 1.008-3.044.217-1.858 1.63-.69 6.27-3.696 6.74-2.298-1.51-5.504.09-7.827-1.52-1.936-1.33-4.04-5.08-3.696-8.69.77-8.07 7.975-18.58 16.09-10.43.897-.03 1.677.06 2.172.44z"/>
    <path d="M113.615 19.504c.125.455.54.62.435 1.305-.364.28-.73.57-1.522.43-.553-.77-.193-2.12 1.087-1.74z"/>
    <path d="M112.31 21.896h1.087c.195.637.195.668 0 1.305h-1.087c-.195-.63-.195-.66 0-1.3z"/>
    <path d="M106.44 17.765c.355-2.817-.18-6.225 0-8.697-.687-1.124-2.686-.938-3.26-2.174.33-3.746 7.437-2.83 9.783-1.522.3 2.184-1.04 2.727-2.61 3.044-1.067 4.264.317 8.546 0 12.828.26 1.19 1.65 1.25 1.523 2.826.29.367 1.454-.363 1.957.217-.08 1.006-1 1.173-1.74 1.522-.808.22-.425-.74-.87-.87-.99.72-1.278 1.95-2.825 2.17-1.39.2-2.845-.51-3.914-1.09-2.834 1.43-9.115 1.42-11.74-.22-.068-.8.034-1.42.216-1.96.912-.47 2.233-.52 3.044-1.09.13-4.73.536-9.18.435-14.14-.85-1.27-2.71-.78-2.83-2.39-.21-2.9 6.03-2.75 7.61-.87 1.08 4.79 3.77 7.96 5.21 12.39zm-5.87 4.783h.87c2.006-1.69.447-5.244-.87-7.61-.27 2.14-.422 5.496 0 7.61z"/>
    <path d="M83.828 5.59c.03 2.958 3.193 4.197 2.826 6.956-.186 1.396-1.216 1.968-2.174 1.957-2.582-.03-2.088-4.482-3.696-5.435-1.642 1.04-4.333 1.03-5.87 2.174.893 1.137 1.137 2.922 1.74 4.348 2.036.08.853-3.06 1.956-3.914 4.885-.826 2.99 5.13 4.783 7.392.877-.355.76-1.706 1.305-2.392 2.965-.342 3.614 2.535 4.348 5.218.728 2.66 1.206 4.555-1.522 5.436-2.515.812-7.157 1.14-10.22 1.957-1.276.34-3.07.95-4.782.217-.798-.36-1.087-1.232-1.087-2.392.784-1.028 2.46-1.164 3.26-2.174-1.445-4.134-2.25-8.908-3.695-13.045-1.29.057-2.444-.02-3.26-.435-.28-.997-.39-1.318-.218-2.392 4.592-1.873 10.512-3.523 16.306-3.477zm-5.435 18.26c2.01.41 3.985-.887 6.088-1.087.05-1.133-.11-2.063-.87-2.392.24 1.9-1.19 2.14-3.04 1.96-.99-.74-1.29-2.18-2.61-2.61-.41 1.76.61 2.5.44 4.13z"/>
    <path d="M61 11.025c.37.787.966 1.352 1.086 2.392-.488.745-1.637.827-2.392 1.305.552 7.137 3.75 12.765 3.26 20.22-2.44 1.614-4.206-1.395-5.652-3.044-3.146-3.587-6.605-8.3-9.132-11.523-1.333.16-2.695.412-3.696-.217-.893-4.388 5.43-5.644 8.262-5 .66-.356.455-1.575.87-2.175 2.39-.73 4.613-1.622 7.393-1.958zm-4.784 10.218c-.242-1.04.677-.917.435-1.957-.75-3.155-2.3-2.353-4.78-1.305 1.28 3.22 3.76 5.23 5.87 7.61.01-1.96-.94-2.97-1.52-4.34z"/>
    <path d="M52.737 34.94c1.65 4.16-9.806 10.228-6.523 2.827-.343-.527-.778-.96-1.305-1.304-1.68.422-2.59 1.615-3.7 2.61.16 1.792 2.98.934 3.91 1.956-.11 2.32-3.07 6.95-6.53 6.08-3.24-.82-.2-3.28 0-4.79.22-1.75-1.54-4.81-2.39-7.18-1.01-2.83-1.91-5.42-2.61-6.96-.73-1.61-2.62-5.11 1.09-5 .39.01 1.2.42 1.74.87 2.08 1.75 4.3 4.36 6.52 6.3 2.24 1.96 4.28 2.92 6.3 4.56 1.46.15 2.43-.99 3.48 0zm-12.61-.87c.28-.444 1.22-.228 1.304-.87-.82-.27-1.68-1.64-2.39-1.304.61.485.24 1.936 1.09 2.175z"/>
  </g>
  <g>
    <path d="M36.866 88.643c-.552-.814-.117 1.166-.87.87-.17-1.4.323-2.14.217-3.48-.48.608-.532 1.643-.652 2.61-2.25-1.913-5.48-4.284-9.78-3.696-.99.135-1.62.908-2.61.652-2.03-2.32-3.78-4.92-7.39-5.66-4.52-.24-7.3 2.34-10.65 3.91 1.05-3.52 4.82-4.32 6.31-7.4 1.43-.31 2.05-1.59 3.26-1.52.3-.07.18-.55.22-.87 2.24.66 2.31-2.4 4.35-1.96 1.14-2.61 4.13-1.76 6.52-.87-.63-.67-1.48-1.13-1.74-2.18 1.03-.73 2.52.24 3.05-1.09.7.32.38 1.65 1.74 1.3-.12.53-.18 1.12-.87 1.08.86.72 1.14 1.97 2.83 1.31-.29.8-1.1 1.07-1.96 1.3-.39 1.88-2.2 3.96-3.26 5.87 5.11-7.65 14.6-12.8 26.31-14.57.34-.6.75-1.14.65-2.18-4.21-.41-8.06-1.02-12.39 0C23.5 66 9.06 73.74 2.32 87.09c-.54-.694.716-1.45.436-2.61 1.38-2.32 3.178-4.22 4.35-6.74 8.466-9.53 22.62-16.593 38.7-17.61 3.707-.234 8.096.156 10.656 1.74-.43 1.24-2.746 1.21-2.825 2.825-.055 1.156 4.105 5.59 5.438 6.74 2.086 1.796 4.865 4.023 7.178 5.437 1.72 1.05 4.19 1.667 5.44 3.043-1.507.824-3.978-1.078-5.22-1.96-5.874-2.68-9.796-7.31-14.133-11.524-.93 6.68-.964 14.57-.653 22.83.768-.46.31-2.15.436-3.26 1.03.04-.08.86.22 1.53.87.14.622-.82.65-1.52-.16-.8-.66.1-1.09-.43.04-1.62.285-3.05.435-4.56 1.024-.23-.44.82.652.65.73-.54-.477-.96-.655-1.3.414-2.5 3.297-3.64 5.653-3.48.036.47-.77.1-1.088.22-.05.92 1.36.38 1.31 1.3-1.19.16-.43.91-1.31 1.3.85.32 1.567.76 2.395 1.09-.023.41-.72.15-.65.65.477.69 1.45.33 2.393.22.446.21.183 1.12.87 1.09-.07.8-.25 1.49-.653 1.96 1.032-.1.24.27.652.65.92.2 1.092-.35 1.302-.87.61.33.75 1.13.87 1.96.25.54.82-.44 1.08.22 1.04.08-.46.65-.44 1.09 1.04-.09.92-.09 1.96 0 .42 1.21.31 1.6.43 3.05-1.08.21-1.16-.58-1.96-.65-3.57.87-7.61 2.63-9.78 5-1.06 1.16-1.41 3.02-3.05 3.7v-1.3c-.58-.06-.17.85-.87.65-1.55-9.63-2.22-21.07-1.09-31.52-.78.15-1.6.42-2.18.87-4.1 3.2-8.99 11.91-10.87 18.48.18.38.61-.81 1.52-.43-.09-.42-.85-.17-.65-.87 1.14-2.6 1.45-4.72 4.13-5.65.1-.69-.67-.49-.44-1.31.53-.83 2.23-.7 1.96-1.74.84-.19.35.95 1.3.65.89-.17-.11-.89.43-1.3.69-.04 1.6-.51 2.17 0-.34.39-1.28.18-1.31.87.6.8 1.06-.36 1.74-.22 1.63 6.7 1.57 13.13 2.39 21.31-2.66-4.37-6.44-11.95-13.7-8.26-.14-.19-.27-.39-.01-.43zM17.08 73.64c.733-.137 2.02.28 2.393-.216-.732.17-2.176-.84-2.392.217zm24.35-5.434c-5.284 2.205-9.772 5.19-12.827 8.697-.417 2.28-3.78 3.882-3.26 5.653.607-1.204 1.277-2.346 2.825-2.61.05-.823 1.195-2.425 2.826-2.39.406-.388-.177-.554 0-1.306 1.018-.432 1.672-1.227 2.826-1.522-.263 1.205 1.447.437 2.174.652-.365-1.035-1.654-.057-1.957-.87 1.665-.99 4.238-1.39 5 .652-.244.407-.256 1.047-1.086.87 1.05 1.775-1.08 3.536-.87 5.87 2.58-6.264 5.88-11.803 10.88-15.654-2.31-.44-4.09.943-6.52 1.958zM24.04 82.338c-.01-.606 1.007-1.292.435-1.74-.07.525-1.145 1.156-.435 1.74zm12.61 2.392c-.174-1.052 1.114-1.774.435-2.61-.478.4-1.038 1.85-.435 2.61zm15.437 11.305c-.05-2.125.21-4.72-.435-6.305.01 2.704-.06 4.348.435 6.305z"/>
    <path d="M101.004 83.425c-.664-.157-.792.222-1.305.217.46.4 1.5.234 1.95.652.09.778.58 1.16.43 2.174 2.08 1.278-.98 2.777-.65 4.348-.48.037-.1-.77-.22-1.087-.96-.02-.61 1.28-1.52 1.3-.94.06-.85-.89-1.53-1.09-1.1.37-.25 1.02-.22 1.95-.42.81-1.31 1.15-1.52 2.17-.28.86.63.52.65 1.08-.88 1.01-1.57 2.2-2.17 3.48-.12-4.61 3.39-8.64 3.04-13.48-.1-.76 1.18-.13 1.3-.66.13-.86-1.2-.26-1.74-.44-.19-.46-.66-.65-.65-1.31-2.58-.32-3.34-2.46-5.44-3.26.16 1.85 3.56 2 4.56 4.13-1.31.8-2.28-.61-3.05-1.09-2.18.14-3.22-.84-3.92-2.18-.97 1.29-4.59 2.27-5.87.65.58-.86 1.29-1.61 1.3-3.05-.03-.48-.55-.47-1.09-.44 1.63-4.02-2.57-6.53-1.31-10 .91.6 1.01 2.03 2.17 2.39 1 3.42 1.59 7.25 4.35 8.91.01-2.27-1.2-3.79-.87-5.22 1.62 1.34 3.53 2.41 5 3.91-.42-1.68-1.92-2.28-1.53-4.78-.78.02-.79.8-1.74.65.14-1.35-.91-2.05-1.09-3.48-.2-1.54-.07-4.4.22-5.65.82-3.57 4.77-4.74 7.17-6.52.7-.05.92.38 1.74.21-.84-1.2 1.86-.49 1.95-1.96 2.12.28 4.09.05 6.96.21-1.43-1.11-4.56-.52-4.57-3.04.85.02 1.35.38 1.96.65.63-.19-.29-.55 0-1.09 5.54-.92 10.97 1.47 14.56 4.56 4.54 3.9 7.89 8.64 7.83 14.78-.03 2.07-.16 4.66-1.74 6.3-.15-1.72.98-3.44.65-5.22-1.19 1.2-1.38 3.4-2.4 4.78-1.07.09-.83.22-1.74 0-.22-2.32-1.48-3.6-1.31-6.31-2.37 1.9 1.66 5.28-1.08 6.96 1.43 2.76-.44 4.01-1.52 5.87-1.42-1.49-4.39-1.42-6.09-2.61-2.42.33-3.73 1.78-6.31 1.95-.46.482.18 1-.44 1.52-1.9.79-2.3-1.15-3.26-1.96zm7.175-29.35c-.33-.266-1.88-.428-2.18 0 .33.264 1.87.425 2.17 0zm1.08 3.042c0-.595-1.46-.847-1.74-.435.5.228 1.31.14 1.74.435zm4.13.218c.73.72 1.01.914 2.39.652-.32-1.016-1.46-1.28-2.4-.652zm4.13 2.61c-.12-.895-.81-1.22-1.96-1.088-.02 1.033 1.48.55 1.95 1.087zm4.78 4.347c-.39 0-1.27-.585-1.52 0 .39.22 1.33.832 1.52 0zM111 77.99c1.258-.264 2.35-.693 3.26-1.305-.48-1.14.438-1.205.218-2.61-.855 1.467-3.254 2.543-3.478 3.915zm-14.78 1.956c1.567-.04 2.11 2.09 3.697 1.305-1.665-.8-2.85-2.07-4.13-3.26-.22-.79-.292-1.73-1.306-1.74-.68 1.56 2.49 2.08 1.74 3.7zm10.22-1.087c-.162-.67.597-.42.435-1.09-.98-.11-.74 1-1.74.87-.166.48 1.005.69.218 1.08-.922-.7-3.044.17-3.48 1.3 1.654.28 2.232-1.2 3.697-.44.498-1.03 1.712-1.34 2.61-1.96-.77-.25-1.238.91-1.74.21z"/>
    <path d="M173.622 79.73c.912-2.747-2.962-3.443-3.48-6.09-.108-.773 1.36-1.088.87-1.52.86-.228 1.826-.35 1.958-1.306.78.568 1.69-.35 2.392.217.186.7-.19.83-.435 1.09.976.11 1.63-.11 2.392-.21.85 1.31 4.9 1.3 4.78 3.48 2.84-.02 3.82 1.84 4.56 3.92h-1.09c.14.79 1.04-.06 1.95.22 1.75 1.94 4.56 2.84 5.65 5.44-1.89-.03-3.38-1.97-5.22-2.39-4.75-1.07-7.92.42-10.66 3.05-.13-.6-.54-.91-.65-1.52-1.22 1.03 1.12 1.81.65 3.48-2.89-3.95-4.47-8.72-8.05-11.96-1.58-1.42-3.61-2.01-4.79-3.91-4.37-1.65-7.01-5.02-12.39-5.65 4.82 5.42 8.79 11.46 10.87 19.79.48-.09.09-1.07.22-1.52.84-.14.77 0 1.3-.22-.09-.48-1.07-.09-1.52-.21-.32-.82-.32-2.44 0-3.26-4.15-3 4.48-7.27 5.22-2.83-.66.07-1.69-.24-1.74.43 1.12-.07 2.34.21 3.26-.21.15.79.87 1.01 1.09 1.74-.2 1.32-1.87 1.18-2.61 1.95 1.29.06 3.53-.22 5.65.44.52 1.86 2.14 3.44 1.74 5-4.66-2.57-8.65 1.16-11.96 2.61.12-.84-.39-1.06-.22-1.95-.83-.32-.05.97-.87.65-1.12-6.13-4.22-10.28-6.31-15.44-2.09-2.19-3.29-5.26-6.53-6.3-1.19 7.45.34 18.9-1.52 27.18 1.35-.47-.02-3.1 1.52-2.61-.12-3.82.22-8.24 2.17-11.3.74-.1 1.22.09 1.74.22-.58-1.49-1.65-.68-2.4 0-.22-1.31.64-1.54.65-2.61 1.55-.27 3.5-2 4.35 0-.61.84-1.81 1.08-3.04 1.3 1.03.73 2.21-.24 3.04-.43.23.78 1.77.25 1.74 1.3-.35 1.03-1.47 1.29-2.4 1.74.6.72 1.16-.42 1.96-.22.91 1.09 1.4 1.35 2.61 1.96.1.68-.55.78-.87.44-.23.83.87.67.21 1.31-.78.34-.13-.74-.66-.65-.66.27.15.83.22 1.09.69-.03 1.66.22 1.52-.65 1.34 1.59.28 2.71 1.08 4.57-7.28-1.43-10.66 4.27-13.48 8.7-.45-.06-.06-.96-.44-1.09-.62.4-.28 1.75-1.09 1.96-.15-1.09.37-1.51.22-2.61-.71.65-.62 1.52-.44 2.61-4.1-2.6-7.32-9.03-14.35-8.69.58-.98.35-1.47.65-2.61.7-.27.16.707.87.438.85-.69-1.45-.85-.66-1.52 1.52-.25 2.03-.6 3.26-.87-.13-.812-1.49-.39-1.3-1.52 1.61.01 1.52-1.67 2.82-1.96-.14-.51-1.34.04-1.52-.43.2-.9 1.14-.99 1.74-.432v-.87c1.22-.26 2.07.71 2.82.22-.64-.592-1.68-.79-2.61-1.09 1.02-.75 2.83-1.76 4.13-1.52.34-.29-.81-.92-.66-1.73 1.375-1.062 3.934-.192 4.57.87-.06 2.777 1.67 7.69.22 11.306 1.324 1.21.36 4.33.432 6.304 1.33-9.12 2.15-19.55.44-27.83-3.71 3.81-8.22 7.9-13.48 10.87-1.96 1.11-3.64 2.44-5.658 1.74 5.394-2.99 14.3-8.39 18.05-13.05 1.9-2.36-1.836-3.5-3.48-3.91 1.37-1.266 3.883-1.58 6.522-1.74 15.72-.95 30.37 7.83 39.135 15 3.654 4.18 8.094 7.56 9.35 14.13-4.23-8.31-12.28-15.99-21.96-20.65-8.104-3.9-17.76-8.56-28.48-6.52.207.45.44.86.65 1.31 8.08 1.41 14.557 4.43 19.35 9.13 3.018 1.26 4.708 3.85 6.31 6.52zm-.435-5.436c.283-.514 1.175-.42 1.74-.652-.004-.576.12-1.28-.436-1.305-.52.42-1.98 1.047-1.3 1.957zm3.696-.218c.573.065.714-.3.652-.87-.585.015-1.044.497-.652.87zm-.87 9.132c-.323-.913-.73-2.885-1.738-2.392.8.436 1.07 2.546 1.74 2.392z"/>
    <path d="M90.786 107.124c1.82-.788 2.308-2.91 3.696-4.13.672.434.17 2.35 0 3.26.865-.077.773-1.112 1.087-1.74.78.155.3 1.586.43 2.393.51-.572.71-1.46.87-2.392.31.02.61.036.65-.217 1.96.65.78 2.126.65 3.914.98-1.034 1.13-3.61.87-5.218-.52-1.37-3.29-.48-4.13-1.522-.03-.536-.04-1.048.21-1.304 1.33-.17 1.47.844 2.39 1.087.81-.744 1.48-2.67 2.61-2.392.18.743-.03 1.012.21 1.957 5.66 1.606 2.02-4.986 2.17-8.697.38-.195.27-.882 1.08-.652-.92-1.01-1.13.42-1.74.87-.38-.05-.49-.37-.43-.87.47-.68 1.48-.83 1.52-1.95 1.22.01.95.53 2.17.22-.01.52.37.64.22 1.31 1.79.4 2.8.44 4.34-.21.88.28 1.3 1.02 1.74 1.74.38-.2.39-.76.65-1.09 1.96.22 2.88-.59 3.91-1.3.52-2.66 1.87-4.5 2.39-7.17.47-.18.74-.56 1.52-.43.7 1.13-.79 1.64-1.09 2.39-1.4 3.6-.74 7.85-5.22 8.27-.52.05-1.13-.32-1.74-.22-.72.13-1.58 1.02-2.39 1.09-1.74.15-3.33-.97-5-1.74-.49.1-.09 1.07-.22 1.52.89.09.88-.72 1.96-.43.11.91-.38 1.22-.44 1.96 1.12.1.98-1.04 2.18-.87.67 1.26-.91 1.94-.44 3.7 1.25.36 1.9-.71 2.61-.21-1.84 1.33-2.16 3.61-2.4 6.09-.06.78.86.59.87 1.31.52-.92-.13-3.03 1.31-3.04 1.55.69.88 3.62 1.3 5.44-.88.65-2.97.07-3.04 1.52H106c-.69.76-.6 2.3-1.52 2.83-1.02-.34-.1-2.19 0-2.83-1.52.29.237 3.86-2.173 3.27-.47-.99-.29-2.98.433-3.48-.432-.48-1.57.41-1.956-.44-.058 1.36.742 1.87 1.087 2.83-.29 1.15-2.55 1.94-2.82.22-1.42 1.62-3.42.71-5.65.65-.59-1.13.02-2.26.66-2.82-.3-.56-1.33-.05-1.74 0 .25 1.33-.58 1.59-.65 2.61-1.75-.35-.33-1.85 0-2.61-1.28-.16-1.63-.9-2.61-.87.01-.51-.37-.64-.21-1.3-.28-.61-.45.68-1.09.43.74-1.67 1.93-3.26.44-5-1.57-1.47-5.72-.36-5.65-3.48.73-.07.97-.63 1.96-.43-.36-.51-.97-.76-1.09-1.52 1.31-2.03 6.21-.62 4.57 1.96.22.36.93.23 1.31.43 1.04 2.21 1.99 5.63-.43 6.96 1.53-.28 1.99-1.64 2.39-3.04 1.46.5.33 3.13-.43 3.48zm11.088-4.35c.66.01 1.43.128 1.304-.65-.483.168-1.178.125-1.304.65zm-1.305 1.523c.69.046.52-.775.87-1.087-.62.04-.93.378-.87 1.087zm1.08 3.48c.51.004.64-.376 1.3-.218-.04-.26.03-.62-.22-.66-.16.49-1.24.06-1.09.87zm-3.7 1.52c.27.74.65 1.38 1.08 1.958-.29-1.14.6-2.842.21-3.044-.36.44-.59 1.01-1.31 1.09zm-2.83.436c.03.615-.19 1.49.43 1.522 0-.934 1.15-.73.87-1.957-.69-.105-.5.667-1.31.435z"/>
    <path d="M86.22 122.778c.1 1.205 1.622.987 1.74 2.174-2.88-.818-3.813-4.492-7.176-4.13.24-.702 1.196-.69 2.174-.653.374.78 1.132 1.18 1.74 1.73-.044-.78-1.464-2.66-1.305-3.7.22-.36.923-.24 1.304-.44.364 1.37 1.302 2.17 2.174 3.04.14-.08.13-1.86-.43-1.96-.01-.67.46-.85.65-1.31.57-.12.74 1.26 1.31.43.08.68.34 1.99 1.31 2.39.52-.47-.6-1.27 0-1.96 2.62.37 3.96.99 6.96 1.08-.22-.43-.96-.34-.87-1.09-.89-.18-.41 1.04-1.3.87-.79-.4-1.44-1.5-.87-2.61.26.03.39-.05.44-.22.91.76 2.79.54 4.13.87-.03.97-.37 1.65-.87 2.17.76.02 1.51-.27 2.4.43.4-.73-1.38-.86-1.09-2.18.68-.62 1.52-.69 2.4-.22v1.31c1.36.68 3.95.24 5.44-.22-.54-.26-.8-.79-.65-1.74.26-.25.77-.25 1.31-.22.39.36-.19.73 0 1.52 1.4-.21 2.64-2.44 5.01-2.4.3.28.22.94.22 1.52 2.17-1.97 2.16-6.11 3.48-8.92 1.03.67.05 2.51.21 3.69 2.1-1.97.14-7.99 3.48-8.7.22 2.91-1.5 5.74-1.74 8.91.98.7 1.29 4.54-1.3 4.35-.25-.26-.24-.77-.21-1.31-.67.85-.83 2.21-1.3 3.26.05-.24 2.27-.19 2.17-1.31 1.26.28 1.7 2.24.65 3.04-1.55-.25-1.94.67-3.26.65.24-.49.5-.95.65-1.53-.66-.16-.64.37-1.3.21-.11-.94-.06-1.22-.21-1.74-.79 1.095-1.47 2.3-2.61 3.05-2.84-.3-4.84 1.91-7.39 2.602 1.56 1.11 3.26-1.17 5.22-1.08.04 1.13-1.34.84-1.52 1.74-.19.7.56.45.65.87-2.16 2.21-5.42 4.98-9.57 3.26-.11-1.05.78-1.1 1.74-1.09-.99-1.83-3.03 1.12-4.57.87-1.43-.23-2.03-2.06-.66-3.48 1.01-.06 1.18.72 1.53 1.31 1.04-1.79 2.41-2.86 5.44-2.17-.94-.57-2.37-.67-3.26-1.3-.13-.81.35-2.24-.43-2.39-.94.31-.01 1.29.22 1.74-.53.773-1.11 1.495-2.61 1.304-.51-1.18.38-1.97-.43-3.043-.19.165-.49.23-.87.213.62.67 1.11 2.71 0 3.26-1.313-.5-1.23-2.39-1.52-3.91-1.27-.11-1.56.76-2.61.87.657.5 1.85.46 2.17 1.3-.85 1.47-2.29.41-3.69.21-.89.31-.35.7-.43 1.74-1.19.11-1.4-.77-2.17-1.09z"/>
    <path d="M79.48 68.423c.468.184.77.536.652 1.305 2.095 1.105 2.998 5.463.87 7.175-1.974.175-2.94 2.11-3.044 3.48-.28-.518-.974-.62-1.522-.87-.59-3.227-.11-6.798.87-10.002 1.317.23 1.48-.69 2.174-1.08z"/>
    <path d="M93.83 53.204c-2.642 2.215-6.987 2.725-10.002 4.566 2.687-2.17 5.748-3.964 10-4.566z"/>
    <path d="M118.833 86.904c.812-.232.62.54 1.305.435-.01 1.22-.032 2.43-.87 2.82-.563 3.1 2.57 2.5 3.48 4.13.548-.32.97-.77 1.738-.87.51.93-.842.95-.435 2.39-2.7.08-6.46 6.4-8.91 1.52-.29.06-.18.54-.21.87-1.18-.85-2.48-1.57-3.04-3.05 1.68-.42 2.84-2.29 4.79-1.74v1.09c.48-.25.89-.56 1.74-.44.13.69-.4.67 0 1.08h.87c.33-.18.32-.7.44-1.09-.09-.49-1.15-.01-1.3-.44-.15-1.34-.64-2.09-.21-3.48h.87c-1.04-.59-.54-2.23-.21-3.26z"/>
    <path d="M80.567 80.816c3.448 1.695-.582 8.072 3.044 10.22 1.73-.055 3.44-.105 4.35.65 1.23.218 1.38-.65 2.61-.434.69 1.317-1.91 2.417-3.04 1.305-2.33.737-4.14-.535-5.65-1.305-1.73-2.674-.98-7.78-1.3-10.436z"/>
    <path d="M93.395 56.465c-.27.6-.685 1.055-1.522 1.087-.024-.862.75-1.7 1.522-1.087z"/>
    <path d="M67.74 87.12c.704 1.122.46 3.608 0 5.002-.76-.813-.635-4.166 0-5z"/>
    <path d="M96.004 87.774c1.06 1.377-1.63 2.502-2.392 3.48.04.612 1.033.27.87 1.086-.773 1.4-2.49 1.86-4.783 1.74.52-1.07 2.18-1.01 3.04-1.74-.09-.488-1.16-.006-1.31-.435.32-2.573 3.77-2.027 4.56-4.13z"/>
    <path d="M79.262 93.21c1.59 3.832-3.772 3.925-2.826.65.975-.183 1.763-.555 2.826-.65z"/>
    <path d="M84.263 94.08v1.303c-1.307.505-3.167.457-3.696 1.74-.49-.163-.085-1.22-.217-1.74 1.26-.372 2.288-2.01 3.913-1.304z"/>
    <path d="M82.09 104.297h.65c-.03 2.316-.266 3.078-.434 5.218-.836-1.53-.64-3.842-.217-5.218z"/>
    <path d="M79.915 104.95c1.49 2.776 1.906 7.138 1.305 10.654-1.474.91-2.556-2.408-.87-2.826-.42-2.633-1.032-5.35-.435-7.828z"/>
    <path d="M82.958 111.255c1.308 1.057 3.893 4.076 1.74 5.87-1.887-.65-1.737-3.336-1.74-5.87z"/>
    <path d="M81.437 119.3c-1.308-.29-2.657-1.852-1.522-3.262 1.71-.197 2.52 2.115 1.522 3.26z"/>
    <path d="M92.525 116.255c-.06.738.168 1.763-.217 2.174-.933.06-1.437-.31-1.957-.66.38-.65-.07-1.11.22-1.52.91.03 1.22-.4 1.96 0z"/>
    <path d="M92.742 124.517c.347.676.347 2.586 0 3.26-1.65-.3-2.037-3.046 0-3.26z"/>
    <path d="M81.22 59.074c-1.06 2.328-3.884 4.03-5.22 6.957-.796 1.75-.85 3.79-1.738 5.66-.098-5.75 3.197-9.99 6.957-12.61z"/>
    <path d="M97.525 54.726c-1.362.24-2.846 2.404-4.13 1.305.63-1.18 2.624-1 4.13-1.3z"/>
    <path d="M172.535 69.293c-.427.796-.712.32-.217 1.305-1.024.57-1.913 1.276-2.61 2.174-.554-.387-.993-.89-1.738-1.087.628-2.15 2.762-1.45 4.565-2.392z"/>
    <path d="M162.534 88.86c.54-.732.806.627.652 1.306-.575-.078-.196-1.11-.652-1.305z"/>
    <path d="M163.62 74.51c-.122 1.327-1.25 1.65-2.39 1.958-.78-1.867.81-2.85 2.39-1.957z"/>
    <path d="M109.7 108.863c.064 1.295-.15 2.313-1.52 2.174-.133-1.364.158-2.305 1.52-2.174z"/>
    <path d="M107.527 109.733c-.06.738.168 1.763-.217 2.174-.512-.005-.64.375-1.305.217-.565-1.257-.002-3.176 1.522-2.39z"/>
    <path d="M87.307 114.734c.614-.014.402 1.117-.217 1.087-.07-.5.034-.83.217-1.08z"/>
    <path d="M90.35 115.168c.19.97-.977 1.305-1.52.87-.19-.97.977-1.305 1.52-.87z"/>
    <path d="M103.396 116.908c-.108.834-.643 1.24-1.087 1.74-.54-.19-.95-.508-.87-1.305.57-.207 1.38-.902 1.95-.435z"/>
    <path d="M104.048 116.908h1.087c-.02.85-.157 1.582-.87 1.74-.336-.317-.19-1.114-.217-1.74z"/>
    <path d="M111.875 121.908c-.477 1.697-1.98 2.37-3.696 2.827.72-1.45 1.55-2.793 3.69-2.827z"/>
    <path d="M128.4 86.47c.568-.062.934.078.87.65-.57.063-.937-.078-.87-.65z"/>
    <path d="M130.79 86.686h.653c-.303 1.753.903 3.76-.652 4.348.25-1.673-.55-3.035 0-4.348z"/>
    <path d="M114.05 90.165c-.326.345-1.24.318-1.088-.435.325-.345 1.24-.318 1.087.435z"/>
    <path d="M111.44 90.383c-.305.538-.75.384-1.305.217.005-.596 1.027-.516 1.305-.217z"/>
    <path d="M121.007 99.514c.194.096.39.19.435.435-.075.57-.57.73-1.087.87.003-.65.565-.74.652-1.31z"/>
    <path d="M114.92 102.558c.003-.332 1.61-.477 1.303.217-.535.03-1.047.033-1.304-.217z"/>
    <path d="M130.138 84.73c.195.485.927 1.005.435 1.522-.58-.522-.213-.642-.435-1.522z"/>
    <path d="M115.354 98.862c.868.146 1.084.945 1.304 1.74-.172.016-1.46-.706-1.304-1.74z"/>
    <path d="M85.785 72.12c.614-.18.563.305 1.087.216-.325.255-.256.903-.87.87.09-.523-.397-.472-.217-1.087z"/>
    <path d="M81.437 78.425c.54-.033.673.342 1.087.435v1.522c-1.33.37-1.596-1.18-1.087-1.957z"/>
    <path d="M61.87 81.903c.91-.114.86.733 1.086 1.305-.747-.05-.947-.647-1.087-1.305z"/>
    <path d="M61.87 83.643c.453-.092.575.15.87.217-.053.382-.375.495-.87.435v-.652z"/>
    <path d="M66.217 85.165c.07.706-.585 1.158-1.087.652.15-.43.58-.58 1.087-.652z"/>
    <path d="M69.913 87.556c.28.67-.854 1.537-1.087 2.392-.513-.813-.215-2.673 1.087-2.392z"/>
    <path d="M85.35 89.078c.028-.39-.266-.46-.217-.87.316.336 1.113.19 1.74.217.03.61-.533.627-1.088.652.584.285.78.96 1.305 1.305-1.442 1.044-3.854-.22-3.914-1.957.912-.698 1.667.262 2.174.653z"/>
    <path d="M76.436 89.078c.68-.1.695.465.652 1.087-.45-.13-.823-.336-.652-1.087z"/>
    <path d="M89.698 89.295c.454-.092.576.15.87.217-.19.318-.325.69-.87.652v-.87z"/>
    <path d="M106.222 89.295c.322.403 1.124.326 1.087 1.087-.64.572-1.14-.307-1.09-1.087z"/>
    <path d="M89.046 91.035c-.488.424-1.563.117-1.522-.652.488-.424 1.563-.117 1.522.652z"/>
    <path d="M73.392 93.86c.767.684 1.348 1.553 1.74 2.61-.737-.713-1.8-1.1-1.74-2.61z"/>
  </g>
</svg>
