<!--
  SVG Music Logos
  Bad Religion - Crossbuster v0.1.0
  https://github.com/tiagoporto/svg-music-logos
  Copyright (c) 2016-2018 Tiago Porto (http://tiagoporto.com)
-->
<svg xmlns="http://www.w3.org/2000/svg" viewBox="0 0 200 200" class="bad-religion--crossbuster">
  <path class="bad-religion__border" d="M100.003 7.906c-50.864 0-92.1 41.228-92.1 92.097 0 50.866 41.236 92.09 92.1 92.09 50.866 0 92.094-41.224 92.094-92.09 0-50.87-41.23-92.097-92.094-92.097z"/>
  <polygon points="157.203 68.604 111.291 68.604 111.291 19.831 87.381 19.831 87.381 68.604 42.717 68.604 42.717 93.203 87.381 93.203 87.381 183.97 111.291 183.97 111.291 93.203 157.203 93.203"/>
  <path class="bad-religion__cross" d="M100.003 2.003C45.88 2.003 2 45.873 2 100.003 2 154.132 45.88 198 100.003 198c54.126 0 97.997-43.867 97.997-97.994 0-54.13-43.87-98-97.997-98zm77.026 98c0 17.41-5.778 33.467-15.517 46.366L54.11 38.13c12.818-9.522 28.697-15.158 45.893-15.158 42.543 0 77.026 34.484 77.026 77.03zM100 177.027c-42.542 0-77.032-34.48-77.032-77.024 0-17.668 5.95-33.94 15.952-46.936l107.54 108.375c-12.915 9.78-29.008 15.585-46.46 15.585z"/>
</svg>
