<svg xmlns="http://www.w3.org/2000/svg" viewBox="0 62 200 78">
  <g>
    <path d="M53.9 96c.6-.6 1.1-1.3 1.4-2 .3-.7.4-1.9.4-3.4V70.9c0-1.6-.1-2.7-.4-3.4-.3-.7-.7-1.3-1.4-1.9h11.3c3.7 0 6.6.6 8.5 1.9 2 1.2 3 3 3 5.3 0 1.3-.4 2.5-1.2 3.5-.8 1-1.9 1.9-3.4 2.5 2 .6 3.6 1.6 4.6 2.9 1.1 1.3 1.6 3 1.6 5 0 1.2-.2 2.3-.6 3.4s-1 2-1.8 2.9c-1 1.1-2.2 1.8-3.5 2.3s-3.1.7-5.5.7h-13zm10.4-18.9c.2 0 .4.1.6.1h.7c1 0 1.7-.3 2.3-1 .6-.6.8-1.5.8-2.7 0-1-.3-1.8-.9-2.5-.6-.6-1.3-1-2.2-1h-.5c-.2 0-.5.1-.8.1v7zm0 14.3c.4.1.7.1 1 .1h.8c1.3 0 2.4-.5 3.3-1.4.8-.9 1.3-2.1 1.3-3.6 0-1.6-.4-2.9-1.2-3.8-.8-1-1.9-1.4-3.3-1.4-.2 0-.6 0-1.2.1-.2 0-.4.1-.5.1v9.9h-.2z"/>
    <path d="M77.3 95.9c1.4-1.5 2.6-3.9 2.9-4.6 0 0 6.8-19.5 7.1-20.4s.7-2 .7-2.5-.1-.9-.3-1.3c-.2-.4-.6-1-1.2-1.6h10.8l8.6 25c.4 1.1.9 2.1 1.4 3 .6.9 1.2 1.7 1.9 2.4H96c.7-.8 1.6-1.9 1.6-3.2 0-.6-.1-.9-.3-1.5s-1.5-4.4-1.5-4.4h-9.2L85.2 91c-.3.7-.4 1.3-.4 1.9 0 1.1.6 2.1 1.5 3h-9zm10.9-13.4h6.2l-3.1-9.4-3.1 9.4z"/>
    <path d="M135.5 69.6c-3.1-2.7-7.4-4-12.9-4h-12.2c.7.6 1.1 1.2 1.4 1.9.3.7.4 1.8.4 3.4v19.7c0 1.5-.1 2.7-.4 3.4-.3.7-.8 1.3-1.3 1.9h13.2c2.7 0 5-.2 6.7-.7s3.2-1.3 4.5-2.4c1.7-1.5 3-3.3 3.9-5.3.9-2 1.3-4.2 1.3-6.7 0-4.8-1.5-8.5-4.6-11.2zm-6.4 19.1c-1.5 1.9-3.4 2.8-5.8 2.8-.5 0-.9 0-1.4-.1-.4-.1-.9-.2-1.4-.3h.1V70.9c.5-.1 1-.2 1.5-.2.4-.1.9-.1 1.3-.1 2.4 0 4.4.9 5.8 2.8 1.4 1.9 2.1 4.5 2.1 7.7s-.7 5.7-2.2 7.6z"/>
  </g>
  <g>
    <path d="M28.7 129.9l-5.5-9.4c1.9-.9 3.3-2 4.2-3.2.9-1.2 1.3-2.6 1.3-4.2 0-2.7-1-4.7-2.9-6.1-2-1.3-4.6-2-8.9-2H5c.7.6 1.1 1.2 1.4 1.9.3.7.4 1.9.4 3.5v19.7c0 1.5-.1 2.7-.4 3.4-.3.7-.8 1.4-1.4 2h12c-.6-.6-1-1.3-1.4-2.1-.3-.7-.4-1.8-.4-3.4v-7.7l3.9 7.7c1.1 2.1 2.1 3.5 3.2 4.3 1.1.8 2.4 1.2 4 1.2h1.3l5.1-.5c-.8-.9-1.6-1.7-2.3-2.6-.7-.9-1.2-1.7-1.7-2.5zm-9.7-12c-.8 1-2 1.7-3.6 2.1v-10.2c.1-.1.2-.1.3-.1h.4c1.3 0 2.3.4 3.1 1.2.7.8 1.1 1.9 1.1 3.3s-.5 2.7-1.3 3.7z"/>
    <path d="M47.4 131c-.5 0-1 0-1.5-.1-.6-.1-1.2-.2-1.9-.3v-9.2h2.5c.7 0 1.3.2 1.9.4.6.2 1 .6 1.4 1.1v-5.8H44v-7.6h3c1 0 1.8.1 2.4.4.7.3 1.3.8 2 1.4V105H33.6c.7.6 1.1 1.2 1.4 1.9.3.7.4 1.9.4 3.5v19.7c0 1.5-.1 2.7-.4 3.4-.3.7-.8 1.3-1.3 1.9h19.7l1.6-6.6c-1 .8-2.1 1.3-3.3 1.7-1.2.3-2.6.5-4.3.5z"/>
    <path d="M71.2 131c-.8 0-1.6-.1-2.4-.2-.8-.1-1.7-.3-2.5-.6v-19.9c0-1.6.1-2.7.4-3.4.3-.7.8-1.3 1.4-1.9h-12c.7.6 1.1 1.2 1.4 1.9.3.7.4 1.9.4 3.5v19.7c0 1.5-.1 2.7-.4 3.4-.3.6-.7 1.2-1.2 1.8h19.4l1.6-6.4c-1 .8-2 1.3-3 1.6s-2 .5-3.1.5z"/>
    <path d="M88.5 130.1v-19.8c0-1.6.1-2.7.4-3.4.3-.7.8-1.3 1.4-1.9h-12c.7.6 1.1 1.2 1.4 1.9.3.7.4 1.9.4 3.5v19.7c0 1.5-.1 2.7-.4 3.4-.3.7-.8 1.4-1.4 2h12.2c-.6-.6-1.2-1.3-1.5-2-.3-.7-.5-1.8-.5-3.4z"/>
    <path d="M108.8 121.5c.3.7.4 1.9.4 3.5v6.2c-.4.1-1.2.2-2.3.2-2.5 0-4.6-1.1-6.1-3.2s-2.3-4.9-2.3-8.4c0-3.3.8-5.9 2.3-7.7 1.5-1.9 3.6-2.8 6.3-2.8 1.1 0 2.3.2 3.4.5 1.2.4 2.5.9 4 1.7l-.5-6.2c-1-.2-2.1-.5-3.1-.6-1-.1-2.1-.2-3.2-.2-5.3 0-9.6 1.5-12.8 4.4-3.2 2.9-4.8 6.8-4.8 11.5s1.6 8.5 4.9 11.5c3.3 2.9 7.6 4.4 12.9 4.4 1.4 0 2.8-.2 4.3-.4 1.5-.3 3.1-.6 4.7-1.1v-15.2h-9.5c.7.6 1.1 1.2 1.4 1.9z"/>
    <path d="M128.9 130.1v-19.8c0-1.6.1-2.7.4-3.4.3-.7.8-1.3 1.4-1.9h-12c.7.6 1.1 1.2 1.4 1.9.3.7.4 1.9.4 3.5v19.7c0 1.5-.1 2.7-.4 3.4-.3.7-.8 1.4-1.4 2H131c-.6-.6-1.3-1.3-1.6-2-.3-.7-.5-1.8-.5-3.4z"/>
    <path d="M161.1 108.7c-3.2-2.9-7.3-4.4-12.4-4.4-2.3 0-4.4.4-6.4 1.1-2 .7-3.8 1.8-5.4 3.2-1.7 1.6-3.1 3.4-4 5.4-.9 2-1.4 4.1-1.4 6.2 0 4.7 1.6 8.5 4.8 11.5 3.3 3 7.4 4.5 12.4 4.5 2.3 0 4.5-.4 6.4-1.2 2-.7 3.8-1.8 5.4-3.2 1.7-1.5 3-3.2 4-5.3.9-2.1 1.4-4.2 1.4-6.3 0-4.7-1.6-8.5-4.8-11.5zm-6.3 20.3c-1.4 1.8-3.4 2.7-5.8 2.7-2.5 0-4.6-1.1-6.1-3.4s-2.3-5.3-2.3-9.1c0-3.1.7-5.5 2.2-7.4 1.4-1.8 3.3-2.7 5.7-2.7 2.5 0 4.6 1.1 6.1 3.4s2.3 5.3 2.3 9.1c0 3.1-.7 5.6-2.1 7.4z"/>
    <path d="M186.3 105.2c.7.9 1.3 1.9 1.6 2.9s.5 2.2.5 3.7v12l-13.8-18.6h-9.4c.9.9 1.5 1.8 1.9 2.7.4.9.6 2.1.6 3.7v16.3c0 2.3-.2 3.9-.5 4.9s-.8 1.9-1.6 2.7h8.9c-.8-.7-1.3-1.5-1.6-2.3s-.5-2-.5-3.5v-12.9l9.2 12 .3.4c3.3 4.3 7 6.7 11.3 7.2V112c0-1.5.1-2.7.4-3.7.3-1 .8-2.1 1.4-3.1h-8.7z"/>
  </g>
</svg>
