<svg xmlns="http://www.w3.org/2000/svg" viewBox="0 0 200 32">
  <path d="M18.328 16.476c-.594-.728-1.717-1.246-3.378-1.558 1.496-.283 2.492-.693 2.998-1.226.5-.527.754-1.46.754-2.808 0-1.988-.352-3.434-1.067-4.327-.715-.894-1.66-1.49-2.828-1.778-1.166-.3-2.883-.446-5.14-.446H2.5v23h7.92c2.887 0 4.796-.136 5.726-.41.935-.278 2.006-.786 2.43-1.534.434-.747.643-1.9.643-3.453v-2.135c0-1.494-.298-2.603-.892-3.326zm-6.797 4.777c0 .928-.13 1.514-.395 1.75-.26.234-.875.37-1.83.395V16.96c1.007.03 1.632.15 1.872.362.235.21.354.806.354 1.793v2.138zm-.27-8.314c-.187.283-.61.43-1.276.43-.162 0-.39.004-.678.014v-5.12c.693.016 1.173.055 1.413.133.24.074.437.26.593.547.146.288.22.796.22 1.514-.002 1.363-.095 2.188-.272 2.48z"/>
  <polygon points="21.37 4.333 36.11 4.333 36.11 8.934 28.306 8.934 28.306 13.853 33.953 13.853 33.953 17.677 28.306 17.677 28.306 22.732 36.11 22.732 36.11 27.334 21.37 27.334 21.37 4.333"/>
  <path d="M51.588 4.333h-9.894l-3.48 23H45.3l.404-4.136h2.458l.335 4.137h7.007l-3.916-23zm-5.963 14.79c.173-2.032.608-5.25 1.3-9.647.346 3.825.692 7.044 1.043 9.647h-2.343z"/>
  <path d="M72.063 11.293h-6.366V9.59c0-.792-.084-1.305-.242-1.52-.168-.22-.436-.327-.82-.327-.41 0-.724.147-.934.44-.21.293-.314.742-.314 1.338 0 .768.115 1.35.357 1.735.585.93 4.1 3.13 5.13 3.993 1.516 1.27 2.347 2.1 2.98 3.31.61 1.16.777 2.385.777 3.23 0 1.64-.22 2.51-.657 3.29-.436.777-1.287 1.426-2.547 1.954-1.26.523-2.72.786-4.397.786-1.834 0-3.4-.303-4.702-.908-1.297-.606-2.148-1.377-2.547-2.315-.403-.938-.598-2.27-.598-3.995h6.36v1.294c0 .864.095 1.416.274 1.666.18.24.494.366.95.366s.794-.156 1.02-.47c.226-.307.33-.776.33-1.39 0-1.512-.233-2.21-1.11-3.076-.437-.42-1.552-1.258-3.183-2.35-3.515-2.35-4.856-4.417-4.856-6.326 0-1.758.258-3.047.777-3.863.51-.815 1.345-1.45 2.495-1.91 1.15-.453 2.536-.688 4.164-.688 1.786 0 3.31.25 4.554.752 1.255.503 2.085 1.133 2.495 1.9.41.762.61 2.057.61 3.883v.906z"/>
  <polygon points="90.208 4.333 90.208 8.046 85.308 8.046 85.308 27.334 78.939 27.334 78.939 8.046 74.049 8.046 74.049 4.333 90.208 4.333"/>
  <polygon points="99.87 4.333 99.87 27.334 93.491 27.334 93.491 4.333 99.87 4.333"/>
  <polygon points="102.493 4.333 117.234 4.333 117.234 8.934 109.429 8.934 109.429 13.853 115.077 13.853 115.077 17.677 109.429 17.677 109.429 22.732 117.234 22.732 117.234 27.334 102.493 27.334 102.493 4.333"/>
  <path d="M144.118 16.476c-.594-.728-1.717-1.246-3.378-1.558 1.496-.283 2.492-.693 2.998-1.226.5-.527.754-1.46.754-2.808 0-1.988-.352-3.434-1.067-4.327-.715-.894-1.66-1.49-2.828-1.778-1.166-.3-2.883-.446-5.14-.446h-7.167v23h7.92c2.887 0 4.796-.136 5.726-.41.935-.278 2.006-.786 2.43-1.534.434-.747.643-1.9.643-3.453v-2.135c0-1.494-.298-2.603-.892-3.326zm-6.797 4.777c0 .928-.13 1.514-.395 1.75-.26.234-.875.37-1.83.395V16.96c1.007.03 1.632.15 1.872.362.235.21.354.806.354 1.793v2.138zm-.27-8.314c-.187.283-.61.43-1.276.43-.162 0-.39.004-.678.014v-5.12c.693.016 1.173.055 1.413.133.24.074.437.26.593.547.146.288.22.796.22 1.514-.002 1.363-.095 2.188-.272 2.48z"/>
  <path d="M163.59 8.895c-.142-.947-.58-1.827-1.32-2.632-.74-.8-1.726-1.402-2.944-1.808-1.218-.4-2.59-.606-4.12-.606-1.612 0-3.023.214-4.236.64-1.212.424-2.174 1.04-2.886 1.83-.717.797-1.138 1.676-1.27 2.638-.142.962-.204 2.594-.204 4.91v3.936c0 2.364.074 4.02.21 4.972.148.948.58 1.822 1.32 2.628.746.806 1.72 1.407 2.95 1.812 1.212.4 2.584.6 4.115.6 1.61 0 3.023-.21 4.235-.634 1.212-.43 2.174-1.04 2.886-1.837.712-.796 1.133-1.67 1.275-2.637.126-.958.194-2.594.194-4.904v-3.937c0-2.37-.068-4.024-.204-4.972zm-7.217 11.918c0 1.358-.08 2.213-.216 2.574-.142.362-.46.537-.968.537-.49 0-.815-.156-.946-.47-.137-.307-.205-1.132-.205-2.47v-10.74c0-1.183.102-1.9.312-2.136.205-.244.5-.366.894-.366.456 0 .757.15.9.45.147.297.227.98.227 2.05v10.57z"/>
  <polygon points="182.143 4.333 176.048 19.011 176.048 27.334 169.717 27.334 169.717 19.011 163.795 4.333 170.079 4.333 172.848 13.384 175.858 4.333 182.143 4.333"/>
  <path d="M196.933 11.293h-6.366V9.59c0-.792-.084-1.305-.242-1.52-.168-.22-.436-.327-.82-.327-.41 0-.724.147-.934.44-.21.293-.314.742-.314 1.338 0 .768.115 1.35.357 1.735.226.39.877.855 1.938 1.407 3.053 1.583 4.97 2.872 5.763 3.888.798 1.016 1.187 2.647 1.187 4.904 0 1.64-.22 2.842-.657 3.624-.436.777-1.287 1.426-2.547 1.954-1.26.523-2.72.786-4.397.786-1.834 0-3.4-.303-4.702-.908-1.297-.606-2.148-1.377-2.547-2.315-.403-.938-.598-2.27-.598-3.995h6.36v1.294c0 .864.095 1.416.274 1.666.18.24.494.366.95.366.458 0 .794-.156 1.02-.47.226-.307.33-.776.33-1.39 0-1.354-.21-2.243-.63-2.658-.435-.42-1.507-1.11-3.21-2.086-1.706-.99-2.83-1.704-3.387-2.15-.552-.443-1.015-1.06-1.377-1.845-.368-.786-.546-1.793-.546-3.014 0-1.758.258-3.047.777-3.863.51-.816 1.345-1.45 2.495-1.91 1.15-.454 2.536-.69 4.164-.69 1.786 0 3.31.25 4.554.753 1.255.503 2.085 1.133 2.495 1.9.41.762.61 2.057.61 3.883v.907z"/>
</svg>
