<!--
  SVG Music Logos
  Black Sabbath - Vol 4 v1.0.0
  https://github.com/tiagoporto/svg-music-logos
  Copyright (c) 2016-2018 Tiago Porto (http://tiagoporto.com)
-->
<svg xmlns="http://www.w3.org/2000/svg" viewBox="0 0 200 122">
  <path d="M179.684 84.827v-16.11h-13.477v50.748h13.477v-20.95c2.08.336 3.202 1.25 3.368 2.737v18.214h13.95v-17.32c-.604-10.804-6.044-16.902-17.318-17.32z"/>
  <path d="M161.667 72.82h-13.322v11.948l-3.086-.007v4.84h2.864v16.292c1.974 8.09 7.266 12.858 16.566 13.623V105.78c-1.58-.067-2.61-.777-3.09-2.127V89.85h3.227v-4.943h-3.16V72.82z"/>
  <path d="M128.853 84.91c1.92 2.428 3.464 4.98 3.66 7.986-4.737-.072-8.76.72-10.813 3.91-3.356-7.48-8.578-12.004-16.53-12.205V68.573h-13.6v23.86c-3.694-5.326-8.735-7.707-14.534-8.436V68.192H63.06l.166 50.57H76.62c5.948-.006 10.937-2.5 14.97-7.485v7.735h13.31c6.053-.016 10.767-2.233 14.14-6.654 2.207 3.874 5.755 6.12 10.645 6.738h15.97V93.394c-.137-2.93-1.297-5.746-3.157-8.484h-13.645zm-52.086 19.377v-6.13c1.756.284 3.094.993 3.16 2.97-.106 2.123-1.23 3.142-3.16 3.16zm28.268.21v-6.13c1.757.285 3.094.993 3.16 2.97-.105 2.124-1.228 3.142-3.16 3.16zm25.138 3.255c-1.304 0-2.368-1.063-2.368-2.37 0-1.304 1.063-2.368 2.368-2.368s2.37 1.063 2.37 2.37c0 1.305-1.065 2.368-2.37 2.368z"/>
  <path d="M44.29 84.034c2.145 2.634 3.595 5.27 3.512 7.902-4.695-.686-8.278 1.008-11.237 4.038-2.1-6.926-7.543-11.373-16.33-13.345l9.21-11.494c-3.936-2.955-8.503-4.545-14.81-2.364-4.643 2.006-7.14 4.91-8.437 8.32-.566 1.903-.915 3.683-.946 5.28.158 3.074.906 6.126 3.28 9.123 2.075 2.007 4.31 3.728 6.997 4.664l.433.147 5.147 1.71c1.443.96 1.968 2.06 1.867 3.257-.335 1.373-1.12 2.17-2.107 2.708-.875.248-2.063.213-2.998-.015l-2.377-2.375-12.995 5.62c3.222 6.81 8.708 10.71 16.68 11.415 6.58-.227 11.835-2.44 15.156-7.55 2.556 4.018 6.4 6.477 11.532 7.375h15.63v-25.99c-.53-3.3-1.8-6.078-3.687-8.428H44.29zm1.395 22.983c-1.248 0-2.266-1.018-2.266-2.266 0-1.247 1.017-2.265 2.265-2.265 1.25 0 2.266 1.018 2.266 2.266 0 1.25-1.017 2.267-2.265 2.267z"/>
  <polygon points="163.385,66.069 167.639,58.29 169.949,65.826 188.546,65.826 179.187,37.748 188.668,22.433 168.126,22.433 163.264,30.699 163.264,2.378 146.004,2.378 146.248,66.069"/>
  <path d="M72.394 55.583v10.274h17.07v-8.535c3.545 5.527 8.582 8.21 14.855 8.535h19.597V54.003c4.92 8.797 11.82 13.01 20.703 12.643V47.68c-5.975.13-5.14-7.298 0-6.953V21.76c-8.58.257-15.998 3.38-20.862 12.804-.232-4.71-1.912-8.632-4.583-12.01h-17.543c2.86 3.37 4.387 6.74 4.584 10.112-7.76-.64-13.293 2.31-16.594 8.85V2.324H72.71v33.19c-2.116-3.26-5.118-5.63-9.008-7.113 10.134-7.005 7.264-23.462-7.112-25.92l-21.18-.157V65.54h20.863c7.744-.652 12.59-4.564 16.12-9.957zm31.45-8.91c1.304 0 2.367 1.065 2.367 2.37 0 1.303-1.062 2.368-2.367 2.368-1.304 0-2.37-1.063-2.37-2.368s1.066-2.368 2.37-2.368zm-50.26-30.92c1.38.226 2.43.783 2.483 2.336-.084 1.67-.967 2.468-2.484 2.483v-4.82zm.364 32.367v-6.13c1.757.285 3.093.992 3.16 2.97-.106 2.124-1.23 3.142-3.16 3.16z"/>
</svg>
