<!--
  SVG Music Logos
  Black Sabbath - The Rules Of Hell v0.1.0
  https://github.com/tiagoporto/svg-music-logos
  Copyright (c) 2016-2018 Tiago Porto (http://tiagoporto.com)
-->
<svg xmlns="http://www.w3.org/2000/svg" viewBox="0 0 200 34">
  <path d="M169.84 25.368c-.333-3.703.175-7.452-.27-11.15-.12-1.9-1.903-3.04-3.443-3.81-.55 1.005-.973 2.155-1.922 2.88-.816.572-1.81.814-2.738 1.14-.23-.798-.482-1.583-.757-2.352-.684 0-1.372.028-2.054.084-.15.64-.393 1.285-.374 1.97.44.617 1.123.987 1.762 1.385-.053.887-.17 1.784-.025 2.67.386.865 1.35 1.185 2.084 1.684-2.522 1.3-4.35 4.05-3.71 6.962.225 2.245 2.1 3.86 4.1 4.624.485-1.633 1.804-2.67 3.097-3.647.408 1.62 1.673 2.766 3.163 3.433.455-1.684 1.87-2.722 3.03-3.905-.744-.528-1.925-.893-1.942-1.97zm-8.45-6.964c-.835-.718-.49-1.902-.445-2.845.483-.394 1.122-.495 1.717-.624.884-.158 2.124-.337 2.55.707.928 2.066-2.135 4.16-3.82 2.76zm3.93 7.777c-.023 1.112-1.325 1.275-2.11.83-.97-1.486-.716-3.382-.57-5.054.154-1.566 1.692-2.357 2.744-3.31-.015 2.508.103 5.033-.065 7.535z"/>
  <path d="M126.532 25.362c-.31-3.563.11-7.165-.205-10.728-.045-1.924-1.655-3.658-3.507-4.012-.662.875-1.04 1.975-1.922 2.67-.825.568-1.81.81-2.74 1.135-.23-.802-.486-1.582-.76-2.35-.683 0-1.37.027-2.047.078-.148.645-.406 1.29-.37 1.97.43.634 1.114.993 1.757 1.392-.053.887-.17 1.784-.028 2.67.386.87 1.35 1.185 2.084 1.684-2.522 1.302-4.354 4.052-3.703 6.964.217 2.25 2.094 3.86 4.097 4.624.482-1.633 1.798-2.67 3.094-3.647.408 1.622 1.67 2.773 3.163 3.435.455-1.684 1.868-2.727 3.033-3.905-.74-.53-1.927-.895-1.944-1.978zm-8.45-6.958c-.834-.724-.488-1.908-.452-2.856.502-.365 1.128-.494 1.723-.61.895-.163 2.12-.332 2.553.706.92 2.07-2.14 4.152-3.824 2.76zm3.93 7.777c-.02 1.112-1.327 1.28-2.112.826-.97-1.482-.712-3.384-.57-5.05.155-1.566 1.693-2.357 2.745-3.31-.015 2.508.103 5.033-.063 7.535z"/>
  <path d="M49.84 25.368c-.31-3.57.11-7.166-.208-10.728-.042-1.924-1.644-3.653-3.493-4.018-.67.864-1.048 1.97-1.937 2.666-.82.567-1.804.814-2.738 1.14-.227-.798-.482-1.583-.757-2.352-.685 0-1.37.028-2.054.084-.146.64-.376 1.285-.373 1.964.44.623 1.123.993 1.76 1.392-.05.887-.165 1.784-.022 2.67.39.87 1.35 1.185 2.084 1.69-2.527 1.29-4.348 4.05-3.706 6.958.22 2.25 2.096 3.86 4.096 4.63.49-1.64 1.804-2.677 3.098-3.66.407 1.628 1.675 2.778 3.162 3.44.457-1.688 1.876-2.72 3.032-3.91-.74-.524-1.928-.89-1.945-1.966zm-8.457-6.97c-.82-.723-.48-1.9-.446-2.85.505-.365 1.128-.494 1.725-.61.884-.16 2.132-.343 2.548.712.93 2.064-2.138 4.152-3.827 2.75zm3.934 7.783c-.017 1.107-1.335 1.29-2.11.82-.928-1.347-.696-3.11-.623-4.652-.017-1.757 1.63-2.7 2.797-3.697-.013 2.504.105 5.03-.063 7.53z"/>
  <path d="M107.693 11.037c.793-2.738 1.62-5.494 2.962-8.018-1.85.263-3.703.038-5.538-.175-6.208.017-12.723 4.478-13.56 10.897-.173 2.042.36 4.354 2.046 5.678 2.085 1.734 5.06 1.84 7.61 1.38.68 1.174 2.102 2.055 1.948 3.547-2.19-.208-4.353-.718-6.553-.763-2.132.134-4.473.623-5.93 2.323-1.37 1.37-1.632 3.827-.316 5.33 1.252 1.465 3.4 1.874 5.2 1.335 2.11-.342 3.65-1.902 5.196-3.232 1.89.483 3.673 1.335 5.5 2.014.226-1.375.42-2.812 1.186-4.007 1.125-1.986 3.077-3.31 4.25-5.257 1.24-1.98 2.108-4.444 1.378-6.762-.563-2.473-2.99-3.977-5.377-4.29zm-14.22 20.88c-.843-.063-1.26-.92-1.77-1.47 1.683-2.823 5.38-2.054 8.03-1.46-1.627 1.672-3.807 3.21-6.26 2.93zM94.88 15.9c-1.658-.987-2.278-3.226-1.535-4.977 1.044-2.497 3.642-4.236 6.35-4.276 2.34-.068 5.09-.124 6.91 1.61.81.628.41 1.717.47 2.597-2.19.158-4.374.353-6.562.488-.603-1.23-1.426-2.817-3.036-2.67-2.685.258-3.81 4.22-1.678 5.852 1.183 1.066 2.87.668 4.278 1.106.115.342.356 1.032.474 1.38-1.938.084-4.01-.006-5.672-1.11zm4.674-4.455c-.8-.084-1.588-.19-2.374-.32l.09-1.7c1.09.27 1.927.93 2.284 2.02zm1.568 3.87c1.58-.145 3.15-.352 4.74-.364-.15.55-.305 1.117-.456 1.684-1.37.022-2.735.084-4.1.163-.06-.5-.125-1-.184-1.482zm6.09 7.206c-.802.634-1.865.426-2.81.493.325-.87.673-1.728 1.038-2.575.88.405 2.314.803 1.773 2.083zm-4.954-1.728c.715-.06 1.422-.106 2.14-.134-.224.618-.438 1.24-.676 1.864-.538-.545-.995-1.14-1.464-1.73zm1.06 3.248c1.305-.275 2.74.14 3.96-.51 1.65-.78 2.687-2.94 1.75-4.63-.435-1.267-1.782-1.738-2.834-2.356.165-.353.505-1.077.676-1.437 1.692.556 3.51 1.5 3.95 3.39 1.586 4.062-4.062 8.484-7.502 5.543z"/>
  <path d="M77.308 19.908c-.488-1-1.62-1.374-2.5-1.94 1.215-1.022 3.083-1.96 3.066-3.77-.78-1.337-2.208-2.083-3.327-3.104-1.03 1.61-2.668 2.615-4.068 3.855.08-2.93-.124-5.865.114-8.788.1-1.48 1.574-2.188 2.536-3.097-1.327.073-2.72.213-3.84.993-.915.606-1.285 1.683-1.664 2.66-.423-1.015-.945-1.992-1.602-2.88.177 6.897.126 13.805.1 20.706.077 1.23-.656 2.267-1.323 3.227 1.794.938 3.093 2.515 4.428 3.99.777-1.386 1.87-2.536 3.056-3.58-.567-.505-1.223-.93-1.652-1.56-.228-1.476-.29-3.04.095-4.49.555-1.032 2.01-1.065 2.508.046.424 2.47-.348 5.112.69 7.485.496 1.134 1.655 1.684 2.724 2.156.48-1.65 1.867-2.688 3.066-3.804-.645-.393-1.288-.77-1.93-1.156-.225-2.314.22-4.698-.478-6.948zm-6.795 1.162c.104-1.88-.497-4.07.704-5.696 1.052-.583 2.494-.028 2.64 1.23.368 2.154-2.123 3.12-3.344 4.466z"/>
  <path d="M156.063 13.78c-.196-1.683-1.683-2.675-3.15-3.197-.763 1.6-2.13 2.738-3.45 3.86.005-2.923-.135-5.864.08-8.787.054-1.335 1.196-2.188 1.976-3.13-1.218.263-2.57.392-3.536 1.28-.808.638-1.074 1.682-1.454 2.597-.43-1.116-.98-2.183-1.863-3.002.603 3.266.393 6.594.424 9.893.01 3.765-.008 7.53 0 11.3.04 1.836.357 3.856 1.75 5.186.905 1.06 2.327 1.33 3.598 1.722.36-1.285.873-2.603 2.135-3.238 1.87-1.066 3.706-2.7 3.71-5.027-.04-3.15.274-6.336-.22-9.456zm-6.448 11.554c-.342-2.042-.112-4.124-.18-6.183.054-1.216-.167-2.524.346-3.663.242-.842 1.204-.572 1.86-.696.79 4.21-.078 8.53.59 12.755-1.057-.427-2.37-.948-2.615-2.21z"/>
  <path d="M141.174 13.78c-.194-1.677-1.68-2.675-3.148-3.197-.764 1.605-2.13 2.738-3.45 3.86.004-2.93-.136-5.864.08-8.78.048-1.342 1.198-2.195 1.98-3.138-1.222.258-2.578.4-3.542 1.28-.81.64-1.072 1.683-1.454 2.598-.432-1.11-.973-2.188-1.866-3.002.166 1.482.47 2.952.432 4.456-.008 5.426.006 10.85-.008 16.278.005 1.98.247 4.197 1.756 5.645.9 1.06 2.323 1.33 3.594 1.722.362-1.28.873-2.61 2.144-3.238 1.866-1.066 3.697-2.7 3.703-5.022-.04-3.154.275-6.34-.22-9.46zm-6.442 11.56c-.35-2.043-.118-4.13-.185-6.185.053-1.223-.163-2.53.348-3.67.244-.83 1.2-.57 1.855-.695.788 4.202-.073 8.523.595 12.748-1.056-.42-2.37-.94-2.613-2.2z"/>
  <path d="M26.747 17.922c-1.34-2.126-4.026-1.038-6.072-1.436 1.527-.56 3.364-.65 4.522-1.92 2.034-2.08 2.116-5.47.88-7.973-1-1.908-3.158-2.615-4.923-3.602-.586 1.213-1.453 2.257-2.544 3.053-.284-1.706 1.335-2.9 1.26-4.596-.368-.06-1.097-.185-1.456-.247-.44 1.066-.715 2.183-1.038 3.294-1.32-.09-2.572-.544-3.68-1.24C11.573 1.99 8.99.914 6.528 1.834 2.36 2.946.39 8.9 3.583 12.008c1.44 1.773 5.09 1.75 5.63-.814-1.15.31-2.23 1.442-3.478.954-2.084-1.33-1.09-4.853 1.193-5.347 2.496-.493 5.043.14 7.557-.117 1.21-.24 2.31-.837 3.484-1.19-.464 1.667-2.327 1.93-3.626 2.722C12.05 9.36 9.514 11.1 9.254 13.9c.1 1.12-1.136 1.352-1.857 1.88-1.992 1.177-2.873 4.072-1.448 6.02.71 1.274 2.263 1.37 3.55 1.51-.683-.83-1.996-1.488-1.716-2.756.008-1.425 1.453-2.025 2.572-2.457-.92 1.015-1.6 2.256-1.103 3.658 2.416-1.436 5.502.22 6.363 2.71-2.81-.062-5.66-.858-8.414.09-2.244.572-4.366 2.508-4.236 4.977-.048 2.082 2.264 3.676 4.222 3.17 2.255-.466 4.127-1.908 5.796-3.423 1.78.655 3.577 1.26 5.29 2.086.503-1.167.91-2.463 1.93-3.288 1.92-1.717 4.658-1.812 7.096-1.913-.32-2.745.22-5.567-.553-8.243zM5.507 31.58c.11-.646-.12-1.522.546-1.92 1.678-1.302 3.95-.78 5.903-.668-1.7 1.633-3.962 3.25-6.45 2.587zm12.19-6.33c-.57-.163-1.135-.32-1.698-.47.83-1.887 1.272-4.007.686-6.028-.617-2.56-2.61-4.837-2.076-7.603.126-1.74 1.557-2.963 3.078-3.564 0 5.886.06 11.778.008 17.664zM18.71 7.294c3.876.96 3.75 7.564.007 8.59-.14-2.866-.14-5.733-.006-8.59zm-.072 18.208c-.005-2.67-.05-5.336.03-7.996.94.123 2.198.022 2.703 1.032.282 2.632-.038 5.297.23 7.934-.978-.358-1.962-.684-2.962-.97z"/>
  <path d="M195.994 25.77c-.367-4.09.33-8.247-.426-12.298-.303-1.52-1.765-2.295-3.02-2.935-.625 1.857-2.33 2.744-3.873 3.715.067-2.86-.104-5.734.104-8.59.024-1.504 1.475-2.233 2.485-3.07-2.418-.016-5.033 1.09-5.485 3.733-.485-1.077-1.1-2.082-1.905-2.94.89 6.873.294 13.836.468 20.75.168 1.25-.6 2.254-1.307 3.18 1.936.87 3.148 2.67 4.677 4.057.407-1.548 1.652-2.542 2.716-3.636-.573-.763-1.732-1.23-1.707-2.3-.093-2.402-.01-4.81-.034-7.21.06-1.15-.065-2.62 1.032-3.345.867-.342 1.703.44 1.773 1.286.264 3.833-.213 7.715.247 11.537.134 1.767 1.462 3.052 3.1 3.563.528-1.627 1.897-2.643 3.16-3.67-.67-.595-1.913-.798-2.008-1.825z"/>
  <path d="M37.598 3.13c-2.502-.386-4.517 1.533-5.086 3.844-.435-.88-.976-1.71-1.588-2.47.27 6.83.093 13.664.135 20.493.092 1.184-.495 2.216-1.115 3.17 1.7.757 2.842 2.25 4.037 3.608.968-1.1 1.975-2.16 3.036-3.175-.685-.74-1.605-1.515-1.46-2.643.02-6.318-.033-12.642.03-18.965-.004-1.572 1.02-2.767 2.01-3.86z"/>
  <path d="M178.322 11.615c-.11-2.188.126-4.36.197-6.536-1.552 1.93-2.495 4.297-4.27 6.053-.846.875-2.02 1.273-3.057 1.87.962.223 1.936.37 2.923.476-.11 3.82 0 7.647-.056 11.473.025 1.09-.423 2.087-.85 3.07 1.736.853 3.103 2.24 4.366 3.676.698-1.54 2.135-2.442 3.33-3.553-1.03-.578-2.04-1.16-3.035-1.78.804-4.274.315-8.65.427-12.978.85-.012 1.706.027 2.564-.034.624-.438.93-1.173 1.382-1.762-1.313-.035-2.615-.002-3.92.02z"/>
  <path d="M63.4 15.116c-.875-1.796-2.608-2.99-3.837-4.534-.707 2.71-3.412 4.348-6.156 4.03.612 4.365-.317 8.837.67 13.163.725 2.44 3.205 3.664 5.607 3.76.788-1.61 2.233-2.666 3.445-3.923-1.81.095-4.32.18-5.062-1.896-.266-3.647.04-7.323-.2-10.976 1.286 1.313 2.638 2.716 2.97 4.612 1.087-1.217 2.667-2.435 2.563-4.236z"/>
</svg>
