<!--
  SVG Music Logos
  Blur - Leisure v0.1.0
  https://github.com/tiagoporto/svg-music-logos
  Copyright (c) 2016-2018 Tiago Porto (http://tiagoporto.com)
-->
<svg xmlns="http://www.w3.org/2000/svg" viewBox="0 0 200 115">
  <path d="M176.384 45.713h-3.31c-20.81 0-29.614 11.595-30.438 25.328V45.714h-12.66v35.88c0 9.897-8.025 17.92-17.92 17.92-9.897 0-17.92-8.023-17.92-17.92v-35.88H81.474V2.827h-13.15V79.52c-.504-17.052-14.476-30.723-31.65-30.723-6.925 0-13.312 2.25-18.524 6.02V2.826H5V80.47c0 17.495 14.18 31.673 31.674 31.673 17.173 0 31.146-13.67 31.65-30.723v30.656h13.15V81.592c0 16.888 13.69 30.58 30.582 30.58 16.222 0 29.487-12.636 30.508-28.6v28.6h12.59V77.028c0-11.293 6.763-18.936 17.92-18.936H195V45.714h-18.616zm-139.71 53.32c-10.25 0-18.562-8.31-18.562-18.562s8.31-18.56 18.562-18.56c10.25 0 18.562 8.31 18.562 18.56s-8.31 18.563-18.562 18.563z"/>
</svg>
