<!--
  SVG Music Logos
  Charlie Brown Jr. v1.0.0
  https://github.com/tiagoporto/svg-music-logos
  Copyright (c) 2016-2018 Tiago Porto (http://tiagoporto.com)
-->
<svg xmlns="http://www.w3.org/2000/svg" viewBox="0 0 200 218">
  <path d="M10.6 178.25l8.9-.3 7.8 1.7c-.8 2.2-2.9 4.3-4.2 5.9l-4.2 6.3 5.8 2.7c-.3.6-7.2 6.2-8.7 7.5l4.8-21.4-9.9.3c-.7 9-4.7 18.3-7.9 26.7l9.3 7.4c1.1-1.2 4.4-3.7 5.9-5 4.1-3.6 7.9-6.1 12.6-10.3l6.2-5.3-3.8-5.4c-2.4-3.2-.9-3.4 1-5.6l8.3-10.3c-.3-.3-.4-.4-1.5-.6l-28-2.2c-.4 2.7-1.5 5.4-2.4 7.9z"/>
  <path d="M102.5 185.65c-3.4-9.7.2-8.2-7.7-9.5l-3.2 9.7-2.4-9.9-8 2.3.7 8.5 2.5.1c.1 1.5.3 13.5 1.1 14.4l3.3 2.2c1.1-1.1 2.6-4 3.5-5.7.8-1.5 2.5-4.6 3.7-5.9l.2.4.3.6c1.1 3 1.4 7.1 1.8 10.3l3.2 1.3c.7-2.9 9.9-21 12-25.1l-5.2-4.8c-1.6 1.9-3.6 9.8-5.8 11.1z"/>
  <path d="M167.5 186.05l3.8.5 6.2 24.8 8.1 1c-.7-4-1.8-7.3-2.3-11.8l-1.2-13c1.9 0 1.7-.3 2.6 3.5l1.2 5.3 11.1-4.2-2.6-6.9-2.2 1.1-1.1-6.3c-1.9-.1-3.7-.7-5.7-1-3.9-.5-10.1-.1-13.2-.6l-5.7-.9.6 6c.1.9.1 1.9.4 2.5z"/>
  <path d="M122.4 183.95l-1.4-7.2c-1.6-1-5.3-.4-7.1-.1.5 1.2 1.2 1.3 1.5 2.2.3 1.3-.7 1.6-1 2.4-.1.3.9 4.8 1.1 5.9l.5 14.6 3.3 2.5 3.2-6.8c2.1-3.9 1.4-4 3.8-6.5 1.3 3.2 2.2 8.8 3.1 12.7 1.8-.1 6.2-2.3 8.1-3.4-.1-1.4-.3-2.8-.5-4.2l-2.2-2.4-1.9-16.1-5.8-2.6c-.2.2-4.3 8.5-4.7 9z"/>
  <path d="M152.1 170.45c.6 1.4 1.3 7.4 1.7 9.6.9 4.4 2.6 15.2 2.9 19.5.1 2-2.5 3.8-4.9 6.3.2 1.2 3.4 5.7 4.3 7.1 2.6-2 5.1-4.3 7.7-6.3 3.1-2.3 1.6-2.3 1-7.5-.1-.5-.1-1-.2-1.6-.7-6.4-.5-9.8-.9-15.5l-1.1-13.2c-3.5.2-7.3.8-10.5 1.6z"/>
  <path d="M70.1 195.25c-.2-.5-1.3-5.1-1.4-5.7-.1-1.1 1.6-3.6 3.1-4l1.7 8.4-3.4 1.3zm-6.8-11.3c1.7 4.4-1.6 2.7-2.1 5.5-.6 3.5-2 8.9-.3 10.9l6.3 6.8c3.2-2.9 9.3-6.5 12.7-9.7.8-.8.8-.9.6-2.2-.8-3.7-1.1-7.6-1.6-11.3-.5-3.6-2-4.9-4.4-8.5-1.4.5-10.1 7.3-11.2 8.5z"/>
  <path d="M41.9 177.85l-1.1 6.4 3.4 1.1-2.4 21.8 6.1-.2 4.1-19.7 1.2 4.7c2.1-1.1 3.8-2.2 5.6-3.5 3.1-2.2 2.4-2.1 1.9-5.7l-1.8.3.1-5.8-17.1.6z"/>
  <path d="M7.9 16.75c.3 3.2.9 21.8 1.6 23 .5.8 5.1 4.2 6.8 5.8l6.6 5.9c3.1-1.1 16.4-8.2 19.3-9.9l-5.8-5.6-9.7 5.2c-1-.8-1.6-1.8-2.7-2.6-1.8-1.4-1.3-1.1-1.6-4l-1.3-9.6 7.2-3 6.7 6.8 8.6-4.4c-.2-1.3-3.4-4.8-4.5-6L30 9.15l-22.1 7.6z"/>
  <path d="M167.9 31.75c.8-1.1 3.9-2.7 5-3.4 1.2-.7 4.2-2.6 5.4-2.7l.8 2.9c-1.6.9-8.9 4.9-10 5.2l-1.2-2zm-4 18c1 0 17.1-4.4 19.6-5l-2-6-10.5 1.9-.5-2.3 7.4-3.1 12.1-4c.7-.5 4.3-10.2 4.9-11.5l-9.1-6.9-24 15.2c-1.5.9-1.4.7-1.7 2.7-.4 2.4-1 4.8-1.7 7.3-.4 1.7 0 1.9.6 3.2 1.3 2.5 3.2 6.5 4.9 8.5z"/>
  <path d="M68.9 47.95c.6-.5 5.2-2.2 6.2-2.5l-.9-3.9c-.6-2.7-.4-3.1-1.6-3.1l-2.4.7-.5-14.5-7.6-2.9-2.9 7.1c-1.1 2.9-1.9 4.3-3.2 7-.6-.8-1-13.3-.9-15.2l.6-16.4-12.9 1 2.7 9.6c.8 3.5 1.3 6.9 2 10.5 1.6 8.9 1.8 14 2.3 22.9l4.3 1.1c1.3-1 3.1-4.3 4.3-6l4.9-5.3 3.1 10.3 2.5-.4z"/>
  <path d="M92.2 20.35c0 .1 0 .2-.4.5-.5.5-.2.2-.6.4-.5 1.4-2.1 2.2-3.2 3.1-.4.3-5.6 6.1-9.4 9.2-1.8 1.5-1.9 1.2-1.8 4.3.1 5.7-.7 4.5 3 9.5l2.8 3.4c2.8-2.9 4.7-4.4 7.8-7l2 4.9 9.3-2.5c-.5-1.3-1.8-2.9-2.8-5.7-.4-1.2-.8-2.6-.2-3.7.3-.5.7-.7 1.6-2.7l-5.9-3.1c-1.7 2.3-2.6 2.8-3.7 4-2.5 2.9-3.8 4.1-6.5 6.8l-1.1-2.5c1.7-2.8 10.2-10.2 12.1-12.7.4-.5.4-.5.7-.9l1-1.1c-.8-1.3-3.2-4.5-4.7-4.2z"/>
  <path d="M131.4 5.95c-.4 3.7-.7 6.8-1.3 10.4-1.1 6.4-2.2 25.4-2.7 32.3l5.5.7c.2-5.6 5.2-28.5 6.9-35l3-11.4c-3.8.5-7.7 2-11.4 3z"/>
  <path d="M103.4 23.25l.2 6.3c1.4.6 1.4 0 3 .7v18.6l5.5.6.5-3 2.3-14.2c2.4 5.2 1.7 4.7 2.8 4.5 1.8-.2 6.2-2.6 7.7-3.4l.4-6.4-2.3.6-.9-4.8c-3.6.3-16.2 1.1-19.2.5z"/>
  <path d="M145.7 21.95c-1.5 3.7-1.5 16-1.9 19.5l-.8 6.3 5.3.3c1.5-4.6 1.9-8.3 4.1-14.3l5.1-13.4c-1.8 0-10.8 1.2-11.8 1.6z"/>
  <path d="M146 18.35l12.7-.7 3.2-9.4-13.7 2.2c-1.3.4-1.1.5-1.3 2-.3 2.1-.8 3.7-.9 5.9z"/>
  <path d="M98.2 72.55c.7.5 5 3.2 2.7 4.4-1.2.6-9.5-3.5-9.5-6.2 0-1.6 5 .5 6.8 1.8zm-35.8-14.2h-.2c-.8 1.1-5.4 3.8-6.8 4.7.7 1.4.2 1.1 1.5 2.6 1.1 1.3 3.1 2.8 4.4 3.8l4.7 3.5c.9.6 1.5 1.1 2.4 1.7l2.4 1.7c.8.6 1.5 1.1 2.4 1.7 1.7 1.1 3.2 2.1 4.9 3.3 3.2 2.2 6.6 4.4 9.9 6.4l5.1 3.3-40.1-8c-1 1.9-2.1 5.4-2.9 7.6l15.1 8.2c1.6.8 6 4.3 7.8 5.6.7.5 1.3.9 2.1 1.4l40.4 27.3c-4.2-1-5.4-.8-9.9-2.7-7.9-3.2-14.8-8.3-21.4-13.6l-3.5-2.9c-2.9-2.4-5.7-4.9-8.4-7.6-.6-.6-.9-1-1.6-1.5-.8-.6-1-1-1.8-1.6-6.3-4.8-7.2-6.1-15.5-10.2-1.2-.6-3.1-1.3-4.4-1.8-5.7-1.9-10.5-2.3-15.4.8-1.2.8-2.3 1.9-3.2 3-3.1 4.2-2.6 10.3 0 14.7 1.4 2.3 2.5 3.1 4.6 4.8 1.2 1 2.5 1.7 3.9 2.5 2.2 1.2 4.3 2.3 6.7 3.1 1.7.5 3.1 1.1 4.7 1.7 2.4.9 4.9 1.4 7.3 2.2 1.3.4 1.4.8 1.6-.8l.7-5.8c-1.4-.3-2.7-.9-4-1.4l-7.9-3c-.8-.3-1.2-.5-1.9-.8-2.9-1.3-6.2-3.2-7.7-6.1-1.6-3.1-.6-5.9 2.3-7.1 4.2-1.6 10.8 1.4 14.1 4.1 4.6 3.8 9.6 7 14.2 10.7 2.8 2.3 9.5 7.4 12.5 9.4l5 3.2c.6.3 1.1.6 1.8 1 7.4 4.3 15.9 6.8 24.2 8.9 3 .8 6.2 1.2 9.4 1.7s6.6.9 9.9 1.2l4.7-7.2c-.5-.4-1.1-.7-1.7-1-.7-.4-1-.7-1.7-1l-52-31.8c1.7.1 7 1.7 8.9 2.2 8.8 2.4 17.7 4.6 26.6 6.8 5.9 1.5 11.9 2.9 18 4.3 6.2 1.4 12.3 2.6 18.5 3.8.5-1.1 1-2.9 1.4-4.2l1.5-4.2c-1.1-.5-11.3-3.6-13-4.2-12-4-23.4-8.8-34.5-14.7l-1.6-.8c.4-.6 2-1.5 2.8-2.1 6-4.5 5.3-12.2 0-17.1-3.4-3.2-7.1-5.4-11.9-6.6-2.8-.7-5.2-1.3-8.6-1.3-3.1 0-5.6 1.1-7.1 2.8-1.4 1.7-2.3 4.6-2.4 7.5-.8-.2-1.6-1-2.3-1.4-.8-.6-1.4-1-2.2-1.5-1.5-1-2.8-2-4.4-3l-3.2-2.3c-.9-.8-4.6-3-5.2-3.9z"/>
  <path d="M19.6 126.45v.2c1.1 0 3.3.7 4.4 1.1 6.5 1.8 15.4 4.2 21.8 5.8l17.3 4.7c3 .9 5.8 1.5 8.8 2.3l8.7 2.3c8.2 2 17.8 4.7 26.1 7 5.4 1.5 12.3 3.2 17.5 4.7 1.5.4 2.8.7 4.3 1.1 1.4.4 2.9.8 4.4 1.2 3 .8 5.7 1.6 8.8 2.3 1.5.4 2.9.7 4.3 1.2 1.3.4.9.2 2.2.1 2.2-.1 5.1-.4 6.9-1.5 2.1-1.2 2.1-2.3 2.7-3v-2.1c-.5-.7.2.7-.2-.4l-.4-1.3c-1.3-3.6-5-6.5-7.8-9l-4.3 6.6c.6.3 3.7 2.3 4.1 2.9l.9 1.6c-1.3.7-2.3.2-4.1-.2-1.3-.3-2.7-.8-3.9-1.2-2-.7-5.9-1.6-8.1-2.2-2.7-.7-5.4-1.4-8.1-2.2-2.6-.7-5.4-1.4-8.1-2.2-15.9-4.5-32.3-8.7-48.3-13.2-5-1.4-11.4-3-16.2-4.4-8.2-2.4-19.8-5.3-28.2-7.6l-4.3-1-1.1 6.1c0 .2-.1.2-.1.3z"/>
  <path d="M40.6 143.55c0 .7.1 1.2.4 1.7.1.2.8 1 .9 1.2.5.5 1.7 1.3 2.4 1.7 2.2.9 4.5 1.4 6.7 1.6 3.5.4 7-1.6 7-1.6l2.8-.2c-.3-.7-.4-2.6-.7-3.6-1.4-6.8-19.5-7.6-19.5-.8z"/>
  <path d="M116.2 164.45c.7-.1 3.6-.1 5.8-1.6 1.3-.8.5-.7 3.6-.3 0-.5-1.1-3.8-1.3-4.3-1.5-3.7-9.1-4.6-12.9-3.5-2.4.7-6.6 2.7-4.8 6.1.9 1.8 3.5 2.9 5.5 3.3.4.1.8.1 1.2.2.9 0 1.8.1 2.9.1z"/>
</svg>
