<svg xmlns="http://www.w3.org/2000/svg" viewBox="0 0 200 151">
  <path d="M191.044 67.447c-2.04.876-7.915 1.857-7.915 1.857l-4.906.774-8.433 2.668s-2.84.947-5.334.774c-2.496-.172-7.057 3.184-7.057 3.184l.343-4.733s2.15-2.84 3.873-4.388c1.72-1.55 1.72-5.938 1.72-5.938s.775-2.065 2.066-3.614c1.377-1.55-.946-3.614-.946-3.614s-2.065 3.786-2.84 2.84c-.775-.947.344-5.335-.258-6.454-.516-1.205-3.012-.258-3.012-.258s-.774 1.72-.774 3.098c0 1.29-2.668 6.884-5.766 9.724-3.012 2.84-4.13 4.56-4.56 5.335-.345.776-5.164 7.832-5.164 7.832l-3.958.43s-1.205 1.72-1.55 2.668c-.43.946.948 3.012.948 3.012s-3.012 2.324-2.84 3.27c.172.947 2.84 1.55 2.84 1.55l-4.045 4.388s-3.442 1.55-6.798 3.614c-3.443 2.065-4.218 2.323-4.476.172-.172-2.065 5.163-6.282 5.163-6.282s0-1.893.602-4.045c.6-2.066-1.292-3.615-1.292-3.615s-.258-1.893-1.377-2.84c-1.118-.946-1.72-.43-3.27 1.72-1.548 2.066-6.453 5.336-6.453 5.336s-2.323 2.497-5.335 4.734c-3.098 2.323-10.154 7.487-10.154 7.487s.602-2.84.602-4.56c0-1.72 3.442-5.594 2.84-6.885-.602-1.377.344-3.098.344-3.098l-2.237-.344-.43-1.55-3.615.173-.344 1.72s-2.15 3.443-3.614 4.992c-1.55 1.55-3.7 7.83-3.7 7.83s-3.786 3.615-4.13 6.283c-.43 2.67-6.885 9.38-6.885 9.38s4.732 1.378 3.613 1.722c-1.12.344-1.377 4.045 0 3.614 1.29-.344 4.733-.172 5.163-1.12.344-.946 6.11-2.495 6.11-2.495l3.27-4.216s3.614-2.668 4.733-4.99c1.118-2.238 8.604-7.574 8.604-7.574v2.065s-.172 3.614-1.55 5.765c-1.29 2.065-.946 6.884-.774 8.778.172 1.893 2.324.344 2.324.344l.602 1.55s1.463.946 4.39-.603c2.84-1.464 2.236-4.39 2.236-4.39s3.442-1.893 6.884-6.11c3.442-4.216 4.56-1.72 4.56-1.72s-4.388 9.98-4.904 11.875c-.602 1.893-3.872 8.175-5.335 10.154-1.55 1.892-5.163 7.572-5.163 7.572l2.41.43.775 2.668 1.72-2.668 1.55 6.11s.773-1.205.945-2.668c.172-1.55 4.217-8.09 5.163-8.605.947-.603 6.54-6.54 6.884-8.262.344-1.72 1.12-2.84 1.12-2.84s1.376-4.045 1.548-5.68c.172-1.72 1.377-4.045 2.668-5.422 1.377-1.29 4.99-4.56 6.11-5.68 1.12-1.204 1.12-2.495 1.12-2.495s2.753.603 3.87 1.894c1.12 1.377 4.562 2.668 4.562 2.668s4.39 1.205 7.83 2.323c3.443 1.12 5.51 4.99 5.51 4.99s4.044-.43 6.883.517c2.926.947 4.647-2.065 4.647-2.065s-3.442-1.55-7.83-3.614c-4.39-2.15-7.66-6.712-8.607-9.036-.946-2.237-6.282-7.228-6.282-7.228s8.004-4.562 10.24-6.11c2.325-1.55 10.5-4.045 10.5-4.045l-3.614.43s4.217-2.926 5.766-4.217c1.55-1.377 4.733.172 7.228-1.55 1.698-1.17 3.744-3.563 4.75-4.682.26-.165.553-.39.586-.48.113-.25-.303.07-.692.47z"/>
  <path d="M85.026 91.85c0-.946 2.238-5.593 2.238-5.593l-3.614 1.377s2.496-2.668.172-4.56c-2.237-1.894-4.733 2.84-4.733 2.84l-3.443 1.72s-2.065 3.012-2.668 4.216c-.603 1.12-5.164 3.96-5.164 3.96s-2.84 3.872-6.11 4.99c-3.27 1.12-6.884 3.614-6.884 3.614s2.495-4.56 2.495-6.454c0-1.893.947-4.99 3.442-7.056 2.495-2.152 2.667-3.098 1.892-4.647-.774-1.463-4.044 0-4.044 0s-.69-3.442-2.668-2.84c-1.893.602-4.13 4.56-4.13 4.56l-1.722 4.82s-2.15 3.614-3.872 5.163c-1.72 1.55-.516 5.163-.516 5.163s-.43 3.614-3.098 4.905c-2.668 1.377-4.56 8.605-4.56 8.605s1.72-.947 2.84-.516C42 116.46 42 119.13 42 119.13h2.323l3.442 1.376 5.335-5.938s3.27-.946 5.163-1.893c1.893-.947 4.56-4.82 5.507-6.11.947-1.377 1.72-1.72 1.55.774-.173 2.41-3.787 6.797-3.787 6.797l1.72 1.033s-1.892 2.668-.946 2.668 4.905-1.377 4.905-1.377 2.323.948 3.442.43c1.205-.6 2.323-6.883 2.323-6.883l2.668-3.872s3.614-4.733 3.614-7.056c0-2.238 5.766-6.283 5.766-7.23z"/>
  <path d="M44.495 88.236c1.377-.258.602-5.163-.172-6.884-.774-1.72-1.12-4.647-1.12-4.647s-3.097-1.29-4.818-2.84c-1.72-1.55-4.39.947-5.507.947-1.12 0-5.335-1.893-5.335-1.893s-.774 4.216-4.647 6.11c-3.786 1.892-6.626 7.83-6.626 7.83s-.603-1.55-1.377-1.893c-.775-.43-1.55-4.82-1.55-4.82l-2.236 1.378s-2.496.344-3.614 1.55C6.286 84.19 2.5 84.794 2.5 84.794s1.55 5.334 2.323 9.293c.688 4.045 3.96 5.766 3.96 5.766s-.776 3.442-1.894 4.045c-1.12.515-.173 3.613-.173 3.613s-.947 9.724-.947 13.77c0 3.958-.43 9.55-1.377 13.338-.946 3.787-1.12 7.832-1.12 7.832l4.734-3.27s.43 2.15 1.55 1.893c1.118-.172 1.376-1.463 1.72-2.668.344-1.12 2.324-1.72 2.324-1.72v-4.906s.345-2.15.517-4.818c.258-2.668 2.324-14.715 2.324-14.715s1.12 1.893 2.066 2.668c.947.774 3.27 1.72 5.163 1.205 1.892-.602 8.432-4.647 10.153-6.368 1.72-1.72 6.11-11.273 6.712-12.908.517-1.723 2.67-8.436 3.96-8.608zM21.605 99.08l-2.152-2.497 1.55-1.12s1.72.775 1.72 1.722-1.12 1.894-1.12 1.894zm11.1-5.164c-.602 1.72 1.12 5.766-2.323 8.26-3.442 2.41-5.163.947-5.163.947s-2.497-.774.17-3.442l5.336-5.334s-3.012-1.205-4.13.516c-1.206 1.72-2.152 1.55-2.152 1.55s0-2.497-.947-2.67c-.947-.17-2.324-1.72-2.324-1.72s3.098-6.454 4.82-6.712c1.72-.172 4.99-2.668 4.99-2.668s2.41-1.72 2.668.775c.173 2.495.517 5.593.517 5.593s-.945 3.185-1.462 4.906z"/>
  <path d="M154.56 29.375l-5.164 5.163s-8.26 8.433-8.605 9.552c-.43 1.12-10.498 12.564-14.37 16.264-3.786 3.614-6.884 8.347-6.884 8.347s1.98-.515 3.7-1.462c1.722-1.033 3.013-3.098 3.013-3.098l.43 3.098 3.958-.43s6.54-9.122 9.208-11.273c2.668-2.065 10.24-9.38 12.736-12.392 2.495-3.098 5.593-5.335 7.314-6.282 1.72-.946 4.733-3.27 5.68-4.818.946-1.55 3.098-.344 3.098-.344s1.12 1.12 2.668 1.72c1.55.517 7.83.776 10.068.948 2.323.172 7.487 1.893 7.487 1.893l-1.893-2.324h3.012c1.377 0 7.487.774 7.487.774l-4.39-2.065-8.604-2.324s-2.325-2.667-5.336-3.01c-3.098-.43-4.39-1.98-4.39-1.98s2.238-3.356 1.894-4.13c-.344-.776-4.56 0-4.56 0s.774-3.1-1.206-3.443c-1.893-.43-3.614 2.065-4.39 3.614-.773 1.55-3.785.173-3.785.173s-4.217-2.496-6.712-3.012c-2.496-.602-5.938 2.84-5.938 2.84l2.496 2.497-2.84.344-2.667 2.497s3.786.774 4.56 1.55c.77.773 2.923 1.118 2.923 1.118z"/>
  <path d="M75.646 35.312c-1.12.172-2.495 2.323-3.442 3.614-.947 1.377-3.614 4.045-4.39 4.045-.774 0 .173 2.238.173 2.238s-2.84 1.72-3.012 2.926c-.258 1.118-5.938 3.96-7.315 7.228-.69 1.635-.86 2.668-.69 3.786.087 1.033.517 2.15 1.12 3.872 1.12 3.442 2.237 2.496 2.237 2.496s.258 1.29 1.55 1.72c1.376.345 2.322-.43 2.322-.43s1.118 2.67 3.01 2.67c1.894 0 3.873-1.292 3.873-1.292s2.065.688 3.184.172c1.205-.602 2.926-4.217 2.926-4.217s1.72-.345 2.496-.775c.687-.344 2.667-2.065 3.01-3.27.087-.344.345-.69.517-.946.43-.69 1.033-1.12 1.033-1.12s-.086.43-.172 1.12c-.258 1.29-.516 3.355-.258 4.216.43 1.377-.172 4.82-.172 4.82s2.668-.948 3.442-1.378c.774-.344 1.72-1.12 1.72-1.12s2.324-2.322 3.27-3.44c.603-.776 3.1-2.153 4.906-3.1.946-.515 1.72-.946 1.72-.946l-.343.947-1.29 2.925s-1.378 4.39-2.324 6.11c-.948 1.72-4.218 8.777-4.218 8.777l2.323 1.29 2.065-4.388-.172 3.442s2.065-.602 3.614-1.893c1.55-1.377 4.39-.947 4.39-.947s-.345-2.15-.604-3.27c-.172-1.12 0-3.614 1.98-5.507 1.892-1.894 3.183-2.927 4.388-3.615.603-.43 1.205-1.807 1.55-2.926.343-.948.515-1.722.515-1.722s1.55-4.905 2.84-8.175c1.378-3.27 5.423-3.614 5.423-3.614s4.733-1.55 6.454-2.67c1.72-1.204 4.99-.43 4.99-.43l4.218-3.01-3.442-.43s3.96-2.238 5.077-3.787c1.205-1.55 2.926.774 2.926.774l3.786-1.893s2.668-1.98 3.442-2.926c.775-.947-.344-1.29-.344-1.29l-6.368 2.064-3.184-.344s-5.938 2.84-8.605 4.905c-2.668 2.15-8.26 2.496-8.26 2.496l2.15-3.013s.947-3.098 1.894-4.39c.947-1.376 2.668-2.667 2.84-4.216.258-1.548 1.55-3.097 1.55-3.097s.946-2.668 1.376-4.39c.344-1.72 3.614-1.29 3.614-1.29l-.172 5.938s-3.872 2.67-3.27 4.132c.516 1.55 2.496.258 2.496.258s2.238-.258 3.96-2.323c1.72-2.065 3.613 0 3.613 0s0-1.377 1.377-2.668c1.29-1.378.775-3.27 1.893-5.336 1.12-2.15-1.72-4.56-1.72-4.56s0-1.98.43-3.443c.343-1.548-1.722-2.15-1.722-2.15l-2.322.947s-3.614 1.72-4.217.774c-.515-.946-2.237.43-2.237.43s-2.754 1.722-4.647 2.41c-1.893.776-.516 3.27-.516 3.27s-2.324 1.378-4.82 3.615c-2.494 2.324-1.118 3.873-1.118 3.873s-1.377 1.29-2.323 3.184c-.948 1.98-6.11 8.433-6.11 8.433s-3.96 2.323-5.68 5.163c-1.722 2.84-1.206 4.99-1.206 4.99l-3.786 2.497s-2.668 1.29-4.045 2.237c-1.29.947-3.614.775-3.614.775l1.548-3.012s.946-2.926 1.29-4.99c.43-2.152 4.39-7.66 5.595-8.606 1.12-.948.946-1.722.172-2.066-.775-.43-3.786-.258-4.56-.43-.775-.172 0-2.065-1.378-1.893-1.29.173-2.065 1.722-2.065 1.722l-2.15 3.614-2.84 4.39s-.604-3.013-1.292-4.218c-.775-1.12-2.754-1.12-4.045-1.29-1.377-.173-2.84-.173-2.84-.173l-1.98 1.893c.003 0-1.89-.948-3.01-.776zm4.562 7.66c0 .773 0 3.01-1.893 4.13-1.893 1.205-6.282 3.873-6.282 3.873s-.172 1.12 1.55 1.12c1.72 0 3.355-.173 3.355-.173l-.516 1.893 4.733-1.893s-3.614 4.733-5.507 5.766c-.688.258-1.635.86-2.668 1.463-1.98 1.206-4.044 2.496-4.044 2.496l-3.786-.344s-.258-1.12 0-2.15c.172-.69.43-1.292 1.12-1.722 1.72-.946 3.44-4.733 3.44-4.733l1.378-3.27 1.12-1.72c1.72-1.12 2.667-4.562 3.44-5.164.773-.518 4.56-.346 4.56.428z"/>
  <path d="M17.388 57.428c.946.258 3.098.947 3.098.947l.69 1.72s2.753.604 4.044 1.378c1.377.775 2.668 0 3.786-.43 1.205-.344 3.872.258 4.82-.172.946-.343 6.453-3.613 6.453-3.613s.6 5.163.6 6.11c0 .946 2.497 1.893 3.27 2.495.776.602 1.292-.344 2.238-.774.947-.344 2.324.774 4.045-.344 0 0 0-1.98-.947-4.044-.947-2.065.602-5.335 1.72-7.056 1.12-1.72 4.562-4.56 4.562-4.56s.946-2.152 1.55-2.927c.602-.688 2.323-2.84 2.323-2.84l4.132-7.83 4.82-5.68 2.667-3.443s2.667-4.044 3.613-4.99c.947-.948 1.72-2.84 1.72-2.84H74.1l1.55-2.67-5.164-1.978s-2.84 3.098-3.442 4.39c-.602 1.376-4.56 7.314-4.56 8.088 0 .69-2.84 3.614-4.218 4.733-1.377 1.12-4.39 7.487-5.163 8.433 0 0-.17-3.873-.17-4.82 0-.945-1.378-3.44-1.378-3.44s-2.668-.775-3.614-.775c-.947 0-2.238.602-2.238.602l-2.496-.775s-3.27 1.377-6.884 2.84c-3.614 1.55-5.594 3.098-6.884 4.647-1.377 1.462-3.27 2.667-3.27 2.667s-2.84 1.893-3.96 2.496c-1.204.516-2.925.947-2.925.947s-.946 3.184-2.667 4.39c-1.72 1.118-1.12 4.56-1.12 5.68 0 1.2.948 3.266 1.895 3.438zm8.605-5.507c.603-1.72 1.893-4.043 1.893-4.043l3.27-2.668v-1.894s1.893.603 3.442-.946c1.55-1.55 3.012-3.27 3.012-3.27l3.27-1.463s2.84.516 3.27 1.635c.344 1.205.172 2.323-1.377 3.098-1.55.774-3.442 1.55-4.39 1.72-.945.173-3.01.345-3.01.345s-.26 1.377 1.72 1.55c1.893.17 3.96 0 3.96 0l-1.894 1.892s.773.774 2.064.258c1.377-.603-.688 1.72-.688 1.72s-2.926-.43-3.7.345c-.69.775-3.443 1.377-3.443 1.377l-2.84.344-1.55 1.55c.002 0-3.613.172-3.01-1.55z"/>
</svg>
