<!--
  SVG Music Logos
  David Gilmour - On an Island v0.1.1
  https://github.com/tiagoporto/svg-music-logos
  Copyright (c) 2016-2018 Tiago Porto (http://tiagoporto.com)
-->
<svg xmlns="http://www.w3.org/2000/svg" viewBox="0 0 200 27">
  <path d="M198.735 8.805c-.04 5.027-4.455 5.676-7.403 7.793-.103 1.792 1.406 1.97 1.95 3.118-3.184-.043-5.84-1.468-8.963-1.56-.87 1.606-.84 4.097-2.73 4.677.87-6.143 1.66-12.363 4.67-16.365 2.27 2.184 10.1-.684 12.47 2.337zm-12.08.39c-.14 2.463-1.964 5.3-1.168 7.403 3.582-2.652 9.365-3.103 11.69-7.014-2.362-1.51-7.483-.623-10.52-.39z"/>
  <path d="M174.187 9.195c-.148 2.55-4.895 6.88-2.727 10.52 6.476-.536 8.784-5.242 11.3-9.74-1.573 4.622-5.778 13.585-12.47 11.3-4.276-1.46-2.602-12.863 3.897-12.08z"/>
  <path d="M137.56 7.247c.99 3.037-.364 8.417 1.56 10.52 6.903.02 7.645-6.12 11.69-8.962 1.407.28 1.398 1.978 1.558 3.508 3.08-1.01 6.53-3.07 10.13-2.338.537.502.385 1.692.39 2.727 1.323.106 3.16-.3 3.896.39-.72 6.034-7.628 5.88-12.86 7.403-.063 1.232 1.037 1.303.78 2.727-.976-.58-1.367-1.75-1.947-2.727-1.263.53-1.94-.128-4.286 0-3.57-3.455 1.56-5.852 1.95-8.962-3.22 4.877-14.78 16.13-14.41 0-3.09 3.79-5.51 8.25-8.18 12.468 1.2-6.07 3.52-14.4 9.74-16.75zm15.587 11.3c5.12-.597 10.14-1.29 12.858-4.287-4.674.894-15.618-2.785-12.858 4.286zm-4.676-.39c1.28.022 1.49 1.108 3.12.78.09-1.387-.26-2.335-1.17-2.728-.54.75-1.85.74-1.95 1.94z"/>
  <path d="M126.65 8.416h1.17c1.52 5.192-3.085 7.538-4.676 10.91.538 1.586 3.408.477 4.676.39-1.666 1.267-6.38 2.517-7.403 0 1.078-4.765 4.682-7.007 6.233-11.3z"/>
  <path d="M121.974 9.584c.95 4.112-2.115 7.464-3.506 10.52-1.452-3.12.284-9.505 3.506-10.52z"/>
  <path d="M122.754 5.69C110.462 7.812 96.5 8.267 90.802 16.987c4.72 3.28 12.74.82 19.483.78 2.558-1.86 2.96-5.87 7.014-6.235-.83 5.945-7.56 9.314-10.53 14.416-.45-2.402 2.66-4.604 3.5-7.014-6.89.496-17.89 4.735-22.6-.78.28-7.367 9.77-11.11 18.31-12.86 5.264-1.074 13.617-2.202 16.754.393z"/>
  <path d="M65.086 18.157c-1.163.525-1.72 1.656-1.948 3.118.103-2.653.698-13.838 5.845-13.638.387 3.293-2.378 6.678-3.507 9.74 1.868 1.078 3.568-1.355 5.455-1.558.09-2.52 1.24-3.96 1.95-5.85-.22-.95-2.52.18-2.34-1.17C73.99 5.97 83 7.37 85.35 10.36c-1.262 6.4-8.413 6.91-14.024 8.96-.995.604-1.802 3.86-1.168.78-1.127-1.21-5.093.417-5.066-1.95zm8.962-3.506c3.334-.95 6.824-1.74 8.572-4.28-4.736-2.07-8.12-.63-8.572 4.29z"/>
  <path d="M51.837 8.805h1.56c1.45 3.356 1.897 7.714 4.675 9.74 1.924-1.97 3.212-4.58 4.676-7.012-.14 3.06-1.27 9.136-4.286 9.74-4.6.925-7.007-7.573-6.625-12.468z"/>
  <path d="M49.11 12.702c-.39-1.43 1.044-4.412-1.17-4.676-2.62 1.28-3.125 6.74-6.623 5.846.838-1.53.06-2.96-.39-4.287C33.684 4.575 20.08 3.663 8.975 2.96c-2.043-.128-5.328-1.528-6.624.78 3.79 2.194 11.31.64 15.59 2.338-2.41 3.716-2.94 9.03-3.89 13.248-2.18.15-4.07.6-6.62.39 4.47 1.07 8.33 2 12.86 1.948 8.65-.098 16.568-4.95 21.82-5.845.23 1.44-1.2 2.25-.39 3.11 2.72.11 2.29-2.91 4.29-3.51 2.875-.54 3.05 1.62 5.458 1.55-.1-1.04-1.71-1.98-2.34-4.288zm-34.29 6.624c3.195-3.428 4.26-8.99 7.014-12.858 5.614.508 14.256 1.317 17.924 5.065-4.12 6.79-16.198 5.622-24.938 7.793zm33.012-6.744c-.48-.48-1.203.668-1.684-.294.48 0 .963-.48.963-.963 0-.48.32-.614.8-.614 0 .97-.07.91-.07 1.88z"/>
</svg>
