<svg xmlns="http://www.w3.org/2000/svg" viewBox="0 0 200 34">
  <path d="M161.087 22.086v1.675h36.16v-3.13h-1.72v1.46h-5.364V17.6h2.777v1.057h1.45V14.98h-1.45v.937h-2.777v-3.28h5.363v1.172h1.68v-2.82h-17.392v1.72h4.04v9.36h-2.075v-1.49h-1.64v1.49h-5.37v-9.36h2.85v-1.72h-10.78V9.6c0-1.742-3.1-1.962-4.84-1.962h-29.57V9.47h18.75v12.74h-1.93v-3.445c0-1.16-1.8-1.396-3.208-1.61 1.71-.378 1.905-.738 1.905-1.49v-2.863c0-1.677-3.668-1.722-5.553-1.722h-20.01v1.97h1.402v8.642c-1.474.6-4.244.944-4.244-.7V13.05h1.732v-1.97h-9.08V8.19c0-2.203-3.522-3.305-5.724-3.305H50.05V6.82h44.33v4.348H38.15V6.965c0-2.274-3.915-3.724-6.193-3.724H2.754v2.07h16.49v22.32h-5.308v2.01h18.028c2.658 0 6.194-1.11 6.194-3.69v-2.06h45.928v-1.68H78.01v-4.28h2.673c1.658 0 6.732-.01 6.732-2.39v-2.35h6.974v15.48H77.37v2.09h25.83v-2.09h-1.68V18.298h4.964c2.203 0 5.724-1.102 5.724-3.305v-1.94h1.017V22c0 2.688 8.346 1.853 10.568 1.194v.688h16.295V22.21h-1.44v-4.254h2.892c.48 0 1.413.135 1.413.72v5.21h8.23v2.752h-44.7v2.03h68.2v-2.03h-17.235V15.852h2.802c2.31 0 6.597.193 6.597-2.116v-1.022h1.625v9.372h-7.385zm-129.66 4.792c0 .61-.837 1.12-1.446 1.12h-3.91V5.188h3.91c.6 0 1.45.46 1.45 1.06v20.63zm9.865-4.67h-3.135v-9.406h3.135v9.407zm15.304 0h-1.563v-1.496h-1.68v1.497h-5.858v-4.37h3.313v.97h1.45V15.3h-1.45v.854h-3.313V12.8h5.86v1.173h1.678V12.8h1.563v9.408zm15.068 0h-1.687V20.63h-1.68v1.58h-6.064v-4.363h3.56v.974h1.452v-3.51h-1.45v.86h-3.562v-3.36h6.065v1.26h1.68v-1.26h1.686v9.41zm10.12-6.557c0 .42-.668.67-1.084.67h-2.69v-3.56h2.69c.417 0 1.084.25 1.084.67v2.23zm24.08-.04c0 .42-.845.88-1.317.88h-3.028V6.46h3.02c.47 0 1.32.46 1.32.873v8.273zm26.96 6.61h-3.277v-9.53h3.276v9.53zm9.555-6.512c0 .416-.67.667-1.09.667h-2.65v-3.68h2.65c.41 0 1.08.25 1.08.667v2.34zm18.79-2.186c0 .535-.85.833-1.32.833h-2.41V9.12h2.41c.47 0 1.32.215 1.32.75v3.635z"/>
</svg>
