<!--
  SVG Music Logos
  Dokken - Breaking the Chains v1.0.0
  https://github.com/tiagoporto/svg-music-logos
  Copyright (c) 2016-2018 Tiago Porto (http://tiagoporto.com)
-->
<svg xmlns="http://www.w3.org/2000/svg" viewBox="0 0 200 62">
  <path d="M174.544 31.116L182.974 16.61 187.697 14.664 178.49 30.349 186.491 33.968 198 14.774 189.889 11.154 185.226 12.735 186.272 10.935 173.667 15.432 165.775 28.813z"/>
  <path d="M152.184 32.542L161.062 29.581 152.622 25.632 160.404 13.238 162.268 14.116 155.691 25.523 169.173 21.135 172.352 15.541 161.72 10.716 148.676 15.103 141.223 27.387z"/>
  <path d="M74.537,32.391l11.812-3.885l7.682-12.978l-10.573-4.959l-12.721,4.133l-7.434,12.316L74.537,32.391z M82.302,12.553l2.478,1.157l-9.995,16.284l-2.478-1.075L82.302,12.553z"/>
  <path d="M64.559,21.542c2.519-3.998,0.98-8.606-5.458-13.949c-2.544-1.526-3.223-3.627-2.855-6.05   c-0.56,0-1.12,0-1.679,0C47.697,7.128,29.188,9.077,24.384,16.13c-1.249,1.834-1.992,4.142-2.23,6.924  c0,3.158,2.127,4.853,5.71,5.546c1.091-0.112,1.288-0.672,0.588-1.681c-1.16-0.724-1.502-2.179-1.263-3.865 C28.419,14.368,40.602,9.813,47.849,7.93c0.733,2.749,1.786,5.096,3.907,6.11L38.78,18.265l-8.57,15.209c-1.566,0-3.132,0-4.698,0   C17.675,36.416,9.837,39.357,2,42.298h27.963l27.627-8.571C59.913,29.665,62.236,25.604,64.559,21.542z M55.07,19.189   c-3.751,5.854-7.501,11.708-11.252,17.562c0-1.093,0-2.185,0-3.277c-4.047,0-8.094,0-12.141,0l11.302-3.698l9.554-15.425    C56.431,16.545,55.543,17.992,55.07,19.189z"/>
  <path d="M109.467,33.666c-1.795,2.895-3.59,5.791-5.386,8.686l16.722,0.005l4.946-8.691H109.467z"/>
  <path d="M136.09,33.666c-1.74,2.871-3.601,5.826-5.592,8.694l57.544,0.018v-4.357l-9.852-4.356H136.09z"/>
  <path d="M66.604 33.666L38.059 42.331 94.935 42.349 99.624 33.666z"/>
  <path d="M93.247,45.474c-1.51,4.896-2.386,10.44-0.394,14.986c3.743-6.036,7.486-12.072,11.228-18.109l-9.147-0.003  L93.247,45.474z"/>
  <path d="M115.178,24.456l-7.269-3.637l-7.161,3.264l4.72-7.924l4.341,3.008l11.73-4.133l-7.93-3.885l-6.334,1.977    l5.756-9.665l-12.804,4.298L87.671,28.754l8.178,3.555l3.492-5.864l5.335-2.135l-5.053,9.357h9.844 C111.371,30.596,113.275,27.526,115.178,24.456z"/>
  <path d="M120.324,43.201c-3.335,6.177-6.928,11.693-10.719,17.589c8.206-2.487,15.099-10.081,20.893-18.429  l-9.694-0.003L120.324,43.201z"/>
  <path d="M141.575,24.456l-7.269-3.637l-7.161,3.264l4.72-7.924l4.341,3.008l11.73-4.133l-7.93-3.885l-6.334,1.977    l5.756-9.665l-12.804,4.298l-12.556,20.996l8.178,3.555l3.493-5.864l5.335-2.135l-5.324,9.357h10.341   C138.071,30.396,139.896,27.239,141.575,24.456z"/>
</svg>
