<!--
  SVG Music Logos
  Dr. Sin - Insinity v0.1.1
  https://github.com/tiagoporto/svg-music-logos
  Copyright (c) 2016-2018 Tiago Porto (http://tiagoporto.com)
-->
<svg xmlns="http://www.w3.org/2000/svg" viewBox="0 0 200 90">
  <path d="M97.196,26.864c-0.096,0.422-0.229,0.718-0.439,0.906c0,0-0.344,0.314-1.031,0.96c-1.221,1.597-3.111,2.915-5.649,3.938  c-0.802,0.332-1.47,0.771-2.004,1.301c-0.592,0.574-0.954,0.879-1.069,0.924c-0.363,0.197-0.706,0.377-1.031,0.529  c-0.305,0.278-0.916,0.637-1.832,1.068c-0.725,0.619-1.488,1.265-2.29,1.938c-1.183,0.816-3.302,1.579-6.298,2.315  c-2.481,0.61-4.008,1.005-4.561,1.175c-1.584,0.502-3.225,0.754-4.924,0.754c-2.691,0-4.485-0.386-5.363-1.175  c-0.63-0.547-0.191-0.978,1.336-1.283c0.954-0.377,2.214-0.852,3.798-1.427c0.458-0.17,0.993-0.448,1.603-0.843 c0.21-0.179,0.515-0.368,0.897-0.547c0.248-0.144,0.458-0.224,0.649-0.26c0.191-0.036,0.439-0.233,0.744-0.601  c0.687-0.852,2.138-1.893,4.332-3.113c1.679-0.924,2.519-1.929,2.519-3.005c0-0.296-0.076-0.682-0.229-1.166    c-0.153-0.484-0.229-0.87-0.229-1.148c0-0.251,0.096-0.727,0.306-1.417c0.191-0.691,0.286-1.516,0.286-2.467    c0,0.179-0.076-1.92-0.229-6.289c-0.057-1.543-0.63-2.566-1.736-3.068c-0.305-0.565-0.611-0.996-0.935-1.31 c-0.573-0.52-1.393-0.996-2.462-1.444c-1.431-0.592-2.29-0.987-2.557-1.184c-0.42-0.628-0.954-1.382-1.603-2.27 c-0.057-0.179-0.439-0.341-1.126-0.484c-1.336-0.26-2.137-0.44-2.405-0.52l-2.653,0.099c-0.267,0.018-0.992-0.054-2.195-0.206   c-1.183-0.153-2.042-0.233-2.595-0.233c-0.229,0-0.744,0.027-1.565,0.09c-0.802,0.054-1.279,0.081-1.431,0.081h-2.405   c-0.783,0-1.584,0.027-2.443,0.081c-0.859,0.063-1.298,0.09-1.317,0.09H46.47c-0.706,0-1.451-0.126-2.214-0.359 c-0.763-0.242-1.164-0.359-1.221-0.359c-0.382,0-1.145,0.179-2.29,0.547c-0.801,0.269-1.775,0.493-2.939,0.691  c-1.298,0.224-2.195,1.175-2.729,2.844c-0.267,0.879-0.706,1.732-1.298,2.539c-0.153,0.197,0,0.736,0.439,1.624 c0.554,1.032,0.821,1.803,0.821,2.315c-0.057,0.26,0.038,0.933,0.305,2.018c0.229,1.202,0.343,2.072,0.343,2.602    c0,2.019-0.248,3.4-0.744,4.145c-0.096,0.108-0.363,0.386-0.821,0.816c-0.134,0.144-0.21,0.314-0.21,0.529  c0,0.269,0.019,0.484,0.076,0.655c0.401,0.834,0.592,1.373,0.592,1.615c0,0.7,0.42,1.74,1.24,3.113 c-0.076,0.619-0.134,1.122-0.134,1.516c0,0.162,0.077,0.458,0.191,0.87c0.114,0.413,0.171,0.789,0.171,1.121v1.346  c0,0.789,0.496,1.337,1.47,1.66c1.851,0.395,3.512,0.807,4.981,1.247c0.057,0.009,0.611-0.027,1.641-0.108  c1.221-0.117,2.233-0.17,2.996-0.17c1.088,0,1.928,0.116,2.557,0.341l1.126,0.628c0.687,0.197,1.412,0.44,2.176,0.718   c0.095,0.206-0.019,0.386-0.344,0.52l-1.355,0.484c-1.012,0.045-2.615,0.224-4.828,0.547c-0.592,0.117-1.012,0.17-1.241,0.17    c0.114,0-0.439-0.081-1.679-0.242c-1.24-0.161-2.481-0.242-3.702-0.242c-2.023,0.153-3.282,0.224-3.798,0.206   c-0.477,0.027-1.374-0.009-2.672-0.117c-1.317-0.099-1.985-0.153-2.023-0.153c-0.172-0.018-0.382-0.018-0.63-0.018  c-0.954,0-2.462,0.099-4.504,0.314c-2.595,0.26-4.809,0.395-6.623,0.395c-0.935,0-1.66-0.018-2.195-0.045   c-1.317-0.036-3.016-0.126-5.096-0.251c-0.191-0.009-0.744-0.054-1.66-0.126c0.305,0.027-0.783,0.117-3.225,0.278   c-0.801,0-1.87-0.233-3.225-0.691c-1.298-0.35-1.87-0.888-1.699-1.624c0.783-0.709,2.042-1.157,3.817-1.337l5.229-0.547 c1.374-0.126,2.328-0.817,2.863-2.063c0.649-1.453,1.126-2.252,1.393-2.395c0.534-0.206,0.859-0.529,0.973-0.96 c0.038-0.323,0.076-0.852,0.153-1.588c0.076-0.736,0.191-1.785,0.344-3.14c-0.153-1.193-0.229-1.983-0.229-2.377    c0-0.188,0.038-0.386,0.134-0.583c0.382-0.996,0.592-1.857,0.592-2.584c0-0.323-0.076-0.646-0.191-0.969l-0.305-0.816   c-0.057-0.673-0.096-1.256-0.096-1.767c0-0.511,0.057-1.095,0.172-1.74c0.095-0.646,0.153-1.175,0.153-1.597    c0-0.825-0.114-1.669-0.324-2.521V13.29c0-0.897-0.115-1.453-0.363-1.678c-0.649-0.457-1.355-1.256-2.1-2.369   c-0.63-0.924-1.374-1.534-2.233-1.83C11.831,7.199,11.163,7.1,10.514,7.1C9.445,7.172,8.376,7.199,7.327,7.199  c-1.451,0-2.405-0.045-2.863-0.143c0,0-0.496-0.269-1.508-0.816C2.746,6.122,2.25,5.853,1.468,5.44 C1.086,5.243,0.934,5.019,1.029,4.785c0-0.269,0.21-0.493,0.649-0.673c0.439-0.179,0.84-0.368,1.221-0.547  c0.515-0.296,1.374-0.502,2.595-0.61C5.896,2.91,6.602,2.937,7.651,3.036l2.863,0.233c1.603-0.278,2.882-0.422,3.798-0.422  c0.114,0,0.687,0.036,1.718,0.108c1.031,0.072,1.87,0.108,2.481,0.108c1.355,0,2.691-0.09,4.027-0.278  c1.088,0.117,1.813,0.17,2.195,0.17c1.145-0.117,2.29-0.17,3.455-0.17c0.82,0,1.698,0.054,2.595,0.17c0,0,0.534-0.027,1.622-0.09    c1.088-0.054,1.966-0.081,2.615-0.081c2.595,0,5.515,0.09,8.722,0.278c0.477,0.027,1.05,0.027,1.698,0  c2.806-0.143,4.37-0.215,4.714-0.215c1.126,0,2.195,0.135,3.206,0.395c1.107,0.413,1.813,0.619,2.099,0.619 c0.458,0,1.126-0.072,2.023-0.206c1.374-0.215,2.348-0.323,2.958-0.323c0.114,0,1.641,0.269,4.599,0.799    c1.374,0.251,2.328,0.377,2.863,0.377c1.279,0,2.118,0.036,2.5,0.108L75.02,5.27c0.687,0.099,1.298,0.323,1.832,0.691   c1.451,1.023,3.245,1.848,5.363,2.485c0.248,0.278,1.202,0.763,2.863,1.444c0.363,0.448,0.783,0.924,1.26,1.408 c0.706,0.314,1.431,0.852,2.195,1.633c0.744,0.781,1.26,1.211,1.565,1.301c0.286,0.09,0.554,0.242,0.802,0.458  c0.744,0.673,1.202,1.05,1.374,1.13c0.573,0.269,1.03,0.664,1.393,1.175c0.63,0.96,1.546,1.731,2.729,2.315 c0.534,0.269,0.801,1.31,0.801,3.14c0,0.332,0.057,0.816,0.191,1.435c0.114,0.628,0.172,0.933,0.172,0.915  C97.559,25.15,97.445,25.841,97.196,26.864L97.196,26.864z M196.608,38.49c0,1.13-0.954,1.848-2.863,2.135  c-1.049,0.17-2.156,0.619-3.32,1.346c-0.859,0.538-2.405,0.861-4.599,0.969c-0.42,0-1.202,0.099-2.367,0.296    c-1.164,0.197-1.851,0.296-2.061,0.296c-0.573,0-1.527,0.081-2.882,0.242c-1.355,0.161-2.004,0.242-1.947,0.242 c-1.374-0.099-2.92-0.422-4.657-0.969c-1.488-0.251-3.034-0.556-4.599-0.906c-0.573-0.233-1.412-0.592-2.5-1.077    c-1.088-0.485-1.737-1.148-1.985-1.992c-0.381-0.709-0.763-1.444-1.164-2.207c0-0.305,0.057-0.538,0.134-0.691  c0.401-0.789,0.591-1.346,0.591-1.687c0-0.511-0.42-1.391-1.259-2.629c-0.477-0.673-0.706-1.552-0.706-2.647    c0-0.655-0.267-1.139-0.821-1.444c-1.088-0.637-1.985-1.337-2.672-2.108c-0.477-0.547-0.935-0.852-1.393-0.924  c-0.706-0.126-1.374-0.269-1.966-0.422c-1.431-0.099-3.435-0.422-5.992-0.969c-0.783-0.359-1.336-0.843-1.699-1.444 c-0.153-0.449,1.012-0.87,3.493-1.265c1.717-0.269,3.302-0.395,4.733-0.395c0.477,0,1.87,0.099,4.16,0.314  c0.305,0,0.554-0.072,0.764-0.215l2.786-1.068c0,0,0.554-0.449,1.698-1.346c0.077-0.188,0.324-0.368,0.706-0.547l0.897-0.422    c0.153-0.081,0.382-0.556,0.687-1.417c0.324-0.861,0.477-1.507,0.477-1.929c0-1.902-1.088-3.122-3.263-3.651    c-0.84-0.215-1.469-0.413-1.889-0.592l-2.099-0.924c-0.859-0.099-2.653-0.475-5.363-1.139c-1.221-0.054-2.901-0.242-5.057-0.565 c-1.546-0.448-3.149-0.673-4.79-0.673c-1.317,0-2.481,0.206-3.531,0.61c-0.649,0.242-1.546,0.718-2.634,1.453   c-0.725,0.305-1.431,0.619-2.156,0.942c-0.706,0.422-1.068,1.005-1.068,1.749c0,0.35-0.191,1.059-0.592,2.144   c0,0.296,0.248,0.673,0.725,1.13c0.363,0.251,0.63,0.449,0.802,0.592c0.267,0.206,0.573,0.816,0.897,1.83   c0.095,0.233,0.133,0.395,0.133,0.484c0,0.323-0.114,0.646-0.363,0.969c0,0.108,0.191,0.52,0.592,1.238 c0.076,0.197,0.382,0.538,0.916,1.041c0.516,0.493,0.783,0.789,0.783,0.888c0.076,0.296-0.057,0.547-0.458,0.763    c-1.164,0.619-1.737,1.337-1.737,2.162c0,0.278-0.096,0.646-0.286,1.104c-0.191,0.458-0.286,0.736-0.248,0.834  c0.057,0.78,0.096,1.211,0.096,1.283c0,0.422-0.172,0.933-0.516,1.534c-0.343,0.601-0.515,0.987-0.515,1.157    c0-0.117,0.344,0.807,1.031,2.754c0,0.206,0.038,0.512,0.114,0.906c0.076,0.386,0.115,0.61,0.115,0.646 c0,0.44-0.038,0.79-0.096,1.077l-0.229,0.861c0,1.077,0.553,1.875,1.66,2.395c0.554,0.269,1.107,0.511,1.641,0.736  c0.573,0.395,1.87,0.718,3.893,0.969c2.157,0.269,3.225,0.727,3.225,1.391c0,0.736-0.916,1.148-2.729,1.238 c-3.187,0.135-4.962,0.206-5.325,0.206c-1.011,0-1.928-0.045-2.729-0.144c-2.176-0.296-3.626-0.458-4.332-0.484 c-4.771,0.422-8.721,0.628-11.813,0.628c-0.534,0-1.45-0.036-2.748-0.126c-1.298-0.081-1.947-0.126-1.947-0.126 c-1.221,0-2.29,0.215-3.225,0.637c-0.153,0.054-0.344,0.081-0.573,0.081c0.076,0-0.954-0.162-3.091-0.485   c-0.573-0.081-1.012-0.215-1.336-0.395c-0.42-0.242-0.745-0.404-0.954-0.484c-1.355-0.44-2.042-0.87-2.042-1.31 c0-0.323,0.344-0.61,1.031-0.861c0.286-0.143,0.553-0.188,0.802-0.143c0.687,0.063,1.412,0.135,2.195,0.206 c1.966,0,3.455-0.305,4.466-0.924c0.897-0.547,2.099-1.085,3.588-1.624c1.317-0.475,1.985-0.736,2.004-0.798    c0.248-0.35,0.363-0.969,0.363-1.866c0-1.4-0.077-2.539-0.229-3.409l0.306-3.382c0.095-0.278,0.286-1.077,0.592-2.377   c0.152-0.628,0.229-1.059,0.229-1.283c-0.153-0.502-0.229-0.861-0.229-1.077c0-0.063,0.076-0.314,0.229-0.753   c0-0.368-0.382-1.265-1.126-2.691c-0.477-0.852-0.725-1.453-0.725-1.785c0-0.09,0.172-0.637,0.477-1.66 c0.325-1.023,0.477-1.821,0.477-2.377c0-1.22-0.535-2.225-1.603-3.005c-0.267-0.52-0.744-1.095-1.393-1.722 c-0.573-0.296-1.26-0.691-2.061-1.184c-0.42-0.52-1.202-0.879-2.367-1.094c0-0.009-1.145-0.153-3.454-0.413 c-0.916-0.099-1.622-0.152-2.099-0.152c-0.897,0.072-1.813,0.117-2.729,0.144c-1.393-0.072-2.309-0.807-2.729-2.207 c-0.153-0.269,0.076-0.538,0.687-0.816c0.611-0.278,1.183-0.422,1.679-0.422c2.634,0,4.809-0.063,6.527-0.189   c1.622-0.126,2.462-0.188,2.557-0.188c1.679,0.045,2.385,0.063,2.157,0.063c0.859,0,1.546-0.027,2.042-0.081l1.832-0.188    c0.305,0,0.859,0.072,1.641,0.224c0.782,0.152,1.317,0.233,1.584,0.251c0.153,0.018,1.393-0.018,3.721-0.081    c2.825-0.081,5.248-0.126,7.29-0.126c0.592,0,1.47,0.09,2.634,0.269c0.439,0.072,0.859,0.108,1.26,0.108    c0.381,0.027,1.431-0.117,3.168-0.44c0.783,0.117,1.698,0.17,2.767,0.17c0.344,0,0.973-0.054,1.928-0.161   c0.954-0.099,1.641-0.153,2.061-0.153c1.183,0,2.653,0.126,4.389,0.377c1.069,0.054,2.519,0.17,4.371,0.332 c0.572,0.099,1.221,0.153,1.928,0.153c-0.019,0,0.763-0.126,2.366-0.359c1.622-0.242,3.225-0.359,4.829-0.359   c2.271,0,3.95,0.395,5.019,1.175c1.431,1.041,3.034,1.704,4.828,1.992c2.443,0.224,4.428,0.448,5.973,0.655 c1.527,0.206,2.558,0.745,3.073,1.597c0.229,0.422,0.916,0.996,2.042,1.723c0.992,0.628,1.45,1.328,1.393,2.099 c-0.096,1.328-0.134,1.83-0.134,1.516c0,0.063,0,0.135,0,0.206c0,0.269-0.172,0.682-0.534,1.238    c-0.763,1.292-1.794,2.018-3.073,2.189c-1.278,0.161-1.947,0.251-2.004,0.251c-0.897,0.206-2.118,0.637-3.703,1.301 c-1.069,0.574-2.691,1.337-4.886,2.288c-0.534,0.099-1.012,0.26-1.393,0.485l-1.47,0.691c-0.267,0.081-0.783,0.161-1.527,0.224  c-0.763,0.063-1.202,0.108-1.317,0.153c-0.534,0.153-0.802,0.341-0.802,0.547c0,0.242,0.382,0.485,1.165,0.736  c0.954,0.108,1.565,0.197,1.832,0.251c0.649,0.126,1.145,0.314,1.47,0.565c0.84,0.601,2.023,1.247,3.531,1.938  c1.221,0.538,1.89,0.861,1.966,0.96c0.305,0.637,1.126,1.426,2.462,2.395c0.306,0.224,0.84,0.951,1.622,2.189   c0.706,1.157,1.68,2.126,2.901,2.898c0.057,0.323,0.363,0.861,0.897,1.633c0.363,0.314,1.374,0.637,3.035,0.969 c1.527,0.305,2.652,0.458,3.397,0.458c0.153,0,1.107-0.215,2.844-0.646c1.756-0.44,2.787-0.664,3.111-0.7   c0.42-0.036,0.897,0.099,1.431,0.422C196.322,37.656,196.608,38.051,196.608,38.49L196.608,38.49z"/>
  <path d="M61.177,72.325c0.083,0.145,0.149,0.273,0.232,0.382v0.281c0,0.145-0.149,0.536-0.431,1.19  c-0.066,0.672-0.149,1.335-0.232,2.007c-0.132,0.581-0.431,1.181-0.928,1.807c-0.381,0.681-0.895,1.553-1.508,2.616 c-0.216,0.581-0.646,1.017-1.293,1.299c-0.978,0.436-1.707,0.936-2.171,1.49c-0.464,0.245-0.994,0.572-1.591,0.981  c-0.447,0.3-1.425,0.754-2.95,1.362c-1.823,0.536-3.762,1.099-5.834,1.68c0,0-2.801,0.091-8.419,0.272  c-1.144,0.027-1.724,0.046-1.724,0.046h-1.193c-1.558,0-3.182-0.173-4.856-0.509c-0.63-0.127-1.276-0.418-1.939-0.863   c-0.679-0.445-1.061-0.681-1.127-0.69c-2.304-0.372-3.812-0.554-4.508-0.554c-2.436,0-4.889,0.4-7.342,1.208    c-0.696,0.227-1.425,0.536-2.171,0.917c-1.144,0.581-2.188,0.872-3.116,0.872c-0.646,0-1.177-0.2-1.591-0.6 c-0.099-0.254-0.265-0.554-0.464-0.908c-0.414-0.327-0.713-0.609-0.895-0.836c-0.547-1.299-0.812-1.989-0.812-2.062 c0-0.254,0.331-0.69,0.978-1.308c0.663-0.618,0.994-1.081,0.994-1.372c0-0.1-0.116-0.445-0.348-1.026   c-0.232-0.581-0.348-1.108-0.348-1.571c0-0.554,0.033-0.972,0.116-1.253l1.21-5.177c0.431-1.017,1.293-1.698,2.552-2.025    c0.414-0.109,0.828-0.164,1.21-0.164c0.514,0,1.044,0.109,1.591,0.327c0.547,0.218,0.928,0.409,1.177,0.563 c0.564,0.409,1.061,1.008,1.508,1.789c0.315,0.554,1.011,1.462,2.105,2.725c0.199,0.173,0.845,1.099,1.939,2.789    c0.779,1.181,1.807,1.971,3.099,2.389c1.823,0.545,3.265,1.081,4.359,1.589c0.663,0.327,1.16,0.509,1.475,0.536l1.74,0.109  c2.188,0.536,4.375,1.063,6.563,1.571c0.862,0,1.658-0.182,2.37-0.554c1.475-0.154,2.95-0.3,4.442-0.445    c1.392-0.182,2.403-0.409,3.016-0.681l1.79-0.536c1.061-0.3,1.74-0.608,2.039-0.926c0.298-0.318,0.895-0.79,1.773-1.417 c0.381-0.263,0.696-0.699,0.928-1.299c0.149-0.418,0.232-0.808,0.232-1.163c0-1.508-0.795-2.598-2.403-3.279    c-1.243-0.518-2.469-1.026-3.663-1.535c-0.663-0.4-1.856-0.736-3.563-1.026c-0.63-0.109-1.972-0.291-4.06-0.527 c-2.088-0.245-3.977-0.572-5.685-0.999c-3.381-0.836-5.751-1.29-7.16-1.362c-1.127,0-2.37-0.182-3.679-0.536    c0.016,0-0.53,0.064-1.641,0.191c-1.011,0.118-1.723,0.136-2.138,0.063c-1.574-0.227-3.066-0.354-4.458-0.381   c-1.243-0.018-2.006-0.263-2.304-0.745c-0.878-1.535-1.707-2.607-2.486-3.215c-0.696-0.527-1.591-1.199-2.668-2.017 c-0.265-0.654-0.729-1.399-1.409-2.244c-0.928-0.39-1.392-1.035-1.392-1.907v-0.708c0-0.618,0.232-1.108,0.696-1.462    c0.646-0.373,1.077-0.627,1.293-0.772c0.978-2.607,2.867-4.333,5.668-5.168c0.895-0.272,2.453-0.945,4.657-2.025    c1.143-0.536,2.768-0.808,4.889-0.808c0.829,0,1.658-0.045,2.47-0.136c0.812-0.091,1.376-0.136,1.69-0.136  c1.807,0,3.646-0.136,5.486-0.409c0.845-0.127,1.707-0.191,2.602-0.191c1.077,0,2.337,0.436,3.762,1.317    c1.558,0.963,2.569,1.48,3.033,1.553c0.961,0.154,1.79,0.236,2.519,0.236c0.563,0,1.84-0.155,3.812-0.445l2.552-0.39    c0.348-0.036,0.928-0.227,1.757-0.572c0.779-0.3,1.226-0.445,1.359-0.445l1.856-0.127c0.961,0,1.541,0.5,1.757,1.508    c0.083,0.345,0.216,0.727,0.431,1.145c0.199,0.418,0.298,0.663,0.298,0.736c0,0.064-0.166,0.509-0.497,1.317    c-0.332,0.863-0.547,1.517-0.63,1.962c-0.1,1.553-0.282,3.324-0.53,5.295c-0.414,0.936-1.276,1.808-2.569,2.616 c-0.414,0.273-0.978,0.409-1.707,0.409c-1.376,0-2.005-0.381-1.906-1.126c-0.928-2.852-2.254-4.914-3.961-6.176 c-1.425-1.035-3.762-1.88-6.994-2.552c-0.381-0.082-1.011-0.318-1.856-0.699c-0.762-0.327-1.326-0.491-1.724-0.491  c-1.177,0-2.486-0.118-3.878-0.345c-0.464-0.073-1.094-0.109-1.856-0.109c-0.779,0-1.607,0.082-2.486,0.236 c-1.691,0.273-3.348,0.636-4.972,1.09c-1.972,0.536-3.248,1.154-3.812,1.844c-0.265,0.327-0.398,0.89-0.398,1.689   c0,0.636,0.646,1.526,1.906,2.68c0.812,0.908,2.635,1.508,5.486,1.789c0.646,0.073,1.094,0.109,1.359,0.109 c0.282,0,0.547-0.036,0.812-0.109c0.265-0.073,0.563-0.073,0.895,0c0.381,0.082,0.912,0.345,1.591,0.79 c0.696,0.481,1.127,0.745,1.276,0.781c1.425,0.073,3.911,0.445,7.458,1.108c2.121,0.572,3.895,0.854,5.287,0.854h1.21   c0.514,0,0.961-0.018,1.359-0.045l1.193-0.109c1.492,0,2.602,0.309,3.381,0.917c1.06,0.827,1.707,1.263,1.906,1.326 c2.42,0.581,4.028,1.163,4.856,1.744c0.315,0.127,0.779,0.59,1.409,1.399C58.923,69.409,59.884,70.662,61.177,72.325L61.177,72.325z M107.417,49.335c-0.481,0.354-0.895,0.699-1.293,1.026c-0.663,0.391-1.442,0.59-2.287,0.59c-0.365,0.027-1.657,0.309-3.878,0.836    c-0.547,0.127-1.608,0.518-3.199,1.19c-0.712,0.863-1.077,1.571-1.077,2.125c0.066,0.372,0.116,0.681,0.116,0.917   c0,0.254-0.116,0.881-0.348,1.889c-0.232,0.999-0.348,1.662-0.348,1.989c0.514,1.362,0.762,2.652,0.762,3.87    c0,0.681-0.232,1.462-0.729,2.343c-0.497,0.881-0.746,1.353-0.746,1.426c-0.464,0.754-0.696,1.844-0.696,3.261v0.654    c0-0.054,0.066,0.163,0.199,0.654c0.132,0.491,0.166,0.927,0.116,1.308c-0.216,0.654-0.315,1.362-0.315,2.135   c0,0.318,0.066,0.772,0.199,1.362c0.132,0.581,0.199,1.226,0.199,1.935c0,0.963,0.066,1.553,0.182,1.762    c0.05,0.118,0.696,0.817,1.906,2.107c1.11,1.181,2.353,1.771,3.696,1.771c0.331,0.027,0.928-0.064,1.79-0.282   c0.199-0.054,0.431-0.109,0.696-0.173c0.514,0.127,0.845,0.227,0.961,0.282c0.679,0.282,1.011,0.645,1.011,1.081    c0,1.008-0.63,1.653-1.889,1.917c-0.348,0.073-1.127,0.109-2.37,0.109h-1.491c-0.994,0-1.906-0.073-2.718-0.209 c-0.597-0.073-1.508,0.027-2.751,0.318c-0.796,0.182-1.773,0.273-2.917,0.273c-0.481,0-1.442-0.182-2.867-0.554 c-0.829-0.209-1.823-0.318-3-0.318c-1.475,0.536-2.735,0.808-3.762,0.808c-0.381,0-0.713,0-0.978,0 c-0.928,0.045-1.839,0.063-2.718,0.063c-0.696,0-1.773-0.1-3.265-0.3c-1.475-0.2-2.254-0.291-2.37-0.291    c-0.663,0.064-1.11,0.1-1.309,0.1c-0.464,0.027-0.729-0.009-0.779-0.1c-0.679-0.3-1.011-0.754-1.011-1.362  c0-0.491,0.332-0.963,1.011-1.426c0.547-0.036,1.425-0.1,2.635-0.2c0.116-0.009,0.779-0.164,2.022-0.463    c1.061-0.245,1.989-0.363,2.801-0.363c0.414-0.109,0.845-0.518,1.276-1.217c0.132-0.191,0.497-1.099,1.094-2.725    c0.282-0.763,0.497-1.217,0.613-1.362c1.127-1.417,1.674-2.979,1.674-4.678c0-0.027-0.298-1.353-0.895-3.978    c0.348-1.453,0.514-2.207,0.514-2.28c0-0.963-0.165-1.644-0.464-2.044c-0.63-0.836-0.945-1.508-0.945-1.998l1.011-2.516 c0.05-0.281,0.083-0.5,0.083-0.636c0-0.481-0.05-1.117-0.149-1.898l-0.166-1.208c0-0.554-0.365-1.29-1.077-2.198    c0-0.681-0.099-1.144-0.282-1.408c-1.425-1.035-2.851-1.59-4.276-1.68c-1.525,0-2.552-0.036-3.099-0.127    c-1.608-0.363-2.967-0.636-4.077-0.799c-1.111-0.164-1.674-0.709-1.674-1.644c0-0.827,0.68-1.48,2.055-1.962    c0.762-0.254,1.26-0.363,1.525-0.318c1.492,0.282,2.436,0.427,2.784,0.427c2.105-0.145,3.232-0.218,3.381-0.218l3.845-0.318 c0.083,0,1.077,0.091,3,0.263c1.906,0.182,3.248,0.272,3.994,0.272c0.597,0,2.519-0.227,5.751-0.663    c0.133,0,1.226,0.127,3.298,0.382c1.176,0.154,1.956,0.236,2.37,0.236c-0.016,0,0.58-0.091,1.79-0.282  c1.226-0.182,2.171-0.272,2.884-0.272c1.392,0,2.685,0.245,3.878,0.745c0.928,0.372,1.392,0.89,1.392,1.553 C107.715,49.063,107.616,49.226,107.417,49.335L107.417,49.335z M199.001,48.781c0,1.008-0.961,1.608-2.867,1.789   c-5.9,0.609-9.463,2.18-10.64,4.705c-0.265,0.554-0.398,0.926-0.398,1.126c0,0.027,0.033,0.245,0.099,0.636 c0.066,0.4,0.1,0.754,0.1,1.072c0,0.645-0.182,1.29-0.547,1.926c-0.365,0.627-0.547,0.963-0.547,1.008  c0,0.863,0.497,2.007,1.475,3.424c0.132,0.518,0.199,1.208,0.199,2.089c0,1.135-0.099,1.953-0.315,2.452    c-0.133,0.327-0.215,0.618-0.265,0.872c0.05,0.327,0.083,0.699,0.083,1.126v3.66c0,1.163-0.1,2.198-0.265,3.097 c-0.166,0.899-0.249,1.49-0.249,1.753v1.299c-0.133,0.554-0.199,0.972-0.199,1.263c0,0.236,0.199,0.563,0.564,0.981 c0.381,0.409,0.564,0.736,0.564,0.972c0,0.4-0.216,0.808-0.663,1.226c-0.431,0.418-0.845,0.627-1.243,0.627 c0.133,0-1.276-0.209-4.226-0.636c-1.21-0.182-2.121-0.372-2.718-0.554c-0.729-0.4-1.458-0.781-2.221-1.154 c-0.646-0.309-1.293-0.618-1.939-0.936c-1.26-0.718-2.055-1.381-2.37-1.98c-0.563-1.117-1.558-1.853-2.983-2.189    c-1.293-0.327-2.304-1.099-3.033-2.325c-0.365-0.636-1.492-1.571-3.381-2.807c-0.464-0.354-1.193-0.827-2.171-1.426 c-0.912-0.281-2.138-1.19-3.696-2.725c-0.961-0.936-2.188-1.735-3.696-2.38c-0.431-0.2-0.828-0.445-1.16-0.727l-1.392-1.09  c-0.68-0.363-1.707-0.972-3.116-1.808c-0.514-0.354-1.011-0.708-1.475-1.063c-0.596-0.327-1.309-0.491-2.171-0.491  c-0.63,0-1.707,0.173-3.265,0.509c-0.696,0.154-1.21,0.981-1.558,2.471c-0.099,0.445-0.149,0.79-0.149,1.045    c0,0.527,0.05,0.999,0.149,1.426l0.315,1.471c0,0.136,0.381,0.972,1.127,2.489c0.331,0.736,0.547,1.526,0.63,2.362  c0.099,0.999,0.166,1.553,0.182,1.68c0.182,0.545,0.282,0.945,0.282,1.199c0,0.39,0,0.59,0,0.59    c-0.083,0.745-0.116,1.199-0.116,1.363c0,1.39,0.563,2.398,1.707,3.007c0.182,0.409,0.796,1.017,1.823,1.826    c0.696,0.345,1.707,0.5,3.033,0.472c1.84-0.045,3.381,0.118,4.624,0.491c1.359,0.4,2.055,0.954,2.055,1.68  c-0.447,1.444-2.403,2.171-5.867,2.171h-5.403c-0.497,0-1.077,0.045-1.74,0.145c-0.68,0.1-1.227,0.145-1.641,0.127  c-1.707,0-2.503,0-2.403,0c-0.514,0-0.862,0.009-1.044,0.036c-1.326,0.345-2.718,0.518-4.193,0.518 c-0.216,0-0.763-0.073-1.641-0.209c-0.878-0.145-1.491-0.2-1.823-0.172c-0.646,0-1.21,0.018-1.707,0.064    c-2.386,0.172-3.712,0.254-3.961,0.254c-0.68,0-1.409-0.073-2.204-0.209c-0.779-0.145-1.342-0.218-1.69-0.218   c-1.89,0-3.199-0.282-3.912-0.854c-0.497-0.381-0.746-0.681-0.746-0.89c0.182-0.981,0.911-1.817,2.171-2.507    c1.657-0.908,3.497-1.362,5.486-1.362c0.845,0.064,1.508,0.1,1.972,0.1c0.679,0,1.309-0.091,1.906-0.273l3.779-1.517    c0.928-0.581,1.392-1.217,1.392-1.907c0-1.689,0.05-2.68,0.133-2.97c0.099-0.291,0.58-0.827,1.459-1.608    c0.464-0.418,0.696-0.799,0.696-1.154c0-0.018-0.116-0.4-0.348-1.163c-0.232-0.754-0.348-1.362-0.348-1.817 c0-1.026-0.381-2.334-1.127-3.942c-0.017-0.164,0.099-0.527,0.398-1.081c0.281-0.554,0.414-1.035,0.414-1.435   c0-0.409,0.099-0.899,0.282-1.481c0.182-0.518,0.248-0.845,0.232-0.999c-0.083-0.345-0.282-0.799-0.63-1.362    c-0.895-1.653-1.392-2.561-1.475-2.725c-0.132-0.418-0.431-0.89-0.895-1.426c-0.663-0.781-1.027-1.235-1.077-1.362  c-0.464-0.672-1.574-1.253-3.315-1.753c-0.348-0.1-0.68-0.145-0.961-0.145c-0.928,0.145-1.691,0.209-2.287,0.209    c-0.066,0-0.381-0.036-0.978-0.118c-0.597-0.073-1.094-0.109-1.508-0.091c-1.326,0.027-2.138,0.045-2.42,0.045  c-0.712-0.118-1.541-0.39-2.486-0.808c-1.442-0.699-2.171-1.517-2.171-2.452c0-1.69,1.525-2.616,4.591-2.789    c0.845-0.045,2.287,0.046,4.309,0.254c2.138,0.227,3.199,0.345,3.149,0.345c0.332,0,1.558-0.218,3.679-0.663    c1.011-0.191,1.674-0.263,1.989-0.209l4.458,0.699c1.359,0.218,2.984,0.372,4.906,0.472c1.541,0.082,2.702,0.218,3.447,0.4  c0.216,0.082,0.779,0.273,1.707,0.554c0.133,0.027,0.596-0.045,1.409-0.227c0.795-0.172,1.226-0.263,1.276-0.263    c0.563,0.027,1.226,0.191,1.989,0.491c0.381,0.154,0.58,0.481,0.58,0.981v0.981c0,0.872,0.232,1.68,0.696,2.398 c0.414,0.627,1.177,1.19,2.287,1.689c1.89,0.836,2.95,1.326,3.149,1.462c0.365,0.272,0.68,0.817,0.928,1.644    c0.265,0.881,0.961,1.499,2.105,1.853c1.989,0.645,3.348,1.253,4.077,1.807c0.315,0.254,0.779,0.627,1.392,1.126    c0.497,0.282,0.994,0.563,1.525,0.827c0.613,0.372,1.028,0.772,1.243,1.199c0.547,1.044,1.309,1.78,2.287,2.189 c1.144,0.799,2.072,1.263,2.801,1.408c1.392,0.4,2.387,0.59,2.983,0.59c0.315,0,0.58-0.009,0.779-0.036l0.812-0.236 c0.531-0.145,1.21-0.209,2.072-0.209c0.994,0,1.442-0.236,1.309-0.708c-0.878-1.662-1.309-2.67-1.309-3.043 c0.199-0.5,0.298-1.153,0.298-1.98c0-0.681-0.166-1.299-0.497-1.853c-0.215-0.209-0.315-0.59-0.315-1.126   c0-0.082,0.066-0.345,0.215-0.781c0.149-0.427,0.216-0.763,0.216-0.99c0-0.227,0.166-0.672,0.481-1.335 c0.331-0.672,0.481-1.126,0.481-1.362c0-0.854-0.762-1.635-2.287-2.344c-0.829-0.4-1.608-0.636-2.37-0.727  c-3.05-0.309-5.602-0.872-7.657-1.68c-1.525-0.609-2.287-1.263-2.287-1.962c0-0.236,0.431-0.663,1.293-1.272    c0.331-0.245,0.696-0.363,1.077-0.363c0.133,0,0.812,0.018,2.055,0.055c1.243,0.036,2.221,0.055,2.917,0.055    c1.757,0,3.646,0.109,5.635,0.327c1.989,0.218,2.867,0.327,2.635,0.327c0.812,0,2.304-0.191,4.475-0.59 c0.099,0,0.497,0.055,1.21,0.154c0.696,0.109,1.226,0.164,1.591,0.164c2.37,0,4.293-0.236,5.751-0.699  c0.663-0.227,1.243-0.345,1.707-0.345c0.597-0.027,1.425,0.245,2.519,0.826C198.355,47.501,199.001,48.155,199.001,48.781   L199.001,48.781z"/>
</svg>
