<!--
  SVG Music Logos
  Dream Theather - The Majesty Symbol v0.1.1
  https://github.com/tiagoporto/svg-music-logos
  Copyright (c) 2016-2018 Tiago Porto (http://tiagoporto.com)
-->
<svg xmlns="http://www.w3.org/2000/svg" viewBox="0 .9 200 200">
  <polygon class="dream-theater__background" points="60.3 4.9 139.8 4.9 196 61.2 196 140.7 139.8 196.9 60.3 196.9 4 140.7 4 61.2"/>
  <polygon class="dream-theater__foreground" points="64 13.8 136.2 13.8 187.1 64.8 187.1 137 136.2 188.1 64 188.1 12.9 137 12.9 64.8"/>
  <g class="dream-theater__symbol">
    <path d="M99.8 49.3c-44.8 0-68.6 18-68.6 49.6 0 31.5 30.7 49.6 68.6 49.6s68.6-18.1 68.6-49.6c0-31.3-22.2-49.6-68.6-49.6zm0 93.8c-30 0-54.3-9.5-54.3-44 0-30.7 21.1-44 54.3-44 36.2 0 54.3 13.3 54.3 44 0 34.4-24.3 44-54.3 44z"/>
    <polygon points="138.8 61.8 99.9 144.2 60.4 61.8 65.5 58.1 99.9 129.4 134.6 57.6"/>
    <path d="M71.7 40.2s-.4 2.8 3.6 2.8c7.2 0 18.4 3.8 18.4 12v88c0 8.5-7.3 12.1-16.8 12.1-5 0-4.2 2.8-4.2 2.8h54.5s.8-2.8-4.2-2.8c-9.4 0-16.8-3.6-16.8-12.1V55c0-8.2 11.1-12 18.4-12 4 0 3.6-2.8 3.6-2.8H71.7z"/>
    <path d="M124.7 48.5s.5 2.1 3.9 2.6c5.9.9 8.9 3.7 8.9 10.8v71.7c0 7.9-7 13.6-17.5 14-4 .2-4.3 2.4-4.3 2.4h43.1s.6-2.4-3-2.4c-7.3 0-12.3-6.4-12.3-13.2v-72c0-6.9 3.6-11 12.7-11.9 2.9-.3 2.6-2.1 2.6-2.1h-34.1z"/>
    <polygon points="137.4 137.4 99.6 75.8 62.6 137.4 67.9 140 100 89.1 131.5 140"/>
    <path d="M75.4 48.5s-.5 2.1-3.9 2.6c-5.9.9-8.9 3.7-8.9 10.8v71.7c0 7.9 7 13.6 17.5 14 4 .2 4.3 2.4 4.3 2.4h-43s-.6-2.4 3-2.4c7.3 0 12.3-6.4 12.3-13.2v-72c0-6.9-3.6-11-12.7-11.9-2.9-.3-2.6-2.1-2.6-2.1h34z"/>
  </g>
</svg>
