<!--
  SVG Music Logos
  Eminence - Humanology v0.1.1
  https://github.com/tiagoporto/svg-music-logos
  Copyright (c) 2016-2018 Tiago Porto (http://tiagoporto.com)
-->
<svg xmlns="http://www.w3.org/2000/svg" viewBox="0 68 200 65">
  <path d="M133.35 129.225c-.067.45.1 1.154-.715 1.27-.565.082-1.27-.823-1.256-1.525.017-.923.06-.958 1.114-.944.81.01.87.09.855 1.2z"/>
  <path d="M7.012 127.694c.12.318.694.547.195.987-.156.147-.346.21-.553.21-.387-.002-.775-.073-.913-.483-.106-.316-.137-.71.222-.904.367-.2.773-.27 1.05.19z"/>
  <path d="M7.012 127.694c-.18-.08-.354-.208-.54-.234-.386-.053-.65.135-.71.53-.052.35.14.556.456.68.332.127.66.012.99.01-.353.75-.855.436-1.304.15-.486-.308-.482-.813-.26-1.253.242-.48.726-.412 1.16-.287.163.047.253.21.208.404z"/>
  <path d="M47.137 105.445c-.235-.258.014-.7-.346-.91-.345-.384-.77-.376-.968.047-.208.447.076.816.57.957.64.222.845 1.03 1.537 1.207.298-.853.237-.948-.793-1.302z"/>
  <path d="M7.194 130.785c.216-.338.36-.566.655-.608.24.037.35.2.392.407.057.28.044.58-.254.692-.432.162-.544-.24-.794-.49z"/>
  <path d="M71.298 92.23c.546.2.858.42.72.912-.056.206-.307.298-.502.21-.506-.227-.376-.61-.218-1.12z"/>
  <path d="M72.567 89.712c-.033.25-.17.384-.403.36-.23-.02-.35-.182-.338-.41.012-.24.164-.358.396-.342.243.017.337.18.345.392z"/>
  <path d="M24.694 73.964c-.163.57-.24 1.067-.884 1.062-.415-.004-.573-.3-.694-.64-.11-.31-.16-.638.147-.83.576-.36.91.193 1.43.408z"/>
  <path d="M101.188 94.25c-.142-.666-.328-1.327-.584-1.983-.028-.07-.024-.152-.04-.227-.02-.375-.003-.742.006-1.105.054-.38.115-.766.078-1.137-.01-.098.132-.26.24-.312.773-.373.744-1.054.72-1.753l.003-.187c.03-.22.015-.44.008-.66.016-.602.008-1.2-.3-1.766-.09-.165-.062-.336.037-.484.264-.393.052-.67-.16-1.01-.49-.792-.892-1.618-.393-2.584.158-.307.17-.68.06-1.005-.02-.056-.023-.106-.036-.16.05-.308.115-.612.195-.91.058-.068.113-.135.19-.198.402-.323.537-.776.523-1.28-.03-1.092-.03-2.186-.098-3.275-.075-1.204-1.845-2.165-2.84-1.524-.566.366-.945.343-1.42-.145-.392-.404-.88-.836-1.533-.517-.428.21-.82.205-1.28.12-.714-.135-.992.147-1.085.856-.156 1.193.334 2.057 1.337 2.638.105.06.197.133.29.203.06.066.124.13.17.21.05.164.066.335.114.498.343 1.16.344 1.163-.85 1.518-.568.17-.944.47-.995 1.13-.043.545-.11 1.076-.022 1.624.08.495.15 1.043.764 1.017.564-.023.598-.57.6-1.014 0-.363.15-.58.407-.775.26-.28.963-.84 1.337-.924.695-.156 1.118-.41 1.213-1.133.04-.293.256-.39.527-.337.302.057.51.25.49.562-.028.404-.14.797-.14 1.21 0 .597-.58.475-.905.654-.89.494-1.462 1.274-1.795 1.867-.076.39-.098.8-.132 1.2-.038.44.078 1.11.707 1.356h.003c.014.04.03.08.028.125.574.064.994.44 1.428.753.42.304.01.772.123 1.16.076.258.08.54.088.813.01.3.052.626-.27.824-.727-.13-.806-.836-1.155-1.3-.813-.536-1.625-1.07-2.46-1.622-.467.36-.907.687-.73 1.35.146.55.973 1.332 1.472 1.215.916-.215 1.294.35 1.71.94-.038.632.163 1.283-.13 1.914-.44.163-.82.008-1.175-.19-.33-.182-.63-.2-.964-.03-.775.396-1.277 1.832-.777 2.546.352.5.277.837-.06 1.23-.114.02-.167.093-.18.202-.43.26-.362.963-.932 1.098-.402-.19-.415-.535-.424-.88-.02-.743.042-1.49-.52-2.123-.226-.256-.144-.638-.056-.982.282-1.11.092-2.172-.493-3.137-.24-.396-.348-.734-.326-1.218.044-.993.378-2.01-.09-2.992 0-.056-.007-.11-.025-.164-.658-.26-1.28-.6-1.927-.88-.46-.197-1.07-1.878-.85-2.297.115-.22.314-.228.52-.24.31-.018.61.06.913.077.472.025.84-.186.832-.687-.023-1.658.23-3.344-.455-4.942-.108-.253-.138-.52-.15-.797-.077-1.792-1.21-2.625-2.99-2.213-.403.093-.823.115-1.216.014-1.465-.376-2.943.03-4.426-.078-1.338-.098-2.724.087-4.086-.065-1.093-.12-1.7.32-1.822 1.406-.066.582.067 1.152.126 1.726.046 2.71-.145 5.413-.106 8.13.054 3.743.235 7.494.06 11.24-.088 1.913.105 3.817.19 5.717.084 1.86-.355 3.664-.254 5.502.067 1.216.047 2.433 0 3.646-.09 2.434-.108 4.87-.3 7.302-.092 1.154.054 2.34.203 3.515.086.682.31 1.577-.05 2.344-.18.382.086.645.272.928.345.727 1.955 1.092 2.8.564.64-.402 1.198-.56 1.663.163.537.836.33 1.9-.457 2.29-.307.152-.52.46-.902.614-.003-.837-.047-1.554-.71-2.04-.284-.208-.59-.417-.915-.118-.492.45-1.165.742-1.346 1.476-.515.952-.572 1.996-.596 3.045-.012.545.11 1.086.698 1.228.582.14.706-.393.866-.805.062-.16.165-.3.24-.452.163-.336.294-.756.773-.677.49.08.626.49.63.93.01.855.543 1.16 1.282 1.335.667.16 1.284-.12 1.93-.115.73.007 1.032-.4 1.036-1.1.005-.992-.003-1.982.007-2.973.004-.408-.052-.848.254-1.174 1.19-1.268.963-2.836.977-4.365.005-.533-.164-.903-.474-1.163-.204-.03-.572-.106-1.136-.16-.1-.01-.204 0-.307-.004-.335-.015-.785.038-.736-.456.04-.386.452-.383.75-.305.398.104 1.175-.04 1.707-.026.34-.29.393-.696.425-1.12.047-.615-.14-1.217-.095-1.827.217-2.95-.126-5.9.002-8.846.03-.72-.19-1.258-.824-1.614-.745-.255-1.542-.608-2.246-.09-.806.593-1.67.47-2.54.47-.73 0-1.087-.47-1.055-1.11.033-.658-.477-1.57.663-1.86.518-.13.938-.382 1.09-.953.308-1.16-.03-2.16-1.095-2.687-.76-.377-.8-.846-.466-1.476.403-.76.448-1.556.317-2.382-.178-.587-.194-1.207-.46-1.78-.187-.398-.127-.875.364-1.02 1.056-.313 1.44-1 1.44-2.06 0-.558.437-.894.99-1.033.427-.11.82-.15 1.014.374.01.266-.19.32-.386.39-1.266.457-1.4.782-.673 1.89.368.56.442 1.08.243 1.726-.266.867-.18 1.705.3 2.545 1.194 2.096.97 4.2-.144 6.268-.39.722-.49 1.414.267 1.985.74.23 1.494.12 2.24.083.59-.03.88-.364.966-.982.11-.8-.242-1.558-.133-2.34.238-1.698.183-3.405.217-5.11.01-.495-.002-.996.077-1.32.437 1.832.916 3.81.883 5.86-.002.134.01-.037.023.1.184 2.1.624 4.168.845 6.26.116 1.092.572 2.11.544 3.22-.045 1.748.504 3.424.765 5.128.447 2.914 1.063 5.804 1.31 8.75.376 1.31.71 2.625.553 4.007-.084.75.13 1.576.858 1.64.967.085 1.775.578 2.69.702.603.082 1.228.017 1.663-.507.86.574 1.754.685 2.728.51.698-.127 1.106-.45 1.2-1.173.04-.324.087-.7.56-.727.352.222.272.596.322.918.06.386.133.75.6.837.44.03.885.03 1.327.004.436-.026.702-.258.732-.7.124-1.877-.317-3.758.03-5.634.012-.063-.016-.138-.046-.198-.727-1.435-.127-2.953-.115-4.397.012-1.59.427-3.185.334-4.833-.108-1.923.138-3.854.143-5.783.008-2.694-.002-5.388.003-8.083-.013-1.436-.01-2.87-.007-4.303 0-.89-.19-1.745-.445-2.568zM96.73 75.373c-.596-.038-.755-.312-.67-.752.052-.26.296-.305.477-.232.495.2.292.573.194.984zm-19.425 32.84c.71-.048 1.427-.027 2.14-.013.245.006.484.107.507.403.02.275-.173.432-.392.543-.286.145-.598.108-.903.088-.606-.04-1.212-.096-1.845.206-.326-1.01-.263-1.177.493-1.227zm5.378-14.57c-.29-.08-.444-.36-.25-.65.345-.515.77-.39 1.245-.14-.14.605-.402.957-.995.79zm5.91 2.865c.143-.267.475-.287.69-.037.326.377.232.724-.198 1.09-.435-.315-.726-.616-.492-1.054zm-.548 7.164c-.16-.403-.074-.75.404-.848.365-.076.392-.682 1.04-.496-.237.577-.672 1.043-.406 1.677-.513.21-.857.13-1.04-.333zm1.704 20.974c-.323-.003-.513-.15-.502-.49.01-.303.205-.4.472-.41.3-.01.543.05.553.387-.014.37-.203.516-.524.513zm2.046-17.182c-.125-.453.09-.655.5-.685.41-.03.627.17.636.664-.433.206-.783.213-1.136.022zm1.37-8.618c-.24-.675-.313-1.35-.02-2.027.338.666.21 1.348.02 2.028zm3.44 21.043c.223.034.346.18.37.403-.045.23-.176.373-.41.338-.218-.032-.352-.187-.35-.415 0-.25.154-.358.39-.324zm-.168 4.105c0 .306.022.612-.005.914-.042.465-.43.578-.792.664-.305.073-.633.05-.804-.27-.186-.35-.203-.76.032-1.065.307-.4.698-.738 1.07-1.084.188-.174.366-.446.69-.278.224.114.378.302.378.563 0 .37-.19.563-.568.555z"/>
  <path d="M122.433 77.87c-.06.012-.12.01-.177-.01-.707-.283-.622-.61-.05-.955.78-.47 1.108-1.134.994-2.053-.062-.503.043-1.028-.026-1.53-.08-.578-.132-1.222-.858-1.478-.624.553-.28 1.24-.34 1.844-.06.594-.203.928-.885 1.146-.587.187-1.47-.33-1.77.567-.27.812.44 1.206.86 1.717.21.253-.116 1.326-.458 1.517-.47.262-.657-.146-.898-.418-.317-.358-.377-.87-.76-1.197-.42-.36-.32-.762-.036-1.18.68-1.006.476-2.3 1.05-3.346.06-.107.007-.267-.1-.372-.09-.097-.163-.232-.274-.285-.52-.248-1.076-.094-1.616-.115-3.618-.142-7.237.007-10.855-.008-1.108-.004-1.958.788-1.912 1.822.09 1.982-.118 3.957-.07 5.934.022.95-.143 1.954.598 2.815.35.406.37 1.095-.035 1.532-.517.556-.608 1.123-.576 1.857.03.694.158 1.35.33 2.003.098.38.16.71-.036 1.078-.5.94-.39 2.017-.42 3-.068 2.162.32 4.335-.098 6.495-.264 1.368.175 2.722.046 4.082-.134 1.425.187 2.862-.143 4.28-.037.16-.025.353.03.507.342.98.39 2 .485 3.02.088.948.803 1.53 1.733 1.508.205-.005.41.002.615-.008.9-.04.976-.133.886-1.057-.138-1.42.185-1.795 1.603-1.793 1.006 0 1.86.353 2.435 1.218.174.262.245.57.112.878-.116.266-.38.32-.607.248-1.256-.4-2.192.376-3.268.783.276 1.064.844 1.656 1.934 1.676.37.007.756-.026 1.107.152.014.13.028.26.04.39-.042.558.117 1.15.025 1.722-.025.1-.06.2-.095.3-.025.07-.058.14-.095.21-.27-.105-.348-.22-.384-.345l-.02-.076c-.02-.295.026-.585-.256-.743-.447-.25-.932.05-1.405 0-.26-.027-.487-.28-.83-.08-.02.154-.134.45.127.458.92.03.975.605 1.003 1.195-.007.4-.012.8-.01 1.202 0 .187.02.364.053.536.033.375.123.738.408 1.065-.333.35-.682.357-1.027.317-.13-.042-.264-.106-.41-.223-.362-.43-.784-.804-1.054-1.322-.204-.39-.26-.923-.797-1.08-.92-.415-1.46-1.028-1.306-2.135.093-.67.03-1.364.03-2.048.002-.3.06-.627-.282-.828-.44.032-.552.348-.526.71.022.315-.13.636-.09.896.163 1.056-.238 2.19.415 3.173.31.465.236.882-.065 1.324-.645.943-.505 1.954-.19 2.962.096.308.334.454.656.573.76.28 1.473.6 1.545 1.63.053.74.83 1.222 1.287.85.624-.51 1.158-.35 1.73 0 .13-.164.224-.262.292-.376.398-.673-.102-1.2-.385-1.685-.273-.47-.73-.112-1.073.082-.647.366-1.11 0-1.564-.373-.568-.467-.476-.787.207-1.098.933-.426 1.71-.065 2.305.553.455.472.74.504 1.16.078.427-.28.666-.185.707.343.043.56-.064 1.126.09 1.68l-.008.602c-.06.014-.118.028-.176.044.02.445.06 1.077-.406 1.137-1.04.134-1.542.894-2.172 1.527-.284.285-.595.472-.992.337-.467-.158-.38-.575-.373-.942-.058-.02-.12-.03-.18-.038-.118-.418-.4-.93-.78-.796-.605.216-1.324.213-1.813.71-.143.144-.118.395-.055.59.073.224.16.46.302.642.362.466.463.877-.017 1.347-.252.247-.384.703-.125.936.463.416 1.047 1.07 1.605.903.895-.27 1.673.08 2.502.077 2.288-.007 4.576-.01 6.865-.026.396-.003.828.086 1.138-.274-.148-1.84-.134-1.604-1.705-1.624-1.75-.023-1.818-.104-1.758-1.88.018-.536.133-.95.74-1.042.412-.062.67-.387.594-.712-.31-1.332.992-2.896-.58-4.048-.1-.074-.11-.318-.104-.482.01-.358-.073-.678-.293-.958-.454-.577-.403-1.128.073-1.663.466-.523.647-.998-.012-1.563-.44-.377-.382-1.073.083-1.188.908-.223.833-.857.84-1.505.008-.718-.032-1.44.027-2.153.065-.772-.174-1.332-.877-1.68-.61-.303-.59-.772-.317-1.29.178-.336.422-.622.73-.847.262-.19.45-.417.45-.76-.003-.717.025-1.437-.016-2.152-.032-.574-.438-.976-.94-1.082-.54-.114-.704.423-.88.83-.042.092-.07.192-.093.292-.066.272-.136.562-.478.574-.335.012-.572-.206-.753-.465-.19-.272-.094-.51.118-.73.85-.888 1.41-2.127 2.844-2.26-.455-1.832-.773-2.047-2.512-1.802-.608.086-1.193.154-1.73.538-.43.307-1.008.344-1.44-.022-.43-.364-.458-.887-.26-1.413.226-.595.725-.526 1.206-.503.102.005.205.007.307.01 1.102.015 1.165-.005 1.18-1.122.01-.638.304-.868.86-.878.61-.01 1.114.103 1.353.82.22.66.723 1.197.775 1.96.035.506.58.726 1.004.69.89-.08 1.53.353 2.075.907.726.74 2.738.933 3.653.312.474-.322.856-.738 1.5-.76.32-.01.316-.376.35-.654.14-1.166-.324-2.162-.855-3.143-.066-.238-.378-.415-.162-.745.308-.024.637-.05.965-.074.06-.304.238-.635-.19-.826-.035-1.097-.034-1.1-1.14-1.332-.175-.036-.313-.115-.454-.214-.74-.52-1.494-.616-2.284-.1-.44.29-.798.193-1.3-.05-.6-.293-1.288-.77-2.085-.254-.413.268-.624-.105-.623-.497 0-.444-.123-.84-.48-1.08-.773-.517-.914-1.283-.993-2.123-.092-.983-.252-1.96-.388-2.94-.034-.245-.072-.478.276-.603.363.214.688.707 1.23.43.554-.285.375-.833.383-1.285.023-1.298-.01-2.597.016-3.895.024-1.068.463-1.472 1.52-1.477 2.166-.01 4.333-.018 6.5-.03.614-.005.778-.273.517-.852-.17-.373-.363-.733-.544-1.098zm-12.068 42.244c-.3-.227-.182-.54-.172-.832.846-.258.846-.258.97.575-.196.305-.445.443-.798.257zm.958-12.54c.27.008.454.13.47.42-.02.244-.146.397-.385.395-.305-.004-.547-.143-.528-.483.013-.238.216-.337.443-.332zm4.965-11.474c1.092-.007 1.462.317 1.51 1.22.034.673-.67 1.515-1.318 1.592-.37.044-.65-.112-.658-.466-.013-.553-.13-1.076-.24-1.61-.13-.643.342-.718.706-.736zm-9.178-11.268c.036-.43.354-.433.607-.42.762.06 1.212.446 1.188.956-.02.42-.288.503-.63.467-.49-.05-1.194-.655-1.165-1.003zm1.52 18.32c-.038.316-.223.457-.476.472-.26.015-.463-.108-.483-.397-.02-.3.17-.42.442-.418.256 0 .44.118.52.34zm3.94-8.668c-.175.46-.647.612-1.1.58-1.02-.073-2.007-.326-2.88-.888-.72-.464-.504-1.216-.442-1.86.055-.575.618-.74 1.08-.72.587.024 1.268.07 1.375.897.04.304.174.57.504.5.457-.098.29-.46.2-.74-.084-.26-.206-.508.025-.83 1.237.67 1.237.67.777 1.535.082.092.167.197.262.29.37.364.352.828.197 1.236z"/>
  <path d="M59.132 107.73c.055.078.128.143.26.288.04-.07.067-.084.086-.07.836-1.432.422-2.417-1.215-2.566-.89-.08-1.74-.29-2.594-.487-.655-.15-1.427-.53-1.318-1.287.1-.686-.054-1.255-.202-1.87-.33-.21-.57-.457-.478-.903.06-.286.222-.42.488-.41.89.036.767-.418.603-1.046-.168-.643.032-1.258.65-1.85.256 1.3.908 1.695 2.06 1.28.277-.1.666.066.914.337.007.008.012.008.02.016-.048.29.115.618-.13.872-1.81.19-1.857.245-1.203 1.388.7.325.914 1.242 1.766 1.49.35-.79.947-1.44.82-2.356-.094-.675-.068-1.347.013-2.02.04-.336.07-.68-.174-.968-.08-.113-.17-.123-.266-.095-.064-.083-.13-.164-.195-.245-.08-.147-.103-.27-.103-.388.093-.283.3-.524.448-.787.145-.16.278-.325.306-.53.112-.74-.48-.756-.938-.913-.402-.093-.764-.092-1.168.115-.54.277-.864.016-.954-.656.977.022 1.68-.466 2.376-.936-.04-.43-.32-.58-.557-.76-.037-.033-.082-.04-.12-.067.05-.27.237-.39.622-.29.248.064.533.242.583-.217.173-.635.223-1.285-.07-1.88-.264-.533-.84-.487-1.342-.57-.43-.07-.534-.41-.44-.775.073-.29.257-.55.36-.837.2-.56.42-1.127.006-1.727-.653.28-.622 1.23-1.4 1.28-.283.53-.566 1.06-.85 1.588-.177.675-.413 1.317-.96 1.795-.18.156-.35.354-.61.21-.29-.158-.248-.44-.202-.71.047-.274.228-.465.39-.668.1-.077.202-.154.336-.223.556-1.06 1.037-2.16 1.673-3.177.01-.168.022-.338.01-.506-.04-.64.226-1.494-.784-1.582-.758-.066-.86.382-.907.867.163.297.065.627.038.94-.137-.006-.246.332-.407.033.053-.317-.067-.66.098-1.003.087-.808.05-1.683 1.28-1.705.49-.01.617-.46.58-.912.006-.608.337-1.202.083-1.823-.193-.488-.666-.66-1.047-.936-1.225-.89-1.454-1.96-.693-3.247.556.233.812.673.91 1.246.1.574.26 1.134.66 1.583.293.328.66.525 1.09.306.413-.212.36-.613.29-.993-.062-.336-.324-.648-.138-1.2.472 1.127 1.063 2.044.09 3.05-.374.386-.7.903-.308 1.472.408.59.954.94 1.73.866.45-.043.78-.263.765-.664-.036-1.02-.018-2.016.345-2.987.057-.15-.035-.334-.133-.48-.318-.472-.25-.93-.06-1.45.445-1.23-.095-1.98-1.377-2.01-.17-.003-.34 0-.51-.024-.338-.11-.408-.364-.26-.643.046-.085.105-.135.17-.17.18-.075.4.01.61.027.896.08 1.125-.085 1.36-.937-.217-.144-.447-.216-.683-.257-.216-.097-.496-.102-.738-.067-.533.077-1.055.035-1.577.007-1.325-.312-2.65-.32-4.005-.148-.163.02-.33.048-.496.075-.51.03-1.02.063-1.533.084-.697-.056-1.39 0-2.084.06-.5.01-.997.027-1.496.03-.02 0-.035.007-.056.007-.18-.01-.357 0-.537-.028-.565-.085-1.06.255-1.082.85-.004.103-.013.207-.02.31-.025.112-.065.2-.076.332-.03.344-.045.69-.043 1.03-.028.67.048 1.32.506 1.905-.102.5-.646.28-.8.624.072 1.09-.43 2.067-.598 3.11.038.595-.06 1.172-.18 1.746-.04.178-.07.358-.107.537-.13.584-.26 1.168-.278 1.77-.012.388-.018.788-.127 1.165-.08.125-.182.24-.262.364-.053.105-.087.216-.098.334-.13 1.22-.012 2.45-.214 3.668-.304 1.83-.913 3.62-.706 5.52.06.548-.126 1.076-.197 1.613-.297 2.24-1.124 4.404-.943 6.71.004.11.024.216.062.32.288.55.887.704 1.33 1.055.506.402.666.81.158 1.34-.185.192-.336.417-.56.574-.067.068-.13.14-.182.22-.19.28-.29.65-.62.793-.67.29-1.103.735-1.065 1.546-.392-.91-.706-1.778-.96-2.684-.272-.968-.17-1.63.463-2.304.07-1.222.237-2.514-.09-3.65-.497-1.72-.476-3.426-.496-5.157-.004-.306.05-.634-.113-.904-.865-1.432-.805-2.98-.637-4.557.108-1.015-.22-1.32-1.367-1.39l-.038-.002-.12-.184c.167-.237.417-.24.657-.258.198-.003.413-.044.665-.16.232-.305.08-.662.133-.99.204-1.227-.462-2.315-.54-3.51-.12-1.84.05-3.685-.177-5.518-.2-1.616-.66-3.205-.518-4.858.026-.306-.187-.49-.35-.708-.67-.896-1.627-.53-2.47-.55-1.517-.034-2.14.59-2.2 2.052-.024.562-.834 1.476-1.486 1.658-.45.125-.708-.118-.882-.497-.19-.298-.457-.51-.78-.64-.36-.145-.487-.413-.543-.786-.197-1.297-1.11-1.942-2.438-1.76-.976.135-1.228.507-1.193 1.512.048 1.394.115 2.738-1.62 3.416-.875.342-1.45 1.248-1.09 2.376.083.26.05.532.03.808-.09 1.193-.06 2.39-.026 3.585.023.8.557 1.29 1.382 1.38.773.084.725-.474.828-.99.123-.623.6-.667 1.332-.13-.762.54-.828 1.322-.61 2.11.22.793.018 1.338-.57 1.903-.757.73-.6 1.288.287 1.885.454.306 1.077.264 1.43.746.1.092.187.2.287.292.51.47.34 1.08.307 1.642-.03.55-.552.377-.875.495-1 .365-1.32 1.352-.71 2.22.347.494.606 1.066 1.25 1.298.373.135.463.566.432.865-.086.808.082 1.647-.222 2.424-.19.485.063 1.117-.326 1.47-.693.63-1.616 1.05-1.595 2.19 0 .054-.077.13-.137.143-.885.21-1.09.905-1.253 1.67-.086.403-.517.514-.84.698-.572.327-1.005.823-.97 1.465.086 1.63-.13 3.247-.07 4.874.083 2.244-.082 4.49-.08 6.735-.307 1.053.11 2.09.07 3.144-.097 2.473-.26 4.954.12 7.423.038.25.057.493.326.572.928.27 1.965.456 2.76-.05.716-.453 1.155-.425 1.817-.027 1.006.605 2.052.237 2.37-.855.172-.587.46-1.057.835-1.486.456-.523.578-1.11.625-1.78.057-.83-.307-1.625-.167-2.432.206-1.186.394-2.283-.967-2.993-.45-.236-.37-.842-.203-1.317.064-.18.084-.414.33-.466.323.018.265.615.844.386.385-1.24-.067-2.524-.198-3.813-.002-.02-.056-.033-.086-.05-.34-.504-1.262-.482-1.316-1.314.494-.255.987.048 1.437-.335-.22-.29-.384-.647-.662-.85-.648-.48-1.022-1.183-1.56-1.75-.406-.426-.632-.913.082-1.333.365-.215.39-.62.376-1.004-.012-.354.002-.683.384-.866.282-.135.358-.385.35-.68-.012-.354.09-.674.32-.95.313-.374.258-.703-.03-1.096-.527-.72-.312-1.566-.274-2.368.01-.243.213-.45.488-.44.802.025.855-.504.846-1.093-.005-.342-.04-.687-.004-1.023.065-.592-.04-1.036-.64-1.344-.545-.28-.773-.78-.75-1.446.05-1.396.053-2.796.007-4.192-.03-.898.24-1.51 1.165-1.723.326-.073.28-.333.285-.567.007-.443-.026-.89.028-1.33.073-.605.354-1.244.962-1.307.762-.08 1.016-.377 1.007-1.078-.003-.213.152-.382.397-.384.247-.002.36.183.423.38.096.303.014.606-.054.908-.07.312-.11.654.29.753.384.095.74-.104.766-.484.045-.684.634-.94.95-1.403.194-.285.467-.402.8-.288.453.154.59.536.646.96.042.32.01.557-.34.758-.732.422-1.024 1.68-.406 2.256.596.555.52 1.387 1.08 1.91.15.144.052.39-.21.632-1.04-.422-2.2-.233-3.35-.294-.614-.033-1.06.164-1.382.675-.34.54.128.887.322 1.296.072.15.174.3.295.414.355.334.44.743.425 1.21-.043 1.465.128 2.93-.055 4.395-.056.45-.108.735-.61.907-.69.237-1.05 1.01-.622 1.544.68.85.552 1.783.587 2.715.046 1.26.5 1.805 1.748 1.877.586.034.8.26.754.815-.026.304.034.612-.077.912-.42 1.135-.41 1.16.662 1.952 1.098.712 1.384 1.478.628 2.14-.856.752-1.765 1.384-1.708 2.683-.992.974-.66 2.13-.452 3.27.2 1.1.496 2.16.558 3.306.1 1.823.656 3.607.795 5.443.015.198.11.393.182.585.46 1.223.46 1.234 1.76 1.234 2.047 0 4.095-.016 6.144-.03 1.106-.007 1.222-.13 1.137-1.27-.047-.65-.235-1.378.107-1.913.64-1.003.5-2.08.626-3.15.095-.802-.24-1.673.266-2.4.296-.427.377-.862.366-1.348-.026-1.1.275-2.23-.386-3.21.31-.39 1.06-.164.953-.85-.118-.755-.84-.684-1.322-.89-.045-.087-.093-.144-.106-.207-.334-1.6-.333-1.6-2.022-1.695-.705-.04-1.077-.486-1.117-1.116-.045-.702-.086-1.4-.277-2.09.557-.353 1.11-.222 1.645-.22.674.005 1.252.052 1.42.953.083.457.572.867 1.1.946.494.074.68-.356.856-.74.053-.12.158-.22.245-.323.667-.79.634-1.427-.13-2.19-.582-.58-1.136-1.218-1.397-1.98-.305-.895-.663-1.685-1.456-2.25-.302-.214-.604-.585-.512-.95.177-.702-.156-1.35-.088-2.027.04-.392-.118-.828.324-1.2.447.15.89.325 1.295.677.535.464.722.386 1.036-.292.072-.154.1-.327.282-.398.282-.005.417.19.546.398.447.548 1.038.658 1.65.412.605-.244.603-1.01 1.074-1.6-.044.618-.274 1-.134 1.48.41 1.413.356 2.892.472 4.342.137 1.716-.177 3.44.01 5.164.032.302.02.613-.024.918-.21 1.473.06 2.945 0 4.418-.03.776.253 1.58.02 2.32-.378 1.194-.3 2.402-.163 3.58.083.712.24 1.407.07 2.107-.415 1.707.1 3.462-.296 5.167-.046.198.066.4.125.595.372.763.963.98 1.817.95 2.148-.068 4.3-.018 6.45-.023 1.042-.003 1.776-.685 1.72-1.7-.14-2.517.05-5.03.023-7.547-.013-1.156-.144-2.317-.12-3.46.042-1.967.37-3.93-.21-5.87-.064-.21 0-.406.046-.604.328-1.45.254-1.86-.777-2.134-.128.158-.263.288-.415.33-.13.037-.252.108-.52-.038-.316-.815-.35-1.74.023-2.652.323-.793.753-.797 1.274-.06zM57.14 90.994c.266-.028.492.155.462.418-.045.395-.4.49-.71.57-.304-.008-.493-.136-.474-.426.03-.434.384-.525.72-.56zm-30.462-13.39c-.01-.428.265-.577.656-.565.402.013.61.22.627.617-.033.41-.25.62-.655.59-.387-.026-.62-.253-.627-.642zm3.873 9.25c.004.23-.167.386-.375.422-.958.163-1.912.214-2.99-.17.513-.838 1.11-1.404 1.43-2.156.15-.35.516-.442.87-.36.51.114.822.523.97.96.138.398.09.865.096 1.303zm3.364.19c.007-.505.115-.91.77-.768.094.278.485.37.45.798-.383.473-.8.3-1.22-.03zm2.58 15.63c-1.156-.766-1.304-1.102-.915-2.2.153-.43.124-.87.19-1.302.05-.33.255-.555.608-.588.298-.028.45.18.486.423.19 1.245.1 2.46-.37 3.67zm2.004 16.127c-.932-.137-1.78-.37-2.324-1.198-.472-.485-.328-.924.044-1.34.388-.034.526.214.678.434.344.5.672.992 1.318 1.183.458.133.46.507.284.92zm5.027-.963c.428-.39.74-.13.77.272.044.578-.138 1.156-.39 1.9-.585-.806-.844-1.43-.38-2.173zm-.625 5.274c.344 0 .585.08.618.425.038.4-.226.537-.55.565-.325.03-.5-.168-.512-.482-.012-.325.18-.48.444-.507zm4.006-23.03c-.103.192-.393.235-.538.09-.382-.38-.29-.766.098-1.13.51.218.7.555.44 1.04zm3.165-24.444c.286-.046.615-.17.83.173.356.252.734.48 1.062.767.22.193.27.51.063.736-.214.234-.52.17-.73-.032-.373-.354-.73-.688-1.287-.737-.2-.018-.32-.242-.304-.472.016-.228.16-.4.367-.434zm.44 22.578c-.506.02-.914-.427-.94-1.065-.015-.38.008-.776.506-.845.563-.078 1.544.57 1.554 1.003.013.528-.422.88-1.12.906zm.697-17.11c-.27-.01-.298-.233-.292-.447.008-.27.16-.425.36-.506.333.083.457.266.42.537-.035.272-.217.43-.488.418zm1.116 25.133c.24-.018.492.01.67.18.75.722.896 1.76 1.352 2.454-.01.762-.248.92-.758.725-1.168-.448-1.53-1.52-1.91-2.538-.162-.436.14-.78.646-.82zm.38 10.805c-.82-.495-1.062-1.223-.665-1.925.442-.783.505-.803 1.49-.336-.73.644-.107 1.665-.824 2.262zm1.913-3.068c-.798.178-1.427-.46-1.39-1.41.047-1.2 1.046-2.684 2.027-3 .284-.09.595-.27.846.03.223.264.15.587.013.865-.238.48-.264.927-.115 1.463.187.677-.705 1.9-1.382 2.05zm1.452 5.932c-.27.013-.473-.086-.47-.393.003-.238.168-.367.386-.392.29-.032.412.162.476.335-.015.325-.16.44-.392.45z"/>
  <path d="M151.404 107.137l-1.064-1.336c-.247-.106-.51-.187-.736-.328-.193-.12-.345-.307-.56-.508-.005 0-.01-.003-.013-.003-.372.405-.782.734-1.364.72-.607-.016-1.032-.403-.948-.933.092-.577.593-.53.957-.458.688.135 1.332.366 2.044.02.154-.075.27-.152.36-.238.064-.108.108-.23.14-.365-.004-.07-.01-.137-.042-.224l.14-1.624c-.187-.146-.464-.38-.604-.11-.374.72-.914.543-1.48.39-.39-.103-.742.057-1.092.187-.305.113-.63.222-.8-.144-.172-.37-.573-.59-.653-1.027.07-.078.138-.214.203-.214.932.013 1.157-.492 1.025-1.315-.044-.277.06-.658.35-.658.857 0 1.732-.314 2.663.05-.23.573-.114.978.317 1.378.33.308.628.554 1.06.4.413-.148.333-.545.312-.884-.027-.425.115-1.006-.51-1.06-.844-.073-.863-.622-.867-1.225-.006-.922-.014-1.844.002-2.765.007-.4-.045-.78-.393-.998-1.047-.652-1.025-1.682-.99-2.71.03-.866-.028-1.71.625-2.49.496-.595 1.07-1.42.13-2.228-.12-.106-.177-.41-.122-.577.35-1.066.427-2.134.23-3.24-.064-.355.31-.71.185-1.09-.54-1.632-.28-3.31-.31-4.97-.014-.91.108-.974 1.01-.857.867.112 1.002-.005 1.01-.908.008-.75.007-1.502.003-2.253-.006-1.246-.233-1.496-1.49-1.528-1.873-.048-3.746-.136-5.622-.027-.905.053-1.076.164-1.02 1.096.17 2.795-.02 5.59.036 8.385.078 3.925.032 7.85.056 11.776.01 1.7.407 1.965 2.052 1.47.39-.116.798-.175 1.2-.25.362-.066.68.004.885.348.15-.082.285-.1.37.09.45.76.245 1.59.246 2.397 0 .248-.18.537-.412.524-.812-.046-1.58.47-2.404.17-.126-.047-.265-.067-.4-.08-1.373-.146-1.828.354-1.602 1.752.175 1.082.175 1.082-.317 1.727-.487-.374-.46-.9-.358-1.377.19-.895.1-1.674-.57-2.36-.264-.27-.364-.65-.304-1.048.297-1.974.247-3.923-.38-5.84-.115-.352-.138-.735-.193-1.105-.03-.202.02-.437-.067-.607-.975-1.924-.384-4.01-.634-6.01-.038-.306.017-.615-.26-.838-.332-.27-.338-.64-.34-1.025 0-.956-.013-1.912-.024-2.868-.008-.72-.093-1.43-.374-2.1-.203-.485-.25-.988-.26-1.504-.046-1.923-1.356-2.996-3.254-2.595-1.408.298-2.865.42-4.253.36-1.597-.07-3.15.142-4.724.187-1.238.036-1.544.55-1.114 1.765.088.25.37.42.275.822-1.08.076-1.03.848-1.02 1.703.04 2.9-.048 5.803.05 8.704.03.883-.123 1.763-.06 2.654.042.62.016 1.215.448 1.737.265.32.265.712-.07 1.013-.404.364-.404.837-.426 1.317-.148 3.17.093 6.34.006 9.51-.006.2.01.424.092.602.27.59.607 1.15-.05 1.73-.11.095-.06.39-.056.592.052 2.15.093 4.3.103 6.45.007 1.46-.056 2.926-.03 4.39.007.336-.038.685.256.953.918.835.698 1.914.612 2.956-.04.5-.436.646-.854.737-.25 1.593-.003 3.193-.062 4.79-.008.218.15.36.28.523.675.83.636 2.58-.06 3.438-.41.506-.34 2.042.158 2.364.608.394 1.376.436 1.965.168.53-.243 1.012-.775.8-1.58-.158-.604.187-.97.792-1.075.436-.076.885-.103 1.306-.225.582-.17.68-.485.33-.976-.216-.303-.476-.577-.726-.854-.35-.39-.32-1.083-.99-1.22-.656-.132-.747-.62-.698-1.173.05-.577.096-1.136-.05-1.722-.297-1.18.293-2.325.224-3.505-.003-.056.052-.138.103-.17.705-.43 1.118-1.162 1.742-1.673 1.534.428 1.99 1.42 1.227 2.67-.124.003-.19.073-.22.184-.082.625-.347 1.345.166 1.816.372.34.965.192 1.41-.143.11-.133.178-.294.283-.43.034-.584-.297-1.01-.625-1.435-.047-.504.7-.508.64-1.018.18-1.047-.098-1.86-1.163-2.272-.358-.14-.52-.413-.5-.794.02-.38.307-.506.605-.586.49-.13.852-.392 1.037-.874-.16-2.35.025-4.705-.076-7.054-.14-3.27.092-6.534.013-9.802-.018-.773-.143-1.57.23-2.316.153-.306-.118-.586-.143-.887-.023-.273-.063-.552.217-.734.132-.085.27-.056.375.038.202.18.234.442.142.66-.394.937.227 1.79.2 2.697-.012.466-.245 1.027.3 1.39l-.126.01c.343.38.176.844.206 1.273.072 1.048-.27 2.17.18 3.132.527 1.13.524 2.293.64 3.463.02.202-.03.427.08.6 1.043 1.654.315 3.63 1.045 5.42.44 1.08.865 1.944 1.763 2.608.08-.055.186-.086.314-.1.443.588.808-.046 1.3-.152.093 1.236.973 1.618 1.925 2.036.71.312 1.144 1.06 1.557 1.708.215.336.137.89-.09 1.276-.275.463-.633.88-.98 1.296-.18.217-.437.347-.725.206-.25-.124-.26-.38-.25-.622.02-.61.093-1.225.058-1.833-.053-.92-.52-1.31-1.398-1.27-1.176.588-1.177.588-1.75-.704-.04-.09-.052-.195-.076-.293-.336-.397.06-1.103-.628-1.4-.323.23-.413.553-.322.938.07.292.165.578.108.885.098.657.065 1.31.968 1.572.207.06.394.223.527.43.03.13.087.265.17.41.024.13.026.264-.003.396-.198.35-.71.15-.792.516-.08.088-.137.204-.136.383-.21 1.632.254 3.163.722 4.694.248.215.648.324.612.747-.063.755.507 1.116.988 1.43.874.57 1.278 1.577 2.136 2.144.144.096.23.277.197.45-.158.793.5 1.003.97 1.253 1.216.648 2.256.145 2.466-1.153.063-.385.232-.618.584-.753.942-.36 1.407-1.01 1.258-2.053-.032-.227.028-.477.09-.705.138-.503.048-.94-.302-1.323-.293-.06-.34-.31-.39-.536-.116-.543-.35-.974-.793-1.362-.66-.577-.316-1.47-.487-2.21-.07-.3.063-.612.465-.65.926.717 1.077 1.727.94 2.86.016.01.03.022.048.032 1.163-.546 1.28-.83 1.12-2.435.583-.17.774.192.897.646.128.472.257.937.872.965.025.06.037.122.036.187.668.826.59 1.184-.34 1.312-.647.09-.96.512-1.327 1.017.785.6.77 1.714 1.642 2.2.422.77.39.89-.343 1.355-.944.597-1.054.96-.6 1.896.24.493.608.755 1.15.6.514-.148.876-.4.866-1.073-.036-2.453-.008-4.907-.006-7.36.004-4.642.008-9.284.01-13.926-.006-.288.13-.622-.246-.803zm-1.465-8.605v.028h-.036c.01-.01.026-.016.035-.028zm1.43-23.207v.042h-.024c.01-.01.015-.028.024-.042zm-6.883.22c-.06-.29.074-.498.283-.59.527-.228 1.086-.44 1.473.247.032.01.08.013.094.035.304.483.623.985.4 1.576-.108.284-.39.143-.622.064-.71-.243-1.446-.434-1.628-1.332zm2.224 10.947c-.21.207-.58.202-.72-.035-.363-.612.313-.804.544-1.21.49.428.58.848.177 1.245zm-18.49 3.794c-.287.006-.386-.238-.406-.49-.022-.27.084-.46.43-.47.262.006.53.11.51.446-.018.284-.233.508-.533.514zm1.475-12.49c-.354-.108-.412-.427-.43-.738-.02-.34-.025-.68-.008-1.02.05-1.072.157-1.19 1.163-1.374.234-.34.016-.926.578-1.102.387.072.45.38.47.688.072 1.158-.218 2.22-.9 3.164-.208.287-.488.5-.873.382zm3.36-4.068c-.246.007-.332-.17-.327-.393.004-.173.054-.33.255-.36.254-.04.352.11.377.337.003.216-.053.41-.305.416zm3.606 5.4c.487.014 1.088-.033 1.15.705.054.64-.662 1.262-1.495 1.283-.31-.005-.664-.018-.675-.505-.02-.897.367-1.498 1.02-1.48zm-.853 6.07c.23.004.366.134.404.348-.03.288-.16.47-.448.454-.22-.013-.382-.15-.396-.38-.018-.297.163-.427.44-.422zm1 12.556c-.074.358-.388.475-.727.33-.433-.188-.732-.644-.47-.982.685-.882.423-1.6-.08-2.423-.38-.627-.173-1.313.506-1.874.067.874.383 1.49.787 2.08.645.946.184 1.918-.015 2.868zm-.65-5.608c-.084-.268-.165-.54.077-.747.27-.232.6-.167.844.015.367.274.683.618 1.016.928-.882.925-1.617.808-1.936-.197zm4.654 32.345c-.19.108-.388.08-.572-.054-.478-.348-.79-1.283-.522-1.835.244-.502.29-.937.03-1.45-.23-.454.078-.72.497-.8.412-.08.667.155.68.562.014.44-.037.884-.06 1.347.03.582-.214 1.197.1 1.792.085.162.012.347-.152.44zm2.75-23.85c.315.07.733.116.723.55-.01.373-.35.44-.68.45-.312-.03-.62-.13-.625-.5-.005-.343.202-.586.583-.5zm-.337 1.985c.277.302.387.69.054.95-.37.288-.758.113-1.052-.34.233-.435.57-.55.998-.61zm-.35 8.258c-.398.246-.88.296-1.222-.058-.32-.33-.092-.698.17-.987.223-.244.322-.605.698-.742.4.157.5.465.637.727.22.423.11.817-.283 1.06zm.064-5.214c-.352-.034-.68-.134-.68-.584.003-.34.624-.938.978-.933.376.073.538.33.51.718-.034.503-.234.854-.808.8zm1.215 20.036c-.082.432-.592.4-.954.228-.463-.22-.567-.748-.304-1.03.418-.45.57-1.03 1.017-1.708.582.927.386 1.75.242 2.51zm4.355-7.502c-.4.144-.743.323-.982.69-.203.31-.476.538-.844.255-.313-.242-.31-.617-.184-.94.405-1.047 1.924-1.396 2.835-.67-.074.466-.486.543-.823.664zm.827-8.862c-.48.06-1.2-.715-1.168-1.204.033-.504.385-.574.786-.578.555.013 1.224.613 1.14 1.07-.07.397-.362.664-.758.712zm2.07 12.92c-.02-.016-.034-.033-.053-.05.02-.004.034 0 .054-.01v.06z"/>
  <path d="M197.683 121.158c1.413.788 1.718 2.184.774 3.44-.167-1.21-.686-2.162-.774-3.44z"/>
  <path d="M195.75 100.808c.99.76 1.932.707 3.014-.185.207-2.11.05-4.223.088-6.334.025-1.394-.56-2.212-1.915-2.117-1.485.105-2.993-.177-4.462.26-1.06.317-2.125-.46-2.235-1.53-.15-1.46.017-2.922-.08-4.385-.13-1.938.06-3.882-.003-5.825-.047-1.427.517-1.896 2.063-1.698 1.872.24 3.743-.084 5.613.07.693.057 1.05-.287 1.034-1.053-.036-1.81-.01-3.62-.012-5.43 0-1.384-.61-2.05-2.024-2.1-1.583-.054-3.15.145-4.76-.034-1.39-.154-2.858-.008-4.29.018-1.276.024-2.53.06-3.34 1.288-.11.168-.293.29-.49.36-.365.127-.75.148-.712-.368.053-.716-.43-.757-.903-.84-.37-.063-.754.016-1.124-.055-1.146-.218-1.197-.19-1.43.934-.12.574-.132 1.144-.006 1.723.174.8.222 1.617.22 2.434-.01 2.605-.18 5.204-.128 7.813.07 3.576.154 7.152.23 10.727.024 1.09.078 1.177 1.157 1.197.567.01.875.175 1 .76.116.537-.044.827-.526 1.045-.4.18-.77.41-1.21.522-.5.127-.786.456-.726 1.06.198 1.977.254 3.957.243 5.95-.018 3.14-.245 6.274-.084 9.42.177 3.485-.13 6.98.044 10.47.005.102.013.208-.006.307-.244 1.263.04 2.515.056 3.772.01.796.39 1.055 1.146 1.072.683.016 1.36-.04 2.043-.024 1.588.04 3.145-.345 4.776-.05 1.438.263 1.67-.216 1.213-1.8-.768.288-1.556.413-2.26-.182-.16-.193-.27-.374-.35-.545-.01-.358.01-.71.168-1.028.105-.097.217-.19.38-.268.375-.01.734-.105 1.093-.194.352-.342.707-.427 1.068-.082 0 .06-.002.12-.004.18.254.478.52.952.757 1.44.14.292.293.547.652.563.713.03 1.1.503 1.38 1.064.257.512.653.787 1.195.835.78.07 1.56.098 2.342.14.814.042 1.55-.138 2.128-.76.066-.012.158 0 .195-.04.996-1.068.87-2.597-.293-3.488-.52-.4-.815-.88-.78-1.57.034-.716.02-1.438-.034-2.15-.077-.998-.648-1.487-1.627-1.57-1.106-.09-1.928.18-2.774 1.056-1.015 1.053-1.457 1.89-.884 3.228.012.46.37.507.7.58.4.087.803.078 1.213.056.96-.05 1.323.263 1.31 1.216-.005.442.32 1.027-.196 1.318-.54.303-.906-.284-1.407-.51-.584.497-1.128.37-1.593-.236-.023-.622-.11-1.163-.78-1.5-.496-.25-.712-.745-.678-1.364.052-.944.014-1.893.006-2.84-.008-.975-.012-.975-1.015-1.043-.712-1.52-.36-3.225-.828-4.79-.035-.116.088-.247.3-.3.33-.013.52.318.804.482.34.198.717.357.725-.302-.02-.806.466-1.826-.963-2.004-.316-.038-.238-.764.11-.77 1.015-.015.918-.718.918-1.35.003-2.28-.067-4.565-.004-6.846.028-.997-.148-1.784-1.04-2.312-.28-.166-.557-.42-.39-.74.474-.897.877-1.866 1.803-2.473.463.945.883 1.28 2.167 1.785.984.386 1.482.045 1.492-1.023 0-.17-.018-.342-.003-.51.03-.353.214-.572.587-.57.367.002.702.108.765.52.04.26.006.545-.05.806-.062.298-.04.52.22.72zm-13.4 15.39c-.31-.306-.515-.593-.168-.946.147-.15.407-.163.523.044.226.398.05.678-.354.902zm.476-30.628c-.01.126-.078.248-.11.346-.177.062-.324.07-.428-.023-.335-.3-.643-.63-.426-1.13.107-.245.37-.354.598-.253.467.207.396.656.366 1.06zm9.942 43.677c-.013.02-.03.03-.042.053-.02-.016-.03-.035-.05-.05l.092-.003zm-6.43-34.576c.498.3.928.635.777 1.236-.07.28-.5.463-.75.22-.428-.412-.457-.922-.026-1.455zm.645 15.882c.242.258.018.512-.12.73-.36.58-.99.682-1.58.79-.308.056-.448-.252-.494-.538-.077-.473.017-.928.16-1.5.414.29.333.828.848.88.18-.004.31-.17.464-.3.226-.193.49-.308.72-.062zm-1.196-3.008c.232 0 .355.157.38.373.032.296-.146.44-.427.427-.244-.01-.35-.173-.343-.407.01-.234.13-.372.39-.393zm-1.074-12.205c.278-.024.558-.01.628.36-.026.35-.255.45-.56.443-.242-.005-.52-.006-.57-.307-.057-.356.21-.473.503-.497zm.386 6.382c.268.11.293.564.12.823-.34.51-.766.398-1.303-.026.39-.424.526-1.065 1.182-.798zm2.958 20.104c.015.15.013.317-.013.518-.004.156.01.314-.012.466-.14.932-.505 1.158-1.41.836-.498-.177-.978-.396-1.504-.472-.608-.088-.786-.556-.99-1-.06-.053-.125-.096-.183-.153-.024-.053-.053-.105-.086-.155.1-.173.22-.28.337-.407.334-.73 1.03-.993 2.223-.77.21.04.414.166.62.168.953.01.96 0 1.02.935 0 .014-.003.025-.002.036zm.247-16.803c-.037.476-.084.958-.27 1.398-.22.52-.662.693-1.178.513-.496-.173-.45-.6-.38-1.03.117-.72.68-1.16 1.06-1.712.098-.144.3-.185.46-.082.332.218.328.568.308.915z"/>
  <path d="M69.99 127.86c-.115-.25-.25-.48-.622-.535-.488.75-.138 1.34.195 2.04.38.8 1.25.606 1.753 1.07-.06.446-.252.813-.68.796-1.447-.056-2.952.298-4.298-.548-.284-.178-.57-.354-.905-.56-.406.304-.806.612-1.214.91-.934.68-1.752.383-1.853-.758-.098-1.115-.032-2.244-.038-3.366-.003-.41.002-.816-.12-1.218-.39-1.276.134-2.633 1.335-3.14.963-.404.94-1.435 1.524-2.065.138-.15-.015-.403-.198-.523-.438-.287-.56-.754-.73-1.2-.397-1.057-.425-1.067-1.43-.637-.173-.077-.27-.223-.275-.397-.047-1.325.028-2.665-.153-3.97-.2-1.436.27-2.823.06-4.258-.258-1.758.22-3.54.01-5.316-.037-.31.126-.528.436-.602.31-.074.615-.082.85.186.248.282.49.567.732.855.133.16.263.33.495.318 1.075-.056 1.43.622 1.637 1.523.2.876 1.437 1.895 2.314 1.854.895-.042 1.41.37 1.744 1.126.408.658-.173 1.398.145 2.096.468.142.774-.652 1.297-.173.526.48.536 1.063.536 1.686-.005 3.89-.01 7.782-.003 11.673 0 .616 0 1.234-.32 1.79-.15.26-.178.52-.026.775.206.345.173.64-.116.92-.306.297-.63.2-.947.05-.365-.172-.77-.23-1.136-.4z"/>
  <path d="M19.827 127.07c0 1.127-.022 2.253.008 3.378.018.7-.188 1.08-.966 1.108-.747.026-1.49.163-2.233.276-.49.075-.947.003-1.402-.173-.516-.2-.992-.295-1.56.002-.635.332-1.722-.452-1.68-1.168.03-.528-.142-.894-.5-1.265-.436-.45-.38-.9.176-1.276.378-.256.787-.395 1.215-.518.904-.26 1.052-.46.872-1.398-.18-.936-.106-1.818.268-2.696.228-.535.564-.822 1.16-.806 1.295.034 2.59.047 3.885.077.494.01.736.26.73.775-.012 1.228-.003 2.456-.003 3.684h.03z"/>
  <path d="M172.18 127.52c-.364-.47-.023-.92-.12-1.34-.185-.788-.044-1.646-.525-2.373-.088-.134-.11-.324-.124-.492-.028-.362.02-.713.476-.757.38-.037.734.112.714.536-.026.556.352.852.608 1.242.212.323.446.502.843.397.56-.148.98.118 1.397.445.663.52.747.856.228 1.52-.455.58-.475 1.54-1.443 1.677-.76-1.294-.787-1.306-2.053-.854z"/>
  <path d="M68.603 104.898c-1.273-.026-1.588-.204-1.78-1.017-.087-.36-.027-.67.3-.893.672-.46 2.574.023 2.92.742.352.734.172 1.08-.627 1.163-.268.03-.542.005-.813.005z"/>
  <path d="M131.7 123.168c-1.084.65-1.667-.095-2.26-.814-.15-.487-.222-1.045.436-1.087.535-.034 1.388-.446 1.51.615.052.447.694.743.314 1.286z"/>
  <path d="M22.787 99.828c.45.16.896.305 1.33.48.305.124.518.333.445.708-.077.394-.32.61-.715.575-.422-.035-.956.158-1.215-.313-.252-.46-.275-.973.155-1.45z"/>
  <path d="M72.234 108.262c-.73-.93-.74-1.696-.092-2.307.582.647.628 1.395.092 2.307z"/>
  <path d="M151.44 87.28c-.803-.917-.78-1.84-.002-2.702.307.895.392 1.702.003 2.702z"/>
  <path d="M20.36 73.945c-.647-.66-1.43-.907-2.322-.68-.753.193-.93.64-.525 1.25.325.492.513 1.076 1.216 1.273.436.123.54.64.32 1.037-.255.463-.69.336-1.07.122-.18-.102-.29-.283-.31-.503-.59-1.702-2.04-2.33-3.58-2.79-.528-.157-1.016-.633-1.643-.342-.546.253-1.125.243-1.707.234-1.324-.02-2.654-.13-3.966-.132-1.306-.003-2.637.187-3.962.233-.583.02-.9.195-.753.875.098.46.258 1.012.113 1.408-.55 1.506.274 2.963.045 4.44-.04.255.087.463.56.636.096.05.25-.54.604-.26.193.717-.675 1.044-.625 1.66.084 1.05-.56 1.782-1.012 2.602-.267.963-.288 1.95-.253 2.94.12 3.44-.175 6.873-.155 10.315.02 3.458-.136 6.92-.162 10.38-.006.786.235 1.57.09 2.345-.487 2.612-.215 5.203.162 7.792.135.927.48 1.133 1.498.95.33-.332.524-.784 1.08-1.155-.44.81-.764 1.57-.543 2.34.062.215.427.424.55.645-.648-.13-.758-.42-1.17-.31-.197-.036-.33.224-.51.15-.262-.11-.54-.23-.73.043-.193.28.034.507.237.69.505.456.913.97 1.203 1.6.128.277.344.586.722.645.96.397 1.914.412 2.848-.07.416-.214.845-.316.987.24.197.774.705.804 1.33.745.406-.04.817-.04 1.226-.038.685.003.845-.16.706-.842-.08-.398-.264-.768-.034-1.183.78-1.408.862-2.88.378-4.403-.048-.15-.005-.338.025-.503.378-2.018.187-4.068.328-6.102.176-2.55.075-5.116.1-7.675.01-.975.1-1.035 1.05-1.058 2.01-.05 4.024-.083 6.026-.316.995-.116 1.03-.186 1.012-1.23-.014-.85.042-1.704.05-2.556.004-.427.172-.898-.265-1.234-.84-.313-1.494.12-2.19.496-.677.365-.68 1.008-.742 1.703-.527-.312-.752-.6-.24-.972.442-.32.614-.8.874-1.237.25-.422.146-.95.468-1.337.57-.684.27-1.238-.283-1.822-.617.58-1.054.08-1.53-.212-.952.013-1.902-.063-2.844-.198-.698-.1-1.25-.46-1.288-1.224-.072-1.386-.056-2.78-.077-4.165-.035-2.226.315-4.457-.76-6.572-.326-.64.02-1.02.766-.95.39.04.64-.012.843-.37.214-.377.112-.636-.18-.892-.106-.092-.158-.22-.013-.403.372-.22.625.096.948.27.437.235.752.723 1.295.746.006.045.013.09.012.135.566.11 1.216-.16 1.704.148 1.048.66 2.118.47 3.238.365.77-.072.995-.426 1-1.095.014-2.035.033-4.07.047-6.106.003-.2.023-.417-.22-.515zM7.077 81.692c.118-.2.297-.287.458-.13.345.337.32.693-.073 1.058-.47-.23-.64-.495-.384-.928zm.383 4.687c-.28.026-.307-.226-.308-.44 0-.136-.03-.28.104-.443.326-.05.437.123.455.39.016.213.012.467-.25.492zM7.3 97.85c.408.034.523.37.532.74-.04.292-.138.56-.492.503-.357-.057-.485-.34-.472-.678.012-.285.083-.594.43-.565zm1.14 22.634c-1.207-.015-1.7-.496-1.7-1.66-.002-.843.386-1.154 1.43-1.148.776.004 1.534.813 1.503 1.605-.03.75-.503 1.213-1.233 1.204zm1.666-28.94c-.318-.066-.433-.304-.41-.614.024-.325.248-.38.51-.35.31.036.492.208.49.55-.082.294-.264.48-.59.413zM13.07 76.31c-.046 1.304-.043 1.334-1.274 1.443-.58.05-.75.29-.74.84.022 1.24.002 1.24-1.196 1.255-.793.01-1.14-.5-.685-1.168.345-.507.547-.98.5-1.588-.034-.453.212-.697.683-.68.467.015.65-.206.683-.678.06-.824.474-1.287 1.018-1.24.55.046 1.032.714 1.014 1.407-.004.14 0 .275 0 .41zm2.114 1.267c-.12-.062-.373-.383-.59-.75.128-.3.364-.32.598-.17.225.143.482.313.476.622-.007.3-.16.462-.484.297z"/>
  <path d="M118.45 125.582c-.123-.7.123-1.028.852-1.017.368.006.54-.24.522-.607-.024-.496-.745-1.288-1.235-1.356-.59-.083-.854.17-.817.787.074 1.216-.106 1.36-1.324 1.052-.135-.034-.26-.068-.392-.002-.2.643.184 1.835.726 2.097.44.213.947.195 1.388.03.446-.17.343-.627.28-.985z"/>
  <path d="M121.217 128.28c-.31-.146-.634-.254-1.088-.25-.435.078-.97.17-1.505.274-.266.052-.403.217-.4.504.003.576.455 1.132 1.066 1.212.298.04.486.197.707.36.68.503 1.43.295 1.87-.49.29-.52-.024-1.318-.65-1.61z"/>
  <path d="M121.25 123.572c.508.315.435-.223.6-.41v.002c.093-.37.518-.7.18-1.118-.246-.306-.643-.263-.954-.184-.764.194-.592.75-.412 1.282.203.132.453.2.586.428z"/>
  <path d="M122.668 124.83c-.025-.175-.204-.26-.4-.222-.71-.36-1.034.033-1.098.657-.054.525-.122 1.074.07 1.6.106.17.205.35.405.434.848.313 1.143.164 1.237-.65.07-.62-.13-1.216-.214-1.82zm-.18.16c-.062-.13-.126-.26-.22-.382.11.12.177.248.22.382z"/>
  <path d="M151.285 92.054c.472.458.424.862.008 1.33-.438-.464-.46-.868-.008-1.33z"/>
  <path d="M25.894 100.816c.32.783.264.857-.61.81-.23-.74-.175-.81.61-.81z"/>
  <path d="M151.39 97.177c.273.067.405.245.376.52-.023.22-.15.406-.387.39-.288-.02-.402-.234-.376-.507.022-.223.142-.376.387-.403z"/>
  <path d="M133.026 125.077c.382.26.424.54.152.927-.55-.244-.6-.524-.152-.927z"/>
  <path d="M177.833 83.46c.04-.674.23-1.514-.085-1.996-.467-.718-.403-1.405-.445-2.134-.025-.442.06-.936-.107-1.316-.603-1.362-.68-2.896-1.43-4.202-.376-.323-.767-.507-1.295-.338-.525.168-1.085.05-1.63.068-.377.012-.714-.13-.807-.496-.14-.55-.536-.895-.93-1.185-1.472-1.083-2.605-2.693-4.75-2.715-1.902-.02-3.867-.04-5.517.792-1.602.81-3.506 1.343-4.347 3.415-.407 1-1.2 1.73-.282 2.746-.38.39-1.007.23-1.112.68-.273 1.172-.967 2.18-.986 3.483-.028 1.923.252 3.892-.428 5.78-.1.276-.08.618.066.903.353.69.462 1.417.41 2.18-.015.243.007.528.17.683.628.6.332 1.235.143 1.884-.37 1.27-.414 2.602-.042 3.828.567 1.87.35 3.642-.014 5.492-.135.687-.35 1.262-.67 1.847-.177.322-.102.676.106.972.43.608.365 1.167 0 1.805-.334.583-.353 1.256.06 1.843.247.353.292.67.058 1.034-.172.27-.243.6-.177.89.277 1.217.088 2.422-.01 3.634-.03.373 0 .762.174 1.103.23.45.307.95.185 1.396-.27.982-.022 1.936.027 2.898.142 2.765.047 5.597 1.997 7.908.166.197.117.456.17.685.193.833 1.96 1.56 2.672 1.094.368-.24.412-.603.287-.997-.074-.232-.243-.41-.366-.614-.147-.245-.262-.5-.027-.75.212-.224.502-.248.76-.137.933.396.615 1.267.694 1.968.07.62-.374.664-.867.71-1.278.12-1.526.65-.857 1.72.52-.004 1.022.062 1.445.407.596.487 1.3.318 1.97.306.358-.006.548-.213.535-.6-.047-1.365-.01-2.73-.02-4.096-.003-.403-.195-.672-.57-.74-.8-.15-.862-.685-.88-1.365-.04-1.396.383-2.88-.704-4.114.112.074.207.14.303.14.713.007 1.57.75 2.04-.514.132-.352.667-.14.94.188.173.21.01.565.354.738.612-.042.612-.52.557-.955-.167-1.33-.003-2.653 0-3.98.023-6.925.006-13.85.01-20.775 0-1.24 0-1.248-1.285-1.425-.277-.038-.524-.144-.785-.22-.335-.095-.673-.233-.707-.638-.032-.383.222-.633.528-.814.356-.21.72-.408 1.15-.19.292-.006.383.408.82.312.218-.913.18-1.895.185-2.862.014-2.626-.01-5.252-.03-7.877-.006-.646.205-1.205.596-1.704.295-.374.61-.908 1.13-.695.546.225 1.014.652 1.033 1.386.047 1.85.274 3.69.105 5.554-.167 1.837.05 3.662.445 5.472.21.96.18 1.012 1.15 1.01 2.384-.003 4.77-.01 7.154-.013 1.506-.002 1.995-.486 1.77-2-.32-2.172-.162-4.33-.034-6.496zm-17.722-.377c.317.376.607.665.826 1 .194.297.263.683-.068.923-.318.23-.657.07-.922-.176-.46-.427-.417-1.07.165-1.747zm.644 15.768c-.73.624-1.04 1.265-.96 2.28.06.786-.077 1.61-.018 2.428.05.7-.424.953-1.065.622-.06-.03-.116-.07-.167-.115-.278-.244-.554-.49-.808-.717-.07-.395.34-.425.43-.672.207-1.045.048-2.1.094-3.15.014-.355-.15-.6-.512-.647-.283-.036-.588-.06-.633-.392-.05-.373.172-.647.495-.82.388-.21.876-.35.554-.963-.995-.583-1.332-1.464-1.168-2.574.035-.238.062-.475.467-.62.492.536.913 1.864 1.943.465.664.525 1.1 1.177 1.653 1.707.512.492.266 2.68-.306 3.17zm.846-8.302c-.824.336-1.6.763-2.506.202-.34-.21-.647-.39-.66-.823-.016-.472.294-.663.703-.726.477-.073.704-.7 1.138-.588.694.094 1.178.36 1.595.714.58.49.443.93-.27 1.222zm8.085-6.716c-.263.227-.67.193-.803-.11-.27-.61.224-.882.712-1.223.42.51.55.937.09 1.332zm2.153-5.45c-.183.157-.473.064-.574-.218-.127-.356-.05-.69.264-.905.42-.29.883-.245 1.432-.09-.132.74-.736.88-1.122 1.212z"/>
  <path d="M167.82 107.407c.705-.458 1.516-.334 2.28-.353 2.013-.05 4.03-.022 6.045-.02 1.024 0 1.086.068 1.143 1.1.017.305.056.61.076.916.056.83-.13 1.075-.957 1.204-.63.1-1.078.554-1.613.83-.362.187-.187.553.174.675.376.126.75.065 1.026-.262.283-.333.623-.506 1.22-.453.506 3.985.174 7.94-.018 12.09-.75-.6-1.13-1.158-1.133-1.92-.002-.527-.285-.684-.765-.748-1.387-.186-2.79.213-4.172-.15-.317-.085-.523.154-.57.45-.05.302-.066.615-.042.918.07.894-.013 1.696-.903 2.212-.44.255-.426.752-.43 1.197-.01 1.674-.006 3.348-.017 5.022-.008 1.22-.438 1.49-1.5.89-.455-.255-.912-.254-1.386-.238-.623.02-1.145-.164-1.525-.67-.313-.416-.196-.687.318-.753.1-.013.205.004.307 0 1.157-.023 1.594-.805.948-1.812-.278-.433-.446-.92-.75-1.33-.315-.424-.306-.82.25-.935 1.36-.28 1.534-1.164 1.426-2.357-.116-1.288.065-2.585.126-3.876.058-1.245-.027-2.512-.005-3.773.034-1.876.005-3.755-.042-5.63-.02-.798.067-1.545.495-2.23l-.003.007z"/>
  <path d="M71.418 85.48c-.713-.288-.957-.91-.93-1.65 0-.102-.016-.2-.05-.294-.476-.82-.3-1.554.29-2.232.412-.347.623-.76.59-1.333-.05-.9.293-1.682.976-2.263.438-.372.663-.807.538-1.34-.198-.847-.097-1.69-.093-2.534.003-.76-.308-1.374-1.084-1.533-1.023-.21-2.098-.243-3.118-.248-1.684-.01-3.388.052-5.078.248-1.024.12-1.153.266-1.208 1.315-.074 1.43.138 2.86.017 4.28-.258 3.024-.077 6.057-.146 9.083-.042 1.878.118 3.8.164 5.702.03 1.22.275 1.495 1.53 1.464 1.428-.035 2.853.004 4.28.075.123-.06.185-.127.245-.194-.024-.747-.408-1.147-1.167-1.23-.596-.066-.88-.54-1.032-1.022-.153-.49.2-.805.566-1.03.46.087.434.44.515.722.062.217.18.376.413.384.242.01.402-.153.4-.374 0-.53.483-.653.706-.96.518-.71 1.106-1.362 1.606-2.077.077-.11.118-.25.136-.39-.005-.11-.02-.22-.043-.33-.06-.16-.17-.307-.39-.405-.31-.136-.443-.37-.228-.64.226-.286.56-.253.817-.026.308.27.57.59.59 1.034.4.128.796.998 1.207.01.17-.973.043-1.784-1.022-2.214zm-4.728 4.29c-.254-.388-.31-.703-.03-.985.083-.084.29-.08.35.065.15.347.244.702-.32.92zm2.532-4.21c-.634.52-1.202-.082-1.78-.2-.515-.104-.485-.565-.124-.938.7-.813.734-.814 1.443-.035.263.166.514.346.525.693.006.163.03.405-.063.48z"/>
  <path d="M71.018 100.416c-.192-.096-.21-.234-.23-.4-.517-.242-.32-.747-.422-1.144-.096-.374.182-.806-.18-1.136-.563-.538-.426-1.242-.455-1.908-.04-.97-.542-1.604-1.404-1.787.045.217.017.453.174.64.004 1.125.033 2.252.004 3.378-.018.7-.335.907-.91.546-.623-.392-1.266-.46-1.96-.43-.34.013-.673-.01-.997-.17-.818-.398-1.168-.245-1.482.643-.228.643-.43 1.295-.645 1.944-.158.823.02 1.043.696.866.645.144 1.278-.164 1.927-.042.382.072.765.035.982-.358.246-.447-.057-.684-.377-.914-.174-.125-.295-.293-.184-.52.104-.213.39-.344.5-.233.626.625 1.25.05 1.868.058.555.01 1.136-.257 1.66.133.314.11.33.395.387.653.07.318.295.52.527.714.164.136.37.225.537.044.163-.174.287-.422-.016-.574z"/>
  <path d="M160.08 96.723c.43.44.386.783.167 1.233-.574-.352-.544-.708-.167-1.233z"/>
</svg>
