<!--
  SVG Music Logos
  Eminence - E Symbol v0.1.0
  https://github.com/tiagoporto/svg-music-logos
  Copyright (c) 2016-2018 Tiago Porto (http://tiagoporto.com)
-->
<svg xmlns="http://www.w3.org/2000/svg" viewBox="0 4 200 193">
  <g>
    <path d="M149.584 121.637c1.235 0 2.47-.013 3.705.005.634.007 1.202-.134 1.673-.61.44-.44.972-.606 1.56-.592.647.015 1.295.028 1.942.067.612.036 1.153-.09 1.628-.546.18-.17.464-.282.708-.298.91-.06 1.82-.112 2.728-.082.737.022 1.403-.086 1.992-.588.527-.45 1.13-.638 1.81-.588.464.033.932.013 1.397-.016.422-.026.84-.114 1.26-.145.422-.03.85-.06 1.266-.013.16.017.39.222.424.38.033.16-.123.38-.225.555-.048.082-.164.12-.253.17-.126.07-.27.116-.378.206-.662.556-1.363.96-2.25.92-.325-.014-.547.286-.68.583-.235.523-.627.652-1.11.543-.47-.108-.82.018-1.093.458-.252.408-.654.573-1.095.61-.525.042-.975.2-1.33.655-.298.384-.728.542-1.197.52-.3-.015-.603-.054-.902-.107-.516-.09-.926.01-1.293.474-.402.507-.9.93-1.356 1.387-.23.232-.493.377-.822.33-.365-.052-.64.118-.823.43-.384.658-.937.85-1.617.713-.472-.098-.852.07-1.12.463-.353.518-.82.67-1.384.595-.372-.052-.65.102-.914.385-.44.473-.91.915-1.37 1.366-.28.278-.63.25-.975.244-.383-.007-.768-.024-1.148.007-.244.022-.497.12-.513.45-.016.302.175.522.412.575 1.113.26 2.257.545 3.224-.4.625-.61 1.302-.765 2.124-.63.57.096 1.168.03 1.754.013.506-.016 1.01-.074 1.514-.097.18-.006.367.025.54.074.467.14.568.532.204.854-.45.4-.91.794-1.41 1.12-.26.17-.604.24-.917.264-.46.037-.93-.007-1.396-.015-.3-.01-.537.097-.76.327-.548.57-1.106 1.13-1.7 1.646-.178.156-.485.21-.725.195-.365-.024-.64.054-.826.394-.388.71-1.01.865-1.68.696-.56-.14-.994.013-1.402.372-.558.495-1.12.985-1.655 1.507-.232.227-.49.275-.774.31-.693.08-.827.23-.69.954.163.878.014 1.61-.633 2.225-.36.343-.674.744-.966 1.154-.152.214-.24.497-.306.763-.144.58-.375 1.086-.82 1.473-.32.283-.437.662-.394 1.1.04.388.093.773.1 1.16.008.57-.188.78-.715.828-.04.004-.082.007-.12.003-.575-.08-.886.157-1.02.792-.16.757-.763 1.256-1.138 1.89-.387.655-.766 1.313-1.168 1.958-.12.19-.284.357-.452.503-.123.107-.29.153-.43.24-.37.233-.38.434-.044.74.476.432.957.856 1.42 1.3.212.2.398.432.578.664.34.436.75.636 1.285.527.12-.024.24-.028.362-.04.508-.044.914.137 1.182.615.417.74.952 1.327 1.724 1.655.176.074.342.243.45.415.212.342.486.504.862.49.46-.014.792.204 1.106.56.775.877 1.59 1.718 2.387 2.573.25.266.558.352.892.318.51-.05.923.114 1.354.423.603.432 1.228.81 1.753 1.37.194.21.59.244.902.273.35.034.632.144.826.454.244.388.59.562 1.014.628.684.103 1.184.533 1.59 1.097.328.46.237.8-.29.978-.82.28-1.63.238-2.267-.44-.443-.473-.92-.676-1.525-.59-.565.078-1.038-.113-1.4-.587-.235-.307-.544-.434-.905-.452-.223-.007-.446-.04-.667-.024-.503.032-.915-.13-1.223-.565-.387-.545-.924-.62-1.52-.59-1.09.05-2.18.075-3.272.096-.524.012-.972-.154-1.362-.58-.21-.227-.547-.356-.85-.442-.306-.085-.642-.082-.964-.077-.454.007-.842-.125-1.13-.505-.315-.413-.717-.498-1.194-.48-.99.037-1.983.03-2.974.037-.496.004-.88-.182-1.195-.627-.18-.255-.49-.45-.777-.57-.582-.24-1.188-.415-1.786-.61-.556-.183-.827.06-.755.66.074.61.36.92.937 1.003.32.047.644.07.963.12.52.086.893.383 1.083.918.05.14.11.28.165.417.182.446.497.698.955.63.615-.09 1.027.167 1.41.666.182.237.536.414.83.447.827.094 1.3.75 1.87 1.24.274.238.207.573-.074.84-.28.264-.605.312-.966.254-.54-.084-1.082-.155-1.624-.217-.432-.05-.853-.12-1.18-.45-.433-.43-.953-.567-1.514-.525-.588.045-1.068-.14-1.478-.59-.423-.464-.942-.654-1.55-.524-.543.115-1.007-.05-1.372-.484-.444-.53-.946-.664-1.627-.577-.94.12-1.9.048-2.85.045-.137 0-.285-.042-.408-.107-.53-.274-1.04-.21-1.588-.023-.392.132-.83.126-1.25.145-.238.01-.48-.057-.722-.086-.405-.052-.737.077-.89.498-.172.466-.46.647-.934.644-.26 0-.538.145-.776.285-.28.167-.504.458-.793.595-.73.34-1.435.716-2.106 1.18-.18.123-.47.094-.708.086-.848-.032-1.696-.095-2.544-.13-.93-.036-1.706.486-2.526.838-.225.097-.432.24-.656.335-.48.197-.97.28-1.486.134-.273-.076-.555-.125-.836-.16-.536-.062-.702.07-.8.623-.03.167-.027.342-.03.513-.006 1.056.006 2.113-.02 3.17-.012.46.093.843.396 1.175.37.405.553.897.568 1.46.013.473.028.947.027 1.422 0 .73.143 1.424.553 2.013.437.632.568 1.335.498 2.08-.057.612.063 1.158.37 1.66.518.85.68 1.776.66 2.775-.025 1.4.008 2.803 0 4.204-.004.666.177 1.217.687 1.64.486.4.57.97.48 1.578-.063.42-.293.62-.658.62-.363 0-.61-.19-.69-.588-.057-.272-.075-.556-.083-.833-.012-.433-.13-.804-.458-1.08-.25-.208-.373-.48-.46-.808-.245-.935-.68-1.756-1.465-2.3-.347-.24-.484-.544-.458-.976.015-.23-.015-.472-.054-.705-.104-.585-.346-1.033-.955-1.195-.644-.173-1.064-.583-1.08-1.363-.003-.198-.098-.44-.227-.578-.33-.357-.485-.794-.59-1.255-.243-1.065-.86-1.842-1.67-2.454-.555-.42-.725-.95-.588-1.63.034-.168.082-.334.1-.505.054-.552-.13-.902-.604-1.148-.145-.076-.3-.132-.456-.18-.36-.107-.61-.35-.733-.713-.194-.57-.53-1.02-.968-1.382-.305-.253-.442-.562-.397-.954.082-.702-.193-1.196-.724-1.585-.553-.405-1.052-.864-1.358-1.534-.1-.22-.27-.455-.565-.402-.216.04-.446.417-.363.744.258 1 .234 1.994.13 3.01-.027.276.157.636.345.862.63.763.738 1.644.65 2.6-.038.386-.058.776-.05 1.16.008.537.16 1.03.56 1.383.36.32.483.73.494 1.2.005.173.013.345.002.518-.047.696.153 1.246.705 1.68.49.385.613.93.348 1.353-.108.17-.342.33-.528.34-.147.01-.414-.192-.443-.34-.205-1.063-1.007-1.642-1.63-2.358-.264-.305-.44-.612-.45-1.02-.012-.52-.164-.942-.562-1.297-.19-.17-.296-.515-.327-.795-.046-.415-.183-.737-.473-1.01-.426-.396-.83-.823-1.266-1.204-.308-.27-.482-.58-.466-.998.016-.417-.15-.732-.38-1.056-.28-.392-.493-.838-.73-1.263-.134-.24-.228-.515-.394-.726-.355-.45-.533-.927-.513-1.53.01-.238-.15-.555-.327-.714-.503-.448-.82-.982-.995-1.655-.18-.677-.382-.8-1.023-.677-.856.168-1.59-.047-2.265-.634-.22-.19-.532-.31-.817-.353-.332-.05-.627-.122-.89-.353-.507-.448-1.08-.726-1.738-.866-.336-.07-.674-.292-.94-.533-.343-.308-.685-.525-1.147-.462-.426.06-.764-.097-1.116-.375-.35-.275-.782-.44-1.19-.618-.44-.19-.832-.428-1.17-.792-.138-.15-.386-.295-.567-.275-1.083.132-1.777-.588-2.497-1.242-.275-.253-.493-.575-.76-.837-.344-.337-.578-.323-.75.133-.332.87-.937 1.437-1.644 1.925-.28.193-.376.478-.387.827-.045 1.248-.052 1.248-1.178 1.146-.58-.05-.838.18-.856.793-.006.236.036.473.034.71-.002.278-.004.56-.05.833-.072.424-.303.71-.732.734-.504.03-.87.312-1.193.69-.218.257-.42.53-.65.77-.276.287-.443.617-.442 1.027 0 .503-.197.84-.635 1.074-.283.15-.546.383-.75.64-1.04 1.292-2.054 2.605-3.087 3.902-.14.174-.33.312-.516.434-.188.123-.4.208-.603.3-.383.18-.574.498-.516.928.086.625-.136 1.074-.587 1.456-.36.305-.694.65-1.012 1.007-.128.144-.215.357-.263.553-.054.228-.045.472-.057.708-.015.31-.144.543-.417.655-.36.147-.615.392-.768.777-.095.24-.232.5-.517.464-.15-.022-.33-.17-.41-.314-.152-.28-.044-.595.172-.753.488-.357.627-.863.695-1.437.042-.357.203-.662.516-.832.347-.186.502-.502.537-.882.067-.662.126-1.33.14-1.994.01-.46.107-.83.455-1.137.293-.256 1.525-2.643 1.56-3.033.044-.533.088-1.083.02-1.61-.118-.932.052-1.742.61-2.48.173-.228.268-.524.397-.79.11-.232.172-.514.34-.678.388-.383.515-.86.588-1.38.072-.512.272-.948.71-1.22.328-.2.394-.527.378-.89-.03-.646-.052-1.293-.1-1.937-.055-.73.1-1.36.617-1.88.154-.155.257-.384.342-.598.186-.477.36-.933.733-1.316.216-.22.28-.655.327-1.007.062-.458.17-.828.606-1.033.323-.152.473-.452.492-.83.02-.43.06-.86.07-1.292.004-.19.007-.417-.085-.562-.126-.198-.32-.392-.524-.478-.256-.107-.412.156-.504.363-.363.82-.905 1.472-1.562 2.033-.134.115-.28.303-.298.47-.09.884-.647 1.47-1.138 2.086-.39.49-.815.96-1.263 1.395-.727.704-1.27 1.54-1.773 2.434-.402.716-.935 1.35-1.414 2.016-.195.272-.4.54-.597.808-.062.085-.11.184-.182.256-.205.204-.696.266-.915.11-.306-.22-.224-.53-.113-.812.1-.253.2-.545.385-.72.574-.542.902-1.267 1.326-1.92.428-.66.613-1.403.554-2.208-.027-.344-.073-.684-.11-1.027-.053-.513.06-.963.336-1.403.517-.818 1.007-1.66 1.46-2.52.162-.307.23-.69.266-1.046.037-.382-.006-.774-.03-1.16-.033-.54.115-.99.557-1.278.447-.29.53-.71.51-1.22-.02-.426.027-.854.036-1.282.013-.495.04-.99.02-1.485-.02-.488-.188-.92-.552-1.25-.54-.492-.742-1.126-.618-1.86.12-.69-.045-1.23-.61-1.62-.115-.08-.216-.198-.29-.32-.275-.453-.53-.918-.804-1.37-.31-.51-.42-1.067-.37-1.667.024-.3.036-.603.063-.903.08-.873-.087-1.667-.612-2.366-.372-.497-.46-1.09-.46-1.707-.002-.344.014-.697-.052-1.03-.145-.728-.69-.998-1.28-.606-.667.443-1.387.58-2.145.583-2.37.013-4.736.025-7.105.013-.53-.002-.997.098-1.408.467-.327.296-.73.365-1.138.366-.608.002-1.216.007-1.823-.024-.728-.04-1.405.112-2.045.485-.07.04-.147.07-.216.118-.715.463-1.483.652-2.322.584-.38-.032-.766.032-1.15.037-.583.007-1.104.193-1.612.498-.305.185-.675.292-1.027.338-1.04.134-2.084.23-3.13.32-.213.017-.453-.004-.65-.088-.445-.193-.516-.772-.1-1.02.612-.364 1.253-.698 1.915-.94.54-.2 1.028-.39 1.247-1.008.12-.34.378-.437.684-.393.3.046.597.116.893.183.483.112.892-.002 1.165-.46.275-.46.662-.69 1.165-.683.402.005.702-.167.92-.52.36-.58.856-.75 1.477-.576.193.054.398.076.6.1.343.038.646-.053.85-.376.235-.372.58-.583.948-.777.87-.46 1.716-.96 2.363-1.766.398-.497.848-.73 1.5-.473.562.22 1.118.11 1.524-.45.233-.32.54-.514.933-.54.37-.024.652-.246.872-.533.357-.467.83-.744 1.32-1.003.235-.123.473-.26.67-.44.284-.254.6-.352.955-.335.342.014.69.03 1.027.09.628.112 1.16-.062 1.612-.533.2-.21.424-.41.588-.652.305-.452.15-.856-.36-.952-.235-.045-.483-.025-.726-.015-.766.03-1.534.093-2.3.095-.488.002-.916.113-1.3.44-.46.386-.995.57-1.577.594-.403.018-.81.04-1.213.018-1.02-.052-1.964.214-2.864.708-.268.15-.543.295-.827.402-.506.19-.997.15-1.443-.193-.207-.156-.372-.352-.3-.65.066-.277.298-.324.52-.364.1-.02.202-.026.302-.037.362-.036.665-.19.858-.53.28-.496.717-.593 1.21-.55.16.012.32.042.48.068.534.088.994-.015 1.362-.49.312-.403.725-.61 1.237-.533.376.058.617-.13.873-.436.456-.54.963-1.048 1.513-1.476.246-.192.657-.248.975-.21.75.088 1.336-.175 1.99-.552 1.204-.69 2.238-1.625 3.388-2.384.17-.112.362-.19.552-.26.382-.138.63-.41.67-.835.067-.718.384-1.277.798-1.835.434-.586.772-1.26 1.106-1.92.14-.275.19-.614.23-.93.172-1.34.827-2.41 1.644-3.385.322-.387.687-.733 1.05-1.074.25-.235.395-.492.343-.846-.06-.43.118-.734.394-1.027.772-.82 1.518-1.67 2.29-2.495.285-.305.37-.655.317-1.06-.064-.498-.326-.787-.803-.797-.513-.01-.934-.088-1.238-.622-.12-.206-.48-.342-.736-.357-.59-.034-1.025-.31-1.436-.733-.223-.23-.52-.412-.815-.516-.513-.185-.92-.478-1.1-1.024-.22-.67-.662-.965-1.296-1.097-.34-.072-.65-.318-.972-.49-.18-.094-.342-.237-.528-.3-.52-.173-.937-.486-1.295-.92-.335-.404-.69-.79-1.034-1.18-.38-.433-.822-.58-1.375-.424-.97.272-1.365.032-1.7-.975-.333-.998-.543-1.168-1.512-1.08-.59.058-1.023-.09-1.424-.61-.432-.56-.992-1.01-1.516-1.483-.42-.378-.64-.756-.485-1.012.24-.394.625-.307.99-.285.83.048 1.585.29 2.27.81.45.343.974.524 1.54.524.44 0 .832.15 1.178.442.446.376.947.55 1.525.51.556-.04 1.034.17 1.408.62.33.4.75.574 1.244.552.99-.045 1.98-.086 2.966-.138.482-.027.942.04 1.302.403.357.362.764.51 1.254.544.693.05 1.344.26 1.91.737.428.362.95.485 1.49.467.706-.025 1.416-.052 2.12-.118.712-.066 1.353.006 1.91.57.24.24.584.42.907.488.593.124 1.114.37 1.584.76.357.298.74.324 1.14.117.32-.165.428-.44.327-.802-.192-.692-.805-1.155-1.478-1.038-.467.082-.82-.058-1.173-.36-.394-.337-.827-.62-1.226-.95-.59-.483-1.234-.815-1.977-.925-.135-.02-.275-.09-.39-.17-.805-.58-1.59-1.187-2.253-1.95-.108-.122-.2-.277-.25-.435-.12-.37.017-.58.38-.623.038-.004.08-.003.12-.002 1.132.022 2.265.018 3.395.082.346.02.717.164 1.02.353.635.398 1.274.748 2.02.827.355.037.656.19.898.485.283.342.655.512 1.084.472.73-.068 1.345.166 1.888.694.424.413.965.54 1.524.54 1.113-.003 2.227-.033 3.34-.033.45 0 .805-.17 1.154-.473.816-.707 1.69-1.315 2.687-1.72.426-.174.838-.448 1.186-.765.388-.35.802-.466 1.284-.46 1.033.02 2.065.014 3.097.046.574.018 1.09.007 1.385-.658.15-.335.506-.305.81-.325.847-.06 1.697-.087 2.54-.188 1.225-.146 1.722-.848 1.667-2.145-.063-1.527-.103-3.056-.103-4.586 0-.796-.105-1.55-.477-2.24-.594-1.107-.667-2.295-.504-3.513.076-.573-.036-1.03-.473-1.37-.57-.438-.74-1.018-.665-1.752.045-.442 0-.905-.07-1.348-.046-.285-.16-.597-.332-.815-.307-.387-.45-.815-.48-1.298-.036-.54-.06-1.077-.075-1.615-.024-.775-.037-1.55-.052-2.325-.004-.13-.02-.26-.002-.388.05-.366.244-.48.557-.303.176.1.347.235.473.396.58.744 1.17 1.486 1.704 2.266.193.28.29.662.347 1.014.1.607.223 1.183.678 1.614.03.028.054.067.07.106.382 1 1.167 1.63 1.89 2.315.31.297.483.63.4 1.082-.063.35.018.63.33.823.387.242.61.632.717 1.083.12.5.373.9.692 1.27.177.206.324.443.51.64.554.588.856 1.28.935 2.114.062.64.41 1.152.97 1.39.645.27.953.707.99 1.446.022.426.232.802.526 1.136.21.238.36.57.448.89.123.448.327.807.625 1.152.495.564.937 1.18 1.385 1.79.26.352.47.452.76.3.27-.14.438-.48.314-.82-.114-.316-.29-.626-.503-.87-.44-.51-.632-1.095-.618-1.77.03-1.508.036-3.018.107-4.523.048-1.003-.128-1.87-.848-2.583-.172-.17-.26-.49-.29-.755-.05-.51-.05-1.032-.03-1.545.023-.57-.03-1.083-.558-1.395-.068-.04-.13-.104-.18-.17-.158-.215-.163-.44.014-.643.15-.168.43-.122.55.16.194.447.524.702.9.915.35.196.468.516.47.91 0 .042.01.088-.002.128-.384 1.205.29 1.997.975 2.77.485.548.985 1.085 1.5 1.602.266.268.45.562.46.948.03 1.308.735 2.25 1.503 3.152.434.51.928.963 1.35 1.482.157.192.258.497.27.758.02.454.125.813.445 1.148.2.21.33.55.39.853.194.966.943 1.476 1.493 2.146.103.122.33.158.505.173.22.016.45.002.662-.055.67-.18 1.187-.012 1.56.64.273.472.69.634 1.205.543.218-.037.443-.036.666-.04.34-.006.61.137.86.398.494.507 1.022.98 1.537 1.464.38.357.835.443 1.31.327.983-.244 1.74.12 2.36.92.127.166.278.314.4.486.412.577.973.78 1.612.655.588-.117.923.122 1.267.616.318.454.792.787 1.21 1.155.183.16.383.08.56-.053.59-.44 1.124-.906 1.278-1.726.156-.827.795-1.33 1.272-1.933.112-.14.41-.15.62-.152.82-.015 1.1-.25 1.035-1.114-.066-.855.24-1.405.934-1.772.16-.088.294-.233.452-.326.436-.253.643-.614.604-1.16-.015-.223.03-.514.158-.67.504-.61.958-1.328 1.73-1.57.81-.25 1.052-.858 1.117-1.64.022-.28.022-.56.045-.84.028-.353.218-.583.552-.55 1.235.117 1.704-.995 2.414-1.705.126-.125.14-.397.17-.606.053-.378.225-.654.483-.93.765-.827 1.567-1.638 2.21-2.568.505-.734.817-1.625 1.175-2.467.212-.498.32-.647.66-.583.373.07.65.394.663.812.013.46-.196.808-.498 1.13-.253.27-.46.587-.662.904-.203.318-.365.668-.562.994-.476.79-.75 1.62-.536 2.57.047.208.057.426.09.64.088.6-.066 1.116-.518 1.5-.3.252-.472.578-.562.966-.1.424-.268.79-.557 1.123-.206.243-.32.6-.406.925-.154.593-.362 1.138-.793 1.57-.25.253-.34.583-.318.943.037.603.064 1.205.12 1.805.055.583.026 1.12-.43 1.538-.103.098-.188.235-.24.372-.352.92-.92 1.708-1.376 2.567-.247.465-.493.936-.764 1.39-.216.36-.327.73-.285 1.16.05.492.063.99.113 1.48.057.59-.082 1.117-.394 1.59-.444.67-.903 1.325-1.355 1.987-.06.087-.13.167-.186.256-.165.26-.272.553-.142.853.144.335.47.293.745.3.18.008.362-.027.54-.062.638-.13.787-.336.657-1.03-.077-.41.02-.683.3-.97.805-.82 1.583-1.67 2.356-2.52.193-.215.36-.47.495-.732.615-1.177 1.447-2.172 2.26-3.19.525-.654.987-1.364 1.476-2.052.085-.12.152-.257.253-.362.277-.293.75-.28.974.015.214.28.19.8-.144.963-.61.296-.81.847-1.03 1.434-.1.272-.295.512-.472.744-.39.516-.586 1.065-.44 1.74.085.397.12.808.15 1.217.047.632-.148 1.19-.512 1.682-.112.15-.283.293-.32.464-.232 1.11-1.062 1.875-1.43 2.906-.104.292-.312.558-.52.784-.31.336-.437.714-.398 1.17.042.495.074.99.11 1.485.042.578-.042 1.105-.407 1.575-.293.378-.293.515.003.915.437.59.562 1.222.365 1.942-.155.565.003.997.383 1.458.626.754 1.143 1.607 1.708 2.416.132.19.25.404.418.547.498.426.618.982.583 1.618-.046.84-.068 1.68-.13 2.516-.045.61.112 1.106.57 1.482.44.362.602.844.557 1.423-.024.323-.045.646-.052.97-.017.665.134.868.753.908.687.045 1.376.048 2.064.056.708.007 1.417 0 2.126 0 .005.014.005.022.005.03h.006l-.006.003zm-54.012 41.28l3.8.31c2.428 0 4.102-.59 6.53-.572.595.004 1.09-.158 1.572-.547.344-.28.787-.568 1.192-.578 1-.024 1.842-.4 2.644-.97.3-.213.623-.398.9-.64.55-.486 1.138-.82 1.878-.743.28.03.564.05.846.068.59.036 1.17.024 1.69-.362.26-.195.557-.34.832-.51.174-.107.39-.186.504-.345.577-.798 1.448-1.158 2.195-1.702.204-.15.486-.246.733-.246.52-.003.92-.234 1.332-.538.71-.528 1.202-1.203 1.445-2.09.13-.474.46-.706.906-.718.322-.01.645.045.967.06.47.025.722-.186.81-.676.023-.126.023-.258.038-.387.094-.862.188-.966.995-1.09 1.213-.186 1.963-1.042 2.033-2.32.006-.108.002-.217.015-.324.047-.43.114-.498.537-.533.18-.015.368.024.543-.015.19-.04.428-.083.545-.22.625-.74 1.158-1.54 1.455-2.505.13-.423.29-.84.487-1.233.22-.436.48-.848.748-1.254.135-.206.296-.412.488-.552.29-.214.388-.48.34-.832-.046-.318-.095-.638-.132-.96-.052-.463.06-.86.456-1.112.342-.218.454-.56.573-.943.2-.65.442-1.293.742-1.897.185-.372.343-.722.33-1.148-.012-.312.053-.59.262-.833.608-.703.848-1.54.826-2.49-.042-1.81-.067-3.62-.088-5.43-.017-1.424-.057-2.848-.015-4.268.02-.673-.114-1.254-.525-1.728-.39-.452-.53-.945-.466-1.533.055-.5-.082-.933-.407-1.302-.295-.335-.48-.725-.607-1.173-.103-.357-.283-.744-.537-.99-.583-.565-.73-1.198-.52-1.982.135-.495.037-.948-.393-1.252-.31-.22-.46-.522-.513-.907-.067-.51-.302-.94-.682-1.257-.28-.232-.413-.52-.423-.884-.013-.476-.214-.856-.482-1.228-.41-.565-.93-.96-1.548-1.204-.722-.285-1.04-.844-1.064-1.634-.007-.28-.01-.56-.037-.84-.032-.34-.23-.624-.542-.57-.778.134-1.257-.293-1.698-.86-.064-.083-.15-.148-.226-.217-.324-.29-.503-.648-.568-1.102-.16-1.13-.236-1.176-1.295-1.034-.12.016-.24.028-.362.03-.756.01-1.205-.31-1.356-1.097-.134-.69-.41-1.062-1.12-1.09-.334-.012-.67-.256-.99-.427-.415-.22-.816-.467-1.22-.705-.23-.134-.485-.24-.678-.42-.426-.397-.838-.81-1.222-1.25-.37-.427-.78-.66-1.34-.584-.378.053-.765.06-1.148.096-.452.04-.817-.097-1.14-.46-.183-.208-.46-.374-.72-.43-.448-.098-.83-.306-1.207-.568-.437-.3-.836-.708-1.394-.74-.467-.025-.846-.23-1.213-.525-.482-.387-1.02-.547-1.648-.504-1.41.09-3.335-.382-4.75-.373-2.144.015-4.26.253-6.883.248-1.822-.002-3.108.27-4.93.28-.806.005-1.613.01-2.42.026-.424.008-.797.168-1.09.496-.254.283-.564.42-.923.412-.402-.012-.748.134-1.095.327-.536.298-1.074.595-1.635.833-.31.13-.597.246-.796.546-.258.388-.63.52-1.063.486-.24-.017-.484-.052-.72-.108-.94-.225-1.714.056-2.342.83-.68.84-1.475 1.54-2.355 2.12-.353.234-.757.426-1.16.516-.67.15-1.132.714-1.764.92-.033.01-.06.055-.087.086-.845.99-1.932 1.61-3.036 2.19-.268.14-.414.324-.417.64-.004.217 0 .435-.025.648-.065.554-.225.713-.737.744-.12.007-.243.007-.365-.004-.33-.03-.575.112-.794.372-.24.29-.5.565-.784.806-.26.222-.405.473-.382.827.03.446-.15.783-.446 1.083-.394.4-.754.843-1.158 1.232-.35.336-.518.71-.412 1.205.09.41-.027.714-.4.898-.4.198-.61.543-.678 1.002-.065.44-.268.81-.567 1.117-.336.344-.665.695-1.02 1.012-.342.305-.458.668-.437 1.138.03.665.007 1.335 0 2-.007.477-.154.875-.533 1.174-.365.29-.52.702-.49 1.19.01.193.014.388.02.582.008.317-.072.592-.3.813-.507.488-.624 1.116-.635 1.815-.015.86-.097 1.717-.156 2.576-.02.3-.068.598-.093.9-.204 2.31.097 4.604.256 6.9.028.41.176.88.42 1.184.385.482.53 1.004.548 1.596.013.405.157.732.367 1.07.218.35.402.753.487 1.16.097.455.054.94.09 1.412.03.385-.018.824.144 1.138.57 1.097.95 2.33 1.94 3.15.48.398.794.946.946 1.613.092.4.357.754.548 1.13.104.205.272.397.305.613.11.702.478 1.205.934 1.69 1.432 1.52 2.85 3.058 4.25 4.615.26.29.492.473.878.428.452-.052.824.15 1.14.486.745.788 1.52 1.547 2.227 2.372.342.4.692.555 1.17.484.824-.12 1.362.264 1.657 1.074.03.08.072.155.106.233.218.518.56.792 1.123.82.348.017.76.112 1.015.337.712.632 1.473.813 2.37.644.656-.123 1.27.042 1.64.702.276.486.632.583 1.132.49.58-.108 1.135-.004 1.527.548.214.3.52.404.853.417.67.03 1.205.33 1.622.883.26.35.596.466 1.01.464 2.516-.006 4.49.26 4.49.26h.002z"/>
    <path d="M57.76 84.604c.147.047.37.08.543.186.432.27.454.856.026 1.117-.245.147-.554.24-.842.257-.464.028-.75-.248-.798-.664-.05-.446.143-.71.62-.832.125-.032.254-.037.45-.064z"/>
    <path d="M142.05 169.196c-.484-.007-.847-.342-.843-.78.002-.45.45-.815.984-.802.524.013.863.32.843.766-.02.464-.454.823-.982.816z"/>
    <path d="M36.693 84.89c.488-.014.804.22.832.522.022.253-.158.454-.422.47-.353.02-.697-.295-.65-.644.022-.146.185-.27.24-.347z"/>
    <rect x="72.041" y="105.297" width="54.061" height="10.815"/>
    <rect x="72.041" y="121.587" width="54.061" height="10.815"/>
    <rect x="72.041" y="137.275" width="54.061" height="10.555"/>
  </g>
  <g>
    <path d="M153.156 34.506c-.566.388-1.184.37-1.797.333-.5-.032-.704-.303-.678-.804.018-.34.206-.593.396-.85.574-.772.59-1.362.01-2.12-.306-.404-.35-.804-.127-1.242.106-.207.247-.4.336-.612.122-.29.24-.586.305-.89.09-.424-.024-.813-.386-1.075-.464-.337-.497-.774-.295-1.24.26-.597.343-1.206.32-1.854-.01-.282.105-.582.216-.852.24-.585.57-.726 1.16-.47.385.166.753.386 1.1.623.29.197.593.348.933.366.33.017.668-.026 1-.058.068-.007.17-.08.18-.134.01-.055-.072-.173-.126-.182-.765-.123-1.342-.6-1.953-1.014-.36-.245-.76-.38-1.2-.318-1.073.152-1.573-1.113-1.152-1.907.215-.405.54-.57.994-.483.165.03.33.073.496.077.06.003.16-.08.174-.142.013-.06-.042-.178-.098-.203-.15-.066-.315-.12-.48-.135-.645-.055-1.068-.47-1.473-.904-.15-.16-.148-.373-.095-.6.24-1.035.595-2.026 1.075-2.974.076-.15.153-.307.193-.47.098-.404.304-.745.594-1.032.442-.438.668-.967.737-1.578.028-.252.082-.502.115-.753.05-.396.287-.61.663-.657.293-.037.592-.055.886-.04.504.022.907-.164 1.238-.53.228-.25.468-.492.672-.762.456-.602 1.088-.915 1.78-1.153.214-.074.432-.177.607-.32.28-.226.586-.31.938-.32.845-.022 1.69-.058 2.535-.1.455-.023.898.003 1.273.286.35.263.703.25 1.076.085.8-.356 1.64-.37 2.488-.254.62.085.93.438.97 1.066.024.36-.01.72.014 1.08.024.37.16.42.494.224.2-.117.392-.273.61-.327.437-.11.847.016 1.173.328.4.384.873.56 1.42.623 1.174.137 1.17.153 1.43 1.344.14.63.42 1.198.815 1.704.234.3.486.587.747.865.352.376.527.82.525 1.326-.002.444-.043.887-.06 1.33-.01.274-.02.55-.002.822.027.43.236.743.602.987.62.415.702.705.44 1.395-.323.852-.89 1.42-1.823 1.58-.708.12-1.412.266-2.117.404-.166.032-.332.07-.493.122-.403.13-.456.225-.38.647.025.146.048.293.083.436.09.367.33.603.7.647.627.074 1.256.18 1.873-.11.406-.19.52-.146.704.238.165.346.425.564.743.752.177.104.36.24.47.408.287.435.12 1.193-.402 1.228-.77.052-1.624-.208-2.283-.677-.618-.44-1.312-.78-1.77-1.426-.092-.13-.326-.177-.504-.218-.183-.043-.38-.016-.568-.047-.745-.124-1.16-.483-1.252-1.227-.056-.456-.262-.627-.672-.672-.336-.037-.67-.09-1.005-.142-.79-.123-.915-.25-1.04-1.032-.045-.293-.092-.585-.152-.875-.097-.472-.36-.805-.834-.95-.12-.036-.245-.072-.358-.128-.427-.213-.604-.58-.51-1.046.03-.145.068-.29.113-.43.138-.442.422-.72.892-.797.187-.03.382-.056.553-.13.4-.172.535-.526.3-.88-.324-.492-.674-.972-1.058-1.42-.17-.2-.442-.316-.68-.45-.22-.125-.445-.092-.668.02-.662.33-1.327.65-1.988.98-.443.222-.622.63-.687 1.082-.044.31-.025.632-.025.95 0 .507.01 1.015.007 1.523-.004.516-.252.883-.713 1.11-.114.056-.244.095-.336.176-.122.107-.257.233-.31.38-.196.548.154 1.352.674 1.605.7.34.817.57.752 1.344-.035.42-.025.844-.03 1.266-.01.644-.126.807-.747 1.004-.202.064-.412.1-.614.164-.3.093-.365.214-.178.452.273.348.557.7.896.98.448.367.673.787.637 1.37-.052.845-.087 1.69-.103 2.537-.008.422.04.845.073 1.266.046.577.03 1.14-.272 1.663-.17.296-.162.615-.016.917.237.49.278 1.01.285 1.545.014 1.08.06 2.158.088 3.237.005.19-.02.38-.035.57-.024.294-.063.59-.078.885-.05 1.02.15 1.238 1.148 1.335.27.026.54.098.8.18.28.088.542.26.835.035.335-.257.58-.568.568-1.01-.004-.208-.025-.43-.103-.62-.254-.616-.23-1.25-.118-1.876.095-.53.106-1.046.003-1.574-.098-.505-.096-1.012.095-1.502.13-.33.118-.657.015-.994-.093-.303-.17-.613-.224-.925-.112-.652.145-1.08.783-1.246.955-.25 1.917-.368 2.863.05.474.208.958.093 1.44.057.485-.036.97-.065 1.452-.103.23-.018.467-.024.69-.08.485-.118.875.008 1.192.388.08.097.17.19.268.27.385.307.847.296 1.21-.03.127-.114.235-.245.353-.367.223-.23.497-.314.81-.29.373.03.52.26.37.615-.055.134-.156.25-.233.376-.24.394-.27.652.066.975.582.56.674 1.235.642 1.98-.026.612-.015 1.227-.024 1.84-.006.507-.146.948-.54 1.306-.422.38-.547.896-.515 1.447.016.274.076.545.108.818.054.464-.043.863-.39 1.218-.294.298-.522.66-.764 1.007-.437.624-.838 1.274-1.302 1.875-.17.22-.456.38-.722.483-.852.335-1.65.75-2.352 1.344-.128.108-.264.22-.416.286-.52.224-1.01-.12-.98-.686.01-.167.085-.33.094-.497.01-.164 0-.338-.047-.495-.05-.165-.258-.178-.348-.032-.054.09-.09.19-.12.292-.105.36-.366.52-.713.516-.392-.004-.76-.113-.987-.472-.116-.185-.062-.388.086-.524.278-.255.556-.525.88-.71.327-.186.616-.346.665-.77.015-.13.12-.27.22-.368.44-.426.898-.83 1.338-1.255.47-.453.39-.957-.21-1.19-1.046-.408-1.1-.276-1.345.693-.07.286-.097.583-.16.872-.052.238-.16.444-.435.486-.307.048-.538-.087-.706-.33-.072-.102-.112-.227-.16-.345-.047-.118-.077-.243-.13-.357-.303-.643-.665-.667-1.127-.108-.184.223-.42.408-.65.586-.416.32-.853.617-1.27.938-.253.195-.31.384-.115.66.4.565.162.99-.22 1.41-.456.503-.978.875-1.7.855-.146-.005-.3.01-.44.052-.617.188-1.244.237-1.884.19-.125-.01-.26-.007-.378.027-.088.025-.158.11-.236.17.082.054.16.144.247.153.187.02.386.03.568-.01.76-.168 1.316.13 1.752.73.136.188.26.39.422.553.205.21.417.207.598-.024.168-.214.293-.464.42-.706.13-.244.305-.398.595-.4.37-.005.624.17.656.543.025.31.022.643-.06.94-.21.76-1.145 1.168-1.79.702-.624-.452-1.3-.43-1.98-.507-.084-.01-.17-.008-.254-.005-.748.03-1.423-.15-2-.654-.142-.122-.324-.202-.496-.282-.46-.212-.73-.563-.817-1.06-.026-.146-.054-.29-.086-.436-.11-.493-.437-.645-.89-.403-.148.08-.275.2-.42.283-.364.206-.56.192-.86-.08-.236-.21-.46-.44-.676-.67-.37-.394-.44-.84-.242-1.35.23-.59.178-.672-.378-.995-.29-.168-.572-.357-.822-.577-.342-.302-.558-.686-.592-1.158-.05-.69-.305-1.318-.617-1.92-.26-.5-.296-.99-.142-1.534.178-.63.295-1.278.423-1.92.1-.5.284-.935.778-1.166.52-.245.586-.78.778-1.262zm4.328 10.742c.338 0 .533.025.717-.007.205-.034.42-.09.594-.193.38-.224.38-.637-.002-.85-.198-.11-.433-.207-.652-.21-.507-.004-.94-.18-1.378-.408-.296-.155-.624-.254-.947-.345-.233-.066-.418.034-.483.284-.23.887.32 1.928 1.418 1.795.292-.034.587-.054.734-.067zm1.095-19.545c.41-.084.825-.15 1.23-.257.288-.076.333-.178.254-.468-.094-.345-.235-.678-.31-1.026-.17-.78-.156-.777-.833-.37-.194.118-.296.275-.38.478-.287.686-.307.692-1.016.618-.042-.004-.09-.023-.124-.01-.106.046-.236.082-.297.165-.033.045.03.216.097.267.406.306.83.577 1.38.603zm10.716-5.88c-.345-.012-.512.084-.542.29-.035.24.076.407.29.51.056.026.116.06.176.064.55.032 1 .25 1.405.63.24.226.372.164.67-.04.277-.186.57-.348.868-.5.206-.105.435-.163.643-.264.083-.04.136-.14.203-.214-.076-.066-.14-.17-.227-.188-.556-.128-1.115-.233-1.69-.112-.503.106-1 .14-1.484-.1-.11-.056-.244-.062-.314-.078zm2.66 23.765c-.117.042-.244.066-.347.13-.482.293-.65 1.068-.288 1.498.498.592.64.667 1.152.16.06-.06.13-.108.196-.16.654-.49.66-.617.042-1.176-.124-.112-.255-.22-.396-.31-.104-.064-.23-.092-.36-.142zm-4.342-10.04c-.48 0-.673.118-.755.42-.09.33.002.647.306.816.42.235.862.435 1.3.634.11.05.248.054.37.05.245-.01.327-.166.215-.386-.14-.28-.306-.548-.426-.836-.204-.49-.563-.71-1.01-.697zm-3.26-22.32c.17-.044.286-.045.37-.097.465-.287.746-.73.935-1.223.082-.215-.144-.52-.4-.65-.247-.13-.39.01-.528.185-.247.312-.502.617-.744.933-.128.167-.282.368-.106.563.13.14.336.21.47.29zM157.7 19.86c.614-.1 1.194-.192 1.774-.287.06-.01.132-.022.177-.06.058-.048.113-.118.13-.19.01-.035-.057-.102-.103-.137-.05-.037-.112-.063-.172-.074-.58-.102-1.158-.21-1.74-.295-.332-.05-.623.075-.85.324-.17.19-.145.42.086.523.223.1.475.136.698.197zm2.162 14.868c0-.183.006-.267 0-.35-.018-.2-.073-.378-.3-.432-.212-.05-.48.085-.556.314-.045.133-.058.292-.034.43.035.207.106.41.178.606.14.382.22.755.11 1.172-.053.207.018.452.058.676.01.062.11.146.172.15.062.004.15-.065.193-.127.166-.238.207-.516.134-.787-.114-.42-.094-.83.002-1.25.037-.16.035-.332.042-.402zm7.897-21.646c.36.01.553-.205.463-.57-.07-.284-.21-.55-.305-.828-.185-.54-.225-.556-.594-.148-.11.123-.222.26-.282.413-.216.545.153 1.114.72 1.132zM155.958 30.39c.288-.086.558-.143.81-.247.277-.116.4-.368.35-.606-.053-.24-.276-.413-.56-.436-.512-.04-1.036.588-.874 1.067.03.09.173.143.274.222zm-.448.23c-.048-.05-.1-.15-.183-.188-.22-.1-.9.083-1.062.265-.155.173-.193.476-.073.644.138.195.327.153.512.094.14-.045.284-.085.41-.154.24-.13.354-.35.395-.66zm3.847.933c-.1-.097-.172-.214-.274-.254-.326-.13-.84.09-.962.42-.046.126-.054.304 0 .422.08.17.26.103.395.046.212-.09.428-.18.62-.304.094-.06.137-.2.222-.33zm-2.82 7.083c.332.01.525-.136.523-.393-.002-.254-.21-.47-.47-.49-.313-.025-.657.214-.65.45.005.235.265.423.596.433zm-1.538 4.145c.006-.195-.312-.453-.548-.44-.165.007-.276.1-.29.27-.017.21.205.417.46.418.177 0 .33-.06.377-.247zm16.007-20.55c.05-.026.132-.073.216-.12-.083-.106-.152-.278-.253-.3-.1-.02-.284.08-.338.18-.083.153.08.198.202.227.04.01.084.008.173.014zM160.35 39.21c-.017.024-.04.052-.052.084-.003.007.03.04.038.038.03-.013.06-.035.087-.054l-.074-.07z"/>
    <path d="M77.33 8.09c1.562-.06 3.125-.123 4.687-.173.315-.01.632.022.947.053.42.04.633.306.7.704.04.25.06.505.106.754.07.383.193.73.573.938.278.153.394.42.418.74.04.515.176.99.548 1.387.302.324.357.766.392 1.187.053.633.234 1.202.674 1.673.043.046.075.103.11.156.276.446.25.728-.19 1.032-.592.407-1.217.766-1.83 1.144-.107.067-.228.113-.33.186-.244.172-.33.407-.262.66.07.257.26.405.566.417.21.007.424-.03.634-.013.44.035.602.276.484.686-.154.535-.398.655-.94.454-.137-.05-.283-.16-.396.003-.048.07-.058.23-.01.286.086.1.266.236.342.204.568-.242.872.134 1.206.463.105.104.223.194.34.285.854.664.635 1.408.108 1.966-.31.327-.744.558-1.157.76-.462.226-.854-.088-.784-.606.033-.246.168-.477.238-.72.052-.18.12-.372.1-.55-.036-.362-.377-.49-.635-.24-.178.172-.38.384-.43.61-.122.552-.41 1.015-.656 1.506-.283.568-.077.883.567.874.148-.002.302-.015.44-.062.447-.153.873-.108 1.292.098.133.065.27.124.412.166.603.18.912.1 1.23-.446.35-.595.822-.755 1.448-.57.63.186 1.248.206 1.857-.08.306-.146.38-.292.268-.6-.1-.268-.272-.476-.534-.602-.23-.11-.465-.207-.687-.33-.33-.18-.355-.296-.296-.67.12-.75.215-1.504.32-2.256.047-.33-.057-.615-.206-.908-.37-.727-.28-1.57.194-2.08.33-.36.694-.334.897.103.09.194.103.454.064.668-.054.287-.202.555-.292.837-.08.25-.1.515.128.703.252.207.548.33.883.254.237-.054.368-.26.32-.54-.058-.355-.166-.7-.242-1.05-.085-.39-.158-.784-.234-1.175-.02-.104-.022-.21-.046-.313-.123-.52-.226-.58-.746-.44-.603.164-1.08-.168-1.112-.83-.036-.73.246-1.355.91-1.69.386-.193.527-.408.497-.82-.018-.247.036-.51.11-.747.193-.612.304-1.23.276-1.874-.01-.23.023-.464.066-.69.103-.552.487-.85 1.003-.923.392-.056.805-.03 1.2.025.452.064.757.36.9.798.08.24.147.487.2.735.097.444.332.79.748.967.465.196.61.526.59 1.005-.016.378.035.76.065 1.14.01.125.006.28.075.368.316.405.394.878.438 1.366.03.334.215.54.52.656.177.067.36.123.534.2.452.198.626.498.466.967-.106.31-.28.64-.518.85-.718.634-1.326 1.36-1.956 2.074-.404.46-.283.943-.213 1.437.024.164.188.145.31.076.237-.137.46-.31.708-.42.364-.162.738-.323 1.124-.406.575-.125.838.115.865.693.016.356-.047.675-.35.906-.05.038-.106.08-.135.135-.515.97-1.53 1.29-2.383 1.81-.254.153-.61.206-.914.19-.797-.038-1.553.176-2.322.303-.262.043-.457.182-.547.464-.144.45-.403.79-.938.805-.1.003-.217.048-.29.113-.07.06-.133.18-.12.263.01.08.12.205.19.205.226.002.464-.01.677-.08.3-.096.575-.268.872-.374.327-.118.618-.28.84-.548.293-.353.68-.48 1.12-.508.548-.036 1.096-.07 1.642-.13.504-.057.945.054 1.23.484.284.43.68.528 1.148.53.823.003 1.03.208.872 1.025-.112.58-.1 1.124.06 1.687.163.587.062 1.182-.076 1.76-.13.54-.257 1.066-.103 1.624.044.16.034.338.022.506-.092 1.295.066 2.576.207 3.86.052.474-.078.882-.47 1.178-.33.25-.45.517-.228.923.164.3.25.675-.05.943-.287.26-.66.257-1.02.127-.34-.123-.472-.377-.295-.696.128-.232.344-.417.528-.618.18-.196.193-.312-.016-.475-.317-.246-.645-.48-.986-.692-.235-.147-.472-.084-.584.172-.088.202-.122.445-.115.668.008.228.088.456.148.68.117.436.09.843-.228 1.19-.175.193-.225.37.046.507.39.196.448.533.408.914-.02.21-.05.418-.084.627-.023.146-.07.29-.083.436-.054.624.194.816.798.624.122-.038.236-.1.357-.135.425-.128.59-.43.63-.853.027-.312.084-.627.178-.924.088-.28.312-.457.617-.474.323-.018.5.2.63.454.32.638.327 1.492-.444 1.955-.018.012-.034.026-.053.036-.482.26-.54.94-1.088 1.12-.558.18-.813.65-1.11 1.084-.283.414-.298.633-.073.845.236.223.56.182.905-.126.298-.268.57-.57.89-.81.448-.334.65-.257.84.266.223.61.222 1.19-.187 1.746-.304.414-.28.47.023.897.06.085.128.168.18.26.218.38.243.768-.02 1.135-.246.344-.59.462-1.006.376-.062-.012-.128-.01-.188-.027-.798-.233-1.61-.294-2.44-.27-.298.007-.608-.152-.9-.268-.373-.15-.434-.148-.694.167-.383.464-.53.49-.973.092-.6-.54-1.24-.702-1.975-.305-.02.01-.038.017-.058.025-.87.354-1.27.088-1.3-.874-.012-.36-.004-.72.004-1.08.01-.48-.146-.894-.56-1.14-.746-.447-1.066-1.175-1.37-1.926-.182-.446-.257-.892-.098-1.36.125-.37.14-.74.05-1.125-.055-.244-.025-.506-.046-.76-.037-.44-.068-.88-.13-1.317-.07-.502.01-.963.257-1.407.156-.283.094-.376-.222-.4-.21-.014-.426.004-.633-.03-.26-.046-.494-.163-.558-.45-.066-.297.034-.552.28-.727.17-.123.377-.195.547-.318.105-.077.17-.208.254-.315-.12-.07-.235-.174-.366-.203-.267-.06-.546-.07-.816-.12-.586-.105-1.01-.594-1.045-1.188-.032-.57.522-1.105 1.172-1.072.822.042 1.64.138 2.462.192.464.03.93.033 1.396.033.826-.002 1.652-.028 2.477-.015.357.006.722.048 1.066.138.567.15 1.1.036 1.614-.163.603-.233.878-1.022.6-1.606-.152-.322-.4-.427-.724-.275-.19.088-.367.21-.535.337-.283.214-.588.3-.946.296-.397-.004-.795.074-1.193.083-.4.01-.803.005-1.197-.046-.502-.065-.99-.193-1.51-.088-.21.042-.464-.025-.674-.106-.296-.113-.567-.286-.85-.43-.46-.235-.59-.21-.92.19-.107.13-.19.28-.294.414-.474.607-.985.602-1.446-.02-.176-.236-.33-.49-.497-.735-.214-.31-.36-.353-.596-.085-.503.567-1.11.695-1.835.608-.387-.046-.794.046-1.188.1-.25.032-.493.137-.743.16-1.03.088-2.062.156-3.094.234-.344.026-.605-.103-.84-.355-.79-.846-1.278-1.78-1.024-2.988.06-.286.08-.6.027-.886-.166-.89.05-1.77.035-2.657-.01-.62.21-.79.816-.788.064 0 .128.002.19.01.566.07.994-.13 1.27-.638.07-.13.16-.25.253-.366.358-.443.745-.49 1.21-.157.377.27.755.538 1.136.802.103.072.215.137.332.183.21.082.322.015.366-.2.185-.923-.39-1.66-1.336-1.667-.698-.005-1.38.03-1.99.494-.453.344-1.037.345-1.59.24-.44-.086-.627-.335-.68-.804-.13-1.163-.11-2.325.076-3.48.103-.64.14-1.257-.234-1.84-.227-.353-.216-.72.063-1.058.053-.065.082-.15.133-.216.307-.396.3-.777.07-1.232-.44-.87-.587-1.8-.39-2.775.125-.61.07-1.223-.05-1.83-.084-.412-.058-.797.22-1.14.3-.37.638-.59 1.154-.486.35.072.717.05 1.076.07-.002.017 0 .038 0 .06zm1.624 9.902c.007.047.02.195.052.34.106.492.422.916.436 1.448.005.203.24.265.453.234.572-.082.868-.553.77-1.168-.074-.477-.113-.96-.147-1.443-.035-.483.12-.842.61-1.064.628-.285.905-.874 1.06-1.507.104-.418-.14-.656-.57-.58-.228.038-.447.13-.667.206-.822.283-.847.298-.77 1.183.042.47-.023.807-.52 1.013-.52.215-.733.674-.706 1.336zM89.32 36.69v.033c.358 0 .72.02 1.075-.006.376-.028.753-.082 1.12-.164.197-.044.434-.128.458-.38.027-.28-.213-.383-.414-.498-.405-.232-.85-.283-1.29-.195-.474.095-.918.013-1.375-.073-.288-.054-.584-.096-.876-.09-.358.007-.45.115-.47.46-.014.23-.015.463-.008.695.01.314.06.357.39.333.463-.033.925-.077 1.387-.116zm.604 2.07c-.293 0-.483.007-.673 0-.376-.018-.702.13-1.014.31-.144.085-.328.203-.243.39.06.132.232.285.365.295.286.022.6.016.864-.082.465-.173.936-.248 1.423-.26.486-.012.972 0 1.458-.018.25-.01.508-.033.75-.094.385-.096.427-.2.316-.594-.217-.773-.46-.88-1.19-.523-.056.028-.113.056-.167.09-.61.38-1.266.576-1.89.487zm5.475-4.305c.014.08.027.273.085.45.137.412.29.456.63.2.15-.114.303-.228.433-.364.195-.202.348-.44.232-.736-.112-.285-.375-.388-.65-.434-.468-.077-.728.207-.73.885zm1.07-7.108c-.162-.482-.282-.933-.468-1.355-.115-.26-.396-.24-.557-.005-.364.535-.21 1.372.33 1.688.113.065.306.107.404.053.124-.07.192-.244.29-.38zM93.02 42.11c.144-.042.398-.08.618-.187.28-.137.298-.39.088-.625-.424-.475-1.264-.367-1.555.2-.123.243-.03.467.24.535.16.04.332.044.61.077zm-.68 3c.383-.007.672-.242.653-.53-.014-.22-.17-.337-.448-.332-.37.007-.67.25-.665.536.005.198.192.33.46.326zM82.023 29.063c.275-.006.533-.258.498-.488-.033-.217-.208-.247-.384-.242-.286.007-.47.187-.44.425.025.194.142.298.326.305zm-.572-19.23c-.01-.245-.184-.42-.398-.398-.23.023-.415.223-.38.423.04.227.2.308.413.312.232.005.373-.127.365-.338zm-3.327 10.233c-.015-.187-.21-.347-.39-.32-.17.023-.337.227-.33.403.007.186.195.332.396.306.2-.025.34-.194.325-.39zM93.84 13c-.128-.124-.21-.26-.278-.254-.087.01-.187.123-.228.216-.017.038.104.192.168.196.09.005.184-.08.338-.16zm-.334 23.983l.113.18.218-.158c-.038-.04-.078-.116-.113-.114-.067.006-.132.054-.22.093zm-.183-18.064c-.08.056-.143.1-.205.146.04.036.083.106.114.1.072-.01.138-.06.207-.095-.034-.04-.067-.085-.117-.15z"/>
    <path d="M48.403 8.024c1.356 0 2.712-.03 4.066.01.933.03 1.86 0 2.786-.09.125-.01.254-.01.38.004.836.1 1.164.53.973 1.353-.108.462-.103.864.163 1.272.208.32.174.69.085 1.048-.056.226-.132.447-.194.67-.086.31-.114.608-.04.936.166.742.018.998-.687 1.267-.294.112-.608.178-.916.247-.203.046-.362.12-.384.352-.02.215.096.357.39.403.427.066.822.19 1.17.453.43.323.55.63.42 1.16-.055.225-.15.443-.187.67-.053.332-.097.67-.09 1.003.007.434-.097.79-.465 1.05-.12.084-.236.183-.33.295-.318.386-.217.835.235 1.037.173.077.364.114.54.185.598.24.756.844.332 1.335-.192.222-.44.397-.66.595-.388.35-.405.515-.16.992.24.47.465.948.68 1.43.094.21.17.437.21.665.087.468-.137.847-.598.97-.407.11-.83.155-1.246.235-.456.088-.91.187-1.365.277-.207.04-.414.096-.623.105-.546.023-1.04.184-1.482.503-.234.17-.456.243-.765.17-.253-.058-.557-.028-.806.057-.898.308-1.713-.023-2.533-.29-.298-.097-.454-.375-.54-.67-.063-.223-.106-.453-.146-.682-.045-.256-.2-.41-.43-.507-.513-.214-.843.032-.767.584.033.23.09.457.142.684.09.396-.013.762-.186 1.106-.202.403-.56.507-.958.294-.148-.08-.28-.19-.42-.285-.752-.506-1.422-.25-1.626.63-.043.182-.067.376-.062.563.01.355.184.604.546.685.185.04.374.068.563.088.146.016.296.005.443.015 1.145.08 1.855 1.093 1.525 2.202-.057.193-.18.385-.32.53-.2.21-.284.418-.165.686.232.523.236 1.067.173 1.622-.017.146-.027.3-.006.444.086.594 0 1.137-.427 1.594-.196.21-.133.41.004.63.492.8.462 1.314-.096 2.006-.534.664-1.414.74-2.074.195-.21-.172-.445-.317-.684-.445-.068-.036-.222-.003-.278.055-.06.06-.098.22-.06.284.094.155.218.307.363.413.63.46 1.277.897 1.902 1.363.163.122.296.305.4.485.342.597.272.93-.33 1.253-.41.22-.55.48-.407.92.09.28.025.55-.157.78-.254.32-.627.285-.814-.08-.067-.13-.1-.278-.162-.413-.185-.413-.36-.5-.803-.388-.184.046-.367.11-.536.195-.397.197-.478.492-.164.807.214.215.507.402.798.477.592.155.875.55 1.046 1.084.208.65-.194 1.27-.87 1.327-.168.015-.343.007-.507-.026-.927-.187-1.85-.144-2.777 0-.146.024-.295.03-.443.03-.48.004-.804-.225-.972-.672-.305-.812-.198-1.628.01-2.435.067-.262.29-.415.57-.432.212-.013.425-.017.636-.004.51.03.958-.187 1.386-.403.478-.242.496-1.132.082-1.48-.256-.216-.505-.446-.72-.7-.22-.258-.454-.36-.78-.252-.16.054-.327.095-.494.12-.425.067-.694-.1-.818-.515-.048-.16-.045-.335-.076-.5-.055-.292-.12-.562-.384-.772-.276-.22-.382-.562-.37-.913.03-.74.088-1.477.12-2.217.02-.476.225-.84.568-1.16.436-.407.427-.485.095-.956-.232-.33-.458-.66-.68-.997-.218-.33-.49-.576-.894-.66-.802-.164-.94-.64-.742-1.382.09-.34.32-.528.677-.546.26-.014.537.154.64.432.074.194.085.413.146.614.06.193.077.45.37.438.252-.01.353-.212.425-.415.042-.117.074-.25.06-.372-.04-.42.2-.678.503-.892.31-.22.637-.42.957-.626.124-.08.26-.147.373-.24.207-.17.193-.333-.06-.423-.714-.25-1.445-.384-2.155-.01-.985.518-1.965.43-2.928-.01-.446-.206-.85-.24-1.265.01-.1.06-.245.196-.23.263.03.12.16.222.26.32.04.04.114.052.17.078.54.244.628.408.5.986-.044.207-.11.41-.194.604-.144.337-.076.62.177.867.136.134.27.27.414.395.254.22.336.488.21.798-.142.35-.277.707-.464 1.033-.19.327-.243.6.007.928.15.196.233.45.308.692.175.56-.042 1.055-.564 1.33-.112.06-.234.1-.35.15-.422.185-.49.374-.274.79.097.187.22.362.307.554.148.333.093.454-.238.58-.387.147-.79.18-1.19.092-.733-.165-1.422-.416-1.864-1.095-.19-.292-.465-.41-.825-.313-.455.123-.863.03-1.255-.256-.215-.157-.495-.24-.758-.31-.802-.216-1.287-.806-1.688-1.46-.366-.595-.02-1.102.683-1.074.084.003.17.037.25.03.052-.006.125-.054.14-.1.015-.044-.013-.14-.05-.16-.183-.103-.366-.217-.565-.27-.41-.11-.732-.336-.99-.653-.353-.43-.538-.92-.34-1.475.172-.477.37-.945.562-1.414.142-.344.426-.495.77-.4.772.21 1.197-.2 1.543-.794.096-.165.205-.323.286-.495.145-.31.355-.52.713-.55.082-.008.166-.036.243-.07.195-.085.23-.28.047-.386-.156-.09-.35-.152-.53-.155-.33-.007-.567-.128-.725-.42-.05-.09-.117-.176-.19-.25-.312-.316-.543-.264-.696.157-.058.16-.09.328-.155.484-.17.413-.608.675-1.01.614-.378-.057-.67-.405-.73-.85-.065-.488.04-.884.547-1.082.442-.173.645-.525.72-.97.01-.064.015-.127.028-.19.107-.542.26-.734.614-.77.506-.05.944.21 1.11.66l.02.06c.057.196.038.45.3.51.29.067.565-.024.763-.224.173-.176.294-.408.424-.623.32-.527.465-.59 1.037-.42.082.025.162.055.24.086.388.152.704.058.95-.275.014-.017.032-.03.042-.048.395-.72 1-.78 1.686-.51.457.18.835.097 1.137-.276.35-.43.808-.47 1.265-.3.618.23 1.247.197 1.88.207.47.007.87-.146 1.213-.464.062-.058.123-.117.19-.17.542-.433.988-.376 1.404.182.114.152.203.325.327.467.382.436.898.48 1.332.09.3-.27.625-.4 1.03-.408.337-.006.677-.067 1.004-.147.428-.104.8-.056 1.106.276.235.255.464.295.78.107.51-.3 1.048-.265 1.588-.037.568.24.866.164 1.227-.273.196-.236.216-.355-.02-.533-.405-.303-.816-.62-1.272-.825-.493-.222-.954-.462-1.302-.875-.3-.357-.672-.49-1.126-.45-.526.048-1.055.065-1.58.13-.3.04-.346.134-.246.442.115.354.168.696.004 1.048-.138.298-.333.427-.644.417-.31-.01-.496-.15-.574-.49-.08-.353-.135-.726.064-1.052.14-.23.1-.373-.07-.552-.37-.39-.375-.828-.117-1.284.22-.386.414-.79.663-1.155.208-.304.224-.577.034-.88-.124-.197-.25-.394-.356-.6-.415-.81-.308-1.277.413-1.814.154-.114.32-.21.478-.315.443-.29.89-.326 1.383-.097.28.13.603.2.912.224.27.02.472-.232.487-.49.014-.263-.16-.482-.453-.515-.186-.02-.38.002-.567.027-.21.027-.42.06-.62.125-.56.18-1.05-.087-1.524-.28-.46-.187-.588-.744-.37-1.195.046-.095.093-.198.167-.268.455-.432.537-.99.55-1.573.02-.91.033-1.82.057-2.73.006-.232.018-.468.07-.693.11-.488.303-.626.808-.614l5.206.123c-.002-.01-.002-.02 0-.032zm-6.93 27.608c.854.076 1.43-.244 1.778-1.038.14-.315.443-.493.786-.59.17-.048.326-.146.488-.22-.11-.175-.185-.405-.342-.51-.235-.16-.52-.275-.8-.33-.284-.058-.587-.022-.882-.025-.377-.004-.688.132-.96.402-.506.505-1.002 1.016-1.366 1.64-.166.286-.152.41.188.497.362.092.74.117 1.112.172zm-10.782 3.03c.1-.037.323-.058.346-.137.04-.136-.01-.328-.085-.462-.077-.14-.22-.25-.347-.357-.144-.122-.32-.21-.45-.343-.28-.287-.628-.442-1.007-.486-.626-.072-1.257-.103-1.886-.14-.144-.007-.296.017-.437.055-.253.068-.29.207-.13.417.295.38.703.527 1.164.536.478.01.93.126 1.303.413.448.34.976.363 1.53.5zm.306-10.34c-.276.082-.56.15-.833.252-.185.07-.192.228-.032.334.28.185.602.277.905.145.75-.327 1.392-.26 1.927.4.038.047.1.097.155.104.12.014.26.04.36-.008.653-.306.834-.878.494-1.51-.46-.86-.87-.924-1.54-.22-.39.413-.76.84-1.434.502zm18.882-3.17c.612-.006 1.176-.127 1.56-.67.23-.322.167-.582-.21-.676-.833-.208-1.59 0-2.273.5-.166.12-.17.28-.032.436.252.29.565.437.955.41zM40.206 38.96c-.106-.293-.176-.607-.33-.873-.157-.275-.468-.25-.594.033-.127.287-.242.59-.29.898-.063.414.267.68.672.593.348-.075.483-.25.542-.652zm-3.422-10.226c.003-.31-.236-.536-.577-.546-.36-.01-.73.284-.718.573.01.292.328.596.633.607.338.013.658-.294.66-.635zM48.11 16.288c.152-.01.195-.01.236-.015.333-.044.533-.228.5-.457-.038-.257-.332-.39-.66-.298-.06.017-.12.042-.173.074-.226.133-.393.4-.29.494.127.116.313.166.386.202zm-3.89 1.928c-.02.178.13.315.366.335.29.026.482-.107.496-.343.012-.2-.124-.373-.315-.4-.234-.032-.523.183-.548.41zm6.157-3.974c.188-.005.365-.056.413-.285.04-.184-.125-.346-.346-.354-.217-.008-.386.123-.392.32-.007.205.114.302.325.32zm.26 3.23c-.114-.146-.184-.324-.305-.37-.166-.064-.25.1-.27.258-.023.22.13.438.29.392.094-.027.16-.152.284-.28z"/>
    <path d="M147.304 24.762c0 .782-.002 1.565 0 2.347.002.253-.005.51.023.76.094.848.08 1.69-.075 2.53-.045.243-.014.5-.02.752-.015.526-.035 1.053-.043 1.58-.005.228-.025.467.027.686.255 1.068.113 2.15.14 3.228.005.143-.048.292-.094.432-.157.476-.39.658-.886.663-.592.008-1.185 0-1.778-.012-.436-.01-.832-.145-1.17-.43-.144-.124-.304-.23-.442-.36-.192-.18-.395-.21-.642-.13-.45.148-.906.2-1.375.07-.275-.075-.46.066-.653.273-.36.384-.744.752-1.165 1.063-.224.165-.54.258-.824.28-.61.048-1.227.04-1.84.036-.547-.005-.735-.118-.875-.646-.165-.624-.42-1.183-.802-1.708-.304-.418-.457-.907-.218-1.437.05-.114.072-.246.082-.37.032-.368-.033-.526-.387-.626-.394-.11-.603-.358-.744-.71-.124-.31-.347-.528-.66-.65-.328-.125-.595.047-.616.402-.02.324.114.612.378.762.652.37.743.868.545 1.554-.146.505-.086 1.052.1 1.564.164.458.152.913-.023 1.366-.157.406-.466.58-.885.6-.414.02-.687-.162-.83-.547-.06-.16-.115-.32-.193-.47-.08-.15-.162-.305-.28-.42-.182-.175-.4-.35-.673-.267-.27.082-.27.344-.303.578-.03.23-.067.462-.127.686-.152.572-.374.705-.964.675-.504-.025-1.014-.044-1.516 0-.69.058-.89.523-.52 1.114.4.635 1.094.75 1.757.28.17-.123.308-.29.47-.427.345-.288.638-.286.947.038.204.214.376.46.546.702.525.745 1.164 1.334 2.063 1.6.496.147.79.47.79 1.017 0 .21.017.422.017.634 0 .404-.15.714-.484.98-.874.693-.89 1.297-.072 2.113.336.334.557.685.458 1.18-.113.567-.393.81-.964.794-1.096-.033-2.192-.076-3.287-.115-.127-.004-.255-.016-.38-.007-.928.068-1.852.15-2.784.036-.263-.032-.544.056-.813.107-1.066.2-1.542-.34-1.443-1.283.127-1.21.044-2.41.063-3.614.005-.315.082-.628.1-.944.02-.356.026-.713.013-1.068-.013-.336-.086-.67-.087-1.007-.01-2.668-.01-5.336-.012-8.005 0-.275-.014-.552.015-.825.053-.51.14-1.012.595-1.35.153-.112.157-.256.018-.373-.508-.427-.58-1.018-.592-1.616-.02-.952-.02-1.906 0-2.858.017-.804.54-1.202 1.35-1.107.287.035.585.006.875-.027.077-.01.186-.135.196-.218.01-.076-.077-.214-.15-.24-.214-.075-.44-.13-.665-.148-.186-.015-.377.05-.566.053-.772.01-1.13-.334-1.167-1.107-.006-.126.012-.253.02-.38l.08-1.39c.01-.19.006-.384.044-.57.06-.294.23-.492.56-.506.524-.023.977-.212 1.402-.525.4-.296.814-.185 1.066.25.105.18.156.39.236.587.072.175.13.362.23.52.293.462.858.433 1.107-.052.086-.17.15-.35.21-.53.15-.45.453-.708.93-.74.668-.043 1.278-.257 1.86-.583.175-.098.42-.193.593-.146.543.148 1.06.018 1.57-.09.823-.178 1.405.108 1.833.79.248.396.51.77.9 1.053.377.275.497.667.318 1.128-.075.194-.17.4-.002.6.584.69.696 1.576.985 2.39.078.217.152.438.25.647.068.143.19.15.31.044.16-.14.307-.293.473-.423.508-.397.536-.454.27-1.057-.236-.536-.33-1.085-.302-1.67.017-.376-.037-.756-.055-1.136-.017-.36-.058-.72-.036-1.077.03-.47.242-.643.704-.616.21.013.417.072.623.118.39.087.73.05 1.063-.23.47-.4.73-.758 1.07-.244.08.122.205.706.275.835.31.575.614 1.155.945 1.72.11.185.15.34.046.528-.24.444-.416.918-.775 1.302-.4.428-.395.773-.022 1.243.28.352.407.725.39 1.17-.028.74.008 1.483-.215 2.206-.055.177-.045.376-.06.565-.033.4-.056.8-.096 1.2-.074.743.21 1.152.952 1.215.32.027.664-.08.975-.19.22-.077.226-.27.073-.46-.04-.05-.087-.093-.135-.134-.435-.373-.543-.82-.373-1.37.132-.427.125-.866.042-1.318-.07-.387-.058-.797-.028-1.193.046-.62.09-1.214-.36-1.744-.252-.294-.193-.685-.07-1.034.198-.558.277-1.104-.008-1.66-.05-.097-.02-.247.008-.365.135-.596.28-1.19.422-1.786.03-.123.04-.254.094-.365.087-.18.245-.253.417-.126.203.15.402.314.57.5.336.37.712.555 1.233.51.53-.047.784.17.89.695.06.307.065.628.068.944.01.846.003 1.693.003 2.54-.018-.002-.036-.002-.053-.002zm-17.552 1.602c-.026-.31-.033-.5-.06-.688-.025-.167-.062-.333-.11-.495-.165-.558-.773-1.02-1.332-.987-.16.01-.314.1-.47.153.052.15.076.317.16.444.376.564.38.847-.022 1.362-.026.033-.055.064-.082.096-.476.578-.463.67.148 1.062.07.046.143.09.217.13.695.388 1.078.27 1.4-.46.098-.223.12-.482.152-.616zm7.604 5.574c0-.305-.162-.655-.44-.922-.526-.51-1.08-.992-1.634-1.475-.09-.077-.223-.124-.343-.142-.2-.03-.387.032-.472.233-.077.18-.003.35.157.436.494.265.656.73.82 1.22.083.246.244.495.437.668.23.206.526.348.808.487.413.203.658.045.666-.502zm-8.41-1.428c.053.597.272 1.02.693 1.307.463.316 1.05.153 1.358-.343.276-.443.122-.895-.42-1.19-.275-.15-.56-.284-.845-.418-.284-.134-.414-.114-.583.147-.11.167-.155.375-.203.497zm2.258-6.846c-.364.07-.753.223-.995.61-.2.317-.113.654.237.777.435.153.89.26 1.345.34.294.05.416-.07.504-.36.198-.647-.336-1.36-1.092-1.366zm9.606 6.904c-.04-.117-.054-.333-.167-.463-.33-.38-.678-.755-1.065-1.076-.35-.293-.596-.206-.813.195-.212.392-.148.63.22.926.327.265.64.545.96.82.08.068.15.152.237.207.267.168.505.075.58-.225.025-.1.027-.207.048-.384zm-10.695 12.734c-.01-.846-.398-1.17-1.053-1.032-.287.06-.575.12-.86.192-.068.018-.17.08-.176.132-.008.064.05.168.11.205.45.284.803.658 1.11 1.095.192.276.495.25.667-.04.124-.21.17-.463.202-.553zm9.106-10.64c-.233-.01-.42.15-.414.366.006.193.124.307.307.335.197.03.426-.155.453-.348.026-.185-.13-.343-.345-.353zm.37-4.733c.01-.252-.186-.46-.362-.43-.083.014-.19.144-.206.236-.04.232.104.457.246.413.135-.043.246-.166.323-.22zm-14.164 2.88l.31-.273c-.053-.052-.1-.14-.16-.15-.196-.034-.396.105-.353.233.02.06.105.1.203.19zm6.527 12.913c.03.018.056.04.086.052.005.003.038-.03.035-.038-.013-.03-.034-.056-.052-.084l-.07.07z"/>
    <path d="M102.672 18.274c0-.19.013-.382-.002-.57-.047-.574.08-1.07.462-1.53.417-.503.39-.658-.097-1.13-.467-.45-.716-.98-.757-1.623-.035-.547-.105-1.093-.14-1.64-.032-.534.048-1.047.257-1.55.118-.285.147-.617.16-.93.042-1.007.688-1.298 1.392-1.288.614.01 1.228.02 1.842.015.355-.003.664.11.945.315.154.112.293.244.448.355.332.238.464.273.717-.02.53-.615 1.184-.756 1.942-.672.462.05.928.08 1.392.092.42.01.848.016 1.265-.036.702-.088 1.39-.127 2.06.168.285.126.577.126.867.025.55-.19 1.115-.22 1.69-.215.508.005 1.016-.053 1.524-.054.874 0 1.224.377 1.204 1.26-.015.673-.137 1.29-.685 1.776-.23.203-.367.514-.54.78-.16.247-.32.495-.464.752-.047.083-.092.216-.056.282.035.065.176.11.266.105 1.024-.076 1.146.044 1.207 1.076.027.463.116.922.194 1.38.137.813-.175 1.274-1 1.364-.327.035-.686.003-.996-.1-.482-.16-.94-.14-1.434-.072-.626.086-1.265.08-1.9.095-.422.01-.847-.03-1.27-.012-.673.028-1.346.076-2.018.136-.106.01-.234.103-.297.195-.125.184.026.436.224.364.423-.153.632.11.86.362.436.485.676 1.004.394 1.677-.193.46-.513.73-.983.797-.858.123-1.716.235-2.59.057-.32-.066-.67 0-1.007.018-.21.01-.423.083-.627.06-.62-.074-1.044.278-1.464.635-.236.2-.218.38.044.57.378.27.818.4 1.262.256.73-.236 1.452-.19 2.196-.12.433.04.882-.056 1.32-.115.335-.044.662-.153.997-.19.536-.056.798.18.845.705.043.49-.12.875-.574 1.105-.785.397-1.58.706-2.495.474-.44-.112-.887-.053-1.297.163-.44.232-.472.742-.06 1.026.29.203.63.254.972.214.478-.056.923-.01 1.34.255.292.183.61.16.914.013.42-.203.857-.233 1.298-.102.288.085.538-.014.805-.08.22-.055.455-.084.683-.08.153 0 .227.154.14.274-.122.165-.27.352-.448.423-.365.145-.563.427-.768.725-.25.364-.52.714-.783 1.07-.088.118-.194.226-.265.354-.183.327-.143.604.132.857.123.113.27.205.418.284.405.215.47.192.698-.205.02-.037.046-.073.057-.113.207-.726.686-1.21 1.282-1.663.345-.263.574-.736.745-1.158.233-.575.618-.857 1.202-1 .446-.107.87-.32 1.295-.503.493-.213.657-.165.915.316.174.325.27.665.193 1.04-.05.248-.09.498-.13.75-.02.145-.075.306-.036.437.188.626.07 1.262.103 1.892.02.398.142.79.19 1.188.04.355.09.72.055 1.072-.08.82-.67 1.34-1.493 1.077-.706-.226-1.402-.477-2.106-.705-.258-.083-.525-.18-.79-.19-.575-.017-1.015-.254-1.364-.692-.053-.066-.093-.143-.152-.203-.137-.138-.28-.12-.356.05-.092.212-.16.437-.21.663-.11.517-.208 1.037-.296 1.558-.027.162-.026.336-.003.5.083.586.2 1.168.265 1.756.027.242-.008.508-.083.74-.115.357-.145.69-.033 1.055.21.68.233 1.37.08 2.07-.064.287-.08.59-.07.885.027.805.493 1.24 1.3 1.233.17 0 .34-.062.505-.05.29.02.598.03.866.13.45.17.507.606.11.88-.23.162-.532.253-.815.303-.31.055-.633.03-.95.032-.45 0-.82.163-1.137.482-.222.225-.473.42-.7.642-.102.097-.175.223-.26.336.132.09.255.2.4.263.328.143.677.24 1 .393.34.162.344.2.085.498-.3.344-.45.75-.374 1.174.166.926-.266 1.59-.85 2.212-.013.015-.03.03-.04.048-.447.615-1.01.868-1.766.61-.194-.065-.42-.053-.63-.053-1.567.002-3.134.006-4.7.016-.21 0-.422.076-.63.065-.355-.016-.73-.01-1.057-.128-.683-.245-.827-.956-.32-1.476.22-.224.5-.387.744-.588.227-.187.483-.36.65-.592.267-.37.11-.744-.326-.883-.262-.083-.538-.125-.794-.222-.395-.15-.488-.35-.338-.742.136-.355.308-.697.473-1.04.28-.582.282-1.13-.124-1.67-.443-.59-.408-1.278-.295-1.953.068-.408.375-.654.77-.766.263-.076.537-.12.8-.196.264-.077.31-.176.207-.417-.158-.37-.33-.733-.488-1.103-.088-.208-.23-.33-.443-.42-.64-.27-.69-.364-.5-1 .094-.306.092-.592-.062-.856-.31-.53-.37-1.05-.153-1.64.086-.234.03-.54-.02-.8-.097-.498-.257-.982-.35-1.48-.106-.568-.087-1.128.14-1.684.144-.348.21-.73.282-1.104.076-.396.255-.694.6-.925.542-.364.546-.668.055-1.095-.143-.124-.33-.207-.45-.35-.126-.153-.267-.35-.278-.537-.04-.68.672-1.262 1.356-1.173.69.09 1.385.15 2.078.22.104.01.214.01.316-.01.366-.074.473-.336.276-.658-.267-.433-.795-.662-1.324-.53-.263.066-.51.198-.76.312-.765.35-1.626-.24-1.597-1.097.013-.413.2-.625.61-.67.19-.02.385.014.57-.02.225-.04.457-.095.656-.2.102-.055.217-.254.19-.35-.08-.303-.198-.605-.36-.87-.07-.116-.278-.17-.434-.204-.116-.026-.25.018-.374.043-.783.153-.99-.026-.976-.84.005-.295 0-.592 0-.888.006-.004.013-.004.02-.004zm2.033 18.477c.706.012 1.002-.195 1.168-.744.055-.18.05-.378.102-.56.082-.278.18-.554.293-.822.056-.134.164-.245.238-.372.11-.19.098-.36-.103-.49-.312-.202-.53-.48-.672-.822-.03-.076-.083-.148-.14-.21-.254-.27-.55-.2-.68.157-.106.3.003.528.22.736.567.54.548.665-.057 1.17-.436.364-.852.753-1.26 1.15-.237.23-.157.538.164.64.28.088.575.134.728.168zm5.346 2.38c0-.423-.273-.71-.68-.624-.295.062-.587.222-.836.4-.39.28-.736.622-1.117.916-.277.213-.386.494-.407.818-.015.23.1.405.316.498.215.092.486.032.624-.158.098-.135.17-.29.24-.443.16-.355.43-.548.816-.617.244-.043.484-.133.715-.23.237-.1.337-.305.33-.56zm-4.1 2.795c-.068.016-.2.025-.31.076-.75.35-1.106 1.068-1.527 1.713-.07.106.024.37.116.517.115.185.345.158.515.068.2-.105.38-.252.558-.395.243-.196.482-.397.71-.61.18-.17.39-.334.504-.546.23-.424-.025-.805-.568-.822zm10.235-11.704c.04-.006.103-.012.162-.03.665-.22 1.09-.706 1.377-1.308.148-.31-.09-.657-.44-.68-.177-.012-.383.03-.54.115-.47.26-.83.645-1.086 1.115-.24.44 0 .804.527.79zm-9.893-19.957c-.294-.022-.532.125-.692.405-.178.31-.354.62-.525.935-.04.072-.068.155-.08.237-.033.198.096.34.29.3.16-.036.324-.095.468-.177.31-.177.612-.37.91-.565.31-.2.42-.47.325-.744-.088-.25-.318-.385-.696-.39zm4.938 3.206c-.78 0-1.186.197-.826 1.175.124.337.325.43.637.278.242-.117.47-.277.67-.457.19-.173.303-.416.207-.682-.104-.287-.368-.306-.626-.314h-.06zm-3.115 30.752c.31-.067.58-.105.84-.187.183-.06.33-.194.308-.42-.017-.185-.23-.374-.442-.384-.1-.004-.22.005-.302.056-.21.133-.416.28-.594.45-.072.07-.117.244-.08.328.037.084.193.116.27.158zm-1.875-18.327c.303.024.606-.24.616-.522.007-.195-.076-.32-.284-.338-.306-.025-.594.22-.597.512-.002.19.088.316.265.348zm1.997 2.844c.144.09.234.177.338.2.038.01.17-.166.154-.192-.058-.09-.15-.18-.25-.215-.042-.015-.132.108-.243.206z"/>
    <path d="M197.086 27.726v2.033c-.002.168-.004.34-.025.506-.113.916-.75 1.27-1.596.885-.153-.068-.312-.15-.43-.263-.35-.336-.773-.425-1.228-.424-.34 0-.678.015-1.015.038-.502.035-.885-.117-1.192-.555-.326-.465-.726-.88-1.11-1.304-.31-.34-.7-.46-1.153-.33-.32.092-.42.233-.378.557.027.21.102.412.128.62.065.502.002.64-.45.86-.283.136-.596.21-.89.326-.085.034-.167.114-.208.195-.015.03.08.143.148.18.444.25.774.596.902 1.098.062.243.108.498.11.748.004.857.318 1.632.687 2.417.092.197.88 1.06.663 1.26-.195.182-1.17-.174-1.39-.23-.39-.1-.857-.545-1.25-.634-.333-.076-.644-.158-.838-.497-.112-.194-.298-.368-.573-.306-.027.006-.068.084-.058.1.11.168.198.377.354.485.23.16.41.345.582.565.178.227.418.427.67.568.432.242.77.39.79.875.003.042-.095.278-.094.32.016.548.302.848.834.957.538.11.964.412 1.318.83.19.227.39.453.622.635.227.18.483.348.754.443.35.123.66.276.91.552.083.093.187.17.29.244.29.2.444.24.682 0 .463-.464.973-.487 1.578-.385.358.06.75-.07 1.123-.128.166-.026.324-.1.49-.134.654-.138 1.133.24 1.132.918 0 .25-.055.506-.132.744-.107.333-.126.65-.055.997.062.308.077.634.053.947-.04.567-.378.874-.95.905-.338.018-.678.003-1.016.02-.353.016-.67-.084-.968-.256-.28-.16-.57-.187-.842-.008-.578.38-1.22.352-1.845.247-.74-.125-1.475-.12-2.216-.097-.254.007-.51.014-.762-.008-.826-.07-1.097-.498-.85-1.31.086-.282.175-.565.25-.852.07-.28.023-.55-.152-.784-.222-.296-.587-.343-.81-.053-.174.225-.266.52-.362.793-.117.336-.208.682-.297 1.027-.083.325-.142.657-.225.982-.083.325-.155.658-.287.964-.07.16-.242.288-.39.398-.163.12-.33.078-.43-.105-.35-.658-.712-1.31-.363-2.095.338-.762.182-1.538.023-2.31-.017-.08-.054-.16-.095-.234-.134-.24-.325-.257-.496-.027-.1.133-.196.292-.22.45-.054.374-.098.756-.084 1.133.02.57.11 1.136.143 1.705.022.4-.04.803 0 1.197.07.67.21.766.9.773.532.005.85.262.982.792.103.413-.143.907-.606 1.06-.332.11-.713.19-1.05.14-.793-.115-1.578-.296-2.354-.497-.313-.08-.577-.077-.848.083-.2.118-.397.247-.607.345-.557.26-.912.05-.96-.553-.004-.063-.003-.127-.004-.19-.007-.834.223-1.07 1.043-1.06.253.002.507.023.76.05.52.05.86-.176.964-.682.038-.184.023-.38.037-.57.038-.525.07-1.05.12-1.576.032-.352-.003-.677-.248-.952-.17-.192-.314-.215-.482-.033-.14.152-.28.33-.34.524-.138.443-.242.898-.332 1.353-.072.363-.18.694-.476.94-.346.288-.688.187-.826-.247-.105-.33-.032-.614.184-.888.253-.32.255-.346-.01-.62-.27-.282-.367-.602-.368-.98-.004-1.736-.017-3.473-.025-5.21 0-.126 0-.255.022-.38.073-.426.267-.526.667-.345.172.08.335.185.513.25.393.144.778.158 1.16-.07.402-.24.41-.228.803.084.343.27.67.297 1.054.084.546-.302.602-.588.162-1.028-.334-.334-.638-.672-.77-1.142-.065-.24-.252-.398-.492-.453-.287-.066-.58-.114-.874-.14-.082-.007-.214.074-.248.15-.032.07.008.207.064.276.132.164.31.292.437.46.084.11.152.257.162.393.015.195-.132.35-.315.315-.633-.123-1.3-.146-1.777-.71-.296-.35-.417-.697-.203-1.098.182-.34.15-.637-.025-.96-.09-.165-.147-.354-.184-.54-.077-.395.092-.666.486-.756.44-.1.843-.025 1.143.35.066.082.116.177.18.26.5.64 1.368.54 1.66-.227.15-.4.37-.623.77-.753.55-.18.67-.49.358-.962-.18-.273-.44-.522-.72-.694-.365-.225-.69-.48-.975-.8-.226-.25-.5-.46-.713-.72-.168-.207-.337-.448-.398-.7-.13-.535.115-.9.65-1.05.245-.067.502-.087.748-.148.323-.08.428-.262.298-.564-.116-.27-.284-.52-.42-.783-.19-.37-.142-.592.217-.796.385-.22.79-.406 1.193-.596.252-.12.503-.08.72.085.583.444 1.198.827 1.55 1.543.363.74 1.137.786 1.6.19.278-.36.212-.736-.19-.957-.183-.1-.397-.145-.588-.234-.19-.088-.395-.17-.543-.308-.31-.292-.262-.666.08-.92.85-.627 2.27-.628 3.104.002.1.076.197.16.28.255.337.39.346.525.068.954-.138.213-.302.41-.427.63-.286.504-.062.997.427 1.456.292.274.968.248 1.31-.008.19-.143.178-.306.09-.504-.197-.445-.396-.89-.563-1.346-.163-.445-.074-.627.363-.774.217-.073.456-.12.683-.115 1.038.028 2.07.003 3.106-.107.997-.105 1.267.15 1.31 1.144.034.803.007 1.61.007 2.413.004.003.01.003.013.003zM185.53 33.4c.038.092.06.27.137.297.114.04.276.002.398-.05.108-.046.227-.14.273-.242.062-.137.13-.35.065-.447-.088-.132-.294-.246-.453-.25-.11-.003-.25.176-.332.303-.063.096-.058.237-.09.39zm9.025 10.402c.007-.227-.148-.407-.373-.412-.18-.004-.335.06-.377.253-.04.184.2.427.43.454.177.02.313-.104.32-.295zm2.127-1.268c-.096.112-.216.205-.2.244.04.097.128.192.22.24.032.017.206-.125.196-.166-.023-.1-.117-.183-.216-.318z"/>
    <path d="M33.632 23.266c0-.233.027-.47-.006-.697-.054-.37-.375-.546-.705-.37-.197.104-.366.28-.52.45-.297.33-.577.666-.997.866-.177.085-.304.28-.447.43-.1.108-.18.24-.29.335-.273.236-.51.247-.81.05-.104-.07-.2-.158-.286-.25-.31-.325-.294-.523.065-.772.12-.084.275-.128.38-.227.15-.14.3-.3.395-.48.108-.202 0-.415-.197-.538-.36-.224-1.168.082-1.124.557.038.42-.134.73-.394 1.024-.083.094-.16.203-.208.318-.395.984-1.25 1.128-2.144 1.145-.787.015-1.3-.656-1.162-1.467.05-.29.156-.57.23-.858.177-.672-.334-1.178-1.003-.997-.02.006-.615.26-.635.267-.87.252-.758-.528-.536-1.392.145-.57.394-.964.624-1.507.093-.22.07-.4.034-.608-.07-.416-.125-.835-.168-1.254-.025-.245.08-.447.274-.61.49-.408.936-.337 1.268.21.243.402.292.84.212 1.29-.073.41-.323.657-.733.786-.703.22-.72.293-.34.9.112.178.254.34.356.524.287.518 1.288.44 1.455-.145.064-.22.178-.43.29-.635.207-.378.238-.77.085-1.164-.318-.822-.245-1.614.128-2.4.172-.362.307-.742.474-1.108.07-.152.16-.303.27-.427.355-.4.823-.355 1.108.094.366.58.355 1.297-.165 1.743-.655.562-.668 1.162-.36 1.875.203.465.368.946.556 1.417.145.363.326.48.61.41.335-.083.527-.35.464-.72-.046-.268-.152-.526-.227-.79-.08-.284-.18-.565-.227-.854-.067-.426.11-.742.515-.915.196-.082.396-.155.583-.254.446-.234.6-.56.488-1.052-.064-.29-.152-.572-.242-.854-.112-.354-.124-.705-.02-1.063.117-.412.122-.827.08-1.256-.046-.482-.042-.972-.026-1.458.015-.443.1-.51.532-.536.232-.015.47.005.696-.032.297-.048.392-.33.217-.577-.35-.49-.9-.526-1.283-.06-.22.267-.403.537-.808.526-.292-.008-.534-.07-.74-.29-.287-.313-.592-.608-.715-1.034-.145-.507.033-.768.56-.818.106-.01.215-.025.318-.008.866.143 1.728-.026 2.592-.016.377.004.754.074 1.13.11.147.014.296.035.44.023.843-.068 1.683-.15 2.525-.217.428-.033.697.123.842.525.1.274.155.573.174.864.034.512.202.923.596 1.28.64.578.63 1.16.03 1.808-.058.062-.124.116-.18.18-.264.312-.258.447.023.767.306.35.628.687.913 1.054.326.42.47.896.32 1.43-.093.34-.053.674.073.998.23.594.17 1.21.137 1.822-.02.37-.154.453-.554.418-.338-.03-.673-.07-1.01-.094-.19-.014-.343.062-.348.277-.01.506-.027 1.012-.004 1.515.02.41.29.65.67.75.245.062.5.076.75.124.29.055.61.1.728.424.115.315-.053.563-.254.802-.307.365-.67.555-1.16.538-.84-.03-1.632.182-2.376.578-.398.212-.824.332-1.282.308-.382-.02-.48-.114-.503-.498-.01-.17 0-.34 0-.508-.008.002-.013.002-.018.002zm2.333-4.436c.263-.013.483.01.682-.045.11-.03.266-.187.267-.29.006-.48-.13-.93-.55-1.218-.368-.254-.68-.005-.99.178-.018.01-.036.023-.053.035-.536.367-1.086.574-1.705.173-.077-.05-.206-.064-.296-.04-.157.044-.308.394-.284.6.027.232.186.315.394.338l2.535.27zm-1.33-2.346c.6-.015 1.093-.447 1.067-.936-.026-.5-.44-.838-1.004-.82-.5.017-.933.5-.903 1.013.026.458.364.757.84.744zm-7.163 5.837c.168-.13.35-.21.43-.35.098-.177.014-.397-.16-.496-.192-.11-.42-.203-.637-.212-.127-.005-.294.146-.382.27-.112.16-.027.342.118.444.182.128.39.216.632.345z"/>
    <path d="M197.095 10.894c0 .614.015 1.228-.004 1.842-.018.61-.155.73-.77.743-.254.004-.508-.015-.762-.008-.7.02-1.25.315-1.457 1.005-.177.598-.543.89-1.118 1.065-.48.146-.92.42-1.388.61-.29.114-.597.19-.904.248-.205.04-.422.018-.634.02-.45.002-.803.177-1.1.528-.3.35-.65.66-.983.98-.356.346-.34.533.105.765.224.117.468.195.706.285.2.076.323.206.3.43-.057.565.28.85.735 1.058.21.097.427.19.618.32.28.19.444.458.383.812-.062.366-.324.552-.66.587-.288.03-.6.033-.873-.05-.585-.175-1.162-.207-1.755-.088-1.018.206-2.08.424-2.957-.027-.126-.065-1.23.227-1.293 0-.043-.155.898-.85.994-.894.444-.195 1.386-.387 1.842-.553.26-.095.56-.155.64-.46.087-.34-.156-.572-.402-.73-.37-.235-.76-.47-1.173-.603-.493-.158-.77-.42-.76-.94.01-.523-.19-.928-.564-1.293-.453-.442-.634-.973-.43-1.623.093-.294.072-.627.08-.944.007-.255-.107-.44-.366-.532-.27-.095-.498-.054-.698.15-.484.49-.59 1.223-.326 1.88.276.686.494 1.394.765 2.082.146.37.322.733.535 1.068.34.537.485.664-.095.944-.32.155-.733.46-.902.77-.07.127-.153.258-.26.356-.403.37-.925.315-1.176-.166-.263-.504-.488-1.034-.677-1.57-.222-.63-.066-1.256.155-1.86.153-.416.328-.825.5-1.235.147-.354.15-.702-.03-1.042-.287-.536-.332-1.08-.11-1.652.135-.344.13-.696.04-1.06-.146-.585.018-.744.487-.81.02-.003.042-.008.062-.014.245-.076.504-.142.54-.457.03-.257-.182-.49-.55-.61-.12-.037-.25-.045-.373-.073-.444-.102-.51-.205-.425-.67.023-.124.052-.248.085-.37.25-.927.7-1.2 1.64-1.043.35.06.714.063 1.07.055 1.46-.032 2.917-.094 4.376-.107.327-.003.665.115.98.23.253.094.48.12.734.027.736-.265 1.477-.333 2.24-.085.43.14.872.097 1.318.006.432-.09.876-.138 1.317-.166.59-.038 1.185-.044 1.777-.054.7-.012.863.12.917.827.04.548.02 1.1.028 1.65.002.148 0 .296 0 .445h.007zm-6.406 1.377c.007.002.015.003.023.003 0 .148-.012.297.002.444.036.355.167.5.443.51.268.013.45-.128.536-.44.118-.435.013-.844-.207-1.218-.063-.11-.243-.236-.34-.215-.14.03-.305.164-.36.295-.08.188-.07.413-.098.62zm-1.292-2.458c-.07-.055-.167-.18-.29-.215-.14-.043-.317.275-.26.495.02.073.138.17.213.17.19.002.364-.213.338-.45z"/>
    <path d="M66.568 43.095c.338 0 .677.005 1.015 0 .735-.015 1.104.253 1.29.947.03.102.058.204.077.308.08.43.353.654.772.727.208.036.417.077.62.134.415.118.647.4.653.832.007.568.023 1.138-.02 1.704-.067.874-.54 1.22-1.416 1.113-.336-.042-.676-.055-1.014-.055-2.328.003-4.657.014-6.985.02-.105 0-.21.005-.316 0-.498-.028-.744-.192-.88-.67-.08-.278-.09-.58-.104-.874-.02-.4-.036-.802-.015-1.2.06-1.162-.038-2.327.02-3.48.05-.94.025-1.85-.102-2.775-.065-.47.01-.97.093-1.444.114-.656.16-1.295-.057-1.94-.073-.217-.112-.46-.093-.687.05-.59.11-1.18.222-1.76.11-.57.48-.814 1.06-.75.25.027.503.086.74.173.4.15.738.077 1.062-.19.18-.146.374-.28.58-.386.526-.273 1.055-.28 1.563.06.158.105.302.233.466.328.328.19.66.376.998.545.35.174.684.154 1.006-.103.344-.274.757-.363 1.193-.36.34.004.678-.014 1.016.002.587.027.827.252.93.836.005.02.013.042.013.062-.02.716-.024 1.434-.067 2.15-.022.337-.228.593-.554.714-.196.073-.404.12-.61.156-.54.093-.69.226-.798.744-.084.407.046.673.48.934.18.11.373.2.567.285.548.24.906.655.968 1.242.06.585.036 1.18.038 1.77 0 .103-.05.205-.082.306-.078.254-.192.506-.49.51-.283.002-.357-.258-.435-.48-.07-.198-.12-.407-.214-.596-.235-.478-.5-.557-.97-.307-.112.06-.225.12-.328.194-.46.33-.97.38-1.514.318-.44-.05-.887-.11-1.327-.088-.415.02-.83.13-1.237.227-.104.025-.185.148-.277.225.082.093.15.204.247.274.3.215.637.33 1.01.328h1.207c-.002-.004-.002-.01-.002-.02zm-2.958-.775c-.036-.053-.07-.132-.127-.183-.368-.324-.838-.36-1.283-.108-.17.096-.32.21-.32.43 0 .24.15.38.343.486.195.108.408.147.6.027.25-.155.477-.34.71-.516.03-.022.04-.07.077-.137zm5.108-6.152c-.012-.246-.08-.505-.325-.68-.37-.262-.77-.074-.815.38-.034.357.147.617.527.757.393.145.6.002.613-.457zm-4.305-.31c-.026-.046-.056-.174-.127-.206-.075-.033-.21-.002-.285.05-.19.13-.39.288-.3.556.03.087.18.18.28.186.224.01.417-.253.433-.585zm1.962 1.864c.182-.032.203-.2.186-.376-.018-.202-.097-.377-.32-.413-.172-.027-.326.183-.31.4.015.246.182.41.445.39zm-2.342 6.936c-.036-.007-.072-.017-.108-.02-.006 0-.015.026-.022.04.036.007.072.016.108.02.007 0 .016-.026.023-.04z"/>
    <path d="M54.816 48.492c-.377.044-.755.076-1.13.136-.474.075-.517.065-.772-.334-.266-.417-.53-.432-.808-.035-.085.12-.13.267-.214.388-.197.284-.475.467-.814.33-.678-.274-1.37-.206-2.068-.174-.17.008-.346.027-.505-.014-.177-.047-.41-.113-.492-.248-.24-.393-.442-.814-.61-1.243-.106-.275.087-.467.305-.634.348-.268.4-.415.228-.805-.117-.264-.298-.505-.48-.735-.128-.164-.314-.282-.46-.435-.477-.5-.427-1.166.122-1.6.165-.13.354-.23.53-.35.215-.143.26-.342.107-.543-.192-.25-.394-.5-.63-.707-.66-.583-.737-1.055-.39-1.93.125-.312.206-.64.312-.96.203-.61.08-1.18-.237-1.704-.27-.448-.28-.862-.01-1.31.176-.287.333-.592.45-.908.256-.678.827-.958 1.528-.846.65.104 1.26.076 1.864-.166.406-.163.694.047.97.287.126.11.213.266.34.375.334.29.636.28.95-.034.133-.133.23-.3.347-.45.55-.71 1.29-.92 2.146-.796.393.057.72.24.91.615.224.45.124.854-.287 1.155-.035.025-.087.035-.107.067-.085.133-.162.27-.24.407.145.06.288.16.438.173.658.062.884.326.616.933-.267.605-.205 1.135.045 1.705.09.2.158.478.09.67-.306.872-.284 1.793-.45 2.684-.068.357-.124.712-.426.962-.25.205-.264.464-.17.747.093.28.18.565.282.842.165.447.207.9.12 1.37-.103.573-.087 1.102.288 1.626.39.544.116 1.187-.56 1.407-.352.115-.744.11-1.118.157l-.01-.078zm-2.45-2.974c-.25-.475-.497-.956-.755-1.43-.246-.455-.59-.83-1.026-1.106-.435-.277-1.066-.11-1.33.332-.123.206-.113.414.028.595.476.606.994 1.15 1.815 1.288.428.072.846.21 1.27.32z"/>
    <path d="M4.727 8.257c.55 0 1.1-.005 1.65 0 .544.008.655.112.733.655.033.23.057.463.103.69.07.344.16.414.512.446.358.033.668-.055.917-.33.227-.252.463-.496.702-.735.235-.236.525-.406.856-.307.568.17 1.11.058 1.612-.155 1.062-.45 2.155-.562 3.29-.497.57.032 1.145-.04 1.715-.015 1.715.074 2.622 1.816 2.093 3.177-.14.36-.167.688-.018 1.042.472 1.115.29 2.15-.39 3.123-.146.207-.25.443-.39.654-.418.635-1.084.885-1.82.682-.204-.056-.402-.133-.602-.2-.392-.135-.8-.173-1.186-.04-.533.18-1.072.24-1.625.21-.315-.02-.49.086-.613.406-.28.723-.77.85-1.3.288-.62-.656-1.323-.67-2.098-.47-.787.203-1.184.013-1.5-.732-.27-.64-.34-1.277-.19-1.98.14-.653.154-1.34.16-2.014.004-.28-.117-.58-.252-.835-.18-.343-.603-.382-.846-.077-.148.186-.26.45-.27.683-.012.286.07.586.16.864.177.542.372 1.08.587 1.606.174.43.125.832-.078 1.223-.126.242-.272.48-.443.692-.424.528-.936.67-1.51.325-.48-.288-.91-.26-1.386-.07-.215.086-.44.165-.667.198-.35.05-.58-.13-.61-.48-.023-.25-.012-.512.03-.76.12-.674.09-1.345.037-2.023-.038-.482-.006-.97.01-1.456.015-.415.212-.7.597-.896.516-.26.547-.394.31-.898-.11-.23-.245-.445-.37-.666-.06-.11-.137-.214-.188-.33-.29-.65-.097-.948.625-.976l1.46-.052c.062-.002.126 0 .19 0v.03zm7.21 8.27c.328 0 .484-.227.285-.487-.183-.24-.434-.45-.698-.596-.267-.148-.495.056-.47.364.037.415.407.716.882.718zm-7.492-2.272c-.057.05-.174.116-.225.214-.055.104-.066.243-.062.366.006.227-.023.485.232.61.163.078.49-.197.596-.478.015-.04.027-.08.033-.12.04-.298-.228-.603-.575-.593zm5.698-2.303c-.06-.187-.104-.395-.193-.58-.096-.2-.32-.217-.472-.064-.31.313-.17.96.254 1.103.073.026.215-.024.265-.087.073-.092.093-.227.146-.37z"/>
    <path d="M83.845 45.226c-.066.342-.097.595-.165.838-.106.378-.097.745-.02 1.128.06.307.094.633.06.943-.07.65-.51.943-1.155.847-.752-.112-1.505-.235-2.262-.294-.502-.04-1.012.02-1.517.045-.36.017-.717.05-1.076.074-.484.034-.97.053-1.453.104-.914.097-1.517-.522-1.346-1.437.103-.544.127-1.075.094-1.632-.04-.667.087-1.346.148-2.02.06-.673.16-1.338-.05-2.014-.073-.24.006-.547.08-.805.125-.436.17-.862.08-1.313-.058-.288-.05-.59-.064-.885-.03-.655-.06-1.31-.08-1.964-.01-.317-.005-.635.007-.95.02-.55.025-1.102.088-1.647.05-.436.144-.875.28-1.293.123-.38.36-.508.747-.4.558.156 1.18.207 1.523.803.123.215.34.232.556.108.054-.032.115-.056.163-.096.66-.553 1.467-.612 2.27-.676.528-.042 1.056-.08 1.584-.095.25-.006.51.02.755.076.544.126.806.548.575 1.052-.277.603-.316 1.217-.322 1.856-.005.598.037 1.18.258 1.744.09.232.134.493.146.743.038.76-.614 1.257-1.35 1.033-.2-.06-.385-.174-.58-.255-.314-.13-.625-.117-.914.065-.292.184-.302.56.004.722.175.093.4.106.605.118.12.007.25-.046.366-.097.46-.2.886-.17 1.21.226.336.413.662.858.382 1.44-.148.306-.112.603-.06.925.165 1.02.3 2.046.433 2.99zM81.268 44.2h.11c.38-.005.717-.183.776-.44.075-.33-.175-.5-.388-.667-.317-.247-.64-.486-.978-.703-.465-.3-.973-.414-1.514-.23-.3.102-.595.22-.89.337-.385.152-.704.056-.967-.252-.137-.16-.256-.34-.404-.49-.232-.232-.47-.263-.68-.116-.208.144-.323.42-.207.674.11.245.28.468.453.677.2.245.47.44.638.7.252.39.55.48.972.328.574-.208 1.153-.205 1.748-.055.45.114.917.166 1.33.237z"/>
    <path d="M2 45.67c.055-.99.117-1.982.16-2.974.015-.337-.017-.675-.032-1.013-.03-.632-.073-1.264-.086-1.897-.004-.183.053-.38.128-.55.106-.24.362-.253.486-.013.114.22.163.477.24.717.105.32.176.658.325.956.154.307.384.302.57.012.137-.21.233-.448.338-.678.088-.192.14-.403.25-.58.21-.345.412-.4.804-.264.04.014.077.036.117.05.494.175.715.122.925-.346.23-.51.537-.84 1.13-.862.134-.005.28-.162.384-.28.078-.09.103-.23.15-.347.256-.66.416-.768 1.133-.76.085 0 .173-.01.253.012.526.143.98.088 1.37-.356.194-.22.517-.216.78-.12.455.17.895.377 1.337.578.212.097.318.288.31.514-.01.357-.01.72-.083 1.07-.114.553-.025 1.044.288 1.51.395.587.933.877 1.63.714.75-.176 1.455-.098 2.176.157.588.206 1.188.226 1.773-.123.5-.298.827-.186 1.077.345.132.28.207.6.237.91.036.355-.01.718-.013 1.078-.008.61-.01 1.223-.016 1.834 0 .127.02.257-.002.38-.134.743-.04 1.473.074 2.208.038.24.012.515-.068.744-.21.604-.76.68-1.157.184-.613-.763-.622-.77-1.257-.07-.34.374-.707.492-1.233.456-.965-.066-1.937-.157-2.91.014-.905.16-1.63-.57-1.532-1.473.05-.462.108-.923.148-1.386.035-.403.146-.744.575-.895.097-.034.186-.103.266-.17.275-.23.312-.4.048-.624-.463-.39-.707-.877-.807-1.463-.062-.36-.3-.6-.638-.732-.138-.054-.274-.124-.417-.15-.56-.103-.76-.486-.795-.997-.024-.337-.02-.677-.054-1.013-.008-.086-.11-.163-.168-.244-.07.07-.18.127-.208.21-.12.35-.3.65-.588.886-.44.36-.85.298-1.07-.223-.156-.364-.212-.77-.32-1.156-.054-.193-.01-.453-.28-.517-.17-.04-.358.23-.378.583-.022.38.03.766-.016 1.14-.04.328-.128.668-.28.957-.188.353-.39.386-.722.162-.34-.228-.654-.257-1-.038-.395.25-.79.234-1.204.017-.26-.135-.532-.245-.808.038-.36.367-.396.564-.09.99.06.085.12.175.2.244.44.384.652.877.705 1.446.03.324.152.563.488.663.34.102.447.36.43.692-.01.17.015.346-.027.506-.1.387-.034.746.09 1.116.11.33.084.67-.082.987-.156.3-.385.507-.745.508-.487 0-.975.015-1.46-.018-.468-.032-.62-.18-.73-.652-.053-.224-.068-.46-.07-.69-.01-.636-.004-1.27-.004-1.906H2z"/>
    <path d="M15.488 24.3c.85-.05 1.674-.1 2.497-.147.148-.008.298-.02.444 0 .38.045.602.23.596.613-.007.46-.1.92-.17 1.378-.056.373-.148.742-.2 1.116-.06.417-.17.48-.51.25-.405-.27-.714-.187-.91.235-.098.21-.03.364.12.51.153.146.14.29-.008.436-.152.15-.3.142-.442 0-.318-.314-.748-.25-1.132-.332-.07-.015-.22.07-.238.136-.022.076.034.23.102.266.22.12.453.232.695.292.268.067.484.144.515.462.033.334-.115.645-.41.792-.15.076-.312.13-.472.184-.482.16-.96.34-1.45.468-.562.147-1.017.437-1.328.915-.315.485-.725.62-1.254.443-.26-.087-.54-.15-.76-.3-.573-.388-1.4-.508-2.088-.602-.434-.06-.317-.404-.122-.783.096-.186.236-.35.345-.532.103-.172.067-.324-.104-.437-.053-.034-.114-.055-.167-.09-.52-.342-.718-.808-.47-1.358.153-.337.11-.526-.143-.767-.32-.306-.37-.698-.212-1.115.06-.158.105-.322.164-.48.082-.228.11-.447-.01-.675-.26-.49-.105-.9.265-1.258.152-.147.344-.26.47-.425.216-.282.423-.578.58-.894.125-.247.032-.383-.24-.477-.33-.113-.656-.097-.994.012-.637.206-.97.057-1.16-.575-.115-.376-.115-.788-.153-1.185-.01-.102.057-.21.046-.312-.073-.717.33-1.052.96-1.18.368-.077.755-.17 1.12-.13.452.05.883.048 1.314-.083.413-.125.797-.053 1.154.172.207.13.37.3.313.57-.057.265-.26.37-.508.41-.063.01-.127.01-.19.02-.726.12-1.026.647-.76 1.337.085.218.244.273.45.14.122-.082.233-.182.345-.28.096-.082.177-.186.28-.257.79-.542 1.21-.35 1.423.507.14.56.114 1.046-.347 1.444-.462.4-.218 1.276.382 1.44.28.076.58.114.87.125.508.018 1.017.004 1.5.004zm-3.348 1.826c-.2.116-.454.182-.578.346-.386.512-.91.733-1.506.85-.123.025-.248.068-.358.127-.217.115-.56.214-.604.384-.07.268.305.345.49.505.326.284.68.307 1.056.104.093-.05.2-.076.287-.134.526-.358 1.083-.647 1.674-.89.514-.213.558-.63.136-.986-.153-.13-.364-.19-.596-.308z"/>
    <path d="M135.585 42.182c.04-.338.075-.695.124-1.05.04-.294.066-.607.42-.715.358-.11.88.054 1.083.353.106.156.178.335.258.508.072.153.125.315.2.466.113.225.292.362.556.347.268-.015.428-.187.5-.42.066-.22.095-.455.126-.685.025-.188.015-.382.043-.57.098-.638.417-.976 1.042-1.12.226-.052.46-.08.678-.158.446-.16.857-.18 1.26.132.12.094.312.11.475.142.228.044.46.07.69.1.426.056.75.267.975.633.122.198.24.4.382.584.16.205.378.176.498-.06.046-.09.07-.2.082-.302.018-.147.022-.296.02-.443-.01-.87.516-1.21 1.33-1.3.454-.05.797.182.897.63.087.388.11.794.115 1.193.004.485-.056.97-.06 1.456-.005 1.035.01 2.07.012 3.104 0 .275.026.562-.043.82-.158.596-.128 1.17.062 1.746.105.318.05.632-.1.923-.22.433-.713.635-1.183.49-.183-.055-.36-.128-.534-.203-.505-.22-1.012-.296-1.535-.058-.093.043-.203.068-.307.07-.927.018-1.854.027-2.78.043-.295.004-.595-.007-.883.045-.474.086-.81-.05-1.08-.46-.35-.525-.757-1.012-1.116-1.532-.154-.222-.273-.476-.367-.73-.158-.426-.057-.79.33-1.057.052-.036.107-.07.155-.11.376-.314.374-.42.023-.738-.187-.17-.357-.356-.528-.542-.228-.25-.493-.375-.844-.338-.555.058-.87-.19-.957-.73-.02-.148-.014-.298-.02-.466zm10.506 3.15c.004-.942-.43-1.334-1.23-1.28-1.096.074-2.19.135-3.287.19-.56.027-1.042-.14-1.366-.64-.07-.104-.156-.2-.246-.288-.347-.338-.68-.303-.946.094-.238.354-.21.754.135 1.015.565.428 1.175.728 1.933.608.325-.05.673-.013 1.004.033.585.082 1.157.207 1.76.088.548-.107.99.13 1.307.59.072.103.13.22.21.315.19.22.448.205.558-.058.103-.25.136-.528.17-.664zm-4.183 1.355c-.01-.265-.265-.522-.528-.53-.262-.008-.488.25-.483.55.006.298.24.543.505.525.277-.02.515-.278.505-.545z"/>
    <path d="M138.59 13.906c-.003-.624.105-1.186.545-1.658.186-.2.14-.444 0-.648-.584-.852-.475-1.82-.46-2.765.007-.448.29-.756.732-.843.305-.06.634-.09.94-.044.777.114 1.542.177 2.332.08.557-.067 1.135.03 1.704.045.294.008.59.01.883-.005.38-.02.76-.088 1.138-.085.567.005.906.323.966.886.028.25-.007.505-.016.76-.015.4-.05.8-.044 1.2.016.974.123 1.952.06 2.92-.085 1.29.127 2.575-.013 3.86-.037.337-.045.678-.105 1.01-.07.38-.25.5-.628.458-.124-.014-.256-.04-.365-.098-.44-.23-.89-.222-1.36-.12-.387.086-.424.054-.605-.276-.504-.918-.84-.557-1.844-.24-.44.138-.34-.318-.537-.734-.09-.19-.152-.395-.24-.587-.18-.39-.487-.577-.92-.517-.23.032-.458.082-.688.12-.252.043-.473 1.452-1.05 1.486-.087.005-.456-.29-.424-.464.057-.3.6-.638.6-1.06-.004-.61-.306-1.237-.38-1.443-.143-.39-.153-.825-.22-1.24zm3.162-1.45c-.027-.2-.033-.306-.058-.408-.104-.427-.377-.54-.75-.292-.246.163-.482.347-.695.55-.295.28-.287.594-.014.89.33.357.927.338 1.217-.075.152-.215.222-.49.3-.665zm2.26 1.38c.475.013.78-.275.707-.667-.058-.305-.58-.802-.89-.816-.112-.005-.258.045-.335.123-.236.24-.337.53-.22.867.106.302.38.482.738.492zm1.343 2.238c-.02.028-.043.054-.056.084-.005.008.027.044.034.042.032-.012.06-.032.09-.05l-.07-.076z"/>
    <path d="M128.476 13.384c.106.007.212.027.317.018.592-.05 1.14-.002 1.5.566.032.048.1.078.158.103.22.096.45.003.525-.203.077-.21-.024-.465-.26-.487-.49-.045-.813-.285-1.072-.686-.08-.126-.267-.223-.422-.254-.348-.072-.706-.122-1.062-.13-.453-.012-.83.17-1.043.594-.15.298-.38.424-.708.445-.42.026-.84.094-1.26.132-.352.032-.61-.11-.77-.438-.296-.616-.548-1.244-.517-1.943.03-.633.058-1.268.13-1.897.073-.638.513-1.094 1.15-1.163.368-.04.753.02 1.125.075.227.033.443.14.664.21.316.103.6.086.9-.11.544-.354 1.156-.358 1.777-.235.392.078.602.36.805.666.247.372.257.372.616.094.167-.13.316-.28.473-.422.305-.273.663-.365 1.062-.305.456.068.758.352.856.81.04.187.06.377.088.565.08.52.156 1.042.244 1.56.04.23.15.476-.087.643-.232.164-.5.113-.713-.046-.2-.147-.413-.313-.537-.52-.224-.375-.516-.658-.864-.912-.27-.196-.503-.444-.745-.676-.104-.1-.213-.165-.327-.047-.35.36-.766.588-1.26.685-.2.04-.202.18-.118.342.137.262.37.394.634.494.356.136.71.273 1.058.428.494.22.762.59.707 1.154-.01.105.002.212-.004.317-.018.273.113.427.37.513.486.163.963.32 1.48.103.15-.063.33-.07.498-.075.51-.017.69.088.845.576.114.364.348.62.607.872.37.363.563.786.422 1.32-.133.5-.41.706-.923.66-.126-.01-.253-.034-.373-.073-.282-.092-.55-.052-.794.097-.405.248-.815.29-1.276.16-.49-.138-.702-.012-.906.44-.052.116-.08.242-.13.36-.405.968-1.577 1.264-2.353.568-.267-.24-.516-.31-.86-.236-.626.133-.75.054-1.033-.537-.037-.076-.068-.155-.108-.23-.393-.73-1.253-.798-1.753-.132-.1.134-.16.3-.263.433-.222.286-.582.354-.844.178-.272-.183-.393-.538-.234-.836.288-.54.58-1.083.93-1.583.128-.182.414-.315.645-.35.436-.062.886-.063 1.327-.036.195.013.385.148.57.243.26.133.5.316.772.412.375.132.682.288.842.695.12.308.31.345.548.202.33-.2.43-.49.23-.73-.106-.128-.245-.237-.39-.32-.457-.264-.927-.507-1.387-.767-.313-.176-.62-.352-.75-.733-.18-.526-.102-.663.442-.655.274.004.548.028.823.043.003-.002.003-.004.003-.006zm.262-3.443c-.32-.158-.535-.277-.76-.37-.054-.022-.143.044-.216.07.033.07.046.168.102.208.225.16.47.24.874.093z"/>
    <path d="M23.344 45.37c0-.698.007-1.396-.003-2.093-.005-.417.09-.792.342-1.13.255-.34.788-.562 1.172-.425.138.05.262.2.34.334.118.198.176.43.287.633.08.144.19.284.318.386.087.07.283.13.336.086.09-.078.16-.246.148-.37-.038-.437-.245-.802-.57-1.097-.214-.194-.36-.412-.304-.722.083-.467.442-.64.83-.372.554.385 1.106.774 1.637 1.19.284.22.578.334.934.31.568-.04 1.137-.09 1.707-.1.243-.004.494.058.73.13.34.106.664.268 1.005.37.724.213 1 .604.904 1.357-.02.165-.072.332-.14.484-.116.255-.102.49.034.728.084.147.17.295.232.45.167.417.275.837.147 1.296-.085.304-.11.624-.164.936-.137.798-.432 1.05-1.23 1.072-.38.01-.76.03-1.137.064-.457.04-.87-.102-1.03-.55-.048-.138-.12-.273-.206-.39-.34-.464-.91-.424-1.17.08-.115.224-.2.466-.32.69-.132.25-.363.39-.634.292-.927-.336-1.886-.164-2.83-.214-.127-.007-.254.003-.38-.006-.64-.045-.967-.368-.98-1.01-.016-.803-.004-1.607-.004-2.41h-.002zm3.702-1.952c-.078-.014-.16-.035-.245-.04-.336-.024-.417.07-.344.4.077.345.246.635.566.8.296.15.418.4.47.704.025.145.04.293.065.438.097.533.22.596.718.37.02-.008.038-.017.056-.028.535-.308 1.01-.176 1.456.192.08.067.156.146.247.195.27.145.512.03.565-.273.055-.312-.008-.597-.288-.78-.21-.14-.45-.232-.66-.373-.584-.394-1.282-.64-1.635-1.337-.075-.148-.336-.224-.526-.283-.133-.04-.292.006-.444.014z"/>
    <path d="M118.34 48.76c-.74.043-1.477.103-2.215.122-.398.01-.802-.022-1.196-.084-.628-.1-.874-.38-.945-1.01-.016-.145-.01-.295-.008-.443.007-.89.027-1.778-.43-2.59-.084-.15 0-.25.16-.26.23-.01.464-.012.696.002.36.022.59-.138.76-.452.567-1.03.607-1.045 1.804-.827.36.066.707.112 1.038-.112.192-.13.302-.288.295-.522-.008-.254-.174-.375-.388-.44-.16-.05-.33-.077-.493-.115-.145-.035-.292-.06-.432-.108-.26-.09-.542-.172-.592-.498-.035-.23.223-.467.587-.58.684-.214 1.212-.054 1.58.553.2.33.467.475.814.523.995.137 1.297.273 1.38 1.518.056.862.01 1.73.012 2.595 0 .315.002.63.013.945.01.316.06.634.044.948-.033.65-.312.897-.966.898h-1.52v-.063zm-2.397-1.524c.07-.012.16-.008.234-.04.494-.227.988-.456 1.475-.697.057-.03.123-.16.102-.202-.052-.1-.14-.232-.235-.252-.368-.078-.746-.17-1.116-.154-.298.014-.605.145-.876.285-.217.112-.433.31-.363.602.068.28.332.353.58.42.06.016.122.022.198.036z"/>
    <path d="M2.04 27.76c.058-.298.14-.777.247-1.25.086-.38.092-.743.007-1.128-.155-.703-.06-.87.53-1.267.458-.307.904-.616 1.473-.704.463-.07.708-.438.906-.82.13-.252.052-.443-.215-.567-.3-.14-.617-.182-.92-.034-.247.118-.472.278-.71.416-.18.105-.356.24-.553.298-.364.108-.675-.107-.756-.48-.14-.64.216-1.336.82-1.603.097-.042.2-.074.288-.13.232-.154.253-.305.072-.523-.135-.163-.305-.298-.424-.47-.35-.506-.17-.95.43-1.072.268-.054.542-.084.816-.11.36-.037.66.09.924.335.263.244.535.48.815.705.44.355.62.824.5 1.355-.15.652-.22 1.28.013 1.93.12.33.01.666-.145.98-.176.362-.35.726-.497 1.1-.092.232-.036.3.222.317.232.015.466.004.698.012.147.004.3.003.44.04.377.1.5.39.325.73-.02.04-.036.08-.066.11-.445.42-.834.937-1.35 1.235-.787.455-1 1.15-1.12 1.943-.038.265.006.63-.15.77-.25.226-.456-.18-.71-.25-.284-.077-.556-.2-.84-.282-.842-.244-1.06-.52-1.07-1.585z"/>
    <path d="M8.724 48.644c-.184.046-.346.096-.51.127-.582.113-.935-.164-.992-.757-.033-.338.09-.63.267-.895.258-.388.214-.74-.02-1.118-.246-.394-.444-.817-.694-1.208-.11-.17-.284-.308-.447-.436-.397-.31-.423-.395-.274-.853.07-.218.104-.448.152-.673.022-.103.02-.213.057-.308.084-.21.318-.235.447-.052.048.068.075.15.113.226.197.39.377.477.736.265.25-.146.47-.358.68-.563.535-.522.81-.58 1.47-.294.25.107.428.27.51.53.184.57.485 1.072.858 1.542.28.353.282.49-.04.755-.644.534-.613 1.203-.457 1.912.037.165.133.32.146.485.02.27.05.557-.02.812-.17.644-.54.84-1.195.692-.265-.058-.53-.126-.786-.188z"/>
    <path d="M26.395 7.976c1.048-.06 1.276.405 1.177 1.26-.053.457-.187.91-.323 1.352-.172.555-.274 1.098-.13 1.682.105.433-.018.73-.44.863-.754.237-1.08.688-1.11 1.476-.018.497-.24.615-.77.65-.19.01-.38.017-.57.007-.5-.026-.676-.184-.734-.688-.05-.42-.074-.843-.107-1.264-.026-.318.096-.578.327-.79.17-.16.36-.302.508-.478.46-.55.344-1.247-.26-1.634-.053-.034-.112-.06-.166-.093-.71-.43-.76-1.157-.06-1.613.398-.26.875-.42 1.338-.547.424-.118.876-.128 1.317-.184z"/>
    <path d="M196.134 48.832c-1.756-.013-3.512-.03-5.267-.034-.316 0-.632.046-.947.072-.084.007-.168.024-.252.03-1.02.077-1.608-.742-1.2-1.698.064-.152.245-.318.4-.356.553-.133 1.116-.252 1.68-.295.276-.02.583.097.845.218.643.295 1.224.255 1.772-.204.314-.264.66-.247 1.012-.082.134.063.268.13.386.22.525.39 1.064.34 1.614.07.228-.112.452-.233.682-.34.417-.194.727-.1.967.286.466.75-.07 1.954-.937 2.102-.25.043-.503.06-.755.09v-.078z"/>
    <path d="M9.154 35.196c0 .128-.184.488-.464.48-.6-.016-1.054.233-1.113.513-.097.46-.324.59-.786.506-.247-.045-.485-.147-.732-.204-.31-.07-.422-.015-.557.27-.08.17-.128.358-.214.527-.35.693-1.173.86-1.764.353-.3-.256-.423-.58-.29-.967.096-.28.203-.556.318-.83.15-.356.1-.652-.21-.903-.147-.12-.286-.256-.4-.406-.297-.392-.236-.813.155-1.11.38-.29.82-.33 1.27-.24.29.06.38.322.42.578.035.23.025.464.04.696.03.506.203.945.58 1.3.144.137.282.17.452.066.054-.033.114-.057.167-.09.404-.252 1.687-1.153 2.448-1.286.524-.09.65.443.682.746z"/>
    <path d="M96.096 7.984c.458-.014.87.12 1.265.35.254.145.365.336.338.62-.004.04.004.088-.013.125-.362.798-.04 1.57.086 2.35.076.457.17.916.185 1.377.02.52-.245.72-.765.652-.5-.067-.847-.296-1-.824-.213-.727-.505-1.43-.726-2.156-.16-.524-.286-1.06-.384-1.6-.105-.58.16-.867.762-.895.085-.004.17 0 .254 0z"/>
    <path d="M52.466 29.614c.57.037 1.137.085 1.706.107.25.01.506-.022.757-.058.352-.05.677.024.968.213.31.203.43.514.392.878-.038.364-.27.56-.607.646-.142.036-.293.085-.434.07-.987-.103-1.98-.14-2.94-.443-.476-.15-.754-.44-.914-.882-.118-.328-.026-.49.31-.534.125-.016.253-.005.38-.006h.38v.01z"/>
    <path d="M168.24 26.202h-1.834c-.19-.002-.382.007-.567-.024-.344-.057-.52-.273-.532-.604-.01-.33.152-.545.49-.644.04-.012.083-.024.125-.025.66-.006 1.29-.15 1.916-.356.212-.07.493.02.73.087.176.05.346.16.49.28.444.364.93.565 1.515.513.142-.013.304.006.43.066.098.047.21.18.213.276.002.087-.123.227-.218.256-.24.072-.49.124-.74.13-.673.017-1.347.006-2.02.006v.038z"/>
    <path d="M195.49 16.792c-.274 0-.548.002-.822 0-.714-.005-.92-.918-.705-1.336.053-.104.237-.208.354-.2.695.04 1.263-.26 1.83-.605.477-.29.728-.183.908.335.143.412.15.825.012 1.24-.112.335-.333.538-.69.553-.296.013-.59.003-.886.003v.012z"/>
    <path d="M50.04 32.805c-.182-.016-.33-.015-.475-.044-.584-.12-.926-.764-.69-1.315.055-.128.152-.284.27-.332.45-.187.923-.308 1.41-.16.388.12.536.376.527.83-.01.517-.192.83-.58.95-.156.048-.328.053-.462.072z"/>
    <path d="M165.45 48.815c.008-.06.012-.188.05-.306.084-.268.27-.367.533-.297.08.02.157.06.232.097.387.193.782.3 1.214.147.095-.034.206-.034.31-.037.474-.013.686.175.694.61.01.465-.216.676-.708.658-.105-.004-.212-.01-.312-.038-.374-.1-.738-.09-1.12-.002-.62.143-.895-.11-.895-.833z"/>
    <path d="M29.835 12.35c.003.767-.54 1.258-1.16 1.086-.28-.077-.485-.244-.6-.518-.21-.506-.15-.996.118-1.455.26-.446.628-.493 1.057-.192.393.278.6.64.585 1.08z"/>
    <path d="M189.774 19.05c-.4.002-.53-.093-.553-.354-.03-.362.216-.7.545-.74.082-.01.17-.003.25.014.318.065.573.296.575.513.003.2-.2.412-.502.507-.12.036-.247.047-.314.06z"/>
    <path d="M48.514 29.89c.013.3-.19.542-.474.56-.27.02-.52-.21-.544-.5-.03-.363.18-.68.475-.71.28-.03.527.266.544.65z"/>
    <path d="M24.074 23.87c-.003.225-.485 1.054-.675 1.056-.182.002-.162-.633-.16-.8.002-.2.356-.915.536-.902.21.016.275.487.298.647z"/>
    <path d="M8.724 32.196c-.053.3.67 1.49.464 1.558-.298.1-.57-.408-1.095-.61-.478-.186-.957-.167-1.076-.252-.225-.158.31-.428.328-.503.02-.078.176-.572.434-.824.166-.163.46-.12.5-.15.097-.07.69.202.444.78z"/>
    <path d="M7.024 29.346c.156.276.346.462.317.605-.027.142-.3.428-.45.545-.116-.153-.49-.425-.487-.575.003-.142.418-.35.62-.574z"/>
    <path d="M7.17 27.92c-.158.112-.283.24-.32.22-.102-.06-.188-.175-.238-.287-.012-.027.155-.194.207-.18.112.03.204.137.35.246z"/>
    <path d="M61.01 13.645c-.097.383-.21 1.02-.685.546-.035-.034.01-.96-.006-1.007.017-.006.186-.644.305-.725.08-.054.333.265.387.475.052.21-.022.665 0 .712z"/>
    <path d="M70.897 13.113c.04-.356.05-.716.087-1.073.065-.636.12-1.257-.255-1.845-.108-.168-.07-.444-.054-.668.01-.14.106-.275.148-.417.207-.707-.084-1.144-.807-1.13-1.077.023-2.154.096-3.23.142-.233.01-.474.04-.697-.005-.88-.182-1.716-.158-2.506.345-.346.22-.733.17-1.09-.03-.166-.092-.317-.224-.494-.284-.316-.106-.644-.226-.97-.24-.477-.02-.745.25-.82.717-.022.145-.025.296-.017.443.026.47-.007.926-.163 1.376-.165.48-.024.92.25 1.323.23.34.44.377.71.074.29-.33.525-.712.8-1.06.206-.265.41-.543.663-.758.327-.278.63-.198.83.18.204.38.2.778.01 1.16-.17.34-.4.652-.552 1-.15.343-.274.708-.346 1.077-.06.3-.055.933.25 1.09.22.112.613-.074.84-.4.023-.034.11-.517.13-.553l1.03-1.706c.042-.07.087-.157.154-.195.084-.047.226-.1.28-.06.088.06.164.193.17.3.006.115-.195.43-.258.536-.15.255-.353.3-.524.542-.277.39-.214.857.044 1.244.262.394.64.375 1.14.255.144-.034.285-.11.428-.11.226-.003.49-.025.672.08.47.27.936.357 1.46.2.18-.056.423-.058.463.187.036.218-.165.32-.354.38-.06.02-.128.03-.19.024-.47-.053-.868.13-1.248.376-.363.235-.725.262-1.143.102-.626-.238-.798-.153-1.147.407-.33.528-.886.58-1.314.19-.14-.26-.206-.58-.2-.847.012-.396-.26-.453-.41-.524-.27-.128-.254.515-.545.668-.29.154-.396.7-.64.63-.258-.075-.85-.254-1.083-.166-.232.087-.846.776-.952 1.103s.902-.045 1.394-.062c.492-.018.826-.37 1.126-.27.096.044.715.003.818.023.366.074.588.035.623.394.015.147.06.29.08.437.156 1.048-.237 1.42-1.24 1.106-.506-.16-.853-.03-1.182.335-.743.822-.984 1.816-.943 2.88.01.262.234.524.386.77.063.102.196.16.292.242.17.146.196.31.07.504-.163.247-.387.486-.453.76-.242 1.015-.374 2.038.066 3.05.08.18.15.444.076.597-.275.563-.24 1.153-.25 1.662 0 .398.003.716-.002 1.033-.007.4.194.644.568.732.245.057.5.104.75.094.358-.015.712-.098 1.07-.13.293-.028.596-.074.88-.025.69.12 1.342.098 1.97-.248.452-.248.887-.237 1.273.157.185.187.416.315.685.275.824-.123 1.643-.052 2.464.022.103.01.212-.004.314-.026.32-.068.523-.268.594-.587.027-.123.034-.252.032-.38-.014-.905.19-1.813-.023-2.72-.033-.14-.03-.3.003-.44.17-.74.03-1.478.006-2.215-.03-.84-.418-1.138-1.245-.958-.36.08-.708.085-1.065-.002-.163-.04-.335-.07-.502-.064-1.41.056-2.84-.143-4.222.308-.28.09-.542.05-.804-.053-.502-.2-.92-.517-1.278-.917-.134-.15-.088-.282.11-.31.19-.025.38-.02.57-.025.634-.01 1.268-.01 1.9-.03.867-.03 1.73-.082 2.597-.106.457-.012.87-.092 1.24-.392.338-.273.747-.39 1.186-.386.234 0 .467.005.7-.008.433-.024.72-.25.804-.677.057-.288.118-.594.08-.878-.166-1.246-.03-2.495-.067-3.74-.016-.532.004-1.057-.17-1.567-.107-.31-.09-.613-.02-.935.1-.426.14-.87.19-1.307zm-3.194 6.37c-.277.495-.608.954-1.087 1.265-.25.163-.637.012-.767-.23-.112-.208-.056-.43.233-.646.323-.242.612-.492.8-.866.147-.295.372-.384.554-.295.242.12.278.35.29.593-.006.056.005.13-.024.18zm.464-2.022c-.034.018-.1-.03-.15-.05.046-.074.088-.153.146-.218.008-.01.09.05.177.096-.07.073-.112.142-.173.173zm-.525-4.207c-.1.032-.203.05-.254.06-.522 0-.755-.294-.623-.742.147-.498.43-.86 1.002-.898.21-.014.415-.07.624-.078.163-.007.29.074.287.262-.005.53-.527 1.233-1.035 1.397z"/>
    <path d="M181.626 25.703c.274.216.033.527 0 .692-.033.166.298.63 0 .762s-.63-.265-.795 0c-.165.265-.55.994-.623.762s-.193-.914 0-1.087 1.088-1.39 1.42-1.13z"/>
    <path d="M12.033 35.002c-.31-.088-.575-.22-.53-.354.044-.133.823-.447.972-.373s.27.527.083.737c-.188.21-.525-.01-.525-.01z"/>
  </g>
</svg>
