<!--
  SVG Music Logos
  Eminence - The God Of All Mistakes Single v0.1.1
  https://github.com/tiagoporto/svg-music-logos
  Copyright (c) 2016-2018 Tiago Porto (http://tiagoporto.com)
-->
<svg xmlns="http://www.w3.org/2000/svg" viewBox="0 0 200 27">
  <rect x="59.407" y="1.976" width="5.542" height="23.048"/>
  <polygon points="118.331 7.553 118.331 1.976 94.195 1.976 94.195 25.024 118.331 25.024 118.331 19.776 99.253 19.776 99.253 16.186 114.131 16.186 114.131 14.067 99.253 14.067 99.253 12.998 114.131 12.998 114.131 10.879 99.253 10.879 99.253 7.553"/>
  <path d="M147.44 18.055c0 4.034 3.546 6.97 7.2 6.97h18.142v-5.578h-17.85c-1.6 0-2.434-.64-2.434-2.515v-6.864c0-1.875.835-2.515 2.435-2.515h17.85V1.976H154.64c-3.653 0-7.2 2.935-7.2 6.97v9.11z"/>
  <polygon points="199 7.553 199 1.976 174.864 1.976 174.864 25.024 199 25.024 199 19.776 179.921 19.776 179.921 16.186 194.8 16.186 194.8 14.067 179.921 14.067 179.921 12.998 194.8 12.998 194.8 10.879 179.921 10.879 179.921 7.553"/>
  <polygon points="25.136 7.553 25.136 1.976 1 1.976 1 25.024 25.136 25.024 25.136 19.776 6.058 19.776 6.058 16.186 20.936 16.186 20.936 14.067 6.058 14.067 6.058 12.998 20.936 12.998 20.936 10.879 6.058 10.879 6.058 7.553"/>
  <polygon points="91.67 1.976 86.128 1.976 86.128 16.955 72.234 1.976 66.969 1.976 66.969 25.024 72.511 25.024 72.511 9.61 86.73 25.024 91.67 25.024"/>
  <polygon points="145.113 1.976 139.571 1.976 139.571 16.955 125.677 1.976 120.412 1.976 120.412 25.024 125.954 25.024 125.954 9.61 140.173 25.024 145.113 25.024"/>
  <polygon points="51.844 1.976 42.593 15.452 33.185 1.976 27.643 1.976 27.643 25.024 33.185 25.024 33.185 11.774 42.467 24.709 51.844 11.887 51.844 25.024 57.385 25.024 57.385 1.976"/>
</svg>
