<!--
  SVG Music Logos
  Eminence - A Revolta dos Dândis v0.1.1
  https://github.com/tiagoporto/svg-music-logos
  Copyright (c) 2016-2018 Tiago Porto (http://tiagoporto.com)
-->
<svg xmlns="http://www.w3.org/2000/svg" viewBox="0 70 200 61">
  <polygon points="16.799 88.85 7.923 88.85 7.923 86.973 16.799 86.973 16.799 81.05 7.923 81.05 7.923 79.011 16.696 79.011 16.696 73.088 2 73.088 2 94.773 2.103 94.773 16.799 94.773"/>
  <polygon points="77.039 88.85 68.163 88.85 68.163 86.973 77.039 86.973 77.039 81.05 68.163 81.05 68.163 79.011 76.936 79.011 76.936 73.088 62.239 73.088 62.239 94.773 62.342 94.773 77.039 94.773"/>
  <polygon points="132.43 88.85 123.554 88.85 123.554 86.973 132.43 86.973 132.43 81.05 123.554 81.05 123.554 79.011 132.327 79.011 132.327 73.088 117.631 73.088 117.631 94.773 117.734 94.773 132.43 94.773"/>
  <polygon points="134.066 73.088 134.066 94.773 139.821 94.773 139.821 73.088"/>
  <polygon points="18.435 73.088 18.435 94.773 24.191 94.773 24.191 80.805 30.687 86.517 30.687 94.773 36.442 94.773 36.442 73.088 30.687 73.088 30.687 78.854 24.191 73.141 24.191 73.088 24.13 73.088"/>
  <polygon points="78.675 73.088 78.675 94.773 84.43 94.773 84.43 80.805 90.926 86.517 90.926 94.773 96.682 94.773 96.682 73.088 90.926 73.088 90.926 78.854 84.43 73.141 84.43 73.088 84.37 73.088"/>
  <path d="M49.332 72.47c4.367 0 8.147 2.512 9.977 6.168H51.1c-.595-.23-1.24-.356-1.917-.356-2.937 0-5.318 2.38-5.318 5.318 0 2.937 2.38 5.318 5.318 5.318 1.876 0 3.525-.97 4.472-2.438h-4.012v-5.755H60.48V94.63h-5.754v-1.248c-1.6.886-3.438 1.39-5.396 1.39-6.16 0-11.15-4.992-11.15-11.15s4.992-11.15 11.15-11.15l.002-.002z"/>
  <polygon points="98.421 73.088 98.421 94.773 104.176 94.773 104.176 86.623 110.137 86.623 110.137 94.773 115.892 94.773 115.892 73.088 110.137 73.088 110.137 80.867 104.176 80.867 104.176 73.088"/>
  <path d="M141.56 73.088v21.685h5.756V88.06c.074.022.147.044.222.064l5.708 6.65h7.585l-6.75-7.866c1.894-1.393 3.123-3.637 3.123-6.168 0-4.226-5.15-7.652-7.652-7.652h-7.99zm5.756 8.124v-.944c.217-1.034 1.135-1.81 2.233-1.81 1.26 0 2.28 1.02 2.28 2.282 0 1.26-1.02 2.282-2.282 2.282-1.1 0-2.017-.776-2.234-1.81h.002z"/>
  <path d="M169.947 72.926v-.002c-6.033 0-10.923 4.89-10.923 10.924 0 6.033 4.89 10.923 10.923 10.923s10.923-4.89 10.923-10.92c0-6.034-4.89-10.924-10.923-10.924zm0 16.286c-2.962 0-5.363-2.402-5.363-5.364 0-2.963 2.4-5.365 5.364-5.365v.003c2.962 0 5.363 2.4 5.363 5.363 0 2.96-2.4 5.362-5.362 5.362z"/>
  <path d="M192.047 79.393H198c-.835-8.106-12.002-8.337-15.032-1.034-.23.94-.343 1.827-.314 2.642.032.94.12 1.427.557 2.25.51.967 1.393 1.748 2.73 2.3 1.64.705 3.363.564 4.47.568.838.004 1.355.736 1.355 1.604 0 .84-.68 1.52-1.52 1.52-.56 0-1.046-.3-1.31-.747-.11-.008-.22-.017-.332-.03h-5.953c.834 8.106 12 8.337 15.03 1.034.297-1.22.4-2.343.253-3.342-.096-.652-.03-.5-.336-1.22-.476-1.12-1.398-2.016-2.887-2.63-1.638-.705-3.362-.564-4.47-.568-.837-.004-1.354-.736-1.354-1.604 0-.84.68-1.52 1.52-1.52.56 0 1.046.3 1.31.747.11.008.22.018.33.03z"/>
  <path d="M21.817 109.606l3.632 3.667c.6-.09 4.08-2.87 7.002-.596.238.185.532.4.74.605.804.74 1.33 1.962 1.33 3.345 0 1.867-.958 3.442-2.267 3.93v-6.612H26.47v14.208h3.12c.447.005.85-.013 1.13-.04 9.798-.945 14.557-14.6 4.502-20.56-4.77-2.828-10.66-1.3-13.405 2.053z"/>
  <path d="M53.405 106.134c-6.033 0-10.923 4.89-10.923 10.923s4.89 10.923 10.923 10.923 10.923-4.89 10.923-10.923-4.89-10.923-10.923-10.923zm0 16.287c-2.964 0-5.365-2.4-5.365-5.362s2.403-5.364 5.365-5.364c2.963 0 5.364 2.4 5.364 5.363s-2.404 5.364-5.366 5.364z"/>
  <polygon points="106.904 106.511 100.604 128.136 106.58 128.136 110.174 115.8 113.768 128.136 119.744 128.136 113.444 106.511"/>
  <polygon points="81.464 106.451 81.464 128.136 87.219 128.136 87.219 119.986 93.18 119.986 93.18 128.136 98.936 128.136 98.936 106.451 93.18 106.451 93.18 114.231 87.219 114.231 87.219 106.451"/>
  <polygon points="128.274 128.136 128.296 128.136 131.891 115.8 135.485 128.136 135.508 128.136 142.047 128.136 148.348 106.511 142.372 106.511 138.777 118.847 135.183 106.511 135.16 106.511 128.621 106.511 128.598 106.511 125.004 118.847 121.41 106.511 115.434 106.511 121.734 128.136"/>
  <polygon points="150.309 106.511 144.008 128.136 149.984 128.136 153.579 115.8 157.173 128.136 163.149 128.136 156.848 106.511"/>
  <polygon points="164.934 106.511 164.934 128.196 170.689 128.196 170.689 106.511"/>
  <polygon points="172.428 106.451 172.428 128.136 178.183 128.136 178.183 106.451"/>
</svg>
