<!--
  SVG Music Logos
  Franz Ferdinand - Franz Ferdinand v0.1.1
  https://github.com/tiagoporto/svg-music-logos
  Copyright (c) 2016-2018 Tiago Porto (http://tiagoporto.com)
-->
<svg xmlns="http://www.w3.org/2000/svg" viewBox="0 0 200 119.333" class="franz-ferdinand">
  <polygon class="franz-ferdinand__dash" points="36.232 70.821 140.618 46.722 142.436 54.6 38.051 78.699 36.232 70.821"/>
  <g class="franz-ferdinand__lettering">
    <polygon points="23.975 46.75 44.784 41.946 42.043 30.072 21.234 34.876 18.075 21.191 38.884 16.388 36.098 4.321 2 12.193 17.845 80.827 31.135 77.759"/>
    <path d="M120.287 44.505L117.262 31.4c-.943-4.082-1.084-7.08-.438-9 .647-1.92 2.163-3.15 4.537-3.698 2.318-.535 4.126-.152 5.427 1.148 1.29 1.302 2.414 4.004 3.36 8.106l3.13 13.55 7.12-1.644-3.737-16.19c-.63-2.725-1.26-4.77-1.892-6.115-.64-1.342-1.437-2.5-2.396-3.447-1.478-1.42-3.132-2.347-4.968-2.804-1.835-.456-3.86-.43-6.063.08-1.727.4-3.18 1.084-4.374 2.06-1.183.983-2.143 2.285-2.858 3.91l-.802-3.476-6.96 1.607 7.066 30.605 6.875-1.587z"/>
    <path d="M77.694 50.188c3.742 2.387 7.88 3.062 12.4 2.018 2.41-.557 4.312-1.376 5.693-2.455 1.38-1.078 2.317-2.484 2.82-4.2l.868 3.76 6.875-1.588-7.065-30.605-6.96 1.607.855 3.703c-1.327-1.284-2.877-2.106-4.652-2.477-1.776-.37-3.78-.298-6.002.215-2.317.535-4.316 1.407-5.99 2.603-1.674 1.197-3.09 2.774-4.237 4.74-1.078 1.788-1.768 3.738-2.083 5.84-.315 2.103-.223 4.232.274 6.388 1.058 4.58 3.462 8.065 7.204 10.452zm1.182-19.057c1.317-2.094 3.182-3.414 5.585-3.97 2.3-.53 4.518-.102 6.642 1.298 2.13 1.39 3.48 3.328 4.053 5.816.54 2.336.156 4.575-1.14 6.714-1.31 2.132-3.082 3.462-5.323 3.98-2.47.57-4.758.187-6.868-1.156-2.12-1.34-3.472-3.3-4.066-5.872-.566-2.45-.19-4.717 1.118-6.81z"/>
    <path d="M64.848 57.304l-3.604-15.61c-.737-3.192-.695-5.522.115-7 .808-1.476 2.567-2.652 5.28-3.51l-1.535-6.646c-1.614.373-2.983 1.03-4.118 1.96-1.135.933-2.08 2.212-2.835 3.837l-.816-3.533-6.676 1.54 7.066 30.606 7.122-1.644z"/>
    <polygon points="153.689 11.439 147.536 50.376 173.044 44.487 171.437 37.45 157.103 40.759 163.24 1.942 139.16 7.501 140.687 14.441"/>
    <polygon points="36.765 98.959 27.911 101.003 26.564 95.17 35.419 93.126 34.38 88.63 20.575 91.817 26.479 117.391 31.43 116.248 28.932 105.427 37.786 103.383"/>
    <path d="M61.327 100.16c-.038-.22-.07-.383-.093-.485-.308-1.337-.73-2.483-1.27-3.445-.537-.962-1.207-1.786-2.023-2.475-1.336-1.144-2.82-1.932-4.446-2.358-1.626-.426-3.278-.443-4.95-.057-1.326.306-2.538.882-3.648 1.733-1.112.844-2.042 1.904-2.784 3.175-.68 1.154-1.118 2.38-1.304 3.68-.187 1.292-.13 2.61.182 3.96.303 1.313.85 2.532 1.64 3.662.792 1.13 1.753 2.064 2.883 2.8 1.195.773 2.454 1.278 3.783 1.508 1.33.23 2.71.176 4.15-.156 2.146-.495 3.9-1.513 5.262-3.052 1.367-1.547 2.212-3.466 2.547-5.76l-4.85 1.12c-.29.87-.792 1.603-1.496 2.214-.708.605-1.564 1.024-2.565 1.255-1.51.348-2.838.23-3.977-.352-1.137-.577-1.95-1.552-2.42-2.908l15.473-3.572c-.024-.108-.054-.265-.093-.49zm-16.046.457c.058-1.257.473-2.357 1.26-3.302.78-.944 1.762-1.556 2.96-1.833 1.38-.318 2.6-.247 3.662.216 1.068.467 1.94 1.295 2.622 2.495l-10.503 2.424z"/>
    <path d="M72.306 90.583l-.97-4.196c-1.018.235-1.882.65-2.6 1.238-.716.59-1.313 1.396-1.79 2.42l-.513-2.23-4.214.974 4.46 19.32 4.496-1.038-2.276-9.856c-.465-2.014-.438-3.485.073-4.418.51-.932 1.62-1.674 3.333-2.215z"/>
    <path d="M87.488 76.37l1.8 7.798c-1.003-.494-2.02-.796-3.053-.893-1.034-.102-2.175-.01-3.416.277-1.29.298-2.45.793-3.484 1.486-1.038.7-1.9 1.562-2.583 2.598-.833 1.203-1.387 2.524-1.666 3.97-.278 1.448-.25 2.888.08 4.314.357 1.547 1.005 2.93 1.953 4.165.94 1.23 2.115 2.214 3.517 2.95 1.028.54 2.123.88 3.29 1.016 1.17.14 2.358.07 3.575-.212 1.145-.264 2.172-.684 3.076-1.253.903-.575 1.724-1.314 2.447-2.226l.366 1.582 4.425-1.02-5.904-25.575-4.422 1.022zm2.882 20.386c-.773 1.328-1.894 2.16-3.37 2.502-1.67.386-3.187.168-4.54-.663-1.348-.832-2.212-2.06-2.588-3.69-.36-1.553-.123-3.02.714-4.402.838-1.375 2.027-2.243 3.574-2.6 1.565-.36 3.005-.112 4.307.743 1.298.862 2.144 2.12 2.524 3.768.362 1.57.154 3.02-.62 4.342z"/>
    <rect x="96.791" y="73.76" transform="rotate(166.998 99.04 75.956)" width="4.504" height="4.399"/>
    <rect x="92.307" y="87.477" transform="rotate(-103.002 102.215 89.726)" width="19.829" height="4.503"/>
    <path d="M124.853 79.778c-.404-.848-.907-1.578-1.513-2.176-.933-.896-1.977-1.482-3.136-1.77-1.16-.288-2.437-.27-3.828.05-1.09.252-2.008.684-2.762 1.3-.747.62-1.353 1.443-1.804 2.47l-.506-2.195-4.395 1.015 4.46 19.32 4.34-1-1.91-8.274c-.595-2.578-.685-4.47-.277-5.682.41-1.212 1.366-1.99 2.864-2.335 1.463-.336 2.604-.095 3.425.726.815.822 1.524 2.527 2.122 5.117l1.975 8.554 4.495-1.038-2.36-10.222c-.395-1.72-.794-3.01-1.192-3.86z"/>
    <path d="M143.38 70.05l.54 2.34c-.837-.812-1.815-1.33-2.936-1.565-1.12-.234-2.386-.188-3.79.136-1.462.34-2.724.89-3.78 1.644-1.057.756-1.95 1.75-2.675 2.992-.68 1.13-1.117 2.36-1.315 3.688-.2 1.328-.14 2.672.173 4.033.667 2.89 2.186 5.09 4.548 6.597 2.362 1.507 4.974 1.933 7.827 1.274 1.523-.35 2.723-.87 3.595-1.55.872-.68 1.463-1.568 1.78-2.652l.55 2.374 4.34-1.002-4.46-19.32-4.397 1.013zm1.068 14.057c-.826 1.346-1.945 2.186-3.36 2.512-1.558.36-3.003.118-4.336-.73-1.338-.847-2.192-2.083-2.567-3.707-.357-1.547-.12-2.978.706-4.3.832-1.32 2.01-2.155 3.527-2.505 1.45-.335 2.852-.065 4.193.82 1.345.875 2.196 2.1 2.56 3.67.338 1.474.096 2.888-.722 4.24z"/>
    <path d="M170.39 69.265c-.405-.848-.908-1.578-1.514-2.176-.933-.897-1.977-1.483-3.136-1.77-1.16-.29-2.437-.272-3.827.05-1.09.25-2.008.683-2.762 1.3-.746.62-1.352 1.443-1.803 2.47l-.506-2.195-4.394 1.015 4.46 19.32 4.34-1-1.91-8.274c-.594-2.578-.684-4.47-.276-5.682.41-1.212 1.366-1.99 2.865-2.335 1.462-.34 2.604-.097 3.425.724.815.822 1.524 2.527 2.122 5.117l1.975 8.555 4.496-1.038-2.36-10.22c-.397-1.722-.796-3.013-1.194-3.862z"/>
    <path d="M192.096 52.218l-4.424 1.02 1.8 7.8c-1.003-.494-2.02-.796-3.053-.892-1.035-.102-2.175-.01-3.416.277-1.29.298-2.45.793-3.483 1.486-1.037.7-1.9 1.562-2.58 2.597-.835 1.203-1.39 2.524-1.667 3.97-.278 1.448-.25 2.887.08 4.314.357 1.548 1.005 2.932 1.953 4.166.94 1.23 2.115 2.214 3.517 2.952 1.028.54 2.123.88 3.29 1.015 1.17.14 2.358.068 3.575-.213 1.145-.264 2.172-.684 3.076-1.253.903-.575 1.724-1.313 2.447-2.226l.367 1.584L198 77.792l-5.904-25.574zm-1.542 21.41c-.773 1.327-1.894 2.16-3.37 2.5-1.67.387-3.187.168-4.54-.662-1.347-.832-2.212-2.06-2.588-3.69-.36-1.553-.123-3.02.714-4.402.838-1.374 2.027-2.242 3.574-2.6 1.565-.36 3.005-.112 4.307.743 1.3.862 2.145 2.12 2.525 3.768.36 1.57.153 3.02-.62 4.342z"/>
  </g>
</svg>
