<!--
  SVG Music Logos
  Gorillaz - Gorillaz v0.1.1
  https://github.com/tiagoporto/svg-music-logos
  Copyright (c) 2016-2018 Tiago Porto (http://tiagoporto.com)
-->
<svg xmlns="http://www.w3.org/2000/svg" viewBox="0 0 200 55">
  <path d="M197.54 45.508l-1.846-2s-1.23-.46-2.922-.614c-1.692-.154-3.537.154-3.537.154h-3.69l-5.845-.923h-4.767l-3.844.615-5.076.46-2.153.155-.307-.77v-.768l1.076-3.076 5.074-5.996 7.69-9.38 5.996-6.15 2.46-2.46s.155-2 0-3.077c-.153-1.076-.768-1.845-1.075-2.614-.308-.77-3.383-2.307-3.383-2.307s-4.152.154-5.075.154h-3.998c-.924 0-1.693.77-1.693.77l-2 .614s-1.844.308-3.228.46c-1.385.155-2.923.155-3.692.155s-2.768.307-2.768.307l-2.46-1.076h-2.153l-1.384 1.077-1.076 1.384-1.384-2.767-2.922-2.768-3.997-2-2.922-1.075-5.227-.308-3.998.308-2.614 1.23-2.613 1.845-2.307 2.46-2.153 2.46-1.845 2.307-1.538 4.306.615 2.46.922 1.23 3.076.923 1.384-1.075 1.076-1.384.307-1.998.46-2.307 1.54-2.768 2.613-2.614 4.613-2.153 4.768.307 3.69 1.23s2 1.538 2.77 2.153c.768.615 2.152 3.076 2.152 3.076l1.845 3.998 1.076 4.46.31 2.614-.155 2.153-3.076-2.46-3.077-2-3.23-1.23-3.075-.153-4.92.615-1.846 1.076-2 2-2.767 2.306-2.46 2.46-1.23 3.69-1.692 1.693s-2.922.154-3.998.308-2.153 1.076-2.153 1.076l-2.768.31h-4.46l-1.538-1.23-.308-3.077 1.077-5.536 1.076-5.844 1.23-6.92s1.077-2.768 1.54-3.69c.46-.924.153-2.46.153-2.46l-1.538-2.154-2-.77-1.23 1.076-.922 2.153.154 1.075.154 4.306s-.614 3.692-.768 5.23c-.154 1.537-.308 3.69-.308 3.69l-1.077 2.922-.77 3.23-.614 3.075-.308 4.152-.308 2.767s1.076 1.538 1.845 2.153c.77.615 1.845.615 1.845.615h2.307l2.153-.77 2.768-.306 3.23.46 3.536 1.23 2.154 1.845 1.845 1.845 2.613 1.692 2.614.77 2.153.922 6.46-.307 5.843-.923 4.613-1.23 4.306-2.307 2-1.692-.155 1.538.154 2.768 1.078 2.46 2.46 1.385s3.076.46 3.998.308c.923-.154 2.46-.154 3.537-.615 1.077-.46 2.46-1.076 3.23-1.23.768-.154 2.767-1.384 2.767-1.384l4.92-.307 3.538.154 1.23.616s1.076.615 2 1.077c.922.46 1.383.154 1.383.154l1.693.46 1.538.31 1.54-.924 1.383 1.076 1.845.614s.46.154 1.538.307c1.076.155 1.845-.922 1.845-.922l1.85-2.306-.46-2.614zm-48.288-7.535l-1.692 2.768-2.922.462-2.153.77-1.538.614-4.92.77-2.77-.155-2.152-.307-1.845-.77-1.384-2.152-.307-2.46.46-2.46 1.076-3.075 1.23-1.538 2-1.23 2.152-1.384h3.076l3.383.307 3.23 1.538 1.998 1.077 2.307 2.153.77 1.69v3.385zm12.764-3.69l-2 2.46-1.23 1.844-1.69 1.23-.31-1.845.155-4.306v-3.69l-.614-4.922-1.076-5.844-.308-1.845.615-1.076 3.23-.462 2.46-.46 3.382-.616s2.767-.46 3.69-.46 3.69-.155 4.46-.155h3.076l.307 1.538-1.538 2.614s-3.076 2.92-3.537 3.69c-.46.77-6.612 9.073-6.612 9.073l-2.46 3.23z"/>
  <path d="M110.573 45.048h-8.077c-1.028 0-3.965-.147-4.7-.147h-2.055l-1.027-1.174-.294-2.35.146-3.818.88-3.524.588-4.405.734-4.994.44-5.874.882-6.02-.147-2.79-1.91-1.616-1.173.44-1.175 1.91-.294 4.11s0 2.79-.146 4.26c-.147 1.468-.294 3.524-.294 3.524v2.79l-1.322 8.077-.147 4.993s.148 4.26.148 5.286c0 1.028.88 1.91.88 1.91l.882 1.174 2.056.44 3.965.148h2.644l.88.147.588 1.028 1.175.587h2.496l1.91.44s1.614.295 2.35.442c.733.147 1.76 0 1.76 0l1.176-1.028-.295-2.35c.002 0-2.788-1.616-3.522-1.616z"/>
  <path d="M86.49 17.147l-.88.88-.442 1.91-1.028 3.084-.44 2.35v11.602l.733 4.112.88 1.322 1.176.88.88-.44s.44-2.202.44-2.936.148-3.524.148-3.524l.147-4.552.147-6.608v-7.051L87.812 17l-1.322.147z"/>
  <path d="M88.692 5.693l-1.468-.147-1.322.734-.587 1.762.44 1.616 1.322.88h2.056l1.32-1.174V8.19l-.44-1.763z"/>
  <path d="M80.482 42.676l-2.345-2.345-3.427-3.065v-1.263l1.623-1.263 2.525-2.165 2.525-2.525c.902-.902.54-1.984.72-3.427.18-1.443 0-3.608 0-3.608L80.3 20.13l-2.165-2.166L75.43 15.8l-3.246-1.443-4.15-1.443H64.97s-.362-.54-1.624-1.263c-1.263-.72-1.263.18-1.263.18l-.902 1.264-1.803 1.082s-.902.54-1.984.54c-1.082 0-1.082.542-1.082.542l-1.442 2.164.72 1.443 1.264.54h1.804l1.082-1.262h1.623v3.788l.18 3.428.18 3.427v2.886l-1.442-2.163-1.263-2.165-2.164-1.623-2.705-1.805-.902-1.082-.902-1.443-1.983-.18-1.623.36-1.443 1.444-1.262.722-.902.36-1.623 1.805-1.623 2.526-.902 4.15v3.967l.36 4.15 1.083 2.344 2.165 1.443 2.886.36 2.526-.54 2.164-.72 2.706-1.444 2.165-1.984 2.165-2.345s1.263-1.082 2.525.18l.54 1.984s.18 1.805.18 2.887.18 1.623.18 3.247c0 1.623-.18 2.345-.18 2.345l-.54 1.803v1.443l1.623 1.443 1.623.18 1.443-1.444.18-2.164v-6.494s0-3.427.9-4.15h1.805l1.984.18 1.08.542 1.624 1.443 2.165 2.345 2.163 2.525.902 2.164 1.623.902 1.443-1.083.18-1.984-1.08-1.984-1.078-1.444zm-23.63-6.132l-1.263 1.984-1.985 1.623-1.443 1.264-1.623.902h-2.166l-1.804-.72-1.443-2.165-.36-2.524-.362-2.886.18-2.525 1.443-2.345 2.165-1.804 2.706-.18 1.803.18s.18-.54 1.984 1.263 2.525 2.705 2.525 2.705l.36 2.886-.72 2.344zm16.414-4.15l-1.804.903-1.804-.54-2.164-.362-1.443-.902-1.08-1.804-.18-3.61-.362-3.426.18-2.886.18-2.165 2.706-.902 2.345.722 3.065 1.443 2.525 1.623 1.984 1.443 1.082 2.165-.18 2.165-.902 2.164-1.984 2.165-2.164 1.805z"/>
  <path d="M15.546 23.917c6.193-3.668 12.386-5.41 18.58-5.23l.54.9.902.542 1.263.36 1.444-.54.902-1.624-.54-1.443-1.986-1.443-3.788-.54-5.41.36-4.51.722C13.768 19.728 4.804 23.682 2.2 34.38-.333 54.896 22.044 51.596 31.24 46.465c8.778-5.11 9.5-13.108 3.247-15.332l-3.066-.72h-4.148l-3.968.72-2.165 1.263h-1.624l-2.345.722-2.705 2.164-.18 3.247 1.623 1.803 1.14.507-.025.017.095.95v.95l-.095.76.095.855.665.285c.38-.665.19-.95.19-.95l-.19-.475v-.76l.095-1.045v-.446l2.178-.466.902-1.263.18-1.983 1.263-1.984 1.444-.902 3.788-.54h5.411l1.443 1.263.18 2.886-.902 2.885-2.706 2.345-3.788 2.164c-7.997 1.413-14.79 1.173-18.94-2.706-4.63-4.045-2.344-12.252 7.216-18.76z"/>
</svg>
