<!--
  SVG Music Logos
  Guns N' Roses - Gn'F'nR's! v1.0.0
  https://github.com/tiagoporto/svg-music-logos
  Copyright (c) 2016-2018 Tiago Porto (http://tiagoporto.com)
-->
<svg xmlns="http://www.w3.org/2000/svg" viewBox="0 0 200 112" class="guns-n-roses--gnfnrs">
  <path d="M190.796 83.327c-.051-.088-.197-.129-.336-.145-.302-.034-.606-.055-.904-.15-.251-.08-.521-.107-.781-.167-.345-.08-.351-.055-.401-.386-.041-.267-.204-.391-.463-.329-.298.071-.62.105-.867.293-.191.145-.389.163-.597.156a6.446 6.446 0 0 1-.794-.069c-.249-.039-.479-.163-.732-.156-.449.012-.899.014-1.345.056-.48.045-.952-.064-1.432-.038-.184.01-.353.104-.541.067-.364-.071-.732.003-1.099-.021-.828-.053-1.653.129-2.486.003-.52-.079-1.046-.089-1.572-.176a13.926 13.926 0 0 0-1.591-.182c-.306-.015-.595-.11-.897-.146-.333-.039-.665-.098-1.002-.118a45.444 45.444 0 0 1-1.383-.105c-.085-.008-.165-.017-.25.003-.37.087-.735.198-1.116.241a.558.558 0 0 0-.269.115c-.232.187-.538.233-.771.42a.365.365 0 0 1-.323.074c-.159-.048-.299.003-.452.025-.235.034-.476.143-.689.131-.411-.022-.812.058-1.219.053-.261-.003-.506-.143-.747-.109-.672.097-1.271-.217-1.909-.304-.65-.088-1.275-.318-1.953-.29-.56.024-1.124-.07-1.685-.058a27.66 27.66 0 0 0-2.32.138c-.957.101-1.905-.033-2.856-.044-.663-.008-1.324-.08-1.989-.047-.59.03-1.191.064-1.77-.073-.958-.227-1.92-.427-2.896-.545a8.642 8.642 0 0 0-1.183-.038c-.501.009-1.002.04-1.503.074-.596.04-1.206.013-1.762.291-.107.054-.218.051-.33.055-.706.025-1.408 0-2.088-.214-.295-.093-.59-.02-.885-.034-.703-.034-1.405-.1-2.11-.068-.295.014-.583.085-.882.07-.52-.026-1.05.081-1.555.037-.525-.046-1.008.071-1.481.184-.597.144-1.184.349-1.783.499-.248.062-.508.104-.717.242-.346.227-.725.363-1.111.49-.477.156-.947.342-1.432.468-.739.191-1.486.081-2.23-.013-.554-.07-1.082-.288-1.657-.257-.282.015-.558-.01-.82.132-.095.051-.207.102-.324.084-.787-.125-1.575.033-2.362.001-.608-.025-1.215-.025-1.804.167-.121.04-.236.077-.371.052-.211-.04-.418-.001-.626.057-.217.061-.452.053-.669.098-.454.095-.91-.053-1.37.089-.326.101-.698.048-1.033.189a.607.607 0 0 1-.377.018c-.323-.097-.602.049-.903.104-.733.134-1.471.272-2.213.31-.533.027-1.032.275-1.575.187-.079-.013-.155.053-.227.102a.965.965 0 0 1-.563.153c-.808-.01-1.6.119-2.389.275a1.058 1.058 0 0 1-.455.009c-.602-.131-1.206-.241-1.831-.204-.449.027-.898-.053-1.34-.129-.54-.092-1.065.023-1.592.079-.483.051-.946.196-1.452.157-1.118-.086-2.225.045-3.313.32-.63.159-1.275.23-1.92.285-.389.033-.762.212-1.165.122a.98.98 0 0 0-.619.08c-.228.1-.471.085-.71.095-.106.004-.212-.04-.244-.136-.041-.124.062-.207.155-.271a.436.436 0 0 1 .158-.058c.213-.043.378-.189.577-.264.059-.022.153-.056.127-.143-.027-.089-.078-.237-.171-.209-.228.068-.411-.07-.619-.083-.32-.02-.525.146-.724.363-.158.172-.27.153-.357-.024-.146-.298.073-.771.393-.843.082-.018.168-.015.253-.025.274-.031.466-.147.563-.433.078-.23.085-.479.188-.693.094-.196.005-.359-.023-.533-.021-.132-.124-.141-.229-.095-.399.175-.793.413-.894.842-.104.442-.377.598-.742.611-.703.023-1.369.496-2.099.171-.029-.013-.079.034-.118.032-.451-.024-.798.23-1.175.417-.249.123-.402.275-.458.555-.101.505-.511.755-.938.879-.412.121-.876-.033-1.305.12-.058.021-.141-.01-.205-.034a.375.375 0 0 0-.287.01c-.61.251-1.286.111-1.906.312-.074.024-.168-.007-.25-.022-.084-.015-.171-.037-.25.001-.268.129-.552.094-.833.086-.142-.004-.293-.025-.42.032-.379.173-.779.121-1.168.113-.422-.009-.429-.053-.709.087a1.786 1.786 0 0 1-.983.184.796.796 0 0 0-.373.063 3.322 3.322 0 0 1-1.392.261c-.128-.005-.245.034-.368.073-.522.165-1.038.35-1.582.443-.262.045-.522.113-.781.169-.555.119-1.049.459-1.648.426-.59-.032-1.181.066-1.772.027-.146-.01-.273.039-.406.095-.426.18-.849.373-1.313.442-.166.025-.328.046-.489.114-.47.201-.96.292-1.474.199-.139-.025-.296-.02-.413.052-.337.207-.676.265-1.049.113-.058-.024-.139.001-.208.012-.389.065-.773.136-1.176.113-.258-.015-.539.022-.758.208-.217.184-.484.216-.749.252-.11.015-.22-.003-.333.038-.806.288-1.663.264-2.496.366-.593.073-1.149.23-1.715.387-.521.145-.922.506-1.416.713-.648.271-1.294.308-1.958.319a2.558 2.558 0 0 1-.907-.158c-.287-.103-.603-.029-.909-.019-.401.013-.805-.096-1.188.117-.067.037-.169.033-.25.02-.5-.084-.925.176-1.38.295-.337.089-.664.215-1.002.302-.339.087-.685.176-.967.373-.292.203-.648.278-.917.516-.047.042-.14.072-.198.056-.251-.067-.435.074-.635.176-.15.077-.305.132-.472.173-.531.131-1.056.281-1.461.697-.321.33-.763.476-1.185.597-.339.097-.677.215-1.026.284-.895.177-1.732.56-2.622.757-.44.098-.838.3-1.227.515-.569.314-1.232.321-1.825.576-.261.112-.595.267-.931.113-.043-.02-.127.046-.191.073-.117.049-.232.103-.351.149-.512.197-1.068.18-1.595.335-.385.113-.799.152-1.186.278-.391.127-.834.109-1.165.414-.042.039-.136.036-.205.031-.15-.011-.262.057-.391.124-.234.121-.443.291-.726.325-.699.085-1.382.238-1.974.654-.27.19-.569.31-.891.368a5.177 5.177 0 0 0-1.62.58 1.027 1.027 0 0 1-.571.128c-.164-.01-.358-.045-.491.07-.309.266-.677.389-1.057.494-.152.042-.277.137-.414.208-.306.157-.564.385-.886.527-.71.313-1.441.568-2.161.851-.397.157-.57.068-.621-.357-.012-.099-.002-.204-.118-.248-.202-.076-.412-.121-.623-.063-.09.025-.164.107-.249.157-.14.082-.118.22-.109.341.012.145.131.153.252.163.158.013.315.055.352.243.04.2-.085.319-.235.412-.108.067-.22.136-.339.173-.177.055-.378.094-.511-.075-.164-.208-.367-.154-.538-.079-.266.118-.547.2-.796.365-.547.363-.976.854-1.438 1.307-.187.183-.366.345-.622.413a1.363 1.363 0 0 0-.65.376c-.545.575-1.027 1.209-1.751 1.602-.403.218-.639.661-1.018.931-.022.016-.032.047-.05.068-.222.256-.136.531-.03.794.084.209.29.2.473.202.209.003.369.083.531.218.17.141.293.34.514.424.096.036.187.097.261-.015.13-.197.336-.298.513-.437.144-.113.336-.26.299-.434-.06-.281.061-.523.064-.781.003-.237.135-.358.294-.479.109-.084.229-.127.348-.029.126.104.092.225.005.337-.207.263-.16.507.048.745.074.085.14.177.201.272.059.091.136.143.244.141.389-.005.776.069 1.117-.254.163-.154.392-.269.588-.405.421-.291.839-.45 1.369-.253a.9.9 0 0 0 .889-.134c.27-.224.564-.409.849-.61.526-.372 1.009-.81 1.63-1.022.321-.11.521-.377.796-.543.363-.218.764-.336 1.163-.464.566-.182 1.036-.575 1.609-.753.205-.063.437-.03.612-.147.376-.251.767-.42 1.214-.536.926-.24 1.744-.76 2.612-1.152.83-.375 1.614-.848 2.464-1.184a.71.71 0 0 0 .213-.134c.363-.324.795-.514 1.249-.668.146-.05.298-.074.441-.145a6.223 6.223 0 0 1 1.791-.561c.559-.09 1.032-.373 1.494-.667.236-.15.469-.298.736-.372.167-.046.334-.103.463-.203.479-.371 1.045-.586 1.56-.889.105-.062.239-.061.347-.143.402-.304.8-.614 1.322-.704a.805.805 0 0 0 .408-.197c.205-.202.461-.264.715-.349.354-.119.757-.126 1.026-.446.03-.035.107-.027.161-.046.632-.223 1.242-.479 1.801-.87.262-.183.579-.319.928-.376a7.533 7.533 0 0 0 1.512-.437c.542-.212 1.1-.348 1.653-.492.662-.173 1.334-.309 1.977-.543.283-.103.603-.05.858-.196.307-.175.619-.122.896-.028.305.104.589.096.865.004.204-.068.4-.086.576-.012.408.172.811.083 1.207.005a5.38 5.38 0 0 1 1.048-.108c.231 0 .437-.047.652-.138.276-.117.542-.251.886-.191.308.054.661.023.961-.074.61-.197 1.266-.229 1.849-.516.319.073.579-.157.89-.167.897-.027 1.794-.086 2.69-.133a.975.975 0 0 0 .209-.029c.21-.058.42-.053.63-.007.239.053.477.055.715-.002a7.624 7.624 0 0 1 2.22-.195c.771.044 1.518-.064 2.259-.226.589-.129 1.197-.177 1.765-.4a.332.332 0 0 1 .166-.011c.422.077.847-.001 1.269.026.42.026.806-.199 1.234-.146.329.041.623-.156.94-.205.526-.081 1.057-.115 1.584-.206.636-.11 1.287-.135 1.889-.402.204-.09.417-.077.624-.022.155.041.328.084.457.013.293-.163.601-.127.91-.142.391-.018.782-.043 1.172-.067.796-.049 1.567-.287 2.368-.31.212-.006.423-.03.634-.001.259.035.508-.006.743-.113.456-.206.975-.128 1.434-.32.011-.005.029 0 .041.005.245.101.437.005.617-.157.074-.066.172-.09.269-.116.407-.108.804-.237 1.231-.281.601-.062 1.185-.259 1.799-.233.082.003.168-.022.249-.045a9.893 9.893 0 0 1 2.573-.388c.334-.003.69.025 1.009-.071.634-.191 1.276-.174 1.921-.189.225-.005.451.025.676-.029.587-.141 1.163-.325 1.756-.447.31-.064.653-.047.926-.267.045-.036.137-.018.207-.02.272-.005.529-.073.783-.168.37-.139.745-.274 1.149-.25a2.38 2.38 0 0 0 .632-.052c.607-.126 1.207-.293 1.837-.2.014.002.028-.001.042-.004.599-.12 1.2-.114 1.809-.087.718.031 1.438.004 2.158.004.969 0 1.938.139 2.906-.011.138-.021.278.019.421-.015.482-.113.976-.126 1.466-.161.324-.024.644-.081.965-.122.342-.043.626-.237.968-.284.494-.068.983.038 1.477-.024.472-.06.95-.116 1.433-.048.235.033.488.034.718-.016.939-.205 1.896-.247 2.845-.363.529-.065 1.052-.134 1.557-.328.765-.294 1.555-.486 2.382-.492.1-.001.207-.017.29.04.246.17.517.109.782.098.098-.004.2-.046.294-.031.764.121 1.509-.009 2.254-.155.124-.024.255-.06.377-.043.464.067.894-.066 1.324-.2.178-.055.357-.119.539-.091.407.062.789-.064 1.165-.163.755-.199 1.52-.274 2.295-.313.267-.013.533.071.798-.007.205-.06.41-.081.626-.062.379.035.76.034 1.141-.009.14-.016.286-.025.423-.003.638.104 1.272.221 1.921.27a6.4 6.4 0 0 0 1.371-.04c.199-.028.387-.01.579-.015.518-.016 1.032.228 1.55.016.101-.041.194.018.29.036.25.047.492.085.751.003a.95.95 0 0 1 .502 0c.155.04.302.042.457.044.603.008 1.201-.077 1.802-.101.116-.005.236-.013.332.042.253.144.522.121.787.091.791-.092 1.588-.052 2.367.025.608.061 1.212.031 1.815.058.378.017.751.071 1.128.089.608.03 1.21-.048 1.814-.07.317-.012.645-.016.947.021.368.045.729.065 1.09.02.198-.025.387-.037.586-.022.688.049 1.379.062 2.063.17.082.013.17.002.254-.005.521-.044 1.042-.088 1.562-.138a.858.858 0 0 1 .335.024c.315.095.635.122.962.077.653-.09 1.313.056 1.971-.071.269-.052.563-.029.838-.081.612-.115 1.235-.188 1.848-.138 1.034.083 2.073.072 3.105.215.889.123 1.79.17 2.688.225.393.024.763.152 1.159.175.93.054 1.863.063 2.789.173.167.02.353.041.505-.012.376-.132.749-.073 1.118-.019.292.043.571.108.874.049.247-.048.517-.057.758.02.209.066.421.093.625.078 1.058-.073 2.111 0 3.164.081.873.067 1.745-.039 2.624.037.595.052 1.211.079 1.787-.001.243.034.45-.038.661-.05.285-.016.446-.216.519-.438.075-.231.097-.495-.12-.708-.201-.186-.461-.311-.61-.569zM23.975 102.522c-.078.009-.18.024-.206-.084-.018-.076.046-.119.11-.155.096-.054.184-.126.283-.172.097-.046.161-.007.162.118-.044.175-.167.273-.349.293zm11.531-3.859a.437.437 0 0 1-.282.173c-.31.034-.596.157-.898.22-.772.16-1.517.394-2.19.816a.651.651 0 0 1-.309.112c-.422.035-.821.157-1.223.291-.244.082-.522.07-.746.137-.09-.009-.149-.007-.202-.022-.037-.01-.084-.038-.094-.068-.009-.026.019-.083.046-.1.119-.076.235-.172.367-.206.56-.144 1.076-.438 1.631-.552.486-.1.891-.42 1.394-.427.262-.223.641-.124.897-.296.277-.185.586-.176.874-.27.198-.064.413-.078.621-.104.087-.011.175.025.201.119.023.073-.041.122-.087.177zm32.433-7.627a1.104 1.104 0 0 1-.446.115c-.967.028-1.923.226-2.897.181-.304-.014-.581.172-.897.169-.223-.002-.448-.051-.672.005-.052.013-.114-.026-.137-.081-.035-.081.045-.098.087-.1.442-.021.816-.274 1.238-.359.095-.019.197-.003.328-.003.167.045.355-.047.55-.06.797-.054 1.592-.141 2.388-.209a.73.73 0 0 0 .275-.09c.119-.06.264-.083.325.071a.285.285 0 0 1-.142.361zm4.541-.441c-.056-.002-.117-.045-.113-.1.009-.122.106-.19.212-.207.058-.01.122.052.145.129-.05.104-.12.183-.244.178zm.8-.203c-.121.006-.214-.056-.206-.22.009-.17.189-.348.323-.329.168.025.342.203.319.344-.04.246-.245.182-.436.205zm18.433-2.753c-.147.069-.307.02-.46.047-.8.143-1.608.252-2.399.433-.374.085-.777.169-1.077.454-.126.12-.269.141-.43.123-.112-.013-.231-.047-.336-.022-.636.149-1.289.114-1.932.194-.582.072-1.163.157-1.746.22-.537.058-1.084.122-1.613.283-.415.127-.861.148-1.296.153-.917.01-1.819.098-2.691.402-.114.04-.223.016-.335.01-.157-.008-.313-.007-.451.083-.268.175-.576.106-.866.142-.09.011-.175-.033-.189-.131-.016-.113.082-.135.164-.154.355-.085.707-.189 1.067-.242.382-.057.622-.227.695-.619.059-.322.255-.437.585-.542.442-.14.902-.228 1.343-.326.619-.139 1.257-.329 1.918-.203l2.739-.093c.197-.007.398-.027.591.026.356.098.684.016 1.025-.092a8.375 8.375 0 0 1 2.531-.37c.341-.001.649.092.975.118.356.028.685-.12 1.034-.154.386-.038.76-.007 1.138.044.053.007.115.017.114.095 0 .064-.048.098-.098.121z"/>
  <path d="M112.479 46.777c.068.068.16.012.242.004.387-.04.717-.258 1.082-.35.732-.184 1.058-.759 1.231-1.368.156-.549.267-1.105.544-1.611.142-.259.238-.541.466-.751.685-.63 1.373-1.258 1.941-2.001a.604.604 0 0 1 .34-.217c.507-.151.944-.461 1.421-.682.327-.152.556-.432.816-.659.343-.299.712-.604.854-1.08.049-.163.188-.28.326-.382.117-.087.187-.024.214.09a.352.352 0 0 1-.005.206c-.126.303-.222.607-.162.942a.233.233 0 0 1-.04.161c-.312.42-.244.904-.259 1.381-.021.691-.049 1.386-.353 2.029-.073.155-.148.317-.149.482-.002.31-.194.548-.289.82-.08.228-.306.404-.094.672.023.029-.01.108-.027.16a4.534 4.534 0 0 0-.208 1.788.768.768 0 0 1-.089.452c-.082.139-.104.295-.122.447-.069.605-.287 1.17-.448 1.75-.033.12-.056.236-.064.365-.021.317-.03.668-.174.936-.253.471-.35.977-.425 1.479-.103.69-.254 1.372-.334 2.069-.096.836-.29 1.665-.493 2.484-.094.38-.14.772-.294 1.144-.081.195-.215.411-.162.647.076.336-.025.67.009 1.011.027.265-.146.537-.297.778-.027.044-.101.104-.131.094-.295-.102-.381.069-.457.304-.026.081-.134.14-.212.2a.825.825 0 0 0-.242.29c-.204.416.029.779.484.752.084-.005.167-.026.251-.038.059-.008.113.006.144.06a.15.15 0 0 1-.033.193.864.864 0 0 1-.411.207c-.381.065-.666.242-.872.591-.124.21-.341.378-.579.476a.6.6 0 0 0-.289.238c-.382.611-.962 1.024-1.489 1.487-.296.26-.478.595-.646.929-.182.362-.026.687.339.86.275.13.622.032.841-.272.1-.139.215-.26.322-.39.465-.566 1.023-1.043 1.524-1.575.188-.2.431-.371.75-.319.263.042.328.106.266.364-.05.21-.099.43-.049.628.07.28-.023.524-.078.779-.038.18-.084.358-.13.536-.135.52-.042 1.057-.122 1.58-.026.171-.028.34.019.501.083.283-.001.517-.143.761-.127.217-.254.453-.297.696-.116.66-.463 1.272-.383 1.978.026.226.001.441.161.632.163.194.2.414.145.674-.049.233-.177.456-.141.701.067.463.05.929.022 1.39-.029.482-.138.945-.649 1.185-.314.147-.33.336-.077.587.06.06.128.111.186.173.223.238.304.505.149.812-.105.209-.123.436-.125.661-.002.212-.03.413-.072.623-.076.379-.156.771.032 1.153.16.324.421.386.723.19.414-.269.585-.681.679-1.128.056-.271.149-.511.333-.713.3-.329.411-.745.461-1.16.035-.291.079-.58.124-.869.069-.444.02-.919.383-1.285.1-.101.14-.277.172-.427.039-.179.045-.367.12-.537.195-.446.233-.923.301-1.397.104-.726.091-1.464.241-2.184.078-.371.201-.741.116-1.074.007-.671-.004-1.287.17-1.888a.816.816 0 0 0 .023-.337c-.059-.406.162-.809.007-1.215.161-.26.151-.566.234-.847.036-.123.129-.173.258-.177a.758.758 0 0 1 .438.128c.239.148.49.262.773.328.243.057.5.097.726.2.467.213.906.488 1.418.594.041.008.098.018.115.047.147.252.425.286.656.339.337.077.628.205.889.424.063.053.149.08.227.113.333.143.686.253.997.432.406.234.889.239 1.279.575.361.31.885.426 1.321.656.325.171.692.248 1.005.412.512.267 1.05.457 1.576.684.452.195.903.406 1.29.718.332.267.339.343.046.637-.44.441-.804.943-1.188 1.43-.164.208-.258.474-.474.638-.2.152-.308.36-.43.565-.278.467-.473.98-.862 1.387-.392.411-.459.95-.446 1.496.004.18.083.348.236.422.166.08.341-.011.461-.136.224-.234.464-.453.658-.717.141-.191.291-.396.485-.525.261-.174.515-.326.598-.654a.237.237 0 0 1 .105-.129c.458-.267.748-.725 1.173-1.029.436-.312.709-.769.949-1.217.18-.335.45-.57.666-.86.116-.155.424-.211.58-.106.358.239.766.34 1.168.455.123.035.233.095.348.132.34.107.617.351.943.449.307.092.452.318.648.508.107.104.08.205-.072.25-.42.125-.709.454-1.057.69-.167.113-.165.35-.004.476.154.122.284.282.451.374.505.279.886.667 1.168 1.167.126.224.28.274.494.132.184-.122.368-.126.565-.119.17.006.34.012.509.028.295.028.518-.109.714-.305.059-.06.099-.139.158-.199.191-.198.378-.186.563.028.082.095.156.19.268.263.25.162.288.315.206.618-.061.225.061.519.278.619.215.1.285-.117.406-.216a.481.481 0 0 0 .112-.126c.172-.295.374-.56.672-.74.022-.013.037-.043.05-.067.279-.503.606-.984.817-1.519.081-.206.179-.455.019-.692-.363-.535-.804-.648-1.385-.354a1 1 0 0 1-.806.06c-.376-.133-.539-.43-.568-.811-.01-.127.009-.256-.003-.382-.021-.225-.173-.364-.39-.348-.168.012-.363.003-.497.083-.454.271-.849.052-1.228-.135-.563-.278-1.088-.621-1.731-.725-.237-.038-.535-.124-.553-.486-.014-.27-.081-.307-.344-.223-.107.034-.205.094-.309.139-.079.035-.159.053-.245.017-.379-.159-.497-.541-.256-.881.088-.124.18-.259.33-.323.096-.041.158-.117.227-.187.492-.503 1.04-.945 1.555-1.423.46-.428.817-.929 1.214-1.402.161-.191.091-.512-.1-.639-.359-.238-.962-.188-1.295.093-.161.136-.301.291-.483.409-.505.327-.95.737-1.458 1.066-.593.384-.998.972-1.448 1.505-.235.278-.758.514-1.004.371-.197-.114-.421-.175-.601-.298-.593-.404-1.348-.513-1.87-1.042a.383.383 0 0 0-.228-.104c-.578-.066-1.021-.436-1.518-.683-.184-.091-.326-.248-.57-.224-.121.012-.284-.071-.376-.163-.255-.256-.59-.373-.889-.547-.21-.122-.442-.253-.711-.228-.223.021-.401-.075-.593-.18-.496-.271-.895-.702-1.497-.81-.213-.038-.468-.098-.67-.229-.791-.513-1.688-.741-2.586-.968a2.05 2.05 0 0 1-.577-.235c-.335-.205-.699-.362-1.055-.531-.429-.203-.847-.401-1.092-.856-.11-.203-.11-.356.038-.49.438-.399.86-.828 1.348-1.156.434-.292.861-.581 1.242-.939a.954.954 0 0 1 .238-.173c.338-.157.613-.388.857-.669.165-.189.333-.41.55-.513.48-.228.832-.688 1.397-.76.06-.008.112-.081.167-.125.983-.795 2.073-1.444 3.06-2.234a.825.825 0 0 1 .183-.104c.828-.363 1.558-.889 2.274-1.427a19.186 19.186 0 0 0 2.064-1.812c.089-.089.157-.195.262-.274.374-.282.705-.611.958-1.005.094-.146.2-.264.325-.379.26-.238.539-.481.632-.832.126-.476.441-.846.668-1.26.382-.696.775-1.214 1.005-2 .085-.292.283-.46.349-.966a.51.51 0 0 1 .151-.299c.084-.081.111-.187.155-.29.268-.625.158-1.168.394-1.806.044-.119.139-.4.189-.578.056-.198.16-.293.165-.436.016-.423.043-.868.066-1.287.025-.464.232-.787.533-1.15.136-.164.194-.413.514-.288.126.05.273-.074.325-.218.042-.116.096-.272-.047-.345-.215-.109-.298-.336-.478-.469-.174-.128-.394-.277-.19-.42.104-.073-.022-.323-.015-.458.005-.087.098-.186.139-.268.076-.156.003-.398-.15-.499-.32-.209-.429-.495-.627-.804-.155-.242-.271-.396-.234-.669.028-.207-.036-.431-.18-.552-.361-.301-.5-.724-.564-1.15-.05-.33-.192-.588-.38-.83-.333-.429-.761-.781-1.053-1.242-.167-.264-.486-.333-.662-.566-.346-.457-.827-.752-1.258-1.11-.314-.261-.698-.4-1.046-.519-.353-.12-.768-.261-1.15-.215-.451.054-.918-.002-1.355.156a.86.86 0 0 1-.287.064c-.364.005-.689.129-.994.318-.442.274-.938.44-1.403.667-.574.28-1.223.399-1.721.852-.138.125-.353.174-.541.233a1.01 1.01 0 0 0-.337.158c-.386.298-.773.588-1.119.937-.455.458-1.11.627-1.579 1.105-.356.363-.708.758-1.159 1.034-.146.089-.282.224-.412.35-.201.196-.479.368-.573.609-.163.418-.462.7-.76.992-.302.295-.606.58-.862.923-.192.257-.365.531-.585.773-.376.412-.701.87-1.056 1.302-.251.304-.449.647-.694.953-.36.449-.788.845-1.035 1.379-.102.22-.244.403-.454.538-.103.066-.172.186-.254.283-.208.245-.393.505-.692.666-.181.097-.34.269-.369.496-.038.293-.221.483-.432.653a2.48 2.48 0 0 0-.334.322c-.22.259-.382.544-.284.888.096.369.378.636.645.902zm5.431 22.613a3.882 3.882 0 0 0-.114.738c-.036.529-.061 1.062-.255 1.567-.096.25-.186.502-.345.721-.049.067-.105.144-.203.128-.097-.016-.139-.096-.148-.184-.038-.361-.145-.687-.432-.933-.045-.038-.05-.112-.019-.158.215-.319.176-.778.567-1.003.137-.079.176-.247.246-.387.119-.239.262-.466.394-.699.048-.085.084-.194.215-.145.098.037.085.135.096.217.001.029-.002.057-.002.138zm20.567 5.67c.156-.003.318.207.268.351-.021.062-.074.08-.133.062-.077-.023-.214-.245-.213-.334.007-.046.029-.078.078-.079zm-13.743-41.895c.107.002.185.098.193.235a.306.306 0 0 1-.284.308c-.155.005-.17-.131-.186-.232-.023-.152.135-.314.277-.311zm-1.803 7.251a1.49 1.49 0 0 1 .089-.312c.279-.745.623-1.473.695-2.278a1.27 1.27 0 0 0-.65-1.261c-.227-.133-.251-.371-.032-.538.137-.105.243-.232.358-.353.124-.132.361-.257.319-.454-.052-.242.331-.579.587-.805a.402.402 0 0 1 .318-.09c.412.04.778-.119 1.134-.28.322-.146.642-.29.981-.39a1.03 1.03 0 0 0 .517-.348c.279-.341.293-.708.033-1.074-.187-.263-.124-.443.183-.559.365-.138.74-.246 1.07-.473.156-.107.369-.129.556-.19.107-.035.224-.053.321-.107a1.727 1.727 0 0 1 1.083-.215c.063.008.135-.03.199-.057a1.03 1.03 0 0 1 .623-.076c.43.091.906.054 1.256.401.02.019.046.043.071.045.721.049.93.763 1.427 1.107.188.131.061.459-.171.523-.067.018-.165-.001-.203.039-.319.346-.672.144-1.014.071-.205-.044-.403-.127-.609-.162-.388-.065-.717.124-1.032.306-.223.129-.252.378-.085.54.182.176.436.293.658.318.51.058 1.004.197 1.523.233.477.033.85.405 1.11.825.075.121.161.231.241.347.129.188.304.236.516.174.095-.028.189-.058.285-.082.144-.037.259 0 .294.156.102.448.327.867.317 1.34 0 .245-.017.483-.19.679-.08.091-.093.203-.081.32.041.394.135.784.285 1.14.1.237.149.439.098.684-.031.15-.027.308-.034.463-.004.095.045.162.135.192.078.027.131-.014.181-.072.045-.053.092-.11.151-.144.201-.115.34-.034.307.199-.04.278-.106.553-.189.822a1.25 1.25 0 0 0-.048.458c.011.17.007.339-.088.492-.102.164-.117.352-.099.534.04.405-.139.762-.237 1.132-.136.514-.398 1.002-.478 1.521-.101.655-.426 1.183-.731 1.736-.107.193-.175.408-.277.604-.24.461-.483.92-.881 1.274-.144.129-.31.212-.5.181-.594-.095-.903.282-1.152.713-.343.592-.791 1.087-1.3 1.534-.317.278-.572.614-.893.893a5.588 5.588 0 0 1-1.411.907c-.135.06-.225.15-.331.244-.439.39-.797.874-1.33 1.161-.292.157-.482.431-.699.672-.198.22-.405.319-.711.218-.435-.144-.783.054-1.11.332a27.393 27.393 0 0 0-1.806 1.65c-.422.431-.84.866-1.251 1.307-.198.213-.456.334-.699.466-.187.101-.38.173-.518.346a.394.394 0 0 1-.165.131c-.195.065-.403.252-.594.125-.185-.123-.073-.362-.04-.549.146-.832.296-1.663.446-2.494.168-.935.344-1.871.557-2.795.168-.728.275-1.464.416-2.194.157-.814.363-1.617.506-2.435.087-.494.185-.992.305-1.482.028-.115.017-.224.018-.334.002-.185.008-.361.106-.53.086-.148.102-.324.115-.493.049-.615.167-1.22.268-1.826.105-.633.379-1.22.542-1.839.194-.75.321-1.506.439-2.264zm-3.985-1.916c.345-.437.507-1.013.985-1.342.281-.194.528-.415.743-.677.114-.14.212-.296.34-.421.163-.159.258-.149.389.053.06.092.158.112.219.189.088.113.114.234.039.353-.428.673-.851 1.348-1.628 1.694-.174.078-.315.236-.461.368-.109.099-.217.18-.34.174-.283-.006-.43-.209-.286-.391z"/>
  <path d="M12.484 78.101c.225.23.448.469.755.603a.534.534 0 0 1 .188.167c.142.182.328.295.535.389.333.152.69.281.95.544.186.189.396.327.632.406.468.157.86.461 1.313.643.314.126.633.261.97.267.384.007.731.162 1.097.233.304.058.6.131.914.132.237.001.502-.01.705.087.462.222.962.285 1.445.4.791.188 1.598.131 2.393-.035a9.05 9.05 0 0 1 1.674-.203c.675-.012 1.316-.132 1.904-.444.282-.15.5-.14.777-.024.362.153.717.133.999-.203.127-.151.278-.281.41-.428.217-.241.455-.448.756-.582.143-.064.191-.036.243.106.08.221.023.432-.055.619-.129.311-.163.63-.161.954.002.276-.062.535-.154.786-.216.589-.398 1.188-.645 1.768-.187.438-.452.843-.577 1.309-.016.061-.082.115-.135.16-.553.48-1.019 1.041-1.489 1.599a.795.795 0 0 0-.202.543c.003.124.039.277-.059.367-.268.248-.242.552-.212.867.021.213.024.414-.2.557a.306.306 0 0 0-.114.344c.077.199.073.41.133.613.069.229.195.248.369.247.115-.001.215-.055.317-.109.386-.203.797-.344 1.205-.497.262-.098.469.002.551.153.199.364.53.575.817.836.46.419.951.771 1.611.829a.984.984 0 0 0 .731-.228c.213-.167.138-.7-.099-.702-.408-.003-.678-.192-.935-.456-.018-.019-.053-.019-.077-.033-.416-.239-.63-.67-.95-1.001a.134.134 0 0 1-.03-.078c-.026-.344.234-.673.054-1.03-.015-.029.05-.096.072-.148a3.42 3.42 0 0 1 .206-.416c.168-.282.293-.611.254-.922-.072-.57.116-1.078.285-1.587.08-.241.141-.447.053-.687-.086-.237-.006-.418.163-.606.359-.401.62-.873.749-1.394.099-.402.16-.831-.215-1.165-.127-.113-.114-.244-.092-.417.033-.26.08-.515.151-.765.083-.294.186-.582.278-.873.26-.823.951-1.267 1.593-1.723.582-.414 1.175-.799 1.69-1.305.254-.25.514-.501.78-.741.38-.343.714-.721.979-1.152.257-.418.556-.798.884-1.158.183-.201.331-.416.366-.699.012-.094.094-.18-.038-.249-.097-.051-.169-.11-.307-.059-.256.094-.495.271-.747.31-.353.054-.535.278-.667.524-.153.284-.368.495-.582.718-.176.183-.374.349-.521.552-.446.616-1.067 1.04-1.626 1.532-.061.053-.149.078-.227.109-.206.081-.306.017-.253-.2.101-.408.179-.838.374-1.202.388-.724.666-1.484.906-2.262.101-.326.222-.636.454-.887.438-.473.676-1.111 1.233-1.486a.216.216 0 0 0 .054-.065c.347-.562.717-1.11 1.028-1.691.148-.278.298-.599.26-.927-.044-.375.058-.73.105-1.086.047-.36.083-.729.247-1.087.303-.662.519-1.364.76-2.054a.591.591 0 0 1 .217-.299c.298-.222.309-.498.074-.775-.202-.237-.51-.264-.75-.432-.532-.373-1.102-.242-1.583.073-.386.253-.759.529-1.151.778-.141.09-.275.204-.38.333-.155.19-.347.331-.54.473-.473.348-1.008.61-1.432 1.027-.313.308-.761.46-1.027.8-.266.341-.621.566-.924.856-.142.136-.3.259-.396.429-.172.303-.424.528-.697.722a4.79 4.79 0 0 0-.725.644c-.287.307-.653.527-.903.879a.481.481 0 0 1-.526.198c-.243-.07-.407.046-.534.24-.062.095-.136.183-.186.283-.161.324-.415.557-.698.775-.266.205-.533.416-.74.688-.327.43-.586.926-1.115 1.165-.061.028-.107.092-.154.144-.33.363-.666.72-.985 1.092-.365.427-.732.847-1.211 1.156-.231.149-.306.658-.169.941.129.268.383.394.715.296.364-.107.719-.255.955-.583.192-.267.419-.49.732-.619.268-.111.471-.315.625-.55.115-.175.266-.283.43-.396.267-.183.557-.356.722-.642.145-.252.344-.446.552-.634.231-.209.447-.429.652-.664.249-.285.502-.578.779-.825.233-.208.425-.439.634-.663.218-.233.378-.511.631-.719.718-.59 1.313-1.31 2.002-1.931.415-.374.7-.895 1.253-1.114.201-.08.362-.219.524-.355.152-.128.304-.261.497-.31.145-.036.287-.31.43-.087.116.182-.132.28-.234.399-.203.238-.468.475-.464.786.005.388-.115.717-.256 1.056-.038.09-.066.188-.08.285-.04.288.156.477.453.446.347-.036.553.218.459.552-.062.221-.187.407-.292.606-.104.196-.278.351-.315.589-.077.485-.208.951-.526 1.346-.139.173-.202.399-.399.539-.068.048-.112.174-.114.266-.006.335-.247.493-.475.656-.15.107-.334.189-.417.352-.188.368-.468.665-.701.998-.161.23-.451.374-.504.662-.039.213-.154.361-.279.507-.573.667-.959 1.435-1.238 2.262-.042.123-.083.269.108.298.231.035.148.153.083.264-.056.097-.116.21-.225.247-.481.166-.945.428-1.477.098-.324-.201-.711.073-.733.466-.007.117.024.223.042.333.049.31-.046.484-.346.574-.136.041-.273.066-.387.16a.443.443 0 0 1-.402.077 1.04 1.04 0 0 0-.334-.016c-.408.035-.806.13-1.213.175-.245.027-.475-.054-.713-.01-.462.084-.922.051-1.386-.022-.358-.056-.709-.13-1.087-.116-.569.021-1.148-.112-1.692-.249-.454-.114-.907-.27-1.371-.38-.392-.093-.771-.245-1.165-.324a2.046 2.046 0 0 1-.839-.361c-.199-.149-.438-.191-.645-.315-.113-.067-.268-.025-.402-.097-.565-.302-1.029-.736-1.503-1.151-.366-.321-.699-.678-1.132-.911a.786.786 0 0 1-.23-.181c-.429-.503-.976-.882-1.419-1.372-.329-.364-.715-.678-.836-1.19-.024-.103-.111-.194-.174-.286-.241-.348-.491-.689-.537-1.134-.011-.107-.086-.207-.134-.31-.174-.376-.458-.719-.35-1.181a.228.228 0 0 0-.031-.163c-.149-.218-.155-.474-.223-.715a6.322 6.322 0 0 1-.204-2.167c.035-.508-.054-1.013.033-1.518a.903.903 0 0 0-.031-.503.248.248 0 0 1 .007-.203c.267-.619.213-1.346.644-1.91.031-.04.032-.106.038-.161.03-.275.15-.507.319-.723.226-.288.472-.57.571-.931.167-.609.554-1.11.854-1.641.438-.778 1.083-1.43 1.659-2.12a.32.32 0 0 1 .347-.109c.287.1.46.017.541-.275a.214.214 0 0 1 .076-.101c.333-.246.394-.563.249-.936a.277.277 0 0 1 .036-.282c.138-.176.258-.373.469-.479.291-.146.467-.381.598-.681.128-.295.143-.63.357-.894.301-.372.548-.785.895-1.122.178-.172.354-.324.623-.297.101.01.242.009.26-.09.054-.299.313-.422.482-.619.103-.121.128-.227.074-.384-.084-.241-.063-.26.187-.25.308.012.584-.041.803-.286.282-.316.568-.63.868-.928.323-.321.609-.712 1.139-.706.279.003.522-.189.821-.133.189.035.342-.139.392-.367.03-.137.043-.278.08-.413a.703.703 0 0 1 .361-.447c.316-.165.341-.153.412.203.011.056.018.109.058.153.187.208.303.438.244.731-.01.05.015.111.035.164.054.144.136.215.283.095.465-.381 1.003-.677 1.377-1.165.228-.298.549-.481.843-.694.218-.158.287-.122.435.124.036.06.078.118.126.168.481.505.934 1.023 1.269 1.649.141.262.268.487.204.789.046.529.085 1.064.143 1.596.015.135.074.274.144.393.214.363.766.428 1.078.151.462-.409.643-.972.722-1.533.103-.733.071-1.484.122-2.225.038-.56.017-1.12.035-1.68.021-.642.068-1.288-.215-1.896a.254.254 0 0 1-.025-.081c-.069-.68-.334-1.258-.863-1.709-.409-.349-.835-.653-1.375-.781-.323-.077-.65-.165-.829-.518-.146-.289-.302-.286-.49-.028-.1.137-.189.277-.33.381-.361.266-.735.516-1.052.838a.762.762 0 0 1-.41.204c-.068.013-.166.008-.198.051-.274.363-.655.555-1.068.704a.297.297 0 0 0-.102.075c-.261.271-.56.495-.847.735-.209.175-.472.317-.537.62-.054.249-.238.357-.456.433-.158.055-.37.069-.461.18-.255.312-.616.494-.885.762-.55.547-1.177 1.031-1.606 1.695a.866.866 0 0 1-.38.327c-.773.342-1.292.986-1.854 1.569a5.42 5.42 0 0 1-.752.661c-.269.188-.573.393-.914.489-.08.022-.176.05-.227.109-.28.325-.617.567-.99.778-.291.164-.257.345.05.504.215.112.262.21.185.433a1.237 1.237 0 0 1-.139.261 11.753 11.753 0 0 1-1.648 2.02c-.122.119-.245.24-.284.414-.044.197-.156.36-.243.536-.134.272-.377.5-.345.842.007.075-.072.114-.111.17-.21.299-.478.582-.593.916a1.897 1.897 0 0 1-.428.705c-.115.125-.213.281-.202.456.015.231-.082.413-.211.579-.262.338-.468.698-.536 1.129a.671.671 0 0 1-.151.347c-.323.362-.422.823-.569 1.263-.04.119.015.258-.07.369-.158.209-.147.445-.126.689.028.322.058.639-.13.944-.111.179-.083.41-.067.623.012.155.037.312.023.465-.055.605-.039 1.204.005 1.812.043.488.132.97.123 1.465-.008.473.063.965.197 1.42.154.522.409 1.015.587 1.533.05.145.114.297.212.411.118.139.158.292.192.459.102.497.292.95.619 1.351.214.262.42.527.674.755.186.168.388.35.491.569.143.304.404.48.64.653.408.3.82.586 1.177.95zm23.37-13.214c.21-.245.304-.595.706-.667.206-.037.393-.202.579-.324a.336.336 0 0 1 .279-.042c.067.015.095.063.043.117-.107.11-.205.257-.356.287-.35.07-.536.33-.739.575-.11.134-.232.241-.387.258-.147-.029-.22-.093-.125-.204zm-3.467 10.469c.041-.186.175-.32.279-.468.067-.096.036-.242.2-.297.223-.075.286-.053.276.182-.015.312-.193.552-.359.794-.055.08-.135.164-.247.107-.126-.064-.18-.176-.149-.318zm-.795 1.869c.077-.333.232-.632.411-.921.065-.105.102-.198.253-.123.127.063.228.126.166.26-.027.221-.141.427-.194.63-.051.195-.039.388-.112.574-.043.111-.107.161-.226.115-.144-.055-.334-.38-.298-.535zm-1.146.131c.06-.255.312-.392.378-.643.02-.076.119-.054.181-.073.15-.01.228.146.109.297-.155.197-.205.47-.418.613-.1.067-.107.299-.245.221-.173-.096-.039-.271-.005-.415zM28.6 46.98c.356.021.454.098.465.447.003.099 0 .197 0 .296-.021.348-.002.697-.112 1.036-.049.15-.074.306-.277.32-.194.013-.402-.02-.479-.192-.107-.238-.304-.398-.437-.61-.237-.379-.215-.629.132-.911.211-.17.381-.405.708-.386zm-2.835-2.858c-.005-.122.052-.172.176-.18.28-.019.559-.052.839-.079.286-.017.561.042.833.119.165.046.235.189.113.305-.24.231-.437.507-.719.694-.068.045-.117.026-.187-.01-.223-.115-.445-.208-.716-.101-.139.055-.276.013-.32-.215-.036-.184-.012-.356-.019-.533zm-3.976 3.077c.07-.211.039-.458.336-.577.191-.077.349-.281.444-.494.071-.159.184-.252.351-.335.39-.193.762-.424 1.052-.766.062-.073.122-.159.201-.212.124-.084.28-.118.386.007.109.127.053.266-.07.368-.445.371-.859.777-1.378 1.056a.952.952 0 0 0-.453.526c-.101.282-.521.594-.743.588-.082-.007-.156-.07-.126-.161zm-5.827 5.577c.177-.347.522-.533.771-.811.02-.023.054-.003.067.029 0 .013.005.033-.001.038-.247.213-.276.585-.562.768a1.27 1.27 0 0 1-.182.097c-.021.009-.057 0-.077-.013-.04-.027-.037-.066-.016-.108z"/>
  <path d="M169.697 60.089c.157-.135.329-.264.402-.481.32-.946.629-1.895.909-2.854.172-.59.296-1.222.76-1.692.203-.206.337-.443.3-.75-.006-.051.011-.123.045-.158.208-.218.2-.494.198-.76a2.517 2.517 0 0 1 .313-1.201c.124-.235.223-.486.364-.709.144-.227.092-.493.201-.729.272-.586.476-1.196.557-1.845.046-.372.187-.723.23-1.104.035-.309.177-.625.175-.94-.002-.336.086-.646.181-.95.069-.222.083-.437.103-.661.047-.545-.023-1.094.099-1.637.141-.629.349-1.244.408-1.892.031-.337.079-.674.154-1.004.048-.212.08-.419.024-.623-.059-.216-.024-.418.025-.623a10.57 10.57 0 0 0 .287-1.837c.027-.479.083-.956.147-1.425.074-.546.043-1.095.135-1.638.045-.263.057-.532.143-.789.088-.264.196-.517.232-.803.043-.345.303-.603.61-.705.476-.158.739-.529 1.051-.862.119-.127.091-.258-.003-.383-.105-.14-.242-.134-.379-.063-.125.064-.24.148-.363.216-.319.177-.44.11-.434-.244a.925.925 0 0 1 .038-.251c.216-.726.326-1.486.704-2.16a.864.864 0 0 0 .1-.322c.057-.526.214-.994.54-1.435.586-.792 1.021-1.674 1.366-2.601.166-.444.435-.851.605-1.287.166-.427.534-.755.569-1.242a.58.58 0 0 1 .178-.374c.124-.118.17-.29.199-.459a3.67 3.67 0 0 1 .226-.718c.133-.339.321-.652.44-1.001.078-.23.075-.489.221-.7.354-.512.57-1.099.873-1.64.238-.424.385-.905.721-1.268.38-.41.595-.882.648-1.437a.72.72 0 0 1 .158-.389c.184-.226.255-.487.316-.769.064-.295.015-.642.23-.879.235-.26.353-.573.502-.874.2-.408.153-.669-.172-.971a.812.812 0 0 1-.137-.156c-.046-.072-.084-.157-.026-.237.06-.081.143-.077.225-.027.143.087.275.035.398-.041.166-.103.179-.244.045-.388-.308-.332-1.208-.452-1.534-.145-.23.217-.509.34-.74.528-.274.222-.591.312-.882.453-.107.052-.233-.05-.323-.136-.093-.09-.051-.179.001-.268a.645.645 0 0 0 .051-.566c-.057-.179-.107-.418.079-.55.218-.155.42-.314.597-.518.081-.094.201-.19.365-.186.23.006.344-.152.428-.348.287-.67.654-1.275 1.32-1.646a.992.992 0 0 0 .299-.296.895.895 0 0 1 .491-.37c.138-.04.249-.132.357-.224.353-.296.698-.602 1.061-.885.208-.162.413-.33.689-.394.401-.093.632-.439.925-.691.063-.054.051-.146.054-.234.012-.319-.109-.628-.057-.947.029-.179-.067-.221-.225-.204-.103.011-.926.457-1.026.57-.028.031-.042.076-.073.103-.063.055-.127.117-.202.149a1.668 1.668 0 0 0-.763.64.747.747 0 0 1-.429.327c-.393.109-.642.378-.878.681-.112.144-.185.326-.346.425-.305.187-.469.51-.726.74-.341.305-.583.714-.996.945-.182.102-.407.12-.548.303-.061.079-.154.018-.237.009-.24-.026-.484-.041-.68.14-.206.19-.425.373-.547.632-.053.112-.107.173-.239.197-.295.053-.563.155-.633.509-.018.089-.112.158-.175.233-.386.465-.811.9-1.062 1.465a1.385 1.385 0 0 0-.086.828c.057.319.378.442.643.264.046-.031.078-.084.126-.109.079-.041.164-.045.236.021.078.071.05.152.016.232-.054.124-.167.196-.268.266-.211.146-.323.346-.392.582-.095.324.012.475.348.489.426.018.512.094.434.511-.093.497-.266.979-.322 1.483-.043.381-.239.729-.246 1.109-.01.511-.178.996-.209 1.502a.94.94 0 0 1-.079.285c-.18.456-.294.938-.395 1.408a19.704 19.704 0 0 1-.399 1.632c-.261.86-.537 1.717-.819 2.571-.123.371-.329.721-.406 1.099a5.13 5.13 0 0 1-.571 1.489c-.281.494-.402 1.038-.637 1.544-.239.514-.317 1.101-.491 1.648-.124.389-.267.766-.255 1.186a2.22 2.22 0 0 1-.24 1.066c-.186.362-.29.717-.331 1.116-.085.823-.162 1.644-.153 2.472.004.346.036.687-.124 1.023-.176.37-.286.765-.096 1.177.021.045.002.112-.006.167-.067.469-.104.939-.141 1.411a16.14 16.14 0 0 1-.408 2.498c-.102.423-.291.82-.218 1.271a.212.212 0 0 1-.024.123c-.261.483-.385 1.01-.529 1.534-.168.612-.223 1.244-.359 1.862-.098.445-.047.919-.097 1.381-.041.383-.091.778-.022 1.176.074.433.034.907-.126 1.287-.274.648-.322 1.377-.724 1.974-.045.067-.056.158-.083.238-.114.345-.2.702-.348 1.031-.268.593-.673 1.123-.819 1.775a.57.57 0 0 1-.102.23c-.292.368-.434.816-.657 1.22a1.145 1.145 0 0 0-.151.569c.004.29-.07.577-.178.821-.247.556-.325 1.134-.379 1.814 0-.018.011.054-.002.123-.074.388.176.635.395.887.122.145.313.169.457.045zm12.277-49.027c.172-.143.363-.255.585-.303.068-.015.139-.019.205-.04.087-.027.162-.131.266-.037.102.093.071.202.038.313-.135.45-.351.65-.711.66-.174.005-.406-.143-.471-.294-.054-.126-.003-.222.088-.299zm-2.436 10.104c.023-.105.264-.526.268-.965.003-.344.212-.759.227-.856.074-.5.279-.966.368-1.461.032-.178.08-.359.297-.328.202.03.23.22.235.455a1.717 1.717 0 0 1-.237.695c-.157.267-.307.522-.351.843-.023.168-.155.324-.246.48-.008.014-.196.216-.207.463-.011.225-.307.549-.312 1.056-.003.344-.195.393-.254.372-.189-.2.165-.507.212-.754zm-1.236 3.104c.041-.158.057-.317.173-.465.143-.183.216-.421.325-.632a.113.113 0 0 1 .143-.057c.04.014.073.043.075.095-.232.307-.109.701-.239 1.039-.053.137-.136.207-.27.231-.161.027-.248-.049-.207-.211z"/>
  <path d="M162.804 66.362c.492-.026.591.281.67.643.015.069.018.14.034.209.154.646.394.864 1.058.964.07.011.141.01.211.022.083.015.169.028.247.059.229.092.274.279.095.449-.155.147-.283.314-.42.475-.118.139-.229.285-.401.373-.468.24-.818.635-1.203.976-.321.285-.573.651-.875.967-.19.199-.38.402-.534.647-.227.362-.347.761-.521 1.14-.11.239-.04.441.133.616.139.14.295.263.428.408.347.378.805.448 1.272.431.295-.011.591-.051.888-.059.504-.014 1.009-.01 1.49-.202.13-.052.286-.117.393.018.119.148.077.319-.014.475-.021.037-.052.068-.072.105-.256.468-.568.916-.75 1.411-.196.531-.408 1.067-.483 1.638-.035.266-.033.545-.117.795-.255.759-.188 1.53-.141 2.302.027.439.233.599.676.66.321.045.583-.042.783-.305.135-.178.249-.388.422-.518.345-.261.589-.586.781-.965.089-.175.186-.348.277-.521.188-.357.387-.725.334-1.186 0-.071.005-.17-.001-.269-.008-.127-.019-.29-.153-.316-.147-.029-.246.107-.314.234-.02.037-.015.088-.038.121-.274.389-.415.865-.785 1.189-.073.064-.137.161-.249.121-.115-.042-.102-.162-.105-.256-.025-.685.198-1.331.322-1.992.007-.036.054-.063.078-.097.38-.532.587-1.153.803-1.754.194-.539.568-.966.766-1.491.005-.013.016-.023.024-.035.321-.45.869-.614 1.247-.993.026-.026.08-.038.12-.035.202.014.37-.098.498-.209.309-.269.681-.37 1.051-.498.209-.072.364-.061.547.075.631.468 1.04 1.12 1.468 1.753.144.212.261.478.499.55.377.115.738.376 1.172.222.048-.017.113.001.167.015.225.058.407-.016.593-.145.158-.11.273-.241.36-.405.06-.113.245-.171.14-.354-.078-.135-.138-.279-.29-.352-.143-.069-.291-.123-.449-.101-.354.05-.605-.115-.782-.39a6.733 6.733 0 0 0-1.355-1.541c-.161-.135-.18-.28-.019-.376.326-.193.587-.49.921-.645.37-.172.702-.399 1.056-.584a9.885 9.885 0 0 0 1.75-1.138c.483-.399.97-.815 1.502-1.161.081-.053.151-.128.216-.202.349-.399.719-.777 1.011-1.23.303-.47.335-1.164-.013-1.617-.35-.455-.893-.738-1.144-1.284-.015-.032-.07-.044-.105-.068a1.22 1.22 0 0 0-1.21-.084c-.443.209-.911.176-1.348.322-.112.037-.193.006-.261-.079-.082-.103-.092-.24-.001-.309.179-.135.242-.342.366-.508.348-.464.797-.834 1.156-1.287.138-.173.289-.35.495-.456.074-.038.155-.101.237-.047.084.056.056.15.034.233a.857.857 0 0 1-.04.121c-.115.259-.044.531-.053.797-.004.121.084.171.173.217.126.064.184-.029.23-.117.05-.095.139-.136.218-.195a1.51 1.51 0 0 0 .491-.629c.166-.39.357-.759.656-1.067a.587.587 0 0 0 .164-.291 8.55 8.55 0 0 0 .179-1.62c.004-.241-.105-.363-.308-.442-.417-.162-1.041.06-1.214.476-.188.453-.51.735-.96.869-.271.08-.424.238-.537.489-.132.295-.347.58-.598.74-.358.228-.596.552-.892.827-.229.214-.435.444-.501.765-.019.091-.086.133-.151.191-.421.375-.784.816-1.115 1.259-.25.334-.572.597-.803.941-.026.039-.097.069-.146.068-.613-.012-1.21.042-1.734.408-.438-.042-.704.234-.966.519-.382.415-.793.806-1.299 1.055-.304.149-.609.283-.862.511a.34.34 0 0 1-.395.057c-.466-.218-.933-.453-1.287-.83-.35-.372-.768-.594-1.236-.768-.442-.164-.894-.23-1.357-.277-.183-.019-.351-.106-.511.055-.128.129-.3.21-.391.381a.373.373 0 0 0-.038.244c.048.287.375.707.645.692zm8.06 2.481c.304-.286.509-.632.706-.989a.77.77 0 0 1 .147-.206c.446-.395.698-.949 1.126-1.357.279-.266.362-.659.637-.937.377-.38 1.162-.773 1.682-.78.265.013.52.157.79.09.53-.131 1.012.067 1.51.188.212.052.339.204.46.343.108.124.124.31-.002.47-.338.432-.67.86-1.147 1.165a5.107 5.107 0 0 0-.936.788c-.154.162-.32.286-.515.344-.17.051-.306.135-.435.241-.34.278-.751.434-1.122.658-.561.34-1.127.674-1.704.987-.57.31-1.088.116-1.35-.472-.099-.224.018-.406.153-.533zm-1.257 2.165c-.047.094-.371.317-.398.229-.027-.088.019-.418.173-.512.134-.081.273.189.225.283zm-.306-3.184c.142-.024.071.401 0 .472-.071.071-.189 0-.259-.189-.035-.091.117-.26.259-.283zm-3.264 2.093c.292-.184.526-.413.757-.66.298-.319.705-.353 1.057-.097.17.124.316.288.499.387.221.12.172.247.057.387-.329.403-.549.875-.819 1.314-.197.321-.409.633-.603.956-.186.311-.516.458-.834.609-.265.125-.548.22-.777.415a.357.357 0 0 1-.186.09c-.42.032-.841.05-1.25.165-.25-.105-.499.018-.749.001-.382-.026-.45-.156-.327-.507.165-.472.571-.714.894-1.042.419-.427.945-.734 1.303-1.232.246-.344.626-.564.978-.786z"/>
  <path d="M65.981 53.283c.124.124.47.146.677.018.46-.283.881-.609 1.03-1.166.039-.145.129-.237.224-.345.452-.512 1.041-.85 1.568-1.267.131-.104.29-.173.439-.254.115-.063.215-.052.291.068.038.06.081.116.125.171.23.291.272.309.584.103.283-.187.572-.263.915-.235.347.029.415-.047.537-.385.067-.186.195-.227.355-.118.135.091.147.227.159.372.028.333-.088.642-.169.952-.107.41-.077.838-.201 1.244a3.678 3.678 0 0 1-.916 1.539c-.326.328-.606.695-.958 1.004-.3.264-.564.62-.359 1.075.115.255.024.434-.186.526-.431.188-.6.586-.794.95-.18.338-.047.675.395.725.349.04.661-.01.942-.259.192-.169.36-.086.367.163.008.26.075.544-.18.749-.094.076-.095.2-.117.311-.045.236-.127.46-.201.688a8.99 8.99 0 0 0-.316 1.349c-.033.209-.047.424-.12.62-.175.466-.168.975-.352 1.437a.39.39 0 0 0-.002.255c-.016.265.058.528.065.795.009.392.226.685.429.99.053.079.117.103.205.124.404.094.637.006.86-.346.193-.305.273-.632.25-.999-.013-.216-.051-.364-.284-.381-.245-.018-.3-.181-.305-.379a1.254 1.254 0 0 1 .026-.378.988.988 0 0 0 .015-.582c-.017-.054-.051-.111-.019-.161.225-.351.225-.785.428-1.142.099-.176.158-.356.183-.557.051-.405.12-.801.273-1.19.1-.255.239-.519.261-.79.023-.281.09-.557.091-.84.001-.248.128-.46.222-.679a.203.203 0 0 1 .204-.128c.117.011.095.12.102.199.007.084.014.17.007.254-.066.729-.147 1.455-.353 2.164-.075.259-.204.549.054.797.063.061.082.201.222.128.099-.052.216-.087.227-.225.004-.056-.004-.113-.002-.17.014-.3.078-.59.214-.856.093-.181.159-.362.149-.565-.022-.426.054-.835.174-1.241.039-.133.051-.28.05-.42-.001-.426.197-.744.49-1.037.294-.294.671-.452.996-.688.345-.251.749-.374 1.099-.608.337-.225.691-.426 1.045-.625.753-.423 1.37-1.085 2.253-1.282.039-.009.071-.045.107-.067.604-.371 1.283-.573 1.931-.842.296-.123.553-.278.777-.497.19-.185.212-.569.06-.823-.123-.206-.468-.351-.703-.257-.665.265-1.407.315-2.025.707-.213.135-.493.134-.669.324-.093.1-.162.162-.313.15-.12-.009-.237.073-.34.153-.289.223-.579.445-.828.713-.046.05-.07.112-.149.137-.701.227-1.314.618-1.912 1.034-.224.155-.497.182-.73.322-.085.051-.289.037-.349-.02-.06-.057.024-.155.039-.267.016-.115-.053-.181-.008-.291.139-.335.187-.913.259-1.321.032-.181-.007-.329-.008-.543 0-.079.078-.142.079-.22.002-.196.052-.385-.016-.543-.106-.247.131-.16.346-.183.336-.036.44-.149.386-.466-.073-.435.019-.8.19-1.211.267-.642.371-1.346.614-2.008.125-.34.385-.593.655-.807.265-.209.545-.395.826-.582.476-.317.897-.708 1.43-.948.526-.237 1.012-.562 1.583-.699.142-.034.248-.121.354-.219.143-.131.28-.315.482-.316.289-.001.507-.156.745-.268a.554.554 0 0 1 .234-.071 1.87 1.87 0 0 0 1.135-.406c.12-.095.264-.135.408-.188.379-.139.791-.201 1.123-.468.149-.12.321-.266.518-.271.386-.01.657-.225.937-.442.239-.185.504-.341.813-.292.397.063.751-.033 1.111-.179.221-.09.46-.168.695-.182.382-.021.613-.219.83-.504.113-.148.154-.271.065-.416-.085-.14-.168-.303-.378-.289-.562.037-1.139.023-1.668.233-.32.127-.637.222-.974.229-.265.006-.416.281-.636.284-.488.008-.803.376-1.218.532-.372.139-.745.304-1.124.443-.419.154-.882.207-1.262.441-.411.253-.826.409-1.309.361a.21.21 0 0 0-.155.05c-.534.413-1.17.626-1.777.895a2.344 2.344 0 0 0-.396.237c-.158.111-.286.333-.486.307-.287-.036-.451.137-.635.274-.237.176-.429.428-.684.564-.514.274-.945.659-1.429.97-.26.167-.458.421-.755.533-.212.08-.288.052-.346-.162-.051-.19-.065-.39-.104-.584a.614.614 0 0 0-.502-.497c-.242-.043-.42.053-.567.33-.091.172-.197.347-.132.56.031.101-.018.195-.045.289-.106.37-.255.714-.544.987-.385.364-.671.824-1.124 1.127a3.214 3.214 0 0 0-.944 1.001c-.053.086-.107.166-.206.205-.565.219-1.071.527-1.478.985-.102.115-.227.212-.398.218-.199.007-.346.12-.459.269-.105.139-.232.24-.388.315-.244.118-.472.256-.566.536-.023.069-.084.109-.149.144-.545.299-.849.834-1.233 1.287a.557.557 0 0 0 .021.731z"/>
  <path d="M144.771 38.162c-.476.507-.307.48-.017.892.086.122.191.153.324.152.24-.002.479-.011.719-.034.487-.047.974-.105 1.418.221.135.099.314.172.5.215.493.114.999.096 1.493.189.484.091.976.138 1.461.228.808.15 1.608.349 2.415.496.576.105 1.046.356 1.519.664.282.184.52.44.899.488.216.028.413.22.615.343a.35.35 0 0 1 .177.275c.012.147-.009.313-.16.356-.15.043-.207-.107-.248-.232-.009-.027-.007-.057-.019-.083-.099-.214-.366-.383-.584-.317-.314.094-.613.066-.916-.022-.118-.034-.225-.034-.3.082-.169.262-.353.524-.224.86.048.125.028.251.05.376.045.246-.058.374-.29.485-.279.133-.583.226-.784.53-.095.145-.326.343-.571.306-.347-.052-.599.117-.856.293-.315.216-.636.426-1.032.429-.531.004-1.057-.005-1.589.063-.273.035-.555.042-.828.107-.164.039-.326.093-.492.109-.531.053-.794.262-.709.766.087.518-.075.818-.496 1.068-.137.081-.216.257-.391.307a1.836 1.836 0 0 0-.918.597c-.152.178-.265.39-.154.572.138.227.295.536.623.508.5-.042 1.016-.03 1.477-.292a.785.785 0 0 1 .571-.096c.288.062.535-.009.671-.29a.554.554 0 0 1 .311-.272c.382-.15.623-.441.797-.783.133-.26.343-.411.585-.525.581-.275 1.169-.533 1.755-.799.433-.196.908-.334 1.288-.605.439-.314.941-.508 1.37-.826.362-.269.798-.315 1.208-.44.322-.098.66-.146.978-.253.413-.138.803-.415.96-.779.225-.521.402-1.076.205-1.709-.2-.643-.622-.936-1.197-1.105-.417-.123-.859-.172-1.26-.33-.475-.187-.917-.46-1.377-.687-.15-.074-.286-.19-.46-.204-.379-.03-.725-.196-1.087-.287-.452-.113-.887-.254-1.358-.231-.356.023-.699-.054-1.045-.127-.287-.061-.572-.175-.868-.147-.354.033-.642-.177-.973-.223-.129-.018-.162-.109-.121-.255.183-.651.606-1.102 1.168-1.438.559-.334 1.2-.472 1.795-.723a.856.856 0 0 1 .248-.052c.652-.063 1.244-.289 1.818-.602.225-.123.424-.274.626-.421.177-.129.322-.058.474.005.15.062.125.199.118.328a2.658 2.658 0 0 1-.067.46c-.049.212.067.424.264.453.22.032.445.05.64-.126a2.73 2.73 0 0 0 .663-.847c.22-.448.42-.915.588-1.388.088-.246.127-.517.185-.778.061-.271.113-.565-.001-.833-.131-.31-.334-.479-.589-.673-.191-.145-.417-.116-.646-.075-.484.086-.617.217-.695.704-.035.222-.04.445-.086.669-.055.271-.21.398-.435.446-.267.057-.537.149-.737.296-.383.282-.79.328-1.236.348-.397.018-.751.178-.991.529-.095.138-.156.336-.315.389-.442.147-.819.45-1.284.531-.163.028-.276.11-.4.212-.393.323-.867.516-1.317.738-.499.246-1.033.421-1.464.793a.865.865 0 0 1-.21.14c-.464.208-.828.517-1.179.891z"/>
  <path d="M98.346 44.799c-.13.588-.516 1.026-.841 1.497-.212.307-.405.649-.8.783-.09.03-.129.133-.133.246-.012.336.231.465.59.303.348-.156.356-.151.397.218a.788.788 0 0 1-.012.294c-.104.395-.204.79-.294 1.188-.049.217-.105.479-.317.63-.234.167-.343.427-.414.671-.218.749-.496 1.477-.734 2.218-.102.316-.172.623-.149.887 0 .221-.01.377.002.532.026.336.469.697.732.585.387-.165.723-.443.905-.799.259-.506.429-1.061.598-1.607.117-.38.232-.755.429-1.101.099-.174.169-.352.164-.56-.004-.183.073-.34.173-.506.151-.251.401-.439.471-.742.026-.115.117-.212.237-.201.103.009.16.121.177.219.044.249.137.456.383.566.022.01.038.042.048.067.117.302.34.469.623.633.458.265.926.467 1.443.554.642.109 1.296.071 1.942.137.406.041.817-.006 1.224.057.135.021.276-.01.417-.036.593-.111 1.177-.264 1.769-.376.414-.079.821-.21 1.249-.221.146-.004.26-.1.363-.203.079-.079.143-.171.242-.234.303-.192.424-.485.399-.832-.033-.462-.088-.92-.389-1.306-.104-.133-.134-.288-.155-.466-.043-.361-.121-.73-.311-1.048a.869.869 0 0 1-.118-.648c.156-.766-.063-1.522-.051-2.284a.32.32 0 0 0-.036-.165c-.179-.295-.099-.625-.142-.938-.054-.392.033-.81-.22-1.171a1.524 1.524 0 0 0-.408-.423c-.145-.094-.25-.243-.246-.376.014-.415-.303-.624-.509-.896-.146-.193-.524-.242-.698-.139-.185.111-.339.44-.268.661.069.214.114.435.188.649a6.56 6.56 0 0 1 .352 2.689c-.015.181-.13.299-.16.47-.108.622-.342 1.212-.549 1.805-.084.241-.207.475-.181.724.034.335-.095.672.026 1.002.023.064.024.156.115.149.045-.003.108-.056.125-.101.088-.233.261-.438.333-.652.141-.418.463-.751.521-1.198.011-.089.059-.161.156-.178.106-.018.189.013.251.112a.962.962 0 0 1 .138.649c-.033.261.032.494.159.729.146.27.324.531.38.844.062.347.135.691.191 1.039.042.26-.029.385-.291.419a1.503 1.503 0 0 0-.586.198c-.292.175-.603.188-.928.167a3.827 3.827 0 0 0-.758.015c-.626.089-1.247.154-1.881.111-.327-.022-.658.068-.981-.079a.667.667 0 0 0-.418-.023.67.67 0 0 1-.336-.005c-.758-.207-1.222-.734-1.432-1.452-.139-.475-.286-.949-.332-1.464a9.64 9.64 0 0 0-.45-2.229c-.118-.35-.3-.509-.698-.531-.262-.016-.628.208-.686.473z"/>
  <path d="M40.724 86.383c-.071.166-.177.311-.249.481-.209.496-.361 1.01-.524 1.519-.117.366-.378.669-.441 1.046-.092.556-.384.99-.757 1.386-.137.145-.275.3-.304.5-.078.546-.253 1.063-.435 1.579-.109.31.032.552.256.747.25.218.779.139.885-.163.119-.338.384-.596.462-.948a.449.449 0 0 1 .167-.239c.234-.198.326-.458.429-.747.147-.411.383-.794.544-1.21.073-.187.197-.367.278-.563.119-.29.145-.598.212-.899.136-.612.592-1.102.72-1.727.013-.062.081-.113.124-.169.297-.392.605-.775.885-1.178.132-.191.31-.326.473-.478.125-.117.304-.15.472-.166.149-.014.188.156.288.219.326.208.704.331.989.61.041.04.134.031.204.036.248.02.454.144.662.262.446.253.809.667 1.37.697.05.003.103.043.146.077.612.486 1.321.732 2.083.844.351.051.602-.175.597-.527-.007-.419-.465-1.022-.909-1.086-.463-.067-.819-.286-1.134-.595-.26-.255-.589-.385-.908-.515-.389-.159-.799-.257-1.067-.621-.036-.049-.126-.055-.186-.089-.381-.212-.82-.279-1.197-.507-.27-.163-.366-.38-.337-.67a.776.776 0 0 1 .356-.598c.243-.161.446-.39.494-.664.101-.583.407-1.047.716-1.529.159-.248.357-.473.486-.735.105-.213.248-.449.06-.702-.192-.259-.47-.359-.752-.215-.243.124-.508.214-.669.483a.707.707 0 0 1-.442.303c-.267.064-.471.23-.623.466-.144.225-.324.423-.494.629-.306.372-.673.692-.881 1.152-.095.211-.278.465-.549.481-.29.017-.597-.021-.751-.353-.057-.124-.19-.168-.325-.164-.289.009-.518-.112-.719-.307-.082-.079-.192-.114-.291-.168-.345-.191-.782-.23-1.055-.516-.429-.449-1.015-.349-1.438-.541-.291.028-.502.046-.712.072-.054.007-.106.037-.156.063-.484.25-.502.538-.263.837.188.235.403.432.692.515.287.083.555.195.806.358.271.176.536.383.835.486.488.168.87.562 1.403.623.075.009.152.077.211.135.25.247.514.479.731.761.135.176.175.351.11.552-.182.562-.346 1.128-.578 1.67z"/>
  <path d="M140.87 25.582c.069.007.14-.009.211-.011.343-.012.443.122.317.436-.153.38-.272.766-.314 1.178-.028.28.023.6-.083.83-.216.468-.072.918.039 1.321.114.416.185.846.32 1.256.116.353.156.736.462 1.017.377.347.739.342 1.019-.093.092-.144.205-.265.302-.402.285-.403.602-.795.774-1.258.222-.595.427-1.191.794-1.717.076-.108.119-.237.077-.363-.123-.362-.014-.738-.115-1.114-.142-.531.037-1.091.11-1.625.086-.634.314-1.252.589-1.844.148-.318.296-.651.351-.992.068-.428.056-.871.132-1.244-.009-.186-.002-.316-.026-.44-.02-.108-.053-.225-.146-.298-.28-.222-1.01-.15-1.238.127-.196.238-.378.483-.455.797-.072.298-.179.588-.28.878-.102.293-.225.372-.533.364-.241-.006-.519-.048-.697.111-.352.317-.773.512-1.156.77a.91.91 0 0 0-.425.741.448.448 0 0 1-.088.277c-.225.286-.195.638-.242.968-.032.218.107.311.301.33zm1.378 2.475c.103-.118.177-.123.268-.015.343.406.346 1.005.083 1.363-.193.263-.339.233-.51-.049-.096-.158-.209-.294-.128-.506-.024-.296.081-.558.287-.793z"/>
  <path d="M58.713 52.425c.085-.055.153-.176.235-.211.124-.053.159-.191.344-.355.164-.146.085-.379.087-.572.004-.563.438-1.163.974-1.274.225-.047.373-.162.533-.307.152-.138.218-.324.341-.478.322-.403.536-.855.513-1.392a.508.508 0 0 1 .079-.325c.22-.311.483-.65.646-.994.222-.469.548-.886.694-1.395.025-.086.065-.185.165-.236.34-.175.542-.489.763-.78.159-.209.348-.36.593-.459.153-.062.434-.221.502-.393.205-.52.307-.496.622-.784.096-.088.149-.452.126-.558-.019-.088-.128-.113-.123-.183.015-.197.172-.426.212-.655.025-.141.048-.241-.046-.331-.461-.442-.253-.413-.438-.524-.184-.111-.377-.059-.283-.283.002-.043.029-.198.029-.212.005-.431-.104-.434-.481-.242-.237.121-.482.25-.754.26-.464.018-.922.325-1.076.696-.078.188-.036.319-.094.489-.061.177-.285.353-.401.531-.07.107.016.309-.099.416-.13.121-.28.183-.343.339-.056.14-.062.344-.129.478-.118.232-.291.467-.342.714-.048.23.041.383-.013.707-.023.135-.134.171-.158.425-.028.306-.155.476-.36.725a1.983 1.983 0 0 0-.23.466c-.063.193-.196.361-.242.543-.034.132.025.278-.034.41-.291.653-.71 1.298-1.142 1.878-.168.226-.346.39-.381.684-.025.218.041.437-.273.611-.057.032-.057.348-.069.414-.025.146-.09.044-.136.119-.052.086-.012.23-.183.43-.257.301-.395.798-.338 1.223.033.248.09.409.318.401.105-.004.224.094.392-.016z"/>
  <path d="M47.863 55.066a.274.274 0 0 0-.018.206c.136.457.328.892.573 1.301.271.453.66.814.922 1.288.249.45.668.823 1.09 1.142.177.134.38.306.638.274.333-.041.54-.257.61-.605.077-.385-.015-.79.15-1.159.118-.263.158-.549.176-.824.021-.317.116-.605.198-.903.078-.285.157-.573.189-.866.025-.227.067-.445.142-.659.117-.333.255-.665.009-1.003-.021-.03-.016-.082-.015-.124.015-.393.005-.796.102-1.178.141-.557.051-1.091-.07-1.63-.021-.096-.062-.2-.042-.289.118-.546.142-1.083-.083-1.61-.021-.049-.037-.119-.017-.161.11-.24.079-.497.11-.746.072-.582.09-1.166.091-1.752 0-.207.056-.422.124-.62.093-.273.289-.297.473-.075.14.17.176.385.216.59.038.193.071.302.23.413.213.147.432.156.414-.104-.016-.239.159-.321.137-.487a1.026 1.026 0 0 0-.229-.561c-.389-.441-.833-.835-1.148-1.339a1.883 1.883 0 0 0-.201-.269c-.126-.141-.497-.197-.612-.071-.18.195-.381.402-.411.674-.054.488-.088.982-.085 1.473.002.335-.054.577-.369.776-.326.206-.607.541-.526.946.072.362-.006.624-.202.898a1.042 1.042 0 0 0-.131.31c-.074.246.065.411.327.409.124-.001.207-.076.307-.127.328-.168.508-.053.498.312-.007.274-.034.546.005.822.089.625.012 1.269.212 1.884.029.089.041.212.002.291-.163.33-.2.631-.228.98-.027.334-.055.715-.126 1.04-.043.197-.184.477-.205.675-.017.166.033.199 0 .322-.056.206-.217.477-.381.677a1.004 1.004 0 0 0-.225.792c.024.169.076.356-.137.437-.194.073-.292-.077-.423-.194a2.085 2.085 0 0 1-.62-.936.534.534 0 0 0-.129-.215 1.95 1.95 0 0 1-.443-.657c-.025-.066-.061-.127-.143-.14-.122-.022-.67.258-.726.372z"/>
  <path d="M92.512 47.322c.327.213.752.031.852-.358.074-.292.123-.592.309-.846a.51.51 0 0 0 .113-.314.3.3 0 0 1 .138-.252c.176-.123.232-.309.3-.494.048-.132.066-.293.153-.39.429-.472.363-1.188.82-1.642.026-.026.025-.08.034-.121.094-.4.301-.753.463-1.126.173-.4.356-.792.451-1.229.065-.3.066-.624.203-.9.1-.203.112-.389.104-.607-.009-.287.031-.579.238-.82.127-.148.225-.323.331-.489.305-.476.637-.914 1.172-1.169a.76.76 0 0 0 .418-.584c-.003-.358-.14-.558-.37-.513-.355.07-.505-.127-.671-.374-.131-.196-.237-.419-.452-.551-.253-.154-.391-.127-.576.102-.202.249-.376.524-.672.689a.416.416 0 0 0-.214.249c-.099.368-.366.659-.476 1.026a1.906 1.906 0 0 1-.51.817c-.156.153-.214.338-.249.562-.045.282-.002.56-.038.836-.08.617-.407 1.099-.842 1.523a3.18 3.18 0 0 0-.443.501c-.067.101-.15.264-.003.383.152.122.254-.015.37-.09.118-.076.171-.229.325-.261.068-.014.134-.056.199-.002.063.052.057.12.035.192a1.686 1.686 0 0 1-.287.563 1.445 1.445 0 0 0-.298.815.768.768 0 0 1-.15.424c-.306.428-.394.902-.353 1.44.036.477.189 1.01-.232 1.431-.033.033-.043.11-.034.161.032.176-.061.29-.165.413-.142.168-.184.74-.079.918a.323.323 0 0 0 .086.087z"/>
  <path d="M43.854 60.137c-.061.233-.029.459-.188.66-.131.165-.168.385-.154.621 0 .053-.01.126.002.194.061.339.132.716.506.812.373.096.562-.278.758-.543a.645.645 0 0 0 .102-.269c.135-.633.18-1.195.269-1.835.051-.37.113-.739.297-1.09.083-.157.153-.354.208-.561.06-.223.177-.399.193-.752.009-.204.188-.215.192-.421.002-.128.092-.167.162-.342.088-.217.115-.473.142-.778a.986.986 0 0 1 .112-.219c.172-.252.266-.54.284-.833.015-.242.155-.42.217-.634.029-.099.116-.159.229-.153.1.005.206.062.238.143.036.092.059.189.096.28.086.21.229.29.389.162.23-.184.463-.336.445-.725-.005-.1.041-.167.041-.259a.64.64 0 0 0-.102-.303c-.038-.06-.138-.107-.163-.181-.022-.063.028-.15.029-.212.005-.24 0-.33-.054-.564-.044-.188-.164-.32-.211-.67-.048-.355-.171-.462-.206-.7-.016-.111.064-.222.035-.334-.035-.137.06-.247.041-.379a.42.42 0 0 1 .138-.393c.081-.066.026-.204.092-.28.171-.197.212-.477.23-.743.015-.227.025-.437.047-.66.035-.354.194-.477.194-.67.001-.236-.293-.438-.484-.474-.27-.051-.616.028-.771.271-.139.218-.265.401-.335.668-.047.18-.145.344-.231.518-.055.111-.143.267-.077.383.071.124-.034.163-.024.254.007.065.077.12.071.165-.011.085-.092.128-.13.189-.055.089-.078.188-.153.277-.19.227-.428.389-.491.654-.027.112.022.269.047.414-.054.084-.144.099-.169.188-.051.185.008.448.035.637.047.324-.038.39-.029.537.006.109.102.209.083.336-.03.193-.128.111-.105.3.061.489-.122 1.306-.218 1.831-.034.182-.143.282-.125.564.007.116-.071.237-.094.342-.076.336.018.507-.318 1.003-.228.336-.287.835-.349 1.227-.05.32-.149.64-.406.884a.395.395 0 0 0-.093.232 6.084 6.084 0 0 1-.118.725c-.037.151-.086.354-.126.506z"/>
  <path d="M12.977 67.204a.521.521 0 0 0 .136-.547c-.076-.213-.289-.246-.501-.217-.083.011-.168.013-.251.027-.255.045-.376-.006-.444-.236a1.379 1.379 0 0 0-.16-.338c-.192-.316-.157-.443.137-.676a.91.91 0 0 1 .296-.15.779.779 0 0 0 .485-.441c.064-.148.043-.237-.118-.341-.187-.122-.36.012-.531-.05-.323-.118-.572.003-.791.243a.647.647 0 0 1-.44.233c-.317.016-.48.227-.588.479a1.667 1.667 0 0 1-.314.49c-.351.382-.202.798.308.894.11.021.225.006.278.143.129.33.374.55.681.715.177.095.201.232.055.376-.117.115-.164.265-.216.408-.181.501-.393.991-.536 1.506-.069.246-.168.48-.128.714-.019.328.06.586.2.864.181.358.404.709.485 1.116a.52.52 0 0 0 .111.224c.164.196.292.201.489.019a1.83 1.83 0 0 1 .485-.336c.209-.095.315-.264.344-.495a.444.444 0 0 0-.184-.438c-.137-.103-.277-.106-.407.044-.086.099-.188.068-.3-.003-.248-.158-.321-.423-.431-.663-.08-.174.013-.273.203-.203.199.073.416.04.611.146.142.077.311.043.428-.085.108-.118.058-.272.045-.405-.011-.11-.119-.186-.215-.249-.125-.083-.179-.207-.093-.326.274-.373.197-.779.108-1.172-.037-.16-.012-.248.066-.379.194-.327.428-.621.697-.891z"/>
  <path d="M198.291 46.924a1.304 1.304 0 0 0-.752-.25 1.96 1.96 0 0 1-.995-.303c-.245-.154-.258-.411-.015-.571.153-.1.316-.187.513-.171.134.01.248-.033.322-.159.033-.056.047-.117-.006-.148-.324-.185-.599-.492-.994-.431-.412 0-.468.039-.571.391-.039.135-.058.276-.1.411a.768.768 0 0 1-.665.539c-.472.046-.838.314-1.189.599-.13.105-.208.569-.142.666.115.17.428.234.656.121.239-.118.474-.246.708-.375.28-.154.567-.166.841-.012.102.057.193.126.307.11.634-.087 1.21.237 1.831.258.174.006.337.085.428-.127.082-.189-.003-.419-.177-.548z"/>
  <path d="M179.326 89.499c.167.094.348.135.527.047.278-.136.558-.153.863-.104.373.06.616-.252.513-.613-.111-.393-.485-.511-.836-.434-.26.057-.514.173-.786.112-.412-.093-.822-.046-1.215.057-.305.08-.587.045-.869-.038-.429-.127-.553-.108-.763.269-.105.187-.219.318-.429.362-.145.03-.146.129-.138.256a.955.955 0 0 0 1.256.848c.052-.018.101-.065.157-.039.371.173.519-.084.632-.35.15-.355.453-.423.843-.493.06-.015.147.065.245.12z"/>
  <path d="M7.999 56.807c.316.083.458-.05.427-.368a1.257 1.257 0 0 0-.304-.717 1.24 1.24 0 0 1-.249-.485c-.073-.259-.027-.428.189-.587.147-.109.318-.186.461-.3.307-.244.623-.489.652-.93.017-.304-.146-.675-.341-.771-.364-.18-.979-.003-1.208.335-.116.171-.142.348-.162.552-.059.604-.035 1.226-.629 1.662-.35.257-.31.495-.083.896a.656.656 0 0 0 .411.329c.228.068.466.118.645.301.045.047.124.065.191.083z"/>
  <path d="M83.061 30.198c-.29.272-.066.847.328.921.445.083.896.078 1.347.089l.211.01c.259.011.52-.131.579-.315.081-.252-.014-.482-.236-.664-.207-.169-.437-.298-.665-.431-.286-.166-.423-.362-.322-.726.114-.408-.03-.67-.38-.892-.309-.196-.551-.15-.748.167-.239.387-.396.776-.063 1.212.149.192.192.401-.051.629z"/>
  <path d="M11.026 49.535c.112.128.283.235.482.205.163-.025.306.045.447.095.323.114.534.033.645-.281a.738.738 0 0 0 .036-.388c0-.085-.002-.141 0-.197.014-.403.126-.479.514-.347.04.014.079.031.12.04.234.046.408-.107.4-.35-.012-.361-.392-.708-.756-.701-.314.006-.602.124-.9.194-.228.054-.435.087-.645-.057-.137-.094-.317-.1-.44-.005-.244.187-.481.397-.519.734-.009.081-.015.185.026.246.186.277.37.56.59.812z"/>
  <path d="M72.874 100.47c-.234-.048-.442-.033-.596.196-.114.168-.227.247-.479.117-.502-.259-.667-.195-1.06.205-.27.276-.28.423-.037.729.096.122.255.237.248.383-.018.349.227.526.407.752.058.072.126.109.251.114.021-.006.081-.01.127-.037.339-.199.722-.375.877-.757.167-.412.504-.741.533-1.227.017-.294.008-.418-.271-.475z"/>
  <path d="M134.481 59.021c.15.096.271.139.409-.001.312-.317.214-.916-.207-1.043-.216-.065-.288-.178-.359-.355-.136-.342-.354-.577-.767-.506-.632.002-.778.147-.668.746.051.28.025.495-.205.672-.187.144-.099.29.008.432a.49.49 0 0 0 .237.171c.261.082.466.214.618.461.076.124.267.235.446.131.149-.086.268-.213.215-.417a.488.488 0 0 1-.021-.125c-.004-.249.078-.304.294-.166z"/>
  <path d="M40.2 70.188c.147-.067.248.003.338.096.251.26.51.256.839.121.348-.143.656-.379 1.046-.437.253-.038.503-.049.757-.056.225-.006.334-.128.333-.334-.002-.358-.002-.356-.313-.384-.295-.026-.576-.064-.786-.327-.122-.153-.311-.246-.488-.2-.437-.007-.509.079-.442.474.005.028.016.055.019.082.018.144-.021.231-.184.159a1.46 1.46 0 0 0-.527-.139c-.418-.021-.815.363-.792.78.005.124.038.239.2.165z"/>
  <path d="M169.814 88.884a1.294 1.294 0 0 0-.743.247c-.354.278-.683.244-1.066.128-.504-.153-.845.108-.881.639-.009.141-.024.281-.033.387-.019.422.193.62.569.525.4-.1.75-.312 1.036-.611.124-.13.248-.207.436-.208.341-.003.655-.149.978-.236.337-.091.401-.385.185-.661-.123-.158-.286-.214-.481-.21z"/>
  <path d="M3.417 84.349c-.066.016-.139.002-.209.002-.695-.01-.92.243-.811.917a.774.774 0 0 1-.005.245c-.074.508.215.754.704.602a5.994 5.994 0 0 1 1.148-.256c.523-.055.664-.431.393-.893-.248-.42-.638-.758-1.22-.617z"/>
  <path d="M181.23 90.864c.051-.141-.045-.309-.176-.408a1.35 1.35 0 0 0-.82-.26c-.562-.007-1.06.233-1.576.401-.28.092-.337.406-.12.609.117.109.267.086.402.049.26-.071.523-.112.79-.139.161-.016.281.027.267.226-.017.249.144.381.329.499.165.105.344.197.391.415.024.111.101.163.212.172.132.011.201-.067.266-.169.102-.161.068-.324.034-.483.085-.307-.111-.602.001-.912z"/>
  <path d="M150.284 25.856c-.307.123-.357.334-.162.602.108.148.222.284.273.468.025.09.1.162.184.224.61.449.771.438 1.331-.068.18-.162.307-.331.266-.587l-.041-.335c-.102-.853-.722-.938-1.38-.578-.159.087-.296.204-.471.274z"/>
  <path d="M77.962 60.575c.024.162.178.232.312.135a.476.476 0 0 0 .155-.195c.096-.239.247-.442.405-.64.101-.126.126-.281.187-.423a.292.292 0 0 0-.054-.319c-.247-.244-.482-.526-.86-.49-.288-.018-.517.111-.764.161-.24.049-.396.204-.515.404-.145.242-.107.404.111.587.156.131.337.115.521.121.421.013.49.082.513.491.001.056-.019.114-.011.168z"/>
  <path d="M2.884 44.147c.006-.087.022-.134.009-.171-.132-.385-.236-.785-.415-1.148-.159-.322-.519-.33-.787-.077-.215.203-.223.45-.152.704.093.334.321.62.354.978.004.043.073.079.107.121.205.249.452.11.664.043.22-.07.25-.284.22-.45z"/>
  <path d="M129.412 58.652a1.263 1.263 0 0 0-.915.466.443.443 0 0 0 .171.697c.118.047.231.099.345.153.325.152.662.108.986-.011.261-.096.351-.314.26-.584-.036-.106-.102-.201-.146-.304-.162-.381-.217-.419-.701-.417z"/>
  <path d="M174.407 11.662c.464-.418 1.002-.766 1.317-1.335.175-.316.122-.428-.312-.442.003 0-.074-.008-.134.019a4.074 4.074 0 0 0-1.543 1.269c-.103.136-.095.31.045.461.169.182.394.237.627.028z"/>
  <path d="M42.289 52.12c.261.222.544.349.92.295.098 0 .227.011.352-.003.097-.011.192-.046.284-.081.441-.167.445-.721.229-.995-.082-.105-.179-.15-.331-.118-.411.087-.812.223-1.246.192-.193-.014-.276.177-.331.338-.048.145-.004.263.123.372z"/>
  <path d="M44.147 73.688c.218.165.334.42.557.57.111.074.227.106.346.001.281-.246.307-.746.048-1.013-.199-.206-.199-.206.03-.395.181-.149.176-.196 0-.345-.199-.168-.43-.118-.649-.097-.274.026-.425.256-.37.535a1.1 1.1 0 0 1 .01.35c0 .125-.067.322.028.394z"/>
  <path d="M89.207 28.633c.322-.127.614-.332.91-.518.127-.08.187-.228.116-.367-.07-.137-.185-.262-.372-.194a1 1 0 0 1-.545.032 1.392 1.392 0 0 1-.369-.007c-.163-.022-.519.19-.535.316-.042.326.368.906.795.738z"/>
  <path d="M150.319 18.32c.181-.001.252-.025.342-.115.344-.345.383-.826.098-1.217-.192-.264-.416-.276-.605-.005-.121.174-.237.345-.414.467-.107.073-.122.174-.099.296.052.274.402.576.678.574z"/>
  <path d="M40.366 75.628a.578.578 0 0 0 .481-.42c.054-.181.063-.398-.11-.548-.3-.26-.624-.179-.95-.054-.263.101-.326.333-.356.57-.04.317.062.418.387.433l.211.012v.01c.112 0 .227.014.337-.003z"/>
  <path d="M184.313 35.807c-.219-.107-.359.063-.462.195-.162.206-.337.41-.415.675-.044.149-.118.29.013.429.143.151.391.2.574.122.413-.176.492-.534.51-.935.049-.213-.015-.386-.22-.486z"/>
  <path d="M181.231 50.227c-.346-.006-.577.242-.58.622-.003.356.245.626.583.637.286.009.615-.293.63-.578.012-.237-.397-.677-.633-.681z"/>
  <path d="M85.946 30.292c.09.097.209.076.316.043.125-.038.163-.144.168-.261l-.02-.087c-.038-.176-.079-.352-.114-.529a.545.545 0 0 0-.426-.398c-.218-.027-.217.179-.297.298-.132.195-.08.381.042.551.099.136.217.259.331.383z"/>
  <path d="M39.366 73.833c-.092.367.004.493.383.499.269.004.615-.278.662-.54.033-.18-.117-.418-.287-.457-.343-.077-.667.136-.758.498z"/>
  <path d="M161.059 34.402c.157.046.261-.07.33-.198.065-.121.043-.275.15-.386.093-.097.237-.213.093-.352-.138-.134-.304-.106-.446.031-.08.077-.16.163-.256.214-.154.08-.173.206-.162.379-.054.213.135.266.291.312z"/>
  <path d="M12.845 69.705c.168.101.271.28.474.343.205.063.346-.013.338-.229-.015-.412-.27-.642-.636-.585-.107.017-.19.043-.221.159-.03.112-.067.245.045.312z"/>
  <path d="M132.125 57.414c-.119.097-.216.22-.32.334-.154.169-.111.343.103.403.064.018.139.003.244.003.323.007.478-.196.401-.574-.052-.252-.23-.327-.428-.166z"/>
  <path d="M159.174 37.747c.035-.091.049-.191.074-.295.021-.193-.043-.272-.229-.235-.221.044-.427.118-.574.317-.097.132-.076.234.015.338.229.257.591.194.714-.125z"/>
  <path d="M149.473 22.874c.218.019.398-.094.417-.261.022-.198-.192-.443-.406-.465-.225-.023-.455.13-.483.32-.034.23.137.377.472.406z"/>
  <path d="M44.672 74.643c-.136.012-.229.096-.22.248.008.123.06.211.207.21.123-.019.194-.09.174-.225-.015-.102.004-.247-.161-.233z"/>
  <path d="M132.233 44.646c.229-.17.408-.285.443-.639.022-.227.112-.447.307-.432a.712.712 0 0 1 .415.177c.074.063.131.146.204.211.147.133.37.103.487-.046.103-.131.089-.214.238-.312.122-.081.077-.178.182-.289.149-.157.197-.423.157-.629.044-.288.054-.478-.158-.502-.17-.019-.322-.04-.375-.232-.057-.206-.382-.207-.588-.142-.173.054-.316.182-.281.414.018.118-.07.212-.134.304-.241.346-.488.688-.8.977-.288.266-.392.613-.377.994.006.187.131.257.28.146z"/>
  <path d="M130.654 48.896c.28-.276.558-.556.806-.86.216-.265.117-.499-.206-.572-.041-.009-.085-.009-.124-.023-.145-.052-.208-.139-.11-.287.031-.047.059-.096.087-.145.057-.104.1-.226-.005-.308a.25.25 0 0 0-.315.018c-.177.158-.373.321-.414.566-.062.371-.087.747-.13 1.148.018.097.03.224.065.345.053.187.215.248.346.118z"/>
  <path d="M131.421 42.301c-.033.146.016.248.156.306a.733.733 0 0 1 .388.371c.028.057.043.154.139.118.064-.024.107-.087.128-.16.073-.254.035-.498-.053-.743-.071-.196-.143-.302-.125-.522.01-.12-.095-.322-.008-.448.096-.139.036-.325-.024-.428-.097-.165-.153-.221-.359-.189-.201.031-.246.208-.251.389-.003.113-.01.226-.007.338.012.323.088.645.016.968z"/>
</svg>
