<!--
  SVG Music Logos
  Iron Maiden - Legacy Of The Beast - Loading v0.1.1
  https://github.com/tiagoporto/svg-music-logos
  Copyright (c) 2016-2018 Tiago Porto (http://tiagoporto.com)
-->
<svg xmlns="http://www.w3.org/2000/svg" class="iron-maiden--legacy-of-the-beast-loading" viewBox="0 0 200 200">
  <g class="iron-maiden__eddie">
    <path d="M94.818 81.47c-.157-2.198-.07-6.28-.07-8.008 0-3.44 2.588-7.085 5.34-7.085 5.063 0 5.886 4.808 5.886 7.713 0 1.727.32 5.348-.23 7.86-.47 2.154-3.303 4.388-6.324 4.388-1.885 0-4.445-2.67-4.602-4.868z"/>
    <path d="M99.42 118.374c-5.795 0-22.495 2.718-29.482 6.592-3.194 1.77-4.24 1.053-4.24 0 0-1.727 1.66-3.232 3.842-5.13 5.46-4.752 16.01-12.457 29.88-12.457s24.496 7.704 29.956 12.456c2.18 1.898 3.842 3.402 3.842 5.13 0 1.053-1.045 1.77-4.24 0-6.988-3.874-23.764-6.592-29.558-6.592z"/>
    <path d="M99.458 58.702c-1.057 0-4.763-1.99-5.286-3.978s1.57-3.35 1.204-5.025-3.716-1.257-4.868-1.153c-1.152.105-5.025 2.303-4.397 3.66s1.885 1.26 1.99 3.667c.105 2.408-5.758 3.35-7.746 2.303-1.99-1.047-2.008-5.008-2.82-5.113s-6.34 2.103-8.168 4.686c1.884 11.412 14.756 23.04 21.14 23.04-.627-6.386 1.16-7.72 1.16-11.49 0-3.768 6.164-6.358 8.728-6.358 2.565 0 5.96 2.418 7.07 6.02 1.1 3.558 2.042 7.955.943 11.828 6.386 0 20.518-10.573 22.402-21.983-3.037-2.93-4.398-2.617-4.92-3.35-.524-.733-3.09-3.35-3.9-3.245-.81.105-1.44 4.92-3.428 5.967-1.99 1.046-7.85.104-7.746-2.304.105-2.408 1.36-2.308 1.99-3.666s-3.246-3.557-4.398-3.66c-1.15-.106-4.5-.524-4.868 1.15s1.727 3.037 1.204 5.026-4.23 3.976-5.286 3.976z"/>
    <path d="M116.58 124.674c3.396 0 8.525 1.367 10.985 2.96 2.355 4.554 1.363 9.997.942 11.463-1.57 1.256-9.578 3.77-10.992 3.612-1.413-1.257-2.67-4.555-2.512-6.44s-.544-11.596 1.576-11.596z"/>
    <path d="M113.158 125.112c.903 1.174.118 9.118-.196 11.16-.314 2.04.723 4.244.43 5.496-.43 1.832-7.234 3.297-9.85 2.983-1.258-.15-3.07-.784-3.185-3.454s-.585-15.074.828-16.644c1.413-1.57 4.083-2.04 6.28-1.727 2.2.313 4.123.145 5.693 2.187z"/>
    <path d="M95.375 122.832c1.78.668 2.512 1.93 2.512 3.21s.785 14.626 0 16.04c-.785 1.412-1.727 2.844-3.77 2.678-2.04-.166-8.478-1.893-8.95-3.15-.47-1.256 1.676-4.39 1.048-10.513-.628-6.124.327-7.277 1.308-7.78 1.554-.796 6.21-1.1 7.852-.485z"/>
    <path d="M83.6 125.018c1.152 1.1.155 13.452-.787 14.865s-4.24 1.727-5.967 1.1c-1.727-.63-5.193-.786-6.365-1.885s-1.496-5.496 0-7.85c1.498-2.356.085-4.288 2.44-5.206 2.356-.92 8.17-3.42 10.68-1.024z"/>
    <path d="M149.077 78.8c-3.454-7.536-11.306-17.9-13.58-17.743-2.272.157-3.222 5.496-6.57 11.306-3.348 5.81-14.867 10.835-19.577 12.562s-5.534 4.083-9.93 5.056c-4.397-.972-5.144-3.328-9.854-5.055s-16.23-6.752-19.577-12.562c-3.35-5.81-4.3-11.15-6.572-11.306-2.274-.157-10.125 10.207-13.58 17.744-3.455 7.538-2.918 21.513-1.46 24.183 1.46 2.67 8.997 2.392 10.096 4.397 1.1 2.004 4.39 10.383 6.2 10.38 1.808-.003 15.784-14.148 34.745-14.148 18.96 0 34.268 14.76 36.077 14.763s3.843-6.812 4.943-8.816c1.1-2.005 9.892-3.122 11.352-5.79 1.46-2.672.74-17.432-2.715-24.97zM92.863 96.31c-1.57.784-13.83 3.383-16.924 3.383s-6.305-2.14-11.57-4.18-5.896-11.53-5.896-14.357c0-2.826 2.512-6.752 4.943-6.752 2.43 0 6.677 7.38 12.8 11.306 6.125 3.926 14.133 7.223 19.158 7.97-.942 1.378-.942 1.844-2.512 2.63zm41.68-.798c-5.263 2.04-8.473 4.18-11.567 4.18s-15.34-2.13-16.91-2.915c-1.57-.785-1.584-1.72-2.526-3.096 5.025-.747 13.033-4.045 19.157-7.97 6.124-3.926 10.37-11.306 12.8-11.306s4.944 3.926 4.944 6.752c0 2.827-.632 12.315-5.896 14.356z"/>
  </g>
  <g class="iron-maiden__ring">
    <path class="iron-maiden__ring-minor" d="M73.857 153.403c-4.117-2.025-7.965-4.485-11.46-7.35l-6.364 7.375c4.183 3.455 8.808 6.404 13.763 8.817l4.06-8.842z"/>
    <path class="iron-maiden__ring-minor" d="M130.375 37.752l-4.06 8.843c4.116 2.025 7.964 4.485 11.46 7.35l6.363-7.375c-4.183-3.456-8.808-6.404-13.763-8.818z"/>
    <path d="M159.334 94.468l9.72-.653c-1.57-17.7-9.882-33.742-22.578-45.22l-6.358 7.37c10.768 9.806 17.825 23.452 19.216 38.503z"/>
    <path d="M83.663 42.8c7.068-2.033 14.628-2.796 22.393-2.013 6.178.623 12.032 2.183 17.453 4.504l4.063-8.847c-6.373-2.756-13.262-4.61-20.54-5.342-9.124-.92-18.005-.007-26.3 2.41l2.93 9.29z"/>
    <path class="iron-maiden__ring-minor" d="M68.45 49.638c3.833-2.41 7.935-4.415 12.263-5.908l-2.93-9.285c-5.203 1.774-10.126 4.186-14.718 7.097l5.385 8.096z"/>
    <path d="M116.508 157.198c-7.068 2.032-14.628 2.795-22.393 2.012-6.178-.623-12.032-2.182-17.453-4.504l-4.064 8.848c6.373 2.756 13.263 4.61 20.54 5.342 9.124.92 18.005.007 26.3-2.41l-2.93-9.288z"/>
    <path class="iron-maiden__ring-minor" d="M131.72 150.36c-3.832 2.41-7.934 4.414-12.262 5.907l2.93 9.285c5.203-1.774 10.126-4.186 14.718-7.097l-5.385-8.096z"/>
    <path d="M42.298 85.844c3.49-14.32 12.064-26.427 23.56-34.515l-5.39-8.105C46.92 52.68 36.83 66.918 32.785 83.775l9.514 2.07z"/>
    <path d="M157.873 114.154c-3.49 14.32-12.064 26.427-23.56 34.515l5.39 8.103c13.548-9.456 23.64-23.693 27.684-40.55l-9.514-2.07z"/>
    <path class="iron-maiden__ring-minor" d="M158.528 111.13l9.514 2.07c.397-2.053.728-4.133.942-6.255.342-3.39.403-6.738.26-10.043l-9.713.652c.112 2.77.053 5.576-.233 8.414-.176 1.75-.448 3.466-.77 5.162z"/>
    <path class="iron-maiden__ring-minor" d="M40.64 102.443c-.11-2.77-.052-5.576.234-8.414.176-1.75.448-3.467.77-5.163l-9.515-2.07c-.398 2.053-.73 4.133-.943 6.255-.342 3.39-.403 6.738-.26 10.043l9.713-.652z"/>
    <path d="M40.837 105.53l-9.72.653c1.57 17.7 9.882 33.742 22.578 45.22l6.358-7.37c-10.768-9.807-17.825-23.452-19.216-38.503z"/>
  </g>
  <g class="iron-maiden__external">
    <path d="M98.713 25.765l3.85-6.528 3.995 6.778c3.12.263 6.186.707 9.184 1.342L102.562 5 89.915 26.452c2.884-.4 5.82-.628 8.798-.687z"/>
    <path d="M100.93 174.84l-3.493 5.923-3.656-6.2c-3.122-.268-6.192-.72-9.193-1.36L97.437 195l12.24-20.76c-2.87.362-5.785.57-8.747.6z"/>
    <path d="M174.088 90.234c.388 2.88.612 5.81.662 8.783l6.013 3.545-6.238 3.678c-.245 3.103-.658 6.158-1.272 9.143L195 102.563l-20.912-12.33z"/>
    <path d="M25.676 101.234l-6.44-3.796 6.74-3.974c.285-3.14.767-6.22 1.43-9.236L5 97.438l21.302 12.558c-.374-2.873-.59-5.795-.626-8.762z"/>
    <path d="M151.854 46.528l7.066-1.825-1.89 7.32c2 2.35 3.854 4.824 5.553 7.412l6.404-24.8-23.836 6.155c2.35 1.78 4.583 3.7 6.704 5.738z"/>
    <path d="M48.007 153.508l-6.927 1.79 1.874-7.258c-1.995-2.39-3.832-4.913-5.52-7.543l-6.42 24.867 23.603-6.095c-2.314-1.794-4.524-3.715-6.61-5.762z"/>
    <path d="M153.596 152.333l1.7 6.587-6.86-1.772c-2.355 2-4.834 3.852-7.426 5.55l24.354 6.29-6.015-23.293c-1.79 2.325-3.71 4.54-5.754 6.638z"/>
    <path d="M46.616 48.486l-1.912-7.406 7.716 1.993c2.386-1.995 4.905-3.834 7.53-5.523l-25.313-6.537 6.236 24.148c1.78-2.338 3.702-4.564 5.743-6.674z"/>
  </g>
</svg>
