<!--
  SVG Music Logos
  Iron Maiden - Eddie - The Book Of Souls v0.1.1
  https://github.com/tiagoporto/svg-music-logos
  Copyright (c) 2016-2018 Tiago Porto (http://tiagoporto.com)
-->
<svg xmlns="http://www.w3.org/2000/svg" viewBox="0 0 183 200" class="iron-maiden--eddie-the-book-of-souls">
  <path class="iron-maiden__background" d="M81.674 2.405C75 2.918 68.386 4.327 62.13 6.72c-8.51 3.275-16.51 8.414-22.15 15.67C33.174 30.677 26.8 39.64 23.476 49.944c-1.5 6.64-.62 13.486-.28 20.2.193 2.727.05 5.467.31 8.192.25 2.984.61 5.997.19 8.985-1.562-3.243-3.332-6.618-6.392-8.693-2.213-1.54-5.11-1.366-7.62-.807-2.148.574-4.42 1.662-5.432 3.77-1.342 2.68-1.092 5.782-.772 8.667.16 1.31-.395 2.623-.06 3.92.148.587.69.916 1.135 1.268.402.943.763 1.904 1.11 2.87-.685 1.495-1.2 3.075-1.29 4.73.89-.12 1.78-.246 2.675-.356.61 1.14 1.106 2.338 1.613 3.53-.4 1.123-.725 2.27-1 3.432.7.2 1.398.405 2.097.608.754 1.572 1.796 3.045 2.154 4.778-.023 1.683-.553 3.307-.804 4.96.964-.15 1.927-.31 2.894-.465 1.24 3.14 2.676 6.306 2.85 9.73.5 9.48.62 19.043 2.594 28.37.853 3.7 3.153 6.817 5.354 9.828 1.208 1.66 2.775 3.124 4.75 3.8 1.052-1.198.75-2.875.094-4.185-2.236-4.734-2.888-9.995-3.412-15.145-.178-2.018-.49-4.02-.553-6.047-.296-6.166-.628-12.333-.773-18.508 1.197 2.08 3.17 3.99 3.095 6.55-.635 5.882-1.724 11.993.093 17.778.754 2.57 2.612 4.647 4.647 6.312 7.177 5.753 14.68 11.084 21.806 16.898 5.47 4.513 10.862 9.215 15.328 14.755 1.942 2.313 4.012 4.607 6.65 6.144 2.058 1.2 4.48 1.726 6.856 1.58 2.178-.16 4.222-1.108 6.41-1.184 1.7-.05 3.177.937 4.808 1.258 3.086.675 6.478.903 9.41-.483 3.4-1.622 5.933-4.504 8.327-7.325 2.632-3.17 5.677-5.965 8.78-8.664 8.764-7.543 18.57-13.72 27.936-20.46 2.437-1.81 3.767-4.685 4.62-7.515 1.642-5.638 1.28-11.688-.134-17.336-.07-.498-.385-1.066-.048-1.526 1.004-1.61 2.172-3.106 3.246-4.673.13 2.157-.012 4.32.035 6.484.114 10.334.36 20.952-2.888 30.9-.658 2.37-2.323 4.575-1.747 7.154l2.414.02c2.614-2.72 6.842-8.603 7.983-12.213.658-2.008.827-4.122 1.13-6.197 1.086-8.356 1.348-16.784 1.665-25.192.13-3.813 1.543-7.42 3.054-10.87 1.185.955 2.52 1.828 4.093 1.922-.393-2.218-.69-4.56-2.044-6.437.707-1.534 1.54-3.007 2.382-4.472.684-.055 1.37-.105 2.06-.154-.008-1.428-.587-2.76-.72-4.158.366-1.223.954-2.36 1.417-3.546 1.293.128 2.588.268 3.887.367-.417-1.895-1.544-3.505-2.196-5.307.03-1.066.454-2.067.76-3.074.75-.45 2.11-.935 1.654-2.067-.96-3.267.3-6.743-.763-9.992-1.662-5.636-8.603-9.054-14.05-6.763-3.727 1.927-5.517 5.95-7.427 9.46-.265-2.933.08-5.865.224-8.79.364-6.21.68-12.42.943-18.633.114-3.17.125-6.455-1.07-9.447-3.515-9.392-9.49-17.588-15.705-25.36-6-7.917-14.668-13.495-23.95-16.817-11.55-4.128-24.057-4.925-36.206-3.898"/>
  <path d="M154.18 173.583c-.228-.568-.455-1.133-.676-1.7 2.76-6.856 4.047-14.216 4.59-21.56.246-7.967-.107-15.945.2-23.916-.598-.07-1.195-.137-1.79-.204-1.187 2.446-2.89 4.574-4.46 6.775-.506.51-.194 1.232-.145 1.85.733 5.082 2.03 10.247 1.076 15.394-.495 3.127-1.965 6.096-4.2 8.344-1.168 1.208-2.61 2.09-3.963 3.07-8.626 6.04-17.6 11.67-25.43 18.763-3.926 3.638-8.1 7.088-11.294 11.426-1.998 2.614-4.95 4.818-8.363 4.862-3.377.405-6.446-1.307-9.65-2.006-2 .003-3.838.946-5.795 1.232-1.96.23-4.006.102-5.84-.67-2.908-1.202-5.174-3.514-7.046-5.977-2.84-3.345-5.887-6.516-9.06-9.544-8.522-8.23-18.447-14.767-27.783-21.998-2.842-2.245-5.147-5.38-5.747-9.014-.9-4.922.003-9.927.777-14.8.108-.92-.05-1.884-.588-2.65-1.892-2.942-3.712-5.932-5.482-8.95-.183 6.988.585 13.952.7 20.937.182 5.57.785 11.127 1.763 16.615.55 3.415 1.997 6.583 3.12 9.826-.07-.01-.214-.03-.287-.038-2.63-2.198-4.528-5.098-6.26-8.012-2.382-4.27-2.754-9.255-3.19-14.024-.583-5.034-.688-10.103-1.087-15.154-.227-2.498-.067-5.054-.748-7.494-.73-2.766-2.093-5.305-3.543-7.747 1.313-.33 2.655-.55 3.95-.947.397-.35.676-.804 1.003-1.21-.635-.706-1.272-1.407-1.91-2.106-1.095.897-2.192 1.796-3.293 2.687-.908-2.355-1.994-4.638-3.2-6.853 1.782-.308 3.852-.427 5.057-1.987-.618-.844-1.267-1.668-1.925-2.48-1.115.72-2.233 1.443-3.342 2.174-.833-1.81-1.683-3.613-2.5-5.43 1.31-.454 2.613-.94 3.833-1.607-.256-.445-.373-1.01-.798-1.328-1.208-.242-2.396.256-3.57.472-.768-1.616-1.37-3.304-2.057-4.955 1.727-.636 3.436-1.33 5.044-2.23-.728-1.233-1.482-2.45-2.262-3.646.844.326 1.694.643 2.52 1.016-.02-1.004.55-2.085 1.713-1.907-.86-.914-1.083-2.178-1.313-3.363-.99.466-1.948.996-2.914 1.51.57-.974 1.197-1.915 1.843-2.843 1.276.8 2.557 1.62 3.972 2.16-.984-1.252-2.355-2.1-3.697-2.91-1.086.692-2.32 1.254-3.12 2.302-.6.768-.604 1.787-.688 2.712-.122 1.907-.198 3.86-.96 5.642-1.102-3.217-1.44-6.96.214-10.053.61-1.34 2.036-1.967 3.297-2.546 2.702-1.173 6.15-1.223 8.484.774 3.297 2.638 4.377 6.91 6.552 10.36 1.57-3.617 1.05-7.623.943-11.44.032-3.007-.12-6.012-.355-9.01-.3-3.49-.317-6.99-.495-10.485-.128-3.22-.102-6.524.9-9.622 1.738-5.403 4.326-10.512 7.456-15.237 5.017-7.136 9.952-14.63 17.123-19.806C58.743 8.18 70.15 4.79 81.516 3.727c6.335-.772 12.764-.713 19.093.114 12.154 1.206 24.35 5.288 33.733 13.315 3.747 3.063 6.778 6.877 9.593 10.787 2.536 3.572 5.22 7.05 7.465 10.825 2.426 4.04 4.458 8.405 5.288 13.072.757 8.614.055 17.26-.466 25.867-.212 3.846-.32 7.773.684 11.526 2.518-3.724 3.622-8.475 7.264-11.375 1.782-1.595 4.373-1.51 6.568-1.03 2.7.645 5.418 2.296 6.434 5 1.15 2.89.79 6.07.646 9.102-1.354-.958-2.66-1.98-4-2.952-.574.946-1.118 1.913-1.645 2.885 1.636.967 3.45 1.558 5.255 2.122-.79 1.887-1.485 3.82-1.916 5.826-1.735-.902-3.962-1.024-5.54.27 1.613.814 3.334 1.388 5.03 2.005-.872 1.846-1.693 3.712-2.512 5.58-1.048-.584-2.04-1.327-3.223-1.62-.53-.11-1.2-.248-1.6.22-.69.748-.636 1.857-.848 2.795 1.743.43 3.49.84 5.245 1.226-1.095 1.884-2.195 3.77-3.072 5.767.326.568.658 1.138.996 1.703-.12.47-.234.943-.347 1.418-1.16-1.683-2.387-3.99-4.725-3.99-.91.382-1.313 1.375-1.843 2.14 1.534.624 3.08 1.23 4.638 1.803-3.39 5.604-3.904 12.336-4.003 18.732.02 3.376-.274 6.742-.495 10.11-.32 4.3-.71 8.606-1.566 12.836-.898 4.85-4.025 8.86-7.32 12.365l-.15 1.413z"/>
  <g class="iron-maiden__face">
    <path d="M36.914 35c-3.267 4.083-3.083 9.815-1.715 14.602.64-1.395 1.297-2.795 2.264-4 .03 1.73-.507 3.38-.91 5.037-.155.727-.39 1.574.072 2.244 1.415 2.253 2.676 4.623 4.344 6.71.367.41.725 1.005 1.37.87.857-.51 1.168-1.527 1.693-2.32 1.214.677 2.428 1.353 3.64 2.037-1.037.333-2.132.49-3.2.19.602.454 1.257.836 1.93 1.182 1.236-.186 2.48-.338 3.728-.466-.84-.536-1.7-1.048-2.477-1.674.096-1.29.737-2.553.373-3.85-.475-2.232-1.66-4.212-2.54-6.293-.71-1.658-.963-3.515-2.008-5.017-2.018-2.82-2.565-6.36-4.39-9.284-.724-.007-1.464-.12-2.174.03"/>
    <path d="M23.548 112.28c.017.877.227 1.74.542 2.557.22.05.66.15.882.198.104-1.126-.338-2.27-1.424-2.754"/>
    <path d="M156.916 116.02c.53-1.023.76-2.187.66-3.335-1.036.778-1.28 2.208-.66 3.334"/>
    <path d="M25.87 117.22c-.82.377-.048 1.74.75 1.233.922-.323.057-1.85-.75-1.234"/>
    <path d="M154.8 117.798c-.347.742.086 1.412.616 1.91.472-.722.414-1.805-.617-1.91"/>
    <path d="M28.27 121.775c.294-.824.183-1.738-.57-2.27-.833.69-.563 2.116.57 2.27"/>
    <path d="M153.16 120.745c-.638.445-.713 1.642.108 1.94.905.133 1.386-1.06 1.022-1.762-.19-.432-.8-.403-1.13-.178"/>
    <path d="M29.84 123.77c.142.355.305.713.468 1.066.338-.277.67-.556 1.004-.827-.268-.248-.54-.49-.806-.73-.224.16-.45.32-.667.49"/>
    <path d="M150.202 123.903c-.943.66.358 2.393 1.214 1.528.996-.676-.344-2.51-1.214-1.527"/>
    <path d="M32.215 127.266c1.17-.358 2.28-1.112 2.574-2.367-1.35-.024-2.48 1.02-2.575 2.366"/>
    <path d="M146.225 125.767c.19 1.316 1.38 2.122 2.635 2.27-.166-1.35-1.43-2.04-2.635-2.27"/>
    <path d="M37.307 135.013c.4-1.703.437-3.473.204-5.206-.497 1.64-1.71 3.74-.203 5.206"/>
    <path d="M143.817 136.242c.463-1.962.416-4.03-.047-5.983-.544 1.938-.54 4.05.047 5.982"/>
    <path d="M41.703 145.302c.876-.774 1.785-2.542.306-3.173-.62.95-.595 2.11-.307 3.172"/>
    <path d="M50.047 145.38c-.312 1.806-.242 3.66.093 5.457.31-1.794.54-3.703-.093-5.456"/>
    <path d="M113.87 150.09c1.95 1.13 4.118 1.8 6.127 2.816 1.01.574 2.207 1.025 2.932 1.974-.92-.402-1.943-.416-2.92-.542.95.58 1.94 1.092 2.93 1.61.193-.585.388-1.173.6-1.75.96.57 1.53 1.593 1.317 2.722.416.31.862.585 1.234.958-.072 2.038-1.134 3.95-.89 6.018.064.745.43 1.432.972 1.945 1.313-1.268 1.118-3.146 1.397-4.797.32-2.405.625-4.853.24-7.27-.634 1.13-.593 2.454-.663 3.71-.98-1.25-1.88-2.714-3.447-3.288-3.322-1.262-6.225-3.632-9.83-4.104"/>
    <path d="M59.113 151.9c1.042.078 2.78.25 2.798-1.244-1.04.114-2.092.41-2.797 1.243"/>
    <path d="M113.067 151.544c1.036 1.002 2.515 1.467 3.936 1.138-1.077-.946-2.524-1.34-3.936-1.138"/>
    <path d="M56.27 153.17c.514.3 1.047.575 1.6.814-1.476.737-3.07 1.19-4.667 1.57-.134-.94-.24-1.89-.504-2.802-.615 2.938.095 5.907.526 8.82.122.695.2 1.516.8 1.993.706.317.927-.574 1.072-1.077.41-1.954-.707-3.744-1.383-5.497 1.298-1.187 2.77-2.174 4.347-2.945.084-.59.175-1.18.274-1.764-.664.35-1.366.62-2.067.89"/>
    <path d="M138.868 156.226c1.004-.935.86-2.513.047-3.52-.41 1.138-.408 2.367-.047 3.52"/>
    <path d="M48.667 156.613c-.06.795-.067 1.595 0 2.396.288-.44.728-.9.556-1.47-.143-.34-.358-.63-.556-.927"/>
    <path d="M48.906 159.63c.582 1.43 1.71 2.602 3.083 3.298-.845-1.255-1.902-2.358-3.084-3.3"/>
    <path d="M64.563 43.235c-.606-3.188-2.2-6.06-3.136-9.145-1.016-3.45-3.09-6.472-4.128-9.913-1.003-2.964-.892-6.207-2.222-9.075-2.032 1.304-4.035 2.696-5.735 4.42-1.33 1.388-1.45 3.402-1.817 5.19-.477 2.47.108 4.958.614 7.372.393 1.747.332 3.56.705 5.313.495 2.315.05 4.786.972 7.016.678 1.857 2.425 3.133 2.885 5.092.49 1.788.355 3.776 1.35 5.406.997 1.26 2.752 1.308 4.193 1.67-.082-2.843-.428-5.678-.282-8.52 2.058 2.143 1.09 5.278 1.23 7.916 2.51-.3 5.108-1.074 6.864-3.002.04-3.31-.91-6.508-1.494-9.74zm-10.376 3.677c.227-2.058 1.526-3.898 3.348-4.865-.603 1.91-1.744 3.65-3.348 4.865z"/>
    <path d="M67.402 9.547c-.367 5.264.07 10.55.836 15.762 1.49 8.98 2.256 18.172 5.278 26.825.72 2.2 2.984 3.52 5.197 3.735 1.328.12 2.786.055 3.922-.722 2.096-1.38 3.482-3.805 3.537-6.32.038-2.592.096-5.192-.146-7.777-.306-1.856.588-3.647.445-5.507.024-1.965-1.18-3.63-1.49-5.526-.515-2.897-.11-5.855-.42-8.772-.313-4.978-1.38-10.312-5.033-13.98-4.168-.21-8.183 1.114-12.125 2.282"/>
    <path d="M99.96 7.15c-2.527 1.824-3.843 4.796-4.77 7.672-1.74 5.692-.4 11.81-2.066 17.515-.26.98-.772 1.878-1.013 2.865-.415 2.283 1.195 4.443.59 6.725-.694 3.252-.706 6.717.415 9.875.55 1.508 1.785 2.617 3.01 3.59.908.75 2.178.745 3.296.754 2.758-.067 5.65-1.697 6.493-4.44 2.923-9.11 3.913-18.668 5.316-28.09.835-4.672.552-9.44.543-14.16-3.555-1.133-7.26-1.627-10.906-2.367-.3-.026-.662-.187-.907.06"/>
    <path d="M130.99 19.65c-1.75-1.946-4.01-3.364-6.344-4.502-1.197 2.515-1.182 5.357-1.884 8.01-.707 2.47-1.88 4.768-3.03 7.053-1.42 2.65-1.998 5.64-3.294 8.342-1.805 3.706-2.213 7.86-3.025 11.85-.32 1.163.204 2.305.512 3.41 1.965 1.372 4.364 1.85 6.702 2.144.01-1.88-.44-3.762-.13-5.634.133-.93.686-1.718 1.295-2.402.093 2.876-.323 5.735-.408 8.606 1.197-.306 2.44-.47 3.604-.9 1.76-1.496 1.92-3.983 2.24-6.11.136-1.93 1.89-3.073 2.704-4.69.876-1.594.696-3.474.725-5.224-.05-1.828 1.296-3.392 1.1-5.238-.142-1.884.502-3.697.624-5.56.284-3.076.266-6.435-1.39-9.155zm-8.924 22.216c1.75.92 3.342 2.565 3.316 4.67-1.418-1.298-2.742-2.798-3.316-4.67z"/>
    <path d="M87.604 50.082c.134 1.88.378 3.762.515 5.642.907.215 1.833.36 2.742.585-.533-1.69-.035-3.407.29-5.076-.15-1.336-1.12-2.37-1.813-3.465-.63.723-1.407 1.386-1.736 2.312"/>
    <path d="M83.406 56.432c.058.766.116 1.53.178 2.3.88-.597 1.866-1.086 2.562-1.907.378-1.16.178-2.396.17-3.584-1.027 1.01-1.993 2.083-2.91 3.192"/>
    <path d="M92.27 53.46c-.046.98-.075 1.964-.095 2.95.445.426.888.857 1.33 1.29-.028.196-.083.59-.113.784l2.163.306c-.312-1.133-.303-2.495-1.214-3.36-.654-.692-1.37-1.324-2.07-1.97"/>
    <path d="M94.152 60.84c-.08 1.444-.09 2.987-1.004 4.2-.61-.575-1.135-1.298-1.197-2.165-.16-1.77.688-3.41 1.47-4.935-2.523-.082-5.644-1.162-7.624 1 .405 1.448.78 2.9 1.165 4.356-.622.504-1.25 1.004-1.883 1.5-.355-1.425-.643-2.875-1.226-4.228-.605.75-1.09 1.633-1.12 2.62-.172 7.334 1.764 14.903 6.326 20.75.314.055.635.11.958.172 3.633-6.382 5.866-13.587 6.257-20.93.153-1.283-1.27-1.743-2.118-2.34zm-10.534 6.82c1.098-1.193 2.335-2.282 3.814-2.983.32 1.805.443 3.642.413 5.476-1.327-.957-2.42-2.524-4.227-2.492zm7.346 2.607c-.17-1.764-.41-3.64.434-5.28 1.173.625 2.26 1.4 3.3 2.232-1.248 1.015-2.48 2.043-3.734 3.047z"/>
    <path d="M119.015 62.94c1.316-1.113 2.122-2.755 2.184-4.48-.985 1.35-1.713 2.878-2.185 4.48"/>
    <path d="M58.298 58.898c.556 1.444 1.13 2.917 2.11 4.134-.226-1.138-.605-2.24-.948-3.342.515.122 1.04.256 1.563.36-.838-.532-1.788-.852-2.725-1.152"/>
    <path d="M55.226 61.524c1.162.384 2.332.748 3.5 1.118-.397-1.013-.79-2.026-1.186-3.04-.81.592-1.594 1.22-2.314 1.922"/>
    <path d="M15.882 88.1c.603 2.436 1.255 4.87 2.14 7.225-.128.11-.384.33-.512.437.594.65 1.293 1.234 1.692 2.035-.006 1.892-.515 3.762-.352 5.663 1.677-1.528 1.438-3.95 1.802-5.983-2.074-2.874-2.764-6.472-4.77-9.378"/>
    <path d="M72.223 154.802c-1.1.818-1.514 2.27-1.645 3.58-.128 1.987.128 3.978.2 5.96.84 1.727 2.994 3.087 4.907 2.31 1.147-.588 2.393-1.595 2.347-3.013.064-2.19.387-4.467-.37-6.575-.422-1.042-1.16-2.265-2.396-2.373-1.008.017-2.068-.204-3.043.11"/>
    <path d="M62.423 156.048c-.696 2.18-.31 4.54.277 6.702.865.42 1.72.856 2.574 1.304.786-.57 1.817-.98 2.242-1.913.492-2.22.198-4.526-.253-6.73-1.497-.8-3.885-1.112-4.84.638"/>
    <path d="M101.686 157.26c.125 2.698-.428 5.467.33 8.11 1.126 3.057 6.41 2.82 7.22-.35.255-2.2.48-4.462.05-6.654-.305-1.7-1.827-3.002-3.487-3.293-1.688-.152-2.966 1.147-4.114 2.186"/>
    <path d="M80.74 157.5c.095 2.432-.103 4.87.092 7.297.42 2.923 4.88 4.125 6.653 1.738 1.35-2.085.72-4.67.77-6.993.124-2.364-2.25-4.452-4.57-4.093-1.208.278-2.07 1.24-2.946 2.05"/>
    <path d="M94.594 155.632c-.91.402-1.79.888-2.57 1.505-.327.204-.493.542-.513.92-.343 2.236-.214 4.51-.107 6.76.247 2.594 3.64 4.242 5.817 2.786 1.438-.87 1.87-2.684 1.738-4.256-.125-1.907.364-3.968-.582-5.733-.547-1.034-1.715-1.438-2.734-1.83-.34-.088-.704-.368-1.048-.152"/>
    <path d="M112.115 158.395c-.1 1.712-.326 3.552.457 5.147.684 1.24 2.248 1.374 3.497 1.587.817-.96 2.02-1.864 1.996-3.25-.032-1.275-.017-2.556-.178-3.823-.166-1.357-1.41-2.416-2.73-2.574-1.56-.02-3.002 1.345-3.043 2.912"/>
    <path d="M77.918 174.958c2.312-.71 4.475-1.93 6.906-2.236 3.677-.71 7.506-.41 11.078.687 1.913.523 3.69 1.437 5.575 2.04-3.307-2.975-7.93-3.945-12.27-3.863-3.955-.094-8.302.532-11.29 3.37"/>
    <path d="M85.28 108.71c.414.19.895.153 1.343.223-.364-.868-.766-1.724-1.3-2.498-1.114.283-.78 1.764-.042 2.274"/>
    <path d="M92.207 108.49c.122.912.245 1.826.37 2.74 1.65-.057 3.37.094 4.946-.51-1.432-.35-2.906-.476-4.358-.695l-.058-.804c.783-.23 1.57-.45 2.332-.747-1.08-.055-2.156-.012-3.233.018"/>
    <path d="M81.234 110.837c1.782.146 3.575.166 5.357.03-.5-.47-.96-1.174-1.725-1.157-1.293.024-2.484.594-3.63 1.127"/>
    <path d="M80.63 112.022c.327.626.82 1.29 1.602 1.293.565.096.88-.45 1.234-.772-.88-.428-1.865-.538-2.835-.52"/>
    <path d="M38.567 88.344c-.332 2.72.495 5.38 1.246 7.96 2.218.99 4.37 2.137 6.364 3.526.955.693 2.2.507 3.3.378-1.166-.43-2.39-.737-3.454-1.397-1.78-1.01-3.208-2.544-4.242-4.3-.092.455-.188.91-.28 1.366-.644-.95-1.308-1.913-1.594-3.037-.395-1.512-.267-3.24-1.34-4.496"/>
    <path d="M42.518 98.432c.413 1.25 1.456 2.18 2.673 2.632-.46-1.22-1.376-2.29-2.672-2.632"/>
    <path d="M102.033 99.69c1.51 1.938 4.166 1.94 6.4 1.865 1.466-.13 3.015.268 4.404-.384-3.64-.063-7.386-.045-10.804-1.48"/>
    <path d="M66.662 62.456c.294.87.623 2.76 1.927 2.14.163-1.18-1.05-1.74-1.928-2.14"/>
    <path d="M153.54 90.542c-1.222-2.448-1.68-5.17-2.49-7.76-.106 3.273.01 6.584-.68 9.807.775 1.536 1.643 3.05 2.074 4.733-1.06-.853-1.945-1.89-2.745-2.98-.586 3.15-1.82 6.448-4.563 8.337 3.453-7.33 5.182-15.81 3.144-23.79-.855-2.84-1.32-5.796-2.35-8.588-.668-.317-1.355-.597-1.98-.984-.543-.544-.92-1.252-1.567-1.697-1.43-1.053-3.194-1.752-4.19-3.306 2.74.547 4.822 2.527 7.24 3.77-1.634-2.23-3.518-4.498-6.167-5.53-.742-.168-.885-1.003-1.246-1.55 1.962-2.18 3.368-4.77 5.063-7.146.56-.748.83-1.683.827-2.612.038-2.102-.9-4.047-1.16-6.108 1.2 1.16 1.83 2.722 2.54 4.198 1.004-3.828 1.496-8.027-.032-11.788-.498-1.642-1.703-3.214-3.49-3.494-2.045 2.742-2.607 6.24-4.46 9.083-.58.93-1.265 1.808-1.646 2.844-.477 1.253-.696 2.598-1.304 3.803-.97 1.965-2.24 3.89-2.387 6.134-.118 1.098.298 2.146.505 3.205-.935.673-1.892 1.316-2.798 2.026 1.71.073 3.43.137 5.133-.076-.833-.428-1.747-.632-2.65-.833 1.276-.77 2.537-1.567 3.78-2.385.62.678 1.243 1.36 1.87 2.038-.915-.006-1.83-.012-2.738.064.818.652 1.904.524 2.88.617-1.65.78-3.288 1.604-4.723 2.737-.324-.258-.642-.514-.96-.77-1.027.012-2.098-.148-3.094.146-.53.478-.9 1.1-1.336 1.66-.86.29-.862 1.386-1.392 2.01-4.48 6.558-11.296 11.214-18.59 14.154 1.486-1.97 3.483-3.453 5.486-4.856 2.638-1.9 5.252-3.837 7.738-5.936 1.85-1.52 3.665-3.1 5.74-4.315-.23-.274-.46-.544-.683-.815-1.317-.084-2.656-.052-3.926.335.27-.376.725-.687.766-1.176-.08-.687-.53-1.25-.856-1.83.856-.074 1.715-.155 2.574-.24-.812-.777-1.627-1.546-2.45-2.31-.42.93-.813 1.873-1.07 2.86.32.37.636.737.965 1.11-1.607.587-3.334.977-5.04.605.14-.536.27-1.077.4-1.613-1.497 1.542-2.767 3.3-4.37 4.745.34-1.09.826-2.12 1.344-3.13-.326-.3-.646-.606-.97-.9-.852 1.73-1.833 3.47-3.394 4.664.737-1.946 1.97-3.672 2.568-5.675-.835.774-1.373 1.85-2.334 2.48-.897.402-1.85.673-2.72 1.127.965-2.076 1.53-4.533.595-6.728-.736 1.2-.858 2.632-1.225 3.96-.288 1.36-1.32 2.546-2.612 3.036-.623-.21-1.147-.614-1.694-.958-.973 1.18-2.013 2.303-3.122 3.354.017-.582.038-1.165.06-1.744-.83 0-1.658.012-2.485.03-.032 4.113-1.71 7.93-3.013 11.755-.952 2.722-2.3 5.363-4.344 7.433-1.15-.716-2.15-1.662-2.885-2.804-3.14-4.923-4.992-10.6-5.702-16.38-.696-.02-1.392-.038-2.085-.052.265.652.53 1.304.783 1.962-1.374-1.022-2.513-2.312-3.494-3.706-.582.37-1.162.742-1.74 1.12-.752-.63-1.63-1.187-2.118-2.066-.725-1.52-.533-3.46-1.85-4.682-.133 2.102-.075 4.274.78 6.236-1-.483-2.215-.658-3.137.084.23.838.597 1.633.95 2.428-1.75-1.357-2.586-3.476-3.98-5.14-.28 1.55.433 2.97 1.11 4.304-1.16-.716-2.014-1.802-2.733-2.943-1.09.598-2.192-.05-3.322.126-1.392-.352-2.713-.943-4.12-1.252.585.725 1.194 1.43 1.83 2.108-1.562-.6-3.32-.52-4.817.236 3.852 3.363 7.922 6.466 11.957 9.602 2.157 1.712 4.62 3.138 6.25 5.42-5.05-1.874-9.697-4.83-13.56-8.582-1.843-1.747-3.267-3.875-5.142-5.59.04-.384.082-.766.125-1.147-.917-.634-1.648-1.484-2.184-2.456-1.434-.038-2.92.032-4.2.757-.43-.51-.868-1.01-1.307-1.504-.958-.032-1.916-.052-2.87-.05-1.637 1.352-3.75 2.123-5.06 3.85-.805.955-1.617 1.91-2.272 2.973 2.2-1.22 4.013-3.474 6.738-3.425-1.18 1.502-3.136 2.03-4.414 3.42-.897.94-1.956 1.698-3.013 2.447-.893 4.556-2.605 8.976-2.76 13.657-.313 6.305 1.28 12.556 3.783 18.306-2.472-2.047-3.537-5.176-4.536-8.11-.638.884-1.345 1.728-2.21 2.407.393-1.735 1.47-3.243 1.744-5.01.053-1.305-.474-2.546-.58-3.835-.275-1.988.066-3.98.244-5.96-.996 2.023-1.243 4.306-2.01 6.414-.99 3.063-2.86 5.77-3.685 8.89-.53 2.126.476 4.185 1.13 6.16.552 1.478.593 3.068.677 4.625.102 2.41.984 4.72 2.137 6.816 2.256 3.997 5.753 7.118 9.453 9.753-.94.745-1.87 1.502-2.79 2.268.123.815.24 1.63.35 2.45 1.135-1.542 2.513-3.01 4.376-3.635.384.6.754 1.207 1.11 1.824 1.26-2.044 2.977-3.738 4.52-5.56-.94.4-1.855.855-2.79 1.27 1.067-1.886 2.703-3.37 4.537-4.494-.227 1.068-.233 2.204-.603 3.237-1.234 1.764-2.684 3.37-4.2 4.894.49 2.74-2.27 4.64-2.144 7.314 1.004-1.6 1.566-3.427 2.54-5.048.628.16 1.19.486 1.647.95-.646 1.27-1.304 2.54-1.84 3.868.77-.652 1.494-1.36 2.242-2.038-.85 2.903-2.373 5.674-2.43 8.76.957-1.508.79-3.398 1.568-4.976 1.103-2.41 1.965-4.98 2.08-7.648 5.164-4.708 10.398-9.59 16.847-12.49 1.97-.943 4.128-1.4 6.12-2.3 2.46-1.063 4.75-2.547 6.612-4.49 3.24-3.097 6.858-6.32 11.467-6.986-1.724 1.293-3.72 2.146-5.517 3.325-1.67 1.125-3.24 2.406-4.655 3.844-1.994 1.968-3.954 4.125-6.57 5.27-2.907 1.115-6.033 1.67-8.785 3.18-3.983 2.183-7.654 4.925-10.953 8.043-1.724 1.665-2.026 4.15-2.722 6.326-.463 1.627-1.55 2.97-2.186 4.524-.71 1.572-1.09 3.302-.968 5.034.722-2.494 1.328-5.062 2.667-7.318 1.08 1.01 2.104 2.085 3.053 3.223-.023-3.03 2.114-5.337 3.558-7.794 2.31-4.127 5.865-7.464 9.914-9.86 2.664-1.584 5.584-2.693 8.175-4.402 1.612-1.063 2.945-2.472 4.418-3.706 2.696-2.283 5.456-4.492 8.327-6.55 1.19-.86 2.734-.962 4.15-.764.046 1.406.037 2.818.008 4.227-.824-.996-1.61-2.032-2.542-2.93 1.043 1.864 2.29 3.99 1.47 6.188-2.806.742-4.724 3.156-7.423 4.117-2.216.763-4.594.716-6.86 1.25-4.317 1.094-8.442 3.044-11.898 5.87-3.265 2.656-5.93 6.132-7.326 10.127-.853 2.405-2.21 4.583-3.418 6.82.472-.153.95-.305 1.424-.46 1.278 1.768 2.754 3.5 3.34 5.646-.123 1.81-.85 3.534-.906 5.36 1.048-1.427 1.202-3.237 1.537-4.917 1.754.413 3.212 1.627 5.01 1.904 3.216.568 6.4-.48 9.612-.56-.576.446-1.162.88-1.735 1.332 2.163-.05 4.353-.163 6.487.294-2.722.51-5.555.454-8.2 1.36-1.332.454-2.75.512-4.14.463 1.216-.848 2.69-1.168 3.96-1.91-1.693.185-3.31.76-4.934 1.24-.026.724-.05 1.452-.067 2.185 2.734-.932 5.523-1.738 8.388-2.15 4.563-.423 9.137.11 13.687.45 2.52.18 5.048.565 7.58.314 4.16-.25 8.336-.123 12.5-.347 2.667-.154 5.284.49 7.934.632-4.78-1.87-10.058-1.505-15.065-1.03.087-.31.175-.615.268-.915 3.756.553 7.53-.294 11.296-.058-.362-.408-.726-.812-1.084-1.217 1.782-.015 3.564.114 5.342.256-.393.685-.79 1.37-1.11 2.09.898-.625 1.56-2.005 2.848-1.67 3.112.54 6.312-.27 9.008-1.846.408 1.668.297 3.56 1.42 4.976.202-2.015-.616-3.91-.85-5.872 1.238-1.863 2.586-3.654 4.01-5.38 2.175 4.32 1.176 9.28 1.93 13.873.8-3.932-.352-7.87-.812-11.767-.413-3.26-2.594-5.87-3.72-8.874-1.585-4.307-4.595-8-8.264-10.72-4.74-3.506-10.528-5.498-16.39-5.897-2.29-.154-4.348-1.313-6.16-2.64.324-.426.627-.874 1.02-1.238.777-.364 1.657-.457 2.428-.844-1.517-.238-2.9.508-4.137 1.28-.953-.286-1.914-.543-2.866-.828-.3-1.138-.79-2.28-.687-3.473.352-1.352 1.71-2.17 3.045-2.254-.53-.352-1.05-.722-1.566-1.086-.693.987-1.386 1.977-2.047 2.984-.106-1.415-.164-2.836-.173-4.254 1.363.154 2.82.245 3.986 1.054 3.476 2.39 6.877 4.906 10.076 7.663 1.51 1.313 3.137 2.51 4.9 3.47 1.36.754 2.826 1.296 4.22 1.986 3.267 1.587 6.4 3.54 9 6.096 2.372 2.38 3.976 5.365 5.854 8.122.856 1.23 1.316 2.676 1.654 4.123.07.058.207.178.277.236.93-1.033 1.904-2.025 2.856-3.038 1.713 3.558 3.308 7.322 3.434 11.325.143 2.72-.052 5.447.198 8.164.172 2.243.83 4.43.81 6.694.64-1.1 1.216-2.236 1.856-3.334-.57.137-1.133.282-1.697.428-.086-1.642-.197-3.284-.072-4.926.47-.183.938-.37 1.412-.544.192-3.92-.6-7.893.338-11.762.247.42.5.84.77 1.255-.283-3.915-2.022-7.502-3.75-10.955.424-.597.846-1.197 1.28-1.788 1.316 2.11 1.76 4.687 3.395 6.61-.47-2.528-1.86-4.744-2.885-7.067.533-.227 1.07-.45 1.613-.664-3.073-1.35-4.762-4.387-6.943-6.757.576.072 1.162.15 1.747.223-.56-.7-1.13-1.39-1.66-2.108 2.272.568 3.955 2.352 5.1 4.31-1.163-.656-2.25-1.433-3.448-2.024 1.543 2.05 3.435 3.8 5.124 5.725.652-.437 1.34-.827 2.096-1.06 1.514 1.56 2.958 3.19 4.288 4.914.105-.92.256-1.832.507-2.723-1.335-.903-2.552-2-3.408-3.377 2.33-1.954 4.667-3.916 6.702-6.184 2.416-2.64 4.385-5.83 4.993-9.404.303-1.555.047-3.168.45-4.708.41-1.875 1.32-3.604 1.68-5.488-.066-3.2-1.857-5.973-3.196-8.774zM78.76 72.68c-1.663-.824-3.145-2.105-3.856-3.855 1.893.49 3.063 2.187 3.855 3.855zm-1.206 7.35c-1.657-1.777-3.115-3.76-4.14-5.97 2.006 1.398 4.288 3.255 4.14 5.97zm-5.584 6.753c-3.037-1.074-6.012-2.783-7.843-5.51 2.914 1.335 5.82 2.96 7.843 5.51zm-8.638-6.038c-1.39-.36-2.39-1.517-2.77-2.87 1.524.125 2.502 1.467 2.77 2.87zM50.37 67.385c2.882 4.213 6.434 7.902 9.858 11.67 3.485 3.548 7.127 7.138 11.672 9.304 1.12.573 2.128 1.338 3.08 2.162-3.91-.463-7.328-2.687-10.257-5.188-4.597-3.95-8.557-8.568-12.353-13.276-1.875-2.437-4.064-4.684-5.395-7.49 1.35.627 2.554 1.58 3.395 2.817zm-5.66 39.254c2.52.695 4.962 1.702 7.565 2.063 2.154.33 4.33-.05 6.49.087-4.482 2.242-10.71 1.922-14.054-2.15zm14.517 10.116c-1.316 1.01-2.513 2.178-3.925 3.057-1.25.81-2.588 1.46-3.933 2.087.153-.41.308-.82.465-1.23 2.88-1.548 5.176-3.976 8.11-5.43-.12.547-.22 1.172-.718 1.516zm-10.93-11.28c-1.173-.258-2.146-1.006-3-1.816 5.076-.463 10.098.8 15.17.72.177.313.354.634.532.957-4.196.562-8.528 1.156-12.703.14zm34.655-7.347c-.344-.362-.684-.723-1.02-1.08-1.143.616-2.558.968-3.286 2.142-.96 1.496-2.492 2.45-3.776 3.636 1.494-.56 2.882-1.377 4.428-1.796-1.59 2.047-4.15 2.894-6.577 3.462.385-.55.772-1.098 1.16-1.645-3.17.13-6.25.97-9.398 1.286-1.662.192-3.328-.076-4.98-.236-.648-.2-1.21-.6-1.8-.92 3.044-.023 6.12-.026 9.13-.55-2.52-.41-5.073-.073-7.608-.15-2.94-.085-6.096 1.35-8.845-.295 1.056-.338 2.153-.5 3.24-.702-.618-1.202-2.068-.856-3.166-1.054-.542.904-1.133 1.778-1.747 2.634-1.45-.023-2.897-.038-4.344-.064.04.62.084 1.246.122 1.872-1.595-.93-2.93-2.256-3.9-3.826.66.038 1.324.09 1.988.14-.314-.745-.638-1.49-.932-2.242-.613-.09-1.408.134-1.84-.43-1.385-1.527-1.88-3.576-2.637-5.437-.562 3.68 2.1 6.632 3.54 9.753-4.274-2.906-7.35-7.555-8.27-12.65-.7-4.414.19-9.084 2.544-12.89.763-1.228 2.102-1.89 3.34-2.54 2.156.805 4.314 1.702 6.168 3.094 5.412 4.088 10.854 8.143 16.345 12.132-.99.716-1.99 1.418-3.025 2.067-.143 1.85.437 3.977 2.152 4.946.77.567 1.642-.182 2.35-.516 1.46-.84 1.874-2.623 1.85-4.19 2.997 1.333 6.23 1.977 9.31 3.08 2.616.905 5.458 1.788 8.22.98-.5-1.577-1.763-2.683-2.79-3.912 1.752.65 3.67 1.616 4.218 3.566.58-.507 1.17-1.004 1.773-1.48-.4 1.383-1.075 2.664-1.936 3.81zm-1.584-8.44c-1.287.62-2.638 1.388-4.122 1.132-.914-.067-1.662-.632-2.265-1.272 1.463-.07 2.95.102 4.388-.236 1.444-.344 2.55-1.505 4.026-1.76.56-.113 1.106.126 1.563.432-1.18.6-2.41 1.1-3.59 1.703zm-24.893 55.554c-.26-.41-.512-.82-.77-1.226 1.99-3.523 2.875-7.85 6.16-10.496-1.622 3.986-3.794 7.725-5.39 11.722zm65.623-4.885c.932 2.095 2.04 4.186 2.224 6.515-1.22-.69-1.473-2.117-1.948-3.307-1.18-3.197-3.19-6.01-4.326-9.223 1.878 1.588 3.052 3.804 4.05 6.014zm-24.476 7.222c.28-3.127-.09-6.265.128-9.392 1.94 2.667 1.278 6.11 1.147 9.17 1.99-.005 4.038.12 5.89.933-4.926 1.034-9.986.693-14.98.667-.546-.006-1.094.015-1.626.134 1.905.25 3.844.07 5.74.43-2.71 2.234-6.357 1.02-9.416.394.3-.36.6-.72.903-1.077-1.066-.034-2.178-.26-3.21.085-.516.396-.95.894-1.486 1.27-.925.057-1.033-1.15-1.01-1.838-1.92-.012-3.845-.09-5.75-.364 2.08-.608 4.266-.582 6.412-.606-.317-3.03-.542-6.303.978-9.078.262 3.018.08 6.052.128 9.077 5.376.32 10.77.445 16.154.195zm21.754-70.24c-.533 1.846-2.07 3.185-3.796 3.91.79-1.683 2.174-3.025 3.796-3.91zm-4.175 4.11c-1.894 2.62-4.8 4.287-7.77 5.413 2.044-2.47 4.863-4.146 7.77-5.412zm3.576-1.802c3.558-3.73 7.22-7.395 10.228-11.6 1.004-1.475 2.29-2.803 3.93-3.566-.996 2.236-2.64 4.076-4.213 5.92-3.598 4.325-7.152 8.722-11.27 12.573-3.737 3.453-8.02 6.533-12.966 7.95.603-.942 1.467-1.696 2.483-2.168 4.59-2.067 8.313-5.572 11.81-9.11zm-13.008-5.32c-1.188 2.05-2.524 4.11-4.495 5.492.556-2.413 2.326-4.373 4.495-5.49zm-1.688-5.586c-.585 1.79-1.898 3.47-3.834 3.852.975-1.546 2.253-2.917 3.834-3.852zM95.104 87.43c2.18 1.26 4.58 2.08 6.766 3.328-2.86.603-5.165-1.54-7.79-2.186.345-.377.683-.76 1.024-1.142zm37.982 39.903c1.01.705 1.48 1.92 1.572 3.112.233 2.72 1.377 5.232 2.478 7.692.285.594.475 1.275.975 1.738-.68-2.603-2.12-4.97-2.468-7.663 1.89 2.108 2.742 4.87 3.494 7.54-.39.463-.83.9-1.106 1.447-.17 3.254.314 6.53-.13 9.775-.1.542-.548.914-.85 1.345-.18-.393-.435-.777-.432-1.217-.14-2.533-.026-5.077-.277-7.604-.278-3.436-1.57-6.735-3.414-9.626-1.112-1.74-.865-3.942-1.855-5.73-1.044-2.248-3.22-3.575-5.076-5.075-2.69-2.06-5.53-3.958-8.615-5.378-3.5-1.636-7.536-1.933-10.814-4.07-2.734-1.76-4.65-4.49-7.313-6.335-2.32-1.77-5.022-2.932-7.474-4.495 1.504-.003 2.95.5 4.26 1.214 3.774 2.01 6.91 4.973 10.165 7.7 2.876 2.2 6.484 2.988 9.82 4.21 6.5 2.42 11.695 7.187 17.06 11.417zm-14.345-21.885c.298-.36.543-.777.9-1.08 5.09.087 10.124-1.252 15.222-.798-.94.737-1.933 1.47-3.115 1.756-4.257 1.118-8.688.463-13.006.122zm2.697 10.784c2.34 1.892 5.226 3.12 7.153 5.505-3.497-1.18-6.757-3.272-8.973-6.254.632.17 1.305.312 1.82.75zm8.257-6.455c-2.652.41-5.523.562-7.97-.737 4.674.035 9.262-1.002 13.714-2.338-1.453 1.707-3.56 2.714-5.744 3.075zm10.647-7.846c-.235-.49-.47-.986-.7-1.472l.9.143c1.52-2.36 2.983-4.98 2.913-7.877-.978 2.07-1.87 4.204-3.255 6.044-.43-.13-.856-.26-1.28-.387-.636.836-1.104 1.78-1.462 2.763l1.552-.77c.2.208.405.42.614.63-1.208 1.363-2.5 2.664-4.006 3.7.128-.74.268-1.48.405-2.216-1.528.064-3.097.312-4.596-.105-.888-.265-1.415-1.08-1.974-1.756 3.013.015 5.698-1.494 8.172-3.045-.868 1.256-1.983 2.316-2.9 3.532 2.248-1.007 3.47-3.27 4.57-5.342.403.297.825.576 1.233.876.56-2.708 1.47-5.41 1.243-8.21-1.22 2.166-1.173 4.775-2.344 6.964-.37-.373-.73-.742-1.086-1.124-1.22 2.277-3.18 4.236-5.666 5.063-2.15.794-4.68.43-6.588 1.877 1.07.192 2.154.306 3.237.443-.803.428-1.577 1.112-2.538 1.07-4.77-.46-9.622-.83-14.38-.127 2.918.73 5.934.192 8.898.346-.052.878-1.17.907-1.823 1.146-4.2.533-8.376-.472-12.52-1.028-1.268-.204-2.637-.14-3.76-.86-1.602-.88-2.583-2.468-3.745-3.807-1.263-.61-2.748-1.108-4.117-.523-.413-.766-.836-1.523-1.28-2.268 2.264.054 3.507-2.106 5.414-2.918-.653 1.35-1.756 2.387-2.72 3.508 2.754 1.23 5.75.2 8.472-.58 3.435-1.11 6.944-2.052 10.236-3.557.055 1.296.02 2.82 1.048 3.788 1.17.796 2.664.42 3.986.423.804-1.2 1.517-2.52 1.517-4.006-.965-.984-2.123-1.732-3.233-2.533 4.795-3.278 9.488-6.705 14.12-10.21 2.507-1.916 5.05-3.977 8.155-4.818 1.255-.175 2.518.306 3.622.865 2.725 3.457 4.047 7.967 3.796 12.348-.5 5.556-3.637 10.75-8.13 14.013z"/>
    <path d="M129.87 138.024c.506 1.697 1.54 3.19 1.897 4.94.87 3.64.282 7.413-.364 11.038-.227 1.523-.86 3.098-.213 4.606.614 1.694-.183 3.438-1.173 4.804-.19-2.117-.096-4.245-.11-6.367-.27.195-.53.393-.793.59.576 2.47.367 5.058-.466 7.445 1.76-1.197 3.5-2.96 3.49-5.235.024-1.045-.995-1.843-.773-2.894.39-4.456 1.62-8.92.95-13.412-.25-2.114-1.166-4.05-2.118-5.922-.113.13-.223.268-.328.408"/>
    <path d="M165.82 87.63c-1.062 1.12-1.6 2.588-2.23 3.97-.782 1.748-1.54 3.512-2.244 5.294-.405-.137-.818-.277-1.217-.405.578 2.1 1.248 4.177 1.947 6.24-.11.982-.422 1.95-.306 2.95.173 2.45-.01 4.906-.046 7.357l.515-.42c-.13-1.658-.318-3.327-.13-4.986.126-1.164.627-2.24.78-3.4.315-2.24-.083-4.494-.328-6.72.437-.46.958-.863 1.26-1.43.065-.696-.12-1.424.164-2.087.393-1.04 1.068-2 1.095-3.147.106-2.352 1.928-4.134 3.777-5.345.524-.427 1.41-.648 1.313-1.52-1.527 1.112-3.056 2.262-4.35 3.65"/>
    <path d="M175.07 82.687c-.733-1.103-1.938-1.78-3.21-2.064-1.595 1.002-3.124 2.125-4.463 3.45 1.112-.312 2.207-.713 3.37-.806-.302.166-.602.338-.9.51.36.128.717.26 1.08.393-.695 1.53.016 3.138.304 4.673.3-.27.598-.542.904-.81-.17-.686-.335-1.367-.495-2.054.683.55 1.362 1.108 2.05 1.66.573-1.717.36-3.55-.12-5.257.52.408 1.036.827 1.555 1.246-.282 1.236-.547 2.48-.795 3.726.55.288 1.098.58 1.65.876.44-1.877.206-3.955-.93-5.545zm-3.35 1.467c-.064-.393-.125-.786-.18-1.176.434-.015.873-.026 1.313-.035.02.445.04.89.067 1.34-.405-.044-.8-.085-1.2-.13z"/>
    <path d="M159.524 95.07c-.277.244-.285.654-.11.963.468.265 1.082-.01 1.21-.536-.104-.48-.713-.908-1.1-.428"/>
    <path d="M156.945 125.447c1.587-.51 1.855-2.317 1.825-3.75-1.11.937-1.697 2.323-1.825 3.75"/>
  </g>
</svg>
