<svg xmlns="http://www.w3.org/2000/svg" viewBox="0 0 200 200">
  <path d="M122.48 9.572c-.498 3.77-.664 7.608-.786 11.36-.168 5.152-1.44 10.19-1.135 15.386.113 1.942-.236 4.052-.533 6-1.025 6.725-.7 13.544-1.736 20.262-.303 1.972.145 4.017-.32 6.08-.41 1.828 2.064 3.288 4.385 3.112 4.44-.336 8.852-.834 13.363-.377 3.665.37 7.417-.194 11.13-.19 2.958.003 5.915-.313 8.883.34 1.622.357 3.395.287 5.065.102 2.782-.308 5.574.503 8.336-.19 1.39-.348 2.45.54 3.632.985 1.09.41 2.202.633 2.982-.548.87-1.32-.17-1.985-.985-2.76-5.38-5.095-9.32-11.21-12.585-17.803-.267-.538-.684-1.477-.21-1.62 2.19-.657 3.386-2.7 5.333-3.58.916-.412 1.913.206 2.307 1.166 2.61 6.36 7.174 11.377 11.5 16.513 1.78 2.113 3.603 4.268 5.784 6.07 2.106 1.742 3.337 4.34 6.18 5.464 1.68.663 2.18 4.597 1.416 6.224-.874 1.86-2.033 2.516-4.264 2.166-3.645-.572-6.818-2.56-10.515-2.995-1.644-.195-3.197-1.103-4.942-.454-.224.083-.542.092-.756 0-3.873-1.684-8.043-.608-11.957-1.278-4.488-.768-8.97-.408-13.416-.617-5.31-.25-10.716-.016-16.07-.004-3.59.008-7.074.525-10.596.895-3.035.32-4.31 1.71-4.137 4.687.43 7.393.07 14.796.173 22.19.104 7.552.39 15.065.896 22.596.662 9.858.983 19.74 1.495 29.608.074 1.43.595 2.823.018 4.28-.282.714.088 1.343.844 1.634.865.333 1.817.335 2.38-.39 3.59-4.628 8.935-6.608 13.764-9.435 10.817-6.333 22.375-10.92 34.096-15.182 1.83-.666 3.476-.655 4.942.872 1.646 1.714 1.56 3.01-.61 3.96-6.8 2.973-13.38 6.404-20.242 9.26-6.92 2.883-13.24 6.95-19.485 11.084-1.205.798-2.48 1.533-3.542 2.497-6.664 6.052-9.534 13.613-9.033 22.583.092 1.648.06 3.437-.224 5.012-.358 1.99-2.62 2.73-4.364 2.94-2.88.348-5.575-3.478-5.502-6.375.133-5.242.16-10.51-.483-15.738-.825-6.698-.5-13.453-1.05-20.16-.41-5-.29-10.02-.79-15.022-.403-4.03-.64-8.088-.608-12.163.025-3.282-.532-6.566-.6-9.854-.096-4.636.244-9.29-.014-13.91-.302-5.414.042-10.828-.326-16.226-.1-1.48.106-2.88.24-4.323.244-2.662-.96-3.712-3.532-3.273-1.576.27-3.163-.08-4.777.54-2.61 1-3.565 2.118-3.252 4.836.51 4.436.167 8.882.236 13.323.055 3.564-.052 7.186.55 10.673.834 4.818.404 9.677.958 14.52.567 4.952.08 10.16.588 15.184.63 6.232-.245 12.41.035 18.63.172 3.837-.172 7.786-.267 11.688-.053 2.17.092 4.266.704 6.325.255.856.32 1.626.013 2.488-1.07 3.022-1.864 3.484-4.935 2.587-2.63-.768-4.394-2.485-6.097-4.673-1.828-2.348-3.493-4.88-6.068-6.74-2.373-1.713-4.604-3.823-6.62-5.96-3.694-3.915-8.654-5.413-13.15-7.785-3.833-2.023-7.775-3.847-11.732-5.645-7.588-3.448-15.31-4.08-23.064-1.334-5.084 1.8-8.818 5.495-11.427 10.377-1.77 3.313-2.654 6.803-3.266 10.42-.51 3.008-1.937 5.654-3.232 8.34-1.028 2.134-2.56 2.334-4.27.65-2.1-2.066-2.205-4.853-1.917-7.43.316-2.827-.11-5.638.25-8.432.778-5.996.008-12.202 2.44-17.976.195-.465.38-1 .35-1.486-.44-6.788 3.58-12.022 6.464-17.532 1.235-2.36 4.01-4.02 6.558-5.376.656-.35 1.51-.62 2.16.035.693.7.235 1.513-.168 2.113-1.754 2.607-2.328 5.885-4.792 8.107-1.228 1.107-.62 2.94-1.224 4.37-1.277 3.018-3.066 5.857-2.438 9.48.197 1.134-.942 2.494-1.448 3.76-.26.648-.51 1.424.1 1.91.715.57 1.215-.213 1.753-.578 2.534-1.72 4.287-4.27 6.904-6.018 2.72-1.815 5.532-3.012 8.602-3.627 4.186-.84 8.695-1.253 12.667-.373 4.334.96 8.974 1.085 13.065 3.268 3.24 1.73 6.604 3.236 9.957 4.742 2.437 1.095 4.735 2.354 6.665 4.237 1.666 1.624 3.6 2.837 5.726 3.81 2.028.93 3.91 2.11 5.09 4.15.533.923 1.51 1.385 2.464 1.764 1.643.65 3.025 1.47 3.613 3.33.33 1.04 1.242 1.73 2.414 1.402 1.15-.322 1.107-1.42 1.076-2.352-.21-6.325.19-12.647.11-18.98-.07-5.453-.08-10.953-.354-16.378-.32-6.357-.625-12.74-1.123-19.1-.314-4.002-.26-8.09-.388-12.12-.14-4.383.31-8.84-.744-13.19-.366-1.508-1.026-1.856-2.567-1.43-4.782 1.32-9.444 2.996-14.086 4.71-4.442 1.642-8.073 4.654-11.857 7.423-2.887 2.112-4.554 5.418-7.63 7.31-.59.365-1.088 1.18-1.258 1.877-.652 2.674-2.93 3.1-5.004 3.82-.678.235-1.357.09-1.927-.39-1.097-.918-1.984-6.014-.913-6.99 2.52-2.295 2.977-5.337 3.96-8.343 1.37-4.202 3.422-8.2 5.372-12.19 1.623-3.325 2.446-6.935 3.366-10.416 1.2-4.542 3.336-8.133 6.924-10.957 1.5-1.18 3.45-1.493 5.084-.765 1.674.745 1.863 2.75 2.107 4.436.14.965-.58 1.533-1.38 1.964-3.398 1.833-5.248 4.923-6.182 8.45-.972 3.67-2.167 7.182-4.257 10.363-.432.66-.856 1.433-.222 2.112.8.856 1.57.186 2.25-.324 7.16-5.367 15.85-7.015 24.042-9.858.623-.216 1.348-.142 2.027-.195 2.14-.167 2.95-1.255 2.728-3.412-.3-2.93.04-5.857.3-8.77.203-2.258.052-4.515.2-6.78.452-6.92.644-13.87-.844-20.762-.64-2.972 1.853-4.803 4.773-3.867 3.876 1.243 3.773 1.476 3.847 5.688.07 3.992-.457 7.99.227 11.993.336 1.967-.268 4.107-.594 5.966-.516 2.934-.275 5.894-.878 8.81-.502 2.43-.256 5.036-.178 7.56.033 1.08.75 2.226 1.97 1.8 2.086-.73 4.246-.104 6.33-.734 2.5-.756 3.617-2.228 3.33-4.864-.532-4.892.154-9.753.333-14.63.102-2.77.686-5.49.398-8.33-.25-2.475.647-4.964.515-7.573-.18-3.52.048-7.202.733-10.582.924-4.563.083-9.13.995-13.613.1-.49.085-1.037-.023-1.526-.875-3.982.796-6.543 4.327-8.273 2.434-1.19 4.073-.686 4.904 1.89.23.717.297 1.506.328 2.266.028.768-.08 1.538-.126 2.306z"/>
</svg>
