<!--
  SVG Music Logos
  Jota Quest - Discotecagem Pop Variada v0.1.1
  https://github.com/tiagoporto/svg-music-logos
  Copyright (c) 2016-2018 Tiago Porto (http://tiagoporto.com)
-->
<svg xmlns="http://www.w3.org/2000/svg" viewBox="0 0 139 200" class="jota-quest--discotecagem-pop-variada">
  <path d="M103.844 4H35.156C18.686 4 5.212 17.475 5.212 33.943v104.644c0 16.47 13.475 29.943 29.943 29.943h68.69c16.468 0 29.942-13.475 29.942-29.943V33.943C133.787 17.475 120.313 4 103.844 4z"/>
  <path d="M115.415 196c4.85 0 8.387-5.06 8.387-9.985v-1.598c0-4.594-4.38-8.787-9.186-8.787h-92.26c-4.177 0-8.788 4.352-8.788 7.988v3.994c0 4.174 4.388 8.387 9.187 8.387h92.66z"/>
  <path class="jota-quest__letter" d="M71.88 145.675c0 .92-.277 1.198-1.197 1.198H65.89v-72.29H19.16v55.516c0 14.198 10.023 23.164 24.363 23.164h53.52c12.124 0 22.366-9.18 22.366-20.77V27.055H71.88v118.62z"/>
  <polygon class="jota-quest__star" points="42.848 21.474 48.023 37.401 64.769 37.401 51.221 47.244 56.396 63.171 42.848 53.328 29.3 63.171 34.475 47.244 20.927 37.401 37.673 37.401"/>
</svg>
