<!--
  SVG Music Logos
  Kiss - Hotter than Hell v0.1.1
  https://github.com/tiagoporto/svg-music-logos
  Copyright (c) 2016-2018 Tiago Porto (http://tiagoporto.com)
-->
<svg xmlns="http://www.w3.org/2000/svg" viewBox="0 0 200 86.667" class="kiss--hotter-than-hell">
  <path class="kiss__border" d="M3.65 2.64v81.42h27.447V52.923c8.072 7.954 10.538 18.99 10.538 31.138h24.982l1.845-1.844 2.075 1.845H93l1.294-1.844 1.384 1.845h31.138l17.068-43.13h20.528l-15.915 43.13h31.37l17.298-59.738h-21.22l8.534-21.68h-29.294l-8.995 21.68h-17.76l10.61-21.68h-28.83L95.68 28.01V2.64H66.618v55.247c-4.38-8.617-9.454-16.19-15.916-23.417 4.308-5.104 13.582-19.188 14.3-31.83h-28.37c-.535 4.152-2.84 8.954-5.535 11.727V2.64H3.65zm92.723 38.29h17.067L96.258 75.36l.115-34.43z"/>
  <path d="M7.802 6.792V80.37h19.144V43.696C40.786 50.942 46.09 66.872 46.09 80.37h20.528c-1.615-21.44-11.773-36.674-21.912-44.866 7.156-9.686 12.462-17.404 14.53-28.712h-18.45c-2.995 8.158-6.8 12.845-13.84 18.224V6.792H7.802z"/>
  <polygon points="70.538,6.792 91.758,6.792 91.759,80.37 70.538,80.37 70.538,6.792"/>
  <polygon points="113.44,6.792 95.68,36.546 120.821,36.546 98.561,80.37 122.436,80.37 143.886,28.012 120.932,28.012 131.314,6.792 113.44,6.792"/>
  <polygon points="158.878,6.792 146.193,36.546 172.026,36.546 155.188,80.37 175.947,80.37 191.4,28.012 168.797,28.012 177.561,6.792 158.878,6.792"/>
</svg>
