<svg xmlns="http://www.w3.org/2000/svg" viewBox="0 0 200 106" class="krisiun krisiun--curse-of-the-evil-one">
  <path class="krisiun__shadow" d="M200 85.2c-19.445 2.334-36.867-10.42-43.868-9.488-7 .933-17.267 8.867-22.556 13.534 1.09-6.067 4.096-13.717 6.74-17.46-5.288.143-26.65-2.218-33.496 0s-28.52 9.63-39.097 23.527C61.5 90.333 56.315 81 56.108 69.8c-5.808 8.504-7.467 12.445-8.92 15.97-7.465-5.806-14.517-11.82-15.97-15.97-4.977 3.526-18.46 15.14-25.718 33.6-4.356-13.688-10.27-27.17.983-48.74S24.788 15.665 24.788 2.6c6.015 6.43 19.704 14.518 24.267 14.31 4.563-.207 11.822-4.978 16.593-7.882 3.32 3.11 5.68 9.126 9.166 9.748 6.805-1.452 32.282-9.748 38.314-13.274 3.336 1.867 14.95 7.467 18.892 8.296 10.785-3.11 18.874-8.504 22.815-11.2 6.637 3.94 17.215 11.44 21.986 13.187.83 7.763 6.328 51.423 23.18 69.416z"/>
  <g class="krisiun__lettering">
    <path d="M28.984 15.786c-4.586 6.054-.41 17.77-5.233 25.392S6.33 59.688 6.486 83.334C10.53 72.29 18.152 62.956 31.53 57.2c-.7-2.956-1.71-9.1-.7-9.567 1.01-.467 5.367.933 6.222 4.122.856 3.19 5.522 12.134 8.167 14.545.543-3.5 2.643-8.71 6.844-11.434-1.4-4.356-3.89-8.245-3.267-15.478 3.345-2.333 4.59-4.2 5.6-4.667 1.71 2.18 2.49 4.123 2.644 5.834-1.088 1.167-1.978 2.23-2.833 2.697-.856.468 2.134 10.526 3.69 12.937 1.556 2.41 9.41 11.045 15.478 11.9-.31-4.822-.467-8.167 4.045-13.61-1.244-3.734-2.333-11.435-.622-15.946-2.722-1.866-8.167-4.977-7-13.3-3.267 3.657-3.345 9.257-2.256 12.835 1.09 3.578 2.1 12.756-1.633 12.756-3.734 0-4.98-3.032-5.68-5.132 1.323-2.333 4.28-5.133 5.057-5.6-2.022-3.81-6.69-11.434-7.545-15.71-2.878 1.477-4.51 3.188-6.767 3.577s.078-2.956-.7-3.033c-.778-.078-3.967 3.967-4.822 4.2.39 7.156-.933 15.945-4.045 15.945s-3.578-2.645-3.578-3.19 1.633-2.1 2.956-2.332c-.078-4.433.778-12.522 2.256-15.556-3.267 2.255-4.978 11.277-8.79 11.277-2.514 0-1.01-3.733.468-4.433-3.58-3.346-7.114-10.106-5.736-15.048z"/>
    <path d="M108.168 12.14c-3.837 4.46-7.156 11.51-8.4 19.393-4.563.31-7.612 1.947-9.894 3.192-2.282 1.244-2.758 6.868-1.72 7.386 1.036.52 7.42-3.72 8.663-4.238 3.32 3.733 10.936 15.854 10.52 22.284-7.098.938-20.057 5.302-32.46 23.178-.31-5.963.416-15.92 4.46-25.252 5.082-1.14 12.03-3.11 13.17-3.733 1.142-.623-.932-7.468-3.42-8.09-2.49-.622-8.09 5.185-9.23 6.326-.727-4.978 1.036-20.223 5.184-26.34 3.32.725 7.157.206 9.853-1.97s8.712-10.892 13.275-12.136z"/>
    <path d="M112.213 22.2c2.696 3.11 4.02 7.036 3.526 11.718-.364 3.448-3.32 8.504.803 12.393 4.122 3.89 4.122 13.457 4.045 15.946-1.944-3.81-5.91-11.2-14-13.378.778-3.11 1.944-9.49-.933-13.767 4.587-1.4 7.284-4.977 6.558-12.91z"/>
    <path d="M121.028 21.06c.104 4.562-.31 9.747 7.052 12.444 1.348 3.11.83 7.882 1.244 9.23s1.037 1.763 4.045 1.244c3.006-.52.83-7.467 0-9.852 3.006-3.215 5.703-8.4 4.355-14.104 4.667 4.874 5.496 10.89 4.77 15.97-.726 5.083-1.452 8.297 2.074 12.238s8.295 10.163 9.23 13.274c-7.364-4.46-19.705-8.504-31.84-1.763.312-3.42-.31-7.362-.932-8.607 1.037-.726 2.178-8.09 0-11.408-2.178-3.318-3.837-16.074 0-18.666z"/>
    <path d="M119.057 62.256c-.933.907-3.11 3.24-3.993 6.3-.052-3.526 1.136-9.575 1.66-10.734.79 1.607 1.97 3.163 2.333 4.434z"/>
    <path d="M163.03 20.74c2.768 1.55 4.614 2.03 8.395 2.77-1.015 4.61-4.427 15.218-1.66 21.766S175.76 63.17 184.338 72.3c-5.995-1.29-11.345-4.796-13.374-6.087-2.03-1.29-5.257-3.413-7.563-3.413 1.477-3.874 1.938-8.854 1.57-14.665-2.03-2.306-7.195-7.01-8.486-7.84-.646 4.704.553 12.544 1.015 14.112-2.215 1.66-3.337 2.69-4.115 3.26-1.09-2.022-4.252-5.86-5.496-7.31 1.606-1.453 2.384-4.564 2.02-7.78-.362-3.214-8.295-11.562-2.02-22.555.88 3.578 7.78 12.698 14.414 14.052 1.45-3.474 1.79-9.652.727-13.333z"/>
    <path d="M150.22 60.428c-.816 1.206-4.355 5.056-5.444 11.356-.894-3.422-1.4-10.81-.622-13.417 2.723.622 5.017 1.44 6.067 2.06z"/>
  </g>
</svg>
