<!--
  SVG Music Logos
  Led Zeppelin - The Song Remains the Same v1.0.0
  https://github.com/tiagoporto/svg-music-logos
  Copyright (c) 2016-2018 Tiago Porto (http://tiagoporto.com)
-->
<svg xmlns="http://www.w3.org/2000/svg" viewBox="0 0 200 68">
  <path d="M57.36 37.028h-7.75l2.32-6.287h7.752"/>
  <path d="M144.038 16.558v37.604h6.08c1.03 0 2.007-.054 2.778-.483l1.525-.85v6.06h-16.125c.418-.613.722-1.352.863-2.225.038-.233.06-.548.087-.917.027-.375.043-.77.043-1.178V8.018c0-.873-.043-1.564-.13-2.057-.152-.872-.445-1.61-.863-2.222l12.48-.148v6.058c-.783-.492-1.45-.842-2.004-1.04-.553-.198-1.33-.353-2.3-.294l-2.432.148v3.323h10.86v6.083c-.412-.255-.753-.458-1.025-.595-.277-.14-.565-.283-.88-.397-.623-.227-1.42-.318-2.398-.318h-6.557z"/>
  <path d="M136.45 7.132c-.218-.698-.55-1.302-1.016-1.818-.472-.508-1.124-.93-1.965-1.247-.842-.318-1.62-.476-2.34-.476h-13.776c.418.612.71 1.35.863 2.224.087.492.13 1.183.13 2.057V53.79c0 .407-.016.803-.043 1.178-.027.375-.05.684-.087.923-.14.873-.445 1.606-.863 2.22h6.67c-.406-.723-.688-1.494-.83-2.308-.042-.255-.064-.554-.075-.89-.012-.342-.028-.716-.028-1.124v-38.19h8.04c.493 0 .9-.04 1.204-.102.923-.19 1.72-.605 2.4-1.23.28-.264.558-.58.824-.922.27-.348.5-.74.7-1.175.2-.438.33-.86.407-1.264.07-.405.098-.81.098-1.222 0-.635-.104-1.86-.316-2.552zm-3.62 2.363c0 .325-.12 1.353-.354 1.574-.228.216-.516.325-.83.325h-8.57V8.288h8.57c.33 0 .62.12.84.357.23.247.343.524.343.85z"/>
  <path d="M84.89 16.41v27.294h2.393c1.037 0 2.014-.056 2.78-.484l1.524-.85v6.06h-12.44c.423-.612.722-1.35.868-2.224.038-.237.06-.548.087-.92.027-.374.038-.77.038-1.176V7.87c0-.873-.043-1.563-.125-2.056-.152-.873-.445-1.612-.868-2.223h11.925v6.06c-.776-.493-1.444-.843-1.997-1.04-.56-.2-1.33-.295-2.307-.295H84.89v3.322h9.445v6.083c-.413-.254-.754-.458-1.026-.595-.272-.14-.565-.283-.88-.397-.624-.226-1.422-.318-2.4-.318h-5.14z"/>
  <path d="M25.23 58.89H2.544c.42-.614.722-1.353.865-2.226.04-.233.06-.548.087-.917.028-.375.04-.77.04-1.178V7.87c0-.873-.04-1.564-.127-2.056-.152-.873-.444-1.612-.865-2.223h7.06c-.882 1.557-1.32 2.98-1.32 4.28v46.292h12.668c1.256 0 2.685-.44 4.28-1.33v6.057z"/>
  <path d="M18.422 16.41v27.294h2.397c1.03 0 2.01-.056 2.778-.484l1.525-.85v6.06H12.68c.422-.612.722-1.35.866-2.224.04-.237.06-.548.087-.92.028-.374.04-.77.04-1.176V7.87c0-.873-.04-1.563-.127-2.056-.152-.873-.445-1.612-.865-2.223h11.926v6.06c-.778-.493-1.445-.843-2-1.04-.557-.2-1.328-.295-2.304-.295h-1.88v3.322h9.446v6.083c-.413-.254-.752-.458-1.024-.595-.275-.14-.567-.283-.88-.397-.624-.226-1.423-.318-2.4-.318h-5.142z"/>
  <path d="M41.597 3.59h-12.61c.42.914.715 2.017.866 3.323.03.368.055.82.087 1.376.023.57.04 1.15.04 1.755v42.287c0 1.28-.04 2.312-.127 3.072-.15 1.362-.445 2.54-.866 3.512 3.503-.027 6.296.744 9.314-2.535 3.226-3.51 5.784-11.583 7.534-17.266 3.8-12.338 6.988-20.094 7.243-25.98.185-4.307-1.464-9.543-11.48-9.543zm5.612 12.902c-2.204 9.25-5.76 19.277-9.25 29.595-.902 2.393-1.928 4.542-3.222 6.154V8.508c2.98.073 5.443 0 8.423.073 5.71.336 4.986 3.978 4.05 7.912z"/>
  <path d="M78.03 3.59L58.95 53.53h27.053c1.102 0 2.046-.098 2.833-.295.792-.2 1.618-.556 2.486-1.064v5.916H51.635l19.246-50h-7.017c-.413 0-.803.03-1.178.094-.375.064-.77.183-1.2.31-.56.166-1.303.468-2.21.953V3.59H78.03z"/>
  <path d="M114.532 7.132c-.217-.698-.548-1.302-1.02-1.818-.467-.508-1.118-.93-1.96-1.247-.84-.318-1.617-.476-2.338-.476H95.432c.423.612.716 1.35.868 2.224.087.492.125 1.183.125 2.057V53.79c0 .407-.01.803-.038 1.178-.027.375-.05.684-.087.923-.147.873-.445 1.606-.87 2.22h6.672c-.402-.723-.684-1.494-.825-2.308-.043-.255-.065-.554-.08-.89-.012-.342-.023-.716-.023-1.124v-38.19h8.04c.488 0 .895-.04 1.204-.102.923-.19 1.72-.605 2.4-1.23.28-.264.553-.58.824-.922.27-.348.5-.74.695-1.175.2-.438.337-.86.407-1.264s.103-.81.103-1.222c0-.635-.103-1.86-.315-2.552zm-3.973 3.937c-.23.216-.517.325-.837.325h-8.565V8.288h8.565c.336 0 .62.12.847.357.228.246.337.524.337.85 0 .325-.114 1.353-.348 1.574z"/>
  <path d="M174.077 58.895h-17.934c.418-.613.716-1.352.863-2.225.038-.24.06-.548.087-.923.027-.37.038-.77.038-1.172l.164-46.704c.005-.873-.043-1.564-.125-2.056-.153-.873-.446-1.612-.87-2.223h7.063c-.885 1.557-1.314 2.98-1.32 4.28l-.162 46.298h7.92c1.254 0 2.68-.445 4.277-1.333v6.06z"/>
  <path d="M173.263 48.097h-6.67c.422-.61.72-1.35.867-2.223.038-.237.06-.548.087-.92.027-.374.038-.77.038-1.176V7.87c0-.873-.043-1.563-.125-2.056-.152-.873-.445-1.612-.868-2.223h6.682c-.402.69-.657 1.398-.77 2.113-.115.706-.17 1.437-.17 2.168V43.78c0 .405.012.778.023 1.12.016.34.038.636.08.89.142.817.424 1.587.826 2.31z"/>
  <path d="M190.3 47.134l-.037-.66-.152-.658-7.24-20.84-.136 29.6c0 .4.01.775.027 1.117.012.342.034.635.077.89.14.82.423 1.585.825 2.312h-6.666c.418-.613.716-1.352.863-2.225.037-.24.06-.548.086-.923.027-.37.038-.77.038-1.172l.14-46.704c0-.873-.042-1.564-.13-2.056-.15-.873-.444-1.612-.862-2.223h7.637c-.158.453-.24.898-.24 1.335 0 .38-.01 10.13.033 10.252l5.737 15.67V7.29c0-.658-.043-1.15-.103-1.476-.168-.872-.456-1.62-.874-2.223h6.687c-.385.676-.657 1.372-.787 2.097-.06.34-.087.69-.114 1.064-.028.366-.04.74-.04 1.12v52.236c0 .396.012.765.023 1.102.01.342.038.64.08.89.142.82.42 1.59.826 2.312h-6.672c.423-.58.722-1.308.868-2.21.087-.526.103-1.226.103-2.094V47.134z"/>
</svg>
