<!--
  SVG Music Logos
  Mamonas Assassinas - MA v0.1.0
  https://github.com/tiagoporto/svg-music-logos
  Copyright (c) 2016-2018 Tiago Porto (http://tiagoporto.com)
-->
<svg xmlns="http://www.w3.org/2000/svg" viewBox="0 0 200 200" class="mamonas-assassinas__ma">
  <path class="mamonas-assassinas__symbol" d="M181.97 100c0-33.262-19.81-61.886-48.275-74.75l44.403 99.724c2.514-7.873 3.873-16.263 3.873-24.974zM87.9 99.782L71.908 61.3l-38.513 86.51c6.514 9.065 14.838 16.745 24.448 22.513l30.055-70.54zm24.19-.002l30.047 70.55c9.608-5.77 17.936-13.45 24.45-22.52l-38.523-86.532L112.09 99.78zm-90.186 25.194l44.4-99.725C37.833 38.106 18.028 66.733 18.028 100c0 8.71 1.354 17.1 3.875 24.974zm54.02-103.35l24.063 54.042 24.066-54.05c-7.61-2.334-15.682-3.585-24.053-3.585-8.377 0-16.463 1.252-24.074 3.594zm40.483 137.74l-32.018.016-8.46 19c7.617 2.335 15.694 3.588 24.07 3.588 8.372.006 16.45-1.25 24.056-3.585l-7.648-19.02zm-8.417-17.057l-8-17.967-8 17.967h16zM199 100c0 54.678-44.324 99.004-99.004 99.004C45.324 199.004 1 154.678 1 100 1 45.322 45.324.996 99.996.996 154.676.996 199 45.322 199 100z"/>
</svg>
