<!--
  SVG Music Logos
  Manowar - Battle Hymns v1.0.0
  https://github.com/tiagoporto/svg-music-logos
  Copyright (c) 2016-2018 Tiago Porto (http://tiagoporto.com)
-->
<svg xmlns="http://www.w3.org/2000/svg" viewBox="0 0 200 87">
  <path d="M196.42 19.947L178.186 1.434c0 6.26-13.883 12.796-13.883 12.796l1.632 1.903V51.25l-2.176 1.904h10.344l-1.362-3.265V26.75c0-7.126 12.522 10.888 12.522 10.888s.272 24.77 0 28.583c-.272 3.81-2.18 5.715-2.18 5.715 7.625.818 8.443 13.886 8.443 13.886l1.088-51.45-5.173-5.445 8.98-8.983zm-14.698 3.81l-8.438-5.444s5.988-2.72 5.717-5.99l7.077 7.078-4.355 4.356z"/>
  <path d="M162.668 15.592l1.634-1.362h-10.344l1.634 2.175v2.45c-18.51 6.535-11.706 32.396-11.706 32.396l-1.906 1.905h9.256c-2.18-1.904-2.996-8.71-2.996-8.71-.158-1.674-.165-3.196-.06-4.59l8.227.192V51.52l-2.72 1.635h10.07l-1.09-1.904V15.593zm-6.26 16.602h-6.054c2.46-4.375 6.053-5.717 6.053-5.717v5.717z"/>
  <path d="M144.432 15.592l1.36-1.362h-11.163l2.177 1.63-3.265 19.6c-3.267-2.72-6.532-10.343-6.532-10.343 0 3.81-6.535 10.344-6.535 10.344l-3.537-19.87 1.088-1.36H107.41l2.452 1.63 5.17 35.39-1.907 1.903h11.164l-1.635-1.904-1.362-5.718c4.355-3.267 5.445-7.623 5.445-7.623.816 1.633 5.17 6.804 5.17 6.804v6.805l-1.905 1.633h10.072l-1.634-1.634 5.992-35.928z"/>
  <path d="M109.586 19.4l-7.076-7.35v2.18h-9.8v-2.452l-6.807 8.17 1.09 1.086V51.25l-1.09 1.634c5.99 1.088 12.182 15.243 12.182 15.243 0-9.257 10.957-14.973 10.957-14.973l-1.09-2.176V20.216l1.634-.815zm-7.348 31.033l-4.153 4.627-5.106-4.08V22.937h9.258v27.495z"/>
  <path d="M84 15.86l2.448-1.902H74.47l1.907 1.903.272 6.808c-1.635-3.54-7.896-4.9-7.896-4.9V15.86l1.36-1.902h-9.798l1.634 2.176V51.52l-1.908 1.635h9.802l-1.362-2.45V26.477c9.8.274 8.713 25.043 8.713 25.043l-2.452 1.634h10.344L84 50.978V15.86z"/>
  <path d="M59.5 14.23H49.156l1.634 2.175v2.45C32.28 25.39 39.084 51.25 39.084 51.25l-1.908 1.905h9.256c-2.175-1.904-2.993-8.71-2.993-8.71-.16-1.674-.166-3.196-.063-4.59l8.23.192V51.52l-2.725 1.635h10.072l-1.088-1.904V15.593L59.5 14.23zm-7.895 17.964h-6.05c2.455-4.375 6.05-5.717 6.05-5.717v5.717z"/>
  <path d="M26.562 52.884h10.614l-1.904-1.09V5.52l1.088-1.362H26.016l2.18 1.632.272 5.173c-1.906.816-8.71 9.254-8.71 9.254-1.908-3.537-7.896-10.072-7.896-10.072V5.79l.818-1.633H2.335L3.97 5.79V85.82c3.264-7.897 9.525-13.886 9.525-13.886-.816-1.087-1.906-4.355-1.906-4.355V21.307c4.085 2.722 8.437 13.066 8.437 13.066 0-4.083 8.17-13.338 8.17-13.338V51.52l-1.635 1.364z"/>
</svg>
