<svg xmlns="http://www.w3.org/2000/svg" viewBox="0 0 200 84.835" class="matanza--a-arte-do-insulto">
  <path class="matanza__outer" d="M193.387 49.398l.216-15.93 1.416-2.08-12.614-12.43-14.992 13.524 5.877 7.413-4.475 3.082v13.516c-.477-8.62-7.19-14.957-10.956-17.674 4.336-4.41 14.2-14.644 14.2-14.644l-7.92-6.37-1.858 1.902-11.253 1.003-3.082-2.948-9.33 8.84c-1.547-1.64-4.65-4.57-5.357-5.434-.707-.862-1.762-1.854-3.406-.04l-3.777 3.643c-1.854-1.53-6.176-5.505-6.176-5.505l-7.12 6.414-9.424-9.026-14.997 11.9 6.392 8.168-3.915 2.892-.146 10.106-3.037-2.45-.088-24.995 6.59-.044.38-6.944-6.882-.065.09-12.276-12.3 8.272 1.936 1.428.94 2.356h-1.957l-7.024 7.497-7.322-5.752-11.612 10.53v-3.628l.707-.53-9.998-8.318-9.423 7.12-6.813-5.838-5.756 4.56-8.976-7.347L1 22.85l5.546 5.358-.157 31.536-4.867 5.087 9.334 9.468 10.086-10.44s-2.207-2.086-2.787-2.787c-.128-10.203-.3-20.584-.428-30.79.615-.402.86-.953 1.475-1.356 1.845 1.415 2.903 2.89 4.748 4.306 0 9.39.655 28.33.655 28.33.13 2.12-.625 4.078-1.575 5.714-.592 1.02-2.41 3.824-4.364 6.173 2.837.187 11.666-4.83 13.69-6.124 2.123-1.357 2.123-2.3 2.418-5.957.883-10.948-.236-21.924-.236-32.913.596-.37 1.416-1.298 1.416-1.298l3.126 3.265s.436 20.12.436 29.462c-.112 3.13-2.736 10.213-4.152 11.773 2.24.268 7.178-2.204 9.798-3.77 2.07-1.21 5.464-4.285 5.464-7.876 0-.317-.084-2.727-.192-5.702l10.322 7.913 5.31-5.086 5.66 3.937 4.78-4.91 7.077 5.53 8.228-9.29 9.91 8.377 4.424-4.837 4.01 4.01 4.295-4.423 6.735 5.987 6.46-5.898c-1.383 6.94 4.676 13.43 7.96 15.982-2.505-.322-8.348-2.894-11.884-3.596-7.377-1.465-12.622.62-14.568 5.132l3.362-.35c5.427.05 10.902 2.537 16.03 4.66 5.12 2.12 9.805 4.448 15.762 4.448 7.845 0 22.532-5.485 24.508-23.43.014-.13.012-.26.017-.388l10.97 7.288 6.03-6.313 5.517 4.63L199 54.746l-5.613-5.347zm-143.425-7.78c-.064-5.017.325-9.596.325-9.596l4.69 5.198-5.015 4.397zm6.08-11.363l2.734-2.28 3.172 3.074-2.297 2.542-3.61-3.337zm4.188 17.56v-7.93l2.66-2.5.553 13.07-3.213-2.64zm15.745 2.064l-2.212-2.124-.23-21.127.378-.595-4.57-3.54 8.582-.176.38 24.445-2.327 3.114zm20.63-20.157l2.404-1.685 2.95 3.26-2.474 1.72-2.88-3.295zm4.54 15.81V39.66l2.025-1.795.188 9.493-2.212-1.825zm14.732 3.417l-2.256-1.814-.043-17.406 2.875 2.41-.575 16.81zm15.926-5.574c-1.38 2.498-1.504 3.657-2.92 7.432 0 0-.902-.87-1.416-1.46 0-6.164-.133-10.484-.133-16.648.88.815 2.153 2.19 4.144 4.837 1.534 1.68 1.74 3.277.325 5.84zm13.07-9.692c1.116.933 1.676 1.464 2.738 2.083 2.006-2.3 5.525-2.084 5.525-2.084s-6.763 6.738-9.27 8.424c2.035-4.366 2.153-5.66 1.007-8.423zM138.32 71.7c-1.757-2.948-2.63-4.602-2.63-10.217 0-3.9 2.35-9.303 6.17-14.213 0 0 11.62 1.946 11.62 11.015 0 5.772-5.103 13.414-15.16 13.414zm37.593-39.048l3.49-3.16 3.003 2.984-3.755 3.336-2.737-3.16zm6.983 20.415l-3.34-1.963v-8.826l3.43-2.087-.09 12.877z"/>
  <path class="matanza__lettering" d="M144.368 80.225c-6.98 0-11.818-2.355-16.497-4.632-4.364-2.125-8.487-4.13-14.066-4.13-.416 0-.842.01-1.265.033h-.015c-.116 0-.22-.076-.254-.187-.035-.117.013-.243.118-.306 1.805-1.087 3.864-1.616 6.293-1.616 3.272 0 6.74.938 10.413 1.932 3.837 1.038 7.805 2.11 11.705 2.11 1.026 0 2.022-.075 2.96-.225 5.366-.857 11.847-7.17 11.847-13.72 0-8.688-6.344-12.406-11.666-13.995-.09-.027-.16-.098-.182-.19-.023-.09.003-.185.07-.252 2.343-2.36 4.774-4.72 7.126-7 2.207-2.14 4.484-4.35 6.69-6.563l-2.864-.117-3.472-.143c-1.31.77-4.132 2.242-4.16 2.257-.04.02-.082.03-.124.03-.078 0-.154-.034-.206-.098l-5.44-6.68c-.09-.11-.078-.267.024-.362 2.15-1.995 6.603-6.237 6.648-6.28.05-.048.117-.072.183-.072.066 0 .132.024.183.073l2.306 2.192 13.22-.694.68-1.183c.04-.07.11-.118.19-.13l.04-.003c.067 0 .132.025.182.072L169 24.073c.053.05.083.116.084.187.002.07-.025.14-.074.19-.098.102-9.666 10.046-14.518 14.987 7.537 4.824 12.026 11.482 12.026 17.86 0 4.842-2.224 10.547-5.803 14.89-4.275 5.183-10.08 8.038-16.347 8.038zM10.79 71.315c-.07-.003-.138-.033-.186-.086l-6.18-6.66c-.095-.104-.093-.265.005-.366l3.73-3.86c0-5.36-.012-11.022-.023-16.496-.01-5.476-.022-11.138-.022-16.5-1.592-1.73-4.438-4.668-4.467-4.697-.1-.103-.1-.268.002-.37l6.695-6.783c.052-.053.12-.08.19-.08.064 0 .13.025.18.073.046.043 4.525 4.27 6.714 6.125.11.093.125.258.033.37-.298.365-1.09 1.334-1.09 2.052 0 .29.158.63.605.63.226 0 .495-.092.776-.267 2.408-1.86 6.77-5.43 6.815-5.466.048-.04.108-.06.167-.06.063 0 .126.022.176.067.042.038 4.104 3.647 6.218 5.485 1.633-1.217 3.233-2.45 4.782-3.645 1.604-1.237 3.263-2.516 4.957-3.777.046-.035.102-.053.157-.053.063 0 .126.022.176.067 1.2 1.06 2.35 2.08 3.5 3.1 1.16 1.027 2.318 2.054 3.528 3.123.057.05.09.12.09.196.055 6.115.085 12.405.114 18.488.03 6.095.06 12.397.114 18.524v.023c-.177 2.22-.85 3.326-2.665 4.387-1.242.743-2.405 1.46-3.53 2.156-1.125.695-2.288 1.413-3.534 2.158-.043.026-.09.04-.137.04-.07 0-.137-.028-.188-.08-.086-.085-.102-.22-.04-.323 1.82-3.026 2.827-5.262 2.927-8.41 0-5.223-.113-10.666-.223-15.93-.108-5.152-.22-10.477-.22-15.53-.784-.718-1.594-1.455-2.404-2.19-.796-.724-1.592-1.447-2.362-2.153-.488.298-1.074.64-1.644.973-.583.34-1.185.692-1.675.993v33.81c.01 5.902-2.45 7.074-7.35 9.407-.882.42-1.883.897-2.956 1.444-.04.02-.08.03-.12.03-.077 0-.152-.033-.203-.093-.08-.094-.085-.23-.012-.33.514-.7 1.018-1.324 1.463-1.874 1.65-2.042 2.74-3.39 2.575-6.097-.082-4.88-.16-10.25-.237-15.442-.075-5.133-.153-10.44-.233-15.26-1.986-1.535-5.626-4.662-6.44-5.364l-3.262 2.52c.01 1.83.13 22.105.257 32.33.704.84 1.97 2.153 1.984 2.167.05.05.077.12.075.19 0 .07-.03.137-.08.185l-7.332 7.057c-.05.047-.116.073-.184.073-.004.002-.007.002-.01 0zM133.794 66.6c-.057 0-.114-.017-.162-.054-1.5-1.156-3.225-3.85-3.57-7.952-.256-3.068.19-7.99 3.77-14.026 2-3.372 1.833-6.253-.513-8.81l-5.538-5.56c-.48-.38-.946-.59-1.312-.59-.3 0-.482.14-.56.424v20.666l1.613 1.603c.052.052.08.122.08.195-.003.073-.034.14-.087.19-.042.04-4.26 3.897-6.48 5.842-.05.044-.113.066-.176.066-.064 0-.127-.023-.178-.068-1.6-1.443-4.393-4.363-4.42-4.392-.05-.052-.078-.123-.074-.195.003-.072.036-.14.09-.188.013-.012 1.27-1.112 1.99-1.814 0-6.77-.04-19.664-.045-21l-3.54-3.443c-.103-.1-.106-.267-.007-.372l5.277-5.592c.052-.055.123-.083.193-.083.065 0 .13.024.18.07l5.724 5.307c.65-.62 2.89-2.766 4.146-3.977.43-.486.924-.743 1.426-.743.453 0 .896.203 1.316.602l.023.025c1.543 1.9 3.153 3.694 4.71 5.43 1.56 1.74 3.173 3.538 4.725 5.447.012.015.022.03.03.047 1.097 2.162.882 4.448-.74 7.89-1.11 2.354-2.193 4.45-3.24 6.474-3.684 7.124-6.345 12.272-4.402 18.237.036.11-.004.232-.1.3-.042.03-.096.046-.15.046zm46.08-3.436c-.05 0-.102-.014-.146-.043l-8.964-5.846c-.075-.05-.12-.133-.12-.222V43.605c0-.086.04-.166.11-.216l5.182-3.71-6.34-6.8c-.05-.05-.075-.12-.072-.192.003-.07.035-.138.088-.186l12.62-11.325c.05-.045.113-.068.176-.068.066 0 .133.024.184.073l10.29 9.87c.05.05.08.117.082.188 0 .072-.026.14-.075.19l-.422.433-.583 18.472 5.038 4.39c.054.046.087.113.09.184.005.07-.02.14-.068.193l-5.475 6.006c-.052.056-.124.086-.196.086-.06 0-.12-.02-.17-.063l-4.845-4.096-6.195 6.05c-.053.05-.12.077-.188.077zm4.755-7.06l.206-19.194-6.2 4.6-.288 11.004 6.282 3.59zm-6.194-18.556l6.266-4.302-5.164-5.545-5.82 5.018 4.718 4.83zm-118.05 21.95c-.053 0-.105-.017-.15-.048l-9.29-6.43c-.07-.05-.113-.132-.113-.22v-9.885c0-.078.035-.152.095-.203l6.76-5.724-6.82-6.992c-.05-.05-.077-.12-.075-.192.002-.07.032-.14.085-.188l11.296-10.5c.052-.046.117-.07.182-.07.06 0 .12.02.17.06l9.208 7.64c.112.092.128.258.036.37l-.298.366.67 21.422 3.893 2.988 3.868-4.34c-.01-1.752-.142-25.072-.142-26.088 0-.714-.213-.714-.507-.714h-5.31c-.104 0-.2-.06-.242-.156s-.026-.207.043-.285l2.92-3.3c.05-.056.124-.09.2-.09h2.976l-.044-4.124-1.183-1.03c-.062-.054-.096-.133-.092-.214.004-.08.045-.156.11-.203l6.79-4.85c.045-.033.1-.05.153-.05.042 0 .084.01.122.03.088.046.144.137.144.236v9.78h6.224c.147 0 .265.12.265.266v3.72c0 .147-.12.265-.265.265h-6.264l.028 28.067 3.678 2.76c.06.045.096.11.104.184.008.073-.014.146-.062.2l-5.88 6.91c-.053.06-.128.093-.203.093-.05 0-.103-.014-.148-.045l-7.32-4.977-4.508 4.676c-.052.054-.12.08-.19.08-.054 0-.107-.015-.153-.047L65.645 54.8l-5.082 4.623c-.05.05-.114.074-.178.074zm4.423-6.597l-.624-17.973-4.872 4.28v9.372l5.497 4.32zM59.38 34.886l4.6-3.62-5.117-4.862-4.138 4.016 4.656 4.465zm42.172 22.964c-.062 0-.124-.023-.174-.066l-8.9-7.75c-.058-.05-.09-.125-.09-.203l.133-9.333c.002-.08.04-.157.104-.206l4.762-3.676-6.66-7.702c-.047-.055-.07-.128-.062-.2.007-.074.044-.14.102-.185l12.43-9.544c.05-.037.106-.055.163-.055.07 0 .14.03.193.084l8.668 9.25c.09.095.097.24.018.343l-.475.62-.175 18.597 3.614 3.46c.052.05.082.118.082.19 0 .073-.03.143-.082.193l-4.99 4.784c-.05.048-.116.073-.183.073-.063 0-.125-.022-.176-.065l-3.704-3.236-4.408 4.55c-.052.05-.12.077-.19.077zm3.303-7.33V35.107L99.91 38.9v7.348l4.945 4.27zM99.35 35.104l4.627-3.443-4.854-5.14-4.206 2.948 4.432 5.635z"/>
  <path class="matanza__stroke" d="M85.57 6.718v10.047h6.49v3.72h-6.53l.03 28.465 3.784 2.84-5.882 6.91-7.504-5.102-4.664 4.837-5.67-3.97-5.24 4.767-9.288-6.432v-9.886l6.977-5.908-7.02-7.196 11.296-10.5 9.207 7.64-.36.44.678 21.648 4.188 3.215 4.1-4.6s-.143-25.127-.143-26.19c0-.867-.34-.978-.772-.978h-5.31l2.92-3.298h3.245l-.048-4.512-1.272-1.11L85.57 6.72M59.365 35.236l5.02-3.952-5.522-5.25-4.518 4.386 5.02 4.816m5.728 18.226l-.664-19.105-5.383 4.73v9.62l6.047 4.755m-54.56-37.78s4.504 4.255 6.724 6.135c-.406.497-1.15 1.445-1.15 2.22 0 .49.324.896.87.896.262 0 .575-.093.928-.315 2.437-1.88 6.83-5.48 6.83-5.48s4.297 3.818 6.382 5.628c3.385-2.52 6.524-5.03 9.91-7.55 2.41 2.13 4.617 4.094 7.027 6.223.108 12.24.12 24.77.227 37.01-.158 1.993-.7 3.108-2.533 4.18-2.49 1.49-4.576 2.824-7.067 4.314 1.724-2.866 2.857-5.177 2.964-8.538 0-10.418-.442-21.366-.442-31.586-1.625-1.49-3.374-3.066-5-4.556-1.028.64-2.586 1.51-3.615 2.15V60.37c.01 6.792-3.244 7.09-10.16 10.615 2.352-3.207 4.306-4.56 4.088-8.146-.162-9.724-.31-21.097-.472-30.82-2.22-1.703-6.695-5.574-6.695-5.574l-3.536 2.734s.123 21.805.258 32.557c.704.852 2.057 2.252 2.057 2.252l-7.33 7.057-6.18-6.66L8.42 60.45c0-10.787-.043-22.42-.043-33.208-1.598-1.74-4.542-4.778-4.542-4.778l6.697-6.78m92.826 3.51l8.668 9.25-.53.688-.176 18.8 3.697 3.54-4.99 4.783-3.893-3.402-4.583 4.73-8.898-7.75.133-9.333 4.984-3.85-6.843-7.914 12.43-9.543m-4.056 16.28l5.076-3.776-5.217-5.525-4.625 3.242 4.766 6.058m5.82 15.627V34.57l-5.475 4.2v7.6l5.476 4.73m43.11-30.816l2.39 2.27 13.477-.707.752-1.31 3.966 3.728s-9.92 10.31-14.746 15.218c7.48 4.696 12.18 11.39 12.18 17.813 0 9.04-8.02 22.663-21.882 22.663-13.383 0-18.886-8.764-30.565-8.764-.42 0-.844.01-1.28.035 1.902-1.145 3.97-1.577 6.156-1.577 6.688 0 14.494 4.043 22.116 4.043 1.005 0 2.007-.07 3.002-.23 5.73-.915 12.07-7.48 12.07-13.98 0-5.96-3.068-11.626-11.857-14.25 4.684-4.715 9.56-9.278 14.244-13.99-2.096-.09-4.923-.2-7.02-.29-1.283.763-4.216 2.29-4.216 2.29l-5.44-6.68c2.178-2.02 6.652-6.282 6.652-6.282m34.176 1.09l10.29 9.872-.494.506-.59 18.7 5.133 4.473-5.475 6.006-5.03-4.25-6.367 6.218-8.964-5.847V43.606l5.426-3.886-6.547-7.02 12.616-11.325M178.4 37.893l6.704-4.603-5.548-5.957-6.23 5.368 5.074 5.193m6.488 18.666l.216-20.18-6.733 4.993-.295 11.293 6.813 3.893m-64.743-34.85l5.907 5.476s2.848-2.723 4.335-4.158c.38-.43.8-.662 1.234-.662.374 0 .757.17 1.135.53 3.096 3.808 6.34 7.068 9.437 10.877.97 1.914.95 4.062-.746 7.657-5.132 10.883-10.175 17.164-7.653 24.906-3.274-2.522-6.06-10.97.265-21.632 2.187-3.686 1.694-6.684-.546-9.124L127.955 30c-.553-.442-1.076-.657-1.488-.657-.418 0-.72.222-.824.656v20.808l1.69 1.68s-4.23 3.873-6.476 5.84c-1.61-1.453-4.406-4.38-4.406-4.38s1.364-1.193 2.08-1.9c0-7.16-.044-21.226-.044-21.226l-3.62-3.52 5.28-5.592M85.57 6.187c-.108 0-.216.033-.308.1l-6.79 4.847c-.13.094-.213.244-.22.406-.01.162.058.32.18.426l1.093.953.04 3.737h-2.708c-.152 0-.297.065-.397.18l-2.92 3.297c-.138.156-.172.38-.087.57.086.19.275.313.484.313h5.31c.114 0 .16.01.178.016.014.024.063.13.063.432 0 1 .127 23.59.14 25.987l-3.634 4.08-3.597-2.76-.664-21.198.235-.29c.184-.225.152-.557-.073-.743l-9.208-7.637c-.1-.082-.22-.122-.34-.122-.13 0-.26.05-.36.143L50.693 29.42c-.105.098-.166.234-.17.377-.002.143.052.28.152.384l6.62 6.79-6.542 5.54c-.12.1-.188.248-.188.404V52.8c0 .174.085.337.23.436l9.287 6.43c.09.064.197.095.302.095.13 0 .257-.046.357-.137l4.926-4.48 5.324 3.725c.092.064.198.096.304.096.14 0 .28-.055.382-.162l4.354-4.515 7.134 4.85c.09.063.195.093.298.093.15 0 .3-.064.405-.187l5.88-6.91c.096-.11.14-.256.124-.402-.015-.145-.09-.277-.208-.365l-3.572-2.68-.028-27.67h6c.292 0 .53-.238.53-.53v-3.72c0-.294-.238-.532-.53-.532H86.1V6.718c0-.2-.11-.38-.288-.472-.076-.04-.16-.06-.243-.06zm-30.463 24.23l3.758-3.646 4.71 4.477-4.177 3.287-4.29-4.116zm4.47 8.91l4.36-3.83.585 16.842-4.946-3.89v-9.122zM10.53 15.153c-.137 0-.274.053-.378.158L3.46 22.094c-.203.205-.204.535-.003.742.03.03 2.79 2.88 4.392 4.616 0 5.333.01 10.957.02 16.398.012 5.438.023 11.06.023 16.388L4.237 64.02c-.196.203-.2.523-.007.73l6.18 6.66c.096.104.23.166.373.17h.015c.137 0 .27-.053.368-.148l7.33-7.058c.103-.098.16-.232.164-.373.003-.14-.05-.276-.15-.377-.012-.013-1.202-1.247-1.91-2.08-.125-10.05-.24-29.607-.254-32.102l2.986-2.307c1.04.894 4.29 3.678 6.186 5.153.08 4.79.157 10.055.232 15.148.076 5.188.155 10.552.236 15.416v.023c.16 2.604-.904 3.92-2.515 5.914-.446.553-.953 1.18-1.47 1.885-.145.198-.136.47.024.658.104.122.253.187.405.187.08 0 .163-.02.24-.058 1.07-.546 2.07-1.022 2.95-1.442 2.518-1.2 4.337-2.066 5.596-3.424 1.34-1.445 1.91-3.307 1.904-6.223V26.71c.463-.28 1.012-.6 1.545-.912.505-.295 1.024-.598 1.477-.87.725.663 1.478 1.347 2.21 2.012.77.7 1.563 1.42 2.322 2.116.003 5.02.113 10.306.22 15.42.11 5.26.223 10.7.223 15.924-.1 3.102-1.052 5.22-2.888 8.272-.127.21-.094.476.078.65.102.102.24.155.376.155.094 0 .188-.025.272-.075 1.248-.747 2.412-1.465 3.537-2.16 1.124-.694 2.286-1.412 3.53-2.155 2.126-1.243 2.633-2.625 2.79-4.592v-.047c-.053-6.125-.083-12.427-.113-18.52-.03-6.085-.06-12.376-.113-18.493 0-.15-.067-.293-.18-.393l-3.517-3.115c-1.153-1.022-2.306-2.044-3.51-3.108-.1-.09-.226-.134-.352-.134-.11 0-.222.035-.317.105-1.695 1.263-3.355 2.543-4.96 3.78-1.495 1.153-3.036 2.34-4.606 3.515-2.15-1.875-6.013-5.306-6.054-5.342-.1-.09-.226-.134-.353-.134-.12 0-.238.04-.336.12-.043.035-4.39 3.593-6.797 5.452-.296.182-.503.22-.625.22-.296 0-.34-.228-.34-.364 0-.624.776-1.573 1.03-1.884.184-.224.154-.554-.067-.74-2.183-1.85-6.657-6.074-6.702-6.116-.104-.097-.235-.146-.366-.146zm92.826 3.51c-.113 0-.227.036-.323.11l-12.43 9.544c-.117.09-.19.222-.206.367-.016.145.03.29.126.4L97 36.574l-4.54 3.507c-.127.1-.203.25-.205.413l-.133 9.334c-.002.156.064.305.182.408l8.9 7.75c.1.086.224.13.347.13.14 0 .28-.054.382-.16l4.232-4.37 3.514 3.07c.1.09.225.132.35.132.132 0 .264-.05.366-.148l4.99-4.784c.103-.1.162-.24.162-.383 0-.145-.06-.283-.164-.383l-3.53-3.38.172-18.394.42-.548c.16-.206.145-.497-.033-.686l-8.667-9.25c-.102-.113-.243-.17-.385-.17zm-8.06 10.865l3.79-2.657 4.492 4.758-4.18 3.11-4.1-5.21zm4.878 9.503l4.414-3.385v14.293l-4.414-3.813V39.03zm48.054-19.277c-.132 0-.264.05-.366.146-.045.042-4.496 4.282-6.645 6.276-.206.19-.228.507-.052.724l5.44 6.68c.105.127.257.196.413.196.084 0 .168-.02.246-.06.116-.06 2.77-1.444 4.105-2.224 1.014.043 2.184.09 3.355.138l2.302.094c-2.072 2.068-4.197 4.13-6.26 6.132-2.352 2.283-4.785 4.643-7.13 7.004-.133.132-.185.324-.14.505.047.18.185.324.364.378 9.487 2.833 11.478 9.036 11.478 13.74 0 2.89-1.367 6.072-3.75 8.732-2.27 2.535-5.214 4.302-7.872 4.727-.925.148-1.907.223-2.92.223-3.864 0-7.814-1.07-11.634-2.102-3.69-.998-7.175-1.94-10.48-1.94-2.48 0-4.583.54-6.43 1.653-.21.126-.306.378-.235.61.07.225.275.376.507.376h.03c.418-.023.84-.035 1.25-.035 5.518 0 9.614 1.994 13.95 4.105 4.707 2.29 9.573 4.66 16.615 4.66 3.367 0 6.568-.785 9.513-2.332 2.634-1.383 5-3.336 7.035-5.804 3.617-4.39 5.864-10.16 5.864-15.06 0-3.237-1.168-6.645-3.38-9.854-2.056-2.986-4.984-5.76-8.494-8.053 4.918-5.015 14.196-14.656 14.292-14.756.098-.102.152-.24.148-.38-.004-.143-.064-.277-.167-.374l-3.966-3.727c-.1-.093-.23-.144-.363-.144-.025 0-.05 0-.077.005-.16.024-.3.12-.382.26l-.607 1.06-12.96.68-2.224-2.114c-.107-.098-.24-.147-.37-.147zm34.176 1.09c-.127 0-.254.046-.355.137l-12.617 11.325c-.106.095-.17.23-.176.372s.045.28.142.386l6.134 6.577-4.936 3.534c-.14.1-.222.26-.222.432v13.447c0 .18.09.347.24.445l8.965 5.847c.09.058.19.086.29.086.136 0 .27-.05.372-.15l6.023-5.882 4.66 3.94c.1.085.222.126.344.126.143 0 .287-.06.39-.173l5.476-6.005c.096-.106.146-.245.138-.388-.008-.143-.074-.276-.18-.37l-4.944-4.306.575-18.243.35-.358c.1-.102.153-.24.15-.38 0-.142-.06-.276-.162-.374l-10.29-9.87c-.102-.102-.234-.152-.367-.152zm-8.304 11.89l5.414-4.665 4.78 5.133-5.828 4.003-4.366-4.47zm4.793 8.912l5.667-4.204-.195 18.21-5.752-3.288.28-10.717zm-58.75-20.466c-.14 0-.282.055-.386.166l-5.28 5.593c-.198.21-.19.542.017.744l3.46 3.364c.006 1.81.043 14.136.044 20.776-.723.697-1.885 1.716-1.897 1.727-.11.096-.174.232-.18.377-.007.145.046.286.146.39.114.12 2.828 2.957 4.433 4.406.1.09.228.137.356.137.124 0 .25-.044.35-.132 2.222-1.948 6.442-5.807 6.484-5.846.107-.098.17-.236.172-.38.003-.146-.053-.286-.156-.388l-1.534-1.525V30.07c.046-.143.128-.196.293-.196.14 0 .534.05 1.133.522l1.214 1.22 4.313 4.33c2.25 2.456 2.405 5.23.474 8.486-3.617 6.095-4.065 11.077-3.805 14.184.293 3.502 1.7 6.62 3.67 8.14.096.073.21.11.325.11.107 0 .214-.032.306-.097.19-.135.272-.378.2-.6-1.91-5.86.73-10.965 4.385-18.032 1.048-2.028 2.132-4.124 3.244-6.482 1.64-3.48 1.86-5.91.738-8.124-.017-.034-.038-.065-.06-.095-1.557-1.915-3.173-3.716-4.736-5.46-1.554-1.732-3.162-3.524-4.702-5.42-.014-.017-.03-.033-.046-.05-.47-.447-.976-.674-1.5-.674-.577 0-1.136.285-1.618.825-1.158 1.117-3.146 3.02-3.958 3.797l-5.54-5.136c-.105-.094-.234-.14-.363-.14z"/>
</svg>
