<!--
  SVG Music Logos
  Metallica - M Throught The Never v0.1.0
  https://github.com/tiagoporto/svg-music-logos
  Copyright (c) 2016-2018 Tiago Porto (http://tiagoporto.com)
-->
<svg xmlns="http://www.w3.org/2000/svg" viewBox="0 0 200 200">
  <path d="M186.224 2.333l-22.99 35.41.848 2.808 20.36-18.663-6.068 42.25-23.11 16.34 10.97-32.212-9.18 10.686-3.438-7.77L81.33 144.8l18.343-4.712-72.35 54.007L155.528 33.35l-14.202 4.52s26.458-19.43 44.9-35.537zM18.89 101.394c0-43.208 35.027-78.235 78.235-78.235 14.17 0 27.458 3.77 38.92 10.358 2.143-1.637 4.47-3.43 6.907-5.327-13.282-8.332-28.99-13.156-45.827-13.156-47.695 0-86.36 38.665-86.36 86.36 0 27.184 12.564 51.43 32.198 67.26l5.066-6.352c-17.77-14.34-29.14-36.295-29.14-60.908z"/>
  <path d="M171.39 76.743c2.57 7.75 3.97 16.037 3.97 24.65 0 43.21-35.028 78.236-78.236 78.236-11.797 0-22.98-2.617-33.01-7.292l-7.296 5.446c12.033 6.362 25.747 9.97 40.306 9.97 47.695 0 86.36-38.664 86.36-86.36 0-10.373-1.836-20.317-5.19-29.532l-6.905 4.88z"/>
</svg>
