<!--
  SVG Music Logos
  Metallica - Star v1.0.0
  https://github.com/tiagoporto/svg-music-logos
  Copyright (c) 2016-2018 Tiago Porto (http://tiagoporto.com)
-->
<svg xmlns="http://www.w3.org/2000/svg" viewBox="0 0 200 200">
  <path d="M89.886 145.58L195 174.515 141.864 131.5l29.097-39.576-24.57 18.63L170.85 4.31l-41.387 55.792-36.902-29.22L110.3 56.11 5 27.862l53.647 42.85-29.26 37.4L54.51 90.225 26.872 195.69l43.218-54.755 37.37 29.988-17.575-25.342zm44.71-19.647l-5.63-4.937 5.922-8.72 1.197 3.233-1.49 10.42zm-49.858-5.05L79.36 86.176l35.894-5.35 6.464 34.793-36.98 5.26zm52.48-13.3l-3.583-10.037-6.1 13.74-.463-42.518 15.3 2.75-5.154 36.064zm-17.75-34.165l-7.857-5.758 3.28-1.08 8.82 1.583-4.23 5.255zm-9.11 1.555l-43.376-1.078 2.68-15.438 37.34 6.707-10.156 3.222 13.512 6.587zm-43.865 1.744l5.13 4.44-5.57 7.693-1.1-3.266 1.54-8.867zm-2.91 16.754l3.28 10.14 6.51-13.55-.814 42.64-15.3-2.85 6.313-36.37zm16.892 34.48l8.176 6.08-3.28 1.06-9.48-1.766 4.59-5.365zm9.476-1.23l44.34 1.39-2.24 15.67-38.8-7.23 10.18-3.15-13.47-6.672zm60.07 20.41l-17.28-3.22 7.25-9.85 10.038 13.08zm-4.63-96.72l-2.86 20.04-10.83-8.57 13.7-11.46zm-95.23 4.55l18.26 3.28-7.88 10.06-10.38-13.343zm3.55 95.42l3.444-19.824 10.768 8.64-14.21 11.187z"/>
</svg>
