<svg xmlns="http://www.w3.org/2000/svg" viewBox="0 0 200 200" class="mixhell">
  <g class="mixhell__square">
    <rect class="mixhell__outer-square" width="200" height="200"/>
    <rect x="22.318" y="22.318" width="155.365" height="155.365"/>
  </g>
  <g class="mixhell__lettering">
    <polygon points="67.96 47.009 59.748 78.357 51.536 47.009 30.125 47.009 30.125 99.156 43.478 99.156 43.478 59.441 53.378 99.156 65.696 99.156 75.48 59.441 75.48 99.156 88.834 99.156 88.834 47.009"/>
    <rect x="93.953" y="47.009" width="16.177" height="52.147"/>
    <polygon points="169.875 99.156 152.147 72.1 168.378 47.009 150.474 47.009 141.325 62.779 132.06 47.009 114.159 47.009 130.506 71.974 113.181 99.156 130.678 99.156 140.866 82.579 151.456 99.156"/>
    <polygon points="63.201 102.379 63.201 120.317 46.302 120.317 46.302 102.379 30.125 102.379 30.125 153.145 46.302 153.145 46.302 132.744 63.201 132.744 63.201 153.145 79.379 153.145 79.379 102.379"/>
    <polygon points="100 141.682 100 131.843 124.422 131.843 124.422 121.32 100 121.32 100 113.42 126.351 113.42 126.351 102.379 100 102.379 94.21 102.379 83.823 102.379 83.823 153.145 94.21 153.145 100 153.145 127.007 153.145 127.007 141.682"/>
    <rect x="131.711" y="102.379" width="15.609" height="50.766"/>
    <rect x="152.769" y="102.379" width="15.609" height="50.766"/>
  </g>
  <g class="mixhell__lines">
    <rect x="30.125" y="156.042" width="138.253" height="13.986"/>
    <rect x="30.125" y="29.972" width="138.253" height="13.986"/>
  </g>
</svg>
