<!--
  SVG Music Logos
  Oasis - Definitely Maybe v1.0.1
  https://github.com/tiagoporto/svg-music-logos
  Copyright (c) 2016-2019 Tiago Porto (http://tiagoporto.com)
-->
<svg xmlns="http://www.w3.org/2000/svg" viewBox="0 52 200 97" class="oasis--definitely-maybe">
  <rect class="oasis__background" x="4.2" y="56.3" width="191.2" height="88.3"/>
  <path d="M2 54.1h196v92.7H2V54.1zm4.7 4.7v83.3h186.6V58.8H6.7z"/>
  <path d="M11.4 63.5v73.9h177.2V63.5H11.4zm125.7 10.8h11.1l-1.6 8.4h-11.1l1.6-8.4zm-84.3 34.8c-1.4 3-3.4 5.5-6.1 7.2-2.7 1.8-6.1 2.7-10.1 2.7-5.1 0-8.8-1.4-11.2-4.1-2.4-2.7-3.6-6.2-3.6-10.3 0-3.2.7-6.3 2.1-9.3 1.4-3 3.5-5.3 6.3-7 2.7-1.7 6-2.5 9.8-2.5 5.2 0 8.9 1.4 11.3 4.3 2.4 2.9 3.5 6.3 3.5 10.1 0 2.9-.7 5.9-2 8.9zm37.4-4.3c-.9 4.3-1.4 7.4-1.4 9.1 0 1.4.2 2.9.7 4.4H78.7c-.2-1.3-.4-2.5-.4-3.6-2.9 2.9-6.1 4.4-9.7 4.4-3.6 0-6.2-.9-7.8-2.8-1.6-1.9-2.4-4.1-2.4-6.5 0-2.8.7-5 2.1-6.5 1.4-1.5 3.2-2.5 5.3-3 2.1-.5 4.9-1 8.5-1.4 3.2-.4 5.3-.8 6.4-1.1.2-.9.3-1.7.3-2.2 0-.8-.4-1.4-1.1-1.9-.7-.5-1.7-.7-2.9-.7-1.3 0-2.3.2-3.1.7-.8.4-1.5 1-2.1 2.4l-10.3.1c.7-3 2.2-6.3 4.6-7.9 2.4-1.6 6.1-2.5 11.1-2.5 5.7 0 9.5.8 11.5 2.4 2 1.6 3 3.9 3 6.9 0 1.9-.6 5.1-1.5 9.7zm18.9-7.8c.6.5 2.2 1 4.9 1.4 4.3.7 7.1 1.8 8.5 3.2 1.4 1.4 2.1 3.3 2.1 5.7 0 3.3-1.4 6.1-4.1 8.4-2.8 2.3-6.9 3.5-12.6 3.5-4.6 0-8-.7-10.1-2.2-2.1-1.5-3.4-3.9-3.7-7.3l10.9-1.1c.5 2.6 2 3.9 4.6 3.9 1.2 0 2.3-.3 3.2-.9.9-.6 1.4-1.4 1.4-2.5 0-1-.3-1.6-1-2-.7-.3-1.9-.7-3.8-1-4.3-.7-7.2-1.9-8.7-3.4-1.5-1.5-2.3-3.4-2.3-5.7 0-1.9.6-3.7 1.7-5.5 1.1-1.8 2.9-3.2 5.2-4.2 2.3-1 5.1-1.5 8.5-1.5 3.9 0 6.8.6 8.9 1.9 2.1 1.2 3.5 4.6 3.6 7.7h-10.1c-.3-1.9-1.6-2.9-3.9-2.9-1.3 0-2.4.3-3 .8-.7.5-1 1.2-1 1.9-.1.7.2 1.3.8 1.8zm30.7 21.3h-11.1l6.2-31.8H146l-6.2 31.8zM161.6 97c.6.5 2.2 1 4.9 1.4 4.3.7 7.1 1.8 8.5 3.2 1.4 1.4 2.1 3.3 2.1 5.7 0 3.3-1.4 6.1-4.1 8.4-2.8 2.3-6.9 3.5-12.6 3.5-4.6 0-8-.7-10.1-2.2-2.1-1.5-3.4-3.9-3.7-7.3l10.9-1.1c.5 2.6 2 3.9 4.6 3.9 1.2 0 2.3-.3 3.2-.9.9-.6 1.4-1.4 1.4-2.5 0-1-.3-1.6-1-2-.7-.3-1.9-.7-3.8-1-4.3-.7-7.2-1.9-8.7-3.4-1.5-1.5-2.3-3.4-2.3-5.7 0-1.9.6-3.7 1.7-5.5 1.1-1.8 2.9-3.2 5.2-4.2 2.3-1 5.1-1.5 8.5-1.5 3.9 0 6.8.6 8.9 1.9 2.1 1.2 3.9 4.8 4.2 7.7h-10.7c-.3-1.9-1.6-2.9-3.9-2.9-1.3 0-2.4.3-3 .8-.7.5-1 1.2-1 1.9-.1.7.2 1.3.8 1.8z"/>
  <path d="M69.2 109.1c0 1 .3 1.8.9 2.4.6.6 1.5.9 2.4.9 1.4 0 2.8-.6 4.1-1.9 1.4-1.2 2.3-3.4 2.8-6.5-5.1.9-8.1 1.8-9 2.5-.8.8-1.2 1.6-1.2 2.6z"/>
  <path d="M39.6 94c-2.3 0-4.1 1.2-5.2 3.5-1.2 2.3-1.8 4.7-1.8 7.2 0 1.8.5 3.2 1.4 4.4.9 1.2 2 1.8 3.3 1.8 2.1 0 3.7-1.2 4.9-3.5 1.2-2.3 1.8-4.9 1.8-7.8 0-2.1-.5-3.5-1.4-4.3-.9-.9-1.9-1.3-3-1.3z"/>
</svg>
