<svg xmlns="http://www.w3.org/2000/svg" viewBox="0 0 200 60">
  <path d="M141.782 2.874h-11.138l-5.252 6.528V25.88l5.252 5.967h11.138l5.31-5.967V9.402l-5.31-6.528zm-1.5 22.163h-8.31V9.654h8.31v15.383z"/>
  <path d="M18.39 2.874H7.253L2 9.402V25.88l5.252 5.967H18.39l5.31-5.967V9.402l-5.31-6.528zm-1.5 22.163H8.58V9.654h8.31v15.383z"/>
  <polygon points="22.431 2.874 38.13 31.847 53.482 8.934 53.482 31.847 70.565 31.847 75.298 26.191 59.6 26.191 59.6 20.65 70.45 20.65 66.987 14.071 59.253 14.071 59.253 10.031 68.488 10.031 64.794 3.797 47.249 3.797 38.476 17.36 30.396 2.874"/>
  <polygon points="176.184 3.797 176.184 31.847 193.267 31.847 198 26.191 182.302 26.191 182.302 20.65 193.152 20.65 189.689 14.071 181.955 14.071 181.955 10.031 191.19 10.031 187.496 3.797"/>
  <polygon points="69.757 3.567 72.989 9.569 82.455 9.569 84.186 12.916 79.107 20.996 86.495 32.309 94.921 32.309 87.534 19.496 92.612 13.84 86.61 3.567"/>
  <rect x="95.96" y="13.378" width="6.926" height="18.931"/>
  <polygon points="92.382 3.567 94.921 9.453 107.734 9.453 112.236 16.853 105.656 27.576 109.35 27.576 90.881 57.126 123.317 19.611 113.621 3.567"/>
  <polygon points="169.258 2.874 155.406 2.874 150.558 10.492 164.237 25.037 152.29 25.037 147.093 31.847 169.258 31.847 173.413 25.037 159.389 9.8 172.375 9.8"/>
</svg>
