<!--
  SVG Music Logos
  Overdose - Progress of Decadence v1.0.0
  https://github.com/tiagoporto/svg-music-logos
  Copyright (c) 2016-2018 Tiago Porto (http://tiagoporto.com)
-->
<svg xmlns="http://www.w3.org/2000/svg" viewBox="0 0 200 46">
  <path d="M187.457 31.093c-.85 0-1.7.003-2.552 0-.565-.004-1.087-.042-1.542.483-.38.438-1.005.37-1.445.03-.402-.31-.783-.52-1.297-.56-.56-.043-.977-.366-1.207-.894-.467-1.072-.903-2.158-1.406-3.212-.274-.575-.6-1.147-1.01-1.63-.52-.615-1.127-1.14-1.48-1.902-.132-.285-.493-.58-.798-.644-.578-.122-1.103.385-.92.947.41 1.266-.27 2.29-.58 3.396-.166.586-.65.915-1.164 1.176-.827.422-1.654.847-2.5 1.228-1.172.527-2.337 1.09-3.553 1.49-.71.232-1.512.18-2.275.24-.107.007-.23-.068-.33-.13-.72-.443-1.436-.894-2.152-1.343-.61-.38-.892-.97-1.206-1.603-.672-1.354-.524-2.94-1.31-4.248-.117-.192-.084-.472-.125-.71-.124-.72-.19-.78-.942-.813-.323-.014-.648-.004-.972.004-.79.02-.793.02-1 .83-.19.736-.365 1.477-.56 2.213-.257.96-.798 1.73-1.48 2.46-1.087 1.162-2.612 1.553-3.893 2.368-.71.45-1.525.735-2.297 1.083-.683.31-1.358.354-2.115.164-1.718-.43-3.472-.722-5.194-1.14-.658-.16-1.278-.494-1.9-.783-.55-.254-1.08-.552-1.612-.84-.177-.097-.384-.19-.496-.343-.727-1.003-1.48-1.995-2.13-3.047-.454-.737-.582-.87-1.43-.76-.35.044-.718.066-1.06.005-.483-.085-.817-.03-.836.54-.016.468-.27.698-.676.9-.346.175-.628.49-.914.767-1.218 1.178-2.33 2.498-3.677 3.5-.792.587-1.79 1.007-2.8 1.35-.948.324-2.167.444-2.75 1.55-.077.145-.327.246-.512.278-.387.068-.633.26-.87.58-.326.44-.566.418-1.013.1-.317-.226-.63-.548-.984-.615-1.335-.252-2.312.632-2.33 2.024 0 .202-.016.405-.004.606.037.61.088.65.73.623.662-.03.695-.03.727.605.05.955.42 1.89.048 2.875-.322.853-.47 1.002-1.398.854-.2-.032-.406-.09-.6-.07-1.223.14-1.973-.504-2.57-1.467-.4-.642-.348-1.307.346-1.616.576-.256.868-.713 1.202-1.15.395-.514.292-.828-.3-1.128-.825-.418-1.426-1.01-1.73-1.916-.12-.362-.417-.666-.64-.992-.244-.355-.213-.617.168-.786.405-.18.835-.31 1.26-.436.31-.092.633-.142.948-.217.654-.155 2.146-.175 2.89-.063.57.086 1.133.067 1.62-.318.632-.5 1.268-.994 1.9-1.495.095-.076.162-.188.262-.254 1.19-.778 2.278-1.65 2.955-2.95.103-.198.337-.39.55-.46 1.067-.348 1.3-1.27 1.482-2.178.118-.587.108-1.213.058-1.814-.024-.286-.224-.604-.434-.82-1.04-1.073-2.11-2.115-3.167-3.17-.172-.172-.407-.323-.492-.532-.6-1.494-1.957-2.324-2.967-3.458-1.067-1.197-2.324-1.856-3.954-1.718-.2.017-.446.037-.596-.06-1.22-.794-2.624-.25-3.916-.563-.658-.16-1.417.635-1.404 1.334.03 1.656.124 3.31.544 4.924.1.387.295.75.46 1.116.447.98.296 1.756-.57 2.412-.637.482-.783 1.214-1.04 1.876-.08.208.14.626.34.83.49.497.473 1.092.474 1.7 0 .418-.192.734-.617.763-.575.04-1.104.213-1.74-.132-.58-.313-1.397-.225-2.11-.238-.518-.01-1.04.09-1.556.172-.788.125-1.335-.21-1.696-.87-.124-.23-.262-.545-.197-.762.16-.532-.024-.948-.256-1.384-.112-.213-.276-.446-.272-.668.028-1.515-.165-3.053.424-4.517.103-.258.235-.534.23-.8-.02-.875-.102-1.75-.144-2.625-.013-.277.025-.558.045-.836.028-.403.092-.805.086-1.206-.012-.754-.08-1.507-.08-2.26 0-.132.207-.35.348-.38 1.096-.224 2.135-.75 3.312-.577.293.043.686-.07.92-.253.646-.512 1.38-.37 2.095-.395.158-.007.396-.016.466.075.533.706 1.225.507 1.955.507.674 0 1.34.2 2.033.006.724-.203 1.43-.233 2.03.39.143.148.444.21.67.204.754-.024 1.51-.078 2.26-.16.348-.04.604.006.868.27.248.246.563.47.89.584 1.23.426 2.03 1.374 2.95 2.212.727.664 1.565 1.33 2.475 1.648 2.083.727 3.713 1.908 4.8 3.83.113.203.238.485.42.546.864.292 1.338 1.024 1.936 1.614.908.895 1.445.787 2.233-.217.563-.72.818-1.433.754-2.326-.086-1.2.803-1.916 1.53-2.634.612-.606 1.154-1.203 1.53-1.993.567-1.187 1.59-1.83 2.895-1.902.553-.03.824-.17.854-.74.025-.472.394-.673.78-.838.66-.284 1.366-.44 1.963-.918.21-.17.8-.04 1.12.134.982.53 2.057.533 3.107.693.195.03.45.032.566.154.824.864 1.97.884 3.007 1.17.58.16.95.377 1.264.954.432.79 1.106 1.447 1.674 2.163.124.156.297.302.347.48.144.51.446.8.928 1.033.287.138.48.52.657.827.16.276.243.598.363.9.132.33.32.493.735.457 1.19-.103 1.545.183 2 1.225.268.616.676 1.174 1.026 1.755.103.172.253.32.33.502.286.665.542 1.343.82 2.01.742 1.775 2.003 2.815 3.952 3.177 1.032.192 2.044.45 3.083.337.666-.07 1.35-.263 1.954-.555 1.865-.904 1.65-.615 1.677-2.606.01-.708-.157-1.26-.71-1.704-.963-.778-1.728-1.812-2.942-2.265-.222-.082-.467-.268-.662-.225-.58.128-1.065-.12-1.5-.376-1.208-.713-2.57-1.17-3.61-2.176-.244-.235-.617-.366-.954-.47-.587-.178-1.01-.44-1.102-1.124-.08-.614-.407-1.038-1.12-1.047-.472-.006-.655-.33-.81-.76-.173-.48-.493-.906-.747-1.357-.648-1.153-1.382-2.285-1.4-3.664-.012-.887.263-1.54 1.242-1.97.957-.424 2.025-.78 2.725-1.733.232-.316.86-.42 1.322-.466.56-.057 1.082-.076 1.622-.354.38-.197.957-.17 1.4-.057.61.155 1.182.48 1.765.74.146.065.296.148.408.26.92.906 2.18 1.11 3.28 1.64.652.313 1.29.907 1.635 1.538.394.72.935 1.422.974 2.325.013.3.223.602.372.89.556 1.073 1.114 2.147 1.696 3.208.15.274.422.48.575.753.08.142.022.36.026.545-.184 0-.506.055-.532-.01-.367-.907-1.495-.99-1.94-1.905-.255-.525-1.072-.787-1.65-1.143-1.55-.95-3.154-1.82-4.648-2.85-1.467-1.012-3.017-1.83-4.64-2.537-.29-.126-.535-.356-.802-.538-.776-.53-1.95-.323-2.484.453-.15.22-.135.43.105.63.735.614 1.485 1.215 2.16 1.89.59.59 1.25 1.017 2.02 1.303.804.298 1.563.66 2.024 1.445.08.134.206.258.34.34 1.788 1.075 3.57 2.165 5.38 3.2.793.455 1.246 1.13 1.57 1.933.374.923.744 1.845 1.104 2.772.205.528.598.854 1.095 1.076.815.363 1.255.117 1.297-.765.033-.687.088-1.39-.025-2.06-.137-.814.464-1.357.593-2.062.02-.11.318-.22.495-.236.19-.017.39.115.59.118.59.01 1.176-.078 1.395-.728.596-1.772 1.976-2.926 3.26-4.144.398-.38.95-.606 1.448-.87.458-.24 1.01-.34 1.216-.915.013-.036.05-.09.076-.09.988-.004 1.69-.8 2.62-.947.187-.03.455-.013.58.1.548.493 1.125.762 1.864.48.056-.02.188.027.216.08.345.653 1.056.513 1.594.736 1.043.433 2.104.822 3.153 1.24.217.086.482.172.608.344.498.68.986 1.374 1.403 2.106.185.325.304.647.694.776.104.034.25.145.258.23.06.685.494 1.118.883 1.64.343.457.59 1.02.957 1.5.285.374.252.85-.018 1.258-.258.39-.612.45-1.064.34-.3-.074-.634-.014-.952.006-.16.01-.336.13-.47.09-1.163-.356-2.18.166-3.262.435-.844.21-1.766.18-2.634-.148-.336-.127-.702-.223-1.06-.238-2.26-.096-4.522-.165-6.784-.243-.08-.002-.162-.003-.243-.003-1.236.008-1.276.048-1.284 1.313-.003.527.01 1.053.002 1.58-.008.5.043.945.512 1.282.203.146.357.464.39.723.072.542.366.955.588 1.425.347.73.753 1.174 1.598 1.254.31.03.637.35.868.616.78.9 1.88 1.014 2.927 1.198.63.11 1.294.007 1.942.023.462.012.88-.037 1.216-.41.243-.27.553-.31.887-.157.47.213.866.086 1.21-.27.027-.03.055-.065.09-.08 1.587-.714 2.714-1.852 3.337-3.497.182-.48.64-.723 1.138-.826.473-.098.857.263.683.7-.345.874-.574 1.73-1.545 2.335-.977.608-1.974 1.432-2.367 2.672-.127.404-.45.506-.84.574-.59.103-1.162.296-1.748.422-.55.118-1.105.255-1.663.284-.93.047-1.864.013-2.795.013.002-.01.002-.018.002-.027zm-36.106-8.87h-.003v-.242c.003-2.13.047-4.27-1.153-6.18-.06-.095-.013-.25-.063-.355-.17-.353-.29-.767-.556-1.03-.998-.978-1.824-2.183-3.258-2.625-.5-.662-1.292-.716-1.976-.75-.824-.043-1.757.01-2.467.367-.715.36-1.296 1.09-1.787 1.765-.657.903-1.107 1.957-1.772 2.852-.38.51.03.95-.12 1.378-.167.477-.684.975-.6 1.37.237 1.136.032 2.267.164 3.38.1.843.315 1.652 1.176 2.247.72.496 1.52 1.195 1.507 2.23-.01.71.32 1.21.626 1.776.213.394.445.563.856.432.398-.127.722-.096.913.32.31.68.91.76 1.536.694.64-.07 1.26-.186 1.913-.026.227.055.57-.073.765-.234 1.05-.867 2.08-1.76 3.1-2.664.75-.665 1.27-1.443 1.21-2.52-.04-.724-.007-1.455-.007-2.184zm40.776-6.948c.043-.52-.065-.953-.434-1.344-.356-.376-.627-.833-.943-1.25-.12-.156-.236-.386-.395-.43-.918-.25-1.787-.76-2.803-.537-.306.067-.63.07-.946.07-.96-.007-1.648.52-1.99 1.407-.212.548-.44 1.204-.872 1.53-.787.59-.697 1.267-.556 2.038.063.343.26.476.58.488 1.004.037 2.008.087 3.012.107 1.283.025 2.566.035 3.85.03.22-.002.542-.043.646-.19.414-.58.964-1.12.85-1.918z"/>
  <path d="M33.452 20.16c-.73 0-1.458-.016-2.187.005-.546.016-.954-.193-1.19-.675-.29-.596-.833-1.135-.508-1.9-.43-1.386-.355-3.018-1.885-3.872-.14-.078-.27-.187-.373-.31-.387-.45-.692-1.005-1.156-1.347-.467-.343-1.068-.564-1.643-.69-1.004-.218-1.9-.876-3.006-.71-.347.053-.823.082-1.057-.107-.72-.58-1.47-.516-2.287-.384-.833.134-1.69-.29-2.517.037-1.14.453-2.286.793-3.173 1.82-1.006 1.167-1.855 2.432-2.794 3.637-.856 1.1-.942 2.354-1.006 3.64-.02.404.015.815-.048 1.21-.087.548-.494.847-1.03.826-1.45-.058-2.902-.12-4.354-.18-.12-.006-.245 0-.363-.023-.498-.092-.728-.374-.59-.854.12-.42.324-.824.54-1.21.43-.77.89-1.526 1.34-2.286.367-.616.703-1.19 1.37-1.627.67-.438 1.188-1.19 1.608-1.902.313-.53.626-.974 1.104-1.384.67-.574 1.213-1.315 2.026-1.704.92-.44 1.854-.896 2.937-.737.195.03.418.03.598-.037.67-.245 1.316-.572 2-.774.526-.156 1.093-.223 1.644-.237 1.365-.036 2.73-.02 4.097-.022.276 0 .552.022.83.04.835.05 1.6.46 2.482.393.418-.032.92.308 1.296.593.686.52 1.414.912 2.25 1.113.038.01.075.03.115.036.552.094.566.84 1.2.923.45.058.884.37 1.285.63.91.59 1.317 1.756 2.422 2.138.084.03.188.215.168.3-.242.98.546 1 1.12 1.218.074.03.154.05.23.07.82.23.91.167.955-.678.073-1.367-.106-2.632-1.05-3.75-.514-.604-.82-1.39-1.186-2.11-.1-.2-.178-.492-.11-.684.237-.653-.003-1.188-.31-1.726-.546-.957-.923-1.975-1.153-3.054-.083-.387-.274-.75-.4-1.13-.075-.226-.154-.46-.166-.694-.017-.348.117-.646.492-.74.4-.1.745.008.893.417.287.794.545 1.6.808 2.405.46 1.41.848 2.83 1.802 4.053.38.49.613 1.162.933 1.745.35.637.838 1.09 1.438 1.424.593.33.99.78 1.32 1.367.352.622.85 1.16 1.26 1.75.228.332.385.713.616 1.042.25.356.54.686.83 1.012.105.118.322.163.38.29.48 1.036 1.494.97 2.372 1.156.542.115.744-.044.892-.558.022-.077.027-.16.036-.24.227-1.953 1.314-3.434 2.526-4.902.73-.886 1.29-1.956 1.367-3.178.023-.37.02-.775.544-.772.447.003.855.472.65.955-.492 1.16-.46 2.358-.477 3.563 0 .04-.006.087-.028.117-.692.926-.516 1.965-.458 3.014.04.714-.12 1.44-.174 2.16-.024.32-.066.662.017.96.043.156.33.288.53.33.067.016.32-.307.287-.41-.277-.844.053-1.312.85-1.568.127-.04.22-.227.297-.365.85-1.516 1.89-2.492 3.412-3.293.345-.182.582-.56.912-.783.46-.31.934-.655 1.453-.802.543-.153 1.123-.12 1.45-.713.054-.1.3-.18.414-.14.557.192 1.03-.083 1.535-.205 1.4-.336 2.82-.23 4.226-.116.397.03.77.395 1.146.616.584.343 1.177.674 1.74 1.048.838.554 1.743 1.05 2.45 1.742.553.54 1.252 1.048 1.424 1.914.027.136.188.253.303.363.467.445.95.873 1.407 1.328.558.56 1.194.454 1.48-.276.07-.184.11-.394.11-.592-.003-.807.02-1.62-.063-2.42-.04-.39 0-.7.187-1.032.155-.274.38-.606.337-.875-.158-1.01.177-2.07-.347-3.053-.156-.293-.087-.71-.104-1.073-.034-.686-.003-1.38-.1-2.055-.067-.47.117-.694.486-.843.86-.347 1.692-.736 2.67-.716 1.04.022 2.08.07 3.1-.375.474-.205 1.132-.112 1.676-.003 1.224.246 2.454.512 3.634.91.986.334 1.882.93 2.86 1.296 1.42.53 2.507 1.607 3.872 2.212.146.065.266.224.413.248 1.227.205 1.54 1.342 2.17 2.14.31.394.156.828-.31 1.13-1.25.816-2.506 1.62-3.772 2.41-.233.144-.524.194-.782.304-.48.204-.95.43-1.43.63-.482.198-.962.416-1.464.545-.372.096-.755.135-.78.6-.03.506-.256 1.12.268 1.47.852.57 1.318 1.38 1.76 2.26.266.53.71.978 1.117 1.425.364.4.496.81.31 1.33-.234.647.106 1.024.582 1.436.726.63 1.367 1.36 2.03 2.06.414.44.786.92 1.21 1.35.16.163.407.262.632.332.442.138.72-.05.742-.51.034-.742-.22-1.37-.9-1.73-.546-.29-.843-.748-.99-1.313-.08-.31-.133-.718.255-.824.192-.053.51.145.695.314.233.214.35.554.582.77.824.77 1.666 1.52 2.526 2.25.168.14.448.21.677.212 1.35 0 2.374.64 3.28 1.573.975 1.007 2.167 1.42 3.567 1.176.864-.15 1.21.056 1.47.857.137.42.255.848.418 1.258.208.524.172 1.028-.042 1.533-.337.795-.58.79-1.375.495-1.266-.473-2.11-1.324-2.925-2.37-.59-.762-1.535-1.3-2.528-1.52-.555-.124-1-.298-1.284-.79-.242-.422-.62-.626-1.08-.704-.858-.144-1.333.333-.972 1.1.427.906.963 1.775 1.56 2.58.4.534.883 1.046 1.59 1.266.247.077.423.365.65.533.645.48 1.293.96 1.955 1.42.748.52 1.464 1.054 2.396 1.3.526.14.975.248 1.51.127 1.31-.298 1.915.093 2.12 1.4.062.404.245.65.525.902.29.26.44.605.19.974-.247.365-.64.592-1.047.42-1.212-.507-2.615-.61-3.567-1.697-.19-.217-.553-.3-.85-.403-.6-.208-1.132-.433-1.16-1.21-.005-.18-.24-.382-.41-.524-.77-.647-1.582-1.248-2.328-1.923-.348-.315-.573-.763-.863-1.144-.144-.188-.296-.373-.464-.538-.144-.14-.355-.22-.473-.375-1.18-1.55-2.866-2.557-4.22-3.925-.817-.827-1.76-1.514-2.49-2.457-.393-.508-1.116-.78-1.723-1.098-.52-.272-1-.54-1.13-1.17-.016-.078-.04-.18-.096-.22-1.095-.783-1.335-2.145-2.112-3.115-.87-1.084-1.867-2.153-3.52-2.003-1.07.097-1.7.89-1.625 1.944.11 1.53.137 3.068.142 4.603 0 .787-.852 1.48-1.633 1.39-.862-.1-1.77.09-2.562-.487-.186-.135-.565-.106-.817-.03-.553.172-1.033.048-1.518-.198-.414-.21-.698-.32-.454-.98.25-.673.147-1.494.123-2.247-.02-.58-.736-1.074-1.435-.98-1.614.218-3.218.19-4.833.008-.51-.057-1.04.08-1.56.135-.942.1-1.878.045-2.82-.034-.962-.08-1.932-.1-2.9-.102-1.194-.003-2.39.046-3.585.057-.196.003-.396-.063-.59-.117-.46-.127-.96-.42-1.358.037-.45.514-.87 1.07-.728 1.846.262 1.437.832 2.705 1.974 3.657.828.69 1.613 1.47 2.54 1.995 1.1.622 2.298 1.078 3.443 1.63.923.446 1.866-.203 2.77-.512.864-.295 1.71-.644 2.582-.912.747-.23 1.453-.465 1.906-1.176.14-.22.394-.404.637-.515.66-.302 1.347-.55 2.018-.832.344-.143.627-.134.82.23.19.357.244.69-.14.96-.92.647-1.834 1.3-2.76 1.938-.692.478-1.406.925-2.096 1.407-.29.202-.538.46-.807.69-.15.128-.29.33-.462.365-.54.107-.973.302-1.265.815-.09.158-.42.245-.642.253-1.082.036-1.96.582-2.908 1.012-.656.298-1.48.23-2.23.313-.062.007-.164-.065-.196-.127-.494-.954-1.373-.794-2.128-.607-.94.233-1.52-.05-2.085-.78-.517-.666-1.12-1.3-1.787-1.812-1.174-.902-1.958-2.13-2.854-3.254-.506-.635-.673-1.53-1.075-2.26-.604-1.1-.416-2.27-.436-3.43-.015-.922-.075-1.846-.16-2.766-.01-.13-.26-.308-.42-.33-.165-.025-.36.1-.528.186-.048.025-.075.15-.064.223.194 1.237-.504 1.963-1.444 2.56-.132.085-.265.212-.332.35-.53 1.095-1.558 1.728-2.373 2.554-.753.762-1.03.74-1.786-.06-.57-.604-1.37-1.04-1.504-1.99-.018-.128-.202-.242-.325-.345-.574-.483-1.038-1.025-1.055-1.83-.002-.118-.023-.278-.1-.343-.882-.744-1.028-1.9-1.596-2.82-.344-.556-.807-.896-1.465-.948-.507-.04-.67.128-.593.623.025.16.102.31.124.47.12.872-.038 1.05-.97 1.068-.648.013-1.296.002-1.944.002.006.01.006.01.006.013zm29.57.703v.004c.89 0 1.782-.016 2.673.004.965.023 1.803-.39 2.652-.75.225-.094.543-.415.515-.58-.098-.585.272-1.214-.19-1.77-.138-.166-.206-.455-.188-.68.072-.905-.423-1.543-.988-2.128-.385-.4-.8-.84-1.293-1.05-1.03-.438-2.107-.77-3.184-1.078-1.715-.49-3.344-.046-4.944.564-.036.014-.066.046-.097.073-1.385 1.212-2.208 2.755-2.668 4.512-.03.117-.03.24-.052.36-.076.424.09.678.494.845.736.305 1.497.588 2.2.922 1.254.595 2.496.86 3.854.758.402-.03.81-.005 1.214-.005zM81.36 14.96c-.033.412-.052.613-.064.815-.038.647.092.75.75.698.43-.033.866 0 1.298-.005.24-.003.512.044.716-.05 1.677-.77 3.792-.532 5.087-2.192.066-.085.21-.12.326-.152.964-.283.918-1.36 1.514-1.933.04-.038.023-.158.004-.234-.382-1.545-.507-3.232-2.28-3.99-.4-.17-.76-.605-1.138-.605-.998 0-1.77-.485-2.594-.908-.303-.155-.712-.313-1.006-.23-.66.183-1.257.124-1.902-.046-.63-.166-.915.07-.94.74-.028.724-.058 1.468.072 2.174.23 1.25.192 2.486.068 3.734-.03.313-.02.633-.003.95.025.48.07.962.092 1.237z"/>
  <path d="M32.082 28.742c1.198.048 2.396.103 3.594.142.436.015.714.197.687.65-.042.692.31 1.484-.48 2.005-.09.058-.194.214-.176.3.187.904-.416 1.616-.578 2.435-.166.833-.495 1.62-1.235 2.154-.194.14-.406.312-.502.52-.684 1.474-2.146 2.298-3.002 3.627-.127.2-.32.376-.522.502-.808.503-1.728.875-2.422 1.5-.726.656-1.483.944-2.418 1.1-.514.087-.95.605-1.577.38-.087-.032-.245.032-.328.102-1.052.89-2.1.74-3.194.06-.245-.15-.65-.24-.902-.146-.623.233-1.072.106-1.535-.34-.175-.17-.513-.214-.784-.238-.892-.078-1.697-.275-2.487-.79-.61-.4-1.435-.51-2.182-.65-.58-.106-1.085-.266-1.503-.7-.19-.197-.427-.375-.677-.49-.905-.414-1.69-.95-2.115-1.895-.17-.376-.468-.532-.864-.56-1.574-.11-2.505-1.197-3.436-2.277-.104-.12-.174-.274-.244-.42-.632-1.326-.362-1.783 1.116-1.727.888.033 1.657-.165 2.414-.623 1.2-.727 2.628-.13 2.89 1.24.18.94.94 1.39 1.478 2.01.602.693 1.377 1.236 2.077 1.845.06.053.172.103.175.16.057 1.096 1.18 1.456 1.592 2.31.3.62.84.906 1.52 1.078 1.282.324 2.59.388 3.855.202 1.247-.184 2.454-.67 3.656-1.088.263-.09.443-.45.637-.702.365-.475.68-.99 1.073-1.44.606-.696 1.28-1.333 1.88-2.034.23-.268.33-.645.494-.97.126-.25.205-.563.403-.73.603-.51.653-1.157.636-1.87-.023-.955-.212-1.942.414-2.814.082-.114.047-.314.063-.475.106-1.06.28-1.247 1.305-1.318.398-.028.8-.005 1.2-.005.004-.007.004-.016.004-.025z"/>
  <path d="M19.965 21.86c1.017.137 1.788.69 2.225 1.62.562 1.198.98 2.453 1.03 3.793.01.212-.076.53-.228.627-.737.467-1.387 1.115-2.335 1.183-.36.026-.716.113-1.068.195-1.182.273-1.97-.11-2.425-1.192-.326-.78-.63-1.568-.977-2.337-.165-.37-.14-.686.024-1.04.168-.362.266-.756.43-1.12.092-.208.212-.473.393-.562.793-.39 1.61-.73 2.424-1.077.144-.06.315-.058.505-.09z"/>
  <path d="M5.31 24.07c.828-.05 1.634-.085 2.437-.16.346-.03.534.106.655.4.257.62.43 1.264-.072 1.825-.71.792-.613 1.604-.182 2.462.09.18.178.367.224.56.17.717-.018 1.04-.72 1.278-.192.064-.39.156-.584.157-.698.002-1.305.187-1.933.538-.93.52-2.397-.092-2.904-1.077-.21-.41.023-.848.488-.873.195-.01.393.07.59.096.28.038.558.083.837.094.503.02.986-.048 1.244-.562.265-.53.066-1.035-.163-1.508-.07-.144-.3-.244-.478-.297-1-.297-2.005-.57-3.007-.857-.116-.033-.228-.084-.335-.14-.546-.295-.522-.592-.048-.995 1.17-.993 2.524-1.148 3.95-.94z"/>
  <path d="M113.763 27.047c-1.55-.126-2.532-1.26-3.376-2.566-.08-.123-.117-.316-.09-.462.114-.618.255-1.247.406-1.836.144-.563.8-1.062 1.484-1.272.114-.035.27.01.355-.053.8-.578 1.585-.286 2.4-.03.4.125.708.27.985.613.322.397.78.682 1.16 1.034.475.44.44.56.035 1.073-.772.975-1.506 1.98-2.253 2.973-.244.324-.46.688-1.107.527z"/>
  <path d="M122.48 35.69c1.36.518 2.192-.183 2.983-.983.283-.287.525-.617.82-.89.29-.267.617-.495.937-.726.418-.3.908-.53 1.258-.897.8-.836 1.532-1.735 2.292-2.608.027-.03.045-.082.077-.09.215-.067.432-.125.65-.185.006.26.123.612-.002.758-.268.31-.418.656-.61 1.002-.344.617-.812 1.178-1.293 1.703-.76.83-1.565 1.617-2.37 2.403-.257.25-.57.45-.868.655-.165.116-.41.156-.52.303-.84 1.118-2.145 1.67-3.132 2.607-.117.11-.225.235-.35.337-1.198.987-2.63.646-3.23-.79-.08-.192-.048-.497.052-.685.33-.618.743-1.13 1.548-1.203.37-.035.722-.288 1.084-.438.25-.104.503-.202.675-.27z"/>
  <path d="M33.345 22.83c.767 0 1.537-.035 2.302.008 1.13.064 1.36.377 1.167 1.453-.057.318-.155.635-.153.952.005.632-.32.973-.883 1.14-.386.114-.774.24-1.17.297-.218.03-.53 0-.67-.134-.75-.724-1.645-.458-2.462-.32-.396.065-.597.003-.827-.236-.64-.664-.65-1.546-.765-2.372-.06-.43.416-.768 1.04-.794.806-.033 1.615-.008 2.423-.008v.014z"/>
</svg>
