<!--
  SVG Music Logos
  Raimundos - R v0.1.0
  https://github.com/tiagoporto/svg-music-logos
  Copyright (c) 2016-2018 Tiago Porto (http://tiagoporto.com)
-->
<svg xmlns="http://www.w3.org/2000/svg" viewBox="0 0 200 181">
  <path d="M88.948 64.915h28.302c6.417 0 11.783 5.25 11.15 12.907-.945 11.437-10.837 15.353-18.965 17.222 7.564 2.457 8.814 16.582 11.46 22.088h-15.072c-3.8-7.95-6.726-19.1-10.407-20.084l-3.545-.012-5.547 20.095H74l14.948-52.215zm5.805 22.192H107.1c4.017 0 8.595-4.107 8.595-8.132 0-2.865-2.042-4.875-4.017-4.875H98.53l-3.777 13.007z"/>
  <path d="M198 51.51l-15.32-27.84-3.15 16.348H84.912l3.76-14.543h12.145L81.658 1.56 54.005 25.474h13.74l-26.06 100.81H27.21l2.82-9.153L2 136.71l15.32 21.674 4.202-13.64h98.53l-3.227 12.488h-14.863l18.926 22.21 31.522-22.21h-16.155l25.53-98.755h14.188l-3.01 15.623L198 51.51zm-80.81 74.774H68.798c-4.552 0-5.767-1.627-4.673-5.89 3.86-15.042 13.827-53.843 14.508-56.08 1.482-4.87 2.995-5.837 6.95-5.837h49.357c5.546 0 6.25 2.585 4.95 7.605-.98 3.796-9.095 36.284-12.992 51.894-1.678 6.724-4.023 8.308-9.708 8.308z"/>
</svg>
