<!--
  SVG Music Logos
  Rainbow - Rising v1.0.0
  https://github.com/tiagoporto/svg-music-logos
  Copyright (c) 2016-2018 Tiago Porto (http://tiagoporto.com)
-->
<svg xmlns="http://www.w3.org/2000/svg" viewBox="0 0 200 50">
  <path d="M174.323 8.613c-2.19-.317-3.09.29-3.09 1.16 0 3.084 6.31 1.91 6.31 6.692v13.72c0 2.265 3.924 2.047 3.924.246V19.79c0-1.53-.847-3.003-1.857-3.003-.54 0-.745.147-1.128.488-.26.23-.577.078-.23-.31.468-.523 5.206-5.745 5.206-5.745s4.36 3.154 4.36 5.875v11.48c0 2.51 3.656 3.766 3.656 3.766V18.248c0-.752-.573-1.937-1.37-1.937-.588 0-1.07.36-1.324.532-.26.177-.507.04-.136-.34l4.875-5.007S198 15.207 198 17.25v13.055s-6.028 2.226-9.96 8.3c-3.282-3.272-4.852-4.836-8.075-5.91-2.51.928-3.35 1.586-5.727 5.733-1.326-2.035-3.06-3.648-5.134-5.215 0 0 1.528-.606 1.528-1.8v-12.2c0-2.127-2.954-1.827-2.954-5.758 0-3.81 2.67-6.51 6.82-5.252l-.175.41z"/>
  <path d="M155.99 11.683c-3.276 2.21-7.935 4.144-12.76 3.96v14.323c0 1.363-.778 1.858-1.462 2.12-.498.192-.425.6.058.787 3.482 1.35 5.802 3.356 7.933 5.732 3.053-5.39 10.21-2.67 10.21-7.704 0-2.876.017-13.104.017-13.104-.086-1.852-.407-3.794-3.998-6.113zm-2.387 21.53s-4.065-2.565-4.065-4.37V16.54s0-.897.396-.897c.68 0 3.67 2.734 3.67 3.722v13.848z"/>
  <path d="M131.21 12.493l-6.376 5.6V9.526c-.265-4.51 1.373-6.344 4.702-6.098.926.067.737-.243.198-.364-7.402-1.67-10.76 2.82-11.618 4.743 0 0-1.296-2.648-2-3.33-.567-.55-.732-.05-.442.3 1.105 1.337 2.224 3.83 2.224 6.522V29.51c0 1.596-1.127 2.163-1.65 2.455-.468.262-.13.39.372.636 3.433 1.69 5.802 4.1 7.42 5.907.154.172.135.188.27-.025 2.996-4.694 10.575-2.057 10.575-8.337v-12.85c-.086-1.854-1.244-3.957-3.676-4.802zm-2.61 20.72s-3.767-2.15-3.767-3.01v-11.85c.635-.517 1.257-1.102 1.94-1.102 1.174 0 1.827 1.163 1.827 2.582v13.38z"/>
  <path d="M109.424 32.545c-.38.227-.9.562-1.455.583-.795.03-1.533-.43-1.533-2.176V19.87c0-1.5.878-2.118 2.045-2.323.22-.038.378-.264.023-.476-1.828-1.09-3.257-2.992-4.608-5.1l-7.766 6.094v-1.447c0-1.75-.853-3.567-2.846-5.115l-6.43 5.967.21.08s2.832-1.746 2.832 1.294v12.55c0 1.616-.757 1.75-1.443 1.902-.335.075-.582.464.09.604 1.636.34 3.524 2.957 4.364 4.705 1.034-1.582 2.86-3.888 4.503-4.347.528-.148.528-.422.212-.537-.78-.28-1.49-.81-1.49-2.727V18.59c.873-.71 2.218-1.808 2.976-1.804.945.006 1.14 1.017 1.14 1.592v13.42c0 4.636 3.036 6.807 3.036 6.807l6.426-5.76-.286-.3z"/>
  <path d="M70.876 16.75l4.965-5.028 5.18 4.712s-1.904 1.458-1.904 1.954v11.695c0 2.27 1.085 2.987 1.912 3.018.828.032 1.873-.746 1.873-.746l.314.28-6.958 5.97s-3.584-2.484-3.584-5.588V16.92c0-.47-.75-.538-1.658-.083-.157.076-.24.016-.138-.087z"/>
  <path d="M76.272 10.2c1.983-2.702 3.764-2.817 3.764-4.943 0-.79-.807-2.93-3.277-2.93s-3.82 1.838-3.82 2.93c-.002 1.667 1.75 3.218 3.332 4.942z"/>
  <path d="M56.713 11.49s-2.883 2.003-4.786 2.95c-1.902.945-6.495 1.336-6.495 6.412v11.304c0 4.066 4.485 6.45 4.485 6.45l5.79-6.69-.19-.297c-.38.317-1.07 1.063-1.97 1.063-.622 0-1.167-.55-1.167-1.37 0-2.125-.017-15.168-.017-15.168l3.24 1.835v13.652c0 4.652 4.488 6.973 4.488 6.973l5.513-6.038-.146-.13c-.192.122-.87.355-1.353.36-.853.01-1.753-.587-1.753-3.15V18.67l2.25-2.01-7.887-5.17z"/>
  <path d="M29.77 22.844c5.79.473 9.19-4.64 9.088-10.26-.12-6.632-4.833-10.128-8.155-10.128-3.99 0-7.123 3.847-8.203 7.536-.504-2.95-4.117-8.255-9.023-8.255S2.507 4.56 2.507 11.274c0 8.187 6.467 5.772 6.467 9.17 0 .69-.476 1.832-2.566 1.85l-.058.408c3.297 0 6.226-1.604 6.226-6.72 0-7.08-6.508-4.707-6.508-9.087 0-1.702 1.02-2.865 2.538-2.865 3.783 0 6.303 3.787 6.303 8.268v24.716c0 2.738-1.28 4.09-2.018 4.936L9.34 36.834 2 43.008l.197.305L4.1 41.787l3.87 5.56c5.954-2.436 14.29-12.72 14.29-15.75s.315-17.09.315-19.79c0-3.505 2.818-5.952 4.214-5.952 2.682 0 4.612 3.826 4.71 7.03.134 4.298-1.706 8.573-6.66 8.42-.016 12.777 2.583 23.206 12.117 26.96l7.366-9.134-.22-.194c-.783.547-1.356.865-2.568.865-3.642 0-7.835-6.015-11.766-16.956z"/>
</svg>
