<svg xmlns="http://www.w3.org/2000/svg" viewBox="0 0 200 57">
  <polygon points="179.476,38.664 179.476,38.665 183.718,38.665 183.718,22.425 179.476,22.425 179.476,31.428 176.148,22.426 176.148,22.425 171.906,22.425 171.906,38.665 176.148,38.665 176.148,31.605 179.476,38.664 179.476,38.664"/>
  <polygon points="167.522,25.889 169.032,25.889 169.032,22.473 162.48,22.473 162.48,25.889 163.991,25.889 163.991,35.249 162.48,35.249 162.48,38.665 169.032,38.665 169.032,35.249 167.522,35.249 167.522,25.889 167.522,25.889"/>
  <polygon points="149.357,29.134 149.32,29.134 149.32,32.589 149.357,32.589 149.357,34.726 149.357,35.354 149.357,38.665 160.034,38.665 160.034,34.726 152.977,34.726 152.977,32.589 156.487,32.589 156.487,29.134 152.977,29.134 152.977,26.37 160.034,26.37 160.034,22.431 149.357,22.431 149.357,25.195 149.357,26.37 149.357,29.134 149.357,29.134"/>
  <polygon points="139.211,26.329 139.211,38.665 143.343,38.665 143.343,26.329 146.634,26.329 146.634,22.425 135.92,22.425 135.92,26.329 139.211,26.329 139.211,26.329"/>
  <polygon points="123.32,31.931 123.32,32.48 130.401,32.48 130.401,34.726 123.32,34.726 123.32,38.665 133.36,38.665 133.36,37.24 133.36,34.726 133.36,32.48 133.36,29.104 133.36,28.534 126.279,28.534 126.279,26.308 133.36,26.308 133.36,22.425 123.32,22.425 123.32,23.796 123.32,26.308 123.32,28.534 123.32,31.931 123.32,31.931"/>
  <path d="M99.832 8.617H87.185L90.502 4H2.164l3.23 3.62H75.2l-2.557 2.788H7.863l3.224 3.56 70.747-.006v26.79c0 4.993 4.396 7.74 9.872 9.25 5.474 1.51 8.125 4.09 8.126 4.09 0 0 2.652-2.58 8.126-4.09 5.475-1.51 9.872-4.257 9.872-9.25v-26.79l70.747.005 3.225-3.56h-64.78l-2.557-2.786h69.806L197.5 4h-88.338l3.317 4.617H99.83zm.95 34.685h4.75v-7.36h7.598v-4.598h1.9v6.44h-7.6v7.358h-6.648v-1.84zM84.634 23.065h17.098v7.36l2.617 7.358h-8.79l-1.426-4.008v4.008h-9.5v-6.44h1.9v4.6h5.7v-5.52h2.608l1.962 5.52h4.99l-1.96-5.52v-5.518h-13.3v4.6h-1.9v-6.44zm16.148-7.36h6.65v7.36h7.598v6.44h-1.9v-4.6h-7.6v-7.36h-4.748v-1.84zm-6.65 1.84v3.68h-1.9v-5.52h6.65v1.84h-4.75zm4.75 25.757v1.84h-6.65v-5.52h1.9v3.68h4.75z"/>
  <polygon points="73.017,22.475 73.016,22.475 73.016,22.477 69.651,28.557 66.508,22.474 66.505,22.486 66.505,22.475 63.02,22.475 63.02,38.665 66.505,38.665 66.505,29.153 69.727,34.082 73.016,28.949 73.016,38.665 76.502,38.665 76.502,22.475 73.018,22.475 73.018,22.473 73.017,22.475 73.017,22.475"/>
  <polygon points="55.486,22.475 55.486,22.475 55.486,22.477 52.12,28.557 48.977,22.474 48.975,22.486 48.975,22.475 45.489,22.475 45.489,38.665 48.975,38.665 48.975,29.153 52.196,34.082 55.486,28.949 55.486,38.665 58.971,38.665 58.971,22.475 55.488,22.475 55.488,22.473 55.486,22.475 55.486,22.475"/>
  <path d="M30.953 38.65l2.968-.004.604-4h3.56l.603 4.018h2.976L39.83 22.472h-7.658l-1.22 16.178zm3.87-7.524l.324-5.19h2.335l.31 5.19h-2.968z"/>
  <path d="M16.607 33.408v5.257h4.063v-5.257h.82l2.755 5.204h3.575l-2.362-5.204h1.82V22.473h-10.67V33.41zm7.043-6.835v3.417h-3.52v-3.417h3.52z"/>
</svg>
