<svg xmlns="http://www.w3.org/2000/svg" viewBox="0 0 200 95">
  <polygon points="103.201 21.919 103.201 27.762 108.274 27.762 108.274 34.487 105.886 36.875 95.419 36.875 93.031 34.487 93.031 11.347 95.419 8.959 105.886 8.959 108.274 11.347 108.274 16.076 114.117 16.076 114.117 8.959 108.274 3.116 93.031 3.116 87.188 8.959 87.188 36.875 93.031 42.718 108.274 42.718 114.117 36.875 114.117 21.919"/>
  <polygon points="146.772 8.959 146.772 3.116 121.926 3.116 121.926 42.718 146.772 42.718 146.772 36.875 127.768 36.875 127.768 25.798 142.789 25.798 142.789 19.956 127.768 19.956 127.768 8.959"/>
  <polygon points="128.872 58.085 128.872 52.242 104.025 52.242 104.025 91.844 128.872 91.844 128.872 86.001 109.868 86.001 109.868 74.924 124.889 74.924 124.889 69.081 109.868 69.081 109.868 58.085"/>
  <path d="M74.355 3.116H59.112L53.27 8.96v27.915l5.842 5.843h15.243l5.843-5.843V8.96l-5.843-5.844zm0 31.37l-2.388 2.39H61.5l-2.388-2.39v-23.14L61.5 8.96h10.467l2.388 2.387v23.14z"/>
  <path d="M67.012 91.884h6.094l-11.75-39.642h-7.12L42.49 91.884h6.094l2.956-9.975h12.517l2.957 9.974zM53.27 76.066l4.527-15.275 4.527 15.276H53.27z"/>
  <polygon points="18.792 91.884 24.47 66.178 30.28 91.884 37.639 91.884 46.387 52.282 40.38 52.282 33.885 81.017 27.539 52.285 21.534 52.282 15.047 80.976 8.709 52.282 2.5 52.282 11.451 91.884"/>
  <polygon points="96.668 52.313 71.494 52.313 71.494 58.156 81.16 58.156 81.16 91.874 87.002 91.874 87.002 58.156 96.668 58.156"/>
  <path d="M39.707 42.718h6.206l-6.057-16.92h.004l5.843-5.842V8.96L39.86 3.115H18.773v39.6h5.843V25.8h9.034l6.057 16.92zM24.615 8.958H37.47l2.388 2.39v6.22l-2.388 2.387H24.615V8.96z"/>
  <path d="M175.187 42.718h6.206l-6.057-16.92h.004l5.843-5.842V8.96l-5.843-5.844h-21.086v39.6h5.843V25.8h9.034l6.057 16.92zm-15.092-33.76h12.855l2.388 2.39v6.22l-2.388 2.387h-12.855V8.96z"/>
  <path d="M157.302 91.844h6.206l-6.057-16.92h.005l5.843-5.842V58.085l-5.843-5.843H136.37v39.6h5.842V74.925h9.034l6.056 16.92zm-15.09-33.76h12.854l2.388 2.39v6.22l-2.388 2.387H142.21V58.086z"/>
  <polygon points="170.571 79.499 170.571 86.001 176.414 91.844 191.657 91.844 197.5 86.001 197.5 74.964 191.657 69.081 178.802 69.081 176.414 66.693 176.414 60.473 178.802 58.085 189.269 58.085 191.657 60.473 191.657 64.481 197.5 64.481 197.5 58.085 191.657 52.242 176.414 52.242 170.571 58.085 170.571 69.081 176.414 74.964 189.269 74.964 191.657 77.353 191.657 83.613 189.269 86.001 178.802 86.001 176.414 83.613 176.414 79.499"/>
</svg>
