<!--
  SVG Music Logos
  Samael - Ceremony of Opposites Tour v0.1.0
  https://github.com/tiagoporto/svg-music-logos
  Copyright (c) 2016-2018 Tiago Porto (http://tiagoporto.com)
-->
<svg xmlns="http://www.w3.org/2000/svg" viewBox="0 0 200 34">
  <polygon points="184.764 24.438 184.764 2.535 177.737 2.535 177.737 31.465 196.667 31.465 196.667 24.438"/>
  <g>
    <rect x="143.418" y="24.438" width="18.93" height="7.028"/>
    <rect x="143.418" y="2.535" width="18.93" height="7.028"/>
    <rect x="143.418" y="13.486" width="18.93" height="7.028"/>
  </g>
  <polygon points="132.144 31.465 120.841 2.535 117.24 2.535 105 31.465 113.083 31.465 118.802 17.266 124.062 31.465"/>
  <g>
    <rect x="67.168" y="2.535" width="7.028" height="28.931"/>
    <rect x="78.412" y="2.535" width="7.028" height="28.931"/>
    <rect x="89.657" y="2.535" width="7.028" height="28.931"/>
  </g>
  <polygon points="58.471 31.465 47.168 2.535 43.567 2.535 31.327 31.465 39.409 31.465 45.129 17.266 50.388 31.465"/>
  <polygon points="21.166 9.562 21.166 2.535 3.333 2.535 3.333 2.535 3.333 20.514 13.787 20.514 13.787 24.438 3.333 24.438 3.333 31.465 21.166 31.465 21.166 13.486 10.361 13.486 10.361 9.562"/>
</svg>
