<svg  xmlns="http://www.w3.org/2000/svg" viewBox="0 0 200 88">
  <path d="M77.748 15.99v-.113.113z"/>
  <path d="M171.66 28.902c.567.34 1.585 3.738 1.925 4.53-2.32-.34-4.47.397-6.393 1.133-.283-1.076-.622-2.152-.905-3.228 1.753-.793 3.563-1.642 5.374-2.435z"/>
  <path d="M59.87 28.392c-.85.113-1.64.17-2.49.227-.112 1.98-.17 3.96-.282 5.94 4.017-.57 5.205-2.95 2.772-6.18zm-.51 3.738h-.565v-1.87h.566v1.87z"/>
  <path d="M198.194 44.872c-1.3.906-2.32 2.096-3.508 3.058-1.245.793-2.49 1.586-3.79 2.322-1.018.68-1.98 1.926-3.395 1.36h-.17c-.22-2.776.91-2.55 1.36-4.475-3.62-1.133-7.01-5.833-5.88-11.27.51-2.718 1.76-3.964 1.76-7.306-.05 0-.11 0-.11-.05-.39.51-3.11 2.49-3.73 2.38h-.45c.57-1.81 1.13-3.57 1.7-5.32 1.13-6.28-1.18-13.25-3.33-16.93-.56-.96-1.02-1.98-1.64-2.89-.28-.34-.62-.68-.9-1.07-.11-.05-.22-.17-.34-.28-.11 2.15-.28 4.31-.39 6.4-.34 1.98-.96 4.53-1.86 6.06-2.09 3.63-6.5 6.91-11.48 4.36-.96-.51-2.04-1.07-2.72-1.87-1.08-1.3-1.98-2.77-2.55-4.53-.28-1.24-.62-2.43-.96-3.62v-.11c-1.92 1.48-1.64 7.25-.96 10.14.56 2.55 1.07 4.98 1.98 7.14 1.02 2.32 2.66 4.59 1.92 8.16-.34 1.7-1.07 2.94-1.64 4.3 0 0-.06.06-.11.06 0-6.29-1.24-12.29-3.11-16.88-.62-1.53-1.19-3.62-2.43-4.53-.79.51-1.59 1.02-2.38 1.47-.96.4-2.49-.34-3.11-.62-2.2-1.13-2.49-2.95-3.45-5.32-.39-.79-.79-1.64-1.19-2.49-.05 0-.05-.06-.11-.06-.56 4.87-2.49 11.05-5.09 13.99.23.85.46 1.7.74 2.55-1.53-1.42-1.87-4.36-2.26-6.85 0-1.02.06-2.04.06-3.06-.34-1.64-1.58-2.66-2.09-4.13-.17-.11-.28-.11-.62-.05-.85.51-1.58 3.91-2.04 5.04-.56 1.42-1.19 3-2.09 4.14-1.36 1.47-2.71 2.89-4.07 4.36-.06.06-.06.06-.11.06-.9-.68-2.43-1.47-2.09-3.11l.11-.11c.4.11 3.39.62 3.73.4 1.14-.96-.85-3.96-1.3-4.81-.51-.9-1.07-1.81-1.58-2.72-1.47-1.53-2.88-3.11-4.35-4.64l-3-3.17c-.34-.11-.96.29-1.3.46-.17-.34-.29-.68-.4-1.02-.85-.45-1.64-.9-2.49-1.36-1.81-1.3-3.85-3.79-4.3-6.34h-.05l-3.4 6.62c-.51 1.02-.85 2.33-2.09 2.61-1.19.29-2.15-1.02-3.11-1.24-1.64 3.51-3.28 6.96-4.92 10.47H93c-1.13-3.97-2.32-7.87-3.45-11.78h-.06c-1.47 2.49-2.882 5.04-4.353 7.59-1.076 1.87-2.6 3.34-3.848 4.98.56 1.42 3.28 5.95 2.03 7.48-.06.06-.06.06-.06.11-.45-1.31-.85-2.55-1.25-3.86-1.02-2.66-2.6-6.96-4.24-9 0 .74 0 1.48.05 2.21l-.17 4.36c-.46 2.55-.68 4.87-1.42 7.14-.34.62-.62 1.19-.96 1.81-3.96-.34-4.42-6-5.21-9.51-.11-.9-.28-1.87-.39-2.77-1.07-1.24-2.2-2.49-3.28-3.74V26.8h-.06c-.45-3.055-1.36-5.66-2.43-8.04-.4-.85-.68-2.434-1.92-2.49-.34.964-.74 1.983-1.08 2.946H60c-.566-2.94-1.075-5.94-1.64-8.89-.28-1.3-.23-2.89-1.13-3.57-1.25.91-1.64 3.18-2.21 4.65-.57 1.413-1.133 2.83-1.7 4.19-.9 1.36-1.864 2.773-2.77 4.132-.394.566-.79 1.076-1.13 1.64-4.073 2.946-7.58-.85-7.694-5.55h-.13c-.455 1.247-.96 2.49-1.416 3.74-.285-.395-.51-6.455-.51-7.42-.06 0-.06-.055-.114-.055-.9 2.27-2.54 3.97-3.84 5.89-.62.85-1.19 1.76-1.81 2.664-.91.34-1.81.73-2.66 1.13-.62-.85-1.19-1.7-1.756-2.55-1.47-1.98-6.56-7.42-9.277-7.76 0 .05 0 .05-.05.11.393.85 1.36 2.83.902 3.68v.11c-.628-.115-1.25-.23-1.87-.4v5.04c-.34 0-.68 0-1.02.057-1.078-1.08-1.64-4.87-1.64-7.026-1.418.053-2.83 2.09-3.398 3.11-2.6 4.417-3.11 11.72-2.15 18.235.79-1.076 1.58-2.095 2.375-3.17 0-.057.05-.057.11-.057-.286 1.923-.57 3.85-.79 5.773-3 1.36-9.68.34-10.81 3.46v.17c.79.05 3.17.85 3.62 1.36.45.51.51 1.41.735 2.15.79 2.66 1.19 5.32 1.927 8.21.79 3.51 3.51 8.5 5.49 10.93 1.47 1.42 2.94 2.83 4.41 4.25 1.87 1.47 3.4 3.45 5.38 4.81 1.41.96 3.11 1.53 4.634 2.43 3.28 1.93 6.56 3.23 10.81 4.36 2.49.62 5.09.74 7.978 1.19 1.02.11 2.096.23 3.114.34 1.864-.23 3.674-.45 5.485-.68 2.1-.34 4.13-.74 6.17-1.08-.79-.68-3.79-.8-4.97-1.08-2.89-.85-5.83-1.7-8.718-2.55-3.45-1.25-6.68-3.17-9.62-4.98-1.418-.85-2.83-1.59-4.19-2.49C30.28 65 27.28 61.54 24.79 57.47c-1.64-2.666-3-5.21-3.96-8.67-.23-.964-.79-2.946-.4-4.08.46-1.072 3.12-1.922 4.64-1.13.8.68 1.64 1.36 2.44 2.04.11.397.227.79.28 1.19.51 1.246 1.02 2.49 1.528 3.738.055.06.055.06.112.06.68-.908 1.863-1.758 3.334-1.81 2.096 1.87 3.28 4.3 4.02 7.53.17 1.36.396 2.72.62 4.074.68 2.715 1.527 5.83 1.64 8.89h.057c.17-.06.28-.17.4-.285.51-.51.56-3.968.73-4.988.74-4.02.68-7.98 2.21-11.49.4-.97 1.13-3.91 2.89-3.34 1.13.79 2.2 1.52 3.34 2.32.11-.4.23-.85.34-1.31v-.06h.06c.45 1.24.96 2.55 1.47 3.85.85 2.49 1.75 5.04 2.6 7.59 1.13 3.56 1.98 7.76 4.52 9.96-.11-1.81-.28-3.85-.62-5.72.06-1.25.06-2.49.06-3.74.05-.96.11-1.98.17-2.95.45-2.49.79-4.87 1.47-7.08.56-1.76 1.75-2.89 2.43-4.36.06-.12.17-.17.23-.29-1.13-1.19-2.77-4.08-1.87-6.62 1.47.22 2.09 1.92 2.09 3.51.17.11.34.17.45.22.23.11 1.98-1.7 2.15-2.15.06-.06.17-.12.23-.17.79 1.24 1.36 2.49 1.69 4.3.34 2.04-1.01 4.81-.34 6.62v.11c1.64-.56 3.28-1.13 4.98-1.7.85.97 1.81 1.76 2.49 2.95 1.41 2.32 1.64 5.55 2.38 8.493.63 2.942 1.19 5.89 1.81 8.832h.06c.79-1.87.34-5.15.74-7.477.79-4.7 1.36-10.76 3.68-13.98.57.11 1.08.23 1.64.28.68.51 1.47 2.886 1.87 3.85 1.36 3.06 2.38 6.23 3.29 9.85.28 1.19.68 2.665.74 4.02h.06l.85-11.89c.68-1.53 1.42-3.113 2.1-4.7 2.2.4 3.22 3.287 3.39 5.66h.055c2.094-1.92 2.6-5.32 5.38-6.68h.05c-.06 2.89-2.72 2.38-2.604 4.646 4.69 1.817 7.3 8.27 9.22 13.087.62 1.758 1.58 3.68 1.87 5.608h.05c1.81-1.41.34-5.55.74-8.21.73-4.415 1.58-7.7 3.56-10.7.28-.456.57-.85.79-1.25 1.81-1.3 4.47.4 5.37 1.19 3.34 2.66 6.677 7.99 8.09 12.63.11.06.227.17.34.23-.85-3.51-.79-7.99.51-11.1.45-.91.906-1.81 1.415-2.72.79.114 2.83 2.265 3.51 2.89 2.72 2.72 5.04 5.78 6.68 9.52.34.79.9 1.64 1.13 2.604h.05c.11-.79.23-1.586.4-2.38.51-2.66.56-6.116 1.52-8.49.68-1.53 1.7-3.23 2.95-4.19.62-.51 1.75-.968 2.036-1.76 0-.34-.287-.45-.4-.737-.055-.4-.055-.8-.055-1.25-.22-.51-.39-1.08-.56-1.64.28-.06.57-.118.91-.118.223.286.506.57.73.85 0 .966-.06 1.98-.114 3 .566.68 1.41 1.25 1.697 2.156.63 1.76-.85 3.34-1.18 4.7l.17 1.19c1.08-.62 1.92-1.3 3.4-1.59 3.28-.68 7.98 2.78 8.83 4.65.06.058.115.058.115.058 1.36-1.75.51-3.06-.11-4.92 1.138 1.25 2.27 2.49 3.4 3.68.45-3.17.28-7.02 1.19-9.965.74-2.66 2.093-4.7 3.23-6.91-.45-.62-1.87-1.98-1.53-3 .22-.34.68-.4 1.07-.51 1.92-.63 3.17.62 3.79 1.81 1.87 3.39 1.245 8.83-.28 12.12V56c1.583-.113 3.224-.51 4.75-.17.74 1.246-1.07 2.15-1.75 2.775-2.38 2.32-4.867 4.417-7.64 6.4-7.19 5.096-15.05 10.02-23.76 13.59-5.32 1.81-10.7 3.625-16.07 5.495.85 1.13 3.79 1.077 5.88.907 6.45-.62 12.96-1.19 19.01-2.604 3.23-.736 6.62-1.3 9.51-2.435 4.13-1.586 7.58-3.624 11.03-5.833 1.7-.96 3.34-1.98 4.98-2.944 1.58-1.13 2.83-2.66 4.357-3.85 3.28-2.72 6.22-5.83 8.54-9.51 2.206-3.4 6.22-7.53 6.166-12.91h-.05zm-50.35-19.198c.79.85-.793 2.718-1.302 2.888-.17 0-.283 0-.453-.057-.29-1.812.56-2.265 1.75-2.83zM137.32 36.547c-.113.51-.226 1.076-.283 1.642-.113-.34-.17-.68-.226-1.02.17-.23.34-.46.51-.63zm-10.862-2.322c.283.283 1.358 5.55 1.47 6.286-1.187-.39-2.32-.84-3.507-1.3 0-1.58 1.25-3.85 2.04-4.98zM113.39 11.063c-.283 1.076-.51 2.095-.736 3.17-.056 0-.056.058-.056.114-.17-.51-.34-1.02-.453-1.53.396-.565.792-1.188 1.245-1.754zm-11.598 5.097c1.754-.056 1.867 2.265.453 2.605-1.584.34-2.15-1.813-.453-2.605zM73.448 37.454c1.923.396 4.47 2.265 3.734 4.7-.226.113-.453.227-.68.397-1.3-.62-2.6-1.24-3.846-1.86 0-1.58.34-2.26.792-3.23zm-27.608-9.91c.34-1.247 1.188-1.587 2.32-2.096 3.96-.113 4.243 4.87 1.075 5.606-1.867.453-3.96-1.36-3.395-3.51zM32.998 28.79h-.056c-.226-1.02-.453-2.097-.736-3.117 1.527.51 1.3 1.87.792 3.115zm-1.98 5.717c-.113 4.134-.226 8.212-.283 12.346h-.68c-.904-2.21-2.205-4.02-4.412-4.87-2.885-1.133-4.922-.113-6.62 1.246-.45.34-1.017.62-1.187 1.24-.34 1.24.113 3 .34 3.91.79 3.57 2.375 5.77 4.016 8.32 1.358 2.15 2.376 4.58 3.904 6.51 3.62 4.53 10.75 7.87 16.18 10.64 2.998 1.58 5.94 3.62 9.787 4.3-1.188.79-3.904.68-5.77.56-4.866-.34-8.317-1.76-11.995-3.17-7.75-2.95-13.125-6.8-17.877-12.75-1.69-2.09-3.79-4.08-4.92-6.74-.51-1.58-.96-3.11-1.47-4.64-.85-2.72-1.98-6.06-1.98-9.4-.9-.57-1.75-1.19-2.6-1.76v-.05c1.02-1.02 3.51-1.02 5.49-1.02h1.93c.79-.28 1.53-1.7 1.76-2.55.06-.06.12-.06.12-.06.97.85 1.87 1.7 2.83 2.55.57.11 1.19.22 1.81.28.91.23 2.27.63 3.4.29.57-.12 3.06-1.65 3.34-2.04.17-.51.29-1.02.4-1.53.68-3.68-5.2-4.93-8.09-4.08-1.13.28-1.81 1.02-2.71 1.41l-.17.17h-.06c.17-1.53.34-3.12.46-4.65-.17-.4-.34-.8-.56-1.19-.85-.57-2.26-.51-2.49.62-.96-.34-.73-2.84-.51-3.85.51-2.83.91-7.53 3-8.55l.17-.17c.17.9.34 1.75.46 2.66.45 1.42 1.36 2.49 2.04 3.62.46 0 .91-.06 1.42-.11.79-1.19 1.58-2.21 1.81-4.08.28-.06.51-.12.73-.17.46.45.85.9 1.3 1.36.17-.74.29-1.53.46-2.27-.11-.12-.28-.28-.4-.45.11-.12.17-.23.28-.4.06 0 .11-.06.17-.12 1.41.85 5.37 4.7 5.37 6.68-.34.11-.74.17-1.08.22-.79.51-1.58 1.98-1.64 3.23-.11.05-.28.11-.45.17-.74-.4-1.3-1.25-2.15-1.59-2.21-.91-4.92 0-4.13 2.88 2.66 2.72 7.92 4.24 9.9-.34.23-.51.68-1.08.74-1.76.11 0 .28 0 .45.05.4.45.23 1.76.4 2.44.22 1.87.51 3.73.73 5.55-.28.34-.62.68-.9 1.01zm-10.806-1.36c2.49-.056 6.506 1.304 4.64 3.91-1.585 2.094-7.13 2.038-8.09-.567-.85-2.32 2.092-2.774 3.45-3.34zm8.6-8.154v1.642h-.793v-1.642h.79zm-3.565 2.72c-.113.34-.226.68-.34.962-2.318.113-2.828-.396-3.676-1.87.06-.51.29-.85.57-1.075 1.59 0 2.66 1.133 3.45 1.983zm7.13 7.53h.338c.565.51.735 1.53 0 1.983-1.13-.057-.85-1.53-.34-1.982zm.395 8.835s-.056 0-.113.056c-.06-1.133-.29-1.982 0-2.775.9.9.45 1.7.11 2.72zm14.256 2.548c-1.075 0-2.093.056-3.168.056-2.376.85-4.13 8.155-4.526 11.327h-.057c-.622-2.27-1.3-4.53-1.923-6.8-.51-.68-1.018-1.31-1.47-1.98-.624-.91-1.02-2.04-2.207-2.38 0-2.15 1.018-2.1 1.414-3.4.51-1.64-1.41-3.85-1.98-4.76.57-.46 1.25-.74 1.65-1.31 1.25-1.76.62-4.42-.79-5.38.17-1.31.74-2.04.97-3.23.51-2.5-.73-4.36-1.58-5.72.34-1.25 3.68-4.19 4.81-4.76.23.62-.28 4.07-.51 4.81.4.28.79.51 1.13.79.74-.46 1.42-.97 2.1-1.42.06-.23.06-.51.12-.8.23 0 .51 0 .74-.06.96.96 1.98 1.92 2.94 2.88-.45.96-.85 2.1-1.02 3.29-.96-.06-1.92-.17-2.88-.29-.17.17-.4.28-.57.4 0 .73.06 1.53.06 2.26.51.28 1.08.51 1.58.79l1.36-.85c.23-.11 4.24 2.72 4.98 3.06v.56c-.79.73-1.64 1.41-2.43 2.09-.91-1.93-2.04-3.17-4.98-3.17.28 2.32.62 4.59.91 6.85.68.28 1.13.96 2.04.45l.85-1.36c.23 0 .45-.06.62-.12.79 1.07 1.53 2.09 2.32 3.17-.17 1.64-.28 3.28-.45 4.93zM42.388 28.9c-.056.566-.225.623-.565.85-.396-.114-.566-.114-.735-.454 0-.17-.057-.34-.057-.51.12-.113.23-.226.34-.396.23.057.46.057.74.057.06.17.17.282.29.452zm1.19 9.118c-.17.113-.227.227-.51.17-.962-.566-.566-2.775-.057-3.455h.4c.63.906.57 2.152.17 3.285zm5.374 2.435c-2.093 0-2.093-4.36-.51-4.984.058-.06.17-.06.284-.12 1.98.56 1.923 4.3.226 5.09zm14.37-1.53c-.283.398-.623.794-.962 1.19 0 .057-.056.057-.113.057-.565-.567-1.188-1.133-1.753-1.7-.736.34-1.98.454-2.32 1.134-.113 1.812-.283 3.624-.396 5.437.34.97.736 1.87 1.075 2.78-1.867 3.97-3.734 8.84-3.79 14.56h-.057c-.51-3.05-1.754-6.06-2.602-8.77-.566-1.75-.85-3.62-1.528-5.15-.453-1.13-1.3-2.04-1.81-3.06 1.244-3.22 4.413-8.77 1.527-12.8.962-1.52 1.924-3.11 2.886-4.7.67-2.2-1.59-4.07-3.12-4.3 0-.23 0-.4-.06-.62 1.92-1.24 3.22-4.02 4.3-6.11.17-.45.34-.9.56-1.41.22-.45.68-.73.9-1.3.9 2.44 1.81 4.93 2.72 7.37-.57 1.36-1.08 2.72-1.64 4.08.28.17.62.34.9.51 2.43-.85 3.67-3.06 4.3-5.6h.11c.56 1.25 1.35 2.32 1.69 4.02.73 3.51.22 11.9-.85 14.44zM79.954 49.57c-1.3 1.7-1.64 4.08-2.32 6.514-.283 1.133-.566 2.21-.792 3.285h-.056c-.17-.8-.396-1.53-.566-2.32-.735-2.21-2.433-7.03-4.582-7.59-.792-.23-2.093.11-2.942.45-.735-1.31-.283-3.74-.735-5.44-.56-2.27-1.92-3.74-2.6-5.95 2.04-2.5 3.06-7.88 3.17-12.24h.06l4.25 8.15c-1.07 1.07-3.22 5.43-2.15 7.81.4.91 4.53 2.49 5.66 3 .91-1.02 1.81-2.09 2.66-3.11-1.07-2.04-2.15-4.08-3.28-6.12l3.74-10.7c.23.73.45 1.47.62 2.21.74 1.92 1.98 3.62 3.51 4.81-.34 1.19-.68 2.38-.96 3.62-.68 3.51.23 7.36 1.3 9.74-1.3 1.3-2.65 2.55-3.96 3.85zm29.702 9.458c-.283 1.02-.905 3.058-.622 4.304-.85-.396-1.47-1.756-2.037-2.492-1.584-2.21-2.885-4.587-5.148-6.06.79-1.586 1.64-3.17 2.43-4.757-2.27-3.398-6.23-.906-7.41 1.642-.63.34-2.89-1.982-3.74-2.21-.79.114-1.59.228-2.44.397-.68 1.812-1.42 3.625-2.1 5.437h-.06c-.68-.85-3.9-6.4-3.85-7.48 1.53-2.1 3.22-4.93 2.09-8.61-.34-1.14-1.14-1.76-1.59-2.78 0 0 .73-4.82.85-5.67.39-2.38-.51-5.72-1.08-7.48-.23-.68-.51-1.42-.74-2.15 1.13-1.64 2.32-3.34 3.5-5.04.45-.62.62-1.64 1.36-2.04.79 3.91 1.19 8.1 1.87 12.29l.34 4.25c.45 2.54-.34 7.47.51 9.51.62 1.47 2.55 1.87 4.19 1.13 1.52-.68 3.34-3.63 3.96-5.27.05 0 .05-.06.11-.06.11 2.26.28 4.53.39 6.79.34 1.3 2.94 5.09 3.84 5.89v.11c.51-.45.68-1.19.96-1.81 2.15-4.98 2.32-13.99-.45-18.63-.85-1.47-2.04-2.44-3-3.68-2.83-.06-4.58 1.07-5.38 3 0 .06-.06.06-.06.06-.91-1.08-1.81-2.21-2.72-3.34-.23-.4.85-1.87 1.07-2.38 1.24-2.49 2.43-4.99 3.68-7.42v-.11l.34 2.21c.56 1.75 1.81 4.02 3.56 4.47.62-.17 1.3-.34 1.98-.45 1.19-2.38.4-5.83-1.64-6.74 0-.06-.06-.11-.11-.17 1.92-2.27 3-3.12 4.07-6.4.74.74 1.47 1.53 2.21 2.26.56.51 1.07 1.02 1.58 1.53.17.34-.85 3.56-.34 4.81.28.68 1.3 1.13 1.92 1.47 1.52-.17 2.88-1.59 3.39-2.78.05-.06.11-.12.17-.12 2.15 2.54 4.3 5.09 6.39 7.64v.06c-5.38-1.08-8.26 2.72-9.45 6.74-.46 1.41-.06 3.22-.29 4.87-.79 5.6.45 12.74 1.92 16.76-1.86 2.61-3.45 4.87-4.52 8.44zm-24.723-18.63h.227c.453.736.453 1.926-.057 2.605h-.17c-.396-.68-.453-1.925 0-2.605zm8.26-12.402c1.245.906 3.903 4.078 4.356 5.607.62 1.926-1.14 5.21-2.44 5.55-.51-.057-.96-.17-1.47-.283-.17-3.625-.29-7.25-.46-10.874zM103.885 43.4c-1.584.566-1.3-4.53-1.527-5.776-.283-1.36-.453-3.058-1.075-4.078-.905-1.36-3.395-2.265-2.15-5.04.452-.396.905-.793 1.358-1.246 2.89.623 4.7 6.74 4.13 10.817-.22 1.472.4 4.757-.73 5.323zm14.087-16.254c.17 1.473-1.358 4.87-2.49 5.436-.226-.51-.452-1.076-.68-1.642-.395-1.586 1.755-3 2.32-3.908.284.058.567.114.85.114zm-2.093 20.5c-1.48-2.038-1.08-7.36-1.08-10.646 4.3.85 4.07 8.438 1.07 10.647zm17.87-3.736c-.17.68.28 2.775.22 2.945-.4.283-.79.623-1.25.906-.96.8-1.98 1.87-2.72 2.89-1.13 1.53-2.04 3.29-2.77 5.16l-.68 2.38v.11c-2.6-2.43-5.26-4.87-7.87-7.36-.23-.22-.4-.45-.57-.68.34-.68.68-1.41 1.07-2.09.51-1.36.73-2.89.96-4.53.39-2.55-.4-5.15-1.08-6.85-.29-.68-1.25-1.81-.97-2.77.68-1.47 1.41-3 2.09-4.47 1.36.8 2.66 1.59 4.02 2.44-.34.51-.74 1.08-1.08 1.59-1.3 2.27-1.7 5.21-1.3 8.5 3.16 0 6.11 1.36 7.52 3.17h.22c.79-.85 1.07-3.68.79-5.32-.45-2.49-.73-4.98-1.47-7.25-.51-1.36-1.07-2.71-1.58-4.07 1.58-2.43 3.11-4.87 4.64-7.36.39.46.28 1.59.39 2.21.4 1.36.74 2.78 1.08 4.14.56 1.48 1.13 2.89 1.7 4.36l.85 1.53-1.02 3.23c-.45 1.47.17 3.51-.34 5.15-.17.63-.68 1.31-.91 2.1zm2.54.056v1.302h-.68v-1.302h.68zm17.37 12.064c-.12-3.06-1.42-8.61-3.23-9.742-1.02-.283-2.1-.566-3.11-.85-1.93 1.53-1.53 3.455-1.47 6.626-.34.17-.63.396-.97.566-1.24 2.832-2.55 5.663-3.79 8.495-.06 0-.06 0-.11.057l-4.42-5.437c-.46-.623-.85-1.642-1.81-1.642v-.057c1.64-2.55 2.6-5.323 3.28-8.89.28-1.417-.12-3.116.17-4.7.28-.737.56-1.53.79-2.266.45-1.416.56-2.888.79-4.417.28-1.87.05-4.134-.29-5.777-.12-.566-.23-1.19-.4-1.755.85-2.03 1.7-4.02 2.55-6 1.47 1.02 2.88 2.1 4.35 3.12v.06c-1.42 1.87-3.68 5.67-1.76 8.16l.51.68c.9 0 1.75 0 2.65.06-.68 1.02-1.3 2.1-1.98 3.17-.51 1.7 1.92 4.03 3 4.42.62-.62 2.54-3.91 2.54-5.1-.85-1.07-1.64-2.15-2.49-3.22-.17-.28.34-1.41.51-1.87.63-1.87 1.3-3.79 1.98-5.66h.12c.51.91 1.07 1.87 1.58 2.78 1.35 3.17 2.94 8.67 1.69 13.14-.12.28-.29.28-.51.45-.06 0-.11.06-.17.06-.45-.39-.85-.79-1.3-1.19l-1.53.51c-.12 7.03 1.47 10.2 6.9 11.84.56 2.21 1.18 4.36 1.75 6.51-1.98-.68-3.96-1.41-5.88-2.09zm.34-9.97h-.06c-.34-.905-.74-1.188-.68-2.547.56.566.73 1.303.73 2.548zm39.43 5.438C187.04 64.41 174.25 73.47 160 78.512c-4.81 1.7-10.804 3.398-16.97 3.228v-.056c2.433-.68 4.753-1.926 7.015-2.888 7.86-3.455 14.65-7.815 20.986-12.742 2.15-1.926 4.36-3.85 6.57-5.776l2.66-2.662c.57-2.492-1.47-4.247-3.68-4.134-.85-2.888.23-7.25-.85-9.91-.73-1.87-4.75-4.588-7.3-3.512-.73.963-1.41 1.87-2.15 2.832-.4.567 1.36 2.945 1.13 3.568-.22.453-.51.906-.73 1.36-1.3 2.208-2.77 4.586-2.71 8.04-.4-.622-.85-1.188-1.24-1.755-1.3-1.812-3.56-5.55-5.77-6.286-.11-.91.97-2.55 1.31-3.4 1.02-2.32 3.28-7.19 2.78-10.71-.62-3.8-1.64-6.35-2.94-9.35-.62-1.47-2.04-3.4-1.53-5.5h.06c1.25 1.7 1.87 2.71 3.74 3.85.79.51 1.81.9 2.77 1.19 1.64.45 2.83.39 4.35.05 4.08-.85 6.57-3.23 7.98-6.69.45-1.08.51-2.32.91-3.51.28-1.13.57-2.21.91-3.34.57.57.85 1.47 1.19 2.26 1.53 3.68 2.26 9.4 1.02 14.1-.56 2.26-2.26 4.02-2.2 6.68.11.17.28.28.45.4.91 0 2.49-.85 3.34-.4h.12c-1.53 5.66-.57 8.15 2.26 11.89.74 1.02 1.19 1.87 2.32 2.55-.17 1.59-.34 3.17-.56 4.76.57.34 1.14.73 1.7 1.07 2.21-.8 4.36-1.53 6.56-2.33v.06z"/>
</svg>
