<svg xmlns="http://www.w3.org/2000/svg" viewBox="0 0 160 200">
  <path d="M103.89 73.834c.957-.958.736-.074.736-.074-2.875 4.2-.59 3.907-.59 3.907.664.074.8-.81 1.327-1.474.526-.663 1.474-2.727 2.21-2.948.738-.22 2.434-3.096 3.097-4.128.664-1.032.958-.22 1.77-.59.81-.37 1.326-1.474 1.178 1.327-.147 2.8-1.474 5.307-2.36 6.634-.883 1.327-.44 3.022.738 1.622 1.18-1.4 2.506-3.096 3.17-3.907.662-.81.736-1.77.736-1.77 1.253-1.178 7.076-7.886 8.256-9.36 1.18-1.474 1.032.22.59 1.253-.442 1.032-.59 2.137.37 2.654.957.516 1.4-1.474 1.473-2.727.075-1.253.886-1.548 1.402-3.39.516-1.844 1.695-3.318 1.916-6.635.22-3.317 2.506-6.044 2.58-7.592.074-1.548 1.032-3.317 2.58-5.897s-.442-1.77-.442-1.77c-2.36 1.032-1.99 4.054-5.307 4.717-3.318.663-8.92 5.16-9.878 5.602-.958.44-2.8.884-3.243 1.62-.443.738-.517.886-3.097 1.99-2.58 1.107-3.98 1.917-4.717 2.507-.738.59 2.064-.442 3.243.295 1.178.737 2.136.295 3.02-.074.885-.37 1.328.81.222 1.327-1.106.516-.295 1.327-1.99 1.327s-6.487 4.202-7.15 5.75c-.663 1.547 2.21-.443 2.727-1.254.515-.81 3.242-2.654 4.348-3.612 1.106-.958 2.506-.295-.295 1.4-2.8 1.695-2.8 3.538-3.906 4.128-1.106.59-4.35 2.36-4.865 3.39-.516 1.033 2.36.517 2.36.517 1.262-1.547.662.148.22 1.844-.442 1.695-.737 1.18-1.484.516-.748-.663-.653 1.18-1.61 1.99-.96.81-.297 1.842.66.884z"/>
  <path d="M66.12 47.394c.885-1.474 4.275-7.518 5.455-8.698 1.18-1.18 3.17-6.34 3.538-5.16.37 1.18-.663 3.686 0 5.012.663 1.327-.442.958-.22 3.612.22 2.653.957 6.118 0 6.413-.96.295-1.254 3.833-.517 5.38.737 1.55 1.548.885 1.77.443.22-.442 1.252.074.957 1.253 0 0-1.032 2.136-1.032 3.242 0 1.105 1.107 6.19 1.844 5.012.737-1.18 1.032-2.653 1.18-1.18.146 1.475.81 2.802 1.99 2.138 1.178-.663.147-3.612 1.62-3.17 1.475.443 2.433 1.328 2.433 2.212 0 .885 1.106 1.474 1.548.442.442-1.032-.506-8.048-1.243-8.71-.737-.664-4.36 2.37-3.77.16.59-2.21.516-4.496.147-5.528-.37-1.032.884-1.032 1.03.147.148 1.18.812 3.98 1.99 3.096 1.18-.884.886-1.4 1.033-3.537.148-2.138-.737-15.995.442-13.857 1.18 2.137 3.022 7.666 4.054 8.255 1.03.59 1.03 1.254.957 2.14-.074.883.516 1.916 1.032 1.99.515.073.662 3.906 2.358 3.758 1.695-.148.516-2.654.37-3.98-.15-1.327-2.802-8.77-.443-8.476 2.36.295 1.105-2.432.295-4.128-.81-1.695-6.413-11.867-6.93-14.816-.515-2.948-2.652-3.686-2.726-5.602-.074-1.916-1.843-4.35-1.99-5.455-.148-1.105-1.99-1.99-1.916-1.03.074.957 1.695 3.61 1.106 4.495-.59.885-1.99-1.253-2.064-2.285-.074-1.032-.737-4.496 0-5.455.737-.958-1.4-.442-1.474.516-.074.96.295 4.202-.885 5.53-1.178 1.326-1.547 3.906-3.17 7.296-1.62 3.39-2.137 5.012-2.21 6.486-.074 1.474-2.064 1.4-3.464 4.054-1.4 2.654-3.17 2.58-2.285 4.94.886 2.358.886 2.505.443 4.495-.442 1.99-2.064 7.814-2.653 8.92-.59 1.108.515 1.108 1.4-.366z"/>
  <path d="M66.437 39.728c.737-2.948.663-4.644-.516-3.907 0 0-.59.96-.736 2.507-.147 1.548.37 3.096-.074 3.907 0 0 .59.443 1.327-2.506z"/>
  <path d="M95.088 43.783c.37 1.474.516 3.685 1.548 2.875s0-2.36.663-3.243c.662-.885-.59-2.432-1.107-2.064 0 0-1.474.958-1.105 2.433z"/>
  <path d="M20.686 51.563c.22.516 2.285 1.916 2.36 2.506.073.59 1.03 1.99 1.62 2.284.59.295 1.844 3.243 2.14 3.685.294.44 4.053 5.97 5.38 7.002 0 0 1.99 4.496 3.17 3.98 1.18-.516 1.18-4.57.884-5.234-.295-.663.663.37 1.99 1.4 1.327 1.033 3.39 3.097 4.35 3.318.957.22 1.252-.442.736-1.106-.516-.663-1.106-.81-1.032-1.843.074-1.032-1.032-1.106-1.106-1.474-.074-.368-.147-.368 1.032-.147 1.18.22 2.58 1.695 2.58 1.695s.81.37 1.327.59c.516.222 1.032.222 1.18.517.146.295.368.59-.075.59-.442 0-.59-.147-.737.148-.147.295-.02 1.537.368 1.99.388.453 3.732 1.983 4.306 1.666s-.4-1.517-.4-1.738c0-.22-.22-.81.884 0 1.106.81 2.99 1.807 3.273 1.392.284-.415.754-3.17.312-4.348-.443-1.18.69-1.908 1.5-.95s1.132 1.327 1.132 1.622c0 .295-.195.516 0 .81.195.296.27.885.27 1.18 0 .295.22 1.327.515 1.4.295.074.516.222.958-.073.442-.295.81-.737.81-.737s.885-1.4 2.507-.958c1.622.442 2.21 1.548 3.096.516.885-1.032-1.253-1.916-3.243-3.17-1.99-1.252-10.467-4.864-11.72-5.896-1.253-1.032-5.602-3.686-4.128-3.907 1.474-.22 2.36.22 3.17-.442s.736-.884 1.4-.957c.662-.074-1.77-1.032-3.392-1.327-1.622-.295-3.464-.295-4.422-.516-.958-.22-3.022-.737-3.022-.737s-1.03-.295-1.768-.59c-.737-.295-1.106-.737-1.77-.663-.662.074-.515.37-1.473.37-.96 0-1.254-.075-1.77-.222-.516-.147-.442-.37-1.4-.59-.958-.22-3.39-.59-5.233-1.253-1.843-.663-2.064-.516-3.022-.663-.958-.147-2.58-.516-2.58-.516s-.59-1.18-1.18-.884c0 0-1.252-.147-1.326.368-.076.512 1.324 1.397 1.546 1.913z"/>
  <path d="M39.42 70.926c2.505-.147 1.326-.663 1.105-1.18-.22-.515-1.327-1.03-1.622-1.4-.295-.368-1.77-1.62-1.106-.295 0 0-.884 3.024 1.622 2.876z"/>
  <path d="M38.07 119.818s-.59-1.695-2.21-2.36c-1.623-.662.736-1.84 1.326-1.03.59.81.958 1.695 1.695 2.137.738.442 1.55.81 1.696.442.147-.368-.442-1.4.737-1.18 1.18.222 5.38 1.623 6.044 1.475.663-.148-.516-1.327-.885-1.696-.368-.37-1.032-.885-1.622-1.106-.59-.22-.81.442-1.4-.295-.59-.737-2.802-4.128-4.57-5.086-1.77-.96-3.392-1.033-4.203-1.77-.81-.737-1.106-.884-.958-1.105.146-.22.884-.37 1.842-.37.958 0 1.622-.073 2.064-.073h2.95c.736 0 2.947-.074 3.242-.074.295 0 .885.22 3.17.37 2.285.146 6.78 0 7.74.294.957.295.81-1.106.294-1.18-.516-.074-1.622-.295-2.36-.515-.736-.22-1.62-.37-1.99-.442-.368-.074-.884-.074-.515-.442.37-.37 1.18-.37 1.916-.37.737 0 .958 0 1.843.296.885.294 1.548.294 2.285.44.738.148.79.296 1.5.296.712 0 1.45-.295 1.744-.37.295-.073.737.075.737-.367 0-.443-.44-.517-.294-1.254.147-.737.147-1.18.37-1.474.22-.295.22-.59.44-.663.222-.075.665-.924.945 0 .176.58.78.328 1.002.697.22.368 1.52.48 1.888.555s.737-.074.958-.22c.22-.148 3.464-.517 3.096-1.77 0 0-1.327-.22-1.327-1.917 0-1.695.442-2.654-1.474-2.727-1.916-.074-3.907-.074-4.128 0-.22.074-2.21 0-2.432.074-.22.074-1.77.22-1.77.22s-3.02.075-4.053.075c-1.032 0-4.865.442-6.265.37-1.4-.075-3.17 0-4.2-.075-1.033-.074-2.507-.074-3.613-.148-1.106-.074-1.843-.147-2.727-.074-.885.074-1.548.516-1.843.147-.295-.37.295-.663.295-.663s.737-.148 1.106-.443c.37-.294.295-.22.59-.59.295-.368.516-.515.737-.59.22-.073 2.8-1.105 3.39-1.547.59-.442 1.844-1.18 1.844-1.18s1.916-.368 2.506-.883c.59-.516.516-.663 1.106-.81.59-.148 1.916-.296 1.99-.59.074-.296 0-1.033-.442-1.328-.442-.295-1.18-.81-1.4-.516-.222.295-5.087 2.36-6.708 2.654-1.622.294-1.843.074-1.843-.295 0-.37.074-.885-.81-.442-.886.442-1.77.442-2.434.663-.664.22-1.033.295-1.328.295-.295 0-.147-.515-.147-.515s.81-.295 1.106-.442c.296-.148 1.254-.443 1.623-.443.37 0 3.612-.958 3.98-1.695.37-.737 1.253-.958 1.4-.737.147.22 5.38-1.917 5.38-2.654 0-.737-.736-.737-1.62-.516-.886.22-10.836 4.128-13.932 5.75-3.095 1.62-8.623 2.8-11.498 5.012 0 0-9.066 3.022-11.425 4.054-2.36 1.032-4.865 1.474-4.644 2.138.22.663.737.884 1.474.663.737-.22 1.548-.074 2.21.074.664.146 4.276 1.105 4.645 1.18.368.073 3.022.883 2.727 1.104-.296.222-.738.442-1.328.295-.59-.148 0 .44.295.81.295.368 1.253 1.03 1.99 1.252.737.22 2.285.37 2.727.885.442.516.442.737 2.21 2.137 1.77 1.4 3.465 1.99 5.234 2.36 1.77.368 3.022 1.694 3.685 2.58.666.884 6.268 5.75 8.627 5.234zm-6.265-16.143c.663-.442 11.428-.192 11.794-.147 3.02.368-1.99.885-3.318 1.327-1.327.442-.22.295-.59.885-.37.59-.442.22-1.032 0-.59-.22-1.105-.59-1.474-.59-.37 0-.516.147-.81.295-.296.147-.517.074-.812.074-.295 0-1.327-.15-2.064-.443-.737-.296-2.36-.96-1.695-1.402z"/>
  <path d="M12.095 105.15c.074-.222-.074-.738-.147-1.033-.074-.295-.737-.295-1.327-.37-.59-.073-4.127-.884-4.127-.884-.22.663.81 1.326 1.18 1.843.368.516.294.22.59.37.294.146.884.072 1.4.072.515 0 1.252.442 1.99.59.736.148.368-.368.442-.59z"/>
  <path d="M150.923 98.958c-2.138-.295-7.887-3.76-9.36-4.423-1.475-.663-6.56-2.21-7.888-3.685-1.327-1.474-3.317-3.243-4.865-3.685-1.548-.442-2.36-1.474-3.022-.074-.663 1.402-2.244.393-2.982-.712-.737-1.106-3.136-2.31-3.947-1.203-.812 1.106 1.968 3.652.347 3.283-1.622-.368-4.623-2.103-5.36-1.587-.737.517-1.4.886 1.4 2.14 2.8 1.252 10.394 5.527 9.877 6.265-.516.737.074.737-1.327.737-1.4 0-3.76.368-6.56.22-2.8-.146-4.423-.294-6.19-.073-1.77.22-5.013-.296-6.414.662 0 0-1.4-1.032-1.62-.074-.222.958-2.58-.22-4.792.368 0 0-1.326-.442-.515 1.106.81 1.548.074 2.506 1.548 2.654 1.474.147 2.8-.148 3.022-.22.22-.075 1.327 0 1.327 0s1.253.146 1.253.368c0 .22.295.37.295.37l.884-.222.295-.074s.294-.147.59-.147c.294 0 1.178.075 1.326.738.147.663 1.99.884 2.8.81.812-.073-.884.37.296 1.696 1.18 1.327 2.21 1.253 3.022 1.106.81-.147 1.77-1.032 3.17-.442 1.4.59 1.326 1.106 2.874.442 1.548-.663 3.907-.958 3.39-.147-.515.81-1.99 1.4-1.105 2.433.885 1.032 1.18.147 1.77-.516.59-.664 2.21-1.843 4.127-2.21 1.917-.37 2.21-.517 2.432-.886.22-.368.885-.884 1.4-.884.516 0 .885-.074 1.032.22.147.296.737 1.033-1.4 1.918 0 0-.443-.22-.296.442.148.663.737 1.106 1.18.958.44-.147 1.105-.37.44.442-.662.81-1.916 1.253-3.17 1.622-1.252.37-2.21-.22-.736-.958 1.475-.737 2.212-1.548.664-2.21-1.548-.664-6.34 3.242-5.75 4.2.59.96 1.696.148.517 2.212-1.18 2.064-1.99 2.432-1.77 3.464.222 1.032.59 1.106 2.212.295 1.622-.81 3.686-1.548 4.054-2.138.368-.59-.59-.295.884-1.032 1.474-.737 1.843-.81 2.36-.885.515-.074 1.105-.295 1.473-.37.37-.073.37-.073.884-.294.517-.22 7.3-3.317 8.552-3.39 1.253-.075 1.4-.812 2.21-1.328.812-.516 4.202-3.243 5.455-2.58 1.253.663.22-1.622 3.612-1.916 3.39-.297-1.77-2.51-3.907-2.804z"/>
  <path d="M61.646 137.655c1.18-1.327 3.906-3.095 4.865-4.2.96-1.107 1.623-.812 1.99-1.476.37-.664 1.844-2.286 2.212-2.507.368-.22.295-1.695-.81-1.106-1.107.59-1.622 1.032-2.286 1.327-.663.294-2.875 1.77-3.17 2.36-.295.59-1.695 2.063-2.138 2.137-.442.075-1.253-.146-.663-.957.59-.81 1.622-1.77 1.622-1.77s.737-.957 1.032-1.4c.294-.44 1.105-.736 1.326-1.03.22-.296 3.464-3.76.074-3.39 0 0-2.36 1.03-2.58 1.62-.22.59-1.18 1.18-1.843 1.032-.663-.147-9.51 10.025-10.172 11.278-.663 1.253-1.18 0-1.106-1.253.073-1.253-1.254-3.907-.075-5.012 1.18-1.106-.22-1.843-.885-1.77-.663.075-1.843 1.107-2.064 3.024-.22 1.916-1.106 6.118-1.695 7.002-.59.885-2.21 4.35-2.43 6.266-.222 1.917-1.18 3.76-1.917 3.317 0 0-6.044 7.37-5.97 8.33.073.957 1.326.146 2.21-.443.885-.59 1.548-1.253 3.39-1.916 1.843-.664 5.455-1.253 5.455-1.77 0-.516-1.327-.22-.958-1.105.37-.885.663-1.622 1.253-1.327.59.295 1.253.37 1.4.074.148-.295 1.328-.074.886.516-.443.59-1.033 1.695.294 1.326 1.327-.368 3.096-.737 4.128-1.916 1.032-1.18 4.717-.737 5.675-1.18.958-.44-1.18-2.284-2.948-2.358-1.77-.074-2.065-.22-1.623-1.622.442-1.4 2.21-3.98 4.643-3.39 0 0 2.21-1.032 1.4-1.917-.81-.886-1.326-.886-1.62-.517-.296.368-2.212 1.18-2.138.295.074-.885.295-1.4 1.18-1.917.883-.515 2.726-1.473 2.947-2.063.22-.592-.074.735 1.106-.592z"/>
  <path d="M68.258 136.255c.22-.22 1.253-.942 1.548-1.253.295-.31 2.064-2.137-.295-2.36 0 0-6.633 5.53-8.033 6.192 0 0-1.18.663.295.663 1.474 0 .147 1.548 2.064-.074 1.916-1.622 2.654-1.99 3.17-2.432.514-.44 1.03-.514 1.252-.735z"/>
  <path d="M136.015 151.06c-.074-.515-3.538-6.927-3.39-9.065.146-2.138-4.13-8.256-4.792-9.435 0 0-1.548-.073-.295 2.21 1.253 2.286 1.912 5.222 2.723 5.96.453.41.394 1.446.595 2.453.16.798.623 1.647.633 1.662.378.55-2.328-2.21-2.328-3.736 0-1.622-1.032-1.18-1.032-2.433s-.737-2.285-1.032-2.064c-.295.22-1.03 1.105-1.18.147-.146-.958-2.357-5.822-3.168-8.992 0 0-1.917-.663-1.917.663s-.146 7.593-1.105 6.045c-.958-1.548-2.506-5.012-4.717-5.454-2.21-.442-.81-2.357-4.35-4.864 0 0-1.178 0-.662.885.516.885 4.054 5.234 4.423 7.3.367 2.063-.296.957-.96.81-.662-.148-2.284-.664-2.948.81-.663 1.474.147 2.36 1.032 3.17s2.965 2.768 3.737 3.837c.773 1.07 2.77 2.133 2.917 2.428.147.295 1.327.663.22.884-1.104.22-3.408-.517-3.482.147-.155 1.385 2.04 2.58 4.054 2.58 1.473 0 1.75.564 2.71.933.958.368 2.56 1.504 2.56 1.504s1.94.576 2.823.87c.884.296 4.52 1.728 5.33 2.244.81.516 3.38 1.647 3.747 1.794.368.147 1.61.5 1.61.5s-.353-1.8-.648-2.243c-.296-.444-1.033-1.033-1.107-1.55z"/>
  <path d="M118.772 129.95s.37-.148.37-.443c0-.295.073-.22-.075-.737l-.148-.516s-1.033-.516-1.254-1.253c-.22-.736-1.548-2.43-2.138-2.357 0 0-1.106.22-.59.958.516.738 2.875 2.95 2.875 3.244 0 .295-.147.958-.147.958l1.106.147z"/>
  <path d="M112.717 140.7s-.885-.516-.59.516c.295 1.032 1.18 1.916 1.843 1.99.664.074 2.95-.664-1.253-2.506z"/>
  <path d="M102.447 161.38c-1.326.957-1.032 1.842-1.99 2.505-.958.663-1.106 1.4-1.4 1.77-.295.367-.516.367-1.18.884-.662.515-1.842 2.283-2.21 2.43-.37.15-.516.443-.958-.44-.443-.886-.15-.59-.443-.886-.295-.295-.147-1.032-.81-.516-.664.516-1.106.664-1.4.885-.296.22-.738.442-1.033.59-.295.147-1.842.22-1.842.22s-.516-.737-.516-1.032c0-.294-.368-.22-.295-.884.075-.663.517-1.032.517-1.548s0-2.36-.958-2.138c-.96.22-2.138-.368-2.286-1.253-.147-.885-.147-.885 0-1.18.148-.294.22-.59.22-.59s1.475.075 1.99-1.473c.517-1.548.37-3.465.59-4.055.222-.59.37-1.696.37-1.917 0-.22-.663-1.917-.22-2.875.44-.96.59-1.253.515-1.622-.075-.368-.148-1.622-.148-1.917 0-.296-.074-.59-.074-.59V143.833l.368-.663s.147-.442.22-.737c.075-.295.075-.81.075-.81s-.146-.15-.367-.15h-.22s-.37-.146-.59.222c-.222.37-.296.22-.443.81-.148.59-.074.812-.22 1.254-.148.44-.075.515-.148.736-.074.22-.442.737-.442.737s-.737.22-.885-.22c-.147-.443-.295-1.254-.295-1.254s0-.517.074-.738c.074-.22.074-1.032.074-1.032s-.147-.517-.368-.517c-.22 0-.37.074-.516.295-.147.22-.295.147-.22.663.073.517.073.664.073 1.623 0 .958.295 1.474.295 1.77v.957c0 .885-.37 1.843-.147 2.432.22.59-.22 1.474-.22 2.285 0 .81.294 2.138-.075 2.138-.37 0-1.4.22-1.18-.96.222-1.178.296-1.915.296-1.915s-.074-1.4-.148-1.99c-.074-.59.22-1.695-.22-1.99-.443-.295-.517-.663-.886-1.106-.37-.442-1.106.37-1.253-1.77-.15-2.137-.15-8.034-1.623-6.707 0 0-.958 1.106-.81 2.064.146.96.294 4.718.294 5.602 0 .885-.146 1.327-.294 1.77-.147.44-.516 2.505-.442 2.726.074.22.516 1.917.147 2.506-.368.59-.736.147-.515.958.22.81-.074 4.128 1.548 3.317 1.622-.812 2.137 2.58 1.4 3.095-.737.516-1.4.074-1.843 1.62-.442 1.55-.37.96-.37 2.434 0 1.473.148.294 0 2.21-.146 1.917-.294 1.695-.22 2.432.074.737.147.885-.147.885-.295 0-.442-.368-.664-.81-.222-.443-.075-.443-.37-.737-.295-.295-1.4-1.032-1.622-1.253-.22-.22-.737-1.99-1.474-1.916-.737.075-1.695.15-1.474.886.22.737.81 1.18.442 1.253-.37.073-.958.073-1.106-.148-.147-.22-.516-1.4-1.106-1.622-.59-.22-1.18-.37-1.474-.81-.295-.443-1.105-1.328-1.253-1.55-.147-.22-.074-.293-.516-.957-.442-.663-2.8-3.833-3.39-3.317-.59.516.81 2.727.957 3.022.147.295 1.548 1.253 1.695 1.99.146.738.81 1.4.81 1.4s1.622.886 1.77 1.4c.146.517 1.326 2.434 1.62 3.023.296.59.443 1.55.885 2.212.442.664 1.18 1.327 1.695 1.99.516.663 1.843 1.4 3.022 3.538 1.18 2.138 1.99 4.054 2.36 5.16.368 1.105-.738.885.147 2.506.884 1.622.663.664 1.547 2.21.884 1.55.37.443 1.4 2.212 1.033 1.77 1.4 1.99 1.696 2.875.295.884.516 1.253.81 1.4.296.147 1.18-1.253 1.18-1.253s.885-3.17 1.474-3.686c.59-.516 1.253-1.253 1.917-2.58.663-1.327 1.843-3.612 2.948-4.055 1.106-.443 1.4-3.096 2.36-4.276.957-1.18.884-1.695 2.284-4.128 1.4-2.432 2.8-3.76 3.833-5.233 1.03-1.474 1.4-1.548 1.916-2.948s.516-1.917 1.032-2.285c.516-.368 1.622-1.253.737-2.8-.887-1.542-.96.89-2.288 1.85z"/>
  <path d="M90.19 165.676c.663.22.885.368.885-.295v-1.105c0-.663-.516-1.253-.442-2.727.074-1.474-.81-1.77-.147-2.36.663-.59 0-1.473-.664-1.105 0 0-1.032.81-.885 1.695.147.884-.884 1.253-1.18.81-.294-.44-.736 1.475.517 1.844 1.253.37 1.327.22 1.327 1.253s-.073 1.77.59 1.99z"/>
  <path d="M57.935 76.41c.698.138 1.18-.37 1.08-.89-.017-.09-.4-.66-.86-1.49-.303-.544-.873-2.01-1.016-2.758-.166-.867.04-1.974-.263-2.19-.303-.217-.8 1.028-.87 2.42-.03.556.198 1.92.553 2.91.418 1.16.998 1.923 1.375 1.998z"/>
  <path d="M57.768 77.063c-.127-.443-.746-1.988-4.294-1.62-3.548.37-5.4 2.202-5.174 2.366.226.163 1.543-.58 3.393-.688 1.247-.074 2.188-.022 3.048.376 1.07.495 1.928.68 2.135.68.4 0 1.02-.673.893-1.115z"/>
  <path d="M61.89 80.547s-.296-.887.074-1.774-.37-1.478-1.11-1.996c-.738-.518-1.33-.518-1.847.444-.517.962-.96 1.775.148 1.923 1.11.148 2.513 2.218 2.735 1.404z"/>
  <path d="M62.108 81.96s-.665.886-1.257.886c-.59 0-1.034.59-.664 1.48.37.886 1.848.738 2.365.738.518 0-.22-.59-.147-1.33.075-.74.148-1.627-.295-1.775z"/>
  <path d="M62.808 73.31s-1.71.09-2.263.898c-.514.75.45.963 1.043 1.628.59.665 1.494 1.456 1.346 3.008-.148 1.552-.2 3.78.318 4.74.517.962-1.035 1.332.37 2.44 1.405 1.11 1.626 2.44 1.035 3.253-.59.813-1.848 1.035-1.626 2.44.223 1.403 2.588 2.364 3.623 2.438 1.035.074.37 3.77 2.365 3.03 1.996-.738 6.505-5.69 8.057-6.208 1.552-.517 3.105-3.474.59-4.805-2.512-1.33-3.547-4.583-1.7-4.657 1.85-.074 1.405-2.735.518-2.365-.887.37-.96 1.183-3.696.443-2.735-.74-7.484-3.098-7.927-4.206-.443-1.108-1.386-2.076-2.052-2.076z"/>
  <path d="M67.307 73.248s-1.418.063-1.418.94c0 .817.674 1.24 1.635 1.61.96.37 6.36 3.733 7.617 2.92 1.257-.813 1.33-2.217 2.957-2.217 1.625 0 1.995-1.182 2.882-1.034.887.148 2.217.517 1.996 1.11-.222.59-.148 2.734 1.257 2.882 1.404.148 2.81-.148 1.478-1.404-1.33-1.257.813-1.7-1.626-3.77 0 0-2.07-4.296-1.404-5.987.665-1.69-.887-.205-.96-1.69-.075-1.488-1.11-.88-1.405 0-.296.878-.74 1.247-.296 2.282.443 1.034.148 2.734-1.996 3.25-2.145.516-8.87 1.255-10.72 1.108z"/>
  <path d="M87.243 77.45s-1.035.296-1.035-.74c0-1.034-.444-2.438-1.11-3.177-.665-.74-1.92-5.478-1.33-6.283.592-.805-2.29-.96-.96-2.29 1.33-1.332 1.552.96 3.622.294 2.07-.665 8.28-.59 11.088 5.1 0 0-.59.296-1.626-.665-1.035-.962-3.18-2.514-5.1-1.85-1.922.666-2.735 2.884-1.996 4.067.74 1.183 2.587 1.996 1.996 2.883-.59.887-1.626 1.478-1.552 2.292.073.812-1.036-.15-1.997.368z"/>
  <path d="M70.042 61.262s2.735 1.035 4.14 3.474c1.403 2.44 2.734 4.287 2.586 5.618-.148 1.33 1.478.37 1.922-.222.444-.59 1.183-1.535-.813-3.687s-5.322-6.81-7.835-5.183z"/>
  <path d="M93.896 75.676s-1.33-.517-2.07 0c-.74.518-1.626.59-1.478 1.774.148 1.183-2.44.813-2.44 2.07s2.44 1.33 3.77 1.33 6.95 8.353 5.692 14.857c0 0 1.922 1.7.74-10.053 0 0-1.405-3.03-.962-3.622.444-.59-1.405-3.18-2.07-3.474-.665-.296 1.404.296 2.957-1.33 1.552-1.626 3.474-1.478 3.77-5.1 0 0-2.07 4.14-7.91 3.548z"/>
  <path d="M78.15 78.78s.15-1.55 1.627-.96c1.48.59 1.256 1.183 1.11 2.07-.15.887.96 1.478 2.216 1.922 1.257.444 8.13 1.404 8.87.813.74-.59 1.257.813 1.478 1.922.223 1.11.666 1.478-.812 1.33-1.478-.147-3.326-.22-4.065-.812-.74-.59-1.035 1.035 0 1.405 1.035.37-.443 1.922-1.552 1.774 0 0-.443 2.07-1.55.887-1.11-1.182.22-2.513-1.627-3.843-1.848-1.33-3.696-2.217-5.84-.59 0 0-2.66-1.11-.96-2.145 1.7-1.037-.37-.89 1.108-3.77z"/>
  <path d="M98.848 81.59s-.517.148-.517.813c0 .665-.295 3.326 1.627 1.922 1.922-1.405 11.31-4.878 12.492-14.192 0 0-.592-.517-.814.665-.222 1.182-3.696 8.352-12.788 10.792z"/>
  <path d="M81.12 88.316s-1.405 1.7-1.923 2.144c-.518.443-4.88 4.51-5.766 4.88-.886.368-5.32 3.103-4.434 4.656.887 1.552 1.774.22 2.513.148.738-.074 3.843.518 3.99 1.996.15 1.478 3.493 4.584 6.243 2.973 3.3-1.932 1.814-2.677 2.85-3.49 1.034-.813 1.404-1.996 2.07-2.144.664-.15 1.182-3.77 2.808-4.214 1.627-.443 3.92-.96 3.032-2.513-.887-1.552-2.587-1.922-2.513-3.178.073-1.257-.297-1.848-1.11-.887-.813.96-.592 1.774-2.957 1.774-2.365 0-3.77.74-3.548-.518.222-1.258-.59-2.737-1.256-1.628z"/>
  <path d="M92.048 95.856s-1.404-.074-1.848.59c-.444.666-1.922 2.81-2.29 3.327-.37.517-5.175 6.06-5.84 6.505-.665.443-.813 1.478.518 1.478 1.33 0 .813 1.922 2.808 1.848 1.996-.074 3.992.887 3.844 1.996-.148 1.11-.813 2.587 1.33 2.735 2.143.148 3.917-.222 5.026-.222 1.11 0 4.36.295 4.36.295l2.884.96s3.77.666 2.81-1.108c-.962-1.774-2.514-1.183-3.697-3.4-1.183-2.217-.74-2.883.22-3.622.962-.74.592-3.03 1.183-2.29.592.738.74 1.92.148 2.438-.592.517-1.48 2.513.22 3.252 1.7.74 2.292-1.183 2.292-1.626 0-.443 1.404-.37 3.4.222s6.21 2.07 6.21 3.253c0 1.182.738 1.404.96.886.222-.517-.222-2.29-3.474-5.1-3.253-2.81-3.992-1.996-4.066-3.104-.074-1.11-.074-1.775-.517-1.775-.445 0-.888-.148-.888.444 0 .59.074 1.034-.296 1.182-.37.148-1.035.74-1.404.148-.37-.59-.517-.444-.443-.887.073-.443.442-1.035.294-1.404-.148-.37-1.035-1.627-2.217-1.036-1.183.59-1.922.74-1.626 1.922.296 1.183-1.625.813-2.956-.22-1.33-1.036-3.4-1.553-1.035-2.07 0 0 .664-.445.664-1.332s-.517-1.182-1.33-1.182c-.813 0-1.183.148-1.7-.074-.517-.222-.813-.222-.813-.518 0-.296-.442-.443-.442-.443s-.59-1.553-.148-2.292c.444-.74-1.33-1.405-1.33-.37 0 1.034-.812.59-.812.59z"/>
  <path d="M71.7 114.472s-.59 1.183-.37 1.774c.222.59-1.33.665-2.143 0-.813-.665-4.788-4.198-6.847-10.842-.338-1.09-.713-3.19-.27-2.007.444 1.183 2.977 7.674 9.63 11.075z"/>
  <path d="M75.163 103.986s-2.66 5.544-2.735 9.166c-.074 3.622.074 5.174-.37 5.913-.443.74-.296 1.48.813 1.626 1.11.15 1.405.52 1.553-.442.148-.96.444-1.48.444-1.48s.517-.738.74-.885c.22-.148.664.074.22-.518-.442-.59-1.108-.443-.96-1.035.148-.59-.074-8.353.517-10.866.592-2.512-.147-2.07-.22-1.478z"/>
  <path d="M75.855 114.187s4.004-3.18 4.295-3.696c.29-.517 1.383-1.034.946-2.143 0 0 1.104-.263 1.905.994.802 1.258 1.115-.456 1.466 1.165.198.914-1.848-.16-1.39 1.1.36.983 2.39.365 2.39.365s.072-1.33 1.164-.96c1.092.37 1.383.442 1.237 1.182-.145.74 1.383 1.848.51 2.957-.874 1.108-.582-1.7-3.64-1.48-3.058.222-7.062 1.33-7.644 2.81 0 0-1.02.59-.8-.445.217-1.035-1.166-1.33-.438-1.848z"/>
  <path d="M69.176 118.537s-1.035 1.995-1.478 1.478c-.443-.517-.813-1.11-1.257-.813-.443.296-1.847.148-2.882-1.256-1.035-1.404-2.81-3.104-3.252-5.766 0 0-1.257.59-.443 3.474.813 2.883.37 3.696-.59 4.435-.693.53-3.108 1.922-5.07 5.39-.764 1.35-2.544 5.21-2.048 5.333.37.092.567-.2 1.24-1.207 1.148-1.72 4.472-4.195 6.69-5.082 2.216-.887 5.838-1.774 6.578-.59.74 1.182 1.552 1.7 2.587 1.182 1.035-.518.74-1.7.37-2.07-.37-.37-.148-1.108.887-1.404 1.035-.296-.444-1.7.517-2.44.96-.738-1.996-2.29-1.848-.665z"/>
  <path d="M77.212 117.81s-1.404.738-1.626 1.92c-.222 1.184-.296 2.44-1.626 2.366-1.33-.074-3.105-.443-3.252.887-.148 1.33-.517 2.29.59 3.918 1.11 1.627 3.03.518 3.475 1.405.443.887 1.256.74.74 1.774-.518 1.034.886 3.99.59 5.395-.296 1.404-.296 4.51-.148 4.953.148.443 1.035-.444 1.035-1.257 0-.812.74-3.326.813-4.878.074-1.553.074-1.774.074-1.996 0-.222 0-.37.444-.37.445 0 1.405.37 1.923.074.517-.296 1.7.148 2.587-.222.887-.37 1.257-1.183 2.365-1.035 1.11.148 1.996-2.808.222-2.956-1.774-.148-2.735-2.07-1.48-4.88 1.258-2.808-.147-6.282-.886-5.468-.738.812-1.994 1.773-3.25 1.55-1.258-.22-2.145-1.55-2.588-1.18z"/>
  <path d="M85.765 116.552s-1.995-.148-1.256 1.405c.738 1.552 1.33 3.99 0 5.987-1.332 1.996 2.364 4.36 2.512 2.07.147-2.29.517-2.366 1.404-1.922.887.444 1.7 1.996.887 2.66-.813.666-1.774.37-1.848 1.627-.074 1.256.59 1.108 1.183.96.59-.148 2.66.148 2.66 1.183 0 1.035-.22 2.735 1.33 2.883 1.553.148 2.958-.37 2.958-1.405 0-1.034-1.996-2.956.222-3.843 2.217-.887 4.435-1.183 5.174-1.552.74-.37.678-.773-.667-2.448-.596-.743.075-1.026-.294-2.578-.37-1.554.075-1.775 1.332-1.7 1.257.073 1.626.147 1.404-.52-.222-.664-.517-1.477-.443-1.995.074-.517.036-.877-.546-1.25-.976-.623-4.735-1.602-7.692-1.232-2.956.37-3.074.732-3.76.442-.723-.306-1.085-.62-1.307-.324-.22.296-.37.592-.37.814 0 .22.592.96.444 1.256-.148.296-.887-.074-1.626 1.035-.74 1.108-.962-2.144-1.7-1.553z"/>
  <path d="M106.208 116.468s-3.4-.517-3.03 1.183c.368 1.7.886 2.07 2.29 3.18 1.404 1.108 2.44 2.882 2.44 4.064 0 1.183.59 1.626.886.887.296-.738-.222-4.95-.887-5.69-.664-.74-.295-2.81-1.7-3.622z"/>
  <path d="M88.943 130.227s-2.44.592-2.44 1.035c0 .443.223.887-1.255 1.035-1.478.148-3.918.74-4.065 1.11-.148.368 1.183.886 1.774.96.59.074 1.552.148 1.996.148.443 0 2.513-.148 2.735-.37.222-.222.813-.517.96-.296.15.22.444.483.075 1.017-.37.534-.592.46-.96 1.273-.37.814-1.184 1.774-1.258 2.07-.074.296-.295.443-.443.887-.148.444.148 1.183.665 1.035.517-.148.887-.666.96-.96.075-.297-.147-.075.592-.814.738-.74.886-1.11 1.182-1.33.296-.223.74-.797 1.405-1.48.665-.682.296-1.996-.148-2.07-.444-.073-1.036 0-1.036-.37s.37-.886.37-.886.296-.74.222-1.108c-.076-.37-.89-.887-1.333-.887z"/>
  <path d="M99.735 128.01s-2.957.886-2.66 2.29c.295 1.405 1.92 3.918 2.216 6.653.297 2.735 1.19 2.707.746 4.26-.443 1.55-.975 2.642.025 2.642 1.514 0 2.987-2.465 2.766-4.24-.222-1.773.235-2.07.088-3.18-.148-1.11-.148-2.07-.443-2.218-.295-.148-.516-.665-.295-.813.222-.148.74-.148 1.035-.074.296.074.37.296 1.257.148.887-.148 1.7-.296 1.7-.296s.665.37 1.108.296c.444-.074.59-.37.96-.518.37-.148 1.184 0 1.184 0s3.77-2.217 3.547-3.104c-.222-.887-.74.222-1.478.665-.74.445-5.693 1.923-7.984.297-2.292-1.625-2.958-3.103-3.77-2.808z"/>
  <path d="M83.806 88.422c-.21.08-.487-.36-.646-.65-.207-.377-.502-.65-.858-.726-.254-.053-.837-.064-1.513.123-.158.042-.53.243-.828.046-.14-.094-.393-.344-.336-.654.03-.157.13-.282.297-.373-.014-.037-.03-.076-.044-.107-.093-.214-.308-.714.147-.942.09-.044.193-.147.293-.246.23-.23.546-.543.996-.403.042.014.086.027.13.04.425.123 1.006.292 1.303 1.102.255.698.424.992.647 1.288l.044.058c.445.59.635.746.603.946-.015.096-.026.42-.237.498zm-2.368-2.048c.337.046.647-.02.943.042-.07-.16-.144-.346-.224-.566-.187-.51-.51-.603-.885-.712l-.14-.042c-.08-.024-.196.082-.362.248-.11.11-.23.23-.374.32.018.052.048.122.068.17.068.16.038.484.017.66.146-.093.62-.166.958-.12zm-1.377-.245z"/>
  <path d="M95.81 95.47c-.562 0-1.56-1.47-1.57-1.485-.137-.22-.337-.454-.53-.682-.392-.46-.73-.857-.693-1.25.033-.344-.267-1.14-.432-1.238-.478-.168-1.238-1.3-1.308-1.837-.032-.245.038-.486.203-.697.307-.39.885-.617 1.322-.667.777-.09 2.32.036 2.6 1.148l.072.29c.373 1.483.705 2.85.668 3.297-.028.34-.012 1.596-.004 2.272l.005.494c0 .166-.1.302-.255.345-.025.006-.05.01-.078.01zm-3.905-6.574c.05.372.7 1.243.9 1.326.56.197.885 1.444.842 1.892-.005.135.34.538.544.78.21.244.426.498.587.756.19.306.486.648.726.89-.01-.74-.023-1.89.007-2.245.032-.38-.43-2.21-.65-3.09l-.074-.29c-.164-.655-1.36-.736-1.913-.673-.302.035-.72.205-.895.43-.08.1-.08.176-.073.224z"/>
  <path d="M76.905 111.643c-.097 0-.19-.03-.27-.09-.322-.24-.286-.75-.252-1.243.01-.125.02-.307.014-.386-.12-.17-.204-.514-.35-1.268-.023-.118-.05-.263-.064-.316-.105-.195-.216-.588-.206-.91.01-.365.162-.572.287-.682.325-.286.674-.425 1.01-.4.293.02.566.17.787.433.072.085.144.167.215.248.41.466.795.907.714 1.373l-.01.06c-.243 1.4-.366 1.68-.542 1.793-.045.053-.145.204-.22.317-.39.587-.694 1.007-1.03 1.065-.03.006-.056.008-.083.008zm.007-2.09c.147.17.13.424.103.8-.01.137-.026.373-.016.54.162-.183.38-.51.49-.673.178-.268.263-.393.35-.463.048-.1.143-.414.314-1.403l.01-.06c.03-.168-.315-.56-.566-.847-.073-.084-.148-.17-.22-.256-.113-.132-.228-.2-.352-.21-.16-.01-.352.075-.543.244-.157.14-.028.64.05.805.05.066.068.155.136.506.05.263.17.873.242 1.018zm.917.227zm-.938-.247zm-.904-1.182c.01.022.028.055.06.087-.018-.02-.04-.048-.06-.086z"/>
  <path d="M70.296 111.42c-.51 0-1.005-.54-1.645-1.305-.18-.216-.35-.42-.462-.516-.46-.402-1.75-2.094-2.128-2.787-.285-.524-.088-1.477.215-2.14.195-.426.625-1.164 1.315-1.314.19-.042.507-.142.875-.258 1.708-.54 4.29-1.352 4.914-.053.205.428-.103 1.066-.46 1.804-.216.446-.46.952-.46 1.203 0 .425-.29.926-.597 1.458-.29.502-.62 1.07-.635 1.49l-.006.183c-.036 1.046-.076 2.23-.926 2.23zm1.627-8.442c-.96 0-2.427.463-3.268.728-.4.126-.714.225-.93.272-.303.066-.63.424-.874.958-.307.673-.36 1.34-.234 1.574.364.67 1.616 2.286 1.988 2.612.147.13.325.34.53.586.295.35.906 1.078 1.16 1.078.238 0 .28-1.176.294-1.62l.006-.183c.02-.577.376-1.19.72-1.785.25-.435.51-.886.51-1.14 0-.397.255-.923.524-1.48.183-.38.524-1.083.458-1.256-.12-.25-.45-.344-.883-.344z"/>
  <path d="M106.472 130.08c-.18 0-.35-.01-.506-.036-1.037-.163-3.602-1.277-3.808-1.986-.086-.297.026-.615.156-.983.134-.38.285-.808.202-1.212-.053-.26-.31-.702-.557-1.13-.546-.94-1.163-2.003-.61-2.65.057-.064.226-.262.94-.18.877.1 2.56.647 3.303 2.065.39.744.634 1.57.85 2.3.213.713.477 1.602.742 1.646.3.05.863-.14 1.36-.307.678-.23 1.32-.447 1.78-.287.5.173.85.64.83 1.107-.02.433-.34.77-.857.898-.154.038-.337.088-.54.143-.93.253-2.262.612-3.286.612zm-4.663-7.55c-.202.335.337 1.265.697 1.887.298.514.555.958.63 1.32.118.576-.073 1.115-.226 1.55-.077.22-.173.494-.144.595.158.295 2.094 1.347 3.297 1.536.918.143 2.488-.28 3.527-.56.21-.057.396-.108.553-.147.137-.033.37-.12.377-.31.007-.165-.142-.39-.404-.48-.254-.09-.873.12-1.37.288-.62.21-1.208.408-1.666.33-.656-.108-.916-.983-1.244-2.09-.208-.7-.444-1.497-.805-2.186-.75-1.437-2.82-1.836-3.22-1.733zm-.03.008z"/>
  <path d="M148.8 94.77c-4.68-1.448-10.36-4.4-12.66-6.577-2.155-2.038-7.325-5.288-8.247-5.19-.458.047-.887.366-1.302.674-.336.25-.685.51-.92.51-.433 0-3.01-.663-6.562-1.69-1.246-.36-1.726-.023-2.146.386-.15.146-.234.223-.36.237-.15.017-.3.023-.446.03-.545.024-1.162.05-1.46.674-.078.166-.13.338-.177.49-.143.462-.196.58-.577.547-.47-.042-1.012.182-1.486.614-.367.335-.76.87-.76 1.365 0 .786.432 1.3.848 1.8l.212.258c.204.255.703.6 1.394 1.074 1.064.732 2.52 1.734 3.258 2.717l.02.025c-.275.012-.81-.055-1.223-.107-.744-.094-1.67-.212-2.475-.147-1.224.1-2.165.3-3.075.496-.59.127-1.15.247-1.775.338-1.997.292-6.138.626-6.92.35-.092-.215.048-1.07.15-1.698.132-.802.28-1.71.245-2.467-.034-.72-.16-1.354-.26-1.864-.08-.392-.175-.88-.118-1 1.083-.66 3.072-1.998 4.233-3.546 1.19-1.588 2.862-2.23 3.212-2.23.045.07.1.25.133.362.118.392.3.987.885.966.954-.03 1.198-.684 1.435-1.317.17-.456.347-.928.79-1.34 1.013-.942 6.553-6.642 7.196-8.013.57-1.215 2.056-3.32 2.584-3.782.135.282.32.938.447 1.398.375 1.34.56 1.934 1 1.934.745 0 2.75-2.604 3.83-4.975.51-1.12.68-1.99.842-2.83.223-1.144.433-2.226 1.562-3.806 1.41-1.974 2.488-6.302 3.275-9.46.322-1.297.6-2.417.8-2.917.392-.996 1.4-3.58 2.258-6.073 1.73-5.03 1.453-5.61 1.334-5.858-.075-.158-.208-.264-.375-.3-.57-.128-1.48.587-3.162 1.97-1.31 1.076-2.798 2.296-3.77 2.596-1.158.358-2.428 1.286-3.656 2.183-1.167.85-2.27 1.656-3.19 1.932-1.29.387-2.708 1.562-3.848 2.507-.66.547-1.285 1.064-1.703 1.273-.264.132-.648.312-1.092.522-1.55.73-3.892 1.835-4.753 2.568-.55.47-.867.94-1.12 1.316-.24.355-.386.56-.556.593-1.646.33-2.576.725-2.764 1.178-.107.256-.81.84-1.275 1.224-.265.22-.517.43-.707.607-.286.268-.394.536-.323.798.144.53.942.71 1.865.917.423.095 1.13.254 1.23.38.198.478-.208 1.194-1.142 2.017-.917.807-2.39 2.5-3.1 3.312l-.175.2c-.132.15-.27.288-.39.41-.33.33-.57.568-.49.875.047.18.194.306.437.375.29.083.694.378.873.573-.083.015-.177.027-.273.04-.563.076-1.415.19-1.54 1.056-.044.314-.273.75-.516 1.213-.336.638-.716 1.362-.79 2.085-.087.853-1.427 1.85-2.07 2.33-.15.11-.268.2-.353.27-.05.04-.128.097-.23.162.037-.304.164-1.895-.87-3.8-1.02-1.883-3.43-4.447-9.105-5.965-.445-.12-.468-1.505-.485-2.516-.013-.77-.025-1.497-.16-2.045-.37-1.484-.453-3.15-.27-5.4.1-1.22.05-3.168.005-4.885-.04-1.577-.084-3.208.022-3.545l.035-.102c.168.28.403.894.57 1.33.263.688.536 1.4.844 1.884.06.092.13.206.214.34 2.015 3.207 4.555 6.916 6.332 7.127.532.063.902-.034 1.133-.296.39-.44.214-1.143.03-1.888-.12-.487-.246-.992-.17-1.3.105-.417.38-.93.67-1.473.454-.846.923-1.72.923-2.523 0-1.188.35-2.405.778-2.71l.085-.06c.238-.164.6-.41.693-.932.144-.8-.407-2.046-1.733-3.922-.93-1.315-1.888-4.35-2.815-7.284-.552-1.747-1.073-3.396-1.593-4.722-.214-.545-.412-1.056-.598-1.534-1.06-2.728-1.7-4.374-2.352-5.026-.334-.334-.597-1.37-.83-2.285-.214-.847-.417-1.647-.706-2.127-.26-.435-1.038-1.932-1.86-3.517-1.044-2.01-2.124-4.09-2.46-4.607-.35-.536-.808-.917-1.213-1.254-.3-.252-.562-.468-.678-.67-.056-.1-.16-.352-.28-.645-.723-1.757-1.588-3.632-2.716-3.632-1.455 0-3.946 3.167-4.202 4.616l-.052.297c-.282 1.614-.942 5.392-1.665 6.946-.236.51-.528 1.377-.897 2.474-.864 2.568-2.17 6.45-3.943 8.997-2.485 3.572-3.303 5.598-3.572 6.264l-.02.05-.096.242c-.584 1.49-.873 1.877-1.014 1.936-.8.033-2.478 2.816-2.558 4.617-.035.795.266 1.695.615 2.738.466 1.394.995 2.974.773 4.596-.38 2.776-.468 4.534.206 5.307.23.263.532.396.9.396.272 0 1.104 0 4.548-5.204 1.466-2.215 3.01-4.797 3.87-6.448.103.547.073.913.043 1.293-.015.184-.03.374-.03.583 0 .343-.182.815-.374 1.315-.202.528-.412 1.075-.455 1.587-.047.563.12 1.13.268 1.632.104.353.212.72.173.9-.028.133-.158.458-.294.803-.558 1.405-.956 2.52-.61 3.04.178.267.24 1.242.284 1.953.05.813.086 1.286.21 1.537.052.1.14.222.26.39.526.733 1.587 2.21 1.42 4.43-2.99-1.26-5.49-1.37-8.283-.378-.12.043-.204.154-.21.282-.007.128.064.247.18.302 1.595.76 3.05 2.312 3.664 3.453.678 1.26 3.062 4.226 3.942 4.996.524.46.725.965.69 1.24-.02.138-.09.19-.148.22-.12.058-.273.145-.45.247-.66.375-1.89 1.073-2.634.96-.9-.135-2.695-.717-3.68-1.705-.952-.956-7.406-6.216-10.194-7.2-1.42-.502-2.142-.894-2.668-1.18-.476-.26-.82-.448-1.364-.548-.69-.128-.958-.59-1.173-.96l-.033-.055c.688-.304 3.012-.885 3.916-.917.517-.018.736-.343.768-.64.083-.766-.948-1.976-2.35-2.33-1.316-.335-3.504-1.435-4.81-2.092-.423-.212-.757-.38-.968-.476-.912-.415-9.063-2.57-10.767-2.848-.528-.086-1.412-.25-2.436-.44-2.927-.544-5.03-.923-5.45-.868h-.04c-.97 0-11.83-1.6-14.187-2.094-.127-.027-.257.027-.33.135-.07.108-.07.25.005.356 1.528 2.2 2.757 3.685 3.842 4.996.526.636 1.024 1.238 1.512 1.866 1.224 1.58 5.9 8.466 8.145 11.776l1.105 1.626c.636.93 1.206 1.834 1.708 2.63 1.18 1.873 2.032 3.226 2.894 3.622.57.263 1.044.316 1.446.163.55-.21.787-.753.945-1.113.027-.06.06-.135.088-.193.063.046.144.116.21.172.422.362 1.13.97 2.387.858.787-.07 1.908-.45 2.992-.817.945-.32 2.374-.806 2.645-.663.27.168.426.564.576.948.16.412.313.8.634.993.246.147.632.205 1.078.27.3.045.898.134 1.057.252-.12.145-.46.425-.765.676-1.295 1.063-3.705 3.042-4.224 6.057-.02.11.022.224.108.296.087.073.205.094.31.056 3.318-1.186 8.87-3.172 12.86-1.51 2.216.922 2.138 1.29 1.967 2.1-.024.114-.05.235-.072.364l-.042.234c-.197 1.06-.42 2.263 2.167 3.395 1.097.48 1.745.998 1.93 1.54.126.378.047.79-.26 1.34-.53.956-1.517 2.733-.464 3.89.308.34.65.634.924.87.088.076.185.16.27.236-.82.03-3.536.068-6.39.108-6.635.094-10.433.157-12.08.23 1.006-.766 3-2.14 4.823-3.077 2.357-1.21 2.523-2.165 2.484-2.6-.038-.418-.298-.936-.676-1.05-.21-.065-.536-.096-.948-.136-.71-.068-1.9-.18-2.168-.56-.033-.046-.066-.117-.033-.252.08-.314.436-.675.78-1.024.536-.543 1.144-1.16 1.082-1.934-.044-.55-.416-1.075-1.14-1.606-2.4-1.762-11.168 2.173-15.88 4.287-.634.285-1.182.53-1.608.714-.882.38-1.786.785-2.744 1.215-2.727 1.224-5.546 2.49-7.878 3.15-1.955.555-3.53 1.41-5.05 2.24-.97.527-1.888 1.026-2.846 1.413-.874.354-2.024.893-3.24 1.464-2.18 1.023-4.653 2.183-5.767 2.356-.87.135-1.42.46-1.636.963-.197.463-.038.955.158 1.234.03.042.065.096.106.16.39.59 1.204 1.824 2.317 1.87.298.013.298.034.295.388-.002.293-.005.736.415 1.01.092.06.208.166.342.287.702.632 2.01 1.81 5.507 2.08 3.932.3 4.08.474 4.704 1.203l.028.032c.775.904 4.46 3.985 9.468 5.908 2.958 1.136 4.46 2.438 6.05 3.817 1.07.927 2.175 1.886 3.76 2.81l.58.34c1.703.998 2.407 1.41 3.013 1.092.39-.205.372-.603.36-.84-.012-.292-.012-.292.23-.312.35-.03.913.05 1.457.127 1.145.16 1.865.237 2.23-.067.993-.827 1.955-1.128 2.858-.894.452.117.838.252 1.18.372.766.268 1.37.48 1.88.115.308-.22.617-.78.616-1.54 0-.69-.274-2.04-2.093-3.33-.395-.28-.827-.58-1.273-.887-1.948-1.346-4.616-3.19-4.71-4.038-.008-.072.01-.11.043-.144.48-.52 2.356-.5 4.01-.48 1.123.012 2.282.025 3.192-.108.966-.14 2.292.01 3.574.16 1.832.21 3.56.41 4.47-.18.277-.18.646-.465.643-.857-.003-.375-.327-.593-.58-.753.46-.1 1.39-.106 1.99-.11.582-.002 1.085-.004 1.39-.057.136-.023.2-.02.228-.017.018.04.038.13.053.198.036.16.084.376.197.62.328.708 1.293 2.398 2.594 3.727.21.214.45.456.706.712.91.912 2.586 2.595 2.74 3.034-.057.176-.117.35-.226.4-.067.03-.236.053-.62-.12-.863-.384-4.343-5.462-4.654-6.577-.023-.084-.08-.154-.157-.195-.077-.04-.167-.048-.25-.02-2.143.724-2.353 2.057-2.48 2.853-.008.057-.017.112-.026.164-.045.26-.077.525-.11.782-.058.483-.114.94-.234 1.194-.14.3-.03.693.1 1.148.118.415.266.932.11 1.155-.056.08-.288.322-.557.6-1.448 1.5-5.227 5.416-7.39 10.755-.453-.52-.772-.95-1.017-1.28-.442-.595-.708-.954-1.157-.976-.695-.04-1.778.577-1.99 1.82-.098.57-.064 1.27-.034 1.89.026.553.053 1.125-.034 1.387-.062.186-.387.984-.8 1.994-.963 2.368-2.42 5.945-2.754 7.167-.278 1.02-1.107 2.725-1.773 4.095-.466.957-.868 1.783-1.032 2.257-.257.745-1.158 2.592-1.882 4.076-.375.77-.73 1.497-.956 1.99-.312.678-.902 1.635-1.472 2.56-.76 1.23-1.23 2.006-1.32 2.41-.167.75-.964 2.392-1.136 3.414-.068.405-.707 1.26-.614 1.366.093.105 1.128-.158 1.366-.534s2.194-1.286 2.974-1.41c.324-.053.692-.112 1.202-.242.893-.228 2.526-.867 4.106-1.484 1.345-.526 2.735-1.07 3.103-1.122.255-.036.59.19.914.41.473.32 1.06.718 1.633.33.44-.3.756-.784 1.06-1.253.446-.68.866-1.325 1.614-1.426.882-.12 2.284-.648 3.52-1.114.86-.324 1.67-.63 2.08-.71.586-.112 1.14-.398 1.627-.65.405-.21.787-.407 1.093-.455.542-.085 2.817-.633 3.254-1.235.363-.5-.254-.956-.907-1.44-.43-.32-.92-.68-1.24-1.08-.76-.95-1.704-1.228-2.374-1.395.295-.286.953-.756 1.38-1.06.27-.193.525-.374.742-.54.493-.375 1.017-.54 1.437-.67.427-.135.764-.24.946-.516.122-.185.187-.54.302-1.204.14-.818.378-2.186.788-2.473.327-.23.917-.38 1.488-.528.733-.188 1.424-.366 1.8-.738.115-.115.28-.287.478-.493.754-.785 2.158-2.246 2.844-2.59.246-.123.536-.243.817-.358.89-.365 1.66-.68 1.59-1.288-.053-.467-.1-1.47 0-2.173.162-1.167.82-2.68 1.096-2.7.342.02 1.017 1.66 1.106 3.303l.002.045c.372 6.862-.36 8.788-.735 9.536-.197.39-.84 1.672-.693 1.9.356.553 1.215-.398 1.366-.456 1.26-.49 2.246-1.97 3.028-3.008.1 1.362-.114 4.772-.354 6.93-.344 3.1-.906 4.08-1.175 4.552-.15.26-.267.466-.206.77.07.35.3.735.57 1.18.245.41.5.832.625 1.23.533 1.683 1.28 1.852 2.01 1.784.05-.005.112-.01.152-.01.275.452.086.67-.496 1.15-.292.24-.595.49-.773.83-.248.474-.13 1.26-.002 2.093.07.47.19 1.252.084 1.428-.26.034-.73-.393-1.11-.738-.43-.39-.876-.796-1.34-.923-.815-.222-1.875-.988-1.904-1.532-.037-.705-.507-2.464-1.45-2.63-.194-.034-.5-.07-.884-.114-.93-.107-2.333-.27-3.01-.54-.337-.136-.905-.49-1.506-.866-1.14-.71-2.43-1.516-3.26-1.572-.875-.058-1.327.264-1.553.545-.392.487-.446 1.24-.158 2.234.285.985 1.154 2.024 2.074 3.125.812.972 1.652 1.977 2.054 2.927.488 1.153 1.582 2.632 2.64 4.06.846 1.142 1.643 2.22 1.954 2.91l.21.47c.763 1.73 2.186 4.948 4.183 6.723 2.077 1.845 3.247 4.647 2.968 5.3l-.118.264c-.372.818-.882 1.937.07 3.324.295.433.923 1.118 1.718 1.985 1.874 2.045 4.706 5.135 6.577 8.518.056.1.162.163.277.163h.01c.117-.004.224-.073.275-.18.707-1.48 1.223-2.995 1.68-4.33.644-1.895 1.202-3.53 2.06-4.412.885-.907 3.793-4.013 4.085-5.912.136-.882.965-1.904 1.696-2.806.468-.577.91-1.122 1.16-1.61 1.53-2.96 5.744-10.937 6.888-12.29.994-1.174 4.397-6.103 2.883-8.752-.58-1.013-1.352-.58-1.813-.322-.204.115-.416.233-.58.242-.233.013-.582-.066-.917-.143-.63-.143-1.28-.292-1.73-.004-.37.238-.516.682-.686 1.196-.147.445-.314.95-.655 1.376-.31.388-.724.84-1.123 1.278-.564.618-1.148 1.258-1.504 1.78-.134.197-.292.46-.475.767-.43.718-1.44 2.403-1.905 2.324-1.614-.256-2.404-.624-2.348-1.094.03-.262.122-.55.227-.885.27-.864.607-1.94.284-3.53-.17-.832-.463-1.752-.746-2.64-.39-1.227-.834-2.618-.654-3.077.112-.287.236-.56.356-.825.273-.604.49-1.08.442-1.455-.043-.345-.39-.527-.79-.737-.34-.18-.766-.402-.793-.656-.07-.668.23-4.496.66-5.458.417-.93 1.238-3.914-.39-5.38-.388-.35-.437-.535-.432-.614.013-.205.408-.48.827-.768.39-.27.876-.606 1.33-1.06.1-.1.19-.185.272-.26.547-.508.717-.79.325-1.747-.06-.148-.095-.248-.113-.313h.02c.15-.01.36-.026.587-.115.186-.073.354-.12.516-.163.35-.097.682-.188.962-.51.195-.227.405-.305.54-.205.15.218.54 1.533.652 2.995.057.736.227 1.543.392 2.324.185.88.377 1.79.398 2.568.032 1.23-.21 5.677-.79 6.258-.582.58-1.36 1.4-.635 1.4.38 0 .693-.84 1.168-1.215.88-.696 1.31-1.213 1.774-1.716 1.13-1.223 1.553-1.68 2.523-2.246 1.59-.927 3.67-4.415 2.71-8.328-.224-.915 1.385-.91 1.794-1.044.166.166.36.367.575.59.843.877 1.965 2.04 2.858 2.664-.528.78-.587 2.053-.09 2.998.588 1.116 1.626 2.112 2.526 2.42l.023.01c-.035.118-.44.414-.55.565-.29.393-.276 1.066-.07 1.473.623 1.232 12.03 5.86 20.672 8.866.784.272 1.57.59 2.33.896 1.948.787 3.79 1.53 5.644 1.597.343.008.484-.162.54-.266.23-.434-.235-1.11-1.078-2.263-.394-.54-.84-1.152-.93-1.442-.04-.133-.078-.26-.114-.387-.212-.73-.413-1.42-1.13-2.625-.306-.51-.442-1.043-.587-1.606-.227-.887-.462-1.805-1.36-2.704-1.226-1.225-1.664-2.94-1.73-3.76-.048-.594-1.024-5.245-2.596-7.34-.568-.758-1.144-1.86-1.7-2.924-1.123-2.144-1.853-3.458-2.696-3.458-.893 0-1.018.783-1.092 1.25-.023.147-.066.42-.12.462-.003 0-.012.003-.026.003-.296-.045-.895-1.442-1.183-2.113-.284-.66-.552-1.286-.806-1.636-.523-.72-2.32-3.052-3.415-2.795-.493.115-.807.422-1.06.668-.23.225-.37.354-.545.36-.186-.058-.708-.636-1.09-1.06-.866-.958-1.847-2.045-2.735-2.08-.87-.037-1.32.484-1.648.865-.243.282-.393.44-.588.428-.64-.04-1.97-.126-2.4-3.132-.416-2.914-1.415-4.07-2.217-5-.087-.102-.172-.2-.254-.3-.476-.568-.407-.775-.328-1.013.044-.132.094-.282.083-.47-.013-.222-.176-.484-.462-.927-.18-.28-.66-1.022-.586-1.197 0 0 .007-.006.028-.014.746-.29 2.82.12 5.098 1.93 2.49 1.982 4.006 3.878 4.36 4.8.15.385.407.392.512.378.912-.13 1.442-4.352 1.445-4.395.205-2.364-1.025-4.595-1.76-5.928-.142-.257-.297-.54-.378-.718.927-.192 4.644-.36 5.38-.223.052.01.09.02.115.03-.02.046-.048.105-.07.15-.096.19-.215.43-.168.7.255 1.452 1.118 2.078 1.69 2.493.398.29.558.424.548.6-.045.768-1.027 2.48-1.635 3.377-.387.572-.396 1.08-.402 1.417 0 .1-.004.27-.028.302-.287.35-.89 1.467-.304 1.97.258.22.678.227 1.12.233.258.004.735.01.812.112l.055.074c.304.408.812 1.092 1.558.607.21-.136 5.18-3.35 8.66-4.152 1.54-.356 2.566-.527 3.245-.64.87-.145 1.31-.218 1.698-.49.1-.072.268-.204.5-.388 1.19-.947 4.356-3.46 8.198-5.096 10.424-4.432 11.83-5.89 11.83-6.73-.003-1.693-5.153-5.158-9.844-6.61zm5.283 9.332c-1.84.944-4.3 2.068-7.52 3.437-3.922 1.667-7.136 4.22-8.345 5.182-.214.17-.383.305-.47.365-.27.19-.636.25-1.438.385-.686.114-1.723.288-3.284.648-3.588.828-8.65 4.1-8.862 4.24-.19.124-.307.08-.704-.456l-.057-.077c-.263-.35-.795-.358-1.31-.365-.236-.003-.633-.01-.717-.08-.108-.094.094-.74.382-1.09.164-.2.168-.45.172-.693.005-.31.01-.658.293-1.074.068-.1 1.67-2.48 1.743-3.695.032-.54-.376-.835-.808-1.15-.547-.396-1.227-.89-1.44-2.09-.01-.062.06-.204.112-.307.103-.205.23-.46.1-.72-.122-.248-.4-.326-.596-.363-.737-.138-5.515-.02-6.03.377-.326.25-.112.64.358 1.492.7 1.27 1.872 3.394 1.684 5.565-.084.964-.53 2.89-.84 3.605-.526-1.08-2.045-2.912-4.452-4.828-2.354-1.873-4.66-2.437-5.72-2.027-.254.098-.358.275-.4.407-.158.484.254 1.122.653 1.74.145.225.344.533.362.622.003.065-.022.14-.052.23-.137.412-.206.845.44 1.62.085.102.172.203.262.307.787.914 1.68 1.948 2.07 4.678.445 3.116 1.83 3.6 2.985 3.675.52.03.833-.327 1.108-.646.297-.344.584-.67 1.142-.647.622.025 1.586 1.093 2.29 1.873.752.833 1.163 1.268 1.55 1.268.446 0 .74-.286 1-.54.225-.22.44-.43.76-.505.427-.098 1.663 1.044 2.76 2.55.21.293.477.913.735 1.514.666 1.553 1.117 2.496 1.763 2.496.616 0 .71-.6.774-1 .09-.563.158-.715.466-.715.503 0 1.446 1.803 2.134 3.12.57 1.086 1.157 2.21 1.755 3.008 1.42 1.894 2.415 6.31 2.47 7.013.02.25.245 2.49 1.913 4.158.777.777.98 1.572 1.197 2.414.15.582.304 1.184.655 1.773.676 1.134.857 1.757 1.066 2.477.037.128.075.26.117.395.12.392.54.966 1.024 1.63.334.46.865 1.186.99 1.52-1.718-.08-3.482-.794-5.35-1.548-.766-.31-1.56-.63-2.357-.91-10.2-3.546-19.946-8.014-20.422-8.82-.01-.107.224-.428.35-.6.278-.378.54-.736.426-1.094-.04-.13-.147-.303-.43-.4-.737-.254-1.67-1.164-2.172-2.118-.472-.897-.273-2.082.22-2.544.073-.07.11-.168.098-.267-.012-.1-.07-.188-.156-.238-.853-.492-2.113-1.8-3.033-2.756-.29-.303-.543-.564-.743-.76-.09-.088-.227-.114-.345-.064-.17.072-.484.013-.67.113-.42.23-.663.14-1.338.29-.27.06-.453-.078-.34.85.632 5.278-.967 7.397-2.42 8.244-1.05.614-1.524 1.126-2.668 2.363-.212.23-.447.483-.713.768.385-1.73.324-4.04.297-5.082-.022-.836-.22-1.775-.412-2.682-.16-.76-.327-1.547-.38-2.242-.1-1.3-.506-3.116-.86-3.42-.337-.286-.932-.326-1.442.263-.147.17-.315.222-.65.314-.17.046-.363.098-.58.183-.137.054-.27.063-.4.072-.19.013-.425.03-.56.244-.14.224-.065.516.11.943.263.64.24.664-.17 1.042-.085.08-.182.17-.29.276-.412.414-.853.72-1.24.988-.597.412-1.067.738-1.1 1.25-.023.353.18.71.64 1.126 1.248 1.123.698 3.617.237 4.65-.478 1.067-.795 5.002-.712 5.783.063.59.654.9 1.13 1.15.157.082.393.206.456.277.007.21-.196.657-.392 1.09-.117.26-.25.554-.37.857-.247.637.083 1.745.642 3.5.278.874.566 1.777.73 2.575.29 1.43-.02 2.42-.268 3.214-.11.348-.213.68-.25.998-.16 1.313 1.968 1.65 2.876 1.795.827.132 1.61-1.057 2.548-2.624.178-.298.33-.555.455-.736.33-.485.9-1.108 1.45-1.71.405-.445.825-.905 1.148-1.31.412-.515.606-1.1.762-1.572.132-.4.246-.745.428-.862.224-.144.79-.015 1.245.09.396.09.77.175 1.095.158.31-.017.586-.172.853-.322.53-.298.696-.364.952.084 1.133 1.983-1.275 6.208-2.817 8.03-1.423 1.683-6.91 12.302-6.965 12.41-.222.43-.644.95-1.09 1.5-.782.964-1.67 2.057-1.83 3.11-.21 1.36-2.158 3.767-3.91 5.565-.96.984-1.54 2.682-2.21 4.65-.39 1.15-.83 2.436-1.394 3.706-1.896-3.234-4.56-6.14-6.356-8.1-.778-.85-1.393-1.52-1.664-1.915-.748-1.092-.36-1.948-.015-2.704.043-.094.085-.187.124-.277.442-1.035-.942-4.077-3.13-6.022-1.893-1.683-3.28-4.82-4.025-6.504l-.21-.473c-.34-.753-1.157-1.858-2.022-3.027-.988-1.335-2.108-2.848-2.567-3.933-.44-1.037-1.31-2.08-2.153-3.087-.876-1.048-1.704-2.037-1.95-2.894-.225-.774-.21-1.348.042-1.66.203-.253.555-.317.86-.317.054 0 .107.002.157.005.673.045 1.945.84 2.968 1.477.653.408 1.217.76 1.606.915.756.302 2.153.464 3.173.582.36.042.67.078.847.11.4.07.885 1.257.926 2.04.05.955 1.433 1.853 2.37 2.11.317.085.705.438 1.08.78.57.518 1.107 1.007 1.68.886.7-.147.553-1.115.398-2.14-.095-.63-.214-1.414-.062-1.704.118-.226.37-.434.616-.636.526-.434 1.246-1.027.596-2.028-.182-.28-.49-.252-.713-.23-.4.036-.895.083-1.348-1.347-.15-.47-.436-.944-.688-1.364-.228-.378-.443-.736-.492-.976-.012-.062.005-.106.135-.332.313-.547.896-1.566 1.255-4.796.136-1.227.224-3.055.23-4.772.008-3.038-.22-3.66-.446-3.778-.218-.114-.327.568-.47.912-.24.575-1.714 2.09-2.514 2.727.675-1.49.874-4.885.592-10.097l-.002-.045c-.07-1.29-.658-3.84-1.7-3.9-.013-.002-.025-.002-.037-.002-1.154 0-1.72 3.214-1.725 3.247-.107.766-.06 1.814 0 2.318-.058.174-.774.468-1.202.644-.292.12-.594.243-.86.377-.724.362-1.887 1.54-3.017 2.717-.195.202-.356.37-.47.483-.252.25-.892.415-1.51.574-.626.162-1.273.328-1.694.623-.626.438-.86 1.794-1.05 2.884-.065.383-.148.86-.205.96-.057.088-.35.18-.607.26-.443.14-1.05.33-1.63.772-.21.158-.46.337-.726.526-1.35.964-1.854 1.367-1.775 1.782.015.08.08.278.36.348l.125.03c.626.154 1.483.363 2.158 1.206.37.464.895.852 1.357 1.195.267.198.622.46.727.605-.336.286-1.92.797-2.798.936-.407.064-.833.285-1.285.518-.472.244-.96.496-1.457.592-.462.09-1.26.39-2.183.738-1.205.455-2.57.97-3.38 1.08-1.035.14-1.58.973-2.06 1.708-.283.436-.552.847-.886 1.075-.2.135-.48-.035-.92-.333-.403-.273-.86-.584-1.36-.51-.42.06-1.506.478-3.244 1.158-1.49.582-3.177 1.242-4.033 1.46-.48.123-.82.177-1.145.23-.688.11-1.422.517-3.032 1.224.482-1.07 1.043-2.768 1.16-3.297.072-.322.693-1.33 1.24-2.217.58-.94 1.182-1.914 1.51-2.628.223-.486.577-1.21.95-1.977.77-1.577 1.64-3.365 1.91-4.147.152-.44.546-1.25 1.002-2.187.713-1.466 1.52-3.128 1.815-4.206.323-1.185 1.772-4.74 2.73-7.094.433-1.06.746-1.828.814-2.033.125-.374.097-.95.065-1.62-.028-.584-.06-1.248.026-1.752.153-.897.94-1.308 1.334-1.293.15.008.372.307.68.72.31.42.736.995 1.4 1.712.073.08.183.116.292.095.108-.02.197-.096.236-.198 2.08-5.464 5.976-9.502 7.443-11.022.362-.375.54-.56.622-.68.326-.468.14-1.117-.022-1.69-.065-.227-.173-.606-.136-.704.163-.345.225-.85.29-1.386.03-.25.062-.507.105-.753.01-.054.02-.112.028-.172.11-.697.258-1.638 1.772-2.246.713 1.604 3.846 6.2 4.883 6.665.472.212.755.603 1.05.47.375-.17.946-.623.82-1.213-.124-.59-.553-1.086-3.056-3.598-.255-.255-.494-.495-.703-.708-1.15-1.175-2.11-2.767-2.472-3.55-.084-.182-.12-.347-.154-.492-.095-.426-.243-.798-1.004-.666-.254.044-.756.046-1.288.05-1.314.005-2.205.03-2.593.317-.184.136-.218.29-.214.397.01.263.238.406.457.544.094.06.29.183.313.235 0 0-.024.11-.354.324-.718.466-2.413.27-4.052.082-1.322-.153-2.69-.31-3.737-.157-.86.125-1.994.112-3.092.1-2.046-.023-3.812-.044-4.484.685-.16.176-.233.398-.205.643.118 1.055 2.138 2.526 4.98 4.49.443.306.873.603 1.266.882 1.588 1.127 1.827 2.246 1.827 2.814 0 .534-.204.92-.35 1.024-.232.166-.606.047-1.303-.197-.353-.123-.752-.263-1.23-.387-1.11-.29-2.263.055-3.42 1.02-.176.146-1.192.003-1.737-.074-.606-.085-1.178-.166-1.597-.13-.852.07-.823.702-.81.972.003.074.01.212-.023.25-.296.154-1.04-.283-2.396-1.078l-.58-.34c-1.535-.894-2.618-1.833-3.665-2.742-1.56-1.354-3.176-2.754-6.238-3.93-4.895-1.88-8.467-4.857-9.214-5.73l-.028-.03c-.778-.91-1.084-1.113-5.136-1.424-3.283-.252-4.486-1.336-5.132-1.92-.154-.138-.287-.258-.42-.344-.12-.078-.13-.2-.128-.477.002-.346.006-.988-.902-1.026-.79-.033-1.508-1.122-1.815-1.587-.045-.07-.084-.128-.116-.173-.083-.118-.196-.382-.094-.622.12-.28.528-.49 1.15-.586 1.204-.187 3.61-1.317 5.937-2.41 1.21-.566 2.35-1.102 3.21-1.45.992-.4 1.924-.907 2.91-1.444 1.492-.81 3.034-1.65 4.92-2.185 2.377-.673 5.218-1.95 7.966-3.182.955-.43 1.857-.834 2.735-1.212.43-.185.98-.432 1.618-.718 3.933-1.765 13.143-5.898 15.246-4.355.557.41.854.794.882 1.145.04.487-.44.97-.9 1.44-.424.428-.823.832-.944 1.315-.07.284-.026.55.13.77.436.618 1.65.733 2.625.826.347.033.674.064.825.11.13.04.214.155.23.317.043.492-.496 1.32-2.142 2.167-1.53.786-3.055 1.807-3.828 2.345-2.07 1.44-3.67 1.91-3.547 2.132.336.614 1.652-.137 2.408-.186.757-.048 7.613-.178 12.523-.247 3.94-.056 6.37-.09 6.672-.122.11-.01.44-.043.532-.33.103-.328-.19-.583-.68-1.004-.275-.237-.587-.506-.87-.816-.688-.758-.077-2.027.55-3.156.25-.446.55-1.124.305-1.85-.246-.73-.99-1.356-2.275-1.918-2.127-.93-1.99-1.672-1.798-2.7l.044-.24c.02-.122.045-.235.068-.343.248-1.175.102-1.797-2.343-2.814-4.003-1.668-9.337.083-12.78 1.306.652-2.477 2.655-4.122 3.885-5.132.74-.61 1.08-.886 1.02-1.24-.1-.577-.873-.692-1.62-.802-.332-.05-.708-.105-.845-.187-.136-.082-.26-.4-.37-.68-.18-.46-.382-.98-.834-1.258-.476-.294-1.468.02-3.18.602-1.05.355-2.134.723-2.845.785-.993.087-1.527-.372-1.918-.708-.24-.206-.45-.385-.708-.37-.32.015-.453.32-.583.617-.134.31-.287.66-.59.774-.23.088-.552.04-.955-.147-.69-.316-1.543-1.67-2.622-3.382-.505-.802-1.078-1.71-1.72-2.65-.21-.306-.6-.88-1.105-1.625-2.25-3.315-6.932-10.215-8.17-11.81-.493-.636-.993-1.24-1.523-1.88-.968-1.17-2.052-2.48-3.36-4.315 3.405.614 13.044 2.04 13.66 1.954.37-.044 3.31.5 5.255.862 1.027.19 1.915.356 2.45.443 1.62.264 9.748 2.41 10.607 2.8.2.09.528.255.944.464 1.33.67 3.557 1.79 4.94 2.14 1.224.31 1.914 1.31 1.877 1.65-.003.03-.007.07-.16.075-.73.026-4.334.72-4.6 1.326-.057.13-.035.278.056.385.034.04.083.124.135.213.235.405.63 1.084 1.605 1.264.445.083.72.232 1.177.48.545.298 1.29.704 2.76 1.223 2.65.936 9.054 6.143 9.957 7.05 1.1 1.103 3.015 1.73 4.034 1.884.962.143 2.214-.567 3.04-1.037.17-.097.318-.18.42-.23.278-.14.454-.39.495-.707.073-.56-.273-1.248-.9-1.798-.83-.724-3.163-3.63-3.802-4.82-.56-1.043-1.785-2.454-3.285-3.365 2.475-.716 4.764-.478 7.513.756.092.04.197.035.284-.013.087-.048.147-.134.16-.233.38-2.704-.927-4.526-1.486-5.304-.092-.128-.18-.25-.207-.305-.073-.148-.115-.81-.145-1.293-.07-1.12-.135-1.884-.39-2.264-.19-.286.46-1.92.672-2.456.166-.418.286-.72.325-.904.073-.34-.047-.744-.185-1.212-.132-.448-.282-.956-.245-1.4.035-.423.23-.927.416-1.414.214-.556.416-1.082.416-1.543 0-.184.014-.353.028-.53.045-.552.096-1.177-.28-2.34-.04-.123-.153-.21-.283-.217-.13-.008-.253.065-.307.183-.596 1.28-2.327 4.293-4.193 7.114-2.567 3.88-3.74 4.927-4.03 4.933-.18 0-.315-.057-.422-.18-.617-.706-.252-3.372-.056-4.803.242-1.77-.31-3.423-.8-4.882-.33-.983-.613-1.832-.583-2.51.073-1.656 1.562-3.85 1.96-4.01.556-.022.982-.842 1.568-2.34l.093-.233.022-.052c.262-.65 1.06-2.627 3.505-6.14 1.824-2.62 3.147-6.554 4.023-9.156.363-1.08.65-1.93.872-2.41.758-1.628 1.428-5.465 1.714-7.103l.052-.297c.224-1.268 2.544-4.092 3.577-4.092.798 0 1.73 2.27 2.13 3.24.14.34.24.584.316.717.174.302.475.552.823.842.37.308.79.657 1.087 1.113.32.49 1.44 2.648 2.428 4.553.827 1.594 1.608 3.1 1.88 3.55.24.402.44 1.193.636 1.958.277 1.09.538 2.12.995 2.576.557.558 1.214 2.248 2.208 4.808.186.478.385.99.6 1.536.51 1.305 1.03 2.945 1.577 4.68.94 2.98 1.915 6.064 2.9 7.46 1.19 1.68 1.736 2.84 1.628 3.444-.047.26-.223.382-.428.522l-.095.066c-.685.49-1.043 1.993-1.043 3.226 0 .645-.43 1.448-.847 2.224-.31.58-.604 1.125-.727 1.618-.115.462.03 1.044.168 1.607.125.5.28 1.125.11 1.316-.08.09-.286.12-.583.086-1.13-.135-3.106-2.434-5.87-6.835l-.217-.342c-.274-.43-.546-1.142-.787-1.77-.477-1.246-.73-1.852-1.19-1.852h-.015c-.392.012-.54.482-.596.66-.132.417-.105 1.698-.05 3.752.044 1.7.094 3.63-.003 4.817-.19 2.323-.104 4.052.283 5.604.12.476.13 1.2.143 1.9.024 1.48.047 2.875.955 3.118 4.298 1.15 7.304 3.092 8.693 5.617.908 1.65.828 3.46.79 3.907-.245.125-.53.257-.84.38-.3-.683-1.327-1.552-2.242-2.325-.202-.17-.395-.335-.566-.485-.602-.526-1.385-.7-2.045-.453-.384.143-1.052.562-1.215 1.756-.11.816.013 1.425.38 1.862.468.557 1.286.818 2.737.872 2.245.083 4.615-1.267 5.083-1.656.07-.06.19-.147.325-.248.772-.574 2.208-1.643 2.323-2.774.06-.6.41-1.267.72-1.854.268-.512.522-.996.582-1.418.048-.337.333-.43.996-.518.187-.025.363-.05.52-.093.243-.07.39-.247.39-.472 0-.508-.847-1.073-1.316-1.25.066-.074.152-.16.223-.23.128-.13.273-.274.42-.44l.175-.202c.645-.74 2.156-2.474 3.04-3.253 1.188-1.044 1.628-1.964 1.312-2.733-.172-.42-.837-.568-1.678-.757-.446-.1-1.268-.285-1.388-.46.008-.022.038-.08.14-.173.176-.165.42-.367.68-.582.777-.645 1.3-1.095 1.453-1.465.086-.16.857-.513 2.305-.803.434-.087.676-.445.956-.86.234-.346.524-.776 1.008-1.19.796-.678 3.092-1.76 4.612-2.476.448-.21.835-.393 1.104-.528.483-.24 1.104-.756 1.824-1.352 1.096-.908 2.46-2.038 3.627-2.388 1.023-.307 2.168-1.143 3.38-2.028 1.185-.866 2.412-1.762 3.47-2.09 1.09-.336 2.627-1.598 3.983-2.712.876-.72 2.182-1.792 2.58-1.84.212.768-1.26 5.394-3.627 11.378-.212.54-.482 1.623-.824 2.996-.73 2.935-1.836 7.37-3.176 9.246-1.21 1.693-1.432 2.84-1.668 4.055-.156.805-.318 1.637-.797 2.69-1.113 2.443-2.685 4.21-3.185 4.55-.136-.27-.325-.947-.457-1.418-.374-1.34-.558-1.934-.998-1.934-.773 0-2.806 3.346-3.216 4.22-.564 1.2-5.914 6.757-7.056 7.82-.552.512-.773 1.105-.95 1.582-.237.633-.353.89-.862.906h-.002c-.103 0-.196-.31-.257-.515-.094-.313-.192-.638-.474-.763-.555-.246-2.618.613-3.985 2.435-1.098 1.464-3.013 2.75-4.065 3.39-.44.27-.325.852-.165 1.66.097.488.217 1.095.25 1.77.032.69-.11 1.563-.237 2.334-.21 1.288-.35 2.14.193 2.37 1.098.47 6.514-.18 7.294-.294.647-.095 1.24-.222 1.816-.346.89-.19 1.81-.39 2.992-.483.74-.06 1.592.05 2.345.144 1.105.14 1.713.217 1.94-.174.18-.31-.07-.643-.15-.753-.8-1.066-2.306-2.103-3.405-2.86-.573-.393-1.113-.765-1.26-.947-.072-.092-.146-.18-.22-.268-.39-.468-.7-.838-.7-1.395 0-.195.19-.566.554-.897.337-.308.71-.476 1.002-.45.908.082 1.1-.54 1.24-.993.04-.137.084-.278.143-.403.122-.254.36-.29.915-.314.157-.007.32-.014.488-.033.348-.04.552-.238.732-.413.274-.267.533-.52 1.53-.23 2.215.64 6.038 1.713 6.736 1.713.446 0 .88-.323 1.3-.636.346-.257.704-.524.987-.553h.006c.642 0 5.482 2.883 7.742 5.022 2.36 2.234 8.15 5.25 12.91 6.722 5.14 1.59 9.394 4.967 9.394 6.017-.002.12-.19.797-3.927 2.712zm-57.338-30.82c-.726.238-1.542.407-2.332.377-1.237-.048-1.94-.247-2.276-.648-.245-.292-.323-.74-.237-1.37.088-.642.375-1.086.808-1.248.123-.046.256-.07.393-.07.345 0 .713.143 1.014.406.174.152.37.318.576.492.77.652 1.807 1.53 2.055 2.06z"/>
  <path d="M72.17 163.68c-.384 0-.516-.25-.87-.36-.406-.127-2.077-1.632-1.867-2.394.098-.355.446-.647.588-.677.513-.108 1.114.206 1.402.56.714.88 1.34 1.71 1.195 2.29-.053.212-.157.58-.448.58zm-2.12-2.56c.075.378 1.165 1.48 1.477 1.607.084.032.167.072.246.11.066.032.164.08.232.1.042-.217-.318-.797-1.07-1.723-.127-.156-.31-.193-.444-.197-.205-.01-.37.06-.44.103zm-.03.022z"/>
  <path d="M46.96 155.594c.267.01.55.602 1.085.667.536.066-.248.916-.68.93s-2.406-.263-2.38-.642c.026-.378 1.608-.967 1.975-.954z"/>
  <path d="M118.4 83.96c.308.202-.343 1.072-.237 1.44.106.37.5 1.11-.29 1.215-.792.106-3.298-.528-3.035-1.082.264-.554.87-.924 1.636-1.003s1.214-1.033 1.926-.57z"/>
</svg>
