<!--
  SVG Music Logos
  Sepultura - Nation v0.1.0
  https://github.com/tiagoporto/svg-music-logos
  Copyright (c) 2016-2018 Tiago Porto (http://tiagoporto.com)
-->
<svg xmlns="http://www.w3.org/2000/svg" viewBox="0 0 200 40.5">
  <rect x="192.984" y="3.697" width=".644" height=".248"/>
  <path d="M192.588 3.944v-2.18h-.743c.1.694.1 1.437 0 2.18h.743z"/>
  <rect x="190.408" y="3.697" width=".495" height=".248"/>
  <path d="M197.096 37.978c-.347-.446-.495-.842-.495-1.238v-.347c-.34-.446-.54-1.09-.54-1.883 0-.297.05-.545.1-.644.2.198.25.347.25.347 0 .198.05.495.1.842s.1.644.1.743c0-.248-.05-.694-.1-1.24-.05-.544-.1-.89-.1-1.138 0 .198-.05.347-.1.446-.29-.694-.49-1.19-.64-1.536-1.78-11.94-3.12-21.154-3.96-27.693h-12.88l-4.46 34.232h9.22c.25-3.08.45-5.16.55-6.25h3.32v4.11c2.28 0 3.71.05 4.31.15-.99.15-2.33.2-3.96.15.05.1.05.34-.1.64-.14.34-.34.59-.59.74.3.29.55.44.79.44h9.91V38c-.29 0-.54-.05-.69-.05zm-13.128-11.394l1.635-14.515 1.238 14.51h-2.87z"/>
  <path d="M185.008 34.263c.743 0 1.387.1 1.833.248v-.79h-1.98c.4.2.65.35.84.4-.29.15-.54.2-.69.15zm1.09-.297h.446v.297h-.446v-.297z"/>
  <rect x="186.841" y="36.443" width=".297" height=".644"/>
  <path d="M165.985 21.085c.148-.148.198-.198.248-.198 1.833-.1 3.072-.94 3.666-2.526.44-.94.64-2.37.64-4.26 0-3.31-.7-5.69-2.03-7.18-1.34-1.48-3.72-2.23-7.19-2.23h-10.8v23.04c.44-.19 1.09-.29 1.93-.29.15 0 .34.01.54.02v-.21h1.98v.3h-.83c-.41-.03-.86-.07-1.15-.08v.09l1.23.01.4.04c.94.1 1.58.15 1.93.15h-6.05V39.1h8.91V23.42h1.04c.54.05.99.347 1.29.94.24.447.39.893.39 1.29v13.42h8.37V26.14c0-2.528-1.54-4.213-4.56-5.055zm-10.85 6.094h.793l.05.34c-.1-.15-.397-.3-.843-.35zm-.446 10.79l.34.34c-.15.1-.25.2-.25.34 0 .15.05.2.2.2h-4.26V35.3h4.11c0 .05-.05.198-.15.347-.1.197-.15.346-.15.494.44-.34.69-.44.69-.19l-.35.3c.44.6.79.94 1.09 1.09-.05 0-.5-.1-1.29-.29 0 0-.05.05-.1.15-.05.05-.05.2-.05.35 0 .15.05.3.15.45zm1.04-1.93c-.15.25-.25.39-.3.44.1-.25.1-.65.05-1.19 0 .2.15.35.49.35-.05.05-.15.19-.25.39zm6.34-19.62c-.2 1.09-.75 1.63-1.54 1.63h-1.09v-7.63h1.09c.79 0 1.34.49 1.53 1.58.05.34.1 1.09.1 2.13 0 1.19-.05 1.93-.1 2.28z"/>
  <path d="M146.515 6.62c.1 0 .248-.05.446-.148v-.595c-.09-.132-.3-.24-.48-.3-.1-.085-.18-.146-.21-.146l-.06.08c-.24-.05-.38-.13-.38-.22 0-.1-.1-.15-.25-.15-.2 0-.25-.1-.2-.2.03-.11.06-.2.09-.29.09-.01.17-.05.17-.05-.05-.1-.1-.15-.1-.15-.02.06-.05.13-.08.19-.02.01-.04.01-.07.01-.29 0-.39-.1-.34-.2-.05 0-.19 0-.39-.05-.25-.04-.44-.09-.54-.09.5.2.89.35 1.19.4l-.15.94c-.19 0-.39-.05-.54-.24.1-.1.15-.25.15-.44-.69.5-1.24.84-1.58 1.04-.15-.25-.25-.44-.3-.59l.3-.29c.1 0 .15 0 .3.05s.25.1.3.1c-.05-.1-.15-.15-.29-.2-.1-.05-.2-.1-.25-.15.2-.25.35-.4.45-.54-.2.2-.34.3-.49.3-.15-.25-.29-.35-.34-.39-.1-.05-.2-.05-.35 0-.2 0-.3.05-.4.05 0 .54-.25.84-.74.89.1-.15.15-.25.25-.3-.05-.1-.15-.19-.34-.39-.2-.15-.3-.2-.4-.2.1.4.1.65-.1.85l-.25-.25c.1-.15.15-.35.15-.6 0 0-.1 0-.29.05-.15.05-.25.05-.29 0 .25.35.4.6.45.7-.05.05-.2.1-.39.1l-.35-.34c-.1-.1-.1-.3 0-.49h-.64c.15.1.25.25.35.5.1.2.25.35.35.45-.25.15-.39.3-.39.54 0 .05.05.2.1.45.026.11.034.19.03.27-.055.03-.09.09-.03.18.02-.04.04-.11.05-.18.025-.01.047-.02.1-.02.1.05.15.1.247.2.1.1.2.15.25.2-.45.2-.8.35-1.04.45.194-.1.34-.1.54-.05s.35.1.397.1c.148 0 .198-.05.148-.2-.05-.1 0-.15.1-.15.15 0 .25.15.25.45.3-.79.5-1.39.55-1.88-.2.1-.3 0-.3-.343.3 0 .54.15.74.35 0 .05-.05.15-.1.35 0 .2-.05.3-.05.35.2-.19.3-.15.3.1-.2.2-.39.2-.64-.05.25.25.49.4.64.45-.19.35-.34.59-.44.74-.1-.15-.2-.25-.2-.35.05.1.05.2.05.3 0 .05-.05.15-.2.2-.142.1-.242.2-.29.4-.43-.43-.74-.59-.95-.49.08-.01.18.06.36.24-.1.044-.245.044-.54.044-.3 0-.4.15-.25.35l-.6-.59c.05-.1.15-.1.25-.1.2.05.35.1.45.1-.4-.15-.698-.3-.89-.395.192-.45.44-.74.69-.84-.1 0-.2-.05-.3-.15-.15-.1-.2-.2-.15-.3v-.1l.393.3c-.05-.45.05-.79.25-.94-.15 0-.296.05-.494.2-.25.15-.392.25-.49.25V9.8c-.02.01-.04.022-.05.022v21.8c-.05 1.09-.497 1.635-1.39 1.635-.74 0-1.19-.49-1.24-1.432V9.4l-.08-.084-.17.137c-.64.05-1.24.15-1.83.197-.74 0-1.34-.098-1.83-.296 1.34-.25 2.43-.297 3.22-.15 0-.1.05-.25.15-.346l.46.46.08-.064V5.48s-.05 0-.1.1c0 .048-.1.048-.29.048-.2 0-.45-.148-.75-.446.1-.347.15-.545.15-.644 0-.1-.05-.15-.25-.15s-.35.05-.45.15c.3 0 .445.05.544.148-.15.1-.25.15-.35.15.1.197.2.445.35.692-.144 0-.194.05-.244.1 0 .05.1.098.3.247.15.1.25.198.29.248-.15 0-.3 0-.45-.1-.2-.048-.35-.098-.495-.098h-.2c-.19-.495-.29-.842-.29-.99.2.098.3.197.398.247-.2-.1-.25-.347-.2-.793 0 .05-.2.05-.6.05-.15 0-.2.04-.15.09 0 .05-.05.1-.2.1-.1 0-.2-.1-.15-.2.05-.1-.05-.15-.15-.15H127V29.7c0 3.023 1 5.35 2.98 6.986 1.83 1.436 4.26 2.18 7.33 2.18 2.53 0 4.71-.596 6.49-1.834 2.18-1.437 3.27-3.567 3.27-6.44v-20.31c-.05 0-.1 0-.15.05-.05.098-.15.098-.346.098-.15 0-.25-.05-.3-.148-.05-.15-.15-.198-.3-.198h-6.19c-.15 0-.15-.05-.05-.15.05-.147.05-.197-.1-.197h-.54c-.16 0-.33-.01-.49-.013l.05-.036c1.14-.15 3.62-.05 7.38.2.05-.05.1-.15.15-.25.05-.1.1-.147.15-.247 0 .05.05.15.05.3s.1.25.29.25c.25 0 .398-.1.398-.25V8.41s-.1 0-.29.05c-.2.1-.3.1-.35 0 .248-.198.495-.396.64-.495V6.87c-.2 0-.4.1-.593.296-.2-.248-.4-.495-.55-.644 0 0 .05.1.15.2.05.147.1.247.05.296 0 .248-.1.347-.29.347 0-.05-.05-.198-.15-.545-.05-.198-.15-.347-.3-.446l.3-.248c.05 0 .15 0 .25.1.1.05.2.05.25.05 0-.338.05-.58.15-.743.02 0 .032-.002.043 0 .08.014.15.04.22.065.05.04.12.088.175.133-.15.6-.2.9-.15.9zm-6.886-.644v-.248l.64.198-.05.297-.6-.247zm.54.693l-.25-.2.15-.2.25.25-.15.15zm.15-.9h-.3v-.49h.29v.49zm-7.19 1.88h-.3v-.64h.29v.64zm1.14.89l-.2-.1.2-.45.24.1-.25.44zm.79-2.73c.14.79.24 1.48.24 1.98-.05 0-.15.09-.25.19s-.2.15-.25.15c.2-.6.25-1.39.25-2.33zm-.75 1.04l.25.79h-.35l-.2-.8h.29zM133.72 8l.25.25-.15.15-.25-.25.15-.148zm-.69-3.07v1.24c-.05-.546-.2-.843-.445-.94.2-.2.348-.3.447-.3zm.546 1.24c-.2.197-.4.346-.498.395.2.197.3.296.3.395h-.79c.15-.245.5-.543.99-.79zm-1.687-1.19c0 .05.1.1.15.2-.02.01-.04.055-.05.082.12.333.2.604.2.758-.2-.1-.35-.196-.4-.295.07-.228.14-.372.2-.46-.04-.097-.06-.173-.11-.283zm-.05 1.19h.25l-.2.692-.2-.1.14-.593zm1.38 3.962h-1.49V9.84h1.48v.297zm2.23.198h-.79v-.295h.79v.297zm9.86.2h.39v.297h-.4v-.298zm-.45-.15l.24.3-.15.1-.25-.2.15-.198zm-6.56-.643h.12l-.16.15.03-.15zm2.89.594h1.78v.35h-1.78v-.34zm-1.04 0h.59v.35h-.6v-.34zm-.25-.14v.3h-1.49v-.29h1.48zm.84-1.58h-.45v-.3h.44v.3zM142 5.58l.2.097-.055.135-.045.01-.01.126-.09.22-.196-.15.197-.447zm-.346 2.23c.148-.2.198-.35.198-.448.198.15.297.344.297.64-.2-.1-.4-.197-.5-.197zm.743-1.34h-.296v-.52l.06-.125h.24v.645zm1.487 1.932c-.15.1-.248.1-.298.1v-.79s.05.1.197.294c.1.198.198.297.347.297-.05 0-.147.05-.247.1zm.277-2.22c-.02.034-.07.15-.18.384.1.297.2.396.2.396.05 0 .05.09.05.25v.05c-.05.2-.1.4-.19.55-.1 0-.1-.1.05-.2.05-.05 0-.1-.29-.1-.39 0-.59.25-.59.695.1.1.15.25.15.3-.29-.145-.49-.294-.64-.393.05-.05.15-.2.3-.347.2-.15.25-.3.25-.45-.15.1-.25.15-.39.15l.45-.446c.4.25.69.35.94.2v-.01c-.1-.15-.35-.19-.79-.19-.15 0-.3-.05-.4-.15-.1-.05-.14-.1-.19-.1.2-.2.4-.25.6-.1.35-.59.64-.94.79-1.04-.24.25-.39.5-.49.6.05.1.23.1.42-.03zm.17.19l.4-.6.25.1-.39.644-.24-.148zm.7 2.473c-.2-.25-.3-.448-.39-.597v-.54c0 .1.1.195.2.344.1-.14.15-.29.15-.54.25.5.25.94.05 1.34zm.79-.795c.05 0 .1-.1.05-.25-.05-.1-.05-.25 0-.3l.6.593c-.25.25-.59.35-1.04.35.05-.196.2-.344.4-.394zm-.34-.69l-.15.2-.44-.45.15-.15.45.4zm-.44-.85l-.15-.2.45-.396.15.2-.44.395z"/>
  <path d="M146.614 4.786c.148-.05.248-.1.297-.1-.19 0-.29-.147-.29-.395-.25 0-.25.1.05.4-.2.15-.3.2-.35.2.05 0 .15-.05.3-.1z"/>
  <polygon points="144.435,4.935 143.84,4.539 143.692,4.786 144.286,5.183"/>
  <path d="M138.836 4.44c-.182.182-.337.282-.426.284.152.11.367.162.674.162-.15-.2-.198-.347-.248-.446z"/>
  <path d="M135.27 4.985c.198.1.347.15.396.1-.297-.25-.495-.397-.595-.546.25.19.15.34-.19.34.05 0 .15.05.4.1z"/>
  <path d="M103.812 4.34v7.036h5.45V38.87h8.916V11.276h5.35V4.34h-19.716zm9.264 5.55l.446-.2.05.25-.496.197V9.89zm-.68-.862l-.113.02-.015.267-.035.08-.248-.1.198-.446.248.09-.03.08zm-.708-.575h.644v.297h-.644v-.297zm-.89-.347h.494v.347h-.495v-.347zm-.844-.694l.793.198v.297l-.793-.198v-.3zm0 .694h.446v.347h-.446v-.347zm-1.684-.942h1.486c-.1.198-.347.347-.743.446-.198.05-.693.1-1.486.198.347-.248.694-.347.99-.396-.05-.15-.148-.198-.247-.248zm1.486.942v.347h-.644v-.347h.644zm-1.188.99V8.8l2.03.197v.297l-2.03-.197zm2.823.99c.2 0 .3 0 .3-.05.05-.098.1-.098.15-.098 0 .05-.05.15-.2.347-.15.198-.19.347-.19.495 0-.1-.1-.248-.19-.347-.15.148-.1.297.1.495-.1 0-.2 0-.44.1-.25.048-.39.098-.44.098 0-.1.05-.198.15-.297.1-.1.2-.15.25-.05.16-.28.27-.57.35-.86 0-.02-.01-.02 0-.04 0-.1 0-.2-.05-.2.03-.05.08-.08.14-.08.07-.36.11-.72.11-1.11.05.05.1.25.1.49.05.29.15.49.35.69 0 0-.1-.05-.35-.05-.07-.03-.14-.04-.21-.03-.02.1-.05.2-.08.31-.01.11.06.16.19.16zm.5.992c.15-.198.2-.347.2-.446.15.148.2.396.2.644-.2-.1-.29-.198-.39-.198zm.75-1.387h-.34v-.38l.15-.26h.21v.65zm.4 1.84l-.15-.2.6-.59.15.2-.59.6zm.2-.69l-.19-.15.45-.44.15.15-.39.45zm.2-1.58l-.25-.15.25-.39.2.05-.19.5zm4.46 20.56c-.3-.44-.45-.99-.45-1.58 0-.49.15-.89.45-1.19v2.78z"/>
  <path d="M105.05 31.934c-.248-.05-.396-.1-.396-.1-.198.793-.347 1.388-.396 1.834.347-.05.595.05.842.347.248.248.347.545.347.842 0 .297-.15.644-.446.94-.34-.247-.64-.247-.99 0-.19-.296-.29-.643-.29-1.138 0-.3 0-.65.1-1.14.05-.45.1-.75.15-.9-.19-.2-.24-.4-.14-.5l.2-.25c-1.98 0-3.17.05-3.46.1-.15-.05-.39-.2-.84-.4-.29-.2-.54-.3-.74-.3-.15 0-.25.05-.29.2-.05.09-.15.14-.3.14-.54 0-.84-.4-.84-1.24 0-.55.3-.85.94-.85.45 0 .65.2.6.54l-.25.29c-.25-.15-.39-.25-.54-.35l.45.44c-.1.09-.29.19-.59.19.05 0 .2 0 .35.1.2.1.34.15.39.15.15-.54.55-1.04 1.24-1.44V4.63H91.5V29.4c.05 0 .15-.05.2-.1.1-.04.25-.09.395-.09.1 0 .25.1.448.3 0 .62-.04 1-.043 1.16.02-.02.052-.03.1-.03.1-.05.1.05.1.2 0 .1-.1.3-.3.49-.444-.05-.79 0-1.09.15v1.69c.497 0 .844.05 1.09.15v.545c.3-.446.497-.694.696-.694.1.4.2.7.2.85h1.63c-.05-.15-.1-.24-.1-.34 0-.15.1-.3.25-.45l.344-.35c.25.59.447 1.09.496 1.34.05-.1.05-.35.1-.79.048-.45.147-.75.247-.9.445.15.594.49.445.99.1-.1.25-.15.398-.15.45 0 .65.24.65.69.2-.35.447-.49.843-.49.05 0 .34.19.94.64.05 0 .15.05.39.1.2.05.29.05.34.05 0-.05 0-.15-.05-.35-.1-.15-.1-.3-.05-.35.54-.65.89-.99.99-.99.15 0 .29.1.54.24v2.33c-.25-.1-.45-.3-.7-.5.1.2-.05.5-.35.84-.2 0-.4-.1-.55-.24.25-.25.25-.49-.05-.79-.05 0-.15.05-.35.1-.15.05-.25.05-.3.05-.25.5-.5.75-.84.75-.2 0-.4-.15-.6-.35l-.4.35c-.45-.15-1.19-.2-2.18-.2-.15 0-.3-.15-.45-.49-.2-.34-.45-.54-.79-.54-.3 0-.45.05-.45.1s0 .1.05.2c.05.15.1.25.1.35 0 .3-.2.59-.55.94l-.3-.3c.2-.54.3-.94.3-1.29-.15.2-.4.45-.69.79-.3.34-.55.59-.7.79-.3-.2-.45-.29-.6-.34v1.49c.46.25.73.39.82.46-.22-.38-.22-.76-.03-1.09h.45c.1.1.15.49.15 1.19.39-.35.79-.55 1.24-.5.05.05.15.15.2.3.1.15.2.25.25.3-.4.39-.55.59-.35.59.1 0 .15.15.24.5h.94c0-.15-.05-.35-.1-.6-.1-.2-.1-.39-.1-.49 0-.25.1-.49.34-.79.35 0 .5.1.5.25 0-.1.05-.2.15-.25v1.74c.05-.4.1-.74.15-1.14.05-.45.3-.74.69-.94.1.1.15.4.15.89l.89-.2c0 .55.05.84.25.94-.2-.44-.15-.74.15-.94.05.05.15.15.34.2.19.05.29.1.34.15-.4-.3-.74-.5-.99-.59.2-.195.29-.344.29-.443.74.496 1.28.84 1.58 1.04.05-.05.15-.2.3-.45.05-.15.2-.25.35-.25.1 0 .15.05.05.2-.05.1-.05.15.1.15.14 0 .29-.05.39-.25l.29-.44.3.294v1.93h3.91V32c-.14.005-.29.005-.54-.045zm-10.453 1.834l-.248-.248.14-.198.29.248-.2.198zm1.486-2.13c-.446 0-.743-.298-1.04-.893-.248.495-.495.743-.842.743-.14 0-.24-.05-.39-.1-.15-.098-.29-.098-.39-.098v-2.03c.8.05 1.39.297 1.74.792.2-.248.5-.446.94-.644.4.198.6.545.6 1.09 0 .792-.2 1.14-.6 1.14zm8.818 4.755h-.99v-.297h.99v.297z"/>
  <polygon points="100.542,37.384 100.79,37.83 101.037,37.83 100.839,37.335"/>
  <polygon points="99.7,38.276 99.898,38.375 100.195,37.929 99.898,37.83"/>
  <polygon points="96.777,34.461 96.579,35.006 96.826,35.105 97.025,34.461"/>
  <polygon points="96.926,38.672 97.223,38.672 97.421,37.879 97.124,37.879"/>
  <rect x="91.625" y="34.263" width=".297" height=".793"/>
  <polygon points="91.625,38.672 91.823,38.721 92.021,38.028 91.823,38.028"/>
  <polygon points="94.003,30.894 94.25,30.993 94.498,30.3 94.201,30.3"/>
  <rect x="99.898" y="30.052" width=".446" height="1.189"/>
  <polygon points="91.625,30.25 92.071,30.25 92.071,31.142 91.625,31.29 91.625,30.25"/>
  <path d="M88.652 6.47v-.593c-.14-.14-.297-.22-.476-.277-.107-.084-.237-.17-.267-.17-.02.015-.04.05-.06.075-.24-.053-.39-.137-.39-.223 0-.1-.05-.148-.25-.148-.15 0-.2-.1-.15-.198 0-.11.02-.2.04-.29.08-.017.16-.057.16-.057-.05-.1-.1-.15-.1-.15-.02.05-.05.12-.07.18-.03 0-.05.01-.08.01-.25 0-.4-.1-.35-.2-.05 0-.15 0-.4-.05-.2-.05-.4-.1-.55-.1.49.2.89.35 1.19.39l-.1.94c-.2 0-.4-.05-.6-.25.15-.1.2-.25.15-.45-.69.49-1.24.84-1.59 1.04-.15-.25-.25-.45-.25-.6l.29-.3c.05 0 .15 0 .25.05.15.05.25.1.29.1-.05-.1-.15-.15-.25-.2-.1-.05-.2-.1-.25-.15.2-.25.35-.4.4-.55-.15.2-.3.3-.45.3-.2-.25-.3-.35-.39-.4-.1-.05-.2-.05-.35 0-.15 0-.3.05-.4.05 0 .54-.25.84-.69.89.05-.15.15-.25.2-.3-.05-.1-.15-.2-.35-.4-.15-.15-.3-.2-.4-.2.14.39.09.64-.05.84l-.3-.25c.1-.15.15-.35.15-.6 0 0-.1 0-.25.05s-.25.05-.3 0c.24.35.39.6.39.7-.05.05-.15.1-.35.1l-.35-.35c-.1-.1-.1-.3 0-.5h-.65c.1.1.2.25.35.49.1.2.2.35.29.45-.25.15-.35.3-.35.55 0 .05 0 .2.05.45.02.09.03.18.04.25-.07.04-.1.1-.04.19.02-.04.05-.12.06-.18.03-.01.08-.02.14-.02.05.05.15.1.25.2l.19.2c-.45.2-.79.35-.99.44.15-.1.34-.1.49-.05.25.05.4.1.45.1.15 0 .15-.05.1-.2-.05-.1 0-.15.15-.15s.2.14.2.44c.34-.79.49-1.39.54-1.88-.2.1-.3 0-.3-.35.29 0 .54.14.74.34 0 .05 0 .15-.05.34-.05.2-.1.29-.1.34.25-.19.35-.15.35.1-.15.15-.32.19-.48.1.17.15.33.26.48.3-.2.34-.35.59-.45.74-.15-.15-.2-.25-.2-.35v.3c0 .05-.05.15-.19.2-.15.1-.25.2-.3.4-.43-.43-.74-.59-.95-.49.09-.01.21.06.35.24-.05.04-.24.04-.54.04-.3 0-.4.15-.25.35l-.59-.59c.05-.1.15-.1.25-.1.2.05.35.1.45.1-.4-.15-.7-.3-.84-.4.19-.45.39-.75.69-.85-.1 0-.2-.05-.35-.15-.1-.098-.15-.197-.15-.296v-.1l.44.3c-.05-.45 0-.795.2-.94-.1 0-.3.05-.5.194s-.4.25-.5.25V9.7H80l-.17.15V9.7h-.05v21.86c0 1.09-.45 1.638-1.34 1.638-.794 0-1.19-.493-1.24-1.435V9.395c-.02 0-.06-.03-.11-.075l-.19.12c-.597.05-1.24.15-1.835.2-.74 0-1.336-.09-1.78-.29 1.29-.25 2.38-.3 3.22-.15 0-.1.05-.25.1-.347.23.228.384.384.484.47l.11-.074V5.48c-.05 0-.1 0-.1.1-.05.048-.15.048-.3.048-.25 0-.5-.148-.8-.446.1-.347.19-.545.19-.644 0-.1-.1-.15-.296-.15s-.29.05-.39.15c.25 0 .396.05.495.148-.1.1-.2.15-.35.15.15.197.25.445.35.692-.1 0-.2.05-.2.1s.1.098.25.247c.2.1.296.198.296.248-.1 0-.25 0-.45-.1-.2-.048-.348-.098-.496-.098h-.15c-.2-.495-.3-.842-.3-.99.15.098.298.197.348.247-.2-.1-.25-.347-.15-.793-.05.05-.25.05-.6.05-.146 0-.196.04-.196.09.05.05 0 .1-.15.1-.145 0-.195-.1-.195-.2.05-.1 0-.15-.15-.15h-5.4V29.7c0 3.023.99 5.35 2.97 6.986 1.78 1.436 4.21 2.18 7.33 2.18 2.53 0 4.66-.596 6.44-1.834 2.23-1.437 3.32-3.567 3.32-6.44v-20.31c-.05 0-.1 0-.2.05-.05.098-.15.098-.345.098-.1 0-.2-.05-.3-.148-.05-.15-.15-.198-.3-.198h-6.1c-.15 0-.2-.05-.1-.15.1-.148.05-.198-.1-.198h-.54c-.14 0-.29-.017-.47-.02l.02-.03c1.14-.15 3.62-.05 7.38.198.05-.05.1-.15.15-.248.05-.1.1-.148.15-.248.05.05.05.148.1.297 0 .147.1.247.247.247.25 0 .4-.1.4-.248V8.402s-.1 0-.297.05c-.2.1-.293.1-.343 0 .296-.198.494-.396.693-.495v-1.09c-.2 0-.398.1-.597.297-.247-.248-.445-.495-.594-.644 0 0 .05.1.15.2.1.147.1.247.05.296.05.248-.05.347-.242.347 0-.05-.05-.198-.19-.545-.05-.198-.15-.347-.3-.446l.3-.248c.05 0 .15 0 .25.1.15.05.25.05.3.05-.04-.34 0-.586.11-.748.03 0 .07 0 .09.004.06.01.14.052.21.078.04.035.08.066.14.12l-.15.892c.1 0 .25-.05.494-.15zm-7.332-.494v-.248l.644.198-.1.297-.544-.247zm.496.693l-.248-.2.198-.2.248.25-.198.15zm.198-.9h-.297v-.49h.297v.49zM74.78 7.66h-.296v-.644h.297v.644zm1.933-1.833c.15.793.248 1.486.248 1.982-.05 0-.09.09-.24.19-.1.1-.2.15-.25.15.2-.6.3-1.39.25-2.33zm-.694 1.04l.19.793h-.3l-.2-.793h.3zm-.05 1.14l.19.1-.2.445-.25-.1.25-.445zm-.3.247l-.2.15-.25-.25.15-.147.3.247zm-.94-3.32v1.24c-.1-.546-.25-.843-.5-.942.24-.198.39-.297.49-.297zm.54 1.24c-.25.198-.4.346-.55.396.25.198.34.297.34.396h-.85c.15-.247.49-.545 1.04-.792zm-1.74-1.19l.2.2c-.02.018-.05.077-.08.136.1.306.18.56.18.706-.2-.1-.3-.198-.35-.297.06-.19.12-.32.17-.41-.04-.11-.07-.21-.12-.34zm-.05 1.19h.3l-.25.693-.2-.1.15-.593zm1.39 3.963h-1.44V9.84h1.43v.297zm2.23.198h-.75v-.297h.74v.297zm9.85.198h.44v.297h-.45v-.297zm-.45-.148l.3.297-.2.1-.25-.2.15-.197zm-3.67-.05h1.78v.347h-1.78v-.347zm-1.04 0h.59v.347h-.59v-.347zm-.25-.148v.297h-1.43v-.297h1.44zM82.4 8.6h-.394v-.296h.396V8.6zm1.24-3.02l.25.098-.068.135-.08.014-.017.182-.084.16-.2-.15.2-.45zm-.3 2.23c.1-.2.2-.348.2-.447.15.15.25.347.25.644-.2-.1-.35-.198-.447-.198zm.697-1.34h-.295v-.466l.1-.177h.196v.644zm1.488 1.933c-.09.1-.19.1-.29.1V7.71s.1.1.2.297c.1.198.25.297.4.297-.05 0-.15.05-.3.1zm.31-2.215c-.04.043-.11.156-.21.382.15.297.2.396.25.396v.298c0 .197-.1.395-.2.544-.1 0-.05-.1.05-.198.1-.05 0-.1-.24-.1-.394 0-.593.25-.593.694.05.1.1.248.1.297-.25-.14-.496-.29-.645-.39l.346-.34c.15-.15.25-.29.25-.44-.15.1-.3.15-.4.15l.397-.44c.398.25.745.35.94.2-.096-.15-.344-.2-.74-.2-.2 0-.297-.05-.396-.15-.1-.04-.2-.09-.2-.09.198-.2.396-.25.595-.1.1-.17.19-.31.27-.44h-.02l.1-.12c.16-.25.29-.41.39-.47l-.39.47c-.03.04-.06.08-.09.13.09.08.23.07.44-.04zm.14.184l.45-.595.2.1-.394.643-.25-.148zm.7 2.477c-.15-.25-.295-.45-.394-.6v-.54c.05.1.1.19.25.34.05-.15.1-.3.1-.55.25.49.3.94.05 1.33zm.794-.8c.1 0 .1-.1.05-.25-.05-.1-.05-.25 0-.3l.59.59c-.25.25-.6.34-.99.34.05-.2.14-.35.34-.4zm-.3-.7l-.2.2-.45-.45.2-.15.44.4zm-.45-.85l-.2-.2.44-.4.2.19-.45.39z"/>
  <polygon points="86.126,4.935 85.531,4.539 85.333,4.786 85.927,5.183"/>
  <path d="M76.91 4.985c.25.1.348.15.397.1-.297-.25-.495-.397-.595-.546.248.19.198.34-.148.34 0 0 .15.05.347.1z"/>
  <path d="M88.256 4.786c.148-.05.248-.1.297-.1-.198 0-.297-.147-.297-.395-.248 0-.198.1.05.4-.198.15-.297.2-.347.2.04 0 .14-.05.29-.1z"/>
  <path d="M80.478 4.44c-.248.248-.396.347-.495.248.148.15.396.198.793.198-.15-.2-.248-.347-.298-.446z"/>
  <polygon points="65.17,15.785 65.368,16.181 65.616,16.181 65.418,15.685"/>
  <path d="M65.07 18.46l.447-.396c0-.1-.05-.248-.248-.446-.05.247-.1.544-.2.842z"/>
  <polygon points="62.545,22.522 62.743,23.116 62.99,23.116 62.792,22.423"/>
  <path d="M62.1 23.765v.292c-.066-.096-.05-.193 0-.29v-.007.005c.026-.05.047-.102.098-.153-.446.396-.446.595 0 .595.05 0 .05-.05 0-.198-.05-.1-.096-.2-.098-.25z"/>
  <polygon points="61.851,20.838 62.049,21.234 62.347,21.234 62.099,20.739"/>
  <polygon points="62.891,22.026 63.288,22.968 63.535,22.968 63.139,21.927"/>
  <polygon points="61.703,13.902 61.95,14.15 62.148,14.001 61.901,13.753"/>
  <path d="M64.675 19.153l.347-.396c-.1-.396-.297-.644-.495-.793v-.94c.198-.2.347-.348.396-.447.148.1.198.248.198.446 0-.198.1-.347.3-.545-.1-.05-.29-.1-.54-.1-.15 0-.2-.098-.2-.395 0-.198.15-.396.4-.694l.18-.26c.01 0 .02 0 .03.01.15-.15.2-.25.2-.4-.03.08-.13.21-.22.34-.04-.07-.07-.18-.07-.3-.05-.15-.1-.25-.14-.3.1-.15.3-.2.5-.2-.34 0-.49-.1-.49-.3.2-.25.35-.45.45-.55v.59l.05-.79c-.1 0-.2-.05-.3-.15.25-.3.25-.45 0-.45-.14 0-.19-.05-.19-.2.1-.1.3-.15.5-.15-.2-.4-.25-1.19-.15-2.38-.49.1-.74-.05-.74-.45 0-.15.05-.35.1-.6s.1-.4.1-.45c.05-1.09-.84-2.03-2.62-2.83-1.58-.75-3.02-1.09-4.36-1.09H46.5v34.33h8.917V24.9h2.626c1.09 0 1.93-.148 2.473-.545 0-.198-.05-1.387-.05-3.616.298.14.595.19.942.09-.1-.2.05-.4.347-.6.198-.05.396-.15.595-.25.05-.3.05-.5 0-.65.292 0 .49-.05.64-.2v-.6c-.198-.5-.248-.94-.248-1.49.05 0 .1.05.15.2.05.1.15.15.35.15.1 0 .296-.1.494-.35l.248.25c-.148.25-.197.35-.247.44-.198-.2-.495-.2-.743.1v.54c0 .29.05.44.248.44.1 0 .25-.05.397-.15.05 0 .15 0 .19.15-.05.05-.25.25-.6.54-.3.3-.5.49-.55.64 0-.1.15-.1.39 0l.15-.15c0-.05.05-.05.05 0v.25c0 .15-.05.3-.25.4-.15.1-.35.2-.5.3-.05.44-.1.74-.05.99.05.3 0 .45-.1.49.34-.34.54-.59.64-.74.1.1.25.2.39.2 0-.3.05-.45.15-.55.19.44.34.79.34.89 0-.45.05-.75.19-.9.05 0 .15.05.3.1.1 0 .19.05.24.05-.1-.1-.1-.2-.1-.35 0-.2.1-.45.29-.75-.3-.45-.55-.84-.75-1.09-.25.15-.4.15-.5.05l.44-.4c.59.59 1.04 1.09 1.28 1.33v-.84c-.44 0-.69-.05-.69-.2zm-.94-.693h-.298v-.644h.297v.644zm.346 2.18c-.34 0-.49.148-.49.445v-.89c.25.296.4.444.5.444zm.26-10.54c.06.14.2.236.34.236.2 0 .3-.05.4-.1.05-.048.1-.048.15-.048v.99c-.37-.168-.67-.526-.88-1.078 0-.005-.01-.007-.01-.012-.05-.15-.1-.248-.1-.297.03.12.07.21.11.31zm.44 1.72v.496c0-.198-.15-.347-.44-.347.3 0 .45-.05.45-.15zm-.99.25c0 .296.1.445.3.445-.24 0-.34.1-.34.347 0-.496 0-.744.05-.793zm.3.693c.25.148.4.297.5.347.1-.1.15-.248.15-.545.2.148.35.248.5.248-.19.393-.3.69-.35.895.04.062.03.147-.04.245 0-.05.02-.14.05-.245-.04-.064-.14-.102-.29-.102-.15 0-.25-.05-.3-.15-.1-.147-.15-.247-.2-.346-.15.1-.29.1-.44.1l.45-.447zm-2.77-.694c-.34.19-.64.29-.89.29 0-.89.05-1.54.15-1.84.4 0 .5.1.35.25-.05.05-.05.15.1.2.05-.05.25 0 .55.05.3.09.55.14.65.14.15 0 .25 0 .3-.05 0-.05.05-.05.15-.05-.1.05-.25.15-.45.35-.19.2-.39.29-.54.29-.14 0-.24-.05-.29-.15-.05-.15-.1-.15-.15-.1.45.45.7.64.7.64l-.59.64s0-.1.05-.35c.05-.15.05-.3-.05-.35zm-.34.44l-.25.39-.24-.05.25-.5.25.15zm1.29-4.06c0 .29-.2.24-.54-.1l.5-.5c.05 0 .05.1.05.24-.05.19-.05.29 0 .34zm-.79 1.78v.49c0-.2-.14-.3-.39-.3.25 0 .4-.1.4-.2zm-.39-1.29h.65c0 .44.15.74.35.99-.64-.35-.99-.65-.99-.99zm.99 3.96c.15-.15.3-.2.4-.05l-.44.39c-.24-.25-.34-.5-.34-.7l.4.34zm.32-.51c.04-.1.11-.45.18-1.08 0 .05.07.1.15.14l.01.05h.16c.04.01.07.03.1.04.25.1.35.24.35.39 0 .14-.05.29-.15.39-.15.1-.19.15-.19.2-.05 0-.15-.05-.3-.15-.14-.09-.23-.09-.28-.01zm.33-1.53H63v.64l-.16-.04c-.045-.02-.074-.03-.104-.05l-.033-.56zm.5-.41v.05l-.11-.04c-.51.07-.97.15-1.32.18 0-.35.15-.55.35-.55 0 0 .32.13.98.35l.11-.02v-.49c.1.2.2.35.3.45-.11.01-.19.03-.3.04zm-.4-4.01h.5v.29h-.5v-.29zm.5 3.07c-.54.2-.99.2-1.34.05.15-.2.2-.35.2-.5.05.15.1.24.2.34.3 0 .3-.1.1-.3.05 0 .15.1.35.19.2.15.4.2.5.2zm-.84-3.02c.15 0 .25.05.25.15 0 .14.05.19.05.19-.15.19-.2.39-.2.49-.24-.35-.44-.64-.59-.84h.5zM60.4 7.63c.1-.05.147-.25.147-.596.05-.248.15-.396.25-.396s.1.046.05.145c-.05.15-.1.2-.1.25.2.195.398.294.597.294v-.69c.27.306.51.52.738.7.002 0 .003-.003.006-.01l.297.25c-.095-.06-.2-.15-.306-.24-.14.1-.19.296-.19.49-.05-.05-.1-.15-.1-.347 0-.145 0-.244-.05-.343l-.6.596c-.2.15-.3.348-.3.546 0 .15.1.34.25.59-.35 0-.5-.1-.5-.25 0-.05.05-.1.15-.15-.15-.1-.25-.15-.35-.15.14-.25.29-.4.34-.55-.15-.1-.25-.15-.35-.15zm-.05 2.03h.296v.644h-.295v-.64zm.445 6.34l.15.15-.45.446-.15-.2.45-.4zm.2-1.237c.247 0 .346-.05.346-.25 0 .1.05.25.15.445.1.25.1.4.05.547-.19-.2-.29-.4-.39-.498-.25.2-.49.2-.69-.1v-.99c.3.2.55.345.7.444-.05-.05-.1-.05-.15.1-.05.1-.15.2-.25.25-.09.05 0 .05.25.05zm-.25 3.02h.25l-.45 1.04-.194-.1.4-.94zm-2.64-3.16c0 3.02-.495 4.507-1.486 4.507h-1.24v-9.01h1.04c.94 0 1.48.745 1.68 2.13v2.38zm2.477 5.944l-.25-.25.15-.145.296.24-.195.15zm-.2-.94c.3-.3.446-.398.495-.398-.05.05-.05.15 0 .3.1.19.15.29.15.34-.15-.15-.35-.25-.644-.25zm1.486.1c-.145.05-.195.15-.195.196 0-.147-.05-.296-.15-.395-.15 0-.2.05-.2.15v-.844c0 .1.1.2.14.35.196-.25.345-.39.394-.54.2.5.3.89.35 1.14-.1-.1-.2-.1-.348-.05zm.4-1.14c0-.02-.015-.058-.03-.1-.03-.046-.08-.11-.17-.2-.25.25-.395.4-.494.4-.05 0-.1-.05-.15-.15-.1-.1-.2-.15-.345-.15.05-.05.29-.1.69-.1 0-.05-.1-.15-.2-.298.29 0 .49-.05.49-.15 0 .05 0 .2.1.39.03.12.06.19.08.25.04.06.05.1.03.1zm-.05-.497v-.99h.295v.99h-.3zm.642.45l-.198.144-.25-.25.19-.2.25.3zm-1.14-1.49h-.247c-.05.05-.05.25 0 .544.15-.15.2-.25.2-.35.05.29.15.39.25.39-.097.05-.246.15-.444.3-.05-.1-.15-.35-.35-.897-.3.35-.45.545-.45.694-.05-.05-.1-.14-.15-.29-.05-.2-.1-.3-.15-.35.14 0 .44-.1.84-.29-.1-.1-.25-.1-.35-.1.05-.05.05-.15.1-.29.05-.15.15-.2.35-.2.14 0 .24-.1.24-.34.05-.19.05-.29.1-.34.14.2.39.25.64.25-.15-.05-.4 0-.75.2.29.15.54.35.69.6 0 0 .1-.05.2-.15.1-.1.25-.15.34-.15l-.15-1.98c-.1-.05-.35.2-.89.69 0-.19.05-.29.2-.44-.5-.44-.74-.69-.84-.69.2 0 .35-.04.45-.14-.3-.2-.6-.25-.9-.25-.05 0-.05.1-.1.3 0 .1-.05.1-.2 0 0-.15.24-.44.79-.99.15.2.1.35-.1.45l.3.25c-.05-.15.05-.2.29-.2.15 0 .2.05.2.2.05.1.1.15.25.15.2 0 .5-.1.94-.35 0 .3.05.45.2.45-.39 0-.74.05-.94.2.05.05.25.1.64.1 0 .35.1.59.34.69v.5l.1-.25.44.2-.1.3-.44-.25-.01.93c-.02 0-.03.01-.04.01.02 0 .03.01.04.02l.01.77c-.35-.09-.85-.04-1.59.15zm.2-1.93l.147-.15.295.25-.25.195-.2-.296zm1.633 1.434c0-.26-.1-.4-.25-.44v-.02c.057-.02.13-.06.2-.09.15-.1.25-.15.3-.15 0 .3.1.44.296.44-.2 0-.4.05-.55.247zm.3 1.78c.2-.05.348-.15.447-.25.146.25.246.39.246.49-.3 0-.547-.05-.695-.25z"/>
  <path d="M43.62 37.434v-3.37h-7.282V26.04h6.143v-7.184h-6.14V11.92h6.54V4.49H26.73v33.835c0 .198.098.347.247.396.148.05.247.1.247.1.05-.1.198-.24.446-.39.297-.15.446-.25.495-.34.198.2.248.4.1.55.148-.1.693-.1 1.634-.1.19 0 .34-.1.34-.29.05-.15.1-.25.1-.25.1.05.19.3.19.7.2 0 .39-.05.69-.15.25-.1.44-.19.59-.19.1 0 .2.05.25.1 0 .05.05.15.05.25-.05.1-.05.2-.05.25.05-.14.1-.24.2-.34.05-.15.19-.2.39-.2.15 0 .2.1.25.2.05.15.15.2.3.2.79 0 1.83-.15 3.12-.44 0 .1.1.15.25.15.09.05.24.15.29.25-.25.05-.3.15-.25.25.25-.1.74-.2 1.48-.2.35 0 .6-.05.74-.2.15.15.15.35-.05.55.59-.45 1.34-.64 2.23-.64.1 0 .25.05.29.2.05.1.2.15.35.15h1.94v-.79c-.4 0-.65 0-.7-.05.35-.2.55-.35.69-.54zM28.46 14.15c.1.347.2.545.348.644.198-.297.297-.545.297-.644v.793h-.644v-.793zm-.418.1h.27v.544h-.27v-.545zm-.027-.3v.266l-.457.05-.04-.315h.497zm-.793.3l.315.038-.033.506h-.282v-.545zm.2 22.936h-.447v-.347h.446v.34zm.098-22.144v-.228l.495.015v.21h-.495zm.792 22.64h-.297v-.546h.297v.545zm1.536-.2l-.446.2c.1-.348.198-.645.198-.793-.347-.15-.545-.15-.644-.1 0 0-.1.19-.297.54v-.4c-.1 0-.2.05-.35.14-.15-.2-.25-.4-.25-.55 0 .15.15.19.44.19.14 0 .24-.05.24-.2 0-.1.1-.15.2-.15.39 0 .59 0 .59.05.25.59.44.99.44 1.19 0 .05-.05 0-.15-.15zm.94-.395c-.148.297-.197.396-.197.446 0-.05-.09-.248-.34-.545.45 0 .99-.05 1.54-.248 0 .1-.1.198-.29.347-.15.15-.25.297-.29.396-.1-.05-.15-.1-.2-.198-.09-.05-.14-.1-.19-.198zm2.28.446c-.1.1-.297.1-.595.05-.396-.05-.595-.1-.644-.1l-.65.297-.15-.248.64-.15.14.1v-.396c.34.198.64.297.79.297.1-.05.15-.05.15 0 .05.1.1.1.15 0-.05-.05-.25-.05-.5-.05-.25-.494-.3-.89-.2-1.188l.15.446c.09.3.34.45.69.55v.4zm.842 0h-.297l.198-.396h.35l-.25.396zm2.378.1c-.148-.05-.297-.05-.545.048-.198.1-.396.15-.545.15-.15 0-.15-.05-.05-.15.1-.04.1-.09-.05-.09l-.792.05c0-.29 0-.49.05-.54.098-.1.098-.15.098-.15.495.15 1.19.1 2.03-.2l-.196.9zm.694.147h-.248l-.198-.793c.1 0 .446.1.99.396-.147.05-.247.1-.296.1.053 0 .088.004.132.006-.15-.02-.278.08-.38.29zm.426-.288c.096.008.17.027.17.09-.06-.047-.117-.075-.17-.09zm.862.14h-.347v-.495h.347v.495zm.545-.446c-.05.248-.1.446-.1.644-.05-.1-.098-.248-.05-.495 0-.05-.147-.15-.445-.297 0-.05.1-.148.297-.297.198-.09.297-.14.396-.14 0 .15-.05.35-.098.6zm3.517.842c-.1-.05-.297-.1-.595-.15-.297 0-.545-.098-.743-.247.05.05.198.05.396-.09 0 0-.05 0-.05-.05-.148 0-.248-.1-.248-.15 0 0 .1.05.248.15.347-.1.694-.15.99-.15v.7zm.248-.198v-.297c-.05-.15 0-.248.05-.248.05-.05.1-.05.248 0l.198.1c-.248.247-.397.395-.496.445z"/>
  <rect x="28.164" y="38.87" width=".347" height=".495"/>
  <path d="M21.97 23.612c-.346-.694-.643-1.14-.84-1.338v1.338h.84z"/>
  <rect x="2.75" y="2.855" width=".297" height="10.007"/>
  <path d="M23.01 30.993c0-.495-.048-.892-.048-1.24 0-2.03-.297-4.012-.892-5.944h-.94c0 .09-.05.24-.15.34-.098-.3-.148-.7-.098-1.29.05-.55.05-.94-.05-1.09-.644-.65-1.14-1.09-1.585-1.39 0 1.04-.05 1.73-.148 2.03-.1-.99-.15-1.78-.1-2.33-.9-.8-2.13-1.64-3.72-2.53-1.39-.79-2.33-1.44-2.83-1.93-.75-.84-1.09-1.93-1.09-3.27 0-1.83.49-2.73 1.53-2.73.84 0 1.29.99 1.29 2.92 0 1.37 0 2.15-.03 2.33h4.58l.03-.21c-.12-.95-.13-1.78-.04-2.47.18.73.19 1.56.03 2.46.01.08 0 .14.01.21h1.88c0-.5.05-.74.15-.79.15.25.15.54.1.79h1.34v-3.61c0-2.63-1.09-4.56-3.27-5.8-1.69-.99-3.82-1.49-6.34-1.49-3.32 0-5.7.79-7.24 2.28-1.48 1.49-2.23 3.87-2.23 7.04 0 2.37.4 4.31 1.19 5.74 1.04 1.83 2.87 3.37 5.5 4.6 2.63 0 4.01 0 4.06.05-1.24.15-2.53.2-3.97.15 2.13 1.43 3.37 2.32 3.67 2.72.64.74.99 1.98.99 3.81 0 .89-.05 1.49-.15 1.83-.25.89-.74 1.33-1.48 1.33-.99 0-1.49-.5-1.49-1.49v-5.7H3.34v4.5c0 .15.05.4.148.79.05.39.1.64.1.74.248 2.43 1.536 4.21 3.914 5.4 1.734.89 3.666 1.34 5.747 1.34 1.68 0 3.32-.3 4.9-.84 2.03-.75 3.37-1.84 4.06-3.32.54-1.24.84-2.28.84-3.02 0-.25 0-.55-.05-1zM18.75 11.97h-.296V8.8h.297v3.17zm-.445-5.053h.297V8.6h-.297V6.918zm-2.18 16.942h-2.03v-.3h2.03v.29zm.843 0h-.644v-.3h.644v.29zm1.585 0v-.3h.595v-.89h.297v.94h-.248v.2h.248v.99h-.297v-.94h-.595zm.793 4.95h.297v.44h-.297v-.45zm.445 1.24h-.29v-.4h.3v.39zm.6-6.2h-.79v-.3h.8v.29zm.75 3.66h-.25v-.45h.25v.44zm0-1.19h-.29v-.99h.3v.99z"/>
  <path d="M5.892 24.198c-.444-.064-1.1-.206-1.75-.355-.2-.105-.348-.252-.438-.448-.013-.135-.052-.307-.112-.428.01.128.053.31.097.443-.02.11-.06.21-.15.3h-.79c.69.05 1.09.396 1.19.94v-.84l.19.044c.14.06.34.13.49.153.43.073.84.138 1.26.19z"/>
</svg>
