<svg xmlns="http://www.w3.org/2000/svg" viewBox="0 0 200 200" class="sepultura--roots-symbol">
  <path d="M100 2C46.24 2 2.66 45.876 2.66 100s43.58 98 97.34 98 97.34-43.876 97.34-98S153.76 2 100 2zm1.61 190.877c-50.95 0-96.024-41.312-96.024-92.607S49.05 7.123 100 7.123c53.866 0 92.252 44.686 92.252 92.877 0 51.294-39.692 92.877-90.642 92.877z"/>
  <path d="M100 10.93c-48.862 0-88.472 39.877-88.472 89.07s39.61 89.07 88.472 89.07 88.472-39.877 88.472-89.07S148.862 10.93 100 10.93zm0 158.673c-39.226 0-71.58-28.282-71.58-67.773 0-39.49 32.354-71.872 71.58-71.872 41.47 0 70.875 32.94 70.875 70.042 0 39.49-31.65 69.603-70.875 69.603z"/>
  <path d="M155.624 70.87C138.937 36.18 108.17 37.527 99.122 36.84c-15.173-1.154-29.788 3.733-43.62 16.248s-19.323 29.86-19.542 56.868 39.083 51.38 51.38 52.916 36.667-1.757 51.817-12.954 33.154-44.354 16.467-79.045zm-76.19-11.746c.336-2.454 2.305-4.61 5.71-4.72 3.402-.11 19.98-.99 26.018 0 6.038.987 7.355 3.95 6.807 7.574-.55 3.623-11.2 22.615-15.81 23.164-4.61.55-8.783-.22-10.43-2.086S78.337 67.138 79.435 59.124zM56.928 107.32c-1.866-.44-6.038-2.855-6.477-5.49-.438-2.635 1.977-16.797 3.953-20.31 1.976-3.513 5.16-10.1 9.002-9.55 3.478.496 20.42 13.85 20.42 20.154 0 6.303-1.647 7.62-5.71 8.938-4.06 1.317-19.32 6.696-21.187 6.257zm36.12 20.2c-.22 4.72 0 16.772-4.83 17.168-4.83.396-25.648-8.89-27.118-17.5-.506-2.963 2.305-6.586 5.16-7.903 2.854-1.317 18.004-7.465 23.055-5.27 2.66 1.157 3.952 8.783 3.732 13.504zM90.41 99.95c.22-4.05 4.572-8.316 8.71-7.782 5.738.74 8.417 2.854 8.636 6.148s-.78 10.094-8.625 10.1c-6.525.006-8.94-4.42-8.72-8.467zm21.607 44.738c-2.636 0-6.457-5.093-6.896-8.167-.44-3.073-.732-20.596 4.977-23.01 3.088-1.307 19.61.708 26.57 8.332 8.853 9.702-22.017 22.846-24.65 22.846zm27.456-38.61c-6.417-1.657-24.226-7.968-24.985-12.006-.365-1.948.527-6.752 3.355-8.847 7.904-5.855 9.674-13.257 16.847-13.257 6.733 0 12.916 16.868 12.916 26.04 0 5.14-5.305 8.8-8.132 8.07z"/>
</svg>
