<svg xmlns="http://www.w3.org/2000/svg" viewBox="0 0 200 32">
  <path d="M196.824 26.482l-.917-.428-.673-.733-.184-.79-.49-.79-.488-.36v-.68l-.122-.61c-.184-.37-.367-.92-.61-1.53-.185-.67-.368-1.1-.49-1.34l-.367-.91-.367-.97-.55-.92v-.91l-.245-.97-.18-.49-.43-1.34-.06-.73-.49-1.71-.42-.67-.3-1.77-.73-1.71-.55-1.53V3.6l-.36-.49h-.61l-.55.43-.06 1.403-.07 1.28-.3.736c-.12.43-.3.79-.36 1.1l-.36.92-.24.49-.55 1.28-.36.98-.25.91-.73 1.16-.43 1.59-.18.61-.92 1.65-.36.8-.43 1.53-.18.85-.61.55-.49.79-.42.61-.73 1.41-.43.8-1.77 1.16-.73.37-.24.61 1.04.49 2.94.3.92-.06 1.35.12.74-.06.25-.37-.18-.73-.31-.55-.55-.37-.61-.49-.18-.79.06-.86.43-1.22.43-.73.24-.92.187-.61.303-.56.307-.8.186-.8.67-.55c.55-.19 1.407-.31 2.57-.37h1.47c.55 0 .98.12 1.22.43l.367.43.25.61v.68l.305.55.25.3.06.73.18.55.794 1.1-.06.49.24.92.18.43.183.61-.12 1.23-.424.734-.92.18-.675.37.18.43h1.83l1.35-.12 1.4.06h2.51l.55-.43.06-.49-.488-.49zm-8.683-11.067l-.85.245c-.24 0-.49.06-.61.06s-.61-.06-1.47-.182l-.24-.734-.06-.612v-.856l.55-1.467.49-.86.25-.43.19-.61.19-.25h.55l.49.24.12.37-.36.67.49.85v.73l.19.73.25.97.06.55-.18.55z"/>
  <path d="M171.51 24.587l-.673-.428-.367-.92c-.245-2.51-.795-4.71-1.53-6.61l-.55-.49-.488-.31.245-.37c.612-.37 1.223-.68 2.018-.86.122-.19.306-.49.672-.92.367-.49.612-.86.795-1.1.245-.31.428-.61.61-1.04l-.12-2.14c-.55-1.22-.918-1.96-1.102-2.39-.183-.43-.428-.73-.733-1.04-.306-.24-.61-.49-1.04-.67-.367-.19-1.223-.55-2.63-1.16h-.672l-.673-.19-2.446-.37-2.385.18-.67.24-.55-.31h-2.2l-.73-.06c-.24.24-.43.55-.49.85.06.25.25.55.49.92.43.24.74.43.86.61.13.18.19.55.25 1.04l.25.24-.06 1.16.31 2.2-.18 3.55.06 4.77-.12 1.22v2.08l.06 1.89-.42 1.47-.8.92-.86.49-.18.49 1.22.37 2.51-.37 1.53.12c1.04 0 2.2-.12 3.3-.25l.43-.18-.37-.31-1.4-.8-.55-.67-.37-2.81-.3-.55-.36-.31.61-.92v-.74c0-.86-.18-1.71-.49-2.57.19-.55.43-.92.67-1.04.31-.12.86-.25 1.59-.31l1.29.55 1.29 2.02.18 1.71v1.04c.19.49.31.98.56 1.47.19.49.43 1.1.8 1.83.3.73.55 1.28.67 1.65l.79.8 1.16.55 1.65-1.04.73-1.29.37-.74-1.41-.248zm-4.28-11.373l-1.406 1.1-1.835.185-.31-.13-.74.06-.8-.43-.43-.43v-2.99c0-.25 0-.43-.13-.49-.06-.12-.31-.18-.61-.25l.06-.55.24-.55.36-2.08c.3-.49.55-.86.79-.98.24-.19.61-.25 1.22-.31.3.06.67.18 1.1.24.36.12.67.18.91.24.73.61 1.22 1.22 1.59 1.77.3.61.55 1.34.61 2.2.24.67.3 1.1.3 1.22s0 .31-.12.73l-.25.18-.61 1.22z"/>
  <path d="M139.836 26.054l.795.245 2.57-.25.8.06c.92-.25 1.65-.67 2.2-1.22.55-.61.98-1.35 1.35-2.33v-1.22l-.3-.37.8-1.65.06-1.04.06-1.47-.42-2.14c0-.43 0-.68-.06-.86.06-1.17.19-2.08.31-2.69l-.24-.86-.06-.73v-1.4c-.06-.49-.06-.86-.12-1.16 0-.31-.06-.55-.18-.8-.06-.25-.3-.49-.55-.74-.3-.18-.67-.37-1.22-.61l-.79-.25-.18-.61.49-.43h.92l2.76-.06.37.24.86.18c1.1-.31 2.08-.43 2.82-.43l.18.43v.79c-.25.24-.61.43-1.04.61-.43.12-.79.36-.98.67-.24.37-.49.98-.61 1.9l-.24.86c0 1.59-.12 2.81-.37 3.67v1.65l.25 2.02v1.77l-.06.85v1.41l-.06.98-.24 1.34-.246 1.96c-.43.61-.92 1.16-1.47 1.59-.49.43-.98.73-1.41.98-.43.25-1.22.61-2.32 1.16l-3.42.24h-2.69c-3.427-.13-5.69-1.53-6.79-4.16l-.185-1.96V21l-.25-3.058v-1.22c-.18-.49-.307-1.04-.37-1.65.06-.677.187-1.29.25-1.778 0-.188-.06-.43-.06-.738-.06-.37-.12-.61-.12-.735.06-.68.18-1.35.42-2.08v-1.6l-.366-1.1c-.19-.55-.31-.98-.43-1.34l-1.53-.67-.37-1.1.42-.49h1.41c.55 0 1.35 0 2.39.07h2.2l1.343.19.73.12h.98l.49.12.06.62-.31.55c-.615.06-1.04.13-1.226.13-.244.06-.43.19-.672.49l-.425.19-.43-.06c-.24.25-.36.61-.49 1.04.19.61.25 1.04.25 1.22-.305.74-.49 1.29-.55 1.72 0 .18.06.37.12.55.06.25.12.55.306 1.04l-.25.49c.06.19.06.49.06.98 0 .31 0 .74-.06 1.29-.06.61-.06.98-.06 1.28l.12.67v1.53l-.18 1.65c.305 1.4.61 2.44.855 3.18.25.67.67 1.34 1.22 1.95.55.61 1.41 1.16 2.51 1.71l.74-.06z"/>
  <path d="M119.108 21.652v.183l-.306 1.59c.245.917.55 1.53.917 1.957.36.428.97.856 1.83 1.345l.3.672-.37.3h-1.04l-.67-.19-3.92-.06c-1.29.12-2.2.24-2.88.49l-.49-.49v-.49c.24-.25.55-.49.92-.8.36-.25.61-.49.79-.74.18-.25.31-.55.37-.98l.06-.98-.12-.67v-.49l.12-.73-.06-.68-.13-2.94.06-3.79.06-.43V11.8l-.37-.918v-1.1c.06-.185.06-.55.06-.98.06-.427.06-.733.12-.916l-.43-.918-.19-.8c-.43-.49-.92-.856-1.53-1.16l-.74.12-.37.246c-.67.18-1.16.424-1.53.67-.31.243-.61.67-.8 1.22l-.43.247-.43.55-.62.49-.61-.24v-.43l.12-.43.06-1.04-.06-.61.06-.55-.43-1.16V3.6c.43-.182.73-.305.98-.305h.43c.18.06.37.06.49.06l1.53.55c.12-.06.42-.12.91-.243.49-.12.73-.245.85-.245h.73l1.28.245.73.06 1.4.37c1.04-.307 1.713-.49 1.96-.613l2.444-.12h.857l.733.24.91.18c.24 0 .67-.06 1.16-.19.55-.06.976-.12 1.34-.18.31-.06.616-.06.92-.06l.18.91-.79 2.32V8.3l-.55.31-.673-.18c-.304-1.04-.61-1.71-.915-2.14-.25-.37-.8-.796-1.59-1.22-.062 0-.31.06-.8.12-.18 0-.43-.06-.79-.126-.37-.06-.62-.06-.8-.06H119c-.12.06-.24.06-.3.06l-.245.92.06 3.79.064.55-.12.55v2.14l.12.796v1.65l-.06.43-.06 1.284.18.55.12 2.2.18.43-.13.732.18.552z"/>
  <polygon points="96.301,18.778 96.484,20.123 96.484,21.224 96.178,21.897 96.117,22.752 96.178,23.914 96.545,24.281 96.79,24.893 98.991,25.626 101.498,25.81 102.232,25.687 103.883,25.687 104.555,25.137 105.167,23.853 105.411,23.486 105.595,22.691 106.39,22.202 107.123,22.63 106.879,23.67 107.123,24.22 107.123,24.893 107.001,25.382 107.001,27.277 106.757,27.583 105.167,27.767 102.66,27.767 101.559,27.827 96.729,27.827 95.261,27.522 94.528,27.522 93.549,27.767 92.265,27.767 91.287,27.889 90.308,27.889 89.391,27.705 89.086,27.277 89.391,26.727 90.92,25.687 91.47,24.954 91.531,24.159 91.531,22.814 91.654,22.08 91.959,21.591 91.898,20.674 91.348,18.962 91.348,18.166 91.654,17.066 91.715,15.476 91.715,14.987 91.531,14.865 91.409,14.009 91.47,13.153 91.898,12.052 91.898,10.768 91.715,8.995 91.715,7.833 91.776,7.344 91.776,6.61 91.287,5.754 89.941,4.837 89.636,4.164 89.697,3.553 90.431,3.492 91.348,3.553 92.265,3.736 93.121,3.736 94.344,3.798 95.812,3.431 97.218,3.553 98.135,3.492 98.563,3.736 98.38,4.225 97.157,5.082 96.667,5.693 96.423,6.61 96.056,7.344 96.056,9.423 95.995,10.401 95.995,11.318 95.383,12.786 95.934,13.153 96.178,13.581 96.24,13.947 96.056,14.376 95.934,16.455 95.995,18.166 96.301,18.778"/>
  <path d="M73.616 26.054l.795.245 2.57-.25.8.06c.92-.25 1.65-.67 2.2-1.22.49-.61.98-1.35 1.35-2.33v-1.22l-.3-.37.8-1.65.06-1.04.06-1.47-.42-2.14c0-.43 0-.68-.06-.86.06-1.17.19-2.08.25-2.69l-.18-.86-.06-.73v-1.4c-.06-.49-.06-.86-.12-1.16 0-.31-.06-.55-.18-.8s-.3-.49-.55-.74c-.3-.18-.67-.37-1.22-.61l-.79-.25-.24-.61.55-.43h.92l2.76-.06.37.24.86.18c1.1-.31 2.08-.43 2.81-.43l.18.43v.79c-.24.24-.61.43-1.04.61-.42.12-.79.36-1.04.67-.18.37-.42.98-.55 1.9l-.24.86c0 1.59-.12 2.81-.36 3.67v1.65l.25 2.02v1.77l-.06.85v1.41l-.06.98-.24 1.34-.25 1.96c-.43.61-.91 1.16-1.46 1.59-.49.43-.98.73-1.4.98-.42.25-1.22.61-2.32 1.16l-3.42.24h-2.7c-3.423-.13-5.685-1.53-6.786-4.16l-.19-1.95V21l-.25-3.06v-1.22c-.19-.49-.31-1.04-.37-1.65.06-.676.184-1.29.246-1.777 0-.18-.06-.43-.06-.73-.06-.37-.12-.616-.12-.738.06-.68.19-1.35.43-2.08V8.14l-.36-1.102s-.31-.978-.43-1.345l-1.6-.673-.31-1.1.36-.49h1.47c.55 0 1.34 0 2.32.07h2.26l1.28.19.79.12h.98l.49.12.06.617-.3.55c-.61.06-1.04.123-1.29.123-.19.06-.37.183-.618.49l-.42.183-.425-.064c-.24.24-.364.61-.49 1.04.19.61.25 1.04.25 1.22-.31.73-.49 1.28-.55 1.71 0 .18.06.36.12.55.06.24.12.55.305 1.04l-.25.49c.06.18.06.49.06.97 0 .3 0 .73-.06 1.28-.06.61-.06.98-.06 1.28l.12.67v1.53l-.185 1.65c.308 1.4.614 2.44.858 3.18.25.67.676 1.34 1.227 1.95.55.61 1.41 1.16 2.51 1.71l.74-.06z"/>
  <path d="M59.797 10.28l-.306-1.957-.12-.795-.61-.55-.55-.918c-.85-.672-1.47-1.162-1.83-1.406-.36-.245-.85-.49-1.34-.672L53.99 3.8l-1.59-.37-1.284-.06-1.59.184-.672-.245h-.856l-.734-.13-1.1.3-2.08-.12-.977.12-.673.49.245.61c.24.24.55.49.85.73.3.3.61.49.79.73l.24 1.34v.67l-.12.48v3.42l.06.67-.31 1.78.18.49-.06 2.26v.67l.24 2.14-.19.61-.06 1.1.06.73v1.47l.06.73-.06.49c-.25.24-.61.48-1.04.85-.43.43-.74.67-.98.86l-.13.42.73.49 1.65-.43.67.12c.49 0 1.16.06 1.96.12.85.06 1.46.12 1.95.12l.85.18.55-.49-.19-.73c-.31-.25-.62-.55-1.04-.92-.43-.37-.67-.67-.86-.8l-.12-.55.18-.248.06-1.836-.73-.73.06-.68.55-.8.06-.794-.24-1.59.18-.92.73-.796.49.12h3.42l1.59-.18h.98l2.14-1.29.61-1.04.98-.79.31-.55-.06-1.22.05-.79zm-3.486.366l-1.16.795-.12 1.41-1.34 1.16-1.1.37-1.1-.06-.85-.06-1.77-.43v-1.04l.25-.67-.3-1.4V9.8l.25-.674.25-1.65-.49-1.714.31-.55 2.57-.122c.31.06.67.185 1.16.37.55.182.92.304 1.16.365l.55.49.55.55-.06.916.25.92.67.74.37.55v.68z"/>
  <path d="M30.447 14.192l1.468-.183.917-.43.55-.25.49-.8.855-.86.55.12.184 1.16-.06.85-.24.61.31 3.36-.67.61-.97-.67-.3-.8-1.53-.49-1.04-.74-1.1-.18-.67.18-.06.67.31.73.19 1.1-.42 1.71.18.55v.73l.19.67-.18 1.53.31 1.71 1.29 1.1 1.28.06 1.23-.18.49-.25.92-.06.92-.25L37 24.16l.24-.794.794-1.29.73-.247.43.24.06 1.59-.36.43.31 1.78-.12 1.04-.677.73h-1.3l-4.464-.12-1.04.18-3.67-.31-1.35.12H23.5l-1.04-.49.126-.49.858-.49.857-.49.55-.67.18-.85.12-2.08.06-1.71-.06-.68.12-1.16-.06-.86V16.4l.43-.55v-.737l-.49-.74.19-1.1-.12-.61.12-1.04.31-.92.37-.92c-.06-.367-.12-.795-.18-1.284-.06-.55-.18-1.16-.24-1.9l-.24-.74-1.71-1.32-.73-.67.31-.61.98-.13 2.08.24 1.16.24 1.72-.31.98.07.86-.06 1.34-.18 1.22.12h.98l.98.37L37 3.5l1.037.06 1.223.61.367.428.368 2.384-.18.92-.49.12-.795-.734-.427-.856-2.877-1.47-.735-.184-1.34.306-.73-.367-1.04-.245h-.79l-.73.31-.24.855.25.978.19.918-.61 1.96.37 1.284.06.856-.18.733v.855l.18.74.61.25z"/>
  <path d="M2.992 22.14l-.306-.305.122-.795.612-.306.978.55.244.978.673.428.306.55c.74.428 1.41.917 2.08 1.468.68.49 1.29.856 1.72 1.04.49.244 1.29.427 2.39.61.37-.06.86-.183 1.47-.366.61-.184 1.04-.306 1.29-.367.55-.672.98-1.223 1.23-1.65.25-.368.43-.857.49-1.47-.18-.732-.36-1.466-.43-2.14l-.7-.365c-.55-.307-1.4-.796-2.5-1.53s-1.77-1.162-2.08-1.345l-.18-.612-.67-.183-1.59-.183-.36-.184c-.06 0-.18 0-.3.06-.24 0-.43-.06-.55-.183-.12-.06-.37-.245-.67-.55l-.73-.18-.73-.612c0-.367-.12-.795-.24-1.162l-.36-1.284c-.18-.428-.24-.856-.24-1.223.06-.49.12-.8.12-.92 0-.25 0-.37-.06-.43.07-.74.25-1.53.68-2.39l.67-.68.55-1.23c1.16-.85 2.44-1.4 3.73-1.71C10.88 3.18 12.35 3 14 3c3.18 0 4.953.43 5.38 1.224l.185.856-.184.366v.673l.68 1.53-.12 1.77-.42.24c-.49-.37-.85-.68-1.04-.98-.24-.31-.42-.68-.55-1.23-.42-.25-.97-.67-1.71-1.16-.73-.55-1.22-.86-1.4-.98L13.72 5h-1.1c-1.348 0-2.388.182-3.12.67-.8.43-1.35 1.286-1.78 2.51v1.1l.37.916.73.43.61.55 5.994 2.995.61-.12.244.25.49.49 1.284 1.04.308.8c1.22 1.59 1.894 3.24 2.016 5.08-.18.74-.49 1.65-.916 2.75l-.43.49c-.43.67-.918 1.16-1.346 1.47-.427.37-1.1.73-1.895 1.04h-.49c-.61.18-1.53.37-2.63.55-1.16.18-1.84.31-2.08.37l-2.08-.07c-1.16-.73-2.63-1.1-4.28-1.22l-1.04-.61-.18-.92v-1.22l.12-1.04-.13-.55v-.61z"/>
</svg>
