<svg xmlns="http://www.w3.org/2000/svg" viewBox="-202 517 235 103">
  <path d="M-84.5 587.2c-.2.2-.5.4-.6.5h.6v.4l-.3.3.3.3v.4c-.2-.3-.5-.5-.6-.6h.4l.3.3v-.5l-.3.3h-.4v-.6h.6v-.8z"/>
  <path d="M-123.1 617.6c.6.4 1.3.7 1.9 1.2h-1.9v-1.2z"/>
  <path d="M-137.1 608.7c-.2-2.1-.5-4.2-.6-6.3-.5-1.7-.8-3.4-1.3-5-.2-.3-.4-.5-.6-.6V591c-.5-.3-.9-.5-1.3-.6v-7c-.3-.5-.5-.9-.6-1.3-.3-1.1-.5-2.1-.6-3.1v-2.6l-.6-.6c-.3-.2-.5-.5-.6-.6v-.6c-.3-.2-.5-.5-.6-.6v-.6c.2-.2.4-.5.6-.6h.6c.2-1.2.4-2.5.6-3.8v-1.3c-.3-.4-.5-.8-.6-1.3-.2-.4-.5-.8-.6-1.3v-1.8h1.3v1.3c-.6 0-.6 0-.6 1.2 1.3 0 1.3 0 1.3-.6v-4.4c-.3-.2-.5-.5-.6-.6-.3-.2-.5-.5-.6-.6v-.6l-.6-.6v-.6l-.6-.6V555.4c.2-.2.4-.5.6-.6.2-.2.4-.5.6-.6.2-.2.4-.4.6-.5v-1.3c.2-.3.4-.5.6-.6h.6c.2-.3.4-.5.6-.6.4-.3.8-.5 1.2-.6h.6c.2.2.5.4.6.6h1.9l.6.6v.6c.2.4.4.8.6 1.3v2.5c.2.2.4.5.6.6-.3.4-.5.8-.6 1.3v.6c.2.8.4 1.7.6 2.5h.6v.6c-.2.2-.4.5-.6.6-.3.8-.5 1.7-.6 2.6-.3.4-.5.8-.6 1.2v1.3c-.6 0-.6 0-.6 1.3h.6c.2.8.4 1.7.6 2.6v1.2c-.3.4-.5.8-.6 1.3v7h-.6v3.2h.6v.6c-.6 0-.6 0-.6 1.3h.6v2.5c.2.6.4 1.3.6 1.9V603c-.3.2-.5.4-.6.6v5c-.3.2-.5.5-.6.6-.4 0-.8-.3-1.3-.5z"/>
  <path d="M-127.6 607.4c.5.2.8.5 1.3.6 0 .6 0 .6-1.3.6v-1.2z"/>
  <path d="M-135.1 604.3h.6v1.8h-.6z"/>
  <path d="M-120 606.1v-1.3c.6 0 .6 0 .6 1.3h-.6z"/>
  <path d="M-100.3 604.9h.6v.6h-.6z"/>
  <path d="M-125.7 604.3c.4-.5.6-.9 1-1.3.1.4.2.8.3 1.3h-1.3z"/>
  <path d="M-93.9 603v1.3h-.6c-.1-1.3-.1-1.3.6-1.3z"/>
  <path d="M-101.6 601.7v-.6h1.3v.6h-1.3z"/>
  <path d="M-134.5 589.7h.6v11.4h-.6z"/>
  <path d="M-100.3 599.8h1.2v.6h-1.2z"/>
  <path d="M-102.2 597.3l-.6-.6v-.6c.2-.9.4-1.7.6-2.6h.3l.4.4v3.5h-.7z"/>
  <path d="M-139.5 594.1v2h-.7v-2h.7z"/>
  <path d="M-94.6 596.1v-1.3c.6 0 .6 0 .6 1.3h-.6z"/>
  <path d="M-154.8 594.1l.6-1.2h.6v1.8c-1.2.1-1.2.1-1.2-.6z"/>
  <path d="M-101.6 594.8v-.9c.1-.2.2-.3.3-.4h.4c-.3.4-.5.8-.7 1.3z"/>
  <path d="M-101.6 593.8l-.4-.4c.1-.1.2-.2.4-.3l.3.3c-.1.2-.2.3-.3.4z"/>
  <path d="M-139.5 592.3v1.2c-.6 0-.6 0-.6-1.2h.6z"/>
  <path d="M-102.2 593.5l.6-.6v.3c-.1.1-.3.2-.4.3h-.2z"/>
  <path d="M-127 592.9v-1.3c.5.3.8.6 1.3.9-.4.1-.9.3-1.3.4z"/>
  <path d="M-159.3 592.3V591c1.3 0 1.3 0 1.3.6-.4.2-.8.4-1.3.7z"/>
  <path d="M-102.8 591.6c.1-.5.2-.9.3-1.3.4.4.6.8 1 1.3h-1.3z"/>
  <path d="M-128.8 589.1h1.2v1.3c-.4-.5-.8-1-1.2-1.3z"/>
  <path d="M-129.5 587.2v1.3c-.6 0-.6 0-.6-1.3h.6z"/>
  <path d="M-85.8 587.8h.6v.6c-.1-.2-.4-.4-.6-.6z"/>
  <path d="M-141.5 586h.6v1.8h-.6z"/>
  <path d="M-135.1 587.8v-1.2c.6 0 .6 0 .6 1.2h-.6z"/>
  <path d="M-102.8 586.6h1.9v.6h-1.9z"/>
  <path d="M-94.6 584.7c.4.4.8.8 1.2 1.3h-1.2v-1.3z"/>
  <path d="M-87.7 586c.4-.3.6-.5 1-.6l.3.3v.4h-1.3z"/>
  <path d="M-86.4 585.6l-.3-.3c.1-.2.2-.3.3-.4l.4.4c-.2.1-.3.2-.4.3z"/>
  <path d="M-135.1 584v1.3h-.6c-.1-1.3-.1-1.3.6-1.3z"/>
  <path d="M-104.1 584h.6v1.3c-.3-.4-.4-.9-.6-1.3z"/>
  <path d="M-102.8 585.3v-.6h.6v.6h-.6z"/>
  <path d="M-106 583.4h1.2c0 .6 0 .6-1.2.6v-.6z"/>
  <path d="M-104.1 584v-.6h.6v.6h-.6z"/>
  <path d="M-103.5 584v-.6c.2-.6.4-1.3.6-1.9.2-.5.4-.8.6-1.3.2.5.4.8.6 1.3v2.6h-1.8z"/>
  <path d="M-87.7 583.4h.6v.6h-.6z"/>
  <path d="M-135.8 580.2h.6v3.2h-.6z"/>
  <path d="M-106 583.4v-.6h.6c.2-.3.4-.5.6-.6.2.4.4.8.6 1.3.1-.1-1.8-.1-1.8-.1z"/>
  <path d="M-104.1 583.4c-.3-.5-.5-.9-.6-1.3.2-.3.4-.5.6-.6h1.3c-.3.6-.5 1.3-.6 1.9h-.7z"/>
  <path d="M-101.6 582.1v-.6c.3-.2.6-.5.9-.6l.4.4v.9h-1.3z"/>
  <path d="M-100.3 581.2l-.4-.4c.1-.1.2-.2.4-.3l.3.3c-.1.1-.2.2-.3.4z"/>
  <path d="M-100 580.8l-.3-.3c.4-.2.8-.3 1.2-.4 0 .7 0 .7-.9.7z"/>
  <path d="M-102.8 579.5v-1.8h.6v1.8h-.6z"/>
  <path d="M-142.1 577.7v1.3c-.6 0-.6 0-.6-1.3h.6z"/>
  <path d="M-101.6 577.7h.6v.6h-.6z"/>
  <path d="M-102.2 576.4v-1.3h.6v1.3h-.6z"/>
  <path d="M-157.3 573.8c.9.5.9.5.6.6l-.6-.6z"/>
  <path d="M-88.9 573.8h.6v.6h-.6z"/>
  <path d="M-87.7 573.8v-1.9h.6v1.9h-.6z"/>
  <path d="M-160.5 572.6h.6v.6h-.6z"/>
  <path d="M-159.8 573.2v-.6h.6c-.3.1-.4.4-.6.6z"/>
  <path d="M-105.3 573.2v-1.3c.6 0 .6 0 .6 1.3h-.6z"/>
  <path d="M-160.5 572.6v-1.2l.6.6v.6h-.6z"/>
  <path d="M-159.8 571.9h.6v.6h-.6z"/>
  <path d="M-159.3 572.6v-.7l.7.7z"/>
  <path d="M-128.2 570.7c0 .6-1.3.6-1.3 1.2-.6 0-.6 0-.6-1.2h1.9z"/>
  <path d="M-118.1 571.9c-.2-.2-.5-.4-.6-.6-.2-.3-.5-.5-.6-.6-.2-.3-.5-.5-.6-.6-.2-.2-.4-.5-.5-.6v-.6c.4-.2.7-.5 1.2-.6l.6.6h.6c.2 1.1.5 2.1.6 3.1l-.7-.1z"/>
  <path d="M-114.9 571.4h1.3c0 .6 0 .6-1.3.6v-.6z"/>
  <path d="M-103.5 563.1c-.3-1.1-.5-2.1-.6-3.2v-1.2c-.3-1.3-.5-2.6-.6-3.9-.2-.5-.4-.8-.6-1.3h-1.3c-.3-.2-.5-.4-.6-.5-.5-.4-.9-.6-1.3-1 .4-.3.8-.6 1.3-.9h-.6l-.6-.6c-.6 0-.6 0-.6-1.3h-1.3c-.6-.3-1.3-.5-1.9-.6h-.6c-.3-.2-.5-.5-.6-.6h-3.9l-.6.6h-2.5c-.5.2-.9.4-1.3.6h-2.6v-1.3c-.2-.6-.5-1.3-.6-1.8-.6-1-.6-1-1.9-1.3-.2.4-.5.8-.6 1.3v.6l-.6.6c-.2.8-.5 1.6-.6 2.5-.2.2-.5.4-.6.6v.6c-.2.4-.5.8-.6 1.3v5c.2.2.5.4.6.6v1.2l-.6.6v3.2c-.5.2-.8.5-1.3.6v1.2l.6.6c.8 1.3 1.7 2.6 2.6 3.9h.6c0 1.3 0 1.3-.6 1.3 0 .6-1.3.6-1.3 1.2l.6.6-.6.6v.6c.2.5.5.8.6 1.3v1.9c-.2.2-.5.4-.6.6-.2.4-.5.8-.6 1.3v5c.2.2.5.4.6.6.2.2.5.4.6.6v1.3c-.2.2-.5.4-.6.6v1.3c.2.2.5.4.6.6h1.2v1.3c.2.2.5.4.6.6v.6c.5.3.8.6 1.3.9-.4.1-.9.2-1.3.4v2.5c.2.4.5.8.6 1.3.2.4.5.8.6 1.3v1.2c-.2.5-.5.8-.6 1.3v.6l-.6.6v.6c-.2.5-.5.8-.6 1.3v3.8c.5.2.8.5 1.3.6.5-1.5.5-1.5 1.3-1.9l.6.6v7.4l.6.6c.2.8.5 1.7.6 2.6.6.4 1.3.7 1.9 1.2h.6c.2-.2.4-.5.5-.6v-2.6h1.3v.2h-.6c-.2-.5-.5-.8-.6-1.3.2-.8.5-1.7.6-2.6h1.3c0-1.2 0-1.2-.6-1.2l-.6-.6V608c-.2-.5-.5-.8-.6-1.3v-1.9c-.2-.2-.4-.4-.5-.6V603c.2-.5.4-.8.5-1.3.2-.5.5-.8.6-1.3V598c.5-.3.8-.5 1.3-.6v-.6c-.2-.5-.5-.9-.6-1.3v-.6l-.6-.6c.2-.6.5-1.3.6-1.8.2-.5.5-.9.6-1.3v-3.9c-.2-.2-.5-.4-.6-.6-.2-.9-.5-1.7-.6-2.6.2-.5.5-.9.6-1.3v-1.3l-.6-.6v-1.3c.2-.2.5-.4.6-.6.2-.3.5-.5.6-.6.8-.3 1.7-.5 2.6-.6h1.3c.2-.3.4-.5.6-.6h.6c.6-.3 1.2-.5 1.8-.6.6-.5 1.3-.8 1.9-1.3.2-.2.4-.5.6-.6.2-.2.4-.5.6-.6.4-.2.8-.5 1.3-.6h1.3v-1.3c.4-.2.7-.4 1.2-.6l.6-3.9v-.6c.2-.4.4-.9.6-1.3v-.6c-.2-.9-.4-1.5-.6-2.1zm-6.3 0c-.3.2-.5.5-.6.6-.5.5-.5.5 0 2.5-.3.2-.5.5-.6.6v1.3l-.6.6c-.5.2-.8.5-1.2.6-.3.4-.5.8-.6 1.3v.6h-1.3c-1.3-.4-1.3-.4-1.9-1.3l-.6-.6v-.6l-.6-.6v-.6l-.6-.6h-.6c.2-.8.5-1.7.6-2.5 0-.6 0-.6-1.3-.6v.6c-.2.4-.4.8-.5 1.2-.3-.6-.5-1.3-.6-1.8v-.6c.2-.4.4-.9.6-1.3V557c.2-.3.4-.5.5-.6.5-.2.8-.5 1.3-.6l.6-.6h3.9c.6.2 1.3.5 1.8.6 0 .6 1.3.6 1.3 1.3v1.3l.6.6v.6c.2.8.4 1.7.6 2.6v.9z"/>
  <path d="M-128.2 570.7v-1.3h.6c0 1.3 0 1.3-.6 1.3z"/>
  <path d="M-107.3 569.4h.6v1.3h-.6z"/>
  <path d="M-100.9 569.4v-1.3h.6c0 1.3 0 1.3-.6 1.3z"/>
  <path d="M-120.6 568.8v-1.3c1.2 0 1.2 0 1.2.6-.4.2-.8.5-1.2.7z"/>
  <path d="M-118.1 568.8v-.6l.6.6h-.6z"/>
  <path d="M-92.1 568.8v-1.3c.5.1.8.2 1.3.4-.5.3-.8.6-1.3.9z"/>
  <path d="M-135.1 566.9v1.3h-.6c-.1-1.3-.1-1.3.6-1.3z"/>
  <path d="M-161.7 564.4h.6v1.8h-.6z"/>
  <path d="M-142.1 564.4l.6.6c0 .6 0 .6-1.3.6 0-1.2 0-1.2.7-1.2z"/>
  <path d="M-142.1 563.1h-1.3v1.8h-.6v-2.4h1.9v.6z"/>
  <path d="M-99.6 564.4h.6v.6h-.6z"/>
  <path d="M-120 564.4v-.6c1.3 0 1.3 0 1.3.6h-1.3z"/>
  <path d="M-92.8 562.5l.6.6c0 .6 0 .6-1.3.6.1-1.2.1-1.2.7-1.2z"/>
  <path d="M-92.8 562.5h.4c.1.1.2.2.3.4v.3c-.2-.3-.5-.5-.7-.7z"/>
  <path d="M-92.1 563.1v-.3c.1-.2.2-.3.4-.4h.3l-.7.7z"/>
  <path d="M-92.1 562.8c-.1-.2-.2-.3-.3-.4l.3-.3c.1.1.2.2.4.3-.2.1-.3.3-.4.4z"/>
  <path d="M-92.8 562.5l.6-.6v.4l-.3.3h-.3z"/>
  <path d="M-91.7 562.5c-.1-.1-.3-.2-.4-.3v-1c.4-.2.6-.5 1-.6.1.1.2.2.3.4v.3c-.2.5-.5.8-.6 1.3h-.3z"/>
  <path d="M-93.4 560.5h1.3c0-1.3 0-1.3.6-1.3l.6.6v.4l-.3.3c-.4.2-.6.5-1 .6-.4-.1-.7-.4-1.2-.6z"/>
  <path d="M-90.8 561.2v-.3c.1-.2.2-.3.4-.4h.3c-.3.2-.5.5-.7.7z"/>
  <path d="M-90.8 560.9c-.1-.2-.2-.3-.3-.4l.3-.3c.1.1.2.2.4.3-.2.1-.4.2-.4.4z"/>
  <path d="M-90.5 560.5c-.2-.1-.3-.2-.4-.3v-1c.2-.2.5-.4.6-.6.2.2.5.4.6.6v.6l-.6.6h-.2z"/>
  <path d="M-93.4 559.9v-2.5h.6v2.5h-.6z"/>
  <path d="M-91.5 559.3h.6v.6c-.1-.2-.4-.5-.6-.6z"/>
  <path d="M-90.8 559.3c.2-.4.5-.8.6-1.2v.6l-.6.6z"/>
  <path d="M-87.1 557.4h.6c-.3.4-.6.8-.9 1.3.1-.4.2-.9.3-1.3z"/>
  <path d="M-120.6 556.8v1.3c-.6 0-.6 0-.6-1.3h.6z"/>
  <path d="M-88.9 556.8h.6v.6h-.6z"/>
  <path d="M-130.7 553h.6v3.1h-.6z"/>
  <path d="M-118.1 554.2h3.2v.6h-3.2z"/>
  <path d="M-101.6 552.4h.6v1.8h-.6z"/>
  <path d="M-107.2 553c.2-.3.4-.5.6-.6v1.2c-.2-.2-.5-.4-.6-.6z"/>
  <path d="M-106.6 553.6v-1.2c.2-.3.4-.5.6-.6l.6 1.8h-1.2z"/>
  <path d="M-107.2 551.1l.6.6v.6c-.3.2-.5.4-.6.6-.5-.4-.9-.6-1.3-1 .3-.2.8-.5 1.3-.8z"/>
  <path d="M-106.6 552.4v-.6h.6c-.2.1-.4.3-.6.6z"/>
  <path d="M-102.8 551.7c.5-.1 1.1-.2 1.7-.2-.2.3-.4.6-.5.8-.4-.2-.9-.4-1.2-.6z"/>
  <path d="M-103.5 549.2v1.3c-.6 0-.6 0-.6-1.3h.6z"/>
  <path d="M-121.8 549.2v-1.3c1.3 0 1.3 0 1.3.6-.5.2-1 .4-1.3.7z"/>
  <path d="M-103.5 549.2c.6-.3 1.3-.5 1.9-.6v.6h-1.9z"/>
  <path d="M-101.6 549.2v-.6h.6c-.2.1-.4.3-.6.6z"/>
  <path d="M-139.5 547.9h1.2c0 .6 0 .6-1.2.6v-.6z"/>
  <path d="M-101.6 548.5v-1.2l.6 1.2h-.6z"/>
  <path d="M-141.5 547.9c-.3-.2-.5-.4-.6-.5-1.3-.4-1.3-.4-2.1-1.2.1-.9.1-1.8.2-2.7h.6v-3.1h-.6v-.6c.6-.3 1.3-.5 1.9-.6h.6c.2-.3.4-.5.6-.6v-1.3h2.5c.2.2.5.4.6.6.5.2.8.4 1.3.6l.6.6h2.5v1.3l-.6 1.8h-.6v1.9h.6l.6.6c-.2.4-.4.8-.6 1.3h-1.3l-.6-.6c-.3.2-.5.4-.6.6-.2.2-.5.4-.6.6v.6c-.2.2-.5.4-.6.5 0 .2-3.8.2-3.8.2z"/>
  <path d="M-116.8 547.9c0-.5 0-.5 1.9-.5v.5h-1.9z"/>
  <path d="M-93.4 546.7c1 .5 1 .5.6.6-.1-.2-.4-.4-.6-.6z"/>
  <path d="M-135.1 546h1.3c0 .6 0 .6-1.3.6v-.6z"/>
  <path d="M-93.4 544.8v-1.3c.6 0 .6 0 .6 1.3h-.6z"/>
  <path d="M-134.5 542.2h.6v1.9h-.6z"/>
  <path d="M-144 540.4h.6v3.1h-.6z"/>
  <path d="M-133.3 540.4v-1.3c.6 0 .6 0 .6 1.3h-.6z"/>
  <path d="M-103.5 539.7h.3c.1.1.2.2.4.3v.4l-.7-.7z"/>
  <path d="M-102.8 540.4v-.4l.3-.3h.4c-.4.2-.6.4-.7.7z"/>
  <path d="M-102.8 540c-.2-.1-.3-.2-.4-.3.1-.2.2-.3.4-.4.1.1.2.2.3.4-.2.1-.3.2-.3.3z"/>
  <path d="M-103.5 539.7v-.6h.6v.3c-.2.1-.3.2-.4.4h-.2z"/>
  <path d="M-102.6 539.7c-.1-.2-.2-.3-.3-.4v-.3h.6v.6h-.3z"/>
  <path d="M-102.2 539.7v-.6l.6.6h-.6z"/>
  <path d="M-104.1 538.4h.6v.7l-.6-.7z"/>
  <path d="M-103.5 539.1v-1.2c.2-.3.4-.5.6-.6h1.3c-.3.6-.5 1.3-.6 1.9 0-.1-1.3-.1-1.3-.1z"/>
  <path d="M-104.1 537.8h.6v.6h-.6z"/>
  <path d="M-104.1 537.8c.2-.3.4-.5.6-.6v.6h-.6z"/>
  <path d="M-101.6 535.9h.6v.6h-.6z"/>
  <path d="M-98.4 535.9h.6v.6h-.6z"/>
  <path d="M-104.1 535.2v-2.6h1.3c-.5.9-.9 1.7-1.3 2.6z"/>
  <path d="M-91.5 533.9l-.6.6c-.3-.1-.3-.1.6-.6z"/>
  <path d="M-92.8 525.7h1.3v3.9c-.4-1.4-.8-2.6-1.3-3.9z"/>
  <path d="M-97.8 526.3h1.9v.6h-1.9z"/>
  <path d="M-99.6 523.8c0-.6 0-.6 1.2-.6v.6h-1.2z"/>
  <path d="M-145.9 579.5z"/>
  <path d="M-147.2 579.5z"/>
  <path d="M-145.9 579.5z"/>
  <path d="M-157.3 564.9v-1.2h-.6c-.1 1.2-.1 1.2.6 1.2z"/>
  <path d="M-159.8 556.8c0 .6 0 .6 1.8 1.3.2-.5.5-.9.6-1.3h-2.4z"/>
  <path d="M-156.1 566.9c.2-.2.4-.5.6-.6-.2.1-.4.4-.6.6z"/>
  <path d="M-145.9 523.8c-.5.2-.9.5-1.3.6-.3-.2-.5-.5-.6-.6v-1.9c-.6 0-.6 0-.6 1.3 0-1.3 0-1.3.6-1.3v-.6c.2-.2.4-.5.6-.6v-.7c.2-.2.4-.5.6-.6v-.6c-.3-.5-.5-.9-.6-1.3h-.6c-.3.4-.5.8-.6 1.3-.3.2-.5.4-.6.6-.3.2-.5.5-.6.6-.3.2-.5.5-.6.6h-1.8c-.3-.2-.5-.5-.6-.6-.3-.2-.5-.5-.6-.6h-.6c-.9.2-1.7.5-2.6.6v.6l-.6.6v.6l-.6.6c-.2.6-.5 1.3-.6 1.9v1.2l.6.6v1.2l-.6.6-.6.6h-.6v1.2h.6c0 1.3 0 1.3-.6 1.3v1.2c.2.2.4.5.6.6v.6c.2.5.5.8.6 1.3v1.3c-.2.2-.5.4-.6.6.2.6.5 1.3.6 1.9h-.6v3.1h.6v1.9c.5 1 .8 2.1 1.3 3.2v2.5c-.2.2-.5.4-.6.6v1.9h-.6c0 1.2 0 1.2.6 1.2l.6.6.6.6v.6c-.2.5-.5.8-.6 1.3-.2.4-.5.8-.6 1.3.2.2.5.4.6.6.2.2.5.4.6.6v.6l-.6.6v.6h-.6v1.9h.6v4.4l.6.6c0 .6 1.3.6 1.3 1.3.2.4.4.9.6 1.3v5c-.3.5-.5.8-.6 1.3v6.2l.6.6v.6c.2 1.2.4 2.5.6 3.8.2.4.4.8.6 1.3l.6.6v4.3l.6.6c.2.4.4.8.6 1.3v.6c-.3.4-.5.8-.6 1.3v.6c.2.2.4.5.6.6v.6c.1.2.4.5.6.6.2.2.4.5.6.6v.6c.2.2.4.5.6.6v1.3l.6.6c.3.5.6.8.9 1.3.1-.4.2-.9.4-1.3v-.6c.2-.5.4-.9.6-1.3v-.6c.2-.2.4-.5.6-.6v-.6c-.3-.5-.5-.8-.6-1.3v-3.1l-.6-.6v-16.5h.6c.2.2.4.5.6.6.1.4.1.4.6-.6-.3-.4-.5-.8-.6-1.2v-3.2c.2-.2.4-.5.6-.6-.3-.2-.5-.5-.6-.6-.3-.2-.5-.5-.6-.6v-.6c-.3-.5-.6-1.2-.6-1.2s-.5-2.6-.6-3.9v-.6c.2-.2.4-.5.6-.6.2-.4.4-.9.6-1.3.2-.8.4-1.7.6-2.5v-.6c-.3-.2-.5-.5-.6-.6v-.6c-.5-2.7-.9-5.4-1.3-8.2l-.6-.6c.2-1.1.4-2.2.6-3.2v-1.2c.2-.3.4-.5.6-.6h1.9c0-1.3 0-1.3-.6-1.3v-5.7c.2-.3.4-.5.6-.6v-1.3h-.6c-.3.2-.5.4-.6.6h-.6v-.6l-.6-.6v-.6l-.6-.6v-1.3c.2-.2.4-.5.6-.6v-.6c.2-1 .4-2 .6-3.1v-2.6c.2-.2.4-.5.6-.6v-.6c.2-.2.4-.5.6-.6.2-.2.4-.5.6-.6l.6-.6c-.2.5-.4.2-.6 0zm-12.1 5.7l-.6-.6h.6v.6zm2.6 37.4h-.6c-.6 0-.6 0-.6-1.3 1.3 0 1.3 0 1.3.6v.7zm0-23.4h-.6v-.6h.6v.6zm8.3 32.6v.9c-.1-.4-.1-.7 0-.9zm-2.6-14.3h-.6v-.6h.6v.6zm.6-5h-1.2v-1.9h1.2v1.9zm1.3-15.2v1.9c0 .6 0 .6-1.3.6V542.3c0-.7 0-.7 1.3-.7z"/>
  <path d="M-159.8 530.2v1.3c.6 0 .6 0 .6-1.3h-.6z"/>
  <path d="M-145.9 523.8c.2.2.4.5.6.6.6 0 .6 0 .6-1.3-1.2.1-1.2.1-1.2.7z"/>
  <path d="M-154.8 591.6c-.3-.5-.5-.9-.6-1.3l-.6-.6-.6-.6c-.2-.3-.5-.5-.6-.6v-3.8c-.2-.3-.5-.5-.6-.6v-.6c-.2-.3-.5-.5-.6-.6v-4.4c-.2-.3-.5-.5-.6-.6.2-.3.5-.5.6-.6h1.3c.2-.3.5-.5.6-.6v-1.9l-.6-.6h-.6l-.6-.6v-.6h-.6c-.2.2-.4.5-.6.6h-.6v-1.8l-.6-.6v-.6c.4-.2.8-.5 1.3-.6-.9-.2-1.7-.5-2.6-.6v-1.3c.2-.2.4-.5.6-.6V565h-.6c-.6.4-1.3.8-1.9 1.2l-.6-.6c-.2-.4-.5-.8-.6-1.2l-.6-.6-.6-.6c-.2-.2-.4-.5-.6-.6v-1.3c.2-.2.4-.5.6-.6v-.6h-.6c-.3.2-.5.5-.6.6h.6-1.2c-.8-.2-1.7-.5-2.6-.6-.5-.2-.8-.4-1.3-.6-.6-.5-1.3-.9-1.8-1.3l-.6-.6c-.2-.3-.5-.5-.6-.6l-.6-.6h-.6l-.6-.6-.6-.6-.6-.6h-.6c-.5-.2-.9-.4-1.3-.5h-.6l-.6-.6-.6-.6v-1.3c-.2-.3-.5-.5-.6-.6v-1.3c.2-.6.5-1.3.6-1.8V546c-.2-.3-.5-.5-.6-.6h-1.3c-.2.4-.4.8-.6 1.3v.6h-1.3c-.3-.5-.5-.9-.6-1.3l-.6-.6v-.6c-.3-.5-.5-.9-.6-1.3v-.6l-.6-.6v-.6c-.3-.2-.5-.5-.6-.6v-1.2c.2-.5.4-.9.6-1.3.2-.5 1-1.8 1.3-1.9v-.6h-1.9c.2-.2.4-.5.6-.6.2-.5.4-.8.6-1.3h.6c.9-.5.9-.5.6-.6l.6-1.8-.6-.6c.4-.3.8-.5 1.3-.6l.6.6h2.5v1.3h3.8c.2.2 1.3 1.2 1.3 1.2v.6c-.6.2-1.3.5-1.8.6v.6c.2.2.4.5.6.6.2.5.5.8.6 1.3.8.2 1.7.4 2.6.6.2.2.5.4.6.6.2.4.4.8.6 1.3v1.8l.6.6v4.4l.6 1.8h-.6c-.3.4-.5.8-.6 1.3v1.3l1.8.6c.2.2.5.4.6.6.4.2.9.4 1.3.6.2.2.5.4.6.5v.6l.6.6.6.6.6.6v.6l.6.6c.2-.5.4-.9.6-1.3-.2-.2-.4-.5-.6-.6v-1.3c.2-.2.4-.5.6-.6v-1.8c.2-.3.5-.5.6-.6v-1.3c.2-1.7.5-3.4.6-5 .2-.5.5-.9.6-1.3-.2-.3-.5-.5-.6-.6v-4.4c-.2-.3-.5-.5-.6-.6-1.1-3.1-.9-4.3 0-7.6v-.6h-.6c-.2.2-.4.5-.6.6h-1.9c-.2.2-.5.4-.6.6-.2.2-.5.4-.6.6-.2-.3-.5-.5-.6-.6-.2-.3-.5-.5-.6-.6-.2-.5-.5-.8-.6-1.3l-.6-.6c-.2-.2-.4-.5-.6-.6v-1.9c.3-.2.3-.2-.6-.6v-1.2c-1.3 0-1.3 0-1.3.6-.2.2-.5.4-.6.6l-.6.6-.6-.6c-.2-.4-.5-.7-.6-1.2h-.6c-.4-.2-.8-.5-1.2-.6v-.6h-.6c-.5.2-.9.5-1.3.6h-.6v-.6h-1.9v-1.3c-.2-.5-.4-.8-.6-1.3h-.6c-.5.5-.9.8-1.3 1.3h-1.3v.6c-.5.6-.9 1.3-1.3 1.9-.3.2-.5.5-.6.6-.2-.2-.4-.5-.5-.6v-.6c-1.3 0-1.3 0-1.3.6h-.6v-1.9c-1.3 0-1.3 0-1.3.6v.6h-.6c0 1.3 0 1.3.6 1.3v1.2c-.3.2-.5.5-.6.6h-1.3c-.3.2-.5.5-.6.6-.2.6-.5 1.3-.6 1.9l-.6.6c-.2.5-.5.8-.6 1.3v1.3c-.3.2-.5.4-.6.6v3.2h-.6c-.3-.2-.5-.5-.6-.6v-.6c-.5.2-.9.5-1.3.6v.6l.6.6c.6 0 .6 1.3 1.3 1.3l.6.6v.6c-.3.2-.5.4-.6.6-.6 0-.6 0-.6 1.2h1.3c.2.6.4 1.3.6 1.9.1.2.4.4.6.6.2.2.5.4.6.6.2.6.5 1.3.6 1.9v3.1c-.6 0-.6 0-.6 1.3 1.3 0 1.3 0 1.3-.6.4-.3.8-.5 1.3-.6l.6.6v1.3c-.3.2-.5.4-.6.6-.5.2-.9.4-1.3.6v.6h.6c.4.2.8.4 1.3.5h.6c.2.2.4.5.6.6.2.2.4.5.6.6-.5.2-.9.5-1.3.6v.6c.6.2 1.3.4 1.9.6v1.9l.6.6c.7-.2 1.6-.4 2.5-.6l.6.6c.4.5.8.8 1.3 1.3.6.2 1.2.5 1.8.6h.6v2.6c.2.2.5.4.6.6h1.3c0 1.2 0 1.2.6 1.2.4.1.8.2 1.3.4-.4-.3-.9-.7-1.3-1v-.5c.2-.3.4-.5.6-.6h1.3l.6.6v1.8h1.9l.6.6v.6c.5.2.8.5 1.3.6.2.2.4.5.6.6-1.3.2-2.6.5-3.9.6v.6c.4.2.9.4 1.3.6.4.2.9.4 1.3.6.2.2.5.4.6.6.8.2 1.6.5 2.5.6l.6.6.6.6.6.6c.2.5.5.8.6 1.3v.6c-.2.2-.5.4-.6.6V578.9h1.3v1.9h-1.3v-1.2c-1.3 0-1.3 0-1.3.6-.2.2-.5.4-.6.6-.2.4-.5.8-.6 1.3h1.9c.2.2.5.4.6.6.2.2.5.4.6.6v1.9h-1.3c-.2.2-.5.4-.6.6v1.9h-2.5v-1.3c-1.3 0-1.3 0-1.3.6h-.6c-.2.4-.5.8-.6 1.3h-.6c-.2.4-.5.8-.6 1.3 0 0-.9.1-1.8 0-.5-.3-.9-.5-1.3-.6h-1.3c-.2-.3-.5-.5-.6-.6v-.6c-.2-.3-.5-.5-.6-.6v-.6h-1.8l-.6-.6c-.3-.2-.5-.4-.6-.6-.5-.3-.9-.5-1.3-.6l-1-1c.1-.3.2-.6.4-.9h.6V581h-.6c-.3-.5-.5-.8-.6-1.3-.3-.2-.5-.5-.6-.6-.2-.2-.4-.5-.5-.6.2-.2.4-.4.5-.6.2-.3.4-.5.6-.6h.6c.2-.3.4-.5.6-.6v-.6c.2-.3.4-.5.6-.6v-1.3c.2-.2.4-.5.6-.6.2-.2.4-.5.6-.6v-.6c-.3-.2-.5-.5-.6-.6V566.1h-2.6v.6h-1.2v1.9h-2.6v-.6c-.3-.2-.5-.5-.6-.6h-.6c-.3.2-.5.5-.6.6.2.6.4 1.3.6 1.9-.3.2-.5.4-.6.6v.6c-.3.6-.5 1.3-.6 1.9-.3.2-.5.5-.6.6-.2.5-.5.8-.6 1.3-.2.2-.5.4-.6.6-.2.4-.5.8-.6 1.3v1.2c-.3.3-.5.6-.6.9.4.1.7.2 1.2.3 0 1.3 0 1.3-.6 1.3h-.6v1.3c-.1.6-.2 1.4-.2 2 .3.2.6.4.8.6.1.2.4.4.6.6v.6c.2.2.5.4.6.6.2.2.5.4.6.6v1.3c.4.2.9.4 1.3.6v.6h-.6c0 1.3 0 1.3.6 1.3l.6.6v1.2c-.3.2-.5.5-.6.6h.6c.1-.1.4-.4.7-.6h1.3c.2.2.4.5.6.6v1.9h1.8l.6.6v1.3h2.5c.8.2 1.7.4 2.5.6h1.3c.2.8.5 1.7.6 2.5.2.4.4.9.6 1.3.2.2.4.5.6.6v.6l.6 1.2c.2.2.4.5.6.6v1.3c.2.2.4.5.6.6.2.2.4.5.6.6l.6.6.6.6c.2.5.5.8.6 1.3.2-.3.5-.5.6-.6v-5.7h.6c0-1.3 0-1.3-.6-1.3v-1.3h1.3c.2.4.4.7.6 1 .4-.2.8-.3 1.2-.4-.2-.2-.4-.5-.6-.6h-.6c-.3-.2-.5-.5-.6-.6v-1.3c.4-.2.8-.5 1.3-.6v-.6c.4-.3.8-.5 1.2-.6.2.4.5.9.6 1.2v1.9c1.3 0 1.3 0 1.3-.6v-.6l-.6-.6c-.2-.8-.5-1.7-.6-2.5.6-.3 1.3-.5 1.9-.6.6-.3 1.3-.5 1.9-.6.2-.3.4-.5.6-.6 1-.2 2-.5 3.1-.6l.6-.6c.5-.2.8-.4 1.3-.6h.6c.6-.3 1.3-.5 1.9-.6h.6v-.2c1.3 0 1.3 0 1.3.6.2.2.5.4.6.6.6.9.6.9 2.6 1.8l.6-1.2c-1-.3-1.2-.8-1.4-1.2zm-20.9-60.1c-.2.4-.5.8-.6 1.2-.2-.2-.4-.5-.5-.7.4-.3.7-.4 1.1-.5zm-1.3 4.4c.6.1 1.3.2 1.9.3-.9.6-.9.6-1.9.4v-.7zm-1.3-7h.6v.6h-.6v-.6zm-11.3.6v-1.3h.6v1.3h-.6zm-8.6 7.6c-.3-.5-.6-.8-.9-1.3h1.2c-.1.5-.2.9-.3 1.3zm1.6-3.8h-.6v-.6h.6v.6zm3.2 7.6h-.6v-.6h.6v.6zm12 19h-.6v-.6h.6v.6zm4.4-1.2h-.6v-1.3h.6v1.3zm2.6 7.5h-.6v-.6h.6v.6zm0-5.7h-.6v-.6h.6v.6zm3.7 3.9h-1.3v-.6h1.3v.6zm-18.9 8.8h1.3v.6h-1.3v-.6zm-5.1 7.6h-1.3v-.6h1.3v.6zm1.9 3.9h-1.3v-.7h1.3v.7zm.7-2.6h-.6v-.6h.6v.6zm.6-10.2h1.2v.6c-1.2.1-1.2.1-1.2-.6zm1.9 22.9h-1.2v-.6h1.2v.6zm8.2 2.5h-.6V596h.6v1.3zm3.8 8.8h-.6v-.6h.6v.6zm8.2-27.8h1.3v1.2h-1.3v-1.2zm0 1.9v-.6h1.3c-.4.1-.8.4-1.3.6zm2 3.2h-.6v-.6h.6v.6z"/>
  <path d="M-172.6 579h.6v.6h-.6z"/>
  <path d="M-171.3 577.7c0 1.3 0 1.3.6 1.3v-1.3h-.6z"/>
  <path d="M-174.4 543.5h.6v3.2h-.6z"/>
  <path d="M-59 609.8v-.6l-.6-.6c-.2-.8-.4-1.7-.6-2.6-.3-.2-.5-.5-.6-.6-.3-.4-.5-.8-.6-1.2-.3-.5-.5-.9-.6-1.3-.3-.2-.5-.5-.6-.6h-.6c-.3-.2-.5-.5-.6-.6-.3-.2-.5-.5-.6-.6v-1.3c-.3-.2-.5-.5-.6-.6-.3-.2-.5-.4-.6-.6-.2-.3-.4-.5-.5-.6l-.6-.6-.6-.6-.6-.6-.6-.6c-.9-.5-1.7-.8-2.6-1.3v-1.2c-.5-.3-.8-.5-1.3-.6-.2-.3-.5-.5-.6-.6v-.6c-.2-.3-.4-.5-.6-.6l-.6-.6c-.3-.5-.5-.9-.6-1.3l-.6-.6-.6-.6c-.3-.2-.5-.4-.6-.6-.2-.3-.5-.5-.6-.6-.2-.3-.5-.5-.6-.6-.2-.3-.5-.5-.6-.6-.2-.3-.5-.5-.6-.6-.2-.9-.5-1.7-.6-2.6l-.6-.6H-82c0-.6 0-.6 1.3-1.3-.3-.2-.5-.4-.6-.6-.5-.3-.8-.5-1.3-.6-.2-.5-.5-.9-.6-1.3h-.3c-.2-.1-.4-.3-.5-.4-.2-.3-.5-.5-.6-.6l-1.9-1.9v-1.9l-.6-.6v-1.9c.2-.2.4-.5.6-.6v-.6l.6-.6c.5-.6.8-1.3 1.3-1.9l.6-.6c.2-.2.5-.4.6-.6v-.2h.1c.2-.3.5-.5.6-.6.6 0 .6 0 .6-1.3h1.3c.1-.2.4-.5.6-.6.5-.6.8-1.3 1.3-1.9v-2.4c.2-.3.5-.5.6-.6.2-.3.5-.5.6-.6v-.4l-.3-.3c.1-.2.2-.3.3-.4l.4.4h.3V555.6c-.1-.2-.2-.3-.3-.4l.3-.3c.1.1.2.2.4.3h.3c.2-.2.4-.5.6-.6h.6c.2-.2.4-.5.6-.6h.6c.2-.2.4-.5.6-.6.2-.2.4-.4.6-.5v-2.6h1.3c.2-.3.5-.5.6-.6h.6c.2-.3.4-.5.6-.6.2-.3.4-.5.6-.6h.6c.2-.2.4-.5.6-.6.2-.2.4-.4.6-.5l-.6-.6c.4-.5.8-.9 1.3-1.3.2-.3.4-.5.6-.6.2-.3.4-.5.5-.6.2-.3.4-.5.6-.6.2-.6.4-1.3.6-1.9h-.6c-.5-.2-.8-.5-1.2-.6V540h1.2c.9-1.9.9-1.9.7-3.1-.5.4-.9.7-1.4 1.2l-1.2.6-1.9 1.9c-.2.2-.4.3-.6.6-.3.2-.5.5-.6.6-.3.2-.5.4-.6.6h-.6c-.2.4-.5.8-.6 1.3H-73c-.2.2-.5.4-.6.6l-.6.6v.6c-.3.2-.5.4-.6.6h-.6c-.3.2-.5.4-.6.6h-.6c-.3.2-.5.4-.6.6-.5.2-.8.4-1.3.5h-.6v.6h1.3c0 .6 0 .6-1.3.6v.6c-.2.2-.5.4-.6.6h-.6c-.2-.3-.5-.5-.6-.6h-1.8c-.5.8-.8 1.7-1.3 2.6-.2.2-.5.4-.6.6v.5l.6.6h1.3v.6H-84c0 .1-.1.2-.1.3v-.7l-.3.3c-.1 0-.1-.1-.2-.2v.4l-.1.1-.6.6c-.2.5-.5.8-.6 1.3.4.1.6.2 1 .3-.4-.1-.6-.2-1-.3v.6c-.3.4-.6.8-.9 1.3.1-.5.2-.9.3-1.3-.6-1-.6-1-2.5-1.3-.2.6-.5 1.3-.6 1.9v.6c.2.2.5.4.6.6v.6l-.6.6-.6.6c-.2.5-.5.8-.6 1.3l-.6.6c0 .6 0 .6-1.3.6 0-1.3 0-1.3.6-1.3l.6-.6v-.6c-.5-.2-.8-.5-1.3-.6v-3.1l-.6-6.3c.2-.3.4-.5.6-.6.2-1.1.5-2.1.6-3.1-.2-.3-.5-.5-.6-.6V542c.2-.3.5-.5.6-.6h.6c.4-.2.6-.5 1-.6-.2-.6-.3-1.2-.4-1.8-.2-.6-.5-1.3-.6-1.9v-2.6c-.3-.2-.3-.2.6-.6h.6c-.2-1.5-.5-2.9-.6-4.4-.5-1.3-.8-2.6-1.3-3.9h-.6c-.2-.2-.4-.5-.6-.6-.5-.2-.9-.4-1.3-.6-.3-.2-.5-.5-.6-.6h-3.8c-.3.2-.5.5-.6.6v2.4c-.3.2-.5.5-.6.6-.3.5-.5.8-.6 1.3-.3.2-.5.5-.6.6-.3 1.1-.5 2.1-.6 3.1-.5.8-.9 1.7-1.3 2.6.2.6.4 1.3.6 1.9v.6c.2-.3.4-.5.6-.6h1.3c-.3.6-.5 1.3-.6 1.9l.6.6c.2 1.2.4 2.5.6 3.8v.6l.6.6v1.3c-.3.2-.5.4-.6.6-.3.2-.5.4-.6.6l.6 1.2c-.3.2-.5.4-.6.6h-1.9v1.3l.6.6v.6c.5-.1 1.1-.2 1.7-.2-.2.3-.4.6-.5.8h.6v1.8h-.6v1.9c-.6.1-1.2.3-1.8.5.2.3.4.5.6.8l.6.6.6.6c.3 4.4.3 4.4 1.3 8.2-.3.2-.5.5-.6.6v.6h.6c0 1.3 0 1.3-.6 1.3v1.3c-.3.4-.5.8-.6 1.2v1.3c-.3.2-.5.5-.6.6-.3.4-.5.8-.6 1.3-.3.2-.5.5-.6.6v.6l.6.6v.6h.6v1.8h-1.3c-.3.5-.5.8-.6 1.3v.6h1.3c.2-.4.4-.9.6-1.3.2.4.4.9.6 1.3.3-.2.6-.5.9-.6.1-.1.2-.2.4-.3.4-.2.8-.3 1.2-.4 0 .6 0 .6-.9.6-.1.1-.2.2-.3.4v.9h-1.3v1.9h-1.9v1.3c.2.4.4.8.6 1.3h1.9v.6h-1.9c-.3.6-.5 1.3-.6 1.9v.6c-.5.8-.9 1.7-1.3 2.6v.6h.6c.4-.5.8-.9 1.3-1.3.1-.5.2-.9.3-1.3.4.4.6.8 1 1.3v1.6l.3.3h.4c.2 1.5.4 2.9.6 4.5-.3.2-.5.4-.6.6v.6c-.3.2-.5.5-.6.6-.5.6-.9 1.3-1.3 1.9v.6c.2.2.4.5.6.6.2.4.4.8.6 1.3l.6 1.8c.2.2.4.5.6.6v1.3c.2.8.4 1.7.6 2.6.2.1.4.4.6.5v1.3h1.9v-.6l.6-1.8v-.6c.2-.2.4-.5.6-.6.2-.6.4-1.3.6-1.9.2-.2.4-.5.6-.6.2-.5.4-.8.6-1.3v-.6h-.6c0-1.3 0-1.3.6-1.3.2-.2.4-.5.6-.6-.2-1.1-.4-2.1-.6-3.2-.3-.8-.5-1.7-.6-2.5v-3.8c.2-.9.4-1.7.6-2.6v-.6c.2-.2.3-.4.6-.6V586h-1.2v-2.6c.2-1.7.4-3.4.6-5h.6c.2.2.5.4.6.6.2.2.5.4.6.6.2.5.5.8.6 1.3l.6.6c.2.2.5.4.6.6h.6c.2.4.5.8.6 1.3v.6c.2.4.4.8.6 1.3l.6.6c.3-.2.7-.5 1-.6.1-.1.2-.3.3-.4l.4.4c-.2.1-.3.2-.4.3v.4c.2.4.5.8.6 1.2v.6h.6c.2-.2.4-.3.6-.5.1.1.2.2.2.3.2.4.5.8.6 1.3v2.5c-.2.4-.5.8-.6 1.3h.6c.5.2.8.4 1.3.6h.6c.1.2.4.5.6.6l.6.6c.2.4.5.8.6 1.3v1.3h1.9v-.6c1.3 0 1.3 0 1.3.6h.6c.2.4.4.8.6 1.3v.6c.2.2.4.5.6.6.2.2.4.5.6.6.2.2.4.5.6.6v.6c.2.5.5.8.6 1.3.2.2.5.4.6.6h1.3c.4-.3.8-.5 1.3-.6.2.4.4.8.6 1.3l.6.6c.2.4.4.9.6 1.3.2.2.4.5.6.6.2.2.4.5.6.6v.6c.2.2.4.5.5.6v.6c1.1-.2 2.1-.5 3.2-.6.4.2.8.5 1.3.6.2.2.4.5.6.6l.6.6c.2.1.4.4.6.5h1.3v-.5c.4 0 .1-.1 0-.3zm-26.1-51.1h.1v.6h-.1v-.6z"/>
  <path d="M-85 587v.8l.4.4c-.2.1-.3.2-.4.3V587z"/>
  <path d="M1.8 617.4h.6v2.5h-.6z"/>
  <path d="M-59.7 611h1.3c0 .6 0 .6-1.3.6v-.6z"/>
  <path d="M-47 605.9c-.2-.5-.5-.8-.6-1.3v-.6c-.4-.6-.8-1.3-1.2-1.9-.5-.2-.9-.5-1.3-.6v-1.2c.6 0 .6 0 .6-1.3h-.6c-.3-.2-.5-.4-.6-.6-.2-.3-.5-.5-.6-.6v-2.4c-.2-3.2-.5-6.3-.6-9.4-.2-.3-.5-.5-.6-.6-.2-.3-.5-.5-.6-.6v-1.9c0-.6 1.3-.6 1.3-1.3l.6-.6v-4.1c-.2-.5-.5-.8-.6-1.3v-.6c-.2-.5-.5-.8-.6-1.3v-.7h1.3c-.2-1.5-.5-2.9-.6-4.4-.6-.2-1.3-.5-1.9-.6-.2-.2-.4-.5-.6-.6v-.6c1.2 0 1.2 0 1.2-.6h-1.2v-.6c-.3-.2-.5-.5-.6-.6h-1.3c-.3-.2-.5-.4-.6-.6v-.6c.2-.2.4-.5.6-.6.2-.2.4-.5.6-.6v1.3l.6.6c.2-.3.4-.5.6-.6v-1.2c-.5-.2-.9-.5-1.3-.6V561c-.3-.2-.5-.5-.6-.6-.3.2-.5.5-.6.6-.3.2-.5.5-.6.6-.3.2-.5.5-.6.6l-.6.6c-.2.5-.5.8-.6 1.3h-1.2c-.3.2-.5.4-.6.6h-1.3v2.6c-.3.2-.5.5-.6.6-.3.2-.5.5-.6.6v1.3c-.3.2-.5.4-.6.6v.6c-.3.7-.5 1.7-.6 2.5v1.3c-.3.4-.5.8-.6 1.3v.6l.6.6v5.7c-.3.2-.5.4-.6.6-.2.2-.4.4-.5.6v1.3c.2.6.4 1.2.5 1.8.2.4.4.8.6 1.3v2.2c-.1.1-.2.2-.3.4-.9 0-.9 0-.9.6.4-.2.7-.3 1.2-.4l.3-.3h.4v1.3c-.2.2-.5.3-.6.6v.6h-1.2c-.3-.2-.5-.5-.6-.6-.3-.2-.5-.4-.6-.6v-.6h-.6v.6h-1.9l-.6-.6v-1.9h-1.3c-.2-.5-.5-.9-.6-1.3-.2-.3-.5-.5-.6-.6-.2-.5-.4-.8-.6-1.3h-.6c-.2-.2-.4-.3-.6-.6-.3-.6-.5-1.3-.6-1.9l-.6-.6c-.3-.6-.5-1.3-.6-1.9-.2-.3-.5-.5-.6-.6l-.6-.6v-.5l.6-.6h.6l.6-.6v-1.9H-78c-.2-.3-.5-.5-.6-.6v-.6l-.6-.6c.5-.2.8-.5 1.3-.6l.6.6v.6l.6.6c.2-.5.4-.8.6-1.3v-.6c-.3-.2-.5-.5-.6-.6v-1.3c.2-.2.4-.5.6-.6v-1.2h.6v-2.6h-.6V566c.4-.2.8-.5 1.3-.6v-.6c-.3-.2-.5-.4-.6-.6v-.6c-.3-.2-.5-.5-.6-.6v-2.6c.2-.2.4-.5.6-.6v-2c.2-.6.4-1.3.6-1.9h.6c.2-.5.4-.8.6-1.3h.6l.6-.6.6-.6c.2-.6.4-1.3.6-1.8v-.6c.2-.3.4-.5.6-.6h.6l.6.6c.4.2.8.4 1.3.6v1.3h1.3c-.2.2-.5.3-.6.5h-.6v1.9h.6v.6c-.3.4-.5.8-.6 1.3v.6l.6.6c0 .6-1.3.6-1.3 1.2v.6c.2.2.4.5.6.6.4-.2.8-.5 1.3-.6.2-.2.4-.5.5-.6.5-.4.8-.8 1.3-1.2.2-.3.4-.5.6-.6v-.6c.2-.3.4-.5.6-.6.2-.3.4-.5.6-.6.2-.2.4-.5.6-.6.6-.5 1.3-.8 1.9-1.3.6-.2 1.2-.5 1.8-.6.2-.2.4-.4.6-.5.2-.3.4-.5.6-.6h.6c.2-.3.4-.5.6-.6.2-.3.4-.5.6-.6.2-.3.4-.5.6-.6h.6c.2-.3.5-.5.6-.6h1.3v1.3h.6c.5.2.8.4 1.3.6v1.8c.2.2.4.5.6.6h1.2v1.3h.6v1.3c.2.2.5.4.6.6.2.2.5.4.6.6.2.2.5.4.6.6v.6l.6.6v1.9c-1.3 0-1.3 0-1.3.6h1.9c0 .6-1.3.6-1.3 1.3h1.9v1.2h-1.3c-.3.2-.3.2.6.6h.6l.6.6c.2.5.4.8.6 1.3v1.9H-45v2.5h.6c.2.2.4.5.6.6l.6.6c.2.6.5 1.3.6 1.9.2.5.5.8.6 1.3-.2.2-.5.4-.6.6h-1.8c-.2.2-.5.4-.6.6.2.2.5.4.6.6l1.2.6v2.5c-.2 1.7-.5 3.4-.6 5.1v6.3c.2.2.5.4.6.6-.4 1.6-.8 3.4-1.2 5.1-.2.2-.5.4-.6.6v1.9l-.6.6c-.2.5-.5.8-.6 1.3-.2.8-.5 1.7-.6 2.5l-.6.6.4.2z"/>
  <path d="M-69.8 604.1h.6v.6h-.6z"/>
  <path d="M-69.1 604.6v-.6l.6.6h-.6z"/>
  <path d="M-67.8 604.6v-1.2h.6v1.2h-.6z"/>
  <path d="M-69.8 604.1v-1.3c.2.4.4.8.6 1.3h-.6z"/>
  <path d="M-48.9 602.2c.4.6.8 1.3 1.2 1.9h-1.2v-1.9z"/>
  <path d="M-71.7 600.9h.6v.6h-.6z"/>
  <path d="M-50.1 600.2V599h.6c0 1.2 0 1.2-.6 1.2z"/>
  <path d="M-80 597.1h2v.7h-2v-.7z"/>
  <path d="M-78 597.1v-.6c1.3 0 1.3 0 1.3.6H-78z"/>
  <path d="M-78 595.2h1.3v.6H-78z"/>
  <path d="M-46.4 593.9h.6v1.3h-.6z"/>
  <path d="M-69.8 592.7h1.3c0 .6 0 .6-1.3.6v-.6z"/>
  <path d="M-83.7 591.4c-.2.4-.5.8-.6 1.3-.6 0-.6 0-.6-1.3h1.2z"/>
  <path d="M-65.6 591.4l.3.3c-.5.1-.8.2-1.2.4-.1-.7-.1-.7.9-.7z"/>
  <path d="M-65.4 591.7l-.3-.3c.1-.2.2-.3.3-.4.1.1.2.2.3.4l-.3.3z"/>
  <path d="M-65.1 591.4c-.1-.2-.2-.3-.3-.4v-.9c.2.4.4.8.6 1.3h-.3z"/>
  <path d="M-84.4 589.5h.6v.6c-.1-.2-.4-.4-.6-.6z"/>
  <path d="M-85 588.9h.6v.6c-.1-.3-.4-.5-.6-.6z"/>
  <path d="M-84.4 589.5v-.6h.7v.6h-.7z"/>
  <path d="M-85 588.9v-.4c.1-.1.2-.2.4-.3l.3.6-.7.1z"/>
  <path d="M-84.4 588.9l-.3-.6-.4-.4v-.3h.6c.2.4.5.8.6 1.3h-.5z"/>
  <path d="M-85 587.6v-.6c.2.2.5.4.6.6h-.6z"/>
  <path d="M-76.1 585.1v-.6c.2.6.4 1.3.6 1.9-.2-.5-.4-.9-.6-1.3z"/>
  <path d="M-66.6 585.7v-1.3c.5 0 .5 0 .5 1.3h-.5z"/>
  <path d="M-77.4 581.9c.2.6.4 1.3.6 1.9v1.3c-.2-1.1-.4-2.2-.6-3.2z"/>
  <path d="M-76.7 584.5h.6v.6h-.6z"/>
  <path d="M-76.7 584.5v-.6l.6.6h-.6z"/>
  <path d="M-12.8 584.5v-1.3h1.3c-.5.3-.8.8-1.3 1.3z"/>
  <path d="M-67.8 583.8v-1.3h.6v1.3h-.6z"/>
  <path d="M-82.4 581.9h.6v1.3h-.6z"/>
  <path d="M-48.9 581.9l1.2.6c0 .6 0 .6-1.2.6v-1.2z"/>
  <path d="M-52.1 581.2c0 .6-1.3.6-1.3 1.3-.6 0-.6 0-.6-1.3h1.9z"/>
  <path d="M-48.9 581.9c0-.6 0-.6 1.2-.6v1.3c-.3-.3-.8-.5-1.2-.7z"/>
  <path d="M-52.1 581.2c.2-.8.5-1.7.6-2.5v1.8c-.1.3-.4.6-.6.7z"/>
  <path d="M-81.8 579.3c.1.5.4.8.6 1.3H-83c-.1-.6-.1-.6 1.2-1.3z"/>
  <path d="M-42 580.6v-1.3c.6 0 .6 0 .6 1.3h-.6z"/>
  <path d="M-12.8 578.1v-.6h1.3v.6h-1.3z"/>
  <path d="M-7.8 576.8v-.6h.4l.3.3v.3h-.7z"/>
  <path d="M-76.7 576.2l-.6-.6v-1.2h1.3v.6c-.4.3-.6.8-.7 1.2z"/>
  <path d="M-10.9 574.3h.6v1.9h-.6z"/>
  <path d="M-7.8 576.2v-.6c.2.1.5.2.6.4l-.3.3h-.3v-.1z"/>
  <path d="M-12.8 575.6c.4-.5.6-.8 1-1.3.1.5.2.8.3 1.3h-1.3z"/>
  <path d="M-78 574.3h.6v.6l-.6-.6z"/>
  <path d="M-77.4 574.3v-.7h.7v.7h-.7z"/>
  <path d="M-76.7 574.3v-.6c.2.2.4.5.6.6h-.6z"/>
  <path d="M-77.4 573.6c.2-.5.4-.8.6-1.3v1.3h-.6z"/>
  <path d="M-42 571.4l-.3-.3c.1-.1.2-.3.3-.4l.4.4c-.1.1-.3.2-.4.3z"/>
  <path d="M-43.2 569.2h.6c.2.6.5 1 .6 1.6-.1.1-.2.2-.3.4h-.9v-2z"/>
  <path d="M-76.1 567.9h.6v2.6h-.6z"/>
  <path d="M-54.5 566.7v-.7h1.2c-.1.7-.1.7-1.2.7z"/>
  <path d="M-76.7 566c-.3-.2-.5-.5-.6-.6.2-.6.4-1.3.6-1.8l.6.6v1.8h-.6z"/>
  <path d="M-76.1 566v-.6h1.3c-.5.2-.9.4-1.3.6z"/>
  <path d="M-62.8 566v-1.3h1.3l-1.3 1.3z"/>
  <path d="M-76.1 565.4V563.6h.6v.6l.6.6v.6h-1.2z"/>
  <path d="M-45.1 564.7h.6v.6c-.9-.4-.9-.4-.6-.6z"/>
  <path d="M-44.4 564.7h.6v.6h-.6z"/>
  <path d="M-76.7 563.5h.6v.6c-.3-.2-.5-.4-.6-.6z"/>
  <path d="M-55.2 564.2l-.6-.6v-1.3h1.3v1.3c-.3.1-.5.3-.7.6z"/>
  <path d="M-76.1 563.5v-.6c.2.2.4.5.6.6h-.6z"/>
  <path d="M-45.1 561.6h1.3v1.9h-1.9c0-.6 1.3-.6 1.3-1.3h-1.9c-.1-.6-.1-.6 1.2-.6z"/>
  <path d="M-55.8 562.2v-.6c.4.2.8.5 1.3.6h-1.3z"/>
  <path d="M-56.5 561h.6v.6l-.6-.6z"/>
  <path d="M-68.5 560.3h.6v.6c-.2-.1-.4-.4-.6-.6z"/>
  <path d="M-67.8 561v-.6h1.3c-.5.1-1 .4-1.3.6z"/>
  <path d="M-57.1 561c.2-.2.4-.5.6-.6v.6h-.6z"/>
  <path d="M-56.5 561v-.6c.2.2.4.5.6.6h-.6z"/>
  <path d="M-68.5 560.3v-.6c.2.2.4.5.6.6h-.6z"/>
  <path d="M-67.8 560.3c-.3-.2-.5-.5-.6-.6 0-.6 1.3-.6 1.3-1.2.6 0 .6 1.2 1.2 1.2-.2.2-.4.5-.5.6h-1.4z"/>
  <path d="M-8.9 555.3c-.3 1.2-.5 2.5-.6 3.8h-.6v-3.8h1.2z"/>
  <path d="M-78.7 557.2v-.4c.1-.1.2-.2.4-.3h.3c-.2.2-.5.4-.7.7z"/>
  <path d="M-78.7 556.8l-.3-.3c.1-.2.2-.3.3-.4l.4.4c-.1.1-.3.2-.4.3z"/>
  <path d="M-85 555.9V555c.1-.2.2-.3.4-.4h.3c-.2.5-.5.9-.7 1.3z"/>
  <path d="M-78 555.9v-.3c.1-.2.2-.3.4-.4h.3l-.7.7z"/>
  <path d="M-78 555.6c-.1-.2-.2-.3-.3-.4l.3-.3c.1.1.2.2.4.3-.2.2-.4.3-.4.4z"/>
  <path d="M-67.2 553.3v2h-.6v-2h.6z"/>
  <path d="M-8.9 552.8h.5v2.5h-.5z"/>
  <path d="M-84.6 554.6c-.1-.1-.3-.2-.4-.3v-.3h.6v.6h-.2z"/>
  <path d="M-84.4 554h1.3v.6h-1.3z"/>
  <path d="M-48.3 554.6v-.6l.6-.6v.6c-.1.2-.4.5-.6.6z"/>
  <path d="M-85 554v-.6l.6.6h-.6z"/>
  <path d="M-47.7 553.3h.6v.6h-.6z"/>
  <path d="M-67.8 551.5h.9c.1.1.2.2.4.3.2-.1.4-.2.5-.3.6 0 .6 0 .6 1.3h-2.5v-1.3z"/>
  <path d="M-66.6 551.8l.3-.3h.3l-.6.3z"/>
  <path d="M-66.6 551.8c-.2-.1-.3-.2-.4-.3.1-.2.2-.3.4-.4.1.1.2.2.3.4l-.3.3z"/>
  <path d="M-73.6 551.5v-1.3h1.3c-.5.4-.9.9-1.3 1.3z"/>
  <path d="M-67.2 551.5c.2-.3.4-.5.6-.6v.3c-.2.1-.3.2-.4.4h-.2z"/>
  <path d="M-66.3 551.5c-.1-.2-.2-.3-.3-.4v-.3h.5v.6h-.2z"/>
  <path d="M-50.1 551.5c-.4-.3-.8-.5-1.3-.6v-.4c.1-.1.2-.2.4-.3h1.6c-.1 1.3-.1 1.3-.7 1.3z"/>
  <path d="M-66.6 550.9v-.6c.2.2.4.4.5.6h-.5z"/>
  <path d="M-66 550.9c-.2-.3-.4-.5-.5-.6.7-.5 1.6-.9 2.5-1.3v1.3c-.7.1-1.4.3-2 .6z"/>
  <path d="M-52.1 550.9v-.7h.4l.3.3v.4z"/>
  <path d="M-7.8 550.2h.6v.6h-.6z"/>
  <path d="M-51.4 550.5l-.3-.3c.1-.2.2-.3.3-.4l.4.4c-.2.1-.3.2-.4.3z"/>
  <path d="M-52.1 550.2v-.6c.2.1.5.2.6.3-.1.1-.2.2-.3.4h-.3z"/>
  <path d="M-11.5 550.2v-1.3c.4.3.8.6 1.3.9-.5.2-.9.2-1.3.4z"/>
  <path d="M-79.3 548.9v-.6h1.3c0 .6 0 .6-1.3.6z"/>
  <path d="M-72.3 547.7h.6v.6h-.6z"/>
  <path d="M-42.6 561.6h.6v1.3h-.6z"/>
  <path d="M-27.9 596.5c-.6-.5-1.3-.9-1.9-1.3v1.3h1.9z"/>
  <path d="M-10.9 568.6c-.3-.8-.5-1.7-.6-2.6v-3.1c-.2-.6-.5-1.3-.6-1.9v-.6c-.2-.5-.5-.8-.6-1.3-.2-.2-.5-.4-.6-.6-.2-.6-.5-1.3-.6-1.9v-.6c-.2-.2-.4-.5-.6-.6v-1.9c-.3-.2-.5-.4-.6-.5h-.6l-.6-.6c-.3-.5-.5-.9-.6-1.3l-.6-.6h-.6c-.3-.5-.5-.9-.6-1.3l-.6-.6h-.6c-.5-.2-.9-.5-1.3-.6-.3-.2-.5-.4-.6-.5l-.6-.6h-.6l-.6-.6h-.6v.6c-1.3 0-1.3 0-1.3-.6-.2-.3-.5-.5-.6-.6h-.6v.6c-1.3 0-1.3 0-1.3-.6h-3.2c-.2.2-.5.4-.6.6-.2.2-.5.4-.6.6h-1.3c-.2.2-.5.4-.6.6-.2.2-.4.4-.6.5-.3.4-.5.8-.6 1.3-.3.2-.5.4-.6.6 0 .6 0 .6-1.3.6v1.9c-.2.2-.5.4-.6.6-.2.2-.5.4-.6.5v.6l-.6.6v.6c-.1.2-.1.4.6 1.3v1.3c-.2.2-.5.4-.6.6h-.6c-.5.2-.8.4-1.3.6l-.6.6v1.3h1.3v-1.3h1.3v.6h-.6v2.6h.6v.6c-.4.2-.9.4-1.3.6-.2-.3-.5-.5-.6-.6h-.6v1.8h.6v1.9c.5.8.8 1.7 1.3 2.6v-.1.1c.2.8.5 1.7.6 2.5l.6.6c.2 2.1.5 4.2.6 6.3.2.5.5.8.6 1.3.2.8.5 1.7.6 2.6l.6.6v.6c-.3.2-.5.4-.6.6v.6l.6.6c.2.4.4.7.6 1.2l1.2.6c.2.2.5.4.6.6.2.4.5.8.6 1.3.2.2.5.4.6.6.2.2.5.4.6.6.2.6.5 1.2.6 1.8.5.2.8.5 1.3.6.2.4.4.9.6 1.3.6.4 1.3.8 1.9 1.3h.6c.1.2.4.4.6.6.2.2.5.4.6.6l.6.6h1.9c.2-.3.4-.5.6-.6.2-.3.4-.5.6-.6.2-.3.4-.5.6-.6.2-.3.4-.5.6-.6h.6c.2-.5.4-.9.6-1.3.2-.4.4-.9.6-1.3l.6-.6c.2-.3.4-.5.6-.6.2-.3.4-.5.6-.6h.6v1.3h1.3v-2.5c.2-.3.4-.5.6-.6v-1.9c.4-.6.8-1.3 1.2-1.8.2-.3.5-.5.6-.6V583h1.3v-1.9c.2-.4.4-.9.6-1.3v-7.6c.2-.5.4-.8.6-1.2v-1.3c-.1-.3-.3-.7-.5-1.1zm-6.9 1.3v7c-.3.2-.5.4-.6.6-.3.4-.5.8-.6 1.3v1.2c-.3.6-.5 1.3-.6 1.9h-2.7v1.9h.6v.6c-.3.2-.5.4-.6.6v.6c-.3.2-.5.4-.6.6V583h-1.3v2.6h-1.3c.1-.8.2-1.6.3-2.3l-.9-.9h-.6c-.2.4-.5.8-.6 1.3h-.6c-.3-.5-.5-.9-.6-1.3l-.6-.6c-.2-.4-.5-.8-.6-1.3-.3-.2-.5-.5-.6-.6-.3-.2-.5-.5-.6-.6-.3-.6-.5-1.2-.6-1.8V569.9c.2-.6.4-1.3.6-1.9.6 0 .6 0 .6-1.3h-.6c-.3-.2-.5-.5-.6-.6 1.4-1.1 1.4-1.1 1.9-2.5.2-.2.4-.5.6-.6.2-.6.4-1.3.6-1.9-.5-.2-.9-.5-1.3-.6v-.6c.2-.8.4-1.7.6-2.5.2-.3.4-.5.6-.6h1.8c.2-.5.5-.8.6-1.3.2-.2.4-.5.6-.6.2-.2.4-.5.6-.6h.6c.2.2.4.5.6.6.6.2 1.3.5 1.9.6.2.8.4 1.7.6 2.6v2.5h.6v-.6l.1.1c.1.1.2.3.3.4l.1.1v3.2c-.6 0-.6 0-.6 1.2h.6c.2.2.4.5.6.6.2.2.4.5.6.6v.6c.2.2.4.5.6.6v2.5z"/>
  <path d="M-26.1 545.8c.2-.3.4-.5.6-.6l.6.6v.6c-1.2.1-1.2.1-1.2-.6z"/>
  <path d="M-28.6 545.2h1.3v.6c-1.3 0-1.3 0-1.3-.6z"/>
  <path d="M-26.7 545.2h.6v.6c-.2-.2-.5-.4-.6-.6z"/>
  <path d="M-26.1 545.8v-.6h.6l-.6.6z"/>
  <path d="M-24.2 543.9h1.3c0 .6 0 .6-1.3.6v-.6z"/>
  <path d="M-69.1 543.9v-.6h1.3v.6h-1.3z"/>
  <path d="M-36.8 543.3h1.8v.6h-1.8z"/>
  <path d="M-33.1 543.3v-.6c1.3 0 1.3 0 1.3.6h-1.3z"/>
  <path d="M-27.9 542.6h1.8v.6h-1.8z"/>
  <path d="M29.7 542H31c0-1.3 0-1.3.6-1.3v1.9h-1.8c-.1 0-.1-.6-.1-.6z"/>
  <path d="M-40.7 539.5v1.2c-.6 0-.6 0-.6-1.2h.6z"/>
  <path d="M27.8 539.5v-.6c1.3 0 1.3 0 1.3.6h-1.3z"/>
  <path d="M31.5 538.9c-.2-.6-.4-1.3-.6-1.9h1.2v1.9h-.6z"/>
  <path d="M-31.1 536.3h2.6v.6h-2.6z"/>
  <path d="M-25.5 536.3h1.9v.6h-1.9z"/>
  <path d="M-21 536.9v-1.3h.6c.1 1.3.1 1.3-.6 1.3z"/>
  <path d="M-17.8 536.3h1.9v.6h-1.9z"/>
  <path d="M-10.2 536.9c0-.6 0-.6 1.3-.6v.6h-1.3z"/>
  <path d="M-34.4 536.3v-.6l.6-.6h1.3v1.3c.1-.1-1.9-.1-1.9-.1z"/>
  <path d="M-27.9 536.3c0-.6 0-.6 1.2-.6v.6h-1.2z"/>
  <path d="M-23.5 535h1.9v1.3h-1.9z"/>
  <path d="M31 536.9h-6.3v.6-.6H17v.6-1.2c-.5-.3-.9-.5-1.3-.6v.6c-.3.2-.5.4-.6.6v.6-.6H5.6v.6-.6H4.3c-.8-.3-1.7-.5-2.5-.6h-3.2c-.4.2-.9.4-1.3.6v-.6h-3.1v.6h-.6v.6c-1.3 0-1.3 0-1.3-.6h-3.8c-.5-.3-.8-.5-1.3-.6h-3.1v.6h-1.9v-.6l-.6-.6c-.3-.2-.5-.5-.6-.6h-1.2c-.3.2-.5.5-.6.6h.6c0 1.3 0 1.3-.6 1.3l-.6-.6h-1.9v.6h-1.9v-.6h-3.1v.6h-2.6v-.6c-.3-.5-.5-.8-.6-1.3h-.6v1.3h-3.1l-.6-.6h-1.3v1.3c-.5.2-.8.4-1.3.6v1.2c-.2.2-.5.4-.6.6h-1.3v1.2c.5.2.8.5 1.3.6.2.2.5.4.6.6v.6c.4.2.9.4 1.3.6h4.4v-.6c1.3 0 1.3 0 1.3.6h3.9v-.6h1.8v.6c.6.2 1.3.4 1.9.6h1.3c.2-.5.4-.9.6-1.3h3.8l.6.6h1.3l.6.6V545.4c1.3 0 1.3 0 1.3-.6.2-.3.4-.5.6-.6h1.9c.2-.3.5-.5.6-.6.2-.5.4-.9.6-1.3h.6l.6.6 1.2.6v.6c.2.2.5.4.6.6v1.9h-.6c-.4.2-.8.4-1.2.5-.6.2-1.3.5-1.9.6v.6c.4.3.8.6 1.3.9-.5.1-.9.2-1.3.4v.6c.4.2.8.4 1.3.6h.6l.6.6v.6h.5v2.5h-.5c-.3 1.2-.5 2.5-.6 3.8.2.2.4.5.6.6.2.5.4.8.5 1.3l.6.6v13.9c.2.1.5.2.6.4.1.1.2.2.4.3-.1.1-.3.2-.4.3v.4c.2-.3.5-.5.6-.6v-1.9h.6c.2 1.3.5 2.6.6 3.9v7.6c-.2.4-.5.8-.6 1.2v3h.6v1.9h-.6c-.2.4-.5.8-.6 1.2-.5.2-.8.5-1.3.6v2.6c.6 0 .6 0 .6 1.3h1.3c0 .7 0 1-.2 1.1-.1.1-.2.1-.5.1v.6c.2.5.5.8.6 1.3v1.3l.6.6v1.3c-.2.2-.5.4-.6.6v.6l.6.6v1.3H-6c0 1.3 0 1.3.6 1.3v3.1c1.3 0 1.3 0 1.3-.6v-1.2h.6v3.7h.5c.4-.8.6-1.7 1-2.6.3.5.6.8.9 1.3.2.5.5.8.6 1.3l.6.6v5l.6.6h.6v-3.1c.2-.5.5-.8.6-1.3.2-.6.4-1.3.6-1.9V611c-.3-.2-.5-.5-.6-.5v-.6c.2-.4.4-.9.6-1.3v-1.9c-.3-.5-.5-.8-.6-1.3v-1.2c.2-.3.4-.5.6-.6l-.6-.6-.6-.6V587.2c0-1.8 0-1.8.6-2.5-.2-.6-.5-1.3-.6-1.9v-.6c.2-.3.5-.5.6-.6v-.6c.2-.6.4-1.3.6-1.8.2-.3.4-.5.6-.6.1 0 .1-.1.2-.1.2-.1.4-.3.7-.4.1 0 .2-.1.3-.1v-1.9c-.2-.5-.5-.8-.6-1.3V573c-.3-.5-.5-.8-.6-1.3-.5-.8-.8-1.7-1.3-2.5v2.5-8.2h-.6v-1.9h.6v-.6l-.6-.6v-.6H.5v-3.1h.6c.2-.3.5-.5.6-.6.2.2.5.4.6.6.2-.3.4-.5.6-.6-.3-.5-.5-.8-.6-1.3l-.5-.8v-1.2c-.2-.3-.5-.5-.6-.6.2-.5.5-.9.6-1.3v-3.2c-.6 0-.6 0-.6 1.3 0-1.3 0-1.3.6-1.3v-1.2c-.2-.3-.5-.5-.6-.6.2-.6.5-1.3.6-1.9h.6c.4.2.9.4 1.3.6v.6h1.8v-.6c.4-.3.8-.5 1.3-.6h.6c.2.2.5.4.6.6l.6.6h1.3c.2-.3.4-.5.6-.6.4-.3.8-.5 1.2-.6.8-.3 1.6-.5 2.6-.6h.6c.2.4.4.8.6 1.3.6 0 .6 0 .6-1.3h1.3v-.6.6h1.8c.8.2 1.7.4 2.6.6.4.2.8.4 1.3.6l.6.6h.6v-.6c.2-.6.4-1.3.6-1.9h1.2c1-.3 2.1-.5 3.2-.6H31c0-1.3 0-1.3.6-1.3V539c-.3-.8-.4-1.4-.6-2.1zm-36.2 33.6h-1.3v-.6h1.3v.6zm-.6 24v-.6h1.3v.6h-1.3zm7.6-18.3h.6v1.9h-.6v-1.9zm-.6 12.7V587v1.9zm0-9.6h.6v.6h-.6v-.6zm0 17.8v.6H-.1v-.6h1.3zm5.6-57H5.6v-.6h1.3v.6zm15.9 0h-1.9v-.6h1.9v.6zm1.3 4.4v-1.9 1.9z"/>
  <path d="M1.8 599h.6v2.6h-.6z"/>
  <path d="M-6.5 599c.2 0 .4 0 .5-.1.2-.1.2-.4.2-1.1h-1.3c0-1.3 0-1.3-.6-1.3v1.9c1.2 0 1.2 0 1.2.6z"/>
  <path d="M-5.8 590.1h.6v1.9h-.6z"/>
  <path d="M-5.8 581.9h.6v3.2h-.6z"/>
  <path d="M3.7 578.1c0 .6 0 .6 1.2.6v-1.3c-.1 0-.2.1-.3.1-.2.1-.5.2-.7.4-.1.2-.1.2-.2.2z"/>
  <path d="M-7.1 575.9l-.3.3.3.3c.1-.1.2-.2.4-.3-.2-.1-.3-.2-.4-.3z"/>
  <path d="M1.2 561.6h.6v1.9h-.6z"/>
  <path d="M.5 556.6h.6v3.1H.5z"/>
  <path d="M2.4 556.6c0 .6 0 .6 1.3.6 0-1.3 0-1.3-.6-1.3-.3.2-.5.4-.7.7z"/>
  <path d="M-7.8 536.9c0 .6 0 .6 1.3.6v-.6h-1.3z"/>
  <path d="M17 536.3c.6 0 .6 0 .6-1.3h-1.9v.6c.4.2.9.4 1.3.7z"/>
  <path d="M-34.4 535.6v-.6h.6c-.1.2-.4.5-.6.6z"/>
</svg>
