<svg xmlns="http://www.w3.org/2000/svg" viewBox="-184.5 523.5 200 90">
  <path d="M14.4 543.5l-.2-.2c-.3-.3-.3-.4.1-.6.2-.1.1-.2.1-.3 0 0-.1-.1-.2-.1-.2 0-.4 0-.6-.1-.1-.1-.3-.1-.4-.1-.6 0-1.2 0-1.8-.1-.4-.1-.7 0-1.1-.1-.2-.1-.4-.1-.6 0-.1.1-.3.1-.4 0-.3-.1-.7-.1-1 0-.4.1-.8 0-1.3 0-.4 0-.8.1-1.2.1H3.4c-.4 0-.8-.1-1.2.2-.2.1-.4-.1-.5-.2-.1-.1-.2-.3-.1-.4.2-.4.1-.8.4-1.2 0 0 0-.2-.1-.2l-.2-.1c-.2.3-.5.3-.7.5-.5.4-.9.8-1.4 1.2-.3.3-.6.3-.9.4-.2.1-.4.1-.5 0-.3-.2-.6-.1-.9-.1-.4 0-.9 0-1.3-.1-.5-.1-1.1-.1-1.7-.1h-1.5c-.3 0-.7.1-1-.2 0 0-.2-.1-.2 0-.3 0-.5-.1-.7-.3-.2-.2-.4-.5-.8-.2h-.2c-.7 0-1.3-.3-2-.4-.4-.1-.7-.2-1.1-.2-.2 0-.3.1-.5.1-.3 0-.5.1-.8.4-.2.2-.5.4-.8.7-.2.2-.4.1-.6.1-.1 0-.2-.3-.1-.4.1-.1.1-.2.2-.2.2 0 .2-.1.2-.2s-.1-.2-.2-.2c-.2 0-.3 0-.5.1-.2 0-.4.1-.7.2-.4.1-.9.2-1.2.6 0 .1-.1.1-.2.1-.2 0-.5 0-.7.1-.2.1-.3 0-.4-.2-.1-.1 0-.3.2-.3.1-.1.1-.2.1-.3 0-.2-.2-.1-.3-.1-.4.2-.9.1-1.3.1s-.7.2-1 .4l-.3.3c-.1.1-.3.1-.4 0-.1-.1-.3-.2-.4-.4-.2-.2-.4-.3-.6-.3-.5 0-.9.1-1.3-.1s-.8-.1-1.2-.1h-.3c-.3.3-.7.2-1 .2-.4 0-.6-.1-.8-.4-.2-.4-.5-.7-1-.8-.3-.3-.7-.2-1-.2-.1 0-.2 0-.2.1v.3c.1.2.3.4.5.6.1.2.1.3 0 .5-.2.2-.4.2-.7.2-.3 0-.5-.1-.5-.4 0-.2-.2-.3-.1-.6 0-.1 0-.2-.1-.3-.1-.1-.1-.2-.2-.2-.2 0-.4-.1-.5 0-.1 0-.1.3-.1.4v.3c0 .3-.1.4-.4.4-.3 0-.5.1-.7.2-.2.1-.4.1-.6 0-.5-.2-.9-.5-1.4-.7-.2-.1-.5-.2-.7-.2-.1 0-.2 0-.3.1-.1.2-.2.4-.4.5-.3.2-.5.1-.8.1-.1 0-.3-.1-.4 0-.2.1-.3 0-.5 0-.3-.1-.5-.4-.6-.7-.1-.3-.3-.5-.5-.7-.1-.1-.7-.2-.8-.1-.2.2.2.3.2.4 0 .1 0 .1.1.2s0 .2 0 .3c-.2.3-.4.3-.6.1l-.3-.3c-.1-.3-.4-.3-.6-.4h-.1v.2c.1.1.2.1.2.2.1.1 0 .4-.2.4-.4 0-.8.1-1.1-.2-.2-.2-.5-.2-.8-.4-.1 0-.2-.1-.2 0-.2.1-.3.3-.5.4-.1.1-.1.2-.1.3 0 .2-.1.4-.2.6-.2.2-.4.4-.6.5-.2.1-.3.3-.2.5l.3.3c.1.1.2.5.1.7-.1.1-.2.1-.3.1-.1 0-.2 0-.3-.2-.2-.4-.4-.4-.6-.1-.2.2-.4.2-.7.3-.3.2-.3.2-.1.4l1 1c.1.1.2.1.3.2.4.2.4.2.2.6-.1.1 0 .2 0 .2s.1 0 .2.1c.3.2.7.2 1.1.2.1 0 .2 0 .3.1.4.3.8.3 1.2.1.1-.1.3-.2.4-.2.3-.1.6-.1.9-.1h.9c.2 0 .5.3.4.5-.2.3-.2.7-.5.9-.3.2-.4.5-.5.8 0 .1-.1.2-.2.3-.1.1-.2.2-.4.1-.1 0-.1-.2-.2-.3v-.2c0-.1-.2-.2-.3-.2-.1 0-.1.1-.1.1-.4.3-.7.7-.9 1.1-.2.3-.3.5-.6.7l-.6.6c-.2.4-.5.6-.9.7-.2 0-.3.2-.4.3-.2.3-.1.6-.1.9 0 .3-.1.6-.3.8-.1.2-.3.3-.4.5-.2.3-.4.7-.5 1.1-.2.4-.4.9-.7 1.2-.1.1-.1.2 0 .4.1.1.3.2.4.1.1-.1.4-.1.4-.4l.1-.1c.1-.1.3-.1.4 0 .1.1.1.2.1.3-.2.3-.2.7-.2 1.1 0 .5-.1.7-.7.9-.3.1-.7.1-1 .1-.3 0-1 .4-1 .7 0 .4.1.9-.1 1.3.2.2 0 .5 0 .7 0 .2 0 .4.1.5.3.7.6 1.4.6 2.1 0 .2 0 .3.1.5.1.3.2.6.2.9 0 .3.1.5.1.7.1.3.2.5.3.7 0 .3.1.5.2.7.1.2.1.5.3.7.1.2.3.5.2.8 0 .1 0 .1.1.2.4.5.6 1 .5 1.7v.8c0 .2-.1.4 0 .5.2.2 0 .6.2.8 0 .3-.1.6 0 .8.1.3.1.5.1.8 0 .2 0 .4.2.6l.3.3c.1.2.1.3.1.5 0 .3.1.5.2.8.1.1.1.3.1.4.1.3.2.7.4 1 .2.3.3.7.6 1 .1.1.1.3 0 .4-.1.1-.3.2-.4.3-.2.1-.3.2-.1.4.2.2.4.4.5.6.1.2.3.4.3.7 0 .4 0 .4.3.6.2.1.4.2.6.2.2 0 .4.2.6.4.1.2.1.4.2.6.1.2.4.3.5.4.5.7.9 1.4 1.5 2 .1.1.3.3.3.5.1.2-.1.3-.2.5s0 .4.3.4h.5c.4 0 .5.1.6.5.1.3.1.7.1 1 0 .4.3.5.6.4.3-.1.9.1 1 .4.2.4.4.5.8.4.2 0 .4.1.5.2.1.2.2.3.3.5.2.3.4.6.8.5h.7c.4 0 .9-.2 1.1-.6.2-.3.5-.6.8-.8.4-.3.7-.5 1.1-.8.6-.5 1.1-1 1.4-1.8.1-.3.4-.6.7-.8.4-.3.7-.6.9-1 .1-.1.2-.2.3-.2.2 0 .5.2.5.4s0 .4.1.6c.1.1.2.2.3 0 .2-.2.1-.4 0-.7-.1-.1-.1-.2 0-.4s.2-.3.4-.4c.4-.2.4-.2.3-.7 0-.2-.1-.5 0-.6.1-.2 0-.4.1-.4.2-.2 0-.3 0-.4-.1-.4.1-.7.4-.9.2-.1.4-.2.6-.4.2-.2.2-.4.3-.7.2-.5.5-1 .7-1.6.1-.2.2-.4.4-.6.2-.2.3-.5.3-.8 0-.3 0-.6.2-.8v-.2c.1-.7.1-1.4.4-2 .1-.2.1-.5 0-.6-.2-.3 0-.6-.1-.9-.2-.3.1-.5.1-.8 0-.1.1-.2.1-.3.2-.2.2-.4 0-.6-.2-.2-.2-.4-.1-.5.2-.3 0-.7.1-1.1-.4-.5-.3-1.1-.2-1.7 0-.6-.1-1.2-.3-1.8v-.2c.2-.6 0-1.1-.1-1.7-.2-.3-.2-.6-.2-.9v-1.2c0-.2 0-.3-.2-.4-.3-.2-.4-.5-.3-.8v-.8c0-.5-.2-1-.4-1.4-.2-.4-.3-.8-.4-1.2-.1-.3-.1-.7-.3-1-.3-.3-.4-.7-.6-1.1-.2-.4-.3-.8-.4-1.2-.1-.6-.4-1-.9-1.2-.3-.1-.4-.3-.4-.5-.1-.4-.3-.6-.5-.8-.2-.3-.4-.6-.7-.7-.3-.2-.5-.4-.7-.6-.3-.2-.5-.4-.8-.6-.2-.3-.5-.4-.9-.4-.1 0-.2 0-.3-.1-.6-.5-1.3-.8-1.7-1.4-.2-.2-.3-.3-.6-.2-.2 0-.4-.1-.5-.2-.2-.1-.3-.2-.5-.3-.2-.1-.5-.3-.7-.3-.4 0-.7-.2-1.1-.1-.2 0-.3-.1-.3-.2s.2-.4.3-.4c.1 0 .3-.1.4 0 .3.2.5.1.7-.1.2-.2.4-.2.6-.1.3.2.5.1.7 0 .3-.2.3-.2.5.2s.5.8.8 1.1c.1.1.2.1.3 0 .3-.2.2-.5.2-.8-.3-.2 0-.4 0-.5.1-.2.3-.3.5-.3h1.3c.7-.1 1.3.2 1.9.3.6.2 1.1.4 1.8.3.2 0 .3 0 .5.1s.2.5.1.6c-.4.3-.5.6-.5 1.1 0 .5.5.6.9.4.2-.1.4-.2.5-.5.1-.4.5-.6.9-.6h.4c.4-.2.9-.4 1.3-.5.2-.1.3-.2.3-.4.1-.5.5-.7.9-.4.4.3.8.4 1.2.4h.2c.2 0 .4.2.4.4s-.1.3-.2.4h-.1c-.1.1-.2.1 0 .3.3.2.4.5.4.9v.2c.2.3.1.7.1 1 0 .1-.2.5-.3.4-.1 0-.2-.1-.3-.2 0 0 0-.1-.1-.2-.1-.2-.2-.3-.4-.2-.1 0-.2.1-.2.3-.1.2-.1.5-.1.7 0 .2-.1.3-.3.3-.2 0-.4 0-.5-.2-.2-.2-.5-.2-.7-.1-.2.1-.2.3-.1.5.2.2.4.4.7.5.2 0 .2.4.1.5-.1.1-.3.2-.4.1-.2-.2-.3 0-.4.1 0 .1-.1.2.1.3.2.1.3.4.5.3 0 0 .1-.1.1-.2.1-.2.4-.3.6 0 .2.2.3.6.4 1 .1.5.1 1 .4 1.5.1.2.2.5.3.8.1.2-.1.4-.2.6-.1.1-.2.1-.4 0s-.5.2-.5.4c0 .5-.1 1 .2 1.4.1.1 0 .2 0 .3v.5c0 .2.1.3.2.5.3.4.7.8.9 1.3 0 .1.1.1.1.1.1.2.3.5.4.8 0 .1.1.2 0 .3-.2.2-.1.4-.1.6v.5c-.1.3-.1.5-.1.7.2.4.1.8.1 1.2v.9c0 .2 0 .4.1.5.1.1.1.3.1.5v.6c-.1 1.6.1 3.1-.1 4.7-.1.4-.1.9-.3 1.3v.3c0 .2.2.2.3.4 0 0 .1.1.2 0 .3-.1.6-.2.7-.6.1-.3.1-.5 0-.7-.1-.4-.1-.8-.1-1.1 0-.1.1-.3.2-.4.1-.1.2-.1.2 0 .4.3.6.7.6 1.3v2c.1.2.1.5.1.7-.1.4-.1.7-.1 1.1v.7c0 .4.1.8-.1 1.2-.1.1-.1.3 0 .4.1.2.1.3.1.5.1.8-.2 1.7-.1 2.5 0 .2 0 .4-.1.6-.1.2-.1.3 0 .5s0 .5 0 .7c0 .1-.1.3-.1.4.2.2.1.5.1.7 0 .1 0 .3.1.4.3.4.2.8-.2 1.2-.2.2-.3.5-.4.7 0 .4-.2.5-.5.6h-.2c-.2 0-.4.2-.4.4-.1.3-.3.6-.2.9.1.4-.2.7-.2 1v.2c.2.4.1.7.1 1.1 0 .2.1.3.3.4.1 0 .3 0 .3-.1.1-.3.4-.2.6-.3.2-.1.4.1.4.3 0 .2 0 .4-.2.6-.2.2-.2.4 0 .6.1.1.1.2.1.2-.1.4.1.8.4 1 0 0 .1.1.1.2 0 .3.2.6.3.8.2.2.2.5.1.6-.2.3-.2.6-.3.9-.2.4-.2.8 0 1.2.3.4.3.9.2 1.3-.1.3 0 .6.1.9.1.3.3.6.1 1-.1.2-.1.4-.2.6-.1.2 0 .5.2.7.1.1.3.1.4 0 .1 0 .1-.2.2-.3v-.8c0-.2.1-.3.2-.3.4-.1.5 0 .5.4-.1.6.2 1.3.1 1.8v.9c0 .2.1.3.3.3.3 0 .4-.1.4-.3-.1-.6.2-1.2.4-1.7 0-.2.3-.2.4-.2.1 0 .2 0 .2.1.1.1.2.4.2.4-.3.3 0 .5.2.6.3.1.4.4.4.7 0 .2.1.5.2.6.3.2.3.5.3.9 0 .5-.1 1.1.2 1.6.1.1 0 .3 0 .4 0 .2-.1.4-.2.6v.6c.1.3.2.5.2.8 0 .1 0 .1.1.2.1.2.3.1.5 0s.4-.1.4-.4c0-.6.2-1.2.1-1.8-.1-.4.1-.8.3-1.2.3-.5.3-1 .4-1.5.1-.4 0-.8.1-1.2.2-.5 0-.9-.1-1.3-.1-.3-.1-.5 0-.8.1-.3.2-.7.2-1 0-.6-.2-1.2-.1-1.8 0-.2 0-.4-.1-.6-.1-.1-.1-.3-.1-.3.2-.2.1-.5-.1-.6-.2-.2-.1-.4 0-.6l.2-.2c.1-.2.2-.4.1-.6-.2-.3-.3-.5-.2-.9 0-.2-.1-.3-.3-.4-.3-.2-.3-.4-.2-.7 0-.1.1-.2.1-.4v-1.9-.2c-.3-.4-.2-.8-.2-1.2 0-.1.1-.3-.1-.4-.3-.2-.1-.5 0-.7.4-.4.2-.7 0-1-.2-.2-.3-.5-.3-.8v-.5c-.1-.3.1-.4.3-.5.1-.1.3-.1.3-.3 0-.2 0-.4-.1-.5-.1-.3-.3-.7-.4-1-.1-.2-.1-.3-.1-.5 0-.4.1-.7-.1-1.1-.1-.1 0-.3 0-.4.1-.2.2-.4.2-.6 0-.3.3-.4.3-.7 0-.2.4-.3.6 0 .1.2.2.1.3.1 0-.1.1-.3 0-.3-.4-.3-.5-.8-.8-1.2-.2-.2-.2-.4-.1-.6.1-.2.2-.3.3-.5.1-.4.3-.8.4-1.2.1-.2.1-.5.1-.7 0-.2.1-.5.1-.7.1-.2.2-.3.3-.5.2-.2.4-.2.6 0 .1.1.1.2.2.2s.3.1.4 0c0 0 .1-.2.1-.3v-2.5c0-.2-.1-.3-.2-.4-.4-.3-.5-.4-.2-.8.1-.2.1-.2-.1-.3-.3-.1-.5-.3-.4-.6 0-.2-.1-.3-.2-.5-.3-.5-.5-.6-1-.4l-.1.1c-.3.1-.5-.1-.5-.4v-3.3c0-.3 0-.4.4-.5.4-.1.4-.3.2-.7-.2-.3-.4-.6-.5-1-.1-.3-.1-.5-.2-.8.2-.4.2-.8.1-1.2-.1-.3 0-.6-.1-.9-.1-.3-.1-.7-.1-1 0-.4-.1-.8-.4-1.1-.3-.3-.3-.5 0-.8l.1-.1c.1-.2.3-.3.1-.6-.1-.2.1-.5.4-.5.2 0 .3.1.4.2l.6.6c.1.1.3.1.4 0 .1-.1.1-.2 0-.4-.2-.3-.4-.7-.5-1.1 0-.3-.2-.6-.3-.9 0-.2-.1-.3-.2-.4-.3-.3-.6-.5-.8-.8-.1-.3 0-.8 0-1.1v-.1c0-.3 0-.5.2-.7.2-.1.1-.3.1-.5-.1-.3-.3-.5-.2-.8.2-.5.2-1 0-1.5-.1-.2 0-.4-.1-.6-.1-.2-.1-.5.1-.7.2-.3.3-.6.5-.8.2-.3.6-.3.8-.1l.2.2c.4.3.8.6 1.3.5.3 0 .6-.2.9-.4.2-.1.4-.3.6-.3.3-.1.5 0 .8-.1h.2c.3.3.7.5.8.9 0 .2.1.3.2.4.2.3.4.3.6.1.1-.1.2-.3.3-.4.1-.2.3-.3.5-.2.2.1.4.1.6-.1l.9-.6c.2-.2.5-.3.8-.1.3.1.7.1 1 0 .6-.2.7-.1.9.5v.1c.1.3.4.4.7.2l.2-.2c.1-.2.1-.4.1-.6 0-.3.2-.4.3-.5.2-.1.5-.1.8-.1.2 0 .4.1.5.2.3.2.6.2.9 0 .1-.1.2-.1.3-.1.2 0 .5.2.7.4.2.2.4.4.5.4.5.1 1 .4 1.5.3.2 0 .3.1.3.2.1.1.1.3.1.4 0 .2.2.3.3.5.1.1.3 0 .3-.2s-.1-.3-.1-.5c-.2-.4-.2-.8-.1-1.2.1-.3.3-.3.4-.5.2-.2.2.1.4.1.4 0 .8.2 1.2.1.2 0 .4-.1.6-.1.3 0 .4-.1.6-.3.1-.1.2-.3.4-.3.4 0 .7-.1 1.1 0 .3.1.5.2.8.2.1 0 .2.1.4.1s.3-.1.3-.2-.1-.2-.2-.3c-.1-.1-.3-.1-.4-.1-.2-.1-.2-.3-.2-.4 0-.2.2-.2.3-.3.1-.1.4 0 .5 0 .2.1.4.1.6 0 0 0 0-.3.1-.4.1-.1 0-.2 0-.3 0-.2-.1-.4.1-.6-.1.3-.1.2-.2.1zm-61.3 18.4c-.2.4-.3.8-.2 1.2.1.3.1.5.1.8v.2c-.4.6-.2 1.3-.2 1.9v.2c0 .1.1.3-.1.3s-.3-.1-.3-.3v-.3-.7c0-.2 0-.4-.1-.6-.2-.3-.1-.6-.1-.9 0-.3 0-.6-.1-.9-.1-.3-.1-.5-.2-.8-.1-.1-.1-.3-.1-.4-.1-.3 0-.6 0-.8 0-.3 0-.5.2-.8.1-.1.1-.3.1-.4.1-.3.2-.7.4-.9.1-.2.3-.2.5-.2.2.1.3.2.4.4v.2c-.1.1-.1.2-.2.3-.2.3-.3.6-.3 1 0 .3.2.6.4.8-.1.3-.1.5-.2.7zm2.8 2.6c.1 0 .2.1.2.2s-.2.3-.3.2c-.1-.2 0-.5.1-.4zm0 4.1c-.1 0-.2-.3-.1-.4.1-.1.2-.2.3-.1.1 0 .3.2.2.3s-.3.3-.4.2zm1.4-11.8l.3.2v.4c0 .1-.1.2-.3.2-.2 0-.3-.1-.3-.2 0-.2.2-.6.3-.6zm.2 24.2c-.1.1-.2.1-.3.2-.1-.1-.2-.1-.3-.2-.1-.1-.1-.2-.1-.3-.1-.1-.2-.3 0-.4.2-.2.2-.2.6-.1.2.1.3.2.4.3.1.2.1.3-.3.5zm.5.8c-.1 0-.2-.1-.2-.3 0-.2.1-.3.4-.3 0 0 .2.1.2.2s-.3.5-.4.4zm18.1-9.7c0-.4.3-.5.4-.8.1-.1.3-.1.4.1.1.1.1.1 0 .3-.1.1-.1.3-.2.4-.1.2-.2.2-.4.2-.1 0-.2 0-.2-.2zm.2 1.7c.1 0 .1 0 .1.2s0 .3-.2.3c-.1 0-.3-.2-.3-.3.1-.1.2-.2.4-.2zm-3.6-19.6c.1 0 .2.1.2.2s-.1.1-.1.2l-.1.1c-.1 0-.2.1-.2.1l-.1-.1c.1-.5.1-.6.3-.5zm-9.6-6.9c.3 0 .4.1.4.3 0 .2-.1.3-.5.3-.1 0-.3 0-.2-.2 0-.3.1-.4.3-.4zm-1.9-1c.2 0 .3.1.5.1.1 0 .2.1.2.2s0 .2-.1.3c-.2.1-.4.2-.5.3-.3.1-.5.1-.7-.1-.1-.1-.1-.2-.1-.2 0-.4.3-.7.7-.6zm.5 6.4c-.1.1-.1.2-.2.2 0-.1-.1-.1-.1-.2s0-.2.1-.2l.2.2zm-.9 8.4c.1 0 .3.3.3.4 0 .1-.1.3-.2.3s-.4-.3-.4-.4c0-.2.1-.3.3-.3zm-.4 2.7c.1 0 .3.2.3.3l-.2.3c-.2 0-.3-.1-.3-.2-.1-.2 0-.4.2-.4zm-.7 20.1h-.2c-.1-.1-.2-.2-.2-.3-.1-.4-.4-.7-.7-1-.1-.1-.1-.2-.1-.3 0-.1.2-.1.3-.2.1.1.2.1.3.2.1.3.3.6.6.9.1.1.2.3.2.5l-.2.2zm10.8 1.6c0 .2-.5.6-.8.6 0 0-.1 0-.1-.1v-.4c.2-.1.4-.4.7-.4.2.1.3.1.2.3zm-.2-27.8c.1 0 .2.1.2.2 0 .2-.1.3-.3.3-.1 0-.2 0-.2-.1 0-.2.2-.4.3-.4zm-4-9c.2 0 .4.1.3.2 0 .1-.2.3-.3.3-.1.1-.3-.2-.3-.4 0-.1.1-.1.3-.1zm-.5 5.4c.2 0 .3.1.3.4 0 0-.1.2-.2.2s-.4-.3-.4-.4c0-.2.1-.3.3-.2zm-.6-6.4c.2 0 .4.2.5.4 0 .1 0 .2-.1.3-.1.1-.4.1-.5 0-.1-.1-.2-.2-.2-.4-.1-.1.1-.3.3-.3zm-.8 8.9c.1.1.2 0 .4 0 .1 0 .2-.1.2-.2v-.4c0-.3.1-.5.3-.7.5-.3 1-.7 1.6-.6.4 0 .7.2 1 .3.3.1.5.4.6.8 0 .1.2.2.2.3.1.2.1.3.1.5 0 .1 0 .3-.1.4-.3.3-.1.5.1.7.1.2.3.3.4.4.2.2.2.4 0 .6-.2.2-.2.4-.2.6 0 .3.1.5.3.6.1.1.3-.2.4-.6v-.2c.1-.2.3-.2.5-.1.1.1.3.2.3.5v1.4c.1.7-.1 1.3-.5 1.9-.2.2-.1.3.1.4l.9.6c.1.1.2.2.1.4-.1.3-.1.6.2.8.3.2.4.5.3.8v.5c0 .3 0 .6.1.9.1.3 0 .6.2.8.1.1.1.4 0 .6-.2.4-.1.9-.1 1.3v.9c0 .3.2.6.3.8.2.4 0 .6-.1.9-.2.3-.5 1-.5 1.4 0 .2-.1.4-.3.5-.3.3-.5.6-.4 1v1.3c0 .1 0 .3-.1.4-.3.2-.4.2-.6-.1-.1-.2-.3-.4-.6-.4-.1 0-.2.1-.1.2s0 .3.3.3c.2 0 .3.3.5.4.4.4.2 1-.3 1.2h-.2c-.2-.2-.3-.4-.3-.7 0-.5-.2-.8-.7-.9-.2-.1-.3 0-.3.1 0 .3 0 .5-.2.8-.1.1-.1.4 0 .6 0 .2.2.2.4.3.2.1.4.2.5.5.1.3.2.3-.1.5-.2.2-.4.1-.4-.1v-.2c0-.2-.1-.1-.2-.1s-.2.1-.1.1c0 .2-.1.4.1.6.2.2 0 .4-.2.5-.2.1-.3.1-.5 0-.1 0-.1-.2-.1-.2v-.8c0-.2-.1-.5.1-.7-.1-.2-.1-.5-.3-.6h-.2c-.2.2-.3.4-.3.6v1.2c0 .2-.1.3-.2.4-.3.2-.5.1-.8.1-.3 0-.4-.2-.4-.5s-.1-.5-.3-.7c-.2-.2-.3-.4-.3-.7 0-.1 0-.2.2-.2.1 0 .3 0 .3.1.1.2.3.1.5.1.1 0 .2 0 .2-.2 0-.1.1-.4-.2-.3-.2 0-.4-.1-.5-.2-.2-.2-.5-.4-.7-.5-.1-.1-.2-.1-.3-.1 0 .1-.1.2-.1.3v.3c.2.2.1.5.1.8 0 .2-.1.3-.3.3-.2 0-.4-.1-.6-.2l-.9-.9c-.1-.1-.2-.3-.2-.4 0-.3-.2-.6-.4-.9-.2-.4-.4-.7-.8-1-.2-.1-.3-.3-.5-.4-.2-.1-.3-.4-.4-.6-.2-.8-.2-1.6 0-2.4.1-.2.1-.3.1-.5-.1-.2-.2-.5 0-.7 0 0 0-.2-.1-.2-.2-.3-.2-.5-.2-.8v-1c-.1-.6.1-1.1.3-1.6.1-.3.1-.5 0-.8-.1-.1-.1-.3.1-.4.2-.2.3-.5.3-.8 0-.2 0-.3.1-.5s.2-.5.3-.7c0-.2.2-.5.4-.7.2-.2.2-.4.2-.6 0-.4.1-.5.4-.8.5-.5.8-1 .8-1.7 0-.2-.1-.3-.3-.3-.2 0-.5-.1-.7.1-.1.1-.4-.1-.4-.4 0-.1.1-.3.3-.3.2 0 .2 0 .2-.1.1-.1 0-.2 0-.2-.4-.2-.3-.6-.3-.9 0-.1.1-.2.1-.2.2-.2.3-.4.3-.6.1-.4.8-.9 1.2-.9.1-.3.6-.4 1-.2zm-.7-1.1s0 .1-.1.2-.2.1-.2.1c-.2 0-.3-.1-.5-.2-.1 0-.1-.1-.1-.2 0-.2.2-.5.5-.4.4 0 .4.1.4.5zm16.6-3.9c0 .2-.1.3-.3.3-.2 0-.3-.2-.4-.3-.1-.1-.1-.3.1-.4.1-.1.2-.2.3-.2.4-.2.5-.2.4.4 0-.1-.1 0-.1.2zm.8 1.4c-.2 0-.2-.1-.2-.2 0-.4 0-.4.2-.4.3 0 .4.1.4.3 0 .2-.2.3-.4.3zm1.2 16.1c-.3 0-.4-.2-.3-.4 0-.2.1-.3.3-.3.2 0 .4.2.4.3 0 .2-.2.4-.4.4zm.6 19.7l-.2-.2c.1-.1.2-.1.3-.2l.1.1c-.1.1-.2.2-.2.3zm6-13.8c0-.3.1-.6.1-.9 0-.1.2-.2.3-.2.1 0 .2.1.2.2.1.4-.1.7-.2 1.1l-.1.1c0 .1.1.3-.1.3-.1 0-.2-.1-.3-.3.1-.2.1-.2.1-.3zm-.1 1.5c0 .1.2.1.2.2s0 .3-.1.4c0 .1-.2.2-.3.2l-.2-.2c0-.2.2-.6.4-.6zm-.9 14.5c.3 0 .4.1.4.4 0 .3-.1.4-.5.4-.3 0-.3 0-.3-.3 0-.4.1-.5.4-.5zm4.5-47s0-.1 0 0c0-.1 0-.1 0 0 .1-.1.1-.1 0 0 .1-.1.1 0 0 0zm2.8 3.3c-.2 0-.2 0-.2-.3l.1-.1.3.3s-.1.1-.2.1zM6.3 544c0 .1-.1.2-.2.2h-.9c-.1 0-.2.1-.2-.1 0-.1.1-.4.2-.4.3 0 .7-.1 1 .1 0 .1.2.1.1.2zm5.6-.5c-.3.3-.8.4-1.1.5-.5 0-.6-.1-.6-.3 0-.3.1-.4.4-.4.3 0 .5-.1.7-.2.1-.1.3-.3.6 0 .1.1.2.1.2.2-.1 0 0 .2-.2.2zm1.9.5c-.1 0-.3.1-.2-.1 0-.2.1-.3.3-.3.2 0 .2.1.2.2-.1.2-.1.2-.3.2z"/>
  <path d="M-143.7 588c-.3-.1-.5-.4-.7-.7-.1-.1-.2-.2-.1-.5.1-.2.1-.5-.1-.7-.1-.1-.2-.2-.2-.3-.2-.4-.4-.7-.7-.9l-.6-.6c-.1-.1-.1-.2-.1-.3 0-.1 0-.2-.1-.3-.2-.6-.2-.6 0-1.1 0-.1.1-.2.1-.3-.2-.4-.1-.8-.1-1.2v-.2c-.3-.2-.3-.6-.4-.9l-.3-.9c-.1-.3-.1-.6-.1-.9 0-.1-.1-.2-.1-.3-.1-.3-.3-.6-.3-.9 0-.3-.2-.6-.1-1s-.1-.7-.1-1c0-.3.2-.5.5-.5h.8c.2 0 .4-.1.6-.3.2-.1.1-.3.1-.4-.1-.4.1-.7.1-1 0-.3 0-.4-.3-.4s-.6 0-.9-.1c-.2-.1-.5-.2-.6-.5-.2-.5-.6-.9-1.1-1.2-.5-.3-.8-.8-1.2-1.2-.1 0-.1-.1-.1-.2v-.1l.3-.3c.1 0 .2 0 .2.1.2.1.3.1.5.2s.4 0 .5-.2c.1-.2.1-.3-.1-.4-.1-.1-.2-.2-.4-.2h-1.3c-.2 0-.3-.1-.4-.3-.1-.1.1-.2.1-.3-.1-.4.2-.6.3-1l.3-1.2c.1-.6.1-1.1-.2-1.6-.1-.2-.3-.2-.4 0-.3.3-.6.7-.9 1.1-.3.3-.7.3-.9 0l-.9-1.2c-.2-.3-.3-.5-.6-.7-.3-.2-.5-.4-.8-.7-.3-.2-.3-.6 0-.8.2-.3.5-.5.7-.8.2-.2.1-.3-.1-.4-.4-.1-.7-.1-1 .1-.5.2-1.1.3-1.7.4-.3 0-.5-.1-.7-.3-.1-.1-.2-.2-.3-.2-.6-.3-1.2-.4-1.8-.8-.5-.3-1-.6-1.2-1.1-.1-.2-.3-.4-.4-.6-.2-.3-.4-.5-.9-.5-.4 0-.6-.2-.8-.4-.1-.1-.1-.3-.3-.4l-.6-.6c-.5 0-.8-.3-1.2-.5-.2-.1-.3-.2-.5-.2-.3-.1-.7-.2-1-.3-.5-.3-.9-.6-1-1.2 0-.2-.2-.3-.3-.5-.2-.3-.5-.5-.6-.8-.1-.2-.3-.4-.1-.6.2-.3.5-.6.2-1 .1-.1.1-.2.1-.4-.1-.1 0-.3 0-.5 0-.3 0-.5.2-.7.1-.1.1-.1 0-.3-.2-.4-.8-.7-1.2-.5-.1 0-.1.1-.2.2-.1.3-.1.5-.1.8 0 .4-.1.8-.6 1-.1 0-.2.1-.3.1-.4.2-.7 0-.7-.5 0-.2-.1-.4-.2-.6-.4-.6-.7-1.2-.7-1.9 0-.4-.2-.8-.4-1.2-.2-.3-.2-.6-.4-.8-.2-.3-.2-.5-.3-.8 0-.1-.1-.2 0-.3.2-.3.1-.6 0-.9-.2-.6-.2-1 .3-1.3.2-.1.3-.2.4-.3.1-.3.4-.5.6-.7.1-.1.3-.2.5-.3.1-.1.2-.2 0-.3-.1-.1-.2-.2-.3-.1-.2.1-.3.3-.5.4-.3.2-.7.2-1 0-.2-.1-.2-.4-.1-.6.1-.2.3-.3.4-.4 0-.1.1-.2.1-.2-.2-.2-.1-.4-.1-.6 0-.2 0-.4.2-.4s.3-.1.5.1c.1.1.3.2.4.3.2.1.4 0 .6 0 0 0 .1-.3 0-.3-.2-.3 0-.6.1-.9.1-.4.1-.8-.2-1.1-.3-.4-.3-.4 0-.8l.2-.2c.1-.1.3-.1.4 0 .1.2.3.3.3.5.1.2.2.2.4.3.4 0 .8-.1 1-.4.2-.3.3-.3.7-.1.2.1.4.2.6.2.1 0 .2.1.3.1.2.1.2.4.2.6 0 .4.2.6.6.6.3 0 .5 0 .8-.1.5-.3.9-.1 1.3.2.3.2.5.4.8.6.4.2.4.7.1 1-.2.2-.5.4-.8.5-.3.1-.6.2-.8.4-.1.1-.1.1 0 .2.1 0 .3.1.4.1.3.1.5.2.6.5.1.3.2.5.4.8.2.3.5.3.8.4.3.1.5.2.8.2.4-.1.6.3.9.4.3.5.5 1 .7 1.5.1.3.1.4 0 .7-.1.2-.1.3 0 .5.1.3.3.5.5.7.3.4.3.5 0 .9-.2.3-.4.7-.2 1.1.1.3.1.5.1.7 0 .6 0 1.2.4 1.7.2.3.1.5 0 .7-.4.5-.5 1.1-.7 1.6-.1.2-.1.4-.1.6 0 .2.2.4.4.4h.5c.4-.1.7.1.9.5.2.3.3.5.7.5.3 0 .5.2.8.3.3.2.4.3.5.6.1.1.2.3.3.4.3.1.4.3.4.6 0 .1 0 .3.1.3.5.2.7.6.9 1 .2.4.5.5.8.6.1 0 .2 0 .2-.1 0-.2.1-.4 0-.6-.3-.4-.3-.9-.5-1.3-.3-.8 0-.7.5-.9h.1c.2 0 .1-.1.1-.2s-.1-.1-.1-.2c-.2-.2-.3-.3-.2-.6 0-.3.1-.5.3-.7.1-.1.1-.2.2-.3.1-.3.1-.6.3-.9.1-.2 0-.6.1-.8.1-.2.3-.5.2-.8v-.9-.3c.1-.2.1-.3 0-.5-.1-.5-.2-.9.2-1.3.3-.4.3-.7.1-1.2-.1-.1-.1-.3-.1-.3.2-.2.1-.3.1-.5 0-.5-.2-1-.1-1.5 0-.6 0-1.2-.4-1.8v-.2c0-.3-.1-.5-.3-.8-.1-.2-.3-.4-.3-.7 0-.3-.1-.5-.3-.7l-.3-.3c-.1-.1-.1-.2-.1-.3.2-.3.2-.7.4-1 .3-.4.5-1 .5-1.5 0-.3.1-.6.3-.9.1-.3.2-.5.5-.6 0 0 0-.2.1-.2.2-.1 0-.2-.1-.3-.2-.1-.4-.1-.5.1-.3.3-.7.5-1 .6-.6.1-1.1.3-1.6.5-.2.1-.4.2-.5.5-.1.2-.3.3-.5.1-.4-.4-.9-.8-1.1-1.4-.1-.2-.2-.5-.4-.6-.2-.1-.3-.2-.4-.3-.4-.4-.7-.9-1.1-1.3 0-.1-.1-.1-.1-.2 0-.2.1-.5.2-.6.1-.1.2-.3.3-.4v-.2c-.4-.1-.8 0-1.2.2-.2.1-.4.1-.6.1-.2 0-.1-.2-.2-.2-.2-.1 0-.2.1-.2.3-.2.5-.4.8-.5.1 0 .1-.1.1-.1 0-.2-.1-.1-.2-.1h-.2c-.4.2-.9.3-1.2.7-.1.1-.1.2-.2.2-.3 0-.5 0-.7-.2-.2-.1-.3-.3-.3-.6v-.2l-.1-.1c-.4-.1-.6-.4-.9-.7-.1-.1-.3-.2-.4-.1-.2.2-.4 0-.5-.1-.1-.1 0-.3.1-.4 0 0 .1-.1.1-.2-.1 0-.1 0-.2-.1-.2 0-.3.1-.4.2l-.9.6c-.4.2-.7.2-.9-.2-.1-.2-.3-.1-.4-.2l-.2.1c-.3.2-.7.1-.8-.3v-.2c-.1-.2-.1-.5-.2-.7-.2-.2-.2-.4-.1-.6v-.3c-.1-.2-.4-.3-.6-.3-.3 0-.4.2-.5.4 0 .1 0 .3-.1.4-.1.2-.3.3-.5.2-.3-.1-.5.1-.7.2-.2.1-.1.3-.1.4.1.4-.2.6-.4.8-.1.1-.3.1-.5.2s-.5.1-.7.2c-.3.1-.3.4-.3.7 0 .2-.4.5-.6.5-.3 0-.5-.4-.4-.6 0-.1.1-.2.1-.3l-.1-.1s-.1 0-.1.1c-.3.1-.5.3-.6.5-.2.2-.4.2-.5.1-.2-.1-.2-.3-.2-.5 0-.1 0-.2.1-.2.1-.2.1-.4.1-.6 0-.2-.3-.4-.6-.4-.2 0-.3.1-.3.4 0 .2.1.5.1.7 0 .6 0 1.1-.2 1.7v.2c.3.2.2.5.2.8 0 .3-.1.4-.3.5-.1 0-.2.1-.3-.1-.1-.2-.1-.4-.1-.6 0-.2-.3-.4-.5-.2s-.4.2-.7.3c-.3.1-.4.2-.4.5 0 .2-.1.5-.2.7-.1.2-.3.5-.3.7 0 .3-.3.5-.5.6-.4.3-.5.5-.4.9.2.5 0 .9-.3 1.2-.3.3-.5.6-.4 1.1 0 .2.1.4.2.6 0 .1.1.1.1.2-.1.2-.1.4-.2.6-.2.3-.4.3-.7.2-.1-.1-.3-.2-.4-.3-.2-.1-.4-.3-.6-.4-.1-.1-.3-.1-.4-.1-.1 0-.1.4-.1.5 0 .1.1.1.1.2l.5.5c.1.2.4.2.5.5.1.2.3.4.4.6.1.1.3.3.5.4.1.1.2.1.2.3v.6c.1.4-.2.4-.5.6h-.2c-.1.1-.2.1-.2.3 0 .2.1.1.2.2l.9.6c.2.2.4.4.4.8 0 .2.1.3.3.4.2.1.4.3.4.4 0 .3.3.5.3.8.4.1.2.5.3.8.1.3.2.6.1.9v.9c.1.6.1.9-.2 1.5-.1.2-.1.5-.2.7l.1.1c.2.2.4.1.6.1.2 0 .2-.2.2-.3.1-.3.4-.5.5-.4.3.2.6.3.8.6.4.4.4.8.4 1.4 0 .1-.1.4-.2.4-.2.1-.6.2-.8.1-.5-.2-.8.1-1.2.4-.1.1-.1.1 0 .2.1.2.3.3.5.2.4-.1.8 0 1.2.3.3.2.6.4.9.5.4.2.7.4 1 .7.1.1.2.4.1.5-.1.2-.3.3-.6.2-.1 0-.2-.1-.2 0-.1 0-.2.1-.2.2s.1.1.1.2c.3.2.6.3 1 .3s.6.3.5.7c0 .1-.1.2-.2.3 0 .1-.1.3 0 .4.1.3.3.7.5 1 .1.2.3.1.5.2.1.1.2-.1.3-.1l.9-.6c.2-.2.4-.2.6 0 .3.2.5.3.8.5.3.2.5.5.8.8.2.2.4.3.7.3.2 0 .4.1.6.2.3.2.7.4 1 .6.2.1.2.2.3.3.2.5.1.9-.3 1.2l-.1.1c0 .1-.1.2 0 .3 0 .1.2.1.3.2h.4c.4 0 .7.3.9.6-.1.3.2.4.3.6.2.3.5.6 1 .6h.1v-.2l-.6-.6c-.3-.3-.2-.7.2-.8.2-.1.4-.2.6-.1.3-.3.6 0 .8.1.5.2.8.6.9 1.1.1.2.2.1.2.1.2-.2.3-.1.4 0 .1.2.2.3.3.5.1.2.2.4.4.5.3.3.7.4 1 .7.4.3.8.5 1 1 .1.4 0 .7-.4.7h-1.8c-.1 0-.2-.1-.3-.1-.3-.1-.7-.1-1 .1l-.2.2c0 .2.2.1.3.1.1 0 .3 0 .4-.1h.3c.2.1.3.2.5.3.3.3.8.5 1.2.6.1 0 .3.1.3.2 0 .2.2.2.4.3.5.3 1 .3 1.6.4.5.1.9.3 1.1.6.2.2.4.4.6.7.2.2.3.5.5.7.2.3.3.6.5.8.1.1.1.3.1.4 0 .1-.1.2-.2.3-.1.2-.2.3-.3.5-.1.2-.1.4-.2.6.3.2 0 .5 0 .7 0 .2-.2.3 0 .5.1.2.2.3.4.4.2.1.3.2.5.2.2.1.3.2.2.4 0 .4 0 .7.3 1 .1.1.1.3-.1.4-.1.1-.3.2-.4.2-.5 0-.9.1-1.3-.1-.1-.1-.4 0-.3-.3 0-.3.2-.3.4-.3h.1c.1-.1.2-.1.2-.2l-.1-.2c-.2-.1-.4-.1-.5-.3-.4-.4-.6-.8-.6-1.4 0-.3-.2-.2-.3-.2-.1 0-.2 0-.2.2 0 .1.1.3.1.4 0 .1-.1.3-.1.4v.1c.3.4.1.8.1 1.2 0 .2-.1.3-.3.3-.3 0-.5.1-.5.4 0 .1-.1.2-.1.3 0 .1-.1.2-.1.3h.3c.1 0 .3-.1.4-.1.7-.4 1.5.1 1.8.6.1.1.1.2.2.3.2.2.4.9.4 1.2 0 .1 0 .2-.1.2-.3.3-.6.5-1 .6-.3 0-.3.1-.4.4v.3c0 .1 0 .2.2.2s.4.2.4.3c0 .1-.1.4-.3.4-.1 0-.2.1-.3.1-.4.4-.9.6-1.5.4-.4-.1-.8-.1-1.2-.1-.1 0-.3-.3-.2-.4 0-.1.1-.2.2-.3v-.3h-.3c-.4.4-.9.7-1.2 1.1-.2.2-.3.5-.6.4-.1 0-.2.1-.2.2-.1.1-.2.3-.2.4-.3.5-.6.7-1.1.5-.2-.1-.4-.2-.7-.3-.5-.3-1.1-.4-1.7-.5-.6-.1-1-.3-1.2-.8-.3-.4-.5-.8-.4-1.3 0-.1 0-.2-.1-.2h-.3c-.2.2-.5.2-.8.4h-.2c-.1-.1-.3-.2-.4-.3-.5-.3-1-.7-1.4-1.2-.1-.1-.2-.1-.2-.1-.4-.2-.7-.6-1-.9-.2-.2-.2-.4.1-.7l.4-.4c.2-.2.3-.4.1-.7-.2-.3-.3-.7-.6-.9-.2-.1-.2-.4-.3-.6-.1-.2-.3-.4-.4-.6-.1-.2-.3-.4-.4-.6-.1-.1-.1-.3 0-.4.1-.2.2-.5.5-.6.2-.1.3-.2.5-.3.3-.3.6-.5.9-.7.4-.2.7-.5.6-1.1v-.4c0-.2.1-.3.2-.5.2-.2.4-.4.7-.6.1-.1.2 0 .2-.2 0-.1 0-.3-.1-.4-.1 0-.1-.1-.2-.2-.4-.2-.5-.6-.7-.9-.1-.2-.1-.6 0-.8.2-.2.3-.5.4-.8.2-.3 0-.5-.1-.6-.3-.4-.3-.4 0-.7l.1-.1v-.2c-.3-.2-.2-.4-.2-.7 0-.2-.1-.3-.3-.3-.3-.1-.6-.1-.8-.2-.4-.2-.8-.1-1.2 0-.4.2-.7.4-.7.9 0 .4-.1.8-.1 1.2 0 .2-.2.4-.4.4-.4 0-.8-.1-1.1-.3-.2-.1-.4-.3-.4-.5v-.2c0-.5-.3-.9-.5-1.3 0-.1-.1-.1-.2 0-.3.3-.4.7-.6 1-.2.7-.3 1 0 1.5.2.3.1.5 0 .8-.3.6-.3.8-.1 1.6v.2c-.1.5-.3.7-.8.6-.3 0-.5.2-.7.4-.1.1-.1.4 0 .6.1.2.1.4 0 .5-.1.2-.2.4-.3.4-.3.1-.3.3-.6.4l-.6.3c-.3.2-.3.2-.1.5l.6.6c.1.1.1.2 0 .3-.1.1-.1.2-.2.3-.1.1-.1.2-.3.2-.1 0 0 .2-.2.2-.3.1-.4.4-.4.7v1.1c0 .4-.3.8-.3 1.2-.2.2-.4.4-.3.6.1.2.3.3.5.4l.2.2c.2.1.3.3.5.3.2.1.4.3.5.4.3.5.6 1 1 1.4.3.4.3.7 0 1.1-.1.1-.1.2 0 .2s.2.1.4.1c.3 0 .5.1.5.4 0 .1.1.2.2.3 0 .3.3.6.3.9 0 .4.2.5.5.7.5.3.6.2.5.9 0 .2.1.2.2.1.2-.1.3-.1.5 0 .1.1.2.1.3.2.2.2.4.5.7.6 0 .1.1.2.1.2.2.2.2.3 0 .5-.1.1-.1.2-.1.2.1 0 .2.1.3.1.1 0 .2 0 .3.1.4.3.7.6 1.3.3.1-.1.4.2.4.3 0 .3-.1.4-.3.4h-.4c-.1 0-.2.2-.2.3 0 .1.1.2.2.2h.2c.4 0 .8 0 1.1.1.2.1.5 0 .7.1.3.2.5.2.8.2.1 0 .2.1.3.1.2.1.4.2.6.1h1.6c.4-.1.5.2.7.4 0 0 .1.2 0 .2-.2.3-.1.7-.3 1-.2.4 0 .6.1.9.2.4.6.7.9 1.1.2.2.3.4.3.7 0 .2.1.3.1.4.2.5.5.9.8 1.4.1.1.2.2.2.3.2.3.5.5.4.9-.1.4.2.6.5.8.2.1.4.3.7.5.2.1.2.3.2.5v.5c0 .3.3.5.6.5.2 0 .2 0 .4-.4l.1-.1c.2-.5.3-1 .3-1.6 0-.4 0-.8.1-1.1.1-.4.3-.7 0-1-.1-.1 0-.2 0-.3v-1.3c0-.3 0-.7-.1-1-.1-.2 0-.4.1-.5.2-.1.4-.2.6-.1.3.2.5.5.8.7.2.2.4.4.7.6h.3c0-.1.1-.2-.1-.3-.5-.3-1-.7-1.4-1.1-.3-.3-.4-.4-.2-.7.1-.1.1-.2.1-.2.1-.2.3-.3.4-.4.3-.1.6-.1.9-.1h.1v-.2l-.1-.1c-.4-.4-.4-.4 0-.8.1-.1.1-.2.2-.2.2 0 .4-.1.6-.1.1 0 .2.1.2.2.3.5.6 1 .5 1.7v.2c.1.2.4.4.5.4.2 0 .2-.3.2-.6l-.1-.1c-.1-.3-.2-.5-.2-.8 0-.2-.1-.4-.2-.6-.1-.3-.4-.5-.6-.7-.2-.2-.2-.5.1-.5.3 0 .4-.2.7-.3.3-.1.4-.1.8-.1.1 0 .2 0 .3-.1.5-.2.8-.5 1.2-.7.5-.3 1-.6 1.6-.5h.7c.2 0 .4-.1.6-.2.2-.2.5-.2.5-.5.5-.3.9-.7 1.5-.6.4 0 .7-.1 1-.2.3-.1.6-.2.9-.2.4 0 .7-.2 1-.5.2-.2.2-.4.2-.7 0-.2.2-.3.3-.2.2.2.4.3.7.4.2 0 .4.3.4.5 0 .3.2.5.3.8.3.5.7.8 1.2 1 .3.1.6.2.9.5h.2c.3.2.5.1.5-.3v-.3c-1-.5-1.1-.7-1.4-.9zm-17.5-47c.1.1.2.2.2.3 0 .1 0 .2-.1.3-.2.1-.3.2-.5.2-.1 0-.2-.1-.2-.2-.1-.3 0-.5.4-.5 0-.2.1-.2.2-.1zm-1.5-3.9l.1-.1c.3.2.7.2 1 .4l.1.2c-.1.1-.3.4-.5.3-.2-.1-.4-.1-.6-.2-.3-.1-.3-.4-.1-.6zm-.2 3.9c.2 0 .3.1.3.2s-.1.1-.2.2c-.1-.1-.2-.2-.2-.3 0-.1 0-.1.1-.1zm-9.4-5.4c.1 0 .2.1.3.2 0 .2-.2.4-.3.4-.2 0-.3-.1-.3-.3 0-.1.2-.3.3-.3zm-7.9 5.5c-.1.1-.2.2-.3.2-.1 0-.2-.1-.3-.1-.1-.1-.1-.3 0-.4 0 0 .1-.1.2-.1s.2 0 .3.1c.1 0 .1.2.1.3zm3.7 3.7s-.2.1-.2 0c-.1-.1-.3 0-.3-.2v-.4c0-.2.3-.4.5-.3.1.1.1.2.1.3.1.3.1.5-.1.6zm1 2.1l-.2-.2s0-.1.1-.2c.2.1.3.2.4.2-.1.1-.2.2-.3.2zm1.9-15.7c.2 0 .4.1.4.3 0 .2-.1.3-.4.3-.1 0-.4-.2-.4-.4.1 0 .3-.2.4-.2zm-1.3 3.1c.2 0 .3.1.3.3 0 .1-.2.2-.3.3l-.3-.3c-.1-.2.1-.3.3-.3zm.4 21.8s-.1.1-.2.1-.2 0-.3-.1c-.1-.1-.2-.2-.1-.3.1-.1.2-.2.3-.2.1 0 .2.1.3.1v.4zm-.1-17.8c-.2 0-.4-.1-.3-.2 0-.1.1-.2.3-.2.1 0 .3.2.3.3-.2 0-.2 0-.3.1zm1.1-2.6s-.1.1-.2.1c-.2 0-.4-.1-.3-.4 0-.2.2-.1.3-.1.2 0 .2.2.2.4zm.1-.9s0-.1.1-.1c.1-.1.2-.1.2-.1.1 0 .3.2.3.3 0 .2-.2.4-.3.4-.2-.1-.3-.3-.3-.5zm1.1 19.6l-.2-.2c0-.2.1-.4.2-.3.1 0 .2.2.2.3.1 0 0 .1-.2.2zm1.9.4c0 .2-.2.4-.3.4-.1-.1-.3-.2-.3-.3 0-.2.2-.2.3-.2.2-.2.4-.1.3.1zm6.9 3.4c-.2 0-.3-.2-.3-.3 0-.1.2-.2.4-.2s.1.2.1.3c0 .1 0 .2-.2.2zm.7 1.2c-.3 0-.2 0-.2-.3 0-.1 0-.2.2-.2s.3.1.3.3c-.1.3-.2.2-.3.2zm1.8 1.3c.2 0 .3.1.3.2s-.1.1-.2.2c-.1-.1-.2-.2-.2-.3l.1-.1zm.6 5.4c-.2 0-.3-.1-.5-.2-.1-.1-.2-.3-.2-.4 0-.1.2-.3.3-.3.3.1.6.4.6.7 0 0-.1.2-.2.2zm2.7-1.9h-.3s-.2-.1-.2-.2c-.1-.1.1-.2.1-.3.1-.1.4-.1.5 0 .2.2.1.5-.1.5zm-22.4 15c-.2.3-.3.5-.4.8 0 .1-.2.2-.3.3 0 0-.1-.1-.2-.1-.2-.1-.1-.2-.1-.4.1-.2.2-.5.3-.8.1-.2.4-.2.6-.1.1 0 .2.1.1.3zm-.3-1.2c-.1.1-.2.3-.4.1-.2-.2-.3-.3-.1-.5.1-.2.2-.4.3-.7 0-.2.1-.2.2-.2s.2-.1.3.1c0 .2.1.4.2.7-.2.1-.3.3-.5.5zm2-.5c-.1 0-.3-.2-.3-.4s.1-.3.3-.3c.2 0 .3.1.3.3.1.1-.1.4-.3.4zm1.9 3c-.1 0-.4-.1-.3-.2.1-.1.2-.3.3-.3.1 0 .2.1.4.2-.2.2-.3.3-.4.3zm1.1-1.9c0 .2-.3.3-.5.2-.3-.2-.4-.8-.1-1.1.1-.1.2-.1.3-.1.1 0 .2.1.2.3v.3c.1.2.2.3.1.4zm1.7-6.2c-.2 0-.3-.1-.3-.4 0-.1.2-.3.3-.3.1 0 .3.2.3.4s-.1.3-.3.3zm.9-1c.2 0 .4.1.4.2-.1.1-.2.3-.3.4-.1.1-.4-.3-.4-.4 0-.1.1-.2.3-.2zm-.9-5c.2-.2.3-.1.4 0 .2 0 .1.2.1.3 0 .2-.2.3-.3.4-.1.1-.3 0-.4-.1-.1-.1 0-.4.2-.6zm-1 4c0-.2.3-.4.5-.4.3 0 .5.2.5.5s-.2.5-.6.5c-.2-.1-.5-.3-.4-.6zm1.5 18.5c-.1.2-.2.2-.4.2-.2.1-.3-.1-.4-.2-.1-.2-.1-.3 0-.5.1-.1.2-.2.4-.1.1 0 .2.1.3.1.1.1.2.3.1.5zm1 .2c-.2 0-.1-.1-.1-.2s0-.1.1-.2c.1.1.1.2.2.3-.1.1-.2.1-.2.1zm.7 2.1c0 .1-.1.1-.1.1-.1 0-.3-.2-.2-.3 0-.1.1-.1.1-.1.2 0 .3.1.2.3zm1.1.5c-.2 0-.3-.1-.3-.3 0-.1.2-.3.4-.3 0 .1.1.2.2.3 0 .1-.1.3-.3.3zm.4-3.7c0-.1.1-.2.2-.2 0 0 .1.1.1.2l-.2.2c0-.1-.1-.1-.1-.2zm.6 1.2c0 .1-.1.2-.2.2-.1.1-.3-.2-.3-.4 0-.1.1-.1.1-.1.2.1.4.2.4.3zm1.8 1.1c0-.1-.1-.1-.1-.2 0 0 0-.1.1-.1 0 0 0 .1.1.1l-.1.2zm.4.5c0-.2.1-.3.3-.3.3 0 .4.1.4.4 0 .2-.1.4-.3.4-.2-.1-.4-.3-.4-.5zm1.2 4.8c-.2.1-.2-.1-.3-.2-.1-.1-.2-.3-.2-.4-.1-.2-.1-.3 0-.5 0-.1.1-.2.2-.1.2.2.4.4.5.7v.2c.1.3 0 .3-.2.3zm.2-8.5c-.3-.1-.6-.1-.9-.2-.1 0-.1-.2-.2-.3.1 0 .1-.1.2-.1s.2-.1.2-.1c.3 0 .6.1.8.1.2 0 .3.2.2.3 0 .2-.2.3-.3.3zm.4 9.9c-.1 0-.1 0 0 0 0-.1 0-.1.1-.1 0 0 .1 0 .1.1h-.2zm1.5 1.7c-.2 0-.3-.1-.3-.2 0-.2.2-.4.4-.4s.3.1.3.3c0 .2-.1.3-.4.3zm8-21.6c-.1 0-.1 0-.2-.1-.2-.2-.1-.5-.1-.7v-.5c0-.2.3-.3.5-.2.1.1.3.3.3.5 0 .1-.2.8-.2.9-.1.1-.1.1-.3.1zm.8 2.8c0 .2-.2.3-.3.2-.1 0-.1 0-.1-.1v-.9c0-.1.2-.1.2-.1.1 0 .2.1.2.2v.7zm1.8-14.4c-.1.1-.4-.2-.4-.4 0-.1.2-.2.3-.2.2 0 .3.1.3.4-.1 0-.1.1-.2.2zm5.1 6.5c-.1.1-.4.1-.5 0-.2-.2-.4-.4-.3-.8 0-.3 0-.3.3-.2.2.1.4.3.6.5.1.1.1.2.1.3-.1 0-.1.1-.2.2zm1 9.2c-.1 0-.2-.2-.2-.2 0-.1.1-.2.2-.3l.3.3c0 .1-.2.3-.3.2z"/>
  <path d="M-62.9 602.3c-.1-.1-.2-.3-.2-.5 0-.4-.4-.6-.6-.9-.1-.1-.1-.1-.1-.2-.1-.2-.1-.5-.1-.7v-.8c-.1-.3 0-.7-.5-.9-.3-.1-.5-.4-.4-.8.1-.3-.1-.4-.3-.6-.1-.1-.2-.1-.3-.1-.1-.1-.2-.1-.2-.3 0-.6-.5-.7-.8-1-.6-.1-.9-.5-1.3-.9-.2-.2-.3-.4-.3-.6 0-.3 0-.6-.2-.8-.2-.3-.4-.6-.7-.7-.5-.3-.9-.7-1.3-1.1-.2-.2-.4-.4-.6-.5-.2-.1-.4-.2-.5-.4-.2-.3-.4-.5-.6-.7-.7-.6-1.3-1.3-2-1.9-.3-.2-.5-.5-.9-.6-.4-.1-.6-.4-.7-.7-.1-.2-.2-.4-.3-.5-.2-.3-.5-.5-.7-.8-.3-.4-.5-.8-.8-1.2-.3-.4-.5-.9-.9-1.2-.1 0 0-.2-.1-.2-.2-.1-.1-.3-.1-.4 0-.1.2-.2.3-.3.2-.1.4-.3.6-.5.2-.2.2-.2-.1-.3-.1 0-.2-.1-.3-.2-.1-.1-.2-.3-.3-.2-.2 0-.2.2-.2.4v.5c-.1.4-.5.6-.8.4-.4-.3-.8-.7-1.1-1-.2-.2-.4-.5-.3-.9v-.7c0-.3-.1-.5-.4-.6 0 0-.1 0-.1-.1-.5-.3-.5-.3-.5-.9 0-.1 0-.2-.1-.3-.2-.3-.5-.4-.7-.7 0-.1-.2-.1-.2-.1-.2-.3-.6-.3-.8-.4-.2-.2-.4-.3-.7-.3-.2 0-.3-.1-.3-.3 0-.2 0-.3.1-.5.1-.1.1-.3 0-.4 0-.3-.3-.5-.6-.4-.3.2-.6 0-.8-.2l-1.6-1.6c-.1-.1-.1-.2-.1-.3-.1-.5-.3-.9-.3-1.4 0-.1-.1-.2-.1-.3-.1-.2-.3-.5-.4-.7-.2-.5-.1-.9-.1-1.4 0-.1 0-.2.1-.3.3-.3.4-.7.6-1.1.2-.3.4-.6.7-.8.1 0 .2-.1.2-.2.2-.3.4-.7.8-.9.1-.1.3-.2.4-.4.2-.3.5-.5.8-.6.7-.3 1.2-.6 1.1-1.3 0-.2.1-.3.2-.3s.2.1.2.1c.4.3.4.3.8-.1.1-.1.2-.1.3-.2.3-.2.6-.3.8-.6.2-.3.2-.3.4-.7.2-.3.1-.6-.1-.9-.1-.3-.1-.5.1-.7.3-.2.6-.4.8-.7.2-.3.5-.4.7-.7.1-.1.2-.3.3-.4.2-.3.5-.6.8-.8.4-.2.7-.5 1-.8.1-.1.1-.1.2-.1.2 0 .3-.1.4-.3.1-.1.3-.2.4-.3l.9-.9c.3-.3.4-.7.7-1 .4-.4.7-.9 1.2-1.1.2-.1.4-.3.6-.4.5-.5 1-.9 1.6-1.1.3-.1.5-.4.7-.6v-.3h-.2c-.1 0-.2.1-.3.1-.3-.1-.3-.4-.2-.6.1-.1.2-.1.3-.2.2-.1.4-.2.5-.4.5-.5 1.1-.9 1.5-1.6l.3-.3c.2-.2.4-.3.6-.6.2-.2.2-.5.1-.6-.2-.3-.6-.3-.8-.6H-69.4h-.1l-.1-.1c0-.2 0-.4.1-.5.2-.2.3-.5.6-.6 0 0 .1 0 .1-.1.1-.3.3-.4.5-.6.4-.4.6-.9.9-1.4.1-.2-.1-.2-.1-.2h-.3c-.2.1-.3.2-.5.4s-.4.4-.6.5c-.5.3-1.1.6-1.4 1.1l-.1.1c-.8.6-1.5 1.1-2.3 1.7-.1.1-.2.2-.2.3 0 .3-.2.5-.4.6-.5.4-1.2.7-1.6 1.3-.1.2-.3.3-.5.4-.6.4-1.2.7-1.7 1.3 0 .1-.1.1-.2.1-.2 0-.3.2-.4.3-.2.1-.3.2-.5.4-.2.1-.4.1-.6.2l-1.5.6c-.1.1-.3.2-.4.3v.2h.2c.2-.1.4-.2.7-.3.2-.1.3-.1.5 0 .1.1.1.2.1.4s-.1.2-.3.3c-.4.2-.8.5-1 1-.1.2-.2.3-.3.4-.2.2-.5.1-.5-.1s-.1-.3-.2-.4c-.2-.2-.4-.3-.6-.5-.1-.1-.3-.1-.4 0-.2.3-.4.1-.7.1l-.1-.1h-.2v.2c.3.6.3.6-.2 1.1-.4.5-.8.9-1 1.5 0 .2-.1.2 0 .4.2.2.2.3 0 .5-.1.1-.2.1-.3.2-.3.1-.5.4-.7.6-.4.7-1.1 1.1-1.6 1.7-.1.1-.6.2-.6.1-.1-.1-.1-.3 0-.4 0-.1.1-.2.2-.3.1-.2.1-.3-.2-.4-.2-.1-.2.2-.3.1-.2.2-.4.3-.7.4-.1 0-.3.1-.3.4-.1.4-.3.8-.6 1.1-.7.7-1.2 1.4-1.7 2.2-.2.4-.4.4-.6 0-.2-.4-.3-.8-.5-1.2-.1-.1 0-.1 0-.2l.3-.6c-.3-.5-.1-1.1-.1-1.6 0-.3 0-.5-.1-.7-.1-.2-.1-.5-.1-.7v-2.7c0-.4-.1-.8.2-1.2.1-.1 0-.2 0-.3v-.7c-.1-.5.1-.9.5-1.3.1 0 .1-.1.2-.2s0-.2-.1-.3c-.1 0-.2-.1-.3-.1-.3-.1-.3-.1-.3-.4v-.6c0-.2 0-.3.1-.5.1-.1-.1-.4-.1-.5 0-.1.1-.2.1-.3-.1-.3.3-.4.3-.7-.1-.3 0-.6 0-.9v-.2c0-.3.2-.4.3-.5.1-.1.3 0 .4.2l.1.1c.1.1.2.1.3 0 .2-.2.3-.5.5-.7.2-.3.2-.4 0-.6-.2-.3-.4-.5-.4-.8 0-.4-.1-.7-.3-1-.2-.4-.2-.8-.3-1.1v-.2c.3-.4.3-.9.6-1.2.2-.2.4-.4.3-.8 0-.1.1-.2.1-.3.2-.3.2-.5 0-.8-.1-.2-.2-.4-.1-.6v-.8c0-.2 0-.4-.2-.5-.2-.1-.2-.4-.1-.6.1-.2.2-.3.2-.5v-.5c0-.1.1-.2.1-.3.1-.3-.1-.7-.2-.9-.1-.3-.5-.3-.8-.4-.2 0-.5-.1-.7-.1-.2-.1-.2-.4-.4-.5-.1-.1-.2-.3-.3-.4-.4-.4-1-.4-1.4-.4-.5 0-.9-.2-1.4-.3-.2-.2-.5 0-.7-.2-.2-.2-.5-.2-.8-.2-.2 0-.5.2-.5.4 0 .4-.3.6-.4.9-.2 0-.2.1-.2.2v1.2c0 .6-.2 1.2-.7 1.6-.1.1-.2.2-.3.2-.3.2-.5.4-.5.8 0 .1 0 .2-.1.3-.1.3-.2.6 0 1 .3.4 0 .7-.5.8-.4.1-.7.3-.5.7.1.3.1.5 0 .7-.1.3-.2.5-.5.6-.2.1-.3.2-.3.5 0 .2 0 .3.3.1.1-.1.2-.1.4-.2.2 0 .4.4.3.5-.1.1-.1.2-.1.3 0 .4-.1.7-.5.8-.2.1-.1.2-.2.3-.1.1 0 .3.2.3.1 0 .3.1.2-.1 0-.3.2-.4.4-.6.3-.2.5-.3.6-.7.1-.3.6-.3.7-.1.2.4.3.8 0 1.1-.3.4-.6.7-.9 1-.1.1-.4.1-.4.4 0 .2.2.3.4.4.1.1.3.2.4.1.1-.1.2-.2.2-.4v-.4c0-.2.1-.3.2-.3s.3 0 .3.1c.1.3.4.5.3.9-.1.5.2.9.1 1.4.2.2.1.4 0 .6-.2.4-.1.7.1 1 .2.3.3.7.3 1.1 0 .1-.1.3-.1.4 0 .2-.1.4-.3.5-.5.2-.5.2-.2.7.1.1.2.2.2.3 0 .1-.1.2-.1.2-.1.2-.1.3 0 .5.2.4 0 .6-.5.6h-.1c-.2-.2-.5-.1-.8-.1-.5 0-.5 0-.7.4-.2.3-.2.3 0 .6.5.5 1 1 1.6 1.5.2.2.3.5.5.7.1.3.1.4-.2.7-.1.1-.3.3-.4.5-.1.2.1.4.2.6.2.3.2.6 0 .9-.2.3-.3.4-.5.1-.2-.2-.4-.1-.6-.1-.1 0-.1.2-.2.3 0 .1 0 .2.1.2s.2.2.2.2c.2.2.3.4.5.6.3.2.5.5.5.9v1.8c-.3.3.1.5 0 .8v.2c-.2.3-.1.5.2.7.2.2.3.4.4.6.1.3.2.6.4.7.2.2.2.4.2.6l-.3.9c-.2.5-.2.9-.2 1.4.2.2.1.4.1.6 0 .3-.2.5 0 .8v.2l-.3.6c-.2.5-.4 1-.5 1.5 0 .4-.2.9-.7 1.2-.3.2-.4.4-.4.7 0 .2-.1.3-.2.4-.3.2-.3.6-.1.9.3.5.4 1 .6 1.6.2.5.1.7-.3.9-.1 0-.2.1-.3.1-.3 0-.6.2-.8.3-.1 0-.1.2-.1.2.1.2.3.3.2.5-.1.2-.2.3-.4.4-.1.1-.2.2-.4.3-.4.3-.7.6-1.1 1 0 0-.1.1-.1.2 0 .2.5.4.6.3.2-.1.4-.3.6-.4.2-.2.3-.2.5 0 .1.1.1.2.2.3.2.4.4.7.6 1 .2.4.4.8.5 1.2.2.4.2 1.1-.1 1.4-.1.1-.2.3-.1.4v.6c-.1.4-.1.9-.6 1.1 0 0-.1 0-.1.1-.1.2-.3.4-.4.6-.1.3-.3.4-.5.6v.2c-.1.3-.1.4.1.5.2.1.3-.2.5-.2v-.1c.1-.1.2-.2.4-.3.2-.2.5-.2.7-.4.2-.2.5-.2.8-.4.1-.1.3 0 .4 0 .2.1.2.2.1.4s-.1.4-.2.6c-.1.3-.2.6-.4.8-.2.3-.2.6-.3.9-.1.1-.1.3-.1.4v1.5c0 .2.1.3.2.4.2.1.4.1.4-.1.1-.2.1-.5.1-.7 0-.3-.1-.6 0-.8.1-.3 0-.6.2-.8.1-.2.1-.6.1-.8 0-.1 0-.2.1-.2.1-.1.2-.1.3-.1.1 0 .2.1.2.3 0 .4 0 .7.2 1.1.1.1.1.4 0 .6 0 .1-.1.2 0 .3.2.4 0 .8.1 1.2 0 .2-.1.3-.2.5s-.2.4-.2.6c0 .3-.2.5-.3.7-.1.2-.3.3-.4.5 0 .3-.2.4-.4.6-.2.2-.5.4-.6.7 0 .1-.2 0-.2.2 0 .4.2.7.7.8.2 0 .3 0 .3.2 0 .1.2.2.2.4v.5c0 .3 0 .5.3.7.1.1.1.2.1.3.2.5.2 1 .5 1.4.3.6.6 1.1.6 1.7.2.2.1.5.3.7.2.3.2.6.2.9 0 .4 0 .4.2.9.2.3.3.4.6.3.1-.1.3-.2.4-.2.4 0 .5-.4.6-.6.1-.3.1-.7.1-1 0-.1 0-.2.1-.3.3-.6.5-1.2 1-1.6.2-.2.3-.4.4-.6.2-.5.2-.5.5-.9.2-.2.5-.5.3-.8-.1-.3-.1-.5 0-.8.1-.5.5-.8.4-1.3.2-.8.3-1.5-.2-2.3-.3-.5-.4-1-.4-1.6v-4.7c0-.3.1-.6.2-.8.2-.3.3-.7.3-1.1 0-.1.1-.2.1-.3 0-.2.3-.4 0-.7v-.2c0-.2 0-.3.2-.4.3-.2.3-.3.1-.6-.1-.1-.2-.3-.2-.5 0-.3-.2-.4-.4-.5-.2-.1-.3-.3-.3-.5 0-.6-.1-1.2.2-1.7.1-.2-.2-.4 0-.6 0 0 0-.1-.1-.2-.2-.2-.2-.5-.2-.8 0-.3.1-.6 0-.8-.1-.5.3-.8.3-1.2 0-.1.1-.1.1-.2.1-.2.2-.2.3-.1.1 0 .1.1.2.2.6.6 1.1 1.2 1.7 1.8.2.5.7.8 1.2 1.1.7.4 1.1.8 1 1.6 0 .1 0 .2.1.3.1.2.1.5 0 .7-.1.2 0 .3.1.3.1.1.3.1.3-.1 0-.1.1-.2.2-.3.1-.1.3-.1.4 0l.9.9c.1.2.3.4.3.6 0 .2.1.4.2.6.1.2.3.4.3.7 0 .1.1.2.2.3.1.1.5.2.5.2.1-.1.1-.3 0-.5-.1-.3-.2-.5-.3-.8 0-.1-.1-.2-.1-.3 0-.2.2-.3.4-.2.2.1.6.7.6 1 0 .5.1.9.3 1.3.2.4.5.8.5 1.4 0 .1.1.2 0 .3-.1.1-.2.2-.3.2h-.6c-.2 0-.4.1-.5.2-.1.1-.1.2 0 .3.2.2.5.1.7.2.2.1.4.2.7.2.3 0 .5.1.8.1.3 0 .5.1.7.3.5.5.9 1.1 1.1 1.7.1.4.3.8.4 1.2 0 0 0 .1.1.1.6.4 1.3.3 1.7-.3.2-.3.5-.3.6 0 .1.2.2.4.4.6.5.4.8.9 1.1 1.5.2.5.5.9 1.1 1 .2.1.5.3.6.6.1.2.2.5.1.7 0 .5.3.8.5 1.2.1.2.3.2.6.1s.5-.3.6-.6c.1-.3.3-.3.4-.2.2.1.4.2.6.4.1.1 0 .3-.1.5-.1.1-.2.2-.3.2-.1.1-.1.2 0 .3.2.2.4.5.8.3.2-.1.6-.1.7.2.3.4.7.7.8 1.3 0 .2.2.3.3.5.2.1.2.3.2.5s0 .4.3.5c.2.1.4.3.4.6 0 .1 0 .2.1.2.3.1.6.3.9.2.3-.1.6-.3.9-.5.2-.2.4-.2.6-.2.4 0 .7.2 1 .5.2.2.4.5.7.6.3.1.5.3.6.5.2.2.3.4.5.6.2.2.4.3.8.1.2-.1.3-.3.2-.5.3-.4.2-.6.1-.7zM-87.6 559c.5-.5 1.1-1 1.7-1.5.2-.1.3-.3.5-.5.4-.4.8-.8 1.4-1.1.2-.1.2-.3.4-.4.2-.2.4 0 .6 0 .2.1.1.3.3.4 0 .1-.1.2-.1.3h-.2c-.5.1-.9.2-1.2.5-.4.3-.8.7-1.2 1.1l-1.5 1.2c-.1.1-.2.1-.2.1-.2.1-.2 0-.3-.1-.4.2-.3.1-.2 0zm-3.8-15.1v.2c-.2.2-.4.3-.6.5h-.1c-.1-.1-.3-.1-.4-.3-.1-.2.1-.3.1-.4 0-.1.2-.2.2-.3.3-.1.7 0 .8.3zm-1.2-10.6c0-.2.1-.4.2-.4s.2.2.2.4c0 .1-.2.3-.3.3.1 0 0-.1-.1-.3 0 .1 0 .1 0 0zm-7.6 7c-.1 0-.3-.2-.2-.3 0-.1.1-.2.2-.2s.2.1.3.2c-.1.2-.2.3-.3.3zm.5 39.7c0 .1-.2.2-.2.3-.3.3-.5.3-.8-.1-.1-.1-.1-.2-.1-.2 0-.3-.2-.5-.3-.7-.2-.2-.2-.4 0-.6.1-.2.2-.5.5-.6.2-.1.3-.3.3-.6 0-.4.3-.6.7-.4.1.1.1.1.1.2v.7c-.1.2.1.5-.1.8-.1.1-.1.5 0 .6.3.3 0 .4-.1.6zm.2-6.3c-.1 0-.4.1-.4-.2 0-.1-.1-.1-.1-.2s.1-.3.2-.3.3.1.4.2v.2c0 .1.1.3-.1.3zm1.7 21.9s0 .1-.1.2-.4-.1-.4-.2v-.3c0-.1.1-.2.2-.2l.3.3v.2zm1-55.4c0 .1 0 .1-.1.3-.1-.2-.2-.3-.3-.4.1 0 .1-.1.2-.1.2-.1.2.1.2.2zm1.8-.5c0 .1-.1.1-.2.2 0 0-.1-.1-.2-.1 0 0 0-.1-.1-.2 0-.1-.1-.2-.1-.3l.3-.3.2.1v.2c.1.2.1.3.1.4zm.4-8c0-.2.1-.2.2-.2s.2-.1.3.1c0 .2-.1.3-.2.4-.2 0-.3-.2-.3-.3zm.5 21.6c-.2 0-.3 0-.3-.2 0-.1 0-.2.2-.2.1 0 .2 0 .2.2 0 .1-.1.2-.1.2zm.3 19.9c-.1 0-.2 0-.2-.2s.1-.3.3-.3c.2 0 .3.1.3.2 0 .2-.2.3-.4.3zm4.7-12.8c-.3.5-.6.9-.9 1.3-.5.7-1.2 1.2-1.8 1.9-.1.1-.2.1-.3 0 0 0-.1-.1-.1-.2v-.2c0-.4.2-.6.4-.9.5-.8 1.2-1.4 1.7-2.1.1-.1.2-.3.3-.4.2-.2.4-.3.6-.1.2.1.2.5.1.7zm3.2 21c-.2 0-.5-.4-.6-.6 0-.1 0-.2.1-.2.1-.1.3-.1.3-.1.2.2.3.4.5.6l-.3.3zm5.1 4.6c0 .1-.1.1-.2.1-.2 0-.6-.3-.7-.5 0-.2 0-.3.2-.3.1 0 .2 0 .2.1.1.1.3.2.4.4.1 0 .1.1.1.2zm1.3 1.8c-.1 0-.3.1-.3-.2 0-.2 0-.4.2-.4.1 0 .3.1.3.4 0 .1-.1.2-.2.2z"/>
  <path d="M-45.7 578.2c-.3-.5-.4-1-.7-1.5-.1-.1-.1-.3-.1-.5-.1-.3 0-.7-.3-.9-.1-.1-.1-.2-.1-.2 0-.4-.2-.7-.4-1-.4-.7-.8-1.4-1-2.3-.1-.4-.2-.8.2-1.1.1-.1.1-.2 0-.3l-.1-.1c-.3-.3-.4-.4-.1-.7.2-.3 0-.5-.1-.7l-.3-.3c-.2-.2-.3-.6-.3-1 0-.3.1-.5-.2-.8-.3-.4-.6-.9-.7-1.4-.1-.3-.1-.7-.4-1-.1-.2-.1-.4-.1-.6 0-.4 0-.7-.2-1-.1-.2-.2-.5-.2-.7 0-.4 0-.6-.1-.8-.4-.5-.6-1.1-.9-1.6-.2-.3-.3-.8-.8-.9-.1 0-.2-.2-.3-.3-.2-.4-.4-.7-.7-1-.2-.2-.2-.4 0-.6.2-.2.4-.4.6-.5.3-.1.6-.3.9-.5.1 0 .2-.2.2-.2 0-.1-.2-.2-.3-.1-.1 0-.3 0-.4.1-.2.2-.5.3-.7.4-.1.1-.3.2-.4.3-.2.2-.4.2-.6.1l-.6-.3c-.1-.1-.2-.1-.2-.3-.2-.5-.2-1 .2-1.5.1-.1.1-.2.1-.2v-.2c-.2-.1-.3-.3-.5-.4-.1-.1-.2 0-.4.1s-.4.2-.7.2h-.8c-.1 0-.3 0-.3-.1s-.1-.3.1-.4c.1-.1.2-.1.3-.2.1-.1.2-.1.3-.2.1-.1.2-.1.1-.3-.1-.1-.2-.2-.3 0-.2.3-.5.4-.8.5-.4.1-.8.3-1.1.6-.2.2-.5.3-.7.4-.2.1-.5.3-.7.4-.5.5-1.2.8-1.6 1.4-.2 0-.3.2-.5.3-.3.2-.4.2-.6 0l-.2-.2c-.1-.1-.2-.1-.4 0s-.4.3-.5.4c-.3.3-.6.5-1 .7-.3.2-.6.3-.6.7 0 .1-.1.2-.2.3-.2.2-.4.4-.5.6-.2.5-.7.9-1.1 1.2-.1.1-.2.2-.2.3-.1.2-.2.5-.3.6-.4.3-.8.6-1.1.9-.2.2-.6.3-.8.2-.2-.1-.4-.1-.6-.1-.4 0-.4-.1-.3-.5 0-.1.1-.1.1-.2 0-.4.2-.6.5-.8.2-.2.3-.1.4.1 0 .1.1.3.3.2.1-.1.3-.2.3-.4 0-.1-.1-.2-.2-.3 0-.1-.1-.1-.2-.1-.5-.3-.6-.6-.3-1 .2-.3.2-.5.2-.8v-1.2c0-.2-.1-.4-.1-.6 0-.1-.1-.2-.1-.3.2 0 0-.3.3-.3.2 0 .4-.3.6-.4.1-.1.3-.2.4-.3.2-.1.3-.2.5-.4.1-.1.3-.2.2-.3-.1-.1-.3-.1-.4 0-.1 0-.2.2-.3.2-.2.2-.5.4-.7.6-.1.1-.3.1-.5.2 0 0-.1 0-.2-.1s0-.5.1-.6c.2-.1.4-.3.7-.4.7-.4 1.3-.9 1.8-1.4.1-.1.3-.3.2-.4 0-.1-.2-.1-.4-.1-.1 0-.2 0-.2.1-.2.3-.6.4-.9.5-.1 0-.2.1-.2.2-.1.3-.4.6-.7.8-.3.3-.7.3-1.1.2-.2-.1-.5-.2-.6-.4 0-.5-.4-.6-.7-.7-.3-.1-.6 0-.6.3-.1.5-.2.9-.2 1.4 0 .3-.1.6-.4.8-.2.3-.5.5-.7.8-.1.2-.3.4-.5.5-.3.1-.5.2-.7.4-.2.2-.4.3-.6.5-.2.2-.2.5-.5.5-.1 0-.1.2-.1.3 0 .3.1.7 0 1-.2.5-.2 1.1-.2 1.6 0 .1 0 .3-.1.4-.1.2-.3.4 0 .6 0 .3.2.6 0 .9 0 .1 0 .2-.1.3.1.1.1.2.1.3.1.5.2 1 .6 1.4.2.2.2.4 0 .6-.3.3-.6.3-.7 0-.1-.3-.3-.6-.4-.9-.2-.6-.2-.7-.4-.9-.2-.2-.3-.1-.5-.1-.1 0-.2.2-.2.3.3.6.5 1.1.7 1.7.3.2.2.6.4.8.2.2.3.5.3.8 0 .1.1.2.2.3.2.2.2.4.1.5-.1.2-.1.3-.1.5 0 .3-.1.6-.2.9-.3.5-.5.9-.7 1.4-.1.3-.2.5-.3.8-.1.3-.1.4.2.7.1.1.1 0 .1 0 .1-.1 0-.4.3-.4h.3c.1.2.2.4.1.5-.2.4-.4.8-.3 1.3 0 .2-.1.3-.3.3-.3 0-.6-.2-.5-.5 0-.2 0-.4-.1-.5-.2-.3-.4-.5-.6-.8-.2-.3-.6-.2-.8.1-.1.1 0 .4 0 .6.1.2.2.4.2.7 0 .1.1.2.1.2.2.2.3.3.6.4.2.1.4.3.7.3.3-.1.5.2.5.5 0 .4 0 .7-.1 1.1-.1.2-.1.5-.3.6-.2.2-.5.1-.7 0-.2-.1-.4.1-.4.3 0 .2 0 .3.1.5 0 .3.2.4.4.6.2.2.2.5.4.7.2.2.4.4.3.8 0 .2.1.3.2.4.1.1.3.2.4.1.1 0 .2 0 .2.2v.4c0 .1.1.1.1.1.4.1.4.1.3.5 0 .1-.1.3-.1.4-.2.5-.2.7.3.9.3.1.6.3.8.6.3.3.6.6.5 1.1 0 .2.1.2.2.2.2-.1.3-.1.4.1.2.3.3.6.1.9-.1.1 0 .3 0 .4.2 0 .3.1.5-.1h.1c.4-.2.5-.2.7.2.1.1.1.3.1.4v.7c0 .2.1.5.4.6l.9.3c.2.1.4 0 .6-.1.2-.1.1-.4.1-.5 0-.2.1-.3.2-.3.1-.1.3 0 .4.1.1.1.2.2.2.4 0 .1.1.2.2.4l.6.9.1.1c.5.3 1.3.2 1.4-.6v-.1c.1-.3.2-.4.5-.4h.3c.1 0 .2 0 .2-.1v-.3c0-.1-.2-.1-.2-.1-.4-.1-.6-.4-.7-.8 0-.3-.1-.6-.3-.9-.1-.3-.3-.6-.3-.9 0-.1-.1-.3-.2-.4-.1-.2-.1-.3-.2-.5-.2-.4-.3-.9-.6-1.3-.1-.2-.1-.4 0-.6.2-.3.2-.6.3-.9 0-.3.1-.7.5-.8.3-.1.5-.2.5-.4s.1-.5-.1-.7c-.2-.2-.2-.4-.1-.8v-.2c0-.1-.1-.3-.1-.4-.2-.3-.2-.6.1-.8.1-.1.2-.2.2-.4 0-.1-.1-.3-.1-.4.1-.2 0-.3.1-.5 0-.1 0-.2-.1-.3-.3-.5-.5-1-.3-1.6 0-.1.1-.2.1-.3 0-.3.2-.6.3-.9.1-.3.3-.6.2-.9-.1-.4.3-.6.3-.9.2-.1.1-.3.1-.4 0-.2 0-.3.1-.4 0-.5.5-.9.4-1.4l.1-.1c.3-.6.6-1.1.9-1.6.2-.3.3-.5.3-.8.1-.5.3-.8.7-.9.3-.1.4-.2.5-.4.1-.1.1-.2.2-.2.1-.2.3-.2.5-.1.1.1.2.1.2.1.2.1.4.1.5-.1.3-.3.5-.6.7-1.1.1-.2.2-.5.5-.6.4-.2.7-.5.9-.9.1-.3.3-.4.6-.4.1 0 .2 0 .2.2 0 .4-.2.7-.1 1.1l-.1.1c-.2.4-.3.8-.4 1.2-.1.3 0 .4.2.6.1.2.3.2.5.1h.2c.2.1.5.2.6.4.3.3.5.6.7.8.4.3.4.4 0 .8-.1.1-.1.2 0 .3.3.3.2.4-.1.6-.1 0-.1.1-.1.2.1 0 .1.1.2.1s.3 0 .4-.1c0-.1.1-.1.2-.1.3.1.7.2 1 .3l.1.1c.3.3.5.7.6 1.1.1.5.1 1 .1 1.5 0 .2-.1.4-.1.7 0 .2-.1.3-.3.4-.1.1-.2 0-.3-.1h-.3c-.2 0-.3.1-.2.3.1.3.2.6.2.9 0 .2 0 .6.1.7.3.3.5.7.8 1 .1.1.1.2.1.4s-.1.4.1.5v.3c-.1.1-.1.2-.1.3 0 .2 0 .4-.4.4l-.1.1c-.2.3-.1.7-.1 1 0 .2 0 .3.1.4.2.2.1.5-.1.6-.1.1-.2.1-.3.2-.3.2-.3.2-.5 0-.1-.1-.3-.1-.4-.1-.1 0-.2.1-.2.2 0 .2.1.5.1.7v.7c0 .1.1.2.1.3.3.4.4.9.7 1.3-.1.3.2.5.4.6.3.2.4.5.6.7.1.2.1.3 0 .4-.1.3-.2.5-.3.8v.9c-.1.5.1 1 .1 1.5v1.6c0 .4 0 .7.2 1.1.1.2.1.3-.1.4-.2.2-.4.3-.4.6v1.4c0 .3.1.5.4.5.1.2.3.1.4.1.2.1.5.2.5.5 0 .5.1 1.1-.2 1.6-.1.2-.1.3.2.3.1 0 .2 0 .3-.1.1 0 .2-.1.3 0 .3.1.7.5.7.8v.6c0 .3.1.4.3.5.3.1.5.4.5.7 0 .3.2.5.2.8 0 .1.1.2.2.2s.3 0 .4.1c.3-.2.8-.3 1-.6l.3-.6c-.3-.3-.1-.7-.1-1-.1-.3.1-.5.4-.6.3-.1.4-.3.4-.5.1-.3.2-.5.3-.8 0-.3.2-.6.2-.9 0-.4.3-.6.3-1 0-.2.2-.3.4-.5s.1-.4.3-.6c.1-.1.2-.3.3-.5 0-.1-.2-.2-.3-.3-.1-.1-.2-.2-.1-.3.2-.3.5-.6.6-1 .1-.4.3-.7.1-1.2-.2-.4-.2-.9-.3-1.3 0-.2.1-.4.1-.6-.1-1.3.2-2.5.1-3.8v-.3c-.2-.8-.1-1 0-1.8.1-.5.1-1 0-1.4-.2-.5 0-.9.3-1.3l.2-.2v-.2c-.4-.5-.4-1.1-.3-1.6v-.9c0-.2.1-.4.2-.5.1 0 .3.1.5.1.1 0 .1.2.2.2.3.4.4.8.5 1.2.1.1 0 .3.1.4.2.3.3.7.4 1 .1.4.4.7.6 1 .1.1.2.4.4.3.2-.1.1-.3 0-.5-.4.4-.4.3-.4.1zm-25.7-15.4l-.1-.1c0-.1.1-.1.1-.1s.1.1.2.1c0 0-.1.1-.2.1zm1.6 17.7c-.2 0-.3 0-.3-.2 0-.1.2-.3.3-.3.2 0 .3.1.3.3 0 .3-.2.2-.3.2zm1.3 7c0 .1-.2.4-.3.4-.1 0-.1-.1-.2-.1-.2-.1-.1-.2-.1-.4s0-.3.2-.2c.2 0 .4.1.4.3zm-.9-2.6c.2 0 .3.1.4.2.1.1.1.3-.1.3h-.3s-.2-.1-.2-.2c-.1-.1 0-.3.2-.3zm9-29.5c-.1 0-.3.1-.2-.1 0-.1.2-.3.3-.3.1 0 .2.1.2.3-.1.1-.2.1-.3.1zm1.4 9.2c-.1-.1-.3-.1-.4-.1-.4 0-.5-.1-.5-.6l.3-.9c.1-.1.2-.2.4-.1.1.1.3.2.3.4 0 .3.1.5.3.7.1.1.2.3.2.5-.1 0-.5.2-.6.1zm2.5-6.7c0-.1.2-.2.4-.2.3 0 .4.1.4.3 0 .2-.2.2-.3.3-.2.1-.5-.3-.5-.4zm.5 20.4c-.1.1-.2.1-.2.1-.1 0-.1-.1-.2-.2v-.2-.3c0-.1.1-.2.2-.2 0 0 .1 0 .2.1.3.3.3.5 0 .7zm2.6 1.4c0 .2-.2.3-.3.4-.1-.1-.2-.2-.2-.3-.2-.4-.1-.7.1-.9.1-.1.1 0 .2 0 .2.1.2.4.2.5v.3zm1-14.7c.1-.1.1-.2.3-.2.2 0 .2.1.2.2 0 .3-.1.4-.2.4-.1-.1-.3-.4-.3-.4zm1 25c0 .2-.2.5-.3.4-.1-.1-.3-.2-.3-.4-.1-.1.2-.2.4-.2.2-.1.2 0 .2.2zm-.1-26.6c-.2 0-.3.1-.4-.1-.1-.1-.2-.3-.2-.4v-.3h.4c.2.1.3.3.3.5 0 .1-.1.3-.1.3zm.1.9c-.1-.1.2-.3.5-.3 0 0 .1 0 .1.1s.1.2.1.2c-.1.1-.2.3-.4.3-.1 0-.2-.2-.3-.3zm.9 1.6l-.1.1c-.3-.1-.4-.5-.3-.8l.1-.1c.2 0 .3.1.3.3v.3s.1.1 0 .2zm.5 4.2c0-.2 0-.4-.2-.5-.1-.1-.3-.2-.1-.4.1-.1 0-.2.1-.2s.4 0 .4.1c.2.4.6.6.6 1.1 0 .1.1.3.1.4 0 .1.1.2.1.3-.1.1-.1.2-.2.3-.1.1-.4 0-.5-.1 0-.3-.4-.6-.3-1zm1.1 6.1c-.1.1-.2.1-.2.1-.3 0-.6-.3-.6-.5 0-.1.3-.4.5-.3.1 0 .2 0 .3.1.1.1.2.3.2.5-.1-.1-.1.1-.2.1z"/>
  <path d="M-103 570.7c0 .1.1.2.1.3.1.2.3.2.4 0 .1-.2.1-.3.2-.5 0-.1 0-.1-.1-.2-.3-.5-.3-.5.1-.9l.1-.1c.1-.1.3-.1.4 0 .2.2.4.2.6.2.2-.1.2-.3.3-.5.1-.1 0-.2 0-.3v-.5c0-.3-.1-.7-.2-1-.1-.2-.1-.4.1-.6.2-.2.3-.4.4-.7.1-.3 0-.6 0-.8V564v-.3c-.3-.5-.3-1.1-.5-1.6-.1-.4-.3-.7-.2-1.1 0-.1 0-.2-.1-.2-.3-.3-.2-.6-.1-.9.1-.2.1-.3-.1-.4-.1-.1-.1-.3-.2-.4.3-.2 0-.4 0-.6-.1-.2-.1-.4-.1-.6 0-.3.1-.6-.1-.9v-.3c.3-.4 0-.8-.2-1.1-.2-.2-.3-.4-.4-.8 0-.3-.2-.6-.4-.9-.2-.4-.6-.6-1-.9-.1-.1-.2-.2-.4-.2-.6-.1-1-.5-1.4-.9-.1-.4-.5-.4-.7-.4-.4-.1-.7-.2-1-.3-.1-.1-.3-.1-.4-.2-.2 0-.4-.1-.6-.3-.2-.2-.5-.4-.7-.5-.5-.2-1-.3-1.5-.3-.4 0-.8.2-1.3.1l-.9.3-.9.3c-.4.2-.6 0-.8-.2-.2-.1-.3-.3-.5-.5-.1-.1-.6-.1-.6 0-.1.2 0 .3.2.5l.1.1s.1.1 0 .2-.2.3-.5.3h-.6c-.4.2-.9.2-1.3.2s-.6-.1-.6-.6c0-.2 0-.3-.2-.5s-.3-.5-.1-.8c.2-.2.1-.4 0-.6-.1-.3-.3-.6-.5-.9-.1-.1-.1-.2-.1-.3-.1-.2-.5-.4-.8-.3-.4.2-.6.5-.8.9-.4.7-.6 1.4-1.1 2-.1.1-.2.3-.1.6 0 .1 0 .3-.1.5-.3.6-.6 1.3-.8 2-.1.3-.2.6-.3.8-.1.3-.1.6-.1.9-.1.6 0 1.2.1 1.8 0 .2.2.4.3.7.1.2.1.3.2.5.2.2 0 .5.1.7.2.5.1.9-.1 1.3-.3.5-.4 1-.4 1.6v.4c0 .6-.1.7-.7.9-.1 0-.1.1-.2.1 0 .4 0 .9.2 1.2.2.3.5.7.8 1 .4.4.6.8.8 1.2.2.3.2.7.4.9.2.2.3.5.4.8.1.3-.1.6-.4.6h-.7c-.2 0-.3.1-.3.3 0 .1 0 .2.1.3.1.2.2.5.4.6.2.2.1.4 0 .6l-.1.1c-.4.5-.4.6 0 1.1.1.1.2.1.2.2.2.2.3.5.5.7 0 .1.1.2 0 .3-.1.3-.3.5-.5.7-.3.4-.5.8-.7 1.3-.5 1.3-.5.9-.5 2.2v.3c0 .2.1.4.2.6l.3.3c.1.1.1.4 0 .5l-.3.3c-.1.1-.1.2-.1.3 0 .2.1.4.2.5.1.1.2.1.4.1.1 0 .1 0 .2.1.2.1.4.2.4.4 0 .4-.1.8-.3 1.1-.1.1-.2.3-.5.3s-.4.3-.5.5c0 .2.1.5.2.6.3.2.6.4 1 .5.2.1.4.1.5.3.2.2.3.3.4.6.1.2.3.4.4.6.1.2.3.4.4.6.1.2.4.2.5.5l.1.1c.2.3 0 .6-.3.6h-.2c-.2 0-.3.1-.3.3 0 .3 0 .7.2 1 .1.2.2.5.2.8 0 .2.1.4.2.7.1.3.3.6.3 1 0 .5.2.9.3 1.3 0 .1.1.2.1.2-.2.3-.2.6-.3 1-.2.3-.2.7-.4.9-.3.5-.5 1.1-.8 1.6-.1.2-.1.4-.2.6.2.2 0 .5.2.8.1.1 0 .3 0 .5-.1.4-.4.8-.3 1.2 0 .3.1.6.1.9 0 .1.1.3.2.4h.1c.1-.1.2-.2.2-.3 0-.4.3-.7.3-1.1v-.2c.3-.3.5-.6 1-.5.2 0 .3.1.3.3v.4c.2.3.1.6.1.9 0 .3.2.6.1.9 0 .1 0 .2.1.3.2.2.2.5.2.7v.3c.1.4.2.9.2 1.3v1.3c.3.3.2.7.2 1.2-.2.4.2.9.2 1.3 0 .2.2.3.2.5.1.3.3.7.3 1v.2c.1.3.2.7.3 1 .1.2.1.4.2.5.2.2.4.3.6.4h.7c.2 0 .2 0 .2-.2 0-.8-.1-1.6.1-2.3.1-.2.1-.5 0-.7-.1-.2.1-.4 0-.6 0-.1 0-.1-.1-.2 0-.1-.1-.2-.1-.3 0-.4.1-.5.4-.5h.7c.2 0 .3 0 .4-.2 0-.1.2-.1 0-.2-.1-.1-.1-.3-.3-.2-.2.1-.3.1-.5 0-.1 0-.3-.1-.3-.2-.1-.2-.2-.5-.2-.7.3-.2.1-.5.2-.8.1-.2.1-.5.1-.8v-.5c0-.1.2-.3.3-.4.1 0 .2.1.3.1.2.1.3.2.4.4.1.1.2.2.4.2.1 0 .2-.1.2-.3 0-.2 0-.4-.2-.5-.3-.4-.5-.8-.9-1.1-.3-.4-.6-.8-.6-1.3 0-.1-.1-.3-.1-.4-.1-.2-.1-.4-.1-.6v-.7c0-.2-.1-.5-.2-.6-.3-.2-.3-.5-.3-.8 0-.4.2-.8.1-1.2 0-.1.1-.3.1-.4.2-.2.2-.4.2-.6 0-.3.1-.6.4-.7.1 0 .2-.2.3-.3v-.1c0-.2 0-.4-.1-.5-.2-.3-.2-.6-.2-.9 0-.4.2-.6.5-.6.2 0 .3 0 .4-.1.3-.2.3-.2.2-.5-.1-.2-.1-.4-.3-.5-.2-.2 0-.4-.2-.6-.1-.1-.1-.3-.3-.5-.1-.1-.2-.4-.3-.5-.1-.1-.1-.3 0-.4.1-.1.2-.2.1-.3 0-.4.1-.7.3-1.1.1-.2.2-.5.2-.7 0-.3.1-.5.3-.7.2-.2.3-.4.3-.7-.1-.3-.1-.6-.2-.9-.1-.2-.1-.4-.3-.6-.1-.2-.2-.4-.2-.6-.1-.2-.1-.5-.3-.6-.3-.2-.4-.5-.3-.9v-.8c0-.3.1-.5.2-.6.2-.2.4-.4.2-.7-.2-.3.1-.5 0-.8 0-.1-.1-.1-.1-.2-.1-.2-.1-.5 0-.7.2-.3.1-.7.1-1 0-.2.1-.4.1-.6.1-.3.3-.5.5-.7.2-.2.4-.3.6-.1.2.2.5.3.8.3h.4c.5 0 .9-.2 1.2-.5.3-.3 1-.6 1.4-.6.4 0 .7 0 1.1-.1.5-.1.8-.3 1-.8.2-.5.7-.7 1.2-.8.6-.1 1.1-.3 1.3-.9.1-.3.3-.4.5-.6 1.3.1 1.6.2 1.7.5zm1.3-4.8c0-.2.2-.3.4-.3s.1.2.1.3c0 .1.1.3-.2.4-.2.1-.2 0-.3-.1v-.3zm-20.1 11.2c0 .1-.2.2-.2.2-.1 0-.3-.1-.3-.2 0-.2-.1-.5.1-.7.1-.1.1-.2.2-.2s.2.1.3.2v.4c-.1.1-.1.2-.1.3zm1.2 5.5c-.1-.1-.1-.1-.1-.2l.1-.1.1.1c0 .1 0 .1-.1.2zm1.5 13.7h-.4v-.6l.1-.1c.1-.1.2-.2.3-.2.2 0 .1.3.1.4.1.2.1.4-.1.5zm6.6-26.6c-.2.1-.4.2-.6 0-.1-.1-.3-.1-.4-.1-.1 0-.2-.1-.2-.1-.2-.5-.6-.8-1-1.1-.2-.2-.3-.4-.3-.7v-.3-.3c0-.2 0-.4.3-.5.3-.2.4 0 .6 0 .1 0 .2.1.2.2.1.3.4.5.6.7.2.3.4.6.1.9-.1.2 0 .2.1.3l.6.3c.2.1.3.2.2.4.1.2 0 .3-.2.3zm6.2-6.9c-.1.1-.2.1-.3.2-.4.4-.4.4-.2.8.1.2.1.5.1.7-.2.6-.3 1.2-.7 1.6-.1.1-.4 1-.5 1.1 0 .3-.2.5-.5.7-.5.3-.7.5-1 1l-.3.3c-.4.4-.4.4-.9.1-.4-.2-.8-.4-1.1-.7-.1-.1-.2-.3-.4-.3-.1 0-.2-.2-.2-.3 0-.5-.1-.6-.4-.9-.3-.4-.7-.7-1-1.1-.1-.1-.3-.2-.4-.3-.1-.1-.3-.1-.4-.3 0-.2.1-.5.2-.6.1-.1.2-.1.2-.3 0-.1 0-.2.1-.3.2-.3.1-.6.1-.9 0-.2-.3-.3-.5-.2-.1.1-.3.2-.3.5v.4c0 .3-.3.6-.5.7-.1 0-.3 0-.4-.1-.1-.3-.5-.6-.2-1 0-.1.1-.2 0-.2-.2-.5-.1-1-.1-1.5 0-.3.1-.4.4-.5.4-.2.4-.3.3-.6-.1-.2-.1-.4-.3-.6-.2-.4-.3-.7 0-1.1.1-.2.1-.3.1-.5 0 0 0-.1-.1-.1-.3-.3-.4-.4-.2-.8s.4-.8.9-.8c.2 0 .4-.2.6-.4l.3-.3c.5-.6 1.1-.7 1.7-.8.7 0 1.3.2 1.8.4.3.1.7.1 1 .3h.1c.4-.1.7-.1 1 .3.2.3.6.5.8.9.1.2.2.4.2.6 0 .2-.1.5 0 .7l.3.6c.1.3.2.5.2.8 0 .3 0 .7.2 1 .1.1.1.3.1.5s0 .4.2.6c.4.3.3.5 0 .7zm2.7 5.6c0 .2-.2.3-.3.3-.1 0-.2-.2-.2-.4 0-.1 0-.1.3-.1.1.1.2 0 .2.2zm-.2-13.6c-.2 0-.5-.7-.6-.8 0-.2 0-.3.2-.3.1 0 .2.1.3.1.2.2.3.4.5.6.1.1 0 .2 0 .3-.1.2-.2.1-.4.1z"/>
  <path d="M-135.4 531.5c-.1 0-.3 0-.4.1-.5.1-.8.4-1.2.6-.2.2-.3.1-.5 0-.4-.2-.5-.6-.7-1 0-.1 0-.3.1-.4l.3-.6c0-.1.1-.2 0-.4-.1-.3-.1-.6.2-.8.1-.1.1-.3.1-.5 0-.3.1-.6.2-.8.1-.2.1-.4.1-.6 0-.3-.3-.6-.6-.6s-.4.1-.6.4c0 .1-.1.2-.1.3 0 .2-.1.2-.2.4-.2.2-.3.5-.5.7-.1.2-.2.5-.4.7-.2.2-.3.3-.6.3-.4 0-.7-.1-1-.2-.2 0-.4-.1-.6-.2-.3-.3-.7-.3-1-.6-.2-.2-.5-.2-.7-.1-.3.1-.6.1-.9.1-.3 0-.6.2-.9.3-.1 0-.3.5-.4.7-.2.4-.3.9-.8 1.2-.3.1-.5.4-.5.7 0 .2-.2.4-.3.6-.2.2-.2.5-.2.7 0 .3.1.5.4.6.5.2.7.7.8 1.2.1.3 0 .5-.3.7l-.1.1c-.3.3-.6.6-1.1.5-.1 0-.3.1-.3.2 0 .3-.2.6.1.9.3.2.3.5.2.7 0 .1-.1.2-.1.3v1.6c0 .1 0 .2.1.2.3.5.5 1 .4 1.5 0 .3-.1.6.1.9v.2c-.1.1-.1.2-.2.3-.1.2-.2.3-.2.5s0 .2.2.3c.6.1.6.2.6.7v.2c0 .1-.1.1-.2.2-.2.1-.4.2-.3.5.1.3.1.6.2.8v.2c0 .1-.1.2-.2.3-.2.2-.2.3.1.4.3.1.4.4.4.7v.4c0 .4.1.7.5.9.2.1.4.3.4.6s-.1.6-.2 1c-.1.2-.1.4 0 .6.1.3.2.7.2 1v1c0 .2 0 .4-.1.6-.2.5-.4.9-.4 1.5 0 .1 0 .3-.1.4-.2.4 0 .7.4.9l.1.1c.3.1.4.2.5.5v.2c-.1.1-.2.4-.1.5.2.4.1.8.1 1.2 0 .4-.2.6-.5.4-.6-.3-1.2-.2-1.9-.2l-.1.1c0 .1-.1.2.1.2s.4.1.6.1c.5.1 1 .2 1.3.7l.3.3c.5.5.5.6.2 1.1 0 .1-.1.2-.1.3 0 .2.2.3.2.5s-.2.3-.2.5v.6c-.2.2-.1.5-.1.6.1.3.1.6.1.9v.2c.1.3.1.5 0 .8-.1.2 0 .5-.2.7.2.2.1.4.1.6 0 .4.2.8.5 1 .2.1.3.3.6.3.3.1.5.3.5.7 0 .4.1.8.4 1.1.1.2.2.4.2.6v1.2c0 .3-.1.6-.2.9-.2.3-.2.6-.3 1 0 .3 0 .6-.1.8-.2.3 0 .6-.2.8-.1.2-.2.5-.1.7.1.3.1.6.1.9 0 .4.1.8-.1 1.1.3.6.2 1.3.2 1.9 0 .1.1.2.1.3 0 .3.1.5.3.7.1.1.3.9.3 1.1v1.6c0 .3.1.5.4.7.3.2.5.4.5.7 0 .2.1.4.2.5.3.3.3.6.2.9-.1.2 0 .4 0 .5.1.2.1.4.1.6 0 .1 0 .2.1.3.1.4.3.7.1 1.1v.3c.2.3.1.6.2.9.2.5.3 1 .3 1.5v.8c-.1.5.1.9.1 1.3 0 .2.1.3.2.4l.3.3c.2.2.3.4.4.7.1.2.1.5.4.7.2.1.3.4.3.6 0 .3.2.6.4.8.2.4.5.7.8 1 .1.1.1.2.2.3.1.2.2.1.3 0 .2-.3.1-.7.1-1 0-.1-.1-.3 0-.4.1-.1.1-.3.2-.4.2-.3.4-.7.4-1.1 0-.3.1-.6.2-.8.1-.2.1-.4.1-.4-.2-.2-.1-.5-.2-.8-.1-.3 0-.6 0-.8v-.4c-.2-.3-.2-.7-.2-1 0-.3-.2-.7-.1-1 0-.1 0-.3-.1-.4-.2-.5-.3-1-.4-1.5-.1-.6.2-1.2.1-1.8 0 0 0-.1.1-.1.1-.4.2-.7.2-1.1-.1-.9.1-1.8-.1-2.7-.1-.5 0-1 0-1.5s0-.9.1-1.4c.1-.4 0-.8 0-1.3v-1c0-.3 0-.5.1-.7.1-.2.4-.3.6-.2.1.1.2.2.2.4s.1.4.1.5c.1.1.2.2.3.2.1 0 .3-.1.2-.3 0-.1 0-.3-.1-.3-.2-.1-.2-.3-.2-.5s0-.4-.1-.5c-.3-.4-.3-.9-.4-1.3-.1-.2 0-.5-.1-.8.2-.1 0-.4.2-.6.2-.1.3-.3.4-.5.2-.2.2-.4 0-.6l-.8-.8c-.1-.1-.1-.2-.1-.2 0-.3 0-.5-.1-.7.1-.6-.1-1.1-.3-1.6-.1-.4-.1-.8-.3-1.2-.1-.2-.1-.5-.2-.7-.1-.1 0-.2 0-.4.2-.6.7-1.1 1.2-1.5.2-.2.3-.3.4-.5.1-.2.2-.3 0-.5-.1-.3-.2-.6-.2-.9v-.5c0-.1 0-.2-.1-.3-.3-.4-.4-.8-.4-1.2 0-.2-.1-.3-.3-.2-.1 0-.2.1-.3.1-.1 0-.3-.1-.3-.2 0-.4-.1-.8.1-1.2.1-.2.1-.4.1-.6V556c0-.4-.1-.7-.4-1.1-.1-.1-.1-.2-.1-.2 0-.3-.1-.5-.2-.8-.1-.2-.2-.4-.1-.5.1-.2.1-.5.4-.6v-.8c.1-.4.1-.9.3-1.3v-.3-.4c0-.2.1-.3.2-.3.2 0 .4-.1.5.1.1.1.1.2.2.3 0 .3.2.2.4.2s.3-.1.3-.3c0-.4.1-.9-.1-1.3-.1-.2-.2-.4 0-.6v-.3c-.1-.4-.2-.7.1-1 .3-.4.3-.6 0-1.2 0-.1 0-.1-.1-.2-.1-.2-.1-.5.1-.7.1-.1.2-.3.2-.5 0-.5.2-.8.3-1.3 0-.3 0-.5-.3-.6-.1-.1-.3 0-.4.3 0 .1-.1.1-.1.2.1.3-.2.5-.4.6 0 0-.1.1-.2.1s-.5-.4-.5-.5c0-.2.1-.5-.1-.7-.2-.2-.1-.5-.2-.7-.3-.7-.4-1.1-.2-1.7.1-.4.1-.8.3-1.1.1-.1.1-.2.1-.3v-.4c.2-.2.1-.3.1-.5s.1-.4.1-.6c0-.4.1-.8.4-1 .1-.1.1-.1 0-.3-.2-.4-.3-.8 0-1.2.1-.1.1-.2 0-.3 0-.4.1-.6.4-.9.2-.2.5-.4.7-.7.2-.3.5-.6.8-.8l.6-.6c-.3.5-.3.4-.4.3.1 0 0 0 0 0zm-10.9 4.8c0 .2-.2.3-.5.3-.2 0-.3-.2-.3-.4s.2-.4.3-.4c.3 0 .5.3.5.5zm1.8 30.7c0 .2-.2.3-.3.3-.2 0-.3-.1-.3-.3v-.2-.1c0-.2.1-.4.2-.4s.4.2.4.4v.3zm5-4.4c-.1.1-.2.2-.3.2-.2 0-.4-.2-.3-.4 0-.1.1-.1.1-.2 0-.2.1-.3.3-.3.1 0 .2 0 .3.1 0 .2 0 .4-.1.6zm.1-3.9v.3c0 .1-.1.2-.3.2-.2 0-.3-.1-.3-.2v-.4c0-.2 0-.4-.1-.6-.1-.3 0-.6.2-.9.1-.1.1-.1.2-.1 0 .1.1.2.1.3-.2.3 0 .5 0 .8.1.3.2.4.2.6zm.6-11.6v-.8c0-.2.1-.2.2-.3.1 0 .3 0 .3.1 0 .4.3.5.5.8.1.2.1.3-.1.4-.3.1-.3.3-.3.6 0 .1.1.3-.2.3-.3 0-.4-.1-.4-.3v-.8z"/>
  <path d="M-126.1 561.4c-.2 0-.3-.1-.3-.3-.1-.4-.1-.8-.1-1.2 0-.2 0-.4-.3-.5-.3-.1-.3-.4-.1-.7.2-.2.4-.3.5-.4.2-.2.2-.4.1-.6-.1-.2-.2-.3-.3-.5l-.3-1.2c-.1-.4-.1-.8-.3-1.2-.1-.2-.2-.3-.1-.6 0-.3-.1-.5-.3-.7-.1-.1-.2-.2-.3-.4-.3-.5-.7-.5-1.1-.2-.1.1-.1.2-.2.2s-.2.1-.3 0c-.1-.1-.3-.2-.3-.4 0-.4-.3-.5-.6-.6-.2-.1-.5-.1-.7 0-.2.1-.3.3-.4.4-.1.2-.2.4-.4.6-.2.1-.5.3-.7.4-.3.2-.7.2-.6.7l-.1.1c-.2.2-.6.4-.3.8-.2.2-.2.6-.5.8-.3.2-.4.4-.6.7-.1.2-.3.4-.1.7.1.2.2.4.4.6.3.2.4.5.5.8.1.2.1.5.2.8.1.3.1.6.4.9.3.2.4.5.5.9.1.4.1.8.2 1.1 0 .1 0 .2-.1.2-.4.5-.3 1.1-.2 1.7 0 .3 0 .6-.2.7h-.2c-.2-.1-.5-.6-.4-.7.2-.3.1-.6.1-.9 0-.4-.2-.7-.5-.8h-.2s-.1.1 0 .2c.2.5.2 1-.1 1.5v.1c.2.2.1.5.2.8.4.6.6 1.2 1 1.8.1.2.3.5 0 .7-.1.1-.1.4-.1.6 0 .3 0 .5-.2.8 0 0-.1.1-.1.2 0 .4-.1.8-.2 1.2-.1.3-.2.5-.5.6h-.3c-.2 0-.2.1-.1.2.1.3.1.7.3 1 .2.3.3.6.4.9.1.2.2.3.4.5.2.1.3.2.4.4.1.2.1.4.1.6 0 .1-.1.2-.2.2-.1.1-.3.2-.4.3-.2.2.1.3.1.5 0 .3.1.4.4.4.4.1.5.2.4.7 0 .2-.1.4 0 .6.1.3.2.5.2.8.1.3.2.7.4.9.3.3.3.6.2 1-.1.4 0 .9 0 1.3 0 .3 0 .5-.1.7-.2.2-.1.5-.1.8 0 .3.2.6.1 1 .2.2.1.5.1.7.1.2.1.3.2.5.1.1.1.4.2.4.3 0 .2.3.3.4.3.3.2.7.3 1.1-.1.1-.1.3-.3.3-.2.1-.2.4 0 .6.3.4.3.4.2.7v.3c0 .1.1.2.1.3-.1.4.1.8.1 1.2 0 .1.1.2.1.2.3.5.7.9.8 1.5.1.6.3 1.2.4 1.8 0 .1.1.2.1.4v.5c.2.5.4 1 .4 1.6.2.2 0 .5.1.7.1.3.1.5.1.8v2.5c0 .3.2.4.5.5.3.1.5-.2.7-.3.2-.1.3-.4.3-.6v-1c-.1-.9.1-1.7.1-2.6 0-.2.1-.5.2-.8.2-.4.3-.7.3-1.2 0-.2.1-.5-.1-.7v-.3c.2-.3.1-.5.1-.8v-.5c.1-.3.2-.6.2-.9 0-.4.2-.7.1-1v-1.6c0-.2 0-.5-.1-.6-.3-.3-.2-.7-.2-1.1.2-.2 0-.4 0-.6-.1-.2-.1-.4-.1-.6 0-.3-.1-.6-.2-1-.1-.5-.4-.9-.1-1.4 0-.4.1-.8-.1-1.2-.2-.5-.3-1.1-.3-1.7v-1.3-.4c-.2-.7-.2-.7.1-1.3.1-.2.2-.4.1-.6 0-.4.1-.8-.2-1.1v-.2c0-.5-.1-1 .1-1.5.1-.3.2-.7.1-1.1v-.2c.2-.3 0-.6.1-.9.2-.3.1-.6.1-.9 0-.2 0-.4.1-.7.1-.2.1-.5.1-.7.1-.2 0-.4-.2-.6-.1-.1-.1 0-.2 0-.1.1-.1.2-.2.3-.2.2-.4.2-.5 0-.1-.1-.3-.3 0-.5v-.3c-.1-.6.3-1.1.3-1.7.1-.6.5-1.2.4-1.8 0-.1.1-.3.1-.4.2-.4.3-.8.2-1.2 0-.5.1-.8.5-1.1.2-.2.4-.3.4-.5.4-.2.4-.3.1-.3z"/>
  <path d="M-126.1 543.5c-.1 0-.1-.1-.2-.1-.2 0-.5-.1-.7-.1-.3.1-.6.2-.8.3-.2.1-.5 0-.5-.3-.1-.3-.2-.6-.5-.8-.6-.3-1.2-.6-1.9-.8-.2 0-.3-.1-.4 0-.2.1-.5.2-.6.4-.2.4-.5.6-.8.9-.1.1-.2.1-.3.2-.3.1-.4.2-.4.5 0 .1 0 .2-.1.2-.2.1-.5 0-.5-.2 0-.3-.2-.3-.4-.4-.1-.1-.3 0-.3.1 0 .3-.1.5.1.8.3.2.3.6.2.9-.1.6-.1.9 0 1.5v.2c-.2.3-.3.7-.7.9-.1.1-.2.1-.2.2-.1.7.4 1.1.8 1.6.3.1.4.3.6.4.2.1.4.3.5.4.3.2.7.5 1.1.4.4-.2.6 0 .8.1.3.2.6.2.9.1.1 0 .3-.1.4-.2.4-.1.6-.3.8-.6.3-.6.7-1 1.1-1.5.2-.3.6-.2.8.1.1.2.2.3.3.5.1.2.2.2.5.1.4-.2.6-.6.7-1 .1-.2 0-.4-.1-.5-.2-.2-.4-.5-.5-.8v-.3c0-.1.1-.1.1-.2.2-.4.4-.7.1-1.1-.1-.2-.1-.5.2-.7l.3-.3c.2-.1.2-.3.2-.5-.2-.3-.2-.3-.6-.4z"/>
  <path d="M-163.8 565.2s0-.1-.1-.1c-.2.1-.4.3-.5.4-.1.1.1.2.2.3l.1.1c.1.1.2.2.3.1.1-.1.2-.2 0-.3v-.5z"/>
  <path d="M-178.2 588.5s-.1.1 0 .2.2.1.2.1c.2-.1.3-.2.5-.3 0 0 .1-.1.1-.2h-.1c-.4-.2-.5 0-.7.2z"/>
  <path d="M-177.5 588.2z"/>
  <path d="M-46 546.3c.1-.1.2-.2.4-.3l-.1-.1h-.4s-.1.1-.1.2l.2.2z"/>
  <path d="M-47.3 570.3l-.2.2s0 .1.1.2c.1-.1.1-.1.1-.2v-.2z"/>
</svg>
