<svg xmlns="http://www.w3.org/2000/svg" viewBox="-184.5 523.5 200 90" >
  <path d="M-47.7 566.4h.1c.1.1.4.2.4.2.1-.1.2-.3.2-.4v-.9c0-.3.1-.7.1-1 0-.3.1-.6 0-.8-.1-.5-.1-1 .1-1.5.1-.3.1-.5-.2-.8-.5-.5-.5-.9-.1-1.6.3-.5.3-.6-.1-1-.1-.1-.1-.2.1-.2.7-.1.9-.6.8-1.2 0-.3.1-.6.1-.8.1-.2.1-.4-.1-.5-.2-.1-.4-.1-.5.1-.1.1-.1.2-.2.2-.1.1-.3.1-.4.2-.2 0-.2-.2-.1-.3.4-.5.7-1.1 1-1.7.2-.4.4-.7.7-1 .2-.3.4-.5.3-.9-.1-.2.1-.6.1-.8.1-.3.4-.3.6-.4.2-.1.4-.4.6-.6.6-.7 1.2-1.5 1.8-2.2l.3-.3c.2-.1.3-.1.3.1v.2c.1.2.2.4.4.2.2-.1.3-.3.5-.4.2-.3.4-.6.5-.9.2-.3.3-.6.4-.9.1-.2-.3-.6-.6-.6-.5 0-1.1.1-1.6.1-.2 0-.5.2-.7.3-.3.2-.5.1-.8 0-.3-.2-.7-.3-1.1-.3-.1 0-.2 0-.3-.1-.2-.1-.3-.2-.2-.4.1-.2 0-.3-.2-.5-.3-.2-.6-.5-.9-.7-.1-.1-.2-.2-.2-.3-.1-.1-.4-.3-.3-.4 0-.2.3-.1.4-.2.2-.1.3-.2.4-.3.2-.1.3-.2.4.1.2.3.3.3.6.2.3-.1.2-.3.2-.5l-.3-.6c-.2-.3-.3-.3.1-.5s.7-.6.8-1.1c.1-.6.6-.8 1.1-.6.2.1.3.2.5.3.3.2.6.2.9.1.4-.1.4-.2.3-.6v-.1h.2l.3.3.3.3c.2.1.4.2.6.1.2-.2.2-.4.1-.6-.1-.1-.3-.2-.1-.4.1-.1.3 0 .5.1s.4.3.5.5c.1.2.2.4.4.6.1.1.3.3.5.3h1.5c.2 0 .3-.2.4-.4.3-.3.3-.4.7-.2.4.2.9.4 1.3.6.5.3 1 .4 1.5 0 .1 0 .2 0 .3-.1.5 0 .5-.1.5-.5v-.2c0-.2-.1-.3.1-.4.2 0 .5.2.6.3.1.3.1.5.2.8.2.5 1.1.6 1.4.2.1-.1.1-.3 0-.4-.1-.2-.3-.5-.5-.7-.2-.2 0-.2.1-.3h.1c.6.2 1.4.1 1.8.9.2.4.6.6 1.1.5.5-.1.9-.2 1.4-.2.7 0 1.3.1 2 .2h.3c.4 0 .6.1.9.4.4.4.7.4 1 0 .2-.3.5-.3.8-.4.5-.1 1-.1 1.4-.1.1 0 .2.1.3.1l-.2.2c-.1.1-.2.1-.2.2-.1.2.1.5.4.4.4-.1 1 0 1.3-.5 0 0 .1-.1.2-.1.6-.2 1.2-.3 1.7-.5.1 0 .2.1.3.1-.1.1-.1.2-.2.2-.2.2-.3.5-.1.6.1.2.4.2.6.1.2-.1.5-.3.7-.5.6-.6 1.3-.8 2.2-.6.6.2 1.2.3 1.7.4.2.1.5.1.8 0 .4-.1.6-.1.9.3.1.2.4.2.7.3 1 .3 2 .4 3 .1h.2c.7.3 1.5.2 2.3.2.3 0 .6 0 .9.1.6.2 1.1 0 1.5-.4.5-.4.9-.8 1.3-1.1.2-.2.5-.4.7-.5h.2v.2c-.1.3-.2.7-.3 1-.1.5.1.8.6.7 1.4-.3 2.8-.1 4.2-.2.9-.1 1.9 0 2.8-.1.9-.1 1.8-.1 2.8.1.7-.2 1.4.2 2.1.2.1 0 .2.1.3.1l-.2.2c-.1.1-.1.1-.1.2 0 .2.1.4 0 .5-.1.1-.3.1-.4.3-.1.1-.1.3 0 .4 0 .1.2.2.3.1.1 0 .2-.2.4-.3v-.1c0-.1.1-.3.1-.3.2 0 .2.2.2.3v.8c0 .4 0 .5-.5.4-.3 0-.5-.2-.8 0-.1.1-.3.2-.3.3 0 .1.1.3.2.4 0 .1.1.1.2.1.1.1.4 0 .4.3 0 .1-.3.1-.5.1s-.4-.1-.6-.2c-.4-.2-.8-.2-1.2-.2-.2 0-.4.2-.5.3-.3.3-.5.4-.9.4-.5 0-1 0-1.5-.1s-.8.2-.9.7c0 .4-.1.8.2 1.2v.3c-.1-.1-.2-.1-.3-.2-.1-.1-.1-.3-.1-.5-.1-.4-.2-.4-.5-.4s-.6-.1-1-.1c-.3-.1-.6-.2-.9-.5-.4-.4-.9-.7-1.5-.3-.2.1-.3.1-.5 0-.5-.4-1-.2-1.4-.1-.3.1-.4.3-.5.6 0 .2 0 .3-.1.5s-.2.3-.4.2c-.1 0-.2-.2-.2-.3-.2-.7-.2-.7-1-.6-.3.1-.7.1-1 0-.4-.1-.6 0-.9.2-.2.2-.5.3-.7.5-.3.2-.5.3-.8.2-.2-.1-.4.1-.5.3-.1.2-.2.5-.5.5s-.3-.3-.4-.5l-.6-.9c-.1-.1-.2-.1-.3-.1-.5.1-1.1 0-1.5.4-.2.2-.4.3-.7.4-.3.1-.6.2-.9 0-.2-.2-.5-.3-.7-.5-.1-.1-.3-.3-.4-.3-.2 0-.5.1-.6.3-.2.2-.4.5-.6.9-.1.3-.2.5-.1.9.2.7.3 1.3.1 2 0 .2 0 .5.1.7.1.2.1.4-.1.6-.3.6-.2 1.2-.2 1.8 0 .2.2.4.4.5.4.3.6.7.7 1.1.1.5.2 1.2.6 1.6 0 0 .1.1.1.2v.2h-.2c-.1-.1-.3-.2-.4-.4-.2-.1-.3-.3-.5-.4-.4-.3-.8-.1-.8.4 0 .4 0 .6-.3.8-.3.3-.3.6 0 .9.4.4.5.8.4 1.4 0 .5.1 1 .2 1.6 0 .3.1.7 0 1-.1.6 0 1 .3 1.5l.3.6c.2.2.1.4-.1.5-.5.1-.5.5-.5.9v3c0 .6.1.7.7.6.2 0 .3-.1.5-.1.1 0 .3.1.4.2.1.2.2.5.3.8.1.2.1.5.4.5l.1.2c-.2.5-.2.5.2.8.2.1.2.2.2.4v2.5c0 .2-.1.2-.3.1-.1-.1-.2-.1-.2-.2-.3-.2-.6-.2-.8.1l-.3.6c-.1.4-.2.9-.3 1.4-.1.4-.3.9-.5 1.3s-.2.8.1 1.1l.6.9v.2c-.1 0-.1 0-.2-.1-.4-.3-.6-.3-.8.1l-.3.6c-.1.4-.3.9-.1 1.3-.1.9.3 1.7.7 2.5.1.2.1.4-.1.6-.3.1-.5.3-.5.6 0 .4-.1.9.2 1.3.3.4.4.8 0 1.3-.2.2-.2.4.1.6.1.1.2.2.1.3-.2.5 0 1 .2 1.4.1.1.1.3.1.5v1.1c0 .2-.1.4-.1.5-.2.5-.2.6.2 1 .1.1.1.1.1.2 0 .4.2.7.3 1.1.1.2 0 .3-.1.4-.2.3-.2.7-.2 1.1.1.6.3 1.2.3 1.8v1.8c0 .2 0 .4-.1.6-.2.3-.1.6.1.9.3.4.3.9.1 1.4-.1.4-.1.8-.2 1.2-.1.4-.2.9-.4 1.3-.2.5-.4 1-.4 1.6v1.2c0 .3-.3.7-.6.7-.1 0-.3-.1-.3-.2-.1-.6-.4-1.2-.2-1.9.1-.3.1-.6 0-.9-.1-.4-.1-.8-.1-1.2 0-.4 0-.8-.3-1.1-.1-.1-.1-.2-.1-.3 0-.4-.2-.8-.6-1-.1 0-.1-.2-.1-.3v-.4c0-.2-.1-.4-.4-.4-.2 0-.5.2-.6.4-.1.6-.5 1-.4 1.6 0 .2-.1.3-.3.3-.2 0-.2-.2-.2-.3 0-.9-.1-1.7-.1-2.6 0-.4-.1-.5-.3-.5-.3 0-.6.2-.6.5v.9c0 .1-.2.2-.3.2-.1 0-.2-.1-.2-.2 0-.2-.1-.4-.1-.6 0-.2.1-.3.2-.5.1-.3.1-.7-.1-1-.1-.2-.2-.5-.1-.7.2-.6 0-1.1-.2-1.6-.1-.3-.1-.7 0-1 .1-.3.2-.6.3-.8 0-.2.1-.4 0-.5-.3-.5-.3-1.1-.8-1.5-.1-.1-.1-.2-.1-.3-.1-.2-.1-.5-.2-.7-.2-.2-.2-.4 0-.5.3-.2.3-.5.3-.9-.1-.3-.3-.3-.5-.2-.2.1-.4.3-.7.4-.2.1-.3.1-.4-.2 0-.4-.1-.8-.1-1.3v-.1c.3-.5.2-1 .3-1.5.1-.3.2-.6.6-.7.3 0 .4-.2.5-.5.1-.3.3-.6.5-.9.3-.4.4-.8.2-1.2-.2-.6-.3-1.1-.2-1.7v-.5-.4c.2-.5.1-1 .2-1.4 0-.5.1-.9.1-1.4 0-.3-.1-.6-.1-.8 0-.2-.1-.3 0-.5.2-.6.1-1.2.1-1.7 0-.4.1-.8.1-1.3v-.4c-.2-.8-.1-1.6-.1-2.4 0-.5-.2-.9-.6-1.3-.3-.2-.6-.1-.6.2 0 .4-.2.9 0 1.3.1.1 0 .4 0 .5 0 .3-.3.7-.6.7-.2 0-.3-.1-.3-.3v-.5c.3-1.3.4-2.6.3-3.8v-2.4-.5c-.3-.6-.2-1.2-.2-1.8 0-.3-.1-.6-.1-.9v-.4c.1-.5.1-1 .2-1.5 0-.1 0-.3-.1-.4-.4-.7-.8-1.3-1.2-1.9-.1-.2-.2-.4-.2-.7 0-.2 0-.5-.1-.7-.2-.4-.2-.9-.2-1.3 0-.3.1-.4.5-.4s.6-.2.6-.6c0-.1 0-.2-.1-.3-.4-.9-.6-1.7-.8-2.6-.1-.3-.2-.6-.4-.8-.1-.2-.4-.1-.5.1-.2.2-.4.2-.5 0 0-.1 0-.2-.1-.3h.4c.2.1.4-.1.5-.3.1-.2 0-.3-.1-.4-.2-.1-.4-.3-.6-.4-.1-.1-.4-.2-.3-.5.1-.2.4-.3.7-.1.6.4.9.2 1-.5v-.1c.1-.2.1-.5.2-.5.3-.1.3.2.4.3.1.1.3.3.4.2.2-.1.3-.3.4-.4.1-.3 0-.6 0-.8 0-.2 0-.5-.1-.7 0-.1 0-.2-.1-.3l-.3-.3c.1-.1.3-.2.3-.3.1-.1.1-.3 0-.4-.2-.3-.4-.4-.8-.4-.3.1-.6 0-.9-.2-.5-.4-1-.2-1.1.4-.1.3-.2.4-.5.5-.2 0-.3.2-.5.2-.3.1-.7.2-1 .3-.4 0-.8.2-1 .6-.1.3-.3.5-.7.5-.3 0-.4-.1-.4-.4 0-.4.1-.7.4-1 .2-.2.3-.3.2-.6-.1-.3-.3-.3-.5-.4h-.2c-.7.1-1.4-.1-2.1-.4-.8-.3-1.6-.3-2.4-.3h-.5c-.6 0-.8.4-.7.9v.6c-.1.2-.3.2-.4 0l-.6-.9c-.2-.3-.4-.4-.7-.3-.3.1-.5.1-.7 0-.2 0-.4.1-.5.2-.2.2-.4.2-.7.1-.1 0-.2-.1-.4-.1-.3 0-.4.1-.4.4 0 .3 0 .5.4.5s.7.1 1.1.1c.2 0 .4.2.6.3.3.2.6.5 1.1.5.2 0 .4.2.6.4.5.5 1.1.8 1.6 1.2.1.1.3.2.4.2.5 0 .7.2 1 .5.4.4.9.7 1.3 1.1.5.5 1 .9 1.1 1.6 0 .2.2.3.4.4.5.3.8.6.9 1.2.2.9.5 1.6 1 2.4.2.3.3.7.4 1.1.1.3.2.6.4.9.2.4.3.8.4 1.3.1.3 0 .6 0 .9 0 .3.1.6.3.9.1.1.1.2.2.4v.4c-.1.7 0 1.4.3 2 0 .1.1.2.1.2-.1 1 .2 2 .4 2.9v.5c-.1.4-.1.8.1 1.2.1.4.3.8 0 1.2-.1.1-.1.4.1.5.1.1.1.3 0 .4-.5.6-.3 1.3-.2 2 .1.3.1.6 0 .9-.1.2 0 .5-.1.7-.1.5-.1 1.1-.4 1.6-.1.1 0 .4-.1.5 0 .2 0 .5-.2.7-.4.4-.5.9-.7 1.3-.2.4-.4.9-.7 1.4-.1.2-.3.4-.4.5-.5.3-.8.6-.6 1.2 0 .2 0 .4-.1.6-.1.3-.1.6 0 .9.1.3-.1.4-.3.5-.5.2-.5.3-.4.8v.3c0 .1-.1.2-.1.2 0-.1-.1-.2-.1-.2 0-.3-.1-.5-.3-.6-.2-.2-.5-.2-.7.1-.2.4-.5.7-.9 1-.3.2-.5.6-.7.9-.6 1-1.3 1.7-2.3 2.3-.4.2-.7.6-1 .9-.3.3-.6.5-.9.6-.4.1-.8.1-1.2.1-.1 0-.3-.2-.4-.3-.1-.1-.2-.3-.3-.5-.2-.3-.4-.5-.8-.4-.3.1-.5-.1-.6-.3-.3-.4-.7-.6-1.3-.5-.3.1-.5-.1-.5-.5v-.8c-.1-.6-.3-.8-.9-.8h-.2c-.4 0-.4-.1-.3-.4.3-.4 0-.7-.2-1-.3-.4-.7-.8-1-1.3-.1-.1-.2-.3-.3-.4-.2-.2-.4-.4-.6-.7-.1-.2-.3-.3-.3-.5-.2-.4-.4-.6-.8-.7-.2-.1-.4-.1-.6-.2-.2-.1-.4-.2-.3-.5.1-.3-.1-.5-.2-.8-.1-.2-.3-.4-.5-.6-.1-.2-.1-.3.1-.4.1 0 .1 0 .2-.1.4-.2.5-.4.2-.8-.6-1-1.1-2-1.3-3.1 0-.3-.3-.5-.4-.7-.1-.2-.2-.3-.2-.5-.1-.8-.2-1.5-.3-2.3-.1-.5-.1-1-.1-1.5 0-.4 0-.8-.3-1.1-.4-.5-.4-1.2-.7-1.7-.1-.2-.2-.5-.3-.8.4.1.4-.1.4-.3zm18.3-6.1v-1c0-.3-.2-.5-.5-.5-.2 0-.4.1-.5.5 0 .1 0 .2-.1.4-.1.1-.2.2-.3 0-.2-.2-.2-.6 0-.9.4-.6.4-.6-.2-1.1-.3-.3-.4-.4-.2-.8 0-.1.1-.3.1-.4-.1-1-1-1.8-2-1.9h-.4c-.3 0-.5 0-.5-.4 0-.3-.2-.3-.4-.2-.3.2-.3.4 0 .6.2.2.3.3 0 .4-.6.2-.7.5-.7 1.1v.2c0 .3-.2.3-.4.3h-.2c-1.1-.3-2.1-.1-2.5 1.1 0 .1-.2.2-.3.3-.3.4-.3.8 0 1.2.2.3.2.3-.1.3-.1 0-.3 0-.3.2 0 .1.1.3.1.4 0 .1.2.1.3.1h.4c.5-.1.7.1.6.6-.1.5-.3.9-.7 1.2-.2.2-.5.5-.5.8 0 .4-.2.7-.4 1-.1.2-.2.2-.3.1-.1-.1-.3-.2-.4-.1-.2.1-.3.3-.2.5 0 .2.2.3.4.3.3 0 .3.1.1.3-.3.5-.1 1.1-.5 1.5v.3c0 .3 0 .6-.1.8-.1.5-.2 1.1-.2 1.6 0 .6-.1 1.3.2 1.8-.1.5.1 1.1-.1 1.7-.1.3-.1.7-.1 1.1.1.8.2 1.5 1 2 .6.3.9.9 1.1 1.5.2.9.9 1.4 1.5 1.9.1.1.5.1.7 0 .1 0 .2-.3.2-.5s-.1-.5-.1-.7c0-.1 0-.2.1-.3.1 0 .2 0 .2.1.4.3.7.6 1.2.8l.1.1-.1.1c-.2-.1-.5-.1-.7-.2-.3-.1-.5.1-.4.4 0 .1.1.3.2.4.2.3.5.6.4 1 0 .1.1.2.2.3.3.2.6.2.9.1.3-.1.5-.2.5-.6V579c0-.2 0-.4.2-.6.1.2.2.4.2.6v1.5c0 .4.4.6.7.3.1 0 .1-.1.2-.2.1-.2.3-.4.6-.5.2 0 .3-.3.4-.4 0-.3-.1-.6-.4-.8-.1-.1-.3-.1-.4-.2-.2-.1-.3-.2-.2-.4.1-.2.1-.4.2-.6.1-.2.1-.3.2-.5.2.1.4.2.5.3.1.2.1.4.2.6.1.2.2.5.3.7.1.2.3.2.5.1.5-.3.6-.9.2-1.3l-.6-.6v-.2h.1c.2.1.3.3.5.4.3.3.6.2.8-.2v-.4-1.3c0-.3 0-.6.3-.8.2-.1.4-.4.4-.6 0-.6.3-1.1.6-1.6.1-.3.2-.6 0-.9-.2-.4-.2-.7-.2-1.1 0-.6.1-1.2.1-1.9v-.5c-.1-.8-.2-1.5-.2-2.3 0-.4-.1-.8-.5-1.1-.1 0-.2-.2-.1-.3.3-.5-.1-.7-.4-1-.2-.1-.5-.3-.6-.5-.1-.2.1-.5.2-.7.2-.4.1-1 .1-1.7zm40.2-16.2c.4-.2.9-.4 1.3-.6.1 0 .2-.3.1-.4 0-.1-.2-.2-.3-.3h-.3c-.4.1-.7.2-1.1.3-.3 0-.4.3-.3.6.1.2.3.3.6.4zm-49.7 3.2c.5 0 .8-.3 1.1-.6.2-.2 0-.4-.2-.5-.2-.1-.5-.1-.7-.2-.2-.1-.8.3-.8.5-.2.5 0 .8.6.8zm-2.2 34.5c-.1.1-.3.1-.3.2 0 .2-.1.4 0 .5.3.3.5.7.7 1.1.1.3.4.4.6.3.2-.2.2-.4.1-.6-.2-.4-.4-.8-.7-1.2-.1-.1-.3-.1-.4-.3zm29.9-6.8c.1.2.1.4.2.6.1.2.2.1.3 0 .1-.1.1-.2.2-.4.1-.3.1-.6.1-1v-.4c0-.1-.1-.2-.3-.3-.1 0-.2.1-.3.2 0 .5-.1.9-.2 1.3zm-31.6 6.2c.2-.1.4-.1.5-.2.3-.2.3-.4.1-.7-.1-.1-.2-.3-.4-.4-.2-.2-.5-.1-.7 0-.3.2-.1.4 0 .6.1.1.1.3.2.4.1.2.2.2.3.3zm23.4-30.1c0-.5-.2-.6-.5-.4-.2.1-.3.2-.4.3-.1.1-.3.3-.1.5.1.2.3.4.6.4.2 0 .3-.2.4-.4-.1-.2 0-.3 0-.4zm25.2-6.8h.5l.3-.3c0-.1-.1-.3-.2-.3H5.3c-.2 0-.3.2-.2.4 0 .2.1.3.3.3.1-.1.2-.1.4-.1zm-35 41c0-.2-.2-.4-.4-.3-.3.1-.6.3-.8.5-.2.1-.2.4 0 .5.1.2.3.2.5 0l.6-.6c.1.1.1 0 .1-.1zm-7.3-30.5c-.3 0-.6.2-.6.5s.3.4.6.4.5-.1.5-.5c-.1-.2-.2-.4-.5-.4zm13.7 16.7c0-.4-.3-.5-.5-.4-.2.2-.4.5-.6.8 0 .1.1.3.1.3.1.1.3.1.4 0 .3-.2.4-.5.6-.7zm5.2-2.3c.3 0 .5-.2.5-.5 0-.2-.2-.5-.5-.5-.2 0-.5.2-.5.5s.2.5.5.5zm-17-20.7c.3 0 .4-.2.4-.4 0-.3-.4-.6-.6-.6-.2 0-.3.1-.3.4 0 .5.2.6.5.6zm23 42.8c0-.3-.1-.5-.4-.5-.3 0-.5.2-.5.5s.1.4.4.4c.4.1.5-.1.5-.4zm-24.7-43.7c0-.2-.2-.5-.4-.5s-.5.2-.5.4.1.4.3.4c.2 0 .6-.1.6-.3zm-5.8 9.5c0-.3-.2-.5-.4-.5s-.4.2-.4.5c0 .2.2.5.4.5s.4-.2.4-.5zm3.4 4.4c0-.3-.2-.6-.5-.6-.2 0-.3.1-.4.3 0 .3.2.6.4.6.3.1.5-.1.5-.3zm27.2 15.6c0 .1.1.3.2.3s.3-.1.4-.2c.1-.1.1-.2.2-.2.1-.2-.1-.6-.2-.6s-.4.3-.5.5c-.1-.1-.1 0-.1.2zm-7.7-24.5c0 .3.1.4.4.5.3 0 .5-.2.5-.5 0-.2-.2-.4-.4-.4-.3 0-.4.1-.5.4zm-13.9-3.7c0-.2-.2-.4-.4-.4s-.4.2-.4.4.2.4.4.4c.1 0 .3-.2.4-.4zm5.9 5.1c-.2 0-.4.2-.4.4s.2.3.4.3.4-.2.4-.3c0-.2-.2-.4-.4-.4zm-14.9 27.6s.1.2.2.2c.2.1.4-.2.4-.5 0-.2-.1-.4-.3-.3-.3.1-.4.2-.3.6zm18.8-7.4c0-.3-.1-.5-.3-.5-.3 0-.3.2-.3.4s.1.4.4.3c.1 0 .2-.2.2-.2zm-5.8-16.3c-.2-.2-.3-.3-.5-.4-.2-.1-.4.2-.4.4 0 .3.2.4.4.4.1 0 .3-.2.5-.4zm-14.4 10.5c-.1-.1-.3-.2-.4-.3-.2-.1-.3.2-.3.4s.1.3.3.3c.2 0 .4-.2.4-.4zm39-21.1s.2 0 .2-.2-.1-.4-.4-.4c-.2 0-.3.2-.3.3 0 .3.2.3.5.3zm-12.2 41.1c0-.2-.1-.3-.3-.3-.2 0-.3.2-.3.4s.2.3.3.3c.2 0 .3-.1.3-.4zM-38.3 553c.1-.1.3-.2.2-.3 0-.1-.2-.3-.4-.3s-.2.2-.2.3c.1.2.1.3.4.3zm-5.1 11.8l-.4-.4c-.1 0-.3.1-.3.2-.1.2.1.4.2.4s.2-.1.5-.2zm36.4-21c-.1-.1-.2-.2-.3-.2-.2 0-.3.1-.3.3 0 .1 0 .3.2.3s.3-.1.4-.4zm-2.3 2.8c-.2-.1-.3-.2-.4-.3 0 0-.2.1-.2.2 0 .2.1.3.3.3.1 0 .2-.1.3-.2zm-34.5 25.1c.1-.1.3-.2.3-.3 0-.1-.2-.2-.3-.2-.2 0-.3.1-.2.3 0 0 .1 0 .2.2z"/>
  <path d="M-156.2 577.1c-.4.1-.6-.1-.9-.3-.2-.2-.3-.4-.2-.6v-.1c0-.7.2-1.4.5-2 .2-.4-.1-.8-.3-1.2-.3-.5-.7-.9-1-1.4-.3-.5-.7-.8-1.3-.9-.4 0-.7-.2-1.1-.2-.2 0-.5-.1-.6-.3-.3-.3-.7-.5-1.2-.6-.2 0-.3-.1-.4-.2-.4-.4-.8-.6-1.4-.5h-.1l.1-.1c.3-.1.5-.2.8-.1.2.1.5.1.7.1h1.3c.6 0 .9-.5.6-1-.2-.4-.6-.6-.9-.9-.2-.2-.4-.3-.6-.4-.3-.2-.6-.5-.8-.9-.1-.3-.3-.5-.6-.5-.1 0-.2-.2-.3-.2-.2-.3-.4-.6-.7-.8-.5-.4-1.5-.4-2-.1-.3.2-.3.5-.1.8l.6.6s0 .1.1.2h-.2c-.5-.1-.7-.5-.9-.9-.2-.5-.4-.8-1-.7h-.1c-.6-.1-.7-.2-.3-.7.3-.4.4-.9.1-1.3-.1-.1-.1-.2-.2-.3-.4-.2-.8-.5-1.2-.7-.1 0-.2-.1-.3-.1-.6-.1-.9-.4-1.2-.8-.3-.3-.7-.6-1-.8-.3-.2-.5-.2-.8 0-.2.2-.5.4-.7.6-.4.3-.6.3-.9-.2-.1-.1-.2-.3-.2-.4-.2-.3-.2-.5 0-.9.3-.6 0-.9-.6-1-.3 0-.5-.1-.8-.2l-.1-.1.1-.1h.4c.3.1.4-.1.5-.3.1-.2.1-.4-.1-.6-.4-.3-.6-.7-1.1-.8-.3-.1-.6-.3-.9-.5-.4-.2-.7-.4-1.2-.3h-.3c-.1-.1-.2-.2-.1-.3.2-.1.5-.2.7-.3h.8c.3 0 .4-.1.4-.4 0-.5.1-1-.2-1.5-.2-.3-.5-.5-.8-.6-.3-.2-.5-.1-.6.3-.1.3-.5.4-.7.3-.1 0-.1-.1-.1-.2 0-.2.1-.4.2-.6.2-.4.4-.9.2-1.4-.1-.2-.1-.4 0-.5.1-.8-.2-1.5-.5-2.2-.1-.3-.2-.5-.4-.8 0-.1-.1-.2-.2-.3-.3-.3-.7-.5-.6-1 0-.1-.2-.3-.4-.5s-.5-.4-.8-.5c-.2-.1-.2-.2 0-.3 0 0 .1 0 .2-.1.6-.3.7-.5.6-1.1 0-.1-.1-.2-.2-.3-.6-.6-1.2-1.3-1.8-1.9l-.2-.2c-.1-.1-.2-.3 0-.4.1 0 .2 0 .3.1.3.2.6.4 1 .6.4.3.7.2.9-.3.1-.3.3-.6.1-1-.2-.4-.2-.9.3-1.3.4-.3.5-.7.4-1.2 0-.2-.1-.3 0-.5 0-.1.1-.4.2-.4.5-.1.6-.6.8-1 .2-.3.3-.7.4-1 .1-.2 0-.4.2-.5.3-.1.7-.3 1-.4 0 0 .1.1.2.1.1.2.1.3.1.5.2.4.4.5.7.1.3-.4.3-.8 0-1.1-.1-.2-.1-.3-.1-.4.1-.6.3-1.1.1-1.7-.1-.1 0-.3 0-.5s0-.3.2-.4c.2 0 .4.1.4.3 0 .2 0 .3-.1.5 0 .1-.1.3-.1.4.1.2.2.4.3.5.2.1.4.1.5-.1.1-.2.3-.3.5-.5.1 0 .1 0 .2-.1 0 .1.1.1 0 .2-.1.2-.2.4 0 .6.2.2.5.3.8.1.1-.1.2 0 .2.1 0 .2 0 .4.3.5.2.1.5-.1.6-.3.1-.3-.2-.4-.3-.5-.1-.1-.4.1-.3-.2.1-.2-.1-.6.3-.7.2 0 .3-.1.5-.1.7-.1 1-.3 1.1-1.1 0-.4.2-.5.6-.5.6 0 .7 0 .9-.6.1-.4.3-.5.7-.4.2.1.3.2.3.5 0 .1-.1.3-.1.4.3.4.3.8.3 1.2 0 .4.4.5.8.4.4-.2.4-.2.7.1.3.4.5.4.9.2.3-.2.7-.4 1-.6h.2c0 .1 0 .1-.1.2-.2.5 0 .6.3.6.5-.1.7.1.9.4.1.1.2.2.3.2.3.1.4.2.3.5 0 .3.1.4.3.5.6.4.6.4 1.1 0 .3-.2.7-.4 1.1-.6h.1s0 .1-.1.1c-.2.1-.4.2-.6.4-.2.1-.3.3-.2.5.1.2.3.3.5.2.4-.1.7-.3 1.1-.4h.3c0 .1-.1.2-.1.3-.1.2-.2.3-.3.5 0 .2-.1.5 0 .6.3.5.7 1 1.2 1.4.4.4.7.7.9 1.2.2.4.6.7.9 1 .2.2.5.2.6-.1.2-.6.8-.7 1.2-.9.3-.2.7-.1 1-.3.3-.1.5-.2.8-.4.1-.1.2-.2.3-.2h.3c0 .1-.1.2-.2.3-.4.3-.6.7-.7 1.2-.1.7-.4 1.4-.8 2.1-.2.3-.2.6-.3.9 0 .1.1.3.3.4.3.2.5.4.5.8 0 .1 0 .2.1.2.3.5.5 1 .7 1.5.2.4.3.7.3 1.1 0 .6.1 1.2.1 1.7v.5c0 .3-.1.6.1.9.1.1.1.3 0 .4-.4.6-.6 1.2-.4 1.9.1.3-.1.6-.1.9 0 .5 0 1-.2 1.5-.1.4-.1.9-.3 1.4-.1.2-.1.3-.2.4-.4.5-.5 1-.1 1.6.1.1 0 .2-.1.3h-.1c-.5.1-.6.3-.4.8.2.5.4 1 .5 1.5v.3c0 .2-.1.3-.3.2-.2-.1-.4-.2-.5-.5-.2-.4-.4-.8-.9-1.1-.2-.1-.3-.2-.2-.4.1-.2-.1-.4-.3-.5-.1-.1-.3-.2-.4-.3-.2-.4-.5-.7-1-.8-.5-.1-.8-.3-1.1-.8-.2-.4-.7-.5-1.1-.4-.6.1-.8-.2-.6-.8.2-.6.4-1.3.8-1.8.2-.3.1-.6-.1-.8-.4-.6-.5-1.1-.3-1.8v-.1c-.2-.6-.2-1.2.3-1.8.2-.3 0-.6-.1-.8-.1-.2-.2-.3-.3-.4-.1-.2-.2-.4-.1-.6.2-.4.1-.8-.2-1.2-.2-.2-.3-.5-.4-.8-.2-.4-.5-.5-.9-.6-.5 0-.9-.1-1.3-.3-.4-.2-.7-.5-.8-.9-.1-.5-.3-.6-.7-.7-.1 0-.1-.1-.2-.2.1 0 .1-.1.2-.1.2-.1.3-.1.5-.2.3-.1.6-.3.8-.5.4-.3.5-.5.1-1-.4-.4-.8-.8-1.3-1-.4-.1-.6-.1-1 0-.3.1-.5.1-.8.1-.3 0-.4-.2-.4-.4 0-.7-.1-.7-.8-.9-.6-.2-1-.2-1.4.3-.1.1-.3.1-.4.2-.3.1-.5-.1-.7-.4-.2-.3-.4-.5-.6-.5-.2 0-.7.5-.7.7 0 .1.1.3.2.4.4.3.4.8.2 1.2-.2.3-.2.6 0 .9v.2c-.1 0-.2.1-.3 0-.2-.1-.4-.3-.7-.4-.2-.1-.4-.2-.6-.1-.2.1-.2.4-.2.6v.1c.2.3 0 .6-.2.8-.3.3-.3.5-.2.7.2.2.7.4.9.2.2-.1.4-.3.7-.4h.3c0 .1-.1.2-.1.3-.4.2-.8.5-1 .9-.1.2-.3.3-.4.4-.5.4-.5.8-.3 1.3.1.3.2.5 0 .8-.2.3 0 .7.1 1 .2.4.5.8.6 1.3.2.4.2.9.4 1.4.2.5.4.9.6 1.3.1.3.3.6.4.9.1.4.2.5.6.4.6-.1 1-.7 1.1-1.3v-.5c0-.4.4-.6.8-.5.1.1.2.1.4.2s.2.3.1.5c-.3.4-.2.8-.2 1.2v.7c0 .2-.1.4-.2.5-.3.3-.1.6 0 .8.1.2.3.4.5.6.2.3.4.5.5.9.1.3.4.6.6.8.3.2.6.4.9.5.6.1 1 .4 1.5.6.1 0 .1.1.2.1.6.1.9.5 1.2 1 .3.4.6.7 1.1.6.2 0 .4.1.5.2.1.2.3.3.3.5.5 1 1.3 1.4 2.3 1.8.5.2 1 .4 1.4.7.2.2.5.2.8.2.3-.1.7-.1 1.1-.2.1 0 .2-.1.3-.1.2-.1.5-.2.7-.2.2 0 .3.1.5.2-.1.1-.2.2-.3.4l-.6.9c-.2.3 0 .5.2.6.3.2.6.5.8.7l.5.5c.3.4.5.8.8 1.3.4.6.8.6 1.3.1.2-.2.3-.4.5-.6.1-.1.2-.3.3-.4.1-.1.3-.1.4.1.2.4.3.7.2 1.2-.2.7-.4 1.5-.5 2.2 0 .1-.1.1-.1.2-.1.5.1.7.7.7h1c.1 0 .3.1.3.1.1.1.1.3.1.4 0 .1-.2.2-.3.2-.1 0-.2-.1-.4-.2-.3-.1-.5-.1-.7.1-.2.2 0 .4.1.6.4.5.9.9 1.5 1.3.3.2.5.5.7.9.2.4.5.6.9.6h.6c.2 0 .3.1.2.3-.1.4-.1.7-.2 1.1-.1.5-.5.8-1 .7h-.6c-.3.1-.5.3-.5.6.1.5.1 1 .2 1.5.1.4.3.8.4 1.2.2.7.3 1.4.5 2.1.1.3.2.7.4 1 .3.6.2 1.3.1 1.9-.1.7 0 1.3.5 1.7.5.5 1 1.1 1.4 1.8.1.1.1.3.1.4-.2.7.2 1 .7 1.4.5.3.5.5.4 1-.1.2-.2.2-.4.2-.1 0-.2-.1-.3-.1-.3-.2-.5-.3-.8-.5-.5-.2-.9-.6-1.2-1.1-.1-.1-.1-.3-.2-.5-.1-.3-.2-.5-.5-.6-.2 0-.4-.2-.5-.3-.2-.2-.3-.2-.5-.1-.1.1-.2.2-.2.3.1.5-.2.7-.6.8-.9.2-1.7.6-2.7.7-.5 0-.9.3-1.2.6-.4.5-.9.7-1.6.7-.7 0-1.4.1-1.9.6-.2.2-.5.4-.7.5-.2.1-.4.2-.6.2-.6 0-1 .2-1.5.5-.4.2-.4.4-.1.6.4.3.6.8.7 1.3l.3.9c0 .1.1.4-.1.4s-.4-.1-.3-.3c.1-.6-.2-1-.4-1.5-.1-.2-.1-.3-.3-.5-.2-.3-.5-.3-.7-.2-.2.1-.4.3-.5.4-.3.3-.2.3 0 .6.1.1.1.2.2.3-.1 0-.2.1-.3.1h-.4c-.3 0-.5.1-.6.4-.1.3-.3.5-.2.8 0 .1-.1.2-.2.2-.6.3-.6.3-.4 1 .1.2.1.4.1.7-.1.6 0 1.2.1 1.8 0 .1.1.3.1.4-.3.7-.2 1.5-.3 2.2l-.3 1.2c0 .1-.2.2-.3.2-.2-.1-.4-.2-.5-.3-.1-.1-.2-.4-.1-.5.2-.5-.2-.7-.5-1 0 0-.1-.1-.2-.1-.3-.2-.6-.4-.6-.9 0-.3-.2-.6-.5-.9-.5-.6-.9-1.3-1.1-2.1-.1-.3-.2-.5-.4-.7-.3-.3-.6-.7-.8-1-.2-.2-.2-.4-.1-.7.1-.3.2-.7.2-1 .1-.5 0-.6-.5-.7-.2-.1-.5-.1-.7-.1-.5.1-1-.1-1.5 0h-.2l-.1-.1.1-.1c.3 0 .4-.1.4-.4 0-.3-.2-.3-.4-.3-.3 0-.3.2-.4.4-.1.3-.4.4-.7.2v-.2c0-.1.1-.1.1-.2.1-.2-.1-.5-.2-.4-.2.1-.3.2-.5.3v.1c.3.3.1.2-.1.2l-1.5-.3-.1-.1s0-.1.1-.1c.2 0 .4-.1.5-.1.2-.1.3-.3.2-.4l-.3-.3h-.2c-.5.1-.9 0-1.3-.4-.1-.1-.2-.1-.3-.1l-.1-.1c.2-.5-.1-.7-.4-1-.2-.2-.4-.4-.7-.6-.2-.1-.4-.4-.6-.2l-.2-.1c0-.5-.3-.7-.6-.9-.2-.1-.4-.3-.4-.6 0-.1-.1-.3-.1-.5-.1-.3-.3-.5-.3-.8-.1-.4-.3-.6-.8-.6-.2 0-.3-.1-.1-.3.3-.4.1-.7-.1-1.1-.4-.6-.8-1.1-1.2-1.6-.1-.1-.2-.2-.3-.2-.4-.3-.8-.6-1.1-.9-.1-.1-.1-.2-.1-.3.5-.7.6-1.5.5-2.4-.1-.6.2-.9.6-1.2.5-.4.6-.6.1-1.1-.5-.6-.5-.5.2-.9.4-.2.7-.4 1-.7.3-.2.4-.5.3-1-.2-.4.2-.8.6-.8.8-.1.8-.1.8-.9 0-.5 0-1.1.2-1.6.1-.2 0-.6-.1-.9-.1-.8 0-1.5.5-2.1.1-.1.2-.1.3 0 .1.3.3.7.3 1 0 .8.5 1.1 1.1 1.1 1 0 .9.1 1.1-.8.1-.3.1-.6.1-.9 0-.3.1-.4.3-.5h.2c0 .1 0 .1-.1.2-.1.2-.2.5 0 .7.2.2.4.1.6 0 .2-.1.3-.4.2-.6 0-.1-.1-.1-.1-.2-.1-.2 0-.2.1-.2.4.1.9.3 1.3.4l.1.1c0 .3-.1.6.2.9 0 0-.1.1-.1.2-.2.2-.2.4 0 .6.4.4.4.8 0 1.2-.4.6-.5.6-.1 1.2.2.3.5.6.8.9.1.1.2.3 0 .4-.2.1-.3.3-.5.4-.5.2-.7.7-.6 1.2.1.4-.1.7-.5 1-.5.3-1 .7-1.5 1.1-.3.3-.5.6-.3 1 .1.2.1.3.2.5.5.8.9 1.5 1.4 2.3.2.4.2.4-.1.7-.8.7-.6.9 0 1.5.2.3.6.4.9.7.1.1.3.2.4.3.4.3.8.7 1.2 1 .2.2.5.2.7.1.2-.1.3-.2.5-.2.3-.1.4-.1.4.2v.1c-.2.6.3 1 .6 1.5.2.3.6.4 1 .4.8.1 1.6.4 2.3.7.6.3.9.4 1.4-.6.1-.1.2-.3.4-.3.3-.1.4-.3.6-.5.4-.4.8-.7 1.3-1.1H-161.4v.1c-.3.8-.3.8.5.9.3 0 .7.1 1 .2.4.1.8 0 1.1-.2.2-.1.5-.3.7-.5.1-.1.2-.3.2-.4 0-.2-.1-.3-.3-.3-.1 0-.3-.2-.3-.3 0-.2.1-.4.3-.4.3-.1.6-.3.8-.5.3-.2.4-.4.3-.8-.1-.4-.3-.8-.6-1.2-.6-.8-1.1-.9-2.2-.6-.1 0-.2 0-.3.1v-.3c0-.1.1-.2.1-.4s.1-.3.3-.3c.5-.1.5-.2.5-.7 0-.6-.1-1.2-.1-1.8 0-.1.1-.2.2-.2 0 .1.1.2.1.3-.1.6.3 1.2.9 1.5.1.1.3.2.3.3 0 .2-.2.1-.3.1-.2-.1-.3.1-.4.3-.1.2 0 .3.2.4.6.2 1.2.2 1.9.1.3 0 .4-.4.3-.5-.1-.3 0-.8 0-1.3.5.1.5.1.6-.4 0-.1.1-.2.1-.3.2-.3.1-.5 0-.7-.1-.2-.2-.4-.5-.3-.3.1-.4.2-.3.5 0 .4 0 .8.1 1.2zm-23.8.2c-.1-.2-.1-.5-.2-.7-.1-.2-.4-.3-.5-.1-.3.3-.5.7-.4 1.2 0 .2.3.4.4.4.3 0 .7-.4.7-.8zm-1.2 2.6c.1.1.1.2.2.3.2.1.4 0 .5-.2.1-.3.2-.6.4-.9.1-.2.1-.4-.1-.5-.1-.1-.4 0-.5 0-.1 0-.2.2-.2.3-.2.4-.2.7-.3 1zm6.9-8.9c.3 0 .7-.3.7-.6s-.3-.6-.7-.6c-.3 0-.6.3-.6.6s.3.6.6.6zm-1 7.1c0-.1-.1-.3-.2-.5s-.3-.2-.5-.1-.4.6-.3.9c.1.3.3.4.5.5.2.1.4-.1.4-.3.1-.1.1-.2.1-.5zm1.5-6.5c-.3 0-.5.1-.4.4 0 .1.1.3.2.3.2.1.5.1.6-.1.1-.2.1-.4.4-.2.2.2.3 0 .5-.1.1-.1.2-.3.1-.3-.1-.1-.2-.3-.4-.3-.2-.1-.4 0-.4.2-.1.2-.2.2-.4.1h-.2zm7.3 14.7c0-.1 0-.1 0 0-.2 0-.4.1-.6.2-.1.1-.1.4.1.4.4.1.7.1 1.1.2.2 0 .3-.1.3-.2s-.1-.3-.2-.4c0-.1-.1-.1-.2-.1-.1-.1-.3-.1-.5-.1zm4.4-48.4h.1c.3 0 .4-.2.5-.4 0-.3-.2-.3-.3-.3-.2-.1-.4-.1-.6-.2-.2-.1-.4-.1-.5.2-.1.2 0 .4.2.5.2.1.4.2.6.2zm-11.6 51.3c.3 0 .5-.2.5-.4 0-.3-.3-.6-.7-.7-.3 0-.5.2-.5.4.1.4.3.7.7.7zm25.6-17.5c0-.3-.3-.7-.8-.8-.3-.1-.3-.1-.3.2 0 .3.3.9.6 1 .3.1.5-.1.5-.4zm-18.4 22.5c-.2 0-.3.2-.3.4 0 .3.4 1 .7 1 .3.1.4 0 .3-.3-.2-.4-.4-.7-.7-1.1.1.1 0 .1 0 0zm5.3-28.8c0 .3.3.6.5.7.2.1.5-.1.5-.4 0-.3-.3-.6-.7-.7-.2 0-.3.1-.3.4zm5.5 14.2v.3c.1.1.2.3.3.3.1 0 .3-.1.3-.2.1-.1.1-.3.1-.5 0-.4-.1-.6-.3-.6-.3 0-.4.3-.4.7zm-20.6-35.5c0-.1-.1-.3-.2-.3-.1-.1-.3 0-.4.1-.3.1-.2.4-.2.7 0 .3.2.4.4.4.1 0 .2-.2.3-.3.1-.2.1-.3.1-.6zm14.8-3.4c-.3 0-.6.3-.6.5s.2.4.5.4.7-.3.7-.5-.3-.4-.6-.4zm-5.4 50.5c.3 0 .4-.1.5-.3 0-.3-.2-.5-.5-.5-.2 0-.5.2-.5.4s.2.4.5.4zm3.4 7.1c0-.2 0-.4-.3-.4s-.5.2-.5.4.2.4.5.4c.2.1.3 0 .3-.4zm-10.9-42.5c0-.3-.2-.5-.4-.5s-.4.1-.4.3c0 .2.2.5.5.5.1.1.2-.1.3-.3zM-178 577c0-.2-.3-.4-.4-.4-.2 0-.4.3-.4.5s.1.3.4.3c.2 0 .4-.2.4-.4zm20-13.5c-.2 0-.4.2-.4.4s.2.4.4.4.5-.2.5-.4c.1-.2-.2-.4-.5-.4zm-22.2-22.6c0-.2-.2-.4-.5-.4-.2 0-.3.1-.3.3 0 .3.2.5.4.5s.4-.2.4-.4zm6.6-6.1c0 .2.2.4.5.4.2 0 .4-.2.4-.4s-.2-.4-.5-.4-.4.2-.4.4zm20.2 29.9c-.4 0-.6.2-.5.4 0 .2.3.4.5.4s.4-.3.3-.5c-.1-.2-.2-.3-.3-.3zm-16.9-10c0-.2-.1-.4-.4-.4-.2 0-.4.2-.4.4s.2.4.4.4.4-.1.4-.4zm-3.9-19.3c0 .2.2.5.4.5s.4 0 .4-.3-.1-.4-.3-.4c-.3-.1-.5 0-.5.2zm2.3.3c-.1-.1-.3-.2-.4-.2-.2 0-.4.3-.4.5s.2.2.4.2c.2-.1.4-.2.4-.5zm9.4 23.4c0-.2-.2-.4-.4-.4s-.3.1-.4.3c0 .2.1.4.3.4.3.1.4 0 .5-.3zm-7.2 30.5c.1-.1.3-.2.3-.4s-.1-.3-.3-.3c-.2 0-.4.1-.4.4 0 .1.1.2.4.3zm-2.5-36c-.3 0-.4.1-.4.3 0 .2.1.4.3.4.2 0 .4-.1.4-.3-.1-.1-.2-.3-.3-.4zm8.9 4.4c0-.4-.1-.5-.3-.5-.2 0-.4.1-.4.4 0 .3.2.3.4.3.1 0 .3 0 .3-.2zm-11.6-23.9c-.2 0-.4.1-.4.3 0 .2.1.3.3.4.2 0 .4-.2.4-.4s-.1-.3-.3-.3zm14 26.2c-.2.2-.4.4-.4.5 0 .2.1.3.3.3.2 0 .4-.1.4-.3 0-.1-.2-.2-.3-.5zm-15.6 19.7c-.2 0-.3 0-.3.2s.1.4.3.4c.2 0 .3-.1.4-.3-.1-.3-.2-.3-.4-.3zm13.5-38.7c.3 0 .5-.2.4-.3l-.3-.3c-.2-.1-.4.1-.4.3.1.2.2.3.3.3zm-12.1 5.4v-.1c-.2-.1-.3-.2-.5-.2-.1 0-.3.2-.3.2 0 .1.2.3.3.3.2 0 .4-.2.5-.2zm.7-8.8c-.1-.1-.1-.2-.3-.3-.2-.1-.4.1-.4.4 0 .2.1.3.3.3.2 0 .4-.1.4-.4zm4.8 50c-.1-.1-.2-.2-.3-.2-.2-.1-.4.1-.4.3 0 .2.1.3.3.3.2 0 .3-.1.4-.4zm22.5-6.6c.1-.1.2-.2.2-.3 0-.2-.2-.4-.4-.4s-.2.2-.2.4.1.3.4.3zm-25.2 8c.2-.2.2-.3.3-.4-.1-.1-.3-.2-.4-.3-.2 0-.2.2-.2.3.1.2.2.3.3.4zm4.5.4c-.1.2-.2.3-.2.4 0 .2.1.3.3.3.2 0 .3-.1.2-.3 0-.1-.1-.2-.3-.4zm2.4 7.6l.3-.3-.3-.3c-.1 0-.3.1-.2.3 0 .1.1.1.2.3zm1.9-62.5c-.1.3-.1.4-.1.6 0 .1.1.1.2.2.1-.1.2-.2.2-.4 0 0-.1-.2-.3-.4z"/>
  <path d="M-87.1 558.2c.1-.1.2-.2.3-.4.4-.4.9-.8 1.2-1.4.1-.2.3-.3.5-.4.2-.2.4-.3.6-.5.1-.1.1-.3 0-.3-.3-.4-.1-.7.1-1 .3-.4.5-.7.8-1.1.2-.3.4-.5.1-.9v-.2h.2c.2.2.4.2.6 0 0 0 .2-.1.2 0 .3.3.8.3.9.8.1.4.4.5.7.2.1-.1.2-.1.2-.2.3-.5.6-.9 1.1-1.1.1 0 .2-.2.3-.3 0-.1 0-.3-.1-.4-.1-.1-.3-.1-.4-.1-.2.1-.5.2-.7.3h-.2s0-.1.1-.1c.1-.1.3-.1.4-.2l1.8-.6c.1 0 .1 0 .2-.1.5-.4 1-.7 1.4-1.1.4-.3.8-.6 1.2-.8.3-.2.7-.4.9-.9 0-.1.1-.1.2-.2l1.2-.9c.1 0 .1-.1.2-.2.2-.7.9-.9 1.4-1.4.6-.5 1.2-1 1.9-1.5l.1-.1c.7-.2 1.1-.7 1.6-1.2.1-.1.2-.1.4-.2.1 0 .2 0 .2.1v.2c-.3.4-.5.8-.8 1.2-.3.3-.5.7-.9.9-.2.1-.4.4-.5.7-.2.3-.1.5.3.5.5 0 .9.3 1.3.5.3.2.3.3.1.5-.1.1-.1.3-.3.3-.7.4-1.1 1.1-1.6 1.6-.3.3-.7.6-1.1.9-.1.1-.3.3-.3.5-.1.4 0 .5.5.5h.3c0 .1-.1.2-.2.3-.1.1-.2.3-.4.3-.8.2-1.3.8-1.9 1.3-.1.1-.3.3-.4.3-.7.3-1.1.8-1.5 1.4-.3.5-.7.9-1.1 1.3-.3.3-.7.5-1 .8-.1 0-.2.1-.2.1-.6.6-1.4 1-1.9 1.7-.3.5-.9.8-1.3 1.2-.1.1-.2.3-.4.4-.2.2-.3.5-.1.8.4.6.1 1-.2 1.4-.2.2-.4.4-.6.5-.1.1-.3.2-.4.3-.3.2-.5.4-.8.1-.2-.2-.5 0-.5.3 0 .7-.5 1-1 1.2-.3.1-.6.3-.8.5-.2.2-.4.5-.7.7l-.2.2c-.4.4-.8.8-1.1 1.2-.2.2-.2.4-.4.6-.1.2-.2.5-.4.7-.5.7-.5 1.4-.1 2.1.3.5.4 1 .5 1.5.1.6.3 1.1.8 1.6.3.3.7.6 1 1 .2.2.4.3.7.3h.4c.3 0 .4.1.4.4 0 .2 0 .4-.1.6-.1.4 0 .5.4.6h.1c.5.3 1.1.6 1.6.9.2.1.3.3.4.4.2.2.4.3.2.6-.1.2 0 .4.3.5.1 0 .1.1.2.1.5.2.6.5.5 1-.1.8.3 1.4.9 1.9.3.3.6.6 1.1.6 0 0 .1.1.1.2.1.2.1.3.2.5.6.8 1.1 1.5 1.7 2.3.1.2.3.3.4.5.2.3.4.5.5.8.2.5.5.7.9 1 .5.3 1 .7 1.5 1.2.7.6 1.3 1.3 1.9 2 .2.2.6.4.8.6.7.6 1.3 1.1 2 1.7.2.2.4.4.4.7 0 .2.1.4.1.6 0 .2.1.3.3.5.4.3.8.7 1.2.9.3.1.5.3.7.5.2.5.4.9.9 1.1.1 0 .1.3.1.4 0 .3.1.6.3.7.3.2.4.6.4.9 0 .4 0 .9.1 1.3 0 .2.2.3.3.5.2.3.5.5.5.9 0 .2.2.3.3.5.2.3.2.5 0 .6-.2.2-.4.2-.7-.1-.2-.2-.4-.5-.6-.7-.5-.4-.9-.8-1.4-1.2-.2-.2-.5-.3-.8-.3-.3-.1-.5.1-.8.3-.4.2-.7.5-1.2.3-.1 0-.2-.1-.3-.1-.1-.6-.9-.8-.9-1.5v-.1c-.5-.7-.9-1.6-1.6-2.2-.1-.1-.4-.1-.6-.1-.1 0-.3.1-.4.1-.1 0-.3-.1-.4-.3-.1-.2.1-.2.2-.3.4-.3.4-.5 0-.8-.1-.1-.2-.1-.3-.2-.3-.2-.5-.2-.7.1-.1.3-.3.5-.6.6-.2.1-.4.1-.5-.1-.2-.3-.4-.6-.4-1 0-.2-.1-.4-.1-.7-.1-.4-.3-.7-.7-.8-.5-.1-.8-.5-1-.9-.2-.4-.5-.8-.7-1.1-.1-.1-.1-.2-.2-.3-.3-.1-.4-.4-.5-.6-.2-.5-.4-.5-.8-.1-.2.2-.5.3-.7.4-.5.2-.9-.1-1.1-.6-.1-.4-.2-.9-.4-1.3s-.5-.8-.7-1.2c-.2-.3-.4-.4-.7-.5-.4-.1-.8-.1-1.3-.2-.4-.1-.7-.2-1.1-.3-.1-.1-.2-.2 0-.3.1-.1.3-.1.5-.2.1 0 .2.1.3.1.5 0 .7-.2.6-.7-.1-.3-.2-.6-.3-1-.2-.5-.4-1-.4-1.5 0-.4-.2-.7-.4-1-.1-.1-.1-.2-.2-.2-.2 0-.4-.1-.5-.1-.1 0-.1.3-.1.4.1.3.2.7.4 1 0 .1.1.1.1.2.1.2 0 .2-.2.2s-.4-.2-.4-.3c-.2-.5-.4-.9-.6-1.4-.1-.2-.3-.4-.4-.6-.2-.2-.4-.5-.6-.7-.1-.1-.3-.2-.5-.3-.2 0-.3.1-.4.4 0 .1-.1.1-.2.2 0-.1-.1-.2-.1-.3.2-.5 0-1 0-1.4 0-.4-.3-.7-.5-1-.1-.2-.4-.3-.6-.4-.3-.2-.6-.4-.9-.7-.5-.6-1-1.2-1.6-1.7l-.6-.6c-.3-.2-.5-.1-.5.2v.3c-.5.8-.2 1.7-.2 2.6 0 .4 0 .9-.1 1.3s-.1.8-.1 1.2c0 .3.1.5.4.6.3.1.4.3.5.6 0 .2.3.4.3.6 0 .2-.3.3-.4.5-.1.1-.1.3-.1.4.1.7 0 1.4-.4 2.1 0 .1-.1.1-.1.2.1.7-.3 1.3-.1 2 .1.4.1.8.1 1.2v2.6c0 .5.1 1 .4 1.4.4.6.3 1.1.2 1.7-.1.5-.2 1-.4 1.4-.2.3-.2.7-.2 1.1 0 .3-.1.5-.3.8-.3.3-.5.6-.6 1.1 0 .2-.3.4-.4.7l-.9 1.5c-.1.2-.1.4-.1.6 0 .3-.1.5-.1.8-.1.4-.8.8-1.1.7-.1 0-.2-.1-.3-.2-.1-.3-.1-.6-.2-.9 0-.2 0-.4-.1-.6-.1-.5-.3-1-.5-1.4-.1-.2-.2-.5-.3-.7-.3-.7-.6-1.4-.7-2.1 0-.1 0-.2-.1-.2-.3-.3-.3-.7-.3-1.1 0-.5-.2-.8-.7-.9-.1 0-.3-.1-.4-.2-.2-.2-.2-.4 0-.6.1-.2.3-.3.4-.4.6-.7 1.1-1.5 1.5-2.4.2-.7.3-1.3.2-2v-.4c0-.1.1-.2 0-.2l-.3-1.5c0-.2-.2-.3-.4-.3s-.4.2-.3.4c0 .5-.2.9-.2 1.4-.1.5-.1.9-.1 1.4 0 .2-.1.5-.3.6-.1.1-.3-.2-.3-.6 0-.9.1-1.9.5-2.8.2-.4.3-.8.5-1.2.1-.2.1-.4-.1-.6-.2-.2-.4-.1-.6.1l-1.2.6c-.3.2-.6.3-.7.6 0 .1-.2.1-.3.1v-.3-.1c.4-.4.6-1.1 1.1-1.5.3-.2.4-.5.4-.8 0-.5.1-1 .3-1.5.2-.6.2-1.2-.2-1.8-.3-.5-.5-1-.7-1.6-.1-.1-.1-.3-.2-.4-.3-.5-.5-.5-.9-.1-.1.1-.3.2-.5.3-.1 0-.2-.1-.3-.1 0 0 0-.2.1-.2.4-.3.8-.6 1.2-1 .2-.2.4-.4.5-.6.1-.1.1-.3 0-.4-.1-.4-.2-.4.2-.5.2-.1.5-.1.7-.2.5-.2.6-.3.5-.8-.1-.6-.2-1.1-.5-1.6-.2-.4-.2-.7 0-1.1.3-.5.5-.9.9-1.4.3-.3.5-.8.4-1.3 0-.3.2-.5.3-.8.1-.3.2-.5.3-.8v-.4-.2c.2-.5 0-1-.1-1.5 0-.3.2-.7.3-1 .1-.2.1-.5.2-.8 0-.3 0-.5-.2-.7-.2-.2-.3-.5-.4-.8-.1-.2-.1-.3-.3-.5-.3-.2-.5-.5-.1-.8v-.1c-.1-.9.1-1.8 0-2.7 0-.3-.2-.6-.4-.8-.3-.3-.6-.7-1-1-.1-.1 0-.2.1-.3.2 0 .4 0 .6.1.2.2.5.1.6-.2.1-.3.2-.7 0-1-.3-.5-.3-.5.1-.8.3-.3.4-.4.2-.7-.2-.3-.3-.6-.6-.8-.4-.5-.9-.9-1.4-1.3-.1-.1-.4-.2-.3-.5.1-.3.3-.5.6-.5s.5.1.8.1c.1 0 .3.1.4.1.3 0 .6-.2.5-.6 0-.2-.1-.4-.1-.5.2-.4.1-.6-.1-.9-.2-.2-.1-.4.1-.4.4-.1.4-.4.5-.7.2-.6 0-1.1-.3-1.7-.1-.2-.1-.4-.1-.6 0-.1.1-.3.1-.4-.1-.8-.2-1.5-.3-2.3 0-.1-.1-.2-.1-.3-.1-.2-.3-.4-.5-.3-.2.1-.4.3-.3.5 0 .1.1.2.1.2 0 .2-.2.4-.4.3-.1 0-.1-.1-.2-.2-.3-.3-.3-.3 0-.5.5-.4.9-.9 1.1-1.4.2-.3 0-.6-.2-.9-.2-.3-.6-.2-.8.1-.2.3-.4.5-.7.8-.1.1-.2.3-.3.4-.1.1-.2.1-.2.1 0-.1-.1-.2 0-.3 0-.1.1-.1.2-.2.5-.4.5-.9.5-1.5 0-.2-.2-.3-.5-.2-.1 0-.4.1-.4.1-.1-.2.1-.3.3-.4.3-.1.4-.4.5-.6.1-.3.2-.5 0-.8-.2-.3-.1-.4.3-.5h.4c.4-.1.6-.5.4-.9-.3-.6 0-1.1.1-1.7 0-.1.2-.2.3-.3 1-.7 1.2-1.7 1.1-2.8 0-.3 0-.4.1-.6.3-.3.5-.6.5-.9 0-.2.2-.3.4-.3h.5c.5.1 1 .3 1.5.5.3.1.6.1.8.1h.2c-.1 0-.1.1-.2.1-.1.1-.3.2-.2.4.1.1.2.3.3.3.1 0 .3-.2.3-.3.2-.4.2-.5.6-.3.3.1.6.3.6.6.1.6.5.7.9.7.9.1 1.1.3 1.1 1.3 0 .4-.1.8-.3 1.2-.1.2-.1.4.1.6.3.3.3.6.3 1s0 .8.2 1.1c0 .1.1.2.1.2-.3.4-.2 1-.5 1.4-.3.4-.5.9-.6 1.3-.1.4.1.8.2 1.2.2.4.3.8.4 1.3 0 .3.2.6.4.8.1.2.2.3 0 .5-.1.1-.1.3-.2.4-.2.3-.2.3-.6.1-.4-.2-.8 0-.8.4v.8c.1.3 0 .5-.1.7-.1.1-.2.2-.2.4-.1.6-.1 1.2-.1 1.9 0 .5 0 .5.5.6.2.1.3.2.1.3-.6.5-.7 1.1-.5 1.8 0 .1-.1.3-.1.5-.1.5-.3 1-.2 1.4.1 1 0 2.1.1 3.1.1.6.2 1.1.2 1.7 0 .4.1.8-.1 1.2-.1.1-.1.4 0 .5.1.4.3.7.5 1 .2.4.4.4.7.1.1-.1.3-.3.4-.5.4-.7.9-1.3 1.5-1.9.2-.3.4-.6.5-1 .1-.2.2-.4.4-.5.2-.1.5-.3.7-.4h.3v.3c-.2.2-.3.5-.1.8.2.8.5.5.8.3 0 .1-.1.2-.1.3-.1.1-.3.2-.3.3-.1.1 0 .3 0 .5h.4c.3-.2.7-.4 1-.7.5-.4.9-.9 1.4-1.3.5-.4 1-1 1.8-.9.1 0 .2-.1.3-.2.1-.2 0-.5-.1-.7-.3-.2-.5-.3-.8-.1-.6.5-1.1 1-1.7 1.5-.5.4-1 .9-1.4 1.3h-.5zm-5.3 5c.1.2.1.4.2.4s.3 0 .4-.1c.1 0 .1-.1.2-.2.7-.7 1.5-1.4 2-2.3.2-.4.7-.7.5-1.3-.1-.3-.4-.5-.7-.3-.1.1-.2.2-.2.3-.5.5-.9 1.2-1.4 1.7-.3.3-.5.7-.8 1.1 0 .3-.1.5-.2.7zm-7 14.3c0-.4-.1-.6-.4-.6-.3-.1-.5.1-.6.4v.2c0 .3-.1.4-.3.6-.2.1-.3.3-.4.5-.2.2-.2.5 0 .7.2.3.3.6.4.9 0 .1.1.3.2.4.1.2.3.2.5.1.3-.3.7-.5.6-1-.1-.9 0-1.5 0-2.2zm7.4-32.9c.3.1.4-.1.6-.3.1-.2.3-.4.1-.6-.2-.2-.4-.3-.6-.3-.3 0-.6.4-.6.7-.1.4 0 .5.5.5zm11.4 41.4c0-.3-.5-.8-.8-.8-.1 0-.3 0-.3.1-.1.1-.1.3 0 .4.2.2.5.4.8.6.2 0 .3-.1.3-.3zm-5.7-5.6c-.3 0-.4.2-.3.4.1.2.3.4.5.6.2.1.5 0 .5-.3.1-.3-.4-.7-.7-.7zm-12.9-6.9c0-.4-.2-.6-.5-.7-.3 0-.3.2-.3.3 0 .3.2.6.5.6.2.1.3 0 .3-.2zm3.6-34.2c0 .3.2.6.4.6s.3-.2.4-.6c0-.3-.2-.5-.4-.5-.3 0-.4.1-.4.5zM-98 595c-.3 0-.4.1-.4.4 0 .3.2.5.4.5s.3-.2.3-.5c.1-.3-.1-.4-.3-.4zm18.8-7.5c0-.3-.2-.5-.4-.4-.2 0-.3.2-.3.5s.1.4.4.3c.2 0 .3-.2.3-.4zm-14.1-14.7c-.1-.1-.3-.2-.4-.2-.2 0-.4.2-.4.4s.2.3.4.3.4-.2.4-.5zm1.4-39.6c0-.2-.1-.4-.4-.4-.2 0-.4.1-.3.4 0 .2.1.4.4.4.1 0 .3-.2.3-.4zm-2 19.8c-.1-.1-.1-.2-.3-.2-.2-.1-.4.1-.4.4 0 .1.1.3.2.3.2 0 .5-.2.5-.5zm-6.2-12.5c.1-.2.3-.4.3-.5 0-.2-.2-.3-.4-.3s-.4.1-.3.3c0 .2.2.3.4.5zm3-.1c.3 0 .4-.2.4-.4s-.1-.3-.3-.2c-.2.1-.3.2-.4.3.1.1.3.2.3.3z"/>
  <path d="M-60.4 554.8c0-.3.2-.5.5-.7.9-.5 1.9-1 2.8-1.5h.2c0 .1 0 .2-.1.2-.2.1-.4.2-.6.4-.2.1-.3.3-.1.5.1.1.3.2.4.2.5 0 1 .1 1.5-.2.1-.1.3 0 .5.1s.3.3.1.4c-.4.3-.3.8-.3 1.1-.1.6.6 1.3 1.2 1.3.2 0 .4-.1.5-.2.4-.2.9-.5 1.3-.7.1 0 .2 0 .2.1s-.1.2-.1.2c-.4.2-.7.4-1.1.6-.1.1-.2.1-.3.2-.2.2-.2.4 0 .7.2.3.5.7.7 1 .1.1.1.3.3.3.7.5.9 1.2 1.3 1.9.1.3.3.5.4.8.1.2.2.4.1.7 0 .1 0 .3.1.5.2.4.4.8.4 1.3 0 .1 0 .3.1.4.4.9.5 1.9 1.2 2.7.1.1.1.2.1.3-.2.6 0 1.1.4 1.5.3.3.3.5.2.9-.1.2-.1.5.1.7.2.2.3.4 0 .6-.2.2-.2.4-.1.7.3 1 .7 1.9 1.2 2.8.3.5.5 1 .6 1.5.2.8.5 1.4.8 2.1.1.2.2.5.3.7v.2s-.1 0-.1-.1c-.2-.4-.5-.7-.6-1.1-.2-.5-.3-1-.5-1.5-.2-.4-.4-.8-.6-1.3 0 0 0-.1-.1-.1-.2-.1-.4-.3-.6-.3-.2 0-.3.3-.3.5v1.7c0 .2.1.4.2.6.1.2.1.4-.1.5-.4.3-.5.7-.3 1.2.1.4 0 .8 0 1.1 0 .5-.1 1-.1 1.5 0 .3.1.6.1 1 0 .6-.1 1.3-.1 1.9v.3c0 .7-.1 1.4-.1 2.1 0 .5.1 1 .3 1.4.2.6 0 1-.3 1.5-.1.1-.2.3-.3.4-.3.4-.3.4.1.7.2.1.2.2 0 .4-.7.9-1.1 2-1.3 3.1-.1.3-.2.7-.3 1 0 .1-.2.2-.3.3-.4.1-.5.4-.5.7v.8c0 .6-.4 1.1-1 1.2-.3 0-.5-.1-.6-.5 0-.2-.1-.4-.1-.6-.1-.3-.2-.6-.5-.6-.2 0-.4-.2-.3-.5v-.5c0-.6-.6-1-1.2-.9h-.2c0-.1-.1-.2 0-.3.3-.5.2-1 .2-1.5 0-.4-.3-.6-.7-.6-.5-.1-.6-.2-.6-.7v-.8c0-.3 0-.6.3-.8.2-.1.3-.4.1-.6-.2-.3-.2-.5-.2-.8-.1-1.2-.2-2.4-.2-3.6 0-.3.1-.8.2-1 .3-.5.1-1-.2-1.2-.8-.6-1-1.6-1.5-2.3-.1-.1-.1-.3-.1-.5 0-.3.1-.7-.2-1v-.2h.2c.1 0 .2.1.3.2.2.1.5.1.6-.1.1-.1.1-.2.2-.2.3-.1.4-.5.8-.5s.5-.8.1-1c-.1-.1-.3-.1-.4-.1-.1 0-.2.2-.2.3v.1c0 .1 0 .3-.1.4-.1-.2-.2-.3-.2-.5s0-.4.1-.6c0-.1.1-.3.2-.3.4-.1.4-.4.4-.7 0-1.1.1-1.1-.7-2.1-.3-.4-.4-.7-.4-1.2v-.4c0-.2-.3-.3 0-.5.1-.1.3.1.4.1.2 0 .5-.3.6-.5.2-.7.1-1.4 0-2.2-.1-.4-.4-.8-.6-1.2-.1-.1-.2-.2-.3-.2-.4-.1-.8-.5-1.3-.1l-.1-.1c0-.1.1-.1.1-.2.1-.2-.2-.4-.2-.5 0-.2.2-.3.3-.5 0-.1-.1-.2-.1-.3-.4-.4-.7-.8-1.1-1.1-.3-.2-.5-.4-.9-.3-.3.1-.5-.2-.4-.5.1-.4.3-.7.4-1.1.1-.2.2-.4.1-.6 0-.1.1-.2.1-.4.1-.3.1-.5-.1-.6-.2-.1-.5-.1-.7.2-.3.5-.6.9-1.1 1.1-.2.1-.3.4-.4.6-.1.2-.2.5-.4.7-.2.3-.4.3-.7.2-.6-.2-.6-.2-.9.3l-.3.3c-.5.2-.7.6-.9 1.1-.1.2-.2.5-.3.7-.3.5-.7 1-.9 1.5-.3.7-.5 1.5-.7 2.3v.1c-.4.6-.3 1.4-.6 2.1-.2.5-.3 1.2-.4 1.7 0 .2.1.5.2.7.4.5.2 1.1.2 1.6 0 .1-.1.2-.2.3-.2.2-.2.4-.1.7.2.2.2.5.2.8 0 .3 0 .5.2.8.2.4.1.7-.3.9-.4.2-.5.6-.6 1 0 .2 0 .4-.1.5-.3.4-.2.8 0 1.2.3.5.5 1 .7 1.6l.6 2.1c.1.4.4.7.8.9.1 0 .1.1.1.2-.1 0-.2.1-.2.1-.5-.1-.6-.1-.7.5 0 .1-.1.2-.1.3-.4.6-.9.6-1.3 0-.2-.4-.4-.7-.6-1.1-.1-.1-.2-.3-.3-.4-.3-.2-.6-.1-.7.3v.1c0 .2.1.4-.1.6-.3.2-.5 0-.7-.1-.2 0-.3-.1-.5-.2-.4-.1-.5-.2-.5-.6v-.6c0-.3-.1-.5-.2-.7-.3-.4-.3-.4-.8-.2l-.1.1h-.3s-.1-.2 0-.3c.2-.3 0-.6-.1-.9-.1-.1-.2-.2-.3-.2-.4 0-.3-.2-.4-.5-.1-.5-.5-.8-.9-1.1 0 0-.1-.1-.2-.1-.7-.4-.7-.4-.5-1.2.1-.3.1-.6-.2-.7-.2-.1-.2-.3-.2-.5s-.1-.3-.3-.3c-.5-.1-.5-.1-.5-.6 0-.3-.2-.4-.4-.6-.4-.4-.7-.9-.8-1.4-.1-.4 0-.5.4-.4.6.1.8 0 .9-.5.1-.4.1-.9.2-1.3 0-.3-.1-.5-.4-.5-.1 0-.3-.1-.4-.1-.6-.2-1.2-.4-1.3-1.2 0-.1-.1-.3-.1-.4-.1-.2-.1-.4.1-.5.2-.2.4-.2.6 0 .3.3.6.7.7 1.2.1.5.3.6.7.6.2 0 .4-.1.4-.4 0-.4 0-.9.2-1.3.1-.1 0-.3 0-.5s-.2-.4-.4-.4-.3.1-.3.3c0 .1-.1.1-.1.2 0-.1-.1-.2-.1-.2.1-.3.2-.7.3-1 .2-.5.5-1 .8-1.6.1-.2.1-.5.2-.8.1-.5-.1-.9-.2-1.4-.2-.8-.7-1.4-1-2.2-.1-.3-.3-.6-.4-.9v-.2c.1 0 .2-.1.3-.1.2 0 .4.2.4.5.1.4.3.8.4 1.1 0 .1.1.2.1.3.2.3.5.4.8.3.3-.2.4-.7.2-.9-.5-.5-.6-1-.7-1.6-.1-.4.2-.7.1-1.1-.2-.3-.1-.7.1-1v-.2c.1-.8.1-1.5.1-2.3 0-.3.1-.4.3-.6.4-.3.7-.7 1.1-1l.1-.1c.9-.2 1.2-1.1 1.9-1.7.4-.3.3-.9.4-1.4.1-.3.1-.5.1-.8 0-.2.2-.3.4-.2.3.1.6.2.7.6.2.5.9.7 1.3.6.5-.2.8-.5 1.1-.9.1-.3.3-.4.6-.6.2-.1.3-.2.5-.3.1-.1.3-.1.4-.1.1 0 .2.1.1.2-.5.4-.9 1-1.5 1.3-.4.2-.7.4-1 .7-.1.1-.2.3-.2.5 0 .4.2.5.5.3.2-.1.4-.3.6-.5.2-.2.4-.4.6-.5h.2c0 .1-.1.2-.1.2-.1.1-.3.3-.5.4-.3.2-.7.5-1 .7-.3.2-.3.3-.2.8.1.7.3 1.3.1 2-.1.3-.2.6-.3.8-.1.3.1.5.3.7.1.1.2.1.3.2.1.1.1.2.1.3 0 .1-.1.2-.2.3 0-.1-.1-.1-.1-.2-.1-.4-.3-.5-.6-.2-.4.4-.5.9-.6 1.4 0 .2.1.3.3.3.4 0 .7.1 1.1.1.2 0 .4-.1.6-.3.4-.3.7-.6 1.1-.9.2-.1.2-.4.3-.6.1-.2.2-.4.4-.5.4-.2.7-.5.9-.9.3-.5.6-.9.8-1.4.1-.2.3-.3.4-.4.3-.2.7-.5 1-.7.2-.1.3-.2.5-.4s.3-.1.5.1c.3.3.5.3.8.1.3-.3.7-.6 1-.9.2-.2.4-.4.8-.4 0 .1-.1.2-.1.3 0 .1 0 .2.1.3h.5c.1 0 .1-.2.1-.4-.2-.5-.4-.6-.6-.5zm10.4 15.1c-.1.6.3 1 .5 1.3.2.2.4.2.6.1.2-.1.2-.3.1-.6-.1-.2-.2-.3-.2-.5 0-.5-.4-.8-.7-1.2-.1-.2-.4-.3-.5-.1-.1.1-.1.3-.1.5 0 0 0 .1.1.2.1 0 .2.2.2.3zm-9.1-5.4c0 .1 0 .1 0 0h.2c.5 0 .7-.2.4-.7-.1-.3-.3-.6-.4-.9-.1-.1-.2-.3-.3-.3-.2-.1-.4.1-.4.2-.1.4-.2.7-.3 1.1-.1.3.2.5.5.6 0 .1.2 0 .3 0zm5.9 15v-.4c0-.2-.3-.4-.4-.4-.2 0-.4.2-.4.4v.4c0 .3.3.7.4.7.3 0 .4-.3.4-.7zm4.1-3.2c.3 0 .5-.1.5-.4 0-.4-.2-.7-.5-.7s-.5.2-.5.5c-.1.4.1.6.5.6zm-2.8-14c-.1.1-.2.1-.2.2-.1.3.1.8.4.9.2.1.4.1.5-.1.1-.3-.3-1-.7-1zm-4.2-4.8c-.3 0-.5.1-.5.3 0 .2.3.5.5.5s.6-.2.6-.4c0-.1-.4-.4-.6-.4zm-13.1 29.9c0 .4.1.5.4.5.3 0 .5-.2.5-.4 0-.3-.2-.5-.6-.5-.4 0-.3.2-.3.4zm19-21.8c-.1-.2-.1-.3-.2-.5s-.2-.2-.4-.2c-.1 0-.2.2-.2.3 0 .2.1.3.1.5.1.2.2.3.4.2.2 0 .2-.2.3-.3zm-19 19.9c.3 0 .4-.1.4-.3 0-.2-.3-.4-.5-.4s-.4.1-.4.3c0 .2.2.4.5.4zm17.6 4.8c.3 0 .4-.1.4-.3 0-.3-.1-.4-.4-.4-.3 0-.5.1-.5.3 0 .3.2.4.5.4zm-18.1-9.5c.2-.2.3-.4.4-.5.1-.2-.2-.4-.4-.4-.1.1-.3.3-.3.4-.1.1.1.2.3.5zm19.1-16.6c0-.2-.1-.4-.3-.4-.2 0-.4.1-.4.3 0 .3.1.4.4.4.1.1.3 0 .3-.3zm-1.5.4c-.3 0-.3.2-.3.4 0 .3.1.4.3.4.2 0 .3-.1.3-.3.1-.4 0-.5-.3-.5zm-18.9-1.9c0-.2-.2-.4-.3-.4-.1 0-.2.1-.2.2-.1.2 0 .4.2.4.1 0 .3-.1.3-.2z"/>
  <path d="M-111.4 574.6c-.5 0-.9.1-1.2-.2-.2-.2-.4-.1-.5.1-.4.5-.8 1-.8 1.7 0 .2-.1.4-.1.7v.4c0 .4.1.9.1 1.3 0 .2 0 .4-.2.6-.3.3-.3.6-.3.9v.5c0 .4 0 .8.4 1 .1.1.2.2.2.3.2.6.4 1.2.6 1.7.1.3.1.5.1.8 0 .2-.1.3-.2.5l-.3.3c-.2.6-.3 1.3-.5 1.9 0 .2-.1.4-.2.5-.2.3-.2.6.1.9.3.3.4.6.4 1 0 .2.2.4.3.6.3.5.2.7-.3.8-.7.2-.8.3-.7 1 .1.2.1.5.2.7.2.4.2.5-.2.7-.3.2-.7.5-.5 1 0 .1-.1.2-.1.3-.2.3-.3.7-.3 1.1 0 1 0 1 .4 1.9.1.1.1.3.1.4-.2.6.1 1.2.2 1.8 0 .4.3.7.6 1 .3.4.6.7.8 1.1.1.1.1.3.1.4 0 .1-.1.2-.2.3-.1-.1-.2-.1-.2-.2-.1-.3-.3-.5-.6-.5-.4-.1-.5.1-.5.4 0 .5-.1.9-.1 1.4 0 .5-.2.9.1 1.4.1.3.3.4.6.4.2 0 .5-.1.5.2 0 .3-.4.1-.6.2h-.5c-.4 0-.6.3-.4.7.1.3.1.5.1.8 0 .1 0 .3.1.5v.3c-.3.7-.2 1.4-.2 2 0 .6-.2.7-.7.5-.1-.1-.3-.1-.4-.1-.2-.1-.4-.2-.4-.4-.2-.6-.5-1.1-.4-1.7 0-.2-.1-.4-.2-.6-.1-.4-.3-.8-.5-1.1-.2-.4-.2-.9-.2-1.3 0-.3-.1-.5-.1-.8-.1-.3-.2-.6-.1-.9.1-.4 0-.8-.1-1.2-.1-.7-.3-1.4-.4-2.1-.1-.6-.2-1.2-.2-1.7s-.2-.6-.7-.5c-.6.2-.8.4-.9 1.1 0 .3-.2.6-.3.9 0 .1-.1.1-.2.1s-.1-.1-.2-.2c-.2-.7-.3-1.3 0-2 .2-.4.1-.8 0-1.2-.1-.3 0-.6.1-.9.5-1 .9-2 1.3-3 .1-.3.1-.6 0-.9-.3-.7-.2-1.6-.7-2.2.1-.7-.4-1.3-.4-2 0-.5 0-.5.5-.6.1 0 .3-.2.4-.3 0-.2 0-.4-.2-.5-.3-.2-.5-.5-.7-.9-.2-.4-.4-.7-.6-1.1-.2-.3-.4-.5-.8-.6-.3-.1-.7-.3-1-.5-.4-.3-.3-.8.2-1 .7-.3.9-1.3.6-1.8-.1-.1-.3-.2-.4-.2-.6-.2-.7-.6-.4-1.1.3-.4.3-.5 0-.9-.2-.2-.3-.5-.4-.8-.1-.8.1-1.5.4-2.2.3-.7.7-1.3 1.1-1.9.2-.3.2-.6 0-.9-.2-.3-.4-.5-.6-.7-.3-.4-.3-.6 0-.9.3-.4.3-.5.1-.9-.1-.2-.2-.3-.3-.5-.2-.3-.1-.4.2-.5h.5c.4 0 .6-.2.6-.6 0-.1 0-.3-.1-.4-.5-.9-.9-1.9-1.5-2.8-.4-.5-.9-.9-1-1.6-.1-.5-.1-.5.4-.7.2-.1.3-.3.4-.4.1-.3.2-.7.1-1-.1-.5 0-.9.2-1.3.3-.5.5-1.1.3-1.7-.1-.4-.2-.9-.4-1.2-.2-.4-.3-.8-.3-1.2-.1-1.4.3-2.6.8-3.8.1-.1.2-.3.2-.4.2-.3.4-.7.3-1.1 0-.1 0-.2.1-.3.4-.8.8-1.5 1.2-2.3.1-.2.2-.3.3-.4.4-.4.8-.3 1 .2.2.3.4.6.6 1 .1.2.1.4 0 .6-.1.4-.1.8.2 1.1.1.1.1.3.1.4 0 .2.2.3.4.4.6.2 1.1 0 1.6-.1.2 0 .5-.1.7-.1.2 0 .3-.1.4-.3.1-.2 0-.3-.1-.4 0-.1-.1-.1-.1-.2v-.2h.2c.2.1.4.2.6.4.4.5.7.5 1.3.3.6-.2 1.2-.5 1.9-.6.6-.1 1.2-.2 1.8-.1.4.1.8.2 1.2.5.3.2.6.4 1 .5.4.1.7.3 1.1.4.5.1.9.3 1.2.7.3.4.7.5 1.1.7.9.4 1.6.9 1.7 1.9 0 .3.2.5.4.7.2.3.3.6.3.9v1.2c0 .3.1.5.2.8 0 .1.1.2.1.3v.2c.1.4.3.8 0 1.1v.3c.5 1.2.6 2.4 1 3.6 0 .1 0 .3-.1.5v.7c.1.4-.1.8-.3 1.1-.2.3-.2.6-.2.9.1.4.2.9.2 1.4 0 .2-.1.4-.1.6-.1.3-.3.3-.5.1-.2-.2-.4-.4-.7-.1-.4.3-.5.6-.3.9.1.2.2.4.1.6 0 .1-.1.2-.2.2l-.2-.2c-.1-.1-.1-.2-.1-.3-.1-.2-.3-.3-.5-.2-.2.2-.5.4-.7.6-.3.5-.7.8-1.3.9-.6.1-1 .4-1.2.9-.2.5-.8.6-1.2.7-.4.1-.8.1-1.1.1-.4 0-.8.2-1 .5-.4.5-.9.6-1.3.5zm1.3-4.9c.1-.1.3-.1.4-.2.2-.1.3-.3.4-.5.2-.4.5-.7.9-.9.3-.2.4-.4.5-.7.1-.4.3-.8.5-1.2.2-.5.5-1.1.7-1.6.1-.3.1-.5 0-.8-.3-.6-.1-.6.3-1 .1-.1.3-.1.3-.3.1-.1.1-.4 0-.5-.3-.3-.2-.6-.3-.9-.1-.5-.3-1-.2-1.5 0-.1-.1-.2-.1-.3-.2-.5-.6-.9-.4-1.5 0-.1 0-.2-.1-.2-.2-.7-.7-1.1-1.1-1.5-.2-.2-.4-.2-.7-.1-.1 0-.3.1-.4 0l-2.1-.6c-.8-.2-1.5-.1-2.1.5-.4.4-.9.8-1.4 1-.4.2-.6.6-.7 1-.1.3.1.5.3.7.1.1.1.2 0 .4-.3.4-.2.8 0 1.3.1.1.1.3.2.4.2.4.1.5-.3.7-.2.1-.4.2-.4.5 0 .5.1 1 .1 1.5 0 .1.1.2 0 .3-.2.3 0 .5.1.7.2.5.7.5 1 .1.2-.2.3-.5.2-.8 0-.3.2-.5.3-.5.1 0 .3.3.3.6v.1c-.2.3-.2.8-.5 1.1-.3.3-.2.7.2.9.3.1.5.3.7.6.2.3.5.5.7.8.2.2.4.5.4.8 0 .2.1.3.3.4.2.2.4.3.5.5.5.3 1 .5 1.5.7zm-2.9-1.7c0-.1 0-.2-.1-.3-.3-.4-.6-.8-1-1.2-.4-.4-.8-.2-1 .2-.2.4-.1 1.3.2 1.6.3.4.6.7 1 1 .4.3.8.7 1.3.4.2-.1.4-.2.4-.4s-.1-.4-.3-.5c-.1-.1-.2-.1-.4-.2s-.4-.2-.2-.5c.1.1.1 0 .1-.1zm9.9-13.6c-.3-.3-.4-.8-.9-.9-.3-.1-.6.2-.4.4.2.3.4.6.7.8.1.3.5 0 .6-.3zm-18.6 22.3v-.3c-.1-.2-.2-.3-.4-.3s-.3.1-.3.3v.3c0 .4 0 .6.3.6.2.1.4-.1.4-.6zm2.9 18.9c0-.1 0-.2-.1-.3-.1-.1-.3-.1-.4-.1-.2.2-.5.5-.4.9 0 .2.1.3.3.3.4 0 .6-.3.6-.8zm17.7-29.8c0-.2-.1-.4-.3-.4-.2 0-.4.2-.4.5 0 .2.1.4.4.4.2-.1.3-.2.3-.5zm-2.7 3c.2 0 .3-.2.3-.4s-.2-.4-.4-.3c-.2 0-.3.2-.3.4s.2.3.4.3zm-16.8 13.1c-.2.1-.3.2-.2.4 0 .2.1.3.3.3.2 0 .3-.2.3-.4-.1-.1-.2-.2-.4-.3z"/>
  <path d="M-141.5 592.7c0-.8-.1-1.6-.4-2.4-.2-.5-.2-.9-.1-1.4v-.4c-.1-.3-.1-.7-.2-1-.1-.3-.2-.6-.1-1 0-.1 0-.3-.1-.5-.1-.3-.3-.6-.5-1-.1-.2-.2-.4-.3-.5-.4-.2-.4-.5-.4-.9v-1.2c0-.7-.1-1.3-.6-1.8-.1-.1-.1-.3-.1-.5 0-.7-.1-1.3-.2-2-.1-.8-.1-1.7 0-2.6.2-.7.3-1.5.4-2.2 0-.2.1-.3.2-.5.2-.3.3-.7.3-1.1v-.6c0-.5 0-.9-.3-1.4-.2-.2-.2-.5-.2-.8 0-.4-.2-.7-.6-.8-.2-.1-.3-.2-.5-.3-.4-.2-.5-.5-.6-.9 0-.2-.1-.3-.1-.5s-.1-.4 0-.5c.4-.7.1-1.4 0-2.1-.1-.6.1-1.1.2-1.7 0-.6-.1-1.1.2-1.7 0-.1-.1-.3-.2-.4 0-.1-.2-.1-.2-.2-.5-.5-1-.9-1.7-1-.1 0-.3-.1-.4-.1l-.1-.1h.1c.4 0 .8 0 1.3.1.2 0 .4.1.5.1.3.1.6-.1.6-.4v-.7c0-.4-.2-.8 0-1.2.1-.2-.1-.4-.3-.5-.7-.3-.7-.7-.6-1.3.1-.7.3-1.4.5-2.1.2-.7 0-1.4-.1-2 0-.2-.1-.4-.1-.7 0-.4.1-.8.1-1.2 0-.2 0-.4-.2-.5-.4-.2-.6-.5-.5-1 0-.4-.1-.8-.5-1.1-.2-.1-.1-.2 0-.3.3-.2.2-.5.2-.8-.1-.2-.1-.5-.1-.7 0-.1 0-.2.2-.3.5-.3.4-.9-.1-1.2-.2-.1-.5 0-.4-.3 0-.2.1-.3.2-.5 0-.1.1-.2.1-.3 0-.8.1-1.7-.3-2.5-.1-.2-.2-.5-.2-.7 0-.6-.2-1.1.1-1.7.1-.1-.1-.4-.1-.5-.1-.2-.2-.3-.2-.5-.1-.4 0-.5.4-.5.2 0 .5-.1.6-.2.3-.3.6-.6.8-1 .2-.4-.2-1.3-.7-1.5-.3-.1-.4-.2-.5-.5-.1-.2-.1-.4 0-.6.2-.3.4-.7.6-1 .1-.2.2-.4.4-.5.4-.3.7-.7.8-1.2.2-.6.6-1.1 1.4-1 .2 0 .3 0 .5-.1.4-.2.8-.1 1.1.1.5.4 1.2.6 1.8.8.8.3 1.4.1 1.6-.7.1-.3.2-.4.4-.7.2-.2.3-.5.4-.8.1-.4.3-.5.6-.5s.5.2.5.6c0 .2-.1.5-.1.7 0 .1-.1.2-.1.4 0 .4-.1.7-.3.9-.1.2-.3.4-.1.5.2.3.1.5-.1.7-.4.5-.3 1 .1 1.4.1.1.1.2.2.3.3.3.4.3.8.1.4-.2.9-.4 1.3-.7h.2c0 .1-.1.2-.1.2-.2.2-.5.4-.7.6l-.3.3c-.4.4-.7.8-1 1.2-.1.1-.1.1-.1.2-.1.7-.5 1.3-.3 2.1.1.2.1.4-.1.5-.2.2-.3.4-.2.7v.1c-.1.6-.2 1.1-.4 1.7-.1.4-.2.8-.3 1.3-.1.6.1 1.1.3 1.7.1.4.3.8.4 1.3 0 .2.3.5.5.6.1.1.3 0 .4-.1.3-.2.4-.5.4-.8 0-.1.2-.2.3-.2.1 0 .2.1.3.2v.2c-.3.6-.2 1.3-.6 1.9-.1.1-.1.3 0 .5 0 .2.1.3.2.4.2.3.2.7-.1 1-.3.3-.3.7-.2 1.1.1.5.1 1.1.3 1.6v.2c-.1.2 0 .5-.3.6-.3.1-.4-.2-.5-.4-.1-.2-.2-.3-.5-.3-.2.1-.4.2-.4.5.1.8-.4 1.5-.3 2.3 0 .1-.1.3-.1.4-.3.5-.3 1 0 1.5s.4 1.1.6 1.7v3c0 .3 0 .5-.1.8-.2.5-.1.9-.2 1.4 0 .4.2.5.5.4.2-.1.3-.1.3.1 0 .4.2.6.3 1 0 .1.1.2.2.3 0 .6.1 1.1.2 1.7.1.3-.2.6-.4.8-.5.4-.8.8-1.1 1.3-.2.3-.2.6-.1.9.2.8.5 1.7.7 2.5.1.4.1.9.1 1.4 0 .2.1.4.3.6.3.2.5.5.8.8.2.2.2.3 0 .5s-.3.4-.4.6c-.2.3-.1.6-.1.9.1.7.2 1.3.6 1.9.2.3.2.6.3 1 0 .1 0 .3-.1.3-.2.1-.3 0-.3-.2-.1-.2-.1-.4-.1-.6 0-.3-.2-.4-.5-.4-.2 0-.4.2-.4.4 0 .5-.1 1-.1 1.5 0 1.9-.1 3.8 0 5.8 0 .7 0 1.4-.1 2.1-.1.5 0 .9-.2 1.4-.1.2 0 .5 0 .8.1.4.3.8.4 1.3.1.4.1.8.2 1.2l.3 1.8c0 .3 0 .7.1 1 .2.8 0 1.6-.2 2.4v.1c-.5.5-.4 1.2-.4 1.8v.2l-.1.1h-.1c-.4-.7-1.1-1.2-1.3-2.1 0-.1-.1-.2-.1-.3-.2-.4-.5-.8-.7-1.3 0-.1-.2-.3-.3-.4-.6-.4-.6-1.1-.7-1.7-.7.5-.6.3-.6 0zm2.7-45.8v1.1c0 .3.2.3.4.3.3 0 .3-.3.3-.5s0-.4.3-.5c.3-.1.3-.2.1-.5-.2-.3-.3-.5-.5-.8-.1-.2-.2-.3-.4-.2-.2.1-.3.2-.3.4 0 .3 0 .6.1.7zm-.6 10.4c-.1-.1-.1-.3-.2-.4-.1 0-.3.1-.4.2 0 0-.1.1-.1.2v1.7c0 .2.2.3.5.3s.3-.2.3-.4 0-.3-.1-.5c0-.3-.3-.7 0-1.1zm-5.1 9.5c0-.2 0-.4-.1-.5-.1-.1-.2-.2-.4-.2-.1 0-.2.2-.2.3v.8c0 .2.2.3.4.3.1 0 .2-.2.2-.3.1-.2.1-.3.1-.4zm-1.8-30.7c0-.2-.3-.5-.5-.5s-.4.3-.4.5c0 .3.2.5.5.5.2 0 .4-.2.4-.5zm6.1 26.3c0 .2.1.4.3.4.2 0 .5-.3.5-.6 0-.2-.2-.5-.4-.5-.2.1-.4.3-.4.7z"/>
  <path d="M-128.9 598.4c.1-.8-.1-1.8-.3-2.7-.2-.9-.5-1.8-.7-2.7-.1-.3-.1-.6-.2-.8-.1-.4-.3-.8-.6-1.2-.3-.3-.3-.7-.4-1.1-.1-.3-.1-.6-.1-.9v-.4c.2-.4.1-.7-.3-.9-.1-.1-.1-.2 0-.3.2-.1.4-.3.4-.6-.1-.3-.1-.7-.3-1-.3-.4-.6-.8-.8-1.3 0-.1-.1-.2-.1-.3 0-.5-.1-1-.2-1.5v-.3c.2-.2.2-.5.2-.8 0-.6-.1-1.3.1-1.9 0-.1 0-.3-.1-.5-.5-.8-.8-1.7-.8-2.7 0-.3 0-.5-.4-.5-.3 0-.6-.6-.5-.8 0-.1.2-.2.3-.2.5-.2.6-.5.3-.9-.1-.1-.2-.3-.3-.4-.7-.4-.8-1.2-1-1.8v-.1c0-.2-.1-.4-.1-.5.1-.1.3-.1.5-.1.3 0 .3-.2.4-.4.1-.7.3-1.4.5-2 .1-.4.1-.7.2-1.1.1-.2-.1-.5-.3-.7-.4-.7-.8-1.3-1.1-2.1 0-.2-.1-.4 0-.5.2-.4.2-.8.1-1.2v-.3c.1 0 .2.1.3.1.3.3.4.7.2 1.1-.1.3-.1.6.1.9.1.1.2.3.4.2.2-.1.3-.2.3-.4v-1.1c0-.3 0-.6.2-.9.1-.2.2-.4.1-.6 0-.1-.1-.2-.1-.4 0-.6-.3-1.1-.7-1.5-.2-.3-.3-.7-.4-1 0-.5-.3-.9-.6-1.3l-.3-.3c-.3-.5-.3-.6.1-1.1.2-.2.4-.5.6-.7.1-.1.2-.2.2-.4 0-.5.3-1 .5-1.5.1-.2.2-.3.4-.4.3-.2.6-.3.8-.5.2-.2.4-.4.5-.6.2-.2.4-.5.7-.4.3.1.7.1.8.6.2.6.4.6 1 .3.3-.2.5-.3.8 0 .3.3.7.6.7 1.1v.1c.2.7.4 1.5.6 2.2.1.2 0 .4.1.6.1.2.1.3.2.5.2.3.2.4-.1.6-.1.1-.2.1-.3.2-.5.4-.5.5-.1 1 .1.1.1.2.2.3.1.4.1.8.1 1.1 0 .3.1.5.4.6.3 0 .2.2.1.4s-.3.4-.4.5c-.3.3-.5.7-.5 1.2 0 .4 0 .9-.2 1.3-.1.1-.1.2-.1.3-.1 1-.5 1.9-.7 2.8-.1.4-.1.9 0 1.4 0 .1.1.2.2.2s.3-.1.4-.1l.3-.3c0 .2.2.3.1.5-.2.8-.2 1.7-.3 2.5-.1 1.1-.3 2.2-.4 3.3 0 .2.1.5.1.7.1.5.3.9 0 1.4-.2.3-.2.7-.2 1 0 .7 0 1.4.1 2.1 0 .4.1.8.2 1.2.2.6.2 1.2.1 1.8v.6c.2.8.3 1.6.5 2.4v.3c-.1.4-.1.8.2 1.2.1.1.1.2.1.3 0 1 0 2.1-.1 3.1-.1.6-.2 1.1-.2 1.7v1.4c0 .2-.1.5-.1.7-.2.5-.3 1.1-.3 1.6 0 1-.1 2-.1 3 0 .4-.4.8-.8.8-.1 0-.3-.1-.4-.3-.1-.2-.1-.5-.2-.8.5 0 .5-.5.5-1.1z"/>
  <path d="M-134.5 543.2c.1.1.3.1.3.2.1.1.1.3.2.4.1.1.3.2.4.2.1 0 .3-.2.3-.3 0-.3.1-.5.4-.5.1 0 .2-.1.3-.2.3-.3.5-.6.8-.9.2-.3.6-.4.9-.3.3.1.6.2 1 .3.3.1.6.3.9.4.3.1.5.3.5.6.1.4.2.5.7.5.1 0 .2 0 .2-.1.5-.3.9-.2 1.4-.1.5.1.6.5.2.9l-.3.3c-.2.2-.3.4-.2.7.1.4.1.8-.1 1.2-.1.3-.1.5.1.8.1.1.2.2.2.3.4.5.3 1.2-.5 1.6-.1 0-.2 0-.3-.1-.1-.2-.2-.3-.3-.5-.3-.4-.6-.4-.9 0-.4.5-.8 1-1.1 1.6-.2.3-.3.4-.6.5h-.2c-.5.2-.9.3-1.3-.1-.1-.1-.4-.2-.6-.1-.4.3-.7.1-1-.1-.7-.6-1.5-1.1-2-1.9-.2-.4-.3-.5.2-.9.6-.5.6-1.1.5-1.7-.1-.3-.1-.5.1-.8.1-.3.1-.5-.1-.8-.2-.2-.3-.5-.2-.8 0-.1.1-.2.1-.3z"/>
  <path d="M-47.7 566.4c-.2-.4-.3-.8-.4-1.2-.2-1-.1-2.1-.6-3v-.1c-.5-.6-.2-1.2-.2-1.8 0-.3.1-.6.1-.9 0-.5.6-1 1.1-.9v.2c-.3.4-.5.9-.5 1.4 0 .3-.2.5-.2.7-.1.4 0 .9.1 1.3.3.6.4 1.3.4 2v.4c.2.6.2 1.2.2 1.9z"/>
  <path d="M-77.6 581.3c0 .1-.1.1-.1.2-.2.1-.3.3-.5.4h-.2v-.2c.2-.2.1-.5.2-.8 0-.1 0-.1.1-.1 0 0 .1 0 .1.1l.3.3c.1 0 .1 0 .1.1z"/>
  <path d="M-159.9 595.8c-.1 0-.1.1-.2.1 0 0-.1 0-.1-.1-.2-.2-.4-.4-.5-.6.4-.1.4.3.7.4 0 0 .1.1.1.2z"/>
</svg>
