<!--
  SVG Music Logos
  The Big 4 - Metallica, Slayer, Megadeth, Anthrax - Live from Sofia, Bulgaria v1.0.0
  https://github.com/tiagoporto/svg-music-logos
  Copyright (c) 2016-2018 Tiago Porto (http://tiagoporto.com)
-->
<svg xmlns="http://www.w3.org/2000/svg" viewBox="0 0 150 200">
  <path d="M124.34 99.362c-.85-.03-.92-.105-1.02-.938-.04-.328-.12-.65-.18-.965-1.012-.37-1.894.137-2.79.33-1.012.215-1.983.62-2.975.93-.446.14-.956.155-1.345.382-1.12.653-2.382.712-3.59.87-1.176.152-2.376.136-3.554.352-.69.127-1.322-.04-1.842-.557-.153-.153-.347-.33-.545-.36-.81-.134-1.576-.52-2.437-.393-.29.042-.606-.097-.91-.153-.01-.065-.017-.13-.026-.196.17-.117.33-.31.514-.34.903-.145 1.81-.263 2.718-.36.44-.047.892-.003 1.335-.04.882-.077 1.766-.28 2.643-.252 1.568.052 3.11-.177 4.63-.44.794-.14 1.572-.27 2.376-.28 1.157-.02 2.304.06 3.453-.314.827-.27 1.744-.26 2.64-.377.306-1.123.116-1.294-.61-1.517-.475-.146-1.084-.124-1.553.045-.494.178-.965.215-1.463.227-.752.02-1.504.016-2.252.072-.746.055-1.488.174-2.232.258-.578.066-1.157.126-1.737.182-.58.056-1.162.11-1.743.153-.305.022-.644-.065-.914.04-1.538.59-3.21.007-4.76.605-.626.242-1.36.2-2.042.3-.843.122-1.687.25-2.53.388-.787.13-1.577.25-2.358.418-.59.127-1.162.327-1.744.484-1.11.298-2.063.98-3.23 1.195-1.138.21-2.253.535-3.42.577-1.192.043-2.392-.08-3.57.254-.47.134-.724-.048-.704-.542.04-.993.137-1.99.295-2.97.103-.644.366-1.26.54-1.896.203-.743.413-1.485.57-2.24.144-.697.536-1.338.463-2.09-.018-.183.087-.377.126-.568.17-.837.324-1.677.507-2.51.148-.672.303-1.343.5-2 .37-1.238.785-2.46 1.155-3.697.33-1.102.63-2.212.927-3.323.162-.613.33-1.23.418-1.856.15-1.097.24-2.204.357-3.306.012-.11.048-.216.073-.325.194-.857.427-1.71.562-2.575.06-.395.092-.76.376-1.065.11-.12.21-.268.263-.422.353-1.04.707-2.08 1.033-3.13.488-1.572.895-3.172 1.445-4.722.433-1.22.643-2.442.637-3.73-.003-.745-.09-1.433-.53-2.04-.265-.366-.242-.714-.023-1.086.46-.785.923-1.57 1.357-2.37.09-.166.16-.475.07-.59-.714-.925-.345-1.77.116-2.63.298-.558.56-1.135.853-1.696.184-.354.063-.576-.266-.74-.64-.32-1.567-.056-1.87.587-.267.57-.396 1.21-.71 1.747-.24.408-.633.76-1.03 1.028-.325.218-.6-.134-.882-.302-.423-.25-.98-.156-1.313.164-1 .96-1.98 1.945-3.014 2.87-.56.5-.894 1.083-1.118 1.788-.23.725-.555 1.375-1.2 1.91-.6.494-.99 1.245-1.45 1.9-.522.74-1.014 1.5-1.528 2.247-.26.378-.547.74-.814 1.117-.3.423-.588.854-.89 1.276-.254.352-.582.665-.764 1.048-.242.51-.516.968-.96 1.322-.146.116-.357.283-.356.425.005.56-.327.848-.728 1.133-.143.102-.23.296-.318.46-.202.377-.372.772-.588 1.14-.177.3-.428.56-.6.86-.285.498-.528 1.018-.795 1.525-.24.456-.535.89-.72 1.366-.303.792-.49 1.63-.818 2.41-.227.536-.208.927.205 1.35.425.437.395.603.073 1.162-.233.405-.482.8-.452 1.313.025.42-.21.735-.574.947-.116.068-.305.11-.34.208-.342.98-.962 1.94-.274 3.05l.964.17c.495-.783.977-1.54 1.45-2.3.04-.066.034-.162.04-.244.072-.837.653-1.355 1.153-1.95.617-.734 1.395-.702 2.207-.65.19.01.378.048.527.068.477-.632.928-1.225 1.374-1.822.047-.063.07-.15.088-.228.275-1.242 1.248-2.11 1.738-3.237.03-.07.117-.116.175-.177 1.034-1.088 2.064-2.18 3.107-3.26.095-.097.308-.18.413-.138.095.038.187.274.16.395-.175.747-.354 1.495-.586 2.226-.473 1.486-1.24 2.854-1.713 4.35-.345 1.09-.513 2.216-.867 3.297-.238.728-.862 1.317-.78 2.16.004.035-.07.083-.116.114-.437.3-.52.775-.582 1.24-.09.663-.166 1.295-.746 1.776-.23.192-.315.577-.433.886-.3.793-.513 1.63-.89 2.383-.688 1.38-1.34 2.768-1.742 4.26-.157.583-.375 1.18-.372 1.77.005 1.173-.557 2.175-.82 3.262-.134.554-.366 1.084-.556 1.624-.247.698-.44 1.423-.767 2.08-.18.365-.456.76-1.012.757-1.75-.008-3.5-.082-5.23.326-.827.194-1.7.204-2.523.412-1.074.27-2.13.6-3.25.624-.134.003-.272.052-.4.102-.768.297-1.51.66-2.38.585-.256-.022-.532.136-.79.234-.967.37-1.924.768-2.9 1.114-.46.165-.957.234-1.437.348-.805.19-1.6.492-2.415.554-1.494.114-3.002.048-4.477.393-.373.088-.75.158-1.13.23-.67.128-1.338.222-2.02-.037.117-.435.1-.9.324-1.1.55-.496.714-1.15 1.026-1.76.854-1.674 1.246-3.504 1.914-5.237.197-.51.23-1.082.384-1.613.296-1.026.63-2.04.934-3.064.156-.527.193-1.108.438-1.585.352-.686.734-1.43 1.302-1.914.95-.81 1.19-2.104 2.157-2.87.082-.067.097-.262.09-.394-.05-.832.313-1.563.556-2.322.267-.837.56-1.665.83-2.5.15-.47.26-.955.414-1.424.29-.882.6-1.758.9-2.638.247-.727.492-1.454.736-2.182.198-.594.505-1.18.56-1.786.073-.793.324-1.505.603-2.227.344-.895.757-1.776.822-2.754.032-.483.355-.71.698-.97.39-.293.773-.615 1.082-.988.812-.982 1.554-2.02 2.38-2.99.445-.525.998-.96 1.514-1.42.396-.354.49-.803.415-1.29-.066-.426-.462-.42-.778-.5-.08-.022-.162-.043-.24-.07-.535-.196-.647-.535-.234-.927.412-.39.805-.792 1.426-.947.967-.242 1.356-1.427.827-2.3-.224-.37-.153-.667.125-.974.26-.288.566-.575.71-.92.35-.848.93-1.498 1.584-2.105.162-.15.308-.32.465-.478.452-.454.428-1.023.306-1.567-.128-.575-.683-.756-1.177-.386-.374.28-.682.65-1.02.98-.137.133-.274.382-.41.38-.634-.002-.91.435-1.22.862-.093.13-.23.256-.375.315-.743.3-1.3.844-1.882 1.362-.457.407-.977.69-1.838.632.848-.798 1.557-1.496 2.298-2.157 1.432-1.275 2.892-2.518 4.313-3.805.225-.204.365-.552.444-.86.145-.566-.337-1.11-.83-.862-.56.28-1.254.463-1.635.926-.38.46-.793.81-1.25 1.165-.52.406-.95.925-1.432 1.38-.87.82-1.648 1.793-2.647 2.405-1.503.92-2.55 2.31-3.902 3.366-.546.426-1.138.793-1.718 1.172-.222.145-.49.223-.704.378-.6.438-1.185.9-1.775 1.354-.373.288-.807.524-1.11.874-.826.956-1.88 1.62-2.876 2.357-.846.627-1.747 1.178-2.622 1.765-.99.665-1.972 1.344-2.973 1.992-.272.175-.63.218-.897.396-.567.376-1.103.8-1.65 1.205-.247.182-.47.41-.742.538-.878.41-1.69.854-2.216 1.747-.29.495-.56.942-.51 1.532.03.335.004.66.432.8.4.132.715.046.982-.244.207-.224.4-.465.577-.713.673-.945 1.603-1.6 2.542-2.238.303-.205.677-.306 1.018-.455l.133.127c-.106.236-.207.475-.32.708-.323.664-.64 1.33-.98 1.985-.162.31-.342.618-.57.88-.632.73-1.31 1.424-1.932 2.164-.137.163-.208.486-.15.69.113.39.303.77.528 1.112.39.59.962.574 1.32-.022.17-.282.292-.593.42-.898.45-1.068 1.14-1.773 2.41-1.643.37.038.675-.067.974-.35.825-.776 1.887-1.128 2.94-1.46.763-.242 1.512-.483 2.183-.943.286-.195.653-.372.984-.375.59-.005 1.08-.192 1.56-.492.532-.334 1.086-.25 1.7-.093-.174.53-.528.82-.897 1.115-.18.144-.41.37-.413.562-.008.396-.2.585-.48.802-.233.18-.39.463-.575.704-.415.537-.457 1.334-1.173 1.666-.074.034-.126.193-.126.295.002.288-.126.452-.38.583-.127.066-.26.243-.274.38-.03.31-.14.513-.43.645-.108.05-.236.21-.233.318.01.423-.305.625-.515.91-.293.4-.7.817-.76 1.266-.142 1.014-.853 1.658-1.322 2.46-.126.214-.287.425-.343.66-.207.873-.667 1.612-1.117 2.37-.828 1.4-1.585 2.84-2.407 4.245-.25.425-.636.767-.916 1.175-.437.638-.86 1.287-1.247 1.957-.404.7-1.145 1.212-1.198 2.112-.002.023-.03.045-.05.065-.413.423-1.124.61-1.1 1.38-.632.236-.86.837-1.144 1.35-.577 1.038-1.657 1.812-1.684 3.147 0 .067-.1.13-.14.2-.48.8-.783 1.607-.532 2.59.157.615.06 1.255-.44 1.79-.252.268-.327.693-.54 1.008-.417.62-.54 1.458-1.327 1.82-.134.063-.282.24-.3.38-.106.848-1.14 1.157-1.166 2.042 0 .04-.076.076-.12.112-.688.575-1.02 1.4-1.464 2.142-.366.612-.842 1.013-1.59 1.046-.442.02-.883.08-1.32.146-.573.087-1.072.737-1.055 1.307.012.412.198.626.607.632.5.007 1.005.028 1.504-.005.526-.035.903.17 1.216.574.446.578.89.6 1.446.11.25-.22.5-.587.77-.606.927-.065 1.88-.275 2.786.142.66.303 1.325.522 2.074.49.967-.04 1.94.043 2.904-.02 1.326-.083 2.673-.133 3.964-.414 1.836-.4 3.724-.13 5.543-.577.026-.006.056 0 .083-.002 2.222-.067 4.45-.05 6.665-.228 1.824-.145 3.657-.272 5.475-.375 2.74-.155 5.49-.292 8.236-.388.55-.02.95-.164 1.288-.606.214-.28.507-.533.818-.696.482-.252.812-.03.79.523-.016.406-.097.82-.22 1.208-.236.733-.526 1.446-.788 2.17-.344.953-.654 1.92-1.034 2.86-.274.677-.692 1.298-.95 1.98-.476 1.256-.77 2.584-1.567 3.704-.074.104-.11.258-.11.39.007.835.073 1.676-.58 2.357-.095.1-.07.318-.095.48-.03.192-.004.416-.096.57-.417.695-.347 1.647-1.13 2.155-.072.047-.068.203-.117.3-.16.31-.262.684-.5.913-.49.473-.632 1.09-.83 1.683-.276.834-.433 1.712-.76 2.523-.355.885-.807 1.737-1.29 2.562-.48.82-.578 1.836-1.35 2.506-.166.145-.206.44-.29.67-.093.258-.133.543-.264.78-.314.568-.674 1.11-1 1.67-.152.26-.29.533-.396.814-.146.385-.157.867-.402 1.16-.53.63-.808 1.366-1.176 2.075-.92 1.776-2.044 3.442-2.58 5.415-.244.904-.606 1.758-.55 2.728.03.51.13.92.56 1.16.88-.15 1.36-.675 1.79-1.39.278-.463.14-.92.307-1.343.494-1.253 1.016-2.494 1.533-3.74.063-.15.148-.293.23-.435.404-.69.84-1.36 1.207-2.068.416-.8.73-1.657 1.165-2.446.387-.7.763-1.373.9-2.19.08-.49.4-.945.637-1.403.315-.606.66-1.196.98-1.797.29-.538.57-1.08.842-1.626.228-.458.647-.82.66-1.396.002-.133.248-.26.382-.39l.2.138c-.11.262-.23.52-.33.786-.486 1.32-.963 2.645-1.452 3.964-.515 1.39-1.04 2.774-1.56 4.162-.526 1.41-1.044 2.826-1.577 4.236-.475 1.256-.965 2.507-1.448 3.76-.485 1.258-.95 2.522-1.455 3.77-.924 2.288-1.932 4.537-2.63 6.917-.47 1.6-1.173 3.127-1.774 4.686-.284.74-.594 1.474-.853 2.224-.25.722-.328 1.53-.7 2.177-.517.9-.758 1.88-1.103 2.828-.224.615-.398 1.257-.506 1.9-.223 1.325.294 2.774-.682 3.97-.015.02-.004.057-.013.083-.307.875-.455 1.808-1.064 2.57-.175.216-.263.56-.264.846-.002.553-.27.947-.61 1.325-.127.14-.352.272-.362.42-.047.685-.464 1.096-.95 1.492-.43.348-.554 1.02-.29 1.325.264.306 1.172.235 1.51-.098.376-.372.773-.72 1.215-1.13.026.198.065.287.045.36-.332 1.193-.704 2.377-.998 3.58-.235.96-.48 1.94-.526 2.922-.04.834.195 1.682.3 2.477.6.227.946.043 1.272-.337.283-.33.595-.77.967-.86.663-.157 1.123-.412 1.334-1.075.036-.112.17-.193.298-.33.28.19.525.365.778.527.416.267.706.21.954-.224.148-.26.236-.554.35-.833.236-.58.245-1.275.768-1.715.592-.5 1.198-.986 1.83-1.434.355-.253.753-.506 1.168-.6.574-.133 1.005-.453 1.433-.8.76-.614 1.387-1.428 2.452-1.587.13-.02.256-.2.347-.332.577-.83 1.27-1.536 2.12-2.094.22-.144.513-.402.515-.61.007-.692.517-.934.946-1.272.282-.222.576-.438.824-.696 1.72-1.783 3.48-3.53 5.116-5.39.607-.69 1.542-1.21 1.633-2.294.008-.09.13-.176.208-.254.335-.335.65-.696 1.014-.994 1.33-1.084 2.374-2.422 3.32-3.826.657-.976 1.294-1.93 2.322-2.568.37-.23.654-.562.81-1.024.103-.31.413-.557.653-.813.17-.18.397-.31.562-.494.7-.792 1.394-1.59 2.075-2.397.136-.16.217-.37.306-.567.067-.146.07-.332.163-.453.557-.724 1.137-1.43 1.7-2.15.272-.35.695-.69.75-1.077.122-.884.687-1.278 1.403-1.612-.034-.39-.155-.818.435-.906.1-.015.187-.178.267-.283.473-.617.89-1.288 1.424-1.845 1.35-1.404 2.265-3.042 2.938-4.858.29-.783.593-1.597 1.29-2.18.2-.167.24-.53.336-.81.078-.23.067-.513.203-.69.52-.68 1.212-1.26 1.592-2.005.312-.612.677-1.125 1.15-1.592.018-.018.033-.052.03-.076-.086-.65.326-1.06.667-1.536.675-.946 1.115-2.034 1.695-3.04.43-.747.557-1.67 1.297-2.25.056-.747.594-1.15 1.11-1.58.42-.347.532-.897.298-1.258-.208-.32-.742-.47-1.207-.23-.534.278-1.086.583-1.51 1-.65.64-1.2 1.382-1.782 2.09-.59.716-1.272 1.228-2.27 1.15-.17-.013-.45.04-.507.15-.402.778-1.455 1.085-1.52 2.107-.006.118-.128.304-.228.327-.533.127-.578.627-.815.982-.18.27-.403.514-.61.766-.083.1-.266.207-.252.28.11.538-.34.71-.607 1.007-.637.71-1.494 1.224-1.794 2.24-.136.46-.51.86-1.118.86-.136 0-.358.114-.394.224-.244.73-.868 1.043-1.45 1.423-.414.27-.853.546-1.168.915-.825.97-1.57 2.008-2.383 2.99-.443.536-.975.958-1.667 1.204-.355.126-.617.516-.92.787-.304.268-.596.55-.915.8-.17.135-.45.164-.57.323-.522.704-1.523.61-2.058 1.273-.988.01-1.382 1.22-2.395 1.19-.06 0-.127.1-.188.157-.84.762-1.864 1.16-2.935 1.438-.75.195-.905.105-.805-.633.16-1.172.314-2.378.72-3.476.708-1.904 1.63-3.727 2.413-5.606.336-.808.606-1.655.793-2.51.107-.488.025-.996.562-1.298.1-.057.112-.294.14-.452.032-.19-.002-.4.062-.577.365-1.01.782-2.004 1.12-3.024.32-.962.55-1.954.843-2.925.27-.892.545-1.784.87-2.657.334-.897.766-1.76 1.09-2.66.567-1.58 1.095-3.17 1.614-4.764.18-.547.366-1.113.407-1.68.1-1.387.06-2.785.18-4.17.11-1.254.36-2.495.555-3.74.012-.08.08-.147.11-.224.306-.796.625-1.588.907-2.393.164-.468.26-.96.398-1.435.298-1.025.58-2.056.92-3.067.117-.342.328-.724.612-.92.32-.218.773-.24 1.165-.357 1.027-.304 2.05-.62 3.078-.92.897-.264 1.8-.508 2.696-.773.365-.107.74-.205 1.073-.38.564-.297 1.093-.65 1.778-.598.185.013.377-.077.564-.123.318-.078.645-.253.952-.224 1.775.168 3.45-.353 5.154-.68.13-.025.254-.102.377-.163 1.015-.51 2.016-1.07 3.228-.708.142.042.324-.05.488-.075 1.425-.226 2.846-.485 4.303-.38.61.044 1.227.034 1.84.002 1.486-.08 2.972.133 4.463-.305 1.182-.348 2.444-.507 3.708-.394.183.017.425-.004.554-.11.622-.515 1.336-.752 2.117-.914.78-.162.985-.863.507-1.47-.437-.553-.436-.553.103-.95.156-.116.33-.217.463-.355.484-.5.767-1.062.464-1.783-.17-.007-.31-.02-.447-.025zM90.25 61.347c.4.448.402.582.008 1.208-.3-.417-.282-.795-.007-1.208zm-.61 2.103c.012.047.044.1.03.138-.01.034-.072.05-.112.074-.024-.037-.073-.1-.067-.106.045-.042.1-.072.15-.106zm-6.656 1.818l-.18-.12 1.06-1.478c-.016.713-.385 1.195-.88 1.598zm-39.72 38.373c-.444.383-.69.857-.667 1.516.02.594-.194 1.197-.8 1.522-.353-.163-.247-.43-.158-.648.165-.404.392-.782.56-1.185.232-.554.413-1.13.656-1.68.138-.312.354-.59.59-.972.285.627.288 1.042-.183 1.448zm1.618-4.44c-.082-.015-.165-.028-.247-.042l.267-.7.172.055c-.063.23-.128.458-.192.686zm.894-1.692c-.26-.85-.08-1.328.7-1.904.064.744-.17 1.328-.7 1.904zm1.027-2.3c-.02-.03-.043-.06-.064-.09l.055-.038.037.062-.03.067zm9.02 13.84c-.566.11-1.14.207-1.714.248-.268.02-.545-.106-.817-.166l.025-.23c.513-.38 1.135-.336 1.723-.38.56-.04 1.127-.008 1.69-.008.017.074.032.15.048.223-.318.107-.63.248-.955.312zm12.3 1.742l-.014-.183h.496l.01.134-.494.05zm-11.337 79.783c-.54-.85.656-1.027.583-1.67l.236-.09c.14.2.366.386.4.602.052.36-.5.846-1.22 1.158zm6.59-6.635c-.458.605-.788 1.356-1.738 1.384-.166.005-.304.363-.488.518-.245.205-.517.384-.794.544-.065.037-.256-.016-.288-.078-.053-.106-.083-.312-.02-.373.332-.326.65-.73 1.06-.9.58-.242.926-.655 1.278-1.118.25-.327.528-.648.85-.9.247-.197.522-.013.495.38-.085.133-.205.348-.353.543zm20.517-25.247c.753-.586 1.407-1.3 2.26-2.105-.05.287-.037.41-.09.48-.626.823-1.233 1.665-1.91 2.446-.356.414-.84.718-1.318 1.018.14-.754.438-1.354 1.058-1.837zm.355-73.598c.037.68-.156 1.274-.743 1.88-.152-.89.478-1.315.743-1.88zm-3.09 6.47c.368-.815.536-1.724 1.175-2.437.26-.29.234-.834.35-1.26.126-.456.43-.673 1.013-.69-.06.79-.068 1.513-.385 2.204-.524 1.144-1.025 2.3-1.554 3.444-.105.226-.29.415-.518.73-.35-.772-.328-1.448-.08-1.993zm-6.052 30.06c.557-1.588 1.14-3.167 1.715-4.748.076-.207.133-.42.215-.625.518-1.303 1.04-2.603 1.563-3.903.03-.076.068-.177.13-.208.164-.082.37-.213.507-.167.124.042.178.29.256.436-.12.317-.216.575-.32.83-.566 1.398-1.034 2.833-1.764 4.165-.287.524-.433 1.133-.6 1.715-.21.742-.33 1.512-.89 2.114-.136.145-.1.44-.22.61-.09.13-.304.178-.463.262-.047-.162-.173-.354-.127-.485zm-2.01 5.595c.676-1.155 1.012-2.418 1.23-3.723.072-.44.254-.78.892-.84-.17 1.966-1.37 3.4-1.934 5.084-.066-.01-.132-.023-.198-.034 0-.164-.062-.365.01-.487zm-.248.93c.007-.018.032-.03.05-.045.01.024.036.06.028.07-.018.026-.053.04-.08.058 0-.028-.007-.058.002-.082zm-.338.61c.16.297.026.746-.37 1.34-.14-.51.11-.912.37-1.34zm-4.548 30.063c.18-1.034.394-2.062.615-3.088.245-1.132.5-2.262.77-3.39.12-.5.284-.99.46-1.6.513.39.58.805.514 1.266-.196 1.368-.37 2.74-.602 4.1-.157.92-.39 1.83-.606 2.738-.036.15-.13.336-.253.403-.227.122-.494.168-.744.246-.056-.226-.19-.466-.154-.676zm10.682 3.138c-.192.897-.93 1.103-1.398 1.638.047-.545.49-1.064 1.398-1.638zm-7.1 12.14c.233-.192.435-.43.616-.674.554-.743 1.178-1.4 1.98-1.888.794-.483 1.392-1.184 1.948-1.917.308-.406.393-.478 1.03-.696.1.56-.103.905-.436 1.243-1.35 1.366-2.68 2.75-4.015 4.132-1.817 1.88-3.63 3.766-5.45 5.644-.204.21-.443.39-.664.58-.438-.346-.306-.632-.07-.91.307-.367.79-.613.685-1.242-.02-.123.344-.323.545-.466.384-.273.804-.49.763-1.09-.012-.168.2-.39.364-.525.894-.738 1.81-1.452 2.705-2.192zm-.192-42.178c-.073-.127-.238-.29-.204-.376.21-.538.378-1.122.972-1.393-.13.513-.246 1.03-.405 1.532-.034.107-.237.16-.363.238zm11.71-18.974c-.34.994-.73 1.97-1.053 2.97-.505 1.565-1.088 3.083-1.3 4.762-.272 2.152-.15 4.334-.59 6.462-.05.235-.143.47-.26.68-.628 1.11-.735 2.37-1.08 3.563-.07.236-.1.512-.244.69-.615.758-.768 1.702-1.072 2.578-.215.623-.277 1.296-.468 1.928-.142.468-.35.924-.585 1.355-.433.798-.566 1.66-.647 2.544-.015.165.002.363-.08.488-.568.85-.64 1.868-.992 2.788-.183.482-.487.92-.654 1.407-.34.99-.624 2-.933 3-.114.37-.21.747-.358 1.103-.05.122-.273.294-.337.266-.15-.068-.34-.233-.357-.377-.047-.412-.016-.833-.016-1.25h-.025c0-1.028.04-2.06-.016-3.084-.04-.702.345-1.178.677-1.7.102-.157.31-.302.315-.456.026-1.075.678-1.918 1.026-2.87.32-.88.58-1.806 1.06-2.592.592-.966.546-2.07.927-3.066.234-.614.522-1.21.73-1.832.352-1.046.66-2.106.982-3.16.023-.08.016-.173.052-.245.485-.938.783-1.943 1.087-2.947.127-.422.28-.837.395-1.262.172-.64.33-1.264.736-1.833.254-.355.118-.86-.198-1.232-.483-.57-.598-1.14-.14-1.81.195-.285.275-.672.333-1.025.226-1.37.52-2.712 1.33-3.88-.154-.85.894-1.242.796-2.078-.01-.08.102-.203.187-.263.193-.136.443-.38.6-.336.34.095.262.454.174.712zm1.66-15.878c-.075.458-.19.91-.3 1.362-.1.4-.185.81-.33 1.192-.123.318-.42.452-.752.38-.39-.086-.315-.43-.273-.682.054-.32.174-.637.303-.94.3-.71.62-1.413.943-2.114.052-.112.168-.193.255-.288l.228.07c-.022.34-.017.686-.073 1.02z"/>
  <path d="M96.895 6.652h.028l-.008-.02-.02.02z"/>
  <path d="M86.16 28.564c.315-.092.64-.156.966-.195.53-.064 1.065.052 1.307.537.267.536-.136.917-.523 1.274-.594.547-.56.598-.034 1.296.245.324.542.706.565 1.077.047.74-.023 1.5-.15 2.234-.113.64-.23 1.24.04 1.87.085.194.075.527-.04.693-.552.79-1.202 1.47-2.274 1.464-.384-.002-.7.087-.808.502 1.247.37 2.564.402 3.7 1.235.13-.93.797-.842 1.442-.815 1.812.076 3.59-.116 5.337-.624.527-.153 1.07-.253 1.608-.365.67-.14 1.357-.22 2.013-.408 1.343-.385 2.66-.87 4.01-1.22.57-.148 1.21-.188 1.773.202.527.364 1.082.687 1.704 1.08-.043-.685-.378-1.117-.72-1.534-.587-.71-.917-1.45-.385-2.217-.228-.477-.388-.89-.612-1.262-.21-.348-.483-.657-.733-.98-.2-.26-.455-.49-.605-.776-.36-.683-.677-1.388-1.35-1.84-.088-.06-.16-.157-.21-.253-.437-.827-.872-1.654-1.295-2.487-.15-.296-.358-.604-.375-.915-.03-.546-.295-.866-.726-1.123-.298-.178-.443-.474-.303-.788.514-1.15 1.287-2.085 2.503-2.522.372-.134.613-.315.83-.62.402-.563.797-1.14 1.27-1.64.512-.54 1.084-1.058 1.83-1.25.474-.12.977-.124 1.455-.18.512-1.024.607-1.957.233-2.746-.024.334-.03.577-.063.818-.09.668-.603 1.225-1.225 1.3-.358.044-.702.056-.98-.296-.263-.337-.144-.575.012-.903.338-.71.133-1.122-.603-1.512-.81-.43-1.533-.94-2.08-1.735-.445-.65-1.1-1.158-1.66-1.732-.385-.393-.756-.778-.947-1.332-.108-.313-.4-.587-.665-.815-.614-.528-1.236-1.067-1.54-1.82-.196-.49-1.507-1.052-1.608-1.293-.295-.707-1.58-1.4-1.824-1.454-.347-.077-1.343-.684-1.694-.73-.87-.114-1.684-.49-2.596-.43-.878.06-1.48.448-2.06 1.316 2.075-1.037 3.99-.87 5.885.003.03-.06.178.04.303.21.06.018.578.564.765.693.243.168.528.275.787.422.265.15.788.562 1.203.867.04.094.082.186.147.257.466.512.986.978 1.42 1.515.3.373.76.735.527 1.45-.42-.053-.853-.022-1.212-.17-.835-.348-1.634-.784-2.45-1.18-.248-.12-.495-.275-.76-.326-1.175-.226-2.196-.843-3.283-1.288-.958-.392-1.867-.904-2.8-1.364-.254.658-.335.745.435 1.112.632.3.826.702.805 1.37-.044 1.42.038 2.846-.03 4.264-.067 1.392.335 2.82-.275 4.175.415.41-.27.958.17 1.376.046.042-.002.2-.03.3-.222.815-.534 1.61-.52 2.478.005.245-.072.492-.112.738-.07.435-.172.868-.202 1.305-.038.556-.06 1.12-.01 1.672.086.996-.122 1.774-.983 2.45-.727.57-1.35.964-2.296.423-.32.75-1.343.46-1.83 1.293.93.062 1.685.087 2.44-.134zm14.055 2.303c.11.535-.013.906-.458 1.224-.438.314-.76.738-1.4.79-.346.028-.66.465-.99.712-.618.46-1.22.948-1.865 1.364-.36.23-.783.414-1.2.487-.48.083-.982.02-1.632.02.777-2.074.32-4.03.408-5.957.03-.623.03-1.23.513-1.706.02-.02.044-.042.05-.067.285-1.232 1.337-1.424 2.32-1.713.475-.14.982-.222 1.414-.447.46-.24.69-.07.86.298.125.27.255.575.243.858-.03.68.205 1.22.587 1.77.503.72.966 1.476 1.15 2.37zm2.004-16.283c-.69.316-1.108.128-1.962-.89 1.093-.085 1.24-.014 1.96.89zm-2.01-.927c-.163-.09-.325-.178-.488-.266.232-.035.435-.02.488.267zm-.535-.33l-.008-.02.008.02zm-1.484-.98c-.477.02-.6-.276-.838-.655.612-.017.774.217.84.656zm-5.813-1.804c.036-.06.228-.096.293-.055.437.276.952.5 1.267.885.627.765 1.27 1.452 2.25 1.756.34.104.625.295.76.7.11.33.388.604.56.92.34.635.967.894 1.575 1.07.52.15.842.49 1.233.785.23.173.523.38.782.373.937-.027 1.49.47 2.015 1.355-.337.022-.557.08-.76.04-.883-.166-1.405.32-1.85.974-.2.3-.448.573-.613.89-.453.867-1.243 1.213-2.117 1.453-.132.036-.29.058-.383.144-.76.694-1.768.904-2.642 1.374-.468.252-.76.164-.876-.34-.172-.747-.602-1.445-.464-2.255.023-.136-.035-.32.036-.408.55-.677.135-1.386.104-2.083-.022-.495-.024-.993 0-1.488.057-1.192.198-2.383.175-3.572-.01-.52-.314-1.045-.534-1.546-.057-.128-.306-.165-.454-.262-.15-.098-.316-.198-.41-.34-.054-.084-.01-.27.05-.37zm-.778 8.9c0-.13.142-.344.242-.358.116-.017.284.12.384.23.338.373.367.878.19 1.262-.465 1.014-.367 2.068-.385 3.12-.003.22 0 .44 0 .662-.078.024-.156.05-.235.073-.062-.208-.23-.457-.17-.617.32-.826.094-1.637.03-2.458-.05-.636-.06-1.277-.056-1.916zm-.105 13.586c.427.192.427.192.146.89-.31-.415-.31-.415-.145-.89z"/>
  <path d="M55.77 26.424c-1.175.927-1.974 2.182-2.93 3.3-.212.25-.22.427-.026.727.248.384.47.84.515 1.284.053.516.212.83.706.99.15.047.28.17.405.274.64.53 1.04 1.22 1.26 2.01.07.255.108.493.41.488.19-.525.34-1.05.572-1.537.14-.296.343-.464.8-.317.528.17 1.05.318 1.523.615.113.07.254.11.388.133 1.23.206 2.46.452 3.718.325.56-.057.916.22 1.3.593.34.33.786.61 1.236.755.65.21 1.34.278 1.953.636.172.1.437.045.66.062.024-.068.05-.137.073-.205-.156-.124-.3-.27-.47-.365-.143-.078-.33-.07-.477-.14-.255-.127-.498-.287-.408-.64.092-.358.383-.363.668-.34.133.01.272.056.392.117.633.322 1.135.883 1.886 1 .14.022.26.2.376.32.375.394.65.887 1.282.987.176.028.303.368.45.566.082.11.16.22.348.48.01-1.07-.24-1.9-.603-2.655-.355-.742-.883-1.405-1.372-2.076-.125-.17-.388-.337-.59-.34-.453-.004-.79-.172-1.12-.458-.335-.287-.705-.543-1.09-.758-.275-.154-.573-.305-.904.012-.134.13-.477.16-.67.088-.59-.218-1.153-.51-1.73-.768-.602-.27-1.192-.702-1.816-.76-1.298-.12-1.817-1.326-1.72-2.402.106-1.184.213-2.37.33-3.552.025-.246.075-.496.155-.73.212-.62.794-.97 1.37-.72.8.35 1.625.332 2.454.35 1.198.03 2.373-.164 3.524-.47 1.233-.33 1.396-.58 1.413-1.863.004-.222-.035-.453.013-.666.052-.23.147-.47.283-.662.296-.42.63-.814.923-1.19-.428-.576-1.023-.42-1.497-.6-1.1-.42-2.214-.657-3.398-.61-1.058.044-2.118.023-3.177.026-1.336.003-1.337 0-1.542-1.282-.052-.322-.146-.644-.14-.965.006-.38.11-.755.152-1.136.056-.525.087-1.053.138-1.578.06-.632.214-1.267.175-1.892-.036-.588.078-1.092.388-1.558.104-.157.324-.356.475-.342.598.052 1.083-.214 1.57-.47.59-.31 1.127-.315 1.73.007.896.48 1.825.9 2.757 1.308.2.088.556.122.683.007.243-.22.183-.545-.026-.826-.147-.2-.258-.424-.38-.638-.204-.353-.204-.63.262-.763.736-.21 1.464-.45 2.205-.648.965-.256 1.902-.57 2.72-1.16.117-.084.185-.234.24-.307-.676-.162-1.307-.408-1.946-.435-.54-.023-.987-.17-1.366-.486-.3-.25-.607-.287-.93-.202-.875.232-1.734.52-2.61.745-.852.218-1.71.468-2.577.55-1.023.097-2.06.035-3.092.024-.212 0-.496-.015-.623-.145-.476-.49-1.295-.73-1.153-1.846-.277.39-.39.617-.567.776-.123.11-.34.186-.498.163-.098-.015-.24-.25-.232-.374.03-.384.082-.776.2-1.14.138-.425.17-.817-.067-1.233-.203.34-.327.69-.38 1.05-.112.748-.326 1.466-.777 2.063-.188.248-.597.488-.887.468-.62-.044-1.224-.27-1.84-.4-.214-.047-.442-.04-.663-.04-.255 0-.554 0-.532.36.02.338.186.61.596.484.335-.104.556.04.693.298.243.456-.214 1.695-.723 1.79-.74.134-1.08.74-1.59 1.144-.14.113-.275.408-.222.546.06.16.32.295.517.336.236.05.496-.02.746-.02.426.005.85.024 1.394.04l-1.505 2.618c.418-.018.685.002.938-.048.48-.095.946-.264 1.428-.34.81-.127 1.188.377.88 1.128-.043.102-.107.202-.12.308-.122 1.072-.217 2.146-.36 3.215-.114.868-.3 1.703-1.376 1.904-.293.055-.574.195-.85.316-.385.167-.65.376-.49.89.09.293.016.64.016.892l-1.275.516c.02.07.04.14.058.21.073.022.145.06.22.065.472.03.944.05 1.417.076.997.053 1.282.344 1.288 1.308 0 .056-.004.112 0 .167.077.902-.2 1.836.268 2.71.052.097-.08.38-.206.48zm-.496 2.484c-.33.192-.697.32-1.193.54.157-.984.63-1.45 1.377-1.68.383.628.363.823-.183 1.14zm6.48-7.548c1.225.206 2.406-.15 3.607-.245.746-.058 1.497-.126 2.24-.086.276.014.594.274.79.508.29.345.21.66-.204.888-.408.226-.84.43-1.287.558-.557.16-1.14.232-1.816.362-1.07-.3-2.242-.616-3.4-.974-.17-.053-.338-.287-.405-.473-.133-.365.08-.606.474-.54zm-1.065.397c-.02.11-.19.195-.295.29-.092-.108-.26-.22-.255-.326.004-.115.167-.224.32-.41.112.203.248.338.23.447zm-.88-10.535c.066-.11.262-.185.402-.19.064-.004.2.205.194.31-.067 1.04.062 2.104-.32 3.11-.044.115-.144.21-.228.326-.572-.765-.553-1.35.06-2.117-.32-.443-.4-.94-.107-1.438zm-.678 15.834c.07-.798.106-1.6.157-2.4.034-.546.123-1.076.49-1.544.65.302.75.907.855 1.45.086.453.04.94-.012 1.406-.1.933-.253 1.86-.363 2.794-.022.184.07.38.07.568-.003.123-.05.315-.132.353-.13.06-.37.077-.45-.002-.19-.182-.36-.416-.452-.662-.24-.633-.222-1.296-.164-1.962zM56.88 10.9c-.368.496-.824.857-1.49.727-.054-.076-.11-.153-.163-.23.37-.316.723-.657 1.12-.937.14-.1.385-.052.582-.07-.014.172.037.39-.05.51z"/>
  <path d="M147.582 24.46c-.33-.662-.604-1.39-1.38-1.685-.408-.156-.838-.256-1.252-.4-1.265-.44-2.536-.866-3.786-1.345-.607-.233-1.178-.522-1.582-1.116-.336-.494-.83-.885-1.275-1.298-.346-.32-.745-.26-1.295-.055 1.073.66 1.33 1.723 1.783 2.683.3.086.62.16.93.273.332.12.686.227.97.427.316.223.57.503 1.006.524.145.007.277.248.414.382-.78.808-1.628.715-2.42.12-.56-.42-1.116-.79-1.752-1.074-.513-.228-.992-.53-1.538-.827-.15.495-.008.832.405.894.642.097.556.532.508.934-.028.232-.18.45-.334.807.368.19.72.334 1.025.543.487.334.82.92 1.534.876.103-.006.22.157.325.248.48.415.956.838 1.445 1.244.228.19.436.385.32.7-.252.697-.454 1.426-.814 2.065-.594 1.06-.773 2.346-1.744 3.2-.087.077-.043.292-.125.386-.158.182-.35.433-.553.46-.492.06-1.01.072-1.493-.025-.248-.05-.543-.34-.622-.586-.053-.165.203-.472.382-.656.17-.173.43-.252.63-.403.177-.135.323-.31.484-.468-.836.232-1.588.62-2.427.177-.02-.012-.055-.01-.082-.004-.768.133-1.366-.237-2.008-.59-.708-.39-1.236-.87-1.61-1.596-.25-.487-.84-.84-.974-1.336-.166-.615-.482-1.108-.806-1.603-.507-.774-.71-1.59-.67-2.51.044-.968.05-1.922.323-2.876.29-1.01.115-2.155.944-3.004.094-.096.1-.317.085-.475-.035-.392.08-.7.383-.96.12-.102.24-.255.272-.404.136-.634.57-1.046.99-1.495.7-.747 1.332-1.56 2.02-2.32.615-.678 1.25-1.34 1.91-1.975.36-.347.825-.46 1.318-.284.565.202 1.152.365 1.682.637.938.482 2.068.62 2.783 1.516.06.075.198.092.303.124.684.205 1.372.394 2.05.614.397.13.68-.083.875-.33.12-.152.086-.46.054-.69-.057-.4-.204-.792-.244-1.193-.034-.344-.008-.65-.438-.792-.165-.055-.403-.362-.366-.476.154-.476-.218-.576-.46-.77-.213-.175-.563-.287-.64-.503-.18-.5-.6-.607-.983-.805-.316-.164-.663-.303-.926-.533-.512-.448-.94-.95-.57-1.723.088-.18.042-.424.06-.66-.713-.248-1.194.163-1.72.448-.408.222-.832.43-1.27.583-.433.152-.722-.04-.718-.495.004-.403.127-.805.193-1.21.054-.337.103-.676.177-1.163-.31.16-.444.27-.59.295-.77.128-1.15.64-1.473 1.3-.24.49-.613.92-.964 1.344-.26.314-.535.58-.686 1-.198.554-.572 1.044-.87 1.56-.135.233-.273.463-.404.697-.362.643-.705 1.298-1.088 1.928-.177.292-.45.478-.78.32.044-.575.055-1.098.13-1.61.123-.823.235-1.653.45-2.453.206-.77.564-1.497.8-2.26.096-.31.047-.668.063-1.003-.265.082-.412.19-.456.33-.273.862-.53 1.73-.774 2.6-.133.476-.233.962-.336 1.445-.207.97-.415 1.938-.604 2.91-.147.756-.27 1.516-.398 2.276-.13.763-.23 1.53-.392 2.286-.04.184-.266.33-.41.49-.18.2-.402.376-.532.604-.203.356-.327.757-.515 1.123-.402.78-.877 1.53-.857 2.462.003.158-.097.316-.133.478-.173.788-.352 1.575-.505 2.367-.068.354-.075.72-.12 1.077-.067.547-.18 1.09-.206 1.64-.037.723-.015 1.45-.005 2.173.003.22.015.45.076.658.366 1.252.933 2.418 1.592 3.536.432.734.824 1.505 1.526 2.046.118.09.266.303.233.403-.152.46.18.6.46.754.348.192.63.396.8.794.224.515.723.74 1.25.874.294.075.58.21.877.23.773.05 1.617.258 2.31.03 1.212-.4 2.426-.846 3.527-1.577 1.164-.773 2.454-1.36 3.69-2.024.276-.15.557-.29.88-.46l.612 1.447c.654-1.244 1.31-2.418 1.245-3.828-.02-.43.12-.736.508-.962.404-.235.755-.562 1.16-.794.337-.192.5-.51.264-.738-.554-.536-.58-1.122-.402-1.788.005-.02-.022-.05-.033-.075-.047-.03-.093-.08-.14-.083-.195-.01-.39-.006-.585-.005-1.23.01-2.146-.65-2.99-1.437-.11-.104-.194-.4-.128-.497.106-.154.44-.347.516-.294.334.236.534.06.816-.088.19-.1.498-.064.72.01.52.177 1.055.356 1.52.638.528.32 1.04.294 1.628.2.012-.184.08-.374.018-.5zm-8.55-17.356c.008-.05.4-.085.59-.033.584.162 1.21.276 1.712.586.435.268.72.778.997 1.095-.06.446-.204.59-.478.484-.772-.296-1.544-.594-2.302-.922-.193-.083-.41-.253-.482-.436-.093-.23-.084-.522-.037-.772zm-10.86 19.274c-.655-.484-.664-.55-.423-2.72.328.023.515.218.513.515-.006.72-.056 1.44-.09 2.205zm2.543 3.34c-.09-.17-.18-.34-.3-.56.453.12.453.12.3.56zm1.012 2.367c1.242-.13 2.235.493 3.343 1.13-.205.214-.343.485-.49.49-.792.033-1.623.142-2.37-.05-.88-.227-.892-.48-.483-1.57zm3.453 3.674c-.338.11-.707.178-1.06.17-.497-.008-.993-.1-1.49-.165-.33-.044-.65-.117-.807-.716.42 0 .717-.004 1.014 0 .553.006 1.11.074 1.617-.26.125-.082.323-.068.488-.07.28-.003.59-.013.68.337.096.37-.14.604-.442.702zm7.846-7.61c.068-.072.277-.094.363-.042.08.05.152.252.115.34-.435 1.058-.754 2.185-1.672 2.968-.1.085-.232.134-.35.2-.068-.032-.137-.062-.205-.093.043-.246.04-.51.14-.733.25-.576.52-1.15.836-1.69.204-.35.493-.653.772-.95z"/>
  <path d="M28.608 23.59c0 .704.008 1.224 0 1.743-.038 2.033-.085 4.065-.114 6.097-.003.19.1.38.204.743.523-.99.657-1.89.8-2.77.192-1.17.282-2.358.415-3.538.003-.028.007-.056.013-.083.25-1.032.576-2.047.602-3.126.01-.463.383-.82.727-.738.482.115.375.52.28.817-.272.838-.238 1.7-.278 2.557-.016.33-.104.66-.184.982-.253 1.01-.06 2.022-.03 3.076.3-.166.545-.35.665-.593.19-.386.533-.94.394-1.198-.314-.59-.26-1.026.052-1.54.076-.126.046-.33.033-.494-.057-.744-.13-1.486-.186-2.23-.022-.305-.075-.627-.005-.914.06-.244.234-.585.43-.647.546-.17 1.13-.3 1.696-.29 1.01.014 1.918-.1 2.67-.886.476-.497 1.12-.685 1.833-.61.663.07 1.33.113 1.995.135.606.02 1.224-.135 1.798.207.102.06.3.06.402 0 .652-.388 1.216-.096 1.91.218-.09.506-.142 1.023-.28 1.516-.11.39-.124.72.024 1.12.333.894.637 1.81.84 2.74.2.915.258 1.86.383 2.79.01.082.056.157.077.238.327 1.286.948 2.522.58 3.92-.09.34-.034.724-.01 1.084.034.463.24.782.78.78.196-.327.174-.62-.002-.947-.09-.167-.113-.4-.09-.593.038-.315.198-.622.204-.934.025-1.193.01-2.388.01-3.582 0-4.07-.002-8.14 0-12.21 0-.223-.066-.488.03-.66.165-.29.435-.52.66-.776.216.19.434.38.645.575.036.033.044.1.063.15.43 1.153.537 2.375.55 3.573.024 1.967-.115 3.936-.194 5.903-.02.472-.07.943-.114 1.414-.066.714-.226 1.433-.183 2.14.05.826.08 1.642-.03 2.46-.053.404-.163.8-.233 1.203-.026.154-.078.38 0 .462.426.445.19.802-.154 1.16l.494.694c.473-.768.986-1.435.494-2.32-.072-.13-.036-.33-.02-.496.106-1.196-.26-2.427.312-3.594.138-.28.084-.652.14-.978.058-.35.194-.69.204-1.04.025-.914-.145-1.818-.23-2.722-.153-1.597 0-3.224.05-4.838.01-.353.168-.7.182-1.055.138-3.33-.22-6.67.31-10 .226-1.415.06-2.892.063-4.34 0-.085-.07-.17-.108-.253-.14.168-.175.317-.176.467 0 .722.015 1.447 0 2.17-.012.563-.036 1.127-.097 1.685-.047.433-.188.855-.234 1.288-.123 1.13-.215 2.265-.322 3.398-.043.45-.26.812-.62 1.132-.1-.752-.137-1.493-.143-2.234-.004-.426-.098-.79-.312-1.177-.3-.544-.604-1.157-.647-1.76-.097-1.36-.038-2.73-.033-4.096 0-.103.08-.203.11-.308.023-.07.026-.147.044-.264-.236-.02-.443-.038-.68-.06-.14 1.457-.21 2.87-.424 4.26-.21 1.374-.194 2.774-.454 4.127-.258 1.336-.106 2.757-.808 4.032-.203-.663-.365-1.327-.41-2-.06-.912-.046-1.83-.028-2.747.005-.26.122-.524.22-.773.13-.32.2-.617-.215-1.01-.11.784-.278 1.447-.284 2.112-.012 1.474-.002 2.943-.34 4.39-.106.462-.293.585-.74.46-.235-.067-.484-.114-.727-.116-1.87-.01-3.737 0-5.604-.013-.433-.003-.82 0-1.097.423-.17.255-.472.352-.736.155-.753-.563-1.485-1.156-2.226-1.737-.29-.23-.325-.538-.353-.89-.107-1.34.492-2.532.81-3.774.286-1.124.648-2.227.64-3.393-.01-1.438.21-2.818.853-4.174-.594.373-.835 1.07-1.548 1.326-.175-.68-.14-1.363-.55-1.934-.325 1.214-.54 2.428-.788 3.634-.054.26-.192.525-.354.74-.27.358-.56.284-.712-.144-.208-.59-.035-1.14.164-1.694.17-.468.333-.94.466-1.417.095-.342-.043-.542-.553-.485 0 .34.014.693-.005 1.044-.013.246-.007.528-.123.728-.57.988-1.172 1.957-1.774 2.926-.534.86-1.05 1.712-.58 2.79.08.187.03.44.01.66-.058.605-.122 1.21-.2 1.81-.05.382-.123.76-.203 1.138-.147.696-.41 1.385-.437 2.084-.044 1.12-.324 2.17-.642 3.225-.165.55-.29 1.113-.382 1.68-.15.922-.162 1.878-.414 2.768-.178.628-.244 1.238-.284 1.87-.012.188-.097.373-.16.555-.27.8-.586 1.59-.805 2.404-.17.635-.2 1.305-.33 1.953-.168.845.263 1.513 1.173 1.67.13-.894.26-1.788.387-2.683.023-.165.005-.34.046-.498.315-1.223.606-2.454.978-3.66.168-.54.42-1.087 1.08-1.565zm9.796-6.53c1.104-.08 2.207-.17 3.312-.218.262-.01.546.085.787.2.097.047.153.285.136.424-.013.094-.182.236-.286.24-.36.014-.748.06-1.074-.056-.86-.302-1.735-.356-2.628-.35-.12 0-.24-.044-.393-.075.08-.094.11-.163.144-.166zm-6.406-5.28c.34.48.352.84.056 1.5-.358-.502-.288-.98-.056-1.5z"/>
  <path d="M19.985 11.333c-1.242-.038-2.48-.185-3.722-.29-.135-.013-.268-.057-.402-.088-.37-.087-.736-.182-1.108-.26-.406-.085-.82-.13-1.22-.234-.444-.116-.87-.296-1.312-.422-.37-.106-.75-.182-1.127-.258-.7-.14-1.4-.284-2.106-.403-.84-.142-1.72-.15-2.512-.423-.69-.238-1.357-.212-2.045-.24-.57-.026-.912.283-1.278.835.838.146 1.586.28 2.336.406.22.036.467-.013.66.07.83.363 1.697.252 2.554.267.557.01 1.115-.01 1.672.008.615.022 1.186.385 1.178.716-.01.385-.502.688-1.17.696-.892.01-1.784.008-2.676.004-.392-.002-.728.064-1.086.295-.714.46-1.488.83-2.252 1.21-.54.268-.93.595-.816 1.277.026.155-.04.325-.05.406l-1.11.75.104.258c.6 0 1.226.11 1.796-.023.955-.222 1.865-.67 2.86-.16.126.064.324-.02.49-.032.304-.02.61-.053.915-.048.74.013 1.04.437.88 1.142-.11.478-.165.97-.232 1.46-.056.41-.086.827-.142 1.24-.055.406-.144.808-.188 1.215-.065.608-.002 1.248-.174 1.82-.287.965-.092 1.91-.183 2.86.067.01.134.02.2.028.214-.982.428-1.964.64-2.946-.066 1.567.314 3.132.04 4.884l-.822-.604c-.143.408.042.7.214 1.03.29.557.566 1.138.723 1.74.206.792.29 1.615.433 2.448.077-.046.145-.085.21-.127.49-.31.536-.278.76.23.37.833.4 1.698.122 2.528-.23.687-.128 1.34-.14 2.037l1.89-.86c.155.27.277.51.426.734.168.252.333.515.548.722.248.24.55.15.647-.176.054-.182.045-.385.05-.58.02-.974.046-1.95.043-2.924 0-.527.192-.943.647-1.435l.524 1.253c.176-.475.15-1.993.02-2.535-.11-.454-.16-.923-.23-1.388-.036-.246-.046-.495-.085-.74-.078-.49-.234-.977-.238-1.467-.01-1.334-.043-2.657-.27-3.98-.137-.81-.537-1.567-.407-2.434.16-1.06-.055-2.1-.45-3.077-.222-.554.02-1.013.308-1.275.212-.193.813-.125 1.157.023.885.38 1.726.862 2.578 1.313.355.188.696.393 1.16.16-1.075-1.024-2.466-1.57-3.403-2.92.456-.03.723-.06.99-.063.753-.007 1.507-.025 2.258.006.427.018.76-.103 1.033-.42.294-.34.574-.68 1.11-.597.46.07.93.078 1.39.153.388.064.768.183 1.186.286l.124-1.915c-.463-.148-1.018-.24-1.484-.493-.772-.42-1.554-.64-2.437-.67zm-6.98 10.682c.06.04.118.08.173.12l-.08.155c-.052-.046-.117-.084-.15-.14-.013-.027.037-.09.058-.135zm.165.856l.19-.016c.037.403.07.807.115 1.21.126 1.154.262 2.306.378 3.46.02.197-.038.403-.15.603-1.142-1.686-.903-3.467-.533-5.256zm.846 8.046c-.03 1.383.27 2.774-.1 4.148-.063.23-.016.555-.388.528-.304-.022-.362-.268-.427-.53-.166-.67-.405-1.324-.552-1.998-.088-.4-.117-.837-.064-1.242.094-.714.507-1.2 1.284-1.41.093.177.252.342.248.504z"/>
  <path d="M112.796 32.445c-.546-.022-1.096-.13-1.628-.263-.735-.184-1.212-.068-1.732.605.574.093 1.083.176 1.59.256.326.05.686.03.965.17.24.12.497.407.536.653.024.156-.333.377-.53.558-.13.118-.313.19-.412.328-.204.283-.358.602-.553.892-.143.215-.317.41-.45.577.55.52 1.13.512 1.722.512.296 0 .673-.018.872.144.564.46 1.182.54 1.867.53.562-.01 1.08-.12 1.62-.275 1.102-.317 2.24-.508 3.36-.763.4-.09.795-.21 1.188-.326.1-.03.233-.076.275-.155.402-.762.99-1.328 1.758-1.71.074-.037.156-.096.186-.165.052-.118.13-.32.082-.365-.1-.095-.28-.163-.417-.15-.46.05-.917.21-1.373.198-.684-.018-1.363-.193-2.047-.215-.62-.02-1.093-.3-1.598-.603-.48-.288-.605-.654-.578-1.18.062-1.194.147-2.394.096-3.587-.044-1.022.415-1.938.438-2.94.02-.88.167-1.756.227-2.637.04-.577-.09-1.188.055-1.732.234-.884.18-1.763.193-2.647.016-1.17-.003-2.34.03-3.51.01-.318.047-.76.25-.922.546-.434 1.047-.985 1.807-1.087.74-.098 1.478-.21 2.215-.33.388-.064.65-.28.73-.688.09-.438-.185-.596-.52-.717-.233-.084-.5-.12-.694-.26-.67-.484-1.4-.326-2.074-.142-.878.24-.945.252-1.218-.81.283-.022.552-.058.82-.058.78 0 1.56.015 2.34.023.297.003.616.064.79-.27-1.01-.05-1.972-.498-3.01-.348-.328.048-.668.01-1.002.006-.14-.002-.326.03-.406-.044-.21-.194-.49-.423-.523-.668-.052-.375.327-.36.606-.374.028 0 .057.004.084 0 .926-.17 2.01.107 2.636-.926.032-.052.153-.048.23-.074.367-.117.74-.22 1.094-.365.1-.042.15-.214.252-.375-.81.054-1.52.138-2.23.142-3.012.016-6.022.007-9.033.01-.478.002-.94.043-1.227-.49-.154-.286-.422-.194-.636 0-.2.182-.396.438-.146.637.712.564.47 1.164.156 1.793-.04.08-.058.168-.115.335.21-.076.312-.116.417-.15 1.177-.385 2.295-.255 3.357.38.274.164.536.325.38.712-.526.16-1.063.278-1.562.49-.28.118-.642.35-.71.6-.205.733-.28 1.502-.425 2.374.41 0 .82.01 1.23-.002.585-.017 1.172-.022 1.753-.08.886-.088.896.417.664 1.045-.315.857-.6 1.72-.566 2.654.016.42.028.84-.002 1.255-.067.923.24 1.89-.32 2.76-.05.08-.012.22-.014.33-.034 1.45-.098 2.897-.093 4.344.005 2.004.07 4.01.095 6.015.015.97-.125 1.12-1.12 1.08zM115.806 14c.124-.328.363-.42.66-.313.274.1.394.35.253.605-.222.403.028 1.054-.734 1.277-.204-.556-.384-1.034-.18-1.57zm-.122 12.27c.045-1.413.188-2.822.3-4.232.017-.203.104-.4.155-.592.455.045.42.33.42.57.004 2.67.023 5.338-.017 8.005-.01.623-.226 1.243-.362 1.937-.49-.15-.515-.443-.514-.76.005-1.643-.035-3.287.018-4.928z"/>
  <path d="M44.702 8.014l.26.02c.543-.874.232-1.818.235-2.754-.562.03-.59.37-.586.67.008.69.06 1.376.092 2.064z"/>
  <path d="M10.208 38.486c-.09-.018-.28.04-.287.087-.04.237-.07.487-.033.72.028.178.16.338.247.506l.296-.068c0-.35.012-.7-.01-1.05-.004-.073-.128-.18-.212-.196z"/>
  <path d="M33.92 1c-.462 0-.66.045-.54.505L33.92 1z"/>
  <path d="M55.745 36.96c.22-.47.22-.47 0-.698v.698z"/>
  <path d="M72.434 38.816c0 .062.07.125.108.187l.177-.143c-.067-.082-.113-.14-.16-.2-.044.053-.126.104-.126.156z"/>
  <path d="M10.574 37.653c0 .027.063.05.098.076l.057-.135-.102-.08c-.02.046-.057.093-.054.138z"/>
  <path d="M123.024 9.224l-.01.08c.003-.004.006-.01.007-.015.007-.02.003-.044.004-.066z"/>
  <path d="M123.015 9.305l-.024.055c-.002.007-.006.013-.01.02h.027l.008-.075z"/>
</svg>
