<!--
  SVG Music Logos
  Thin Lizzy - Fighting v1.0.0
  https://github.com/tiagoporto/svg-music-logos
  Copyright (c) 2016-2018 Tiago Porto (http://tiagoporto.com)
-->
<svg xmlns="http://www.w3.org/2000/svg" viewBox="0 0 200 150">
  <polygon points="54.772 114.639 54.772 45.233 57.333 45.233 57.333 61.797 71.831 61.797 71.831 11.348 57.95 11.348 57.95 31.043 54.557 31.043 54.557 11.301 43.143 11.301 40.058 2.047 1.5 2.047 1.5 17.995 15.073 17.995 15.073 89.652 30.187 98.906 30.187 47.793 19.392 47.793 26.795 28.884 30.805 28.884 30.805 17.841 40.12 17.826 40.228 31.181 28.337 31.136 22.785 45.448 39.751 45.448 39.751 105.075"/>
  <polygon points="89.63 61.891 89.63 11.301 74.372 11.301 74.546 61.891"/>
  <polygon points="106.379 44.308 123.961 61.844 123.961 11.301 109.755 11.301 109.755 30.904 92.48 11.301 92.48 61.891 106.379 61.891"/>
  <polygon points="184.619 63.741 178.421 79.735 172.279 63.741 129.094 63.741 129.094 78.547 137.135 78.547 129.113 99.832 113.69 99.832 126.937 63.741 98.556 63.741 98.556 78.547 106.596 78.547 95.779 105.61 95.779 63.741 81.3 63.741 81.3 114.33 163.334 114.33 168.598 99.523 144.705 99.523 157.8 67.565 171.681 99.217 158.708 134.382 51.051 134.382 41.365 147.953 167.654 147.953 198.5 63.741"/>
  <polygon points="63.41 63.741 63.41 117.414 53.828 131.297 157.167 131.297 162.103 117.414 78.833 117.414 78.833 63.741"/>
</svg>
