<svg xmlns="http://www.w3.org/2000/svg" viewBox="0 0 200 28">
  <g>
    <path d="M27.612 2.718H2v5.158h10.227v18.106h5.158V7.876h10.227"/>
    <path d="M31.08 2.718h5.16v23.264h-5.16z"/>
    <path d="M130.24 2.718h-25.613v5.158h10.227v18.106h5.158V7.876h10.227"/>
    <path d="M80.33 7.88v-.004H101.185V2.718H80.33v.003c-3.925 0-7.106 3.182-7.106 7.106s3.18 7.105 7.105 7.105H96.17c1.074 0 1.945.872 1.945 1.947 0 1.075-.87 1.947-1.946 1.947H73.223v5.158H96.17c3.923 0 7.103-3.18 7.103-7.105 0-3.923-3.18-7.105-7.104-7.105H80.33c-1.076 0-1.947-.87-1.947-1.947 0-1.074.87-1.945 1.946-1.945z"/>
    <path d="M155.505 2.718h-15.84c-3.924 0-7.104 3.182-7.104 7.105v9.055c0 3.924 3.18 7.105 7.105 7.105h15.847c3.92-.003 7.098-3.183 7.098-7.104V9.822c0-3.924-3.18-7.105-7.105-7.105zm0 18.107h-15.84c-1.074 0-1.945-.873-1.945-1.948V9.823c0-1.075.87-1.946 1.946-1.946h15.84c1.075 0 1.946.87 1.946 1.946v9.056c0 1.073-.87 1.945-1.946 1.945z"/>
    <g>
      <path d="M55.496 2.718v5.158h3.557V2.72"/>
      <path d="M61.128 7.877h1.523c1.076 0 1.947.87 1.947 1.946 0 1.075-.87 1.947-1.946 1.947v.002H47.337v5.158H62.65v-.002c3.925 0 7.106-3.18 7.106-7.105 0-3.924-3.18-7.105-7.105-7.105H61.13v5.16z"/>
      <path d="M49.863 2.718h3.557v5.158h-3.557z"/>
      <path d="M46.812 20.824c-1.075 0-1.946-.87-1.946-1.946V9.823c0-1.075.87-1.946 1.946-1.946h.976v-5.16h-.976c-3.924 0-7.105 3.182-7.105 7.106v9.055c0 3.923 3.18 7.105 7.105 7.105h22.944v-5.158H46.812z"/>
    </g>
  </g>
  <g>
    <path d="M192.925 12.43c0 4.175-2.458 7.777-6.005 9.436-.217-.217-.404-.41-.564-.58-.02-.024-.047-.052-.076-.085-.152-.168-.292-.333-.42-.498 3.27-1.324 5.575-4.53 5.575-8.272 0-.276-.013-.55-.037-.817.43-.11.94-.223 1.465-.334.042.377.062.76.062 1.15z"/>
    <path d="M179.165 20.702c-.138.178-.28.344-.42.5l-.075.084c-.16.17-.347.363-.563.58-3.548-1.66-6.006-5.26-6.006-9.436 0-.39.023-.773.066-1.15.524.11 1.032.223 1.464.332-.024.27-.038.542-.038.818-.002 3.743 2.304 6.948 5.573 8.272z"/>
    <path d="M175.837 6.513c1.634-1.843 4.02-3.004 6.675-3.004 2.658 0 5.042 1.16 6.676 3.003h1.892c-1.88-2.716-5.015-4.495-8.568-4.495-3.552 0-6.69 1.78-8.567 4.495h1.892z"/>
    <path d="M187.637 7.568c-.87 0-2.493.988-3.278 1.428-.115.072-.2.16-.317 0-.01-.014-.082-.11-.102-.14v-.004l-1.427-2.178-1.426 2.178v.004c-.022.03-.092.127-.103.14-.116.16-.203.072-.316 0-.784-.44-2.407-1.428-3.278-1.428h-10.363c.12.965.834 1.347.895 1.4.538.463 5.134 1.11 6.857 1.706 3.413 1.157 4.828 2.69 5.327 3.15.36.35.634.726.84 1.074.432.72.575 1.317.575 1.317.796 3.142-1.76 5.66-1.942 5.888-.454.484-1.052 1.07-1.573 1.57.296.395.64.75 1.026 1.05l2.598-3.624-2.194 3.913c.523.344 1.108.603 1.733.755l1.103-4.463-.62 4.56c.28.043.567.065.86.065.292 0 .58-.022.86-.066l-.62-4.56 1.103 4.464c.626-.152 1.21-.41 1.733-.755l-2.196-3.914 2.598 3.624c.386-.303.73-.657 1.026-1.05-.52-.5-1.12-1.087-1.573-1.57-.183-.228-2.738-2.746-1.942-5.89 0 0 .142-.596.573-1.316.208-.348.483-.724.84-1.075.5-.46 1.915-1.992 5.33-3.15 1.722-.595 6.318-1.242 6.856-1.704.06-.055.775-.437.895-1.402h-10.36z"/>
  </g>
</svg>
