<svg xmlns="http://www.w3.org/2000/svg" viewBox="0 0 200 146" class="tim-ripper-owens">
  <path class="tim-ripper-owens__external-shadow" d="M15.123 142.678L26.965 38.112 1 24.33h71.704v-6.575h-8.148v-15.1h64.642V24.33H199l-26.454 14.393 10.02 103.763-27.713-76.14h-4.035V88.25H47.933V66.346h-3.537l-29.273 76.332z"/>

  <polygon class="tim-ripper-owens__internal-shadow" points="41.733 62.435 50.639 62.435 50.639 84.34 148.247 84.34 148.247 62.435 157.591 62.435 176.155 113.44 169.504 35.682 187.647 26.936 125.286 26.936 125.286 5.262 68.467 5.262 68.467 13.845 76.615 13.845 76.615 26.936 11.212 26.936 30.659 35.356 21.642 113.44"/>

  <g class="tim-ripper-owens__lettering">
    <polygon points="95.084 7.652 70.748 7.652 70.748 11.455 79.331 11.455 79.331 27.86 85.632 27.86 85.632 11.455 95.084 11.455"/>
    <path d="M53.377 62.218V82.29h16.007V62.218H53.377zm9.706 17.14h-2.67V65.344h2.67V79.36z"/>
    <polygon points="89.923 62.218 89.923 79.006 86.501 79.006 86.501 62.218 80.2 62.218 80.2 79.006 77.022 79.006 77.022 62.218 70.721 62.218 70.721 82.289 96.225 82.289 96.225 62.218"/>
    <polygon points="113.073 66.408 113.073 62.218 98.005 62.218 98.005 82.289 113.073 82.289 113.073 79.006 104.306 79.006 104.306 74.397 111.73 74.397 111.73 69.338 104.306 69.338 104.306 66.408"/>
    <polygon points="114.314 62.218 114.314 82.289 120.615 82.289 120.615 65.694 124.146 65.694 124.146 82.289 130.447 82.289 130.447 62.218"/>
    <polygon points="146.143 68.203 146.143 62.218 132.24 62.218 132.24 72.379 140.143 72.379 140.143 80.389 138.239 80.389 138.239 74.032 132.24 74.032 132.24 82.289 146.143 82.289 146.143 70.742 138.239 70.733 138.239 64.118 140.143 64.118 140.143 68.203"/>
    <rect x="59.993" y="30.032" width="9.391" height="30.394"/>
    <polygon points="139.085 35.896 139.085 30.032 125.478 30.032 117.064 30.032 116.087 30.032 116.087 60.426 117.064 60.426 125.478 60.426 139.085 60.426 139.085 54.562 125.478 54.562 125.478 47.705 137.073 47.705 137.073 40.865 125.478 40.865 125.478 35.896"/>
    <path d="M71.08 30.032v30.394h9.392V45.03h11.624V30.032H71.08zm9.392 12.358v-8.555h2.667v8.555H80.47z"/>
    <path d="M93.787 30.032v30.394h9.39V45.03h11.625V30.032H93.787zm9.39 12.358v-8.555h2.668v8.555h-2.667z"/>
    <rect x="88.24" y="12.529" width="6.301" height="15.33"/>
    <polygon points="96.931 7.652 96.931 27.86 103.232 27.86 103.232 11.455 106.709 11.455 106.709 27.86 113.01 27.86 113.01 11.455 115.835 11.455 115.835 27.86 122.136 27.86 122.136 7.652"/>
    <polygon points="165.756 45.229 160.215 44.006 166.163 42.39 167.793 32.964 153.37 35.896 154.835 42.965 152.121 42.965 152.121 34.378 174.23 30.032 140.952 30.032 140.952 60.426 152.121 60.426 152.121 45.605 155.547 45.605 172.03 95.272"/>
    <polygon points="57.996 30.032 26.061 30.032 46.542 33.346 46.542 42.965 43.792 42.965 45.163 34.921 34.733 32.964 26.307 95.272 43.286 45.229 46.542 45.229 46.542 60.426 57.996 60.426 57.996 44.812 51.536 43.338 57.996 41.684"/>
  </g>
</svg>
