<!--
  SVG Music Logos
  Twisted Syster - TS v1.0.0
  https://github.com/tiagoporto/svg-music-logos
  Copyright (c) 2016-2018 Tiago Porto (http://tiagoporto.com)
-->
<svg xmlns="http://www.w3.org/2000/svg" viewBox="0 0 200 200">
  <path d="M72.68 34.633l-42.914 71.14 74.962 91.344 79.722-94.797-38.462-43.846h25.683l23.242-55.41H22.117L4.913 34.633H72.68zm-63.394-2.61L23.662 5.66h167.01l-20.818 50.116H140.23l40.8 46.577-76.276 90.698-71.816-87.508 44.348-73.62-68 .1z"/>
  <path d="M97.505 49.57L64.12 103.1l39.14 46.525 38.632-48.446-38.75-45.142-5.637-6.468zm.368 4.317l40.648 47.353-35.315 44.287-35.882-42.653 30.55-48.987z"/>
  <path d="M14.508 28.885h68.125c.09 0-45.965 76.387-45.965 76.387l68.114 82.998 72.22-85.877-43.548-49.74 33.29.02 7.64-17.986-59.72-.035L103.1 51.297l42.757 49.81-42.535 53.34s-42.957-51.087-42.957-51.1l46.46-74.462h69.97l8.484-20.17H25.48L14.507 28.913v-.027z"/>
</svg>
