<!--
  SVG Music Logos
  X-Japan - Art of Life v0.1.0
  https://github.com/tiagoporto/svg-music-logos
  Copyright (c) 2016-2018 Tiago Porto (http://tiagoporto.com)
-->
<svg xmlns="http://www.w3.org/2000/svg" viewBox="0 0 200 200">
  <path d="M138.626 126.036c-20.315-25.937-24.125-49.88-13.24-52.42 0 0-9.796 2.176-12.155 1.088-2.357-1.088.02-3.71 1.996-5.985 1.85-2.13 8.457-10.86 12.515-16.508 4.142-5.764 7.84-13.83 17.05-24.123 10.936-12.22 27.68-23.098 39.445-26.58H141.95c-.16 2.292-1.277 4.103-2.766 4.103-1.35 0-2.57-1.81-2.73-4.102H62.41c-.16 2.292-1.278 4.103-2.767 4.103-1.35 0-2.57-1.81-2.73-4.102h-41.15c5.664 1.11 25.716 6.343 43.42 27.124 20.858 24.486 23.94 50.424 14.51 54.414 0 0 6.893-2.902 10.883-1.633.93.297 1.896.91 1.863 1.707-.032.753-.333 1.26-.93 1.956-4.76 5.562-18.94 25.85-21.975 30.44-6.67 10.094-16.03 25.563-47.484 38.75l40.81-.02c.165-2.278 1.28-4.074 2.762-4.074 1.344 0 2.56 1.796 2.726 4.073l74 .02c.16-2.287 1.28-4.094 2.765-4.094 1.348 0 2.567 1.806 2.728 4.093l38.994.003c-5.475-1.052-24.952-6.202-42.208-28.234zm-54.48-81.01c-13.52-18.76-11.165-27.552-8.268-31.985 3.788-5.794 15.4-10.433 35.34-8.34 19.94 2.09 24.136 13.566 20.23 26.813-3.905 13.246-17.708 30.398-21.194 34.442-3.486 4.044-4.74 3.486-4.74 3.486-2.092 0-7.574-5.273-21.368-24.413zm38.333 98.467c-3.79 5.796-15.402 10.433-35.342 8.342-19.94-2.09-24.135-13.566-20.23-26.813 3.905-13.247 17.71-30.398 21.195-34.442 3.485-4.043 4.74-3.486 4.74-3.486 2.092 0 7.574 5.273 21.37 24.414 13.52 18.76 11.163 27.552 8.266 31.985z"/>
  <path d="M58.54 160.68c.518-.083 1.03-.38 1.03-.833 0-.412-.212-.58-.617-.58h-13.59s-.605.262-.605.616c0 .418.366.762.658.774 3.154.13 4.467 1.293 4.467 2.394v18.935s.18 6.743-.026 7.882c-.405 2.232-1.11 4.763-3.69 4.763-2.344 0-3.852-3.052-4.637-3.052-.483 0-.945 1.207-.945 1.207s-.604 1.495-.582 2.463c-.018.81.342 1.813.99 2.314.83.655 1.875.937 3.004.937h.02c4.128-.006 6.207-1.273 8.587-4.735 2.533-3.69 3.283-8.362 3.283-14.153 0 0-.064-16.232-.064-16.964 0-1.35 1.23-1.728 2.717-1.968zm37.632 14.205c-1.46 0-2.154-.316-2.713-.316-.318 0-.608.376-.608.483 0 .87 2.426 1.797 4.795 1.797 6.748.004 9.735-3.937 9.727-7.118.003-4.1-4.832-6.682-7.12-6.682H82.8c-.327 0-.595.516-.6.79.01.457.25.657.524.685 1.37.14 3.537.42 4.02.884.318.307.344.977.344 1.59 0 .61.276 16.824.276 16.944.007.4-.058.79-.42.79-1.076 0-1.788-.003-2.52-1.098-.178-.263-11.496-20.586-11.496-20.586h-.078s-4.246 7.868-4.588 8.524c0 0-6.062 11.25-6.843 12.292-.35.445-.65.928-1.14 1.057-.49.13-1.917.283-1.917.758 0 .25.064.36.393.385.32.025 9.76 0 9.76 0s.148-.247.15-.383c-.028-.28-.412-.525-.505-.575l-3.226-.194c-1-.097-1.153-.12-1.153-.312 0-.13.482-1.11 1.255-2.577 0 0 2.172-4.588 2.315-4.82.546-.04 2.95-.045 2.95-.045l4.94-.032c.405 0 .878.03 1.414.085 1.37 2.53 2.81 5.456 3.087 5.985.396.756.565 1.108.565 1.323 0 .214-.045.296-1.213.268l-2.424.11c-.793.054-.99.414-.99.922 0 .223.043.246.25.246h20.934s.23-.12.23-.296c0-.24-.337-.44-.637-.513-.334-.08-2.507-.442-2.8-.557-1.462-.57-1.878-1.572-1.878-2.53 0-.955-.074-17.386-.074-17.386l-.074-.003c.163-.046 1.64-.206 3.035-.206 1.303 0 3.955.48 4.885.99.904.49 2.983 2.315 2.983 4.392.002 2.288-1.92 4.93-6.36 4.93zm-22.96.91c-1.938 0-3.68-.026-5.223-.08.02-.05.038-.1.054-.148.04-.123.172-.404.384-.8.217-.405.426-.813.628-1.225.424-.897 1.13-2.162 2.11-3.788.3-.49.538-.872.708-1.142l1.982 3.428c.102.18.657 1.187 1.654 3.006.124.222.24.454.346.697-.782.035-1.663.053-2.644.053zm76.124-12.744v.804s4.69.107 4.69 1.45c0 1.24-.013 15.83-.013 15.83L132.83 163.05h-7.33l.08 1.687c1.114 0 4.217.486 4.555 1.054.383.645.417 1.76.44 3.956l.045 7.368c.046 1.938.07 3.267.07 3.985 0 1.458-.15 3.155-.22 3.343-.073.188-.374.31-.857.31-1.392 0-1.944-.33-2.47-1.117-.177-.263-.504-.85-.966-1.745l-10.53-18.84h-.078l-.886 1.532s-7.4 13.86-7.878 14.795c-.995 1.947-1.887 3.447-2.668 4.49-.35.445-.727.766-1.218.915-.492.15-1.402.13-1.677.434-.165.182-.308.85.114.85h9.92l.01-.028c.053-.125.093-.22.096-.355-.033-.316-.24-.41-.428-.53l-.078-.045-3.227-.194c-.427-.04-.788-.087-1.072-.135-.024-.045-.043-.082-.056-.113-.013-.028-.02-.05-.024-.064.045-.185.48-1.112 1.254-2.58 0 0 2.172-4.587 2.315-4.818.546-.042 2.95-.046 2.95-.046l4.94-.033c.405 0 .878.03 1.414.085 1.372 2.53 2.81 5.455 3.088 5.984.395.756.564 1.182.564 1.38s-.71.195-1.213.21l-2.425.11c-.78.054-.973.47-.973.863 0 .115.018.302.225.302l19.8.003.012-.95s-2.227-.197-3.56-.49c-1.912-.42-1.983-2.665-1.983-2.665l-.002.002-.122-4.403c-.154-4.004-.23-7.142-.23-9.414l21.874 17.838 1.598.02-.003-20.7c0-.984 2.62-1.314 3.95-1.41v-.844h-10.636zm-33.407 12.746c-1.94 0-3.68-.027-5.224-.08.02-.05.04-.1.055-.15.04-.122.173-.403.385-.798.216-.406.426-.814.628-1.226.424-.897 1.128-2.162 2.11-3.788.3-.49.538-.872.708-1.142l1.983 3.428c.102.18.657 1.187 1.654 3.006.124.222.24.454.346.697-.782.035-1.663.053-2.644.053z"/>
</svg>
