<!--
  SVG Music Logos
  Hibria - Symbol v1.0.1
  https://github.com/tiagoporto/svg-music-logos
  Copyright (c) 2016-2019 Tiago Porto (http://tiagoporto.com)
-->
<svg xmlns="http://www.w3.org/2000/svg" viewBox="-18 0 162 200">
  <g class="hibria__circle">
    <path d="M63 2.5c-17.976 0-34.574 5.9-47.965 15.868 3.294.397 5.61.69 5.9.726l1.366.173 1.47 4.213C35.02 16.04 48.504 11.704 63 11.704c14.57 0 28.114 4.38 39.397 11.887l1.51-4.323 1.366-.173c.282-.036 2.523-.32 5.72-.705C97.6 8.41 80.99 2.5 63 2.5z"/>
    <path d="M118.564 24.787c-2.49.68-4.592 1.263-5.846 1.613l-1.102 4.49c13.9 12.995 22.59 31.492 22.59 52.022 0 33.53-23.178 61.644-54.385 69.203-.844 3.32-1.673 6.646-2.473 9.93 37.564-6.766 66.064-39.62 66.064-79.133 0-22.857-9.536-43.485-24.846-58.125z"/>
    <path d="M46.4 152.168C15.08 144.688-8.207 116.52-8.207 82.91c0-20.612 8.762-39.175 22.76-52.178L13.49 26.4c-1.28-.358-3.446-.96-6.01-1.657-15.336 14.642-24.89 35.29-24.89 58.168 0 39.59 28.61 72.495 66.28 79.173-.8-3.28-1.626-6.6-2.47-9.915z"/>
    <path d="M56.178 153.79l.284 2.074c.336 2.448.67 4.877.993 7.264 1.833.125 3.68.194 5.545.194 1.935 0 3.853-.073 5.754-.207.324-2.383.656-4.808.99-7.25.097-.697.192-1.395.288-2.092-2.314.227-4.66.346-7.032.346-2.302-.002-4.577-.115-6.822-.33z"/>
  </g>
  <g class="hibria__symbol">
    <path d="M76.84 49.737c-.78-1.34-.967-2.808-.967-4.923 0-2.67.185-4.676 2.533-4.82 2.827-.217 29.35-2.72 29.35-2.72l3.11-12.666s17.57-4.958 25.13-6.55c-7.96.397-30.445 3.243-30.445 3.243l-3.17 9.61S75.31 32.38 69.285 32.7c-1.937.103-2.063.834-2.063 2.115v19.618c8.466 2.554 13.338 7.766 13.338 17.92 0 8.856-5.696 14.458-14.1 17.865v19.003c4.78-2.727 9.965-2.14 9.965 7.183 0 14.883-9.733 69.688-8.893 81.097 3.095-20.34 16.866-74.51 23.49-91.667-2.07-3.45-9.508-5.16-12.058-6.087-3.512-1.28-3.893-3.14-3.4-4.787 11.082-5.1 15.202-14.32 15.202-23.39 0-6.534-3.303-13.426-10.09-18.427-.845-.623-2.82-1.672-3.833-3.406z"/>
    <polygon points="81.084 70.369 45.123 70.369 25.748 72.229 45.414 73.712 80.793 73.712 100.46 72.229"/>
    <path d="M45.53 53.144c-6.785 5-10.088 11.893-10.088 18.426 0 9.07 4.12 18.29 15.2 23.39.495 1.648.114 3.508-3.398 4.787-2.55.928-9.99 2.636-12.058 6.087C41.81 122.99 55.58 177.16 58.676 197.5c.84-11.408-8.893-66.213-8.893-81.096 0-9.324 5.186-9.91 9.964-7.182V90.218c-8.404-3.407-14.1-9.01-14.1-17.865 0-10.155 4.873-15.366 13.338-17.92V34.815c0-1.28-.125-2.012-2.063-2.115-6.024-.32-33.097-1.79-33.097-1.79l-3.17-9.61S-1.83 18.456-9.79 18.06c7.562 1.592 25.13 6.55 25.13 6.55l3.11 12.667s26.523 2.502 29.35 2.72c2.348.143 2.533 2.15 2.533 4.82 0 2.114-.186 3.58-.968 4.922-1.01 1.734-2.987 2.783-3.834 3.407z"/>
  </g>
</svg>
