<svg xmlns="http://www.w3.org/2000/svg" xmlns:xlink="http://www.w3.org/1999/xlink" x="0px" y="0px" width="425" height="425">
    <ellipse rx="200" ry="200" fill="none" stroke="#000000" stroke-width="25" stroke-linecap="butt" stroke-linejoin="miter" opacity="1" transform="matrix(1 0 0 1 0 0)" cx="212.5" cy="212.5" />
    <g id="text" transform="matrix(1 0 0 1 0 40)">
        <path fill="black" stroke="black" d="M44.44 63.11L44.44 63.11L44.44 63.11Q44.44 70.40 39.20 75.64L39.20 75.64L39.20 75.64Q33.96 80.89 26.67 80.89L26.67 80.89L17.78 80.89L17.78 80.89Q10.49 80.89 5.24 75.69L5.24 75.69L5.24 75.69Q0 70.49 0 63.11L0 63.11L8.89 63.11L8.89 63.11Q8.89 66.76 11.51 69.38L11.51 69.38L11.51 69.38Q14.13 72 17.78 72L17.78 72L26.67 72L26.67 72Q30.31 72 32.93 69.38L32.93 69.38L32.93 69.38Q35.56 66.76 35.56 63.11L35.56 63.11L35.56 63.11Q35.56 59.47 32.93 56.84L32.93 56.84L32.93 56.84Q30.31 54.22 26.67 54.22L26.67 54.22L17.78 54.22L17.78 54.22Q10.49 54.22 5.24 48.98L5.24 48.98L5.24 48.98Q0 43.73 0 36.44L0 36.44L0 36.44Q0 29.16 5.24 23.91L5.24 23.91L5.24 23.91Q10.49 18.67 17.78 18.67L17.78 18.67L26.67 18.67L26.67 18.67Q33.96 18.67 39.20 23.91L39.20 23.91L39.20 23.91Q44.44 29.16 44.44 36.44L44.44 36.44L35.56 36.44L35.56 36.44Q35.56 32.80 32.93 30.18L32.93 30.18L32.93 30.18Q30.31 27.56 26.67 27.56L26.67 27.56L17.78 27.56L17.78 27.56Q14.13 27.56 11.51 30.18L11.51 30.18L11.51 30.18Q8.89 32.80 8.89 36.44L8.89 36.44L8.89 36.44Q8.89 40.09 11.51 42.71L11.51 42.71L11.51 42.71Q14.13 45.33 17.78 45.33L17.78 45.33L26.67 45.33L26.67 45.33Q33.96 45.33 39.20 50.58L39.20 50.58L39.20 50.58Q44.44 55.82 44.44 63.11ZM88.53 18.67L97.78 18.67L80 80.89L71.11 80.89L53.33 18.67L62.58 18.67L75.56 64.09L88.53 18.67ZM151.11 45.33L151.11 63.11L151.11 63.11Q151.11 70.40 145.87 75.64L145.87 75.64L145.87 75.64Q140.62 80.89 133.33 80.89L133.33 80.89L124.44 80.89L124.44 80.89Q117.16 80.89 111.91 75.64L111.91 75.64L111.91 75.64Q106.67 70.40 106.67 63.11L106.67 63.11L106.67 36.44L106.67 36.44Q106.67 29.16 111.91 23.91L111.91 23.91L111.91 23.91Q117.16 18.67 124.44 18.67L124.44 18.67L133.33 18.67L133.33 18.67Q140.62 18.67 145.87 23.91L145.87 23.91L145.87 23.91Q151.11 29.16 151.11 36.44L151.11 36.44L142.22 36.44L142.22 36.44Q142.22 32.80 139.60 30.18L139.60 30.18L139.60 30.18Q136.98 27.56 133.33 27.56L133.33 27.56L124.44 27.56L124.44 27.56Q120.80 27.56 118.18 30.18L118.18 30.18L118.18 30.18Q115.56 32.80 115.56 36.44L115.56 36.44L115.56 63.11L115.56 63.11Q115.56 66.76 118.18 69.38L118.18 69.38L118.18 69.38Q120.80 72 124.44 72L124.44 72L133.33 72L133.33 72Q136.98 72 139.60 69.38L139.60 69.38L139.60 69.38Q142.22 66.76 142.22 63.11L142.22 63.11L142.22 54.22L133.33 54.22L133.33 45.33L151.11 45.33Z" transform="matrix(1 0 0 1 135 0)" />
        <path fill="black" stroke="black" d="M44.44 18.67L44.44 80.89L35.56 80.89L35.56 35.91L22.22 58.13L8.89 35.91L8.89 80.89L0 80.89L0 18.67L8.89 18.67L22.22 40.89L35.56 18.67L44.44 18.67ZM97.78 80.89L88.89 80.89L88.89 76.44L88.89 76.44Q88.89 80.89 80 80.89L80 80.89L80 80.89Q76.62 80.89 71.11 80.89L71.11 80.89L71.11 80.89Q63.73 80.89 58.53 75.69L58.53 75.69L58.53 75.69Q53.33 70.49 53.33 63.11L53.33 63.11L53.33 36.44L62.22 36.44L62.22 63.11L62.22 63.11Q62.22 66.76 64.84 69.38L64.84 69.38L64.84 69.38Q67.47 72 71.11 72L71.11 72L71.11 72Q75.56 72 80 72L80 72L80 72Q88.89 72 88.89 63.11L88.89 63.11L88.89 36.44L97.78 36.44L97.78 80.89ZM137.78 80.89L111.11 80.89L111.11 72L142.22 72L142.22 63.11L120 63.11L120 63.11Q106.67 63.11 106.67 49.78L106.67 49.78L106.67 49.78Q106.67 36.44 120 36.44L120 36.44L146.67 36.44L146.67 45.33L115.56 45.33L115.56 54.22L137.78 54.22L137.78 54.22Q151.11 54.22 151.11 67.56L151.11 67.56L151.11 67.56Q151.11 80.89 137.78 80.89L137.78 80.89ZM186.67 23.11L186.67 23.11L186.67 23.11Q186.67 24.98 185.38 26.27L185.38 26.27L185.38 26.27Q184.09 27.56 182.22 27.56L182.22 27.56L182.22 27.56Q180.36 27.56 179.07 26.27L179.07 26.27L179.07 26.27Q177.78 24.98 177.78 23.11L177.78 23.11L177.78 23.11Q177.78 21.24 179.07 19.96L179.07 19.96L179.07 19.96Q180.36 18.67 182.22 18.67L182.22 18.67L182.22 18.67Q184.09 18.67 185.38 19.96L185.38 19.96L185.38 19.96Q186.67 21.24 186.67 23.11ZM195.56 72L195.56 80.89L168.89 80.89L168.89 72L177.78 72L177.78 45.33L168.89 45.33L168.89 36.44L186.67 36.44L186.67 72L195.56 72ZM248.89 63.11L257.78 63.11L257.78 63.11Q257.69 70.49 252.53 75.64L252.53 75.64L252.53 75.64Q247.38 80.80 240 80.89L240 80.89L231.11 80.89L231.11 80.89Q223.82 80.89 218.58 75.64L218.58 75.64L218.58 75.64Q213.33 70.40 213.33 63.11L213.33 63.11L213.33 54.22L213.33 54.22Q213.33 46.93 218.58 41.69L218.58 41.69L218.58 41.69Q223.82 36.44 231.11 36.44L231.11 36.44L240 36.44L240 36.44Q247.29 36.44 252.53 41.69L252.53 41.69L252.53 41.69Q257.78 46.93 257.78 54.22L257.78 54.22L248.89 54.22L248.89 54.22Q248.89 50.58 246.27 47.96L246.27 47.96L246.27 47.96Q243.64 45.33 240 45.33L240 45.33L231.11 45.33L231.11 45.33Q227.47 45.33 224.84 47.96L224.84 47.96L224.84 47.96Q222.22 50.58 222.22 54.22L222.22 54.22L222.22 63.11L222.22 63.11Q222.22 66.76 224.84 69.38L224.84 69.38L224.84 69.38Q227.47 72 231.11 72L231.11 72L240 72L240 72Q243.56 72 246.22 69.33L246.22 69.33L246.22 69.33Q248.89 66.67 248.89 63.11L248.89 63.11Z" transform="matrix(1 0 0 1 82 97)" />
        <path fill="black" stroke="black" d="M44.44 72L44.44 80.89L0 80.89L0 18.67L8.89 18.67L8.89 72L44.44 72ZM97.78 54.22L97.78 63.11L97.78 63.11Q97.78 70.40 92.53 75.64L92.53 75.64L92.53 75.64Q87.29 80.89 80 80.89L80 80.89L71.11 80.89L71.11 80.89Q63.82 80.89 58.58 75.64L58.58 75.64L58.58 75.64Q53.33 70.40 53.33 63.11L53.33 63.11L53.33 54.22L53.33 54.22Q53.33 46.93 58.58 41.69L58.58 41.69L58.58 41.69Q63.82 36.44 71.11 36.44L71.11 36.44L80 36.44L80 36.44Q87.29 36.44 92.53 41.69L92.53 41.69L92.53 41.69Q97.78 46.93 97.78 54.22L97.78 54.22ZM88.89 63.11L88.89 63.11L88.89 54.22L88.89 54.22Q88.89 50.58 86.27 47.96L86.27 47.96L86.27 47.96Q83.64 45.33 80 45.33L80 45.33L71.11 45.33L71.11 45.33Q67.47 45.33 64.84 47.96L64.84 47.96L64.84 47.96Q62.22 50.58 62.22 54.22L62.22 54.22L62.22 63.11L62.22 63.11Q62.22 66.76 64.84 69.38L64.84 69.38L64.84 69.38Q67.47 72 71.11 72L71.11 72L80 72L80 72Q83.64 72 86.27 69.38L86.27 69.38L86.27 69.38Q88.89 66.76 88.89 63.11ZM151.11 36.44L151.11 80.89L151.11 80.89Q151.11 88.18 145.87 93.38L145.87 93.38L145.87 93.38Q140.62 98.58 133.33 98.58L133.33 98.58L115.56 98.58L115.56 89.69L133.33 89.69L133.33 89.69Q136.98 89.69 139.60 87.07L139.60 87.07L139.60 87.07Q142.22 84.44 142.22 80.89L142.22 80.89L124.44 80.89L124.44 80.89Q117.16 80.89 111.91 75.64L111.91 75.64L111.91 75.64Q106.67 70.40 106.67 63.11L106.67 63.11L106.67 54.22L106.67 54.22Q106.67 46.93 111.91 41.69L111.91 41.69L111.91 41.69Q117.16 36.44 124.44 36.44L124.44 36.44L151.11 36.44ZM124.44 72L142.22 72L142.22 45.33L124.44 45.33L124.44 45.33Q120.80 45.33 118.18 47.96L118.18 47.96L118.18 47.96Q115.56 50.58 115.56 54.22L115.56 54.22L115.56 63.11L115.56 63.11Q115.56 66.76 118.18 69.38L118.18 69.38L118.18 69.38Q120.80 72 124.44 72L124.44 72ZM204.44 54.22L204.44 63.11L204.44 63.11Q204.44 70.40 199.20 75.64L199.20 75.64L199.20 75.64Q193.96 80.89 186.67 80.89L186.67 80.89L177.78 80.89L177.78 80.89Q170.49 80.89 165.24 75.64L165.24 75.64L165.24 75.64Q160 70.40 160 63.11L160 63.11L160 54.22L160 54.22Q160 46.93 165.24 41.69L165.24 41.69L165.24 41.69Q170.49 36.44 177.78 36.44L177.78 36.44L186.67 36.44L186.67 36.44Q193.96 36.44 199.20 41.69L199.20 41.69L199.20 41.69Q204.44 46.93 204.44 54.22L204.44 54.22ZM195.56 63.11L195.56 63.11L195.56 54.22L195.56 54.22Q195.56 50.58 192.93 47.96L192.93 47.96L192.93 47.96Q190.31 45.33 186.67 45.33L186.67 45.33L177.78 45.33L177.78 45.33Q174.13 45.33 171.51 47.96L171.51 47.96L171.51 47.96Q168.89 50.58 168.89 54.22L168.89 54.22L168.89 63.11L168.89 63.11Q168.89 66.76 171.51 69.38L171.51 69.38L171.51 69.38Q174.13 72 177.78 72L177.78 72L186.67 72L186.67 72Q190.31 72 192.93 69.38L192.93 69.38L192.93 69.38Q195.56 66.76 195.56 63.11ZM244.44 80.89L217.78 80.89L217.78 72L248.89 72L248.89 63.11L226.67 63.11L226.67 63.11Q213.33 63.11 213.33 49.78L213.33 49.78L213.33 49.78Q213.33 36.44 226.67 36.44L226.67 36.44L253.33 36.44L253.33 45.33L222.22 45.33L222.22 54.22L244.44 54.22L244.44 54.22Q257.78 54.22 257.78 67.56L257.78 67.56L257.78 67.56Q257.78 80.89 244.44 80.89L244.44 80.89Z" transform="matrix(1 0 0 1 82 194)" />
    </g>
</svg>