<svg xmlns="http://www.w3.org/2000/svg" width="325" height="118" viewBox="-394 177 325 118">
  <style>
    .text{
      opacity:.8;
      fill:#fff;
    }
    .icon{
      fill:#5486f7
    }
  </style>

  <g class="icon">
    <path d="M-312.4 257.7c0 1.9-.5 3.6-1.5 5.1-1 1.5-2.4 2.7-4.4 3.6-2 .9-4.1 1.2-6.7 1.2-3.1 0-5.7-.5-7.7-1.7-1.5-.9-2.6-2-3.5-3.4s-1.4-2.7-1.4-4.1c0-.7.2-1.5.9-2 .5-.5 1.1-.9 2-.9.6 0 1.2.1 1.7.6s.9 1.1 1.1 1.9c.4 1 .9 1.9 1.2 2.5.5.6 1.1 1.1 1.9 1.6.9.5 1.9.6 3.4.6 1.9 0 3.4-.5 4.6-1.2 1.1-.9 1.7-2 1.7-3.4 0-1-.2-1.9-.9-2.6-.6-.6-1.5-1.1-2.5-1.5-1-.4-2.4-.7-4-1.1-2.2-.5-4.1-1.1-5.7-1.9-1.5-.7-2.7-1.6-3.6-3-.9-1.1-1.4-2.7-1.4-4.6 0-1.7.5-3.4 1.4-4.6.9-1.4 2.2-2.4 4.1-3.1 1.9-.7 4-1.1 6.4-1.1 1.9 0 3.6.2 5.1.7 1.4.5 2.6 1.1 3.5 1.9.9.9 1.6 1.6 2 2.5.5.9.6 1.7.6 2.6 0 .7-.2 1.5-.9 2-.5.6-1.1.9-2 .9-.7 0-1.2-.1-1.6-.5-.4-.4-.9-1-1.1-1.9-.5-1.1-1.2-2.1-2.1-2.7s-2.1-1-3.9-1c-1.6 0-3 .4-4 1.1-1 .7-1.5 1.5-1.5 2.6 0 .6.1 1.1.5 1.6s.9.9 1.4 1.1c.6.4 1.1.5 1.9.7.6.1 1.6.5 3 .9 1.7.5 3.4.9 4.9 1.4 1.5.5 2.6 1.1 3.6 1.9 1 .7 1.9 1.6 2.4 2.7.9 1.7 1.1 3.1 1.1 4.6z"/>
    <path d="M-300 244.2l7.1 21.2 7.1-21.3c.4-1.1.6-1.9.9-2.2.1-.4.5-.9.9-1.1.5-.4 1-.5 1.7-.5.5 0 1 .1 1.5.4.5.2.9.6 1.1 1.1s.4.9.4 1.4c0 .2 0 .6-.1 1s-.1.7-.4 1.1c-.1.4-.2.7-.4 1.1l-7.6 20.7c-.2.9-.5 1.5-.9 2.2-.4.7-.5 1.4-.9 1.9s-.9 1-1.5 1.2c-.5.4-1.2.5-2.2.5-.9 0-1.5-.1-2.2-.5-.5-.4-1.1-.9-1.5-1.4-.4-.5-.6-1.1-.9-1.9-.2-.7-.5-1.5-.9-2.2l-7.5-20.4c-.1-.4-.2-.7-.4-1.1-.1-.4-.2-.7-.4-1.1-.1-.5-.1-.7-.1-1 0-.7.2-1.4.9-2 .5-.6 1.2-.9 2.2-.9 1.1 0 1.9.4 2.2 1 .9.3 1.4 1.3 1.9 2.8z"/>
    <path d="M-248.3 254.4v6.1c0 .9-.1 1.5-.2 1.9-.2.6-1.2 1.6-2.4 2.4-1.1.7-3.4 1.7-4.9 2.2-1.5.5-3.2.7-5.1.7-2.1 0-4.1-.4-5.9-1.1s-3.2-1.9-4.5-3.2c-1.2-1.4-2.2-3.1-2.9-5.1s-1-4.4-1-6.7c0-2.5.4-4.7 1-6.7s1.6-3.7 2.9-5.2c1.2-1.5 2.7-2.5 4.6-3.4 1.7-.7 3.9-1.1 6.1-1.1 1.9 0 3.6.2 5 .9 1.5.5 2.6 1.2 3.5 2.1.9.9 1.5 1.7 2 2.7.5.9.6 1.9.6 2.6 0 1.9-2 2.9-2.7 2.9-.9 0-1.5-.4-2.1-1.2-.5-.7-.8-1.8-1.7-2.9-.5-.6-2.4-2.1-5.1-2.1-4.7 0-6.3 2.3-7.9 6.6-.4 1.4-.5 3-.5 4.7 0 3.6.7 6.5 2.2 8.5 1.6 2 3.6 3 6.4 3 1.2 0 2.5-.1 3.6-.5s2.4-.9 3.5-1.6v-5.1h-4.4c-1 0-1.9-.1-2.4-.5s-.9-1-.9-1.9c0-.7.2-1.2.6-1.7.5-.5 1-.7 1.9-.7h6.4c3.4-.2 4.3 1.5 4.3 3.4z"/>
    <path d="M-285 188.9h56v5.1h-56z"/>
    <path d="M-358.1 188.9h56v5.1h-56z"/>
    <circle cx="-363.4" cy="191.2" r="7.6"/>
    <circle cx="-222.5" cy="191.2" r="7.6"/>
    <path d="M-282.7 201.5H-303v-20.3h20.3v20.3zm-15.2-5.2h10.2v-10.2h-10.2v10.2z"/>
    <g>
      <path d="M-349.3 283v-55c0-2.5-2-4.7-4.6-4.7h-19.4c-10.3 0-18 8.6-18 18.8v28.2c0 10.3 8.4 18.6 18.6 18.6h18.4c4.1-.1 5-2 5-5.9zm-33-12.9V242c0-4.1 3.3-9.6 9.6-9.6h14.2v47.3h-14.2c-4.1 0-9.6-4.2-9.6-9.6z"/>
      <path d="M-300.2 188.3c-24.5 2.2-45.9 15.6-58.8 35.1l9.6 5.2c11.1-16.1 28.8-27.2 49.2-29.4v-10.9z"/>
    </g>
    <g>
      <path d="M-231.1 288.8h18.4c10.2 0 18.6-8.2 18.6-18.6V242c0-10.2-7.6-18.8-18-18.8h-19.4c-2.6 0-4.6 2.2-4.6 4.7v54.9c0 4.1.9 6 5 6zm18.4-9.2h-14.2v-47.3h14.2c6.3 0 9.6 5.5 9.6 9.6v28.2c0 5.4-5.5 9.5-9.6 9.5z"/>
      <path d="M-285.2 188.3c24.5 2.2 45.9 15.6 58.8 35.1l-9.6 5.2c-11.1-16.1-28.8-27.2-49.2-29.4v-10.9z"/>
    </g>
</g>

  <g class="text">
    <path d="M-170.4 233.1c-.6 0-1.1.3-1.4.7l-6 7.9s-5.1-6.8-5.6-7.5c-.5-.8-.8-1.1-1.6-1.1-.9 0-1.7.7-1.7 1.7v14.7c0 .9.7 1.7 1.7 1.7.9 0 1.7-.7 1.7-1.7V240c4.5 6.1 4.2 5.7 4.2 5.8.7.8 2 .7 2.6-.1l4.3-5.8v9.6c0 .9.7 1.7 1.7 1.7.8 0 1.7-.7 1.7-1.7v-14.7c.1-1-.7-1.7-1.6-1.7z"/>
    <path d="M-151.4 232.9c-.9 0-1.7.7-1.7 1.7v9.5c0 2.7-3.3 3.8-4.4 3.8-2.3 0-4.5-1.8-4.5-4.3v-9c0-.9-.7-1.7-1.7-1.7-.9 0-1.7.7-1.7 1.7v9.5c0 4.5 3.9 7.2 7.9 7.2 4.2 0 7.8-3.3 7.8-7.2v-9.5c0-1-.8-1.7-1.7-1.7z"/>
    <path d="M-128.7 251.1c-.9 0-1.7-.7-1.7-1.7v-14.7c0-.9.7-1.7 1.7-1.7.9 0 1.7.7 1.7 1.7v14.7c0 1-.8 1.7-1.7 1.7z"/>
    <path d="M-133.2 246.1c0-1.6-.4-2.8-2.3-4.1-1.2-.7-2.6-1.3-4.6-1.7-2.7-.5-3.4-2.1-3.4-2.8 0-.7.8-1.6 3.4-1.4.8.1 2 .4 3.4 1.2.8.4 1.9.1 2.3-.7.4-.8.1-1.9-.7-2.3-1.7-.8-3.3-1.4-4.6-1.5-2.4-.2-4.2.3-5.5 1.5-1.1.9-1.6 2.3-1.6 4 0 1.6 1.1 3.3 2.4 4.1 1.1.6 2.4 1.1 3.6 1.3 3.3.7 4.3 1.6 4.3 2.3 0 2.1-2.3 2.4-3.5 2.4-2-.1-3.5-.8-4.7-1.7-.7-.4-1.8-.2-2.3.5-.4.7-.2 1.8.5 2.3 1.6 1.1 3.6 2.1 6.5 2.2h.3c2.5 0 4.1-.9 4.9-1.8.7-1 1.6-2.3 1.6-3.8z"/>
    <path d="M-108.2 246.5c-.6-.7-1.7-.7-2.4-.1-2.1 1.9-5.8 2.6-8.4.1-2.4-2.4-2.4-6.3 0-8.8 2.3-2.3 5.5-2.3 8.4.1.3.3.6.4 1.1.4.4 0 .9-.2 1.3-.6.6-.7.5-1.8-.2-2.4-2-1.7-4.2-2.6-6.5-2.6-2.4 0-4.6.9-6.4 2.7-1.8 1.8-2.8 4.3-2.8 6.8 0 5 3.9 9.5 9.4 9.5 2 0 4.6-.9 6.4-2.6.8-.7.8-1.9.1-2.5z"/>
  </g>
  <g class="text">
    <path d="M-172.9 276.9h-9.4v-17.2c0-1.3-1-2.2-2.2-2.2-1.3 0-2.2 1-2.2 2.2v19.4c0 1.3 1 2.2 2.2 2.2h11.6c1.1 0 2.2-1 2.2-2.2.1-1.2-.9-2.2-2.2-2.2z"/>
    <path d="M-123.5 267.4h-8c-1.3 0-2.2 1-2.2 2.2 0 1.3 1 2.2 2.2 2.2h5.7v3.6c-1.4 1.1-3.2 1.7-5 1.7-4.1 0-7.8-3.6-7.8-7.2 0-4.4 3.6-8.5 7.9-8.5 2.1 0 4 .8 5.4 2.2.4.4 1.1.6 1.6.6s1.1-.2 1.6-.8c.7-.9.7-2.2-.1-3.1-2.4-2.2-5.3-3.5-8.5-3.5-7 0-12.4 5.8-12.4 12.3 0 6.8 5.6 12.3 12.3 12.3 2.9 0 6-1.2 8-2.8 1.3-1 1.5-1.1 1.5-2.1v-7.1c0-1-1-2-2.2-2z"/>
    <path d="M-72.7 274.7c0-1.5-.6-3.7-2.8-5.3-1.5-1.1-3.1-1.7-6.4-2.4-3.6-.8-4.4-2-4.4-3.4s1.8-2.5 4.6-2.2c1.1.1 2.7.6 4.5 1.5 1.1.6 2.5.1 3.1-1 .6-1.1.1-2.5-1-3.1-2.2-1.1-4.3-1.8-6.1-2-3.2-.3-5.6.4-7.3 2-1.4 1.3-2.1 3.1-2.1 5.3 0 2.2 1 4.2 3.1 5.4 1.4.8 3.2 1.4 4.7 1.7 4.2.9 5.5 1.9 5.5 3.1 0 2.1-2.8 3-4.5 3-2.7-.1-4.6-1.1-6.3-2.2-1-.6-2.4-.3-3.1.7-.6 1-.2 2.2.7 3.1 1.8 1.8 6.6 2.9 9.1 2.9 3.5 0 5.7-1.1 6.7-2.2 1-1 2-3 2-4.9z"/>
    <path d="M-106.4 256.6c-7.1 0-12.8 5.7-12.8 12.8s5.7 12.8 12.8 12.8c7.1 0 12.8-5.7 12.8-12.8s-5.7-12.8-12.8-12.8zm0 21c-4.5 0-8.2-3.7-8.2-8.2 0-4.5 3.7-8.2 8.2-8.2 4.5 0 8.2 3.7 8.2 8.2 0 4.5-3.7 8.2-8.2 8.2z"/>
    <path d="M-158 256.6c-7.1 0-12.8 5.7-12.8 12.8s5.7 12.8 12.8 12.8c7.1 0 12.8-5.7 12.8-12.8s-5.7-12.8-12.8-12.8zm0 21c-4.5 0-8.2-3.7-8.2-8.2 0-4.5 3.7-8.2 8.2-8.2 4.5 0 8.2 3.7 8.2 8.2 0 4.5-3.7 8.2-8.2 8.2z"/>
  </g>
</svg>
