<!--
  SVG Music Logos
  Arch Enemy - Stigmata symbol v1.0.0
  https://github.com/tiagoporto/svg-music-logos
  Copyright (c) 2016 Tiago Porto (http://tiagoporto.com)
-->
<svg xmlns="http://www.w3.org/2000/svg" viewBox="0 0 200 200">
  <path d="M118.161 2C74.145 2 38.462 37.681 38.462 81.697c0 44.016 35.683 79.699 79.699 79.699s79.699-35.683 79.699-79.699S162.177 2 118.161 2zm-.503 150.121c-38.987 0-70.589-31.604-70.589-70.589s31.602-70.589 70.589-70.589c38.985 0 70.587 31.604 70.587 70.589s-31.602 70.589-70.587 70.589z"/>
  <circle cx="117.826" cy="81.194" r="29.866"/>
  <polygon points="46.75 67.72 2.14 73.13 2.14 76.086 44.887 83.684"/>
  <path d="M26.736 60.714L25.08 89.567l17.146 1.655 2.128-29.089-17.618-1.419zm14.072 25.542L29.722 85.4l1.508-19.719 10.731.887-1.153 19.688z"/>
  <polygon points="47.307 109.258 15.797 141.655 17.039 143.725 56.416 123.149"/>
  <path d="M30.099 114.017l15.263 24.581 12.697-7.957-13.98-25.465-13.98 8.841zm23.806 13.553l-7.428 4.856-10.438-16.786 6.77-4.374 11.096 16.304z"/>
  <polygon points="78.101 141.655 64.457 184.284 68.027 185.477 91.799 148.691"/>
  <path d="M63.866 155.13l25.181 14.034 7.89-15.312-26.23-12.755-6.841 14.033zm27.933-1.801l-4.902 9.98-16.877-10.477 3.918-7.869 17.861 8.366z"/>
  <polygon points="120.277 153.864 128.375 198 131.978 197.292 135.676 153.828"/>
  <path d="M114.359 175H143v-19.87l-28.694 2.449.053 17.421zm23.446-17.052l.226 11.117-19.301-.608-.107-9.763 19.182-.746z"/>
</svg>
