<!--
  SVG Music Logos
  Edguy - Kingdom of Madness v1.0.0
  https://github.com/tiagoporto/svg-music-logos
  Copyright (c) 2016-2018 Tiago Porto (http://tiagoporto.com)
-->
<svg xmlns="http://www.w3.org/2000/svg" viewBox="0 0 200 70">
  <polygon points="30.7,26.818 1.5,57.897 46.022,57.897 46.022,47.055 26.682,47.457 44.865,25.951 34.169,16.298 46.022,16.298 46.022,6.003 10.349,5.94"/>
  <path d="M49.91 1.777v64.688l1.94 1.763L85.692 26.1 49.912 1.778zm10.82 18.946l10.126 8.308-9.906 13.275-.22-21.582z"/>
  <polygon points="100.356,36.5 109.84,48.662 86.574,48.662 111.955,19.403 111.955,2.654 67.714,56.594 128.7,56.594 111.25,36.5"/>
  <polygon points="147.208,8.298 134.693,8.298 145.269,27.511 134.341,40.026 126.585,31.036 126.585,5.302 115.657,1.773 115.657,34.385 134.693,56.594 158.841,28.04"/>
  <polygon points="185.985,4.949 172.237,18.874 165.01,8.298 153.024,8.298 164.658,27.511 139.276,56.594 151.614,56.594 198.5,4.949"/>
</svg>
