<!--
  SVG Music Logos
  Raimundos v1.0.0
  https://github.com/tiagoporto/svg-music-logos
  Copyright (c) 2016 Tiago Porto (http://tiagoporto.com)
-->
<svg xmlns="http://www.w3.org/2000/svg" viewBox="0 0 200 92">
  <g class="raimundos__background">
    <path
      d="M175.934 20.81c-1.162-.87-3.922-5.338-5.81-5.338s-3.124 1.707-3.706 1.9c-.58.195-1.447-.036-1.592 1.126-.145 1.162-.877 4.275-1.53 9.795-.655 5.52.144 9.516-.655 10.024-.798.508-1.224 5.004-1.714 4.768-.322-.155.698-9.344.626-11.378-.073-2.034-.29-7.845-.8-8.862-.507-1.017-.326-3.886-.87-4.794-.438-.728-2.253-.507-3.124-.677-.872-.17-3.922-.775-4.72 0-.394.38-.764 4.346-1.38 8.56-.617 4.2-.347 8.505-.292 10.277.052 1.67 1.89 1.925 1.235 8.717-.14 1.462.074 4.213-.725 4.504-.8.292.073 1.6-1.235 1.6s-2.36-3.233-3.305-2.943c-.944.29-3.087 6.574-3.668 8.753-.58 2.18-.145 5.375-.58 5.81-.437.437-.51 1.817-.945 2.543-.508-2.978.145-14.164.363-16.925.218-2.76 2.26-6.683 2.26-13.874 0-3.784-.517-12.712-1.098-13.22-.415-.363-.762-.317-2.192-.024.12-.364.11-.715-.17-.883-.544-.327-3.704-.69-4.357-.872-.654-.182-3.85-1.27-3.777-1.634.074-.362 1.09-.762 2.216-.69 1.126.074 4.892-.048 5.836-.374s3.316-1.186 3.534-1.95c.218-.762-2.892-.9-4.794-.616-1.448.215-4.068 1.344-5.23 1.525-1.162.182-3.425.925-4.405.09-.98-.836-2.84-3.308-5.292-4.775-1.02-.61-3.014-1.852-3.668-2.506-.654-.654-6.683-4.068-10.315-4.213-3.632-.144-5.557-1.488-6.537-1.888-.98-.4-5.484-1.707-8.172-1.78-2.688-.073-6.937 1.38-8.39 1.344-1.453-.036-6.174.69-7.772 1.49-1.597.798-2.47 1.815-4.14 1.742-1.67-.073-8.607 5.92-10.986 7.427-1.64-.18-3.487.272-4.74.436s-3.378.49-5.266.818c-1.89.327-5.16 1.658-6.356 1.78-1.72.175-4.54.77-4.54 1.416 0 1.017 7.36.685 8.595.65s1.684-.468 2.592-.795c.907-.328 5.665-2.28 6.064-1.982.4.297-1.598 1.545-2.143 1.945-.544.4-4.357 2.615-4.357 3.123s.835.617 1.743.254c.908-.363 5.512-2.857 6.937-4.758 2.36 1.053 9.26 3.27 10.496 3.414 1.234.145 4.43-.218 5.846.11 1.416.326 3.56 1.56 5.702 1.85 2.143.292 5.412-.144 6.465 0 1.053.146 3.596 1.018 4.43 1.127.836.11 3.67.145 4.287 0s.726-1.416 1.598-1.453 6.102.29 8.063.218 6.03-.8 7.083-.8 5.722-.177 7.247-.758c1.525-.58 3.55-.88 4.83-.673 1.248.2 1.07.415 2.486.597 1.416.182 4.358 1.816 5.52 2.397.213.107.44.208.673.3-2.607.666-2.704 1.52-3.497 2.906-.872 1.525-1.17 1.952-2.334 3.732-.043-1.515.18-2.343.29-2.738s1.2-1.866-.073-2.202c-1.448-.383-4.286 1.525-5.448 1.89-1.163.362-1.308 3.63-1.38 4.575-.074.944-.873 1.453-.873 3.85s1.126 4.613.617 13.765c-.33 5.947-1.416 19.72-1.562 24.37-.145 4.65-.218 16.053 0 17.36.218 1.308 5.012.292 6.03-.217 1.016-.507.653-.725.798-3.413.145-2.688 2.58-5.048 2.615-11.477.017-3.05-1.053-13.51-1.126-15.98-.074-2.47.637-9.447 1-12.933.726 0 1.868-.214 2.594-.868-.073 1.597-1.525 12.166-1.598 16.524-.06 3.51.02 16.57.182 22.084.04 1.33.617 1.25.472 2.432-.133 1.084.29 3.196 1.017 3.27s1.743-.51 1.816-.945c.073-.436.763-.835 1.416-1.126.653-.292.108-2.07 1.198-3.088.542-.505 1.235-1.162 1.96-2.978.255-.636.183-1.67.255-3.487 0 .726.908 2.76.908 4.14s-.217 3.123-.144 4.504c.073 1.38.8 3.778 1.743 4.505.943.726 4.212.363 5.23.29 1.016-.072 1.38-.58 2.54-2.25.074 1.452.873 2.977 1.89 3.122 1.017.145 5.157-2.324 5.52-3.05.363-.727 0-6.684-.29-10.46-.292-3.778-.437-15.546-.727-18.015-.29-2.47.726-9.66 1.96-12.494-.29 1.525-.108 7.5-.326 9.534s-.617 8.117-.69 13.565c-.073 5.448 1.235 13.656 1.38 15.69.145 2.034 1.453 1.96 1.96 2.615.51.654 1.38 2.484 3.706 2.252 5.657-.565 7.19-10.17 7.918-12.93.727-2.76 1.817-12.35 2.76-17.215.945-4.868 1.962-23.717 1.962-28.947.003-5.632-1.885-10.28-3.048-11.152zM149.13 78.487c-.29-.073.092-9.97.237-11.422.145-1.453-.09-5.14.345-5.43.27-.18 1.38 1.525 1.453 1.96.073.437.145 11.187.29 11.914.146.726-2.034 3.05-2.324 2.978zm20.23-25.86c.22 1.634.438 4.94.287 7.01-.15 2.07-1.648 5.52-1.648 7.154s-.818 5.067-.764 6.32c.054 1.253-.38 1.47-.436 1.852-.054.38-.11 2.996-.49 2.942-.38-.054-.748-3.48-.654-4.63.218-2.67 1.035-3.324 1.09-4.14.054-.818-.654-2.833-.654-5.122 0-3.105 1.194-3.857 1.41-5.437.22-1.58.55-8.4.878-9.817s.6-3.922 1.2-4.25c.598-.326-.437 6.484-.22 8.118z" />
    <path
      d="M52.45 22.26c.83-.25 5.992-.678 6.427 0 .436.676 1.525 1.13 1.525 2.946 0 1.96-.073 5.32-.545 6.392-.208.473-.872 2.343-.817 3.487.054 1.144-2.76 1.416-3.523 1.362s-5.7-1.96-5.902-4.25c-.218-2.487.1-5.528.728-6.242 1.2-1.363 1.617-3.55 2.106-3.696z" />
    <path
      d="M57.134 37.972c.49.06 1.798.38 1.798 1.634s-1.2 9.903-1.307 11.44c-.264 3.76-1.873 4.305-1.835 5.83.037 1.525.18 11.658 0 14.437-.18 2.778-1.98 10.296-2.142 10.787-.163.49-.218 1.253-1.58 1.035-1.362-.218-6.102-.926-7.19-.926-1.09 0-2.126-.6-1.69-2.017.436-1.416 2.833-7.19 3.54-13.075.71-5.884-.108-8.99.982-11.44 1.09-2.453 1.66-7.574 1.838-9.97.177-2.398.177-5.94.34-6.375s.546-1.47 1.417-1.362c.872.11 4.485-.162 5.83.002z" />
    <path
      d="M46.057 42.384c-.218-2.542-.707-2.466-.78-3.593s-1.883-1.473-2.47-3.434c-.59-1.96-2.322-10.366-2.68-12.37-.372-2.067-1.44-2.64-2.55-4-.79-.97-2.27-.828-3.46-.927-2.81-.235-2.733.506-3.24 1.99-.51 1.486-2.01 4.268-3.1 5.285-1.09 1.017-1.913 4.555-1.84 5.28.073.727.29 5.716-.145 5.837-.436.12-.5-2.93-1.23-4.89-.73-1.962-5.525-9.517-6.542-10.098-1.017-.58-3.406-.145-4.43-.218-2.325-.165-3.143-.696-4.54-.69-.563.003-1.428 1.175-1.502 1.767-.074.592-.017 1.282.12 1.88.91 3.944-1.997 17.89-2.505 22.975-.51 5.085.382 10.026-.127 13.802S4 68.244 3.564 70.713c-.436 2.47-1.308 13.293.726 15.037 2.034 1.743 4.723-1.758 8.5-1.38.725.073.725-1.017.725-2.034s-.726-10.75-.654-11.404c.074-.654.727 3.632 1.454 5.085.726 1.453 3.995 8.862 5.085 9.152 1.09.29 6.327-5.706 6.327-6.723 0-1.017-2.406-3.157-2.84-5.045-.437-1.89-2.453-11.753-3.996-14.164-1.16-1.816-.435-2.978.22-3.777.653-.798 6.106-10.768 6.905-16.452.8 1.07.358 1.78.867 2.288.508.508-.017 2.324.726 2.906 1.67 1.307 3.487-6.102 4.286-5.956.8.145-.436 5.666 0 6.61s.49 3.27.184 3.45c-.857.508-2.653-1.852-3.525-1.49-.872.364-5.012 6.466-5.157 7.41-.145.944 1.598 14.164 1.89 16.344.29 2.18.943 7.12.943 7.918 0 .8-.08 3.344.072 3.777.436 1.235 1.525.512 2.324.91.8.398 1.644.586 2.47.398 1.743-.398 2.107-4.14 3.123-4.358 1.016-.218-.56 2.88.29 3.123 1.525.436 2.76-.654 3.34-.508.582.145 1.744.726 2.398.508.654-.218.436-4.576 1.235-7.627.8-3.05 2.833-11.04 3.632-17.07.797-6.03 1.16-12.713.942-15.256zm-29.455-.272c.005 3.07-.66 4.715-1.416 6.265-.586 1.2-2.118 1.846-2.234 1.798-.327-.136-.15-1.957-.272-3.078-.086-.793-.33-.773-.218-1.097.272-.783.817-2.635.926-3.724.11-1.09-.6-9.207-.436-9.86.075-.3 1.47-.27 1.798.872.327 1.143 1.85 7.077 1.852 8.824zm17.76 22.282c-.218.436-1.47 1.852-1.798 1.852-.49 0-.6-2.234-.38-3.16.217-.926.87-5.012.762-5.938-.064-.54.763-.11.708.817-.054.926.11 2.887.327 3.596.22.71.6 2.398.382 2.834z" />
    <path
      d="M112.92 29.31c.54-.598 4.577.163 6.212.49 1.634.327 2.724.163 2.887.872s-.328 5.666 0 7.246.435 10.188.38 11.876c-.054 1.69-.763 8.662-.763 9.915 0 1.252.218 7.245 0 8.28-.218 1.035-1.035 2.778-.926 3.65.11.872.382 13.456.11 14s-1.58.873-2.506.71-2.56.598-3.05.435c-.49-.163-.858-.623-.912-1.93-.054-1.308-.832-1.066-1.43-.685s-3.76 1.743-5.23 1.69c-1.472-.055-5.994-.11-6.484.053s-1.253 1.2-1.798 1.2-3.05-2.594-3.105-3.94-1.035-13.33-.38-17.907c.653-4.576-.11-17.264.217-19.54.436-3.033.38-10.805 1.307-12.657.925-1.853.598-4.85 1.633-4.904 1.035-.054 3.27 1.525 4.685 1.69 1.416.162 4.195.162 4.358.653.163.49-.763.925-.708 1.524.054.6.31 9.77.2 11.295-.11 1.524-.908 8.262-.745 10.44.163 2.18-2.234 20.213-2.452 21.193-.217.98.818.708 3.052-1.2s.91-4.99 1.584-6.972c1.14-3.35 1.658-4.167 1.82-6.237s-.19-6.51-.08-8.362c.108-1.85.895-8.008.925-10.132.03-2.077.204-4.494-.23-4.555-.66-.092-.417-2.287-.417-2.782 0-2.342.757-1.433 1.14-2.63.38-1.2.217-2.236.708-2.78z" />
    <path
      d="M184.94 16.307c2.216.408 4.07 1.857 5.594 2.2 1.525.343 3.707.42 4.576 2.013 1.743 3.196 1.017 7.7 1.235 9.298.218 1.598.872 3.487.58 4.43-.29.945-4.865 3.986-5.955 3.923-.592-.033-1.233-1.14-1.526-2.796-.335-1.897-.267-4.45-.073-5.847.364-2.615-1.306-1.525-1.452-.654-.145.872-.72 12.872 0 15.036.363 1.09 1.005.412 2.022 1.356s3.426 3.582 3.498 4.89c.073 1.307.872 10.605.58 12.712s.292 2.76.22 4.14c-.074 1.38-.31 9.275-.146 10.533.218 1.672 1.162 2.757 1.162 3.415 0 1.17-1.374 2.24-3.08 3.546-1.554 1.19-3.965 2.702-4.692 3.355-.726.654-1.598 2.107-2.107 2.107s-1.453-1.307-2.542-1.89c-1.09-.58-2.278-.43-3.05-.96-1.454-1-2.316-3.18-2.607-4.85-.29-1.67-1.69-3.596-1.1-6.683.53-2.772 1.386-4.488 2.188-4.488 1.416 0 3.44-1.102 4.385-.847.943.255 1.998.83 1.998 2.43 0 1.597 1.756 5.612 2.197 5.61.436-.002.516-.46.52-1.538.006-2.403.807-6.073.55-7.996-.435-3.268-1.677-3.784-2.94-5.81-2.47-3.96-5.58-9.77-5.485-14.818.145-7.7.436-6.9.436-11.767 0-5.6.575-11.708.872-12.893.436-1.743 1.38-2.506 1.67-4.03.294-1.527.86-3.42 2.473-3.125z" />
    <path
      d="M62.69 20.484c.427-.626 3.324.054 4.196 0 .872-.054 3.904-.69 4.195.218.17.53-1.198 4.086-.653 4.358.545.272 1.588-1.42 2.18-1.307 1.737.327 1.524 3.868 2.287 3.977s3.65-1.035 4.685-1.416c1.034-.38 3.213-2.342 3.92-2.315.71.026 4.633-.248 5.068 0 1.2.68.98 3.638 1.2 4.747.217 1.11-.055 3.996.544 4.16.6.162-.054-2.07.763-2.18.817-.11 1.144.89 1.362 2.188.218 1.3-.545 2.062-.49 2.88.054.816.926 6.59 1.035 8.552.11 1.96-.163 5.152.49 7.615.654 2.463.872 7.57.872 8.584s-.218 16.578-.163 18.267c.055 1.69 0 3.854-.49 4.36-.49.507-2.668 1.324-3.704 1.324s-4.195.272-5.12.49c-.927.218-1.296-1.752-1.472-2.887-.49-3.16 0-13.347-.11-15.526-.108-2.18-1.58-6.047-1.36-8.172.217-2.125 1.09-9.534 1.198-11.713.11-2.18.054-9.37-.327-9.535s-1.743.38-1.907 1.416-.694 11.113-.654 13.784c.11 7.19-.98 11.277-1.035 12.476-.055 1.2-.818 6.156-.682 8.226.136 2.07-.027 9.556-.572 10.117-.545.56-2.288 1.63-3.378 1.83-1.09.202-5.012 1.183-5.502.91-.49-.272.436-1.307.6-1.69.162-.38-.328-1.58-.11-2.124.218-.546.6-1.635.6-3.215 0-1.58.162-4.03.49-7.082.326-3.05-.22-7.25-.328-9.89-.11-2.64-.11-11.574-.163-14.952-.054-3.377-.545-6.81-.98-6.536-.437.272-1.908 6.646-2.18 7.845-.272 1.198-.654 3.58-.6 4.84.055 1.26-.49 5.495-.435 7.437.054 1.942.926 7.662.817 9.133s-.327 7.518-.272 8.88c.054 1.362-.11 2.833-.817 3.378s-2.887.894-4.304 1.237c-1.416.343-4.598.833-4.996.724-.397-.11-1.333-1.182-1.106-2.725.545-3.705 1.907-6.973 2.016-8.662.11-1.69.327-12.476.654-14.437.327-1.96 1.362-5.666 1.525-7.9s1.743-9.315 2.07-12.965c.327-3.65.218-15.364 1.144-16.726z" />
  </g>
  <g class="raimundos__foreground" fill="#FFF">
    <path
      d="M122.945 17.324c-2.397.6-10.35 2.016-12.694 1.96-2.342-.053-8.552-.377-9.86.003-1.307.38-2.887 1.088-4.794.598-1.907-.49-5.993-1.286-7.482-1.197-1.49.09-4.03-1.218-5.738-1.11-1.707.11-6.61.073-7.627-.254-1.018-.327-5.92-1.2-6.938-1.816 3.487.182 8.79.472 10.86.218 2.07-.254 9.26-1.162 10.895-1.017 1.634.144 8.935.834 10.533.943 1.598.11 9.66-.182 11.26.073 1.597.254 9.587.872 11.585 1.598z" />
    <path d="M75.392 8.48c.103.043.35.305.35.388 0 .064-.362.162-.4.15-.05-.015-.057-.583.05-.538z" />
    <path d="M77.684 9.17c.03.054-.376 1.126-.438 1.126-.063 0-.64-.963-.59-1.02.05-.057.965-.22 1.028-.107z" />
    <path
      d="M76.193 9.52c.09.007.626.952.664 1.027.038.075-.276.514-.332.526-.046.01-.51-.04-.704-.076-.24-.046-.354-.162-.44-.275-.09-.113-.214-.814-.176-.877.037-.062.827-.338.99-.325z" />
    <path
      d="M76.38 11.486c.124.015-.266 1.766-.352 1.816-.086.05-.55.075-.562 0-.013-.075-.314-1.64-.27-1.754.045-.112.885-.1 1.185-.062z" />
    <path
      d="M74.502 10.22c.042.068.175.59.1.615s-.463-.118-.49-.175c-.04-.09-.09-.315 0-.363.08-.04.34-.157.39-.076z" />
    <path d="M95.542 6.156c.14.082.654.545.627.68-.028.137-1.172.055-1.254 0-.082-.053.413-.804.626-.68z" />
    <path
      d="M96.795 5.61c.122.06.436.3.545.382.11.082.19.79.19.79s-.517.176-.626.13-.815-1.03-.734-1.11c.08-.082.417-.293.625-.19z" />
    <path
      d="M120.04 11.04c-1.09-.616-1.817-.217-3.197-1.815-1.38-1.598-4.903-2.906-6.392-3.378-1.488-.472-3.63-.363-5.483-.69-1.852-.327-5.884-1.344-6.828-1.562.035.508.18 1.743-.11 2.433 1.525.69 3.414 2.833 3.16 3.087s-1.625-.5-2.352-.536c0 .695.5 2.06.245 2.06-.254 0-1.89-1.67-2.65-2.76-.473 0-2.543.182-3.38.182-.834 0-1.16-.254-.725-.508.436-.254 1.525-1.27 2.65-2.18-.326-.362-1.125-1.633-.834-1.78.29-.144 1.49.69 2.18 1.2.398-.145.907-1.017.98-1.49-.327-.072-3.05-.108-3.845-.217-.795-.11-7.85 1.162-8.904 1.126-1.053-.036-8.826 2.87-9.697 2.906s-.328 1.16-.655 1.524c-.327.363-2.897 1.507-3.55 1.653-.655.145-1.343 1.43-6.173 3.354 1.38-.144 8.997-.357 10.377-.357-.01-.518-.128-1.444-.428-2.043-.327-.027-1.716-.545-1.716-.735s1.253-.817 2.043-1.238c.053-.258.162-1.54.326-1.595.163-.054.9.654 1.09 1.09.272 0 2.07-.136 2.097 0 .027.136-.436 1.117-.817 1.934.11.272.708 1.008.572 1.17-.136.164-.436 0-.926-.135-.027.164-.272.873-.3 1.28.272-.026 6.92.128 8.99.128s7.045-.4 10.24-.472 8.718.4 13.33.545c4.613.146 12.494 1.49 16.38 2.253-1.308-1.563-4.613-3.814-5.703-4.432zm-4.695.755c-.11.054.082 1.17-.027 1.226s-1.47-.816-1.607-.843c-.135-.027-1.415.904-1.633.847-.218-.057.21-1.8.32-1.964.108-.163-1.11-1.335-1.083-1.444.027-.11 1.698-.033 1.833-.09.28-.117.467-1.702.903-1.647.223.027.923 1.397.996 2.145.027.275 1.96.272 2.07.463.108.19-1.662 1.252-1.77 1.307z" />
    <path d="M114.02 8.78c.054-.005.526 1.008.526 1.08 0 .073-.663.082-.745.064-.08-.018.13-1.135.22-1.144z" />
    <path d="M115.218 10.75c.018-.062.645 0 .663.055.02.054-.544.41-.58.39-.037-.018-.1-.38-.082-.444z" />
    <path d="M113.084 9.98c-.007.03-.245.644-.3.626-.054-.018-.527-.536-.527-.58 0-.047.838-.1.827-.047z" />
    <path d="M112.884 11.25c.047.027.645.5.654.563s-.817.263-.867.227.144-.83.214-.79z" />
    <path
      d="M113.538 10.342c.09-.003 1.17.027 1.235.064.064.036.11.746.118.79s-.744.3-.807.29c-.064-.008-.8-.48-.772-.525.028-.046.183-.617.228-.618z" />
    <path d="M114.827 11.75c.004.027.036.316 0 .294-.036-.023-.327-.144-.327-.147s.32-.196.327-.148z" />
    <path
      d="M53.32 24.624c.142-.337 2.54-.54 3.017-.343 1.053.437.997 1.96 1.942 2.36.78.33-.237 3.868-.183 4.576.054.708-.418 2.125-.8 2.07-.38-.054-1.034-1.144-1.688-1.144s-1.526.545-2.29.11.11-3.978 0-4.74c-.108-.763-.27-2.234 0-2.888z" />
    <path
      d="M56.317 40.15c.11.49.078 7.634 0 9.1-.218 4.085-1.907 4.466-1.96 6.373-.055 1.907 0 8.28-.328 10.732s-2.07 11.767-2.235 12.53c-.163.763.007 1.253-.786 1.307-.794.054-2.81.218-3.464 0-.654-.218-.204-.614 0-1.634.708-3.54.38-6.428.654-7.355.272-.926 1.58-6.102 1.743-9.643.163-3.54-.433-6.897.054-7.79 1.01-1.852.824-3.977 1.01-4.903.188-.926 1.26-4.122 1.37-5.32s.18-3.506.235-3.778c.054-.273.272-.49.926-.49h2.25c.42 0 .5.486.53.87z" />
    <path
      d="M158.22 42.548c.41-4.03.354-14.437.354-17.597s-.114-5.903-.708-5.828c-.872.11-3.105-.436-3.54-.6-.437-.162-.873.982-1.036 1.53s.054 12.418.11 13.888c.053 1.47.63 4.71.435 7.19-.136 1.744.836.754.8 2.92-.025 1.622-.937 5.047-1.336 5.507-.473.545-.61 1.76-.61 2.524s-.268.956-.798 1.11c-.775.222-.145 1.942-1.925 2.05-.985.06-2.67-3.813-3.105-3.92-.436-.11-1.47 4.03-1.96 6.155s-1.417 5.61-1.8 9.86c-.38 4.25 1.472 7.955 1.526 11.153.054 3.198-.218 7.916 0 8.243s3.596.873 4.03.873c.437 0 .927.38 1.254-.763.573-2.005 3.16-6.646 4.03-6.646s-.217 8.448.655 8.444c.33 0 2.506-.49 2.698-1.362.192-.872-1.39-9.752-1.28-15.417.065-3.433.707-9.916.87-12.368s.926-12.913 1.335-16.944zm-5.348 34.957c-.156.68-1.388 1.862-2.628 3.123-1.15 1.17-2.305 2.45-2.62 2.397-.654-.11-1.035-2.866-.817-4.538.218-1.672.38-15.555.327-16.867-.054-1.312-.163-2.783.38-3.165.546-.38.982-1.2 1.744-1.144.763.055 1.852 2.235 3.105 2.344.633.055.872 2.887.926 3.65.054.763-.12 12.894-.418 14.2z" />
    <path
      d="M43.086 44.182c-.157-1.416-.933-3.705-1.097-4.522-.164-.817-1.363-1.907-1.853-2.452-.49-.545-.708-3.432-.763-4.304-.054-.872-1.253-5.884-1.362-6.7-.11-.818-1.47-2.888-1.69-3.978-.217-1.09-.598-.654-1.252-.708-.654-.054-1.58-.38-2.07-.436-.49-.054-1.035 1.743-1.525 3.12s-2.615 4.234-3.16 4.542c-.347.196-.178 1.207-.272 2.716-.054.863-.332 1.978-.49 2.97-.175 1.092-.253 2.108-.082 2.64.256.796.628 1.01 1.227 1.01 1.312 0 3.922-3.978 4.304-4.087.382-.11 1.607 2.115 1.712 2.885.14 1.04-.523.293-.676 1.764-.153 1.47.95 2.034.95 9.19 0 2.615.03 3.377-.95 3.595-.98.218-3.487-2.234-4.195-2.288s-3.16 4.357-3.486 4.902c-.327.545-.163 1.416-.327 6.21s.944 13.112 1.435 14.856c.49 1.743.962 4.54 1.017 5.195s2.287.994 2.505.45c.218-.544 1.852-5.028 2.28-6.28.43-1.254 2.09-2.303 3.058-2.56 1.562-.42 1.09.544.763 1.524-.327.98-.654 4.304-.272 4.74s2.104.85 2.288-.272c.478-2.903 1.852-9.37 2.016-11.005s.037-3.963.182-4.988c.4-2.833 2.215-5.326 2.597-9.503.195-2.142-.655-6.81-.81-8.228zM35.78 65.266c-.655.872-2.888 2.778-2.997 3.76-.11.98-.977 2.087-1.907 2.015-1.394-.108-1.353-2.01-1.38-3.595-.033-1.89.288-2.594.472-4.213.108-.948.033-2.003.363-2.686 1.09-2.253.328-4.65.6-5.358.272-.708 1.308-2.56 1.852-2.397.576.174 2.56 1.09 2.56 2.126s.218 7.028.436 7.736c.22.707.655 1.742 0 2.614z" />
    <path
      d="M193.15 21.392c.666.492 1.525 3.632 1.38 5.666s.468 3.922.016 4.286c-.452.363-2.413 2.76-2.776 2.47-.363-.29 0-1.96 0-2.906s-.29-5.157-1.162-5.666c-.872-.508-3.4-.58-4.133-.436-.734.145-1.386.18-1.606 2.81-.618 7.396.507 10.483.507 11.936s.11 5.448.872 6.755c.762 1.307 4.79 5.182 4.957 6.428.272 2.034-.272 10.57.054 12.258.328 1.69.71 6.102.764 8.117.054 2.016-.11 8.535-1.674 9.63-2.76 1.932-3.718 3.935-4.59 3.935-1.762 0-2.997-2.533-5.558-3.648-1.81-.79-1.043-3.576-1.297-4.502s-1.046-1.983-.937-2.527c.11-.545 1.416-3.705 2.397-3.65.98.054 2.58-.472 2.615.926.024.927-.317 4.64.282 5.404.6.763 1.57 1.08 1.788 1.68.218.598.287 1.906 1.424 1.47 1.137-.436 2.39-2.886 2.5-3.922.108-1.036-.146-4.34.4-5.485.544-1.143.617-5.95.09-7.753-1.416-4.85-5.484-9.6-5.993-10.896-1.198-3.05-1.47-11.984-1.306-14.545.163-2.56.272-10.732.926-13.184.654-2.45 1.253-5.61 2.125-5.556.872.054 2.18.545 3.16.49.98-.054 3.94-.2 4.775.418z" />
    <path
      d="M175.95 23.426c-1.04-3.05-4.483-5.287-6.335-5.194-.972-.097-2.833.835-2.615 2.25.15.98-1.36 9.19-1.36 12.677 0 2.4-1.618 9.15-2.127 11.337-.508 2.186-.654 7.112-.654 8.622s-.51 2.63-1.09 2.775c-.582.145.1 5.306-.582 9.516-.445 2.75 1.162 16.417 1.307 18.96.145 2.542 2.324 3.123 3.705 3.123 1.38 0 3.414-1.307 3.567-2.324.153-1.018.937-2.107 1.663-2.98.726-.87 2.288-9.406 2.615-14.527s.654-12.42.436-15.58c-.217-3.16.277-8.5.982-10.352.384-1.008 1.102-5.554 1.235-9.878.11-3.612-.275-7.038-.748-8.426zm-4.52 19.4c0 .442.11 9.546 0 11.834-.108 2.288-1.797 15.78-2.287 19.267s-1.525 9.1-2.778 9.1c-1.253-.002-2.942-8.228-2.615-12.096s.763-7.092.654-9.73c-.11-2.636.545-7.975 1.634-9.664 1.09-1.69.58-8.244 1.07-10.968.49-2.724 1.923-10.46 2.66-10.533.715-.07 2.1 2.87 2.1 6.465 0 5.53-.437 5.427-.437 6.326z" />
    <path
      d="M140.323 24.08c.798.184.163 2.67.272 4.522.11 1.852-.192 9.43-.064 11.277.21 2.995-1.352 6.754-1.352 7.953 0 1.2.8 21.846.78 24.352-.017 2.506.247 5.212-.526 5.72-.75.495-1.834 4.467-2.488 4.467s-.6-4.03-.708-6.374-.49-6.973-.545-7.573-.87-1.743-.762-2.506c.11-.764.763-1.526.926-2.398s-.218-5.344.218-6.213c.436-.87.872-5.01.654-6.917s2.478-10.57 1.103-11.386c-1.376-.817-3.065.218-3.664 1.09-.6.872-3.214 4.01-3.705 4.4-.49.394-1.143 7.024-1.143 9.075 0 2.05.545 6.4.545 7.63 0 1.23-.436 3.792-.272 4.88.163 1.09.763 7.3.654 8.445-.11 1.144-1.96 5.557-2.615 7.41-.655 1.85-.437 3.744-.764 4.023s-1.144 1.26-1.47.77c-.328-.49.324-4.952-.057-6.37-.382-1.415-.353-7.994-.27-10.307.126-3.59 1.434-10.672 1.58-13.777.09-1.96.544-15.254.49-16.18-.055-.926-.764-1.743-.6-2.887.163-1.145.817-3.65.872-5.34.054-1.69.817-3.977 1.035-4.794s.763-.545.926-.163c.163.38-.817 6.537-.272 6.592.546.054.927.436 1.744-.327s5.803-7.56 6.265-7.79c.737-.37.925 0 1.633-.218s.872-1.254 1.58-1.09z" />
    <path
      d="M20.143 71.367c-.054-1.2-1.035-4.85-1.743-6.374-.708-1.525-1.416-5.175-1.793-6.21-.376-1.036-1.04-1.8-1.04-2.344 0-.546 1.58-1.853 2.07-2.344s3.214-6.374 3.214-7.355.646-3.09 1.19-3.745c.546-.654.33-2.264.5-3.445.163-1.144.872-2.397.926-3.1s-1.743-4.582-2.343-5.78-1.416-1.58-2.016-2.234c-.6-.654-.545-2.546-2.5-3.977-.904-.662-3.11-.764-3.983-.873s-1.892-.303-2.397 0c-.355.213.11 2.67-.218 5.585s-1.2 1.77-1.036 4.93c.163 3.16-.926 8.88-1.253 11.896-.326 3.016-.49 9.296-.87 12.728-.38 3.434-.817 10.57-1.47 12.322-.654 1.75.018 6.875-.036 8.564s-.252 2.58.745 2.052c.654-.346 4.848-.327 5.01-.545.164-.22-.653-6.157-.924-6.974-.27-.817.27-6.21.053-7.3-.22-1.09.27-4.03.816-4.03s1.525 1.58 2.125 2.668c.6 1.09 1.635 4.63 2.18 6.483.545 1.852 2.833 6.21 3.378 7.082.545.87 1.416 3.16 2.016 3.104.6-.054 2.506-3.105 2.506-3.705s-1.09-1.254-1.307-2.398c-.22-1.144-1.745-3.486-1.8-4.685zM13.878 51.96c-.272.94-.944 1.03-1.035 2.573-.055.93-1.362 2.413-1.798 2.378-.436-.034-.6-2.538-.38-4.255.217-1.717-.055-7.215.435-9.832.49-2.617-.218-4.088-.11-6.976s.243-4.425.298-5.08c.054-.653-.836-1.04-.623-1.35.28-.406 1.267-.745 1.723-.672.456.073 1 .073 1.546.673.545.6 2.516 1.362 2.675 1.907.157.545.157 1.852.484 2.67.327.816 1.035 2.614 1.253 3.65s.327 3.867.272 4.793c-.055.926-.22 4.63-.655 5.393-.436.764-1.525 2.522-1.907 3.086-.382.566-1.907.107-2.18 1.045z" />
    <path
      d="M66.614 22.264c.8 0 1.235.8 1.2 1.453-.037.654-.903 4.93-.6 6.174.38 1.563 3.977-2.25 4.558-2.178.58.073 1.388 4.65 2.292 4.867.904.217 1.066-1.962 1.966-2.18.9-.218 2.425-.344 4.314-1.225 1.89-.88 3.705-2.656 4.65-2.625 2.178.073 2.033 4.76 2.614 6.74.58 1.977 2.77 7.17 2.77 9.205s.28 12.164.717 14.417c.436 2.253.8 12.64.8 15.182s.507 8.24-.364 8.66c-.87.42-2.396-.13-2.832 0-.436.13-1.307.93-1.816.638-.508-.29-.755-6.318-.726-8.208.073-4.72-1.307-7.41-1.453-8.426-.145-1.017.145-9.3.436-13.84.29-4.537.507-16.628.144-17.63-.363-1-1.453-.78-2.324-.49s-1.816 1.597-2.18 1.67c-.362.073-1.377-.218-1.45.944-.075 1.162-.874 2.107-.946 3.05s-.218 11.187-.363 13.003c-.144 1.816-1.452 9.37-1.452 12.13s-.58 15.4-.726 16.272-.562 1.307-1.044 1.307-2.153.25-2.298-.42c-.145-.67.58-8.08.508-10.112-.073-2.034-.508-9.144-.436-15.177s.58-17.29-1.598-17.546c.218-1.466 0-1.255-.19-1.745-.192-.49-1.635-1.662-1.853-1.58-.217.082-1.497 1.484-1.497 1.86s.38 1.028.272 1.354c-.11.326-.58.217-.726.834s-2.8 9.056-3.197 12.748c-.8 7.445-.11 16.707-.218 18.196-.11 1.49-.472 5.593-.327 6.864.145 1.27 0 3.414-.654 3.56-.654.144-3.596.69-3.995.47-.4-.217.362-1.997.58-4.503s-.218-4.36-.036-6.175 1.49-6.05 1.525-7.892c.035-1.842-.146-7.943.4-10.74.544-2.797 2.505-8.97 2.868-11.005.363-2.034.872-7.736.69-10.133-.182-2.397-.58-5.345-.4-5.832s.545-1.83 1.162-1.94c.616-.108 1.234 0 1.234 0z" />
    <path
      d="M114.718 31.216c.48-.087 1.307-.054 2.18.49s2.342.49 2.505 1.035c.163.546-1.035 8.718-.872 10.95s1.308 16.19 1.2 17.93c-.11 1.737-1.2 8.656-1.307 10.672s.708 4.195.654 5.448c-.054 1.253-.163 6.537-.98 6.537-.818 0-2.344-2.67-2.507-4.85s-1.144-2.777-1.47-2.668-.655 2.178-.437 3.16c.218.98-.6 2.396-1.47 2.45-.873.055-1.962-.053-2.78.328-.816.38-1.306 1.035-2.396 1.144-1.09.11-5.34.763-6.21-.272-.873-1.035-2.725-6.864-2.562-9.588.163-2.724-.38-10.623.327-11.114.708-.49.926-8.008.6-10.57-.328-2.56-.055-8.716.217-11.276.27-2.56.49-7.518.49-8.553 0-1.036.326-.927.762-.764.436.163 3.323.436 3.705.38.38-.053.763.055.654.927-.108.872-.162 5.884-.435 7.246-.272 1.36.763 9.366.545 11.574-.218 2.208-1.634 8.69-1.907 10.816-.272 2.125-.817 7.082-.545 9.316s-.163 5.96-.218 6.52c-.054.562.6.835 1.852.726 1.253-.11 2.778-.708 3.814-1.634 1.035-.926 3.868-4.086 3.977-5.23.11-1.144-1.144-1.035-1.035-1.798.11-.763.98-5.72 1.525-7.028.545-1.307 1.58-6.973 1.743-9.37.163-2.397-.218-9.697.218-11.767s-.327-7.41-.327-8.117c0-.71 0-2.962.49-3.052z" />
  </g>
</svg>
