<!--
  SVG Music Logos
  The Who v1.0.0
  https://github.com/tiagoporto/svg-music-logos
  Copyright (c) 2016 Tiago Porto (http://tiagoporto.com)
-->
<svg xmlns="http://www.w3.org/2000/svg" viewBox="0 0 200 200" class="the-who">
  <g class="the-who__symbol">
    <circle fill="#FFFFFF" cx="100" cy="100" r="70"/>
    <circle fill="#D00F14" cx="100" cy="100" r="35"/>
    <path fill="#004D9D" d="M100 1.5C45.6 1.5 1.5 45.6 1.5 100s44.1 98.5 98.5 98.5 98.5-44.1 98.5-98.5S154.4 1.5 100 1.5zm0 165.73c-37.13 0-67.23-30.1-67.23-67.23S62.87 32.77 100 32.77s67.23 30.1 67.23 67.23-30.1 67.23-67.23 67.23z"/>
  </g>
  <g class="the-who__text">
    <path d="M171.14 56.372V44.887l-14.4-14.438-14.736 15-.018 11.062L152.883 45.7v87.805c-5.495 0-8.827 2.606-8.827 6.747v24.18c.155 4.034 4.74 6.39 8.478 6.386l8.658-.007c4.915-.4 7.93-2.59 7.912-6.72v-23.87c-.662-5.03-3.754-6.24-8.48-6.71V45.706L171.14 56.37zm-10.526 106.526c-1.46 3.38-5.906 3.32-7.732-.02 0-7.185.004-14.424.004-21.584 2.484-3.384 5.942-2.647 7.738 0l-.01 21.604z"/>
    <path d="M41.643 169.777l-9.665-47.593h12.018l6.51 29.373 8.86-29.373h13.8l7.728 29.326 6.38-29.326h11.154l-9.83 47.593h-15.43l-7.705-29.42-8.72 29.42h-15.1z"/>
    <path d="M145.58 85.31V73.825c-2.882-11.91-22.41-13.082-25.647-.723v23.324c-.035 4.298 4.64 7.016 13.07 7.207 5.62-.296 11.64-2.258 12.523-7.207 0-1.867.033-3.767.033-5.634h-8.93l.004 5.16c-.517 2.41-6.8 3.22-8.258-.06V85.31h17.197zm-16.29-12.68c1.03-2.788 5.597-2.608 6.426.01v7.363h-6.426V72.63z"/>
    <path d="M101.23 62.796c-4.182-2.74-7.77-2.69-11.03 1.162v36.554H77.755l-.004-59.57H61.02l.003 59.57h-13.51V40.915h-16.03v-9H90.23l-.03 25.05c8.034-7.372 18.744-7.895 23.163 3.353-.025 27.596-.025 61.44-.025 63.662 4.725-4.726 10.09-5.324 14.96-4.584 3.69 1.778 5.944 3.76 7.102 8.63v41.75h-11.97c0-12.665-.005-25.33.024-37.998-1.56-5.222-8.556-3.403-10.115.898v37.1h-12.11V62.796z"/>
  </g>
</svg>
