<!--
  SVG Music Logos
  Alcatrazz - No Parole from Rock 'n' Roll v1.0.0
  https://github.com/tiagoporto/svg-music-logos
  Copyright (c) 2016-2019 Tiago Porto (http://tiagoporto.com)
-->
<svg xmlns="http://www.w3.org/2000/svg" viewBox="0 0 200 46" class="alcatrazz__no-parole-from-rock-n-roll">
  <path d="M47.971,1.944h-8.261L26.202,25.327h-14.6L9.01,30.12h21.082l4.503-7.795h7.522v9.818H7.85l-2.866,4.814 h42.99L47.971,1.944z M42.116,17.174H37.8l4.315-7.638V17.174z"/>
  <path d="M48.946 1.943L54.45 1.943 54.45 32.143 66.893 32.143 65.397 36.957 48.946 36.957z"/>
  <path d="M60.911 1.944L73.054 1.944 74.969 7.387 65.098 7.387 61.987 17.138 68.268 27.905 67.67 29.879 62.885 29.879 55.826 17.138z"/>
  <path d="M73.682,36.957h21.446L84.54,1.944h-6.371L65.876,39.122H3.782L1,43.941h68.734l7.268-21.616h8.345 l2.871,9.818H75.298L73.682,36.957z M78.503,17.295l2.772-7.759l2.444,7.759H78.503z"/>
  <path d="M87.322 6.857L87.322 1.944 104.55 1.944 104.55 36.957 99.166 36.957 99.167 6.857z"/>
  <path d="M110.965,32.143V17.117l7.861,13.003h5.835l-7.984-13.899l7.923-14.277h-18.671v35.013h19.224v-4.814H110.965 z M111.065,7.098h5.211l-5.211,9.117V7.098z"/>
  <path d="M147.456,25.138L133.65,1.944h-7.414l0,37.182H73.054l-1.672,4.815h60.097V22.304h8.26l4.582,7.816h3.859 l2.894-4.982H147.456z M131.479,17.33V9.536l4.623,7.794H131.479z"/>
  <path d="M137.853 6.989L137.853 1.944 152.691 1.944 152.691 6.989 145.488 19.398 142.495 14.538 146.53 7.813 146.53 6.989z"/>
  <path d="M132.927 31.422L137.542 23.18 138.796 23.18 141.185 27.361 138.425 32.143 147.158 32.143 144.35 36.957 132.927 36.957z"/>
  <path d="M157.549 30.12L160.357 25.27 188.07 25.27 190.997 30.12z"/>
  <path d="M153.966 1.944L168.957 1.944 168.957 6.989 155.16 32.143 192.072 32.143 195.058 36.957 145.904 36.957 162.687 7.813 162.687 6.989 153.965 6.989z"/>
  <path d="M132.927 43.941L132.927 39.034 196.262 39.034 199 43.941z"/>
</svg>
