<!--
  SVG Music Logos
  Anthrax - Sound of White Noise v1.0.0
  https://github.com/tiagoporto/svg-music-logos
  Copyright (c) 2016-2018 Tiago Porto (http://tiagoporto.com)
-->
<svg xmlns="http://www.w3.org/2000/svg" viewBox="0 0 200 82">
  <g class="anthrax__lettering">
    <polygon points="52.933 55.688 61.313 11.309 77.45 51.188 79.002 27.757 84.278 27.757 81.019 76.015 63.485 31.791 59.295 55.688 52.933 55.688"/>
    <polygon points="69.536 20.153 71.709 24.653 88.467 24.653 85.209 70.429 91.726 63.912 94.519 24.653 111.22 24.653 111.433 20.153 69.536 20.153"/>
    <polygon points="101.803 39.084 113.234 39.084 114.226 20.153 119.812 20.153 118.105 55.688 112.364 55.688 112.974 44.05 101.528 44.05 100.881 55.688 95.45 60.187 97.467 27.757 102.433 27.757 101.803 39.084"/>
    <polygon points="123.07 27.757 121.519 55.688 127.26 55.688 128.812 27.757 123.07 27.757"/>
    <polygon points="129.906 55.687 134.404 50.066 137.769 54.553 136.937 55.688 129.906 55.687"/>
    <polygon points="190.146 20.251 180.639 32.496 197.35 55.665 190.927 55.665 177.374 36.701 168.427 48.524 167.441 40.396 174.148 32.185 165.495 20.077 171.744 20.164 177.506 28.152 184.157 20.164 190.146 20.251"/>
    <path d="M162.457 20.077h-3.298l-19.84 24.063-3.68-5.056 9.931-11.327c3.479-3.846.761-7.959-2.948-7.603H122.76l-.155 4.81h16.914c.575-.05 2.143.471.352 2.419l-10.475 11.255 22.181 30.578 3.149-3.906-12.11-16.638 3.817-4.636h13.026l1.261 11.545h5.989l-4.252-35.504zm-12.171 19.01l7.57-9.722 1.062 9.722h-8.632z"/>
    <path d="M6.537 55.688h8.224L27.09 44.05h19.488l-2.179 11.638h5.586l9.155-50.12-52.603 50.12zm40.97-16.604H32.35l18.411-17.379-3.254 17.379z"/>
  </g>
  <g class="anthrax__shadow">
    <polygon points="2 57.427 59.683 2.685 59.374 4.113 4.308 56.579 14.92 56.579 14.022 57.427 2 57.427"/>
    <polygon points="49.79 56.579 49.635 57.427 42.231 57.427 44.41 45.789 26.546 45.789 27.444 44.941 45.503 44.941 43.324 56.579 49.79 56.579"/>
    <polygon points="50.764 57.427 59.906 9.006 60.543 10.579 51.857 56.579 59.1 56.579 58.951 57.427 50.764 57.427"/>
    <polygon points="75.926 45.044 77.074 27.713 78.111 27.713 76.817 47.246 75.926 45.044"/>
    <polygon points="80.758 77.776 80.55 79.981 63.544 36.896 63.818 35.052 80.758 77.776"/>
    <polygon points="67.498 20.109 68.525 20.109 71.149 25.545 87.51 25.545 84.168 72.485 83.056 73.597 86.417 26.393 70.531 26.393 67.498 20.109"/>
    <polygon points="111.16 25.545 111.09 26.393 95.289 26.393 95.35 25.545 111.16 25.545"/>
    <polygon points="111.338 38.193 112.325 20.109 113.335 20.109 112.388 38.193 111.338 38.193"/>
    <polygon points="117.902 56.579 117.862 57.427 110.331 57.427 110.941 45.789 102.324 45.789 102.371 44.941 112.034 44.941 111.424 56.579 117.902 56.579"/>
    <polygon points="94.436 62.128 93.339 63.037 95.536 27.713 96.577 27.713 94.436 62.128"/>
    <polygon points="121.134 27.713 122.18 27.713 120.576 56.579 136.911 56.586 136.26 57.433 119.483 57.427 121.134 27.713"/>
    <path d="M129.178 36.25l8.428-8.825c.543-.513.513-.783.166-.721h-15.209l.027-.848h16.911c.824.032-1.277 1.987-1.455 2.178l-8.887 9.548.019-1.332z"/>
    <polygon points="138.793 41.917 157.056 20.033 158.039 20.033 139.363 42.685 138.793 41.917"/>
    <polygon points="166.731 56.47 166.833 57.318 158.958 57.318 157.697 45.774 146.156 45.774 146.854 44.926 158.659 44.926 159.921 56.47 166.731 56.47"/>
    <polygon points="151.137 69.901 150.303 70.821 128.922 41.203 129.043 39.67 151.137 69.901"/>
    <polygon points="128.14 55.097 133.211 48.806 133.832 49.422 128.089 56.587 128.14 55.097"/>
    <polygon points="197.389 56.557 198 57.405 190.029 57.405 176.656 39.005 177.344 38.193 190.469 56.557 197.389 56.557"/>
    <polygon points="167.744 49.644 167.047 50.895 165.646 39.641 171.992 32.073 163.348 20.019 164.367 20.033 173.02 32.141 166.509 39.923 167.744 49.644"/>
    <polygon points="177.115 26.056 182.193 20.114 183.033 20.12 177.556 26.698 177.115 26.056"/>
    <polygon points="156.934 38.195 156.43 32.722 157.208 31.648 157.924 38.195 156.934 38.195"/>
    <polygon points="45.832 38.193 48.245 25.307 49.38 24.235 46.767 38.193 45.832 38.193"/>
  </g>
</svg>
