<!--
  SVG Music Logos
  Saxon - The Eagle Has Landed - Eagle v1.0.0
  https://github.com/tiagoporto/svg-music-logos
  Copyright (c) 2016 Tiago Porto (http://tiagoporto.com)
-->
<svg xmlns="http://www.w3.org/2000/svg" version="1.1" viewBox="0 0 720 260">
  <g fill="#3f3f3f">
  <path d="M309.1,55.6c-16,3.5-26.9,15.7-16.2,29.9,1.1-7.8,8.2-16.7,28.1-16.4.7-3.4-6.5-4.2-11.9-13.6Z"/>
  <path d="M319.4,77.5c-3.5.9-6.8,2.2-10.8-.5,4.2-3.2,7.4-3,10.9-2.8,0,0,.6,1.1-.1,3.3Z"/>
  <path d="M400.5,112.1c-.8-1.9-4.9-10.7-6-13.2-1-2.1-2.4-4.6-5.2-7s-3.3-2.6.3-2,8,4.9,10.9,7.2c-5.4-12.5-9.2-21.9-14.2-24.2,0-.6,1.4-2.6,2.1-1.6.7,1,3.7,3.6,7.2,3.1-2-.6-4.7-4.2-5.7-5.3s-3.1-3-5-1.7c-1.4,1-3.5,3.2-4.9,3.6l-1.3-.8c2.5-1.8,11.2-9.5,12.5-11.9-2.5.2-8.3.6-11.1.6-2.6,0-1.9,1.7-5.8,3.5s-2.3.1-1.6-1.1,9-8.3,13.5-10.7c-1.8-.8-8.8-1.5-14.8-.5l.4-1.3c1.7-.2,3.3-.4,4.3-1.9,2.2-3.5,4.3-9.3,4.3-12.8-5.8,5.6-47.6,10.4-56.5,11.1-8.8.8-11.5,8.3-11.9,10.5.4,3,10.9,9.2,11.7,11.4.8,2.2.8,5.5.2,5.9s-1.1-.4-1.1-.4c-.3.6-2.4,3.2-.5,6.1,1.9,2.9,7.4,6,15.6,6s14.5-4.8,15.3-5.7c1.3-1.5.7-5.6,2.2-5.7s1.1,2.2,2,4.2,2.2,3.2,1.6,3.6c-.7.5-1.6-.2-2.7,0s-8.4,9.1-10,13.2c2.5-1.3,7.8-.8,9.3-1.9.5-.7.9-1.4,1.7-1.4s1.9,1,1.5,1.6-1.2,1-1.8,1.6-1.6,2.7-2.3,4.4-1.6,1-2.6.9c.4-1.1,1-2.7,2-4-3.2.5-6.5-.1-11.6,1.8,2.5-4.3,5.1-10.9,8-13.2-2.3,1.1-5.9,2.1-8.7,2.3-3.6,2.3-15.7,26.2-15.7,26.2,5.5-3.9,9.9-5.9,14.1-9.2l-.3,1.2c-1,1-2.3,2.2-3.8,3.1-4.7,5.6-9.2,16.5-10.3,20.3,3.9-3.7,9.7-7.4,12.8-10.7s2-.6,1.1.4c-.9.9-6.4,6.8-8.1,8.5-1.9,3.6-4.3,11-5.9,16,4-4,10.8-10.4,11.8-11.4,1.5-1.6,3.3-3.3,2.8-2-.5,1.3-4.5,7-11.1,13.6-1.3,3.6-3.2,13.2-2.9,14.8,2.4-1.8,11-10.3,11.2-10.5.2-.3,3.1-4.8,1.8-1.2-1.3,3.6-8.2,10.5-10.7,12.9-1,4.4-1.2,13.3-1.7,16.6,2-1.3,10.6-13.9,11.2-14.9.7-1,2.8-4.6,1.8-.8s-7.3,11.8-8.8,13c-.7,3.1-1.1,11.7-1.1,16.2,2.7-2.9,6.5-12.1,9.6-14.9l-.9,4.4s1.8-2,3.1-2.8c-1.7,5.9-7.1,11.8-9.5,14,.3,2-1.5,9.6-2,14.1,1.3-1.4,7-8.7,7.4-9.3.5-.7,7.2-5.1.7,1.5-6.4,6.6-5.2,12.3-5.8,15.8.5-.8,3.5-4.5,4.2-5.7,0,1.1,1.4,4.9,2.1,6,.5-1.2.9-3.7,1.9-5.8,0,1.1,1.4,4.7,2.6,5.8-.2-1.6.8-5.3.7-6.8s-.6-3.8-1.3-7.1c1,1.9,2.4,2.7,4.4,3-.5-1.7-.2-10-.5-10.9-.3-.9-.9-3.3,0-3,.8.2,2.2,1.9,2.4,4.7s3.3,10.6,3.4,8c0-2.5,3.9-6.7,5-11.8,2.4,4.3,1.7,9.5,3.5,11.8,0-3.4,5.8-9.3,5.6-10.8-.2-2.4,1.6-4,1.4-.8-.2,4.7,1.9,9.4,3.2,11.7.8-3.1,6.9-10.2,7.2-13.6.2,1.5,1.3,3.8,0,7.3-1.3,3.6-1,4.3-.7,6.6,0-2,3-4.9,3.5-6s1.2-5.4,1.6-1.4-2.4,5.4-3,7.6c-.6,2.3.6,5.3,0,8.8,1.1-1.4,2.4-5.5,3.5-6.8-.2,1.8,1.2,3.5,1.3,6.2.9-1.3,2.5-4.1,2.8-5.6.4,1,.9,4.6,1.6,6.7-.4-3,2.1-7,1.8-9.4s-2.9-4-2.5-7.7c.7,1.3,2.5,3.6,3.2,5.5.8-8.7-2.2-12.6-3.7-13.8-1.5-1.2-.9-2.1-.5-1.7.4.3,5,2.8,6.5,5,0-13.1-6.6-22.4-7.4-23.2-.8-.8-2.4-3.2.6-1.1,2.9,2.1,6.4,6.7,9,9.6-.4-9.9-5-18.4-7.7-21.5s-.3-1.6,1.1-1c2.1.8,3.4,4.8,6.5,8-.7-4.5-2.9-14.5-3.6-16-.7-1.5-4-6.3-6.8-7.7s-1.3-2.2.1-1.5c5.9,2.9,9.3,6.9,11.5,9.8-.6-5.3-5.4-20.2-9.7-23.8s-1.3-2.1.8-1.1,8.6,6.4,10.8,10c-.4-6.7-3.8-13.2-5.2-15.8-.3-1.9.3-4,1.2-3.9.7.8,2.4,2.3,5.1,4.4ZM337.2,57c-2.8,1.1-3.3,5.1-6.9,5.2-3.1,0-3.6-2.8-7.9-2.3,3.4-1.5,6-4.2,8.3-4.8,2.9-.8,7.5-.7,13,.1-4.3,1-3.7.7-6.5,1.8Z"/>
  <path d="M338,235.4c1.5,0,3.7.4,3.8,1.8s-1.1,5.4-1.9,6.4c-2-.9-4-4.1-4.1-5.9s.9-2.3,2.2-2.3Z"/>
  <path d="M356.2,229.8c1.6.6,4.2,5-.1,8.8.8-3.2-3.2-4.2-3.2-5.5s1.6-3.9,3.4-3.2Z"/>
  <path d="M318.9,239.9c0,.9-3.2,2.8-3.2,5.3-1.9-1.4-2.1-4.9-1.3-6.1s4.7-1.2,4.5.8Z"/>
  <path d="M340.1,215.3s.1,3.3,0,5.5c3.8,1,9.8,4.6,10.9,4.9,1.8.6,4.1-1,5.3,2.2s-2.1.2-3,1.2-1,2.8-1.8,2.8c-2.5,0-1.1-2.3-2.7-3.2s-7.8-4.7-9.2-5.2c0,1.7-.7,4.8.4,6.3s1.7,2.2,1.2,4.1-1.7-.7-3.8-.5-.9,1.3-1.7,1.9-1.2,0-1.5-.6c-.7-2.3,1.3-2.9,1.6-4.5s.5-6.9.5-6.9c-2.8.4-8.7,3.4-10.6,5s-1.1,6.6-2.3,7.9-2.9,3.2-4.4,1.4-3.2.6-4.6-.3,2.4-4.5,3.2-5.4,3.7-6.4,7.2-7.3,10.9-3.7,12-4v-3.2c.1,0,3.3-2.1,3.3-2.1Z"/>
  <path d="M386.6,213.8s-.1,5.4,0,6.1c1.8.3,6.1,1,7.2,2.1s7.2,3.7,7.6,4.9,1.6,2.3,2.7,2.9,2.1.9,1.7,1.8-1.8,1.1-2.4,1.3-1.6,2.5-2.3,1.6-2.1-3.9-2.8-4.6-8.3-7.7-9-7.3,2.1,4.8,2.5,5.4,3.7,3.7,3.1,4.2-2.7.7-3.4.4-3.2,1.1-3.7.7-1.1-2.1-.7-3.5-1.1-5-1.4-6.3-1.8-.3-2.4.7-4.4,3.8-4.8,4.4-.1,3.1-1.1,3.2-3.1.3-3.5-.8-4.9,1.4-4.8-.4,3.5-3.9,4.9-3.7,8.6-4.3,9.2-5.7.8-6,.8-6l2.6-1.4Z"/>
  <path d="M399.3,140.8s181.3-20.3,186.6-20.3-5.5,16.5-14.8,17.4-172.3,18.5-172.3,18.5c-.5-5.1-1.6-7.5-3.4-12.1,2,1.2,4.2,5.4,5.6,7.8-.1-3.7-.4-6.5-1.8-11.2Z"/>
  <path d="M480.5,149.9s6.8,8.5,8.8,11.2.9,1.5,0,2c-3.8,2-14.4,3.3-19-.8s-9.2-10.5-9.2-10.5l19.3-1.8Z"/>
  <path d="M458.7,152.3s15.8,18.6,18.6,21.4c-6,3.3-16.2,3-21.1-1.7s-15.8-17.8-15.8-17.8l18.4-2Z"/>
  <path d="M437.3,154.6s22.2,24.3,28.3,31.1c-5.2,3.9-15.5,5.4-22.4-1.6s-23.7-27.6-23.7-27.6l17.8-1.8Z"/>
  <path d="M416.5,156.9s27.3,32.1,33.5,39c-5.6,3.8-17.2,3.5-23.4-3.3s-26.8-30.6-26.8-30.6c0-1.7.2-3.8.2-3.8l16.5-1.2Z"/>
  <path d="M395.5,159.4l37.7,44.2c-2.8,1.3-13.9,4.5-20.2-1.7s-17.6-19.4-17.6-19.4c0,0,0-3.8-.6-7.1,1.9,1.6,2.6,4.4,3.9,7.1.4-8.1-3.2-23.1-3.2-23.1Z"/>
  <path d="M396.3,187.2s15.5,18.7,20.4,23.8c-7.2,4.2-17.1,3.2-22.7-3.5.9-6,0-11,0-14,1.4,1,2.2,2.4,2.8,4.5,1.5-2.8-.7-10.7-.7-10.7Z"/>
  <path d="M442.7,201s17.2,20.1,20,23.1c5.1,5.6-13.1,5.6-19.5-.4s-14.6-16-14.6-16c3.8-.3,6.8-1.7,8.1-3.3-.7-1.2-3.8-4.5-3.8-4.5,3.6,1.3,7.8,1.6,9.7,1.2Z"/>
  <path d="M425.8,208.5s17.8,20.4,19.9,22.6c6.2,6.6-14.1,5-20-.9s-12.9-15.4-12.9-15.4c2.7-.5,5.2-2.2,6.7-3.9-.8-1.6-2.9-4-2.9-4,2.9,1.2,6,1.6,9.2,1.6Z"/>
  <path d="M347.9,222.9s12.1-12.8,13.8-16c4.7,5.6,12.2,14.8,15,16.8,2.8-1.1,4.3-2.5,4.6-3.4s.1-8,0-8.8c-.8,2-3.1,3.6-4.4,3.8,1.1-2.2.4-8.2,1.2-10.5-1,1-3,2.4-3.3,3.9-.6-3.4-.3-8.1.5-10.5-2.3,2.5-5.2,6.4-5.6,8.3-.9-3.7-1.2-9.7-2.2-13.1-1.5,2.4-5.7,6.9-6.1,10.7-2.1-2-3.6-4-3.9-7.5-1.2,1.4-3.2,8.5-4.9,10.5-.3-2.4-2.7-6.6-3.1-7.6-.5,2-.8,10.4-1.6,12.6-.6-2.4-1.8-2.2-2.4-3.2,0,4.2-.3,8.1-.6,9.5-.7-1.5-2.2-1.9-2.9-2.6,0,1.2,0,3.6,0,4.3,1.4.6,5.3,1.5,5.9,2.8Z"/>
  <path d="M410.2,215.5s18.4,21.3,19.7,22.9c4.4,5.5-16.4,4.7-21.3-3.1.5-1.8-.8-2.7-.8-3,1.2-.8,1.5-2.4,0-3s-5.8-3.2-7.6-5.6-10-4.5-10.6-5.2-1.9-3.3-.3-5.2c.6.8,1.5,2.8,1.4,3.4.7-1.4-.2-3.8.1-5.2s1.4-2.3,1.4-2.3c3.8,4.8,10.9,6.8,18.1,6.1Z"/>
  <path d="M371.9,232.4c1.7-.2,2.1,1.4,2,2.2s-1.2,1.3-2,2.3-1.1,2.2-.8,3.2c-1.1-.7-2.9-7.3.8-7.8Z"/>
  <path d="M391,233.9c1,0,1.3.8,1.1,1.4s-1,.9-1.3,2-2,2.3-3,3.4c-.7-1.1-.9-2.1-.4-2.9s-.2-2.6.6-3.2,1-.8,2.9-.7Z"/>
  <path d="M405,233.9c1,0,3.8,1.9.7,7.2,0-2.1-.2-3.1-.7-3.4s-2.3-1.7-2.3-2.4.8-1.5,2.3-1.5Z"/>
  <path d="M393.5,226.8c.9.3,4.3,3.9,4.8,4.9s-2,1-2.2.7.2-.7-.2-1.3-4.2-4.9-2.4-4.2Z"/>
  <path d="M384.5,225.4c.5,0,1.5,2.9,1.5,3.8-1.6,0-3.3-.3-4.5-1.2.8-.7,2.2-2.6,3.1-2.6Z"/>
  <path d="M343.8,227.9l-1.6,1.8s-1.5-1.5-1.3-2.4c1.1,0,2.3-.2,3,.6Z"/>
  <path d="M333.9,226c.7,0-.3,3.7,0,4.2-2.8,1.9-6.4,3.9-8.1,4.2-.5,0-.3-1.8.2-2.7,1.2-1.9,6.6-5.7,7.9-5.7Z"/>
  <path d="M491.4,57.3c9.6-1,24.8-2.5,29.4-3s9-4.3,11.5-8.2,4.2-8.8,2.4-8.6-23.6,3.1-35.8,4.4-.9.3-.9.9c-.6,5.4-1.9,9.2-6.5,13.4s-1,1.3,0,1.2Z"/>
  <path d="M697.5,20.3c-1.9.2-84,8.8-158.1,16.7-1.5.2-1.8.5-1.9,1.4-.2,2.4-2.1,10.1-8.3,14.1s-.2.9.4.8c67.3-7,151.3-16.1,155.3-16.6,8.6-1.1,23.7-17.7,12.5-16.4Z"/>
  <path d="M484.2,58c3-.4,6.7-3.7,8.9-7.3s2-4.7,2.1-6.8.1-1.7-.7-1.7c-3.5,0-66.5,6.7-70.5,7.2-12.2,1.5-17.9,16.2-17.5,23.5.2,3.8-2.6,12.3-9.6,12.4,3.6,3.2,6.5,12.5,7.9,21-4-6.6-7.5-10.2-10.4-11.1,3.6,6.2,8.3,17.8,8.7,22.3-2.4-4.5-6.9-5.5-6.9-5.5l3.4,7.6c7.1-.1,11.3-9.8,12.3-16.8,14-1.5,21.1-13.6,22.9-21.5,15.2-1.1,19.8-13.8,19.5-20.3,0,0,25.3-2.6,29.9-3.1Z"/>
  <path d="M505.4,58.3c-28.4,3-49.2,5.1-49.2,5.1.7,5-2.6,12-8.8,16.1,0,0,40.1-3.8,44.4-4.5s8.6-4.2,11.6-8.1,2.8-5.4,3.3-7.6-.3-1.2-1.2-1.1Z"/>
  <path d="M681.3,40c-1.9,0-105.9,10.9-171.7,17.9-.4,0-.8.7-.8,1.2-.2,2.6-1.5,5.4-2.7,7.7s-3.6,5-6.3,6.8-.4.6.4.5c62.5-6.5,157.2-16.3,165.8-17.2,12.6-1.4,22.3-16.9,15.3-16.9Z"/>
  <path d="M478.2,79c-24.9,2.6-41.4,4.4-41.4,4.4-.8,6.2-5.7,13.5-10.8,17,0,0,30-3.2,35.5-3.7s12.7-4.7,15.5-9.2,1.8-4.9,2.4-6.9,0-1.7-1.2-1.5Z"/>
  <path d="M660.8,59.7c-3.6.4-112.9,11.9-177.7,18.8s-1.3.8-1.3,1.4c-.8,5.7-2.2,10.6-9.1,14.9s0,.7.8.7c63.4-6.7,165.3-17.3,172-18.2,13-1.7,20.6-18.1,15.5-17.5Z"/>
  <path d="M448.5,100.4c-21,2.2-35,3.6-35,3.6-.2,5.8-2.3,11.3-7,15.6,0,0,23.5-2.5,28.1-3,7.2-.8,14.9-9.8,15.2-14.9s-.5-1.4-1.3-1.3Z"/>
  <path d="M636.2,81.2c-3.5,0-119.7,12.2-182.9,18.8-1.5.2-1.7,0-1.6.9.3,1.6-.6,5-2.6,8.1s-2.6,3.8-5.8,5.8-.3.8.2.7c57.3-6.1,160.4-17,171.7-17.7,15.6-1,28.1-16.8,20.9-16.6Z"/>
  <path d="M609.2,100.4c-2.8.3-125.2,13.4-181,19.4-1.3.1-1.5.6-1.5,1.3-.2,6.1-2.2,10.1-6.3,13.3s-.1,1.1.1,1.1c49.1-5.3,164.2-17.5,174-17.9,8.2-.3,23.4-18.1,14.5-17.2Z"/>
  <path d="M422.5,120.5c-13.6,1.5-21.1,2.5-21.1,2.5,0,0,1.4,7.6.2,11.3-2.6-5.3-5.3-7.8-7.2-8.8,1.7,3.8,3.5,8.8,4.1,12.5,0,0,6.2-.8,12.1-1.4s8.7-3.1,11.1-6.2,3.1-7,3.1-8.8-.6-1.2-2.4-1Z"/>
  <path d="M323.9,140.3s-184.3-16.2-189.8-16.7c-9.7-.9,6.4,16,15.1,16.7,12.5,1,175.4,15.4,175.4,15.4-.2-4.2.3-6.1,2-10.7-2,1.3-4.1,2.7-5.8,4.7,1.1-2.8,1.3-4.8,3.1-9.4Z"/>
  <path d="M243,150.8s-5.9,6.7-8.6,10-.7,1.1,0,1.7c1.5,1.4,3.9,2.7,6.7,3.2s8.1.3,10.1-1.6c4.3-3.9,10.4-11.8,10.4-11.8l-18.6-1.6Z"/>
  <path d="M264.8,152.8s-16.7,18.3-19.3,21.2-.9,2,1.1,2.5c5.4,1.3,16.3,1,20.2-3.1,5.5-5.8,16.4-19,16.4-19l-18.4-1.6Z"/>
  <path d="M286.3,154.6s-23.1,25.3-29,32.2c2.8,5.9,16.8,4.9,21.8-.7,5.7-6.4,25.1-30,25.1-30l-17.8-1.5Z"/>
  <path d="M306.4,156.9s-28.6,33.7-34.9,40.5c6,6.5,19.8,2.1,24.3-3.3s27.4-32.5,27.4-32.5c-.1-1.7-.2-3.8-.2-3.8l-16.5-.9Z"/>
  <path d="M326.5,160.8s-35.3,42.1-38,45.2c4.6,4.2,15.5,3.9,21.2-1.7,5.7-5.6,17.9-20,17.9-20,0-2.4,0-3.9.2-6.5-.8,1.1-2.7,2-3.6,2.8.5-7.9,1.4-12.3,2.3-19.8Z"/>
  <path d="M327.4,187.7s-17.2,20.5-22.1,25.6c6.8,6.8,19.8,3.9,25.8-5.5,0-.5-.2-1.1,0-1.7-.6,0-2.6,2-4.6,3.1.8-2.4,1.5-3.7,2.1-6.3s1-7.4.9-9.6c-.5,1-1.1,1.5-2.4,2.4.5-3,.7-5,.4-8.1Z"/>
  <path d="M282.7,201.6s-17.4,20-20.1,23.1-1.5,5.9,4.3,6.8,9.9-.7,13-4.1c5.7-6.2,14.2-16.8,14.2-16.8-4.4-.1-7.3-1.8-8.7-3.7,1.9-2.3,5.6-7.1,5.6-7.1-3.2,1.8-6.4,2.3-8.3,2Z"/>
  <path d="M296.6,211s-17.4,21.1-19.5,23.3-1.5,2.6-.4,3.1c7.2,3.7,15.5.7,18.9-2.8,6.8-7,13.4-16.4,13.4-16.4-3.1-.4-5.8-2-5.8-4.3s2.6-4.4,2.6-4.4c-2.9,1.2-5.9,1.4-9.2,1.5Z"/>
  <path d="M311.9,218.7s-17.7,20.5-19.1,22.1-2.2,3.6-.8,4c2.7.8,5.7,1.5,13.2.4,3.1-1.8,6.4-4.4,7.7-6.1-.5-1.8-.4-6,2.2-7.2s2.4-5.3,7.6-7.6,10.2-3.6,11.7-4.8.5-4.6.5-6.4c-.5.9-3.1,2.4-5.7,5,.4-2-.1-5.7-.1-5.7-3.7,4.8-9.9,7-17.2,6.5Z"/>
  <path d="M322,118.3c2.9-10.7,11-24.3,16.8-30.9-9.4-.5-15.4-2.8-18.6-8.1-4,2.1-13.6,2.5-18.9-2.3-3.5.8-6.8,7.4-7.4,12.1-15-11.1-7.5-31,12.3-34.6-2.4-2.6-5.6-4.5-9.7-4.9-3.9-.4-33.4-3.1-71.7-6.6-.9,0-.7.3-.7.8.3,8.5,6.4,15.6,14.8,16.6s22.3,1.7,22.3,1.7c-.3,12.8,10.1,19.5,24.6,20.3,2.7,10.7,7.6,17.8,23,18.8-.6,7.6,6.5,20,16.6,20,0,0,1.6-3.7,3.1-7.3-2.1.6-5.2,2.4-6.6,4.4Z"/>
  <path d="M201,56.8c7.5.7,20.3,1.8,29.1,2.6-5-3.2-8.1-9.9-7.9-15.4s0-1.1-1.1-1.2c-11.3-1-23.4-2.1-35.8-3.2-.6,0-.6.3-.5.8,1.4,8.6,8.9,15.8,16.2,16.5Z"/>
  <path d="M181.2,39.1C106,32.3,21.4,24.7,19.5,24.5c-3-.3-3.8.2-3.1,2.2,2.2,6.6,10.1,14.3,16.3,14.9,4.2.4,95.2,8.6,161.1,14.4-6-2.8-10-9.1-11.1-16s-.5-.9-1.5-1Z"/>
  <path d="M231.5,77c3.9.4,37.2,3.1,37.2,3.1-6.1-4.3-9.2-11.1-9-15.9,0,0-19.3-1.3-45.8-3.7.5,6.6,9.6,15.7,17.6,16.5Z"/>
  <path d="M209.6,59.9c-64.9-5.8-170.5-15.4-172.4-15.4-1.6,0-2.2.1-1.9,1.3,1.4,5.6,9,12.6,14.9,15,8.8,1.4,111.3,9.8,172.8,15.1-5.3-3-9.7-7.5-11.1-14.2-.4-1.8-.1-1.6-2.3-1.8Z"/>
  <path d="M257.2,95.9c5,.4,35.9,3,35.9,3-5.2-4.1-8-8.8-8.5-15,0,0-16.4-1.5-40.3-3.6s-1.5.4-1.2,1.4c1.6,6.2,6.8,13.5,14.1,14.1Z"/>
  <path d="M240.8,80.1c-64.9-5.8-179.1-15.9-182.7-16.3-1.3-.1-1.3.8-.8,2.4,2.4,6.4,11.7,14.1,22.4,14.6s108.9,9.3,169.9,14.5c-5.1-3.4-8-9.1-8.8-15.2Z"/>
  <path d="M265.3,99.9c-63.4-5.9-178.6-16.6-182.1-16.8-2.7-.2-2.6.3-2.2,2.3,2,8.7,13.2,15.1,22.9,15.7,11.4.7,115.7,9.9,172.8,14.9-6-2.8-10.6-9.3-10.4-14.7s-.3-1.2-1.1-1.3Z"/>
  <path d="M284.6,116.6c7,.6,30.1,2.5,30.1,2.5-4.5-3.1-8.2-9.6-8.5-15.4,0,0-14.6-1.4-36.3-3.4-1.1-.1-1.3.2-1.3,1.2.3,6.7,7.9,14.4,16,15.2Z"/>
  <path d="M292.9,120c-59.7-5.4-179.7-16.2-182.5-16.5-2.2-.2-3.4,0-2.7,1.6,4.8,10.6,15.3,15.9,21.5,16,10.1.2,126.8,10.8,175.1,15.3-7.2-4.1-10.3-9.7-10.8-15.6s-.2-.8-.7-.8Z"/>
  <path d="M321.1,134.8c1-4.6,2.3-8.6,3.8-11.1,0,0-.1-.5-1.6-.8-4.6-.4-14.5-1.4-26.6-2.5s-1.4-.2-1.1,1.1c1.3,6.4,7.8,15.1,16,15.6s12.9,1.2,12.9,1.2c1.2-3.8,1.9-5.6,3.9-9-2.8,1.2-4.3,2.9-7.3,5.5Z"/>
  </g>
</svg>
