<!--
  SVG Music Logos
  Van Halen - 5150 v1.0.0
  https://github.com/tiagoporto/svg-music-logos
  Copyright (c) 2016 Tiago Porto (http://tiagoporto.com)
-->
<svg xmlns="http://www.w3.org/2000/svg" viewBox="0 0 200 102">
  <path d="M120.476 58.66c21.482-3.087 42.128-7.066 57.988-16.164 1.915.846 3.775 1.782 5.11 2.628-16.482 8.817-38.69 12.26-63.098 13.536z"/>
  <path d="M117.432 66.778c26.883-3.32 52.166-8.024 68.788-19.788 1.836 1.208 3.225 2.537 3.805 3.987-4.58 3.958-16.384 8.205-29.41 11.102-15.893 3.534-32.68 5.13-43.183 4.698z"/>
  <path d="M111.667 2.98l-24.33 61.84 3.43 7.596 15.464-37.99 13.58.302-.342.723-12.706-.297-15.487 38.39 1.027 2.277 14.08-35.056 10.714.302L98.09 88.65l3.777 8.37c8.96-22.35 18.196-45.392 27.15-67.724 7.493.607 15.693 1.282 23.957 2.405 12.275 1.67 25.517 4.64 36.205 10.97 3.713 2.2 5.338 3.59 6.96 7.318 1.45-6.414-1.723-8.613-6.215-11.662-6.64-4.508-17.244-8.133-27.705-10.334-11.57-2.436-22.95-3.666-28.884-4.018l.23-.917-.592-2.366-1.07 3.21-.666-.022c.503-1.358.948-2.732 1.45-4.09 19.12 1.14 43.77 5.802 58.454 15.992 3.32 2.304 4.217 4.932 5.026 7.247.868-4.285.163-7.39-3.65-10.757-15.255-11.666-34.856-15.044-55.615-17.46l.21-.847-.59-2.366-1.017 3.05-.6-.067c.452-1.308 1.052-2.69 1.505-3.997 3.652.022 14.12 1.358 25.56 4.423 7.046 1.888 14.692 4.558 20.676 7.604 7.453 3.795 12.9 8.53 13.436 13.327.947-2.713.17-7.247-1.836-9.22-3.61-4.214-8.947-7.65-15.606-10.724-8.395-3.877-19.235-7.172-32.987-9.88-4.527-.605-8.96-1.302-13.77-1.718l-9.657 24.144-11.016-.3 4.527-11.468h4.225l2.187-5.882-5.96-.46-6.94 17.808-.906-.003L115.66 9.68l6.567.454 2.716-6.317c-4.188-.4-8.545-.71-13.276-.836z"/>
  <path d="M102.274 97.92c9.09-22.53 18.15-45.17 27.24-67.7 13.92.827 28.33 2.178 41.974 5.796 6.7 1.777 25.082 8.114 24.407 16.335-.668 7.348-10.855 11.263-20.84 14.994-20.144 5.922-40.605 8.378-61.55 8.687 20.37-2.36 40.496-5.338 58.72-12.53 6.88-2.932 14.12-5.437 17.704-11.665 1.35 4.205-6.012 8.68-15.094 12.885 4.556-1.675 17.282-5.893 16.452-12.56-.36-2.9-3.588-5.62-8.293-8.145-8.12-4.368-16.91-6.896-26.122-8.593-8.653-1.593-17.677-2.474-26.86-2.815L103.1 99.747l-.826-1.828z"/>
  <path d="M79.524 58.66c-21.482-3.087-42.128-7.066-57.988-16.164-1.915.846-3.775 1.782-5.11 2.628 16.482 8.817 38.69 12.26 63.098 13.536z"/>
  <path d="M82.568 66.778c-26.883-3.32-52.166-8.024-68.788-19.788-1.836 1.208-3.225 2.537-3.805 3.987 4.58 3.958 16.384 8.205 29.41 11.102 15.893 3.534 32.68 5.13 43.183 4.698z"/>
  <path d="M105.544 2.77l-21.33 55.036-11.53-25.31c-1.088.025-3.46.144-3.718.155-8.416.37-17.504 1.24-25.838 2.773-9.212 1.694-18.004 4.225-26.122 8.593C12.3 46.54 9.074 49.26 8.713 52.16c-.832 6.667 11.895 10.885 16.45 12.56-9.08-4.204-16.443-8.68-15.092-12.885 3.584 6.228 10.825 8.733 17.705 11.664C46 70.69 66.123 73.67 86.495 76.03c-20.945-.308-41.407-2.764-61.55-8.686C14.96 63.614 4.774 59.7 4.106 52.35c-.674-8.22 17.707-14.557 24.407-16.334 9.014-2.39 18.3-3.852 27.622-4.766 4.236-.415 8.528-.67 12.72-.93.385-.024 1.89-.115 2.768-.153-.122-.304-.285-.59-.407-.893-7.494.607-15.926 1.304-24.19 2.428C34.75 33.37 21.508 36.34 10.82 42.67c-3.713 2.2-5.338 3.592-6.96 7.32-1.45-6.415 1.723-8.614 6.215-11.663 6.64-4.508 17.244-8.133 27.705-10.334 10.577-2.226 20.994-3.446 27.237-3.908 1.256-.093 2.425-.3 3.683-.333l-1.787-3.922c-19.12 1.14-43.37 5.76-58.056 15.95-3.32 2.304-4.217 4.932-5.026 7.247-.867-4.285-.162-7.39 3.65-10.757C22.5 20.786 41.726 17.332 62.125 14.923c2.54-.3-1.014.147 2.443-.242l-1.9-4.167c-.57.003-.386.11-1.267.18-4.758.373-13.718 1.728-23.37 4.313-7.046 1.888-14.692 4.558-20.675 7.604-7.453 3.795-12.9 8.53-13.436 13.327-.948-2.713-.17-7.247 1.835-9.22 3.61-4.214 8.947-7.65 15.606-10.724 8.396-3.876 19.358-7.05 33.11-9.758 4.294-.72 8.838-1.423 13.647-1.84l15.943 36.15.27-.99-14.605-33.15L72.643 8.3l12.87 28.93 7.97-20.327-12.388.336-2.776-9.215 2.22 3.426 15.233-.61.332-.977c-4.95.154-10.098.375-15.537.693l-2.84-6.846c8.694-.72 18.307-1.035 27.816-.94z"/>
  <polygon points="84.659 58.784 85.86 61.42 105.919 9.878 105.735 4.807 84.659 58.784"/>
</svg>
