<!--
  SVG Music Logos
  Bruce Dickinson - The Best of Bruce Dickinson v1.0.0
  https://github.com/tiagoporto/svg-music-logos
  Copyright (c) 2016 Tiago Porto (http://tiagoporto.com)
-->
<svg xmlns="http://www.w3.org/2000/svg" viewBox="0 0 200 17">
  <path d="M183.046 2.35V1.92c.623.043 1.026.068 1.2.078.17.01.378.014.613.007l.897-.02c.42.526.908 1.086 1.47 1.677.568.59 1.198 1.23 1.896 1.906.702.677 1.094 1.062 1.186 1.154l6.155 5.842c.057-.87.085-2.187.085-3.954V6.6c0-1.073-.03-1.882-.078-2.423-.053-.54-.153-.944-.3-1.2-.145-.257-.334-.43-.573-.517-.236-.085-.635-.175-1.19-.267l.113-.292c.1-.013.27-.02.513-.02.214 0 .43.004.648.01.214.008.467.026.76.054.173.014.355.02.544.02h.46l1.324-.02.02.356c-.42.06-.72.16-.897.292-.182.132-.31.35-.388.655-.125.57-.214 1.69-.264 3.352-.053 1.66-.078 3.244-.078 4.748 0 .59.004 1.158.014 1.7.01.544.02 1.028.035 1.46.014.43.036.834.064 1.2l-.43-.02c-.48-1.037-1.926-2.68-4.34-4.923l-3.916-3.655c-.132-.096-.452-.385-.965-.866-.51-.48-1.155-1.083-1.935-1.806l-.135 6.398c-.036 1.314-.007 2.237.082 2.76.093.525.29.874.595 1.045.306.172.887.34 1.742.507 0 .146-.012.274-.04.385-.114 0-.445-.01-1.005-.04-.57-.028-.912-.042-1.033-.042-.11 0-.492.014-1.147.043l-.45.032c-.188.01-.43.028-.73.05-.095 0-.166-.018-.213-.057-.046-.04-.068-.103-.068-.192 0-.103.018-.167.053-.19.032-.02.11-.038.228-.052.306-.032.527-.09.663-.164.135-.078.246-.224.328-.438.085-.217.146-.56.185-1.03.037-.47.062-1.072.07-1.81l.06-4.98c.014-1.09-.004-1.902-.057-2.43-.05-.53-.207-.957-.463-1.285-.256-.33-.694-.526-1.314-.598z"/>
  <path d="M181.283 5.837c-.388-.87-.912-1.607-1.564-2.21-.656-.6-1.397-1.068-2.227-1.403-.826-.335-1.664-.502-2.515-.502-1.243 0-2.422.314-3.537.94-1.11.627-2.005 1.475-2.674 2.547-.673 1.07-1.008 2.24-1.008 3.504 0 .787.15 1.585.445 2.397.296.81.745 1.572 1.347 2.28.598.71 1.33 1.273 2.184 1.69.86.42 1.817.627 2.882.627 1.393 0 2.64-.32 3.74-.958 1.104-.642 1.963-1.504 2.583-2.584.62-1.083.93-2.248.93-3.49-.003-1.022-.2-1.97-.587-2.84zm-1.703 6.71c-.463.82-1.062 1.426-1.788 1.82-.727.393-1.485.59-2.28.59-1.072 0-2.087-.325-3.05-.977-.957-.648-1.723-1.517-2.293-2.604-.57-1.083-.856-2.237-.856-3.452 0-1.108.23-2.077.698-2.914.467-.834 1.083-1.468 1.845-1.902.766-.435 1.59-.652 2.465-.652.798 0 1.56.178 2.283.534.727.36 1.364.866 1.916 1.514.553.652.984 1.407 1.294 2.27.31.865.467 1.773.467 2.735.002 1.204-.233 2.215-.7 3.038z"/>
  <path d="M158.178 15.49l-.428-.02c.014-.97-.178-2.13-.574-3.488.167-.046.278-.075.335-.082.165.52.297.898.39 1.133.095.232.216.438.366.616.15.173.356.334.62.473.452.235.976.45 1.567.638.59.186 1.225.282 1.91.282.59 0 1.182-.146 1.777-.438.595-.292.894-.937.894-1.93 0-.503-.09-.934-.26-1.298-.175-.36-.403-.652-.684-.876-.28-.22-.61-.42-.983-.595-.37-.17-.85-.37-1.443-.595-.823-.3-1.5-.606-2.03-.915-.535-.313-.956-.702-1.27-1.16-.312-.46-.47-1.02-.47-1.68 0-1.05.386-1.926 1.16-2.624.772-.697 1.876-1.05 3.308-1.05.73 0 1.45.078 2.16.232.284.053.462.082.533.082.207 0 .417-.068.627-.207l.082-.043c.057 0 .125.014.21.043-.02.16-.043.317-.06.474-.015.158-.033.33-.05.518-.02.19-.033.335-.037.438-.007.103-.014.175-.02.21.088.84.13 1.3.124 1.375l-.313.022c-.057-.71-.288-1.268-.698-1.674-.414-.406-.874-.684-1.39-.83-.517-.146-1.008-.217-1.482-.217-1.154 0-1.92.3-2.29.902-.375.602-.56 1.172-.56 1.706 0 .563.14 1.033.417 1.404.28.374.627.666 1.04.876.413.214.997.467 1.75.76.847.33 1.527.64 2.044.922.512.28.97.688 1.378 1.222.402.53.602 1.19.602 1.977 0 .665-.17 1.267-.52 1.805-.35.534-.87.958-1.564 1.272-.698.313-1.55.47-2.558.47-.983 0-2.002-.142-3.06-.428-.185-.044-.303-.065-.342-.065-.18 0-.25.12-.208.366z"/>
  <path d="M140.72 2.35V1.92c.622.043 1.025.068 1.2.078.17.01.377.014.612.007l.898-.02c.42.526.908 1.086 1.47 1.677.567.59 1.198 1.23 1.896 1.906.702.677 1.094 1.062 1.186 1.154l6.156 5.842c.057-.87.085-2.187.085-3.954V6.6c0-1.073-.028-1.882-.078-2.423-.053-.54-.153-.944-.3-1.2-.145-.257-.334-.43-.573-.517-.235-.085-.634-.175-1.19-.267l.114-.292c.1-.013.27-.02.513-.02.213 0 .43.004.647.01.214.008.467.026.76.054.173.014.355.02.544.02h.46l1.325-.02.02.356c-.42.06-.72.16-.897.292-.182.132-.31.35-.388.655-.125.57-.214 1.69-.264 3.352-.053 1.66-.078 3.244-.078 4.748 0 .59.004 1.158.014 1.7.01.544.02 1.028.036 1.46.014.43.036.834.064 1.2l-.428-.02c-.48-1.037-1.927-2.68-4.342-4.923l-3.915-3.655c-.132-.096-.452-.385-.965-.866-.51-.48-1.154-1.083-1.934-1.806l-.135 6.398c-.036 1.314-.007 2.237.082 2.76.093.525.29.874.595 1.045.306.172.887.34 1.742.507 0 .146-.01.274-.04.385-.113 0-.444-.01-1.004-.04-.57-.028-.912-.042-1.033-.042-.11 0-.492.014-1.147.043l-.45.032c-.188.01-.43.028-.73.05-.095 0-.166-.018-.213-.057-.046-.04-.068-.103-.068-.192 0-.103.018-.167.053-.19.032-.02.11-.038.228-.052.306-.032.527-.09.663-.164.136-.078.247-.224.33-.438.084-.217.145-.56.184-1.03.036-.47.06-1.072.068-1.81l.06-4.98c.015-1.09-.003-1.902-.056-2.43-.05-.53-.207-.957-.463-1.285-.256-.33-.694-.526-1.314-.598z"/>
  <path d="M134.11 2.37v-.448c.788.043 1.28.07 1.472.085.71.025 1.186.04 1.432.04.082 0 .445-.015 1.083-.04.64-.03 1.243-.057 1.806-.085v.492c-.613 0-1.03.032-1.25.1-.224.064-.392.196-.502.392-.23.438-.345 2.11-.345 5.02 0 2 .004 3.27.007 3.803.004.53.014 1.1.036 1.705.014.484.053.83.114 1.033.064.2.235.353.513.452.278.1.727.157 1.347.16l-.043.41c-.097 0-.293-.007-.582-.018-.288-.01-.588-.018-.898-.025l-.712-.014c-.167-.004-.36-.007-.574-.007-.306 0-.563.004-.77.007-.202.004-.476.007-.818.014-.338.007-.648.014-.923.025-.274.01-.442.018-.495.018l-.02-.388c.75-.04 1.257-.128 1.524-.26.264-.132.445-.346.542-.638.14-.374.228-1.087.267-2.134.037-1.047.058-2.152.058-3.313 0-1.05-.036-2.56-.103-4.528-.02-.546-.075-.934-.164-1.166-.084-.235-.28-.406-.583-.517-.305-.11-.775-.17-1.416-.176z"/>
  <path d="M120.92 2.328l-.02-.363c1.14.053 1.97.082 2.482.082.51 0 .926-.014 1.25-.046.32-.03.627-.063.912-.1v.336c-.816.096-1.3.292-1.46.584-.065.132-.122.506-.168 1.122-.05.616-.085 1.282-.11 2.006-.025.72-.036 1.25-.036 1.59V8.78c.242-.217.67-.63 1.282-1.243l2.558-2.515c.73-.73 1.193-1.225 1.39-1.482.156-.182.238-.385.238-.616 0-.317-.342-.495-1.022-.53l-.02-.386 1.73.018c.705.02 1.446-.01 2.223-.103l.02.406c-.577.063-1.322.48-2.234 1.246-.912.77-1.756 1.546-2.536 2.323l-1.45 1.41c-.41.388-.748.723-1.012 1l3.872 3.225c1.69 1.393 2.804 2.298 3.338 2.714.538.416 1.015.747 1.432.99l.02.334c-.07-.007-.156-.018-.255-.036-.103-.018-.232-.032-.392-.046-.335-.03-.663-.043-.98-.043-.588 0-1.347.042-2.287.124l-.02-.292c.056-.02.11-.04.166-.053l.28-.062c.286-.05.428-.125.428-.232 0-.214-.777-.933-2.326-2.16l-1.93-1.563c-.233-.182-.42-.335-.57-.456-.15-.12-.38-.296-.685-.527-.307-.228-.628-.47-.97-.72l-.27-.2c-.015.628-.008 1.604.024 2.93.032 1.324.078 2.09.142 2.29.103.224.353.406.745.552.393.146.68.22.863.22v.315c-.253-.043-.71-.078-1.368-.103-.363-.014-.912-.02-1.65-.02-.612 0-1.19.013-1.73.038v-.363c.417-.037.72-.104.908-.204.185-.103.31-.296.374-.58.064-.25.118-.756.167-1.52.05-.76.082-1.602.103-2.52.02-.916.032-1.462.032-1.63 0-1.666-.022-2.916-.065-3.743 0-.606-.014-1.072-.046-1.4-.033-.328-.09-.574-.18-.737-.085-.16-.216-.274-.387-.338-.173-.063-.44-.12-.803-.17z"/>
  <path d="M119.53 13.35c-.032.093-.182.606-.45 1.546-.75.22-1.43.395-2.044.517-.613.12-1.275.182-1.99.182-.867 0-1.73-.153-2.59-.46-.863-.306-1.64-.76-2.327-1.36-.692-.603-1.237-1.337-1.64-2.202-.406-.87-.606-1.852-.606-2.96 0-1.518.374-2.796 1.122-3.84.748-1.044 1.7-1.813 2.857-2.308 1.16-.492 2.355-.74 3.587-.74.965 0 1.9.17 2.796.512.417.132.73.2.94.2.096-.022.167-.037.214-.044.043-.007.103-.014.17-.02.044 0 .086.027.136.084l-.157.595c-.147.52-.275 1.186-.386 1.99-.125-.02-.21-.063-.25-.13-.042-.065-.063-.172-.063-.318-.013-.438-.074-.737-.177-.898-.19-.306-.655-.62-1.407-.94-.752-.317-1.507-.477-2.266-.477-1 0-1.91.248-2.718.744-.812.5-1.453 1.225-1.92 2.187-.47.96-.705 2.09-.705 3.382 0 1.19.207 2.216.62 3.074.413.858.933 1.54 1.557 2.04.623.5 1.254.863 1.9 1.084.644.224 1.2.335 1.673.335.752 0 1.375-.12 1.87-.37.492-.247.88-.542 1.16-.888.282-.346.557-.755.82-1.236.103-.202.196-.302.27-.302.133 0 .2.064.2.19.003.087-.065.365-.197.832z"/>
  <path d="M100.703 2.37v-.448c.787.043 1.28.07 1.47.085.71.025 1.187.04 1.433.04.082 0 .445-.015 1.083-.04.64-.03 1.242-.057 1.805-.085v.492c-.613 0-1.03.032-1.25.1-.224.064-.392.196-.502.392-.232.438-.346 2.11-.346 5.02 0 2 .004 3.27.007 3.803.004.53.014 1.1.036 1.705.014.484.053.83.114 1.033.064.2.235.353.513.452.278.1.727.157 1.347.16l-.043.41c-.095 0-.29-.007-.58-.018-.288-.01-.588-.018-.898-.025l-.713-.014c-.168-.004-.36-.007-.575-.007-.306 0-.563.004-.77.007-.202.004-.476.007-.818.014-.338.007-.648.014-.923.025-.274.01-.442.018-.495.018l-.022-.388c.752-.04 1.258-.128 1.525-.26.264-.132.445-.346.542-.638.14-.374.228-1.087.267-2.134.036-1.047.057-2.152.057-3.313 0-1.05-.037-2.56-.104-4.528-.02-.546-.075-.934-.164-1.166-.085-.235-.28-.406-.584-.517-.303-.11-.773-.17-1.415-.176z"/>
  <path d="M98.833 5.748c-.42-.837-1-1.55-1.738-2.134-.737-.584-1.578-1.033-2.526-1.343-.95-.31-1.94-.462-2.976-.462-.51 0-.997.032-1.47.093-1.276.154-2.844.233-4.707.233l.018.385c.58-.02.958.1 1.14.367.146.242.242.866.292 1.874.046 1.004.07 2.528.07 4.573 0 3.08-.084 4.816-.26 5.197-.152.328-.6.492-1.346.492v.385l1.023.02c.14 0 .395-.003.77-.013.37-.01.758-.02 1.167-.028l.926-.014c.214-.004.456-.004.727-.004.078 0 .346.007.805.018.46.014.734.02.823.02 1.547 0 2.922-.298 4.13-.9 1.208-.602 2.134-1.425 2.786-2.47.652-1.043.976-2.197.976-3.465.002-1.045-.208-1.985-.63-2.822zm-1.802 5.87c-.41.965-1.075 1.76-1.997 2.383-.923.624-2.102.934-3.54.934-.575 0-1.045-.043-1.422-.128-.373-.09-.914-.242-1.616-.467 0-.07-.004-.343-.014-.82-.01-.474-.02-.948-.032-1.414-.01-.463-.014-.727-.014-.78 0-1.4.014-3.067.05-5.002.036-1.934.09-3.096.157-3.484.81-.363 1.714-.54 2.716-.54 1.022 0 2.02.24 2.996.73.973.484 1.774 1.203 2.397 2.154.626.948.94 2.084.94 3.406-.003 1.05-.206 2.06-.62 3.028z"/>
  <polygon points="74.713,1.733 76.615,6.835 82.055,7.067 77.79,10.452 79.25,15.698 74.713,12.688 70.176,15.698 71.636,10.452 67.371,7.067 72.811,6.835 74.713,1.733"/>
  <g>
    <path d="M51.72 13.15c-.03.093-.18.606-.448 1.546-.752.22-1.432.395-2.045.517-.613.12-1.275.182-1.99.182-.867 0-1.73-.153-2.59-.46-.863-.306-1.64-.76-2.327-1.36-.69-.603-1.236-1.337-1.64-2.202-.405-.87-.605-1.852-.605-2.96 0-1.518.374-2.796 1.122-3.84.748-1.044 1.7-1.813 2.857-2.308 1.16-.492 2.355-.74 3.587-.74.966 0 1.9.17 2.797.512.417.132.73.2.94.2.096-.022.167-.037.214-.044.044-.007.104-.014.172-.02.043 0 .085.027.135.084l-.157.595c-.146.52-.274 1.186-.385 1.99-.125-.02-.21-.063-.25-.13-.042-.065-.063-.172-.063-.318-.014-.438-.075-.737-.178-.898-.19-.306-.655-.62-1.407-.94-.752-.317-1.507-.477-2.266-.477-1 0-1.908.248-2.717.744-.812.5-1.453 1.225-1.92 2.187-.47.96-.705 2.09-.705 3.382 0 1.19.207 2.216.62 3.074.413.858.933 1.54 1.557 2.04.623.5 1.254.863 1.9 1.084.644.224 1.2.335 1.673.335.752 0 1.375-.12 1.87-.37.492-.247.88-.542 1.16-.888.282-.346.557-.755.82-1.236.103-.202.196-.302.27-.302.133 0 .2.064.2.19.002.088-.065.366-.197.832z"/>
    <path d="M63.733 12.192h.324c-.11.723-.23 1.322-.363 1.8-.132.476-.303.93-.513 1.36-.227-.02-.54-.036-.94-.046-.394-.01-.95-.014-1.666-.014-.43 0-.894-.007-1.39-.02-.494-.015-.704-.022-.637-.022-.452 0-.98.004-1.578.014-.603.01-1.33.032-2.178.06-.85.026-1.47.05-1.87.072l.02-.356c.218-.046.436-.1.66-.16.22-.06.374-.125.452-.192.082-.07.14-.157.17-.256.037-.1.072-.285.108-.55.04-.263.082-.74.118-1.435.04-.69.07-1.468.096-2.33.025-.866.032-1.404.025-1.62l-.07-3.32c-.02-1.028-.06-1.727-.12-2.086-.062-.362-.172-.6-.34-.72-.166-.117-.483-.223-.95-.313 0-.11.007-.203.02-.27h6.69c.753 0 1.885-.03 3.403-.086-.036.6-.096 1.198-.19 1.796-.088.6-.202.898-.34.898-.176 0-.265-.053-.265-.157 0-.043.014-.175.043-.395.03-.224.044-.353.044-.388 0-.506-.306-.83-.915-.97-.607-.138-1.337-.21-2.185-.21-1.022 0-2.09.072-3.206.21-.126 1.155-.186 2.128-.186 2.91 0 .518 0 1.11.007 1.775l.012.94c.167.013.68.02 1.535.02 1.475 0 2.486-.028 3.04-.082.31-.036.523-.078.63-.128.107-.046.21-.17.306-.37.1-.197.207-.503.324-.913l.303.02c0 .724 0 1.372-.004 1.942-.004.57-.01 1.224-.018 1.962h-.363c-.02-.64-.118-1.087-.29-1.336-.17-.253-.498-.413-.986-.48-.486-.072-1.355-.108-2.598-.108-.8 0-1.428.036-1.88.107l-.04 1.482c-.05 1.81.014 3.203.185 4.186l.45.114c.174.043.34.075.498.1.153.025.378.046.673.07.292.026.655.037 1.094.037 1.094 0 1.95-.078 2.572-.24.623-.16 1.1-.416 1.432-.772.327-.35.612-.864.847-1.53z"/>
    <path d="M24.234 2.257l.043-.388c.324.013.823.02 1.493.02 1.183 0 2.344-.028 3.484-.082l.114.342c-.645.078-1.083.17-1.307.28-.227.115-.39.268-.494.46-.21.393-.313 2.024-.313 4.896 0 .99.014 1.86.04 2.61.027.753.084 1.337.166 1.754.23 1.05.79 1.75 1.68 2.09.89.347 1.72.518 2.494.518.438 0 .965-.06 1.578-.185.61-.128 1.19-.353 1.742-.68.55-.328.92-.773 1.104-1.336.385-1.112.574-3.302.574-6.565 0-.972-.028-1.706-.085-2.194-.06-.492-.157-.848-.29-1.065-.13-.22-.298-.353-.5-.403-.2-.05-.52-.07-.96-.07l-.043-.37c.314-.043.663-.064 1.044-.064 1.496 0 2.5.007 3.017.02v.428c-.48.02-.81.075-.987.157-.178.086-.285.236-.324.45-.04.217-.064.677-.078 1.38-.02 1.314-.053 2.482-.093 3.5-.043 1.02-.096 1.857-.157 2.516-.064.66-.153 1.243-.267 1.76-.115.513-.258.93-.425 1.25-.317.59-.816 1.05-1.493 1.38-.673.327-1.354.54-2.045.64-.688.1-1.314.153-1.877.153-.94 0-1.806-.143-2.6-.425-.792-.28-1.44-.752-1.946-1.404-.506-.654-.755-1.495-.755-2.525 0-.25.006-.937.024-2.055.018-1.122.025-1.956.025-2.504 0-1.927-.094-3.21-.282-3.84-.046-.16-.128-.26-.246-.3-.114-.04-.466-.09-1.058-.15z"/>
    <path d="M25.274 15.508c-.492-.04-.997-.24-1.517-.588-.517-.353-1.026-.81-1.525-1.375-.495-.563-.962-1.147-1.393-1.756-.432-.61-.974-1.408-1.63-2.398l-.47-.71c.67-.248 1.216-.555 1.64-.91.427-.36.74-.76.95-1.198.21-.438.314-.89.314-1.354 0-.453-.1-.894-.303-1.322-.202-.427-.498-.81-.893-1.143-.392-.335-.88-.602-1.464-.802-.584-.203-1.243-.303-1.974-.303-.28 0-.94.043-1.99.128-1.046.09-1.652.132-1.82.132-.57 0-1.04-.007-1.41-.02l-.04.345c.404.046.7.114.888.196.185.086.324.25.417.496.09.25.146.638.17 1.165.026.532.03 1.358.015 2.484v4.613c-.004 1.1-.04 1.9-.103 2.397-.06.495-.164.83-.303 1-.14.172-.363.297-.677.382-.182.05-.3.09-.35.125-.052.037-.077.086-.077.158 0 .125.068.19.207.19.07-.015.128-.022.178-.022.716-.096 1.414-.146 2.087-.146.132 0 .5.03 1.097.082.47.07.76.107.875.107.096 0 .146-.08.146-.232 0-.075-.077-.132-.23-.167-.475-.124-.778-.22-.913-.29-.135-.07-.23-.19-.288-.354-.112-.274-.183-.734-.215-1.39-.028-.654-.046-1.246-.046-1.773l.02-2.504c.606.088 1.368.134 2.287.134l1.2 1.71c.595.85 1.115 1.55 1.553 2.098.438.552.94 1.076 1.503 1.578.563.5 1.158.898 1.785 1.193.627.296 1.275.445 1.952.445.235 0 .385-.018.45-.05.06-.028.092-.078.092-.14.002-.117-.062-.188-.198-.21zm-7.808-7.263c-.374.05-.727.075-1.062.075-.66 0-1.225-.057-1.69-.167 0-3.363.08-5.212.24-5.554.064-.176.288-.3.673-.382.385-.078.73-.117 1.037-.117.737 0 1.364.186 1.88.557.514.374.895.82 1.144 1.336.246.52.37 1.015.37 1.49 0 .665-.142 1.2-.43 1.595-.286.395-.624.677-1.016.844-.395.166-.776.277-1.146.323z"/>
    <path d="M10.516 10.12c-.235-.5-.656-.952-1.258-1.362-.602-.413-1.396-.71-2.383-.887.905-.266 1.57-.65 2.002-1.164.435-.513.648-1.12.648-1.82 0-.663-.167-1.24-.506-1.738-.34-.5-.784-.873-1.34-1.123-.56-.25-1.175-.374-1.85-.374-.05 0-.516.03-1.406.094-.837.057-1.32.082-1.453.082-.562 0-1.214-.025-1.95-.082v.406c.326.05.586.114.782.2.196.08.342.22.438.416.1.175.18.524.236 1.044.06.524.096 1.054.11 1.596.014.545.02 1.104.02 1.68 0 .535-.006 1.294-.02 2.27-.014.98-.04 1.94-.078 2.885-.04.95-.093 1.572-.164 1.87-.032.2-.114.36-.24.478-.124.12-.27.203-.437.246-.167.046-.388.082-.666.11v.385c.938-.054 1.618-.083 2.035-.083.196 0 .37 0 .527.004l.677.02c.295.006.59.013.882.024.292.01.492.018.606.018 1.176 0 2.326-.22 3.452-.66 1.13-.437 1.692-1.42 1.692-2.952 0-.555-.118-1.082-.356-1.58zM3.932 6.502c0-.73.02-1.59.068-2.572.046-.986.114-1.517.203-1.59.103-.11.395-.168.876-.168.5 0 .972.114 1.41.346.438.227.788.562 1.048 1 .26.438.392.97.392 1.596 0 .794-.185 1.382-.552 1.763-.37.385-.792.623-1.265.723-.474.096-1.023.15-1.65.164-.2 0-.378.007-.53.02v-1.28zm4.78 7.117c-.362.445-.804.755-1.33.933-.525.178-1.07.267-1.632.267-.53 0-.898-.014-1.108-.043-.21-.03-.367-.114-.47-.256-.104-.14-.172-.358-.197-.65-.03-.292-.043-.79-.043-1.503v-4.09c.207-.03.428-.05.663-.064.23-.014.43-.018.598-.018.698 0 1.307.107 1.83.328.53.217.953.5 1.27.844.32.345.563.737.723 1.176.157.438.24.866.24 1.282 0 .752-.183 1.35-.543 1.795z"/>
  </g>
</svg>
