<!--
  SVG Music Logos
  Anti-flag - The People Or The Gun v1.0.0
  https://github.com/tiagoporto/svg-music-logos
  Copyright (c) 2016-2018 Tiago Porto (http://tiagoporto.com)
-->
<svg xmlns="http://www.w3.org/2000/svg" viewBox="0 0 200 40">
  <path d="M56.883 27.377c-.077.083-.05.185-.05.28.002 2.63.007 5.26.008 7.89 0 .467.037.935-.006 1.4-.008.087-.014.175-.036.258-.09.34-.227.465-.564.376-.742-.194-1.49-.114-2.238-.12-.956-.01-1.912-.003-2.87.003-.432.003-.437.012-.558.42-.062.21-.158.258-.365.184-.04-.014-.09-.027-.117-.056-.466-.5-1.08-.847-1.394-1.508-.564-1.185-1.288-2.283-1.946-3.417-.446-.768-.912-1.524-1.352-2.296-.584-1.028-1.188-2.043-1.79-3.06-.458-.774-.91-1.552-1.392-2.31-.39-.614-.78-1.226-1.13-1.86-.586-1.05-1.27-2.04-1.836-3.103-.076-.143-.155-.284-.335-.355-.123.24-.104.494-.1.735.008.5.008.998-.1 1.492-.04.187-.025.388-.025.584 0 2.62-.002 5.24 0 7.858.002.467-.096.937-.01 1.4.203 1.077.106 2.165.14 3.248.004.087.018.176-.023.257-.175.35-.144.713-.098 1.085.06.485-.058.638-.55.677-.39.03-.78.02-1.172.02-1.902-.002-3.804-.003-5.706-.012-.227 0-.358.1-.478.273-.168.243-.2.236-.438.08-.335-.223-.722-.315-1.11-.33-.978-.032-1.96-.06-2.933.02-.385.032-.777.065-1.16.072-.447.008-.796-.11-.98-.625-.458-1.286-.812-2.604-1.24-3.9-.215-.656-.42-1.317-.722-1.943-.086-.18-.19-.298-.418-.29-1.673.054-3.347.016-5.02.02-.662.003-1.325.035-1.987-.012-.17-.012-.25.062-.317.21-.14.314-.256.33-.502.1-.07-.066-.136-.14-.216-.195-.298-.2-.564-.112-.713.212-.334.73-.56 1.497-.833 2.25-.257.71-.464 1.44-.705 2.154-.186.55-.367 1.103-.574 1.647-.082.217-.217.29-.45.28-.63-.03-1.26-.042-1.882.093-.02.005-.043.008-.065.008-1.486-.038-2.97.17-4.457.083-.346-.02-.692-.063-1.033-.124-.237-.043-.47-.064-.71-.074-.27-.012-.415-.268-.248-.45.375-.41.56-.926.82-1.398.468-.844.823-1.74 1.152-2.645.273-.753.577-1.494.868-2.24.012-.03.02-.067.04-.09.492-.504.54-1.21.81-1.815.265-.602.483-1.23.673-1.86.095-.316.128-.66.164-.99.05-.47.302-.832.524-1.212.116-.2.188-.388.132-.614-.048-.197.008-.357.143-.507.29-.324.455-.698.478-1.145.02-.367.097-.73.146-1.097.03-.23.113-.448.25-.63.45-.592.665-1.286.87-1.982.22-.746.417-1.5.67-2.238.055-.16.026-.272-.09-.378-.236-.216-.354-.486-.37-.805-.004-.085-.03-.175-.07-.25-.134-.248-.083-.466.044-.706.132-.25.317-.375.588-.392.12-.008.24-.014.358-.018.19-.007.34-.086.422-.258.28-.586.57-1.17.705-1.813.052-.24.054-.46-.055-.695-.14-.303-.085-.404.238-.49.15-.04.203-.13.26-.255.27-.584.406-1.21.62-1.813.34-.948.646-1.907.958-2.863.118-.36.22-.723.354-1.078.073-.194.197-.28.395-.26.985.094 1.974.04 2.96.046 1.523.01 3.044.007 4.566.007.14 0 .28-.022.422-.03.41-.025.523.087.666.46.227.588.307 1.217.54 1.802.13.324.264.64.626.79.182.073.2.213.063.362-.168.18-.17.365-.077.596.32.792.538 1.62.81 2.43.23.687.46 1.375.686 2.063.22.676.465 1.345.65 2.033.122.445.298.88.45 1.318.197.56.405 1.124.55 1.7.124.496.34.956.48 1.445.3 1.05.66 2.084 1.002 3.122.227.687.45 1.377.708 2.056.356.94.625 1.914.952 2.866.137.398.243.804.398 1.198.152.387.24.804.375 1.202.024.072.02.152.12.19.156-.056.12-.2.12-.32.022-1.03.037-2.06.147-3.086.08-.756.02-1.52.03-2.28.006-.794.004-1.588.013-2.38.003-.253-.058-.497-.077-.743-.04-.508-.05-1.02-.05-1.53-.002-1.14-.057-2.285.03-3.42.165-2.15.026-4.3.09-6.45-.19-.91-.044-1.838-.145-2.757-.06-.545-.188-1.088-.168-1.643.003-.083-.032-.17-.058-.252-.118-.382.03-.643.42-.717.224-.043.452-.065.68-.042.11.01.218.015.326.02.464.02.523-.042.486-.5-.02-.244.055-.336.3-.37.29-.04.583.177.64.476.074.382.092.38.488.38.826.002 1.653-.043 2.476.03.34.032.623-.12.808-.517.127-.272.204-.565.26-.87.08-.454.346-.838.634-1.193.125-.154.387-.016.442.236.04.19.058.387.076.58.012.122.036.238.087.347.16.34.17.665-.058.984-.052.072-.115.16-.083.275.02.017.045.055.07.056.417.004.62.3.838.59.624.825 1.124 1.724 1.606 2.636.166.315.324.635.54.923.118.157.247.232.44.202.053-.008.108-.01.162-.01.184.004.362.052.422.242.058.184-.078.298-.214.4-.258.19-.267.278-.01.494.197.166.302.355.314.614.014.302.158.54.428.686.183.098.29.252.388.425.612 1.073 1.214 2.152 1.848 3.212.828 1.386 1.673 2.76 2.53 4.128.185.294.382.577.522.896.027.06.06.12.14.117.092-.003.126-.073.146-.15.014-.05.028-.106.027-.16-.01-.565.14-1.114.165-1.677.015-.354.128-.706.02-1.063-.012-.038 0-.087.01-.13.264-.983.157-1.977.087-2.97-.03-.433-.218-.775-.584-1.04-.76-.546-.528-.583-.25-1.13.453-.89.655-1.845.704-2.82.043-.845.105-1.692.073-2.54-.015-.412.03-.825-.078-1.232-.024-.092-.018-.195-.01-.292.022-.26.093-.327.35-.313 1.27.068 2.542.03 3.814.03 9.935.005 19.87.003 29.803.002.326 0 .652.002.978 0 .066 0 .14.01.193-.018.39-.202.807-.123 1.215-.132.456-.01.913-.016 1.37-.008.47.008.616.12.77.553.203.563.263 1.138.165 1.73-.034.204-.046.412-.046.618 0 6.684-.014 13.37.02 20.053.003.905-.017 1.824.158 2.726.05.257.05.522 0 .78-.182.91-.17 1.833-.173 2.756-.004 1.087.032 2.174-.025 3.26-.024.46-.115.546-.565.57-2.323.115-4.648.054-6.973.053-.25 0-.5-.035-.747-.07-.273-.04-.416-.186-.386-.433.062-.51.015-1.02.015-1.53.003-6.977.002-13.954.007-20.932 0-.475-.073-.95.025-1.43.04-.192-.082-.357-.296-.404-.35-.077-.7-.15-1.052-.22-.182-.037-.304.01-.37.213-.078.242-.2.306-.418.202-.49-.233-1.002-.24-1.527-.234-.935.01-1.87-.002-2.804-.005-.313 0-.36.057-.396.378-.118 1.073-.025 2.15-.06 3.224-.023.76.07 1.52-.053 2.276-.03.187.054.246.247.223.4-.047.433-.01.464.38.044.538.254 1.03.436 1.527.206.56.26 1.088-.09 1.616-.16.24-.337.375-.637.358-.3-.016-.315.017-.282.315.046.412.06.824-.014 1.234-.065.365-.07.732-.07 1.102.002 2.076-.007 4.15 0 6.227 0 .52.03 1.04-.03 1.56-.018.16.072.27.174.37.14.136.182.278.103.468-.207.5-.282 1.022-.255 1.56.024.478-.02.956.046 1.433.05.338-.11.502-.447.54-.455.054-.91.058-1.366.052-.404-.005-.803.02-1.2.094-.313.058-.63-.004-.943.014-1.206.068-2.403-.183-3.61-.11-.213.012-.428-.056-.646-.067-.323-.016-.425-.124-.428-.45-.006-.803-.012-1.608.002-2.412.018-.985.088-1.97.066-2.957-.01-.49-.025-.977-.12-1.458-.08-.4-.086-.797.003-1.194.126-.555.122-1.12.12-1.686-.003-.64-.005-1.282 0-1.923.002-.318-.1-.62-.145-.93-.07-.48-.062-.955.025-1.427.046-.25.042-.496.052-.745.11-2.715.048-5.43.066-8.146.002-.348-.01-.695-.025-1.043-.012-.268-.11-.373-.372-.32-.462.094-.894-.136-1.353-.083-.454.052-.91.007-1.36-.1-.277-.068-.568-.048-.843-.014-.698.086-1.406.115-2.085.325-.305.094-.573.256-.835.433-.14.096-.196.215-.185.386.025.378-.005.76.125 1.128.055.155.058.327.01.483-.142.445-.12.902-.118 1.358 0 .38.017.762-.006 1.14-.024.414.098.795.2 1.183.032.128.122.226.204.33.164.207.17.347-.043.5-.314.227-.38.514-.36.878.027.53.013 1.065.006 1.597-.006.467-.026.933.128 1.387.034.1.034.216.028.323-.04.64-.018 1.282-.028 1.922-.002.13-.017.258-.043.387-.047.234.045.348.28.37.043.004.087-.006.13-.003.268.017.44.185.41.4-.032.247-.262.42-.514.383-.11-.016-.222-.085-.343-.026zM38.543 4.444c-.225-.094-.327-.033-.355.18.195.11.28.017.355-.18z"/>
  <path d="M190.93 18.95h5.933c.163 0 .325-.017.487-.028.34-.023.52.11.55.45.038.43.09.855.088 1.292-.016 5.162-.01 10.324-.008 15.486 0 .206-.007.414.013.618.048.493-.17.728-.673.715-.52-.013-1.043-.024-1.564-.027-.685-.004-1.37 0-2.054.003-.583 0-.946-.268-1.09-.827-.07-.275-.168-.54-.28-.797-.16-.368-.38-.44-.727-.23-.222.132-.443.28-.628.46-.55.53-1.226.844-1.913 1.14-1 .428-2.07.556-3.132.705-.257.037-.52.04-.78.042-.576.005-1.152.01-1.727-.002-.85-.018-1.68-.174-2.5-.376-.92-.226-1.798-.587-2.618-1.043-.658-.365-1.3-.79-1.856-1.31-.658-.614-1.317-1.23-1.876-1.942-.59-.753-1.082-1.57-1.526-2.416-.606-1.155-1.06-2.37-1.396-3.63-.176-.663-.258-1.34-.363-2.015-.075-.48-.007-.978-.194-1.443-.035-.087-.035-.193-.035-.29.005-1.477-.085-2.956.026-4.43.045-.6.135-1.202.213-1.803.075-.58.157-1.16.263-1.735.035-.193.115-.376.15-.565.167-.9.507-1.745.83-2.59.216-.565.516-1.098.8-1.634.52-.974 1.227-1.81 1.922-2.65.412-.5.9-.945 1.45-1.3.365-.238.68-.543 1.048-.77 1.093-.678 2.258-1.183 3.5-1.527 1.088-.302 2.2-.368 3.313-.448.664-.047 1.32.037 1.978.072 1.13.06 2.208.288 3.268.644.77.258 1.507.596 2.204 1.02 1.077.658 2.01 1.475 2.784 2.468.834 1.072 1.534 2.22 1.993 3.515.275.778.53 1.558.708 2.36.115.516.197 1.04.244 1.57.033.37-.055.522-.427.54-.656.034-1.278.236-1.917.34-1.304.21-2.582.555-3.893.722-.344.044-.692.062-1.04.08-.213.013-.37-.103-.392-.31-.082-.786-.354-1.52-.626-2.246-.377-1.004-.88-1.948-1.858-2.513-.38-.22-.775-.446-1.252-.39-.105.012-.22 0-.323-.026-.546-.127-1.075-.106-1.638-.016-.548.088-1.017.296-1.47.555-.918.522-1.532 1.327-1.99 2.262-.364.743-.63 1.53-.767 2.333-.112.665-.236 1.334-.283 2.018-.075 1.098-.058 2.194-.05 3.29.006.623.056 1.248.17 1.87.128.716.25 1.428.465 2.123.145.466.29.946.514 1.36.345.642.712 1.315 1.34 1.736.522.348 1.09.628 1.732.7.248.03.493.07.743.086 1.433.093 2.633-.435 3.646-1.4.51-.487.836-1.106.99-1.803.052-.238 0-.315-.24-.366-.063-.014-.13-.024-.194-.02-1.28.06-2.563-.013-3.844.033-.38.014-.733-.083-1.08-.2-.358-.12-.482-.447-.376-.805.265-.89.387-1.816.28-2.73-.092-.765-.13-1.53-.158-2.296-.012-.34-.12-.66-.17-.993-.06-.39.022-.475.412-.563.657-.147 1.317-.1 1.978-.1 1.634.002 3.263 0 4.893 0z"/>
  <path d="M144.858 33.297c.206-.097.29-.265.346-.438.206-.618.41-1.236.595-1.86.095-.324.232-.63.347-.946.403-1.11.713-2.25 1.087-3.368.202-.604.364-1.223.604-1.816.177-.438.263-.914.443-1.35.27-.655.42-1.345.673-2.002.156-.405.24-.832.386-1.238.15-.427.303-.854.43-1.288.2-.683.47-1.342.67-2.026.21-.716.48-1.414.716-2.122.306-.914.613-1.826.91-2.743.245-.76.505-1.518.786-2.27.237-.63.5-1.262.643-1.93.07-.327.19-.647.325-.952.164-.367.314-.738.4-1.13.08-.36.31-.67.33-1.048.006-.085.086-.15.183-.163.065-.01.13-.018.194-.02 1.9-.07 3.8-.083 5.7-.07.78.007 1.555.095 2.332.15.22.016.337.126.402.315.322.93.64 1.863.962 2.793.23.664.48 1.322.69 1.993.15.476.296.952.454 1.424.157.472.333.938.468 1.416.268.947.637 1.86.91 2.806.183.633.404 1.257.635 1.874.153.407.224.835.376 1.242.36.963.635 1.956.97 2.927.29.838.533 1.69.82 2.53.47 1.37.937 2.743 1.398 4.117.35 1.046.702 2.092 1.034 3.144.273.864.604 1.708.876 2.57.32 1.01.627 2.027.852 3.065.083.383-.048.537-.457.547-2.24.056-4.478.012-6.717.024-.36.002-.717.004-1.076.004-.398 0-.394-.025-.54-.41-.275-.73-.498-1.477-.772-2.206-.328-.873-.54-1.78-.85-2.657-.117-.327-.212-.66-.332-.986-.12-.33-.227-.374-.584-.372-1.12.005-2.24 0-3.36-.002l-4.955-.006c-.476 0-.536.045-.637.502-.076.34-.265.64-.362.974-.17.58-.344 1.16-.54 1.73-.115.34-.188.69-.295 1.03-.207.66-.47 1.303-.747 1.938-.166.38-.26.415-.68.398-.64-.026-1.28-.035-1.92.047-.277.035-.563.013-.845.014h-19.465c-.772 0-1.547.047-2.314-.01-.772-.06-1.538-.063-2.308-.047-.218.005-.315-.11-.307-.326.006-.15.002-.303.002-.455l-.005-19.433c0-3.206 0-6.412-.002-9.618 0-.902-.01-1.804-.012-2.705 0-.295.08-.385.36-.375 1.868.063 3.737.023 5.606.025.61 0 1.215.044 1.82.083.12.008.237.02.35.074.29.137.38.274.32.59-.07.385-.043.76.072 1.127.076.242.092.488.092.74-.004 6.76 0 13.52-.018 20.28-.002.603.063 1.214-.077 1.814-.044.19.056.29.242.302.13.008.26-.002.39.005 3.106.16 6.213.07 9.32.075.76 0 1.52.017 2.282-.005.33-.01.48.15.476.477-.006.64-.036 1.28.015 1.92.02.247-.095.486-.156.728-.048.184-.134.376.036.577z"/>
  <path d="M110.81 4.513c2.772 0 5.543-.025 8.314.016.746.01 1.495.06 2.244.056.086 0 .178.01.256.04.24.1.482.1.735.06.465-.07.655.094.642.566-.023.826-.036 1.65-.022 2.477.016.91-.044 1.824.03 2.735.016.183.026.372-.033.55-.116.353-.195.703-.14 1.084.033.228-.115.33-.37.335-3.748.094-7.496.045-11.244.058-.152 0-.304-.01-.456-.012-.32-.002-.426.102-.446.42-.064 1.052-.096 2.103.014 3.155.017.16-.028.323-.035.486-.014.277.06.367.336.42.194.037.39.017.585.01.415-.018.822.023 1.233.08.505.067 1.025.067 1.53.004.813-.102 1.627-.067 2.44-.067.63 0 1.26-.058 1.888.013.39.044.77.11 1.163.012.214-.053.365.152.422.44.082.417.078.835.08 1.257.004.736-.042 1.473.064 2.21.053.372-.068.753-.08 1.135-.012.478.018.955.015 1.432-.002.35-.086.688-.1 1.034-.007.223-.18.29-.39.302-2.506.158-5.013.064-7.52.084-.412.003-.825-.007-1.238-.002-.39.004-.408.05-.413.433-.01.835.035 1.668-.034 2.506-.064.788-.01 1.585-.01 2.378-.002 1.153-.058 2.307.005 3.455.06 1.097.004 2.193.08 3.288.024.36-.06.43-.425.448-2.095.098-4.19.016-6.286.047-.424.006-.847-.01-1.27-.057-.39-.044-.47-.123-.47-.508.007-1.88.016-3.76.018-5.64 0-.672.023-1.347.013-2.02-.03-2.114-.047-4.23-.026-6.345.02-2.15.007-4.3.01-6.45.006-3.74-.004-7.477-.01-11.215 0-.12.018-.237.05-.353.06-.228.188-.352.438-.35.565.004 1.13-.007 1.694-.007h6.719z"/>
  <path d="M95.113 27.68c-1.608 0-3.216 0-4.823-.002-.372 0-.362-.03-.47-.388-.147-.482-.11-.967-.108-1.453.002-.562-.026-1.123.128-1.68.113-.41.026-.842.004-1.265-.028-.55.09-.647.637-.687.92-.067 1.842-.024 2.758-.16.447-.065.91-.02 1.367-.022.348 0 .696.02 1.043.004 1.13-.052 2.25.183 3.38.122.563-.03 1.126-.02 1.687.06.178.024.277.103.334.257.076.208.08.425.067.643-.033.49-.034.976.12 1.45.1.3.096.606 0 .9-.13.39-.146.785-.132 1.188.006.173.007.35-.013.52-.025.225-.13.367-.384.41-.397.07-.79.113-1.195.11-1.466-.012-2.933-.005-4.4-.005v-.004z"/>
</svg>
