<!--
  SVG Music Logos
  Linkin Park - LP v1.0.0
  https://github.com/tiagoporto/svg-music-logos
  Copyright (c) 2016-2018 Tiago Porto (http://tiagoporto.com)
-->
<svg xmlns="http://www.w3.org/2000/svg" viewBox="0 0 200 200" class="linkin-park--lp">
  <ellipse cx="100" cy="100" rx="97.5" ry="97.242" />
  <path class="linkin-park__text" fill="#fff"
    d="M103.88 8.396l-5.51 11.15-58.005 117.506h31.232l-16.055 30.83.222.29C33.06 153.958 17.96 128.727 17.96 99.963c0-39.72 28.798-72.713 66.653-79.243L90.47 8.805C44.33 13.57 8.354 52.566 8.354 99.96c0 36.563 21.412 68.127 52.38 82.83l5.158-9.245c-.035-.015-.067-.03-.103-.048l.15-.066 17.34-36.38h73.52l-42.228-84.224-36.538 73.77H57.97l52.345-106.163c38.75 5.77 68.47 39.173 68.47 79.527 0 44.41-36.002 80.41-80.416 80.41-6.984 0-13.758-.888-20.22-2.56l-4.846 9.847c8.445 2.566 17.408 3.947 26.695 3.947 50.614 0 91.644-41.03 91.644-91.644 0-49.315-38.95-89.533-87.765-91.564zm10.83 65.734l26.282 52.465H90.47l24.24-52.465z" />
</svg>