<!--
  SVG Music Logos
  The Cure - Kiss Me, Kiss Me, Kiss Me v1.0.0
  https://github.com/tiagoporto/svg-music-logos
  Copyright (c) 2016 Tiago Porto (http://tiagoporto.com)
-->
<svg xmlns="http://www.w3.org/2000/svg" viewBox="0 0 200 56">
  <path d="M121.674 33.552c-.177.01-.17.234-.184.36-.188 1.643-.735 3.163-1.61 4.555-.57.904-1.19 1.78-1.83 2.635-.754 1.004-1.47 2.06-2.357 2.935-1.09 1.072-2.29 2.05-3.535 2.937-1.23.876-2.565 1.606-3.875 2.363-.75.433-1.54.795-2.315 1.184-1.43.717-2.967 1.127-4.503 1.538-.906.243-1.8.56-2.723.703-.927.145-1.88.15-2.822.153-.83.003-1.662-.062-2.49-.137-.29-.026-.633-.164-.603-.53.032-.383.394-.313.66-.323.703-.027 1.41.004 2.105-.08 1.08-.133 2.16-.306 3.223-.53.9-.19 1.782-.467 2.662-.737.157-.048.426-.265.398-.383-.028-.118-.35-.084-.515-.057-1.182.194-2.364.39-3.54.617-1.402.27-2.8.542-4.244.45-1.067-.097-2.145-.13-3.197-.313-.79-.138-1.644-.32-2.29-.753-.942-.63-1.716-1.51-2.573-2.27-1.05-.93-1.717-2.167-2.59-3.24-.127-.153-.228-.343-.287-.533-.17-.544-.31-1.097-.467-1.645-.32-1.113-.636-2.225-.963-3.334-.14-.478-.336-.942-.448-1.425-.233-1.006-.43-2.023-.636-3.036-.104-.507-.273-1.013-.285-1.523-.043-1.75-.083-3.507.34-5.233.11-.446.114-.918.224-1.364.11-.44.226-.902.455-1.285.643-1.074 1.354-2.108 2.025-3.166.623-.982 1.175-2.014 1.86-2.95.65-.89 1.42-1.694 2.154-2.523.475-.54.918-1.13 1.48-1.56.935-.718 1.956-1.323 2.933-1.986.304-.206.554-.52.882-.657.97-.407 1.942-.843 2.956-1.097 1.23-.307 2.508-.41 3.754-.656 1.256-.25 2.514-.15 3.754-.01 1.538.173 3.066.47 4.585.776 1.14.23 2.303.448 3.375.874 1.54.61 2.892 1.577 3.944 2.883.566.702 1.016 1.496 1.556 2.22.778 1.046 1.3 2.19 1.468 3.486.154 1.19.29 2.38.453 3.57.02.152.102.398.26.432s.17-.272.196-.418c.208-1.186.173-2.355-.265-3.494-.045-.12-.048-.255-.09-.376-.327-.916-.413-1.917-.993-2.744-.234-.332-.43-.69-.65-1.033-.855-1.336-1.954-2.46-3.143-3.49-1.344-1.16-2.877-2.012-4.632-2.385-1.515-.322-3.036-.622-4.563-.877-.78-.13-1.59-.087-2.37-.217-1.634-.272-3.24.03-4.857.143-.46.032-.93.02-1.376.118-.83.18-1.646.42-2.465.648-.584.162-1.167.328-1.742.52-.766.253-1.54.496-2.278.814-.657.283-1.267.672-1.907.995-1.177.594-2.245 1.337-3.246 2.198-1.007.865-1.56 2.055-2.362 3.064-.124.156-.225.336-.31.518-.358.788-.694 1.587-1.063 2.37-.433.918-.833 1.826-.958 2.867-.086.722-.026 1.525-.557 2.154-.06.07-.03.213-.042.323-.034.312-.07.624-.1.936-.136 1.287-.543 2.557-.264 3.874.004.018 0 .037.002.055.154 1.407.133 2.836.523 4.215.17.6.35 1.198.513 1.8.15.552.21 1.143.44 1.657.326.724.415 1.485.587 2.24.246 1.077.45 2.19.892 3.192.763 1.735 1.91 3.222 3.393 4.438 1.247 1.024 2.596 1.873 4.068 2.534.505.227.982.512 1.483.75.78.37 1.543.792 2.356 1.067 1.204.407 2.478.405 3.737.38 1.867-.04 3.705-.326 5.548-.626 1.58-.257 3.116-.642 4.58-1.242 1.467-.6 2.886-1.33 4.286-2.077.942-.502 1.823-1.12 2.716-1.71.645-.427 1.32-.833 1.884-1.354.92-.85 1.716-1.837 2.645-2.676 1.076-.972 1.65-2.26 2.367-3.46.523-.874.866-1.833.945-2.867.01-.127.02-.266.074-.378.53-1.083.537-2.247.53-3.412.004-.123.014-.377-.162-.368zM81.86 18.76c.33-.513.672-1.02 1.05-1.495.678-.85 1.303-1.75 2.193-2.407.31-.23.625-.454.95-.662.838-.536 1.676-1.073 2.53-1.58.165-.1.405-.07.61-.1-.078.213-.094.497-.244.623-.62.518-1.24 1.053-1.93 1.462-.817.482-1.42 1.175-2.065 1.824-.74.743-1.43 1.535-2.13 2.315-.108.12-.138.304-.238.432-.114.146-.266.26-.337.33-.49-.006-.638-.36-.39-.743z"/>
  <path d="M198.922 17.407c-.11 0-.18.155-.243.23-.586.686-1.155 1.386-1.747 2.066-1.202 1.38-2.368 2.793-3.642 4.102-.79.812-1.444 1.74-2.34 2.47-.94.764-1.745 1.7-2.566 2.602-.36.394-.53.97-1.154 1.077-.046.008-.083.07-.123.108-1.064 1-2.125 2.003-3.195 2.996-.174.162-.385.284-.585.417-.645.43-1.298.85-1.937 1.288-.805.553-1.562 1.186-2.405 1.67-1.262.728-2.557 1.41-3.88 2.014-1.543.705-3.12 1.338-4.705 1.942-.708.27-1.405.576-2.204.626-.916.057-1.816.364-2.732.433-1.847.137-3.696.124-5.51-.36-.338-.09-.69-.185-1.034-.185-1.457 0-2.735-.632-4.01-1.188-.83-.363-1.562-.983-2.276-1.565-.436-.355-.847-.807-1.102-1.302-.473-.916-.83-1.892-1.218-2.85-.058-.144-.047-.328-.026-.488.127-.97.31-1.937.384-2.91.038-.502.187-.932.396-1.366.12-.252.284-.424.586-.432.954-.023 1.874-.29 2.85-.262 1.453.04 2.913-.105 4.37-.176 1.2-.058 2.398-.122 3.596-.187.13-.008.258-.028.384-.057.865-.196 1.387-1.007 1.214-1.882-.093-.47-.244-.94-.268-1.414-.06-1.194-.558-2.156-1.456-2.905-.272-.226-.69-.273-.973-.49-.763-.588-1.666-.77-2.564-.983-.63-.15-1.245-.096-1.854.13-1.477.547-2.795 1.335-3.872 2.5-1.1 1.192-1.827 2.624-2.597 4.028-.185.338-.33.748-.615.964-.173.13-.58-.067-.882-.078-.127-.005-.322.06-.368.15-.046.094.012.308.098.384.176.155.397.263.61.37.242.125.43.32.297.57-.327.626-.225 1.302-.29 1.955-.068.7-.165 1.41-.097 2.102.073.744.208 1.525.523 2.192.39.826.956 1.58 1.518 2.31.343.443.786.835 1.25 1.157.787.548 1.577 1.14 2.454 1.496 1.192.485 2.444.904 3.71 1.1 1.85.29 3.697.727 5.597.598.054-.004.11 0 .166 0 1.303.16 2.577-.086 3.864-.228 1.8-.198 3.574-.443 5.213-1.275.05-.024.108-.027.158-.05l3.27-1.484c.46-.694 1.47-.608 1.913-1.337.042-.07.202-.097.306-.094.404.012.72-.113.918-.49.048-.093.15-.162.24-.226.82-.596 1.656-1.175 2.465-1.788.556-.422 1.084-.882 1.61-1.34.654-.567 1.298-1.145 1.938-1.727.587-.533 1.19-1.05 1.735-1.623.646-.68 1.193-1.456 1.863-2.108.728-.71 1.424-1.43 1.968-2.292.037-.06.098-.126.16-.14.604-.146.857-.69 1.205-1.1 1.185-1.39 2.326-2.82 3.483-4.234.082-.1.154-.207.23-.312.327-.446.652-.893.98-1.338.33-.445.67-.88.98-1.34.057-.082.078-.44-.03-.44zm-47.128 9.806c.36-.636.75-1.256 1.145-1.872 1.165-1.82 2.658-3.234 4.8-3.842.58-.165 1.136-.102 1.68.125.34.142.68.295 1 .478.246.14.255.342.332.46.326.49.63.82.946 1.317.574.9.717 1.888.586 2.928-.046.36-.258.548-.628.58-1.878.162-5.125.22-5.647.33-.618.046-1.147-.042-1.764.005-.22.017-.417.078-.65.116-.44.07-.92.048-1.33.072-.175.01-.434-.012-.518-.147-.08-.126-.04-.396.046-.547z"/>
  <path d="M47.176 7.608c-.04-.08-.108-.153-.18-.21-.56-.447-1.087-.953-1.697-1.318-.902-.54-1.837-1.035-2.905-1.2-.657-.1-1.31-.23-1.96-.37-.394-.087-.772-.25-1.167-.33-.467-.095-.944-.17-1.42-.194-.38-.018-.788-.015-1.144.1-.892.287-1.76.647-2.64.97-.226.083-.46.196-.69.194-.503-.006-.88.247-1.265.502-.065.042-.1.127-.15.19.08.032.165.097.24.088.732-.09 1.462-.196 2.194-.287.44-.054.88-.085 1.32-.132.183-.018.37-.03.543-.083 1.117-.35 2.29-.344 3.408-.235 1.463.143 2.913.52 3.967 1.736.28.323.736.488 1.046.792.9.883 1.232 2.052 1.457 3.238.108.57-.05 1.125-.522 1.563-1.374 1.275-2.81 2.42-4.54 3.227-1.945.908-3.85 1.874-5.972 2.314-1.39.29-2.764.665-4.164.88-1.567.238-3.154.348-4.734.492-.916.083-1.835.136-2.754.176-.563.024-.713-.18-.7-.73.03-1.234.102-2.464.072-3.705-.048-1.972.12-3.95.223-5.924.058-1.126.172-2.248.252-3.37.02-.296.033-.595.008-.89-.06-.704.027-1.476-.76-1.896-.06-.03-.084-.12-.13-.177-.1-.12-.123-.358-.3-.358s-.124.328-.177.495c-.016.05-.005.11-.004.166.026 1.628.08 3.256.067 4.883-.01 1.117.067 2.252-.33 3.336-.03.082-.016.182-.017.275-.046 2.386-.097 4.77-.13 7.157-.006.345-.08.598-.374.708-.208.044-.435.104-.56.103-.203 0-.72 0-.894-.064-.13-.05-.405-.02-.52 0-.117.02-.29-.046-.493.006s-.347.06-.578 0c-.154-.04-.36.112-.116.1.245-.014.418-.057.563-.05.145.007.607.115.737.1.13-.014.434.002.607-.014.174-.015.516-.067.68-.037.16.03.29.178.456.257.416.163.518.505.51.924-.01.407-.02.814-.015 1.22.043 3.497.088 6.994.15 11.797.12 3.315-.274 7.945.187 12.56.17 1.712.37 3.42.585 5.125.02.17.17.467.377.467.208 0 .17-.343.23-.523.03-.082.005-.183-.002-.275-.094-1.16-.22-2.317-.275-3.478-.066-1.365-.07-2.733-.106-4.098-.03-1.163.048-2.324.072-3.484.078-3.736.05-7.475.023-11.213-.015-1.977-.13-3.953-.156-5.93-.01-.844.084-1.69.142-2.534.018-.268.17-.452.45-.477.885-.078 1.77-.227 2.653-.205 2.654.064 5.252-.393 7.862-.76.31-.043.625-.08.927-.16.67-.18 1.34-.366 2.002-.58 1.262-.408 2.528-.81 3.77-1.268.707-.26 1.386-.605 2.053-.958.748-.395 1.466-.848 2.203-1.264 1.083-.61 2.142-1.26 2.938-2.23.244-.297.412-.712.472-1.095.228-1.455-.3-2.76-.912-4.035z"/>
  <path d="M74.465 37.407c-.516-.402-1.134-.78-1.862-.697-1.822.207-3.27.99-4.096 2.71-.248.518-.31 1.037.064 1.518.405.522.828 1.03 1.255 1.533.233.275.552.342.85.15.37-.236.758-.484 1.038-.812.54-.635.386-1.163-.366-1.51-.084-.038-.16-.102-.25-.12-.232-.046-.55-.227-.703-.11-.153.115.248.38.404.54.215.22.42.428.313.77-.092.296-.23.555-.587.58-.373.024-.696-.084-.908-.415-.13-.2-.28-.397-.362-.617-.093-.246-.232-.555-.158-.77.3-.88.74-1.666 1.55-2.218.7-.478 1.47-.48 2.238-.43.36.024.788.168 1.045.408 1.056.987 1.93 2.736 1.102 4.4-.082.164-.103.36-.19.52-.3.547-.516 1.192-.95 1.605-1.014.967-2.126 1.83-3.217 2.712-.458.37-.926.766-1.455 1-.857.382-1.77.636-2.658.952-.398.142-.778.373-1.187.443-.708.122-1.432.147-2.148.22-.33.035-.655.09-.983.13-.308.04-.62.117-.924.092-.662-.054-1.324-.138-1.98-.25-.906-.157-1.843-.247-2.703-.55-2.278-.797-4.18-2.18-5.753-4.01-.25-.293-.546-.6-.656-.952-.298-.95-.526-1.92-.743-2.893-.084-.374.008-.794-.103-1.155-.325-1.046-.074-2.054.122-3.067.09-.46.235-.54.703-.506.48.034.958.08 1.438.1 1.142.05 2.29.034 3.426.142 1.317.124 2.625.354 3.937.535.146.02.295.016.442.026.71.05 1.425.06 2.128.163.394.057.598-.047.722-.396.266-.752.637-1.444 1.084-2.11.39-.578.35-1.25.052-1.86-.257-.527-.616-1.006-.913-1.516-.375-.64-1.076-.8-1.64-1.17-.91-.59-1.878-.834-2.95-.842-.75.086-1.504.15-2.25.266-.454.07-.89.277-1.343.326-1.01.11-1.83.643-2.553 1.25-1.196 1.005-2.12 2.26-2.713 3.724-.122.302-.312.443-.63.43-.11-.003-.222-.023-.33-.01-.085.012-.222.052-.23.1-.02.09.015.212.068.293.058.09.155.16.25.217.446.265.57.66.46 1.142-.428 1.886-.044 3.714.44 5.52.176.66.27 1.382.764 1.933.32.356.615.736.943 1.085 1.51 1.612 3.3 2.838 5.32 3.72 1.243.543 2.57.752 3.896 1 1.822.342 3.635.3 5.402-.075 1.712-.363 3.438-.79 4.988-1.702.97-.57 1.947-1.123 2.764-1.904 1.404-1.343 2.41-2.953 2.98-4.803.168-.544.195-1.184.1-1.747-.21-1.215-.82-2.275-1.795-3.036zM49.977 35.12c.848-1.396 1.675-2.786 3.158-3.685 1.39-.843 2.878-.91 4.412-.954 1.227-.036 2.166.647 3.18 1.156.11.056.206.158.286.257.44.545.883 1.088 1.305 1.647.45.594.49 1.225.078 1.857-.24.37-.497.733-.763 1.086-.253.336-.607.47-1.026.445-.164-.023-.328-.05-.493-.07-.897-.1-1.797-.182-2.69-.3-.932-.125-1.858-.288-2.787-.424-.382-.056-.766-.1-1.15-.126-1.03-.07-2.057-.125-3.085-.192-.483-.03-.672-.29-.425-.695z"/>
  <path d="M44.36 29.31c-.29-1.605-2.354-2.92-4.142-1.416-1.465 1.233-2.383 2.855-3.02 4.635-.433 1.21-.326 2.514-.56 3.763-.14.74-.25 1.487-.387 2.228-.025.14-.098.285-.19.396-.085.105-.22.17-.336.25-.08-.117-.223-.23-.232-.35-.042-.584-.052-1.17-.066-1.756-.006-.236.018-.473.01-.71-.017-.57-.062-1.14-.066-1.71-.003-.443.072-.887.057-1.328-.06-1.774-.123-3.548-.22-5.32-.07-1.235-.164-2.47-.31-3.698-.125-1.066-.34-2.12-.176-3.2.012-.073.024-.17-.013-.218-.078-.105-.035-.242-.285-.277-.25-.037-.15.188-.194.295-.025.06.005.145.02.217.202.887.165 1.796.165 2.705 0 1.605.163 3.195.23 4.8.013.314.028.628.038.943.067 2.072.133 4.144-.14 6.207-.073.542-.297 1.075.028 1.61.033.054.014.144.01.218-.1 1.494-.197 2.987-.296 4.48l-.11 1.66c.015 0 .03 0 .046.002 0 .296-.03.596.006.887.084.658.172 1.32.325 1.962.04.176.357.438.49.44s.216-.352.282-.542c.107-.306.17-.626.268-.936.17-.544.387-1.075.52-1.628.165-.7.26-1.417.396-2.125.09-.47.214-.937.29-1.41.16-1 .266-2.008.452-3.003.213-1.142.54-2.265.72-3.41.22-1.388.626-2.707 1.302-3.925.49-.88 1.128-1.644 2.177-1.94 1.088-.31 2.127.315 2.29 1.43.068.473.09.953.133 1.43.036.385.084.77.11 1.155.04.588.103 1.178.082 1.765-.03.812-.123 1.622-.198 2.432-.05.55-.08 1.108-.185 1.65-.427 2.194-.892 4.38-1.32 6.576-.327 1.687-.626 3.38-.918 5.072-.03.17-.016.55.125.55.14 0 .217-.277.298-.43.4-.753.4-1.603.578-2.41.563-2.556 1.155-5.104 1.678-7.668.436-2.135.577-4.282.614-6.443.013-.734-.1-1.47-.17-2.205-.053-.567-.1-1.14-.203-1.7z"/>
  <path d="M138.6 37.874c-.137-.348-.253-.757-.697-.764-.543-.01-1.148-.065-1.508.486-.21.322-.394.674-.52 1.036-.195.566.08 1.212.585 1.392.15.053.506.087.536-.093.03-.18-.062-.428-.11-.478s-.088-.065-.13-.102c-.26-.237-.358-.512-.178-.84.182-.333.795-.72 1.033-.65.086.027.168.083.236.143.45.396.578 1.645.267 2.17-.354.6-.84.916-1.405 1.328-.46.334-.843.518-1.3.268-.324-.176-.617-.408-.935-.595-.373-.22-.596-.535-.71-.948-.215-.764-.476-1.516-.66-2.287-.298-1.26-.52-2.53-.407-3.84.068-.79.127-1.587.11-2.38-.037-1.698-.12-3.397-.2-5.095-.01-.17-.08-.38-.196-.493-.398-.39-.432-.854-.3-1.335.13-.482.032-.914-.16-1.344-.1-.224-.22-.48-.516-.395-.3.085-.28.368-.22.605.28 1.07.164 2.167.182 3.25.032 1.885-.037 3.772-.043 5.66 0 .324.077.655.153.974.24 1.002.382 1.985-.067 2.985-.302.67-.576 1.37-.73 2.085-.238 1.12-.563 2.153-1.415 2.992-.906.89-2.134.816-2.805-.258-.166-.267-.305-.55-.447-.83-.72-1.414-1.072-2.937-1.3-4.49-.246-1.692-.2-3.392-.06-5.09.063-.783.23-1.564.224-2.345-.01-1.143-.12-2.285-.215-3.425-.02-.227-.123-.48-.267-.654-.116-.14-.336-.337-.535-.27-.2.065-.324.412-.108.96.128.323.136.687.14 1.032.016 1.406.007 2.812.007 4.218h-.03c0 1.314-.03 2.628.012 3.94.027.83.082 1.673.273 2.476.34 1.435.816 2.834 1.388 4.2.318.757.9 1.26 1.59 1.626.245.13.617.118.904.053.823-.186 1.555-.57 2.133-1.205.222-.244.524-.454.646-.74.286-.676.473-1.392.726-2.08.07-.19.23-.342.35-.512.15.166.355.307.44.5.264.61.475 1.24.725 1.857.068.167.18.324.3.46.737.818 1.627 1.26 2.758 1.106.164-.022.332-.014.498-.008.87.03 1.246-.5 1.78-1.024.075-.074.15-.347.183-.47.082-.316.125-.653.266-.94.206-.42.23-.807.017-1.217-.104-.2-.207-.397-.29-.603z"/>
  <path d="M143.553 20.757c-.98.686-1.91 1.473-2.266 2.712-.073.252-.096.595-.48.574-.39-.02-.426-.35-.49-.642-.01-.054-.025-.108-.037-.162-.23-1.027-.92-1.797-1.494-2.627-.073-.105-.326-.215-.525-.1-.198.113-.12.442-.073.555.047.112.108.194.19.263.57.475.903 1.1 1.236 1.75.62 1.21.973 2.496 1.224 3.82.162.852.294 1.71.487 2.555.27 1.187.606 2.36.878 3.545.198.862.367 1.733.498 2.607.17 1.144.672 2.24.448 3.648.13 1.15.28 2.506.438 3.86.015.125.052.277.136.355.11.102.293.216.414.19.106-.025.22-.23.24-.367.03-.195-.016-.403-.042-.604-.103-.786-.222-1.568-.313-2.354-.136-1.19-.13-2.386-.4-3.57-.37-1.632-.604-3.296-.944-4.936-.235-1.132-.554-2.246-.83-3.37-.075-.304-.12-.616-.195-.92-.22-.9-.385-1.806-.157-2.73.097-.392.247-.773.34-1.167.288-1.215 1.208-1.91 2.14-2.575.415-.296.918-.2 1.264.167.4.427.664.913.676 1.532.014.684-.027 1.327-.538 1.856-.182.188-.245.446-.033.644.24.225.527.113.677-.105.225-.327.51-.7.53-1.066.043-.815.07-1.627-.238-2.45-.356-.948-1.544-1.74-2.76-.89z"/>
  <path d="M99.943 40.267c-.396-.077-.638.11-.68.522-.048.478.166.798.65 1.052.81.427 1.616.466 2.515.243 1.6-.397 2.307-1.4 1.965-3-.012-.054-.017-.11-.032-.163-.29-1.046-1.354-1.847-2.44-1.89-.935-.037-1.776.233-2.607.628-1.49.708-2.89 1.516-3.612 3.1-.71 1.563-.687 3.4 1.17 4.485 1.28.748 2.64 1.196 4.138 1.18.314-.002.64-.008.94.066.63.156 1.206.004 1.783-.216 1.238-.474 2.477-.94 3.51-1.813.308-.26.686-.433 1.014-.67.087-.064.233-.235.163-.326-.07-.09-.245-.072-.348-.04-.174.05-.358.128-.49.248-1.142 1.04-2.573 1.51-3.995 1.95-.615.19-1.317.095-1.98.13-1.635.142-3.106-.37-4.513-1.12-.66-.35-1.05-.918-1.137-1.67-.14-1.212.312-2.248 1.132-3.07 1.042-1.044 2.302-1.815 3.74-2.18.62-.158 1.328-.14 1.965-.03.606.107.627.808.875 1.267.018.032.034.065.05.098.32.714.1 1.412-.58 1.812-.738.433-1.55.59-2.39.595-.45.003-.646-.252-.506-.682.105-.326-.01-.45-.297-.506z"/>
  <path d="M9.472 19.726c-.183.02-.37.022-.547.067-.135.035-.414.1-.382.19.032.09.195.21.315.263.183.08.387.162.58.157.283-.007.675.17.796-.267.075-.273-.18-.396-.762-.41z"/>
  <path d="M3.697 20.043c-.15.015-.5.208-.5.322s.406.272.702.272.928-.144.925-.362c-.002-.124-.807-.264-1.128-.232z"/>
  <path d="M1.164 19.96c-.07.008-.114.063-.155.116-.042.053.062.118.16.118s.397-.04.38-.103c-.016-.062-.235-.143-.386-.13z"/>
  <path d="M6.575 19.84c-.216.055-.614.152-.614.295 0 .144.42.296.634.318.215.022 1.028-.216.932-.403-.097-.186-.762-.26-.95-.21z"/>
</svg>
