<!--
  SVG Music Logos
  Queensrÿche - Tri-Ryche v1.0.0
  https://github.com/tiagoporto/svg-music-logos
  Copyright (c) 2016 Tiago Porto (http://tiagoporto.com)
-->
<svg xmlns="http://www.w3.org/2000/svg" viewBox="0 0 200 200">
  <path d="M122.02 19.18c8.417 6.34 14.76 17.178 7.84 17.178-7.548 0-26.894-25.35-29.86-34.358-2.966 9.008-22.312 34.358-29.86 34.358-6.92 0-.577-10.838 7.84-17.18-46.316 0-86.236 35.702-69.408 94.427 2.33-28.358 18.966-54.995 42.313-35.626-2.998-17.872 15.68-24.097 26.403-5.42 5.88-12.22 12.098-5.45 12.098.683 0 5.015-4.605 9.81-10.464 3.825C56.59 80.804 42.24 98.68 44.486 118.216 53.826 100 67.372 97.002 83.974 100L100 198l16.026-98c16.602-2.998 30.15 0 39.488 18.216 2.246-19.536-12.104-37.413-34.436-41.148-5.86 5.984-10.464 1.19-10.464-3.825 0-6.134 6.218-12.904 12.098-.683 10.722-18.678 29.4-12.452 26.403 5.42 23.347-19.37 39.982 7.267 42.313 35.625C208.256 54.88 168.336 19.18 122.02 19.18zM100 52.844l-6.114-7.264L100 38.32l6.114 7.264L100 52.845z"/>
</svg>
