<!--
  SVG Music Logos
  Beastie Boys - Check Your Head v1.0.0
  https://github.com/tiagoporto/svg-music-logos
  Copyright (c) 2016 Tiago Porto (http://tiagoporto.com)
-->
<svg xmlns="http://www.w3.org/2000/svg" viewBox="0 0 200 30">
  <path d="M48.95 3.047c.52-.576 1.345-.635 2.038-.884.51-.187 1.086.082 1.337.546.534.93.902 1.95 1.522 2.827.514.738.74 1.622 1.205 2.382.76 1.134 1.148 2.464 1.838 3.642.735 1.568 1.495 3.123 2.26 4.675.618 1.55 1.567 2.946 2.11 4.532.313 1.09.777 2.125 1.224 3.17.183.697.233 1.578-.355 2.11-.435.372-.94.816-1.55.767-1.078-.095-2.012-.87-2.44-1.844-.613-1.325-1.37-2.572-2.07-3.853-1.203.38-2.435.656-3.662.945-.874.1-1.77.064-2.623.31-.378.497-.352 1.16-.51 1.74-.336 1.283-.192 2.753-1.07 3.842-.794.912-2.29.725-3.08-.095-.762-.928-1.118-2.116-1.317-3.282-1.396-.1-2.782.156-4.13.484-2.245.295-4.426.927-6.65 1.322-1.147.08-2.26.402-3.408.45-.92.093-1.738-.503-2.4-1.07-.747-1.166-.87-2.598-1.132-3.927-.195.06-.407.088-.57.217-1.65 1.102-3.32 2.175-5.158 2.933-2.8 1.13-5.68 2.088-8.664 2.59-1.257.13-2.525.062-3.782-.015-1.218-.064-2.207-1.053-2.59-2.162-.214-.543-.223-1.204.16-1.675.484-.848 1.564-.96 2.208-1.647.006-1.05-.035-2.102-.277-3.127-.784-.41-1.723-.763-2.122-1.62-.343-.768-.826-1.728-.254-2.515.35-.78 1.194-1.078 1.802-1.604.347-.45.205-1.048.186-1.57-.125-.682-.13-1.377-.145-2.066-.705-.236-1.323.315-1.98.484-1.085.418-2.357.113-3.16-.712C1.11 8.473.653 7.163 1.35 6.2c.5-.83 1.47-1.2 2.36-1.437 1.036-.335 2.105-.538 3.147-.843.66-.405 1.178-1.135 2-1.214.547-.09 1.02.223 1.526.356 1.017.14 2.002-.246 3.018-.22 2.418-.04 4.92-.215 7.225.66.858.378 1.745.84 2.253 1.666.28.492.583.978.817 1.496.037.722.015 1.452-.064 2.172-.518.85-1.18 1.61-1.968 2.226-.247.195-.44.448-.62.707.94.355 1.933.51 2.916.686.204.105.395.233.59.348.255.16.514.305.774.454.414-1.396.05-2.84.05-4.258-.07-1.204.177-2.39.307-3.58.574-.837 1.65-1.15 2.627-1.093 1.13.056 2.273.018 3.392.205 1.886-.02 3.79.14 5.662-.138.574-.087 1.13.254 1.7.09.867-.223 1.764-.072 2.65-.082.7-.044 1.338.282 1.958.56.183 1.028.605 2.058.374 3.11-.206.606-.738 1.115-1.36 1.272-2.5.028-4.996.26-7.496.364-1.712.11-3.45.054-5.13.46.03.5.013 1.01.124 1.503.215.37.72.298 1.084.39 2.188.215 4.39.115 6.583.06 1.41-.03 2.822-.265 4.23-.093.455.018.702.438.94.766.285.85 1.087 1.61.836 2.564-.365.743-.948 1.512-1.81 1.668-1.646-.018-3.232.505-4.867.61-1.372.282-2.784.03-4.16.287-.738-.005-1.45.195-2.18.274-.306.656.003 1.37.07 2.05.056.05.17.143.226.192 1.268.095 2.544-.013 3.784-.282 1.808-.197 3.594-.58 5.414-.67.812.006 1.626-.035 2.426-.176.714-.125 1.42.084 2.114.22.41-2.89 1.005-5.75 1.538-8.615.407-1.583.902-3.143 1.13-4.768.323-.587.782-1.114.984-1.768.11-.45.07-.982.423-1.333zM12.3 8.317c-1.012.31-.595 1.572-.534 2.34.105-.004.315-.017.42-.025.056-.07.17-.202.228-.272 1.242-.79 2.6-1.394 3.898-2.095.052.023.16.064.213.087-.004-.192-.007-.38-.007-.57-1.422 0-2.846.17-4.218.534zm38.907 3.4c-.253 1.06-.502 2.12-.69 3.193-.03.374-.178.827.122 1.137.96.087 1.908.31 2.88.195.05-.682-.252-1.314-.563-1.898-.523-.794-.926-1.652-1.392-2.477.024-.05.077-.143.1-.195-.114.013-.344.036-.458.046zm-37.904 5.49c-.387.114-.827.17-1.118.48-.068.572.064 1.136.143 1.7.053.783.06 1.572.082 2.358.92.085 1.784-.27 2.594-.658 1.746-.428 3.308-1.35 4.924-2.103.733-.412 1.56-.69 2.165-1.294l-.334-.384c-.873-.282-1.802-.3-2.7-.448-1.923-.06-3.883-.167-5.757.348z"/>
  <path d="M90.995 11.78c.056-.776.73-1.468 1.513-1.532.617-.056 1.254-.072 1.86.07.726.852.826 2.005.918 3.07.147 2.5.132 5.007.382 7.497.08 1.55.52 3.108.164 4.655-.34.58-.97 1.027-1.665.966-1.04.115-1.915-.72-2.212-1.66-.148-1.14-.4-2.265-.603-3.397-.463-3.202-.38-6.445-.357-9.67z"/>
  <path d="M98.436 4.192c-.953-.115-1.92.05-2.867.17-1.157.15-2.322.012-3.48.09-2.075.168-4.155.232-6.23.383-2.58-.06-5.154.26-7.734.126-.554-.01-1.12-.025-1.65.147-.574.23-1.08.597-1.63.876-.18-.305-.355-.612-.54-.915-.412-.525-1.025-.856-1.6-1.173-1.058-.37-2.117-.88-3.263-.866-1.072-.03-2.15-.052-3.218.07-1.12.17-2.07.818-3.06 1.315-.787.364-1.318 1.08-1.944 1.647-.87.917-1.98 1.704-2.424 2.936-.147.87-.078 1.765-.078 2.644-.017 1.132.55 2.198 1.346 2.977 1.075 1.044 2.49 1.646 3.936 1.977 1.11.26 2.225.55 3.367.617 1.453-.023 2.885.292 4.34.174 1.415.108 2.89.19 4.178.856.063.18.072.397-.056.553-.5.75-1.17 1.365-1.9 1.886-.45.302-.862.774-1.457.71-1.4-.003-2.855.14-4.208-.31-1.344-.36-2.49-1.26-3.348-2.33-.626-.403-1.486-.37-2.114.012-.367.223-.597.6-.8.966-.08 1.297.142 2.642.84 3.754 1.266 1.64 3.223 2.64 5.208 3.118 1.617.32 3.287.302 4.92.16 3.44-.452 6.403-3.006 7.564-6.244.566-1.248.41-2.687.028-3.963-.224-.748-.483-1.568-1.15-2.042-1.96-1.45-4.412-2.042-6.8-2.303-1.467-.428-3.01-.14-4.494-.412-1.43-.09-2.913-.28-4.202-.933-.018-.09-.05-.266-.067-.358.584-.766 1.354-1.376 2.134-1.94 1.09-.934 2.68-.77 3.89-.168.456.21.964.365 1.323.732.386.546.71 1.16 1.254 1.573.517.456 1.274.376 1.903.26.467-.22.71-.693 1.004-1.088l.177-.195c.772.318 1.533.756 2.39.76 1.516-.004 3.02-.3 4.534-.255.59-.046.678.656.747 1.086.13 1.386.502 2.746.46 4.145-.022 1.665.114 3.325.36 4.967.072 1.84.43 3.643.737 5.454.168.903 1.084 1.454 1.907 1.695.866.213 1.68-.407 2.087-1.13.2-1.657-.343-3.277-.347-4.93-.02-1.7-.22-3.39-.32-5.09-.33-2.164-.248-4.36-.3-6.542 3.39-.64 6.87-.53 10.268-1.135 1.134-.28 1.538-1.66 1.4-2.695-.128-.678-.3-1.542-1.022-1.82z"/>
  <path d="M198.962 17.675c-.315-.925-1.03-1.63-1.752-2.254-1.706-1.262-3.606-2.246-5.562-3.06-2.462-.87-5.1-1.04-7.59-1.816-.057-.692.762-.856 1.22-1.178 1.273-.75 2.785-.77 4.21-.58 1.464.308 2.748 1.215 3.75 2.302.554.6 1.606.71 2.208.12.97-.85 1.364-2.265 1.097-3.512-.444-.853-1.17-1.527-1.948-2.073-1.843-1.094-3.93-1.752-6.056-1.99-2.217-.03-4.446.59-6.29 1.824-.197.07-.4.128-.597.187.004-.922.02-1.845.023-2.77-.963-.737-2.18-.25-3.256-.178-.673 1.388-1.866 2.388-2.826 3.563-.592.62-.94 1.434-1.583 2.008-.616.543-.97 1.3-1.495 1.916-.68.243-1.187-.51-1.683-.855-1.51-1.118-3.056-2.202-4.44-3.48-.474-.49-.83-1.125-1.463-1.43-.814-.135-1.725-.19-2.456.257-.345.26-.694.62-.68 1.08-.086.5.014 1.105-.326 1.52-.72.033-1.428-.16-2.142-.23-.833-.12-1.673-.02-2.504.01-.77.032-1.486-.313-2.247-.33-.52-.014-1.04.017-1.557.066-1.016.115-1.752.93-2.418 1.627-1.034 1.245-1.8 2.677-2.468 4.14-.138.494-.725.36-1.085.238-.823-.325-1.706-.435-2.542-.717-.587-.196-1.196-.317-1.81-.376.024-.164.06-.328.104-.492.952-.866 2.04-1.61 2.844-2.628.702-.88.172-2.003.005-2.967-.14-1.084-1.128-1.8-2.058-2.208-1.478-.613-3.11-.757-4.693-.723-1.828-.072-3.66.013-5.462.318-2.393-.003-4.76.47-7.072 1.068-.974.43-2.19.618-2.827 1.55-.134.553-.094 1.13-.065 1.688-.012.962.753 1.764 1.595 2.122.944.51 2-.056 2.886-.443.398-.214.836-.324 1.28-.4.196.878.3 1.79.21 2.69-.035.22-.022.527-.29.6-.634.29-1.313.462-1.954.73-.33.252-.652.54-.837.916-.09 1.358.346 3.043 1.754 3.548.477.06.956.105 1.437.16.297 1.846.182 3.726.192 5.59-1.053.186-2.075.488-3.107.75-.383.177-.666.533-.84.907-.036.71-.096 1.464.26 2.11.306.85 1.19 1.373 2.07 1.39 1.645.055 3.256-.37 4.898-.358 1.63-.297 3.28-.512 4.933-.62 1.97-.405 3.966-.69 5.9-1.255 1.61-.395 3.253-.874 4.62-1.847.4-.26.737-.84 1.29-.666 1.197.978 2.628 1.637 4.105 2.075 1.522.347 3.096.424 4.65.363 1.398-.16 2.87-.148 4.155-.804 1.547-.685 2.598-2.08 3.574-3.403.78-1.445.962-3.105.976-4.72-.023-1.223-.26-2.438-.23-3.662.256.136.52.274.766.435.684.518 1.33 1.094 2.085 1.512.497.305 1.068.574 1.38 1.094.24.815.182 1.67.22 2.51.142 2.154.425 4.296.695 6.438.182 1.02 1.076 1.716 2.038 1.94.698.117 1.24-.42 1.746-.813.453-2.138-.076-4.282-.167-6.43-.156-1.56-.173-3.132-.14-4.697-.01-.53.297-.98.606-1.383.86-1.26 1.654-2.564 2.518-3.822l.137-.16c.083-.035.25-.107.336-.142-.13 1.076-.275 2.177.078 3.233.64 1.19 1.77 2.097 3.037 2.556 2.887 1.11 6.11.984 8.948 2.252.91.48 1.83.958 2.63 1.61l.035.376c-.82.77-1.948 1.09-2.957 1.537-.598.293-1.232.53-1.893.62-.902.167-1.82-.23-2.487-.816-.82-.7-1.787-1.212-2.534-1.998-.627-.722-1.643-.817-2.528-.945-.542.265-.997.685-1.372 1.15-.076.583-.08 1.177-.2 1.756.516 1.404 1.783 2.285 2.796 3.31 1.472 1.39 3.252 2.767 5.385 2.713 2.337.153 4.59-.66 6.663-1.66 1.807-1.003 3.42-2.604 3.96-4.648.116-.98.297-1.96.18-2.937zm-65.127-9.4c.05-.515.698-.482 1.073-.582 1.482-.192 2.984-.387 4.48-.246-.06.162-.11.328-.16.492-1.312.827-2.607 1.713-4.07 2.26-.362.188-.828.526-1.21.186-.158-.69-.172-1.41-.113-2.11zm12.446 10.77c-.592.605-1.405.89-2.184 1.166-2.51.928-5.14 1.566-7.81 1.776-.59.12-1.176.28-1.775.33v-.222c-.445-1.847-.464-3.748-.428-5.636 1.36-.448 2.807-.4 4.218-.333 1.027.082 2.056.184 3.06.42 1.612.29 3.226.653 4.725 1.335.243.133.574.25.635.563.044.307-.23.45-.44.602zm16.655-1.724c-.384 1.07-1.337 1.728-2.146 2.453-.547.548-1.377.512-2.074.722-1.186.205-2.504.32-3.62-.218-1.17-.36-2.536-.907-2.89-2.214-.082-1.178-.166-2.43.324-3.538.277-.697.56-1.404 1.03-1.996.47-.564 1.26-.654 1.938-.772 1.26-.084 2.523-.108 3.786-.036 1.387.243 2.862.902 3.46 2.267.34 1.074.22 2.224.19 3.33z"/>
  <path d="M100.592 5.048c.277-.448.796-.633 1.3-.658 3.087-.013 6.176-.003 9.262.046 1.312.215 2.644.064 3.966.128.967.072 1.947-.102 2.908.085.57.165.936.744.925 1.323.008.628.1 1.263.01 1.89-.147.472-.502.82-.815 1.187-2.945.425-5.93.06-8.887.318-1.603.12-3.222.1-4.815.343-.287.027-.387.362-.37.606-.02.625.087 1.242.18 1.86 1.605.172 3.214-.133 4.823-.115 2.024-.112 4.046-.17 6.066.024.434.028.693.507.77.89.053.873.502 1.77.112 2.622-.146.435-.507.746-.89.968-3.415.3-6.828.65-10.226 1.122-.32.05-.727.115-.808.492-.26 1.073-.172 2.198-.09 3.287.963-.015 1.912-.187 2.863-.343 2.114-.225 4.223-.48 6.34-.684 1.706-.14 3.403-.546 5.126-.356.348.246.735.528.72 1.004.05.863.507 1.755.11 2.593-.277.61-.892 1.165-1.603 1.095-.893-.025-1.733.36-2.623.36-3.335.432-6.65 1.042-9.93 1.774-1.068.253-2.204.537-3.287.253-.797-.443-1.523-1.186-1.678-2.116-.34-1.312-.227-2.68-.484-4-.076-1.1.072-2.204-.028-3.3-.33-.89-1-1.707-.92-2.703.09-.702.275-1.432.78-1.957.55-.53.332-1.33.355-2.006.014-1.13-.05-2.264.064-3.388.21-.897.482-1.776.775-2.644z"/>
</svg>
