<!--
  SVG Music Logos
  Dimmu Borgir - Enthrone Darkness Triumphant v1.0.0
  https://github.com/tiagoporto/svg-music-logos
  Copyright (c) 2016-2018 Tiago Porto (http://tiagoporto.com)
-->
<svg xmlns="http://www.w3.org/2000/svg" viewBox="0 80 200 42">
  <path d="M94.153 119.731h2.362v1.348H92.92v-2.168a4.812 4.812 0 0 1-.892.82c-2.526 1.767-5.915 2.147-8.481-.893-1.258-1.49-1.514-3.213-1.514-6.204v-29.77h-2.362v-1.168h5.443v27.369c0 5.539.01 6.789.606 7.796.488.825 1.378 1.206 2.239 1.238 1.054.039 2.091-.458 2.722-1.579.324-.575.366-1.297.366-2.036-.001-1.63.025-3.016.025-4.933V81.696h5.443v1.167h-2.362v36.868z"/>
  <path d="M73.818 121.08h5.238v-1.348h-2.362l-.084-32.874c.362-5.62-7.18-7.28-10.412-3.344-2.878-2.873-6.607-2.913-9.223.403v-2.221h-3.389v1.167h2.157v36.868h-2.157v1.348h5.443V86.836c0-3.33 5.751-3.545 5.751-.161v34.405h3.184V86.594c0-3.029 5.423-3.614 5.814.017l.04 34.469z"/>
  <path d="M47.012 121.08h5.238v-1.348h-2.404V86.668c0-5.793-7.222-7.089-10.454-3.153-2.878-2.873-6.607-2.913-9.223.403v-2.222H26.78v1.167h2.157v36.868H26.78v1.348h5.443V86.836c0-1.751 1.438-2.709 2.876-2.734 1.438-.025 2.876 1.175 2.876 2.867v34.111h3.184V86.594c0-1.506 1.521-2.492 2.967-2.492 1.553 0 2.847.757 2.847 2.509l.039 34.469z"/>
  <path d="M24.827 81.696v1.167h-1.849v36.868h1.849v1.348h-7.189v-1.348h1.951V82.864h-1.951v-1.168h7.189z"/>
  <path d="M181.126 81.696v1.167h-1.849v36.868h1.849v1.348h-7.189v-1.348h1.951V82.864h-1.951v-1.168h7.189z"/>
  <path d="M9.274 81.696H1v1.164h2.567v36.871H.999v1.348h9.422c2.87 0 4.753-2.395 4.753-5.423V87.481c0-3.95-2.549-5.785-5.9-5.785zm3.032 33.4c0 2.404-.837 2.868-2.744 2.868H6.341V84.846h3.287c2.122 0 2.742 1.107 2.678 3.036v27.214z"/>
  <path d="M121.734 97.123v-8.688c-.063-3.65-2.241-6.739-6.304-6.739-2.841.005-5.68-.003-8.521 0v1.168h2.306v37.098h-2.085v1.118h9.03c4.177-.62 5.523-3.664 5.574-7.51v-11.469l-2.691-2.317c.891-.894 1.767-1.801 2.691-2.661zm-3.204 16.444c-.035 4.496-2.364 4.633-6.112 4.57v-16.753h3.541l2.571 2.214v9.969zm0-17.807l-2.331 2.312h-3.781V84.519h2.957c2.306.141 3.128 1.846 3.155 3.921v7.32z"/>
  <path d="M131.974 80.831c-3.244 0-5.899 2.678-5.899 5.952v28.461c0 3.274 2.654 5.952 5.899 5.952 3.244 0 5.899-2.679 5.899-5.952V86.783c0-3.274-2.654-5.952-5.899-5.952zm3.062 33.815c0 1.699-1.378 3.089-3.062 3.089s-3.062-1.39-3.062-3.089V86.917c0-1.699 1.378-3.09 3.062-3.09s3.062 1.39 3.062 3.089v27.73z"/>
  <path d="M196.788 119.732v-18.039l-2.273-2.43 2.273-2.508-.027-9.954c0-2.843-1.906-5.105-5.146-5.105h-8.947v1.167h2.095v36.868h-2.095v1.348h5.341v-20.091h3.684l2.234 2.038v18.054h5.062v-1.348h-2.201zm-2.979-24.231l-2.508 2.351h-3.292V84.846h2.978c2.055 0 2.822.862 2.822 2.739v7.916z"/>
  <path d="M154.691 119.732v-18.039l-2.273-2.43 2.273-2.508-.027-9.954c-.243-2.817-2.323-5.105-5.146-5.105h-8.947v1.167h2.095v36.868h-2.095v1.348h5.341v-20.091h3.684l2.273 2.038-.078 18.054h5.09l.023-1.348h-2.213zm-2.979-24.231l-2.508 2.351h-3.292V84.846h2.978c1.79-.129 2.631.906 2.822 2.739v7.916z"/>
  <path d="M165.112 80.702c3.245 0 5.899 2.678 5.899 5.952v1.926h-2.837v-1.792c0-1.699-1.378-3.089-3.062-3.089s-3.062 1.39-3.062 3.089v27.73c0 1.699 1.378 3.089 3.062 3.089s3.062-1.39 3.062-3.089V99.6h-2.098v-1.194l4.935-.005v16.714c0 3.273-2.655 5.952-5.899 5.952-3.245 0-5.899-2.678-5.899-5.952V86.654c-.001-3.273 2.654-5.952 5.899-5.952z"/>
</svg>
