<svg xmlns="http://www.w3.org/2000/svg" width="615.712" height="108.226">
  <path d="M104.159 582.234c-15.933-2.006-29.346-12.013-35.653-26.6-5.72-13.231-5.157-31.23 1.4-44.751 3.34-6.89 8.894-13.643 14.882-18.095 3.008-2.237 11.638-6.796 12.062-6.372.117.118-2.128 2.536-4.99 5.374-5.617 5.569-8.32 9.263-10.356 14.155-3.7 8.89-4.345 20.585-1.707 30.986 1.054 4.153 4.051 10.59 6.128 13.159 1.319 1.63 1.357 1.648 1.803.817 1.221-2.283 1.303-3.678 1.512-25.886l.212-22.628 15.402-13 15.4-13.001 4.762 2.385c7.595 3.805 15.579 6.093 23.124 6.629l3.36.238-13.967 15.297-3.142-1.346c-2.718-1.163-15.042-5.721-17.558-6.494l-.87-.267v74.71l1.388.261c2.58.484 11.384-.093 14.673-.963 5.89-1.556 12.777-5.45 18.902-10.684 3.973-3.396 4.473-3 2.024 1.604-6.579 12.368-16.142 20.26-28.327 23.375-5.574 1.426-14.188 1.888-20.464 1.097zm7.933-53.549c0-20.966-.102-38.12-.227-38.12s-1.561 1.142-3.193 2.54l-2.965 2.54-.213 18.068c-.233 19.76-.248 19.896-2.71 25.187-1.767 3.796-4.366 7.202-8.849 11.597l-4.09 4.008 2.398 2.254c2.802 2.633 5.882 4.788 9.4 6.575 2.589 1.315 8.57 3.43 9.772 3.457.64.014.677-2.053.677-38.106zm54.123 50.796c-2.832-3.212-4.637-5.792-6.026-8.611-1.85-3.752-2.24-5.714-2.195-11.03.034-4.152.191-5.304 1.104-8.128 2.006-6.205 5.71-12.23 10.988-17.872 1.31-1.4 2.38-2.667 2.38-2.817 0-.15-1.567-4.714-3.483-10.142-1.915-5.428-3.483-9.941-3.483-10.03 0-.09 1.357-.162 3.015-.162 5.29 0 9.856-1.71 13.024-4.877l1.587-1.587 10.248 3.81c5.636 2.097 10.508 3.81 10.828 3.81.319-.002 1.45-.692 2.513-1.535 1.599-1.266 2.022-1.444 2.443-1.022.421.42.27.905-.873 2.793-.76 1.257-1.946 3.678-2.636 5.38l-1.254 3.097-.112 21.673c-.125 24.15-.14 23.992 2.452 25.969l1.302.994 1.397-1.065 1.396-1.065 1.213 1.213c.668.667 1.136 1.271 1.04 1.343-.095.07-2.873 2.546-6.172 5.501a3653.78 3653.78 0 0 1-6.857 6.131l-.859.76-2.153-1.626c-4.03-3.044-6.039-6.745-6.754-12.454-.22-1.751-.463-3.247-.54-3.325-.078-.077-4.51 3.782-9.85 8.576-6.91 6.203-9.975 8.716-10.63 8.716-.644 0-1.562-.726-3.053-2.418zm20.868-17.443 2.813-2.68-.103-8.743-.104-8.744-7.16-3.963c-3.938-2.179-7.282-3.97-7.43-3.98-.393-.026-2.455 4.462-3.193 6.948-2.787 9.39-.49 20.093 5.807 27.064l1.44 1.594 2.559-2.408c1.407-1.325 3.824-3.615 5.371-5.088zm2.791-31.902-.008-8.804-10.081-3.81c-5.545-2.097-10.175-3.718-10.29-3.604-.231.232 5.13 15.53 5.823 16.614.315.493 13.649 8.225 14.467 8.39.053.01.093-3.943.09-8.786zm34.097 46.324-5.875-5.508 1.078-1.203c.593-.66 1.654-1.827 2.359-2.59l1.281-1.39-.115-22.025-.114-22.025-.968-1.707c-1.42-2.504-2.047-2.765-3.437-1.433l-1.143 1.095-1.174-1.3-1.175-1.3 6.417-6.44 6.417-6.44 1.402.818c2.005 1.17 5.241 4.496 6.198 6.372 1.144 2.241 1.976 5.67 1.976 8.14v2.093l1.451-1.081c2.605-1.942 7.546-6.23 12.675-11.002l5.03-4.681 5.108 5.337 5.108 5.337 2.835-2.806c1.56-1.543 3.019-2.806 3.243-2.806.418 0 2.09 1.613 2.09 2.017 0 .124-1.108 1.854-2.463 3.845-4.113 6.045-3.73 3.2-3.73 27.615 0 23.262-.024 22.97 2.074 24.663 1.094.883 1.601.854 2.983-.168l1.155-.854 1.17 1.17 1.17 1.17-5.55 5.044a974.304 974.304 0 0 1-6.971 6.29l-1.421 1.248-1.68-1.156c-2.379-1.636-4.471-4.075-5.586-6.51-1.858-4.058-2.022-6.407-2.036-29.164l-.014-21.101-3.222-3.205-3.221-3.205-5.1 4.094-5.098 4.094v39.58l2.095 2.785 2.096 2.784-3.353 3.251a1163.58 1163.58 0 0 1-5.722 5.51l-2.368 2.257-5.875-5.509zm81.047 3.095c-5.35-3.928-14.507-8.275-20.705-9.83-3.718-.931-3.798-.968-3.063-1.38 1.143-.642 2.774-3.456 3.3-5.696.409-1.734.527-7.016.531-23.777l.006-21.549 2.226-.645c4.452-1.291 10.806-4.481 10.36-5.201-.103-.168-4.108-3.07-8.899-6.448l-8.71-6.144-.004-8.247c-.003-6.494.099-8.185.48-7.958.266.16 10.377 7.145 22.47 15.525 12.092 8.38 22.21 15.322 22.486 15.427.275.106.811-.283 1.191-.863.983-1.5 2.525-2.875 3.87-3.45 1.587-.68 1.81-.406 1.045 1.282-.592 1.305-.664 4.173-.765 30.133l-.11 28.69-2.986 1.055c-6.238 2.202-12.899 5.933-17.366 9.725-1.099.933-2.056 1.68-2.129 1.66-.072-.02-1.525-1.059-3.228-2.31zm11.417-33.394v-22.193l-5.626-3.948c-3.095-2.172-5.868-4.041-6.163-4.154-.296-.114-1.508.415-2.695 1.174l-2.157 1.38v43.344l1.451.625c1.438.619 14.907 5.932 15.094 5.954.053.006.096-9.976.096-22.182zm39.863 33.72c-3.615-3.375-10.173-7.168-16.916-9.781l-2.789-1.081 1.325-1.548c2.836-3.314 2.706-1.308 2.706-41.495v-35.992l-.842-1.572c-.463-.865-1.626-2.607-2.585-3.87-.959-1.264-1.608-2.437-1.442-2.607.486-.5 5.319 1.517 8.157 3.403 1.441.959 2.832 1.743 3.09 1.743s1.617-1.051 3.019-2.336c1.402-1.285 3.78-2.943 5.284-3.685 2.574-1.27 7.306-2.5 7.782-2.025.119.119-.723 1.156-1.871 2.304-1.251 1.25-2.616 3.168-3.406 4.785l-1.319 2.699-.173 73.145 4.483 3.096c2.465 1.703 4.803 3.25 5.196 3.438.554.264 1.145-.02 2.63-1.262l1.914-1.604 1.044 1.241 1.045 1.241-7.102 6.888a2927.636 2927.636 0 0 1-7.102 6.876c0-.006-.958-.907-2.128-2zm36.766.615c-5-3.201-13.282-6.633-17.703-7.335l-1.642-.26 1.214-1.384c.668-.76 1.58-2.175 2.029-3.143.795-1.718.82-2.377 1.008-26.383l.194-24.622 4.064-2.104c4.053-2.099 10.661-6.334 14.719-9.435l2.141-1.636 9.663 10.652c5.314 5.86 9.705 10.847 9.756 11.085.052.238-1.07 1.303-2.492 2.367-3.906 2.923-10.553 8.327-17.09 13.895l-5.861 4.994v16.72l5.847 2.792 5.848 2.792 4.892-3.481 4.892-3.48 1.09 1.267 1.09 1.267-1.09.856c-.6.471-3.267 2.48-5.927 4.464-2.661 1.984-6.727 5.169-9.035 7.078-2.309 1.908-4.486 3.678-4.838 3.933-.528.382-1.015.224-2.77-.9zm6.019-43.363c3.714-3.123 6.752-5.832 6.752-6.02 0-.389-13.05-14.744-13.584-14.941-.202-.075-.348 5.492-.348 13.255 0 7.361.096 13.384.214 13.384.117 0 3.252-2.555 6.966-5.678zm27.696 39.314-5.826-5.478 2.325-2.616 2.325-2.615-.112-22.01c-.11-21.759-.121-22.027-.954-23.583-1.44-2.69-2.463-2.982-3.991-1.14-.46.555-.647.489-1.81-.638l-1.296-1.256 6.098-6.208c3.354-3.415 6.311-6.265 6.571-6.333.727-.193 3.678 1.995 5.649 4.187 2.107 2.343 3.24 5.152 3.808 9.44.229 1.724.465 3.19.526 3.257.06.068 4.786-3.599 10.501-8.148 5.716-4.548 10.624-8.41 10.907-8.582.66-.4 2.311 1.146 4.537 4.247 2.078 2.895 3.753 6.382 4.642 9.669.372 1.374.846 2.498 1.053 2.498.53 0 8.108-6.403 13.904-11.748l4.883-4.503 5.076 5.28 5.075 5.281 2.853-2.767c1.57-1.521 3.013-2.766 3.21-2.766.195 0 .823.488 1.395 1.085l1.04 1.085-1.145 1.557c-.63.856-2.11 3.093-3.29 4.972l-2.144 3.416v21.324c0 23.48-.05 22.947 2.407 24.75 1.093.8 1.652.703 3.491-.614.574-.41.85-.307 1.852.695l1.177 1.178-6.475 5.784c-3.562 3.182-6.797 6.018-7.19 6.303-.631.457-.959.329-2.802-1.093-3.332-2.57-5.104-5.339-6.253-9.766-.536-2.066-.657-5.78-.809-24.766l-.178-22.336-3.169-2.877-3.168-2.876-4.909 3.926-4.909 3.927-.013 19.95-.013 19.951 1.666 2.303c.917 1.266 1.802 2.527 1.967 2.8.317.526.382.455-6.807 7.393l-4.142 3.996-6.004-5.508-6.003-5.508 2.32-2.611 2.321-2.612-.11-21.431c-.1-19.797-.162-21.53-.806-22.71-.804-1.473-3.638-4.336-4.284-4.328-.24.003-3.005 2.02-6.145 4.484l-5.709 4.48.021 19.8.02 19.8 2.087 2.516 2.086 2.516-1.236 1.292c-.68.711-3.268 3.199-5.75 5.528l-4.515 4.235-5.826-5.478zm94.934 2.336c-3.11-3.62-5.24-6.962-6.376-10-3.041-8.127-1.253-18.334 4.786-27.326 1.742-2.596 5.845-7.63 7.388-9.066.554-.516 1.007-1.136 1.007-1.378s-1.567-4.86-3.483-10.262c-1.915-5.401-3.483-9.875-3.483-9.941 0-.067 1.357-.121 3.015-.121 5.26 0 9.956-1.727 13.013-4.784l1.641-1.641 10.613 3.926 10.613 3.927 2.185-1.673c1.78-1.363 2.266-1.576 2.62-1.149.335.404.08 1.14-1.107 3.2-.85 1.473-1.985 3.85-2.524 5.282l-.98 2.605v22.489c0 22.159.011 22.508.81 23.802.447.722 1.284 1.557 1.862 1.855.965.5 1.15.464 2.31-.444l1.26-.987 1.142 1.094c.628.601 1.096 1.205 1.04 1.34-.155.372-13.552 12.368-13.811 12.368-.124 0-1.195-.761-2.38-1.692-3.93-3.085-6.116-7.39-6.46-12.724-.105-1.65-.311-3-.456-3-.145 0-4.607 3.91-9.916 8.69-7.205 6.486-9.906 8.694-10.652 8.708-.782.014-1.585-.662-3.677-3.098zm24.608-19.757v-16.89c-5.101-2.696-10.056-5.694-15.273-8.162-.697.78-2.746 5.687-3.343 8.008-.945 3.67-1.022 10.11-.167 13.798 1.063 4.582 3.267 8.884 6.238 12.172l1.425 1.578 2.174-2.016 8.946-8.488zm-.09-28.831-.103-8.747-10.181-3.874c-5.6-2.131-10.272-3.784-10.383-3.673-.111.112 1.161 3.99 2.827 8.62l3.03 8.42c4.876 2.652 9.653 5.497 14.617 7.982.164.01.25-3.918.194-8.728zm52.917 50.908c-7.877-5.371-16.436-5.842-26.196-1.44l-2.588 1.168-1.403-.867c-.77-.476-1.326-1.064-1.233-1.307.093-.242 4.29-6.427 9.326-13.744 5.036-7.317 9.054-13.405 8.929-13.53s-3.397-2.084-7.27-4.352l-7.043-4.125-.102-12.811-.102-12.812 2.812-1.41c5.251-2.637 9.862-5.905 14.272-10.118l1.785-1.706 3.557 1.786c10.929 5.49 20.888 6.18 23.655 1.642 1.203-1.973.969-3.244-1.18-6.397-1.062-1.56-1.932-3.255-1.932-3.767s.509-1.5 1.13-2.195c.95-1.063 1.399-1.264 2.823-1.264 2.229 0 3.67.992 4.646 3.196.98 2.216.745 5.444-.613 8.41-.503 1.1-4.43 7.105-8.727 13.347-4.296 6.241-7.846 11.486-7.889 11.655-.043.168 2.97 2.295 6.695 4.726l6.773 4.42.202 30.595-1.064.267c-3.406.855-11.425 5.711-15.648 9.476-1.205 1.075-2.25 1.952-2.322 1.95-.072 0-.654-.358-1.293-.793zm7.16-23.497v-10.361l-3.967-2.314c-2.182-1.272-4.18-2.313-4.442-2.313-.262 0-4.154 5.119-8.65 11.376-4.495 6.257-7.852 11.25-7.458 11.097 4.622-1.8 11.825-2.097 16.157-.667 1.469.485 3.82 1.472 5.225 2.193 1.405.722 2.685 1.32 2.845 1.33.16.011.29-4.643.29-10.341zm-5.281-27.248c6.395-9.307 7.29-10.711 6.525-10.239-.167.104-2.045.38-4.174.614-5.603.617-11.385-.37-16.13-2.752l-1.452-.728.004 9.199.004 9.2 4.147 2.396c2.28 1.319 4.169 2.364 4.196 2.322l6.88-10.012zm51.944 49.958c-3.517-2.334-7.712-3.535-12.412-3.552-4.413-.016-7.26.622-12.049 2.7l-3.147 1.364-1.403-.953-1.404-.954 6.634-9.638c3.65-5.3 7.909-11.48 9.466-13.735l2.831-4.097-7.327-4.223-7.328-4.223.016-12.965.015-12.965 2.591-1.236c4.015-1.916 9.346-5.604 12.806-8.86l3.147-2.96 2.607 1.364c12.248 6.404 23.296 6.768 25.255.832.491-1.488.017-2.765-2.129-5.727-2.091-2.888-1.726-5.328.965-6.442 1.621-.672 3.87.015 5.192 1.586.913 1.086.995 1.478.987 4.734-.006 2.705-.192 3.955-.78 5.25-.423.934-4.356 6.917-8.74 13.296-6.556 9.54-7.876 11.682-7.445 12.071.29.26 3.443 2.367 7.008 4.683l6.482 4.21v30.043l-1.064.433c-5.962 2.43-11.203 5.568-15.62 9.354-1.408 1.206-2.627 2.18-2.71 2.163-.082-.016-1.182-.715-2.444-1.553zm8.59-22.688-.104-10.338-4.063-2.421c-2.235-1.332-4.24-2.426-4.455-2.433-.214-.007-.633.38-.93.859-.298.479-3.793 5.399-7.767 10.933-3.975 5.534-7.338 10.255-7.475 10.491-.145.25.837.108 2.352-.338 1.9-.56 3.8-.772 7.051-.788 3.839-.02 4.877.12 7.547 1.017 1.703.571 3.967 1.542 5.031 2.156 1.065.615 2.156 1.137 2.425 1.16.387.032.469-2.142.387-10.298zm-5.35-27.336c3.63-5.289 6.601-9.75 6.601-9.915 0-.165-.827-.134-1.838.068-1.011.203-3.667.38-5.902.396-4.579.03-7.69-.622-11.557-2.425-1.355-.631-2.533-1.148-2.62-1.148-.086 0-.11 4.12-.053 9.155l.104 9.155 4.063 2.423c2.235 1.332 4.184 2.307 4.332 2.165.147-.142 3.238-4.585 6.87-9.874z" style="fill:#000" transform="translate(-63.573 -475.392)"/>
</svg>
