<!--
  SVG Music Logos
  Candlemass - Epicus Doomicus Metallicus v1.0.0
  https://github.com/tiagoporto/svg-music-logos
  Copyright (c) 2016-2024 Tiago Porto (http://tiagoporto.com)
-->
<svg xmlns="http://www.w3.org/2000/svg" viewBox="0 0 600 106">
  <path d="M89.3 78.5c-5.9 5-12.4 8.7-18.1 10.2-3.1.8-11.6 1.4-14 .9l-1.3-.2V18l.8.3c2.4.7 14.2 5.1 16.8 6.2l3 1.3 13.3-14.6-3.2-.2c-7.2-.5-14.8-2.7-22.1-6.3L60 2.3 45.3 14.7 30.6 27.1l-.2 21.6c-.2 21.2-.3 22.5-1.4 24.7-.4.8-.5.8-1.7-.8-2-2.5-4.8-8.6-5.9-12.6-2.5-9.8-1.9-21 1.6-29.5 1.9-4.7 4.5-8.2 9.9-13.5 2.7-2.7 4.9-5 4.8-5.1-.4-.4-8.6 4-11.5 6.1-5.7 4.3-11 10.7-14.2 17.3-6.3 12.8-6.9 30-1.4 42.7 6 13.9 18.8 23.5 34.1 25.4 6 .8 14.2.3 19.5-1C75.9 99.3 85 91.8 91.3 80c2.3-4.4 1.8-4.8-2-1.5zM51.6 88.6c-1.1 0-6.9-2-9.3-3.3-3.4-1.7-6.3-3.8-9-6.3L31 76.9l3.9-3.8c4.3-4.2 6.8-7.5 8.5-11.1 2.4-5.1 2.4-5.2 2.6-24.1l.2-17.3 2.8-2.4c1.6-1.3 2.9-2.4 3.1-2.4s.2 16.4.2 36.4c0 34.5-.1 36.4-.7 36.4zM147.7 90l-1.2-1.2-1.3 1-1.3 1-1.2-.9c-2.5-1.9-2.5-1.7-2.3-24.8l.1-20.7 1.2-3c.7-1.6 1.8-3.9 2.5-5.1 1.1-1.8 1.2-2.3.8-2.7-.4-.4-.8-.2-2.3 1-1 .8-2.1 1.5-2.4 1.5-.3 0-5-1.6-10.3-3.6l-9.8-3.6-1.5 1.5c-3 3-7.4 4.7-12.4 4.7-1.6 0-2.9.1-2.9.2s1.5 4.4 3.3 9.6c1.8 5.2 3.3 9.5 3.3 9.7 0 .1-1 1.4-2.3 2.7-5 5.4-8.6 11.1-10.5 17.1-.9 2.7-1 3.8-1.1 7.8 0 5.1.3 7 2.1 10.5 1.3 2.7 3.1 5.2 5.8 8.2 1.4 1.6 2.3 2.3 2.9 2.3.6 0 3.6-2.4 10.2-8.3 5.1-4.6 9.3-8.3 9.4-8.2.1.1.3 1.5.5 3.2.7 5.5 2.6 9 6.5 11.9l2.1 1.6.8-.7c2.2-1.9 4.4-3.9 6.6-5.9 3.2-2.8 5.8-5.2 5.9-5.3-.1-.2-.5-.8-1.2-1.5zm-40.6-51.9c.1-.1 4.5 1.4 9.8 3.4l9.6 3.6v8.4c0 4.6 0 8.4-.1 8.4-.8-.2-13.5-7.5-13.8-8-.6-1-5.7-15.6-5.5-15.8zm16.8 46c-1.5 1.4-3.8 3.6-5.1 4.9l-2.4 2.3-1.4-1.5c-6-6.7-8.2-16.9-5.5-25.9.7-2.4 2.7-6.7 3.1-6.6.1 0 3.3 1.7 7.1 3.8l6.8 3.8.1 8.4.1 8.4-2.8 2.4zM159.1 97.9l-5.6-5.3 1-1.1c.6-.6 1.6-1.7 2.3-2.5l1.2-1.3-.1-21-.1-21-.9-1.6c-1.4-2.4-2-2.6-3.3-1.4l-1.1 1-1.1-1.2-1.1-1.2 6.1-6.2 6.1-6.2 1.3.8c1.9 1.1 5 4.3 5.9 6.1 1.1 2.1 1.9 5.4 1.9 7.8v2l1.4-1c2.5-1.9 7.2-6 12.1-10.5l4.8-4.5 4.9 5.1 4.9 5.1 2.7-2.7c1.5-1.5 2.9-2.7 3.1-2.7.4 0 2 1.5 2 1.9 0 .1-1.1 1.8-2.4 3.7-3.9 5.8-3.6 3.1-3.6 26.4 0 22.2 0 21.9 2 23.6 1 .8 1.5.8 2.8-.2l1.1-.8 1.1 1.1 1.1 1.1-5.3 4.8c-2.2 2-4.4 4-6.7 6l-1.4 1.2-1.6-1.1c-2.3-1.6-4.3-3.9-5.3-6.2-1.8-3.9-1.9-6.1-1.9-27.9V47.8l-3.1-3.1-3.1-3.1-4.9 3.9-4.9 3.9v37.8l2 2.7 2 2.7-3.2 3.1c-1.8 1.8-3.6 3.5-5.5 5.3l-2.3 2.2-5.3-5.3zM261 33.7c-1.3.5-2.8 1.9-3.7 3.3-.4.6-.9.9-1.1.8-.3-.1-9.9-6.7-21.5-14.7-11.6-8-21.2-14.7-21.5-14.8-.4-.2-.5 1.4-.5 7.6v7.9l8.3 5.9c4.6 3.2 8.4 6 8.5 6.2.4.7-5.6 3.7-9.9 5l-2.1.6v20.6c0 16-.1 21.1-.5 22.7-.5 2.1-2.1 4.8-3.2 5.4-.7.4-.6.4 2.9 1.3 5.9 1.5 14.7 5.6 19.8 9.4 1.6 1.2 3 2.2 3.1 2.2.1 0 1-.7 2-1.6 4.3-3.6 10.6-7.2 16.6-9.3l2.9-1 .1-27.4c.1-24.8.2-27.5.7-28.8.8-1.7.6-1.9-.9-1.3zm-13.5 35.2c0 11.7 0 21.2-.1 21.2-.2 0-13-5.1-14.4-5.7l-1.4-.6V42.4l2.1-1.3c1.1-.7 2.3-1.2 2.6-1.1.3.1 2.9 1.9 5.9 4l5.4 3.8v21.1zM285.5 101.1c-3.5-3.2-9.7-6.8-16.2-9.3l-2.7-1 1.3-1.5c2.7-3.2 2.6-1.2 2.6-39.6V15.2l-.8-1.5c-.4-.8-1.6-2.5-2.5-3.7-.9-1.2-1.5-2.3-1.4-2.5.5-.5 5.1 1.4 7.8 3.3 1.4.9 2.7 1.7 3 1.7s1.5-1 2.9-2.2c1.3-1.2 3.6-2.8 5-3.5 2.5-1.2 7-2.4 7.4-1.9.1.1-.7 1.1-1.8 2.2-1.2 1.2-2.5 3-3.3 4.6l-1.3 2.6.1 69.7 4.3 3c2.4 1.6 4.6 3.1 5 3.3.5.3 1.1 0 2.5-1.2l1.8-1.5 1 1.2 1 1.2-6.8 6.6c-2.3 2.2-4.5 4.4-6.8 6.6 0-.2-.9-1-2.1-2.1zM326.3 65.1c6.2-5.3 12.6-10.5 16.3-13.3 1.4-1 2.4-2 2.4-2.3 0-.2-4.2-5-9.3-10.6l-9.2-10.2-2 1.6c-3.9 3-10.2 7-14.1 9l-3.9 2-.2 23.5c-.2 22.9-.2 23.6-1 25.2-.4.9-1.3 2.3-1.9 3l-1.2 1.3 1.6.2c4.2.7 12.1 3.9 16.9 7 1.7 1.1 2.1 1.2 2.6.9.3-.2 2.4-1.9 4.6-3.8 2.2-1.8 6.1-4.9 8.6-6.8 2.5-1.9 5.1-3.8 5.7-4.3l1-.8-1-1.2-1-1.2-4.7 3.3-4.7 3.3-5.6-2.7-5.6-2.7v-16l5.7-4.4zm-6.5.6c-.1 0-.2-5.8-.2-12.8 0-7.4.1-12.7.3-12.7.5.2 13 13.9 13 14.3 0 .2-2.9 2.8-6.5 5.8s-6.5 5.4-6.6 5.4z"/>
  <path d="M352.9 97.8l-5.6-5.2 2.2-2.5 2.2-2.5-.1-21c-.1-20.8-.1-21-.9-22.5-1.4-2.6-2.4-2.8-3.8-1.1-.4.5-.6.5-1.7-.6l-1.2-1.2 5.8-5.9c3.2-3.3 6-6 6.3-6.1.7-.2 3.5 1.9 5.4 4 2 2.2 3.1 4.9 3.6 9 .2 1.6.4 3 .5 3.1.1.1 4.6-3.4 10-7.8 5.5-4.3 10.1-8 10.4-8.2.6-.4 2.2 1.1 4.3 4.1 2 2.8 3.6 6.1 4.4 9.2.4 1.3.8 2.4 1 2.4.5 0 7.7-6.1 13.3-11.2l4.7-4.3 4.8 5 4.8 5 2.7-2.6c1.5-1.5 2.9-2.6 3.1-2.6.2 0 .8.5 1.3 1l1 1-1.1 1.5c-.6.8-2 3-3.1 4.7l-2 3.3v20.4c0 22.4 0 21.9 2.3 23.6 1 .8 1.6.7 3.3-.6.5-.4.8-.3 1.8.7l1.1 1.1-6.2 5.5c-3.4 3-6.5 5.7-6.9 6-.6.4-.9.3-2.7-1-3.2-2.5-4.9-5.1-6-9.3-.5-2-.6-5.5-.8-23.7l-.2-21.3-3-2.7-3-2.7-4.7 3.8-4.7 3.8v38.2l1.6 2.2c.9 1.2 1.7 2.4 1.9 2.7.3.5.4.4-6.5 7.1l-4 3.8-5.7-5.3-5.7-5.3 2.2-2.5 2.2-2.5-.1-20.5c-.1-18.9-.2-20.6-.8-21.7-.8-1.4-3.5-4.1-4.1-4.1-.2 0-2.9 1.9-5.9 4.3l-5.5 4.3v37.8l2 2.4 2 2.4-1.2 1.2c-.6.7-3.1 3.1-5.5 5.3l-4.3 4-5.2-5.4zM487.8 90l-1.1-1-1.2.9c-1.1.9-1.3.9-2.2.4-.6-.3-1.4-1.1-1.8-1.8-.8-1.2-.8-1.6-.8-22.7V44.3l.9-2.5c.5-1.4 1.6-3.6 2.4-5 1.1-2 1.4-2.7 1.1-3.1-.3-.4-.8-.2-2.5 1.1l-2.1 1.6-10.1-3.8-10.1-3.8-1.6 1.6c-2.9 2.9-7.4 4.6-12.4 4.6-1.6 0-2.9.1-2.9.1 0 .1 1.5 4.3 3.3 9.5 1.8 5.2 3.3 9.6 3.3 9.8 0 .2-.4.8-1 1.3-1.5 1.4-5.4 6.2-7.1 8.7-5.8 8.6-7.5 18.3-4.6 26.1 1.1 2.9 3.1 6.1 6.1 9.6 2 2.3 2.8 3 3.5 3 .7 0 3.3-2.1 10.2-8.3 5.1-4.6 9.3-8.3 9.5-8.3.1 0 .3 1.3.4 2.9.3 5.1 2.4 9.2 6.2 12.2 1.1.9 2.2 1.6 2.3 1.6.2 0 13-11.5 13.2-11.8.2-.3-.3-.9-.9-1.4zm-37.9-43.7c-1.6-4.4-2.8-8.1-2.7-8.2.1-.1 4.6 1.5 9.9 3.5l9.7 3.7.1 8.4c.1 4.6 0 8.3-.2 8.3-4.7-2.4-9.3-5.1-14-7.6l-2.8-8.1zm17.2 34.9l-8.5 8.1-2.1 1.9-1.4-1.5c-2.8-3.1-4.9-7.3-6-11.6-.8-3.5-.7-9.7.2-13.2.6-2.2 2.5-6.9 3.2-7.7 5 2.4 9.7 5.2 14.6 7.8v16.2z"/>
  <path d="M539.8 30c1.3-2.8 1.5-5.9.6-8-.9-2.1-2.3-3.1-4.4-3.1-1.4 0-1.8.2-2.7 1.2-.6.7-1.1 1.6-1.1 2.1s.8 2.1 1.8 3.6c2.1 3 2.3 4.2 1.1 6.1-2.6 4.3-12.2 3.7-22.6-1.6l-3.4-1.7-1.7 1.6c-4.2 4-8.6 7.1-13.6 9.7l-2.7 1.3.1 12.2.1 12.2 6.7 3.9c3.7 2.2 6.8 4 6.9 4.2s-3.7 5.9-8.5 12.9-8.8 12.9-8.9 13.1c-.1.2.4.8 1.2 1.2l1.3.8 2.5-1.1c9.3-4.2 17.5-3.8 25 1.4l1.2.8c.1 0 1.1-.8 2.2-1.9 4-3.6 11.7-8.2 14.9-9.1l1-.3-.2-29.2-6.5-4.2c-3.6-2.3-6.4-4.4-6.4-4.5 0-.2 3.4-5.2 7.5-11.1 4.3-5.7 8.1-11.4 8.6-12.5zm-15.4 39.9v9.9c0 5.4-.1 9.9-.3 9.9-.2 0-1.4-.6-2.7-1.3-1.3-.7-3.6-1.6-5-2.1-4.1-1.4-11-1.1-15.4.6-.4.1 2.8-4.6 7.1-10.6s8-10.9 8.3-10.9 2.2 1 4.2 2.2l3.8 2.3zm-5.1-16.1l-6.6 9.6s-1.8-1-4-2.2l-4-2.3V41.3l1.4.7c4.5 2.3 10.1 3.2 15.4 2.6 2-.2 3.8-.5 4-.6.8-.4-.1.9-6.2 9.8zM592.2 20.6c-1.3-1.5-3.4-2.2-5-1.5-2.6 1.1-2.9 3.4-.9 6.2 2.1 2.8 2.5 4 2 5.5-1.9 5.7-12.4 5.3-24.1-.8l-2.5-1.3-3 2.8c-3.3 3.1-8.4 6.6-12.2 8.5l-2.5 1.2V66l7 4 7 4-2.7 3.9c-1.5 2.2-5.6 8.1-9 13.1l-6.3 9.2 1.3.9 1.3.9 3-1.3c4.6-2 7.3-2.6 11.5-2.6 4.5 0 8.5 1.2 11.9 3.4 1.2.8 2.3 1.5 2.3 1.5.1 0 1.2-.9 2.6-2.1 4.2-3.6 9.2-6.6 14.9-8.9l1-.4V62.9l-6.2-4c-3.4-2.2-6.4-4.2-6.7-4.5-.4-.4.8-2.4 7.1-11.5 4.2-6.1 7.9-11.8 8.3-12.7.6-1.2.7-2.4.7-5 .2-3.1.1-3.5-.8-4.6zM577.1 70l.1 9.9c.1 7.8 0 9.9-.4 9.8-.3 0-1.3-.5-2.3-1.1-1-.6-3.2-1.5-4.8-2.1-2.6-.9-3.5-1-7.2-1-3.1 0-4.9.2-6.7.8-1.4.4-2.4.6-2.2.3.1-.2 3.3-4.7 7.1-10s7.1-10 7.4-10.4c.3-.5.7-.8.9-.8.2 0 2.1 1.1 4.3 2.3l3.8 2.3zm-5-16.2c-3.5 5.1-6.4 9.3-6.6 9.4-.1.1-2-.8-4.1-2.1l-3.9-2.3-.1-8.7c-.1-4.8 0-8.7.1-8.7s1.2.5 2.5 1.1c3.7 1.7 6.7 2.3 11 2.3 2.1 0 4.7-.2 5.6-.4 1-.2 1.8-.2 1.8-.1s-2.9 4.4-6.3 9.5z"/>
</svg>