<!--
  SVG Music Logos
  U2 - Magnificent v1.0.0
  https://github.com/tiagoporto/svg-music-logos
  Copyright (c) 2016-2019 Tiago Porto (http://tiagoporto.com)
-->
<svg xmlns="http://www.w3.org/2000/svg" viewBox="0 0 200 110">
  <path d="M93.946 108.207L1 108.207 1 1.293 3.296 1.293 3.296 105.911 91.65 105.911 91.65 1.293 93.946 1.293z"/>
  <path d="M65.875 80.634L29.033 80.634 29.033 1.293 31.329 1.293 31.329 78.338 63.579 78.338 63.579 1.293 65.875 1.293z"/>
  <path d="M199 69.072L199 1.293 106.054 1.293 106.054 3.589 196.704 3.589 196.704 66.777 134.086 66.777 134.086 80.136 199 80.136 199 77.84 136.382 77.84 136.382 69.072z"/>
  <path d="M106.054 39.854L106.054 108.207 199 108.207 199 105.911 108.35 105.911 108.35 42.15 170.967 42.15 170.967 28.79 106.054 28.79 106.054 31.086 168.671 31.086 168.671 39.854z"/>
</svg>
