<!--
  SVG Music Logos
  U2 - The Joshua Tree v1.0.0
  https://github.com/tiagoporto/svg-music-logos
  Copyright (c) 2016 Tiago Porto (http://tiagoporto.com)
-->
<svg xmlns="http://www.w3.org/2000/svg" viewBox="0 0 500 308" class="u2">
  <g class="u2__shadow">
    <path d="M253.2,192.9c.1,35.7-8.5,62.3-25.9,79.7-17.4,17.4-43.9,26.1-79.5,26.1s-59.8-8.7-78-26.1c-18.3-17.4-27.4-42.2-27.4-74.4V60.2c0-11.9-2-19.8-6.1-23.7-4.1-3.9-12.7-6.2-25.9-7.2v-9.6h132.3v9.6c-14.6.9-24.2,3.3-28.6,7.2-4.4,3.9-6.7,11.7-6.7,23.7v140.7c0,26.7,4.7,46.5,14.1,59.3,9.4,12.8,23.9,19.3,43.6,19.3s42.3-7.2,53.6-21.6c11.3-14.4,17-37.3,17-68.6v-119.8c0-15.5-2.5-25.7-7.6-30.9-5.1-5.1-15.9-8.2-32.5-9.2v-9.6h89v9.6c-12.9.8-21.3,3.7-25.3,8.8-4,5.1-6,15.5-6,31.2v123.5Z"/>
    <path d="M468.9,90.4c0,21.2-9.9,43.4-29.7,66.8-14.2,16.9-41.4,43.7-81.5,80.6h64c18.3,0,30.5-1.8,36.6-5.3,6.1-3.6,11.8-12.2,17-25.9h9.6l-8.7,42-8.9,42.2h-166.7v-9.2c42.2-43.8,71.6-78.1,88.3-103.1,16.5-24.8,24.8-47,24.8-66.6s-4.4-27.6-13.2-37c-8.8-9.4-20.4-14.1-34.8-14.1s-19.8,3.2-28.4,9.6c-8.7,6.4-15.5,15.2-20.6,26.5h-11.2c10.3-27.3,22.8-47.8,37.5-61.4,14.7-13.6,31.6-20.4,50.8-20.4s40.1,7.1,54.2,21.2c14.1,14.1,21.1,32.2,21.1,54.3Z"/>
  </g>
  <g class="u2__text">
    <path d="M258,188.1c.1,35.7-8.5,62.3-25.9,79.7-17.4,17.4-43.9,26.1-79.5,26.1s-59.8-8.7-78-26.1c-18.3-17.4-27.4-42.2-27.4-74.4V55.4c0-11.9-2-19.8-6.1-23.7-4.1-3.9-12.7-6.2-25.9-7.2v-9.6h132.3v9.6c-14.6.9-24.2,3.3-28.6,7.2-4.4,3.9-6.7,11.7-6.7,23.7v140.7c0,26.7,4.7,46.5,14.1,59.3,9.4,12.8,23.9,19.3,43.6,19.3s42.3-7.2,53.6-21.6c11.3-14.4,17-37.3,17-68.6v-119.8c0-15.5-2.5-25.7-7.6-30.9-5.1-5.1-15.9-8.2-32.5-9.2v-9.6h89v9.6c-12.9.8-21.3,3.7-25.3,8.8-4,5.1-6,15.5-6,31.2,0,0,0,123.5,0,123.5Z"/>
    <path d="M473.7,85.6c0,21.2-9.9,43.4-29.7,66.8-14.2,16.9-41.4,43.7-81.5,80.6h64c18.3,0,30.5-1.8,36.6-5.3s11.8-12.2,17-25.9h9.6l-8.7,42-8.9,42.2h-166.7v-9.2c42.2-43.8,71.6-78.1,88.3-103.1,16.5-24.8,24.8-47,24.8-66.6s-4.4-27.6-13.2-37c-8.8-9.4-20.4-14.1-34.8-14.1s-19.8,3.2-28.4,9.6c-8.7,6.4-15.5,15.2-20.6,26.5h-11.2c10.3-27.3,22.8-47.8,37.5-61.4,14.7-13.6,31.6-20.4,50.8-20.4s40.1,7.1,54.2,21.2c14.1,14.1,21.1,32.2,21.1,54.3Z"/>
  </g>
</svg>
