<!--
  SVG Music Logos
  Iron Maiden - Eddie - A Matter of Life and Death v1.0.1
  https://github.com/tiagoporto/svg-music-logos
  Copyright (c) 2016-2018 Tiago Porto (http://tiagoporto.com)
-->
<svg class="iron-maiden--eddie-a-matter-of-life-and-death" xmlns="http://www.w3.org/2000/svg" viewBox="0 0 198 200">
  <g class="iron-maiden--eddie-a-matter-of-life-and-death__head">
    <path
      d="M64.883 43.14c1.577-2.393 3.12-3.943 4.946-5.105 1.808-1.152 3.86-1.902 6.48-2.712h.003l.006-.002c1.027-.318 2.058-.614 3.09-.888 1.018-.27 2.06-.525 3.128-.762 5.39-1.2 10.922-1.838 16.462-1.838s11.072.638 16.463 1.838c1.066.237 2.11.492 3.128.762 1.033.274 2.064.57 3.092.888l.006.003h.003c2.622.81 4.673 1.56 6.482 2.712 1.825 1.162 3.37 2.712 4.947 5.105 1.22 1.853 2.845 3.435 4.654 3.488.218.006.44-.01.665-.05-4.99-6.785-7.518-12.48-7.866-17.184-.14-1.906-.346-2.317-1.477-2.77-2.108-4.662-1.544-8.966-5.398-14.45-5.186-7.37-14.362-10.936-24.7-10.66-10.34-.276-19.515 3.29-24.698 10.663-3.854 5.483-3.29 9.787-5.398 14.45-1.13.452-1.336.862-1.477 2.77-.348 4.703-2.876 10.397-7.864 17.182.226.04.447.056.665.05 1.808-.055 3.433-1.637 4.655-3.49z" />
    <path
      d="M131.912 43.93c-1.456-2.208-2.865-3.627-4.517-4.68-.782-.497-1.626-.918-2.56-1.304-.14 2.272-.137 4.523.757 6.816.335.858.82 1.567 1.255 2.367.915 1.687 1.083 3.2.875 5.1-.134 1.226-.67 2.54-1.268 3.78 4.51-1.663 9.448-4.258 11.946-7.97-.226.026-.448.036-.67.03-2.372-.07-4.372-1.945-5.818-4.14z" />
    <path
      d="M71.152 47.13c.434-.8.92-1.51 1.255-2.368.894-2.293.898-4.544.757-6.816-.934.386-1.78.807-2.56 1.305-1.652 1.053-3.06 2.473-4.517 4.68-1.446 2.195-3.446 4.07-5.82 4.14-.22.006-.443-.003-.668-.03 2.497 3.713 7.436 6.307 11.945 7.97-.598-1.24-1.134-2.554-1.268-3.78-.208-1.9-.04-3.413.875-5.1z" />
    <path
      d="M123.455 37.42c-.682-.24-1.41-.476-2.19-.717l-.005-.003h-.003c-1-.31-2.012-.6-3.034-.87-1.036-.276-2.06-.527-3.072-.75-5.29-1.178-10.716-1.805-16.15-1.805s-10.86.626-16.15 1.804c-1.01.224-2.036.474-3.073.75-1.022.27-2.035.56-3.034.87h-.003l-.006.002c-.78.242-1.51.478-2.19.72.18 2.537.256 5.095-.82 7.854-.958 2.456-2.45 3.078-2.042 6.802.16 1.468.965 2.974 2.195 5.41 1.84 3.642-.144 8.49 3.638 11.398 4.198 3.227 8.6 6.322 11.826 9.95 3.33 3.746 6.786 4.79 9.66 3.077 2.874 1.712 6.33.67 9.66-3.076 3.226-3.628 7.627-6.724 11.824-9.95 3.783-2.91 1.8-7.758 3.638-11.4 1.23-2.435 2.035-3.94 2.195-5.41.407-3.724-1.084-4.345-2.042-6.8-1.076-2.76-1-5.318-.82-7.856zm-47.13 4.684c-1.018-3.713.217-5.424 2.905-4.155 6.78 3.2 13.416 6.87 16.592 5.92.643-.192 1.14.448.484.927-3.968 2.887-8.544 4.383-13.365 4.098-2.22-.13-3.5-.846-5.015-1.645-1.6-.842-1.124-3.414-1.6-5.146zm11.337 8.15c-2.552 1.056-4.97 1.108-7.4.248-.577-.204-.657-1.045.07-.867 2.432.595 4.75.61 7.19.04.41-.098.884.27.14.58zm-7.543 18.2c-.084.434-1.067.666-1.3-.29-.172-2.373-.28-5.034-.452-7.408-.293-2.507.64-3.436 1.61-4.314l4.782-3.43c.66-.02.985.186.572.883-2.147 1.51-4.02 3.18-4.314 5.77-.33 2.842-.57 5.948-.9 8.79zm33.338-.16c-.02.084-.057.157-.11.212-.056.06-.13.102-.214.115-.152.024-.338-.045-.516-.253-.493-.562-1.004-.95-1.516-1.235-.515-.288-1.037-.477-1.547-.643l-.014-.006c-.353-.107-.723-.204-1.105-.288-.38-.083-.772-.155-1.175-.214-2.056-.3-4.3-.25-6.17.302-.67.198-1.34.298-2.03.298-.69 0-1.4-.098-2.15-.297l-.03-.008c-.363-.096-.74-.175-1.127-.24-.385-.062-.784-.112-1.193-.146-2.076-.173-4.3.046-6.083.6-.532.164-1.065.353-1.586.64-.516.288-1.023.674-1.508 1.237-.18.206-.36.276-.512.254-.083-.012-.154-.05-.21-.11-.052-.055-.09-.125-.11-.204-.052-.204.005-.496.233-.76.55-.64 1.06-1.145 1.588-1.555.532-.412 1.084-.73 1.72-.993l.005-.002h.002c.252-.104.544-.204.867-.294.324-.09.682-.173 1.067-.246 1.974-.372 4.67-.465 7.165.15.68.168 1.21.25 1.756.25s1.114-.086 1.87-.252h.01V64.6c.485-.106.98-.19 1.48-.253.497-.063.992-.105 1.478-.128 2.508-.12 4.846.25 6.133.777h.004c.604.265 1.15.582 1.68.995.53.41 1.05.916 1.6 1.555.24.26.3.544.254.747zm1.915 1.753c-.176 1.08-1.367.788-1.248-.006.34-2.26.185-5.15.014-7.138-.126-1.45-.34-2.08-.946-3.298-1.414-2.84-4.51-4.584-6.722-6.59-3 .092-5.733-.133-6.582-2.614-.342-1.003-1.38-1.304-1.74-.125-.8 2.598-3.573 2.832-6.623 2.738-2.213 2.007-5.31 3.75-6.723 6.59-.606 1.22-.82 1.85-.945 3.3-.172 1.987-.326 4.878.013 7.138.12.794-1.072 1.088-1.248.007-.398-2.443-.042-4.756-.01-7.224.016-1.364.18-2.59 1.066-3.987 3.42-5.393 8.007-6.96 12.116-10.805 1.683-1.863 4.72-1.863 6.405 0 4.11 3.847 8.697 5.412 12.116 10.806.886 1.398 1.05 2.623 1.067 3.987.032 2.468.388 4.78-.01 7.224zm-4.896-20.373c2.438.57 4.757.556 7.188-.04.728-.177.648.663.072.868-2.43.86-4.847.81-7.4-.248-.744-.308-.27-.677.14-.58zm9.155 11.083c-.173 2.373-.28 5.034-.454 7.408-.232.955-1.215.724-1.298.29-.33-2.84-.57-5.947-.9-8.79-.293-2.588-2.165-4.258-4.313-5.768-.414-.698-.09-.903.572-.883l4.78 3.43c.973.877 1.905 1.805 1.612 4.313zm2.04-18.653c-.474 1.73 0 4.304-1.597 5.145-1.517.797-2.797 1.512-5.017 1.644-4.82.285-9.398-1.21-13.365-4.098-.658-.478-.16-1.12.483-.927 3.177.95 9.813-2.72 16.592-5.922 2.69-1.268 3.924.443 2.905 4.156z" />
  </g>
  <path
    d="M191.844 170.788l-50.207-34.95 1.05-2.036-3.815-3.977c-1.533-1.598-1.605-4.136.095-7.318l-.857-.594c2.044-1.16 3.752-4.94.95-6.672l-6.58-4.065-1.026-.088-9.135-5.164 9.517-6.956c.544 1 1.116 1.978 1.717 2.934-.505.75-.476 1.717.12 2.313.443.44 1.09.57 1.7.4 5.384 7.54 12.688 13.827 21.905 20.315 1.044.736 1.724.1 2.45-.846 2.848-3.717 5.71-7.424 8.554-11.146.418-.547.524-1.2 0-1.58-10.644-7.688-17.734-14.248-20.876-19.78.366-.645.358-1.375-.076-1.808-.248-.248-.593-.356-.964-.335-.115-.29-.218-.576-.31-.86l4.57-3.34c.886-.647.57-1.542-.22-3.138-.318-.64-.036-1.352.982-1.214 1.305.178 3.15-.066 2.16-1.495l-1.26-1.82c-.286-.412-.116-.993.296-1.28l2.06-1.426c1.2-.83 2.487-.49 3.088.363l.756 1.073c.745 1.058 1.4 1.02 1.918.133l2.018-3.458-1.75-2.525 21.62-14.97 2.59-.87 7.125-4.934 1.177-.815c.36-.25.452-.75.202-1.11l-2.168-3.13c-.25-.36-.75-.45-1.11-.202l-1.176.815-7.125 4.934-.668 1.22-24.663 17.08-8.07-10.606c-1.805-2.37-4.234-.37-4.263 1.795l-.16 11.877c-.014 1.013-.993 1.353-1.558 1.078-.48-.233-1.006-.305-1.646.138L106.11 96.76l-.47-.266c-1.394-.788-2.87-.443-3.988.4-.107.062-.215.118-.318.19-.827.572-1.385 1.38-1.673 2.27l-.66.045-.66-.047c-.288-.89-.846-1.697-1.673-2.27-.103-.07-.212-.127-.318-.188-1.118-.844-2.595-1.19-3.99-.4l-.47.265-34.676-24.012c-.64-.443-1.166-.37-1.645-.138-.566.275-1.545-.066-1.56-1.078l-.16-11.877c-.028-2.166-2.457-4.166-4.26-1.795l-8.07 10.605-24.664-17.077-.67-1.22-7.124-4.934-1.176-.815c-.36-.25-.86-.16-1.11.2L4.61 47.75c-.25.362-.16.86.2 1.11l1.177.816 7.125 4.933 2.59.87L37.32 70.45l-1.75 2.525 2.02 3.457c.517.887 1.172.925 1.917-.133l.756-1.074c.6-.853 1.888-1.194 3.087-.364l2.06 1.427c.413.285.583.866.298 1.278l-1.26 1.82c-.99 1.43.854 1.673 2.16 1.496 1.017-.138 1.3.573.982 1.214-.79 1.596-1.107 2.49-.22 3.14l4.567 3.338c-.09.284-.194.57-.31.86-.37-.02-.715.088-.963.335-.434.434-.442 1.164-.076 1.81-3.142 5.53-10.232 12.09-20.876 19.78-.524.378-.418 1.03 0 1.58 2.844 3.72 5.706 7.428 8.555 11.145.724.945 1.405 1.582 2.45.846 9.217-6.487 16.52-12.774 21.906-20.313.61.17 1.255.04 1.698-.4.598-.597.627-1.565.122-2.313.6-.956 1.173-1.933 1.717-2.934l9.517 6.956-9.135 5.164-1.026.088-6.58 4.066c-2.8 1.73-1.093 5.512.95 6.672l-.856.594c1.7 3.182 1.628 5.72.095 7.318l-3.816 3.977 1.05 2.035-50.204 34.948c-1.978 1.377-2.648 4.137-1.26 6.108 4.998 7.094 11.086 14.278 17.04 20.346 1.475 1.505 3.47 1.857 4.658-.044 10.082-16.124 22.868-34.547 36.36-49.027 7.365-7.903 11.275-1.86 11.3 1.962l.14 20.606c.013 1.684.55 2.16 2.016 1.61l10.315-3.87c1.587-.68 1.506-1.854.683-2.522-1.242-1.01-1.87-.7-2.002-2.474l-.505-7.142c-.037-.534-.054-.465.38-.755.912-.607 1.426-1.333 1.21-1.817-.168-.374-.73-.455-1.472-.442-.39.007-.364-.494-.393-.89l-.213-3.02 11.52-7.977c2.692-1.865 1.695-6.36.116-9.066.795-1.728.43-3.878-1.092-6.45L99 122.968l4.045 2.956c-1.523 2.57-1.887 4.72-1.092 6.45-1.58 2.705-2.576 7.2.115 9.065l11.52 7.977-.212 3.02c-.028.396-.004.896-.393.89-.742-.014-1.305.066-1.472.44-.215.485.3 1.21 1.21 1.818.435.29.418.22.38.755l-.505 7.142c-.133 1.774-.76 1.465-2.002 2.474-.823.67-.904 1.843.683 2.52l10.315 3.87c1.468.552 2.004.076 2.016-1.608l.14-20.606c.026-3.822 3.936-9.865 11.3-1.96 13.493 14.478 26.28 32.902 36.36 49.026 1.19 1.9 3.184 1.55 4.66.044 5.952-6.068 12.04-13.252 17.04-20.346 1.386-1.97.716-4.73-1.262-6.108zm-34.122-101.95l21.772-15.077c.146-.1.346-.064.447.082.102.146.066.347-.08.448l-21.773 15.076c-.146.1-.346.065-.447-.08-.1-.147-.064-.348.082-.45zm-117.363.447c-.102.146-.303.183-.448.08L18.14 54.29c-.147-.1-.183-.302-.082-.448.1-.146.302-.182.447-.08l21.773 15.075c.146.1.182.302.08.448zm95.596 47.957c.373-.538 1.11-.673 1.65-.3.538.373.672 1.11.3 1.65-.373.538-1.11.672-1.65.3-.538-.373-.673-1.112-.3-1.65zm-7.717-3.522l.542 5.546c.113 1.317-1.12 2.263-2.333 1.423l-12.494-8.652 5.123-3.744.207-.152 8.952 5.578zm30.428 8.827c-.154.216-.455.266-.67.11-3.83-2.738-7.496-5.68-10.95-8.89-3.46-3.213-6.72-6.704-9.732-10.535-.164-.21-.127-.512.082-.676.21-.164.512-.127.676.082 2.973 3.782 6.2 7.235 9.63 10.423 3.44 3.195 7.073 6.112 10.853 8.816.215.155.266.455.11.67zm2.675-3.395c-.154.216-.454.266-.67.11-3.776-2.7-7.4-5.606-10.824-8.775-3.43-3.175-6.66-6.613-9.643-10.376-.164-.208-.13-.51.08-.675.21-.164.512-.13.676.08 2.955 3.727 6.15 7.13 9.54 10.268 3.395 3.143 6.987 6.023 10.73 8.7.214.153.264.453.11.67zm-7.947-12.787c3.352 3.09 6.895 5.925 10.583 8.564.215.153.265.454.11.67-.154.214-.455.264-.67.11-3.722-2.663-7.297-5.523-10.678-8.64-3.386-3.123-6.58-6.5-9.532-10.19-.166-.208-.13-.51.077-.677.208-.166.51-.13.677.077 2.926 3.657 6.085 7 9.432 10.085zm1.99-35.378c.106.155.068.368-.087.476l-4.254 2.945c-.155.108-.368.07-.476-.086-.107-.155-.068-.368.087-.476l4.253-2.945c.154-.107.367-.068.475.087zm-1.96-1.26c.15.22.096.52-.123.673l-4.348 3.01c-.22.153-.52.098-.672-.12-.152-.22-.097-.52.122-.673l4.348-3.01c.22-.153.52-.098.672.12zm-7.852-6.696l1.613-1.116 1.562 2.064c.36.477.986.655 1.737.135l.554-.384 1.283 1.685c.575.757.346 1.888-.833 2.704l-3.91 2.707c-1.132.783-2.086.133-2.076-.865l.07-6.93zm-.11 28.04c.183-.193.488-.2.68-.017.193.183.2.488.017.68l-10.643 11.274c-.183.192-.488.2-.68.017-.193-.183-.2-.488-.017-.68l10.644-11.274zm-3.63-10.927c.22-.15.52-.09.668.13.15.22.09.52-.13.667l-29.277 19.77-.935-.53 29.675-20.037zm-94.403-5.82c-.107.154-.32.193-.475.085l-4.253-2.945c-.155-.108-.194-.32-.086-.476.108-.155.32-.194.476-.086l4.253 2.946c.155.107.194.32.086.476zm2.286-1.035c-.152.22-.453.274-.672.122l-4.348-3.01c-.22-.153-.274-.453-.122-.673.152-.22.452-.274.67-.122l4.35 3.01c.22.153.274.454.122.673zm.706-2.46l-3.91-2.71c-1.18-.815-1.41-1.946-.834-2.703l1.282-1.686.554.383c.75.52 1.377.34 1.738-.135l1.562-2.064 1.613 1.117.07 6.932c.01 1-.944 1.65-2.075.865zM33.91 115.6c-.154-.216-.105-.516.11-.67 3.69-2.64 7.233-5.474 10.584-8.564 3.347-3.086 6.506-6.428 9.432-10.085.166-.207.47-.24.677-.076.208.166.242.47.077.677-2.953 3.69-6.146 7.07-9.532 10.19-3.38 3.117-6.956 5.978-10.678 8.64-.215.155-.516.105-.67-.11zm3.417 3.663c-.216.155-.516.105-.67-.11-.154-.217-.104-.517.11-.67 3.743-2.678 7.336-5.558 10.73-8.7 3.39-3.14 6.586-6.54 9.54-10.27.165-.208.468-.243.677-.08.21.165.244.468.08.677-2.982 3.763-6.212 7.202-9.642 10.376-3.425 3.17-7.05 6.076-10.825 8.777zm23.357-16.03c-3.012 3.83-6.272 7.32-9.732 10.535-3.454 3.208-7.12 6.15-10.95 8.89-.215.154-.515.104-.67-.11-.154-.217-.103-.517.112-.67 3.78-2.706 7.414-5.623 10.852-8.816 3.432-3.187 6.658-6.64 9.63-10.423.165-.21.468-.247.677-.083.208.163.245.466.08.675zm2.48-.208c-.194.183-.498.175-.68-.017L51.838 91.733c-.184-.193-.176-.497.016-.68.192-.183.497-.175.68.017l10.644 11.274c.183.192.176.498-.017.68zM55.627 80.94c-.22-.148-.278-.447-.13-.667.15-.22.448-.278.668-.13L85.84 100.18l-.935.53-29.277-19.77zm14.133 32.78l8.953-5.578 5.33 3.896-12.492 8.65c-1.213.84-2.445-.104-2.332-1.422l.543-5.546zm-9.665 4.872c-.373-.538-.238-1.277.3-1.65s1.277-.238 1.65.3.24 1.277-.3 1.65c-.54.372-1.278.238-1.65-.3zm5.417 25.786c-.21.258-.588.3-.846.09-1.456-1.17-2.805-2.462-4.037-3.89-1.236-1.43-2.35-2.99-3.333-4.695-.166-.288-.067-.657.22-.823.29-.167.658-.067.825.22.948 1.646 2.018 3.146 3.2 4.514 1.182 1.37 2.48 2.613 3.88 3.74.258.207.3.586.09.844zm11.417-4.837c-.74.512-1.754.328-2.265-.41-.51-.74-.327-1.753.412-2.264.738-.512 1.752-.327 2.264.41.512.74.328 1.753-.41 2.265zm12.812 4.187c-1.357.94-3.11.635-4.632-.39-.765-.514-1.47-1.698-.806-2.157l.9-.624c.732 1.17 3.11 2.83 4.762 3.017l-.224.154zm5.327-3.69l-3.694 2.56c-1.712-.198-4.133-2.03-4.554-3.16l7.542-5.223c1.307-.906 2.504 4.58.705 5.824zm7.86 0c-1.798-1.244-.6-6.73.706-5.824l7.542 5.222c-.42 1.13-2.84 2.964-4.554 3.16l-3.693-2.557zm9.96 3.3c-1.523 1.025-3.275 1.33-4.632.39l-.224-.155c1.652-.186 4.03-1.847 4.76-3.017l.902.624c.663.46-.04 1.643-.806 2.158zm10.445-4.207c-.51.738-1.526.923-2.264.41-.738-.51-.922-1.524-.41-2.263.51-.738 1.525-.923 2.263-.41.74.51.923 1.524.412 2.263zm6.362-2.273L113.93 125.94c-.22-.153-.274-.454-.122-.673.152-.22.453-.274.672-.122l15.768 10.918c.978.677 2.323.272 3.366-.52.352-.267.668-.577.924-.903.25-.32.442-.654.553-.977.194-.56.123-1.097-.364-1.434l-27.49-19.037c-.22-.152-.275-.452-.123-.672l.007-.01.815-1.175-5.11-3.54-1.49 1.265c-.17.143-.41.15-.584.032l-1.75-.978-1.75.98c-.174.117-.413.11-.582-.033l-1.49-1.263-5.11 3.54.814 1.175.007.01c.15.22.096.52-.123.672l-27.49 19.036c-.49.338-.56.873-.366 1.434.112.324.305.658.554.977.255.327.572.637.924.904 1.043.79 2.388 1.197 3.366.52l15.768-10.918c.22-.152.52-.097.672.122.152.22.097.52-.122.672l-15.767 10.918c-1.38.955-3.16.47-4.5-.547-.415-.314-.79-.684-1.1-1.077-.313-.4-.557-.83-.702-1.254-.333-.97-.183-1.914.726-2.543l27.093-18.76-.823-1.188c-.152-.22-.097-.52.122-.672l.035-.02 5.778-4.002c.183-.127.423-.11.585.028l1.518 1.286.978-.547-2.497-1.397c-.232-.13-.315-.423-.185-.655.13-.23.424-.313.655-.183l3.01 1.685 3.01-1.685c.232-.13.526-.047.656.184.13.232.047.526-.184.656l-2.497 1.397.978.547 1.518-1.287h.002c.162-.136.402-.154.585-.027l5.778 4 .035.022c.22.15.274.452.122.67l-.82 1.186 27.094 18.76c.91.63 1.06 1.574.726 2.543-.146.425-.39.853-.703 1.254-.31.395-.685.764-1.1 1.08-1.344 1.016-3.124 1.502-4.503.547zm11.006-.973c-.983 1.704-2.098 3.266-3.332 4.696-1.23 1.427-2.58 2.72-4.036 3.89-.258.208-.637.167-.846-.09-.21-.26-.168-.638.09-.847 1.4-1.125 2.698-2.367 3.882-3.74 1.18-1.366 2.25-2.867 3.2-4.512.166-.287.534-.386.823-.22.287.167.386.536.22.824z" />
</svg>