<!--
  SVG Music Logos
  Iron Maiden - Eddie - Formula One v1.0.0
  https://github.com/tiagoporto/svg-music-logos
  Copyright (c) 2016 Tiago Porto (http://tiagoporto.com)
-->
<svg xmlns="http://www.w3.org/2000/svg" viewBox="0 0 200 158.667">
  <polygon points="102.209 136.609 98.398 138.486 96.997 137.883 96.997 131.648 100.774 129.599 102.209 130.239"/>
  <polygon points="125.444 136.609 121.633 138.486 120.232 137.883 120.232 131.648 124.009 129.599 125.444 130.239"/>
  <polygon points="78.974 136.609 75.163 138.486 73.762 137.883 73.762 131.648 77.538 129.599 78.974 130.239"/>
  <path d="M161.64 89.365c-3.236-3.265-3.868-5.455-3.868-11.585 0-5.14.504-6.084-7.174-8.012-31.734-7.97-79.52-5.48-106.424.678-6.986 1.6-3.762 5.258-3.923 8.43-.098 1.95-.402 3.406-1.53 4.783-1.128 1.376-.967 3.835-1.45 4.974-.485 1.138-1.37 2.927-3.145 3.903-1.773.976-1.128 3.66 1.45 3.66 2.58 0 9.996 1.95 12.898 2.438 2.902.488 25.793 3.356 32.24 3.356 1.774-.87 13.354-11.216 19.13-11.378 5.778-.163 14.563 10.625 20.044 11.276s24.18-1.952 29.017-2.562c4.836-.61 14.51-1.34 16.282-3.618 1.775-2.278-1.45-4.23-3.545-6.343zm-68.59-2.928c-3.21 2.478-10.64 4.34-16.767 5.966-6.126 1.626-19.007 3.24-27.81-2.55-2.472-1.627-1.4-4.263-2.116-7.757-.827-4.04-2.573-8.006-.492-8.464C57.31 71.112 81.52 89.608 92.32 85.38c2.333-.913 2.233-.104.73 1.057zm55.372 3.85c-8.866 5.69-21.796 3.743-27.922 2.116-6.126-1.626-13.117-3.79-16.327-6.267-1.168-.902-1.23-1.9-.083-1.687.33.06.865.447 1.37.686 11.795 5.584 34.01-14.025 45.457-11.504 3.882.855 1.284 14.228-2.495 16.654z"/>
  <path d="M26.55 77.6s3.223 14.53 2.793 17.565H8.493S-1.178 84.105 26.55 77.6z"/>
  <path d="M32.075 134.405c-1.242-4.04-1.766-8.7-1.946-12.118-.098-1.83-1.357-2.84-3.99-2.958-11.597-.515-16.835-1.822-19.676-3.01.823 7.084 2.46 13.53 4.023 18.69 6.813 2.674 11.993 4.29 20.012 3.6 2.406-.207 2.44-1.392 1.575-4.205z"/>
  <path d="M173.73 119.29c-3.546-.326-4.03 1.137-4.513 2.276-.484 1.138-1.612 9.433-2.096 12.848-.483 3.415 1.613 4.228 9.673 4.337 3.27.045 7.675-.77 11.763-1.752 1.834-5.212 3.513-11.736 4.72-19.116-7.474 1.206-17.137 1.627-19.545 1.407z"/>
  <path d="M5 101.99c0 3.91.256 7.706.6 11.33 2.965 1.584 9.565 3.804 23.78 4.41 2.488.105 2.813 1.444 2.865 2.808.176 4.588 1.49 11.086 3.25 16.64.8 2.523-.488 3.192-2.782 3.575-8.675 1.448-14.804-.288-22.3-3.58.852 2.47 2.213 5.27 3.132 6.998 23.536 15.397 149.138 13.83 171.06 1.627.935-1.527 2.118-4.225 3.044-6.505-6.02 1.41-16.52 2.197-19.56 1.952-4.03-.325-3.386-2.44-3.225-3.903.16-1.463.806-11.87 1.29-14.31.484-2.44-.773-6.505 7.093-5.855 7.713.638 15.81-1.45 20.584-3.007.495-3.63 1.1-7.884 1.1-11.346 0-1.026-5.388-2.114-10.32-1.91-26.84 1.108-49.573 4.958-84.156 4.222-32.56-.693-66.25-2.257-87.903-4.803C9.836 100.01 5 99.937 5 101.99zm104.302 17.786l-7.523 2.846v-4.066l-1.076-1.382-3.708 2.06v4.337l12.306 5.205v11.276l-10.115 4.12-8.8-4.986V116.2l10.156-4.555 8.76 5.204v2.926zm23.235 0l-7.523 2.846v-4.066l-1.075-1.382-3.71 2.06v4.337l12.307 5.205v11.276l-10.115 4.12-8.8-4.986V116.2l10.156-4.555 8.76 5.204v2.926zm-46.47 0l-7.523 2.846v-4.066l-1.075-1.382-3.71 2.06v4.337l12.307 5.205v11.276l-10.115 4.12-8.8-4.986V116.2l10.156-4.555 8.76 5.204v2.926z"/>
  <path d="M175.182 77.98c2.808 1.223 13.864 7.32 15.315 8.783s3.385.163 3.547 1.79c.16 1.625 0 3.252 0 4.065s1.557 4.228.698 4.716c-.86.488-3.277.976-6.824 0-3.547-.976-15.153-.813-16.443-.813s-1.934-2.926-.967-4.065c.967-1.138.322-5.53.967-6.505.645-.976 2.096-4.716 1.773-5.692-.323-.976-.06-3.145 1.934-2.277z"/>
  <path d="M99.415 91.262c.677.124 1.612 2.186 1.612 2.828 0 .642-.43 3.894 0 4.22.43.325 3.762 1.735 3.976 2.277.215.542.537 1.843 0 1.952-.537.107-4.556.433-4.965 0-.41-.435-1.16-1.844-1.483-1.627-.322.217-1.182 1.74-2.15 1.845s-5.802.205-6.017-.766c-.215-.97 3.547-3.14 4.73-3.248s2.148.067 2.04-1.43c-.106-1.497-.43-3.118-.106-3.392.32-.275 1.18-2.877 2.363-2.66z"/>
  <path d="M89.85 99.325c-.13.89-1.934 1.96-2.687 2.074-.752.112-3.654.522-1.934-.743 1.72-1.264 2.47-2.348 3.975-2.565 1.505-.217 1.683-1.223 2.79-1.864.933-.54 1.054-.202 1.054.665s-1.05.332-1.266.765-1.72.19-1.934 1.667z"/>
  <path d="M86.827 39.52c-.204-5.097 2.37-10.25 6.835-10.733 4.945-.536 8.498-.32 11.34-.083 6.566.544 8.26 4.76 8.437 7.806.1 1.746.146 3.71.162 5.68 27.342 2.436 53.94 10.475 78.408 23.952-7.778-32.83-34.933-62.808-91.555-62.808-47.146 0-78.838 26.083-89.812 56.27 24.923-10.933 50.68-16.88 76.185-18.01.01-.972.014-1.713 0-2.075z"/>
  <path d="M192.674 69.122c-24.79-13.774-51.562-21.916-79.068-24.287-.02 3.316-.112 6.378-.19 8.1-.218 4.798-3.848 7.53-7.877 7.45-3.283-.066-10.146.123-12.08-.023-3.77-.285-6.257-2.432-6.512-6.288-.185-2.794-.177-6.654-.15-9.734-25.413 1.26-52.154 7.716-77.176 18.84C7.432 69.87 5.788 76.39 5.4 83.66c51.778-32.436 154.24-24.07 185.902.09 3.284 2.506 3.45.148 3.438.015-.388-4.866-1.058-9.775-2.066-14.64z"/>
  <path d="M111.495 37.674c-.152-2.6-1.598-6.198-7.2-6.663-2.427-.2-5.46-.386-9.68.072-3.81.413-6.01 4.81-5.835 9.16.052 1.308-.172 8.26.103 12.423.218 3.29 2.34 5.124 5.56 5.367 1.65.125 8.136.18 10.936.088 2.8-.092 6.288-3.095 6.094-6.426-.157-2.712.296-9.3.02-14.02zm-11.435-4.498c4.14 0 7.496 2.11 7.496 4.716 0 2.605-3.356 4.716-7.496 4.716-4.14 0-7.496-2.11-7.496-4.716 0-2.605 3.356-4.716 7.496-4.716zm.24 23.256c-4.14 0-7.495-2.406-7.495-5.374 0-2.968 3.356-5.374 7.496-5.374 4.14 0 7.497 2.406 7.497 5.374 0 2.968-3.355 5.374-7.496 5.374z"/>
  <g>
    <path d="M104.024 35.8c-.928-.613-2.246-1.003-3.723-1.003-2.803 0-5.077 1.386-5.077 3.095 0 .227.046.447.122.66l8.68-2.75z"/>
    <path d="M96.574 39.98c.928.615 2.248 1.008 3.727 1.008 2.806 0 5.08-1.386 5.08-3.095 0-.257-.067-.503-.164-.742l-8.642 2.83z"/>
  </g>
  <g>
    <path d="M100.3 47.08c-.237 0-.463.03-.693.05l2.387 7.696c2.23-.516 3.854-1.998 3.854-3.768 0-2.197-2.483-3.977-5.547-3.977z"/>
    <path d="M98.198 47.41c-2.012.596-3.444 1.99-3.444 3.648 0 2.196 2.484 3.977 5.547 3.977.123 0 .238-.017.357-.026l-2.46-7.6z"/>
  </g>
</svg>
