<!--
  SVG Music Logos
  Korn - Neidermayer's Mind v1.0.0
  https://github.com/tiagoporto/svg-music-logos
  Copyright (c) 2016 Tiago Porto (http://tiagoporto.com)
-->
<svg xmlns="http://www.w3.org/2000/svg" class="korn" viewBox="0 0 180 200">
  <path d="M153.7 27l-1-.8-.9 2.3c-.7.1-1 .5-1.1 1.5l-.1 1.2-.4.9-.6-.8-.5.1c-.1.1-.3.3-.1.6l-1 .1-.8-.8-.8 2.1c-.4.6-1 .8-1.6.4-.6.6-1 1.9-1.2 3.3l-.3 1.7-.5 1.5-1.3-.6-1.2 1.6-2.8 12.9-.8-.6-.5-4.8.4-11.5-.6-3.8-.1 1.2-1-3h-.1l-.7 2.7c-.3 1.2-.8 1.6-1.5 1.4 0 4.2-.5 6.6-1.5 7-.1.3-.1.6.3 1.2l.4 1c-.6.6-.9 1.4-1 2.5-.1.5-.3 1.4-.1 2.6l-1.4.4c-.6 1.8-.4 3.3.3 4.3l1.3.6-1.3 11.5c-.4 1.4-.6 8.7-.8 21.6-.1 13.1.2 20.9.6 23.6-1 1.7-1 3.5-.1 5.2.6 1.7.9 5 .8 9.8l-.4 10.6.9.8.8.9v2.3l-.9 3.2c-.4 1.4-.6 2.4-.5 3.3 0 1.2.4 2.1 1 2.7v-3l.4-1.9c.1-1 .3-1.5.6-1.9l.8.3.1 1.6-.1 2.2.3 2.6.9 2.1.4-.1.3-2.1c-.1-.9 0-1.7.2-2.1l.5-.5.8-.1c.8-.1 1.2-1.3 1.2-3.5l-.5-2.3c-.4-1-.4-1.8-.3-2.3.6-2.6 1-6.2 1-10.7l-.4-13.1-.3-1.5c-.1-1.2 0-2.6.6-4.4l-.1-1.9-1.3-3.9c-.1-.8 0-1.4.4-2.1l1.2-3.3c.3-1.2-.1-2.2-1.2-3-.1-.8 0-1.5.4-2.3-.6-3.5-.1-5.9 1.5-7.1l.9-11.6v-2.3l.3-.6.9 1.4.5.9.8.8c.4-8.9 1.5-17.3 3.5-25 .6-.4 1.2-1 1.6-1.9l.4-1.2.6-1.1c.4-.1.8 0 1.2.6l.4.8.5.5v-1.1l.6-.9.5 1.1 1.2-1.1.8 1.2c0 .9.4 2.2 1.2 3.7l1.2 3.7c.3.1.5.3.9.4v1.5c-.3.9.3 2.3 1.4 3.7h.5l1.3-4.1 3.2 30.7.5-.4.5.1.5 6.8.8-.6.1.1-.9 4.6 1.5 20.3c-.4 4.2-.3 9.6.1 15.8l1 15.7.8 1.6-.3 3.9.4 1.9c.4 2.3.9 3.6 1.5 3.7 1 .9 1.4 2.2 1.6 3.8l-.2 4 .8 3.5-.8 3.3-.3 3.7.9.9 1.3-2.1-.1-2.6.6-1.4 1-1 .4-4.3-.4-5.1c-.6-1.1-1-5.2-1.2-12.5l-.1-13.4c-.6-1.4-.6-3.3 0-5.9-.5-.4-.8-1-.6-1.8l.5-1.7-.3-7.8-.5-1.9-.3-6.8.3-3.9-.3-4.1-1.4-6.9c-.4-3.9-.4-6.1.3-6.8l1.2.4.3-3-.8-3.1.1-2.9-.8-2.8-.5 1.3V81l-.4.5c-1-1-1.5-2.6-1.6-5.1-.1-2.3 0-4.1.4-5.5-.5-.9-1-2.8-1.4-5.5l-1.8-16.3c-.5-2.4-1-4.1-1.7-4.4l-5.6-13.8c-.5-.6-.9-1.9-1.2-3.5l-1.3-3.5.4 3.9-.3 1.9-.8 1.2c-.3-.5-.4-1.2-.4-2l-.6-1.9z"/>
  <path d="M115.5 15.4l-.1 3.5-.4.4-.3-1.2.1-1.4-1-1.2c-.4.5-.5 1.3-.6 2.5l-.5 2.6-1.3 1-.7-1.4-.9-.6-.6-.9-.9 2.8-1 2.2-2.3-.3c-.8 0-1.4.4-1.8 1.3l-1.2-.3-2.2 2.2-.6 2.9-.9-1.2h-.8l-1.2 6.8c-.6.2-1 .6-1 1.1-.1.4-.3.8-.1 1.4V39l-1.6 2.5-1.8 4.2-.3 3.2c.6 2.1.8 3.8.3 5.1h-.3l-.4-1.3-.8-1.1-.6 1.6-.1 12.2 1.9 10.1-.5 10.3 1 2.1 1.2-2.5.4.1 1.2 9.5c.6.3 1.2-.1 1.6-1.3.6.1 1.2.6 1.3 1.7l.3 2.2.8-.6.8-.9c.4-.1.7.1 1.2.8l.2.8.6.5c.4.3.6.1 1-.3l.9-1 .3 1.2-.1 2.5-1.2 1.9c-.2.5-.3.8-.2 1.2-.7 1.9-1.3 4.3-1.6 7.6l-1 7.8-2.4 7.9c-.9 3.7-1.5 8-2.2 12.9L93.8 153l-2.5 12.2-.5 10.9c-.2 4.3.3 7.9 1 10.9l1 .3.4-3.2-.4-3.1 1.2-.4.7-1c-.2-1.3-.2-2.4.2-3.5.4-1.2 1-2.1 1.9-2.8l.3-9.5c-.5-.9-.5-1.9.1-3l1.2.6.3 1.2.8.8.5-10.6c.8-.9 1.2-2.4 1.2-4.2l.3-4.7.7-2.1.7-4.6c.1-.6.4-.9.8-1l.6-2.7-.1-2.9c1-.9 1.9-3 2.3-6.4l.4-3.8.6-2.4.6-12.2c.6-6.5 1.8-9.9 3.4-10.3l.6 1.2.6-.1.3-.8 1.3.8.6-.3.3-.6.6-.9.3.4.4 1-.3 1.2.4 4.1.5.3.8-2.2v-2.4l.8-.5.8 1v1.4c-2.3 8.2-2.9 18-1.5 29.3l.6 4 1.3-.1-.5 16.8.5.6c.4-.6.5-1.5.4-2.4l-.4-2.4 1.4-6.5.9.3v4.3l-1 12.2c.1 1.7.6 2.8 1.4 2.9l.3 2.3-.3 2.4.7.4.5-.1.6.5c.5-.6.8-1.7.6-2.9l-.3-3 .4-.8.8-11.3c.4-4.2.3-7.9-.1-11.1l-.1-.6c.4-1.5.5-2.9.1-4.6l-1-4.4-.3-3.8.5-7.8-.3-3.9h-.4c-.4.3-.5.6-.4 1.4l-.3 1.2-.3-1.2.6-4.8-.1-9.1c.6-1.9 1-4.4.9-7.1l-.5-7 .1-1.9.4-1.7c-.3-.8-.4-1.8-.4-3.2l-.1-3.4c-.6-.4-.9-1-1-1.8l.3-2.3-.8-7.9v-5.5c-.6-.6-.7-1.3-.3-1.9-.4-3.2-.6-6.7-.6-10.7l.4-21.5-1-10.8-2.3 1.4-.6 2.3-.9 1.8-1-.1-.9-.2zm-9.6 18.4c.5-1.2 1.3-.7 2.4 1.2l1.4-.4.5-1.4.6.6.5.8c.6-.1 1.5.8 3 2.8l2.2 3.9.6 3.3-.6 10.4c0 1.9.1 3.4.5 4.6.4 1.7.5 4.1.3 7.1l-.5 3.5c-.1 1.4 0 2.6.2 3.7l.6 3-.5 3-.5-.4-.4-2.6-2.1 4.6c-1.4 2.3-2.6 2.8-3.5 1.7l-1.6.8-1.5 1c-.5-.1-.9-.4-1-1l-.1-.8-.4-.8c-.4 0-.8.3-1 .8l-.3 1.2-.5-1.7-1.2-1.6-.6.6-.4.8c-.5-.9-.8-2.6-1.1-5-.1-2.3-.5-3.9-1-5l-1.4-1.2c-.4-.6-.4-1.2-.3-1.7l1.3-.8-.5-5-1.2-4.5-.3-6 .3-.4.9.1 1.2-2.4.2-5.2c.5-1 1.1-1.9 2.1-2.7l.1-1.2h.9l.8-2 1.9-5.7-4.4 3.7.6 3.5c-.3-.6-.7-1.1-.8-1.7l.2-1.8 4.4-3.7z"/>
  <path d="M44.2 4.5l.1 6.8-.5.8-.8-.3-.3-7.2-.9-.8-1.7 5.5c-.6 2.8-1.2 4.2-1.4 4.4-.6.4-.9 1-1 1.9l-.1 2.4c.1.4-.1.9-.5 1.3l-.5.4-.4.6-.5 1.9-.8 2.3-1.2 1.8-2.1 5.9-1.2 1.7c.4.1.5.5.4 1.2l-1.9 5-.9 4.1-1.3 2.2c-.8.4-1.2 1.4-1.2 2.6v2.8l-.4.2-.5-1.2-1-3.3-1.1-.5c-.8.1-1.3 1-1.5 2.7l.8 2.6-.8 2.4.1 2.4c.4.4.5.9.3 1.6l-.5.8-.3.8-1.5.7v3.7l-.5 1.7-.7-7.3.4-7.5-.8-7.7.8-1.7.5-1.9-.3-2.3.5-2.6-.7-15.6-.9-.6-.4-2.5v-2.3l-.1-1.3-.3-1.2c-.3-.7-1-1.2-2.2-1v-2l-.9-1.2-1.1 1.2L11 22.4l-.3.3c-.9.1-1.4 1.3-1.3 3.7l.8 4.6.3 19.2c0 1.9.1 3.2.5 3.4l1 7-.3.5h-1.2l-.4.5c-.3.9 0 2.2.6 4.1l.8 2.1.3 2.3-.1 4.5.6 6.4-.5 1.7c.1.9 0 1.7-.5 2.6l-1.5 2.1-.8 1.8-.1 4.1-.6 1.8-1.2.4c-.6.6-1 1.7-1 3-1 1.4-1.4 3.2-1.2 5.6l.8 5.9h.6c.4-.8.6-1.8.4-3.1l-.3-1.5.3-1.6.8.6.8-.8c.6.5 1 1.4 1 2.4v1l.5 1 .5-2.8h1.2c.5 1 .9 2.8 1.4 5.3l.6 12.9c.1 5.2.4 8.4.8 9.7l-.3 1.6-.5 1.5-.3-.3-.5.1.5 4.4 1.4 4.4v20.1l.7 1.3c-.3 1.5-.3 3.2 0 4.7-.7 5-.5 8.9.8 12.2l-.1 1 .6.5.5-1.2.9-1 1.2 1.5c.4-.1.6-.6.5-1.3l-.4-1.5.4-5.1H19l-.4-1.2.9-20.7-1.4-23.1.7-.9c.1-.4 0-.8-.1-1.2l-1-1c-.1-.5.1-.8.8-1.2l.5-7.5L17.6 94l.1-.4 1.1.4v.8l.5-.4-.1-2.1-1.1.5-.1-2.9.1-2.9c.8-.8 1.7-2.3 2.6-4.8l1.8-5.5 1 .1 1.9 7.8c.5.6.8 1.4.8 2.4-.6 1.6-1.1 3.4-1.1 5.6l.3 5.7c.3 0 .8-.1 1.2-.5l.6-1 .4.4-.4 7.5c-.1 3.2.4 5.7 1.7 7.1l1.5 5.1c.9 2.1 1.3 3.6 1.3 4.8l1.2 13.6-.1 2.1.5 2.3h1.2l.8 9.8.7 1 .1.8c-.5 1.7-.5 3.5 0 5.7l3.1 12c.5 2.2.8 4.1.8 5.9l.5.8.8.8.7 5.5v5.9l.6 5.7c.4-.1.8.1.9.8l.3.6.5.6.5-2.8.1-2.3.5-.4.8.4c.9.6 1.5 1.7 1.7 3.2l.3 3.7 1.9-.2c-.6-2.3-.6-4-.3-4.9l.6-1 .1-1.3-2-12.5c-1.1-1-1.7-2.7-1.5-5.2l-.3-.9-1.2-.5.1-.9-.9-3 .6-5.9-.3-2.6-2.4-8.4-.1-3.9c0-1.7-.3-2.9-.6-3.7l-1 .8c-.4-.8-.4-1.7.1-2.6l-.5-9.5c-.1-4.3-.6-7.5-1.5-9.5l-.8 1.5.1-4.1c.1-1.5 0-2.7-.4-3.7l-.8 2.4h-.4L32.6 93l-2.4-8.8v-1.7l-.4-1.6c-1-.9-1.7-3.9-2.4-8.8l-.4-5.7.1-3.7 4.3-10.6c1.2-1.3 2.6-3.9 4.3-7.9 1.4-3.5 2.8-7.8 4.2-12.7l3.3-13.3c.9-4.3 1.4-7.6 1.5-9.5.5-.6.6-1.7.5-3.2-.1-1.4-.6-2.3-1.3-2.4l.3 1.4z"/>
  <path d="M74.6 71.3l-.8.8v1.5l-.5-1.4-.9-1.3-1.3 3.2-.4-1.7-.7-1.5-.3.1-.4 2-1.8-.6-1.2 1.3-1.2-1.2-.4.4.3 8.3c-.1 3.5 0 6.4.5 8.4l.3.9.9.3.8 1.5c-2.2 2.5-3.4 4.3-3.4 5.5l.1 1.4-.6 1.8c-.6-.1-.9.3-1 .9l-.1.8-.3.8-.1 2.1-.6 1.9-1.4 1.3-1.4 5.6.3 3.8c.2 2.2-.1 4.6-.5 7l-1.4 6.6-.4 6.6 1.4 14.5c.1 2.6.1 5-.1 7-.4 5.5.8 9.9 3.5 13.1l1.8-.9.4.8c-.6.9-.9 1.9-.8 2.9l1.2 3.1h.5l.3-.6.9-.9c.4.5.8 1.3 1 2.3l.5 2.8 1.2.8.8 1.5 1.3-.4 2.3.4c.9.1 1.5-.1 1.9-.6.4.3.9.1 1.9-.5l1.7-1.5 1-.3.6-1 .4-1.1.9-.5c2.5-7.9 3.8-14.4 3.9-19.4v-.9l1-.8c.3.4.4.9.4 1.7l.1 1.8.6-.3c.3-.6.3-1.5.1-2.6l-.4-2.6c.5-.6 1-4 1.4-10 .3-6 .3-12.5.3-19.6-.1-7.9-.3-14.3-.9-19.4-.6-6-1.4-9.3-2.4-9.9l-.3-5.1c-.5-1.9-1.4-3.3-2.7-4.4.1-2.5-1.1-5.7-3.5-9.9l-4.3-6.6zm0 19l.1-.9c.1-.4.4-.4.6 0l-.1 3 1.1 3 1-1.2v-2.3l.5-2.1.6.4 1.2 5.6-.1 1.3-1.3 2.4.3 1 .3.1h.5c.4-.1.5 0 .5.5l.5 1.3.5-1.7 1.7 24.3 1.9 6.5-.3 1.3-.9-.4c-.4 1.6-.3 3.2.5 4.6l-.1 11.3-.3.8c-.8 0-1.2-.6-1.2-1.9l-.6.9-5.1 14.7-1.1.3-.5.9-.4 1.2-1.2-1-.8 1-.3 1.2c-.4 1-.9 1.5-1.7 1.7l-.8-1.3-.4-2.8-1-1-1.2-4.8v-9.3c-.1-1.4-.3-2.3-.6-3-.6-.1-1 1.2-1 3.6h-.1l-.3-3.9c-.3-1.6-.7-2.8-1.4-3.7l.1-5.5c-.9-.1-1.3-.5-1.3-1.3l.5-2 1.2.5.5-.8-.8-12.1.3-.9.7-.3.4-.4.1-.9-.5-2.8.1-2.7c.6 1.2 1 1.4 1.3.8l.3-3c.1-1.2.6-2 1.3-2.5l1.7.3c.8-.8 1.4-1.7 1.5-2.8l-.4-6.1c0-1.2.3-2.1.9-2.9l1.5-.8.3-1.4 1.2-2.8v-1.2h.1z"/>
</svg>
