<!--
  SVG Music Logos
  Nervosa v1.0.0
  https://github.com/tiagoporto/svg-music-logos
  Copyright (c) 2016 Tiago Porto (http://tiagoporto.com)
-->
<svg xmlns="http://www.w3.org/2000/svg" viewBox="0 0 200 100">
  <path d="M187.928 31.54c0-10.568 6.395-18.117 7.993-19.183-2.308.533-7.904 7.372-9.236 7.372-1.332 0-5.625-9.15 11.132-17.735-15.513-.02-29.99 16.727-33.602 17.91 1.007 1.837 2.99 4.664 2.99 10.082 0 7.46-2.31 22.337-4.145 27.488-1.54-5.862-15.795-12.44-15.795-18.478 0-2.57 2.272-5.283 6.78-5.283 2.264 0 9.236 4.088 4.396 12.69 4.886-4.605 9.016-13.397 5.152-21.14-3.02 1.6-14.92 4.975-27.77-4.025 2.546 2.604 6.217 6.098 6.217 7.163s-1.304 2.31-1.66 3.316c-1.183-2.843-6.216-6.277-6.275-10.126-1.303 2.013-1.184 2.724-3.316 3.316-2.133.592-7.994 1.48-9.356 2.605 1.125-2.368 1.717-6.75 1.184-9.355-.414 1.954-6.572 10.836-12.67 11.19 0 3.198-1.955 22.975-4.856 28.304-1.243-3.197-4.086-21.908-2.428-28.42-1.717-.534-9.65-1.837-11.724-9.89-.414 1.837-.06 5.448.237 7.047-.71-.946-1.6-1.717-1.78-2.546-1.124 1.303-11.424 8.054-17.168.18-.83.77-2.665 2.9-3.08 3.137-.947-1.183-2.132-3.02-2.605-4.144-.118 2.664-2.546 7.224-8.35 7.224-5.802 0-5.742-2.132-5.742-3.138 0-1.007 2.605-4.263 7.697-4.322-3.375-1.007-7.165-1.362-17.112 6.454.415-4.145 2.31-9.474 3.85-11.368-1.777-1.54-17.705-16.638-21.73-16.638 5.328 5.862 12.315 9.414 10.065 40.56-1.836-3.554-8.467-18-5.447-22.62C28.06 15.85 11.896 1.937 1 1.996c5.566 2.96 13.737 10.42 12.08 14.092-1.66 3.67-4.116-1.954-10.69-3.02 5.863 5.15 9.06 10.658 9.504 16.43s2.753 37.837-7.016 41.478c5.15 2.043 14.388 9.06 16.875 12.257 2.487 3.197 10.303 11.635 17.852 15.543C33.12 91.225 19.71 76.57 19.71 48.95c0-13.412 2.842-19.807 3.64-21.317.09 3.908 4.62 16.164 4.62 19.362s-1.84 4.58-4.797-1.332c.09 3.64 5.217 8.8 6.395 12.79 1.984 6.72.207 11.812 1.924 15.66.977-5.773 7.046-12.286 11.487-13.618-1.067-3.11-1.333-12.168 0-11.99s3.108 1.54 3.64 1.88c-2.31-3.656-4.707-5.52-4.53-13.692 1.066.622 1.865 1.6 2.132 2.31.622-2.22 1.688-4.442 2.398-4.442.71 0 1.42 5.42 1.42 7.906s1.244 8.882-4.53 12.523c2.22.265 4.2-1.022 4.797-1.822.687 2.664-.178 9.903-2.22 12.923-2.043 3.02-6.04 9.593-12.434 7.106.977 1.82 3.434 2.694 5.3 2.694 4.617 0 13.706-7.4 19.746-7.4s7.815 2.575 8.703 3.285c.09-2.93 1.332-5.862 3.02-6.306-.444 4.53.178 13.144 3.553 18.117-.888-6.128-.888-14.92 7.283-16.164-1.067-2.487-2.044-8.26 1.154-8.26 3.197 0 4.263 6.84 3.997 10.303 3.198 0 7.728.977 12.702 4.44 0-1.035-.37-2.22-.8-3.02-.62-1.154 6.248 5.004 19.215 8.853-4.086-3.08-8.053-7.58-8.053-12.376 0-4.796 2.9-11.072 4.56-12.967.354 6.04 4.215 15.102 10.183 16.46 3.36.766 4.836.052 4.382 1.718-.267.977-3.494 3.138-5.27 3.316 3.02.238 9.887-1.953 13.973-10.48.533 2.31 9.83 15.87 21.08 2.192.77 2.9-3.258 7.58-5.152 8.645 4.797-1.48 9.77-6.336 11.31-12.316 3.257 2.488 7.046 5.33 9.237 12.613.178-4.678-.533-17.494-.533-20.19 0-3.14.83-4.205 2.9-4.205 2.073 0 7.935 2.31 7.935 12.553 0 10.244-3.494 25.165-18.475 33.1 16.52-4.737 24.632-22.796 33.395-24.928-4.322-7.226-11.072-30.762-11.072-41.33zM70.632 59.608c-1.243-1.895-4.026-5.388-4.026-5.388s-1.066 6.808-6.572 6.808c-2.31 0-4.382-3.08-4.382-5.15 0-2.073 2.072-4.087 3.316-4.087 1.243 0 3.79 1.304 2.724 4.68 2.487-1.126 4.618-9 2.428-14.863-1.007 1.717-4.204 3.375-5.447 3.375s-3.316-1.303-3.316-3.85c0-2.545 2.664-4.5 4.737-4.5 2.072 0 4.914 2.43 6.04 4.383 1.242-2.724 3.196-5.92 4.795-6.454-.12 2.073-.358 22.323-.298 25.047zm8.585-5.388c-.947.177-1.6-6.81-1.066-7.225.534-.415 2.415 1.184 4.464 1.303-1.917-2.013-5.056-5.743-5.056-9.296 0-3.553 1.717-4.44 3.434-4.44 1.776 0 6.276 2.13 6.276 5.506.002 6.63-7.104 13.973-8.05 14.15zm18.665 14.89c-1.834-2.93-6.645-13.76-8.895-14.888 1.658-1.78 4.678-7.283 5.447-9.83.77 2.603 4.04 16.784 3.448 24.718zm29.532-8.14c-4.44 0-6.454-5.093-6.454-7.935s3.3-8.94 7.327-10.658c-3.908.09-5.492 2.31-6.558 2.31-2.31 0 .117-9.593 5.92-9.593 2.487 0 7.4 3.197 7.4 9.65s-3.195 16.225-7.636 16.225zm19.48 3.566c-1.02 0-8.437-4.352-1.02-12.3-2.354.22-4.796 2.886-5.64 3.64 1.51-2.53 2.043-7.283 2.176-9.46 1.51 1.955 8.97 7.106 8.97 12.39s-3.464 5.73-4.485 5.73zm27.09-18.34c0-8.31 2.22-20.072 3.197-20.072 1.69 0 4.708 16.52 4.708 20.072 0 3.552-7.904 2.398-7.904 0z"/>
</svg>
