<!--
  SVG Music Logos
  Pearl Jam - Pearl Jam v1.0.0
  https://github.com/tiagoporto/svg-music-logos
  Copyright (c) 2016 Tiago Porto (http://tiagoporto.com)
-->
<svg xmlns="http://www.w3.org/2000/svg" version="1.1" viewBox="0 0 1082 85">
  <path d="M83.6453,8.2866c-26.2938,0-77.7259-.0234-77.7259-.0234v72.4794h15.0103v-27.0756h60.3275c32.7654,0,46.2545-11.2957,46.2545-23.2169,0-11.7228-13.5016-22.1635-43.8664-22.1635ZM87.0611,44.876c-5.2083,0-66.0819.0531-66.0819.0531l-.0718-28.3291h66.3036c16.9302,0,25.2768,6.6404,25.2768,14.4896,0,8.8834-15.9701,13.7864-25.4267,13.7864Z"/>
  <polygon points="201.5539 72.431 159.3393 72.431 159.3393 53.667 220.0466 53.667 228.2571 45.336 159.3393 45.336 159.3393 16.5749 256.6023 16.5749 264.7937 8.2632 144.2982 8.2632 144.2982 80.7426 193.3625 80.7426 201.5539 72.431"/>
  <path d="M358.1892,80.7426h17.039L301.0106,4l-74.2176,76.7426h17.039l26.2035-27.095h61.9502l26.2035,27.095ZM278.0736,45.336l22.937-23.7173,22.937,23.7173h-45.8739Z"/>
  <path d="M506.4959,30.4501c0-11.7228-13.5016-22.1635-43.8663-22.1635-26.2938,0-77.7259-.0234-77.7259-.0234v72.4794h15.0103v-27.0757h44.9282l27.1607,27.0757h17.0355s-18.1784-17.7984-28.2531-27.0816c32.3649-.1263,45.7108-11.3569,45.7108-23.211ZM466.0453,44.876c-5.2083,0-66.0819.0531-66.0819.0531l-.0718-28.3291h66.3036c16.9302,0,25.2768,6.6404,25.2768,14.4896,0,8.8834-15.9702,13.7864-25.4267,13.7864Z"/>
  <path d="M522.6379,8.2632v72.7368h66.8402c16.0689,0,31.7829-12.4923,32.8416-15.956h-21.5745s-7.7994,7.804-18.2001,7.804h-45.0699V8.2632h-14.8373Z"/>
  <path d="M756.2959,8.2632v72.7368s-50.7712,0-66.8402,0c-16.0689,0-31.7829-12.4923-32.8416-15.956h21.5745s7.7994,7.804,18.2001,7.804c10.3983,0,45.0699,0,45.0699,0V8.2632h14.8373Z"/>
  <path d="M897.5749,80.7426h17.039L840.3963,4l-74.2176,76.7426h17.039l26.2035-27.095h61.9502l26.2035,27.095ZM817.4593,45.336l22.937-23.7173,22.937,23.7173h-45.8739Z"/>
  <polygon points="1060.244 8.2632 1002.1245 65.5245 942.679 8.2632 927.249 8.2632 927.249 80.7426 942.679 80.7426 942.679 26.0707 1000.4158 80.7426 1003.397 80.7426 1059.9547 26.0707 1059.9547 80.7426 1076.0806 80.7426 1076.0806 8.2632 1060.244 8.2632"/>
</svg>
