<!--
  SVG Music Logos
  Weezer - Weezer v1.0.0
  https://github.com/tiagoporto/svg-music-logos
  Copyright (c) 2016 Tiago Porto (http://tiagoporto.com)
-->
<svg xmlns="http://www.w3.org/2000/svg" viewBox="0 0 200 35.9">
  <path d="M192.387 2.637c1.745-.483 3.543.024 5.113.802-.676 1.086-1.34 2.166-2.016 3.247-1.207-.29-2.506-.73-3.7-.127-3.176 1.196-4.583 4.734-5.005 7.854-.617 6.08-.267 12.207-.352 18.31-1.352-.005-2.698-.005-4.045.007-.012-9.84-.006-19.68-.012-29.52 1.353 0 2.7 0 4.052.012 0 1.286 0 2.572.036 3.857 1.642-1.853 3.388-3.905 5.93-4.443z"/>
  <path d="M156.4 3.27c2.935-.97 6.14-1.062 9.147-.392 4.932 1.093 9.026 5.03 10.552 9.804.597 1.793.748 3.688.887 5.554-8.838.03-17.683.036-26.52 0 .102 3.31 1.28 6.69 3.84 8.9 3.694 3.53 9.75 3.458 13.908.79 1.98-1.202 3.23-3.206 4.474-5.09 1.115.556 2.22 1.135 3.307 1.74-2.01 4.164-5.753 7.61-10.384 8.51-4.304.774-9.12.448-12.762-2.202-5.366-3.882-7.654-11.26-5.722-17.555 1.376-4.487 4.75-8.53 9.273-10.06zm-.513 4.498c-2.626 1.528-4.13 4.31-5.01 7.124 7.262.012 14.525.006 21.793.006-.652-1.986-1.406-4.04-2.964-5.5-3.568-3.49-9.544-4.274-13.82-1.63z"/>
  <path d="M121.972 3.21c7.262.012 14.513-.024 21.77.024-5.483 8.687-11.097 17.29-16.567 25.984 5.318.048 10.643.03 15.968.012v3.5c-7.594-.023-15.19-.017-22.784-.01 5.47-8.695 11.12-17.28 16.547-26.003-4.962-.072-9.937-.042-14.9-.012-.035-1.164-.035-2.33-.035-3.495z"/>
  <path d="M97.932 2.976c4.914-1.238 10.6-.375 14.392 3.157 3.508 2.97 5.114 7.576 5.216 12.08-8.838.096-17.676.024-26.508.042.048 3.35 1.31 6.773 3.918 8.97 4.002 3.696 10.62 3.327 14.742.025 1.534-1.17 2.373-2.952 3.647-4.36 1.116.51 2.172 1.124 3.2 1.794-2.066 4.02-5.646 7.395-10.168 8.373-4.43.84-9.387.483-13.136-2.264-5.512-4.118-7.667-11.93-5.282-18.353 1.635-4.436 5.294-8.305 9.978-9.464zm-1.635 4.877c-2.53 1.545-4.033 4.244-4.86 7.015 7.25.048 14.5.048 21.75.006-.645-2.034-1.442-4.13-3.06-5.61-3.64-3.397-9.593-4.133-13.83-1.41z"/>
  <path d="M61.825 3.005c5.035-1.298 10.878-.398 14.718 3.29 3.387 2.977 5.005 7.523 4.975 11.966-8.832-.005-17.664-.023-26.502.013.145 3.308 1.346 6.676 3.9 8.898 3.453 3.243 8.983 3.43 13.04 1.233 2.402-1.147 3.93-3.417 5.336-5.584 1.093.59 2.21 1.158 3.315 1.726-2.005 4.063-5.58 7.504-10.106 8.482-4.472.875-9.543.543-13.292-2.3-5.307-4.02-7.528-11.512-5.367-17.803 1.497-4.625 5.222-8.646 9.985-9.92zm-1.28 4.72c-2.65 1.53-4.238 4.312-5.09 7.16 7.252.02 14.502.02 21.752 0-.622-2.075-1.437-4.2-3.103-5.686-3.567-3.32-9.357-4.003-13.56-1.474z"/>
  <path d="M2.5 3.23c1.377-.013 2.76-.02 4.13.03 2.854 7.062 5.885 14.065 8.837 21.086 3.187-6.99 6.218-14.066 9.285-21.105.242.013.707.05.936.062 3.048 7.04 6.127 14.066 9.315 21.045 3.055-7.027 6.097-14.066 9.08-21.123 1.37-.006 2.734-.006 4.105-.006-4.105 9.478-8.216 18.95-12.316 28.428-.326.55-.56 1.745-1.322.906-3.29-6.798-6.122-13.818-9.327-20.66-3.11 6.92-6.176 13.856-9.237 20.8-.24.01-.718.035-.96.047C10.85 22.902 6.624 13.086 2.5 3.23z"/>
</svg>
