<!--
  SVG Music Logos
  Dio - Holy Diver v1.0.0
  https://github.com/tiagoporto/svg-music-logos
  Copyright (c) 2016 Tiago Porto (http://tiagoporto.com)
-->
<svg xmlns="http://www.w3.org/2000/svg" class="dio" viewBox="0 0 200 100">
  <g>
    <path d="M170.208 19.04c-28.535 14.04-28.133 50.985-3.412 58.597-9.955-1.06-16.838-4.626-21.35-10.253-8.978-11.2-9.04-27.95.17-38.958 5.61-6.708 14.077-9.69 24.592-9.386z"/>
    <path d="M157.6 68.142c5.142-1.93 10.284-3.857 15.427-5.785V20.672c18.062 16.583 14.25 45.06-10.236 53.108l8.308 3.56c7.813-1.286 14.043-5.34 18.692-12.165 9.727-15.95 4.802-36.79-5.044-51.327l-22.548 11.72v16.548c-5.22 1.055-9.354 3.52-11.423 8.67 4.033-3.324 7.84-4.616 11.423-3.878v1.778c-4.63-.197-8.338 1.294-11.126 4.474 4.4-1.012 8.107-.94 11.126.217v1.266c.444 6.082-1.09 10.582-4.6 13.5z"/>
  </g>
  <g>
    <path d="M136.043 7.395c-1.554 7.384-6.323 12.478-19.47 11.614-8.223-.777-15.813-.04-21.138 6.1-5.665 8.006 2.51 16.228 8.94 9.608-5.33 2.23-8.652-2.333-4.447-5.81 3.2-2.645 9.374-1.92 13.39-2.376 5.903-.67 11.308-1.782 15.455-4.097 7.187-4.637 8.55-9.734 7.27-15.04z"/>
    <path d="M119.474 27.644v34.713c-23.34 2.102-25.22 20.744-12.61 21.66-9.576 2.212-12.55-7.44-7.052-16.036 3.586-5.605 8.128-4.88 9.05-12.682.058-.487.105-1.047.14-1.648-2.883-1.354-7.057-1.42-12.52-.193 3.47-3.405 7.822-4.386 12.623-4.134-.004-.73-.014-1.458-.014-2.188-4.51-.513-8.716.51-12.45 3.886 1.804-5.257 6.2-7.924 12.45-8.734V28.96c3.52.116 6.982-.114 10.384-1.316zM121.567 27.365v34.668c4.76.24 15.14-1.685 13.322 4.093 2.915-2.862-.59-5.083-2.088-6.902-.912-1.364-1.07-2.916-1.124-4.494V22.47c-2.768 2.133-6.06 3.832-10.11 4.895z"/>
    <path d="M102.788 71.985c6.166-6.718 16.17-8.637 28.328-7.865 1.437.09 2.26.633 1.525 1.524l-1.765 1.846c-.517.485-1.295.796-2.648.722-1.12-.163-2.232-.293-3.332-.388 1.938 4.825-.107 8.56-3.25 10.82 2.266-5.796.734-11.024-6.413-10.68-4.387.56-8.55 1.853-12.444 4.02z"/>
  </g>
  <g>
    <path d="M53.98 20.748c4.443-4.246 7.11-9.874 7.998-16.885C89.058 21.94 98.486 42.905 84.49 67.698c-5.43.74-10.368 2.22-14.218 5.332 3.902-16.563 1.138-33.744-16.292-52.282zM52.5 22.23v39.99c-3.58-.767-7.283-1.162-11.257-.742V28.153c4.17-1.136 7.874-3.21 11.256-5.924zM39.317 28.597c-3.752.593-7.504.593-11.256 0v12.868c-5.63.887-10.294 3.18-12.292 9.35 3.483-3.31 7.58-4.622 12.293-3.938v1.662c-4.88-.094-9.168.92-11.996 4.644 4.196-1.74 8.215-1.89 11.997.097v11.456c3.358-1.827 7.11-2.863 11.257-3.11v-33.03zM68.134 74.19c-4.42-5.344-10.21-9.122-17.603-10.464-10.13-1.84-22.45.67-30.897 7.953-9.106 8.998-7.274 19.49-.47 22.758 5.82 1.88 10.633.36 13.97-6.12-3.747 4.09-8.884 4.836-11.302 1.726-4.42-4.948.572-13.617 10.517-14.44 10.36-1.047 18.835 1.883 25.428 8.79 3.034-4.03 6.488-7.43 10.36-10.204z"/>
    <path d="M59.865 3.57c-1.027 6.368-2.81 12.81-13.49 20.144-5.295 2.986-11.124 3.288-17.168 2.896-3.166-.206-6.39-.602-9.63-.904-5.197-.29-8.93 2.523-9.807 6.03-.916 3.67 1.06 7.222 5.084 7.11 2.31-.066 4.157-1.588 4.185-3.17-1.712.022-2.7-2.383-1.08-3.598 2.4-1.692 3.88.042 3.867 1.44.693 2.823-2.225 6.842-6.295 8.362-2.895.82-5.82.303-8.08-1.322-4.225-3.038-4.563-8.122-2.62-12.63 2.047-4.747 6.78-7.9 12.77-8.71 6.234-1.08 12.65 1.08 19.513-.27 11.328-2.213 17.9-8.127 22.75-15.378z"/>
  </g>
</svg>
