<!--
  SVG Music Logos
  Sextrash - Rape from Hell v1.0.0
  https://github.com/tiagoporto/svg-music-logos
  Copyright (c) 2016 Tiago Porto (http://tiagoporto.com)
-->
<svg xmlns="http://www.w3.org/2000/svg" viewBox="0 0 200 90" class="sextrash--rape-from-hell">
  <path class="sextrash__border" d="M196.816 34.91c-.436-.673-5.327.15-7.797.3-2.47.15-2.32-.6-4.192-.68-1.87-.08-1.572 2.25-2.844 2.948-1.272.697 0-1.96-2.096-2.792-1.71-.68-4.266.318-5.54-.206-1.27-.524 1.105-2.783-1.25-2.982-2.546-.215-4.362 3.04-5.485 3.04-1.123 0-1.286-1.075-4.098-1.124-4.856-.084-6.377 2.638-8.173 4.603-1.796 1.965-2.015 5.5-3.952 5.557-1.515.044-.954-3.873-1.01-4.603s2.526-1.936 1.964-3.094c-.47-.97-7.742-.427-10.493-.596-2.75-.168-4.493.793-4.718 1.47-.286.86 1.572 1.098 1.74 3.288.1 1.292-1.366 8.177-2.433 11.6s-2.172 2.658-2.284 2.266c-.112-.392.994-.58.507-1.226-.45-.6-1.473-.09-2.332-.656-.504-.332-.925-.933-1.318-1.868-.58-1.38 1.01-6.112.45-9.33-.29-1.65-4.754-5.128-8.758-5.84-2.617-.464-7.298-.186-9.693.113.076-.748 1.9-3.344.08-3.862-1.688-.48-5.66 3.574-7.21 3.974-2.32.598-8.935.878-10.944-.263-1.647-.936.636-4.08-1.647-4.08-2.044 0-5.165 4.64-8.46 4.678-3.292.036-11.825-1.458-15.268-1.832-3.443-.374-5.988 3.218-7.634 3.036-1.647-.183-1.572-1.727-3.81-2.53-1.695-.61-7.193.39-8.914.242-1.72-.15-3.287-2.32-5.09-2.32-1.403 0-.22 3.244-4.79 2.545-1.886-.288-3.915.27-5.37-.105-1.453-.374-1.367-4.16-1.44-6.63s2.693-6.7 2.693-9.88c0-1.386-2.882-4.38-5.09-8.084-2.1-3.522-3.742-8.832-8.682-8.832-2.928 0-5.838 5.838-8.083 10.18-2.245 4.34-8.982 15.176-8.982 19.01 0 2.845 9.73 11.227 9.58 12.724-.15 1.497-1.796 2.395-3.115 3.144-1.32.748-9.683 6.512-9.833 7.784-.15 1.272 3.07.674 3.667 1.647s-.15 3.667.897 5.09C6.615 62.157 9.505 65.23 11.75 68c2.246 2.77 3.795 6.367 5.53 6.367 2.33 0 5.81-4.912 7.523-5.698 1.25-.574 4.322-.843 4.8-.282.575.676-.384 1.254-1.207 2.52-.823 1.264.763 2.087 1.946 2.326 2.825.57 8.383-.27 10.768-.27 2.188 0 4.314 3.188 4.838 3.114.524-.075 1.757-2.983 3.33-2.993 1.43-.01 7.464-.04 8.59-.07 1.67-.04 3.342-1.645 3.338-2.634s-3.284-.44-3.31-3.545c-.01-1.4 1.988-7.34 3.282-7.204 1.347.14 3.06 6.235 3.06 7.383 0 .9-2.837 2.468-2.752 3.452.025.282 1.3 2.192 2.273 2.192 3.91 0 11.465-.51 13.584-.77 3.07-.374 8.98.237 11.6.225 9.848-.047 13.623.374 16.018.545s1.545-2.946 2.545-1.294c1.104 1.824 11.377 1.572 12.948 1.497 1.572-.075 1.89-1.864 2.414-2.17.523-.307 3.423.074 4.47.216 1.05.142 2.163 2.818 2.686 5.396.43 2.13 3.593 7.372 5.164 8.87 1.572 1.496 6.025 3.883 6.624 3.658.6-.225-.337-.797-2.61-5.13-1.42-2.705-4.8-9.307-4.918-10.794-.034-.435 6.312-.062 7.2-.197 1.113-.17 1.174-2.348 1.698-2.423.524-.075 1.55 1.832 2.793 2.197.9.264 8.125.042 9.36.21.742.1 2.367 4.618 3.12 4.656 1.655.084 1.994-3.856 3.145-4.698.607-.444 7.578-.767 8.55-.393.974.373 6.748.97 7.775.61 1.028-.362 2.676-3.418 3.125-1.34.56 2.585 5.79.953 7.662.654 1.87-.3 3.516.476 4.416.524 1.59.084 2.986-.303 3.573-1.324.853-1.483-1.737-3.655-2.076-4.888-.552-2.012-.812-10.018-.99-11.212-.252-1.705-1.106-1.063-1.33-2.133-.225-1.07 1.88-1.52 2.17-3.644.136-.99.034-7.54.6-9.13.74-2.078 3.546-1.6 3.892-2.32.282-.582-1.718-2.47-2.154-3.145zM21.74 61.28c-.482 1.762-1.867 3.384-3.558 3.384-2.267 0-4.943-4.304-4.89-5.706.072-1.85 1.347-1.822 1.16-2.493-.267-.963-1.088-.35-1.377-1.386-.254-.91 1.523-1.204 1.223-1.81-.44-.885-1.89.216-2.178-.99-.104-.437 1.235-2.863 2.19-2.807.953.056 2.293 1.75 2.967 1.637s-1.68-3.532 2.318-3.532c2.985 0 5.026 3.472 4.94 5.386-.13 2.812-2.588 4.317-2.73 4.955-.24 1.08.333 1.91-.065 3.363zm10.588-1.144c-.387 1.868-2.02 3.268-3.424 3.268-1.948 0-2.12-1.057-1.067-1.605.754-.392.976-1.466 1.553-2.8.606-1.403 1.324-2.92 1.422-3.522.288-1.776-1.24-4.266-.984-5.22.255-.955.75-1.96 1.94-1.702.647.14-.398 2.25.108 3.205.505.955.612 7.607.452 8.376zm-2.807-17.01c-1.795 0-5.3-1.515-8.207-4.602s-4.928-5.782-4.423-7.073c.505-1.292 2.19-3.2 1.74-3.537-.45-.337-2.414 1.965-3.087 1.965-.674 0-2.358-1.903-2.245-3.365.112-1.462 2.582-8.254 3.256-8.31.674-.057 2.245.616 2.526.055.28-.56-1.01-1.965-.45-3.03.562-1.068 1.964-5.334 3.032-5.334 1.46 0 2.302 2.442 2.807 3.79s-.927 2.328-.59 2.833c.337.505 2.593-.355 3.227.758 1.375 2.414-1.235 5.39-2.02 5.613-.787.225-3.65-.798-3.65-.245 0 .722 7.045 7.76 7.045 10.49 0 1.796-1.29 2.693-1.01 3.928s5.052 1.91 5.052 3.566c0 1.405-1.762 2.5-3.003 2.5zm18.89-1.36c.944.144 5.725 3.635 5.666 4.196-.084.805-3.728 1.207-4.486 1.207-1.15 0-2.78-1.684-2.835-2.694-.056-1.01.365-2.905 1.656-2.71zm-9.233-2.287c.73-.033 3.536-.313 3.536.35 0 1.25-1.97 2.253-1.97 2.923 0 .67-.964 3.212-1.566 3.35-.73.17-.225-1.99 0-2.82.224-.828-1.01-3.758 0-3.803zm8.504 26.218c-3.114-.115-3.9-1.743-4.462-1.687-.56.056-1.734 1.938-2.19 1.852-1.46-.274-3.13-6.708-2.4-7.157.373-.23 2.345 3.452 3.805 3.228 1.46-.224 1.95-1.103 3.256-.897 2.132.337 4.723 1.62 4.724 2.02 0 .814-1.616 2.683-2.733 2.642zm3.818-7.78c-.786-.226-4.35-3.242-4.407-4.216-.055-.976.974-2.49 1.713-2.49 1.038 0 3.183 2.61 3.677 5.5.173 1.01-.196 1.43-.982 1.204zm2.835-.812c-.898 0-2.177-2.92-2.302-3.878-.195-1.51.253-2.915 1.432-2.915 1.123 0 2.723 1.956 2.666 2.915-.055.96-.925 3.878-1.795 3.878zm6.976-10.48c-1.014 0-3.51-4.65-3.497-5.874.012-1.073 1.334-2.685 2.844-2.685 1.28 0 3.075.35 3.105 2.52.03 2.17-2.08 6.038-2.453 6.038zm20.697-10.12c1.01-.422 1.347.308 1.347.7 0 .394-.365 1.348-1.095 1.348-.814 0-1.505-1.527-.253-2.048zM70.92 56.316c-.333.375-2.02 1.263-3.592.196-1.07-.726-2.05-2.37-2.212-4.098-.153-1.623.913-4.39 4.794-7.017 2.78-1.88 12.537-6.35 14.118-6.203 3.76.348-.68 2.738-.14 3.48.674.926 2.087-.442 3.733 0 2.78.746 5.193 4.575 5.755 6.877.56 2.302 1.7 6.38-.646 6.99-3.037.785-16.373 1.82-17.852 1.29-3.06-1.095-3.18-4.77-3.986-4.77-.63 0 .478 2.75.03 3.255zM93.404 60.5c-.056.588-1.347 1.294-2.245 1.297-1.516.005-4.154-.794-4.154-1.453 0-.8 1.554-1.58 2.638-1.453 1.487.178 3.817 1.02 3.76 1.61zm-8.645 1.297c-.45-.09-1.796-.41-1.628-1.775.094-.758.904-1.27 1.488-1.13.982.23 1.095 1.2 1.263 1.607.17.407-.673 1.388-1.122 1.297zm-2.92-.96c0 .98-1.655 1.183-2.862.925-.52-.11-2.54-.746-3.778-1.01-1.017-.22-1.026-.695-.646-1.236.265-.377 1.17-.674 2.853-.617 1.683.055 4.434.954 4.434 1.936zM71.203 64.26c.08-1.03 1.133-2.518 2.105-2.835 1.207-.393 4.407.337 4.463.898s-3.65 3.087-5.585 3.087c-.563 0-1.038-.45-.983-1.15zm23.505 2.807c-1.178 2.61-4.73 4.063-11.184 4.014-6.455-.048-10.553-2.187-10.553-3.76 0-1.095 4.687-4.35 6.96-4.547 1.515-.13 9.254.682 10.723.73 2.61.084 4.86 1.777 4.054 3.564zm.21-21.387c-.158 1.572-1.936 1.768-2.75.31-.54-.967-2.582-2.92-2.47-3.93s1.107-2.277 2.47-2.19c1.74.113 1.125 1.517 1.067 2.134s1.843 2.104 1.684 3.676zm6.064-3.004c0-.758 2.813-2.63 3.537-2.526 1.364.196-.112 2.33.926 2.62 1.18.328 2.807-2.003 4.126-1.835.796.102 1.01 1.46 1.178 3.65.168 2.188.318 6.176-.805 6.483-.823.225-3.32-.926-3.91-2.515-.29-.78.084-1.724-.45-1.817-.343-.06-.902.762-1.543.627-1.824-.385-1.796-1.55-1.852-2.45-.056-.903-1.207-1.664-1.207-2.237zm8.225 24.952c-1.64 1.055-3.996 1.43-4.575 1.08-.898-.543-.742-1.52-1.048-1.52-.435 0-.103.833-.44.72-.337-.112-2.127-2.03-1.937-3.2.188-1.158.844-2.655 1.628-2.666.898-.013 5.698-.35 6.933.56 1.235.913.442 4.38-.56 5.026zm-3.282-6.09c-1.364 0-2.892-.26-3.763-1.488-.418-.59-.648-6.79.028-7.466.842-.842 3.407-.46 4.63.253 2.36 1.375 4.223 4.098 4.295 5.277.072 1.178-2.204 3.424-5.19 3.424zm18.346-16.556c.164.12.668.887.456 1.624-.65 2.258-3.785 6.428-4.56 6.736-1.77.702-2.618.443-2.618-1.096 0-1.54-1.017-3.928.225-4.62.677-.375 5.755-3.18 6.496-2.644zm-8.33-3.428c.083-.723 1.34-2.006 2.477-2.02 1.285-.013 2.932.42 2.94.897.02 1.04-2.28 2.15-3.014 2.32-.886.207-2.525-.11-2.402-1.196zm4.938 28.355c-2.13 0-3.702-2.086-3.79-4.564-.06-1.71-.185-3.92.307-4.23.71-.446 2.83 1.778 3.285 2.607.456.83 2.678 3.898 2.62 4.387s-1.38 1.8-2.422 1.8zm4.89-1.524c-.387.137-2.353-1.504-2.866-2.302-.513-.798-4.25-5.394-4.098-6.693.022-.19.505-.66 1.123-.66 1.077 0 2.73 1.842 3.26 2.655 2.38 3.66 3.14 6.805 2.582 7zm6.368-2.554c-.45.08-1.926-2.698-2.386-4.294-.617-2.146-4.508-5.753-4.238-6.035.43-.45.983-.29 2.807.393 1.823.684 4.827 2.582 5.182 3.87.272.99-.604 5.932-1.366 6.066zm9.23-13.706c.132-.4.57-2.233 1.435-4.398.843-2.105 1.514-5.563 1.952-5.533.566.04.145 3.504.715 4.64.57 1.134.913 3.58.685 4.295-.228.714-.568 1.653-1.965 1.953-1.397.3-2.936 2.124-3.335 2.01-.398-.114.23-2.115.513-2.967zm7.92 14.478c-.455 2.45-3.597 2.63-4.913 2.652-1.18.02-2.582-.173-2.75-.982-.118-.56 1.087-2.1 1.002-2.277-.246-.513-1.326 1.495-2.295 1.407-.97-.087-1.644-1.028-1.644-2.395 0-1.37.798-4.56 1.31-5.358.362-.56 3.613-.173 3.99.847.498 1.346-1.368 2.67-1.995 3.133-.626.463-.455.97.685.09 1.14-.88 2.32-2.305 3.524-2.077 1.206.228 3.543 2.508 3.087 4.958zm10.58-25.724c1.18-1.01 2.276-1.038 2.526-.084.25.954.982.533.758-.084-.225-.617.45-2.02 1.516-2.077.843-.044 5.23 3.475 5.136 5.164-.112 2.02-3.593 2.357-4.715 2.58-1.123.226-4.66.9-5.445-.167-.786-1.067-.955-4.322.224-5.333zm-5.333 19.31c-1.123 0-2.907-2.815-2.74-3.82.214-1.272.967-1.69.91-2.458-.057-.77-.852-2.35-.738-3.264.114-.912.394-2.638 1.25-2.695.966-.064 1.344 3.344 2.354 4.466 1.765 1.96 4.39 2.41 4.43 3.083.12 2.02-3.642 4.687-5.467 4.687zm13.473 3.677c-.346 1.96-1.578 3.782-2.562 3.452-1.592-.534-1.91-1.4-1.682-2.37.228-.968-.307-.826-1.286-.23-1.02.623-1.515 1.533-2.834.213-1.515-1.515-.942-2.89-.52-4.085.423-1.197 3.168-2.547 4.27-2.398 1.315.178 5.095 2.692 4.614 5.417zm-5.333-14.847c.56-1.74 2.545-2.45 3.61-2.47 2.02-.038 4.352.004 4.728 1.403.672 2.498.504 7.41-.563 7.634-1.066.225-8.216-5.198-7.774-6.567zm8.737 10.693c-.365.008-1.608-1.525-1.608-2.18s.852-1.34 1.347-1.3c.39.032 1.01.16 1.066 1.3s-.44 2.173-.806 2.18zm6.532.197c.112-.73 2.637-2.577 3.368-2.358 1.403.42-.898 3.65-1.74 3.705-.842.056-1.74-.617-1.628-1.347zm8.167 8.252c-1.517.73-6.99 1.05-7.214-.803-.225-1.853.393-3.015 1.684-2.847 1.29.168 2.863.337 3.087-.112.225-.448-1.29-.345-1.628-.76-.338-.417-.675-1.534 0-2.38.673-.844 2.048-2.425 3.395-2.65.86-.143 1.88 1.413 1.937 3.826.056 2.414-.44 5.33-1.263 5.726zm1.992-25.935c-.28 2.077-2.502 1.722-2.358 2.526.168.936 1.31.543 1.235 1.91-.127 2.3-4.887 4.07-6.007 3.985-1.478-.112-.88-1.72-1.317-2.152-.468-.46-.48.175-.31.655s.252 1.133.224 1.5c-.028.365-.702.812-1.274.7-.572-.112-.415-1.235-.364-1.852.02-.227.43-.484.816-.68.306-.157.522-.54.185-.546-.62-.01-1.123.692-1.385.393-.393-.45-.73-2.507-.393-3.35.337-.84.417-1.795 1.54-1.458s1.505.113.874-.618c-.728-.842-2.303-2.078-1.08-3.088 1.023-.844 2.034.617 3.212.617 1.18 0 2.305-1.685 3.368-1.685.994 0 1.744.36 2.32 1.14.37.5.82 1.193.712 2.002z"/>
  <g class="sextrash__lettering">
    <path d="M44.643 33.586c-.617 0 .095 2.003-1.083 2.283-1.18.28-6.292.126-7.414.07-1.123-.056-1.74 1.067-3.424.842-1.684-.225-2.637-8.16-2.526-10.404.187-3.78 2.694-7.185 2.77-8.682.048-.975-2.172-2.807-4.716-6.437-1.67-2.385-3.93-8.047-6.512-8.047-2.433 0-4.117 4.38-7.56 9.88-1.984 3.17-7.222 13.585-7.67 16.56s12.236 14.707 15.1 17.01c2.862 2.3 4.252 4.518 4.434 7.044.182 2.526-4.547 10.694-5.557 11.985-1.01 1.29-2.466 3.103-3.48 3.03-1.33-.093-2.988-5.767-4.49-7.184-1.966-1.852-1.966-3.368-2.134-4.38-.167-1.01.787-2.244.618-2.862-.168-.617-1.628-.45-1.74-1.684-.062-.68 2.133-2.863 3.2-3.705 1.067-.842 1.684-1.965 1.235-2.02-.45-.057-2.19 1.01-3.76 1.85-1.573.843-7.242 4.436-7.13 4.772.112.336 3.256 0 3.703.673.447.674.058 2.863.002 3.76-.056.9 1.235 2.64 2.807 3.987s2.513 3.428 3.748 5.786 3.362 4.938 4.934 4.938c1.128 0 5.015-5.167 5.352-5.616.336-.45 2.357-.112 3.535-.168.435-.02.998.17 1.403 0 .692-.288 1.12-1.03 1.085-1.347-.056-.505-1.48-.57-2.713-.393-1.703.243-2.19-.28-2.582-.954-.393-.674.267-1.746 1.46-2.582 2.19-1.534 3.712-6.567 3.76-7.466.113-2.077-.84-3.424-1.57-4.098-.73-.674-1.086-1.983-.506-2.75.396-.525 5.445-3.088 6.287-3.088.84 0 .897 1.91.673 3.03-.225 1.124.168 2.64.674 2.864.505.225 5.726 0 6.455-.056.73-.056 1.01-2.358 1.628-2.302.617.056.842 3.144.786 4.042-.056.898-.168 4.154-.786 4.154-.617 0-1.74-2.92-2.02-3.144-.282-.225-3.2.225-4.267.112-1.067-.112-2.414.617-2.526 2.19-.112 1.57 1.067 5.893.898 7.24s-2.975 1.91-3.2 2.582c-.225.674 3.368 1.796 3.087 2.92-.28 1.122-2.245 2.076-2.414 2.525-.168.448 3.087.11 4.66 0 1.57-.113 4.714-.45 6.005-.226 1.29.225.954 2.47 1.684 2.526.73.056 3.368-3.424 3.03-3.705-.336-.28-1.29.674-1.908.674s-1.797-1.685-2.303-1.853c-.505-.168-2.75.56-3.873.56-1.123 0-2.338-1.315-2.507-2.158-.168-.843.88-1.94.935-2.614.056-.674-1.216-3.603-1.46-7.017-.06-.848 1.235-2.246 2.19-2.303.34-.02 1.462 1.717 2.344 3.31.607 1.095 1.73 1.49 1.977 1.517.465.053 1.32-.908 1.485-2.158.14-1.05.708-1.646.76-2.782.057-1.245-.28-4.884.112-5.39.393-.504 2.75-.392 2.75-.673s-1.46-.392-2.132-.448c-.674-.056-1.123.168-1.123-.786 0-.954-.786-3.48-1.572-3.536-.36-.026-1.175.942-1.455 2.233-.336 1.55-1.726 2.934-3.036 2.932-.422 0-1.557-.035-2.018-.252s-.246-.62-.452-1.32c-.327-1.11.225-6.286.225-6.847s-1.235-1.572-1.342-1.965c-.107-.392 6.563-.56 7.63-.56s1.515.898 2.132 1.01-.168-1.067.45-1.067 2.95 2.49 3.423 2.414c1.78-.278-3.85-6.28-4.467-6.28zM30.813 44.53c-1.796.616-3.48.392-5.67-.675s-7.915-8.14-10.497-10.16c-2.582-2.02-3.985-3.574-3.76-5.277.336-2.563 4.546-10.16 5.332-11.732.786-1.572 4.435-9.318 5.5-9.318.787 0 3.37 3.705 4.155 4.996.786 1.29 3.536 4.322 3.593 5.67s-2.077 6.605-2.863 6.774c-.786.168-2.75-1.44-3.03-1.048-.282.393.897 1.347 1.57 2.077s4.1 4.603 4.324 6.68c.223 2.077-1.068 3.312-.73 3.986.336.674 4.77 1.796 4.995 3.593.224 1.795-1.123 3.815-2.92 4.433z"/>
    <path d="M78.68 38.395c.153.858-.627 1.697-1.996 1.596-1.694-.125-4.18-.823-5.55-.6-1.367.223-3.427.83-3.51 1.97-.12 1.597.592.984 1.71.34.648-.373 1.863-.277 1.166.435-.52.53-3.96 4.752-5.213 5.892s-2.678 3.134-2.45 4.9c.228 1.768 1.482 4.104 4.103 4.902s6.326 0 6.212 1.766-1.026 1.368-1.767 1.254c-.74-.114-1.334-1.225-2.644-.997-1.31.228-1.57 1.965-1.23 3.106.97 3.24 4.398 6.568 4.274 7.578-.124 1.012-5.713.4-6.682.002-.97-.4-.384-1.426.584-1.426.97 0 2.507.114 2.336-.627-.17-.74-2.01-.168-2.06-1.565-.066-1.734-1.36-5.445-2.043-7.325s-2.622-3.42-3.306-3.42-2.62 4.104-3.248 6.156c-.627 2.052-1.482 4.388-2.11 4.787-.626.4-1.48.57-1.31 1.197.075.274.22.948.948.914.79-.035 1.764.407 1.674 1.024-.068.465-2.478.953-3.732.838-1.254-.115-3.15-.423-3.03-1.225.136-.918 1.31-.225 3.685-3.944.725-1.133 1.426-1.767 1.14-2.792-.284-1.025-5.04-2.207-3.874-3.02.793-.552 2.525.138 2.963.57.892.883 1.367.97 2.335.058.97-.912 2.654-5.33 2.768-6.812.114-1.482-1.06-3.787-1.914-4.7-.856-.91-1.483-1.652-.742-1.652s1.203.115.922-.727c-.28-.842-2.59-2.763-3.04-4.39s-1.458-3.118-2.076-4.058c-.617-.94-3.593-2.007-3.424-2.512.168-.505 4.908-.393 5.525 0s-.446 2.217.452 2.666 1.32-.14 1.488.814c.168.954 1.347 4.435 1.628 5.277.28.842 2.414 6.23 3.256 6.23.84 0 1.94-3.648 2.71-5.22.77-1.572 3.07-8.083 5.148-8.645 2.077-.56 5.726-1.01 7.41-.505 1.685.502 2.327.865 2.51 1.89z"/>
    <path d="M111.01 33.36c.59.345.734.917.428 1.773-.306.856-4.306 5.748-4.793 5.698-1.07-.108-.51-2.182-1.564-2.152-1.797.05-4.18 1.678-5.073 2.384-1.59 1.26.183 2.934.55 3.73s.075 2.683.245 3.116c.39 1 3.005.677 3.24 1.345.162.462-.466 1.015-1.095 1.114-.74.116-1.687-.49-2.083-.258-.734.427-.672 1.893-.734 3.116-.06 1.223-.734 6.847-.734 8.314 0 1.467.61 2.995.55 3.73-.06.733-.738 1.622-.245 2.505.813 1.454 3.427 1.646 3.732 2.135.306.49-.37 1.01-1.164.996-.795-.013-7.9.104-7.93-.442-.04-.75 2.55-1.283 2.734-1.955.183-.673 0-3.485.122-4.035.122-.55-3.306-1.715-3.23-2.67.03-.41 1.15.163 1.335-.51.182-.67-1.632-1.307-1.45-1.796s3.182-1.823 3.304-2.678c.122-.856-.244-8.286-.022-9.707.61-3.894-.633-5.933-.177-6.51.675-.854 2.128.076 3.233-1.314.562-.705-.06-.55-2.628-.67-2.567-.123-6.686-.08-7.358-.018-.672.06-1.984 2.03-2.545 1.973-1.217-.123.648-2.11.648-2.66s-2.722-.33-2.538-.757 1.646-.924 2.196-.924c.55 0 1.436.242 1.895.06.85-.334.32-3.314 2.45-3.314 2.21 0-.677 3.376-.005 3.56.672.183 11.73.27 13.02.25 2.188-.04 5.257-3.682 5.687-3.43z"/>
    <path d="M112.66 36.783c2.388-.12 10.942.06 12.41.978 1.466.918 4.793 3.43 4.95 5.258.32 3.72-1.16 6.418-.795 7.458.367 1.04 1.16 2.2 2.506 2.384 1.346.183 1.835.06 1.835.366s-1.07.547-.978.98c.222 1.045 2.69 1.466 2.75 2.138s-.12 1.59-.488 1.59-5.222-4.28-8.56-4.28c-.985 0-3.79 1.223-3.728 2.017s2.262 1.285 3.3 2.996c.486.8 3.51 5.414 5.562 10.973 2.694 7.297 4.19 11.376 5.747 13.782 1.4 2.164-.053 1.155-1.16 0-3.24-3.38-4.99-7.974-6.05-11.672-1.218-4.262-4.463-11.504-6.844-13.773-.788-.75-4.744.48-5.54.173s.34-1.38 1.44-2.052c1.1-.672 4.14-2.953 5.746-4.707 1.18-1.286 2.283-5.403 1.528-6.845-1.046-1.998-4.91-.356-5.72.208-1.772 1.235-2.104-.82-.21-1.308 1.896-.49 3.575-1.464 3.67-2.384.17-1.696-3.67-2.994-5.808-2.933-2.14.06-3.545 1.04-3.423 2.873.12 1.834.855 5.196.855 7.03 0 1.834.245 11.186-.06 13.265-.307 2.078-.246 3.912.12 4.34.368.428.98 1.284 0 1.773-.977.49-1.1 1.406-.427 1.528s2.995 1.004 2.934 1.97-1.467.842-2.69.78c-1.223-.06-5.894-.7-5.814-1.598.086-.962 2.373-1.58 2.657-2.926.284-1.345-.406-17.177 0-21.09s.205-5.44 0-6.417-1.684-1.526-1.306-2.384c.157-.352.862-.45 1.59-.487z"/>
    <path d="M139.695 36.75c.42-.713 6.287-.49 7.335-.49s3.21-.405 3.218-.016c.02.764-2.17.015-2.245.988-.034.448.823.674.973 1.422s-.524 2.245-.3 4.117c.226 1.872 1.91 7.88 1.76 9.45s-1.5 2.62-2.507 3.65c-.357.362-3.302.267-3.357.56-.17.9 3.5.075 4.773.9.773.5 1.877 1.402 2.498 2.828.367.84.804 2.095.834 2.888.034.93.62 2.16.987 3.35.433 1.4.677 2.726 1 3.17.6.824 1.23 1.853.375 1.797-.337-.022-2.487-.13-4.014-.02-1.665.12-1.89-.396-1.832-1.03.127-1.38 1.966-1.34 2.865-.966.897.374.83-.278.68-.95-.15-.675-1.825-.514-2.078-2.03-.11-.66.07-2.023-.225-3.467-.233-1.144-1.147-1.866-1.628-2.708-.31-.54-1.914-1.692-3.06-1.75-3.593-.186-5.342-.493-5.025-1.393.304-.863 1.605-1.384 2.525-2.02.695-.478 2.12-.69 3.314-.816 2.097-.222 1.815-2.61 1.44-3.733-.373-1.122-1.992-7.68-1.917-8.952.075-1.272-1.018-3.237-1.84-1.965-.824 1.272-3.128 7.625-3.726 9.72s-1.814 9.114-2.04 10.91c-.066.533-.426 1.183-.616 1.852-.45 1.588-.883 3.334-.936 4.23-.075 1.27-1.796 1.197-1.796 2.394 0 .447.38 1.06.992.953 1.018-.18 2.466-.015 2.414.56-.14 1.564-1.153 1.222-3.652 1.56-.72.096-1.178-.532-1.476-1.24-.282-.67-.523-1.498-.298-2.21.45-1.42 2.058-6.398 2.507-9.168.448-2.77 5.355-16.886 5.575-18.45.343-2.46-2.1-2.91-1.5-3.925z"/>
    <path d="M170.448 36.642c-.095-.91 2.526-1.628.908-2.854-.645-.49-3.066 3.56-3.667 3.518-1.05-.075-2.245-1.87-5.035-1.703-3.52.212-6.99 4.538-8.052 7.465-.54 1.49.272 4.346 1.97 6.774 1.6 2.285 4.003 4.134 6.326 5.875 4.79 3.593 6.23 6.427 5.92 8.43-.306 1.992-.83 4.86-4.275 4.594-3.892-.298-5.89-2.235-6.287-3.292-.208-.553-.92-.745-1.31-.262-.322.4-.357 1.303-.28 2.498.05.804.99 1.43.99 2.105 0 .673-.47 1.455-.41 2.24.09 1.24.56 1.8 1.214 1.8s1.06-.822.994-1.572c-.094-1.067-.65-.823-.8-1.796-.15-.973.342-1.572 1.1-1.572.78 0 1.234 2.05 5.762 1.497 1.703-.208 3.29-.497 4.285-1.65.88-1.022 1.284-2.82 1.18-3.814-.112-1.045.854-.75 1.74-.814.528-.038 1.643 1.175 1.12 2.522-.525 1.347-2.263 2.257-2.637 3.006-.374.748 1.347 1.198 2.395 1.265 1.05.068 4.307.533 4.595-.05.398-.806-2.61-1.43-3.022-2.862-.25-.868.674-.822 1.048-1.496.375-.674.15-1.572 0-2.395-.15-.824 1.273-.3 1.815-.75s.282-.897-1.14-1.87c-1.422-.973-1.123-4.19-1.497-6.063-.374-1.87.898-4.49.3-4.79-.6-.3-.675-1.647-.75-2.92-.074-1.27-.598-1.795-.747-2.62-.15-.822.9-2.244.675-3.517-.44-2.49.15-3.593.748-3.892.6-.3 3.078.168 2.674-.87-.243-.625-2.45.047-3.273-.06-.593-.08-3.13-.042-3.087.48.056.675.704 1.254.692 4.192-.014 3.368.15 12.125.448 13.92.3 1.797.85 7.214-.047 7.29-.897.074-2.87-2.574-4.742-5.12-1.87-2.544-9.682-7.1-10.553-9.654-.898-2.634-.068-5.01.524-6.137 1.047-1.994 4.63-4.674 6.66-4.192 2.526.6 3.96 3.21 4.416 3.218 1.17.02.938-2.002 1.935-2.797.834-.663-.79-.99-.822-1.308z"/>
    <path d="M187.377 37.48c-.137-.513-.056-1.425 1.156-1.307 1.228.12 3.274-.075 3.93-.1 1.122-.04 2.69-.593 3.662.19.973.783.897 1.454-.113 1.604-1.017.15-3.026 1.236-3.026 2.732s-.46 7.054-.817 8.606c-.347 1.506-3.04 4.865-4.35 4.585-.98-.208-2.244.28-1.122.655 1.123.374 3.48-.037 4.403 1.785.674 1.33 1.586 8.17 1.362 9.89-.225 1.722 1.425 2.996 1.123 3.668-.674 1.497-2.126.033-2.8.033s-4.433 1.36-4.984.567c-.595-.858 2.097-.487 3.07-1.16.973-.674 1.034-5.474 1.11-8.308.074-2.836-.137-5.277-2.907-5.127-2.77.15-9.206-.633-8.532-1.89.675-1.254 3.407-.11 6.84-1.688 1.484-.68 2.637-1.882 3.452-3.42.925-1.746.67-3.243.748-4.754.15-2.843.898-4.733.898-5.407 0-.672-2.777.058-3.1-1.154z"/>
  </g>
</svg>
