<!--
  SVG Music Logos
  Judas Priest - Cross v1.0.0
  https://github.com/tiagoporto/svg-music-logos
  Copyright (c) 2016 Tiago Porto (http://tiagoporto.com)
-->
<svg xmlns="http://www.w3.org/2000/svg" viewBox="0 0 200 200">
  <path d="M179.09 5.92v22.37c0 18.892-15.15 34.353-33.664 34.353h-.81v5.284c0 15.072-12.586 27.4-27.97 27.4h-4.424V195H87.78V95.325h-5.557c-15.384 0-27.97-12.328-27.97-27.4V62.64c-18.37-.18-33.343-15.565-33.343-34.35V5.92h21.21v21.04c0 7.45 7.728 13.548 17.177 13.548h28.48V5h24.442v35.508h28.314c9.538 0 17.34-6.155 17.34-13.677V5.92h21.216zm-66.867 56.723v12.36c6.76-1.216 11.842-5.974 11.842-11.617v-.743h-11.842zM87.78 75.17V62.644H74.8v.743c0 5.953 5.662 10.922 12.98 11.785z"/>
</svg>
